<?xml version="1.0" encoding="utf-8" standalone="no"?>
<!DOCTYPE svg PUBLIC "-//W3C//DTD SVG 1.1//EN"
  "http://www.w3.org/Graphics/SVG/1.1/DTD/svg11.dtd">
<!-- Created with matplotlib (https://matplotlib.org/) -->
<svg height="345.6pt" version="1.1" viewBox="0 0 460.8 345.6" width="460.8pt" xmlns="http://www.w3.org/2000/svg" xmlns:xlink="http://www.w3.org/1999/xlink">
 <metadata>
  <rdf:RDF xmlns:cc="http://creativecommons.org/ns#" xmlns:dc="http://purl.org/dc/elements/1.1/" xmlns:rdf="http://www.w3.org/1999/02/22-rdf-syntax-ns#">
   <cc:Work>
    <dc:type rdf:resource="http://purl.org/dc/dcmitype/StillImage"/>
    <dc:date>2021-04-26T15:03:30.029777</dc:date>
    <dc:format>image/svg+xml</dc:format>
    <dc:creator>
     <cc:Agent>
      <dc:title>Matplotlib v3.3.2, https://matplotlib.org/</dc:title>
     </cc:Agent>
    </dc:creator>
   </cc:Work>
  </rdf:RDF>
 </metadata>
 <defs>
  <style type="text/css">*{stroke-linecap:butt;stroke-linejoin:round;}</style>
 </defs>
 <g id="figure_1">
  <g id="patch_1">
   <path d="M 0 345.6 
L 460.8 345.6 
L 460.8 0 
L 0 0 
z
" style="fill:#ffffff;"/>
  </g>
  <g id="axes_1">
   <g id="patch_2">
    <path d="M 57.6 298.944 
L 338.688 298.944 
L 338.688 3.456 
L 57.6 3.456 
z
" style="fill:#ffffff;"/>
   </g>
   <g id="line2d_1">
    <path d="M 29.53256 298.944 
L 29.53256 297.262607 
L 36.60358 297.262607 
L 36.60358 295.581214 
L 41.620548 295.581214 
L 41.620548 293.899821 
L 57.6 293.899821 
L 57.6 290.537035 
L 77.884514 290.537035 
L 77.884514 287.174249 
L 92.026554 287.174249 
L 92.026554 283.811463 
L 122.865118 283.811463 
L 122.865118 280.448677 
L 141.899708 280.448677 
L 141.899708 277.085891 
L 145.954117 277.085891 
L 145.954117 273.723105 
L 162.225793 273.723105 
L 162.225793 272.041713 
L 162.979172 272.041713 
L 162.979172 270.36032 
L 163.804376 270.36032 
L 163.804376 268.678927 
L 171.665827 268.678927 
L 171.665827 263.634748 
L 175.803242 263.634748 
L 175.803242 258.590569 
L 181.899054 258.590569 
L 181.899054 253.54639 
L 185.275111 253.54639 
L 185.275111 250.183604 
L 190.728074 250.183604 
L 190.728074 246.820818 
L 196.881869 246.820818 
L 196.881869 243.458032 
L 204.484415 243.458032 
L 204.484415 241.776639 
L 207.604254 241.776639 
L 207.604254 240.095246 
L 215.520353 240.095246 
L 215.520353 238.413853 
L 219.48261 238.413853 
L 219.48261 235.051067 
L 221.494756 235.051067 
L 221.494756 231.688281 
L 222.322168 231.688281 
L 222.322168 228.325495 
L 230.082212 228.325495 
L 230.082212 223.281316 
L 233.736302 223.281316 
L 233.736302 218.237138 
L 235.85081 218.237138 
L 235.85081 213.192959 
L 241.277812 213.192959 
L 241.277812 209.830173 
L 247.953008 209.830173 
L 247.953008 206.467387 
L 251.533481 206.467387 
L 251.533481 203.104601 
L 256.931953 203.104601 
L 256.931953 199.741815 
L 260.297119 199.741815 
L 260.297119 196.379029 
L 265.254222 196.379029 
L 265.254222 193.016243 
L 268.955501 193.016243 
L 268.955501 189.653457 
L 276.857173 189.653457 
L 276.857173 186.290671 
L 278.323522 186.290671 
L 278.323522 184.609278 
L 279.948014 184.609278 
L 279.948014 181.246492 
L 286.404388 181.246492 
L 286.404388 179.565099 
L 287.063279 179.565099 
L 287.063279 174.52092 
L 294.076524 174.52092 
L 294.076524 172.839527 
L 295.260082 172.839527 
L 295.260082 171.158135 
L 296.549788 171.158135 
L 296.549788 166.113956 
L 302.187521 166.113956 
L 302.187521 161.069777 
L 306.382605 161.069777 
L 306.382605 159.388384 
L 310.207758 159.388384 
L 310.207758 156.025598 
L 313.214424 156.025598 
L 313.214424 150.981419 
L 315.490555 150.981419 
L 315.490555 149.300026 
L 320.093235 149.300026 
L 320.093235 147.618633 
L 320.619152 147.618633 
L 320.619152 142.574454 
L 329.03846 142.574454 
L 329.03846 137.530275 
L 338.688 137.530275 
" style="fill:none;stroke:#f5deb3;stroke-linecap:square;stroke-width:4;"/>
   </g>
   <g id="line2d_2">
    <defs>
     <path d="M 0 7.778175 
L 7.778175 0 
L 0 -7.778175 
L -7.778175 0 
z
" id="mfb09c13085" style="stroke:#f5deb3;stroke-linejoin:miter;stroke-width:1.5;"/>
    </defs>
    <g>
     <use style="fill:#f5deb3;stroke:#f5deb3;stroke-linejoin:miter;stroke-width:1.5;" x="92.026554" xlink:href="#mfb09c13085" y="287.174249"/>
     <use style="fill:#f5deb3;stroke:#f5deb3;stroke-linejoin:miter;stroke-width:1.5;" x="185.275111" xlink:href="#mfb09c13085" y="253.54639"/>
     <use style="fill:#f5deb3;stroke:#f5deb3;stroke-linejoin:miter;stroke-width:1.5;" x="241.277812" xlink:href="#mfb09c13085" y="213.192959"/>
     <use style="fill:#f5deb3;stroke:#f5deb3;stroke-linejoin:miter;stroke-width:1.5;" x="302.187521" xlink:href="#mfb09c13085" y="166.113956"/>
     <use style="fill:#f5deb3;stroke:#f5deb3;stroke-linejoin:miter;stroke-width:1.5;" x="329.03846" xlink:href="#mfb09c13085" y="137.530275"/>
     <use style="fill:#f5deb3;stroke:#f5deb3;stroke-linejoin:miter;stroke-width:1.5;" x="338.688" xlink:href="#mfb09c13085" y="137.530275"/>
    </g>
   </g>
   <g id="line2d_3">
    <path style="fill:none;stroke:#f5deb3;stroke-linecap:square;stroke-width:4;"/>
    <g/>
   </g>
   <g id="line2d_4">
    <path d="M 338.688 137.530275 
L 369.60768 12.232871 
" style="fill:none;stroke:#f5deb3;stroke-linecap:square;stroke-width:4;"/>
    <g>
     <use style="fill:#f5deb3;stroke:#f5deb3;stroke-linejoin:miter;stroke-width:1.5;" x="338.688" xlink:href="#mfb09c13085" y="137.530275"/>
     <use style="fill:#f5deb3;stroke:#f5deb3;stroke-linejoin:miter;stroke-width:1.5;" x="369.60768" xlink:href="#mfb09c13085" y="12.232871"/>
    </g>
   </g>
   <g id="matplotlib.axis_1">
    <g id="xtick_1">
     <g id="line2d_5">
      <path clip-path="url(#pf5c6ff9666)" d="M 57.6 298.944 
L 57.6 3.456 
" style="fill:none;stroke:#b0b0b0;stroke-linecap:square;stroke-width:0.8;"/>
     </g>
     <g id="line2d_6">
      <defs>
       <path d="M 0 0 
L 0 3.5 
" id="mad185c67cc" style="stroke:#000000;stroke-width:0.8;"/>
      </defs>
      <g>
       <use style="stroke:#000000;stroke-width:0.8;" x="57.6" xlink:href="#mad185c67cc" y="298.944"/>
      </g>
     </g>
     <g id="text_1">
      <!-- 0 -->
      <g transform="translate(51.2375 321.140875)scale(0.2 -0.2)">
       <defs>
        <path d="M 31.78125 66.40625 
Q 24.171875 66.40625 20.328125 58.90625 
Q 16.5 51.421875 16.5 36.375 
Q 16.5 21.390625 20.328125 13.890625 
Q 24.171875 6.390625 31.78125 6.390625 
Q 39.453125 6.390625 43.28125 13.890625 
Q 47.125 21.390625 47.125 36.375 
Q 47.125 51.421875 43.28125 58.90625 
Q 39.453125 66.40625 31.78125 66.40625 
z
M 31.78125 74.21875 
Q 44.046875 74.21875 50.515625 64.515625 
Q 56.984375 54.828125 56.984375 36.375 
Q 56.984375 17.96875 50.515625 8.265625 
Q 44.046875 -1.421875 31.78125 -1.421875 
Q 19.53125 -1.421875 13.0625 8.265625 
Q 6.59375 17.96875 6.59375 36.375 
Q 6.59375 54.828125 13.0625 64.515625 
Q 19.53125 74.21875 31.78125 74.21875 
z
" id="DejaVuSans-48"/>
       </defs>
       <use xlink:href="#DejaVuSans-48"/>
      </g>
     </g>
    </g>
    <g id="xtick_2">
     <g id="line2d_7">
      <path clip-path="url(#pf5c6ff9666)" d="M 137.910857 298.944 
L 137.910857 3.456 
" style="fill:none;stroke:#b0b0b0;stroke-linecap:square;stroke-width:0.8;"/>
     </g>
     <g id="line2d_8">
      <g>
       <use style="stroke:#000000;stroke-width:0.8;" x="137.910857" xlink:href="#mad185c67cc" y="298.944"/>
      </g>
     </g>
     <g id="text_2">
      <!-- 2 -->
      <g transform="translate(131.548357 321.140875)scale(0.2 -0.2)">
       <defs>
        <path d="M 19.1875 8.296875 
L 53.609375 8.296875 
L 53.609375 0 
L 7.328125 0 
L 7.328125 8.296875 
Q 12.9375 14.109375 22.625 23.890625 
Q 32.328125 33.6875 34.8125 36.53125 
Q 39.546875 41.84375 41.421875 45.53125 
Q 43.3125 49.21875 43.3125 52.78125 
Q 43.3125 58.59375 39.234375 62.25 
Q 35.15625 65.921875 28.609375 65.921875 
Q 23.96875 65.921875 18.8125 64.3125 
Q 13.671875 62.703125 7.8125 59.421875 
L 7.8125 69.390625 
Q 13.765625 71.78125 18.9375 73 
Q 24.125 74.21875 28.421875 74.21875 
Q 39.75 74.21875 46.484375 68.546875 
Q 53.21875 62.890625 53.21875 53.421875 
Q 53.21875 48.921875 51.53125 44.890625 
Q 49.859375 40.875 45.40625 35.40625 
Q 44.1875 33.984375 37.640625 27.21875 
Q 31.109375 20.453125 19.1875 8.296875 
z
" id="DejaVuSans-50"/>
       </defs>
       <use xlink:href="#DejaVuSans-50"/>
      </g>
     </g>
    </g>
    <g id="xtick_3">
     <g id="line2d_9">
      <path clip-path="url(#pf5c6ff9666)" d="M 218.221714 298.944 
L 218.221714 3.456 
" style="fill:none;stroke:#b0b0b0;stroke-linecap:square;stroke-width:0.8;"/>
     </g>
     <g id="line2d_10">
      <g>
       <use style="stroke:#000000;stroke-width:0.8;" x="218.221714" xlink:href="#mad185c67cc" y="298.944"/>
      </g>
     </g>
     <g id="text_3">
      <!-- 4 -->
      <g transform="translate(211.859214 321.140875)scale(0.2 -0.2)">
       <defs>
        <path d="M 37.796875 64.3125 
L 12.890625 25.390625 
L 37.796875 25.390625 
z
M 35.203125 72.90625 
L 47.609375 72.90625 
L 47.609375 25.390625 
L 58.015625 25.390625 
L 58.015625 17.1875 
L 47.609375 17.1875 
L 47.609375 0 
L 37.796875 0 
L 37.796875 17.1875 
L 4.890625 17.1875 
L 4.890625 26.703125 
z
" id="DejaVuSans-52"/>
       </defs>
       <use xlink:href="#DejaVuSans-52"/>
      </g>
     </g>
    </g>
    <g id="xtick_4">
     <g id="line2d_11">
      <path clip-path="url(#pf5c6ff9666)" d="M 298.532571 298.944 
L 298.532571 3.456 
" style="fill:none;stroke:#b0b0b0;stroke-linecap:square;stroke-width:0.8;"/>
     </g>
     <g id="line2d_12">
      <g>
       <use style="stroke:#000000;stroke-width:0.8;" x="298.532571" xlink:href="#mad185c67cc" y="298.944"/>
      </g>
     </g>
     <g id="text_4">
      <!-- 6 -->
      <g transform="translate(292.170071 321.140875)scale(0.2 -0.2)">
       <defs>
        <path d="M 33.015625 40.375 
Q 26.375 40.375 22.484375 35.828125 
Q 18.609375 31.296875 18.609375 23.390625 
Q 18.609375 15.53125 22.484375 10.953125 
Q 26.375 6.390625 33.015625 6.390625 
Q 39.65625 6.390625 43.53125 10.953125 
Q 47.40625 15.53125 47.40625 23.390625 
Q 47.40625 31.296875 43.53125 35.828125 
Q 39.65625 40.375 33.015625 40.375 
z
M 52.59375 71.296875 
L 52.59375 62.3125 
Q 48.875 64.0625 45.09375 64.984375 
Q 41.3125 65.921875 37.59375 65.921875 
Q 27.828125 65.921875 22.671875 59.328125 
Q 17.53125 52.734375 16.796875 39.40625 
Q 19.671875 43.65625 24.015625 45.921875 
Q 28.375 48.1875 33.59375 48.1875 
Q 44.578125 48.1875 50.953125 41.515625 
Q 57.328125 34.859375 57.328125 23.390625 
Q 57.328125 12.15625 50.6875 5.359375 
Q 44.046875 -1.421875 33.015625 -1.421875 
Q 20.359375 -1.421875 13.671875 8.265625 
Q 6.984375 17.96875 6.984375 36.375 
Q 6.984375 53.65625 15.1875 63.9375 
Q 23.390625 74.21875 37.203125 74.21875 
Q 40.921875 74.21875 44.703125 73.484375 
Q 48.484375 72.75 52.59375 71.296875 
z
" id="DejaVuSans-54"/>
       </defs>
       <use xlink:href="#DejaVuSans-54"/>
      </g>
     </g>
    </g>
    <g id="xtick_5">
     <g id="line2d_13">
      <path clip-path="url(#pf5c6ff9666)" d="M 97.755429 298.944 
L 97.755429 3.456 
" style="fill:none;stroke:#b0b0b0;stroke-linecap:square;stroke-width:0.8;"/>
     </g>
     <g id="line2d_14">
      <defs>
       <path d="M 0 0 
L 0 2 
" id="m4fb7e1c273" style="stroke:#000000;stroke-width:0.6;"/>
      </defs>
      <g>
       <use style="stroke:#000000;stroke-width:0.6;" x="97.755429" xlink:href="#m4fb7e1c273" y="298.944"/>
      </g>
     </g>
    </g>
    <g id="xtick_6">
     <g id="line2d_15">
      <path clip-path="url(#pf5c6ff9666)" d="M 178.066286 298.944 
L 178.066286 3.456 
" style="fill:none;stroke:#b0b0b0;stroke-linecap:square;stroke-width:0.8;"/>
     </g>
     <g id="line2d_16">
      <g>
       <use style="stroke:#000000;stroke-width:0.6;" x="178.066286" xlink:href="#m4fb7e1c273" y="298.944"/>
      </g>
     </g>
    </g>
    <g id="xtick_7">
     <g id="line2d_17">
      <path clip-path="url(#pf5c6ff9666)" d="M 258.377143 298.944 
L 258.377143 3.456 
" style="fill:none;stroke:#b0b0b0;stroke-linecap:square;stroke-width:0.8;"/>
     </g>
     <g id="line2d_18">
      <g>
       <use style="stroke:#000000;stroke-width:0.6;" x="258.377143" xlink:href="#m4fb7e1c273" y="298.944"/>
      </g>
     </g>
    </g>
    <g id="xtick_8">
     <g id="line2d_19">
      <path clip-path="url(#pf5c6ff9666)" d="M 338.688 298.944 
L 338.688 3.456 
" style="fill:none;stroke:#b0b0b0;stroke-linecap:square;stroke-width:0.8;"/>
     </g>
     <g id="line2d_20">
      <g>
       <use style="stroke:#000000;stroke-width:0.6;" x="338.688" xlink:href="#m4fb7e1c273" y="298.944"/>
      </g>
     </g>
    </g>
    <g id="text_5">
     <!-- log10(# f-evals / dimension) -->
     <g transform="translate(77.764078 342.217594)scale(0.17 -0.17)">
      <defs>
       <path d="M 9.421875 75.984375 
L 18.40625 75.984375 
L 18.40625 0 
L 9.421875 0 
z
" id="DejaVuSans-108"/>
       <path d="M 30.609375 48.390625 
Q 23.390625 48.390625 19.1875 42.75 
Q 14.984375 37.109375 14.984375 27.296875 
Q 14.984375 17.484375 19.15625 11.84375 
Q 23.34375 6.203125 30.609375 6.203125 
Q 37.796875 6.203125 41.984375 11.859375 
Q 46.1875 17.53125 46.1875 27.296875 
Q 46.1875 37.015625 41.984375 42.703125 
Q 37.796875 48.390625 30.609375 48.390625 
z
M 30.609375 56 
Q 42.328125 56 49.015625 48.375 
Q 55.71875 40.765625 55.71875 27.296875 
Q 55.71875 13.875 49.015625 6.21875 
Q 42.328125 -1.421875 30.609375 -1.421875 
Q 18.84375 -1.421875 12.171875 6.21875 
Q 5.515625 13.875 5.515625 27.296875 
Q 5.515625 40.765625 12.171875 48.375 
Q 18.84375 56 30.609375 56 
z
" id="DejaVuSans-111"/>
       <path d="M 45.40625 27.984375 
Q 45.40625 37.75 41.375 43.109375 
Q 37.359375 48.484375 30.078125 48.484375 
Q 22.859375 48.484375 18.828125 43.109375 
Q 14.796875 37.75 14.796875 27.984375 
Q 14.796875 18.265625 18.828125 12.890625 
Q 22.859375 7.515625 30.078125 7.515625 
Q 37.359375 7.515625 41.375 12.890625 
Q 45.40625 18.265625 45.40625 27.984375 
z
M 54.390625 6.78125 
Q 54.390625 -7.171875 48.1875 -13.984375 
Q 42 -20.796875 29.203125 -20.796875 
Q 24.46875 -20.796875 20.265625 -20.09375 
Q 16.0625 -19.390625 12.109375 -17.921875 
L 12.109375 -9.1875 
Q 16.0625 -11.328125 19.921875 -12.34375 
Q 23.78125 -13.375 27.78125 -13.375 
Q 36.625 -13.375 41.015625 -8.765625 
Q 45.40625 -4.15625 45.40625 5.171875 
L 45.40625 9.625 
Q 42.625 4.78125 38.28125 2.390625 
Q 33.9375 0 27.875 0 
Q 17.828125 0 11.671875 7.65625 
Q 5.515625 15.328125 5.515625 27.984375 
Q 5.515625 40.671875 11.671875 48.328125 
Q 17.828125 56 27.875 56 
Q 33.9375 56 38.28125 53.609375 
Q 42.625 51.21875 45.40625 46.390625 
L 45.40625 54.6875 
L 54.390625 54.6875 
z
" id="DejaVuSans-103"/>
       <path d="M 12.40625 8.296875 
L 28.515625 8.296875 
L 28.515625 63.921875 
L 10.984375 60.40625 
L 10.984375 69.390625 
L 28.421875 72.90625 
L 38.28125 72.90625 
L 38.28125 8.296875 
L 54.390625 8.296875 
L 54.390625 0 
L 12.40625 0 
z
" id="DejaVuSans-49"/>
       <path d="M 31 75.875 
Q 24.46875 64.65625 21.28125 53.65625 
Q 18.109375 42.671875 18.109375 31.390625 
Q 18.109375 20.125 21.3125 9.0625 
Q 24.515625 -2 31 -13.1875 
L 23.1875 -13.1875 
Q 15.875 -1.703125 12.234375 9.375 
Q 8.59375 20.453125 8.59375 31.390625 
Q 8.59375 42.28125 12.203125 53.3125 
Q 15.828125 64.359375 23.1875 75.875 
z
" id="DejaVuSans-40"/>
       <path d="M 51.125 44 
L 36.921875 44 
L 32.8125 27.6875 
L 47.125 27.6875 
z
M 43.796875 71.78125 
L 38.71875 51.515625 
L 52.984375 51.515625 
L 58.109375 71.78125 
L 65.921875 71.78125 
L 60.890625 51.515625 
L 76.125 51.515625 
L 76.125 44 
L 58.984375 44 
L 54.984375 27.6875 
L 70.515625 27.6875 
L 70.515625 20.21875 
L 53.078125 20.21875 
L 48 0 
L 40.1875 0 
L 45.21875 20.21875 
L 30.90625 20.21875 
L 25.875 0 
L 18.015625 0 
L 23.09375 20.21875 
L 7.71875 20.21875 
L 7.71875 27.6875 
L 24.90625 27.6875 
L 29 44 
L 13.28125 44 
L 13.28125 51.515625 
L 30.90625 51.515625 
L 35.890625 71.78125 
z
" id="DejaVuSans-35"/>
       <path id="DejaVuSans-32"/>
       <path d="M 37.109375 75.984375 
L 37.109375 68.5 
L 28.515625 68.5 
Q 23.6875 68.5 21.796875 66.546875 
Q 19.921875 64.59375 19.921875 59.515625 
L 19.921875 54.6875 
L 34.71875 54.6875 
L 34.71875 47.703125 
L 19.921875 47.703125 
L 19.921875 0 
L 10.890625 0 
L 10.890625 47.703125 
L 2.296875 47.703125 
L 2.296875 54.6875 
L 10.890625 54.6875 
L 10.890625 58.5 
Q 10.890625 67.625 15.140625 71.796875 
Q 19.390625 75.984375 28.609375 75.984375 
z
" id="DejaVuSans-102"/>
       <path d="M 4.890625 31.390625 
L 31.203125 31.390625 
L 31.203125 23.390625 
L 4.890625 23.390625 
z
" id="DejaVuSans-45"/>
       <path d="M 56.203125 29.59375 
L 56.203125 25.203125 
L 14.890625 25.203125 
Q 15.484375 15.921875 20.484375 11.0625 
Q 25.484375 6.203125 34.421875 6.203125 
Q 39.59375 6.203125 44.453125 7.46875 
Q 49.3125 8.734375 54.109375 11.28125 
L 54.109375 2.78125 
Q 49.265625 0.734375 44.1875 -0.34375 
Q 39.109375 -1.421875 33.890625 -1.421875 
Q 20.796875 -1.421875 13.15625 6.1875 
Q 5.515625 13.8125 5.515625 26.8125 
Q 5.515625 40.234375 12.765625 48.109375 
Q 20.015625 56 32.328125 56 
Q 43.359375 56 49.78125 48.890625 
Q 56.203125 41.796875 56.203125 29.59375 
z
M 47.21875 32.234375 
Q 47.125 39.59375 43.09375 43.984375 
Q 39.0625 48.390625 32.421875 48.390625 
Q 24.90625 48.390625 20.390625 44.140625 
Q 15.875 39.890625 15.1875 32.171875 
z
" id="DejaVuSans-101"/>
       <path d="M 2.984375 54.6875 
L 12.5 54.6875 
L 29.59375 8.796875 
L 46.6875 54.6875 
L 56.203125 54.6875 
L 35.6875 0 
L 23.484375 0 
z
" id="DejaVuSans-118"/>
       <path d="M 34.28125 27.484375 
Q 23.390625 27.484375 19.1875 25 
Q 14.984375 22.515625 14.984375 16.5 
Q 14.984375 11.71875 18.140625 8.90625 
Q 21.296875 6.109375 26.703125 6.109375 
Q 34.1875 6.109375 38.703125 11.40625 
Q 43.21875 16.703125 43.21875 25.484375 
L 43.21875 27.484375 
z
M 52.203125 31.203125 
L 52.203125 0 
L 43.21875 0 
L 43.21875 8.296875 
Q 40.140625 3.328125 35.546875 0.953125 
Q 30.953125 -1.421875 24.3125 -1.421875 
Q 15.921875 -1.421875 10.953125 3.296875 
Q 6 8.015625 6 15.921875 
Q 6 25.140625 12.171875 29.828125 
Q 18.359375 34.515625 30.609375 34.515625 
L 43.21875 34.515625 
L 43.21875 35.40625 
Q 43.21875 41.609375 39.140625 45 
Q 35.0625 48.390625 27.6875 48.390625 
Q 23 48.390625 18.546875 47.265625 
Q 14.109375 46.140625 10.015625 43.890625 
L 10.015625 52.203125 
Q 14.9375 54.109375 19.578125 55.046875 
Q 24.21875 56 28.609375 56 
Q 40.484375 56 46.34375 49.84375 
Q 52.203125 43.703125 52.203125 31.203125 
z
" id="DejaVuSans-97"/>
       <path d="M 44.28125 53.078125 
L 44.28125 44.578125 
Q 40.484375 46.53125 36.375 47.5 
Q 32.28125 48.484375 27.875 48.484375 
Q 21.1875 48.484375 17.84375 46.4375 
Q 14.5 44.390625 14.5 40.28125 
Q 14.5 37.15625 16.890625 35.375 
Q 19.28125 33.59375 26.515625 31.984375 
L 29.59375 31.296875 
Q 39.15625 29.25 43.1875 25.515625 
Q 47.21875 21.78125 47.21875 15.09375 
Q 47.21875 7.46875 41.1875 3.015625 
Q 35.15625 -1.421875 24.609375 -1.421875 
Q 20.21875 -1.421875 15.453125 -0.5625 
Q 10.6875 0.296875 5.421875 2 
L 5.421875 11.28125 
Q 10.40625 8.6875 15.234375 7.390625 
Q 20.0625 6.109375 24.8125 6.109375 
Q 31.15625 6.109375 34.5625 8.28125 
Q 37.984375 10.453125 37.984375 14.40625 
Q 37.984375 18.0625 35.515625 20.015625 
Q 33.0625 21.96875 24.703125 23.78125 
L 21.578125 24.515625 
Q 13.234375 26.265625 9.515625 29.90625 
Q 5.8125 33.546875 5.8125 39.890625 
Q 5.8125 47.609375 11.28125 51.796875 
Q 16.75 56 26.8125 56 
Q 31.78125 56 36.171875 55.265625 
Q 40.578125 54.546875 44.28125 53.078125 
z
" id="DejaVuSans-115"/>
       <path d="M 25.390625 72.90625 
L 33.6875 72.90625 
L 8.296875 -9.28125 
L 0 -9.28125 
z
" id="DejaVuSans-47"/>
       <path d="M 45.40625 46.390625 
L 45.40625 75.984375 
L 54.390625 75.984375 
L 54.390625 0 
L 45.40625 0 
L 45.40625 8.203125 
Q 42.578125 3.328125 38.25 0.953125 
Q 33.9375 -1.421875 27.875 -1.421875 
Q 17.96875 -1.421875 11.734375 6.484375 
Q 5.515625 14.40625 5.515625 27.296875 
Q 5.515625 40.1875 11.734375 48.09375 
Q 17.96875 56 27.875 56 
Q 33.9375 56 38.25 53.625 
Q 42.578125 51.265625 45.40625 46.390625 
z
M 14.796875 27.296875 
Q 14.796875 17.390625 18.875 11.75 
Q 22.953125 6.109375 30.078125 6.109375 
Q 37.203125 6.109375 41.296875 11.75 
Q 45.40625 17.390625 45.40625 27.296875 
Q 45.40625 37.203125 41.296875 42.84375 
Q 37.203125 48.484375 30.078125 48.484375 
Q 22.953125 48.484375 18.875 42.84375 
Q 14.796875 37.203125 14.796875 27.296875 
z
" id="DejaVuSans-100"/>
       <path d="M 9.421875 54.6875 
L 18.40625 54.6875 
L 18.40625 0 
L 9.421875 0 
z
M 9.421875 75.984375 
L 18.40625 75.984375 
L 18.40625 64.59375 
L 9.421875 64.59375 
z
" id="DejaVuSans-105"/>
       <path d="M 52 44.1875 
Q 55.375 50.25 60.0625 53.125 
Q 64.75 56 71.09375 56 
Q 79.640625 56 84.28125 50.015625 
Q 88.921875 44.046875 88.921875 33.015625 
L 88.921875 0 
L 79.890625 0 
L 79.890625 32.71875 
Q 79.890625 40.578125 77.09375 44.375 
Q 74.3125 48.1875 68.609375 48.1875 
Q 61.625 48.1875 57.5625 43.546875 
Q 53.515625 38.921875 53.515625 30.90625 
L 53.515625 0 
L 44.484375 0 
L 44.484375 32.71875 
Q 44.484375 40.625 41.703125 44.40625 
Q 38.921875 48.1875 33.109375 48.1875 
Q 26.21875 48.1875 22.15625 43.53125 
Q 18.109375 38.875 18.109375 30.90625 
L 18.109375 0 
L 9.078125 0 
L 9.078125 54.6875 
L 18.109375 54.6875 
L 18.109375 46.1875 
Q 21.1875 51.21875 25.484375 53.609375 
Q 29.78125 56 35.6875 56 
Q 41.65625 56 45.828125 52.96875 
Q 50 49.953125 52 44.1875 
z
" id="DejaVuSans-109"/>
       <path d="M 54.890625 33.015625 
L 54.890625 0 
L 45.90625 0 
L 45.90625 32.71875 
Q 45.90625 40.484375 42.875 44.328125 
Q 39.84375 48.1875 33.796875 48.1875 
Q 26.515625 48.1875 22.3125 43.546875 
Q 18.109375 38.921875 18.109375 30.90625 
L 18.109375 0 
L 9.078125 0 
L 9.078125 54.6875 
L 18.109375 54.6875 
L 18.109375 46.1875 
Q 21.34375 51.125 25.703125 53.5625 
Q 30.078125 56 35.796875 56 
Q 45.21875 56 50.046875 50.171875 
Q 54.890625 44.34375 54.890625 33.015625 
z
" id="DejaVuSans-110"/>
       <path d="M 8.015625 75.875 
L 15.828125 75.875 
Q 23.140625 64.359375 26.78125 53.3125 
Q 30.421875 42.28125 30.421875 31.390625 
Q 30.421875 20.453125 26.78125 9.375 
Q 23.140625 -1.703125 15.828125 -13.1875 
L 8.015625 -13.1875 
Q 14.5 -2 17.703125 9.0625 
Q 20.90625 20.125 20.90625 31.390625 
Q 20.90625 42.671875 17.703125 53.65625 
Q 14.5 64.65625 8.015625 75.875 
z
" id="DejaVuSans-41"/>
      </defs>
      <use xlink:href="#DejaVuSans-108"/>
      <use x="27.783203" xlink:href="#DejaVuSans-111"/>
      <use x="88.964844" xlink:href="#DejaVuSans-103"/>
      <use x="152.441406" xlink:href="#DejaVuSans-49"/>
      <use x="216.064453" xlink:href="#DejaVuSans-48"/>
      <use x="279.6875" xlink:href="#DejaVuSans-40"/>
      <use x="318.701172" xlink:href="#DejaVuSans-35"/>
      <use x="402.490234" xlink:href="#DejaVuSans-32"/>
      <use x="434.277344" xlink:href="#DejaVuSans-102"/>
      <use x="463.982422" xlink:href="#DejaVuSans-45"/>
      <use x="500.066406" xlink:href="#DejaVuSans-101"/>
      <use x="561.589844" xlink:href="#DejaVuSans-118"/>
      <use x="620.769531" xlink:href="#DejaVuSans-97"/>
      <use x="682.048828" xlink:href="#DejaVuSans-108"/>
      <use x="709.832031" xlink:href="#DejaVuSans-115"/>
      <use x="761.931641" xlink:href="#DejaVuSans-32"/>
      <use x="793.71875" xlink:href="#DejaVuSans-47"/>
      <use x="827.410156" xlink:href="#DejaVuSans-32"/>
      <use x="859.197266" xlink:href="#DejaVuSans-100"/>
      <use x="922.673828" xlink:href="#DejaVuSans-105"/>
      <use x="950.457031" xlink:href="#DejaVuSans-109"/>
      <use x="1047.869141" xlink:href="#DejaVuSans-101"/>
      <use x="1109.392578" xlink:href="#DejaVuSans-110"/>
      <use x="1172.771484" xlink:href="#DejaVuSans-115"/>
      <use x="1224.871094" xlink:href="#DejaVuSans-105"/>
      <use x="1252.654297" xlink:href="#DejaVuSans-111"/>
      <use x="1313.835938" xlink:href="#DejaVuSans-110"/>
      <use x="1377.214844" xlink:href="#DejaVuSans-41"/>
     </g>
    </g>
   </g>
   <g id="matplotlib.axis_2">
    <g id="ytick_1">
     <g id="line2d_21">
      <path clip-path="url(#pf5c6ff9666)" d="M 57.6 298.944 
L 338.688 298.944 
" style="fill:none;stroke:#b0b0b0;stroke-linecap:square;stroke-width:0.8;"/>
     </g>
     <g id="line2d_22">
      <defs>
       <path d="M 0 0 
L -3.5 0 
" id="m8bf948b836" style="stroke:#000000;stroke-width:0.8;"/>
      </defs>
      <g>
       <use style="stroke:#000000;stroke-width:0.8;" x="57.6" xlink:href="#m8bf948b836" y="298.944"/>
      </g>
     </g>
     <g id="text_6">
      <!-- 0.0 -->
      <g transform="translate(25.155 305.02275)scale(0.16 -0.16)">
       <defs>
        <path d="M 10.6875 12.40625 
L 21 12.40625 
L 21 0 
L 10.6875 0 
z
" id="DejaVuSans-46"/>
       </defs>
       <use xlink:href="#DejaVuSans-48"/>
       <use x="63.623047" xlink:href="#DejaVuSans-46"/>
       <use x="95.410156" xlink:href="#DejaVuSans-48"/>
      </g>
     </g>
    </g>
    <g id="ytick_2">
     <g id="line2d_23">
      <path clip-path="url(#pf5c6ff9666)" d="M 57.6 240.431525 
L 338.688 240.431525 
" style="fill:none;stroke:#b0b0b0;stroke-linecap:square;stroke-width:0.8;"/>
     </g>
     <g id="line2d_24">
      <g>
       <use style="stroke:#000000;stroke-width:0.8;" x="57.6" xlink:href="#m8bf948b836" y="240.431525"/>
      </g>
     </g>
     <g id="text_7">
      <!-- 0.2 -->
      <g transform="translate(25.155 246.510275)scale(0.16 -0.16)">
       <use xlink:href="#DejaVuSans-48"/>
       <use x="63.623047" xlink:href="#DejaVuSans-46"/>
       <use x="95.410156" xlink:href="#DejaVuSans-50"/>
      </g>
     </g>
    </g>
    <g id="ytick_3">
     <g id="line2d_25">
      <path clip-path="url(#pf5c6ff9666)" d="M 57.6 181.91905 
L 338.688 181.91905 
" style="fill:none;stroke:#b0b0b0;stroke-linecap:square;stroke-width:0.8;"/>
     </g>
     <g id="line2d_26">
      <g>
       <use style="stroke:#000000;stroke-width:0.8;" x="57.6" xlink:href="#m8bf948b836" y="181.91905"/>
      </g>
     </g>
     <g id="text_8">
      <!-- 0.4 -->
      <g transform="translate(25.155 187.9978)scale(0.16 -0.16)">
       <use xlink:href="#DejaVuSans-48"/>
       <use x="63.623047" xlink:href="#DejaVuSans-46"/>
       <use x="95.410156" xlink:href="#DejaVuSans-52"/>
      </g>
     </g>
    </g>
    <g id="ytick_4">
     <g id="line2d_27">
      <path clip-path="url(#pf5c6ff9666)" d="M 57.6 123.406574 
L 338.688 123.406574 
" style="fill:none;stroke:#b0b0b0;stroke-linecap:square;stroke-width:0.8;"/>
     </g>
     <g id="line2d_28">
      <g>
       <use style="stroke:#000000;stroke-width:0.8;" x="57.6" xlink:href="#m8bf948b836" y="123.406574"/>
      </g>
     </g>
     <g id="text_9">
      <!-- 0.6 -->
      <g transform="translate(25.155 129.485324)scale(0.16 -0.16)">
       <use xlink:href="#DejaVuSans-48"/>
       <use x="63.623047" xlink:href="#DejaVuSans-46"/>
       <use x="95.410156" xlink:href="#DejaVuSans-54"/>
      </g>
     </g>
    </g>
    <g id="ytick_5">
     <g id="line2d_29">
      <path clip-path="url(#pf5c6ff9666)" d="M 57.6 64.894099 
L 338.688 64.894099 
" style="fill:none;stroke:#b0b0b0;stroke-linecap:square;stroke-width:0.8;"/>
     </g>
     <g id="line2d_30">
      <g>
       <use style="stroke:#000000;stroke-width:0.8;" x="57.6" xlink:href="#m8bf948b836" y="64.894099"/>
      </g>
     </g>
     <g id="text_10">
      <!-- 0.8 -->
      <g transform="translate(25.155 70.972849)scale(0.16 -0.16)">
       <defs>
        <path d="M 31.78125 34.625 
Q 24.75 34.625 20.71875 30.859375 
Q 16.703125 27.09375 16.703125 20.515625 
Q 16.703125 13.921875 20.71875 10.15625 
Q 24.75 6.390625 31.78125 6.390625 
Q 38.8125 6.390625 42.859375 10.171875 
Q 46.921875 13.96875 46.921875 20.515625 
Q 46.921875 27.09375 42.890625 30.859375 
Q 38.875 34.625 31.78125 34.625 
z
M 21.921875 38.8125 
Q 15.578125 40.375 12.03125 44.71875 
Q 8.5 49.078125 8.5 55.328125 
Q 8.5 64.0625 14.71875 69.140625 
Q 20.953125 74.21875 31.78125 74.21875 
Q 42.671875 74.21875 48.875 69.140625 
Q 55.078125 64.0625 55.078125 55.328125 
Q 55.078125 49.078125 51.53125 44.71875 
Q 48 40.375 41.703125 38.8125 
Q 48.828125 37.15625 52.796875 32.3125 
Q 56.78125 27.484375 56.78125 20.515625 
Q 56.78125 9.90625 50.3125 4.234375 
Q 43.84375 -1.421875 31.78125 -1.421875 
Q 19.734375 -1.421875 13.25 4.234375 
Q 6.78125 9.90625 6.78125 20.515625 
Q 6.78125 27.484375 10.78125 32.3125 
Q 14.796875 37.15625 21.921875 38.8125 
z
M 18.3125 54.390625 
Q 18.3125 48.734375 21.84375 45.5625 
Q 25.390625 42.390625 31.78125 42.390625 
Q 38.140625 42.390625 41.71875 45.5625 
Q 45.3125 48.734375 45.3125 54.390625 
Q 45.3125 60.0625 41.71875 63.234375 
Q 38.140625 66.40625 31.78125 66.40625 
Q 25.390625 66.40625 21.84375 63.234375 
Q 18.3125 60.0625 18.3125 54.390625 
z
" id="DejaVuSans-56"/>
       </defs>
       <use xlink:href="#DejaVuSans-48"/>
       <use x="63.623047" xlink:href="#DejaVuSans-46"/>
       <use x="95.410156" xlink:href="#DejaVuSans-56"/>
      </g>
     </g>
    </g>
    <g id="ytick_6">
     <g id="line2d_31">
      <path clip-path="url(#pf5c6ff9666)" d="M 57.6 6.381624 
L 338.688 6.381624 
" style="fill:none;stroke:#b0b0b0;stroke-linecap:square;stroke-width:0.8;"/>
     </g>
     <g id="line2d_32">
      <g>
       <use style="stroke:#000000;stroke-width:0.8;" x="57.6" xlink:href="#m8bf948b836" y="6.381624"/>
      </g>
     </g>
     <g id="text_11">
      <!-- 1.0 -->
      <g transform="translate(25.155 12.460374)scale(0.16 -0.16)">
       <use xlink:href="#DejaVuSans-49"/>
       <use x="63.623047" xlink:href="#DejaVuSans-46"/>
       <use x="95.410156" xlink:href="#DejaVuSans-48"/>
      </g>
     </g>
    </g>
    <g id="text_12">
     <!-- Fraction of function,target pairs -->
     <g transform="translate(17.619531 285.585)rotate(-90)scale(0.17 -0.17)">
      <defs>
       <path d="M 9.8125 72.90625 
L 51.703125 72.90625 
L 51.703125 64.59375 
L 19.671875 64.59375 
L 19.671875 43.109375 
L 48.578125 43.109375 
L 48.578125 34.8125 
L 19.671875 34.8125 
L 19.671875 0 
L 9.8125 0 
z
" id="DejaVuSans-70"/>
       <path d="M 41.109375 46.296875 
Q 39.59375 47.171875 37.8125 47.578125 
Q 36.03125 48 33.890625 48 
Q 26.265625 48 22.1875 43.046875 
Q 18.109375 38.09375 18.109375 28.8125 
L 18.109375 0 
L 9.078125 0 
L 9.078125 54.6875 
L 18.109375 54.6875 
L 18.109375 46.1875 
Q 20.953125 51.171875 25.484375 53.578125 
Q 30.03125 56 36.53125 56 
Q 37.453125 56 38.578125 55.875 
Q 39.703125 55.765625 41.0625 55.515625 
z
" id="DejaVuSans-114"/>
       <path d="M 48.78125 52.59375 
L 48.78125 44.1875 
Q 44.96875 46.296875 41.140625 47.34375 
Q 37.3125 48.390625 33.40625 48.390625 
Q 24.65625 48.390625 19.8125 42.84375 
Q 14.984375 37.3125 14.984375 27.296875 
Q 14.984375 17.28125 19.8125 11.734375 
Q 24.65625 6.203125 33.40625 6.203125 
Q 37.3125 6.203125 41.140625 7.25 
Q 44.96875 8.296875 48.78125 10.40625 
L 48.78125 2.09375 
Q 45.015625 0.34375 40.984375 -0.53125 
Q 36.96875 -1.421875 32.421875 -1.421875 
Q 20.0625 -1.421875 12.78125 6.34375 
Q 5.515625 14.109375 5.515625 27.296875 
Q 5.515625 40.671875 12.859375 48.328125 
Q 20.21875 56 33.015625 56 
Q 37.15625 56 41.109375 55.140625 
Q 45.0625 54.296875 48.78125 52.59375 
z
" id="DejaVuSans-99"/>
       <path d="M 18.3125 70.21875 
L 18.3125 54.6875 
L 36.8125 54.6875 
L 36.8125 47.703125 
L 18.3125 47.703125 
L 18.3125 18.015625 
Q 18.3125 11.328125 20.140625 9.421875 
Q 21.96875 7.515625 27.59375 7.515625 
L 36.8125 7.515625 
L 36.8125 0 
L 27.59375 0 
Q 17.1875 0 13.234375 3.875 
Q 9.28125 7.765625 9.28125 18.015625 
L 9.28125 47.703125 
L 2.6875 47.703125 
L 2.6875 54.6875 
L 9.28125 54.6875 
L 9.28125 70.21875 
z
" id="DejaVuSans-116"/>
       <path d="M 8.5 21.578125 
L 8.5 54.6875 
L 17.484375 54.6875 
L 17.484375 21.921875 
Q 17.484375 14.15625 20.5 10.265625 
Q 23.53125 6.390625 29.59375 6.390625 
Q 36.859375 6.390625 41.078125 11.03125 
Q 45.3125 15.671875 45.3125 23.6875 
L 45.3125 54.6875 
L 54.296875 54.6875 
L 54.296875 0 
L 45.3125 0 
L 45.3125 8.40625 
Q 42.046875 3.421875 37.71875 1 
Q 33.40625 -1.421875 27.6875 -1.421875 
Q 18.265625 -1.421875 13.375 4.4375 
Q 8.5 10.296875 8.5 21.578125 
z
M 31.109375 56 
z
" id="DejaVuSans-117"/>
       <path d="M 11.71875 12.40625 
L 22.015625 12.40625 
L 22.015625 4 
L 14.015625 -11.625 
L 7.71875 -11.625 
L 11.71875 4 
z
" id="DejaVuSans-44"/>
       <path d="M 18.109375 8.203125 
L 18.109375 -20.796875 
L 9.078125 -20.796875 
L 9.078125 54.6875 
L 18.109375 54.6875 
L 18.109375 46.390625 
Q 20.953125 51.265625 25.265625 53.625 
Q 29.59375 56 35.59375 56 
Q 45.5625 56 51.78125 48.09375 
Q 58.015625 40.1875 58.015625 27.296875 
Q 58.015625 14.40625 51.78125 6.484375 
Q 45.5625 -1.421875 35.59375 -1.421875 
Q 29.59375 -1.421875 25.265625 0.953125 
Q 20.953125 3.328125 18.109375 8.203125 
z
M 48.6875 27.296875 
Q 48.6875 37.203125 44.609375 42.84375 
Q 40.53125 48.484375 33.40625 48.484375 
Q 26.265625 48.484375 22.1875 42.84375 
Q 18.109375 37.203125 18.109375 27.296875 
Q 18.109375 17.390625 22.1875 11.75 
Q 26.265625 6.109375 33.40625 6.109375 
Q 40.53125 6.109375 44.609375 11.75 
Q 48.6875 17.390625 48.6875 27.296875 
z
" id="DejaVuSans-112"/>
      </defs>
      <use xlink:href="#DejaVuSans-70"/>
      <use x="50.269531" xlink:href="#DejaVuSans-114"/>
      <use x="91.382812" xlink:href="#DejaVuSans-97"/>
      <use x="152.662109" xlink:href="#DejaVuSans-99"/>
      <use x="207.642578" xlink:href="#DejaVuSans-116"/>
      <use x="246.851562" xlink:href="#DejaVuSans-105"/>
      <use x="274.634766" xlink:href="#DejaVuSans-111"/>
      <use x="335.816406" xlink:href="#DejaVuSans-110"/>
      <use x="399.195312" xlink:href="#DejaVuSans-32"/>
      <use x="430.982422" xlink:href="#DejaVuSans-111"/>
      <use x="492.164062" xlink:href="#DejaVuSans-102"/>
      <use x="527.369141" xlink:href="#DejaVuSans-32"/>
      <use x="559.15625" xlink:href="#DejaVuSans-102"/>
      <use x="594.361328" xlink:href="#DejaVuSans-117"/>
      <use x="657.740234" xlink:href="#DejaVuSans-110"/>
      <use x="721.119141" xlink:href="#DejaVuSans-99"/>
      <use x="776.099609" xlink:href="#DejaVuSans-116"/>
      <use x="815.308594" xlink:href="#DejaVuSans-105"/>
      <use x="843.091797" xlink:href="#DejaVuSans-111"/>
      <use x="904.273438" xlink:href="#DejaVuSans-110"/>
      <use x="967.652344" xlink:href="#DejaVuSans-44"/>
      <use x="999.439453" xlink:href="#DejaVuSans-116"/>
      <use x="1038.648438" xlink:href="#DejaVuSans-97"/>
      <use x="1099.927734" xlink:href="#DejaVuSans-114"/>
      <use x="1139.291016" xlink:href="#DejaVuSans-103"/>
      <use x="1202.767578" xlink:href="#DejaVuSans-101"/>
      <use x="1264.291016" xlink:href="#DejaVuSans-116"/>
      <use x="1303.5" xlink:href="#DejaVuSans-32"/>
      <use x="1335.287109" xlink:href="#DejaVuSans-112"/>
      <use x="1398.763672" xlink:href="#DejaVuSans-97"/>
      <use x="1460.042969" xlink:href="#DejaVuSans-105"/>
      <use x="1487.826172" xlink:href="#DejaVuSans-114"/>
      <use x="1528.939453" xlink:href="#DejaVuSans-115"/>
     </g>
    </g>
   </g>
   <g id="line2d_33">
    <defs>
     <path d="M 0 1.5 
C 0.397805 1.5 0.77937 1.341951 1.06066 1.06066 
C 1.341951 0.77937 1.5 0.397805 1.5 0 
C 1.5 -0.397805 1.341951 -0.77937 1.06066 -1.06066 
C 0.77937 -1.341951 0.397805 -1.5 0 -1.5 
C -0.397805 -1.5 -0.77937 -1.341951 -1.06066 -1.06066 
C -1.341951 -0.77937 -1.5 -0.397805 -1.5 0 
C -1.5 0.397805 -1.341951 0.77937 -1.06066 1.06066 
C -0.77937 1.341951 -0.397805 1.5 0 1.5 
z
" id="ma028c7fa7f" style="stroke:#f5deb3;"/>
    </defs>
    <g>
     <use style="fill:#f5deb3;stroke:#f5deb3;" x="341.235419" xlink:href="#ma028c7fa7f" y="125.760524"/>
     <use style="fill:#f5deb3;stroke:#f5deb3;" x="341.235419" xlink:href="#ma028c7fa7f" y="125.760524"/>
    </g>
   </g>
   <g id="line2d_34">
    <defs>
     <path d="M 0 1.5 
C 0.397805 1.5 0.77937 1.341951 1.06066 1.06066 
C 1.341951 0.77937 1.5 0.397805 1.5 0 
C 1.5 -0.397805 1.341951 -0.77937 1.06066 -1.06066 
C 0.77937 -1.341951 0.397805 -1.5 0 -1.5 
C -0.397805 -1.5 -0.77937 -1.341951 -1.06066 -1.06066 
C -1.341951 -0.77937 -1.5 -0.397805 -1.5 0 
C -1.5 0.397805 -1.341951 0.77937 -1.06066 1.06066 
C -0.77937 1.341951 -0.397805 1.5 0 1.5 
z
" id="m0b882863b7" style="stroke:#000080;"/>
    </defs>
    <g>
     <use style="fill:#000080;stroke:#000080;" x="236.874269" xlink:href="#m0b882863b7" y="214.538073"/>
     <use style="fill:#000080;stroke:#000080;" x="236.874269" xlink:href="#m0b882863b7" y="214.538073"/>
    </g>
   </g>
   <g id="line2d_35">
    <path d="M 17.444571 298.944 
L 17.444571 292.050289 
L 29.53256 292.050289 
L 29.53256 291.88215 
L 36.60358 291.88215 
L 36.60358 291.71401 
L 41.620548 291.71401 
L 41.620548 291.545871 
L 45.512012 291.545871 
L 45.512012 291.377732 
L 48.691568 291.377732 
L 48.691568 291.041453 
L 55.762588 291.041453 
L 55.762588 290.873314 
L 62.175444 290.873314 
L 62.175444 290.705174 
L 63.467834 290.705174 
L 63.467834 290.537035 
L 69.687988 290.537035 
L 69.687988 290.368896 
L 73.579452 290.368896 
L 73.579452 290.200757 
L 74.921597 290.200757 
L 74.921597 290.032617 
L 75.555822 290.032617 
L 75.555822 289.864478 
L 76.16779 289.864478 
L 76.16779 289.696339 
L 77.884514 289.696339 
L 77.884514 289.528199 
L 79.447285 289.528199 
L 79.447285 289.36006 
L 81.334453 289.36006 
L 81.334453 289.191921 
L 81.775977 289.191921 
L 81.775977 289.023781 
L 82.626842 289.023781 
L 82.626842 288.855642 
L 84.213325 288.855642 
L 84.213325 288.687503 
L 84.588378 288.687503 
L 84.588378 288.519364 
L 86.012784 288.519364 
L 86.012784 288.351224 
L 87.009585 288.351224 
L 87.009585 288.183085 
L 89.418828 288.183085 
L 89.418828 288.014946 
L 90.771388 288.014946 
L 90.771388 287.846806 
L 91.535274 287.846806 
L 91.535274 287.678667 
L 94.080605 287.678667 
L 94.080605 287.510528 
L 94.921215 287.510528 
L 94.921215 287.342389 
L 95.326798 287.342389 
L 95.326798 287.174249 
L 100.789049 287.174249 
L 100.789049 287.00611 
L 105.51043 287.00611 
L 105.51043 286.837971 
L 105.621863 286.837971 
L 105.621863 286.669831 
L 109.843417 286.669831 
L 109.843417 286.501692 
L 113.311233 286.501692 
L 113.382559 285.997274 
L 117.486268 285.997274 
L 117.486268 285.829135 
L 118.094355 285.829135 
L 118.094355 285.660996 
L 119.250393 285.660996 
L 119.250393 285.492856 
L 120.093994 285.492856 
L 120.093994 285.324717 
L 120.852343 285.324717 
L 120.852343 285.156578 
L 122.061712 285.156578 
L 122.061712 284.988438 
L 123.672636 284.988438 
L 123.672636 284.820299 
L 124.92835 284.820299 
L 124.92835 284.65216 
L 125.327602 284.65216 
L 125.327602 284.48402 
L 130.926816 284.48402 
L 130.926816 284.315881 
L 131.210808 284.315881 
L 131.287464 283.979603 
L 132.636218 283.979603 
L 132.636218 283.811463 
L 132.893889 283.811463 
L 132.893889 283.643324 
L 134.828688 283.643324 
L 134.828688 283.475185 
L 135.50226 283.475185 
L 135.50226 283.307045 
L 135.937276 283.307045 
L 135.937276 283.138906 
L 136.570107 283.138906 
L 136.570107 282.970767 
L 138.153314 282.970767 
L 138.153314 282.802628 
L 138.341479 282.802628 
L 138.341479 282.634488 
L 138.711825 282.634488 
L 138.711825 282.29821 
L 139.317473 282.29821 
L 139.317473 282.13007 
L 139.77789 282.13007 
L 139.77789 281.961931 
L 140.287441 281.961931 
L 140.287441 281.793792 
L 141.104941 281.793792 
L 141.104941 281.625652 
L 142.778958 281.625652 
L 142.778958 281.457513 
L 142.962669 281.457513 
L 142.962669 281.289374 
L 144.318346 281.289374 
L 144.318346 281.121235 
L 144.712404 281.121235 
L 144.712404 280.953095 
L 145.005114 280.953095 
L 145.005114 280.784956 
L 146.895853 280.784956 
L 146.895853 280.448677 
L 147.236294 280.448677 
L 147.236294 280.280538 
L 149.744125 280.280538 
L 149.744125 280.112399 
L 150.598782 280.112399 
L 150.598782 279.944259 
L 152.692105 279.944259 
L 152.692105 279.77612 
L 153.530869 279.77612 
L 153.530869 279.607981 
L 153.959927 279.607981 
L 153.959927 279.439842 
L 154.098334 279.439842 
L 154.098334 279.271702 
L 155.354745 279.271702 
L 155.354745 279.103563 
L 156.181465 279.103563 
L 156.181465 278.935424 
L 156.454576 278.935424 
L 156.454576 278.767284 
L 157.602273 278.767284 
L 157.602273 278.599145 
L 157.725877 278.599145 
L 157.725877 278.431006 
L 158.331086 278.431006 
L 158.331086 278.262867 
L 158.800572 278.262867 
L 158.800572 278.094727 
L 159.426147 278.094727 
L 159.426147 277.926588 
L 160.350856 277.926588 
L 160.350856 277.758449 
L 161.072584 277.758449 
L 161.072584 277.590309 
L 162.160794 277.590309 
L 162.160794 277.42217 
L 163.16049 277.42217 
L 163.225959 276.917752 
L 163.449152 276.917752 
L 163.449152 276.749613 
L 164.245209 276.749613 
L 164.245209 276.581474 
L 164.398623 276.581474 
L 164.398623 276.413334 
L 164.565835 276.413334 
L 164.565835 276.245195 
L 164.850932 276.245195 
L 164.850932 276.077056 
L 165.432722 276.077056 
L 165.432722 275.908916 
L 166.368037 275.908916 
L 166.368037 275.740777 
L 166.487008 275.740777 
L 166.487008 275.572638 
L 166.935137 275.572638 
L 167.007622 275.236359 
L 168.229649 275.236359 
L 168.229649 275.06822 
L 168.530517 275.06822 
L 168.530517 274.900081 
L 168.988454 274.900081 
L 168.988454 274.731941 
L 169.591311 274.731941 
L 169.591311 274.563802 
L 172.22076 274.563802 
L 172.22076 274.227523 
L 172.670877 274.227523 
L 172.670877 274.059384 
L 173.53769 274.059384 
L 173.53769 273.891245 
L 173.784646 273.891245 
L 173.882457 273.386827 
L 173.979723 273.386827 
L 173.979723 273.218688 
L 174.387156 273.218688 
L 174.387156 273.050548 
L 174.53939 273.050548 
L 174.53939 272.882409 
L 174.785287 272.882409 
L 174.785287 272.71427 
L 174.992439 272.71427 
L 174.992439 272.377991 
L 175.129186 272.377991 
L 175.129186 272.209852 
L 175.332316 272.209852 
L 175.332316 272.041713 
L 175.669698 272.041713 
L 175.669698 271.873573 
L 176.035979 271.873573 
L 176.035979 271.705434 
L 176.524755 271.705434 
L 176.566617 271.201016 
L 176.8157 271.201016 
L 176.8157 271.032877 
L 177.32347 271.032877 
L 177.32347 270.864737 
L 178.239812 270.864737 
L 178.239812 270.696598 
L 179.790148 270.696598 
L 179.790148 270.528459 
L 180.808789 270.528459 
L 180.808789 270.19218 
L 181.267628 270.19218 
L 181.311118 269.855902 
L 181.77684 269.855902 
L 181.883649 269.519623 
L 182.04681 269.519623 
L 182.04681 269.351484 
L 182.776696 269.351484 
L 182.776696 269.015205 
L 183.043535 269.015205 
L 183.043535 268.847066 
L 183.184543 268.847066 
L 183.184543 268.678927 
L 183.802832 268.678927 
L 183.802832 268.510787 
L 184.413285 268.510787 
L 184.439926 268.174509 
L 185.225442 268.174509 
L 185.225442 268.006369 
L 185.77203 268.006369 
L 185.845863 267.670091 
L 186.088641 267.670091 
L 186.088641 267.501952 
L 187.023131 267.501952 
L 187.089785 267.165673 
L 187.18102 267.165673 
L 187.214078 266.661255 
L 188.796566 266.661255 
L 188.796566 266.324976 
L 189.025048 266.324976 
L 189.025048 265.988698 
L 189.140025 265.988698 
L 189.140025 265.652419 
L 189.261592 265.652419 
L 189.261592 265.48428 
L 189.539286 265.48428 
L 189.539286 265.316141 
L 189.707383 265.316141 
L 189.735094 264.811723 
L 189.84461 264.811723 
L 189.84461 264.643583 
L 189.983407 264.643583 
L 189.983407 264.475444 
L 190.944412 264.475444 
L 190.944412 264.139166 
L 191.087987 264.139166 
L 191.087987 263.971026 
L 191.312176 263.971026 
L 191.312176 263.802887 
L 191.563303 263.802887 
L 191.563303 263.466608 
L 191.739354 263.466608 
L 191.739354 263.13033 
L 192.501921 263.13033 
L 192.501921 262.962191 
L 192.932505 262.962191 
L 192.932505 262.794051 
L 193.062882 262.794051 
L 193.127706 262.457773 
L 193.464138 262.457773 
L 193.464138 262.289633 
L 193.742462 262.289633 
L 193.742462 262.121494 
L 194.110491 262.121494 
L 194.110491 261.785215 
L 195.735759 261.785215 
L 195.771811 261.280798 
L 195.999672 261.280798 
L 196.033938 260.77638 
L 196.251661 260.77638 
L 196.251661 260.60824 
L 196.419886 260.60824 
L 196.526705 260.103822 
L 197.089906 260.103822 
L 197.089906 259.935683 
L 197.434469 259.935683 
L 197.526699 259.431265 
L 197.648541 259.431265 
L 197.648541 259.263126 
L 197.822984 259.263126 
L 197.822984 259.094987 
L 198.036808 259.094987 
L 198.036808 258.926847 
L 199.245209 258.926847 
L 199.302583 258.590569 
L 199.392655 258.590569 
L 199.392655 258.422429 
L 199.73377 258.422429 
L 199.761437 257.581733 
L 199.855676 257.581733 
L 199.855676 257.413594 
L 200.340789 257.413594 
L 200.37382 257.077315 
L 200.561102 257.077315 
L 200.561102 256.909176 
L 200.777244 256.909176 
L 200.846811 256.572897 
L 201.233095 256.572897 
L 201.243717 255.90034 
L 201.648939 255.90034 
L 201.656155 255.564061 
L 201.789556 255.564061 
L 201.891721 255.059644 
L 202.40629 255.059644 
L 202.40629 254.891504 
L 202.91618 254.891504 
L 202.91618 254.555226 
L 203.188781 254.555226 
L 203.188781 254.387086 
L 203.552487 254.387086 
L 203.552487 254.218947 
L 203.7815 254.218947 
L 203.852007 253.714529 
L 204.418349 253.714529 
L 204.418349 253.54639 
L 204.677336 253.54639 
L 204.677336 253.210111 
L 204.943365 253.210111 
L 204.943365 253.041972 
L 205.198775 253.041972 
L 205.218268 252.537554 
L 205.325273 252.537554 
L 205.325273 252.369415 
L 205.666068 252.369415 
L 205.666068 252.033136 
L 205.795991 252.033136 
L 205.863071 251.528718 
L 206.126749 251.528718 
L 206.126749 251.360579 
L 206.844516 251.360579 
L 206.844516 251.19244 
L 207.020761 251.19244 
L 207.065785 250.856161 
L 207.414402 250.856161 
L 207.414402 250.688022 
L 207.568633 250.688022 
L 207.568633 250.519883 
L 207.820898 250.519883 
L 207.820898 250.351743 
L 207.95149 250.351743 
L 207.986651 250.015465 
L 208.379559 250.015465 
L 208.463682 249.511047 
L 208.581079 249.511047 
L 208.637368 249.006629 
L 208.943158 249.006629 
L 208.943158 248.67035 
L 209.417317 248.67035 
L 209.511541 248.165932 
L 209.603829 248.165932 
L 209.603829 247.829654 
L 209.887645 247.829654 
L 209.887645 247.661515 
L 210.094251 247.661515 
L 210.118969 247.325236 
L 210.54934 247.325236 
L 210.54934 247.157097 
L 210.894115 247.157097 
L 210.936009 246.652679 
L 211.020812 246.652679 
L 211.123293 246.3164 
L 211.394441 246.3164 
L 211.394441 246.148261 
L 211.623544 246.148261 
L 211.623544 245.811982 
L 211.745828 245.811982 
L 211.745828 245.643843 
L 212.124941 245.643843 
L 212.229023 245.307564 
L 212.258997 245.307564 
L 212.258997 245.139425 
L 212.563181 245.139425 
L 212.563181 244.971286 
L 212.851001 244.971286 
L 212.921098 244.635007 
L 212.973486 244.635007 
L 212.973486 244.298729 
L 213.102134 244.298729 
L 213.104707 243.96245 
L 213.317619 243.96245 
L 213.317619 243.626171 
L 213.44789 243.626171 
L 213.44789 243.458032 
L 213.594258 243.458032 
L 213.594258 243.289893 
L 213.941858 243.289893 
L 214.031013 242.953614 
L 214.182483 242.953614 
L 214.267575 242.449196 
L 214.640296 242.449196 
L 214.640296 242.281057 
L 214.820744 242.281057 
L 214.820744 242.112918 
L 215.017795 242.112918 
L 215.08911 241.272221 
L 215.269542 241.272221 
L 215.355671 240.767803 
L 215.495291 240.767803 
L 215.556558 240.263385 
L 215.822926 240.263385 
L 215.931248 239.25455 
L 216.133907 239.25455 
L 216.186901 238.245714 
L 216.3146 238.245714 
L 216.40425 237.573157 
L 216.573746 237.573157 
L 216.667796 236.9006 
L 216.699795 236.9006 
L 216.699795 236.73246 
L 216.998461 236.73246 
L 217.106251 236.396182 
L 217.312688 236.396182 
L 217.312688 236.228042 
L 217.427504 236.228042 
L 217.427504 235.891764 
L 217.575626 235.891764 
L 217.681716 235.219207 
L 218.293069 235.219207 
L 218.293069 235.051067 
L 218.556625 235.051067 
L 218.556625 234.714789 
L 218.780996 234.714789 
L 218.780996 234.37851 
L 218.893953 234.37851 
L 218.951079 233.874092 
L 219.156584 233.874092 
L 219.190435 233.033396 
L 219.458746 233.033396 
L 219.519397 232.528978 
L 219.747615 232.528978 
L 219.814277 232.02456 
L 219.961683 232.02456 
L 219.961683 231.688281 
L 220.111296 231.688281 
L 220.213804 231.015724 
L 220.267548 231.015724 
L 220.267548 230.679446 
L 220.379472 230.679446 
L 220.379472 230.343167 
L 220.56311 230.343167 
L 220.582008 229.67061 
L 220.836042 229.67061 
L 220.918858 228.998053 
L 221.109645 228.998053 
L 221.158344 228.325495 
L 221.232458 228.325495 
L 221.330645 226.980381 
L 221.508194 226.980381 
L 221.508194 226.812242 
L 221.876073 226.812242 
L 221.876073 226.644102 
L 222.214033 226.644102 
L 222.240368 226.139685 
L 222.53917 226.139685 
L 222.541485 225.635267 
L 222.769099 225.635267 
L 222.769099 225.298988 
L 222.957265 225.298988 
L 222.957265 225.130849 
L 223.603378 225.130849 
L 223.603378 224.962709 
L 223.721077 224.962709 
L 223.779757 224.458292 
L 223.884053 224.458292 
L 223.924215 223.785734 
L 224.033153 223.785734 
L 224.033153 223.449456 
L 224.438067 223.449456 
L 224.496456 222.608759 
L 224.607814 222.608759 
L 224.607814 222.272481 
L 224.862653 222.272481 
L 224.862653 221.936202 
L 225.059353 221.936202 
L 225.059353 221.599924 
L 225.341032 221.599924 
L 225.341032 221.263645 
L 225.901991 221.263645 
L 225.901991 221.095506 
L 226.134296 221.095506 
L 226.134296 220.759227 
L 226.353048 220.759227 
L 226.353048 220.422948 
L 226.705462 220.422948 
L 226.705462 220.08667 
L 227.042065 220.08667 
L 227.042065 219.750391 
L 227.251345 219.750391 
L 227.26952 219.414113 
L 227.443454 219.414113 
L 227.443454 219.077834 
L 227.805439 219.077834 
L 227.805439 218.741555 
L 228.155327 218.741555 
L 228.155327 218.573416 
L 228.418145 218.573416 
L 228.430678 217.900859 
L 228.771315 217.900859 
L 228.771315 217.56458 
L 229.363525 217.56458 
L 229.363525 217.228302 
L 229.540571 217.228302 
L 229.596888 216.723884 
L 230.127825 216.723884 
L 230.127825 216.387605 
L 230.452727 216.387605 
L 230.452727 216.051327 
L 230.738367 216.051327 
L 230.738367 215.883187 
L 231.15384 215.883187 
L 231.15384 215.546909 
L 231.381472 215.546909 
L 231.381472 215.37877 
L 231.71302 215.37877 
L 231.71302 215.21063 
L 233.390668 215.21063 
L 233.390668 215.042491 
L 234.780129 215.042491 
L 234.780129 214.874352 
L 236.874269 214.874352 
L 236.874269 214.538073 
L 338.688 214.538073 
L 338.688 214.538073 
" style="fill:none;stroke:#000080;stroke-linecap:square;stroke-width:1.5;"/>
   </g>
   <g id="line2d_36">
    <defs>
     <path d="M 0 6 
C 1.591219 6 3.117479 5.367802 4.242641 4.242641 
C 5.367802 3.117479 6 1.591219 6 0 
C 6 -1.591219 5.367802 -3.117479 4.242641 -4.242641 
C 3.117479 -5.367802 1.591219 -6 0 -6 
C -1.591219 -6 -3.117479 -5.367802 -4.242641 -4.242641 
C -5.367802 -3.117479 -6 -1.591219 -6 0 
C -6 1.591219 -5.367802 3.117479 -4.242641 4.242641 
C -3.117479 5.367802 -1.591219 6 0 6 
z
" id="m3a88edf0a3" style="stroke:#000080;stroke-width:1.5;"/>
    </defs>
    <g>
     <use style="fill-opacity:0;stroke:#000080;stroke-width:1.5;" x="73.579452" xlink:href="#m3a88edf0a3" y="290.368896"/>
     <use style="fill-opacity:0;stroke:#000080;stroke-width:1.5;" x="135.937276" xlink:href="#m3a88edf0a3" y="283.307045"/>
     <use style="fill-opacity:0;stroke:#000080;stroke-width:1.5;" x="205.666068" xlink:href="#m3a88edf0a3" y="252.369415"/>
     <use style="fill-opacity:0;stroke:#000080;stroke-width:1.5;" x="236.874269" xlink:href="#m3a88edf0a3" y="214.874352"/>
     <use style="fill-opacity:0;stroke:#000080;stroke-width:1.5;" x="236.874269" xlink:href="#m3a88edf0a3" y="214.538073"/>
     <use style="fill-opacity:0;stroke:#000080;stroke-width:1.5;" x="338.688" xlink:href="#m3a88edf0a3" y="214.538073"/>
    </g>
   </g>
   <g id="line2d_37">
    <path style="fill:none;stroke:#000080;stroke-linecap:square;stroke-width:1.5;"/>
    <g/>
   </g>
   <g id="line2d_38">
    <path clip-path="url(#pf5c6ff9666)" d="M 258.37716 214.538073 
" style="fill:none;stroke:#000080;stroke-linecap:square;stroke-width:1.5;"/>
    <defs>
     <path d="M -12 12 
L 12 -12 
M -12 -12 
L 12 12 
" id="m709b91133a" style="stroke:#000080;"/>
    </defs>
    <g clip-path="url(#pf5c6ff9666)">
     <use style="fill:#000080;stroke:#000080;" x="258.37716" xlink:href="#m709b91133a" y="214.538073"/>
    </g>
   </g>
   <g id="line2d_39">
    <defs>
     <path d="M 0 1.5 
C 0.397805 1.5 0.77937 1.341951 1.06066 1.06066 
C 1.341951 0.77937 1.5 0.397805 1.5 0 
C 1.5 -0.397805 1.341951 -0.77937 1.06066 -1.06066 
C 0.77937 -1.341951 0.397805 -1.5 0 -1.5 
C -0.397805 -1.5 -0.77937 -1.341951 -1.06066 -1.06066 
C -1.341951 -0.77937 -1.5 -0.397805 -1.5 0 
C -1.5 0.397805 -1.341951 0.77937 -1.06066 1.06066 
C -0.77937 1.341951 -0.397805 1.5 0 1.5 
z
" id="m2b36158392" style="stroke:#ff00ff;"/>
    </defs>
    <g>
     <use style="fill:#ff00ff;stroke:#ff00ff;" x="258.37505" xlink:href="#m2b36158392" y="246.652679"/>
     <use style="fill:#ff00ff;stroke:#ff00ff;" x="258.37505" xlink:href="#m2b36158392" y="246.652679"/>
    </g>
   </g>
   <g id="line2d_40">
    <path d="M 17.444571 298.944 
L 17.444571 293.227264 
L 115.835374 293.227264 
L 115.897107 292.890985 
L 121.128432 292.890985 
L 121.128432 292.722846 
L 121.756135 292.722846 
L 121.756135 292.554707 
L 121.974949 292.554707 
L 121.974949 292.218428 
L 128.560901 292.218428 
L 128.560901 292.050289 
L 128.738855 292.050289 
L 128.827155 291.71401 
L 131.030622 291.71401 
L 131.030622 291.545871 
L 131.363785 291.545871 
L 131.363785 291.377732 
L 131.515432 291.377732 
L 131.515432 291.209592 
L 132.398622 291.209592 
L 132.446401 290.873314 
L 133.239232 290.873314 
L 133.239232 290.705174 
L 134.106373 290.705174 
L 134.214491 290.032617 
L 134.321942 290.032617 
L 134.321942 289.864478 
L 134.55603 289.864478 
L 134.55603 289.696339 
L 134.745246 289.696339 
L 134.745246 289.528199 
L 135.138086 289.528199 
L 135.240011 289.191921 
L 135.681535 289.191921 
L 135.760625 288.855642 
L 136.13148 288.855642 
L 136.20856 288.519364 
L 136.323544 288.519364 
L 136.361705 288.014946 
L 136.513517 288.014946 
L 136.570107 287.678667 
L 136.645276 287.678667 
L 136.701442 287.342389 
L 136.850337 287.342389 
L 136.850337 287.174249 
L 137.162581 287.174249 
L 137.271464 286.837971 
L 137.451437 286.837971 
L 137.505069 286.333553 
L 137.997836 286.333553 
L 138.101642 285.829135 
L 138.136107 285.829135 
L 138.136107 285.660996 
L 138.290362 285.660996 
L 138.358484 285.324717 
L 138.645071 285.324717 
L 138.69516 284.820299 
L 138.910565 284.820299 
L 138.927025 284.48402 
L 139.236847 284.48402 
L 139.301378 283.811463 
L 139.604677 283.811463 
L 139.604677 283.643324 
L 139.933878 283.643324 
L 139.933878 283.475185 
L 140.165274 283.475185 
L 140.226464 283.138906 
L 140.317849 283.138906 
L 140.317849 282.970767 
L 141.119455 282.970767 
L 141.162927 282.634488 
L 141.263941 282.634488 
L 141.350061 281.961931 
L 141.421504 281.961931 
L 141.421504 281.793792 
L 141.535208 281.793792 
L 141.549369 281.457513 
L 141.704386 281.457513 
L 141.788363 280.953095 
L 142.133981 280.953095 
L 142.243147 280.448677 
L 142.712875 280.448677 
L 142.805321 279.944259 
L 142.857929 279.944259 
L 142.857929 279.77612 
L 143.053804 279.77612 
L 143.066785 279.439842 
L 143.803587 279.439842 
L 143.890442 278.767284 
L 143.93988 278.767284 
L 144.001481 278.262867 
L 144.426702 278.262867 
L 144.510517 277.926588 
L 144.55823 277.926588 
L 144.605813 277.590309 
L 145.201387 277.590309 
L 145.201387 277.42217 
L 145.429504 277.42217 
L 145.440832 277.085891 
L 145.865929 277.085891 
L 145.865929 276.917752 
L 146.140051 276.917752 
L 146.150926 276.581474 
L 147.256714 276.581474 
L 147.256714 276.413334 
L 147.56019 276.413334 
L 147.56019 276.245195 
L 148.344551 276.245195 
L 148.344551 276.077056 
L 148.975352 276.077056 
L 149.030744 275.740777 
L 149.814765 275.740777 
L 149.88512 275.404498 
L 149.928949 275.404498 
L 149.928949 275.236359 
L 150.051085 275.236359 
L 150.051085 275.06822 
L 150.258492 275.06822 
L 150.258492 274.900081 
L 150.640855 274.900081 
L 150.699587 274.395663 
L 150.783149 274.395663 
L 150.783149 274.227523 
L 151.047887 274.227523 
L 151.047887 274.059384 
L 151.235715 274.059384 
L 151.235715 273.723105 
L 152.306816 273.723105 
L 152.306816 273.554966 
L 152.714506 273.554966 
L 152.714506 273.386827 
L 153.149313 273.386827 
L 153.149313 273.218688 
L 154.520548 273.218688 
L 154.520548 273.050548 
L 154.661269 273.050548 
L 154.661269 272.882409 
L 154.827327 272.882409 
L 154.827327 272.71427 
L 156.009346 272.71427 
L 156.009346 272.54613 
L 156.242527 272.54613 
L 156.345845 272.209852 
L 156.406335 272.209852 
L 156.406335 272.041713 
L 157.94839 272.041713 
L 158.003578 271.705434 
L 158.9003 271.705434 
L 158.9003 271.537295 
L 159.175513 271.537295 
L 159.175513 271.369155 
L 160.689494 271.369155 
L 160.788407 270.864737 
L 161.343109 270.864737 
L 161.343109 270.696598 
L 162.62347 270.696598 
L 162.62347 270.36032 
L 164.148635 270.36032 
L 164.148635 270.19218 
L 165.013882 270.19218 
L 165.013882 270.024041 
L 166.524231 270.024041 
L 166.524231 269.855902 
L 168.858837 269.855902 
L 168.858837 269.687762 
L 169.262177 269.687762 
L 169.262177 269.519623 
L 171.289242 269.519623 
L 171.289242 269.183344 
L 171.873514 269.183344 
L 171.925672 268.678927 
L 172.322872 268.678927 
L 172.322872 268.510787 
L 173.376414 268.510787 
L 173.376414 268.342648 
L 173.895753 268.342648 
L 173.91789 267.83823 
L 174.734695 267.83823 
L 174.734695 267.670091 
L 176.819447 267.670091 
L 176.819447 267.501952 
L 179.742689 267.501952 
L 179.742689 267.333812 
L 180.199217 267.333812 
L 180.199217 267.165673 
L 180.695168 267.165673 
L 180.695168 266.829394 
L 183.040913 266.829394 
L 183.040913 266.661255 
L 183.684454 266.661255 
L 183.684454 266.493116 
L 184.342852 266.493116 
L 184.342852 266.324976 
L 184.658777 266.324976 
L 184.658777 265.988698 
L 186.691306 265.988698 
L 186.691306 265.820559 
L 188.020802 265.820559 
L 188.020802 265.652419 
L 188.566961 265.652419 
L 188.566961 265.48428 
L 189.87742 265.48428 
L 189.87742 265.316141 
L 190.32262 265.316141 
L 190.32262 265.148001 
L 190.759264 265.148001 
L 190.759264 264.979862 
L 193.153422 264.979862 
L 193.153422 264.811723 
L 193.620661 264.811723 
L 193.620661 264.643583 
L 194.213047 264.643583 
L 194.213047 264.475444 
L 194.795996 264.475444 
L 194.795996 264.307305 
L 196.13819 264.307305 
L 196.13819 264.139166 
L 197.822984 264.139166 
L 197.926036 263.634748 
L 198.289655 263.634748 
L 198.289655 263.298469 
L 198.989131 263.298469 
L 198.989131 263.13033 
L 199.866172 263.13033 
L 199.866172 262.794051 
L 200.190881 262.794051 
L 200.190881 262.625912 
L 201.687688 262.625912 
L 201.687688 262.289633 
L 202.085039 262.289633 
L 202.085039 261.953355 
L 202.365644 261.953355 
L 202.365644 261.785215 
L 204.498212 261.785215 
L 204.498212 261.617076 
L 204.841497 261.617076 
L 204.841497 261.448937 
L 205.34572 261.448937 
L 205.34572 261.280798 
L 206.417067 261.280798 
L 206.417067 261.112658 
L 206.82106 261.112658 
L 206.82106 260.944519 
L 207.890101 260.944519 
L 207.954318 260.60824 
L 208.690163 260.60824 
L 208.690163 260.271962 
L 208.806949 260.271962 
L 208.806949 259.935683 
L 208.990892 259.935683 
L 208.990892 259.599405 
L 209.425694 259.599405 
L 209.515851 259.263126 
L 210.202859 259.263126 
L 210.202859 259.094987 
L 210.410153 259.094987 
L 210.410153 258.758708 
L 210.75258 258.758708 
L 210.75258 258.590569 
L 211.35984 258.590569 
L 211.35984 258.422429 
L 211.505781 258.422429 
L 211.505781 258.086151 
L 212.335175 258.086151 
L 212.335175 257.918012 
L 212.566317 257.918012 
L 212.566317 257.581733 
L 212.877321 257.581733 
L 212.877321 257.413594 
L 214.027686 257.413594 
L 214.027686 257.245454 
L 214.782764 257.245454 
L 214.782764 257.077315 
L 215.387091 257.077315 
L 215.387091 256.909176 
L 216.257115 256.909176 
L 216.257115 256.741037 
L 216.645858 256.741037 
L 216.645858 256.404758 
L 217.305154 256.404758 
L 217.305154 256.236619 
L 218.433186 256.236619 
L 218.433186 256.068479 
L 220.535336 256.068479 
L 220.535336 255.90034 
L 221.162027 255.90034 
L 221.162027 255.564061 
L 221.560691 255.564061 
L 221.560691 255.395922 
L 221.774376 255.395922 
L 221.774376 255.227783 
L 221.944388 255.227783 
L 221.944388 255.059644 
L 223.203813 255.059644 
L 223.203813 254.723365 
L 224.950495 254.723365 
L 224.950495 254.555226 
L 225.305054 254.555226 
L 225.305054 254.387086 
L 225.58671 254.387086 
L 225.58671 254.218947 
L 226.559145 254.218947 
L 226.559145 254.050808 
L 228.313454 254.050808 
L 228.313454 253.882668 
L 228.594999 253.882668 
L 228.594999 253.714529 
L 230.082036 253.714529 
L 230.082036 253.54639 
L 233.009536 253.54639 
L 233.039088 253.210111 
L 234.033151 253.210111 
L 234.033151 253.041972 
L 234.46631 253.041972 
L 234.46631 252.873833 
L 234.596362 252.873833 
L 234.596362 252.537554 
L 235.203904 252.537554 
L 235.203904 252.201276 
L 235.814027 252.201276 
L 235.814027 252.033136 
L 236.019307 252.033136 
L 236.019307 251.864997 
L 236.153229 251.864997 
L 236.168877 251.528718 
L 238.089225 251.528718 
L 238.10401 251.19244 
L 238.441638 251.19244 
L 238.441638 251.0243 
L 238.560641 251.0243 
L 238.560641 250.856161 
L 239.09858 250.856161 
L 239.09858 250.688022 
L 239.891817 250.688022 
L 239.93977 250.183604 
L 240.526483 250.183604 
L 240.526483 250.015465 
L 241.09076 250.015465 
L 241.118979 249.679186 
L 244.675079 249.679186 
L 244.675079 249.342907 
L 245.070615 249.342907 
L 245.070615 249.174768 
L 246.17922 249.174768 
L 246.17922 249.006629 
L 247.952976 249.006629 
L 247.952976 248.67035 
L 248.220499 248.67035 
L 248.220499 248.502211 
L 250.6536 248.502211 
L 250.6536 248.334072 
L 251.121945 248.334072 
L 251.121945 248.165932 
L 251.760429 248.165932 
L 251.760429 247.829654 
L 252.903452 247.829654 
L 252.903452 247.661515 
L 253.425971 247.661515 
L 253.425971 247.493375 
L 254.395876 247.493375 
L 254.395876 247.325236 
L 255.097701 247.325236 
L 255.097701 247.157097 
L 257.312212 247.157097 
L 257.312212 246.988957 
L 258.1659 246.988957 
L 258.1659 246.820818 
L 258.37505 246.820818 
L 258.37505 246.652679 
L 338.688 246.652679 
L 338.688 246.652679 
" style="fill:none;stroke:#ff00ff;stroke-linecap:square;stroke-width:1.5;"/>
   </g>
   <g id="line2d_41">
    <defs>
     <path d="M 0 8.485281 
L 5.091169 0 
L 0 -8.485281 
L -5.091169 0 
z
" id="m2982cab536" style="stroke:#ff00ff;stroke-linejoin:miter;stroke-width:1.5;"/>
    </defs>
    <g>
     <use style="fill-opacity:0;stroke:#ff00ff;stroke-linejoin:miter;stroke-width:1.5;" x="131.030622" xlink:href="#m2982cab536" y="291.545871"/>
     <use style="fill-opacity:0;stroke:#ff00ff;stroke-linejoin:miter;stroke-width:1.5;" x="186.691306" xlink:href="#m2982cab536" y="265.988698"/>
     <use style="fill-opacity:0;stroke:#ff00ff;stroke-linejoin:miter;stroke-width:1.5;" x="258.37505" xlink:href="#m2982cab536" y="246.820818"/>
     <use style="fill-opacity:0;stroke:#ff00ff;stroke-linejoin:miter;stroke-width:1.5;" x="258.37505" xlink:href="#m2982cab536" y="246.652679"/>
     <use style="fill-opacity:0;stroke:#ff00ff;stroke-linejoin:miter;stroke-width:1.5;" x="338.688" xlink:href="#m2982cab536" y="246.652679"/>
    </g>
   </g>
   <g id="line2d_42">
    <path style="fill:none;stroke:#ff00ff;stroke-linecap:square;stroke-width:1.5;"/>
    <g/>
   </g>
   <g id="line2d_43">
    <path clip-path="url(#pf5c6ff9666)" d="M 258.378207 246.652679 
" style="fill:none;stroke:#ff00ff;stroke-linecap:square;stroke-width:1.5;"/>
    <defs>
     <path d="M -12 12 
L 12 -12 
M -12 -12 
L 12 12 
" id="m69588f01f1" style="stroke:#ff00ff;"/>
    </defs>
    <g clip-path="url(#pf5c6ff9666)">
     <use style="fill:#ff00ff;stroke:#ff00ff;" x="258.378207" xlink:href="#m69588f01f1" y="246.652679"/>
    </g>
   </g>
   <g id="line2d_44">
    <defs>
     <path d="M 0 1.5 
C 0.397805 1.5 0.77937 1.341951 1.06066 1.06066 
C 1.341951 0.77937 1.5 0.397805 1.5 0 
C 1.5 -0.397805 1.341951 -0.77937 1.06066 -1.06066 
C 0.77937 -1.341951 0.397805 -1.5 0 -1.5 
C -0.397805 -1.5 -0.77937 -1.341951 -1.06066 -1.06066 
C -1.341951 -0.77937 -1.5 -0.397805 -1.5 0 
C -1.5 0.397805 -1.341951 0.77937 -1.06066 1.06066 
C -0.77937 1.341951 -0.397805 1.5 0 1.5 
z
" id="m30de3d1dca" style="stroke:#ff7500;"/>
    </defs>
    <g>
     <use style="fill:#ff7500;stroke:#ff7500;" x="258.171936" xlink:href="#m30de3d1dca" y="228.829913"/>
     <use style="fill:#ff7500;stroke:#ff7500;" x="258.171936" xlink:href="#m30de3d1dca" y="228.829913"/>
    </g>
   </g>
   <g id="line2d_45">
    <path d="M 154.262987 298.944 
L 154.262987 298.775861 
L 154.486875 298.775861 
L 154.5944 298.439582 
L 154.78099 298.439582 
L 154.78099 298.271443 
L 154.926208 298.271443 
L 154.93278 297.935164 
L 156.009346 297.935164 
L 156.08947 297.598886 
L 156.181465 297.598886 
L 156.181465 297.262607 
L 156.297301 297.262607 
L 156.30945 296.758189 
L 156.770849 296.758189 
L 156.853444 296.253771 
L 156.959066 296.253771 
L 157.058236 295.581214 
L 157.133693 295.581214 
L 157.185742 295.076796 
L 157.37527 295.076796 
L 157.483465 294.06796 
L 157.574059 294.06796 
L 157.574059 293.899821 
L 158.064083 293.899821 
L 158.107956 293.395403 
L 158.228039 293.395403 
L 158.276927 293.059125 
L 158.481843 293.059125 
L 158.530025 292.722846 
L 158.604712 292.722846 
L 158.631308 292.386567 
L 158.726721 292.386567 
L 158.726721 292.218428 
L 158.853132 292.218428 
L 158.853132 292.050289 
L 159.07735 292.050289 
L 159.123917 291.377732 
L 159.190962 291.377732 
L 159.257749 290.537035 
L 159.334496 290.537035 
L 159.400737 289.864478 
L 159.46166 289.864478 
L 159.567767 289.191921 
L 159.572803 289.191921 
L 159.572803 289.023781 
L 159.941533 289.023781 
L 159.985851 288.351224 
L 160.059466 288.351224 
L 160.157138 288.014946 
L 160.181471 288.014946 
L 160.273627 287.510528 
L 160.302628 287.510528 
L 160.307457 287.174249 
L 160.418152 287.174249 
L 160.499521 286.165413 
L 160.599515 286.165413 
L 160.656397 285.829135 
L 160.750792 285.829135 
L 160.788407 285.492856 
L 160.900768 285.492856 
L 160.998493 284.820299 
L 161.012409 284.820299 
L 161.012409 284.65216 
L 161.242725 284.65216 
L 161.347658 283.979603 
L 161.465522 283.979603 
L 161.560142 283.138906 
L 161.582595 283.138906 
L 161.663187 282.634488 
L 161.7078 282.634488 
L 161.7078 282.466349 
L 161.876297 282.466349 
L 161.977497 281.793792 
L 162.082474 281.793792 
L 162.156452 281.121235 
L 162.212813 281.121235 
L 162.273306 280.448677 
L 162.393666 280.448677 
L 162.491916 279.77612 
L 162.542958 279.77612 
L 162.542958 279.607981 
L 162.674129 279.607981 
L 162.783387 279.271702 
L 162.879471 279.271702 
L 162.879471 279.103563 
L 163.078306 279.103563 
L 163.094774 278.767284 
L 163.262677 278.767284 
L 163.323704 278.262867 
L 163.388564 278.262867 
L 163.489428 277.42217 
L 163.505512 277.42217 
L 163.597709 276.917752 
L 163.625673 276.917752 
L 163.625673 276.749613 
L 163.808326 276.749613 
L 163.875347 276.413334 
L 164.043731 276.413334 
L 164.074879 275.740777 
L 164.210504 275.740777 
L 164.318249 275.06822 
L 164.333587 275.06822 
L 164.333587 274.900081 
L 164.463418 274.900081 
L 164.558269 273.891245 
L 164.843488 273.891245 
L 164.925189 273.218688 
L 165.098459 273.218688 
L 165.102127 272.882409 
L 165.237301 272.882409 
L 165.342521 272.377991 
L 165.364212 272.377991 
L 165.364212 272.209852 
L 165.529617 272.209852 
L 165.622417 271.873573 
L 165.657978 271.873573 
L 165.657978 271.705434 
L 165.781875 271.705434 
L 165.781875 271.537295 
L 165.922402 271.537295 
L 165.946878 271.201016 
L 166.131092 271.201016 
L 166.165632 270.696598 
L 166.244815 270.696598 
L 166.244815 270.528459 
L 166.385083 270.528459 
L 166.422524 270.19218 
L 166.507321 270.19218 
L 166.507321 270.024041 
L 166.628709 270.024041 
L 166.628709 269.687762 
L 167.017483 269.687762 
L 167.115788 269.351484 
L 167.187528 269.351484 
L 167.187528 269.183344 
L 167.394563 269.183344 
L 167.394563 269.015205 
L 167.615054 269.015205 
L 167.615054 268.847066 
L 167.738456 268.847066 
L 167.738456 268.678927 
L 168.103511 268.678927 
L 168.174383 268.174509 
L 168.229649 268.174509 
L 168.229649 268.006369 
L 168.455028 268.006369 
L 168.455028 267.83823 
L 168.623671 267.83823 
L 168.72825 267.501952 
L 168.77882 267.501952 
L 168.799601 266.997534 
L 168.914927 266.997534 
L 169.00019 266.493116 
L 169.0792 266.493116 
L 169.0792 266.324976 
L 169.224577 266.324976 
L 169.224577 266.156837 
L 169.579966 266.156837 
L 169.62247 265.652419 
L 169.707168 265.652419 
L 169.707168 265.48428 
L 169.858596 265.48428 
L 169.958822 265.148001 
L 170.019789 265.148001 
L 170.121846 264.475444 
L 170.17128 264.475444 
L 170.176764 264.139166 
L 170.676723 264.139166 
L 170.676723 263.971026 
L 170.878029 263.971026 
L 170.878029 263.802887 
L 171.258348 263.802887 
L 171.338045 263.13033 
L 171.45054 263.13033 
L 171.45054 262.794051 
L 171.595202 262.794051 
L 171.625505 262.457773 
L 171.975201 262.457773 
L 171.975201 262.289633 
L 172.385786 262.289633 
L 172.484538 261.953355 
L 172.871698 261.953355 
L 172.909242 261.448937 
L 173.128197 261.448937 
L 173.238952 261.112658 
L 173.43792 261.112658 
L 173.43792 260.944519 
L 173.928948 260.944519 
L 173.928948 260.60824 
L 175.295559 260.60824 
L 175.295559 260.271962 
L 175.643668 260.271962 
L 175.651681 259.767544 
L 175.925915 259.767544 
L 175.925915 259.599405 
L 176.288839 259.599405 
L 176.288839 259.263126 
L 176.456036 259.263126 
L 176.456036 259.094987 
L 176.868082 259.094987 
L 176.868082 258.758708 
L 177.9139 258.758708 
L 177.9139 258.422429 
L 178.092425 258.422429 
L 178.092425 258.25429 
L 178.508813 258.25429 
L 178.585156 257.749872 
L 179.059405 257.749872 
L 179.059405 257.581733 
L 179.553156 257.581733 
L 179.648977 257.077315 
L 180.048884 257.077315 
L 180.076879 256.404758 
L 180.231593 256.404758 
L 180.334489 256.068479 
L 180.669651 256.068479 
L 180.669651 255.90034 
L 180.872748 255.90034 
L 180.892039 255.564061 
L 181.063231 255.564061 
L 181.142354 255.059644 
L 181.238575 255.059644 
L 181.238575 254.891504 
L 181.871035 254.891504 
L 181.871035 254.723365 
L 182.446122 254.723365 
L 182.446122 254.555226 
L 182.847104 254.555226 
L 182.847104 254.218947 
L 182.971284 254.218947 
L 183.00679 253.882668 
L 183.752557 253.882668 
L 183.752557 253.714529 
L 184.41692 253.714529 
L 184.41692 253.54639 
L 184.686239 253.54639 
L 184.686239 253.378251 
L 184.898504 253.378251 
L 184.898504 253.041972 
L 185.357964 253.041972 
L 185.357964 252.705693 
L 186.210415 252.705693 
L 186.210415 252.537554 
L 186.35738 252.537554 
L 186.35738 252.369415 
L 186.82796 252.369415 
L 186.82796 252.201276 
L 187.749681 252.201276 
L 187.761688 251.696858 
L 188.133761 251.696858 
L 188.185575 251.0243 
L 188.289714 251.0243 
L 188.289714 250.688022 
L 188.445246 250.688022 
L 188.445246 250.519883 
L 188.754099 250.519883 
L 188.754099 250.183604 
L 189.099313 250.183604 
L 189.193545 249.679186 
L 189.456895 249.679186 
L 189.456895 249.511047 
L 190.239518 249.511047 
L 190.239518 249.342907 
L 190.948578 249.342907 
L 191.015932 248.83849 
L 191.110288 248.83849 
L 191.110288 248.67035 
L 191.587415 248.67035 
L 191.660351 248.165932 
L 191.964023 248.165932 
L 191.964023 247.829654 
L 192.198247 247.829654 
L 192.264815 247.493375 
L 192.505731 247.493375 
L 192.505731 247.325236 
L 193.396934 247.325236 
L 193.490803 246.820818 
L 193.759489 246.820818 
L 193.759489 246.652679 
L 194.17085 246.652679 
L 194.206828 246.148261 
L 194.300573 246.148261 
L 194.301947 245.811982 
L 194.978789 245.811982 
L 194.978789 245.643843 
L 195.269931 245.643843 
L 195.380776 245.307564 
L 195.576112 245.307564 
L 195.646893 244.971286 
L 195.818504 244.971286 
L 195.818504 244.803146 
L 196.092967 244.803146 
L 196.197485 244.466868 
L 196.579869 244.466868 
L 196.609403 244.130589 
L 197.304174 244.130589 
L 197.304174 243.794311 
L 197.646272 243.794311 
L 197.646272 243.626171 
L 197.993473 243.626171 
L 198.078927 243.289893 
L 198.659773 243.289893 
L 198.708428 242.785475 
L 199.415229 242.785475 
L 199.415229 242.617336 
L 200.208527 242.617336 
L 200.208527 242.449196 
L 200.451294 242.449196 
L 200.451294 242.281057 
L 200.604737 242.281057 
L 200.604737 242.112918 
L 200.727383 242.112918 
L 200.727383 241.944778 
L 200.970587 241.944778 
L 200.970587 241.776639 
L 201.460277 241.776639 
L 201.460277 241.6085 
L 201.891277 241.6085 
L 201.891277 241.440361 
L 202.11888 241.440361 
L 202.11888 241.272221 
L 202.341384 241.272221 
L 202.341384 241.104082 
L 202.540954 241.104082 
L 202.540954 240.935943 
L 202.655862 240.935943 
L 202.75309 240.599664 
L 204.646216 240.599664 
L 204.705371 240.263385 
L 205.943299 240.263385 
L 206.051568 239.758968 
L 206.31036 239.758968 
L 206.31036 239.590828 
L 206.891333 239.590828 
L 206.891333 239.422689 
L 207.760953 239.422689 
L 207.760953 239.25455 
L 208.217824 239.25455 
L 208.217824 239.08641 
L 208.333194 239.08641 
L 208.333194 238.750132 
L 208.818614 238.750132 
L 208.818614 238.581992 
L 209.116861 238.581992 
L 209.116861 238.413853 
L 209.409225 238.413853 
L 209.409225 238.077575 
L 210.295141 238.077575 
L 210.295141 237.909435 
L 210.48505 237.909435 
L 210.587206 237.405017 
L 211.393925 237.405017 
L 211.418414 236.73246 
L 211.5654 236.73246 
L 211.5654 236.564321 
L 212.444573 236.564321 
L 212.444573 236.396182 
L 212.620501 236.396182 
L 212.620501 236.059903 
L 213.388629 236.059903 
L 213.388629 235.723624 
L 214.162245 235.723624 
L 214.162245 235.387346 
L 214.316949 235.387346 
L 214.316949 235.051067 
L 214.766826 235.051067 
L 214.766826 234.882928 
L 218.997846 234.882928 
L 219.080218 234.210371 
L 219.611591 234.210371 
L 219.611591 233.874092 
L 222.55278 233.874092 
L 222.55278 233.537814 
L 223.080843 233.537814 
L 223.080843 233.201535 
L 223.656709 233.201535 
L 223.656709 232.865256 
L 223.949598 232.865256 
L 223.949598 232.697117 
L 226.705141 232.697117 
L 226.705141 232.360839 
L 232.661693 232.360839 
L 232.661693 232.02456 
L 235.078851 232.02456 
L 235.078851 231.688281 
L 237.262901 231.688281 
L 237.262901 231.352003 
L 238.612285 231.352003 
L 238.612285 231.015724 
L 238.939508 231.015724 
L 238.939508 230.679446 
L 240.638918 230.679446 
L 240.638918 230.343167 
L 241.303502 230.343167 
L 241.303502 230.006888 
L 243.28137 230.006888 
L 243.28137 229.67061 
L 245.262664 229.67061 
L 245.262664 229.334331 
L 247.01146 229.334331 
L 247.01146 228.998053 
L 258.171936 228.998053 
L 258.171936 228.829913 
L 338.688 228.829913 
L 338.688 228.829913 
" style="fill:none;stroke:#ff7500;stroke-linecap:square;stroke-width:1.5;"/>
   </g>
   <g id="line2d_46">
    <defs>
     <path d="M 0 -6 
L -1.347084 -1.854102 
L -5.706339 -1.854102 
L -2.179628 0.708204 
L -3.526712 4.854102 
L -0 2.291796 
L 3.526712 4.854102 
L 2.179628 0.708204 
L 5.706339 -1.854102 
L 1.347084 -1.854102 
z
" id="m3d7e2d7a8f" style="stroke:#ff7500;stroke-linejoin:bevel;stroke-width:1.5;"/>
    </defs>
    <g>
     <use style="fill-opacity:0;stroke:#ff7500;stroke-linejoin:bevel;stroke-width:1.5;" x="189.131705" xlink:href="#m3d7e2d7a8f" y="249.847325"/>
     <use style="fill-opacity:0;stroke:#ff7500;stroke-linejoin:bevel;stroke-width:1.5;" x="258.171936" xlink:href="#m3d7e2d7a8f" y="228.998053"/>
     <use style="fill-opacity:0;stroke:#ff7500;stroke-linejoin:bevel;stroke-width:1.5;" x="258.171936" xlink:href="#m3d7e2d7a8f" y="228.829913"/>
     <use style="fill-opacity:0;stroke:#ff7500;stroke-linejoin:bevel;stroke-width:1.5;" x="338.688" xlink:href="#m3d7e2d7a8f" y="228.829913"/>
    </g>
   </g>
   <g id="line2d_47">
    <path style="fill:none;stroke:#ff7500;stroke-linecap:square;stroke-width:1.5;"/>
    <g/>
   </g>
   <g id="line2d_48">
    <path clip-path="url(#pf5c6ff9666)" d="M 258.37716 228.829913 
" style="fill:none;stroke:#ff7500;stroke-linecap:square;stroke-width:1.5;"/>
    <defs>
     <path d="M -12 12 
L 12 -12 
M -12 -12 
L 12 12 
" id="m1c83ac1d75" style="stroke:#ff7500;"/>
    </defs>
    <g clip-path="url(#pf5c6ff9666)">
     <use style="fill:#ff7500;stroke:#ff7500;" x="258.37716" xlink:href="#m1c83ac1d75" y="228.829913"/>
    </g>
   </g>
   <g id="line2d_49">
    <path d="M 338.688 246.652679 
L 369.60768 293.092752 
" style="fill:none;stroke:#ff00ff;stroke-linecap:square;stroke-width:1.5;"/>
    <g>
     <use style="fill-opacity:0;stroke:#ff00ff;stroke-linejoin:miter;stroke-width:1.5;" x="338.688" xlink:href="#m2982cab536" y="246.652679"/>
     <use style="fill-opacity:0;stroke:#ff00ff;stroke-linejoin:miter;stroke-width:1.5;" x="369.60768" xlink:href="#m2982cab536" y="293.092752"/>
    </g>
   </g>
   <g id="line2d_50">
    <path d="M 338.688 228.829913 
L 369.60768 199.472792 
" style="fill:none;stroke:#ff7500;stroke-linecap:square;stroke-width:1.5;"/>
    <g>
     <use style="fill-opacity:0;stroke:#ff7500;stroke-linejoin:bevel;stroke-width:1.5;" x="338.688" xlink:href="#m3d7e2d7a8f" y="228.829913"/>
     <use style="fill-opacity:0;stroke:#ff7500;stroke-linejoin:bevel;stroke-width:1.5;" x="369.60768" xlink:href="#m3d7e2d7a8f" y="199.472792"/>
    </g>
   </g>
   <g id="line2d_51">
    <path d="M 338.688 214.538073 
L 369.60768 105.852832 
" style="fill:none;stroke:#000080;stroke-linecap:square;stroke-width:1.5;"/>
    <g>
     <use style="fill-opacity:0;stroke:#000080;stroke-width:1.5;" x="338.688" xlink:href="#m3a88edf0a3" y="214.538073"/>
     <use style="fill-opacity:0;stroke:#000080;stroke-width:1.5;" x="369.60768" xlink:href="#m3a88edf0a3" y="105.852832"/>
    </g>
   </g>
   <g id="line2d_52">
    <path d="M 338.688 298.944 
L 338.688 6.381624 
" style="fill:none;stroke:#000000;stroke-linecap:square;stroke-width:1.5;"/>
   </g>
   <g id="patch_3">
    <path d="M 57.6 298.944 
L 57.6 3.456 
" style="fill:none;stroke:#000000;stroke-linecap:square;stroke-linejoin:miter;stroke-width:0.8;"/>
   </g>
   <g id="patch_4">
    <path d="M 338.688 298.944 
L 338.688 3.456 
" style="fill:none;stroke:#000000;stroke-linecap:square;stroke-linejoin:miter;stroke-width:0.8;"/>
   </g>
   <g id="patch_5">
    <path d="M 57.6 298.944 
L 338.688 298.944 
" style="fill:none;stroke:#000000;stroke-linecap:square;stroke-linejoin:miter;stroke-width:0.8;"/>
   </g>
   <g id="patch_6">
    <path d="M 57.6 3.456 
L 338.688 3.456 
" style="fill:none;stroke:#000000;stroke-linecap:square;stroke-linejoin:miter;stroke-width:0.8;"/>
   </g>
   <g id="text_13">
    <!-- NSGA-II-M -->
    <g transform="translate(375.22944 297.78369)scale(0.17 -0.17)">
     <defs>
      <path d="M 9.8125 72.90625 
L 23.09375 72.90625 
L 55.421875 11.921875 
L 55.421875 72.90625 
L 64.984375 72.90625 
L 64.984375 0 
L 51.703125 0 
L 19.390625 60.984375 
L 19.390625 0 
L 9.8125 0 
z
" id="DejaVuSans-78"/>
      <path d="M 53.515625 70.515625 
L 53.515625 60.890625 
Q 47.90625 63.578125 42.921875 64.890625 
Q 37.9375 66.21875 33.296875 66.21875 
Q 25.25 66.21875 20.875 63.09375 
Q 16.5 59.96875 16.5 54.203125 
Q 16.5 49.359375 19.40625 46.890625 
Q 22.3125 44.4375 30.421875 42.921875 
L 36.375 41.703125 
Q 47.40625 39.59375 52.65625 34.296875 
Q 57.90625 29 57.90625 20.125 
Q 57.90625 9.515625 50.796875 4.046875 
Q 43.703125 -1.421875 29.984375 -1.421875 
Q 24.8125 -1.421875 18.96875 -0.25 
Q 13.140625 0.921875 6.890625 3.21875 
L 6.890625 13.375 
Q 12.890625 10.015625 18.65625 8.296875 
Q 24.421875 6.59375 29.984375 6.59375 
Q 38.421875 6.59375 43.015625 9.90625 
Q 47.609375 13.234375 47.609375 19.390625 
Q 47.609375 24.75 44.3125 27.78125 
Q 41.015625 30.8125 33.5 32.328125 
L 27.484375 33.5 
Q 16.453125 35.6875 11.515625 40.375 
Q 6.59375 45.0625 6.59375 53.421875 
Q 6.59375 63.09375 13.40625 68.65625 
Q 20.21875 74.21875 32.171875 74.21875 
Q 37.3125 74.21875 42.625 73.28125 
Q 47.953125 72.359375 53.515625 70.515625 
z
" id="DejaVuSans-83"/>
      <path d="M 59.515625 10.40625 
L 59.515625 29.984375 
L 43.40625 29.984375 
L 43.40625 38.09375 
L 69.28125 38.09375 
L 69.28125 6.78125 
Q 63.578125 2.734375 56.6875 0.65625 
Q 49.8125 -1.421875 42 -1.421875 
Q 24.90625 -1.421875 15.25 8.5625 
Q 5.609375 18.5625 5.609375 36.375 
Q 5.609375 54.25 15.25 64.234375 
Q 24.90625 74.21875 42 74.21875 
Q 49.125 74.21875 55.546875 72.453125 
Q 61.96875 70.703125 67.390625 67.28125 
L 67.390625 56.78125 
Q 61.921875 61.421875 55.765625 63.765625 
Q 49.609375 66.109375 42.828125 66.109375 
Q 29.4375 66.109375 22.71875 58.640625 
Q 16.015625 51.171875 16.015625 36.375 
Q 16.015625 21.625 22.71875 14.15625 
Q 29.4375 6.6875 42.828125 6.6875 
Q 48.046875 6.6875 52.140625 7.59375 
Q 56.25 8.5 59.515625 10.40625 
z
" id="DejaVuSans-71"/>
      <path d="M 34.1875 63.1875 
L 20.796875 26.90625 
L 47.609375 26.90625 
z
M 28.609375 72.90625 
L 39.796875 72.90625 
L 67.578125 0 
L 57.328125 0 
L 50.6875 18.703125 
L 17.828125 18.703125 
L 11.1875 0 
L 0.78125 0 
z
" id="DejaVuSans-65"/>
      <path d="M 9.8125 72.90625 
L 19.671875 72.90625 
L 19.671875 0 
L 9.8125 0 
z
" id="DejaVuSans-73"/>
      <path d="M 9.8125 72.90625 
L 24.515625 72.90625 
L 43.109375 23.296875 
L 61.8125 72.90625 
L 76.515625 72.90625 
L 76.515625 0 
L 66.890625 0 
L 66.890625 64.015625 
L 48.09375 14.015625 
L 38.1875 14.015625 
L 19.390625 64.015625 
L 19.390625 0 
L 9.8125 0 
z
" id="DejaVuSans-77"/>
     </defs>
     <use xlink:href="#DejaVuSans-78"/>
     <use x="74.804688" xlink:href="#DejaVuSans-83"/>
     <use x="138.28125" xlink:href="#DejaVuSans-71"/>
     <use x="215.771484" xlink:href="#DejaVuSans-65"/>
     <use x="281.929688" xlink:href="#DejaVuSans-45"/>
     <use x="318.013672" xlink:href="#DejaVuSans-73"/>
     <use x="347.505859" xlink:href="#DejaVuSans-73"/>
     <use x="376.998047" xlink:href="#DejaVuSans-45"/>
     <use x="413.082031" xlink:href="#DejaVuSans-77"/>
    </g>
   </g>
   <g id="text_14">
    <!-- SMS-EMOA- -->
    <g transform="translate(375.22944 204.16373)scale(0.17 -0.17)">
     <defs>
      <path d="M 9.8125 72.90625 
L 55.90625 72.90625 
L 55.90625 64.59375 
L 19.671875 64.59375 
L 19.671875 43.015625 
L 54.390625 43.015625 
L 54.390625 34.71875 
L 19.671875 34.71875 
L 19.671875 8.296875 
L 56.78125 8.296875 
L 56.78125 0 
L 9.8125 0 
z
" id="DejaVuSans-69"/>
      <path d="M 39.40625 66.21875 
Q 28.65625 66.21875 22.328125 58.203125 
Q 16.015625 50.203125 16.015625 36.375 
Q 16.015625 22.609375 22.328125 14.59375 
Q 28.65625 6.59375 39.40625 6.59375 
Q 50.140625 6.59375 56.421875 14.59375 
Q 62.703125 22.609375 62.703125 36.375 
Q 62.703125 50.203125 56.421875 58.203125 
Q 50.140625 66.21875 39.40625 66.21875 
z
M 39.40625 74.21875 
Q 54.734375 74.21875 63.90625 63.9375 
Q 73.09375 53.65625 73.09375 36.375 
Q 73.09375 19.140625 63.90625 8.859375 
Q 54.734375 -1.421875 39.40625 -1.421875 
Q 24.03125 -1.421875 14.8125 8.828125 
Q 5.609375 19.09375 5.609375 36.375 
Q 5.609375 53.65625 14.8125 63.9375 
Q 24.03125 74.21875 39.40625 74.21875 
z
" id="DejaVuSans-79"/>
     </defs>
     <use xlink:href="#DejaVuSans-83"/>
     <use x="63.476562" xlink:href="#DejaVuSans-77"/>
     <use x="149.755859" xlink:href="#DejaVuSans-83"/>
     <use x="213.232422" xlink:href="#DejaVuSans-45"/>
     <use x="249.316406" xlink:href="#DejaVuSans-69"/>
     <use x="312.5" xlink:href="#DejaVuSans-77"/>
     <use x="398.779297" xlink:href="#DejaVuSans-79"/>
     <use x="475.740234" xlink:href="#DejaVuSans-65"/>
     <use x="541.898438" xlink:href="#DejaVuSans-45"/>
    </g>
   </g>
   <g id="text_15">
    <!-- COMO-100  -->
    <g transform="translate(375.22944 110.543769)scale(0.17 -0.17)">
     <defs>
      <path d="M 64.40625 67.28125 
L 64.40625 56.890625 
Q 59.421875 61.53125 53.78125 63.8125 
Q 48.140625 66.109375 41.796875 66.109375 
Q 29.296875 66.109375 22.65625 58.46875 
Q 16.015625 50.828125 16.015625 36.375 
Q 16.015625 21.96875 22.65625 14.328125 
Q 29.296875 6.6875 41.796875 6.6875 
Q 48.140625 6.6875 53.78125 8.984375 
Q 59.421875 11.28125 64.40625 15.921875 
L 64.40625 5.609375 
Q 59.234375 2.09375 53.4375 0.328125 
Q 47.65625 -1.421875 41.21875 -1.421875 
Q 24.65625 -1.421875 15.125 8.703125 
Q 5.609375 18.84375 5.609375 36.375 
Q 5.609375 53.953125 15.125 64.078125 
Q 24.65625 74.21875 41.21875 74.21875 
Q 47.75 74.21875 53.53125 72.484375 
Q 59.328125 70.75 64.40625 67.28125 
z
" id="DejaVuSans-67"/>
     </defs>
     <use xlink:href="#DejaVuSans-67"/>
     <use x="69.824219" xlink:href="#DejaVuSans-79"/>
     <use x="148.535156" xlink:href="#DejaVuSans-77"/>
     <use x="234.814453" xlink:href="#DejaVuSans-79"/>
     <use x="316.275391" xlink:href="#DejaVuSans-45"/>
     <use x="352.359375" xlink:href="#DejaVuSans-49"/>
     <use x="415.982422" xlink:href="#DejaVuSans-48"/>
     <use x="479.605469" xlink:href="#DejaVuSans-48"/>
     <use x="543.228516" xlink:href="#DejaVuSans-32"/>
    </g>
   </g>
   <g id="text_16">
    <!-- best 2016 -->
    <g transform="translate(375.22944 16.923809)scale(0.17 -0.17)">
     <defs>
      <path d="M 48.6875 27.296875 
Q 48.6875 37.203125 44.609375 42.84375 
Q 40.53125 48.484375 33.40625 48.484375 
Q 26.265625 48.484375 22.1875 42.84375 
Q 18.109375 37.203125 18.109375 27.296875 
Q 18.109375 17.390625 22.1875 11.75 
Q 26.265625 6.109375 33.40625 6.109375 
Q 40.53125 6.109375 44.609375 11.75 
Q 48.6875 17.390625 48.6875 27.296875 
z
M 18.109375 46.390625 
Q 20.953125 51.265625 25.265625 53.625 
Q 29.59375 56 35.59375 56 
Q 45.5625 56 51.78125 48.09375 
Q 58.015625 40.1875 58.015625 27.296875 
Q 58.015625 14.40625 51.78125 6.484375 
Q 45.5625 -1.421875 35.59375 -1.421875 
Q 29.59375 -1.421875 25.265625 0.953125 
Q 20.953125 3.328125 18.109375 8.203125 
L 18.109375 0 
L 9.078125 0 
L 9.078125 75.984375 
L 18.109375 75.984375 
z
" id="DejaVuSans-98"/>
     </defs>
     <use xlink:href="#DejaVuSans-98"/>
     <use x="63.476562" xlink:href="#DejaVuSans-101"/>
     <use x="125" xlink:href="#DejaVuSans-115"/>
     <use x="177.099609" xlink:href="#DejaVuSans-116"/>
     <use x="216.308594" xlink:href="#DejaVuSans-32"/>
     <use x="248.095703" xlink:href="#DejaVuSans-50"/>
     <use x="311.71875" xlink:href="#DejaVuSans-48"/>
     <use x="375.341797" xlink:href="#DejaVuSans-49"/>
     <use x="438.964844" xlink:href="#DejaVuSans-54"/>
    </g>
   </g>
   <g id="text_17">
    <!-- bbob-biobj f46, f47, f50, 10-D -->
    <g transform="translate(60.41088 14.161286)scale(0.102 -0.102)">
     <defs>
      <path d="M 9.421875 54.6875 
L 18.40625 54.6875 
L 18.40625 -0.984375 
Q 18.40625 -11.421875 14.421875 -16.109375 
Q 10.453125 -20.796875 1.609375 -20.796875 
L -1.8125 -20.796875 
L -1.8125 -13.1875 
L 0.59375 -13.1875 
Q 5.71875 -13.1875 7.5625 -10.8125 
Q 9.421875 -8.453125 9.421875 -0.984375 
z
M 9.421875 75.984375 
L 18.40625 75.984375 
L 18.40625 64.59375 
L 9.421875 64.59375 
z
" id="DejaVuSans-106"/>
      <path d="M 8.203125 72.90625 
L 55.078125 72.90625 
L 55.078125 68.703125 
L 28.609375 0 
L 18.3125 0 
L 43.21875 64.59375 
L 8.203125 64.59375 
z
" id="DejaVuSans-55"/>
      <path d="M 10.796875 72.90625 
L 49.515625 72.90625 
L 49.515625 64.59375 
L 19.828125 64.59375 
L 19.828125 46.734375 
Q 21.96875 47.46875 24.109375 47.828125 
Q 26.265625 48.1875 28.421875 48.1875 
Q 40.625 48.1875 47.75 41.5 
Q 54.890625 34.8125 54.890625 23.390625 
Q 54.890625 11.625 47.5625 5.09375 
Q 40.234375 -1.421875 26.90625 -1.421875 
Q 22.3125 -1.421875 17.546875 -0.640625 
Q 12.796875 0.140625 7.71875 1.703125 
L 7.71875 11.625 
Q 12.109375 9.234375 16.796875 8.0625 
Q 21.484375 6.890625 26.703125 6.890625 
Q 35.15625 6.890625 40.078125 11.328125 
Q 45.015625 15.765625 45.015625 23.390625 
Q 45.015625 31 40.078125 35.4375 
Q 35.15625 39.890625 26.703125 39.890625 
Q 22.75 39.890625 18.8125 39.015625 
Q 14.890625 38.140625 10.796875 36.28125 
z
" id="DejaVuSans-53"/>
      <path d="M 19.671875 64.796875 
L 19.671875 8.109375 
L 31.59375 8.109375 
Q 46.6875 8.109375 53.6875 14.9375 
Q 60.6875 21.78125 60.6875 36.53125 
Q 60.6875 51.171875 53.6875 57.984375 
Q 46.6875 64.796875 31.59375 64.796875 
z
M 9.8125 72.90625 
L 30.078125 72.90625 
Q 51.265625 72.90625 61.171875 64.09375 
Q 71.09375 55.28125 71.09375 36.53125 
Q 71.09375 17.671875 61.125 8.828125 
Q 51.171875 0 30.078125 0 
L 9.8125 0 
z
" id="DejaVuSans-68"/>
     </defs>
     <use xlink:href="#DejaVuSans-98"/>
     <use x="63.476562" xlink:href="#DejaVuSans-98"/>
     <use x="126.953125" xlink:href="#DejaVuSans-111"/>
     <use x="188.134766" xlink:href="#DejaVuSans-98"/>
     <use x="251.611328" xlink:href="#DejaVuSans-45"/>
     <use x="287.695312" xlink:href="#DejaVuSans-98"/>
     <use x="351.171875" xlink:href="#DejaVuSans-105"/>
     <use x="378.955078" xlink:href="#DejaVuSans-111"/>
     <use x="440.136719" xlink:href="#DejaVuSans-98"/>
     <use x="503.613281" xlink:href="#DejaVuSans-106"/>
     <use x="531.396484" xlink:href="#DejaVuSans-32"/>
     <use x="563.183594" xlink:href="#DejaVuSans-102"/>
     <use x="598.388672" xlink:href="#DejaVuSans-52"/>
     <use x="662.011719" xlink:href="#DejaVuSans-54"/>
     <use x="725.634766" xlink:href="#DejaVuSans-44"/>
     <use x="757.421875" xlink:href="#DejaVuSans-32"/>
     <use x="789.208984" xlink:href="#DejaVuSans-102"/>
     <use x="824.414062" xlink:href="#DejaVuSans-52"/>
     <use x="888.037109" xlink:href="#DejaVuSans-55"/>
     <use x="951.660156" xlink:href="#DejaVuSans-44"/>
     <use x="983.447266" xlink:href="#DejaVuSans-32"/>
     <use x="1015.234375" xlink:href="#DejaVuSans-102"/>
     <use x="1050.439453" xlink:href="#DejaVuSans-53"/>
     <use x="1114.0625" xlink:href="#DejaVuSans-48"/>
     <use x="1177.685547" xlink:href="#DejaVuSans-44"/>
     <use x="1209.472656" xlink:href="#DejaVuSans-32"/>
     <use x="1241.259766" xlink:href="#DejaVuSans-49"/>
     <use x="1304.882812" xlink:href="#DejaVuSans-48"/>
     <use x="1368.505859" xlink:href="#DejaVuSans-45"/>
     <use x="1404.589844" xlink:href="#DejaVuSans-68"/>
    </g>
    <!-- 58 targets: 1..-1.0e-4 -->
    <g transform="translate(60.41088 25.583055)scale(0.102 -0.102)">
     <defs>
      <path d="M 11.71875 12.40625 
L 22.015625 12.40625 
L 22.015625 0 
L 11.71875 0 
z
M 11.71875 51.703125 
L 22.015625 51.703125 
L 22.015625 39.3125 
L 11.71875 39.3125 
z
" id="DejaVuSans-58"/>
     </defs>
     <use xlink:href="#DejaVuSans-53"/>
     <use x="63.623047" xlink:href="#DejaVuSans-56"/>
     <use x="127.246094" xlink:href="#DejaVuSans-32"/>
     <use x="159.033203" xlink:href="#DejaVuSans-116"/>
     <use x="198.242188" xlink:href="#DejaVuSans-97"/>
     <use x="259.521484" xlink:href="#DejaVuSans-114"/>
     <use x="298.884766" xlink:href="#DejaVuSans-103"/>
     <use x="362.361328" xlink:href="#DejaVuSans-101"/>
     <use x="423.884766" xlink:href="#DejaVuSans-116"/>
     <use x="463.09375" xlink:href="#DejaVuSans-115"/>
     <use x="515.193359" xlink:href="#DejaVuSans-58"/>
     <use x="548.884766" xlink:href="#DejaVuSans-32"/>
     <use x="580.671875" xlink:href="#DejaVuSans-49"/>
     <use x="644.294922" xlink:href="#DejaVuSans-46"/>
     <use x="676.082031" xlink:href="#DejaVuSans-46"/>
     <use x="707.869141" xlink:href="#DejaVuSans-45"/>
     <use x="743.953125" xlink:href="#DejaVuSans-49"/>
     <use x="807.576172" xlink:href="#DejaVuSans-46"/>
     <use x="839.363281" xlink:href="#DejaVuSans-48"/>
     <use x="902.986328" xlink:href="#DejaVuSans-101"/>
     <use x="964.509766" xlink:href="#DejaVuSans-45"/>
     <use x="1000.59375" xlink:href="#DejaVuSans-52"/>
    </g>
    <!-- 10 instances -->
    <g transform="translate(60.41088 37.004824)scale(0.102 -0.102)">
     <use xlink:href="#DejaVuSans-49"/>
     <use x="63.623047" xlink:href="#DejaVuSans-48"/>
     <use x="127.246094" xlink:href="#DejaVuSans-32"/>
     <use x="159.033203" xlink:href="#DejaVuSans-105"/>
     <use x="186.816406" xlink:href="#DejaVuSans-110"/>
     <use x="250.195312" xlink:href="#DejaVuSans-115"/>
     <use x="302.294922" xlink:href="#DejaVuSans-116"/>
     <use x="341.503906" xlink:href="#DejaVuSans-97"/>
     <use x="402.783203" xlink:href="#DejaVuSans-110"/>
     <use x="466.162109" xlink:href="#DejaVuSans-99"/>
     <use x="521.142578" xlink:href="#DejaVuSans-101"/>
     <use x="582.666016" xlink:href="#DejaVuSans-115"/>
    </g>
   </g>
   <g id="text_18">
    <!-- v2.4.19, hv-hash=ff0e71e8cd978373 -->
    <g style="fill:#808080;" transform="translate(104.697125 293.909432)scale(0.1 -0.1)">
     <defs>
      <path d="M 10.984375 1.515625 
L 10.984375 10.5 
Q 14.703125 8.734375 18.5 7.8125 
Q 22.3125 6.890625 25.984375 6.890625 
Q 35.75 6.890625 40.890625 13.453125 
Q 46.046875 20.015625 46.78125 33.40625 
Q 43.953125 29.203125 39.59375 26.953125 
Q 35.25 24.703125 29.984375 24.703125 
Q 19.046875 24.703125 12.671875 31.3125 
Q 6.296875 37.9375 6.296875 49.421875 
Q 6.296875 60.640625 12.9375 67.421875 
Q 19.578125 74.21875 30.609375 74.21875 
Q 43.265625 74.21875 49.921875 64.515625 
Q 56.59375 54.828125 56.59375 36.375 
Q 56.59375 19.140625 48.40625 8.859375 
Q 40.234375 -1.421875 26.421875 -1.421875 
Q 22.703125 -1.421875 18.890625 -0.6875 
Q 15.09375 0.046875 10.984375 1.515625 
z
M 30.609375 32.421875 
Q 37.25 32.421875 41.125 36.953125 
Q 45.015625 41.5 45.015625 49.421875 
Q 45.015625 57.28125 41.125 61.84375 
Q 37.25 66.40625 30.609375 66.40625 
Q 23.96875 66.40625 20.09375 61.84375 
Q 16.21875 57.28125 16.21875 49.421875 
Q 16.21875 41.5 20.09375 36.953125 
Q 23.96875 32.421875 30.609375 32.421875 
z
" id="DejaVuSans-57"/>
      <path d="M 54.890625 33.015625 
L 54.890625 0 
L 45.90625 0 
L 45.90625 32.71875 
Q 45.90625 40.484375 42.875 44.328125 
Q 39.84375 48.1875 33.796875 48.1875 
Q 26.515625 48.1875 22.3125 43.546875 
Q 18.109375 38.921875 18.109375 30.90625 
L 18.109375 0 
L 9.078125 0 
L 9.078125 75.984375 
L 18.109375 75.984375 
L 18.109375 46.1875 
Q 21.34375 51.125 25.703125 53.5625 
Q 30.078125 56 35.796875 56 
Q 45.21875 56 50.046875 50.171875 
Q 54.890625 44.34375 54.890625 33.015625 
z
" id="DejaVuSans-104"/>
      <path d="M 10.59375 45.40625 
L 73.1875 45.40625 
L 73.1875 37.203125 
L 10.59375 37.203125 
z
M 10.59375 25.484375 
L 73.1875 25.484375 
L 73.1875 17.1875 
L 10.59375 17.1875 
z
" id="DejaVuSans-61"/>
      <path d="M 40.578125 39.3125 
Q 47.65625 37.796875 51.625 33 
Q 55.609375 28.21875 55.609375 21.1875 
Q 55.609375 10.40625 48.1875 4.484375 
Q 40.765625 -1.421875 27.09375 -1.421875 
Q 22.515625 -1.421875 17.65625 -0.515625 
Q 12.796875 0.390625 7.625 2.203125 
L 7.625 11.71875 
Q 11.71875 9.328125 16.59375 8.109375 
Q 21.484375 6.890625 26.8125 6.890625 
Q 36.078125 6.890625 40.9375 10.546875 
Q 45.796875 14.203125 45.796875 21.1875 
Q 45.796875 27.640625 41.28125 31.265625 
Q 36.765625 34.90625 28.71875 34.90625 
L 20.21875 34.90625 
L 20.21875 43.015625 
L 29.109375 43.015625 
Q 36.375 43.015625 40.234375 45.921875 
Q 44.09375 48.828125 44.09375 54.296875 
Q 44.09375 59.90625 40.109375 62.90625 
Q 36.140625 65.921875 28.71875 65.921875 
Q 24.65625 65.921875 20.015625 65.03125 
Q 15.375 64.15625 9.8125 62.3125 
L 9.8125 71.09375 
Q 15.4375 72.65625 20.34375 73.4375 
Q 25.25 74.21875 29.59375 74.21875 
Q 40.828125 74.21875 47.359375 69.109375 
Q 53.90625 64.015625 53.90625 55.328125 
Q 53.90625 49.265625 50.4375 45.09375 
Q 46.96875 40.921875 40.578125 39.3125 
z
" id="DejaVuSans-51"/>
     </defs>
     <use xlink:href="#DejaVuSans-118"/>
     <use x="59.179688" xlink:href="#DejaVuSans-50"/>
     <use x="122.802734" xlink:href="#DejaVuSans-46"/>
     <use x="154.589844" xlink:href="#DejaVuSans-52"/>
     <use x="218.212891" xlink:href="#DejaVuSans-46"/>
     <use x="250" xlink:href="#DejaVuSans-49"/>
     <use x="313.623047" xlink:href="#DejaVuSans-57"/>
     <use x="377.246094" xlink:href="#DejaVuSans-44"/>
     <use x="409.033203" xlink:href="#DejaVuSans-32"/>
     <use x="440.820312" xlink:href="#DejaVuSans-104"/>
     <use x="504.199219" xlink:href="#DejaVuSans-118"/>
     <use x="560.753906" xlink:href="#DejaVuSans-45"/>
     <use x="596.837891" xlink:href="#DejaVuSans-104"/>
     <use x="660.216797" xlink:href="#DejaVuSans-97"/>
     <use x="721.496094" xlink:href="#DejaVuSans-115"/>
     <use x="773.595703" xlink:href="#DejaVuSans-104"/>
     <use x="836.974609" xlink:href="#DejaVuSans-61"/>
     <use x="920.763672" xlink:href="#DejaVuSans-102"/>
     <use x="955.96875" xlink:href="#DejaVuSans-102"/>
     <use x="991.173828" xlink:href="#DejaVuSans-48"/>
     <use x="1054.796875" xlink:href="#DejaVuSans-101"/>
     <use x="1116.320312" xlink:href="#DejaVuSans-55"/>
     <use x="1179.943359" xlink:href="#DejaVuSans-49"/>
     <use x="1243.566406" xlink:href="#DejaVuSans-101"/>
     <use x="1305.089844" xlink:href="#DejaVuSans-56"/>
     <use x="1368.712891" xlink:href="#DejaVuSans-99"/>
     <use x="1423.693359" xlink:href="#DejaVuSans-100"/>
     <use x="1487.169922" xlink:href="#DejaVuSans-57"/>
     <use x="1550.792969" xlink:href="#DejaVuSans-55"/>
     <use x="1614.416016" xlink:href="#DejaVuSans-56"/>
     <use x="1678.039062" xlink:href="#DejaVuSans-51"/>
     <use x="1741.662109" xlink:href="#DejaVuSans-55"/>
     <use x="1805.285156" xlink:href="#DejaVuSans-51"/>
    </g>
   </g>
  </g>
 </g>
 <defs>
  <clipPath id="pf5c6ff9666">
   <rect height="295.488" width="281.088" x="57.6" y="3.456"/>
  </clipPath>
 </defs>
</svg>
