<?xml version="1.0" encoding="utf-8" standalone="no"?>
<!DOCTYPE svg PUBLIC "-//W3C//DTD SVG 1.1//EN"
  "http://www.w3.org/Graphics/SVG/1.1/DTD/svg11.dtd">
<!-- Created with matplotlib (https://matplotlib.org/) -->
<svg height="345.6pt" version="1.1" viewBox="0 0 460.8 345.6" width="460.8pt" xmlns="http://www.w3.org/2000/svg" xmlns:xlink="http://www.w3.org/1999/xlink">
 <metadata>
  <rdf:RDF xmlns:cc="http://creativecommons.org/ns#" xmlns:dc="http://purl.org/dc/elements/1.1/" xmlns:rdf="http://www.w3.org/1999/02/22-rdf-syntax-ns#">
   <cc:Work>
    <dc:type rdf:resource="http://purl.org/dc/dcmitype/StillImage"/>
    <dc:date>2021-04-26T15:03:11.574892</dc:date>
    <dc:format>image/svg+xml</dc:format>
    <dc:creator>
     <cc:Agent>
      <dc:title>Matplotlib v3.3.2, https://matplotlib.org/</dc:title>
     </cc:Agent>
    </dc:creator>
   </cc:Work>
  </rdf:RDF>
 </metadata>
 <defs>
  <style type="text/css">*{stroke-linecap:butt;stroke-linejoin:round;}</style>
 </defs>
 <g id="figure_1">
  <g id="patch_1">
   <path d="M 0 345.6 
L 460.8 345.6 
L 460.8 0 
L 0 0 
z
" style="fill:#ffffff;"/>
  </g>
  <g id="axes_1">
   <g id="patch_2">
    <path d="M 57.6 298.944 
L 338.688 298.944 
L 338.688 3.456 
L 57.6 3.456 
z
" style="fill:#ffffff;"/>
   </g>
   <g id="line2d_1">
    <path d="M -1 295.160866 
L 64.377916 295.160866 
L 64.377916 293.899821 
L 103.623262 293.899821 
L 103.623262 291.377732 
L 117.288253 291.377732 
L 117.288253 288.855642 
L 135.255248 288.855642 
L 135.255248 286.333553 
L 141.188235 286.333553 
L 141.188235 283.811463 
L 141.823235 283.811463 
L 141.823235 282.550419 
L 142.536534 282.550419 
L 142.536534 278.767284 
L 143.49614 278.767284 
L 143.49614 276.245195 
L 144.378627 276.245195 
L 144.378627 274.98415 
L 145.209996 274.98415 
L 145.209996 272.462061 
L 146.172658 272.462061 
L 146.172658 268.678927 
L 146.297089 268.678927 
L 146.297089 266.156837 
L 147.128691 266.156837 
L 147.128691 263.634748 
L 148.146895 263.634748 
L 148.226709 258.590569 
L 149.650973 258.590569 
L 149.650973 256.068479 
L 150.947016 256.068479 
L 150.947016 254.807435 
L 151.268175 254.807435 
L 151.268175 253.54639 
L 153.118352 253.54639 
L 153.118352 249.763256 
L 154.227102 249.763256 
L 154.227102 248.502211 
L 155.60627 248.502211 
L 155.60627 247.241166 
L 156.333721 247.241166 
L 156.333721 243.458032 
L 157.524573 243.458032 
L 157.524573 240.935943 
L 158.755771 240.935943 
L 158.755771 238.413853 
L 159.391834 238.413853 
L 159.391834 234.630719 
L 160.773135 234.630719 
L 160.773135 233.369674 
L 162.500433 233.369674 
L 162.500433 230.847585 
L 164.124407 230.847585 
L 164.124407 227.064451 
L 165.731538 227.064451 
L 165.818873 222.020272 
L 168.301538 222.020272 
L 168.301538 219.498182 
L 174.052867 219.498182 
L 174.052867 216.976093 
L 179.538337 216.976093 
L 179.538337 215.715048 
L 183.74941 215.715048 
L 183.74941 211.931914 
L 189.046432 211.931914 
L 189.046432 210.670869 
L 191.691915 210.670869 
L 191.691915 209.409825 
L 198.706025 209.409825 
L 198.706025 205.62669 
L 210.102031 205.62669 
L 210.102031 203.104601 
L 216.469257 203.104601 
L 216.469257 201.843556 
L 220.4782 201.843556 
L 220.4782 198.060422 
L 220.674447 198.060422 
L 220.674447 195.538333 
L 220.894563 195.538333 
L 220.894563 194.277288 
L 225.411902 194.277288 
L 225.411902 190.494154 
L 229.258123 190.494154 
L 229.258123 186.711019 
L 237.01088 186.711019 
L 237.01088 182.927885 
L 241.780659 182.927885 
L 241.780659 181.666841 
L 243.697711 181.666841 
L 243.717508 177.883706 
L 246.233075 177.883706 
L 246.233075 175.361617 
L 251.419917 175.361617 
L 251.419917 172.839527 
L 256.85852 172.839527 
L 256.85852 169.056393 
L 259.32177 169.056393 
L 259.32177 167.795349 
L 260.660024 167.795349 
L 260.660024 166.534304 
L 265.485811 166.534304 
L 265.513652 155.184901 
L 268.268954 155.184901 
L 268.268954 152.662812 
L 268.69657 152.662812 
L 268.69657 148.879678 
L 273.214062 148.879678 
L 273.214062 147.618633 
L 274.861238 147.618633 
L 274.897073 138.79132 
L 275.522911 138.79132 
L 275.522911 136.26923 
L 277.528742 136.26923 
L 277.528742 135.008186 
L 282.687161 135.008186 
L 282.687161 131.225052 
L 285.423979 131.225052 
L 285.423979 128.702962 
L 296.717969 128.702962 
L 296.717969 127.441917 
L 297.103759 127.441917 
L 297.103759 123.658783 
L 297.861974 123.658783 
L 297.861974 121.136694 
L 297.999731 121.136694 
L 298.03051 117.35356 
L 298.120026 117.35356 
L 298.205726 109.787291 
L 338.688 109.787291 
L 338.688 109.787291 
" style="fill:none;stroke:#f5deb3;stroke-linecap:square;stroke-width:4;"/>
   </g>
   <g id="line2d_2">
    <defs>
     <path d="M 0 7.778175 
L 7.778175 0 
L 0 -7.778175 
L -7.778175 0 
z
" id="mf099a3bf02" style="stroke:#f5deb3;stroke-linejoin:miter;stroke-width:1.5;"/>
    </defs>
    <g>
     <use style="fill:#f5deb3;stroke:#f5deb3;stroke-linejoin:miter;stroke-width:1.5;" x="157.524573" xlink:href="#mf099a3bf02" y="240.935943"/>
     <use style="fill:#f5deb3;stroke:#f5deb3;stroke-linejoin:miter;stroke-width:1.5;" x="198.706025" xlink:href="#mf099a3bf02" y="209.409825"/>
     <use style="fill:#f5deb3;stroke:#f5deb3;stroke-linejoin:miter;stroke-width:1.5;" x="277.528742" xlink:href="#mf099a3bf02" y="135.008186"/>
     <use style="fill:#f5deb3;stroke:#f5deb3;stroke-linejoin:miter;stroke-width:1.5;" x="298.205726" xlink:href="#mf099a3bf02" y="109.787291"/>
     <use style="fill:#f5deb3;stroke:#f5deb3;stroke-linejoin:miter;stroke-width:1.5;" x="338.688" xlink:href="#mf099a3bf02" y="109.787291"/>
    </g>
   </g>
   <g id="line2d_3">
    <path style="fill:none;stroke:#f5deb3;stroke-linecap:square;stroke-width:4;"/>
    <g/>
   </g>
   <g id="line2d_4">
    <path d="M 338.688 109.787291 
L 369.60768 12.232871 
" style="fill:none;stroke:#f5deb3;stroke-linecap:square;stroke-width:4;"/>
    <g>
     <use style="fill:#f5deb3;stroke:#f5deb3;stroke-linejoin:miter;stroke-width:1.5;" x="338.688" xlink:href="#mf099a3bf02" y="109.787291"/>
     <use style="fill:#f5deb3;stroke:#f5deb3;stroke-linejoin:miter;stroke-width:1.5;" x="369.60768" xlink:href="#mf099a3bf02" y="12.232871"/>
    </g>
   </g>
   <g id="matplotlib.axis_1">
    <g id="xtick_1">
     <g id="line2d_5">
      <path clip-path="url(#pf615bf25c1)" d="M 57.6 298.944 
L 57.6 3.456 
" style="fill:none;stroke:#b0b0b0;stroke-linecap:square;stroke-width:0.8;"/>
     </g>
     <g id="line2d_6">
      <defs>
       <path d="M 0 0 
L 0 3.5 
" id="m4ab7dea631" style="stroke:#000000;stroke-width:0.8;"/>
      </defs>
      <g>
       <use style="stroke:#000000;stroke-width:0.8;" x="57.6" xlink:href="#m4ab7dea631" y="298.944"/>
      </g>
     </g>
     <g id="text_1">
      <!-- 0 -->
      <g transform="translate(51.2375 321.140875)scale(0.2 -0.2)">
       <defs>
        <path d="M 31.78125 66.40625 
Q 24.171875 66.40625 20.328125 58.90625 
Q 16.5 51.421875 16.5 36.375 
Q 16.5 21.390625 20.328125 13.890625 
Q 24.171875 6.390625 31.78125 6.390625 
Q 39.453125 6.390625 43.28125 13.890625 
Q 47.125 21.390625 47.125 36.375 
Q 47.125 51.421875 43.28125 58.90625 
Q 39.453125 66.40625 31.78125 66.40625 
z
M 31.78125 74.21875 
Q 44.046875 74.21875 50.515625 64.515625 
Q 56.984375 54.828125 56.984375 36.375 
Q 56.984375 17.96875 50.515625 8.265625 
Q 44.046875 -1.421875 31.78125 -1.421875 
Q 19.53125 -1.421875 13.0625 8.265625 
Q 6.59375 17.96875 6.59375 36.375 
Q 6.59375 54.828125 13.0625 64.515625 
Q 19.53125 74.21875 31.78125 74.21875 
z
" id="DejaVuSans-48"/>
       </defs>
       <use xlink:href="#DejaVuSans-48"/>
      </g>
     </g>
    </g>
    <g id="xtick_2">
     <g id="line2d_7">
      <path clip-path="url(#pf615bf25c1)" d="M 137.910857 298.944 
L 137.910857 3.456 
" style="fill:none;stroke:#b0b0b0;stroke-linecap:square;stroke-width:0.8;"/>
     </g>
     <g id="line2d_8">
      <g>
       <use style="stroke:#000000;stroke-width:0.8;" x="137.910857" xlink:href="#m4ab7dea631" y="298.944"/>
      </g>
     </g>
     <g id="text_2">
      <!-- 2 -->
      <g transform="translate(131.548357 321.140875)scale(0.2 -0.2)">
       <defs>
        <path d="M 19.1875 8.296875 
L 53.609375 8.296875 
L 53.609375 0 
L 7.328125 0 
L 7.328125 8.296875 
Q 12.9375 14.109375 22.625 23.890625 
Q 32.328125 33.6875 34.8125 36.53125 
Q 39.546875 41.84375 41.421875 45.53125 
Q 43.3125 49.21875 43.3125 52.78125 
Q 43.3125 58.59375 39.234375 62.25 
Q 35.15625 65.921875 28.609375 65.921875 
Q 23.96875 65.921875 18.8125 64.3125 
Q 13.671875 62.703125 7.8125 59.421875 
L 7.8125 69.390625 
Q 13.765625 71.78125 18.9375 73 
Q 24.125 74.21875 28.421875 74.21875 
Q 39.75 74.21875 46.484375 68.546875 
Q 53.21875 62.890625 53.21875 53.421875 
Q 53.21875 48.921875 51.53125 44.890625 
Q 49.859375 40.875 45.40625 35.40625 
Q 44.1875 33.984375 37.640625 27.21875 
Q 31.109375 20.453125 19.1875 8.296875 
z
" id="DejaVuSans-50"/>
       </defs>
       <use xlink:href="#DejaVuSans-50"/>
      </g>
     </g>
    </g>
    <g id="xtick_3">
     <g id="line2d_9">
      <path clip-path="url(#pf615bf25c1)" d="M 218.221714 298.944 
L 218.221714 3.456 
" style="fill:none;stroke:#b0b0b0;stroke-linecap:square;stroke-width:0.8;"/>
     </g>
     <g id="line2d_10">
      <g>
       <use style="stroke:#000000;stroke-width:0.8;" x="218.221714" xlink:href="#m4ab7dea631" y="298.944"/>
      </g>
     </g>
     <g id="text_3">
      <!-- 4 -->
      <g transform="translate(211.859214 321.140875)scale(0.2 -0.2)">
       <defs>
        <path d="M 37.796875 64.3125 
L 12.890625 25.390625 
L 37.796875 25.390625 
z
M 35.203125 72.90625 
L 47.609375 72.90625 
L 47.609375 25.390625 
L 58.015625 25.390625 
L 58.015625 17.1875 
L 47.609375 17.1875 
L 47.609375 0 
L 37.796875 0 
L 37.796875 17.1875 
L 4.890625 17.1875 
L 4.890625 26.703125 
z
" id="DejaVuSans-52"/>
       </defs>
       <use xlink:href="#DejaVuSans-52"/>
      </g>
     </g>
    </g>
    <g id="xtick_4">
     <g id="line2d_11">
      <path clip-path="url(#pf615bf25c1)" d="M 298.532571 298.944 
L 298.532571 3.456 
" style="fill:none;stroke:#b0b0b0;stroke-linecap:square;stroke-width:0.8;"/>
     </g>
     <g id="line2d_12">
      <g>
       <use style="stroke:#000000;stroke-width:0.8;" x="298.532571" xlink:href="#m4ab7dea631" y="298.944"/>
      </g>
     </g>
     <g id="text_4">
      <!-- 6 -->
      <g transform="translate(292.170071 321.140875)scale(0.2 -0.2)">
       <defs>
        <path d="M 33.015625 40.375 
Q 26.375 40.375 22.484375 35.828125 
Q 18.609375 31.296875 18.609375 23.390625 
Q 18.609375 15.53125 22.484375 10.953125 
Q 26.375 6.390625 33.015625 6.390625 
Q 39.65625 6.390625 43.53125 10.953125 
Q 47.40625 15.53125 47.40625 23.390625 
Q 47.40625 31.296875 43.53125 35.828125 
Q 39.65625 40.375 33.015625 40.375 
z
M 52.59375 71.296875 
L 52.59375 62.3125 
Q 48.875 64.0625 45.09375 64.984375 
Q 41.3125 65.921875 37.59375 65.921875 
Q 27.828125 65.921875 22.671875 59.328125 
Q 17.53125 52.734375 16.796875 39.40625 
Q 19.671875 43.65625 24.015625 45.921875 
Q 28.375 48.1875 33.59375 48.1875 
Q 44.578125 48.1875 50.953125 41.515625 
Q 57.328125 34.859375 57.328125 23.390625 
Q 57.328125 12.15625 50.6875 5.359375 
Q 44.046875 -1.421875 33.015625 -1.421875 
Q 20.359375 -1.421875 13.671875 8.265625 
Q 6.984375 17.96875 6.984375 36.375 
Q 6.984375 53.65625 15.1875 63.9375 
Q 23.390625 74.21875 37.203125 74.21875 
Q 40.921875 74.21875 44.703125 73.484375 
Q 48.484375 72.75 52.59375 71.296875 
z
" id="DejaVuSans-54"/>
       </defs>
       <use xlink:href="#DejaVuSans-54"/>
      </g>
     </g>
    </g>
    <g id="xtick_5">
     <g id="line2d_13">
      <path clip-path="url(#pf615bf25c1)" d="M 97.755429 298.944 
L 97.755429 3.456 
" style="fill:none;stroke:#b0b0b0;stroke-linecap:square;stroke-width:0.8;"/>
     </g>
     <g id="line2d_14">
      <defs>
       <path d="M 0 0 
L 0 2 
" id="m805c7902ca" style="stroke:#000000;stroke-width:0.6;"/>
      </defs>
      <g>
       <use style="stroke:#000000;stroke-width:0.6;" x="97.755429" xlink:href="#m805c7902ca" y="298.944"/>
      </g>
     </g>
    </g>
    <g id="xtick_6">
     <g id="line2d_15">
      <path clip-path="url(#pf615bf25c1)" d="M 178.066286 298.944 
L 178.066286 3.456 
" style="fill:none;stroke:#b0b0b0;stroke-linecap:square;stroke-width:0.8;"/>
     </g>
     <g id="line2d_16">
      <g>
       <use style="stroke:#000000;stroke-width:0.6;" x="178.066286" xlink:href="#m805c7902ca" y="298.944"/>
      </g>
     </g>
    </g>
    <g id="xtick_7">
     <g id="line2d_17">
      <path clip-path="url(#pf615bf25c1)" d="M 258.377143 298.944 
L 258.377143 3.456 
" style="fill:none;stroke:#b0b0b0;stroke-linecap:square;stroke-width:0.8;"/>
     </g>
     <g id="line2d_18">
      <g>
       <use style="stroke:#000000;stroke-width:0.6;" x="258.377143" xlink:href="#m805c7902ca" y="298.944"/>
      </g>
     </g>
    </g>
    <g id="xtick_8">
     <g id="line2d_19">
      <path clip-path="url(#pf615bf25c1)" d="M 338.688 298.944 
L 338.688 3.456 
" style="fill:none;stroke:#b0b0b0;stroke-linecap:square;stroke-width:0.8;"/>
     </g>
     <g id="line2d_20">
      <g>
       <use style="stroke:#000000;stroke-width:0.6;" x="338.688" xlink:href="#m805c7902ca" y="298.944"/>
      </g>
     </g>
    </g>
    <g id="text_5">
     <!-- log10(# f-evals / dimension) -->
     <g transform="translate(77.764078 342.217594)scale(0.17 -0.17)">
      <defs>
       <path d="M 9.421875 75.984375 
L 18.40625 75.984375 
L 18.40625 0 
L 9.421875 0 
z
" id="DejaVuSans-108"/>
       <path d="M 30.609375 48.390625 
Q 23.390625 48.390625 19.1875 42.75 
Q 14.984375 37.109375 14.984375 27.296875 
Q 14.984375 17.484375 19.15625 11.84375 
Q 23.34375 6.203125 30.609375 6.203125 
Q 37.796875 6.203125 41.984375 11.859375 
Q 46.1875 17.53125 46.1875 27.296875 
Q 46.1875 37.015625 41.984375 42.703125 
Q 37.796875 48.390625 30.609375 48.390625 
z
M 30.609375 56 
Q 42.328125 56 49.015625 48.375 
Q 55.71875 40.765625 55.71875 27.296875 
Q 55.71875 13.875 49.015625 6.21875 
Q 42.328125 -1.421875 30.609375 -1.421875 
Q 18.84375 -1.421875 12.171875 6.21875 
Q 5.515625 13.875 5.515625 27.296875 
Q 5.515625 40.765625 12.171875 48.375 
Q 18.84375 56 30.609375 56 
z
" id="DejaVuSans-111"/>
       <path d="M 45.40625 27.984375 
Q 45.40625 37.75 41.375 43.109375 
Q 37.359375 48.484375 30.078125 48.484375 
Q 22.859375 48.484375 18.828125 43.109375 
Q 14.796875 37.75 14.796875 27.984375 
Q 14.796875 18.265625 18.828125 12.890625 
Q 22.859375 7.515625 30.078125 7.515625 
Q 37.359375 7.515625 41.375 12.890625 
Q 45.40625 18.265625 45.40625 27.984375 
z
M 54.390625 6.78125 
Q 54.390625 -7.171875 48.1875 -13.984375 
Q 42 -20.796875 29.203125 -20.796875 
Q 24.46875 -20.796875 20.265625 -20.09375 
Q 16.0625 -19.390625 12.109375 -17.921875 
L 12.109375 -9.1875 
Q 16.0625 -11.328125 19.921875 -12.34375 
Q 23.78125 -13.375 27.78125 -13.375 
Q 36.625 -13.375 41.015625 -8.765625 
Q 45.40625 -4.15625 45.40625 5.171875 
L 45.40625 9.625 
Q 42.625 4.78125 38.28125 2.390625 
Q 33.9375 0 27.875 0 
Q 17.828125 0 11.671875 7.65625 
Q 5.515625 15.328125 5.515625 27.984375 
Q 5.515625 40.671875 11.671875 48.328125 
Q 17.828125 56 27.875 56 
Q 33.9375 56 38.28125 53.609375 
Q 42.625 51.21875 45.40625 46.390625 
L 45.40625 54.6875 
L 54.390625 54.6875 
z
" id="DejaVuSans-103"/>
       <path d="M 12.40625 8.296875 
L 28.515625 8.296875 
L 28.515625 63.921875 
L 10.984375 60.40625 
L 10.984375 69.390625 
L 28.421875 72.90625 
L 38.28125 72.90625 
L 38.28125 8.296875 
L 54.390625 8.296875 
L 54.390625 0 
L 12.40625 0 
z
" id="DejaVuSans-49"/>
       <path d="M 31 75.875 
Q 24.46875 64.65625 21.28125 53.65625 
Q 18.109375 42.671875 18.109375 31.390625 
Q 18.109375 20.125 21.3125 9.0625 
Q 24.515625 -2 31 -13.1875 
L 23.1875 -13.1875 
Q 15.875 -1.703125 12.234375 9.375 
Q 8.59375 20.453125 8.59375 31.390625 
Q 8.59375 42.28125 12.203125 53.3125 
Q 15.828125 64.359375 23.1875 75.875 
z
" id="DejaVuSans-40"/>
       <path d="M 51.125 44 
L 36.921875 44 
L 32.8125 27.6875 
L 47.125 27.6875 
z
M 43.796875 71.78125 
L 38.71875 51.515625 
L 52.984375 51.515625 
L 58.109375 71.78125 
L 65.921875 71.78125 
L 60.890625 51.515625 
L 76.125 51.515625 
L 76.125 44 
L 58.984375 44 
L 54.984375 27.6875 
L 70.515625 27.6875 
L 70.515625 20.21875 
L 53.078125 20.21875 
L 48 0 
L 40.1875 0 
L 45.21875 20.21875 
L 30.90625 20.21875 
L 25.875 0 
L 18.015625 0 
L 23.09375 20.21875 
L 7.71875 20.21875 
L 7.71875 27.6875 
L 24.90625 27.6875 
L 29 44 
L 13.28125 44 
L 13.28125 51.515625 
L 30.90625 51.515625 
L 35.890625 71.78125 
z
" id="DejaVuSans-35"/>
       <path id="DejaVuSans-32"/>
       <path d="M 37.109375 75.984375 
L 37.109375 68.5 
L 28.515625 68.5 
Q 23.6875 68.5 21.796875 66.546875 
Q 19.921875 64.59375 19.921875 59.515625 
L 19.921875 54.6875 
L 34.71875 54.6875 
L 34.71875 47.703125 
L 19.921875 47.703125 
L 19.921875 0 
L 10.890625 0 
L 10.890625 47.703125 
L 2.296875 47.703125 
L 2.296875 54.6875 
L 10.890625 54.6875 
L 10.890625 58.5 
Q 10.890625 67.625 15.140625 71.796875 
Q 19.390625 75.984375 28.609375 75.984375 
z
" id="DejaVuSans-102"/>
       <path d="M 4.890625 31.390625 
L 31.203125 31.390625 
L 31.203125 23.390625 
L 4.890625 23.390625 
z
" id="DejaVuSans-45"/>
       <path d="M 56.203125 29.59375 
L 56.203125 25.203125 
L 14.890625 25.203125 
Q 15.484375 15.921875 20.484375 11.0625 
Q 25.484375 6.203125 34.421875 6.203125 
Q 39.59375 6.203125 44.453125 7.46875 
Q 49.3125 8.734375 54.109375 11.28125 
L 54.109375 2.78125 
Q 49.265625 0.734375 44.1875 -0.34375 
Q 39.109375 -1.421875 33.890625 -1.421875 
Q 20.796875 -1.421875 13.15625 6.1875 
Q 5.515625 13.8125 5.515625 26.8125 
Q 5.515625 40.234375 12.765625 48.109375 
Q 20.015625 56 32.328125 56 
Q 43.359375 56 49.78125 48.890625 
Q 56.203125 41.796875 56.203125 29.59375 
z
M 47.21875 32.234375 
Q 47.125 39.59375 43.09375 43.984375 
Q 39.0625 48.390625 32.421875 48.390625 
Q 24.90625 48.390625 20.390625 44.140625 
Q 15.875 39.890625 15.1875 32.171875 
z
" id="DejaVuSans-101"/>
       <path d="M 2.984375 54.6875 
L 12.5 54.6875 
L 29.59375 8.796875 
L 46.6875 54.6875 
L 56.203125 54.6875 
L 35.6875 0 
L 23.484375 0 
z
" id="DejaVuSans-118"/>
       <path d="M 34.28125 27.484375 
Q 23.390625 27.484375 19.1875 25 
Q 14.984375 22.515625 14.984375 16.5 
Q 14.984375 11.71875 18.140625 8.90625 
Q 21.296875 6.109375 26.703125 6.109375 
Q 34.1875 6.109375 38.703125 11.40625 
Q 43.21875 16.703125 43.21875 25.484375 
L 43.21875 27.484375 
z
M 52.203125 31.203125 
L 52.203125 0 
L 43.21875 0 
L 43.21875 8.296875 
Q 40.140625 3.328125 35.546875 0.953125 
Q 30.953125 -1.421875 24.3125 -1.421875 
Q 15.921875 -1.421875 10.953125 3.296875 
Q 6 8.015625 6 15.921875 
Q 6 25.140625 12.171875 29.828125 
Q 18.359375 34.515625 30.609375 34.515625 
L 43.21875 34.515625 
L 43.21875 35.40625 
Q 43.21875 41.609375 39.140625 45 
Q 35.0625 48.390625 27.6875 48.390625 
Q 23 48.390625 18.546875 47.265625 
Q 14.109375 46.140625 10.015625 43.890625 
L 10.015625 52.203125 
Q 14.9375 54.109375 19.578125 55.046875 
Q 24.21875 56 28.609375 56 
Q 40.484375 56 46.34375 49.84375 
Q 52.203125 43.703125 52.203125 31.203125 
z
" id="DejaVuSans-97"/>
       <path d="M 44.28125 53.078125 
L 44.28125 44.578125 
Q 40.484375 46.53125 36.375 47.5 
Q 32.28125 48.484375 27.875 48.484375 
Q 21.1875 48.484375 17.84375 46.4375 
Q 14.5 44.390625 14.5 40.28125 
Q 14.5 37.15625 16.890625 35.375 
Q 19.28125 33.59375 26.515625 31.984375 
L 29.59375 31.296875 
Q 39.15625 29.25 43.1875 25.515625 
Q 47.21875 21.78125 47.21875 15.09375 
Q 47.21875 7.46875 41.1875 3.015625 
Q 35.15625 -1.421875 24.609375 -1.421875 
Q 20.21875 -1.421875 15.453125 -0.5625 
Q 10.6875 0.296875 5.421875 2 
L 5.421875 11.28125 
Q 10.40625 8.6875 15.234375 7.390625 
Q 20.0625 6.109375 24.8125 6.109375 
Q 31.15625 6.109375 34.5625 8.28125 
Q 37.984375 10.453125 37.984375 14.40625 
Q 37.984375 18.0625 35.515625 20.015625 
Q 33.0625 21.96875 24.703125 23.78125 
L 21.578125 24.515625 
Q 13.234375 26.265625 9.515625 29.90625 
Q 5.8125 33.546875 5.8125 39.890625 
Q 5.8125 47.609375 11.28125 51.796875 
Q 16.75 56 26.8125 56 
Q 31.78125 56 36.171875 55.265625 
Q 40.578125 54.546875 44.28125 53.078125 
z
" id="DejaVuSans-115"/>
       <path d="M 25.390625 72.90625 
L 33.6875 72.90625 
L 8.296875 -9.28125 
L 0 -9.28125 
z
" id="DejaVuSans-47"/>
       <path d="M 45.40625 46.390625 
L 45.40625 75.984375 
L 54.390625 75.984375 
L 54.390625 0 
L 45.40625 0 
L 45.40625 8.203125 
Q 42.578125 3.328125 38.25 0.953125 
Q 33.9375 -1.421875 27.875 -1.421875 
Q 17.96875 -1.421875 11.734375 6.484375 
Q 5.515625 14.40625 5.515625 27.296875 
Q 5.515625 40.1875 11.734375 48.09375 
Q 17.96875 56 27.875 56 
Q 33.9375 56 38.25 53.625 
Q 42.578125 51.265625 45.40625 46.390625 
z
M 14.796875 27.296875 
Q 14.796875 17.390625 18.875 11.75 
Q 22.953125 6.109375 30.078125 6.109375 
Q 37.203125 6.109375 41.296875 11.75 
Q 45.40625 17.390625 45.40625 27.296875 
Q 45.40625 37.203125 41.296875 42.84375 
Q 37.203125 48.484375 30.078125 48.484375 
Q 22.953125 48.484375 18.875 42.84375 
Q 14.796875 37.203125 14.796875 27.296875 
z
" id="DejaVuSans-100"/>
       <path d="M 9.421875 54.6875 
L 18.40625 54.6875 
L 18.40625 0 
L 9.421875 0 
z
M 9.421875 75.984375 
L 18.40625 75.984375 
L 18.40625 64.59375 
L 9.421875 64.59375 
z
" id="DejaVuSans-105"/>
       <path d="M 52 44.1875 
Q 55.375 50.25 60.0625 53.125 
Q 64.75 56 71.09375 56 
Q 79.640625 56 84.28125 50.015625 
Q 88.921875 44.046875 88.921875 33.015625 
L 88.921875 0 
L 79.890625 0 
L 79.890625 32.71875 
Q 79.890625 40.578125 77.09375 44.375 
Q 74.3125 48.1875 68.609375 48.1875 
Q 61.625 48.1875 57.5625 43.546875 
Q 53.515625 38.921875 53.515625 30.90625 
L 53.515625 0 
L 44.484375 0 
L 44.484375 32.71875 
Q 44.484375 40.625 41.703125 44.40625 
Q 38.921875 48.1875 33.109375 48.1875 
Q 26.21875 48.1875 22.15625 43.53125 
Q 18.109375 38.875 18.109375 30.90625 
L 18.109375 0 
L 9.078125 0 
L 9.078125 54.6875 
L 18.109375 54.6875 
L 18.109375 46.1875 
Q 21.1875 51.21875 25.484375 53.609375 
Q 29.78125 56 35.6875 56 
Q 41.65625 56 45.828125 52.96875 
Q 50 49.953125 52 44.1875 
z
" id="DejaVuSans-109"/>
       <path d="M 54.890625 33.015625 
L 54.890625 0 
L 45.90625 0 
L 45.90625 32.71875 
Q 45.90625 40.484375 42.875 44.328125 
Q 39.84375 48.1875 33.796875 48.1875 
Q 26.515625 48.1875 22.3125 43.546875 
Q 18.109375 38.921875 18.109375 30.90625 
L 18.109375 0 
L 9.078125 0 
L 9.078125 54.6875 
L 18.109375 54.6875 
L 18.109375 46.1875 
Q 21.34375 51.125 25.703125 53.5625 
Q 30.078125 56 35.796875 56 
Q 45.21875 56 50.046875 50.171875 
Q 54.890625 44.34375 54.890625 33.015625 
z
" id="DejaVuSans-110"/>
       <path d="M 8.015625 75.875 
L 15.828125 75.875 
Q 23.140625 64.359375 26.78125 53.3125 
Q 30.421875 42.28125 30.421875 31.390625 
Q 30.421875 20.453125 26.78125 9.375 
Q 23.140625 -1.703125 15.828125 -13.1875 
L 8.015625 -13.1875 
Q 14.5 -2 17.703125 9.0625 
Q 20.90625 20.125 20.90625 31.390625 
Q 20.90625 42.671875 17.703125 53.65625 
Q 14.5 64.65625 8.015625 75.875 
z
" id="DejaVuSans-41"/>
      </defs>
      <use xlink:href="#DejaVuSans-108"/>
      <use x="27.783203" xlink:href="#DejaVuSans-111"/>
      <use x="88.964844" xlink:href="#DejaVuSans-103"/>
      <use x="152.441406" xlink:href="#DejaVuSans-49"/>
      <use x="216.064453" xlink:href="#DejaVuSans-48"/>
      <use x="279.6875" xlink:href="#DejaVuSans-40"/>
      <use x="318.701172" xlink:href="#DejaVuSans-35"/>
      <use x="402.490234" xlink:href="#DejaVuSans-32"/>
      <use x="434.277344" xlink:href="#DejaVuSans-102"/>
      <use x="463.982422" xlink:href="#DejaVuSans-45"/>
      <use x="500.066406" xlink:href="#DejaVuSans-101"/>
      <use x="561.589844" xlink:href="#DejaVuSans-118"/>
      <use x="620.769531" xlink:href="#DejaVuSans-97"/>
      <use x="682.048828" xlink:href="#DejaVuSans-108"/>
      <use x="709.832031" xlink:href="#DejaVuSans-115"/>
      <use x="761.931641" xlink:href="#DejaVuSans-32"/>
      <use x="793.71875" xlink:href="#DejaVuSans-47"/>
      <use x="827.410156" xlink:href="#DejaVuSans-32"/>
      <use x="859.197266" xlink:href="#DejaVuSans-100"/>
      <use x="922.673828" xlink:href="#DejaVuSans-105"/>
      <use x="950.457031" xlink:href="#DejaVuSans-109"/>
      <use x="1047.869141" xlink:href="#DejaVuSans-101"/>
      <use x="1109.392578" xlink:href="#DejaVuSans-110"/>
      <use x="1172.771484" xlink:href="#DejaVuSans-115"/>
      <use x="1224.871094" xlink:href="#DejaVuSans-105"/>
      <use x="1252.654297" xlink:href="#DejaVuSans-111"/>
      <use x="1313.835938" xlink:href="#DejaVuSans-110"/>
      <use x="1377.214844" xlink:href="#DejaVuSans-41"/>
     </g>
    </g>
   </g>
   <g id="matplotlib.axis_2">
    <g id="ytick_1">
     <g id="line2d_21">
      <path clip-path="url(#pf615bf25c1)" d="M 57.6 298.944 
L 338.688 298.944 
" style="fill:none;stroke:#b0b0b0;stroke-linecap:square;stroke-width:0.8;"/>
     </g>
     <g id="line2d_22">
      <defs>
       <path d="M 0 0 
L -3.5 0 
" id="ma86ac481f5" style="stroke:#000000;stroke-width:0.8;"/>
      </defs>
      <g>
       <use style="stroke:#000000;stroke-width:0.8;" x="57.6" xlink:href="#ma86ac481f5" y="298.944"/>
      </g>
     </g>
     <g id="text_6">
      <!-- 0.0 -->
      <g transform="translate(25.155 305.02275)scale(0.16 -0.16)">
       <defs>
        <path d="M 10.6875 12.40625 
L 21 12.40625 
L 21 0 
L 10.6875 0 
z
" id="DejaVuSans-46"/>
       </defs>
       <use xlink:href="#DejaVuSans-48"/>
       <use x="63.623047" xlink:href="#DejaVuSans-46"/>
       <use x="95.410156" xlink:href="#DejaVuSans-48"/>
      </g>
     </g>
    </g>
    <g id="ytick_2">
     <g id="line2d_23">
      <path clip-path="url(#pf615bf25c1)" d="M 57.6 240.431525 
L 338.688 240.431525 
" style="fill:none;stroke:#b0b0b0;stroke-linecap:square;stroke-width:0.8;"/>
     </g>
     <g id="line2d_24">
      <g>
       <use style="stroke:#000000;stroke-width:0.8;" x="57.6" xlink:href="#ma86ac481f5" y="240.431525"/>
      </g>
     </g>
     <g id="text_7">
      <!-- 0.2 -->
      <g transform="translate(25.155 246.510275)scale(0.16 -0.16)">
       <use xlink:href="#DejaVuSans-48"/>
       <use x="63.623047" xlink:href="#DejaVuSans-46"/>
       <use x="95.410156" xlink:href="#DejaVuSans-50"/>
      </g>
     </g>
    </g>
    <g id="ytick_3">
     <g id="line2d_25">
      <path clip-path="url(#pf615bf25c1)" d="M 57.6 181.91905 
L 338.688 181.91905 
" style="fill:none;stroke:#b0b0b0;stroke-linecap:square;stroke-width:0.8;"/>
     </g>
     <g id="line2d_26">
      <g>
       <use style="stroke:#000000;stroke-width:0.8;" x="57.6" xlink:href="#ma86ac481f5" y="181.91905"/>
      </g>
     </g>
     <g id="text_8">
      <!-- 0.4 -->
      <g transform="translate(25.155 187.9978)scale(0.16 -0.16)">
       <use xlink:href="#DejaVuSans-48"/>
       <use x="63.623047" xlink:href="#DejaVuSans-46"/>
       <use x="95.410156" xlink:href="#DejaVuSans-52"/>
      </g>
     </g>
    </g>
    <g id="ytick_4">
     <g id="line2d_27">
      <path clip-path="url(#pf615bf25c1)" d="M 57.6 123.406574 
L 338.688 123.406574 
" style="fill:none;stroke:#b0b0b0;stroke-linecap:square;stroke-width:0.8;"/>
     </g>
     <g id="line2d_28">
      <g>
       <use style="stroke:#000000;stroke-width:0.8;" x="57.6" xlink:href="#ma86ac481f5" y="123.406574"/>
      </g>
     </g>
     <g id="text_9">
      <!-- 0.6 -->
      <g transform="translate(25.155 129.485324)scale(0.16 -0.16)">
       <use xlink:href="#DejaVuSans-48"/>
       <use x="63.623047" xlink:href="#DejaVuSans-46"/>
       <use x="95.410156" xlink:href="#DejaVuSans-54"/>
      </g>
     </g>
    </g>
    <g id="ytick_5">
     <g id="line2d_29">
      <path clip-path="url(#pf615bf25c1)" d="M 57.6 64.894099 
L 338.688 64.894099 
" style="fill:none;stroke:#b0b0b0;stroke-linecap:square;stroke-width:0.8;"/>
     </g>
     <g id="line2d_30">
      <g>
       <use style="stroke:#000000;stroke-width:0.8;" x="57.6" xlink:href="#ma86ac481f5" y="64.894099"/>
      </g>
     </g>
     <g id="text_10">
      <!-- 0.8 -->
      <g transform="translate(25.155 70.972849)scale(0.16 -0.16)">
       <defs>
        <path d="M 31.78125 34.625 
Q 24.75 34.625 20.71875 30.859375 
Q 16.703125 27.09375 16.703125 20.515625 
Q 16.703125 13.921875 20.71875 10.15625 
Q 24.75 6.390625 31.78125 6.390625 
Q 38.8125 6.390625 42.859375 10.171875 
Q 46.921875 13.96875 46.921875 20.515625 
Q 46.921875 27.09375 42.890625 30.859375 
Q 38.875 34.625 31.78125 34.625 
z
M 21.921875 38.8125 
Q 15.578125 40.375 12.03125 44.71875 
Q 8.5 49.078125 8.5 55.328125 
Q 8.5 64.0625 14.71875 69.140625 
Q 20.953125 74.21875 31.78125 74.21875 
Q 42.671875 74.21875 48.875 69.140625 
Q 55.078125 64.0625 55.078125 55.328125 
Q 55.078125 49.078125 51.53125 44.71875 
Q 48 40.375 41.703125 38.8125 
Q 48.828125 37.15625 52.796875 32.3125 
Q 56.78125 27.484375 56.78125 20.515625 
Q 56.78125 9.90625 50.3125 4.234375 
Q 43.84375 -1.421875 31.78125 -1.421875 
Q 19.734375 -1.421875 13.25 4.234375 
Q 6.78125 9.90625 6.78125 20.515625 
Q 6.78125 27.484375 10.78125 32.3125 
Q 14.796875 37.15625 21.921875 38.8125 
z
M 18.3125 54.390625 
Q 18.3125 48.734375 21.84375 45.5625 
Q 25.390625 42.390625 31.78125 42.390625 
Q 38.140625 42.390625 41.71875 45.5625 
Q 45.3125 48.734375 45.3125 54.390625 
Q 45.3125 60.0625 41.71875 63.234375 
Q 38.140625 66.40625 31.78125 66.40625 
Q 25.390625 66.40625 21.84375 63.234375 
Q 18.3125 60.0625 18.3125 54.390625 
z
" id="DejaVuSans-56"/>
       </defs>
       <use xlink:href="#DejaVuSans-48"/>
       <use x="63.623047" xlink:href="#DejaVuSans-46"/>
       <use x="95.410156" xlink:href="#DejaVuSans-56"/>
      </g>
     </g>
    </g>
    <g id="ytick_6">
     <g id="line2d_31">
      <path clip-path="url(#pf615bf25c1)" d="M 57.6 6.381624 
L 338.688 6.381624 
" style="fill:none;stroke:#b0b0b0;stroke-linecap:square;stroke-width:0.8;"/>
     </g>
     <g id="line2d_32">
      <g>
       <use style="stroke:#000000;stroke-width:0.8;" x="57.6" xlink:href="#ma86ac481f5" y="6.381624"/>
      </g>
     </g>
     <g id="text_11">
      <!-- 1.0 -->
      <g transform="translate(25.155 12.460374)scale(0.16 -0.16)">
       <use xlink:href="#DejaVuSans-49"/>
       <use x="63.623047" xlink:href="#DejaVuSans-46"/>
       <use x="95.410156" xlink:href="#DejaVuSans-48"/>
      </g>
     </g>
    </g>
    <g id="text_12">
     <!-- Fraction of function,target pairs -->
     <g transform="translate(17.619531 285.585)rotate(-90)scale(0.17 -0.17)">
      <defs>
       <path d="M 9.8125 72.90625 
L 51.703125 72.90625 
L 51.703125 64.59375 
L 19.671875 64.59375 
L 19.671875 43.109375 
L 48.578125 43.109375 
L 48.578125 34.8125 
L 19.671875 34.8125 
L 19.671875 0 
L 9.8125 0 
z
" id="DejaVuSans-70"/>
       <path d="M 41.109375 46.296875 
Q 39.59375 47.171875 37.8125 47.578125 
Q 36.03125 48 33.890625 48 
Q 26.265625 48 22.1875 43.046875 
Q 18.109375 38.09375 18.109375 28.8125 
L 18.109375 0 
L 9.078125 0 
L 9.078125 54.6875 
L 18.109375 54.6875 
L 18.109375 46.1875 
Q 20.953125 51.171875 25.484375 53.578125 
Q 30.03125 56 36.53125 56 
Q 37.453125 56 38.578125 55.875 
Q 39.703125 55.765625 41.0625 55.515625 
z
" id="DejaVuSans-114"/>
       <path d="M 48.78125 52.59375 
L 48.78125 44.1875 
Q 44.96875 46.296875 41.140625 47.34375 
Q 37.3125 48.390625 33.40625 48.390625 
Q 24.65625 48.390625 19.8125 42.84375 
Q 14.984375 37.3125 14.984375 27.296875 
Q 14.984375 17.28125 19.8125 11.734375 
Q 24.65625 6.203125 33.40625 6.203125 
Q 37.3125 6.203125 41.140625 7.25 
Q 44.96875 8.296875 48.78125 10.40625 
L 48.78125 2.09375 
Q 45.015625 0.34375 40.984375 -0.53125 
Q 36.96875 -1.421875 32.421875 -1.421875 
Q 20.0625 -1.421875 12.78125 6.34375 
Q 5.515625 14.109375 5.515625 27.296875 
Q 5.515625 40.671875 12.859375 48.328125 
Q 20.21875 56 33.015625 56 
Q 37.15625 56 41.109375 55.140625 
Q 45.0625 54.296875 48.78125 52.59375 
z
" id="DejaVuSans-99"/>
       <path d="M 18.3125 70.21875 
L 18.3125 54.6875 
L 36.8125 54.6875 
L 36.8125 47.703125 
L 18.3125 47.703125 
L 18.3125 18.015625 
Q 18.3125 11.328125 20.140625 9.421875 
Q 21.96875 7.515625 27.59375 7.515625 
L 36.8125 7.515625 
L 36.8125 0 
L 27.59375 0 
Q 17.1875 0 13.234375 3.875 
Q 9.28125 7.765625 9.28125 18.015625 
L 9.28125 47.703125 
L 2.6875 47.703125 
L 2.6875 54.6875 
L 9.28125 54.6875 
L 9.28125 70.21875 
z
" id="DejaVuSans-116"/>
       <path d="M 8.5 21.578125 
L 8.5 54.6875 
L 17.484375 54.6875 
L 17.484375 21.921875 
Q 17.484375 14.15625 20.5 10.265625 
Q 23.53125 6.390625 29.59375 6.390625 
Q 36.859375 6.390625 41.078125 11.03125 
Q 45.3125 15.671875 45.3125 23.6875 
L 45.3125 54.6875 
L 54.296875 54.6875 
L 54.296875 0 
L 45.3125 0 
L 45.3125 8.40625 
Q 42.046875 3.421875 37.71875 1 
Q 33.40625 -1.421875 27.6875 -1.421875 
Q 18.265625 -1.421875 13.375 4.4375 
Q 8.5 10.296875 8.5 21.578125 
z
M 31.109375 56 
z
" id="DejaVuSans-117"/>
       <path d="M 11.71875 12.40625 
L 22.015625 12.40625 
L 22.015625 4 
L 14.015625 -11.625 
L 7.71875 -11.625 
L 11.71875 4 
z
" id="DejaVuSans-44"/>
       <path d="M 18.109375 8.203125 
L 18.109375 -20.796875 
L 9.078125 -20.796875 
L 9.078125 54.6875 
L 18.109375 54.6875 
L 18.109375 46.390625 
Q 20.953125 51.265625 25.265625 53.625 
Q 29.59375 56 35.59375 56 
Q 45.5625 56 51.78125 48.09375 
Q 58.015625 40.1875 58.015625 27.296875 
Q 58.015625 14.40625 51.78125 6.484375 
Q 45.5625 -1.421875 35.59375 -1.421875 
Q 29.59375 -1.421875 25.265625 0.953125 
Q 20.953125 3.328125 18.109375 8.203125 
z
M 48.6875 27.296875 
Q 48.6875 37.203125 44.609375 42.84375 
Q 40.53125 48.484375 33.40625 48.484375 
Q 26.265625 48.484375 22.1875 42.84375 
Q 18.109375 37.203125 18.109375 27.296875 
Q 18.109375 17.390625 22.1875 11.75 
Q 26.265625 6.109375 33.40625 6.109375 
Q 40.53125 6.109375 44.609375 11.75 
Q 48.6875 17.390625 48.6875 27.296875 
z
" id="DejaVuSans-112"/>
      </defs>
      <use xlink:href="#DejaVuSans-70"/>
      <use x="50.269531" xlink:href="#DejaVuSans-114"/>
      <use x="91.382812" xlink:href="#DejaVuSans-97"/>
      <use x="152.662109" xlink:href="#DejaVuSans-99"/>
      <use x="207.642578" xlink:href="#DejaVuSans-116"/>
      <use x="246.851562" xlink:href="#DejaVuSans-105"/>
      <use x="274.634766" xlink:href="#DejaVuSans-111"/>
      <use x="335.816406" xlink:href="#DejaVuSans-110"/>
      <use x="399.195312" xlink:href="#DejaVuSans-32"/>
      <use x="430.982422" xlink:href="#DejaVuSans-111"/>
      <use x="492.164062" xlink:href="#DejaVuSans-102"/>
      <use x="527.369141" xlink:href="#DejaVuSans-32"/>
      <use x="559.15625" xlink:href="#DejaVuSans-102"/>
      <use x="594.361328" xlink:href="#DejaVuSans-117"/>
      <use x="657.740234" xlink:href="#DejaVuSans-110"/>
      <use x="721.119141" xlink:href="#DejaVuSans-99"/>
      <use x="776.099609" xlink:href="#DejaVuSans-116"/>
      <use x="815.308594" xlink:href="#DejaVuSans-105"/>
      <use x="843.091797" xlink:href="#DejaVuSans-111"/>
      <use x="904.273438" xlink:href="#DejaVuSans-110"/>
      <use x="967.652344" xlink:href="#DejaVuSans-44"/>
      <use x="999.439453" xlink:href="#DejaVuSans-116"/>
      <use x="1038.648438" xlink:href="#DejaVuSans-97"/>
      <use x="1099.927734" xlink:href="#DejaVuSans-114"/>
      <use x="1139.291016" xlink:href="#DejaVuSans-103"/>
      <use x="1202.767578" xlink:href="#DejaVuSans-101"/>
      <use x="1264.291016" xlink:href="#DejaVuSans-116"/>
      <use x="1303.5" xlink:href="#DejaVuSans-32"/>
      <use x="1335.287109" xlink:href="#DejaVuSans-112"/>
      <use x="1398.763672" xlink:href="#DejaVuSans-97"/>
      <use x="1460.042969" xlink:href="#DejaVuSans-105"/>
      <use x="1487.826172" xlink:href="#DejaVuSans-114"/>
      <use x="1528.939453" xlink:href="#DejaVuSans-115"/>
     </g>
    </g>
   </g>
   <g id="line2d_33">
    <defs>
     <path d="M 0 1.5 
C 0.397805 1.5 0.77937 1.341951 1.06066 1.06066 
C 1.341951 0.77937 1.5 0.397805 1.5 0 
C 1.5 -0.397805 1.341951 -0.77937 1.06066 -1.06066 
C 0.77937 -1.341951 0.397805 -1.5 0 -1.5 
C -0.397805 -1.5 -0.77937 -1.341951 -1.06066 -1.06066 
C -1.341951 -0.77937 -1.5 -0.397805 -1.5 0 
C -1.5 0.397805 -1.341951 0.77937 -1.06066 1.06066 
C -0.77937 1.341951 -0.397805 1.5 0 1.5 
z
" id="m4b2e2c3ff2" style="stroke:#f5deb3;"/>
    </defs>
    <g>
     <use style="fill:#f5deb3;stroke:#f5deb3;" x="298.205726" xlink:href="#m4b2e2c3ff2" y="109.787291"/>
     <use style="fill:#f5deb3;stroke:#f5deb3;" x="298.205726" xlink:href="#m4b2e2c3ff2" y="109.787291"/>
    </g>
   </g>
   <g id="line2d_34">
    <defs>
     <path d="M 0 1.5 
C 0.397805 1.5 0.77937 1.341951 1.06066 1.06066 
C 1.341951 0.77937 1.5 0.397805 1.5 0 
C 1.5 -0.397805 1.341951 -0.77937 1.06066 -1.06066 
C 0.77937 -1.341951 0.397805 -1.5 0 -1.5 
C -0.397805 -1.5 -0.77937 -1.341951 -1.06066 -1.06066 
C -1.341951 -0.77937 -1.5 -0.397805 -1.5 0 
C -1.5 0.397805 -1.341951 0.77937 -1.06066 1.06066 
C -0.77937 1.341951 -0.397805 1.5 0 1.5 
z
" id="m90050b7cf9" style="stroke:#ff00ff;"/>
    </defs>
    <g>
     <use style="fill:#ff00ff;stroke:#ff00ff;" x="257.067059" xlink:href="#m90050b7cf9" y="247.115062"/>
     <use style="fill:#ff00ff;stroke:#ff00ff;" x="257.067059" xlink:href="#m90050b7cf9" y="247.115062"/>
    </g>
   </g>
   <g id="line2d_35">
    <path d="M -1 290.242791 
L 97.088878 290.242791 
L 97.088878 290.116687 
L 97.536064 290.116687 
L 97.536064 289.990582 
L 108.03021 289.990582 
L 108.03021 289.864478 
L 111.30625 289.864478 
L 111.30625 289.612269 
L 113.311233 289.612269 
L 113.311233 289.486165 
L 114.0117 289.486165 
L 114.0117 289.36006 
L 114.334816 289.36006 
L 114.334816 289.233956 
L 114.452366 289.233956 
L 114.452366 288.981747 
L 114.931089 288.981747 
L 114.97987 288.729538 
L 115.157576 288.729538 
L 115.157576 288.603433 
L 115.460322 288.603433 
L 115.476111 288.351224 
L 115.617575 288.351224 
L 115.664476 287.972911 
L 116.081002 287.972911 
L 116.111464 287.720702 
L 116.323218 287.720702 
L 116.323218 287.594597 
L 116.517572 287.594597 
L 116.517572 287.468493 
L 117.245527 287.468493 
L 117.302472 286.964075 
L 117.570448 286.964075 
L 117.570448 286.837971 
L 118.026313 286.837971 
L 118.026313 286.711866 
L 118.457267 286.711866 
L 118.470564 286.459657 
L 118.721303 286.459657 
L 118.825809 286.081344 
L 119.110011 286.081344 
L 119.135619 285.829135 
L 119.62761 285.829135 
L 119.65247 285.576926 
L 120.142369 285.576926 
L 120.166507 285.198612 
L 120.898662 285.198612 
L 120.898662 285.072508 
L 121.071273 285.072508 
L 121.071273 284.946404 
L 121.478699 284.946404 
L 121.478699 284.820299 
L 122.223238 284.820299 
L 122.223238 284.694195 
L 122.35139 284.694195 
L 122.35139 284.56809 
L 123.464256 284.56809 
L 123.464256 284.441986 
L 124.033832 284.441986 
L 124.139788 284.063672 
L 124.349787 284.063672 
L 124.349787 283.937568 
L 124.604105 283.937568 
L 124.604105 283.811463 
L 124.715955 283.811463 
L 124.715955 283.685359 
L 125.21059 283.685359 
L 125.21059 283.559254 
L 126.464878 283.559254 
L 126.464878 283.43315 
L 126.797858 283.43315 
L 126.797858 283.307045 
L 127.245565 283.307045 
L 127.245565 283.180941 
L 127.54831 283.180941 
L 127.54831 283.054836 
L 127.666383 283.054836 
L 127.666383 282.928732 
L 128.70193 282.928732 
L 128.70193 282.802628 
L 130.277159 282.802628 
L 130.277159 282.676523 
L 130.505303 282.676523 
L 130.505303 282.550419 
L 130.644738 282.550419 
L 130.644738 282.424314 
L 131.293837 282.424314 
L 131.293837 282.29821 
L 133.926501 282.29821 
L 133.926501 282.172105 
L 134.518998 282.172105 
L 134.518998 282.046001 
L 135.229845 282.046001 
L 135.240011 281.793792 
L 137.107884 281.793792 
L 137.107884 281.667687 
L 137.997836 281.667687 
L 137.997836 281.541583 
L 138.281828 281.541583 
L 138.281828 281.289374 
L 139.813109 281.289374 
L 139.813109 281.163269 
L 140.015216 281.163269 
L 140.015216 281.037165 
L 146.017229 281.037165 
L 146.017229 280.91106 
L 149.662089 280.91106 
L 149.662089 280.658851 
L 149.801542 280.658851 
L 149.801542 280.532747 
L 150.749772 280.532747 
L 150.758122 280.154434 
L 152.056772 280.154434 
L 152.056772 280.028329 
L 152.430506 280.028329 
L 152.430506 279.902225 
L 152.714506 279.902225 
L 152.803824 279.523911 
L 154.557513 279.523911 
L 154.557513 279.397807 
L 154.955763 279.397807 
L 154.955763 279.271702 
L 155.504823 279.271702 
L 155.504823 279.145598 
L 156.459092 279.145598 
L 156.459092 279.019493 
L 156.909268 279.019493 
L 156.909268 278.893389 
L 157.080036 278.893389 
L 157.080036 278.767284 
L 157.493396 278.767284 
L 157.511826 278.388971 
L 161.780054 278.388971 
L 161.780054 278.262867 
L 161.997228 278.262867 
L 162.102087 277.884553 
L 162.536586 277.884553 
L 162.536586 277.758449 
L 163.119446 277.758449 
L 163.119446 277.632344 
L 163.336898 277.632344 
L 163.336898 277.50624 
L 163.944072 277.50624 
L 163.944072 277.380135 
L 164.277922 277.380135 
L 164.277922 277.127926 
L 165.164364 277.127926 
L 165.164364 277.001822 
L 166.052257 277.001822 
L 166.052257 276.875717 
L 166.306535 276.875717 
L 166.306535 276.749613 
L 166.491242 276.749613 
L 166.491242 276.623508 
L 166.689924 276.623508 
L 166.689924 276.497404 
L 167.156585 276.497404 
L 167.196475 276.245195 
L 168.866967 276.245195 
L 168.866967 275.992986 
L 169.200673 275.992986 
L 169.200673 275.740777 
L 169.729685 275.740777 
L 169.729685 275.488568 
L 170.16305 275.488568 
L 170.16305 275.362464 
L 170.345241 275.362464 
L 170.345241 275.110255 
L 171.764349 275.110255 
L 171.764349 274.98415 
L 173.451559 274.98415 
L 173.451559 274.858046 
L 174.710401 274.858046 
L 174.742082 274.479732 
L 175.155995 274.479732 
L 175.155995 274.353628 
L 175.413723 274.353628 
L 175.413723 274.227523 
L 176.52285 274.227523 
L 176.52285 274.101419 
L 176.763161 274.101419 
L 176.763161 273.975314 
L 176.94729 273.975314 
L 176.94729 273.84921 
L 177.168555 273.84921 
L 177.168555 273.723105 
L 177.490545 273.723105 
L 177.490545 273.597001 
L 177.78633 273.597001 
L 177.78633 273.470897 
L 178.161505 273.470897 
L 178.161505 273.344792 
L 178.569067 273.344792 
L 178.569067 273.218688 
L 178.794647 273.218688 
L 178.794647 273.092583 
L 180.017336 273.092583 
L 180.023182 272.840374 
L 180.642969 272.840374 
L 180.642969 272.588165 
L 180.95163 272.588165 
L 180.95163 272.462061 
L 181.281049 272.462061 
L 181.384802 272.209852 
L 181.710812 272.209852 
L 181.813102 271.705434 
L 181.83138 271.705434 
L 181.939603 271.453225 
L 182.110543 271.453225 
L 182.110543 271.327121 
L 182.938014 271.327121 
L 182.938014 271.074912 
L 183.809106 271.074912 
L 183.809106 270.948807 
L 184.452022 270.948807 
L 184.452022 270.822703 
L 184.73241 270.822703 
L 184.782019 270.444389 
L 185.498599 270.444389 
L 185.498599 270.318285 
L 185.713637 270.318285 
L 185.713637 270.19218 
L 185.947432 270.19218 
L 185.998134 269.813867 
L 186.209048 269.813867 
L 186.209048 269.561658 
L 186.343011 269.561658 
L 186.373634 269.309449 
L 187.188515 269.309449 
L 187.188515 269.183344 
L 187.390701 269.183344 
L 187.390701 269.05724 
L 187.765188 269.05724 
L 187.765188 268.931136 
L 187.976154 268.931136 
L 187.976154 268.678927 
L 188.448131 268.678927 
L 188.512917 268.300613 
L 188.723837 268.300613 
L 188.723837 268.174509 
L 189.89535 268.174509 
L 189.89535 267.9223 
L 190.067078 267.9223 
L 190.120234 267.543986 
L 190.328664 267.543986 
L 190.412847 267.291777 
L 190.856063 267.291777 
L 190.856063 267.165673 
L 191.556264 267.165673 
L 191.601264 266.78736 
L 192.00818 266.78736 
L 192.117015 266.535151 
L 192.263463 266.535151 
L 192.372833 266.156837 
L 193.28945 266.156837 
L 193.28945 266.030733 
L 193.802692 266.030733 
L 193.802692 265.904628 
L 194.492854 265.904628 
L 194.492854 265.778524 
L 194.612617 265.778524 
L 194.612617 265.652419 
L 194.863686 265.652419 
L 194.863686 265.526315 
L 194.990026 265.526315 
L 194.990026 265.40021 
L 195.17898 265.40021 
L 195.26115 265.148001 
L 195.328682 265.148001 
L 195.328682 265.021897 
L 195.678842 265.021897 
L 195.678842 264.895792 
L 196.567801 264.895792 
L 196.567801 264.769688 
L 197.467178 264.769688 
L 197.467178 264.517479 
L 197.716493 264.517479 
L 197.716493 264.26527 
L 198.952842 264.26527 
L 198.952842 264.013061 
L 199.239772 264.013061 
L 199.239772 263.760852 
L 199.831664 263.760852 
L 199.831664 263.508643 
L 199.969288 263.508643 
L 199.969288 263.382539 
L 200.245354 263.382539 
L 200.245354 263.256434 
L 201.300641 263.256434 
L 201.300641 263.13033 
L 201.496945 263.13033 
L 201.496945 263.004225 
L 202.019586 263.004225 
L 202.019586 262.878121 
L 202.441562 262.878121 
L 202.441562 262.752016 
L 202.589102 262.752016 
L 202.589102 262.625912 
L 203.139053 262.625912 
L 203.139053 262.499807 
L 203.256991 262.499807 
L 203.256991 262.373703 
L 203.393533 262.373703 
L 203.393533 262.247598 
L 204.286332 262.247598 
L 204.286332 262.121494 
L 204.779034 262.121494 
L 204.779034 261.99539 
L 205.349004 261.99539 
L 205.349004 261.869285 
L 206.260224 261.869285 
L 206.260224 261.743181 
L 206.675857 261.743181 
L 206.784137 261.112658 
L 206.82215 261.112658 
L 206.82215 260.986554 
L 207.69562 260.986554 
L 207.69562 260.734345 
L 208.362225 260.734345 
L 208.362225 260.482136 
L 208.574561 260.482136 
L 208.574561 260.356031 
L 208.876676 260.356031 
L 208.918201 260.103822 
L 209.141828 260.103822 
L 209.141828 259.851614 
L 209.492852 259.851614 
L 209.492852 259.725509 
L 210.08751 259.725509 
L 210.114528 259.4733 
L 210.587544 259.4733 
L 210.587544 259.347196 
L 210.949841 259.347196 
L 210.949841 259.221091 
L 211.302559 259.221091 
L 211.325948 258.842778 
L 211.906882 258.842778 
L 211.928223 258.590569 
L 212.069441 258.590569 
L 212.069441 258.464464 
L 213.225138 258.464464 
L 213.225138 258.33836 
L 213.860085 258.33836 
L 213.860085 258.086151 
L 214.69183 258.086151 
L 214.69183 257.960046 
L 214.855045 257.960046 
L 214.855045 257.833942 
L 216.178472 257.833942 
L 216.178472 257.707837 
L 216.366079 257.707837 
L 216.366079 257.581733 
L 217.560599 257.581733 
L 217.560599 257.329524 
L 217.752489 257.329524 
L 217.752489 257.20342 
L 220.645219 257.20342 
L 220.645219 257.077315 
L 221.383096 257.077315 
L 221.383096 256.951211 
L 222.54077 256.951211 
L 222.54077 256.699002 
L 222.69693 256.699002 
L 222.69693 256.572897 
L 222.903382 256.572897 
L 222.903382 256.320688 
L 223.169377 256.320688 
L 223.169377 256.068479 
L 223.335615 256.068479 
L 223.335615 255.942375 
L 223.610262 255.942375 
L 223.610262 255.81627 
L 223.760219 255.81627 
L 223.760219 255.690166 
L 225.133428 255.690166 
L 225.133428 255.564061 
L 225.47541 255.564061 
L 225.47541 255.437957 
L 226.069339 255.437957 
L 226.113179 255.185748 
L 226.418349 255.185748 
L 226.418349 254.933539 
L 226.871602 254.933539 
L 226.87853 254.555226 
L 227.045666 254.555226 
L 227.045666 254.429121 
L 227.178482 254.429121 
L 227.178482 254.303017 
L 228.089098 254.303017 
L 228.153107 253.924703 
L 229.390569 253.924703 
L 229.390569 253.798599 
L 230.324651 253.798599 
L 230.324651 253.672494 
L 230.484675 253.672494 
L 230.484675 253.54639 
L 231.314453 253.54639 
L 231.314453 253.420285 
L 231.886619 253.420285 
L 231.886619 253.294181 
L 232.433256 253.294181 
L 232.433256 253.168076 
L 233.680907 253.168076 
L 233.743715 252.789763 
L 234.591401 252.789763 
L 234.591401 252.663659 
L 235.177458 252.663659 
L 235.177458 252.41145 
L 235.348734 252.41145 
L 235.348734 252.159241 
L 235.486055 252.159241 
L 235.486055 252.033136 
L 236.259418 252.033136 
L 236.259418 251.780927 
L 236.888088 251.780927 
L 236.919945 251.528718 
L 237.078246 251.528718 
L 237.078246 251.402614 
L 237.856048 251.402614 
L 237.856048 251.276509 
L 239.118336 251.276509 
L 239.118336 251.150405 
L 239.472312 251.150405 
L 239.472312 251.0243 
L 239.934675 251.0243 
L 240.014517 250.772091 
L 240.231411 250.772091 
L 240.231411 250.645987 
L 242.67981 250.645987 
L 242.67981 250.519883 
L 243.166858 250.519883 
L 243.166858 250.267674 
L 243.336341 250.267674 
L 243.404685 250.015465 
L 243.715922 250.015465 
L 243.715922 249.88936 
L 244.742394 249.88936 
L 244.742394 249.637151 
L 245.698068 249.637151 
L 245.698068 249.384942 
L 246.275546 249.384942 
L 246.275546 249.132733 
L 246.440868 249.132733 
L 246.440868 248.880524 
L 247.026503 248.880524 
L 247.026503 248.75442 
L 247.781773 248.75442 
L 247.781773 248.628315 
L 248.301993 248.628315 
L 248.301993 248.376107 
L 250.842947 248.376107 
L 250.842947 248.123898 
L 251.460717 248.123898 
L 251.460717 247.871689 
L 251.756879 247.871689 
L 251.756879 247.745584 
L 255.824928 247.745584 
L 255.824928 247.493375 
L 256.650751 247.493375 
L 256.728058 247.241166 
L 257.067059 247.241166 
L 257.067059 247.115062 
L 338.688 247.115062 
L 338.688 247.115062 
" style="fill:none;stroke:#ff00ff;stroke-linecap:square;stroke-width:1.5;"/>
   </g>
   <g id="line2d_36">
    <defs>
     <path d="M 0 8.485281 
L 5.091169 0 
L 0 -8.485281 
L -5.091169 0 
z
" id="m92c3abc38e" style="stroke:#ff00ff;stroke-linejoin:miter;stroke-width:1.5;"/>
    </defs>
    <g>
     <use style="fill-opacity:0;stroke:#ff00ff;stroke-linejoin:miter;stroke-width:1.5;" x="131.293837" xlink:href="#m92c3abc38e" y="282.424314"/>
     <use style="fill-opacity:0;stroke:#ff00ff;stroke-linejoin:miter;stroke-width:1.5;" x="191.601264" xlink:href="#m92c3abc38e" y="266.913464"/>
     <use style="fill-opacity:0;stroke:#ff00ff;stroke-linejoin:miter;stroke-width:1.5;" x="257.067059" xlink:href="#m92c3abc38e" y="247.241166"/>
     <use style="fill-opacity:0;stroke:#ff00ff;stroke-linejoin:miter;stroke-width:1.5;" x="257.067059" xlink:href="#m92c3abc38e" y="247.115062"/>
     <use style="fill-opacity:0;stroke:#ff00ff;stroke-linejoin:miter;stroke-width:1.5;" x="338.688" xlink:href="#m92c3abc38e" y="247.115062"/>
    </g>
   </g>
   <g id="line2d_37">
    <path style="fill:none;stroke:#ff00ff;stroke-linecap:square;stroke-width:1.5;"/>
    <g/>
   </g>
   <g id="line2d_38">
    <path clip-path="url(#pf615bf25c1)" d="M 258.377679 247.115062 
" style="fill:none;stroke:#ff00ff;stroke-linecap:square;stroke-width:1.5;"/>
    <defs>
     <path d="M -12 12 
L 12 -12 
M -12 -12 
L 12 12 
" id="mbab8ddbae5" style="stroke:#ff00ff;"/>
    </defs>
    <g clip-path="url(#pf615bf25c1)">
     <use style="fill:#ff00ff;stroke:#ff00ff;" x="258.377679" xlink:href="#mbab8ddbae5" y="247.115062"/>
    </g>
   </g>
   <g id="line2d_39">
    <defs>
     <path d="M 0 1.5 
C 0.397805 1.5 0.77937 1.341951 1.06066 1.06066 
C 1.341951 0.77937 1.5 0.397805 1.5 0 
C 1.5 -0.397805 1.341951 -0.77937 1.06066 -1.06066 
C 0.77937 -1.341951 0.397805 -1.5 0 -1.5 
C -0.397805 -1.5 -0.77937 -1.341951 -1.06066 -1.06066 
C -1.341951 -0.77937 -1.5 -0.397805 -1.5 0 
C -1.5 0.397805 -1.341951 0.77937 -1.06066 1.06066 
C -0.77937 1.341951 -0.397805 1.5 0 1.5 
z
" id="m4f617a4672" style="stroke:#ff7500;"/>
    </defs>
    <g>
     <use style="fill:#ff7500;stroke:#ff7500;" x="249.28687" xlink:href="#m4f617a4672" y="239.044376"/>
     <use style="fill:#ff7500;stroke:#ff7500;" x="249.28687" xlink:href="#m4f617a4672" y="239.044376"/>
    </g>
   </g>
   <g id="line2d_40">
    <path d="M 153.8519 298.944 
L 153.8519 298.817896 
L 154.567581 298.817896 
L 154.567581 298.691791 
L 154.8141 298.691791 
L 154.8141 298.565687 
L 155.256658 298.565687 
L 155.256658 298.439582 
L 155.587293 298.439582 
L 155.587293 298.313478 
L 155.89002 298.313478 
L 155.89002 298.187373 
L 156.803344 298.187373 
L 156.80777 297.935164 
L 157.362413 297.935164 
L 157.362413 297.80906 
L 157.518909 297.80906 
L 157.518909 297.682955 
L 158.472459 297.682955 
L 158.472459 297.556851 
L 159.117457 297.556851 
L 159.181951 297.304642 
L 159.601735 297.304642 
L 159.601735 297.178537 
L 160.050894 297.178537 
L 160.050894 297.052433 
L 160.245789 297.052433 
L 160.245789 296.926328 
L 160.734309 296.926328 
L 160.734309 296.800224 
L 161.427077 296.800224 
L 161.451963 296.548015 
L 161.640838 296.548015 
L 161.717822 296.295806 
L 161.783382 296.295806 
L 161.783382 296.043597 
L 162.489786 296.043597 
L 162.489786 295.917493 
L 162.676236 295.917493 
L 162.676236 295.791388 
L 163.174832 295.791388 
L 163.174832 295.665284 
L 163.635649 295.665284 
L 163.672511 295.413075 
L 163.938192 295.413075 
L 163.972464 295.160866 
L 164.05347 295.160866 
L 164.05347 294.908657 
L 164.224008 294.908657 
L 164.224008 294.782552 
L 164.380476 294.782552 
L 164.380476 294.656448 
L 164.590401 294.656448 
L 164.590401 294.530343 
L 164.814616 294.530343 
L 164.814616 294.404239 
L 165.0277 294.404239 
L 165.108544 294.15203 
L 165.21363 294.15203 
L 165.313559 293.899821 
L 165.511714 293.899821 
L 165.593024 293.395403 
L 165.679281 293.395403 
L 165.679281 293.269299 
L 165.952992 293.269299 
L 165.952992 293.01709 
L 166.291982 293.01709 
L 166.386786 292.512672 
L 166.48362 292.512672 
L 166.573178 292.134358 
L 166.678201 292.134358 
L 166.725047 291.88215 
L 167.027338 291.88215 
L 167.082263 291.629941 
L 167.15414 291.629941 
L 167.228158 291.377732 
L 167.431506 291.377732 
L 167.530702 291.125523 
L 167.544257 291.125523 
L 167.544257 290.999418 
L 167.698999 290.999418 
L 167.779397 290.495 
L 167.821027 290.495 
L 167.897742 289.990582 
L 167.951554 289.990582 
L 167.951554 289.864478 
L 168.072606 289.864478 
L 168.171308 289.486165 
L 168.221217 289.486165 
L 168.247266 289.233956 
L 168.38453 289.233956 
L 168.38453 289.107851 
L 168.54708 289.107851 
L 168.601179 288.855642 
L 168.693211 288.855642 
L 168.693211 288.729538 
L 168.837387 288.729538 
L 168.837387 288.603433 
L 169.032423 288.603433 
L 169.032423 288.351224 
L 169.212267 288.351224 
L 169.272286 288.099015 
L 169.324905 288.099015 
L 169.415353 287.720702 
L 169.523845 287.720702 
L 169.567905 287.342389 
L 169.740933 287.342389 
L 169.834847 286.711866 
L 169.97963 286.711866 
L 170.086745 286.333553 
L 170.110841 286.333553 
L 170.131469 286.081344 
L 170.341167 286.081344 
L 170.449465 285.576926 
L 170.551729 285.576926 
L 170.579211 285.324717 
L 170.748506 285.324717 
L 170.748506 285.198612 
L 170.90566 285.198612 
L 170.995484 284.694195 
L 171.052938 284.694195 
L 171.108904 284.441986 
L 171.165339 284.441986 
L 171.165339 284.315881 
L 171.30017 284.315881 
L 171.393105 284.063672 
L 171.533804 284.063672 
L 171.533804 283.937568 
L 171.687839 283.937568 
L 171.769354 283.559254 
L 171.821824 283.559254 
L 171.9052 282.928732 
L 171.973346 282.928732 
L 172.014107 282.676523 
L 172.127242 282.676523 
L 172.172535 282.424314 
L 172.240256 282.424314 
L 172.325902 282.046001 
L 172.50794 282.046001 
L 172.610774 281.667687 
L 172.669095 281.667687 
L 172.669095 281.541583 
L 172.799904 281.541583 
L 172.799904 281.415478 
L 172.91803 281.415478 
L 173.026631 280.280538 
L 173.09634 280.280538 
L 173.176162 279.650016 
L 173.26366 279.650016 
L 173.302663 279.397807 
L 173.445878 279.397807 
L 173.482207 278.893389 
L 173.564801 278.893389 
L 173.569316 278.64118 
L 173.692447 278.64118 
L 173.793561 277.884553 
L 173.819721 277.884553 
L 173.930606 277.254031 
L 173.943864 277.254031 
L 173.943864 276.875717 
L 174.094526 276.875717 
L 174.193342 276.623508 
L 174.259633 276.623508 
L 174.34727 276.245195 
L 174.390924 276.245195 
L 174.450033 275.992986 
L 174.523372 275.992986 
L 174.554327 275.614673 
L 174.654291 275.614673 
L 174.654291 275.488568 
L 174.874517 275.488568 
L 174.963814 274.731941 
L 174.987238 274.731941 
L 175.002836 274.479732 
L 175.148265 274.479732 
L 175.254626 273.975314 
L 175.276639 273.975314 
L 175.298114 273.723105 
L 175.496267 273.723105 
L 175.60003 272.71427 
L 175.651181 272.71427 
L 175.651181 272.588165 
L 176.004603 272.588165 
L 176.107833 271.831538 
L 176.123923 271.831538 
L 176.123923 271.705434 
L 176.439293 271.705434 
L 176.484702 271.074912 
L 176.628749 271.074912 
L 176.709049 270.696598 
L 176.836765 270.696598 
L 176.907731 269.687762 
L 176.983976 269.687762 
L 177.086197 268.931136 
L 177.112465 268.931136 
L 177.112465 268.805031 
L 177.29843 268.805031 
L 177.404264 268.048404 
L 177.504509 268.048404 
L 177.577298 267.670091 
L 177.726417 267.670091 
L 177.726417 267.543986 
L 177.852218 267.543986 
L 177.852218 267.417882 
L 177.994638 267.417882 
L 178.099389 266.78736 
L 178.117656 266.78736 
L 178.117656 266.535151 
L 178.320348 266.535151 
L 178.320348 266.282942 
L 178.476478 266.282942 
L 178.565254 265.40021 
L 178.759487 265.40021 
L 178.848922 265.021897 
L 178.875579 265.021897 
L 178.967321 264.643583 
L 179.080397 264.643583 
L 179.080397 264.517479 
L 179.192336 264.517479 
L 179.29625 264.26527 
L 179.306404 264.26527 
L 179.3421 263.886957 
L 179.552355 263.886957 
L 179.552355 263.760852 
L 179.663702 263.760852 
L 179.707804 263.382539 
L 179.810673 263.382539 
L 179.831174 262.878121 
L 179.945067 262.878121 
L 179.945067 262.625912 
L 180.3712 262.625912 
L 180.44363 262.247598 
L 180.54869 262.247598 
L 180.54869 261.99539 
L 180.714656 261.99539 
L 180.714656 261.743181 
L 180.954216 261.743181 
L 180.954216 261.490972 
L 181.391288 261.490972 
L 181.470016 261.112658 
L 181.596172 261.112658 
L 181.663699 260.356031 
L 181.796565 260.356031 
L 181.864374 259.977718 
L 182.044034 259.977718 
L 182.044034 259.851614 
L 182.326671 259.851614 
L 182.326671 259.725509 
L 182.603792 259.725509 
L 182.603792 259.599405 
L 182.744719 259.599405 
L 182.823888 258.968882 
L 182.94955 258.968882 
L 182.94955 258.842778 
L 183.230646 258.842778 
L 183.244906 258.464464 
L 183.440775 258.464464 
L 183.440775 258.086151 
L 183.671813 258.086151 
L 183.757591 257.581733 
L 183.983254 257.581733 
L 184.086976 256.951211 
L 184.157525 256.951211 
L 184.214311 256.572897 
L 184.447185 256.572897 
L 184.447185 256.446793 
L 184.649214 256.446793 
L 184.715743 255.81627 
L 184.767774 255.81627 
L 184.768962 255.564061 
L 184.980521 255.564061 
L 184.980521 255.311853 
L 185.105596 255.311853 
L 185.155898 254.933539 
L 185.44785 254.933539 
L 185.513113 254.429121 
L 185.641781 254.429121 
L 185.645451 254.176912 
L 185.906319 254.176912 
L 185.940494 253.798599 
L 186.114493 253.798599 
L 186.116142 253.420285 
L 186.250545 253.420285 
L 186.295751 253.041972 
L 186.370113 253.041972 
L 186.466528 252.789763 
L 186.558395 252.789763 
L 186.558395 252.41145 
L 186.723182 252.41145 
L 186.723182 252.285345 
L 186.883008 252.285345 
L 186.883008 252.159241 
L 187.052584 252.159241 
L 187.148158 251.907032 
L 187.231873 251.907032 
L 187.319548 251.654823 
L 187.350553 251.654823 
L 187.41852 251.276509 
L 188.038531 251.276509 
L 188.130579 251.0243 
L 188.158465 251.0243 
L 188.158465 250.898196 
L 188.862656 250.898196 
L 188.929197 250.645987 
L 189.258609 250.645987 
L 189.258609 250.393778 
L 190.501541 250.393778 
L 190.600414 250.141569 
L 190.797124 250.141569 
L 190.797124 250.015465 
L 190.963984 250.015465 
L 190.963984 249.88936 
L 191.574358 249.88936 
L 191.658551 249.511047 
L 192.169723 249.511047 
L 192.169723 249.384942 
L 193.303468 249.384942 
L 193.303468 249.258838 
L 193.466481 249.258838 
L 193.466481 249.132733 
L 193.793848 249.132733 
L 193.793848 249.006629 
L 194.177082 249.006629 
L 194.177082 248.880524 
L 194.957285 248.880524 
L 194.957285 248.75442 
L 195.478717 248.75442 
L 195.478717 248.628315 
L 195.786968 248.628315 
L 195.786968 248.502211 
L 195.905561 248.502211 
L 195.985322 248.250002 
L 196.300767 248.250002 
L 196.337964 247.871689 
L 196.416233 247.871689 
L 196.499152 247.493375 
L 196.537895 247.493375 
L 196.640689 246.988957 
L 196.659014 246.988957 
L 196.741387 246.358435 
L 196.819506 246.358435 
L 196.819506 246.23233 
L 197.168816 246.23233 
L 197.168816 245.980122 
L 197.375495 245.980122 
L 197.375495 245.854017 
L 197.507692 245.854017 
L 197.507692 245.727913 
L 197.929525 245.727913 
L 197.929525 245.601808 
L 199.495666 245.601808 
L 199.495666 245.475704 
L 199.954008 245.475704 
L 199.954008 245.349599 
L 200.261357 245.349599 
L 200.261357 245.223495 
L 200.384372 245.223495 
L 200.384372 245.09739 
L 200.580176 245.09739 
L 200.580176 244.971286 
L 200.879606 244.971286 
L 200.879606 244.845181 
L 202.897399 244.845181 
L 202.897399 244.719077 
L 203.592278 244.719077 
L 203.592278 244.592972 
L 204.346718 244.592972 
L 204.346718 244.466868 
L 206.447239 244.466868 
L 206.447239 244.340763 
L 207.307286 244.340763 
L 207.357757 244.088554 
L 208.622028 244.088554 
L 208.622028 243.836346 
L 208.953026 243.836346 
L 209.006355 243.331928 
L 209.208624 243.331928 
L 209.208624 243.079719 
L 209.717371 243.079719 
L 209.717371 242.953614 
L 210.052303 242.953614 
L 210.112584 242.701405 
L 210.166224 242.701405 
L 210.203964 242.449196 
L 210.277618 242.449196 
L 210.38072 241.944778 
L 210.409061 241.944778 
L 210.48865 241.692569 
L 210.539928 241.692569 
L 210.539928 241.566465 
L 210.656908 241.566465 
L 210.656908 241.440361 
L 210.854316 241.440361 
L 210.854316 241.188152 
L 211.094449 241.188152 
L 211.094449 240.935943 
L 214.237413 240.935943 
L 214.237413 240.683734 
L 215.059605 240.683734 
L 215.059605 240.557629 
L 215.173693 240.557629 
L 215.253474 240.30542 
L 215.341483 240.30542 
L 215.435802 240.053211 
L 219.692363 240.053211 
L 219.692363 239.927107 
L 224.259282 239.927107 
L 224.259282 239.801002 
L 235.688997 239.801002 
L 235.688997 239.674898 
L 235.956485 239.674898 
L 235.956485 239.548793 
L 244.56937 239.548793 
L 244.56937 239.422689 
L 248.947081 239.422689 
L 248.947081 239.296584 
L 249.210156 239.296584 
L 249.28687 239.044376 
L 338.688 239.044376 
L 338.688 239.044376 
" style="fill:none;stroke:#ff7500;stroke-linecap:square;stroke-width:1.5;"/>
   </g>
   <g id="line2d_41">
    <defs>
     <path d="M 0 -6 
L -1.347084 -1.854102 
L -5.706339 -1.854102 
L -2.179628 0.708204 
L -3.526712 4.854102 
L -0 2.291796 
L 3.526712 4.854102 
L 2.179628 0.708204 
L 5.706339 -1.854102 
L 1.347084 -1.854102 
z
" id="m2e11d2e3c7" style="stroke:#ff7500;stroke-linejoin:bevel;stroke-width:1.5;"/>
    </defs>
    <g>
     <use style="fill-opacity:0;stroke:#ff7500;stroke-linejoin:bevel;stroke-width:1.5;" x="204.346718" xlink:href="#m2e11d2e3c7" y="244.466868"/>
     <use style="fill-opacity:0;stroke:#ff7500;stroke-linejoin:bevel;stroke-width:1.5;" x="249.28687" xlink:href="#m2e11d2e3c7" y="239.17048"/>
     <use style="fill-opacity:0;stroke:#ff7500;stroke-linejoin:bevel;stroke-width:1.5;" x="249.28687" xlink:href="#m2e11d2e3c7" y="239.044376"/>
     <use style="fill-opacity:0;stroke:#ff7500;stroke-linejoin:bevel;stroke-width:1.5;" x="338.688" xlink:href="#m2e11d2e3c7" y="239.044376"/>
    </g>
   </g>
   <g id="line2d_42">
    <path style="fill:none;stroke:#ff7500;stroke-linecap:square;stroke-width:1.5;"/>
    <g/>
   </g>
   <g id="line2d_43">
    <path clip-path="url(#pf615bf25c1)" d="M 258.377147 239.044376 
" style="fill:none;stroke:#ff7500;stroke-linecap:square;stroke-width:1.5;"/>
    <defs>
     <path d="M -12 12 
L 12 -12 
M -12 -12 
L 12 12 
" id="mb2c654f49f" style="stroke:#ff7500;"/>
    </defs>
    <g clip-path="url(#pf615bf25c1)">
     <use style="fill:#ff7500;stroke:#ff7500;" x="258.377147" xlink:href="#mb2c654f49f" y="239.044376"/>
    </g>
   </g>
   <g id="line2d_44">
    <path d="M 338.688 247.115062 
L 369.60768 293.092752 
" style="fill:none;stroke:#ff00ff;stroke-linecap:square;stroke-width:1.5;"/>
    <g>
     <use style="fill-opacity:0;stroke:#ff00ff;stroke-linejoin:miter;stroke-width:1.5;" x="338.688" xlink:href="#m92c3abc38e" y="247.115062"/>
     <use style="fill-opacity:0;stroke:#ff00ff;stroke-linejoin:miter;stroke-width:1.5;" x="369.60768" xlink:href="#m92c3abc38e" y="293.092752"/>
    </g>
   </g>
   <g id="line2d_45">
    <path d="M 338.688 239.044376 
L 369.60768 152.662812 
" style="fill:none;stroke:#ff7500;stroke-linecap:square;stroke-width:1.5;"/>
    <g>
     <use style="fill-opacity:0;stroke:#ff7500;stroke-linejoin:bevel;stroke-width:1.5;" x="338.688" xlink:href="#m2e11d2e3c7" y="239.044376"/>
     <use style="fill-opacity:0;stroke:#ff7500;stroke-linejoin:bevel;stroke-width:1.5;" x="369.60768" xlink:href="#m2e11d2e3c7" y="152.662812"/>
    </g>
   </g>
   <g id="line2d_46">
    <path d="M 338.688 298.944 
L 338.688 6.381624 
" style="fill:none;stroke:#000000;stroke-linecap:square;stroke-width:1.5;"/>
   </g>
   <g id="patch_3">
    <path d="M 57.6 298.944 
L 57.6 3.456 
" style="fill:none;stroke:#000000;stroke-linecap:square;stroke-linejoin:miter;stroke-width:0.8;"/>
   </g>
   <g id="patch_4">
    <path d="M 338.688 298.944 
L 338.688 3.456 
" style="fill:none;stroke:#000000;stroke-linecap:square;stroke-linejoin:miter;stroke-width:0.8;"/>
   </g>
   <g id="patch_5">
    <path d="M 57.6 298.944 
L 338.688 298.944 
" style="fill:none;stroke:#000000;stroke-linecap:square;stroke-linejoin:miter;stroke-width:0.8;"/>
   </g>
   <g id="patch_6">
    <path d="M 57.6 3.456 
L 338.688 3.456 
" style="fill:none;stroke:#000000;stroke-linecap:square;stroke-linejoin:miter;stroke-width:0.8;"/>
   </g>
   <g id="text_13">
    <!-- NSGA-II-M -->
    <g transform="translate(375.22944 297.78369)scale(0.17 -0.17)">
     <defs>
      <path d="M 9.8125 72.90625 
L 23.09375 72.90625 
L 55.421875 11.921875 
L 55.421875 72.90625 
L 64.984375 72.90625 
L 64.984375 0 
L 51.703125 0 
L 19.390625 60.984375 
L 19.390625 0 
L 9.8125 0 
z
" id="DejaVuSans-78"/>
      <path d="M 53.515625 70.515625 
L 53.515625 60.890625 
Q 47.90625 63.578125 42.921875 64.890625 
Q 37.9375 66.21875 33.296875 66.21875 
Q 25.25 66.21875 20.875 63.09375 
Q 16.5 59.96875 16.5 54.203125 
Q 16.5 49.359375 19.40625 46.890625 
Q 22.3125 44.4375 30.421875 42.921875 
L 36.375 41.703125 
Q 47.40625 39.59375 52.65625 34.296875 
Q 57.90625 29 57.90625 20.125 
Q 57.90625 9.515625 50.796875 4.046875 
Q 43.703125 -1.421875 29.984375 -1.421875 
Q 24.8125 -1.421875 18.96875 -0.25 
Q 13.140625 0.921875 6.890625 3.21875 
L 6.890625 13.375 
Q 12.890625 10.015625 18.65625 8.296875 
Q 24.421875 6.59375 29.984375 6.59375 
Q 38.421875 6.59375 43.015625 9.90625 
Q 47.609375 13.234375 47.609375 19.390625 
Q 47.609375 24.75 44.3125 27.78125 
Q 41.015625 30.8125 33.5 32.328125 
L 27.484375 33.5 
Q 16.453125 35.6875 11.515625 40.375 
Q 6.59375 45.0625 6.59375 53.421875 
Q 6.59375 63.09375 13.40625 68.65625 
Q 20.21875 74.21875 32.171875 74.21875 
Q 37.3125 74.21875 42.625 73.28125 
Q 47.953125 72.359375 53.515625 70.515625 
z
" id="DejaVuSans-83"/>
      <path d="M 59.515625 10.40625 
L 59.515625 29.984375 
L 43.40625 29.984375 
L 43.40625 38.09375 
L 69.28125 38.09375 
L 69.28125 6.78125 
Q 63.578125 2.734375 56.6875 0.65625 
Q 49.8125 -1.421875 42 -1.421875 
Q 24.90625 -1.421875 15.25 8.5625 
Q 5.609375 18.5625 5.609375 36.375 
Q 5.609375 54.25 15.25 64.234375 
Q 24.90625 74.21875 42 74.21875 
Q 49.125 74.21875 55.546875 72.453125 
Q 61.96875 70.703125 67.390625 67.28125 
L 67.390625 56.78125 
Q 61.921875 61.421875 55.765625 63.765625 
Q 49.609375 66.109375 42.828125 66.109375 
Q 29.4375 66.109375 22.71875 58.640625 
Q 16.015625 51.171875 16.015625 36.375 
Q 16.015625 21.625 22.71875 14.15625 
Q 29.4375 6.6875 42.828125 6.6875 
Q 48.046875 6.6875 52.140625 7.59375 
Q 56.25 8.5 59.515625 10.40625 
z
" id="DejaVuSans-71"/>
      <path d="M 34.1875 63.1875 
L 20.796875 26.90625 
L 47.609375 26.90625 
z
M 28.609375 72.90625 
L 39.796875 72.90625 
L 67.578125 0 
L 57.328125 0 
L 50.6875 18.703125 
L 17.828125 18.703125 
L 11.1875 0 
L 0.78125 0 
z
" id="DejaVuSans-65"/>
      <path d="M 9.8125 72.90625 
L 19.671875 72.90625 
L 19.671875 0 
L 9.8125 0 
z
" id="DejaVuSans-73"/>
      <path d="M 9.8125 72.90625 
L 24.515625 72.90625 
L 43.109375 23.296875 
L 61.8125 72.90625 
L 76.515625 72.90625 
L 76.515625 0 
L 66.890625 0 
L 66.890625 64.015625 
L 48.09375 14.015625 
L 38.1875 14.015625 
L 19.390625 64.015625 
L 19.390625 0 
L 9.8125 0 
z
" id="DejaVuSans-77"/>
     </defs>
     <use xlink:href="#DejaVuSans-78"/>
     <use x="74.804688" xlink:href="#DejaVuSans-83"/>
     <use x="138.28125" xlink:href="#DejaVuSans-71"/>
     <use x="215.771484" xlink:href="#DejaVuSans-65"/>
     <use x="281.929688" xlink:href="#DejaVuSans-45"/>
     <use x="318.013672" xlink:href="#DejaVuSans-73"/>
     <use x="347.505859" xlink:href="#DejaVuSans-73"/>
     <use x="376.998047" xlink:href="#DejaVuSans-45"/>
     <use x="413.082031" xlink:href="#DejaVuSans-77"/>
    </g>
   </g>
   <g id="text_14">
    <!-- SMS-EMOA- -->
    <g transform="translate(375.22944 157.353749)scale(0.17 -0.17)">
     <defs>
      <path d="M 9.8125 72.90625 
L 55.90625 72.90625 
L 55.90625 64.59375 
L 19.671875 64.59375 
L 19.671875 43.015625 
L 54.390625 43.015625 
L 54.390625 34.71875 
L 19.671875 34.71875 
L 19.671875 8.296875 
L 56.78125 8.296875 
L 56.78125 0 
L 9.8125 0 
z
" id="DejaVuSans-69"/>
      <path d="M 39.40625 66.21875 
Q 28.65625 66.21875 22.328125 58.203125 
Q 16.015625 50.203125 16.015625 36.375 
Q 16.015625 22.609375 22.328125 14.59375 
Q 28.65625 6.59375 39.40625 6.59375 
Q 50.140625 6.59375 56.421875 14.59375 
Q 62.703125 22.609375 62.703125 36.375 
Q 62.703125 50.203125 56.421875 58.203125 
Q 50.140625 66.21875 39.40625 66.21875 
z
M 39.40625 74.21875 
Q 54.734375 74.21875 63.90625 63.9375 
Q 73.09375 53.65625 73.09375 36.375 
Q 73.09375 19.140625 63.90625 8.859375 
Q 54.734375 -1.421875 39.40625 -1.421875 
Q 24.03125 -1.421875 14.8125 8.828125 
Q 5.609375 19.09375 5.609375 36.375 
Q 5.609375 53.65625 14.8125 63.9375 
Q 24.03125 74.21875 39.40625 74.21875 
z
" id="DejaVuSans-79"/>
     </defs>
     <use xlink:href="#DejaVuSans-83"/>
     <use x="63.476562" xlink:href="#DejaVuSans-77"/>
     <use x="149.755859" xlink:href="#DejaVuSans-83"/>
     <use x="213.232422" xlink:href="#DejaVuSans-45"/>
     <use x="249.316406" xlink:href="#DejaVuSans-69"/>
     <use x="312.5" xlink:href="#DejaVuSans-77"/>
     <use x="398.779297" xlink:href="#DejaVuSans-79"/>
     <use x="475.740234" xlink:href="#DejaVuSans-65"/>
     <use x="541.898438" xlink:href="#DejaVuSans-45"/>
    </g>
   </g>
   <g id="text_15">
    <!-- best 2016 -->
    <g transform="translate(375.22944 16.923809)scale(0.17 -0.17)">
     <defs>
      <path d="M 48.6875 27.296875 
Q 48.6875 37.203125 44.609375 42.84375 
Q 40.53125 48.484375 33.40625 48.484375 
Q 26.265625 48.484375 22.1875 42.84375 
Q 18.109375 37.203125 18.109375 27.296875 
Q 18.109375 17.390625 22.1875 11.75 
Q 26.265625 6.109375 33.40625 6.109375 
Q 40.53125 6.109375 44.609375 11.75 
Q 48.6875 17.390625 48.6875 27.296875 
z
M 18.109375 46.390625 
Q 20.953125 51.265625 25.265625 53.625 
Q 29.59375 56 35.59375 56 
Q 45.5625 56 51.78125 48.09375 
Q 58.015625 40.1875 58.015625 27.296875 
Q 58.015625 14.40625 51.78125 6.484375 
Q 45.5625 -1.421875 35.59375 -1.421875 
Q 29.59375 -1.421875 25.265625 0.953125 
Q 20.953125 3.328125 18.109375 8.203125 
L 18.109375 0 
L 9.078125 0 
L 9.078125 75.984375 
L 18.109375 75.984375 
z
" id="DejaVuSans-98"/>
     </defs>
     <use xlink:href="#DejaVuSans-98"/>
     <use x="63.476562" xlink:href="#DejaVuSans-101"/>
     <use x="125" xlink:href="#DejaVuSans-115"/>
     <use x="177.099609" xlink:href="#DejaVuSans-116"/>
     <use x="216.308594" xlink:href="#DejaVuSans-32"/>
     <use x="248.095703" xlink:href="#DejaVuSans-50"/>
     <use x="311.71875" xlink:href="#DejaVuSans-48"/>
     <use x="375.341797" xlink:href="#DejaVuSans-49"/>
     <use x="438.964844" xlink:href="#DejaVuSans-54"/>
    </g>
   </g>
   <g id="text_16">
    <!-- bbob-biobj f26, f27, f33, f34, 40-D -->
    <g transform="translate(60.41088 14.161286)scale(0.102 -0.102)">
     <defs>
      <path d="M 9.421875 54.6875 
L 18.40625 54.6875 
L 18.40625 -0.984375 
Q 18.40625 -11.421875 14.421875 -16.109375 
Q 10.453125 -20.796875 1.609375 -20.796875 
L -1.8125 -20.796875 
L -1.8125 -13.1875 
L 0.59375 -13.1875 
Q 5.71875 -13.1875 7.5625 -10.8125 
Q 9.421875 -8.453125 9.421875 -0.984375 
z
M 9.421875 75.984375 
L 18.40625 75.984375 
L 18.40625 64.59375 
L 9.421875 64.59375 
z
" id="DejaVuSans-106"/>
      <path d="M 8.203125 72.90625 
L 55.078125 72.90625 
L 55.078125 68.703125 
L 28.609375 0 
L 18.3125 0 
L 43.21875 64.59375 
L 8.203125 64.59375 
z
" id="DejaVuSans-55"/>
      <path d="M 40.578125 39.3125 
Q 47.65625 37.796875 51.625 33 
Q 55.609375 28.21875 55.609375 21.1875 
Q 55.609375 10.40625 48.1875 4.484375 
Q 40.765625 -1.421875 27.09375 -1.421875 
Q 22.515625 -1.421875 17.65625 -0.515625 
Q 12.796875 0.390625 7.625 2.203125 
L 7.625 11.71875 
Q 11.71875 9.328125 16.59375 8.109375 
Q 21.484375 6.890625 26.8125 6.890625 
Q 36.078125 6.890625 40.9375 10.546875 
Q 45.796875 14.203125 45.796875 21.1875 
Q 45.796875 27.640625 41.28125 31.265625 
Q 36.765625 34.90625 28.71875 34.90625 
L 20.21875 34.90625 
L 20.21875 43.015625 
L 29.109375 43.015625 
Q 36.375 43.015625 40.234375 45.921875 
Q 44.09375 48.828125 44.09375 54.296875 
Q 44.09375 59.90625 40.109375 62.90625 
Q 36.140625 65.921875 28.71875 65.921875 
Q 24.65625 65.921875 20.015625 65.03125 
Q 15.375 64.15625 9.8125 62.3125 
L 9.8125 71.09375 
Q 15.4375 72.65625 20.34375 73.4375 
Q 25.25 74.21875 29.59375 74.21875 
Q 40.828125 74.21875 47.359375 69.109375 
Q 53.90625 64.015625 53.90625 55.328125 
Q 53.90625 49.265625 50.4375 45.09375 
Q 46.96875 40.921875 40.578125 39.3125 
z
" id="DejaVuSans-51"/>
      <path d="M 19.671875 64.796875 
L 19.671875 8.109375 
L 31.59375 8.109375 
Q 46.6875 8.109375 53.6875 14.9375 
Q 60.6875 21.78125 60.6875 36.53125 
Q 60.6875 51.171875 53.6875 57.984375 
Q 46.6875 64.796875 31.59375 64.796875 
z
M 9.8125 72.90625 
L 30.078125 72.90625 
Q 51.265625 72.90625 61.171875 64.09375 
Q 71.09375 55.28125 71.09375 36.53125 
Q 71.09375 17.671875 61.125 8.828125 
Q 51.171875 0 30.078125 0 
L 9.8125 0 
z
" id="DejaVuSans-68"/>
     </defs>
     <use xlink:href="#DejaVuSans-98"/>
     <use x="63.476562" xlink:href="#DejaVuSans-98"/>
     <use x="126.953125" xlink:href="#DejaVuSans-111"/>
     <use x="188.134766" xlink:href="#DejaVuSans-98"/>
     <use x="251.611328" xlink:href="#DejaVuSans-45"/>
     <use x="287.695312" xlink:href="#DejaVuSans-98"/>
     <use x="351.171875" xlink:href="#DejaVuSans-105"/>
     <use x="378.955078" xlink:href="#DejaVuSans-111"/>
     <use x="440.136719" xlink:href="#DejaVuSans-98"/>
     <use x="503.613281" xlink:href="#DejaVuSans-106"/>
     <use x="531.396484" xlink:href="#DejaVuSans-32"/>
     <use x="563.183594" xlink:href="#DejaVuSans-102"/>
     <use x="598.388672" xlink:href="#DejaVuSans-50"/>
     <use x="662.011719" xlink:href="#DejaVuSans-54"/>
     <use x="725.634766" xlink:href="#DejaVuSans-44"/>
     <use x="757.421875" xlink:href="#DejaVuSans-32"/>
     <use x="789.208984" xlink:href="#DejaVuSans-102"/>
     <use x="824.414062" xlink:href="#DejaVuSans-50"/>
     <use x="888.037109" xlink:href="#DejaVuSans-55"/>
     <use x="951.660156" xlink:href="#DejaVuSans-44"/>
     <use x="983.447266" xlink:href="#DejaVuSans-32"/>
     <use x="1015.234375" xlink:href="#DejaVuSans-102"/>
     <use x="1050.439453" xlink:href="#DejaVuSans-51"/>
     <use x="1114.0625" xlink:href="#DejaVuSans-51"/>
     <use x="1177.685547" xlink:href="#DejaVuSans-44"/>
     <use x="1209.472656" xlink:href="#DejaVuSans-32"/>
     <use x="1241.259766" xlink:href="#DejaVuSans-102"/>
     <use x="1276.464844" xlink:href="#DejaVuSans-51"/>
     <use x="1340.087891" xlink:href="#DejaVuSans-52"/>
     <use x="1403.710938" xlink:href="#DejaVuSans-44"/>
     <use x="1435.498047" xlink:href="#DejaVuSans-32"/>
     <use x="1467.285156" xlink:href="#DejaVuSans-52"/>
     <use x="1530.908203" xlink:href="#DejaVuSans-48"/>
     <use x="1594.53125" xlink:href="#DejaVuSans-45"/>
     <use x="1630.615234" xlink:href="#DejaVuSans-68"/>
    </g>
    <!-- 58 targets: 1..-1.0e-4 -->
    <g transform="translate(60.41088 25.583055)scale(0.102 -0.102)">
     <defs>
      <path d="M 10.796875 72.90625 
L 49.515625 72.90625 
L 49.515625 64.59375 
L 19.828125 64.59375 
L 19.828125 46.734375 
Q 21.96875 47.46875 24.109375 47.828125 
Q 26.265625 48.1875 28.421875 48.1875 
Q 40.625 48.1875 47.75 41.5 
Q 54.890625 34.8125 54.890625 23.390625 
Q 54.890625 11.625 47.5625 5.09375 
Q 40.234375 -1.421875 26.90625 -1.421875 
Q 22.3125 -1.421875 17.546875 -0.640625 
Q 12.796875 0.140625 7.71875 1.703125 
L 7.71875 11.625 
Q 12.109375 9.234375 16.796875 8.0625 
Q 21.484375 6.890625 26.703125 6.890625 
Q 35.15625 6.890625 40.078125 11.328125 
Q 45.015625 15.765625 45.015625 23.390625 
Q 45.015625 31 40.078125 35.4375 
Q 35.15625 39.890625 26.703125 39.890625 
Q 22.75 39.890625 18.8125 39.015625 
Q 14.890625 38.140625 10.796875 36.28125 
z
" id="DejaVuSans-53"/>
      <path d="M 11.71875 12.40625 
L 22.015625 12.40625 
L 22.015625 0 
L 11.71875 0 
z
M 11.71875 51.703125 
L 22.015625 51.703125 
L 22.015625 39.3125 
L 11.71875 39.3125 
z
" id="DejaVuSans-58"/>
     </defs>
     <use xlink:href="#DejaVuSans-53"/>
     <use x="63.623047" xlink:href="#DejaVuSans-56"/>
     <use x="127.246094" xlink:href="#DejaVuSans-32"/>
     <use x="159.033203" xlink:href="#DejaVuSans-116"/>
     <use x="198.242188" xlink:href="#DejaVuSans-97"/>
     <use x="259.521484" xlink:href="#DejaVuSans-114"/>
     <use x="298.884766" xlink:href="#DejaVuSans-103"/>
     <use x="362.361328" xlink:href="#DejaVuSans-101"/>
     <use x="423.884766" xlink:href="#DejaVuSans-116"/>
     <use x="463.09375" xlink:href="#DejaVuSans-115"/>
     <use x="515.193359" xlink:href="#DejaVuSans-58"/>
     <use x="548.884766" xlink:href="#DejaVuSans-32"/>
     <use x="580.671875" xlink:href="#DejaVuSans-49"/>
     <use x="644.294922" xlink:href="#DejaVuSans-46"/>
     <use x="676.082031" xlink:href="#DejaVuSans-46"/>
     <use x="707.869141" xlink:href="#DejaVuSans-45"/>
     <use x="743.953125" xlink:href="#DejaVuSans-49"/>
     <use x="807.576172" xlink:href="#DejaVuSans-46"/>
     <use x="839.363281" xlink:href="#DejaVuSans-48"/>
     <use x="902.986328" xlink:href="#DejaVuSans-101"/>
     <use x="964.509766" xlink:href="#DejaVuSans-45"/>
     <use x="1000.59375" xlink:href="#DejaVuSans-52"/>
    </g>
    <!-- 10 instances -->
    <g transform="translate(60.41088 37.004824)scale(0.102 -0.102)">
     <use xlink:href="#DejaVuSans-49"/>
     <use x="63.623047" xlink:href="#DejaVuSans-48"/>
     <use x="127.246094" xlink:href="#DejaVuSans-32"/>
     <use x="159.033203" xlink:href="#DejaVuSans-105"/>
     <use x="186.816406" xlink:href="#DejaVuSans-110"/>
     <use x="250.195312" xlink:href="#DejaVuSans-115"/>
     <use x="302.294922" xlink:href="#DejaVuSans-116"/>
     <use x="341.503906" xlink:href="#DejaVuSans-97"/>
     <use x="402.783203" xlink:href="#DejaVuSans-110"/>
     <use x="466.162109" xlink:href="#DejaVuSans-99"/>
     <use x="521.142578" xlink:href="#DejaVuSans-101"/>
     <use x="582.666016" xlink:href="#DejaVuSans-115"/>
    </g>
   </g>
   <g id="text_17">
    <!-- v2.4.19, hv-hash=ff0e71e8cd978373 -->
    <g style="fill:#808080;" transform="translate(104.697125 293.909432)scale(0.1 -0.1)">
     <defs>
      <path d="M 10.984375 1.515625 
L 10.984375 10.5 
Q 14.703125 8.734375 18.5 7.8125 
Q 22.3125 6.890625 25.984375 6.890625 
Q 35.75 6.890625 40.890625 13.453125 
Q 46.046875 20.015625 46.78125 33.40625 
Q 43.953125 29.203125 39.59375 26.953125 
Q 35.25 24.703125 29.984375 24.703125 
Q 19.046875 24.703125 12.671875 31.3125 
Q 6.296875 37.9375 6.296875 49.421875 
Q 6.296875 60.640625 12.9375 67.421875 
Q 19.578125 74.21875 30.609375 74.21875 
Q 43.265625 74.21875 49.921875 64.515625 
Q 56.59375 54.828125 56.59375 36.375 
Q 56.59375 19.140625 48.40625 8.859375 
Q 40.234375 -1.421875 26.421875 -1.421875 
Q 22.703125 -1.421875 18.890625 -0.6875 
Q 15.09375 0.046875 10.984375 1.515625 
z
M 30.609375 32.421875 
Q 37.25 32.421875 41.125 36.953125 
Q 45.015625 41.5 45.015625 49.421875 
Q 45.015625 57.28125 41.125 61.84375 
Q 37.25 66.40625 30.609375 66.40625 
Q 23.96875 66.40625 20.09375 61.84375 
Q 16.21875 57.28125 16.21875 49.421875 
Q 16.21875 41.5 20.09375 36.953125 
Q 23.96875 32.421875 30.609375 32.421875 
z
" id="DejaVuSans-57"/>
      <path d="M 54.890625 33.015625 
L 54.890625 0 
L 45.90625 0 
L 45.90625 32.71875 
Q 45.90625 40.484375 42.875 44.328125 
Q 39.84375 48.1875 33.796875 48.1875 
Q 26.515625 48.1875 22.3125 43.546875 
Q 18.109375 38.921875 18.109375 30.90625 
L 18.109375 0 
L 9.078125 0 
L 9.078125 75.984375 
L 18.109375 75.984375 
L 18.109375 46.1875 
Q 21.34375 51.125 25.703125 53.5625 
Q 30.078125 56 35.796875 56 
Q 45.21875 56 50.046875 50.171875 
Q 54.890625 44.34375 54.890625 33.015625 
z
" id="DejaVuSans-104"/>
      <path d="M 10.59375 45.40625 
L 73.1875 45.40625 
L 73.1875 37.203125 
L 10.59375 37.203125 
z
M 10.59375 25.484375 
L 73.1875 25.484375 
L 73.1875 17.1875 
L 10.59375 17.1875 
z
" id="DejaVuSans-61"/>
     </defs>
     <use xlink:href="#DejaVuSans-118"/>
     <use x="59.179688" xlink:href="#DejaVuSans-50"/>
     <use x="122.802734" xlink:href="#DejaVuSans-46"/>
     <use x="154.589844" xlink:href="#DejaVuSans-52"/>
     <use x="218.212891" xlink:href="#DejaVuSans-46"/>
     <use x="250" xlink:href="#DejaVuSans-49"/>
     <use x="313.623047" xlink:href="#DejaVuSans-57"/>
     <use x="377.246094" xlink:href="#DejaVuSans-44"/>
     <use x="409.033203" xlink:href="#DejaVuSans-32"/>
     <use x="440.820312" xlink:href="#DejaVuSans-104"/>
     <use x="504.199219" xlink:href="#DejaVuSans-118"/>
     <use x="560.753906" xlink:href="#DejaVuSans-45"/>
     <use x="596.837891" xlink:href="#DejaVuSans-104"/>
     <use x="660.216797" xlink:href="#DejaVuSans-97"/>
     <use x="721.496094" xlink:href="#DejaVuSans-115"/>
     <use x="773.595703" xlink:href="#DejaVuSans-104"/>
     <use x="836.974609" xlink:href="#DejaVuSans-61"/>
     <use x="920.763672" xlink:href="#DejaVuSans-102"/>
     <use x="955.96875" xlink:href="#DejaVuSans-102"/>
     <use x="991.173828" xlink:href="#DejaVuSans-48"/>
     <use x="1054.796875" xlink:href="#DejaVuSans-101"/>
     <use x="1116.320312" xlink:href="#DejaVuSans-55"/>
     <use x="1179.943359" xlink:href="#DejaVuSans-49"/>
     <use x="1243.566406" xlink:href="#DejaVuSans-101"/>
     <use x="1305.089844" xlink:href="#DejaVuSans-56"/>
     <use x="1368.712891" xlink:href="#DejaVuSans-99"/>
     <use x="1423.693359" xlink:href="#DejaVuSans-100"/>
     <use x="1487.169922" xlink:href="#DejaVuSans-57"/>
     <use x="1550.792969" xlink:href="#DejaVuSans-55"/>
     <use x="1614.416016" xlink:href="#DejaVuSans-56"/>
     <use x="1678.039062" xlink:href="#DejaVuSans-51"/>
     <use x="1741.662109" xlink:href="#DejaVuSans-55"/>
     <use x="1805.285156" xlink:href="#DejaVuSans-51"/>
    </g>
   </g>
  </g>
 </g>
 <defs>
  <clipPath id="pf615bf25c1">
   <rect height="295.488" width="281.088" x="57.6" y="3.456"/>
  </clipPath>
 </defs>
</svg>
