<?xml version="1.0" encoding="utf-8" standalone="no"?>
<!DOCTYPE svg PUBLIC "-//W3C//DTD SVG 1.1//EN"
  "http://www.w3.org/Graphics/SVG/1.1/DTD/svg11.dtd">
<!-- Created with matplotlib (https://matplotlib.org/) -->
<svg height="345.6pt" version="1.1" viewBox="0 0 460.8 345.6" width="460.8pt" xmlns="http://www.w3.org/2000/svg" xmlns:xlink="http://www.w3.org/1999/xlink">
 <metadata>
  <rdf:RDF xmlns:cc="http://creativecommons.org/ns#" xmlns:dc="http://purl.org/dc/elements/1.1/" xmlns:rdf="http://www.w3.org/1999/02/22-rdf-syntax-ns#">
   <cc:Work>
    <dc:type rdf:resource="http://purl.org/dc/dcmitype/StillImage"/>
    <dc:date>2021-04-26T15:03:35.715111</dc:date>
    <dc:format>image/svg+xml</dc:format>
    <dc:creator>
     <cc:Agent>
      <dc:title>Matplotlib v3.3.2, https://matplotlib.org/</dc:title>
     </cc:Agent>
    </dc:creator>
   </cc:Work>
  </rdf:RDF>
 </metadata>
 <defs>
  <style type="text/css">*{stroke-linecap:butt;stroke-linejoin:round;}</style>
 </defs>
 <g id="figure_1">
  <g id="patch_1">
   <path d="M 0 345.6 
L 460.8 345.6 
L 460.8 0 
L 0 0 
z
" style="fill:#ffffff;"/>
  </g>
  <g id="axes_1">
   <g id="patch_2">
    <path d="M 57.6 298.944 
L 338.688 298.944 
L 338.688 3.456 
L 57.6 3.456 
z
" style="fill:#ffffff;"/>
   </g>
   <g id="line2d_1">
    <path d="M 5.356583 298.944 
L 5.356583 296.421911 
L 29.53256 296.421911 
L 29.53256 295.160866 
L 36.60358 295.160866 
L 36.60358 293.899821 
L 45.512012 293.899821 
L 45.512012 291.377732 
L 66.853775 291.377732 
L 66.853775 288.855642 
L 72.125336 288.855642 
L 72.125336 286.333553 
L 76.759008 286.333553 
L 76.759008 283.811463 
L 79.196356 283.811463 
L 79.196356 281.289374 
L 94.505975 281.289374 
L 94.505975 280.028329 
L 111.584648 280.028329 
L 111.584648 277.50624 
L 129.161557 277.50624 
L 129.161557 274.98415 
L 131.615802 274.98415 
L 131.615802 272.462061 
L 150.335638 272.462061 
L 150.335638 268.678927 
L 153.243677 268.678927 
L 153.243677 267.417882 
L 158.813727 267.417882 
L 158.813727 266.156837 
L 160.499521 266.156837 
L 160.499521 262.373703 
L 161.571372 262.373703 
L 161.571372 261.112658 
L 166.864006 261.112658 
L 166.864006 257.329524 
L 174.656411 257.329524 
L 174.656411 254.807435 
L 175.178647 254.807435 
L 175.178647 251.0243 
L 181.94449 251.0243 
L 181.94449 248.502211 
L 186.394199 248.502211 
L 186.394199 245.980122 
L 187.263548 245.980122 
L 187.263548 243.458032 
L 189.431465 243.458032 
L 189.431465 242.196987 
L 197.051198 242.196987 
L 197.051198 240.935943 
L 198.269956 240.935943 
L 198.269956 238.413853 
L 199.200627 238.413853 
L 199.200627 237.152808 
L 206.459054 237.152808 
L 206.459054 235.891764 
L 207.601048 235.891764 
L 207.601048 233.369674 
L 208.42947 233.369674 
L 208.42947 230.847585 
L 210.440014 230.847585 
L 210.440014 227.064451 
L 213.012203 227.064451 
L 213.012203 223.281316 
L 222.233788 223.281316 
L 222.233788 219.498182 
L 224.436296 219.498182 
L 224.436296 216.976093 
L 225.165136 216.976093 
L 225.165136 214.454003 
L 228.014264 214.454003 
L 228.014264 211.931914 
L 232.434028 211.931914 
L 232.434028 209.409825 
L 236.040224 209.409825 
L 236.040224 205.62669 
L 239.467839 205.62669 
L 239.467839 203.104601 
L 244.940097 203.104601 
L 244.940097 200.582511 
L 246.445112 200.582511 
L 246.445112 198.060422 
L 252.811924 198.060422 
L 252.811924 195.538333 
L 252.976542 195.538333 
L 252.976542 193.016243 
L 256.782217 193.016243 
L 256.782217 190.494154 
L 261.2126 190.494154 
L 261.2126 187.972064 
L 261.679814 187.972064 
L 261.679814 185.449975 
L 264.407036 185.449975 
L 264.407036 184.18893 
L 271.603517 184.18893 
L 271.603517 181.666841 
L 271.98006 181.666841 
L 271.98006 180.405796 
L 276.968271 180.405796 
L 276.968271 179.144751 
L 279.867155 179.144751 
L 279.867155 175.361617 
L 281.355812 175.361617 
L 281.355812 171.578483 
L 285.810089 171.578483 
L 285.810089 170.317438 
L 286.805656 170.317438 
L 286.805656 166.534304 
L 288.210593 166.534304 
L 288.210593 165.273259 
L 293.135592 165.273259 
L 293.135592 161.490125 
L 294.298658 161.490125 
L 294.298658 160.22908 
L 297.572108 160.22908 
L 297.572108 156.445946 
L 299.686111 156.445946 
L 299.747344 153.923857 
L 303.443579 153.923857 
L 303.443579 150.140722 
L 304.619055 150.140722 
L 304.619055 146.357588 
L 307.151675 146.357588 
L 307.151675 143.835499 
L 308.110425 143.835499 
L 308.110425 141.313409 
L 309.611075 141.313409 
L 309.611075 137.530275 
L 318.941153 137.530275 
L 318.941153 136.26923 
L 321.100084 136.26923 
L 321.100084 135.008186 
L 327.565111 135.008186 
L 327.568005 128.702962 
L 328.72718 128.702962 
L 328.72718 124.919828 
L 338.688 124.919828 
L 338.688 124.919828 
" style="fill:none;stroke:#f5deb3;stroke-linecap:square;stroke-width:4;"/>
   </g>
   <g id="line2d_2">
    <defs>
     <path d="M 0 7.778175 
L 7.778175 0 
L 0 -7.778175 
L -7.778175 0 
z
" id="m94e88130e7" style="stroke:#f5deb3;stroke-linejoin:miter;stroke-width:1.5;"/>
    </defs>
    <g>
     <use style="fill:#f5deb3;stroke:#f5deb3;stroke-linejoin:miter;stroke-width:1.5;" x="153.243677" xlink:href="#m94e88130e7" y="268.678927"/>
     <use style="fill:#f5deb3;stroke:#f5deb3;stroke-linejoin:miter;stroke-width:1.5;" x="207.601048" xlink:href="#m94e88130e7" y="233.369674"/>
     <use style="fill:#f5deb3;stroke:#f5deb3;stroke-linejoin:miter;stroke-width:1.5;" x="281.355812" xlink:href="#m94e88130e7" y="175.361617"/>
     <use style="fill:#f5deb3;stroke:#f5deb3;stroke-linejoin:miter;stroke-width:1.5;" x="328.72718" xlink:href="#m94e88130e7" y="128.702962"/>
     <use style="fill:#f5deb3;stroke:#f5deb3;stroke-linejoin:miter;stroke-width:1.5;" x="328.72718" xlink:href="#m94e88130e7" y="124.919828"/>
     <use style="fill:#f5deb3;stroke:#f5deb3;stroke-linejoin:miter;stroke-width:1.5;" x="338.688" xlink:href="#m94e88130e7" y="124.919828"/>
    </g>
   </g>
   <g id="line2d_3">
    <path style="fill:none;stroke:#f5deb3;stroke-linecap:square;stroke-width:4;"/>
    <g/>
   </g>
   <g id="line2d_4">
    <path d="M 338.688 124.919828 
L 369.60768 12.232871 
" style="fill:none;stroke:#f5deb3;stroke-linecap:square;stroke-width:4;"/>
    <g>
     <use style="fill:#f5deb3;stroke:#f5deb3;stroke-linejoin:miter;stroke-width:1.5;" x="338.688" xlink:href="#m94e88130e7" y="124.919828"/>
     <use style="fill:#f5deb3;stroke:#f5deb3;stroke-linejoin:miter;stroke-width:1.5;" x="369.60768" xlink:href="#m94e88130e7" y="12.232871"/>
    </g>
   </g>
   <g id="matplotlib.axis_1">
    <g id="xtick_1">
     <g id="line2d_5">
      <path clip-path="url(#pd3f22936b4)" d="M 57.6 298.944 
L 57.6 3.456 
" style="fill:none;stroke:#b0b0b0;stroke-linecap:square;stroke-width:0.8;"/>
     </g>
     <g id="line2d_6">
      <defs>
       <path d="M 0 0 
L 0 3.5 
" id="m59c73fb3ba" style="stroke:#000000;stroke-width:0.8;"/>
      </defs>
      <g>
       <use style="stroke:#000000;stroke-width:0.8;" x="57.6" xlink:href="#m59c73fb3ba" y="298.944"/>
      </g>
     </g>
     <g id="text_1">
      <!-- 0 -->
      <g transform="translate(51.2375 321.140875)scale(0.2 -0.2)">
       <defs>
        <path d="M 31.78125 66.40625 
Q 24.171875 66.40625 20.328125 58.90625 
Q 16.5 51.421875 16.5 36.375 
Q 16.5 21.390625 20.328125 13.890625 
Q 24.171875 6.390625 31.78125 6.390625 
Q 39.453125 6.390625 43.28125 13.890625 
Q 47.125 21.390625 47.125 36.375 
Q 47.125 51.421875 43.28125 58.90625 
Q 39.453125 66.40625 31.78125 66.40625 
z
M 31.78125 74.21875 
Q 44.046875 74.21875 50.515625 64.515625 
Q 56.984375 54.828125 56.984375 36.375 
Q 56.984375 17.96875 50.515625 8.265625 
Q 44.046875 -1.421875 31.78125 -1.421875 
Q 19.53125 -1.421875 13.0625 8.265625 
Q 6.59375 17.96875 6.59375 36.375 
Q 6.59375 54.828125 13.0625 64.515625 
Q 19.53125 74.21875 31.78125 74.21875 
z
" id="DejaVuSans-48"/>
       </defs>
       <use xlink:href="#DejaVuSans-48"/>
      </g>
     </g>
    </g>
    <g id="xtick_2">
     <g id="line2d_7">
      <path clip-path="url(#pd3f22936b4)" d="M 137.910857 298.944 
L 137.910857 3.456 
" style="fill:none;stroke:#b0b0b0;stroke-linecap:square;stroke-width:0.8;"/>
     </g>
     <g id="line2d_8">
      <g>
       <use style="stroke:#000000;stroke-width:0.8;" x="137.910857" xlink:href="#m59c73fb3ba" y="298.944"/>
      </g>
     </g>
     <g id="text_2">
      <!-- 2 -->
      <g transform="translate(131.548357 321.140875)scale(0.2 -0.2)">
       <defs>
        <path d="M 19.1875 8.296875 
L 53.609375 8.296875 
L 53.609375 0 
L 7.328125 0 
L 7.328125 8.296875 
Q 12.9375 14.109375 22.625 23.890625 
Q 32.328125 33.6875 34.8125 36.53125 
Q 39.546875 41.84375 41.421875 45.53125 
Q 43.3125 49.21875 43.3125 52.78125 
Q 43.3125 58.59375 39.234375 62.25 
Q 35.15625 65.921875 28.609375 65.921875 
Q 23.96875 65.921875 18.8125 64.3125 
Q 13.671875 62.703125 7.8125 59.421875 
L 7.8125 69.390625 
Q 13.765625 71.78125 18.9375 73 
Q 24.125 74.21875 28.421875 74.21875 
Q 39.75 74.21875 46.484375 68.546875 
Q 53.21875 62.890625 53.21875 53.421875 
Q 53.21875 48.921875 51.53125 44.890625 
Q 49.859375 40.875 45.40625 35.40625 
Q 44.1875 33.984375 37.640625 27.21875 
Q 31.109375 20.453125 19.1875 8.296875 
z
" id="DejaVuSans-50"/>
       </defs>
       <use xlink:href="#DejaVuSans-50"/>
      </g>
     </g>
    </g>
    <g id="xtick_3">
     <g id="line2d_9">
      <path clip-path="url(#pd3f22936b4)" d="M 218.221714 298.944 
L 218.221714 3.456 
" style="fill:none;stroke:#b0b0b0;stroke-linecap:square;stroke-width:0.8;"/>
     </g>
     <g id="line2d_10">
      <g>
       <use style="stroke:#000000;stroke-width:0.8;" x="218.221714" xlink:href="#m59c73fb3ba" y="298.944"/>
      </g>
     </g>
     <g id="text_3">
      <!-- 4 -->
      <g transform="translate(211.859214 321.140875)scale(0.2 -0.2)">
       <defs>
        <path d="M 37.796875 64.3125 
L 12.890625 25.390625 
L 37.796875 25.390625 
z
M 35.203125 72.90625 
L 47.609375 72.90625 
L 47.609375 25.390625 
L 58.015625 25.390625 
L 58.015625 17.1875 
L 47.609375 17.1875 
L 47.609375 0 
L 37.796875 0 
L 37.796875 17.1875 
L 4.890625 17.1875 
L 4.890625 26.703125 
z
" id="DejaVuSans-52"/>
       </defs>
       <use xlink:href="#DejaVuSans-52"/>
      </g>
     </g>
    </g>
    <g id="xtick_4">
     <g id="line2d_11">
      <path clip-path="url(#pd3f22936b4)" d="M 298.532571 298.944 
L 298.532571 3.456 
" style="fill:none;stroke:#b0b0b0;stroke-linecap:square;stroke-width:0.8;"/>
     </g>
     <g id="line2d_12">
      <g>
       <use style="stroke:#000000;stroke-width:0.8;" x="298.532571" xlink:href="#m59c73fb3ba" y="298.944"/>
      </g>
     </g>
     <g id="text_4">
      <!-- 6 -->
      <g transform="translate(292.170071 321.140875)scale(0.2 -0.2)">
       <defs>
        <path d="M 33.015625 40.375 
Q 26.375 40.375 22.484375 35.828125 
Q 18.609375 31.296875 18.609375 23.390625 
Q 18.609375 15.53125 22.484375 10.953125 
Q 26.375 6.390625 33.015625 6.390625 
Q 39.65625 6.390625 43.53125 10.953125 
Q 47.40625 15.53125 47.40625 23.390625 
Q 47.40625 31.296875 43.53125 35.828125 
Q 39.65625 40.375 33.015625 40.375 
z
M 52.59375 71.296875 
L 52.59375 62.3125 
Q 48.875 64.0625 45.09375 64.984375 
Q 41.3125 65.921875 37.59375 65.921875 
Q 27.828125 65.921875 22.671875 59.328125 
Q 17.53125 52.734375 16.796875 39.40625 
Q 19.671875 43.65625 24.015625 45.921875 
Q 28.375 48.1875 33.59375 48.1875 
Q 44.578125 48.1875 50.953125 41.515625 
Q 57.328125 34.859375 57.328125 23.390625 
Q 57.328125 12.15625 50.6875 5.359375 
Q 44.046875 -1.421875 33.015625 -1.421875 
Q 20.359375 -1.421875 13.671875 8.265625 
Q 6.984375 17.96875 6.984375 36.375 
Q 6.984375 53.65625 15.1875 63.9375 
Q 23.390625 74.21875 37.203125 74.21875 
Q 40.921875 74.21875 44.703125 73.484375 
Q 48.484375 72.75 52.59375 71.296875 
z
" id="DejaVuSans-54"/>
       </defs>
       <use xlink:href="#DejaVuSans-54"/>
      </g>
     </g>
    </g>
    <g id="xtick_5">
     <g id="line2d_13">
      <path clip-path="url(#pd3f22936b4)" d="M 97.755429 298.944 
L 97.755429 3.456 
" style="fill:none;stroke:#b0b0b0;stroke-linecap:square;stroke-width:0.8;"/>
     </g>
     <g id="line2d_14">
      <defs>
       <path d="M 0 0 
L 0 2 
" id="m1e1a0537f1" style="stroke:#000000;stroke-width:0.6;"/>
      </defs>
      <g>
       <use style="stroke:#000000;stroke-width:0.6;" x="97.755429" xlink:href="#m1e1a0537f1" y="298.944"/>
      </g>
     </g>
    </g>
    <g id="xtick_6">
     <g id="line2d_15">
      <path clip-path="url(#pd3f22936b4)" d="M 178.066286 298.944 
L 178.066286 3.456 
" style="fill:none;stroke:#b0b0b0;stroke-linecap:square;stroke-width:0.8;"/>
     </g>
     <g id="line2d_16">
      <g>
       <use style="stroke:#000000;stroke-width:0.6;" x="178.066286" xlink:href="#m1e1a0537f1" y="298.944"/>
      </g>
     </g>
    </g>
    <g id="xtick_7">
     <g id="line2d_17">
      <path clip-path="url(#pd3f22936b4)" d="M 258.377143 298.944 
L 258.377143 3.456 
" style="fill:none;stroke:#b0b0b0;stroke-linecap:square;stroke-width:0.8;"/>
     </g>
     <g id="line2d_18">
      <g>
       <use style="stroke:#000000;stroke-width:0.6;" x="258.377143" xlink:href="#m1e1a0537f1" y="298.944"/>
      </g>
     </g>
    </g>
    <g id="xtick_8">
     <g id="line2d_19">
      <path clip-path="url(#pd3f22936b4)" d="M 338.688 298.944 
L 338.688 3.456 
" style="fill:none;stroke:#b0b0b0;stroke-linecap:square;stroke-width:0.8;"/>
     </g>
     <g id="line2d_20">
      <g>
       <use style="stroke:#000000;stroke-width:0.6;" x="338.688" xlink:href="#m1e1a0537f1" y="298.944"/>
      </g>
     </g>
    </g>
    <g id="text_5">
     <!-- log10(# f-evals / dimension) -->
     <g transform="translate(77.764078 342.217594)scale(0.17 -0.17)">
      <defs>
       <path d="M 9.421875 75.984375 
L 18.40625 75.984375 
L 18.40625 0 
L 9.421875 0 
z
" id="DejaVuSans-108"/>
       <path d="M 30.609375 48.390625 
Q 23.390625 48.390625 19.1875 42.75 
Q 14.984375 37.109375 14.984375 27.296875 
Q 14.984375 17.484375 19.15625 11.84375 
Q 23.34375 6.203125 30.609375 6.203125 
Q 37.796875 6.203125 41.984375 11.859375 
Q 46.1875 17.53125 46.1875 27.296875 
Q 46.1875 37.015625 41.984375 42.703125 
Q 37.796875 48.390625 30.609375 48.390625 
z
M 30.609375 56 
Q 42.328125 56 49.015625 48.375 
Q 55.71875 40.765625 55.71875 27.296875 
Q 55.71875 13.875 49.015625 6.21875 
Q 42.328125 -1.421875 30.609375 -1.421875 
Q 18.84375 -1.421875 12.171875 6.21875 
Q 5.515625 13.875 5.515625 27.296875 
Q 5.515625 40.765625 12.171875 48.375 
Q 18.84375 56 30.609375 56 
z
" id="DejaVuSans-111"/>
       <path d="M 45.40625 27.984375 
Q 45.40625 37.75 41.375 43.109375 
Q 37.359375 48.484375 30.078125 48.484375 
Q 22.859375 48.484375 18.828125 43.109375 
Q 14.796875 37.75 14.796875 27.984375 
Q 14.796875 18.265625 18.828125 12.890625 
Q 22.859375 7.515625 30.078125 7.515625 
Q 37.359375 7.515625 41.375 12.890625 
Q 45.40625 18.265625 45.40625 27.984375 
z
M 54.390625 6.78125 
Q 54.390625 -7.171875 48.1875 -13.984375 
Q 42 -20.796875 29.203125 -20.796875 
Q 24.46875 -20.796875 20.265625 -20.09375 
Q 16.0625 -19.390625 12.109375 -17.921875 
L 12.109375 -9.1875 
Q 16.0625 -11.328125 19.921875 -12.34375 
Q 23.78125 -13.375 27.78125 -13.375 
Q 36.625 -13.375 41.015625 -8.765625 
Q 45.40625 -4.15625 45.40625 5.171875 
L 45.40625 9.625 
Q 42.625 4.78125 38.28125 2.390625 
Q 33.9375 0 27.875 0 
Q 17.828125 0 11.671875 7.65625 
Q 5.515625 15.328125 5.515625 27.984375 
Q 5.515625 40.671875 11.671875 48.328125 
Q 17.828125 56 27.875 56 
Q 33.9375 56 38.28125 53.609375 
Q 42.625 51.21875 45.40625 46.390625 
L 45.40625 54.6875 
L 54.390625 54.6875 
z
" id="DejaVuSans-103"/>
       <path d="M 12.40625 8.296875 
L 28.515625 8.296875 
L 28.515625 63.921875 
L 10.984375 60.40625 
L 10.984375 69.390625 
L 28.421875 72.90625 
L 38.28125 72.90625 
L 38.28125 8.296875 
L 54.390625 8.296875 
L 54.390625 0 
L 12.40625 0 
z
" id="DejaVuSans-49"/>
       <path d="M 31 75.875 
Q 24.46875 64.65625 21.28125 53.65625 
Q 18.109375 42.671875 18.109375 31.390625 
Q 18.109375 20.125 21.3125 9.0625 
Q 24.515625 -2 31 -13.1875 
L 23.1875 -13.1875 
Q 15.875 -1.703125 12.234375 9.375 
Q 8.59375 20.453125 8.59375 31.390625 
Q 8.59375 42.28125 12.203125 53.3125 
Q 15.828125 64.359375 23.1875 75.875 
z
" id="DejaVuSans-40"/>
       <path d="M 51.125 44 
L 36.921875 44 
L 32.8125 27.6875 
L 47.125 27.6875 
z
M 43.796875 71.78125 
L 38.71875 51.515625 
L 52.984375 51.515625 
L 58.109375 71.78125 
L 65.921875 71.78125 
L 60.890625 51.515625 
L 76.125 51.515625 
L 76.125 44 
L 58.984375 44 
L 54.984375 27.6875 
L 70.515625 27.6875 
L 70.515625 20.21875 
L 53.078125 20.21875 
L 48 0 
L 40.1875 0 
L 45.21875 20.21875 
L 30.90625 20.21875 
L 25.875 0 
L 18.015625 0 
L 23.09375 20.21875 
L 7.71875 20.21875 
L 7.71875 27.6875 
L 24.90625 27.6875 
L 29 44 
L 13.28125 44 
L 13.28125 51.515625 
L 30.90625 51.515625 
L 35.890625 71.78125 
z
" id="DejaVuSans-35"/>
       <path id="DejaVuSans-32"/>
       <path d="M 37.109375 75.984375 
L 37.109375 68.5 
L 28.515625 68.5 
Q 23.6875 68.5 21.796875 66.546875 
Q 19.921875 64.59375 19.921875 59.515625 
L 19.921875 54.6875 
L 34.71875 54.6875 
L 34.71875 47.703125 
L 19.921875 47.703125 
L 19.921875 0 
L 10.890625 0 
L 10.890625 47.703125 
L 2.296875 47.703125 
L 2.296875 54.6875 
L 10.890625 54.6875 
L 10.890625 58.5 
Q 10.890625 67.625 15.140625 71.796875 
Q 19.390625 75.984375 28.609375 75.984375 
z
" id="DejaVuSans-102"/>
       <path d="M 4.890625 31.390625 
L 31.203125 31.390625 
L 31.203125 23.390625 
L 4.890625 23.390625 
z
" id="DejaVuSans-45"/>
       <path d="M 56.203125 29.59375 
L 56.203125 25.203125 
L 14.890625 25.203125 
Q 15.484375 15.921875 20.484375 11.0625 
Q 25.484375 6.203125 34.421875 6.203125 
Q 39.59375 6.203125 44.453125 7.46875 
Q 49.3125 8.734375 54.109375 11.28125 
L 54.109375 2.78125 
Q 49.265625 0.734375 44.1875 -0.34375 
Q 39.109375 -1.421875 33.890625 -1.421875 
Q 20.796875 -1.421875 13.15625 6.1875 
Q 5.515625 13.8125 5.515625 26.8125 
Q 5.515625 40.234375 12.765625 48.109375 
Q 20.015625 56 32.328125 56 
Q 43.359375 56 49.78125 48.890625 
Q 56.203125 41.796875 56.203125 29.59375 
z
M 47.21875 32.234375 
Q 47.125 39.59375 43.09375 43.984375 
Q 39.0625 48.390625 32.421875 48.390625 
Q 24.90625 48.390625 20.390625 44.140625 
Q 15.875 39.890625 15.1875 32.171875 
z
" id="DejaVuSans-101"/>
       <path d="M 2.984375 54.6875 
L 12.5 54.6875 
L 29.59375 8.796875 
L 46.6875 54.6875 
L 56.203125 54.6875 
L 35.6875 0 
L 23.484375 0 
z
" id="DejaVuSans-118"/>
       <path d="M 34.28125 27.484375 
Q 23.390625 27.484375 19.1875 25 
Q 14.984375 22.515625 14.984375 16.5 
Q 14.984375 11.71875 18.140625 8.90625 
Q 21.296875 6.109375 26.703125 6.109375 
Q 34.1875 6.109375 38.703125 11.40625 
Q 43.21875 16.703125 43.21875 25.484375 
L 43.21875 27.484375 
z
M 52.203125 31.203125 
L 52.203125 0 
L 43.21875 0 
L 43.21875 8.296875 
Q 40.140625 3.328125 35.546875 0.953125 
Q 30.953125 -1.421875 24.3125 -1.421875 
Q 15.921875 -1.421875 10.953125 3.296875 
Q 6 8.015625 6 15.921875 
Q 6 25.140625 12.171875 29.828125 
Q 18.359375 34.515625 30.609375 34.515625 
L 43.21875 34.515625 
L 43.21875 35.40625 
Q 43.21875 41.609375 39.140625 45 
Q 35.0625 48.390625 27.6875 48.390625 
Q 23 48.390625 18.546875 47.265625 
Q 14.109375 46.140625 10.015625 43.890625 
L 10.015625 52.203125 
Q 14.9375 54.109375 19.578125 55.046875 
Q 24.21875 56 28.609375 56 
Q 40.484375 56 46.34375 49.84375 
Q 52.203125 43.703125 52.203125 31.203125 
z
" id="DejaVuSans-97"/>
       <path d="M 44.28125 53.078125 
L 44.28125 44.578125 
Q 40.484375 46.53125 36.375 47.5 
Q 32.28125 48.484375 27.875 48.484375 
Q 21.1875 48.484375 17.84375 46.4375 
Q 14.5 44.390625 14.5 40.28125 
Q 14.5 37.15625 16.890625 35.375 
Q 19.28125 33.59375 26.515625 31.984375 
L 29.59375 31.296875 
Q 39.15625 29.25 43.1875 25.515625 
Q 47.21875 21.78125 47.21875 15.09375 
Q 47.21875 7.46875 41.1875 3.015625 
Q 35.15625 -1.421875 24.609375 -1.421875 
Q 20.21875 -1.421875 15.453125 -0.5625 
Q 10.6875 0.296875 5.421875 2 
L 5.421875 11.28125 
Q 10.40625 8.6875 15.234375 7.390625 
Q 20.0625 6.109375 24.8125 6.109375 
Q 31.15625 6.109375 34.5625 8.28125 
Q 37.984375 10.453125 37.984375 14.40625 
Q 37.984375 18.0625 35.515625 20.015625 
Q 33.0625 21.96875 24.703125 23.78125 
L 21.578125 24.515625 
Q 13.234375 26.265625 9.515625 29.90625 
Q 5.8125 33.546875 5.8125 39.890625 
Q 5.8125 47.609375 11.28125 51.796875 
Q 16.75 56 26.8125 56 
Q 31.78125 56 36.171875 55.265625 
Q 40.578125 54.546875 44.28125 53.078125 
z
" id="DejaVuSans-115"/>
       <path d="M 25.390625 72.90625 
L 33.6875 72.90625 
L 8.296875 -9.28125 
L 0 -9.28125 
z
" id="DejaVuSans-47"/>
       <path d="M 45.40625 46.390625 
L 45.40625 75.984375 
L 54.390625 75.984375 
L 54.390625 0 
L 45.40625 0 
L 45.40625 8.203125 
Q 42.578125 3.328125 38.25 0.953125 
Q 33.9375 -1.421875 27.875 -1.421875 
Q 17.96875 -1.421875 11.734375 6.484375 
Q 5.515625 14.40625 5.515625 27.296875 
Q 5.515625 40.1875 11.734375 48.09375 
Q 17.96875 56 27.875 56 
Q 33.9375 56 38.25 53.625 
Q 42.578125 51.265625 45.40625 46.390625 
z
M 14.796875 27.296875 
Q 14.796875 17.390625 18.875 11.75 
Q 22.953125 6.109375 30.078125 6.109375 
Q 37.203125 6.109375 41.296875 11.75 
Q 45.40625 17.390625 45.40625 27.296875 
Q 45.40625 37.203125 41.296875 42.84375 
Q 37.203125 48.484375 30.078125 48.484375 
Q 22.953125 48.484375 18.875 42.84375 
Q 14.796875 37.203125 14.796875 27.296875 
z
" id="DejaVuSans-100"/>
       <path d="M 9.421875 54.6875 
L 18.40625 54.6875 
L 18.40625 0 
L 9.421875 0 
z
M 9.421875 75.984375 
L 18.40625 75.984375 
L 18.40625 64.59375 
L 9.421875 64.59375 
z
" id="DejaVuSans-105"/>
       <path d="M 52 44.1875 
Q 55.375 50.25 60.0625 53.125 
Q 64.75 56 71.09375 56 
Q 79.640625 56 84.28125 50.015625 
Q 88.921875 44.046875 88.921875 33.015625 
L 88.921875 0 
L 79.890625 0 
L 79.890625 32.71875 
Q 79.890625 40.578125 77.09375 44.375 
Q 74.3125 48.1875 68.609375 48.1875 
Q 61.625 48.1875 57.5625 43.546875 
Q 53.515625 38.921875 53.515625 30.90625 
L 53.515625 0 
L 44.484375 0 
L 44.484375 32.71875 
Q 44.484375 40.625 41.703125 44.40625 
Q 38.921875 48.1875 33.109375 48.1875 
Q 26.21875 48.1875 22.15625 43.53125 
Q 18.109375 38.875 18.109375 30.90625 
L 18.109375 0 
L 9.078125 0 
L 9.078125 54.6875 
L 18.109375 54.6875 
L 18.109375 46.1875 
Q 21.1875 51.21875 25.484375 53.609375 
Q 29.78125 56 35.6875 56 
Q 41.65625 56 45.828125 52.96875 
Q 50 49.953125 52 44.1875 
z
" id="DejaVuSans-109"/>
       <path d="M 54.890625 33.015625 
L 54.890625 0 
L 45.90625 0 
L 45.90625 32.71875 
Q 45.90625 40.484375 42.875 44.328125 
Q 39.84375 48.1875 33.796875 48.1875 
Q 26.515625 48.1875 22.3125 43.546875 
Q 18.109375 38.921875 18.109375 30.90625 
L 18.109375 0 
L 9.078125 0 
L 9.078125 54.6875 
L 18.109375 54.6875 
L 18.109375 46.1875 
Q 21.34375 51.125 25.703125 53.5625 
Q 30.078125 56 35.796875 56 
Q 45.21875 56 50.046875 50.171875 
Q 54.890625 44.34375 54.890625 33.015625 
z
" id="DejaVuSans-110"/>
       <path d="M 8.015625 75.875 
L 15.828125 75.875 
Q 23.140625 64.359375 26.78125 53.3125 
Q 30.421875 42.28125 30.421875 31.390625 
Q 30.421875 20.453125 26.78125 9.375 
Q 23.140625 -1.703125 15.828125 -13.1875 
L 8.015625 -13.1875 
Q 14.5 -2 17.703125 9.0625 
Q 20.90625 20.125 20.90625 31.390625 
Q 20.90625 42.671875 17.703125 53.65625 
Q 14.5 64.65625 8.015625 75.875 
z
" id="DejaVuSans-41"/>
      </defs>
      <use xlink:href="#DejaVuSans-108"/>
      <use x="27.783203" xlink:href="#DejaVuSans-111"/>
      <use x="88.964844" xlink:href="#DejaVuSans-103"/>
      <use x="152.441406" xlink:href="#DejaVuSans-49"/>
      <use x="216.064453" xlink:href="#DejaVuSans-48"/>
      <use x="279.6875" xlink:href="#DejaVuSans-40"/>
      <use x="318.701172" xlink:href="#DejaVuSans-35"/>
      <use x="402.490234" xlink:href="#DejaVuSans-32"/>
      <use x="434.277344" xlink:href="#DejaVuSans-102"/>
      <use x="463.982422" xlink:href="#DejaVuSans-45"/>
      <use x="500.066406" xlink:href="#DejaVuSans-101"/>
      <use x="561.589844" xlink:href="#DejaVuSans-118"/>
      <use x="620.769531" xlink:href="#DejaVuSans-97"/>
      <use x="682.048828" xlink:href="#DejaVuSans-108"/>
      <use x="709.832031" xlink:href="#DejaVuSans-115"/>
      <use x="761.931641" xlink:href="#DejaVuSans-32"/>
      <use x="793.71875" xlink:href="#DejaVuSans-47"/>
      <use x="827.410156" xlink:href="#DejaVuSans-32"/>
      <use x="859.197266" xlink:href="#DejaVuSans-100"/>
      <use x="922.673828" xlink:href="#DejaVuSans-105"/>
      <use x="950.457031" xlink:href="#DejaVuSans-109"/>
      <use x="1047.869141" xlink:href="#DejaVuSans-101"/>
      <use x="1109.392578" xlink:href="#DejaVuSans-110"/>
      <use x="1172.771484" xlink:href="#DejaVuSans-115"/>
      <use x="1224.871094" xlink:href="#DejaVuSans-105"/>
      <use x="1252.654297" xlink:href="#DejaVuSans-111"/>
      <use x="1313.835938" xlink:href="#DejaVuSans-110"/>
      <use x="1377.214844" xlink:href="#DejaVuSans-41"/>
     </g>
    </g>
   </g>
   <g id="matplotlib.axis_2">
    <g id="ytick_1">
     <g id="line2d_21">
      <path clip-path="url(#pd3f22936b4)" d="M 57.6 298.944 
L 338.688 298.944 
" style="fill:none;stroke:#b0b0b0;stroke-linecap:square;stroke-width:0.8;"/>
     </g>
     <g id="line2d_22">
      <defs>
       <path d="M 0 0 
L -3.5 0 
" id="m610956a896" style="stroke:#000000;stroke-width:0.8;"/>
      </defs>
      <g>
       <use style="stroke:#000000;stroke-width:0.8;" x="57.6" xlink:href="#m610956a896" y="298.944"/>
      </g>
     </g>
     <g id="text_6">
      <!-- 0.0 -->
      <g transform="translate(25.155 305.02275)scale(0.16 -0.16)">
       <defs>
        <path d="M 10.6875 12.40625 
L 21 12.40625 
L 21 0 
L 10.6875 0 
z
" id="DejaVuSans-46"/>
       </defs>
       <use xlink:href="#DejaVuSans-48"/>
       <use x="63.623047" xlink:href="#DejaVuSans-46"/>
       <use x="95.410156" xlink:href="#DejaVuSans-48"/>
      </g>
     </g>
    </g>
    <g id="ytick_2">
     <g id="line2d_23">
      <path clip-path="url(#pd3f22936b4)" d="M 57.6 240.431525 
L 338.688 240.431525 
" style="fill:none;stroke:#b0b0b0;stroke-linecap:square;stroke-width:0.8;"/>
     </g>
     <g id="line2d_24">
      <g>
       <use style="stroke:#000000;stroke-width:0.8;" x="57.6" xlink:href="#m610956a896" y="240.431525"/>
      </g>
     </g>
     <g id="text_7">
      <!-- 0.2 -->
      <g transform="translate(25.155 246.510275)scale(0.16 -0.16)">
       <use xlink:href="#DejaVuSans-48"/>
       <use x="63.623047" xlink:href="#DejaVuSans-46"/>
       <use x="95.410156" xlink:href="#DejaVuSans-50"/>
      </g>
     </g>
    </g>
    <g id="ytick_3">
     <g id="line2d_25">
      <path clip-path="url(#pd3f22936b4)" d="M 57.6 181.91905 
L 338.688 181.91905 
" style="fill:none;stroke:#b0b0b0;stroke-linecap:square;stroke-width:0.8;"/>
     </g>
     <g id="line2d_26">
      <g>
       <use style="stroke:#000000;stroke-width:0.8;" x="57.6" xlink:href="#m610956a896" y="181.91905"/>
      </g>
     </g>
     <g id="text_8">
      <!-- 0.4 -->
      <g transform="translate(25.155 187.9978)scale(0.16 -0.16)">
       <use xlink:href="#DejaVuSans-48"/>
       <use x="63.623047" xlink:href="#DejaVuSans-46"/>
       <use x="95.410156" xlink:href="#DejaVuSans-52"/>
      </g>
     </g>
    </g>
    <g id="ytick_4">
     <g id="line2d_27">
      <path clip-path="url(#pd3f22936b4)" d="M 57.6 123.406574 
L 338.688 123.406574 
" style="fill:none;stroke:#b0b0b0;stroke-linecap:square;stroke-width:0.8;"/>
     </g>
     <g id="line2d_28">
      <g>
       <use style="stroke:#000000;stroke-width:0.8;" x="57.6" xlink:href="#m610956a896" y="123.406574"/>
      </g>
     </g>
     <g id="text_9">
      <!-- 0.6 -->
      <g transform="translate(25.155 129.485324)scale(0.16 -0.16)">
       <use xlink:href="#DejaVuSans-48"/>
       <use x="63.623047" xlink:href="#DejaVuSans-46"/>
       <use x="95.410156" xlink:href="#DejaVuSans-54"/>
      </g>
     </g>
    </g>
    <g id="ytick_5">
     <g id="line2d_29">
      <path clip-path="url(#pd3f22936b4)" d="M 57.6 64.894099 
L 338.688 64.894099 
" style="fill:none;stroke:#b0b0b0;stroke-linecap:square;stroke-width:0.8;"/>
     </g>
     <g id="line2d_30">
      <g>
       <use style="stroke:#000000;stroke-width:0.8;" x="57.6" xlink:href="#m610956a896" y="64.894099"/>
      </g>
     </g>
     <g id="text_10">
      <!-- 0.8 -->
      <g transform="translate(25.155 70.972849)scale(0.16 -0.16)">
       <defs>
        <path d="M 31.78125 34.625 
Q 24.75 34.625 20.71875 30.859375 
Q 16.703125 27.09375 16.703125 20.515625 
Q 16.703125 13.921875 20.71875 10.15625 
Q 24.75 6.390625 31.78125 6.390625 
Q 38.8125 6.390625 42.859375 10.171875 
Q 46.921875 13.96875 46.921875 20.515625 
Q 46.921875 27.09375 42.890625 30.859375 
Q 38.875 34.625 31.78125 34.625 
z
M 21.921875 38.8125 
Q 15.578125 40.375 12.03125 44.71875 
Q 8.5 49.078125 8.5 55.328125 
Q 8.5 64.0625 14.71875 69.140625 
Q 20.953125 74.21875 31.78125 74.21875 
Q 42.671875 74.21875 48.875 69.140625 
Q 55.078125 64.0625 55.078125 55.328125 
Q 55.078125 49.078125 51.53125 44.71875 
Q 48 40.375 41.703125 38.8125 
Q 48.828125 37.15625 52.796875 32.3125 
Q 56.78125 27.484375 56.78125 20.515625 
Q 56.78125 9.90625 50.3125 4.234375 
Q 43.84375 -1.421875 31.78125 -1.421875 
Q 19.734375 -1.421875 13.25 4.234375 
Q 6.78125 9.90625 6.78125 20.515625 
Q 6.78125 27.484375 10.78125 32.3125 
Q 14.796875 37.15625 21.921875 38.8125 
z
M 18.3125 54.390625 
Q 18.3125 48.734375 21.84375 45.5625 
Q 25.390625 42.390625 31.78125 42.390625 
Q 38.140625 42.390625 41.71875 45.5625 
Q 45.3125 48.734375 45.3125 54.390625 
Q 45.3125 60.0625 41.71875 63.234375 
Q 38.140625 66.40625 31.78125 66.40625 
Q 25.390625 66.40625 21.84375 63.234375 
Q 18.3125 60.0625 18.3125 54.390625 
z
" id="DejaVuSans-56"/>
       </defs>
       <use xlink:href="#DejaVuSans-48"/>
       <use x="63.623047" xlink:href="#DejaVuSans-46"/>
       <use x="95.410156" xlink:href="#DejaVuSans-56"/>
      </g>
     </g>
    </g>
    <g id="ytick_6">
     <g id="line2d_31">
      <path clip-path="url(#pd3f22936b4)" d="M 57.6 6.381624 
L 338.688 6.381624 
" style="fill:none;stroke:#b0b0b0;stroke-linecap:square;stroke-width:0.8;"/>
     </g>
     <g id="line2d_32">
      <g>
       <use style="stroke:#000000;stroke-width:0.8;" x="57.6" xlink:href="#m610956a896" y="6.381624"/>
      </g>
     </g>
     <g id="text_11">
      <!-- 1.0 -->
      <g transform="translate(25.155 12.460374)scale(0.16 -0.16)">
       <use xlink:href="#DejaVuSans-49"/>
       <use x="63.623047" xlink:href="#DejaVuSans-46"/>
       <use x="95.410156" xlink:href="#DejaVuSans-48"/>
      </g>
     </g>
    </g>
    <g id="text_12">
     <!-- Fraction of function,target pairs -->
     <g transform="translate(17.619531 285.585)rotate(-90)scale(0.17 -0.17)">
      <defs>
       <path d="M 9.8125 72.90625 
L 51.703125 72.90625 
L 51.703125 64.59375 
L 19.671875 64.59375 
L 19.671875 43.109375 
L 48.578125 43.109375 
L 48.578125 34.8125 
L 19.671875 34.8125 
L 19.671875 0 
L 9.8125 0 
z
" id="DejaVuSans-70"/>
       <path d="M 41.109375 46.296875 
Q 39.59375 47.171875 37.8125 47.578125 
Q 36.03125 48 33.890625 48 
Q 26.265625 48 22.1875 43.046875 
Q 18.109375 38.09375 18.109375 28.8125 
L 18.109375 0 
L 9.078125 0 
L 9.078125 54.6875 
L 18.109375 54.6875 
L 18.109375 46.1875 
Q 20.953125 51.171875 25.484375 53.578125 
Q 30.03125 56 36.53125 56 
Q 37.453125 56 38.578125 55.875 
Q 39.703125 55.765625 41.0625 55.515625 
z
" id="DejaVuSans-114"/>
       <path d="M 48.78125 52.59375 
L 48.78125 44.1875 
Q 44.96875 46.296875 41.140625 47.34375 
Q 37.3125 48.390625 33.40625 48.390625 
Q 24.65625 48.390625 19.8125 42.84375 
Q 14.984375 37.3125 14.984375 27.296875 
Q 14.984375 17.28125 19.8125 11.734375 
Q 24.65625 6.203125 33.40625 6.203125 
Q 37.3125 6.203125 41.140625 7.25 
Q 44.96875 8.296875 48.78125 10.40625 
L 48.78125 2.09375 
Q 45.015625 0.34375 40.984375 -0.53125 
Q 36.96875 -1.421875 32.421875 -1.421875 
Q 20.0625 -1.421875 12.78125 6.34375 
Q 5.515625 14.109375 5.515625 27.296875 
Q 5.515625 40.671875 12.859375 48.328125 
Q 20.21875 56 33.015625 56 
Q 37.15625 56 41.109375 55.140625 
Q 45.0625 54.296875 48.78125 52.59375 
z
" id="DejaVuSans-99"/>
       <path d="M 18.3125 70.21875 
L 18.3125 54.6875 
L 36.8125 54.6875 
L 36.8125 47.703125 
L 18.3125 47.703125 
L 18.3125 18.015625 
Q 18.3125 11.328125 20.140625 9.421875 
Q 21.96875 7.515625 27.59375 7.515625 
L 36.8125 7.515625 
L 36.8125 0 
L 27.59375 0 
Q 17.1875 0 13.234375 3.875 
Q 9.28125 7.765625 9.28125 18.015625 
L 9.28125 47.703125 
L 2.6875 47.703125 
L 2.6875 54.6875 
L 9.28125 54.6875 
L 9.28125 70.21875 
z
" id="DejaVuSans-116"/>
       <path d="M 8.5 21.578125 
L 8.5 54.6875 
L 17.484375 54.6875 
L 17.484375 21.921875 
Q 17.484375 14.15625 20.5 10.265625 
Q 23.53125 6.390625 29.59375 6.390625 
Q 36.859375 6.390625 41.078125 11.03125 
Q 45.3125 15.671875 45.3125 23.6875 
L 45.3125 54.6875 
L 54.296875 54.6875 
L 54.296875 0 
L 45.3125 0 
L 45.3125 8.40625 
Q 42.046875 3.421875 37.71875 1 
Q 33.40625 -1.421875 27.6875 -1.421875 
Q 18.265625 -1.421875 13.375 4.4375 
Q 8.5 10.296875 8.5 21.578125 
z
M 31.109375 56 
z
" id="DejaVuSans-117"/>
       <path d="M 11.71875 12.40625 
L 22.015625 12.40625 
L 22.015625 4 
L 14.015625 -11.625 
L 7.71875 -11.625 
L 11.71875 4 
z
" id="DejaVuSans-44"/>
       <path d="M 18.109375 8.203125 
L 18.109375 -20.796875 
L 9.078125 -20.796875 
L 9.078125 54.6875 
L 18.109375 54.6875 
L 18.109375 46.390625 
Q 20.953125 51.265625 25.265625 53.625 
Q 29.59375 56 35.59375 56 
Q 45.5625 56 51.78125 48.09375 
Q 58.015625 40.1875 58.015625 27.296875 
Q 58.015625 14.40625 51.78125 6.484375 
Q 45.5625 -1.421875 35.59375 -1.421875 
Q 29.59375 -1.421875 25.265625 0.953125 
Q 20.953125 3.328125 18.109375 8.203125 
z
M 48.6875 27.296875 
Q 48.6875 37.203125 44.609375 42.84375 
Q 40.53125 48.484375 33.40625 48.484375 
Q 26.265625 48.484375 22.1875 42.84375 
Q 18.109375 37.203125 18.109375 27.296875 
Q 18.109375 17.390625 22.1875 11.75 
Q 26.265625 6.109375 33.40625 6.109375 
Q 40.53125 6.109375 44.609375 11.75 
Q 48.6875 17.390625 48.6875 27.296875 
z
" id="DejaVuSans-112"/>
      </defs>
      <use xlink:href="#DejaVuSans-70"/>
      <use x="50.269531" xlink:href="#DejaVuSans-114"/>
      <use x="91.382812" xlink:href="#DejaVuSans-97"/>
      <use x="152.662109" xlink:href="#DejaVuSans-99"/>
      <use x="207.642578" xlink:href="#DejaVuSans-116"/>
      <use x="246.851562" xlink:href="#DejaVuSans-105"/>
      <use x="274.634766" xlink:href="#DejaVuSans-111"/>
      <use x="335.816406" xlink:href="#DejaVuSans-110"/>
      <use x="399.195312" xlink:href="#DejaVuSans-32"/>
      <use x="430.982422" xlink:href="#DejaVuSans-111"/>
      <use x="492.164062" xlink:href="#DejaVuSans-102"/>
      <use x="527.369141" xlink:href="#DejaVuSans-32"/>
      <use x="559.15625" xlink:href="#DejaVuSans-102"/>
      <use x="594.361328" xlink:href="#DejaVuSans-117"/>
      <use x="657.740234" xlink:href="#DejaVuSans-110"/>
      <use x="721.119141" xlink:href="#DejaVuSans-99"/>
      <use x="776.099609" xlink:href="#DejaVuSans-116"/>
      <use x="815.308594" xlink:href="#DejaVuSans-105"/>
      <use x="843.091797" xlink:href="#DejaVuSans-111"/>
      <use x="904.273438" xlink:href="#DejaVuSans-110"/>
      <use x="967.652344" xlink:href="#DejaVuSans-44"/>
      <use x="999.439453" xlink:href="#DejaVuSans-116"/>
      <use x="1038.648438" xlink:href="#DejaVuSans-97"/>
      <use x="1099.927734" xlink:href="#DejaVuSans-114"/>
      <use x="1139.291016" xlink:href="#DejaVuSans-103"/>
      <use x="1202.767578" xlink:href="#DejaVuSans-101"/>
      <use x="1264.291016" xlink:href="#DejaVuSans-116"/>
      <use x="1303.5" xlink:href="#DejaVuSans-32"/>
      <use x="1335.287109" xlink:href="#DejaVuSans-112"/>
      <use x="1398.763672" xlink:href="#DejaVuSans-97"/>
      <use x="1460.042969" xlink:href="#DejaVuSans-105"/>
      <use x="1487.826172" xlink:href="#DejaVuSans-114"/>
      <use x="1528.939453" xlink:href="#DejaVuSans-115"/>
     </g>
    </g>
   </g>
   <g id="line2d_33">
    <defs>
     <path d="M 0 1.5 
C 0.397805 1.5 0.77937 1.341951 1.06066 1.06066 
C 1.341951 0.77937 1.5 0.397805 1.5 0 
C 1.5 -0.397805 1.341951 -0.77937 1.06066 -1.06066 
C 0.77937 -1.341951 0.397805 -1.5 0 -1.5 
C -0.397805 -1.5 -0.77937 -1.341951 -1.06066 -1.06066 
C -1.341951 -0.77937 -1.5 -0.397805 -1.5 0 
C -1.5 0.397805 -1.341951 0.77937 -1.06066 1.06066 
C -0.77937 1.341951 -0.397805 1.5 0 1.5 
z
" id="m0d445be8e8" style="stroke:#f5deb3;"/>
    </defs>
    <g>
     <use style="fill:#f5deb3;stroke:#f5deb3;" x="341.347276" xlink:href="#m0d445be8e8" y="109.787291"/>
     <use style="fill:#f5deb3;stroke:#f5deb3;" x="341.347276" xlink:href="#m0d445be8e8" y="109.787291"/>
    </g>
   </g>
   <g id="line2d_34">
    <defs>
     <path d="M 0 1.5 
C 0.397805 1.5 0.77937 1.341951 1.06066 1.06066 
C 1.341951 0.77937 1.5 0.397805 1.5 0 
C 1.5 -0.397805 1.341951 -0.77937 1.06066 -1.06066 
C 0.77937 -1.341951 0.397805 -1.5 0 -1.5 
C -0.397805 -1.5 -0.77937 -1.341951 -1.06066 -1.06066 
C -1.341951 -0.77937 -1.5 -0.397805 -1.5 0 
C -1.5 0.397805 -1.341951 0.77937 -1.06066 1.06066 
C -0.77937 1.341951 -0.397805 1.5 0 1.5 
z
" id="m36a9b3768c" style="stroke:#000080;"/>
    </defs>
    <g>
     <use style="fill:#000080;stroke:#000080;" x="238.782109" xlink:href="#m36a9b3768c" y="204.996168"/>
     <use style="fill:#000080;stroke:#000080;" x="238.782109" xlink:href="#m36a9b3768c" y="204.996168"/>
    </g>
   </g>
   <g id="line2d_35">
    <path d="M 5.356583 298.944 
L 5.356583 290.116687 
L 24.515591 290.116687 
L 24.515591 289.738374 
L 41.620548 289.738374 
L 41.620548 289.486165 
L 43.6746 289.486165 
L 43.6746 289.36006 
L 54.765787 289.36006 
L 54.765787 289.107851 
L 60.779557 289.107851 
L 60.779557 288.981747 
L 65.242851 288.981747 
L 65.242851 288.855642 
L 66.853775 288.855642 
L 66.853775 288.603433 
L 69.246464 288.603433 
L 69.246464 288.477329 
L 75.86449 288.477329 
L 75.86449 288.22512 
L 78.154896 288.22512 
L 78.154896 288.099015 
L 79.938565 288.099015 
L 79.938565 287.972911 
L 80.416384 287.972911 
L 80.416384 287.846806 
L 81.109427 287.846806 
L 81.109427 287.720702 
L 82.417986 287.720702 
L 82.417986 287.594597 
L 83.438118 287.594597 
L 83.438118 287.468493 
L 84.02273 287.468493 
L 84.02273 287.342389 
L 85.136253 287.342389 
L 85.136253 287.216284 
L 98.18605 287.216284 
L 98.18605 287.09018 
L 101.223245 287.09018 
L 101.223245 286.964075 
L 113.418114 286.964075 
L 113.418114 286.837971 
L 114.317959 286.837971 
L 114.317959 286.711866 
L 122.552391 286.711866 
L 122.552391 286.585762 
L 124.613453 286.585762 
L 124.613453 286.459657 
L 126.236468 286.459657 
L 126.236468 286.333553 
L 126.673734 286.333553 
L 126.673734 286.207448 
L 127.309739 286.207448 
L 127.309739 285.829135 
L 128.32077 285.829135 
L 128.32077 285.70303 
L 134.942772 285.70303 
L 134.942772 285.576926 
L 139.000903 285.576926 
L 139.000903 285.450821 
L 139.212587 285.450821 
L 139.212587 285.324717 
L 140.134598 285.324717 
L 140.134598 285.198612 
L 143.40093 285.198612 
L 143.483476 284.946404 
L 146.911473 284.946404 
L 146.911473 284.820299 
L 149.946449 284.820299 
L 150.003205 284.56809 
L 150.116165 284.56809 
L 150.116165 284.441986 
L 152.628478 284.441986 
L 152.628478 284.315881 
L 152.91852 284.315881 
L 152.91852 284.189777 
L 153.530869 284.189777 
L 153.530869 284.063672 
L 153.806399 284.063672 
L 153.806399 283.937568 
L 153.942548 283.937568 
L 153.942548 283.811463 
L 154.432862 283.811463 
L 154.432862 283.685359 
L 156.067934 283.685359 
L 156.067934 283.559254 
L 157.599454 283.559254 
L 157.599454 283.43315 
L 158.033857 283.43315 
L 158.033857 283.307045 
L 158.390468 283.307045 
L 158.390468 283.180941 
L 160.434936 283.180941 
L 160.497133 282.928732 
L 160.556731 282.928732 
L 160.556731 282.802628 
L 160.926415 282.802628 
L 160.926415 282.676523 
L 161.955547 282.676523 
L 161.955547 282.550419 
L 163.975399 282.550419 
L 163.975399 282.424314 
L 164.202782 282.424314 
L 164.202782 282.29821 
L 164.697709 282.29821 
L 164.79503 282.046001 
L 164.843488 282.046001 
L 164.843488 281.919896 
L 165.012039 281.919896 
L 165.012039 281.793792 
L 165.414719 281.793792 
L 165.414719 281.667687 
L 165.693467 281.667687 
L 165.785402 281.289374 
L 165.899643 281.289374 
L 165.899643 281.163269 
L 166.080887 281.163269 
L 166.080887 281.037165 
L 166.765935 281.037165 
L 166.787591 280.784956 
L 167.278408 280.784956 
L 167.362375 280.532747 
L 167.466769 280.532747 
L 167.466769 280.406643 
L 167.93909 280.406643 
L 167.93909 280.280538 
L 168.180533 280.280538 
L 168.200503 280.028329 
L 168.981115 280.028329 
L 168.981115 279.902225 
L 169.691671 279.902225 
L 169.691671 279.77612 
L 170.232876 279.77612 
L 170.232876 279.650016 
L 170.427184 279.650016 
L 170.427184 279.523911 
L 170.84376 279.523911 
L 170.895139 279.145598 
L 171.317513 279.145598 
L 171.317513 279.019493 
L 171.516675 279.019493 
L 171.576236 278.767284 
L 171.713588 278.767284 
L 171.729898 278.515075 
L 172.132757 278.515075 
L 172.132757 278.388971 
L 172.25973 278.388971 
L 172.25973 278.262867 
L 172.588704 278.262867 
L 172.635197 277.884553 
L 173.017898 277.884553 
L 173.017898 277.758449 
L 173.168658 277.758449 
L 173.168658 277.50624 
L 173.288334 277.50624 
L 173.330714 277.254031 
L 174.089598 277.254031 
L 174.160647 277.001822 
L 174.636255 277.001822 
L 174.677604 276.623508 
L 174.869281 276.623508 
L 174.910082 276.371299 
L 175.259748 276.371299 
L 175.273058 275.992986 
L 175.874576 275.992986 
L 175.925915 275.740777 
L 176.293666 275.740777 
L 176.293666 275.614673 
L 176.493293 275.614673 
L 176.493293 275.488568 
L 176.922168 275.488568 
L 176.994643 275.110255 
L 177.435031 275.110255 
L 177.435031 274.98415 
L 177.55217 274.98415 
L 177.598807 274.605837 
L 177.714855 274.605837 
L 177.714855 274.479732 
L 177.89894 274.479732 
L 177.990259 273.975314 
L 178.450056 273.975314 
L 178.450056 273.84921 
L 178.736847 273.84921 
L 178.802172 273.597001 
L 178.961937 273.597001 
L 178.961937 273.470897 
L 179.220923 273.470897 
L 179.220923 273.344792 
L 179.358302 273.344792 
L 179.358302 273.218688 
L 179.691925 273.218688 
L 179.764062 272.840374 
L 179.835901 272.840374 
L 179.835901 272.71427 
L 179.948198 272.71427 
L 180.019285 272.462061 
L 180.360501 272.462061 
L 180.360501 272.335956 
L 180.821451 272.335956 
L 180.821451 272.209852 
L 181.090378 272.209852 
L 181.163539 271.957643 
L 181.232758 271.957643 
L 181.327037 271.705434 
L 181.754271 271.705434 
L 181.754271 271.579329 
L 181.873138 271.579329 
L 181.936809 271.201016 
L 182.253782 271.201016 
L 182.305144 270.948807 
L 182.543526 270.948807 
L 182.59606 270.696598 
L 182.709344 270.696598 
L 182.804628 270.318285 
L 182.847767 270.318285 
L 182.872276 269.813867 
L 183.019266 269.813867 
L 183.112876 269.561658 
L 183.548083 269.561658 
L 183.64777 269.309449 
L 183.738076 269.309449 
L 183.738076 269.183344 
L 184.01428 269.183344 
L 184.01428 269.05724 
L 184.190698 269.05724 
L 184.190698 268.931136 
L 184.38114 268.931136 
L 184.38114 268.805031 
L 184.530445 268.805031 
L 184.530445 268.678927 
L 184.947937 268.678927 
L 184.947937 268.552822 
L 185.220814 268.552822 
L 185.220814 268.300613 
L 185.392943 268.300613 
L 185.422706 268.048404 
L 185.535002 268.048404 
L 185.535002 267.796195 
L 185.664074 267.796195 
L 185.664074 267.670091 
L 186.200573 267.670091 
L 186.292759 266.78736 
L 186.321026 266.78736 
L 186.384461 266.409046 
L 186.46168 266.409046 
L 186.46168 266.156837 
L 186.732733 266.156837 
L 186.732733 266.030733 
L 187.060655 266.030733 
L 187.060655 265.904628 
L 187.289259 265.904628 
L 187.37588 265.274106 
L 187.514904 265.274106 
L 187.514904 265.148001 
L 187.839031 265.148001 
L 187.839031 265.021897 
L 187.95762 265.021897 
L 188.015382 264.643583 
L 188.320253 264.643583 
L 188.426963 264.26527 
L 188.52058 264.26527 
L 188.557886 264.013061 
L 188.724784 264.013061 
L 188.724784 263.760852 
L 188.853968 263.760852 
L 188.957004 263.382539 
L 189.388696 263.382539 
L 189.486818 263.004225 
L 189.821517 263.004225 
L 189.821517 262.878121 
L 190.125039 262.878121 
L 190.125039 262.752016 
L 190.285879 262.752016 
L 190.385118 262.373703 
L 190.595526 262.373703 
L 190.689219 261.99539 
L 190.722167 261.99539 
L 190.778204 261.490972 
L 190.902277 261.490972 
L 190.967313 261.112658 
L 191.177022 261.112658 
L 191.236127 260.860449 
L 191.352518 260.860449 
L 191.352518 260.734345 
L 191.536741 260.734345 
L 191.609889 260.356031 
L 191.690718 260.356031 
L 191.724219 259.977718 
L 191.817208 259.977718 
L 191.84295 259.725509 
L 191.940426 259.725509 
L 191.940426 259.4733 
L 192.148931 259.4733 
L 192.214525 258.968882 
L 192.504207 258.968882 
L 192.593138 258.716673 
L 192.982993 258.716673 
L 193.056976 258.212255 
L 193.103057 258.212255 
L 193.103057 258.086151 
L 193.236554 258.086151 
L 193.26977 257.707837 
L 193.505199 257.707837 
L 193.570554 257.20342 
L 193.984943 257.20342 
L 193.984943 257.077315 
L 194.300573 257.077315 
L 194.367471 256.825106 
L 194.632526 256.825106 
L 194.632526 256.699002 
L 194.760545 256.699002 
L 194.815029 256.068479 
L 195.006208 256.068479 
L 195.044128 255.690166 
L 195.1976 255.690166 
L 195.1976 255.564061 
L 195.321228 255.564061 
L 195.333542 255.185748 
L 195.492206 255.185748 
L 195.492206 255.059644 
L 195.633524 255.059644 
L 195.633524 254.933539 
L 195.760118 254.933539 
L 195.760118 254.68133 
L 195.904621 254.68133 
L 195.961589 254.429121 
L 196.030203 254.429121 
L 196.030203 254.303017 
L 196.167554 254.303017 
L 196.25965 253.924703 
L 196.283596 253.924703 
L 196.390945 253.420285 
L 196.442397 253.420285 
L 196.442397 253.294181 
L 196.852794 253.294181 
L 196.884833 253.041972 
L 197.017699 253.041972 
L 197.052079 252.663659 
L 197.50383 252.663659 
L 197.570923 252.41145 
L 197.633783 252.41145 
L 197.723556 252.033136 
L 197.772073 252.033136 
L 197.80528 251.654823 
L 197.99542 251.654823 
L 198.082248 251.276509 
L 198.395702 251.276509 
L 198.448621 251.0243 
L 198.508401 251.0243 
L 198.508401 250.898196 
L 199.115554 250.898196 
L 199.149425 250.393778 
L 199.748112 250.393778 
L 199.748112 250.267674 
L 199.884897 250.267674 
L 199.950653 249.763256 
L 200.205832 249.763256 
L 200.269902 249.511047 
L 200.478811 249.511047 
L 200.587488 248.880524 
L 200.653756 248.880524 
L 200.71668 248.628315 
L 200.779378 248.628315 
L 200.779378 248.502211 
L 200.989803 248.502211 
L 200.989803 248.376107 
L 201.313751 248.376107 
L 201.313751 248.123898 
L 201.449558 248.123898 
L 201.509226 247.745584 
L 201.561211 247.745584 
L 201.671253 247.115062 
L 201.872583 247.115062 
L 201.872583 246.862853 
L 202.179587 246.862853 
L 202.179587 246.736748 
L 202.292981 246.736748 
L 202.292981 246.610644 
L 202.484074 246.610644 
L 202.484074 246.484539 
L 202.717276 246.484539 
L 202.781435 245.980122 
L 202.894564 245.980122 
L 202.966442 245.727913 
L 203.366882 245.727913 
L 203.422588 245.223495 
L 203.874851 245.223495 
L 203.96494 244.971286 
L 204.13865 244.971286 
L 204.13865 244.719077 
L 204.363423 244.719077 
L 204.46869 244.214659 
L 204.492656 244.214659 
L 204.499744 243.710241 
L 205.013614 243.710241 
L 205.076356 243.458032 
L 205.215511 243.458032 
L 205.301328 243.205823 
L 205.571408 243.205823 
L 205.584371 242.82751 
L 205.75077 242.82751 
L 205.75077 242.701405 
L 206.177791 242.701405 
L 206.216193 242.449196 
L 206.317437 242.449196 
L 206.326235 242.070883 
L 206.512548 242.070883 
L 206.560434 241.692569 
L 207.084291 241.692569 
L 207.121903 241.314256 
L 207.307286 241.314256 
L 207.357432 241.062047 
L 207.467634 241.062047 
L 207.485234 240.809838 
L 207.668093 240.809838 
L 207.668093 240.683734 
L 207.976142 240.683734 
L 207.976142 240.431525 
L 208.236694 240.431525 
L 208.236694 240.30542 
L 208.639634 240.30542 
L 208.748804 239.801002 
L 208.915525 239.801002 
L 208.915525 239.548793 
L 209.182434 239.548793 
L 209.252284 239.044376 
L 209.514414 239.044376 
L 209.568347 238.666062 
L 209.865554 238.666062 
L 209.947726 238.287749 
L 210.040668 238.287749 
L 210.069359 238.03554 
L 210.446961 238.03554 
L 210.446961 237.909435 
L 210.603814 237.909435 
L 210.693065 237.657226 
L 210.811626 237.657226 
L 210.811626 237.405017 
L 211.332291 237.405017 
L 211.364234 237.152808 
L 211.627617 237.152808 
L 211.726224 236.648391 
L 211.921279 236.648391 
L 211.921279 236.522286 
L 212.046098 236.522286 
L 212.08358 236.270077 
L 212.189264 236.270077 
L 212.251877 236.017868 
L 212.616534 236.017868 
L 212.714741 235.51345 
L 213.002797 235.51345 
L 213.111254 235.135137 
L 213.28918 235.135137 
L 213.349702 234.630719 
L 213.437913 234.630719 
L 213.485913 234.252406 
L 213.630716 234.252406 
L 213.638089 233.747988 
L 213.815687 233.747988 
L 213.815687 233.495779 
L 213.9707 233.495779 
L 213.9707 233.369674 
L 214.097857 233.369674 
L 214.097857 233.117465 
L 214.209503 233.117465 
L 214.236591 232.613047 
L 214.375643 232.613047 
L 214.375643 232.486943 
L 214.533753 232.486943 
L 214.572063 232.10863 
L 214.647682 232.10863 
L 214.647682 231.856421 
L 214.779578 231.856421 
L 214.779578 231.730316 
L 214.908691 231.730316 
L 214.908691 231.604212 
L 215.152339 231.604212 
L 215.152339 231.352003 
L 215.411284 231.352003 
L 215.411284 231.099794 
L 215.550563 231.099794 
L 215.66119 230.847585 
L 215.781554 230.847585 
L 215.781554 230.595376 
L 215.903682 230.595376 
L 215.994077 229.838749 
L 216.110991 229.838749 
L 216.110991 229.58654 
L 216.23778 229.58654 
L 216.28403 229.334331 
L 216.397184 229.334331 
L 216.415278 228.829913 
L 216.61223 228.829913 
L 216.713206 227.442764 
L 216.74161 227.442764 
L 216.847409 227.064451 
L 216.854767 227.064451 
L 216.854767 226.812242 
L 217.357459 226.812242 
L 217.395717 226.433928 
L 217.624601 226.433928 
L 217.624601 226.181719 
L 217.92997 226.181719 
L 217.966109 225.551197 
L 218.069329 225.551197 
L 218.085858 224.79457 
L 218.372261 224.79457 
L 218.432325 224.416257 
L 218.524176 224.416257 
L 218.60864 223.785734 
L 218.722462 223.785734 
L 218.808166 223.407421 
L 218.932086 223.407421 
L 219.002182 222.776899 
L 219.081131 222.776899 
L 219.081131 222.52469 
L 219.216564 222.52469 
L 219.317984 222.020272 
L 219.336071 222.020272 
L 219.379616 221.641958 
L 219.511949 221.641958 
L 219.610383 221.011436 
L 219.742821 221.011436 
L 219.813322 220.380914 
L 219.932933 220.380914 
L 219.984238 219.876496 
L 220.215827 219.876496 
L 220.286226 219.245973 
L 220.403341 219.245973 
L 220.471226 218.741555 
L 220.569589 218.741555 
L 220.569589 218.489347 
L 220.706765 218.489347 
L 220.809677 218.111033 
L 221.154659 218.111033 
L 221.235613 217.480511 
L 221.733644 217.480511 
L 221.780847 216.976093 
L 221.926277 216.976093 
L 221.999452 216.093362 
L 222.075957 216.093362 
L 222.075957 215.841153 
L 222.316584 215.841153 
L 222.316584 215.715048 
L 222.433062 215.715048 
L 222.537809 215.21063 
L 222.700303 215.21063 
L 222.7568 214.832317 
L 222.916077 214.832317 
L 223.005847 214.201794 
L 223.196931 214.201794 
L 223.297202 213.571272 
L 223.482623 213.571272 
L 223.52449 213.066854 
L 223.853524 213.066854 
L 223.853714 212.688541 
L 224.31904 212.688541 
L 224.390137 211.931914 
L 224.458324 211.931914 
L 224.458324 211.805809 
L 224.750757 211.805809 
L 224.781133 211.427496 
L 224.888672 211.427496 
L 224.889742 211.049183 
L 225.146446 211.049183 
L 225.146915 210.670869 
L 225.412132 210.670869 
L 225.505929 210.166451 
L 225.972299 210.166451 
L 225.986718 209.662033 
L 227.015332 209.662033 
L 227.015332 209.535929 
L 227.171515 209.535929 
L 227.171515 209.28372 
L 227.364603 209.28372 
L 227.410484 208.779302 
L 227.547457 208.779302 
L 227.65059 208.274884 
L 227.7677 208.274884 
L 227.7677 208.022675 
L 227.902908 208.022675 
L 227.962017 207.770466 
L 228.046113 207.770466 
L 228.046113 207.644362 
L 228.408862 207.644362 
L 228.408862 207.392153 
L 228.579936 207.392153 
L 228.579936 207.139944 
L 228.734849 207.139944 
L 228.734849 206.887735 
L 229.401411 206.887735 
L 229.401411 206.635526 
L 230.053655 206.635526 
L 230.053655 206.509422 
L 230.252102 206.509422 
L 230.252102 206.257213 
L 230.520356 206.257213 
L 230.520356 206.005004 
L 230.693985 206.005004 
L 230.693985 205.752795 
L 233.462171 205.752795 
L 233.489514 205.374481 
L 234.37856 205.374481 
L 234.37856 205.248377 
L 238.782109 205.248377 
L 238.782109 204.996168 
L 338.688 204.996168 
L 338.688 204.996168 
" style="fill:none;stroke:#000080;stroke-linecap:square;stroke-width:1.5;"/>
   </g>
   <g id="line2d_36">
    <defs>
     <path d="M 0 6 
C 1.591219 6 3.117479 5.367802 4.242641 4.242641 
C 5.367802 3.117479 6 1.591219 6 0 
C 6 -1.591219 5.367802 -3.117479 4.242641 -4.242641 
C 3.117479 -5.367802 1.591219 -6 0 -6 
C -1.591219 -6 -3.117479 -5.367802 -4.242641 -4.242641 
C -5.367802 -3.117479 -6 -1.591219 -6 0 
C -6 1.591219 -5.367802 3.117479 -4.242641 4.242641 
C -3.117479 5.367802 -1.591219 6 0 6 
z
" id="m52d8661ea1" style="stroke:#000080;stroke-width:1.5;"/>
    </defs>
    <g>
     <use style="fill-opacity:0;stroke:#000080;stroke-width:1.5;" x="128.32077" xlink:href="#m52d8661ea1" y="285.829135"/>
     <use style="fill-opacity:0;stroke:#000080;stroke-width:1.5;" x="187.289259" xlink:href="#m52d8661ea1" y="265.778524"/>
     <use style="fill-opacity:0;stroke:#000080;stroke-width:1.5;" x="238.782109" xlink:href="#m52d8661ea1" y="205.248377"/>
     <use style="fill-opacity:0;stroke:#000080;stroke-width:1.5;" x="238.782109" xlink:href="#m52d8661ea1" y="204.996168"/>
     <use style="fill-opacity:0;stroke:#000080;stroke-width:1.5;" x="238.782109" xlink:href="#m52d8661ea1" y="204.996168"/>
     <use style="fill-opacity:0;stroke:#000080;stroke-width:1.5;" x="338.688" xlink:href="#m52d8661ea1" y="204.996168"/>
    </g>
   </g>
   <g id="line2d_37">
    <path style="fill:none;stroke:#000080;stroke-linecap:square;stroke-width:1.5;"/>
    <g/>
   </g>
   <g id="line2d_38">
    <path clip-path="url(#pd3f22936b4)" d="M 258.377195 204.996168 
" style="fill:none;stroke:#000080;stroke-linecap:square;stroke-width:1.5;"/>
    <defs>
     <path d="M -12 12 
L 12 -12 
M -12 -12 
L 12 12 
" id="m78d9d36b24" style="stroke:#000080;"/>
    </defs>
    <g clip-path="url(#pd3f22936b4)">
     <use style="fill:#000080;stroke:#000080;" x="258.377195" xlink:href="#m78d9d36b24" y="204.996168"/>
    </g>
   </g>
   <g id="line2d_39">
    <defs>
     <path d="M 0 1.5 
C 0.397805 1.5 0.77937 1.341951 1.06066 1.06066 
C 1.341951 0.77937 1.5 0.397805 1.5 0 
C 1.5 -0.397805 1.341951 -0.77937 1.06066 -1.06066 
C 0.77937 -1.341951 0.397805 -1.5 0 -1.5 
C -0.397805 -1.5 -0.77937 -1.341951 -1.06066 -1.06066 
C -1.341951 -0.77937 -1.5 -0.397805 -1.5 0 
C -1.5 0.397805 -1.341951 0.77937 -1.06066 1.06066 
C -0.77937 1.341951 -0.397805 1.5 0 1.5 
z
" id="m6d3e62f1bc" style="stroke:#ff00ff;"/>
    </defs>
    <g>
     <use style="fill:#ff00ff;stroke:#ff00ff;" x="258.006751" xlink:href="#m6d3e62f1bc" y="251.402614"/>
     <use style="fill:#ff00ff;stroke:#ff00ff;" x="258.006751" xlink:href="#m6d3e62f1bc" y="251.402614"/>
    </g>
   </g>
   <g id="line2d_40">
    <path d="M 5.356583 298.944 
L 5.356583 292.386567 
L 103.747386 292.386567 
L 103.809118 292.008254 
L 109.131511 292.008254 
L 109.131511 291.88215 
L 111.936179 291.88215 
L 111.936179 291.756045 
L 113.13163 291.756045 
L 113.13163 291.629941 
L 113.382559 291.629941 
L 113.453595 291.377732 
L 113.55961 291.377732 
L 113.55961 291.125523 
L 116.502698 291.125523 
L 116.502698 290.999418 
L 116.621333 290.999418 
L 116.621333 290.873314 
L 116.972471 290.873314 
L 116.972471 290.747209 
L 120.045484 290.747209 
L 120.045484 290.621105 
L 120.286695 290.621105 
L 120.286695 290.495 
L 122.926996 290.495 
L 122.926996 290.368896 
L 123.333999 290.368896 
L 123.333999 290.242791 
L 123.94666 290.242791 
L 124.043491 289.864478 
L 124.158984 289.864478 
L 124.235556 289.233956 
L 124.311793 289.233956 
L 124.349787 288.981747 
L 124.557288 288.981747 
L 124.594752 288.729538 
L 124.706662 288.729538 
L 124.780872 288.351224 
L 125.399222 288.351224 
L 125.399222 288.22512 
L 125.629974 288.22512 
L 125.647598 287.972911 
L 125.857712 287.972911 
L 125.961828 287.594597 
L 126.372183 287.594597 
L 126.389073 287.342389 
L 126.50685 287.342389 
L 126.590491 286.964075 
L 126.740043 286.964075 
L 126.756581 286.711866 
L 126.953823 286.711866 
L 127.051614 286.333553 
L 127.705564 286.333553 
L 127.814803 285.576926 
L 128.031251 285.576926 
L 128.046609 285.324717 
L 128.531065 285.324717 
L 128.531065 285.198612 
L 129.031467 285.198612 
L 129.031467 285.072508 
L 129.175952 285.072508 
L 129.262072 284.694195 
L 129.304973 284.694195 
L 129.39046 284.189777 
L 129.46138 284.189777 
L 129.546106 283.937568 
L 129.728278 283.937568 
L 129.79784 283.685359 
L 130.505303 283.685359 
L 130.61164 283.43315 
L 130.638123 283.43315 
L 130.717333 283.054836 
L 130.76994 283.054836 
L 130.809292 282.802628 
L 130.887729 282.802628 
L 130.939826 282.550419 
L 131.133813 282.550419 
L 131.172353 282.29821 
L 131.363785 282.29821 
L 131.439773 282.046001 
L 131.628308 282.046001 
L 131.715598 281.793792 
L 131.814826 281.793792 
L 131.925787 281.415478 
L 132.023829 281.415478 
L 132.023829 281.289374 
L 132.145613 281.289374 
L 132.145613 281.163269 
L 132.517825 281.163269 
L 132.517825 281.037165 
L 132.940331 281.037165 
L 133.044378 280.784956 
L 133.250627 280.784956 
L 133.29613 280.532747 
L 133.398082 280.532747 
L 133.398082 280.406643 
L 133.600213 280.406643 
L 133.600213 280.280538 
L 134.073807 280.280538 
L 134.073807 280.154434 
L 134.311226 280.154434 
L 134.311226 280.028329 
L 134.428735 280.028329 
L 134.439378 279.77612 
L 134.766144 279.77612 
L 134.766144 279.650016 
L 135.148305 279.650016 
L 135.178927 279.397807 
L 135.612036 279.397807 
L 135.612036 279.271702 
L 135.829535 279.271702 
L 135.907958 279.019493 
L 136.005494 279.019493 
L 136.005494 278.893389 
L 136.20856 278.893389 
L 136.20856 278.767284 
L 136.323544 278.767284 
L 136.323544 278.64118 
L 137.352682 278.64118 
L 137.352682 278.515075 
L 138.041164 278.515075 
L 138.041164 278.388971 
L 138.67848 278.388971 
L 138.67848 278.262867 
L 138.877599 278.262867 
L 138.877599 278.136762 
L 139.196394 278.136762 
L 139.196394 278.010658 
L 139.453687 278.010658 
L 139.453687 277.884553 
L 139.793552 277.884553 
L 139.793552 277.758449 
L 139.933878 277.758449 
L 139.972658 277.50624 
L 140.096177 277.50624 
L 140.165274 277.127926 
L 140.287441 277.127926 
L 140.287441 277.001822 
L 140.708409 277.001822 
L 140.708409 276.875717 
L 140.995694 276.875717 
L 140.995694 276.749613 
L 141.141205 276.749613 
L 141.141205 276.623508 
L 141.307054 276.623508 
L 141.335737 276.371299 
L 141.535208 276.371299 
L 141.535208 276.245195 
L 141.69035 276.245195 
L 141.69035 276.11909 
L 142.42583 276.11909 
L 142.42583 275.992986 
L 142.613279 275.992986 
L 142.613279 275.866882 
L 142.851361 275.866882 
L 142.851361 275.740777 
L 143.11861 275.740777 
L 143.11861 275.614673 
L 143.260342 275.614673 
L 143.27958 275.362464 
L 144.044473 275.362464 
L 144.044473 275.236359 
L 144.871077 275.236359 
L 144.871077 275.110255 
L 145.304409 275.110255 
L 145.304409 274.98415 
L 145.921099 274.98415 
L 145.921099 274.858046 
L 146.548634 274.858046 
L 146.548634 274.731941 
L 147.159502 274.731941 
L 147.159502 274.605837 
L 147.312748 274.605837 
L 147.312748 274.479732 
L 147.459617 274.479732 
L 147.459617 274.227523 
L 148.563676 274.227523 
L 148.563676 274.101419 
L 149.18674 274.101419 
L 149.18674 273.975314 
L 150.254196 273.975314 
L 150.254196 273.84921 
L 151.158379 273.84921 
L 151.219462 273.597001 
L 151.63719 273.597001 
L 151.63719 273.470897 
L 151.951845 273.470897 
L 151.951845 273.344792 
L 152.379233 273.344792 
L 152.379233 273.218688 
L 152.959038 273.218688 
L 152.959038 273.092583 
L 153.690359 273.092583 
L 153.690359 272.966479 
L 154.324333 272.966479 
L 154.324333 272.840374 
L 154.611142 272.840374 
L 154.611142 272.71427 
L 155.810534 272.71427 
L 155.810534 272.588165 
L 156.756059 272.588165 
L 156.756059 272.462061 
L 157.049508 272.462061 
L 157.049508 272.335956 
L 157.748256 272.335956 
L 157.748256 272.209852 
L 157.862503 272.209852 
L 157.862503 272.083747 
L 158.417392 272.083747 
L 158.455018 271.831538 
L 159.288488 271.831538 
L 159.393106 271.579329 
L 159.743188 271.579329 
L 159.743188 271.327121 
L 160.793103 271.327121 
L 160.793103 271.201016 
L 160.968303 271.201016 
L 160.968303 271.074912 
L 162.402232 271.074912 
L 162.402232 270.948807 
L 162.703612 270.948807 
L 162.703612 270.822703 
L 163.119446 270.822703 
L 163.221874 270.570494 
L 164.518494 270.570494 
L 164.518494 270.444389 
L 165.297246 270.444389 
L 165.297246 270.318285 
L 165.577863 270.318285 
L 165.577863 270.19218 
L 166.814208 270.19218 
L 166.814208 269.939971 
L 168.143604 269.939971 
L 168.143604 269.687762 
L 168.445948 269.687762 
L 168.445948 269.561658 
L 168.783275 269.561658 
L 168.783275 269.435553 
L 168.931129 269.435553 
L 168.931129 269.309449 
L 170.576532 269.309449 
L 170.576532 269.183344 
L 171.91823 269.183344 
L 171.91823 269.05724 
L 172.3362 269.05724 
L 172.446067 268.805031 
L 172.984089 268.805031 
L 172.984089 268.678927 
L 173.64813 268.678927 
L 173.64813 268.552822 
L 173.984132 268.552822 
L 173.984132 268.426718 
L 174.854611 268.426718 
L 174.854611 268.300613 
L 175.704678 268.300613 
L 175.704678 268.048404 
L 176.781004 268.048404 
L 176.781004 267.796195 
L 177.169932 267.796195 
L 177.169932 267.670091 
L 178.074132 267.670091 
L 178.074132 267.543986 
L 178.833909 267.543986 
L 178.833909 267.417882 
L 179.702248 267.417882 
L 179.702248 267.291777 
L 179.828021 267.291777 
L 179.828021 267.165673 
L 180.452758 267.165673 
L 180.452758 267.039568 
L 181.019854 267.039568 
L 181.019854 266.913464 
L 181.626058 266.913464 
L 181.626058 266.78736 
L 182.878232 266.78736 
L 182.931748 266.535151 
L 184.719614 266.535151 
L 184.719614 266.409046 
L 185.412981 266.409046 
L 185.412981 266.282942 
L 185.788277 266.282942 
L 185.788277 266.156837 
L 187.453422 266.156837 
L 187.453422 266.030733 
L 187.880803 266.030733 
L 187.880803 265.904628 
L 189.493611 265.904628 
L 189.493611 265.652419 
L 191.16386 265.652419 
L 191.16386 265.526315 
L 191.515382 265.526315 
L 191.515382 265.40021 
L 192.59238 265.40021 
L 192.59238 265.274106 
L 192.867695 265.274106 
L 192.867695 265.148001 
L 193.443209 265.148001 
L 193.487922 264.895792 
L 194.266855 264.895792 
L 194.266855 264.769688 
L 194.599444 264.769688 
L 194.599444 264.643583 
L 195.772443 264.643583 
L 195.772443 264.517479 
L 196.026156 264.517479 
L 196.107538 264.139166 
L 196.827834 264.139166 
L 196.827834 264.013061 
L 197.115957 264.013061 
L 197.115957 263.886957 
L 197.570923 263.886957 
L 197.570923 263.760852 
L 198.296763 263.760852 
L 198.296763 263.508643 
L 198.967051 263.508643 
L 198.969944 263.256434 
L 199.661884 263.256434 
L 199.661884 263.004225 
L 202.111195 263.004225 
L 202.111195 262.878121 
L 202.525733 262.878121 
L 202.525733 262.752016 
L 203.52699 262.752016 
L 203.52699 262.499807 
L 203.904206 262.499807 
L 203.904206 262.247598 
L 204.485949 262.247598 
L 204.485949 262.121494 
L 205.008778 262.121494 
L 205.008778 261.869285 
L 206.013153 261.869285 
L 206.013153 261.743181 
L 206.417239 261.743181 
L 206.506916 261.364867 
L 207.181125 261.364867 
L 207.27334 260.986554 
L 209.761051 260.986554 
L 209.761051 260.860449 
L 209.87611 260.860449 
L 209.87611 260.734345 
L 210.641428 260.734345 
L 210.641428 260.60824 
L 210.984537 260.60824 
L 210.995626 260.356031 
L 211.533313 260.356031 
L 211.533313 260.103822 
L 213.343359 260.103822 
L 213.343359 259.977718 
L 213.60676 259.977718 
L 213.68984 259.599405 
L 214.892762 259.599405 
L 214.892762 259.4733 
L 215.176964 259.4733 
L 215.284305 259.221091 
L 215.763492 259.221091 
L 215.763492 259.094987 
L 216.409378 259.094987 
L 216.409378 258.842778 
L 216.824846 258.842778 
L 216.824846 258.716673 
L 217.39462 258.716673 
L 217.39462 258.590569 
L 217.735865 258.590569 
L 217.735865 258.33836 
L 217.905214 258.33836 
L 217.905214 258.212255 
L 218.612222 258.212255 
L 218.612222 257.960046 
L 218.846738 257.960046 
L 218.846738 257.707837 
L 219.560549 257.707837 
L 219.560549 257.455629 
L 220.491831 257.455629 
L 220.552052 256.951211 
L 225.732087 256.951211 
L 225.732087 256.825106 
L 226.238179 256.825106 
L 226.238179 256.699002 
L 226.400246 256.699002 
L 226.400246 256.572897 
L 227.785043 256.572897 
L 227.785043 256.446793 
L 229.082708 256.446793 
L 229.082708 256.320688 
L 234.421663 256.320688 
L 234.421663 256.194584 
L 235.182684 256.194584 
L 235.182684 256.068479 
L 235.435501 256.068479 
L 235.538337 255.690166 
L 236.260704 255.690166 
L 236.260704 255.564061 
L 237.505951 255.564061 
L 237.505951 255.311853 
L 239.733145 255.311853 
L 239.733145 255.185748 
L 241.913859 255.185748 
L 241.913859 254.933539 
L 242.175434 254.933539 
L 242.280367 254.555226 
L 242.720816 254.555226 
L 242.76497 254.176912 
L 243.219217 254.176912 
L 243.304439 253.924703 
L 243.889085 253.924703 
L 243.889085 253.798599 
L 244.522017 253.798599 
L 244.522017 253.54639 
L 244.69095 253.54639 
L 244.69095 253.420285 
L 245.181795 253.420285 
L 245.181795 253.294181 
L 245.36467 253.294181 
L 245.36467 253.168076 
L 245.762354 253.168076 
L 245.762354 253.041972 
L 246.837607 253.041972 
L 246.837607 252.915868 
L 246.98078 252.915868 
L 246.98078 252.789763 
L 248.722938 252.789763 
L 248.722938 252.663659 
L 248.907639 252.663659 
L 248.907639 252.537554 
L 252.983422 252.537554 
L 252.983422 252.41145 
L 254.637221 252.41145 
L 254.637221 252.159241 
L 254.985411 252.159241 
L 254.985411 252.033136 
L 255.277911 252.033136 
L 255.277911 251.780927 
L 257.159211 251.780927 
L 257.159211 251.654823 
L 258.006751 251.654823 
L 258.006751 251.402614 
L 338.688 251.402614 
L 338.688 251.402614 
" style="fill:none;stroke:#ff00ff;stroke-linecap:square;stroke-width:1.5;"/>
   </g>
   <g id="line2d_41">
    <defs>
     <path d="M 0 8.485281 
L 5.091169 0 
L 0 -8.485281 
L -5.091169 0 
z
" id="m570dc678d3" style="stroke:#ff00ff;stroke-linejoin:miter;stroke-width:1.5;"/>
    </defs>
    <g>
     <use style="fill-opacity:0;stroke:#ff00ff;stroke-linejoin:miter;stroke-width:1.5;" x="127.051614" xlink:href="#m570dc678d3" y="286.333553"/>
     <use style="fill-opacity:0;stroke:#ff00ff;stroke-linejoin:miter;stroke-width:1.5;" x="202.525733" xlink:href="#m570dc678d3" y="262.752016"/>
     <use style="fill-opacity:0;stroke:#ff00ff;stroke-linejoin:miter;stroke-width:1.5;" x="258.006751" xlink:href="#m570dc678d3" y="251.654823"/>
     <use style="fill-opacity:0;stroke:#ff00ff;stroke-linejoin:miter;stroke-width:1.5;" x="258.006751" xlink:href="#m570dc678d3" y="251.402614"/>
     <use style="fill-opacity:0;stroke:#ff00ff;stroke-linejoin:miter;stroke-width:1.5;" x="338.688" xlink:href="#m570dc678d3" y="251.402614"/>
    </g>
   </g>
   <g id="line2d_42">
    <path style="fill:none;stroke:#ff00ff;stroke-linecap:square;stroke-width:1.5;"/>
    <g/>
   </g>
   <g id="line2d_43">
    <path clip-path="url(#pd3f22936b4)" d="M 258.378076 251.402614 
" style="fill:none;stroke:#ff00ff;stroke-linecap:square;stroke-width:1.5;"/>
    <defs>
     <path d="M -12 12 
L 12 -12 
M -12 -12 
L 12 12 
" id="m43818b0bb8" style="stroke:#ff00ff;"/>
    </defs>
    <g clip-path="url(#pd3f22936b4)">
     <use style="fill:#ff00ff;stroke:#ff00ff;" x="258.378076" xlink:href="#m43818b0bb8" y="251.402614"/>
    </g>
   </g>
   <g id="line2d_44">
    <defs>
     <path d="M 0 1.5 
C 0.397805 1.5 0.77937 1.341951 1.06066 1.06066 
C 1.341951 0.77937 1.5 0.397805 1.5 0 
C 1.5 -0.397805 1.341951 -0.77937 1.06066 -1.06066 
C 0.77937 -1.341951 0.397805 -1.5 0 -1.5 
C -0.397805 -1.5 -0.77937 -1.341951 -1.06066 -1.06066 
C -1.341951 -0.77937 -1.5 -0.397805 -1.5 0 
C -1.5 0.397805 -1.341951 0.77937 -1.06066 1.06066 
C -0.77937 1.341951 -0.397805 1.5 0 1.5 
z
" id="m18b464bfd7" style="stroke:#ff7500;"/>
    </defs>
    <g>
     <use style="fill:#ff7500;stroke:#ff7500;" x="255.833839" xlink:href="#m18b464bfd7" y="246.736748"/>
     <use style="fill:#ff7500;stroke:#ff7500;" x="255.833839" xlink:href="#m18b464bfd7" y="246.736748"/>
    </g>
   </g>
   <g id="line2d_45">
    <path d="M 150.543935 298.944 
L 150.543935 298.817896 
L 150.874606 298.817896 
L 150.874606 298.691791 
L 151.051992 298.691791 
L 151.051992 298.565687 
L 151.260066 298.565687 
L 151.260066 298.439582 
L 151.401439 298.439582 
L 151.437608 298.187373 
L 151.736131 298.187373 
L 151.838437 297.935164 
L 152.052897 297.935164 
L 152.052897 297.80906 
L 152.184165 297.80906 
L 152.283884 297.556851 
L 152.299175 297.556851 
L 152.371625 297.304642 
L 152.508077 297.304642 
L 152.508077 297.178537 
L 152.624728 297.178537 
L 152.624728 297.052433 
L 152.759222 297.052433 
L 152.848312 296.674119 
L 152.947997 296.674119 
L 152.970072 296.421911 
L 153.229193 296.421911 
L 153.27261 296.043597 
L 153.344733 296.043597 
L 153.344733 295.917493 
L 153.562884 295.917493 
L 153.644434 295.539179 
L 153.686831 295.539179 
L 153.778339 294.656448 
L 153.81691 294.656448 
L 153.886821 293.647612 
L 154.053472 293.647612 
L 154.108671 293.395403 
L 154.249325 293.395403 
L 154.341335 292.890985 
L 154.368504 292.890985 
L 154.46664 292.512672 
L 154.500352 292.512672 
L 154.500352 292.260463 
L 154.641235 292.260463 
L 154.741174 291.756045 
L 154.840544 291.756045 
L 154.840544 291.629941 
L 154.955763 291.629941 
L 155.050658 290.747209 
L 155.076745 290.747209 
L 155.180705 289.612269 
L 155.313005 289.612269 
L 155.313005 289.486165 
L 155.457066 289.486165 
L 155.561959 288.981747 
L 155.603109 288.981747 
L 155.713414 288.22512 
L 155.83863 288.22512 
L 155.904009 287.720702 
L 156.012434 287.720702 
L 156.110979 287.342389 
L 156.163105 287.342389 
L 156.196751 287.09018 
L 156.276021 287.09018 
L 156.37914 286.081344 
L 156.436501 286.081344 
L 156.49067 285.576926 
L 156.580579 285.576926 
L 156.678946 285.072508 
L 156.708645 285.072508 
L 156.735331 284.441986 
L 156.823991 284.441986 
L 156.894595 284.189777 
L 156.947361 284.189777 
L 157.03204 283.685359 
L 157.104709 283.685359 
L 157.148166 282.802628 
L 157.231877 282.802628 
L 157.303721 282.424314 
L 157.352406 282.424314 
L 157.400956 281.919896 
L 157.480626 281.919896 
L 157.554281 281.541583 
L 157.669802 281.541583 
L 157.767815 281.037165 
L 157.781772 281.037165 
L 157.873609 280.532747 
L 157.909655 280.532747 
L 157.909655 280.406643 
L 158.066829 280.406643 
L 158.17083 279.523911 
L 158.179014 279.523911 
L 158.279639 279.145598 
L 158.312149 279.145598 
L 158.393162 278.767284 
L 158.495241 278.767284 
L 158.604712 278.515075 
L 158.631308 278.515075 
L 158.710855 278.010658 
L 158.931675 278.010658 
L 159.038449 277.127926 
L 159.048831 277.127926 
L 159.116165 276.11909 
L 159.288488 276.11909 
L 159.360003 275.488568 
L 159.405822 275.488568 
L 159.494572 275.110255 
L 159.63062 275.110255 
L 159.713241 274.731941 
L 159.760634 274.731941 
L 159.817832 273.975314 
L 159.889686 273.975314 
L 159.963706 273.344792 
L 160.030058 273.344792 
L 160.069258 273.092583 
L 160.220333 273.092583 
L 160.312284 272.588165 
L 160.382133 272.588165 
L 160.442124 272.335956 
L 160.511455 272.335956 
L 160.556731 271.831538 
L 160.73902 271.831538 
L 160.73902 271.705434 
L 160.940389 271.705434 
L 160.940389 271.579329 
L 161.109513 271.579329 
L 161.217539 271.074912 
L 161.3249 271.074912 
L 161.395353 270.444389 
L 161.501628 270.444389 
L 161.501628 270.318285 
L 161.618459 270.318285 
L 161.678815 269.939971 
L 161.85201 269.939971 
L 161.944561 269.435553 
L 162.069386 269.435553 
L 162.069386 269.309449 
L 162.201988 269.309449 
L 162.212813 269.05724 
L 162.342185 269.05724 
L 162.344333 268.805031 
L 162.646707 268.805031 
L 162.749842 268.174509 
L 162.825228 268.174509 
L 162.877388 267.9223 
L 162.981243 267.9223 
L 163.070067 267.417882 
L 163.150238 267.417882 
L 163.150238 267.291777 
L 163.327764 267.291777 
L 163.418884 266.913464 
L 163.483392 266.913464 
L 163.555679 266.282942 
L 163.705322 266.282942 
L 163.774719 266.030733 
L 163.833982 266.030733 
L 163.924464 265.778524 
L 164.043731 265.778524 
L 164.043731 265.652419 
L 164.206643 265.652419 
L 164.206643 265.526315 
L 164.415798 265.526315 
L 164.415798 265.40021 
L 164.554485 265.40021 
L 164.65637 264.895792 
L 164.727712 264.895792 
L 164.727712 264.769688 
L 164.908508 264.769688 
L 164.962199 264.391375 
L 165.056222 264.391375 
L 165.056222 264.26527 
L 165.270024 264.26527 
L 165.288176 264.013061 
L 165.595698 264.013061 
L 165.656202 263.760852 
L 165.841738 263.760852 
L 165.841738 263.634748 
L 166.058334 263.634748 
L 166.106873 263.13033 
L 166.297976 263.13033 
L 166.374858 262.752016 
L 166.464974 262.752016 
L 166.564749 262.373703 
L 166.660601 262.373703 
L 166.660601 262.247598 
L 166.832484 262.247598 
L 166.880574 261.869285 
L 167.189155 261.869285 
L 167.189155 261.743181 
L 167.328514 261.743181 
L 167.328514 261.617076 
L 167.522723 261.617076 
L 167.621403 261.364867 
L 167.744761 261.364867 
L 167.744761 261.238763 
L 167.909454 261.238763 
L 167.909454 260.986554 
L 168.306117 260.986554 
L 168.306117 260.734345 
L 168.599679 260.734345 
L 168.682014 260.482136 
L 169.260732 260.482136 
L 169.314106 260.229927 
L 169.407475 260.229927 
L 169.426089 259.977718 
L 169.592728 259.977718 
L 169.592728 259.851614 
L 169.784448 259.851614 
L 169.87534 259.347196 
L 170.284722 259.347196 
L 170.284722 259.221091 
L 170.772368 259.221091 
L 170.850355 258.842778 
L 170.998753 258.842778 
L 170.998753 258.716673 
L 171.643157 258.716673 
L 171.643157 258.464464 
L 172.549266 258.464464 
L 172.549266 258.33836 
L 172.714783 258.33836 
L 172.714783 258.086151 
L 172.902209 258.086151 
L 172.902209 257.960046 
L 173.390101 257.960046 
L 173.390101 257.707837 
L 173.910145 257.707837 
L 173.910145 257.581733 
L 174.464511 257.581733 
L 174.464511 257.455629 
L 174.742082 257.455629 
L 174.742082 257.329524 
L 175.223864 257.329524 
L 175.223864 257.077315 
L 175.707673 257.077315 
L 175.707673 256.951211 
L 176.362065 256.951211 
L 176.362065 256.699002 
L 176.691603 256.699002 
L 176.691603 256.446793 
L 177.101871 256.446793 
L 177.101871 256.194584 
L 177.630126 256.194584 
L 177.720192 255.942375 
L 178.875579 255.942375 
L 178.875579 255.690166 
L 179.116148 255.690166 
L 179.116148 255.564061 
L 179.789358 255.564061 
L 179.789358 255.437957 
L 180.003686 255.437957 
L 180.003686 255.311853 
L 180.59363 255.311853 
L 180.59363 255.059644 
L 181.425843 255.059644 
L 181.425843 254.933539 
L 182.891461 254.933539 
L 182.891461 254.807435 
L 183.457426 254.807435 
L 183.457426 254.555226 
L 184.597727 254.555226 
L 184.597727 254.429121 
L 184.887893 254.429121 
L 184.887893 254.303017 
L 186.341654 254.303017 
L 186.341654 254.176912 
L 186.960935 254.176912 
L 186.960935 254.050808 
L 188.593682 254.050808 
L 188.593682 253.924703 
L 190.623559 253.924703 
L 190.623559 253.672494 
L 191.358216 253.672494 
L 191.358216 253.54639 
L 193.336737 253.54639 
L 193.336737 253.420285 
L 193.649942 253.420285 
L 193.649942 253.294181 
L 194.06909 253.294181 
L 194.06909 253.168076 
L 195.080322 253.168076 
L 195.080322 253.041972 
L 195.402087 253.041972 
L 195.494774 252.789763 
L 197.248821 252.789763 
L 197.248821 252.537554 
L 198.063975 252.537554 
L 198.063975 252.41145 
L 199.113207 252.41145 
L 199.113207 252.159241 
L 199.60061 252.159241 
L 199.60061 252.033136 
L 199.866172 252.033136 
L 199.866172 251.907032 
L 200.779615 251.907032 
L 200.779615 251.780927 
L 203.497804 251.780927 
L 203.497804 251.654823 
L 204.114192 251.654823 
L 204.114192 251.528718 
L 204.773567 251.528718 
L 204.773567 251.402614 
L 207.281507 251.402614 
L 207.281507 251.276509 
L 208.055201 251.276509 
L 208.055201 251.0243 
L 208.496913 251.0243 
L 208.496913 250.898196 
L 211.841381 250.898196 
L 211.841381 250.772091 
L 211.99209 250.772091 
L 211.99209 250.645987 
L 214.424495 250.645987 
L 214.424495 250.393778 
L 215.766203 250.393778 
L 215.766203 250.267674 
L 216.817665 250.267674 
L 216.817665 250.141569 
L 217.795029 250.141569 
L 217.795029 250.015465 
L 218.815415 250.015465 
L 218.815415 249.88936 
L 221.08147 249.88936 
L 221.08147 249.763256 
L 224.007453 249.763256 
L 224.007453 249.637151 
L 225.907323 249.637151 
L 225.907323 249.511047 
L 226.039373 249.511047 
L 226.039373 249.384942 
L 227.179082 249.384942 
L 227.179082 249.132733 
L 227.778642 249.132733 
L 227.778642 248.880524 
L 230.656927 248.880524 
L 230.656927 248.628315 
L 231.72428 248.628315 
L 231.72428 248.502211 
L 235.869521 248.502211 
L 235.869521 248.250002 
L 240.431969 248.250002 
L 240.431969 247.997793 
L 247.198087 247.997793 
L 247.198087 247.745584 
L 248.292302 247.745584 
L 248.292302 247.61948 
L 248.965758 247.61948 
L 248.965758 247.367271 
L 254.661559 247.367271 
L 254.676648 246.988957 
L 255.833839 246.988957 
L 255.833839 246.736748 
L 338.688 246.736748 
L 338.688 246.736748 
" style="fill:none;stroke:#ff7500;stroke-linecap:square;stroke-width:1.5;"/>
   </g>
   <g id="line2d_46">
    <defs>
     <path d="M 0 -6 
L -1.347084 -1.854102 
L -5.706339 -1.854102 
L -2.179628 0.708204 
L -3.526712 4.854102 
L -0 2.291796 
L 3.526712 4.854102 
L 2.179628 0.708204 
L 5.706339 -1.854102 
L 1.347084 -1.854102 
z
" id="m189f26e568" style="stroke:#ff7500;stroke-linejoin:bevel;stroke-width:1.5;"/>
    </defs>
    <g>
     <use style="fill-opacity:0;stroke:#ff7500;stroke-linejoin:bevel;stroke-width:1.5;" x="161.865262" xlink:href="#m189f26e568" y="269.687762"/>
     <use style="fill-opacity:0;stroke:#ff7500;stroke-linejoin:bevel;stroke-width:1.5;" x="208.496913" xlink:href="#m189f26e568" y="251.0243"/>
     <use style="fill-opacity:0;stroke:#ff7500;stroke-linejoin:bevel;stroke-width:1.5;" x="255.833839" xlink:href="#m189f26e568" y="246.988957"/>
     <use style="fill-opacity:0;stroke:#ff7500;stroke-linejoin:bevel;stroke-width:1.5;" x="255.833839" xlink:href="#m189f26e568" y="246.736748"/>
     <use style="fill-opacity:0;stroke:#ff7500;stroke-linejoin:bevel;stroke-width:1.5;" x="338.688" xlink:href="#m189f26e568" y="246.736748"/>
    </g>
   </g>
   <g id="line2d_47">
    <path style="fill:none;stroke:#ff7500;stroke-linecap:square;stroke-width:1.5;"/>
    <g/>
   </g>
   <g id="line2d_48">
    <path clip-path="url(#pd3f22936b4)" d="M 258.377152 246.736748 
" style="fill:none;stroke:#ff7500;stroke-linecap:square;stroke-width:1.5;"/>
    <defs>
     <path d="M -12 12 
L 12 -12 
M -12 -12 
L 12 12 
" id="md08253dc07" style="stroke:#ff7500;"/>
    </defs>
    <g clip-path="url(#pd3f22936b4)">
     <use style="fill:#ff7500;stroke:#ff7500;" x="258.377152" xlink:href="#md08253dc07" y="246.736748"/>
    </g>
   </g>
   <g id="line2d_49">
    <path d="M 338.688 251.402614 
L 369.60768 293.092752 
" style="fill:none;stroke:#ff00ff;stroke-linecap:square;stroke-width:1.5;"/>
    <g>
     <use style="fill-opacity:0;stroke:#ff00ff;stroke-linejoin:miter;stroke-width:1.5;" x="338.688" xlink:href="#m570dc678d3" y="251.402614"/>
     <use style="fill-opacity:0;stroke:#ff00ff;stroke-linejoin:miter;stroke-width:1.5;" x="369.60768" xlink:href="#m570dc678d3" y="293.092752"/>
    </g>
   </g>
   <g id="line2d_50">
    <path d="M 338.688 246.736748 
L 369.60768 199.472792 
" style="fill:none;stroke:#ff7500;stroke-linecap:square;stroke-width:1.5;"/>
    <g>
     <use style="fill-opacity:0;stroke:#ff7500;stroke-linejoin:bevel;stroke-width:1.5;" x="338.688" xlink:href="#m189f26e568" y="246.736748"/>
     <use style="fill-opacity:0;stroke:#ff7500;stroke-linejoin:bevel;stroke-width:1.5;" x="369.60768" xlink:href="#m189f26e568" y="199.472792"/>
    </g>
   </g>
   <g id="line2d_51">
    <path d="M 338.688 204.996168 
L 369.60768 105.852832 
" style="fill:none;stroke:#000080;stroke-linecap:square;stroke-width:1.5;"/>
    <g>
     <use style="fill-opacity:0;stroke:#000080;stroke-width:1.5;" x="338.688" xlink:href="#m52d8661ea1" y="204.996168"/>
     <use style="fill-opacity:0;stroke:#000080;stroke-width:1.5;" x="369.60768" xlink:href="#m52d8661ea1" y="105.852832"/>
    </g>
   </g>
   <g id="line2d_52">
    <path d="M 338.688 298.944 
L 338.688 6.381624 
" style="fill:none;stroke:#000000;stroke-linecap:square;stroke-width:1.5;"/>
   </g>
   <g id="patch_3">
    <path d="M 57.6 298.944 
L 57.6 3.456 
" style="fill:none;stroke:#000000;stroke-linecap:square;stroke-linejoin:miter;stroke-width:0.8;"/>
   </g>
   <g id="patch_4">
    <path d="M 338.688 298.944 
L 338.688 3.456 
" style="fill:none;stroke:#000000;stroke-linecap:square;stroke-linejoin:miter;stroke-width:0.8;"/>
   </g>
   <g id="patch_5">
    <path d="M 57.6 298.944 
L 338.688 298.944 
" style="fill:none;stroke:#000000;stroke-linecap:square;stroke-linejoin:miter;stroke-width:0.8;"/>
   </g>
   <g id="patch_6">
    <path d="M 57.6 3.456 
L 338.688 3.456 
" style="fill:none;stroke:#000000;stroke-linecap:square;stroke-linejoin:miter;stroke-width:0.8;"/>
   </g>
   <g id="text_13">
    <!-- NSGA-II-M -->
    <g transform="translate(375.22944 297.78369)scale(0.17 -0.17)">
     <defs>
      <path d="M 9.8125 72.90625 
L 23.09375 72.90625 
L 55.421875 11.921875 
L 55.421875 72.90625 
L 64.984375 72.90625 
L 64.984375 0 
L 51.703125 0 
L 19.390625 60.984375 
L 19.390625 0 
L 9.8125 0 
z
" id="DejaVuSans-78"/>
      <path d="M 53.515625 70.515625 
L 53.515625 60.890625 
Q 47.90625 63.578125 42.921875 64.890625 
Q 37.9375 66.21875 33.296875 66.21875 
Q 25.25 66.21875 20.875 63.09375 
Q 16.5 59.96875 16.5 54.203125 
Q 16.5 49.359375 19.40625 46.890625 
Q 22.3125 44.4375 30.421875 42.921875 
L 36.375 41.703125 
Q 47.40625 39.59375 52.65625 34.296875 
Q 57.90625 29 57.90625 20.125 
Q 57.90625 9.515625 50.796875 4.046875 
Q 43.703125 -1.421875 29.984375 -1.421875 
Q 24.8125 -1.421875 18.96875 -0.25 
Q 13.140625 0.921875 6.890625 3.21875 
L 6.890625 13.375 
Q 12.890625 10.015625 18.65625 8.296875 
Q 24.421875 6.59375 29.984375 6.59375 
Q 38.421875 6.59375 43.015625 9.90625 
Q 47.609375 13.234375 47.609375 19.390625 
Q 47.609375 24.75 44.3125 27.78125 
Q 41.015625 30.8125 33.5 32.328125 
L 27.484375 33.5 
Q 16.453125 35.6875 11.515625 40.375 
Q 6.59375 45.0625 6.59375 53.421875 
Q 6.59375 63.09375 13.40625 68.65625 
Q 20.21875 74.21875 32.171875 74.21875 
Q 37.3125 74.21875 42.625 73.28125 
Q 47.953125 72.359375 53.515625 70.515625 
z
" id="DejaVuSans-83"/>
      <path d="M 59.515625 10.40625 
L 59.515625 29.984375 
L 43.40625 29.984375 
L 43.40625 38.09375 
L 69.28125 38.09375 
L 69.28125 6.78125 
Q 63.578125 2.734375 56.6875 0.65625 
Q 49.8125 -1.421875 42 -1.421875 
Q 24.90625 -1.421875 15.25 8.5625 
Q 5.609375 18.5625 5.609375 36.375 
Q 5.609375 54.25 15.25 64.234375 
Q 24.90625 74.21875 42 74.21875 
Q 49.125 74.21875 55.546875 72.453125 
Q 61.96875 70.703125 67.390625 67.28125 
L 67.390625 56.78125 
Q 61.921875 61.421875 55.765625 63.765625 
Q 49.609375 66.109375 42.828125 66.109375 
Q 29.4375 66.109375 22.71875 58.640625 
Q 16.015625 51.171875 16.015625 36.375 
Q 16.015625 21.625 22.71875 14.15625 
Q 29.4375 6.6875 42.828125 6.6875 
Q 48.046875 6.6875 52.140625 7.59375 
Q 56.25 8.5 59.515625 10.40625 
z
" id="DejaVuSans-71"/>
      <path d="M 34.1875 63.1875 
L 20.796875 26.90625 
L 47.609375 26.90625 
z
M 28.609375 72.90625 
L 39.796875 72.90625 
L 67.578125 0 
L 57.328125 0 
L 50.6875 18.703125 
L 17.828125 18.703125 
L 11.1875 0 
L 0.78125 0 
z
" id="DejaVuSans-65"/>
      <path d="M 9.8125 72.90625 
L 19.671875 72.90625 
L 19.671875 0 
L 9.8125 0 
z
" id="DejaVuSans-73"/>
      <path d="M 9.8125 72.90625 
L 24.515625 72.90625 
L 43.109375 23.296875 
L 61.8125 72.90625 
L 76.515625 72.90625 
L 76.515625 0 
L 66.890625 0 
L 66.890625 64.015625 
L 48.09375 14.015625 
L 38.1875 14.015625 
L 19.390625 64.015625 
L 19.390625 0 
L 9.8125 0 
z
" id="DejaVuSans-77"/>
     </defs>
     <use xlink:href="#DejaVuSans-78"/>
     <use x="74.804688" xlink:href="#DejaVuSans-83"/>
     <use x="138.28125" xlink:href="#DejaVuSans-71"/>
     <use x="215.771484" xlink:href="#DejaVuSans-65"/>
     <use x="281.929688" xlink:href="#DejaVuSans-45"/>
     <use x="318.013672" xlink:href="#DejaVuSans-73"/>
     <use x="347.505859" xlink:href="#DejaVuSans-73"/>
     <use x="376.998047" xlink:href="#DejaVuSans-45"/>
     <use x="413.082031" xlink:href="#DejaVuSans-77"/>
    </g>
   </g>
   <g id="text_14">
    <!-- SMS-EMOA- -->
    <g transform="translate(375.22944 204.16373)scale(0.17 -0.17)">
     <defs>
      <path d="M 9.8125 72.90625 
L 55.90625 72.90625 
L 55.90625 64.59375 
L 19.671875 64.59375 
L 19.671875 43.015625 
L 54.390625 43.015625 
L 54.390625 34.71875 
L 19.671875 34.71875 
L 19.671875 8.296875 
L 56.78125 8.296875 
L 56.78125 0 
L 9.8125 0 
z
" id="DejaVuSans-69"/>
      <path d="M 39.40625 66.21875 
Q 28.65625 66.21875 22.328125 58.203125 
Q 16.015625 50.203125 16.015625 36.375 
Q 16.015625 22.609375 22.328125 14.59375 
Q 28.65625 6.59375 39.40625 6.59375 
Q 50.140625 6.59375 56.421875 14.59375 
Q 62.703125 22.609375 62.703125 36.375 
Q 62.703125 50.203125 56.421875 58.203125 
Q 50.140625 66.21875 39.40625 66.21875 
z
M 39.40625 74.21875 
Q 54.734375 74.21875 63.90625 63.9375 
Q 73.09375 53.65625 73.09375 36.375 
Q 73.09375 19.140625 63.90625 8.859375 
Q 54.734375 -1.421875 39.40625 -1.421875 
Q 24.03125 -1.421875 14.8125 8.828125 
Q 5.609375 19.09375 5.609375 36.375 
Q 5.609375 53.65625 14.8125 63.9375 
Q 24.03125 74.21875 39.40625 74.21875 
z
" id="DejaVuSans-79"/>
     </defs>
     <use xlink:href="#DejaVuSans-83"/>
     <use x="63.476562" xlink:href="#DejaVuSans-77"/>
     <use x="149.755859" xlink:href="#DejaVuSans-83"/>
     <use x="213.232422" xlink:href="#DejaVuSans-45"/>
     <use x="249.316406" xlink:href="#DejaVuSans-69"/>
     <use x="312.5" xlink:href="#DejaVuSans-77"/>
     <use x="398.779297" xlink:href="#DejaVuSans-79"/>
     <use x="475.740234" xlink:href="#DejaVuSans-65"/>
     <use x="541.898438" xlink:href="#DejaVuSans-45"/>
    </g>
   </g>
   <g id="text_15">
    <!-- COMO-100  -->
    <g transform="translate(375.22944 110.543769)scale(0.17 -0.17)">
     <defs>
      <path d="M 64.40625 67.28125 
L 64.40625 56.890625 
Q 59.421875 61.53125 53.78125 63.8125 
Q 48.140625 66.109375 41.796875 66.109375 
Q 29.296875 66.109375 22.65625 58.46875 
Q 16.015625 50.828125 16.015625 36.375 
Q 16.015625 21.96875 22.65625 14.328125 
Q 29.296875 6.6875 41.796875 6.6875 
Q 48.140625 6.6875 53.78125 8.984375 
Q 59.421875 11.28125 64.40625 15.921875 
L 64.40625 5.609375 
Q 59.234375 2.09375 53.4375 0.328125 
Q 47.65625 -1.421875 41.21875 -1.421875 
Q 24.65625 -1.421875 15.125 8.703125 
Q 5.609375 18.84375 5.609375 36.375 
Q 5.609375 53.953125 15.125 64.078125 
Q 24.65625 74.21875 41.21875 74.21875 
Q 47.75 74.21875 53.53125 72.484375 
Q 59.328125 70.75 64.40625 67.28125 
z
" id="DejaVuSans-67"/>
     </defs>
     <use xlink:href="#DejaVuSans-67"/>
     <use x="69.824219" xlink:href="#DejaVuSans-79"/>
     <use x="148.535156" xlink:href="#DejaVuSans-77"/>
     <use x="234.814453" xlink:href="#DejaVuSans-79"/>
     <use x="316.275391" xlink:href="#DejaVuSans-45"/>
     <use x="352.359375" xlink:href="#DejaVuSans-49"/>
     <use x="415.982422" xlink:href="#DejaVuSans-48"/>
     <use x="479.605469" xlink:href="#DejaVuSans-48"/>
     <use x="543.228516" xlink:href="#DejaVuSans-32"/>
    </g>
   </g>
   <g id="text_16">
    <!-- best 2016 -->
    <g transform="translate(375.22944 16.923809)scale(0.17 -0.17)">
     <defs>
      <path d="M 48.6875 27.296875 
Q 48.6875 37.203125 44.609375 42.84375 
Q 40.53125 48.484375 33.40625 48.484375 
Q 26.265625 48.484375 22.1875 42.84375 
Q 18.109375 37.203125 18.109375 27.296875 
Q 18.109375 17.390625 22.1875 11.75 
Q 26.265625 6.109375 33.40625 6.109375 
Q 40.53125 6.109375 44.609375 11.75 
Q 48.6875 17.390625 48.6875 27.296875 
z
M 18.109375 46.390625 
Q 20.953125 51.265625 25.265625 53.625 
Q 29.59375 56 35.59375 56 
Q 45.5625 56 51.78125 48.09375 
Q 58.015625 40.1875 58.015625 27.296875 
Q 58.015625 14.40625 51.78125 6.484375 
Q 45.5625 -1.421875 35.59375 -1.421875 
Q 29.59375 -1.421875 25.265625 0.953125 
Q 20.953125 3.328125 18.109375 8.203125 
L 18.109375 0 
L 9.078125 0 
L 9.078125 75.984375 
L 18.109375 75.984375 
z
" id="DejaVuSans-98"/>
     </defs>
     <use xlink:href="#DejaVuSans-98"/>
     <use x="63.476562" xlink:href="#DejaVuSans-101"/>
     <use x="125" xlink:href="#DejaVuSans-115"/>
     <use x="177.099609" xlink:href="#DejaVuSans-116"/>
     <use x="216.308594" xlink:href="#DejaVuSans-32"/>
     <use x="248.095703" xlink:href="#DejaVuSans-50"/>
     <use x="311.71875" xlink:href="#DejaVuSans-48"/>
     <use x="375.341797" xlink:href="#DejaVuSans-49"/>
     <use x="438.964844" xlink:href="#DejaVuSans-54"/>
    </g>
   </g>
   <g id="text_17">
    <!-- bbob-biobj f7, f8, f16, f17, 20-D -->
    <g transform="translate(60.41088 14.161286)scale(0.102 -0.102)">
     <defs>
      <path d="M 9.421875 54.6875 
L 18.40625 54.6875 
L 18.40625 -0.984375 
Q 18.40625 -11.421875 14.421875 -16.109375 
Q 10.453125 -20.796875 1.609375 -20.796875 
L -1.8125 -20.796875 
L -1.8125 -13.1875 
L 0.59375 -13.1875 
Q 5.71875 -13.1875 7.5625 -10.8125 
Q 9.421875 -8.453125 9.421875 -0.984375 
z
M 9.421875 75.984375 
L 18.40625 75.984375 
L 18.40625 64.59375 
L 9.421875 64.59375 
z
" id="DejaVuSans-106"/>
      <path d="M 8.203125 72.90625 
L 55.078125 72.90625 
L 55.078125 68.703125 
L 28.609375 0 
L 18.3125 0 
L 43.21875 64.59375 
L 8.203125 64.59375 
z
" id="DejaVuSans-55"/>
      <path d="M 19.671875 64.796875 
L 19.671875 8.109375 
L 31.59375 8.109375 
Q 46.6875 8.109375 53.6875 14.9375 
Q 60.6875 21.78125 60.6875 36.53125 
Q 60.6875 51.171875 53.6875 57.984375 
Q 46.6875 64.796875 31.59375 64.796875 
z
M 9.8125 72.90625 
L 30.078125 72.90625 
Q 51.265625 72.90625 61.171875 64.09375 
Q 71.09375 55.28125 71.09375 36.53125 
Q 71.09375 17.671875 61.125 8.828125 
Q 51.171875 0 30.078125 0 
L 9.8125 0 
z
" id="DejaVuSans-68"/>
     </defs>
     <use xlink:href="#DejaVuSans-98"/>
     <use x="63.476562" xlink:href="#DejaVuSans-98"/>
     <use x="126.953125" xlink:href="#DejaVuSans-111"/>
     <use x="188.134766" xlink:href="#DejaVuSans-98"/>
     <use x="251.611328" xlink:href="#DejaVuSans-45"/>
     <use x="287.695312" xlink:href="#DejaVuSans-98"/>
     <use x="351.171875" xlink:href="#DejaVuSans-105"/>
     <use x="378.955078" xlink:href="#DejaVuSans-111"/>
     <use x="440.136719" xlink:href="#DejaVuSans-98"/>
     <use x="503.613281" xlink:href="#DejaVuSans-106"/>
     <use x="531.396484" xlink:href="#DejaVuSans-32"/>
     <use x="563.183594" xlink:href="#DejaVuSans-102"/>
     <use x="598.388672" xlink:href="#DejaVuSans-55"/>
     <use x="662.011719" xlink:href="#DejaVuSans-44"/>
     <use x="693.798828" xlink:href="#DejaVuSans-32"/>
     <use x="725.585938" xlink:href="#DejaVuSans-102"/>
     <use x="760.791016" xlink:href="#DejaVuSans-56"/>
     <use x="824.414062" xlink:href="#DejaVuSans-44"/>
     <use x="856.201172" xlink:href="#DejaVuSans-32"/>
     <use x="887.988281" xlink:href="#DejaVuSans-102"/>
     <use x="923.193359" xlink:href="#DejaVuSans-49"/>
     <use x="986.816406" xlink:href="#DejaVuSans-54"/>
     <use x="1050.439453" xlink:href="#DejaVuSans-44"/>
     <use x="1082.226562" xlink:href="#DejaVuSans-32"/>
     <use x="1114.013672" xlink:href="#DejaVuSans-102"/>
     <use x="1149.21875" xlink:href="#DejaVuSans-49"/>
     <use x="1212.841797" xlink:href="#DejaVuSans-55"/>
     <use x="1276.464844" xlink:href="#DejaVuSans-44"/>
     <use x="1308.251953" xlink:href="#DejaVuSans-32"/>
     <use x="1340.039062" xlink:href="#DejaVuSans-50"/>
     <use x="1403.662109" xlink:href="#DejaVuSans-48"/>
     <use x="1467.285156" xlink:href="#DejaVuSans-45"/>
     <use x="1503.369141" xlink:href="#DejaVuSans-68"/>
    </g>
    <!-- 58 targets: 1..-1.0e-4 -->
    <g transform="translate(60.41088 25.583055)scale(0.102 -0.102)">
     <defs>
      <path d="M 10.796875 72.90625 
L 49.515625 72.90625 
L 49.515625 64.59375 
L 19.828125 64.59375 
L 19.828125 46.734375 
Q 21.96875 47.46875 24.109375 47.828125 
Q 26.265625 48.1875 28.421875 48.1875 
Q 40.625 48.1875 47.75 41.5 
Q 54.890625 34.8125 54.890625 23.390625 
Q 54.890625 11.625 47.5625 5.09375 
Q 40.234375 -1.421875 26.90625 -1.421875 
Q 22.3125 -1.421875 17.546875 -0.640625 
Q 12.796875 0.140625 7.71875 1.703125 
L 7.71875 11.625 
Q 12.109375 9.234375 16.796875 8.0625 
Q 21.484375 6.890625 26.703125 6.890625 
Q 35.15625 6.890625 40.078125 11.328125 
Q 45.015625 15.765625 45.015625 23.390625 
Q 45.015625 31 40.078125 35.4375 
Q 35.15625 39.890625 26.703125 39.890625 
Q 22.75 39.890625 18.8125 39.015625 
Q 14.890625 38.140625 10.796875 36.28125 
z
" id="DejaVuSans-53"/>
      <path d="M 11.71875 12.40625 
L 22.015625 12.40625 
L 22.015625 0 
L 11.71875 0 
z
M 11.71875 51.703125 
L 22.015625 51.703125 
L 22.015625 39.3125 
L 11.71875 39.3125 
z
" id="DejaVuSans-58"/>
     </defs>
     <use xlink:href="#DejaVuSans-53"/>
     <use x="63.623047" xlink:href="#DejaVuSans-56"/>
     <use x="127.246094" xlink:href="#DejaVuSans-32"/>
     <use x="159.033203" xlink:href="#DejaVuSans-116"/>
     <use x="198.242188" xlink:href="#DejaVuSans-97"/>
     <use x="259.521484" xlink:href="#DejaVuSans-114"/>
     <use x="298.884766" xlink:href="#DejaVuSans-103"/>
     <use x="362.361328" xlink:href="#DejaVuSans-101"/>
     <use x="423.884766" xlink:href="#DejaVuSans-116"/>
     <use x="463.09375" xlink:href="#DejaVuSans-115"/>
     <use x="515.193359" xlink:href="#DejaVuSans-58"/>
     <use x="548.884766" xlink:href="#DejaVuSans-32"/>
     <use x="580.671875" xlink:href="#DejaVuSans-49"/>
     <use x="644.294922" xlink:href="#DejaVuSans-46"/>
     <use x="676.082031" xlink:href="#DejaVuSans-46"/>
     <use x="707.869141" xlink:href="#DejaVuSans-45"/>
     <use x="743.953125" xlink:href="#DejaVuSans-49"/>
     <use x="807.576172" xlink:href="#DejaVuSans-46"/>
     <use x="839.363281" xlink:href="#DejaVuSans-48"/>
     <use x="902.986328" xlink:href="#DejaVuSans-101"/>
     <use x="964.509766" xlink:href="#DejaVuSans-45"/>
     <use x="1000.59375" xlink:href="#DejaVuSans-52"/>
    </g>
    <!-- 10 instances -->
    <g transform="translate(60.41088 37.004824)scale(0.102 -0.102)">
     <use xlink:href="#DejaVuSans-49"/>
     <use x="63.623047" xlink:href="#DejaVuSans-48"/>
     <use x="127.246094" xlink:href="#DejaVuSans-32"/>
     <use x="159.033203" xlink:href="#DejaVuSans-105"/>
     <use x="186.816406" xlink:href="#DejaVuSans-110"/>
     <use x="250.195312" xlink:href="#DejaVuSans-115"/>
     <use x="302.294922" xlink:href="#DejaVuSans-116"/>
     <use x="341.503906" xlink:href="#DejaVuSans-97"/>
     <use x="402.783203" xlink:href="#DejaVuSans-110"/>
     <use x="466.162109" xlink:href="#DejaVuSans-99"/>
     <use x="521.142578" xlink:href="#DejaVuSans-101"/>
     <use x="582.666016" xlink:href="#DejaVuSans-115"/>
    </g>
   </g>
   <g id="text_18">
    <!-- v2.4.19, hv-hash=ff0e71e8cd978373 -->
    <g style="fill:#808080;" transform="translate(104.697125 293.909432)scale(0.1 -0.1)">
     <defs>
      <path d="M 10.984375 1.515625 
L 10.984375 10.5 
Q 14.703125 8.734375 18.5 7.8125 
Q 22.3125 6.890625 25.984375 6.890625 
Q 35.75 6.890625 40.890625 13.453125 
Q 46.046875 20.015625 46.78125 33.40625 
Q 43.953125 29.203125 39.59375 26.953125 
Q 35.25 24.703125 29.984375 24.703125 
Q 19.046875 24.703125 12.671875 31.3125 
Q 6.296875 37.9375 6.296875 49.421875 
Q 6.296875 60.640625 12.9375 67.421875 
Q 19.578125 74.21875 30.609375 74.21875 
Q 43.265625 74.21875 49.921875 64.515625 
Q 56.59375 54.828125 56.59375 36.375 
Q 56.59375 19.140625 48.40625 8.859375 
Q 40.234375 -1.421875 26.421875 -1.421875 
Q 22.703125 -1.421875 18.890625 -0.6875 
Q 15.09375 0.046875 10.984375 1.515625 
z
M 30.609375 32.421875 
Q 37.25 32.421875 41.125 36.953125 
Q 45.015625 41.5 45.015625 49.421875 
Q 45.015625 57.28125 41.125 61.84375 
Q 37.25 66.40625 30.609375 66.40625 
Q 23.96875 66.40625 20.09375 61.84375 
Q 16.21875 57.28125 16.21875 49.421875 
Q 16.21875 41.5 20.09375 36.953125 
Q 23.96875 32.421875 30.609375 32.421875 
z
" id="DejaVuSans-57"/>
      <path d="M 54.890625 33.015625 
L 54.890625 0 
L 45.90625 0 
L 45.90625 32.71875 
Q 45.90625 40.484375 42.875 44.328125 
Q 39.84375 48.1875 33.796875 48.1875 
Q 26.515625 48.1875 22.3125 43.546875 
Q 18.109375 38.921875 18.109375 30.90625 
L 18.109375 0 
L 9.078125 0 
L 9.078125 75.984375 
L 18.109375 75.984375 
L 18.109375 46.1875 
Q 21.34375 51.125 25.703125 53.5625 
Q 30.078125 56 35.796875 56 
Q 45.21875 56 50.046875 50.171875 
Q 54.890625 44.34375 54.890625 33.015625 
z
" id="DejaVuSans-104"/>
      <path d="M 10.59375 45.40625 
L 73.1875 45.40625 
L 73.1875 37.203125 
L 10.59375 37.203125 
z
M 10.59375 25.484375 
L 73.1875 25.484375 
L 73.1875 17.1875 
L 10.59375 17.1875 
z
" id="DejaVuSans-61"/>
      <path d="M 40.578125 39.3125 
Q 47.65625 37.796875 51.625 33 
Q 55.609375 28.21875 55.609375 21.1875 
Q 55.609375 10.40625 48.1875 4.484375 
Q 40.765625 -1.421875 27.09375 -1.421875 
Q 22.515625 -1.421875 17.65625 -0.515625 
Q 12.796875 0.390625 7.625 2.203125 
L 7.625 11.71875 
Q 11.71875 9.328125 16.59375 8.109375 
Q 21.484375 6.890625 26.8125 6.890625 
Q 36.078125 6.890625 40.9375 10.546875 
Q 45.796875 14.203125 45.796875 21.1875 
Q 45.796875 27.640625 41.28125 31.265625 
Q 36.765625 34.90625 28.71875 34.90625 
L 20.21875 34.90625 
L 20.21875 43.015625 
L 29.109375 43.015625 
Q 36.375 43.015625 40.234375 45.921875 
Q 44.09375 48.828125 44.09375 54.296875 
Q 44.09375 59.90625 40.109375 62.90625 
Q 36.140625 65.921875 28.71875 65.921875 
Q 24.65625 65.921875 20.015625 65.03125 
Q 15.375 64.15625 9.8125 62.3125 
L 9.8125 71.09375 
Q 15.4375 72.65625 20.34375 73.4375 
Q 25.25 74.21875 29.59375 74.21875 
Q 40.828125 74.21875 47.359375 69.109375 
Q 53.90625 64.015625 53.90625 55.328125 
Q 53.90625 49.265625 50.4375 45.09375 
Q 46.96875 40.921875 40.578125 39.3125 
z
" id="DejaVuSans-51"/>
     </defs>
     <use xlink:href="#DejaVuSans-118"/>
     <use x="59.179688" xlink:href="#DejaVuSans-50"/>
     <use x="122.802734" xlink:href="#DejaVuSans-46"/>
     <use x="154.589844" xlink:href="#DejaVuSans-52"/>
     <use x="218.212891" xlink:href="#DejaVuSans-46"/>
     <use x="250" xlink:href="#DejaVuSans-49"/>
     <use x="313.623047" xlink:href="#DejaVuSans-57"/>
     <use x="377.246094" xlink:href="#DejaVuSans-44"/>
     <use x="409.033203" xlink:href="#DejaVuSans-32"/>
     <use x="440.820312" xlink:href="#DejaVuSans-104"/>
     <use x="504.199219" xlink:href="#DejaVuSans-118"/>
     <use x="560.753906" xlink:href="#DejaVuSans-45"/>
     <use x="596.837891" xlink:href="#DejaVuSans-104"/>
     <use x="660.216797" xlink:href="#DejaVuSans-97"/>
     <use x="721.496094" xlink:href="#DejaVuSans-115"/>
     <use x="773.595703" xlink:href="#DejaVuSans-104"/>
     <use x="836.974609" xlink:href="#DejaVuSans-61"/>
     <use x="920.763672" xlink:href="#DejaVuSans-102"/>
     <use x="955.96875" xlink:href="#DejaVuSans-102"/>
     <use x="991.173828" xlink:href="#DejaVuSans-48"/>
     <use x="1054.796875" xlink:href="#DejaVuSans-101"/>
     <use x="1116.320312" xlink:href="#DejaVuSans-55"/>
     <use x="1179.943359" xlink:href="#DejaVuSans-49"/>
     <use x="1243.566406" xlink:href="#DejaVuSans-101"/>
     <use x="1305.089844" xlink:href="#DejaVuSans-56"/>
     <use x="1368.712891" xlink:href="#DejaVuSans-99"/>
     <use x="1423.693359" xlink:href="#DejaVuSans-100"/>
     <use x="1487.169922" xlink:href="#DejaVuSans-57"/>
     <use x="1550.792969" xlink:href="#DejaVuSans-55"/>
     <use x="1614.416016" xlink:href="#DejaVuSans-56"/>
     <use x="1678.039062" xlink:href="#DejaVuSans-51"/>
     <use x="1741.662109" xlink:href="#DejaVuSans-55"/>
     <use x="1805.285156" xlink:href="#DejaVuSans-51"/>
    </g>
   </g>
  </g>
 </g>
 <defs>
  <clipPath id="pd3f22936b4">
   <rect height="295.488" width="281.088" x="57.6" y="3.456"/>
  </clipPath>
 </defs>
</svg>
