<?xml version="1.0" encoding="utf-8" standalone="no"?>
<!DOCTYPE svg PUBLIC "-//W3C//DTD SVG 1.1//EN"
  "http://www.w3.org/Graphics/SVG/1.1/DTD/svg11.dtd">
<!-- Created with matplotlib (https://matplotlib.org/) -->
<svg height="345.6pt" version="1.1" viewBox="0 0 460.8 345.6" width="460.8pt" xmlns="http://www.w3.org/2000/svg" xmlns:xlink="http://www.w3.org/1999/xlink">
 <metadata>
  <rdf:RDF xmlns:cc="http://creativecommons.org/ns#" xmlns:dc="http://purl.org/dc/elements/1.1/" xmlns:rdf="http://www.w3.org/1999/02/22-rdf-syntax-ns#">
   <cc:Work>
    <dc:type rdf:resource="http://purl.org/dc/dcmitype/StillImage"/>
    <dc:date>2021-04-26T15:03:54.777217</dc:date>
    <dc:format>image/svg+xml</dc:format>
    <dc:creator>
     <cc:Agent>
      <dc:title>Matplotlib v3.3.2, https://matplotlib.org/</dc:title>
     </cc:Agent>
    </dc:creator>
   </cc:Work>
  </rdf:RDF>
 </metadata>
 <defs>
  <style type="text/css">*{stroke-linecap:butt;stroke-linejoin:round;}</style>
 </defs>
 <g id="figure_1">
  <g id="patch_1">
   <path d="M 0 345.6 
L 460.8 345.6 
L 460.8 0 
L 0 0 
z
" style="fill:#ffffff;"/>
  </g>
  <g id="axes_1">
   <g id="patch_2">
    <path d="M 57.6 298.944 
L 338.688 298.944 
L 338.688 3.456 
L 57.6 3.456 
z
" style="fill:#ffffff;"/>
   </g>
   <g id="line2d_1">
    <path d="M -1 297.682955 
L 27.203868 297.682955 
L 27.203868 296.421911 
L 31.586611 296.421911 
L 31.586611 295.160866 
L 86.435063 295.160866 
L 86.435063 293.899821 
L 116.709783 293.899821 
L 116.709783 291.377732 
L 124.790126 291.377732 
L 124.790126 288.855642 
L 126.355276 288.855642 
L 126.355276 286.333553 
L 128.598125 286.333553 
L 128.598125 283.811463 
L 134.444698 283.811463 
L 134.444698 281.289374 
L 140.984732 281.289374 
L 140.984732 278.767284 
L 142.459451 278.767284 
L 142.51311 274.98415 
L 143.791143 274.98415 
L 143.791143 271.201016 
L 145.258697 271.201016 
L 145.258697 268.678927 
L 146.636089 268.678927 
L 146.636089 267.417882 
L 147.376206 267.417882 
L 147.376206 264.895792 
L 147.912611 264.895792 
L 147.912611 263.634748 
L 148.142046 263.634748 
L 148.142046 261.112658 
L 148.889609 261.112658 
L 148.998453 256.068479 
L 149.561792 256.068479 
L 149.561792 252.285345 
L 150.228399 252.285345 
L 150.228399 249.763256 
L 150.552384 249.763256 
L 150.552384 245.980122 
L 151.090939 245.980122 
L 151.090939 243.458032 
L 151.682772 243.458032 
L 151.682772 242.196987 
L 152.295354 242.196987 
L 152.295354 239.674898 
L 153.03613 239.674898 
L 153.03613 237.152808 
L 153.623196 237.152808 
L 153.702703 233.369674 
L 154.919633 233.369674 
L 154.919633 232.10863 
L 155.219531 232.10863 
L 155.219531 229.58654 
L 155.447499 229.58654 
L 155.447499 227.064451 
L 155.891575 227.064451 
L 155.891575 223.281316 
L 156.816619 223.281316 
L 156.816619 219.498182 
L 158.308089 219.498182 
L 158.409319 215.715048 
L 158.583406 215.715048 
L 158.583406 213.192959 
L 159.599222 213.192959 
L 159.599222 209.409825 
L 160.32917 209.409825 
L 160.32917 206.887735 
L 162.708871 206.887735 
L 162.708871 204.365646 
L 163.09786 204.365646 
L 163.09786 200.582511 
L 163.604704 200.582511 
L 163.604704 198.060422 
L 166.171669 198.060422 
L 166.171669 196.799377 
L 166.397856 196.799377 
L 166.397856 194.277288 
L 173.078939 194.277288 
L 173.078939 190.494154 
L 174.703001 190.494154 
L 174.703001 189.233109 
L 182.490495 189.233109 
L 182.490495 187.972064 
L 186.265263 187.972064 
L 186.265263 185.449975 
L 191.571545 185.449975 
L 191.571545 184.18893 
L 201.454348 184.18893 
L 201.454348 181.666841 
L 221.94224 181.666841 
L 221.94224 177.883706 
L 226.06108 177.883706 
L 226.06108 176.622662 
L 235.140878 176.622662 
L 235.140878 174.100572 
L 235.555643 174.100572 
L 235.555643 171.578483 
L 241.504768 171.578483 
L 241.504768 167.795349 
L 244.659883 167.795349 
L 244.659883 165.273259 
L 244.820949 165.273259 
L 244.820949 161.490125 
L 250.480855 161.490125 
L 250.480855 158.968036 
L 262.410793 158.968036 
L 262.410793 157.706991 
L 263.404522 157.706991 
L 263.404522 156.445946 
L 267.499424 156.445946 
L 267.499424 155.184901 
L 269.35077 155.184901 
L 269.35077 151.401767 
L 274.181387 151.401767 
L 274.181387 147.618633 
L 282.750655 147.618633 
L 282.750655 143.835499 
L 283.387985 143.835499 
L 283.387985 140.052365 
L 296.915831 140.052365 
L 297.003636 137.530275 
L 297.466365 137.530275 
L 297.466365 133.747141 
L 298.000529 133.747141 
L 298.000529 131.225052 
L 338.688 131.225052 
L 338.688 131.225052 
" style="fill:none;stroke:#f5deb3;stroke-linecap:square;stroke-width:4;"/>
   </g>
   <g id="line2d_2">
    <defs>
     <path d="M 0 7.778175 
L 7.778175 0 
L 0 -7.778175 
L -7.778175 0 
z
" id="m458ed5b86b" style="stroke:#f5deb3;stroke-linejoin:miter;stroke-width:1.5;"/>
    </defs>
    <g>
     <use style="fill:#f5deb3;stroke:#f5deb3;stroke-linejoin:miter;stroke-width:1.5;" x="142.459451" xlink:href="#m458ed5b86b" y="278.767284"/>
     <use style="fill:#f5deb3;stroke:#f5deb3;stroke-linejoin:miter;stroke-width:1.5;" x="163.604704" xlink:href="#m458ed5b86b" y="198.060422"/>
     <use style="fill:#f5deb3;stroke:#f5deb3;stroke-linejoin:miter;stroke-width:1.5;" x="267.499424" xlink:href="#m458ed5b86b" y="156.445946"/>
     <use style="fill:#f5deb3;stroke:#f5deb3;stroke-linejoin:miter;stroke-width:1.5;" x="298.000529" xlink:href="#m458ed5b86b" y="131.225052"/>
     <use style="fill:#f5deb3;stroke:#f5deb3;stroke-linejoin:miter;stroke-width:1.5;" x="298.000529" xlink:href="#m458ed5b86b" y="131.225052"/>
     <use style="fill:#f5deb3;stroke:#f5deb3;stroke-linejoin:miter;stroke-width:1.5;" x="338.688" xlink:href="#m458ed5b86b" y="131.225052"/>
    </g>
   </g>
   <g id="line2d_3">
    <path style="fill:none;stroke:#f5deb3;stroke-linecap:square;stroke-width:4;"/>
    <g/>
   </g>
   <g id="line2d_4">
    <path d="M 338.688 131.225052 
L 369.60768 12.232871 
" style="fill:none;stroke:#f5deb3;stroke-linecap:square;stroke-width:4;"/>
    <g>
     <use style="fill:#f5deb3;stroke:#f5deb3;stroke-linejoin:miter;stroke-width:1.5;" x="338.688" xlink:href="#m458ed5b86b" y="131.225052"/>
     <use style="fill:#f5deb3;stroke:#f5deb3;stroke-linejoin:miter;stroke-width:1.5;" x="369.60768" xlink:href="#m458ed5b86b" y="12.232871"/>
    </g>
   </g>
   <g id="matplotlib.axis_1">
    <g id="xtick_1">
     <g id="line2d_5">
      <path clip-path="url(#pbd28d146e3)" d="M 57.6 298.944 
L 57.6 3.456 
" style="fill:none;stroke:#b0b0b0;stroke-linecap:square;stroke-width:0.8;"/>
     </g>
     <g id="line2d_6">
      <defs>
       <path d="M 0 0 
L 0 3.5 
" id="mf4d1841dd2" style="stroke:#000000;stroke-width:0.8;"/>
      </defs>
      <g>
       <use style="stroke:#000000;stroke-width:0.8;" x="57.6" xlink:href="#mf4d1841dd2" y="298.944"/>
      </g>
     </g>
     <g id="text_1">
      <!-- 0 -->
      <g transform="translate(51.2375 321.140875)scale(0.2 -0.2)">
       <defs>
        <path d="M 31.78125 66.40625 
Q 24.171875 66.40625 20.328125 58.90625 
Q 16.5 51.421875 16.5 36.375 
Q 16.5 21.390625 20.328125 13.890625 
Q 24.171875 6.390625 31.78125 6.390625 
Q 39.453125 6.390625 43.28125 13.890625 
Q 47.125 21.390625 47.125 36.375 
Q 47.125 51.421875 43.28125 58.90625 
Q 39.453125 66.40625 31.78125 66.40625 
z
M 31.78125 74.21875 
Q 44.046875 74.21875 50.515625 64.515625 
Q 56.984375 54.828125 56.984375 36.375 
Q 56.984375 17.96875 50.515625 8.265625 
Q 44.046875 -1.421875 31.78125 -1.421875 
Q 19.53125 -1.421875 13.0625 8.265625 
Q 6.59375 17.96875 6.59375 36.375 
Q 6.59375 54.828125 13.0625 64.515625 
Q 19.53125 74.21875 31.78125 74.21875 
z
" id="DejaVuSans-48"/>
       </defs>
       <use xlink:href="#DejaVuSans-48"/>
      </g>
     </g>
    </g>
    <g id="xtick_2">
     <g id="line2d_7">
      <path clip-path="url(#pbd28d146e3)" d="M 137.910857 298.944 
L 137.910857 3.456 
" style="fill:none;stroke:#b0b0b0;stroke-linecap:square;stroke-width:0.8;"/>
     </g>
     <g id="line2d_8">
      <g>
       <use style="stroke:#000000;stroke-width:0.8;" x="137.910857" xlink:href="#mf4d1841dd2" y="298.944"/>
      </g>
     </g>
     <g id="text_2">
      <!-- 2 -->
      <g transform="translate(131.548357 321.140875)scale(0.2 -0.2)">
       <defs>
        <path d="M 19.1875 8.296875 
L 53.609375 8.296875 
L 53.609375 0 
L 7.328125 0 
L 7.328125 8.296875 
Q 12.9375 14.109375 22.625 23.890625 
Q 32.328125 33.6875 34.8125 36.53125 
Q 39.546875 41.84375 41.421875 45.53125 
Q 43.3125 49.21875 43.3125 52.78125 
Q 43.3125 58.59375 39.234375 62.25 
Q 35.15625 65.921875 28.609375 65.921875 
Q 23.96875 65.921875 18.8125 64.3125 
Q 13.671875 62.703125 7.8125 59.421875 
L 7.8125 69.390625 
Q 13.765625 71.78125 18.9375 73 
Q 24.125 74.21875 28.421875 74.21875 
Q 39.75 74.21875 46.484375 68.546875 
Q 53.21875 62.890625 53.21875 53.421875 
Q 53.21875 48.921875 51.53125 44.890625 
Q 49.859375 40.875 45.40625 35.40625 
Q 44.1875 33.984375 37.640625 27.21875 
Q 31.109375 20.453125 19.1875 8.296875 
z
" id="DejaVuSans-50"/>
       </defs>
       <use xlink:href="#DejaVuSans-50"/>
      </g>
     </g>
    </g>
    <g id="xtick_3">
     <g id="line2d_9">
      <path clip-path="url(#pbd28d146e3)" d="M 218.221714 298.944 
L 218.221714 3.456 
" style="fill:none;stroke:#b0b0b0;stroke-linecap:square;stroke-width:0.8;"/>
     </g>
     <g id="line2d_10">
      <g>
       <use style="stroke:#000000;stroke-width:0.8;" x="218.221714" xlink:href="#mf4d1841dd2" y="298.944"/>
      </g>
     </g>
     <g id="text_3">
      <!-- 4 -->
      <g transform="translate(211.859214 321.140875)scale(0.2 -0.2)">
       <defs>
        <path d="M 37.796875 64.3125 
L 12.890625 25.390625 
L 37.796875 25.390625 
z
M 35.203125 72.90625 
L 47.609375 72.90625 
L 47.609375 25.390625 
L 58.015625 25.390625 
L 58.015625 17.1875 
L 47.609375 17.1875 
L 47.609375 0 
L 37.796875 0 
L 37.796875 17.1875 
L 4.890625 17.1875 
L 4.890625 26.703125 
z
" id="DejaVuSans-52"/>
       </defs>
       <use xlink:href="#DejaVuSans-52"/>
      </g>
     </g>
    </g>
    <g id="xtick_4">
     <g id="line2d_11">
      <path clip-path="url(#pbd28d146e3)" d="M 298.532571 298.944 
L 298.532571 3.456 
" style="fill:none;stroke:#b0b0b0;stroke-linecap:square;stroke-width:0.8;"/>
     </g>
     <g id="line2d_12">
      <g>
       <use style="stroke:#000000;stroke-width:0.8;" x="298.532571" xlink:href="#mf4d1841dd2" y="298.944"/>
      </g>
     </g>
     <g id="text_4">
      <!-- 6 -->
      <g transform="translate(292.170071 321.140875)scale(0.2 -0.2)">
       <defs>
        <path d="M 33.015625 40.375 
Q 26.375 40.375 22.484375 35.828125 
Q 18.609375 31.296875 18.609375 23.390625 
Q 18.609375 15.53125 22.484375 10.953125 
Q 26.375 6.390625 33.015625 6.390625 
Q 39.65625 6.390625 43.53125 10.953125 
Q 47.40625 15.53125 47.40625 23.390625 
Q 47.40625 31.296875 43.53125 35.828125 
Q 39.65625 40.375 33.015625 40.375 
z
M 52.59375 71.296875 
L 52.59375 62.3125 
Q 48.875 64.0625 45.09375 64.984375 
Q 41.3125 65.921875 37.59375 65.921875 
Q 27.828125 65.921875 22.671875 59.328125 
Q 17.53125 52.734375 16.796875 39.40625 
Q 19.671875 43.65625 24.015625 45.921875 
Q 28.375 48.1875 33.59375 48.1875 
Q 44.578125 48.1875 50.953125 41.515625 
Q 57.328125 34.859375 57.328125 23.390625 
Q 57.328125 12.15625 50.6875 5.359375 
Q 44.046875 -1.421875 33.015625 -1.421875 
Q 20.359375 -1.421875 13.671875 8.265625 
Q 6.984375 17.96875 6.984375 36.375 
Q 6.984375 53.65625 15.1875 63.9375 
Q 23.390625 74.21875 37.203125 74.21875 
Q 40.921875 74.21875 44.703125 73.484375 
Q 48.484375 72.75 52.59375 71.296875 
z
" id="DejaVuSans-54"/>
       </defs>
       <use xlink:href="#DejaVuSans-54"/>
      </g>
     </g>
    </g>
    <g id="xtick_5">
     <g id="line2d_13">
      <path clip-path="url(#pbd28d146e3)" d="M 97.755429 298.944 
L 97.755429 3.456 
" style="fill:none;stroke:#b0b0b0;stroke-linecap:square;stroke-width:0.8;"/>
     </g>
     <g id="line2d_14">
      <defs>
       <path d="M 0 0 
L 0 2 
" id="m9b188e6c64" style="stroke:#000000;stroke-width:0.6;"/>
      </defs>
      <g>
       <use style="stroke:#000000;stroke-width:0.6;" x="97.755429" xlink:href="#m9b188e6c64" y="298.944"/>
      </g>
     </g>
    </g>
    <g id="xtick_6">
     <g id="line2d_15">
      <path clip-path="url(#pbd28d146e3)" d="M 178.066286 298.944 
L 178.066286 3.456 
" style="fill:none;stroke:#b0b0b0;stroke-linecap:square;stroke-width:0.8;"/>
     </g>
     <g id="line2d_16">
      <g>
       <use style="stroke:#000000;stroke-width:0.6;" x="178.066286" xlink:href="#m9b188e6c64" y="298.944"/>
      </g>
     </g>
    </g>
    <g id="xtick_7">
     <g id="line2d_17">
      <path clip-path="url(#pbd28d146e3)" d="M 258.377143 298.944 
L 258.377143 3.456 
" style="fill:none;stroke:#b0b0b0;stroke-linecap:square;stroke-width:0.8;"/>
     </g>
     <g id="line2d_18">
      <g>
       <use style="stroke:#000000;stroke-width:0.6;" x="258.377143" xlink:href="#m9b188e6c64" y="298.944"/>
      </g>
     </g>
    </g>
    <g id="xtick_8">
     <g id="line2d_19">
      <path clip-path="url(#pbd28d146e3)" d="M 338.688 298.944 
L 338.688 3.456 
" style="fill:none;stroke:#b0b0b0;stroke-linecap:square;stroke-width:0.8;"/>
     </g>
     <g id="line2d_20">
      <g>
       <use style="stroke:#000000;stroke-width:0.6;" x="338.688" xlink:href="#m9b188e6c64" y="298.944"/>
      </g>
     </g>
    </g>
    <g id="text_5">
     <!-- log10(# f-evals / dimension) -->
     <g transform="translate(77.764078 342.217594)scale(0.17 -0.17)">
      <defs>
       <path d="M 9.421875 75.984375 
L 18.40625 75.984375 
L 18.40625 0 
L 9.421875 0 
z
" id="DejaVuSans-108"/>
       <path d="M 30.609375 48.390625 
Q 23.390625 48.390625 19.1875 42.75 
Q 14.984375 37.109375 14.984375 27.296875 
Q 14.984375 17.484375 19.15625 11.84375 
Q 23.34375 6.203125 30.609375 6.203125 
Q 37.796875 6.203125 41.984375 11.859375 
Q 46.1875 17.53125 46.1875 27.296875 
Q 46.1875 37.015625 41.984375 42.703125 
Q 37.796875 48.390625 30.609375 48.390625 
z
M 30.609375 56 
Q 42.328125 56 49.015625 48.375 
Q 55.71875 40.765625 55.71875 27.296875 
Q 55.71875 13.875 49.015625 6.21875 
Q 42.328125 -1.421875 30.609375 -1.421875 
Q 18.84375 -1.421875 12.171875 6.21875 
Q 5.515625 13.875 5.515625 27.296875 
Q 5.515625 40.765625 12.171875 48.375 
Q 18.84375 56 30.609375 56 
z
" id="DejaVuSans-111"/>
       <path d="M 45.40625 27.984375 
Q 45.40625 37.75 41.375 43.109375 
Q 37.359375 48.484375 30.078125 48.484375 
Q 22.859375 48.484375 18.828125 43.109375 
Q 14.796875 37.75 14.796875 27.984375 
Q 14.796875 18.265625 18.828125 12.890625 
Q 22.859375 7.515625 30.078125 7.515625 
Q 37.359375 7.515625 41.375 12.890625 
Q 45.40625 18.265625 45.40625 27.984375 
z
M 54.390625 6.78125 
Q 54.390625 -7.171875 48.1875 -13.984375 
Q 42 -20.796875 29.203125 -20.796875 
Q 24.46875 -20.796875 20.265625 -20.09375 
Q 16.0625 -19.390625 12.109375 -17.921875 
L 12.109375 -9.1875 
Q 16.0625 -11.328125 19.921875 -12.34375 
Q 23.78125 -13.375 27.78125 -13.375 
Q 36.625 -13.375 41.015625 -8.765625 
Q 45.40625 -4.15625 45.40625 5.171875 
L 45.40625 9.625 
Q 42.625 4.78125 38.28125 2.390625 
Q 33.9375 0 27.875 0 
Q 17.828125 0 11.671875 7.65625 
Q 5.515625 15.328125 5.515625 27.984375 
Q 5.515625 40.671875 11.671875 48.328125 
Q 17.828125 56 27.875 56 
Q 33.9375 56 38.28125 53.609375 
Q 42.625 51.21875 45.40625 46.390625 
L 45.40625 54.6875 
L 54.390625 54.6875 
z
" id="DejaVuSans-103"/>
       <path d="M 12.40625 8.296875 
L 28.515625 8.296875 
L 28.515625 63.921875 
L 10.984375 60.40625 
L 10.984375 69.390625 
L 28.421875 72.90625 
L 38.28125 72.90625 
L 38.28125 8.296875 
L 54.390625 8.296875 
L 54.390625 0 
L 12.40625 0 
z
" id="DejaVuSans-49"/>
       <path d="M 31 75.875 
Q 24.46875 64.65625 21.28125 53.65625 
Q 18.109375 42.671875 18.109375 31.390625 
Q 18.109375 20.125 21.3125 9.0625 
Q 24.515625 -2 31 -13.1875 
L 23.1875 -13.1875 
Q 15.875 -1.703125 12.234375 9.375 
Q 8.59375 20.453125 8.59375 31.390625 
Q 8.59375 42.28125 12.203125 53.3125 
Q 15.828125 64.359375 23.1875 75.875 
z
" id="DejaVuSans-40"/>
       <path d="M 51.125 44 
L 36.921875 44 
L 32.8125 27.6875 
L 47.125 27.6875 
z
M 43.796875 71.78125 
L 38.71875 51.515625 
L 52.984375 51.515625 
L 58.109375 71.78125 
L 65.921875 71.78125 
L 60.890625 51.515625 
L 76.125 51.515625 
L 76.125 44 
L 58.984375 44 
L 54.984375 27.6875 
L 70.515625 27.6875 
L 70.515625 20.21875 
L 53.078125 20.21875 
L 48 0 
L 40.1875 0 
L 45.21875 20.21875 
L 30.90625 20.21875 
L 25.875 0 
L 18.015625 0 
L 23.09375 20.21875 
L 7.71875 20.21875 
L 7.71875 27.6875 
L 24.90625 27.6875 
L 29 44 
L 13.28125 44 
L 13.28125 51.515625 
L 30.90625 51.515625 
L 35.890625 71.78125 
z
" id="DejaVuSans-35"/>
       <path id="DejaVuSans-32"/>
       <path d="M 37.109375 75.984375 
L 37.109375 68.5 
L 28.515625 68.5 
Q 23.6875 68.5 21.796875 66.546875 
Q 19.921875 64.59375 19.921875 59.515625 
L 19.921875 54.6875 
L 34.71875 54.6875 
L 34.71875 47.703125 
L 19.921875 47.703125 
L 19.921875 0 
L 10.890625 0 
L 10.890625 47.703125 
L 2.296875 47.703125 
L 2.296875 54.6875 
L 10.890625 54.6875 
L 10.890625 58.5 
Q 10.890625 67.625 15.140625 71.796875 
Q 19.390625 75.984375 28.609375 75.984375 
z
" id="DejaVuSans-102"/>
       <path d="M 4.890625 31.390625 
L 31.203125 31.390625 
L 31.203125 23.390625 
L 4.890625 23.390625 
z
" id="DejaVuSans-45"/>
       <path d="M 56.203125 29.59375 
L 56.203125 25.203125 
L 14.890625 25.203125 
Q 15.484375 15.921875 20.484375 11.0625 
Q 25.484375 6.203125 34.421875 6.203125 
Q 39.59375 6.203125 44.453125 7.46875 
Q 49.3125 8.734375 54.109375 11.28125 
L 54.109375 2.78125 
Q 49.265625 0.734375 44.1875 -0.34375 
Q 39.109375 -1.421875 33.890625 -1.421875 
Q 20.796875 -1.421875 13.15625 6.1875 
Q 5.515625 13.8125 5.515625 26.8125 
Q 5.515625 40.234375 12.765625 48.109375 
Q 20.015625 56 32.328125 56 
Q 43.359375 56 49.78125 48.890625 
Q 56.203125 41.796875 56.203125 29.59375 
z
M 47.21875 32.234375 
Q 47.125 39.59375 43.09375 43.984375 
Q 39.0625 48.390625 32.421875 48.390625 
Q 24.90625 48.390625 20.390625 44.140625 
Q 15.875 39.890625 15.1875 32.171875 
z
" id="DejaVuSans-101"/>
       <path d="M 2.984375 54.6875 
L 12.5 54.6875 
L 29.59375 8.796875 
L 46.6875 54.6875 
L 56.203125 54.6875 
L 35.6875 0 
L 23.484375 0 
z
" id="DejaVuSans-118"/>
       <path d="M 34.28125 27.484375 
Q 23.390625 27.484375 19.1875 25 
Q 14.984375 22.515625 14.984375 16.5 
Q 14.984375 11.71875 18.140625 8.90625 
Q 21.296875 6.109375 26.703125 6.109375 
Q 34.1875 6.109375 38.703125 11.40625 
Q 43.21875 16.703125 43.21875 25.484375 
L 43.21875 27.484375 
z
M 52.203125 31.203125 
L 52.203125 0 
L 43.21875 0 
L 43.21875 8.296875 
Q 40.140625 3.328125 35.546875 0.953125 
Q 30.953125 -1.421875 24.3125 -1.421875 
Q 15.921875 -1.421875 10.953125 3.296875 
Q 6 8.015625 6 15.921875 
Q 6 25.140625 12.171875 29.828125 
Q 18.359375 34.515625 30.609375 34.515625 
L 43.21875 34.515625 
L 43.21875 35.40625 
Q 43.21875 41.609375 39.140625 45 
Q 35.0625 48.390625 27.6875 48.390625 
Q 23 48.390625 18.546875 47.265625 
Q 14.109375 46.140625 10.015625 43.890625 
L 10.015625 52.203125 
Q 14.9375 54.109375 19.578125 55.046875 
Q 24.21875 56 28.609375 56 
Q 40.484375 56 46.34375 49.84375 
Q 52.203125 43.703125 52.203125 31.203125 
z
" id="DejaVuSans-97"/>
       <path d="M 44.28125 53.078125 
L 44.28125 44.578125 
Q 40.484375 46.53125 36.375 47.5 
Q 32.28125 48.484375 27.875 48.484375 
Q 21.1875 48.484375 17.84375 46.4375 
Q 14.5 44.390625 14.5 40.28125 
Q 14.5 37.15625 16.890625 35.375 
Q 19.28125 33.59375 26.515625 31.984375 
L 29.59375 31.296875 
Q 39.15625 29.25 43.1875 25.515625 
Q 47.21875 21.78125 47.21875 15.09375 
Q 47.21875 7.46875 41.1875 3.015625 
Q 35.15625 -1.421875 24.609375 -1.421875 
Q 20.21875 -1.421875 15.453125 -0.5625 
Q 10.6875 0.296875 5.421875 2 
L 5.421875 11.28125 
Q 10.40625 8.6875 15.234375 7.390625 
Q 20.0625 6.109375 24.8125 6.109375 
Q 31.15625 6.109375 34.5625 8.28125 
Q 37.984375 10.453125 37.984375 14.40625 
Q 37.984375 18.0625 35.515625 20.015625 
Q 33.0625 21.96875 24.703125 23.78125 
L 21.578125 24.515625 
Q 13.234375 26.265625 9.515625 29.90625 
Q 5.8125 33.546875 5.8125 39.890625 
Q 5.8125 47.609375 11.28125 51.796875 
Q 16.75 56 26.8125 56 
Q 31.78125 56 36.171875 55.265625 
Q 40.578125 54.546875 44.28125 53.078125 
z
" id="DejaVuSans-115"/>
       <path d="M 25.390625 72.90625 
L 33.6875 72.90625 
L 8.296875 -9.28125 
L 0 -9.28125 
z
" id="DejaVuSans-47"/>
       <path d="M 45.40625 46.390625 
L 45.40625 75.984375 
L 54.390625 75.984375 
L 54.390625 0 
L 45.40625 0 
L 45.40625 8.203125 
Q 42.578125 3.328125 38.25 0.953125 
Q 33.9375 -1.421875 27.875 -1.421875 
Q 17.96875 -1.421875 11.734375 6.484375 
Q 5.515625 14.40625 5.515625 27.296875 
Q 5.515625 40.1875 11.734375 48.09375 
Q 17.96875 56 27.875 56 
Q 33.9375 56 38.25 53.625 
Q 42.578125 51.265625 45.40625 46.390625 
z
M 14.796875 27.296875 
Q 14.796875 17.390625 18.875 11.75 
Q 22.953125 6.109375 30.078125 6.109375 
Q 37.203125 6.109375 41.296875 11.75 
Q 45.40625 17.390625 45.40625 27.296875 
Q 45.40625 37.203125 41.296875 42.84375 
Q 37.203125 48.484375 30.078125 48.484375 
Q 22.953125 48.484375 18.875 42.84375 
Q 14.796875 37.203125 14.796875 27.296875 
z
" id="DejaVuSans-100"/>
       <path d="M 9.421875 54.6875 
L 18.40625 54.6875 
L 18.40625 0 
L 9.421875 0 
z
M 9.421875 75.984375 
L 18.40625 75.984375 
L 18.40625 64.59375 
L 9.421875 64.59375 
z
" id="DejaVuSans-105"/>
       <path d="M 52 44.1875 
Q 55.375 50.25 60.0625 53.125 
Q 64.75 56 71.09375 56 
Q 79.640625 56 84.28125 50.015625 
Q 88.921875 44.046875 88.921875 33.015625 
L 88.921875 0 
L 79.890625 0 
L 79.890625 32.71875 
Q 79.890625 40.578125 77.09375 44.375 
Q 74.3125 48.1875 68.609375 48.1875 
Q 61.625 48.1875 57.5625 43.546875 
Q 53.515625 38.921875 53.515625 30.90625 
L 53.515625 0 
L 44.484375 0 
L 44.484375 32.71875 
Q 44.484375 40.625 41.703125 44.40625 
Q 38.921875 48.1875 33.109375 48.1875 
Q 26.21875 48.1875 22.15625 43.53125 
Q 18.109375 38.875 18.109375 30.90625 
L 18.109375 0 
L 9.078125 0 
L 9.078125 54.6875 
L 18.109375 54.6875 
L 18.109375 46.1875 
Q 21.1875 51.21875 25.484375 53.609375 
Q 29.78125 56 35.6875 56 
Q 41.65625 56 45.828125 52.96875 
Q 50 49.953125 52 44.1875 
z
" id="DejaVuSans-109"/>
       <path d="M 54.890625 33.015625 
L 54.890625 0 
L 45.90625 0 
L 45.90625 32.71875 
Q 45.90625 40.484375 42.875 44.328125 
Q 39.84375 48.1875 33.796875 48.1875 
Q 26.515625 48.1875 22.3125 43.546875 
Q 18.109375 38.921875 18.109375 30.90625 
L 18.109375 0 
L 9.078125 0 
L 9.078125 54.6875 
L 18.109375 54.6875 
L 18.109375 46.1875 
Q 21.34375 51.125 25.703125 53.5625 
Q 30.078125 56 35.796875 56 
Q 45.21875 56 50.046875 50.171875 
Q 54.890625 44.34375 54.890625 33.015625 
z
" id="DejaVuSans-110"/>
       <path d="M 8.015625 75.875 
L 15.828125 75.875 
Q 23.140625 64.359375 26.78125 53.3125 
Q 30.421875 42.28125 30.421875 31.390625 
Q 30.421875 20.453125 26.78125 9.375 
Q 23.140625 -1.703125 15.828125 -13.1875 
L 8.015625 -13.1875 
Q 14.5 -2 17.703125 9.0625 
Q 20.90625 20.125 20.90625 31.390625 
Q 20.90625 42.671875 17.703125 53.65625 
Q 14.5 64.65625 8.015625 75.875 
z
" id="DejaVuSans-41"/>
      </defs>
      <use xlink:href="#DejaVuSans-108"/>
      <use x="27.783203" xlink:href="#DejaVuSans-111"/>
      <use x="88.964844" xlink:href="#DejaVuSans-103"/>
      <use x="152.441406" xlink:href="#DejaVuSans-49"/>
      <use x="216.064453" xlink:href="#DejaVuSans-48"/>
      <use x="279.6875" xlink:href="#DejaVuSans-40"/>
      <use x="318.701172" xlink:href="#DejaVuSans-35"/>
      <use x="402.490234" xlink:href="#DejaVuSans-32"/>
      <use x="434.277344" xlink:href="#DejaVuSans-102"/>
      <use x="463.982422" xlink:href="#DejaVuSans-45"/>
      <use x="500.066406" xlink:href="#DejaVuSans-101"/>
      <use x="561.589844" xlink:href="#DejaVuSans-118"/>
      <use x="620.769531" xlink:href="#DejaVuSans-97"/>
      <use x="682.048828" xlink:href="#DejaVuSans-108"/>
      <use x="709.832031" xlink:href="#DejaVuSans-115"/>
      <use x="761.931641" xlink:href="#DejaVuSans-32"/>
      <use x="793.71875" xlink:href="#DejaVuSans-47"/>
      <use x="827.410156" xlink:href="#DejaVuSans-32"/>
      <use x="859.197266" xlink:href="#DejaVuSans-100"/>
      <use x="922.673828" xlink:href="#DejaVuSans-105"/>
      <use x="950.457031" xlink:href="#DejaVuSans-109"/>
      <use x="1047.869141" xlink:href="#DejaVuSans-101"/>
      <use x="1109.392578" xlink:href="#DejaVuSans-110"/>
      <use x="1172.771484" xlink:href="#DejaVuSans-115"/>
      <use x="1224.871094" xlink:href="#DejaVuSans-105"/>
      <use x="1252.654297" xlink:href="#DejaVuSans-111"/>
      <use x="1313.835938" xlink:href="#DejaVuSans-110"/>
      <use x="1377.214844" xlink:href="#DejaVuSans-41"/>
     </g>
    </g>
   </g>
   <g id="matplotlib.axis_2">
    <g id="ytick_1">
     <g id="line2d_21">
      <path clip-path="url(#pbd28d146e3)" d="M 57.6 298.944 
L 338.688 298.944 
" style="fill:none;stroke:#b0b0b0;stroke-linecap:square;stroke-width:0.8;"/>
     </g>
     <g id="line2d_22">
      <defs>
       <path d="M 0 0 
L -3.5 0 
" id="mac75116597" style="stroke:#000000;stroke-width:0.8;"/>
      </defs>
      <g>
       <use style="stroke:#000000;stroke-width:0.8;" x="57.6" xlink:href="#mac75116597" y="298.944"/>
      </g>
     </g>
     <g id="text_6">
      <!-- 0.0 -->
      <g transform="translate(25.155 305.02275)scale(0.16 -0.16)">
       <defs>
        <path d="M 10.6875 12.40625 
L 21 12.40625 
L 21 0 
L 10.6875 0 
z
" id="DejaVuSans-46"/>
       </defs>
       <use xlink:href="#DejaVuSans-48"/>
       <use x="63.623047" xlink:href="#DejaVuSans-46"/>
       <use x="95.410156" xlink:href="#DejaVuSans-48"/>
      </g>
     </g>
    </g>
    <g id="ytick_2">
     <g id="line2d_23">
      <path clip-path="url(#pbd28d146e3)" d="M 57.6 240.431525 
L 338.688 240.431525 
" style="fill:none;stroke:#b0b0b0;stroke-linecap:square;stroke-width:0.8;"/>
     </g>
     <g id="line2d_24">
      <g>
       <use style="stroke:#000000;stroke-width:0.8;" x="57.6" xlink:href="#mac75116597" y="240.431525"/>
      </g>
     </g>
     <g id="text_7">
      <!-- 0.2 -->
      <g transform="translate(25.155 246.510275)scale(0.16 -0.16)">
       <use xlink:href="#DejaVuSans-48"/>
       <use x="63.623047" xlink:href="#DejaVuSans-46"/>
       <use x="95.410156" xlink:href="#DejaVuSans-50"/>
      </g>
     </g>
    </g>
    <g id="ytick_3">
     <g id="line2d_25">
      <path clip-path="url(#pbd28d146e3)" d="M 57.6 181.91905 
L 338.688 181.91905 
" style="fill:none;stroke:#b0b0b0;stroke-linecap:square;stroke-width:0.8;"/>
     </g>
     <g id="line2d_26">
      <g>
       <use style="stroke:#000000;stroke-width:0.8;" x="57.6" xlink:href="#mac75116597" y="181.91905"/>
      </g>
     </g>
     <g id="text_8">
      <!-- 0.4 -->
      <g transform="translate(25.155 187.9978)scale(0.16 -0.16)">
       <use xlink:href="#DejaVuSans-48"/>
       <use x="63.623047" xlink:href="#DejaVuSans-46"/>
       <use x="95.410156" xlink:href="#DejaVuSans-52"/>
      </g>
     </g>
    </g>
    <g id="ytick_4">
     <g id="line2d_27">
      <path clip-path="url(#pbd28d146e3)" d="M 57.6 123.406574 
L 338.688 123.406574 
" style="fill:none;stroke:#b0b0b0;stroke-linecap:square;stroke-width:0.8;"/>
     </g>
     <g id="line2d_28">
      <g>
       <use style="stroke:#000000;stroke-width:0.8;" x="57.6" xlink:href="#mac75116597" y="123.406574"/>
      </g>
     </g>
     <g id="text_9">
      <!-- 0.6 -->
      <g transform="translate(25.155 129.485324)scale(0.16 -0.16)">
       <use xlink:href="#DejaVuSans-48"/>
       <use x="63.623047" xlink:href="#DejaVuSans-46"/>
       <use x="95.410156" xlink:href="#DejaVuSans-54"/>
      </g>
     </g>
    </g>
    <g id="ytick_5">
     <g id="line2d_29">
      <path clip-path="url(#pbd28d146e3)" d="M 57.6 64.894099 
L 338.688 64.894099 
" style="fill:none;stroke:#b0b0b0;stroke-linecap:square;stroke-width:0.8;"/>
     </g>
     <g id="line2d_30">
      <g>
       <use style="stroke:#000000;stroke-width:0.8;" x="57.6" xlink:href="#mac75116597" y="64.894099"/>
      </g>
     </g>
     <g id="text_10">
      <!-- 0.8 -->
      <g transform="translate(25.155 70.972849)scale(0.16 -0.16)">
       <defs>
        <path d="M 31.78125 34.625 
Q 24.75 34.625 20.71875 30.859375 
Q 16.703125 27.09375 16.703125 20.515625 
Q 16.703125 13.921875 20.71875 10.15625 
Q 24.75 6.390625 31.78125 6.390625 
Q 38.8125 6.390625 42.859375 10.171875 
Q 46.921875 13.96875 46.921875 20.515625 
Q 46.921875 27.09375 42.890625 30.859375 
Q 38.875 34.625 31.78125 34.625 
z
M 21.921875 38.8125 
Q 15.578125 40.375 12.03125 44.71875 
Q 8.5 49.078125 8.5 55.328125 
Q 8.5 64.0625 14.71875 69.140625 
Q 20.953125 74.21875 31.78125 74.21875 
Q 42.671875 74.21875 48.875 69.140625 
Q 55.078125 64.0625 55.078125 55.328125 
Q 55.078125 49.078125 51.53125 44.71875 
Q 48 40.375 41.703125 38.8125 
Q 48.828125 37.15625 52.796875 32.3125 
Q 56.78125 27.484375 56.78125 20.515625 
Q 56.78125 9.90625 50.3125 4.234375 
Q 43.84375 -1.421875 31.78125 -1.421875 
Q 19.734375 -1.421875 13.25 4.234375 
Q 6.78125 9.90625 6.78125 20.515625 
Q 6.78125 27.484375 10.78125 32.3125 
Q 14.796875 37.15625 21.921875 38.8125 
z
M 18.3125 54.390625 
Q 18.3125 48.734375 21.84375 45.5625 
Q 25.390625 42.390625 31.78125 42.390625 
Q 38.140625 42.390625 41.71875 45.5625 
Q 45.3125 48.734375 45.3125 54.390625 
Q 45.3125 60.0625 41.71875 63.234375 
Q 38.140625 66.40625 31.78125 66.40625 
Q 25.390625 66.40625 21.84375 63.234375 
Q 18.3125 60.0625 18.3125 54.390625 
z
" id="DejaVuSans-56"/>
       </defs>
       <use xlink:href="#DejaVuSans-48"/>
       <use x="63.623047" xlink:href="#DejaVuSans-46"/>
       <use x="95.410156" xlink:href="#DejaVuSans-56"/>
      </g>
     </g>
    </g>
    <g id="ytick_6">
     <g id="line2d_31">
      <path clip-path="url(#pbd28d146e3)" d="M 57.6 6.381624 
L 338.688 6.381624 
" style="fill:none;stroke:#b0b0b0;stroke-linecap:square;stroke-width:0.8;"/>
     </g>
     <g id="line2d_32">
      <g>
       <use style="stroke:#000000;stroke-width:0.8;" x="57.6" xlink:href="#mac75116597" y="6.381624"/>
      </g>
     </g>
     <g id="text_11">
      <!-- 1.0 -->
      <g transform="translate(25.155 12.460374)scale(0.16 -0.16)">
       <use xlink:href="#DejaVuSans-49"/>
       <use x="63.623047" xlink:href="#DejaVuSans-46"/>
       <use x="95.410156" xlink:href="#DejaVuSans-48"/>
      </g>
     </g>
    </g>
    <g id="text_12">
     <!-- Fraction of function,target pairs -->
     <g transform="translate(17.619531 285.585)rotate(-90)scale(0.17 -0.17)">
      <defs>
       <path d="M 9.8125 72.90625 
L 51.703125 72.90625 
L 51.703125 64.59375 
L 19.671875 64.59375 
L 19.671875 43.109375 
L 48.578125 43.109375 
L 48.578125 34.8125 
L 19.671875 34.8125 
L 19.671875 0 
L 9.8125 0 
z
" id="DejaVuSans-70"/>
       <path d="M 41.109375 46.296875 
Q 39.59375 47.171875 37.8125 47.578125 
Q 36.03125 48 33.890625 48 
Q 26.265625 48 22.1875 43.046875 
Q 18.109375 38.09375 18.109375 28.8125 
L 18.109375 0 
L 9.078125 0 
L 9.078125 54.6875 
L 18.109375 54.6875 
L 18.109375 46.1875 
Q 20.953125 51.171875 25.484375 53.578125 
Q 30.03125 56 36.53125 56 
Q 37.453125 56 38.578125 55.875 
Q 39.703125 55.765625 41.0625 55.515625 
z
" id="DejaVuSans-114"/>
       <path d="M 48.78125 52.59375 
L 48.78125 44.1875 
Q 44.96875 46.296875 41.140625 47.34375 
Q 37.3125 48.390625 33.40625 48.390625 
Q 24.65625 48.390625 19.8125 42.84375 
Q 14.984375 37.3125 14.984375 27.296875 
Q 14.984375 17.28125 19.8125 11.734375 
Q 24.65625 6.203125 33.40625 6.203125 
Q 37.3125 6.203125 41.140625 7.25 
Q 44.96875 8.296875 48.78125 10.40625 
L 48.78125 2.09375 
Q 45.015625 0.34375 40.984375 -0.53125 
Q 36.96875 -1.421875 32.421875 -1.421875 
Q 20.0625 -1.421875 12.78125 6.34375 
Q 5.515625 14.109375 5.515625 27.296875 
Q 5.515625 40.671875 12.859375 48.328125 
Q 20.21875 56 33.015625 56 
Q 37.15625 56 41.109375 55.140625 
Q 45.0625 54.296875 48.78125 52.59375 
z
" id="DejaVuSans-99"/>
       <path d="M 18.3125 70.21875 
L 18.3125 54.6875 
L 36.8125 54.6875 
L 36.8125 47.703125 
L 18.3125 47.703125 
L 18.3125 18.015625 
Q 18.3125 11.328125 20.140625 9.421875 
Q 21.96875 7.515625 27.59375 7.515625 
L 36.8125 7.515625 
L 36.8125 0 
L 27.59375 0 
Q 17.1875 0 13.234375 3.875 
Q 9.28125 7.765625 9.28125 18.015625 
L 9.28125 47.703125 
L 2.6875 47.703125 
L 2.6875 54.6875 
L 9.28125 54.6875 
L 9.28125 70.21875 
z
" id="DejaVuSans-116"/>
       <path d="M 8.5 21.578125 
L 8.5 54.6875 
L 17.484375 54.6875 
L 17.484375 21.921875 
Q 17.484375 14.15625 20.5 10.265625 
Q 23.53125 6.390625 29.59375 6.390625 
Q 36.859375 6.390625 41.078125 11.03125 
Q 45.3125 15.671875 45.3125 23.6875 
L 45.3125 54.6875 
L 54.296875 54.6875 
L 54.296875 0 
L 45.3125 0 
L 45.3125 8.40625 
Q 42.046875 3.421875 37.71875 1 
Q 33.40625 -1.421875 27.6875 -1.421875 
Q 18.265625 -1.421875 13.375 4.4375 
Q 8.5 10.296875 8.5 21.578125 
z
M 31.109375 56 
z
" id="DejaVuSans-117"/>
       <path d="M 11.71875 12.40625 
L 22.015625 12.40625 
L 22.015625 4 
L 14.015625 -11.625 
L 7.71875 -11.625 
L 11.71875 4 
z
" id="DejaVuSans-44"/>
       <path d="M 18.109375 8.203125 
L 18.109375 -20.796875 
L 9.078125 -20.796875 
L 9.078125 54.6875 
L 18.109375 54.6875 
L 18.109375 46.390625 
Q 20.953125 51.265625 25.265625 53.625 
Q 29.59375 56 35.59375 56 
Q 45.5625 56 51.78125 48.09375 
Q 58.015625 40.1875 58.015625 27.296875 
Q 58.015625 14.40625 51.78125 6.484375 
Q 45.5625 -1.421875 35.59375 -1.421875 
Q 29.59375 -1.421875 25.265625 0.953125 
Q 20.953125 3.328125 18.109375 8.203125 
z
M 48.6875 27.296875 
Q 48.6875 37.203125 44.609375 42.84375 
Q 40.53125 48.484375 33.40625 48.484375 
Q 26.265625 48.484375 22.1875 42.84375 
Q 18.109375 37.203125 18.109375 27.296875 
Q 18.109375 17.390625 22.1875 11.75 
Q 26.265625 6.109375 33.40625 6.109375 
Q 40.53125 6.109375 44.609375 11.75 
Q 48.6875 17.390625 48.6875 27.296875 
z
" id="DejaVuSans-112"/>
      </defs>
      <use xlink:href="#DejaVuSans-70"/>
      <use x="50.269531" xlink:href="#DejaVuSans-114"/>
      <use x="91.382812" xlink:href="#DejaVuSans-97"/>
      <use x="152.662109" xlink:href="#DejaVuSans-99"/>
      <use x="207.642578" xlink:href="#DejaVuSans-116"/>
      <use x="246.851562" xlink:href="#DejaVuSans-105"/>
      <use x="274.634766" xlink:href="#DejaVuSans-111"/>
      <use x="335.816406" xlink:href="#DejaVuSans-110"/>
      <use x="399.195312" xlink:href="#DejaVuSans-32"/>
      <use x="430.982422" xlink:href="#DejaVuSans-111"/>
      <use x="492.164062" xlink:href="#DejaVuSans-102"/>
      <use x="527.369141" xlink:href="#DejaVuSans-32"/>
      <use x="559.15625" xlink:href="#DejaVuSans-102"/>
      <use x="594.361328" xlink:href="#DejaVuSans-117"/>
      <use x="657.740234" xlink:href="#DejaVuSans-110"/>
      <use x="721.119141" xlink:href="#DejaVuSans-99"/>
      <use x="776.099609" xlink:href="#DejaVuSans-116"/>
      <use x="815.308594" xlink:href="#DejaVuSans-105"/>
      <use x="843.091797" xlink:href="#DejaVuSans-111"/>
      <use x="904.273438" xlink:href="#DejaVuSans-110"/>
      <use x="967.652344" xlink:href="#DejaVuSans-44"/>
      <use x="999.439453" xlink:href="#DejaVuSans-116"/>
      <use x="1038.648438" xlink:href="#DejaVuSans-97"/>
      <use x="1099.927734" xlink:href="#DejaVuSans-114"/>
      <use x="1139.291016" xlink:href="#DejaVuSans-103"/>
      <use x="1202.767578" xlink:href="#DejaVuSans-101"/>
      <use x="1264.291016" xlink:href="#DejaVuSans-116"/>
      <use x="1303.5" xlink:href="#DejaVuSans-32"/>
      <use x="1335.287109" xlink:href="#DejaVuSans-112"/>
      <use x="1398.763672" xlink:href="#DejaVuSans-97"/>
      <use x="1460.042969" xlink:href="#DejaVuSans-105"/>
      <use x="1487.826172" xlink:href="#DejaVuSans-114"/>
      <use x="1528.939453" xlink:href="#DejaVuSans-115"/>
     </g>
    </g>
   </g>
   <g id="line2d_33">
    <defs>
     <path d="M 0 1.5 
C 0.397805 1.5 0.77937 1.341951 1.06066 1.06066 
C 1.341951 0.77937 1.5 0.397805 1.5 0 
C 1.5 -0.397805 1.341951 -0.77937 1.06066 -1.06066 
C 0.77937 -1.341951 0.397805 -1.5 0 -1.5 
C -0.397805 -1.5 -0.77937 -1.341951 -1.06066 -1.06066 
C -1.341951 -0.77937 -1.5 -0.397805 -1.5 0 
C -1.5 0.397805 -1.341951 0.77937 -1.06066 1.06066 
C -0.77937 1.341951 -0.397805 1.5 0 1.5 
z
" id="md456184a6f" style="stroke:#f5deb3;"/>
    </defs>
    <g>
     <use style="fill:#f5deb3;stroke:#f5deb3;" x="298.000529" xlink:href="#md456184a6f" y="131.225052"/>
     <use style="fill:#f5deb3;stroke:#f5deb3;" x="298.000529" xlink:href="#md456184a6f" y="131.225052"/>
    </g>
   </g>
   <g id="line2d_34">
    <defs>
     <path d="M 0 1.5 
C 0.397805 1.5 0.77937 1.341951 1.06066 1.06066 
C 1.341951 0.77937 1.5 0.397805 1.5 0 
C 1.5 -0.397805 1.341951 -0.77937 1.06066 -1.06066 
C 0.77937 -1.341951 0.397805 -1.5 0 -1.5 
C -0.397805 -1.5 -0.77937 -1.341951 -1.06066 -1.06066 
C -1.341951 -0.77937 -1.5 -0.397805 -1.5 0 
C -1.5 0.397805 -1.341951 0.77937 -1.06066 1.06066 
C -0.77937 1.341951 -0.397805 1.5 0 1.5 
z
" id="md070087152" style="stroke:#ff00ff;"/>
    </defs>
    <g>
     <use style="fill:#ff00ff;stroke:#ff00ff;" x="257.66763" xlink:href="#md070087152" y="236.522286"/>
     <use style="fill:#ff00ff;stroke:#ff00ff;" x="257.66763" xlink:href="#md070087152" y="236.522286"/>
    </g>
   </g>
   <g id="line2d_35">
    <path d="M -1 291.251627 
L 91.72113 291.251627 
L 91.72113 291.125523 
L 97.224242 291.125523 
L 97.224242 290.999418 
L 101.007498 290.999418 
L 101.007498 290.873314 
L 101.151625 290.873314 
L 101.223245 290.621105 
L 110.124527 290.621105 
L 110.124527 290.495 
L 111.465878 290.495 
L 111.465878 290.368896 
L 112.070995 290.368896 
L 112.070995 290.242791 
L 112.242812 290.242791 
L 112.242812 290.116687 
L 113.85653 290.116687 
L 113.85653 289.990582 
L 114.284194 289.990582 
L 114.284194 289.864478 
L 115.06087 289.864478 
L 115.125401 289.612269 
L 115.476111 289.612269 
L 115.476111 289.486165 
L 115.648856 289.486165 
L 115.757901 289.107851 
L 115.773423 289.107851 
L 115.804426 288.855642 
L 116.081002 288.855642 
L 116.081002 288.729538 
L 116.262979 288.729538 
L 116.35326 288.351224 
L 116.532432 288.351224 
L 116.532432 288.22512 
L 116.943478 288.22512 
L 117.001416 287.846806 
L 117.087964 287.846806 
L 117.116718 287.594597 
L 117.245527 287.594597 
L 117.274023 287.342389 
L 117.472198 287.342389 
L 117.542433 287.09018 
L 117.792962 287.09018 
L 117.806775 286.711866 
L 117.916889 286.711866 
L 117.999021 286.333553 
L 118.175657 286.333553 
L 118.175657 286.207448 
L 118.470564 286.207448 
L 118.550135 285.70303 
L 118.799741 285.70303 
L 118.799741 285.576926 
L 119.751557 285.576926 
L 119.751557 285.450821 
L 119.886889 285.450821 
L 119.996839 284.694195 
L 120.009013 284.694195 
L 120.009013 284.441986 
L 120.370337 284.441986 
L 120.406061 284.189777 
L 121.013926 284.189777 
L 121.105591 283.811463 
L 121.185405 283.811463 
L 121.185405 283.685359 
L 121.343945 283.685359 
L 121.377731 283.43315 
L 121.678897 283.43315 
L 121.678897 283.307045 
L 121.887753 283.307045 
L 121.985818 282.802628 
L 122.191052 282.802628 
L 122.191052 282.676523 
L 122.31944 282.676523 
L 122.31944 282.550419 
L 122.468041 282.550419 
L 122.468041 282.424314 
L 123.090939 282.424314 
L 123.090939 282.29821 
L 123.323939 282.29821 
L 123.323939 282.172105 
L 123.444279 282.172105 
L 123.444279 282.046001 
L 123.652898 282.046001 
L 123.652898 281.919896 
L 123.995143 281.919896 
L 124.014498 281.667687 
L 124.168574 281.667687 
L 124.168574 281.541583 
L 124.416078 281.541583 
L 124.416078 281.415478 
L 125.001625 281.415478 
L 125.001625 281.289374 
L 125.174428 281.289374 
L 125.174428 281.163269 
L 125.470548 281.163269 
L 125.470548 281.037165 
L 126.082515 281.037165 
L 126.185301 280.532747 
L 126.321413 280.532747 
L 126.321413 280.406643 
L 126.814341 280.406643 
L 126.888323 280.154434 
L 126.978322 280.154434 
L 127.059738 279.902225 
L 127.156938 279.902225 
L 127.197279 279.650016 
L 127.365698 279.650016 
L 127.365698 279.523911 
L 127.571989 279.523911 
L 127.571989 279.397807 
L 127.869168 279.397807 
L 127.946538 279.145598 
L 128.396166 279.145598 
L 128.396166 279.019493 
L 128.612992 279.019493 
L 128.612992 278.893389 
L 129.204706 278.893389 
L 129.204706 278.767284 
L 129.623411 278.767284 
L 129.623411 278.64118 
L 130.723918 278.64118 
L 130.723918 278.515075 
L 131.004728 278.515075 
L 131.043554 278.262867 
L 133.307488 278.262867 
L 133.307488 278.136762 
L 133.739217 278.136762 
L 133.739217 278.010658 
L 134.095524 278.010658 
L 134.160516 277.758449 
L 134.300504 277.758449 
L 134.327297 277.50624 
L 135.045841 277.50624 
L 135.045841 277.380135 
L 135.326181 277.380135 
L 135.326181 277.254031 
L 136.873488 277.254031 
L 136.873488 277.127926 
L 137.289545 277.127926 
L 137.289545 277.001822 
L 137.849713 277.001822 
L 137.849713 276.875717 
L 139.163964 276.875717 
L 139.163964 276.749613 
L 139.875546 276.749613 
L 139.875546 276.623508 
L 140.29885 276.623508 
L 140.29885 276.497404 
L 142.086005 276.497404 
L 142.086005 276.245195 
L 142.459451 276.245195 
L 142.459451 276.11909 
L 142.884173 276.11909 
L 142.884173 275.992986 
L 144.053672 275.992986 
L 144.053672 275.866882 
L 145.298702 275.866882 
L 145.298702 275.740777 
L 145.511465 275.740777 
L 145.511465 275.614673 
L 145.657472 275.614673 
L 145.657472 275.488568 
L 146.428666 275.488568 
L 146.428666 275.362464 
L 147.421752 275.362464 
L 147.421752 275.236359 
L 147.880641 275.236359 
L 147.96413 274.98415 
L 148.025265 274.98415 
L 148.025265 274.858046 
L 148.397201 274.858046 
L 148.397201 274.731941 
L 148.608589 274.731941 
L 148.608589 274.605837 
L 148.742638 274.605837 
L 148.838427 274.353628 
L 149.9683 274.353628 
L 149.9683 274.101419 
L 150.615623 274.101419 
L 150.703775 273.84921 
L 152.813101 273.84921 
L 152.813101 273.723105 
L 153.368109 273.723105 
L 153.368109 273.597001 
L 153.513057 273.597001 
L 153.513057 273.344792 
L 153.899026 273.344792 
L 153.899026 273.218688 
L 154.387159 273.218688 
L 154.387159 273.092583 
L 154.771044 273.092583 
L 154.771044 272.966479 
L 154.904831 272.966479 
L 154.970522 272.71427 
L 155.062076 272.71427 
L 155.062076 272.588165 
L 155.275998 272.588165 
L 155.275998 272.462061 
L 155.528653 272.462061 
L 155.528653 272.209852 
L 156.989752 272.209852 
L 156.989752 272.083747 
L 158.313503 272.083747 
L 158.322973 271.831538 
L 158.948646 271.831538 
L 159.050129 271.453225 
L 159.167783 271.453225 
L 159.167783 271.327121 
L 159.464194 271.327121 
L 159.464194 271.201016 
L 160.709557 271.201016 
L 160.709557 271.074912 
L 160.956678 271.074912 
L 160.956678 270.948807 
L 161.61398 270.948807 
L 161.61398 270.822703 
L 161.770068 270.822703 
L 161.770068 270.696598 
L 162.710975 270.696598 
L 162.730944 270.444389 
L 162.836717 270.444389 
L 162.836717 270.19218 
L 163.604704 270.19218 
L 163.705322 269.687762 
L 163.849752 269.687762 
L 163.849752 269.561658 
L 164.323043 269.561658 
L 164.400532 269.183344 
L 164.697709 269.183344 
L 164.697709 269.05724 
L 164.885315 269.05724 
L 164.885315 268.931136 
L 165.162537 268.931136 
L 165.162537 268.805031 
L 166.019231 268.805031 
L 166.019231 268.678927 
L 167.043752 268.678927 
L 167.043752 268.552822 
L 168.38453 268.552822 
L 168.38453 268.426718 
L 168.797375 268.426718 
L 168.797375 268.300613 
L 169.581385 268.300613 
L 169.677571 267.9223 
L 169.796361 267.9223 
L 169.796361 267.796195 
L 170.010795 267.796195 
L 170.076407 267.543986 
L 170.623359 267.543986 
L 170.694697 267.291777 
L 170.847717 267.291777 
L 170.894481 267.039568 
L 171.627397 267.039568 
L 171.627397 266.913464 
L 171.798732 266.913464 
L 171.798732 266.78736 
L 172.71419 266.78736 
L 172.71419 266.661255 
L 173.768477 266.661255 
L 173.768477 266.535151 
L 175.175045 266.535151 
L 175.200756 266.282942 
L 175.472 266.282942 
L 175.472 266.030733 
L 175.792814 266.030733 
L 175.882978 265.778524 
L 176.660913 265.778524 
L 176.660913 265.526315 
L 177.118911 265.526315 
L 177.118911 265.40021 
L 177.770817 265.40021 
L 177.817315 265.148001 
L 178.002078 265.148001 
L 178.002078 265.021897 
L 178.639242 265.021897 
L 178.639242 264.895792 
L 178.942876 264.895792 
L 178.942876 264.643583 
L 179.167386 264.643583 
L 179.167386 264.391375 
L 179.486571 264.391375 
L 179.486571 264.26527 
L 179.900384 264.26527 
L 179.900384 264.139166 
L 180.460741 264.139166 
L 180.460741 264.013061 
L 180.616622 264.013061 
L 180.616622 263.886957 
L 180.998862 263.886957 
L 180.998862 263.760852 
L 181.144181 263.760852 
L 181.209473 263.256434 
L 181.296633 263.256434 
L 181.296633 263.13033 
L 181.471092 263.13033 
L 181.471092 263.004225 
L 182.133002 263.004225 
L 182.133002 262.878121 
L 182.244864 262.878121 
L 182.244864 262.625912 
L 182.506049 262.625912 
L 182.506049 262.499807 
L 183.00252 262.499807 
L 183.00252 262.373703 
L 183.806597 262.373703 
L 183.806597 262.121494 
L 186.346265 262.121494 
L 186.391495 261.869285 
L 186.532925 261.869285 
L 186.595327 261.490972 
L 186.799711 261.490972 
L 186.799711 261.364867 
L 186.985788 261.364867 
L 186.985788 261.238763 
L 187.121979 261.238763 
L 187.124832 260.986554 
L 187.553157 260.986554 
L 187.656099 260.60824 
L 187.734411 260.60824 
L 187.8014 259.851614 
L 187.885521 259.851614 
L 187.885521 259.725509 
L 188.359923 259.725509 
L 188.359923 259.4733 
L 188.673126 259.4733 
L 188.673126 259.347196 
L 188.957238 259.347196 
L 188.957238 259.221091 
L 189.888933 259.221091 
L 189.888933 259.094987 
L 190.049323 259.094987 
L 190.15362 258.842778 
L 190.279171 258.842778 
L 190.279171 258.716673 
L 190.837836 258.716673 
L 190.93149 258.464464 
L 191.003479 258.464464 
L 191.003479 258.33836 
L 191.374891 258.33836 
L 191.374891 258.086151 
L 192.396619 258.086151 
L 192.396619 257.833942 
L 193.328199 257.833942 
L 193.328199 257.581733 
L 193.516708 257.581733 
L 193.519224 257.329524 
L 193.990542 257.329524 
L 193.990542 257.20342 
L 194.371579 257.20342 
L 194.371579 257.077315 
L 195.152158 257.077315 
L 195.152158 256.951211 
L 195.634161 256.951211 
L 195.634161 256.825106 
L 196.391402 256.825106 
L 196.391402 256.699002 
L 197.309959 256.699002 
L 197.309959 256.572897 
L 198.131987 256.572897 
L 198.131987 256.320688 
L 198.50354 256.320688 
L 198.50354 256.068479 
L 198.914894 256.068479 
L 199.017742 255.690166 
L 199.57167 255.690166 
L 199.57167 255.564061 
L 199.693828 255.564061 
L 199.693828 255.437957 
L 199.950031 255.437957 
L 200.017894 255.059644 
L 200.273441 255.059644 
L 200.273441 254.933539 
L 200.604258 254.933539 
L 200.604258 254.807435 
L 201.504451 254.807435 
L 201.504451 254.68133 
L 201.819621 254.68133 
L 201.819621 254.555226 
L 201.966737 254.555226 
L 201.966737 254.303017 
L 202.675223 254.303017 
L 202.675223 254.176912 
L 202.889629 254.176912 
L 202.925196 253.924703 
L 203.09292 253.924703 
L 203.09292 253.798599 
L 203.774713 253.798599 
L 203.845447 253.54639 
L 204.189414 253.54639 
L 204.189414 253.420285 
L 204.419118 253.420285 
L 204.419118 253.294181 
L 204.70168 253.294181 
L 204.70168 253.168076 
L 206.015963 253.168076 
L 206.015963 253.041972 
L 209.391149 253.041972 
L 209.391149 252.915868 
L 209.920729 252.915868 
L 209.920729 252.789763 
L 210.347607 252.789763 
L 210.347607 252.663659 
L 210.926936 252.663659 
L 210.926936 252.537554 
L 211.322904 252.537554 
L 211.322904 252.285345 
L 211.545017 252.285345 
L 211.654259 252.033136 
L 211.853258 252.033136 
L 211.853258 251.907032 
L 212.035409 251.907032 
L 212.04268 251.654823 
L 212.299822 251.654823 
L 212.299822 251.528718 
L 212.655691 251.528718 
L 212.655691 251.402614 
L 212.978551 251.402614 
L 212.978551 251.276509 
L 213.515975 251.276509 
L 213.515975 251.150405 
L 215.329342 251.150405 
L 215.329342 250.898196 
L 215.808963 250.898196 
L 215.808963 250.772091 
L 216.487855 250.772091 
L 216.487855 250.645987 
L 216.80528 250.645987 
L 216.80528 250.393778 
L 217.482993 250.393778 
L 217.482993 250.141569 
L 217.621578 250.141569 
L 217.650434 249.763256 
L 217.869838 249.763256 
L 217.869838 249.637151 
L 219.073701 249.637151 
L 219.073701 249.384942 
L 219.884688 249.384942 
L 219.910509 249.132733 
L 220.305117 249.132733 
L 220.305117 249.006629 
L 220.519598 249.006629 
L 220.519598 248.880524 
L 220.810954 248.880524 
L 220.810954 248.628315 
L 221.267934 248.628315 
L 221.352227 248.250002 
L 222.335638 248.250002 
L 222.347274 247.871689 
L 222.787833 247.871689 
L 222.787833 247.745584 
L 223.296713 247.745584 
L 223.296713 247.493375 
L 224.395095 247.493375 
L 224.395095 247.367271 
L 224.877245 247.367271 
L 224.877245 247.115062 
L 225.386104 247.115062 
L 225.386104 246.988957 
L 226.535478 246.988957 
L 226.535478 246.862853 
L 229.644602 246.862853 
L 229.644602 246.736748 
L 229.81087 246.736748 
L 229.914264 246.358435 
L 229.991293 246.358435 
L 230.064867 245.349599 
L 230.293302 245.349599 
L 230.293302 245.223495 
L 230.444077 245.223495 
L 230.444077 244.971286 
L 230.996178 244.971286 
L 230.996178 244.845181 
L 231.676355 244.845181 
L 231.676355 244.592972 
L 231.925966 244.592972 
L 231.925966 244.340763 
L 232.216509 244.340763 
L 232.289382 243.710241 
L 232.399391 243.710241 
L 232.406525 243.458032 
L 233.140887 243.458032 
L 233.140887 243.205823 
L 234.095057 243.205823 
L 234.180785 242.82751 
L 234.743043 242.82751 
L 234.743043 242.701405 
L 235.814997 242.701405 
L 235.814997 242.575301 
L 237.01367 242.575301 
L 237.01367 242.323092 
L 237.448097 242.323092 
L 237.448097 242.070883 
L 239.14875 242.070883 
L 239.14875 241.818674 
L 239.494444 241.818674 
L 239.494444 241.692569 
L 240.364825 241.692569 
L 240.456182 241.188152 
L 241.689293 241.188152 
L 241.689293 240.935943 
L 241.819247 240.935943 
L 241.819247 240.683734 
L 243.435039 240.683734 
L 243.435039 240.431525 
L 244.156806 240.431525 
L 244.156806 240.30542 
L 244.974421 240.30542 
L 245.076552 239.927107 
L 245.094667 239.927107 
L 245.094667 239.674898 
L 247.269024 239.674898 
L 247.269024 239.548793 
L 247.584579 239.548793 
L 247.584579 239.422689 
L 248.182444 239.422689 
L 248.182444 239.296584 
L 248.432876 239.296584 
L 248.432876 239.044376 
L 249.421802 239.044376 
L 249.421802 238.918271 
L 250.636225 238.918271 
L 250.711678 238.539958 
L 251.210291 238.539958 
L 251.210291 238.287749 
L 251.998174 238.287749 
L 251.998174 238.03554 
L 252.348876 238.03554 
L 252.348876 237.783331 
L 253.308215 237.783331 
L 253.308215 237.657226 
L 256.051396 237.657226 
L 256.051396 237.405017 
L 256.720652 237.405017 
L 256.786836 236.9006 
L 257.110114 236.9006 
L 257.110114 236.774495 
L 257.66763 236.774495 
L 257.66763 236.522286 
L 338.688 236.522286 
L 338.688 236.522286 
" style="fill:none;stroke:#ff00ff;stroke-linecap:square;stroke-width:1.5;"/>
   </g>
   <g id="line2d_36">
    <defs>
     <path d="M 0 8.485281 
L 5.091169 0 
L 0 -8.485281 
L -5.091169 0 
z
" id="m231ea33c6b" style="stroke:#ff00ff;stroke-linejoin:miter;stroke-width:1.5;"/>
    </defs>
    <g>
     <use style="fill-opacity:0;stroke:#ff00ff;stroke-linejoin:miter;stroke-width:1.5;" x="101.223245" xlink:href="#m231ea33c6b" y="290.747209"/>
     <use style="fill-opacity:0;stroke:#ff00ff;stroke-linejoin:miter;stroke-width:1.5;" x="162.730944" xlink:href="#m231ea33c6b" y="270.570494"/>
     <use style="fill-opacity:0;stroke:#ff00ff;stroke-linejoin:miter;stroke-width:1.5;" x="224.877245" xlink:href="#m231ea33c6b" y="247.115062"/>
     <use style="fill-opacity:0;stroke:#ff00ff;stroke-linejoin:miter;stroke-width:1.5;" x="257.66763" xlink:href="#m231ea33c6b" y="236.522286"/>
     <use style="fill-opacity:0;stroke:#ff00ff;stroke-linejoin:miter;stroke-width:1.5;" x="257.66763" xlink:href="#m231ea33c6b" y="236.522286"/>
     <use style="fill-opacity:0;stroke:#ff00ff;stroke-linejoin:miter;stroke-width:1.5;" x="338.688" xlink:href="#m231ea33c6b" y="236.522286"/>
    </g>
   </g>
   <g id="line2d_37">
    <path style="fill:none;stroke:#ff00ff;stroke-linecap:square;stroke-width:1.5;"/>
    <g/>
   </g>
   <g id="line2d_38">
    <path clip-path="url(#pbd28d146e3)" d="M 258.377649 236.522286 
" style="fill:none;stroke:#ff00ff;stroke-linecap:square;stroke-width:1.5;"/>
    <defs>
     <path d="M -12 12 
L 12 -12 
M -12 -12 
L 12 12 
" id="m04c303e75e" style="stroke:#ff00ff;"/>
    </defs>
    <g clip-path="url(#pbd28d146e3)">
     <use style="fill:#ff00ff;stroke:#ff00ff;" x="258.377649" xlink:href="#m04c303e75e" y="236.522286"/>
    </g>
   </g>
   <g id="line2d_39">
    <defs>
     <path d="M 0 1.5 
C 0.397805 1.5 0.77937 1.341951 1.06066 1.06066 
C 1.341951 0.77937 1.5 0.397805 1.5 0 
C 1.5 -0.397805 1.341951 -0.77937 1.06066 -1.06066 
C 0.77937 -1.341951 0.397805 -1.5 0 -1.5 
C -0.397805 -1.5 -0.77937 -1.341951 -1.06066 -1.06066 
C -1.341951 -0.77937 -1.5 -0.397805 -1.5 0 
C -1.5 0.397805 -1.341951 0.77937 -1.06066 1.06066 
C -0.77937 1.341951 -0.397805 1.5 0 1.5 
z
" id="m3f0d0b850f" style="stroke:#ff7500;"/>
    </defs>
    <g>
     <use style="fill:#ff7500;stroke:#ff7500;" x="255.214611" xlink:href="#m3f0d0b850f" y="237.531122"/>
     <use style="fill:#ff7500;stroke:#ff7500;" x="255.214611" xlink:href="#m3f0d0b850f" y="237.531122"/>
    </g>
   </g>
   <g id="line2d_40">
    <path d="M 139.572998 298.944 
L 139.572998 298.817896 
L 140.619053 298.817896 
L 140.619053 298.691791 
L 142.300865 298.691791 
L 142.300865 298.565687 
L 142.719495 298.565687 
L 142.719495 298.439582 
L 143.011551 298.439582 
L 143.011551 298.313478 
L 143.250715 298.313478 
L 143.250715 298.187373 
L 144.087359 298.187373 
L 144.087359 298.061269 
L 145.668653 298.061269 
L 145.668653 297.935164 
L 146.058265 297.935164 
L 146.058265 297.80906 
L 146.641376 297.80906 
L 146.641376 297.682955 
L 146.997131 297.682955 
L 146.997131 297.556851 
L 147.692562 297.556851 
L 147.692562 297.430746 
L 148.1808 297.430746 
L 148.1808 297.178537 
L 149.113504 297.178537 
L 149.15016 296.926328 
L 150.234852 296.926328 
L 150.234852 296.800224 
L 150.851787 296.800224 
L 150.851787 296.674119 
L 150.980018 296.674119 
L 150.980018 296.548015 
L 151.31271 296.548015 
L 151.31271 296.295806 
L 151.714412 296.295806 
L 151.816845 296.043597 
L 151.828626 296.043597 
L 151.916728 295.665284 
L 151.975216 295.665284 
L 151.975216 295.539179 
L 152.472172 295.539179 
L 152.570263 295.160866 
L 152.587184 295.160866 
L 152.587184 295.034761 
L 153.105587 295.034761 
L 153.196559 294.782552 
L 153.229193 294.782552 
L 153.310512 294.278135 
L 153.534429 294.278135 
L 153.534429 294.15203 
L 153.902512 294.15203 
L 153.902512 294.025926 
L 154.127605 294.025926 
L 154.20485 293.521508 
L 154.281754 293.521508 
L 154.370201 293.143194 
L 154.495299 293.143194 
L 154.557513 292.890985 
L 154.609468 292.890985 
L 154.609468 292.764881 
L 155.086518 292.764881 
L 155.188801 292.386567 
L 155.28405 292.386567 
L 155.28405 292.260463 
L 155.533415 292.260463 
L 155.539762 291.88215 
L 155.782394 291.88215 
L 155.821466 291.377732 
L 155.996986 291.377732 
L 156.038664 291.125523 
L 156.499682 291.125523 
L 156.526689 290.747209 
L 156.675973 290.747209 
L 156.683404 290.495 
L 156.879909 290.495 
L 156.879909 290.368896 
L 157.463584 290.368896 
L 157.535897 290.116687 
L 157.578294 290.116687 
L 157.66278 289.864478 
L 157.781772 289.864478 
L 157.85139 289.612269 
L 157.912425 289.612269 
L 157.912425 289.486165 
L 158.039357 289.486165 
L 158.039357 289.36006 
L 158.245709 289.36006 
L 158.313503 288.855642 
L 158.426806 288.855642 
L 158.489883 288.603433 
L 158.610035 288.603433 
L 158.610035 288.477329 
L 158.850507 288.477329 
L 158.88852 288.099015 
L 159.112287 288.099015 
L 159.187101 287.720702 
L 159.259031 287.720702 
L 159.303838 287.468493 
L 159.438839 287.468493 
L 159.548866 286.964075 
L 159.563988 286.964075 
L 159.600479 286.585762 
L 159.723229 286.585762 
L 159.723229 286.459657 
L 159.889686 286.459657 
L 159.889686 286.333553 
L 160.049669 286.333553 
L 160.049669 286.207448 
L 160.448111 286.207448 
L 160.523381 285.829135 
L 160.645746 285.829135 
L 160.734309 285.324717 
L 160.784884 285.324717 
L 160.865732 284.946404 
L 160.935732 284.946404 
L 160.935732 284.694195 
L 161.089904 284.694195 
L 161.165908 284.441986 
L 161.26102 284.441986 
L 161.285002 284.063672 
L 161.411222 284.063672 
L 161.458744 283.811463 
L 161.542158 283.811463 
L 161.641956 283.43315 
L 161.715596 283.43315 
L 161.758965 283.054836 
L 161.84538 283.054836 
L 161.952252 282.802628 
L 162.000514 282.802628 
L 162.062839 282.550419 
L 162.221468 282.550419 
L 162.238764 282.29821 
L 162.348628 282.29821 
L 162.348628 282.172105 
L 162.545081 282.172105 
L 162.545081 282.046001 
L 162.77815 282.046001 
L 162.835672 281.541583 
L 162.985385 281.541583 
L 163.058731 281.163269 
L 163.130743 281.163269 
L 163.241267 280.658851 
L 163.508526 280.658851 
L 163.508526 280.532747 
L 163.669525 280.532747 
L 163.770761 279.902225 
L 163.872396 279.902225 
L 163.970507 279.397807 
L 164.15638 279.397807 
L 164.266383 279.145598 
L 164.310575 279.145598 
L 164.310575 279.019493 
L 164.429145 279.019493 
L 164.44629 278.64118 
L 164.682688 278.64118 
L 164.684566 278.262867 
L 164.860231 278.262867 
L 164.860231 278.136762 
L 164.982521 278.136762 
L 164.982521 278.010658 
L 165.184452 278.010658 
L 165.208163 277.632344 
L 165.302685 277.632344 
L 165.302685 277.50624 
L 165.478545 277.50624 
L 165.539456 277.127926 
L 165.724461 277.127926 
L 165.810071 276.749613 
L 165.930273 276.749613 
L 165.93377 276.371299 
L 166.056598 276.371299 
L 166.056598 276.245195 
L 166.404665 276.245195 
L 166.404665 276.11909 
L 166.631229 276.11909 
L 166.631229 275.992986 
L 166.756764 275.992986 
L 166.756764 275.866882 
L 166.946688 275.866882 
L 167.053592 275.614673 
L 167.211917 275.614673 
L 167.211917 275.488568 
L 167.433912 275.488568 
L 167.433912 275.362464 
L 167.723473 275.362464 
L 167.723473 275.236359 
L 167.839846 275.236359 
L 167.879768 274.605837 
L 168.028473 274.605837 
L 168.028473 274.479732 
L 168.156692 274.479732 
L 168.156692 274.353628 
L 168.427015 274.353628 
L 168.482242 273.975314 
L 168.538801 273.975314 
L 168.617676 273.470897 
L 168.777335 273.470897 
L 168.885428 272.966479 
L 169.100355 272.966479 
L 169.176011 272.588165 
L 169.360853 272.588165 
L 169.360853 272.462061 
L 169.579257 272.462061 
L 169.609022 272.209852 
L 169.770423 272.209852 
L 169.879524 271.705434 
L 169.91226 271.705434 
L 169.916435 271.327121 
L 170.032233 271.327121 
L 170.134217 270.570494 
L 170.212368 270.570494 
L 170.294256 270.318285 
L 170.419074 270.318285 
L 170.526219 270.066076 
L 170.551729 270.066076 
L 170.638718 269.687762 
L 170.823298 269.687762 
L 170.880004 269.309449 
L 170.978472 269.309449 
L 171.073783 269.05724 
L 171.105005 269.05724 
L 171.105005 268.931136 
L 171.275733 268.931136 
L 171.343174 268.678927 
L 171.494446 268.678927 
L 171.570542 268.426718 
L 171.66268 268.426718 
L 171.66268 268.300613 
L 171.891539 268.300613 
L 171.977056 267.670091 
L 172.127242 267.670091 
L 172.146842 267.165673 
L 172.245735 267.165673 
L 172.316205 266.661255 
L 172.364034 266.661255 
L 172.468319 265.904628 
L 172.659587 265.904628 
L 172.756213 265.526315 
L 172.847015 265.526315 
L 172.847015 265.40021 
L 173.190006 265.40021 
L 173.256768 264.895792 
L 173.304382 264.895792 
L 173.323848 264.517479 
L 173.453263 264.517479 
L 173.55464 263.886957 
L 173.636331 263.886957 
L 173.636331 263.760852 
L 173.755084 263.760852 
L 173.850285 263.508643 
L 173.941103 263.508643 
L 174.050672 263.256434 
L 174.260717 263.256434 
L 174.333774 262.878121 
L 174.429099 262.878121 
L 174.5052 262.625912 
L 174.601722 262.625912 
L 174.699828 261.617076 
L 174.762644 261.617076 
L 174.870328 261.238763 
L 174.989318 261.238763 
L 175.049547 260.860449 
L 175.100785 260.860449 
L 175.110085 260.60824 
L 175.245403 260.60824 
L 175.245403 260.482136 
L 175.407123 260.482136 
L 175.407123 260.356031 
L 175.545707 260.356031 
L 175.655687 259.599405 
L 175.697188 259.599405 
L 175.798773 259.094987 
L 175.844889 259.094987 
L 175.936263 258.212255 
L 175.966287 258.212255 
L 176.007547 257.833942 
L 176.174534 257.833942 
L 176.23178 257.455629 
L 176.423492 257.455629 
L 176.509985 256.951211 
L 176.662331 256.951211 
L 176.662331 256.825106 
L 176.836765 256.825106 
L 176.924496 256.068479 
L 176.959837 256.068479 
L 176.959837 255.942375 
L 177.118911 255.942375 
L 177.195157 255.437957 
L 177.30845 255.437957 
L 177.356196 255.059644 
L 177.459425 255.059644 
L 177.560251 254.555226 
L 177.693934 254.555226 
L 177.795631 254.176912 
L 177.974927 254.176912 
L 178.061925 253.798599 
L 178.093731 253.798599 
L 178.093731 253.672494 
L 178.282926 253.672494 
L 178.351257 253.294181 
L 178.406927 253.294181 
L 178.406927 253.041972 
L 178.54533 253.041972 
L 178.640929 252.537554 
L 178.697786 252.537554 
L 178.743558 252.159241 
L 178.928358 252.159241 
L 178.976427 251.654823 
L 179.141991 251.654823 
L 179.171479 251.276509 
L 179.265344 251.276509 
L 179.265344 251.150405 
L 179.464453 251.150405 
L 179.464453 251.0243 
L 179.6808 251.0243 
L 179.718912 250.519883 
L 179.945458 250.519883 
L 179.977918 250.015465 
L 180.147831 250.015465 
L 180.223119 249.763256 
L 180.267368 249.763256 
L 180.267368 249.637151 
L 180.534315 249.637151 
L 180.534315 249.511047 
L 180.652369 249.511047 
L 180.761039 249.132733 
L 180.84117 249.132733 
L 180.871264 248.75442 
L 181.139064 248.75442 
L 181.139064 248.628315 
L 181.36244 248.628315 
L 181.454227 247.997793 
L 181.515509 247.997793 
L 181.515509 247.745584 
L 181.971695 247.745584 
L 182.08113 246.862853 
L 182.121603 246.862853 
L 182.121603 246.736748 
L 182.366919 246.736748 
L 182.443069 246.358435 
L 182.613536 246.358435 
L 182.613536 246.23233 
L 182.787675 246.23233 
L 182.787675 246.106226 
L 183.034028 246.106226 
L 183.034028 245.980122 
L 183.20144 245.980122 
L 183.20144 245.854017 
L 183.559859 245.854017 
L 183.597998 245.349599 
L 183.707815 245.349599 
L 183.773941 245.09739 
L 183.837626 245.09739 
L 183.837626 244.971286 
L 184.71753 244.971286 
L 184.71753 244.719077 
L 184.864585 244.719077 
L 184.903218 244.466868 
L 185.250583 244.466868 
L 185.250583 244.340763 
L 185.486923 244.340763 
L 185.486923 244.214659 
L 185.778474 244.214659 
L 185.874028 243.96245 
L 185.940216 243.96245 
L 185.940216 243.710241 
L 186.335686 243.710241 
L 186.388519 243.205823 
L 186.462757 243.205823 
L 186.502312 242.82751 
L 187.050501 242.82751 
L 187.050501 242.701405 
L 187.197815 242.701405 
L 187.268693 242.323092 
L 187.319804 242.323092 
L 187.319804 242.196987 
L 187.693793 242.196987 
L 187.693793 242.070883 
L 188.138656 242.070883 
L 188.207038 241.692569 
L 189.137252 241.692569 
L 189.137252 241.566465 
L 191.788252 241.566465 
L 191.788252 241.440361 
L 195.248621 241.440361 
L 195.248621 241.188152 
L 199.977233 241.188152 
L 199.977233 241.062047 
L 200.302824 241.062047 
L 200.302824 240.935943 
L 200.821407 240.935943 
L 200.821407 240.683734 
L 202.630297 240.683734 
L 202.630297 240.557629 
L 203.165951 240.557629 
L 203.165951 240.431525 
L 203.613449 240.431525 
L 203.613449 240.30542 
L 204.199257 240.30542 
L 204.199257 240.053211 
L 205.400916 240.053211 
L 205.400916 239.927107 
L 208.2244 239.927107 
L 208.2244 239.801002 
L 208.576911 239.801002 
L 208.682857 239.548793 
L 208.775578 239.548793 
L 208.775578 239.422689 
L 210.534577 239.422689 
L 210.534577 239.296584 
L 211.840124 239.296584 
L 211.840124 239.17048 
L 220.114034 239.17048 
L 220.114034 238.918271 
L 220.676834 238.918271 
L 220.759541 238.666062 
L 222.194325 238.666062 
L 222.205847 238.287749 
L 223.873463 238.287749 
L 223.873463 238.161644 
L 236.822637 238.161644 
L 236.822637 238.03554 
L 239.761529 238.03554 
L 239.761529 237.909435 
L 243.423923 237.909435 
L 243.423923 237.783331 
L 255.214611 237.783331 
L 255.214611 237.531122 
L 338.688 237.531122 
L 338.688 237.531122 
" style="fill:none;stroke:#ff7500;stroke-linecap:square;stroke-width:1.5;"/>
   </g>
   <g id="line2d_41">
    <defs>
     <path d="M 0 -6 
L -1.347084 -1.854102 
L -5.706339 -1.854102 
L -2.179628 0.708204 
L -3.526712 4.854102 
L -0 2.291796 
L 3.526712 4.854102 
L 2.179628 0.708204 
L 5.706339 -1.854102 
L 1.347084 -1.854102 
z
" id="m21b26f7bac" style="stroke:#ff7500;stroke-linejoin:bevel;stroke-width:1.5;"/>
    </defs>
    <g>
     <use style="fill-opacity:0;stroke:#ff7500;stroke-linejoin:bevel;stroke-width:1.5;" x="195.248621" xlink:href="#m21b26f7bac" y="241.440361"/>
     <use style="fill-opacity:0;stroke:#ff7500;stroke-linejoin:bevel;stroke-width:1.5;" x="255.214611" xlink:href="#m21b26f7bac" y="237.783331"/>
     <use style="fill-opacity:0;stroke:#ff7500;stroke-linejoin:bevel;stroke-width:1.5;" x="255.214611" xlink:href="#m21b26f7bac" y="237.531122"/>
     <use style="fill-opacity:0;stroke:#ff7500;stroke-linejoin:bevel;stroke-width:1.5;" x="255.214611" xlink:href="#m21b26f7bac" y="237.531122"/>
     <use style="fill-opacity:0;stroke:#ff7500;stroke-linejoin:bevel;stroke-width:1.5;" x="338.688" xlink:href="#m21b26f7bac" y="237.531122"/>
    </g>
   </g>
   <g id="line2d_42">
    <path style="fill:none;stroke:#ff7500;stroke-linecap:square;stroke-width:1.5;"/>
    <g/>
   </g>
   <g id="line2d_43">
    <path clip-path="url(#pbd28d146e3)" d="M 258.377147 237.531122 
" style="fill:none;stroke:#ff7500;stroke-linecap:square;stroke-width:1.5;"/>
    <defs>
     <path d="M -12 12 
L 12 -12 
M -12 -12 
L 12 12 
" id="m837bf2f333" style="stroke:#ff7500;"/>
    </defs>
    <g clip-path="url(#pbd28d146e3)">
     <use style="fill:#ff7500;stroke:#ff7500;" x="258.377147" xlink:href="#m837bf2f333" y="237.531122"/>
    </g>
   </g>
   <g id="line2d_44">
    <path d="M 338.688 237.531122 
L 369.60768 293.092752 
" style="fill:none;stroke:#ff7500;stroke-linecap:square;stroke-width:1.5;"/>
    <g>
     <use style="fill-opacity:0;stroke:#ff7500;stroke-linejoin:bevel;stroke-width:1.5;" x="338.688" xlink:href="#m21b26f7bac" y="237.531122"/>
     <use style="fill-opacity:0;stroke:#ff7500;stroke-linejoin:bevel;stroke-width:1.5;" x="369.60768" xlink:href="#m21b26f7bac" y="293.092752"/>
    </g>
   </g>
   <g id="line2d_45">
    <path d="M 338.688 236.522286 
L 369.60768 152.662812 
" style="fill:none;stroke:#ff00ff;stroke-linecap:square;stroke-width:1.5;"/>
    <g>
     <use style="fill-opacity:0;stroke:#ff00ff;stroke-linejoin:miter;stroke-width:1.5;" x="338.688" xlink:href="#m231ea33c6b" y="236.522286"/>
     <use style="fill-opacity:0;stroke:#ff00ff;stroke-linejoin:miter;stroke-width:1.5;" x="369.60768" xlink:href="#m231ea33c6b" y="152.662812"/>
    </g>
   </g>
   <g id="line2d_46">
    <path d="M 338.688 298.944 
L 338.688 6.381624 
" style="fill:none;stroke:#000000;stroke-linecap:square;stroke-width:1.5;"/>
   </g>
   <g id="patch_3">
    <path d="M 57.6 298.944 
L 57.6 3.456 
" style="fill:none;stroke:#000000;stroke-linecap:square;stroke-linejoin:miter;stroke-width:0.8;"/>
   </g>
   <g id="patch_4">
    <path d="M 338.688 298.944 
L 338.688 3.456 
" style="fill:none;stroke:#000000;stroke-linecap:square;stroke-linejoin:miter;stroke-width:0.8;"/>
   </g>
   <g id="patch_5">
    <path d="M 57.6 298.944 
L 338.688 298.944 
" style="fill:none;stroke:#000000;stroke-linecap:square;stroke-linejoin:miter;stroke-width:0.8;"/>
   </g>
   <g id="patch_6">
    <path d="M 57.6 3.456 
L 338.688 3.456 
" style="fill:none;stroke:#000000;stroke-linecap:square;stroke-linejoin:miter;stroke-width:0.8;"/>
   </g>
   <g id="text_13">
    <!-- SMS-EMOA- -->
    <g transform="translate(375.22944 297.78369)scale(0.17 -0.17)">
     <defs>
      <path d="M 53.515625 70.515625 
L 53.515625 60.890625 
Q 47.90625 63.578125 42.921875 64.890625 
Q 37.9375 66.21875 33.296875 66.21875 
Q 25.25 66.21875 20.875 63.09375 
Q 16.5 59.96875 16.5 54.203125 
Q 16.5 49.359375 19.40625 46.890625 
Q 22.3125 44.4375 30.421875 42.921875 
L 36.375 41.703125 
Q 47.40625 39.59375 52.65625 34.296875 
Q 57.90625 29 57.90625 20.125 
Q 57.90625 9.515625 50.796875 4.046875 
Q 43.703125 -1.421875 29.984375 -1.421875 
Q 24.8125 -1.421875 18.96875 -0.25 
Q 13.140625 0.921875 6.890625 3.21875 
L 6.890625 13.375 
Q 12.890625 10.015625 18.65625 8.296875 
Q 24.421875 6.59375 29.984375 6.59375 
Q 38.421875 6.59375 43.015625 9.90625 
Q 47.609375 13.234375 47.609375 19.390625 
Q 47.609375 24.75 44.3125 27.78125 
Q 41.015625 30.8125 33.5 32.328125 
L 27.484375 33.5 
Q 16.453125 35.6875 11.515625 40.375 
Q 6.59375 45.0625 6.59375 53.421875 
Q 6.59375 63.09375 13.40625 68.65625 
Q 20.21875 74.21875 32.171875 74.21875 
Q 37.3125 74.21875 42.625 73.28125 
Q 47.953125 72.359375 53.515625 70.515625 
z
" id="DejaVuSans-83"/>
      <path d="M 9.8125 72.90625 
L 24.515625 72.90625 
L 43.109375 23.296875 
L 61.8125 72.90625 
L 76.515625 72.90625 
L 76.515625 0 
L 66.890625 0 
L 66.890625 64.015625 
L 48.09375 14.015625 
L 38.1875 14.015625 
L 19.390625 64.015625 
L 19.390625 0 
L 9.8125 0 
z
" id="DejaVuSans-77"/>
      <path d="M 9.8125 72.90625 
L 55.90625 72.90625 
L 55.90625 64.59375 
L 19.671875 64.59375 
L 19.671875 43.015625 
L 54.390625 43.015625 
L 54.390625 34.71875 
L 19.671875 34.71875 
L 19.671875 8.296875 
L 56.78125 8.296875 
L 56.78125 0 
L 9.8125 0 
z
" id="DejaVuSans-69"/>
      <path d="M 39.40625 66.21875 
Q 28.65625 66.21875 22.328125 58.203125 
Q 16.015625 50.203125 16.015625 36.375 
Q 16.015625 22.609375 22.328125 14.59375 
Q 28.65625 6.59375 39.40625 6.59375 
Q 50.140625 6.59375 56.421875 14.59375 
Q 62.703125 22.609375 62.703125 36.375 
Q 62.703125 50.203125 56.421875 58.203125 
Q 50.140625 66.21875 39.40625 66.21875 
z
M 39.40625 74.21875 
Q 54.734375 74.21875 63.90625 63.9375 
Q 73.09375 53.65625 73.09375 36.375 
Q 73.09375 19.140625 63.90625 8.859375 
Q 54.734375 -1.421875 39.40625 -1.421875 
Q 24.03125 -1.421875 14.8125 8.828125 
Q 5.609375 19.09375 5.609375 36.375 
Q 5.609375 53.65625 14.8125 63.9375 
Q 24.03125 74.21875 39.40625 74.21875 
z
" id="DejaVuSans-79"/>
      <path d="M 34.1875 63.1875 
L 20.796875 26.90625 
L 47.609375 26.90625 
z
M 28.609375 72.90625 
L 39.796875 72.90625 
L 67.578125 0 
L 57.328125 0 
L 50.6875 18.703125 
L 17.828125 18.703125 
L 11.1875 0 
L 0.78125 0 
z
" id="DejaVuSans-65"/>
     </defs>
     <use xlink:href="#DejaVuSans-83"/>
     <use x="63.476562" xlink:href="#DejaVuSans-77"/>
     <use x="149.755859" xlink:href="#DejaVuSans-83"/>
     <use x="213.232422" xlink:href="#DejaVuSans-45"/>
     <use x="249.316406" xlink:href="#DejaVuSans-69"/>
     <use x="312.5" xlink:href="#DejaVuSans-77"/>
     <use x="398.779297" xlink:href="#DejaVuSans-79"/>
     <use x="475.740234" xlink:href="#DejaVuSans-65"/>
     <use x="541.898438" xlink:href="#DejaVuSans-45"/>
    </g>
   </g>
   <g id="text_14">
    <!-- NSGA-II-M -->
    <g transform="translate(375.22944 157.353749)scale(0.17 -0.17)">
     <defs>
      <path d="M 9.8125 72.90625 
L 23.09375 72.90625 
L 55.421875 11.921875 
L 55.421875 72.90625 
L 64.984375 72.90625 
L 64.984375 0 
L 51.703125 0 
L 19.390625 60.984375 
L 19.390625 0 
L 9.8125 0 
z
" id="DejaVuSans-78"/>
      <path d="M 59.515625 10.40625 
L 59.515625 29.984375 
L 43.40625 29.984375 
L 43.40625 38.09375 
L 69.28125 38.09375 
L 69.28125 6.78125 
Q 63.578125 2.734375 56.6875 0.65625 
Q 49.8125 -1.421875 42 -1.421875 
Q 24.90625 -1.421875 15.25 8.5625 
Q 5.609375 18.5625 5.609375 36.375 
Q 5.609375 54.25 15.25 64.234375 
Q 24.90625 74.21875 42 74.21875 
Q 49.125 74.21875 55.546875 72.453125 
Q 61.96875 70.703125 67.390625 67.28125 
L 67.390625 56.78125 
Q 61.921875 61.421875 55.765625 63.765625 
Q 49.609375 66.109375 42.828125 66.109375 
Q 29.4375 66.109375 22.71875 58.640625 
Q 16.015625 51.171875 16.015625 36.375 
Q 16.015625 21.625 22.71875 14.15625 
Q 29.4375 6.6875 42.828125 6.6875 
Q 48.046875 6.6875 52.140625 7.59375 
Q 56.25 8.5 59.515625 10.40625 
z
" id="DejaVuSans-71"/>
      <path d="M 9.8125 72.90625 
L 19.671875 72.90625 
L 19.671875 0 
L 9.8125 0 
z
" id="DejaVuSans-73"/>
     </defs>
     <use xlink:href="#DejaVuSans-78"/>
     <use x="74.804688" xlink:href="#DejaVuSans-83"/>
     <use x="138.28125" xlink:href="#DejaVuSans-71"/>
     <use x="215.771484" xlink:href="#DejaVuSans-65"/>
     <use x="281.929688" xlink:href="#DejaVuSans-45"/>
     <use x="318.013672" xlink:href="#DejaVuSans-73"/>
     <use x="347.505859" xlink:href="#DejaVuSans-73"/>
     <use x="376.998047" xlink:href="#DejaVuSans-45"/>
     <use x="413.082031" xlink:href="#DejaVuSans-77"/>
    </g>
   </g>
   <g id="text_15">
    <!-- best 2016 -->
    <g transform="translate(375.22944 16.923809)scale(0.17 -0.17)">
     <defs>
      <path d="M 48.6875 27.296875 
Q 48.6875 37.203125 44.609375 42.84375 
Q 40.53125 48.484375 33.40625 48.484375 
Q 26.265625 48.484375 22.1875 42.84375 
Q 18.109375 37.203125 18.109375 27.296875 
Q 18.109375 17.390625 22.1875 11.75 
Q 26.265625 6.109375 33.40625 6.109375 
Q 40.53125 6.109375 44.609375 11.75 
Q 48.6875 17.390625 48.6875 27.296875 
z
M 18.109375 46.390625 
Q 20.953125 51.265625 25.265625 53.625 
Q 29.59375 56 35.59375 56 
Q 45.5625 56 51.78125 48.09375 
Q 58.015625 40.1875 58.015625 27.296875 
Q 58.015625 14.40625 51.78125 6.484375 
Q 45.5625 -1.421875 35.59375 -1.421875 
Q 29.59375 -1.421875 25.265625 0.953125 
Q 20.953125 3.328125 18.109375 8.203125 
L 18.109375 0 
L 9.078125 0 
L 9.078125 75.984375 
L 18.109375 75.984375 
z
" id="DejaVuSans-98"/>
     </defs>
     <use xlink:href="#DejaVuSans-98"/>
     <use x="63.476562" xlink:href="#DejaVuSans-101"/>
     <use x="125" xlink:href="#DejaVuSans-115"/>
     <use x="177.099609" xlink:href="#DejaVuSans-116"/>
     <use x="216.308594" xlink:href="#DejaVuSans-32"/>
     <use x="248.095703" xlink:href="#DejaVuSans-50"/>
     <use x="311.71875" xlink:href="#DejaVuSans-48"/>
     <use x="375.341797" xlink:href="#DejaVuSans-49"/>
     <use x="438.964844" xlink:href="#DejaVuSans-54"/>
    </g>
   </g>
   <g id="text_16">
    <!-- bbob-biobj f3, f4, f12, f13, 40-D -->
    <g transform="translate(60.41088 14.161286)scale(0.102 -0.102)">
     <defs>
      <path d="M 9.421875 54.6875 
L 18.40625 54.6875 
L 18.40625 -0.984375 
Q 18.40625 -11.421875 14.421875 -16.109375 
Q 10.453125 -20.796875 1.609375 -20.796875 
L -1.8125 -20.796875 
L -1.8125 -13.1875 
L 0.59375 -13.1875 
Q 5.71875 -13.1875 7.5625 -10.8125 
Q 9.421875 -8.453125 9.421875 -0.984375 
z
M 9.421875 75.984375 
L 18.40625 75.984375 
L 18.40625 64.59375 
L 9.421875 64.59375 
z
" id="DejaVuSans-106"/>
      <path d="M 40.578125 39.3125 
Q 47.65625 37.796875 51.625 33 
Q 55.609375 28.21875 55.609375 21.1875 
Q 55.609375 10.40625 48.1875 4.484375 
Q 40.765625 -1.421875 27.09375 -1.421875 
Q 22.515625 -1.421875 17.65625 -0.515625 
Q 12.796875 0.390625 7.625 2.203125 
L 7.625 11.71875 
Q 11.71875 9.328125 16.59375 8.109375 
Q 21.484375 6.890625 26.8125 6.890625 
Q 36.078125 6.890625 40.9375 10.546875 
Q 45.796875 14.203125 45.796875 21.1875 
Q 45.796875 27.640625 41.28125 31.265625 
Q 36.765625 34.90625 28.71875 34.90625 
L 20.21875 34.90625 
L 20.21875 43.015625 
L 29.109375 43.015625 
Q 36.375 43.015625 40.234375 45.921875 
Q 44.09375 48.828125 44.09375 54.296875 
Q 44.09375 59.90625 40.109375 62.90625 
Q 36.140625 65.921875 28.71875 65.921875 
Q 24.65625 65.921875 20.015625 65.03125 
Q 15.375 64.15625 9.8125 62.3125 
L 9.8125 71.09375 
Q 15.4375 72.65625 20.34375 73.4375 
Q 25.25 74.21875 29.59375 74.21875 
Q 40.828125 74.21875 47.359375 69.109375 
Q 53.90625 64.015625 53.90625 55.328125 
Q 53.90625 49.265625 50.4375 45.09375 
Q 46.96875 40.921875 40.578125 39.3125 
z
" id="DejaVuSans-51"/>
      <path d="M 19.671875 64.796875 
L 19.671875 8.109375 
L 31.59375 8.109375 
Q 46.6875 8.109375 53.6875 14.9375 
Q 60.6875 21.78125 60.6875 36.53125 
Q 60.6875 51.171875 53.6875 57.984375 
Q 46.6875 64.796875 31.59375 64.796875 
z
M 9.8125 72.90625 
L 30.078125 72.90625 
Q 51.265625 72.90625 61.171875 64.09375 
Q 71.09375 55.28125 71.09375 36.53125 
Q 71.09375 17.671875 61.125 8.828125 
Q 51.171875 0 30.078125 0 
L 9.8125 0 
z
" id="DejaVuSans-68"/>
     </defs>
     <use xlink:href="#DejaVuSans-98"/>
     <use x="63.476562" xlink:href="#DejaVuSans-98"/>
     <use x="126.953125" xlink:href="#DejaVuSans-111"/>
     <use x="188.134766" xlink:href="#DejaVuSans-98"/>
     <use x="251.611328" xlink:href="#DejaVuSans-45"/>
     <use x="287.695312" xlink:href="#DejaVuSans-98"/>
     <use x="351.171875" xlink:href="#DejaVuSans-105"/>
     <use x="378.955078" xlink:href="#DejaVuSans-111"/>
     <use x="440.136719" xlink:href="#DejaVuSans-98"/>
     <use x="503.613281" xlink:href="#DejaVuSans-106"/>
     <use x="531.396484" xlink:href="#DejaVuSans-32"/>
     <use x="563.183594" xlink:href="#DejaVuSans-102"/>
     <use x="598.388672" xlink:href="#DejaVuSans-51"/>
     <use x="662.011719" xlink:href="#DejaVuSans-44"/>
     <use x="693.798828" xlink:href="#DejaVuSans-32"/>
     <use x="725.585938" xlink:href="#DejaVuSans-102"/>
     <use x="760.791016" xlink:href="#DejaVuSans-52"/>
     <use x="824.414062" xlink:href="#DejaVuSans-44"/>
     <use x="856.201172" xlink:href="#DejaVuSans-32"/>
     <use x="887.988281" xlink:href="#DejaVuSans-102"/>
     <use x="923.193359" xlink:href="#DejaVuSans-49"/>
     <use x="986.816406" xlink:href="#DejaVuSans-50"/>
     <use x="1050.439453" xlink:href="#DejaVuSans-44"/>
     <use x="1082.226562" xlink:href="#DejaVuSans-32"/>
     <use x="1114.013672" xlink:href="#DejaVuSans-102"/>
     <use x="1149.21875" xlink:href="#DejaVuSans-49"/>
     <use x="1212.841797" xlink:href="#DejaVuSans-51"/>
     <use x="1276.464844" xlink:href="#DejaVuSans-44"/>
     <use x="1308.251953" xlink:href="#DejaVuSans-32"/>
     <use x="1340.039062" xlink:href="#DejaVuSans-52"/>
     <use x="1403.662109" xlink:href="#DejaVuSans-48"/>
     <use x="1467.285156" xlink:href="#DejaVuSans-45"/>
     <use x="1503.369141" xlink:href="#DejaVuSans-68"/>
    </g>
    <!-- 58 targets: 1..-1.0e-4 -->
    <g transform="translate(60.41088 25.583055)scale(0.102 -0.102)">
     <defs>
      <path d="M 10.796875 72.90625 
L 49.515625 72.90625 
L 49.515625 64.59375 
L 19.828125 64.59375 
L 19.828125 46.734375 
Q 21.96875 47.46875 24.109375 47.828125 
Q 26.265625 48.1875 28.421875 48.1875 
Q 40.625 48.1875 47.75 41.5 
Q 54.890625 34.8125 54.890625 23.390625 
Q 54.890625 11.625 47.5625 5.09375 
Q 40.234375 -1.421875 26.90625 -1.421875 
Q 22.3125 -1.421875 17.546875 -0.640625 
Q 12.796875 0.140625 7.71875 1.703125 
L 7.71875 11.625 
Q 12.109375 9.234375 16.796875 8.0625 
Q 21.484375 6.890625 26.703125 6.890625 
Q 35.15625 6.890625 40.078125 11.328125 
Q 45.015625 15.765625 45.015625 23.390625 
Q 45.015625 31 40.078125 35.4375 
Q 35.15625 39.890625 26.703125 39.890625 
Q 22.75 39.890625 18.8125 39.015625 
Q 14.890625 38.140625 10.796875 36.28125 
z
" id="DejaVuSans-53"/>
      <path d="M 11.71875 12.40625 
L 22.015625 12.40625 
L 22.015625 0 
L 11.71875 0 
z
M 11.71875 51.703125 
L 22.015625 51.703125 
L 22.015625 39.3125 
L 11.71875 39.3125 
z
" id="DejaVuSans-58"/>
     </defs>
     <use xlink:href="#DejaVuSans-53"/>
     <use x="63.623047" xlink:href="#DejaVuSans-56"/>
     <use x="127.246094" xlink:href="#DejaVuSans-32"/>
     <use x="159.033203" xlink:href="#DejaVuSans-116"/>
     <use x="198.242188" xlink:href="#DejaVuSans-97"/>
     <use x="259.521484" xlink:href="#DejaVuSans-114"/>
     <use x="298.884766" xlink:href="#DejaVuSans-103"/>
     <use x="362.361328" xlink:href="#DejaVuSans-101"/>
     <use x="423.884766" xlink:href="#DejaVuSans-116"/>
     <use x="463.09375" xlink:href="#DejaVuSans-115"/>
     <use x="515.193359" xlink:href="#DejaVuSans-58"/>
     <use x="548.884766" xlink:href="#DejaVuSans-32"/>
     <use x="580.671875" xlink:href="#DejaVuSans-49"/>
     <use x="644.294922" xlink:href="#DejaVuSans-46"/>
     <use x="676.082031" xlink:href="#DejaVuSans-46"/>
     <use x="707.869141" xlink:href="#DejaVuSans-45"/>
     <use x="743.953125" xlink:href="#DejaVuSans-49"/>
     <use x="807.576172" xlink:href="#DejaVuSans-46"/>
     <use x="839.363281" xlink:href="#DejaVuSans-48"/>
     <use x="902.986328" xlink:href="#DejaVuSans-101"/>
     <use x="964.509766" xlink:href="#DejaVuSans-45"/>
     <use x="1000.59375" xlink:href="#DejaVuSans-52"/>
    </g>
    <!-- 10 instances -->
    <g transform="translate(60.41088 37.004824)scale(0.102 -0.102)">
     <use xlink:href="#DejaVuSans-49"/>
     <use x="63.623047" xlink:href="#DejaVuSans-48"/>
     <use x="127.246094" xlink:href="#DejaVuSans-32"/>
     <use x="159.033203" xlink:href="#DejaVuSans-105"/>
     <use x="186.816406" xlink:href="#DejaVuSans-110"/>
     <use x="250.195312" xlink:href="#DejaVuSans-115"/>
     <use x="302.294922" xlink:href="#DejaVuSans-116"/>
     <use x="341.503906" xlink:href="#DejaVuSans-97"/>
     <use x="402.783203" xlink:href="#DejaVuSans-110"/>
     <use x="466.162109" xlink:href="#DejaVuSans-99"/>
     <use x="521.142578" xlink:href="#DejaVuSans-101"/>
     <use x="582.666016" xlink:href="#DejaVuSans-115"/>
    </g>
   </g>
   <g id="text_17">
    <!-- v2.4.19, hv-hash=ff0e71e8cd978373 -->
    <g style="fill:#808080;" transform="translate(104.697125 293.909432)scale(0.1 -0.1)">
     <defs>
      <path d="M 10.984375 1.515625 
L 10.984375 10.5 
Q 14.703125 8.734375 18.5 7.8125 
Q 22.3125 6.890625 25.984375 6.890625 
Q 35.75 6.890625 40.890625 13.453125 
Q 46.046875 20.015625 46.78125 33.40625 
Q 43.953125 29.203125 39.59375 26.953125 
Q 35.25 24.703125 29.984375 24.703125 
Q 19.046875 24.703125 12.671875 31.3125 
Q 6.296875 37.9375 6.296875 49.421875 
Q 6.296875 60.640625 12.9375 67.421875 
Q 19.578125 74.21875 30.609375 74.21875 
Q 43.265625 74.21875 49.921875 64.515625 
Q 56.59375 54.828125 56.59375 36.375 
Q 56.59375 19.140625 48.40625 8.859375 
Q 40.234375 -1.421875 26.421875 -1.421875 
Q 22.703125 -1.421875 18.890625 -0.6875 
Q 15.09375 0.046875 10.984375 1.515625 
z
M 30.609375 32.421875 
Q 37.25 32.421875 41.125 36.953125 
Q 45.015625 41.5 45.015625 49.421875 
Q 45.015625 57.28125 41.125 61.84375 
Q 37.25 66.40625 30.609375 66.40625 
Q 23.96875 66.40625 20.09375 61.84375 
Q 16.21875 57.28125 16.21875 49.421875 
Q 16.21875 41.5 20.09375 36.953125 
Q 23.96875 32.421875 30.609375 32.421875 
z
" id="DejaVuSans-57"/>
      <path d="M 54.890625 33.015625 
L 54.890625 0 
L 45.90625 0 
L 45.90625 32.71875 
Q 45.90625 40.484375 42.875 44.328125 
Q 39.84375 48.1875 33.796875 48.1875 
Q 26.515625 48.1875 22.3125 43.546875 
Q 18.109375 38.921875 18.109375 30.90625 
L 18.109375 0 
L 9.078125 0 
L 9.078125 75.984375 
L 18.109375 75.984375 
L 18.109375 46.1875 
Q 21.34375 51.125 25.703125 53.5625 
Q 30.078125 56 35.796875 56 
Q 45.21875 56 50.046875 50.171875 
Q 54.890625 44.34375 54.890625 33.015625 
z
" id="DejaVuSans-104"/>
      <path d="M 10.59375 45.40625 
L 73.1875 45.40625 
L 73.1875 37.203125 
L 10.59375 37.203125 
z
M 10.59375 25.484375 
L 73.1875 25.484375 
L 73.1875 17.1875 
L 10.59375 17.1875 
z
" id="DejaVuSans-61"/>
      <path d="M 8.203125 72.90625 
L 55.078125 72.90625 
L 55.078125 68.703125 
L 28.609375 0 
L 18.3125 0 
L 43.21875 64.59375 
L 8.203125 64.59375 
z
" id="DejaVuSans-55"/>
     </defs>
     <use xlink:href="#DejaVuSans-118"/>
     <use x="59.179688" xlink:href="#DejaVuSans-50"/>
     <use x="122.802734" xlink:href="#DejaVuSans-46"/>
     <use x="154.589844" xlink:href="#DejaVuSans-52"/>
     <use x="218.212891" xlink:href="#DejaVuSans-46"/>
     <use x="250" xlink:href="#DejaVuSans-49"/>
     <use x="313.623047" xlink:href="#DejaVuSans-57"/>
     <use x="377.246094" xlink:href="#DejaVuSans-44"/>
     <use x="409.033203" xlink:href="#DejaVuSans-32"/>
     <use x="440.820312" xlink:href="#DejaVuSans-104"/>
     <use x="504.199219" xlink:href="#DejaVuSans-118"/>
     <use x="560.753906" xlink:href="#DejaVuSans-45"/>
     <use x="596.837891" xlink:href="#DejaVuSans-104"/>
     <use x="660.216797" xlink:href="#DejaVuSans-97"/>
     <use x="721.496094" xlink:href="#DejaVuSans-115"/>
     <use x="773.595703" xlink:href="#DejaVuSans-104"/>
     <use x="836.974609" xlink:href="#DejaVuSans-61"/>
     <use x="920.763672" xlink:href="#DejaVuSans-102"/>
     <use x="955.96875" xlink:href="#DejaVuSans-102"/>
     <use x="991.173828" xlink:href="#DejaVuSans-48"/>
     <use x="1054.796875" xlink:href="#DejaVuSans-101"/>
     <use x="1116.320312" xlink:href="#DejaVuSans-55"/>
     <use x="1179.943359" xlink:href="#DejaVuSans-49"/>
     <use x="1243.566406" xlink:href="#DejaVuSans-101"/>
     <use x="1305.089844" xlink:href="#DejaVuSans-56"/>
     <use x="1368.712891" xlink:href="#DejaVuSans-99"/>
     <use x="1423.693359" xlink:href="#DejaVuSans-100"/>
     <use x="1487.169922" xlink:href="#DejaVuSans-57"/>
     <use x="1550.792969" xlink:href="#DejaVuSans-55"/>
     <use x="1614.416016" xlink:href="#DejaVuSans-56"/>
     <use x="1678.039062" xlink:href="#DejaVuSans-51"/>
     <use x="1741.662109" xlink:href="#DejaVuSans-55"/>
     <use x="1805.285156" xlink:href="#DejaVuSans-51"/>
    </g>
   </g>
  </g>
 </g>
 <defs>
  <clipPath id="pbd28d146e3">
   <rect height="295.488" width="281.088" x="57.6" y="3.456"/>
  </clipPath>
 </defs>
</svg>
