<?xml version="1.0" encoding="utf-8" standalone="no"?>
<!DOCTYPE svg PUBLIC "-//W3C//DTD SVG 1.1//EN"
  "http://www.w3.org/Graphics/SVG/1.1/DTD/svg11.dtd">
<!-- Created with matplotlib (https://matplotlib.org/) -->
<svg height="345.6pt" version="1.1" viewBox="0 0 460.8 345.6" width="460.8pt" xmlns="http://www.w3.org/2000/svg" xmlns:xlink="http://www.w3.org/1999/xlink">
 <metadata>
  <rdf:RDF xmlns:cc="http://creativecommons.org/ns#" xmlns:dc="http://purl.org/dc/elements/1.1/" xmlns:rdf="http://www.w3.org/1999/02/22-rdf-syntax-ns#">
   <cc:Work>
    <dc:type rdf:resource="http://purl.org/dc/dcmitype/StillImage"/>
    <dc:date>2021-04-26T15:03:40.591385</dc:date>
    <dc:format>image/svg+xml</dc:format>
    <dc:creator>
     <cc:Agent>
      <dc:title>Matplotlib v3.3.2, https://matplotlib.org/</dc:title>
     </cc:Agent>
    </dc:creator>
   </cc:Work>
  </rdf:RDF>
 </metadata>
 <defs>
  <style type="text/css">*{stroke-linecap:butt;stroke-linejoin:round;}</style>
 </defs>
 <g id="figure_1">
  <g id="patch_1">
   <path d="M 0 345.6 
L 460.8 345.6 
L 460.8 0 
L 0 0 
z
" style="fill:#ffffff;"/>
  </g>
  <g id="axes_1">
   <g id="patch_2">
    <path d="M 57.6 298.944 
L 338.688 298.944 
L 338.688 3.456 
L 57.6 3.456 
z
" style="fill:#ffffff;"/>
   </g>
   <g id="line2d_1">
    <path d="M -1 296.421911 
L 17.444571 296.421911 
L 17.444571 295.160866 
L 73.227131 295.160866 
L 73.227131 293.899821 
L 96.676366 293.899821 
L 96.676366 291.377732 
L 110.590167 291.377732 
L 110.590167 288.855642 
L 129.790896 288.855642 
L 129.790896 286.333553 
L 138.50658 286.333553 
L 138.50658 283.811463 
L 142.755858 283.811463 
L 142.755858 281.289374 
L 144.447694 281.289374 
L 144.447694 278.767284 
L 145.230066 278.767284 
L 145.230066 277.50624 
L 146.033655 277.50624 
L 146.033655 276.245195 
L 147.816526 276.245195 
L 147.816526 272.462061 
L 148.103206 272.462061 
L 148.103206 268.678927 
L 150.152936 268.678927 
L 150.152936 266.156837 
L 150.331361 266.156837 
L 150.331361 263.634748 
L 150.67444 263.634748 
L 150.67444 261.112658 
L 152.464604 261.112658 
L 152.464604 259.851614 
L 153.232815 259.851614 
L 153.232815 257.329524 
L 153.921671 257.329524 
L 153.921671 256.068479 
L 155.357952 256.068479 
L 155.357952 253.54639 
L 157.540141 253.54639 
L 157.540141 251.0243 
L 158.125748 251.0243 
L 158.125748 247.241166 
L 158.413356 247.241166 
L 158.413356 245.980122 
L 161.368114 245.980122 
L 161.368114 243.458032 
L 161.973109 243.458032 
L 161.973109 239.674898 
L 162.998837 239.674898 
L 162.998837 235.891764 
L 165.068168 235.891764 
L 165.068168 233.369674 
L 166.245674 233.369674 
L 166.245674 232.10863 
L 167.153325 232.10863 
L 167.16066 227.064451 
L 170.371016 227.064451 
L 170.371016 224.542361 
L 170.841121 224.542361 
L 170.841121 223.281316 
L 173.196348 223.281316 
L 173.196348 220.759227 
L 174.08686 220.759227 
L 174.08686 218.237138 
L 178.311322 218.237138 
L 178.311322 214.454003 
L 179.921171 214.454003 
L 179.921171 210.670869 
L 181.412893 210.670869 
L 181.412893 208.14878 
L 182.852407 208.14878 
L 182.852407 205.62669 
L 183.619256 205.62669 
L 183.619256 203.104601 
L 186.062476 203.104601 
L 186.062476 201.843556 
L 186.48833 201.843556 
L 186.48833 200.582511 
L 187.46894 200.582511 
L 187.46894 198.060422 
L 188.522255 198.060422 
L 188.522255 195.538333 
L 190.413921 195.538333 
L 190.413921 191.755198 
L 191.987195 191.755198 
L 191.987195 189.233109 
L 193.562129 189.233109 
L 193.627986 184.18893 
L 195.418697 184.18893 
L 195.418697 182.927885 
L 196.370505 182.927885 
L 196.370505 180.405796 
L 204.844314 180.405796 
L 204.844314 179.144751 
L 213.235412 179.144751 
L 213.235412 177.883706 
L 217.365246 177.883706 
L 217.365246 174.100572 
L 229.014704 174.100572 
L 229.014704 170.317438 
L 234.956485 170.317438 
L 234.956485 166.534304 
L 235.663662 166.534304 
L 235.663662 162.75117 
L 239.431764 162.75117 
L 239.431764 161.490125 
L 243.183078 161.490125 
L 243.183078 160.22908 
L 246.760697 160.22908 
L 246.760697 158.968036 
L 255.000688 158.968036 
L 255.000688 155.184901 
L 255.120644 155.184901 
L 255.120644 153.923857 
L 261.467955 153.923857 
L 261.467955 150.140722 
L 267.377228 150.140722 
L 267.377228 146.357588 
L 268.128493 146.357588 
L 268.128493 142.574454 
L 269.388545 142.574454 
L 269.388545 140.052365 
L 275.349128 140.052365 
L 275.349128 137.530275 
L 283.487839 137.530275 
L 283.487839 135.008186 
L 283.645201 135.008186 
L 283.645201 133.747141 
L 283.911847 133.747141 
L 283.911847 132.486096 
L 284.667662 132.486096 
L 284.667662 128.702962 
L 297.058859 128.702962 
L 297.148757 122.397738 
L 297.371208 122.397738 
L 297.371208 121.136694 
L 297.670526 121.136694 
L 297.670526 119.875649 
L 338.688 119.875649 
L 338.688 119.875649 
" style="fill:none;stroke:#f5deb3;stroke-linecap:square;stroke-width:4;"/>
   </g>
   <g id="line2d_2">
    <defs>
     <path d="M 0 7.778175 
L 7.778175 0 
L 0 -7.778175 
L -7.778175 0 
z
" id="m72e2575a93" style="stroke:#f5deb3;stroke-linejoin:miter;stroke-width:1.5;"/>
    </defs>
    <g>
     <use style="fill:#f5deb3;stroke:#f5deb3;stroke-linejoin:miter;stroke-width:1.5;" x="145.230066" xlink:href="#m72e2575a93" y="277.50624"/>
     <use style="fill:#f5deb3;stroke:#f5deb3;stroke-linejoin:miter;stroke-width:1.5;" x="178.311322" xlink:href="#m72e2575a93" y="218.237138"/>
     <use style="fill:#f5deb3;stroke:#f5deb3;stroke-linejoin:miter;stroke-width:1.5;" x="235.663662" xlink:href="#m72e2575a93" y="166.534304"/>
     <use style="fill:#f5deb3;stroke:#f5deb3;stroke-linejoin:miter;stroke-width:1.5;" x="297.670526" xlink:href="#m72e2575a93" y="121.136694"/>
     <use style="fill:#f5deb3;stroke:#f5deb3;stroke-linejoin:miter;stroke-width:1.5;" x="297.670526" xlink:href="#m72e2575a93" y="119.875649"/>
     <use style="fill:#f5deb3;stroke:#f5deb3;stroke-linejoin:miter;stroke-width:1.5;" x="338.688" xlink:href="#m72e2575a93" y="119.875649"/>
    </g>
   </g>
   <g id="line2d_3">
    <path style="fill:none;stroke:#f5deb3;stroke-linecap:square;stroke-width:4;"/>
    <g/>
   </g>
   <g id="line2d_4">
    <path d="M 338.688 119.875649 
L 369.60768 12.232871 
" style="fill:none;stroke:#f5deb3;stroke-linecap:square;stroke-width:4;"/>
    <g>
     <use style="fill:#f5deb3;stroke:#f5deb3;stroke-linejoin:miter;stroke-width:1.5;" x="338.688" xlink:href="#m72e2575a93" y="119.875649"/>
     <use style="fill:#f5deb3;stroke:#f5deb3;stroke-linejoin:miter;stroke-width:1.5;" x="369.60768" xlink:href="#m72e2575a93" y="12.232871"/>
    </g>
   </g>
   <g id="matplotlib.axis_1">
    <g id="xtick_1">
     <g id="line2d_5">
      <path clip-path="url(#p36231513a6)" d="M 57.6 298.944 
L 57.6 3.456 
" style="fill:none;stroke:#b0b0b0;stroke-linecap:square;stroke-width:0.8;"/>
     </g>
     <g id="line2d_6">
      <defs>
       <path d="M 0 0 
L 0 3.5 
" id="m1f1505c5ed" style="stroke:#000000;stroke-width:0.8;"/>
      </defs>
      <g>
       <use style="stroke:#000000;stroke-width:0.8;" x="57.6" xlink:href="#m1f1505c5ed" y="298.944"/>
      </g>
     </g>
     <g id="text_1">
      <!-- 0 -->
      <g transform="translate(51.2375 321.140875)scale(0.2 -0.2)">
       <defs>
        <path d="M 31.78125 66.40625 
Q 24.171875 66.40625 20.328125 58.90625 
Q 16.5 51.421875 16.5 36.375 
Q 16.5 21.390625 20.328125 13.890625 
Q 24.171875 6.390625 31.78125 6.390625 
Q 39.453125 6.390625 43.28125 13.890625 
Q 47.125 21.390625 47.125 36.375 
Q 47.125 51.421875 43.28125 58.90625 
Q 39.453125 66.40625 31.78125 66.40625 
z
M 31.78125 74.21875 
Q 44.046875 74.21875 50.515625 64.515625 
Q 56.984375 54.828125 56.984375 36.375 
Q 56.984375 17.96875 50.515625 8.265625 
Q 44.046875 -1.421875 31.78125 -1.421875 
Q 19.53125 -1.421875 13.0625 8.265625 
Q 6.59375 17.96875 6.59375 36.375 
Q 6.59375 54.828125 13.0625 64.515625 
Q 19.53125 74.21875 31.78125 74.21875 
z
" id="DejaVuSans-48"/>
       </defs>
       <use xlink:href="#DejaVuSans-48"/>
      </g>
     </g>
    </g>
    <g id="xtick_2">
     <g id="line2d_7">
      <path clip-path="url(#p36231513a6)" d="M 137.910857 298.944 
L 137.910857 3.456 
" style="fill:none;stroke:#b0b0b0;stroke-linecap:square;stroke-width:0.8;"/>
     </g>
     <g id="line2d_8">
      <g>
       <use style="stroke:#000000;stroke-width:0.8;" x="137.910857" xlink:href="#m1f1505c5ed" y="298.944"/>
      </g>
     </g>
     <g id="text_2">
      <!-- 2 -->
      <g transform="translate(131.548357 321.140875)scale(0.2 -0.2)">
       <defs>
        <path d="M 19.1875 8.296875 
L 53.609375 8.296875 
L 53.609375 0 
L 7.328125 0 
L 7.328125 8.296875 
Q 12.9375 14.109375 22.625 23.890625 
Q 32.328125 33.6875 34.8125 36.53125 
Q 39.546875 41.84375 41.421875 45.53125 
Q 43.3125 49.21875 43.3125 52.78125 
Q 43.3125 58.59375 39.234375 62.25 
Q 35.15625 65.921875 28.609375 65.921875 
Q 23.96875 65.921875 18.8125 64.3125 
Q 13.671875 62.703125 7.8125 59.421875 
L 7.8125 69.390625 
Q 13.765625 71.78125 18.9375 73 
Q 24.125 74.21875 28.421875 74.21875 
Q 39.75 74.21875 46.484375 68.546875 
Q 53.21875 62.890625 53.21875 53.421875 
Q 53.21875 48.921875 51.53125 44.890625 
Q 49.859375 40.875 45.40625 35.40625 
Q 44.1875 33.984375 37.640625 27.21875 
Q 31.109375 20.453125 19.1875 8.296875 
z
" id="DejaVuSans-50"/>
       </defs>
       <use xlink:href="#DejaVuSans-50"/>
      </g>
     </g>
    </g>
    <g id="xtick_3">
     <g id="line2d_9">
      <path clip-path="url(#p36231513a6)" d="M 218.221714 298.944 
L 218.221714 3.456 
" style="fill:none;stroke:#b0b0b0;stroke-linecap:square;stroke-width:0.8;"/>
     </g>
     <g id="line2d_10">
      <g>
       <use style="stroke:#000000;stroke-width:0.8;" x="218.221714" xlink:href="#m1f1505c5ed" y="298.944"/>
      </g>
     </g>
     <g id="text_3">
      <!-- 4 -->
      <g transform="translate(211.859214 321.140875)scale(0.2 -0.2)">
       <defs>
        <path d="M 37.796875 64.3125 
L 12.890625 25.390625 
L 37.796875 25.390625 
z
M 35.203125 72.90625 
L 47.609375 72.90625 
L 47.609375 25.390625 
L 58.015625 25.390625 
L 58.015625 17.1875 
L 47.609375 17.1875 
L 47.609375 0 
L 37.796875 0 
L 37.796875 17.1875 
L 4.890625 17.1875 
L 4.890625 26.703125 
z
" id="DejaVuSans-52"/>
       </defs>
       <use xlink:href="#DejaVuSans-52"/>
      </g>
     </g>
    </g>
    <g id="xtick_4">
     <g id="line2d_11">
      <path clip-path="url(#p36231513a6)" d="M 298.532571 298.944 
L 298.532571 3.456 
" style="fill:none;stroke:#b0b0b0;stroke-linecap:square;stroke-width:0.8;"/>
     </g>
     <g id="line2d_12">
      <g>
       <use style="stroke:#000000;stroke-width:0.8;" x="298.532571" xlink:href="#m1f1505c5ed" y="298.944"/>
      </g>
     </g>
     <g id="text_4">
      <!-- 6 -->
      <g transform="translate(292.170071 321.140875)scale(0.2 -0.2)">
       <defs>
        <path d="M 33.015625 40.375 
Q 26.375 40.375 22.484375 35.828125 
Q 18.609375 31.296875 18.609375 23.390625 
Q 18.609375 15.53125 22.484375 10.953125 
Q 26.375 6.390625 33.015625 6.390625 
Q 39.65625 6.390625 43.53125 10.953125 
Q 47.40625 15.53125 47.40625 23.390625 
Q 47.40625 31.296875 43.53125 35.828125 
Q 39.65625 40.375 33.015625 40.375 
z
M 52.59375 71.296875 
L 52.59375 62.3125 
Q 48.875 64.0625 45.09375 64.984375 
Q 41.3125 65.921875 37.59375 65.921875 
Q 27.828125 65.921875 22.671875 59.328125 
Q 17.53125 52.734375 16.796875 39.40625 
Q 19.671875 43.65625 24.015625 45.921875 
Q 28.375 48.1875 33.59375 48.1875 
Q 44.578125 48.1875 50.953125 41.515625 
Q 57.328125 34.859375 57.328125 23.390625 
Q 57.328125 12.15625 50.6875 5.359375 
Q 44.046875 -1.421875 33.015625 -1.421875 
Q 20.359375 -1.421875 13.671875 8.265625 
Q 6.984375 17.96875 6.984375 36.375 
Q 6.984375 53.65625 15.1875 63.9375 
Q 23.390625 74.21875 37.203125 74.21875 
Q 40.921875 74.21875 44.703125 73.484375 
Q 48.484375 72.75 52.59375 71.296875 
z
" id="DejaVuSans-54"/>
       </defs>
       <use xlink:href="#DejaVuSans-54"/>
      </g>
     </g>
    </g>
    <g id="xtick_5">
     <g id="line2d_13">
      <path clip-path="url(#p36231513a6)" d="M 97.755429 298.944 
L 97.755429 3.456 
" style="fill:none;stroke:#b0b0b0;stroke-linecap:square;stroke-width:0.8;"/>
     </g>
     <g id="line2d_14">
      <defs>
       <path d="M 0 0 
L 0 2 
" id="mab136e2719" style="stroke:#000000;stroke-width:0.6;"/>
      </defs>
      <g>
       <use style="stroke:#000000;stroke-width:0.6;" x="97.755429" xlink:href="#mab136e2719" y="298.944"/>
      </g>
     </g>
    </g>
    <g id="xtick_6">
     <g id="line2d_15">
      <path clip-path="url(#p36231513a6)" d="M 178.066286 298.944 
L 178.066286 3.456 
" style="fill:none;stroke:#b0b0b0;stroke-linecap:square;stroke-width:0.8;"/>
     </g>
     <g id="line2d_16">
      <g>
       <use style="stroke:#000000;stroke-width:0.6;" x="178.066286" xlink:href="#mab136e2719" y="298.944"/>
      </g>
     </g>
    </g>
    <g id="xtick_7">
     <g id="line2d_17">
      <path clip-path="url(#p36231513a6)" d="M 258.377143 298.944 
L 258.377143 3.456 
" style="fill:none;stroke:#b0b0b0;stroke-linecap:square;stroke-width:0.8;"/>
     </g>
     <g id="line2d_18">
      <g>
       <use style="stroke:#000000;stroke-width:0.6;" x="258.377143" xlink:href="#mab136e2719" y="298.944"/>
      </g>
     </g>
    </g>
    <g id="xtick_8">
     <g id="line2d_19">
      <path clip-path="url(#p36231513a6)" d="M 338.688 298.944 
L 338.688 3.456 
" style="fill:none;stroke:#b0b0b0;stroke-linecap:square;stroke-width:0.8;"/>
     </g>
     <g id="line2d_20">
      <g>
       <use style="stroke:#000000;stroke-width:0.6;" x="338.688" xlink:href="#mab136e2719" y="298.944"/>
      </g>
     </g>
    </g>
    <g id="text_5">
     <!-- log10(# f-evals / dimension) -->
     <g transform="translate(77.764078 342.217594)scale(0.17 -0.17)">
      <defs>
       <path d="M 9.421875 75.984375 
L 18.40625 75.984375 
L 18.40625 0 
L 9.421875 0 
z
" id="DejaVuSans-108"/>
       <path d="M 30.609375 48.390625 
Q 23.390625 48.390625 19.1875 42.75 
Q 14.984375 37.109375 14.984375 27.296875 
Q 14.984375 17.484375 19.15625 11.84375 
Q 23.34375 6.203125 30.609375 6.203125 
Q 37.796875 6.203125 41.984375 11.859375 
Q 46.1875 17.53125 46.1875 27.296875 
Q 46.1875 37.015625 41.984375 42.703125 
Q 37.796875 48.390625 30.609375 48.390625 
z
M 30.609375 56 
Q 42.328125 56 49.015625 48.375 
Q 55.71875 40.765625 55.71875 27.296875 
Q 55.71875 13.875 49.015625 6.21875 
Q 42.328125 -1.421875 30.609375 -1.421875 
Q 18.84375 -1.421875 12.171875 6.21875 
Q 5.515625 13.875 5.515625 27.296875 
Q 5.515625 40.765625 12.171875 48.375 
Q 18.84375 56 30.609375 56 
z
" id="DejaVuSans-111"/>
       <path d="M 45.40625 27.984375 
Q 45.40625 37.75 41.375 43.109375 
Q 37.359375 48.484375 30.078125 48.484375 
Q 22.859375 48.484375 18.828125 43.109375 
Q 14.796875 37.75 14.796875 27.984375 
Q 14.796875 18.265625 18.828125 12.890625 
Q 22.859375 7.515625 30.078125 7.515625 
Q 37.359375 7.515625 41.375 12.890625 
Q 45.40625 18.265625 45.40625 27.984375 
z
M 54.390625 6.78125 
Q 54.390625 -7.171875 48.1875 -13.984375 
Q 42 -20.796875 29.203125 -20.796875 
Q 24.46875 -20.796875 20.265625 -20.09375 
Q 16.0625 -19.390625 12.109375 -17.921875 
L 12.109375 -9.1875 
Q 16.0625 -11.328125 19.921875 -12.34375 
Q 23.78125 -13.375 27.78125 -13.375 
Q 36.625 -13.375 41.015625 -8.765625 
Q 45.40625 -4.15625 45.40625 5.171875 
L 45.40625 9.625 
Q 42.625 4.78125 38.28125 2.390625 
Q 33.9375 0 27.875 0 
Q 17.828125 0 11.671875 7.65625 
Q 5.515625 15.328125 5.515625 27.984375 
Q 5.515625 40.671875 11.671875 48.328125 
Q 17.828125 56 27.875 56 
Q 33.9375 56 38.28125 53.609375 
Q 42.625 51.21875 45.40625 46.390625 
L 45.40625 54.6875 
L 54.390625 54.6875 
z
" id="DejaVuSans-103"/>
       <path d="M 12.40625 8.296875 
L 28.515625 8.296875 
L 28.515625 63.921875 
L 10.984375 60.40625 
L 10.984375 69.390625 
L 28.421875 72.90625 
L 38.28125 72.90625 
L 38.28125 8.296875 
L 54.390625 8.296875 
L 54.390625 0 
L 12.40625 0 
z
" id="DejaVuSans-49"/>
       <path d="M 31 75.875 
Q 24.46875 64.65625 21.28125 53.65625 
Q 18.109375 42.671875 18.109375 31.390625 
Q 18.109375 20.125 21.3125 9.0625 
Q 24.515625 -2 31 -13.1875 
L 23.1875 -13.1875 
Q 15.875 -1.703125 12.234375 9.375 
Q 8.59375 20.453125 8.59375 31.390625 
Q 8.59375 42.28125 12.203125 53.3125 
Q 15.828125 64.359375 23.1875 75.875 
z
" id="DejaVuSans-40"/>
       <path d="M 51.125 44 
L 36.921875 44 
L 32.8125 27.6875 
L 47.125 27.6875 
z
M 43.796875 71.78125 
L 38.71875 51.515625 
L 52.984375 51.515625 
L 58.109375 71.78125 
L 65.921875 71.78125 
L 60.890625 51.515625 
L 76.125 51.515625 
L 76.125 44 
L 58.984375 44 
L 54.984375 27.6875 
L 70.515625 27.6875 
L 70.515625 20.21875 
L 53.078125 20.21875 
L 48 0 
L 40.1875 0 
L 45.21875 20.21875 
L 30.90625 20.21875 
L 25.875 0 
L 18.015625 0 
L 23.09375 20.21875 
L 7.71875 20.21875 
L 7.71875 27.6875 
L 24.90625 27.6875 
L 29 44 
L 13.28125 44 
L 13.28125 51.515625 
L 30.90625 51.515625 
L 35.890625 71.78125 
z
" id="DejaVuSans-35"/>
       <path id="DejaVuSans-32"/>
       <path d="M 37.109375 75.984375 
L 37.109375 68.5 
L 28.515625 68.5 
Q 23.6875 68.5 21.796875 66.546875 
Q 19.921875 64.59375 19.921875 59.515625 
L 19.921875 54.6875 
L 34.71875 54.6875 
L 34.71875 47.703125 
L 19.921875 47.703125 
L 19.921875 0 
L 10.890625 0 
L 10.890625 47.703125 
L 2.296875 47.703125 
L 2.296875 54.6875 
L 10.890625 54.6875 
L 10.890625 58.5 
Q 10.890625 67.625 15.140625 71.796875 
Q 19.390625 75.984375 28.609375 75.984375 
z
" id="DejaVuSans-102"/>
       <path d="M 4.890625 31.390625 
L 31.203125 31.390625 
L 31.203125 23.390625 
L 4.890625 23.390625 
z
" id="DejaVuSans-45"/>
       <path d="M 56.203125 29.59375 
L 56.203125 25.203125 
L 14.890625 25.203125 
Q 15.484375 15.921875 20.484375 11.0625 
Q 25.484375 6.203125 34.421875 6.203125 
Q 39.59375 6.203125 44.453125 7.46875 
Q 49.3125 8.734375 54.109375 11.28125 
L 54.109375 2.78125 
Q 49.265625 0.734375 44.1875 -0.34375 
Q 39.109375 -1.421875 33.890625 -1.421875 
Q 20.796875 -1.421875 13.15625 6.1875 
Q 5.515625 13.8125 5.515625 26.8125 
Q 5.515625 40.234375 12.765625 48.109375 
Q 20.015625 56 32.328125 56 
Q 43.359375 56 49.78125 48.890625 
Q 56.203125 41.796875 56.203125 29.59375 
z
M 47.21875 32.234375 
Q 47.125 39.59375 43.09375 43.984375 
Q 39.0625 48.390625 32.421875 48.390625 
Q 24.90625 48.390625 20.390625 44.140625 
Q 15.875 39.890625 15.1875 32.171875 
z
" id="DejaVuSans-101"/>
       <path d="M 2.984375 54.6875 
L 12.5 54.6875 
L 29.59375 8.796875 
L 46.6875 54.6875 
L 56.203125 54.6875 
L 35.6875 0 
L 23.484375 0 
z
" id="DejaVuSans-118"/>
       <path d="M 34.28125 27.484375 
Q 23.390625 27.484375 19.1875 25 
Q 14.984375 22.515625 14.984375 16.5 
Q 14.984375 11.71875 18.140625 8.90625 
Q 21.296875 6.109375 26.703125 6.109375 
Q 34.1875 6.109375 38.703125 11.40625 
Q 43.21875 16.703125 43.21875 25.484375 
L 43.21875 27.484375 
z
M 52.203125 31.203125 
L 52.203125 0 
L 43.21875 0 
L 43.21875 8.296875 
Q 40.140625 3.328125 35.546875 0.953125 
Q 30.953125 -1.421875 24.3125 -1.421875 
Q 15.921875 -1.421875 10.953125 3.296875 
Q 6 8.015625 6 15.921875 
Q 6 25.140625 12.171875 29.828125 
Q 18.359375 34.515625 30.609375 34.515625 
L 43.21875 34.515625 
L 43.21875 35.40625 
Q 43.21875 41.609375 39.140625 45 
Q 35.0625 48.390625 27.6875 48.390625 
Q 23 48.390625 18.546875 47.265625 
Q 14.109375 46.140625 10.015625 43.890625 
L 10.015625 52.203125 
Q 14.9375 54.109375 19.578125 55.046875 
Q 24.21875 56 28.609375 56 
Q 40.484375 56 46.34375 49.84375 
Q 52.203125 43.703125 52.203125 31.203125 
z
" id="DejaVuSans-97"/>
       <path d="M 44.28125 53.078125 
L 44.28125 44.578125 
Q 40.484375 46.53125 36.375 47.5 
Q 32.28125 48.484375 27.875 48.484375 
Q 21.1875 48.484375 17.84375 46.4375 
Q 14.5 44.390625 14.5 40.28125 
Q 14.5 37.15625 16.890625 35.375 
Q 19.28125 33.59375 26.515625 31.984375 
L 29.59375 31.296875 
Q 39.15625 29.25 43.1875 25.515625 
Q 47.21875 21.78125 47.21875 15.09375 
Q 47.21875 7.46875 41.1875 3.015625 
Q 35.15625 -1.421875 24.609375 -1.421875 
Q 20.21875 -1.421875 15.453125 -0.5625 
Q 10.6875 0.296875 5.421875 2 
L 5.421875 11.28125 
Q 10.40625 8.6875 15.234375 7.390625 
Q 20.0625 6.109375 24.8125 6.109375 
Q 31.15625 6.109375 34.5625 8.28125 
Q 37.984375 10.453125 37.984375 14.40625 
Q 37.984375 18.0625 35.515625 20.015625 
Q 33.0625 21.96875 24.703125 23.78125 
L 21.578125 24.515625 
Q 13.234375 26.265625 9.515625 29.90625 
Q 5.8125 33.546875 5.8125 39.890625 
Q 5.8125 47.609375 11.28125 51.796875 
Q 16.75 56 26.8125 56 
Q 31.78125 56 36.171875 55.265625 
Q 40.578125 54.546875 44.28125 53.078125 
z
" id="DejaVuSans-115"/>
       <path d="M 25.390625 72.90625 
L 33.6875 72.90625 
L 8.296875 -9.28125 
L 0 -9.28125 
z
" id="DejaVuSans-47"/>
       <path d="M 45.40625 46.390625 
L 45.40625 75.984375 
L 54.390625 75.984375 
L 54.390625 0 
L 45.40625 0 
L 45.40625 8.203125 
Q 42.578125 3.328125 38.25 0.953125 
Q 33.9375 -1.421875 27.875 -1.421875 
Q 17.96875 -1.421875 11.734375 6.484375 
Q 5.515625 14.40625 5.515625 27.296875 
Q 5.515625 40.1875 11.734375 48.09375 
Q 17.96875 56 27.875 56 
Q 33.9375 56 38.25 53.625 
Q 42.578125 51.265625 45.40625 46.390625 
z
M 14.796875 27.296875 
Q 14.796875 17.390625 18.875 11.75 
Q 22.953125 6.109375 30.078125 6.109375 
Q 37.203125 6.109375 41.296875 11.75 
Q 45.40625 17.390625 45.40625 27.296875 
Q 45.40625 37.203125 41.296875 42.84375 
Q 37.203125 48.484375 30.078125 48.484375 
Q 22.953125 48.484375 18.875 42.84375 
Q 14.796875 37.203125 14.796875 27.296875 
z
" id="DejaVuSans-100"/>
       <path d="M 9.421875 54.6875 
L 18.40625 54.6875 
L 18.40625 0 
L 9.421875 0 
z
M 9.421875 75.984375 
L 18.40625 75.984375 
L 18.40625 64.59375 
L 9.421875 64.59375 
z
" id="DejaVuSans-105"/>
       <path d="M 52 44.1875 
Q 55.375 50.25 60.0625 53.125 
Q 64.75 56 71.09375 56 
Q 79.640625 56 84.28125 50.015625 
Q 88.921875 44.046875 88.921875 33.015625 
L 88.921875 0 
L 79.890625 0 
L 79.890625 32.71875 
Q 79.890625 40.578125 77.09375 44.375 
Q 74.3125 48.1875 68.609375 48.1875 
Q 61.625 48.1875 57.5625 43.546875 
Q 53.515625 38.921875 53.515625 30.90625 
L 53.515625 0 
L 44.484375 0 
L 44.484375 32.71875 
Q 44.484375 40.625 41.703125 44.40625 
Q 38.921875 48.1875 33.109375 48.1875 
Q 26.21875 48.1875 22.15625 43.53125 
Q 18.109375 38.875 18.109375 30.90625 
L 18.109375 0 
L 9.078125 0 
L 9.078125 54.6875 
L 18.109375 54.6875 
L 18.109375 46.1875 
Q 21.1875 51.21875 25.484375 53.609375 
Q 29.78125 56 35.6875 56 
Q 41.65625 56 45.828125 52.96875 
Q 50 49.953125 52 44.1875 
z
" id="DejaVuSans-109"/>
       <path d="M 54.890625 33.015625 
L 54.890625 0 
L 45.90625 0 
L 45.90625 32.71875 
Q 45.90625 40.484375 42.875 44.328125 
Q 39.84375 48.1875 33.796875 48.1875 
Q 26.515625 48.1875 22.3125 43.546875 
Q 18.109375 38.921875 18.109375 30.90625 
L 18.109375 0 
L 9.078125 0 
L 9.078125 54.6875 
L 18.109375 54.6875 
L 18.109375 46.1875 
Q 21.34375 51.125 25.703125 53.5625 
Q 30.078125 56 35.796875 56 
Q 45.21875 56 50.046875 50.171875 
Q 54.890625 44.34375 54.890625 33.015625 
z
" id="DejaVuSans-110"/>
       <path d="M 8.015625 75.875 
L 15.828125 75.875 
Q 23.140625 64.359375 26.78125 53.3125 
Q 30.421875 42.28125 30.421875 31.390625 
Q 30.421875 20.453125 26.78125 9.375 
Q 23.140625 -1.703125 15.828125 -13.1875 
L 8.015625 -13.1875 
Q 14.5 -2 17.703125 9.0625 
Q 20.90625 20.125 20.90625 31.390625 
Q 20.90625 42.671875 17.703125 53.65625 
Q 14.5 64.65625 8.015625 75.875 
z
" id="DejaVuSans-41"/>
      </defs>
      <use xlink:href="#DejaVuSans-108"/>
      <use x="27.783203" xlink:href="#DejaVuSans-111"/>
      <use x="88.964844" xlink:href="#DejaVuSans-103"/>
      <use x="152.441406" xlink:href="#DejaVuSans-49"/>
      <use x="216.064453" xlink:href="#DejaVuSans-48"/>
      <use x="279.6875" xlink:href="#DejaVuSans-40"/>
      <use x="318.701172" xlink:href="#DejaVuSans-35"/>
      <use x="402.490234" xlink:href="#DejaVuSans-32"/>
      <use x="434.277344" xlink:href="#DejaVuSans-102"/>
      <use x="463.982422" xlink:href="#DejaVuSans-45"/>
      <use x="500.066406" xlink:href="#DejaVuSans-101"/>
      <use x="561.589844" xlink:href="#DejaVuSans-118"/>
      <use x="620.769531" xlink:href="#DejaVuSans-97"/>
      <use x="682.048828" xlink:href="#DejaVuSans-108"/>
      <use x="709.832031" xlink:href="#DejaVuSans-115"/>
      <use x="761.931641" xlink:href="#DejaVuSans-32"/>
      <use x="793.71875" xlink:href="#DejaVuSans-47"/>
      <use x="827.410156" xlink:href="#DejaVuSans-32"/>
      <use x="859.197266" xlink:href="#DejaVuSans-100"/>
      <use x="922.673828" xlink:href="#DejaVuSans-105"/>
      <use x="950.457031" xlink:href="#DejaVuSans-109"/>
      <use x="1047.869141" xlink:href="#DejaVuSans-101"/>
      <use x="1109.392578" xlink:href="#DejaVuSans-110"/>
      <use x="1172.771484" xlink:href="#DejaVuSans-115"/>
      <use x="1224.871094" xlink:href="#DejaVuSans-105"/>
      <use x="1252.654297" xlink:href="#DejaVuSans-111"/>
      <use x="1313.835938" xlink:href="#DejaVuSans-110"/>
      <use x="1377.214844" xlink:href="#DejaVuSans-41"/>
     </g>
    </g>
   </g>
   <g id="matplotlib.axis_2">
    <g id="ytick_1">
     <g id="line2d_21">
      <path clip-path="url(#p36231513a6)" d="M 57.6 298.944 
L 338.688 298.944 
" style="fill:none;stroke:#b0b0b0;stroke-linecap:square;stroke-width:0.8;"/>
     </g>
     <g id="line2d_22">
      <defs>
       <path d="M 0 0 
L -3.5 0 
" id="mb19d56a90d" style="stroke:#000000;stroke-width:0.8;"/>
      </defs>
      <g>
       <use style="stroke:#000000;stroke-width:0.8;" x="57.6" xlink:href="#mb19d56a90d" y="298.944"/>
      </g>
     </g>
     <g id="text_6">
      <!-- 0.0 -->
      <g transform="translate(25.155 305.02275)scale(0.16 -0.16)">
       <defs>
        <path d="M 10.6875 12.40625 
L 21 12.40625 
L 21 0 
L 10.6875 0 
z
" id="DejaVuSans-46"/>
       </defs>
       <use xlink:href="#DejaVuSans-48"/>
       <use x="63.623047" xlink:href="#DejaVuSans-46"/>
       <use x="95.410156" xlink:href="#DejaVuSans-48"/>
      </g>
     </g>
    </g>
    <g id="ytick_2">
     <g id="line2d_23">
      <path clip-path="url(#p36231513a6)" d="M 57.6 240.431525 
L 338.688 240.431525 
" style="fill:none;stroke:#b0b0b0;stroke-linecap:square;stroke-width:0.8;"/>
     </g>
     <g id="line2d_24">
      <g>
       <use style="stroke:#000000;stroke-width:0.8;" x="57.6" xlink:href="#mb19d56a90d" y="240.431525"/>
      </g>
     </g>
     <g id="text_7">
      <!-- 0.2 -->
      <g transform="translate(25.155 246.510275)scale(0.16 -0.16)">
       <use xlink:href="#DejaVuSans-48"/>
       <use x="63.623047" xlink:href="#DejaVuSans-46"/>
       <use x="95.410156" xlink:href="#DejaVuSans-50"/>
      </g>
     </g>
    </g>
    <g id="ytick_3">
     <g id="line2d_25">
      <path clip-path="url(#p36231513a6)" d="M 57.6 181.91905 
L 338.688 181.91905 
" style="fill:none;stroke:#b0b0b0;stroke-linecap:square;stroke-width:0.8;"/>
     </g>
     <g id="line2d_26">
      <g>
       <use style="stroke:#000000;stroke-width:0.8;" x="57.6" xlink:href="#mb19d56a90d" y="181.91905"/>
      </g>
     </g>
     <g id="text_8">
      <!-- 0.4 -->
      <g transform="translate(25.155 187.9978)scale(0.16 -0.16)">
       <use xlink:href="#DejaVuSans-48"/>
       <use x="63.623047" xlink:href="#DejaVuSans-46"/>
       <use x="95.410156" xlink:href="#DejaVuSans-52"/>
      </g>
     </g>
    </g>
    <g id="ytick_4">
     <g id="line2d_27">
      <path clip-path="url(#p36231513a6)" d="M 57.6 123.406574 
L 338.688 123.406574 
" style="fill:none;stroke:#b0b0b0;stroke-linecap:square;stroke-width:0.8;"/>
     </g>
     <g id="line2d_28">
      <g>
       <use style="stroke:#000000;stroke-width:0.8;" x="57.6" xlink:href="#mb19d56a90d" y="123.406574"/>
      </g>
     </g>
     <g id="text_9">
      <!-- 0.6 -->
      <g transform="translate(25.155 129.485324)scale(0.16 -0.16)">
       <use xlink:href="#DejaVuSans-48"/>
       <use x="63.623047" xlink:href="#DejaVuSans-46"/>
       <use x="95.410156" xlink:href="#DejaVuSans-54"/>
      </g>
     </g>
    </g>
    <g id="ytick_5">
     <g id="line2d_29">
      <path clip-path="url(#p36231513a6)" d="M 57.6 64.894099 
L 338.688 64.894099 
" style="fill:none;stroke:#b0b0b0;stroke-linecap:square;stroke-width:0.8;"/>
     </g>
     <g id="line2d_30">
      <g>
       <use style="stroke:#000000;stroke-width:0.8;" x="57.6" xlink:href="#mb19d56a90d" y="64.894099"/>
      </g>
     </g>
     <g id="text_10">
      <!-- 0.8 -->
      <g transform="translate(25.155 70.972849)scale(0.16 -0.16)">
       <defs>
        <path d="M 31.78125 34.625 
Q 24.75 34.625 20.71875 30.859375 
Q 16.703125 27.09375 16.703125 20.515625 
Q 16.703125 13.921875 20.71875 10.15625 
Q 24.75 6.390625 31.78125 6.390625 
Q 38.8125 6.390625 42.859375 10.171875 
Q 46.921875 13.96875 46.921875 20.515625 
Q 46.921875 27.09375 42.890625 30.859375 
Q 38.875 34.625 31.78125 34.625 
z
M 21.921875 38.8125 
Q 15.578125 40.375 12.03125 44.71875 
Q 8.5 49.078125 8.5 55.328125 
Q 8.5 64.0625 14.71875 69.140625 
Q 20.953125 74.21875 31.78125 74.21875 
Q 42.671875 74.21875 48.875 69.140625 
Q 55.078125 64.0625 55.078125 55.328125 
Q 55.078125 49.078125 51.53125 44.71875 
Q 48 40.375 41.703125 38.8125 
Q 48.828125 37.15625 52.796875 32.3125 
Q 56.78125 27.484375 56.78125 20.515625 
Q 56.78125 9.90625 50.3125 4.234375 
Q 43.84375 -1.421875 31.78125 -1.421875 
Q 19.734375 -1.421875 13.25 4.234375 
Q 6.78125 9.90625 6.78125 20.515625 
Q 6.78125 27.484375 10.78125 32.3125 
Q 14.796875 37.15625 21.921875 38.8125 
z
M 18.3125 54.390625 
Q 18.3125 48.734375 21.84375 45.5625 
Q 25.390625 42.390625 31.78125 42.390625 
Q 38.140625 42.390625 41.71875 45.5625 
Q 45.3125 48.734375 45.3125 54.390625 
Q 45.3125 60.0625 41.71875 63.234375 
Q 38.140625 66.40625 31.78125 66.40625 
Q 25.390625 66.40625 21.84375 63.234375 
Q 18.3125 60.0625 18.3125 54.390625 
z
" id="DejaVuSans-56"/>
       </defs>
       <use xlink:href="#DejaVuSans-48"/>
       <use x="63.623047" xlink:href="#DejaVuSans-46"/>
       <use x="95.410156" xlink:href="#DejaVuSans-56"/>
      </g>
     </g>
    </g>
    <g id="ytick_6">
     <g id="line2d_31">
      <path clip-path="url(#p36231513a6)" d="M 57.6 6.381624 
L 338.688 6.381624 
" style="fill:none;stroke:#b0b0b0;stroke-linecap:square;stroke-width:0.8;"/>
     </g>
     <g id="line2d_32">
      <g>
       <use style="stroke:#000000;stroke-width:0.8;" x="57.6" xlink:href="#mb19d56a90d" y="6.381624"/>
      </g>
     </g>
     <g id="text_11">
      <!-- 1.0 -->
      <g transform="translate(25.155 12.460374)scale(0.16 -0.16)">
       <use xlink:href="#DejaVuSans-49"/>
       <use x="63.623047" xlink:href="#DejaVuSans-46"/>
       <use x="95.410156" xlink:href="#DejaVuSans-48"/>
      </g>
     </g>
    </g>
    <g id="text_12">
     <!-- Fraction of function,target pairs -->
     <g transform="translate(17.619531 285.585)rotate(-90)scale(0.17 -0.17)">
      <defs>
       <path d="M 9.8125 72.90625 
L 51.703125 72.90625 
L 51.703125 64.59375 
L 19.671875 64.59375 
L 19.671875 43.109375 
L 48.578125 43.109375 
L 48.578125 34.8125 
L 19.671875 34.8125 
L 19.671875 0 
L 9.8125 0 
z
" id="DejaVuSans-70"/>
       <path d="M 41.109375 46.296875 
Q 39.59375 47.171875 37.8125 47.578125 
Q 36.03125 48 33.890625 48 
Q 26.265625 48 22.1875 43.046875 
Q 18.109375 38.09375 18.109375 28.8125 
L 18.109375 0 
L 9.078125 0 
L 9.078125 54.6875 
L 18.109375 54.6875 
L 18.109375 46.1875 
Q 20.953125 51.171875 25.484375 53.578125 
Q 30.03125 56 36.53125 56 
Q 37.453125 56 38.578125 55.875 
Q 39.703125 55.765625 41.0625 55.515625 
z
" id="DejaVuSans-114"/>
       <path d="M 48.78125 52.59375 
L 48.78125 44.1875 
Q 44.96875 46.296875 41.140625 47.34375 
Q 37.3125 48.390625 33.40625 48.390625 
Q 24.65625 48.390625 19.8125 42.84375 
Q 14.984375 37.3125 14.984375 27.296875 
Q 14.984375 17.28125 19.8125 11.734375 
Q 24.65625 6.203125 33.40625 6.203125 
Q 37.3125 6.203125 41.140625 7.25 
Q 44.96875 8.296875 48.78125 10.40625 
L 48.78125 2.09375 
Q 45.015625 0.34375 40.984375 -0.53125 
Q 36.96875 -1.421875 32.421875 -1.421875 
Q 20.0625 -1.421875 12.78125 6.34375 
Q 5.515625 14.109375 5.515625 27.296875 
Q 5.515625 40.671875 12.859375 48.328125 
Q 20.21875 56 33.015625 56 
Q 37.15625 56 41.109375 55.140625 
Q 45.0625 54.296875 48.78125 52.59375 
z
" id="DejaVuSans-99"/>
       <path d="M 18.3125 70.21875 
L 18.3125 54.6875 
L 36.8125 54.6875 
L 36.8125 47.703125 
L 18.3125 47.703125 
L 18.3125 18.015625 
Q 18.3125 11.328125 20.140625 9.421875 
Q 21.96875 7.515625 27.59375 7.515625 
L 36.8125 7.515625 
L 36.8125 0 
L 27.59375 0 
Q 17.1875 0 13.234375 3.875 
Q 9.28125 7.765625 9.28125 18.015625 
L 9.28125 47.703125 
L 2.6875 47.703125 
L 2.6875 54.6875 
L 9.28125 54.6875 
L 9.28125 70.21875 
z
" id="DejaVuSans-116"/>
       <path d="M 8.5 21.578125 
L 8.5 54.6875 
L 17.484375 54.6875 
L 17.484375 21.921875 
Q 17.484375 14.15625 20.5 10.265625 
Q 23.53125 6.390625 29.59375 6.390625 
Q 36.859375 6.390625 41.078125 11.03125 
Q 45.3125 15.671875 45.3125 23.6875 
L 45.3125 54.6875 
L 54.296875 54.6875 
L 54.296875 0 
L 45.3125 0 
L 45.3125 8.40625 
Q 42.046875 3.421875 37.71875 1 
Q 33.40625 -1.421875 27.6875 -1.421875 
Q 18.265625 -1.421875 13.375 4.4375 
Q 8.5 10.296875 8.5 21.578125 
z
M 31.109375 56 
z
" id="DejaVuSans-117"/>
       <path d="M 11.71875 12.40625 
L 22.015625 12.40625 
L 22.015625 4 
L 14.015625 -11.625 
L 7.71875 -11.625 
L 11.71875 4 
z
" id="DejaVuSans-44"/>
       <path d="M 18.109375 8.203125 
L 18.109375 -20.796875 
L 9.078125 -20.796875 
L 9.078125 54.6875 
L 18.109375 54.6875 
L 18.109375 46.390625 
Q 20.953125 51.265625 25.265625 53.625 
Q 29.59375 56 35.59375 56 
Q 45.5625 56 51.78125 48.09375 
Q 58.015625 40.1875 58.015625 27.296875 
Q 58.015625 14.40625 51.78125 6.484375 
Q 45.5625 -1.421875 35.59375 -1.421875 
Q 29.59375 -1.421875 25.265625 0.953125 
Q 20.953125 3.328125 18.109375 8.203125 
z
M 48.6875 27.296875 
Q 48.6875 37.203125 44.609375 42.84375 
Q 40.53125 48.484375 33.40625 48.484375 
Q 26.265625 48.484375 22.1875 42.84375 
Q 18.109375 37.203125 18.109375 27.296875 
Q 18.109375 17.390625 22.1875 11.75 
Q 26.265625 6.109375 33.40625 6.109375 
Q 40.53125 6.109375 44.609375 11.75 
Q 48.6875 17.390625 48.6875 27.296875 
z
" id="DejaVuSans-112"/>
      </defs>
      <use xlink:href="#DejaVuSans-70"/>
      <use x="50.269531" xlink:href="#DejaVuSans-114"/>
      <use x="91.382812" xlink:href="#DejaVuSans-97"/>
      <use x="152.662109" xlink:href="#DejaVuSans-99"/>
      <use x="207.642578" xlink:href="#DejaVuSans-116"/>
      <use x="246.851562" xlink:href="#DejaVuSans-105"/>
      <use x="274.634766" xlink:href="#DejaVuSans-111"/>
      <use x="335.816406" xlink:href="#DejaVuSans-110"/>
      <use x="399.195312" xlink:href="#DejaVuSans-32"/>
      <use x="430.982422" xlink:href="#DejaVuSans-111"/>
      <use x="492.164062" xlink:href="#DejaVuSans-102"/>
      <use x="527.369141" xlink:href="#DejaVuSans-32"/>
      <use x="559.15625" xlink:href="#DejaVuSans-102"/>
      <use x="594.361328" xlink:href="#DejaVuSans-117"/>
      <use x="657.740234" xlink:href="#DejaVuSans-110"/>
      <use x="721.119141" xlink:href="#DejaVuSans-99"/>
      <use x="776.099609" xlink:href="#DejaVuSans-116"/>
      <use x="815.308594" xlink:href="#DejaVuSans-105"/>
      <use x="843.091797" xlink:href="#DejaVuSans-111"/>
      <use x="904.273438" xlink:href="#DejaVuSans-110"/>
      <use x="967.652344" xlink:href="#DejaVuSans-44"/>
      <use x="999.439453" xlink:href="#DejaVuSans-116"/>
      <use x="1038.648438" xlink:href="#DejaVuSans-97"/>
      <use x="1099.927734" xlink:href="#DejaVuSans-114"/>
      <use x="1139.291016" xlink:href="#DejaVuSans-103"/>
      <use x="1202.767578" xlink:href="#DejaVuSans-101"/>
      <use x="1264.291016" xlink:href="#DejaVuSans-116"/>
      <use x="1303.5" xlink:href="#DejaVuSans-32"/>
      <use x="1335.287109" xlink:href="#DejaVuSans-112"/>
      <use x="1398.763672" xlink:href="#DejaVuSans-97"/>
      <use x="1460.042969" xlink:href="#DejaVuSans-105"/>
      <use x="1487.826172" xlink:href="#DejaVuSans-114"/>
      <use x="1528.939453" xlink:href="#DejaVuSans-115"/>
     </g>
    </g>
   </g>
   <g id="line2d_33">
    <defs>
     <path d="M 0 1.5 
C 0.397805 1.5 0.77937 1.341951 1.06066 1.06066 
C 1.341951 0.77937 1.5 0.397805 1.5 0 
C 1.5 -0.397805 1.341951 -0.77937 1.06066 -1.06066 
C 0.77937 -1.341951 0.397805 -1.5 0 -1.5 
C -0.397805 -1.5 -0.77937 -1.341951 -1.06066 -1.06066 
C -1.341951 -0.77937 -1.5 -0.397805 -1.5 0 
C -1.5 0.397805 -1.341951 0.77937 -1.06066 1.06066 
C -0.77937 1.341951 -0.397805 1.5 0 1.5 
z
" id="m809c80e709" style="stroke:#f5deb3;"/>
    </defs>
    <g>
     <use style="fill:#f5deb3;stroke:#f5deb3;" x="297.670526" xlink:href="#m809c80e709" y="119.875649"/>
     <use style="fill:#f5deb3;stroke:#f5deb3;" x="297.670526" xlink:href="#m809c80e709" y="119.875649"/>
    </g>
   </g>
   <g id="line2d_34">
    <defs>
     <path d="M 0 1.5 
C 0.397805 1.5 0.77937 1.341951 1.06066 1.06066 
C 1.341951 0.77937 1.5 0.397805 1.5 0 
C 1.5 -0.397805 1.341951 -0.77937 1.06066 -1.06066 
C 0.77937 -1.341951 0.397805 -1.5 0 -1.5 
C -0.397805 -1.5 -0.77937 -1.341951 -1.06066 -1.06066 
C -1.341951 -0.77937 -1.5 -0.397805 -1.5 0 
C -1.5 0.397805 -1.341951 0.77937 -1.06066 1.06066 
C -0.77937 1.341951 -0.397805 1.5 0 1.5 
z
" id="mb1abc614db" style="stroke:#ff00ff;"/>
    </defs>
    <g>
     <use style="fill:#ff00ff;stroke:#ff00ff;" x="256.900944" xlink:href="#mb1abc614db" y="254.807435"/>
     <use style="fill:#ff00ff;stroke:#ff00ff;" x="256.900944" xlink:href="#mb1abc614db" y="254.807435"/>
    </g>
   </g>
   <g id="line2d_35">
    <path d="M -1 289.738374 
L 91.659398 289.738374 
L 91.659398 289.612269 
L 92.563189 289.612269 
L 92.563189 289.486165 
L 92.73846 289.486165 
L 92.73846 289.36006 
L 97.668013 289.36006 
L 97.668013 289.233956 
L 101.151625 289.233956 
L 101.151625 289.107851 
L 107.111487 289.107851 
L 107.111487 288.981747 
L 110.145965 288.981747 
L 110.145965 288.855642 
L 112.223805 288.855642 
L 112.223805 288.729538 
L 112.600071 288.729538 
L 112.692883 288.477329 
L 113.629929 288.477329 
L 113.629929 288.351224 
L 113.752311 288.351224 
L 113.752311 288.22512 
L 113.96013 288.22512 
L 113.96013 288.099015 
L 114.097313 288.099015 
L 114.199496 287.846806 
L 114.301085 287.846806 
L 114.301085 287.720702 
L 114.418861 287.720702 
L 114.418861 287.594597 
L 114.569129 287.594597 
L 114.569129 287.468493 
L 114.701622 287.468493 
L 114.701622 287.342389 
L 114.914798 287.342389 
L 114.963625 287.09018 
L 115.028516 287.09018 
L 115.028516 286.964075 
L 115.4287 286.964075 
L 115.539126 286.585762 
L 115.648856 286.585762 
L 115.757901 286.333553 
L 116.308178 286.333553 
L 116.308178 286.207448 
L 116.517572 286.207448 
L 116.59175 285.829135 
L 117.087964 285.829135 
L 117.145424 285.576926 
L 117.359231 285.576926 
L 117.359231 285.324717 
L 117.751456 285.324717 
L 117.820578 285.072508 
L 118.363901 285.072508 
L 118.363901 284.946404 
L 118.510395 284.946404 
L 118.616168 284.441986 
L 118.655668 284.441986 
L 118.695079 284.189777 
L 119.032959 284.189777 
L 119.032959 284.063672 
L 119.640044 284.063672 
L 119.726838 283.811463 
L 119.825504 283.811463 
L 119.825504 283.685359 
L 120.033335 283.685359 
L 120.093994 283.307045 
L 120.406061 283.307045 
L 120.406061 283.180941 
L 121.002434 283.180941 
L 121.002434 283.054836 
L 121.117015 283.054836 
L 121.185405 282.802628 
L 121.411452 282.802628 
L 121.433896 282.550419 
L 121.579085 282.550419 
L 121.579085 282.424314 
L 121.745122 282.424314 
L 121.745122 282.29821 
L 122.061712 282.29821 
L 122.061712 282.172105 
L 122.478607 282.172105 
L 122.478607 282.046001 
L 123.223017 282.046001 
L 123.223017 281.919896 
L 123.514096 281.919896 
L 123.563795 281.667687 
L 123.780803 281.667687 
L 123.780803 281.541583 
L 124.014498 281.541583 
L 124.043491 281.289374 
L 124.706662 281.289374 
L 124.706662 281.163269 
L 125.192518 281.163269 
L 125.192518 281.037165 
L 125.665205 281.037165 
L 125.665205 280.91106 
L 125.927192 280.91106 
L 125.98776 280.532747 
L 126.304457 280.532747 
L 126.304457 280.406643 
L 128.161367 280.406643 
L 128.161367 280.280538 
L 128.531065 280.280538 
L 128.531065 280.154434 
L 128.819814 280.154434 
L 128.819814 280.028329 
L 131.082294 280.028329 
L 131.082294 279.902225 
L 131.981004 279.902225 
L 131.981004 279.77612 
L 132.218276 279.77612 
L 132.218276 279.650016 
L 132.788938 279.650016 
L 132.788938 279.523911 
L 133.02708 279.523911 
L 133.02708 279.397807 
L 134.713852 279.397807 
L 134.713852 279.271702 
L 135.512269 279.271702 
L 135.512269 279.145598 
L 136.194133 279.145598 
L 136.194133 279.019493 
L 136.635898 279.019493 
L 136.635898 278.893389 
L 136.850337 278.893389 
L 136.850337 278.767284 
L 136.965784 278.767284 
L 136.965784 278.64118 
L 137.189866 278.64118 
L 137.189866 278.515075 
L 138.196257 278.515075 
L 138.196257 278.388971 
L 139.389719 278.388971 
L 139.389719 278.262867 
L 139.525372 278.262867 
L 139.525372 278.136762 
L 139.667863 278.136762 
L 139.667863 278.010658 
L 143.454946 278.010658 
L 143.454946 277.884553 
L 143.644266 277.884553 
L 143.644266 277.758449 
L 144.309286 277.758449 
L 144.309286 277.632344 
L 144.635487 277.632344 
L 144.635487 277.50624 
L 146.069192 277.50624 
L 146.069192 277.380135 
L 146.548634 277.380135 
L 146.548634 277.254031 
L 146.723108 277.254031 
L 146.723108 277.127926 
L 146.885432 277.127926 
L 146.885432 277.001822 
L 147.722394 277.001822 
L 147.722394 276.749613 
L 148.857056 276.749613 
L 148.857056 276.623508 
L 148.982285 276.623508 
L 148.982285 276.371299 
L 149.89828 276.371299 
L 149.89828 276.245195 
L 151.662968 276.245195 
L 151.662968 276.11909 
L 154.290278 276.11909 
L 154.290278 275.992986 
L 156.146258 275.992986 
L 156.146258 275.866882 
L 156.601491 275.866882 
L 156.601491 275.740777 
L 157.887482 275.740777 
L 157.887482 275.614673 
L 158.724078 275.614673 
L 158.80715 275.362464 
L 160.093714 275.362464 
L 160.093714 275.236359 
L 160.941553 275.236359 
L 160.941553 275.110255 
L 161.305532 275.110255 
L 161.305532 274.98415 
L 161.66877 274.98415 
L 161.66877 274.858046 
L 161.795577 274.858046 
L 161.795577 274.731941 
L 164.121498 274.731941 
L 164.121498 274.605837 
L 165.374145 274.605837 
L 165.374145 274.353628 
L 165.634872 274.353628 
L 165.634872 274.227523 
L 167.203791 274.227523 
L 167.203791 274.101419 
L 167.317213 274.101419 
L 167.347065 273.84921 
L 169.560806 273.84921 
L 169.560806 273.723105 
L 171.140712 273.723105 
L 171.140712 273.597001 
L 171.334197 273.597001 
L 171.334197 273.470897 
L 172.678005 273.470897 
L 172.678005 273.344792 
L 173.138032 273.344792 
L 173.184239 272.966479 
L 174.061097 272.966479 
L 174.061097 272.71427 
L 174.934621 272.71427 
L 174.986718 272.462061 
L 175.737096 272.462061 
L 175.737096 272.209852 
L 175.869632 272.209852 
L 175.869632 272.083747 
L 176.270002 272.083747 
L 176.270002 271.957643 
L 176.507124 271.957643 
L 176.507124 271.831538 
L 176.773024 271.831538 
L 176.773024 271.705434 
L 177.150185 271.705434 
L 177.150185 271.453225 
L 177.331657 271.453225 
L 177.331657 271.327121 
L 178.149794 271.327121 
L 178.149794 271.201016 
L 179.485365 271.201016 
L 179.561962 270.822703 
L 179.619887 270.822703 
L 179.619887 270.696598 
L 180.562298 270.696598 
L 180.562298 270.570494 
L 181.19964 270.570494 
L 181.19964 270.444389 
L 181.316184 270.444389 
L 181.388406 270.066076 
L 181.978663 270.066076 
L 182.044381 269.687762 
L 182.102589 269.687762 
L 182.117111 269.435553 
L 182.365897 269.435553 
L 182.365897 269.309449 
L 182.537791 269.309449 
L 182.537791 269.183344 
L 183.464145 269.183344 
L 183.464145 269.05724 
L 183.714124 269.05724 
L 183.714124 268.931136 
L 184.210633 268.931136 
L 184.210633 268.805031 
L 184.362006 268.805031 
L 184.362006 268.678927 
L 184.506654 268.678927 
L 184.506654 268.552822 
L 185.066241 268.552822 
L 185.066241 268.426718 
L 185.814858 268.426718 
L 185.816815 268.174509 
L 187.345432 268.174509 
L 187.345432 268.048404 
L 187.580466 268.048404 
L 187.580466 267.9223 
L 187.711607 267.9223 
L 187.711607 267.796195 
L 187.885521 267.796195 
L 187.92297 267.543986 
L 188.130579 267.543986 
L 188.130579 267.291777 
L 189.612072 267.291777 
L 189.648688 266.913464 
L 190.487432 266.913464 
L 190.503892 266.661255 
L 190.816023 266.661255 
L 190.877408 266.282942 
L 191.938262 266.282942 
L 191.938262 266.030733 
L 192.936594 266.030733 
L 192.936594 265.904628 
L 193.097902 265.904628 
L 193.097902 265.778524 
L 193.97549 265.778524 
L 193.97549 265.652419 
L 194.996963 265.652419 
L 194.996963 265.526315 
L 195.48482 265.526315 
L 195.48482 265.40021 
L 195.802743 265.40021 
L 195.816771 265.148001 
L 196.354624 265.148001 
L 196.354624 265.021897 
L 197.239385 265.021897 
L 197.239385 264.895792 
L 198.642364 264.895792 
L 198.748558 264.643583 
L 198.833581 264.643583 
L 198.833581 264.517479 
L 199.176864 264.517479 
L 199.176864 264.391375 
L 199.729239 264.391375 
L 199.729239 264.26527 
L 200.17285 264.26527 
L 200.17285 264.139166 
L 200.457574 264.139166 
L 200.457574 264.013061 
L 200.637272 264.013061 
L 200.637272 263.886957 
L 200.897863 263.886957 
L 200.897863 263.634748 
L 201.785976 263.634748 
L 201.785976 263.508643 
L 202.087348 263.508643 
L 202.121076 263.13033 
L 202.559159 263.13033 
L 202.559159 263.004225 
L 203.327086 263.004225 
L 203.327086 262.878121 
L 203.789482 262.878121 
L 203.789482 262.752016 
L 204.289919 262.752016 
L 204.289919 262.625912 
L 204.650489 262.625912 
L 204.650489 262.499807 
L 205.428086 262.499807 
L 205.428086 262.373703 
L 205.854036 262.373703 
L 205.854036 262.247598 
L 206.37644 262.247598 
L 206.37644 261.99539 
L 206.771532 261.99539 
L 206.842004 261.743181 
L 208.090466 261.743181 
L 208.189172 261.490972 
L 208.90013 261.490972 
L 208.90013 261.364867 
L 210.196091 261.364867 
L 210.196091 261.238763 
L 210.517835 261.238763 
L 210.517835 261.112658 
L 210.742072 261.112658 
L 210.742072 260.986554 
L 212.244016 260.986554 
L 212.244016 260.860449 
L 212.423794 260.860449 
L 212.423794 260.734345 
L 212.689553 260.734345 
L 212.689553 260.60824 
L 213.350912 260.60824 
L 213.350912 260.482136 
L 213.842889 260.482136 
L 213.842889 260.356031 
L 215.191079 260.356031 
L 215.191079 260.229927 
L 215.382166 260.229927 
L 215.475858 259.977718 
L 215.781705 259.977718 
L 215.781705 259.851614 
L 215.986743 259.851614 
L 215.986743 259.725509 
L 218.442832 259.725509 
L 218.442832 259.599405 
L 218.91856 259.599405 
L 218.91856 259.4733 
L 219.09648 259.4733 
L 219.09648 259.347196 
L 219.397883 259.347196 
L 219.397883 259.221091 
L 219.990463 259.221091 
L 219.990463 259.094987 
L 220.376544 259.094987 
L 220.376544 258.968882 
L 220.526552 258.968882 
L 220.526552 258.842778 
L 221.22901 258.842778 
L 221.22901 258.716673 
L 221.377967 258.716673 
L 221.377967 258.590569 
L 222.412606 258.590569 
L 222.412606 258.464464 
L 222.761102 258.464464 
L 222.761102 258.33836 
L 223.883801 258.33836 
L 223.883801 258.212255 
L 224.218124 258.212255 
L 224.218124 258.086151 
L 226.371554 258.086151 
L 226.371554 257.960046 
L 226.803556 257.960046 
L 226.803556 257.833942 
L 228.416639 257.833942 
L 228.416639 257.707837 
L 229.682313 257.707837 
L 229.682313 257.581733 
L 229.950975 257.581733 
L 229.950975 257.455629 
L 234.87978 257.455629 
L 234.87978 257.329524 
L 235.119532 257.329524 
L 235.119532 257.077315 
L 235.232562 257.077315 
L 235.232562 256.951211 
L 235.950396 256.951211 
L 235.950396 256.825106 
L 236.95234 256.825106 
L 236.95234 256.572897 
L 237.092968 256.572897 
L 237.092968 256.446793 
L 237.256609 256.446793 
L 237.256609 256.320688 
L 238.020939 256.320688 
L 238.020939 256.068479 
L 242.600902 256.068479 
L 242.600902 255.942375 
L 242.933587 255.942375 
L 242.933587 255.81627 
L 243.851391 255.81627 
L 243.851391 255.690166 
L 244.140204 255.690166 
L 244.140204 255.437957 
L 245.878921 255.437957 
L 245.878921 255.311853 
L 253.961296 255.311853 
L 253.961296 255.059644 
L 254.774704 255.059644 
L 254.774704 254.933539 
L 256.900944 254.933539 
L 256.900944 254.807435 
L 338.688 254.807435 
L 338.688 254.807435 
" style="fill:none;stroke:#ff00ff;stroke-linecap:square;stroke-width:1.5;"/>
   </g>
   <g id="line2d_36">
    <defs>
     <path d="M 0 8.485281 
L 5.091169 0 
L 0 -8.485281 
L -5.091169 0 
z
" id="m216cf1217e" style="stroke:#ff00ff;stroke-linejoin:miter;stroke-width:1.5;"/>
    </defs>
    <g>
     <use style="fill-opacity:0;stroke:#ff00ff;stroke-linejoin:miter;stroke-width:1.5;" x="167.347065" xlink:href="#m216cf1217e" y="273.975314"/>
     <use style="fill-opacity:0;stroke:#ff00ff;stroke-linejoin:miter;stroke-width:1.5;" x="235.950396" xlink:href="#m216cf1217e" y="256.825106"/>
     <use style="fill-opacity:0;stroke:#ff00ff;stroke-linejoin:miter;stroke-width:1.5;" x="256.900944" xlink:href="#m216cf1217e" y="254.807435"/>
     <use style="fill-opacity:0;stroke:#ff00ff;stroke-linejoin:miter;stroke-width:1.5;" x="256.900944" xlink:href="#m216cf1217e" y="254.807435"/>
     <use style="fill-opacity:0;stroke:#ff00ff;stroke-linejoin:miter;stroke-width:1.5;" x="338.688" xlink:href="#m216cf1217e" y="254.807435"/>
    </g>
   </g>
   <g id="line2d_37">
    <path style="fill:none;stroke:#ff00ff;stroke-linecap:square;stroke-width:1.5;"/>
    <g/>
   </g>
   <g id="line2d_38">
    <path clip-path="url(#p36231513a6)" d="M 258.377636 254.807435 
" style="fill:none;stroke:#ff00ff;stroke-linecap:square;stroke-width:1.5;"/>
    <defs>
     <path d="M -12 12 
L 12 -12 
M -12 -12 
L 12 12 
" id="md0876ad459" style="stroke:#ff00ff;"/>
    </defs>
    <g clip-path="url(#p36231513a6)">
     <use style="fill:#ff00ff;stroke:#ff00ff;" x="258.377636" xlink:href="#md0876ad459" y="254.807435"/>
    </g>
   </g>
   <g id="line2d_39">
    <defs>
     <path d="M 0 1.5 
C 0.397805 1.5 0.77937 1.341951 1.06066 1.06066 
C 1.341951 0.77937 1.5 0.397805 1.5 0 
C 1.5 -0.397805 1.341951 -0.77937 1.06066 -1.06066 
C 0.77937 -1.341951 0.397805 -1.5 0 -1.5 
C -0.397805 -1.5 -0.77937 -1.341951 -1.06066 -1.06066 
C -1.341951 -0.77937 -1.5 -0.397805 -1.5 0 
C -1.5 0.397805 -1.341951 0.77937 -1.06066 1.06066 
C -0.77937 1.341951 -0.397805 1.5 0 1.5 
z
" id="m25abfe17b2" style="stroke:#ff7500;"/>
    </defs>
    <g>
     <use style="fill:#ff7500;stroke:#ff7500;" x="245.603369" xlink:href="#m25abfe17b2" y="252.41145"/>
     <use style="fill:#ff7500;stroke:#ff7500;" x="245.603369" xlink:href="#m25abfe17b2" y="252.41145"/>
    </g>
   </g>
   <g id="line2d_40">
    <path d="M 151.63322 298.944 
L 151.63322 298.817896 
L 153.718561 298.817896 
L 153.718561 298.691791 
L 157.548627 298.691791 
L 157.548627 298.565687 
L 159.76686 298.565687 
L 159.76686 298.439582 
L 160.46965 298.439582 
L 160.46965 298.313478 
L 161.121037 298.313478 
L 161.198052 297.935164 
L 161.684393 297.935164 
L 161.684393 297.80906 
L 162.084654 297.80906 
L 162.084654 297.682955 
L 162.231199 297.682955 
L 162.231199 297.556851 
L 162.472737 297.556851 
L 162.472737 297.430746 
L 162.586438 297.430746 
L 162.586438 297.304642 
L 162.785481 297.304642 
L 162.799089 297.052433 
L 163.396654 297.052433 
L 163.396654 296.926328 
L 163.684449 296.926328 
L 163.684449 296.800224 
L 163.813263 296.800224 
L 163.908762 296.548015 
L 164.58568 296.548015 
L 164.660132 296.295806 
L 164.779159 296.295806 
L 164.779159 296.169702 
L 165.01296 296.169702 
L 165.071843 295.917493 
L 165.298152 295.917493 
L 165.298152 295.791388 
L 165.409314 295.791388 
L 165.421922 295.539179 
L 165.826791 295.539179 
L 165.826791 295.413075 
L 165.956484 295.413075 
L 165.956484 295.28697 
L 166.283416 295.28697 
L 166.283416 295.160866 
L 166.414872 295.160866 
L 166.480231 294.908657 
L 166.581603 294.908657 
L 166.581603 294.782552 
L 166.717527 294.782552 
L 166.717527 294.656448 
L 167.185901 294.656448 
L 167.202166 294.404239 
L 167.559395 294.404239 
L 167.559395 294.278135 
L 167.687935 294.278135 
L 167.687935 294.15203 
L 167.849247 294.15203 
L 167.849247 294.025926 
L 167.969454 294.025926 
L 167.969454 293.899821 
L 168.123569 293.899821 
L 168.123569 293.773717 
L 168.249563 293.773717 
L 168.309168 293.521508 
L 168.408061 293.521508 
L 168.460323 293.143194 
L 168.558365 293.143194 
L 168.558365 293.01709 
L 168.690226 293.01709 
L 168.690226 292.890985 
L 168.95467 292.890985 
L 169.022173 292.638776 
L 169.171655 292.638776 
L 169.253507 292.260463 
L 169.297534 292.260463 
L 169.333539 291.88215 
L 169.443969 291.88215 
L 169.443969 291.756045 
L 169.698012 291.756045 
L 169.698012 291.629941 
L 169.918522 291.629941 
L 169.918522 291.503836 
L 170.036379 291.503836 
L 170.036379 291.377732 
L 170.188412 291.377732 
L 170.188412 291.251627 
L 170.381181 291.251627 
L 170.442041 290.873314 
L 170.578541 290.873314 
L 170.578541 290.747209 
L 170.703344 290.747209 
L 170.703344 290.621105 
L 170.895797 290.621105 
L 170.905002 290.368896 
L 171.032067 290.368896 
L 171.032067 290.242791 
L 171.158213 290.242791 
L 171.168577 289.864478 
L 171.300813 289.864478 
L 171.300813 289.738374 
L 171.53951 289.738374 
L 171.578766 289.233956 
L 171.667085 289.233956 
L 171.72739 288.981747 
L 171.800605 288.981747 
L 171.867917 288.603433 
L 172.064616 288.603433 
L 172.121112 288.351224 
L 172.251213 288.351224 
L 172.295579 287.972911 
L 172.423788 287.972911 
L 172.453287 287.720702 
L 172.721892 287.720702 
L 172.770986 287.468493 
L 172.899863 287.468493 
L 172.989923 287.216284 
L 173.131668 287.216284 
L 173.131668 287.09018 
L 173.250449 287.09018 
L 173.312972 286.711866 
L 173.390101 286.711866 
L 173.473132 286.459657 
L 173.529775 286.459657 
L 173.529775 286.333553 
L 173.720438 286.333553 
L 173.750059 286.081344 
L 173.881349 286.081344 
L 173.945521 285.829135 
L 174.048476 285.829135 
L 174.113131 285.450821 
L 174.224345 285.450821 
L 174.323511 285.198612 
L 174.436617 285.198612 
L 174.534052 284.820299 
L 174.619262 284.820299 
L 174.713572 284.315881 
L 174.839929 284.315881 
L 174.909037 283.811463 
L 174.997638 283.811463 
L 174.997638 283.685359 
L 175.228995 283.685359 
L 175.2577 283.307045 
L 175.450232 283.307045 
L 175.514949 282.928732 
L 175.761992 282.928732 
L 175.856275 282.29821 
L 175.963336 282.29821 
L 176.03059 281.793792 
L 176.081472 281.793792 
L 176.081472 281.667687 
L 176.23178 281.667687 
L 176.263234 281.289374 
L 176.446949 281.289374 
L 176.467031 280.91106 
L 176.566617 280.91106 
L 176.651932 280.658851 
L 176.689244 280.658851 
L 176.778188 280.406643 
L 176.952403 280.406643 
L 177.042792 279.902225 
L 177.208901 279.902225 
L 177.208901 279.77612 
L 177.397923 279.77612 
L 177.487841 279.397807 
L 177.58447 279.397807 
L 177.689034 279.019493 
L 177.853983 279.019493 
L 177.964843 278.262867 
L 178.10635 278.262867 
L 178.155434 278.010658 
L 178.263107 278.010658 
L 178.263107 277.758449 
L 178.399657 277.758449 
L 178.473923 277.380135 
L 178.641351 277.380135 
L 178.730553 276.875717 
L 178.888061 276.875717 
L 178.953238 276.623508 
L 179.080397 276.623508 
L 179.186204 276.11909 
L 179.415292 276.11909 
L 179.474912 275.740777 
L 179.611909 275.740777 
L 179.621083 275.362464 
L 179.786593 275.362464 
L 179.89214 274.858046 
L 179.972056 274.858046 
L 180.056665 274.353628 
L 180.099785 274.353628 
L 180.171031 273.975314 
L 180.248913 273.975314 
L 180.248913 273.84921 
L 180.40974 273.84921 
L 180.474037 273.597001 
L 180.595139 273.597001 
L 180.683915 273.344792 
L 180.828151 273.344792 
L 180.908715 272.71427 
L 181.107598 272.71427 
L 181.138699 272.462061 
L 181.36208 272.462061 
L 181.468223 272.083747 
L 181.545891 272.083747 
L 181.545891 271.957643 
L 181.683906 271.957643 
L 181.683906 271.831538 
L 181.848587 271.831538 
L 181.949027 271.579329 
L 182.260297 271.579329 
L 182.337595 271.327121 
L 182.535092 271.327121 
L 182.535092 271.201016 
L 182.652794 271.201016 
L 182.652794 271.074912 
L 182.767376 271.074912 
L 182.767376 270.822703 
L 182.948232 270.822703 
L 183.027468 270.318285 
L 183.131799 270.318285 
L 183.131799 270.19218 
L 183.256889 270.19218 
L 183.256889 270.066076 
L 183.760422 270.066076 
L 183.790591 269.561658 
L 183.895149 269.561658 
L 183.895149 269.435553 
L 184.543681 269.435553 
L 184.630074 269.183344 
L 184.723781 269.183344 
L 184.786764 268.931136 
L 184.985213 268.931136 
L 184.985213 268.805031 
L 185.183749 268.805031 
L 185.282031 268.552822 
L 185.519085 268.552822 
L 185.519085 268.426718 
L 185.677605 268.426718 
L 185.677605 268.300613 
L 186.122461 268.300613 
L 186.122461 268.174509 
L 186.257088 268.174509 
L 186.257088 268.048404 
L 186.692103 268.048404 
L 186.692103 267.9223 
L 187.357464 267.9223 
L 187.465125 267.670091 
L 187.488254 267.670091 
L 187.488254 267.543986 
L 188.232855 267.543986 
L 188.283648 267.291777 
L 188.618458 267.291777 
L 188.672651 267.039568 
L 188.814936 267.039568 
L 188.814936 266.913464 
L 189.285666 266.913464 
L 189.295287 266.661255 
L 189.869666 266.661255 
L 189.869666 266.535151 
L 190.009803 266.535151 
L 190.009803 266.409046 
L 190.20521 266.409046 
L 190.20521 266.282942 
L 190.546572 266.282942 
L 190.546572 266.156837 
L 190.745784 266.156837 
L 190.745784 266.030733 
L 191.007631 266.030733 
L 191.007631 265.904628 
L 192.248197 265.904628 
L 192.293762 265.652419 
L 192.364385 265.652419 
L 192.364385 265.526315 
L 193.043867 265.526315 
L 193.043867 265.40021 
L 193.19815 265.40021 
L 193.19815 265.274106 
L 193.527131 265.274106 
L 193.527131 265.148001 
L 193.975315 265.148001 
L 193.975315 265.021897 
L 194.123864 265.021897 
L 194.123864 264.895792 
L 194.265649 264.895792 
L 194.265649 264.769688 
L 194.429337 264.769688 
L 194.429337 264.643583 
L 195.547494 264.643583 
L 195.547494 264.517479 
L 195.871827 264.517479 
L 195.958932 264.26527 
L 196.105678 264.26527 
L 196.105678 264.139166 
L 196.600066 264.139166 
L 196.600066 264.013061 
L 196.803434 264.013061 
L 196.803434 263.886957 
L 196.924355 263.886957 
L 196.962903 263.382539 
L 197.12429 263.382539 
L 197.12429 263.256434 
L 197.351994 263.256434 
L 197.351994 263.13033 
L 197.617734 263.13033 
L 197.617734 263.004225 
L 197.773623 263.004225 
L 197.773623 262.878121 
L 198.035282 262.878121 
L 198.035282 262.752016 
L 198.519064 262.752016 
L 198.5946 262.373703 
L 198.649598 262.373703 
L 198.649598 262.247598 
L 198.804534 262.247598 
L 198.804534 262.121494 
L 199.148514 262.121494 
L 199.148514 261.99539 
L 199.261639 261.99539 
L 199.356296 261.617076 
L 199.37699 261.617076 
L 199.37699 261.490972 
L 199.506636 261.490972 
L 199.536319 261.238763 
L 199.836919 261.238763 
L 199.836919 261.112658 
L 200.106204 261.112658 
L 200.190514 260.60824 
L 200.34796 260.60824 
L 200.34796 260.482136 
L 200.640499 260.482136 
L 200.705137 260.103822 
L 200.804371 260.103822 
L 200.804371 259.977718 
L 201.186954 259.977718 
L 201.193669 259.725509 
L 201.389114 259.725509 
L 201.389114 259.599405 
L 201.647135 259.599405 
L 201.74879 259.221091 
L 201.764369 259.221091 
L 201.764369 259.094987 
L 202.336723 259.094987 
L 202.336723 258.968882 
L 202.504809 258.968882 
L 202.504809 258.716673 
L 202.78228 258.716673 
L 202.78228 258.590569 
L 203.025211 258.590569 
L 203.077135 258.33836 
L 203.140503 258.33836 
L 203.140503 258.212255 
L 203.426153 258.212255 
L 203.426153 258.086151 
L 203.774514 258.086151 
L 203.829532 257.833942 
L 203.956149 257.833942 
L 204.038545 257.581733 
L 204.292535 257.581733 
L 204.351065 257.329524 
L 204.458518 257.329524 
L 204.458518 257.20342 
L 204.72306 257.20342 
L 204.72306 257.077315 
L 204.986815 257.077315 
L 205.038051 256.699002 
L 205.333492 256.699002 
L 205.333492 256.446793 
L 205.813496 256.446793 
L 205.813496 256.320688 
L 206.072756 256.320688 
L 206.072756 256.194584 
L 206.283495 256.194584 
L 206.283495 256.068479 
L 206.432931 256.068479 
L 206.456315 255.81627 
L 206.678477 255.81627 
L 206.703391 255.437957 
L 207.316089 255.437957 
L 207.316089 255.311853 
L 207.717452 255.311853 
L 207.717452 255.185748 
L 208.261795 255.185748 
L 208.261795 255.059644 
L 208.56531 255.059644 
L 208.625203 254.68133 
L 208.977489 254.68133 
L 208.977489 254.555226 
L 209.31539 254.555226 
L 209.31539 254.429121 
L 210.898561 254.429121 
L 210.898561 254.303017 
L 213.809455 254.303017 
L 213.809455 254.176912 
L 216.971738 254.176912 
L 216.971738 254.050808 
L 217.150442 254.050808 
L 217.150442 253.924703 
L 217.822842 253.924703 
L 217.822842 253.798599 
L 218.166213 253.798599 
L 218.166213 253.672494 
L 218.517362 253.672494 
L 218.517362 253.54639 
L 218.925513 253.54639 
L 218.925513 253.420285 
L 219.478554 253.420285 
L 219.478554 253.294181 
L 219.707904 253.294181 
L 219.707904 253.041972 
L 221.350551 253.041972 
L 221.350551 252.915868 
L 222.292746 252.915868 
L 222.292746 252.789763 
L 228.092218 252.789763 
L 228.092218 252.663659 
L 245.603369 252.663659 
L 245.603369 252.41145 
L 338.688 252.41145 
L 338.688 252.41145 
" style="fill:none;stroke:#ff7500;stroke-linecap:square;stroke-width:1.5;"/>
   </g>
   <g id="line2d_41">
    <defs>
     <path d="M 0 -6 
L -1.347084 -1.854102 
L -5.706339 -1.854102 
L -2.179628 0.708204 
L -3.526712 4.854102 
L -0 2.291796 
L 3.526712 4.854102 
L 2.179628 0.708204 
L 5.706339 -1.854102 
L 1.347084 -1.854102 
z
" id="m918e54a5c0" style="stroke:#ff7500;stroke-linejoin:bevel;stroke-width:1.5;"/>
    </defs>
    <g>
     <use style="fill-opacity:0;stroke:#ff7500;stroke-linejoin:bevel;stroke-width:1.5;" x="228.092218" xlink:href="#m918e54a5c0" y="252.789763"/>
     <use style="fill-opacity:0;stroke:#ff7500;stroke-linejoin:bevel;stroke-width:1.5;" x="245.603369" xlink:href="#m918e54a5c0" y="252.41145"/>
     <use style="fill-opacity:0;stroke:#ff7500;stroke-linejoin:bevel;stroke-width:1.5;" x="245.603369" xlink:href="#m918e54a5c0" y="252.41145"/>
     <use style="fill-opacity:0;stroke:#ff7500;stroke-linejoin:bevel;stroke-width:1.5;" x="338.688" xlink:href="#m918e54a5c0" y="252.41145"/>
    </g>
   </g>
   <g id="line2d_42">
    <path style="fill:none;stroke:#ff7500;stroke-linecap:square;stroke-width:1.5;"/>
    <g/>
   </g>
   <g id="line2d_43">
    <path clip-path="url(#p36231513a6)" d="M 258.377147 252.41145 
" style="fill:none;stroke:#ff7500;stroke-linecap:square;stroke-width:1.5;"/>
    <defs>
     <path d="M -12 12 
L 12 -12 
M -12 -12 
L 12 12 
" id="m3257ac8763" style="stroke:#ff7500;"/>
    </defs>
    <g clip-path="url(#p36231513a6)">
     <use style="fill:#ff7500;stroke:#ff7500;" x="258.377147" xlink:href="#m3257ac8763" y="252.41145"/>
    </g>
   </g>
   <g id="line2d_44">
    <path d="M 338.688 254.807435 
L 369.60768 293.092752 
" style="fill:none;stroke:#ff00ff;stroke-linecap:square;stroke-width:1.5;"/>
    <g>
     <use style="fill-opacity:0;stroke:#ff00ff;stroke-linejoin:miter;stroke-width:1.5;" x="338.688" xlink:href="#m216cf1217e" y="254.807435"/>
     <use style="fill-opacity:0;stroke:#ff00ff;stroke-linejoin:miter;stroke-width:1.5;" x="369.60768" xlink:href="#m216cf1217e" y="293.092752"/>
    </g>
   </g>
   <g id="line2d_45">
    <path d="M 338.688 252.41145 
L 369.60768 152.662812 
" style="fill:none;stroke:#ff7500;stroke-linecap:square;stroke-width:1.5;"/>
    <g>
     <use style="fill-opacity:0;stroke:#ff7500;stroke-linejoin:bevel;stroke-width:1.5;" x="338.688" xlink:href="#m918e54a5c0" y="252.41145"/>
     <use style="fill-opacity:0;stroke:#ff7500;stroke-linejoin:bevel;stroke-width:1.5;" x="369.60768" xlink:href="#m918e54a5c0" y="152.662812"/>
    </g>
   </g>
   <g id="line2d_46">
    <path d="M 338.688 298.944 
L 338.688 6.381624 
" style="fill:none;stroke:#000000;stroke-linecap:square;stroke-width:1.5;"/>
   </g>
   <g id="patch_3">
    <path d="M 57.6 298.944 
L 57.6 3.456 
" style="fill:none;stroke:#000000;stroke-linecap:square;stroke-linejoin:miter;stroke-width:0.8;"/>
   </g>
   <g id="patch_4">
    <path d="M 338.688 298.944 
L 338.688 3.456 
" style="fill:none;stroke:#000000;stroke-linecap:square;stroke-linejoin:miter;stroke-width:0.8;"/>
   </g>
   <g id="patch_5">
    <path d="M 57.6 298.944 
L 338.688 298.944 
" style="fill:none;stroke:#000000;stroke-linecap:square;stroke-linejoin:miter;stroke-width:0.8;"/>
   </g>
   <g id="patch_6">
    <path d="M 57.6 3.456 
L 338.688 3.456 
" style="fill:none;stroke:#000000;stroke-linecap:square;stroke-linejoin:miter;stroke-width:0.8;"/>
   </g>
   <g id="text_13">
    <!-- NSGA-II-M -->
    <g transform="translate(375.22944 297.78369)scale(0.17 -0.17)">
     <defs>
      <path d="M 9.8125 72.90625 
L 23.09375 72.90625 
L 55.421875 11.921875 
L 55.421875 72.90625 
L 64.984375 72.90625 
L 64.984375 0 
L 51.703125 0 
L 19.390625 60.984375 
L 19.390625 0 
L 9.8125 0 
z
" id="DejaVuSans-78"/>
      <path d="M 53.515625 70.515625 
L 53.515625 60.890625 
Q 47.90625 63.578125 42.921875 64.890625 
Q 37.9375 66.21875 33.296875 66.21875 
Q 25.25 66.21875 20.875 63.09375 
Q 16.5 59.96875 16.5 54.203125 
Q 16.5 49.359375 19.40625 46.890625 
Q 22.3125 44.4375 30.421875 42.921875 
L 36.375 41.703125 
Q 47.40625 39.59375 52.65625 34.296875 
Q 57.90625 29 57.90625 20.125 
Q 57.90625 9.515625 50.796875 4.046875 
Q 43.703125 -1.421875 29.984375 -1.421875 
Q 24.8125 -1.421875 18.96875 -0.25 
Q 13.140625 0.921875 6.890625 3.21875 
L 6.890625 13.375 
Q 12.890625 10.015625 18.65625 8.296875 
Q 24.421875 6.59375 29.984375 6.59375 
Q 38.421875 6.59375 43.015625 9.90625 
Q 47.609375 13.234375 47.609375 19.390625 
Q 47.609375 24.75 44.3125 27.78125 
Q 41.015625 30.8125 33.5 32.328125 
L 27.484375 33.5 
Q 16.453125 35.6875 11.515625 40.375 
Q 6.59375 45.0625 6.59375 53.421875 
Q 6.59375 63.09375 13.40625 68.65625 
Q 20.21875 74.21875 32.171875 74.21875 
Q 37.3125 74.21875 42.625 73.28125 
Q 47.953125 72.359375 53.515625 70.515625 
z
" id="DejaVuSans-83"/>
      <path d="M 59.515625 10.40625 
L 59.515625 29.984375 
L 43.40625 29.984375 
L 43.40625 38.09375 
L 69.28125 38.09375 
L 69.28125 6.78125 
Q 63.578125 2.734375 56.6875 0.65625 
Q 49.8125 -1.421875 42 -1.421875 
Q 24.90625 -1.421875 15.25 8.5625 
Q 5.609375 18.5625 5.609375 36.375 
Q 5.609375 54.25 15.25 64.234375 
Q 24.90625 74.21875 42 74.21875 
Q 49.125 74.21875 55.546875 72.453125 
Q 61.96875 70.703125 67.390625 67.28125 
L 67.390625 56.78125 
Q 61.921875 61.421875 55.765625 63.765625 
Q 49.609375 66.109375 42.828125 66.109375 
Q 29.4375 66.109375 22.71875 58.640625 
Q 16.015625 51.171875 16.015625 36.375 
Q 16.015625 21.625 22.71875 14.15625 
Q 29.4375 6.6875 42.828125 6.6875 
Q 48.046875 6.6875 52.140625 7.59375 
Q 56.25 8.5 59.515625 10.40625 
z
" id="DejaVuSans-71"/>
      <path d="M 34.1875 63.1875 
L 20.796875 26.90625 
L 47.609375 26.90625 
z
M 28.609375 72.90625 
L 39.796875 72.90625 
L 67.578125 0 
L 57.328125 0 
L 50.6875 18.703125 
L 17.828125 18.703125 
L 11.1875 0 
L 0.78125 0 
z
" id="DejaVuSans-65"/>
      <path d="M 9.8125 72.90625 
L 19.671875 72.90625 
L 19.671875 0 
L 9.8125 0 
z
" id="DejaVuSans-73"/>
      <path d="M 9.8125 72.90625 
L 24.515625 72.90625 
L 43.109375 23.296875 
L 61.8125 72.90625 
L 76.515625 72.90625 
L 76.515625 0 
L 66.890625 0 
L 66.890625 64.015625 
L 48.09375 14.015625 
L 38.1875 14.015625 
L 19.390625 64.015625 
L 19.390625 0 
L 9.8125 0 
z
" id="DejaVuSans-77"/>
     </defs>
     <use xlink:href="#DejaVuSans-78"/>
     <use x="74.804688" xlink:href="#DejaVuSans-83"/>
     <use x="138.28125" xlink:href="#DejaVuSans-71"/>
     <use x="215.771484" xlink:href="#DejaVuSans-65"/>
     <use x="281.929688" xlink:href="#DejaVuSans-45"/>
     <use x="318.013672" xlink:href="#DejaVuSans-73"/>
     <use x="347.505859" xlink:href="#DejaVuSans-73"/>
     <use x="376.998047" xlink:href="#DejaVuSans-45"/>
     <use x="413.082031" xlink:href="#DejaVuSans-77"/>
    </g>
   </g>
   <g id="text_14">
    <!-- SMS-EMOA- -->
    <g transform="translate(375.22944 157.353749)scale(0.17 -0.17)">
     <defs>
      <path d="M 9.8125 72.90625 
L 55.90625 72.90625 
L 55.90625 64.59375 
L 19.671875 64.59375 
L 19.671875 43.015625 
L 54.390625 43.015625 
L 54.390625 34.71875 
L 19.671875 34.71875 
L 19.671875 8.296875 
L 56.78125 8.296875 
L 56.78125 0 
L 9.8125 0 
z
" id="DejaVuSans-69"/>
      <path d="M 39.40625 66.21875 
Q 28.65625 66.21875 22.328125 58.203125 
Q 16.015625 50.203125 16.015625 36.375 
Q 16.015625 22.609375 22.328125 14.59375 
Q 28.65625 6.59375 39.40625 6.59375 
Q 50.140625 6.59375 56.421875 14.59375 
Q 62.703125 22.609375 62.703125 36.375 
Q 62.703125 50.203125 56.421875 58.203125 
Q 50.140625 66.21875 39.40625 66.21875 
z
M 39.40625 74.21875 
Q 54.734375 74.21875 63.90625 63.9375 
Q 73.09375 53.65625 73.09375 36.375 
Q 73.09375 19.140625 63.90625 8.859375 
Q 54.734375 -1.421875 39.40625 -1.421875 
Q 24.03125 -1.421875 14.8125 8.828125 
Q 5.609375 19.09375 5.609375 36.375 
Q 5.609375 53.65625 14.8125 63.9375 
Q 24.03125 74.21875 39.40625 74.21875 
z
" id="DejaVuSans-79"/>
     </defs>
     <use xlink:href="#DejaVuSans-83"/>
     <use x="63.476562" xlink:href="#DejaVuSans-77"/>
     <use x="149.755859" xlink:href="#DejaVuSans-83"/>
     <use x="213.232422" xlink:href="#DejaVuSans-45"/>
     <use x="249.316406" xlink:href="#DejaVuSans-69"/>
     <use x="312.5" xlink:href="#DejaVuSans-77"/>
     <use x="398.779297" xlink:href="#DejaVuSans-79"/>
     <use x="475.740234" xlink:href="#DejaVuSans-65"/>
     <use x="541.898438" xlink:href="#DejaVuSans-45"/>
    </g>
   </g>
   <g id="text_15">
    <!-- best 2016 -->
    <g transform="translate(375.22944 16.923809)scale(0.17 -0.17)">
     <defs>
      <path d="M 48.6875 27.296875 
Q 48.6875 37.203125 44.609375 42.84375 
Q 40.53125 48.484375 33.40625 48.484375 
Q 26.265625 48.484375 22.1875 42.84375 
Q 18.109375 37.203125 18.109375 27.296875 
Q 18.109375 17.390625 22.1875 11.75 
Q 26.265625 6.109375 33.40625 6.109375 
Q 40.53125 6.109375 44.609375 11.75 
Q 48.6875 17.390625 48.6875 27.296875 
z
M 18.109375 46.390625 
Q 20.953125 51.265625 25.265625 53.625 
Q 29.59375 56 35.59375 56 
Q 45.5625 56 51.78125 48.09375 
Q 58.015625 40.1875 58.015625 27.296875 
Q 58.015625 14.40625 51.78125 6.484375 
Q 45.5625 -1.421875 35.59375 -1.421875 
Q 29.59375 -1.421875 25.265625 0.953125 
Q 20.953125 3.328125 18.109375 8.203125 
L 18.109375 0 
L 9.078125 0 
L 9.078125 75.984375 
L 18.109375 75.984375 
z
" id="DejaVuSans-98"/>
     </defs>
     <use xlink:href="#DejaVuSans-98"/>
     <use x="63.476562" xlink:href="#DejaVuSans-101"/>
     <use x="125" xlink:href="#DejaVuSans-115"/>
     <use x="177.099609" xlink:href="#DejaVuSans-116"/>
     <use x="216.308594" xlink:href="#DejaVuSans-32"/>
     <use x="248.095703" xlink:href="#DejaVuSans-50"/>
     <use x="311.71875" xlink:href="#DejaVuSans-48"/>
     <use x="375.341797" xlink:href="#DejaVuSans-49"/>
     <use x="438.964844" xlink:href="#DejaVuSans-54"/>
    </g>
   </g>
   <g id="text_16">
    <!-- bbob-biobj f22, f23, f29, f30, 40-D -->
    <g transform="translate(60.41088 14.161286)scale(0.102 -0.102)">
     <defs>
      <path d="M 9.421875 54.6875 
L 18.40625 54.6875 
L 18.40625 -0.984375 
Q 18.40625 -11.421875 14.421875 -16.109375 
Q 10.453125 -20.796875 1.609375 -20.796875 
L -1.8125 -20.796875 
L -1.8125 -13.1875 
L 0.59375 -13.1875 
Q 5.71875 -13.1875 7.5625 -10.8125 
Q 9.421875 -8.453125 9.421875 -0.984375 
z
M 9.421875 75.984375 
L 18.40625 75.984375 
L 18.40625 64.59375 
L 9.421875 64.59375 
z
" id="DejaVuSans-106"/>
      <path d="M 40.578125 39.3125 
Q 47.65625 37.796875 51.625 33 
Q 55.609375 28.21875 55.609375 21.1875 
Q 55.609375 10.40625 48.1875 4.484375 
Q 40.765625 -1.421875 27.09375 -1.421875 
Q 22.515625 -1.421875 17.65625 -0.515625 
Q 12.796875 0.390625 7.625 2.203125 
L 7.625 11.71875 
Q 11.71875 9.328125 16.59375 8.109375 
Q 21.484375 6.890625 26.8125 6.890625 
Q 36.078125 6.890625 40.9375 10.546875 
Q 45.796875 14.203125 45.796875 21.1875 
Q 45.796875 27.640625 41.28125 31.265625 
Q 36.765625 34.90625 28.71875 34.90625 
L 20.21875 34.90625 
L 20.21875 43.015625 
L 29.109375 43.015625 
Q 36.375 43.015625 40.234375 45.921875 
Q 44.09375 48.828125 44.09375 54.296875 
Q 44.09375 59.90625 40.109375 62.90625 
Q 36.140625 65.921875 28.71875 65.921875 
Q 24.65625 65.921875 20.015625 65.03125 
Q 15.375 64.15625 9.8125 62.3125 
L 9.8125 71.09375 
Q 15.4375 72.65625 20.34375 73.4375 
Q 25.25 74.21875 29.59375 74.21875 
Q 40.828125 74.21875 47.359375 69.109375 
Q 53.90625 64.015625 53.90625 55.328125 
Q 53.90625 49.265625 50.4375 45.09375 
Q 46.96875 40.921875 40.578125 39.3125 
z
" id="DejaVuSans-51"/>
      <path d="M 10.984375 1.515625 
L 10.984375 10.5 
Q 14.703125 8.734375 18.5 7.8125 
Q 22.3125 6.890625 25.984375 6.890625 
Q 35.75 6.890625 40.890625 13.453125 
Q 46.046875 20.015625 46.78125 33.40625 
Q 43.953125 29.203125 39.59375 26.953125 
Q 35.25 24.703125 29.984375 24.703125 
Q 19.046875 24.703125 12.671875 31.3125 
Q 6.296875 37.9375 6.296875 49.421875 
Q 6.296875 60.640625 12.9375 67.421875 
Q 19.578125 74.21875 30.609375 74.21875 
Q 43.265625 74.21875 49.921875 64.515625 
Q 56.59375 54.828125 56.59375 36.375 
Q 56.59375 19.140625 48.40625 8.859375 
Q 40.234375 -1.421875 26.421875 -1.421875 
Q 22.703125 -1.421875 18.890625 -0.6875 
Q 15.09375 0.046875 10.984375 1.515625 
z
M 30.609375 32.421875 
Q 37.25 32.421875 41.125 36.953125 
Q 45.015625 41.5 45.015625 49.421875 
Q 45.015625 57.28125 41.125 61.84375 
Q 37.25 66.40625 30.609375 66.40625 
Q 23.96875 66.40625 20.09375 61.84375 
Q 16.21875 57.28125 16.21875 49.421875 
Q 16.21875 41.5 20.09375 36.953125 
Q 23.96875 32.421875 30.609375 32.421875 
z
" id="DejaVuSans-57"/>
      <path d="M 19.671875 64.796875 
L 19.671875 8.109375 
L 31.59375 8.109375 
Q 46.6875 8.109375 53.6875 14.9375 
Q 60.6875 21.78125 60.6875 36.53125 
Q 60.6875 51.171875 53.6875 57.984375 
Q 46.6875 64.796875 31.59375 64.796875 
z
M 9.8125 72.90625 
L 30.078125 72.90625 
Q 51.265625 72.90625 61.171875 64.09375 
Q 71.09375 55.28125 71.09375 36.53125 
Q 71.09375 17.671875 61.125 8.828125 
Q 51.171875 0 30.078125 0 
L 9.8125 0 
z
" id="DejaVuSans-68"/>
     </defs>
     <use xlink:href="#DejaVuSans-98"/>
     <use x="63.476562" xlink:href="#DejaVuSans-98"/>
     <use x="126.953125" xlink:href="#DejaVuSans-111"/>
     <use x="188.134766" xlink:href="#DejaVuSans-98"/>
     <use x="251.611328" xlink:href="#DejaVuSans-45"/>
     <use x="287.695312" xlink:href="#DejaVuSans-98"/>
     <use x="351.171875" xlink:href="#DejaVuSans-105"/>
     <use x="378.955078" xlink:href="#DejaVuSans-111"/>
     <use x="440.136719" xlink:href="#DejaVuSans-98"/>
     <use x="503.613281" xlink:href="#DejaVuSans-106"/>
     <use x="531.396484" xlink:href="#DejaVuSans-32"/>
     <use x="563.183594" xlink:href="#DejaVuSans-102"/>
     <use x="598.388672" xlink:href="#DejaVuSans-50"/>
     <use x="662.011719" xlink:href="#DejaVuSans-50"/>
     <use x="725.634766" xlink:href="#DejaVuSans-44"/>
     <use x="757.421875" xlink:href="#DejaVuSans-32"/>
     <use x="789.208984" xlink:href="#DejaVuSans-102"/>
     <use x="824.414062" xlink:href="#DejaVuSans-50"/>
     <use x="888.037109" xlink:href="#DejaVuSans-51"/>
     <use x="951.660156" xlink:href="#DejaVuSans-44"/>
     <use x="983.447266" xlink:href="#DejaVuSans-32"/>
     <use x="1015.234375" xlink:href="#DejaVuSans-102"/>
     <use x="1050.439453" xlink:href="#DejaVuSans-50"/>
     <use x="1114.0625" xlink:href="#DejaVuSans-57"/>
     <use x="1177.685547" xlink:href="#DejaVuSans-44"/>
     <use x="1209.472656" xlink:href="#DejaVuSans-32"/>
     <use x="1241.259766" xlink:href="#DejaVuSans-102"/>
     <use x="1276.464844" xlink:href="#DejaVuSans-51"/>
     <use x="1340.087891" xlink:href="#DejaVuSans-48"/>
     <use x="1403.710938" xlink:href="#DejaVuSans-44"/>
     <use x="1435.498047" xlink:href="#DejaVuSans-32"/>
     <use x="1467.285156" xlink:href="#DejaVuSans-52"/>
     <use x="1530.908203" xlink:href="#DejaVuSans-48"/>
     <use x="1594.53125" xlink:href="#DejaVuSans-45"/>
     <use x="1630.615234" xlink:href="#DejaVuSans-68"/>
    </g>
    <!-- 58 targets: 1..-1.0e-4 -->
    <g transform="translate(60.41088 25.583055)scale(0.102 -0.102)">
     <defs>
      <path d="M 10.796875 72.90625 
L 49.515625 72.90625 
L 49.515625 64.59375 
L 19.828125 64.59375 
L 19.828125 46.734375 
Q 21.96875 47.46875 24.109375 47.828125 
Q 26.265625 48.1875 28.421875 48.1875 
Q 40.625 48.1875 47.75 41.5 
Q 54.890625 34.8125 54.890625 23.390625 
Q 54.890625 11.625 47.5625 5.09375 
Q 40.234375 -1.421875 26.90625 -1.421875 
Q 22.3125 -1.421875 17.546875 -0.640625 
Q 12.796875 0.140625 7.71875 1.703125 
L 7.71875 11.625 
Q 12.109375 9.234375 16.796875 8.0625 
Q 21.484375 6.890625 26.703125 6.890625 
Q 35.15625 6.890625 40.078125 11.328125 
Q 45.015625 15.765625 45.015625 23.390625 
Q 45.015625 31 40.078125 35.4375 
Q 35.15625 39.890625 26.703125 39.890625 
Q 22.75 39.890625 18.8125 39.015625 
Q 14.890625 38.140625 10.796875 36.28125 
z
" id="DejaVuSans-53"/>
      <path d="M 11.71875 12.40625 
L 22.015625 12.40625 
L 22.015625 0 
L 11.71875 0 
z
M 11.71875 51.703125 
L 22.015625 51.703125 
L 22.015625 39.3125 
L 11.71875 39.3125 
z
" id="DejaVuSans-58"/>
     </defs>
     <use xlink:href="#DejaVuSans-53"/>
     <use x="63.623047" xlink:href="#DejaVuSans-56"/>
     <use x="127.246094" xlink:href="#DejaVuSans-32"/>
     <use x="159.033203" xlink:href="#DejaVuSans-116"/>
     <use x="198.242188" xlink:href="#DejaVuSans-97"/>
     <use x="259.521484" xlink:href="#DejaVuSans-114"/>
     <use x="298.884766" xlink:href="#DejaVuSans-103"/>
     <use x="362.361328" xlink:href="#DejaVuSans-101"/>
     <use x="423.884766" xlink:href="#DejaVuSans-116"/>
     <use x="463.09375" xlink:href="#DejaVuSans-115"/>
     <use x="515.193359" xlink:href="#DejaVuSans-58"/>
     <use x="548.884766" xlink:href="#DejaVuSans-32"/>
     <use x="580.671875" xlink:href="#DejaVuSans-49"/>
     <use x="644.294922" xlink:href="#DejaVuSans-46"/>
     <use x="676.082031" xlink:href="#DejaVuSans-46"/>
     <use x="707.869141" xlink:href="#DejaVuSans-45"/>
     <use x="743.953125" xlink:href="#DejaVuSans-49"/>
     <use x="807.576172" xlink:href="#DejaVuSans-46"/>
     <use x="839.363281" xlink:href="#DejaVuSans-48"/>
     <use x="902.986328" xlink:href="#DejaVuSans-101"/>
     <use x="964.509766" xlink:href="#DejaVuSans-45"/>
     <use x="1000.59375" xlink:href="#DejaVuSans-52"/>
    </g>
    <!-- 10 instances -->
    <g transform="translate(60.41088 37.004824)scale(0.102 -0.102)">
     <use xlink:href="#DejaVuSans-49"/>
     <use x="63.623047" xlink:href="#DejaVuSans-48"/>
     <use x="127.246094" xlink:href="#DejaVuSans-32"/>
     <use x="159.033203" xlink:href="#DejaVuSans-105"/>
     <use x="186.816406" xlink:href="#DejaVuSans-110"/>
     <use x="250.195312" xlink:href="#DejaVuSans-115"/>
     <use x="302.294922" xlink:href="#DejaVuSans-116"/>
     <use x="341.503906" xlink:href="#DejaVuSans-97"/>
     <use x="402.783203" xlink:href="#DejaVuSans-110"/>
     <use x="466.162109" xlink:href="#DejaVuSans-99"/>
     <use x="521.142578" xlink:href="#DejaVuSans-101"/>
     <use x="582.666016" xlink:href="#DejaVuSans-115"/>
    </g>
   </g>
   <g id="text_17">
    <!-- v2.4.19, hv-hash=ff0e71e8cd978373 -->
    <g style="fill:#808080;" transform="translate(104.697125 293.909432)scale(0.1 -0.1)">
     <defs>
      <path d="M 54.890625 33.015625 
L 54.890625 0 
L 45.90625 0 
L 45.90625 32.71875 
Q 45.90625 40.484375 42.875 44.328125 
Q 39.84375 48.1875 33.796875 48.1875 
Q 26.515625 48.1875 22.3125 43.546875 
Q 18.109375 38.921875 18.109375 30.90625 
L 18.109375 0 
L 9.078125 0 
L 9.078125 75.984375 
L 18.109375 75.984375 
L 18.109375 46.1875 
Q 21.34375 51.125 25.703125 53.5625 
Q 30.078125 56 35.796875 56 
Q 45.21875 56 50.046875 50.171875 
Q 54.890625 44.34375 54.890625 33.015625 
z
" id="DejaVuSans-104"/>
      <path d="M 10.59375 45.40625 
L 73.1875 45.40625 
L 73.1875 37.203125 
L 10.59375 37.203125 
z
M 10.59375 25.484375 
L 73.1875 25.484375 
L 73.1875 17.1875 
L 10.59375 17.1875 
z
" id="DejaVuSans-61"/>
      <path d="M 8.203125 72.90625 
L 55.078125 72.90625 
L 55.078125 68.703125 
L 28.609375 0 
L 18.3125 0 
L 43.21875 64.59375 
L 8.203125 64.59375 
z
" id="DejaVuSans-55"/>
     </defs>
     <use xlink:href="#DejaVuSans-118"/>
     <use x="59.179688" xlink:href="#DejaVuSans-50"/>
     <use x="122.802734" xlink:href="#DejaVuSans-46"/>
     <use x="154.589844" xlink:href="#DejaVuSans-52"/>
     <use x="218.212891" xlink:href="#DejaVuSans-46"/>
     <use x="250" xlink:href="#DejaVuSans-49"/>
     <use x="313.623047" xlink:href="#DejaVuSans-57"/>
     <use x="377.246094" xlink:href="#DejaVuSans-44"/>
     <use x="409.033203" xlink:href="#DejaVuSans-32"/>
     <use x="440.820312" xlink:href="#DejaVuSans-104"/>
     <use x="504.199219" xlink:href="#DejaVuSans-118"/>
     <use x="560.753906" xlink:href="#DejaVuSans-45"/>
     <use x="596.837891" xlink:href="#DejaVuSans-104"/>
     <use x="660.216797" xlink:href="#DejaVuSans-97"/>
     <use x="721.496094" xlink:href="#DejaVuSans-115"/>
     <use x="773.595703" xlink:href="#DejaVuSans-104"/>
     <use x="836.974609" xlink:href="#DejaVuSans-61"/>
     <use x="920.763672" xlink:href="#DejaVuSans-102"/>
     <use x="955.96875" xlink:href="#DejaVuSans-102"/>
     <use x="991.173828" xlink:href="#DejaVuSans-48"/>
     <use x="1054.796875" xlink:href="#DejaVuSans-101"/>
     <use x="1116.320312" xlink:href="#DejaVuSans-55"/>
     <use x="1179.943359" xlink:href="#DejaVuSans-49"/>
     <use x="1243.566406" xlink:href="#DejaVuSans-101"/>
     <use x="1305.089844" xlink:href="#DejaVuSans-56"/>
     <use x="1368.712891" xlink:href="#DejaVuSans-99"/>
     <use x="1423.693359" xlink:href="#DejaVuSans-100"/>
     <use x="1487.169922" xlink:href="#DejaVuSans-57"/>
     <use x="1550.792969" xlink:href="#DejaVuSans-55"/>
     <use x="1614.416016" xlink:href="#DejaVuSans-56"/>
     <use x="1678.039062" xlink:href="#DejaVuSans-51"/>
     <use x="1741.662109" xlink:href="#DejaVuSans-55"/>
     <use x="1805.285156" xlink:href="#DejaVuSans-51"/>
    </g>
   </g>
  </g>
 </g>
 <defs>
  <clipPath id="p36231513a6">
   <rect height="295.488" width="281.088" x="57.6" y="3.456"/>
  </clipPath>
 </defs>
</svg>
