<?xml version="1.0" encoding="utf-8" standalone="no"?>
<!DOCTYPE svg PUBLIC "-//W3C//DTD SVG 1.1//EN"
  "http://www.w3.org/Graphics/SVG/1.1/DTD/svg11.dtd">
<!-- Created with matplotlib (https://matplotlib.org/) -->
<svg height="345.6pt" version="1.1" viewBox="0 0 460.8 345.6" width="460.8pt" xmlns="http://www.w3.org/2000/svg" xmlns:xlink="http://www.w3.org/1999/xlink">
 <metadata>
  <rdf:RDF xmlns:cc="http://creativecommons.org/ns#" xmlns:dc="http://purl.org/dc/elements/1.1/" xmlns:rdf="http://www.w3.org/1999/02/22-rdf-syntax-ns#">
   <cc:Work>
    <dc:type rdf:resource="http://purl.org/dc/dcmitype/StillImage"/>
    <dc:date>2021-04-26T15:03:23.750856</dc:date>
    <dc:format>image/svg+xml</dc:format>
    <dc:creator>
     <cc:Agent>
      <dc:title>Matplotlib v3.3.2, https://matplotlib.org/</dc:title>
     </cc:Agent>
    </dc:creator>
   </cc:Work>
  </rdf:RDF>
 </metadata>
 <defs>
  <style type="text/css">*{stroke-linecap:butt;stroke-linejoin:round;}</style>
 </defs>
 <g id="figure_1">
  <g id="patch_1">
   <path d="M 0 345.6 
L 460.8 345.6 
L 460.8 0 
L 0 0 
z
" style="fill:#ffffff;"/>
  </g>
  <g id="axes_1">
   <g id="patch_2">
    <path d="M 57.6 298.944 
L 338.688 298.944 
L 338.688 3.456 
L 57.6 3.456 
z
" style="fill:#ffffff;"/>
   </g>
   <g id="line2d_1">
    <path d="M -1 297.682955 
L 21.336035 297.682955 
L 21.336035 296.421911 
L 31.586611 296.421911 
L 31.586611 295.160866 
L 59.654051 295.160866 
L 59.654051 293.899821 
L 110.274038 293.899821 
L 110.274038 291.377732 
L 117.345058 291.377732 
L 117.345058 288.855642 
L 127.100304 288.855642 
L 127.100304 286.333553 
L 134.279041 286.333553 
L 134.279041 283.811463 
L 141.126708 283.811463 
L 141.126708 281.289374 
L 141.521035 281.289374 
L 141.521035 278.767284 
L 143.442252 278.767284 
L 143.442252 277.50624 
L 143.713171 277.50624 
L 143.713171 274.98415 
L 145.375596 274.98415 
L 145.375596 273.723105 
L 145.763401 273.723105 
L 145.763401 269.939971 
L 147.185137 269.939971 
L 147.185137 266.156837 
L 147.816526 266.156837 
L 147.816526 263.634748 
L 148.845415 263.634748 
L 148.845415 261.112658 
L 149.959563 261.112658 
L 149.959563 259.851614 
L 150.484675 259.851614 
L 150.484675 258.590569 
L 150.963525 258.590569 
L 150.963525 256.068479 
L 152.251347 256.068479 
L 152.251347 253.54639 
L 152.558973 253.54639 
L 152.558973 251.0243 
L 154.48856 251.0243 
L 154.48856 247.241166 
L 154.518866 247.241166 
L 154.518866 245.980122 
L 155.292098 245.980122 
L 155.292098 242.196987 
L 156.893127 242.196987 
L 156.893127 239.674898 
L 157.917963 239.674898 
L 157.917963 235.891764 
L 159.189675 235.891764 
L 159.189675 233.369674 
L 159.542562 233.369674 
L 159.542562 230.847585 
L 161.636364 230.847585 
L 161.636364 228.325495 
L 162.719386 228.325495 
L 162.719386 225.803406 
L 164.097233 225.803406 
L 164.097233 224.542361 
L 164.454856 224.542361 
L 164.454856 222.020272 
L 165.847888 222.020272 
L 165.847888 220.759227 
L 166.70164 220.759227 
L 166.70164 219.498182 
L 169.995566 219.498182 
L 169.995566 216.976093 
L 170.505381 216.976093 
L 170.505381 213.192959 
L 171.354709 213.192959 
L 171.354709 210.670869 
L 172.96307 210.670869 
L 172.96307 206.887735 
L 174.49022 206.887735 
L 174.49022 203.104601 
L 175.742576 203.104601 
L 175.742576 200.582511 
L 180.290026 200.582511 
L 180.290026 199.321467 
L 181.742975 199.321467 
L 181.742975 196.799377 
L 181.902903 196.799377 
L 181.902903 195.538333 
L 184.283737 195.538333 
L 184.283737 193.016243 
L 187.59789 193.016243 
L 187.59789 189.233109 
L 189.557116 189.233109 
L 189.557116 187.972064 
L 191.975809 187.972064 
L 191.975809 185.449975 
L 205.271944 185.449975 
L 205.271944 181.666841 
L 212.895081 181.666841 
L 212.895081 179.144751 
L 217.148587 179.144751 
L 217.148587 176.622662 
L 238.132888 176.622662 
L 238.132888 175.361617 
L 245.756287 175.361617 
L 245.756287 172.839527 
L 246.327096 172.839527 
L 246.327096 170.317438 
L 246.927045 170.317438 
L 246.927045 166.534304 
L 256.038109 166.534304 
L 256.038109 165.273259 
L 262.460022 165.273259 
L 262.460022 161.490125 
L 264.404077 161.490125 
L 264.404077 158.968036 
L 269.67198 158.968036 
L 269.67198 157.706991 
L 275.999967 157.706991 
L 275.999967 153.923857 
L 277.281096 153.923857 
L 277.281096 151.401767 
L 297.236328 151.401767 
L 297.236328 147.618633 
L 297.838114 147.618633 
L 297.838114 146.357588 
L 338.688 146.357588 
" style="fill:none;stroke:#f5deb3;stroke-linecap:square;stroke-width:4;"/>
   </g>
   <g id="line2d_2">
    <defs>
     <path d="M 0 7.778175 
L 7.778175 0 
L 0 -7.778175 
L -7.778175 0 
z
" id="m2fc56d6700" style="stroke:#f5deb3;stroke-linejoin:miter;stroke-width:1.5;"/>
    </defs>
    <g>
     <use style="fill:#f5deb3;stroke:#f5deb3;stroke-linejoin:miter;stroke-width:1.5;" x="134.279041" xlink:href="#m2fc56d6700" y="286.333553"/>
     <use style="fill:#f5deb3;stroke:#f5deb3;stroke-linejoin:miter;stroke-width:1.5;" x="169.995566" xlink:href="#m2fc56d6700" y="219.498182"/>
     <use style="fill:#f5deb3;stroke:#f5deb3;stroke-linejoin:miter;stroke-width:1.5;" x="217.148587" xlink:href="#m2fc56d6700" y="176.622662"/>
     <use style="fill:#f5deb3;stroke:#f5deb3;stroke-linejoin:miter;stroke-width:1.5;" x="297.838114" xlink:href="#m2fc56d6700" y="146.357588"/>
     <use style="fill:#f5deb3;stroke:#f5deb3;stroke-linejoin:miter;stroke-width:1.5;" x="297.838114" xlink:href="#m2fc56d6700" y="146.357588"/>
     <use style="fill:#f5deb3;stroke:#f5deb3;stroke-linejoin:miter;stroke-width:1.5;" x="338.688" xlink:href="#m2fc56d6700" y="146.357588"/>
    </g>
   </g>
   <g id="line2d_3">
    <path style="fill:none;stroke:#f5deb3;stroke-linecap:square;stroke-width:4;"/>
    <g/>
   </g>
   <g id="line2d_4">
    <path d="M 338.688 146.357588 
L 369.60768 12.232871 
" style="fill:none;stroke:#f5deb3;stroke-linecap:square;stroke-width:4;"/>
    <g>
     <use style="fill:#f5deb3;stroke:#f5deb3;stroke-linejoin:miter;stroke-width:1.5;" x="338.688" xlink:href="#m2fc56d6700" y="146.357588"/>
     <use style="fill:#f5deb3;stroke:#f5deb3;stroke-linejoin:miter;stroke-width:1.5;" x="369.60768" xlink:href="#m2fc56d6700" y="12.232871"/>
    </g>
   </g>
   <g id="matplotlib.axis_1">
    <g id="xtick_1">
     <g id="line2d_5">
      <path clip-path="url(#pea8bc87697)" d="M 57.6 298.944 
L 57.6 3.456 
" style="fill:none;stroke:#b0b0b0;stroke-linecap:square;stroke-width:0.8;"/>
     </g>
     <g id="line2d_6">
      <defs>
       <path d="M 0 0 
L 0 3.5 
" id="m4afc3ba47e" style="stroke:#000000;stroke-width:0.8;"/>
      </defs>
      <g>
       <use style="stroke:#000000;stroke-width:0.8;" x="57.6" xlink:href="#m4afc3ba47e" y="298.944"/>
      </g>
     </g>
     <g id="text_1">
      <!-- 0 -->
      <g transform="translate(51.2375 321.140875)scale(0.2 -0.2)">
       <defs>
        <path d="M 31.78125 66.40625 
Q 24.171875 66.40625 20.328125 58.90625 
Q 16.5 51.421875 16.5 36.375 
Q 16.5 21.390625 20.328125 13.890625 
Q 24.171875 6.390625 31.78125 6.390625 
Q 39.453125 6.390625 43.28125 13.890625 
Q 47.125 21.390625 47.125 36.375 
Q 47.125 51.421875 43.28125 58.90625 
Q 39.453125 66.40625 31.78125 66.40625 
z
M 31.78125 74.21875 
Q 44.046875 74.21875 50.515625 64.515625 
Q 56.984375 54.828125 56.984375 36.375 
Q 56.984375 17.96875 50.515625 8.265625 
Q 44.046875 -1.421875 31.78125 -1.421875 
Q 19.53125 -1.421875 13.0625 8.265625 
Q 6.59375 17.96875 6.59375 36.375 
Q 6.59375 54.828125 13.0625 64.515625 
Q 19.53125 74.21875 31.78125 74.21875 
z
" id="DejaVuSans-48"/>
       </defs>
       <use xlink:href="#DejaVuSans-48"/>
      </g>
     </g>
    </g>
    <g id="xtick_2">
     <g id="line2d_7">
      <path clip-path="url(#pea8bc87697)" d="M 137.910857 298.944 
L 137.910857 3.456 
" style="fill:none;stroke:#b0b0b0;stroke-linecap:square;stroke-width:0.8;"/>
     </g>
     <g id="line2d_8">
      <g>
       <use style="stroke:#000000;stroke-width:0.8;" x="137.910857" xlink:href="#m4afc3ba47e" y="298.944"/>
      </g>
     </g>
     <g id="text_2">
      <!-- 2 -->
      <g transform="translate(131.548357 321.140875)scale(0.2 -0.2)">
       <defs>
        <path d="M 19.1875 8.296875 
L 53.609375 8.296875 
L 53.609375 0 
L 7.328125 0 
L 7.328125 8.296875 
Q 12.9375 14.109375 22.625 23.890625 
Q 32.328125 33.6875 34.8125 36.53125 
Q 39.546875 41.84375 41.421875 45.53125 
Q 43.3125 49.21875 43.3125 52.78125 
Q 43.3125 58.59375 39.234375 62.25 
Q 35.15625 65.921875 28.609375 65.921875 
Q 23.96875 65.921875 18.8125 64.3125 
Q 13.671875 62.703125 7.8125 59.421875 
L 7.8125 69.390625 
Q 13.765625 71.78125 18.9375 73 
Q 24.125 74.21875 28.421875 74.21875 
Q 39.75 74.21875 46.484375 68.546875 
Q 53.21875 62.890625 53.21875 53.421875 
Q 53.21875 48.921875 51.53125 44.890625 
Q 49.859375 40.875 45.40625 35.40625 
Q 44.1875 33.984375 37.640625 27.21875 
Q 31.109375 20.453125 19.1875 8.296875 
z
" id="DejaVuSans-50"/>
       </defs>
       <use xlink:href="#DejaVuSans-50"/>
      </g>
     </g>
    </g>
    <g id="xtick_3">
     <g id="line2d_9">
      <path clip-path="url(#pea8bc87697)" d="M 218.221714 298.944 
L 218.221714 3.456 
" style="fill:none;stroke:#b0b0b0;stroke-linecap:square;stroke-width:0.8;"/>
     </g>
     <g id="line2d_10">
      <g>
       <use style="stroke:#000000;stroke-width:0.8;" x="218.221714" xlink:href="#m4afc3ba47e" y="298.944"/>
      </g>
     </g>
     <g id="text_3">
      <!-- 4 -->
      <g transform="translate(211.859214 321.140875)scale(0.2 -0.2)">
       <defs>
        <path d="M 37.796875 64.3125 
L 12.890625 25.390625 
L 37.796875 25.390625 
z
M 35.203125 72.90625 
L 47.609375 72.90625 
L 47.609375 25.390625 
L 58.015625 25.390625 
L 58.015625 17.1875 
L 47.609375 17.1875 
L 47.609375 0 
L 37.796875 0 
L 37.796875 17.1875 
L 4.890625 17.1875 
L 4.890625 26.703125 
z
" id="DejaVuSans-52"/>
       </defs>
       <use xlink:href="#DejaVuSans-52"/>
      </g>
     </g>
    </g>
    <g id="xtick_4">
     <g id="line2d_11">
      <path clip-path="url(#pea8bc87697)" d="M 298.532571 298.944 
L 298.532571 3.456 
" style="fill:none;stroke:#b0b0b0;stroke-linecap:square;stroke-width:0.8;"/>
     </g>
     <g id="line2d_12">
      <g>
       <use style="stroke:#000000;stroke-width:0.8;" x="298.532571" xlink:href="#m4afc3ba47e" y="298.944"/>
      </g>
     </g>
     <g id="text_4">
      <!-- 6 -->
      <g transform="translate(292.170071 321.140875)scale(0.2 -0.2)">
       <defs>
        <path d="M 33.015625 40.375 
Q 26.375 40.375 22.484375 35.828125 
Q 18.609375 31.296875 18.609375 23.390625 
Q 18.609375 15.53125 22.484375 10.953125 
Q 26.375 6.390625 33.015625 6.390625 
Q 39.65625 6.390625 43.53125 10.953125 
Q 47.40625 15.53125 47.40625 23.390625 
Q 47.40625 31.296875 43.53125 35.828125 
Q 39.65625 40.375 33.015625 40.375 
z
M 52.59375 71.296875 
L 52.59375 62.3125 
Q 48.875 64.0625 45.09375 64.984375 
Q 41.3125 65.921875 37.59375 65.921875 
Q 27.828125 65.921875 22.671875 59.328125 
Q 17.53125 52.734375 16.796875 39.40625 
Q 19.671875 43.65625 24.015625 45.921875 
Q 28.375 48.1875 33.59375 48.1875 
Q 44.578125 48.1875 50.953125 41.515625 
Q 57.328125 34.859375 57.328125 23.390625 
Q 57.328125 12.15625 50.6875 5.359375 
Q 44.046875 -1.421875 33.015625 -1.421875 
Q 20.359375 -1.421875 13.671875 8.265625 
Q 6.984375 17.96875 6.984375 36.375 
Q 6.984375 53.65625 15.1875 63.9375 
Q 23.390625 74.21875 37.203125 74.21875 
Q 40.921875 74.21875 44.703125 73.484375 
Q 48.484375 72.75 52.59375 71.296875 
z
" id="DejaVuSans-54"/>
       </defs>
       <use xlink:href="#DejaVuSans-54"/>
      </g>
     </g>
    </g>
    <g id="xtick_5">
     <g id="line2d_13">
      <path clip-path="url(#pea8bc87697)" d="M 97.755429 298.944 
L 97.755429 3.456 
" style="fill:none;stroke:#b0b0b0;stroke-linecap:square;stroke-width:0.8;"/>
     </g>
     <g id="line2d_14">
      <defs>
       <path d="M 0 0 
L 0 2 
" id="m383dff0285" style="stroke:#000000;stroke-width:0.6;"/>
      </defs>
      <g>
       <use style="stroke:#000000;stroke-width:0.6;" x="97.755429" xlink:href="#m383dff0285" y="298.944"/>
      </g>
     </g>
    </g>
    <g id="xtick_6">
     <g id="line2d_15">
      <path clip-path="url(#pea8bc87697)" d="M 178.066286 298.944 
L 178.066286 3.456 
" style="fill:none;stroke:#b0b0b0;stroke-linecap:square;stroke-width:0.8;"/>
     </g>
     <g id="line2d_16">
      <g>
       <use style="stroke:#000000;stroke-width:0.6;" x="178.066286" xlink:href="#m383dff0285" y="298.944"/>
      </g>
     </g>
    </g>
    <g id="xtick_7">
     <g id="line2d_17">
      <path clip-path="url(#pea8bc87697)" d="M 258.377143 298.944 
L 258.377143 3.456 
" style="fill:none;stroke:#b0b0b0;stroke-linecap:square;stroke-width:0.8;"/>
     </g>
     <g id="line2d_18">
      <g>
       <use style="stroke:#000000;stroke-width:0.6;" x="258.377143" xlink:href="#m383dff0285" y="298.944"/>
      </g>
     </g>
    </g>
    <g id="xtick_8">
     <g id="line2d_19">
      <path clip-path="url(#pea8bc87697)" d="M 338.688 298.944 
L 338.688 3.456 
" style="fill:none;stroke:#b0b0b0;stroke-linecap:square;stroke-width:0.8;"/>
     </g>
     <g id="line2d_20">
      <g>
       <use style="stroke:#000000;stroke-width:0.6;" x="338.688" xlink:href="#m383dff0285" y="298.944"/>
      </g>
     </g>
    </g>
    <g id="text_5">
     <!-- log10(# f-evals / dimension) -->
     <g transform="translate(77.764078 342.217594)scale(0.17 -0.17)">
      <defs>
       <path d="M 9.421875 75.984375 
L 18.40625 75.984375 
L 18.40625 0 
L 9.421875 0 
z
" id="DejaVuSans-108"/>
       <path d="M 30.609375 48.390625 
Q 23.390625 48.390625 19.1875 42.75 
Q 14.984375 37.109375 14.984375 27.296875 
Q 14.984375 17.484375 19.15625 11.84375 
Q 23.34375 6.203125 30.609375 6.203125 
Q 37.796875 6.203125 41.984375 11.859375 
Q 46.1875 17.53125 46.1875 27.296875 
Q 46.1875 37.015625 41.984375 42.703125 
Q 37.796875 48.390625 30.609375 48.390625 
z
M 30.609375 56 
Q 42.328125 56 49.015625 48.375 
Q 55.71875 40.765625 55.71875 27.296875 
Q 55.71875 13.875 49.015625 6.21875 
Q 42.328125 -1.421875 30.609375 -1.421875 
Q 18.84375 -1.421875 12.171875 6.21875 
Q 5.515625 13.875 5.515625 27.296875 
Q 5.515625 40.765625 12.171875 48.375 
Q 18.84375 56 30.609375 56 
z
" id="DejaVuSans-111"/>
       <path d="M 45.40625 27.984375 
Q 45.40625 37.75 41.375 43.109375 
Q 37.359375 48.484375 30.078125 48.484375 
Q 22.859375 48.484375 18.828125 43.109375 
Q 14.796875 37.75 14.796875 27.984375 
Q 14.796875 18.265625 18.828125 12.890625 
Q 22.859375 7.515625 30.078125 7.515625 
Q 37.359375 7.515625 41.375 12.890625 
Q 45.40625 18.265625 45.40625 27.984375 
z
M 54.390625 6.78125 
Q 54.390625 -7.171875 48.1875 -13.984375 
Q 42 -20.796875 29.203125 -20.796875 
Q 24.46875 -20.796875 20.265625 -20.09375 
Q 16.0625 -19.390625 12.109375 -17.921875 
L 12.109375 -9.1875 
Q 16.0625 -11.328125 19.921875 -12.34375 
Q 23.78125 -13.375 27.78125 -13.375 
Q 36.625 -13.375 41.015625 -8.765625 
Q 45.40625 -4.15625 45.40625 5.171875 
L 45.40625 9.625 
Q 42.625 4.78125 38.28125 2.390625 
Q 33.9375 0 27.875 0 
Q 17.828125 0 11.671875 7.65625 
Q 5.515625 15.328125 5.515625 27.984375 
Q 5.515625 40.671875 11.671875 48.328125 
Q 17.828125 56 27.875 56 
Q 33.9375 56 38.28125 53.609375 
Q 42.625 51.21875 45.40625 46.390625 
L 45.40625 54.6875 
L 54.390625 54.6875 
z
" id="DejaVuSans-103"/>
       <path d="M 12.40625 8.296875 
L 28.515625 8.296875 
L 28.515625 63.921875 
L 10.984375 60.40625 
L 10.984375 69.390625 
L 28.421875 72.90625 
L 38.28125 72.90625 
L 38.28125 8.296875 
L 54.390625 8.296875 
L 54.390625 0 
L 12.40625 0 
z
" id="DejaVuSans-49"/>
       <path d="M 31 75.875 
Q 24.46875 64.65625 21.28125 53.65625 
Q 18.109375 42.671875 18.109375 31.390625 
Q 18.109375 20.125 21.3125 9.0625 
Q 24.515625 -2 31 -13.1875 
L 23.1875 -13.1875 
Q 15.875 -1.703125 12.234375 9.375 
Q 8.59375 20.453125 8.59375 31.390625 
Q 8.59375 42.28125 12.203125 53.3125 
Q 15.828125 64.359375 23.1875 75.875 
z
" id="DejaVuSans-40"/>
       <path d="M 51.125 44 
L 36.921875 44 
L 32.8125 27.6875 
L 47.125 27.6875 
z
M 43.796875 71.78125 
L 38.71875 51.515625 
L 52.984375 51.515625 
L 58.109375 71.78125 
L 65.921875 71.78125 
L 60.890625 51.515625 
L 76.125 51.515625 
L 76.125 44 
L 58.984375 44 
L 54.984375 27.6875 
L 70.515625 27.6875 
L 70.515625 20.21875 
L 53.078125 20.21875 
L 48 0 
L 40.1875 0 
L 45.21875 20.21875 
L 30.90625 20.21875 
L 25.875 0 
L 18.015625 0 
L 23.09375 20.21875 
L 7.71875 20.21875 
L 7.71875 27.6875 
L 24.90625 27.6875 
L 29 44 
L 13.28125 44 
L 13.28125 51.515625 
L 30.90625 51.515625 
L 35.890625 71.78125 
z
" id="DejaVuSans-35"/>
       <path id="DejaVuSans-32"/>
       <path d="M 37.109375 75.984375 
L 37.109375 68.5 
L 28.515625 68.5 
Q 23.6875 68.5 21.796875 66.546875 
Q 19.921875 64.59375 19.921875 59.515625 
L 19.921875 54.6875 
L 34.71875 54.6875 
L 34.71875 47.703125 
L 19.921875 47.703125 
L 19.921875 0 
L 10.890625 0 
L 10.890625 47.703125 
L 2.296875 47.703125 
L 2.296875 54.6875 
L 10.890625 54.6875 
L 10.890625 58.5 
Q 10.890625 67.625 15.140625 71.796875 
Q 19.390625 75.984375 28.609375 75.984375 
z
" id="DejaVuSans-102"/>
       <path d="M 4.890625 31.390625 
L 31.203125 31.390625 
L 31.203125 23.390625 
L 4.890625 23.390625 
z
" id="DejaVuSans-45"/>
       <path d="M 56.203125 29.59375 
L 56.203125 25.203125 
L 14.890625 25.203125 
Q 15.484375 15.921875 20.484375 11.0625 
Q 25.484375 6.203125 34.421875 6.203125 
Q 39.59375 6.203125 44.453125 7.46875 
Q 49.3125 8.734375 54.109375 11.28125 
L 54.109375 2.78125 
Q 49.265625 0.734375 44.1875 -0.34375 
Q 39.109375 -1.421875 33.890625 -1.421875 
Q 20.796875 -1.421875 13.15625 6.1875 
Q 5.515625 13.8125 5.515625 26.8125 
Q 5.515625 40.234375 12.765625 48.109375 
Q 20.015625 56 32.328125 56 
Q 43.359375 56 49.78125 48.890625 
Q 56.203125 41.796875 56.203125 29.59375 
z
M 47.21875 32.234375 
Q 47.125 39.59375 43.09375 43.984375 
Q 39.0625 48.390625 32.421875 48.390625 
Q 24.90625 48.390625 20.390625 44.140625 
Q 15.875 39.890625 15.1875 32.171875 
z
" id="DejaVuSans-101"/>
       <path d="M 2.984375 54.6875 
L 12.5 54.6875 
L 29.59375 8.796875 
L 46.6875 54.6875 
L 56.203125 54.6875 
L 35.6875 0 
L 23.484375 0 
z
" id="DejaVuSans-118"/>
       <path d="M 34.28125 27.484375 
Q 23.390625 27.484375 19.1875 25 
Q 14.984375 22.515625 14.984375 16.5 
Q 14.984375 11.71875 18.140625 8.90625 
Q 21.296875 6.109375 26.703125 6.109375 
Q 34.1875 6.109375 38.703125 11.40625 
Q 43.21875 16.703125 43.21875 25.484375 
L 43.21875 27.484375 
z
M 52.203125 31.203125 
L 52.203125 0 
L 43.21875 0 
L 43.21875 8.296875 
Q 40.140625 3.328125 35.546875 0.953125 
Q 30.953125 -1.421875 24.3125 -1.421875 
Q 15.921875 -1.421875 10.953125 3.296875 
Q 6 8.015625 6 15.921875 
Q 6 25.140625 12.171875 29.828125 
Q 18.359375 34.515625 30.609375 34.515625 
L 43.21875 34.515625 
L 43.21875 35.40625 
Q 43.21875 41.609375 39.140625 45 
Q 35.0625 48.390625 27.6875 48.390625 
Q 23 48.390625 18.546875 47.265625 
Q 14.109375 46.140625 10.015625 43.890625 
L 10.015625 52.203125 
Q 14.9375 54.109375 19.578125 55.046875 
Q 24.21875 56 28.609375 56 
Q 40.484375 56 46.34375 49.84375 
Q 52.203125 43.703125 52.203125 31.203125 
z
" id="DejaVuSans-97"/>
       <path d="M 44.28125 53.078125 
L 44.28125 44.578125 
Q 40.484375 46.53125 36.375 47.5 
Q 32.28125 48.484375 27.875 48.484375 
Q 21.1875 48.484375 17.84375 46.4375 
Q 14.5 44.390625 14.5 40.28125 
Q 14.5 37.15625 16.890625 35.375 
Q 19.28125 33.59375 26.515625 31.984375 
L 29.59375 31.296875 
Q 39.15625 29.25 43.1875 25.515625 
Q 47.21875 21.78125 47.21875 15.09375 
Q 47.21875 7.46875 41.1875 3.015625 
Q 35.15625 -1.421875 24.609375 -1.421875 
Q 20.21875 -1.421875 15.453125 -0.5625 
Q 10.6875 0.296875 5.421875 2 
L 5.421875 11.28125 
Q 10.40625 8.6875 15.234375 7.390625 
Q 20.0625 6.109375 24.8125 6.109375 
Q 31.15625 6.109375 34.5625 8.28125 
Q 37.984375 10.453125 37.984375 14.40625 
Q 37.984375 18.0625 35.515625 20.015625 
Q 33.0625 21.96875 24.703125 23.78125 
L 21.578125 24.515625 
Q 13.234375 26.265625 9.515625 29.90625 
Q 5.8125 33.546875 5.8125 39.890625 
Q 5.8125 47.609375 11.28125 51.796875 
Q 16.75 56 26.8125 56 
Q 31.78125 56 36.171875 55.265625 
Q 40.578125 54.546875 44.28125 53.078125 
z
" id="DejaVuSans-115"/>
       <path d="M 25.390625 72.90625 
L 33.6875 72.90625 
L 8.296875 -9.28125 
L 0 -9.28125 
z
" id="DejaVuSans-47"/>
       <path d="M 45.40625 46.390625 
L 45.40625 75.984375 
L 54.390625 75.984375 
L 54.390625 0 
L 45.40625 0 
L 45.40625 8.203125 
Q 42.578125 3.328125 38.25 0.953125 
Q 33.9375 -1.421875 27.875 -1.421875 
Q 17.96875 -1.421875 11.734375 6.484375 
Q 5.515625 14.40625 5.515625 27.296875 
Q 5.515625 40.1875 11.734375 48.09375 
Q 17.96875 56 27.875 56 
Q 33.9375 56 38.25 53.625 
Q 42.578125 51.265625 45.40625 46.390625 
z
M 14.796875 27.296875 
Q 14.796875 17.390625 18.875 11.75 
Q 22.953125 6.109375 30.078125 6.109375 
Q 37.203125 6.109375 41.296875 11.75 
Q 45.40625 17.390625 45.40625 27.296875 
Q 45.40625 37.203125 41.296875 42.84375 
Q 37.203125 48.484375 30.078125 48.484375 
Q 22.953125 48.484375 18.875 42.84375 
Q 14.796875 37.203125 14.796875 27.296875 
z
" id="DejaVuSans-100"/>
       <path d="M 9.421875 54.6875 
L 18.40625 54.6875 
L 18.40625 0 
L 9.421875 0 
z
M 9.421875 75.984375 
L 18.40625 75.984375 
L 18.40625 64.59375 
L 9.421875 64.59375 
z
" id="DejaVuSans-105"/>
       <path d="M 52 44.1875 
Q 55.375 50.25 60.0625 53.125 
Q 64.75 56 71.09375 56 
Q 79.640625 56 84.28125 50.015625 
Q 88.921875 44.046875 88.921875 33.015625 
L 88.921875 0 
L 79.890625 0 
L 79.890625 32.71875 
Q 79.890625 40.578125 77.09375 44.375 
Q 74.3125 48.1875 68.609375 48.1875 
Q 61.625 48.1875 57.5625 43.546875 
Q 53.515625 38.921875 53.515625 30.90625 
L 53.515625 0 
L 44.484375 0 
L 44.484375 32.71875 
Q 44.484375 40.625 41.703125 44.40625 
Q 38.921875 48.1875 33.109375 48.1875 
Q 26.21875 48.1875 22.15625 43.53125 
Q 18.109375 38.875 18.109375 30.90625 
L 18.109375 0 
L 9.078125 0 
L 9.078125 54.6875 
L 18.109375 54.6875 
L 18.109375 46.1875 
Q 21.1875 51.21875 25.484375 53.609375 
Q 29.78125 56 35.6875 56 
Q 41.65625 56 45.828125 52.96875 
Q 50 49.953125 52 44.1875 
z
" id="DejaVuSans-109"/>
       <path d="M 54.890625 33.015625 
L 54.890625 0 
L 45.90625 0 
L 45.90625 32.71875 
Q 45.90625 40.484375 42.875 44.328125 
Q 39.84375 48.1875 33.796875 48.1875 
Q 26.515625 48.1875 22.3125 43.546875 
Q 18.109375 38.921875 18.109375 30.90625 
L 18.109375 0 
L 9.078125 0 
L 9.078125 54.6875 
L 18.109375 54.6875 
L 18.109375 46.1875 
Q 21.34375 51.125 25.703125 53.5625 
Q 30.078125 56 35.796875 56 
Q 45.21875 56 50.046875 50.171875 
Q 54.890625 44.34375 54.890625 33.015625 
z
" id="DejaVuSans-110"/>
       <path d="M 8.015625 75.875 
L 15.828125 75.875 
Q 23.140625 64.359375 26.78125 53.3125 
Q 30.421875 42.28125 30.421875 31.390625 
Q 30.421875 20.453125 26.78125 9.375 
Q 23.140625 -1.703125 15.828125 -13.1875 
L 8.015625 -13.1875 
Q 14.5 -2 17.703125 9.0625 
Q 20.90625 20.125 20.90625 31.390625 
Q 20.90625 42.671875 17.703125 53.65625 
Q 14.5 64.65625 8.015625 75.875 
z
" id="DejaVuSans-41"/>
      </defs>
      <use xlink:href="#DejaVuSans-108"/>
      <use x="27.783203" xlink:href="#DejaVuSans-111"/>
      <use x="88.964844" xlink:href="#DejaVuSans-103"/>
      <use x="152.441406" xlink:href="#DejaVuSans-49"/>
      <use x="216.064453" xlink:href="#DejaVuSans-48"/>
      <use x="279.6875" xlink:href="#DejaVuSans-40"/>
      <use x="318.701172" xlink:href="#DejaVuSans-35"/>
      <use x="402.490234" xlink:href="#DejaVuSans-32"/>
      <use x="434.277344" xlink:href="#DejaVuSans-102"/>
      <use x="463.982422" xlink:href="#DejaVuSans-45"/>
      <use x="500.066406" xlink:href="#DejaVuSans-101"/>
      <use x="561.589844" xlink:href="#DejaVuSans-118"/>
      <use x="620.769531" xlink:href="#DejaVuSans-97"/>
      <use x="682.048828" xlink:href="#DejaVuSans-108"/>
      <use x="709.832031" xlink:href="#DejaVuSans-115"/>
      <use x="761.931641" xlink:href="#DejaVuSans-32"/>
      <use x="793.71875" xlink:href="#DejaVuSans-47"/>
      <use x="827.410156" xlink:href="#DejaVuSans-32"/>
      <use x="859.197266" xlink:href="#DejaVuSans-100"/>
      <use x="922.673828" xlink:href="#DejaVuSans-105"/>
      <use x="950.457031" xlink:href="#DejaVuSans-109"/>
      <use x="1047.869141" xlink:href="#DejaVuSans-101"/>
      <use x="1109.392578" xlink:href="#DejaVuSans-110"/>
      <use x="1172.771484" xlink:href="#DejaVuSans-115"/>
      <use x="1224.871094" xlink:href="#DejaVuSans-105"/>
      <use x="1252.654297" xlink:href="#DejaVuSans-111"/>
      <use x="1313.835938" xlink:href="#DejaVuSans-110"/>
      <use x="1377.214844" xlink:href="#DejaVuSans-41"/>
     </g>
    </g>
   </g>
   <g id="matplotlib.axis_2">
    <g id="ytick_1">
     <g id="line2d_21">
      <path clip-path="url(#pea8bc87697)" d="M 57.6 298.944 
L 338.688 298.944 
" style="fill:none;stroke:#b0b0b0;stroke-linecap:square;stroke-width:0.8;"/>
     </g>
     <g id="line2d_22">
      <defs>
       <path d="M 0 0 
L -3.5 0 
" id="m5d8c07f502" style="stroke:#000000;stroke-width:0.8;"/>
      </defs>
      <g>
       <use style="stroke:#000000;stroke-width:0.8;" x="57.6" xlink:href="#m5d8c07f502" y="298.944"/>
      </g>
     </g>
     <g id="text_6">
      <!-- 0.0 -->
      <g transform="translate(25.155 305.02275)scale(0.16 -0.16)">
       <defs>
        <path d="M 10.6875 12.40625 
L 21 12.40625 
L 21 0 
L 10.6875 0 
z
" id="DejaVuSans-46"/>
       </defs>
       <use xlink:href="#DejaVuSans-48"/>
       <use x="63.623047" xlink:href="#DejaVuSans-46"/>
       <use x="95.410156" xlink:href="#DejaVuSans-48"/>
      </g>
     </g>
    </g>
    <g id="ytick_2">
     <g id="line2d_23">
      <path clip-path="url(#pea8bc87697)" d="M 57.6 240.431525 
L 338.688 240.431525 
" style="fill:none;stroke:#b0b0b0;stroke-linecap:square;stroke-width:0.8;"/>
     </g>
     <g id="line2d_24">
      <g>
       <use style="stroke:#000000;stroke-width:0.8;" x="57.6" xlink:href="#m5d8c07f502" y="240.431525"/>
      </g>
     </g>
     <g id="text_7">
      <!-- 0.2 -->
      <g transform="translate(25.155 246.510275)scale(0.16 -0.16)">
       <use xlink:href="#DejaVuSans-48"/>
       <use x="63.623047" xlink:href="#DejaVuSans-46"/>
       <use x="95.410156" xlink:href="#DejaVuSans-50"/>
      </g>
     </g>
    </g>
    <g id="ytick_3">
     <g id="line2d_25">
      <path clip-path="url(#pea8bc87697)" d="M 57.6 181.91905 
L 338.688 181.91905 
" style="fill:none;stroke:#b0b0b0;stroke-linecap:square;stroke-width:0.8;"/>
     </g>
     <g id="line2d_26">
      <g>
       <use style="stroke:#000000;stroke-width:0.8;" x="57.6" xlink:href="#m5d8c07f502" y="181.91905"/>
      </g>
     </g>
     <g id="text_8">
      <!-- 0.4 -->
      <g transform="translate(25.155 187.9978)scale(0.16 -0.16)">
       <use xlink:href="#DejaVuSans-48"/>
       <use x="63.623047" xlink:href="#DejaVuSans-46"/>
       <use x="95.410156" xlink:href="#DejaVuSans-52"/>
      </g>
     </g>
    </g>
    <g id="ytick_4">
     <g id="line2d_27">
      <path clip-path="url(#pea8bc87697)" d="M 57.6 123.406574 
L 338.688 123.406574 
" style="fill:none;stroke:#b0b0b0;stroke-linecap:square;stroke-width:0.8;"/>
     </g>
     <g id="line2d_28">
      <g>
       <use style="stroke:#000000;stroke-width:0.8;" x="57.6" xlink:href="#m5d8c07f502" y="123.406574"/>
      </g>
     </g>
     <g id="text_9">
      <!-- 0.6 -->
      <g transform="translate(25.155 129.485324)scale(0.16 -0.16)">
       <use xlink:href="#DejaVuSans-48"/>
       <use x="63.623047" xlink:href="#DejaVuSans-46"/>
       <use x="95.410156" xlink:href="#DejaVuSans-54"/>
      </g>
     </g>
    </g>
    <g id="ytick_5">
     <g id="line2d_29">
      <path clip-path="url(#pea8bc87697)" d="M 57.6 64.894099 
L 338.688 64.894099 
" style="fill:none;stroke:#b0b0b0;stroke-linecap:square;stroke-width:0.8;"/>
     </g>
     <g id="line2d_30">
      <g>
       <use style="stroke:#000000;stroke-width:0.8;" x="57.6" xlink:href="#m5d8c07f502" y="64.894099"/>
      </g>
     </g>
     <g id="text_10">
      <!-- 0.8 -->
      <g transform="translate(25.155 70.972849)scale(0.16 -0.16)">
       <defs>
        <path d="M 31.78125 34.625 
Q 24.75 34.625 20.71875 30.859375 
Q 16.703125 27.09375 16.703125 20.515625 
Q 16.703125 13.921875 20.71875 10.15625 
Q 24.75 6.390625 31.78125 6.390625 
Q 38.8125 6.390625 42.859375 10.171875 
Q 46.921875 13.96875 46.921875 20.515625 
Q 46.921875 27.09375 42.890625 30.859375 
Q 38.875 34.625 31.78125 34.625 
z
M 21.921875 38.8125 
Q 15.578125 40.375 12.03125 44.71875 
Q 8.5 49.078125 8.5 55.328125 
Q 8.5 64.0625 14.71875 69.140625 
Q 20.953125 74.21875 31.78125 74.21875 
Q 42.671875 74.21875 48.875 69.140625 
Q 55.078125 64.0625 55.078125 55.328125 
Q 55.078125 49.078125 51.53125 44.71875 
Q 48 40.375 41.703125 38.8125 
Q 48.828125 37.15625 52.796875 32.3125 
Q 56.78125 27.484375 56.78125 20.515625 
Q 56.78125 9.90625 50.3125 4.234375 
Q 43.84375 -1.421875 31.78125 -1.421875 
Q 19.734375 -1.421875 13.25 4.234375 
Q 6.78125 9.90625 6.78125 20.515625 
Q 6.78125 27.484375 10.78125 32.3125 
Q 14.796875 37.15625 21.921875 38.8125 
z
M 18.3125 54.390625 
Q 18.3125 48.734375 21.84375 45.5625 
Q 25.390625 42.390625 31.78125 42.390625 
Q 38.140625 42.390625 41.71875 45.5625 
Q 45.3125 48.734375 45.3125 54.390625 
Q 45.3125 60.0625 41.71875 63.234375 
Q 38.140625 66.40625 31.78125 66.40625 
Q 25.390625 66.40625 21.84375 63.234375 
Q 18.3125 60.0625 18.3125 54.390625 
z
" id="DejaVuSans-56"/>
       </defs>
       <use xlink:href="#DejaVuSans-48"/>
       <use x="63.623047" xlink:href="#DejaVuSans-46"/>
       <use x="95.410156" xlink:href="#DejaVuSans-56"/>
      </g>
     </g>
    </g>
    <g id="ytick_6">
     <g id="line2d_31">
      <path clip-path="url(#pea8bc87697)" d="M 57.6 6.381624 
L 338.688 6.381624 
" style="fill:none;stroke:#b0b0b0;stroke-linecap:square;stroke-width:0.8;"/>
     </g>
     <g id="line2d_32">
      <g>
       <use style="stroke:#000000;stroke-width:0.8;" x="57.6" xlink:href="#m5d8c07f502" y="6.381624"/>
      </g>
     </g>
     <g id="text_11">
      <!-- 1.0 -->
      <g transform="translate(25.155 12.460374)scale(0.16 -0.16)">
       <use xlink:href="#DejaVuSans-49"/>
       <use x="63.623047" xlink:href="#DejaVuSans-46"/>
       <use x="95.410156" xlink:href="#DejaVuSans-48"/>
      </g>
     </g>
    </g>
    <g id="text_12">
     <!-- Fraction of function,target pairs -->
     <g transform="translate(17.619531 285.585)rotate(-90)scale(0.17 -0.17)">
      <defs>
       <path d="M 9.8125 72.90625 
L 51.703125 72.90625 
L 51.703125 64.59375 
L 19.671875 64.59375 
L 19.671875 43.109375 
L 48.578125 43.109375 
L 48.578125 34.8125 
L 19.671875 34.8125 
L 19.671875 0 
L 9.8125 0 
z
" id="DejaVuSans-70"/>
       <path d="M 41.109375 46.296875 
Q 39.59375 47.171875 37.8125 47.578125 
Q 36.03125 48 33.890625 48 
Q 26.265625 48 22.1875 43.046875 
Q 18.109375 38.09375 18.109375 28.8125 
L 18.109375 0 
L 9.078125 0 
L 9.078125 54.6875 
L 18.109375 54.6875 
L 18.109375 46.1875 
Q 20.953125 51.171875 25.484375 53.578125 
Q 30.03125 56 36.53125 56 
Q 37.453125 56 38.578125 55.875 
Q 39.703125 55.765625 41.0625 55.515625 
z
" id="DejaVuSans-114"/>
       <path d="M 48.78125 52.59375 
L 48.78125 44.1875 
Q 44.96875 46.296875 41.140625 47.34375 
Q 37.3125 48.390625 33.40625 48.390625 
Q 24.65625 48.390625 19.8125 42.84375 
Q 14.984375 37.3125 14.984375 27.296875 
Q 14.984375 17.28125 19.8125 11.734375 
Q 24.65625 6.203125 33.40625 6.203125 
Q 37.3125 6.203125 41.140625 7.25 
Q 44.96875 8.296875 48.78125 10.40625 
L 48.78125 2.09375 
Q 45.015625 0.34375 40.984375 -0.53125 
Q 36.96875 -1.421875 32.421875 -1.421875 
Q 20.0625 -1.421875 12.78125 6.34375 
Q 5.515625 14.109375 5.515625 27.296875 
Q 5.515625 40.671875 12.859375 48.328125 
Q 20.21875 56 33.015625 56 
Q 37.15625 56 41.109375 55.140625 
Q 45.0625 54.296875 48.78125 52.59375 
z
" id="DejaVuSans-99"/>
       <path d="M 18.3125 70.21875 
L 18.3125 54.6875 
L 36.8125 54.6875 
L 36.8125 47.703125 
L 18.3125 47.703125 
L 18.3125 18.015625 
Q 18.3125 11.328125 20.140625 9.421875 
Q 21.96875 7.515625 27.59375 7.515625 
L 36.8125 7.515625 
L 36.8125 0 
L 27.59375 0 
Q 17.1875 0 13.234375 3.875 
Q 9.28125 7.765625 9.28125 18.015625 
L 9.28125 47.703125 
L 2.6875 47.703125 
L 2.6875 54.6875 
L 9.28125 54.6875 
L 9.28125 70.21875 
z
" id="DejaVuSans-116"/>
       <path d="M 8.5 21.578125 
L 8.5 54.6875 
L 17.484375 54.6875 
L 17.484375 21.921875 
Q 17.484375 14.15625 20.5 10.265625 
Q 23.53125 6.390625 29.59375 6.390625 
Q 36.859375 6.390625 41.078125 11.03125 
Q 45.3125 15.671875 45.3125 23.6875 
L 45.3125 54.6875 
L 54.296875 54.6875 
L 54.296875 0 
L 45.3125 0 
L 45.3125 8.40625 
Q 42.046875 3.421875 37.71875 1 
Q 33.40625 -1.421875 27.6875 -1.421875 
Q 18.265625 -1.421875 13.375 4.4375 
Q 8.5 10.296875 8.5 21.578125 
z
M 31.109375 56 
z
" id="DejaVuSans-117"/>
       <path d="M 11.71875 12.40625 
L 22.015625 12.40625 
L 22.015625 4 
L 14.015625 -11.625 
L 7.71875 -11.625 
L 11.71875 4 
z
" id="DejaVuSans-44"/>
       <path d="M 18.109375 8.203125 
L 18.109375 -20.796875 
L 9.078125 -20.796875 
L 9.078125 54.6875 
L 18.109375 54.6875 
L 18.109375 46.390625 
Q 20.953125 51.265625 25.265625 53.625 
Q 29.59375 56 35.59375 56 
Q 45.5625 56 51.78125 48.09375 
Q 58.015625 40.1875 58.015625 27.296875 
Q 58.015625 14.40625 51.78125 6.484375 
Q 45.5625 -1.421875 35.59375 -1.421875 
Q 29.59375 -1.421875 25.265625 0.953125 
Q 20.953125 3.328125 18.109375 8.203125 
z
M 48.6875 27.296875 
Q 48.6875 37.203125 44.609375 42.84375 
Q 40.53125 48.484375 33.40625 48.484375 
Q 26.265625 48.484375 22.1875 42.84375 
Q 18.109375 37.203125 18.109375 27.296875 
Q 18.109375 17.390625 22.1875 11.75 
Q 26.265625 6.109375 33.40625 6.109375 
Q 40.53125 6.109375 44.609375 11.75 
Q 48.6875 17.390625 48.6875 27.296875 
z
" id="DejaVuSans-112"/>
      </defs>
      <use xlink:href="#DejaVuSans-70"/>
      <use x="50.269531" xlink:href="#DejaVuSans-114"/>
      <use x="91.382812" xlink:href="#DejaVuSans-97"/>
      <use x="152.662109" xlink:href="#DejaVuSans-99"/>
      <use x="207.642578" xlink:href="#DejaVuSans-116"/>
      <use x="246.851562" xlink:href="#DejaVuSans-105"/>
      <use x="274.634766" xlink:href="#DejaVuSans-111"/>
      <use x="335.816406" xlink:href="#DejaVuSans-110"/>
      <use x="399.195312" xlink:href="#DejaVuSans-32"/>
      <use x="430.982422" xlink:href="#DejaVuSans-111"/>
      <use x="492.164062" xlink:href="#DejaVuSans-102"/>
      <use x="527.369141" xlink:href="#DejaVuSans-32"/>
      <use x="559.15625" xlink:href="#DejaVuSans-102"/>
      <use x="594.361328" xlink:href="#DejaVuSans-117"/>
      <use x="657.740234" xlink:href="#DejaVuSans-110"/>
      <use x="721.119141" xlink:href="#DejaVuSans-99"/>
      <use x="776.099609" xlink:href="#DejaVuSans-116"/>
      <use x="815.308594" xlink:href="#DejaVuSans-105"/>
      <use x="843.091797" xlink:href="#DejaVuSans-111"/>
      <use x="904.273438" xlink:href="#DejaVuSans-110"/>
      <use x="967.652344" xlink:href="#DejaVuSans-44"/>
      <use x="999.439453" xlink:href="#DejaVuSans-116"/>
      <use x="1038.648438" xlink:href="#DejaVuSans-97"/>
      <use x="1099.927734" xlink:href="#DejaVuSans-114"/>
      <use x="1139.291016" xlink:href="#DejaVuSans-103"/>
      <use x="1202.767578" xlink:href="#DejaVuSans-101"/>
      <use x="1264.291016" xlink:href="#DejaVuSans-116"/>
      <use x="1303.5" xlink:href="#DejaVuSans-32"/>
      <use x="1335.287109" xlink:href="#DejaVuSans-112"/>
      <use x="1398.763672" xlink:href="#DejaVuSans-97"/>
      <use x="1460.042969" xlink:href="#DejaVuSans-105"/>
      <use x="1487.826172" xlink:href="#DejaVuSans-114"/>
      <use x="1528.939453" xlink:href="#DejaVuSans-115"/>
     </g>
    </g>
   </g>
   <g id="line2d_33">
    <defs>
     <path d="M 0 1.5 
C 0.397805 1.5 0.77937 1.341951 1.06066 1.06066 
C 1.341951 0.77937 1.5 0.397805 1.5 0 
C 1.5 -0.397805 1.341951 -0.77937 1.06066 -1.06066 
C 0.77937 -1.341951 0.397805 -1.5 0 -1.5 
C -0.397805 -1.5 -0.77937 -1.341951 -1.06066 -1.06066 
C -1.341951 -0.77937 -1.5 -0.397805 -1.5 0 
C -1.5 0.397805 -1.341951 0.77937 -1.06066 1.06066 
C -0.77937 1.341951 -0.397805 1.5 0 1.5 
z
" id="m027782ba89" style="stroke:#f5deb3;"/>
    </defs>
    <g>
     <use style="fill:#f5deb3;stroke:#f5deb3;" x="297.838114" xlink:href="#m027782ba89" y="146.357588"/>
     <use style="fill:#f5deb3;stroke:#f5deb3;" x="297.838114" xlink:href="#m027782ba89" y="146.357588"/>
    </g>
   </g>
   <g id="line2d_34">
    <defs>
     <path d="M 0 1.5 
C 0.397805 1.5 0.77937 1.341951 1.06066 1.06066 
C 1.341951 0.77937 1.5 0.397805 1.5 0 
C 1.5 -0.397805 1.341951 -0.77937 1.06066 -1.06066 
C 0.77937 -1.341951 0.397805 -1.5 0 -1.5 
C -0.397805 -1.5 -0.77937 -1.341951 -1.06066 -1.06066 
C -1.341951 -0.77937 -1.5 -0.397805 -1.5 0 
C -1.5 0.397805 -1.341951 0.77937 -1.06066 1.06066 
C -0.77937 1.341951 -0.397805 1.5 0 1.5 
z
" id="m021ecce6d7" style="stroke:#ff00ff;"/>
    </defs>
    <g>
     <use style="fill:#ff00ff;stroke:#ff00ff;" x="257.016074" xlink:href="#m021ecce6d7" y="258.086151"/>
     <use style="fill:#ff00ff;stroke:#ff00ff;" x="257.016074" xlink:href="#m021ecce6d7" y="258.086151"/>
    </g>
   </g>
   <g id="line2d_35">
    <path d="M -1 290.873314 
L 97.088878 290.873314 
L 97.088878 290.747209 
L 101.506816 290.747209 
L 101.506816 290.621105 
L 104.680512 290.621105 
L 104.680512 290.495 
L 105.594071 290.495 
L 105.594071 290.368896 
L 108.483824 290.368896 
L 108.483824 290.242791 
L 109.624052 290.242791 
L 109.624052 290.116687 
L 110.358901 290.116687 
L 110.358901 289.990582 
L 111.286193 289.990582 
L 111.286193 289.864478 
L 111.974805 289.864478 
L 111.974805 289.738374 
L 112.242812 289.738374 
L 112.33754 289.486165 
L 113.185706 289.486165 
L 113.185706 289.36006 
L 113.577216 289.36006 
L 113.577216 289.233956 
L 113.804498 289.233956 
L 113.891132 288.981747 
L 113.96013 288.981747 
L 114.063118 288.477329 
L 114.435622 288.477329 
L 114.435622 288.351224 
L 114.931089 288.351224 
L 114.931089 288.22512 
L 115.4287 288.22512 
L 115.507647 287.972911 
L 115.680082 287.972911 
L 115.680082 287.846806 
L 115.835374 287.846806 
L 115.943263 287.342389 
L 116.081002 287.342389 
L 116.111464 287.09018 
L 116.98695 287.09018 
L 117.087964 286.711866 
L 117.116718 286.711866 
L 117.116718 286.585762 
L 117.245527 286.585762 
L 117.245527 286.459657 
L 117.612386 286.459657 
L 117.612386 286.333553 
L 117.723731 286.333553 
L 117.723731 286.207448 
L 118.350522 286.207448 
L 118.403976 285.955239 
L 118.536898 285.955239 
L 118.576578 285.70303 
L 118.91674 285.70303 
L 118.91674 285.576926 
L 119.250393 285.576926 
L 119.301163 285.324717 
L 119.65247 285.324717 
L 119.751557 284.694195 
L 120.166507 284.694195 
L 120.166507 284.56809 
L 120.394161 284.56809 
L 120.394161 284.441986 
L 120.852343 284.441986 
L 120.852343 284.315881 
L 121.02541 284.315881 
L 121.02541 284.189777 
L 121.162638 284.189777 
L 121.242192 283.937568 
L 122.072527 283.937568 
L 122.104932 283.685359 
L 122.520808 283.685359 
L 122.520808 283.559254 
L 122.66771 283.559254 
L 122.688595 283.307045 
L 123.202762 283.307045 
L 123.202762 283.180941 
L 123.42428 283.180941 
L 123.494177 282.676523 
L 123.81997 282.676523 
L 123.81997 282.550419 
L 124.053145 282.550419 
L 124.130182 282.172105 
L 124.613453 282.172105 
L 124.613453 282.046001 
L 124.937527 282.046001 
L 125.038147 281.667687 
L 125.752972 281.667687 
L 125.840299 281.415478 
L 125.927192 281.415478 
L 125.944518 281.163269 
L 126.116845 281.163269 
L 126.151107 280.91106 
L 126.756581 280.91106 
L 126.847261 280.532747 
L 127.027217 280.532747 
L 127.027217 280.406643 
L 127.814803 280.406643 
L 127.814803 280.280538 
L 128.084946 280.280538 
L 128.084946 280.154434 
L 128.426234 280.154434 
L 128.426234 280.028329 
L 128.568352 280.028329 
L 128.568352 279.902225 
L 130.418423 279.902225 
L 130.52529 279.650016 
L 131.037089 279.650016 
L 131.127382 279.397807 
L 131.950349 279.397807 
L 131.950349 279.271702 
L 134.024843 279.271702 
L 134.024843 279.145598 
L 135.061249 279.145598 
L 135.061249 279.019493 
L 135.507265 279.019493 
L 135.507265 278.893389 
L 136.470953 278.893389 
L 136.470953 278.767284 
L 137.810292 278.767284 
L 137.810292 278.64118 
L 139.489566 278.64118 
L 139.533318 278.388971 
L 140.36715 278.388971 
L 140.36715 278.262867 
L 141.0103 278.262867 
L 141.0103 278.136762 
L 141.920506 278.136762 
L 141.920506 278.010658 
L 143.147695 278.010658 
L 143.147695 277.884553 
L 143.285988 277.884553 
L 143.285988 277.758449 
L 143.67562 277.758449 
L 143.67562 277.632344 
L 146.350914 277.632344 
L 146.350914 277.50624 
L 146.791364 277.50624 
L 146.791364 277.380135 
L 149.790515 277.380135 
L 149.790515 277.254031 
L 151.025293 277.254031 
L 151.025293 277.127926 
L 151.635205 277.127926 
L 151.635205 277.001822 
L 151.822737 277.001822 
L 151.822737 276.875717 
L 153.823913 276.875717 
L 153.823913 276.749613 
L 154.817408 276.749613 
L 154.817408 276.623508 
L 155.053921 276.623508 
L 155.053921 276.497404 
L 155.303359 276.497404 
L 155.303359 276.371299 
L 155.755775 276.371299 
L 155.755775 276.245195 
L 156.832832 276.245195 
L 156.832832 276.11909 
L 157.247708 276.11909 
L 157.247708 275.992986 
L 157.415209 275.992986 
L 157.415209 275.866882 
L 158.441589 275.866882 
L 158.441589 275.740777 
L 158.582073 275.740777 
L 158.582073 275.614673 
L 158.717468 275.614673 
L 158.717468 275.488568 
L 160.118135 275.488568 
L 160.118135 275.362464 
L 162.324991 275.362464 
L 162.402232 275.110255 
L 162.438588 275.110255 
L 162.438588 274.98415 
L 163.362243 274.98415 
L 163.391598 274.605837 
L 163.489428 274.605837 
L 163.489428 274.479732 
L 163.678481 274.479732 
L 163.678481 274.353628 
L 164.802494 274.353628 
L 164.802494 274.227523 
L 165.080107 274.227523 
L 165.080107 274.101419 
L 165.396698 274.101419 
L 165.492896 273.84921 
L 168.352598 273.84921 
L 168.370852 273.597001 
L 171.465188 273.597001 
L 171.510962 273.344792 
L 171.67086 273.344792 
L 171.67086 273.218688 
L 173.375844 273.218688 
L 173.375844 273.092583 
L 173.907932 273.092583 
L 173.918996 272.840374 
L 174.43608 272.840374 
L 174.49022 272.588165 
L 175.86617 272.588165 
L 175.86617 272.462061 
L 176.128796 272.462061 
L 176.128796 272.335956 
L 176.750001 272.335956 
L 176.750001 272.209852 
L 178.632912 272.209852 
L 178.632912 271.957643 
L 179.450767 271.957643 
L 179.450767 271.831538 
L 180.056276 271.831538 
L 180.056276 271.705434 
L 181.112359 271.705434 
L 181.112359 271.579329 
L 182.091171 271.579329 
L 182.091171 271.327121 
L 182.33111 271.327121 
L 182.33111 271.201016 
L 182.468153 271.201016 
L 182.468153 271.074912 
L 183.775513 271.074912 
L 183.775513 270.948807 
L 184.115353 270.948807 
L 184.124904 270.696598 
L 185.483504 270.696598 
L 185.483504 270.444389 
L 186.118066 270.444389 
L 186.118066 270.318285 
L 186.927917 270.318285 
L 186.927917 270.19218 
L 187.772437 270.19218 
L 187.841769 269.939971 
L 188.325338 269.939971 
L 188.412516 269.687762 
L 188.543786 269.687762 
L 188.543786 269.561658 
L 189.077299 269.561658 
L 189.077299 269.435553 
L 190.13639 269.435553 
L 190.13639 269.309449 
L 190.854597 269.309449 
L 190.854597 269.05724 
L 191.003063 269.05724 
L 191.003063 268.931136 
L 191.375297 268.931136 
L 191.375297 268.805031 
L 191.858971 268.805031 
L 191.858971 268.678927 
L 192.050466 268.678927 
L 192.050466 268.552822 
L 192.362849 268.552822 
L 192.362849 268.426718 
L 193.172134 268.426718 
L 193.172134 268.300613 
L 193.428762 268.300613 
L 193.428762 268.174509 
L 193.895639 268.174509 
L 193.89599 267.9223 
L 194.059857 267.9223 
L 194.059857 267.796195 
L 195.341639 267.796195 
L 195.341639 267.543986 
L 195.882504 267.543986 
L 195.93125 267.291777 
L 197.235464 267.291777 
L 197.235464 267.165673 
L 197.753754 267.165673 
L 197.753754 267.039568 
L 198.331169 267.039568 
L 198.331169 266.913464 
L 198.859801 266.913464 
L 198.859801 266.78736 
L 199.240678 266.78736 
L 199.240678 266.661255 
L 199.437901 266.661255 
L 199.533901 266.409046 
L 200.197991 266.409046 
L 200.197991 266.282942 
L 201.508203 266.282942 
L 201.508203 266.156837 
L 202.041982 266.156837 
L 202.10021 265.778524 
L 203.079317 265.778524 
L 203.079317 265.652419 
L 203.371072 265.652419 
L 203.371072 265.526315 
L 203.516558 265.526315 
L 203.516558 265.40021 
L 203.684437 265.40021 
L 203.684437 265.274106 
L 203.91431 265.274106 
L 203.91431 265.148001 
L 204.188731 265.148001 
L 204.188731 265.021897 
L 205.631191 265.021897 
L 205.695063 264.643583 
L 207.212956 264.643583 
L 207.25904 264.391375 
L 207.379284 264.391375 
L 207.379284 264.26527 
L 207.495721 264.26527 
L 207.495721 264.139166 
L 208.447348 264.139166 
L 208.447348 264.013061 
L 209.606544 264.013061 
L 209.606544 263.886957 
L 211.995829 263.886957 
L 211.995829 263.760852 
L 212.354656 263.760852 
L 212.354656 263.634748 
L 214.514782 263.634748 
L 214.514782 263.508643 
L 214.752736 263.508643 
L 214.752736 263.382539 
L 215.105956 263.382539 
L 215.105956 263.256434 
L 217.659172 263.256434 
L 217.659172 263.13033 
L 219.354099 263.13033 
L 219.354099 263.004225 
L 221.229927 263.004225 
L 221.311117 262.752016 
L 221.970676 262.752016 
L 221.970676 262.625912 
L 224.386219 262.625912 
L 224.386219 262.499807 
L 226.454008 262.499807 
L 226.454008 262.247598 
L 226.763583 262.247598 
L 226.763583 262.121494 
L 227.011119 262.121494 
L 227.011119 261.869285 
L 227.240899 261.869285 
L 227.240899 261.617076 
L 230.907975 261.617076 
L 230.907975 261.490972 
L 232.552066 261.490972 
L 232.558947 261.238763 
L 237.390283 261.238763 
L 237.390283 261.112658 
L 237.995354 261.112658 
L 237.995354 260.860449 
L 238.223628 260.860449 
L 238.223628 260.734345 
L 240.454269 260.734345 
L 240.454269 260.60824 
L 241.811538 260.60824 
L 241.843207 260.356031 
L 244.605545 260.356031 
L 244.605545 260.229927 
L 245.510014 260.229927 
L 245.510014 260.103822 
L 246.156189 260.103822 
L 246.156189 259.977718 
L 246.437341 259.977718 
L 246.437341 259.851614 
L 247.127368 259.851614 
L 247.127368 259.725509 
L 251.094204 259.725509 
L 251.094204 259.599405 
L 252.552641 259.599405 
L 252.552641 259.347196 
L 253.041282 259.347196 
L 253.041282 259.094987 
L 253.887563 259.094987 
L 253.887563 258.968882 
L 254.330771 258.968882 
L 254.330771 258.716673 
L 255.972125 258.716673 
L 255.972125 258.590569 
L 256.499599 258.590569 
L 256.499599 258.33836 
L 256.964619 258.33836 
L 257.016074 258.086151 
L 338.688 258.086151 
L 338.688 258.086151 
" style="fill:none;stroke:#ff00ff;stroke-linecap:square;stroke-width:1.5;"/>
   </g>
   <g id="line2d_36">
    <defs>
     <path d="M 0 8.485281 
L 5.091169 0 
L 0 -8.485281 
L -5.091169 0 
z
" id="ma69623904d" style="stroke:#ff00ff;stroke-linejoin:miter;stroke-width:1.5;"/>
    </defs>
    <g>
     <use style="fill-opacity:0;stroke:#ff00ff;stroke-linejoin:miter;stroke-width:1.5;" x="146.791364" xlink:href="#ma69623904d" y="277.50624"/>
     <use style="fill-opacity:0;stroke:#ff00ff;stroke-linejoin:miter;stroke-width:1.5;" x="215.105956" xlink:href="#ma69623904d" y="263.382539"/>
     <use style="fill-opacity:0;stroke:#ff00ff;stroke-linejoin:miter;stroke-width:1.5;" x="257.016074" xlink:href="#ma69623904d" y="258.086151"/>
     <use style="fill-opacity:0;stroke:#ff00ff;stroke-linejoin:miter;stroke-width:1.5;" x="257.016074" xlink:href="#ma69623904d" y="258.086151"/>
     <use style="fill-opacity:0;stroke:#ff00ff;stroke-linejoin:miter;stroke-width:1.5;" x="338.688" xlink:href="#ma69623904d" y="258.086151"/>
    </g>
   </g>
   <g id="line2d_37">
    <path style="fill:none;stroke:#ff00ff;stroke-linecap:square;stroke-width:1.5;"/>
    <g/>
   </g>
   <g id="line2d_38">
    <path clip-path="url(#pea8bc87697)" d="M 258.377718 258.086151 
" style="fill:none;stroke:#ff00ff;stroke-linecap:square;stroke-width:1.5;"/>
    <defs>
     <path d="M -12 12 
L 12 -12 
M -12 -12 
L 12 12 
" id="mbc344ad7cc" style="stroke:#ff00ff;"/>
    </defs>
    <g clip-path="url(#pea8bc87697)">
     <use style="fill:#ff00ff;stroke:#ff00ff;" x="258.377718" xlink:href="#mbc344ad7cc" y="258.086151"/>
    </g>
   </g>
   <g id="line2d_39">
    <defs>
     <path d="M 0 1.5 
C 0.397805 1.5 0.77937 1.341951 1.06066 1.06066 
C 1.341951 0.77937 1.5 0.397805 1.5 0 
C 1.5 -0.397805 1.341951 -0.77937 1.06066 -1.06066 
C 0.77937 -1.341951 0.397805 -1.5 0 -1.5 
C -0.397805 -1.5 -0.77937 -1.341951 -1.06066 -1.06066 
C -1.341951 -0.77937 -1.5 -0.397805 -1.5 0 
C -1.5 0.397805 -1.341951 0.77937 -1.06066 1.06066 
C -0.77937 1.341951 -0.397805 1.5 0 1.5 
z
" id="m8cd6183ae5" style="stroke:#ff7500;"/>
    </defs>
    <g>
     <use style="fill:#ff7500;stroke:#ff7500;" x="257.013331" xlink:href="#m8cd6183ae5" y="236.774495"/>
     <use style="fill:#ff7500;stroke:#ff7500;" x="257.013331" xlink:href="#m8cd6183ae5" y="236.774495"/>
    </g>
   </g>
   <g id="line2d_40">
    <path d="M 148.373289 298.944 
L 148.373289 298.817896 
L 148.4949 298.817896 
L 148.4949 298.691791 
L 149.138713 298.691791 
L 149.138713 298.565687 
L 149.6443 298.565687 
L 149.682079 298.313478 
L 150.714239 298.313478 
L 150.714239 298.187373 
L 151.519713 298.187373 
L 151.519713 298.061269 
L 151.678813 298.061269 
L 151.77555 297.80906 
L 151.834513 297.80906 
L 151.834513 297.682955 
L 152.103205 297.682955 
L 152.103205 297.556851 
L 152.525059 297.556851 
L 152.525059 297.430746 
L 152.787111 297.430746 
L 152.787111 297.304642 
L 152.98661 297.304642 
L 152.98661 297.178537 
L 153.472021 297.178537 
L 153.472021 297.052433 
L 153.612568 297.052433 
L 153.612568 296.926328 
L 153.844908 296.926328 
L 153.844908 296.800224 
L 154.37529 296.800224 
L 154.37529 296.674119 
L 154.500352 296.674119 
L 154.582672 296.295806 
L 154.779333 296.295806 
L 154.83724 296.043597 
L 155.084889 296.043597 
L 155.127178 295.791388 
L 155.240526 295.791388 
L 155.240526 295.665284 
L 155.453878 295.665284 
L 155.542935 295.413075 
L 155.738529 295.413075 
L 155.738529 295.28697 
L 156.416899 295.28697 
L 156.459092 294.908657 
L 156.699741 294.908657 
L 156.739775 294.656448 
L 156.846085 294.656448 
L 156.846085 294.530343 
L 157.023299 294.530343 
L 157.098907 294.278135 
L 157.241953 294.278135 
L 157.2549 294.025926 
L 157.554281 294.025926 
L 157.554281 293.899821 
L 157.732873 293.899821 
L 157.833316 293.521508 
L 157.85 293.521508 
L 157.958061 293.143194 
L 158.057218 293.143194 
L 158.068201 292.890985 
L 158.38912 292.890985 
L 158.38912 292.764881 
L 158.611365 292.764881 
L 158.712178 292.512672 
L 158.898992 292.512672 
L 158.956474 292.008254 
L 159.514794 292.008254 
L 159.596707 291.756045 
L 159.668223 291.756045 
L 159.694498 291.503836 
L 159.864942 291.503836 
L 159.96863 291.251627 
L 160.026378 291.251627 
L 160.026378 291.125523 
L 160.31711 291.125523 
L 160.414554 290.747209 
L 160.519804 290.747209 
L 160.567436 290.495 
L 160.908932 290.495 
L 161.001973 290.242791 
L 161.200345 290.242791 
L 161.200345 290.116687 
L 161.341971 290.116687 
L 161.408956 289.864478 
L 161.505009 289.864478 
L 161.505009 289.738374 
L 161.61734 289.738374 
L 161.61734 289.612269 
L 161.793361 289.612269 
L 161.857533 289.36006 
L 162.220386 289.36006 
L 162.220386 289.233956 
L 162.425765 289.233956 
L 162.449267 288.981747 
L 163.01228 288.981747 
L 163.117392 288.729538 
L 163.228001 288.729538 
L 163.228001 288.603433 
L 163.343998 288.603433 
L 163.383505 288.22512 
L 163.89501 288.22512 
L 163.89501 288.099015 
L 164.062232 288.099015 
L 164.079741 287.846806 
L 164.23172 287.846806 
L 164.265421 287.468493 
L 164.349869 287.468493 
L 164.445338 286.711866 
L 164.603615 286.711866 
L 164.686444 286.081344 
L 165.228201 286.081344 
L 165.228201 285.955239 
L 165.440817 285.955239 
L 165.528722 285.576926 
L 165.613515 285.576926 
L 165.613515 285.450821 
L 165.74745 285.450821 
L 165.754517 285.198612 
L 165.939889 285.198612 
L 166.034883 284.441986 
L 166.199243 284.441986 
L 166.238803 284.189777 
L 166.331333 284.189777 
L 166.331333 284.063672 
L 166.625348 284.063672 
L 166.625348 283.937568 
L 166.860691 283.937568 
L 166.945864 283.559254 
L 167.116605 283.559254 
L 167.201353 283.307045 
L 167.247627 283.307045 
L 167.35029 283.054836 
L 167.441932 283.054836 
L 167.441932 282.928732 
L 167.603142 282.928732 
L 167.704529 282.424314 
L 167.728995 282.424314 
L 167.81318 281.919896 
L 167.88524 281.919896 
L 167.88524 281.793792 
L 168.252624 281.793792 
L 168.252624 281.667687 
L 168.505642 281.667687 
L 168.565132 281.289374 
L 168.684254 281.289374 
L 168.72825 281.037165 
L 168.808499 281.037165 
L 168.808499 280.91106 
L 169.154221 280.91106 
L 169.154221 280.784956 
L 169.350795 280.784956 
L 169.350795 280.658851 
L 169.688147 280.658851 
L 169.688147 280.532747 
L 169.811766 280.532747 
L 169.882312 280.154434 
L 169.980323 280.154434 
L 170.019789 279.902225 
L 170.208264 279.902225 
L 170.318747 279.523911 
L 170.327583 279.523911 
L 170.388631 278.893389 
L 170.536293 278.893389 
L 170.625363 278.388971 
L 170.754475 278.388971 
L 170.830561 278.010658 
L 170.935215 278.010658 
L 170.935215 277.758449 
L 171.545847 277.758449 
L 171.545847 277.632344 
L 172.017191 277.632344 
L 172.017191 277.50624 
L 172.184146 277.50624 
L 172.233557 277.254031 
L 172.312567 277.254031 
L 172.364034 277.001822 
L 172.685129 277.001822 
L 172.778663 276.497404 
L 172.848191 276.497404 
L 172.848191 276.371299 
L 173.195772 276.371299 
L 173.289481 276.11909 
L 173.317553 276.11909 
L 173.317553 275.992986 
L 173.690766 275.992986 
L 173.743915 275.614673 
L 173.839732 275.614673 
L 173.935579 275.362464 
L 174.060549 275.362464 
L 174.13554 274.858046 
L 174.198785 274.858046 
L 174.266681 274.353628 
L 174.422116 274.353628 
L 174.422116 274.227523 
L 174.534586 274.227523 
L 174.54526 273.975314 
L 174.670719 273.975314 
L 174.670719 273.84921 
L 174.784234 273.84921 
L 174.881322 273.470897 
L 175.05991 273.470897 
L 175.15857 273.092583 
L 175.296581 273.092583 
L 175.389849 272.71427 
L 175.476552 272.71427 
L 175.476552 272.588165 
L 175.598523 272.588165 
L 175.598523 272.462061 
L 175.733109 272.462061 
L 175.811182 272.083747 
L 175.878531 272.083747 
L 175.942173 271.705434 
L 176.111248 271.705434 
L 176.181336 271.201016 
L 176.346194 271.201016 
L 176.368314 270.948807 
L 176.479928 270.948807 
L 176.565192 270.570494 
L 176.757992 270.570494 
L 176.851262 269.939971 
L 176.974696 269.939971 
L 176.974696 269.813867 
L 177.330293 269.813867 
L 177.436839 269.561658 
L 177.473413 269.561658 
L 177.551272 269.309449 
L 177.71263 269.309449 
L 177.71263 269.05724 
L 177.960019 269.05724 
L 177.960019 268.931136 
L 178.115917 268.931136 
L 178.220377 268.678927 
L 178.235063 268.678927 
L 178.311322 268.300613 
L 178.386392 268.300613 
L 178.409492 267.9223 
L 178.760744 267.9223 
L 178.869752 267.417882 
L 178.916321 267.417882 
L 178.972702 267.165673 
L 179.123125 267.165673 
L 179.123125 267.039568 
L 179.288528 267.039568 
L 179.344531 266.78736 
L 179.49782 266.78736 
L 179.49782 266.661255 
L 179.671259 266.661255 
L 179.701851 266.156837 
L 179.884285 266.156837 
L 179.909016 265.904628 
L 180.19613 265.904628 
L 180.281581 265.652419 
L 180.331809 265.652419 
L 180.350177 265.40021 
L 180.445913 265.40021 
L 180.505908 264.643583 
L 180.66552 264.643583 
L 180.732251 264.391375 
L 180.895746 264.391375 
L 180.895746 264.26527 
L 181.064699 264.26527 
L 181.064699 264.139166 
L 181.200004 264.139166 
L 181.200004 264.013061 
L 181.389847 264.013061 
L 181.442376 263.760852 
L 181.707628 263.760852 
L 181.774021 263.508643 
L 181.876292 263.508643 
L 181.876292 263.382539 
L 182.182654 263.382539 
L 182.182654 263.256434 
L 182.495906 263.256434 
L 182.505373 262.878121 
L 182.759383 262.878121 
L 182.853732 262.499807 
L 183.062533 262.499807 
L 183.062533 262.373703 
L 183.267246 262.373703 
L 183.317002 262.121494 
L 183.39362 262.121494 
L 183.407427 261.743181 
L 183.521955 261.743181 
L 183.550311 261.364867 
L 183.648404 261.364867 
L 183.738705 260.734345 
L 183.925709 260.734345 
L 183.925709 260.60824 
L 184.05948 260.60824 
L 184.05948 260.356031 
L 184.183025 260.356031 
L 184.193459 260.103822 
L 184.338289 260.103822 
L 184.395703 259.599405 
L 184.50575 259.599405 
L 184.50575 259.4733 
L 184.739548 259.4733 
L 184.739548 259.347196 
L 185.227466 259.347196 
L 185.312559 258.968882 
L 185.504577 258.968882 
L 185.504577 258.842778 
L 185.660689 258.842778 
L 185.660689 258.590569 
L 185.829948 258.590569 
L 185.903538 258.212255 
L 185.980142 258.212255 
L 186.051171 257.707837 
L 186.38879 257.707837 
L 186.38879 257.581733 
L 186.585165 257.581733 
L 186.62898 257.329524 
L 186.73459 257.329524 
L 186.73459 257.077315 
L 186.860114 257.077315 
L 186.860114 256.951211 
L 186.98082 256.951211 
L 186.98082 256.825106 
L 187.202463 256.825106 
L 187.202463 256.699002 
L 187.394021 256.699002 
L 187.394021 256.572897 
L 187.534928 256.572897 
L 187.605966 256.068479 
L 187.778183 256.068479 
L 187.884776 255.690166 
L 187.905619 255.690166 
L 187.960587 255.311853 
L 188.289228 255.311853 
L 188.341793 255.059644 
L 188.419259 255.059644 
L 188.461348 254.68133 
L 188.647715 254.68133 
L 188.647715 254.555226 
L 188.898067 254.555226 
L 188.958171 253.924703 
L 189.118293 253.924703 
L 189.118293 253.798599 
L 189.377076 253.798599 
L 189.478435 253.294181 
L 189.688586 253.294181 
L 189.688586 253.168076 
L 189.86878 253.168076 
L 189.881406 252.789763 
L 190.002328 252.789763 
L 190.109529 252.285345 
L 190.32262 252.285345 
L 190.360792 251.780927 
L 190.435385 251.780927 
L 190.460035 251.276509 
L 190.720057 251.276509 
L 190.720057 251.150405 
L 190.833643 251.150405 
L 190.833643 251.0243 
L 190.992471 251.0243 
L 191.03729 250.519883 
L 191.276646 250.519883 
L 191.375907 250.267674 
L 191.426644 250.267674 
L 191.449326 249.763256 
L 191.85205 249.763256 
L 191.904972 249.258838 
L 192.100645 249.258838 
L 192.19592 248.75442 
L 193.012439 248.75442 
L 193.012439 248.628315 
L 193.213705 248.628315 
L 193.213705 248.376107 
L 193.551906 248.376107 
L 193.551906 248.123898 
L 193.760021 248.123898 
L 193.760021 247.871689 
L 194.249282 247.871689 
L 194.249282 247.61948 
L 194.71076 247.61948 
L 194.71076 247.493375 
L 194.836041 247.493375 
L 194.924649 247.115062 
L 195.212286 247.115062 
L 195.212286 246.862853 
L 196.607445 246.862853 
L 196.607445 246.610644 
L 197.057215 246.610644 
L 197.084047 245.854017 
L 197.217009 245.854017 
L 197.217009 245.601808 
L 197.436766 245.601808 
L 197.436766 245.475704 
L 198.595137 245.475704 
L 198.595137 245.349599 
L 199.883774 245.349599 
L 199.883774 245.223495 
L 200.648741 245.223495 
L 200.648741 244.971286 
L 201.089414 244.971286 
L 201.089414 244.719077 
L 201.347745 244.719077 
L 201.347745 244.466868 
L 202.477624 244.466868 
L 202.477624 244.214659 
L 202.961527 244.214659 
L 202.961527 243.96245 
L 203.821668 243.96245 
L 203.821668 243.710241 
L 204.428063 243.710241 
L 204.428063 243.458032 
L 205.32984 243.458032 
L 205.32984 243.205823 
L 205.477409 243.205823 
L 205.477409 242.953614 
L 205.692738 242.953614 
L 205.692738 242.82751 
L 206.760348 242.82751 
L 206.824413 242.323092 
L 208.5167 242.323092 
L 208.5167 242.196987 
L 209.039381 242.196987 
L 209.039381 242.070883 
L 209.373272 242.070883 
L 209.373272 241.944778 
L 210.050283 241.944778 
L 210.050283 241.818674 
L 211.458683 241.818674 
L 211.458683 241.566465 
L 211.627172 241.566465 
L 211.627172 241.440361 
L 212.135204 241.440361 
L 212.135204 241.314256 
L 212.332731 241.314256 
L 212.35136 240.809838 
L 212.596681 240.809838 
L 212.596681 240.683734 
L 213.255536 240.683734 
L 213.255536 240.557629 
L 213.796424 240.557629 
L 213.857565 240.30542 
L 214.730593 240.30542 
L 214.831338 239.927107 
L 215.016014 239.927107 
L 215.016014 239.801002 
L 215.521269 239.801002 
L 215.629806 239.422689 
L 215.829478 239.422689 
L 215.829478 239.296584 
L 216.626043 239.296584 
L 216.626043 239.044376 
L 220.311306 239.044376 
L 220.311306 238.918271 
L 220.548122 238.918271 
L 220.548122 238.792167 
L 223.191194 238.792167 
L 223.191194 238.666062 
L 223.358687 238.666062 
L 223.358687 238.539958 
L 223.510009 238.539958 
L 223.510009 238.287749 
L 224.435716 238.287749 
L 224.435716 238.161644 
L 224.844352 238.161644 
L 224.844352 238.03554 
L 225.492055 238.03554 
L 225.492055 237.909435 
L 226.253315 237.909435 
L 226.253315 237.783331 
L 226.922477 237.783331 
L 226.922477 237.657226 
L 229.537996 237.657226 
L 229.537996 237.531122 
L 239.102346 237.531122 
L 239.102346 237.405017 
L 240.140714 237.405017 
L 240.140714 237.278913 
L 243.521667 237.278913 
L 243.521667 237.026704 
L 245.820197 237.026704 
L 245.820197 236.9006 
L 257.013331 236.9006 
L 257.013331 236.774495 
L 338.688 236.774495 
L 338.688 236.774495 
" style="fill:none;stroke:#ff7500;stroke-linecap:square;stroke-width:1.5;"/>
   </g>
   <g id="line2d_41">
    <defs>
     <path d="M 0 -6 
L -1.347084 -1.854102 
L -5.706339 -1.854102 
L -2.179628 0.708204 
L -3.526712 4.854102 
L -0 2.291796 
L 3.526712 4.854102 
L 2.179628 0.708204 
L 5.706339 -1.854102 
L 1.347084 -1.854102 
z
" id="m746be94039" style="stroke:#ff7500;stroke-linejoin:bevel;stroke-width:1.5;"/>
    </defs>
    <g>
     <use style="fill-opacity:0;stroke:#ff7500;stroke-linejoin:bevel;stroke-width:1.5;" x="198.595137" xlink:href="#m746be94039" y="245.349599"/>
     <use style="fill-opacity:0;stroke:#ff7500;stroke-linejoin:bevel;stroke-width:1.5;" x="240.140714" xlink:href="#m746be94039" y="237.278913"/>
     <use style="fill-opacity:0;stroke:#ff7500;stroke-linejoin:bevel;stroke-width:1.5;" x="257.013331" xlink:href="#m746be94039" y="236.774495"/>
     <use style="fill-opacity:0;stroke:#ff7500;stroke-linejoin:bevel;stroke-width:1.5;" x="257.013331" xlink:href="#m746be94039" y="236.774495"/>
     <use style="fill-opacity:0;stroke:#ff7500;stroke-linejoin:bevel;stroke-width:1.5;" x="338.688" xlink:href="#m746be94039" y="236.774495"/>
    </g>
   </g>
   <g id="line2d_42">
    <path style="fill:none;stroke:#ff7500;stroke-linecap:square;stroke-width:1.5;"/>
    <g/>
   </g>
   <g id="line2d_43">
    <path clip-path="url(#pea8bc87697)" d="M 258.377147 236.774495 
" style="fill:none;stroke:#ff7500;stroke-linecap:square;stroke-width:1.5;"/>
    <defs>
     <path d="M -12 12 
L 12 -12 
M -12 -12 
L 12 12 
" id="m2a891d8481" style="stroke:#ff7500;"/>
    </defs>
    <g clip-path="url(#pea8bc87697)">
     <use style="fill:#ff7500;stroke:#ff7500;" x="258.377147" xlink:href="#m2a891d8481" y="236.774495"/>
    </g>
   </g>
   <g id="line2d_44">
    <path d="M 338.688 258.086151 
L 369.60768 293.092752 
" style="fill:none;stroke:#ff00ff;stroke-linecap:square;stroke-width:1.5;"/>
    <g>
     <use style="fill-opacity:0;stroke:#ff00ff;stroke-linejoin:miter;stroke-width:1.5;" x="338.688" xlink:href="#ma69623904d" y="258.086151"/>
     <use style="fill-opacity:0;stroke:#ff00ff;stroke-linejoin:miter;stroke-width:1.5;" x="369.60768" xlink:href="#ma69623904d" y="293.092752"/>
    </g>
   </g>
   <g id="line2d_45">
    <path d="M 338.688 236.774495 
L 369.60768 152.662812 
" style="fill:none;stroke:#ff7500;stroke-linecap:square;stroke-width:1.5;"/>
    <g>
     <use style="fill-opacity:0;stroke:#ff7500;stroke-linejoin:bevel;stroke-width:1.5;" x="338.688" xlink:href="#m746be94039" y="236.774495"/>
     <use style="fill-opacity:0;stroke:#ff7500;stroke-linejoin:bevel;stroke-width:1.5;" x="369.60768" xlink:href="#m746be94039" y="152.662812"/>
    </g>
   </g>
   <g id="line2d_46">
    <path d="M 338.688 298.944 
L 338.688 6.381624 
" style="fill:none;stroke:#000000;stroke-linecap:square;stroke-width:1.5;"/>
   </g>
   <g id="patch_3">
    <path d="M 57.6 298.944 
L 57.6 3.456 
" style="fill:none;stroke:#000000;stroke-linecap:square;stroke-linejoin:miter;stroke-width:0.8;"/>
   </g>
   <g id="patch_4">
    <path d="M 338.688 298.944 
L 338.688 3.456 
" style="fill:none;stroke:#000000;stroke-linecap:square;stroke-linejoin:miter;stroke-width:0.8;"/>
   </g>
   <g id="patch_5">
    <path d="M 57.6 298.944 
L 338.688 298.944 
" style="fill:none;stroke:#000000;stroke-linecap:square;stroke-linejoin:miter;stroke-width:0.8;"/>
   </g>
   <g id="patch_6">
    <path d="M 57.6 3.456 
L 338.688 3.456 
" style="fill:none;stroke:#000000;stroke-linecap:square;stroke-linejoin:miter;stroke-width:0.8;"/>
   </g>
   <g id="text_13">
    <!-- NSGA-II-M -->
    <g transform="translate(375.22944 297.78369)scale(0.17 -0.17)">
     <defs>
      <path d="M 9.8125 72.90625 
L 23.09375 72.90625 
L 55.421875 11.921875 
L 55.421875 72.90625 
L 64.984375 72.90625 
L 64.984375 0 
L 51.703125 0 
L 19.390625 60.984375 
L 19.390625 0 
L 9.8125 0 
z
" id="DejaVuSans-78"/>
      <path d="M 53.515625 70.515625 
L 53.515625 60.890625 
Q 47.90625 63.578125 42.921875 64.890625 
Q 37.9375 66.21875 33.296875 66.21875 
Q 25.25 66.21875 20.875 63.09375 
Q 16.5 59.96875 16.5 54.203125 
Q 16.5 49.359375 19.40625 46.890625 
Q 22.3125 44.4375 30.421875 42.921875 
L 36.375 41.703125 
Q 47.40625 39.59375 52.65625 34.296875 
Q 57.90625 29 57.90625 20.125 
Q 57.90625 9.515625 50.796875 4.046875 
Q 43.703125 -1.421875 29.984375 -1.421875 
Q 24.8125 -1.421875 18.96875 -0.25 
Q 13.140625 0.921875 6.890625 3.21875 
L 6.890625 13.375 
Q 12.890625 10.015625 18.65625 8.296875 
Q 24.421875 6.59375 29.984375 6.59375 
Q 38.421875 6.59375 43.015625 9.90625 
Q 47.609375 13.234375 47.609375 19.390625 
Q 47.609375 24.75 44.3125 27.78125 
Q 41.015625 30.8125 33.5 32.328125 
L 27.484375 33.5 
Q 16.453125 35.6875 11.515625 40.375 
Q 6.59375 45.0625 6.59375 53.421875 
Q 6.59375 63.09375 13.40625 68.65625 
Q 20.21875 74.21875 32.171875 74.21875 
Q 37.3125 74.21875 42.625 73.28125 
Q 47.953125 72.359375 53.515625 70.515625 
z
" id="DejaVuSans-83"/>
      <path d="M 59.515625 10.40625 
L 59.515625 29.984375 
L 43.40625 29.984375 
L 43.40625 38.09375 
L 69.28125 38.09375 
L 69.28125 6.78125 
Q 63.578125 2.734375 56.6875 0.65625 
Q 49.8125 -1.421875 42 -1.421875 
Q 24.90625 -1.421875 15.25 8.5625 
Q 5.609375 18.5625 5.609375 36.375 
Q 5.609375 54.25 15.25 64.234375 
Q 24.90625 74.21875 42 74.21875 
Q 49.125 74.21875 55.546875 72.453125 
Q 61.96875 70.703125 67.390625 67.28125 
L 67.390625 56.78125 
Q 61.921875 61.421875 55.765625 63.765625 
Q 49.609375 66.109375 42.828125 66.109375 
Q 29.4375 66.109375 22.71875 58.640625 
Q 16.015625 51.171875 16.015625 36.375 
Q 16.015625 21.625 22.71875 14.15625 
Q 29.4375 6.6875 42.828125 6.6875 
Q 48.046875 6.6875 52.140625 7.59375 
Q 56.25 8.5 59.515625 10.40625 
z
" id="DejaVuSans-71"/>
      <path d="M 34.1875 63.1875 
L 20.796875 26.90625 
L 47.609375 26.90625 
z
M 28.609375 72.90625 
L 39.796875 72.90625 
L 67.578125 0 
L 57.328125 0 
L 50.6875 18.703125 
L 17.828125 18.703125 
L 11.1875 0 
L 0.78125 0 
z
" id="DejaVuSans-65"/>
      <path d="M 9.8125 72.90625 
L 19.671875 72.90625 
L 19.671875 0 
L 9.8125 0 
z
" id="DejaVuSans-73"/>
      <path d="M 9.8125 72.90625 
L 24.515625 72.90625 
L 43.109375 23.296875 
L 61.8125 72.90625 
L 76.515625 72.90625 
L 76.515625 0 
L 66.890625 0 
L 66.890625 64.015625 
L 48.09375 14.015625 
L 38.1875 14.015625 
L 19.390625 64.015625 
L 19.390625 0 
L 9.8125 0 
z
" id="DejaVuSans-77"/>
     </defs>
     <use xlink:href="#DejaVuSans-78"/>
     <use x="74.804688" xlink:href="#DejaVuSans-83"/>
     <use x="138.28125" xlink:href="#DejaVuSans-71"/>
     <use x="215.771484" xlink:href="#DejaVuSans-65"/>
     <use x="281.929688" xlink:href="#DejaVuSans-45"/>
     <use x="318.013672" xlink:href="#DejaVuSans-73"/>
     <use x="347.505859" xlink:href="#DejaVuSans-73"/>
     <use x="376.998047" xlink:href="#DejaVuSans-45"/>
     <use x="413.082031" xlink:href="#DejaVuSans-77"/>
    </g>
   </g>
   <g id="text_14">
    <!-- SMS-EMOA- -->
    <g transform="translate(375.22944 157.353749)scale(0.17 -0.17)">
     <defs>
      <path d="M 9.8125 72.90625 
L 55.90625 72.90625 
L 55.90625 64.59375 
L 19.671875 64.59375 
L 19.671875 43.015625 
L 54.390625 43.015625 
L 54.390625 34.71875 
L 19.671875 34.71875 
L 19.671875 8.296875 
L 56.78125 8.296875 
L 56.78125 0 
L 9.8125 0 
z
" id="DejaVuSans-69"/>
      <path d="M 39.40625 66.21875 
Q 28.65625 66.21875 22.328125 58.203125 
Q 16.015625 50.203125 16.015625 36.375 
Q 16.015625 22.609375 22.328125 14.59375 
Q 28.65625 6.59375 39.40625 6.59375 
Q 50.140625 6.59375 56.421875 14.59375 
Q 62.703125 22.609375 62.703125 36.375 
Q 62.703125 50.203125 56.421875 58.203125 
Q 50.140625 66.21875 39.40625 66.21875 
z
M 39.40625 74.21875 
Q 54.734375 74.21875 63.90625 63.9375 
Q 73.09375 53.65625 73.09375 36.375 
Q 73.09375 19.140625 63.90625 8.859375 
Q 54.734375 -1.421875 39.40625 -1.421875 
Q 24.03125 -1.421875 14.8125 8.828125 
Q 5.609375 19.09375 5.609375 36.375 
Q 5.609375 53.65625 14.8125 63.9375 
Q 24.03125 74.21875 39.40625 74.21875 
z
" id="DejaVuSans-79"/>
     </defs>
     <use xlink:href="#DejaVuSans-83"/>
     <use x="63.476562" xlink:href="#DejaVuSans-77"/>
     <use x="149.755859" xlink:href="#DejaVuSans-83"/>
     <use x="213.232422" xlink:href="#DejaVuSans-45"/>
     <use x="249.316406" xlink:href="#DejaVuSans-69"/>
     <use x="312.5" xlink:href="#DejaVuSans-77"/>
     <use x="398.779297" xlink:href="#DejaVuSans-79"/>
     <use x="475.740234" xlink:href="#DejaVuSans-65"/>
     <use x="541.898438" xlink:href="#DejaVuSans-45"/>
    </g>
   </g>
   <g id="text_15">
    <!-- best 2016 -->
    <g transform="translate(375.22944 16.923809)scale(0.17 -0.17)">
     <defs>
      <path d="M 48.6875 27.296875 
Q 48.6875 37.203125 44.609375 42.84375 
Q 40.53125 48.484375 33.40625 48.484375 
Q 26.265625 48.484375 22.1875 42.84375 
Q 18.109375 37.203125 18.109375 27.296875 
Q 18.109375 17.390625 22.1875 11.75 
Q 26.265625 6.109375 33.40625 6.109375 
Q 40.53125 6.109375 44.609375 11.75 
Q 48.6875 17.390625 48.6875 27.296875 
z
M 18.109375 46.390625 
Q 20.953125 51.265625 25.265625 53.625 
Q 29.59375 56 35.59375 56 
Q 45.5625 56 51.78125 48.09375 
Q 58.015625 40.1875 58.015625 27.296875 
Q 58.015625 14.40625 51.78125 6.484375 
Q 45.5625 -1.421875 35.59375 -1.421875 
Q 29.59375 -1.421875 25.265625 0.953125 
Q 20.953125 3.328125 18.109375 8.203125 
L 18.109375 0 
L 9.078125 0 
L 9.078125 75.984375 
L 18.109375 75.984375 
z
" id="DejaVuSans-98"/>
     </defs>
     <use xlink:href="#DejaVuSans-98"/>
     <use x="63.476562" xlink:href="#DejaVuSans-101"/>
     <use x="125" xlink:href="#DejaVuSans-115"/>
     <use x="177.099609" xlink:href="#DejaVuSans-116"/>
     <use x="216.308594" xlink:href="#DejaVuSans-32"/>
     <use x="248.095703" xlink:href="#DejaVuSans-50"/>
     <use x="311.71875" xlink:href="#DejaVuSans-48"/>
     <use x="375.341797" xlink:href="#DejaVuSans-49"/>
     <use x="438.964844" xlink:href="#DejaVuSans-54"/>
    </g>
   </g>
   <g id="text_16">
    <!-- bbob-biobj f5, f6, f14, f15, 40-D -->
    <g transform="translate(60.41088 14.161286)scale(0.102 -0.102)">
     <defs>
      <path d="M 9.421875 54.6875 
L 18.40625 54.6875 
L 18.40625 -0.984375 
Q 18.40625 -11.421875 14.421875 -16.109375 
Q 10.453125 -20.796875 1.609375 -20.796875 
L -1.8125 -20.796875 
L -1.8125 -13.1875 
L 0.59375 -13.1875 
Q 5.71875 -13.1875 7.5625 -10.8125 
Q 9.421875 -8.453125 9.421875 -0.984375 
z
M 9.421875 75.984375 
L 18.40625 75.984375 
L 18.40625 64.59375 
L 9.421875 64.59375 
z
" id="DejaVuSans-106"/>
      <path d="M 10.796875 72.90625 
L 49.515625 72.90625 
L 49.515625 64.59375 
L 19.828125 64.59375 
L 19.828125 46.734375 
Q 21.96875 47.46875 24.109375 47.828125 
Q 26.265625 48.1875 28.421875 48.1875 
Q 40.625 48.1875 47.75 41.5 
Q 54.890625 34.8125 54.890625 23.390625 
Q 54.890625 11.625 47.5625 5.09375 
Q 40.234375 -1.421875 26.90625 -1.421875 
Q 22.3125 -1.421875 17.546875 -0.640625 
Q 12.796875 0.140625 7.71875 1.703125 
L 7.71875 11.625 
Q 12.109375 9.234375 16.796875 8.0625 
Q 21.484375 6.890625 26.703125 6.890625 
Q 35.15625 6.890625 40.078125 11.328125 
Q 45.015625 15.765625 45.015625 23.390625 
Q 45.015625 31 40.078125 35.4375 
Q 35.15625 39.890625 26.703125 39.890625 
Q 22.75 39.890625 18.8125 39.015625 
Q 14.890625 38.140625 10.796875 36.28125 
z
" id="DejaVuSans-53"/>
      <path d="M 19.671875 64.796875 
L 19.671875 8.109375 
L 31.59375 8.109375 
Q 46.6875 8.109375 53.6875 14.9375 
Q 60.6875 21.78125 60.6875 36.53125 
Q 60.6875 51.171875 53.6875 57.984375 
Q 46.6875 64.796875 31.59375 64.796875 
z
M 9.8125 72.90625 
L 30.078125 72.90625 
Q 51.265625 72.90625 61.171875 64.09375 
Q 71.09375 55.28125 71.09375 36.53125 
Q 71.09375 17.671875 61.125 8.828125 
Q 51.171875 0 30.078125 0 
L 9.8125 0 
z
" id="DejaVuSans-68"/>
     </defs>
     <use xlink:href="#DejaVuSans-98"/>
     <use x="63.476562" xlink:href="#DejaVuSans-98"/>
     <use x="126.953125" xlink:href="#DejaVuSans-111"/>
     <use x="188.134766" xlink:href="#DejaVuSans-98"/>
     <use x="251.611328" xlink:href="#DejaVuSans-45"/>
     <use x="287.695312" xlink:href="#DejaVuSans-98"/>
     <use x="351.171875" xlink:href="#DejaVuSans-105"/>
     <use x="378.955078" xlink:href="#DejaVuSans-111"/>
     <use x="440.136719" xlink:href="#DejaVuSans-98"/>
     <use x="503.613281" xlink:href="#DejaVuSans-106"/>
     <use x="531.396484" xlink:href="#DejaVuSans-32"/>
     <use x="563.183594" xlink:href="#DejaVuSans-102"/>
     <use x="598.388672" xlink:href="#DejaVuSans-53"/>
     <use x="662.011719" xlink:href="#DejaVuSans-44"/>
     <use x="693.798828" xlink:href="#DejaVuSans-32"/>
     <use x="725.585938" xlink:href="#DejaVuSans-102"/>
     <use x="760.791016" xlink:href="#DejaVuSans-54"/>
     <use x="824.414062" xlink:href="#DejaVuSans-44"/>
     <use x="856.201172" xlink:href="#DejaVuSans-32"/>
     <use x="887.988281" xlink:href="#DejaVuSans-102"/>
     <use x="923.193359" xlink:href="#DejaVuSans-49"/>
     <use x="986.816406" xlink:href="#DejaVuSans-52"/>
     <use x="1050.439453" xlink:href="#DejaVuSans-44"/>
     <use x="1082.226562" xlink:href="#DejaVuSans-32"/>
     <use x="1114.013672" xlink:href="#DejaVuSans-102"/>
     <use x="1149.21875" xlink:href="#DejaVuSans-49"/>
     <use x="1212.841797" xlink:href="#DejaVuSans-53"/>
     <use x="1276.464844" xlink:href="#DejaVuSans-44"/>
     <use x="1308.251953" xlink:href="#DejaVuSans-32"/>
     <use x="1340.039062" xlink:href="#DejaVuSans-52"/>
     <use x="1403.662109" xlink:href="#DejaVuSans-48"/>
     <use x="1467.285156" xlink:href="#DejaVuSans-45"/>
     <use x="1503.369141" xlink:href="#DejaVuSans-68"/>
    </g>
    <!-- 58 targets: 1..-1.0e-4 -->
    <g transform="translate(60.41088 25.583055)scale(0.102 -0.102)">
     <defs>
      <path d="M 11.71875 12.40625 
L 22.015625 12.40625 
L 22.015625 0 
L 11.71875 0 
z
M 11.71875 51.703125 
L 22.015625 51.703125 
L 22.015625 39.3125 
L 11.71875 39.3125 
z
" id="DejaVuSans-58"/>
     </defs>
     <use xlink:href="#DejaVuSans-53"/>
     <use x="63.623047" xlink:href="#DejaVuSans-56"/>
     <use x="127.246094" xlink:href="#DejaVuSans-32"/>
     <use x="159.033203" xlink:href="#DejaVuSans-116"/>
     <use x="198.242188" xlink:href="#DejaVuSans-97"/>
     <use x="259.521484" xlink:href="#DejaVuSans-114"/>
     <use x="298.884766" xlink:href="#DejaVuSans-103"/>
     <use x="362.361328" xlink:href="#DejaVuSans-101"/>
     <use x="423.884766" xlink:href="#DejaVuSans-116"/>
     <use x="463.09375" xlink:href="#DejaVuSans-115"/>
     <use x="515.193359" xlink:href="#DejaVuSans-58"/>
     <use x="548.884766" xlink:href="#DejaVuSans-32"/>
     <use x="580.671875" xlink:href="#DejaVuSans-49"/>
     <use x="644.294922" xlink:href="#DejaVuSans-46"/>
     <use x="676.082031" xlink:href="#DejaVuSans-46"/>
     <use x="707.869141" xlink:href="#DejaVuSans-45"/>
     <use x="743.953125" xlink:href="#DejaVuSans-49"/>
     <use x="807.576172" xlink:href="#DejaVuSans-46"/>
     <use x="839.363281" xlink:href="#DejaVuSans-48"/>
     <use x="902.986328" xlink:href="#DejaVuSans-101"/>
     <use x="964.509766" xlink:href="#DejaVuSans-45"/>
     <use x="1000.59375" xlink:href="#DejaVuSans-52"/>
    </g>
    <!-- 10 instances -->
    <g transform="translate(60.41088 37.004824)scale(0.102 -0.102)">
     <use xlink:href="#DejaVuSans-49"/>
     <use x="63.623047" xlink:href="#DejaVuSans-48"/>
     <use x="127.246094" xlink:href="#DejaVuSans-32"/>
     <use x="159.033203" xlink:href="#DejaVuSans-105"/>
     <use x="186.816406" xlink:href="#DejaVuSans-110"/>
     <use x="250.195312" xlink:href="#DejaVuSans-115"/>
     <use x="302.294922" xlink:href="#DejaVuSans-116"/>
     <use x="341.503906" xlink:href="#DejaVuSans-97"/>
     <use x="402.783203" xlink:href="#DejaVuSans-110"/>
     <use x="466.162109" xlink:href="#DejaVuSans-99"/>
     <use x="521.142578" xlink:href="#DejaVuSans-101"/>
     <use x="582.666016" xlink:href="#DejaVuSans-115"/>
    </g>
   </g>
   <g id="text_17">
    <!-- v2.4.19, hv-hash=ff0e71e8cd978373 -->
    <g style="fill:#808080;" transform="translate(104.697125 293.909432)scale(0.1 -0.1)">
     <defs>
      <path d="M 10.984375 1.515625 
L 10.984375 10.5 
Q 14.703125 8.734375 18.5 7.8125 
Q 22.3125 6.890625 25.984375 6.890625 
Q 35.75 6.890625 40.890625 13.453125 
Q 46.046875 20.015625 46.78125 33.40625 
Q 43.953125 29.203125 39.59375 26.953125 
Q 35.25 24.703125 29.984375 24.703125 
Q 19.046875 24.703125 12.671875 31.3125 
Q 6.296875 37.9375 6.296875 49.421875 
Q 6.296875 60.640625 12.9375 67.421875 
Q 19.578125 74.21875 30.609375 74.21875 
Q 43.265625 74.21875 49.921875 64.515625 
Q 56.59375 54.828125 56.59375 36.375 
Q 56.59375 19.140625 48.40625 8.859375 
Q 40.234375 -1.421875 26.421875 -1.421875 
Q 22.703125 -1.421875 18.890625 -0.6875 
Q 15.09375 0.046875 10.984375 1.515625 
z
M 30.609375 32.421875 
Q 37.25 32.421875 41.125 36.953125 
Q 45.015625 41.5 45.015625 49.421875 
Q 45.015625 57.28125 41.125 61.84375 
Q 37.25 66.40625 30.609375 66.40625 
Q 23.96875 66.40625 20.09375 61.84375 
Q 16.21875 57.28125 16.21875 49.421875 
Q 16.21875 41.5 20.09375 36.953125 
Q 23.96875 32.421875 30.609375 32.421875 
z
" id="DejaVuSans-57"/>
      <path d="M 54.890625 33.015625 
L 54.890625 0 
L 45.90625 0 
L 45.90625 32.71875 
Q 45.90625 40.484375 42.875 44.328125 
Q 39.84375 48.1875 33.796875 48.1875 
Q 26.515625 48.1875 22.3125 43.546875 
Q 18.109375 38.921875 18.109375 30.90625 
L 18.109375 0 
L 9.078125 0 
L 9.078125 75.984375 
L 18.109375 75.984375 
L 18.109375 46.1875 
Q 21.34375 51.125 25.703125 53.5625 
Q 30.078125 56 35.796875 56 
Q 45.21875 56 50.046875 50.171875 
Q 54.890625 44.34375 54.890625 33.015625 
z
" id="DejaVuSans-104"/>
      <path d="M 10.59375 45.40625 
L 73.1875 45.40625 
L 73.1875 37.203125 
L 10.59375 37.203125 
z
M 10.59375 25.484375 
L 73.1875 25.484375 
L 73.1875 17.1875 
L 10.59375 17.1875 
z
" id="DejaVuSans-61"/>
      <path d="M 8.203125 72.90625 
L 55.078125 72.90625 
L 55.078125 68.703125 
L 28.609375 0 
L 18.3125 0 
L 43.21875 64.59375 
L 8.203125 64.59375 
z
" id="DejaVuSans-55"/>
      <path d="M 40.578125 39.3125 
Q 47.65625 37.796875 51.625 33 
Q 55.609375 28.21875 55.609375 21.1875 
Q 55.609375 10.40625 48.1875 4.484375 
Q 40.765625 -1.421875 27.09375 -1.421875 
Q 22.515625 -1.421875 17.65625 -0.515625 
Q 12.796875 0.390625 7.625 2.203125 
L 7.625 11.71875 
Q 11.71875 9.328125 16.59375 8.109375 
Q 21.484375 6.890625 26.8125 6.890625 
Q 36.078125 6.890625 40.9375 10.546875 
Q 45.796875 14.203125 45.796875 21.1875 
Q 45.796875 27.640625 41.28125 31.265625 
Q 36.765625 34.90625 28.71875 34.90625 
L 20.21875 34.90625 
L 20.21875 43.015625 
L 29.109375 43.015625 
Q 36.375 43.015625 40.234375 45.921875 
Q 44.09375 48.828125 44.09375 54.296875 
Q 44.09375 59.90625 40.109375 62.90625 
Q 36.140625 65.921875 28.71875 65.921875 
Q 24.65625 65.921875 20.015625 65.03125 
Q 15.375 64.15625 9.8125 62.3125 
L 9.8125 71.09375 
Q 15.4375 72.65625 20.34375 73.4375 
Q 25.25 74.21875 29.59375 74.21875 
Q 40.828125 74.21875 47.359375 69.109375 
Q 53.90625 64.015625 53.90625 55.328125 
Q 53.90625 49.265625 50.4375 45.09375 
Q 46.96875 40.921875 40.578125 39.3125 
z
" id="DejaVuSans-51"/>
     </defs>
     <use xlink:href="#DejaVuSans-118"/>
     <use x="59.179688" xlink:href="#DejaVuSans-50"/>
     <use x="122.802734" xlink:href="#DejaVuSans-46"/>
     <use x="154.589844" xlink:href="#DejaVuSans-52"/>
     <use x="218.212891" xlink:href="#DejaVuSans-46"/>
     <use x="250" xlink:href="#DejaVuSans-49"/>
     <use x="313.623047" xlink:href="#DejaVuSans-57"/>
     <use x="377.246094" xlink:href="#DejaVuSans-44"/>
     <use x="409.033203" xlink:href="#DejaVuSans-32"/>
     <use x="440.820312" xlink:href="#DejaVuSans-104"/>
     <use x="504.199219" xlink:href="#DejaVuSans-118"/>
     <use x="560.753906" xlink:href="#DejaVuSans-45"/>
     <use x="596.837891" xlink:href="#DejaVuSans-104"/>
     <use x="660.216797" xlink:href="#DejaVuSans-97"/>
     <use x="721.496094" xlink:href="#DejaVuSans-115"/>
     <use x="773.595703" xlink:href="#DejaVuSans-104"/>
     <use x="836.974609" xlink:href="#DejaVuSans-61"/>
     <use x="920.763672" xlink:href="#DejaVuSans-102"/>
     <use x="955.96875" xlink:href="#DejaVuSans-102"/>
     <use x="991.173828" xlink:href="#DejaVuSans-48"/>
     <use x="1054.796875" xlink:href="#DejaVuSans-101"/>
     <use x="1116.320312" xlink:href="#DejaVuSans-55"/>
     <use x="1179.943359" xlink:href="#DejaVuSans-49"/>
     <use x="1243.566406" xlink:href="#DejaVuSans-101"/>
     <use x="1305.089844" xlink:href="#DejaVuSans-56"/>
     <use x="1368.712891" xlink:href="#DejaVuSans-99"/>
     <use x="1423.693359" xlink:href="#DejaVuSans-100"/>
     <use x="1487.169922" xlink:href="#DejaVuSans-57"/>
     <use x="1550.792969" xlink:href="#DejaVuSans-55"/>
     <use x="1614.416016" xlink:href="#DejaVuSans-56"/>
     <use x="1678.039062" xlink:href="#DejaVuSans-51"/>
     <use x="1741.662109" xlink:href="#DejaVuSans-55"/>
     <use x="1805.285156" xlink:href="#DejaVuSans-51"/>
    </g>
   </g>
  </g>
 </g>
 <defs>
  <clipPath id="pea8bc87697">
   <rect height="295.488" width="281.088" x="57.6" y="3.456"/>
  </clipPath>
 </defs>
</svg>
