<?xml version="1.0" encoding="utf-8" standalone="no"?>
<!DOCTYPE svg PUBLIC "-//W3C//DTD SVG 1.1//EN"
  "http://www.w3.org/Graphics/SVG/1.1/DTD/svg11.dtd">
<!-- Created with matplotlib (https://matplotlib.org/) -->
<svg height="345.6pt" version="1.1" viewBox="0 0 460.8 345.6" width="460.8pt" xmlns="http://www.w3.org/2000/svg" xmlns:xlink="http://www.w3.org/1999/xlink">
 <metadata>
  <rdf:RDF xmlns:cc="http://creativecommons.org/ns#" xmlns:dc="http://purl.org/dc/elements/1.1/" xmlns:rdf="http://www.w3.org/1999/02/22-rdf-syntax-ns#">
   <cc:Work>
    <dc:type rdf:resource="http://purl.org/dc/dcmitype/StillImage"/>
    <dc:date>2021-04-26T15:03:31.166356</dc:date>
    <dc:format>image/svg+xml</dc:format>
    <dc:creator>
     <cc:Agent>
      <dc:title>Matplotlib v3.3.2, https://matplotlib.org/</dc:title>
     </cc:Agent>
    </dc:creator>
   </cc:Work>
  </rdf:RDF>
 </metadata>
 <defs>
  <style type="text/css">*{stroke-linecap:butt;stroke-linejoin:round;}</style>
 </defs>
 <g id="figure_1">
  <g id="patch_1">
   <path d="M 0 345.6 
L 460.8 345.6 
L 460.8 0 
L 0 0 
z
" style="fill:#ffffff;"/>
  </g>
  <g id="axes_1">
   <g id="patch_2">
    <path d="M 57.6 298.944 
L 338.688 298.944 
L 338.688 3.456 
L 57.6 3.456 
z
" style="fill:#ffffff;"/>
   </g>
   <g id="line2d_1">
    <path d="M 5.356583 298.944 
L 5.356583 297.262607 
L 17.444571 297.262607 
L 17.444571 295.581214 
L 24.515591 295.581214 
L 24.515591 293.899821 
L 41.620548 293.899821 
L 41.620548 290.537035 
L 55.762588 290.537035 
L 55.762588 283.811463 
L 97.928955 283.811463 
L 97.928955 280.448677 
L 110.569269 280.448677 
L 110.569269 277.085891 
L 142.67974 277.085891 
L 142.67974 273.723105 
L 155.495282 273.723105 
L 155.495282 272.041713 
L 157.84861 272.041713 
L 157.84861 270.36032 
L 159.507213 270.36032 
L 159.507213 268.678927 
L 163.625673 268.678927 
L 163.625673 263.634748 
L 179.651365 263.634748 
L 179.651365 258.590569 
L 179.86188 258.590569 
L 179.86188 255.227783 
L 185.537275 255.227783 
L 185.537275 250.183604 
L 195.586332 250.183604 
L 195.586332 246.820818 
L 195.752529 246.820818 
L 195.752529 243.458032 
L 200.306722 243.458032 
L 200.306722 241.776639 
L 201.520817 241.776639 
L 201.520817 240.095246 
L 205.788522 240.095246 
L 205.788522 238.413853 
L 207.418615 238.413853 
L 207.418615 235.051067 
L 211.171957 235.051067 
L 211.171957 231.688281 
L 216.485158 231.688281 
L 216.485158 228.325495 
L 219.936806 228.325495 
L 219.936806 223.281316 
L 222.650794 223.281316 
L 222.650794 218.237138 
L 227.161073 218.237138 
L 227.161073 213.192959 
L 233.31553 213.192959 
L 233.31553 209.830173 
L 233.41254 209.830173 
L 233.41254 206.467387 
L 243.209919 206.467387 
L 243.209919 203.104601 
L 246.8824 203.104601 
L 246.8824 199.741815 
L 250.186853 199.741815 
L 250.186853 196.379029 
L 259.783517 196.379029 
L 259.783517 193.016243 
L 263.695963 193.016243 
L 263.695963 189.653457 
L 265.951164 189.653457 
L 265.951164 186.290671 
L 272.036073 186.290671 
L 272.036073 182.927885 
L 275.042484 182.927885 
L 275.042484 181.246492 
L 282.938408 181.246492 
L 282.938408 179.565099 
L 283.794824 179.565099 
L 283.794824 177.883706 
L 284.630567 177.883706 
L 284.630567 172.839527 
L 292.080097 172.839527 
L 292.080097 167.795349 
L 292.51763 167.795349 
L 292.51763 166.113956 
L 298.52761 166.113956 
L 298.52761 161.069777 
L 299.46857 161.069777 
L 299.46857 156.025598 
L 302.953942 156.025598 
L 302.953942 154.344205 
L 308.341514 154.344205 
L 308.341514 150.981419 
L 310.021413 150.981419 
L 310.021413 149.300026 
L 315.082894 149.300026 
L 315.082894 144.255847 
L 321.669923 144.255847 
L 321.669923 142.574454 
L 328.061806 142.574454 
L 328.061806 137.530275 
L 328.184699 137.530275 
L 328.184699 134.167489 
L 338.688 134.167489 
" style="fill:none;stroke:#f5deb3;stroke-linecap:square;stroke-width:4;"/>
   </g>
   <g id="line2d_2">
    <defs>
     <path d="M 0 7.778175 
L 7.778175 0 
L 0 -7.778175 
L -7.778175 0 
z
" id="m53ce21bd0f" style="stroke:#f5deb3;stroke-linejoin:miter;stroke-width:1.5;"/>
    </defs>
    <g>
     <use style="fill:#f5deb3;stroke:#f5deb3;stroke-linejoin:miter;stroke-width:1.5;" x="179.651365" xlink:href="#m53ce21bd0f" y="258.590569"/>
     <use style="fill:#f5deb3;stroke:#f5deb3;stroke-linejoin:miter;stroke-width:1.5;" x="222.650794" xlink:href="#m53ce21bd0f" y="218.237138"/>
     <use style="fill:#f5deb3;stroke:#f5deb3;stroke-linejoin:miter;stroke-width:1.5;" x="302.953942" xlink:href="#m53ce21bd0f" y="156.025598"/>
     <use style="fill:#f5deb3;stroke:#f5deb3;stroke-linejoin:miter;stroke-width:1.5;" x="328.184699" xlink:href="#m53ce21bd0f" y="134.167489"/>
     <use style="fill:#f5deb3;stroke:#f5deb3;stroke-linejoin:miter;stroke-width:1.5;" x="338.688" xlink:href="#m53ce21bd0f" y="134.167489"/>
    </g>
   </g>
   <g id="line2d_3">
    <path style="fill:none;stroke:#f5deb3;stroke-linecap:square;stroke-width:4;"/>
    <g/>
   </g>
   <g id="line2d_4">
    <path d="M 338.688 134.167489 
L 369.60768 12.232871 
" style="fill:none;stroke:#f5deb3;stroke-linecap:square;stroke-width:4;"/>
    <g>
     <use style="fill:#f5deb3;stroke:#f5deb3;stroke-linejoin:miter;stroke-width:1.5;" x="338.688" xlink:href="#m53ce21bd0f" y="134.167489"/>
     <use style="fill:#f5deb3;stroke:#f5deb3;stroke-linejoin:miter;stroke-width:1.5;" x="369.60768" xlink:href="#m53ce21bd0f" y="12.232871"/>
    </g>
   </g>
   <g id="matplotlib.axis_1">
    <g id="xtick_1">
     <g id="line2d_5">
      <path clip-path="url(#pd81b164368)" d="M 57.6 298.944 
L 57.6 3.456 
" style="fill:none;stroke:#b0b0b0;stroke-linecap:square;stroke-width:0.8;"/>
     </g>
     <g id="line2d_6">
      <defs>
       <path d="M 0 0 
L 0 3.5 
" id="m91084a0e99" style="stroke:#000000;stroke-width:0.8;"/>
      </defs>
      <g>
       <use style="stroke:#000000;stroke-width:0.8;" x="57.6" xlink:href="#m91084a0e99" y="298.944"/>
      </g>
     </g>
     <g id="text_1">
      <!-- 0 -->
      <g transform="translate(51.2375 321.140875)scale(0.2 -0.2)">
       <defs>
        <path d="M 31.78125 66.40625 
Q 24.171875 66.40625 20.328125 58.90625 
Q 16.5 51.421875 16.5 36.375 
Q 16.5 21.390625 20.328125 13.890625 
Q 24.171875 6.390625 31.78125 6.390625 
Q 39.453125 6.390625 43.28125 13.890625 
Q 47.125 21.390625 47.125 36.375 
Q 47.125 51.421875 43.28125 58.90625 
Q 39.453125 66.40625 31.78125 66.40625 
z
M 31.78125 74.21875 
Q 44.046875 74.21875 50.515625 64.515625 
Q 56.984375 54.828125 56.984375 36.375 
Q 56.984375 17.96875 50.515625 8.265625 
Q 44.046875 -1.421875 31.78125 -1.421875 
Q 19.53125 -1.421875 13.0625 8.265625 
Q 6.59375 17.96875 6.59375 36.375 
Q 6.59375 54.828125 13.0625 64.515625 
Q 19.53125 74.21875 31.78125 74.21875 
z
" id="DejaVuSans-48"/>
       </defs>
       <use xlink:href="#DejaVuSans-48"/>
      </g>
     </g>
    </g>
    <g id="xtick_2">
     <g id="line2d_7">
      <path clip-path="url(#pd81b164368)" d="M 137.910857 298.944 
L 137.910857 3.456 
" style="fill:none;stroke:#b0b0b0;stroke-linecap:square;stroke-width:0.8;"/>
     </g>
     <g id="line2d_8">
      <g>
       <use style="stroke:#000000;stroke-width:0.8;" x="137.910857" xlink:href="#m91084a0e99" y="298.944"/>
      </g>
     </g>
     <g id="text_2">
      <!-- 2 -->
      <g transform="translate(131.548357 321.140875)scale(0.2 -0.2)">
       <defs>
        <path d="M 19.1875 8.296875 
L 53.609375 8.296875 
L 53.609375 0 
L 7.328125 0 
L 7.328125 8.296875 
Q 12.9375 14.109375 22.625 23.890625 
Q 32.328125 33.6875 34.8125 36.53125 
Q 39.546875 41.84375 41.421875 45.53125 
Q 43.3125 49.21875 43.3125 52.78125 
Q 43.3125 58.59375 39.234375 62.25 
Q 35.15625 65.921875 28.609375 65.921875 
Q 23.96875 65.921875 18.8125 64.3125 
Q 13.671875 62.703125 7.8125 59.421875 
L 7.8125 69.390625 
Q 13.765625 71.78125 18.9375 73 
Q 24.125 74.21875 28.421875 74.21875 
Q 39.75 74.21875 46.484375 68.546875 
Q 53.21875 62.890625 53.21875 53.421875 
Q 53.21875 48.921875 51.53125 44.890625 
Q 49.859375 40.875 45.40625 35.40625 
Q 44.1875 33.984375 37.640625 27.21875 
Q 31.109375 20.453125 19.1875 8.296875 
z
" id="DejaVuSans-50"/>
       </defs>
       <use xlink:href="#DejaVuSans-50"/>
      </g>
     </g>
    </g>
    <g id="xtick_3">
     <g id="line2d_9">
      <path clip-path="url(#pd81b164368)" d="M 218.221714 298.944 
L 218.221714 3.456 
" style="fill:none;stroke:#b0b0b0;stroke-linecap:square;stroke-width:0.8;"/>
     </g>
     <g id="line2d_10">
      <g>
       <use style="stroke:#000000;stroke-width:0.8;" x="218.221714" xlink:href="#m91084a0e99" y="298.944"/>
      </g>
     </g>
     <g id="text_3">
      <!-- 4 -->
      <g transform="translate(211.859214 321.140875)scale(0.2 -0.2)">
       <defs>
        <path d="M 37.796875 64.3125 
L 12.890625 25.390625 
L 37.796875 25.390625 
z
M 35.203125 72.90625 
L 47.609375 72.90625 
L 47.609375 25.390625 
L 58.015625 25.390625 
L 58.015625 17.1875 
L 47.609375 17.1875 
L 47.609375 0 
L 37.796875 0 
L 37.796875 17.1875 
L 4.890625 17.1875 
L 4.890625 26.703125 
z
" id="DejaVuSans-52"/>
       </defs>
       <use xlink:href="#DejaVuSans-52"/>
      </g>
     </g>
    </g>
    <g id="xtick_4">
     <g id="line2d_11">
      <path clip-path="url(#pd81b164368)" d="M 298.532571 298.944 
L 298.532571 3.456 
" style="fill:none;stroke:#b0b0b0;stroke-linecap:square;stroke-width:0.8;"/>
     </g>
     <g id="line2d_12">
      <g>
       <use style="stroke:#000000;stroke-width:0.8;" x="298.532571" xlink:href="#m91084a0e99" y="298.944"/>
      </g>
     </g>
     <g id="text_4">
      <!-- 6 -->
      <g transform="translate(292.170071 321.140875)scale(0.2 -0.2)">
       <defs>
        <path d="M 33.015625 40.375 
Q 26.375 40.375 22.484375 35.828125 
Q 18.609375 31.296875 18.609375 23.390625 
Q 18.609375 15.53125 22.484375 10.953125 
Q 26.375 6.390625 33.015625 6.390625 
Q 39.65625 6.390625 43.53125 10.953125 
Q 47.40625 15.53125 47.40625 23.390625 
Q 47.40625 31.296875 43.53125 35.828125 
Q 39.65625 40.375 33.015625 40.375 
z
M 52.59375 71.296875 
L 52.59375 62.3125 
Q 48.875 64.0625 45.09375 64.984375 
Q 41.3125 65.921875 37.59375 65.921875 
Q 27.828125 65.921875 22.671875 59.328125 
Q 17.53125 52.734375 16.796875 39.40625 
Q 19.671875 43.65625 24.015625 45.921875 
Q 28.375 48.1875 33.59375 48.1875 
Q 44.578125 48.1875 50.953125 41.515625 
Q 57.328125 34.859375 57.328125 23.390625 
Q 57.328125 12.15625 50.6875 5.359375 
Q 44.046875 -1.421875 33.015625 -1.421875 
Q 20.359375 -1.421875 13.671875 8.265625 
Q 6.984375 17.96875 6.984375 36.375 
Q 6.984375 53.65625 15.1875 63.9375 
Q 23.390625 74.21875 37.203125 74.21875 
Q 40.921875 74.21875 44.703125 73.484375 
Q 48.484375 72.75 52.59375 71.296875 
z
" id="DejaVuSans-54"/>
       </defs>
       <use xlink:href="#DejaVuSans-54"/>
      </g>
     </g>
    </g>
    <g id="xtick_5">
     <g id="line2d_13">
      <path clip-path="url(#pd81b164368)" d="M 97.755429 298.944 
L 97.755429 3.456 
" style="fill:none;stroke:#b0b0b0;stroke-linecap:square;stroke-width:0.8;"/>
     </g>
     <g id="line2d_14">
      <defs>
       <path d="M 0 0 
L 0 2 
" id="mdc6d3d0a98" style="stroke:#000000;stroke-width:0.6;"/>
      </defs>
      <g>
       <use style="stroke:#000000;stroke-width:0.6;" x="97.755429" xlink:href="#mdc6d3d0a98" y="298.944"/>
      </g>
     </g>
    </g>
    <g id="xtick_6">
     <g id="line2d_15">
      <path clip-path="url(#pd81b164368)" d="M 178.066286 298.944 
L 178.066286 3.456 
" style="fill:none;stroke:#b0b0b0;stroke-linecap:square;stroke-width:0.8;"/>
     </g>
     <g id="line2d_16">
      <g>
       <use style="stroke:#000000;stroke-width:0.6;" x="178.066286" xlink:href="#mdc6d3d0a98" y="298.944"/>
      </g>
     </g>
    </g>
    <g id="xtick_7">
     <g id="line2d_17">
      <path clip-path="url(#pd81b164368)" d="M 258.377143 298.944 
L 258.377143 3.456 
" style="fill:none;stroke:#b0b0b0;stroke-linecap:square;stroke-width:0.8;"/>
     </g>
     <g id="line2d_18">
      <g>
       <use style="stroke:#000000;stroke-width:0.6;" x="258.377143" xlink:href="#mdc6d3d0a98" y="298.944"/>
      </g>
     </g>
    </g>
    <g id="xtick_8">
     <g id="line2d_19">
      <path clip-path="url(#pd81b164368)" d="M 338.688 298.944 
L 338.688 3.456 
" style="fill:none;stroke:#b0b0b0;stroke-linecap:square;stroke-width:0.8;"/>
     </g>
     <g id="line2d_20">
      <g>
       <use style="stroke:#000000;stroke-width:0.6;" x="338.688" xlink:href="#mdc6d3d0a98" y="298.944"/>
      </g>
     </g>
    </g>
    <g id="text_5">
     <!-- log10(# f-evals / dimension) -->
     <g transform="translate(77.764078 342.217594)scale(0.17 -0.17)">
      <defs>
       <path d="M 9.421875 75.984375 
L 18.40625 75.984375 
L 18.40625 0 
L 9.421875 0 
z
" id="DejaVuSans-108"/>
       <path d="M 30.609375 48.390625 
Q 23.390625 48.390625 19.1875 42.75 
Q 14.984375 37.109375 14.984375 27.296875 
Q 14.984375 17.484375 19.15625 11.84375 
Q 23.34375 6.203125 30.609375 6.203125 
Q 37.796875 6.203125 41.984375 11.859375 
Q 46.1875 17.53125 46.1875 27.296875 
Q 46.1875 37.015625 41.984375 42.703125 
Q 37.796875 48.390625 30.609375 48.390625 
z
M 30.609375 56 
Q 42.328125 56 49.015625 48.375 
Q 55.71875 40.765625 55.71875 27.296875 
Q 55.71875 13.875 49.015625 6.21875 
Q 42.328125 -1.421875 30.609375 -1.421875 
Q 18.84375 -1.421875 12.171875 6.21875 
Q 5.515625 13.875 5.515625 27.296875 
Q 5.515625 40.765625 12.171875 48.375 
Q 18.84375 56 30.609375 56 
z
" id="DejaVuSans-111"/>
       <path d="M 45.40625 27.984375 
Q 45.40625 37.75 41.375 43.109375 
Q 37.359375 48.484375 30.078125 48.484375 
Q 22.859375 48.484375 18.828125 43.109375 
Q 14.796875 37.75 14.796875 27.984375 
Q 14.796875 18.265625 18.828125 12.890625 
Q 22.859375 7.515625 30.078125 7.515625 
Q 37.359375 7.515625 41.375 12.890625 
Q 45.40625 18.265625 45.40625 27.984375 
z
M 54.390625 6.78125 
Q 54.390625 -7.171875 48.1875 -13.984375 
Q 42 -20.796875 29.203125 -20.796875 
Q 24.46875 -20.796875 20.265625 -20.09375 
Q 16.0625 -19.390625 12.109375 -17.921875 
L 12.109375 -9.1875 
Q 16.0625 -11.328125 19.921875 -12.34375 
Q 23.78125 -13.375 27.78125 -13.375 
Q 36.625 -13.375 41.015625 -8.765625 
Q 45.40625 -4.15625 45.40625 5.171875 
L 45.40625 9.625 
Q 42.625 4.78125 38.28125 2.390625 
Q 33.9375 0 27.875 0 
Q 17.828125 0 11.671875 7.65625 
Q 5.515625 15.328125 5.515625 27.984375 
Q 5.515625 40.671875 11.671875 48.328125 
Q 17.828125 56 27.875 56 
Q 33.9375 56 38.28125 53.609375 
Q 42.625 51.21875 45.40625 46.390625 
L 45.40625 54.6875 
L 54.390625 54.6875 
z
" id="DejaVuSans-103"/>
       <path d="M 12.40625 8.296875 
L 28.515625 8.296875 
L 28.515625 63.921875 
L 10.984375 60.40625 
L 10.984375 69.390625 
L 28.421875 72.90625 
L 38.28125 72.90625 
L 38.28125 8.296875 
L 54.390625 8.296875 
L 54.390625 0 
L 12.40625 0 
z
" id="DejaVuSans-49"/>
       <path d="M 31 75.875 
Q 24.46875 64.65625 21.28125 53.65625 
Q 18.109375 42.671875 18.109375 31.390625 
Q 18.109375 20.125 21.3125 9.0625 
Q 24.515625 -2 31 -13.1875 
L 23.1875 -13.1875 
Q 15.875 -1.703125 12.234375 9.375 
Q 8.59375 20.453125 8.59375 31.390625 
Q 8.59375 42.28125 12.203125 53.3125 
Q 15.828125 64.359375 23.1875 75.875 
z
" id="DejaVuSans-40"/>
       <path d="M 51.125 44 
L 36.921875 44 
L 32.8125 27.6875 
L 47.125 27.6875 
z
M 43.796875 71.78125 
L 38.71875 51.515625 
L 52.984375 51.515625 
L 58.109375 71.78125 
L 65.921875 71.78125 
L 60.890625 51.515625 
L 76.125 51.515625 
L 76.125 44 
L 58.984375 44 
L 54.984375 27.6875 
L 70.515625 27.6875 
L 70.515625 20.21875 
L 53.078125 20.21875 
L 48 0 
L 40.1875 0 
L 45.21875 20.21875 
L 30.90625 20.21875 
L 25.875 0 
L 18.015625 0 
L 23.09375 20.21875 
L 7.71875 20.21875 
L 7.71875 27.6875 
L 24.90625 27.6875 
L 29 44 
L 13.28125 44 
L 13.28125 51.515625 
L 30.90625 51.515625 
L 35.890625 71.78125 
z
" id="DejaVuSans-35"/>
       <path id="DejaVuSans-32"/>
       <path d="M 37.109375 75.984375 
L 37.109375 68.5 
L 28.515625 68.5 
Q 23.6875 68.5 21.796875 66.546875 
Q 19.921875 64.59375 19.921875 59.515625 
L 19.921875 54.6875 
L 34.71875 54.6875 
L 34.71875 47.703125 
L 19.921875 47.703125 
L 19.921875 0 
L 10.890625 0 
L 10.890625 47.703125 
L 2.296875 47.703125 
L 2.296875 54.6875 
L 10.890625 54.6875 
L 10.890625 58.5 
Q 10.890625 67.625 15.140625 71.796875 
Q 19.390625 75.984375 28.609375 75.984375 
z
" id="DejaVuSans-102"/>
       <path d="M 4.890625 31.390625 
L 31.203125 31.390625 
L 31.203125 23.390625 
L 4.890625 23.390625 
z
" id="DejaVuSans-45"/>
       <path d="M 56.203125 29.59375 
L 56.203125 25.203125 
L 14.890625 25.203125 
Q 15.484375 15.921875 20.484375 11.0625 
Q 25.484375 6.203125 34.421875 6.203125 
Q 39.59375 6.203125 44.453125 7.46875 
Q 49.3125 8.734375 54.109375 11.28125 
L 54.109375 2.78125 
Q 49.265625 0.734375 44.1875 -0.34375 
Q 39.109375 -1.421875 33.890625 -1.421875 
Q 20.796875 -1.421875 13.15625 6.1875 
Q 5.515625 13.8125 5.515625 26.8125 
Q 5.515625 40.234375 12.765625 48.109375 
Q 20.015625 56 32.328125 56 
Q 43.359375 56 49.78125 48.890625 
Q 56.203125 41.796875 56.203125 29.59375 
z
M 47.21875 32.234375 
Q 47.125 39.59375 43.09375 43.984375 
Q 39.0625 48.390625 32.421875 48.390625 
Q 24.90625 48.390625 20.390625 44.140625 
Q 15.875 39.890625 15.1875 32.171875 
z
" id="DejaVuSans-101"/>
       <path d="M 2.984375 54.6875 
L 12.5 54.6875 
L 29.59375 8.796875 
L 46.6875 54.6875 
L 56.203125 54.6875 
L 35.6875 0 
L 23.484375 0 
z
" id="DejaVuSans-118"/>
       <path d="M 34.28125 27.484375 
Q 23.390625 27.484375 19.1875 25 
Q 14.984375 22.515625 14.984375 16.5 
Q 14.984375 11.71875 18.140625 8.90625 
Q 21.296875 6.109375 26.703125 6.109375 
Q 34.1875 6.109375 38.703125 11.40625 
Q 43.21875 16.703125 43.21875 25.484375 
L 43.21875 27.484375 
z
M 52.203125 31.203125 
L 52.203125 0 
L 43.21875 0 
L 43.21875 8.296875 
Q 40.140625 3.328125 35.546875 0.953125 
Q 30.953125 -1.421875 24.3125 -1.421875 
Q 15.921875 -1.421875 10.953125 3.296875 
Q 6 8.015625 6 15.921875 
Q 6 25.140625 12.171875 29.828125 
Q 18.359375 34.515625 30.609375 34.515625 
L 43.21875 34.515625 
L 43.21875 35.40625 
Q 43.21875 41.609375 39.140625 45 
Q 35.0625 48.390625 27.6875 48.390625 
Q 23 48.390625 18.546875 47.265625 
Q 14.109375 46.140625 10.015625 43.890625 
L 10.015625 52.203125 
Q 14.9375 54.109375 19.578125 55.046875 
Q 24.21875 56 28.609375 56 
Q 40.484375 56 46.34375 49.84375 
Q 52.203125 43.703125 52.203125 31.203125 
z
" id="DejaVuSans-97"/>
       <path d="M 44.28125 53.078125 
L 44.28125 44.578125 
Q 40.484375 46.53125 36.375 47.5 
Q 32.28125 48.484375 27.875 48.484375 
Q 21.1875 48.484375 17.84375 46.4375 
Q 14.5 44.390625 14.5 40.28125 
Q 14.5 37.15625 16.890625 35.375 
Q 19.28125 33.59375 26.515625 31.984375 
L 29.59375 31.296875 
Q 39.15625 29.25 43.1875 25.515625 
Q 47.21875 21.78125 47.21875 15.09375 
Q 47.21875 7.46875 41.1875 3.015625 
Q 35.15625 -1.421875 24.609375 -1.421875 
Q 20.21875 -1.421875 15.453125 -0.5625 
Q 10.6875 0.296875 5.421875 2 
L 5.421875 11.28125 
Q 10.40625 8.6875 15.234375 7.390625 
Q 20.0625 6.109375 24.8125 6.109375 
Q 31.15625 6.109375 34.5625 8.28125 
Q 37.984375 10.453125 37.984375 14.40625 
Q 37.984375 18.0625 35.515625 20.015625 
Q 33.0625 21.96875 24.703125 23.78125 
L 21.578125 24.515625 
Q 13.234375 26.265625 9.515625 29.90625 
Q 5.8125 33.546875 5.8125 39.890625 
Q 5.8125 47.609375 11.28125 51.796875 
Q 16.75 56 26.8125 56 
Q 31.78125 56 36.171875 55.265625 
Q 40.578125 54.546875 44.28125 53.078125 
z
" id="DejaVuSans-115"/>
       <path d="M 25.390625 72.90625 
L 33.6875 72.90625 
L 8.296875 -9.28125 
L 0 -9.28125 
z
" id="DejaVuSans-47"/>
       <path d="M 45.40625 46.390625 
L 45.40625 75.984375 
L 54.390625 75.984375 
L 54.390625 0 
L 45.40625 0 
L 45.40625 8.203125 
Q 42.578125 3.328125 38.25 0.953125 
Q 33.9375 -1.421875 27.875 -1.421875 
Q 17.96875 -1.421875 11.734375 6.484375 
Q 5.515625 14.40625 5.515625 27.296875 
Q 5.515625 40.1875 11.734375 48.09375 
Q 17.96875 56 27.875 56 
Q 33.9375 56 38.25 53.625 
Q 42.578125 51.265625 45.40625 46.390625 
z
M 14.796875 27.296875 
Q 14.796875 17.390625 18.875 11.75 
Q 22.953125 6.109375 30.078125 6.109375 
Q 37.203125 6.109375 41.296875 11.75 
Q 45.40625 17.390625 45.40625 27.296875 
Q 45.40625 37.203125 41.296875 42.84375 
Q 37.203125 48.484375 30.078125 48.484375 
Q 22.953125 48.484375 18.875 42.84375 
Q 14.796875 37.203125 14.796875 27.296875 
z
" id="DejaVuSans-100"/>
       <path d="M 9.421875 54.6875 
L 18.40625 54.6875 
L 18.40625 0 
L 9.421875 0 
z
M 9.421875 75.984375 
L 18.40625 75.984375 
L 18.40625 64.59375 
L 9.421875 64.59375 
z
" id="DejaVuSans-105"/>
       <path d="M 52 44.1875 
Q 55.375 50.25 60.0625 53.125 
Q 64.75 56 71.09375 56 
Q 79.640625 56 84.28125 50.015625 
Q 88.921875 44.046875 88.921875 33.015625 
L 88.921875 0 
L 79.890625 0 
L 79.890625 32.71875 
Q 79.890625 40.578125 77.09375 44.375 
Q 74.3125 48.1875 68.609375 48.1875 
Q 61.625 48.1875 57.5625 43.546875 
Q 53.515625 38.921875 53.515625 30.90625 
L 53.515625 0 
L 44.484375 0 
L 44.484375 32.71875 
Q 44.484375 40.625 41.703125 44.40625 
Q 38.921875 48.1875 33.109375 48.1875 
Q 26.21875 48.1875 22.15625 43.53125 
Q 18.109375 38.875 18.109375 30.90625 
L 18.109375 0 
L 9.078125 0 
L 9.078125 54.6875 
L 18.109375 54.6875 
L 18.109375 46.1875 
Q 21.1875 51.21875 25.484375 53.609375 
Q 29.78125 56 35.6875 56 
Q 41.65625 56 45.828125 52.96875 
Q 50 49.953125 52 44.1875 
z
" id="DejaVuSans-109"/>
       <path d="M 54.890625 33.015625 
L 54.890625 0 
L 45.90625 0 
L 45.90625 32.71875 
Q 45.90625 40.484375 42.875 44.328125 
Q 39.84375 48.1875 33.796875 48.1875 
Q 26.515625 48.1875 22.3125 43.546875 
Q 18.109375 38.921875 18.109375 30.90625 
L 18.109375 0 
L 9.078125 0 
L 9.078125 54.6875 
L 18.109375 54.6875 
L 18.109375 46.1875 
Q 21.34375 51.125 25.703125 53.5625 
Q 30.078125 56 35.796875 56 
Q 45.21875 56 50.046875 50.171875 
Q 54.890625 44.34375 54.890625 33.015625 
z
" id="DejaVuSans-110"/>
       <path d="M 8.015625 75.875 
L 15.828125 75.875 
Q 23.140625 64.359375 26.78125 53.3125 
Q 30.421875 42.28125 30.421875 31.390625 
Q 30.421875 20.453125 26.78125 9.375 
Q 23.140625 -1.703125 15.828125 -13.1875 
L 8.015625 -13.1875 
Q 14.5 -2 17.703125 9.0625 
Q 20.90625 20.125 20.90625 31.390625 
Q 20.90625 42.671875 17.703125 53.65625 
Q 14.5 64.65625 8.015625 75.875 
z
" id="DejaVuSans-41"/>
      </defs>
      <use xlink:href="#DejaVuSans-108"/>
      <use x="27.783203" xlink:href="#DejaVuSans-111"/>
      <use x="88.964844" xlink:href="#DejaVuSans-103"/>
      <use x="152.441406" xlink:href="#DejaVuSans-49"/>
      <use x="216.064453" xlink:href="#DejaVuSans-48"/>
      <use x="279.6875" xlink:href="#DejaVuSans-40"/>
      <use x="318.701172" xlink:href="#DejaVuSans-35"/>
      <use x="402.490234" xlink:href="#DejaVuSans-32"/>
      <use x="434.277344" xlink:href="#DejaVuSans-102"/>
      <use x="463.982422" xlink:href="#DejaVuSans-45"/>
      <use x="500.066406" xlink:href="#DejaVuSans-101"/>
      <use x="561.589844" xlink:href="#DejaVuSans-118"/>
      <use x="620.769531" xlink:href="#DejaVuSans-97"/>
      <use x="682.048828" xlink:href="#DejaVuSans-108"/>
      <use x="709.832031" xlink:href="#DejaVuSans-115"/>
      <use x="761.931641" xlink:href="#DejaVuSans-32"/>
      <use x="793.71875" xlink:href="#DejaVuSans-47"/>
      <use x="827.410156" xlink:href="#DejaVuSans-32"/>
      <use x="859.197266" xlink:href="#DejaVuSans-100"/>
      <use x="922.673828" xlink:href="#DejaVuSans-105"/>
      <use x="950.457031" xlink:href="#DejaVuSans-109"/>
      <use x="1047.869141" xlink:href="#DejaVuSans-101"/>
      <use x="1109.392578" xlink:href="#DejaVuSans-110"/>
      <use x="1172.771484" xlink:href="#DejaVuSans-115"/>
      <use x="1224.871094" xlink:href="#DejaVuSans-105"/>
      <use x="1252.654297" xlink:href="#DejaVuSans-111"/>
      <use x="1313.835938" xlink:href="#DejaVuSans-110"/>
      <use x="1377.214844" xlink:href="#DejaVuSans-41"/>
     </g>
    </g>
   </g>
   <g id="matplotlib.axis_2">
    <g id="ytick_1">
     <g id="line2d_21">
      <path clip-path="url(#pd81b164368)" d="M 57.6 298.944 
L 338.688 298.944 
" style="fill:none;stroke:#b0b0b0;stroke-linecap:square;stroke-width:0.8;"/>
     </g>
     <g id="line2d_22">
      <defs>
       <path d="M 0 0 
L -3.5 0 
" id="ma8bfa5dca5" style="stroke:#000000;stroke-width:0.8;"/>
      </defs>
      <g>
       <use style="stroke:#000000;stroke-width:0.8;" x="57.6" xlink:href="#ma8bfa5dca5" y="298.944"/>
      </g>
     </g>
     <g id="text_6">
      <!-- 0.0 -->
      <g transform="translate(25.155 305.02275)scale(0.16 -0.16)">
       <defs>
        <path d="M 10.6875 12.40625 
L 21 12.40625 
L 21 0 
L 10.6875 0 
z
" id="DejaVuSans-46"/>
       </defs>
       <use xlink:href="#DejaVuSans-48"/>
       <use x="63.623047" xlink:href="#DejaVuSans-46"/>
       <use x="95.410156" xlink:href="#DejaVuSans-48"/>
      </g>
     </g>
    </g>
    <g id="ytick_2">
     <g id="line2d_23">
      <path clip-path="url(#pd81b164368)" d="M 57.6 240.431525 
L 338.688 240.431525 
" style="fill:none;stroke:#b0b0b0;stroke-linecap:square;stroke-width:0.8;"/>
     </g>
     <g id="line2d_24">
      <g>
       <use style="stroke:#000000;stroke-width:0.8;" x="57.6" xlink:href="#ma8bfa5dca5" y="240.431525"/>
      </g>
     </g>
     <g id="text_7">
      <!-- 0.2 -->
      <g transform="translate(25.155 246.510275)scale(0.16 -0.16)">
       <use xlink:href="#DejaVuSans-48"/>
       <use x="63.623047" xlink:href="#DejaVuSans-46"/>
       <use x="95.410156" xlink:href="#DejaVuSans-50"/>
      </g>
     </g>
    </g>
    <g id="ytick_3">
     <g id="line2d_25">
      <path clip-path="url(#pd81b164368)" d="M 57.6 181.91905 
L 338.688 181.91905 
" style="fill:none;stroke:#b0b0b0;stroke-linecap:square;stroke-width:0.8;"/>
     </g>
     <g id="line2d_26">
      <g>
       <use style="stroke:#000000;stroke-width:0.8;" x="57.6" xlink:href="#ma8bfa5dca5" y="181.91905"/>
      </g>
     </g>
     <g id="text_8">
      <!-- 0.4 -->
      <g transform="translate(25.155 187.9978)scale(0.16 -0.16)">
       <use xlink:href="#DejaVuSans-48"/>
       <use x="63.623047" xlink:href="#DejaVuSans-46"/>
       <use x="95.410156" xlink:href="#DejaVuSans-52"/>
      </g>
     </g>
    </g>
    <g id="ytick_4">
     <g id="line2d_27">
      <path clip-path="url(#pd81b164368)" d="M 57.6 123.406574 
L 338.688 123.406574 
" style="fill:none;stroke:#b0b0b0;stroke-linecap:square;stroke-width:0.8;"/>
     </g>
     <g id="line2d_28">
      <g>
       <use style="stroke:#000000;stroke-width:0.8;" x="57.6" xlink:href="#ma8bfa5dca5" y="123.406574"/>
      </g>
     </g>
     <g id="text_9">
      <!-- 0.6 -->
      <g transform="translate(25.155 129.485324)scale(0.16 -0.16)">
       <use xlink:href="#DejaVuSans-48"/>
       <use x="63.623047" xlink:href="#DejaVuSans-46"/>
       <use x="95.410156" xlink:href="#DejaVuSans-54"/>
      </g>
     </g>
    </g>
    <g id="ytick_5">
     <g id="line2d_29">
      <path clip-path="url(#pd81b164368)" d="M 57.6 64.894099 
L 338.688 64.894099 
" style="fill:none;stroke:#b0b0b0;stroke-linecap:square;stroke-width:0.8;"/>
     </g>
     <g id="line2d_30">
      <g>
       <use style="stroke:#000000;stroke-width:0.8;" x="57.6" xlink:href="#ma8bfa5dca5" y="64.894099"/>
      </g>
     </g>
     <g id="text_10">
      <!-- 0.8 -->
      <g transform="translate(25.155 70.972849)scale(0.16 -0.16)">
       <defs>
        <path d="M 31.78125 34.625 
Q 24.75 34.625 20.71875 30.859375 
Q 16.703125 27.09375 16.703125 20.515625 
Q 16.703125 13.921875 20.71875 10.15625 
Q 24.75 6.390625 31.78125 6.390625 
Q 38.8125 6.390625 42.859375 10.171875 
Q 46.921875 13.96875 46.921875 20.515625 
Q 46.921875 27.09375 42.890625 30.859375 
Q 38.875 34.625 31.78125 34.625 
z
M 21.921875 38.8125 
Q 15.578125 40.375 12.03125 44.71875 
Q 8.5 49.078125 8.5 55.328125 
Q 8.5 64.0625 14.71875 69.140625 
Q 20.953125 74.21875 31.78125 74.21875 
Q 42.671875 74.21875 48.875 69.140625 
Q 55.078125 64.0625 55.078125 55.328125 
Q 55.078125 49.078125 51.53125 44.71875 
Q 48 40.375 41.703125 38.8125 
Q 48.828125 37.15625 52.796875 32.3125 
Q 56.78125 27.484375 56.78125 20.515625 
Q 56.78125 9.90625 50.3125 4.234375 
Q 43.84375 -1.421875 31.78125 -1.421875 
Q 19.734375 -1.421875 13.25 4.234375 
Q 6.78125 9.90625 6.78125 20.515625 
Q 6.78125 27.484375 10.78125 32.3125 
Q 14.796875 37.15625 21.921875 38.8125 
z
M 18.3125 54.390625 
Q 18.3125 48.734375 21.84375 45.5625 
Q 25.390625 42.390625 31.78125 42.390625 
Q 38.140625 42.390625 41.71875 45.5625 
Q 45.3125 48.734375 45.3125 54.390625 
Q 45.3125 60.0625 41.71875 63.234375 
Q 38.140625 66.40625 31.78125 66.40625 
Q 25.390625 66.40625 21.84375 63.234375 
Q 18.3125 60.0625 18.3125 54.390625 
z
" id="DejaVuSans-56"/>
       </defs>
       <use xlink:href="#DejaVuSans-48"/>
       <use x="63.623047" xlink:href="#DejaVuSans-46"/>
       <use x="95.410156" xlink:href="#DejaVuSans-56"/>
      </g>
     </g>
    </g>
    <g id="ytick_6">
     <g id="line2d_31">
      <path clip-path="url(#pd81b164368)" d="M 57.6 6.381624 
L 338.688 6.381624 
" style="fill:none;stroke:#b0b0b0;stroke-linecap:square;stroke-width:0.8;"/>
     </g>
     <g id="line2d_32">
      <g>
       <use style="stroke:#000000;stroke-width:0.8;" x="57.6" xlink:href="#ma8bfa5dca5" y="6.381624"/>
      </g>
     </g>
     <g id="text_11">
      <!-- 1.0 -->
      <g transform="translate(25.155 12.460374)scale(0.16 -0.16)">
       <use xlink:href="#DejaVuSans-49"/>
       <use x="63.623047" xlink:href="#DejaVuSans-46"/>
       <use x="95.410156" xlink:href="#DejaVuSans-48"/>
      </g>
     </g>
    </g>
    <g id="text_12">
     <!-- Fraction of function,target pairs -->
     <g transform="translate(17.619531 285.585)rotate(-90)scale(0.17 -0.17)">
      <defs>
       <path d="M 9.8125 72.90625 
L 51.703125 72.90625 
L 51.703125 64.59375 
L 19.671875 64.59375 
L 19.671875 43.109375 
L 48.578125 43.109375 
L 48.578125 34.8125 
L 19.671875 34.8125 
L 19.671875 0 
L 9.8125 0 
z
" id="DejaVuSans-70"/>
       <path d="M 41.109375 46.296875 
Q 39.59375 47.171875 37.8125 47.578125 
Q 36.03125 48 33.890625 48 
Q 26.265625 48 22.1875 43.046875 
Q 18.109375 38.09375 18.109375 28.8125 
L 18.109375 0 
L 9.078125 0 
L 9.078125 54.6875 
L 18.109375 54.6875 
L 18.109375 46.1875 
Q 20.953125 51.171875 25.484375 53.578125 
Q 30.03125 56 36.53125 56 
Q 37.453125 56 38.578125 55.875 
Q 39.703125 55.765625 41.0625 55.515625 
z
" id="DejaVuSans-114"/>
       <path d="M 48.78125 52.59375 
L 48.78125 44.1875 
Q 44.96875 46.296875 41.140625 47.34375 
Q 37.3125 48.390625 33.40625 48.390625 
Q 24.65625 48.390625 19.8125 42.84375 
Q 14.984375 37.3125 14.984375 27.296875 
Q 14.984375 17.28125 19.8125 11.734375 
Q 24.65625 6.203125 33.40625 6.203125 
Q 37.3125 6.203125 41.140625 7.25 
Q 44.96875 8.296875 48.78125 10.40625 
L 48.78125 2.09375 
Q 45.015625 0.34375 40.984375 -0.53125 
Q 36.96875 -1.421875 32.421875 -1.421875 
Q 20.0625 -1.421875 12.78125 6.34375 
Q 5.515625 14.109375 5.515625 27.296875 
Q 5.515625 40.671875 12.859375 48.328125 
Q 20.21875 56 33.015625 56 
Q 37.15625 56 41.109375 55.140625 
Q 45.0625 54.296875 48.78125 52.59375 
z
" id="DejaVuSans-99"/>
       <path d="M 18.3125 70.21875 
L 18.3125 54.6875 
L 36.8125 54.6875 
L 36.8125 47.703125 
L 18.3125 47.703125 
L 18.3125 18.015625 
Q 18.3125 11.328125 20.140625 9.421875 
Q 21.96875 7.515625 27.59375 7.515625 
L 36.8125 7.515625 
L 36.8125 0 
L 27.59375 0 
Q 17.1875 0 13.234375 3.875 
Q 9.28125 7.765625 9.28125 18.015625 
L 9.28125 47.703125 
L 2.6875 47.703125 
L 2.6875 54.6875 
L 9.28125 54.6875 
L 9.28125 70.21875 
z
" id="DejaVuSans-116"/>
       <path d="M 8.5 21.578125 
L 8.5 54.6875 
L 17.484375 54.6875 
L 17.484375 21.921875 
Q 17.484375 14.15625 20.5 10.265625 
Q 23.53125 6.390625 29.59375 6.390625 
Q 36.859375 6.390625 41.078125 11.03125 
Q 45.3125 15.671875 45.3125 23.6875 
L 45.3125 54.6875 
L 54.296875 54.6875 
L 54.296875 0 
L 45.3125 0 
L 45.3125 8.40625 
Q 42.046875 3.421875 37.71875 1 
Q 33.40625 -1.421875 27.6875 -1.421875 
Q 18.265625 -1.421875 13.375 4.4375 
Q 8.5 10.296875 8.5 21.578125 
z
M 31.109375 56 
z
" id="DejaVuSans-117"/>
       <path d="M 11.71875 12.40625 
L 22.015625 12.40625 
L 22.015625 4 
L 14.015625 -11.625 
L 7.71875 -11.625 
L 11.71875 4 
z
" id="DejaVuSans-44"/>
       <path d="M 18.109375 8.203125 
L 18.109375 -20.796875 
L 9.078125 -20.796875 
L 9.078125 54.6875 
L 18.109375 54.6875 
L 18.109375 46.390625 
Q 20.953125 51.265625 25.265625 53.625 
Q 29.59375 56 35.59375 56 
Q 45.5625 56 51.78125 48.09375 
Q 58.015625 40.1875 58.015625 27.296875 
Q 58.015625 14.40625 51.78125 6.484375 
Q 45.5625 -1.421875 35.59375 -1.421875 
Q 29.59375 -1.421875 25.265625 0.953125 
Q 20.953125 3.328125 18.109375 8.203125 
z
M 48.6875 27.296875 
Q 48.6875 37.203125 44.609375 42.84375 
Q 40.53125 48.484375 33.40625 48.484375 
Q 26.265625 48.484375 22.1875 42.84375 
Q 18.109375 37.203125 18.109375 27.296875 
Q 18.109375 17.390625 22.1875 11.75 
Q 26.265625 6.109375 33.40625 6.109375 
Q 40.53125 6.109375 44.609375 11.75 
Q 48.6875 17.390625 48.6875 27.296875 
z
" id="DejaVuSans-112"/>
      </defs>
      <use xlink:href="#DejaVuSans-70"/>
      <use x="50.269531" xlink:href="#DejaVuSans-114"/>
      <use x="91.382812" xlink:href="#DejaVuSans-97"/>
      <use x="152.662109" xlink:href="#DejaVuSans-99"/>
      <use x="207.642578" xlink:href="#DejaVuSans-116"/>
      <use x="246.851562" xlink:href="#DejaVuSans-105"/>
      <use x="274.634766" xlink:href="#DejaVuSans-111"/>
      <use x="335.816406" xlink:href="#DejaVuSans-110"/>
      <use x="399.195312" xlink:href="#DejaVuSans-32"/>
      <use x="430.982422" xlink:href="#DejaVuSans-111"/>
      <use x="492.164062" xlink:href="#DejaVuSans-102"/>
      <use x="527.369141" xlink:href="#DejaVuSans-32"/>
      <use x="559.15625" xlink:href="#DejaVuSans-102"/>
      <use x="594.361328" xlink:href="#DejaVuSans-117"/>
      <use x="657.740234" xlink:href="#DejaVuSans-110"/>
      <use x="721.119141" xlink:href="#DejaVuSans-99"/>
      <use x="776.099609" xlink:href="#DejaVuSans-116"/>
      <use x="815.308594" xlink:href="#DejaVuSans-105"/>
      <use x="843.091797" xlink:href="#DejaVuSans-111"/>
      <use x="904.273438" xlink:href="#DejaVuSans-110"/>
      <use x="967.652344" xlink:href="#DejaVuSans-44"/>
      <use x="999.439453" xlink:href="#DejaVuSans-116"/>
      <use x="1038.648438" xlink:href="#DejaVuSans-97"/>
      <use x="1099.927734" xlink:href="#DejaVuSans-114"/>
      <use x="1139.291016" xlink:href="#DejaVuSans-103"/>
      <use x="1202.767578" xlink:href="#DejaVuSans-101"/>
      <use x="1264.291016" xlink:href="#DejaVuSans-116"/>
      <use x="1303.5" xlink:href="#DejaVuSans-32"/>
      <use x="1335.287109" xlink:href="#DejaVuSans-112"/>
      <use x="1398.763672" xlink:href="#DejaVuSans-97"/>
      <use x="1460.042969" xlink:href="#DejaVuSans-105"/>
      <use x="1487.826172" xlink:href="#DejaVuSans-114"/>
      <use x="1528.939453" xlink:href="#DejaVuSans-115"/>
     </g>
    </g>
   </g>
   <g id="line2d_33">
    <defs>
     <path d="M 0 1.5 
C 0.397805 1.5 0.77937 1.341951 1.06066 1.06066 
C 1.341951 0.77937 1.5 0.397805 1.5 0 
C 1.5 -0.397805 1.341951 -0.77937 1.06066 -1.06066 
C 0.77937 -1.341951 0.397805 -1.5 0 -1.5 
C -0.397805 -1.5 -0.77937 -1.341951 -1.06066 -1.06066 
C -1.341951 -0.77937 -1.5 -0.397805 -1.5 0 
C -1.5 0.397805 -1.341951 0.77937 -1.06066 1.06066 
C -0.77937 1.341951 -0.397805 1.5 0 1.5 
z
" id="mfcda300e9f" style="stroke:#f5deb3;"/>
    </defs>
    <g>
     <use style="fill:#f5deb3;stroke:#f5deb3;" x="341.348643" xlink:href="#mfcda300e9f" y="124.079131"/>
     <use style="fill:#f5deb3;stroke:#f5deb3;" x="341.348643" xlink:href="#mfcda300e9f" y="124.079131"/>
    </g>
   </g>
   <g id="line2d_34">
    <defs>
     <path d="M 0 1.5 
C 0.397805 1.5 0.77937 1.341951 1.06066 1.06066 
C 1.341951 0.77937 1.5 0.397805 1.5 0 
C 1.5 -0.397805 1.341951 -0.77937 1.06066 -1.06066 
C 0.77937 -1.341951 0.397805 -1.5 0 -1.5 
C -0.397805 -1.5 -0.77937 -1.341951 -1.06066 -1.06066 
C -1.341951 -0.77937 -1.5 -0.397805 -1.5 0 
C -1.5 0.397805 -1.341951 0.77937 -1.06066 1.06066 
C -0.77937 1.341951 -0.397805 1.5 0 1.5 
z
" id="ma3b144f9e9" style="stroke:#000080;"/>
    </defs>
    <g>
     <use style="fill:#000080;stroke:#000080;" x="232.189775" xlink:href="#ma3b144f9e9" y="217.73272"/>
     <use style="fill:#000080;stroke:#000080;" x="232.189775" xlink:href="#ma3b144f9e9" y="217.73272"/>
    </g>
   </g>
   <g id="line2d_35">
    <path d="M 5.356583 298.944 
L 5.356583 288.014946 
L 24.515591 288.014946 
L 24.515591 287.510528 
L 43.6746 287.510528 
L 43.6746 287.342389 
L 58.450865 287.342389 
L 58.450865 287.174249 
L 64.67102 287.174249 
L 64.67102 287.00611 
L 73.579452 287.00611 
L 73.579452 286.837971 
L 73.924795 286.837971 
L 73.924795 286.669831 
L 74.263433 286.669831 
L 74.263433 286.501692 
L 75.555822 286.501692 
L 75.555822 286.333553 
L 77.609874 286.333553 
L 77.609874 286.165413 
L 85.315119 286.165413 
L 85.315119 285.997274 
L 91.535274 285.997274 
L 91.535274 285.829135 
L 95.820862 285.829135 
L 95.820862 285.660996 
L 98.18605 285.660996 
L 98.18605 285.492856 
L 110.401178 285.492856 
L 110.401178 285.324717 
L 117.145424 285.324717 
L 117.145424 285.156578 
L 119.250393 285.156578 
L 119.250393 284.988438 
L 122.276749 284.988438 
L 122.276749 284.820299 
L 124.368753 284.820299 
L 124.368753 284.65216 
L 132.338714 284.65216 
L 132.338714 284.315881 
L 133.689303 284.315881 
L 133.689303 284.147742 
L 140.626517 284.147742 
L 140.626517 283.979603 
L 143.40093 283.979603 
L 143.40093 283.811463 
L 143.728793 283.811463 
L 143.728793 283.643324 
L 144.444697 283.643324 
L 144.444697 283.475185 
L 149.775065 283.475185 
L 149.775065 283.307045 
L 151.101174 283.307045 
L 151.101174 283.138906 
L 153.760778 283.138906 
L 153.760778 282.970767 
L 156.227282 282.970767 
L 156.227282 282.802628 
L 157.228997 282.802628 
L 157.228997 282.634488 
L 157.818008 282.634488 
L 157.818008 282.466349 
L 160.21548 282.466349 
L 160.21548 282.29821 
L 160.713095 282.29821 
L 160.713095 282.13007 
L 160.956678 282.13007 
L 160.956678 281.961931 
L 161.580351 281.961931 
L 161.580351 281.793792 
L 161.812194 281.793792 
L 161.812194 281.625652 
L 162.126028 281.625652 
L 162.126028 281.457513 
L 163.115337 281.457513 
L 163.115337 281.289374 
L 163.301352 281.289374 
L 163.380469 280.953095 
L 163.693398 280.953095 
L 163.693398 280.784956 
L 163.822146 280.784956 
L 163.822146 280.616817 
L 164.026185 280.616817 
L 164.026185 280.448677 
L 166.304824 280.448677 
L 166.304824 280.280538 
L 167.44594 280.280538 
L 167.554616 279.944259 
L 168.22045 279.944259 
L 168.22045 279.77612 
L 169.302579 279.77612 
L 169.302579 279.607981 
L 169.855803 279.607981 
L 169.910173 279.271702 
L 170.427184 279.271702 
L 170.49327 278.935424 
L 170.706004 278.935424 
L 170.706004 278.599145 
L 171.065318 278.599145 
L 171.149789 278.262867 
L 171.876001 278.262867 
L 171.876001 278.094727 
L 172.619713 278.094727 
L 172.619713 277.926588 
L 172.804621 277.926588 
L 172.804621 277.758449 
L 172.942027 277.758449 
L 172.942027 277.590309 
L 173.860276 277.590309 
L 173.860276 277.42217 
L 174.217279 277.42217 
L 174.245526 277.085891 
L 174.358059 277.085891 
L 174.455933 276.749613 
L 175.179676 276.749613 
L 175.179676 276.581474 
L 175.299647 276.581474 
L 175.299647 276.413334 
L 175.641664 276.413334 
L 175.641664 276.245195 
L 175.977102 276.245195 
L 175.989876 275.908916 
L 176.94636 275.908916 
L 176.94636 275.740777 
L 177.126734 275.740777 
L 177.126734 275.572638 
L 177.328929 275.572638 
L 177.328929 275.404498 
L 177.470256 275.404498 
L 177.563841 275.06822 
L 177.737972 275.06822 
L 177.737972 274.900081 
L 177.910381 274.900081 
L 177.910381 274.731941 
L 178.996692 274.731941 
L 179.103828 274.395663 
L 179.189066 274.395663 
L 179.189066 274.059384 
L 179.337237 274.059384 
L 179.368825 273.723105 
L 179.515482 273.723105 
L 179.515482 273.554966 
L 179.884678 273.554966 
L 179.884678 273.386827 
L 180.069884 273.386827 
L 180.069884 273.218688 
L 180.50894 273.218688 
L 180.50894 273.050548 
L 180.76328 273.050548 
L 180.76328 272.882409 
L 181.099906 272.882409 
L 181.204375 272.209852 
L 181.355221 272.209852 
L 181.355221 272.041713 
L 182.074549 272.041713 
L 182.074549 271.873573 
L 182.251725 271.873573 
L 182.251725 271.705434 
L 182.813264 271.705434 
L 182.813264 271.537295 
L 183.515577 271.537295 
L 183.515577 271.369155 
L 184.038443 271.369155 
L 184.062571 271.032877 
L 184.230545 271.032877 
L 184.278242 270.696598 
L 184.717232 270.696598 
L 184.717232 270.528459 
L 185.310832 270.528459 
L 185.310832 270.36032 
L 185.88322 270.36032 
L 185.928277 270.024041 
L 186.057238 270.024041 
L 186.057238 269.855902 
L 186.200573 269.855902 
L 186.200573 269.687762 
L 186.342197 269.687762 
L 186.405554 269.015205 
L 186.5525 269.015205 
L 186.5525 268.847066 
L 187.069503 268.847066 
L 187.074186 268.510787 
L 188.48943 268.510787 
L 188.48943 268.342648 
L 188.950932 268.342648 
L 188.991991 268.006369 
L 189.275811 268.006369 
L 189.275811 267.670091 
L 189.506738 267.670091 
L 189.506738 267.501952 
L 189.659008 267.501952 
L 189.659008 267.333812 
L 189.854814 267.333812 
L 189.91945 266.997534 
L 190.551261 266.997534 
L 190.657479 266.156837 
L 190.880544 266.156837 
L 190.961903 265.820559 
L 191.037497 265.820559 
L 191.037497 265.652419 
L 191.752088 265.652419 
L 191.848094 264.643583 
L 192.712519 264.643583 
L 192.712519 264.307305 
L 193.380274 264.307305 
L 193.380274 264.139166 
L 193.746366 264.139166 
L 193.746366 263.971026 
L 194.089281 263.971026 
L 194.089281 263.634748 
L 194.296103 263.634748 
L 194.394158 262.962191 
L 195.394017 262.962191 
L 195.503438 262.625912 
L 195.88831 262.625912 
L 195.88831 262.457773 
L 196.271627 262.457773 
L 196.375083 261.617076 
L 196.767366 261.617076 
L 196.767366 261.448937 
L 197.784463 261.448937 
L 197.784463 261.280798 
L 198.381564 261.280798 
L 198.381564 261.112658 
L 198.568516 261.112658 
L 198.568516 260.944519 
L 198.705491 260.944519 
L 198.707627 260.440101 
L 198.928079 260.440101 
L 198.928079 260.271962 
L 199.125722 260.271962 
L 199.125722 259.935683 
L 199.254008 259.935683 
L 199.264871 259.431265 
L 199.365425 259.431265 
L 199.365425 259.263126 
L 199.488903 259.263126 
L 199.488903 258.926847 
L 200.224197 258.926847 
L 200.285761 258.590569 
L 200.393221 258.590569 
L 200.393221 258.25429 
L 200.701209 258.25429 
L 200.792886 257.918012 
L 200.874891 257.918012 
L 200.874891 257.749872 
L 201.024434 257.749872 
L 201.024434 257.581733 
L 201.154618 257.581733 
L 201.192164 257.245454 
L 201.82911 257.245454 
L 201.865456 256.741037 
L 202.185274 256.741037 
L 202.264701 256.068479 
L 202.311881 256.068479 
L 202.311881 255.732201 
L 202.518653 255.732201 
L 202.518653 255.564061 
L 203.422588 255.564061 
L 203.458204 255.227783 
L 203.559766 255.227783 
L 203.559766 255.059644 
L 203.982113 255.059644 
L 204.026447 254.555226 
L 204.245084 254.555226 
L 204.328644 253.882668 
L 204.480581 253.882668 
L 204.480581 253.54639 
L 205.292728 253.54639 
L 205.292728 253.378251 
L 205.640074 253.378251 
L 205.726331 252.705693 
L 205.906589 252.705693 
L 205.908885 252.201276 
L 206.048764 252.201276 
L 206.048764 252.033136 
L 206.563156 252.033136 
L 206.563156 251.864997 
L 206.954503 251.864997 
L 207.01015 251.528718 
L 207.791269 251.528718 
L 207.791269 251.360579 
L 208.032538 251.360579 
L 208.073467 250.856161 
L 208.428246 250.856161 
L 208.428246 250.688022 
L 209.163389 250.688022 
L 209.163389 250.519883 
L 209.409369 250.519883 
L 209.409369 250.183604 
L 209.532936 250.183604 
L 209.532936 250.015465 
L 209.87034 250.015465 
L 209.956412 249.511047 
L 209.998661 249.511047 
L 209.998661 249.342907 
L 210.118136 249.342907 
L 210.118136 249.006629 
L 210.689573 249.006629 
L 210.689573 248.83849 
L 211.175484 248.83849 
L 211.231035 248.334072 
L 211.451357 248.334072 
L 211.451357 247.997793 
L 212.025833 247.997793 
L 212.068696 247.325236 
L 212.261206 247.325236 
L 212.339208 246.820818 
L 212.505188 246.820818 
L 212.505188 246.484539 
L 212.864877 246.484539 
L 212.874122 246.148261 
L 212.985734 246.148261 
L 212.985734 245.980122 
L 213.236572 245.980122 
L 213.344282 245.475704 
L 213.352699 245.475704 
L 213.352699 245.307564 
L 213.568886 245.307564 
L 213.655772 244.803146 
L 213.788949 244.803146 
L 213.81041 244.298729 
L 213.919665 244.298729 
L 213.949769 243.794311 
L 214.037443 243.794311 
L 214.037443 243.626171 
L 214.232317 243.626171 
L 214.232317 243.289893 
L 214.391182 243.289893 
L 214.432082 242.953614 
L 214.631085 242.953614 
L 214.730966 242.617336 
L 215.06969 242.617336 
L 215.079194 242.112918 
L 215.35526 242.112918 
L 215.35526 241.944778 
L 215.497635 241.944778 
L 215.497635 241.6085 
L 215.624393 241.6085 
L 215.624393 241.440361 
L 215.829728 241.440361 
L 215.860905 240.935943 
L 215.981192 240.935943 
L 216.035244 240.431525 
L 216.096814 240.431525 
L 216.160718 239.927107 
L 216.344729 239.927107 
L 216.344729 239.758968 
L 216.503066 239.758968 
L 216.503066 239.590828 
L 216.912293 239.590828 
L 216.912293 239.422689 
L 217.140518 239.422689 
L 217.231938 238.918271 
L 217.25352 238.918271 
L 217.312137 238.245714 
L 217.452491 238.245714 
L 217.543473 237.741296 
L 217.582321 237.741296 
L 217.680277 236.9006 
L 217.699245 236.9006 
L 217.725012 236.228042 
L 217.881935 236.228042 
L 217.881935 235.891764 
L 218.282906 235.891764 
L 218.32361 234.882928 
L 218.448169 234.882928 
L 218.448169 234.714789 
L 218.625433 234.714789 
L 218.625433 234.546649 
L 218.950828 234.546649 
L 218.950828 234.37851 
L 219.199424 234.37851 
L 219.199424 234.210371 
L 219.396987 234.210371 
L 219.472711 233.537814 
L 219.52749 233.537814 
L 219.564263 232.865256 
L 219.795564 232.865256 
L 219.795564 232.528978 
L 219.939098 232.528978 
L 219.997395 232.02456 
L 220.175571 232.02456 
L 220.175571 231.856421 
L 220.341214 231.856421 
L 220.341214 231.520142 
L 220.512794 231.520142 
L 220.512794 231.352003 
L 220.767605 231.352003 
L 220.767605 230.847585 
L 221.151269 230.847585 
L 221.232532 229.67061 
L 221.263027 229.67061 
L 221.325756 229.166192 
L 221.402652 229.166192 
L 221.451699 228.325495 
L 221.521261 228.325495 
L 221.521261 227.989217 
L 221.753096 227.989217 
L 221.753096 227.821078 
L 222.172023 227.821078 
L 222.26037 227.14852 
L 222.417645 227.14852 
L 222.417645 226.812242 
L 222.724635 226.812242 
L 222.834412 226.139685 
L 223.303132 226.139685 
L 223.367388 225.467127 
L 223.520244 225.467127 
L 223.520244 225.298988 
L 223.716624 225.298988 
L 223.716624 225.130849 
L 223.917297 225.130849 
L 223.917297 224.962709 
L 224.151224 224.962709 
L 224.151224 224.626431 
L 224.342873 224.626431 
L 224.342873 224.290152 
L 224.505033 224.290152 
L 224.505033 223.953874 
L 225.014757 223.953874 
L 225.014757 223.617595 
L 225.151487 223.617595 
L 225.159279 223.113177 
L 225.458086 223.113177 
L 225.458086 222.945038 
L 225.934856 222.945038 
L 225.934856 222.608759 
L 226.163298 222.608759 
L 226.163298 222.272481 
L 226.648546 222.272481 
L 226.648546 221.936202 
L 227.065921 221.936202 
L 227.065921 221.768063 
L 227.305503 221.768063 
L 227.405077 220.591088 
L 227.625691 220.591088 
L 227.625691 220.254809 
L 227.862671 220.254809 
L 227.862671 220.08667 
L 228.091425 220.08667 
L 228.104541 219.582252 
L 229.859322 219.582252 
L 229.859322 219.245973 
L 230.15459 219.245973 
L 230.15459 218.909695 
L 230.817185 218.909695 
L 230.817185 218.573416 
L 230.941456 218.573416 
L 230.941456 218.237138 
L 231.363341 218.237138 
L 231.363341 218.068998 
L 232.189775 218.068998 
L 232.189775 217.73272 
L 338.688 217.73272 
L 338.688 217.73272 
" style="fill:none;stroke:#000080;stroke-linecap:square;stroke-width:1.5;"/>
   </g>
   <g id="line2d_36">
    <defs>
     <path d="M 0 6 
C 1.591219 6 3.117479 5.367802 4.242641 4.242641 
C 5.367802 3.117479 6 1.591219 6 0 
C 6 -1.591219 5.367802 -3.117479 4.242641 -4.242641 
C 3.117479 -5.367802 1.591219 -6 0 -6 
C -1.591219 -6 -3.117479 -5.367802 -4.242641 -4.242641 
C -5.367802 -3.117479 -6 -1.591219 -6 0 
C -6 1.591219 -5.367802 3.117479 -4.242641 4.242641 
C -3.117479 5.367802 -1.591219 6 0 6 
z
" id="m3e341c2162" style="stroke:#000080;stroke-width:1.5;"/>
    </defs>
    <g>
     <use style="fill-opacity:0;stroke:#000080;stroke-width:1.5;" x="77.609874" xlink:href="#m3e341c2162" y="286.165413"/>
     <use style="fill-opacity:0;stroke:#000080;stroke-width:1.5;" x="177.910381" xlink:href="#m3e341c2162" y="274.731941"/>
     <use style="fill-opacity:0;stroke:#000080;stroke-width:1.5;" x="219.551664" xlink:href="#m3e341c2162" y="233.369674"/>
     <use style="fill-opacity:0;stroke:#000080;stroke-width:1.5;" x="232.189775" xlink:href="#m3e341c2162" y="217.73272"/>
     <use style="fill-opacity:0;stroke:#000080;stroke-width:1.5;" x="232.189775" xlink:href="#m3e341c2162" y="217.73272"/>
     <use style="fill-opacity:0;stroke:#000080;stroke-width:1.5;" x="338.688" xlink:href="#m3e341c2162" y="217.73272"/>
    </g>
   </g>
   <g id="line2d_37">
    <path style="fill:none;stroke:#000080;stroke-linecap:square;stroke-width:1.5;"/>
    <g/>
   </g>
   <g id="line2d_38">
    <path clip-path="url(#pd81b164368)" d="M 258.377195 217.73272 
" style="fill:none;stroke:#000080;stroke-linecap:square;stroke-width:1.5;"/>
    <defs>
     <path d="M -12 12 
L 12 -12 
M -12 -12 
L 12 12 
" id="md7c54b2ec4" style="stroke:#000080;"/>
    </defs>
    <g clip-path="url(#pd81b164368)">
     <use style="fill:#000080;stroke:#000080;" x="258.377195" xlink:href="#md7c54b2ec4" y="217.73272"/>
    </g>
   </g>
   <g id="line2d_39">
    <defs>
     <path d="M 0 1.5 
C 0.397805 1.5 0.77937 1.341951 1.06066 1.06066 
C 1.341951 0.77937 1.5 0.397805 1.5 0 
C 1.5 -0.397805 1.341951 -0.77937 1.06066 -1.06066 
C 0.77937 -1.341951 0.397805 -1.5 0 -1.5 
C -0.397805 -1.5 -0.77937 -1.341951 -1.06066 -1.06066 
C -1.341951 -0.77937 -1.5 -0.397805 -1.5 0 
C -1.5 0.397805 -1.341951 0.77937 -1.06066 1.06066 
C -0.77937 1.341951 -0.397805 1.5 0 1.5 
z
" id="mb97f746d26" style="stroke:#ff00ff;"/>
    </defs>
    <g>
     <use style="fill:#ff00ff;stroke:#ff00ff;" x="250.993587" xlink:href="#mb97f746d26" y="262.121494"/>
     <use style="fill:#ff00ff;stroke:#ff00ff;" x="250.993587" xlink:href="#mb97f746d26" y="262.121494"/>
    </g>
   </g>
   <g id="line2d_40">
    <path d="M 5.356583 298.944 
L 5.356583 291.377732 
L 103.870632 291.377732 
L 103.870632 291.209592 
L 113.095487 291.209592 
L 113.095487 291.041453 
L 113.239614 291.041453 
L 113.311233 290.705174 
L 115.958621 290.705174 
L 115.958621 290.537035 
L 116.885347 290.537035 
L 116.885347 290.368896 
L 119.148409 290.368896 
L 119.148409 290.200757 
L 121.623516 290.200757 
L 121.623516 290.032617 
L 121.974949 290.032617 
L 121.974949 289.864478 
L 122.298108 289.864478 
L 122.298108 289.696339 
L 122.468041 289.696339 
L 122.468041 289.528199 
L 122.885768 289.528199 
L 122.885768 289.36006 
L 123.849288 289.36006 
L 123.849288 289.191921 
L 124.043491 289.191921 
L 124.043491 288.855642 
L 124.725244 288.855642 
L 124.762349 288.519364 
L 124.965026 288.519364 
L 124.965026 288.351224 
L 125.309651 288.351224 
L 125.309651 288.183085 
L 125.944518 288.183085 
L 125.97912 287.846806 
L 126.133984 287.846806 
L 126.133984 287.678667 
L 126.270496 287.678667 
L 126.338353 287.342389 
L 126.50685 287.342389 
L 126.573795 286.837971 
L 126.623836 286.837971 
L 126.623836 286.669831 
L 126.839037 286.669831 
L 126.839037 286.501692 
L 127.532507 286.501692 
L 127.611382 285.997274 
L 127.752464 285.997274 
L 127.830353 285.324717 
L 127.87692 285.324717 
L 127.907896 284.988438 
L 128.138476 284.988438 
L 128.184228 284.48402 
L 128.32077 284.48402 
L 128.32077 284.315881 
L 128.679738 284.315881 
L 128.679738 284.147742 
L 129.074938 284.147742 
L 129.161557 283.643324 
L 129.219065 283.643324 
L 129.31925 283.307045 
L 129.433047 283.307045 
L 129.433047 283.138906 
L 129.588315 283.138906 
L 129.644435 282.802628 
L 129.756136 282.802628 
L 129.825588 282.466349 
L 130.08701 282.466349 
L 130.08701 282.29821 
L 130.398313 282.29821 
L 130.398313 282.13007 
L 130.558552 282.13007 
L 130.558552 281.961931 
L 130.704156 281.961931 
L 130.743656 281.625652 
L 130.822389 281.625652 
L 130.913797 281.289374 
L 131.351088 281.289374 
L 131.351088 281.121235 
L 131.477644 281.121235 
L 131.477644 280.953095 
L 131.615802 280.953095 
L 131.615802 280.784956 
L 132.517825 280.784956 
L 132.517825 280.616817 
L 133.0559 280.616817 
L 133.101914 280.112399 
L 133.800029 280.112399 
L 133.800029 279.944259 
L 134.073807 279.944259 
L 134.138879 279.607981 
L 134.268299 279.607981 
L 134.289776 279.271702 
L 134.418085 279.271702 
L 134.492498 278.767284 
L 135.004687 278.767284 
L 135.056115 278.431006 
L 136.304433 278.431006 
L 136.399782 278.094727 
L 136.95197 278.094727 
L 136.979586 277.758449 
L 137.84096 277.758449 
L 137.858461 277.42217 
L 138.67848 277.42217 
L 138.67848 277.254031 
L 140.249355 277.254031 
L 140.249355 277.085891 
L 141.024894 277.085891 
L 141.024894 276.917752 
L 141.235139 276.917752 
L 141.235139 276.749613 
L 141.598842 276.749613 
L 141.598842 276.581474 
L 143.508796 276.581474 
L 143.508796 276.413334 
L 143.710045 276.413334 
L 143.710045 276.077056 
L 144.044473 276.077056 
L 144.075117 275.740777 
L 144.432703 275.740777 
L 144.432703 275.572638 
L 144.730105 275.572638 
L 144.730105 275.404498 
L 145.429504 275.404498 
L 145.429504 275.236359 
L 145.943118 275.236359 
L 145.943118 275.06822 
L 146.058265 275.06822 
L 146.058265 274.900081 
L 146.221454 274.900081 
L 146.221454 274.731941 
L 146.420639 274.731941 
L 146.420639 274.563802 
L 148.103206 274.563802 
L 148.103206 274.395663 
L 149.099738 274.395663 
L 149.099738 274.227523 
L 150.103169 274.227523 
L 150.103169 274.059384 
L 154.886723 274.059384 
L 154.886723 273.891245 
L 155.816782 273.891245 
L 155.816782 273.723105 
L 156.463607 273.723105 
L 156.463607 273.554966 
L 157.440836 273.554966 
L 157.440836 273.386827 
L 158.991653 273.386827 
L 159.079941 273.050548 
L 159.730716 273.050548 
L 159.753159 272.71427 
L 159.887213 272.71427 
L 159.887213 272.54613 
L 160.183902 272.54613 
L 160.183902 272.377991 
L 162.688876 272.377991 
L 162.688876 272.209852 
L 174.257463 272.209852 
L 174.257463 272.041713 
L 175.522013 272.041713 
L 175.620609 271.705434 
L 177.403359 271.705434 
L 177.403359 271.537295 
L 177.543188 271.537295 
L 177.543188 271.369155 
L 178.326791 271.369155 
L 178.326791 271.201016 
L 179.639418 271.201016 
L 179.639418 271.032877 
L 180.589104 271.032877 
L 180.589104 270.864737 
L 181.240755 270.864737 
L 181.240755 270.696598 
L 181.389847 270.696598 
L 181.389847 270.528459 
L 184.291061 270.528459 
L 184.291061 270.36032 
L 185.105304 270.36032 
L 185.105304 270.19218 
L 185.242207 270.19218 
L 185.242207 270.024041 
L 185.375749 270.024041 
L 185.375749 269.855902 
L 186.761356 269.855902 
L 186.761356 269.687762 
L 186.887477 269.687762 
L 186.887477 269.519623 
L 188.129355 269.519623 
L 188.129355 269.351484 
L 194.370894 269.351484 
L 194.370894 269.183344 
L 194.682703 269.183344 
L 194.707906 268.678927 
L 198.157629 268.678927 
L 198.157629 268.510787 
L 202.771498 268.510787 
L 202.771498 268.342648 
L 203.496993 268.342648 
L 203.598128 268.006369 
L 203.620903 268.006369 
L 203.620903 267.670091 
L 203.907178 267.670091 
L 203.907178 267.501952 
L 206.650565 267.501952 
L 206.650565 267.333812 
L 206.794551 267.333812 
L 206.794551 267.165673 
L 207.364746 267.165673 
L 207.364746 266.997534 
L 207.976613 266.997534 
L 207.976613 266.829394 
L 209.274583 266.829394 
L 209.274583 266.661255 
L 210.95824 266.661255 
L 210.95824 266.493116 
L 213.808838 266.493116 
L 213.856725 266.156837 
L 216.844201 266.156837 
L 216.844201 265.988698 
L 217.540663 265.988698 
L 217.540663 265.820559 
L 219.287333 265.820559 
L 219.287333 265.652419 
L 221.648385 265.652419 
L 221.648385 265.48428 
L 226.362344 265.48428 
L 226.362344 265.148001 
L 231.558995 265.148001 
L 231.558995 264.979862 
L 232.194785 264.979862 
L 232.194785 264.811723 
L 233.052728 264.811723 
L 233.052728 264.643583 
L 239.43604 264.643583 
L 239.43604 264.475444 
L 241.798796 264.475444 
L 241.798796 264.139166 
L 242.470783 264.139166 
L 242.470783 263.802887 
L 243.34485 263.802887 
L 243.34485 263.634748 
L 247.135784 263.634748 
L 247.135784 263.298469 
L 247.393415 263.298469 
L 247.393415 263.13033 
L 248.8965 263.13033 
L 249.004979 262.289633 
L 250.993587 262.289633 
L 250.993587 262.121494 
L 338.688 262.121494 
L 338.688 262.121494 
" style="fill:none;stroke:#ff00ff;stroke-linecap:square;stroke-width:1.5;"/>
   </g>
   <g id="line2d_41">
    <defs>
     <path d="M 0 8.485281 
L 5.091169 0 
L 0 -8.485281 
L -5.091169 0 
z
" id="me27127d1cd" style="stroke:#ff00ff;stroke-linejoin:miter;stroke-width:1.5;"/>
    </defs>
    <g>
     <use style="fill-opacity:0;stroke:#ff00ff;stroke-linejoin:miter;stroke-width:1.5;" x="150.103169" xlink:href="#me27127d1cd" y="274.227523"/>
     <use style="fill-opacity:0;stroke:#ff00ff;stroke-linejoin:miter;stroke-width:1.5;" x="219.287333" xlink:href="#me27127d1cd" y="265.820559"/>
     <use style="fill-opacity:0;stroke:#ff00ff;stroke-linejoin:miter;stroke-width:1.5;" x="250.993587" xlink:href="#me27127d1cd" y="262.289633"/>
     <use style="fill-opacity:0;stroke:#ff00ff;stroke-linejoin:miter;stroke-width:1.5;" x="250.993587" xlink:href="#me27127d1cd" y="262.121494"/>
     <use style="fill-opacity:0;stroke:#ff00ff;stroke-linejoin:miter;stroke-width:1.5;" x="338.688" xlink:href="#me27127d1cd" y="262.121494"/>
    </g>
   </g>
   <g id="line2d_42">
    <path style="fill:none;stroke:#ff00ff;stroke-linecap:square;stroke-width:1.5;"/>
    <g/>
   </g>
   <g id="line2d_43">
    <path clip-path="url(#pd81b164368)" d="M 258.378024 262.121494 
" style="fill:none;stroke:#ff00ff;stroke-linecap:square;stroke-width:1.5;"/>
    <defs>
     <path d="M -12 12 
L 12 -12 
M -12 -12 
L 12 12 
" id="m388a9f66b5" style="stroke:#ff00ff;"/>
    </defs>
    <g clip-path="url(#pd81b164368)">
     <use style="fill:#ff00ff;stroke:#ff00ff;" x="258.378024" xlink:href="#m388a9f66b5" y="262.121494"/>
    </g>
   </g>
   <g id="line2d_44">
    <defs>
     <path d="M 0 1.5 
C 0.397805 1.5 0.77937 1.341951 1.06066 1.06066 
C 1.341951 0.77937 1.5 0.397805 1.5 0 
C 1.5 -0.397805 1.341951 -0.77937 1.06066 -1.06066 
C 0.77937 -1.341951 0.397805 -1.5 0 -1.5 
C -0.397805 -1.5 -0.77937 -1.341951 -1.06066 -1.06066 
C -1.341951 -0.77937 -1.5 -0.397805 -1.5 0 
C -1.5 0.397805 -1.341951 0.77937 -1.06066 1.06066 
C -0.77937 1.341951 -0.397805 1.5 0 1.5 
z
" id="mc0dec535d8" style="stroke:#ff7500;"/>
    </defs>
    <g>
     <use style="fill:#ff7500;stroke:#ff7500;" x="250.314552" xlink:href="#mc0dec535d8" y="247.493375"/>
     <use style="fill:#ff7500;stroke:#ff7500;" x="250.314552" xlink:href="#mc0dec535d8" y="247.493375"/>
    </g>
   </g>
   <g id="line2d_45">
    <path d="M 152.844609 298.944 
L 152.844609 298.775861 
L 153.297887 298.775861 
L 153.391454 298.271443 
L 153.505927 298.271443 
L 153.505927 298.103304 
L 154.557513 298.103304 
L 154.59105 297.767025 
L 154.674612 297.767025 
L 154.674612 297.598886 
L 154.847148 297.598886 
L 154.847148 297.430746 
L 155.219531 297.430746 
L 155.219531 297.262607 
L 155.571464 297.262607 
L 155.628383 296.926328 
L 155.70713 296.926328 
L 155.798033 296.421911 
L 155.907117 296.421911 
L 155.928852 296.085632 
L 156.315521 296.085632 
L 156.400295 295.749353 
L 156.51169 295.749353 
L 156.613429 295.244935 
L 156.664077 295.244935 
L 156.773805 294.908657 
L 156.888722 294.908657 
L 156.991212 293.899821 
L 157.020384 293.899821 
L 157.03204 293.563543 
L 157.148166 293.563543 
L 157.226117 293.227264 
L 157.272146 293.227264 
L 157.272146 293.059125 
L 157.429451 293.059125 
L 157.455057 292.554707 
L 157.683837 292.554707 
L 157.762229 292.218428 
L 157.870833 292.218428 
L 157.898572 291.88215 
L 158.075062 291.88215 
L 158.162642 291.377732 
L 158.217157 291.377732 
L 158.217157 291.209592 
L 158.393162 291.209592 
L 158.492562 290.537035 
L 158.511304 290.537035 
L 158.58607 290.032617 
L 158.716146 290.032617 
L 158.79794 289.36006 
L 158.955169 289.36006 
L 159.064393 288.687503 
L 159.07476 288.687503 
L 159.116165 288.351224 
L 159.229524 288.351224 
L 159.247491 287.846806 
L 159.342152 287.846806 
L 159.451521 287.342389 
L 159.504686 287.342389 
L 159.59545 286.669831 
L 159.768105 286.669831 
L 159.867418 286.333553 
L 159.924268 286.333553 
L 159.924268 286.165413 
L 160.042317 286.165413 
L 160.042317 285.997274 
L 160.210625 285.997274 
L 160.273627 285.492856 
L 160.384537 285.492856 
L 160.384537 285.324717 
L 160.509069 285.324717 
L 160.509069 285.156578 
L 160.66586 285.156578 
L 160.729597 284.820299 
L 160.793103 284.820299 
L 160.86807 284.147742 
L 161.014727 284.147742 
L 161.044837 283.811463 
L 161.148663 283.811463 
L 161.233571 283.307045 
L 161.26102 283.307045 
L 161.368114 282.970767 
L 161.59381 282.970767 
L 161.687738 282.634488 
L 161.84538 282.634488 
L 161.913765 281.793792 
L 161.992845 281.793792 
L 162.099909 281.289374 
L 162.210648 281.289374 
L 162.275462 280.448677 
L 162.329291 280.448677 
L 162.385097 280.112399 
L 162.50469 280.112399 
L 162.540834 279.77612 
L 162.62347 279.77612 
L 162.705716 279.103563 
L 162.862799 279.103563 
L 162.9543 278.599145 
L 163.063884 278.599145 
L 163.148187 278.094727 
L 163.183022 278.094727 
L 163.278972 277.590309 
L 163.378445 277.590309 
L 163.378445 277.42217 
L 163.611696 277.42217 
L 163.655584 276.917752 
L 163.748975 276.917752 
L 163.786588 276.581474 
L 164.024234 276.581474 
L 164.080713 275.908916 
L 164.46532 275.908916 
L 164.507113 275.572638 
L 164.641313 275.572638 
L 164.677051 275.236359 
L 164.815548 275.236359 
L 164.9048 274.900081 
L 164.971439 274.900081 
L 165.061737 274.395663 
L 165.151569 274.395663 
L 165.244578 274.059384 
L 165.366018 274.059384 
L 165.430922 273.386827 
L 165.533195 273.386827 
L 165.638429 273.050548 
L 165.780111 273.050548 
L 165.813593 272.71427 
L 165.918903 272.71427 
L 165.918903 272.54613 
L 166.056598 272.54613 
L 166.160455 272.041713 
L 166.236226 272.041713 
L 166.31509 271.705434 
L 166.635428 271.705434 
L 166.635428 271.537295 
L 166.789256 271.537295 
L 166.849082 271.032877 
L 166.968122 271.032877 
L 167.043752 270.528459 
L 167.25087 270.528459 
L 167.322057 270.19218 
L 167.640438 270.19218 
L 167.640438 270.024041 
L 167.935973 270.024041 
L 167.935973 269.855902 
L 168.350315 269.855902 
L 168.350315 269.687762 
L 168.812946 269.687762 
L 168.879523 269.351484 
L 169.361571 269.351484 
L 169.375929 269.015205 
L 169.715615 269.015205 
L 169.715615 268.847066 
L 169.925477 268.847066 
L 169.925477 268.678927 
L 170.42313 268.678927 
L 170.42313 268.510787 
L 170.591263 268.510787 
L 170.604643 268.006369 
L 170.933246 268.006369 
L 170.933246 267.83823 
L 171.410994 267.83823 
L 171.446717 267.501952 
L 171.617934 267.501952 
L 171.617934 267.333812 
L 171.766226 267.333812 
L 171.766226 266.997534 
L 171.88719 266.997534 
L 171.88719 266.829394 
L 173.31698 266.829394 
L 173.31698 266.661255 
L 174.168282 266.661255 
L 174.168282 266.493116 
L 174.348349 266.493116 
L 174.423728 266.156837 
L 174.515891 266.156837 
L 174.515891 265.988698 
L 174.642622 265.988698 
L 174.642622 265.820559 
L 174.768439 265.820559 
L 174.768439 265.652419 
L 174.969543 265.652419 
L 174.969543 265.48428 
L 175.088895 265.48428 
L 175.088895 265.316141 
L 175.209489 265.316141 
L 175.209489 265.148001 
L 175.606558 265.148001 
L 175.606558 264.979862 
L 175.791324 264.979862 
L 175.791324 264.643583 
L 176.921237 264.643583 
L 176.963088 264.139166 
L 177.239557 264.139166 
L 177.239557 263.802887 
L 177.45491 263.802887 
L 177.45491 263.634748 
L 177.65157 263.634748 
L 177.65157 263.466608 
L 178.289814 263.466608 
L 178.289814 263.298469 
L 178.88723 263.298469 
L 178.88723 262.962191 
L 179.671259 262.962191 
L 179.671259 262.794051 
L 180.735618 262.794051 
L 180.735618 262.625912 
L 181.159888 262.625912 
L 181.265451 262.289633 
L 181.775431 262.289633 
L 181.775431 262.121494 
L 182.597405 262.121494 
L 182.597405 261.785215 
L 183.548719 261.785215 
L 183.548719 261.617076 
L 183.690139 261.617076 
L 183.690139 261.280798 
L 183.840444 261.280798 
L 183.907317 260.60824 
L 183.974557 260.60824 
L 183.974557 260.271962 
L 184.415708 260.271962 
L 184.415708 260.103822 
L 184.69757 260.103822 
L 184.779646 259.431265 
L 185.781556 259.431265 
L 185.781556 259.263126 
L 186.335143 259.263126 
L 186.368218 258.926847 
L 186.463835 258.926847 
L 186.463835 258.758708 
L 186.951508 258.758708 
L 186.951508 258.590569 
L 187.397851 258.590569 
L 187.469703 258.086151 
L 187.736164 258.086151 
L 187.736164 257.918012 
L 188.094063 257.918012 
L 188.094063 257.749872 
L 188.608457 257.749872 
L 188.608457 257.581733 
L 189.762314 257.581733 
L 189.762314 257.245454 
L 190.443534 257.245454 
L 190.515853 256.741037 
L 191.081787 256.741037 
L 191.081787 256.404758 
L 192.208326 256.404758 
L 192.208326 256.236619 
L 193.132117 256.236619 
L 193.132117 256.068479 
L 193.509156 256.068479 
L 193.566611 255.732201 
L 193.900036 255.732201 
L 193.900036 255.564061 
L 194.372264 255.564061 
L 194.372264 255.395922 
L 194.802008 255.395922 
L 194.85836 255.059644 
L 194.961588 255.059644 
L 194.961588 254.891504 
L 196.155814 254.891504 
L 196.155814 254.555226 
L 196.557838 254.555226 
L 196.557838 254.387086 
L 196.922729 254.387086 
L 196.922729 254.050808 
L 197.326439 254.050808 
L 197.326439 253.882668 
L 197.601955 253.882668 
L 197.601955 253.54639 
L 197.736827 253.54639 
L 197.736827 253.378251 
L 198.41906 253.378251 
L 198.41906 253.210111 
L 198.693204 253.210111 
L 198.693204 252.873833 
L 199.534028 252.873833 
L 199.534028 252.705693 
L 199.727728 252.705693 
L 199.817641 252.201276 
L 200.381098 252.201276 
L 200.381098 252.033136 
L 202.313618 252.033136 
L 202.313618 251.864997 
L 203.812208 251.864997 
L 203.812208 251.696858 
L 203.942412 251.696858 
L 203.942412 251.360579 
L 204.090287 251.360579 
L 204.090287 251.19244 
L 204.9734 251.19244 
L 204.9734 251.0243 
L 206.655643 251.0243 
L 206.655643 250.856161 
L 207.545811 250.856161 
L 207.545811 250.688022 
L 208.542541 250.688022 
L 208.542541 250.351743 
L 212.376798 250.351743 
L 212.376798 250.183604 
L 213.174724 250.183604 
L 213.174724 250.015465 
L 213.356388 250.015465 
L 213.356388 249.847325 
L 216.008338 249.847325 
L 216.008338 249.679186 
L 218.054633 249.679186 
L 218.112026 249.174768 
L 218.337388 249.174768 
L 218.337388 249.006629 
L 218.531459 249.006629 
L 218.531459 248.83849 
L 220.47774 248.83849 
L 220.47774 248.67035 
L 220.864091 248.67035 
L 220.864091 248.502211 
L 230.373501 248.502211 
L 230.373501 248.334072 
L 234.453595 248.334072 
L 234.453595 248.165932 
L 236.61809 248.165932 
L 236.61809 247.829654 
L 246.428702 247.829654 
L 246.428702 247.661515 
L 250.314552 247.661515 
L 250.314552 247.493375 
L 338.688 247.493375 
L 338.688 247.493375 
" style="fill:none;stroke:#ff7500;stroke-linecap:square;stroke-width:1.5;"/>
   </g>
   <g id="line2d_46">
    <defs>
     <path d="M 0 -6 
L -1.347084 -1.854102 
L -5.706339 -1.854102 
L -2.179628 0.708204 
L -3.526712 4.854102 
L -0 2.291796 
L 3.526712 4.854102 
L 2.179628 0.708204 
L 5.706339 -1.854102 
L 1.347084 -1.854102 
z
" id="m16e581e307" style="stroke:#ff7500;stroke-linejoin:bevel;stroke-width:1.5;"/>
    </defs>
    <g>
     <use style="fill-opacity:0;stroke:#ff7500;stroke-linejoin:bevel;stroke-width:1.5;" x="236.61809" xlink:href="#m16e581e307" y="248.165932"/>
     <use style="fill-opacity:0;stroke:#ff7500;stroke-linejoin:bevel;stroke-width:1.5;" x="250.314552" xlink:href="#m16e581e307" y="247.493375"/>
     <use style="fill-opacity:0;stroke:#ff7500;stroke-linejoin:bevel;stroke-width:1.5;" x="250.314552" xlink:href="#m16e581e307" y="247.493375"/>
     <use style="fill-opacity:0;stroke:#ff7500;stroke-linejoin:bevel;stroke-width:1.5;" x="338.688" xlink:href="#m16e581e307" y="247.493375"/>
    </g>
   </g>
   <g id="line2d_47">
    <path style="fill:none;stroke:#ff7500;stroke-linecap:square;stroke-width:1.5;"/>
    <g/>
   </g>
   <g id="line2d_48">
    <path clip-path="url(#pd81b164368)" d="M 258.377152 247.493375 
" style="fill:none;stroke:#ff7500;stroke-linecap:square;stroke-width:1.5;"/>
    <defs>
     <path d="M -12 12 
L 12 -12 
M -12 -12 
L 12 12 
" id="m2f39e236f5" style="stroke:#ff7500;"/>
    </defs>
    <g clip-path="url(#pd81b164368)">
     <use style="fill:#ff7500;stroke:#ff7500;" x="258.377152" xlink:href="#m2f39e236f5" y="247.493375"/>
    </g>
   </g>
   <g id="line2d_49">
    <path d="M 338.688 262.121494 
L 369.60768 293.092752 
" style="fill:none;stroke:#ff00ff;stroke-linecap:square;stroke-width:1.5;"/>
    <g>
     <use style="fill-opacity:0;stroke:#ff00ff;stroke-linejoin:miter;stroke-width:1.5;" x="338.688" xlink:href="#me27127d1cd" y="262.121494"/>
     <use style="fill-opacity:0;stroke:#ff00ff;stroke-linejoin:miter;stroke-width:1.5;" x="369.60768" xlink:href="#me27127d1cd" y="293.092752"/>
    </g>
   </g>
   <g id="line2d_50">
    <path d="M 338.688 247.493375 
L 369.60768 199.472792 
" style="fill:none;stroke:#ff7500;stroke-linecap:square;stroke-width:1.5;"/>
    <g>
     <use style="fill-opacity:0;stroke:#ff7500;stroke-linejoin:bevel;stroke-width:1.5;" x="338.688" xlink:href="#m16e581e307" y="247.493375"/>
     <use style="fill-opacity:0;stroke:#ff7500;stroke-linejoin:bevel;stroke-width:1.5;" x="369.60768" xlink:href="#m16e581e307" y="199.472792"/>
    </g>
   </g>
   <g id="line2d_51">
    <path d="M 338.688 217.73272 
L 369.60768 105.852832 
" style="fill:none;stroke:#000080;stroke-linecap:square;stroke-width:1.5;"/>
    <g>
     <use style="fill-opacity:0;stroke:#000080;stroke-width:1.5;" x="338.688" xlink:href="#m3e341c2162" y="217.73272"/>
     <use style="fill-opacity:0;stroke:#000080;stroke-width:1.5;" x="369.60768" xlink:href="#m3e341c2162" y="105.852832"/>
    </g>
   </g>
   <g id="line2d_52">
    <path d="M 338.688 298.944 
L 338.688 6.381624 
" style="fill:none;stroke:#000000;stroke-linecap:square;stroke-width:1.5;"/>
   </g>
   <g id="patch_3">
    <path d="M 57.6 298.944 
L 57.6 3.456 
" style="fill:none;stroke:#000000;stroke-linecap:square;stroke-linejoin:miter;stroke-width:0.8;"/>
   </g>
   <g id="patch_4">
    <path d="M 338.688 298.944 
L 338.688 3.456 
" style="fill:none;stroke:#000000;stroke-linecap:square;stroke-linejoin:miter;stroke-width:0.8;"/>
   </g>
   <g id="patch_5">
    <path d="M 57.6 298.944 
L 338.688 298.944 
" style="fill:none;stroke:#000000;stroke-linecap:square;stroke-linejoin:miter;stroke-width:0.8;"/>
   </g>
   <g id="patch_6">
    <path d="M 57.6 3.456 
L 338.688 3.456 
" style="fill:none;stroke:#000000;stroke-linecap:square;stroke-linejoin:miter;stroke-width:0.8;"/>
   </g>
   <g id="text_13">
    <!-- NSGA-II-M -->
    <g transform="translate(375.22944 297.78369)scale(0.17 -0.17)">
     <defs>
      <path d="M 9.8125 72.90625 
L 23.09375 72.90625 
L 55.421875 11.921875 
L 55.421875 72.90625 
L 64.984375 72.90625 
L 64.984375 0 
L 51.703125 0 
L 19.390625 60.984375 
L 19.390625 0 
L 9.8125 0 
z
" id="DejaVuSans-78"/>
      <path d="M 53.515625 70.515625 
L 53.515625 60.890625 
Q 47.90625 63.578125 42.921875 64.890625 
Q 37.9375 66.21875 33.296875 66.21875 
Q 25.25 66.21875 20.875 63.09375 
Q 16.5 59.96875 16.5 54.203125 
Q 16.5 49.359375 19.40625 46.890625 
Q 22.3125 44.4375 30.421875 42.921875 
L 36.375 41.703125 
Q 47.40625 39.59375 52.65625 34.296875 
Q 57.90625 29 57.90625 20.125 
Q 57.90625 9.515625 50.796875 4.046875 
Q 43.703125 -1.421875 29.984375 -1.421875 
Q 24.8125 -1.421875 18.96875 -0.25 
Q 13.140625 0.921875 6.890625 3.21875 
L 6.890625 13.375 
Q 12.890625 10.015625 18.65625 8.296875 
Q 24.421875 6.59375 29.984375 6.59375 
Q 38.421875 6.59375 43.015625 9.90625 
Q 47.609375 13.234375 47.609375 19.390625 
Q 47.609375 24.75 44.3125 27.78125 
Q 41.015625 30.8125 33.5 32.328125 
L 27.484375 33.5 
Q 16.453125 35.6875 11.515625 40.375 
Q 6.59375 45.0625 6.59375 53.421875 
Q 6.59375 63.09375 13.40625 68.65625 
Q 20.21875 74.21875 32.171875 74.21875 
Q 37.3125 74.21875 42.625 73.28125 
Q 47.953125 72.359375 53.515625 70.515625 
z
" id="DejaVuSans-83"/>
      <path d="M 59.515625 10.40625 
L 59.515625 29.984375 
L 43.40625 29.984375 
L 43.40625 38.09375 
L 69.28125 38.09375 
L 69.28125 6.78125 
Q 63.578125 2.734375 56.6875 0.65625 
Q 49.8125 -1.421875 42 -1.421875 
Q 24.90625 -1.421875 15.25 8.5625 
Q 5.609375 18.5625 5.609375 36.375 
Q 5.609375 54.25 15.25 64.234375 
Q 24.90625 74.21875 42 74.21875 
Q 49.125 74.21875 55.546875 72.453125 
Q 61.96875 70.703125 67.390625 67.28125 
L 67.390625 56.78125 
Q 61.921875 61.421875 55.765625 63.765625 
Q 49.609375 66.109375 42.828125 66.109375 
Q 29.4375 66.109375 22.71875 58.640625 
Q 16.015625 51.171875 16.015625 36.375 
Q 16.015625 21.625 22.71875 14.15625 
Q 29.4375 6.6875 42.828125 6.6875 
Q 48.046875 6.6875 52.140625 7.59375 
Q 56.25 8.5 59.515625 10.40625 
z
" id="DejaVuSans-71"/>
      <path d="M 34.1875 63.1875 
L 20.796875 26.90625 
L 47.609375 26.90625 
z
M 28.609375 72.90625 
L 39.796875 72.90625 
L 67.578125 0 
L 57.328125 0 
L 50.6875 18.703125 
L 17.828125 18.703125 
L 11.1875 0 
L 0.78125 0 
z
" id="DejaVuSans-65"/>
      <path d="M 9.8125 72.90625 
L 19.671875 72.90625 
L 19.671875 0 
L 9.8125 0 
z
" id="DejaVuSans-73"/>
      <path d="M 9.8125 72.90625 
L 24.515625 72.90625 
L 43.109375 23.296875 
L 61.8125 72.90625 
L 76.515625 72.90625 
L 76.515625 0 
L 66.890625 0 
L 66.890625 64.015625 
L 48.09375 14.015625 
L 38.1875 14.015625 
L 19.390625 64.015625 
L 19.390625 0 
L 9.8125 0 
z
" id="DejaVuSans-77"/>
     </defs>
     <use xlink:href="#DejaVuSans-78"/>
     <use x="74.804688" xlink:href="#DejaVuSans-83"/>
     <use x="138.28125" xlink:href="#DejaVuSans-71"/>
     <use x="215.771484" xlink:href="#DejaVuSans-65"/>
     <use x="281.929688" xlink:href="#DejaVuSans-45"/>
     <use x="318.013672" xlink:href="#DejaVuSans-73"/>
     <use x="347.505859" xlink:href="#DejaVuSans-73"/>
     <use x="376.998047" xlink:href="#DejaVuSans-45"/>
     <use x="413.082031" xlink:href="#DejaVuSans-77"/>
    </g>
   </g>
   <g id="text_14">
    <!-- SMS-EMOA- -->
    <g transform="translate(375.22944 204.16373)scale(0.17 -0.17)">
     <defs>
      <path d="M 9.8125 72.90625 
L 55.90625 72.90625 
L 55.90625 64.59375 
L 19.671875 64.59375 
L 19.671875 43.015625 
L 54.390625 43.015625 
L 54.390625 34.71875 
L 19.671875 34.71875 
L 19.671875 8.296875 
L 56.78125 8.296875 
L 56.78125 0 
L 9.8125 0 
z
" id="DejaVuSans-69"/>
      <path d="M 39.40625 66.21875 
Q 28.65625 66.21875 22.328125 58.203125 
Q 16.015625 50.203125 16.015625 36.375 
Q 16.015625 22.609375 22.328125 14.59375 
Q 28.65625 6.59375 39.40625 6.59375 
Q 50.140625 6.59375 56.421875 14.59375 
Q 62.703125 22.609375 62.703125 36.375 
Q 62.703125 50.203125 56.421875 58.203125 
Q 50.140625 66.21875 39.40625 66.21875 
z
M 39.40625 74.21875 
Q 54.734375 74.21875 63.90625 63.9375 
Q 73.09375 53.65625 73.09375 36.375 
Q 73.09375 19.140625 63.90625 8.859375 
Q 54.734375 -1.421875 39.40625 -1.421875 
Q 24.03125 -1.421875 14.8125 8.828125 
Q 5.609375 19.09375 5.609375 36.375 
Q 5.609375 53.65625 14.8125 63.9375 
Q 24.03125 74.21875 39.40625 74.21875 
z
" id="DejaVuSans-79"/>
     </defs>
     <use xlink:href="#DejaVuSans-83"/>
     <use x="63.476562" xlink:href="#DejaVuSans-77"/>
     <use x="149.755859" xlink:href="#DejaVuSans-83"/>
     <use x="213.232422" xlink:href="#DejaVuSans-45"/>
     <use x="249.316406" xlink:href="#DejaVuSans-69"/>
     <use x="312.5" xlink:href="#DejaVuSans-77"/>
     <use x="398.779297" xlink:href="#DejaVuSans-79"/>
     <use x="475.740234" xlink:href="#DejaVuSans-65"/>
     <use x="541.898438" xlink:href="#DejaVuSans-45"/>
    </g>
   </g>
   <g id="text_15">
    <!-- COMO-100  -->
    <g transform="translate(375.22944 110.543769)scale(0.17 -0.17)">
     <defs>
      <path d="M 64.40625 67.28125 
L 64.40625 56.890625 
Q 59.421875 61.53125 53.78125 63.8125 
Q 48.140625 66.109375 41.796875 66.109375 
Q 29.296875 66.109375 22.65625 58.46875 
Q 16.015625 50.828125 16.015625 36.375 
Q 16.015625 21.96875 22.65625 14.328125 
Q 29.296875 6.6875 41.796875 6.6875 
Q 48.140625 6.6875 53.78125 8.984375 
Q 59.421875 11.28125 64.40625 15.921875 
L 64.40625 5.609375 
Q 59.234375 2.09375 53.4375 0.328125 
Q 47.65625 -1.421875 41.21875 -1.421875 
Q 24.65625 -1.421875 15.125 8.703125 
Q 5.609375 18.84375 5.609375 36.375 
Q 5.609375 53.953125 15.125 64.078125 
Q 24.65625 74.21875 41.21875 74.21875 
Q 47.75 74.21875 53.53125 72.484375 
Q 59.328125 70.75 64.40625 67.28125 
z
" id="DejaVuSans-67"/>
     </defs>
     <use xlink:href="#DejaVuSans-67"/>
     <use x="69.824219" xlink:href="#DejaVuSans-79"/>
     <use x="148.535156" xlink:href="#DejaVuSans-77"/>
     <use x="234.814453" xlink:href="#DejaVuSans-79"/>
     <use x="316.275391" xlink:href="#DejaVuSans-45"/>
     <use x="352.359375" xlink:href="#DejaVuSans-49"/>
     <use x="415.982422" xlink:href="#DejaVuSans-48"/>
     <use x="479.605469" xlink:href="#DejaVuSans-48"/>
     <use x="543.228516" xlink:href="#DejaVuSans-32"/>
    </g>
   </g>
   <g id="text_16">
    <!-- best 2016 -->
    <g transform="translate(375.22944 16.923809)scale(0.17 -0.17)">
     <defs>
      <path d="M 48.6875 27.296875 
Q 48.6875 37.203125 44.609375 42.84375 
Q 40.53125 48.484375 33.40625 48.484375 
Q 26.265625 48.484375 22.1875 42.84375 
Q 18.109375 37.203125 18.109375 27.296875 
Q 18.109375 17.390625 22.1875 11.75 
Q 26.265625 6.109375 33.40625 6.109375 
Q 40.53125 6.109375 44.609375 11.75 
Q 48.6875 17.390625 48.6875 27.296875 
z
M 18.109375 46.390625 
Q 20.953125 51.265625 25.265625 53.625 
Q 29.59375 56 35.59375 56 
Q 45.5625 56 51.78125 48.09375 
Q 58.015625 40.1875 58.015625 27.296875 
Q 58.015625 14.40625 51.78125 6.484375 
Q 45.5625 -1.421875 35.59375 -1.421875 
Q 29.59375 -1.421875 25.265625 0.953125 
Q 20.953125 3.328125 18.109375 8.203125 
L 18.109375 0 
L 9.078125 0 
L 9.078125 75.984375 
L 18.109375 75.984375 
z
" id="DejaVuSans-98"/>
     </defs>
     <use xlink:href="#DejaVuSans-98"/>
     <use x="63.476562" xlink:href="#DejaVuSans-101"/>
     <use x="125" xlink:href="#DejaVuSans-115"/>
     <use x="177.099609" xlink:href="#DejaVuSans-116"/>
     <use x="216.308594" xlink:href="#DejaVuSans-32"/>
     <use x="248.095703" xlink:href="#DejaVuSans-50"/>
     <use x="311.71875" xlink:href="#DejaVuSans-48"/>
     <use x="375.341797" xlink:href="#DejaVuSans-49"/>
     <use x="438.964844" xlink:href="#DejaVuSans-54"/>
    </g>
   </g>
   <g id="text_17">
    <!-- bbob-biobj f46, f47, f50, 20-D -->
    <g transform="translate(60.41088 14.161286)scale(0.102 -0.102)">
     <defs>
      <path d="M 9.421875 54.6875 
L 18.40625 54.6875 
L 18.40625 -0.984375 
Q 18.40625 -11.421875 14.421875 -16.109375 
Q 10.453125 -20.796875 1.609375 -20.796875 
L -1.8125 -20.796875 
L -1.8125 -13.1875 
L 0.59375 -13.1875 
Q 5.71875 -13.1875 7.5625 -10.8125 
Q 9.421875 -8.453125 9.421875 -0.984375 
z
M 9.421875 75.984375 
L 18.40625 75.984375 
L 18.40625 64.59375 
L 9.421875 64.59375 
z
" id="DejaVuSans-106"/>
      <path d="M 8.203125 72.90625 
L 55.078125 72.90625 
L 55.078125 68.703125 
L 28.609375 0 
L 18.3125 0 
L 43.21875 64.59375 
L 8.203125 64.59375 
z
" id="DejaVuSans-55"/>
      <path d="M 10.796875 72.90625 
L 49.515625 72.90625 
L 49.515625 64.59375 
L 19.828125 64.59375 
L 19.828125 46.734375 
Q 21.96875 47.46875 24.109375 47.828125 
Q 26.265625 48.1875 28.421875 48.1875 
Q 40.625 48.1875 47.75 41.5 
Q 54.890625 34.8125 54.890625 23.390625 
Q 54.890625 11.625 47.5625 5.09375 
Q 40.234375 -1.421875 26.90625 -1.421875 
Q 22.3125 -1.421875 17.546875 -0.640625 
Q 12.796875 0.140625 7.71875 1.703125 
L 7.71875 11.625 
Q 12.109375 9.234375 16.796875 8.0625 
Q 21.484375 6.890625 26.703125 6.890625 
Q 35.15625 6.890625 40.078125 11.328125 
Q 45.015625 15.765625 45.015625 23.390625 
Q 45.015625 31 40.078125 35.4375 
Q 35.15625 39.890625 26.703125 39.890625 
Q 22.75 39.890625 18.8125 39.015625 
Q 14.890625 38.140625 10.796875 36.28125 
z
" id="DejaVuSans-53"/>
      <path d="M 19.671875 64.796875 
L 19.671875 8.109375 
L 31.59375 8.109375 
Q 46.6875 8.109375 53.6875 14.9375 
Q 60.6875 21.78125 60.6875 36.53125 
Q 60.6875 51.171875 53.6875 57.984375 
Q 46.6875 64.796875 31.59375 64.796875 
z
M 9.8125 72.90625 
L 30.078125 72.90625 
Q 51.265625 72.90625 61.171875 64.09375 
Q 71.09375 55.28125 71.09375 36.53125 
Q 71.09375 17.671875 61.125 8.828125 
Q 51.171875 0 30.078125 0 
L 9.8125 0 
z
" id="DejaVuSans-68"/>
     </defs>
     <use xlink:href="#DejaVuSans-98"/>
     <use x="63.476562" xlink:href="#DejaVuSans-98"/>
     <use x="126.953125" xlink:href="#DejaVuSans-111"/>
     <use x="188.134766" xlink:href="#DejaVuSans-98"/>
     <use x="251.611328" xlink:href="#DejaVuSans-45"/>
     <use x="287.695312" xlink:href="#DejaVuSans-98"/>
     <use x="351.171875" xlink:href="#DejaVuSans-105"/>
     <use x="378.955078" xlink:href="#DejaVuSans-111"/>
     <use x="440.136719" xlink:href="#DejaVuSans-98"/>
     <use x="503.613281" xlink:href="#DejaVuSans-106"/>
     <use x="531.396484" xlink:href="#DejaVuSans-32"/>
     <use x="563.183594" xlink:href="#DejaVuSans-102"/>
     <use x="598.388672" xlink:href="#DejaVuSans-52"/>
     <use x="662.011719" xlink:href="#DejaVuSans-54"/>
     <use x="725.634766" xlink:href="#DejaVuSans-44"/>
     <use x="757.421875" xlink:href="#DejaVuSans-32"/>
     <use x="789.208984" xlink:href="#DejaVuSans-102"/>
     <use x="824.414062" xlink:href="#DejaVuSans-52"/>
     <use x="888.037109" xlink:href="#DejaVuSans-55"/>
     <use x="951.660156" xlink:href="#DejaVuSans-44"/>
     <use x="983.447266" xlink:href="#DejaVuSans-32"/>
     <use x="1015.234375" xlink:href="#DejaVuSans-102"/>
     <use x="1050.439453" xlink:href="#DejaVuSans-53"/>
     <use x="1114.0625" xlink:href="#DejaVuSans-48"/>
     <use x="1177.685547" xlink:href="#DejaVuSans-44"/>
     <use x="1209.472656" xlink:href="#DejaVuSans-32"/>
     <use x="1241.259766" xlink:href="#DejaVuSans-50"/>
     <use x="1304.882812" xlink:href="#DejaVuSans-48"/>
     <use x="1368.505859" xlink:href="#DejaVuSans-45"/>
     <use x="1404.589844" xlink:href="#DejaVuSans-68"/>
    </g>
    <!-- 58 targets: 1..-1.0e-4 -->
    <g transform="translate(60.41088 25.583055)scale(0.102 -0.102)">
     <defs>
      <path d="M 11.71875 12.40625 
L 22.015625 12.40625 
L 22.015625 0 
L 11.71875 0 
z
M 11.71875 51.703125 
L 22.015625 51.703125 
L 22.015625 39.3125 
L 11.71875 39.3125 
z
" id="DejaVuSans-58"/>
     </defs>
     <use xlink:href="#DejaVuSans-53"/>
     <use x="63.623047" xlink:href="#DejaVuSans-56"/>
     <use x="127.246094" xlink:href="#DejaVuSans-32"/>
     <use x="159.033203" xlink:href="#DejaVuSans-116"/>
     <use x="198.242188" xlink:href="#DejaVuSans-97"/>
     <use x="259.521484" xlink:href="#DejaVuSans-114"/>
     <use x="298.884766" xlink:href="#DejaVuSans-103"/>
     <use x="362.361328" xlink:href="#DejaVuSans-101"/>
     <use x="423.884766" xlink:href="#DejaVuSans-116"/>
     <use x="463.09375" xlink:href="#DejaVuSans-115"/>
     <use x="515.193359" xlink:href="#DejaVuSans-58"/>
     <use x="548.884766" xlink:href="#DejaVuSans-32"/>
     <use x="580.671875" xlink:href="#DejaVuSans-49"/>
     <use x="644.294922" xlink:href="#DejaVuSans-46"/>
     <use x="676.082031" xlink:href="#DejaVuSans-46"/>
     <use x="707.869141" xlink:href="#DejaVuSans-45"/>
     <use x="743.953125" xlink:href="#DejaVuSans-49"/>
     <use x="807.576172" xlink:href="#DejaVuSans-46"/>
     <use x="839.363281" xlink:href="#DejaVuSans-48"/>
     <use x="902.986328" xlink:href="#DejaVuSans-101"/>
     <use x="964.509766" xlink:href="#DejaVuSans-45"/>
     <use x="1000.59375" xlink:href="#DejaVuSans-52"/>
    </g>
    <!-- 10 instances -->
    <g transform="translate(60.41088 37.004824)scale(0.102 -0.102)">
     <use xlink:href="#DejaVuSans-49"/>
     <use x="63.623047" xlink:href="#DejaVuSans-48"/>
     <use x="127.246094" xlink:href="#DejaVuSans-32"/>
     <use x="159.033203" xlink:href="#DejaVuSans-105"/>
     <use x="186.816406" xlink:href="#DejaVuSans-110"/>
     <use x="250.195312" xlink:href="#DejaVuSans-115"/>
     <use x="302.294922" xlink:href="#DejaVuSans-116"/>
     <use x="341.503906" xlink:href="#DejaVuSans-97"/>
     <use x="402.783203" xlink:href="#DejaVuSans-110"/>
     <use x="466.162109" xlink:href="#DejaVuSans-99"/>
     <use x="521.142578" xlink:href="#DejaVuSans-101"/>
     <use x="582.666016" xlink:href="#DejaVuSans-115"/>
    </g>
   </g>
   <g id="text_18">
    <!-- v2.4.19, hv-hash=ff0e71e8cd978373 -->
    <g style="fill:#808080;" transform="translate(104.697125 293.909432)scale(0.1 -0.1)">
     <defs>
      <path d="M 10.984375 1.515625 
L 10.984375 10.5 
Q 14.703125 8.734375 18.5 7.8125 
Q 22.3125 6.890625 25.984375 6.890625 
Q 35.75 6.890625 40.890625 13.453125 
Q 46.046875 20.015625 46.78125 33.40625 
Q 43.953125 29.203125 39.59375 26.953125 
Q 35.25 24.703125 29.984375 24.703125 
Q 19.046875 24.703125 12.671875 31.3125 
Q 6.296875 37.9375 6.296875 49.421875 
Q 6.296875 60.640625 12.9375 67.421875 
Q 19.578125 74.21875 30.609375 74.21875 
Q 43.265625 74.21875 49.921875 64.515625 
Q 56.59375 54.828125 56.59375 36.375 
Q 56.59375 19.140625 48.40625 8.859375 
Q 40.234375 -1.421875 26.421875 -1.421875 
Q 22.703125 -1.421875 18.890625 -0.6875 
Q 15.09375 0.046875 10.984375 1.515625 
z
M 30.609375 32.421875 
Q 37.25 32.421875 41.125 36.953125 
Q 45.015625 41.5 45.015625 49.421875 
Q 45.015625 57.28125 41.125 61.84375 
Q 37.25 66.40625 30.609375 66.40625 
Q 23.96875 66.40625 20.09375 61.84375 
Q 16.21875 57.28125 16.21875 49.421875 
Q 16.21875 41.5 20.09375 36.953125 
Q 23.96875 32.421875 30.609375 32.421875 
z
" id="DejaVuSans-57"/>
      <path d="M 54.890625 33.015625 
L 54.890625 0 
L 45.90625 0 
L 45.90625 32.71875 
Q 45.90625 40.484375 42.875 44.328125 
Q 39.84375 48.1875 33.796875 48.1875 
Q 26.515625 48.1875 22.3125 43.546875 
Q 18.109375 38.921875 18.109375 30.90625 
L 18.109375 0 
L 9.078125 0 
L 9.078125 75.984375 
L 18.109375 75.984375 
L 18.109375 46.1875 
Q 21.34375 51.125 25.703125 53.5625 
Q 30.078125 56 35.796875 56 
Q 45.21875 56 50.046875 50.171875 
Q 54.890625 44.34375 54.890625 33.015625 
z
" id="DejaVuSans-104"/>
      <path d="M 10.59375 45.40625 
L 73.1875 45.40625 
L 73.1875 37.203125 
L 10.59375 37.203125 
z
M 10.59375 25.484375 
L 73.1875 25.484375 
L 73.1875 17.1875 
L 10.59375 17.1875 
z
" id="DejaVuSans-61"/>
      <path d="M 40.578125 39.3125 
Q 47.65625 37.796875 51.625 33 
Q 55.609375 28.21875 55.609375 21.1875 
Q 55.609375 10.40625 48.1875 4.484375 
Q 40.765625 -1.421875 27.09375 -1.421875 
Q 22.515625 -1.421875 17.65625 -0.515625 
Q 12.796875 0.390625 7.625 2.203125 
L 7.625 11.71875 
Q 11.71875 9.328125 16.59375 8.109375 
Q 21.484375 6.890625 26.8125 6.890625 
Q 36.078125 6.890625 40.9375 10.546875 
Q 45.796875 14.203125 45.796875 21.1875 
Q 45.796875 27.640625 41.28125 31.265625 
Q 36.765625 34.90625 28.71875 34.90625 
L 20.21875 34.90625 
L 20.21875 43.015625 
L 29.109375 43.015625 
Q 36.375 43.015625 40.234375 45.921875 
Q 44.09375 48.828125 44.09375 54.296875 
Q 44.09375 59.90625 40.109375 62.90625 
Q 36.140625 65.921875 28.71875 65.921875 
Q 24.65625 65.921875 20.015625 65.03125 
Q 15.375 64.15625 9.8125 62.3125 
L 9.8125 71.09375 
Q 15.4375 72.65625 20.34375 73.4375 
Q 25.25 74.21875 29.59375 74.21875 
Q 40.828125 74.21875 47.359375 69.109375 
Q 53.90625 64.015625 53.90625 55.328125 
Q 53.90625 49.265625 50.4375 45.09375 
Q 46.96875 40.921875 40.578125 39.3125 
z
" id="DejaVuSans-51"/>
     </defs>
     <use xlink:href="#DejaVuSans-118"/>
     <use x="59.179688" xlink:href="#DejaVuSans-50"/>
     <use x="122.802734" xlink:href="#DejaVuSans-46"/>
     <use x="154.589844" xlink:href="#DejaVuSans-52"/>
     <use x="218.212891" xlink:href="#DejaVuSans-46"/>
     <use x="250" xlink:href="#DejaVuSans-49"/>
     <use x="313.623047" xlink:href="#DejaVuSans-57"/>
     <use x="377.246094" xlink:href="#DejaVuSans-44"/>
     <use x="409.033203" xlink:href="#DejaVuSans-32"/>
     <use x="440.820312" xlink:href="#DejaVuSans-104"/>
     <use x="504.199219" xlink:href="#DejaVuSans-118"/>
     <use x="560.753906" xlink:href="#DejaVuSans-45"/>
     <use x="596.837891" xlink:href="#DejaVuSans-104"/>
     <use x="660.216797" xlink:href="#DejaVuSans-97"/>
     <use x="721.496094" xlink:href="#DejaVuSans-115"/>
     <use x="773.595703" xlink:href="#DejaVuSans-104"/>
     <use x="836.974609" xlink:href="#DejaVuSans-61"/>
     <use x="920.763672" xlink:href="#DejaVuSans-102"/>
     <use x="955.96875" xlink:href="#DejaVuSans-102"/>
     <use x="991.173828" xlink:href="#DejaVuSans-48"/>
     <use x="1054.796875" xlink:href="#DejaVuSans-101"/>
     <use x="1116.320312" xlink:href="#DejaVuSans-55"/>
     <use x="1179.943359" xlink:href="#DejaVuSans-49"/>
     <use x="1243.566406" xlink:href="#DejaVuSans-101"/>
     <use x="1305.089844" xlink:href="#DejaVuSans-56"/>
     <use x="1368.712891" xlink:href="#DejaVuSans-99"/>
     <use x="1423.693359" xlink:href="#DejaVuSans-100"/>
     <use x="1487.169922" xlink:href="#DejaVuSans-57"/>
     <use x="1550.792969" xlink:href="#DejaVuSans-55"/>
     <use x="1614.416016" xlink:href="#DejaVuSans-56"/>
     <use x="1678.039062" xlink:href="#DejaVuSans-51"/>
     <use x="1741.662109" xlink:href="#DejaVuSans-55"/>
     <use x="1805.285156" xlink:href="#DejaVuSans-51"/>
    </g>
   </g>
  </g>
 </g>
 <defs>
  <clipPath id="pd81b164368">
   <rect height="295.488" width="281.088" x="57.6" y="3.456"/>
  </clipPath>
 </defs>
</svg>
