<?xml version="1.0" encoding="utf-8" standalone="no"?>
<!DOCTYPE svg PUBLIC "-//W3C//DTD SVG 1.1//EN"
  "http://www.w3.org/Graphics/SVG/1.1/DTD/svg11.dtd">
<!-- Created with matplotlib (https://matplotlib.org/) -->
<svg height="345.6pt" version="1.1" viewBox="0 0 460.8 345.6" width="460.8pt" xmlns="http://www.w3.org/2000/svg" xmlns:xlink="http://www.w3.org/1999/xlink">
 <metadata>
  <rdf:RDF xmlns:cc="http://creativecommons.org/ns#" xmlns:dc="http://purl.org/dc/elements/1.1/" xmlns:rdf="http://www.w3.org/1999/02/22-rdf-syntax-ns#">
   <cc:Work>
    <dc:type rdf:resource="http://purl.org/dc/dcmitype/StillImage"/>
    <dc:date>2021-04-26T15:06:59.282508</dc:date>
    <dc:format>image/svg+xml</dc:format>
    <dc:creator>
     <cc:Agent>
      <dc:title>Matplotlib v3.3.2, https://matplotlib.org/</dc:title>
     </cc:Agent>
    </dc:creator>
   </cc:Work>
  </rdf:RDF>
 </metadata>
 <defs>
  <style type="text/css">*{stroke-linecap:butt;stroke-linejoin:round;}</style>
 </defs>
 <g id="figure_1">
  <g id="patch_1">
   <path d="M 0 345.6 
L 460.8 345.6 
L 460.8 0 
L 0 0 
z
" style="fill:#ffffff;"/>
  </g>
  <g id="axes_1">
   <g id="patch_2">
    <path d="M 57.6 298.944 
L 338.688 298.944 
L 338.688 27.648 
L 57.6 27.648 
z
" style="fill:#ffffff;"/>
   </g>
   <g id="line2d_1">
    <path d="M 62.616969 298.944 
L 62.616969 294.312795 
L 74.704957 294.312795 
L 74.704957 285.050384 
L 83.171864 285.050384 
L 83.171864 275.787974 
L 102.772397 275.787974 
L 102.772397 271.156769 
L 115.711251 271.156769 
L 115.711251 257.263153 
L 130.218525 257.263153 
L 130.218525 248.000743 
L 149.195872 248.000743 
L 149.195872 243.369538 
L 155.720743 243.369538 
L 155.720743 234.107127 
L 166.24367 234.107127 
L 166.24367 220.213512 
L 170.346825 220.213512 
L 170.346825 210.951101 
L 176.020952 210.951101 
L 176.020952 201.688691 
L 180.192528 201.688691 
L 180.192528 192.426281 
L 185.592485 192.426281 
L 185.592485 187.795075 
L 192.047402 187.795075 
L 192.047402 173.90146 
L 204.838116 173.90146 
L 204.838116 169.270255 
L 209.149752 169.270255 
L 209.149752 155.376639 
L 213.644817 155.376639 
L 213.644817 146.114229 
L 215.857111 146.114229 
L 215.857111 141.483024 
L 217.229016 141.483024 
L 217.229016 127.589408 
L 219.009352 127.589408 
L 219.009352 122.958203 
L 220.124227 122.958203 
L 220.124227 109.064587 
L 221.664736 109.064587 
L 221.664736 99.802177 
L 223.296138 99.802177 
L 223.296138 90.539766 
L 225.808219 90.539766 
L 225.808219 85.908561 
L 250.218988 85.908561 
L 250.218988 76.646151 
L 254.736519 76.646151 
L 254.736519 62.752535 
L 338.688 62.752535 
" style="fill:none;stroke:#f5deb3;stroke-linecap:square;stroke-width:4;"/>
   </g>
   <g id="line2d_2">
    <defs>
     <path d="M 0 7.778175 
L 7.778175 0 
L 0 -7.778175 
L -7.778175 0 
z
" id="md0023cdb37" style="stroke:#f5deb3;stroke-linejoin:miter;stroke-width:1.5;"/>
    </defs>
    <g>
     <use style="fill:#f5deb3;stroke:#f5deb3;stroke-linejoin:miter;stroke-width:1.5;" x="83.171864" xlink:href="#md0023cdb37" y="275.787974"/>
     <use style="fill:#f5deb3;stroke:#f5deb3;stroke-linejoin:miter;stroke-width:1.5;" x="185.592485" xlink:href="#md0023cdb37" y="192.426281"/>
     <use style="fill:#f5deb3;stroke:#f5deb3;stroke-linejoin:miter;stroke-width:1.5;" x="225.808219" xlink:href="#md0023cdb37" y="85.908561"/>
     <use style="fill:#f5deb3;stroke:#f5deb3;stroke-linejoin:miter;stroke-width:1.5;" x="254.736519" xlink:href="#md0023cdb37" y="62.752535"/>
     <use style="fill:#f5deb3;stroke:#f5deb3;stroke-linejoin:miter;stroke-width:1.5;" x="338.688" xlink:href="#md0023cdb37" y="62.752535"/>
    </g>
   </g>
   <g id="line2d_3">
    <path style="fill:none;stroke:#f5deb3;stroke-linecap:square;stroke-width:4;"/>
    <g/>
   </g>
   <g id="line2d_4">
    <path d="M 338.688 62.752535 
L 369.60768 35.706297 
" style="fill:none;stroke:#f5deb3;stroke-linecap:square;stroke-width:4;"/>
    <g>
     <use style="fill:#f5deb3;stroke:#f5deb3;stroke-linejoin:miter;stroke-width:1.5;" x="338.688" xlink:href="#md0023cdb37" y="62.752535"/>
     <use style="fill:#f5deb3;stroke:#f5deb3;stroke-linejoin:miter;stroke-width:1.5;" x="369.60768" xlink:href="#md0023cdb37" y="35.706297"/>
    </g>
   </g>
   <g id="matplotlib.axis_1">
    <g id="xtick_1">
     <g id="line2d_5">
      <path clip-path="url(#p10f8761c21)" d="M 57.6 298.944 
L 57.6 27.648 
" style="fill:none;stroke:#b0b0b0;stroke-linecap:square;stroke-width:0.8;"/>
     </g>
     <g id="line2d_6">
      <defs>
       <path d="M 0 0 
L 0 3.5 
" id="mc902e58f06" style="stroke:#000000;stroke-width:0.8;"/>
      </defs>
      <g>
       <use style="stroke:#000000;stroke-width:0.8;" x="57.6" xlink:href="#mc902e58f06" y="298.944"/>
      </g>
     </g>
     <g id="text_1">
      <!-- 0 -->
      <g transform="translate(51.2375 321.140875)scale(0.2 -0.2)">
       <defs>
        <path d="M 31.78125 66.40625 
Q 24.171875 66.40625 20.328125 58.90625 
Q 16.5 51.421875 16.5 36.375 
Q 16.5 21.390625 20.328125 13.890625 
Q 24.171875 6.390625 31.78125 6.390625 
Q 39.453125 6.390625 43.28125 13.890625 
Q 47.125 21.390625 47.125 36.375 
Q 47.125 51.421875 43.28125 58.90625 
Q 39.453125 66.40625 31.78125 66.40625 
z
M 31.78125 74.21875 
Q 44.046875 74.21875 50.515625 64.515625 
Q 56.984375 54.828125 56.984375 36.375 
Q 56.984375 17.96875 50.515625 8.265625 
Q 44.046875 -1.421875 31.78125 -1.421875 
Q 19.53125 -1.421875 13.0625 8.265625 
Q 6.59375 17.96875 6.59375 36.375 
Q 6.59375 54.828125 13.0625 64.515625 
Q 19.53125 74.21875 31.78125 74.21875 
z
" id="DejaVuSans-48"/>
       </defs>
       <use xlink:href="#DejaVuSans-48"/>
      </g>
     </g>
    </g>
    <g id="xtick_2">
     <g id="line2d_7">
      <path clip-path="url(#p10f8761c21)" d="M 137.910857 298.944 
L 137.910857 27.648 
" style="fill:none;stroke:#b0b0b0;stroke-linecap:square;stroke-width:0.8;"/>
     </g>
     <g id="line2d_8">
      <g>
       <use style="stroke:#000000;stroke-width:0.8;" x="137.910857" xlink:href="#mc902e58f06" y="298.944"/>
      </g>
     </g>
     <g id="text_2">
      <!-- 2 -->
      <g transform="translate(131.548357 321.140875)scale(0.2 -0.2)">
       <defs>
        <path d="M 19.1875 8.296875 
L 53.609375 8.296875 
L 53.609375 0 
L 7.328125 0 
L 7.328125 8.296875 
Q 12.9375 14.109375 22.625 23.890625 
Q 32.328125 33.6875 34.8125 36.53125 
Q 39.546875 41.84375 41.421875 45.53125 
Q 43.3125 49.21875 43.3125 52.78125 
Q 43.3125 58.59375 39.234375 62.25 
Q 35.15625 65.921875 28.609375 65.921875 
Q 23.96875 65.921875 18.8125 64.3125 
Q 13.671875 62.703125 7.8125 59.421875 
L 7.8125 69.390625 
Q 13.765625 71.78125 18.9375 73 
Q 24.125 74.21875 28.421875 74.21875 
Q 39.75 74.21875 46.484375 68.546875 
Q 53.21875 62.890625 53.21875 53.421875 
Q 53.21875 48.921875 51.53125 44.890625 
Q 49.859375 40.875 45.40625 35.40625 
Q 44.1875 33.984375 37.640625 27.21875 
Q 31.109375 20.453125 19.1875 8.296875 
z
" id="DejaVuSans-50"/>
       </defs>
       <use xlink:href="#DejaVuSans-50"/>
      </g>
     </g>
    </g>
    <g id="xtick_3">
     <g id="line2d_9">
      <path clip-path="url(#p10f8761c21)" d="M 218.221714 298.944 
L 218.221714 27.648 
" style="fill:none;stroke:#b0b0b0;stroke-linecap:square;stroke-width:0.8;"/>
     </g>
     <g id="line2d_10">
      <g>
       <use style="stroke:#000000;stroke-width:0.8;" x="218.221714" xlink:href="#mc902e58f06" y="298.944"/>
      </g>
     </g>
     <g id="text_3">
      <!-- 4 -->
      <g transform="translate(211.859214 321.140875)scale(0.2 -0.2)">
       <defs>
        <path d="M 37.796875 64.3125 
L 12.890625 25.390625 
L 37.796875 25.390625 
z
M 35.203125 72.90625 
L 47.609375 72.90625 
L 47.609375 25.390625 
L 58.015625 25.390625 
L 58.015625 17.1875 
L 47.609375 17.1875 
L 47.609375 0 
L 37.796875 0 
L 37.796875 17.1875 
L 4.890625 17.1875 
L 4.890625 26.703125 
z
" id="DejaVuSans-52"/>
       </defs>
       <use xlink:href="#DejaVuSans-52"/>
      </g>
     </g>
    </g>
    <g id="xtick_4">
     <g id="line2d_11">
      <path clip-path="url(#p10f8761c21)" d="M 298.532571 298.944 
L 298.532571 27.648 
" style="fill:none;stroke:#b0b0b0;stroke-linecap:square;stroke-width:0.8;"/>
     </g>
     <g id="line2d_12">
      <g>
       <use style="stroke:#000000;stroke-width:0.8;" x="298.532571" xlink:href="#mc902e58f06" y="298.944"/>
      </g>
     </g>
     <g id="text_4">
      <!-- 6 -->
      <g transform="translate(292.170071 321.140875)scale(0.2 -0.2)">
       <defs>
        <path d="M 33.015625 40.375 
Q 26.375 40.375 22.484375 35.828125 
Q 18.609375 31.296875 18.609375 23.390625 
Q 18.609375 15.53125 22.484375 10.953125 
Q 26.375 6.390625 33.015625 6.390625 
Q 39.65625 6.390625 43.53125 10.953125 
Q 47.40625 15.53125 47.40625 23.390625 
Q 47.40625 31.296875 43.53125 35.828125 
Q 39.65625 40.375 33.015625 40.375 
z
M 52.59375 71.296875 
L 52.59375 62.3125 
Q 48.875 64.0625 45.09375 64.984375 
Q 41.3125 65.921875 37.59375 65.921875 
Q 27.828125 65.921875 22.671875 59.328125 
Q 17.53125 52.734375 16.796875 39.40625 
Q 19.671875 43.65625 24.015625 45.921875 
Q 28.375 48.1875 33.59375 48.1875 
Q 44.578125 48.1875 50.953125 41.515625 
Q 57.328125 34.859375 57.328125 23.390625 
Q 57.328125 12.15625 50.6875 5.359375 
Q 44.046875 -1.421875 33.015625 -1.421875 
Q 20.359375 -1.421875 13.671875 8.265625 
Q 6.984375 17.96875 6.984375 36.375 
Q 6.984375 53.65625 15.1875 63.9375 
Q 23.390625 74.21875 37.203125 74.21875 
Q 40.921875 74.21875 44.703125 73.484375 
Q 48.484375 72.75 52.59375 71.296875 
z
" id="DejaVuSans-54"/>
       </defs>
       <use xlink:href="#DejaVuSans-54"/>
      </g>
     </g>
    </g>
    <g id="xtick_5">
     <g id="line2d_13">
      <path clip-path="url(#p10f8761c21)" d="M 97.755429 298.944 
L 97.755429 27.648 
" style="fill:none;stroke:#b0b0b0;stroke-linecap:square;stroke-width:0.8;"/>
     </g>
     <g id="line2d_14">
      <defs>
       <path d="M 0 0 
L 0 2 
" id="me49d3b1363" style="stroke:#000000;stroke-width:0.6;"/>
      </defs>
      <g>
       <use style="stroke:#000000;stroke-width:0.6;" x="97.755429" xlink:href="#me49d3b1363" y="298.944"/>
      </g>
     </g>
    </g>
    <g id="xtick_6">
     <g id="line2d_15">
      <path clip-path="url(#p10f8761c21)" d="M 178.066286 298.944 
L 178.066286 27.648 
" style="fill:none;stroke:#b0b0b0;stroke-linecap:square;stroke-width:0.8;"/>
     </g>
     <g id="line2d_16">
      <g>
       <use style="stroke:#000000;stroke-width:0.6;" x="178.066286" xlink:href="#me49d3b1363" y="298.944"/>
      </g>
     </g>
    </g>
    <g id="xtick_7">
     <g id="line2d_17">
      <path clip-path="url(#p10f8761c21)" d="M 258.377143 298.944 
L 258.377143 27.648 
" style="fill:none;stroke:#b0b0b0;stroke-linecap:square;stroke-width:0.8;"/>
     </g>
     <g id="line2d_18">
      <g>
       <use style="stroke:#000000;stroke-width:0.6;" x="258.377143" xlink:href="#me49d3b1363" y="298.944"/>
      </g>
     </g>
    </g>
    <g id="xtick_8">
     <g id="line2d_19">
      <path clip-path="url(#p10f8761c21)" d="M 338.688 298.944 
L 338.688 27.648 
" style="fill:none;stroke:#b0b0b0;stroke-linecap:square;stroke-width:0.8;"/>
     </g>
     <g id="line2d_20">
      <g>
       <use style="stroke:#000000;stroke-width:0.6;" x="338.688" xlink:href="#me49d3b1363" y="298.944"/>
      </g>
     </g>
    </g>
    <g id="text_5">
     <!-- log10(# f-evals / dimension) -->
     <g transform="translate(77.764078 342.217594)scale(0.17 -0.17)">
      <defs>
       <path d="M 9.421875 75.984375 
L 18.40625 75.984375 
L 18.40625 0 
L 9.421875 0 
z
" id="DejaVuSans-108"/>
       <path d="M 30.609375 48.390625 
Q 23.390625 48.390625 19.1875 42.75 
Q 14.984375 37.109375 14.984375 27.296875 
Q 14.984375 17.484375 19.15625 11.84375 
Q 23.34375 6.203125 30.609375 6.203125 
Q 37.796875 6.203125 41.984375 11.859375 
Q 46.1875 17.53125 46.1875 27.296875 
Q 46.1875 37.015625 41.984375 42.703125 
Q 37.796875 48.390625 30.609375 48.390625 
z
M 30.609375 56 
Q 42.328125 56 49.015625 48.375 
Q 55.71875 40.765625 55.71875 27.296875 
Q 55.71875 13.875 49.015625 6.21875 
Q 42.328125 -1.421875 30.609375 -1.421875 
Q 18.84375 -1.421875 12.171875 6.21875 
Q 5.515625 13.875 5.515625 27.296875 
Q 5.515625 40.765625 12.171875 48.375 
Q 18.84375 56 30.609375 56 
z
" id="DejaVuSans-111"/>
       <path d="M 45.40625 27.984375 
Q 45.40625 37.75 41.375 43.109375 
Q 37.359375 48.484375 30.078125 48.484375 
Q 22.859375 48.484375 18.828125 43.109375 
Q 14.796875 37.75 14.796875 27.984375 
Q 14.796875 18.265625 18.828125 12.890625 
Q 22.859375 7.515625 30.078125 7.515625 
Q 37.359375 7.515625 41.375 12.890625 
Q 45.40625 18.265625 45.40625 27.984375 
z
M 54.390625 6.78125 
Q 54.390625 -7.171875 48.1875 -13.984375 
Q 42 -20.796875 29.203125 -20.796875 
Q 24.46875 -20.796875 20.265625 -20.09375 
Q 16.0625 -19.390625 12.109375 -17.921875 
L 12.109375 -9.1875 
Q 16.0625 -11.328125 19.921875 -12.34375 
Q 23.78125 -13.375 27.78125 -13.375 
Q 36.625 -13.375 41.015625 -8.765625 
Q 45.40625 -4.15625 45.40625 5.171875 
L 45.40625 9.625 
Q 42.625 4.78125 38.28125 2.390625 
Q 33.9375 0 27.875 0 
Q 17.828125 0 11.671875 7.65625 
Q 5.515625 15.328125 5.515625 27.984375 
Q 5.515625 40.671875 11.671875 48.328125 
Q 17.828125 56 27.875 56 
Q 33.9375 56 38.28125 53.609375 
Q 42.625 51.21875 45.40625 46.390625 
L 45.40625 54.6875 
L 54.390625 54.6875 
z
" id="DejaVuSans-103"/>
       <path d="M 12.40625 8.296875 
L 28.515625 8.296875 
L 28.515625 63.921875 
L 10.984375 60.40625 
L 10.984375 69.390625 
L 28.421875 72.90625 
L 38.28125 72.90625 
L 38.28125 8.296875 
L 54.390625 8.296875 
L 54.390625 0 
L 12.40625 0 
z
" id="DejaVuSans-49"/>
       <path d="M 31 75.875 
Q 24.46875 64.65625 21.28125 53.65625 
Q 18.109375 42.671875 18.109375 31.390625 
Q 18.109375 20.125 21.3125 9.0625 
Q 24.515625 -2 31 -13.1875 
L 23.1875 -13.1875 
Q 15.875 -1.703125 12.234375 9.375 
Q 8.59375 20.453125 8.59375 31.390625 
Q 8.59375 42.28125 12.203125 53.3125 
Q 15.828125 64.359375 23.1875 75.875 
z
" id="DejaVuSans-40"/>
       <path d="M 51.125 44 
L 36.921875 44 
L 32.8125 27.6875 
L 47.125 27.6875 
z
M 43.796875 71.78125 
L 38.71875 51.515625 
L 52.984375 51.515625 
L 58.109375 71.78125 
L 65.921875 71.78125 
L 60.890625 51.515625 
L 76.125 51.515625 
L 76.125 44 
L 58.984375 44 
L 54.984375 27.6875 
L 70.515625 27.6875 
L 70.515625 20.21875 
L 53.078125 20.21875 
L 48 0 
L 40.1875 0 
L 45.21875 20.21875 
L 30.90625 20.21875 
L 25.875 0 
L 18.015625 0 
L 23.09375 20.21875 
L 7.71875 20.21875 
L 7.71875 27.6875 
L 24.90625 27.6875 
L 29 44 
L 13.28125 44 
L 13.28125 51.515625 
L 30.90625 51.515625 
L 35.890625 71.78125 
z
" id="DejaVuSans-35"/>
       <path id="DejaVuSans-32"/>
       <path d="M 37.109375 75.984375 
L 37.109375 68.5 
L 28.515625 68.5 
Q 23.6875 68.5 21.796875 66.546875 
Q 19.921875 64.59375 19.921875 59.515625 
L 19.921875 54.6875 
L 34.71875 54.6875 
L 34.71875 47.703125 
L 19.921875 47.703125 
L 19.921875 0 
L 10.890625 0 
L 10.890625 47.703125 
L 2.296875 47.703125 
L 2.296875 54.6875 
L 10.890625 54.6875 
L 10.890625 58.5 
Q 10.890625 67.625 15.140625 71.796875 
Q 19.390625 75.984375 28.609375 75.984375 
z
" id="DejaVuSans-102"/>
       <path d="M 4.890625 31.390625 
L 31.203125 31.390625 
L 31.203125 23.390625 
L 4.890625 23.390625 
z
" id="DejaVuSans-45"/>
       <path d="M 56.203125 29.59375 
L 56.203125 25.203125 
L 14.890625 25.203125 
Q 15.484375 15.921875 20.484375 11.0625 
Q 25.484375 6.203125 34.421875 6.203125 
Q 39.59375 6.203125 44.453125 7.46875 
Q 49.3125 8.734375 54.109375 11.28125 
L 54.109375 2.78125 
Q 49.265625 0.734375 44.1875 -0.34375 
Q 39.109375 -1.421875 33.890625 -1.421875 
Q 20.796875 -1.421875 13.15625 6.1875 
Q 5.515625 13.8125 5.515625 26.8125 
Q 5.515625 40.234375 12.765625 48.109375 
Q 20.015625 56 32.328125 56 
Q 43.359375 56 49.78125 48.890625 
Q 56.203125 41.796875 56.203125 29.59375 
z
M 47.21875 32.234375 
Q 47.125 39.59375 43.09375 43.984375 
Q 39.0625 48.390625 32.421875 48.390625 
Q 24.90625 48.390625 20.390625 44.140625 
Q 15.875 39.890625 15.1875 32.171875 
z
" id="DejaVuSans-101"/>
       <path d="M 2.984375 54.6875 
L 12.5 54.6875 
L 29.59375 8.796875 
L 46.6875 54.6875 
L 56.203125 54.6875 
L 35.6875 0 
L 23.484375 0 
z
" id="DejaVuSans-118"/>
       <path d="M 34.28125 27.484375 
Q 23.390625 27.484375 19.1875 25 
Q 14.984375 22.515625 14.984375 16.5 
Q 14.984375 11.71875 18.140625 8.90625 
Q 21.296875 6.109375 26.703125 6.109375 
Q 34.1875 6.109375 38.703125 11.40625 
Q 43.21875 16.703125 43.21875 25.484375 
L 43.21875 27.484375 
z
M 52.203125 31.203125 
L 52.203125 0 
L 43.21875 0 
L 43.21875 8.296875 
Q 40.140625 3.328125 35.546875 0.953125 
Q 30.953125 -1.421875 24.3125 -1.421875 
Q 15.921875 -1.421875 10.953125 3.296875 
Q 6 8.015625 6 15.921875 
Q 6 25.140625 12.171875 29.828125 
Q 18.359375 34.515625 30.609375 34.515625 
L 43.21875 34.515625 
L 43.21875 35.40625 
Q 43.21875 41.609375 39.140625 45 
Q 35.0625 48.390625 27.6875 48.390625 
Q 23 48.390625 18.546875 47.265625 
Q 14.109375 46.140625 10.015625 43.890625 
L 10.015625 52.203125 
Q 14.9375 54.109375 19.578125 55.046875 
Q 24.21875 56 28.609375 56 
Q 40.484375 56 46.34375 49.84375 
Q 52.203125 43.703125 52.203125 31.203125 
z
" id="DejaVuSans-97"/>
       <path d="M 44.28125 53.078125 
L 44.28125 44.578125 
Q 40.484375 46.53125 36.375 47.5 
Q 32.28125 48.484375 27.875 48.484375 
Q 21.1875 48.484375 17.84375 46.4375 
Q 14.5 44.390625 14.5 40.28125 
Q 14.5 37.15625 16.890625 35.375 
Q 19.28125 33.59375 26.515625 31.984375 
L 29.59375 31.296875 
Q 39.15625 29.25 43.1875 25.515625 
Q 47.21875 21.78125 47.21875 15.09375 
Q 47.21875 7.46875 41.1875 3.015625 
Q 35.15625 -1.421875 24.609375 -1.421875 
Q 20.21875 -1.421875 15.453125 -0.5625 
Q 10.6875 0.296875 5.421875 2 
L 5.421875 11.28125 
Q 10.40625 8.6875 15.234375 7.390625 
Q 20.0625 6.109375 24.8125 6.109375 
Q 31.15625 6.109375 34.5625 8.28125 
Q 37.984375 10.453125 37.984375 14.40625 
Q 37.984375 18.0625 35.515625 20.015625 
Q 33.0625 21.96875 24.703125 23.78125 
L 21.578125 24.515625 
Q 13.234375 26.265625 9.515625 29.90625 
Q 5.8125 33.546875 5.8125 39.890625 
Q 5.8125 47.609375 11.28125 51.796875 
Q 16.75 56 26.8125 56 
Q 31.78125 56 36.171875 55.265625 
Q 40.578125 54.546875 44.28125 53.078125 
z
" id="DejaVuSans-115"/>
       <path d="M 25.390625 72.90625 
L 33.6875 72.90625 
L 8.296875 -9.28125 
L 0 -9.28125 
z
" id="DejaVuSans-47"/>
       <path d="M 45.40625 46.390625 
L 45.40625 75.984375 
L 54.390625 75.984375 
L 54.390625 0 
L 45.40625 0 
L 45.40625 8.203125 
Q 42.578125 3.328125 38.25 0.953125 
Q 33.9375 -1.421875 27.875 -1.421875 
Q 17.96875 -1.421875 11.734375 6.484375 
Q 5.515625 14.40625 5.515625 27.296875 
Q 5.515625 40.1875 11.734375 48.09375 
Q 17.96875 56 27.875 56 
Q 33.9375 56 38.25 53.625 
Q 42.578125 51.265625 45.40625 46.390625 
z
M 14.796875 27.296875 
Q 14.796875 17.390625 18.875 11.75 
Q 22.953125 6.109375 30.078125 6.109375 
Q 37.203125 6.109375 41.296875 11.75 
Q 45.40625 17.390625 45.40625 27.296875 
Q 45.40625 37.203125 41.296875 42.84375 
Q 37.203125 48.484375 30.078125 48.484375 
Q 22.953125 48.484375 18.875 42.84375 
Q 14.796875 37.203125 14.796875 27.296875 
z
" id="DejaVuSans-100"/>
       <path d="M 9.421875 54.6875 
L 18.40625 54.6875 
L 18.40625 0 
L 9.421875 0 
z
M 9.421875 75.984375 
L 18.40625 75.984375 
L 18.40625 64.59375 
L 9.421875 64.59375 
z
" id="DejaVuSans-105"/>
       <path d="M 52 44.1875 
Q 55.375 50.25 60.0625 53.125 
Q 64.75 56 71.09375 56 
Q 79.640625 56 84.28125 50.015625 
Q 88.921875 44.046875 88.921875 33.015625 
L 88.921875 0 
L 79.890625 0 
L 79.890625 32.71875 
Q 79.890625 40.578125 77.09375 44.375 
Q 74.3125 48.1875 68.609375 48.1875 
Q 61.625 48.1875 57.5625 43.546875 
Q 53.515625 38.921875 53.515625 30.90625 
L 53.515625 0 
L 44.484375 0 
L 44.484375 32.71875 
Q 44.484375 40.625 41.703125 44.40625 
Q 38.921875 48.1875 33.109375 48.1875 
Q 26.21875 48.1875 22.15625 43.53125 
Q 18.109375 38.875 18.109375 30.90625 
L 18.109375 0 
L 9.078125 0 
L 9.078125 54.6875 
L 18.109375 54.6875 
L 18.109375 46.1875 
Q 21.1875 51.21875 25.484375 53.609375 
Q 29.78125 56 35.6875 56 
Q 41.65625 56 45.828125 52.96875 
Q 50 49.953125 52 44.1875 
z
" id="DejaVuSans-109"/>
       <path d="M 54.890625 33.015625 
L 54.890625 0 
L 45.90625 0 
L 45.90625 32.71875 
Q 45.90625 40.484375 42.875 44.328125 
Q 39.84375 48.1875 33.796875 48.1875 
Q 26.515625 48.1875 22.3125 43.546875 
Q 18.109375 38.921875 18.109375 30.90625 
L 18.109375 0 
L 9.078125 0 
L 9.078125 54.6875 
L 18.109375 54.6875 
L 18.109375 46.1875 
Q 21.34375 51.125 25.703125 53.5625 
Q 30.078125 56 35.796875 56 
Q 45.21875 56 50.046875 50.171875 
Q 54.890625 44.34375 54.890625 33.015625 
z
" id="DejaVuSans-110"/>
       <path d="M 8.015625 75.875 
L 15.828125 75.875 
Q 23.140625 64.359375 26.78125 53.3125 
Q 30.421875 42.28125 30.421875 31.390625 
Q 30.421875 20.453125 26.78125 9.375 
Q 23.140625 -1.703125 15.828125 -13.1875 
L 8.015625 -13.1875 
Q 14.5 -2 17.703125 9.0625 
Q 20.90625 20.125 20.90625 31.390625 
Q 20.90625 42.671875 17.703125 53.65625 
Q 14.5 64.65625 8.015625 75.875 
z
" id="DejaVuSans-41"/>
      </defs>
      <use xlink:href="#DejaVuSans-108"/>
      <use x="27.783203" xlink:href="#DejaVuSans-111"/>
      <use x="88.964844" xlink:href="#DejaVuSans-103"/>
      <use x="152.441406" xlink:href="#DejaVuSans-49"/>
      <use x="216.064453" xlink:href="#DejaVuSans-48"/>
      <use x="279.6875" xlink:href="#DejaVuSans-40"/>
      <use x="318.701172" xlink:href="#DejaVuSans-35"/>
      <use x="402.490234" xlink:href="#DejaVuSans-32"/>
      <use x="434.277344" xlink:href="#DejaVuSans-102"/>
      <use x="463.982422" xlink:href="#DejaVuSans-45"/>
      <use x="500.066406" xlink:href="#DejaVuSans-101"/>
      <use x="561.589844" xlink:href="#DejaVuSans-118"/>
      <use x="620.769531" xlink:href="#DejaVuSans-97"/>
      <use x="682.048828" xlink:href="#DejaVuSans-108"/>
      <use x="709.832031" xlink:href="#DejaVuSans-115"/>
      <use x="761.931641" xlink:href="#DejaVuSans-32"/>
      <use x="793.71875" xlink:href="#DejaVuSans-47"/>
      <use x="827.410156" xlink:href="#DejaVuSans-32"/>
      <use x="859.197266" xlink:href="#DejaVuSans-100"/>
      <use x="922.673828" xlink:href="#DejaVuSans-105"/>
      <use x="950.457031" xlink:href="#DejaVuSans-109"/>
      <use x="1047.869141" xlink:href="#DejaVuSans-101"/>
      <use x="1109.392578" xlink:href="#DejaVuSans-110"/>
      <use x="1172.771484" xlink:href="#DejaVuSans-115"/>
      <use x="1224.871094" xlink:href="#DejaVuSans-105"/>
      <use x="1252.654297" xlink:href="#DejaVuSans-111"/>
      <use x="1313.835938" xlink:href="#DejaVuSans-110"/>
      <use x="1377.214844" xlink:href="#DejaVuSans-41"/>
     </g>
    </g>
   </g>
   <g id="matplotlib.axis_2">
    <g id="ytick_1">
     <g id="line2d_21">
      <path clip-path="url(#p10f8761c21)" d="M 57.6 298.944 
L 338.688 298.944 
" style="fill:none;stroke:#b0b0b0;stroke-linecap:square;stroke-width:0.8;"/>
     </g>
     <g id="line2d_22">
      <defs>
       <path d="M 0 0 
L -3.5 0 
" id="mc1a050f044" style="stroke:#000000;stroke-width:0.8;"/>
      </defs>
      <g>
       <use style="stroke:#000000;stroke-width:0.8;" x="57.6" xlink:href="#mc1a050f044" y="298.944"/>
      </g>
     </g>
     <g id="text_6">
      <!-- 0.0 -->
      <g transform="translate(25.155 305.02275)scale(0.16 -0.16)">
       <defs>
        <path d="M 10.6875 12.40625 
L 21 12.40625 
L 21 0 
L 10.6875 0 
z
" id="DejaVuSans-46"/>
       </defs>
       <use xlink:href="#DejaVuSans-48"/>
       <use x="63.623047" xlink:href="#DejaVuSans-46"/>
       <use x="95.410156" xlink:href="#DejaVuSans-48"/>
      </g>
     </g>
    </g>
    <g id="ytick_2">
     <g id="line2d_23">
      <path clip-path="url(#p10f8761c21)" d="M 57.6 245.22202 
L 338.688 245.22202 
" style="fill:none;stroke:#b0b0b0;stroke-linecap:square;stroke-width:0.8;"/>
     </g>
     <g id="line2d_24">
      <g>
       <use style="stroke:#000000;stroke-width:0.8;" x="57.6" xlink:href="#mc1a050f044" y="245.22202"/>
      </g>
     </g>
     <g id="text_7">
      <!-- 0.2 -->
      <g transform="translate(25.155 251.30077)scale(0.16 -0.16)">
       <use xlink:href="#DejaVuSans-48"/>
       <use x="63.623047" xlink:href="#DejaVuSans-46"/>
       <use x="95.410156" xlink:href="#DejaVuSans-50"/>
      </g>
     </g>
    </g>
    <g id="ytick_3">
     <g id="line2d_25">
      <path clip-path="url(#p10f8761c21)" d="M 57.6 191.50004 
L 338.688 191.50004 
" style="fill:none;stroke:#b0b0b0;stroke-linecap:square;stroke-width:0.8;"/>
     </g>
     <g id="line2d_26">
      <g>
       <use style="stroke:#000000;stroke-width:0.8;" x="57.6" xlink:href="#mc1a050f044" y="191.50004"/>
      </g>
     </g>
     <g id="text_8">
      <!-- 0.4 -->
      <g transform="translate(25.155 197.57879)scale(0.16 -0.16)">
       <use xlink:href="#DejaVuSans-48"/>
       <use x="63.623047" xlink:href="#DejaVuSans-46"/>
       <use x="95.410156" xlink:href="#DejaVuSans-52"/>
      </g>
     </g>
    </g>
    <g id="ytick_4">
     <g id="line2d_27">
      <path clip-path="url(#p10f8761c21)" d="M 57.6 137.778059 
L 338.688 137.778059 
" style="fill:none;stroke:#b0b0b0;stroke-linecap:square;stroke-width:0.8;"/>
     </g>
     <g id="line2d_28">
      <g>
       <use style="stroke:#000000;stroke-width:0.8;" x="57.6" xlink:href="#mc1a050f044" y="137.778059"/>
      </g>
     </g>
     <g id="text_9">
      <!-- 0.6 -->
      <g transform="translate(25.155 143.856809)scale(0.16 -0.16)">
       <use xlink:href="#DejaVuSans-48"/>
       <use x="63.623047" xlink:href="#DejaVuSans-46"/>
       <use x="95.410156" xlink:href="#DejaVuSans-54"/>
      </g>
     </g>
    </g>
    <g id="ytick_5">
     <g id="line2d_29">
      <path clip-path="url(#p10f8761c21)" d="M 57.6 84.056079 
L 338.688 84.056079 
" style="fill:none;stroke:#b0b0b0;stroke-linecap:square;stroke-width:0.8;"/>
     </g>
     <g id="line2d_30">
      <g>
       <use style="stroke:#000000;stroke-width:0.8;" x="57.6" xlink:href="#mc1a050f044" y="84.056079"/>
      </g>
     </g>
     <g id="text_10">
      <!-- 0.8 -->
      <g transform="translate(25.155 90.134829)scale(0.16 -0.16)">
       <defs>
        <path d="M 31.78125 34.625 
Q 24.75 34.625 20.71875 30.859375 
Q 16.703125 27.09375 16.703125 20.515625 
Q 16.703125 13.921875 20.71875 10.15625 
Q 24.75 6.390625 31.78125 6.390625 
Q 38.8125 6.390625 42.859375 10.171875 
Q 46.921875 13.96875 46.921875 20.515625 
Q 46.921875 27.09375 42.890625 30.859375 
Q 38.875 34.625 31.78125 34.625 
z
M 21.921875 38.8125 
Q 15.578125 40.375 12.03125 44.71875 
Q 8.5 49.078125 8.5 55.328125 
Q 8.5 64.0625 14.71875 69.140625 
Q 20.953125 74.21875 31.78125 74.21875 
Q 42.671875 74.21875 48.875 69.140625 
Q 55.078125 64.0625 55.078125 55.328125 
Q 55.078125 49.078125 51.53125 44.71875 
Q 48 40.375 41.703125 38.8125 
Q 48.828125 37.15625 52.796875 32.3125 
Q 56.78125 27.484375 56.78125 20.515625 
Q 56.78125 9.90625 50.3125 4.234375 
Q 43.84375 -1.421875 31.78125 -1.421875 
Q 19.734375 -1.421875 13.25 4.234375 
Q 6.78125 9.90625 6.78125 20.515625 
Q 6.78125 27.484375 10.78125 32.3125 
Q 14.796875 37.15625 21.921875 38.8125 
z
M 18.3125 54.390625 
Q 18.3125 48.734375 21.84375 45.5625 
Q 25.390625 42.390625 31.78125 42.390625 
Q 38.140625 42.390625 41.71875 45.5625 
Q 45.3125 48.734375 45.3125 54.390625 
Q 45.3125 60.0625 41.71875 63.234375 
Q 38.140625 66.40625 31.78125 66.40625 
Q 25.390625 66.40625 21.84375 63.234375 
Q 18.3125 60.0625 18.3125 54.390625 
z
" id="DejaVuSans-56"/>
       </defs>
       <use xlink:href="#DejaVuSans-48"/>
       <use x="63.623047" xlink:href="#DejaVuSans-46"/>
       <use x="95.410156" xlink:href="#DejaVuSans-56"/>
      </g>
     </g>
    </g>
    <g id="ytick_6">
     <g id="line2d_31">
      <path clip-path="url(#p10f8761c21)" d="M 57.6 30.334099 
L 338.688 30.334099 
" style="fill:none;stroke:#b0b0b0;stroke-linecap:square;stroke-width:0.8;"/>
     </g>
     <g id="line2d_32">
      <g>
       <use style="stroke:#000000;stroke-width:0.8;" x="57.6" xlink:href="#mc1a050f044" y="30.334099"/>
      </g>
     </g>
     <g id="text_11">
      <!-- 1.0 -->
      <g transform="translate(25.155 36.412849)scale(0.16 -0.16)">
       <use xlink:href="#DejaVuSans-49"/>
       <use x="63.623047" xlink:href="#DejaVuSans-46"/>
       <use x="95.410156" xlink:href="#DejaVuSans-48"/>
      </g>
     </g>
    </g>
    <g id="text_12">
     <!-- Fraction of function,target pairs -->
     <g transform="translate(17.619531 297.681)rotate(-90)scale(0.17 -0.17)">
      <defs>
       <path d="M 9.8125 72.90625 
L 51.703125 72.90625 
L 51.703125 64.59375 
L 19.671875 64.59375 
L 19.671875 43.109375 
L 48.578125 43.109375 
L 48.578125 34.8125 
L 19.671875 34.8125 
L 19.671875 0 
L 9.8125 0 
z
" id="DejaVuSans-70"/>
       <path d="M 41.109375 46.296875 
Q 39.59375 47.171875 37.8125 47.578125 
Q 36.03125 48 33.890625 48 
Q 26.265625 48 22.1875 43.046875 
Q 18.109375 38.09375 18.109375 28.8125 
L 18.109375 0 
L 9.078125 0 
L 9.078125 54.6875 
L 18.109375 54.6875 
L 18.109375 46.1875 
Q 20.953125 51.171875 25.484375 53.578125 
Q 30.03125 56 36.53125 56 
Q 37.453125 56 38.578125 55.875 
Q 39.703125 55.765625 41.0625 55.515625 
z
" id="DejaVuSans-114"/>
       <path d="M 48.78125 52.59375 
L 48.78125 44.1875 
Q 44.96875 46.296875 41.140625 47.34375 
Q 37.3125 48.390625 33.40625 48.390625 
Q 24.65625 48.390625 19.8125 42.84375 
Q 14.984375 37.3125 14.984375 27.296875 
Q 14.984375 17.28125 19.8125 11.734375 
Q 24.65625 6.203125 33.40625 6.203125 
Q 37.3125 6.203125 41.140625 7.25 
Q 44.96875 8.296875 48.78125 10.40625 
L 48.78125 2.09375 
Q 45.015625 0.34375 40.984375 -0.53125 
Q 36.96875 -1.421875 32.421875 -1.421875 
Q 20.0625 -1.421875 12.78125 6.34375 
Q 5.515625 14.109375 5.515625 27.296875 
Q 5.515625 40.671875 12.859375 48.328125 
Q 20.21875 56 33.015625 56 
Q 37.15625 56 41.109375 55.140625 
Q 45.0625 54.296875 48.78125 52.59375 
z
" id="DejaVuSans-99"/>
       <path d="M 18.3125 70.21875 
L 18.3125 54.6875 
L 36.8125 54.6875 
L 36.8125 47.703125 
L 18.3125 47.703125 
L 18.3125 18.015625 
Q 18.3125 11.328125 20.140625 9.421875 
Q 21.96875 7.515625 27.59375 7.515625 
L 36.8125 7.515625 
L 36.8125 0 
L 27.59375 0 
Q 17.1875 0 13.234375 3.875 
Q 9.28125 7.765625 9.28125 18.015625 
L 9.28125 47.703125 
L 2.6875 47.703125 
L 2.6875 54.6875 
L 9.28125 54.6875 
L 9.28125 70.21875 
z
" id="DejaVuSans-116"/>
       <path d="M 8.5 21.578125 
L 8.5 54.6875 
L 17.484375 54.6875 
L 17.484375 21.921875 
Q 17.484375 14.15625 20.5 10.265625 
Q 23.53125 6.390625 29.59375 6.390625 
Q 36.859375 6.390625 41.078125 11.03125 
Q 45.3125 15.671875 45.3125 23.6875 
L 45.3125 54.6875 
L 54.296875 54.6875 
L 54.296875 0 
L 45.3125 0 
L 45.3125 8.40625 
Q 42.046875 3.421875 37.71875 1 
Q 33.40625 -1.421875 27.6875 -1.421875 
Q 18.265625 -1.421875 13.375 4.4375 
Q 8.5 10.296875 8.5 21.578125 
z
M 31.109375 56 
z
" id="DejaVuSans-117"/>
       <path d="M 11.71875 12.40625 
L 22.015625 12.40625 
L 22.015625 4 
L 14.015625 -11.625 
L 7.71875 -11.625 
L 11.71875 4 
z
" id="DejaVuSans-44"/>
       <path d="M 18.109375 8.203125 
L 18.109375 -20.796875 
L 9.078125 -20.796875 
L 9.078125 54.6875 
L 18.109375 54.6875 
L 18.109375 46.390625 
Q 20.953125 51.265625 25.265625 53.625 
Q 29.59375 56 35.59375 56 
Q 45.5625 56 51.78125 48.09375 
Q 58.015625 40.1875 58.015625 27.296875 
Q 58.015625 14.40625 51.78125 6.484375 
Q 45.5625 -1.421875 35.59375 -1.421875 
Q 29.59375 -1.421875 25.265625 0.953125 
Q 20.953125 3.328125 18.109375 8.203125 
z
M 48.6875 27.296875 
Q 48.6875 37.203125 44.609375 42.84375 
Q 40.53125 48.484375 33.40625 48.484375 
Q 26.265625 48.484375 22.1875 42.84375 
Q 18.109375 37.203125 18.109375 27.296875 
Q 18.109375 17.390625 22.1875 11.75 
Q 26.265625 6.109375 33.40625 6.109375 
Q 40.53125 6.109375 44.609375 11.75 
Q 48.6875 17.390625 48.6875 27.296875 
z
" id="DejaVuSans-112"/>
      </defs>
      <use xlink:href="#DejaVuSans-70"/>
      <use x="50.269531" xlink:href="#DejaVuSans-114"/>
      <use x="91.382812" xlink:href="#DejaVuSans-97"/>
      <use x="152.662109" xlink:href="#DejaVuSans-99"/>
      <use x="207.642578" xlink:href="#DejaVuSans-116"/>
      <use x="246.851562" xlink:href="#DejaVuSans-105"/>
      <use x="274.634766" xlink:href="#DejaVuSans-111"/>
      <use x="335.816406" xlink:href="#DejaVuSans-110"/>
      <use x="399.195312" xlink:href="#DejaVuSans-32"/>
      <use x="430.982422" xlink:href="#DejaVuSans-111"/>
      <use x="492.164062" xlink:href="#DejaVuSans-102"/>
      <use x="527.369141" xlink:href="#DejaVuSans-32"/>
      <use x="559.15625" xlink:href="#DejaVuSans-102"/>
      <use x="594.361328" xlink:href="#DejaVuSans-117"/>
      <use x="657.740234" xlink:href="#DejaVuSans-110"/>
      <use x="721.119141" xlink:href="#DejaVuSans-99"/>
      <use x="776.099609" xlink:href="#DejaVuSans-116"/>
      <use x="815.308594" xlink:href="#DejaVuSans-105"/>
      <use x="843.091797" xlink:href="#DejaVuSans-111"/>
      <use x="904.273438" xlink:href="#DejaVuSans-110"/>
      <use x="967.652344" xlink:href="#DejaVuSans-44"/>
      <use x="999.439453" xlink:href="#DejaVuSans-116"/>
      <use x="1038.648438" xlink:href="#DejaVuSans-97"/>
      <use x="1099.927734" xlink:href="#DejaVuSans-114"/>
      <use x="1139.291016" xlink:href="#DejaVuSans-103"/>
      <use x="1202.767578" xlink:href="#DejaVuSans-101"/>
      <use x="1264.291016" xlink:href="#DejaVuSans-116"/>
      <use x="1303.5" xlink:href="#DejaVuSans-32"/>
      <use x="1335.287109" xlink:href="#DejaVuSans-112"/>
      <use x="1398.763672" xlink:href="#DejaVuSans-97"/>
      <use x="1460.042969" xlink:href="#DejaVuSans-105"/>
      <use x="1487.826172" xlink:href="#DejaVuSans-114"/>
      <use x="1528.939453" xlink:href="#DejaVuSans-115"/>
     </g>
    </g>
   </g>
   <g id="line2d_33">
    <defs>
     <path d="M 0 1.5 
C 0.397805 1.5 0.77937 1.341951 1.06066 1.06066 
C 1.341951 0.77937 1.5 0.397805 1.5 0 
C 1.5 -0.397805 1.341951 -0.77937 1.06066 -1.06066 
C 0.77937 -1.341951 0.397805 -1.5 0 -1.5 
C -0.397805 -1.5 -0.77937 -1.341951 -1.06066 -1.06066 
C -1.341951 -0.77937 -1.5 -0.397805 -1.5 0 
C -1.5 0.397805 -1.341951 0.77937 -1.06066 1.06066 
C -0.77937 1.341951 -0.397805 1.5 0 1.5 
z
" id="mba629816e2" style="stroke:#f5deb3;"/>
    </defs>
    <g>
     <use style="fill:#f5deb3;stroke:#f5deb3;" x="254.736519" xlink:href="#mba629816e2" y="62.752535"/>
     <use style="fill:#f5deb3;stroke:#f5deb3;" x="254.736519" xlink:href="#mba629816e2" y="62.752535"/>
    </g>
   </g>
   <g id="line2d_34">
    <defs>
     <path d="M 0 1.5 
C 0.397805 1.5 0.77937 1.341951 1.06066 1.06066 
C 1.341951 0.77937 1.5 0.397805 1.5 0 
C 1.5 -0.397805 1.341951 -0.77937 1.06066 -1.06066 
C 0.77937 -1.341951 0.397805 -1.5 0 -1.5 
C -0.397805 -1.5 -0.77937 -1.341951 -1.06066 -1.06066 
C -1.341951 -0.77937 -1.5 -0.397805 -1.5 0 
C -1.5 0.397805 -1.341951 0.77937 -1.06066 1.06066 
C -0.77937 1.341951 -0.397805 1.5 0 1.5 
z
" id="ma3fd651525" style="stroke:#000080;"/>
    </defs>
    <g>
     <use style="fill:#000080;stroke:#000080;" x="243.78338" xlink:href="#ma3fd651525" y="119.253239"/>
     <use style="fill:#000080;stroke:#000080;" x="243.78338" xlink:href="#ma3fd651525" y="119.253239"/>
    </g>
   </g>
   <g id="line2d_35">
    <path d="M 38.440992 298.944 
L 38.440992 297.091518 
L 50.52898 297.091518 
L 50.52898 294.312795 
L 57.6 294.312795 
L 57.6 293.386554 
L 62.616969 293.386554 
L 62.616969 292.923433 
L 66.508432 292.923433 
L 66.508432 291.534072 
L 69.687988 291.534072 
L 69.687988 291.070951 
L 72.376266 291.070951 
L 72.376266 290.14471 
L 78.59642 290.14471 
L 78.59642 288.755349 
L 85.66744 288.755349 
L 85.66744 288.292228 
L 88.846997 288.292228 
L 88.846997 286.439746 
L 90.684409 286.439746 
L 90.684409 285.976625 
L 91.535274 285.976625 
L 91.535274 283.661023 
L 92.34655 283.661023 
L 92.34655 282.734782 
L 94.575872 282.734782 
L 94.575872 282.271661 
L 96.552242 282.271661 
L 96.552242 281.808541 
L 97.755429 281.808541 
L 97.755429 281.34542 
L 99.938184 281.34542 
L 99.938184 280.419179 
L 100.443706 280.419179 
L 100.443706 279.956059 
L 104.033617 279.956059 
L 104.033617 279.492938 
L 105.209745 279.492938 
L 105.209745 279.029818 
L 106.66386 279.029818 
L 106.66386 277.640456 
L 107.009204 277.640456 
L 107.009204 277.177336 
L 107.347841 277.177336 
L 107.347841 276.251095 
L 108.948899 276.251095 
L 108.948899 273.472371 
L 109.252198 273.472371 
L 109.252198 273.009251 
L 110.694282 273.009251 
L 110.694282 272.08301 
L 112.531694 272.08301 
L 112.531694 270.230528 
L 113.26352 270.230528 
L 113.26352 266.988684 
L 114.641021 266.988684 
L 114.641021 263.28372 
L 116.323218 263.28372 
L 116.323218 262.8206 
L 119.931767 262.8206 
L 119.931767 261.431238 
L 121.340187 261.431238 
L 121.340187 260.504997 
L 121.489881 260.504997 
L 121.489881 259.578756 
L 123.725164 259.578756 
L 123.725164 257.263153 
L 127.590383 257.263153 
L 127.590383 256.336912 
L 127.799239 256.336912 
L 127.799239 255.873792 
L 128.310692 255.873792 
L 128.310692 255.410671 
L 130.036864 255.410671 
L 130.127931 252.168828 
L 131.690703 252.168828 
L 131.690703 251.242587 
L 132.501978 251.242587 
L 132.501978 250.779466 
L 134.800918 250.779466 
L 134.800918 250.316346 
L 134.939326 250.316346 
L 134.939326 249.853225 
L 139.413734 249.853225 
L 139.413734 248.926984 
L 141.33096 248.926984 
L 141.33096 248.000743 
L 143.485587 248.000743 
L 143.485587 247.537622 
L 144.148442 247.537622 
L 144.148442 246.611381 
L 150.143571 246.611381 
L 150.143571 245.22202 
L 152.410901 245.22202 
L 152.410901 244.295779 
L 153.395042 244.295779 
L 153.395042 243.369538 
L 155.015814 243.369538 
L 155.015814 241.980176 
L 155.657823 241.980176 
L 155.657823 241.053935 
L 155.783437 241.053935 
L 155.783437 238.738333 
L 158.304027 238.738333 
L 158.304027 235.959609 
L 159.658204 235.959609 
L 159.658204 235.496489 
L 160.119762 235.496489 
L 160.119762 234.570248 
L 163.388564 234.570248 
L 163.388564 233.180886 
L 165.459092 233.180886 
L 165.459092 232.254645 
L 165.791279 232.254645 
L 165.791279 231.328404 
L 168.006494 231.328404 
L 168.006494 230.402163 
L 168.686493 230.402163 
L 168.686493 229.475922 
L 169.312185 229.475922 
L 169.312185 228.549681 
L 170.40104 228.549681 
L 170.40104 227.62344 
L 172.401882 227.62344 
L 172.401882 227.16032 
L 173.447772 227.16032 
L 173.447772 226.234079 
L 173.598631 226.234079 
L 173.621148 221.139753 
L 174.080103 221.139753 
L 174.080103 219.750391 
L 174.240098 219.750391 
L 174.326753 216.971668 
L 175.981689 216.971668 
L 175.981689 216.045427 
L 176.235332 216.045427 
L 176.235332 214.656066 
L 178.325932 214.656066 
L 178.325932 214.192945 
L 178.716697 214.192945 
L 178.716697 212.803583 
L 179.322098 212.803583 
L 179.392276 211.414222 
L 180.218239 211.414222 
L 180.218239 210.951101 
L 180.483402 210.951101 
L 180.483402 210.487981 
L 183.687402 210.487981 
L 183.687402 209.56174 
L 184.324185 209.56174 
L 184.34853 208.635499 
L 186.23736 208.635499 
L 186.23736 208.172378 
L 186.852213 208.172378 
L 186.852213 207.246137 
L 187.452913 207.246137 
L 187.452913 205.856776 
L 187.702242 205.856776 
L 187.702242 204.930535 
L 189.360429 204.930535 
L 189.360429 204.467414 
L 190.919115 204.467414 
L 190.919115 203.541173 
L 191.085231 203.541173 
L 191.085231 203.078053 
L 191.271603 203.078053 
L 191.271603 202.614932 
L 192.329334 202.614932 
L 192.390803 201.225571 
L 193.21718 201.225571 
L 193.21718 200.76245 
L 193.552863 200.76245 
L 193.653034 198.909968 
L 193.806936 198.909968 
L 193.8352 197.520606 
L 194.048062 197.520606 
L 194.048062 196.131245 
L 195.006978 196.131245 
L 195.006978 195.668124 
L 196.131796 195.668124 
L 196.214125 194.278763 
L 196.769853 194.278763 
L 196.769853 193.815642 
L 197.765218 193.815642 
L 197.768975 191.50004 
L 197.916726 191.50004 
L 197.916726 191.036919 
L 198.339897 191.036919 
L 198.339897 190.110678 
L 198.509931 190.110678 
L 198.581787 189.184437 
L 198.744163 189.184437 
L 198.744163 188.721316 
L 199.10277 188.721316 
L 199.179159 187.331955 
L 199.960014 187.331955 
L 199.976571 186.405714 
L 200.093674 186.405714 
L 200.093674 185.479473 
L 200.541567 185.479473 
L 200.643804 183.16387 
L 200.656542 183.16387 
L 200.656542 182.237629 
L 200.783408 182.237629 
L 200.783408 181.774509 
L 201.07019 181.774509 
L 201.170929 180.848268 
L 201.238792 180.848268 
L 201.277233 178.995786 
L 202.332134 178.995786 
L 202.435922 176.680183 
L 202.6587 176.680183 
L 202.6587 176.217062 
L 202.832367 176.217062 
L 202.832367 175.753942 
L 202.97369 175.753942 
L 202.97369 175.290821 
L 203.222748 175.290821 
L 203.265284 174.36458 
L 203.460169 174.36458 
L 203.460169 173.90146 
L 203.773116 173.90146 
L 203.773116 173.438339 
L 204.223823 173.438339 
L 204.223823 172.512098 
L 204.38008 172.512098 
L 204.38008 171.585857 
L 204.588385 171.585857 
L 204.588385 171.122737 
L 205.00636 171.122737 
L 205.083087 170.196496 
L 205.351436 170.196496 
L 205.351436 169.733375 
L 205.496744 169.733375 
L 205.496744 169.270255 
L 205.858348 169.270255 
L 205.858348 168.807134 
L 205.971368 168.807134 
L 206.018245 166.028411 
L 206.184806 166.028411 
L 206.184806 165.565291 
L 206.521192 165.565291 
L 206.521192 165.10217 
L 206.67966 165.10217 
L 206.67966 164.175929 
L 206.826648 164.175929 
L 206.930251 162.786567 
L 207.098267 162.786567 
L 207.098267 161.860326 
L 207.378716 161.860326 
L 207.378716 161.397206 
L 207.753538 161.397206 
L 207.831765 160.007844 
L 208.214626 160.007844 
L 208.214626 159.081603 
L 208.622557 159.081603 
L 208.655789 157.229121 
L 208.941178 157.229121 
L 208.941178 156.766001 
L 209.319095 156.766001 
L 209.418569 154.913519 
L 209.62535 154.913519 
L 209.683305 153.524157 
L 209.761854 153.524157 
L 209.817476 152.134795 
L 210.29102 152.134795 
L 210.29102 151.671675 
L 210.443329 151.671675 
L 210.544736 149.819193 
L 210.641069 149.819193 
L 210.641069 148.892952 
L 210.863205 148.892952 
L 210.872068 147.966711 
L 211.125389 147.966711 
L 211.142845 147.04047 
L 211.263683 147.04047 
L 211.263683 146.577349 
L 212.236644 146.577349 
L 212.236644 146.114229 
L 212.432181 146.114229 
L 212.539604 144.261747 
L 212.728607 144.261747 
L 212.728607 143.798626 
L 212.924249 143.798626 
L 212.924249 143.335506 
L 213.212495 143.335506 
L 213.305987 141.946144 
L 214.231878 141.946144 
L 214.340421 140.093662 
L 214.690549 140.093662 
L 214.690549 139.630541 
L 214.966657 139.630541 
L 215.020519 137.778059 
L 215.165192 137.778059 
L 215.243978 135.462457 
L 215.82446 135.462457 
L 215.82446 134.999336 
L 216.404314 134.999336 
L 216.404314 134.536216 
L 216.814294 134.536216 
L 216.814294 134.073095 
L 217.015414 134.073095 
L 217.015414 133.146854 
L 217.313729 133.146854 
L 217.313729 132.220613 
L 217.798067 132.220613 
L 217.833172 130.831252 
L 217.968173 130.831252 
L 217.968173 130.368131 
L 218.089255 130.368131 
L 218.089255 129.905011 
L 218.519691 129.905011 
L 218.53283 128.97877 
L 219.170848 128.97877 
L 219.258161 127.589408 
L 220.269564 127.589408 
L 220.269564 127.126287 
L 220.44699 127.126287 
L 220.44699 126.200046 
L 220.861093 126.200046 
L 220.861093 125.273805 
L 221.58295 125.273805 
L 221.58295 124.810685 
L 222.083389 124.810685 
L 222.112712 123.884444 
L 223.806997 123.884444 
L 223.806997 122.958203 
L 224.073347 122.958203 
L 224.073347 122.031962 
L 224.189743 122.031962 
L 224.189743 121.105721 
L 226.00278 121.105721 
L 226.087408 119.716359 
L 243.78338 119.716359 
L 243.78338 119.253239 
L 338.688 119.253239 
L 338.688 119.253239 
" style="fill:none;stroke:#000080;stroke-linecap:square;stroke-width:1.5;"/>
   </g>
   <g id="line2d_36">
    <defs>
     <path d="M 0 6 
C 1.591219 6 3.117479 5.367802 4.242641 4.242641 
C 5.367802 3.117479 6 1.591219 6 0 
C 6 -1.591219 5.367802 -3.117479 4.242641 -4.242641 
C 3.117479 -5.367802 1.591219 -6 0 -6 
C -1.591219 -6 -3.117479 -5.367802 -4.242641 -4.242641 
C -5.367802 -3.117479 -6 -1.591219 -6 0 
C -6 1.591219 -5.367802 3.117479 -4.242641 4.242641 
C -3.117479 5.367802 -1.591219 6 0 6 
z
" id="md1985d6592" style="stroke:#000080;stroke-width:1.5;"/>
    </defs>
    <g>
     <use style="fill-opacity:0;stroke:#000080;stroke-width:1.5;" x="132.501978" xlink:href="#md1985d6592" y="251.242587"/>
     <use style="fill-opacity:0;stroke:#000080;stroke-width:1.5;" x="193.806936" xlink:href="#md1985d6592" y="198.909968"/>
     <use style="fill-opacity:0;stroke:#000080;stroke-width:1.5;" x="226.087408" xlink:href="#md1985d6592" y="120.6426"/>
     <use style="fill-opacity:0;stroke:#000080;stroke-width:1.5;" x="243.78338" xlink:href="#md1985d6592" y="119.253239"/>
     <use style="fill-opacity:0;stroke:#000080;stroke-width:1.5;" x="243.78338" xlink:href="#md1985d6592" y="119.253239"/>
     <use style="fill-opacity:0;stroke:#000080;stroke-width:1.5;" x="338.688" xlink:href="#md1985d6592" y="119.253239"/>
    </g>
   </g>
   <g id="line2d_37">
    <path style="fill:none;stroke:#000080;stroke-linecap:square;stroke-width:1.5;"/>
    <g/>
   </g>
   <g id="line2d_38">
    <path clip-path="url(#p10f8761c21)" d="M 258.377608 119.253239 
" style="fill:none;stroke:#000080;stroke-linecap:square;stroke-width:1.5;"/>
    <defs>
     <path d="M -12 12 
L 12 -12 
M -12 -12 
L 12 12 
" id="m6341892559" style="stroke:#000080;"/>
    </defs>
    <g clip-path="url(#p10f8761c21)">
     <use style="fill:#000080;stroke:#000080;" x="258.377608" xlink:href="#m6341892559" y="119.253239"/>
    </g>
   </g>
   <g id="line2d_39">
    <defs>
     <path d="M 0 1.5 
C 0.397805 1.5 0.77937 1.341951 1.06066 1.06066 
C 1.341951 0.77937 1.5 0.397805 1.5 0 
C 1.5 -0.397805 1.341951 -0.77937 1.06066 -1.06066 
C 0.77937 -1.341951 0.397805 -1.5 0 -1.5 
C -0.397805 -1.5 -0.77937 -1.341951 -1.06066 -1.06066 
C -1.341951 -0.77937 -1.5 -0.397805 -1.5 0 
C -1.5 0.397805 -1.341951 0.77937 -1.06066 1.06066 
C -0.77937 1.341951 -0.397805 1.5 0 1.5 
z
" id="m8aae660fa8" style="stroke:#ff00ff;"/>
    </defs>
    <g>
     <use style="fill:#ff00ff;stroke:#ff00ff;" x="257.329529" xlink:href="#m8aae660fa8" y="105.822744"/>
     <use style="fill:#ff00ff;stroke:#ff00ff;" x="257.329529" xlink:href="#m8aae660fa8" y="105.822744"/>
    </g>
   </g>
   <g id="line2d_40">
    <path d="M 38.440992 298.944 
L 38.440992 290.14471 
L 137.319638 290.14471 
L 137.319638 288.755349 
L 137.558536 288.755349 
L 137.558536 286.902867 
L 137.676769 286.902867 
L 137.676769 286.439746 
L 140.89556 286.439746 
L 140.89556 284.587264 
L 141.755753 284.587264 
L 141.755753 283.197902 
L 143.44331 283.197902 
L 143.44331 279.956059 
L 144.787023 279.956059 
L 144.787023 277.640456 
L 145.136208 277.640456 
L 145.136208 276.714215 
L 145.591172 276.714215 
L 145.591172 276.251095 
L 146.216039 276.251095 
L 146.216039 274.861733 
L 147.402367 274.861733 
L 147.436066 273.009251 
L 147.835457 273.009251 
L 147.933891 271.619889 
L 148.449693 271.619889 
L 148.449693 271.156769 
L 148.76449 271.156769 
L 148.76449 270.693648 
L 149.347388 270.693648 
L 149.377533 269.767407 
L 149.587107 269.767407 
L 149.587107 268.841166 
L 150.143571 268.841166 
L 150.143571 268.378046 
L 150.401087 268.378046 
L 150.401087 267.914925 
L 150.710752 267.914925 
L 150.710752 267.451805 
L 150.960087 267.451805 
L 150.960087 266.525564 
L 151.124351 266.525564 
L 151.124351 266.062443 
L 151.314058 266.062443 
L 151.394733 264.673082 
L 151.475037 264.673082 
L 151.554972 260.968117 
L 151.897188 260.968117 
L 151.897188 260.041876 
L 152.761703 260.041876 
L 152.761703 258.189394 
L 152.885298 258.189394 
L 152.983548 254.02131 
L 153.008024 254.02131 
L 153.081247 252.631948 
L 153.275019 252.631948 
L 153.275019 251.705707 
L 153.537988 251.705707 
L 153.537988 251.242587 
L 153.773658 251.242587 
L 153.820412 249.853225 
L 153.983071 249.853225 
L 153.983071 249.390104 
L 154.57429 249.390104 
L 154.57429 248.463863 
L 154.685723 248.463863 
L 154.685723 248.000743 
L 155.102793 248.000743 
L 155.102793 247.074502 
L 155.55245 247.074502 
L 155.55245 244.295779 
L 155.699795 244.295779 
L 155.741666 241.980176 
L 155.845906 241.980176 
L 155.86668 240.590815 
L 155.990803 240.590815 
L 155.990803 240.127694 
L 156.236431 240.127694 
L 156.236431 239.201453 
L 156.398281 239.201453 
L 156.398281 238.275212 
L 156.737306 238.275212 
L 156.737306 237.812091 
L 157.1279 237.812091 
L 157.20498 235.959609 
L 157.509937 235.959609 
L 157.566527 231.328404 
L 157.67916 231.328404 
L 157.67916 230.865284 
L 157.846757 230.865284 
L 157.846757 229.475922 
L 158.195371 229.475922 
L 158.195371 228.549681 
L 159.046236 228.549681 
L 159.098062 227.16032 
L 159.320876 227.16032 
L 159.320876 226.234079 
L 159.857512 226.234079 
L 159.857512 225.307837 
L 160.69579 225.307837 
L 160.774311 223.455355 
L 160.883648 223.455355 
L 160.914762 222.065994 
L 161.420284 222.065994 
L 161.420284 221.602873 
L 161.540659 221.602873 
L 161.540659 220.676632 
L 162.115875 220.676632 
L 162.188268 219.750391 
L 162.346481 219.750391 
L 162.360793 218.36103 
L 162.868358 218.36103 
L 162.868358 217.434789 
L 162.992975 217.434789 
L 162.992975 216.508548 
L 163.266752 216.508548 
L 163.266752 216.045427 
L 163.388564 216.045427 
L 163.388564 215.582307 
L 163.682792 215.582307 
L 163.709295 214.656066 
L 164.460881 214.656066 
L 164.460881 214.192945 
L 165.744209 214.192945 
L 165.744209 213.729825 
L 166.105719 213.729825 
L 166.105719 213.266704 
L 167.169078 213.266704 
L 167.255733 210.951101 
L 167.619287 210.951101 
L 167.619287 210.487981 
L 167.76681 210.487981 
L 167.76681 209.56174 
L 168.202038 209.56174 
L 168.202038 209.098619 
L 168.676537 209.098619 
L 168.676537 208.635499 
L 168.805533 208.635499 
L 168.805533 208.172378 
L 169.654516 208.172378 
L 169.654516 207.709258 
L 170.392016 207.709258 
L 170.392016 206.783017 
L 172.232135 206.783017 
L 172.232135 206.319896 
L 172.458099 206.319896 
L 172.466115 204.930535 
L 173.265 204.930535 
L 173.265 204.004294 
L 174.189349 204.004294 
L 174.189349 203.541173 
L 176.215951 203.541173 
L 176.215951 203.078053 
L 176.869327 203.078053 
L 176.869327 201.688691 
L 177.08589 201.688691 
L 177.08589 201.225571 
L 178.906075 201.225571 
L 178.906075 200.299329 
L 180.689668 200.299329 
L 180.689668 199.836209 
L 182.073625 199.836209 
L 182.073625 199.373088 
L 183.484076 199.373088 
L 183.518129 197.520606 
L 183.929967 197.520606 
L 183.929967 197.057486 
L 184.177395 197.057486 
L 184.177395 196.594365 
L 184.594129 196.594365 
L 184.594129 196.131245 
L 188.193708 196.131245 
L 188.193708 195.668124 
L 192.551136 195.668124 
L 192.551136 194.741883 
L 198.348983 194.741883 
L 198.348983 194.278763 
L 199.165295 194.278763 
L 199.165295 193.352522 
L 199.574803 193.352522 
L 199.574803 192.889401 
L 204.358211 192.889401 
L 204.358211 191.96316 
L 204.979053 191.96316 
L 204.979053 191.50004 
L 205.936128 191.50004 
L 205.936128 190.573799 
L 206.242671 190.573799 
L 206.333708 187.331955 
L 206.524603 187.331955 
L 206.524603 186.405714 
L 207.032138 186.405714 
L 207.032138 185.016352 
L 207.169625 185.016352 
L 207.179482 184.090111 
L 207.782121 184.090111 
L 207.782121 183.16387 
L 208.039366 183.16387 
L 208.039366 182.70075 
L 208.239373 182.70075 
L 208.239373 182.237629 
L 208.50828 182.237629 
L 208.50828 181.774509 
L 208.913443 181.774509 
L 208.913443 180.848268 
L 210.147531 180.848268 
L 210.147531 179.922027 
L 211.684793 179.922027 
L 211.696628 178.532665 
L 211.82545 178.532665 
L 211.82545 177.606424 
L 212.529939 177.606424 
L 212.604705 175.290821 
L 212.65917 175.290821 
L 212.65917 174.36458 
L 212.801734 174.36458 
L 212.878505 173.438339 
L 213.072482 173.438339 
L 213.072482 172.975219 
L 213.22566 172.975219 
L 213.22566 172.048978 
L 213.384411 172.048978 
L 213.418898 171.122737 
L 213.840964 171.122737 
L 213.840964 170.659616 
L 214.34623 170.659616 
L 214.34623 170.196496 
L 214.472814 170.196496 
L 214.472814 169.733375 
L 214.669182 169.733375 
L 214.669182 168.807134 
L 214.840796 168.807134 
L 214.871818 167.417773 
L 215.088136 167.417773 
L 215.088136 166.491532 
L 216.150869 166.491532 
L 216.150869 166.028411 
L 216.981118 166.028411 
L 216.981118 165.565291 
L 217.584733 165.565291 
L 217.584733 164.63905 
L 218.627364 164.63905 
L 218.627364 164.175929 
L 219.202749 164.175929 
L 219.242817 163.249688 
L 225.471632 163.249688 
L 225.471632 162.786567 
L 225.962177 162.786567 
L 225.962177 162.323447 
L 226.094442 162.323447 
L 226.185993 160.934085 
L 226.985851 160.934085 
L 226.985851 160.470965 
L 227.364001 160.470965 
L 227.432694 159.081603 
L 227.718283 159.081603 
L 227.718283 158.618483 
L 228.421514 158.618483 
L 228.421514 158.155362 
L 229.52042 158.155362 
L 229.52042 157.692242 
L 229.737416 157.692242 
L 229.806361 156.30288 
L 230.624815 156.30288 
L 230.624815 155.83976 
L 231.161122 155.83976 
L 231.161122 154.913519 
L 232.868951 154.913519 
L 232.868951 154.450398 
L 233.896235 154.450398 
L 233.896235 153.987278 
L 234.03787 153.987278 
L 234.03787 153.524157 
L 234.149702 153.524157 
L 234.149702 153.061037 
L 234.443393 153.061037 
L 234.48851 146.577349 
L 234.575209 146.577349 
L 234.663291 142.872385 
L 234.686373 142.872385 
L 234.700163 141.946144 
L 234.896993 141.946144 
L 234.896993 140.556783 
L 235.048266 140.556783 
L 235.152281 139.167421 
L 235.364561 139.167421 
L 235.472549 137.778059 
L 235.829029 137.778059 
L 235.829029 136.851818 
L 236.052523 136.851818 
L 236.052523 136.388698 
L 236.820746 136.388698 
L 236.820746 135.925577 
L 237.925342 135.925577 
L 238.028521 133.609975 
L 238.051843 133.609975 
L 238.158356 132.683734 
L 238.559192 132.683734 
L 238.559192 131.757493 
L 239.270374 131.757493 
L 239.270374 131.294372 
L 240.126041 131.294372 
L 240.126041 130.831252 
L 241.25047 130.831252 
L 241.25047 130.368131 
L 241.422982 130.368131 
L 241.422982 129.905011 
L 242.085808 129.905011 
L 242.085808 128.97877 
L 243.248972 128.97877 
L 243.340355 126.200046 
L 243.398497 126.200046 
L 243.476539 125.273805 
L 243.540627 125.273805 
L 243.635508 122.031962 
L 243.668237 122.031962 
L 243.709938 121.105721 
L 243.784051 121.105721 
L 243.852638 120.17948 
L 243.99882 120.17948 
L 243.99882 119.253239 
L 244.862566 119.253239 
L 244.862566 118.326998 
L 245.588628 118.326998 
L 245.588628 117.863877 
L 246.442871 117.863877 
L 246.442871 117.400757 
L 247.005413 117.400757 
L 247.005413 116.937636 
L 247.45766 116.937636 
L 247.567778 115.548274 
L 247.58851 115.548274 
L 247.688905 112.769551 
L 247.990463 112.769551 
L 247.990463 112.306431 
L 248.462161 112.306431 
L 248.488213 110.917069 
L 249.148195 110.917069 
L 249.148195 109.990828 
L 250.706483 109.990828 
L 250.706483 109.527708 
L 253.644392 109.527708 
L 253.690846 108.601467 
L 255.67931 108.601467 
L 255.67931 108.138346 
L 257.019121 108.138346 
L 257.019121 107.675226 
L 257.159002 107.675226 
L 257.212032 106.285864 
L 257.329529 106.285864 
L 257.329529 105.822744 
L 338.688 105.822744 
L 338.688 105.822744 
" style="fill:none;stroke:#ff00ff;stroke-linecap:square;stroke-width:1.5;"/>
   </g>
   <g id="line2d_41">
    <defs>
     <path d="M 0 8.485281 
L 5.091169 0 
L 0 -8.485281 
L -5.091169 0 
z
" id="m7d4841819b" style="stroke:#ff00ff;stroke-linejoin:miter;stroke-width:1.5;"/>
    </defs>
    <g>
     <use style="fill-opacity:0;stroke:#ff00ff;stroke-linejoin:miter;stroke-width:1.5;" x="154.685723" xlink:href="#m7d4841819b" y="248.000743"/>
     <use style="fill-opacity:0;stroke:#ff00ff;stroke-linejoin:miter;stroke-width:1.5;" x="199.574803" xlink:href="#m7d4841819b" y="193.352522"/>
     <use style="fill-opacity:0;stroke:#ff00ff;stroke-linejoin:miter;stroke-width:1.5;" x="243.99882" xlink:href="#m7d4841819b" y="119.253239"/>
     <use style="fill-opacity:0;stroke:#ff00ff;stroke-linejoin:miter;stroke-width:1.5;" x="257.329529" xlink:href="#m7d4841819b" y="105.822744"/>
     <use style="fill-opacity:0;stroke:#ff00ff;stroke-linejoin:miter;stroke-width:1.5;" x="257.329529" xlink:href="#m7d4841819b" y="105.822744"/>
     <use style="fill-opacity:0;stroke:#ff00ff;stroke-linejoin:miter;stroke-width:1.5;" x="338.688" xlink:href="#m7d4841819b" y="105.822744"/>
    </g>
   </g>
   <g id="line2d_42">
    <path style="fill:none;stroke:#ff00ff;stroke-linecap:square;stroke-width:1.5;"/>
    <g/>
   </g>
   <g id="line2d_43">
    <path clip-path="url(#p10f8761c21)" d="M 258.384117 105.822744 
" style="fill:none;stroke:#ff00ff;stroke-linecap:square;stroke-width:1.5;"/>
    <defs>
     <path d="M -12 12 
L 12 -12 
M -12 -12 
L 12 12 
" id="m03dfc3abc0" style="stroke:#ff00ff;"/>
    </defs>
    <g clip-path="url(#p10f8761c21)">
     <use style="fill:#ff00ff;stroke:#ff00ff;" x="258.384117" xlink:href="#m03dfc3abc0" y="105.822744"/>
    </g>
   </g>
   <g id="line2d_44">
    <defs>
     <path d="M 0 1.5 
C 0.397805 1.5 0.77937 1.341951 1.06066 1.06066 
C 1.341951 0.77937 1.5 0.397805 1.5 0 
C 1.5 -0.397805 1.341951 -0.77937 1.06066 -1.06066 
C 0.77937 -1.341951 0.397805 -1.5 0 -1.5 
C -0.397805 -1.5 -0.77937 -1.341951 -1.06066 -1.06066 
C -1.341951 -0.77937 -1.5 -0.397805 -1.5 0 
C -1.5 0.397805 -1.341951 0.77937 -1.06066 1.06066 
C -0.77937 1.341951 -0.397805 1.5 0 1.5 
z
" id="m567d6d5b6b" style="stroke:#ff7500;"/>
    </defs>
    <g>
     <use style="fill:#ff7500;stroke:#ff7500;" x="253.716229" xlink:href="#m567d6d5b6b" y="145.651108"/>
     <use style="fill:#ff7500;stroke:#ff7500;" x="253.716229" xlink:href="#m567d6d5b6b" y="145.651108"/>
    </g>
   </g>
   <g id="line2d_45">
    <path d="M 147.402367 298.944 
L 147.402367 298.480879 
L 149.587107 298.480879 
L 149.587107 298.017759 
L 150.229833 298.017759 
L 150.229833 296.165277 
L 150.486088 296.165277 
L 150.486088 293.849674 
L 150.822008 293.849674 
L 150.822008 293.386554 
L 151.287083 293.386554 
L 151.367883 291.534072 
L 152.283884 291.534072 
L 152.283884 291.070951 
L 153.679772 291.070951 
L 153.726778 289.218469 
L 154.371897 289.218469 
L 154.371897 287.829108 
L 155.167744 287.829108 
L 155.167744 286.902867 
L 155.908152 286.902867 
L 155.908152 285.976625 
L 156.697761 285.976625 
L 156.796456 284.587264 
L 156.953214 284.587264 
L 156.953214 284.124143 
L 157.472107 284.124143 
L 157.528821 282.734782 
L 157.697862 282.734782 
L 157.697862 282.271661 
L 157.939176 282.271661 
L 158.012759 280.419179 
L 158.51933 280.419179 
L 158.537152 278.103577 
L 158.854881 278.103577 
L 158.924708 275.787974 
L 159.098062 275.787974 
L 159.098062 273.935492 
L 159.286782 273.935492 
L 159.354904 272.08301 
L 159.439685 272.08301 
L 159.524055 268.841166 
L 159.557689 268.841166 
L 159.557689 266.988684 
L 159.906985 266.988684 
L 159.906985 265.599323 
L 160.103486 265.599323 
L 160.103486 265.136202 
L 161.023225 265.136202 
L 161.100288 264.209961 
L 161.405178 264.209961 
L 161.480575 262.8206 
L 161.764147 262.8206 
L 161.764147 261.894358 
L 161.926237 261.894358 
L 161.970183 260.504997 
L 162.072295 260.504997 
L 162.072295 259.115635 
L 162.346481 259.115635 
L 162.346481 258.652515 
L 162.474869 258.652515 
L 162.474869 258.189394 
L 162.770815 258.189394 
L 162.79874 257.263153 
L 163.006766 257.263153 
L 163.034316 253.558189 
L 163.171418 253.558189 
L 163.280329 251.242587 
L 163.293895 251.242587 
L 163.361568 249.390104 
L 163.735759 249.390104 
L 163.814908 246.611381 
L 163.946031 246.611381 
L 164.037234 244.758899 
L 164.102088 244.758899 
L 164.140886 241.517056 
L 164.42279 241.517056 
L 164.42279 240.590815 
L 164.675172 240.590815 
L 164.675172 240.127694 
L 164.960967 240.127694 
L 164.960967 239.664574 
L 165.302685 239.664574 
L 165.35096 237.348971 
L 165.943384 237.348971 
L 165.943384 236.42273 
L 166.128786 236.42273 
L 166.174831 233.644007 
L 166.266556 233.644007 
L 166.266556 233.180886 
L 166.48249 233.180886 
L 166.48249 232.254645 
L 166.795913 232.254645 
L 166.795913 231.791525 
L 167.016388 231.791525 
L 167.016388 231.328404 
L 167.201624 231.328404 
L 167.255733 228.549681 
L 167.523787 228.549681 
L 167.523787 227.62344 
L 168.344733 227.62344 
L 168.425752 224.844717 
L 168.476198 224.844717 
L 168.476198 224.381596 
L 169.879059 224.381596 
L 169.934746 222.529114 
L 170.036379 222.529114 
L 170.036379 222.065994 
L 170.775901 222.065994 
L 170.775901 221.139753 
L 171.417378 221.139753 
L 171.46837 218.36103 
L 171.704381 218.36103 
L 171.704381 217.434789 
L 171.895887 217.434789 
L 172.003206 214.656066 
L 172.011434 214.656066 
L 172.011434 213.729825 
L 172.248373 213.729825 
L 172.248373 212.803583 
L 172.506141 212.803583 
L 172.577957 210.951101 
L 172.901427 210.951101 
L 172.901427 209.098619 
L 173.026049 209.098619 
L 173.126653 207.709258 
L 173.455346 207.709258 
L 173.455346 207.246137 
L 173.962814 207.246137 
L 173.962814 205.856776 
L 174.290699 205.856776 
L 174.290699 204.467414 
L 174.448781 204.467414 
L 174.448781 204.004294 
L 174.562857 204.004294 
L 174.626698 203.078053 
L 175.011842 203.078053 
L 175.011842 202.151812 
L 175.23891 202.151812 
L 175.23891 201.225571 
L 175.550576 201.225571 
L 175.617599 198.446847 
L 176.687829 198.446847 
L 176.687829 197.520606 
L 176.83193 197.520606 
L 176.925272 195.205004 
L 177.245042 195.205004 
L 177.348323 193.815642 
L 177.654547 193.815642 
L 177.654547 193.352522 
L 177.820411 193.352522 
L 177.896886 192.426281 
L 178.025547 192.426281 
L 178.025547 191.96316 
L 178.519578 191.96316 
L 178.576125 190.573799 
L 178.722297 190.573799 
L 178.722297 190.110678 
L 178.83947 190.110678 
L 178.878354 187.795075 
L 179.01652 187.795075 
L 179.01652 186.868834 
L 179.289612 186.868834 
L 179.370713 185.942593 
L 179.483624 185.942593 
L 179.563829 184.553232 
L 179.6808 184.553232 
L 179.6808 184.090111 
L 179.796992 184.090111 
L 179.796992 183.626991 
L 180.177084 183.626991 
L 180.177084 183.16387 
L 180.744595 183.16387 
L 180.824181 182.237629 
L 180.878686 182.237629 
L 180.957664 180.385147 
L 181.050988 180.385147 
L 181.065678 178.995786 
L 181.424165 178.995786 
L 181.443334 177.606424 
L 181.553151 177.606424 
L 181.553151 176.680183 
L 182.004192 176.680183 
L 182.004192 176.217062 
L 182.394041 176.217062 
L 182.448383 175.290821 
L 182.74872 175.290821 
L 182.775365 173.90146 
L 182.92559 173.90146 
L 182.92559 173.438339 
L 183.07017 173.438339 
L 183.07017 172.512098 
L 183.35149 172.512098 
L 183.35149 171.585857 
L 183.821648 171.585857 
L 183.821648 171.122737 
L 184.15691 171.122737 
L 184.222379 170.196496 
L 184.856021 170.196496 
L 184.883568 168.807134 
L 185.172149 168.807134 
L 185.27242 167.417773 
L 185.566037 167.417773 
L 185.618894 166.028411 
L 185.76904 166.028411 
L 185.869662 164.63905 
L 186.371467 164.63905 
L 186.371467 163.249688 
L 186.925819 163.249688 
L 186.925819 162.786567 
L 187.333733 162.786567 
L 187.333733 161.860326 
L 187.818938 161.860326 
L 187.818938 161.397206 
L 188.144854 161.397206 
L 188.144854 160.934085 
L 188.394199 160.934085 
L 188.461588 160.007844 
L 189.38171 160.007844 
L 189.38171 159.544724 
L 189.721691 159.544724 
L 189.748486 157.229121 
L 189.905451 157.229121 
L 189.905451 156.766001 
L 190.396731 156.766001 
L 190.396731 156.30288 
L 191.948033 156.30288 
L 191.948033 155.83976 
L 192.208326 155.83976 
L 192.208326 155.376639 
L 192.795152 155.376639 
L 192.795152 154.450398 
L 193.148771 154.450398 
L 193.148771 153.987278 
L 193.645898 153.987278 
L 193.645898 153.524157 
L 194.923157 153.524157 
L 194.923157 153.061037 
L 198.059543 153.061037 
L 198.059543 152.597916 
L 198.363511 152.597916 
L 198.363511 151.671675 
L 200.067353 151.671675 
L 200.067353 150.745434 
L 202.154848 150.745434 
L 202.154848 150.282313 
L 202.523373 150.282313 
L 202.523373 149.819193 
L 220.531212 149.819193 
L 220.531212 148.892952 
L 220.647432 148.892952 
L 220.647432 148.429831 
L 220.879571 148.429831 
L 220.879571 147.50359 
L 241.175343 147.50359 
L 241.175343 147.04047 
L 242.051301 147.04047 
L 242.051301 146.577349 
L 253.716229 146.577349 
L 253.716229 145.651108 
L 338.688 145.651108 
L 338.688 145.651108 
" style="fill:none;stroke:#ff7500;stroke-linecap:square;stroke-width:1.5;"/>
   </g>
   <g id="line2d_46">
    <defs>
     <path d="M 0 -6 
L -1.347084 -1.854102 
L -5.706339 -1.854102 
L -2.179628 0.708204 
L -3.526712 4.854102 
L -0 2.291796 
L 3.526712 4.854102 
L 2.179628 0.708204 
L 5.706339 -1.854102 
L 1.347084 -1.854102 
z
" id="m755d176154" style="stroke:#ff7500;stroke-linejoin:bevel;stroke-width:1.5;"/>
    </defs>
    <g>
     <use style="fill-opacity:0;stroke:#ff7500;stroke-linejoin:bevel;stroke-width:1.5;" x="171.46837" xlink:href="#m755d176154" y="219.287271"/>
     <use style="fill-opacity:0;stroke:#ff7500;stroke-linejoin:bevel;stroke-width:1.5;" x="194.923157" xlink:href="#m755d176154" y="153.524157"/>
     <use style="fill-opacity:0;stroke:#ff7500;stroke-linejoin:bevel;stroke-width:1.5;" x="253.716229" xlink:href="#m755d176154" y="146.577349"/>
     <use style="fill-opacity:0;stroke:#ff7500;stroke-linejoin:bevel;stroke-width:1.5;" x="253.716229" xlink:href="#m755d176154" y="145.651108"/>
     <use style="fill-opacity:0;stroke:#ff7500;stroke-linejoin:bevel;stroke-width:1.5;" x="338.688" xlink:href="#m755d176154" y="145.651108"/>
    </g>
   </g>
   <g id="line2d_47">
    <path style="fill:none;stroke:#ff7500;stroke-linecap:square;stroke-width:1.5;"/>
    <g/>
   </g>
   <g id="line2d_48">
    <path clip-path="url(#p10f8761c21)" d="M 258.377201 145.651108 
" style="fill:none;stroke:#ff7500;stroke-linecap:square;stroke-width:1.5;"/>
    <defs>
     <path d="M -12 12 
L 12 -12 
M -12 -12 
L 12 12 
" id="m1d5942a562" style="stroke:#ff7500;"/>
    </defs>
    <g clip-path="url(#p10f8761c21)">
     <use style="fill:#ff7500;stroke:#ff7500;" x="258.377201" xlink:href="#m1d5942a562" y="145.651108"/>
    </g>
   </g>
   <g id="line2d_49">
    <path d="M 338.688 145.651108 
L 369.60768 293.571802 
" style="fill:none;stroke:#ff7500;stroke-linecap:square;stroke-width:1.5;"/>
    <g>
     <use style="fill-opacity:0;stroke:#ff7500;stroke-linejoin:bevel;stroke-width:1.5;" x="338.688" xlink:href="#m755d176154" y="145.651108"/>
     <use style="fill-opacity:0;stroke:#ff7500;stroke-linejoin:bevel;stroke-width:1.5;" x="369.60768" xlink:href="#m755d176154" y="293.571802"/>
    </g>
   </g>
   <g id="line2d_50">
    <path d="M 338.688 119.253239 
L 369.60768 207.616634 
" style="fill:none;stroke:#000080;stroke-linecap:square;stroke-width:1.5;"/>
    <g>
     <use style="fill-opacity:0;stroke:#000080;stroke-width:1.5;" x="338.688" xlink:href="#md1985d6592" y="119.253239"/>
     <use style="fill-opacity:0;stroke:#000080;stroke-width:1.5;" x="369.60768" xlink:href="#md1985d6592" y="207.616634"/>
    </g>
   </g>
   <g id="line2d_51">
    <path d="M 338.688 105.822744 
L 369.60768 121.661465 
" style="fill:none;stroke:#ff00ff;stroke-linecap:square;stroke-width:1.5;"/>
    <g>
     <use style="fill-opacity:0;stroke:#ff00ff;stroke-linejoin:miter;stroke-width:1.5;" x="338.688" xlink:href="#m7d4841819b" y="105.822744"/>
     <use style="fill-opacity:0;stroke:#ff00ff;stroke-linejoin:miter;stroke-width:1.5;" x="369.60768" xlink:href="#m7d4841819b" y="121.661465"/>
    </g>
   </g>
   <g id="line2d_52">
    <path d="M 338.688 298.944 
L 338.688 30.334099 
" style="fill:none;stroke:#000000;stroke-linecap:square;stroke-width:1.5;"/>
   </g>
   <g id="patch_3">
    <path d="M 57.6 298.944 
L 57.6 27.648 
" style="fill:none;stroke:#000000;stroke-linecap:square;stroke-linejoin:miter;stroke-width:0.8;"/>
   </g>
   <g id="patch_4">
    <path d="M 338.688 298.944 
L 338.688 27.648 
" style="fill:none;stroke:#000000;stroke-linecap:square;stroke-linejoin:miter;stroke-width:0.8;"/>
   </g>
   <g id="patch_5">
    <path d="M 57.6 298.944 
L 338.688 298.944 
" style="fill:none;stroke:#000000;stroke-linecap:square;stroke-linejoin:miter;stroke-width:0.8;"/>
   </g>
   <g id="patch_6">
    <path d="M 57.6 27.648 
L 338.688 27.648 
" style="fill:none;stroke:#000000;stroke-linecap:square;stroke-linejoin:miter;stroke-width:0.8;"/>
   </g>
   <g id="text_13">
    <!-- SMS-EMOA- -->
    <g transform="translate(375.22944 298.262739)scale(0.17 -0.17)">
     <defs>
      <path d="M 53.515625 70.515625 
L 53.515625 60.890625 
Q 47.90625 63.578125 42.921875 64.890625 
Q 37.9375 66.21875 33.296875 66.21875 
Q 25.25 66.21875 20.875 63.09375 
Q 16.5 59.96875 16.5 54.203125 
Q 16.5 49.359375 19.40625 46.890625 
Q 22.3125 44.4375 30.421875 42.921875 
L 36.375 41.703125 
Q 47.40625 39.59375 52.65625 34.296875 
Q 57.90625 29 57.90625 20.125 
Q 57.90625 9.515625 50.796875 4.046875 
Q 43.703125 -1.421875 29.984375 -1.421875 
Q 24.8125 -1.421875 18.96875 -0.25 
Q 13.140625 0.921875 6.890625 3.21875 
L 6.890625 13.375 
Q 12.890625 10.015625 18.65625 8.296875 
Q 24.421875 6.59375 29.984375 6.59375 
Q 38.421875 6.59375 43.015625 9.90625 
Q 47.609375 13.234375 47.609375 19.390625 
Q 47.609375 24.75 44.3125 27.78125 
Q 41.015625 30.8125 33.5 32.328125 
L 27.484375 33.5 
Q 16.453125 35.6875 11.515625 40.375 
Q 6.59375 45.0625 6.59375 53.421875 
Q 6.59375 63.09375 13.40625 68.65625 
Q 20.21875 74.21875 32.171875 74.21875 
Q 37.3125 74.21875 42.625 73.28125 
Q 47.953125 72.359375 53.515625 70.515625 
z
" id="DejaVuSans-83"/>
      <path d="M 9.8125 72.90625 
L 24.515625 72.90625 
L 43.109375 23.296875 
L 61.8125 72.90625 
L 76.515625 72.90625 
L 76.515625 0 
L 66.890625 0 
L 66.890625 64.015625 
L 48.09375 14.015625 
L 38.1875 14.015625 
L 19.390625 64.015625 
L 19.390625 0 
L 9.8125 0 
z
" id="DejaVuSans-77"/>
      <path d="M 9.8125 72.90625 
L 55.90625 72.90625 
L 55.90625 64.59375 
L 19.671875 64.59375 
L 19.671875 43.015625 
L 54.390625 43.015625 
L 54.390625 34.71875 
L 19.671875 34.71875 
L 19.671875 8.296875 
L 56.78125 8.296875 
L 56.78125 0 
L 9.8125 0 
z
" id="DejaVuSans-69"/>
      <path d="M 39.40625 66.21875 
Q 28.65625 66.21875 22.328125 58.203125 
Q 16.015625 50.203125 16.015625 36.375 
Q 16.015625 22.609375 22.328125 14.59375 
Q 28.65625 6.59375 39.40625 6.59375 
Q 50.140625 6.59375 56.421875 14.59375 
Q 62.703125 22.609375 62.703125 36.375 
Q 62.703125 50.203125 56.421875 58.203125 
Q 50.140625 66.21875 39.40625 66.21875 
z
M 39.40625 74.21875 
Q 54.734375 74.21875 63.90625 63.9375 
Q 73.09375 53.65625 73.09375 36.375 
Q 73.09375 19.140625 63.90625 8.859375 
Q 54.734375 -1.421875 39.40625 -1.421875 
Q 24.03125 -1.421875 14.8125 8.828125 
Q 5.609375 19.09375 5.609375 36.375 
Q 5.609375 53.65625 14.8125 63.9375 
Q 24.03125 74.21875 39.40625 74.21875 
z
" id="DejaVuSans-79"/>
      <path d="M 34.1875 63.1875 
L 20.796875 26.90625 
L 47.609375 26.90625 
z
M 28.609375 72.90625 
L 39.796875 72.90625 
L 67.578125 0 
L 57.328125 0 
L 50.6875 18.703125 
L 17.828125 18.703125 
L 11.1875 0 
L 0.78125 0 
z
" id="DejaVuSans-65"/>
     </defs>
     <use xlink:href="#DejaVuSans-83"/>
     <use x="63.476562" xlink:href="#DejaVuSans-77"/>
     <use x="149.755859" xlink:href="#DejaVuSans-83"/>
     <use x="213.232422" xlink:href="#DejaVuSans-45"/>
     <use x="249.316406" xlink:href="#DejaVuSans-69"/>
     <use x="312.5" xlink:href="#DejaVuSans-77"/>
     <use x="398.779297" xlink:href="#DejaVuSans-79"/>
     <use x="475.740234" xlink:href="#DejaVuSans-65"/>
     <use x="541.898438" xlink:href="#DejaVuSans-45"/>
    </g>
   </g>
   <g id="text_14">
    <!-- COMO-100  -->
    <g transform="translate(375.22944 212.307571)scale(0.17 -0.17)">
     <defs>
      <path d="M 64.40625 67.28125 
L 64.40625 56.890625 
Q 59.421875 61.53125 53.78125 63.8125 
Q 48.140625 66.109375 41.796875 66.109375 
Q 29.296875 66.109375 22.65625 58.46875 
Q 16.015625 50.828125 16.015625 36.375 
Q 16.015625 21.96875 22.65625 14.328125 
Q 29.296875 6.6875 41.796875 6.6875 
Q 48.140625 6.6875 53.78125 8.984375 
Q 59.421875 11.28125 64.40625 15.921875 
L 64.40625 5.609375 
Q 59.234375 2.09375 53.4375 0.328125 
Q 47.65625 -1.421875 41.21875 -1.421875 
Q 24.65625 -1.421875 15.125 8.703125 
Q 5.609375 18.84375 5.609375 36.375 
Q 5.609375 53.953125 15.125 64.078125 
Q 24.65625 74.21875 41.21875 74.21875 
Q 47.75 74.21875 53.53125 72.484375 
Q 59.328125 70.75 64.40625 67.28125 
z
" id="DejaVuSans-67"/>
     </defs>
     <use xlink:href="#DejaVuSans-67"/>
     <use x="69.824219" xlink:href="#DejaVuSans-79"/>
     <use x="148.535156" xlink:href="#DejaVuSans-77"/>
     <use x="234.814453" xlink:href="#DejaVuSans-79"/>
     <use x="316.275391" xlink:href="#DejaVuSans-45"/>
     <use x="352.359375" xlink:href="#DejaVuSans-49"/>
     <use x="415.982422" xlink:href="#DejaVuSans-48"/>
     <use x="479.605469" xlink:href="#DejaVuSans-48"/>
     <use x="543.228516" xlink:href="#DejaVuSans-32"/>
    </g>
   </g>
   <g id="text_15">
    <!-- NSGA-II-M -->
    <g transform="translate(375.22944 126.352403)scale(0.17 -0.17)">
     <defs>
      <path d="M 9.8125 72.90625 
L 23.09375 72.90625 
L 55.421875 11.921875 
L 55.421875 72.90625 
L 64.984375 72.90625 
L 64.984375 0 
L 51.703125 0 
L 19.390625 60.984375 
L 19.390625 0 
L 9.8125 0 
z
" id="DejaVuSans-78"/>
      <path d="M 59.515625 10.40625 
L 59.515625 29.984375 
L 43.40625 29.984375 
L 43.40625 38.09375 
L 69.28125 38.09375 
L 69.28125 6.78125 
Q 63.578125 2.734375 56.6875 0.65625 
Q 49.8125 -1.421875 42 -1.421875 
Q 24.90625 -1.421875 15.25 8.5625 
Q 5.609375 18.5625 5.609375 36.375 
Q 5.609375 54.25 15.25 64.234375 
Q 24.90625 74.21875 42 74.21875 
Q 49.125 74.21875 55.546875 72.453125 
Q 61.96875 70.703125 67.390625 67.28125 
L 67.390625 56.78125 
Q 61.921875 61.421875 55.765625 63.765625 
Q 49.609375 66.109375 42.828125 66.109375 
Q 29.4375 66.109375 22.71875 58.640625 
Q 16.015625 51.171875 16.015625 36.375 
Q 16.015625 21.625 22.71875 14.15625 
Q 29.4375 6.6875 42.828125 6.6875 
Q 48.046875 6.6875 52.140625 7.59375 
Q 56.25 8.5 59.515625 10.40625 
z
" id="DejaVuSans-71"/>
      <path d="M 9.8125 72.90625 
L 19.671875 72.90625 
L 19.671875 0 
L 9.8125 0 
z
" id="DejaVuSans-73"/>
     </defs>
     <use xlink:href="#DejaVuSans-78"/>
     <use x="74.804688" xlink:href="#DejaVuSans-83"/>
     <use x="138.28125" xlink:href="#DejaVuSans-71"/>
     <use x="215.771484" xlink:href="#DejaVuSans-65"/>
     <use x="281.929688" xlink:href="#DejaVuSans-45"/>
     <use x="318.013672" xlink:href="#DejaVuSans-73"/>
     <use x="347.505859" xlink:href="#DejaVuSans-73"/>
     <use x="376.998047" xlink:href="#DejaVuSans-45"/>
     <use x="413.082031" xlink:href="#DejaVuSans-77"/>
    </g>
   </g>
   <g id="text_16">
    <!-- best 2016 -->
    <g transform="translate(375.22944 40.397235)scale(0.17 -0.17)">
     <defs>
      <path d="M 48.6875 27.296875 
Q 48.6875 37.203125 44.609375 42.84375 
Q 40.53125 48.484375 33.40625 48.484375 
Q 26.265625 48.484375 22.1875 42.84375 
Q 18.109375 37.203125 18.109375 27.296875 
Q 18.109375 17.390625 22.1875 11.75 
Q 26.265625 6.109375 33.40625 6.109375 
Q 40.53125 6.109375 44.609375 11.75 
Q 48.6875 17.390625 48.6875 27.296875 
z
M 18.109375 46.390625 
Q 20.953125 51.265625 25.265625 53.625 
Q 29.59375 56 35.59375 56 
Q 45.5625 56 51.78125 48.09375 
Q 58.015625 40.1875 58.015625 27.296875 
Q 58.015625 14.40625 51.78125 6.484375 
Q 45.5625 -1.421875 35.59375 -1.421875 
Q 29.59375 -1.421875 25.265625 0.953125 
Q 20.953125 3.328125 18.109375 8.203125 
L 18.109375 0 
L 9.078125 0 
L 9.078125 75.984375 
L 18.109375 75.984375 
z
" id="DejaVuSans-98"/>
     </defs>
     <use xlink:href="#DejaVuSans-98"/>
     <use x="63.476562" xlink:href="#DejaVuSans-101"/>
     <use x="125" xlink:href="#DejaVuSans-115"/>
     <use x="177.099609" xlink:href="#DejaVuSans-116"/>
     <use x="216.308594" xlink:href="#DejaVuSans-32"/>
     <use x="248.095703" xlink:href="#DejaVuSans-50"/>
     <use x="311.71875" xlink:href="#DejaVuSans-48"/>
     <use x="375.341797" xlink:href="#DejaVuSans-49"/>
     <use x="438.964844" xlink:href="#DejaVuSans-54"/>
    </g>
   </g>
   <g id="text_17">
    <!-- bbob-biobj f54, 3-D -->
    <g transform="translate(60.41088 38.111366)scale(0.102 -0.102)">
     <defs>
      <path d="M 9.421875 54.6875 
L 18.40625 54.6875 
L 18.40625 -0.984375 
Q 18.40625 -11.421875 14.421875 -16.109375 
Q 10.453125 -20.796875 1.609375 -20.796875 
L -1.8125 -20.796875 
L -1.8125 -13.1875 
L 0.59375 -13.1875 
Q 5.71875 -13.1875 7.5625 -10.8125 
Q 9.421875 -8.453125 9.421875 -0.984375 
z
M 9.421875 75.984375 
L 18.40625 75.984375 
L 18.40625 64.59375 
L 9.421875 64.59375 
z
" id="DejaVuSans-106"/>
      <path d="M 10.796875 72.90625 
L 49.515625 72.90625 
L 49.515625 64.59375 
L 19.828125 64.59375 
L 19.828125 46.734375 
Q 21.96875 47.46875 24.109375 47.828125 
Q 26.265625 48.1875 28.421875 48.1875 
Q 40.625 48.1875 47.75 41.5 
Q 54.890625 34.8125 54.890625 23.390625 
Q 54.890625 11.625 47.5625 5.09375 
Q 40.234375 -1.421875 26.90625 -1.421875 
Q 22.3125 -1.421875 17.546875 -0.640625 
Q 12.796875 0.140625 7.71875 1.703125 
L 7.71875 11.625 
Q 12.109375 9.234375 16.796875 8.0625 
Q 21.484375 6.890625 26.703125 6.890625 
Q 35.15625 6.890625 40.078125 11.328125 
Q 45.015625 15.765625 45.015625 23.390625 
Q 45.015625 31 40.078125 35.4375 
Q 35.15625 39.890625 26.703125 39.890625 
Q 22.75 39.890625 18.8125 39.015625 
Q 14.890625 38.140625 10.796875 36.28125 
z
" id="DejaVuSans-53"/>
      <path d="M 40.578125 39.3125 
Q 47.65625 37.796875 51.625 33 
Q 55.609375 28.21875 55.609375 21.1875 
Q 55.609375 10.40625 48.1875 4.484375 
Q 40.765625 -1.421875 27.09375 -1.421875 
Q 22.515625 -1.421875 17.65625 -0.515625 
Q 12.796875 0.390625 7.625 2.203125 
L 7.625 11.71875 
Q 11.71875 9.328125 16.59375 8.109375 
Q 21.484375 6.890625 26.8125 6.890625 
Q 36.078125 6.890625 40.9375 10.546875 
Q 45.796875 14.203125 45.796875 21.1875 
Q 45.796875 27.640625 41.28125 31.265625 
Q 36.765625 34.90625 28.71875 34.90625 
L 20.21875 34.90625 
L 20.21875 43.015625 
L 29.109375 43.015625 
Q 36.375 43.015625 40.234375 45.921875 
Q 44.09375 48.828125 44.09375 54.296875 
Q 44.09375 59.90625 40.109375 62.90625 
Q 36.140625 65.921875 28.71875 65.921875 
Q 24.65625 65.921875 20.015625 65.03125 
Q 15.375 64.15625 9.8125 62.3125 
L 9.8125 71.09375 
Q 15.4375 72.65625 20.34375 73.4375 
Q 25.25 74.21875 29.59375 74.21875 
Q 40.828125 74.21875 47.359375 69.109375 
Q 53.90625 64.015625 53.90625 55.328125 
Q 53.90625 49.265625 50.4375 45.09375 
Q 46.96875 40.921875 40.578125 39.3125 
z
" id="DejaVuSans-51"/>
      <path d="M 19.671875 64.796875 
L 19.671875 8.109375 
L 31.59375 8.109375 
Q 46.6875 8.109375 53.6875 14.9375 
Q 60.6875 21.78125 60.6875 36.53125 
Q 60.6875 51.171875 53.6875 57.984375 
Q 46.6875 64.796875 31.59375 64.796875 
z
M 9.8125 72.90625 
L 30.078125 72.90625 
Q 51.265625 72.90625 61.171875 64.09375 
Q 71.09375 55.28125 71.09375 36.53125 
Q 71.09375 17.671875 61.125 8.828125 
Q 51.171875 0 30.078125 0 
L 9.8125 0 
z
" id="DejaVuSans-68"/>
     </defs>
     <use xlink:href="#DejaVuSans-98"/>
     <use x="63.476562" xlink:href="#DejaVuSans-98"/>
     <use x="126.953125" xlink:href="#DejaVuSans-111"/>
     <use x="188.134766" xlink:href="#DejaVuSans-98"/>
     <use x="251.611328" xlink:href="#DejaVuSans-45"/>
     <use x="287.695312" xlink:href="#DejaVuSans-98"/>
     <use x="351.171875" xlink:href="#DejaVuSans-105"/>
     <use x="378.955078" xlink:href="#DejaVuSans-111"/>
     <use x="440.136719" xlink:href="#DejaVuSans-98"/>
     <use x="503.613281" xlink:href="#DejaVuSans-106"/>
     <use x="531.396484" xlink:href="#DejaVuSans-32"/>
     <use x="563.183594" xlink:href="#DejaVuSans-102"/>
     <use x="598.388672" xlink:href="#DejaVuSans-53"/>
     <use x="662.011719" xlink:href="#DejaVuSans-52"/>
     <use x="725.634766" xlink:href="#DejaVuSans-44"/>
     <use x="757.421875" xlink:href="#DejaVuSans-32"/>
     <use x="789.208984" xlink:href="#DejaVuSans-51"/>
     <use x="852.832031" xlink:href="#DejaVuSans-45"/>
     <use x="888.916016" xlink:href="#DejaVuSans-68"/>
    </g>
    <!-- 58 targets: 1..-1.0e-4 -->
    <g transform="translate(60.41088 49.533135)scale(0.102 -0.102)">
     <defs>
      <path d="M 11.71875 12.40625 
L 22.015625 12.40625 
L 22.015625 0 
L 11.71875 0 
z
M 11.71875 51.703125 
L 22.015625 51.703125 
L 22.015625 39.3125 
L 11.71875 39.3125 
z
" id="DejaVuSans-58"/>
     </defs>
     <use xlink:href="#DejaVuSans-53"/>
     <use x="63.623047" xlink:href="#DejaVuSans-56"/>
     <use x="127.246094" xlink:href="#DejaVuSans-32"/>
     <use x="159.033203" xlink:href="#DejaVuSans-116"/>
     <use x="198.242188" xlink:href="#DejaVuSans-97"/>
     <use x="259.521484" xlink:href="#DejaVuSans-114"/>
     <use x="298.884766" xlink:href="#DejaVuSans-103"/>
     <use x="362.361328" xlink:href="#DejaVuSans-101"/>
     <use x="423.884766" xlink:href="#DejaVuSans-116"/>
     <use x="463.09375" xlink:href="#DejaVuSans-115"/>
     <use x="515.193359" xlink:href="#DejaVuSans-58"/>
     <use x="548.884766" xlink:href="#DejaVuSans-32"/>
     <use x="580.671875" xlink:href="#DejaVuSans-49"/>
     <use x="644.294922" xlink:href="#DejaVuSans-46"/>
     <use x="676.082031" xlink:href="#DejaVuSans-46"/>
     <use x="707.869141" xlink:href="#DejaVuSans-45"/>
     <use x="743.953125" xlink:href="#DejaVuSans-49"/>
     <use x="807.576172" xlink:href="#DejaVuSans-46"/>
     <use x="839.363281" xlink:href="#DejaVuSans-48"/>
     <use x="902.986328" xlink:href="#DejaVuSans-101"/>
     <use x="964.509766" xlink:href="#DejaVuSans-45"/>
     <use x="1000.59375" xlink:href="#DejaVuSans-52"/>
    </g>
    <!-- 10 instances -->
    <g transform="translate(60.41088 60.954904)scale(0.102 -0.102)">
     <use xlink:href="#DejaVuSans-49"/>
     <use x="63.623047" xlink:href="#DejaVuSans-48"/>
     <use x="127.246094" xlink:href="#DejaVuSans-32"/>
     <use x="159.033203" xlink:href="#DejaVuSans-105"/>
     <use x="186.816406" xlink:href="#DejaVuSans-110"/>
     <use x="250.195312" xlink:href="#DejaVuSans-115"/>
     <use x="302.294922" xlink:href="#DejaVuSans-116"/>
     <use x="341.503906" xlink:href="#DejaVuSans-97"/>
     <use x="402.783203" xlink:href="#DejaVuSans-110"/>
     <use x="466.162109" xlink:href="#DejaVuSans-99"/>
     <use x="521.142578" xlink:href="#DejaVuSans-101"/>
     <use x="582.666016" xlink:href="#DejaVuSans-115"/>
    </g>
   </g>
   <g id="text_18">
    <!-- v2.4.19, hv-hash=ff0e71e8cd978373 -->
    <g style="fill:#808080;" transform="translate(104.697125 294.151352)scale(0.1 -0.1)">
     <defs>
      <path d="M 10.984375 1.515625 
L 10.984375 10.5 
Q 14.703125 8.734375 18.5 7.8125 
Q 22.3125 6.890625 25.984375 6.890625 
Q 35.75 6.890625 40.890625 13.453125 
Q 46.046875 20.015625 46.78125 33.40625 
Q 43.953125 29.203125 39.59375 26.953125 
Q 35.25 24.703125 29.984375 24.703125 
Q 19.046875 24.703125 12.671875 31.3125 
Q 6.296875 37.9375 6.296875 49.421875 
Q 6.296875 60.640625 12.9375 67.421875 
Q 19.578125 74.21875 30.609375 74.21875 
Q 43.265625 74.21875 49.921875 64.515625 
Q 56.59375 54.828125 56.59375 36.375 
Q 56.59375 19.140625 48.40625 8.859375 
Q 40.234375 -1.421875 26.421875 -1.421875 
Q 22.703125 -1.421875 18.890625 -0.6875 
Q 15.09375 0.046875 10.984375 1.515625 
z
M 30.609375 32.421875 
Q 37.25 32.421875 41.125 36.953125 
Q 45.015625 41.5 45.015625 49.421875 
Q 45.015625 57.28125 41.125 61.84375 
Q 37.25 66.40625 30.609375 66.40625 
Q 23.96875 66.40625 20.09375 61.84375 
Q 16.21875 57.28125 16.21875 49.421875 
Q 16.21875 41.5 20.09375 36.953125 
Q 23.96875 32.421875 30.609375 32.421875 
z
" id="DejaVuSans-57"/>
      <path d="M 54.890625 33.015625 
L 54.890625 0 
L 45.90625 0 
L 45.90625 32.71875 
Q 45.90625 40.484375 42.875 44.328125 
Q 39.84375 48.1875 33.796875 48.1875 
Q 26.515625 48.1875 22.3125 43.546875 
Q 18.109375 38.921875 18.109375 30.90625 
L 18.109375 0 
L 9.078125 0 
L 9.078125 75.984375 
L 18.109375 75.984375 
L 18.109375 46.1875 
Q 21.34375 51.125 25.703125 53.5625 
Q 30.078125 56 35.796875 56 
Q 45.21875 56 50.046875 50.171875 
Q 54.890625 44.34375 54.890625 33.015625 
z
" id="DejaVuSans-104"/>
      <path d="M 10.59375 45.40625 
L 73.1875 45.40625 
L 73.1875 37.203125 
L 10.59375 37.203125 
z
M 10.59375 25.484375 
L 73.1875 25.484375 
L 73.1875 17.1875 
L 10.59375 17.1875 
z
" id="DejaVuSans-61"/>
      <path d="M 8.203125 72.90625 
L 55.078125 72.90625 
L 55.078125 68.703125 
L 28.609375 0 
L 18.3125 0 
L 43.21875 64.59375 
L 8.203125 64.59375 
z
" id="DejaVuSans-55"/>
     </defs>
     <use xlink:href="#DejaVuSans-118"/>
     <use x="59.179688" xlink:href="#DejaVuSans-50"/>
     <use x="122.802734" xlink:href="#DejaVuSans-46"/>
     <use x="154.589844" xlink:href="#DejaVuSans-52"/>
     <use x="218.212891" xlink:href="#DejaVuSans-46"/>
     <use x="250" xlink:href="#DejaVuSans-49"/>
     <use x="313.623047" xlink:href="#DejaVuSans-57"/>
     <use x="377.246094" xlink:href="#DejaVuSans-44"/>
     <use x="409.033203" xlink:href="#DejaVuSans-32"/>
     <use x="440.820312" xlink:href="#DejaVuSans-104"/>
     <use x="504.199219" xlink:href="#DejaVuSans-118"/>
     <use x="560.753906" xlink:href="#DejaVuSans-45"/>
     <use x="596.837891" xlink:href="#DejaVuSans-104"/>
     <use x="660.216797" xlink:href="#DejaVuSans-97"/>
     <use x="721.496094" xlink:href="#DejaVuSans-115"/>
     <use x="773.595703" xlink:href="#DejaVuSans-104"/>
     <use x="836.974609" xlink:href="#DejaVuSans-61"/>
     <use x="920.763672" xlink:href="#DejaVuSans-102"/>
     <use x="955.96875" xlink:href="#DejaVuSans-102"/>
     <use x="991.173828" xlink:href="#DejaVuSans-48"/>
     <use x="1054.796875" xlink:href="#DejaVuSans-101"/>
     <use x="1116.320312" xlink:href="#DejaVuSans-55"/>
     <use x="1179.943359" xlink:href="#DejaVuSans-49"/>
     <use x="1243.566406" xlink:href="#DejaVuSans-101"/>
     <use x="1305.089844" xlink:href="#DejaVuSans-56"/>
     <use x="1368.712891" xlink:href="#DejaVuSans-99"/>
     <use x="1423.693359" xlink:href="#DejaVuSans-100"/>
     <use x="1487.169922" xlink:href="#DejaVuSans-57"/>
     <use x="1550.792969" xlink:href="#DejaVuSans-55"/>
     <use x="1614.416016" xlink:href="#DejaVuSans-56"/>
     <use x="1678.039062" xlink:href="#DejaVuSans-51"/>
     <use x="1741.662109" xlink:href="#DejaVuSans-55"/>
     <use x="1805.285156" xlink:href="#DejaVuSans-51"/>
    </g>
   </g>
   <g id="text_19">
    <!-- 54 Schwefel/Gallagher 101 -->
    <g transform="translate(63.128375 21.648)scale(0.2 -0.2)">
     <defs>
      <path d="M 4.203125 54.6875 
L 13.1875 54.6875 
L 24.421875 12.015625 
L 35.59375 54.6875 
L 46.1875 54.6875 
L 57.421875 12.015625 
L 68.609375 54.6875 
L 77.59375 54.6875 
L 63.28125 0 
L 52.6875 0 
L 40.921875 44.828125 
L 29.109375 0 
L 18.5 0 
z
" id="DejaVuSans-119"/>
     </defs>
     <use xlink:href="#DejaVuSans-53"/>
     <use x="63.623047" xlink:href="#DejaVuSans-52"/>
     <use x="127.246094" xlink:href="#DejaVuSans-32"/>
     <use x="159.033203" xlink:href="#DejaVuSans-83"/>
     <use x="222.509766" xlink:href="#DejaVuSans-99"/>
     <use x="277.490234" xlink:href="#DejaVuSans-104"/>
     <use x="340.869141" xlink:href="#DejaVuSans-119"/>
     <use x="422.65625" xlink:href="#DejaVuSans-101"/>
     <use x="484.179688" xlink:href="#DejaVuSans-102"/>
     <use x="519.384766" xlink:href="#DejaVuSans-101"/>
     <use x="580.908203" xlink:href="#DejaVuSans-108"/>
     <use x="608.691406" xlink:href="#DejaVuSans-47"/>
     <use x="642.382812" xlink:href="#DejaVuSans-71"/>
     <use x="719.873047" xlink:href="#DejaVuSans-97"/>
     <use x="781.152344" xlink:href="#DejaVuSans-108"/>
     <use x="808.935547" xlink:href="#DejaVuSans-108"/>
     <use x="836.71875" xlink:href="#DejaVuSans-97"/>
     <use x="897.998047" xlink:href="#DejaVuSans-103"/>
     <use x="961.474609" xlink:href="#DejaVuSans-104"/>
     <use x="1024.853516" xlink:href="#DejaVuSans-101"/>
     <use x="1086.376953" xlink:href="#DejaVuSans-114"/>
     <use x="1127.490234" xlink:href="#DejaVuSans-32"/>
     <use x="1159.277344" xlink:href="#DejaVuSans-49"/>
     <use x="1222.900391" xlink:href="#DejaVuSans-48"/>
     <use x="1286.523438" xlink:href="#DejaVuSans-49"/>
    </g>
   </g>
  </g>
 </g>
 <defs>
  <clipPath id="p10f8761c21">
   <rect height="271.296" width="281.088" x="57.6" y="27.648"/>
  </clipPath>
 </defs>
</svg>
