<?xml version="1.0" encoding="utf-8" standalone="no"?>
<!DOCTYPE svg PUBLIC "-//W3C//DTD SVG 1.1//EN"
  "http://www.w3.org/Graphics/SVG/1.1/DTD/svg11.dtd">
<!-- Created with matplotlib (https://matplotlib.org/) -->
<svg height="345.6pt" version="1.1" viewBox="0 0 460.8 345.6" width="460.8pt" xmlns="http://www.w3.org/2000/svg" xmlns:xlink="http://www.w3.org/1999/xlink">
 <metadata>
  <rdf:RDF xmlns:cc="http://creativecommons.org/ns#" xmlns:dc="http://purl.org/dc/elements/1.1/" xmlns:rdf="http://www.w3.org/1999/02/22-rdf-syntax-ns#">
   <cc:Work>
    <dc:type rdf:resource="http://purl.org/dc/dcmitype/StillImage"/>
    <dc:date>2021-04-26T15:06:25.197403</dc:date>
    <dc:format>image/svg+xml</dc:format>
    <dc:creator>
     <cc:Agent>
      <dc:title>Matplotlib v3.3.2, https://matplotlib.org/</dc:title>
     </cc:Agent>
    </dc:creator>
   </cc:Work>
  </rdf:RDF>
 </metadata>
 <defs>
  <style type="text/css">*{stroke-linecap:butt;stroke-linejoin:round;}</style>
 </defs>
 <g id="figure_1">
  <g id="patch_1">
   <path d="M 0 345.6 
L 460.8 345.6 
L 460.8 0 
L 0 0 
z
" style="fill:#ffffff;"/>
  </g>
  <g id="axes_1">
   <g id="patch_2">
    <path d="M 57.6 298.944 
L 338.688 298.944 
L 338.688 27.648 
L 57.6 27.648 
z
" style="fill:#ffffff;"/>
   </g>
   <g id="line2d_1">
    <path d="M 69.687988 298.944 
L 69.687988 294.312795 
L 79.447285 294.312795 
L 79.447285 285.050384 
L 81.775977 285.050384 
L 81.775977 275.787974 
L 87.329581 275.787974 
L 87.329581 271.156769 
L 94.921215 271.156769 
L 94.921215 257.263153 
L 102.330873 257.263153 
L 102.330873 248.000743 
L 113.382559 248.000743 
L 113.382559 243.369538 
L 121.712041 243.369538 
L 121.712041 234.107127 
L 130.127931 234.107127 
L 130.127931 220.213512 
L 146.801841 220.213512 
L 146.801841 210.951101 
L 151.300575 210.951101 
L 151.300575 201.688691 
L 155.55245 201.688691 
L 155.55245 192.426281 
L 160.176607 192.426281 
L 160.176607 187.795075 
L 165.248216 187.795075 
L 165.248216 173.90146 
L 169.460402 173.90146 
L 169.460402 169.270255 
L 176.687829 169.270255 
L 176.687829 155.376639 
L 178.403079 155.376639 
L 178.403079 146.114229 
L 180.065997 146.114229 
L 180.065997 141.483024 
L 191.512559 141.483024 
L 191.512559 127.589408 
L 205.792079 127.589408 
L 205.792079 122.958203 
L 213.39668 122.958203 
L 213.39668 109.064587 
L 217.544289 109.064587 
L 217.544289 99.802177 
L 224.665397 99.802177 
L 224.665397 90.539766 
L 229.191637 90.539766 
L 229.191637 85.908561 
L 233.587442 85.908561 
L 233.587442 76.646151 
L 239.147975 76.646151 
L 239.147975 62.752535 
L 338.688 62.752535 
" style="fill:none;stroke:#f5deb3;stroke-linecap:square;stroke-width:4;"/>
   </g>
   <g id="line2d_2">
    <defs>
     <path d="M 0 7.778175 
L 7.778175 0 
L 0 -7.778175 
L -7.778175 0 
z
" id="m4d84dad5e1" style="stroke:#f5deb3;stroke-linejoin:miter;stroke-width:1.5;"/>
    </defs>
    <g>
     <use style="fill:#f5deb3;stroke:#f5deb3;stroke-linejoin:miter;stroke-width:1.5;" x="130.127931" xlink:href="#m4d84dad5e1" y="220.213512"/>
     <use style="fill:#f5deb3;stroke:#f5deb3;stroke-linejoin:miter;stroke-width:1.5;" x="191.512559" xlink:href="#m4d84dad5e1" y="141.483024"/>
     <use style="fill:#f5deb3;stroke:#f5deb3;stroke-linejoin:miter;stroke-width:1.5;" x="239.147975" xlink:href="#m4d84dad5e1" y="76.646151"/>
     <use style="fill:#f5deb3;stroke:#f5deb3;stroke-linejoin:miter;stroke-width:1.5;" x="239.147975" xlink:href="#m4d84dad5e1" y="62.752535"/>
     <use style="fill:#f5deb3;stroke:#f5deb3;stroke-linejoin:miter;stroke-width:1.5;" x="338.688" xlink:href="#m4d84dad5e1" y="62.752535"/>
    </g>
   </g>
   <g id="line2d_3">
    <path style="fill:none;stroke:#f5deb3;stroke-linecap:square;stroke-width:4;"/>
    <g/>
   </g>
   <g id="line2d_4">
    <path d="M 338.688 62.752535 
L 369.60768 35.706297 
" style="fill:none;stroke:#f5deb3;stroke-linecap:square;stroke-width:4;"/>
    <g>
     <use style="fill:#f5deb3;stroke:#f5deb3;stroke-linejoin:miter;stroke-width:1.5;" x="338.688" xlink:href="#m4d84dad5e1" y="62.752535"/>
     <use style="fill:#f5deb3;stroke:#f5deb3;stroke-linejoin:miter;stroke-width:1.5;" x="369.60768" xlink:href="#m4d84dad5e1" y="35.706297"/>
    </g>
   </g>
   <g id="matplotlib.axis_1">
    <g id="xtick_1">
     <g id="line2d_5">
      <path clip-path="url(#p4dc5c9df91)" d="M 57.6 298.944 
L 57.6 27.648 
" style="fill:none;stroke:#b0b0b0;stroke-linecap:square;stroke-width:0.8;"/>
     </g>
     <g id="line2d_6">
      <defs>
       <path d="M 0 0 
L 0 3.5 
" id="m8ee50184f9" style="stroke:#000000;stroke-width:0.8;"/>
      </defs>
      <g>
       <use style="stroke:#000000;stroke-width:0.8;" x="57.6" xlink:href="#m8ee50184f9" y="298.944"/>
      </g>
     </g>
     <g id="text_1">
      <!-- 0 -->
      <g transform="translate(51.2375 321.140875)scale(0.2 -0.2)">
       <defs>
        <path d="M 31.78125 66.40625 
Q 24.171875 66.40625 20.328125 58.90625 
Q 16.5 51.421875 16.5 36.375 
Q 16.5 21.390625 20.328125 13.890625 
Q 24.171875 6.390625 31.78125 6.390625 
Q 39.453125 6.390625 43.28125 13.890625 
Q 47.125 21.390625 47.125 36.375 
Q 47.125 51.421875 43.28125 58.90625 
Q 39.453125 66.40625 31.78125 66.40625 
z
M 31.78125 74.21875 
Q 44.046875 74.21875 50.515625 64.515625 
Q 56.984375 54.828125 56.984375 36.375 
Q 56.984375 17.96875 50.515625 8.265625 
Q 44.046875 -1.421875 31.78125 -1.421875 
Q 19.53125 -1.421875 13.0625 8.265625 
Q 6.59375 17.96875 6.59375 36.375 
Q 6.59375 54.828125 13.0625 64.515625 
Q 19.53125 74.21875 31.78125 74.21875 
z
" id="DejaVuSans-48"/>
       </defs>
       <use xlink:href="#DejaVuSans-48"/>
      </g>
     </g>
    </g>
    <g id="xtick_2">
     <g id="line2d_7">
      <path clip-path="url(#p4dc5c9df91)" d="M 137.910857 298.944 
L 137.910857 27.648 
" style="fill:none;stroke:#b0b0b0;stroke-linecap:square;stroke-width:0.8;"/>
     </g>
     <g id="line2d_8">
      <g>
       <use style="stroke:#000000;stroke-width:0.8;" x="137.910857" xlink:href="#m8ee50184f9" y="298.944"/>
      </g>
     </g>
     <g id="text_2">
      <!-- 2 -->
      <g transform="translate(131.548357 321.140875)scale(0.2 -0.2)">
       <defs>
        <path d="M 19.1875 8.296875 
L 53.609375 8.296875 
L 53.609375 0 
L 7.328125 0 
L 7.328125 8.296875 
Q 12.9375 14.109375 22.625 23.890625 
Q 32.328125 33.6875 34.8125 36.53125 
Q 39.546875 41.84375 41.421875 45.53125 
Q 43.3125 49.21875 43.3125 52.78125 
Q 43.3125 58.59375 39.234375 62.25 
Q 35.15625 65.921875 28.609375 65.921875 
Q 23.96875 65.921875 18.8125 64.3125 
Q 13.671875 62.703125 7.8125 59.421875 
L 7.8125 69.390625 
Q 13.765625 71.78125 18.9375 73 
Q 24.125 74.21875 28.421875 74.21875 
Q 39.75 74.21875 46.484375 68.546875 
Q 53.21875 62.890625 53.21875 53.421875 
Q 53.21875 48.921875 51.53125 44.890625 
Q 49.859375 40.875 45.40625 35.40625 
Q 44.1875 33.984375 37.640625 27.21875 
Q 31.109375 20.453125 19.1875 8.296875 
z
" id="DejaVuSans-50"/>
       </defs>
       <use xlink:href="#DejaVuSans-50"/>
      </g>
     </g>
    </g>
    <g id="xtick_3">
     <g id="line2d_9">
      <path clip-path="url(#p4dc5c9df91)" d="M 218.221714 298.944 
L 218.221714 27.648 
" style="fill:none;stroke:#b0b0b0;stroke-linecap:square;stroke-width:0.8;"/>
     </g>
     <g id="line2d_10">
      <g>
       <use style="stroke:#000000;stroke-width:0.8;" x="218.221714" xlink:href="#m8ee50184f9" y="298.944"/>
      </g>
     </g>
     <g id="text_3">
      <!-- 4 -->
      <g transform="translate(211.859214 321.140875)scale(0.2 -0.2)">
       <defs>
        <path d="M 37.796875 64.3125 
L 12.890625 25.390625 
L 37.796875 25.390625 
z
M 35.203125 72.90625 
L 47.609375 72.90625 
L 47.609375 25.390625 
L 58.015625 25.390625 
L 58.015625 17.1875 
L 47.609375 17.1875 
L 47.609375 0 
L 37.796875 0 
L 37.796875 17.1875 
L 4.890625 17.1875 
L 4.890625 26.703125 
z
" id="DejaVuSans-52"/>
       </defs>
       <use xlink:href="#DejaVuSans-52"/>
      </g>
     </g>
    </g>
    <g id="xtick_4">
     <g id="line2d_11">
      <path clip-path="url(#p4dc5c9df91)" d="M 298.532571 298.944 
L 298.532571 27.648 
" style="fill:none;stroke:#b0b0b0;stroke-linecap:square;stroke-width:0.8;"/>
     </g>
     <g id="line2d_12">
      <g>
       <use style="stroke:#000000;stroke-width:0.8;" x="298.532571" xlink:href="#m8ee50184f9" y="298.944"/>
      </g>
     </g>
     <g id="text_4">
      <!-- 6 -->
      <g transform="translate(292.170071 321.140875)scale(0.2 -0.2)">
       <defs>
        <path d="M 33.015625 40.375 
Q 26.375 40.375 22.484375 35.828125 
Q 18.609375 31.296875 18.609375 23.390625 
Q 18.609375 15.53125 22.484375 10.953125 
Q 26.375 6.390625 33.015625 6.390625 
Q 39.65625 6.390625 43.53125 10.953125 
Q 47.40625 15.53125 47.40625 23.390625 
Q 47.40625 31.296875 43.53125 35.828125 
Q 39.65625 40.375 33.015625 40.375 
z
M 52.59375 71.296875 
L 52.59375 62.3125 
Q 48.875 64.0625 45.09375 64.984375 
Q 41.3125 65.921875 37.59375 65.921875 
Q 27.828125 65.921875 22.671875 59.328125 
Q 17.53125 52.734375 16.796875 39.40625 
Q 19.671875 43.65625 24.015625 45.921875 
Q 28.375 48.1875 33.59375 48.1875 
Q 44.578125 48.1875 50.953125 41.515625 
Q 57.328125 34.859375 57.328125 23.390625 
Q 57.328125 12.15625 50.6875 5.359375 
Q 44.046875 -1.421875 33.015625 -1.421875 
Q 20.359375 -1.421875 13.671875 8.265625 
Q 6.984375 17.96875 6.984375 36.375 
Q 6.984375 53.65625 15.1875 63.9375 
Q 23.390625 74.21875 37.203125 74.21875 
Q 40.921875 74.21875 44.703125 73.484375 
Q 48.484375 72.75 52.59375 71.296875 
z
" id="DejaVuSans-54"/>
       </defs>
       <use xlink:href="#DejaVuSans-54"/>
      </g>
     </g>
    </g>
    <g id="xtick_5">
     <g id="line2d_13">
      <path clip-path="url(#p4dc5c9df91)" d="M 97.755429 298.944 
L 97.755429 27.648 
" style="fill:none;stroke:#b0b0b0;stroke-linecap:square;stroke-width:0.8;"/>
     </g>
     <g id="line2d_14">
      <defs>
       <path d="M 0 0 
L 0 2 
" id="mfa73cb9116" style="stroke:#000000;stroke-width:0.6;"/>
      </defs>
      <g>
       <use style="stroke:#000000;stroke-width:0.6;" x="97.755429" xlink:href="#mfa73cb9116" y="298.944"/>
      </g>
     </g>
    </g>
    <g id="xtick_6">
     <g id="line2d_15">
      <path clip-path="url(#p4dc5c9df91)" d="M 178.066286 298.944 
L 178.066286 27.648 
" style="fill:none;stroke:#b0b0b0;stroke-linecap:square;stroke-width:0.8;"/>
     </g>
     <g id="line2d_16">
      <g>
       <use style="stroke:#000000;stroke-width:0.6;" x="178.066286" xlink:href="#mfa73cb9116" y="298.944"/>
      </g>
     </g>
    </g>
    <g id="xtick_7">
     <g id="line2d_17">
      <path clip-path="url(#p4dc5c9df91)" d="M 258.377143 298.944 
L 258.377143 27.648 
" style="fill:none;stroke:#b0b0b0;stroke-linecap:square;stroke-width:0.8;"/>
     </g>
     <g id="line2d_18">
      <g>
       <use style="stroke:#000000;stroke-width:0.6;" x="258.377143" xlink:href="#mfa73cb9116" y="298.944"/>
      </g>
     </g>
    </g>
    <g id="xtick_8">
     <g id="line2d_19">
      <path clip-path="url(#p4dc5c9df91)" d="M 338.688 298.944 
L 338.688 27.648 
" style="fill:none;stroke:#b0b0b0;stroke-linecap:square;stroke-width:0.8;"/>
     </g>
     <g id="line2d_20">
      <g>
       <use style="stroke:#000000;stroke-width:0.6;" x="338.688" xlink:href="#mfa73cb9116" y="298.944"/>
      </g>
     </g>
    </g>
    <g id="text_5">
     <!-- log10(# f-evals / dimension) -->
     <g transform="translate(77.764078 342.217594)scale(0.17 -0.17)">
      <defs>
       <path d="M 9.421875 75.984375 
L 18.40625 75.984375 
L 18.40625 0 
L 9.421875 0 
z
" id="DejaVuSans-108"/>
       <path d="M 30.609375 48.390625 
Q 23.390625 48.390625 19.1875 42.75 
Q 14.984375 37.109375 14.984375 27.296875 
Q 14.984375 17.484375 19.15625 11.84375 
Q 23.34375 6.203125 30.609375 6.203125 
Q 37.796875 6.203125 41.984375 11.859375 
Q 46.1875 17.53125 46.1875 27.296875 
Q 46.1875 37.015625 41.984375 42.703125 
Q 37.796875 48.390625 30.609375 48.390625 
z
M 30.609375 56 
Q 42.328125 56 49.015625 48.375 
Q 55.71875 40.765625 55.71875 27.296875 
Q 55.71875 13.875 49.015625 6.21875 
Q 42.328125 -1.421875 30.609375 -1.421875 
Q 18.84375 -1.421875 12.171875 6.21875 
Q 5.515625 13.875 5.515625 27.296875 
Q 5.515625 40.765625 12.171875 48.375 
Q 18.84375 56 30.609375 56 
z
" id="DejaVuSans-111"/>
       <path d="M 45.40625 27.984375 
Q 45.40625 37.75 41.375 43.109375 
Q 37.359375 48.484375 30.078125 48.484375 
Q 22.859375 48.484375 18.828125 43.109375 
Q 14.796875 37.75 14.796875 27.984375 
Q 14.796875 18.265625 18.828125 12.890625 
Q 22.859375 7.515625 30.078125 7.515625 
Q 37.359375 7.515625 41.375 12.890625 
Q 45.40625 18.265625 45.40625 27.984375 
z
M 54.390625 6.78125 
Q 54.390625 -7.171875 48.1875 -13.984375 
Q 42 -20.796875 29.203125 -20.796875 
Q 24.46875 -20.796875 20.265625 -20.09375 
Q 16.0625 -19.390625 12.109375 -17.921875 
L 12.109375 -9.1875 
Q 16.0625 -11.328125 19.921875 -12.34375 
Q 23.78125 -13.375 27.78125 -13.375 
Q 36.625 -13.375 41.015625 -8.765625 
Q 45.40625 -4.15625 45.40625 5.171875 
L 45.40625 9.625 
Q 42.625 4.78125 38.28125 2.390625 
Q 33.9375 0 27.875 0 
Q 17.828125 0 11.671875 7.65625 
Q 5.515625 15.328125 5.515625 27.984375 
Q 5.515625 40.671875 11.671875 48.328125 
Q 17.828125 56 27.875 56 
Q 33.9375 56 38.28125 53.609375 
Q 42.625 51.21875 45.40625 46.390625 
L 45.40625 54.6875 
L 54.390625 54.6875 
z
" id="DejaVuSans-103"/>
       <path d="M 12.40625 8.296875 
L 28.515625 8.296875 
L 28.515625 63.921875 
L 10.984375 60.40625 
L 10.984375 69.390625 
L 28.421875 72.90625 
L 38.28125 72.90625 
L 38.28125 8.296875 
L 54.390625 8.296875 
L 54.390625 0 
L 12.40625 0 
z
" id="DejaVuSans-49"/>
       <path d="M 31 75.875 
Q 24.46875 64.65625 21.28125 53.65625 
Q 18.109375 42.671875 18.109375 31.390625 
Q 18.109375 20.125 21.3125 9.0625 
Q 24.515625 -2 31 -13.1875 
L 23.1875 -13.1875 
Q 15.875 -1.703125 12.234375 9.375 
Q 8.59375 20.453125 8.59375 31.390625 
Q 8.59375 42.28125 12.203125 53.3125 
Q 15.828125 64.359375 23.1875 75.875 
z
" id="DejaVuSans-40"/>
       <path d="M 51.125 44 
L 36.921875 44 
L 32.8125 27.6875 
L 47.125 27.6875 
z
M 43.796875 71.78125 
L 38.71875 51.515625 
L 52.984375 51.515625 
L 58.109375 71.78125 
L 65.921875 71.78125 
L 60.890625 51.515625 
L 76.125 51.515625 
L 76.125 44 
L 58.984375 44 
L 54.984375 27.6875 
L 70.515625 27.6875 
L 70.515625 20.21875 
L 53.078125 20.21875 
L 48 0 
L 40.1875 0 
L 45.21875 20.21875 
L 30.90625 20.21875 
L 25.875 0 
L 18.015625 0 
L 23.09375 20.21875 
L 7.71875 20.21875 
L 7.71875 27.6875 
L 24.90625 27.6875 
L 29 44 
L 13.28125 44 
L 13.28125 51.515625 
L 30.90625 51.515625 
L 35.890625 71.78125 
z
" id="DejaVuSans-35"/>
       <path id="DejaVuSans-32"/>
       <path d="M 37.109375 75.984375 
L 37.109375 68.5 
L 28.515625 68.5 
Q 23.6875 68.5 21.796875 66.546875 
Q 19.921875 64.59375 19.921875 59.515625 
L 19.921875 54.6875 
L 34.71875 54.6875 
L 34.71875 47.703125 
L 19.921875 47.703125 
L 19.921875 0 
L 10.890625 0 
L 10.890625 47.703125 
L 2.296875 47.703125 
L 2.296875 54.6875 
L 10.890625 54.6875 
L 10.890625 58.5 
Q 10.890625 67.625 15.140625 71.796875 
Q 19.390625 75.984375 28.609375 75.984375 
z
" id="DejaVuSans-102"/>
       <path d="M 4.890625 31.390625 
L 31.203125 31.390625 
L 31.203125 23.390625 
L 4.890625 23.390625 
z
" id="DejaVuSans-45"/>
       <path d="M 56.203125 29.59375 
L 56.203125 25.203125 
L 14.890625 25.203125 
Q 15.484375 15.921875 20.484375 11.0625 
Q 25.484375 6.203125 34.421875 6.203125 
Q 39.59375 6.203125 44.453125 7.46875 
Q 49.3125 8.734375 54.109375 11.28125 
L 54.109375 2.78125 
Q 49.265625 0.734375 44.1875 -0.34375 
Q 39.109375 -1.421875 33.890625 -1.421875 
Q 20.796875 -1.421875 13.15625 6.1875 
Q 5.515625 13.8125 5.515625 26.8125 
Q 5.515625 40.234375 12.765625 48.109375 
Q 20.015625 56 32.328125 56 
Q 43.359375 56 49.78125 48.890625 
Q 56.203125 41.796875 56.203125 29.59375 
z
M 47.21875 32.234375 
Q 47.125 39.59375 43.09375 43.984375 
Q 39.0625 48.390625 32.421875 48.390625 
Q 24.90625 48.390625 20.390625 44.140625 
Q 15.875 39.890625 15.1875 32.171875 
z
" id="DejaVuSans-101"/>
       <path d="M 2.984375 54.6875 
L 12.5 54.6875 
L 29.59375 8.796875 
L 46.6875 54.6875 
L 56.203125 54.6875 
L 35.6875 0 
L 23.484375 0 
z
" id="DejaVuSans-118"/>
       <path d="M 34.28125 27.484375 
Q 23.390625 27.484375 19.1875 25 
Q 14.984375 22.515625 14.984375 16.5 
Q 14.984375 11.71875 18.140625 8.90625 
Q 21.296875 6.109375 26.703125 6.109375 
Q 34.1875 6.109375 38.703125 11.40625 
Q 43.21875 16.703125 43.21875 25.484375 
L 43.21875 27.484375 
z
M 52.203125 31.203125 
L 52.203125 0 
L 43.21875 0 
L 43.21875 8.296875 
Q 40.140625 3.328125 35.546875 0.953125 
Q 30.953125 -1.421875 24.3125 -1.421875 
Q 15.921875 -1.421875 10.953125 3.296875 
Q 6 8.015625 6 15.921875 
Q 6 25.140625 12.171875 29.828125 
Q 18.359375 34.515625 30.609375 34.515625 
L 43.21875 34.515625 
L 43.21875 35.40625 
Q 43.21875 41.609375 39.140625 45 
Q 35.0625 48.390625 27.6875 48.390625 
Q 23 48.390625 18.546875 47.265625 
Q 14.109375 46.140625 10.015625 43.890625 
L 10.015625 52.203125 
Q 14.9375 54.109375 19.578125 55.046875 
Q 24.21875 56 28.609375 56 
Q 40.484375 56 46.34375 49.84375 
Q 52.203125 43.703125 52.203125 31.203125 
z
" id="DejaVuSans-97"/>
       <path d="M 44.28125 53.078125 
L 44.28125 44.578125 
Q 40.484375 46.53125 36.375 47.5 
Q 32.28125 48.484375 27.875 48.484375 
Q 21.1875 48.484375 17.84375 46.4375 
Q 14.5 44.390625 14.5 40.28125 
Q 14.5 37.15625 16.890625 35.375 
Q 19.28125 33.59375 26.515625 31.984375 
L 29.59375 31.296875 
Q 39.15625 29.25 43.1875 25.515625 
Q 47.21875 21.78125 47.21875 15.09375 
Q 47.21875 7.46875 41.1875 3.015625 
Q 35.15625 -1.421875 24.609375 -1.421875 
Q 20.21875 -1.421875 15.453125 -0.5625 
Q 10.6875 0.296875 5.421875 2 
L 5.421875 11.28125 
Q 10.40625 8.6875 15.234375 7.390625 
Q 20.0625 6.109375 24.8125 6.109375 
Q 31.15625 6.109375 34.5625 8.28125 
Q 37.984375 10.453125 37.984375 14.40625 
Q 37.984375 18.0625 35.515625 20.015625 
Q 33.0625 21.96875 24.703125 23.78125 
L 21.578125 24.515625 
Q 13.234375 26.265625 9.515625 29.90625 
Q 5.8125 33.546875 5.8125 39.890625 
Q 5.8125 47.609375 11.28125 51.796875 
Q 16.75 56 26.8125 56 
Q 31.78125 56 36.171875 55.265625 
Q 40.578125 54.546875 44.28125 53.078125 
z
" id="DejaVuSans-115"/>
       <path d="M 25.390625 72.90625 
L 33.6875 72.90625 
L 8.296875 -9.28125 
L 0 -9.28125 
z
" id="DejaVuSans-47"/>
       <path d="M 45.40625 46.390625 
L 45.40625 75.984375 
L 54.390625 75.984375 
L 54.390625 0 
L 45.40625 0 
L 45.40625 8.203125 
Q 42.578125 3.328125 38.25 0.953125 
Q 33.9375 -1.421875 27.875 -1.421875 
Q 17.96875 -1.421875 11.734375 6.484375 
Q 5.515625 14.40625 5.515625 27.296875 
Q 5.515625 40.1875 11.734375 48.09375 
Q 17.96875 56 27.875 56 
Q 33.9375 56 38.25 53.625 
Q 42.578125 51.265625 45.40625 46.390625 
z
M 14.796875 27.296875 
Q 14.796875 17.390625 18.875 11.75 
Q 22.953125 6.109375 30.078125 6.109375 
Q 37.203125 6.109375 41.296875 11.75 
Q 45.40625 17.390625 45.40625 27.296875 
Q 45.40625 37.203125 41.296875 42.84375 
Q 37.203125 48.484375 30.078125 48.484375 
Q 22.953125 48.484375 18.875 42.84375 
Q 14.796875 37.203125 14.796875 27.296875 
z
" id="DejaVuSans-100"/>
       <path d="M 9.421875 54.6875 
L 18.40625 54.6875 
L 18.40625 0 
L 9.421875 0 
z
M 9.421875 75.984375 
L 18.40625 75.984375 
L 18.40625 64.59375 
L 9.421875 64.59375 
z
" id="DejaVuSans-105"/>
       <path d="M 52 44.1875 
Q 55.375 50.25 60.0625 53.125 
Q 64.75 56 71.09375 56 
Q 79.640625 56 84.28125 50.015625 
Q 88.921875 44.046875 88.921875 33.015625 
L 88.921875 0 
L 79.890625 0 
L 79.890625 32.71875 
Q 79.890625 40.578125 77.09375 44.375 
Q 74.3125 48.1875 68.609375 48.1875 
Q 61.625 48.1875 57.5625 43.546875 
Q 53.515625 38.921875 53.515625 30.90625 
L 53.515625 0 
L 44.484375 0 
L 44.484375 32.71875 
Q 44.484375 40.625 41.703125 44.40625 
Q 38.921875 48.1875 33.109375 48.1875 
Q 26.21875 48.1875 22.15625 43.53125 
Q 18.109375 38.875 18.109375 30.90625 
L 18.109375 0 
L 9.078125 0 
L 9.078125 54.6875 
L 18.109375 54.6875 
L 18.109375 46.1875 
Q 21.1875 51.21875 25.484375 53.609375 
Q 29.78125 56 35.6875 56 
Q 41.65625 56 45.828125 52.96875 
Q 50 49.953125 52 44.1875 
z
" id="DejaVuSans-109"/>
       <path d="M 54.890625 33.015625 
L 54.890625 0 
L 45.90625 0 
L 45.90625 32.71875 
Q 45.90625 40.484375 42.875 44.328125 
Q 39.84375 48.1875 33.796875 48.1875 
Q 26.515625 48.1875 22.3125 43.546875 
Q 18.109375 38.921875 18.109375 30.90625 
L 18.109375 0 
L 9.078125 0 
L 9.078125 54.6875 
L 18.109375 54.6875 
L 18.109375 46.1875 
Q 21.34375 51.125 25.703125 53.5625 
Q 30.078125 56 35.796875 56 
Q 45.21875 56 50.046875 50.171875 
Q 54.890625 44.34375 54.890625 33.015625 
z
" id="DejaVuSans-110"/>
       <path d="M 8.015625 75.875 
L 15.828125 75.875 
Q 23.140625 64.359375 26.78125 53.3125 
Q 30.421875 42.28125 30.421875 31.390625 
Q 30.421875 20.453125 26.78125 9.375 
Q 23.140625 -1.703125 15.828125 -13.1875 
L 8.015625 -13.1875 
Q 14.5 -2 17.703125 9.0625 
Q 20.90625 20.125 20.90625 31.390625 
Q 20.90625 42.671875 17.703125 53.65625 
Q 14.5 64.65625 8.015625 75.875 
z
" id="DejaVuSans-41"/>
      </defs>
      <use xlink:href="#DejaVuSans-108"/>
      <use x="27.783203" xlink:href="#DejaVuSans-111"/>
      <use x="88.964844" xlink:href="#DejaVuSans-103"/>
      <use x="152.441406" xlink:href="#DejaVuSans-49"/>
      <use x="216.064453" xlink:href="#DejaVuSans-48"/>
      <use x="279.6875" xlink:href="#DejaVuSans-40"/>
      <use x="318.701172" xlink:href="#DejaVuSans-35"/>
      <use x="402.490234" xlink:href="#DejaVuSans-32"/>
      <use x="434.277344" xlink:href="#DejaVuSans-102"/>
      <use x="463.982422" xlink:href="#DejaVuSans-45"/>
      <use x="500.066406" xlink:href="#DejaVuSans-101"/>
      <use x="561.589844" xlink:href="#DejaVuSans-118"/>
      <use x="620.769531" xlink:href="#DejaVuSans-97"/>
      <use x="682.048828" xlink:href="#DejaVuSans-108"/>
      <use x="709.832031" xlink:href="#DejaVuSans-115"/>
      <use x="761.931641" xlink:href="#DejaVuSans-32"/>
      <use x="793.71875" xlink:href="#DejaVuSans-47"/>
      <use x="827.410156" xlink:href="#DejaVuSans-32"/>
      <use x="859.197266" xlink:href="#DejaVuSans-100"/>
      <use x="922.673828" xlink:href="#DejaVuSans-105"/>
      <use x="950.457031" xlink:href="#DejaVuSans-109"/>
      <use x="1047.869141" xlink:href="#DejaVuSans-101"/>
      <use x="1109.392578" xlink:href="#DejaVuSans-110"/>
      <use x="1172.771484" xlink:href="#DejaVuSans-115"/>
      <use x="1224.871094" xlink:href="#DejaVuSans-105"/>
      <use x="1252.654297" xlink:href="#DejaVuSans-111"/>
      <use x="1313.835938" xlink:href="#DejaVuSans-110"/>
      <use x="1377.214844" xlink:href="#DejaVuSans-41"/>
     </g>
    </g>
   </g>
   <g id="matplotlib.axis_2">
    <g id="ytick_1">
     <g id="line2d_21">
      <path clip-path="url(#p4dc5c9df91)" d="M 57.6 298.944 
L 338.688 298.944 
" style="fill:none;stroke:#b0b0b0;stroke-linecap:square;stroke-width:0.8;"/>
     </g>
     <g id="line2d_22">
      <defs>
       <path d="M 0 0 
L -3.5 0 
" id="ma808347731" style="stroke:#000000;stroke-width:0.8;"/>
      </defs>
      <g>
       <use style="stroke:#000000;stroke-width:0.8;" x="57.6" xlink:href="#ma808347731" y="298.944"/>
      </g>
     </g>
     <g id="text_6">
      <!-- 0.0 -->
      <g transform="translate(25.155 305.02275)scale(0.16 -0.16)">
       <defs>
        <path d="M 10.6875 12.40625 
L 21 12.40625 
L 21 0 
L 10.6875 0 
z
" id="DejaVuSans-46"/>
       </defs>
       <use xlink:href="#DejaVuSans-48"/>
       <use x="63.623047" xlink:href="#DejaVuSans-46"/>
       <use x="95.410156" xlink:href="#DejaVuSans-48"/>
      </g>
     </g>
    </g>
    <g id="ytick_2">
     <g id="line2d_23">
      <path clip-path="url(#p4dc5c9df91)" d="M 57.6 245.22202 
L 338.688 245.22202 
" style="fill:none;stroke:#b0b0b0;stroke-linecap:square;stroke-width:0.8;"/>
     </g>
     <g id="line2d_24">
      <g>
       <use style="stroke:#000000;stroke-width:0.8;" x="57.6" xlink:href="#ma808347731" y="245.22202"/>
      </g>
     </g>
     <g id="text_7">
      <!-- 0.2 -->
      <g transform="translate(25.155 251.30077)scale(0.16 -0.16)">
       <use xlink:href="#DejaVuSans-48"/>
       <use x="63.623047" xlink:href="#DejaVuSans-46"/>
       <use x="95.410156" xlink:href="#DejaVuSans-50"/>
      </g>
     </g>
    </g>
    <g id="ytick_3">
     <g id="line2d_25">
      <path clip-path="url(#p4dc5c9df91)" d="M 57.6 191.50004 
L 338.688 191.50004 
" style="fill:none;stroke:#b0b0b0;stroke-linecap:square;stroke-width:0.8;"/>
     </g>
     <g id="line2d_26">
      <g>
       <use style="stroke:#000000;stroke-width:0.8;" x="57.6" xlink:href="#ma808347731" y="191.50004"/>
      </g>
     </g>
     <g id="text_8">
      <!-- 0.4 -->
      <g transform="translate(25.155 197.57879)scale(0.16 -0.16)">
       <use xlink:href="#DejaVuSans-48"/>
       <use x="63.623047" xlink:href="#DejaVuSans-46"/>
       <use x="95.410156" xlink:href="#DejaVuSans-52"/>
      </g>
     </g>
    </g>
    <g id="ytick_4">
     <g id="line2d_27">
      <path clip-path="url(#p4dc5c9df91)" d="M 57.6 137.778059 
L 338.688 137.778059 
" style="fill:none;stroke:#b0b0b0;stroke-linecap:square;stroke-width:0.8;"/>
     </g>
     <g id="line2d_28">
      <g>
       <use style="stroke:#000000;stroke-width:0.8;" x="57.6" xlink:href="#ma808347731" y="137.778059"/>
      </g>
     </g>
     <g id="text_9">
      <!-- 0.6 -->
      <g transform="translate(25.155 143.856809)scale(0.16 -0.16)">
       <use xlink:href="#DejaVuSans-48"/>
       <use x="63.623047" xlink:href="#DejaVuSans-46"/>
       <use x="95.410156" xlink:href="#DejaVuSans-54"/>
      </g>
     </g>
    </g>
    <g id="ytick_5">
     <g id="line2d_29">
      <path clip-path="url(#p4dc5c9df91)" d="M 57.6 84.056079 
L 338.688 84.056079 
" style="fill:none;stroke:#b0b0b0;stroke-linecap:square;stroke-width:0.8;"/>
     </g>
     <g id="line2d_30">
      <g>
       <use style="stroke:#000000;stroke-width:0.8;" x="57.6" xlink:href="#ma808347731" y="84.056079"/>
      </g>
     </g>
     <g id="text_10">
      <!-- 0.8 -->
      <g transform="translate(25.155 90.134829)scale(0.16 -0.16)">
       <defs>
        <path d="M 31.78125 34.625 
Q 24.75 34.625 20.71875 30.859375 
Q 16.703125 27.09375 16.703125 20.515625 
Q 16.703125 13.921875 20.71875 10.15625 
Q 24.75 6.390625 31.78125 6.390625 
Q 38.8125 6.390625 42.859375 10.171875 
Q 46.921875 13.96875 46.921875 20.515625 
Q 46.921875 27.09375 42.890625 30.859375 
Q 38.875 34.625 31.78125 34.625 
z
M 21.921875 38.8125 
Q 15.578125 40.375 12.03125 44.71875 
Q 8.5 49.078125 8.5 55.328125 
Q 8.5 64.0625 14.71875 69.140625 
Q 20.953125 74.21875 31.78125 74.21875 
Q 42.671875 74.21875 48.875 69.140625 
Q 55.078125 64.0625 55.078125 55.328125 
Q 55.078125 49.078125 51.53125 44.71875 
Q 48 40.375 41.703125 38.8125 
Q 48.828125 37.15625 52.796875 32.3125 
Q 56.78125 27.484375 56.78125 20.515625 
Q 56.78125 9.90625 50.3125 4.234375 
Q 43.84375 -1.421875 31.78125 -1.421875 
Q 19.734375 -1.421875 13.25 4.234375 
Q 6.78125 9.90625 6.78125 20.515625 
Q 6.78125 27.484375 10.78125 32.3125 
Q 14.796875 37.15625 21.921875 38.8125 
z
M 18.3125 54.390625 
Q 18.3125 48.734375 21.84375 45.5625 
Q 25.390625 42.390625 31.78125 42.390625 
Q 38.140625 42.390625 41.71875 45.5625 
Q 45.3125 48.734375 45.3125 54.390625 
Q 45.3125 60.0625 41.71875 63.234375 
Q 38.140625 66.40625 31.78125 66.40625 
Q 25.390625 66.40625 21.84375 63.234375 
Q 18.3125 60.0625 18.3125 54.390625 
z
" id="DejaVuSans-56"/>
       </defs>
       <use xlink:href="#DejaVuSans-48"/>
       <use x="63.623047" xlink:href="#DejaVuSans-46"/>
       <use x="95.410156" xlink:href="#DejaVuSans-56"/>
      </g>
     </g>
    </g>
    <g id="ytick_6">
     <g id="line2d_31">
      <path clip-path="url(#p4dc5c9df91)" d="M 57.6 30.334099 
L 338.688 30.334099 
" style="fill:none;stroke:#b0b0b0;stroke-linecap:square;stroke-width:0.8;"/>
     </g>
     <g id="line2d_32">
      <g>
       <use style="stroke:#000000;stroke-width:0.8;" x="57.6" xlink:href="#ma808347731" y="30.334099"/>
      </g>
     </g>
     <g id="text_11">
      <!-- 1.0 -->
      <g transform="translate(25.155 36.412849)scale(0.16 -0.16)">
       <use xlink:href="#DejaVuSans-49"/>
       <use x="63.623047" xlink:href="#DejaVuSans-46"/>
       <use x="95.410156" xlink:href="#DejaVuSans-48"/>
      </g>
     </g>
    </g>
    <g id="text_12">
     <!-- Fraction of function,target pairs -->
     <g transform="translate(17.619531 297.681)rotate(-90)scale(0.17 -0.17)">
      <defs>
       <path d="M 9.8125 72.90625 
L 51.703125 72.90625 
L 51.703125 64.59375 
L 19.671875 64.59375 
L 19.671875 43.109375 
L 48.578125 43.109375 
L 48.578125 34.8125 
L 19.671875 34.8125 
L 19.671875 0 
L 9.8125 0 
z
" id="DejaVuSans-70"/>
       <path d="M 41.109375 46.296875 
Q 39.59375 47.171875 37.8125 47.578125 
Q 36.03125 48 33.890625 48 
Q 26.265625 48 22.1875 43.046875 
Q 18.109375 38.09375 18.109375 28.8125 
L 18.109375 0 
L 9.078125 0 
L 9.078125 54.6875 
L 18.109375 54.6875 
L 18.109375 46.1875 
Q 20.953125 51.171875 25.484375 53.578125 
Q 30.03125 56 36.53125 56 
Q 37.453125 56 38.578125 55.875 
Q 39.703125 55.765625 41.0625 55.515625 
z
" id="DejaVuSans-114"/>
       <path d="M 48.78125 52.59375 
L 48.78125 44.1875 
Q 44.96875 46.296875 41.140625 47.34375 
Q 37.3125 48.390625 33.40625 48.390625 
Q 24.65625 48.390625 19.8125 42.84375 
Q 14.984375 37.3125 14.984375 27.296875 
Q 14.984375 17.28125 19.8125 11.734375 
Q 24.65625 6.203125 33.40625 6.203125 
Q 37.3125 6.203125 41.140625 7.25 
Q 44.96875 8.296875 48.78125 10.40625 
L 48.78125 2.09375 
Q 45.015625 0.34375 40.984375 -0.53125 
Q 36.96875 -1.421875 32.421875 -1.421875 
Q 20.0625 -1.421875 12.78125 6.34375 
Q 5.515625 14.109375 5.515625 27.296875 
Q 5.515625 40.671875 12.859375 48.328125 
Q 20.21875 56 33.015625 56 
Q 37.15625 56 41.109375 55.140625 
Q 45.0625 54.296875 48.78125 52.59375 
z
" id="DejaVuSans-99"/>
       <path d="M 18.3125 70.21875 
L 18.3125 54.6875 
L 36.8125 54.6875 
L 36.8125 47.703125 
L 18.3125 47.703125 
L 18.3125 18.015625 
Q 18.3125 11.328125 20.140625 9.421875 
Q 21.96875 7.515625 27.59375 7.515625 
L 36.8125 7.515625 
L 36.8125 0 
L 27.59375 0 
Q 17.1875 0 13.234375 3.875 
Q 9.28125 7.765625 9.28125 18.015625 
L 9.28125 47.703125 
L 2.6875 47.703125 
L 2.6875 54.6875 
L 9.28125 54.6875 
L 9.28125 70.21875 
z
" id="DejaVuSans-116"/>
       <path d="M 8.5 21.578125 
L 8.5 54.6875 
L 17.484375 54.6875 
L 17.484375 21.921875 
Q 17.484375 14.15625 20.5 10.265625 
Q 23.53125 6.390625 29.59375 6.390625 
Q 36.859375 6.390625 41.078125 11.03125 
Q 45.3125 15.671875 45.3125 23.6875 
L 45.3125 54.6875 
L 54.296875 54.6875 
L 54.296875 0 
L 45.3125 0 
L 45.3125 8.40625 
Q 42.046875 3.421875 37.71875 1 
Q 33.40625 -1.421875 27.6875 -1.421875 
Q 18.265625 -1.421875 13.375 4.4375 
Q 8.5 10.296875 8.5 21.578125 
z
M 31.109375 56 
z
" id="DejaVuSans-117"/>
       <path d="M 11.71875 12.40625 
L 22.015625 12.40625 
L 22.015625 4 
L 14.015625 -11.625 
L 7.71875 -11.625 
L 11.71875 4 
z
" id="DejaVuSans-44"/>
       <path d="M 18.109375 8.203125 
L 18.109375 -20.796875 
L 9.078125 -20.796875 
L 9.078125 54.6875 
L 18.109375 54.6875 
L 18.109375 46.390625 
Q 20.953125 51.265625 25.265625 53.625 
Q 29.59375 56 35.59375 56 
Q 45.5625 56 51.78125 48.09375 
Q 58.015625 40.1875 58.015625 27.296875 
Q 58.015625 14.40625 51.78125 6.484375 
Q 45.5625 -1.421875 35.59375 -1.421875 
Q 29.59375 -1.421875 25.265625 0.953125 
Q 20.953125 3.328125 18.109375 8.203125 
z
M 48.6875 27.296875 
Q 48.6875 37.203125 44.609375 42.84375 
Q 40.53125 48.484375 33.40625 48.484375 
Q 26.265625 48.484375 22.1875 42.84375 
Q 18.109375 37.203125 18.109375 27.296875 
Q 18.109375 17.390625 22.1875 11.75 
Q 26.265625 6.109375 33.40625 6.109375 
Q 40.53125 6.109375 44.609375 11.75 
Q 48.6875 17.390625 48.6875 27.296875 
z
" id="DejaVuSans-112"/>
      </defs>
      <use xlink:href="#DejaVuSans-70"/>
      <use x="50.269531" xlink:href="#DejaVuSans-114"/>
      <use x="91.382812" xlink:href="#DejaVuSans-97"/>
      <use x="152.662109" xlink:href="#DejaVuSans-99"/>
      <use x="207.642578" xlink:href="#DejaVuSans-116"/>
      <use x="246.851562" xlink:href="#DejaVuSans-105"/>
      <use x="274.634766" xlink:href="#DejaVuSans-111"/>
      <use x="335.816406" xlink:href="#DejaVuSans-110"/>
      <use x="399.195312" xlink:href="#DejaVuSans-32"/>
      <use x="430.982422" xlink:href="#DejaVuSans-111"/>
      <use x="492.164062" xlink:href="#DejaVuSans-102"/>
      <use x="527.369141" xlink:href="#DejaVuSans-32"/>
      <use x="559.15625" xlink:href="#DejaVuSans-102"/>
      <use x="594.361328" xlink:href="#DejaVuSans-117"/>
      <use x="657.740234" xlink:href="#DejaVuSans-110"/>
      <use x="721.119141" xlink:href="#DejaVuSans-99"/>
      <use x="776.099609" xlink:href="#DejaVuSans-116"/>
      <use x="815.308594" xlink:href="#DejaVuSans-105"/>
      <use x="843.091797" xlink:href="#DejaVuSans-111"/>
      <use x="904.273438" xlink:href="#DejaVuSans-110"/>
      <use x="967.652344" xlink:href="#DejaVuSans-44"/>
      <use x="999.439453" xlink:href="#DejaVuSans-116"/>
      <use x="1038.648438" xlink:href="#DejaVuSans-97"/>
      <use x="1099.927734" xlink:href="#DejaVuSans-114"/>
      <use x="1139.291016" xlink:href="#DejaVuSans-103"/>
      <use x="1202.767578" xlink:href="#DejaVuSans-101"/>
      <use x="1264.291016" xlink:href="#DejaVuSans-116"/>
      <use x="1303.5" xlink:href="#DejaVuSans-32"/>
      <use x="1335.287109" xlink:href="#DejaVuSans-112"/>
      <use x="1398.763672" xlink:href="#DejaVuSans-97"/>
      <use x="1460.042969" xlink:href="#DejaVuSans-105"/>
      <use x="1487.826172" xlink:href="#DejaVuSans-114"/>
      <use x="1528.939453" xlink:href="#DejaVuSans-115"/>
     </g>
    </g>
   </g>
   <g id="line2d_33">
    <defs>
     <path d="M 0 1.5 
C 0.397805 1.5 0.77937 1.341951 1.06066 1.06066 
C 1.341951 0.77937 1.5 0.397805 1.5 0 
C 1.5 -0.397805 1.341951 -0.77937 1.06066 -1.06066 
C 0.77937 -1.341951 0.397805 -1.5 0 -1.5 
C -0.397805 -1.5 -0.77937 -1.341951 -1.06066 -1.06066 
C -1.341951 -0.77937 -1.5 -0.397805 -1.5 0 
C -1.5 0.397805 -1.341951 0.77937 -1.06066 1.06066 
C -0.77937 1.341951 -0.397805 1.5 0 1.5 
z
" id="m759844251a" style="stroke:#f5deb3;"/>
    </defs>
    <g>
     <use style="fill:#f5deb3;stroke:#f5deb3;" x="239.147975" xlink:href="#m759844251a" y="62.752535"/>
     <use style="fill:#f5deb3;stroke:#f5deb3;" x="239.147975" xlink:href="#m759844251a" y="62.752535"/>
    </g>
   </g>
   <g id="line2d_34">
    <defs>
     <path d="M 0 1.5 
C 0.397805 1.5 0.77937 1.341951 1.06066 1.06066 
C 1.341951 0.77937 1.5 0.397805 1.5 0 
C 1.5 -0.397805 1.341951 -0.77937 1.06066 -1.06066 
C 0.77937 -1.341951 0.397805 -1.5 0 -1.5 
C -0.397805 -1.5 -0.77937 -1.341951 -1.06066 -1.06066 
C -1.341951 -0.77937 -1.5 -0.397805 -1.5 0 
C -1.5 0.397805 -1.341951 0.77937 -1.06066 1.06066 
C -0.77937 1.341951 -0.397805 1.5 0 1.5 
z
" id="mfdc2e1c110" style="stroke:#000080;"/>
    </defs>
    <g>
     <use style="fill:#000080;stroke:#000080;" x="256.227404" xlink:href="#mfdc2e1c110" y="90.076646"/>
     <use style="fill:#000080;stroke:#000080;" x="256.227404" xlink:href="#mfdc2e1c110" y="90.076646"/>
    </g>
   </g>
   <g id="line2d_35">
    <path d="M 45.512012 298.944 
L 45.512012 287.365987 
L 57.6 287.365987 
L 57.6 285.050384 
L 64.67102 285.050384 
L 64.67102 282.271661 
L 73.579452 282.271661 
L 73.579452 280.8823 
L 76.759008 280.8823 
L 76.759008 277.640456 
L 79.447285 277.640456 
L 79.447285 273.472371 
L 83.830028 273.472371 
L 83.830028 273.009251 
L 87.329581 273.009251 
L 87.329581 271.619889 
L 91.535274 271.619889 
L 91.535274 269.767407 
L 93.863965 269.767407 
L 93.863965 268.378046 
L 94.921215 268.378046 
L 94.921215 265.599323 
L 96.86091 265.599323 
L 96.86091 262.8206 
L 97.755429 262.8206 
L 97.755429 260.504997 
L 100.934985 260.504997 
L 100.934985 258.652515 
L 105.398279 258.652515 
L 105.398279 258.189394 
L 108.483824 258.189394 
L 108.483824 257.263153 
L 109.401893 257.263153 
L 109.401893 256.800033 
L 116.621333 256.800033 
L 116.621333 254.947551 
L 118.838828 254.947551 
L 118.838828 254.02131 
L 120.093994 254.02131 
L 120.093994 253.558189 
L 120.8059 253.558189 
L 120.8059 252.631948 
L 121.036887 252.631948 
L 121.036887 251.705707 
L 121.931406 251.705707 
L 121.931406 250.779466 
L 122.148045 250.779466 
L 122.148045 249.853225 
L 125.470548 249.853225 
L 125.470548 245.22202 
L 125.996395 245.22202 
L 125.996395 244.758899 
L 127.002787 244.758899 
L 127.002787 244.295779 
L 127.165014 244.295779 
L 127.165014 243.832658 
L 128.260216 243.832658 
L 128.260216 241.980176 
L 128.856489 241.980176 
L 128.856489 241.517056 
L 129.574256 241.517056 
L 129.574256 240.590815 
L 130.531948 240.590815 
L 130.531948 239.664574 
L 130.796184 239.664574 
L 130.796184 238.738333 
L 135.280614 238.738333 
L 135.280614 237.348971 
L 136.924311 237.348971 
L 136.924311 236.42273 
L 137.469333 236.42273 
L 137.469333 235.959609 
L 140.11924 235.959609 
L 140.11924 235.033368 
L 140.723258 235.033368 
L 140.723258 234.107127 
L 141.80232 234.107127 
L 141.80232 233.180886 
L 143.014805 233.180886 
L 143.014805 231.791525 
L 146.052799 231.791525 
L 146.052799 230.865284 
L 146.377764 230.865284 
L 146.377764 230.402163 
L 146.749392 230.402163 
L 146.749392 229.939043 
L 147.769524 229.939043 
L 147.769524 229.012802 
L 148.161434 229.012802 
L 148.161434 228.549681 
L 152.848312 228.549681 
L 152.848312 227.16032 
L 153.287059 227.16032 
L 153.359122 225.770958 
L 153.750233 225.770958 
L 153.750233 225.307837 
L 153.925152 225.307837 
L 153.925152 224.844717 
L 154.741174 224.844717 
L 154.741174 224.381596 
L 156.236431 224.381596 
L 156.236431 223.918476 
L 158.438903 223.918476 
L 158.438903 223.455355 
L 159.123917 223.455355 
L 159.123917 222.529114 
L 160.030058 222.529114 
L 160.030058 221.139753 
L 160.225184 221.139753 
L 160.225184 220.676632 
L 160.609008 220.676632 
L 160.609008 220.213512 
L 160.938061 220.213512 
L 160.938061 219.750391 
L 162.043181 219.750391 
L 162.043181 218.82415 
L 162.303474 218.82415 
L 162.303474 218.36103 
L 162.474869 218.36103 
L 162.474869 217.434789 
L 162.854457 217.434789 
L 162.854457 216.045427 
L 162.999872 216.045427 
L 162.999872 215.119186 
L 163.709295 215.119186 
L 163.709295 214.192945 
L 163.985177 214.192945 
L 163.985177 213.266704 
L 165.102127 213.266704 
L 165.102127 212.803583 
L 165.679281 212.803583 
L 165.679281 212.340463 
L 167.223287 212.340463 
L 167.223287 211.877342 
L 169.157854 211.877342 
L 169.157854 211.414222 
L 170.022555 211.414222 
L 170.022555 210.951101 
L 170.378471 210.951101 
L 170.378471 210.02486 
L 171.276376 210.02486 
L 171.353428 209.098619 
L 171.455636 209.098619 
L 171.455636 208.172378 
L 171.970255 208.172378 
L 171.970255 207.246137 
L 172.744386 207.246137 
L 172.744386 206.319896 
L 173.280304 206.319896 
L 173.280304 205.856776 
L 174.423728 205.856776 
L 174.423728 205.393655 
L 174.626698 205.393655 
L 174.626698 204.930535 
L 175.697687 204.930535 
L 175.697687 204.467414 
L 176.593204 204.467414 
L 176.593204 204.004294 
L 178.048838 204.004294 
L 178.048838 203.541173 
L 178.942047 203.541173 
L 178.942047 202.614932 
L 179.335615 202.614932 
L 179.335615 201.688691 
L 179.760106 201.688691 
L 179.760106 199.836209 
L 180.639584 199.836209 
L 180.639584 199.373088 
L 180.789406 199.373088 
L 180.789406 198.909968 
L 181.462482 198.909968 
L 181.462482 197.983727 
L 182.715356 197.983727 
L 182.715356 197.520606 
L 183.594505 197.520606 
L 183.594505 197.057486 
L 184.169204 197.057486 
L 184.169204 196.594365 
L 184.55811 196.594365 
L 184.55811 196.131245 
L 185.385494 196.131245 
L 185.385494 195.205004 
L 185.888232 195.205004 
L 185.888232 194.278763 
L 186.565359 194.278763 
L 186.650846 193.352522 
L 186.799447 193.352522 
L 186.873275 191.50004 
L 187.18102 191.50004 
L 187.201688 190.110678 
L 187.895201 190.110678 
L 187.895201 189.647558 
L 188.986864 189.647558 
L 188.986864 189.184437 
L 189.405998 189.184437 
L 189.405998 188.721316 
L 189.6006 188.721316 
L 189.6006 188.258196 
L 189.752948 188.258196 
L 189.841947 187.331955 
L 190.817282 187.331955 
L 190.817282 186.868834 
L 191.07972 186.868834 
L 191.07972 185.479473 
L 191.532713 185.479473 
L 191.532713 184.090111 
L 191.883664 184.090111 
L 191.974238 183.16387 
L 192.625709 183.16387 
L 192.663505 182.237629 
L 192.750128 182.237629 
L 192.791404 181.311388 
L 192.974094 181.311388 
L 193.040727 180.385147 
L 193.268311 180.385147 
L 193.268311 179.922027 
L 194.097977 179.922027 
L 194.146593 178.995786 
L 195.284231 178.995786 
L 195.319931 175.753942 
L 195.818504 175.753942 
L 195.83425 174.827701 
L 195.965963 174.827701 
L 195.965963 174.36458 
L 196.078073 174.36458 
L 196.078073 173.438339 
L 196.670119 173.438339 
L 196.759905 172.512098 
L 197.312273 172.512098 
L 197.323838 169.733375 
L 197.962295 169.733375 
L 197.962295 169.270255 
L 198.263384 169.270255 
L 198.263384 168.344014 
L 198.402496 168.344014 
L 198.494624 167.417773 
L 198.932297 167.417773 
L 199.024297 166.491532 
L 199.433677 166.491532 
L 199.500131 164.63905 
L 199.791067 164.63905 
L 199.791067 163.712808 
L 200.537562 163.712808 
L 200.537562 162.786567 
L 200.697874 162.786567 
L 200.697874 161.860326 
L 201.044526 161.860326 
L 201.044526 161.397206 
L 201.317889 161.397206 
L 201.368384 160.470965 
L 201.711076 160.470965 
L 201.711076 159.544724 
L 201.834243 159.544724 
L 201.834243 159.081603 
L 202.266225 159.081603 
L 202.329242 158.155362 
L 202.959749 158.155362 
L 202.959749 157.229121 
L 203.200753 157.229121 
L 203.200753 156.766001 
L 203.320017 156.766001 
L 203.330261 155.83976 
L 203.691058 155.83976 
L 203.691058 155.376639 
L 203.807027 155.376639 
L 203.807027 154.913519 
L 204.144515 154.913519 
L 204.144515 153.987278 
L 204.734496 153.987278 
L 204.734496 153.524157 
L 205.255721 153.524157 
L 205.255721 153.061037 
L 205.550323 153.061037 
L 205.550323 152.597916 
L 205.679676 152.597916 
L 205.679676 152.134795 
L 206.257107 152.134795 
L 206.257107 151.208554 
L 206.374463 151.208554 
L 206.374463 150.745434 
L 206.903017 150.745434 
L 206.951342 149.356072 
L 207.942688 149.356072 
L 208.005459 147.966711 
L 208.507266 147.966711 
L 208.608944 147.04047 
L 208.719057 147.04047 
L 208.719057 146.577349 
L 209.220024 146.577349 
L 209.220024 145.651108 
L 209.848509 145.651108 
L 209.865413 143.798626 
L 210.039135 143.798626 
L 210.10592 142.409265 
L 210.246995 142.409265 
L 210.246995 141.946144 
L 210.513562 141.946144 
L 210.513562 141.019903 
L 210.650045 141.019903 
L 210.650045 140.093662 
L 211.369918 140.093662 
L 211.369918 139.630541 
L 211.558758 139.630541 
L 211.558758 138.7043 
L 211.724072 138.7043 
L 211.724072 138.24118 
L 211.956658 138.24118 
L 211.956658 137.778059 
L 212.339574 137.778059 
L 212.418808 136.388698 
L 212.583433 136.388698 
L 212.583433 135.462457 
L 212.826306 135.462457 
L 212.826306 134.999336 
L 212.996562 134.999336 
L 212.996562 134.536216 
L 213.152349 134.536216 
L 213.152349 133.609975 
L 213.65917 133.609975 
L 213.65917 132.683734 
L 213.982379 132.683734 
L 213.982379 132.220613 
L 214.411807 132.220613 
L 214.504857 130.831252 
L 214.563031 130.831252 
L 214.563031 129.905011 
L 215.329959 129.905011 
L 215.329959 128.97877 
L 215.84912 128.97877 
L 215.84912 128.515649 
L 216.126632 128.515649 
L 216.160031 127.126287 
L 216.811143 127.126287 
L 216.811143 126.663167 
L 217.06642 126.663167 
L 217.087836 125.273805 
L 217.179717 125.273805 
L 217.179717 124.347564 
L 217.543383 124.347564 
L 217.652732 123.421323 
L 217.725551 123.421323 
L 217.725551 122.958203 
L 218.037634 122.958203 
L 218.037634 122.031962 
L 218.289595 122.031962 
L 218.389197 120.6426 
L 218.715174 120.6426 
L 218.715174 120.17948 
L 219.493476 120.17948 
L 219.575159 118.790118 
L 219.657264 118.790118 
L 219.657264 117.863877 
L 219.877513 117.863877 
L 219.877513 117.400757 
L 219.996844 117.400757 
L 219.996844 116.937636 
L 220.265687 116.937636 
L 220.265687 116.011395 
L 220.503693 116.011395 
L 220.503693 115.548274 
L 221.113339 115.548274 
L 221.113339 115.085154 
L 221.344501 115.085154 
L 221.452062 113.695792 
L 221.609297 113.695792 
L 221.686671 112.769551 
L 222.049583 112.769551 
L 222.049583 112.306431 
L 222.730628 112.306431 
L 222.730628 111.84331 
L 222.912146 111.84331 
L 222.912146 111.38019 
L 223.054823 111.38019 
L 223.054823 110.917069 
L 224.089548 110.917069 
L 224.089548 110.453949 
L 224.384749 110.453949 
L 224.384749 109.527708 
L 224.793879 109.527708 
L 224.793879 109.064587 
L 226.191699 109.064587 
L 226.191699 108.601467 
L 227.215043 108.601467 
L 227.215043 108.138346 
L 227.424636 108.138346 
L 227.534376 106.748985 
L 227.576243 106.748985 
L 227.576243 105.822744 
L 228.471322 105.822744 
L 228.471322 104.896503 
L 229.167448 104.896503 
L 229.167448 103.970262 
L 229.595071 103.970262 
L 229.595071 103.04402 
L 231.033045 103.04402 
L 231.116915 101.654659 
L 232.326511 101.654659 
L 232.326511 100.728418 
L 233.475084 100.728418 
L 233.475084 99.802177 
L 236.566485 99.802177 
L 236.566485 98.875936 
L 241.48894 98.875936 
L 241.547632 97.023454 
L 241.634163 97.023454 
L 241.710065 95.170972 
L 242.829163 95.170972 
L 242.829163 94.707851 
L 244.757528 94.707851 
L 244.757528 94.244731 
L 245.458219 94.244731 
L 245.458219 93.31849 
L 247.574368 93.31849 
L 247.574368 92.392249 
L 249.179597 92.392249 
L 249.179597 91.929128 
L 251.596883 91.929128 
L 251.596883 91.466008 
L 253.349824 91.466008 
L 253.349824 91.002887 
L 253.645117 91.002887 
L 253.645117 90.539766 
L 256.227404 90.539766 
L 256.227404 90.076646 
L 338.688 90.076646 
L 338.688 90.076646 
" style="fill:none;stroke:#000080;stroke-linecap:square;stroke-width:1.5;"/>
   </g>
   <g id="line2d_36">
    <defs>
     <path d="M 0 6 
C 1.591219 6 3.117479 5.367802 4.242641 4.242641 
C 5.367802 3.117479 6 1.591219 6 0 
C 6 -1.591219 5.367802 -3.117479 4.242641 -4.242641 
C 3.117479 -5.367802 1.591219 -6 0 -6 
C -1.591219 -6 -3.117479 -5.367802 -4.242641 -4.242641 
C -5.367802 -3.117479 -6 -1.591219 -6 0 
C -6 1.591219 -5.367802 3.117479 -4.242641 4.242641 
C -3.117479 5.367802 -1.591219 6 0 6 
z
" id="mb385ba1fa0" style="stroke:#000080;stroke-width:1.5;"/>
    </defs>
    <g>
     <use style="fill-opacity:0;stroke:#000080;stroke-width:1.5;" x="109.401893" xlink:href="#mb385ba1fa0" y="256.800033"/>
     <use style="fill-opacity:0;stroke:#000080;stroke-width:1.5;" x="173.280304" xlink:href="#mb385ba1fa0" y="206.319896"/>
     <use style="fill-opacity:0;stroke:#000080;stroke-width:1.5;" x="214.563031" xlink:href="#mb385ba1fa0" y="130.831252"/>
     <use style="fill-opacity:0;stroke:#000080;stroke-width:1.5;" x="256.227404" xlink:href="#mb385ba1fa0" y="90.539766"/>
     <use style="fill-opacity:0;stroke:#000080;stroke-width:1.5;" x="256.227404" xlink:href="#mb385ba1fa0" y="90.076646"/>
     <use style="fill-opacity:0;stroke:#000080;stroke-width:1.5;" x="338.688" xlink:href="#mb385ba1fa0" y="90.076646"/>
    </g>
   </g>
   <g id="line2d_37">
    <path style="fill:none;stroke:#000080;stroke-linecap:square;stroke-width:1.5;"/>
    <g/>
   </g>
   <g id="line2d_38">
    <path clip-path="url(#p4dc5c9df91)" d="M 258.377579 90.076646 
" style="fill:none;stroke:#000080;stroke-linecap:square;stroke-width:1.5;"/>
    <defs>
     <path d="M -12 12 
L 12 -12 
M -12 -12 
L 12 12 
" id="mb20e4bfe6d" style="stroke:#000080;"/>
    </defs>
    <g clip-path="url(#p4dc5c9df91)">
     <use style="fill:#000080;stroke:#000080;" x="258.377579" xlink:href="#mb20e4bfe6d" y="90.076646"/>
    </g>
   </g>
   <g id="line2d_39">
    <defs>
     <path d="M 0 1.5 
C 0.397805 1.5 0.77937 1.341951 1.06066 1.06066 
C 1.341951 0.77937 1.5 0.397805 1.5 0 
C 1.5 -0.397805 1.341951 -0.77937 1.06066 -1.06066 
C 0.77937 -1.341951 0.397805 -1.5 0 -1.5 
C -0.397805 -1.5 -0.77937 -1.341951 -1.06066 -1.06066 
C -1.341951 -0.77937 -1.5 -0.397805 -1.5 0 
C -1.5 0.397805 -1.341951 0.77937 -1.06066 1.06066 
C -0.77937 1.341951 -0.397805 1.5 0 1.5 
z
" id="m1ae57851e0" style="stroke:#ff00ff;"/>
    </defs>
    <g>
     <use style="fill:#ff00ff;stroke:#ff00ff;" x="257.629231" xlink:href="#m1ae57851e0" y="94.707851"/>
     <use style="fill:#ff00ff;stroke:#ff00ff;" x="257.629231" xlink:href="#m1ae57851e0" y="94.707851"/>
    </g>
   </g>
   <g id="line2d_40">
    <path d="M 45.512012 298.944 
L 45.512012 287.829108 
L 140.574203 287.829108 
L 140.574203 287.365987 
L 141.378673 287.365987 
L 141.378673 285.050384 
L 141.80232 285.050384 
L 141.80232 284.587264 
L 142.752555 284.587264 
L 142.752555 283.197902 
L 145.553708 283.197902 
L 145.553708 282.271661 
L 145.832743 282.271661 
L 145.832743 280.8823 
L 145.998045 280.8823 
L 145.998045 279.956059 
L 147.266916 279.956059 
L 147.266916 279.029818 
L 148.40198 279.029818 
L 148.40198 278.566697 
L 149.104327 278.566697 
L 149.104327 277.640456 
L 149.241465 277.640456 
L 149.241465 276.714215 
L 149.998846 276.714215 
L 150.042389 274.398612 
L 150.129152 274.398612 
L 150.129152 273.935492 
L 150.429467 273.935492 
L 150.429467 272.54613 
L 150.598782 272.54613 
L 150.598782 271.619889 
L 150.724698 271.619889 
L 150.724698 271.156769 
L 150.849711 271.156769 
L 150.849711 270.693648 
L 151.381313 270.693648 
L 151.381313 267.914925 
L 153.250915 267.914925 
L 153.250915 266.062443 
L 153.395042 266.062443 
L 153.502361 264.673082 
L 154.098334 264.673082 
L 154.201424 262.8206 
L 154.337936 262.8206 
L 154.371897 260.968117 
L 154.674612 260.968117 
L 154.741174 260.041876 
L 155.167744 260.041876 
L 155.167744 257.263153 
L 155.296925 257.263153 
L 155.296925 255.873792 
L 155.584129 255.873792 
L 155.584129 254.947551 
L 155.86668 254.947551 
L 155.86668 253.558189 
L 156.327657 253.558189 
L 156.327657 252.631948 
L 157.156845 252.631948 
L 157.156845 250.779466 
L 157.415209 250.779466 
L 157.443681 249.390104 
L 157.557108 249.390104 
L 157.557108 248.463863 
L 157.781772 248.463863 
L 157.781772 248.000743 
L 157.94839 248.000743 
L 158.003578 245.22202 
L 158.222599 245.22202 
L 158.222599 244.295779 
L 158.385078 244.295779 
L 158.385078 243.369538 
L 158.784773 243.369538 
L 158.83738 241.517056 
L 158.968208 241.517056 
L 158.994256 240.127694 
L 159.303838 240.127694 
L 159.32939 238.738333 
L 159.431225 238.738333 
L 159.431225 237.812091 
L 159.956318 237.812091 
L 160.054568 235.496489 
L 160.079044 235.496489 
L 160.127894 234.570248 
L 160.249422 234.570248 
L 160.249422 232.717766 
L 160.466062 232.717766 
L 160.466062 231.791525 
L 160.961329 231.791525 
L 161.007772 229.939043 
L 161.64531 229.939043 
L 161.734513 225.770958 
L 161.84538 225.770958 
L 161.84538 224.844717 
L 162.043181 224.844717 
L 162.152109 222.992235 
L 162.324991 222.992235 
L 162.367945 221.602873 
L 162.496175 221.602873 
L 162.53871 219.750391 
L 162.68677 219.750391 
L 162.68677 217.897909 
L 162.999872 217.897909 
L 163.103002 216.971668 
L 163.449152 216.971668 
L 163.449152 216.508548 
L 163.609699 216.508548 
L 163.609699 216.045427 
L 164.024234 216.045427 
L 164.121498 213.729825 
L 164.314412 213.729825 
L 164.390984 211.877342 
L 164.429145 211.877342 
L 164.448194 210.02486 
L 164.543127 210.02486 
L 164.637547 207.709258 
L 164.806225 207.709258 
L 164.806225 207.246137 
L 165.102127 207.246137 
L 165.193576 205.856776 
L 165.266391 205.856776 
L 165.266391 205.393655 
L 165.429123 205.393655 
L 165.500963 203.078053 
L 166.047915 203.078053 
L 166.08262 200.299329 
L 166.237944 200.299329 
L 166.289413 199.373088 
L 166.527611 199.373088 
L 166.544502 198.446847 
L 166.729224 198.446847 
L 166.729224 197.057486 
L 167.06015 197.057486 
L 167.0929 193.815642 
L 167.43311 193.815642 
L 167.43311 193.352522 
L 167.672117 193.352522 
L 167.719528 192.426281 
L 168.01684 192.426281 
L 168.109685 190.573799 
L 168.155922 190.573799 
L 168.263336 189.184437 
L 168.476198 189.184437 
L 168.536542 187.331955 
L 168.596677 187.331955 
L 168.641643 186.405714 
L 169.431813 186.405714 
L 169.503198 183.626991 
L 169.729685 183.626991 
L 169.729685 183.16387 
L 169.925477 183.16387 
L 170.022555 181.774509 
L 170.077786 181.774509 
L 170.077786 181.311388 
L 170.620687 181.311388 
L 170.713981 179.922027 
L 170.885928 179.922027 
L 170.885928 179.458906 
L 171.340609 179.458906 
L 171.366236 178.532665 
L 171.658273 178.532665 
L 171.683438 177.606424 
L 171.920711 177.606424 
L 172.00732 176.217062 
L 172.409924 176.217062 
L 172.409924 175.290821 
L 172.756213 175.290821 
L 172.756213 174.36458 
L 173.107351 174.36458 
L 173.107351 173.438339 
L 173.485609 173.438339 
L 173.485609 172.512098 
L 173.789104 172.512098 
L 173.811376 171.122737 
L 174.087407 171.122737 
L 174.087407 170.196496 
L 174.315944 170.196496 
L 174.315944 169.733375 
L 174.647927 169.733375 
L 174.700886 168.344014 
L 174.869281 168.344014 
L 174.869281 167.880893 
L 175.025688 167.880893 
L 175.025688 167.417773 
L 175.797284 167.417773 
L 175.797284 166.954652 
L 176.053603 166.954652 
L 176.053603 166.491532 
L 176.392805 166.491532 
L 176.392805 165.565291 
L 176.517133 165.565291 
L 176.517133 165.10217 
L 176.922168 165.10217 
L 176.922168 164.63905 
L 177.390674 164.63905 
L 177.435935 162.786567 
L 178.092425 162.786567 
L 178.092425 162.323447 
L 178.590234 162.323447 
L 178.590234 161.860326 
L 178.74188 161.860326 
L 178.74188 161.397206 
L 179.497017 161.397206 
L 179.497017 160.934085 
L 179.641012 160.934085 
L 179.641012 160.007844 
L 179.917643 160.007844 
L 179.917643 159.544724 
L 180.220807 159.544724 
L 180.220807 158.618483 
L 181.584061 158.618483 
L 181.584061 157.692242 
L 182.364534 157.692242 
L 182.364534 157.229121 
L 183.189744 157.229121 
L 183.189744 156.766001 
L 183.827916 156.766001 
L 183.93412 155.83976 
L 184.790916 155.83976 
L 184.790916 155.376639 
L 185.287795 155.376639 
L 185.287795 154.913519 
L 185.647145 154.913519 
L 185.647145 154.450398 
L 186.104047 154.450398 
L 186.104047 153.987278 
L 186.910072 153.987278 
L 186.941551 153.061037 
L 187.780681 153.061037 
L 187.790669 152.134795 
L 192.614354 152.134795 
L 192.614354 151.671675 
L 193.118145 151.671675 
L 193.118145 151.208554 
L 194.360279 151.208554 
L 194.360279 150.745434 
L 195.580584 150.745434 
L 195.580584 149.819193 
L 196.290957 149.819193 
L 196.290957 148.892952 
L 198.183784 148.892952 
L 198.268861 145.651108 
L 198.372585 145.651108 
L 198.372585 144.724867 
L 199.786048 144.724867 
L 199.786048 144.261747 
L 200.645397 144.261747 
L 200.645397 143.798626 
L 201.225702 143.798626 
L 201.225702 142.872385 
L 202.60256 142.872385 
L 202.60256 142.409265 
L 203.026566 142.409265 
L 203.026566 141.946144 
L 204.398711 141.946144 
L 204.398711 141.483024 
L 204.948592 141.483024 
L 204.948592 141.019903 
L 206.161606 141.019903 
L 206.161606 140.093662 
L 207.365721 140.093662 
L 207.365721 139.630541 
L 208.371277 139.630541 
L 208.371277 139.167421 
L 208.829973 139.167421 
L 208.829973 138.7043 
L 209.173207 138.7043 
L 209.173207 138.24118 
L 209.924448 138.24118 
L 209.928657 136.851818 
L 211.372501 136.851818 
L 211.372501 136.388698 
L 212.058766 136.388698 
L 212.156577 134.536216 
L 212.317569 134.536216 
L 212.317569 134.073095 
L 212.573792 134.073095 
L 212.573792 133.146854 
L 212.847679 133.146854 
L 212.847679 132.220613 
L 213.303289 132.220613 
L 213.303289 131.757493 
L 215.647148 131.757493 
L 215.647148 130.831252 
L 218.411636 130.831252 
L 218.411636 130.368131 
L 218.687179 130.368131 
L 218.687179 129.905011 
L 218.959272 129.905011 
L 218.959272 129.44189 
L 219.15212 129.44189 
L 219.15212 128.515649 
L 221.065996 128.515649 
L 221.065996 128.052529 
L 221.297782 128.052529 
L 221.35179 125.736926 
L 221.682382 125.736926 
L 221.682382 125.273805 
L 223.174694 125.273805 
L 223.174694 124.810685 
L 223.386723 124.810685 
L 223.386723 124.347564 
L 223.520437 124.347564 
L 223.520437 123.421323 
L 224.546279 123.421323 
L 224.559622 122.495082 
L 225.411497 122.495082 
L 225.411497 122.031962 
L 225.684748 122.031962 
L 225.684748 121.105721 
L 227.031335 121.105721 
L 227.031335 120.6426 
L 228.320492 120.6426 
L 228.367828 119.716359 
L 228.59346 119.716359 
L 228.59346 118.790118 
L 228.838993 118.790118 
L 228.838993 117.863877 
L 229.037558 117.863877 
L 229.037558 117.400757 
L 229.30654 117.400757 
L 229.30654 116.937636 
L 230.430054 116.937636 
L 230.430054 116.474516 
L 230.689208 116.474516 
L 230.689208 116.011395 
L 231.33615 116.011395 
L 231.33615 115.085154 
L 231.613051 115.085154 
L 231.613051 114.158913 
L 232.977539 114.158913 
L 232.977539 113.232672 
L 233.099826 113.232672 
L 233.099826 112.769551 
L 233.845998 112.769551 
L 233.845998 112.306431 
L 236.364933 112.306431 
L 236.364933 111.84331 
L 236.485899 111.84331 
L 236.485899 111.38019 
L 236.615448 111.38019 
L 236.615448 110.917069 
L 237.208388 110.917069 
L 237.208388 110.453949 
L 237.489379 110.453949 
L 237.489379 109.990828 
L 238.969783 109.990828 
L 238.969783 109.527708 
L 239.548597 109.527708 
L 239.548597 108.601467 
L 240.453379 108.601467 
L 240.491355 107.675226 
L 241.631202 107.675226 
L 241.631202 107.212105 
L 242.180092 107.212105 
L 242.180092 106.748985 
L 242.352509 106.748985 
L 242.352509 106.285864 
L 243.826816 106.285864 
L 243.826816 105.822744 
L 244.643869 105.822744 
L 244.643869 105.359623 
L 246.289329 105.359623 
L 246.292642 103.970262 
L 247.094286 103.970262 
L 247.094286 103.04402 
L 247.342465 103.04402 
L 247.342465 102.5809 
L 248.111946 102.5809 
L 248.111946 101.654659 
L 249.870385 101.654659 
L 249.870385 100.728418 
L 251.238327 100.728418 
L 251.238327 100.265297 
L 253.312442 100.265297 
L 253.312442 99.802177 
L 253.972911 99.802177 
L 253.972911 99.339056 
L 255.067282 99.339056 
L 255.067282 98.412815 
L 255.32585 98.412815 
L 255.32585 97.486574 
L 257.483084 97.486574 
L 257.574991 95.170972 
L 257.629231 95.170972 
L 257.629231 94.707851 
L 338.688 94.707851 
L 338.688 94.707851 
" style="fill:none;stroke:#ff00ff;stroke-linecap:square;stroke-width:1.5;"/>
   </g>
   <g id="line2d_41">
    <defs>
     <path d="M 0 8.485281 
L 5.091169 0 
L 0 -8.485281 
L -5.091169 0 
z
" id="m67da235615" style="stroke:#ff00ff;stroke-linejoin:miter;stroke-width:1.5;"/>
    </defs>
    <g>
     <use style="fill-opacity:0;stroke:#ff00ff;stroke-linejoin:miter;stroke-width:1.5;" x="164.024234" xlink:href="#m67da235615" y="216.045427"/>
     <use style="fill-opacity:0;stroke:#ff00ff;stroke-linejoin:miter;stroke-width:1.5;" x="219.15212" xlink:href="#m67da235615" y="129.44189"/>
     <use style="fill-opacity:0;stroke:#ff00ff;stroke-linejoin:miter;stroke-width:1.5;" x="257.629231" xlink:href="#m67da235615" y="95.170972"/>
     <use style="fill-opacity:0;stroke:#ff00ff;stroke-linejoin:miter;stroke-width:1.5;" x="257.629231" xlink:href="#m67da235615" y="94.707851"/>
     <use style="fill-opacity:0;stroke:#ff00ff;stroke-linejoin:miter;stroke-width:1.5;" x="338.688" xlink:href="#m67da235615" y="94.707851"/>
    </g>
   </g>
   <g id="line2d_42">
    <path style="fill:none;stroke:#ff00ff;stroke-linecap:square;stroke-width:1.5;"/>
    <g/>
   </g>
   <g id="line2d_43">
    <path clip-path="url(#p4dc5c9df91)" d="M 258.387342 94.707851 
" style="fill:none;stroke:#ff00ff;stroke-linecap:square;stroke-width:1.5;"/>
    <defs>
     <path d="M -12 12 
L 12 -12 
M -12 -12 
L 12 12 
" id="m7780dc2b3e" style="stroke:#ff00ff;"/>
    </defs>
    <g clip-path="url(#p4dc5c9df91)">
     <use style="fill:#ff00ff;stroke:#ff00ff;" x="258.387342" xlink:href="#m7780dc2b3e" y="94.707851"/>
    </g>
   </g>
   <g id="line2d_44">
    <defs>
     <path d="M 0 1.5 
C 0.397805 1.5 0.77937 1.341951 1.06066 1.06066 
C 1.341951 0.77937 1.5 0.397805 1.5 0 
C 1.5 -0.397805 1.341951 -0.77937 1.06066 -1.06066 
C 0.77937 -1.341951 0.397805 -1.5 0 -1.5 
C -0.397805 -1.5 -0.77937 -1.341951 -1.06066 -1.06066 
C -1.341951 -0.77937 -1.5 -0.397805 -1.5 0 
C -1.5 0.397805 -1.341951 0.77937 -1.06066 1.06066 
C -0.77937 1.341951 -0.397805 1.5 0 1.5 
z
" id="me8c4a16355" style="stroke:#ff7500;"/>
    </defs>
    <g>
     <use style="fill:#ff7500;stroke:#ff7500;" x="257.062081" xlink:href="#me8c4a16355" y="127.126287"/>
     <use style="fill:#ff7500;stroke:#ff7500;" x="257.062081" xlink:href="#me8c4a16355" y="127.126287"/>
    </g>
   </g>
   <g id="line2d_45">
    <path d="M 141.017599 298.944 
L 141.017599 297.554638 
L 141.871938 297.554638 
L 141.871938 296.165277 
L 143.208936 296.165277 
L 143.208936 294.775915 
L 147.419225 294.775915 
L 147.419225 291.997192 
L 148.112924 291.997192 
L 148.112924 286.902867 
L 149.104327 286.902867 
L 149.104327 286.439746 
L 150.172372 286.439746 
L 150.172372 285.513505 
L 150.640855 285.513505 
L 150.640855 285.050384 
L 150.891184 285.050384 
L 150.891184 284.587264 
L 151.421542 284.587264 
L 151.421542 283.197902 
L 151.975216 283.197902 
L 151.975216 281.808541 
L 152.474064 281.808541 
L 152.474064 281.34542 
L 153.287059 281.34542 
L 153.287059 279.956059 
L 153.820412 279.956059 
L 153.820412 278.566697 
L 154.235652 278.566697 
L 154.303908 275.787974 
L 154.57429 275.787974 
L 154.57429 273.472371 
L 154.906477 273.472371 
L 154.906477 273.009251 
L 155.520713 273.009251 
L 155.520713 272.08301 
L 155.678822 272.08301 
L 155.678822 271.619889 
L 155.928852 271.619889 
L 155.928852 271.156769 
L 156.083319 271.156769 
L 156.083319 270.693648 
L 156.297301 270.693648 
L 156.38821 268.841166 
L 156.568618 268.841166 
L 156.568618 268.378046 
L 156.717545 268.378046 
L 156.776762 266.988684 
L 157.040776 266.988684 
L 157.040776 266.062443 
L 157.185742 266.062443 
L 157.185742 265.599323 
L 157.329512 265.599323 
L 157.329512 264.673082 
L 157.809652 264.673082 
L 157.809652 263.746841 
L 158.168101 263.746841 
L 158.168101 261.431238 
L 158.304027 261.431238 
L 158.385078 260.041876 
L 158.438903 260.041876 
L 158.438903 259.115635 
L 159.32939 259.115635 
L 159.32939 257.263153 
L 160.297798 257.263153 
L 160.297798 255.873792 
L 160.418152 255.873792 
L 160.418152 255.410671 
L 160.680044 255.410671 
L 160.680044 254.48443 
L 160.821253 254.48443 
L 160.821253 253.558189 
L 161.030947 253.558189 
L 161.077205 251.705707 
L 161.999419 251.705707 
L 162.10862 250.779466 
L 162.130378 250.779466 
L 162.152109 248.463863 
L 162.367945 248.463863 
L 162.367945 248.000743 
L 162.854457 248.000743 
L 162.854457 247.074502 
L 162.979172 247.074502 
L 162.999872 245.22202 
L 163.185069 245.22202 
L 163.246367 242.906417 
L 163.327764 242.906417 
L 163.327764 241.980176 
L 163.569701 241.980176 
L 163.569701 241.053935 
L 163.709295 241.053935 
L 163.808326 239.664574 
L 163.985177 239.664574 
L 163.985177 238.738333 
L 164.333587 238.738333 
L 164.333587 238.275212 
L 164.618704 238.275212 
L 164.618704 237.348971 
L 164.880672 237.348971 
L 164.880672 236.42273 
L 165.065412 236.42273 
L 165.065412 235.496489 
L 165.59035 235.496489 
L 165.697012 234.107127 
L 165.7501 234.107127 
L 165.785402 233.180886 
L 165.943384 233.180886 
L 166.030537 230.865284 
L 166.117256 230.865284 
L 166.117256 230.402163 
L 166.779265 230.402163 
L 166.779265 227.16032 
L 166.895472 227.16032 
L 166.895472 226.697199 
L 167.06015 226.697199 
L 167.06015 226.234079 
L 167.255733 226.234079 
L 167.336582 224.844717 
L 167.449146 224.844717 
L 167.529106 222.065994 
L 167.735303 222.065994 
L 167.782543 221.139753 
L 168.339657 221.139753 
L 168.445948 219.287271 
L 168.46108 219.287271 
L 168.566635 216.971668 
L 168.686493 216.971668 
L 168.790698 214.656066 
L 168.938489 214.656066 
L 168.938489 213.729825 
L 169.186895 213.729825 
L 169.186895 213.266704 
L 169.345764 213.266704 
L 169.360135 211.877342 
L 169.545889 211.877342 
L 169.545889 211.414222 
L 169.799863 211.414222 
L 169.827856 209.56174 
L 170.256089 209.56174 
L 170.364915 208.172378 
L 170.446091 208.172378 
L 170.526891 204.467414 
L 170.899085 204.467414 
L 170.899085 203.078053 
L 171.069226 203.078053 
L 171.134225 201.225571 
L 171.237722 201.225571 
L 171.302098 197.983727 
L 171.366236 197.983727 
L 171.442893 196.131245 
L 171.481095 196.131245 
L 171.519214 194.741883 
L 171.620458 194.741883 
L 171.708567 193.815642 
L 171.758716 193.815642 
L 171.758716 193.352522 
L 172.118046 193.352522 
L 172.118046 192.889401 
L 172.373705 192.889401 
L 172.470121 191.50004 
L 172.542086 191.50004 
L 172.542086 190.573799 
L 172.827009 190.573799 
L 172.827009 190.110678 
L 173.15364 190.110678 
L 173.211329 188.258196 
L 173.632396 188.258196 
L 173.632396 187.795075 
L 173.944417 187.795075 
L 173.966492 186.868834 
L 174.380694 186.868834 
L 174.380694 186.405714 
L 174.84832 186.405714 
L 174.84832 185.942593 
L 175.516968 185.942593 
L 175.516968 185.016352 
L 175.687696 185.016352 
L 175.687696 184.090111 
L 175.896315 184.090111 
L 175.896315 183.626991 
L 176.170646 183.626991 
L 176.170646 182.70075 
L 176.706692 182.70075 
L 176.706692 181.774509 
L 176.959372 181.774509 
L 176.959372 180.848268 
L 177.107399 180.848268 
L 177.116609 179.458906 
L 177.408792 179.458906 
L 177.408792 178.532665 
L 177.740637 178.532665 
L 177.740637 178.069545 
L 178.022633 178.069545 
L 178.022633 177.606424 
L 178.248444 177.606424 
L 178.31734 176.217062 
L 178.6156 176.217062 
L 178.683063 174.827701 
L 179.13174 174.827701 
L 179.13174 173.90146 
L 179.432635 173.90146 
L 179.505048 172.512098 
L 179.995881 172.512098 
L 179.995881 172.048978 
L 180.616999 172.048978 
L 180.616999 171.122737 
L 180.729632 171.122737 
L 180.729632 170.659616 
L 181.026478 170.659616 
L 181.026478 170.196496 
L 181.655184 170.196496 
L 181.655184 169.733375 
L 182.722034 169.733375 
L 182.722034 168.807134 
L 183.10504 168.807134 
L 183.10504 168.344014 
L 183.498982 168.344014 
L 183.498982 167.880893 
L 185.166347 167.880893 
L 185.247406 166.028411 
L 185.590598 166.028411 
L 185.590598 165.565291 
L 185.993706 165.565291 
L 185.993706 165.10217 
L 186.543922 165.10217 
L 186.543922 164.63905 
L 187.880306 164.63905 
L 187.880306 164.175929 
L 188.898067 164.175929 
L 188.898067 163.712808 
L 189.970194 163.712808 
L 190.07124 162.786567 
L 191.609087 162.786567 
L 191.609087 162.323447 
L 192.443137 162.323447 
L 192.443137 161.397206 
L 192.98151 161.397206 
L 192.98151 160.470965 
L 193.380999 160.470965 
L 193.380999 160.007844 
L 194.212356 160.007844 
L 194.212356 159.544724 
L 195.542213 159.544724 
L 195.542213 159.081603 
L 196.115283 159.081603 
L 196.115283 158.618483 
L 196.425364 158.618483 
L 196.425364 157.229121 
L 196.625053 157.229121 
L 196.625053 156.766001 
L 197.047087 156.766001 
L 197.126191 155.376639 
L 198.391625 155.376639 
L 198.391625 154.450398 
L 198.770784 154.450398 
L 198.770784 153.061037 
L 199.026919 153.061037 
L 199.026919 152.597916 
L 199.556165 152.597916 
L 199.556165 152.134795 
L 200.258915 152.134795 
L 200.258915 151.671675 
L 201.191007 151.671675 
L 201.191007 151.208554 
L 202.850622 151.208554 
L 202.850622 150.282313 
L 203.523749 150.282313 
L 203.523749 149.819193 
L 204.935522 149.819193 
L 205.021237 148.892952 
L 207.159762 148.892952 
L 207.159762 148.429831 
L 207.753009 148.429831 
L 207.854428 147.04047 
L 209.155619 147.04047 
L 209.155619 146.577349 
L 209.614402 146.577349 
L 209.614402 146.114229 
L 210.238728 146.114229 
L 210.238728 145.187988 
L 213.491861 145.187988 
L 213.491861 144.261747 
L 214.42482 144.261747 
L 214.533968 141.483024 
L 214.569483 141.483024 
L 214.569483 141.019903 
L 214.809719 141.019903 
L 214.809719 140.093662 
L 218.356348 140.093662 
L 218.356348 139.630541 
L 219.29537 139.630541 
L 219.29537 139.167421 
L 220.511342 139.167421 
L 220.511342 138.7043 
L 220.866339 138.7043 
L 220.866339 137.778059 
L 221.44409 137.778059 
L 221.44409 137.314939 
L 224.521385 137.314939 
L 224.521385 136.388698 
L 224.689484 136.388698 
L 224.689484 135.925577 
L 226.206599 135.925577 
L 226.206599 135.462457 
L 229.964499 135.462457 
L 229.964499 134.536216 
L 233.268791 134.536216 
L 233.317292 133.609975 
L 234.16765 133.609975 
L 234.16765 133.146854 
L 235.443883 133.146854 
L 235.443883 132.683734 
L 238.867326 132.683734 
L 238.867326 131.757493 
L 247.78467 131.757493 
L 247.78467 130.831252 
L 248.262411 130.831252 
L 248.262411 129.905011 
L 250.288546 129.905011 
L 250.288546 129.44189 
L 252.85414 129.44189 
L 252.85414 128.515649 
L 256.623432 128.515649 
L 256.623432 127.589408 
L 257.062081 127.589408 
L 257.062081 127.126287 
L 338.688 127.126287 
L 338.688 127.126287 
" style="fill:none;stroke:#ff7500;stroke-linecap:square;stroke-width:1.5;"/>
   </g>
   <g id="line2d_46">
    <defs>
     <path d="M 0 -6 
L -1.347084 -1.854102 
L -5.706339 -1.854102 
L -2.179628 0.708204 
L -3.526712 4.854102 
L -0 2.291796 
L 3.526712 4.854102 
L 2.179628 0.708204 
L 5.706339 -1.854102 
L 1.347084 -1.854102 
z
" id="m9e66e984da" style="stroke:#ff7500;stroke-linejoin:bevel;stroke-width:1.5;"/>
    </defs>
    <g>
     <use style="fill-opacity:0;stroke:#ff7500;stroke-linejoin:bevel;stroke-width:1.5;" x="172.542086" xlink:href="#m9e66e984da" y="191.50004"/>
     <use style="fill-opacity:0;stroke:#ff7500;stroke-linejoin:bevel;stroke-width:1.5;" x="248.262411" xlink:href="#m9e66e984da" y="130.831252"/>
     <use style="fill-opacity:0;stroke:#ff7500;stroke-linejoin:bevel;stroke-width:1.5;" x="257.062081" xlink:href="#m9e66e984da" y="127.126287"/>
     <use style="fill-opacity:0;stroke:#ff7500;stroke-linejoin:bevel;stroke-width:1.5;" x="257.062081" xlink:href="#m9e66e984da" y="127.126287"/>
     <use style="fill-opacity:0;stroke:#ff7500;stroke-linejoin:bevel;stroke-width:1.5;" x="338.688" xlink:href="#m9e66e984da" y="127.126287"/>
    </g>
   </g>
   <g id="line2d_47">
    <path style="fill:none;stroke:#ff7500;stroke-linecap:square;stroke-width:1.5;"/>
    <g/>
   </g>
   <g id="line2d_48">
    <path clip-path="url(#p4dc5c9df91)" d="M 258.37723 127.126287 
" style="fill:none;stroke:#ff7500;stroke-linecap:square;stroke-width:1.5;"/>
    <defs>
     <path d="M -12 12 
L 12 -12 
M -12 -12 
L 12 12 
" id="m5bbd4edd9b" style="stroke:#ff7500;"/>
    </defs>
    <g clip-path="url(#p4dc5c9df91)">
     <use style="fill:#ff7500;stroke:#ff7500;" x="258.37723" xlink:href="#m5bbd4edd9b" y="127.126287"/>
    </g>
   </g>
   <g id="line2d_49">
    <path d="M 338.688 127.126287 
L 369.60768 293.571802 
" style="fill:none;stroke:#ff7500;stroke-linecap:square;stroke-width:1.5;"/>
    <g>
     <use style="fill-opacity:0;stroke:#ff7500;stroke-linejoin:bevel;stroke-width:1.5;" x="338.688" xlink:href="#m9e66e984da" y="127.126287"/>
     <use style="fill-opacity:0;stroke:#ff7500;stroke-linejoin:bevel;stroke-width:1.5;" x="369.60768" xlink:href="#m9e66e984da" y="293.571802"/>
    </g>
   </g>
   <g id="line2d_50">
    <path d="M 338.688 94.707851 
L 369.60768 207.616634 
" style="fill:none;stroke:#ff00ff;stroke-linecap:square;stroke-width:1.5;"/>
    <g>
     <use style="fill-opacity:0;stroke:#ff00ff;stroke-linejoin:miter;stroke-width:1.5;" x="338.688" xlink:href="#m67da235615" y="94.707851"/>
     <use style="fill-opacity:0;stroke:#ff00ff;stroke-linejoin:miter;stroke-width:1.5;" x="369.60768" xlink:href="#m67da235615" y="207.616634"/>
    </g>
   </g>
   <g id="line2d_51">
    <path d="M 338.688 90.076646 
L 369.60768 121.661465 
" style="fill:none;stroke:#000080;stroke-linecap:square;stroke-width:1.5;"/>
    <g>
     <use style="fill-opacity:0;stroke:#000080;stroke-width:1.5;" x="338.688" xlink:href="#mb385ba1fa0" y="90.076646"/>
     <use style="fill-opacity:0;stroke:#000080;stroke-width:1.5;" x="369.60768" xlink:href="#mb385ba1fa0" y="121.661465"/>
    </g>
   </g>
   <g id="line2d_52">
    <path d="M 338.688 298.944 
L 338.688 30.334099 
" style="fill:none;stroke:#000000;stroke-linecap:square;stroke-width:1.5;"/>
   </g>
   <g id="patch_3">
    <path d="M 57.6 298.944 
L 57.6 27.648 
" style="fill:none;stroke:#000000;stroke-linecap:square;stroke-linejoin:miter;stroke-width:0.8;"/>
   </g>
   <g id="patch_4">
    <path d="M 338.688 298.944 
L 338.688 27.648 
" style="fill:none;stroke:#000000;stroke-linecap:square;stroke-linejoin:miter;stroke-width:0.8;"/>
   </g>
   <g id="patch_5">
    <path d="M 57.6 298.944 
L 338.688 298.944 
" style="fill:none;stroke:#000000;stroke-linecap:square;stroke-linejoin:miter;stroke-width:0.8;"/>
   </g>
   <g id="patch_6">
    <path d="M 57.6 27.648 
L 338.688 27.648 
" style="fill:none;stroke:#000000;stroke-linecap:square;stroke-linejoin:miter;stroke-width:0.8;"/>
   </g>
   <g id="text_13">
    <!-- SMS-EMOA- -->
    <g transform="translate(375.22944 298.262739)scale(0.17 -0.17)">
     <defs>
      <path d="M 53.515625 70.515625 
L 53.515625 60.890625 
Q 47.90625 63.578125 42.921875 64.890625 
Q 37.9375 66.21875 33.296875 66.21875 
Q 25.25 66.21875 20.875 63.09375 
Q 16.5 59.96875 16.5 54.203125 
Q 16.5 49.359375 19.40625 46.890625 
Q 22.3125 44.4375 30.421875 42.921875 
L 36.375 41.703125 
Q 47.40625 39.59375 52.65625 34.296875 
Q 57.90625 29 57.90625 20.125 
Q 57.90625 9.515625 50.796875 4.046875 
Q 43.703125 -1.421875 29.984375 -1.421875 
Q 24.8125 -1.421875 18.96875 -0.25 
Q 13.140625 0.921875 6.890625 3.21875 
L 6.890625 13.375 
Q 12.890625 10.015625 18.65625 8.296875 
Q 24.421875 6.59375 29.984375 6.59375 
Q 38.421875 6.59375 43.015625 9.90625 
Q 47.609375 13.234375 47.609375 19.390625 
Q 47.609375 24.75 44.3125 27.78125 
Q 41.015625 30.8125 33.5 32.328125 
L 27.484375 33.5 
Q 16.453125 35.6875 11.515625 40.375 
Q 6.59375 45.0625 6.59375 53.421875 
Q 6.59375 63.09375 13.40625 68.65625 
Q 20.21875 74.21875 32.171875 74.21875 
Q 37.3125 74.21875 42.625 73.28125 
Q 47.953125 72.359375 53.515625 70.515625 
z
" id="DejaVuSans-83"/>
      <path d="M 9.8125 72.90625 
L 24.515625 72.90625 
L 43.109375 23.296875 
L 61.8125 72.90625 
L 76.515625 72.90625 
L 76.515625 0 
L 66.890625 0 
L 66.890625 64.015625 
L 48.09375 14.015625 
L 38.1875 14.015625 
L 19.390625 64.015625 
L 19.390625 0 
L 9.8125 0 
z
" id="DejaVuSans-77"/>
      <path d="M 9.8125 72.90625 
L 55.90625 72.90625 
L 55.90625 64.59375 
L 19.671875 64.59375 
L 19.671875 43.015625 
L 54.390625 43.015625 
L 54.390625 34.71875 
L 19.671875 34.71875 
L 19.671875 8.296875 
L 56.78125 8.296875 
L 56.78125 0 
L 9.8125 0 
z
" id="DejaVuSans-69"/>
      <path d="M 39.40625 66.21875 
Q 28.65625 66.21875 22.328125 58.203125 
Q 16.015625 50.203125 16.015625 36.375 
Q 16.015625 22.609375 22.328125 14.59375 
Q 28.65625 6.59375 39.40625 6.59375 
Q 50.140625 6.59375 56.421875 14.59375 
Q 62.703125 22.609375 62.703125 36.375 
Q 62.703125 50.203125 56.421875 58.203125 
Q 50.140625 66.21875 39.40625 66.21875 
z
M 39.40625 74.21875 
Q 54.734375 74.21875 63.90625 63.9375 
Q 73.09375 53.65625 73.09375 36.375 
Q 73.09375 19.140625 63.90625 8.859375 
Q 54.734375 -1.421875 39.40625 -1.421875 
Q 24.03125 -1.421875 14.8125 8.828125 
Q 5.609375 19.09375 5.609375 36.375 
Q 5.609375 53.65625 14.8125 63.9375 
Q 24.03125 74.21875 39.40625 74.21875 
z
" id="DejaVuSans-79"/>
      <path d="M 34.1875 63.1875 
L 20.796875 26.90625 
L 47.609375 26.90625 
z
M 28.609375 72.90625 
L 39.796875 72.90625 
L 67.578125 0 
L 57.328125 0 
L 50.6875 18.703125 
L 17.828125 18.703125 
L 11.1875 0 
L 0.78125 0 
z
" id="DejaVuSans-65"/>
     </defs>
     <use xlink:href="#DejaVuSans-83"/>
     <use x="63.476562" xlink:href="#DejaVuSans-77"/>
     <use x="149.755859" xlink:href="#DejaVuSans-83"/>
     <use x="213.232422" xlink:href="#DejaVuSans-45"/>
     <use x="249.316406" xlink:href="#DejaVuSans-69"/>
     <use x="312.5" xlink:href="#DejaVuSans-77"/>
     <use x="398.779297" xlink:href="#DejaVuSans-79"/>
     <use x="475.740234" xlink:href="#DejaVuSans-65"/>
     <use x="541.898438" xlink:href="#DejaVuSans-45"/>
    </g>
   </g>
   <g id="text_14">
    <!-- NSGA-II-M -->
    <g transform="translate(375.22944 212.307571)scale(0.17 -0.17)">
     <defs>
      <path d="M 9.8125 72.90625 
L 23.09375 72.90625 
L 55.421875 11.921875 
L 55.421875 72.90625 
L 64.984375 72.90625 
L 64.984375 0 
L 51.703125 0 
L 19.390625 60.984375 
L 19.390625 0 
L 9.8125 0 
z
" id="DejaVuSans-78"/>
      <path d="M 59.515625 10.40625 
L 59.515625 29.984375 
L 43.40625 29.984375 
L 43.40625 38.09375 
L 69.28125 38.09375 
L 69.28125 6.78125 
Q 63.578125 2.734375 56.6875 0.65625 
Q 49.8125 -1.421875 42 -1.421875 
Q 24.90625 -1.421875 15.25 8.5625 
Q 5.609375 18.5625 5.609375 36.375 
Q 5.609375 54.25 15.25 64.234375 
Q 24.90625 74.21875 42 74.21875 
Q 49.125 74.21875 55.546875 72.453125 
Q 61.96875 70.703125 67.390625 67.28125 
L 67.390625 56.78125 
Q 61.921875 61.421875 55.765625 63.765625 
Q 49.609375 66.109375 42.828125 66.109375 
Q 29.4375 66.109375 22.71875 58.640625 
Q 16.015625 51.171875 16.015625 36.375 
Q 16.015625 21.625 22.71875 14.15625 
Q 29.4375 6.6875 42.828125 6.6875 
Q 48.046875 6.6875 52.140625 7.59375 
Q 56.25 8.5 59.515625 10.40625 
z
" id="DejaVuSans-71"/>
      <path d="M 9.8125 72.90625 
L 19.671875 72.90625 
L 19.671875 0 
L 9.8125 0 
z
" id="DejaVuSans-73"/>
     </defs>
     <use xlink:href="#DejaVuSans-78"/>
     <use x="74.804688" xlink:href="#DejaVuSans-83"/>
     <use x="138.28125" xlink:href="#DejaVuSans-71"/>
     <use x="215.771484" xlink:href="#DejaVuSans-65"/>
     <use x="281.929688" xlink:href="#DejaVuSans-45"/>
     <use x="318.013672" xlink:href="#DejaVuSans-73"/>
     <use x="347.505859" xlink:href="#DejaVuSans-73"/>
     <use x="376.998047" xlink:href="#DejaVuSans-45"/>
     <use x="413.082031" xlink:href="#DejaVuSans-77"/>
    </g>
   </g>
   <g id="text_15">
    <!-- COMO-100  -->
    <g transform="translate(375.22944 126.352403)scale(0.17 -0.17)">
     <defs>
      <path d="M 64.40625 67.28125 
L 64.40625 56.890625 
Q 59.421875 61.53125 53.78125 63.8125 
Q 48.140625 66.109375 41.796875 66.109375 
Q 29.296875 66.109375 22.65625 58.46875 
Q 16.015625 50.828125 16.015625 36.375 
Q 16.015625 21.96875 22.65625 14.328125 
Q 29.296875 6.6875 41.796875 6.6875 
Q 48.140625 6.6875 53.78125 8.984375 
Q 59.421875 11.28125 64.40625 15.921875 
L 64.40625 5.609375 
Q 59.234375 2.09375 53.4375 0.328125 
Q 47.65625 -1.421875 41.21875 -1.421875 
Q 24.65625 -1.421875 15.125 8.703125 
Q 5.609375 18.84375 5.609375 36.375 
Q 5.609375 53.953125 15.125 64.078125 
Q 24.65625 74.21875 41.21875 74.21875 
Q 47.75 74.21875 53.53125 72.484375 
Q 59.328125 70.75 64.40625 67.28125 
z
" id="DejaVuSans-67"/>
     </defs>
     <use xlink:href="#DejaVuSans-67"/>
     <use x="69.824219" xlink:href="#DejaVuSans-79"/>
     <use x="148.535156" xlink:href="#DejaVuSans-77"/>
     <use x="234.814453" xlink:href="#DejaVuSans-79"/>
     <use x="316.275391" xlink:href="#DejaVuSans-45"/>
     <use x="352.359375" xlink:href="#DejaVuSans-49"/>
     <use x="415.982422" xlink:href="#DejaVuSans-48"/>
     <use x="479.605469" xlink:href="#DejaVuSans-48"/>
     <use x="543.228516" xlink:href="#DejaVuSans-32"/>
    </g>
   </g>
   <g id="text_16">
    <!-- best 2016 -->
    <g transform="translate(375.22944 40.397235)scale(0.17 -0.17)">
     <defs>
      <path d="M 48.6875 27.296875 
Q 48.6875 37.203125 44.609375 42.84375 
Q 40.53125 48.484375 33.40625 48.484375 
Q 26.265625 48.484375 22.1875 42.84375 
Q 18.109375 37.203125 18.109375 27.296875 
Q 18.109375 17.390625 22.1875 11.75 
Q 26.265625 6.109375 33.40625 6.109375 
Q 40.53125 6.109375 44.609375 11.75 
Q 48.6875 17.390625 48.6875 27.296875 
z
M 18.109375 46.390625 
Q 20.953125 51.265625 25.265625 53.625 
Q 29.59375 56 35.59375 56 
Q 45.5625 56 51.78125 48.09375 
Q 58.015625 40.1875 58.015625 27.296875 
Q 58.015625 14.40625 51.78125 6.484375 
Q 45.5625 -1.421875 35.59375 -1.421875 
Q 29.59375 -1.421875 25.265625 0.953125 
Q 20.953125 3.328125 18.109375 8.203125 
L 18.109375 0 
L 9.078125 0 
L 9.078125 75.984375 
L 18.109375 75.984375 
z
" id="DejaVuSans-98"/>
     </defs>
     <use xlink:href="#DejaVuSans-98"/>
     <use x="63.476562" xlink:href="#DejaVuSans-101"/>
     <use x="125" xlink:href="#DejaVuSans-115"/>
     <use x="177.099609" xlink:href="#DejaVuSans-116"/>
     <use x="216.308594" xlink:href="#DejaVuSans-32"/>
     <use x="248.095703" xlink:href="#DejaVuSans-50"/>
     <use x="311.71875" xlink:href="#DejaVuSans-48"/>
     <use x="375.341797" xlink:href="#DejaVuSans-49"/>
     <use x="438.964844" xlink:href="#DejaVuSans-54"/>
    </g>
   </g>
   <g id="text_17">
    <!-- bbob-biobj f44, 2-D -->
    <g transform="translate(60.41088 38.111366)scale(0.102 -0.102)">
     <defs>
      <path d="M 9.421875 54.6875 
L 18.40625 54.6875 
L 18.40625 -0.984375 
Q 18.40625 -11.421875 14.421875 -16.109375 
Q 10.453125 -20.796875 1.609375 -20.796875 
L -1.8125 -20.796875 
L -1.8125 -13.1875 
L 0.59375 -13.1875 
Q 5.71875 -13.1875 7.5625 -10.8125 
Q 9.421875 -8.453125 9.421875 -0.984375 
z
M 9.421875 75.984375 
L 18.40625 75.984375 
L 18.40625 64.59375 
L 9.421875 64.59375 
z
" id="DejaVuSans-106"/>
      <path d="M 19.671875 64.796875 
L 19.671875 8.109375 
L 31.59375 8.109375 
Q 46.6875 8.109375 53.6875 14.9375 
Q 60.6875 21.78125 60.6875 36.53125 
Q 60.6875 51.171875 53.6875 57.984375 
Q 46.6875 64.796875 31.59375 64.796875 
z
M 9.8125 72.90625 
L 30.078125 72.90625 
Q 51.265625 72.90625 61.171875 64.09375 
Q 71.09375 55.28125 71.09375 36.53125 
Q 71.09375 17.671875 61.125 8.828125 
Q 51.171875 0 30.078125 0 
L 9.8125 0 
z
" id="DejaVuSans-68"/>
     </defs>
     <use xlink:href="#DejaVuSans-98"/>
     <use x="63.476562" xlink:href="#DejaVuSans-98"/>
     <use x="126.953125" xlink:href="#DejaVuSans-111"/>
     <use x="188.134766" xlink:href="#DejaVuSans-98"/>
     <use x="251.611328" xlink:href="#DejaVuSans-45"/>
     <use x="287.695312" xlink:href="#DejaVuSans-98"/>
     <use x="351.171875" xlink:href="#DejaVuSans-105"/>
     <use x="378.955078" xlink:href="#DejaVuSans-111"/>
     <use x="440.136719" xlink:href="#DejaVuSans-98"/>
     <use x="503.613281" xlink:href="#DejaVuSans-106"/>
     <use x="531.396484" xlink:href="#DejaVuSans-32"/>
     <use x="563.183594" xlink:href="#DejaVuSans-102"/>
     <use x="598.388672" xlink:href="#DejaVuSans-52"/>
     <use x="662.011719" xlink:href="#DejaVuSans-52"/>
     <use x="725.634766" xlink:href="#DejaVuSans-44"/>
     <use x="757.421875" xlink:href="#DejaVuSans-32"/>
     <use x="789.208984" xlink:href="#DejaVuSans-50"/>
     <use x="852.832031" xlink:href="#DejaVuSans-45"/>
     <use x="888.916016" xlink:href="#DejaVuSans-68"/>
    </g>
    <!-- 58 targets: 1..-1.0e-4 -->
    <g transform="translate(60.41088 49.533135)scale(0.102 -0.102)">
     <defs>
      <path d="M 10.796875 72.90625 
L 49.515625 72.90625 
L 49.515625 64.59375 
L 19.828125 64.59375 
L 19.828125 46.734375 
Q 21.96875 47.46875 24.109375 47.828125 
Q 26.265625 48.1875 28.421875 48.1875 
Q 40.625 48.1875 47.75 41.5 
Q 54.890625 34.8125 54.890625 23.390625 
Q 54.890625 11.625 47.5625 5.09375 
Q 40.234375 -1.421875 26.90625 -1.421875 
Q 22.3125 -1.421875 17.546875 -0.640625 
Q 12.796875 0.140625 7.71875 1.703125 
L 7.71875 11.625 
Q 12.109375 9.234375 16.796875 8.0625 
Q 21.484375 6.890625 26.703125 6.890625 
Q 35.15625 6.890625 40.078125 11.328125 
Q 45.015625 15.765625 45.015625 23.390625 
Q 45.015625 31 40.078125 35.4375 
Q 35.15625 39.890625 26.703125 39.890625 
Q 22.75 39.890625 18.8125 39.015625 
Q 14.890625 38.140625 10.796875 36.28125 
z
" id="DejaVuSans-53"/>
      <path d="M 11.71875 12.40625 
L 22.015625 12.40625 
L 22.015625 0 
L 11.71875 0 
z
M 11.71875 51.703125 
L 22.015625 51.703125 
L 22.015625 39.3125 
L 11.71875 39.3125 
z
" id="DejaVuSans-58"/>
     </defs>
     <use xlink:href="#DejaVuSans-53"/>
     <use x="63.623047" xlink:href="#DejaVuSans-56"/>
     <use x="127.246094" xlink:href="#DejaVuSans-32"/>
     <use x="159.033203" xlink:href="#DejaVuSans-116"/>
     <use x="198.242188" xlink:href="#DejaVuSans-97"/>
     <use x="259.521484" xlink:href="#DejaVuSans-114"/>
     <use x="298.884766" xlink:href="#DejaVuSans-103"/>
     <use x="362.361328" xlink:href="#DejaVuSans-101"/>
     <use x="423.884766" xlink:href="#DejaVuSans-116"/>
     <use x="463.09375" xlink:href="#DejaVuSans-115"/>
     <use x="515.193359" xlink:href="#DejaVuSans-58"/>
     <use x="548.884766" xlink:href="#DejaVuSans-32"/>
     <use x="580.671875" xlink:href="#DejaVuSans-49"/>
     <use x="644.294922" xlink:href="#DejaVuSans-46"/>
     <use x="676.082031" xlink:href="#DejaVuSans-46"/>
     <use x="707.869141" xlink:href="#DejaVuSans-45"/>
     <use x="743.953125" xlink:href="#DejaVuSans-49"/>
     <use x="807.576172" xlink:href="#DejaVuSans-46"/>
     <use x="839.363281" xlink:href="#DejaVuSans-48"/>
     <use x="902.986328" xlink:href="#DejaVuSans-101"/>
     <use x="964.509766" xlink:href="#DejaVuSans-45"/>
     <use x="1000.59375" xlink:href="#DejaVuSans-52"/>
    </g>
    <!-- 10 instances -->
    <g transform="translate(60.41088 60.954904)scale(0.102 -0.102)">
     <use xlink:href="#DejaVuSans-49"/>
     <use x="63.623047" xlink:href="#DejaVuSans-48"/>
     <use x="127.246094" xlink:href="#DejaVuSans-32"/>
     <use x="159.033203" xlink:href="#DejaVuSans-105"/>
     <use x="186.816406" xlink:href="#DejaVuSans-110"/>
     <use x="250.195312" xlink:href="#DejaVuSans-115"/>
     <use x="302.294922" xlink:href="#DejaVuSans-116"/>
     <use x="341.503906" xlink:href="#DejaVuSans-97"/>
     <use x="402.783203" xlink:href="#DejaVuSans-110"/>
     <use x="466.162109" xlink:href="#DejaVuSans-99"/>
     <use x="521.142578" xlink:href="#DejaVuSans-101"/>
     <use x="582.666016" xlink:href="#DejaVuSans-115"/>
    </g>
   </g>
   <g id="text_18">
    <!-- v2.4.19, hv-hash=ff0e71e8cd978373 -->
    <g style="fill:#808080;" transform="translate(104.697125 294.151352)scale(0.1 -0.1)">
     <defs>
      <path d="M 10.984375 1.515625 
L 10.984375 10.5 
Q 14.703125 8.734375 18.5 7.8125 
Q 22.3125 6.890625 25.984375 6.890625 
Q 35.75 6.890625 40.890625 13.453125 
Q 46.046875 20.015625 46.78125 33.40625 
Q 43.953125 29.203125 39.59375 26.953125 
Q 35.25 24.703125 29.984375 24.703125 
Q 19.046875 24.703125 12.671875 31.3125 
Q 6.296875 37.9375 6.296875 49.421875 
Q 6.296875 60.640625 12.9375 67.421875 
Q 19.578125 74.21875 30.609375 74.21875 
Q 43.265625 74.21875 49.921875 64.515625 
Q 56.59375 54.828125 56.59375 36.375 
Q 56.59375 19.140625 48.40625 8.859375 
Q 40.234375 -1.421875 26.421875 -1.421875 
Q 22.703125 -1.421875 18.890625 -0.6875 
Q 15.09375 0.046875 10.984375 1.515625 
z
M 30.609375 32.421875 
Q 37.25 32.421875 41.125 36.953125 
Q 45.015625 41.5 45.015625 49.421875 
Q 45.015625 57.28125 41.125 61.84375 
Q 37.25 66.40625 30.609375 66.40625 
Q 23.96875 66.40625 20.09375 61.84375 
Q 16.21875 57.28125 16.21875 49.421875 
Q 16.21875 41.5 20.09375 36.953125 
Q 23.96875 32.421875 30.609375 32.421875 
z
" id="DejaVuSans-57"/>
      <path d="M 54.890625 33.015625 
L 54.890625 0 
L 45.90625 0 
L 45.90625 32.71875 
Q 45.90625 40.484375 42.875 44.328125 
Q 39.84375 48.1875 33.796875 48.1875 
Q 26.515625 48.1875 22.3125 43.546875 
Q 18.109375 38.921875 18.109375 30.90625 
L 18.109375 0 
L 9.078125 0 
L 9.078125 75.984375 
L 18.109375 75.984375 
L 18.109375 46.1875 
Q 21.34375 51.125 25.703125 53.5625 
Q 30.078125 56 35.796875 56 
Q 45.21875 56 50.046875 50.171875 
Q 54.890625 44.34375 54.890625 33.015625 
z
" id="DejaVuSans-104"/>
      <path d="M 10.59375 45.40625 
L 73.1875 45.40625 
L 73.1875 37.203125 
L 10.59375 37.203125 
z
M 10.59375 25.484375 
L 73.1875 25.484375 
L 73.1875 17.1875 
L 10.59375 17.1875 
z
" id="DejaVuSans-61"/>
      <path d="M 8.203125 72.90625 
L 55.078125 72.90625 
L 55.078125 68.703125 
L 28.609375 0 
L 18.3125 0 
L 43.21875 64.59375 
L 8.203125 64.59375 
z
" id="DejaVuSans-55"/>
      <path d="M 40.578125 39.3125 
Q 47.65625 37.796875 51.625 33 
Q 55.609375 28.21875 55.609375 21.1875 
Q 55.609375 10.40625 48.1875 4.484375 
Q 40.765625 -1.421875 27.09375 -1.421875 
Q 22.515625 -1.421875 17.65625 -0.515625 
Q 12.796875 0.390625 7.625 2.203125 
L 7.625 11.71875 
Q 11.71875 9.328125 16.59375 8.109375 
Q 21.484375 6.890625 26.8125 6.890625 
Q 36.078125 6.890625 40.9375 10.546875 
Q 45.796875 14.203125 45.796875 21.1875 
Q 45.796875 27.640625 41.28125 31.265625 
Q 36.765625 34.90625 28.71875 34.90625 
L 20.21875 34.90625 
L 20.21875 43.015625 
L 29.109375 43.015625 
Q 36.375 43.015625 40.234375 45.921875 
Q 44.09375 48.828125 44.09375 54.296875 
Q 44.09375 59.90625 40.109375 62.90625 
Q 36.140625 65.921875 28.71875 65.921875 
Q 24.65625 65.921875 20.015625 65.03125 
Q 15.375 64.15625 9.8125 62.3125 
L 9.8125 71.09375 
Q 15.4375 72.65625 20.34375 73.4375 
Q 25.25 74.21875 29.59375 74.21875 
Q 40.828125 74.21875 47.359375 69.109375 
Q 53.90625 64.015625 53.90625 55.328125 
Q 53.90625 49.265625 50.4375 45.09375 
Q 46.96875 40.921875 40.578125 39.3125 
z
" id="DejaVuSans-51"/>
     </defs>
     <use xlink:href="#DejaVuSans-118"/>
     <use x="59.179688" xlink:href="#DejaVuSans-50"/>
     <use x="122.802734" xlink:href="#DejaVuSans-46"/>
     <use x="154.589844" xlink:href="#DejaVuSans-52"/>
     <use x="218.212891" xlink:href="#DejaVuSans-46"/>
     <use x="250" xlink:href="#DejaVuSans-49"/>
     <use x="313.623047" xlink:href="#DejaVuSans-57"/>
     <use x="377.246094" xlink:href="#DejaVuSans-44"/>
     <use x="409.033203" xlink:href="#DejaVuSans-32"/>
     <use x="440.820312" xlink:href="#DejaVuSans-104"/>
     <use x="504.199219" xlink:href="#DejaVuSans-118"/>
     <use x="560.753906" xlink:href="#DejaVuSans-45"/>
     <use x="596.837891" xlink:href="#DejaVuSans-104"/>
     <use x="660.216797" xlink:href="#DejaVuSans-97"/>
     <use x="721.496094" xlink:href="#DejaVuSans-115"/>
     <use x="773.595703" xlink:href="#DejaVuSans-104"/>
     <use x="836.974609" xlink:href="#DejaVuSans-61"/>
     <use x="920.763672" xlink:href="#DejaVuSans-102"/>
     <use x="955.96875" xlink:href="#DejaVuSans-102"/>
     <use x="991.173828" xlink:href="#DejaVuSans-48"/>
     <use x="1054.796875" xlink:href="#DejaVuSans-101"/>
     <use x="1116.320312" xlink:href="#DejaVuSans-55"/>
     <use x="1179.943359" xlink:href="#DejaVuSans-49"/>
     <use x="1243.566406" xlink:href="#DejaVuSans-101"/>
     <use x="1305.089844" xlink:href="#DejaVuSans-56"/>
     <use x="1368.712891" xlink:href="#DejaVuSans-99"/>
     <use x="1423.693359" xlink:href="#DejaVuSans-100"/>
     <use x="1487.169922" xlink:href="#DejaVuSans-57"/>
     <use x="1550.792969" xlink:href="#DejaVuSans-55"/>
     <use x="1614.416016" xlink:href="#DejaVuSans-56"/>
     <use x="1678.039062" xlink:href="#DejaVuSans-51"/>
     <use x="1741.662109" xlink:href="#DejaVuSans-55"/>
     <use x="1805.285156" xlink:href="#DejaVuSans-51"/>
    </g>
   </g>
   <g id="text_19">
    <!-- 44 Diff. Powers/Schwefel -->
    <g transform="translate(75.317437 21.648)scale(0.2 -0.2)">
     <defs>
      <path d="M 19.671875 64.796875 
L 19.671875 37.40625 
L 32.078125 37.40625 
Q 38.96875 37.40625 42.71875 40.96875 
Q 46.484375 44.53125 46.484375 51.125 
Q 46.484375 57.671875 42.71875 61.234375 
Q 38.96875 64.796875 32.078125 64.796875 
z
M 9.8125 72.90625 
L 32.078125 72.90625 
Q 44.34375 72.90625 50.609375 67.359375 
Q 56.890625 61.8125 56.890625 51.125 
Q 56.890625 40.328125 50.609375 34.8125 
Q 44.34375 29.296875 32.078125 29.296875 
L 19.671875 29.296875 
L 19.671875 0 
L 9.8125 0 
z
" id="DejaVuSans-80"/>
      <path d="M 4.203125 54.6875 
L 13.1875 54.6875 
L 24.421875 12.015625 
L 35.59375 54.6875 
L 46.1875 54.6875 
L 57.421875 12.015625 
L 68.609375 54.6875 
L 77.59375 54.6875 
L 63.28125 0 
L 52.6875 0 
L 40.921875 44.828125 
L 29.109375 0 
L 18.5 0 
z
" id="DejaVuSans-119"/>
     </defs>
     <use xlink:href="#DejaVuSans-52"/>
     <use x="63.623047" xlink:href="#DejaVuSans-52"/>
     <use x="127.246094" xlink:href="#DejaVuSans-32"/>
     <use x="159.033203" xlink:href="#DejaVuSans-68"/>
     <use x="236.035156" xlink:href="#DejaVuSans-105"/>
     <use x="263.818359" xlink:href="#DejaVuSans-102"/>
     <use x="299.023438" xlink:href="#DejaVuSans-102"/>
     <use x="326.978516" xlink:href="#DejaVuSans-46"/>
     <use x="358.765625" xlink:href="#DejaVuSans-32"/>
     <use x="390.552734" xlink:href="#DejaVuSans-80"/>
     <use x="447.230469" xlink:href="#DejaVuSans-111"/>
     <use x="508.412109" xlink:href="#DejaVuSans-119"/>
     <use x="590.199219" xlink:href="#DejaVuSans-101"/>
     <use x="651.722656" xlink:href="#DejaVuSans-114"/>
     <use x="692.835938" xlink:href="#DejaVuSans-115"/>
     <use x="744.935547" xlink:href="#DejaVuSans-47"/>
     <use x="778.626953" xlink:href="#DejaVuSans-83"/>
     <use x="842.103516" xlink:href="#DejaVuSans-99"/>
     <use x="897.083984" xlink:href="#DejaVuSans-104"/>
     <use x="960.462891" xlink:href="#DejaVuSans-119"/>
     <use x="1042.25" xlink:href="#DejaVuSans-101"/>
     <use x="1103.773438" xlink:href="#DejaVuSans-102"/>
     <use x="1138.978516" xlink:href="#DejaVuSans-101"/>
     <use x="1200.501953" xlink:href="#DejaVuSans-108"/>
    </g>
   </g>
  </g>
 </g>
 <defs>
  <clipPath id="p4dc5c9df91">
   <rect height="271.296" width="281.088" x="57.6" y="27.648"/>
  </clipPath>
 </defs>
</svg>
