<?xml version="1.0" encoding="utf-8" standalone="no"?>
<!DOCTYPE svg PUBLIC "-//W3C//DTD SVG 1.1//EN"
  "http://www.w3.org/Graphics/SVG/1.1/DTD/svg11.dtd">
<!-- Created with matplotlib (https://matplotlib.org/) -->
<svg height="345.6pt" version="1.1" viewBox="0 0 460.8 345.6" width="460.8pt" xmlns="http://www.w3.org/2000/svg" xmlns:xlink="http://www.w3.org/1999/xlink">
 <metadata>
  <rdf:RDF xmlns:cc="http://creativecommons.org/ns#" xmlns:dc="http://purl.org/dc/elements/1.1/" xmlns:rdf="http://www.w3.org/1999/02/22-rdf-syntax-ns#">
   <cc:Work>
    <dc:type rdf:resource="http://purl.org/dc/dcmitype/StillImage"/>
    <dc:date>2021-04-26T15:06:00.847316</dc:date>
    <dc:format>image/svg+xml</dc:format>
    <dc:creator>
     <cc:Agent>
      <dc:title>Matplotlib v3.3.2, https://matplotlib.org/</dc:title>
     </cc:Agent>
    </dc:creator>
   </cc:Work>
  </rdf:RDF>
 </metadata>
 <defs>
  <style type="text/css">*{stroke-linecap:butt;stroke-linejoin:round;}</style>
 </defs>
 <g id="figure_1">
  <g id="patch_1">
   <path d="M 0 345.6 
L 460.8 345.6 
L 460.8 0 
L 0 0 
z
" style="fill:#ffffff;"/>
  </g>
  <g id="axes_1">
   <g id="patch_2">
    <path d="M 57.6 298.944 
L 338.688 298.944 
L 338.688 27.648 
L 57.6 27.648 
z
" style="fill:#ffffff;"/>
   </g>
   <g id="line2d_1">
    <path d="M 41.620548 298.944 
L 41.620548 294.312795 
L 63.467834 294.312795 
L 63.467834 285.050384 
L 82.626842 285.050384 
L 82.626842 275.787974 
L 92.504372 275.787974 
L 92.504372 271.156769 
L 110.188761 271.156769 
L 110.188761 257.263153 
L 122.276749 257.263153 
L 122.276749 248.000743 
L 130.926816 248.000743 
L 130.926816 243.369538 
L 139.730821 243.369538 
L 139.730821 234.107127 
L 161.137157 234.107127 
L 161.137157 220.213512 
L 164.486229 220.213512 
L 164.486229 210.951101 
L 176.763161 210.951101 
L 176.763161 201.688691 
L 178.956967 201.688691 
L 178.956967 192.426281 
L 185.54182 192.426281 
L 185.54182 187.795075 
L 195.836769 187.795075 
L 195.836769 173.90146 
L 208.266965 173.90146 
L 208.266965 169.270255 
L 214.86139 169.270255 
L 214.86139 155.376639 
L 223.186374 155.376639 
L 223.186374 146.114229 
L 224.518225 146.114229 
L 224.518225 141.483024 
L 226.527763 141.483024 
L 226.527763 127.589408 
L 229.415552 127.589408 
L 229.415552 122.958203 
L 233.086149 122.958203 
L 233.086149 109.064587 
L 237.923727 109.064587 
L 237.923727 99.802177 
L 243.207651 99.802177 
L 243.207651 90.539766 
L 247.746919 90.539766 
L 247.746919 85.908561 
L 252.910492 85.908561 
L 252.910492 76.646151 
L 259.136954 76.646151 
L 259.136954 62.752535 
L 338.688 62.752535 
" style="fill:none;stroke:#f5deb3;stroke-linecap:square;stroke-width:4;"/>
   </g>
   <g id="line2d_2">
    <defs>
     <path d="M 0 7.778175 
L 7.778175 0 
L 0 -7.778175 
L -7.778175 0 
z
" id="m74a95fd1c8" style="stroke:#f5deb3;stroke-linejoin:miter;stroke-width:1.5;"/>
    </defs>
    <g>
     <use style="fill:#f5deb3;stroke:#f5deb3;stroke-linejoin:miter;stroke-width:1.5;" x="161.137157" xlink:href="#m74a95fd1c8" y="234.107127"/>
     <use style="fill:#f5deb3;stroke:#f5deb3;stroke-linejoin:miter;stroke-width:1.5;" x="214.86139" xlink:href="#m74a95fd1c8" y="169.270255"/>
     <use style="fill:#f5deb3;stroke:#f5deb3;stroke-linejoin:miter;stroke-width:1.5;" x="237.923727" xlink:href="#m74a95fd1c8" y="109.064587"/>
     <use style="fill:#f5deb3;stroke:#f5deb3;stroke-linejoin:miter;stroke-width:1.5;" x="259.136954" xlink:href="#m74a95fd1c8" y="62.752535"/>
     <use style="fill:#f5deb3;stroke:#f5deb3;stroke-linejoin:miter;stroke-width:1.5;" x="259.136954" xlink:href="#m74a95fd1c8" y="62.752535"/>
     <use style="fill:#f5deb3;stroke:#f5deb3;stroke-linejoin:miter;stroke-width:1.5;" x="338.688" xlink:href="#m74a95fd1c8" y="62.752535"/>
    </g>
   </g>
   <g id="line2d_3">
    <path style="fill:none;stroke:#f5deb3;stroke-linecap:square;stroke-width:4;"/>
    <g/>
   </g>
   <g id="line2d_4">
    <path d="M 338.688 62.752535 
L 369.60768 35.706297 
" style="fill:none;stroke:#f5deb3;stroke-linecap:square;stroke-width:4;"/>
    <g>
     <use style="fill:#f5deb3;stroke:#f5deb3;stroke-linejoin:miter;stroke-width:1.5;" x="338.688" xlink:href="#m74a95fd1c8" y="62.752535"/>
     <use style="fill:#f5deb3;stroke:#f5deb3;stroke-linejoin:miter;stroke-width:1.5;" x="369.60768" xlink:href="#m74a95fd1c8" y="35.706297"/>
    </g>
   </g>
   <g id="matplotlib.axis_1">
    <g id="xtick_1">
     <g id="line2d_5">
      <path clip-path="url(#p11403e1bc4)" d="M 57.6 298.944 
L 57.6 27.648 
" style="fill:none;stroke:#b0b0b0;stroke-linecap:square;stroke-width:0.8;"/>
     </g>
     <g id="line2d_6">
      <defs>
       <path d="M 0 0 
L 0 3.5 
" id="m8a0b843401" style="stroke:#000000;stroke-width:0.8;"/>
      </defs>
      <g>
       <use style="stroke:#000000;stroke-width:0.8;" x="57.6" xlink:href="#m8a0b843401" y="298.944"/>
      </g>
     </g>
     <g id="text_1">
      <!-- 0 -->
      <g transform="translate(51.2375 321.140875)scale(0.2 -0.2)">
       <defs>
        <path d="M 31.78125 66.40625 
Q 24.171875 66.40625 20.328125 58.90625 
Q 16.5 51.421875 16.5 36.375 
Q 16.5 21.390625 20.328125 13.890625 
Q 24.171875 6.390625 31.78125 6.390625 
Q 39.453125 6.390625 43.28125 13.890625 
Q 47.125 21.390625 47.125 36.375 
Q 47.125 51.421875 43.28125 58.90625 
Q 39.453125 66.40625 31.78125 66.40625 
z
M 31.78125 74.21875 
Q 44.046875 74.21875 50.515625 64.515625 
Q 56.984375 54.828125 56.984375 36.375 
Q 56.984375 17.96875 50.515625 8.265625 
Q 44.046875 -1.421875 31.78125 -1.421875 
Q 19.53125 -1.421875 13.0625 8.265625 
Q 6.59375 17.96875 6.59375 36.375 
Q 6.59375 54.828125 13.0625 64.515625 
Q 19.53125 74.21875 31.78125 74.21875 
z
" id="DejaVuSans-48"/>
       </defs>
       <use xlink:href="#DejaVuSans-48"/>
      </g>
     </g>
    </g>
    <g id="xtick_2">
     <g id="line2d_7">
      <path clip-path="url(#p11403e1bc4)" d="M 137.910857 298.944 
L 137.910857 27.648 
" style="fill:none;stroke:#b0b0b0;stroke-linecap:square;stroke-width:0.8;"/>
     </g>
     <g id="line2d_8">
      <g>
       <use style="stroke:#000000;stroke-width:0.8;" x="137.910857" xlink:href="#m8a0b843401" y="298.944"/>
      </g>
     </g>
     <g id="text_2">
      <!-- 2 -->
      <g transform="translate(131.548357 321.140875)scale(0.2 -0.2)">
       <defs>
        <path d="M 19.1875 8.296875 
L 53.609375 8.296875 
L 53.609375 0 
L 7.328125 0 
L 7.328125 8.296875 
Q 12.9375 14.109375 22.625 23.890625 
Q 32.328125 33.6875 34.8125 36.53125 
Q 39.546875 41.84375 41.421875 45.53125 
Q 43.3125 49.21875 43.3125 52.78125 
Q 43.3125 58.59375 39.234375 62.25 
Q 35.15625 65.921875 28.609375 65.921875 
Q 23.96875 65.921875 18.8125 64.3125 
Q 13.671875 62.703125 7.8125 59.421875 
L 7.8125 69.390625 
Q 13.765625 71.78125 18.9375 73 
Q 24.125 74.21875 28.421875 74.21875 
Q 39.75 74.21875 46.484375 68.546875 
Q 53.21875 62.890625 53.21875 53.421875 
Q 53.21875 48.921875 51.53125 44.890625 
Q 49.859375 40.875 45.40625 35.40625 
Q 44.1875 33.984375 37.640625 27.21875 
Q 31.109375 20.453125 19.1875 8.296875 
z
" id="DejaVuSans-50"/>
       </defs>
       <use xlink:href="#DejaVuSans-50"/>
      </g>
     </g>
    </g>
    <g id="xtick_3">
     <g id="line2d_9">
      <path clip-path="url(#p11403e1bc4)" d="M 218.221714 298.944 
L 218.221714 27.648 
" style="fill:none;stroke:#b0b0b0;stroke-linecap:square;stroke-width:0.8;"/>
     </g>
     <g id="line2d_10">
      <g>
       <use style="stroke:#000000;stroke-width:0.8;" x="218.221714" xlink:href="#m8a0b843401" y="298.944"/>
      </g>
     </g>
     <g id="text_3">
      <!-- 4 -->
      <g transform="translate(211.859214 321.140875)scale(0.2 -0.2)">
       <defs>
        <path d="M 37.796875 64.3125 
L 12.890625 25.390625 
L 37.796875 25.390625 
z
M 35.203125 72.90625 
L 47.609375 72.90625 
L 47.609375 25.390625 
L 58.015625 25.390625 
L 58.015625 17.1875 
L 47.609375 17.1875 
L 47.609375 0 
L 37.796875 0 
L 37.796875 17.1875 
L 4.890625 17.1875 
L 4.890625 26.703125 
z
" id="DejaVuSans-52"/>
       </defs>
       <use xlink:href="#DejaVuSans-52"/>
      </g>
     </g>
    </g>
    <g id="xtick_4">
     <g id="line2d_11">
      <path clip-path="url(#p11403e1bc4)" d="M 298.532571 298.944 
L 298.532571 27.648 
" style="fill:none;stroke:#b0b0b0;stroke-linecap:square;stroke-width:0.8;"/>
     </g>
     <g id="line2d_12">
      <g>
       <use style="stroke:#000000;stroke-width:0.8;" x="298.532571" xlink:href="#m8a0b843401" y="298.944"/>
      </g>
     </g>
     <g id="text_4">
      <!-- 6 -->
      <g transform="translate(292.170071 321.140875)scale(0.2 -0.2)">
       <defs>
        <path d="M 33.015625 40.375 
Q 26.375 40.375 22.484375 35.828125 
Q 18.609375 31.296875 18.609375 23.390625 
Q 18.609375 15.53125 22.484375 10.953125 
Q 26.375 6.390625 33.015625 6.390625 
Q 39.65625 6.390625 43.53125 10.953125 
Q 47.40625 15.53125 47.40625 23.390625 
Q 47.40625 31.296875 43.53125 35.828125 
Q 39.65625 40.375 33.015625 40.375 
z
M 52.59375 71.296875 
L 52.59375 62.3125 
Q 48.875 64.0625 45.09375 64.984375 
Q 41.3125 65.921875 37.59375 65.921875 
Q 27.828125 65.921875 22.671875 59.328125 
Q 17.53125 52.734375 16.796875 39.40625 
Q 19.671875 43.65625 24.015625 45.921875 
Q 28.375 48.1875 33.59375 48.1875 
Q 44.578125 48.1875 50.953125 41.515625 
Q 57.328125 34.859375 57.328125 23.390625 
Q 57.328125 12.15625 50.6875 5.359375 
Q 44.046875 -1.421875 33.015625 -1.421875 
Q 20.359375 -1.421875 13.671875 8.265625 
Q 6.984375 17.96875 6.984375 36.375 
Q 6.984375 53.65625 15.1875 63.9375 
Q 23.390625 74.21875 37.203125 74.21875 
Q 40.921875 74.21875 44.703125 73.484375 
Q 48.484375 72.75 52.59375 71.296875 
z
" id="DejaVuSans-54"/>
       </defs>
       <use xlink:href="#DejaVuSans-54"/>
      </g>
     </g>
    </g>
    <g id="xtick_5">
     <g id="line2d_13">
      <path clip-path="url(#p11403e1bc4)" d="M 97.755429 298.944 
L 97.755429 27.648 
" style="fill:none;stroke:#b0b0b0;stroke-linecap:square;stroke-width:0.8;"/>
     </g>
     <g id="line2d_14">
      <defs>
       <path d="M 0 0 
L 0 2 
" id="mea7d36650d" style="stroke:#000000;stroke-width:0.6;"/>
      </defs>
      <g>
       <use style="stroke:#000000;stroke-width:0.6;" x="97.755429" xlink:href="#mea7d36650d" y="298.944"/>
      </g>
     </g>
    </g>
    <g id="xtick_6">
     <g id="line2d_15">
      <path clip-path="url(#p11403e1bc4)" d="M 178.066286 298.944 
L 178.066286 27.648 
" style="fill:none;stroke:#b0b0b0;stroke-linecap:square;stroke-width:0.8;"/>
     </g>
     <g id="line2d_16">
      <g>
       <use style="stroke:#000000;stroke-width:0.6;" x="178.066286" xlink:href="#mea7d36650d" y="298.944"/>
      </g>
     </g>
    </g>
    <g id="xtick_7">
     <g id="line2d_17">
      <path clip-path="url(#p11403e1bc4)" d="M 258.377143 298.944 
L 258.377143 27.648 
" style="fill:none;stroke:#b0b0b0;stroke-linecap:square;stroke-width:0.8;"/>
     </g>
     <g id="line2d_18">
      <g>
       <use style="stroke:#000000;stroke-width:0.6;" x="258.377143" xlink:href="#mea7d36650d" y="298.944"/>
      </g>
     </g>
    </g>
    <g id="xtick_8">
     <g id="line2d_19">
      <path clip-path="url(#p11403e1bc4)" d="M 338.688 298.944 
L 338.688 27.648 
" style="fill:none;stroke:#b0b0b0;stroke-linecap:square;stroke-width:0.8;"/>
     </g>
     <g id="line2d_20">
      <g>
       <use style="stroke:#000000;stroke-width:0.6;" x="338.688" xlink:href="#mea7d36650d" y="298.944"/>
      </g>
     </g>
    </g>
    <g id="text_5">
     <!-- log10(# f-evals / dimension) -->
     <g transform="translate(77.764078 342.217594)scale(0.17 -0.17)">
      <defs>
       <path d="M 9.421875 75.984375 
L 18.40625 75.984375 
L 18.40625 0 
L 9.421875 0 
z
" id="DejaVuSans-108"/>
       <path d="M 30.609375 48.390625 
Q 23.390625 48.390625 19.1875 42.75 
Q 14.984375 37.109375 14.984375 27.296875 
Q 14.984375 17.484375 19.15625 11.84375 
Q 23.34375 6.203125 30.609375 6.203125 
Q 37.796875 6.203125 41.984375 11.859375 
Q 46.1875 17.53125 46.1875 27.296875 
Q 46.1875 37.015625 41.984375 42.703125 
Q 37.796875 48.390625 30.609375 48.390625 
z
M 30.609375 56 
Q 42.328125 56 49.015625 48.375 
Q 55.71875 40.765625 55.71875 27.296875 
Q 55.71875 13.875 49.015625 6.21875 
Q 42.328125 -1.421875 30.609375 -1.421875 
Q 18.84375 -1.421875 12.171875 6.21875 
Q 5.515625 13.875 5.515625 27.296875 
Q 5.515625 40.765625 12.171875 48.375 
Q 18.84375 56 30.609375 56 
z
" id="DejaVuSans-111"/>
       <path d="M 45.40625 27.984375 
Q 45.40625 37.75 41.375 43.109375 
Q 37.359375 48.484375 30.078125 48.484375 
Q 22.859375 48.484375 18.828125 43.109375 
Q 14.796875 37.75 14.796875 27.984375 
Q 14.796875 18.265625 18.828125 12.890625 
Q 22.859375 7.515625 30.078125 7.515625 
Q 37.359375 7.515625 41.375 12.890625 
Q 45.40625 18.265625 45.40625 27.984375 
z
M 54.390625 6.78125 
Q 54.390625 -7.171875 48.1875 -13.984375 
Q 42 -20.796875 29.203125 -20.796875 
Q 24.46875 -20.796875 20.265625 -20.09375 
Q 16.0625 -19.390625 12.109375 -17.921875 
L 12.109375 -9.1875 
Q 16.0625 -11.328125 19.921875 -12.34375 
Q 23.78125 -13.375 27.78125 -13.375 
Q 36.625 -13.375 41.015625 -8.765625 
Q 45.40625 -4.15625 45.40625 5.171875 
L 45.40625 9.625 
Q 42.625 4.78125 38.28125 2.390625 
Q 33.9375 0 27.875 0 
Q 17.828125 0 11.671875 7.65625 
Q 5.515625 15.328125 5.515625 27.984375 
Q 5.515625 40.671875 11.671875 48.328125 
Q 17.828125 56 27.875 56 
Q 33.9375 56 38.28125 53.609375 
Q 42.625 51.21875 45.40625 46.390625 
L 45.40625 54.6875 
L 54.390625 54.6875 
z
" id="DejaVuSans-103"/>
       <path d="M 12.40625 8.296875 
L 28.515625 8.296875 
L 28.515625 63.921875 
L 10.984375 60.40625 
L 10.984375 69.390625 
L 28.421875 72.90625 
L 38.28125 72.90625 
L 38.28125 8.296875 
L 54.390625 8.296875 
L 54.390625 0 
L 12.40625 0 
z
" id="DejaVuSans-49"/>
       <path d="M 31 75.875 
Q 24.46875 64.65625 21.28125 53.65625 
Q 18.109375 42.671875 18.109375 31.390625 
Q 18.109375 20.125 21.3125 9.0625 
Q 24.515625 -2 31 -13.1875 
L 23.1875 -13.1875 
Q 15.875 -1.703125 12.234375 9.375 
Q 8.59375 20.453125 8.59375 31.390625 
Q 8.59375 42.28125 12.203125 53.3125 
Q 15.828125 64.359375 23.1875 75.875 
z
" id="DejaVuSans-40"/>
       <path d="M 51.125 44 
L 36.921875 44 
L 32.8125 27.6875 
L 47.125 27.6875 
z
M 43.796875 71.78125 
L 38.71875 51.515625 
L 52.984375 51.515625 
L 58.109375 71.78125 
L 65.921875 71.78125 
L 60.890625 51.515625 
L 76.125 51.515625 
L 76.125 44 
L 58.984375 44 
L 54.984375 27.6875 
L 70.515625 27.6875 
L 70.515625 20.21875 
L 53.078125 20.21875 
L 48 0 
L 40.1875 0 
L 45.21875 20.21875 
L 30.90625 20.21875 
L 25.875 0 
L 18.015625 0 
L 23.09375 20.21875 
L 7.71875 20.21875 
L 7.71875 27.6875 
L 24.90625 27.6875 
L 29 44 
L 13.28125 44 
L 13.28125 51.515625 
L 30.90625 51.515625 
L 35.890625 71.78125 
z
" id="DejaVuSans-35"/>
       <path id="DejaVuSans-32"/>
       <path d="M 37.109375 75.984375 
L 37.109375 68.5 
L 28.515625 68.5 
Q 23.6875 68.5 21.796875 66.546875 
Q 19.921875 64.59375 19.921875 59.515625 
L 19.921875 54.6875 
L 34.71875 54.6875 
L 34.71875 47.703125 
L 19.921875 47.703125 
L 19.921875 0 
L 10.890625 0 
L 10.890625 47.703125 
L 2.296875 47.703125 
L 2.296875 54.6875 
L 10.890625 54.6875 
L 10.890625 58.5 
Q 10.890625 67.625 15.140625 71.796875 
Q 19.390625 75.984375 28.609375 75.984375 
z
" id="DejaVuSans-102"/>
       <path d="M 4.890625 31.390625 
L 31.203125 31.390625 
L 31.203125 23.390625 
L 4.890625 23.390625 
z
" id="DejaVuSans-45"/>
       <path d="M 56.203125 29.59375 
L 56.203125 25.203125 
L 14.890625 25.203125 
Q 15.484375 15.921875 20.484375 11.0625 
Q 25.484375 6.203125 34.421875 6.203125 
Q 39.59375 6.203125 44.453125 7.46875 
Q 49.3125 8.734375 54.109375 11.28125 
L 54.109375 2.78125 
Q 49.265625 0.734375 44.1875 -0.34375 
Q 39.109375 -1.421875 33.890625 -1.421875 
Q 20.796875 -1.421875 13.15625 6.1875 
Q 5.515625 13.8125 5.515625 26.8125 
Q 5.515625 40.234375 12.765625 48.109375 
Q 20.015625 56 32.328125 56 
Q 43.359375 56 49.78125 48.890625 
Q 56.203125 41.796875 56.203125 29.59375 
z
M 47.21875 32.234375 
Q 47.125 39.59375 43.09375 43.984375 
Q 39.0625 48.390625 32.421875 48.390625 
Q 24.90625 48.390625 20.390625 44.140625 
Q 15.875 39.890625 15.1875 32.171875 
z
" id="DejaVuSans-101"/>
       <path d="M 2.984375 54.6875 
L 12.5 54.6875 
L 29.59375 8.796875 
L 46.6875 54.6875 
L 56.203125 54.6875 
L 35.6875 0 
L 23.484375 0 
z
" id="DejaVuSans-118"/>
       <path d="M 34.28125 27.484375 
Q 23.390625 27.484375 19.1875 25 
Q 14.984375 22.515625 14.984375 16.5 
Q 14.984375 11.71875 18.140625 8.90625 
Q 21.296875 6.109375 26.703125 6.109375 
Q 34.1875 6.109375 38.703125 11.40625 
Q 43.21875 16.703125 43.21875 25.484375 
L 43.21875 27.484375 
z
M 52.203125 31.203125 
L 52.203125 0 
L 43.21875 0 
L 43.21875 8.296875 
Q 40.140625 3.328125 35.546875 0.953125 
Q 30.953125 -1.421875 24.3125 -1.421875 
Q 15.921875 -1.421875 10.953125 3.296875 
Q 6 8.015625 6 15.921875 
Q 6 25.140625 12.171875 29.828125 
Q 18.359375 34.515625 30.609375 34.515625 
L 43.21875 34.515625 
L 43.21875 35.40625 
Q 43.21875 41.609375 39.140625 45 
Q 35.0625 48.390625 27.6875 48.390625 
Q 23 48.390625 18.546875 47.265625 
Q 14.109375 46.140625 10.015625 43.890625 
L 10.015625 52.203125 
Q 14.9375 54.109375 19.578125 55.046875 
Q 24.21875 56 28.609375 56 
Q 40.484375 56 46.34375 49.84375 
Q 52.203125 43.703125 52.203125 31.203125 
z
" id="DejaVuSans-97"/>
       <path d="M 44.28125 53.078125 
L 44.28125 44.578125 
Q 40.484375 46.53125 36.375 47.5 
Q 32.28125 48.484375 27.875 48.484375 
Q 21.1875 48.484375 17.84375 46.4375 
Q 14.5 44.390625 14.5 40.28125 
Q 14.5 37.15625 16.890625 35.375 
Q 19.28125 33.59375 26.515625 31.984375 
L 29.59375 31.296875 
Q 39.15625 29.25 43.1875 25.515625 
Q 47.21875 21.78125 47.21875 15.09375 
Q 47.21875 7.46875 41.1875 3.015625 
Q 35.15625 -1.421875 24.609375 -1.421875 
Q 20.21875 -1.421875 15.453125 -0.5625 
Q 10.6875 0.296875 5.421875 2 
L 5.421875 11.28125 
Q 10.40625 8.6875 15.234375 7.390625 
Q 20.0625 6.109375 24.8125 6.109375 
Q 31.15625 6.109375 34.5625 8.28125 
Q 37.984375 10.453125 37.984375 14.40625 
Q 37.984375 18.0625 35.515625 20.015625 
Q 33.0625 21.96875 24.703125 23.78125 
L 21.578125 24.515625 
Q 13.234375 26.265625 9.515625 29.90625 
Q 5.8125 33.546875 5.8125 39.890625 
Q 5.8125 47.609375 11.28125 51.796875 
Q 16.75 56 26.8125 56 
Q 31.78125 56 36.171875 55.265625 
Q 40.578125 54.546875 44.28125 53.078125 
z
" id="DejaVuSans-115"/>
       <path d="M 25.390625 72.90625 
L 33.6875 72.90625 
L 8.296875 -9.28125 
L 0 -9.28125 
z
" id="DejaVuSans-47"/>
       <path d="M 45.40625 46.390625 
L 45.40625 75.984375 
L 54.390625 75.984375 
L 54.390625 0 
L 45.40625 0 
L 45.40625 8.203125 
Q 42.578125 3.328125 38.25 0.953125 
Q 33.9375 -1.421875 27.875 -1.421875 
Q 17.96875 -1.421875 11.734375 6.484375 
Q 5.515625 14.40625 5.515625 27.296875 
Q 5.515625 40.1875 11.734375 48.09375 
Q 17.96875 56 27.875 56 
Q 33.9375 56 38.25 53.625 
Q 42.578125 51.265625 45.40625 46.390625 
z
M 14.796875 27.296875 
Q 14.796875 17.390625 18.875 11.75 
Q 22.953125 6.109375 30.078125 6.109375 
Q 37.203125 6.109375 41.296875 11.75 
Q 45.40625 17.390625 45.40625 27.296875 
Q 45.40625 37.203125 41.296875 42.84375 
Q 37.203125 48.484375 30.078125 48.484375 
Q 22.953125 48.484375 18.875 42.84375 
Q 14.796875 37.203125 14.796875 27.296875 
z
" id="DejaVuSans-100"/>
       <path d="M 9.421875 54.6875 
L 18.40625 54.6875 
L 18.40625 0 
L 9.421875 0 
z
M 9.421875 75.984375 
L 18.40625 75.984375 
L 18.40625 64.59375 
L 9.421875 64.59375 
z
" id="DejaVuSans-105"/>
       <path d="M 52 44.1875 
Q 55.375 50.25 60.0625 53.125 
Q 64.75 56 71.09375 56 
Q 79.640625 56 84.28125 50.015625 
Q 88.921875 44.046875 88.921875 33.015625 
L 88.921875 0 
L 79.890625 0 
L 79.890625 32.71875 
Q 79.890625 40.578125 77.09375 44.375 
Q 74.3125 48.1875 68.609375 48.1875 
Q 61.625 48.1875 57.5625 43.546875 
Q 53.515625 38.921875 53.515625 30.90625 
L 53.515625 0 
L 44.484375 0 
L 44.484375 32.71875 
Q 44.484375 40.625 41.703125 44.40625 
Q 38.921875 48.1875 33.109375 48.1875 
Q 26.21875 48.1875 22.15625 43.53125 
Q 18.109375 38.875 18.109375 30.90625 
L 18.109375 0 
L 9.078125 0 
L 9.078125 54.6875 
L 18.109375 54.6875 
L 18.109375 46.1875 
Q 21.1875 51.21875 25.484375 53.609375 
Q 29.78125 56 35.6875 56 
Q 41.65625 56 45.828125 52.96875 
Q 50 49.953125 52 44.1875 
z
" id="DejaVuSans-109"/>
       <path d="M 54.890625 33.015625 
L 54.890625 0 
L 45.90625 0 
L 45.90625 32.71875 
Q 45.90625 40.484375 42.875 44.328125 
Q 39.84375 48.1875 33.796875 48.1875 
Q 26.515625 48.1875 22.3125 43.546875 
Q 18.109375 38.921875 18.109375 30.90625 
L 18.109375 0 
L 9.078125 0 
L 9.078125 54.6875 
L 18.109375 54.6875 
L 18.109375 46.1875 
Q 21.34375 51.125 25.703125 53.5625 
Q 30.078125 56 35.796875 56 
Q 45.21875 56 50.046875 50.171875 
Q 54.890625 44.34375 54.890625 33.015625 
z
" id="DejaVuSans-110"/>
       <path d="M 8.015625 75.875 
L 15.828125 75.875 
Q 23.140625 64.359375 26.78125 53.3125 
Q 30.421875 42.28125 30.421875 31.390625 
Q 30.421875 20.453125 26.78125 9.375 
Q 23.140625 -1.703125 15.828125 -13.1875 
L 8.015625 -13.1875 
Q 14.5 -2 17.703125 9.0625 
Q 20.90625 20.125 20.90625 31.390625 
Q 20.90625 42.671875 17.703125 53.65625 
Q 14.5 64.65625 8.015625 75.875 
z
" id="DejaVuSans-41"/>
      </defs>
      <use xlink:href="#DejaVuSans-108"/>
      <use x="27.783203" xlink:href="#DejaVuSans-111"/>
      <use x="88.964844" xlink:href="#DejaVuSans-103"/>
      <use x="152.441406" xlink:href="#DejaVuSans-49"/>
      <use x="216.064453" xlink:href="#DejaVuSans-48"/>
      <use x="279.6875" xlink:href="#DejaVuSans-40"/>
      <use x="318.701172" xlink:href="#DejaVuSans-35"/>
      <use x="402.490234" xlink:href="#DejaVuSans-32"/>
      <use x="434.277344" xlink:href="#DejaVuSans-102"/>
      <use x="463.982422" xlink:href="#DejaVuSans-45"/>
      <use x="500.066406" xlink:href="#DejaVuSans-101"/>
      <use x="561.589844" xlink:href="#DejaVuSans-118"/>
      <use x="620.769531" xlink:href="#DejaVuSans-97"/>
      <use x="682.048828" xlink:href="#DejaVuSans-108"/>
      <use x="709.832031" xlink:href="#DejaVuSans-115"/>
      <use x="761.931641" xlink:href="#DejaVuSans-32"/>
      <use x="793.71875" xlink:href="#DejaVuSans-47"/>
      <use x="827.410156" xlink:href="#DejaVuSans-32"/>
      <use x="859.197266" xlink:href="#DejaVuSans-100"/>
      <use x="922.673828" xlink:href="#DejaVuSans-105"/>
      <use x="950.457031" xlink:href="#DejaVuSans-109"/>
      <use x="1047.869141" xlink:href="#DejaVuSans-101"/>
      <use x="1109.392578" xlink:href="#DejaVuSans-110"/>
      <use x="1172.771484" xlink:href="#DejaVuSans-115"/>
      <use x="1224.871094" xlink:href="#DejaVuSans-105"/>
      <use x="1252.654297" xlink:href="#DejaVuSans-111"/>
      <use x="1313.835938" xlink:href="#DejaVuSans-110"/>
      <use x="1377.214844" xlink:href="#DejaVuSans-41"/>
     </g>
    </g>
   </g>
   <g id="matplotlib.axis_2">
    <g id="ytick_1">
     <g id="line2d_21">
      <path clip-path="url(#p11403e1bc4)" d="M 57.6 298.944 
L 338.688 298.944 
" style="fill:none;stroke:#b0b0b0;stroke-linecap:square;stroke-width:0.8;"/>
     </g>
     <g id="line2d_22">
      <defs>
       <path d="M 0 0 
L -3.5 0 
" id="m7d41e4fca1" style="stroke:#000000;stroke-width:0.8;"/>
      </defs>
      <g>
       <use style="stroke:#000000;stroke-width:0.8;" x="57.6" xlink:href="#m7d41e4fca1" y="298.944"/>
      </g>
     </g>
     <g id="text_6">
      <!-- 0.0 -->
      <g transform="translate(25.155 305.02275)scale(0.16 -0.16)">
       <defs>
        <path d="M 10.6875 12.40625 
L 21 12.40625 
L 21 0 
L 10.6875 0 
z
" id="DejaVuSans-46"/>
       </defs>
       <use xlink:href="#DejaVuSans-48"/>
       <use x="63.623047" xlink:href="#DejaVuSans-46"/>
       <use x="95.410156" xlink:href="#DejaVuSans-48"/>
      </g>
     </g>
    </g>
    <g id="ytick_2">
     <g id="line2d_23">
      <path clip-path="url(#p11403e1bc4)" d="M 57.6 245.22202 
L 338.688 245.22202 
" style="fill:none;stroke:#b0b0b0;stroke-linecap:square;stroke-width:0.8;"/>
     </g>
     <g id="line2d_24">
      <g>
       <use style="stroke:#000000;stroke-width:0.8;" x="57.6" xlink:href="#m7d41e4fca1" y="245.22202"/>
      </g>
     </g>
     <g id="text_7">
      <!-- 0.2 -->
      <g transform="translate(25.155 251.30077)scale(0.16 -0.16)">
       <use xlink:href="#DejaVuSans-48"/>
       <use x="63.623047" xlink:href="#DejaVuSans-46"/>
       <use x="95.410156" xlink:href="#DejaVuSans-50"/>
      </g>
     </g>
    </g>
    <g id="ytick_3">
     <g id="line2d_25">
      <path clip-path="url(#p11403e1bc4)" d="M 57.6 191.50004 
L 338.688 191.50004 
" style="fill:none;stroke:#b0b0b0;stroke-linecap:square;stroke-width:0.8;"/>
     </g>
     <g id="line2d_26">
      <g>
       <use style="stroke:#000000;stroke-width:0.8;" x="57.6" xlink:href="#m7d41e4fca1" y="191.50004"/>
      </g>
     </g>
     <g id="text_8">
      <!-- 0.4 -->
      <g transform="translate(25.155 197.57879)scale(0.16 -0.16)">
       <use xlink:href="#DejaVuSans-48"/>
       <use x="63.623047" xlink:href="#DejaVuSans-46"/>
       <use x="95.410156" xlink:href="#DejaVuSans-52"/>
      </g>
     </g>
    </g>
    <g id="ytick_4">
     <g id="line2d_27">
      <path clip-path="url(#p11403e1bc4)" d="M 57.6 137.778059 
L 338.688 137.778059 
" style="fill:none;stroke:#b0b0b0;stroke-linecap:square;stroke-width:0.8;"/>
     </g>
     <g id="line2d_28">
      <g>
       <use style="stroke:#000000;stroke-width:0.8;" x="57.6" xlink:href="#m7d41e4fca1" y="137.778059"/>
      </g>
     </g>
     <g id="text_9">
      <!-- 0.6 -->
      <g transform="translate(25.155 143.856809)scale(0.16 -0.16)">
       <use xlink:href="#DejaVuSans-48"/>
       <use x="63.623047" xlink:href="#DejaVuSans-46"/>
       <use x="95.410156" xlink:href="#DejaVuSans-54"/>
      </g>
     </g>
    </g>
    <g id="ytick_5">
     <g id="line2d_29">
      <path clip-path="url(#p11403e1bc4)" d="M 57.6 84.056079 
L 338.688 84.056079 
" style="fill:none;stroke:#b0b0b0;stroke-linecap:square;stroke-width:0.8;"/>
     </g>
     <g id="line2d_30">
      <g>
       <use style="stroke:#000000;stroke-width:0.8;" x="57.6" xlink:href="#m7d41e4fca1" y="84.056079"/>
      </g>
     </g>
     <g id="text_10">
      <!-- 0.8 -->
      <g transform="translate(25.155 90.134829)scale(0.16 -0.16)">
       <defs>
        <path d="M 31.78125 34.625 
Q 24.75 34.625 20.71875 30.859375 
Q 16.703125 27.09375 16.703125 20.515625 
Q 16.703125 13.921875 20.71875 10.15625 
Q 24.75 6.390625 31.78125 6.390625 
Q 38.8125 6.390625 42.859375 10.171875 
Q 46.921875 13.96875 46.921875 20.515625 
Q 46.921875 27.09375 42.890625 30.859375 
Q 38.875 34.625 31.78125 34.625 
z
M 21.921875 38.8125 
Q 15.578125 40.375 12.03125 44.71875 
Q 8.5 49.078125 8.5 55.328125 
Q 8.5 64.0625 14.71875 69.140625 
Q 20.953125 74.21875 31.78125 74.21875 
Q 42.671875 74.21875 48.875 69.140625 
Q 55.078125 64.0625 55.078125 55.328125 
Q 55.078125 49.078125 51.53125 44.71875 
Q 48 40.375 41.703125 38.8125 
Q 48.828125 37.15625 52.796875 32.3125 
Q 56.78125 27.484375 56.78125 20.515625 
Q 56.78125 9.90625 50.3125 4.234375 
Q 43.84375 -1.421875 31.78125 -1.421875 
Q 19.734375 -1.421875 13.25 4.234375 
Q 6.78125 9.90625 6.78125 20.515625 
Q 6.78125 27.484375 10.78125 32.3125 
Q 14.796875 37.15625 21.921875 38.8125 
z
M 18.3125 54.390625 
Q 18.3125 48.734375 21.84375 45.5625 
Q 25.390625 42.390625 31.78125 42.390625 
Q 38.140625 42.390625 41.71875 45.5625 
Q 45.3125 48.734375 45.3125 54.390625 
Q 45.3125 60.0625 41.71875 63.234375 
Q 38.140625 66.40625 31.78125 66.40625 
Q 25.390625 66.40625 21.84375 63.234375 
Q 18.3125 60.0625 18.3125 54.390625 
z
" id="DejaVuSans-56"/>
       </defs>
       <use xlink:href="#DejaVuSans-48"/>
       <use x="63.623047" xlink:href="#DejaVuSans-46"/>
       <use x="95.410156" xlink:href="#DejaVuSans-56"/>
      </g>
     </g>
    </g>
    <g id="ytick_6">
     <g id="line2d_31">
      <path clip-path="url(#p11403e1bc4)" d="M 57.6 30.334099 
L 338.688 30.334099 
" style="fill:none;stroke:#b0b0b0;stroke-linecap:square;stroke-width:0.8;"/>
     </g>
     <g id="line2d_32">
      <g>
       <use style="stroke:#000000;stroke-width:0.8;" x="57.6" xlink:href="#m7d41e4fca1" y="30.334099"/>
      </g>
     </g>
     <g id="text_11">
      <!-- 1.0 -->
      <g transform="translate(25.155 36.412849)scale(0.16 -0.16)">
       <use xlink:href="#DejaVuSans-49"/>
       <use x="63.623047" xlink:href="#DejaVuSans-46"/>
       <use x="95.410156" xlink:href="#DejaVuSans-48"/>
      </g>
     </g>
    </g>
    <g id="text_12">
     <!-- Fraction of function,target pairs -->
     <g transform="translate(17.619531 297.681)rotate(-90)scale(0.17 -0.17)">
      <defs>
       <path d="M 9.8125 72.90625 
L 51.703125 72.90625 
L 51.703125 64.59375 
L 19.671875 64.59375 
L 19.671875 43.109375 
L 48.578125 43.109375 
L 48.578125 34.8125 
L 19.671875 34.8125 
L 19.671875 0 
L 9.8125 0 
z
" id="DejaVuSans-70"/>
       <path d="M 41.109375 46.296875 
Q 39.59375 47.171875 37.8125 47.578125 
Q 36.03125 48 33.890625 48 
Q 26.265625 48 22.1875 43.046875 
Q 18.109375 38.09375 18.109375 28.8125 
L 18.109375 0 
L 9.078125 0 
L 9.078125 54.6875 
L 18.109375 54.6875 
L 18.109375 46.1875 
Q 20.953125 51.171875 25.484375 53.578125 
Q 30.03125 56 36.53125 56 
Q 37.453125 56 38.578125 55.875 
Q 39.703125 55.765625 41.0625 55.515625 
z
" id="DejaVuSans-114"/>
       <path d="M 48.78125 52.59375 
L 48.78125 44.1875 
Q 44.96875 46.296875 41.140625 47.34375 
Q 37.3125 48.390625 33.40625 48.390625 
Q 24.65625 48.390625 19.8125 42.84375 
Q 14.984375 37.3125 14.984375 27.296875 
Q 14.984375 17.28125 19.8125 11.734375 
Q 24.65625 6.203125 33.40625 6.203125 
Q 37.3125 6.203125 41.140625 7.25 
Q 44.96875 8.296875 48.78125 10.40625 
L 48.78125 2.09375 
Q 45.015625 0.34375 40.984375 -0.53125 
Q 36.96875 -1.421875 32.421875 -1.421875 
Q 20.0625 -1.421875 12.78125 6.34375 
Q 5.515625 14.109375 5.515625 27.296875 
Q 5.515625 40.671875 12.859375 48.328125 
Q 20.21875 56 33.015625 56 
Q 37.15625 56 41.109375 55.140625 
Q 45.0625 54.296875 48.78125 52.59375 
z
" id="DejaVuSans-99"/>
       <path d="M 18.3125 70.21875 
L 18.3125 54.6875 
L 36.8125 54.6875 
L 36.8125 47.703125 
L 18.3125 47.703125 
L 18.3125 18.015625 
Q 18.3125 11.328125 20.140625 9.421875 
Q 21.96875 7.515625 27.59375 7.515625 
L 36.8125 7.515625 
L 36.8125 0 
L 27.59375 0 
Q 17.1875 0 13.234375 3.875 
Q 9.28125 7.765625 9.28125 18.015625 
L 9.28125 47.703125 
L 2.6875 47.703125 
L 2.6875 54.6875 
L 9.28125 54.6875 
L 9.28125 70.21875 
z
" id="DejaVuSans-116"/>
       <path d="M 8.5 21.578125 
L 8.5 54.6875 
L 17.484375 54.6875 
L 17.484375 21.921875 
Q 17.484375 14.15625 20.5 10.265625 
Q 23.53125 6.390625 29.59375 6.390625 
Q 36.859375 6.390625 41.078125 11.03125 
Q 45.3125 15.671875 45.3125 23.6875 
L 45.3125 54.6875 
L 54.296875 54.6875 
L 54.296875 0 
L 45.3125 0 
L 45.3125 8.40625 
Q 42.046875 3.421875 37.71875 1 
Q 33.40625 -1.421875 27.6875 -1.421875 
Q 18.265625 -1.421875 13.375 4.4375 
Q 8.5 10.296875 8.5 21.578125 
z
M 31.109375 56 
z
" id="DejaVuSans-117"/>
       <path d="M 11.71875 12.40625 
L 22.015625 12.40625 
L 22.015625 4 
L 14.015625 -11.625 
L 7.71875 -11.625 
L 11.71875 4 
z
" id="DejaVuSans-44"/>
       <path d="M 18.109375 8.203125 
L 18.109375 -20.796875 
L 9.078125 -20.796875 
L 9.078125 54.6875 
L 18.109375 54.6875 
L 18.109375 46.390625 
Q 20.953125 51.265625 25.265625 53.625 
Q 29.59375 56 35.59375 56 
Q 45.5625 56 51.78125 48.09375 
Q 58.015625 40.1875 58.015625 27.296875 
Q 58.015625 14.40625 51.78125 6.484375 
Q 45.5625 -1.421875 35.59375 -1.421875 
Q 29.59375 -1.421875 25.265625 0.953125 
Q 20.953125 3.328125 18.109375 8.203125 
z
M 48.6875 27.296875 
Q 48.6875 37.203125 44.609375 42.84375 
Q 40.53125 48.484375 33.40625 48.484375 
Q 26.265625 48.484375 22.1875 42.84375 
Q 18.109375 37.203125 18.109375 27.296875 
Q 18.109375 17.390625 22.1875 11.75 
Q 26.265625 6.109375 33.40625 6.109375 
Q 40.53125 6.109375 44.609375 11.75 
Q 48.6875 17.390625 48.6875 27.296875 
z
" id="DejaVuSans-112"/>
      </defs>
      <use xlink:href="#DejaVuSans-70"/>
      <use x="50.269531" xlink:href="#DejaVuSans-114"/>
      <use x="91.382812" xlink:href="#DejaVuSans-97"/>
      <use x="152.662109" xlink:href="#DejaVuSans-99"/>
      <use x="207.642578" xlink:href="#DejaVuSans-116"/>
      <use x="246.851562" xlink:href="#DejaVuSans-105"/>
      <use x="274.634766" xlink:href="#DejaVuSans-111"/>
      <use x="335.816406" xlink:href="#DejaVuSans-110"/>
      <use x="399.195312" xlink:href="#DejaVuSans-32"/>
      <use x="430.982422" xlink:href="#DejaVuSans-111"/>
      <use x="492.164062" xlink:href="#DejaVuSans-102"/>
      <use x="527.369141" xlink:href="#DejaVuSans-32"/>
      <use x="559.15625" xlink:href="#DejaVuSans-102"/>
      <use x="594.361328" xlink:href="#DejaVuSans-117"/>
      <use x="657.740234" xlink:href="#DejaVuSans-110"/>
      <use x="721.119141" xlink:href="#DejaVuSans-99"/>
      <use x="776.099609" xlink:href="#DejaVuSans-116"/>
      <use x="815.308594" xlink:href="#DejaVuSans-105"/>
      <use x="843.091797" xlink:href="#DejaVuSans-111"/>
      <use x="904.273438" xlink:href="#DejaVuSans-110"/>
      <use x="967.652344" xlink:href="#DejaVuSans-44"/>
      <use x="999.439453" xlink:href="#DejaVuSans-116"/>
      <use x="1038.648438" xlink:href="#DejaVuSans-97"/>
      <use x="1099.927734" xlink:href="#DejaVuSans-114"/>
      <use x="1139.291016" xlink:href="#DejaVuSans-103"/>
      <use x="1202.767578" xlink:href="#DejaVuSans-101"/>
      <use x="1264.291016" xlink:href="#DejaVuSans-116"/>
      <use x="1303.5" xlink:href="#DejaVuSans-32"/>
      <use x="1335.287109" xlink:href="#DejaVuSans-112"/>
      <use x="1398.763672" xlink:href="#DejaVuSans-97"/>
      <use x="1460.042969" xlink:href="#DejaVuSans-105"/>
      <use x="1487.826172" xlink:href="#DejaVuSans-114"/>
      <use x="1528.939453" xlink:href="#DejaVuSans-115"/>
     </g>
    </g>
   </g>
   <g id="line2d_33">
    <defs>
     <path d="M 0 1.5 
C 0.397805 1.5 0.77937 1.341951 1.06066 1.06066 
C 1.341951 0.77937 1.5 0.397805 1.5 0 
C 1.5 -0.397805 1.341951 -0.77937 1.06066 -1.06066 
C 0.77937 -1.341951 0.397805 -1.5 0 -1.5 
C -0.397805 -1.5 -0.77937 -1.341951 -1.06066 -1.06066 
C -1.341951 -0.77937 -1.5 -0.397805 -1.5 0 
C -1.5 0.397805 -1.341951 0.77937 -1.06066 1.06066 
C -0.77937 1.341951 -0.397805 1.5 0 1.5 
z
" id="m2f489d1ac6" style="stroke:#f5deb3;"/>
    </defs>
    <g>
     <use style="fill:#f5deb3;stroke:#f5deb3;" x="259.136954" xlink:href="#m2f489d1ac6" y="62.752535"/>
     <use style="fill:#f5deb3;stroke:#f5deb3;" x="259.136954" xlink:href="#m2f489d1ac6" y="62.752535"/>
    </g>
   </g>
   <g id="line2d_34">
    <defs>
     <path d="M 0 1.5 
C 0.397805 1.5 0.77937 1.341951 1.06066 1.06066 
C 1.341951 0.77937 1.5 0.397805 1.5 0 
C 1.5 -0.397805 1.341951 -0.77937 1.06066 -1.06066 
C 0.77937 -1.341951 0.397805 -1.5 0 -1.5 
C -0.397805 -1.5 -0.77937 -1.341951 -1.06066 -1.06066 
C -1.341951 -0.77937 -1.5 -0.397805 -1.5 0 
C -1.5 0.397805 -1.341951 0.77937 -1.06066 1.06066 
C -0.77937 1.341951 -0.397805 1.5 0 1.5 
z
" id="m2d343244df" style="stroke:#000080;"/>
    </defs>
    <g>
     <use style="fill:#000080;stroke:#000080;" x="258.222611" xlink:href="#m2d343244df" y="117.863877"/>
     <use style="fill:#000080;stroke:#000080;" x="258.222611" xlink:href="#m2d343244df" y="117.863877"/>
    </g>
   </g>
   <g id="line2d_35">
    <path d="M 29.53256 298.944 
L 29.53256 290.607831 
L 63.467834 290.607831 
L 63.467834 290.14471 
L 65.796525 290.14471 
L 65.796525 289.68159 
L 69.687988 289.68159 
L 69.687988 289.218469 
L 72.867545 289.218469 
L 72.867545 288.292228 
L 79.938565 288.292228 
L 79.938565 287.365987 
L 80.881459 287.365987 
L 80.881459 286.902867 
L 89.418828 286.902867 
L 89.418828 286.439746 
L 92.504372 286.439746 
L 92.504372 285.513505 
L 97.043522 285.513505 
L 97.043522 285.050384 
L 98.43941 285.050384 
L 98.43941 284.587264 
L 99.097574 284.587264 
L 99.097574 284.124143 
L 102.330873 284.124143 
L 102.330873 283.197902 
L 105.057436 283.197902 
L 105.057436 282.734782 
L 107.009204 282.734782 
L 107.009204 282.271661 
L 109.31223 282.271661 
L 109.31223 281.808541 
L 114.148479 281.808541 
L 114.148479 281.34542 
L 116.202531 281.34542 
L 116.202531 280.8823 
L 116.443076 280.8823 
L 116.443076 280.419179 
L 117.930605 280.419179 
L 117.930605 279.956059 
L 123.514096 279.956059 
L 123.514096 279.492938 
L 124.139788 279.492938 
L 124.139788 279.029818 
L 127.985095 279.029818 
L 127.985095 278.566697 
L 128.229861 278.566697 
L 128.229861 278.103577 
L 130.505303 278.103577 
L 130.505303 277.640456 
L 132.422528 277.640456 
L 132.422528 276.714215 
L 133.931979 276.714215 
L 133.931979 276.251095 
L 138.426341 276.251095 
L 138.426341 275.787974 
L 138.99271 275.787974 
L 138.99271 275.324854 
L 139.317473 275.324854 
L 139.317473 274.861733 
L 140.165274 274.861733 
L 140.165274 274.398612 
L 143.196061 274.398612 
L 143.298796 273.472371 
L 143.375453 273.472371 
L 143.375453 272.54613 
L 145.166911 272.54613 
L 145.166911 272.08301 
L 147.12355 272.08301 
L 147.12355 271.619889 
L 150.172372 271.619889 
L 150.172372 271.156769 
L 150.632448 271.156769 
L 150.632448 270.693648 
L 153.017805 270.693648 
L 153.017805 270.230528 
L 153.163864 270.230528 
L 153.163864 269.767407 
L 154.180855 269.767407 
L 154.180855 269.304287 
L 154.493614 269.304287 
L 154.493614 267.914925 
L 155.928852 267.914925 
L 155.928852 267.451805 
L 156.187581 267.451805 
L 156.187581 266.988684 
L 159.108409 266.988684 
L 159.108409 266.525564 
L 160.442124 266.525564 
L 160.442124 266.062443 
L 161.689969 266.062443 
L 161.689969 265.599323 
L 162.00818 265.599323 
L 162.00818 264.673082 
L 162.397949 264.673082 
L 162.397949 264.209961 
L 162.854457 264.209961 
L 162.854457 263.746841 
L 163.185069 263.746841 
L 163.185069 262.8206 
L 164.809955 262.8206 
L 164.809955 262.357479 
L 166.862349 262.357479 
L 166.862349 261.431238 
L 167.979563 261.431238 
L 167.979563 260.968117 
L 168.439892 260.968117 
L 168.439892 260.041876 
L 170.069512 260.041876 
L 170.069512 259.578756 
L 170.510761 259.578756 
L 170.510761 259.115635 
L 171.574971 259.115635 
L 171.574971 258.189394 
L 172.342255 258.189394 
L 172.342255 257.263153 
L 173.688525 257.263153 
L 173.697489 256.336912 
L 174.438764 256.336912 
L 174.438764 255.873792 
L 175.158055 255.873792 
L 175.158055 254.947551 
L 175.293514 254.947551 
L 175.293514 254.48443 
L 175.919999 254.48443 
L 175.919999 254.02131 
L 176.286908 254.02131 
L 176.286908 253.558189 
L 177.020586 253.558189 
L 177.020586 253.095069 
L 177.31801 253.095069 
L 177.31801 252.631948 
L 178.132429 252.631948 
L 178.132429 252.168828 
L 179.033027 252.168828 
L 179.033027 251.705707 
L 179.356682 251.705707 
L 179.356682 251.242587 
L 180.729632 251.242587 
L 180.729632 250.779466 
L 182.201581 250.779466 
L 182.201581 250.316346 
L 183.086742 250.316346 
L 183.086742 249.853225 
L 184.93618 249.853225 
L 184.93618 248.926984 
L 185.427852 248.926984 
L 185.427852 248.000743 
L 185.6302 248.000743 
L 185.6302 247.537622 
L 186.131524 247.537622 
L 186.131524 247.074502 
L 186.496666 247.074502 
L 186.571785 246.148261 
L 188.987797 246.148261 
L 188.987797 245.68514 
L 189.532962 245.68514 
L 189.579885 244.758899 
L 191.816415 244.758899 
L 191.816415 244.295779 
L 192.071375 244.295779 
L 192.071375 243.369538 
L 193.751687 243.369538 
L 193.751687 242.443297 
L 196.796882 242.443297 
L 196.861106 241.517056 
L 197.024168 241.517056 
L 197.128529 238.738333 
L 197.189216 238.738333 
L 197.189216 237.812091 
L 197.39767 237.812091 
L 197.39767 236.88585 
L 197.664987 236.88585 
L 197.754318 235.033368 
L 197.797125 235.033368 
L 197.797125 234.107127 
L 199.025346 234.107127 
L 199.028491 232.717766 
L 199.622156 232.717766 
L 199.622156 231.791525 
L 200.319383 231.791525 
L 200.319383 230.865284 
L 201.724555 230.865284 
L 201.726351 229.475922 
L 201.925496 229.475922 
L 201.925496 229.012802 
L 202.562798 229.012802 
L 202.562798 228.086561 
L 203.337223 228.086561 
L 203.403428 225.770958 
L 203.586023 225.770958 
L 203.586023 224.844717 
L 204.037857 224.844717 
L 204.087346 223.455355 
L 204.697799 223.455355 
L 204.697799 222.992235 
L 205.517473 222.992235 
L 205.517473 222.529114 
L 205.851732 222.529114 
L 205.851732 221.602873 
L 206.58883 221.602873 
L 206.630237 218.82415 
L 206.900681 218.82415 
L 206.900681 218.36103 
L 207.325375 218.36103 
L 207.325375 217.897909 
L 207.465534 217.897909 
L 207.465534 216.971668 
L 207.809179 216.971668 
L 207.85664 215.582307 
L 208.046452 215.582307 
L 208.046452 214.656066 
L 208.259557 214.656066 
L 208.259557 214.192945 
L 208.714245 214.192945 
L 208.714245 213.729825 
L 208.942564 213.729825 
L 208.942564 212.803583 
L 209.443012 212.803583 
L 209.443012 211.877342 
L 210.050283 211.877342 
L 210.155288 210.487981 
L 210.314088 210.487981 
L 210.314088 209.56174 
L 210.44914 209.56174 
L 210.530105 208.172378 
L 210.656504 208.172378 
L 210.656504 207.246137 
L 211.483723 207.246137 
L 211.483723 206.319896 
L 211.598321 206.319896 
L 211.598321 205.856776 
L 211.803122 205.856776 
L 211.803122 205.393655 
L 213.021958 205.393655 
L 213.021958 204.930535 
L 213.17123 204.930535 
L 213.17123 204.467414 
L 213.423797 204.467414 
L 213.423797 203.541173 
L 213.58152 203.541173 
L 213.58152 203.078053 
L 214.113094 203.078053 
L 214.113094 202.151812 
L 214.443673 202.151812 
L 214.54646 201.225571 
L 214.835997 201.225571 
L 214.835997 200.76245 
L 215.09704 200.76245 
L 215.09704 200.299329 
L 215.521167 200.299329 
L 215.589444 198.446847 
L 215.900595 198.446847 
L 215.943573 197.057486 
L 216.292603 197.057486 
L 216.378101 196.131245 
L 217.596064 196.131245 
L 217.596064 195.668124 
L 217.937594 195.668124 
L 217.971594 194.278763 
L 218.54242 194.278763 
L 218.54242 193.815642 
L 219.651481 193.815642 
L 219.754005 191.96316 
L 220.319426 191.96316 
L 220.319426 191.50004 
L 220.850897 191.50004 
L 220.850897 190.573799 
L 221.330207 190.573799 
L 221.392259 189.184437 
L 221.914216 189.184437 
L 221.942697 187.795075 
L 222.686268 187.795075 
L 222.686268 186.868834 
L 222.969091 186.868834 
L 222.969091 186.405714 
L 223.63243 186.405714 
L 223.69727 185.479473 
L 223.853777 185.479473 
L 223.853777 185.016352 
L 223.965037 185.016352 
L 223.965037 184.553232 
L 224.309386 184.553232 
L 224.361218 183.626991 
L 224.870517 183.626991 
L 224.920472 182.237629 
L 225.543215 182.237629 
L 225.587168 181.311388 
L 226.484166 181.311388 
L 226.484166 180.848268 
L 226.634018 180.848268 
L 226.634018 179.922027 
L 226.745622 179.922027 
L 226.745622 179.458906 
L 227.141791 179.458906 
L 227.141791 178.995786 
L 227.697498 178.995786 
L 227.759174 177.606424 
L 228.581044 177.606424 
L 228.64505 176.680183 
L 229.419406 176.680183 
L 229.487545 175.290821 
L 229.591074 175.290821 
L 229.651304 172.975219 
L 229.915156 172.975219 
L 229.915156 172.512098 
L 230.075144 172.512098 
L 230.075144 172.048978 
L 230.234027 172.048978 
L 230.234027 171.585857 
L 230.411945 171.585857 
L 230.411945 171.122737 
L 230.576221 171.122737 
L 230.576221 170.659616 
L 230.873712 170.659616 
L 230.873712 169.733375 
L 231.320934 169.733375 
L 231.342972 168.344014 
L 231.615155 168.344014 
L 231.615155 167.417773 
L 231.903538 167.417773 
L 231.903538 166.954652 
L 232.029931 166.954652 
L 232.046672 165.565291 
L 232.209766 165.565291 
L 232.209766 164.63905 
L 232.328375 164.63905 
L 232.331481 163.712808 
L 232.545874 163.712808 
L 232.582193 162.786567 
L 233.124626 162.786567 
L 233.124626 161.860326 
L 233.675444 161.860326 
L 233.765793 160.934085 
L 233.821063 160.934085 
L 233.821063 160.470965 
L 234.162338 160.470965 
L 234.162338 160.007844 
L 234.297305 160.007844 
L 234.297305 159.544724 
L 234.412086 159.544724 
L 234.50721 155.83976 
L 235.140564 155.83976 
L 235.140564 155.376639 
L 235.500371 155.376639 
L 235.500371 154.913519 
L 235.656492 154.913519 
L 235.656492 154.450398 
L 235.999498 154.450398 
L 235.999498 153.987278 
L 236.336257 153.987278 
L 236.446999 152.597916 
L 236.484246 152.597916 
L 236.484246 152.134795 
L 236.774704 152.134795 
L 236.774704 151.671675 
L 236.915333 151.671675 
L 236.915333 151.208554 
L 237.278462 151.208554 
L 237.278462 150.282313 
L 237.475451 150.282313 
L 237.475451 149.819193 
L 237.587485 149.819193 
L 237.612169 147.966711 
L 237.929699 147.966711 
L 237.929699 147.50359 
L 238.396342 147.50359 
L 238.396342 147.04047 
L 238.778649 147.04047 
L 238.778649 146.577349 
L 240.275745 146.577349 
L 240.275745 146.114229 
L 240.397727 146.114229 
L 240.397727 145.651108 
L 240.538467 145.651108 
L 240.538467 144.724867 
L 240.668936 144.724867 
L 240.73064 143.798626 
L 240.969431 143.798626 
L 240.970756 142.872385 
L 241.138579 142.872385 
L 241.212651 141.483024 
L 241.375677 141.483024 
L 241.406992 140.093662 
L 241.60266 140.093662 
L 241.60266 139.630541 
L 241.833302 139.630541 
L 241.833302 139.167421 
L 242.742522 139.167421 
L 242.742522 138.7043 
L 243.341319 138.7043 
L 243.341319 138.24118 
L 243.812028 138.24118 
L 243.812028 137.314939 
L 244.805975 137.314939 
L 244.805975 136.851818 
L 245.045687 136.851818 
L 245.11059 135.462457 
L 245.333731 135.462457 
L 245.333731 134.999336 
L 245.636803 134.999336 
L 245.636803 134.536216 
L 245.906199 134.536216 
L 245.906199 133.609975 
L 246.097952 133.609975 
L 246.097952 133.146854 
L 246.223459 133.146854 
L 246.322745 132.220613 
L 246.401727 132.220613 
L 246.401727 131.757493 
L 246.771897 131.757493 
L 246.771897 130.831252 
L 247.162195 130.831252 
L 247.162195 129.905011 
L 247.514518 129.905011 
L 247.514518 129.44189 
L 248.798355 129.44189 
L 248.798355 128.515649 
L 249.398522 128.515649 
L 249.398522 128.052529 
L 249.750622 128.052529 
L 249.750622 127.589408 
L 249.881402 127.589408 
L 249.881402 126.663167 
L 250.312267 126.663167 
L 250.312267 126.200046 
L 250.59765 126.200046 
L 250.59765 125.736926 
L 251.03499 125.736926 
L 251.03499 125.273805 
L 251.833777 125.273805 
L 251.833777 124.810685 
L 251.970088 124.810685 
L 251.970088 124.347564 
L 252.542294 124.347564 
L 252.542294 123.884444 
L 252.921559 123.884444 
L 252.921559 123.421323 
L 253.130658 123.421323 
L 253.130658 122.958203 
L 253.56604 122.958203 
L 253.56604 122.031962 
L 253.726888 122.031962 
L 253.726888 121.568841 
L 254.451465 121.568841 
L 254.451465 121.105721 
L 254.957257 121.105721 
L 254.957257 120.17948 
L 255.885055 120.17948 
L 255.983836 118.790118 
L 256.782111 118.790118 
L 256.782111 118.326998 
L 258.222611 118.326998 
L 258.222611 117.863877 
L 338.688 117.863877 
L 338.688 117.863877 
" style="fill:none;stroke:#000080;stroke-linecap:square;stroke-width:1.5;"/>
   </g>
   <g id="line2d_36">
    <defs>
     <path d="M 0 6 
C 1.591219 6 3.117479 5.367802 4.242641 4.242641 
C 5.367802 3.117479 6 1.591219 6 0 
C 6 -1.591219 5.367802 -3.117479 4.242641 -4.242641 
C 3.117479 -5.367802 1.591219 -6 0 -6 
C -1.591219 -6 -3.117479 -5.367802 -4.242641 -4.242641 
C -5.367802 -3.117479 -6 -1.591219 -6 0 
C -6 1.591219 -5.367802 3.117479 -4.242641 4.242641 
C -3.117479 5.367802 -1.591219 6 0 6 
z
" id="mc1c5f27541" style="stroke:#000080;stroke-width:1.5;"/>
    </defs>
    <g>
     <use style="fill-opacity:0;stroke:#000080;stroke-width:1.5;" x="69.687988" xlink:href="#mc1c5f27541" y="289.218469"/>
     <use style="fill-opacity:0;stroke:#000080;stroke-width:1.5;" x="140.165274" xlink:href="#mc1c5f27541" y="274.861733"/>
     <use style="fill-opacity:0;stroke:#000080;stroke-width:1.5;" x="211.483723" xlink:href="#mc1c5f27541" y="207.246137"/>
     <use style="fill-opacity:0;stroke:#000080;stroke-width:1.5;" x="258.222611" xlink:href="#mc1c5f27541" y="118.326998"/>
     <use style="fill-opacity:0;stroke:#000080;stroke-width:1.5;" x="258.222611" xlink:href="#mc1c5f27541" y="117.863877"/>
     <use style="fill-opacity:0;stroke:#000080;stroke-width:1.5;" x="338.688" xlink:href="#mc1c5f27541" y="117.863877"/>
    </g>
   </g>
   <g id="line2d_37">
    <path style="fill:none;stroke:#000080;stroke-linecap:square;stroke-width:1.5;"/>
    <g/>
   </g>
   <g id="line2d_38">
    <path clip-path="url(#p11403e1bc4)" d="M 258.377317 117.863877 
" style="fill:none;stroke:#000080;stroke-linecap:square;stroke-width:1.5;"/>
    <defs>
     <path d="M -12 12 
L 12 -12 
M -12 -12 
L 12 12 
" id="m888947decc" style="stroke:#000080;"/>
    </defs>
    <g clip-path="url(#p11403e1bc4)">
     <use style="fill:#000080;stroke:#000080;" x="258.377317" xlink:href="#m888947decc" y="117.863877"/>
    </g>
   </g>
   <g id="line2d_39">
    <defs>
     <path d="M 0 1.5 
C 0.397805 1.5 0.77937 1.341951 1.06066 1.06066 
C 1.341951 0.77937 1.5 0.397805 1.5 0 
C 1.5 -0.397805 1.341951 -0.77937 1.06066 -1.06066 
C 0.77937 -1.341951 0.397805 -1.5 0 -1.5 
C -0.397805 -1.5 -0.77937 -1.341951 -1.06066 -1.06066 
C -1.341951 -0.77937 -1.5 -0.397805 -1.5 0 
C -1.5 0.397805 -1.341951 0.77937 -1.06066 1.06066 
C -0.77937 1.341951 -0.397805 1.5 0 1.5 
z
" id="m33ea97baee" style="stroke:#ff00ff;"/>
    </defs>
    <g>
     <use style="fill:#ff00ff;stroke:#ff00ff;" x="257.838332" xlink:href="#m33ea97baee" y="179.922027"/>
     <use style="fill:#ff00ff;stroke:#ff00ff;" x="257.838332" xlink:href="#m33ea97baee" y="179.922027"/>
    </g>
   </g>
   <g id="line2d_40">
    <path d="M 29.53256 298.944 
L 29.53256 291.534072 
L 128.827155 291.534072 
L 128.827155 291.070951 
L 129.06046 291.070951 
L 129.06046 290.607831 
L 137.805906 290.607831 
L 137.805906 290.14471 
L 138.324456 290.14471 
L 138.324456 289.68159 
L 140.256979 289.68159 
L 140.256979 289.218469 
L 142.024126 289.218469 
L 142.024126 288.755349 
L 142.405626 288.755349 
L 142.405626 288.292228 
L 142.726112 288.292228 
L 142.726112 286.902867 
L 143.221802 286.902867 
L 143.221802 286.439746 
L 143.87806 286.439746 
L 143.87806 285.976625 
L 144.050606 285.976625 
L 144.099593 285.050384 
L 144.414696 285.050384 
L 144.414696 284.587264 
L 144.794859 284.587264 
L 144.794859 284.124143 
L 144.958609 284.124143 
L 144.958609 283.661023 
L 145.327221 283.661023 
L 145.327221 283.197902 
L 145.598655 283.197902 
L 145.598655 282.734782 
L 146.150926 282.734782 
L 146.237689 279.956059 
L 146.40993 279.956059 
L 146.40993 279.492938 
L 146.644018 279.492938 
L 146.644018 279.029818 
L 146.791364 279.029818 
L 146.791364 278.566697 
L 147.164632 278.566697 
L 147.164632 278.103577 
L 147.327999 278.103577 
L 147.388869 277.177336 
L 147.4697 277.177336 
L 147.509976 276.251095 
L 148.219468 276.251095 
L 148.296548 274.861733 
L 148.373289 274.861733 
L 148.373289 274.398612 
L 148.676918 274.398612 
L 148.676918 273.935492 
L 148.938326 273.935492 
L 148.938326 272.54613 
L 150.033689 272.54613 
L 150.103169 271.619889 
L 150.155097 271.619889 
L 150.206871 269.767407 
L 150.412445 269.767407 
L 150.412445 268.841166 
L 150.531253 268.841166 
L 150.531253 267.914925 
L 150.882897 267.914925 
L 150.882897 267.451805 
L 151.031458 267.451805 
L 151.080698 266.525564 
L 151.146137 266.525564 
L 151.146137 266.062443 
L 151.260066 266.062443 
L 151.260066 265.599323 
L 151.517715 265.599323 
L 151.517715 265.136202 
L 152.314453 265.136202 
L 152.314453 264.673082 
L 152.466496 264.673082 
L 152.466496 264.209961 
L 152.617226 264.209961 
L 152.617226 261.894358 
L 153.207444 261.894358 
L 153.265382 259.115635 
L 153.323128 259.115635 
L 153.323128 258.652515 
L 153.665645 258.652515 
L 153.679772 257.726274 
L 153.848404 257.726274 
L 153.918189 256.800033 
L 154.221969 256.800033 
L 154.221969 256.336912 
L 154.866947 256.336912 
L 154.866947 255.873792 
L 155.102793 255.873792 
L 155.102793 255.410671 
L 155.30979 255.410671 
L 155.30979 254.947551 
L 155.928852 254.947551 
L 156.003167 254.02131 
L 156.040206 254.02131 
L 156.040206 253.558189 
L 156.187581 253.558189 
L 156.187581 253.095069 
L 156.478647 253.095069 
L 156.478647 252.168828 
L 156.705677 252.168828 
L 156.705677 251.242587 
L 157.652944 251.242587 
L 157.652944 250.316346 
L 157.887482 250.316346 
L 157.887482 249.853225 
L 158.042106 249.853225 
L 158.042106 248.926984 
L 159.056614 248.926984 
L 159.056614 248.463863 
L 159.618067 248.463863 
L 159.698248 247.074502 
L 159.906985 247.074502 
L 159.906985 245.68514 
L 160.103486 245.68514 
L 160.132771 244.295779 
L 161.973109 244.295779 
L 161.973109 243.832658 
L 162.182487 243.832658 
L 162.182487 243.369538 
L 163.605703 243.369538 
L 163.605703 242.906417 
L 164.055418 242.906417 
L 164.055418 241.980176 
L 164.440577 241.980176 
L 164.440577 241.053935 
L 165.105794 241.053935 
L 165.105794 240.590815 
L 166.385083 240.590815 
L 166.385083 239.664574 
L 166.902089 239.664574 
L 166.902089 238.738333 
L 168.982583 238.738333 
L 169.07628 237.348971 
L 170.008719 237.348971 
L 170.008719 236.42273 
L 170.277909 236.42273 
L 170.277909 235.496489 
L 170.392016 235.496489 
L 170.392016 235.033368 
L 171.217072 235.033368 
L 171.217072 234.570248 
L 172.07384 234.570248 
L 172.07384 234.107127 
L 172.22076 234.107127 
L 172.22076 233.180886 
L 173.719878 233.180886 
L 173.719878 232.254645 
L 174.305129 232.254645 
L 174.305129 231.328404 
L 176.819447 231.328404 
L 176.819447 230.865284 
L 177.83102 230.865284 
L 177.83102 230.402163 
L 178.034867 230.402163 
L 178.034867 229.475922 
L 179.920779 229.475922 
L 179.920779 228.549681 
L 180.237753 228.549681 
L 180.237753 228.086561 
L 181.971695 228.086561 
L 181.971695 227.16032 
L 182.886832 227.16032 
L 182.886832 226.697199 
L 183.894213 226.697199 
L 183.919165 224.844717 
L 184.171662 224.844717 
L 184.171662 223.918476 
L 184.393883 223.918476 
L 184.393883 223.455355 
L 184.606119 223.455355 
L 184.606119 222.992235 
L 185.498599 222.992235 
L 185.498599 222.065994 
L 185.801153 222.065994 
L 185.801153 221.139753 
L 186.434179 221.139753 
L 186.434179 220.676632 
L 186.965647 220.676632 
L 186.965647 219.750391 
L 188.104364 219.750391 
L 188.104364 219.287271 
L 188.728569 219.287271 
L 188.728569 218.36103 
L 190.710346 218.36103 
L 190.710346 217.434789 
L 191.293399 217.434789 
L 191.293399 216.508548 
L 192.055745 216.508548 
L 192.055745 216.045427 
L 193.313473 216.045427 
L 193.313473 215.119186 
L 194.554448 215.119186 
L 194.554448 214.656066 
L 195.140697 214.656066 
L 195.140697 213.729825 
L 196.667719 213.729825 
L 196.667719 212.803583 
L 197.842072 212.803583 
L 197.842072 212.340463 
L 200.345651 212.340463 
L 200.345651 211.414222 
L 201.881042 211.414222 
L 201.881042 210.487981 
L 202.744197 210.487981 
L 202.744197 210.02486 
L 203.197451 210.02486 
L 203.197451 209.56174 
L 203.570677 209.56174 
L 203.570677 208.635499 
L 206.32106 208.635499 
L 206.32106 207.709258 
L 211.827296 207.709258 
L 211.827296 206.783017 
L 211.97613 206.783017 
L 211.97613 205.856776 
L 213.978375 205.856776 
L 213.978375 204.930535 
L 214.153659 204.930535 
L 214.153659 204.467414 
L 214.804629 204.467414 
L 214.804629 204.004294 
L 215.661493 204.004294 
L 215.661493 203.541173 
L 215.837528 203.541173 
L 215.837528 203.078053 
L 218.221365 203.078053 
L 218.221365 202.151812 
L 220.686337 202.151812 
L 220.686337 201.225571 
L 221.204555 201.225571 
L 221.204555 200.76245 
L 223.716115 200.76245 
L 223.716115 200.299329 
L 224.466127 200.299329 
L 224.466127 199.836209 
L 225.292502 199.836209 
L 225.315971 198.909968 
L 225.707015 198.909968 
L 225.78156 197.520606 
L 225.95882 197.520606 
L 225.95882 197.057486 
L 226.657471 197.057486 
L 226.657471 196.131245 
L 227.2165 196.131245 
L 227.2165 195.668124 
L 228.453485 195.668124 
L 228.453485 195.205004 
L 228.912929 195.205004 
L 228.912929 194.741883 
L 230.793327 194.741883 
L 230.823324 193.815642 
L 231.847743 193.815642 
L 231.847743 193.352522 
L 232.157139 193.352522 
L 232.157139 192.889401 
L 234.667955 192.889401 
L 234.778711 191.50004 
L 240.058633 191.50004 
L 240.058633 191.036919 
L 240.310867 191.036919 
L 240.356115 188.721316 
L 241.567396 188.721316 
L 241.567396 188.258196 
L 244.873439 188.258196 
L 244.873439 187.795075 
L 245.476098 187.795075 
L 245.476098 187.331955 
L 246.304912 187.331955 
L 246.304912 186.868834 
L 246.909298 186.868834 
L 246.909298 185.942593 
L 248.210505 185.942593 
L 248.210505 185.016352 
L 249.94306 185.016352 
L 249.94306 184.553232 
L 250.348839 184.553232 
L 250.348839 183.626991 
L 251.347335 183.626991 
L 251.347335 183.16387 
L 251.492198 183.16387 
L 251.492198 182.70075 
L 252.532934 182.70075 
L 252.532934 182.237629 
L 254.544047 182.237629 
L 254.544047 181.774509 
L 256.900532 181.774509 
L 256.958628 180.385147 
L 257.838332 180.385147 
L 257.838332 179.922027 
L 338.688 179.922027 
L 338.688 179.922027 
" style="fill:none;stroke:#ff00ff;stroke-linecap:square;stroke-width:1.5;"/>
   </g>
   <g id="line2d_41">
    <defs>
     <path d="M 0 8.485281 
L 5.091169 0 
L 0 -8.485281 
L -5.091169 0 
z
" id="m33f3e7f878" style="stroke:#ff00ff;stroke-linejoin:miter;stroke-width:1.5;"/>
    </defs>
    <g>
     <use style="fill-opacity:0;stroke:#ff00ff;stroke-linejoin:miter;stroke-width:1.5;" x="143.221802" xlink:href="#m33f3e7f878" y="286.902867"/>
     <use style="fill-opacity:0;stroke:#ff00ff;stroke-linejoin:miter;stroke-width:1.5;" x="203.570677" xlink:href="#m33f3e7f878" y="209.56174"/>
     <use style="fill-opacity:0;stroke:#ff00ff;stroke-linejoin:miter;stroke-width:1.5;" x="251.492198" xlink:href="#m33f3e7f878" y="183.16387"/>
     <use style="fill-opacity:0;stroke:#ff00ff;stroke-linejoin:miter;stroke-width:1.5;" x="257.838332" xlink:href="#m33f3e7f878" y="179.922027"/>
     <use style="fill-opacity:0;stroke:#ff00ff;stroke-linejoin:miter;stroke-width:1.5;" x="338.688" xlink:href="#m33f3e7f878" y="179.922027"/>
    </g>
   </g>
   <g id="line2d_42">
    <path style="fill:none;stroke:#ff00ff;stroke-linecap:square;stroke-width:1.5;"/>
    <g/>
   </g>
   <g id="line2d_43">
    <path clip-path="url(#p11403e1bc4)" d="M 258.381398 179.922027 
" style="fill:none;stroke:#ff00ff;stroke-linecap:square;stroke-width:1.5;"/>
    <defs>
     <path d="M -12 12 
L 12 -12 
M -12 -12 
L 12 12 
" id="m5bf48fc170" style="stroke:#ff00ff;"/>
    </defs>
    <g clip-path="url(#p11403e1bc4)">
     <use style="fill:#ff00ff;stroke:#ff00ff;" x="258.381398" xlink:href="#m5bf48fc170" y="179.922027"/>
    </g>
   </g>
   <g id="line2d_44">
    <defs>
     <path d="M 0 1.5 
C 0.397805 1.5 0.77937 1.341951 1.06066 1.06066 
C 1.341951 0.77937 1.5 0.397805 1.5 0 
C 1.5 -0.397805 1.341951 -0.77937 1.06066 -1.06066 
C 0.77937 -1.341951 0.397805 -1.5 0 -1.5 
C -0.397805 -1.5 -0.77937 -1.341951 -1.06066 -1.06066 
C -1.341951 -0.77937 -1.5 -0.397805 -1.5 0 
C -1.5 0.397805 -1.341951 0.77937 -1.06066 1.06066 
C -0.77937 1.341951 -0.397805 1.5 0 1.5 
z
" id="me2c9f60fad" style="stroke:#ff7500;"/>
    </defs>
    <g>
     <use style="fill:#ff7500;stroke:#ff7500;" x="258.096319" xlink:href="#me2c9f60fad" y="173.438339"/>
     <use style="fill:#ff7500;stroke:#ff7500;" x="258.096319" xlink:href="#me2c9f60fad" y="173.438339"/>
    </g>
   </g>
   <g id="line2d_45">
    <path d="M 130.76994 298.944 
L 130.76994 298.017759 
L 139.253002 298.017759 
L 139.253002 297.554638 
L 150.480434 297.554638 
L 150.480434 297.091518 
L 150.965587 297.091518 
L 150.965587 296.165277 
L 152.707042 296.165277 
L 152.707042 295.702156 
L 154.399019 295.702156 
L 154.399019 295.239036 
L 155.399584 295.239036 
L 155.399584 294.775915 
L 157.596634 294.775915 
L 157.697862 293.386554 
L 157.854169 293.386554 
L 157.854169 292.923433 
L 159.149734 292.923433 
L 159.149734 292.460313 
L 159.405822 292.460313 
L 159.497101 291.534072 
L 159.608019 291.534072 
L 159.648178 289.218469 
L 159.758143 289.218469 
L 159.867418 288.292228 
L 159.926735 288.292228 
L 159.926735 287.365987 
L 160.054568 287.365987 
L 160.054568 286.902867 
L 160.585265 286.902867 
L 160.585265 285.976625 
L 161.347658 285.976625 
L 161.347658 285.513505 
L 161.501628 285.513505 
L 161.510643 284.587264 
L 161.672119 284.587264 
L 161.672119 284.124143 
L 162.069386 284.124143 
L 162.156452 282.734782 
L 162.251725 282.734782 
L 162.303474 281.808541 
L 162.389382 281.808541 
L 162.389382 279.956059 
L 162.779197 279.956059 
L 162.779197 279.492938 
L 163.053576 279.492938 
L 163.086542 278.103577 
L 163.348054 278.103577 
L 163.356164 277.177336 
L 163.875347 277.177336 
L 163.875347 276.251095 
L 164.148635 276.251095 
L 164.148635 275.324854 
L 164.432956 275.324854 
L 164.493826 273.935492 
L 164.809955 273.935492 
L 164.809955 273.472371 
L 165.00282 273.472371 
L 165.069087 272.54613 
L 165.135103 272.54613 
L 165.135103 272.08301 
L 165.324425 272.08301 
L 165.389484 271.156769 
L 165.597481 271.156769 
L 165.618857 269.767407 
L 166.10341 269.767407 
L 166.138005 268.841166 
L 166.275702 268.841166 
L 166.275702 268.378046 
L 166.391896 268.378046 
L 166.391896 267.914925 
L 166.601807 267.914925 
L 166.682389 266.988684 
L 166.902089 266.988684 
L 166.902089 266.062443 
L 167.027338 266.062443 
L 167.079807 263.746841 
L 167.320442 263.746841 
L 167.320442 263.28372 
L 167.532297 263.28372 
L 167.55143 261.894358 
L 167.659453 261.894358 
L 167.678446 260.968117 
L 167.804544 260.968117 
L 167.804544 260.504997 
L 167.998212 260.504997 
L 167.998212 260.041876 
L 168.397438 260.041876 
L 168.397438 259.578756 
L 168.602679 259.578756 
L 168.710367 256.336912 
L 168.911979 256.336912 
L 169.017779 254.947551 
L 169.146224 254.947551 
L 169.146224 254.02131 
L 169.262177 254.02131 
L 169.337135 251.705707 
L 169.925477 251.705707 
L 169.97547 250.779466 
L 170.091567 250.779466 
L 170.091567 250.316346 
L 170.28336 250.316346 
L 170.28336 249.853225 
L 170.532264 249.853225 
L 170.537636 248.463863 
L 170.687376 248.463863 
L 170.756464 247.537622 
L 171.08745 247.537622 
L 171.118647 246.611381 
L 171.371357 246.611381 
L 171.453088 245.68514 
L 171.549649 245.68514 
L 171.549649 245.22202 
L 171.915749 245.22202 
L 171.960357 244.295779 
L 172.142557 244.295779 
L 172.142557 243.369538 
L 172.322872 243.369538 
L 172.414747 241.980176 
L 172.544479 241.980176 
L 172.544479 241.053935 
L 172.946705 241.053935 
L 172.946705 240.590815 
L 173.234351 240.590815 
L 173.234351 239.664574 
L 173.38554 239.664574 
L 173.38554 238.738333 
L 174.083025 238.738333 
L 174.166101 236.42273 
L 174.430173 236.42273 
L 174.430173 235.496489 
L 174.703001 235.496489 
L 174.703001 234.570248 
L 175.573393 234.570248 
L 175.573393 233.644007 
L 176.061431 233.644007 
L 176.061431 232.254645 
L 176.325491 232.254645 
L 176.3409 230.865284 
L 176.634902 230.865284 
L 176.634902 229.939043 
L 177.390674 229.939043 
L 177.390674 229.012802 
L 177.689034 229.012802 
L 177.689034 228.086561 
L 178.069773 228.086561 
L 178.069773 227.62344 
L 178.578383 227.62344 
L 178.578383 226.697199 
L 178.843919 226.697199 
L 178.843919 226.234079 
L 179.67762 226.234079 
L 179.687158 224.844717 
L 179.798045 224.844717 
L 179.798045 224.381596 
L 180.176054 224.381596 
L 180.280813 222.529114 
L 181.781069 222.529114 
L 181.781069 221.602873 
L 182.38769 221.602873 
L 182.496245 218.82415 
L 183.237777 218.82415 
L 183.237777 217.897909 
L 184.347719 217.897909 
L 184.420555 216.045427 
L 185.146604 216.045427 
L 185.146604 215.119186 
L 185.395807 215.119186 
L 185.450705 214.192945 
L 186.254089 214.192945 
L 186.254089 213.729825 
L 186.97402 213.729825 
L 186.97402 212.803583 
L 188.465431 212.803583 
L 188.568871 211.877342 
L 188.667904 211.877342 
L 188.667904 211.414222 
L 189.077067 211.414222 
L 189.077067 210.951101 
L 189.596099 210.951101 
L 189.596099 210.487981 
L 189.778804 210.487981 
L 189.778804 210.02486 
L 191.971095 210.02486 
L 191.971095 209.098619 
L 192.243943 209.098619 
L 192.243943 208.172378 
L 192.453075 208.172378 
L 192.454604 206.783017 
L 194.700181 206.783017 
L 194.799336 205.393655 
L 195.355558 205.393655 
L 195.355558 204.467414 
L 195.89584 204.467414 
L 195.89584 203.541173 
L 196.071864 203.541173 
L 196.071864 203.078053 
L 196.356457 203.078053 
L 196.356457 202.151812 
L 196.547265 202.151812 
L 196.579869 201.225571 
L 197.133205 201.225571 
L 197.133205 200.76245 
L 197.308802 200.76245 
L 197.308802 200.299329 
L 197.8286 200.299329 
L 197.8286 199.836209 
L 198.462705 199.836209 
L 198.462705 199.373088 
L 198.770784 199.373088 
L 198.865226 197.520606 
L 199.170496 197.520606 
L 199.271076 196.131245 
L 199.806615 196.131245 
L 199.806615 195.668124 
L 200.003029 195.668124 
L 200.003029 194.741883 
L 200.545732 194.741883 
L 200.633926 193.815642 
L 200.728334 193.815642 
L 200.728334 192.889401 
L 201.497627 192.889401 
L 201.497627 192.426281 
L 202.1566 192.426281 
L 202.1566 191.96316 
L 202.394193 191.96316 
L 202.394193 191.036919 
L 202.990683 191.036919 
L 203.087314 189.647558 
L 203.185064 189.647558 
L 203.185064 189.184437 
L 203.926585 189.184437 
L 204.018967 187.795075 
L 204.405259 187.795075 
L 204.405259 186.868834 
L 204.599052 186.868834 
L 204.599052 186.405714 
L 205.373795 186.405714 
L 205.373795 185.942593 
L 206.251219 185.942593 
L 206.251219 185.479473 
L 206.818378 185.479473 
L 206.818378 184.553232 
L 207.549992 184.553232 
L 207.549992 184.090111 
L 208.107605 184.090111 
L 208.206989 182.70075 
L 209.181995 182.70075 
L 209.181995 182.237629 
L 209.31677 182.237629 
L 209.31677 181.774509 
L 211.26888 181.774509 
L 211.26888 180.848268 
L 211.419445 180.848268 
L 211.419445 180.385147 
L 212.560045 180.385147 
L 212.560045 179.458906 
L 213.639223 179.458906 
L 213.639223 178.995786 
L 213.933386 178.995786 
L 213.933386 178.532665 
L 215.726407 178.532665 
L 215.726407 178.069545 
L 218.683274 178.069545 
L 218.683274 177.606424 
L 234.625389 177.606424 
L 234.625389 177.143304 
L 234.74115 177.143304 
L 234.74115 176.217062 
L 239.731113 176.217062 
L 239.731113 175.753942 
L 244.932276 175.753942 
L 244.932276 175.290821 
L 246.554092 175.290821 
L 246.554092 174.36458 
L 258.096319 174.36458 
L 258.096319 173.438339 
L 338.688 173.438339 
L 338.688 173.438339 
" style="fill:none;stroke:#ff7500;stroke-linecap:square;stroke-width:1.5;"/>
   </g>
   <g id="line2d_46">
    <defs>
     <path d="M 0 -6 
L -1.347084 -1.854102 
L -5.706339 -1.854102 
L -2.179628 0.708204 
L -3.526712 4.854102 
L -0 2.291796 
L 3.526712 4.854102 
L 2.179628 0.708204 
L 5.706339 -1.854102 
L 1.347084 -1.854102 
z
" id="mb920438fc5" style="stroke:#ff7500;stroke-linejoin:bevel;stroke-width:1.5;"/>
    </defs>
    <g>
     <use style="fill-opacity:0;stroke:#ff7500;stroke-linejoin:bevel;stroke-width:1.5;" x="182.496245" xlink:href="#mb920438fc5" y="220.676632"/>
     <use style="fill-opacity:0;stroke:#ff7500;stroke-linejoin:bevel;stroke-width:1.5;" x="239.731113" xlink:href="#mb920438fc5" y="175.753942"/>
     <use style="fill-opacity:0;stroke:#ff7500;stroke-linejoin:bevel;stroke-width:1.5;" x="258.096319" xlink:href="#mb920438fc5" y="173.438339"/>
     <use style="fill-opacity:0;stroke:#ff7500;stroke-linejoin:bevel;stroke-width:1.5;" x="258.096319" xlink:href="#mb920438fc5" y="173.438339"/>
     <use style="fill-opacity:0;stroke:#ff7500;stroke-linejoin:bevel;stroke-width:1.5;" x="338.688" xlink:href="#mb920438fc5" y="173.438339"/>
    </g>
   </g>
   <g id="line2d_47">
    <path style="fill:none;stroke:#ff7500;stroke-linecap:square;stroke-width:1.5;"/>
    <g/>
   </g>
   <g id="line2d_48">
    <path clip-path="url(#p11403e1bc4)" d="M 258.377178 173.438339 
" style="fill:none;stroke:#ff7500;stroke-linecap:square;stroke-width:1.5;"/>
    <defs>
     <path d="M -12 12 
L 12 -12 
M -12 -12 
L 12 12 
" id="m423e2a94cc" style="stroke:#ff7500;"/>
    </defs>
    <g clip-path="url(#p11403e1bc4)">
     <use style="fill:#ff7500;stroke:#ff7500;" x="258.377178" xlink:href="#m423e2a94cc" y="173.438339"/>
    </g>
   </g>
   <g id="line2d_49">
    <path d="M 338.688 179.922027 
L 369.60768 293.571802 
" style="fill:none;stroke:#ff00ff;stroke-linecap:square;stroke-width:1.5;"/>
    <g>
     <use style="fill-opacity:0;stroke:#ff00ff;stroke-linejoin:miter;stroke-width:1.5;" x="338.688" xlink:href="#m33f3e7f878" y="179.922027"/>
     <use style="fill-opacity:0;stroke:#ff00ff;stroke-linejoin:miter;stroke-width:1.5;" x="369.60768" xlink:href="#m33f3e7f878" y="293.571802"/>
    </g>
   </g>
   <g id="line2d_50">
    <path d="M 338.688 173.438339 
L 369.60768 207.616634 
" style="fill:none;stroke:#ff7500;stroke-linecap:square;stroke-width:1.5;"/>
    <g>
     <use style="fill-opacity:0;stroke:#ff7500;stroke-linejoin:bevel;stroke-width:1.5;" x="338.688" xlink:href="#mb920438fc5" y="173.438339"/>
     <use style="fill-opacity:0;stroke:#ff7500;stroke-linejoin:bevel;stroke-width:1.5;" x="369.60768" xlink:href="#mb920438fc5" y="207.616634"/>
    </g>
   </g>
   <g id="line2d_51">
    <path d="M 338.688 117.863877 
L 369.60768 121.661465 
" style="fill:none;stroke:#000080;stroke-linecap:square;stroke-width:1.5;"/>
    <g>
     <use style="fill-opacity:0;stroke:#000080;stroke-width:1.5;" x="338.688" xlink:href="#mc1c5f27541" y="117.863877"/>
     <use style="fill-opacity:0;stroke:#000080;stroke-width:1.5;" x="369.60768" xlink:href="#mc1c5f27541" y="121.661465"/>
    </g>
   </g>
   <g id="line2d_52">
    <path d="M 338.688 298.944 
L 338.688 30.334099 
" style="fill:none;stroke:#000000;stroke-linecap:square;stroke-width:1.5;"/>
   </g>
   <g id="patch_3">
    <path d="M 57.6 298.944 
L 57.6 27.648 
" style="fill:none;stroke:#000000;stroke-linecap:square;stroke-linejoin:miter;stroke-width:0.8;"/>
   </g>
   <g id="patch_4">
    <path d="M 338.688 298.944 
L 338.688 27.648 
" style="fill:none;stroke:#000000;stroke-linecap:square;stroke-linejoin:miter;stroke-width:0.8;"/>
   </g>
   <g id="patch_5">
    <path d="M 57.6 298.944 
L 338.688 298.944 
" style="fill:none;stroke:#000000;stroke-linecap:square;stroke-linejoin:miter;stroke-width:0.8;"/>
   </g>
   <g id="patch_6">
    <path d="M 57.6 27.648 
L 338.688 27.648 
" style="fill:none;stroke:#000000;stroke-linecap:square;stroke-linejoin:miter;stroke-width:0.8;"/>
   </g>
   <g id="text_13">
    <!-- NSGA-II-M -->
    <g transform="translate(375.22944 298.262739)scale(0.17 -0.17)">
     <defs>
      <path d="M 9.8125 72.90625 
L 23.09375 72.90625 
L 55.421875 11.921875 
L 55.421875 72.90625 
L 64.984375 72.90625 
L 64.984375 0 
L 51.703125 0 
L 19.390625 60.984375 
L 19.390625 0 
L 9.8125 0 
z
" id="DejaVuSans-78"/>
      <path d="M 53.515625 70.515625 
L 53.515625 60.890625 
Q 47.90625 63.578125 42.921875 64.890625 
Q 37.9375 66.21875 33.296875 66.21875 
Q 25.25 66.21875 20.875 63.09375 
Q 16.5 59.96875 16.5 54.203125 
Q 16.5 49.359375 19.40625 46.890625 
Q 22.3125 44.4375 30.421875 42.921875 
L 36.375 41.703125 
Q 47.40625 39.59375 52.65625 34.296875 
Q 57.90625 29 57.90625 20.125 
Q 57.90625 9.515625 50.796875 4.046875 
Q 43.703125 -1.421875 29.984375 -1.421875 
Q 24.8125 -1.421875 18.96875 -0.25 
Q 13.140625 0.921875 6.890625 3.21875 
L 6.890625 13.375 
Q 12.890625 10.015625 18.65625 8.296875 
Q 24.421875 6.59375 29.984375 6.59375 
Q 38.421875 6.59375 43.015625 9.90625 
Q 47.609375 13.234375 47.609375 19.390625 
Q 47.609375 24.75 44.3125 27.78125 
Q 41.015625 30.8125 33.5 32.328125 
L 27.484375 33.5 
Q 16.453125 35.6875 11.515625 40.375 
Q 6.59375 45.0625 6.59375 53.421875 
Q 6.59375 63.09375 13.40625 68.65625 
Q 20.21875 74.21875 32.171875 74.21875 
Q 37.3125 74.21875 42.625 73.28125 
Q 47.953125 72.359375 53.515625 70.515625 
z
" id="DejaVuSans-83"/>
      <path d="M 59.515625 10.40625 
L 59.515625 29.984375 
L 43.40625 29.984375 
L 43.40625 38.09375 
L 69.28125 38.09375 
L 69.28125 6.78125 
Q 63.578125 2.734375 56.6875 0.65625 
Q 49.8125 -1.421875 42 -1.421875 
Q 24.90625 -1.421875 15.25 8.5625 
Q 5.609375 18.5625 5.609375 36.375 
Q 5.609375 54.25 15.25 64.234375 
Q 24.90625 74.21875 42 74.21875 
Q 49.125 74.21875 55.546875 72.453125 
Q 61.96875 70.703125 67.390625 67.28125 
L 67.390625 56.78125 
Q 61.921875 61.421875 55.765625 63.765625 
Q 49.609375 66.109375 42.828125 66.109375 
Q 29.4375 66.109375 22.71875 58.640625 
Q 16.015625 51.171875 16.015625 36.375 
Q 16.015625 21.625 22.71875 14.15625 
Q 29.4375 6.6875 42.828125 6.6875 
Q 48.046875 6.6875 52.140625 7.59375 
Q 56.25 8.5 59.515625 10.40625 
z
" id="DejaVuSans-71"/>
      <path d="M 34.1875 63.1875 
L 20.796875 26.90625 
L 47.609375 26.90625 
z
M 28.609375 72.90625 
L 39.796875 72.90625 
L 67.578125 0 
L 57.328125 0 
L 50.6875 18.703125 
L 17.828125 18.703125 
L 11.1875 0 
L 0.78125 0 
z
" id="DejaVuSans-65"/>
      <path d="M 9.8125 72.90625 
L 19.671875 72.90625 
L 19.671875 0 
L 9.8125 0 
z
" id="DejaVuSans-73"/>
      <path d="M 9.8125 72.90625 
L 24.515625 72.90625 
L 43.109375 23.296875 
L 61.8125 72.90625 
L 76.515625 72.90625 
L 76.515625 0 
L 66.890625 0 
L 66.890625 64.015625 
L 48.09375 14.015625 
L 38.1875 14.015625 
L 19.390625 64.015625 
L 19.390625 0 
L 9.8125 0 
z
" id="DejaVuSans-77"/>
     </defs>
     <use xlink:href="#DejaVuSans-78"/>
     <use x="74.804688" xlink:href="#DejaVuSans-83"/>
     <use x="138.28125" xlink:href="#DejaVuSans-71"/>
     <use x="215.771484" xlink:href="#DejaVuSans-65"/>
     <use x="281.929688" xlink:href="#DejaVuSans-45"/>
     <use x="318.013672" xlink:href="#DejaVuSans-73"/>
     <use x="347.505859" xlink:href="#DejaVuSans-73"/>
     <use x="376.998047" xlink:href="#DejaVuSans-45"/>
     <use x="413.082031" xlink:href="#DejaVuSans-77"/>
    </g>
   </g>
   <g id="text_14">
    <!-- SMS-EMOA- -->
    <g transform="translate(375.22944 212.307571)scale(0.17 -0.17)">
     <defs>
      <path d="M 9.8125 72.90625 
L 55.90625 72.90625 
L 55.90625 64.59375 
L 19.671875 64.59375 
L 19.671875 43.015625 
L 54.390625 43.015625 
L 54.390625 34.71875 
L 19.671875 34.71875 
L 19.671875 8.296875 
L 56.78125 8.296875 
L 56.78125 0 
L 9.8125 0 
z
" id="DejaVuSans-69"/>
      <path d="M 39.40625 66.21875 
Q 28.65625 66.21875 22.328125 58.203125 
Q 16.015625 50.203125 16.015625 36.375 
Q 16.015625 22.609375 22.328125 14.59375 
Q 28.65625 6.59375 39.40625 6.59375 
Q 50.140625 6.59375 56.421875 14.59375 
Q 62.703125 22.609375 62.703125 36.375 
Q 62.703125 50.203125 56.421875 58.203125 
Q 50.140625 66.21875 39.40625 66.21875 
z
M 39.40625 74.21875 
Q 54.734375 74.21875 63.90625 63.9375 
Q 73.09375 53.65625 73.09375 36.375 
Q 73.09375 19.140625 63.90625 8.859375 
Q 54.734375 -1.421875 39.40625 -1.421875 
Q 24.03125 -1.421875 14.8125 8.828125 
Q 5.609375 19.09375 5.609375 36.375 
Q 5.609375 53.65625 14.8125 63.9375 
Q 24.03125 74.21875 39.40625 74.21875 
z
" id="DejaVuSans-79"/>
     </defs>
     <use xlink:href="#DejaVuSans-83"/>
     <use x="63.476562" xlink:href="#DejaVuSans-77"/>
     <use x="149.755859" xlink:href="#DejaVuSans-83"/>
     <use x="213.232422" xlink:href="#DejaVuSans-45"/>
     <use x="249.316406" xlink:href="#DejaVuSans-69"/>
     <use x="312.5" xlink:href="#DejaVuSans-77"/>
     <use x="398.779297" xlink:href="#DejaVuSans-79"/>
     <use x="475.740234" xlink:href="#DejaVuSans-65"/>
     <use x="541.898438" xlink:href="#DejaVuSans-45"/>
    </g>
   </g>
   <g id="text_15">
    <!-- COMO-100  -->
    <g transform="translate(375.22944 126.352403)scale(0.17 -0.17)">
     <defs>
      <path d="M 64.40625 67.28125 
L 64.40625 56.890625 
Q 59.421875 61.53125 53.78125 63.8125 
Q 48.140625 66.109375 41.796875 66.109375 
Q 29.296875 66.109375 22.65625 58.46875 
Q 16.015625 50.828125 16.015625 36.375 
Q 16.015625 21.96875 22.65625 14.328125 
Q 29.296875 6.6875 41.796875 6.6875 
Q 48.140625 6.6875 53.78125 8.984375 
Q 59.421875 11.28125 64.40625 15.921875 
L 64.40625 5.609375 
Q 59.234375 2.09375 53.4375 0.328125 
Q 47.65625 -1.421875 41.21875 -1.421875 
Q 24.65625 -1.421875 15.125 8.703125 
Q 5.609375 18.84375 5.609375 36.375 
Q 5.609375 53.953125 15.125 64.078125 
Q 24.65625 74.21875 41.21875 74.21875 
Q 47.75 74.21875 53.53125 72.484375 
Q 59.328125 70.75 64.40625 67.28125 
z
" id="DejaVuSans-67"/>
     </defs>
     <use xlink:href="#DejaVuSans-67"/>
     <use x="69.824219" xlink:href="#DejaVuSans-79"/>
     <use x="148.535156" xlink:href="#DejaVuSans-77"/>
     <use x="234.814453" xlink:href="#DejaVuSans-79"/>
     <use x="316.275391" xlink:href="#DejaVuSans-45"/>
     <use x="352.359375" xlink:href="#DejaVuSans-49"/>
     <use x="415.982422" xlink:href="#DejaVuSans-48"/>
     <use x="479.605469" xlink:href="#DejaVuSans-48"/>
     <use x="543.228516" xlink:href="#DejaVuSans-32"/>
    </g>
   </g>
   <g id="text_16">
    <!-- best 2016 -->
    <g transform="translate(375.22944 40.397235)scale(0.17 -0.17)">
     <defs>
      <path d="M 48.6875 27.296875 
Q 48.6875 37.203125 44.609375 42.84375 
Q 40.53125 48.484375 33.40625 48.484375 
Q 26.265625 48.484375 22.1875 42.84375 
Q 18.109375 37.203125 18.109375 27.296875 
Q 18.109375 17.390625 22.1875 11.75 
Q 26.265625 6.109375 33.40625 6.109375 
Q 40.53125 6.109375 44.609375 11.75 
Q 48.6875 17.390625 48.6875 27.296875 
z
M 18.109375 46.390625 
Q 20.953125 51.265625 25.265625 53.625 
Q 29.59375 56 35.59375 56 
Q 45.5625 56 51.78125 48.09375 
Q 58.015625 40.1875 58.015625 27.296875 
Q 58.015625 14.40625 51.78125 6.484375 
Q 45.5625 -1.421875 35.59375 -1.421875 
Q 29.59375 -1.421875 25.265625 0.953125 
Q 20.953125 3.328125 18.109375 8.203125 
L 18.109375 0 
L 9.078125 0 
L 9.078125 75.984375 
L 18.109375 75.984375 
z
" id="DejaVuSans-98"/>
     </defs>
     <use xlink:href="#DejaVuSans-98"/>
     <use x="63.476562" xlink:href="#DejaVuSans-101"/>
     <use x="125" xlink:href="#DejaVuSans-115"/>
     <use x="177.099609" xlink:href="#DejaVuSans-116"/>
     <use x="216.308594" xlink:href="#DejaVuSans-32"/>
     <use x="248.095703" xlink:href="#DejaVuSans-50"/>
     <use x="311.71875" xlink:href="#DejaVuSans-48"/>
     <use x="375.341797" xlink:href="#DejaVuSans-49"/>
     <use x="438.964844" xlink:href="#DejaVuSans-54"/>
    </g>
   </g>
   <g id="text_17">
    <!-- bbob-biobj f36, 5-D -->
    <g transform="translate(60.41088 38.111366)scale(0.102 -0.102)">
     <defs>
      <path d="M 9.421875 54.6875 
L 18.40625 54.6875 
L 18.40625 -0.984375 
Q 18.40625 -11.421875 14.421875 -16.109375 
Q 10.453125 -20.796875 1.609375 -20.796875 
L -1.8125 -20.796875 
L -1.8125 -13.1875 
L 0.59375 -13.1875 
Q 5.71875 -13.1875 7.5625 -10.8125 
Q 9.421875 -8.453125 9.421875 -0.984375 
z
M 9.421875 75.984375 
L 18.40625 75.984375 
L 18.40625 64.59375 
L 9.421875 64.59375 
z
" id="DejaVuSans-106"/>
      <path d="M 40.578125 39.3125 
Q 47.65625 37.796875 51.625 33 
Q 55.609375 28.21875 55.609375 21.1875 
Q 55.609375 10.40625 48.1875 4.484375 
Q 40.765625 -1.421875 27.09375 -1.421875 
Q 22.515625 -1.421875 17.65625 -0.515625 
Q 12.796875 0.390625 7.625 2.203125 
L 7.625 11.71875 
Q 11.71875 9.328125 16.59375 8.109375 
Q 21.484375 6.890625 26.8125 6.890625 
Q 36.078125 6.890625 40.9375 10.546875 
Q 45.796875 14.203125 45.796875 21.1875 
Q 45.796875 27.640625 41.28125 31.265625 
Q 36.765625 34.90625 28.71875 34.90625 
L 20.21875 34.90625 
L 20.21875 43.015625 
L 29.109375 43.015625 
Q 36.375 43.015625 40.234375 45.921875 
Q 44.09375 48.828125 44.09375 54.296875 
Q 44.09375 59.90625 40.109375 62.90625 
Q 36.140625 65.921875 28.71875 65.921875 
Q 24.65625 65.921875 20.015625 65.03125 
Q 15.375 64.15625 9.8125 62.3125 
L 9.8125 71.09375 
Q 15.4375 72.65625 20.34375 73.4375 
Q 25.25 74.21875 29.59375 74.21875 
Q 40.828125 74.21875 47.359375 69.109375 
Q 53.90625 64.015625 53.90625 55.328125 
Q 53.90625 49.265625 50.4375 45.09375 
Q 46.96875 40.921875 40.578125 39.3125 
z
" id="DejaVuSans-51"/>
      <path d="M 10.796875 72.90625 
L 49.515625 72.90625 
L 49.515625 64.59375 
L 19.828125 64.59375 
L 19.828125 46.734375 
Q 21.96875 47.46875 24.109375 47.828125 
Q 26.265625 48.1875 28.421875 48.1875 
Q 40.625 48.1875 47.75 41.5 
Q 54.890625 34.8125 54.890625 23.390625 
Q 54.890625 11.625 47.5625 5.09375 
Q 40.234375 -1.421875 26.90625 -1.421875 
Q 22.3125 -1.421875 17.546875 -0.640625 
Q 12.796875 0.140625 7.71875 1.703125 
L 7.71875 11.625 
Q 12.109375 9.234375 16.796875 8.0625 
Q 21.484375 6.890625 26.703125 6.890625 
Q 35.15625 6.890625 40.078125 11.328125 
Q 45.015625 15.765625 45.015625 23.390625 
Q 45.015625 31 40.078125 35.4375 
Q 35.15625 39.890625 26.703125 39.890625 
Q 22.75 39.890625 18.8125 39.015625 
Q 14.890625 38.140625 10.796875 36.28125 
z
" id="DejaVuSans-53"/>
      <path d="M 19.671875 64.796875 
L 19.671875 8.109375 
L 31.59375 8.109375 
Q 46.6875 8.109375 53.6875 14.9375 
Q 60.6875 21.78125 60.6875 36.53125 
Q 60.6875 51.171875 53.6875 57.984375 
Q 46.6875 64.796875 31.59375 64.796875 
z
M 9.8125 72.90625 
L 30.078125 72.90625 
Q 51.265625 72.90625 61.171875 64.09375 
Q 71.09375 55.28125 71.09375 36.53125 
Q 71.09375 17.671875 61.125 8.828125 
Q 51.171875 0 30.078125 0 
L 9.8125 0 
z
" id="DejaVuSans-68"/>
     </defs>
     <use xlink:href="#DejaVuSans-98"/>
     <use x="63.476562" xlink:href="#DejaVuSans-98"/>
     <use x="126.953125" xlink:href="#DejaVuSans-111"/>
     <use x="188.134766" xlink:href="#DejaVuSans-98"/>
     <use x="251.611328" xlink:href="#DejaVuSans-45"/>
     <use x="287.695312" xlink:href="#DejaVuSans-98"/>
     <use x="351.171875" xlink:href="#DejaVuSans-105"/>
     <use x="378.955078" xlink:href="#DejaVuSans-111"/>
     <use x="440.136719" xlink:href="#DejaVuSans-98"/>
     <use x="503.613281" xlink:href="#DejaVuSans-106"/>
     <use x="531.396484" xlink:href="#DejaVuSans-32"/>
     <use x="563.183594" xlink:href="#DejaVuSans-102"/>
     <use x="598.388672" xlink:href="#DejaVuSans-51"/>
     <use x="662.011719" xlink:href="#DejaVuSans-54"/>
     <use x="725.634766" xlink:href="#DejaVuSans-44"/>
     <use x="757.421875" xlink:href="#DejaVuSans-32"/>
     <use x="789.208984" xlink:href="#DejaVuSans-53"/>
     <use x="852.832031" xlink:href="#DejaVuSans-45"/>
     <use x="888.916016" xlink:href="#DejaVuSans-68"/>
    </g>
    <!-- 58 targets: 1..-1.0e-4 -->
    <g transform="translate(60.41088 49.533135)scale(0.102 -0.102)">
     <defs>
      <path d="M 11.71875 12.40625 
L 22.015625 12.40625 
L 22.015625 0 
L 11.71875 0 
z
M 11.71875 51.703125 
L 22.015625 51.703125 
L 22.015625 39.3125 
L 11.71875 39.3125 
z
" id="DejaVuSans-58"/>
     </defs>
     <use xlink:href="#DejaVuSans-53"/>
     <use x="63.623047" xlink:href="#DejaVuSans-56"/>
     <use x="127.246094" xlink:href="#DejaVuSans-32"/>
     <use x="159.033203" xlink:href="#DejaVuSans-116"/>
     <use x="198.242188" xlink:href="#DejaVuSans-97"/>
     <use x="259.521484" xlink:href="#DejaVuSans-114"/>
     <use x="298.884766" xlink:href="#DejaVuSans-103"/>
     <use x="362.361328" xlink:href="#DejaVuSans-101"/>
     <use x="423.884766" xlink:href="#DejaVuSans-116"/>
     <use x="463.09375" xlink:href="#DejaVuSans-115"/>
     <use x="515.193359" xlink:href="#DejaVuSans-58"/>
     <use x="548.884766" xlink:href="#DejaVuSans-32"/>
     <use x="580.671875" xlink:href="#DejaVuSans-49"/>
     <use x="644.294922" xlink:href="#DejaVuSans-46"/>
     <use x="676.082031" xlink:href="#DejaVuSans-46"/>
     <use x="707.869141" xlink:href="#DejaVuSans-45"/>
     <use x="743.953125" xlink:href="#DejaVuSans-49"/>
     <use x="807.576172" xlink:href="#DejaVuSans-46"/>
     <use x="839.363281" xlink:href="#DejaVuSans-48"/>
     <use x="902.986328" xlink:href="#DejaVuSans-101"/>
     <use x="964.509766" xlink:href="#DejaVuSans-45"/>
     <use x="1000.59375" xlink:href="#DejaVuSans-52"/>
    </g>
    <!-- 10 instances -->
    <g transform="translate(60.41088 60.954904)scale(0.102 -0.102)">
     <use xlink:href="#DejaVuSans-49"/>
     <use x="63.623047" xlink:href="#DejaVuSans-48"/>
     <use x="127.246094" xlink:href="#DejaVuSans-32"/>
     <use x="159.033203" xlink:href="#DejaVuSans-105"/>
     <use x="186.816406" xlink:href="#DejaVuSans-110"/>
     <use x="250.195312" xlink:href="#DejaVuSans-115"/>
     <use x="302.294922" xlink:href="#DejaVuSans-116"/>
     <use x="341.503906" xlink:href="#DejaVuSans-97"/>
     <use x="402.783203" xlink:href="#DejaVuSans-110"/>
     <use x="466.162109" xlink:href="#DejaVuSans-99"/>
     <use x="521.142578" xlink:href="#DejaVuSans-101"/>
     <use x="582.666016" xlink:href="#DejaVuSans-115"/>
    </g>
   </g>
   <g id="text_18">
    <!-- v2.4.19, hv-hash=ff0e71e8cd978373 -->
    <g style="fill:#808080;" transform="translate(104.697125 294.151352)scale(0.1 -0.1)">
     <defs>
      <path d="M 10.984375 1.515625 
L 10.984375 10.5 
Q 14.703125 8.734375 18.5 7.8125 
Q 22.3125 6.890625 25.984375 6.890625 
Q 35.75 6.890625 40.890625 13.453125 
Q 46.046875 20.015625 46.78125 33.40625 
Q 43.953125 29.203125 39.59375 26.953125 
Q 35.25 24.703125 29.984375 24.703125 
Q 19.046875 24.703125 12.671875 31.3125 
Q 6.296875 37.9375 6.296875 49.421875 
Q 6.296875 60.640625 12.9375 67.421875 
Q 19.578125 74.21875 30.609375 74.21875 
Q 43.265625 74.21875 49.921875 64.515625 
Q 56.59375 54.828125 56.59375 36.375 
Q 56.59375 19.140625 48.40625 8.859375 
Q 40.234375 -1.421875 26.421875 -1.421875 
Q 22.703125 -1.421875 18.890625 -0.6875 
Q 15.09375 0.046875 10.984375 1.515625 
z
M 30.609375 32.421875 
Q 37.25 32.421875 41.125 36.953125 
Q 45.015625 41.5 45.015625 49.421875 
Q 45.015625 57.28125 41.125 61.84375 
Q 37.25 66.40625 30.609375 66.40625 
Q 23.96875 66.40625 20.09375 61.84375 
Q 16.21875 57.28125 16.21875 49.421875 
Q 16.21875 41.5 20.09375 36.953125 
Q 23.96875 32.421875 30.609375 32.421875 
z
" id="DejaVuSans-57"/>
      <path d="M 54.890625 33.015625 
L 54.890625 0 
L 45.90625 0 
L 45.90625 32.71875 
Q 45.90625 40.484375 42.875 44.328125 
Q 39.84375 48.1875 33.796875 48.1875 
Q 26.515625 48.1875 22.3125 43.546875 
Q 18.109375 38.921875 18.109375 30.90625 
L 18.109375 0 
L 9.078125 0 
L 9.078125 75.984375 
L 18.109375 75.984375 
L 18.109375 46.1875 
Q 21.34375 51.125 25.703125 53.5625 
Q 30.078125 56 35.796875 56 
Q 45.21875 56 50.046875 50.171875 
Q 54.890625 44.34375 54.890625 33.015625 
z
" id="DejaVuSans-104"/>
      <path d="M 10.59375 45.40625 
L 73.1875 45.40625 
L 73.1875 37.203125 
L 10.59375 37.203125 
z
M 10.59375 25.484375 
L 73.1875 25.484375 
L 73.1875 17.1875 
L 10.59375 17.1875 
z
" id="DejaVuSans-61"/>
      <path d="M 8.203125 72.90625 
L 55.078125 72.90625 
L 55.078125 68.703125 
L 28.609375 0 
L 18.3125 0 
L 43.21875 64.59375 
L 8.203125 64.59375 
z
" id="DejaVuSans-55"/>
     </defs>
     <use xlink:href="#DejaVuSans-118"/>
     <use x="59.179688" xlink:href="#DejaVuSans-50"/>
     <use x="122.802734" xlink:href="#DejaVuSans-46"/>
     <use x="154.589844" xlink:href="#DejaVuSans-52"/>
     <use x="218.212891" xlink:href="#DejaVuSans-46"/>
     <use x="250" xlink:href="#DejaVuSans-49"/>
     <use x="313.623047" xlink:href="#DejaVuSans-57"/>
     <use x="377.246094" xlink:href="#DejaVuSans-44"/>
     <use x="409.033203" xlink:href="#DejaVuSans-32"/>
     <use x="440.820312" xlink:href="#DejaVuSans-104"/>
     <use x="504.199219" xlink:href="#DejaVuSans-118"/>
     <use x="560.753906" xlink:href="#DejaVuSans-45"/>
     <use x="596.837891" xlink:href="#DejaVuSans-104"/>
     <use x="660.216797" xlink:href="#DejaVuSans-97"/>
     <use x="721.496094" xlink:href="#DejaVuSans-115"/>
     <use x="773.595703" xlink:href="#DejaVuSans-104"/>
     <use x="836.974609" xlink:href="#DejaVuSans-61"/>
     <use x="920.763672" xlink:href="#DejaVuSans-102"/>
     <use x="955.96875" xlink:href="#DejaVuSans-102"/>
     <use x="991.173828" xlink:href="#DejaVuSans-48"/>
     <use x="1054.796875" xlink:href="#DejaVuSans-101"/>
     <use x="1116.320312" xlink:href="#DejaVuSans-55"/>
     <use x="1179.943359" xlink:href="#DejaVuSans-49"/>
     <use x="1243.566406" xlink:href="#DejaVuSans-101"/>
     <use x="1305.089844" xlink:href="#DejaVuSans-56"/>
     <use x="1368.712891" xlink:href="#DejaVuSans-99"/>
     <use x="1423.693359" xlink:href="#DejaVuSans-100"/>
     <use x="1487.169922" xlink:href="#DejaVuSans-57"/>
     <use x="1550.792969" xlink:href="#DejaVuSans-55"/>
     <use x="1614.416016" xlink:href="#DejaVuSans-56"/>
     <use x="1678.039062" xlink:href="#DejaVuSans-51"/>
     <use x="1741.662109" xlink:href="#DejaVuSans-55"/>
     <use x="1805.285156" xlink:href="#DejaVuSans-51"/>
    </g>
   </g>
   <g id="text_19">
    <!-- 36 Sharp ridge/Diff. Powers -->
    <g transform="translate(62.094 21.648)scale(0.2 -0.2)">
     <defs>
      <path d="M 19.671875 64.796875 
L 19.671875 37.40625 
L 32.078125 37.40625 
Q 38.96875 37.40625 42.71875 40.96875 
Q 46.484375 44.53125 46.484375 51.125 
Q 46.484375 57.671875 42.71875 61.234375 
Q 38.96875 64.796875 32.078125 64.796875 
z
M 9.8125 72.90625 
L 32.078125 72.90625 
Q 44.34375 72.90625 50.609375 67.359375 
Q 56.890625 61.8125 56.890625 51.125 
Q 56.890625 40.328125 50.609375 34.8125 
Q 44.34375 29.296875 32.078125 29.296875 
L 19.671875 29.296875 
L 19.671875 0 
L 9.8125 0 
z
" id="DejaVuSans-80"/>
      <path d="M 4.203125 54.6875 
L 13.1875 54.6875 
L 24.421875 12.015625 
L 35.59375 54.6875 
L 46.1875 54.6875 
L 57.421875 12.015625 
L 68.609375 54.6875 
L 77.59375 54.6875 
L 63.28125 0 
L 52.6875 0 
L 40.921875 44.828125 
L 29.109375 0 
L 18.5 0 
z
" id="DejaVuSans-119"/>
     </defs>
     <use xlink:href="#DejaVuSans-51"/>
     <use x="63.623047" xlink:href="#DejaVuSans-54"/>
     <use x="127.246094" xlink:href="#DejaVuSans-32"/>
     <use x="159.033203" xlink:href="#DejaVuSans-83"/>
     <use x="222.509766" xlink:href="#DejaVuSans-104"/>
     <use x="285.888672" xlink:href="#DejaVuSans-97"/>
     <use x="347.167969" xlink:href="#DejaVuSans-114"/>
     <use x="388.28125" xlink:href="#DejaVuSans-112"/>
     <use x="451.757812" xlink:href="#DejaVuSans-32"/>
     <use x="483.544922" xlink:href="#DejaVuSans-114"/>
     <use x="524.658203" xlink:href="#DejaVuSans-105"/>
     <use x="552.441406" xlink:href="#DejaVuSans-100"/>
     <use x="615.917969" xlink:href="#DejaVuSans-103"/>
     <use x="679.394531" xlink:href="#DejaVuSans-101"/>
     <use x="740.917969" xlink:href="#DejaVuSans-47"/>
     <use x="774.609375" xlink:href="#DejaVuSans-68"/>
     <use x="851.611328" xlink:href="#DejaVuSans-105"/>
     <use x="879.394531" xlink:href="#DejaVuSans-102"/>
     <use x="914.599609" xlink:href="#DejaVuSans-102"/>
     <use x="942.554688" xlink:href="#DejaVuSans-46"/>
     <use x="974.341797" xlink:href="#DejaVuSans-32"/>
     <use x="1006.128906" xlink:href="#DejaVuSans-80"/>
     <use x="1062.806641" xlink:href="#DejaVuSans-111"/>
     <use x="1123.988281" xlink:href="#DejaVuSans-119"/>
     <use x="1205.775391" xlink:href="#DejaVuSans-101"/>
     <use x="1267.298828" xlink:href="#DejaVuSans-114"/>
     <use x="1308.412109" xlink:href="#DejaVuSans-115"/>
    </g>
   </g>
  </g>
 </g>
 <defs>
  <clipPath id="p11403e1bc4">
   <rect height="271.296" width="281.088" x="57.6" y="27.648"/>
  </clipPath>
 </defs>
</svg>
