<?xml version="1.0" encoding="utf-8" standalone="no"?>
<!DOCTYPE svg PUBLIC "-//W3C//DTD SVG 1.1//EN"
  "http://www.w3.org/Graphics/SVG/1.1/DTD/svg11.dtd">
<!-- Created with matplotlib (https://matplotlib.org/) -->
<svg height="345.6pt" version="1.1" viewBox="0 0 460.8 345.6" width="460.8pt" xmlns="http://www.w3.org/2000/svg" xmlns:xlink="http://www.w3.org/1999/xlink">
 <metadata>
  <rdf:RDF xmlns:cc="http://creativecommons.org/ns#" xmlns:dc="http://purl.org/dc/elements/1.1/" xmlns:rdf="http://www.w3.org/1999/02/22-rdf-syntax-ns#">
   <cc:Work>
    <dc:type rdf:resource="http://purl.org/dc/dcmitype/StillImage"/>
    <dc:date>2021-04-26T15:05:47.062097</dc:date>
    <dc:format>image/svg+xml</dc:format>
    <dc:creator>
     <cc:Agent>
      <dc:title>Matplotlib v3.3.2, https://matplotlib.org/</dc:title>
     </cc:Agent>
    </dc:creator>
   </cc:Work>
  </rdf:RDF>
 </metadata>
 <defs>
  <style type="text/css">*{stroke-linecap:butt;stroke-linejoin:round;}</style>
 </defs>
 <g id="figure_1">
  <g id="patch_1">
   <path d="M 0 345.6 
L 460.8 345.6 
L 460.8 0 
L 0 0 
z
" style="fill:#ffffff;"/>
  </g>
  <g id="axes_1">
   <g id="patch_2">
    <path d="M 57.6 298.944 
L 338.688 298.944 
L 338.688 27.648 
L 57.6 27.648 
z
" style="fill:#ffffff;"/>
   </g>
   <g id="line2d_1">
    <path d="M 81.775977 298.944 
L 81.775977 294.312795 
L 89.78989 294.312795 
L 89.78989 285.050384 
L 99.41757 285.050384 
L 99.41757 275.787974 
L 140.846504 275.787974 
L 140.846504 271.156769 
L 151.178764 271.156769 
L 151.178764 257.263153 
L 157.939176 257.263153 
L 157.939176 248.000743 
L 165.943384 248.000743 
L 165.943384 243.369538 
L 172.689086 243.369538 
L 172.689086 234.107127 
L 180.987189 234.107127 
L 180.987189 220.213512 
L 192.03436 220.213512 
L 192.03436 210.951101 
L 197.163177 210.951101 
L 197.163177 201.688691 
L 206.43913 201.688691 
L 206.43913 192.426281 
L 216.796009 192.426281 
L 216.796009 187.795075 
L 225.726002 187.795075 
L 225.726002 173.90146 
L 235.048045 173.90146 
L 235.048045 169.270255 
L 240.121736 169.270255 
L 240.121736 155.376639 
L 247.377234 155.376639 
L 247.377234 146.114229 
L 255.543819 146.114229 
L 255.543819 141.483024 
L 264.826328 141.483024 
L 264.826328 127.589408 
L 276.435224 127.589408 
L 276.435224 122.958203 
L 281.103269 122.958203 
L 281.103269 109.064587 
L 288.513603 109.064587 
L 288.513603 99.802177 
L 298.393545 99.802177 
L 298.393545 90.539766 
L 310.645968 90.539766 
L 310.645968 85.908561 
L 311.417341 85.908561 
L 311.417341 76.646151 
L 318.500983 76.646151 
L 318.500983 62.752535 
L 338.688 62.752535 
" style="fill:none;stroke:#f5deb3;stroke-linecap:square;stroke-width:4;"/>
   </g>
   <g id="line2d_2">
    <defs>
     <path d="M 0 7.778175 
L 7.778175 0 
L 0 -7.778175 
L -7.778175 0 
z
" id="m6dff90725a" style="stroke:#f5deb3;stroke-linejoin:miter;stroke-width:1.5;"/>
    </defs>
    <g>
     <use style="fill:#f5deb3;stroke:#f5deb3;stroke-linejoin:miter;stroke-width:1.5;" x="165.943384" xlink:href="#m6dff90725a" y="248.000743"/>
     <use style="fill:#f5deb3;stroke:#f5deb3;stroke-linejoin:miter;stroke-width:1.5;" x="240.121736" xlink:href="#m6dff90725a" y="155.376639"/>
     <use style="fill:#f5deb3;stroke:#f5deb3;stroke-linejoin:miter;stroke-width:1.5;" x="310.645968" xlink:href="#m6dff90725a" y="90.539766"/>
     <use style="fill:#f5deb3;stroke:#f5deb3;stroke-linejoin:miter;stroke-width:1.5;" x="318.500983" xlink:href="#m6dff90725a" y="62.752535"/>
     <use style="fill:#f5deb3;stroke:#f5deb3;stroke-linejoin:miter;stroke-width:1.5;" x="338.688" xlink:href="#m6dff90725a" y="62.752535"/>
    </g>
   </g>
   <g id="line2d_3">
    <path style="fill:none;stroke:#f5deb3;stroke-linecap:square;stroke-width:4;"/>
    <g/>
   </g>
   <g id="line2d_4">
    <path d="M 338.688 62.752535 
L 369.60768 35.706297 
" style="fill:none;stroke:#f5deb3;stroke-linecap:square;stroke-width:4;"/>
    <g>
     <use style="fill:#f5deb3;stroke:#f5deb3;stroke-linejoin:miter;stroke-width:1.5;" x="338.688" xlink:href="#m6dff90725a" y="62.752535"/>
     <use style="fill:#f5deb3;stroke:#f5deb3;stroke-linejoin:miter;stroke-width:1.5;" x="369.60768" xlink:href="#m6dff90725a" y="35.706297"/>
    </g>
   </g>
   <g id="matplotlib.axis_1">
    <g id="xtick_1">
     <g id="line2d_5">
      <path clip-path="url(#p1d40a5df9c)" d="M 57.6 298.944 
L 57.6 27.648 
" style="fill:none;stroke:#b0b0b0;stroke-linecap:square;stroke-width:0.8;"/>
     </g>
     <g id="line2d_6">
      <defs>
       <path d="M 0 0 
L 0 3.5 
" id="mc3d15e7b81" style="stroke:#000000;stroke-width:0.8;"/>
      </defs>
      <g>
       <use style="stroke:#000000;stroke-width:0.8;" x="57.6" xlink:href="#mc3d15e7b81" y="298.944"/>
      </g>
     </g>
     <g id="text_1">
      <!-- 0 -->
      <g transform="translate(51.2375 321.140875)scale(0.2 -0.2)">
       <defs>
        <path d="M 31.78125 66.40625 
Q 24.171875 66.40625 20.328125 58.90625 
Q 16.5 51.421875 16.5 36.375 
Q 16.5 21.390625 20.328125 13.890625 
Q 24.171875 6.390625 31.78125 6.390625 
Q 39.453125 6.390625 43.28125 13.890625 
Q 47.125 21.390625 47.125 36.375 
Q 47.125 51.421875 43.28125 58.90625 
Q 39.453125 66.40625 31.78125 66.40625 
z
M 31.78125 74.21875 
Q 44.046875 74.21875 50.515625 64.515625 
Q 56.984375 54.828125 56.984375 36.375 
Q 56.984375 17.96875 50.515625 8.265625 
Q 44.046875 -1.421875 31.78125 -1.421875 
Q 19.53125 -1.421875 13.0625 8.265625 
Q 6.59375 17.96875 6.59375 36.375 
Q 6.59375 54.828125 13.0625 64.515625 
Q 19.53125 74.21875 31.78125 74.21875 
z
" id="DejaVuSans-48"/>
       </defs>
       <use xlink:href="#DejaVuSans-48"/>
      </g>
     </g>
    </g>
    <g id="xtick_2">
     <g id="line2d_7">
      <path clip-path="url(#p1d40a5df9c)" d="M 137.910857 298.944 
L 137.910857 27.648 
" style="fill:none;stroke:#b0b0b0;stroke-linecap:square;stroke-width:0.8;"/>
     </g>
     <g id="line2d_8">
      <g>
       <use style="stroke:#000000;stroke-width:0.8;" x="137.910857" xlink:href="#mc3d15e7b81" y="298.944"/>
      </g>
     </g>
     <g id="text_2">
      <!-- 2 -->
      <g transform="translate(131.548357 321.140875)scale(0.2 -0.2)">
       <defs>
        <path d="M 19.1875 8.296875 
L 53.609375 8.296875 
L 53.609375 0 
L 7.328125 0 
L 7.328125 8.296875 
Q 12.9375 14.109375 22.625 23.890625 
Q 32.328125 33.6875 34.8125 36.53125 
Q 39.546875 41.84375 41.421875 45.53125 
Q 43.3125 49.21875 43.3125 52.78125 
Q 43.3125 58.59375 39.234375 62.25 
Q 35.15625 65.921875 28.609375 65.921875 
Q 23.96875 65.921875 18.8125 64.3125 
Q 13.671875 62.703125 7.8125 59.421875 
L 7.8125 69.390625 
Q 13.765625 71.78125 18.9375 73 
Q 24.125 74.21875 28.421875 74.21875 
Q 39.75 74.21875 46.484375 68.546875 
Q 53.21875 62.890625 53.21875 53.421875 
Q 53.21875 48.921875 51.53125 44.890625 
Q 49.859375 40.875 45.40625 35.40625 
Q 44.1875 33.984375 37.640625 27.21875 
Q 31.109375 20.453125 19.1875 8.296875 
z
" id="DejaVuSans-50"/>
       </defs>
       <use xlink:href="#DejaVuSans-50"/>
      </g>
     </g>
    </g>
    <g id="xtick_3">
     <g id="line2d_9">
      <path clip-path="url(#p1d40a5df9c)" d="M 218.221714 298.944 
L 218.221714 27.648 
" style="fill:none;stroke:#b0b0b0;stroke-linecap:square;stroke-width:0.8;"/>
     </g>
     <g id="line2d_10">
      <g>
       <use style="stroke:#000000;stroke-width:0.8;" x="218.221714" xlink:href="#mc3d15e7b81" y="298.944"/>
      </g>
     </g>
     <g id="text_3">
      <!-- 4 -->
      <g transform="translate(211.859214 321.140875)scale(0.2 -0.2)">
       <defs>
        <path d="M 37.796875 64.3125 
L 12.890625 25.390625 
L 37.796875 25.390625 
z
M 35.203125 72.90625 
L 47.609375 72.90625 
L 47.609375 25.390625 
L 58.015625 25.390625 
L 58.015625 17.1875 
L 47.609375 17.1875 
L 47.609375 0 
L 37.796875 0 
L 37.796875 17.1875 
L 4.890625 17.1875 
L 4.890625 26.703125 
z
" id="DejaVuSans-52"/>
       </defs>
       <use xlink:href="#DejaVuSans-52"/>
      </g>
     </g>
    </g>
    <g id="xtick_4">
     <g id="line2d_11">
      <path clip-path="url(#p1d40a5df9c)" d="M 298.532571 298.944 
L 298.532571 27.648 
" style="fill:none;stroke:#b0b0b0;stroke-linecap:square;stroke-width:0.8;"/>
     </g>
     <g id="line2d_12">
      <g>
       <use style="stroke:#000000;stroke-width:0.8;" x="298.532571" xlink:href="#mc3d15e7b81" y="298.944"/>
      </g>
     </g>
     <g id="text_4">
      <!-- 6 -->
      <g transform="translate(292.170071 321.140875)scale(0.2 -0.2)">
       <defs>
        <path d="M 33.015625 40.375 
Q 26.375 40.375 22.484375 35.828125 
Q 18.609375 31.296875 18.609375 23.390625 
Q 18.609375 15.53125 22.484375 10.953125 
Q 26.375 6.390625 33.015625 6.390625 
Q 39.65625 6.390625 43.53125 10.953125 
Q 47.40625 15.53125 47.40625 23.390625 
Q 47.40625 31.296875 43.53125 35.828125 
Q 39.65625 40.375 33.015625 40.375 
z
M 52.59375 71.296875 
L 52.59375 62.3125 
Q 48.875 64.0625 45.09375 64.984375 
Q 41.3125 65.921875 37.59375 65.921875 
Q 27.828125 65.921875 22.671875 59.328125 
Q 17.53125 52.734375 16.796875 39.40625 
Q 19.671875 43.65625 24.015625 45.921875 
Q 28.375 48.1875 33.59375 48.1875 
Q 44.578125 48.1875 50.953125 41.515625 
Q 57.328125 34.859375 57.328125 23.390625 
Q 57.328125 12.15625 50.6875 5.359375 
Q 44.046875 -1.421875 33.015625 -1.421875 
Q 20.359375 -1.421875 13.671875 8.265625 
Q 6.984375 17.96875 6.984375 36.375 
Q 6.984375 53.65625 15.1875 63.9375 
Q 23.390625 74.21875 37.203125 74.21875 
Q 40.921875 74.21875 44.703125 73.484375 
Q 48.484375 72.75 52.59375 71.296875 
z
" id="DejaVuSans-54"/>
       </defs>
       <use xlink:href="#DejaVuSans-54"/>
      </g>
     </g>
    </g>
    <g id="xtick_5">
     <g id="line2d_13">
      <path clip-path="url(#p1d40a5df9c)" d="M 97.755429 298.944 
L 97.755429 27.648 
" style="fill:none;stroke:#b0b0b0;stroke-linecap:square;stroke-width:0.8;"/>
     </g>
     <g id="line2d_14">
      <defs>
       <path d="M 0 0 
L 0 2 
" id="mb580be90b6" style="stroke:#000000;stroke-width:0.6;"/>
      </defs>
      <g>
       <use style="stroke:#000000;stroke-width:0.6;" x="97.755429" xlink:href="#mb580be90b6" y="298.944"/>
      </g>
     </g>
    </g>
    <g id="xtick_6">
     <g id="line2d_15">
      <path clip-path="url(#p1d40a5df9c)" d="M 178.066286 298.944 
L 178.066286 27.648 
" style="fill:none;stroke:#b0b0b0;stroke-linecap:square;stroke-width:0.8;"/>
     </g>
     <g id="line2d_16">
      <g>
       <use style="stroke:#000000;stroke-width:0.6;" x="178.066286" xlink:href="#mb580be90b6" y="298.944"/>
      </g>
     </g>
    </g>
    <g id="xtick_7">
     <g id="line2d_17">
      <path clip-path="url(#p1d40a5df9c)" d="M 258.377143 298.944 
L 258.377143 27.648 
" style="fill:none;stroke:#b0b0b0;stroke-linecap:square;stroke-width:0.8;"/>
     </g>
     <g id="line2d_18">
      <g>
       <use style="stroke:#000000;stroke-width:0.6;" x="258.377143" xlink:href="#mb580be90b6" y="298.944"/>
      </g>
     </g>
    </g>
    <g id="xtick_8">
     <g id="line2d_19">
      <path clip-path="url(#p1d40a5df9c)" d="M 338.688 298.944 
L 338.688 27.648 
" style="fill:none;stroke:#b0b0b0;stroke-linecap:square;stroke-width:0.8;"/>
     </g>
     <g id="line2d_20">
      <g>
       <use style="stroke:#000000;stroke-width:0.6;" x="338.688" xlink:href="#mb580be90b6" y="298.944"/>
      </g>
     </g>
    </g>
    <g id="text_5">
     <!-- log10(# f-evals / dimension) -->
     <g transform="translate(77.764078 342.217594)scale(0.17 -0.17)">
      <defs>
       <path d="M 9.421875 75.984375 
L 18.40625 75.984375 
L 18.40625 0 
L 9.421875 0 
z
" id="DejaVuSans-108"/>
       <path d="M 30.609375 48.390625 
Q 23.390625 48.390625 19.1875 42.75 
Q 14.984375 37.109375 14.984375 27.296875 
Q 14.984375 17.484375 19.15625 11.84375 
Q 23.34375 6.203125 30.609375 6.203125 
Q 37.796875 6.203125 41.984375 11.859375 
Q 46.1875 17.53125 46.1875 27.296875 
Q 46.1875 37.015625 41.984375 42.703125 
Q 37.796875 48.390625 30.609375 48.390625 
z
M 30.609375 56 
Q 42.328125 56 49.015625 48.375 
Q 55.71875 40.765625 55.71875 27.296875 
Q 55.71875 13.875 49.015625 6.21875 
Q 42.328125 -1.421875 30.609375 -1.421875 
Q 18.84375 -1.421875 12.171875 6.21875 
Q 5.515625 13.875 5.515625 27.296875 
Q 5.515625 40.765625 12.171875 48.375 
Q 18.84375 56 30.609375 56 
z
" id="DejaVuSans-111"/>
       <path d="M 45.40625 27.984375 
Q 45.40625 37.75 41.375 43.109375 
Q 37.359375 48.484375 30.078125 48.484375 
Q 22.859375 48.484375 18.828125 43.109375 
Q 14.796875 37.75 14.796875 27.984375 
Q 14.796875 18.265625 18.828125 12.890625 
Q 22.859375 7.515625 30.078125 7.515625 
Q 37.359375 7.515625 41.375 12.890625 
Q 45.40625 18.265625 45.40625 27.984375 
z
M 54.390625 6.78125 
Q 54.390625 -7.171875 48.1875 -13.984375 
Q 42 -20.796875 29.203125 -20.796875 
Q 24.46875 -20.796875 20.265625 -20.09375 
Q 16.0625 -19.390625 12.109375 -17.921875 
L 12.109375 -9.1875 
Q 16.0625 -11.328125 19.921875 -12.34375 
Q 23.78125 -13.375 27.78125 -13.375 
Q 36.625 -13.375 41.015625 -8.765625 
Q 45.40625 -4.15625 45.40625 5.171875 
L 45.40625 9.625 
Q 42.625 4.78125 38.28125 2.390625 
Q 33.9375 0 27.875 0 
Q 17.828125 0 11.671875 7.65625 
Q 5.515625 15.328125 5.515625 27.984375 
Q 5.515625 40.671875 11.671875 48.328125 
Q 17.828125 56 27.875 56 
Q 33.9375 56 38.28125 53.609375 
Q 42.625 51.21875 45.40625 46.390625 
L 45.40625 54.6875 
L 54.390625 54.6875 
z
" id="DejaVuSans-103"/>
       <path d="M 12.40625 8.296875 
L 28.515625 8.296875 
L 28.515625 63.921875 
L 10.984375 60.40625 
L 10.984375 69.390625 
L 28.421875 72.90625 
L 38.28125 72.90625 
L 38.28125 8.296875 
L 54.390625 8.296875 
L 54.390625 0 
L 12.40625 0 
z
" id="DejaVuSans-49"/>
       <path d="M 31 75.875 
Q 24.46875 64.65625 21.28125 53.65625 
Q 18.109375 42.671875 18.109375 31.390625 
Q 18.109375 20.125 21.3125 9.0625 
Q 24.515625 -2 31 -13.1875 
L 23.1875 -13.1875 
Q 15.875 -1.703125 12.234375 9.375 
Q 8.59375 20.453125 8.59375 31.390625 
Q 8.59375 42.28125 12.203125 53.3125 
Q 15.828125 64.359375 23.1875 75.875 
z
" id="DejaVuSans-40"/>
       <path d="M 51.125 44 
L 36.921875 44 
L 32.8125 27.6875 
L 47.125 27.6875 
z
M 43.796875 71.78125 
L 38.71875 51.515625 
L 52.984375 51.515625 
L 58.109375 71.78125 
L 65.921875 71.78125 
L 60.890625 51.515625 
L 76.125 51.515625 
L 76.125 44 
L 58.984375 44 
L 54.984375 27.6875 
L 70.515625 27.6875 
L 70.515625 20.21875 
L 53.078125 20.21875 
L 48 0 
L 40.1875 0 
L 45.21875 20.21875 
L 30.90625 20.21875 
L 25.875 0 
L 18.015625 0 
L 23.09375 20.21875 
L 7.71875 20.21875 
L 7.71875 27.6875 
L 24.90625 27.6875 
L 29 44 
L 13.28125 44 
L 13.28125 51.515625 
L 30.90625 51.515625 
L 35.890625 71.78125 
z
" id="DejaVuSans-35"/>
       <path id="DejaVuSans-32"/>
       <path d="M 37.109375 75.984375 
L 37.109375 68.5 
L 28.515625 68.5 
Q 23.6875 68.5 21.796875 66.546875 
Q 19.921875 64.59375 19.921875 59.515625 
L 19.921875 54.6875 
L 34.71875 54.6875 
L 34.71875 47.703125 
L 19.921875 47.703125 
L 19.921875 0 
L 10.890625 0 
L 10.890625 47.703125 
L 2.296875 47.703125 
L 2.296875 54.6875 
L 10.890625 54.6875 
L 10.890625 58.5 
Q 10.890625 67.625 15.140625 71.796875 
Q 19.390625 75.984375 28.609375 75.984375 
z
" id="DejaVuSans-102"/>
       <path d="M 4.890625 31.390625 
L 31.203125 31.390625 
L 31.203125 23.390625 
L 4.890625 23.390625 
z
" id="DejaVuSans-45"/>
       <path d="M 56.203125 29.59375 
L 56.203125 25.203125 
L 14.890625 25.203125 
Q 15.484375 15.921875 20.484375 11.0625 
Q 25.484375 6.203125 34.421875 6.203125 
Q 39.59375 6.203125 44.453125 7.46875 
Q 49.3125 8.734375 54.109375 11.28125 
L 54.109375 2.78125 
Q 49.265625 0.734375 44.1875 -0.34375 
Q 39.109375 -1.421875 33.890625 -1.421875 
Q 20.796875 -1.421875 13.15625 6.1875 
Q 5.515625 13.8125 5.515625 26.8125 
Q 5.515625 40.234375 12.765625 48.109375 
Q 20.015625 56 32.328125 56 
Q 43.359375 56 49.78125 48.890625 
Q 56.203125 41.796875 56.203125 29.59375 
z
M 47.21875 32.234375 
Q 47.125 39.59375 43.09375 43.984375 
Q 39.0625 48.390625 32.421875 48.390625 
Q 24.90625 48.390625 20.390625 44.140625 
Q 15.875 39.890625 15.1875 32.171875 
z
" id="DejaVuSans-101"/>
       <path d="M 2.984375 54.6875 
L 12.5 54.6875 
L 29.59375 8.796875 
L 46.6875 54.6875 
L 56.203125 54.6875 
L 35.6875 0 
L 23.484375 0 
z
" id="DejaVuSans-118"/>
       <path d="M 34.28125 27.484375 
Q 23.390625 27.484375 19.1875 25 
Q 14.984375 22.515625 14.984375 16.5 
Q 14.984375 11.71875 18.140625 8.90625 
Q 21.296875 6.109375 26.703125 6.109375 
Q 34.1875 6.109375 38.703125 11.40625 
Q 43.21875 16.703125 43.21875 25.484375 
L 43.21875 27.484375 
z
M 52.203125 31.203125 
L 52.203125 0 
L 43.21875 0 
L 43.21875 8.296875 
Q 40.140625 3.328125 35.546875 0.953125 
Q 30.953125 -1.421875 24.3125 -1.421875 
Q 15.921875 -1.421875 10.953125 3.296875 
Q 6 8.015625 6 15.921875 
Q 6 25.140625 12.171875 29.828125 
Q 18.359375 34.515625 30.609375 34.515625 
L 43.21875 34.515625 
L 43.21875 35.40625 
Q 43.21875 41.609375 39.140625 45 
Q 35.0625 48.390625 27.6875 48.390625 
Q 23 48.390625 18.546875 47.265625 
Q 14.109375 46.140625 10.015625 43.890625 
L 10.015625 52.203125 
Q 14.9375 54.109375 19.578125 55.046875 
Q 24.21875 56 28.609375 56 
Q 40.484375 56 46.34375 49.84375 
Q 52.203125 43.703125 52.203125 31.203125 
z
" id="DejaVuSans-97"/>
       <path d="M 44.28125 53.078125 
L 44.28125 44.578125 
Q 40.484375 46.53125 36.375 47.5 
Q 32.28125 48.484375 27.875 48.484375 
Q 21.1875 48.484375 17.84375 46.4375 
Q 14.5 44.390625 14.5 40.28125 
Q 14.5 37.15625 16.890625 35.375 
Q 19.28125 33.59375 26.515625 31.984375 
L 29.59375 31.296875 
Q 39.15625 29.25 43.1875 25.515625 
Q 47.21875 21.78125 47.21875 15.09375 
Q 47.21875 7.46875 41.1875 3.015625 
Q 35.15625 -1.421875 24.609375 -1.421875 
Q 20.21875 -1.421875 15.453125 -0.5625 
Q 10.6875 0.296875 5.421875 2 
L 5.421875 11.28125 
Q 10.40625 8.6875 15.234375 7.390625 
Q 20.0625 6.109375 24.8125 6.109375 
Q 31.15625 6.109375 34.5625 8.28125 
Q 37.984375 10.453125 37.984375 14.40625 
Q 37.984375 18.0625 35.515625 20.015625 
Q 33.0625 21.96875 24.703125 23.78125 
L 21.578125 24.515625 
Q 13.234375 26.265625 9.515625 29.90625 
Q 5.8125 33.546875 5.8125 39.890625 
Q 5.8125 47.609375 11.28125 51.796875 
Q 16.75 56 26.8125 56 
Q 31.78125 56 36.171875 55.265625 
Q 40.578125 54.546875 44.28125 53.078125 
z
" id="DejaVuSans-115"/>
       <path d="M 25.390625 72.90625 
L 33.6875 72.90625 
L 8.296875 -9.28125 
L 0 -9.28125 
z
" id="DejaVuSans-47"/>
       <path d="M 45.40625 46.390625 
L 45.40625 75.984375 
L 54.390625 75.984375 
L 54.390625 0 
L 45.40625 0 
L 45.40625 8.203125 
Q 42.578125 3.328125 38.25 0.953125 
Q 33.9375 -1.421875 27.875 -1.421875 
Q 17.96875 -1.421875 11.734375 6.484375 
Q 5.515625 14.40625 5.515625 27.296875 
Q 5.515625 40.1875 11.734375 48.09375 
Q 17.96875 56 27.875 56 
Q 33.9375 56 38.25 53.625 
Q 42.578125 51.265625 45.40625 46.390625 
z
M 14.796875 27.296875 
Q 14.796875 17.390625 18.875 11.75 
Q 22.953125 6.109375 30.078125 6.109375 
Q 37.203125 6.109375 41.296875 11.75 
Q 45.40625 17.390625 45.40625 27.296875 
Q 45.40625 37.203125 41.296875 42.84375 
Q 37.203125 48.484375 30.078125 48.484375 
Q 22.953125 48.484375 18.875 42.84375 
Q 14.796875 37.203125 14.796875 27.296875 
z
" id="DejaVuSans-100"/>
       <path d="M 9.421875 54.6875 
L 18.40625 54.6875 
L 18.40625 0 
L 9.421875 0 
z
M 9.421875 75.984375 
L 18.40625 75.984375 
L 18.40625 64.59375 
L 9.421875 64.59375 
z
" id="DejaVuSans-105"/>
       <path d="M 52 44.1875 
Q 55.375 50.25 60.0625 53.125 
Q 64.75 56 71.09375 56 
Q 79.640625 56 84.28125 50.015625 
Q 88.921875 44.046875 88.921875 33.015625 
L 88.921875 0 
L 79.890625 0 
L 79.890625 32.71875 
Q 79.890625 40.578125 77.09375 44.375 
Q 74.3125 48.1875 68.609375 48.1875 
Q 61.625 48.1875 57.5625 43.546875 
Q 53.515625 38.921875 53.515625 30.90625 
L 53.515625 0 
L 44.484375 0 
L 44.484375 32.71875 
Q 44.484375 40.625 41.703125 44.40625 
Q 38.921875 48.1875 33.109375 48.1875 
Q 26.21875 48.1875 22.15625 43.53125 
Q 18.109375 38.875 18.109375 30.90625 
L 18.109375 0 
L 9.078125 0 
L 9.078125 54.6875 
L 18.109375 54.6875 
L 18.109375 46.1875 
Q 21.1875 51.21875 25.484375 53.609375 
Q 29.78125 56 35.6875 56 
Q 41.65625 56 45.828125 52.96875 
Q 50 49.953125 52 44.1875 
z
" id="DejaVuSans-109"/>
       <path d="M 54.890625 33.015625 
L 54.890625 0 
L 45.90625 0 
L 45.90625 32.71875 
Q 45.90625 40.484375 42.875 44.328125 
Q 39.84375 48.1875 33.796875 48.1875 
Q 26.515625 48.1875 22.3125 43.546875 
Q 18.109375 38.921875 18.109375 30.90625 
L 18.109375 0 
L 9.078125 0 
L 9.078125 54.6875 
L 18.109375 54.6875 
L 18.109375 46.1875 
Q 21.34375 51.125 25.703125 53.5625 
Q 30.078125 56 35.796875 56 
Q 45.21875 56 50.046875 50.171875 
Q 54.890625 44.34375 54.890625 33.015625 
z
" id="DejaVuSans-110"/>
       <path d="M 8.015625 75.875 
L 15.828125 75.875 
Q 23.140625 64.359375 26.78125 53.3125 
Q 30.421875 42.28125 30.421875 31.390625 
Q 30.421875 20.453125 26.78125 9.375 
Q 23.140625 -1.703125 15.828125 -13.1875 
L 8.015625 -13.1875 
Q 14.5 -2 17.703125 9.0625 
Q 20.90625 20.125 20.90625 31.390625 
Q 20.90625 42.671875 17.703125 53.65625 
Q 14.5 64.65625 8.015625 75.875 
z
" id="DejaVuSans-41"/>
      </defs>
      <use xlink:href="#DejaVuSans-108"/>
      <use x="27.783203" xlink:href="#DejaVuSans-111"/>
      <use x="88.964844" xlink:href="#DejaVuSans-103"/>
      <use x="152.441406" xlink:href="#DejaVuSans-49"/>
      <use x="216.064453" xlink:href="#DejaVuSans-48"/>
      <use x="279.6875" xlink:href="#DejaVuSans-40"/>
      <use x="318.701172" xlink:href="#DejaVuSans-35"/>
      <use x="402.490234" xlink:href="#DejaVuSans-32"/>
      <use x="434.277344" xlink:href="#DejaVuSans-102"/>
      <use x="463.982422" xlink:href="#DejaVuSans-45"/>
      <use x="500.066406" xlink:href="#DejaVuSans-101"/>
      <use x="561.589844" xlink:href="#DejaVuSans-118"/>
      <use x="620.769531" xlink:href="#DejaVuSans-97"/>
      <use x="682.048828" xlink:href="#DejaVuSans-108"/>
      <use x="709.832031" xlink:href="#DejaVuSans-115"/>
      <use x="761.931641" xlink:href="#DejaVuSans-32"/>
      <use x="793.71875" xlink:href="#DejaVuSans-47"/>
      <use x="827.410156" xlink:href="#DejaVuSans-32"/>
      <use x="859.197266" xlink:href="#DejaVuSans-100"/>
      <use x="922.673828" xlink:href="#DejaVuSans-105"/>
      <use x="950.457031" xlink:href="#DejaVuSans-109"/>
      <use x="1047.869141" xlink:href="#DejaVuSans-101"/>
      <use x="1109.392578" xlink:href="#DejaVuSans-110"/>
      <use x="1172.771484" xlink:href="#DejaVuSans-115"/>
      <use x="1224.871094" xlink:href="#DejaVuSans-105"/>
      <use x="1252.654297" xlink:href="#DejaVuSans-111"/>
      <use x="1313.835938" xlink:href="#DejaVuSans-110"/>
      <use x="1377.214844" xlink:href="#DejaVuSans-41"/>
     </g>
    </g>
   </g>
   <g id="matplotlib.axis_2">
    <g id="ytick_1">
     <g id="line2d_21">
      <path clip-path="url(#p1d40a5df9c)" d="M 57.6 298.944 
L 338.688 298.944 
" style="fill:none;stroke:#b0b0b0;stroke-linecap:square;stroke-width:0.8;"/>
     </g>
     <g id="line2d_22">
      <defs>
       <path d="M 0 0 
L -3.5 0 
" id="mabe9695572" style="stroke:#000000;stroke-width:0.8;"/>
      </defs>
      <g>
       <use style="stroke:#000000;stroke-width:0.8;" x="57.6" xlink:href="#mabe9695572" y="298.944"/>
      </g>
     </g>
     <g id="text_6">
      <!-- 0.0 -->
      <g transform="translate(25.155 305.02275)scale(0.16 -0.16)">
       <defs>
        <path d="M 10.6875 12.40625 
L 21 12.40625 
L 21 0 
L 10.6875 0 
z
" id="DejaVuSans-46"/>
       </defs>
       <use xlink:href="#DejaVuSans-48"/>
       <use x="63.623047" xlink:href="#DejaVuSans-46"/>
       <use x="95.410156" xlink:href="#DejaVuSans-48"/>
      </g>
     </g>
    </g>
    <g id="ytick_2">
     <g id="line2d_23">
      <path clip-path="url(#p1d40a5df9c)" d="M 57.6 245.22202 
L 338.688 245.22202 
" style="fill:none;stroke:#b0b0b0;stroke-linecap:square;stroke-width:0.8;"/>
     </g>
     <g id="line2d_24">
      <g>
       <use style="stroke:#000000;stroke-width:0.8;" x="57.6" xlink:href="#mabe9695572" y="245.22202"/>
      </g>
     </g>
     <g id="text_7">
      <!-- 0.2 -->
      <g transform="translate(25.155 251.30077)scale(0.16 -0.16)">
       <use xlink:href="#DejaVuSans-48"/>
       <use x="63.623047" xlink:href="#DejaVuSans-46"/>
       <use x="95.410156" xlink:href="#DejaVuSans-50"/>
      </g>
     </g>
    </g>
    <g id="ytick_3">
     <g id="line2d_25">
      <path clip-path="url(#p1d40a5df9c)" d="M 57.6 191.50004 
L 338.688 191.50004 
" style="fill:none;stroke:#b0b0b0;stroke-linecap:square;stroke-width:0.8;"/>
     </g>
     <g id="line2d_26">
      <g>
       <use style="stroke:#000000;stroke-width:0.8;" x="57.6" xlink:href="#mabe9695572" y="191.50004"/>
      </g>
     </g>
     <g id="text_8">
      <!-- 0.4 -->
      <g transform="translate(25.155 197.57879)scale(0.16 -0.16)">
       <use xlink:href="#DejaVuSans-48"/>
       <use x="63.623047" xlink:href="#DejaVuSans-46"/>
       <use x="95.410156" xlink:href="#DejaVuSans-52"/>
      </g>
     </g>
    </g>
    <g id="ytick_4">
     <g id="line2d_27">
      <path clip-path="url(#p1d40a5df9c)" d="M 57.6 137.778059 
L 338.688 137.778059 
" style="fill:none;stroke:#b0b0b0;stroke-linecap:square;stroke-width:0.8;"/>
     </g>
     <g id="line2d_28">
      <g>
       <use style="stroke:#000000;stroke-width:0.8;" x="57.6" xlink:href="#mabe9695572" y="137.778059"/>
      </g>
     </g>
     <g id="text_9">
      <!-- 0.6 -->
      <g transform="translate(25.155 143.856809)scale(0.16 -0.16)">
       <use xlink:href="#DejaVuSans-48"/>
       <use x="63.623047" xlink:href="#DejaVuSans-46"/>
       <use x="95.410156" xlink:href="#DejaVuSans-54"/>
      </g>
     </g>
    </g>
    <g id="ytick_5">
     <g id="line2d_29">
      <path clip-path="url(#p1d40a5df9c)" d="M 57.6 84.056079 
L 338.688 84.056079 
" style="fill:none;stroke:#b0b0b0;stroke-linecap:square;stroke-width:0.8;"/>
     </g>
     <g id="line2d_30">
      <g>
       <use style="stroke:#000000;stroke-width:0.8;" x="57.6" xlink:href="#mabe9695572" y="84.056079"/>
      </g>
     </g>
     <g id="text_10">
      <!-- 0.8 -->
      <g transform="translate(25.155 90.134829)scale(0.16 -0.16)">
       <defs>
        <path d="M 31.78125 34.625 
Q 24.75 34.625 20.71875 30.859375 
Q 16.703125 27.09375 16.703125 20.515625 
Q 16.703125 13.921875 20.71875 10.15625 
Q 24.75 6.390625 31.78125 6.390625 
Q 38.8125 6.390625 42.859375 10.171875 
Q 46.921875 13.96875 46.921875 20.515625 
Q 46.921875 27.09375 42.890625 30.859375 
Q 38.875 34.625 31.78125 34.625 
z
M 21.921875 38.8125 
Q 15.578125 40.375 12.03125 44.71875 
Q 8.5 49.078125 8.5 55.328125 
Q 8.5 64.0625 14.71875 69.140625 
Q 20.953125 74.21875 31.78125 74.21875 
Q 42.671875 74.21875 48.875 69.140625 
Q 55.078125 64.0625 55.078125 55.328125 
Q 55.078125 49.078125 51.53125 44.71875 
Q 48 40.375 41.703125 38.8125 
Q 48.828125 37.15625 52.796875 32.3125 
Q 56.78125 27.484375 56.78125 20.515625 
Q 56.78125 9.90625 50.3125 4.234375 
Q 43.84375 -1.421875 31.78125 -1.421875 
Q 19.734375 -1.421875 13.25 4.234375 
Q 6.78125 9.90625 6.78125 20.515625 
Q 6.78125 27.484375 10.78125 32.3125 
Q 14.796875 37.15625 21.921875 38.8125 
z
M 18.3125 54.390625 
Q 18.3125 48.734375 21.84375 45.5625 
Q 25.390625 42.390625 31.78125 42.390625 
Q 38.140625 42.390625 41.71875 45.5625 
Q 45.3125 48.734375 45.3125 54.390625 
Q 45.3125 60.0625 41.71875 63.234375 
Q 38.140625 66.40625 31.78125 66.40625 
Q 25.390625 66.40625 21.84375 63.234375 
Q 18.3125 60.0625 18.3125 54.390625 
z
" id="DejaVuSans-56"/>
       </defs>
       <use xlink:href="#DejaVuSans-48"/>
       <use x="63.623047" xlink:href="#DejaVuSans-46"/>
       <use x="95.410156" xlink:href="#DejaVuSans-56"/>
      </g>
     </g>
    </g>
    <g id="ytick_6">
     <g id="line2d_31">
      <path clip-path="url(#p1d40a5df9c)" d="M 57.6 30.334099 
L 338.688 30.334099 
" style="fill:none;stroke:#b0b0b0;stroke-linecap:square;stroke-width:0.8;"/>
     </g>
     <g id="line2d_32">
      <g>
       <use style="stroke:#000000;stroke-width:0.8;" x="57.6" xlink:href="#mabe9695572" y="30.334099"/>
      </g>
     </g>
     <g id="text_11">
      <!-- 1.0 -->
      <g transform="translate(25.155 36.412849)scale(0.16 -0.16)">
       <use xlink:href="#DejaVuSans-49"/>
       <use x="63.623047" xlink:href="#DejaVuSans-46"/>
       <use x="95.410156" xlink:href="#DejaVuSans-48"/>
      </g>
     </g>
    </g>
    <g id="text_12">
     <!-- Fraction of function,target pairs -->
     <g transform="translate(17.619531 297.681)rotate(-90)scale(0.17 -0.17)">
      <defs>
       <path d="M 9.8125 72.90625 
L 51.703125 72.90625 
L 51.703125 64.59375 
L 19.671875 64.59375 
L 19.671875 43.109375 
L 48.578125 43.109375 
L 48.578125 34.8125 
L 19.671875 34.8125 
L 19.671875 0 
L 9.8125 0 
z
" id="DejaVuSans-70"/>
       <path d="M 41.109375 46.296875 
Q 39.59375 47.171875 37.8125 47.578125 
Q 36.03125 48 33.890625 48 
Q 26.265625 48 22.1875 43.046875 
Q 18.109375 38.09375 18.109375 28.8125 
L 18.109375 0 
L 9.078125 0 
L 9.078125 54.6875 
L 18.109375 54.6875 
L 18.109375 46.1875 
Q 20.953125 51.171875 25.484375 53.578125 
Q 30.03125 56 36.53125 56 
Q 37.453125 56 38.578125 55.875 
Q 39.703125 55.765625 41.0625 55.515625 
z
" id="DejaVuSans-114"/>
       <path d="M 48.78125 52.59375 
L 48.78125 44.1875 
Q 44.96875 46.296875 41.140625 47.34375 
Q 37.3125 48.390625 33.40625 48.390625 
Q 24.65625 48.390625 19.8125 42.84375 
Q 14.984375 37.3125 14.984375 27.296875 
Q 14.984375 17.28125 19.8125 11.734375 
Q 24.65625 6.203125 33.40625 6.203125 
Q 37.3125 6.203125 41.140625 7.25 
Q 44.96875 8.296875 48.78125 10.40625 
L 48.78125 2.09375 
Q 45.015625 0.34375 40.984375 -0.53125 
Q 36.96875 -1.421875 32.421875 -1.421875 
Q 20.0625 -1.421875 12.78125 6.34375 
Q 5.515625 14.109375 5.515625 27.296875 
Q 5.515625 40.671875 12.859375 48.328125 
Q 20.21875 56 33.015625 56 
Q 37.15625 56 41.109375 55.140625 
Q 45.0625 54.296875 48.78125 52.59375 
z
" id="DejaVuSans-99"/>
       <path d="M 18.3125 70.21875 
L 18.3125 54.6875 
L 36.8125 54.6875 
L 36.8125 47.703125 
L 18.3125 47.703125 
L 18.3125 18.015625 
Q 18.3125 11.328125 20.140625 9.421875 
Q 21.96875 7.515625 27.59375 7.515625 
L 36.8125 7.515625 
L 36.8125 0 
L 27.59375 0 
Q 17.1875 0 13.234375 3.875 
Q 9.28125 7.765625 9.28125 18.015625 
L 9.28125 47.703125 
L 2.6875 47.703125 
L 2.6875 54.6875 
L 9.28125 54.6875 
L 9.28125 70.21875 
z
" id="DejaVuSans-116"/>
       <path d="M 8.5 21.578125 
L 8.5 54.6875 
L 17.484375 54.6875 
L 17.484375 21.921875 
Q 17.484375 14.15625 20.5 10.265625 
Q 23.53125 6.390625 29.59375 6.390625 
Q 36.859375 6.390625 41.078125 11.03125 
Q 45.3125 15.671875 45.3125 23.6875 
L 45.3125 54.6875 
L 54.296875 54.6875 
L 54.296875 0 
L 45.3125 0 
L 45.3125 8.40625 
Q 42.046875 3.421875 37.71875 1 
Q 33.40625 -1.421875 27.6875 -1.421875 
Q 18.265625 -1.421875 13.375 4.4375 
Q 8.5 10.296875 8.5 21.578125 
z
M 31.109375 56 
z
" id="DejaVuSans-117"/>
       <path d="M 11.71875 12.40625 
L 22.015625 12.40625 
L 22.015625 4 
L 14.015625 -11.625 
L 7.71875 -11.625 
L 11.71875 4 
z
" id="DejaVuSans-44"/>
       <path d="M 18.109375 8.203125 
L 18.109375 -20.796875 
L 9.078125 -20.796875 
L 9.078125 54.6875 
L 18.109375 54.6875 
L 18.109375 46.390625 
Q 20.953125 51.265625 25.265625 53.625 
Q 29.59375 56 35.59375 56 
Q 45.5625 56 51.78125 48.09375 
Q 58.015625 40.1875 58.015625 27.296875 
Q 58.015625 14.40625 51.78125 6.484375 
Q 45.5625 -1.421875 35.59375 -1.421875 
Q 29.59375 -1.421875 25.265625 0.953125 
Q 20.953125 3.328125 18.109375 8.203125 
z
M 48.6875 27.296875 
Q 48.6875 37.203125 44.609375 42.84375 
Q 40.53125 48.484375 33.40625 48.484375 
Q 26.265625 48.484375 22.1875 42.84375 
Q 18.109375 37.203125 18.109375 27.296875 
Q 18.109375 17.390625 22.1875 11.75 
Q 26.265625 6.109375 33.40625 6.109375 
Q 40.53125 6.109375 44.609375 11.75 
Q 48.6875 17.390625 48.6875 27.296875 
z
" id="DejaVuSans-112"/>
      </defs>
      <use xlink:href="#DejaVuSans-70"/>
      <use x="50.269531" xlink:href="#DejaVuSans-114"/>
      <use x="91.382812" xlink:href="#DejaVuSans-97"/>
      <use x="152.662109" xlink:href="#DejaVuSans-99"/>
      <use x="207.642578" xlink:href="#DejaVuSans-116"/>
      <use x="246.851562" xlink:href="#DejaVuSans-105"/>
      <use x="274.634766" xlink:href="#DejaVuSans-111"/>
      <use x="335.816406" xlink:href="#DejaVuSans-110"/>
      <use x="399.195312" xlink:href="#DejaVuSans-32"/>
      <use x="430.982422" xlink:href="#DejaVuSans-111"/>
      <use x="492.164062" xlink:href="#DejaVuSans-102"/>
      <use x="527.369141" xlink:href="#DejaVuSans-32"/>
      <use x="559.15625" xlink:href="#DejaVuSans-102"/>
      <use x="594.361328" xlink:href="#DejaVuSans-117"/>
      <use x="657.740234" xlink:href="#DejaVuSans-110"/>
      <use x="721.119141" xlink:href="#DejaVuSans-99"/>
      <use x="776.099609" xlink:href="#DejaVuSans-116"/>
      <use x="815.308594" xlink:href="#DejaVuSans-105"/>
      <use x="843.091797" xlink:href="#DejaVuSans-111"/>
      <use x="904.273438" xlink:href="#DejaVuSans-110"/>
      <use x="967.652344" xlink:href="#DejaVuSans-44"/>
      <use x="999.439453" xlink:href="#DejaVuSans-116"/>
      <use x="1038.648438" xlink:href="#DejaVuSans-97"/>
      <use x="1099.927734" xlink:href="#DejaVuSans-114"/>
      <use x="1139.291016" xlink:href="#DejaVuSans-103"/>
      <use x="1202.767578" xlink:href="#DejaVuSans-101"/>
      <use x="1264.291016" xlink:href="#DejaVuSans-116"/>
      <use x="1303.5" xlink:href="#DejaVuSans-32"/>
      <use x="1335.287109" xlink:href="#DejaVuSans-112"/>
      <use x="1398.763672" xlink:href="#DejaVuSans-97"/>
      <use x="1460.042969" xlink:href="#DejaVuSans-105"/>
      <use x="1487.826172" xlink:href="#DejaVuSans-114"/>
      <use x="1528.939453" xlink:href="#DejaVuSans-115"/>
     </g>
    </g>
   </g>
   <g id="line2d_33">
    <defs>
     <path d="M 0 1.5 
C 0.397805 1.5 0.77937 1.341951 1.06066 1.06066 
C 1.341951 0.77937 1.5 0.397805 1.5 0 
C 1.5 -0.397805 1.341951 -0.77937 1.06066 -1.06066 
C 0.77937 -1.341951 0.397805 -1.5 0 -1.5 
C -0.397805 -1.5 -0.77937 -1.341951 -1.06066 -1.06066 
C -1.341951 -0.77937 -1.5 -0.397805 -1.5 0 
C -1.5 0.397805 -1.341951 0.77937 -1.06066 1.06066 
C -0.77937 1.341951 -0.397805 1.5 0 1.5 
z
" id="mc5c7a5d0d0" style="stroke:#f5deb3;"/>
    </defs>
    <g>
     <use style="fill:#f5deb3;stroke:#f5deb3;" x="318.500983" xlink:href="#mc5c7a5d0d0" y="62.752535"/>
     <use style="fill:#f5deb3;stroke:#f5deb3;" x="318.500983" xlink:href="#mc5c7a5d0d0" y="62.752535"/>
    </g>
   </g>
   <g id="line2d_34">
    <defs>
     <path d="M 0 1.5 
C 0.397805 1.5 0.77937 1.341951 1.06066 1.06066 
C 1.341951 0.77937 1.5 0.397805 1.5 0 
C 1.5 -0.397805 1.341951 -0.77937 1.06066 -1.06066 
C 0.77937 -1.341951 0.397805 -1.5 0 -1.5 
C -0.397805 -1.5 -0.77937 -1.341951 -1.06066 -1.06066 
C -1.341951 -0.77937 -1.5 -0.397805 -1.5 0 
C -1.5 0.397805 -1.341951 0.77937 -1.06066 1.06066 
C -0.77937 1.341951 -0.397805 1.5 0 1.5 
z
" id="m9ef1f61a0e" style="stroke:#000080;"/>
    </defs>
    <g>
     <use style="fill:#000080;stroke:#000080;" x="256.16987" xlink:href="#m9ef1f61a0e" y="148.429831"/>
     <use style="fill:#000080;stroke:#000080;" x="256.16987" xlink:href="#m9ef1f61a0e" y="148.429831"/>
    </g>
   </g>
   <g id="line2d_35">
    <path d="M 38.440992 298.944 
L 38.440992 292.923433 
L 50.52898 292.923433 
L 50.52898 291.997192 
L 57.6 291.997192 
L 57.6 291.534072 
L 69.687988 291.534072 
L 69.687988 291.070951 
L 72.376266 291.070951 
L 72.376266 290.14471 
L 84.464254 290.14471 
L 84.464254 289.68159 
L 86.792945 289.68159 
L 86.792945 289.218469 
L 87.850195 289.218469 
L 87.850195 287.365987 
L 94.575872 287.365987 
L 94.575872 286.439746 
L 97.755429 286.439746 
L 97.755429 285.050384 
L 98.32726 285.050384 
L 98.32726 283.661023 
L 99.938184 283.661023 
L 99.938184 283.197902 
L 100.443706 283.197902 
L 100.443706 282.734782 
L 110.415248 282.734782 
L 110.415248 281.808541 
L 117.486268 281.808541 
L 117.486268 280.8823 
L 120.254726 280.8823 
L 120.254726 279.956059 
L 124.241922 279.956059 
L 124.241922 279.492938 
L 124.619683 279.492938 
L 124.619683 279.029818 
L 124.743806 279.029818 
L 124.743806 277.640456 
L 127.48501 277.640456 
L 127.48501 277.177336 
L 129.853291 277.177336 
L 129.853291 276.714215 
L 130.036864 276.714215 
L 130.036864 276.251095 
L 132.659801 276.251095 
L 132.659801 275.324854 
L 133.201197 275.324854 
L 133.201197 274.861733 
L 134.800918 274.861733 
L 134.800918 274.398612 
L 134.939326 274.398612 
L 134.939326 273.935492 
L 135.415281 273.935492 
L 135.415281 273.009251 
L 138.199116 273.009251 
L 138.199116 272.08301 
L 138.482688 272.08301 
L 138.482688 271.156769 
L 138.927025 271.156769 
L 138.927025 270.693648 
L 139.887228 270.693648 
L 139.887228 270.230528 
L 140.297583 270.230528 
L 140.297583 269.767407 
L 140.599134 269.767407 
L 140.599134 268.841166 
L 140.993259 268.841166 
L 141.090414 267.914925 
L 141.709062 267.914925 
L 141.709062 267.451805 
L 143.820164 267.451805 
L 143.820164 266.062443 
L 144.865226 266.062443 
L 144.865226 265.599323 
L 145.777292 265.599323 
L 145.777292 265.136202 
L 148.449693 265.136202 
L 148.449693 264.673082 
L 148.950676 264.673082 
L 148.950676 264.209961 
L 149.195872 264.209961 
L 149.195872 263.746841 
L 150.372662 263.746841 
L 150.372662 263.28372 
L 156.45859 263.28372 
L 156.45859 262.8206 
L 157.58535 262.8206 
L 157.58535 262.357479 
L 157.846757 262.357479 
L 157.846757 261.431238 
L 158.285965 261.431238 
L 158.285965 260.504997 
L 158.83738 260.504997 
L 158.83738 260.041876 
L 158.959517 260.041876 
L 158.994256 258.652515 
L 160.184713 258.652515 
L 160.200913 257.263153 
L 162.44642 257.263153 
L 162.44642 256.336912 
L 162.840544 256.336912 
L 162.840544 255.873792 
L 164.076176 255.873792 
L 164.076176 255.410671 
L 167.923499 255.410671 
L 167.923499 254.947551 
L 169.616809 254.947551 
L 169.616809 254.48443 
L 170.419074 254.48443 
L 170.446091 253.558189 
L 171.502282 253.558189 
L 171.519214 252.168828 
L 171.679247 252.168828 
L 171.679247 251.705707 
L 173.072554 251.705707 
L 173.072554 250.779466 
L 173.371849 250.779466 
L 173.371849 250.316346 
L 173.561039 250.316346 
L 173.561039 249.853225 
L 176.286908 249.853225 
L 176.34475 248.000743 
L 177.092038 248.000743 
L 177.092038 247.537622 
L 177.330141 247.537622 
L 177.330141 246.611381 
L 177.838089 246.611381 
L 177.838089 246.148261 
L 179.044023 246.148261 
L 179.044023 245.68514 
L 179.648977 245.68514 
L 179.648977 245.22202 
L 180.679662 245.22202 
L 180.679662 244.758899 
L 181.524569 244.758899 
L 181.524569 244.295779 
L 181.690637 244.295779 
L 181.690637 243.832658 
L 182.601439 243.832658 
L 182.601439 243.369538 
L 184.393075 243.369538 
L 184.393075 242.443297 
L 184.661963 242.443297 
L 184.661963 241.517056 
L 184.832374 241.517056 
L 184.832374 240.127694 
L 185.172149 240.127694 
L 185.172149 239.664574 
L 185.306995 239.664574 
L 185.306995 239.201453 
L 187.534168 239.201453 
L 187.534168 238.275212 
L 188.082775 238.275212 
L 188.082775 237.348971 
L 189.487724 237.348971 
L 189.487724 236.88585 
L 190.052247 236.88585 
L 190.052247 236.42273 
L 190.252818 236.42273 
L 190.252818 235.496489 
L 190.42251 235.496489 
L 190.42251 235.033368 
L 191.73431 235.033368 
L 191.744926 234.107127 
L 192.46479 234.107127 
L 192.46479 233.644007 
L 193.207424 233.644007 
L 193.207424 233.180886 
L 194.693909 233.180886 
L 194.693909 232.254645 
L 194.951878 232.254645 
L 194.951878 231.328404 
L 195.153795 231.328404 
L 195.153795 230.865284 
L 196.259241 230.865284 
L 196.259241 229.939043 
L 196.420292 229.939043 
L 196.420292 229.475922 
L 196.696105 229.475922 
L 196.696105 228.549681 
L 196.89471 228.549681 
L 196.89471 228.086561 
L 198.367141 228.086561 
L 198.367141 227.62344 
L 198.579994 227.62344 
L 198.579994 226.697199 
L 199.10103 226.697199 
L 199.121899 225.307837 
L 199.520528 225.307837 
L 199.520528 224.381596 
L 201.166292 224.381596 
L 201.166292 223.918476 
L 201.863229 223.918476 
L 201.863229 222.992235 
L 201.99344 222.992235 
L 201.99344 222.529114 
L 202.342251 222.529114 
L 202.342251 221.602873 
L 202.857637 221.602873 
L 202.857637 220.676632 
L 202.979263 220.676632 
L 202.979263 219.750391 
L 204.503063 219.750391 
L 204.503063 218.82415 
L 204.786697 218.82415 
L 204.786697 217.897909 
L 205.296632 217.897909 
L 205.296632 217.434789 
L 205.628888 217.434789 
L 205.628888 216.508548 
L 205.907884 216.508548 
L 205.907884 215.582307 
L 207.587469 215.582307 
L 207.587469 215.119186 
L 207.71854 215.119186 
L 207.803264 212.340463 
L 207.895987 212.340463 
L 207.895987 211.414222 
L 208.231128 211.414222 
L 208.231128 210.487981 
L 208.647739 210.487981 
L 208.647739 209.56174 
L 209.272543 209.56174 
L 209.272543 209.098619 
L 209.404117 209.098619 
L 209.404117 208.635499 
L 210.708276 208.635499 
L 210.774334 207.246137 
L 211.136737 207.246137 
L 211.175963 205.393655 
L 212.007372 205.393655 
L 212.007372 204.467414 
L 212.241559 204.467414 
L 212.246473 203.541173 
L 212.360738 203.541173 
L 212.360738 203.078053 
L 213.500627 203.078053 
L 213.500627 202.151812 
L 214.420122 202.151812 
L 214.484342 200.76245 
L 214.608501 200.76245 
L 214.608501 200.299329 
L 214.916843 200.299329 
L 214.916843 199.836209 
L 216.058983 199.836209 
L 216.058983 199.373088 
L 216.500179 199.373088 
L 216.543754 197.520606 
L 216.629944 197.520606 
L 216.629944 197.057486 
L 217.395595 197.057486 
L 217.395595 196.131245 
L 217.811761 196.131245 
L 217.811761 195.668124 
L 218.059944 195.668124 
L 218.059944 194.741883 
L 218.237403 194.741883 
L 218.237403 193.815642 
L 218.447538 193.815642 
L 218.481934 192.426281 
L 218.656305 192.426281 
L 218.656305 191.50004 
L 218.787356 191.50004 
L 218.787356 190.573799 
L 219.088627 190.573799 
L 219.088627 190.110678 
L 219.238431 190.110678 
L 219.249395 189.184437 
L 220.138295 189.184437 
L 220.167436 187.795075 
L 220.253533 187.795075 
L 220.253533 187.331955 
L 220.429072 187.331955 
L 220.47562 186.405714 
L 221.627477 186.405714 
L 221.701438 185.479473 
L 222.020854 185.479473 
L 222.020854 184.553232 
L 222.367096 184.553232 
L 222.367096 184.090111 
L 222.535857 184.090111 
L 222.535857 183.16387 
L 223.00916 183.16387 
L 223.00916 182.70075 
L 223.41782 182.70075 
L 223.52108 180.385147 
L 223.728752 180.385147 
L 223.728752 179.458906 
L 224.116931 179.458906 
L 224.13392 178.532665 
L 224.530699 178.532665 
L 224.60221 177.143304 
L 224.80823 177.143304 
L 224.823762 176.217062 
L 225.172962 176.217062 
L 225.172962 175.290821 
L 225.28692 175.290821 
L 225.28692 174.827701 
L 225.623634 174.827701 
L 225.623634 174.36458 
L 225.84355 174.36458 
L 225.84355 173.90146 
L 226.192987 173.90146 
L 226.192987 173.438339 
L 226.347978 173.438339 
L 226.354907 171.585857 
L 226.627701 171.585857 
L 226.668577 170.196496 
L 227.493603 170.196496 
L 227.493603 169.733375 
L 228.015524 169.733375 
L 228.070139 168.807134 
L 228.17853 168.807134 
L 228.184769 167.880893 
L 228.328634 167.880893 
L 228.328634 167.417773 
L 228.50649 167.417773 
L 228.50649 166.491532 
L 228.684784 166.491532 
L 228.684784 165.565291 
L 229.035682 165.565291 
L 229.035682 165.10217 
L 229.164344 165.10217 
L 229.164344 164.63905 
L 229.300997 164.63905 
L 229.300997 164.175929 
L 229.500946 164.175929 
L 229.500946 163.712808 
L 229.894987 163.712808 
L 229.968352 162.323447 
L 230.087689 162.323447 
L 230.090338 161.397206 
L 230.223748 161.397206 
L 230.223748 160.934085 
L 230.41287 160.934085 
L 230.41287 160.007844 
L 231.068979 160.007844 
L 231.068979 159.081603 
L 231.226877 159.081603 
L 231.226877 158.618483 
L 231.495596 158.618483 
L 231.605497 157.229121 
L 231.794705 157.229121 
L 231.794705 156.766001 
L 231.996136 156.766001 
L 231.996136 156.30288 
L 232.843835 156.30288 
L 232.843835 155.376639 
L 233.033072 155.376639 
L 233.033072 154.913519 
L 233.606339 154.913519 
L 233.606339 154.450398 
L 234.072572 154.450398 
L 234.072572 153.987278 
L 234.335049 153.987278 
L 234.335049 153.524157 
L 234.527578 153.524157 
L 234.527578 153.061037 
L 235.9049 153.061037 
L 235.9049 152.597916 
L 236.445568 152.597916 
L 236.445568 152.134795 
L 236.883463 152.134795 
L 236.883463 151.671675 
L 239.198068 151.671675 
L 239.198068 151.208554 
L 239.575613 151.208554 
L 239.575613 150.745434 
L 239.796827 150.745434 
L 239.796827 149.819193 
L 241.954378 149.819193 
L 241.954378 149.356072 
L 256.16987 149.356072 
L 256.16987 148.429831 
L 338.688 148.429831 
L 338.688 148.429831 
" style="fill:none;stroke:#000080;stroke-linecap:square;stroke-width:1.5;"/>
   </g>
   <g id="line2d_36">
    <defs>
     <path d="M 0 6 
C 1.591219 6 3.117479 5.367802 4.242641 4.242641 
C 5.367802 3.117479 6 1.591219 6 0 
C 6 -1.591219 5.367802 -3.117479 4.242641 -4.242641 
C 3.117479 -5.367802 1.591219 -6 0 -6 
C -1.591219 -6 -3.117479 -5.367802 -4.242641 -4.242641 
C -5.367802 -3.117479 -6 -1.591219 -6 0 
C -6 1.591219 -5.367802 3.117479 -4.242641 4.242641 
C -3.117479 5.367802 -1.591219 6 0 6 
z
" id="m3cdcdd1061" style="stroke:#000080;stroke-width:1.5;"/>
    </defs>
    <g>
     <use style="fill-opacity:0;stroke:#000080;stroke-width:1.5;" x="87.850195" xlink:href="#m3cdcdd1061" y="289.218469"/>
     <use style="fill-opacity:0;stroke:#000080;stroke-width:1.5;" x="150.372662" xlink:href="#m3cdcdd1061" y="263.28372"/>
     <use style="fill-opacity:0;stroke:#000080;stroke-width:1.5;" x="211.175963" xlink:href="#m3cdcdd1061" y="205.393655"/>
     <use style="fill-opacity:0;stroke:#000080;stroke-width:1.5;" x="256.16987" xlink:href="#m3cdcdd1061" y="149.356072"/>
     <use style="fill-opacity:0;stroke:#000080;stroke-width:1.5;" x="256.16987" xlink:href="#m3cdcdd1061" y="148.429831"/>
     <use style="fill-opacity:0;stroke:#000080;stroke-width:1.5;" x="338.688" xlink:href="#m3cdcdd1061" y="148.429831"/>
    </g>
   </g>
   <g id="line2d_37">
    <path style="fill:none;stroke:#000080;stroke-linecap:square;stroke-width:1.5;"/>
    <g/>
   </g>
   <g id="line2d_38">
    <path clip-path="url(#p1d40a5df9c)" d="M 258.377608 148.429831 
" style="fill:none;stroke:#000080;stroke-linecap:square;stroke-width:1.5;"/>
    <defs>
     <path d="M -12 12 
L 12 -12 
M -12 -12 
L 12 12 
" id="ma1519d89a8" style="stroke:#000080;"/>
    </defs>
    <g clip-path="url(#p1d40a5df9c)">
     <use style="fill:#000080;stroke:#000080;" x="258.377608" xlink:href="#ma1519d89a8" y="148.429831"/>
    </g>
   </g>
   <g id="line2d_39">
    <defs>
     <path d="M 0 1.5 
C 0.397805 1.5 0.77937 1.341951 1.06066 1.06066 
C 1.341951 0.77937 1.5 0.397805 1.5 0 
C 1.5 -0.397805 1.341951 -0.77937 1.06066 -1.06066 
C 0.77937 -1.341951 0.397805 -1.5 0 -1.5 
C -0.397805 -1.5 -0.77937 -1.341951 -1.06066 -1.06066 
C -1.341951 -0.77937 -1.5 -0.397805 -1.5 0 
C -1.5 0.397805 -1.341951 0.77937 -1.06066 1.06066 
C -0.77937 1.341951 -0.397805 1.5 0 1.5 
z
" id="ma7f17061a7" style="stroke:#ff00ff;"/>
    </defs>
    <g>
     <use style="fill:#ff00ff;stroke:#ff00ff;" x="258.214023" xlink:href="#ma7f17061a7" y="153.987278"/>
     <use style="fill:#ff00ff;stroke:#ff00ff;" x="258.214023" xlink:href="#ma7f17061a7" y="153.987278"/>
    </g>
   </g>
   <g id="line2d_40">
    <path d="M 38.440992 298.944 
L 38.440992 296.165277 
L 137.852629 296.165277 
L 137.852629 295.239036 
L 145.020588 295.239036 
L 145.020588 294.775915 
L 146.714338 294.775915 
L 146.714338 291.997192 
L 146.992815 291.997192 
L 146.992815 290.607831 
L 148.225905 290.607831 
L 148.225905 290.14471 
L 149.104327 290.14471 
L 149.104327 289.68159 
L 149.527485 289.68159 
L 149.527485 289.218469 
L 150.114722 289.218469 
L 150.201126 286.439746 
L 150.229833 286.439746 
L 150.229833 285.976625 
L 150.429467 285.976625 
L 150.429467 285.050384 
L 151.042412 285.050384 
L 151.042412 284.587264 
L 151.314058 284.587264 
L 151.314058 284.124143 
L 151.44831 284.124143 
L 151.554972 283.197902 
L 151.68739 283.197902 
L 151.740076 281.808541 
L 151.871101 281.808541 
L 151.949246 279.956059 
L 152.207228 279.956059 
L 152.207228 279.492938 
L 152.811246 279.492938 
L 152.811246 277.177336 
L 153.032466 277.177336 
L 153.081247 273.935492 
L 153.371104 273.935492 
L 153.371104 273.472371 
L 153.656221 273.472371 
L 153.656221 272.54613 
L 154.029268 272.54613 
L 154.029268 272.08301 
L 154.144227 272.08301 
L 154.212841 270.693648 
L 154.596634 270.693648 
L 154.596634 269.767407 
L 154.950294 269.767407 
L 155.059358 268.841166 
L 155.167744 268.841166 
L 155.167744 268.378046 
L 155.318362 268.378046 
L 155.318362 267.451805 
L 155.488919 267.451805 
L 155.510121 265.599323 
L 155.908152 265.599323 
L 155.908152 265.136202 
L 156.175347 265.136202 
L 156.236431 264.209961 
L 156.418408 264.209961 
L 156.418408 263.746841 
L 156.992185 263.746841 
L 157.069866 262.8206 
L 157.185742 262.8206 
L 157.243392 260.968117 
L 157.434196 260.968117 
L 157.434196 260.504997 
L 157.58535 260.504997 
L 157.58535 260.041876 
L 157.735205 260.041876 
L 157.735205 259.578756 
L 157.902267 259.578756 
L 157.902267 259.115635 
L 158.086033 259.115635 
L 158.086033 258.189394 
L 158.213527 258.189394 
L 158.213527 257.726274 
L 158.784773 257.726274 
L 158.83738 256.800033 
L 159.080804 256.800033 
L 159.184097 254.947551 
L 159.218393 254.947551 
L 159.218393 254.02131 
L 159.337899 254.02131 
L 159.439685 252.631948 
L 159.93989 252.631948 
L 159.93989 252.168828 
L 160.281688 252.168828 
L 160.281688 251.242587 
L 160.426146 251.242587 
L 160.458086 249.853225 
L 160.680044 249.853225 
L 160.742945 248.463863 
L 160.836873 248.463863 
L 160.930298 246.611381 
L 161.054091 246.611381 
L 161.054091 246.148261 
L 161.299072 246.148261 
L 161.299072 244.758899 
L 161.585586 244.758899 
L 161.585586 243.832658 
L 161.926237 243.832658 
L 161.926237 243.369538 
L 162.173813 243.369538 
L 162.173813 242.906417 
L 162.403659 242.906417 
L 162.489076 239.201453 
L 162.517456 239.201453 
L 162.602318 237.812091 
L 162.812686 237.812091 
L 162.812686 236.88585 
L 163.21234 236.88585 
L 163.21234 235.959609 
L 163.589711 235.959609 
L 163.629664 235.033368 
L 164.295217 235.033368 
L 164.295217 234.107127 
L 164.700211 234.107127 
L 164.700211 233.644007 
L 165.217881 233.644007 
L 165.217881 233.180886 
L 165.471066 233.180886 
L 165.471066 232.254645 
L 165.791279 232.254645 
L 165.791279 231.791525 
L 166.561376 231.791525 
L 166.662278 230.402163 
L 167.244924 230.402163 
L 167.244924 229.475922 
L 167.587512 229.475922 
L 167.587512 228.549681 
L 168.006494 228.549681 
L 168.006494 227.62344 
L 168.253135 227.62344 
L 168.253135 227.16032 
L 168.756032 227.16032 
L 168.756032 226.234079 
L 169.60737 226.234079 
L 169.60737 225.770958 
L 170.265184 225.770958 
L 170.274274 224.381596 
L 171.737838 224.381596 
L 171.737838 223.918476 
L 172.027878 223.918476 
L 172.12622 222.065994 
L 172.963849 222.065994 
L 172.963849 221.602873 
L 174.59126 221.602873 
L 174.59126 220.676632 
L 175.429282 220.676632 
L 175.429282 219.750391 
L 176.478973 219.750391 
L 176.478973 219.287271 
L 177.696161 219.287271 
L 177.696161 218.36103 
L 177.973027 218.36103 
L 177.973027 217.434789 
L 178.12432 217.434789 
L 178.12432 216.971668 
L 178.542219 216.971668 
L 178.542219 216.045427 
L 178.850589 216.045427 
L 178.850589 215.119186 
L 178.98346 215.119186 
L 178.98346 214.192945 
L 183.632568 214.192945 
L 183.632568 213.729825 
L 183.888385 213.729825 
L 183.888385 212.803583 
L 184.469749 212.803583 
L 184.546087 211.877342 
L 184.883568 211.877342 
L 184.883568 210.951101 
L 185.531972 210.951101 
L 185.531972 210.487981 
L 185.73537 210.487981 
L 185.73537 210.02486 
L 187.251537 210.02486 
L 187.251537 209.56174 
L 187.561169 209.56174 
L 187.598227 208.635499 
L 189.881849 208.635499 
L 189.881849 208.172378 
L 190.405328 208.172378 
L 190.405328 207.709258 
L 190.960793 207.709258 
L 191.046612 205.856776 
L 191.81113 205.856776 
L 191.81113 205.393655 
L 193.562428 205.393655 
L 193.624472 204.467414 
L 195.140697 204.467414 
L 195.173422 203.541173 
L 195.572064 203.541173 
L 195.572064 202.614932 
L 195.861511 202.614932 
L 195.880358 200.76245 
L 197.961366 200.76245 
L 197.961366 200.299329 
L 201.382894 200.299329 
L 201.382894 199.836209 
L 201.949159 199.836209 
L 201.949159 198.909968 
L 203.222748 198.909968 
L 203.222748 197.983727 
L 204.879393 197.983727 
L 204.879393 197.520606 
L 206.155802 197.520606 
L 206.155802 196.594365 
L 207.078455 196.594365 
L 207.078455 196.131245 
L 207.228686 196.131245 
L 207.228686 195.205004 
L 207.54892 195.205004 
L 207.54892 194.278763 
L 207.909643 194.278763 
L 207.909643 193.815642 
L 209.139969 193.815642 
L 209.139969 193.352522 
L 209.313283 193.352522 
L 209.313283 192.426281 
L 209.59487 192.426281 
L 209.59487 191.50004 
L 209.766575 191.50004 
L 209.766575 191.036919 
L 210.116101 191.036919 
L 210.116101 190.110678 
L 210.432429 190.110678 
L 210.432429 189.647558 
L 213.643305 189.647558 
L 213.643305 189.184437 
L 214.301161 189.184437 
L 214.301161 188.258196 
L 214.475697 188.258196 
L 214.475697 187.795075 
L 214.684141 187.795075 
L 214.777878 186.405714 
L 215.867094 186.405714 
L 215.867094 185.479473 
L 216.099735 185.479473 
L 216.099735 185.016352 
L 217.336372 185.016352 
L 217.336372 184.553232 
L 217.910275 184.553232 
L 218.001761 183.16387 
L 218.113839 183.16387 
L 218.113839 182.70075 
L 218.437206 182.70075 
L 218.437206 182.237629 
L 218.777223 182.237629 
L 218.777223 181.311388 
L 219.230751 181.311388 
L 219.230751 180.385147 
L 219.552553 180.385147 
L 219.589139 178.995786 
L 220.910988 178.995786 
L 220.910988 178.069545 
L 221.578634 178.069545 
L 221.578634 177.606424 
L 223.429036 177.606424 
L 223.429036 177.143304 
L 224.25156 177.143304 
L 224.25156 176.680183 
L 225.413614 176.680183 
L 225.413614 176.217062 
L 227.279828 176.217062 
L 227.279828 175.753942 
L 228.045335 175.753942 
L 228.045335 175.290821 
L 228.24573 175.290821 
L 228.341004 174.36458 
L 229.337914 174.36458 
L 229.337914 173.90146 
L 229.984054 173.90146 
L 230.043181 172.512098 
L 231.26324 172.512098 
L 231.26324 172.048978 
L 232.384669 172.048978 
L 232.384669 171.585857 
L 232.512194 171.585857 
L 232.512194 170.659616 
L 233.882505 170.659616 
L 233.882505 169.733375 
L 234.305489 169.733375 
L 234.305489 169.270255 
L 234.847545 169.270255 
L 234.847545 168.807134 
L 235.709802 168.807134 
L 235.709802 168.344014 
L 237.125215 168.344014 
L 237.135044 166.954652 
L 237.265047 166.954652 
L 237.349304 165.565291 
L 237.47811 165.565291 
L 237.47811 165.10217 
L 238.989761 165.10217 
L 238.989761 164.63905 
L 239.10318 164.63905 
L 239.10318 164.175929 
L 240.373588 164.175929 
L 240.373588 163.712808 
L 242.32546 163.712808 
L 242.32546 163.249688 
L 244.138001 163.249688 
L 244.138001 162.786567 
L 244.618745 162.786567 
L 244.618745 161.860326 
L 246.827425 161.860326 
L 246.827425 161.397206 
L 248.265318 161.397206 
L 248.265318 160.934085 
L 250.501323 160.934085 
L 250.501323 160.470965 
L 251.535934 160.470965 
L 251.535934 160.007844 
L 252.271709 160.007844 
L 252.271709 159.544724 
L 252.914913 159.544724 
L 252.914913 159.081603 
L 253.181537 159.081603 
L 253.181537 158.155362 
L 253.40739 158.155362 
L 253.40739 157.692242 
L 254.29587 157.692242 
L 254.29587 157.229121 
L 254.407172 157.229121 
L 254.407172 156.30288 
L 254.54538 156.30288 
L 254.54538 155.83976 
L 255.050548 155.83976 
L 255.050548 154.913519 
L 258.214023 154.913519 
L 258.214023 153.987278 
L 338.688 153.987278 
L 338.688 153.987278 
" style="fill:none;stroke:#ff00ff;stroke-linecap:square;stroke-width:1.5;"/>
   </g>
   <g id="line2d_41">
    <defs>
     <path d="M 0 8.485281 
L 5.091169 0 
L 0 -8.485281 
L -5.091169 0 
z
" id="mf87dcb39aa" style="stroke:#ff00ff;stroke-linejoin:miter;stroke-width:1.5;"/>
    </defs>
    <g>
     <use style="fill-opacity:0;stroke:#ff00ff;stroke-linejoin:miter;stroke-width:1.5;" x="160.458086" xlink:href="#mf87dcb39aa" y="249.853225"/>
     <use style="fill-opacity:0;stroke:#ff00ff;stroke-linejoin:miter;stroke-width:1.5;" x="210.432429" xlink:href="#mf87dcb39aa" y="190.110678"/>
     <use style="fill-opacity:0;stroke:#ff00ff;stroke-linejoin:miter;stroke-width:1.5;" x="258.214023" xlink:href="#mf87dcb39aa" y="154.913519"/>
     <use style="fill-opacity:0;stroke:#ff00ff;stroke-linejoin:miter;stroke-width:1.5;" x="258.214023" xlink:href="#mf87dcb39aa" y="153.987278"/>
     <use style="fill-opacity:0;stroke:#ff00ff;stroke-linejoin:miter;stroke-width:1.5;" x="338.688" xlink:href="#mf87dcb39aa" y="153.987278"/>
    </g>
   </g>
   <g id="line2d_42">
    <path style="fill:none;stroke:#ff00ff;stroke-linecap:square;stroke-width:1.5;"/>
    <g/>
   </g>
   <g id="line2d_43">
    <path clip-path="url(#p1d40a5df9c)" d="M 258.38435 153.987278 
" style="fill:none;stroke:#ff00ff;stroke-linecap:square;stroke-width:1.5;"/>
    <defs>
     <path d="M -12 12 
L 12 -12 
M -12 -12 
L 12 12 
" id="m27cdc4e1dc" style="stroke:#ff00ff;"/>
    </defs>
    <g clip-path="url(#p1d40a5df9c)">
     <use style="fill:#ff00ff;stroke:#ff00ff;" x="258.38435" xlink:href="#m27cdc4e1dc" y="153.987278"/>
    </g>
   </g>
   <g id="line2d_44">
    <defs>
     <path d="M 0 1.5 
C 0.397805 1.5 0.77937 1.341951 1.06066 1.06066 
C 1.341951 0.77937 1.5 0.397805 1.5 0 
C 1.5 -0.397805 1.341951 -0.77937 1.06066 -1.06066 
C 0.77937 -1.341951 0.397805 -1.5 0 -1.5 
C -0.397805 -1.5 -0.77937 -1.341951 -1.06066 -1.06066 
C -1.341951 -0.77937 -1.5 -0.397805 -1.5 0 
C -1.5 0.397805 -1.341951 0.77937 -1.06066 1.06066 
C -0.77937 1.341951 -0.397805 1.5 0 1.5 
z
" id="m26cf5de7b2" style="stroke:#ff7500;"/>
    </defs>
    <g>
     <use style="fill:#ff7500;stroke:#ff7500;" x="256.787856" xlink:href="#m26cf5de7b2" y="156.766001"/>
     <use style="fill:#ff7500;stroke:#ff7500;" x="256.787856" xlink:href="#m26cf5de7b2" y="156.766001"/>
    </g>
   </g>
   <g id="line2d_45">
    <path d="M 147.164632 298.944 
L 147.164632 298.480879 
L 147.300877 298.480879 
L 147.300877 298.017759 
L 150.258492 298.017759 
L 150.258492 295.702156 
L 151.394733 295.702156 
L 151.394733 295.239036 
L 154.529516 295.239036 
L 154.529516 294.312795 
L 155.015814 294.312795 
L 155.015814 292.460313 
L 155.403849 292.460313 
L 155.403849 290.607831 
L 157.396202 290.607831 
L 157.396202 289.68159 
L 158.140788 289.68159 
L 158.140788 289.218469 
L 158.429943 289.218469 
L 158.429943 288.755349 
L 158.608261 288.755349 
L 158.661402 287.365987 
L 159.524055 287.365987 
L 159.524055 286.902867 
L 159.89051 286.902867 
L 159.98913 285.513505 
L 160.087195 285.513505 
L 160.119762 284.124143 
L 160.883648 284.124143 
L 160.899212 283.197902 
L 161.054091 283.197902 
L 161.11566 281.808541 
L 161.344625 281.808541 
L 161.344625 280.8823 
L 162.260361 280.8823 
L 162.360793 279.492938 
L 162.403659 279.492938 
L 162.474869 277.640456 
L 162.517456 277.640456 
L 162.517456 277.177336 
L 162.854457 277.177336 
L 162.854457 276.714215 
L 163.225959 276.714215 
L 163.280329 275.324854 
L 163.402046 275.324854 
L 163.402046 274.861733 
L 163.642961 274.861733 
L 163.642961 273.935492 
L 164.050224 273.935492 
L 164.102088 273.009251 
L 164.675172 273.009251 
L 164.675172 272.54613 
L 165.096013 272.54613 
L 165.096013 272.08301 
L 165.290595 272.08301 
L 165.326839 270.230528 
L 165.483031 270.230528 
L 165.542734 268.841166 
L 165.602233 268.841166 
L 165.708824 266.988684 
L 165.943384 266.988684 
L 165.943384 266.525564 
L 166.289413 266.525564 
L 166.380539 265.136202 
L 166.550128 265.136202 
L 166.550128 264.209961 
L 166.718084 264.209961 
L 166.751482 261.431238 
L 166.906499 261.431238 
L 166.972515 260.504997 
L 167.04922 260.504997 
L 167.04922 260.041876 
L 167.320442 260.041876 
L 167.320442 259.578756 
L 167.703739 259.578756 
L 167.787784 257.263153 
L 167.860992 257.263153 
L 167.860992 256.800033 
L 168.078792 256.800033 
L 168.078792 256.336912 
L 168.385289 256.336912 
L 168.496336 254.947551 
L 168.8746 254.947551 
L 168.8746 254.48443 
L 169.002145 254.48443 
L 169.002145 253.558189 
L 169.138466 253.558189 
L 169.138466 253.095069 
L 169.292968 253.095069 
L 169.292968 252.631948 
L 169.436581 252.631948 
L 169.48419 249.853225 
L 169.645097 249.853225 
L 169.645097 249.390104 
L 170.128262 249.390104 
L 170.128262 248.926984 
L 170.29244 248.926984 
L 170.301516 247.537622 
L 170.969087 247.537622 
L 170.969087 247.074502 
L 171.51075 247.074502 
L 171.603625 244.295779 
L 171.67086 244.295779 
L 171.67086 243.369538 
L 171.871027 243.369538 
L 171.920711 241.980176 
L 172.011434 241.980176 
L 172.101686 240.590815 
L 172.199614 240.590815 
L 172.199614 240.127694 
L 172.345483 240.127694 
L 172.345483 239.201453 
L 172.506141 239.201453 
L 172.506141 238.275212 
L 172.649478 238.275212 
L 172.657407 236.88585 
L 172.917053 236.88585 
L 172.917053 236.42273 
L 173.326137 236.42273 
L 173.364239 234.570248 
L 174.036212 234.570248 
L 174.13117 231.791525 
L 174.355542 231.791525 
L 174.355542 231.328404 
L 174.527289 231.328404 
L 174.527289 230.865284 
L 174.654998 230.865284 
L 174.654998 229.939043 
L 174.893703 229.939043 
L 174.970237 228.549681 
L 175.307139 228.549681 
L 175.307139 228.086561 
L 175.617599 228.086561 
L 175.717652 226.697199 
L 176.228874 226.697199 
L 176.312639 224.844717 
L 176.485339 224.844717 
L 176.485339 224.381596 
L 176.819447 224.381596 
L 176.819447 223.455355 
L 177.042792 223.455355 
L 177.061275 222.529114 
L 178.031372 222.529114 
L 178.031372 221.602873 
L 178.643741 221.602873 
L 178.643741 221.139753 
L 178.811643 221.139753 
L 178.811643 220.676632 
L 179.606455 220.676632 
L 179.606455 220.213512 
L 180.300258 220.213512 
L 180.39207 218.82415 
L 180.659634 218.82415 
L 180.659634 218.36103 
L 181.775431 218.36103 
L 181.775431 217.897909 
L 182.484517 217.897909 
L 182.484517 216.971668 
L 184.773118 216.971668 
L 184.773118 216.045427 
L 185.471247 216.045427 
L 185.524393 214.192945 
L 187.224052 214.192945 
L 187.224052 213.266704 
L 187.888582 213.266704 
L 187.921649 212.340463 
L 191.271603 212.340463 
L 191.271603 211.414222 
L 191.736965 211.414222 
L 191.736965 210.951101 
L 192.102075 210.951101 
L 192.102075 210.02486 
L 192.659729 210.02486 
L 192.659729 209.56174 
L 193.102198 209.56174 
L 193.102198 208.635499 
L 194.029453 208.635499 
L 194.045737 207.709258 
L 194.516013 207.709258 
L 194.516013 206.783017 
L 194.903245 206.783017 
L 194.907672 204.930535 
L 197.926036 204.930535 
L 197.926036 204.467414 
L 198.710385 204.467414 
L 198.710385 204.004294 
L 198.947225 204.004294 
L 198.947225 203.541173 
L 199.758421 203.541173 
L 199.758421 202.614932 
L 201.183287 202.614932 
L 201.235713 201.688691 
L 201.655554 201.688691 
L 201.655554 201.225571 
L 202.213173 201.225571 
L 202.213173 200.76245 
L 203.802377 200.76245 
L 203.802377 200.299329 
L 205.275883 200.299329 
L 205.275883 199.836209 
L 205.727938 199.836209 
L 205.727938 198.909968 
L 206.680787 198.909968 
L 206.680787 198.446847 
L 207.092766 198.446847 
L 207.121353 196.594365 
L 207.456483 196.594365 
L 207.456483 196.131245 
L 209.949688 196.131245 
L 209.949688 195.668124 
L 210.325794 195.668124 
L 210.325794 194.741883 
L 211.595772 194.741883 
L 211.595772 194.278763 
L 212.03143 194.278763 
L 212.03143 193.352522 
L 212.49849 193.352522 
L 212.49849 192.426281 
L 213.231079 192.426281 
L 213.231079 191.50004 
L 214.441074 191.50004 
L 214.441074 191.036919 
L 214.631371 191.036919 
L 214.631371 190.110678 
L 215.335447 190.110678 
L 215.335447 189.647558 
L 215.86177 189.647558 
L 215.86177 188.721316 
L 216.725846 188.721316 
L 216.725846 187.795075 
L 218.619411 187.795075 
L 218.619411 187.331955 
L 219.536926 187.331955 
L 219.536926 186.868834 
L 219.670644 186.868834 
L 219.670644 186.405714 
L 220.028056 186.405714 
L 220.028056 185.942593 
L 220.395235 185.942593 
L 220.395235 185.016352 
L 221.019762 185.016352 
L 221.019762 184.553232 
L 221.890869 184.553232 
L 221.890869 184.090111 
L 222.250752 184.090111 
L 222.250752 183.626991 
L 223.296138 183.626991 
L 223.296138 182.70075 
L 223.681635 182.70075 
L 223.681635 182.237629 
L 224.00255 182.237629 
L 224.00255 181.774509 
L 224.690688 181.774509 
L 224.690688 181.311388 
L 225.195969 181.311388 
L 225.195969 180.848268 
L 225.882183 180.848268 
L 225.958447 179.922027 
L 226.680034 179.922027 
L 226.694344 178.532665 
L 227.763749 178.532665 
L 227.763749 178.069545 
L 228.918974 178.069545 
L 228.918974 177.606424 
L 229.849686 177.606424 
L 229.849686 177.143304 
L 230.284106 177.143304 
L 230.284106 176.217062 
L 230.505949 176.217062 
L 230.505949 175.290821 
L 232.317187 175.290821 
L 232.317187 174.827701 
L 232.936585 174.827701 
L 232.936585 173.90146 
L 233.169286 173.90146 
L 233.169286 173.438339 
L 234.412178 173.438339 
L 234.432383 172.512098 
L 234.58613 172.512098 
L 234.58613 172.048978 
L 236.003944 172.048978 
L 236.003944 171.585857 
L 236.391511 171.585857 
L 236.391511 171.122737 
L 239.338225 171.122737 
L 239.338225 170.659616 
L 239.83609 170.659616 
L 239.83609 169.733375 
L 240.493463 169.733375 
L 240.493463 169.270255 
L 240.993421 169.270255 
L 240.993421 168.807134 
L 241.150228 168.807134 
L 241.150228 168.344014 
L 242.413525 168.344014 
L 242.413525 167.880893 
L 243.971355 167.880893 
L 243.971355 167.417773 
L 244.392089 167.417773 
L 244.392089 166.954652 
L 245.354449 166.954652 
L 245.354449 166.491532 
L 246.591359 166.491532 
L 246.591359 166.028411 
L 247.013557 166.028411 
L 247.013557 165.10217 
L 247.14157 165.10217 
L 247.14157 164.175929 
L 247.986456 164.175929 
L 247.986456 163.249688 
L 249.085914 163.249688 
L 249.085914 162.323447 
L 251.096821 162.323447 
L 251.096821 161.860326 
L 251.839799 161.860326 
L 251.839799 161.397206 
L 252.089592 161.397206 
L 252.089592 160.470965 
L 253.053587 160.470965 
L 253.153246 159.081603 
L 253.779903 159.081603 
L 253.779903 158.618483 
L 255.702773 158.618483 
L 255.702773 158.155362 
L 255.993756 158.155362 
L 256.044398 157.229121 
L 256.787856 157.229121 
L 256.787856 156.766001 
L 338.688 156.766001 
L 338.688 156.766001 
" style="fill:none;stroke:#ff7500;stroke-linecap:square;stroke-width:1.5;"/>
   </g>
   <g id="line2d_46">
    <defs>
     <path d="M 0 -6 
L -1.347084 -1.854102 
L -5.706339 -1.854102 
L -2.179628 0.708204 
L -3.526712 4.854102 
L -0 2.291796 
L 3.526712 4.854102 
L 2.179628 0.708204 
L 5.706339 -1.854102 
L 1.347084 -1.854102 
z
" id="m6e25fd5b8a" style="stroke:#ff7500;stroke-linejoin:bevel;stroke-width:1.5;"/>
    </defs>
    <g>
     <use style="fill-opacity:0;stroke:#ff7500;stroke-linejoin:bevel;stroke-width:1.5;" x="170.301516" xlink:href="#m6e25fd5b8a" y="247.537622"/>
     <use style="fill-opacity:0;stroke:#ff7500;stroke-linejoin:bevel;stroke-width:1.5;" x="227.763749" xlink:href="#m6e25fd5b8a" y="178.069545"/>
     <use style="fill-opacity:0;stroke:#ff7500;stroke-linejoin:bevel;stroke-width:1.5;" x="256.787856" xlink:href="#m6e25fd5b8a" y="157.229121"/>
     <use style="fill-opacity:0;stroke:#ff7500;stroke-linejoin:bevel;stroke-width:1.5;" x="256.787856" xlink:href="#m6e25fd5b8a" y="156.766001"/>
     <use style="fill-opacity:0;stroke:#ff7500;stroke-linejoin:bevel;stroke-width:1.5;" x="338.688" xlink:href="#m6e25fd5b8a" y="156.766001"/>
    </g>
   </g>
   <g id="line2d_47">
    <path style="fill:none;stroke:#ff7500;stroke-linecap:square;stroke-width:1.5;"/>
    <g/>
   </g>
   <g id="line2d_48">
    <path clip-path="url(#p1d40a5df9c)" d="M 258.377201 156.766001 
" style="fill:none;stroke:#ff7500;stroke-linecap:square;stroke-width:1.5;"/>
    <defs>
     <path d="M -12 12 
L 12 -12 
M -12 -12 
L 12 12 
" id="m230b3ca6c7" style="stroke:#ff7500;"/>
    </defs>
    <g clip-path="url(#p1d40a5df9c)">
     <use style="fill:#ff7500;stroke:#ff7500;" x="258.377201" xlink:href="#m230b3ca6c7" y="156.766001"/>
    </g>
   </g>
   <g id="line2d_49">
    <path d="M 338.688 156.766001 
L 369.60768 293.571802 
" style="fill:none;stroke:#ff7500;stroke-linecap:square;stroke-width:1.5;"/>
    <g>
     <use style="fill-opacity:0;stroke:#ff7500;stroke-linejoin:bevel;stroke-width:1.5;" x="338.688" xlink:href="#m6e25fd5b8a" y="156.766001"/>
     <use style="fill-opacity:0;stroke:#ff7500;stroke-linejoin:bevel;stroke-width:1.5;" x="369.60768" xlink:href="#m6e25fd5b8a" y="293.571802"/>
    </g>
   </g>
   <g id="line2d_50">
    <path d="M 338.688 153.987278 
L 369.60768 207.616634 
" style="fill:none;stroke:#ff00ff;stroke-linecap:square;stroke-width:1.5;"/>
    <g>
     <use style="fill-opacity:0;stroke:#ff00ff;stroke-linejoin:miter;stroke-width:1.5;" x="338.688" xlink:href="#mf87dcb39aa" y="153.987278"/>
     <use style="fill-opacity:0;stroke:#ff00ff;stroke-linejoin:miter;stroke-width:1.5;" x="369.60768" xlink:href="#mf87dcb39aa" y="207.616634"/>
    </g>
   </g>
   <g id="line2d_51">
    <path d="M 338.688 148.429831 
L 369.60768 121.661465 
" style="fill:none;stroke:#000080;stroke-linecap:square;stroke-width:1.5;"/>
    <g>
     <use style="fill-opacity:0;stroke:#000080;stroke-width:1.5;" x="338.688" xlink:href="#m3cdcdd1061" y="148.429831"/>
     <use style="fill-opacity:0;stroke:#000080;stroke-width:1.5;" x="369.60768" xlink:href="#m3cdcdd1061" y="121.661465"/>
    </g>
   </g>
   <g id="line2d_52">
    <path d="M 338.688 298.944 
L 338.688 30.334099 
" style="fill:none;stroke:#000000;stroke-linecap:square;stroke-width:1.5;"/>
   </g>
   <g id="patch_3">
    <path d="M 57.6 298.944 
L 57.6 27.648 
" style="fill:none;stroke:#000000;stroke-linecap:square;stroke-linejoin:miter;stroke-width:0.8;"/>
   </g>
   <g id="patch_4">
    <path d="M 338.688 298.944 
L 338.688 27.648 
" style="fill:none;stroke:#000000;stroke-linecap:square;stroke-linejoin:miter;stroke-width:0.8;"/>
   </g>
   <g id="patch_5">
    <path d="M 57.6 298.944 
L 338.688 298.944 
" style="fill:none;stroke:#000000;stroke-linecap:square;stroke-linejoin:miter;stroke-width:0.8;"/>
   </g>
   <g id="patch_6">
    <path d="M 57.6 27.648 
L 338.688 27.648 
" style="fill:none;stroke:#000000;stroke-linecap:square;stroke-linejoin:miter;stroke-width:0.8;"/>
   </g>
   <g id="text_13">
    <!-- SMS-EMOA- -->
    <g transform="translate(375.22944 298.262739)scale(0.17 -0.17)">
     <defs>
      <path d="M 53.515625 70.515625 
L 53.515625 60.890625 
Q 47.90625 63.578125 42.921875 64.890625 
Q 37.9375 66.21875 33.296875 66.21875 
Q 25.25 66.21875 20.875 63.09375 
Q 16.5 59.96875 16.5 54.203125 
Q 16.5 49.359375 19.40625 46.890625 
Q 22.3125 44.4375 30.421875 42.921875 
L 36.375 41.703125 
Q 47.40625 39.59375 52.65625 34.296875 
Q 57.90625 29 57.90625 20.125 
Q 57.90625 9.515625 50.796875 4.046875 
Q 43.703125 -1.421875 29.984375 -1.421875 
Q 24.8125 -1.421875 18.96875 -0.25 
Q 13.140625 0.921875 6.890625 3.21875 
L 6.890625 13.375 
Q 12.890625 10.015625 18.65625 8.296875 
Q 24.421875 6.59375 29.984375 6.59375 
Q 38.421875 6.59375 43.015625 9.90625 
Q 47.609375 13.234375 47.609375 19.390625 
Q 47.609375 24.75 44.3125 27.78125 
Q 41.015625 30.8125 33.5 32.328125 
L 27.484375 33.5 
Q 16.453125 35.6875 11.515625 40.375 
Q 6.59375 45.0625 6.59375 53.421875 
Q 6.59375 63.09375 13.40625 68.65625 
Q 20.21875 74.21875 32.171875 74.21875 
Q 37.3125 74.21875 42.625 73.28125 
Q 47.953125 72.359375 53.515625 70.515625 
z
" id="DejaVuSans-83"/>
      <path d="M 9.8125 72.90625 
L 24.515625 72.90625 
L 43.109375 23.296875 
L 61.8125 72.90625 
L 76.515625 72.90625 
L 76.515625 0 
L 66.890625 0 
L 66.890625 64.015625 
L 48.09375 14.015625 
L 38.1875 14.015625 
L 19.390625 64.015625 
L 19.390625 0 
L 9.8125 0 
z
" id="DejaVuSans-77"/>
      <path d="M 9.8125 72.90625 
L 55.90625 72.90625 
L 55.90625 64.59375 
L 19.671875 64.59375 
L 19.671875 43.015625 
L 54.390625 43.015625 
L 54.390625 34.71875 
L 19.671875 34.71875 
L 19.671875 8.296875 
L 56.78125 8.296875 
L 56.78125 0 
L 9.8125 0 
z
" id="DejaVuSans-69"/>
      <path d="M 39.40625 66.21875 
Q 28.65625 66.21875 22.328125 58.203125 
Q 16.015625 50.203125 16.015625 36.375 
Q 16.015625 22.609375 22.328125 14.59375 
Q 28.65625 6.59375 39.40625 6.59375 
Q 50.140625 6.59375 56.421875 14.59375 
Q 62.703125 22.609375 62.703125 36.375 
Q 62.703125 50.203125 56.421875 58.203125 
Q 50.140625 66.21875 39.40625 66.21875 
z
M 39.40625 74.21875 
Q 54.734375 74.21875 63.90625 63.9375 
Q 73.09375 53.65625 73.09375 36.375 
Q 73.09375 19.140625 63.90625 8.859375 
Q 54.734375 -1.421875 39.40625 -1.421875 
Q 24.03125 -1.421875 14.8125 8.828125 
Q 5.609375 19.09375 5.609375 36.375 
Q 5.609375 53.65625 14.8125 63.9375 
Q 24.03125 74.21875 39.40625 74.21875 
z
" id="DejaVuSans-79"/>
      <path d="M 34.1875 63.1875 
L 20.796875 26.90625 
L 47.609375 26.90625 
z
M 28.609375 72.90625 
L 39.796875 72.90625 
L 67.578125 0 
L 57.328125 0 
L 50.6875 18.703125 
L 17.828125 18.703125 
L 11.1875 0 
L 0.78125 0 
z
" id="DejaVuSans-65"/>
     </defs>
     <use xlink:href="#DejaVuSans-83"/>
     <use x="63.476562" xlink:href="#DejaVuSans-77"/>
     <use x="149.755859" xlink:href="#DejaVuSans-83"/>
     <use x="213.232422" xlink:href="#DejaVuSans-45"/>
     <use x="249.316406" xlink:href="#DejaVuSans-69"/>
     <use x="312.5" xlink:href="#DejaVuSans-77"/>
     <use x="398.779297" xlink:href="#DejaVuSans-79"/>
     <use x="475.740234" xlink:href="#DejaVuSans-65"/>
     <use x="541.898438" xlink:href="#DejaVuSans-45"/>
    </g>
   </g>
   <g id="text_14">
    <!-- NSGA-II-M -->
    <g transform="translate(375.22944 212.307571)scale(0.17 -0.17)">
     <defs>
      <path d="M 9.8125 72.90625 
L 23.09375 72.90625 
L 55.421875 11.921875 
L 55.421875 72.90625 
L 64.984375 72.90625 
L 64.984375 0 
L 51.703125 0 
L 19.390625 60.984375 
L 19.390625 0 
L 9.8125 0 
z
" id="DejaVuSans-78"/>
      <path d="M 59.515625 10.40625 
L 59.515625 29.984375 
L 43.40625 29.984375 
L 43.40625 38.09375 
L 69.28125 38.09375 
L 69.28125 6.78125 
Q 63.578125 2.734375 56.6875 0.65625 
Q 49.8125 -1.421875 42 -1.421875 
Q 24.90625 -1.421875 15.25 8.5625 
Q 5.609375 18.5625 5.609375 36.375 
Q 5.609375 54.25 15.25 64.234375 
Q 24.90625 74.21875 42 74.21875 
Q 49.125 74.21875 55.546875 72.453125 
Q 61.96875 70.703125 67.390625 67.28125 
L 67.390625 56.78125 
Q 61.921875 61.421875 55.765625 63.765625 
Q 49.609375 66.109375 42.828125 66.109375 
Q 29.4375 66.109375 22.71875 58.640625 
Q 16.015625 51.171875 16.015625 36.375 
Q 16.015625 21.625 22.71875 14.15625 
Q 29.4375 6.6875 42.828125 6.6875 
Q 48.046875 6.6875 52.140625 7.59375 
Q 56.25 8.5 59.515625 10.40625 
z
" id="DejaVuSans-71"/>
      <path d="M 9.8125 72.90625 
L 19.671875 72.90625 
L 19.671875 0 
L 9.8125 0 
z
" id="DejaVuSans-73"/>
     </defs>
     <use xlink:href="#DejaVuSans-78"/>
     <use x="74.804688" xlink:href="#DejaVuSans-83"/>
     <use x="138.28125" xlink:href="#DejaVuSans-71"/>
     <use x="215.771484" xlink:href="#DejaVuSans-65"/>
     <use x="281.929688" xlink:href="#DejaVuSans-45"/>
     <use x="318.013672" xlink:href="#DejaVuSans-73"/>
     <use x="347.505859" xlink:href="#DejaVuSans-73"/>
     <use x="376.998047" xlink:href="#DejaVuSans-45"/>
     <use x="413.082031" xlink:href="#DejaVuSans-77"/>
    </g>
   </g>
   <g id="text_15">
    <!-- COMO-100  -->
    <g transform="translate(375.22944 126.352403)scale(0.17 -0.17)">
     <defs>
      <path d="M 64.40625 67.28125 
L 64.40625 56.890625 
Q 59.421875 61.53125 53.78125 63.8125 
Q 48.140625 66.109375 41.796875 66.109375 
Q 29.296875 66.109375 22.65625 58.46875 
Q 16.015625 50.828125 16.015625 36.375 
Q 16.015625 21.96875 22.65625 14.328125 
Q 29.296875 6.6875 41.796875 6.6875 
Q 48.140625 6.6875 53.78125 8.984375 
Q 59.421875 11.28125 64.40625 15.921875 
L 64.40625 5.609375 
Q 59.234375 2.09375 53.4375 0.328125 
Q 47.65625 -1.421875 41.21875 -1.421875 
Q 24.65625 -1.421875 15.125 8.703125 
Q 5.609375 18.84375 5.609375 36.375 
Q 5.609375 53.953125 15.125 64.078125 
Q 24.65625 74.21875 41.21875 74.21875 
Q 47.75 74.21875 53.53125 72.484375 
Q 59.328125 70.75 64.40625 67.28125 
z
" id="DejaVuSans-67"/>
     </defs>
     <use xlink:href="#DejaVuSans-67"/>
     <use x="69.824219" xlink:href="#DejaVuSans-79"/>
     <use x="148.535156" xlink:href="#DejaVuSans-77"/>
     <use x="234.814453" xlink:href="#DejaVuSans-79"/>
     <use x="316.275391" xlink:href="#DejaVuSans-45"/>
     <use x="352.359375" xlink:href="#DejaVuSans-49"/>
     <use x="415.982422" xlink:href="#DejaVuSans-48"/>
     <use x="479.605469" xlink:href="#DejaVuSans-48"/>
     <use x="543.228516" xlink:href="#DejaVuSans-32"/>
    </g>
   </g>
   <g id="text_16">
    <!-- best 2016 -->
    <g transform="translate(375.22944 40.397235)scale(0.17 -0.17)">
     <defs>
      <path d="M 48.6875 27.296875 
Q 48.6875 37.203125 44.609375 42.84375 
Q 40.53125 48.484375 33.40625 48.484375 
Q 26.265625 48.484375 22.1875 42.84375 
Q 18.109375 37.203125 18.109375 27.296875 
Q 18.109375 17.390625 22.1875 11.75 
Q 26.265625 6.109375 33.40625 6.109375 
Q 40.53125 6.109375 44.609375 11.75 
Q 48.6875 17.390625 48.6875 27.296875 
z
M 18.109375 46.390625 
Q 20.953125 51.265625 25.265625 53.625 
Q 29.59375 56 35.59375 56 
Q 45.5625 56 51.78125 48.09375 
Q 58.015625 40.1875 58.015625 27.296875 
Q 58.015625 14.40625 51.78125 6.484375 
Q 45.5625 -1.421875 35.59375 -1.421875 
Q 29.59375 -1.421875 25.265625 0.953125 
Q 20.953125 3.328125 18.109375 8.203125 
L 18.109375 0 
L 9.078125 0 
L 9.078125 75.984375 
L 18.109375 75.984375 
z
" id="DejaVuSans-98"/>
     </defs>
     <use xlink:href="#DejaVuSans-98"/>
     <use x="63.476562" xlink:href="#DejaVuSans-101"/>
     <use x="125" xlink:href="#DejaVuSans-115"/>
     <use x="177.099609" xlink:href="#DejaVuSans-116"/>
     <use x="216.308594" xlink:href="#DejaVuSans-32"/>
     <use x="248.095703" xlink:href="#DejaVuSans-50"/>
     <use x="311.71875" xlink:href="#DejaVuSans-48"/>
     <use x="375.341797" xlink:href="#DejaVuSans-49"/>
     <use x="438.964844" xlink:href="#DejaVuSans-54"/>
    </g>
   </g>
   <g id="text_17">
    <!-- bbob-biobj f32, 3-D -->
    <g transform="translate(60.41088 38.111366)scale(0.102 -0.102)">
     <defs>
      <path d="M 9.421875 54.6875 
L 18.40625 54.6875 
L 18.40625 -0.984375 
Q 18.40625 -11.421875 14.421875 -16.109375 
Q 10.453125 -20.796875 1.609375 -20.796875 
L -1.8125 -20.796875 
L -1.8125 -13.1875 
L 0.59375 -13.1875 
Q 5.71875 -13.1875 7.5625 -10.8125 
Q 9.421875 -8.453125 9.421875 -0.984375 
z
M 9.421875 75.984375 
L 18.40625 75.984375 
L 18.40625 64.59375 
L 9.421875 64.59375 
z
" id="DejaVuSans-106"/>
      <path d="M 40.578125 39.3125 
Q 47.65625 37.796875 51.625 33 
Q 55.609375 28.21875 55.609375 21.1875 
Q 55.609375 10.40625 48.1875 4.484375 
Q 40.765625 -1.421875 27.09375 -1.421875 
Q 22.515625 -1.421875 17.65625 -0.515625 
Q 12.796875 0.390625 7.625 2.203125 
L 7.625 11.71875 
Q 11.71875 9.328125 16.59375 8.109375 
Q 21.484375 6.890625 26.8125 6.890625 
Q 36.078125 6.890625 40.9375 10.546875 
Q 45.796875 14.203125 45.796875 21.1875 
Q 45.796875 27.640625 41.28125 31.265625 
Q 36.765625 34.90625 28.71875 34.90625 
L 20.21875 34.90625 
L 20.21875 43.015625 
L 29.109375 43.015625 
Q 36.375 43.015625 40.234375 45.921875 
Q 44.09375 48.828125 44.09375 54.296875 
Q 44.09375 59.90625 40.109375 62.90625 
Q 36.140625 65.921875 28.71875 65.921875 
Q 24.65625 65.921875 20.015625 65.03125 
Q 15.375 64.15625 9.8125 62.3125 
L 9.8125 71.09375 
Q 15.4375 72.65625 20.34375 73.4375 
Q 25.25 74.21875 29.59375 74.21875 
Q 40.828125 74.21875 47.359375 69.109375 
Q 53.90625 64.015625 53.90625 55.328125 
Q 53.90625 49.265625 50.4375 45.09375 
Q 46.96875 40.921875 40.578125 39.3125 
z
" id="DejaVuSans-51"/>
      <path d="M 19.671875 64.796875 
L 19.671875 8.109375 
L 31.59375 8.109375 
Q 46.6875 8.109375 53.6875 14.9375 
Q 60.6875 21.78125 60.6875 36.53125 
Q 60.6875 51.171875 53.6875 57.984375 
Q 46.6875 64.796875 31.59375 64.796875 
z
M 9.8125 72.90625 
L 30.078125 72.90625 
Q 51.265625 72.90625 61.171875 64.09375 
Q 71.09375 55.28125 71.09375 36.53125 
Q 71.09375 17.671875 61.125 8.828125 
Q 51.171875 0 30.078125 0 
L 9.8125 0 
z
" id="DejaVuSans-68"/>
     </defs>
     <use xlink:href="#DejaVuSans-98"/>
     <use x="63.476562" xlink:href="#DejaVuSans-98"/>
     <use x="126.953125" xlink:href="#DejaVuSans-111"/>
     <use x="188.134766" xlink:href="#DejaVuSans-98"/>
     <use x="251.611328" xlink:href="#DejaVuSans-45"/>
     <use x="287.695312" xlink:href="#DejaVuSans-98"/>
     <use x="351.171875" xlink:href="#DejaVuSans-105"/>
     <use x="378.955078" xlink:href="#DejaVuSans-111"/>
     <use x="440.136719" xlink:href="#DejaVuSans-98"/>
     <use x="503.613281" xlink:href="#DejaVuSans-106"/>
     <use x="531.396484" xlink:href="#DejaVuSans-32"/>
     <use x="563.183594" xlink:href="#DejaVuSans-102"/>
     <use x="598.388672" xlink:href="#DejaVuSans-51"/>
     <use x="662.011719" xlink:href="#DejaVuSans-50"/>
     <use x="725.634766" xlink:href="#DejaVuSans-44"/>
     <use x="757.421875" xlink:href="#DejaVuSans-32"/>
     <use x="789.208984" xlink:href="#DejaVuSans-51"/>
     <use x="852.832031" xlink:href="#DejaVuSans-45"/>
     <use x="888.916016" xlink:href="#DejaVuSans-68"/>
    </g>
    <!-- 58 targets: 1..-1.0e-4 -->
    <g transform="translate(60.41088 49.533135)scale(0.102 -0.102)">
     <defs>
      <path d="M 10.796875 72.90625 
L 49.515625 72.90625 
L 49.515625 64.59375 
L 19.828125 64.59375 
L 19.828125 46.734375 
Q 21.96875 47.46875 24.109375 47.828125 
Q 26.265625 48.1875 28.421875 48.1875 
Q 40.625 48.1875 47.75 41.5 
Q 54.890625 34.8125 54.890625 23.390625 
Q 54.890625 11.625 47.5625 5.09375 
Q 40.234375 -1.421875 26.90625 -1.421875 
Q 22.3125 -1.421875 17.546875 -0.640625 
Q 12.796875 0.140625 7.71875 1.703125 
L 7.71875 11.625 
Q 12.109375 9.234375 16.796875 8.0625 
Q 21.484375 6.890625 26.703125 6.890625 
Q 35.15625 6.890625 40.078125 11.328125 
Q 45.015625 15.765625 45.015625 23.390625 
Q 45.015625 31 40.078125 35.4375 
Q 35.15625 39.890625 26.703125 39.890625 
Q 22.75 39.890625 18.8125 39.015625 
Q 14.890625 38.140625 10.796875 36.28125 
z
" id="DejaVuSans-53"/>
      <path d="M 11.71875 12.40625 
L 22.015625 12.40625 
L 22.015625 0 
L 11.71875 0 
z
M 11.71875 51.703125 
L 22.015625 51.703125 
L 22.015625 39.3125 
L 11.71875 39.3125 
z
" id="DejaVuSans-58"/>
     </defs>
     <use xlink:href="#DejaVuSans-53"/>
     <use x="63.623047" xlink:href="#DejaVuSans-56"/>
     <use x="127.246094" xlink:href="#DejaVuSans-32"/>
     <use x="159.033203" xlink:href="#DejaVuSans-116"/>
     <use x="198.242188" xlink:href="#DejaVuSans-97"/>
     <use x="259.521484" xlink:href="#DejaVuSans-114"/>
     <use x="298.884766" xlink:href="#DejaVuSans-103"/>
     <use x="362.361328" xlink:href="#DejaVuSans-101"/>
     <use x="423.884766" xlink:href="#DejaVuSans-116"/>
     <use x="463.09375" xlink:href="#DejaVuSans-115"/>
     <use x="515.193359" xlink:href="#DejaVuSans-58"/>
     <use x="548.884766" xlink:href="#DejaVuSans-32"/>
     <use x="580.671875" xlink:href="#DejaVuSans-49"/>
     <use x="644.294922" xlink:href="#DejaVuSans-46"/>
     <use x="676.082031" xlink:href="#DejaVuSans-46"/>
     <use x="707.869141" xlink:href="#DejaVuSans-45"/>
     <use x="743.953125" xlink:href="#DejaVuSans-49"/>
     <use x="807.576172" xlink:href="#DejaVuSans-46"/>
     <use x="839.363281" xlink:href="#DejaVuSans-48"/>
     <use x="902.986328" xlink:href="#DejaVuSans-101"/>
     <use x="964.509766" xlink:href="#DejaVuSans-45"/>
     <use x="1000.59375" xlink:href="#DejaVuSans-52"/>
    </g>
    <!-- 10 instances -->
    <g transform="translate(60.41088 60.954904)scale(0.102 -0.102)">
     <use xlink:href="#DejaVuSans-49"/>
     <use x="63.623047" xlink:href="#DejaVuSans-48"/>
     <use x="127.246094" xlink:href="#DejaVuSans-32"/>
     <use x="159.033203" xlink:href="#DejaVuSans-105"/>
     <use x="186.816406" xlink:href="#DejaVuSans-110"/>
     <use x="250.195312" xlink:href="#DejaVuSans-115"/>
     <use x="302.294922" xlink:href="#DejaVuSans-116"/>
     <use x="341.503906" xlink:href="#DejaVuSans-97"/>
     <use x="402.783203" xlink:href="#DejaVuSans-110"/>
     <use x="466.162109" xlink:href="#DejaVuSans-99"/>
     <use x="521.142578" xlink:href="#DejaVuSans-101"/>
     <use x="582.666016" xlink:href="#DejaVuSans-115"/>
    </g>
   </g>
   <g id="text_18">
    <!-- v2.4.19, hv-hash=ff0e71e8cd978373 -->
    <g style="fill:#808080;" transform="translate(104.697125 294.151352)scale(0.1 -0.1)">
     <defs>
      <path d="M 10.984375 1.515625 
L 10.984375 10.5 
Q 14.703125 8.734375 18.5 7.8125 
Q 22.3125 6.890625 25.984375 6.890625 
Q 35.75 6.890625 40.890625 13.453125 
Q 46.046875 20.015625 46.78125 33.40625 
Q 43.953125 29.203125 39.59375 26.953125 
Q 35.25 24.703125 29.984375 24.703125 
Q 19.046875 24.703125 12.671875 31.3125 
Q 6.296875 37.9375 6.296875 49.421875 
Q 6.296875 60.640625 12.9375 67.421875 
Q 19.578125 74.21875 30.609375 74.21875 
Q 43.265625 74.21875 49.921875 64.515625 
Q 56.59375 54.828125 56.59375 36.375 
Q 56.59375 19.140625 48.40625 8.859375 
Q 40.234375 -1.421875 26.421875 -1.421875 
Q 22.703125 -1.421875 18.890625 -0.6875 
Q 15.09375 0.046875 10.984375 1.515625 
z
M 30.609375 32.421875 
Q 37.25 32.421875 41.125 36.953125 
Q 45.015625 41.5 45.015625 49.421875 
Q 45.015625 57.28125 41.125 61.84375 
Q 37.25 66.40625 30.609375 66.40625 
Q 23.96875 66.40625 20.09375 61.84375 
Q 16.21875 57.28125 16.21875 49.421875 
Q 16.21875 41.5 20.09375 36.953125 
Q 23.96875 32.421875 30.609375 32.421875 
z
" id="DejaVuSans-57"/>
      <path d="M 54.890625 33.015625 
L 54.890625 0 
L 45.90625 0 
L 45.90625 32.71875 
Q 45.90625 40.484375 42.875 44.328125 
Q 39.84375 48.1875 33.796875 48.1875 
Q 26.515625 48.1875 22.3125 43.546875 
Q 18.109375 38.921875 18.109375 30.90625 
L 18.109375 0 
L 9.078125 0 
L 9.078125 75.984375 
L 18.109375 75.984375 
L 18.109375 46.1875 
Q 21.34375 51.125 25.703125 53.5625 
Q 30.078125 56 35.796875 56 
Q 45.21875 56 50.046875 50.171875 
Q 54.890625 44.34375 54.890625 33.015625 
z
" id="DejaVuSans-104"/>
      <path d="M 10.59375 45.40625 
L 73.1875 45.40625 
L 73.1875 37.203125 
L 10.59375 37.203125 
z
M 10.59375 25.484375 
L 73.1875 25.484375 
L 73.1875 17.1875 
L 10.59375 17.1875 
z
" id="DejaVuSans-61"/>
      <path d="M 8.203125 72.90625 
L 55.078125 72.90625 
L 55.078125 68.703125 
L 28.609375 0 
L 18.3125 0 
L 43.21875 64.59375 
L 8.203125 64.59375 
z
" id="DejaVuSans-55"/>
     </defs>
     <use xlink:href="#DejaVuSans-118"/>
     <use x="59.179688" xlink:href="#DejaVuSans-50"/>
     <use x="122.802734" xlink:href="#DejaVuSans-46"/>
     <use x="154.589844" xlink:href="#DejaVuSans-52"/>
     <use x="218.212891" xlink:href="#DejaVuSans-46"/>
     <use x="250" xlink:href="#DejaVuSans-49"/>
     <use x="313.623047" xlink:href="#DejaVuSans-57"/>
     <use x="377.246094" xlink:href="#DejaVuSans-44"/>
     <use x="409.033203" xlink:href="#DejaVuSans-32"/>
     <use x="440.820312" xlink:href="#DejaVuSans-104"/>
     <use x="504.199219" xlink:href="#DejaVuSans-118"/>
     <use x="560.753906" xlink:href="#DejaVuSans-45"/>
     <use x="596.837891" xlink:href="#DejaVuSans-104"/>
     <use x="660.216797" xlink:href="#DejaVuSans-97"/>
     <use x="721.496094" xlink:href="#DejaVuSans-115"/>
     <use x="773.595703" xlink:href="#DejaVuSans-104"/>
     <use x="836.974609" xlink:href="#DejaVuSans-61"/>
     <use x="920.763672" xlink:href="#DejaVuSans-102"/>
     <use x="955.96875" xlink:href="#DejaVuSans-102"/>
     <use x="991.173828" xlink:href="#DejaVuSans-48"/>
     <use x="1054.796875" xlink:href="#DejaVuSans-101"/>
     <use x="1116.320312" xlink:href="#DejaVuSans-55"/>
     <use x="1179.943359" xlink:href="#DejaVuSans-49"/>
     <use x="1243.566406" xlink:href="#DejaVuSans-101"/>
     <use x="1305.089844" xlink:href="#DejaVuSans-56"/>
     <use x="1368.712891" xlink:href="#DejaVuSans-99"/>
     <use x="1423.693359" xlink:href="#DejaVuSans-100"/>
     <use x="1487.169922" xlink:href="#DejaVuSans-57"/>
     <use x="1550.792969" xlink:href="#DejaVuSans-55"/>
     <use x="1614.416016" xlink:href="#DejaVuSans-56"/>
     <use x="1678.039062" xlink:href="#DejaVuSans-51"/>
     <use x="1741.662109" xlink:href="#DejaVuSans-55"/>
     <use x="1805.285156" xlink:href="#DejaVuSans-51"/>
    </g>
   </g>
   <g id="text_19">
    <!-- 32 Rosenbrock/Schaffer F7 -->
    <g transform="translate(64.003375 21.648)scale(0.2 -0.2)">
     <defs>
      <path d="M 44.390625 34.1875 
Q 47.5625 33.109375 50.5625 29.59375 
Q 53.5625 26.078125 56.59375 19.921875 
L 66.609375 0 
L 56 0 
L 46.6875 18.703125 
Q 43.0625 26.03125 39.671875 28.421875 
Q 36.28125 30.8125 30.421875 30.8125 
L 19.671875 30.8125 
L 19.671875 0 
L 9.8125 0 
L 9.8125 72.90625 
L 32.078125 72.90625 
Q 44.578125 72.90625 50.734375 67.671875 
Q 56.890625 62.453125 56.890625 51.90625 
Q 56.890625 45.015625 53.6875 40.46875 
Q 50.484375 35.9375 44.390625 34.1875 
z
M 19.671875 64.796875 
L 19.671875 38.921875 
L 32.078125 38.921875 
Q 39.203125 38.921875 42.84375 42.21875 
Q 46.484375 45.515625 46.484375 51.90625 
Q 46.484375 58.296875 42.84375 61.546875 
Q 39.203125 64.796875 32.078125 64.796875 
z
" id="DejaVuSans-82"/>
      <path d="M 9.078125 75.984375 
L 18.109375 75.984375 
L 18.109375 31.109375 
L 44.921875 54.6875 
L 56.390625 54.6875 
L 27.390625 29.109375 
L 57.625 0 
L 45.90625 0 
L 18.109375 26.703125 
L 18.109375 0 
L 9.078125 0 
z
" id="DejaVuSans-107"/>
     </defs>
     <use xlink:href="#DejaVuSans-51"/>
     <use x="63.623047" xlink:href="#DejaVuSans-50"/>
     <use x="127.246094" xlink:href="#DejaVuSans-32"/>
     <use x="159.033203" xlink:href="#DejaVuSans-82"/>
     <use x="224.015625" xlink:href="#DejaVuSans-111"/>
     <use x="285.197266" xlink:href="#DejaVuSans-115"/>
     <use x="337.296875" xlink:href="#DejaVuSans-101"/>
     <use x="398.820312" xlink:href="#DejaVuSans-110"/>
     <use x="462.199219" xlink:href="#DejaVuSans-98"/>
     <use x="525.675781" xlink:href="#DejaVuSans-114"/>
     <use x="564.539062" xlink:href="#DejaVuSans-111"/>
     <use x="625.720703" xlink:href="#DejaVuSans-99"/>
     <use x="680.701172" xlink:href="#DejaVuSans-107"/>
     <use x="738.611328" xlink:href="#DejaVuSans-47"/>
     <use x="772.302734" xlink:href="#DejaVuSans-83"/>
     <use x="835.779297" xlink:href="#DejaVuSans-99"/>
     <use x="890.759766" xlink:href="#DejaVuSans-104"/>
     <use x="954.138672" xlink:href="#DejaVuSans-97"/>
     <use x="1015.417969" xlink:href="#DejaVuSans-102"/>
     <use x="1050.623047" xlink:href="#DejaVuSans-102"/>
     <use x="1085.828125" xlink:href="#DejaVuSans-101"/>
     <use x="1147.351562" xlink:href="#DejaVuSans-114"/>
     <use x="1188.464844" xlink:href="#DejaVuSans-32"/>
     <use x="1220.251953" xlink:href="#DejaVuSans-70"/>
     <use x="1277.771484" xlink:href="#DejaVuSans-55"/>
    </g>
   </g>
  </g>
 </g>
 <defs>
  <clipPath id="p1d40a5df9c">
   <rect height="271.296" width="281.088" x="57.6" y="27.648"/>
  </clipPath>
 </defs>
</svg>
