<?xml version="1.0" encoding="utf-8" standalone="no"?>
<!DOCTYPE svg PUBLIC "-//W3C//DTD SVG 1.1//EN"
  "http://www.w3.org/Graphics/SVG/1.1/DTD/svg11.dtd">
<!-- Created with matplotlib (https://matplotlib.org/) -->
<svg height="345.6pt" version="1.1" viewBox="0 0 460.8 345.6" width="460.8pt" xmlns="http://www.w3.org/2000/svg" xmlns:xlink="http://www.w3.org/1999/xlink">
 <metadata>
  <rdf:RDF xmlns:cc="http://creativecommons.org/ns#" xmlns:dc="http://purl.org/dc/elements/1.1/" xmlns:rdf="http://www.w3.org/1999/02/22-rdf-syntax-ns#">
   <cc:Work>
    <dc:type rdf:resource="http://purl.org/dc/dcmitype/StillImage"/>
    <dc:date>2021-04-26T15:05:56.481047</dc:date>
    <dc:format>image/svg+xml</dc:format>
    <dc:creator>
     <cc:Agent>
      <dc:title>Matplotlib v3.3.2, https://matplotlib.org/</dc:title>
     </cc:Agent>
    </dc:creator>
   </cc:Work>
  </rdf:RDF>
 </metadata>
 <defs>
  <style type="text/css">*{stroke-linecap:butt;stroke-linejoin:round;}</style>
 </defs>
 <g id="figure_1">
  <g id="patch_1">
   <path d="M 0 345.6 
L 460.8 345.6 
L 460.8 0 
L 0 0 
z
" style="fill:#ffffff;"/>
  </g>
  <g id="axes_1">
   <g id="patch_2">
    <path d="M 57.6 298.944 
L 338.688 298.944 
L 338.688 27.648 
L 57.6 27.648 
z
" style="fill:#ffffff;"/>
   </g>
   <g id="line2d_1">
    <path d="M 57.6 298.944 
L 57.6 294.312795 
L 64.67102 294.312795 
L 64.67102 285.050384 
L 81.775977 285.050384 
L 81.775977 275.787974 
L 93.863965 275.787974 
L 93.863965 271.156769 
L 110.694282 271.156769 
L 110.694282 257.263153 
L 123.790603 257.263153 
L 123.790603 248.000743 
L 128.856489 248.000743 
L 128.856489 243.369538 
L 135.076644 243.369538 
L 135.076644 234.107127 
L 144.390658 234.107127 
L 144.390658 220.213512 
L 153.466662 220.213512 
L 153.466662 210.951101 
L 161.84538 210.951101 
L 161.84538 201.688691 
L 170.859585 201.688691 
L 170.859585 192.426281 
L 181.66228 192.426281 
L 181.66228 187.795075 
L 184.267247 187.795075 
L 184.267247 173.90146 
L 187.830565 173.90146 
L 187.830565 169.270255 
L 192.542267 169.270255 
L 192.542267 155.376639 
L 197.917657 155.376639 
L 197.917657 146.114229 
L 205.954932 146.114229 
L 205.954932 141.483024 
L 217.436993 141.483024 
L 217.436993 127.589408 
L 226.932137 127.589408 
L 226.932137 122.958203 
L 230.661884 122.958203 
L 230.661884 109.064587 
L 235.195274 109.064587 
L 235.195274 99.802177 
L 240.523424 99.802177 
L 240.523424 90.539766 
L 246.512166 90.539766 
L 246.512166 85.908561 
L 252.888097 85.908561 
L 252.888097 76.646151 
L 259.532923 76.646151 
L 259.532923 62.752535 
L 338.688 62.752535 
" style="fill:none;stroke:#f5deb3;stroke-linecap:square;stroke-width:4;"/>
   </g>
   <g id="line2d_2">
    <defs>
     <path d="M 0 7.778175 
L 7.778175 0 
L 0 -7.778175 
L -7.778175 0 
z
" id="m47481b58eb" style="stroke:#f5deb3;stroke-linejoin:miter;stroke-width:1.5;"/>
    </defs>
    <g>
     <use style="fill:#f5deb3;stroke:#f5deb3;stroke-linejoin:miter;stroke-width:1.5;" x="144.390658" xlink:href="#m47481b58eb" y="234.107127"/>
     <use style="fill:#f5deb3;stroke:#f5deb3;stroke-linejoin:miter;stroke-width:1.5;" x="205.954932" xlink:href="#m47481b58eb" y="146.114229"/>
     <use style="fill:#f5deb3;stroke:#f5deb3;stroke-linejoin:miter;stroke-width:1.5;" x="259.532923" xlink:href="#m47481b58eb" y="62.752535"/>
     <use style="fill:#f5deb3;stroke:#f5deb3;stroke-linejoin:miter;stroke-width:1.5;" x="259.532923" xlink:href="#m47481b58eb" y="62.752535"/>
     <use style="fill:#f5deb3;stroke:#f5deb3;stroke-linejoin:miter;stroke-width:1.5;" x="338.688" xlink:href="#m47481b58eb" y="62.752535"/>
    </g>
   </g>
   <g id="line2d_3">
    <path style="fill:none;stroke:#f5deb3;stroke-linecap:square;stroke-width:4;"/>
    <g/>
   </g>
   <g id="line2d_4">
    <path d="M 338.688 62.752535 
L 369.60768 35.706297 
" style="fill:none;stroke:#f5deb3;stroke-linecap:square;stroke-width:4;"/>
    <g>
     <use style="fill:#f5deb3;stroke:#f5deb3;stroke-linejoin:miter;stroke-width:1.5;" x="338.688" xlink:href="#m47481b58eb" y="62.752535"/>
     <use style="fill:#f5deb3;stroke:#f5deb3;stroke-linejoin:miter;stroke-width:1.5;" x="369.60768" xlink:href="#m47481b58eb" y="35.706297"/>
    </g>
   </g>
   <g id="matplotlib.axis_1">
    <g id="xtick_1">
     <g id="line2d_5">
      <path clip-path="url(#pe9b36402f9)" d="M 57.6 298.944 
L 57.6 27.648 
" style="fill:none;stroke:#b0b0b0;stroke-linecap:square;stroke-width:0.8;"/>
     </g>
     <g id="line2d_6">
      <defs>
       <path d="M 0 0 
L 0 3.5 
" id="ma10948a6d3" style="stroke:#000000;stroke-width:0.8;"/>
      </defs>
      <g>
       <use style="stroke:#000000;stroke-width:0.8;" x="57.6" xlink:href="#ma10948a6d3" y="298.944"/>
      </g>
     </g>
     <g id="text_1">
      <!-- 0 -->
      <g transform="translate(51.2375 321.140875)scale(0.2 -0.2)">
       <defs>
        <path d="M 31.78125 66.40625 
Q 24.171875 66.40625 20.328125 58.90625 
Q 16.5 51.421875 16.5 36.375 
Q 16.5 21.390625 20.328125 13.890625 
Q 24.171875 6.390625 31.78125 6.390625 
Q 39.453125 6.390625 43.28125 13.890625 
Q 47.125 21.390625 47.125 36.375 
Q 47.125 51.421875 43.28125 58.90625 
Q 39.453125 66.40625 31.78125 66.40625 
z
M 31.78125 74.21875 
Q 44.046875 74.21875 50.515625 64.515625 
Q 56.984375 54.828125 56.984375 36.375 
Q 56.984375 17.96875 50.515625 8.265625 
Q 44.046875 -1.421875 31.78125 -1.421875 
Q 19.53125 -1.421875 13.0625 8.265625 
Q 6.59375 17.96875 6.59375 36.375 
Q 6.59375 54.828125 13.0625 64.515625 
Q 19.53125 74.21875 31.78125 74.21875 
z
" id="DejaVuSans-48"/>
       </defs>
       <use xlink:href="#DejaVuSans-48"/>
      </g>
     </g>
    </g>
    <g id="xtick_2">
     <g id="line2d_7">
      <path clip-path="url(#pe9b36402f9)" d="M 137.910857 298.944 
L 137.910857 27.648 
" style="fill:none;stroke:#b0b0b0;stroke-linecap:square;stroke-width:0.8;"/>
     </g>
     <g id="line2d_8">
      <g>
       <use style="stroke:#000000;stroke-width:0.8;" x="137.910857" xlink:href="#ma10948a6d3" y="298.944"/>
      </g>
     </g>
     <g id="text_2">
      <!-- 2 -->
      <g transform="translate(131.548357 321.140875)scale(0.2 -0.2)">
       <defs>
        <path d="M 19.1875 8.296875 
L 53.609375 8.296875 
L 53.609375 0 
L 7.328125 0 
L 7.328125 8.296875 
Q 12.9375 14.109375 22.625 23.890625 
Q 32.328125 33.6875 34.8125 36.53125 
Q 39.546875 41.84375 41.421875 45.53125 
Q 43.3125 49.21875 43.3125 52.78125 
Q 43.3125 58.59375 39.234375 62.25 
Q 35.15625 65.921875 28.609375 65.921875 
Q 23.96875 65.921875 18.8125 64.3125 
Q 13.671875 62.703125 7.8125 59.421875 
L 7.8125 69.390625 
Q 13.765625 71.78125 18.9375 73 
Q 24.125 74.21875 28.421875 74.21875 
Q 39.75 74.21875 46.484375 68.546875 
Q 53.21875 62.890625 53.21875 53.421875 
Q 53.21875 48.921875 51.53125 44.890625 
Q 49.859375 40.875 45.40625 35.40625 
Q 44.1875 33.984375 37.640625 27.21875 
Q 31.109375 20.453125 19.1875 8.296875 
z
" id="DejaVuSans-50"/>
       </defs>
       <use xlink:href="#DejaVuSans-50"/>
      </g>
     </g>
    </g>
    <g id="xtick_3">
     <g id="line2d_9">
      <path clip-path="url(#pe9b36402f9)" d="M 218.221714 298.944 
L 218.221714 27.648 
" style="fill:none;stroke:#b0b0b0;stroke-linecap:square;stroke-width:0.8;"/>
     </g>
     <g id="line2d_10">
      <g>
       <use style="stroke:#000000;stroke-width:0.8;" x="218.221714" xlink:href="#ma10948a6d3" y="298.944"/>
      </g>
     </g>
     <g id="text_3">
      <!-- 4 -->
      <g transform="translate(211.859214 321.140875)scale(0.2 -0.2)">
       <defs>
        <path d="M 37.796875 64.3125 
L 12.890625 25.390625 
L 37.796875 25.390625 
z
M 35.203125 72.90625 
L 47.609375 72.90625 
L 47.609375 25.390625 
L 58.015625 25.390625 
L 58.015625 17.1875 
L 47.609375 17.1875 
L 47.609375 0 
L 37.796875 0 
L 37.796875 17.1875 
L 4.890625 17.1875 
L 4.890625 26.703125 
z
" id="DejaVuSans-52"/>
       </defs>
       <use xlink:href="#DejaVuSans-52"/>
      </g>
     </g>
    </g>
    <g id="xtick_4">
     <g id="line2d_11">
      <path clip-path="url(#pe9b36402f9)" d="M 298.532571 298.944 
L 298.532571 27.648 
" style="fill:none;stroke:#b0b0b0;stroke-linecap:square;stroke-width:0.8;"/>
     </g>
     <g id="line2d_12">
      <g>
       <use style="stroke:#000000;stroke-width:0.8;" x="298.532571" xlink:href="#ma10948a6d3" y="298.944"/>
      </g>
     </g>
     <g id="text_4">
      <!-- 6 -->
      <g transform="translate(292.170071 321.140875)scale(0.2 -0.2)">
       <defs>
        <path d="M 33.015625 40.375 
Q 26.375 40.375 22.484375 35.828125 
Q 18.609375 31.296875 18.609375 23.390625 
Q 18.609375 15.53125 22.484375 10.953125 
Q 26.375 6.390625 33.015625 6.390625 
Q 39.65625 6.390625 43.53125 10.953125 
Q 47.40625 15.53125 47.40625 23.390625 
Q 47.40625 31.296875 43.53125 35.828125 
Q 39.65625 40.375 33.015625 40.375 
z
M 52.59375 71.296875 
L 52.59375 62.3125 
Q 48.875 64.0625 45.09375 64.984375 
Q 41.3125 65.921875 37.59375 65.921875 
Q 27.828125 65.921875 22.671875 59.328125 
Q 17.53125 52.734375 16.796875 39.40625 
Q 19.671875 43.65625 24.015625 45.921875 
Q 28.375 48.1875 33.59375 48.1875 
Q 44.578125 48.1875 50.953125 41.515625 
Q 57.328125 34.859375 57.328125 23.390625 
Q 57.328125 12.15625 50.6875 5.359375 
Q 44.046875 -1.421875 33.015625 -1.421875 
Q 20.359375 -1.421875 13.671875 8.265625 
Q 6.984375 17.96875 6.984375 36.375 
Q 6.984375 53.65625 15.1875 63.9375 
Q 23.390625 74.21875 37.203125 74.21875 
Q 40.921875 74.21875 44.703125 73.484375 
Q 48.484375 72.75 52.59375 71.296875 
z
" id="DejaVuSans-54"/>
       </defs>
       <use xlink:href="#DejaVuSans-54"/>
      </g>
     </g>
    </g>
    <g id="xtick_5">
     <g id="line2d_13">
      <path clip-path="url(#pe9b36402f9)" d="M 97.755429 298.944 
L 97.755429 27.648 
" style="fill:none;stroke:#b0b0b0;stroke-linecap:square;stroke-width:0.8;"/>
     </g>
     <g id="line2d_14">
      <defs>
       <path d="M 0 0 
L 0 2 
" id="m194c49faae" style="stroke:#000000;stroke-width:0.6;"/>
      </defs>
      <g>
       <use style="stroke:#000000;stroke-width:0.6;" x="97.755429" xlink:href="#m194c49faae" y="298.944"/>
      </g>
     </g>
    </g>
    <g id="xtick_6">
     <g id="line2d_15">
      <path clip-path="url(#pe9b36402f9)" d="M 178.066286 298.944 
L 178.066286 27.648 
" style="fill:none;stroke:#b0b0b0;stroke-linecap:square;stroke-width:0.8;"/>
     </g>
     <g id="line2d_16">
      <g>
       <use style="stroke:#000000;stroke-width:0.6;" x="178.066286" xlink:href="#m194c49faae" y="298.944"/>
      </g>
     </g>
    </g>
    <g id="xtick_7">
     <g id="line2d_17">
      <path clip-path="url(#pe9b36402f9)" d="M 258.377143 298.944 
L 258.377143 27.648 
" style="fill:none;stroke:#b0b0b0;stroke-linecap:square;stroke-width:0.8;"/>
     </g>
     <g id="line2d_18">
      <g>
       <use style="stroke:#000000;stroke-width:0.6;" x="258.377143" xlink:href="#m194c49faae" y="298.944"/>
      </g>
     </g>
    </g>
    <g id="xtick_8">
     <g id="line2d_19">
      <path clip-path="url(#pe9b36402f9)" d="M 338.688 298.944 
L 338.688 27.648 
" style="fill:none;stroke:#b0b0b0;stroke-linecap:square;stroke-width:0.8;"/>
     </g>
     <g id="line2d_20">
      <g>
       <use style="stroke:#000000;stroke-width:0.6;" x="338.688" xlink:href="#m194c49faae" y="298.944"/>
      </g>
     </g>
    </g>
    <g id="text_5">
     <!-- log10(# f-evals / dimension) -->
     <g transform="translate(77.764078 342.217594)scale(0.17 -0.17)">
      <defs>
       <path d="M 9.421875 75.984375 
L 18.40625 75.984375 
L 18.40625 0 
L 9.421875 0 
z
" id="DejaVuSans-108"/>
       <path d="M 30.609375 48.390625 
Q 23.390625 48.390625 19.1875 42.75 
Q 14.984375 37.109375 14.984375 27.296875 
Q 14.984375 17.484375 19.15625 11.84375 
Q 23.34375 6.203125 30.609375 6.203125 
Q 37.796875 6.203125 41.984375 11.859375 
Q 46.1875 17.53125 46.1875 27.296875 
Q 46.1875 37.015625 41.984375 42.703125 
Q 37.796875 48.390625 30.609375 48.390625 
z
M 30.609375 56 
Q 42.328125 56 49.015625 48.375 
Q 55.71875 40.765625 55.71875 27.296875 
Q 55.71875 13.875 49.015625 6.21875 
Q 42.328125 -1.421875 30.609375 -1.421875 
Q 18.84375 -1.421875 12.171875 6.21875 
Q 5.515625 13.875 5.515625 27.296875 
Q 5.515625 40.765625 12.171875 48.375 
Q 18.84375 56 30.609375 56 
z
" id="DejaVuSans-111"/>
       <path d="M 45.40625 27.984375 
Q 45.40625 37.75 41.375 43.109375 
Q 37.359375 48.484375 30.078125 48.484375 
Q 22.859375 48.484375 18.828125 43.109375 
Q 14.796875 37.75 14.796875 27.984375 
Q 14.796875 18.265625 18.828125 12.890625 
Q 22.859375 7.515625 30.078125 7.515625 
Q 37.359375 7.515625 41.375 12.890625 
Q 45.40625 18.265625 45.40625 27.984375 
z
M 54.390625 6.78125 
Q 54.390625 -7.171875 48.1875 -13.984375 
Q 42 -20.796875 29.203125 -20.796875 
Q 24.46875 -20.796875 20.265625 -20.09375 
Q 16.0625 -19.390625 12.109375 -17.921875 
L 12.109375 -9.1875 
Q 16.0625 -11.328125 19.921875 -12.34375 
Q 23.78125 -13.375 27.78125 -13.375 
Q 36.625 -13.375 41.015625 -8.765625 
Q 45.40625 -4.15625 45.40625 5.171875 
L 45.40625 9.625 
Q 42.625 4.78125 38.28125 2.390625 
Q 33.9375 0 27.875 0 
Q 17.828125 0 11.671875 7.65625 
Q 5.515625 15.328125 5.515625 27.984375 
Q 5.515625 40.671875 11.671875 48.328125 
Q 17.828125 56 27.875 56 
Q 33.9375 56 38.28125 53.609375 
Q 42.625 51.21875 45.40625 46.390625 
L 45.40625 54.6875 
L 54.390625 54.6875 
z
" id="DejaVuSans-103"/>
       <path d="M 12.40625 8.296875 
L 28.515625 8.296875 
L 28.515625 63.921875 
L 10.984375 60.40625 
L 10.984375 69.390625 
L 28.421875 72.90625 
L 38.28125 72.90625 
L 38.28125 8.296875 
L 54.390625 8.296875 
L 54.390625 0 
L 12.40625 0 
z
" id="DejaVuSans-49"/>
       <path d="M 31 75.875 
Q 24.46875 64.65625 21.28125 53.65625 
Q 18.109375 42.671875 18.109375 31.390625 
Q 18.109375 20.125 21.3125 9.0625 
Q 24.515625 -2 31 -13.1875 
L 23.1875 -13.1875 
Q 15.875 -1.703125 12.234375 9.375 
Q 8.59375 20.453125 8.59375 31.390625 
Q 8.59375 42.28125 12.203125 53.3125 
Q 15.828125 64.359375 23.1875 75.875 
z
" id="DejaVuSans-40"/>
       <path d="M 51.125 44 
L 36.921875 44 
L 32.8125 27.6875 
L 47.125 27.6875 
z
M 43.796875 71.78125 
L 38.71875 51.515625 
L 52.984375 51.515625 
L 58.109375 71.78125 
L 65.921875 71.78125 
L 60.890625 51.515625 
L 76.125 51.515625 
L 76.125 44 
L 58.984375 44 
L 54.984375 27.6875 
L 70.515625 27.6875 
L 70.515625 20.21875 
L 53.078125 20.21875 
L 48 0 
L 40.1875 0 
L 45.21875 20.21875 
L 30.90625 20.21875 
L 25.875 0 
L 18.015625 0 
L 23.09375 20.21875 
L 7.71875 20.21875 
L 7.71875 27.6875 
L 24.90625 27.6875 
L 29 44 
L 13.28125 44 
L 13.28125 51.515625 
L 30.90625 51.515625 
L 35.890625 71.78125 
z
" id="DejaVuSans-35"/>
       <path id="DejaVuSans-32"/>
       <path d="M 37.109375 75.984375 
L 37.109375 68.5 
L 28.515625 68.5 
Q 23.6875 68.5 21.796875 66.546875 
Q 19.921875 64.59375 19.921875 59.515625 
L 19.921875 54.6875 
L 34.71875 54.6875 
L 34.71875 47.703125 
L 19.921875 47.703125 
L 19.921875 0 
L 10.890625 0 
L 10.890625 47.703125 
L 2.296875 47.703125 
L 2.296875 54.6875 
L 10.890625 54.6875 
L 10.890625 58.5 
Q 10.890625 67.625 15.140625 71.796875 
Q 19.390625 75.984375 28.609375 75.984375 
z
" id="DejaVuSans-102"/>
       <path d="M 4.890625 31.390625 
L 31.203125 31.390625 
L 31.203125 23.390625 
L 4.890625 23.390625 
z
" id="DejaVuSans-45"/>
       <path d="M 56.203125 29.59375 
L 56.203125 25.203125 
L 14.890625 25.203125 
Q 15.484375 15.921875 20.484375 11.0625 
Q 25.484375 6.203125 34.421875 6.203125 
Q 39.59375 6.203125 44.453125 7.46875 
Q 49.3125 8.734375 54.109375 11.28125 
L 54.109375 2.78125 
Q 49.265625 0.734375 44.1875 -0.34375 
Q 39.109375 -1.421875 33.890625 -1.421875 
Q 20.796875 -1.421875 13.15625 6.1875 
Q 5.515625 13.8125 5.515625 26.8125 
Q 5.515625 40.234375 12.765625 48.109375 
Q 20.015625 56 32.328125 56 
Q 43.359375 56 49.78125 48.890625 
Q 56.203125 41.796875 56.203125 29.59375 
z
M 47.21875 32.234375 
Q 47.125 39.59375 43.09375 43.984375 
Q 39.0625 48.390625 32.421875 48.390625 
Q 24.90625 48.390625 20.390625 44.140625 
Q 15.875 39.890625 15.1875 32.171875 
z
" id="DejaVuSans-101"/>
       <path d="M 2.984375 54.6875 
L 12.5 54.6875 
L 29.59375 8.796875 
L 46.6875 54.6875 
L 56.203125 54.6875 
L 35.6875 0 
L 23.484375 0 
z
" id="DejaVuSans-118"/>
       <path d="M 34.28125 27.484375 
Q 23.390625 27.484375 19.1875 25 
Q 14.984375 22.515625 14.984375 16.5 
Q 14.984375 11.71875 18.140625 8.90625 
Q 21.296875 6.109375 26.703125 6.109375 
Q 34.1875 6.109375 38.703125 11.40625 
Q 43.21875 16.703125 43.21875 25.484375 
L 43.21875 27.484375 
z
M 52.203125 31.203125 
L 52.203125 0 
L 43.21875 0 
L 43.21875 8.296875 
Q 40.140625 3.328125 35.546875 0.953125 
Q 30.953125 -1.421875 24.3125 -1.421875 
Q 15.921875 -1.421875 10.953125 3.296875 
Q 6 8.015625 6 15.921875 
Q 6 25.140625 12.171875 29.828125 
Q 18.359375 34.515625 30.609375 34.515625 
L 43.21875 34.515625 
L 43.21875 35.40625 
Q 43.21875 41.609375 39.140625 45 
Q 35.0625 48.390625 27.6875 48.390625 
Q 23 48.390625 18.546875 47.265625 
Q 14.109375 46.140625 10.015625 43.890625 
L 10.015625 52.203125 
Q 14.9375 54.109375 19.578125 55.046875 
Q 24.21875 56 28.609375 56 
Q 40.484375 56 46.34375 49.84375 
Q 52.203125 43.703125 52.203125 31.203125 
z
" id="DejaVuSans-97"/>
       <path d="M 44.28125 53.078125 
L 44.28125 44.578125 
Q 40.484375 46.53125 36.375 47.5 
Q 32.28125 48.484375 27.875 48.484375 
Q 21.1875 48.484375 17.84375 46.4375 
Q 14.5 44.390625 14.5 40.28125 
Q 14.5 37.15625 16.890625 35.375 
Q 19.28125 33.59375 26.515625 31.984375 
L 29.59375 31.296875 
Q 39.15625 29.25 43.1875 25.515625 
Q 47.21875 21.78125 47.21875 15.09375 
Q 47.21875 7.46875 41.1875 3.015625 
Q 35.15625 -1.421875 24.609375 -1.421875 
Q 20.21875 -1.421875 15.453125 -0.5625 
Q 10.6875 0.296875 5.421875 2 
L 5.421875 11.28125 
Q 10.40625 8.6875 15.234375 7.390625 
Q 20.0625 6.109375 24.8125 6.109375 
Q 31.15625 6.109375 34.5625 8.28125 
Q 37.984375 10.453125 37.984375 14.40625 
Q 37.984375 18.0625 35.515625 20.015625 
Q 33.0625 21.96875 24.703125 23.78125 
L 21.578125 24.515625 
Q 13.234375 26.265625 9.515625 29.90625 
Q 5.8125 33.546875 5.8125 39.890625 
Q 5.8125 47.609375 11.28125 51.796875 
Q 16.75 56 26.8125 56 
Q 31.78125 56 36.171875 55.265625 
Q 40.578125 54.546875 44.28125 53.078125 
z
" id="DejaVuSans-115"/>
       <path d="M 25.390625 72.90625 
L 33.6875 72.90625 
L 8.296875 -9.28125 
L 0 -9.28125 
z
" id="DejaVuSans-47"/>
       <path d="M 45.40625 46.390625 
L 45.40625 75.984375 
L 54.390625 75.984375 
L 54.390625 0 
L 45.40625 0 
L 45.40625 8.203125 
Q 42.578125 3.328125 38.25 0.953125 
Q 33.9375 -1.421875 27.875 -1.421875 
Q 17.96875 -1.421875 11.734375 6.484375 
Q 5.515625 14.40625 5.515625 27.296875 
Q 5.515625 40.1875 11.734375 48.09375 
Q 17.96875 56 27.875 56 
Q 33.9375 56 38.25 53.625 
Q 42.578125 51.265625 45.40625 46.390625 
z
M 14.796875 27.296875 
Q 14.796875 17.390625 18.875 11.75 
Q 22.953125 6.109375 30.078125 6.109375 
Q 37.203125 6.109375 41.296875 11.75 
Q 45.40625 17.390625 45.40625 27.296875 
Q 45.40625 37.203125 41.296875 42.84375 
Q 37.203125 48.484375 30.078125 48.484375 
Q 22.953125 48.484375 18.875 42.84375 
Q 14.796875 37.203125 14.796875 27.296875 
z
" id="DejaVuSans-100"/>
       <path d="M 9.421875 54.6875 
L 18.40625 54.6875 
L 18.40625 0 
L 9.421875 0 
z
M 9.421875 75.984375 
L 18.40625 75.984375 
L 18.40625 64.59375 
L 9.421875 64.59375 
z
" id="DejaVuSans-105"/>
       <path d="M 52 44.1875 
Q 55.375 50.25 60.0625 53.125 
Q 64.75 56 71.09375 56 
Q 79.640625 56 84.28125 50.015625 
Q 88.921875 44.046875 88.921875 33.015625 
L 88.921875 0 
L 79.890625 0 
L 79.890625 32.71875 
Q 79.890625 40.578125 77.09375 44.375 
Q 74.3125 48.1875 68.609375 48.1875 
Q 61.625 48.1875 57.5625 43.546875 
Q 53.515625 38.921875 53.515625 30.90625 
L 53.515625 0 
L 44.484375 0 
L 44.484375 32.71875 
Q 44.484375 40.625 41.703125 44.40625 
Q 38.921875 48.1875 33.109375 48.1875 
Q 26.21875 48.1875 22.15625 43.53125 
Q 18.109375 38.875 18.109375 30.90625 
L 18.109375 0 
L 9.078125 0 
L 9.078125 54.6875 
L 18.109375 54.6875 
L 18.109375 46.1875 
Q 21.1875 51.21875 25.484375 53.609375 
Q 29.78125 56 35.6875 56 
Q 41.65625 56 45.828125 52.96875 
Q 50 49.953125 52 44.1875 
z
" id="DejaVuSans-109"/>
       <path d="M 54.890625 33.015625 
L 54.890625 0 
L 45.90625 0 
L 45.90625 32.71875 
Q 45.90625 40.484375 42.875 44.328125 
Q 39.84375 48.1875 33.796875 48.1875 
Q 26.515625 48.1875 22.3125 43.546875 
Q 18.109375 38.921875 18.109375 30.90625 
L 18.109375 0 
L 9.078125 0 
L 9.078125 54.6875 
L 18.109375 54.6875 
L 18.109375 46.1875 
Q 21.34375 51.125 25.703125 53.5625 
Q 30.078125 56 35.796875 56 
Q 45.21875 56 50.046875 50.171875 
Q 54.890625 44.34375 54.890625 33.015625 
z
" id="DejaVuSans-110"/>
       <path d="M 8.015625 75.875 
L 15.828125 75.875 
Q 23.140625 64.359375 26.78125 53.3125 
Q 30.421875 42.28125 30.421875 31.390625 
Q 30.421875 20.453125 26.78125 9.375 
Q 23.140625 -1.703125 15.828125 -13.1875 
L 8.015625 -13.1875 
Q 14.5 -2 17.703125 9.0625 
Q 20.90625 20.125 20.90625 31.390625 
Q 20.90625 42.671875 17.703125 53.65625 
Q 14.5 64.65625 8.015625 75.875 
z
" id="DejaVuSans-41"/>
      </defs>
      <use xlink:href="#DejaVuSans-108"/>
      <use x="27.783203" xlink:href="#DejaVuSans-111"/>
      <use x="88.964844" xlink:href="#DejaVuSans-103"/>
      <use x="152.441406" xlink:href="#DejaVuSans-49"/>
      <use x="216.064453" xlink:href="#DejaVuSans-48"/>
      <use x="279.6875" xlink:href="#DejaVuSans-40"/>
      <use x="318.701172" xlink:href="#DejaVuSans-35"/>
      <use x="402.490234" xlink:href="#DejaVuSans-32"/>
      <use x="434.277344" xlink:href="#DejaVuSans-102"/>
      <use x="463.982422" xlink:href="#DejaVuSans-45"/>
      <use x="500.066406" xlink:href="#DejaVuSans-101"/>
      <use x="561.589844" xlink:href="#DejaVuSans-118"/>
      <use x="620.769531" xlink:href="#DejaVuSans-97"/>
      <use x="682.048828" xlink:href="#DejaVuSans-108"/>
      <use x="709.832031" xlink:href="#DejaVuSans-115"/>
      <use x="761.931641" xlink:href="#DejaVuSans-32"/>
      <use x="793.71875" xlink:href="#DejaVuSans-47"/>
      <use x="827.410156" xlink:href="#DejaVuSans-32"/>
      <use x="859.197266" xlink:href="#DejaVuSans-100"/>
      <use x="922.673828" xlink:href="#DejaVuSans-105"/>
      <use x="950.457031" xlink:href="#DejaVuSans-109"/>
      <use x="1047.869141" xlink:href="#DejaVuSans-101"/>
      <use x="1109.392578" xlink:href="#DejaVuSans-110"/>
      <use x="1172.771484" xlink:href="#DejaVuSans-115"/>
      <use x="1224.871094" xlink:href="#DejaVuSans-105"/>
      <use x="1252.654297" xlink:href="#DejaVuSans-111"/>
      <use x="1313.835938" xlink:href="#DejaVuSans-110"/>
      <use x="1377.214844" xlink:href="#DejaVuSans-41"/>
     </g>
    </g>
   </g>
   <g id="matplotlib.axis_2">
    <g id="ytick_1">
     <g id="line2d_21">
      <path clip-path="url(#pe9b36402f9)" d="M 57.6 298.944 
L 338.688 298.944 
" style="fill:none;stroke:#b0b0b0;stroke-linecap:square;stroke-width:0.8;"/>
     </g>
     <g id="line2d_22">
      <defs>
       <path d="M 0 0 
L -3.5 0 
" id="m31bf94dcde" style="stroke:#000000;stroke-width:0.8;"/>
      </defs>
      <g>
       <use style="stroke:#000000;stroke-width:0.8;" x="57.6" xlink:href="#m31bf94dcde" y="298.944"/>
      </g>
     </g>
     <g id="text_6">
      <!-- 0.0 -->
      <g transform="translate(25.155 305.02275)scale(0.16 -0.16)">
       <defs>
        <path d="M 10.6875 12.40625 
L 21 12.40625 
L 21 0 
L 10.6875 0 
z
" id="DejaVuSans-46"/>
       </defs>
       <use xlink:href="#DejaVuSans-48"/>
       <use x="63.623047" xlink:href="#DejaVuSans-46"/>
       <use x="95.410156" xlink:href="#DejaVuSans-48"/>
      </g>
     </g>
    </g>
    <g id="ytick_2">
     <g id="line2d_23">
      <path clip-path="url(#pe9b36402f9)" d="M 57.6 245.22202 
L 338.688 245.22202 
" style="fill:none;stroke:#b0b0b0;stroke-linecap:square;stroke-width:0.8;"/>
     </g>
     <g id="line2d_24">
      <g>
       <use style="stroke:#000000;stroke-width:0.8;" x="57.6" xlink:href="#m31bf94dcde" y="245.22202"/>
      </g>
     </g>
     <g id="text_7">
      <!-- 0.2 -->
      <g transform="translate(25.155 251.30077)scale(0.16 -0.16)">
       <use xlink:href="#DejaVuSans-48"/>
       <use x="63.623047" xlink:href="#DejaVuSans-46"/>
       <use x="95.410156" xlink:href="#DejaVuSans-50"/>
      </g>
     </g>
    </g>
    <g id="ytick_3">
     <g id="line2d_25">
      <path clip-path="url(#pe9b36402f9)" d="M 57.6 191.50004 
L 338.688 191.50004 
" style="fill:none;stroke:#b0b0b0;stroke-linecap:square;stroke-width:0.8;"/>
     </g>
     <g id="line2d_26">
      <g>
       <use style="stroke:#000000;stroke-width:0.8;" x="57.6" xlink:href="#m31bf94dcde" y="191.50004"/>
      </g>
     </g>
     <g id="text_8">
      <!-- 0.4 -->
      <g transform="translate(25.155 197.57879)scale(0.16 -0.16)">
       <use xlink:href="#DejaVuSans-48"/>
       <use x="63.623047" xlink:href="#DejaVuSans-46"/>
       <use x="95.410156" xlink:href="#DejaVuSans-52"/>
      </g>
     </g>
    </g>
    <g id="ytick_4">
     <g id="line2d_27">
      <path clip-path="url(#pe9b36402f9)" d="M 57.6 137.778059 
L 338.688 137.778059 
" style="fill:none;stroke:#b0b0b0;stroke-linecap:square;stroke-width:0.8;"/>
     </g>
     <g id="line2d_28">
      <g>
       <use style="stroke:#000000;stroke-width:0.8;" x="57.6" xlink:href="#m31bf94dcde" y="137.778059"/>
      </g>
     </g>
     <g id="text_9">
      <!-- 0.6 -->
      <g transform="translate(25.155 143.856809)scale(0.16 -0.16)">
       <use xlink:href="#DejaVuSans-48"/>
       <use x="63.623047" xlink:href="#DejaVuSans-46"/>
       <use x="95.410156" xlink:href="#DejaVuSans-54"/>
      </g>
     </g>
    </g>
    <g id="ytick_5">
     <g id="line2d_29">
      <path clip-path="url(#pe9b36402f9)" d="M 57.6 84.056079 
L 338.688 84.056079 
" style="fill:none;stroke:#b0b0b0;stroke-linecap:square;stroke-width:0.8;"/>
     </g>
     <g id="line2d_30">
      <g>
       <use style="stroke:#000000;stroke-width:0.8;" x="57.6" xlink:href="#m31bf94dcde" y="84.056079"/>
      </g>
     </g>
     <g id="text_10">
      <!-- 0.8 -->
      <g transform="translate(25.155 90.134829)scale(0.16 -0.16)">
       <defs>
        <path d="M 31.78125 34.625 
Q 24.75 34.625 20.71875 30.859375 
Q 16.703125 27.09375 16.703125 20.515625 
Q 16.703125 13.921875 20.71875 10.15625 
Q 24.75 6.390625 31.78125 6.390625 
Q 38.8125 6.390625 42.859375 10.171875 
Q 46.921875 13.96875 46.921875 20.515625 
Q 46.921875 27.09375 42.890625 30.859375 
Q 38.875 34.625 31.78125 34.625 
z
M 21.921875 38.8125 
Q 15.578125 40.375 12.03125 44.71875 
Q 8.5 49.078125 8.5 55.328125 
Q 8.5 64.0625 14.71875 69.140625 
Q 20.953125 74.21875 31.78125 74.21875 
Q 42.671875 74.21875 48.875 69.140625 
Q 55.078125 64.0625 55.078125 55.328125 
Q 55.078125 49.078125 51.53125 44.71875 
Q 48 40.375 41.703125 38.8125 
Q 48.828125 37.15625 52.796875 32.3125 
Q 56.78125 27.484375 56.78125 20.515625 
Q 56.78125 9.90625 50.3125 4.234375 
Q 43.84375 -1.421875 31.78125 -1.421875 
Q 19.734375 -1.421875 13.25 4.234375 
Q 6.78125 9.90625 6.78125 20.515625 
Q 6.78125 27.484375 10.78125 32.3125 
Q 14.796875 37.15625 21.921875 38.8125 
z
M 18.3125 54.390625 
Q 18.3125 48.734375 21.84375 45.5625 
Q 25.390625 42.390625 31.78125 42.390625 
Q 38.140625 42.390625 41.71875 45.5625 
Q 45.3125 48.734375 45.3125 54.390625 
Q 45.3125 60.0625 41.71875 63.234375 
Q 38.140625 66.40625 31.78125 66.40625 
Q 25.390625 66.40625 21.84375 63.234375 
Q 18.3125 60.0625 18.3125 54.390625 
z
" id="DejaVuSans-56"/>
       </defs>
       <use xlink:href="#DejaVuSans-48"/>
       <use x="63.623047" xlink:href="#DejaVuSans-46"/>
       <use x="95.410156" xlink:href="#DejaVuSans-56"/>
      </g>
     </g>
    </g>
    <g id="ytick_6">
     <g id="line2d_31">
      <path clip-path="url(#pe9b36402f9)" d="M 57.6 30.334099 
L 338.688 30.334099 
" style="fill:none;stroke:#b0b0b0;stroke-linecap:square;stroke-width:0.8;"/>
     </g>
     <g id="line2d_32">
      <g>
       <use style="stroke:#000000;stroke-width:0.8;" x="57.6" xlink:href="#m31bf94dcde" y="30.334099"/>
      </g>
     </g>
     <g id="text_11">
      <!-- 1.0 -->
      <g transform="translate(25.155 36.412849)scale(0.16 -0.16)">
       <use xlink:href="#DejaVuSans-49"/>
       <use x="63.623047" xlink:href="#DejaVuSans-46"/>
       <use x="95.410156" xlink:href="#DejaVuSans-48"/>
      </g>
     </g>
    </g>
    <g id="text_12">
     <!-- Fraction of function,target pairs -->
     <g transform="translate(17.619531 297.681)rotate(-90)scale(0.17 -0.17)">
      <defs>
       <path d="M 9.8125 72.90625 
L 51.703125 72.90625 
L 51.703125 64.59375 
L 19.671875 64.59375 
L 19.671875 43.109375 
L 48.578125 43.109375 
L 48.578125 34.8125 
L 19.671875 34.8125 
L 19.671875 0 
L 9.8125 0 
z
" id="DejaVuSans-70"/>
       <path d="M 41.109375 46.296875 
Q 39.59375 47.171875 37.8125 47.578125 
Q 36.03125 48 33.890625 48 
Q 26.265625 48 22.1875 43.046875 
Q 18.109375 38.09375 18.109375 28.8125 
L 18.109375 0 
L 9.078125 0 
L 9.078125 54.6875 
L 18.109375 54.6875 
L 18.109375 46.1875 
Q 20.953125 51.171875 25.484375 53.578125 
Q 30.03125 56 36.53125 56 
Q 37.453125 56 38.578125 55.875 
Q 39.703125 55.765625 41.0625 55.515625 
z
" id="DejaVuSans-114"/>
       <path d="M 48.78125 52.59375 
L 48.78125 44.1875 
Q 44.96875 46.296875 41.140625 47.34375 
Q 37.3125 48.390625 33.40625 48.390625 
Q 24.65625 48.390625 19.8125 42.84375 
Q 14.984375 37.3125 14.984375 27.296875 
Q 14.984375 17.28125 19.8125 11.734375 
Q 24.65625 6.203125 33.40625 6.203125 
Q 37.3125 6.203125 41.140625 7.25 
Q 44.96875 8.296875 48.78125 10.40625 
L 48.78125 2.09375 
Q 45.015625 0.34375 40.984375 -0.53125 
Q 36.96875 -1.421875 32.421875 -1.421875 
Q 20.0625 -1.421875 12.78125 6.34375 
Q 5.515625 14.109375 5.515625 27.296875 
Q 5.515625 40.671875 12.859375 48.328125 
Q 20.21875 56 33.015625 56 
Q 37.15625 56 41.109375 55.140625 
Q 45.0625 54.296875 48.78125 52.59375 
z
" id="DejaVuSans-99"/>
       <path d="M 18.3125 70.21875 
L 18.3125 54.6875 
L 36.8125 54.6875 
L 36.8125 47.703125 
L 18.3125 47.703125 
L 18.3125 18.015625 
Q 18.3125 11.328125 20.140625 9.421875 
Q 21.96875 7.515625 27.59375 7.515625 
L 36.8125 7.515625 
L 36.8125 0 
L 27.59375 0 
Q 17.1875 0 13.234375 3.875 
Q 9.28125 7.765625 9.28125 18.015625 
L 9.28125 47.703125 
L 2.6875 47.703125 
L 2.6875 54.6875 
L 9.28125 54.6875 
L 9.28125 70.21875 
z
" id="DejaVuSans-116"/>
       <path d="M 8.5 21.578125 
L 8.5 54.6875 
L 17.484375 54.6875 
L 17.484375 21.921875 
Q 17.484375 14.15625 20.5 10.265625 
Q 23.53125 6.390625 29.59375 6.390625 
Q 36.859375 6.390625 41.078125 11.03125 
Q 45.3125 15.671875 45.3125 23.6875 
L 45.3125 54.6875 
L 54.296875 54.6875 
L 54.296875 0 
L 45.3125 0 
L 45.3125 8.40625 
Q 42.046875 3.421875 37.71875 1 
Q 33.40625 -1.421875 27.6875 -1.421875 
Q 18.265625 -1.421875 13.375 4.4375 
Q 8.5 10.296875 8.5 21.578125 
z
M 31.109375 56 
z
" id="DejaVuSans-117"/>
       <path d="M 11.71875 12.40625 
L 22.015625 12.40625 
L 22.015625 4 
L 14.015625 -11.625 
L 7.71875 -11.625 
L 11.71875 4 
z
" id="DejaVuSans-44"/>
       <path d="M 18.109375 8.203125 
L 18.109375 -20.796875 
L 9.078125 -20.796875 
L 9.078125 54.6875 
L 18.109375 54.6875 
L 18.109375 46.390625 
Q 20.953125 51.265625 25.265625 53.625 
Q 29.59375 56 35.59375 56 
Q 45.5625 56 51.78125 48.09375 
Q 58.015625 40.1875 58.015625 27.296875 
Q 58.015625 14.40625 51.78125 6.484375 
Q 45.5625 -1.421875 35.59375 -1.421875 
Q 29.59375 -1.421875 25.265625 0.953125 
Q 20.953125 3.328125 18.109375 8.203125 
z
M 48.6875 27.296875 
Q 48.6875 37.203125 44.609375 42.84375 
Q 40.53125 48.484375 33.40625 48.484375 
Q 26.265625 48.484375 22.1875 42.84375 
Q 18.109375 37.203125 18.109375 27.296875 
Q 18.109375 17.390625 22.1875 11.75 
Q 26.265625 6.109375 33.40625 6.109375 
Q 40.53125 6.109375 44.609375 11.75 
Q 48.6875 17.390625 48.6875 27.296875 
z
" id="DejaVuSans-112"/>
      </defs>
      <use xlink:href="#DejaVuSans-70"/>
      <use x="50.269531" xlink:href="#DejaVuSans-114"/>
      <use x="91.382812" xlink:href="#DejaVuSans-97"/>
      <use x="152.662109" xlink:href="#DejaVuSans-99"/>
      <use x="207.642578" xlink:href="#DejaVuSans-116"/>
      <use x="246.851562" xlink:href="#DejaVuSans-105"/>
      <use x="274.634766" xlink:href="#DejaVuSans-111"/>
      <use x="335.816406" xlink:href="#DejaVuSans-110"/>
      <use x="399.195312" xlink:href="#DejaVuSans-32"/>
      <use x="430.982422" xlink:href="#DejaVuSans-111"/>
      <use x="492.164062" xlink:href="#DejaVuSans-102"/>
      <use x="527.369141" xlink:href="#DejaVuSans-32"/>
      <use x="559.15625" xlink:href="#DejaVuSans-102"/>
      <use x="594.361328" xlink:href="#DejaVuSans-117"/>
      <use x="657.740234" xlink:href="#DejaVuSans-110"/>
      <use x="721.119141" xlink:href="#DejaVuSans-99"/>
      <use x="776.099609" xlink:href="#DejaVuSans-116"/>
      <use x="815.308594" xlink:href="#DejaVuSans-105"/>
      <use x="843.091797" xlink:href="#DejaVuSans-111"/>
      <use x="904.273438" xlink:href="#DejaVuSans-110"/>
      <use x="967.652344" xlink:href="#DejaVuSans-44"/>
      <use x="999.439453" xlink:href="#DejaVuSans-116"/>
      <use x="1038.648438" xlink:href="#DejaVuSans-97"/>
      <use x="1099.927734" xlink:href="#DejaVuSans-114"/>
      <use x="1139.291016" xlink:href="#DejaVuSans-103"/>
      <use x="1202.767578" xlink:href="#DejaVuSans-101"/>
      <use x="1264.291016" xlink:href="#DejaVuSans-116"/>
      <use x="1303.5" xlink:href="#DejaVuSans-32"/>
      <use x="1335.287109" xlink:href="#DejaVuSans-112"/>
      <use x="1398.763672" xlink:href="#DejaVuSans-97"/>
      <use x="1460.042969" xlink:href="#DejaVuSans-105"/>
      <use x="1487.826172" xlink:href="#DejaVuSans-114"/>
      <use x="1528.939453" xlink:href="#DejaVuSans-115"/>
     </g>
    </g>
   </g>
   <g id="line2d_33">
    <defs>
     <path d="M 0 1.5 
C 0.397805 1.5 0.77937 1.341951 1.06066 1.06066 
C 1.341951 0.77937 1.5 0.397805 1.5 0 
C 1.5 -0.397805 1.341951 -0.77937 1.06066 -1.06066 
C 0.77937 -1.341951 0.397805 -1.5 0 -1.5 
C -0.397805 -1.5 -0.77937 -1.341951 -1.06066 -1.06066 
C -1.341951 -0.77937 -1.5 -0.397805 -1.5 0 
C -1.5 0.397805 -1.341951 0.77937 -1.06066 1.06066 
C -0.77937 1.341951 -0.397805 1.5 0 1.5 
z
" id="mf4534c94cc" style="stroke:#f5deb3;"/>
    </defs>
    <g>
     <use style="fill:#f5deb3;stroke:#f5deb3;" x="259.532923" xlink:href="#mf4534c94cc" y="62.752535"/>
     <use style="fill:#f5deb3;stroke:#f5deb3;" x="259.532923" xlink:href="#mf4534c94cc" y="62.752535"/>
    </g>
   </g>
   <g id="line2d_34">
    <defs>
     <path d="M 0 1.5 
C 0.397805 1.5 0.77937 1.341951 1.06066 1.06066 
C 1.341951 0.77937 1.5 0.397805 1.5 0 
C 1.5 -0.397805 1.341951 -0.77937 1.06066 -1.06066 
C 0.77937 -1.341951 0.397805 -1.5 0 -1.5 
C -0.397805 -1.5 -0.77937 -1.341951 -1.06066 -1.06066 
C -1.341951 -0.77937 -1.5 -0.397805 -1.5 0 
C -1.5 0.397805 -1.341951 0.77937 -1.06066 1.06066 
C -0.77937 1.341951 -0.397805 1.5 0 1.5 
z
" id="m25f9d7b281" style="stroke:#000080;"/>
    </defs>
    <g>
     <use style="fill:#000080;stroke:#000080;" x="257.817257" xlink:href="#m25f9d7b281" y="97.023454"/>
     <use style="fill:#000080;stroke:#000080;" x="257.817257" xlink:href="#m25f9d7b281" y="97.023454"/>
    </g>
   </g>
   <g id="line2d_35">
    <path d="M 45.512012 298.944 
L 45.512012 285.976625 
L 64.67102 285.976625 
L 64.67102 284.587264 
L 69.687988 284.587264 
L 69.687988 283.197902 
L 73.579452 283.197902 
L 73.579452 282.734782 
L 76.759008 282.734782 
L 76.759008 281.34542 
L 79.447285 281.34542 
L 79.447285 279.492938 
L 81.775977 279.492938 
L 81.775977 279.029818 
L 83.830028 279.029818 
L 83.830028 278.103577 
L 87.329581 278.103577 
L 87.329581 276.251095 
L 88.846997 276.251095 
L 88.846997 275.787974 
L 91.535274 275.787974 
L 91.535274 274.861733 
L 92.73846 274.861733 
L 92.73846 274.398612 
L 94.921215 274.398612 
L 94.921215 273.935492 
L 96.86091 273.935492 
L 96.86091 271.619889 
L 101.646892 271.619889 
L 101.646892 270.693648 
L 102.330873 270.693648 
L 102.330873 269.767407 
L 104.23523 269.767407 
L 104.23523 268.841166 
L 106.48859 268.841166 
L 106.48859 267.914925 
L 108.006005 267.914925 
L 108.006005 266.988684 
L 109.843417 266.988684 
L 109.843417 266.525564 
L 110.694282 266.525564 
L 110.694282 266.062443 
L 115.077025 266.062443 
L 115.077025 265.136202 
L 115.711251 265.136202 
L 115.711251 264.209961 
L 116.621333 264.209961 
L 116.621333 262.8206 
L 118.576578 262.8206 
L 118.576578 262.357479 
L 120.33454 262.357479 
L 120.33454 261.431238 
L 123.192626 261.431238 
L 123.192626 260.504997 
L 127.642832 260.504997 
L 127.642832 260.041876 
L 129.433047 260.041876 
L 129.433047 259.115635 
L 131.185181 259.115635 
L 131.185181 258.189394 
L 132.893889 258.189394 
L 132.893889 257.726274 
L 134.12805 257.726274 
L 134.12805 256.800033 
L 134.450015 256.800033 
L 134.450015 255.873792 
L 134.766144 255.873792 
L 134.766144 255.410671 
L 136.170062 255.410671 
L 136.170062 254.48443 
L 139.652088 254.48443 
L 139.730821 253.558189 
L 140.042245 253.558189 
L 140.042245 253.095069 
L 141.162927 253.095069 
L 141.162927 252.168828 
L 141.662245 252.168828 
L 141.662245 251.705707 
L 142.147664 251.705707 
L 142.147664 251.242587 
L 142.818488 251.242587 
L 142.818488 250.316346 
L 143.527762 250.316346 
L 143.527762 248.926984 
L 144.747789 248.926984 
L 144.747789 248.463863 
L 145.497361 248.463863 
L 145.497361 247.537622 
L 145.998045 247.537622 
L 146.052799 246.148261 
L 147.215849 246.148261 
L 147.266916 245.22202 
L 148.686322 245.22202 
L 148.686322 244.295779 
L 150.38688 244.295779 
L 150.38688 243.832658 
L 150.932558 243.832658 
L 150.932558 243.369538 
L 151.381313 243.369538 
L 151.381313 242.443297 
L 152.283884 242.443297 
L 152.283884 241.980176 
L 153.573542 241.980176 
L 153.573542 241.053935 
L 154.337936 241.053935 
L 154.337936 240.590815 
L 155.520713 240.590815 
L 155.55245 238.738333 
L 155.897793 238.738333 
L 155.897793 238.275212 
L 156.806295 238.275212 
L 156.806295 237.812091 
L 161.054091 237.812091 
L 161.054091 236.88585 
L 162.260361 236.88585 
L 162.260361 235.033368 
L 162.770815 235.033368 
L 162.770815 234.107127 
L 163.103002 234.107127 
L 163.103002 233.644007 
L 164.121498 233.644007 
L 164.121498 232.717766 
L 164.256762 232.717766 
L 164.256762 232.254645 
L 164.580957 232.254645 
L 164.580957 231.791525 
L 165.138764 231.791525 
L 165.138764 230.865284 
L 166.030537 230.865284 
L 166.047915 229.939043 
L 166.527611 229.939043 
L 166.527611 229.012802 
L 166.679039 229.012802 
L 166.7626 227.16032 
L 168.109685 227.16032 
L 168.109685 226.234079 
L 169.659223 226.234079 
L 169.659223 225.770958 
L 170.022555 225.770958 
L 170.022555 225.307837 
L 171.620458 225.307837 
L 171.683438 223.918476 
L 172.361615 223.918476 
L 172.361615 222.992235 
L 172.494143 222.992235 
L 172.494143 222.529114 
L 172.815229 222.529114 
L 172.815229 221.602873 
L 173.542212 221.602873 
L 173.542212 220.676632 
L 174.391462 220.676632 
L 174.391462 219.750391 
L 175.547218 219.750391 
L 175.547218 219.287271 
L 176.977944 219.287271 
L 177.052036 216.971668 
L 177.864572 216.971668 
L 177.92621 215.582307 
L 178.231177 215.582307 
L 178.231177 214.656066 
L 178.45432 214.656066 
L 178.53939 213.729825 
L 179.846927 213.729825 
L 179.846927 213.266704 
L 180.435259 213.266704 
L 180.435259 212.340463 
L 181.32559 212.340463 
L 181.32559 211.414222 
L 182.062072 211.414222 
L 182.062072 210.951101 
L 182.30993 210.951101 
L 182.30993 210.02486 
L 182.64173 210.02486 
L 182.64173 208.635499 
L 182.78202 208.635499 
L 182.78202 208.172378 
L 184.985507 208.172378 
L 185.049891 207.246137 
L 185.726005 207.246137 
L 185.726005 206.783017 
L 185.966012 206.783017 
L 186.043446 204.004294 
L 186.688115 204.004294 
L 186.688115 203.541173 
L 187.092903 203.541173 
L 187.092903 202.614932 
L 188.219708 202.614932 
L 188.258635 201.225571 
L 188.447169 201.225571 
L 188.447169 200.299329 
L 188.756934 200.299329 
L 188.756934 199.836209 
L 189.342168 199.836209 
L 189.342168 198.909968 
L 191.580988 198.909968 
L 191.580988 198.446847 
L 192.239301 198.446847 
L 192.239301 197.983727 
L 193.096061 197.983727 
L 193.096061 197.520606 
L 193.348358 197.520606 
L 193.348358 196.594365 
L 193.753816 196.594365 
L 193.753816 195.668124 
L 194.449115 195.668124 
L 194.449115 194.741883 
L 194.776607 194.741883 
L 194.776607 193.815642 
L 195.342611 193.815642 
L 195.342611 193.352522 
L 195.698363 193.352522 
L 195.698363 192.889401 
L 196.694107 192.889401 
L 196.694107 192.426281 
L 196.902607 192.426281 
L 196.902607 191.50004 
L 197.02946 191.50004 
L 197.02946 190.573799 
L 197.43332 190.573799 
L 197.43332 190.110678 
L 197.771792 190.110678 
L 197.771792 189.647558 
L 198.026262 189.647558 
L 198.026262 188.721316 
L 199.092327 188.721316 
L 199.092327 188.258196 
L 199.235369 188.258196 
L 199.235369 187.331955 
L 199.533264 187.331955 
L 199.533264 186.868834 
L 199.798592 186.868834 
L 199.798592 185.942593 
L 200.059943 185.942593 
L 200.059943 185.016352 
L 200.2882 185.016352 
L 200.2882 184.553232 
L 200.821288 184.553232 
L 200.821288 184.090111 
L 201.582505 184.090111 
L 201.668324 183.16387 
L 201.836475 183.16387 
L 201.836475 182.70075 
L 201.960978 182.70075 
L 201.960978 182.237629 
L 202.489018 182.237629 
L 202.583331 181.311388 
L 203.045312 181.311388 
L 203.045312 180.848268 
L 203.830925 180.848268 
L 203.880607 178.532665 
L 204.156239 178.532665 
L 204.156239 178.069545 
L 205.270387 178.069545 
L 205.270387 177.606424 
L 205.564743 177.606424 
L 205.564743 177.143304 
L 205.767163 177.143304 
L 205.767163 176.680183 
L 205.923189 176.680183 
L 205.923189 176.217062 
L 206.289977 176.217062 
L 206.289977 175.753942 
L 206.698242 175.753942 
L 206.779096 174.36458 
L 207.154829 174.36458 
L 207.154829 173.438339 
L 207.792696 173.438339 
L 207.792696 172.975219 
L 208.158299 172.975219 
L 208.212562 171.585857 
L 208.630115 171.585857 
L 208.643712 170.196496 
L 209.058562 170.196496 
L 209.058562 169.733375 
L 209.517 169.733375 
L 209.527052 168.807134 
L 209.79063 168.807134 
L 209.885114 167.880893 
L 209.927254 167.880893 
L 209.93006 166.491532 
L 211.443384 166.491532 
L 211.443384 165.565291 
L 211.719009 165.565291 
L 211.719009 165.10217 
L 211.857717 165.10217 
L 211.857717 164.63905 
L 212.109597 164.63905 
L 212.187415 163.249688 
L 212.521881 163.249688 
L 212.537591 162.323447 
L 212.64717 162.323447 
L 212.64717 161.397206 
L 213.084583 161.397206 
L 213.084583 160.934085 
L 213.372516 160.934085 
L 213.465538 160.007844 
L 214.037886 160.007844 
L 214.037886 159.081603 
L 214.384664 159.081603 
L 214.384664 158.155362 
L 214.659559 158.155362 
L 214.764062 157.229121 
L 214.888013 157.229121 
L 214.918599 155.376639 
L 215.33922 155.376639 
L 215.33922 154.913519 
L 215.783058 154.913519 
L 215.783058 153.987278 
L 216.186509 153.987278 
L 216.258871 153.061037 
L 216.308568 153.061037 
L 216.364915 152.134795 
L 216.617202 152.134795 
L 216.617202 151.671675 
L 216.773285 151.671675 
L 216.773285 150.745434 
L 217.989983 150.745434 
L 217.989983 150.282313 
L 218.168443 150.282313 
L 218.168443 148.892952 
L 218.465891 148.892952 
L 218.465891 148.429831 
L 219.03933 148.429831 
L 219.03933 147.966711 
L 219.183505 147.966711 
L 219.183505 147.50359 
L 219.56951 147.50359 
L 219.631547 146.577349 
L 220.073072 146.577349 
L 220.073072 146.114229 
L 220.193413 146.114229 
L 220.193413 145.651108 
L 220.485323 145.651108 
L 220.485323 145.187988 
L 220.817568 145.187988 
L 220.88955 144.261747 
L 221.081544 144.261747 
L 221.081544 143.335506 
L 221.394003 143.335506 
L 221.394003 142.872385 
L 222.147325 142.872385 
L 222.24106 141.019903 
L 222.37626 141.019903 
L 222.392057 139.630541 
L 222.540396 139.630541 
L 222.540396 138.7043 
L 222.954075 138.7043 
L 222.954075 138.24118 
L 223.196997 138.24118 
L 223.246747 136.388698 
L 223.582744 136.388698 
L 223.582744 135.925577 
L 223.732778 135.925577 
L 223.732778 135.462457 
L 224.091417 135.462457 
L 224.091417 134.999336 
L 224.23592 134.999336 
L 224.256907 134.073095 
L 224.442218 134.073095 
L 224.542638 132.683734 
L 224.562653 132.683734 
L 224.562653 131.757493 
L 225.523721 131.757493 
L 225.523721 131.294372 
L 225.659721 131.294372 
L 225.659721 130.368131 
L 225.791844 130.368131 
L 225.836415 129.44189 
L 226.626804 129.44189 
L 226.626804 128.97877 
L 226.93584 128.97877 
L 226.985499 127.589408 
L 227.184298 127.589408 
L 227.191077 126.200046 
L 227.47036 126.200046 
L 227.47036 125.736926 
L 227.907112 125.736926 
L 227.907112 125.273805 
L 228.575651 125.273805 
L 228.575651 124.810685 
L 229.530909 124.810685 
L 229.530909 123.884444 
L 229.832817 123.884444 
L 229.832817 122.958203 
L 230.120775 122.958203 
L 230.120775 122.495082 
L 230.478912 122.495082 
L 230.478912 122.031962 
L 230.612679 122.031962 
L 230.612679 121.568841 
L 230.860707 121.568841 
L 230.860707 120.6426 
L 231.06564 120.6426 
L 231.06564 120.17948 
L 231.185878 120.17948 
L 231.185878 119.716359 
L 231.697808 119.716359 
L 231.697808 119.253239 
L 232.474625 119.253239 
L 232.536513 118.326998 
L 232.62531 118.326998 
L 232.62531 117.863877 
L 232.962567 117.863877 
L 232.962567 116.937636 
L 233.409511 116.937636 
L 233.409511 116.474516 
L 233.861653 116.474516 
L 233.861653 116.011395 
L 234.556423 116.011395 
L 234.566331 114.622033 
L 235.879787 114.622033 
L 235.879787 114.158913 
L 236.081043 114.158913 
L 236.081043 113.232672 
L 236.459566 113.232672 
L 236.459566 112.306431 
L 237.107707 112.306431 
L 237.107707 111.84331 
L 237.558853 111.84331 
L 237.558853 111.38019 
L 238.273061 111.38019 
L 238.360383 110.453949 
L 239.025151 110.453949 
L 239.025151 109.527708 
L 239.36384 109.527708 
L 239.36384 109.064587 
L 241.380438 109.064587 
L 241.380438 108.601467 
L 241.599967 108.601467 
L 241.599967 108.138346 
L 243.567624 108.138346 
L 243.567624 107.675226 
L 243.840869 107.675226 
L 243.840869 106.748985 
L 244.301116 106.748985 
L 244.301116 105.822744 
L 245.675972 105.822744 
L 245.675972 105.359623 
L 246.589474 105.359623 
L 246.589474 104.896503 
L 247.387881 104.896503 
L 247.387881 103.970262 
L 249.634754 103.970262 
L 249.634754 103.04402 
L 250.26482 103.04402 
L 250.286466 101.654659 
L 250.80305 101.654659 
L 250.80305 101.191538 
L 253.711444 101.191538 
L 253.711444 100.265297 
L 254.097509 100.265297 
L 254.097509 99.339056 
L 254.340549 99.339056 
L 254.340549 98.412815 
L 256.740001 98.412815 
L 256.740001 97.486574 
L 257.817257 97.486574 
L 257.817257 97.023454 
L 338.688 97.023454 
L 338.688 97.023454 
" style="fill:none;stroke:#000080;stroke-linecap:square;stroke-width:1.5;"/>
   </g>
   <g id="line2d_36">
    <defs>
     <path d="M 0 6 
C 1.591219 6 3.117479 5.367802 4.242641 4.242641 
C 5.367802 3.117479 6 1.591219 6 0 
C 6 -1.591219 5.367802 -3.117479 4.242641 -4.242641 
C 3.117479 -5.367802 1.591219 -6 0 -6 
C -1.591219 -6 -3.117479 -5.367802 -4.242641 -4.242641 
C -5.367802 -3.117479 -6 -1.591219 -6 0 
C -6 1.591219 -5.367802 3.117479 -4.242641 4.242641 
C -3.117479 5.367802 -1.591219 6 0 6 
z
" id="mda18f5a9a8" style="stroke:#000080;stroke-width:1.5;"/>
    </defs>
    <g>
     <use style="fill-opacity:0;stroke:#000080;stroke-width:1.5;" x="87.329581" xlink:href="#mda18f5a9a8" y="276.251095"/>
     <use style="fill-opacity:0;stroke:#000080;stroke-width:1.5;" x="170.022555" xlink:href="#mda18f5a9a8" y="225.307837"/>
     <use style="fill-opacity:0;stroke:#000080;stroke-width:1.5;" x="222.147325" xlink:href="#mda18f5a9a8" y="141.946144"/>
     <use style="fill-opacity:0;stroke:#000080;stroke-width:1.5;" x="257.817257" xlink:href="#mda18f5a9a8" y="97.486574"/>
     <use style="fill-opacity:0;stroke:#000080;stroke-width:1.5;" x="257.817257" xlink:href="#mda18f5a9a8" y="97.023454"/>
     <use style="fill-opacity:0;stroke:#000080;stroke-width:1.5;" x="338.688" xlink:href="#mda18f5a9a8" y="97.023454"/>
    </g>
   </g>
   <g id="line2d_37">
    <path style="fill:none;stroke:#000080;stroke-linecap:square;stroke-width:1.5;"/>
    <g/>
   </g>
   <g id="line2d_38">
    <path clip-path="url(#pe9b36402f9)" d="M 258.377579 97.023454 
" style="fill:none;stroke:#000080;stroke-linecap:square;stroke-width:1.5;"/>
    <defs>
     <path d="M -12 12 
L 12 -12 
M -12 -12 
L 12 12 
" id="m5fb0097c60" style="stroke:#000080;"/>
    </defs>
    <g clip-path="url(#pe9b36402f9)">
     <use style="fill:#000080;stroke:#000080;" x="258.377579" xlink:href="#m5fb0097c60" y="97.023454"/>
    </g>
   </g>
   <g id="line2d_39">
    <defs>
     <path d="M 0 1.5 
C 0.397805 1.5 0.77937 1.341951 1.06066 1.06066 
C 1.341951 0.77937 1.5 0.397805 1.5 0 
C 1.5 -0.397805 1.341951 -0.77937 1.06066 -1.06066 
C 0.77937 -1.341951 0.397805 -1.5 0 -1.5 
C -0.397805 -1.5 -0.77937 -1.341951 -1.06066 -1.06066 
C -1.341951 -0.77937 -1.5 -0.397805 -1.5 0 
C -1.5 0.397805 -1.341951 0.77937 -1.06066 1.06066 
C -0.77937 1.341951 -0.397805 1.5 0 1.5 
z
" id="m6146ff2ef8" style="stroke:#ff00ff;"/>
    </defs>
    <g>
     <use style="fill:#ff00ff;stroke:#ff00ff;" x="257.768837" xlink:href="#m6146ff2ef8" y="134.536216"/>
     <use style="fill:#ff00ff;stroke:#ff00ff;" x="257.768837" xlink:href="#m6146ff2ef8" y="134.536216"/>
    </g>
   </g>
   <g id="line2d_40">
    <path d="M 45.512012 298.944 
L 45.512012 285.976625 
L 139.172077 285.976625 
L 139.172077 285.513505 
L 139.413734 285.513505 
L 139.413734 285.050384 
L 140.499195 285.050384 
L 140.499195 284.587264 
L 141.732423 284.587264 
L 141.732423 281.808541 
L 142.686372 281.808541 
L 142.686372 281.34542 
L 142.884173 281.34542 
L 142.884173 280.8823 
L 144.026061 280.8823 
L 144.026061 279.492938 
L 145.155404 279.492938 
L 145.155404 278.566697 
L 145.270136 278.566697 
L 145.270136 278.103577 
L 145.440832 278.103577 
L 145.440832 277.177336 
L 146.161795 277.177336 
L 146.161795 276.714215 
L 146.324022 276.714215 
L 146.324022 276.251095 
L 146.958248 276.251095 
L 146.958248 275.324854 
L 147.368603 275.324854 
L 147.368603 274.398612 
L 148.015498 274.398612 
L 148.015498 273.935492 
L 148.209809 273.935492 
L 148.209809 273.472371 
L 149.911431 273.472371 
L 149.911431 273.009251 
L 150.129152 273.009251 
L 150.129152 272.08301 
L 150.849711 272.08301 
L 150.849711 271.619889 
L 151.461678 271.619889 
L 151.461678 271.156769 
L 151.936246 271.156769 
L 151.936246 270.693648 
L 152.168773 270.693648 
L 152.168773 270.230528 
L 152.811246 270.230528 
L 152.811246 269.767407 
L 152.995791 269.767407 
L 152.995791 269.304287 
L 153.178403 269.304287 
L 153.214697 267.914925 
L 153.466662 267.914925 
L 153.466662 267.451805 
L 154.132765 267.451805 
L 154.235652 265.136202 
L 154.337936 265.136202 
L 154.439623 261.894358 
L 154.473387 261.894358 
L 154.473387 261.431238 
L 154.93935 261.431238 
L 155.004911 260.504997 
L 155.200129 260.504997 
L 155.200129 259.578756 
L 155.361158 259.578756 
L 155.457066 258.652515 
L 156.568618 258.652515 
L 156.568618 257.726274 
L 156.894595 257.726274 
L 156.894595 257.263153 
L 157.156845 257.263153 
L 157.156845 256.800033 
L 157.358125 256.800033 
L 157.443681 253.558189 
L 157.58535 253.558189 
L 157.58535 252.631948 
L 157.725877 252.631948 
L 157.725877 252.168828 
L 158.465753 252.168828 
L 158.572743 250.779466 
L 158.652556 250.779466 
L 158.732007 248.000743 
L 158.784773 248.000743 
L 158.889829 245.68514 
L 159.149734 245.68514 
L 159.149734 245.22202 
L 159.481921 245.22202 
L 159.481921 244.295779 
L 159.608019 244.295779 
L 159.608019 243.369538 
L 159.906985 243.369538 
L 160.005512 242.443297 
L 160.030058 242.443297 
L 160.030058 241.980176 
L 160.346039 241.980176 
L 160.346039 241.053935 
L 160.703658 241.053935 
L 160.703658 240.590815 
L 160.844678 240.590815 
L 160.914762 238.275212 
L 161.007772 238.275212 
L 161.007772 236.88585 
L 161.442917 236.88585 
L 161.442917 236.42273 
L 162.260361 236.42273 
L 162.367945 235.033368 
L 162.53871 235.033368 
L 162.53871 234.107127 
L 162.665696 234.107127 
L 162.749842 231.791525 
L 162.9377 231.791525 
L 162.9377 230.865284 
L 163.061823 230.865284 
L 163.144084 229.012802 
L 163.946031 229.012802 
L 164.004716 227.16032 
L 164.140886 227.16032 
L 164.140886 226.697199 
L 164.448194 226.697199 
L 164.448194 226.234079 
L 164.65637 226.234079 
L 164.65637 225.307837 
L 164.843488 225.307837 
L 164.843488 222.992235 
L 165.193576 222.992235 
L 165.284547 220.213512 
L 166.255117 220.213512 
L 166.34073 218.36103 
L 166.374858 218.36103 
L 166.374858 216.971668 
L 166.845764 216.971668 
L 166.845764 216.045427 
L 167.027338 216.045427 
L 167.027338 215.582307 
L 167.174506 215.582307 
L 167.223287 214.656066 
L 167.513144 214.656066 
L 167.513144 214.192945 
L 168.171308 214.192945 
L 168.18668 212.803583 
L 169.953269 212.803583 
L 169.981016 211.414222 
L 170.486538 211.414222 
L 170.486538 210.951101 
L 171.003983 210.951101 
L 171.003983 210.02486 
L 171.276376 210.02486 
L 171.276376 209.098619 
L 171.519214 209.098619 
L 171.519214 208.635499 
L 171.633072 208.635499 
L 171.633072 207.709258 
L 172.019658 207.709258 
L 172.019658 206.783017 
L 172.685129 206.783017 
L 172.685129 205.856776 
L 173.037687 205.856776 
L 173.037687 205.393655 
L 173.222844 205.393655 
L 173.268827 204.467414 
L 173.800244 204.467414 
L 173.800244 204.004294 
L 173.933369 204.004294 
L 173.933369 203.541173 
L 175.180705 203.541173 
L 175.180705 202.614932 
L 175.577416 202.614932 
L 175.577416 201.688691 
L 177.024289 201.688691 
L 177.024289 200.76245 
L 177.579988 200.76245 
L 177.579988 200.299329 
L 178.775401 200.299329 
L 178.775401 199.836209 
L 179.156332 199.836209 
L 179.156332 199.373088 
L 179.775924 199.373088 
L 179.775924 198.446847 
L 180.848977 198.446847 
L 180.915752 197.057486 
L 181.033834 197.057486 
L 181.033834 196.131245 
L 182.303092 196.131245 
L 182.303092 195.668124 
L 184.322154 195.668124 
L 184.322154 195.205004 
L 184.606119 195.205004 
L 184.606119 194.741883 
L 184.920884 194.741883 
L 184.920884 193.815642 
L 185.754083 193.815642 
L 185.754083 193.352522 
L 186.230082 193.352522 
L 186.230082 192.889401 
L 188.752209 192.889401 
L 188.752209 191.96316 
L 190.114992 191.96316 
L 190.114992 191.50004 
L 190.97605 191.50004 
L 190.97605 191.036919 
L 191.383019 191.036919 
L 191.411438 190.110678 
L 193.110787 190.110678 
L 193.110787 189.184437 
L 193.446098 189.184437 
L 193.446098 188.721316 
L 193.668486 188.721316 
L 193.668486 187.795075 
L 194.253763 187.795075 
L 194.253763 187.331955 
L 194.540892 187.331955 
L 194.540892 186.868834 
L 194.746479 186.868834 
L 194.746479 186.405714 
L 196.25412 186.405714 
L 196.25412 185.942593 
L 198.026262 185.942593 
L 198.026262 185.479473 
L 200.781038 185.479473 
L 200.781038 184.553232 
L 201.153921 184.553232 
L 201.153921 183.626991 
L 202.478269 183.626991 
L 202.478269 183.16387 
L 202.621767 183.16387 
L 202.621767 182.70075 
L 206.647517 182.70075 
L 206.647517 182.237629 
L 206.844516 182.237629 
L 206.844516 181.774509 
L 207.146603 181.774509 
L 207.153184 180.385147 
L 208.829973 180.385147 
L 208.829973 179.922027 
L 209.042333 179.922027 
L 209.042333 179.458906 
L 209.384348 179.458906 
L 209.488248 177.143304 
L 211.740518 177.143304 
L 211.740518 176.680183 
L 212.108359 176.680183 
L 212.108359 176.217062 
L 212.594273 176.217062 
L 212.594273 175.290821 
L 213.06467 175.290821 
L 213.06467 174.827701 
L 213.39323 174.827701 
L 213.39323 174.36458 
L 214.084376 174.36458 
L 214.084376 173.90146 
L 215.223625 173.90146 
L 215.223625 173.438339 
L 215.490804 173.438339 
L 215.490804 172.975219 
L 215.714732 172.975219 
L 215.714732 172.048978 
L 216.416245 172.048978 
L 216.416245 171.585857 
L 216.765703 171.585857 
L 216.767599 170.659616 
L 217.04218 170.659616 
L 217.127803 168.807134 
L 217.467976 168.807134 
L 217.483448 166.954652 
L 217.676139 166.954652 
L 217.775718 165.565291 
L 217.879178 165.565291 
L 217.879178 165.10217 
L 218.06581 165.10217 
L 218.06581 164.63905 
L 218.823335 164.63905 
L 218.823335 164.175929 
L 219.558207 164.175929 
L 219.558207 163.712808 
L 220.57698 163.712808 
L 220.57698 163.249688 
L 222.032772 163.249688 
L 222.032772 162.323447 
L 222.862768 162.323447 
L 222.862768 161.860326 
L 223.454031 161.860326 
L 223.454031 161.397206 
L 224.940414 161.397206 
L 224.940414 160.934085 
L 225.570698 160.934085 
L 225.575847 160.007844 
L 226.987609 160.007844 
L 226.987609 159.081603 
L 227.393744 159.081603 
L 227.393744 158.618483 
L 228.519217 158.618483 
L 228.519217 158.155362 
L 228.997649 158.155362 
L 228.997649 157.692242 
L 229.652662 157.692242 
L 229.652662 156.766001 
L 229.995156 156.766001 
L 229.995156 155.83976 
L 230.804434 155.83976 
L 230.804434 155.376639 
L 231.136884 155.376639 
L 231.136884 154.450398 
L 231.516899 154.450398 
L 231.516899 153.987278 
L 232.208827 153.987278 
L 232.208827 153.061037 
L 234.363638 153.061037 
L 234.363638 152.597916 
L 234.771759 152.597916 
L 234.771759 152.134795 
L 236.006984 152.134795 
L 236.006984 151.671675 
L 236.508219 151.671675 
L 236.508219 151.208554 
L 236.798823 151.208554 
L 236.798823 150.745434 
L 237.592482 150.745434 
L 237.592482 150.282313 
L 238.402648 150.282313 
L 238.402648 149.819193 
L 240.069996 149.819193 
L 240.069996 149.356072 
L 240.818494 149.356072 
L 240.818494 148.429831 
L 241.915652 148.429831 
L 241.915652 147.50359 
L 242.496379 147.50359 
L 242.600331 146.577349 
L 243.688898 146.577349 
L 243.688898 146.114229 
L 244.196825 146.114229 
L 244.196825 145.651108 
L 245.284698 145.651108 
L 245.284698 144.724867 
L 245.459134 144.724867 
L 245.459134 144.261747 
L 248.217501 144.261747 
L 248.217501 143.798626 
L 248.853723 143.798626 
L 248.853723 143.335506 
L 248.967762 143.335506 
L 248.967762 142.872385 
L 251.117371 142.872385 
L 251.117371 142.409265 
L 252.294959 142.409265 
L 252.294959 141.946144 
L 253.86561 141.946144 
L 253.86561 141.019903 
L 254.712866 141.019903 
L 254.712866 140.556783 
L 254.900556 140.556783 
L 254.900556 140.093662 
L 255.464379 140.093662 
L 255.512744 139.167421 
L 256.226812 139.167421 
L 256.226812 138.24118 
L 256.955979 138.24118 
L 256.955979 137.778059 
L 257.390873 137.778059 
L 257.390873 137.314939 
L 257.597984 137.314939 
L 257.63924 135.462457 
L 257.768837 135.462457 
L 257.768837 134.536216 
L 338.688 134.536216 
L 338.688 134.536216 
" style="fill:none;stroke:#ff00ff;stroke-linecap:square;stroke-width:1.5;"/>
   </g>
   <g id="line2d_41">
    <defs>
     <path d="M 0 8.485281 
L 5.091169 0 
L 0 -8.485281 
L -5.091169 0 
z
" id="mfc19b00578" style="stroke:#ff00ff;stroke-linejoin:miter;stroke-width:1.5;"/>
    </defs>
    <g>
     <use style="fill-opacity:0;stroke:#ff00ff;stroke-linejoin:miter;stroke-width:1.5;" x="166.34073" xlink:href="#mfc19b00578" y="219.287271"/>
     <use style="fill-opacity:0;stroke:#ff00ff;stroke-linejoin:miter;stroke-width:1.5;" x="224.940414" xlink:href="#mfc19b00578" y="160.934085"/>
     <use style="fill-opacity:0;stroke:#ff00ff;stroke-linejoin:miter;stroke-width:1.5;" x="257.768837" xlink:href="#mfc19b00578" y="135.462457"/>
     <use style="fill-opacity:0;stroke:#ff00ff;stroke-linejoin:miter;stroke-width:1.5;" x="257.768837" xlink:href="#mfc19b00578" y="134.536216"/>
     <use style="fill-opacity:0;stroke:#ff00ff;stroke-linejoin:miter;stroke-width:1.5;" x="338.688" xlink:href="#mfc19b00578" y="134.536216"/>
    </g>
   </g>
   <g id="line2d_42">
    <path style="fill:none;stroke:#ff00ff;stroke-linecap:square;stroke-width:1.5;"/>
    <g/>
   </g>
   <g id="line2d_43">
    <path clip-path="url(#pe9b36402f9)" d="M 258.387342 134.536216 
" style="fill:none;stroke:#ff00ff;stroke-linecap:square;stroke-width:1.5;"/>
    <defs>
     <path d="M -12 12 
L 12 -12 
M -12 -12 
L 12 12 
" id="m2c3c8f9c1d" style="stroke:#ff00ff;"/>
    </defs>
    <g clip-path="url(#pe9b36402f9)">
     <use style="fill:#ff00ff;stroke:#ff00ff;" x="258.387342" xlink:href="#m2c3c8f9c1d" y="134.536216"/>
    </g>
   </g>
   <g id="line2d_44">
    <defs>
     <path d="M 0 1.5 
C 0.397805 1.5 0.77937 1.341951 1.06066 1.06066 
C 1.341951 0.77937 1.5 0.397805 1.5 0 
C 1.5 -0.397805 1.341951 -0.77937 1.06066 -1.06066 
C 0.77937 -1.341951 0.397805 -1.5 0 -1.5 
C -0.397805 -1.5 -0.77937 -1.341951 -1.06066 -1.06066 
C -1.341951 -0.77937 -1.5 -0.397805 -1.5 0 
C -1.5 0.397805 -1.341951 0.77937 -1.06066 1.06066 
C -0.77937 1.341951 -0.397805 1.5 0 1.5 
z
" id="m475af6c364" style="stroke:#ff7500;"/>
    </defs>
    <g>
     <use style="fill:#ff7500;stroke:#ff7500;" x="257.350505" xlink:href="#m475af6c364" y="131.294372"/>
     <use style="fill:#ff7500;stroke:#ff7500;" x="257.350505" xlink:href="#m475af6c364" y="131.294372"/>
    </g>
   </g>
   <g id="line2d_45">
    <path d="M 114.080224 298.944 
L 114.080224 298.480879 
L 134.661403 298.480879 
L 134.661403 298.017759 
L 138.084384 298.017759 
L 138.084384 297.554638 
L 139.493548 297.554638 
L 139.493548 296.628397 
L 142.147664 296.628397 
L 142.147664 296.165277 
L 144.688773 296.165277 
L 144.688773 295.239036 
L 144.806606 295.239036 
L 144.806606 294.775915 
L 145.440832 294.775915 
L 145.497361 293.386554 
L 145.943118 293.386554 
L 145.943118 292.923433 
L 146.591092 292.923433 
L 146.696785 291.534072 
L 147.061745 291.534072 
L 147.061745 290.607831 
L 147.266916 290.607831 
L 147.368603 288.755349 
L 149.422654 288.755349 
L 149.422654 287.829108 
L 149.690956 287.829108 
L 149.690956 287.365987 
L 151.700576 287.365987 
L 151.779487 285.976625 
L 152.052897 285.976625 
L 152.130233 285.050384 
L 152.283884 285.050384 
L 152.283884 284.587264 
L 152.436193 284.587264 
L 152.436193 283.661023 
L 152.699575 283.661023 
L 152.699575 282.734782 
L 153.359122 282.734782 
L 153.359122 282.271661 
L 153.609024 282.271661 
L 153.609024 281.808541 
L 153.890309 281.808541 
L 153.890309 281.34542 
L 154.235652 281.34542 
L 154.235652 280.419179 
L 154.371897 280.419179 
L 154.371897 279.956059 
L 154.507086 279.956059 
L 154.507086 278.566697 
L 155.0376 278.566697 
L 155.0376 277.640456 
L 155.520713 277.640456 
L 155.520713 277.177336 
L 155.647315 277.177336 
L 155.647315 276.251095 
L 155.897793 276.251095 
L 155.897793 275.787974 
L 156.083319 275.787974 
L 156.083319 274.861733 
L 156.357959 274.861733 
L 156.357959 274.398612 
L 156.508689 274.398612 
L 156.508689 273.935492 
L 157.443681 273.935492 
L 157.443681 273.472371 
L 157.557108 273.472371 
L 157.557108 272.54613 
L 157.697862 272.54613 
L 157.725877 271.619889 
L 158.113432 271.619889 
L 158.222599 270.230528 
L 158.438903 270.230528 
L 158.438903 269.304287 
L 159.175513 269.304287 
L 159.175513 268.841166 
L 159.303838 268.841166 
L 159.303838 268.378046 
L 159.507213 268.378046 
L 159.507213 267.914925 
L 159.733212 267.914925 
L 159.832723 265.599323 
L 159.906985 265.599323 
L 159.980933 264.673082 
L 160.37011 264.673082 
L 160.37011 263.746841 
L 160.797798 263.746841 
L 160.797798 263.28372 
L 161.238149 263.28372 
L 161.238149 262.8206 
L 161.352206 262.8206 
L 161.442917 260.504997 
L 161.712255 260.504997 
L 161.712255 260.041876 
L 162.10862 260.041876 
L 162.152109 259.115635 
L 162.281931 259.115635 
L 162.281931 258.652515 
L 162.410793 258.652515 
L 162.410793 257.726274 
L 162.68677 257.726274 
L 162.68677 257.263153 
L 163.020547 257.263153 
L 163.061823 253.558189 
L 163.225959 253.558189 
L 163.225959 253.095069 
L 163.408783 253.095069 
L 163.428979 252.168828 
L 163.649606 252.168828 
L 163.649606 251.242587 
L 164.043731 251.242587 
L 164.140886 249.390104 
L 164.410075 249.390104 
L 164.410075 248.926984 
L 164.954803 248.926984 
L 165.047026 247.537622 
L 165.120455 247.537622 
L 165.120455 247.074502 
L 165.697012 247.074502 
L 165.697012 246.611381 
L 165.873346 246.611381 
L 165.9084 245.68514 
L 166.099947 245.68514 
L 166.099947 244.295779 
L 166.306535 244.295779 
L 166.323641 241.517056 
L 166.425924 241.517056 
L 166.425924 240.127694 
L 166.74592 240.127694 
L 166.829163 237.348971 
L 166.895472 237.348971 
L 166.895472 236.88585 
L 167.0929 236.88585 
L 167.190782 234.107127 
L 167.400994 234.107127 
L 167.400994 233.180886 
L 167.545055 233.180886 
L 167.545055 232.254645 
L 167.813965 232.254645 
L 167.813965 231.791525 
L 168.109685 231.791525 
L 168.109685 231.328404 
L 168.339657 231.328404 
L 168.385289 230.402163 
L 168.491304 230.402163 
L 168.491304 229.475922 
L 168.731229 229.475922 
L 168.731229 229.012802 
L 169.085039 229.012802 
L 169.157854 227.62344 
L 169.345764 227.62344 
L 169.345764 226.697199 
L 169.51744 226.697199 
L 169.588476 223.918476 
L 169.630959 223.918476 
L 169.630959 223.455355 
L 169.86976 223.455355 
L 169.911564 222.065994 
L 170.256089 222.065994 
L 170.351349 221.139753 
L 170.51345 221.139753 
L 170.540321 220.213512 
L 171.056197 220.213512 
L 171.056197 219.287271 
L 171.633072 219.287271 
L 171.633072 218.82415 
L 171.746192 218.82415 
L 171.796233 217.434789 
L 172.056618 217.434789 
L 172.056618 216.508548 
L 172.373705 216.508548 
L 172.385786 215.119186 
L 172.60183 215.119186 
L 172.60183 214.656066 
L 172.909242 214.656066 
L 172.909242 213.729825 
L 173.107351 213.729825 
L 173.107351 212.803583 
L 173.280304 212.803583 
L 173.280304 211.877342 
L 173.542212 211.877342 
L 173.542212 210.951101 
L 173.733298 210.951101 
L 173.755642 209.56174 
L 174.13117 209.56174 
L 174.229235 207.709258 
L 174.466655 207.709258 
L 174.466655 207.246137 
L 174.594807 207.246137 
L 174.594807 206.319896 
L 174.963293 206.319896 
L 174.963293 205.856776 
L 175.20127 205.856776 
L 175.20127 204.930535 
L 175.344551 204.930535 
L 175.395439 203.541173 
L 175.466434 203.541173 
L 175.466434 202.614932 
L 176.190077 202.614932 
L 176.257915 200.76245 
L 176.325491 200.76245 
L 176.383205 199.373088 
L 176.545699 199.373088 
L 176.545699 198.446847 
L 176.838169 198.446847 
L 176.838169 197.983727 
L 177.2176 197.983727 
L 177.2176 197.520606 
L 177.624761 197.520606 
L 177.72286 195.668124 
L 178.377401 195.668124 
L 178.462846 194.278763 
L 179.156332 194.278763 
L 179.156332 193.815642 
L 179.641012 193.815642 
L 179.641012 193.352522 
L 179.933319 193.352522 
L 180.034869 191.96316 
L 180.442869 191.96316 
L 180.518792 190.573799 
L 181.085245 190.573799 
L 181.085245 189.647558 
L 181.296633 189.647558 
L 181.404974 187.795075 
L 181.534102 187.795075 
L 181.534102 187.331955 
L 182.43255 187.331955 
L 182.486773 185.942593 
L 182.874923 185.942593 
L 182.874923 185.479473 
L 183.00679 185.479473 
L 183.00679 185.016352 
L 183.562722 185.016352 
L 183.562722 184.090111 
L 183.946572 184.090111 
L 183.97145 183.16387 
L 184.095309 183.16387 
L 184.095309 182.70075 
L 184.642039 182.70075 
L 184.749358 181.311388 
L 185.049891 181.311388 
L 185.049891 180.848268 
L 185.356816 180.848268 
L 185.356816 180.385147 
L 186.05448 180.385147 
L 186.05448 179.922027 
L 186.317224 179.922027 
L 186.34979 178.069545 
L 186.725304 178.069545 
L 186.725304 177.606424 
L 186.96774 177.606424 
L 186.96774 177.143304 
L 187.559482 177.143304 
L 187.559482 176.680183 
L 189.195387 176.680183 
L 189.273518 175.290821 
L 189.455987 175.290821 
L 189.455987 174.827701 
L 189.703804 174.827701 
L 189.703804 174.36458 
L 190.435385 174.36458 
L 190.499618 173.438339 
L 191.215627 173.438339 
L 191.215627 172.975219 
L 192.855003 172.975219 
L 192.855003 172.048978 
L 195.522997 172.048978 
L 195.522997 171.585857 
L 195.790124 171.585857 
L 195.815353 170.659616 
L 198.142469 170.659616 
L 198.181033 169.733375 
L 199.188684 169.733375 
L 199.188684 168.807134 
L 200.409695 168.807134 
L 200.409695 168.344014 
L 203.27282 168.344014 
L 203.27282 167.880893 
L 203.56017 167.880893 
L 203.56017 166.954652 
L 204.054369 166.954652 
L 204.054369 166.491532 
L 204.298252 166.491532 
L 204.298252 166.028411 
L 204.855014 166.028411 
L 204.855014 165.565291 
L 206.718491 165.565291 
L 206.782457 164.175929 
L 207.002851 164.175929 
L 207.074049 163.249688 
L 209.407491 163.249688 
L 209.407491 162.786567 
L 209.557172 162.786567 
L 209.557172 162.323447 
L 213.287097 162.323447 
L 213.287097 161.860326 
L 213.829377 161.860326 
L 213.829377 160.934085 
L 214.425904 160.934085 
L 214.425904 160.007844 
L 215.06969 160.007844 
L 215.06969 159.544724 
L 215.424392 159.544724 
L 215.424392 158.618483 
L 216.015167 158.618483 
L 216.015167 158.155362 
L 216.551113 158.155362 
L 216.551113 156.30288 
L 217.467066 156.30288 
L 217.467066 155.83976 
L 219.164516 155.83976 
L 219.164516 154.913519 
L 219.389404 154.913519 
L 219.389404 154.450398 
L 219.544472 154.450398 
L 219.544472 153.987278 
L 220.72868 153.987278 
L 220.72868 153.524157 
L 221.007379 153.524157 
L 221.007379 153.061037 
L 221.533741 153.061037 
L 221.533741 152.134795 
L 221.909699 152.134795 
L 221.909699 151.671675 
L 222.211952 151.671675 
L 222.211952 151.208554 
L 222.541757 151.208554 
L 222.541757 150.282313 
L 223.156963 150.282313 
L 223.156963 149.819193 
L 223.328915 149.819193 
L 223.328915 148.892952 
L 224.335076 148.892952 
L 224.335076 147.966711 
L 225.039783 147.966711 
L 225.039783 147.50359 
L 226.02862 147.50359 
L 226.031964 146.577349 
L 226.455259 146.577349 
L 226.455259 146.114229 
L 227.909613 146.114229 
L 227.909613 145.651108 
L 228.157004 145.651108 
L 228.157004 144.724867 
L 228.645338 144.724867 
L 228.645338 143.798626 
L 229.127369 143.798626 
L 229.127369 142.872385 
L 230.926059 142.872385 
L 230.964734 141.946144 
L 231.909108 141.946144 
L 231.909108 141.019903 
L 234.466653 141.019903 
L 234.466653 140.556783 
L 235.110728 140.556783 
L 235.110728 140.093662 
L 236.174734 140.093662 
L 236.174734 139.630541 
L 239.828683 139.630541 
L 239.828683 139.167421 
L 240.195597 139.167421 
L 240.195597 138.24118 
L 240.491112 138.24118 
L 240.491112 137.778059 
L 241.541909 137.778059 
L 241.541909 137.314939 
L 244.726464 137.314939 
L 244.726464 136.851818 
L 247.101278 136.851818 
L 247.101278 135.925577 
L 248.12074 135.925577 
L 248.12074 135.462457 
L 248.33018 135.462457 
L 248.33018 134.999336 
L 250.801165 134.999336 
L 250.827938 133.609975 
L 252.066693 133.609975 
L 252.066693 133.146854 
L 253.738655 133.146854 
L 253.738655 131.757493 
L 257.350505 131.757493 
L 257.350505 131.294372 
L 338.688 131.294372 
L 338.688 131.294372 
" style="fill:none;stroke:#ff7500;stroke-linecap:square;stroke-width:1.5;"/>
   </g>
   <g id="line2d_46">
    <defs>
     <path d="M 0 -6 
L -1.347084 -1.854102 
L -5.706339 -1.854102 
L -2.179628 0.708204 
L -3.526712 4.854102 
L -0 2.291796 
L 3.526712 4.854102 
L 2.179628 0.708204 
L 5.706339 -1.854102 
L 1.347084 -1.854102 
z
" id="m7874cb6fac" style="stroke:#ff7500;stroke-linejoin:bevel;stroke-width:1.5;"/>
    </defs>
    <g>
     <use style="fill-opacity:0;stroke:#ff7500;stroke-linejoin:bevel;stroke-width:1.5;" x="184.095309" xlink:href="#m7874cb6fac" y="183.16387"/>
     <use style="fill-opacity:0;stroke:#ff7500;stroke-linejoin:bevel;stroke-width:1.5;" x="240.195597" xlink:href="#m7874cb6fac" y="139.167421"/>
     <use style="fill-opacity:0;stroke:#ff7500;stroke-linejoin:bevel;stroke-width:1.5;" x="257.350505" xlink:href="#m7874cb6fac" y="131.294372"/>
     <use style="fill-opacity:0;stroke:#ff7500;stroke-linejoin:bevel;stroke-width:1.5;" x="257.350505" xlink:href="#m7874cb6fac" y="131.294372"/>
     <use style="fill-opacity:0;stroke:#ff7500;stroke-linejoin:bevel;stroke-width:1.5;" x="338.688" xlink:href="#m7874cb6fac" y="131.294372"/>
    </g>
   </g>
   <g id="line2d_47">
    <path style="fill:none;stroke:#ff7500;stroke-linecap:square;stroke-width:1.5;"/>
    <g/>
   </g>
   <g id="line2d_48">
    <path clip-path="url(#pe9b36402f9)" d="M 258.37723 131.294372 
" style="fill:none;stroke:#ff7500;stroke-linecap:square;stroke-width:1.5;"/>
    <defs>
     <path d="M -12 12 
L 12 -12 
M -12 -12 
L 12 12 
" id="mc21eb030b7" style="stroke:#ff7500;"/>
    </defs>
    <g clip-path="url(#pe9b36402f9)">
     <use style="fill:#ff7500;stroke:#ff7500;" x="258.37723" xlink:href="#mc21eb030b7" y="131.294372"/>
    </g>
   </g>
   <g id="line2d_49">
    <path d="M 338.688 134.536216 
L 369.60768 293.571802 
" style="fill:none;stroke:#ff00ff;stroke-linecap:square;stroke-width:1.5;"/>
    <g>
     <use style="fill-opacity:0;stroke:#ff00ff;stroke-linejoin:miter;stroke-width:1.5;" x="338.688" xlink:href="#mfc19b00578" y="134.536216"/>
     <use style="fill-opacity:0;stroke:#ff00ff;stroke-linejoin:miter;stroke-width:1.5;" x="369.60768" xlink:href="#mfc19b00578" y="293.571802"/>
    </g>
   </g>
   <g id="line2d_50">
    <path d="M 338.688 131.294372 
L 369.60768 207.616634 
" style="fill:none;stroke:#ff7500;stroke-linecap:square;stroke-width:1.5;"/>
    <g>
     <use style="fill-opacity:0;stroke:#ff7500;stroke-linejoin:bevel;stroke-width:1.5;" x="338.688" xlink:href="#m7874cb6fac" y="131.294372"/>
     <use style="fill-opacity:0;stroke:#ff7500;stroke-linejoin:bevel;stroke-width:1.5;" x="369.60768" xlink:href="#m7874cb6fac" y="207.616634"/>
    </g>
   </g>
   <g id="line2d_51">
    <path d="M 338.688 97.023454 
L 369.60768 121.661465 
" style="fill:none;stroke:#000080;stroke-linecap:square;stroke-width:1.5;"/>
    <g>
     <use style="fill-opacity:0;stroke:#000080;stroke-width:1.5;" x="338.688" xlink:href="#mda18f5a9a8" y="97.023454"/>
     <use style="fill-opacity:0;stroke:#000080;stroke-width:1.5;" x="369.60768" xlink:href="#mda18f5a9a8" y="121.661465"/>
    </g>
   </g>
   <g id="line2d_52">
    <path d="M 338.688 298.944 
L 338.688 30.334099 
" style="fill:none;stroke:#000000;stroke-linecap:square;stroke-width:1.5;"/>
   </g>
   <g id="patch_3">
    <path d="M 57.6 298.944 
L 57.6 27.648 
" style="fill:none;stroke:#000000;stroke-linecap:square;stroke-linejoin:miter;stroke-width:0.8;"/>
   </g>
   <g id="patch_4">
    <path d="M 338.688 298.944 
L 338.688 27.648 
" style="fill:none;stroke:#000000;stroke-linecap:square;stroke-linejoin:miter;stroke-width:0.8;"/>
   </g>
   <g id="patch_5">
    <path d="M 57.6 298.944 
L 338.688 298.944 
" style="fill:none;stroke:#000000;stroke-linecap:square;stroke-linejoin:miter;stroke-width:0.8;"/>
   </g>
   <g id="patch_6">
    <path d="M 57.6 27.648 
L 338.688 27.648 
" style="fill:none;stroke:#000000;stroke-linecap:square;stroke-linejoin:miter;stroke-width:0.8;"/>
   </g>
   <g id="text_13">
    <!-- NSGA-II-M -->
    <g transform="translate(375.22944 298.262739)scale(0.17 -0.17)">
     <defs>
      <path d="M 9.8125 72.90625 
L 23.09375 72.90625 
L 55.421875 11.921875 
L 55.421875 72.90625 
L 64.984375 72.90625 
L 64.984375 0 
L 51.703125 0 
L 19.390625 60.984375 
L 19.390625 0 
L 9.8125 0 
z
" id="DejaVuSans-78"/>
      <path d="M 53.515625 70.515625 
L 53.515625 60.890625 
Q 47.90625 63.578125 42.921875 64.890625 
Q 37.9375 66.21875 33.296875 66.21875 
Q 25.25 66.21875 20.875 63.09375 
Q 16.5 59.96875 16.5 54.203125 
Q 16.5 49.359375 19.40625 46.890625 
Q 22.3125 44.4375 30.421875 42.921875 
L 36.375 41.703125 
Q 47.40625 39.59375 52.65625 34.296875 
Q 57.90625 29 57.90625 20.125 
Q 57.90625 9.515625 50.796875 4.046875 
Q 43.703125 -1.421875 29.984375 -1.421875 
Q 24.8125 -1.421875 18.96875 -0.25 
Q 13.140625 0.921875 6.890625 3.21875 
L 6.890625 13.375 
Q 12.890625 10.015625 18.65625 8.296875 
Q 24.421875 6.59375 29.984375 6.59375 
Q 38.421875 6.59375 43.015625 9.90625 
Q 47.609375 13.234375 47.609375 19.390625 
Q 47.609375 24.75 44.3125 27.78125 
Q 41.015625 30.8125 33.5 32.328125 
L 27.484375 33.5 
Q 16.453125 35.6875 11.515625 40.375 
Q 6.59375 45.0625 6.59375 53.421875 
Q 6.59375 63.09375 13.40625 68.65625 
Q 20.21875 74.21875 32.171875 74.21875 
Q 37.3125 74.21875 42.625 73.28125 
Q 47.953125 72.359375 53.515625 70.515625 
z
" id="DejaVuSans-83"/>
      <path d="M 59.515625 10.40625 
L 59.515625 29.984375 
L 43.40625 29.984375 
L 43.40625 38.09375 
L 69.28125 38.09375 
L 69.28125 6.78125 
Q 63.578125 2.734375 56.6875 0.65625 
Q 49.8125 -1.421875 42 -1.421875 
Q 24.90625 -1.421875 15.25 8.5625 
Q 5.609375 18.5625 5.609375 36.375 
Q 5.609375 54.25 15.25 64.234375 
Q 24.90625 74.21875 42 74.21875 
Q 49.125 74.21875 55.546875 72.453125 
Q 61.96875 70.703125 67.390625 67.28125 
L 67.390625 56.78125 
Q 61.921875 61.421875 55.765625 63.765625 
Q 49.609375 66.109375 42.828125 66.109375 
Q 29.4375 66.109375 22.71875 58.640625 
Q 16.015625 51.171875 16.015625 36.375 
Q 16.015625 21.625 22.71875 14.15625 
Q 29.4375 6.6875 42.828125 6.6875 
Q 48.046875 6.6875 52.140625 7.59375 
Q 56.25 8.5 59.515625 10.40625 
z
" id="DejaVuSans-71"/>
      <path d="M 34.1875 63.1875 
L 20.796875 26.90625 
L 47.609375 26.90625 
z
M 28.609375 72.90625 
L 39.796875 72.90625 
L 67.578125 0 
L 57.328125 0 
L 50.6875 18.703125 
L 17.828125 18.703125 
L 11.1875 0 
L 0.78125 0 
z
" id="DejaVuSans-65"/>
      <path d="M 9.8125 72.90625 
L 19.671875 72.90625 
L 19.671875 0 
L 9.8125 0 
z
" id="DejaVuSans-73"/>
      <path d="M 9.8125 72.90625 
L 24.515625 72.90625 
L 43.109375 23.296875 
L 61.8125 72.90625 
L 76.515625 72.90625 
L 76.515625 0 
L 66.890625 0 
L 66.890625 64.015625 
L 48.09375 14.015625 
L 38.1875 14.015625 
L 19.390625 64.015625 
L 19.390625 0 
L 9.8125 0 
z
" id="DejaVuSans-77"/>
     </defs>
     <use xlink:href="#DejaVuSans-78"/>
     <use x="74.804688" xlink:href="#DejaVuSans-83"/>
     <use x="138.28125" xlink:href="#DejaVuSans-71"/>
     <use x="215.771484" xlink:href="#DejaVuSans-65"/>
     <use x="281.929688" xlink:href="#DejaVuSans-45"/>
     <use x="318.013672" xlink:href="#DejaVuSans-73"/>
     <use x="347.505859" xlink:href="#DejaVuSans-73"/>
     <use x="376.998047" xlink:href="#DejaVuSans-45"/>
     <use x="413.082031" xlink:href="#DejaVuSans-77"/>
    </g>
   </g>
   <g id="text_14">
    <!-- SMS-EMOA- -->
    <g transform="translate(375.22944 212.307571)scale(0.17 -0.17)">
     <defs>
      <path d="M 9.8125 72.90625 
L 55.90625 72.90625 
L 55.90625 64.59375 
L 19.671875 64.59375 
L 19.671875 43.015625 
L 54.390625 43.015625 
L 54.390625 34.71875 
L 19.671875 34.71875 
L 19.671875 8.296875 
L 56.78125 8.296875 
L 56.78125 0 
L 9.8125 0 
z
" id="DejaVuSans-69"/>
      <path d="M 39.40625 66.21875 
Q 28.65625 66.21875 22.328125 58.203125 
Q 16.015625 50.203125 16.015625 36.375 
Q 16.015625 22.609375 22.328125 14.59375 
Q 28.65625 6.59375 39.40625 6.59375 
Q 50.140625 6.59375 56.421875 14.59375 
Q 62.703125 22.609375 62.703125 36.375 
Q 62.703125 50.203125 56.421875 58.203125 
Q 50.140625 66.21875 39.40625 66.21875 
z
M 39.40625 74.21875 
Q 54.734375 74.21875 63.90625 63.9375 
Q 73.09375 53.65625 73.09375 36.375 
Q 73.09375 19.140625 63.90625 8.859375 
Q 54.734375 -1.421875 39.40625 -1.421875 
Q 24.03125 -1.421875 14.8125 8.828125 
Q 5.609375 19.09375 5.609375 36.375 
Q 5.609375 53.65625 14.8125 63.9375 
Q 24.03125 74.21875 39.40625 74.21875 
z
" id="DejaVuSans-79"/>
     </defs>
     <use xlink:href="#DejaVuSans-83"/>
     <use x="63.476562" xlink:href="#DejaVuSans-77"/>
     <use x="149.755859" xlink:href="#DejaVuSans-83"/>
     <use x="213.232422" xlink:href="#DejaVuSans-45"/>
     <use x="249.316406" xlink:href="#DejaVuSans-69"/>
     <use x="312.5" xlink:href="#DejaVuSans-77"/>
     <use x="398.779297" xlink:href="#DejaVuSans-79"/>
     <use x="475.740234" xlink:href="#DejaVuSans-65"/>
     <use x="541.898438" xlink:href="#DejaVuSans-45"/>
    </g>
   </g>
   <g id="text_15">
    <!-- COMO-100  -->
    <g transform="translate(375.22944 126.352403)scale(0.17 -0.17)">
     <defs>
      <path d="M 64.40625 67.28125 
L 64.40625 56.890625 
Q 59.421875 61.53125 53.78125 63.8125 
Q 48.140625 66.109375 41.796875 66.109375 
Q 29.296875 66.109375 22.65625 58.46875 
Q 16.015625 50.828125 16.015625 36.375 
Q 16.015625 21.96875 22.65625 14.328125 
Q 29.296875 6.6875 41.796875 6.6875 
Q 48.140625 6.6875 53.78125 8.984375 
Q 59.421875 11.28125 64.40625 15.921875 
L 64.40625 5.609375 
Q 59.234375 2.09375 53.4375 0.328125 
Q 47.65625 -1.421875 41.21875 -1.421875 
Q 24.65625 -1.421875 15.125 8.703125 
Q 5.609375 18.84375 5.609375 36.375 
Q 5.609375 53.953125 15.125 64.078125 
Q 24.65625 74.21875 41.21875 74.21875 
Q 47.75 74.21875 53.53125 72.484375 
Q 59.328125 70.75 64.40625 67.28125 
z
" id="DejaVuSans-67"/>
     </defs>
     <use xlink:href="#DejaVuSans-67"/>
     <use x="69.824219" xlink:href="#DejaVuSans-79"/>
     <use x="148.535156" xlink:href="#DejaVuSans-77"/>
     <use x="234.814453" xlink:href="#DejaVuSans-79"/>
     <use x="316.275391" xlink:href="#DejaVuSans-45"/>
     <use x="352.359375" xlink:href="#DejaVuSans-49"/>
     <use x="415.982422" xlink:href="#DejaVuSans-48"/>
     <use x="479.605469" xlink:href="#DejaVuSans-48"/>
     <use x="543.228516" xlink:href="#DejaVuSans-32"/>
    </g>
   </g>
   <g id="text_16">
    <!-- best 2016 -->
    <g transform="translate(375.22944 40.397235)scale(0.17 -0.17)">
     <defs>
      <path d="M 48.6875 27.296875 
Q 48.6875 37.203125 44.609375 42.84375 
Q 40.53125 48.484375 33.40625 48.484375 
Q 26.265625 48.484375 22.1875 42.84375 
Q 18.109375 37.203125 18.109375 27.296875 
Q 18.109375 17.390625 22.1875 11.75 
Q 26.265625 6.109375 33.40625 6.109375 
Q 40.53125 6.109375 44.609375 11.75 
Q 48.6875 17.390625 48.6875 27.296875 
z
M 18.109375 46.390625 
Q 20.953125 51.265625 25.265625 53.625 
Q 29.59375 56 35.59375 56 
Q 45.5625 56 51.78125 48.09375 
Q 58.015625 40.1875 58.015625 27.296875 
Q 58.015625 14.40625 51.78125 6.484375 
Q 45.5625 -1.421875 35.59375 -1.421875 
Q 29.59375 -1.421875 25.265625 0.953125 
Q 20.953125 3.328125 18.109375 8.203125 
L 18.109375 0 
L 9.078125 0 
L 9.078125 75.984375 
L 18.109375 75.984375 
z
" id="DejaVuSans-98"/>
     </defs>
     <use xlink:href="#DejaVuSans-98"/>
     <use x="63.476562" xlink:href="#DejaVuSans-101"/>
     <use x="125" xlink:href="#DejaVuSans-115"/>
     <use x="177.099609" xlink:href="#DejaVuSans-116"/>
     <use x="216.308594" xlink:href="#DejaVuSans-32"/>
     <use x="248.095703" xlink:href="#DejaVuSans-50"/>
     <use x="311.71875" xlink:href="#DejaVuSans-48"/>
     <use x="375.341797" xlink:href="#DejaVuSans-49"/>
     <use x="438.964844" xlink:href="#DejaVuSans-54"/>
    </g>
   </g>
   <g id="text_17">
    <!-- bbob-biobj f35, 2-D -->
    <g transform="translate(60.41088 38.111366)scale(0.102 -0.102)">
     <defs>
      <path d="M 9.421875 54.6875 
L 18.40625 54.6875 
L 18.40625 -0.984375 
Q 18.40625 -11.421875 14.421875 -16.109375 
Q 10.453125 -20.796875 1.609375 -20.796875 
L -1.8125 -20.796875 
L -1.8125 -13.1875 
L 0.59375 -13.1875 
Q 5.71875 -13.1875 7.5625 -10.8125 
Q 9.421875 -8.453125 9.421875 -0.984375 
z
M 9.421875 75.984375 
L 18.40625 75.984375 
L 18.40625 64.59375 
L 9.421875 64.59375 
z
" id="DejaVuSans-106"/>
      <path d="M 40.578125 39.3125 
Q 47.65625 37.796875 51.625 33 
Q 55.609375 28.21875 55.609375 21.1875 
Q 55.609375 10.40625 48.1875 4.484375 
Q 40.765625 -1.421875 27.09375 -1.421875 
Q 22.515625 -1.421875 17.65625 -0.515625 
Q 12.796875 0.390625 7.625 2.203125 
L 7.625 11.71875 
Q 11.71875 9.328125 16.59375 8.109375 
Q 21.484375 6.890625 26.8125 6.890625 
Q 36.078125 6.890625 40.9375 10.546875 
Q 45.796875 14.203125 45.796875 21.1875 
Q 45.796875 27.640625 41.28125 31.265625 
Q 36.765625 34.90625 28.71875 34.90625 
L 20.21875 34.90625 
L 20.21875 43.015625 
L 29.109375 43.015625 
Q 36.375 43.015625 40.234375 45.921875 
Q 44.09375 48.828125 44.09375 54.296875 
Q 44.09375 59.90625 40.109375 62.90625 
Q 36.140625 65.921875 28.71875 65.921875 
Q 24.65625 65.921875 20.015625 65.03125 
Q 15.375 64.15625 9.8125 62.3125 
L 9.8125 71.09375 
Q 15.4375 72.65625 20.34375 73.4375 
Q 25.25 74.21875 29.59375 74.21875 
Q 40.828125 74.21875 47.359375 69.109375 
Q 53.90625 64.015625 53.90625 55.328125 
Q 53.90625 49.265625 50.4375 45.09375 
Q 46.96875 40.921875 40.578125 39.3125 
z
" id="DejaVuSans-51"/>
      <path d="M 10.796875 72.90625 
L 49.515625 72.90625 
L 49.515625 64.59375 
L 19.828125 64.59375 
L 19.828125 46.734375 
Q 21.96875 47.46875 24.109375 47.828125 
Q 26.265625 48.1875 28.421875 48.1875 
Q 40.625 48.1875 47.75 41.5 
Q 54.890625 34.8125 54.890625 23.390625 
Q 54.890625 11.625 47.5625 5.09375 
Q 40.234375 -1.421875 26.90625 -1.421875 
Q 22.3125 -1.421875 17.546875 -0.640625 
Q 12.796875 0.140625 7.71875 1.703125 
L 7.71875 11.625 
Q 12.109375 9.234375 16.796875 8.0625 
Q 21.484375 6.890625 26.703125 6.890625 
Q 35.15625 6.890625 40.078125 11.328125 
Q 45.015625 15.765625 45.015625 23.390625 
Q 45.015625 31 40.078125 35.4375 
Q 35.15625 39.890625 26.703125 39.890625 
Q 22.75 39.890625 18.8125 39.015625 
Q 14.890625 38.140625 10.796875 36.28125 
z
" id="DejaVuSans-53"/>
      <path d="M 19.671875 64.796875 
L 19.671875 8.109375 
L 31.59375 8.109375 
Q 46.6875 8.109375 53.6875 14.9375 
Q 60.6875 21.78125 60.6875 36.53125 
Q 60.6875 51.171875 53.6875 57.984375 
Q 46.6875 64.796875 31.59375 64.796875 
z
M 9.8125 72.90625 
L 30.078125 72.90625 
Q 51.265625 72.90625 61.171875 64.09375 
Q 71.09375 55.28125 71.09375 36.53125 
Q 71.09375 17.671875 61.125 8.828125 
Q 51.171875 0 30.078125 0 
L 9.8125 0 
z
" id="DejaVuSans-68"/>
     </defs>
     <use xlink:href="#DejaVuSans-98"/>
     <use x="63.476562" xlink:href="#DejaVuSans-98"/>
     <use x="126.953125" xlink:href="#DejaVuSans-111"/>
     <use x="188.134766" xlink:href="#DejaVuSans-98"/>
     <use x="251.611328" xlink:href="#DejaVuSans-45"/>
     <use x="287.695312" xlink:href="#DejaVuSans-98"/>
     <use x="351.171875" xlink:href="#DejaVuSans-105"/>
     <use x="378.955078" xlink:href="#DejaVuSans-111"/>
     <use x="440.136719" xlink:href="#DejaVuSans-98"/>
     <use x="503.613281" xlink:href="#DejaVuSans-106"/>
     <use x="531.396484" xlink:href="#DejaVuSans-32"/>
     <use x="563.183594" xlink:href="#DejaVuSans-102"/>
     <use x="598.388672" xlink:href="#DejaVuSans-51"/>
     <use x="662.011719" xlink:href="#DejaVuSans-53"/>
     <use x="725.634766" xlink:href="#DejaVuSans-44"/>
     <use x="757.421875" xlink:href="#DejaVuSans-32"/>
     <use x="789.208984" xlink:href="#DejaVuSans-50"/>
     <use x="852.832031" xlink:href="#DejaVuSans-45"/>
     <use x="888.916016" xlink:href="#DejaVuSans-68"/>
    </g>
    <!-- 58 targets: 1..-1.0e-4 -->
    <g transform="translate(60.41088 49.533135)scale(0.102 -0.102)">
     <defs>
      <path d="M 11.71875 12.40625 
L 22.015625 12.40625 
L 22.015625 0 
L 11.71875 0 
z
M 11.71875 51.703125 
L 22.015625 51.703125 
L 22.015625 39.3125 
L 11.71875 39.3125 
z
" id="DejaVuSans-58"/>
     </defs>
     <use xlink:href="#DejaVuSans-53"/>
     <use x="63.623047" xlink:href="#DejaVuSans-56"/>
     <use x="127.246094" xlink:href="#DejaVuSans-32"/>
     <use x="159.033203" xlink:href="#DejaVuSans-116"/>
     <use x="198.242188" xlink:href="#DejaVuSans-97"/>
     <use x="259.521484" xlink:href="#DejaVuSans-114"/>
     <use x="298.884766" xlink:href="#DejaVuSans-103"/>
     <use x="362.361328" xlink:href="#DejaVuSans-101"/>
     <use x="423.884766" xlink:href="#DejaVuSans-116"/>
     <use x="463.09375" xlink:href="#DejaVuSans-115"/>
     <use x="515.193359" xlink:href="#DejaVuSans-58"/>
     <use x="548.884766" xlink:href="#DejaVuSans-32"/>
     <use x="580.671875" xlink:href="#DejaVuSans-49"/>
     <use x="644.294922" xlink:href="#DejaVuSans-46"/>
     <use x="676.082031" xlink:href="#DejaVuSans-46"/>
     <use x="707.869141" xlink:href="#DejaVuSans-45"/>
     <use x="743.953125" xlink:href="#DejaVuSans-49"/>
     <use x="807.576172" xlink:href="#DejaVuSans-46"/>
     <use x="839.363281" xlink:href="#DejaVuSans-48"/>
     <use x="902.986328" xlink:href="#DejaVuSans-101"/>
     <use x="964.509766" xlink:href="#DejaVuSans-45"/>
     <use x="1000.59375" xlink:href="#DejaVuSans-52"/>
    </g>
    <!-- 10 instances -->
    <g transform="translate(60.41088 60.954904)scale(0.102 -0.102)">
     <use xlink:href="#DejaVuSans-49"/>
     <use x="63.623047" xlink:href="#DejaVuSans-48"/>
     <use x="127.246094" xlink:href="#DejaVuSans-32"/>
     <use x="159.033203" xlink:href="#DejaVuSans-105"/>
     <use x="186.816406" xlink:href="#DejaVuSans-110"/>
     <use x="250.195312" xlink:href="#DejaVuSans-115"/>
     <use x="302.294922" xlink:href="#DejaVuSans-116"/>
     <use x="341.503906" xlink:href="#DejaVuSans-97"/>
     <use x="402.783203" xlink:href="#DejaVuSans-110"/>
     <use x="466.162109" xlink:href="#DejaVuSans-99"/>
     <use x="521.142578" xlink:href="#DejaVuSans-101"/>
     <use x="582.666016" xlink:href="#DejaVuSans-115"/>
    </g>
   </g>
   <g id="text_18">
    <!-- v2.4.19, hv-hash=ff0e71e8cd978373 -->
    <g style="fill:#808080;" transform="translate(104.697125 294.151352)scale(0.1 -0.1)">
     <defs>
      <path d="M 10.984375 1.515625 
L 10.984375 10.5 
Q 14.703125 8.734375 18.5 7.8125 
Q 22.3125 6.890625 25.984375 6.890625 
Q 35.75 6.890625 40.890625 13.453125 
Q 46.046875 20.015625 46.78125 33.40625 
Q 43.953125 29.203125 39.59375 26.953125 
Q 35.25 24.703125 29.984375 24.703125 
Q 19.046875 24.703125 12.671875 31.3125 
Q 6.296875 37.9375 6.296875 49.421875 
Q 6.296875 60.640625 12.9375 67.421875 
Q 19.578125 74.21875 30.609375 74.21875 
Q 43.265625 74.21875 49.921875 64.515625 
Q 56.59375 54.828125 56.59375 36.375 
Q 56.59375 19.140625 48.40625 8.859375 
Q 40.234375 -1.421875 26.421875 -1.421875 
Q 22.703125 -1.421875 18.890625 -0.6875 
Q 15.09375 0.046875 10.984375 1.515625 
z
M 30.609375 32.421875 
Q 37.25 32.421875 41.125 36.953125 
Q 45.015625 41.5 45.015625 49.421875 
Q 45.015625 57.28125 41.125 61.84375 
Q 37.25 66.40625 30.609375 66.40625 
Q 23.96875 66.40625 20.09375 61.84375 
Q 16.21875 57.28125 16.21875 49.421875 
Q 16.21875 41.5 20.09375 36.953125 
Q 23.96875 32.421875 30.609375 32.421875 
z
" id="DejaVuSans-57"/>
      <path d="M 54.890625 33.015625 
L 54.890625 0 
L 45.90625 0 
L 45.90625 32.71875 
Q 45.90625 40.484375 42.875 44.328125 
Q 39.84375 48.1875 33.796875 48.1875 
Q 26.515625 48.1875 22.3125 43.546875 
Q 18.109375 38.921875 18.109375 30.90625 
L 18.109375 0 
L 9.078125 0 
L 9.078125 75.984375 
L 18.109375 75.984375 
L 18.109375 46.1875 
Q 21.34375 51.125 25.703125 53.5625 
Q 30.078125 56 35.796875 56 
Q 45.21875 56 50.046875 50.171875 
Q 54.890625 44.34375 54.890625 33.015625 
z
" id="DejaVuSans-104"/>
      <path d="M 10.59375 45.40625 
L 73.1875 45.40625 
L 73.1875 37.203125 
L 10.59375 37.203125 
z
M 10.59375 25.484375 
L 73.1875 25.484375 
L 73.1875 17.1875 
L 10.59375 17.1875 
z
" id="DejaVuSans-61"/>
      <path d="M 8.203125 72.90625 
L 55.078125 72.90625 
L 55.078125 68.703125 
L 28.609375 0 
L 18.3125 0 
L 43.21875 64.59375 
L 8.203125 64.59375 
z
" id="DejaVuSans-55"/>
     </defs>
     <use xlink:href="#DejaVuSans-118"/>
     <use x="59.179688" xlink:href="#DejaVuSans-50"/>
     <use x="122.802734" xlink:href="#DejaVuSans-46"/>
     <use x="154.589844" xlink:href="#DejaVuSans-52"/>
     <use x="218.212891" xlink:href="#DejaVuSans-46"/>
     <use x="250" xlink:href="#DejaVuSans-49"/>
     <use x="313.623047" xlink:href="#DejaVuSans-57"/>
     <use x="377.246094" xlink:href="#DejaVuSans-44"/>
     <use x="409.033203" xlink:href="#DejaVuSans-32"/>
     <use x="440.820312" xlink:href="#DejaVuSans-104"/>
     <use x="504.199219" xlink:href="#DejaVuSans-118"/>
     <use x="560.753906" xlink:href="#DejaVuSans-45"/>
     <use x="596.837891" xlink:href="#DejaVuSans-104"/>
     <use x="660.216797" xlink:href="#DejaVuSans-97"/>
     <use x="721.496094" xlink:href="#DejaVuSans-115"/>
     <use x="773.595703" xlink:href="#DejaVuSans-104"/>
     <use x="836.974609" xlink:href="#DejaVuSans-61"/>
     <use x="920.763672" xlink:href="#DejaVuSans-102"/>
     <use x="955.96875" xlink:href="#DejaVuSans-102"/>
     <use x="991.173828" xlink:href="#DejaVuSans-48"/>
     <use x="1054.796875" xlink:href="#DejaVuSans-101"/>
     <use x="1116.320312" xlink:href="#DejaVuSans-55"/>
     <use x="1179.943359" xlink:href="#DejaVuSans-49"/>
     <use x="1243.566406" xlink:href="#DejaVuSans-101"/>
     <use x="1305.089844" xlink:href="#DejaVuSans-56"/>
     <use x="1368.712891" xlink:href="#DejaVuSans-99"/>
     <use x="1423.693359" xlink:href="#DejaVuSans-100"/>
     <use x="1487.169922" xlink:href="#DejaVuSans-57"/>
     <use x="1550.792969" xlink:href="#DejaVuSans-55"/>
     <use x="1614.416016" xlink:href="#DejaVuSans-56"/>
     <use x="1678.039062" xlink:href="#DejaVuSans-51"/>
     <use x="1741.662109" xlink:href="#DejaVuSans-55"/>
     <use x="1805.285156" xlink:href="#DejaVuSans-51"/>
    </g>
   </g>
   <g id="text_19">
    <!-- 35 Sharp ridge/Sharp ridge -->
    <g transform="translate(62.490875 21.648)scale(0.2 -0.2)">
     <use xlink:href="#DejaVuSans-51"/>
     <use x="63.623047" xlink:href="#DejaVuSans-53"/>
     <use x="127.246094" xlink:href="#DejaVuSans-32"/>
     <use x="159.033203" xlink:href="#DejaVuSans-83"/>
     <use x="222.509766" xlink:href="#DejaVuSans-104"/>
     <use x="285.888672" xlink:href="#DejaVuSans-97"/>
     <use x="347.167969" xlink:href="#DejaVuSans-114"/>
     <use x="388.28125" xlink:href="#DejaVuSans-112"/>
     <use x="451.757812" xlink:href="#DejaVuSans-32"/>
     <use x="483.544922" xlink:href="#DejaVuSans-114"/>
     <use x="524.658203" xlink:href="#DejaVuSans-105"/>
     <use x="552.441406" xlink:href="#DejaVuSans-100"/>
     <use x="615.917969" xlink:href="#DejaVuSans-103"/>
     <use x="679.394531" xlink:href="#DejaVuSans-101"/>
     <use x="740.917969" xlink:href="#DejaVuSans-47"/>
     <use x="774.609375" xlink:href="#DejaVuSans-83"/>
     <use x="838.085938" xlink:href="#DejaVuSans-104"/>
     <use x="901.464844" xlink:href="#DejaVuSans-97"/>
     <use x="962.744141" xlink:href="#DejaVuSans-114"/>
     <use x="1003.857422" xlink:href="#DejaVuSans-112"/>
     <use x="1067.333984" xlink:href="#DejaVuSans-32"/>
     <use x="1099.121094" xlink:href="#DejaVuSans-114"/>
     <use x="1140.234375" xlink:href="#DejaVuSans-105"/>
     <use x="1168.017578" xlink:href="#DejaVuSans-100"/>
     <use x="1231.494141" xlink:href="#DejaVuSans-103"/>
     <use x="1294.970703" xlink:href="#DejaVuSans-101"/>
    </g>
   </g>
  </g>
 </g>
 <defs>
  <clipPath id="pe9b36402f9">
   <rect height="271.296" width="281.088" x="57.6" y="27.648"/>
  </clipPath>
 </defs>
</svg>
