<?xml version="1.0" encoding="utf-8" standalone="no"?>
<!DOCTYPE svg PUBLIC "-//W3C//DTD SVG 1.1//EN"
  "http://www.w3.org/Graphics/SVG/1.1/DTD/svg11.dtd">
<!-- Created with matplotlib (https://matplotlib.org/) -->
<svg height="345.6pt" version="1.1" viewBox="0 0 460.8 345.6" width="460.8pt" xmlns="http://www.w3.org/2000/svg" xmlns:xlink="http://www.w3.org/1999/xlink">
 <metadata>
  <rdf:RDF xmlns:cc="http://creativecommons.org/ns#" xmlns:dc="http://purl.org/dc/elements/1.1/" xmlns:rdf="http://www.w3.org/1999/02/22-rdf-syntax-ns#">
   <cc:Work>
    <dc:type rdf:resource="http://purl.org/dc/dcmitype/StillImage"/>
    <dc:date>2021-04-26T15:05:15.595696</dc:date>
    <dc:format>image/svg+xml</dc:format>
    <dc:creator>
     <cc:Agent>
      <dc:title>Matplotlib v3.3.2, https://matplotlib.org/</dc:title>
     </cc:Agent>
    </dc:creator>
   </cc:Work>
  </rdf:RDF>
 </metadata>
 <defs>
  <style type="text/css">*{stroke-linecap:butt;stroke-linejoin:round;}</style>
 </defs>
 <g id="figure_1">
  <g id="patch_1">
   <path d="M 0 345.6 
L 460.8 345.6 
L 460.8 0 
L 0 0 
z
" style="fill:#ffffff;"/>
  </g>
  <g id="axes_1">
   <g id="patch_2">
    <path d="M 57.6 298.944 
L 338.688 298.944 
L 338.688 27.648 
L 57.6 27.648 
z
" style="fill:#ffffff;"/>
   </g>
   <g id="line2d_1">
    <path d="M 62.616969 298.944 
L 62.616969 294.312795 
L 74.704957 294.312795 
L 74.704957 285.050384 
L 97.16421 285.050384 
L 97.16421 275.787974 
L 113.26352 275.787974 
L 113.26352 271.156769 
L 137.439497 271.156769 
L 137.439497 257.263153 
L 147.50327 257.263153 
L 147.50327 248.000743 
L 156.031982 248.000743 
L 156.031982 243.369538 
L 167.244924 243.369538 
L 167.244924 234.107127 
L 176.744358 234.107127 
L 176.744358 220.213512 
L 182.801969 220.213512 
L 182.801969 210.951101 
L 191.805843 210.951101 
L 191.805843 201.688691 
L 205.891388 201.688691 
L 205.891388 192.426281 
L 219.520207 192.426281 
L 219.520207 187.795075 
L 232.52679 187.795075 
L 232.52679 173.90146 
L 238.311129 173.90146 
L 238.311129 169.270255 
L 247.797364 169.270255 
L 247.797364 155.376639 
L 254.167285 155.376639 
L 254.167285 146.114229 
L 262.866969 146.114229 
L 262.866969 141.483024 
L 271.966995 141.483024 
L 271.966995 127.589408 
L 279.232609 127.589408 
L 279.232609 122.958203 
L 283.641828 122.958203 
L 283.641828 109.064587 
L 297.020634 109.064587 
L 297.020634 99.802177 
L 297.746001 99.802177 
L 297.746001 90.539766 
L 297.962502 90.539766 
L 297.962502 85.908561 
L 298.445162 85.908561 
L 298.445162 76.646151 
L 310.707782 76.646151 
L 310.707782 62.752535 
L 338.688 62.752535 
" style="fill:none;stroke:#f5deb3;stroke-linecap:square;stroke-width:4;"/>
   </g>
   <g id="line2d_2">
    <defs>
     <path d="M 0 7.778175 
L 7.778175 0 
L 0 -7.778175 
L -7.778175 0 
z
" id="m37d0523516" style="stroke:#f5deb3;stroke-linejoin:miter;stroke-width:1.5;"/>
    </defs>
    <g>
     <use style="fill:#f5deb3;stroke:#f5deb3;stroke-linejoin:miter;stroke-width:1.5;" x="176.744358" xlink:href="#m37d0523516" y="234.107127"/>
     <use style="fill:#f5deb3;stroke:#f5deb3;stroke-linejoin:miter;stroke-width:1.5;" x="247.797364" xlink:href="#m37d0523516" y="169.270255"/>
     <use style="fill:#f5deb3;stroke:#f5deb3;stroke-linejoin:miter;stroke-width:1.5;" x="298.445162" xlink:href="#m37d0523516" y="85.908561"/>
     <use style="fill:#f5deb3;stroke:#f5deb3;stroke-linejoin:miter;stroke-width:1.5;" x="310.707782" xlink:href="#m37d0523516" y="62.752535"/>
     <use style="fill:#f5deb3;stroke:#f5deb3;stroke-linejoin:miter;stroke-width:1.5;" x="338.688" xlink:href="#m37d0523516" y="62.752535"/>
    </g>
   </g>
   <g id="line2d_3">
    <path style="fill:none;stroke:#f5deb3;stroke-linecap:square;stroke-width:4;"/>
    <g/>
   </g>
   <g id="line2d_4">
    <path d="M 338.688 62.752535 
L 369.60768 35.706297 
" style="fill:none;stroke:#f5deb3;stroke-linecap:square;stroke-width:4;"/>
    <g>
     <use style="fill:#f5deb3;stroke:#f5deb3;stroke-linejoin:miter;stroke-width:1.5;" x="338.688" xlink:href="#m37d0523516" y="62.752535"/>
     <use style="fill:#f5deb3;stroke:#f5deb3;stroke-linejoin:miter;stroke-width:1.5;" x="369.60768" xlink:href="#m37d0523516" y="35.706297"/>
    </g>
   </g>
   <g id="matplotlib.axis_1">
    <g id="xtick_1">
     <g id="line2d_5">
      <path clip-path="url(#p58ebb24197)" d="M 57.6 298.944 
L 57.6 27.648 
" style="fill:none;stroke:#b0b0b0;stroke-linecap:square;stroke-width:0.8;"/>
     </g>
     <g id="line2d_6">
      <defs>
       <path d="M 0 0 
L 0 3.5 
" id="me8c1c6b216" style="stroke:#000000;stroke-width:0.8;"/>
      </defs>
      <g>
       <use style="stroke:#000000;stroke-width:0.8;" x="57.6" xlink:href="#me8c1c6b216" y="298.944"/>
      </g>
     </g>
     <g id="text_1">
      <!-- 0 -->
      <g transform="translate(51.2375 321.140875)scale(0.2 -0.2)">
       <defs>
        <path d="M 31.78125 66.40625 
Q 24.171875 66.40625 20.328125 58.90625 
Q 16.5 51.421875 16.5 36.375 
Q 16.5 21.390625 20.328125 13.890625 
Q 24.171875 6.390625 31.78125 6.390625 
Q 39.453125 6.390625 43.28125 13.890625 
Q 47.125 21.390625 47.125 36.375 
Q 47.125 51.421875 43.28125 58.90625 
Q 39.453125 66.40625 31.78125 66.40625 
z
M 31.78125 74.21875 
Q 44.046875 74.21875 50.515625 64.515625 
Q 56.984375 54.828125 56.984375 36.375 
Q 56.984375 17.96875 50.515625 8.265625 
Q 44.046875 -1.421875 31.78125 -1.421875 
Q 19.53125 -1.421875 13.0625 8.265625 
Q 6.59375 17.96875 6.59375 36.375 
Q 6.59375 54.828125 13.0625 64.515625 
Q 19.53125 74.21875 31.78125 74.21875 
z
" id="DejaVuSans-48"/>
       </defs>
       <use xlink:href="#DejaVuSans-48"/>
      </g>
     </g>
    </g>
    <g id="xtick_2">
     <g id="line2d_7">
      <path clip-path="url(#p58ebb24197)" d="M 137.910857 298.944 
L 137.910857 27.648 
" style="fill:none;stroke:#b0b0b0;stroke-linecap:square;stroke-width:0.8;"/>
     </g>
     <g id="line2d_8">
      <g>
       <use style="stroke:#000000;stroke-width:0.8;" x="137.910857" xlink:href="#me8c1c6b216" y="298.944"/>
      </g>
     </g>
     <g id="text_2">
      <!-- 2 -->
      <g transform="translate(131.548357 321.140875)scale(0.2 -0.2)">
       <defs>
        <path d="M 19.1875 8.296875 
L 53.609375 8.296875 
L 53.609375 0 
L 7.328125 0 
L 7.328125 8.296875 
Q 12.9375 14.109375 22.625 23.890625 
Q 32.328125 33.6875 34.8125 36.53125 
Q 39.546875 41.84375 41.421875 45.53125 
Q 43.3125 49.21875 43.3125 52.78125 
Q 43.3125 58.59375 39.234375 62.25 
Q 35.15625 65.921875 28.609375 65.921875 
Q 23.96875 65.921875 18.8125 64.3125 
Q 13.671875 62.703125 7.8125 59.421875 
L 7.8125 69.390625 
Q 13.765625 71.78125 18.9375 73 
Q 24.125 74.21875 28.421875 74.21875 
Q 39.75 74.21875 46.484375 68.546875 
Q 53.21875 62.890625 53.21875 53.421875 
Q 53.21875 48.921875 51.53125 44.890625 
Q 49.859375 40.875 45.40625 35.40625 
Q 44.1875 33.984375 37.640625 27.21875 
Q 31.109375 20.453125 19.1875 8.296875 
z
" id="DejaVuSans-50"/>
       </defs>
       <use xlink:href="#DejaVuSans-50"/>
      </g>
     </g>
    </g>
    <g id="xtick_3">
     <g id="line2d_9">
      <path clip-path="url(#p58ebb24197)" d="M 218.221714 298.944 
L 218.221714 27.648 
" style="fill:none;stroke:#b0b0b0;stroke-linecap:square;stroke-width:0.8;"/>
     </g>
     <g id="line2d_10">
      <g>
       <use style="stroke:#000000;stroke-width:0.8;" x="218.221714" xlink:href="#me8c1c6b216" y="298.944"/>
      </g>
     </g>
     <g id="text_3">
      <!-- 4 -->
      <g transform="translate(211.859214 321.140875)scale(0.2 -0.2)">
       <defs>
        <path d="M 37.796875 64.3125 
L 12.890625 25.390625 
L 37.796875 25.390625 
z
M 35.203125 72.90625 
L 47.609375 72.90625 
L 47.609375 25.390625 
L 58.015625 25.390625 
L 58.015625 17.1875 
L 47.609375 17.1875 
L 47.609375 0 
L 37.796875 0 
L 37.796875 17.1875 
L 4.890625 17.1875 
L 4.890625 26.703125 
z
" id="DejaVuSans-52"/>
       </defs>
       <use xlink:href="#DejaVuSans-52"/>
      </g>
     </g>
    </g>
    <g id="xtick_4">
     <g id="line2d_11">
      <path clip-path="url(#p58ebb24197)" d="M 298.532571 298.944 
L 298.532571 27.648 
" style="fill:none;stroke:#b0b0b0;stroke-linecap:square;stroke-width:0.8;"/>
     </g>
     <g id="line2d_12">
      <g>
       <use style="stroke:#000000;stroke-width:0.8;" x="298.532571" xlink:href="#me8c1c6b216" y="298.944"/>
      </g>
     </g>
     <g id="text_4">
      <!-- 6 -->
      <g transform="translate(292.170071 321.140875)scale(0.2 -0.2)">
       <defs>
        <path d="M 33.015625 40.375 
Q 26.375 40.375 22.484375 35.828125 
Q 18.609375 31.296875 18.609375 23.390625 
Q 18.609375 15.53125 22.484375 10.953125 
Q 26.375 6.390625 33.015625 6.390625 
Q 39.65625 6.390625 43.53125 10.953125 
Q 47.40625 15.53125 47.40625 23.390625 
Q 47.40625 31.296875 43.53125 35.828125 
Q 39.65625 40.375 33.015625 40.375 
z
M 52.59375 71.296875 
L 52.59375 62.3125 
Q 48.875 64.0625 45.09375 64.984375 
Q 41.3125 65.921875 37.59375 65.921875 
Q 27.828125 65.921875 22.671875 59.328125 
Q 17.53125 52.734375 16.796875 39.40625 
Q 19.671875 43.65625 24.015625 45.921875 
Q 28.375 48.1875 33.59375 48.1875 
Q 44.578125 48.1875 50.953125 41.515625 
Q 57.328125 34.859375 57.328125 23.390625 
Q 57.328125 12.15625 50.6875 5.359375 
Q 44.046875 -1.421875 33.015625 -1.421875 
Q 20.359375 -1.421875 13.671875 8.265625 
Q 6.984375 17.96875 6.984375 36.375 
Q 6.984375 53.65625 15.1875 63.9375 
Q 23.390625 74.21875 37.203125 74.21875 
Q 40.921875 74.21875 44.703125 73.484375 
Q 48.484375 72.75 52.59375 71.296875 
z
" id="DejaVuSans-54"/>
       </defs>
       <use xlink:href="#DejaVuSans-54"/>
      </g>
     </g>
    </g>
    <g id="xtick_5">
     <g id="line2d_13">
      <path clip-path="url(#p58ebb24197)" d="M 97.755429 298.944 
L 97.755429 27.648 
" style="fill:none;stroke:#b0b0b0;stroke-linecap:square;stroke-width:0.8;"/>
     </g>
     <g id="line2d_14">
      <defs>
       <path d="M 0 0 
L 0 2 
" id="m8ce63db8db" style="stroke:#000000;stroke-width:0.6;"/>
      </defs>
      <g>
       <use style="stroke:#000000;stroke-width:0.6;" x="97.755429" xlink:href="#m8ce63db8db" y="298.944"/>
      </g>
     </g>
    </g>
    <g id="xtick_6">
     <g id="line2d_15">
      <path clip-path="url(#p58ebb24197)" d="M 178.066286 298.944 
L 178.066286 27.648 
" style="fill:none;stroke:#b0b0b0;stroke-linecap:square;stroke-width:0.8;"/>
     </g>
     <g id="line2d_16">
      <g>
       <use style="stroke:#000000;stroke-width:0.6;" x="178.066286" xlink:href="#m8ce63db8db" y="298.944"/>
      </g>
     </g>
    </g>
    <g id="xtick_7">
     <g id="line2d_17">
      <path clip-path="url(#p58ebb24197)" d="M 258.377143 298.944 
L 258.377143 27.648 
" style="fill:none;stroke:#b0b0b0;stroke-linecap:square;stroke-width:0.8;"/>
     </g>
     <g id="line2d_18">
      <g>
       <use style="stroke:#000000;stroke-width:0.6;" x="258.377143" xlink:href="#m8ce63db8db" y="298.944"/>
      </g>
     </g>
    </g>
    <g id="xtick_8">
     <g id="line2d_19">
      <path clip-path="url(#p58ebb24197)" d="M 338.688 298.944 
L 338.688 27.648 
" style="fill:none;stroke:#b0b0b0;stroke-linecap:square;stroke-width:0.8;"/>
     </g>
     <g id="line2d_20">
      <g>
       <use style="stroke:#000000;stroke-width:0.6;" x="338.688" xlink:href="#m8ce63db8db" y="298.944"/>
      </g>
     </g>
    </g>
    <g id="text_5">
     <!-- log10(# f-evals / dimension) -->
     <g transform="translate(77.764078 342.217594)scale(0.17 -0.17)">
      <defs>
       <path d="M 9.421875 75.984375 
L 18.40625 75.984375 
L 18.40625 0 
L 9.421875 0 
z
" id="DejaVuSans-108"/>
       <path d="M 30.609375 48.390625 
Q 23.390625 48.390625 19.1875 42.75 
Q 14.984375 37.109375 14.984375 27.296875 
Q 14.984375 17.484375 19.15625 11.84375 
Q 23.34375 6.203125 30.609375 6.203125 
Q 37.796875 6.203125 41.984375 11.859375 
Q 46.1875 17.53125 46.1875 27.296875 
Q 46.1875 37.015625 41.984375 42.703125 
Q 37.796875 48.390625 30.609375 48.390625 
z
M 30.609375 56 
Q 42.328125 56 49.015625 48.375 
Q 55.71875 40.765625 55.71875 27.296875 
Q 55.71875 13.875 49.015625 6.21875 
Q 42.328125 -1.421875 30.609375 -1.421875 
Q 18.84375 -1.421875 12.171875 6.21875 
Q 5.515625 13.875 5.515625 27.296875 
Q 5.515625 40.765625 12.171875 48.375 
Q 18.84375 56 30.609375 56 
z
" id="DejaVuSans-111"/>
       <path d="M 45.40625 27.984375 
Q 45.40625 37.75 41.375 43.109375 
Q 37.359375 48.484375 30.078125 48.484375 
Q 22.859375 48.484375 18.828125 43.109375 
Q 14.796875 37.75 14.796875 27.984375 
Q 14.796875 18.265625 18.828125 12.890625 
Q 22.859375 7.515625 30.078125 7.515625 
Q 37.359375 7.515625 41.375 12.890625 
Q 45.40625 18.265625 45.40625 27.984375 
z
M 54.390625 6.78125 
Q 54.390625 -7.171875 48.1875 -13.984375 
Q 42 -20.796875 29.203125 -20.796875 
Q 24.46875 -20.796875 20.265625 -20.09375 
Q 16.0625 -19.390625 12.109375 -17.921875 
L 12.109375 -9.1875 
Q 16.0625 -11.328125 19.921875 -12.34375 
Q 23.78125 -13.375 27.78125 -13.375 
Q 36.625 -13.375 41.015625 -8.765625 
Q 45.40625 -4.15625 45.40625 5.171875 
L 45.40625 9.625 
Q 42.625 4.78125 38.28125 2.390625 
Q 33.9375 0 27.875 0 
Q 17.828125 0 11.671875 7.65625 
Q 5.515625 15.328125 5.515625 27.984375 
Q 5.515625 40.671875 11.671875 48.328125 
Q 17.828125 56 27.875 56 
Q 33.9375 56 38.28125 53.609375 
Q 42.625 51.21875 45.40625 46.390625 
L 45.40625 54.6875 
L 54.390625 54.6875 
z
" id="DejaVuSans-103"/>
       <path d="M 12.40625 8.296875 
L 28.515625 8.296875 
L 28.515625 63.921875 
L 10.984375 60.40625 
L 10.984375 69.390625 
L 28.421875 72.90625 
L 38.28125 72.90625 
L 38.28125 8.296875 
L 54.390625 8.296875 
L 54.390625 0 
L 12.40625 0 
z
" id="DejaVuSans-49"/>
       <path d="M 31 75.875 
Q 24.46875 64.65625 21.28125 53.65625 
Q 18.109375 42.671875 18.109375 31.390625 
Q 18.109375 20.125 21.3125 9.0625 
Q 24.515625 -2 31 -13.1875 
L 23.1875 -13.1875 
Q 15.875 -1.703125 12.234375 9.375 
Q 8.59375 20.453125 8.59375 31.390625 
Q 8.59375 42.28125 12.203125 53.3125 
Q 15.828125 64.359375 23.1875 75.875 
z
" id="DejaVuSans-40"/>
       <path d="M 51.125 44 
L 36.921875 44 
L 32.8125 27.6875 
L 47.125 27.6875 
z
M 43.796875 71.78125 
L 38.71875 51.515625 
L 52.984375 51.515625 
L 58.109375 71.78125 
L 65.921875 71.78125 
L 60.890625 51.515625 
L 76.125 51.515625 
L 76.125 44 
L 58.984375 44 
L 54.984375 27.6875 
L 70.515625 27.6875 
L 70.515625 20.21875 
L 53.078125 20.21875 
L 48 0 
L 40.1875 0 
L 45.21875 20.21875 
L 30.90625 20.21875 
L 25.875 0 
L 18.015625 0 
L 23.09375 20.21875 
L 7.71875 20.21875 
L 7.71875 27.6875 
L 24.90625 27.6875 
L 29 44 
L 13.28125 44 
L 13.28125 51.515625 
L 30.90625 51.515625 
L 35.890625 71.78125 
z
" id="DejaVuSans-35"/>
       <path id="DejaVuSans-32"/>
       <path d="M 37.109375 75.984375 
L 37.109375 68.5 
L 28.515625 68.5 
Q 23.6875 68.5 21.796875 66.546875 
Q 19.921875 64.59375 19.921875 59.515625 
L 19.921875 54.6875 
L 34.71875 54.6875 
L 34.71875 47.703125 
L 19.921875 47.703125 
L 19.921875 0 
L 10.890625 0 
L 10.890625 47.703125 
L 2.296875 47.703125 
L 2.296875 54.6875 
L 10.890625 54.6875 
L 10.890625 58.5 
Q 10.890625 67.625 15.140625 71.796875 
Q 19.390625 75.984375 28.609375 75.984375 
z
" id="DejaVuSans-102"/>
       <path d="M 4.890625 31.390625 
L 31.203125 31.390625 
L 31.203125 23.390625 
L 4.890625 23.390625 
z
" id="DejaVuSans-45"/>
       <path d="M 56.203125 29.59375 
L 56.203125 25.203125 
L 14.890625 25.203125 
Q 15.484375 15.921875 20.484375 11.0625 
Q 25.484375 6.203125 34.421875 6.203125 
Q 39.59375 6.203125 44.453125 7.46875 
Q 49.3125 8.734375 54.109375 11.28125 
L 54.109375 2.78125 
Q 49.265625 0.734375 44.1875 -0.34375 
Q 39.109375 -1.421875 33.890625 -1.421875 
Q 20.796875 -1.421875 13.15625 6.1875 
Q 5.515625 13.8125 5.515625 26.8125 
Q 5.515625 40.234375 12.765625 48.109375 
Q 20.015625 56 32.328125 56 
Q 43.359375 56 49.78125 48.890625 
Q 56.203125 41.796875 56.203125 29.59375 
z
M 47.21875 32.234375 
Q 47.125 39.59375 43.09375 43.984375 
Q 39.0625 48.390625 32.421875 48.390625 
Q 24.90625 48.390625 20.390625 44.140625 
Q 15.875 39.890625 15.1875 32.171875 
z
" id="DejaVuSans-101"/>
       <path d="M 2.984375 54.6875 
L 12.5 54.6875 
L 29.59375 8.796875 
L 46.6875 54.6875 
L 56.203125 54.6875 
L 35.6875 0 
L 23.484375 0 
z
" id="DejaVuSans-118"/>
       <path d="M 34.28125 27.484375 
Q 23.390625 27.484375 19.1875 25 
Q 14.984375 22.515625 14.984375 16.5 
Q 14.984375 11.71875 18.140625 8.90625 
Q 21.296875 6.109375 26.703125 6.109375 
Q 34.1875 6.109375 38.703125 11.40625 
Q 43.21875 16.703125 43.21875 25.484375 
L 43.21875 27.484375 
z
M 52.203125 31.203125 
L 52.203125 0 
L 43.21875 0 
L 43.21875 8.296875 
Q 40.140625 3.328125 35.546875 0.953125 
Q 30.953125 -1.421875 24.3125 -1.421875 
Q 15.921875 -1.421875 10.953125 3.296875 
Q 6 8.015625 6 15.921875 
Q 6 25.140625 12.171875 29.828125 
Q 18.359375 34.515625 30.609375 34.515625 
L 43.21875 34.515625 
L 43.21875 35.40625 
Q 43.21875 41.609375 39.140625 45 
Q 35.0625 48.390625 27.6875 48.390625 
Q 23 48.390625 18.546875 47.265625 
Q 14.109375 46.140625 10.015625 43.890625 
L 10.015625 52.203125 
Q 14.9375 54.109375 19.578125 55.046875 
Q 24.21875 56 28.609375 56 
Q 40.484375 56 46.34375 49.84375 
Q 52.203125 43.703125 52.203125 31.203125 
z
" id="DejaVuSans-97"/>
       <path d="M 44.28125 53.078125 
L 44.28125 44.578125 
Q 40.484375 46.53125 36.375 47.5 
Q 32.28125 48.484375 27.875 48.484375 
Q 21.1875 48.484375 17.84375 46.4375 
Q 14.5 44.390625 14.5 40.28125 
Q 14.5 37.15625 16.890625 35.375 
Q 19.28125 33.59375 26.515625 31.984375 
L 29.59375 31.296875 
Q 39.15625 29.25 43.1875 25.515625 
Q 47.21875 21.78125 47.21875 15.09375 
Q 47.21875 7.46875 41.1875 3.015625 
Q 35.15625 -1.421875 24.609375 -1.421875 
Q 20.21875 -1.421875 15.453125 -0.5625 
Q 10.6875 0.296875 5.421875 2 
L 5.421875 11.28125 
Q 10.40625 8.6875 15.234375 7.390625 
Q 20.0625 6.109375 24.8125 6.109375 
Q 31.15625 6.109375 34.5625 8.28125 
Q 37.984375 10.453125 37.984375 14.40625 
Q 37.984375 18.0625 35.515625 20.015625 
Q 33.0625 21.96875 24.703125 23.78125 
L 21.578125 24.515625 
Q 13.234375 26.265625 9.515625 29.90625 
Q 5.8125 33.546875 5.8125 39.890625 
Q 5.8125 47.609375 11.28125 51.796875 
Q 16.75 56 26.8125 56 
Q 31.78125 56 36.171875 55.265625 
Q 40.578125 54.546875 44.28125 53.078125 
z
" id="DejaVuSans-115"/>
       <path d="M 25.390625 72.90625 
L 33.6875 72.90625 
L 8.296875 -9.28125 
L 0 -9.28125 
z
" id="DejaVuSans-47"/>
       <path d="M 45.40625 46.390625 
L 45.40625 75.984375 
L 54.390625 75.984375 
L 54.390625 0 
L 45.40625 0 
L 45.40625 8.203125 
Q 42.578125 3.328125 38.25 0.953125 
Q 33.9375 -1.421875 27.875 -1.421875 
Q 17.96875 -1.421875 11.734375 6.484375 
Q 5.515625 14.40625 5.515625 27.296875 
Q 5.515625 40.1875 11.734375 48.09375 
Q 17.96875 56 27.875 56 
Q 33.9375 56 38.25 53.625 
Q 42.578125 51.265625 45.40625 46.390625 
z
M 14.796875 27.296875 
Q 14.796875 17.390625 18.875 11.75 
Q 22.953125 6.109375 30.078125 6.109375 
Q 37.203125 6.109375 41.296875 11.75 
Q 45.40625 17.390625 45.40625 27.296875 
Q 45.40625 37.203125 41.296875 42.84375 
Q 37.203125 48.484375 30.078125 48.484375 
Q 22.953125 48.484375 18.875 42.84375 
Q 14.796875 37.203125 14.796875 27.296875 
z
" id="DejaVuSans-100"/>
       <path d="M 9.421875 54.6875 
L 18.40625 54.6875 
L 18.40625 0 
L 9.421875 0 
z
M 9.421875 75.984375 
L 18.40625 75.984375 
L 18.40625 64.59375 
L 9.421875 64.59375 
z
" id="DejaVuSans-105"/>
       <path d="M 52 44.1875 
Q 55.375 50.25 60.0625 53.125 
Q 64.75 56 71.09375 56 
Q 79.640625 56 84.28125 50.015625 
Q 88.921875 44.046875 88.921875 33.015625 
L 88.921875 0 
L 79.890625 0 
L 79.890625 32.71875 
Q 79.890625 40.578125 77.09375 44.375 
Q 74.3125 48.1875 68.609375 48.1875 
Q 61.625 48.1875 57.5625 43.546875 
Q 53.515625 38.921875 53.515625 30.90625 
L 53.515625 0 
L 44.484375 0 
L 44.484375 32.71875 
Q 44.484375 40.625 41.703125 44.40625 
Q 38.921875 48.1875 33.109375 48.1875 
Q 26.21875 48.1875 22.15625 43.53125 
Q 18.109375 38.875 18.109375 30.90625 
L 18.109375 0 
L 9.078125 0 
L 9.078125 54.6875 
L 18.109375 54.6875 
L 18.109375 46.1875 
Q 21.1875 51.21875 25.484375 53.609375 
Q 29.78125 56 35.6875 56 
Q 41.65625 56 45.828125 52.96875 
Q 50 49.953125 52 44.1875 
z
" id="DejaVuSans-109"/>
       <path d="M 54.890625 33.015625 
L 54.890625 0 
L 45.90625 0 
L 45.90625 32.71875 
Q 45.90625 40.484375 42.875 44.328125 
Q 39.84375 48.1875 33.796875 48.1875 
Q 26.515625 48.1875 22.3125 43.546875 
Q 18.109375 38.921875 18.109375 30.90625 
L 18.109375 0 
L 9.078125 0 
L 9.078125 54.6875 
L 18.109375 54.6875 
L 18.109375 46.1875 
Q 21.34375 51.125 25.703125 53.5625 
Q 30.078125 56 35.796875 56 
Q 45.21875 56 50.046875 50.171875 
Q 54.890625 44.34375 54.890625 33.015625 
z
" id="DejaVuSans-110"/>
       <path d="M 8.015625 75.875 
L 15.828125 75.875 
Q 23.140625 64.359375 26.78125 53.3125 
Q 30.421875 42.28125 30.421875 31.390625 
Q 30.421875 20.453125 26.78125 9.375 
Q 23.140625 -1.703125 15.828125 -13.1875 
L 8.015625 -13.1875 
Q 14.5 -2 17.703125 9.0625 
Q 20.90625 20.125 20.90625 31.390625 
Q 20.90625 42.671875 17.703125 53.65625 
Q 14.5 64.65625 8.015625 75.875 
z
" id="DejaVuSans-41"/>
      </defs>
      <use xlink:href="#DejaVuSans-108"/>
      <use x="27.783203" xlink:href="#DejaVuSans-111"/>
      <use x="88.964844" xlink:href="#DejaVuSans-103"/>
      <use x="152.441406" xlink:href="#DejaVuSans-49"/>
      <use x="216.064453" xlink:href="#DejaVuSans-48"/>
      <use x="279.6875" xlink:href="#DejaVuSans-40"/>
      <use x="318.701172" xlink:href="#DejaVuSans-35"/>
      <use x="402.490234" xlink:href="#DejaVuSans-32"/>
      <use x="434.277344" xlink:href="#DejaVuSans-102"/>
      <use x="463.982422" xlink:href="#DejaVuSans-45"/>
      <use x="500.066406" xlink:href="#DejaVuSans-101"/>
      <use x="561.589844" xlink:href="#DejaVuSans-118"/>
      <use x="620.769531" xlink:href="#DejaVuSans-97"/>
      <use x="682.048828" xlink:href="#DejaVuSans-108"/>
      <use x="709.832031" xlink:href="#DejaVuSans-115"/>
      <use x="761.931641" xlink:href="#DejaVuSans-32"/>
      <use x="793.71875" xlink:href="#DejaVuSans-47"/>
      <use x="827.410156" xlink:href="#DejaVuSans-32"/>
      <use x="859.197266" xlink:href="#DejaVuSans-100"/>
      <use x="922.673828" xlink:href="#DejaVuSans-105"/>
      <use x="950.457031" xlink:href="#DejaVuSans-109"/>
      <use x="1047.869141" xlink:href="#DejaVuSans-101"/>
      <use x="1109.392578" xlink:href="#DejaVuSans-110"/>
      <use x="1172.771484" xlink:href="#DejaVuSans-115"/>
      <use x="1224.871094" xlink:href="#DejaVuSans-105"/>
      <use x="1252.654297" xlink:href="#DejaVuSans-111"/>
      <use x="1313.835938" xlink:href="#DejaVuSans-110"/>
      <use x="1377.214844" xlink:href="#DejaVuSans-41"/>
     </g>
    </g>
   </g>
   <g id="matplotlib.axis_2">
    <g id="ytick_1">
     <g id="line2d_21">
      <path clip-path="url(#p58ebb24197)" d="M 57.6 298.944 
L 338.688 298.944 
" style="fill:none;stroke:#b0b0b0;stroke-linecap:square;stroke-width:0.8;"/>
     </g>
     <g id="line2d_22">
      <defs>
       <path d="M 0 0 
L -3.5 0 
" id="meabf03c64a" style="stroke:#000000;stroke-width:0.8;"/>
      </defs>
      <g>
       <use style="stroke:#000000;stroke-width:0.8;" x="57.6" xlink:href="#meabf03c64a" y="298.944"/>
      </g>
     </g>
     <g id="text_6">
      <!-- 0.0 -->
      <g transform="translate(25.155 305.02275)scale(0.16 -0.16)">
       <defs>
        <path d="M 10.6875 12.40625 
L 21 12.40625 
L 21 0 
L 10.6875 0 
z
" id="DejaVuSans-46"/>
       </defs>
       <use xlink:href="#DejaVuSans-48"/>
       <use x="63.623047" xlink:href="#DejaVuSans-46"/>
       <use x="95.410156" xlink:href="#DejaVuSans-48"/>
      </g>
     </g>
    </g>
    <g id="ytick_2">
     <g id="line2d_23">
      <path clip-path="url(#p58ebb24197)" d="M 57.6 245.22202 
L 338.688 245.22202 
" style="fill:none;stroke:#b0b0b0;stroke-linecap:square;stroke-width:0.8;"/>
     </g>
     <g id="line2d_24">
      <g>
       <use style="stroke:#000000;stroke-width:0.8;" x="57.6" xlink:href="#meabf03c64a" y="245.22202"/>
      </g>
     </g>
     <g id="text_7">
      <!-- 0.2 -->
      <g transform="translate(25.155 251.30077)scale(0.16 -0.16)">
       <use xlink:href="#DejaVuSans-48"/>
       <use x="63.623047" xlink:href="#DejaVuSans-46"/>
       <use x="95.410156" xlink:href="#DejaVuSans-50"/>
      </g>
     </g>
    </g>
    <g id="ytick_3">
     <g id="line2d_25">
      <path clip-path="url(#p58ebb24197)" d="M 57.6 191.50004 
L 338.688 191.50004 
" style="fill:none;stroke:#b0b0b0;stroke-linecap:square;stroke-width:0.8;"/>
     </g>
     <g id="line2d_26">
      <g>
       <use style="stroke:#000000;stroke-width:0.8;" x="57.6" xlink:href="#meabf03c64a" y="191.50004"/>
      </g>
     </g>
     <g id="text_8">
      <!-- 0.4 -->
      <g transform="translate(25.155 197.57879)scale(0.16 -0.16)">
       <use xlink:href="#DejaVuSans-48"/>
       <use x="63.623047" xlink:href="#DejaVuSans-46"/>
       <use x="95.410156" xlink:href="#DejaVuSans-52"/>
      </g>
     </g>
    </g>
    <g id="ytick_4">
     <g id="line2d_27">
      <path clip-path="url(#p58ebb24197)" d="M 57.6 137.778059 
L 338.688 137.778059 
" style="fill:none;stroke:#b0b0b0;stroke-linecap:square;stroke-width:0.8;"/>
     </g>
     <g id="line2d_28">
      <g>
       <use style="stroke:#000000;stroke-width:0.8;" x="57.6" xlink:href="#meabf03c64a" y="137.778059"/>
      </g>
     </g>
     <g id="text_9">
      <!-- 0.6 -->
      <g transform="translate(25.155 143.856809)scale(0.16 -0.16)">
       <use xlink:href="#DejaVuSans-48"/>
       <use x="63.623047" xlink:href="#DejaVuSans-46"/>
       <use x="95.410156" xlink:href="#DejaVuSans-54"/>
      </g>
     </g>
    </g>
    <g id="ytick_5">
     <g id="line2d_29">
      <path clip-path="url(#p58ebb24197)" d="M 57.6 84.056079 
L 338.688 84.056079 
" style="fill:none;stroke:#b0b0b0;stroke-linecap:square;stroke-width:0.8;"/>
     </g>
     <g id="line2d_30">
      <g>
       <use style="stroke:#000000;stroke-width:0.8;" x="57.6" xlink:href="#meabf03c64a" y="84.056079"/>
      </g>
     </g>
     <g id="text_10">
      <!-- 0.8 -->
      <g transform="translate(25.155 90.134829)scale(0.16 -0.16)">
       <defs>
        <path d="M 31.78125 34.625 
Q 24.75 34.625 20.71875 30.859375 
Q 16.703125 27.09375 16.703125 20.515625 
Q 16.703125 13.921875 20.71875 10.15625 
Q 24.75 6.390625 31.78125 6.390625 
Q 38.8125 6.390625 42.859375 10.171875 
Q 46.921875 13.96875 46.921875 20.515625 
Q 46.921875 27.09375 42.890625 30.859375 
Q 38.875 34.625 31.78125 34.625 
z
M 21.921875 38.8125 
Q 15.578125 40.375 12.03125 44.71875 
Q 8.5 49.078125 8.5 55.328125 
Q 8.5 64.0625 14.71875 69.140625 
Q 20.953125 74.21875 31.78125 74.21875 
Q 42.671875 74.21875 48.875 69.140625 
Q 55.078125 64.0625 55.078125 55.328125 
Q 55.078125 49.078125 51.53125 44.71875 
Q 48 40.375 41.703125 38.8125 
Q 48.828125 37.15625 52.796875 32.3125 
Q 56.78125 27.484375 56.78125 20.515625 
Q 56.78125 9.90625 50.3125 4.234375 
Q 43.84375 -1.421875 31.78125 -1.421875 
Q 19.734375 -1.421875 13.25 4.234375 
Q 6.78125 9.90625 6.78125 20.515625 
Q 6.78125 27.484375 10.78125 32.3125 
Q 14.796875 37.15625 21.921875 38.8125 
z
M 18.3125 54.390625 
Q 18.3125 48.734375 21.84375 45.5625 
Q 25.390625 42.390625 31.78125 42.390625 
Q 38.140625 42.390625 41.71875 45.5625 
Q 45.3125 48.734375 45.3125 54.390625 
Q 45.3125 60.0625 41.71875 63.234375 
Q 38.140625 66.40625 31.78125 66.40625 
Q 25.390625 66.40625 21.84375 63.234375 
Q 18.3125 60.0625 18.3125 54.390625 
z
" id="DejaVuSans-56"/>
       </defs>
       <use xlink:href="#DejaVuSans-48"/>
       <use x="63.623047" xlink:href="#DejaVuSans-46"/>
       <use x="95.410156" xlink:href="#DejaVuSans-56"/>
      </g>
     </g>
    </g>
    <g id="ytick_6">
     <g id="line2d_31">
      <path clip-path="url(#p58ebb24197)" d="M 57.6 30.334099 
L 338.688 30.334099 
" style="fill:none;stroke:#b0b0b0;stroke-linecap:square;stroke-width:0.8;"/>
     </g>
     <g id="line2d_32">
      <g>
       <use style="stroke:#000000;stroke-width:0.8;" x="57.6" xlink:href="#meabf03c64a" y="30.334099"/>
      </g>
     </g>
     <g id="text_11">
      <!-- 1.0 -->
      <g transform="translate(25.155 36.412849)scale(0.16 -0.16)">
       <use xlink:href="#DejaVuSans-49"/>
       <use x="63.623047" xlink:href="#DejaVuSans-46"/>
       <use x="95.410156" xlink:href="#DejaVuSans-48"/>
      </g>
     </g>
    </g>
    <g id="text_12">
     <!-- Fraction of function,target pairs -->
     <g transform="translate(17.619531 297.681)rotate(-90)scale(0.17 -0.17)">
      <defs>
       <path d="M 9.8125 72.90625 
L 51.703125 72.90625 
L 51.703125 64.59375 
L 19.671875 64.59375 
L 19.671875 43.109375 
L 48.578125 43.109375 
L 48.578125 34.8125 
L 19.671875 34.8125 
L 19.671875 0 
L 9.8125 0 
z
" id="DejaVuSans-70"/>
       <path d="M 41.109375 46.296875 
Q 39.59375 47.171875 37.8125 47.578125 
Q 36.03125 48 33.890625 48 
Q 26.265625 48 22.1875 43.046875 
Q 18.109375 38.09375 18.109375 28.8125 
L 18.109375 0 
L 9.078125 0 
L 9.078125 54.6875 
L 18.109375 54.6875 
L 18.109375 46.1875 
Q 20.953125 51.171875 25.484375 53.578125 
Q 30.03125 56 36.53125 56 
Q 37.453125 56 38.578125 55.875 
Q 39.703125 55.765625 41.0625 55.515625 
z
" id="DejaVuSans-114"/>
       <path d="M 48.78125 52.59375 
L 48.78125 44.1875 
Q 44.96875 46.296875 41.140625 47.34375 
Q 37.3125 48.390625 33.40625 48.390625 
Q 24.65625 48.390625 19.8125 42.84375 
Q 14.984375 37.3125 14.984375 27.296875 
Q 14.984375 17.28125 19.8125 11.734375 
Q 24.65625 6.203125 33.40625 6.203125 
Q 37.3125 6.203125 41.140625 7.25 
Q 44.96875 8.296875 48.78125 10.40625 
L 48.78125 2.09375 
Q 45.015625 0.34375 40.984375 -0.53125 
Q 36.96875 -1.421875 32.421875 -1.421875 
Q 20.0625 -1.421875 12.78125 6.34375 
Q 5.515625 14.109375 5.515625 27.296875 
Q 5.515625 40.671875 12.859375 48.328125 
Q 20.21875 56 33.015625 56 
Q 37.15625 56 41.109375 55.140625 
Q 45.0625 54.296875 48.78125 52.59375 
z
" id="DejaVuSans-99"/>
       <path d="M 18.3125 70.21875 
L 18.3125 54.6875 
L 36.8125 54.6875 
L 36.8125 47.703125 
L 18.3125 47.703125 
L 18.3125 18.015625 
Q 18.3125 11.328125 20.140625 9.421875 
Q 21.96875 7.515625 27.59375 7.515625 
L 36.8125 7.515625 
L 36.8125 0 
L 27.59375 0 
Q 17.1875 0 13.234375 3.875 
Q 9.28125 7.765625 9.28125 18.015625 
L 9.28125 47.703125 
L 2.6875 47.703125 
L 2.6875 54.6875 
L 9.28125 54.6875 
L 9.28125 70.21875 
z
" id="DejaVuSans-116"/>
       <path d="M 8.5 21.578125 
L 8.5 54.6875 
L 17.484375 54.6875 
L 17.484375 21.921875 
Q 17.484375 14.15625 20.5 10.265625 
Q 23.53125 6.390625 29.59375 6.390625 
Q 36.859375 6.390625 41.078125 11.03125 
Q 45.3125 15.671875 45.3125 23.6875 
L 45.3125 54.6875 
L 54.296875 54.6875 
L 54.296875 0 
L 45.3125 0 
L 45.3125 8.40625 
Q 42.046875 3.421875 37.71875 1 
Q 33.40625 -1.421875 27.6875 -1.421875 
Q 18.265625 -1.421875 13.375 4.4375 
Q 8.5 10.296875 8.5 21.578125 
z
M 31.109375 56 
z
" id="DejaVuSans-117"/>
       <path d="M 11.71875 12.40625 
L 22.015625 12.40625 
L 22.015625 4 
L 14.015625 -11.625 
L 7.71875 -11.625 
L 11.71875 4 
z
" id="DejaVuSans-44"/>
       <path d="M 18.109375 8.203125 
L 18.109375 -20.796875 
L 9.078125 -20.796875 
L 9.078125 54.6875 
L 18.109375 54.6875 
L 18.109375 46.390625 
Q 20.953125 51.265625 25.265625 53.625 
Q 29.59375 56 35.59375 56 
Q 45.5625 56 51.78125 48.09375 
Q 58.015625 40.1875 58.015625 27.296875 
Q 58.015625 14.40625 51.78125 6.484375 
Q 45.5625 -1.421875 35.59375 -1.421875 
Q 29.59375 -1.421875 25.265625 0.953125 
Q 20.953125 3.328125 18.109375 8.203125 
z
M 48.6875 27.296875 
Q 48.6875 37.203125 44.609375 42.84375 
Q 40.53125 48.484375 33.40625 48.484375 
Q 26.265625 48.484375 22.1875 42.84375 
Q 18.109375 37.203125 18.109375 27.296875 
Q 18.109375 17.390625 22.1875 11.75 
Q 26.265625 6.109375 33.40625 6.109375 
Q 40.53125 6.109375 44.609375 11.75 
Q 48.6875 17.390625 48.6875 27.296875 
z
" id="DejaVuSans-112"/>
      </defs>
      <use xlink:href="#DejaVuSans-70"/>
      <use x="50.269531" xlink:href="#DejaVuSans-114"/>
      <use x="91.382812" xlink:href="#DejaVuSans-97"/>
      <use x="152.662109" xlink:href="#DejaVuSans-99"/>
      <use x="207.642578" xlink:href="#DejaVuSans-116"/>
      <use x="246.851562" xlink:href="#DejaVuSans-105"/>
      <use x="274.634766" xlink:href="#DejaVuSans-111"/>
      <use x="335.816406" xlink:href="#DejaVuSans-110"/>
      <use x="399.195312" xlink:href="#DejaVuSans-32"/>
      <use x="430.982422" xlink:href="#DejaVuSans-111"/>
      <use x="492.164062" xlink:href="#DejaVuSans-102"/>
      <use x="527.369141" xlink:href="#DejaVuSans-32"/>
      <use x="559.15625" xlink:href="#DejaVuSans-102"/>
      <use x="594.361328" xlink:href="#DejaVuSans-117"/>
      <use x="657.740234" xlink:href="#DejaVuSans-110"/>
      <use x="721.119141" xlink:href="#DejaVuSans-99"/>
      <use x="776.099609" xlink:href="#DejaVuSans-116"/>
      <use x="815.308594" xlink:href="#DejaVuSans-105"/>
      <use x="843.091797" xlink:href="#DejaVuSans-111"/>
      <use x="904.273438" xlink:href="#DejaVuSans-110"/>
      <use x="967.652344" xlink:href="#DejaVuSans-44"/>
      <use x="999.439453" xlink:href="#DejaVuSans-116"/>
      <use x="1038.648438" xlink:href="#DejaVuSans-97"/>
      <use x="1099.927734" xlink:href="#DejaVuSans-114"/>
      <use x="1139.291016" xlink:href="#DejaVuSans-103"/>
      <use x="1202.767578" xlink:href="#DejaVuSans-101"/>
      <use x="1264.291016" xlink:href="#DejaVuSans-116"/>
      <use x="1303.5" xlink:href="#DejaVuSans-32"/>
      <use x="1335.287109" xlink:href="#DejaVuSans-112"/>
      <use x="1398.763672" xlink:href="#DejaVuSans-97"/>
      <use x="1460.042969" xlink:href="#DejaVuSans-105"/>
      <use x="1487.826172" xlink:href="#DejaVuSans-114"/>
      <use x="1528.939453" xlink:href="#DejaVuSans-115"/>
     </g>
    </g>
   </g>
   <g id="line2d_33">
    <defs>
     <path d="M 0 1.5 
C 0.397805 1.5 0.77937 1.341951 1.06066 1.06066 
C 1.341951 0.77937 1.5 0.397805 1.5 0 
C 1.5 -0.397805 1.341951 -0.77937 1.06066 -1.06066 
C 0.77937 -1.341951 0.397805 -1.5 0 -1.5 
C -0.397805 -1.5 -0.77937 -1.341951 -1.06066 -1.06066 
C -1.341951 -0.77937 -1.5 -0.397805 -1.5 0 
C -1.5 0.397805 -1.341951 0.77937 -1.06066 1.06066 
C -0.77937 1.341951 -0.397805 1.5 0 1.5 
z
" id="mc495637fb2" style="stroke:#f5deb3;"/>
    </defs>
    <g>
     <use style="fill:#f5deb3;stroke:#f5deb3;" x="310.707782" xlink:href="#mc495637fb2" y="62.752535"/>
     <use style="fill:#f5deb3;stroke:#f5deb3;" x="310.707782" xlink:href="#mc495637fb2" y="62.752535"/>
    </g>
   </g>
   <g id="line2d_34">
    <defs>
     <path d="M 0 1.5 
C 0.397805 1.5 0.77937 1.341951 1.06066 1.06066 
C 1.341951 0.77937 1.5 0.397805 1.5 0 
C 1.5 -0.397805 1.341951 -0.77937 1.06066 -1.06066 
C 0.77937 -1.341951 0.397805 -1.5 0 -1.5 
C -0.397805 -1.5 -0.77937 -1.341951 -1.06066 -1.06066 
C -1.341951 -0.77937 -1.5 -0.397805 -1.5 0 
C -1.5 0.397805 -1.341951 0.77937 -1.06066 1.06066 
C -0.77937 1.341951 -0.397805 1.5 0 1.5 
z
" id="m70938882d4" style="stroke:#000080;"/>
    </defs>
    <g>
     <use style="fill:#000080;stroke:#000080;" x="246.082853" xlink:href="#m70938882d4" y="140.556783"/>
     <use style="fill:#000080;stroke:#000080;" x="246.082853" xlink:href="#m70938882d4" y="140.556783"/>
    </g>
   </g>
   <g id="line2d_35">
    <path d="M 38.440992 298.944 
L 38.440992 290.14471 
L 50.52898 290.14471 
L 50.52898 288.292228 
L 57.6 288.292228 
L 57.6 287.365987 
L 62.616969 287.365987 
L 62.616969 285.050384 
L 69.687988 285.050384 
L 69.687988 284.587264 
L 74.704957 284.587264 
L 74.704957 284.124143 
L 78.59642 284.124143 
L 78.59642 283.661023 
L 81.775977 283.661023 
L 81.775977 282.734782 
L 83.171864 282.734782 
L 83.171864 277.177336 
L 86.792945 277.177336 
L 86.792945 275.787974 
L 88.846997 275.787974 
L 88.846997 273.009251 
L 89.78989 273.009251 
L 89.78989 272.08301 
L 100.934985 272.08301 
L 100.934985 271.156769 
L 101.412804 271.156769 
L 101.412804 270.230528 
L 102.772397 270.230528 
L 102.772397 269.304287 
L 103.203018 269.304287 
L 103.203018 267.914925 
L 105.951954 267.914925 
L 105.951954 267.451805 
L 108.006005 267.451805 
L 108.006005 266.988684 
L 111.767808 266.988684 
L 111.767808 265.599323 
L 113.26352 265.599323 
L 113.26352 264.673082 
L 114.193835 264.673082 
L 114.193835 263.28372 
L 116.323218 263.28372 
L 116.323218 262.8206 
L 117.857331 262.8206 
L 117.857331 262.357479 
L 120.728219 262.357479 
L 120.728219 261.431238 
L 120.883236 261.431238 
L 120.883236 260.968117 
L 121.931406 260.968117 
L 121.931406 260.504997 
L 123.725164 260.504997 
L 123.725164 260.041876 
L 126.618283 260.041876 
L 126.618283 259.578756 
L 128.107907 259.578756 
L 128.107907 259.115635 
L 130.576266 259.115635 
L 130.576266 258.652515 
L 131.013364 258.652515 
L 131.013364 257.726274 
L 134.236034 257.726274 
L 134.236034 257.263153 
L 134.37898 257.263153 
L 134.37898 256.800033 
L 141.33096 256.800033 
L 141.33096 256.336912 
L 143.187472 256.336912 
L 143.187472 255.873792 
L 143.358447 255.873792 
L 143.40093 254.48443 
L 147.636905 254.48443 
L 147.636905 253.558189 
L 148.290138 253.558189 
L 148.290138 252.631948 
L 149.764758 252.631948 
L 149.764758 252.168828 
L 150.710752 252.168828 
L 150.710752 251.242587 
L 154.212841 251.242587 
L 154.212841 250.316346 
L 156.114049 250.316346 
L 156.114049 249.853225 
L 156.776762 249.853225 
L 156.776762 249.390104 
L 157.883783 249.390104 
L 157.883783 248.463863 
L 158.376091 248.463863 
L 158.376091 248.000743 
L 158.714382 248.000743 
L 158.714382 247.074502 
L 158.854881 247.074502 
L 158.854881 246.611381 
L 159.26971 246.611381 
L 159.26971 246.148261 
L 160.836873 246.148261 
L 160.836873 243.832658 
L 161.329454 243.832658 
L 161.329454 242.906417 
L 162.489076 242.906417 
L 162.489076 242.443297 
L 162.840544 242.443297 
L 162.840544 241.980176 
L 163.788565 241.980176 
L 163.788565 241.517056 
L 164.231078 241.517056 
L 164.231078 241.053935 
L 166.335035 241.053935 
L 166.335035 240.127694 
L 167.244924 240.127694 
L 167.244924 239.201453 
L 169.254471 239.201453 
L 169.254471 238.275212 
L 169.739058 238.275212 
L 169.739058 237.812091 
L 173.636143 237.812091 
L 173.643636 235.959609 
L 174.914609 235.959609 
L 174.914609 235.033368 
L 175.830357 235.033368 
L 175.830357 234.570248 
L 176.261139 234.570248 
L 176.261139 234.107127 
L 179.175434 234.107127 
L 179.175434 233.180886 
L 179.300447 233.180886 
L 179.300447 232.254645 
L 179.901953 232.254645 
L 179.901953 231.791525 
L 180.356423 231.791525 
L 180.356423 230.865284 
L 181.075464 230.865284 
L 181.075464 230.402163 
L 182.912387 230.402163 
L 182.947573 229.012802 
L 183.708446 229.012802 
L 183.708446 228.086561 
L 185.558472 228.086561 
L 185.558472 227.16032 
L 187.047809 227.16032 
L 187.047809 226.234079 
L 188.458385 226.234079 
L 188.458385 225.307837 
L 188.573327 225.307837 
L 188.573327 224.381596 
L 188.866803 224.381596 
L 188.866803 222.529114 
L 189.031869 222.529114 
L 189.031869 221.602873 
L 189.626084 221.602873 
L 189.626084 221.139753 
L 190.287465 221.139753 
L 190.287465 220.676632 
L 190.63869 220.676632 
L 190.63869 220.213512 
L 191.271603 220.213512 
L 191.271603 219.750391 
L 192.91465 219.750391 
L 192.91465 218.82415 
L 193.617325 218.82415 
L 193.617325 217.897909 
L 194.792209 217.897909 
L 194.792209 217.434789 
L 195.110098 217.434789 
L 195.110098 216.971668 
L 196.474995 216.971668 
L 196.474995 216.508548 
L 196.84329 216.508548 
L 196.84329 216.045427 
L 197.448631 216.045427 
L 197.448631 215.582307 
L 197.625642 215.582307 
L 197.625642 214.656066 
L 198.035513 214.656066 
L 198.035513 214.192945 
L 200.121597 214.192945 
L 200.121597 213.266704 
L 200.294701 213.266704 
L 200.294701 212.803583 
L 201.198723 212.803583 
L 201.198723 211.877342 
L 202.191324 211.877342 
L 202.191324 210.951101 
L 202.44598 210.951101 
L 202.44598 210.487981 
L 204.469841 210.487981 
L 204.469841 210.02486 
L 204.613773 210.02486 
L 204.613773 209.098619 
L 205.171768 209.098619 
L 205.171768 208.172378 
L 205.727938 208.172378 
L 205.773099 206.783017 
L 206.389936 206.783017 
L 206.389936 205.856776 
L 206.643565 205.856776 
L 206.643565 204.930535 
L 207.480176 204.930535 
L 207.480176 204.467414 
L 208.036239 204.467414 
L 208.098674 203.078053 
L 208.33801 203.078053 
L 208.33801 202.151812 
L 208.735088 202.151812 
L 208.735088 201.225571 
L 209.826886 201.225571 
L 209.826886 200.299329 
L 209.945951 200.299329 
L 209.945951 199.373088 
L 210.213904 199.373088 
L 210.213904 198.909968 
L 210.458759 198.909968 
L 210.518535 197.520606 
L 210.92868 197.520606 
L 210.92868 197.057486 
L 212.399743 197.057486 
L 212.399743 196.594365 
L 212.72781 196.594365 
L 212.72781 196.131245 
L 212.877715 196.131245 
L 212.930549 194.278763 
L 213.28594 194.278763 
L 213.28594 193.815642 
L 213.473172 193.815642 
L 213.574389 192.426281 
L 213.992754 192.426281 
L 213.992754 191.96316 
L 214.162319 191.96316 
L 214.162319 191.50004 
L 214.530377 191.50004 
L 214.530377 191.036919 
L 215.234322 191.036919 
L 215.29493 190.110678 
L 215.516959 190.110678 
L 215.516959 189.647558 
L 215.63333 189.647558 
L 215.63333 189.184437 
L 215.969257 189.184437 
L 215.969257 188.721316 
L 216.143012 188.721316 
L 216.143012 188.258196 
L 216.507235 188.258196 
L 216.507235 187.795075 
L 217.971712 187.795075 
L 217.971712 186.868834 
L 218.14014 186.868834 
L 218.14014 186.405714 
L 219.741116 186.405714 
L 219.741116 185.942593 
L 219.890724 185.942593 
L 219.912369 184.553232 
L 220.667148 184.553232 
L 220.667148 184.090111 
L 220.984075 184.090111 
L 220.984075 183.626991 
L 221.602115 183.626991 
L 221.602115 183.16387 
L 221.898403 183.16387 
L 221.898403 182.70075 
L 222.322582 182.70075 
L 222.351965 180.848268 
L 222.514056 180.848268 
L 222.514056 179.922027 
L 222.889921 179.922027 
L 222.889921 178.995786 
L 223.010044 178.995786 
L 223.062972 177.606424 
L 223.613068 177.606424 
L 223.692258 176.680183 
L 223.899592 176.680183 
L 223.899592 176.217062 
L 224.038401 176.217062 
L 224.097021 175.290821 
L 224.243742 175.290821 
L 224.244565 173.90146 
L 224.607048 173.90146 
L 224.607048 173.438339 
L 224.724352 173.438339 
L 224.724352 172.975219 
L 225.094353 172.975219 
L 225.11394 172.048978 
L 225.413614 172.048978 
L 225.495015 170.659616 
L 225.759237 170.659616 
L 225.759237 170.196496 
L 226.014683 170.196496 
L 226.014683 169.733375 
L 226.209541 169.733375 
L 226.209541 168.807134 
L 226.41715 168.807134 
L 226.41715 167.880893 
L 226.608306 167.880893 
L 226.608306 167.417773 
L 226.890283 167.417773 
L 226.890283 166.954652 
L 227.394946 166.954652 
L 227.493603 165.10217 
L 227.989646 165.10217 
L 228.097877 163.249688 
L 228.199209 163.249688 
L 228.199209 162.786567 
L 228.644539 162.786567 
L 228.644539 162.323447 
L 228.811618 162.323447 
L 228.811618 161.860326 
L 228.967069 161.860326 
L 228.967069 161.397206 
L 229.176445 161.397206 
L 229.176445 160.470965 
L 230.095341 160.470965 
L 230.095341 160.007844 
L 230.435393 160.007844 
L 230.532944 158.618483 
L 230.576507 158.618483 
L 230.608251 157.229121 
L 230.818978 157.229121 
L 230.818978 156.766001 
L 231.150877 156.766001 
L 231.150877 156.30288 
L 231.405209 156.30288 
L 231.405209 155.83976 
L 231.958892 155.83976 
L 231.958892 155.376639 
L 232.172818 155.376639 
L 232.280104 153.987278 
L 233.090164 153.987278 
L 233.15596 152.134795 
L 233.324995 152.134795 
L 233.324995 151.671675 
L 233.438564 151.671675 
L 233.438564 150.745434 
L 233.653671 150.745434 
L 233.653671 150.282313 
L 234.639952 150.282313 
L 234.639952 149.819193 
L 234.753634 149.819193 
L 234.800653 148.892952 
L 234.956101 148.892952 
L 234.956101 147.966711 
L 235.750699 147.966711 
L 235.750699 147.50359 
L 236.368527 147.50359 
L 236.368527 147.04047 
L 236.55826 147.04047 
L 236.55826 146.577349 
L 236.910357 146.577349 
L 236.910357 145.651108 
L 237.231855 145.651108 
L 237.231855 145.187988 
L 239.203828 145.187988 
L 239.298345 143.798626 
L 240.598507 143.798626 
L 240.598507 143.335506 
L 241.682151 143.335506 
L 241.682151 142.409265 
L 242.107247 142.409265 
L 242.107247 141.946144 
L 243.828021 141.946144 
L 243.828021 141.019903 
L 246.082853 141.019903 
L 246.082853 140.556783 
L 338.688 140.556783 
L 338.688 140.556783 
" style="fill:none;stroke:#000080;stroke-linecap:square;stroke-width:1.5;"/>
   </g>
   <g id="line2d_36">
    <defs>
     <path d="M 0 6 
C 1.591219 6 3.117479 5.367802 4.242641 4.242641 
C 5.367802 3.117479 6 1.591219 6 0 
C 6 -1.591219 5.367802 -3.117479 4.242641 -4.242641 
C 3.117479 -5.367802 1.591219 -6 0 -6 
C -1.591219 -6 -3.117479 -5.367802 -4.242641 -4.242641 
C -5.367802 -3.117479 -6 -1.591219 -6 0 
C -6 1.591219 -5.367802 3.117479 -4.242641 4.242641 
C -3.117479 5.367802 -1.591219 6 0 6 
z
" id="m73aba1ab53" style="stroke:#000080;stroke-width:1.5;"/>
    </defs>
    <g>
     <use style="fill-opacity:0;stroke:#000080;stroke-width:1.5;" x="105.951954" xlink:href="#m73aba1ab53" y="267.451805"/>
     <use style="fill-opacity:0;stroke:#000080;stroke-width:1.5;" x="193.617325" xlink:href="#m73aba1ab53" y="217.897909"/>
     <use style="fill-opacity:0;stroke:#000080;stroke-width:1.5;" x="228.199209" xlink:href="#m73aba1ab53" y="163.249688"/>
     <use style="fill-opacity:0;stroke:#000080;stroke-width:1.5;" x="246.082853" xlink:href="#m73aba1ab53" y="140.556783"/>
     <use style="fill-opacity:0;stroke:#000080;stroke-width:1.5;" x="246.082853" xlink:href="#m73aba1ab53" y="140.556783"/>
     <use style="fill-opacity:0;stroke:#000080;stroke-width:1.5;" x="338.688" xlink:href="#m73aba1ab53" y="140.556783"/>
    </g>
   </g>
   <g id="line2d_37">
    <path style="fill:none;stroke:#000080;stroke-linecap:square;stroke-width:1.5;"/>
    <g/>
   </g>
   <g id="line2d_38">
    <path clip-path="url(#p58ebb24197)" d="M 258.377608 140.556783 
" style="fill:none;stroke:#000080;stroke-linecap:square;stroke-width:1.5;"/>
    <defs>
     <path d="M -12 12 
L 12 -12 
M -12 -12 
L 12 12 
" id="mb8aa38c451" style="stroke:#000080;"/>
    </defs>
    <g clip-path="url(#p58ebb24197)">
     <use style="fill:#000080;stroke:#000080;" x="258.377608" xlink:href="#mb8aa38c451" y="140.556783"/>
    </g>
   </g>
   <g id="line2d_39">
    <defs>
     <path d="M 0 1.5 
C 0.397805 1.5 0.77937 1.341951 1.06066 1.06066 
C 1.341951 0.77937 1.5 0.397805 1.5 0 
C 1.5 -0.397805 1.341951 -0.77937 1.06066 -1.06066 
C 0.77937 -1.341951 0.397805 -1.5 0 -1.5 
C -0.397805 -1.5 -0.77937 -1.341951 -1.06066 -1.06066 
C -1.341951 -0.77937 -1.5 -0.397805 -1.5 0 
C -1.5 0.397805 -1.341951 0.77937 -1.06066 1.06066 
C -0.77937 1.341951 -0.397805 1.5 0 1.5 
z
" id="m326a974b10" style="stroke:#ff00ff;"/>
    </defs>
    <g>
     <use style="fill:#ff00ff;stroke:#ff00ff;" x="258.237243" xlink:href="#m326a974b10" y="155.376639"/>
     <use style="fill:#ff00ff;stroke:#ff00ff;" x="258.237243" xlink:href="#m326a974b10" y="155.376639"/>
    </g>
   </g>
   <g id="line2d_40">
    <path d="M 38.440992 298.944 
L 38.440992 290.607831 
L 139.939053 290.607831 
L 139.939053 289.68159 
L 144.148442 289.68159 
L 144.148442 288.755349 
L 144.310293 288.755349 
L 144.310293 288.292228 
L 147.096109 288.292228 
L 147.096109 286.902867 
L 147.334773 286.902867 
L 147.334773 285.976625 
L 147.901141 285.976625 
L 147.901141 285.513505 
L 148.129109 285.513505 
L 148.129109 285.050384 
L 148.857832 285.050384 
L 148.857832 284.587264 
L 150.085825 284.587264 
L 150.143571 282.271661 
L 150.287105 282.271661 
L 150.287105 281.808541 
L 150.401087 281.808541 
L 150.401087 280.419179 
L 150.822008 280.419179 
L 150.822008 279.956059 
L 150.960087 279.956059 
L 150.960087 279.029818 
L 151.260066 279.029818 
L 151.287083 275.787974 
L 151.475037 275.787974 
L 151.475037 273.935492 
L 152.736878 273.935492 
L 152.736878 273.009251 
L 152.934492 273.009251 
L 153.032466 270.693648 
L 153.250915 270.693648 
L 153.250915 270.230528 
L 153.561699 270.230528 
L 153.585377 267.914925 
L 154.098334 267.914925 
L 154.098334 267.451805 
L 154.417077 267.451805 
L 154.46214 264.673082 
L 154.57429 264.673082 
L 154.57429 263.746841 
L 155.0376 263.746841 
L 155.0376 263.28372 
L 155.210911 263.28372 
L 155.210911 262.8206 
L 155.531298 262.8206 
L 155.531298 262.357479 
L 155.825108 262.357479 
L 155.908152 260.968117 
L 155.949527 260.968117 
L 156.011405 259.578756 
L 156.337763 259.578756 
L 156.337763 258.189394 
L 156.618401 258.189394 
L 156.638275 257.263153 
L 157.166482 257.263153 
L 157.166482 256.800033 
L 157.358125 256.800033 
L 157.358125 256.336912 
L 157.509937 256.336912 
L 157.509937 255.873792 
L 157.622935 255.873792 
L 157.622935 255.410671 
L 157.883783 255.410671 
L 157.883783 254.947551 
L 158.39406 254.947551 
L 158.39406 254.02131 
L 158.643706 254.02131 
L 158.643706 253.558189 
L 158.976895 253.558189 
L 159.0116 252.631948 
L 159.218393 252.631948 
L 159.218393 251.705707 
L 159.524055 251.705707 
L 159.524055 250.779466 
L 159.641491 250.779466 
L 159.724893 247.537622 
L 160.426146 247.537622 
L 160.426146 246.611381 
L 160.69579 246.611381 
L 160.80562 244.295779 
L 160.961329 244.295779 
L 160.961329 243.832658 
L 161.222884 243.832658 
L 161.222884 243.369538 
L 161.585586 243.369538 
L 161.585586 242.443297 
L 161.778945 242.443297 
L 161.867469 240.590815 
L 162.403659 240.590815 
L 162.489076 238.738333 
L 162.672723 238.738333 
L 162.672723 238.275212 
L 163.048075 238.275212 
L 163.048075 237.348971 
L 163.361568 237.348971 
L 163.361568 235.496489 
L 163.880593 235.496489 
L 163.880593 234.570248 
L 164.243924 234.570248 
L 164.243924 233.644007 
L 164.712717 233.644007 
L 164.712717 232.717766 
L 164.985598 232.717766 
L 164.985598 232.254645 
L 165.205733 232.254645 
L 165.230021 230.865284 
L 165.411116 230.865284 
L 165.435121 228.549681 
L 165.708824 228.549681 
L 165.708824 228.086561 
L 166.684622 228.086561 
L 166.684622 227.62344 
L 166.895472 227.62344 
L 166.895472 227.16032 
L 167.158215 227.16032 
L 167.158215 226.234079 
L 167.661564 226.234079 
L 167.661564 225.307837 
L 167.871425 225.307837 
L 167.871425 224.844717 
L 168.854895 224.844717 
L 168.933583 222.529114 
L 169.503198 222.529114 
L 169.503198 221.602873 
L 169.934746 221.602873 
L 169.962523 220.676632 
L 170.660731 220.676632 
L 170.660731 219.750391 
L 170.846398 219.750391 
L 170.899085 218.36103 
L 171.203291 218.36103 
L 171.203291 217.897909 
L 171.986738 217.897909 
L 171.986738 217.434789 
L 172.482136 217.434789 
L 172.482136 216.971668 
L 174.26903 216.971668 
L 174.26903 216.045427 
L 174.577064 216.045427 
L 174.577064 215.582307 
L 174.767737 215.582307 
L 174.767737 214.656066 
L 177.408792 214.656066 
L 177.408792 213.729825 
L 177.523109 213.729825 
L 177.523109 212.803583 
L 177.814514 212.803583 
L 177.814514 211.877342 
L 177.973027 211.877342 
L 178.025547 210.487981 
L 178.268566 210.487981 
L 178.325932 209.56174 
L 179.071482 209.56174 
L 179.071482 208.635499 
L 179.611776 208.635499 
L 179.611776 207.709258 
L 181.026478 207.709258 
L 181.026478 206.783017 
L 182.21625 206.783017 
L 182.21625 205.856776 
L 183.518129 205.856776 
L 183.518129 204.930535 
L 184.4778 204.930535 
L 184.4778 204.467414 
L 184.614108 204.467414 
L 184.614108 204.004294 
L 187.09983 204.004294 
L 187.09983 203.078053 
L 187.872026 203.078053 
L 187.872026 202.614932 
L 189.514881 202.614932 
L 189.514881 202.151812 
L 190.740163 202.151812 
L 190.740163 201.688691 
L 191.670479 201.688691 
L 191.670479 200.76245 
L 191.895505 200.76245 
L 191.895505 199.836209 
L 192.84006 199.836209 
L 192.907206 198.446847 
L 194.608565 198.446847 
L 194.608565 197.983727 
L 195.140697 197.983727 
L 195.140697 197.520606 
L 195.357714 197.520606 
L 195.357714 197.057486 
L 196.205909 197.057486 
L 196.205909 196.594365 
L 197.955792 196.594365 
L 197.955792 196.131245 
L 199.57819 196.131245 
L 199.57819 195.205004 
L 202.427297 195.205004 
L 202.427297 194.741883 
L 204.335025 194.741883 
L 204.335025 193.815642 
L 205.0076 193.815642 
L 205.0076 193.352522 
L 205.781405 193.352522 
L 205.781405 192.889401 
L 205.998338 192.889401 
L 205.998338 191.96316 
L 206.354384 191.96316 
L 206.354384 191.50004 
L 206.946904 191.50004 
L 207.031034 190.573799 
L 207.182767 190.573799 
L 207.182767 189.647558 
L 207.365721 189.647558 
L 207.365721 189.184437 
L 208.44526 189.184437 
L 208.44526 188.721316 
L 209.032982 188.721316 
L 209.032982 188.258196 
L 209.405081 188.258196 
L 209.405081 187.331955 
L 210.181671 187.331955 
L 210.181671 186.405714 
L 210.342242 186.405714 
L 210.342242 185.942593 
L 210.825046 185.942593 
L 210.825046 185.479473 
L 212.42894 185.479473 
L 212.42894 185.016352 
L 213.126287 185.016352 
L 213.126287 184.090111 
L 215.334076 184.090111 
L 215.334076 183.626991 
L 216.281951 183.626991 
L 216.281951 183.16387 
L 216.620388 183.16387 
L 216.620388 182.70075 
L 217.37547 182.70075 
L 217.37547 182.237629 
L 217.541872 182.237629 
L 217.541872 181.774509 
L 219.064273 181.774509 
L 219.064273 180.848268 
L 219.515889 180.848268 
L 219.515889 180.385147 
L 219.684013 180.385147 
L 219.684013 179.922027 
L 221.009361 179.922027 
L 221.009361 178.995786 
L 221.252892 178.995786 
L 221.252892 178.532665 
L 221.854091 178.532665 
L 221.854091 178.069545 
L 222.184185 178.069545 
L 222.184185 177.606424 
L 222.7039 177.606424 
L 222.7039 177.143304 
L 224.212023 177.143304 
L 224.212023 176.680183 
L 224.499498 176.680183 
L 224.499498 176.217062 
L 225.181544 176.217062 
L 225.181544 175.290821 
L 225.767913 175.290821 
L 225.767913 174.827701 
L 227.945099 174.827701 
L 227.945099 173.90146 
L 228.361816 173.90146 
L 228.361816 173.438339 
L 229.022544 173.438339 
L 229.022544 172.975219 
L 229.66458 172.975219 
L 229.66458 172.048978 
L 230.052622 172.048978 
L 230.052622 171.585857 
L 231.171084 171.585857 
L 231.171084 170.659616 
L 232.414319 170.659616 
L 232.414319 170.196496 
L 234.356956 170.196496 
L 234.356956 169.733375 
L 238.287599 169.733375 
L 238.287599 169.270255 
L 239.408057 169.270255 
L 239.408057 168.807134 
L 240.069332 168.807134 
L 240.069332 168.344014 
L 241.019706 168.344014 
L 241.019706 167.417773 
L 243.645388 167.417773 
L 243.645388 166.954652 
L 244.140106 166.954652 
L 244.140106 166.491532 
L 246.929595 166.491532 
L 246.929595 165.565291 
L 247.739047 165.565291 
L 247.739047 165.10217 
L 247.873544 165.10217 
L 247.873544 164.63905 
L 248.255661 164.63905 
L 248.255661 164.175929 
L 249.007103 164.175929 
L 249.007103 163.712808 
L 249.946624 163.712808 
L 249.993787 162.323447 
L 250.532161 162.323447 
L 250.532161 161.397206 
L 250.685262 161.397206 
L 250.745246 160.007844 
L 251.192485 160.007844 
L 251.192485 159.081603 
L 252.649398 159.081603 
L 252.649398 158.618483 
L 253.629593 158.618483 
L 253.629593 158.155362 
L 253.944977 158.155362 
L 253.944977 157.692242 
L 254.79601 157.692242 
L 254.79601 157.229121 
L 257.551085 157.229121 
L 257.551085 156.766001 
L 257.945274 156.766001 
L 257.945274 156.30288 
L 258.237243 156.30288 
L 258.237243 155.376639 
L 338.688 155.376639 
L 338.688 155.376639 
" style="fill:none;stroke:#ff00ff;stroke-linecap:square;stroke-width:1.5;"/>
   </g>
   <g id="line2d_41">
    <defs>
     <path d="M 0 8.485281 
L 5.091169 0 
L 0 -8.485281 
L -5.091169 0 
z
" id="ma29a10a6b0" style="stroke:#ff00ff;stroke-linejoin:miter;stroke-width:1.5;"/>
    </defs>
    <g>
     <use style="fill-opacity:0;stroke:#ff00ff;stroke-linejoin:miter;stroke-width:1.5;" x="156.638275" xlink:href="#ma29a10a6b0" y="257.263153"/>
     <use style="fill-opacity:0;stroke:#ff00ff;stroke-linejoin:miter;stroke-width:1.5;" x="192.907206" xlink:href="#ma29a10a6b0" y="198.446847"/>
     <use style="fill-opacity:0;stroke:#ff00ff;stroke-linejoin:miter;stroke-width:1.5;" x="258.237243" xlink:href="#ma29a10a6b0" y="156.30288"/>
     <use style="fill-opacity:0;stroke:#ff00ff;stroke-linejoin:miter;stroke-width:1.5;" x="258.237243" xlink:href="#ma29a10a6b0" y="155.376639"/>
     <use style="fill-opacity:0;stroke:#ff00ff;stroke-linejoin:miter;stroke-width:1.5;" x="338.688" xlink:href="#ma29a10a6b0" y="155.376639"/>
    </g>
   </g>
   <g id="line2d_42">
    <path style="fill:none;stroke:#ff00ff;stroke-linecap:square;stroke-width:1.5;"/>
    <g/>
   </g>
   <g id="line2d_43">
    <path clip-path="url(#p58ebb24197)" d="M 258.384117 155.376639 
" style="fill:none;stroke:#ff00ff;stroke-linecap:square;stroke-width:1.5;"/>
    <defs>
     <path d="M -12 12 
L 12 -12 
M -12 -12 
L 12 12 
" id="m3806194215" style="stroke:#ff00ff;"/>
    </defs>
    <g clip-path="url(#p58ebb24197)">
     <use style="fill:#ff00ff;stroke:#ff00ff;" x="258.384117" xlink:href="#m3806194215" y="155.376639"/>
    </g>
   </g>
   <g id="line2d_44">
    <defs>
     <path d="M 0 1.5 
C 0.397805 1.5 0.77937 1.341951 1.06066 1.06066 
C 1.341951 0.77937 1.5 0.397805 1.5 0 
C 1.5 -0.397805 1.341951 -0.77937 1.06066 -1.06066 
C 0.77937 -1.341951 0.397805 -1.5 0 -1.5 
C -0.397805 -1.5 -0.77937 -1.341951 -1.06066 -1.06066 
C -1.341951 -0.77937 -1.5 -0.397805 -1.5 0 
C -1.5 0.397805 -1.341951 0.77937 -1.06066 1.06066 
C -0.77937 1.341951 -0.397805 1.5 0 1.5 
z
" id="m9b88f3fe50" style="stroke:#ff7500;"/>
    </defs>
    <g>
     <use style="fill:#ff7500;stroke:#ff7500;" x="256.602207" xlink:href="#m9b88f3fe50" y="160.007844"/>
     <use style="fill:#ff7500;stroke:#ff7500;" x="256.602207" xlink:href="#m9b88f3fe50" y="160.007844"/>
    </g>
   </g>
   <g id="line2d_45">
    <path d="M 139.145019 298.944 
L 139.145019 298.480879 
L 150.287105 298.480879 
L 150.287105 295.702156 
L 151.660987 295.702156 
L 151.660987 295.239036 
L 152.130233 295.239036 
L 152.130233 292.460313 
L 153.913546 292.460313 
L 153.913546 291.997192 
L 154.484627 291.997192 
L 154.484627 289.68159 
L 155.678822 289.68159 
L 155.678822 288.292228 
L 155.825108 288.292228 
L 155.825108 287.365987 
L 156.538679 287.365987 
L 156.538679 286.902867 
L 157.300853 286.902867 
L 157.300853 285.976625 
L 157.67916 285.976625 
L 157.772468 278.103577 
L 158.285965 278.103577 
L 158.285965 277.640456 
L 158.67908 277.640456 
L 158.767202 276.251095 
L 159.608019 276.251095 
L 159.608019 274.861733 
L 159.741526 274.861733 
L 159.741526 274.398612 
L 159.972732 274.398612 
L 159.972732 273.935492 
L 160.233268 273.935492 
L 160.233268 273.472371 
L 160.36209 273.472371 
L 160.36209 272.54613 
L 160.742945 272.54613 
L 160.742945 270.230528 
L 161.253399 270.230528 
L 161.253399 269.767407 
L 161.39006 269.767407 
L 161.495615 268.841166 
L 162.144868 268.841166 
L 162.217141 267.451805 
L 162.44642 267.451805 
L 162.531628 265.599323 
L 162.770815 265.599323 
L 162.812686 262.8206 
L 163.455871 262.8206 
L 163.50953 260.041876 
L 163.576373 260.041876 
L 163.576373 259.578756 
L 163.854349 259.578756 
L 163.854349 258.652515 
L 164.166702 258.652515 
L 164.166702 258.189394 
L 164.448194 258.189394 
L 164.448194 257.726274 
L 164.650098 257.726274 
L 164.650098 257.263153 
L 164.76265 257.263153 
L 164.812441 255.410671 
L 164.9363 255.410671 
L 164.9363 254.48443 
L 165.542734 254.48443 
L 165.542734 254.02131 
L 165.943384 254.02131 
L 166.036331 250.779466 
L 166.07106 250.779466 
L 166.07106 250.316346 
L 166.437252 250.316346 
L 166.459886 248.463863 
L 166.695783 248.463863 
L 166.695783 247.537622 
L 166.884438 247.537622 
L 166.950537 246.611381 
L 167.190782 246.611381 
L 167.244924 245.22202 
L 167.470505 245.22202 
L 167.534424 244.295779 
L 167.944284 244.295779 
L 167.944284 243.832658 
L 168.089095 243.832658 
L 168.089095 243.369538 
L 168.202038 243.369538 
L 168.202038 242.443297 
L 168.314254 242.443297 
L 168.314254 241.517056 
L 168.506396 241.517056 
L 168.506396 240.590815 
L 168.78575 240.590815 
L 168.86475 237.812091 
L 168.963 237.812091 
L 168.963 236.88585 
L 169.148163 236.88585 
L 169.148163 235.959609 
L 169.283352 235.959609 
L 169.283352 235.033368 
L 169.588476 235.033368 
L 169.616809 234.107127 
L 170.07319 234.107127 
L 170.07319 233.180886 
L 170.65184 233.180886 
L 170.696249 230.865284 
L 170.793552 230.865284 
L 170.85519 229.012802 
L 171.527673 229.012802 
L 171.527673 228.549681 
L 171.862732 228.549681 
L 171.862732 227.62344 
L 172.337411 227.62344 
L 172.337411 226.697199 
L 173.962814 226.697199 
L 174.028886 224.844717 
L 174.261802 224.844717 
L 174.261802 224.381596 
L 175.402213 224.381596 
L 175.402213 223.455355 
L 175.550576 223.455355 
L 175.550576 222.529114 
L 176.177125 222.529114 
L 176.215951 221.139753 
L 176.357578 221.139753 
L 176.357578 220.213512 
L 178.153265 220.213512 
L 178.199477 218.36103 
L 178.377401 218.36103 
L 178.377401 217.897909 
L 178.638117 217.897909 
L 178.711096 216.971668 
L 178.900534 216.971668 
L 178.900534 216.508548 
L 180.063405 216.508548 
L 180.063405 215.582307 
L 181.562667 215.582307 
L 181.562667 214.656066 
L 181.812985 214.656066 
L 181.812985 213.729825 
L 182.375889 213.729825 
L 182.375889 213.266704 
L 183.657898 213.266704 
L 183.657898 212.340463 
L 184.328244 212.340463 
L 184.328244 211.414222 
L 184.638052 211.414222 
L 184.638052 210.951101 
L 185.264727 210.951101 
L 185.264727 210.487981 
L 186.529615 210.487981 
L 186.529615 209.56174 
L 189.629079 209.56174 
L 189.739559 206.783017 
L 190.267263 206.783017 
L 190.267263 206.319896 
L 190.949689 206.319896 
L 190.949689 205.856776 
L 191.361335 205.856776 
L 191.361335 204.930535 
L 192.459698 204.930535 
L 192.459698 204.004294 
L 194.07826 204.004294 
L 194.07826 203.541173 
L 194.803344 203.541173 
L 194.803344 203.078053 
L 195.924257 203.078053 
L 196.007569 201.688691 
L 196.042857 201.688691 
L 196.042857 201.225571 
L 196.882857 201.225571 
L 196.882857 200.299329 
L 198.120394 200.299329 
L 198.120394 199.373088 
L 198.235977 199.373088 
L 198.235977 198.909968 
L 198.846873 198.909968 
L 198.846873 198.446847 
L 199.481413 198.446847 
L 199.530718 197.520606 
L 199.830329 197.520606 
L 199.830329 197.057486 
L 201.864714 197.057486 
L 201.864714 196.594365 
L 203.224122 196.594365 
L 203.224122 196.131245 
L 204.48646 196.131245 
L 204.48646 195.668124 
L 206.447125 195.668124 
L 206.447125 194.741883 
L 207.361387 194.741883 
L 207.361387 194.278763 
L 207.905442 194.278763 
L 207.905442 193.815642 
L 208.25791 193.815642 
L 208.25791 192.889401 
L 208.66283 192.889401 
L 208.66283 192.426281 
L 209.337487 192.426281 
L 209.337487 191.96316 
L 209.536619 191.96316 
L 209.536619 191.036919 
L 210.011232 191.036919 
L 210.011232 190.110678 
L 210.141989 190.110678 
L 210.141989 189.647558 
L 211.096549 189.647558 
L 211.096549 189.184437 
L 211.300031 189.184437 
L 211.300031 188.721316 
L 212.570176 188.721316 
L 212.570176 188.258196 
L 212.914006 188.258196 
L 212.914006 187.795075 
L 214.837268 187.795075 
L 214.837268 186.868834 
L 215.953374 186.868834 
L 215.953374 186.405714 
L 216.59871 186.405714 
L 216.59871 185.479473 
L 217.101169 185.479473 
L 217.101169 185.016352 
L 217.904948 185.016352 
L 217.904948 184.553232 
L 218.841858 184.553232 
L 218.841858 184.090111 
L 219.00824 184.090111 
L 219.00824 183.626991 
L 219.731523 183.626991 
L 219.731523 182.70075 
L 221.340613 182.70075 
L 221.394003 181.311388 
L 221.599721 181.311388 
L 221.599721 180.848268 
L 223.264387 180.848268 
L 223.367258 179.458906 
L 224.372089 179.458906 
L 224.372089 178.995786 
L 225.325644 178.995786 
L 225.356561 178.069545 
L 225.740739 178.069545 
L 225.740739 177.606424 
L 226.929138 177.606424 
L 226.929138 177.143304 
L 227.250756 177.143304 
L 227.250756 176.680183 
L 228.264696 176.680183 
L 228.264696 175.753942 
L 229.065986 175.753942 
L 229.065986 175.290821 
L 229.579924 175.290821 
L 229.579924 174.36458 
L 229.845508 174.36458 
L 229.845508 173.90146 
L 230.325972 173.90146 
L 230.325972 173.438339 
L 231.08678 173.438339 
L 231.08678 172.975219 
L 232.431056 172.975219 
L 232.431056 172.512098 
L 234.130335 172.512098 
L 234.130335 172.048978 
L 235.675007 172.048978 
L 235.70383 171.122737 
L 235.899416 171.122737 
L 235.899416 170.659616 
L 237.819093 170.659616 
L 237.893949 169.270255 
L 238.784657 169.270255 
L 238.784657 168.807134 
L 240.194937 168.807134 
L 240.194937 168.344014 
L 243.492515 168.344014 
L 243.492515 167.880893 
L 243.687683 167.880893 
L 243.687683 167.417773 
L 244.313621 167.417773 
L 244.313621 166.491532 
L 245.838923 166.491532 
L 245.838923 166.028411 
L 246.065197 166.028411 
L 246.065197 165.10217 
L 247.145444 165.10217 
L 247.145444 164.63905 
L 248.233004 164.63905 
L 248.233004 164.175929 
L 249.463963 164.175929 
L 249.463963 163.712808 
L 252.019173 163.712808 
L 252.019173 162.786567 
L 254.024096 162.786567 
L 254.024096 161.860326 
L 255.224422 161.860326 
L 255.224422 160.934085 
L 256.602207 160.934085 
L 256.602207 160.007844 
L 338.688 160.007844 
L 338.688 160.007844 
" style="fill:none;stroke:#ff7500;stroke-linecap:square;stroke-width:1.5;"/>
   </g>
   <g id="line2d_46">
    <defs>
     <path d="M 0 -6 
L -1.347084 -1.854102 
L -5.706339 -1.854102 
L -2.179628 0.708204 
L -3.526712 4.854102 
L -0 2.291796 
L 3.526712 4.854102 
L 2.179628 0.708204 
L 5.706339 -1.854102 
L 1.347084 -1.854102 
z
" id="m3da2be1a47" style="stroke:#ff7500;stroke-linejoin:bevel;stroke-width:1.5;"/>
    </defs>
    <g>
     <use style="fill-opacity:0;stroke:#ff7500;stroke-linejoin:bevel;stroke-width:1.5;" x="172.337411" xlink:href="#m3da2be1a47" y="227.62344"/>
     <use style="fill-opacity:0;stroke:#ff7500;stroke-linejoin:bevel;stroke-width:1.5;" x="229.579924" xlink:href="#m3da2be1a47" y="175.290821"/>
     <use style="fill-opacity:0;stroke:#ff7500;stroke-linejoin:bevel;stroke-width:1.5;" x="256.602207" xlink:href="#m3da2be1a47" y="160.934085"/>
     <use style="fill-opacity:0;stroke:#ff7500;stroke-linejoin:bevel;stroke-width:1.5;" x="256.602207" xlink:href="#m3da2be1a47" y="160.007844"/>
     <use style="fill-opacity:0;stroke:#ff7500;stroke-linejoin:bevel;stroke-width:1.5;" x="338.688" xlink:href="#m3da2be1a47" y="160.007844"/>
    </g>
   </g>
   <g id="line2d_47">
    <path style="fill:none;stroke:#ff7500;stroke-linecap:square;stroke-width:1.5;"/>
    <g/>
   </g>
   <g id="line2d_48">
    <path clip-path="url(#p58ebb24197)" d="M 258.377201 160.007844 
" style="fill:none;stroke:#ff7500;stroke-linecap:square;stroke-width:1.5;"/>
    <defs>
     <path d="M -12 12 
L 12 -12 
M -12 -12 
L 12 12 
" id="mb6fb3a6136" style="stroke:#ff7500;"/>
    </defs>
    <g clip-path="url(#p58ebb24197)">
     <use style="fill:#ff7500;stroke:#ff7500;" x="258.377201" xlink:href="#mb6fb3a6136" y="160.007844"/>
    </g>
   </g>
   <g id="line2d_49">
    <path d="M 338.688 160.007844 
L 369.60768 293.571802 
" style="fill:none;stroke:#ff7500;stroke-linecap:square;stroke-width:1.5;"/>
    <g>
     <use style="fill-opacity:0;stroke:#ff7500;stroke-linejoin:bevel;stroke-width:1.5;" x="338.688" xlink:href="#m3da2be1a47" y="160.007844"/>
     <use style="fill-opacity:0;stroke:#ff7500;stroke-linejoin:bevel;stroke-width:1.5;" x="369.60768" xlink:href="#m3da2be1a47" y="293.571802"/>
    </g>
   </g>
   <g id="line2d_50">
    <path d="M 338.688 155.376639 
L 369.60768 207.616634 
" style="fill:none;stroke:#ff00ff;stroke-linecap:square;stroke-width:1.5;"/>
    <g>
     <use style="fill-opacity:0;stroke:#ff00ff;stroke-linejoin:miter;stroke-width:1.5;" x="338.688" xlink:href="#ma29a10a6b0" y="155.376639"/>
     <use style="fill-opacity:0;stroke:#ff00ff;stroke-linejoin:miter;stroke-width:1.5;" x="369.60768" xlink:href="#ma29a10a6b0" y="207.616634"/>
    </g>
   </g>
   <g id="line2d_51">
    <path d="M 338.688 140.556783 
L 369.60768 121.661465 
" style="fill:none;stroke:#000080;stroke-linecap:square;stroke-width:1.5;"/>
    <g>
     <use style="fill-opacity:0;stroke:#000080;stroke-width:1.5;" x="338.688" xlink:href="#m73aba1ab53" y="140.556783"/>
     <use style="fill-opacity:0;stroke:#000080;stroke-width:1.5;" x="369.60768" xlink:href="#m73aba1ab53" y="121.661465"/>
    </g>
   </g>
   <g id="line2d_52">
    <path d="M 338.688 298.944 
L 338.688 30.334099 
" style="fill:none;stroke:#000000;stroke-linecap:square;stroke-width:1.5;"/>
   </g>
   <g id="patch_3">
    <path d="M 57.6 298.944 
L 57.6 27.648 
" style="fill:none;stroke:#000000;stroke-linecap:square;stroke-linejoin:miter;stroke-width:0.8;"/>
   </g>
   <g id="patch_4">
    <path d="M 338.688 298.944 
L 338.688 27.648 
" style="fill:none;stroke:#000000;stroke-linecap:square;stroke-linejoin:miter;stroke-width:0.8;"/>
   </g>
   <g id="patch_5">
    <path d="M 57.6 298.944 
L 338.688 298.944 
" style="fill:none;stroke:#000000;stroke-linecap:square;stroke-linejoin:miter;stroke-width:0.8;"/>
   </g>
   <g id="patch_6">
    <path d="M 57.6 27.648 
L 338.688 27.648 
" style="fill:none;stroke:#000000;stroke-linecap:square;stroke-linejoin:miter;stroke-width:0.8;"/>
   </g>
   <g id="text_13">
    <!-- SMS-EMOA- -->
    <g transform="translate(375.22944 298.262739)scale(0.17 -0.17)">
     <defs>
      <path d="M 53.515625 70.515625 
L 53.515625 60.890625 
Q 47.90625 63.578125 42.921875 64.890625 
Q 37.9375 66.21875 33.296875 66.21875 
Q 25.25 66.21875 20.875 63.09375 
Q 16.5 59.96875 16.5 54.203125 
Q 16.5 49.359375 19.40625 46.890625 
Q 22.3125 44.4375 30.421875 42.921875 
L 36.375 41.703125 
Q 47.40625 39.59375 52.65625 34.296875 
Q 57.90625 29 57.90625 20.125 
Q 57.90625 9.515625 50.796875 4.046875 
Q 43.703125 -1.421875 29.984375 -1.421875 
Q 24.8125 -1.421875 18.96875 -0.25 
Q 13.140625 0.921875 6.890625 3.21875 
L 6.890625 13.375 
Q 12.890625 10.015625 18.65625 8.296875 
Q 24.421875 6.59375 29.984375 6.59375 
Q 38.421875 6.59375 43.015625 9.90625 
Q 47.609375 13.234375 47.609375 19.390625 
Q 47.609375 24.75 44.3125 27.78125 
Q 41.015625 30.8125 33.5 32.328125 
L 27.484375 33.5 
Q 16.453125 35.6875 11.515625 40.375 
Q 6.59375 45.0625 6.59375 53.421875 
Q 6.59375 63.09375 13.40625 68.65625 
Q 20.21875 74.21875 32.171875 74.21875 
Q 37.3125 74.21875 42.625 73.28125 
Q 47.953125 72.359375 53.515625 70.515625 
z
" id="DejaVuSans-83"/>
      <path d="M 9.8125 72.90625 
L 24.515625 72.90625 
L 43.109375 23.296875 
L 61.8125 72.90625 
L 76.515625 72.90625 
L 76.515625 0 
L 66.890625 0 
L 66.890625 64.015625 
L 48.09375 14.015625 
L 38.1875 14.015625 
L 19.390625 64.015625 
L 19.390625 0 
L 9.8125 0 
z
" id="DejaVuSans-77"/>
      <path d="M 9.8125 72.90625 
L 55.90625 72.90625 
L 55.90625 64.59375 
L 19.671875 64.59375 
L 19.671875 43.015625 
L 54.390625 43.015625 
L 54.390625 34.71875 
L 19.671875 34.71875 
L 19.671875 8.296875 
L 56.78125 8.296875 
L 56.78125 0 
L 9.8125 0 
z
" id="DejaVuSans-69"/>
      <path d="M 39.40625 66.21875 
Q 28.65625 66.21875 22.328125 58.203125 
Q 16.015625 50.203125 16.015625 36.375 
Q 16.015625 22.609375 22.328125 14.59375 
Q 28.65625 6.59375 39.40625 6.59375 
Q 50.140625 6.59375 56.421875 14.59375 
Q 62.703125 22.609375 62.703125 36.375 
Q 62.703125 50.203125 56.421875 58.203125 
Q 50.140625 66.21875 39.40625 66.21875 
z
M 39.40625 74.21875 
Q 54.734375 74.21875 63.90625 63.9375 
Q 73.09375 53.65625 73.09375 36.375 
Q 73.09375 19.140625 63.90625 8.859375 
Q 54.734375 -1.421875 39.40625 -1.421875 
Q 24.03125 -1.421875 14.8125 8.828125 
Q 5.609375 19.09375 5.609375 36.375 
Q 5.609375 53.65625 14.8125 63.9375 
Q 24.03125 74.21875 39.40625 74.21875 
z
" id="DejaVuSans-79"/>
      <path d="M 34.1875 63.1875 
L 20.796875 26.90625 
L 47.609375 26.90625 
z
M 28.609375 72.90625 
L 39.796875 72.90625 
L 67.578125 0 
L 57.328125 0 
L 50.6875 18.703125 
L 17.828125 18.703125 
L 11.1875 0 
L 0.78125 0 
z
" id="DejaVuSans-65"/>
     </defs>
     <use xlink:href="#DejaVuSans-83"/>
     <use x="63.476562" xlink:href="#DejaVuSans-77"/>
     <use x="149.755859" xlink:href="#DejaVuSans-83"/>
     <use x="213.232422" xlink:href="#DejaVuSans-45"/>
     <use x="249.316406" xlink:href="#DejaVuSans-69"/>
     <use x="312.5" xlink:href="#DejaVuSans-77"/>
     <use x="398.779297" xlink:href="#DejaVuSans-79"/>
     <use x="475.740234" xlink:href="#DejaVuSans-65"/>
     <use x="541.898438" xlink:href="#DejaVuSans-45"/>
    </g>
   </g>
   <g id="text_14">
    <!-- NSGA-II-M -->
    <g transform="translate(375.22944 212.307571)scale(0.17 -0.17)">
     <defs>
      <path d="M 9.8125 72.90625 
L 23.09375 72.90625 
L 55.421875 11.921875 
L 55.421875 72.90625 
L 64.984375 72.90625 
L 64.984375 0 
L 51.703125 0 
L 19.390625 60.984375 
L 19.390625 0 
L 9.8125 0 
z
" id="DejaVuSans-78"/>
      <path d="M 59.515625 10.40625 
L 59.515625 29.984375 
L 43.40625 29.984375 
L 43.40625 38.09375 
L 69.28125 38.09375 
L 69.28125 6.78125 
Q 63.578125 2.734375 56.6875 0.65625 
Q 49.8125 -1.421875 42 -1.421875 
Q 24.90625 -1.421875 15.25 8.5625 
Q 5.609375 18.5625 5.609375 36.375 
Q 5.609375 54.25 15.25 64.234375 
Q 24.90625 74.21875 42 74.21875 
Q 49.125 74.21875 55.546875 72.453125 
Q 61.96875 70.703125 67.390625 67.28125 
L 67.390625 56.78125 
Q 61.921875 61.421875 55.765625 63.765625 
Q 49.609375 66.109375 42.828125 66.109375 
Q 29.4375 66.109375 22.71875 58.640625 
Q 16.015625 51.171875 16.015625 36.375 
Q 16.015625 21.625 22.71875 14.15625 
Q 29.4375 6.6875 42.828125 6.6875 
Q 48.046875 6.6875 52.140625 7.59375 
Q 56.25 8.5 59.515625 10.40625 
z
" id="DejaVuSans-71"/>
      <path d="M 9.8125 72.90625 
L 19.671875 72.90625 
L 19.671875 0 
L 9.8125 0 
z
" id="DejaVuSans-73"/>
     </defs>
     <use xlink:href="#DejaVuSans-78"/>
     <use x="74.804688" xlink:href="#DejaVuSans-83"/>
     <use x="138.28125" xlink:href="#DejaVuSans-71"/>
     <use x="215.771484" xlink:href="#DejaVuSans-65"/>
     <use x="281.929688" xlink:href="#DejaVuSans-45"/>
     <use x="318.013672" xlink:href="#DejaVuSans-73"/>
     <use x="347.505859" xlink:href="#DejaVuSans-73"/>
     <use x="376.998047" xlink:href="#DejaVuSans-45"/>
     <use x="413.082031" xlink:href="#DejaVuSans-77"/>
    </g>
   </g>
   <g id="text_15">
    <!-- COMO-100  -->
    <g transform="translate(375.22944 126.352403)scale(0.17 -0.17)">
     <defs>
      <path d="M 64.40625 67.28125 
L 64.40625 56.890625 
Q 59.421875 61.53125 53.78125 63.8125 
Q 48.140625 66.109375 41.796875 66.109375 
Q 29.296875 66.109375 22.65625 58.46875 
Q 16.015625 50.828125 16.015625 36.375 
Q 16.015625 21.96875 22.65625 14.328125 
Q 29.296875 6.6875 41.796875 6.6875 
Q 48.140625 6.6875 53.78125 8.984375 
Q 59.421875 11.28125 64.40625 15.921875 
L 64.40625 5.609375 
Q 59.234375 2.09375 53.4375 0.328125 
Q 47.65625 -1.421875 41.21875 -1.421875 
Q 24.65625 -1.421875 15.125 8.703125 
Q 5.609375 18.84375 5.609375 36.375 
Q 5.609375 53.953125 15.125 64.078125 
Q 24.65625 74.21875 41.21875 74.21875 
Q 47.75 74.21875 53.53125 72.484375 
Q 59.328125 70.75 64.40625 67.28125 
z
" id="DejaVuSans-67"/>
     </defs>
     <use xlink:href="#DejaVuSans-67"/>
     <use x="69.824219" xlink:href="#DejaVuSans-79"/>
     <use x="148.535156" xlink:href="#DejaVuSans-77"/>
     <use x="234.814453" xlink:href="#DejaVuSans-79"/>
     <use x="316.275391" xlink:href="#DejaVuSans-45"/>
     <use x="352.359375" xlink:href="#DejaVuSans-49"/>
     <use x="415.982422" xlink:href="#DejaVuSans-48"/>
     <use x="479.605469" xlink:href="#DejaVuSans-48"/>
     <use x="543.228516" xlink:href="#DejaVuSans-32"/>
    </g>
   </g>
   <g id="text_16">
    <!-- best 2016 -->
    <g transform="translate(375.22944 40.397235)scale(0.17 -0.17)">
     <defs>
      <path d="M 48.6875 27.296875 
Q 48.6875 37.203125 44.609375 42.84375 
Q 40.53125 48.484375 33.40625 48.484375 
Q 26.265625 48.484375 22.1875 42.84375 
Q 18.109375 37.203125 18.109375 27.296875 
Q 18.109375 17.390625 22.1875 11.75 
Q 26.265625 6.109375 33.40625 6.109375 
Q 40.53125 6.109375 44.609375 11.75 
Q 48.6875 17.390625 48.6875 27.296875 
z
M 18.109375 46.390625 
Q 20.953125 51.265625 25.265625 53.625 
Q 29.59375 56 35.59375 56 
Q 45.5625 56 51.78125 48.09375 
Q 58.015625 40.1875 58.015625 27.296875 
Q 58.015625 14.40625 51.78125 6.484375 
Q 45.5625 -1.421875 35.59375 -1.421875 
Q 29.59375 -1.421875 25.265625 0.953125 
Q 20.953125 3.328125 18.109375 8.203125 
L 18.109375 0 
L 9.078125 0 
L 9.078125 75.984375 
L 18.109375 75.984375 
z
" id="DejaVuSans-98"/>
     </defs>
     <use xlink:href="#DejaVuSans-98"/>
     <use x="63.476562" xlink:href="#DejaVuSans-101"/>
     <use x="125" xlink:href="#DejaVuSans-115"/>
     <use x="177.099609" xlink:href="#DejaVuSans-116"/>
     <use x="216.308594" xlink:href="#DejaVuSans-32"/>
     <use x="248.095703" xlink:href="#DejaVuSans-50"/>
     <use x="311.71875" xlink:href="#DejaVuSans-48"/>
     <use x="375.341797" xlink:href="#DejaVuSans-49"/>
     <use x="438.964844" xlink:href="#DejaVuSans-54"/>
    </g>
   </g>
   <g id="text_17">
    <!-- bbob-biobj f25, 3-D -->
    <g transform="translate(60.41088 38.111366)scale(0.102 -0.102)">
     <defs>
      <path d="M 9.421875 54.6875 
L 18.40625 54.6875 
L 18.40625 -0.984375 
Q 18.40625 -11.421875 14.421875 -16.109375 
Q 10.453125 -20.796875 1.609375 -20.796875 
L -1.8125 -20.796875 
L -1.8125 -13.1875 
L 0.59375 -13.1875 
Q 5.71875 -13.1875 7.5625 -10.8125 
Q 9.421875 -8.453125 9.421875 -0.984375 
z
M 9.421875 75.984375 
L 18.40625 75.984375 
L 18.40625 64.59375 
L 9.421875 64.59375 
z
" id="DejaVuSans-106"/>
      <path d="M 10.796875 72.90625 
L 49.515625 72.90625 
L 49.515625 64.59375 
L 19.828125 64.59375 
L 19.828125 46.734375 
Q 21.96875 47.46875 24.109375 47.828125 
Q 26.265625 48.1875 28.421875 48.1875 
Q 40.625 48.1875 47.75 41.5 
Q 54.890625 34.8125 54.890625 23.390625 
Q 54.890625 11.625 47.5625 5.09375 
Q 40.234375 -1.421875 26.90625 -1.421875 
Q 22.3125 -1.421875 17.546875 -0.640625 
Q 12.796875 0.140625 7.71875 1.703125 
L 7.71875 11.625 
Q 12.109375 9.234375 16.796875 8.0625 
Q 21.484375 6.890625 26.703125 6.890625 
Q 35.15625 6.890625 40.078125 11.328125 
Q 45.015625 15.765625 45.015625 23.390625 
Q 45.015625 31 40.078125 35.4375 
Q 35.15625 39.890625 26.703125 39.890625 
Q 22.75 39.890625 18.8125 39.015625 
Q 14.890625 38.140625 10.796875 36.28125 
z
" id="DejaVuSans-53"/>
      <path d="M 40.578125 39.3125 
Q 47.65625 37.796875 51.625 33 
Q 55.609375 28.21875 55.609375 21.1875 
Q 55.609375 10.40625 48.1875 4.484375 
Q 40.765625 -1.421875 27.09375 -1.421875 
Q 22.515625 -1.421875 17.65625 -0.515625 
Q 12.796875 0.390625 7.625 2.203125 
L 7.625 11.71875 
Q 11.71875 9.328125 16.59375 8.109375 
Q 21.484375 6.890625 26.8125 6.890625 
Q 36.078125 6.890625 40.9375 10.546875 
Q 45.796875 14.203125 45.796875 21.1875 
Q 45.796875 27.640625 41.28125 31.265625 
Q 36.765625 34.90625 28.71875 34.90625 
L 20.21875 34.90625 
L 20.21875 43.015625 
L 29.109375 43.015625 
Q 36.375 43.015625 40.234375 45.921875 
Q 44.09375 48.828125 44.09375 54.296875 
Q 44.09375 59.90625 40.109375 62.90625 
Q 36.140625 65.921875 28.71875 65.921875 
Q 24.65625 65.921875 20.015625 65.03125 
Q 15.375 64.15625 9.8125 62.3125 
L 9.8125 71.09375 
Q 15.4375 72.65625 20.34375 73.4375 
Q 25.25 74.21875 29.59375 74.21875 
Q 40.828125 74.21875 47.359375 69.109375 
Q 53.90625 64.015625 53.90625 55.328125 
Q 53.90625 49.265625 50.4375 45.09375 
Q 46.96875 40.921875 40.578125 39.3125 
z
" id="DejaVuSans-51"/>
      <path d="M 19.671875 64.796875 
L 19.671875 8.109375 
L 31.59375 8.109375 
Q 46.6875 8.109375 53.6875 14.9375 
Q 60.6875 21.78125 60.6875 36.53125 
Q 60.6875 51.171875 53.6875 57.984375 
Q 46.6875 64.796875 31.59375 64.796875 
z
M 9.8125 72.90625 
L 30.078125 72.90625 
Q 51.265625 72.90625 61.171875 64.09375 
Q 71.09375 55.28125 71.09375 36.53125 
Q 71.09375 17.671875 61.125 8.828125 
Q 51.171875 0 30.078125 0 
L 9.8125 0 
z
" id="DejaVuSans-68"/>
     </defs>
     <use xlink:href="#DejaVuSans-98"/>
     <use x="63.476562" xlink:href="#DejaVuSans-98"/>
     <use x="126.953125" xlink:href="#DejaVuSans-111"/>
     <use x="188.134766" xlink:href="#DejaVuSans-98"/>
     <use x="251.611328" xlink:href="#DejaVuSans-45"/>
     <use x="287.695312" xlink:href="#DejaVuSans-98"/>
     <use x="351.171875" xlink:href="#DejaVuSans-105"/>
     <use x="378.955078" xlink:href="#DejaVuSans-111"/>
     <use x="440.136719" xlink:href="#DejaVuSans-98"/>
     <use x="503.613281" xlink:href="#DejaVuSans-106"/>
     <use x="531.396484" xlink:href="#DejaVuSans-32"/>
     <use x="563.183594" xlink:href="#DejaVuSans-102"/>
     <use x="598.388672" xlink:href="#DejaVuSans-50"/>
     <use x="662.011719" xlink:href="#DejaVuSans-53"/>
     <use x="725.634766" xlink:href="#DejaVuSans-44"/>
     <use x="757.421875" xlink:href="#DejaVuSans-32"/>
     <use x="789.208984" xlink:href="#DejaVuSans-51"/>
     <use x="852.832031" xlink:href="#DejaVuSans-45"/>
     <use x="888.916016" xlink:href="#DejaVuSans-68"/>
    </g>
    <!-- 58 targets: 1..-1.0e-4 -->
    <g transform="translate(60.41088 49.533135)scale(0.102 -0.102)">
     <defs>
      <path d="M 11.71875 12.40625 
L 22.015625 12.40625 
L 22.015625 0 
L 11.71875 0 
z
M 11.71875 51.703125 
L 22.015625 51.703125 
L 22.015625 39.3125 
L 11.71875 39.3125 
z
" id="DejaVuSans-58"/>
     </defs>
     <use xlink:href="#DejaVuSans-53"/>
     <use x="63.623047" xlink:href="#DejaVuSans-56"/>
     <use x="127.246094" xlink:href="#DejaVuSans-32"/>
     <use x="159.033203" xlink:href="#DejaVuSans-116"/>
     <use x="198.242188" xlink:href="#DejaVuSans-97"/>
     <use x="259.521484" xlink:href="#DejaVuSans-114"/>
     <use x="298.884766" xlink:href="#DejaVuSans-103"/>
     <use x="362.361328" xlink:href="#DejaVuSans-101"/>
     <use x="423.884766" xlink:href="#DejaVuSans-116"/>
     <use x="463.09375" xlink:href="#DejaVuSans-115"/>
     <use x="515.193359" xlink:href="#DejaVuSans-58"/>
     <use x="548.884766" xlink:href="#DejaVuSans-32"/>
     <use x="580.671875" xlink:href="#DejaVuSans-49"/>
     <use x="644.294922" xlink:href="#DejaVuSans-46"/>
     <use x="676.082031" xlink:href="#DejaVuSans-46"/>
     <use x="707.869141" xlink:href="#DejaVuSans-45"/>
     <use x="743.953125" xlink:href="#DejaVuSans-49"/>
     <use x="807.576172" xlink:href="#DejaVuSans-46"/>
     <use x="839.363281" xlink:href="#DejaVuSans-48"/>
     <use x="902.986328" xlink:href="#DejaVuSans-101"/>
     <use x="964.509766" xlink:href="#DejaVuSans-45"/>
     <use x="1000.59375" xlink:href="#DejaVuSans-52"/>
    </g>
    <!-- 10 instances -->
    <g transform="translate(60.41088 60.954904)scale(0.102 -0.102)">
     <use xlink:href="#DejaVuSans-49"/>
     <use x="63.623047" xlink:href="#DejaVuSans-48"/>
     <use x="127.246094" xlink:href="#DejaVuSans-32"/>
     <use x="159.033203" xlink:href="#DejaVuSans-105"/>
     <use x="186.816406" xlink:href="#DejaVuSans-110"/>
     <use x="250.195312" xlink:href="#DejaVuSans-115"/>
     <use x="302.294922" xlink:href="#DejaVuSans-116"/>
     <use x="341.503906" xlink:href="#DejaVuSans-97"/>
     <use x="402.783203" xlink:href="#DejaVuSans-110"/>
     <use x="466.162109" xlink:href="#DejaVuSans-99"/>
     <use x="521.142578" xlink:href="#DejaVuSans-101"/>
     <use x="582.666016" xlink:href="#DejaVuSans-115"/>
    </g>
   </g>
   <g id="text_18">
    <!-- v2.4.19, hv-hash=ff0e71e8cd978373 -->
    <g style="fill:#808080;" transform="translate(104.697125 294.151352)scale(0.1 -0.1)">
     <defs>
      <path d="M 10.984375 1.515625 
L 10.984375 10.5 
Q 14.703125 8.734375 18.5 7.8125 
Q 22.3125 6.890625 25.984375 6.890625 
Q 35.75 6.890625 40.890625 13.453125 
Q 46.046875 20.015625 46.78125 33.40625 
Q 43.953125 29.203125 39.59375 26.953125 
Q 35.25 24.703125 29.984375 24.703125 
Q 19.046875 24.703125 12.671875 31.3125 
Q 6.296875 37.9375 6.296875 49.421875 
Q 6.296875 60.640625 12.9375 67.421875 
Q 19.578125 74.21875 30.609375 74.21875 
Q 43.265625 74.21875 49.921875 64.515625 
Q 56.59375 54.828125 56.59375 36.375 
Q 56.59375 19.140625 48.40625 8.859375 
Q 40.234375 -1.421875 26.421875 -1.421875 
Q 22.703125 -1.421875 18.890625 -0.6875 
Q 15.09375 0.046875 10.984375 1.515625 
z
M 30.609375 32.421875 
Q 37.25 32.421875 41.125 36.953125 
Q 45.015625 41.5 45.015625 49.421875 
Q 45.015625 57.28125 41.125 61.84375 
Q 37.25 66.40625 30.609375 66.40625 
Q 23.96875 66.40625 20.09375 61.84375 
Q 16.21875 57.28125 16.21875 49.421875 
Q 16.21875 41.5 20.09375 36.953125 
Q 23.96875 32.421875 30.609375 32.421875 
z
" id="DejaVuSans-57"/>
      <path d="M 54.890625 33.015625 
L 54.890625 0 
L 45.90625 0 
L 45.90625 32.71875 
Q 45.90625 40.484375 42.875 44.328125 
Q 39.84375 48.1875 33.796875 48.1875 
Q 26.515625 48.1875 22.3125 43.546875 
Q 18.109375 38.921875 18.109375 30.90625 
L 18.109375 0 
L 9.078125 0 
L 9.078125 75.984375 
L 18.109375 75.984375 
L 18.109375 46.1875 
Q 21.34375 51.125 25.703125 53.5625 
Q 30.078125 56 35.796875 56 
Q 45.21875 56 50.046875 50.171875 
Q 54.890625 44.34375 54.890625 33.015625 
z
" id="DejaVuSans-104"/>
      <path d="M 10.59375 45.40625 
L 73.1875 45.40625 
L 73.1875 37.203125 
L 10.59375 37.203125 
z
M 10.59375 25.484375 
L 73.1875 25.484375 
L 73.1875 17.1875 
L 10.59375 17.1875 
z
" id="DejaVuSans-61"/>
      <path d="M 8.203125 72.90625 
L 55.078125 72.90625 
L 55.078125 68.703125 
L 28.609375 0 
L 18.3125 0 
L 43.21875 64.59375 
L 8.203125 64.59375 
z
" id="DejaVuSans-55"/>
     </defs>
     <use xlink:href="#DejaVuSans-118"/>
     <use x="59.179688" xlink:href="#DejaVuSans-50"/>
     <use x="122.802734" xlink:href="#DejaVuSans-46"/>
     <use x="154.589844" xlink:href="#DejaVuSans-52"/>
     <use x="218.212891" xlink:href="#DejaVuSans-46"/>
     <use x="250" xlink:href="#DejaVuSans-49"/>
     <use x="313.623047" xlink:href="#DejaVuSans-57"/>
     <use x="377.246094" xlink:href="#DejaVuSans-44"/>
     <use x="409.033203" xlink:href="#DejaVuSans-32"/>
     <use x="440.820312" xlink:href="#DejaVuSans-104"/>
     <use x="504.199219" xlink:href="#DejaVuSans-118"/>
     <use x="560.753906" xlink:href="#DejaVuSans-45"/>
     <use x="596.837891" xlink:href="#DejaVuSans-104"/>
     <use x="660.216797" xlink:href="#DejaVuSans-97"/>
     <use x="721.496094" xlink:href="#DejaVuSans-115"/>
     <use x="773.595703" xlink:href="#DejaVuSans-104"/>
     <use x="836.974609" xlink:href="#DejaVuSans-61"/>
     <use x="920.763672" xlink:href="#DejaVuSans-102"/>
     <use x="955.96875" xlink:href="#DejaVuSans-102"/>
     <use x="991.173828" xlink:href="#DejaVuSans-48"/>
     <use x="1054.796875" xlink:href="#DejaVuSans-101"/>
     <use x="1116.320312" xlink:href="#DejaVuSans-55"/>
     <use x="1179.943359" xlink:href="#DejaVuSans-49"/>
     <use x="1243.566406" xlink:href="#DejaVuSans-101"/>
     <use x="1305.089844" xlink:href="#DejaVuSans-56"/>
     <use x="1368.712891" xlink:href="#DejaVuSans-99"/>
     <use x="1423.693359" xlink:href="#DejaVuSans-100"/>
     <use x="1487.169922" xlink:href="#DejaVuSans-57"/>
     <use x="1550.792969" xlink:href="#DejaVuSans-55"/>
     <use x="1614.416016" xlink:href="#DejaVuSans-56"/>
     <use x="1678.039062" xlink:href="#DejaVuSans-51"/>
     <use x="1741.662109" xlink:href="#DejaVuSans-55"/>
     <use x="1805.285156" xlink:href="#DejaVuSans-51"/>
    </g>
   </g>
   <g id="text_19">
    <!-- 25 Attr. sector/Schaffer F7 -->
    <g transform="translate(66.890875 21.648)scale(0.2 -0.2)">
     <use xlink:href="#DejaVuSans-50"/>
     <use x="63.623047" xlink:href="#DejaVuSans-53"/>
     <use x="127.246094" xlink:href="#DejaVuSans-32"/>
     <use x="159.033203" xlink:href="#DejaVuSans-65"/>
     <use x="225.691406" xlink:href="#DejaVuSans-116"/>
     <use x="264.900391" xlink:href="#DejaVuSans-116"/>
     <use x="304.109375" xlink:href="#DejaVuSans-114"/>
     <use x="336.097656" xlink:href="#DejaVuSans-46"/>
     <use x="367.884766" xlink:href="#DejaVuSans-32"/>
     <use x="399.671875" xlink:href="#DejaVuSans-115"/>
     <use x="451.771484" xlink:href="#DejaVuSans-101"/>
     <use x="513.294922" xlink:href="#DejaVuSans-99"/>
     <use x="568.275391" xlink:href="#DejaVuSans-116"/>
     <use x="607.484375" xlink:href="#DejaVuSans-111"/>
     <use x="668.666016" xlink:href="#DejaVuSans-114"/>
     <use x="709.779297" xlink:href="#DejaVuSans-47"/>
     <use x="743.470703" xlink:href="#DejaVuSans-83"/>
     <use x="806.947266" xlink:href="#DejaVuSans-99"/>
     <use x="861.927734" xlink:href="#DejaVuSans-104"/>
     <use x="925.306641" xlink:href="#DejaVuSans-97"/>
     <use x="986.585938" xlink:href="#DejaVuSans-102"/>
     <use x="1021.791016" xlink:href="#DejaVuSans-102"/>
     <use x="1056.996094" xlink:href="#DejaVuSans-101"/>
     <use x="1118.519531" xlink:href="#DejaVuSans-114"/>
     <use x="1159.632812" xlink:href="#DejaVuSans-32"/>
     <use x="1191.419922" xlink:href="#DejaVuSans-70"/>
     <use x="1248.939453" xlink:href="#DejaVuSans-55"/>
    </g>
   </g>
  </g>
 </g>
 <defs>
  <clipPath id="p58ebb24197">
   <rect height="271.296" width="281.088" x="57.6" y="27.648"/>
  </clipPath>
 </defs>
</svg>
