<?xml version="1.0" encoding="utf-8" standalone="no"?>
<!DOCTYPE svg PUBLIC "-//W3C//DTD SVG 1.1//EN"
  "http://www.w3.org/Graphics/SVG/1.1/DTD/svg11.dtd">
<!-- Created with matplotlib (https://matplotlib.org/) -->
<svg height="345.6pt" version="1.1" viewBox="0 0 460.8 345.6" width="460.8pt" xmlns="http://www.w3.org/2000/svg" xmlns:xlink="http://www.w3.org/1999/xlink">
 <metadata>
  <rdf:RDF xmlns:cc="http://creativecommons.org/ns#" xmlns:dc="http://purl.org/dc/elements/1.1/" xmlns:rdf="http://www.w3.org/1999/02/22-rdf-syntax-ns#">
   <cc:Work>
    <dc:type rdf:resource="http://purl.org/dc/dcmitype/StillImage"/>
    <dc:date>2021-04-26T15:04:34.012017</dc:date>
    <dc:format>image/svg+xml</dc:format>
    <dc:creator>
     <cc:Agent>
      <dc:title>Matplotlib v3.3.2, https://matplotlib.org/</dc:title>
     </cc:Agent>
    </dc:creator>
   </cc:Work>
  </rdf:RDF>
 </metadata>
 <defs>
  <style type="text/css">*{stroke-linecap:butt;stroke-linejoin:round;}</style>
 </defs>
 <g id="figure_1">
  <g id="patch_1">
   <path d="M 0 345.6 
L 460.8 345.6 
L 460.8 0 
L 0 0 
z
" style="fill:#ffffff;"/>
  </g>
  <g id="axes_1">
   <g id="patch_2">
    <path d="M 57.6 298.944 
L 338.688 298.944 
L 338.688 27.648 
L 57.6 27.648 
z
" style="fill:#ffffff;"/>
   </g>
   <g id="line2d_1">
    <path d="M 83.830028 298.944 
L 83.830028 294.312795 
L 87.329581 294.312795 
L 87.329581 285.050384 
L 90.242884 285.050384 
L 90.242884 275.787974 
L 103.623262 275.787974 
L 103.623262 271.156769 
L 118.310324 271.156769 
L 118.310324 257.263153 
L 127.48501 257.263153 
L 127.48501 248.000743 
L 132.060454 248.000743 
L 132.060454 243.369538 
L 137.735587 243.369538 
L 137.735587 234.107127 
L 143.014805 234.107127 
L 143.014805 220.213512 
L 149.955193 220.213512 
L 149.955193 210.951101 
L 156.052535 210.951101 
L 156.052535 201.688691 
L 161.215247 201.688691 
L 161.215247 192.426281 
L 165.393091 192.426281 
L 165.393091 187.795075 
L 172.827009 187.795075 
L 172.827009 173.90146 
L 182.828533 173.90146 
L 182.828533 169.270255 
L 188.316863 169.270255 
L 188.316863 155.376639 
L 191.950655 155.376639 
L 191.950655 146.114229 
L 197.199116 146.114229 
L 197.199116 141.483024 
L 204.892506 141.483024 
L 204.892506 127.589408 
L 218.58927 127.589408 
L 218.58927 122.958203 
L 224.548705 122.958203 
L 224.548705 109.064587 
L 227.652063 109.064587 
L 227.652063 99.802177 
L 231.312292 99.802177 
L 231.312292 90.539766 
L 235.756442 90.539766 
L 235.756442 85.908561 
L 240.967728 85.908561 
L 240.967728 76.646151 
L 246.698155 76.646151 
L 246.698155 62.752535 
L 338.688 62.752535 
" style="fill:none;stroke:#f5deb3;stroke-linecap:square;stroke-width:4;"/>
   </g>
   <g id="line2d_2">
    <defs>
     <path d="M 0 7.778175 
L 7.778175 0 
L 0 -7.778175 
L -7.778175 0 
z
" id="md62d2de980" style="stroke:#f5deb3;stroke-linejoin:miter;stroke-width:1.5;"/>
    </defs>
    <g>
     <use style="fill:#f5deb3;stroke:#f5deb3;stroke-linejoin:miter;stroke-width:1.5;" x="165.393091" xlink:href="#md62d2de980" y="187.795075"/>
     <use style="fill:#f5deb3;stroke:#f5deb3;stroke-linejoin:miter;stroke-width:1.5;" x="227.652063" xlink:href="#md62d2de980" y="99.802177"/>
     <use style="fill:#f5deb3;stroke:#f5deb3;stroke-linejoin:miter;stroke-width:1.5;" x="246.698155" xlink:href="#md62d2de980" y="62.752535"/>
     <use style="fill:#f5deb3;stroke:#f5deb3;stroke-linejoin:miter;stroke-width:1.5;" x="246.698155" xlink:href="#md62d2de980" y="62.752535"/>
     <use style="fill:#f5deb3;stroke:#f5deb3;stroke-linejoin:miter;stroke-width:1.5;" x="338.688" xlink:href="#md62d2de980" y="62.752535"/>
    </g>
   </g>
   <g id="line2d_3">
    <path style="fill:none;stroke:#f5deb3;stroke-linecap:square;stroke-width:4;"/>
    <g/>
   </g>
   <g id="line2d_4">
    <path d="M 338.688 62.752535 
L 369.60768 35.706297 
" style="fill:none;stroke:#f5deb3;stroke-linecap:square;stroke-width:4;"/>
    <g>
     <use style="fill:#f5deb3;stroke:#f5deb3;stroke-linejoin:miter;stroke-width:1.5;" x="338.688" xlink:href="#md62d2de980" y="62.752535"/>
     <use style="fill:#f5deb3;stroke:#f5deb3;stroke-linejoin:miter;stroke-width:1.5;" x="369.60768" xlink:href="#md62d2de980" y="35.706297"/>
    </g>
   </g>
   <g id="matplotlib.axis_1">
    <g id="xtick_1">
     <g id="line2d_5">
      <path clip-path="url(#pf0710b7aea)" d="M 57.6 298.944 
L 57.6 27.648 
" style="fill:none;stroke:#b0b0b0;stroke-linecap:square;stroke-width:0.8;"/>
     </g>
     <g id="line2d_6">
      <defs>
       <path d="M 0 0 
L 0 3.5 
" id="ma21053da33" style="stroke:#000000;stroke-width:0.8;"/>
      </defs>
      <g>
       <use style="stroke:#000000;stroke-width:0.8;" x="57.6" xlink:href="#ma21053da33" y="298.944"/>
      </g>
     </g>
     <g id="text_1">
      <!-- 0 -->
      <g transform="translate(51.2375 321.140875)scale(0.2 -0.2)">
       <defs>
        <path d="M 31.78125 66.40625 
Q 24.171875 66.40625 20.328125 58.90625 
Q 16.5 51.421875 16.5 36.375 
Q 16.5 21.390625 20.328125 13.890625 
Q 24.171875 6.390625 31.78125 6.390625 
Q 39.453125 6.390625 43.28125 13.890625 
Q 47.125 21.390625 47.125 36.375 
Q 47.125 51.421875 43.28125 58.90625 
Q 39.453125 66.40625 31.78125 66.40625 
z
M 31.78125 74.21875 
Q 44.046875 74.21875 50.515625 64.515625 
Q 56.984375 54.828125 56.984375 36.375 
Q 56.984375 17.96875 50.515625 8.265625 
Q 44.046875 -1.421875 31.78125 -1.421875 
Q 19.53125 -1.421875 13.0625 8.265625 
Q 6.59375 17.96875 6.59375 36.375 
Q 6.59375 54.828125 13.0625 64.515625 
Q 19.53125 74.21875 31.78125 74.21875 
z
" id="DejaVuSans-48"/>
       </defs>
       <use xlink:href="#DejaVuSans-48"/>
      </g>
     </g>
    </g>
    <g id="xtick_2">
     <g id="line2d_7">
      <path clip-path="url(#pf0710b7aea)" d="M 137.910857 298.944 
L 137.910857 27.648 
" style="fill:none;stroke:#b0b0b0;stroke-linecap:square;stroke-width:0.8;"/>
     </g>
     <g id="line2d_8">
      <g>
       <use style="stroke:#000000;stroke-width:0.8;" x="137.910857" xlink:href="#ma21053da33" y="298.944"/>
      </g>
     </g>
     <g id="text_2">
      <!-- 2 -->
      <g transform="translate(131.548357 321.140875)scale(0.2 -0.2)">
       <defs>
        <path d="M 19.1875 8.296875 
L 53.609375 8.296875 
L 53.609375 0 
L 7.328125 0 
L 7.328125 8.296875 
Q 12.9375 14.109375 22.625 23.890625 
Q 32.328125 33.6875 34.8125 36.53125 
Q 39.546875 41.84375 41.421875 45.53125 
Q 43.3125 49.21875 43.3125 52.78125 
Q 43.3125 58.59375 39.234375 62.25 
Q 35.15625 65.921875 28.609375 65.921875 
Q 23.96875 65.921875 18.8125 64.3125 
Q 13.671875 62.703125 7.8125 59.421875 
L 7.8125 69.390625 
Q 13.765625 71.78125 18.9375 73 
Q 24.125 74.21875 28.421875 74.21875 
Q 39.75 74.21875 46.484375 68.546875 
Q 53.21875 62.890625 53.21875 53.421875 
Q 53.21875 48.921875 51.53125 44.890625 
Q 49.859375 40.875 45.40625 35.40625 
Q 44.1875 33.984375 37.640625 27.21875 
Q 31.109375 20.453125 19.1875 8.296875 
z
" id="DejaVuSans-50"/>
       </defs>
       <use xlink:href="#DejaVuSans-50"/>
      </g>
     </g>
    </g>
    <g id="xtick_3">
     <g id="line2d_9">
      <path clip-path="url(#pf0710b7aea)" d="M 218.221714 298.944 
L 218.221714 27.648 
" style="fill:none;stroke:#b0b0b0;stroke-linecap:square;stroke-width:0.8;"/>
     </g>
     <g id="line2d_10">
      <g>
       <use style="stroke:#000000;stroke-width:0.8;" x="218.221714" xlink:href="#ma21053da33" y="298.944"/>
      </g>
     </g>
     <g id="text_3">
      <!-- 4 -->
      <g transform="translate(211.859214 321.140875)scale(0.2 -0.2)">
       <defs>
        <path d="M 37.796875 64.3125 
L 12.890625 25.390625 
L 37.796875 25.390625 
z
M 35.203125 72.90625 
L 47.609375 72.90625 
L 47.609375 25.390625 
L 58.015625 25.390625 
L 58.015625 17.1875 
L 47.609375 17.1875 
L 47.609375 0 
L 37.796875 0 
L 37.796875 17.1875 
L 4.890625 17.1875 
L 4.890625 26.703125 
z
" id="DejaVuSans-52"/>
       </defs>
       <use xlink:href="#DejaVuSans-52"/>
      </g>
     </g>
    </g>
    <g id="xtick_4">
     <g id="line2d_11">
      <path clip-path="url(#pf0710b7aea)" d="M 298.532571 298.944 
L 298.532571 27.648 
" style="fill:none;stroke:#b0b0b0;stroke-linecap:square;stroke-width:0.8;"/>
     </g>
     <g id="line2d_12">
      <g>
       <use style="stroke:#000000;stroke-width:0.8;" x="298.532571" xlink:href="#ma21053da33" y="298.944"/>
      </g>
     </g>
     <g id="text_4">
      <!-- 6 -->
      <g transform="translate(292.170071 321.140875)scale(0.2 -0.2)">
       <defs>
        <path d="M 33.015625 40.375 
Q 26.375 40.375 22.484375 35.828125 
Q 18.609375 31.296875 18.609375 23.390625 
Q 18.609375 15.53125 22.484375 10.953125 
Q 26.375 6.390625 33.015625 6.390625 
Q 39.65625 6.390625 43.53125 10.953125 
Q 47.40625 15.53125 47.40625 23.390625 
Q 47.40625 31.296875 43.53125 35.828125 
Q 39.65625 40.375 33.015625 40.375 
z
M 52.59375 71.296875 
L 52.59375 62.3125 
Q 48.875 64.0625 45.09375 64.984375 
Q 41.3125 65.921875 37.59375 65.921875 
Q 27.828125 65.921875 22.671875 59.328125 
Q 17.53125 52.734375 16.796875 39.40625 
Q 19.671875 43.65625 24.015625 45.921875 
Q 28.375 48.1875 33.59375 48.1875 
Q 44.578125 48.1875 50.953125 41.515625 
Q 57.328125 34.859375 57.328125 23.390625 
Q 57.328125 12.15625 50.6875 5.359375 
Q 44.046875 -1.421875 33.015625 -1.421875 
Q 20.359375 -1.421875 13.671875 8.265625 
Q 6.984375 17.96875 6.984375 36.375 
Q 6.984375 53.65625 15.1875 63.9375 
Q 23.390625 74.21875 37.203125 74.21875 
Q 40.921875 74.21875 44.703125 73.484375 
Q 48.484375 72.75 52.59375 71.296875 
z
" id="DejaVuSans-54"/>
       </defs>
       <use xlink:href="#DejaVuSans-54"/>
      </g>
     </g>
    </g>
    <g id="xtick_5">
     <g id="line2d_13">
      <path clip-path="url(#pf0710b7aea)" d="M 97.755429 298.944 
L 97.755429 27.648 
" style="fill:none;stroke:#b0b0b0;stroke-linecap:square;stroke-width:0.8;"/>
     </g>
     <g id="line2d_14">
      <defs>
       <path d="M 0 0 
L 0 2 
" id="m371bd87b55" style="stroke:#000000;stroke-width:0.6;"/>
      </defs>
      <g>
       <use style="stroke:#000000;stroke-width:0.6;" x="97.755429" xlink:href="#m371bd87b55" y="298.944"/>
      </g>
     </g>
    </g>
    <g id="xtick_6">
     <g id="line2d_15">
      <path clip-path="url(#pf0710b7aea)" d="M 178.066286 298.944 
L 178.066286 27.648 
" style="fill:none;stroke:#b0b0b0;stroke-linecap:square;stroke-width:0.8;"/>
     </g>
     <g id="line2d_16">
      <g>
       <use style="stroke:#000000;stroke-width:0.6;" x="178.066286" xlink:href="#m371bd87b55" y="298.944"/>
      </g>
     </g>
    </g>
    <g id="xtick_7">
     <g id="line2d_17">
      <path clip-path="url(#pf0710b7aea)" d="M 258.377143 298.944 
L 258.377143 27.648 
" style="fill:none;stroke:#b0b0b0;stroke-linecap:square;stroke-width:0.8;"/>
     </g>
     <g id="line2d_18">
      <g>
       <use style="stroke:#000000;stroke-width:0.6;" x="258.377143" xlink:href="#m371bd87b55" y="298.944"/>
      </g>
     </g>
    </g>
    <g id="xtick_8">
     <g id="line2d_19">
      <path clip-path="url(#pf0710b7aea)" d="M 338.688 298.944 
L 338.688 27.648 
" style="fill:none;stroke:#b0b0b0;stroke-linecap:square;stroke-width:0.8;"/>
     </g>
     <g id="line2d_20">
      <g>
       <use style="stroke:#000000;stroke-width:0.6;" x="338.688" xlink:href="#m371bd87b55" y="298.944"/>
      </g>
     </g>
    </g>
    <g id="text_5">
     <!-- log10(# f-evals / dimension) -->
     <g transform="translate(77.764078 342.217594)scale(0.17 -0.17)">
      <defs>
       <path d="M 9.421875 75.984375 
L 18.40625 75.984375 
L 18.40625 0 
L 9.421875 0 
z
" id="DejaVuSans-108"/>
       <path d="M 30.609375 48.390625 
Q 23.390625 48.390625 19.1875 42.75 
Q 14.984375 37.109375 14.984375 27.296875 
Q 14.984375 17.484375 19.15625 11.84375 
Q 23.34375 6.203125 30.609375 6.203125 
Q 37.796875 6.203125 41.984375 11.859375 
Q 46.1875 17.53125 46.1875 27.296875 
Q 46.1875 37.015625 41.984375 42.703125 
Q 37.796875 48.390625 30.609375 48.390625 
z
M 30.609375 56 
Q 42.328125 56 49.015625 48.375 
Q 55.71875 40.765625 55.71875 27.296875 
Q 55.71875 13.875 49.015625 6.21875 
Q 42.328125 -1.421875 30.609375 -1.421875 
Q 18.84375 -1.421875 12.171875 6.21875 
Q 5.515625 13.875 5.515625 27.296875 
Q 5.515625 40.765625 12.171875 48.375 
Q 18.84375 56 30.609375 56 
z
" id="DejaVuSans-111"/>
       <path d="M 45.40625 27.984375 
Q 45.40625 37.75 41.375 43.109375 
Q 37.359375 48.484375 30.078125 48.484375 
Q 22.859375 48.484375 18.828125 43.109375 
Q 14.796875 37.75 14.796875 27.984375 
Q 14.796875 18.265625 18.828125 12.890625 
Q 22.859375 7.515625 30.078125 7.515625 
Q 37.359375 7.515625 41.375 12.890625 
Q 45.40625 18.265625 45.40625 27.984375 
z
M 54.390625 6.78125 
Q 54.390625 -7.171875 48.1875 -13.984375 
Q 42 -20.796875 29.203125 -20.796875 
Q 24.46875 -20.796875 20.265625 -20.09375 
Q 16.0625 -19.390625 12.109375 -17.921875 
L 12.109375 -9.1875 
Q 16.0625 -11.328125 19.921875 -12.34375 
Q 23.78125 -13.375 27.78125 -13.375 
Q 36.625 -13.375 41.015625 -8.765625 
Q 45.40625 -4.15625 45.40625 5.171875 
L 45.40625 9.625 
Q 42.625 4.78125 38.28125 2.390625 
Q 33.9375 0 27.875 0 
Q 17.828125 0 11.671875 7.65625 
Q 5.515625 15.328125 5.515625 27.984375 
Q 5.515625 40.671875 11.671875 48.328125 
Q 17.828125 56 27.875 56 
Q 33.9375 56 38.28125 53.609375 
Q 42.625 51.21875 45.40625 46.390625 
L 45.40625 54.6875 
L 54.390625 54.6875 
z
" id="DejaVuSans-103"/>
       <path d="M 12.40625 8.296875 
L 28.515625 8.296875 
L 28.515625 63.921875 
L 10.984375 60.40625 
L 10.984375 69.390625 
L 28.421875 72.90625 
L 38.28125 72.90625 
L 38.28125 8.296875 
L 54.390625 8.296875 
L 54.390625 0 
L 12.40625 0 
z
" id="DejaVuSans-49"/>
       <path d="M 31 75.875 
Q 24.46875 64.65625 21.28125 53.65625 
Q 18.109375 42.671875 18.109375 31.390625 
Q 18.109375 20.125 21.3125 9.0625 
Q 24.515625 -2 31 -13.1875 
L 23.1875 -13.1875 
Q 15.875 -1.703125 12.234375 9.375 
Q 8.59375 20.453125 8.59375 31.390625 
Q 8.59375 42.28125 12.203125 53.3125 
Q 15.828125 64.359375 23.1875 75.875 
z
" id="DejaVuSans-40"/>
       <path d="M 51.125 44 
L 36.921875 44 
L 32.8125 27.6875 
L 47.125 27.6875 
z
M 43.796875 71.78125 
L 38.71875 51.515625 
L 52.984375 51.515625 
L 58.109375 71.78125 
L 65.921875 71.78125 
L 60.890625 51.515625 
L 76.125 51.515625 
L 76.125 44 
L 58.984375 44 
L 54.984375 27.6875 
L 70.515625 27.6875 
L 70.515625 20.21875 
L 53.078125 20.21875 
L 48 0 
L 40.1875 0 
L 45.21875 20.21875 
L 30.90625 20.21875 
L 25.875 0 
L 18.015625 0 
L 23.09375 20.21875 
L 7.71875 20.21875 
L 7.71875 27.6875 
L 24.90625 27.6875 
L 29 44 
L 13.28125 44 
L 13.28125 51.515625 
L 30.90625 51.515625 
L 35.890625 71.78125 
z
" id="DejaVuSans-35"/>
       <path id="DejaVuSans-32"/>
       <path d="M 37.109375 75.984375 
L 37.109375 68.5 
L 28.515625 68.5 
Q 23.6875 68.5 21.796875 66.546875 
Q 19.921875 64.59375 19.921875 59.515625 
L 19.921875 54.6875 
L 34.71875 54.6875 
L 34.71875 47.703125 
L 19.921875 47.703125 
L 19.921875 0 
L 10.890625 0 
L 10.890625 47.703125 
L 2.296875 47.703125 
L 2.296875 54.6875 
L 10.890625 54.6875 
L 10.890625 58.5 
Q 10.890625 67.625 15.140625 71.796875 
Q 19.390625 75.984375 28.609375 75.984375 
z
" id="DejaVuSans-102"/>
       <path d="M 4.890625 31.390625 
L 31.203125 31.390625 
L 31.203125 23.390625 
L 4.890625 23.390625 
z
" id="DejaVuSans-45"/>
       <path d="M 56.203125 29.59375 
L 56.203125 25.203125 
L 14.890625 25.203125 
Q 15.484375 15.921875 20.484375 11.0625 
Q 25.484375 6.203125 34.421875 6.203125 
Q 39.59375 6.203125 44.453125 7.46875 
Q 49.3125 8.734375 54.109375 11.28125 
L 54.109375 2.78125 
Q 49.265625 0.734375 44.1875 -0.34375 
Q 39.109375 -1.421875 33.890625 -1.421875 
Q 20.796875 -1.421875 13.15625 6.1875 
Q 5.515625 13.8125 5.515625 26.8125 
Q 5.515625 40.234375 12.765625 48.109375 
Q 20.015625 56 32.328125 56 
Q 43.359375 56 49.78125 48.890625 
Q 56.203125 41.796875 56.203125 29.59375 
z
M 47.21875 32.234375 
Q 47.125 39.59375 43.09375 43.984375 
Q 39.0625 48.390625 32.421875 48.390625 
Q 24.90625 48.390625 20.390625 44.140625 
Q 15.875 39.890625 15.1875 32.171875 
z
" id="DejaVuSans-101"/>
       <path d="M 2.984375 54.6875 
L 12.5 54.6875 
L 29.59375 8.796875 
L 46.6875 54.6875 
L 56.203125 54.6875 
L 35.6875 0 
L 23.484375 0 
z
" id="DejaVuSans-118"/>
       <path d="M 34.28125 27.484375 
Q 23.390625 27.484375 19.1875 25 
Q 14.984375 22.515625 14.984375 16.5 
Q 14.984375 11.71875 18.140625 8.90625 
Q 21.296875 6.109375 26.703125 6.109375 
Q 34.1875 6.109375 38.703125 11.40625 
Q 43.21875 16.703125 43.21875 25.484375 
L 43.21875 27.484375 
z
M 52.203125 31.203125 
L 52.203125 0 
L 43.21875 0 
L 43.21875 8.296875 
Q 40.140625 3.328125 35.546875 0.953125 
Q 30.953125 -1.421875 24.3125 -1.421875 
Q 15.921875 -1.421875 10.953125 3.296875 
Q 6 8.015625 6 15.921875 
Q 6 25.140625 12.171875 29.828125 
Q 18.359375 34.515625 30.609375 34.515625 
L 43.21875 34.515625 
L 43.21875 35.40625 
Q 43.21875 41.609375 39.140625 45 
Q 35.0625 48.390625 27.6875 48.390625 
Q 23 48.390625 18.546875 47.265625 
Q 14.109375 46.140625 10.015625 43.890625 
L 10.015625 52.203125 
Q 14.9375 54.109375 19.578125 55.046875 
Q 24.21875 56 28.609375 56 
Q 40.484375 56 46.34375 49.84375 
Q 52.203125 43.703125 52.203125 31.203125 
z
" id="DejaVuSans-97"/>
       <path d="M 44.28125 53.078125 
L 44.28125 44.578125 
Q 40.484375 46.53125 36.375 47.5 
Q 32.28125 48.484375 27.875 48.484375 
Q 21.1875 48.484375 17.84375 46.4375 
Q 14.5 44.390625 14.5 40.28125 
Q 14.5 37.15625 16.890625 35.375 
Q 19.28125 33.59375 26.515625 31.984375 
L 29.59375 31.296875 
Q 39.15625 29.25 43.1875 25.515625 
Q 47.21875 21.78125 47.21875 15.09375 
Q 47.21875 7.46875 41.1875 3.015625 
Q 35.15625 -1.421875 24.609375 -1.421875 
Q 20.21875 -1.421875 15.453125 -0.5625 
Q 10.6875 0.296875 5.421875 2 
L 5.421875 11.28125 
Q 10.40625 8.6875 15.234375 7.390625 
Q 20.0625 6.109375 24.8125 6.109375 
Q 31.15625 6.109375 34.5625 8.28125 
Q 37.984375 10.453125 37.984375 14.40625 
Q 37.984375 18.0625 35.515625 20.015625 
Q 33.0625 21.96875 24.703125 23.78125 
L 21.578125 24.515625 
Q 13.234375 26.265625 9.515625 29.90625 
Q 5.8125 33.546875 5.8125 39.890625 
Q 5.8125 47.609375 11.28125 51.796875 
Q 16.75 56 26.8125 56 
Q 31.78125 56 36.171875 55.265625 
Q 40.578125 54.546875 44.28125 53.078125 
z
" id="DejaVuSans-115"/>
       <path d="M 25.390625 72.90625 
L 33.6875 72.90625 
L 8.296875 -9.28125 
L 0 -9.28125 
z
" id="DejaVuSans-47"/>
       <path d="M 45.40625 46.390625 
L 45.40625 75.984375 
L 54.390625 75.984375 
L 54.390625 0 
L 45.40625 0 
L 45.40625 8.203125 
Q 42.578125 3.328125 38.25 0.953125 
Q 33.9375 -1.421875 27.875 -1.421875 
Q 17.96875 -1.421875 11.734375 6.484375 
Q 5.515625 14.40625 5.515625 27.296875 
Q 5.515625 40.1875 11.734375 48.09375 
Q 17.96875 56 27.875 56 
Q 33.9375 56 38.25 53.625 
Q 42.578125 51.265625 45.40625 46.390625 
z
M 14.796875 27.296875 
Q 14.796875 17.390625 18.875 11.75 
Q 22.953125 6.109375 30.078125 6.109375 
Q 37.203125 6.109375 41.296875 11.75 
Q 45.40625 17.390625 45.40625 27.296875 
Q 45.40625 37.203125 41.296875 42.84375 
Q 37.203125 48.484375 30.078125 48.484375 
Q 22.953125 48.484375 18.875 42.84375 
Q 14.796875 37.203125 14.796875 27.296875 
z
" id="DejaVuSans-100"/>
       <path d="M 9.421875 54.6875 
L 18.40625 54.6875 
L 18.40625 0 
L 9.421875 0 
z
M 9.421875 75.984375 
L 18.40625 75.984375 
L 18.40625 64.59375 
L 9.421875 64.59375 
z
" id="DejaVuSans-105"/>
       <path d="M 52 44.1875 
Q 55.375 50.25 60.0625 53.125 
Q 64.75 56 71.09375 56 
Q 79.640625 56 84.28125 50.015625 
Q 88.921875 44.046875 88.921875 33.015625 
L 88.921875 0 
L 79.890625 0 
L 79.890625 32.71875 
Q 79.890625 40.578125 77.09375 44.375 
Q 74.3125 48.1875 68.609375 48.1875 
Q 61.625 48.1875 57.5625 43.546875 
Q 53.515625 38.921875 53.515625 30.90625 
L 53.515625 0 
L 44.484375 0 
L 44.484375 32.71875 
Q 44.484375 40.625 41.703125 44.40625 
Q 38.921875 48.1875 33.109375 48.1875 
Q 26.21875 48.1875 22.15625 43.53125 
Q 18.109375 38.875 18.109375 30.90625 
L 18.109375 0 
L 9.078125 0 
L 9.078125 54.6875 
L 18.109375 54.6875 
L 18.109375 46.1875 
Q 21.1875 51.21875 25.484375 53.609375 
Q 29.78125 56 35.6875 56 
Q 41.65625 56 45.828125 52.96875 
Q 50 49.953125 52 44.1875 
z
" id="DejaVuSans-109"/>
       <path d="M 54.890625 33.015625 
L 54.890625 0 
L 45.90625 0 
L 45.90625 32.71875 
Q 45.90625 40.484375 42.875 44.328125 
Q 39.84375 48.1875 33.796875 48.1875 
Q 26.515625 48.1875 22.3125 43.546875 
Q 18.109375 38.921875 18.109375 30.90625 
L 18.109375 0 
L 9.078125 0 
L 9.078125 54.6875 
L 18.109375 54.6875 
L 18.109375 46.1875 
Q 21.34375 51.125 25.703125 53.5625 
Q 30.078125 56 35.796875 56 
Q 45.21875 56 50.046875 50.171875 
Q 54.890625 44.34375 54.890625 33.015625 
z
" id="DejaVuSans-110"/>
       <path d="M 8.015625 75.875 
L 15.828125 75.875 
Q 23.140625 64.359375 26.78125 53.3125 
Q 30.421875 42.28125 30.421875 31.390625 
Q 30.421875 20.453125 26.78125 9.375 
Q 23.140625 -1.703125 15.828125 -13.1875 
L 8.015625 -13.1875 
Q 14.5 -2 17.703125 9.0625 
Q 20.90625 20.125 20.90625 31.390625 
Q 20.90625 42.671875 17.703125 53.65625 
Q 14.5 64.65625 8.015625 75.875 
z
" id="DejaVuSans-41"/>
      </defs>
      <use xlink:href="#DejaVuSans-108"/>
      <use x="27.783203" xlink:href="#DejaVuSans-111"/>
      <use x="88.964844" xlink:href="#DejaVuSans-103"/>
      <use x="152.441406" xlink:href="#DejaVuSans-49"/>
      <use x="216.064453" xlink:href="#DejaVuSans-48"/>
      <use x="279.6875" xlink:href="#DejaVuSans-40"/>
      <use x="318.701172" xlink:href="#DejaVuSans-35"/>
      <use x="402.490234" xlink:href="#DejaVuSans-32"/>
      <use x="434.277344" xlink:href="#DejaVuSans-102"/>
      <use x="463.982422" xlink:href="#DejaVuSans-45"/>
      <use x="500.066406" xlink:href="#DejaVuSans-101"/>
      <use x="561.589844" xlink:href="#DejaVuSans-118"/>
      <use x="620.769531" xlink:href="#DejaVuSans-97"/>
      <use x="682.048828" xlink:href="#DejaVuSans-108"/>
      <use x="709.832031" xlink:href="#DejaVuSans-115"/>
      <use x="761.931641" xlink:href="#DejaVuSans-32"/>
      <use x="793.71875" xlink:href="#DejaVuSans-47"/>
      <use x="827.410156" xlink:href="#DejaVuSans-32"/>
      <use x="859.197266" xlink:href="#DejaVuSans-100"/>
      <use x="922.673828" xlink:href="#DejaVuSans-105"/>
      <use x="950.457031" xlink:href="#DejaVuSans-109"/>
      <use x="1047.869141" xlink:href="#DejaVuSans-101"/>
      <use x="1109.392578" xlink:href="#DejaVuSans-110"/>
      <use x="1172.771484" xlink:href="#DejaVuSans-115"/>
      <use x="1224.871094" xlink:href="#DejaVuSans-105"/>
      <use x="1252.654297" xlink:href="#DejaVuSans-111"/>
      <use x="1313.835938" xlink:href="#DejaVuSans-110"/>
      <use x="1377.214844" xlink:href="#DejaVuSans-41"/>
     </g>
    </g>
   </g>
   <g id="matplotlib.axis_2">
    <g id="ytick_1">
     <g id="line2d_21">
      <path clip-path="url(#pf0710b7aea)" d="M 57.6 298.944 
L 338.688 298.944 
" style="fill:none;stroke:#b0b0b0;stroke-linecap:square;stroke-width:0.8;"/>
     </g>
     <g id="line2d_22">
      <defs>
       <path d="M 0 0 
L -3.5 0 
" id="m9bf230a125" style="stroke:#000000;stroke-width:0.8;"/>
      </defs>
      <g>
       <use style="stroke:#000000;stroke-width:0.8;" x="57.6" xlink:href="#m9bf230a125" y="298.944"/>
      </g>
     </g>
     <g id="text_6">
      <!-- 0.0 -->
      <g transform="translate(25.155 305.02275)scale(0.16 -0.16)">
       <defs>
        <path d="M 10.6875 12.40625 
L 21 12.40625 
L 21 0 
L 10.6875 0 
z
" id="DejaVuSans-46"/>
       </defs>
       <use xlink:href="#DejaVuSans-48"/>
       <use x="63.623047" xlink:href="#DejaVuSans-46"/>
       <use x="95.410156" xlink:href="#DejaVuSans-48"/>
      </g>
     </g>
    </g>
    <g id="ytick_2">
     <g id="line2d_23">
      <path clip-path="url(#pf0710b7aea)" d="M 57.6 245.22202 
L 338.688 245.22202 
" style="fill:none;stroke:#b0b0b0;stroke-linecap:square;stroke-width:0.8;"/>
     </g>
     <g id="line2d_24">
      <g>
       <use style="stroke:#000000;stroke-width:0.8;" x="57.6" xlink:href="#m9bf230a125" y="245.22202"/>
      </g>
     </g>
     <g id="text_7">
      <!-- 0.2 -->
      <g transform="translate(25.155 251.30077)scale(0.16 -0.16)">
       <use xlink:href="#DejaVuSans-48"/>
       <use x="63.623047" xlink:href="#DejaVuSans-46"/>
       <use x="95.410156" xlink:href="#DejaVuSans-50"/>
      </g>
     </g>
    </g>
    <g id="ytick_3">
     <g id="line2d_25">
      <path clip-path="url(#pf0710b7aea)" d="M 57.6 191.50004 
L 338.688 191.50004 
" style="fill:none;stroke:#b0b0b0;stroke-linecap:square;stroke-width:0.8;"/>
     </g>
     <g id="line2d_26">
      <g>
       <use style="stroke:#000000;stroke-width:0.8;" x="57.6" xlink:href="#m9bf230a125" y="191.50004"/>
      </g>
     </g>
     <g id="text_8">
      <!-- 0.4 -->
      <g transform="translate(25.155 197.57879)scale(0.16 -0.16)">
       <use xlink:href="#DejaVuSans-48"/>
       <use x="63.623047" xlink:href="#DejaVuSans-46"/>
       <use x="95.410156" xlink:href="#DejaVuSans-52"/>
      </g>
     </g>
    </g>
    <g id="ytick_4">
     <g id="line2d_27">
      <path clip-path="url(#pf0710b7aea)" d="M 57.6 137.778059 
L 338.688 137.778059 
" style="fill:none;stroke:#b0b0b0;stroke-linecap:square;stroke-width:0.8;"/>
     </g>
     <g id="line2d_28">
      <g>
       <use style="stroke:#000000;stroke-width:0.8;" x="57.6" xlink:href="#m9bf230a125" y="137.778059"/>
      </g>
     </g>
     <g id="text_9">
      <!-- 0.6 -->
      <g transform="translate(25.155 143.856809)scale(0.16 -0.16)">
       <use xlink:href="#DejaVuSans-48"/>
       <use x="63.623047" xlink:href="#DejaVuSans-46"/>
       <use x="95.410156" xlink:href="#DejaVuSans-54"/>
      </g>
     </g>
    </g>
    <g id="ytick_5">
     <g id="line2d_29">
      <path clip-path="url(#pf0710b7aea)" d="M 57.6 84.056079 
L 338.688 84.056079 
" style="fill:none;stroke:#b0b0b0;stroke-linecap:square;stroke-width:0.8;"/>
     </g>
     <g id="line2d_30">
      <g>
       <use style="stroke:#000000;stroke-width:0.8;" x="57.6" xlink:href="#m9bf230a125" y="84.056079"/>
      </g>
     </g>
     <g id="text_10">
      <!-- 0.8 -->
      <g transform="translate(25.155 90.134829)scale(0.16 -0.16)">
       <defs>
        <path d="M 31.78125 34.625 
Q 24.75 34.625 20.71875 30.859375 
Q 16.703125 27.09375 16.703125 20.515625 
Q 16.703125 13.921875 20.71875 10.15625 
Q 24.75 6.390625 31.78125 6.390625 
Q 38.8125 6.390625 42.859375 10.171875 
Q 46.921875 13.96875 46.921875 20.515625 
Q 46.921875 27.09375 42.890625 30.859375 
Q 38.875 34.625 31.78125 34.625 
z
M 21.921875 38.8125 
Q 15.578125 40.375 12.03125 44.71875 
Q 8.5 49.078125 8.5 55.328125 
Q 8.5 64.0625 14.71875 69.140625 
Q 20.953125 74.21875 31.78125 74.21875 
Q 42.671875 74.21875 48.875 69.140625 
Q 55.078125 64.0625 55.078125 55.328125 
Q 55.078125 49.078125 51.53125 44.71875 
Q 48 40.375 41.703125 38.8125 
Q 48.828125 37.15625 52.796875 32.3125 
Q 56.78125 27.484375 56.78125 20.515625 
Q 56.78125 9.90625 50.3125 4.234375 
Q 43.84375 -1.421875 31.78125 -1.421875 
Q 19.734375 -1.421875 13.25 4.234375 
Q 6.78125 9.90625 6.78125 20.515625 
Q 6.78125 27.484375 10.78125 32.3125 
Q 14.796875 37.15625 21.921875 38.8125 
z
M 18.3125 54.390625 
Q 18.3125 48.734375 21.84375 45.5625 
Q 25.390625 42.390625 31.78125 42.390625 
Q 38.140625 42.390625 41.71875 45.5625 
Q 45.3125 48.734375 45.3125 54.390625 
Q 45.3125 60.0625 41.71875 63.234375 
Q 38.140625 66.40625 31.78125 66.40625 
Q 25.390625 66.40625 21.84375 63.234375 
Q 18.3125 60.0625 18.3125 54.390625 
z
" id="DejaVuSans-56"/>
       </defs>
       <use xlink:href="#DejaVuSans-48"/>
       <use x="63.623047" xlink:href="#DejaVuSans-46"/>
       <use x="95.410156" xlink:href="#DejaVuSans-56"/>
      </g>
     </g>
    </g>
    <g id="ytick_6">
     <g id="line2d_31">
      <path clip-path="url(#pf0710b7aea)" d="M 57.6 30.334099 
L 338.688 30.334099 
" style="fill:none;stroke:#b0b0b0;stroke-linecap:square;stroke-width:0.8;"/>
     </g>
     <g id="line2d_32">
      <g>
       <use style="stroke:#000000;stroke-width:0.8;" x="57.6" xlink:href="#m9bf230a125" y="30.334099"/>
      </g>
     </g>
     <g id="text_11">
      <!-- 1.0 -->
      <g transform="translate(25.155 36.412849)scale(0.16 -0.16)">
       <use xlink:href="#DejaVuSans-49"/>
       <use x="63.623047" xlink:href="#DejaVuSans-46"/>
       <use x="95.410156" xlink:href="#DejaVuSans-48"/>
      </g>
     </g>
    </g>
    <g id="text_12">
     <!-- Fraction of function,target pairs -->
     <g transform="translate(17.619531 297.681)rotate(-90)scale(0.17 -0.17)">
      <defs>
       <path d="M 9.8125 72.90625 
L 51.703125 72.90625 
L 51.703125 64.59375 
L 19.671875 64.59375 
L 19.671875 43.109375 
L 48.578125 43.109375 
L 48.578125 34.8125 
L 19.671875 34.8125 
L 19.671875 0 
L 9.8125 0 
z
" id="DejaVuSans-70"/>
       <path d="M 41.109375 46.296875 
Q 39.59375 47.171875 37.8125 47.578125 
Q 36.03125 48 33.890625 48 
Q 26.265625 48 22.1875 43.046875 
Q 18.109375 38.09375 18.109375 28.8125 
L 18.109375 0 
L 9.078125 0 
L 9.078125 54.6875 
L 18.109375 54.6875 
L 18.109375 46.1875 
Q 20.953125 51.171875 25.484375 53.578125 
Q 30.03125 56 36.53125 56 
Q 37.453125 56 38.578125 55.875 
Q 39.703125 55.765625 41.0625 55.515625 
z
" id="DejaVuSans-114"/>
       <path d="M 48.78125 52.59375 
L 48.78125 44.1875 
Q 44.96875 46.296875 41.140625 47.34375 
Q 37.3125 48.390625 33.40625 48.390625 
Q 24.65625 48.390625 19.8125 42.84375 
Q 14.984375 37.3125 14.984375 27.296875 
Q 14.984375 17.28125 19.8125 11.734375 
Q 24.65625 6.203125 33.40625 6.203125 
Q 37.3125 6.203125 41.140625 7.25 
Q 44.96875 8.296875 48.78125 10.40625 
L 48.78125 2.09375 
Q 45.015625 0.34375 40.984375 -0.53125 
Q 36.96875 -1.421875 32.421875 -1.421875 
Q 20.0625 -1.421875 12.78125 6.34375 
Q 5.515625 14.109375 5.515625 27.296875 
Q 5.515625 40.671875 12.859375 48.328125 
Q 20.21875 56 33.015625 56 
Q 37.15625 56 41.109375 55.140625 
Q 45.0625 54.296875 48.78125 52.59375 
z
" id="DejaVuSans-99"/>
       <path d="M 18.3125 70.21875 
L 18.3125 54.6875 
L 36.8125 54.6875 
L 36.8125 47.703125 
L 18.3125 47.703125 
L 18.3125 18.015625 
Q 18.3125 11.328125 20.140625 9.421875 
Q 21.96875 7.515625 27.59375 7.515625 
L 36.8125 7.515625 
L 36.8125 0 
L 27.59375 0 
Q 17.1875 0 13.234375 3.875 
Q 9.28125 7.765625 9.28125 18.015625 
L 9.28125 47.703125 
L 2.6875 47.703125 
L 2.6875 54.6875 
L 9.28125 54.6875 
L 9.28125 70.21875 
z
" id="DejaVuSans-116"/>
       <path d="M 8.5 21.578125 
L 8.5 54.6875 
L 17.484375 54.6875 
L 17.484375 21.921875 
Q 17.484375 14.15625 20.5 10.265625 
Q 23.53125 6.390625 29.59375 6.390625 
Q 36.859375 6.390625 41.078125 11.03125 
Q 45.3125 15.671875 45.3125 23.6875 
L 45.3125 54.6875 
L 54.296875 54.6875 
L 54.296875 0 
L 45.3125 0 
L 45.3125 8.40625 
Q 42.046875 3.421875 37.71875 1 
Q 33.40625 -1.421875 27.6875 -1.421875 
Q 18.265625 -1.421875 13.375 4.4375 
Q 8.5 10.296875 8.5 21.578125 
z
M 31.109375 56 
z
" id="DejaVuSans-117"/>
       <path d="M 11.71875 12.40625 
L 22.015625 12.40625 
L 22.015625 4 
L 14.015625 -11.625 
L 7.71875 -11.625 
L 11.71875 4 
z
" id="DejaVuSans-44"/>
       <path d="M 18.109375 8.203125 
L 18.109375 -20.796875 
L 9.078125 -20.796875 
L 9.078125 54.6875 
L 18.109375 54.6875 
L 18.109375 46.390625 
Q 20.953125 51.265625 25.265625 53.625 
Q 29.59375 56 35.59375 56 
Q 45.5625 56 51.78125 48.09375 
Q 58.015625 40.1875 58.015625 27.296875 
Q 58.015625 14.40625 51.78125 6.484375 
Q 45.5625 -1.421875 35.59375 -1.421875 
Q 29.59375 -1.421875 25.265625 0.953125 
Q 20.953125 3.328125 18.109375 8.203125 
z
M 48.6875 27.296875 
Q 48.6875 37.203125 44.609375 42.84375 
Q 40.53125 48.484375 33.40625 48.484375 
Q 26.265625 48.484375 22.1875 42.84375 
Q 18.109375 37.203125 18.109375 27.296875 
Q 18.109375 17.390625 22.1875 11.75 
Q 26.265625 6.109375 33.40625 6.109375 
Q 40.53125 6.109375 44.609375 11.75 
Q 48.6875 17.390625 48.6875 27.296875 
z
" id="DejaVuSans-112"/>
      </defs>
      <use xlink:href="#DejaVuSans-70"/>
      <use x="50.269531" xlink:href="#DejaVuSans-114"/>
      <use x="91.382812" xlink:href="#DejaVuSans-97"/>
      <use x="152.662109" xlink:href="#DejaVuSans-99"/>
      <use x="207.642578" xlink:href="#DejaVuSans-116"/>
      <use x="246.851562" xlink:href="#DejaVuSans-105"/>
      <use x="274.634766" xlink:href="#DejaVuSans-111"/>
      <use x="335.816406" xlink:href="#DejaVuSans-110"/>
      <use x="399.195312" xlink:href="#DejaVuSans-32"/>
      <use x="430.982422" xlink:href="#DejaVuSans-111"/>
      <use x="492.164062" xlink:href="#DejaVuSans-102"/>
      <use x="527.369141" xlink:href="#DejaVuSans-32"/>
      <use x="559.15625" xlink:href="#DejaVuSans-102"/>
      <use x="594.361328" xlink:href="#DejaVuSans-117"/>
      <use x="657.740234" xlink:href="#DejaVuSans-110"/>
      <use x="721.119141" xlink:href="#DejaVuSans-99"/>
      <use x="776.099609" xlink:href="#DejaVuSans-116"/>
      <use x="815.308594" xlink:href="#DejaVuSans-105"/>
      <use x="843.091797" xlink:href="#DejaVuSans-111"/>
      <use x="904.273438" xlink:href="#DejaVuSans-110"/>
      <use x="967.652344" xlink:href="#DejaVuSans-44"/>
      <use x="999.439453" xlink:href="#DejaVuSans-116"/>
      <use x="1038.648438" xlink:href="#DejaVuSans-97"/>
      <use x="1099.927734" xlink:href="#DejaVuSans-114"/>
      <use x="1139.291016" xlink:href="#DejaVuSans-103"/>
      <use x="1202.767578" xlink:href="#DejaVuSans-101"/>
      <use x="1264.291016" xlink:href="#DejaVuSans-116"/>
      <use x="1303.5" xlink:href="#DejaVuSans-32"/>
      <use x="1335.287109" xlink:href="#DejaVuSans-112"/>
      <use x="1398.763672" xlink:href="#DejaVuSans-97"/>
      <use x="1460.042969" xlink:href="#DejaVuSans-105"/>
      <use x="1487.826172" xlink:href="#DejaVuSans-114"/>
      <use x="1528.939453" xlink:href="#DejaVuSans-115"/>
     </g>
    </g>
   </g>
   <g id="line2d_33">
    <defs>
     <path d="M 0 1.5 
C 0.397805 1.5 0.77937 1.341951 1.06066 1.06066 
C 1.341951 0.77937 1.5 0.397805 1.5 0 
C 1.5 -0.397805 1.341951 -0.77937 1.06066 -1.06066 
C 0.77937 -1.341951 0.397805 -1.5 0 -1.5 
C -0.397805 -1.5 -0.77937 -1.341951 -1.06066 -1.06066 
C -1.341951 -0.77937 -1.5 -0.397805 -1.5 0 
C -1.5 0.397805 -1.341951 0.77937 -1.06066 1.06066 
C -0.77937 1.341951 -0.397805 1.5 0 1.5 
z
" id="me10884d16c" style="stroke:#f5deb3;"/>
    </defs>
    <g>
     <use style="fill:#f5deb3;stroke:#f5deb3;" x="246.698155" xlink:href="#me10884d16c" y="62.752535"/>
     <use style="fill:#f5deb3;stroke:#f5deb3;" x="246.698155" xlink:href="#me10884d16c" y="62.752535"/>
    </g>
   </g>
   <g id="line2d_34">
    <defs>
     <path d="M 0 1.5 
C 0.397805 1.5 0.77937 1.341951 1.06066 1.06066 
C 1.341951 0.77937 1.5 0.397805 1.5 0 
C 1.5 -0.397805 1.341951 -0.77937 1.06066 -1.06066 
C 0.77937 -1.341951 0.397805 -1.5 0 -1.5 
C -0.397805 -1.5 -0.77937 -1.341951 -1.06066 -1.06066 
C -1.341951 -0.77937 -1.5 -0.397805 -1.5 0 
C -1.5 0.397805 -1.341951 0.77937 -1.06066 1.06066 
C -0.77937 1.341951 -0.397805 1.5 0 1.5 
z
" id="m27f4432511" style="stroke:#000080;"/>
    </defs>
    <g>
     <use style="fill:#000080;stroke:#000080;" x="258.066058" xlink:href="#m27f4432511" y="76.646151"/>
     <use style="fill:#000080;stroke:#000080;" x="258.066058" xlink:href="#m27f4432511" y="76.646151"/>
    </g>
   </g>
   <g id="line2d_35">
    <path d="M 45.512012 298.944 
L 45.512012 291.534072 
L 64.67102 291.534072 
L 64.67102 291.070951 
L 69.687988 291.070951 
L 69.687988 289.68159 
L 73.579452 289.68159 
L 73.579452 289.218469 
L 76.759008 289.218469 
L 76.759008 287.365987 
L 81.775977 287.365987 
L 81.775977 286.439746 
L 83.830028 286.439746 
L 83.830028 285.513505 
L 85.66744 285.513505 
L 85.66744 284.587264 
L 87.329581 284.587264 
L 87.329581 284.124143 
L 90.242884 284.124143 
L 90.242884 283.661023 
L 91.535274 283.661023 
L 91.535274 283.197902 
L 92.73846 283.197902 
L 92.73846 281.808541 
L 95.918017 281.808541 
L 95.918017 279.029818 
L 96.86091 279.029818 
L 96.86091 278.566697 
L 98.606294 278.566697 
L 98.606294 277.177336 
L 102.330873 277.177336 
L 102.330873 275.787974 
L 102.989037 275.787974 
L 102.989037 275.324854 
L 103.623262 275.324854 
L 103.623262 274.398612 
L 107.009204 274.398612 
L 107.009204 273.009251 
L 107.514726 273.009251 
L 107.514726 271.619889 
L 111.104637 271.619889 
L 111.104637 271.156769 
L 111.505558 271.156769 
L 111.505558 270.230528 
L 111.897469 270.230528 
L 111.897469 269.767407 
L 113.022974 269.767407 
L 113.022974 268.841166 
L 113.382559 268.841166 
L 113.382559 268.378046 
L 114.418861 268.378046 
L 114.418861 267.914925 
L 114.751048 267.914925 
L 114.751048 266.988684 
L 116.323218 266.988684 
L 116.323218 266.062443 
L 118.310324 266.062443 
L 118.310324 265.599323 
L 119.602714 265.599323 
L 119.602714 264.673082 
L 120.093994 264.673082 
L 120.093994 264.209961 
L 122.573415 264.209961 
L 122.573415 261.894358 
L 123.593547 261.894358 
L 123.593547 260.968117 
L 128.260216 260.968117 
L 128.260216 260.504997 
L 129.290685 260.504997 
L 129.290685 260.041876 
L 131.814826 260.041876 
L 131.814826 259.578756 
L 133.800029 259.578756 
L 133.800029 259.115635 
L 135.381712 259.115635 
L 135.381712 258.189394 
L 138.426341 258.189394 
L 138.426341 257.263153 
L 138.927025 257.263153 
L 138.927025 256.336912 
L 140.723258 256.336912 
L 140.723258 253.558189 
L 141.162927 253.558189 
L 141.162927 251.705707 
L 142.215919 251.705707 
L 142.283909 250.779466 
L 144.209312 250.779466 
L 144.209312 249.853225 
L 146.377764 249.853225 
L 146.377764 248.926984 
L 146.538004 248.926984 
L 146.538004 248.000743 
L 149.690956 248.000743 
L 149.779481 246.611381 
L 149.911431 246.611381 
L 149.911431 245.68514 
L 150.085825 245.68514 
L 150.085825 244.758899 
L 151.421542 244.758899 
L 151.421542 243.832658 
L 151.541675 243.832658 
L 151.541675 243.369538 
L 152.130233 243.369538 
L 152.130233 242.906417 
L 152.436193 242.906417 
L 152.436193 241.980176 
L 152.624728 241.980176 
L 152.624728 240.590815 
L 155.200129 240.590815 
L 155.200129 239.664574 
L 155.678822 239.664574 
L 155.678822 239.201453 
L 156.717545 239.201453 
L 156.717545 238.275212 
L 157.011638 238.275212 
L 157.011638 237.812091 
L 157.214591 237.812091 
L 157.214591 237.348971 
L 159.758143 237.348971 
L 159.758143 236.88585 
L 161.007772 236.88585 
L 161.007772 235.959609 
L 164.524182 235.959609 
L 164.524182 235.496489 
L 165.714726 235.496489 
L 165.714726 234.570248 
L 167.703739 234.570248 
L 167.703739 233.644007 
L 168.032349 233.644007 
L 168.032349 233.180886 
L 168.611679 233.180886 
L 168.611679 232.254645 
L 168.835167 232.254645 
L 168.938489 230.865284 
L 169.503198 230.865284 
L 169.503198 229.939043 
L 170.036379 229.939043 
L 170.036379 229.012802 
L 170.432588 229.012802 
L 170.432588 228.086561 
L 170.620687 228.086561 
L 170.674059 226.697199 
L 170.990905 226.697199 
L 170.990905 226.234079 
L 172.056618 226.234079 
L 172.056618 225.770958 
L 173.049317 225.770958 
L 173.049317 224.844717 
L 173.165193 224.844717 
L 173.268827 223.455355 
L 174.391462 223.455355 
L 174.391462 222.992235 
L 175.313947 222.992235 
L 175.313947 222.065994 
L 176.014414 222.065994 
L 176.014414 220.676632 
L 176.199784 220.676632 
L 176.199784 219.750391 
L 177.208443 219.750391 
L 177.235899 218.36103 
L 178.231177 218.36103 
L 178.231177 217.897909 
L 178.649364 217.897909 
L 178.649364 217.434789 
L 179.180888 217.434789 
L 179.180888 216.971668 
L 179.343721 216.971668 
L 179.343721 216.045427 
L 180.019285 216.045427 
L 180.019285 215.582307 
L 180.366615 215.582307 
L 180.366615 215.119186 
L 182.020417 215.119186 
L 182.020417 214.192945 
L 183.796556 214.192945 
L 183.840444 212.340463 
L 184.606119 212.340463 
L 184.606119 211.877342 
L 184.749358 211.877342 
L 184.749358 211.414222 
L 185.172149 211.414222 
L 185.19534 210.487981 
L 185.93272 210.487981 
L 185.93272 208.172378 
L 187.020001 208.172378 
L 187.020001 207.709258 
L 187.665404 207.709258 
L 187.665404 206.783017 
L 188.175811 206.783017 
L 188.175811 205.856776 
L 189.505833 205.856776 
L 189.505833 205.393655 
L 189.667976 205.393655 
L 189.667976 204.467414 
L 190.60615 204.467414 
L 190.60615 203.541173 
L 191.305647 203.541173 
L 191.305647 203.078053 
L 191.729 203.078053 
L 191.729 202.151812 
L 192.492773 202.151812 
L 192.492773 199.836209 
L 192.61814 199.836209 
L 192.720047 198.446847 
L 192.75764 198.446847 
L 192.75764 197.520606 
L 193.121823 197.520606 
L 193.121823 196.594365 
L 195.114473 196.594365 
L 195.114473 196.131245 
L 195.570999 196.131245 
L 195.583777 194.741883 
L 195.688843 194.741883 
L 195.774338 192.889401 
L 195.94408 192.889401 
L 195.94408 192.426281 
L 196.189467 192.426281 
L 196.189467 191.96316 
L 197.169982 191.96316 
L 197.169982 191.50004 
L 197.332506 191.50004 
L 197.332506 191.036919 
L 197.533554 191.036919 
L 197.533554 190.573799 
L 197.967867 190.573799 
L 197.967867 189.647558 
L 198.208527 189.647558 
L 198.208527 189.184437 
L 198.367141 189.184437 
L 198.367141 188.721316 
L 199.084491 188.721316 
L 199.165295 186.405714 
L 199.395222 186.405714 
L 199.395222 185.942593 
L 200.266241 185.942593 
L 200.266241 185.479473 
L 200.383038 185.479473 
L 200.460471 184.553232 
L 200.503876 184.553232 
L 200.503876 184.090111 
L 200.712159 184.090111 
L 200.745445 180.848268 
L 202.342251 180.848268 
L 202.385547 178.532665 
L 202.728092 178.532665 
L 202.728092 178.069545 
L 202.926244 178.069545 
L 202.926244 177.143304 
L 203.330261 177.143304 
L 203.330261 176.217062 
L 203.85479 176.217062 
L 203.85479 175.753942 
L 204.696662 175.753942 
L 204.696662 175.290821 
L 204.894378 175.290821 
L 204.984021 174.36458 
L 205.178524 174.36458 
L 205.178524 173.90146 
L 205.356299 173.90146 
L 205.356299 173.438339 
L 205.824061 173.438339 
L 205.824061 172.975219 
L 206.52176 172.975219 
L 206.52176 172.512098 
L 206.779096 172.512098 
L 206.779096 171.585857 
L 206.989573 171.585857 
L 207.029377 170.659616 
L 207.110364 170.659616 
L 207.110364 170.196496 
L 207.56285 170.196496 
L 207.627001 168.807134 
L 208.704014 168.807134 
L 208.762608 167.880893 
L 208.950578 167.880893 
L 208.960962 166.028411 
L 209.164415 166.028411 
L 209.164415 165.565291 
L 209.445032 165.565291 
L 209.445032 164.63905 
L 209.786387 164.63905 
L 209.786387 164.175929 
L 210.411518 164.175929 
L 210.411518 163.712808 
L 210.585315 163.712808 
L 210.585315 163.249688 
L 210.90924 163.249688 
L 210.972781 161.860326 
L 211.384119 161.860326 
L 211.395731 160.007844 
L 211.528066 160.007844 
L 211.528066 159.081603 
L 211.706344 159.081603 
L 211.773363 158.155362 
L 211.871527 158.155362 
L 211.871527 157.692242 
L 212.290636 157.692242 
L 212.290636 157.229121 
L 212.435827 157.229121 
L 212.469814 156.30288 
L 212.654371 156.30288 
L 212.654371 155.376639 
L 212.855984 155.376639 
L 212.855984 154.450398 
L 213.132514 154.450398 
L 213.132514 153.987278 
L 213.411623 153.987278 
L 213.411623 153.524157 
L 213.840591 153.524157 
L 213.864116 152.134795 
L 214.033452 152.134795 
L 214.051182 151.208554 
L 214.77044 151.208554 
L 214.77044 150.745434 
L 215.303179 150.745434 
L 215.411079 149.819193 
L 215.663311 149.819193 
L 215.663311 148.892952 
L 215.826127 148.892952 
L 215.826127 148.429831 
L 215.964626 148.429831 
L 215.979506 147.50359 
L 216.286173 147.50359 
L 216.286173 146.577349 
L 216.588498 146.577349 
L 216.593286 145.651108 
L 216.925165 145.651108 
L 217.019774 144.261747 
L 217.252691 144.261747 
L 217.252691 143.798626 
L 217.577798 143.798626 
L 217.656335 141.946144 
L 218.06053 141.946144 
L 218.06053 141.483024 
L 218.286121 141.483024 
L 218.286121 141.019903 
L 218.591831 141.019903 
L 218.619127 139.630541 
L 218.815752 139.630541 
L 218.917429 137.778059 
L 219.140543 137.778059 
L 219.140543 137.314939 
L 219.562245 137.314939 
L 219.634764 135.925577 
L 219.792456 135.925577 
L 219.898118 134.536216 
L 219.922654 134.536216 
L 220.020455 133.146854 
L 220.337662 133.146854 
L 220.417032 131.294372 
L 220.5251 131.294372 
L 220.5251 130.368131 
L 221.102994 130.368131 
L 221.162764 129.44189 
L 221.289009 129.44189 
L 221.289009 128.97877 
L 221.458581 128.97877 
L 221.458581 128.515649 
L 221.688101 128.515649 
L 221.688101 128.052529 
L 222.236905 128.052529 
L 222.254213 127.126287 
L 222.446891 127.126287 
L 222.446891 126.200046 
L 222.616467 126.200046 
L 222.658435 124.810685 
L 222.885472 124.810685 
L 222.956733 122.958203 
L 223.091134 122.958203 
L 223.091134 122.495082 
L 223.254589 122.495082 
L 223.254589 122.031962 
L 223.402278 122.031962 
L 223.402278 121.105721 
L 223.886574 121.105721 
L 223.987104 120.17948 
L 224.350422 120.17948 
L 224.350422 119.253239 
L 224.657561 119.253239 
L 224.657561 118.790118 
L 224.844054 118.790118 
L 224.844054 118.326998 
L 224.961162 118.326998 
L 224.961162 117.400757 
L 225.145039 117.400757 
L 225.197722 115.548274 
L 225.266556 115.548274 
L 225.319454 114.158913 
L 225.480069 114.158913 
L 225.480069 113.695792 
L 225.636938 113.695792 
L 225.636938 112.769551 
L 225.77715 112.769551 
L 225.77715 112.306431 
L 226.504134 112.306431 
L 226.504134 111.84331 
L 226.675739 111.84331 
L 226.675739 110.917069 
L 226.845671 110.917069 
L 226.845671 110.453949 
L 227.057097 110.453949 
L 227.057097 109.990828 
L 227.348852 109.990828 
L 227.37673 109.064587 
L 227.460095 109.064587 
L 227.460095 108.601467 
L 227.80876 108.601467 
L 227.80876 108.138346 
L 228.375623 108.138346 
L 228.375623 107.675226 
L 228.521149 107.675226 
L 228.521149 106.748985 
L 229.041309 106.748985 
L 229.082989 105.359623 
L 229.640887 105.359623 
L 229.640887 104.433382 
L 230.257744 104.433382 
L 230.317549 102.5809 
L 230.501781 102.5809 
L 230.501781 102.117779 
L 230.635373 102.117779 
L 230.635373 101.191538 
L 230.966414 101.191538 
L 230.966414 100.728418 
L 231.615074 100.728418 
L 231.615074 100.265297 
L 232.471929 100.265297 
L 232.471929 99.802177 
L 232.67525 99.802177 
L 232.67525 98.875936 
L 233.346987 98.875936 
L 233.378825 97.949695 
L 233.832466 97.949695 
L 233.832466 97.486574 
L 234.013913 97.486574 
L 234.057574 95.634092 
L 235.032089 95.634092 
L 235.032089 95.170972 
L 235.729623 95.170972 
L 235.729623 94.707851 
L 237.10564 94.707851 
L 237.10564 93.78161 
L 238.069734 93.78161 
L 238.069734 93.31849 
L 239.394682 93.31849 
L 239.394682 92.855369 
L 240.358321 92.855369 
L 240.358321 91.929128 
L 241.230514 91.929128 
L 241.230514 91.466008 
L 242.691667 91.466008 
L 242.691667 91.002887 
L 245.141685 91.002887 
L 245.141685 90.539766 
L 245.922948 90.539766 
L 245.940037 88.687284 
L 246.571294 88.687284 
L 246.571294 87.761043 
L 246.686226 87.761043 
L 246.686226 87.297923 
L 247.565779 87.297923 
L 247.565779 86.834802 
L 248.260386 86.834802 
L 248.260386 85.908561 
L 249.366684 85.908561 
L 249.366684 84.98232 
L 249.95553 84.98232 
L 249.95553 84.5192 
L 251.089848 84.5192 
L 251.089848 83.592959 
L 252.72681 83.592959 
L 252.72681 83.129838 
L 253.401167 83.129838 
L 253.401167 82.203597 
L 253.849791 82.203597 
L 253.849791 81.277356 
L 254.032302 81.277356 
L 254.032302 80.814236 
L 255.36683 80.814236 
L 255.413089 78.961753 
L 255.786701 78.961753 
L 255.786701 78.498633 
L 257.487856 78.498633 
L 257.487856 77.572392 
L 258.033273 77.572392 
L 258.066058 76.646151 
L 338.688 76.646151 
L 338.688 76.646151 
" style="fill:none;stroke:#000080;stroke-linecap:square;stroke-width:1.5;"/>
   </g>
   <g id="line2d_36">
    <defs>
     <path d="M 0 6 
C 1.591219 6 3.117479 5.367802 4.242641 4.242641 
C 5.367802 3.117479 6 1.591219 6 0 
C 6 -1.591219 5.367802 -3.117479 4.242641 -4.242641 
C 3.117479 -5.367802 1.591219 -6 0 -6 
C -1.591219 -6 -3.117479 -5.367802 -4.242641 -4.242641 
C -5.367802 -3.117479 -6 -1.591219 -6 0 
C -6 1.591219 -5.367802 3.117479 -4.242641 4.242641 
C -3.117479 5.367802 -1.591219 6 0 6 
z
" id="mc21e6de78b" style="stroke:#000080;stroke-width:1.5;"/>
    </defs>
    <g>
     <use style="fill-opacity:0;stroke:#000080;stroke-width:1.5;" x="87.329581" xlink:href="#mc21e6de78b" y="284.587264"/>
     <use style="fill-opacity:0;stroke:#000080;stroke-width:1.5;" x="165.714726" xlink:href="#mc21e6de78b" y="235.496489"/>
     <use style="fill-opacity:0;stroke:#000080;stroke-width:1.5;" x="211.773363" xlink:href="#mc21e6de78b" y="158.155362"/>
     <use style="fill-opacity:0;stroke:#000080;stroke-width:1.5;" x="258.066058" xlink:href="#mc21e6de78b" y="77.109271"/>
     <use style="fill-opacity:0;stroke:#000080;stroke-width:1.5;" x="258.066058" xlink:href="#mc21e6de78b" y="76.646151"/>
     <use style="fill-opacity:0;stroke:#000080;stroke-width:1.5;" x="338.688" xlink:href="#mc21e6de78b" y="76.646151"/>
    </g>
   </g>
   <g id="line2d_37">
    <path style="fill:none;stroke:#000080;stroke-linecap:square;stroke-width:1.5;"/>
    <g/>
   </g>
   <g id="line2d_38">
    <path clip-path="url(#pf0710b7aea)" d="M 258.377579 76.646151 
" style="fill:none;stroke:#000080;stroke-linecap:square;stroke-width:1.5;"/>
    <defs>
     <path d="M -12 12 
L 12 -12 
M -12 -12 
L 12 12 
" id="m5cab2268dc" style="stroke:#000080;"/>
    </defs>
    <g clip-path="url(#pf0710b7aea)">
     <use style="fill:#000080;stroke:#000080;" x="258.377579" xlink:href="#m5cab2268dc" y="76.646151"/>
    </g>
   </g>
   <g id="line2d_39">
    <defs>
     <path d="M 0 1.5 
C 0.397805 1.5 0.77937 1.341951 1.06066 1.06066 
C 1.341951 0.77937 1.5 0.397805 1.5 0 
C 1.5 -0.397805 1.341951 -0.77937 1.06066 -1.06066 
C 0.77937 -1.341951 0.397805 -1.5 0 -1.5 
C -0.397805 -1.5 -0.77937 -1.341951 -1.06066 -1.06066 
C -1.341951 -0.77937 -1.5 -0.397805 -1.5 0 
C -1.5 0.397805 -1.341951 0.77937 -1.06066 1.06066 
C -0.77937 1.341951 -0.397805 1.5 0 1.5 
z
" id="m9bf781417a" style="stroke:#ff00ff;"/>
    </defs>
    <g>
     <use style="fill:#ff00ff;stroke:#ff00ff;" x="257.120842" xlink:href="#m9bf781417a" y="126.663167"/>
     <use style="fill:#ff00ff;stroke:#ff00ff;" x="257.120842" xlink:href="#m9bf781417a" y="126.663167"/>
    </g>
   </g>
   <g id="line2d_40">
    <path d="M 45.512012 298.944 
L 45.512012 290.14471 
L 83.830028 290.14471 
L 83.830028 287.365987 
L 116.621333 287.365987 
L 116.621333 286.439746 
L 140.042245 286.439746 
L 140.042245 285.976625 
L 140.871049 285.976625 
L 140.871049 285.513505 
L 142.949611 285.513505 
L 142.949611 285.050384 
L 144.688773 285.050384 
L 144.747789 284.124143 
L 145.212864 284.124143 
L 145.212864 282.734782 
L 146.538004 282.734782 
L 146.538004 281.808541 
L 147.061745 281.808541 
L 147.061745 280.8823 
L 147.266916 280.8823 
L 147.266916 280.419179 
L 147.52003 280.419179 
L 147.52003 279.956059 
L 147.670154 279.956059 
L 147.670154 278.566697 
L 148.449693 278.566697 
L 148.449693 277.640456 
L 149.104327 277.640456 
L 149.104327 275.787974 
L 149.779481 275.787974 
L 149.779481 275.324854 
L 150.085825 275.324854 
L 150.129152 273.472371 
L 150.556607 273.472371 
L 150.556607 272.08301 
L 150.682827 272.08301 
L 150.682827 271.156769 
L 151.461678 271.156769 
L 151.461678 269.304287 
L 151.818809 269.304287 
L 151.818809 268.841166 
L 152.130233 268.841166 
L 152.207228 266.988684 
L 154.029268 266.988684 
L 154.029268 266.062443 
L 154.201424 266.062443 
L 154.201424 265.599323 
L 154.337936 265.599323 
L 154.337936 265.136202 
L 154.607795 265.136202 
L 154.641235 263.746841 
L 154.873541 263.746841 
L 154.93935 261.431238 
L 155.329071 261.431238 
L 155.329071 260.504997 
L 155.678822 260.504997 
L 155.678822 258.652515 
L 156.266892 258.652515 
L 156.266892 257.726274 
L 156.418408 257.726274 
L 156.508689 256.336912 
L 156.687861 256.336912 
L 156.687861 255.873792 
L 157.1279 255.873792 
L 157.156845 254.48443 
L 157.329512 254.48443 
L 157.329512 253.558189 
L 157.697862 253.558189 
L 157.781772 251.705707 
L 158.113432 251.705707 
L 158.113432 251.242587 
L 158.546057 251.242587 
L 158.652556 249.853225 
L 158.67908 249.853225 
L 158.75841 248.463863 
L 158.811096 248.463863 
L 158.811096 248.000743 
L 159.507213 248.000743 
L 159.507213 246.611381 
L 159.956318 246.611381 
L 160.030058 243.369538 
L 160.585265 243.369538 
L 160.680044 240.590815 
L 160.727241 240.590815 
L 160.774311 239.201453 
L 160.891432 239.201453 
L 160.891432 238.738333 
L 161.169354 238.738333 
L 161.169354 237.812091 
L 161.329454 237.812091 
L 161.329454 235.033368 
L 161.442917 235.033368 
L 161.53316 232.717766 
L 162.043181 232.717766 
L 162.043181 232.254645 
L 162.173813 232.254645 
L 162.173813 225.307837 
L 162.389382 225.307837 
L 162.389382 224.844717 
L 162.602318 224.844717 
L 162.602318 223.455355 
L 162.875305 223.455355 
L 162.916926 222.065994 
L 163.061823 222.065994 
L 163.061823 221.602873 
L 163.867476 221.602873 
L 163.867476 221.139753 
L 164.179597 221.139753 
L 164.179597 220.676632 
L 164.295217 220.676632 
L 164.333587 218.82415 
L 164.712717 218.82415 
L 164.712717 217.897909 
L 165.820633 217.897909 
L 165.820633 217.434789 
L 166.030537 217.434789 
L 166.134549 214.656066 
L 166.695783 214.656066 
L 166.695783 214.192945 
L 166.994465 214.192945 
L 166.994465 213.729825 
L 167.174506 213.729825 
L 167.190782 211.877342 
L 167.352708 211.877342 
L 167.352708 210.951101 
L 167.923499 210.951101 
L 167.923499 210.487981 
L 168.140524 210.487981 
L 168.217383 207.246137 
L 168.309168 207.246137 
L 168.309168 206.783017 
L 168.71633 206.783017 
L 168.71633 206.319896 
L 169.070439 206.319896 
L 169.070439 205.393655 
L 169.374494 205.393655 
L 169.374494 204.930535 
L 169.673338 204.930535 
L 169.673338 204.004294 
L 170.310587 204.004294 
L 170.364915 202.614932 
L 171.095254 202.614932 
L 171.095254 201.688691 
L 171.289242 201.688691 
L 171.289242 200.299329 
L 171.531901 200.299329 
L 171.531901 199.373088 
L 172.325296 199.373088 
L 172.325296 198.909968 
L 172.97942 198.909968 
L 173.06094 197.057486 
L 173.530906 197.057486 
L 173.530906 196.594365 
L 173.911252 196.594365 
L 173.911252 196.131245 
L 174.658532 196.131245 
L 174.764225 194.278763 
L 175.486665 194.278763 
L 175.486665 193.352522 
L 176.866214 193.352522 
L 176.866214 192.889401 
L 177.005766 192.889401 
L 177.005766 191.96316 
L 177.171768 191.96316 
L 177.272441 190.110678 
L 177.588952 190.110678 
L 177.588952 189.184437 
L 177.713965 189.184437 
L 177.79386 188.258196 
L 177.882205 188.258196 
L 177.882205 187.795075 
L 178.013889 187.795075 
L 178.013889 187.331955 
L 179.319393 187.331955 
L 179.319393 186.868834 
L 180.097069 186.868834 
L 180.097069 186.405714 
L 180.2131 186.405714 
L 180.2131 185.942593 
L 180.518792 185.942593 
L 180.579292 184.553232 
L 181.690637 184.553232 
L 181.690637 184.090111 
L 182.635021 184.090111 
L 182.635021 183.626991 
L 183.518129 183.626991 
L 183.518129 183.16387 
L 186.032405 183.16387 
L 186.032405 182.70075 
L 186.409338 182.70075 
L 186.409338 182.237629 
L 188.504772 182.237629 
L 188.504772 181.774509 
L 188.940185 181.774509 
L 188.949531 180.385147 
L 191.22383 180.385147 
L 191.22383 179.922027 
L 192.304942 179.922027 
L 192.304942 179.458906 
L 192.716283 179.458906 
L 192.742612 178.532665 
L 194.24342 178.532665 
L 194.24342 178.069545 
L 195.068485 178.069545 
L 195.068485 177.606424 
L 195.232174 177.606424 
L 195.232174 176.680183 
L 198.233234 176.680183 
L 198.307147 175.290821 
L 200.05253 175.290821 
L 200.116673 174.36458 
L 200.214895 174.36458 
L 200.214895 173.90146 
L 201.079514 173.90146 
L 201.100473 172.512098 
L 203.503483 172.512098 
L 203.503483 172.048978 
L 203.997297 172.048978 
L 203.997297 171.585857 
L 205.674306 171.585857 
L 205.674306 170.659616 
L 207.102117 170.659616 
L 207.102117 169.270255 
L 207.437074 169.270255 
L 207.437074 168.344014 
L 208.676904 168.344014 
L 208.676904 167.417773 
L 209.4508 167.417773 
L 209.525616 166.491532 
L 210.110086 166.491532 
L 210.110086 166.028411 
L 210.356849 166.028411 
L 210.356849 165.565291 
L 210.963529 165.565291 
L 210.963529 165.10217 
L 211.182927 165.10217 
L 211.182927 164.63905 
L 212.736968 164.63905 
L 212.736968 164.175929 
L 212.968301 164.175929 
L 213.063498 162.323447 
L 213.098625 162.323447 
L 213.189625 161.397206 
L 214.102054 161.397206 
L 214.109782 160.470965 
L 214.264731 160.470965 
L 214.264731 160.007844 
L 214.445405 160.007844 
L 214.445405 159.544724 
L 216.124666 159.544724 
L 216.124666 159.081603 
L 216.379458 159.081603 
L 216.379458 158.155362 
L 217.66624 158.155362 
L 217.66624 157.692242 
L 219.912369 157.692242 
L 219.912369 157.229121 
L 220.066013 157.229121 
L 220.066013 156.766001 
L 222.11248 156.766001 
L 222.11248 156.30288 
L 222.451681 156.30288 
L 222.519282 155.376639 
L 222.83468 155.376639 
L 222.94277 153.061037 
L 223.130661 153.061037 
L 223.130661 152.597916 
L 224.300035 152.597916 
L 224.300035 152.134795 
L 224.579617 152.134795 
L 224.579617 151.671675 
L 226.340133 151.671675 
L 226.340133 150.745434 
L 228.353201 150.745434 
L 228.353201 150.282313 
L 228.710448 150.282313 
L 228.710448 149.819193 
L 230.446932 149.819193 
L 230.446932 149.356072 
L 230.810789 149.356072 
L 230.810789 148.892952 
L 231.322169 148.892952 
L 231.322169 147.966711 
L 231.804578 147.966711 
L 231.804578 147.50359 
L 232.496176 147.50359 
L 232.496176 147.04047 
L 232.783029 147.04047 
L 232.783029 146.577349 
L 233.298936 146.577349 
L 233.298936 145.187988 
L 234.056871 145.187988 
L 234.056871 144.724867 
L 234.4615 144.724867 
L 234.4615 144.261747 
L 234.822993 144.261747 
L 234.822993 143.798626 
L 235.346497 143.798626 
L 235.410722 142.872385 
L 235.833476 142.872385 
L 235.833476 141.946144 
L 238.22965 141.946144 
L 238.22965 141.019903 
L 238.77178 141.019903 
L 238.77178 140.093662 
L 238.985166 140.093662 
L 238.985166 139.630541 
L 240.41532 139.630541 
L 240.41532 139.167421 
L 240.775006 139.167421 
L 240.775006 138.24118 
L 242.547244 138.24118 
L 242.547244 137.314939 
L 245.060663 137.314939 
L 245.13945 135.462457 
L 245.353468 135.462457 
L 245.353468 134.999336 
L 245.93541 134.999336 
L 245.989251 134.073095 
L 246.687078 134.073095 
L 246.687078 133.609975 
L 246.936542 133.609975 
L 246.936542 133.146854 
L 247.963182 133.146854 
L 248.07389 131.757493 
L 248.548168 131.757493 
L 248.548168 131.294372 
L 249.356595 131.294372 
L 249.356595 130.831252 
L 250.87841 130.831252 
L 250.918309 129.44189 
L 251.26247 129.44189 
L 251.26247 128.97877 
L 251.420411 128.97877 
L 251.420411 128.515649 
L 252.189221 128.515649 
L 252.189221 128.052529 
L 253.903291 128.052529 
L 253.903291 127.589408 
L 256.222175 127.589408 
L 256.222175 127.126287 
L 257.120842 127.126287 
L 257.120842 126.663167 
L 338.688 126.663167 
L 338.688 126.663167 
" style="fill:none;stroke:#ff00ff;stroke-linecap:square;stroke-width:1.5;"/>
   </g>
   <g id="line2d_41">
    <defs>
     <path d="M 0 8.485281 
L 5.091169 0 
L 0 -8.485281 
L -5.091169 0 
z
" id="m84b55407da" style="stroke:#ff00ff;stroke-linejoin:miter;stroke-width:1.5;"/>
    </defs>
    <g>
     <use style="fill-opacity:0;stroke:#ff00ff;stroke-linejoin:miter;stroke-width:1.5;" x="83.830028" xlink:href="#m84b55407da" y="290.14471"/>
     <use style="fill-opacity:0;stroke:#ff00ff;stroke-linejoin:miter;stroke-width:1.5;" x="162.173813" xlink:href="#m84b55407da" y="232.254645"/>
     <use style="fill-opacity:0;stroke:#ff00ff;stroke-linejoin:miter;stroke-width:1.5;" x="210.963529" xlink:href="#m84b55407da" y="165.10217"/>
     <use style="fill-opacity:0;stroke:#ff00ff;stroke-linejoin:miter;stroke-width:1.5;" x="257.120842" xlink:href="#m84b55407da" y="127.126287"/>
     <use style="fill-opacity:0;stroke:#ff00ff;stroke-linejoin:miter;stroke-width:1.5;" x="257.120842" xlink:href="#m84b55407da" y="126.663167"/>
     <use style="fill-opacity:0;stroke:#ff00ff;stroke-linejoin:miter;stroke-width:1.5;" x="338.688" xlink:href="#m84b55407da" y="126.663167"/>
    </g>
   </g>
   <g id="line2d_42">
    <path style="fill:none;stroke:#ff00ff;stroke-linecap:square;stroke-width:1.5;"/>
    <g/>
   </g>
   <g id="line2d_43">
    <path clip-path="url(#pf0710b7aea)" d="M 258.387255 126.663167 
" style="fill:none;stroke:#ff00ff;stroke-linecap:square;stroke-width:1.5;"/>
    <defs>
     <path d="M -12 12 
L 12 -12 
M -12 -12 
L 12 12 
" id="m7da437eed3" style="stroke:#ff00ff;"/>
    </defs>
    <g clip-path="url(#pf0710b7aea)">
     <use style="fill:#ff00ff;stroke:#ff00ff;" x="258.387255" xlink:href="#m7da437eed3" y="126.663167"/>
    </g>
   </g>
   <g id="line2d_44">
    <defs>
     <path d="M 0 1.5 
C 0.397805 1.5 0.77937 1.341951 1.06066 1.06066 
C 1.341951 0.77937 1.5 0.397805 1.5 0 
C 1.5 -0.397805 1.341951 -0.77937 1.06066 -1.06066 
C 0.77937 -1.341951 0.397805 -1.5 0 -1.5 
C -0.397805 -1.5 -0.77937 -1.341951 -1.06066 -1.06066 
C -1.341951 -0.77937 -1.5 -0.397805 -1.5 0 
C -1.5 0.397805 -1.341951 0.77937 -1.06066 1.06066 
C -0.77937 1.341951 -0.397805 1.5 0 1.5 
z
" id="md4fb4c095c" style="stroke:#ff7500;"/>
    </defs>
    <g>
     <use style="fill:#ff7500;stroke:#ff7500;" x="253.557972" xlink:href="#md4fb4c095c" y="170.196496"/>
     <use style="fill:#ff7500;stroke:#ff7500;" x="253.557972" xlink:href="#md4fb4c095c" y="170.196496"/>
    </g>
   </g>
   <g id="line2d_45">
    <path d="M 135.878591 298.944 
L 135.878591 298.480879 
L 138.84457 298.480879 
L 138.84457 297.554638 
L 145.270136 297.554638 
L 145.270136 295.702156 
L 145.777292 295.702156 
L 145.777292 294.775915 
L 146.161795 294.775915 
L 146.270114 293.386554 
L 149.422654 293.386554 
L 149.422654 292.923433 
L 149.60198 292.923433 
L 149.60198 290.607831 
L 150.556607 290.607831 
L 150.556607 290.14471 
L 152.360205 290.14471 
L 152.398241 289.218469 
L 152.587184 289.218469 
L 152.624728 287.829108 
L 152.885298 287.829108 
L 152.885298 285.976625 
L 153.069065 285.976625 
L 153.069065 285.513505 
L 154.906477 285.513505 
L 154.93935 283.197902 
L 155.425155 283.197902 
L 155.425155 281.808541 
L 155.710272 281.808541 
L 155.710272 281.34542 
L 156.052535 281.34542 
L 156.052535 280.8823 
L 156.806295 280.8823 
L 156.806295 279.956059 
L 157.329512 279.956059 
L 157.358125 278.103577 
L 157.86528 278.103577 
L 157.86528 276.251095 
L 158.058592 276.251095 
L 158.058592 275.324854 
L 158.942121 275.324854 
L 158.942121 274.398612 
L 159.380382 274.398612 
L 159.380382 273.935492 
L 159.956318 273.935492 
L 160.005512 272.54613 
L 160.200913 272.54613 
L 160.200913 271.619889 
L 161.555647 271.619889 
L 161.555647 270.230528 
L 161.933569 270.230528 
L 161.977497 268.378046 
L 162.10862 268.378046 
L 162.152109 266.525564 
L 162.453536 266.525564 
L 162.453536 266.062443 
L 162.665696 266.062443 
L 162.665696 263.746841 
L 162.854457 263.746841 
L 162.854457 262.8206 
L 164.004716 262.8206 
L 164.004716 261.894358 
L 164.333587 261.894358 
L 164.333587 261.431238 
L 164.448194 261.431238 
L 164.543127 260.041876 
L 164.991751 260.041876 
L 165.065412 259.115635 
L 165.211808 259.115635 
L 165.211808 258.652515 
L 165.356985 258.652515 
L 165.447111 257.726274 
L 165.625977 257.726274 
L 165.625977 257.263153 
L 165.820633 257.263153 
L 165.890882 254.947551 
L 166.729224 254.947551 
L 166.729224 251.705707 
L 166.878918 251.705707 
L 166.878918 251.242587 
L 167.125588 251.242587 
L 167.141909 249.853225 
L 167.417059 249.853225 
L 167.481174 248.000743 
L 167.656285 248.000743 
L 167.656285 247.537622 
L 168.001318 247.537622 
L 168.001318 247.074502 
L 168.805533 247.074502 
L 168.805533 246.611381 
L 169.041203 246.611381 
L 169.041203 245.68514 
L 169.230367 245.68514 
L 169.230367 245.22202 
L 169.345764 245.22202 
L 169.345764 244.295779 
L 169.488944 244.295779 
L 169.488944 243.369538 
L 169.673338 243.369538 
L 169.687442 241.980176 
L 170.063995 241.980176 
L 170.132843 241.053935 
L 170.40555 241.053935 
L 170.40555 240.127694 
L 170.567151 240.127694 
L 170.567151 239.664574 
L 170.780315 239.664574 
L 170.846398 238.738333 
L 171.121244 238.738333 
L 171.121244 237.812091 
L 171.237722 237.812091 
L 171.237722 236.88585 
L 171.871027 236.88585 
L 171.871027 235.959609 
L 172.373705 235.959609 
L 172.470121 234.570248 
L 172.589897 234.570248 
L 172.589897 234.107127 
L 172.756213 234.107127 
L 172.756213 233.180886 
L 173.130511 233.180886 
L 173.234351 231.328404 
L 173.462916 231.328404 
L 173.462916 230.402163 
L 173.576085 230.402163 
L 173.643636 227.16032 
L 173.688525 227.16032 
L 173.688525 226.697199 
L 173.944417 226.697199 
L 173.944417 225.770958 
L 174.196608 225.770958 
L 174.272644 223.918476 
L 174.498781 223.918476 
L 174.498781 222.992235 
L 174.637316 222.992235 
L 174.637316 222.065994 
L 174.774759 222.065994 
L 174.774759 221.602873 
L 175.025688 221.602873 
L 175.025688 221.139753 
L 175.211544 221.139753 
L 175.211544 220.213512 
L 175.344551 220.213512 
L 175.354741 218.36103 
L 175.607562 218.36103 
L 175.607562 217.897909 
L 175.817135 217.897909 
L 175.846869 216.508548 
L 176.063387 216.508548 
L 176.102467 215.119186 
L 176.228874 215.119186 
L 176.296562 213.729825 
L 176.507601 213.729825 
L 176.507601 212.803583 
L 176.697263 212.803583 
L 176.706692 210.951101 
L 176.875552 210.951101 
L 176.875552 210.02486 
L 177.199282 210.02486 
L 177.245042 205.393655 
L 177.36346 205.393655 
L 177.444973 204.004294 
L 177.696161 204.004294 
L 177.731751 202.151812 
L 177.934998 202.151812 
L 177.934998 201.688691 
L 178.403079 201.688691 
L 178.479885 200.299329 
L 178.666222 200.299329 
L 178.666222 199.836209 
L 178.783772 199.836209 
L 178.850589 197.983727 
L 178.991731 197.983727 
L 178.991731 197.520606 
L 179.254351 197.520606 
L 179.351823 196.594365 
L 179.569163 196.594365 
L 179.569163 196.131245 
L 179.712566 196.131245 
L 179.712566 195.668124 
L 180.019285 195.668124 
L 180.019285 194.741883 
L 180.305371 194.741883 
L 180.305371 194.278763 
L 180.450477 194.278763 
L 180.450477 193.352522 
L 180.67716 193.352522 
L 180.67716 192.889401 
L 180.841542 192.889401 
L 180.841542 192.426281 
L 180.989647 192.426281 
L 181.055886 191.036919 
L 181.605428 191.036919 
L 181.66228 189.184437 
L 181.747212 189.184437 
L 181.747212 188.258196 
L 181.999553 188.258196 
L 181.999553 187.795075 
L 182.213959 187.795075 
L 182.26201 186.405714 
L 182.439337 186.405714 
L 182.439337 185.942593 
L 182.648436 185.942593 
L 182.668539 183.626991 
L 182.788672 183.626991 
L 182.788672 182.70075 
L 182.980496 182.70075 
L 183.059259 181.774509 
L 183.280506 181.774509 
L 183.280506 181.311388 
L 183.702136 181.311388 
L 183.702136 180.848268 
L 184.144607 180.848268 
L 184.144607 180.385147 
L 185.224285 180.385147 
L 185.247406 179.458906 
L 185.505431 179.458906 
L 185.613239 178.069545 
L 186.175396 178.069545 
L 186.175396 177.606424 
L 186.570714 177.606424 
L 186.570714 177.143304 
L 198.051228 177.143304 
L 198.051228 176.680183 
L 249.512545 176.680183 
L 249.512545 175.753942 
L 250.966254 175.753942 
L 250.966254 174.827701 
L 252.971514 174.827701 
L 252.971514 174.36458 
L 253.44079 174.36458 
L 253.538075 171.122737 
L 253.557972 171.122737 
L 253.557972 170.196496 
L 338.688 170.196496 
L 338.688 170.196496 
" style="fill:none;stroke:#ff7500;stroke-linecap:square;stroke-width:1.5;"/>
   </g>
   <g id="line2d_46">
    <defs>
     <path d="M 0 -6 
L -1.347084 -1.854102 
L -5.706339 -1.854102 
L -2.179628 0.708204 
L -3.526712 4.854102 
L -0 2.291796 
L 3.526712 4.854102 
L 2.179628 0.708204 
L 5.706339 -1.854102 
L 1.347084 -1.854102 
z
" id="maf8b6c4add" style="stroke:#ff7500;stroke-linejoin:bevel;stroke-width:1.5;"/>
    </defs>
    <g>
     <use style="fill-opacity:0;stroke:#ff7500;stroke-linejoin:bevel;stroke-width:1.5;" x="198.051228" xlink:href="#maf8b6c4add" y="177.143304"/>
     <use style="fill-opacity:0;stroke:#ff7500;stroke-linejoin:bevel;stroke-width:1.5;" x="253.557972" xlink:href="#maf8b6c4add" y="171.122737"/>
     <use style="fill-opacity:0;stroke:#ff7500;stroke-linejoin:bevel;stroke-width:1.5;" x="253.557972" xlink:href="#maf8b6c4add" y="170.196496"/>
     <use style="fill-opacity:0;stroke:#ff7500;stroke-linejoin:bevel;stroke-width:1.5;" x="253.557972" xlink:href="#maf8b6c4add" y="170.196496"/>
     <use style="fill-opacity:0;stroke:#ff7500;stroke-linejoin:bevel;stroke-width:1.5;" x="338.688" xlink:href="#maf8b6c4add" y="170.196496"/>
    </g>
   </g>
   <g id="line2d_47">
    <path style="fill:none;stroke:#ff7500;stroke-linecap:square;stroke-width:1.5;"/>
    <g/>
   </g>
   <g id="line2d_48">
    <path clip-path="url(#pf0710b7aea)" d="M 258.37723 170.196496 
" style="fill:none;stroke:#ff7500;stroke-linecap:square;stroke-width:1.5;"/>
    <defs>
     <path d="M -12 12 
L 12 -12 
M -12 -12 
L 12 12 
" id="mce8536484e" style="stroke:#ff7500;"/>
    </defs>
    <g clip-path="url(#pf0710b7aea)">
     <use style="fill:#ff7500;stroke:#ff7500;" x="258.37723" xlink:href="#mce8536484e" y="170.196496"/>
    </g>
   </g>
   <g id="line2d_49">
    <path d="M 338.688 170.196496 
L 369.60768 293.571802 
" style="fill:none;stroke:#ff7500;stroke-linecap:square;stroke-width:1.5;"/>
    <g>
     <use style="fill-opacity:0;stroke:#ff7500;stroke-linejoin:bevel;stroke-width:1.5;" x="338.688" xlink:href="#maf8b6c4add" y="170.196496"/>
     <use style="fill-opacity:0;stroke:#ff7500;stroke-linejoin:bevel;stroke-width:1.5;" x="369.60768" xlink:href="#maf8b6c4add" y="293.571802"/>
    </g>
   </g>
   <g id="line2d_50">
    <path d="M 338.688 126.663167 
L 369.60768 207.616634 
" style="fill:none;stroke:#ff00ff;stroke-linecap:square;stroke-width:1.5;"/>
    <g>
     <use style="fill-opacity:0;stroke:#ff00ff;stroke-linejoin:miter;stroke-width:1.5;" x="338.688" xlink:href="#m84b55407da" y="126.663167"/>
     <use style="fill-opacity:0;stroke:#ff00ff;stroke-linejoin:miter;stroke-width:1.5;" x="369.60768" xlink:href="#m84b55407da" y="207.616634"/>
    </g>
   </g>
   <g id="line2d_51">
    <path d="M 338.688 76.646151 
L 369.60768 121.661465 
" style="fill:none;stroke:#000080;stroke-linecap:square;stroke-width:1.5;"/>
    <g>
     <use style="fill-opacity:0;stroke:#000080;stroke-width:1.5;" x="338.688" xlink:href="#mc21e6de78b" y="76.646151"/>
     <use style="fill-opacity:0;stroke:#000080;stroke-width:1.5;" x="369.60768" xlink:href="#mc21e6de78b" y="121.661465"/>
    </g>
   </g>
   <g id="line2d_52">
    <path d="M 338.688 298.944 
L 338.688 30.334099 
" style="fill:none;stroke:#000000;stroke-linecap:square;stroke-width:1.5;"/>
   </g>
   <g id="patch_3">
    <path d="M 57.6 298.944 
L 57.6 27.648 
" style="fill:none;stroke:#000000;stroke-linecap:square;stroke-linejoin:miter;stroke-width:0.8;"/>
   </g>
   <g id="patch_4">
    <path d="M 338.688 298.944 
L 338.688 27.648 
" style="fill:none;stroke:#000000;stroke-linecap:square;stroke-linejoin:miter;stroke-width:0.8;"/>
   </g>
   <g id="patch_5">
    <path d="M 57.6 298.944 
L 338.688 298.944 
" style="fill:none;stroke:#000000;stroke-linecap:square;stroke-linejoin:miter;stroke-width:0.8;"/>
   </g>
   <g id="patch_6">
    <path d="M 57.6 27.648 
L 338.688 27.648 
" style="fill:none;stroke:#000000;stroke-linecap:square;stroke-linejoin:miter;stroke-width:0.8;"/>
   </g>
   <g id="text_13">
    <!-- SMS-EMOA- -->
    <g transform="translate(375.22944 298.262739)scale(0.17 -0.17)">
     <defs>
      <path d="M 53.515625 70.515625 
L 53.515625 60.890625 
Q 47.90625 63.578125 42.921875 64.890625 
Q 37.9375 66.21875 33.296875 66.21875 
Q 25.25 66.21875 20.875 63.09375 
Q 16.5 59.96875 16.5 54.203125 
Q 16.5 49.359375 19.40625 46.890625 
Q 22.3125 44.4375 30.421875 42.921875 
L 36.375 41.703125 
Q 47.40625 39.59375 52.65625 34.296875 
Q 57.90625 29 57.90625 20.125 
Q 57.90625 9.515625 50.796875 4.046875 
Q 43.703125 -1.421875 29.984375 -1.421875 
Q 24.8125 -1.421875 18.96875 -0.25 
Q 13.140625 0.921875 6.890625 3.21875 
L 6.890625 13.375 
Q 12.890625 10.015625 18.65625 8.296875 
Q 24.421875 6.59375 29.984375 6.59375 
Q 38.421875 6.59375 43.015625 9.90625 
Q 47.609375 13.234375 47.609375 19.390625 
Q 47.609375 24.75 44.3125 27.78125 
Q 41.015625 30.8125 33.5 32.328125 
L 27.484375 33.5 
Q 16.453125 35.6875 11.515625 40.375 
Q 6.59375 45.0625 6.59375 53.421875 
Q 6.59375 63.09375 13.40625 68.65625 
Q 20.21875 74.21875 32.171875 74.21875 
Q 37.3125 74.21875 42.625 73.28125 
Q 47.953125 72.359375 53.515625 70.515625 
z
" id="DejaVuSans-83"/>
      <path d="M 9.8125 72.90625 
L 24.515625 72.90625 
L 43.109375 23.296875 
L 61.8125 72.90625 
L 76.515625 72.90625 
L 76.515625 0 
L 66.890625 0 
L 66.890625 64.015625 
L 48.09375 14.015625 
L 38.1875 14.015625 
L 19.390625 64.015625 
L 19.390625 0 
L 9.8125 0 
z
" id="DejaVuSans-77"/>
      <path d="M 9.8125 72.90625 
L 55.90625 72.90625 
L 55.90625 64.59375 
L 19.671875 64.59375 
L 19.671875 43.015625 
L 54.390625 43.015625 
L 54.390625 34.71875 
L 19.671875 34.71875 
L 19.671875 8.296875 
L 56.78125 8.296875 
L 56.78125 0 
L 9.8125 0 
z
" id="DejaVuSans-69"/>
      <path d="M 39.40625 66.21875 
Q 28.65625 66.21875 22.328125 58.203125 
Q 16.015625 50.203125 16.015625 36.375 
Q 16.015625 22.609375 22.328125 14.59375 
Q 28.65625 6.59375 39.40625 6.59375 
Q 50.140625 6.59375 56.421875 14.59375 
Q 62.703125 22.609375 62.703125 36.375 
Q 62.703125 50.203125 56.421875 58.203125 
Q 50.140625 66.21875 39.40625 66.21875 
z
M 39.40625 74.21875 
Q 54.734375 74.21875 63.90625 63.9375 
Q 73.09375 53.65625 73.09375 36.375 
Q 73.09375 19.140625 63.90625 8.859375 
Q 54.734375 -1.421875 39.40625 -1.421875 
Q 24.03125 -1.421875 14.8125 8.828125 
Q 5.609375 19.09375 5.609375 36.375 
Q 5.609375 53.65625 14.8125 63.9375 
Q 24.03125 74.21875 39.40625 74.21875 
z
" id="DejaVuSans-79"/>
      <path d="M 34.1875 63.1875 
L 20.796875 26.90625 
L 47.609375 26.90625 
z
M 28.609375 72.90625 
L 39.796875 72.90625 
L 67.578125 0 
L 57.328125 0 
L 50.6875 18.703125 
L 17.828125 18.703125 
L 11.1875 0 
L 0.78125 0 
z
" id="DejaVuSans-65"/>
     </defs>
     <use xlink:href="#DejaVuSans-83"/>
     <use x="63.476562" xlink:href="#DejaVuSans-77"/>
     <use x="149.755859" xlink:href="#DejaVuSans-83"/>
     <use x="213.232422" xlink:href="#DejaVuSans-45"/>
     <use x="249.316406" xlink:href="#DejaVuSans-69"/>
     <use x="312.5" xlink:href="#DejaVuSans-77"/>
     <use x="398.779297" xlink:href="#DejaVuSans-79"/>
     <use x="475.740234" xlink:href="#DejaVuSans-65"/>
     <use x="541.898438" xlink:href="#DejaVuSans-45"/>
    </g>
   </g>
   <g id="text_14">
    <!-- NSGA-II-M -->
    <g transform="translate(375.22944 212.307571)scale(0.17 -0.17)">
     <defs>
      <path d="M 9.8125 72.90625 
L 23.09375 72.90625 
L 55.421875 11.921875 
L 55.421875 72.90625 
L 64.984375 72.90625 
L 64.984375 0 
L 51.703125 0 
L 19.390625 60.984375 
L 19.390625 0 
L 9.8125 0 
z
" id="DejaVuSans-78"/>
      <path d="M 59.515625 10.40625 
L 59.515625 29.984375 
L 43.40625 29.984375 
L 43.40625 38.09375 
L 69.28125 38.09375 
L 69.28125 6.78125 
Q 63.578125 2.734375 56.6875 0.65625 
Q 49.8125 -1.421875 42 -1.421875 
Q 24.90625 -1.421875 15.25 8.5625 
Q 5.609375 18.5625 5.609375 36.375 
Q 5.609375 54.25 15.25 64.234375 
Q 24.90625 74.21875 42 74.21875 
Q 49.125 74.21875 55.546875 72.453125 
Q 61.96875 70.703125 67.390625 67.28125 
L 67.390625 56.78125 
Q 61.921875 61.421875 55.765625 63.765625 
Q 49.609375 66.109375 42.828125 66.109375 
Q 29.4375 66.109375 22.71875 58.640625 
Q 16.015625 51.171875 16.015625 36.375 
Q 16.015625 21.625 22.71875 14.15625 
Q 29.4375 6.6875 42.828125 6.6875 
Q 48.046875 6.6875 52.140625 7.59375 
Q 56.25 8.5 59.515625 10.40625 
z
" id="DejaVuSans-71"/>
      <path d="M 9.8125 72.90625 
L 19.671875 72.90625 
L 19.671875 0 
L 9.8125 0 
z
" id="DejaVuSans-73"/>
     </defs>
     <use xlink:href="#DejaVuSans-78"/>
     <use x="74.804688" xlink:href="#DejaVuSans-83"/>
     <use x="138.28125" xlink:href="#DejaVuSans-71"/>
     <use x="215.771484" xlink:href="#DejaVuSans-65"/>
     <use x="281.929688" xlink:href="#DejaVuSans-45"/>
     <use x="318.013672" xlink:href="#DejaVuSans-73"/>
     <use x="347.505859" xlink:href="#DejaVuSans-73"/>
     <use x="376.998047" xlink:href="#DejaVuSans-45"/>
     <use x="413.082031" xlink:href="#DejaVuSans-77"/>
    </g>
   </g>
   <g id="text_15">
    <!-- COMO-100  -->
    <g transform="translate(375.22944 126.352403)scale(0.17 -0.17)">
     <defs>
      <path d="M 64.40625 67.28125 
L 64.40625 56.890625 
Q 59.421875 61.53125 53.78125 63.8125 
Q 48.140625 66.109375 41.796875 66.109375 
Q 29.296875 66.109375 22.65625 58.46875 
Q 16.015625 50.828125 16.015625 36.375 
Q 16.015625 21.96875 22.65625 14.328125 
Q 29.296875 6.6875 41.796875 6.6875 
Q 48.140625 6.6875 53.78125 8.984375 
Q 59.421875 11.28125 64.40625 15.921875 
L 64.40625 5.609375 
Q 59.234375 2.09375 53.4375 0.328125 
Q 47.65625 -1.421875 41.21875 -1.421875 
Q 24.65625 -1.421875 15.125 8.703125 
Q 5.609375 18.84375 5.609375 36.375 
Q 5.609375 53.953125 15.125 64.078125 
Q 24.65625 74.21875 41.21875 74.21875 
Q 47.75 74.21875 53.53125 72.484375 
Q 59.328125 70.75 64.40625 67.28125 
z
" id="DejaVuSans-67"/>
     </defs>
     <use xlink:href="#DejaVuSans-67"/>
     <use x="69.824219" xlink:href="#DejaVuSans-79"/>
     <use x="148.535156" xlink:href="#DejaVuSans-77"/>
     <use x="234.814453" xlink:href="#DejaVuSans-79"/>
     <use x="316.275391" xlink:href="#DejaVuSans-45"/>
     <use x="352.359375" xlink:href="#DejaVuSans-49"/>
     <use x="415.982422" xlink:href="#DejaVuSans-48"/>
     <use x="479.605469" xlink:href="#DejaVuSans-48"/>
     <use x="543.228516" xlink:href="#DejaVuSans-32"/>
    </g>
   </g>
   <g id="text_16">
    <!-- best 2016 -->
    <g transform="translate(375.22944 40.397235)scale(0.17 -0.17)">
     <defs>
      <path d="M 48.6875 27.296875 
Q 48.6875 37.203125 44.609375 42.84375 
Q 40.53125 48.484375 33.40625 48.484375 
Q 26.265625 48.484375 22.1875 42.84375 
Q 18.109375 37.203125 18.109375 27.296875 
Q 18.109375 17.390625 22.1875 11.75 
Q 26.265625 6.109375 33.40625 6.109375 
Q 40.53125 6.109375 44.609375 11.75 
Q 48.6875 17.390625 48.6875 27.296875 
z
M 18.109375 46.390625 
Q 20.953125 51.265625 25.265625 53.625 
Q 29.59375 56 35.59375 56 
Q 45.5625 56 51.78125 48.09375 
Q 58.015625 40.1875 58.015625 27.296875 
Q 58.015625 14.40625 51.78125 6.484375 
Q 45.5625 -1.421875 35.59375 -1.421875 
Q 29.59375 -1.421875 25.265625 0.953125 
Q 20.953125 3.328125 18.109375 8.203125 
L 18.109375 0 
L 9.078125 0 
L 9.078125 75.984375 
L 18.109375 75.984375 
z
" id="DejaVuSans-98"/>
     </defs>
     <use xlink:href="#DejaVuSans-98"/>
     <use x="63.476562" xlink:href="#DejaVuSans-101"/>
     <use x="125" xlink:href="#DejaVuSans-115"/>
     <use x="177.099609" xlink:href="#DejaVuSans-116"/>
     <use x="216.308594" xlink:href="#DejaVuSans-32"/>
     <use x="248.095703" xlink:href="#DejaVuSans-50"/>
     <use x="311.71875" xlink:href="#DejaVuSans-48"/>
     <use x="375.341797" xlink:href="#DejaVuSans-49"/>
     <use x="438.964844" xlink:href="#DejaVuSans-54"/>
    </g>
   </g>
   <g id="text_17">
    <!-- bbob-biobj f14, 2-D -->
    <g transform="translate(60.41088 38.111366)scale(0.102 -0.102)">
     <defs>
      <path d="M 9.421875 54.6875 
L 18.40625 54.6875 
L 18.40625 -0.984375 
Q 18.40625 -11.421875 14.421875 -16.109375 
Q 10.453125 -20.796875 1.609375 -20.796875 
L -1.8125 -20.796875 
L -1.8125 -13.1875 
L 0.59375 -13.1875 
Q 5.71875 -13.1875 7.5625 -10.8125 
Q 9.421875 -8.453125 9.421875 -0.984375 
z
M 9.421875 75.984375 
L 18.40625 75.984375 
L 18.40625 64.59375 
L 9.421875 64.59375 
z
" id="DejaVuSans-106"/>
      <path d="M 19.671875 64.796875 
L 19.671875 8.109375 
L 31.59375 8.109375 
Q 46.6875 8.109375 53.6875 14.9375 
Q 60.6875 21.78125 60.6875 36.53125 
Q 60.6875 51.171875 53.6875 57.984375 
Q 46.6875 64.796875 31.59375 64.796875 
z
M 9.8125 72.90625 
L 30.078125 72.90625 
Q 51.265625 72.90625 61.171875 64.09375 
Q 71.09375 55.28125 71.09375 36.53125 
Q 71.09375 17.671875 61.125 8.828125 
Q 51.171875 0 30.078125 0 
L 9.8125 0 
z
" id="DejaVuSans-68"/>
     </defs>
     <use xlink:href="#DejaVuSans-98"/>
     <use x="63.476562" xlink:href="#DejaVuSans-98"/>
     <use x="126.953125" xlink:href="#DejaVuSans-111"/>
     <use x="188.134766" xlink:href="#DejaVuSans-98"/>
     <use x="251.611328" xlink:href="#DejaVuSans-45"/>
     <use x="287.695312" xlink:href="#DejaVuSans-98"/>
     <use x="351.171875" xlink:href="#DejaVuSans-105"/>
     <use x="378.955078" xlink:href="#DejaVuSans-111"/>
     <use x="440.136719" xlink:href="#DejaVuSans-98"/>
     <use x="503.613281" xlink:href="#DejaVuSans-106"/>
     <use x="531.396484" xlink:href="#DejaVuSans-32"/>
     <use x="563.183594" xlink:href="#DejaVuSans-102"/>
     <use x="598.388672" xlink:href="#DejaVuSans-49"/>
     <use x="662.011719" xlink:href="#DejaVuSans-52"/>
     <use x="725.634766" xlink:href="#DejaVuSans-44"/>
     <use x="757.421875" xlink:href="#DejaVuSans-32"/>
     <use x="789.208984" xlink:href="#DejaVuSans-50"/>
     <use x="852.832031" xlink:href="#DejaVuSans-45"/>
     <use x="888.916016" xlink:href="#DejaVuSans-68"/>
    </g>
    <!-- 58 targets: 1..-1.0e-4 -->
    <g transform="translate(60.41088 49.533135)scale(0.102 -0.102)">
     <defs>
      <path d="M 10.796875 72.90625 
L 49.515625 72.90625 
L 49.515625 64.59375 
L 19.828125 64.59375 
L 19.828125 46.734375 
Q 21.96875 47.46875 24.109375 47.828125 
Q 26.265625 48.1875 28.421875 48.1875 
Q 40.625 48.1875 47.75 41.5 
Q 54.890625 34.8125 54.890625 23.390625 
Q 54.890625 11.625 47.5625 5.09375 
Q 40.234375 -1.421875 26.90625 -1.421875 
Q 22.3125 -1.421875 17.546875 -0.640625 
Q 12.796875 0.140625 7.71875 1.703125 
L 7.71875 11.625 
Q 12.109375 9.234375 16.796875 8.0625 
Q 21.484375 6.890625 26.703125 6.890625 
Q 35.15625 6.890625 40.078125 11.328125 
Q 45.015625 15.765625 45.015625 23.390625 
Q 45.015625 31 40.078125 35.4375 
Q 35.15625 39.890625 26.703125 39.890625 
Q 22.75 39.890625 18.8125 39.015625 
Q 14.890625 38.140625 10.796875 36.28125 
z
" id="DejaVuSans-53"/>
      <path d="M 11.71875 12.40625 
L 22.015625 12.40625 
L 22.015625 0 
L 11.71875 0 
z
M 11.71875 51.703125 
L 22.015625 51.703125 
L 22.015625 39.3125 
L 11.71875 39.3125 
z
" id="DejaVuSans-58"/>
     </defs>
     <use xlink:href="#DejaVuSans-53"/>
     <use x="63.623047" xlink:href="#DejaVuSans-56"/>
     <use x="127.246094" xlink:href="#DejaVuSans-32"/>
     <use x="159.033203" xlink:href="#DejaVuSans-116"/>
     <use x="198.242188" xlink:href="#DejaVuSans-97"/>
     <use x="259.521484" xlink:href="#DejaVuSans-114"/>
     <use x="298.884766" xlink:href="#DejaVuSans-103"/>
     <use x="362.361328" xlink:href="#DejaVuSans-101"/>
     <use x="423.884766" xlink:href="#DejaVuSans-116"/>
     <use x="463.09375" xlink:href="#DejaVuSans-115"/>
     <use x="515.193359" xlink:href="#DejaVuSans-58"/>
     <use x="548.884766" xlink:href="#DejaVuSans-32"/>
     <use x="580.671875" xlink:href="#DejaVuSans-49"/>
     <use x="644.294922" xlink:href="#DejaVuSans-46"/>
     <use x="676.082031" xlink:href="#DejaVuSans-46"/>
     <use x="707.869141" xlink:href="#DejaVuSans-45"/>
     <use x="743.953125" xlink:href="#DejaVuSans-49"/>
     <use x="807.576172" xlink:href="#DejaVuSans-46"/>
     <use x="839.363281" xlink:href="#DejaVuSans-48"/>
     <use x="902.986328" xlink:href="#DejaVuSans-101"/>
     <use x="964.509766" xlink:href="#DejaVuSans-45"/>
     <use x="1000.59375" xlink:href="#DejaVuSans-52"/>
    </g>
    <!-- 10 instances -->
    <g transform="translate(60.41088 60.954904)scale(0.102 -0.102)">
     <use xlink:href="#DejaVuSans-49"/>
     <use x="63.623047" xlink:href="#DejaVuSans-48"/>
     <use x="127.246094" xlink:href="#DejaVuSans-32"/>
     <use x="159.033203" xlink:href="#DejaVuSans-105"/>
     <use x="186.816406" xlink:href="#DejaVuSans-110"/>
     <use x="250.195312" xlink:href="#DejaVuSans-115"/>
     <use x="302.294922" xlink:href="#DejaVuSans-116"/>
     <use x="341.503906" xlink:href="#DejaVuSans-97"/>
     <use x="402.783203" xlink:href="#DejaVuSans-110"/>
     <use x="466.162109" xlink:href="#DejaVuSans-99"/>
     <use x="521.142578" xlink:href="#DejaVuSans-101"/>
     <use x="582.666016" xlink:href="#DejaVuSans-115"/>
    </g>
   </g>
   <g id="text_18">
    <!-- v2.4.19, hv-hash=ff0e71e8cd978373 -->
    <g style="fill:#808080;" transform="translate(104.697125 294.151352)scale(0.1 -0.1)">
     <defs>
      <path d="M 10.984375 1.515625 
L 10.984375 10.5 
Q 14.703125 8.734375 18.5 7.8125 
Q 22.3125 6.890625 25.984375 6.890625 
Q 35.75 6.890625 40.890625 13.453125 
Q 46.046875 20.015625 46.78125 33.40625 
Q 43.953125 29.203125 39.59375 26.953125 
Q 35.25 24.703125 29.984375 24.703125 
Q 19.046875 24.703125 12.671875 31.3125 
Q 6.296875 37.9375 6.296875 49.421875 
Q 6.296875 60.640625 12.9375 67.421875 
Q 19.578125 74.21875 30.609375 74.21875 
Q 43.265625 74.21875 49.921875 64.515625 
Q 56.59375 54.828125 56.59375 36.375 
Q 56.59375 19.140625 48.40625 8.859375 
Q 40.234375 -1.421875 26.421875 -1.421875 
Q 22.703125 -1.421875 18.890625 -0.6875 
Q 15.09375 0.046875 10.984375 1.515625 
z
M 30.609375 32.421875 
Q 37.25 32.421875 41.125 36.953125 
Q 45.015625 41.5 45.015625 49.421875 
Q 45.015625 57.28125 41.125 61.84375 
Q 37.25 66.40625 30.609375 66.40625 
Q 23.96875 66.40625 20.09375 61.84375 
Q 16.21875 57.28125 16.21875 49.421875 
Q 16.21875 41.5 20.09375 36.953125 
Q 23.96875 32.421875 30.609375 32.421875 
z
" id="DejaVuSans-57"/>
      <path d="M 54.890625 33.015625 
L 54.890625 0 
L 45.90625 0 
L 45.90625 32.71875 
Q 45.90625 40.484375 42.875 44.328125 
Q 39.84375 48.1875 33.796875 48.1875 
Q 26.515625 48.1875 22.3125 43.546875 
Q 18.109375 38.921875 18.109375 30.90625 
L 18.109375 0 
L 9.078125 0 
L 9.078125 75.984375 
L 18.109375 75.984375 
L 18.109375 46.1875 
Q 21.34375 51.125 25.703125 53.5625 
Q 30.078125 56 35.796875 56 
Q 45.21875 56 50.046875 50.171875 
Q 54.890625 44.34375 54.890625 33.015625 
z
" id="DejaVuSans-104"/>
      <path d="M 10.59375 45.40625 
L 73.1875 45.40625 
L 73.1875 37.203125 
L 10.59375 37.203125 
z
M 10.59375 25.484375 
L 73.1875 25.484375 
L 73.1875 17.1875 
L 10.59375 17.1875 
z
" id="DejaVuSans-61"/>
      <path d="M 8.203125 72.90625 
L 55.078125 72.90625 
L 55.078125 68.703125 
L 28.609375 0 
L 18.3125 0 
L 43.21875 64.59375 
L 8.203125 64.59375 
z
" id="DejaVuSans-55"/>
      <path d="M 40.578125 39.3125 
Q 47.65625 37.796875 51.625 33 
Q 55.609375 28.21875 55.609375 21.1875 
Q 55.609375 10.40625 48.1875 4.484375 
Q 40.765625 -1.421875 27.09375 -1.421875 
Q 22.515625 -1.421875 17.65625 -0.515625 
Q 12.796875 0.390625 7.625 2.203125 
L 7.625 11.71875 
Q 11.71875 9.328125 16.59375 8.109375 
Q 21.484375 6.890625 26.8125 6.890625 
Q 36.078125 6.890625 40.9375 10.546875 
Q 45.796875 14.203125 45.796875 21.1875 
Q 45.796875 27.640625 41.28125 31.265625 
Q 36.765625 34.90625 28.71875 34.90625 
L 20.21875 34.90625 
L 20.21875 43.015625 
L 29.109375 43.015625 
Q 36.375 43.015625 40.234375 45.921875 
Q 44.09375 48.828125 44.09375 54.296875 
Q 44.09375 59.90625 40.109375 62.90625 
Q 36.140625 65.921875 28.71875 65.921875 
Q 24.65625 65.921875 20.015625 65.03125 
Q 15.375 64.15625 9.8125 62.3125 
L 9.8125 71.09375 
Q 15.4375 72.65625 20.34375 73.4375 
Q 25.25 74.21875 29.59375 74.21875 
Q 40.828125 74.21875 47.359375 69.109375 
Q 53.90625 64.015625 53.90625 55.328125 
Q 53.90625 49.265625 50.4375 45.09375 
Q 46.96875 40.921875 40.578125 39.3125 
z
" id="DejaVuSans-51"/>
     </defs>
     <use xlink:href="#DejaVuSans-118"/>
     <use x="59.179688" xlink:href="#DejaVuSans-50"/>
     <use x="122.802734" xlink:href="#DejaVuSans-46"/>
     <use x="154.589844" xlink:href="#DejaVuSans-52"/>
     <use x="218.212891" xlink:href="#DejaVuSans-46"/>
     <use x="250" xlink:href="#DejaVuSans-49"/>
     <use x="313.623047" xlink:href="#DejaVuSans-57"/>
     <use x="377.246094" xlink:href="#DejaVuSans-44"/>
     <use x="409.033203" xlink:href="#DejaVuSans-32"/>
     <use x="440.820312" xlink:href="#DejaVuSans-104"/>
     <use x="504.199219" xlink:href="#DejaVuSans-118"/>
     <use x="560.753906" xlink:href="#DejaVuSans-45"/>
     <use x="596.837891" xlink:href="#DejaVuSans-104"/>
     <use x="660.216797" xlink:href="#DejaVuSans-97"/>
     <use x="721.496094" xlink:href="#DejaVuSans-115"/>
     <use x="773.595703" xlink:href="#DejaVuSans-104"/>
     <use x="836.974609" xlink:href="#DejaVuSans-61"/>
     <use x="920.763672" xlink:href="#DejaVuSans-102"/>
     <use x="955.96875" xlink:href="#DejaVuSans-102"/>
     <use x="991.173828" xlink:href="#DejaVuSans-48"/>
     <use x="1054.796875" xlink:href="#DejaVuSans-101"/>
     <use x="1116.320312" xlink:href="#DejaVuSans-55"/>
     <use x="1179.943359" xlink:href="#DejaVuSans-49"/>
     <use x="1243.566406" xlink:href="#DejaVuSans-101"/>
     <use x="1305.089844" xlink:href="#DejaVuSans-56"/>
     <use x="1368.712891" xlink:href="#DejaVuSans-99"/>
     <use x="1423.693359" xlink:href="#DejaVuSans-100"/>
     <use x="1487.169922" xlink:href="#DejaVuSans-57"/>
     <use x="1550.792969" xlink:href="#DejaVuSans-55"/>
     <use x="1614.416016" xlink:href="#DejaVuSans-56"/>
     <use x="1678.039062" xlink:href="#DejaVuSans-51"/>
     <use x="1741.662109" xlink:href="#DejaVuSans-55"/>
     <use x="1805.285156" xlink:href="#DejaVuSans-51"/>
    </g>
   </g>
   <g id="text_19">
    <!-- 14 sep. Ellipsoid/Sharp ridge -->
    <g transform="translate(55.158062 21.648)scale(0.2 -0.2)">
     <use xlink:href="#DejaVuSans-49"/>
     <use x="63.623047" xlink:href="#DejaVuSans-52"/>
     <use x="127.246094" xlink:href="#DejaVuSans-32"/>
     <use x="159.033203" xlink:href="#DejaVuSans-115"/>
     <use x="211.132812" xlink:href="#DejaVuSans-101"/>
     <use x="272.65625" xlink:href="#DejaVuSans-112"/>
     <use x="336.132812" xlink:href="#DejaVuSans-46"/>
     <use x="367.919922" xlink:href="#DejaVuSans-32"/>
     <use x="399.707031" xlink:href="#DejaVuSans-69"/>
     <use x="462.890625" xlink:href="#DejaVuSans-108"/>
     <use x="490.673828" xlink:href="#DejaVuSans-108"/>
     <use x="518.457031" xlink:href="#DejaVuSans-105"/>
     <use x="546.240234" xlink:href="#DejaVuSans-112"/>
     <use x="609.716797" xlink:href="#DejaVuSans-115"/>
     <use x="661.816406" xlink:href="#DejaVuSans-111"/>
     <use x="722.998047" xlink:href="#DejaVuSans-105"/>
     <use x="750.78125" xlink:href="#DejaVuSans-100"/>
     <use x="814.257812" xlink:href="#DejaVuSans-47"/>
     <use x="847.949219" xlink:href="#DejaVuSans-83"/>
     <use x="911.425781" xlink:href="#DejaVuSans-104"/>
     <use x="974.804688" xlink:href="#DejaVuSans-97"/>
     <use x="1036.083984" xlink:href="#DejaVuSans-114"/>
     <use x="1077.197266" xlink:href="#DejaVuSans-112"/>
     <use x="1140.673828" xlink:href="#DejaVuSans-32"/>
     <use x="1172.460938" xlink:href="#DejaVuSans-114"/>
     <use x="1213.574219" xlink:href="#DejaVuSans-105"/>
     <use x="1241.357422" xlink:href="#DejaVuSans-100"/>
     <use x="1304.833984" xlink:href="#DejaVuSans-103"/>
     <use x="1368.310547" xlink:href="#DejaVuSans-101"/>
    </g>
   </g>
  </g>
 </g>
 <defs>
  <clipPath id="pf0710b7aea">
   <rect height="271.296" width="281.088" x="57.6" y="27.648"/>
  </clipPath>
 </defs>
</svg>
