<?xml version="1.0" encoding="utf-8" standalone="no"?>
<!DOCTYPE svg PUBLIC "-//W3C//DTD SVG 1.1//EN"
  "http://www.w3.org/Graphics/SVG/1.1/DTD/svg11.dtd">
<!-- Created with matplotlib (https://matplotlib.org/) -->
<svg height="345.6pt" version="1.1" viewBox="0 0 460.8 345.6" width="460.8pt" xmlns="http://www.w3.org/2000/svg" xmlns:xlink="http://www.w3.org/1999/xlink">
 <metadata>
  <rdf:RDF xmlns:cc="http://creativecommons.org/ns#" xmlns:dc="http://purl.org/dc/elements/1.1/" xmlns:rdf="http://www.w3.org/1999/02/22-rdf-syntax-ns#">
   <cc:Work>
    <dc:type rdf:resource="http://purl.org/dc/dcmitype/StillImage"/>
    <dc:date>2021-04-26T15:05:42.493848</dc:date>
    <dc:format>image/svg+xml</dc:format>
    <dc:creator>
     <cc:Agent>
      <dc:title>Matplotlib v3.3.2, https://matplotlib.org/</dc:title>
     </cc:Agent>
    </dc:creator>
   </cc:Work>
  </rdf:RDF>
 </metadata>
 <defs>
  <style type="text/css">*{stroke-linecap:butt;stroke-linejoin:round;}</style>
 </defs>
 <g id="figure_1">
  <g id="patch_1">
   <path d="M 0 345.6 
L 460.8 345.6 
L 460.8 0 
L 0 0 
z
" style="fill:#ffffff;"/>
  </g>
  <g id="axes_1">
   <g id="patch_2">
    <path d="M 57.6 298.944 
L 338.688 298.944 
L 338.688 27.648 
L 57.6 27.648 
z
" style="fill:#ffffff;"/>
   </g>
   <g id="line2d_1">
    <path d="M 69.687988 298.944 
L 69.687988 294.312795 
L 91.535274 294.312795 
L 91.535274 285.050384 
L 107.009204 285.050384 
L 107.009204 275.787974 
L 122.782271 275.787974 
L 122.782271 271.156769 
L 130.127931 271.156769 
L 130.127931 257.263153 
L 135.381712 257.263153 
L 135.381712 248.000743 
L 139.253002 248.000743 
L 139.253002 243.369538 
L 146.801841 243.369538 
L 146.801841 234.107127 
L 155.0376 234.107127 
L 155.0376 220.213512 
L 167.43311 220.213512 
L 167.43311 210.951101 
L 171.198983 210.951101 
L 171.198983 201.688691 
L 182.513821 201.688691 
L 182.513821 192.426281 
L 190.267263 192.426281 
L 190.267263 187.795075 
L 194.913204 187.795075 
L 194.913204 173.90146 
L 196.834375 173.90146 
L 196.834375 169.270255 
L 200.566383 169.270255 
L 200.566383 155.376639 
L 205.420003 155.376639 
L 205.420003 146.114229 
L 217.935998 146.114229 
L 217.935998 141.483024 
L 219.640392 141.483024 
L 219.640392 127.589408 
L 221.145813 127.589408 
L 221.145813 122.958203 
L 225.248499 122.958203 
L 225.248499 109.064587 
L 230.1951 109.064587 
L 230.1951 99.802177 
L 243.501248 99.802177 
L 243.501248 90.539766 
L 245.362665 90.539766 
L 245.362665 85.908561 
L 246.283573 85.908561 
L 246.283573 76.646151 
L 248.420696 76.646151 
L 248.420696 62.752535 
L 338.688 62.752535 
" style="fill:none;stroke:#f5deb3;stroke-linecap:square;stroke-width:4;"/>
   </g>
   <g id="line2d_2">
    <defs>
     <path d="M 0 7.778175 
L 7.778175 0 
L 0 -7.778175 
L -7.778175 0 
z
" id="m5e7aa45965" style="stroke:#f5deb3;stroke-linejoin:miter;stroke-width:1.5;"/>
    </defs>
    <g>
     <use style="fill:#f5deb3;stroke:#f5deb3;stroke-linejoin:miter;stroke-width:1.5;" x="167.43311" xlink:href="#m5e7aa45965" y="220.213512"/>
     <use style="fill:#f5deb3;stroke:#f5deb3;stroke-linejoin:miter;stroke-width:1.5;" x="205.420003" xlink:href="#m5e7aa45965" y="146.114229"/>
     <use style="fill:#f5deb3;stroke:#f5deb3;stroke-linejoin:miter;stroke-width:1.5;" x="248.420696" xlink:href="#m5e7aa45965" y="76.646151"/>
     <use style="fill:#f5deb3;stroke:#f5deb3;stroke-linejoin:miter;stroke-width:1.5;" x="248.420696" xlink:href="#m5e7aa45965" y="62.752535"/>
     <use style="fill:#f5deb3;stroke:#f5deb3;stroke-linejoin:miter;stroke-width:1.5;" x="338.688" xlink:href="#m5e7aa45965" y="62.752535"/>
    </g>
   </g>
   <g id="line2d_3">
    <path style="fill:none;stroke:#f5deb3;stroke-linecap:square;stroke-width:4;"/>
    <g/>
   </g>
   <g id="line2d_4">
    <path d="M 338.688 62.752535 
L 369.60768 35.706297 
" style="fill:none;stroke:#f5deb3;stroke-linecap:square;stroke-width:4;"/>
    <g>
     <use style="fill:#f5deb3;stroke:#f5deb3;stroke-linejoin:miter;stroke-width:1.5;" x="338.688" xlink:href="#m5e7aa45965" y="62.752535"/>
     <use style="fill:#f5deb3;stroke:#f5deb3;stroke-linejoin:miter;stroke-width:1.5;" x="369.60768" xlink:href="#m5e7aa45965" y="35.706297"/>
    </g>
   </g>
   <g id="matplotlib.axis_1">
    <g id="xtick_1">
     <g id="line2d_5">
      <path clip-path="url(#pc1dd0a1975)" d="M 57.6 298.944 
L 57.6 27.648 
" style="fill:none;stroke:#b0b0b0;stroke-linecap:square;stroke-width:0.8;"/>
     </g>
     <g id="line2d_6">
      <defs>
       <path d="M 0 0 
L 0 3.5 
" id="meaa8c6aeea" style="stroke:#000000;stroke-width:0.8;"/>
      </defs>
      <g>
       <use style="stroke:#000000;stroke-width:0.8;" x="57.6" xlink:href="#meaa8c6aeea" y="298.944"/>
      </g>
     </g>
     <g id="text_1">
      <!-- 0 -->
      <g transform="translate(51.2375 321.140875)scale(0.2 -0.2)">
       <defs>
        <path d="M 31.78125 66.40625 
Q 24.171875 66.40625 20.328125 58.90625 
Q 16.5 51.421875 16.5 36.375 
Q 16.5 21.390625 20.328125 13.890625 
Q 24.171875 6.390625 31.78125 6.390625 
Q 39.453125 6.390625 43.28125 13.890625 
Q 47.125 21.390625 47.125 36.375 
Q 47.125 51.421875 43.28125 58.90625 
Q 39.453125 66.40625 31.78125 66.40625 
z
M 31.78125 74.21875 
Q 44.046875 74.21875 50.515625 64.515625 
Q 56.984375 54.828125 56.984375 36.375 
Q 56.984375 17.96875 50.515625 8.265625 
Q 44.046875 -1.421875 31.78125 -1.421875 
Q 19.53125 -1.421875 13.0625 8.265625 
Q 6.59375 17.96875 6.59375 36.375 
Q 6.59375 54.828125 13.0625 64.515625 
Q 19.53125 74.21875 31.78125 74.21875 
z
" id="DejaVuSans-48"/>
       </defs>
       <use xlink:href="#DejaVuSans-48"/>
      </g>
     </g>
    </g>
    <g id="xtick_2">
     <g id="line2d_7">
      <path clip-path="url(#pc1dd0a1975)" d="M 137.910857 298.944 
L 137.910857 27.648 
" style="fill:none;stroke:#b0b0b0;stroke-linecap:square;stroke-width:0.8;"/>
     </g>
     <g id="line2d_8">
      <g>
       <use style="stroke:#000000;stroke-width:0.8;" x="137.910857" xlink:href="#meaa8c6aeea" y="298.944"/>
      </g>
     </g>
     <g id="text_2">
      <!-- 2 -->
      <g transform="translate(131.548357 321.140875)scale(0.2 -0.2)">
       <defs>
        <path d="M 19.1875 8.296875 
L 53.609375 8.296875 
L 53.609375 0 
L 7.328125 0 
L 7.328125 8.296875 
Q 12.9375 14.109375 22.625 23.890625 
Q 32.328125 33.6875 34.8125 36.53125 
Q 39.546875 41.84375 41.421875 45.53125 
Q 43.3125 49.21875 43.3125 52.78125 
Q 43.3125 58.59375 39.234375 62.25 
Q 35.15625 65.921875 28.609375 65.921875 
Q 23.96875 65.921875 18.8125 64.3125 
Q 13.671875 62.703125 7.8125 59.421875 
L 7.8125 69.390625 
Q 13.765625 71.78125 18.9375 73 
Q 24.125 74.21875 28.421875 74.21875 
Q 39.75 74.21875 46.484375 68.546875 
Q 53.21875 62.890625 53.21875 53.421875 
Q 53.21875 48.921875 51.53125 44.890625 
Q 49.859375 40.875 45.40625 35.40625 
Q 44.1875 33.984375 37.640625 27.21875 
Q 31.109375 20.453125 19.1875 8.296875 
z
" id="DejaVuSans-50"/>
       </defs>
       <use xlink:href="#DejaVuSans-50"/>
      </g>
     </g>
    </g>
    <g id="xtick_3">
     <g id="line2d_9">
      <path clip-path="url(#pc1dd0a1975)" d="M 218.221714 298.944 
L 218.221714 27.648 
" style="fill:none;stroke:#b0b0b0;stroke-linecap:square;stroke-width:0.8;"/>
     </g>
     <g id="line2d_10">
      <g>
       <use style="stroke:#000000;stroke-width:0.8;" x="218.221714" xlink:href="#meaa8c6aeea" y="298.944"/>
      </g>
     </g>
     <g id="text_3">
      <!-- 4 -->
      <g transform="translate(211.859214 321.140875)scale(0.2 -0.2)">
       <defs>
        <path d="M 37.796875 64.3125 
L 12.890625 25.390625 
L 37.796875 25.390625 
z
M 35.203125 72.90625 
L 47.609375 72.90625 
L 47.609375 25.390625 
L 58.015625 25.390625 
L 58.015625 17.1875 
L 47.609375 17.1875 
L 47.609375 0 
L 37.796875 0 
L 37.796875 17.1875 
L 4.890625 17.1875 
L 4.890625 26.703125 
z
" id="DejaVuSans-52"/>
       </defs>
       <use xlink:href="#DejaVuSans-52"/>
      </g>
     </g>
    </g>
    <g id="xtick_4">
     <g id="line2d_11">
      <path clip-path="url(#pc1dd0a1975)" d="M 298.532571 298.944 
L 298.532571 27.648 
" style="fill:none;stroke:#b0b0b0;stroke-linecap:square;stroke-width:0.8;"/>
     </g>
     <g id="line2d_12">
      <g>
       <use style="stroke:#000000;stroke-width:0.8;" x="298.532571" xlink:href="#meaa8c6aeea" y="298.944"/>
      </g>
     </g>
     <g id="text_4">
      <!-- 6 -->
      <g transform="translate(292.170071 321.140875)scale(0.2 -0.2)">
       <defs>
        <path d="M 33.015625 40.375 
Q 26.375 40.375 22.484375 35.828125 
Q 18.609375 31.296875 18.609375 23.390625 
Q 18.609375 15.53125 22.484375 10.953125 
Q 26.375 6.390625 33.015625 6.390625 
Q 39.65625 6.390625 43.53125 10.953125 
Q 47.40625 15.53125 47.40625 23.390625 
Q 47.40625 31.296875 43.53125 35.828125 
Q 39.65625 40.375 33.015625 40.375 
z
M 52.59375 71.296875 
L 52.59375 62.3125 
Q 48.875 64.0625 45.09375 64.984375 
Q 41.3125 65.921875 37.59375 65.921875 
Q 27.828125 65.921875 22.671875 59.328125 
Q 17.53125 52.734375 16.796875 39.40625 
Q 19.671875 43.65625 24.015625 45.921875 
Q 28.375 48.1875 33.59375 48.1875 
Q 44.578125 48.1875 50.953125 41.515625 
Q 57.328125 34.859375 57.328125 23.390625 
Q 57.328125 12.15625 50.6875 5.359375 
Q 44.046875 -1.421875 33.015625 -1.421875 
Q 20.359375 -1.421875 13.671875 8.265625 
Q 6.984375 17.96875 6.984375 36.375 
Q 6.984375 53.65625 15.1875 63.9375 
Q 23.390625 74.21875 37.203125 74.21875 
Q 40.921875 74.21875 44.703125 73.484375 
Q 48.484375 72.75 52.59375 71.296875 
z
" id="DejaVuSans-54"/>
       </defs>
       <use xlink:href="#DejaVuSans-54"/>
      </g>
     </g>
    </g>
    <g id="xtick_5">
     <g id="line2d_13">
      <path clip-path="url(#pc1dd0a1975)" d="M 97.755429 298.944 
L 97.755429 27.648 
" style="fill:none;stroke:#b0b0b0;stroke-linecap:square;stroke-width:0.8;"/>
     </g>
     <g id="line2d_14">
      <defs>
       <path d="M 0 0 
L 0 2 
" id="md5059742b2" style="stroke:#000000;stroke-width:0.6;"/>
      </defs>
      <g>
       <use style="stroke:#000000;stroke-width:0.6;" x="97.755429" xlink:href="#md5059742b2" y="298.944"/>
      </g>
     </g>
    </g>
    <g id="xtick_6">
     <g id="line2d_15">
      <path clip-path="url(#pc1dd0a1975)" d="M 178.066286 298.944 
L 178.066286 27.648 
" style="fill:none;stroke:#b0b0b0;stroke-linecap:square;stroke-width:0.8;"/>
     </g>
     <g id="line2d_16">
      <g>
       <use style="stroke:#000000;stroke-width:0.6;" x="178.066286" xlink:href="#md5059742b2" y="298.944"/>
      </g>
     </g>
    </g>
    <g id="xtick_7">
     <g id="line2d_17">
      <path clip-path="url(#pc1dd0a1975)" d="M 258.377143 298.944 
L 258.377143 27.648 
" style="fill:none;stroke:#b0b0b0;stroke-linecap:square;stroke-width:0.8;"/>
     </g>
     <g id="line2d_18">
      <g>
       <use style="stroke:#000000;stroke-width:0.6;" x="258.377143" xlink:href="#md5059742b2" y="298.944"/>
      </g>
     </g>
    </g>
    <g id="xtick_8">
     <g id="line2d_19">
      <path clip-path="url(#pc1dd0a1975)" d="M 338.688 298.944 
L 338.688 27.648 
" style="fill:none;stroke:#b0b0b0;stroke-linecap:square;stroke-width:0.8;"/>
     </g>
     <g id="line2d_20">
      <g>
       <use style="stroke:#000000;stroke-width:0.6;" x="338.688" xlink:href="#md5059742b2" y="298.944"/>
      </g>
     </g>
    </g>
    <g id="text_5">
     <!-- log10(# f-evals / dimension) -->
     <g transform="translate(77.764078 342.217594)scale(0.17 -0.17)">
      <defs>
       <path d="M 9.421875 75.984375 
L 18.40625 75.984375 
L 18.40625 0 
L 9.421875 0 
z
" id="DejaVuSans-108"/>
       <path d="M 30.609375 48.390625 
Q 23.390625 48.390625 19.1875 42.75 
Q 14.984375 37.109375 14.984375 27.296875 
Q 14.984375 17.484375 19.15625 11.84375 
Q 23.34375 6.203125 30.609375 6.203125 
Q 37.796875 6.203125 41.984375 11.859375 
Q 46.1875 17.53125 46.1875 27.296875 
Q 46.1875 37.015625 41.984375 42.703125 
Q 37.796875 48.390625 30.609375 48.390625 
z
M 30.609375 56 
Q 42.328125 56 49.015625 48.375 
Q 55.71875 40.765625 55.71875 27.296875 
Q 55.71875 13.875 49.015625 6.21875 
Q 42.328125 -1.421875 30.609375 -1.421875 
Q 18.84375 -1.421875 12.171875 6.21875 
Q 5.515625 13.875 5.515625 27.296875 
Q 5.515625 40.765625 12.171875 48.375 
Q 18.84375 56 30.609375 56 
z
" id="DejaVuSans-111"/>
       <path d="M 45.40625 27.984375 
Q 45.40625 37.75 41.375 43.109375 
Q 37.359375 48.484375 30.078125 48.484375 
Q 22.859375 48.484375 18.828125 43.109375 
Q 14.796875 37.75 14.796875 27.984375 
Q 14.796875 18.265625 18.828125 12.890625 
Q 22.859375 7.515625 30.078125 7.515625 
Q 37.359375 7.515625 41.375 12.890625 
Q 45.40625 18.265625 45.40625 27.984375 
z
M 54.390625 6.78125 
Q 54.390625 -7.171875 48.1875 -13.984375 
Q 42 -20.796875 29.203125 -20.796875 
Q 24.46875 -20.796875 20.265625 -20.09375 
Q 16.0625 -19.390625 12.109375 -17.921875 
L 12.109375 -9.1875 
Q 16.0625 -11.328125 19.921875 -12.34375 
Q 23.78125 -13.375 27.78125 -13.375 
Q 36.625 -13.375 41.015625 -8.765625 
Q 45.40625 -4.15625 45.40625 5.171875 
L 45.40625 9.625 
Q 42.625 4.78125 38.28125 2.390625 
Q 33.9375 0 27.875 0 
Q 17.828125 0 11.671875 7.65625 
Q 5.515625 15.328125 5.515625 27.984375 
Q 5.515625 40.671875 11.671875 48.328125 
Q 17.828125 56 27.875 56 
Q 33.9375 56 38.28125 53.609375 
Q 42.625 51.21875 45.40625 46.390625 
L 45.40625 54.6875 
L 54.390625 54.6875 
z
" id="DejaVuSans-103"/>
       <path d="M 12.40625 8.296875 
L 28.515625 8.296875 
L 28.515625 63.921875 
L 10.984375 60.40625 
L 10.984375 69.390625 
L 28.421875 72.90625 
L 38.28125 72.90625 
L 38.28125 8.296875 
L 54.390625 8.296875 
L 54.390625 0 
L 12.40625 0 
z
" id="DejaVuSans-49"/>
       <path d="M 31 75.875 
Q 24.46875 64.65625 21.28125 53.65625 
Q 18.109375 42.671875 18.109375 31.390625 
Q 18.109375 20.125 21.3125 9.0625 
Q 24.515625 -2 31 -13.1875 
L 23.1875 -13.1875 
Q 15.875 -1.703125 12.234375 9.375 
Q 8.59375 20.453125 8.59375 31.390625 
Q 8.59375 42.28125 12.203125 53.3125 
Q 15.828125 64.359375 23.1875 75.875 
z
" id="DejaVuSans-40"/>
       <path d="M 51.125 44 
L 36.921875 44 
L 32.8125 27.6875 
L 47.125 27.6875 
z
M 43.796875 71.78125 
L 38.71875 51.515625 
L 52.984375 51.515625 
L 58.109375 71.78125 
L 65.921875 71.78125 
L 60.890625 51.515625 
L 76.125 51.515625 
L 76.125 44 
L 58.984375 44 
L 54.984375 27.6875 
L 70.515625 27.6875 
L 70.515625 20.21875 
L 53.078125 20.21875 
L 48 0 
L 40.1875 0 
L 45.21875 20.21875 
L 30.90625 20.21875 
L 25.875 0 
L 18.015625 0 
L 23.09375 20.21875 
L 7.71875 20.21875 
L 7.71875 27.6875 
L 24.90625 27.6875 
L 29 44 
L 13.28125 44 
L 13.28125 51.515625 
L 30.90625 51.515625 
L 35.890625 71.78125 
z
" id="DejaVuSans-35"/>
       <path id="DejaVuSans-32"/>
       <path d="M 37.109375 75.984375 
L 37.109375 68.5 
L 28.515625 68.5 
Q 23.6875 68.5 21.796875 66.546875 
Q 19.921875 64.59375 19.921875 59.515625 
L 19.921875 54.6875 
L 34.71875 54.6875 
L 34.71875 47.703125 
L 19.921875 47.703125 
L 19.921875 0 
L 10.890625 0 
L 10.890625 47.703125 
L 2.296875 47.703125 
L 2.296875 54.6875 
L 10.890625 54.6875 
L 10.890625 58.5 
Q 10.890625 67.625 15.140625 71.796875 
Q 19.390625 75.984375 28.609375 75.984375 
z
" id="DejaVuSans-102"/>
       <path d="M 4.890625 31.390625 
L 31.203125 31.390625 
L 31.203125 23.390625 
L 4.890625 23.390625 
z
" id="DejaVuSans-45"/>
       <path d="M 56.203125 29.59375 
L 56.203125 25.203125 
L 14.890625 25.203125 
Q 15.484375 15.921875 20.484375 11.0625 
Q 25.484375 6.203125 34.421875 6.203125 
Q 39.59375 6.203125 44.453125 7.46875 
Q 49.3125 8.734375 54.109375 11.28125 
L 54.109375 2.78125 
Q 49.265625 0.734375 44.1875 -0.34375 
Q 39.109375 -1.421875 33.890625 -1.421875 
Q 20.796875 -1.421875 13.15625 6.1875 
Q 5.515625 13.8125 5.515625 26.8125 
Q 5.515625 40.234375 12.765625 48.109375 
Q 20.015625 56 32.328125 56 
Q 43.359375 56 49.78125 48.890625 
Q 56.203125 41.796875 56.203125 29.59375 
z
M 47.21875 32.234375 
Q 47.125 39.59375 43.09375 43.984375 
Q 39.0625 48.390625 32.421875 48.390625 
Q 24.90625 48.390625 20.390625 44.140625 
Q 15.875 39.890625 15.1875 32.171875 
z
" id="DejaVuSans-101"/>
       <path d="M 2.984375 54.6875 
L 12.5 54.6875 
L 29.59375 8.796875 
L 46.6875 54.6875 
L 56.203125 54.6875 
L 35.6875 0 
L 23.484375 0 
z
" id="DejaVuSans-118"/>
       <path d="M 34.28125 27.484375 
Q 23.390625 27.484375 19.1875 25 
Q 14.984375 22.515625 14.984375 16.5 
Q 14.984375 11.71875 18.140625 8.90625 
Q 21.296875 6.109375 26.703125 6.109375 
Q 34.1875 6.109375 38.703125 11.40625 
Q 43.21875 16.703125 43.21875 25.484375 
L 43.21875 27.484375 
z
M 52.203125 31.203125 
L 52.203125 0 
L 43.21875 0 
L 43.21875 8.296875 
Q 40.140625 3.328125 35.546875 0.953125 
Q 30.953125 -1.421875 24.3125 -1.421875 
Q 15.921875 -1.421875 10.953125 3.296875 
Q 6 8.015625 6 15.921875 
Q 6 25.140625 12.171875 29.828125 
Q 18.359375 34.515625 30.609375 34.515625 
L 43.21875 34.515625 
L 43.21875 35.40625 
Q 43.21875 41.609375 39.140625 45 
Q 35.0625 48.390625 27.6875 48.390625 
Q 23 48.390625 18.546875 47.265625 
Q 14.109375 46.140625 10.015625 43.890625 
L 10.015625 52.203125 
Q 14.9375 54.109375 19.578125 55.046875 
Q 24.21875 56 28.609375 56 
Q 40.484375 56 46.34375 49.84375 
Q 52.203125 43.703125 52.203125 31.203125 
z
" id="DejaVuSans-97"/>
       <path d="M 44.28125 53.078125 
L 44.28125 44.578125 
Q 40.484375 46.53125 36.375 47.5 
Q 32.28125 48.484375 27.875 48.484375 
Q 21.1875 48.484375 17.84375 46.4375 
Q 14.5 44.390625 14.5 40.28125 
Q 14.5 37.15625 16.890625 35.375 
Q 19.28125 33.59375 26.515625 31.984375 
L 29.59375 31.296875 
Q 39.15625 29.25 43.1875 25.515625 
Q 47.21875 21.78125 47.21875 15.09375 
Q 47.21875 7.46875 41.1875 3.015625 
Q 35.15625 -1.421875 24.609375 -1.421875 
Q 20.21875 -1.421875 15.453125 -0.5625 
Q 10.6875 0.296875 5.421875 2 
L 5.421875 11.28125 
Q 10.40625 8.6875 15.234375 7.390625 
Q 20.0625 6.109375 24.8125 6.109375 
Q 31.15625 6.109375 34.5625 8.28125 
Q 37.984375 10.453125 37.984375 14.40625 
Q 37.984375 18.0625 35.515625 20.015625 
Q 33.0625 21.96875 24.703125 23.78125 
L 21.578125 24.515625 
Q 13.234375 26.265625 9.515625 29.90625 
Q 5.8125 33.546875 5.8125 39.890625 
Q 5.8125 47.609375 11.28125 51.796875 
Q 16.75 56 26.8125 56 
Q 31.78125 56 36.171875 55.265625 
Q 40.578125 54.546875 44.28125 53.078125 
z
" id="DejaVuSans-115"/>
       <path d="M 25.390625 72.90625 
L 33.6875 72.90625 
L 8.296875 -9.28125 
L 0 -9.28125 
z
" id="DejaVuSans-47"/>
       <path d="M 45.40625 46.390625 
L 45.40625 75.984375 
L 54.390625 75.984375 
L 54.390625 0 
L 45.40625 0 
L 45.40625 8.203125 
Q 42.578125 3.328125 38.25 0.953125 
Q 33.9375 -1.421875 27.875 -1.421875 
Q 17.96875 -1.421875 11.734375 6.484375 
Q 5.515625 14.40625 5.515625 27.296875 
Q 5.515625 40.1875 11.734375 48.09375 
Q 17.96875 56 27.875 56 
Q 33.9375 56 38.25 53.625 
Q 42.578125 51.265625 45.40625 46.390625 
z
M 14.796875 27.296875 
Q 14.796875 17.390625 18.875 11.75 
Q 22.953125 6.109375 30.078125 6.109375 
Q 37.203125 6.109375 41.296875 11.75 
Q 45.40625 17.390625 45.40625 27.296875 
Q 45.40625 37.203125 41.296875 42.84375 
Q 37.203125 48.484375 30.078125 48.484375 
Q 22.953125 48.484375 18.875 42.84375 
Q 14.796875 37.203125 14.796875 27.296875 
z
" id="DejaVuSans-100"/>
       <path d="M 9.421875 54.6875 
L 18.40625 54.6875 
L 18.40625 0 
L 9.421875 0 
z
M 9.421875 75.984375 
L 18.40625 75.984375 
L 18.40625 64.59375 
L 9.421875 64.59375 
z
" id="DejaVuSans-105"/>
       <path d="M 52 44.1875 
Q 55.375 50.25 60.0625 53.125 
Q 64.75 56 71.09375 56 
Q 79.640625 56 84.28125 50.015625 
Q 88.921875 44.046875 88.921875 33.015625 
L 88.921875 0 
L 79.890625 0 
L 79.890625 32.71875 
Q 79.890625 40.578125 77.09375 44.375 
Q 74.3125 48.1875 68.609375 48.1875 
Q 61.625 48.1875 57.5625 43.546875 
Q 53.515625 38.921875 53.515625 30.90625 
L 53.515625 0 
L 44.484375 0 
L 44.484375 32.71875 
Q 44.484375 40.625 41.703125 44.40625 
Q 38.921875 48.1875 33.109375 48.1875 
Q 26.21875 48.1875 22.15625 43.53125 
Q 18.109375 38.875 18.109375 30.90625 
L 18.109375 0 
L 9.078125 0 
L 9.078125 54.6875 
L 18.109375 54.6875 
L 18.109375 46.1875 
Q 21.1875 51.21875 25.484375 53.609375 
Q 29.78125 56 35.6875 56 
Q 41.65625 56 45.828125 52.96875 
Q 50 49.953125 52 44.1875 
z
" id="DejaVuSans-109"/>
       <path d="M 54.890625 33.015625 
L 54.890625 0 
L 45.90625 0 
L 45.90625 32.71875 
Q 45.90625 40.484375 42.875 44.328125 
Q 39.84375 48.1875 33.796875 48.1875 
Q 26.515625 48.1875 22.3125 43.546875 
Q 18.109375 38.921875 18.109375 30.90625 
L 18.109375 0 
L 9.078125 0 
L 9.078125 54.6875 
L 18.109375 54.6875 
L 18.109375 46.1875 
Q 21.34375 51.125 25.703125 53.5625 
Q 30.078125 56 35.796875 56 
Q 45.21875 56 50.046875 50.171875 
Q 54.890625 44.34375 54.890625 33.015625 
z
" id="DejaVuSans-110"/>
       <path d="M 8.015625 75.875 
L 15.828125 75.875 
Q 23.140625 64.359375 26.78125 53.3125 
Q 30.421875 42.28125 30.421875 31.390625 
Q 30.421875 20.453125 26.78125 9.375 
Q 23.140625 -1.703125 15.828125 -13.1875 
L 8.015625 -13.1875 
Q 14.5 -2 17.703125 9.0625 
Q 20.90625 20.125 20.90625 31.390625 
Q 20.90625 42.671875 17.703125 53.65625 
Q 14.5 64.65625 8.015625 75.875 
z
" id="DejaVuSans-41"/>
      </defs>
      <use xlink:href="#DejaVuSans-108"/>
      <use x="27.783203" xlink:href="#DejaVuSans-111"/>
      <use x="88.964844" xlink:href="#DejaVuSans-103"/>
      <use x="152.441406" xlink:href="#DejaVuSans-49"/>
      <use x="216.064453" xlink:href="#DejaVuSans-48"/>
      <use x="279.6875" xlink:href="#DejaVuSans-40"/>
      <use x="318.701172" xlink:href="#DejaVuSans-35"/>
      <use x="402.490234" xlink:href="#DejaVuSans-32"/>
      <use x="434.277344" xlink:href="#DejaVuSans-102"/>
      <use x="463.982422" xlink:href="#DejaVuSans-45"/>
      <use x="500.066406" xlink:href="#DejaVuSans-101"/>
      <use x="561.589844" xlink:href="#DejaVuSans-118"/>
      <use x="620.769531" xlink:href="#DejaVuSans-97"/>
      <use x="682.048828" xlink:href="#DejaVuSans-108"/>
      <use x="709.832031" xlink:href="#DejaVuSans-115"/>
      <use x="761.931641" xlink:href="#DejaVuSans-32"/>
      <use x="793.71875" xlink:href="#DejaVuSans-47"/>
      <use x="827.410156" xlink:href="#DejaVuSans-32"/>
      <use x="859.197266" xlink:href="#DejaVuSans-100"/>
      <use x="922.673828" xlink:href="#DejaVuSans-105"/>
      <use x="950.457031" xlink:href="#DejaVuSans-109"/>
      <use x="1047.869141" xlink:href="#DejaVuSans-101"/>
      <use x="1109.392578" xlink:href="#DejaVuSans-110"/>
      <use x="1172.771484" xlink:href="#DejaVuSans-115"/>
      <use x="1224.871094" xlink:href="#DejaVuSans-105"/>
      <use x="1252.654297" xlink:href="#DejaVuSans-111"/>
      <use x="1313.835938" xlink:href="#DejaVuSans-110"/>
      <use x="1377.214844" xlink:href="#DejaVuSans-41"/>
     </g>
    </g>
   </g>
   <g id="matplotlib.axis_2">
    <g id="ytick_1">
     <g id="line2d_21">
      <path clip-path="url(#pc1dd0a1975)" d="M 57.6 298.944 
L 338.688 298.944 
" style="fill:none;stroke:#b0b0b0;stroke-linecap:square;stroke-width:0.8;"/>
     </g>
     <g id="line2d_22">
      <defs>
       <path d="M 0 0 
L -3.5 0 
" id="m454b87839b" style="stroke:#000000;stroke-width:0.8;"/>
      </defs>
      <g>
       <use style="stroke:#000000;stroke-width:0.8;" x="57.6" xlink:href="#m454b87839b" y="298.944"/>
      </g>
     </g>
     <g id="text_6">
      <!-- 0.0 -->
      <g transform="translate(25.155 305.02275)scale(0.16 -0.16)">
       <defs>
        <path d="M 10.6875 12.40625 
L 21 12.40625 
L 21 0 
L 10.6875 0 
z
" id="DejaVuSans-46"/>
       </defs>
       <use xlink:href="#DejaVuSans-48"/>
       <use x="63.623047" xlink:href="#DejaVuSans-46"/>
       <use x="95.410156" xlink:href="#DejaVuSans-48"/>
      </g>
     </g>
    </g>
    <g id="ytick_2">
     <g id="line2d_23">
      <path clip-path="url(#pc1dd0a1975)" d="M 57.6 245.22202 
L 338.688 245.22202 
" style="fill:none;stroke:#b0b0b0;stroke-linecap:square;stroke-width:0.8;"/>
     </g>
     <g id="line2d_24">
      <g>
       <use style="stroke:#000000;stroke-width:0.8;" x="57.6" xlink:href="#m454b87839b" y="245.22202"/>
      </g>
     </g>
     <g id="text_7">
      <!-- 0.2 -->
      <g transform="translate(25.155 251.30077)scale(0.16 -0.16)">
       <use xlink:href="#DejaVuSans-48"/>
       <use x="63.623047" xlink:href="#DejaVuSans-46"/>
       <use x="95.410156" xlink:href="#DejaVuSans-50"/>
      </g>
     </g>
    </g>
    <g id="ytick_3">
     <g id="line2d_25">
      <path clip-path="url(#pc1dd0a1975)" d="M 57.6 191.50004 
L 338.688 191.50004 
" style="fill:none;stroke:#b0b0b0;stroke-linecap:square;stroke-width:0.8;"/>
     </g>
     <g id="line2d_26">
      <g>
       <use style="stroke:#000000;stroke-width:0.8;" x="57.6" xlink:href="#m454b87839b" y="191.50004"/>
      </g>
     </g>
     <g id="text_8">
      <!-- 0.4 -->
      <g transform="translate(25.155 197.57879)scale(0.16 -0.16)">
       <use xlink:href="#DejaVuSans-48"/>
       <use x="63.623047" xlink:href="#DejaVuSans-46"/>
       <use x="95.410156" xlink:href="#DejaVuSans-52"/>
      </g>
     </g>
    </g>
    <g id="ytick_4">
     <g id="line2d_27">
      <path clip-path="url(#pc1dd0a1975)" d="M 57.6 137.778059 
L 338.688 137.778059 
" style="fill:none;stroke:#b0b0b0;stroke-linecap:square;stroke-width:0.8;"/>
     </g>
     <g id="line2d_28">
      <g>
       <use style="stroke:#000000;stroke-width:0.8;" x="57.6" xlink:href="#m454b87839b" y="137.778059"/>
      </g>
     </g>
     <g id="text_9">
      <!-- 0.6 -->
      <g transform="translate(25.155 143.856809)scale(0.16 -0.16)">
       <use xlink:href="#DejaVuSans-48"/>
       <use x="63.623047" xlink:href="#DejaVuSans-46"/>
       <use x="95.410156" xlink:href="#DejaVuSans-54"/>
      </g>
     </g>
    </g>
    <g id="ytick_5">
     <g id="line2d_29">
      <path clip-path="url(#pc1dd0a1975)" d="M 57.6 84.056079 
L 338.688 84.056079 
" style="fill:none;stroke:#b0b0b0;stroke-linecap:square;stroke-width:0.8;"/>
     </g>
     <g id="line2d_30">
      <g>
       <use style="stroke:#000000;stroke-width:0.8;" x="57.6" xlink:href="#m454b87839b" y="84.056079"/>
      </g>
     </g>
     <g id="text_10">
      <!-- 0.8 -->
      <g transform="translate(25.155 90.134829)scale(0.16 -0.16)">
       <defs>
        <path d="M 31.78125 34.625 
Q 24.75 34.625 20.71875 30.859375 
Q 16.703125 27.09375 16.703125 20.515625 
Q 16.703125 13.921875 20.71875 10.15625 
Q 24.75 6.390625 31.78125 6.390625 
Q 38.8125 6.390625 42.859375 10.171875 
Q 46.921875 13.96875 46.921875 20.515625 
Q 46.921875 27.09375 42.890625 30.859375 
Q 38.875 34.625 31.78125 34.625 
z
M 21.921875 38.8125 
Q 15.578125 40.375 12.03125 44.71875 
Q 8.5 49.078125 8.5 55.328125 
Q 8.5 64.0625 14.71875 69.140625 
Q 20.953125 74.21875 31.78125 74.21875 
Q 42.671875 74.21875 48.875 69.140625 
Q 55.078125 64.0625 55.078125 55.328125 
Q 55.078125 49.078125 51.53125 44.71875 
Q 48 40.375 41.703125 38.8125 
Q 48.828125 37.15625 52.796875 32.3125 
Q 56.78125 27.484375 56.78125 20.515625 
Q 56.78125 9.90625 50.3125 4.234375 
Q 43.84375 -1.421875 31.78125 -1.421875 
Q 19.734375 -1.421875 13.25 4.234375 
Q 6.78125 9.90625 6.78125 20.515625 
Q 6.78125 27.484375 10.78125 32.3125 
Q 14.796875 37.15625 21.921875 38.8125 
z
M 18.3125 54.390625 
Q 18.3125 48.734375 21.84375 45.5625 
Q 25.390625 42.390625 31.78125 42.390625 
Q 38.140625 42.390625 41.71875 45.5625 
Q 45.3125 48.734375 45.3125 54.390625 
Q 45.3125 60.0625 41.71875 63.234375 
Q 38.140625 66.40625 31.78125 66.40625 
Q 25.390625 66.40625 21.84375 63.234375 
Q 18.3125 60.0625 18.3125 54.390625 
z
" id="DejaVuSans-56"/>
       </defs>
       <use xlink:href="#DejaVuSans-48"/>
       <use x="63.623047" xlink:href="#DejaVuSans-46"/>
       <use x="95.410156" xlink:href="#DejaVuSans-56"/>
      </g>
     </g>
    </g>
    <g id="ytick_6">
     <g id="line2d_31">
      <path clip-path="url(#pc1dd0a1975)" d="M 57.6 30.334099 
L 338.688 30.334099 
" style="fill:none;stroke:#b0b0b0;stroke-linecap:square;stroke-width:0.8;"/>
     </g>
     <g id="line2d_32">
      <g>
       <use style="stroke:#000000;stroke-width:0.8;" x="57.6" xlink:href="#m454b87839b" y="30.334099"/>
      </g>
     </g>
     <g id="text_11">
      <!-- 1.0 -->
      <g transform="translate(25.155 36.412849)scale(0.16 -0.16)">
       <use xlink:href="#DejaVuSans-49"/>
       <use x="63.623047" xlink:href="#DejaVuSans-46"/>
       <use x="95.410156" xlink:href="#DejaVuSans-48"/>
      </g>
     </g>
    </g>
    <g id="text_12">
     <!-- Fraction of function,target pairs -->
     <g transform="translate(17.619531 297.681)rotate(-90)scale(0.17 -0.17)">
      <defs>
       <path d="M 9.8125 72.90625 
L 51.703125 72.90625 
L 51.703125 64.59375 
L 19.671875 64.59375 
L 19.671875 43.109375 
L 48.578125 43.109375 
L 48.578125 34.8125 
L 19.671875 34.8125 
L 19.671875 0 
L 9.8125 0 
z
" id="DejaVuSans-70"/>
       <path d="M 41.109375 46.296875 
Q 39.59375 47.171875 37.8125 47.578125 
Q 36.03125 48 33.890625 48 
Q 26.265625 48 22.1875 43.046875 
Q 18.109375 38.09375 18.109375 28.8125 
L 18.109375 0 
L 9.078125 0 
L 9.078125 54.6875 
L 18.109375 54.6875 
L 18.109375 46.1875 
Q 20.953125 51.171875 25.484375 53.578125 
Q 30.03125 56 36.53125 56 
Q 37.453125 56 38.578125 55.875 
Q 39.703125 55.765625 41.0625 55.515625 
z
" id="DejaVuSans-114"/>
       <path d="M 48.78125 52.59375 
L 48.78125 44.1875 
Q 44.96875 46.296875 41.140625 47.34375 
Q 37.3125 48.390625 33.40625 48.390625 
Q 24.65625 48.390625 19.8125 42.84375 
Q 14.984375 37.3125 14.984375 27.296875 
Q 14.984375 17.28125 19.8125 11.734375 
Q 24.65625 6.203125 33.40625 6.203125 
Q 37.3125 6.203125 41.140625 7.25 
Q 44.96875 8.296875 48.78125 10.40625 
L 48.78125 2.09375 
Q 45.015625 0.34375 40.984375 -0.53125 
Q 36.96875 -1.421875 32.421875 -1.421875 
Q 20.0625 -1.421875 12.78125 6.34375 
Q 5.515625 14.109375 5.515625 27.296875 
Q 5.515625 40.671875 12.859375 48.328125 
Q 20.21875 56 33.015625 56 
Q 37.15625 56 41.109375 55.140625 
Q 45.0625 54.296875 48.78125 52.59375 
z
" id="DejaVuSans-99"/>
       <path d="M 18.3125 70.21875 
L 18.3125 54.6875 
L 36.8125 54.6875 
L 36.8125 47.703125 
L 18.3125 47.703125 
L 18.3125 18.015625 
Q 18.3125 11.328125 20.140625 9.421875 
Q 21.96875 7.515625 27.59375 7.515625 
L 36.8125 7.515625 
L 36.8125 0 
L 27.59375 0 
Q 17.1875 0 13.234375 3.875 
Q 9.28125 7.765625 9.28125 18.015625 
L 9.28125 47.703125 
L 2.6875 47.703125 
L 2.6875 54.6875 
L 9.28125 54.6875 
L 9.28125 70.21875 
z
" id="DejaVuSans-116"/>
       <path d="M 8.5 21.578125 
L 8.5 54.6875 
L 17.484375 54.6875 
L 17.484375 21.921875 
Q 17.484375 14.15625 20.5 10.265625 
Q 23.53125 6.390625 29.59375 6.390625 
Q 36.859375 6.390625 41.078125 11.03125 
Q 45.3125 15.671875 45.3125 23.6875 
L 45.3125 54.6875 
L 54.296875 54.6875 
L 54.296875 0 
L 45.3125 0 
L 45.3125 8.40625 
Q 42.046875 3.421875 37.71875 1 
Q 33.40625 -1.421875 27.6875 -1.421875 
Q 18.265625 -1.421875 13.375 4.4375 
Q 8.5 10.296875 8.5 21.578125 
z
M 31.109375 56 
z
" id="DejaVuSans-117"/>
       <path d="M 11.71875 12.40625 
L 22.015625 12.40625 
L 22.015625 4 
L 14.015625 -11.625 
L 7.71875 -11.625 
L 11.71875 4 
z
" id="DejaVuSans-44"/>
       <path d="M 18.109375 8.203125 
L 18.109375 -20.796875 
L 9.078125 -20.796875 
L 9.078125 54.6875 
L 18.109375 54.6875 
L 18.109375 46.390625 
Q 20.953125 51.265625 25.265625 53.625 
Q 29.59375 56 35.59375 56 
Q 45.5625 56 51.78125 48.09375 
Q 58.015625 40.1875 58.015625 27.296875 
Q 58.015625 14.40625 51.78125 6.484375 
Q 45.5625 -1.421875 35.59375 -1.421875 
Q 29.59375 -1.421875 25.265625 0.953125 
Q 20.953125 3.328125 18.109375 8.203125 
z
M 48.6875 27.296875 
Q 48.6875 37.203125 44.609375 42.84375 
Q 40.53125 48.484375 33.40625 48.484375 
Q 26.265625 48.484375 22.1875 42.84375 
Q 18.109375 37.203125 18.109375 27.296875 
Q 18.109375 17.390625 22.1875 11.75 
Q 26.265625 6.109375 33.40625 6.109375 
Q 40.53125 6.109375 44.609375 11.75 
Q 48.6875 17.390625 48.6875 27.296875 
z
" id="DejaVuSans-112"/>
      </defs>
      <use xlink:href="#DejaVuSans-70"/>
      <use x="50.269531" xlink:href="#DejaVuSans-114"/>
      <use x="91.382812" xlink:href="#DejaVuSans-97"/>
      <use x="152.662109" xlink:href="#DejaVuSans-99"/>
      <use x="207.642578" xlink:href="#DejaVuSans-116"/>
      <use x="246.851562" xlink:href="#DejaVuSans-105"/>
      <use x="274.634766" xlink:href="#DejaVuSans-111"/>
      <use x="335.816406" xlink:href="#DejaVuSans-110"/>
      <use x="399.195312" xlink:href="#DejaVuSans-32"/>
      <use x="430.982422" xlink:href="#DejaVuSans-111"/>
      <use x="492.164062" xlink:href="#DejaVuSans-102"/>
      <use x="527.369141" xlink:href="#DejaVuSans-32"/>
      <use x="559.15625" xlink:href="#DejaVuSans-102"/>
      <use x="594.361328" xlink:href="#DejaVuSans-117"/>
      <use x="657.740234" xlink:href="#DejaVuSans-110"/>
      <use x="721.119141" xlink:href="#DejaVuSans-99"/>
      <use x="776.099609" xlink:href="#DejaVuSans-116"/>
      <use x="815.308594" xlink:href="#DejaVuSans-105"/>
      <use x="843.091797" xlink:href="#DejaVuSans-111"/>
      <use x="904.273438" xlink:href="#DejaVuSans-110"/>
      <use x="967.652344" xlink:href="#DejaVuSans-44"/>
      <use x="999.439453" xlink:href="#DejaVuSans-116"/>
      <use x="1038.648438" xlink:href="#DejaVuSans-97"/>
      <use x="1099.927734" xlink:href="#DejaVuSans-114"/>
      <use x="1139.291016" xlink:href="#DejaVuSans-103"/>
      <use x="1202.767578" xlink:href="#DejaVuSans-101"/>
      <use x="1264.291016" xlink:href="#DejaVuSans-116"/>
      <use x="1303.5" xlink:href="#DejaVuSans-32"/>
      <use x="1335.287109" xlink:href="#DejaVuSans-112"/>
      <use x="1398.763672" xlink:href="#DejaVuSans-97"/>
      <use x="1460.042969" xlink:href="#DejaVuSans-105"/>
      <use x="1487.826172" xlink:href="#DejaVuSans-114"/>
      <use x="1528.939453" xlink:href="#DejaVuSans-115"/>
     </g>
    </g>
   </g>
   <g id="line2d_33">
    <defs>
     <path d="M 0 1.5 
C 0.397805 1.5 0.77937 1.341951 1.06066 1.06066 
C 1.341951 0.77937 1.5 0.397805 1.5 0 
C 1.5 -0.397805 1.341951 -0.77937 1.06066 -1.06066 
C 0.77937 -1.341951 0.397805 -1.5 0 -1.5 
C -0.397805 -1.5 -0.77937 -1.341951 -1.06066 -1.06066 
C -1.341951 -0.77937 -1.5 -0.397805 -1.5 0 
C -1.5 0.397805 -1.341951 0.77937 -1.06066 1.06066 
C -0.77937 1.341951 -0.397805 1.5 0 1.5 
z
" id="m940ca0df64" style="stroke:#f5deb3;"/>
    </defs>
    <g>
     <use style="fill:#f5deb3;stroke:#f5deb3;" x="248.420696" xlink:href="#m940ca0df64" y="62.752535"/>
     <use style="fill:#f5deb3;stroke:#f5deb3;" x="248.420696" xlink:href="#m940ca0df64" y="62.752535"/>
    </g>
   </g>
   <g id="line2d_34">
    <defs>
     <path d="M 0 1.5 
C 0.397805 1.5 0.77937 1.341951 1.06066 1.06066 
C 1.341951 0.77937 1.5 0.397805 1.5 0 
C 1.5 -0.397805 1.341951 -0.77937 1.06066 -1.06066 
C 0.77937 -1.341951 0.397805 -1.5 0 -1.5 
C -0.397805 -1.5 -0.77937 -1.341951 -1.06066 -1.06066 
C -1.341951 -0.77937 -1.5 -0.397805 -1.5 0 
C -1.5 0.397805 -1.341951 0.77937 -1.06066 1.06066 
C -0.77937 1.341951 -0.397805 1.5 0 1.5 
z
" id="m8483b31025" style="stroke:#000080;"/>
    </defs>
    <g>
     <use style="fill:#000080;stroke:#000080;" x="231.07357" xlink:href="#m8483b31025" y="144.724867"/>
     <use style="fill:#000080;stroke:#000080;" x="231.07357" xlink:href="#m8483b31025" y="144.724867"/>
    </g>
   </g>
   <g id="line2d_35">
    <path d="M 45.512012 298.944 
L 45.512012 289.68159 
L 57.6 289.68159 
L 57.6 287.829108 
L 69.687988 287.829108 
L 69.687988 282.734782 
L 76.759008 282.734782 
L 76.759008 281.808541 
L 83.830028 281.808541 
L 83.830028 281.34542 
L 85.66744 281.34542 
L 85.66744 280.8823 
L 90.242884 280.8823 
L 90.242884 279.492938 
L 91.535274 279.492938 
L 91.535274 278.566697 
L 92.73846 278.566697 
L 92.73846 278.103577 
L 96.86091 278.103577 
L 96.86091 277.177336 
L 97.755429 277.177336 
L 97.755429 276.251095 
L 98.606294 276.251095 
L 98.606294 275.787974 
L 99.41757 275.787974 
L 99.41757 275.324854 
L 100.192776 275.324854 
L 100.192776 274.861733 
L 100.934985 274.861733 
L 100.934985 274.398612 
L 102.989037 274.398612 
L 102.989037 273.472371 
L 105.951954 273.472371 
L 105.951954 272.54613 
L 107.009204 272.54613 
L 107.009204 270.230528 
L 111.505558 270.230528 
L 111.505558 269.767407 
L 113.022974 269.767407 
L 113.022974 268.378046 
L 114.080224 268.378046 
L 114.080224 267.914925 
L 116.323218 267.914925 
L 116.323218 266.525564 
L 117.202696 266.525564 
L 117.202696 266.062443 
L 118.576578 266.062443 
L 118.576578 265.136202 
L 119.097192 265.136202 
L 119.097192 264.673082 
L 119.602714 264.673082 
L 119.602714 264.209961 
L 120.33454 264.209961 
L 120.33454 263.746841 
L 124.557288 263.746841 
L 124.557288 261.431238 
L 128.411207 261.431238 
L 128.411207 260.504997 
L 128.560901 260.504997 
L 128.560901 259.115635 
L 129.290685 259.115635 
L 129.290685 258.652515 
L 130.796184 258.652515 
L 130.796184 258.189394 
L 132.060454 258.189394 
L 132.060454 257.263153 
L 132.893889 257.263153 
L 132.893889 256.336912 
L 134.343353 256.336912 
L 134.343353 255.873792 
L 138.67848 255.873792 
L 138.67848 254.48443 
L 141.235139 254.48443 
L 141.235139 254.02131 
L 142.619936 254.02131 
L 142.686372 251.705707 
L 144.570138 251.705707 
L 144.570138 250.779466 
L 145.609873 250.779466 
L 145.609873 250.316346 
L 146.644018 250.316346 
L 146.749392 248.926984 
L 146.801841 248.926984 
L 146.801841 248.000743 
L 147.570215 248.000743 
L 147.570215 247.537622 
L 150.973835 247.537622 
L 150.973835 246.611381 
L 153.142033 246.611381 
L 153.142033 246.148261 
L 156.052535 246.148261 
L 156.052535 245.68514 
L 156.658127 245.68514 
L 156.658127 244.295779 
L 157.500487 244.295779 
L 157.500487 243.832658 
L 157.86528 243.832658 
L 157.86528 242.906417 
L 158.51933 242.906417 
L 158.572743 241.517056 
L 158.652556 241.517056 
L 158.652556 240.590815 
L 162.260361 240.590815 
L 162.260361 240.127694 
L 164.768882 240.127694 
L 164.768882 239.201453 
L 165.9084 239.201453 
L 165.9084 238.275212 
L 166.645502 238.275212 
L 166.645502 236.88585 
L 167.076532 236.88585 
L 167.109252 235.959609 
L 167.592812 235.959609 
L 167.592812 235.033368 
L 167.892273 235.033368 
L 167.892273 234.570248 
L 169.114201 234.570248 
L 169.114201 234.107127 
L 170.119095 234.107127 
L 170.119095 232.717766 
L 171.620458 232.717766 
L 171.620458 232.254645 
L 171.858583 232.254645 
L 171.858583 231.328404 
L 172.542086 231.328404 
L 172.542086 230.865284 
L 172.97942 230.865284 
L 172.97942 229.939043 
L 173.303236 229.939043 
L 173.303236 228.086561 
L 173.744474 228.086561 
L 173.744474 227.62344 
L 175.62763 227.62344 
L 175.647675 224.844717 
L 176.593204 224.844717 
L 176.593204 223.918476 
L 176.810078 223.918476 
L 176.810078 221.602873 
L 177.2176 221.602873 
L 177.281564 220.213512 
L 177.47206 220.213512 
L 177.47206 219.287271 
L 178.649364 219.287271 
L 178.649364 218.36103 
L 178.767027 218.36103 
L 178.767027 217.434789 
L 179.513075 217.434789 
L 179.513075 216.971668 
L 180.065997 216.971668 
L 180.065997 216.508548 
L 183.293434 216.508548 
L 183.293434 215.582307 
L 183.62623 215.582307 
L 183.62623 214.656066 
L 185.172149 214.656066 
L 185.172149 214.192945 
L 185.80451 214.192945 
L 185.80451 213.729825 
L 186.82585 213.729825 
L 186.82585 212.803583 
L 187.665404 212.803583 
L 187.665404 211.877342 
L 188.253773 211.877342 
L 188.253773 211.414222 
L 188.471193 211.414222 
L 188.471193 210.487981 
L 189.070573 210.487981 
L 189.070573 209.56174 
L 189.378671 209.56174 
L 189.378671 209.098619 
L 189.519403 209.098619 
L 189.519403 208.635499 
L 190.162992 208.635499 
L 190.184766 207.246137 
L 190.426802 207.246137 
L 190.426802 206.319896 
L 191.997789 206.319896 
L 192.095575 204.930535 
L 192.959252 204.930535 
L 192.959252 204.467414 
L 193.213522 204.467414 
L 193.213522 204.004294 
L 193.65779 204.004294 
L 193.736073 202.151812 
L 195.442698 202.151812 
L 195.442698 200.76245 
L 196.543638 200.76245 
L 196.543638 200.299329 
L 197.014757 200.299329 
L 197.014757 199.373088 
L 197.524985 199.373088 
L 197.524985 197.520606 
L 197.830846 197.520606 
L 197.830846 197.057486 
L 199.425992 197.057486 
L 199.425992 196.131245 
L 199.584115 196.131245 
L 199.584115 195.668124 
L 199.708077 195.668124 
L 199.708077 195.205004 
L 199.831163 195.205004 
L 199.831163 194.741883 
L 200.385463 194.741883 
L 200.385463 193.815642 
L 200.896804 193.815642 
L 200.896804 193.352522 
L 201.340859 193.352522 
L 201.340859 191.50004 
L 201.738023 191.50004 
L 201.771649 189.184437 
L 202.049368 189.184437 
L 202.049368 188.721316 
L 202.909467 188.721316 
L 202.909467 188.258196 
L 203.248145 188.258196 
L 203.248145 187.331955 
L 203.584408 187.331955 
L 203.584408 186.868834 
L 203.705095 186.868834 
L 203.705095 186.405714 
L 205.923189 186.405714 
L 206.012978 184.553232 
L 206.187704 184.553232 
L 206.187704 184.090111 
L 206.497866 184.090111 
L 206.497866 183.16387 
L 207.195899 183.16387 
L 207.195899 181.774509 
L 207.862326 181.774509 
L 207.862326 181.311388 
L 208.926821 181.311388 
L 208.926821 180.848268 
L 209.944082 180.848268 
L 210.018212 179.922027 
L 211.29614 179.922027 
L 211.403467 178.069545 
L 212.187415 178.069545 
L 212.295536 177.143304 
L 213.068186 177.143304 
L 213.122004 175.753942 
L 213.416218 175.753942 
L 213.490718 172.512098 
L 213.532984 172.512098 
L 213.558066 171.122737 
L 213.828255 171.122737 
L 213.828255 170.659616 
L 214.035669 170.659616 
L 214.035669 170.196496 
L 214.585602 170.196496 
L 214.600633 167.880893 
L 215.01004 167.880893 
L 215.01004 166.954652 
L 215.406981 166.954652 
L 215.406981 166.028411 
L 215.756965 166.028411 
L 215.756965 165.565291 
L 216.036924 165.565291 
L 216.123682 164.63905 
L 216.323158 164.63905 
L 216.323158 164.175929 
L 216.827208 164.175929 
L 216.827208 163.712808 
L 217.443376 163.712808 
L 217.443376 162.786567 
L 217.772139 162.786567 
L 217.772139 162.323447 
L 218.05701 162.323447 
L 218.070208 160.470965 
L 218.174565 160.470965 
L 218.174565 160.007844 
L 218.507972 160.007844 
L 218.507972 159.544724 
L 218.663391 159.544724 
L 218.663391 159.081603 
L 218.94673 159.081603 
L 218.94673 158.618483 
L 219.239527 158.618483 
L 219.244462 157.692242 
L 219.494287 157.692242 
L 219.494287 157.229121 
L 220.177052 157.229121 
L 220.288163 154.913519 
L 221.402724 154.913519 
L 221.402724 154.450398 
L 221.90617 154.450398 
L 222.001207 153.524157 
L 222.596123 153.524157 
L 222.596123 152.597916 
L 222.818609 152.597916 
L 222.882135 151.671675 
L 224.644896 151.671675 
L 224.644896 150.745434 
L 225.206488 150.745434 
L 225.206488 150.282313 
L 225.478343 150.282313 
L 225.478343 149.356072 
L 225.88031 149.356072 
L 225.88031 148.892952 
L 226.217077 148.892952 
L 226.217077 148.429831 
L 227.502653 148.429831 
L 227.523126 147.04047 
L 228.12936 147.04047 
L 228.207737 145.651108 
L 231.07357 145.651108 
L 231.07357 144.724867 
L 338.688 144.724867 
L 338.688 144.724867 
" style="fill:none;stroke:#000080;stroke-linecap:square;stroke-width:1.5;"/>
   </g>
   <g id="line2d_36">
    <defs>
     <path d="M 0 6 
C 1.591219 6 3.117479 5.367802 4.242641 4.242641 
C 5.367802 3.117479 6 1.591219 6 0 
C 6 -1.591219 5.367802 -3.117479 4.242641 -4.242641 
C 3.117479 -5.367802 1.591219 -6 0 -6 
C -1.591219 -6 -3.117479 -5.367802 -4.242641 -4.242641 
C -5.367802 -3.117479 -6 -1.591219 -6 0 
C -6 1.591219 -5.367802 3.117479 -4.242641 4.242641 
C -3.117479 5.367802 -1.591219 6 0 6 
z
" id="mce833031c1" style="stroke:#000080;stroke-width:1.5;"/>
    </defs>
    <g>
     <use style="fill-opacity:0;stroke:#000080;stroke-width:1.5;" x="124.557288" xlink:href="#mce833031c1" y="261.431238"/>
     <use style="fill-opacity:0;stroke:#000080;stroke-width:1.5;" x="177.47206" xlink:href="#mce833031c1" y="219.287271"/>
     <use style="fill-opacity:0;stroke:#000080;stroke-width:1.5;" x="231.07357" xlink:href="#mce833031c1" y="145.651108"/>
     <use style="fill-opacity:0;stroke:#000080;stroke-width:1.5;" x="231.07357" xlink:href="#mce833031c1" y="144.724867"/>
     <use style="fill-opacity:0;stroke:#000080;stroke-width:1.5;" x="231.07357" xlink:href="#mce833031c1" y="144.724867"/>
     <use style="fill-opacity:0;stroke:#000080;stroke-width:1.5;" x="338.688" xlink:href="#mce833031c1" y="144.724867"/>
    </g>
   </g>
   <g id="line2d_37">
    <path style="fill:none;stroke:#000080;stroke-linecap:square;stroke-width:1.5;"/>
    <g/>
   </g>
   <g id="line2d_38">
    <path clip-path="url(#pc1dd0a1975)" d="M 258.377579 144.724867 
" style="fill:none;stroke:#000080;stroke-linecap:square;stroke-width:1.5;"/>
    <defs>
     <path d="M -12 12 
L 12 -12 
M -12 -12 
L 12 12 
" id="m99f9eea578" style="stroke:#000080;"/>
    </defs>
    <g clip-path="url(#pc1dd0a1975)">
     <use style="fill:#000080;stroke:#000080;" x="258.377579" xlink:href="#m99f9eea578" y="144.724867"/>
    </g>
   </g>
   <g id="line2d_39">
    <defs>
     <path d="M 0 1.5 
C 0.397805 1.5 0.77937 1.341951 1.06066 1.06066 
C 1.341951 0.77937 1.5 0.397805 1.5 0 
C 1.5 -0.397805 1.341951 -0.77937 1.06066 -1.06066 
C 0.77937 -1.341951 0.397805 -1.5 0 -1.5 
C -0.397805 -1.5 -0.77937 -1.341951 -1.06066 -1.06066 
C -1.341951 -0.77937 -1.5 -0.397805 -1.5 0 
C -1.5 0.397805 -1.341951 0.77937 -1.06066 1.06066 
C -0.77937 1.341951 -0.397805 1.5 0 1.5 
z
" id="m958825c93e" style="stroke:#ff00ff;"/>
    </defs>
    <g>
     <use style="fill:#ff00ff;stroke:#ff00ff;" x="258.123572" xlink:href="#m958825c93e" y="86.834802"/>
     <use style="fill:#ff00ff;stroke:#ff00ff;" x="258.123572" xlink:href="#m958825c93e" y="86.834802"/>
    </g>
   </g>
   <g id="line2d_40">
    <path d="M 45.512012 298.944 
L 45.512012 293.386554 
L 128.856489 293.386554 
L 128.856489 292.460313 
L 130.796184 292.460313 
L 130.796184 290.607831 
L 139.253002 290.607831 
L 139.253002 289.218469 
L 146.052799 289.218469 
L 146.052799 286.439746 
L 146.216039 286.439746 
L 146.216039 285.050384 
L 147.317833 285.050384 
L 147.317833 284.124143 
L 149.646525 284.124143 
L 149.646525 283.661023 
L 150.172372 283.661023 
L 150.215485 281.808541 
L 150.556607 281.808541 
L 150.598782 279.956059 
L 152.245598 279.956059 
L 152.245598 279.029818 
L 152.398241 279.029818 
L 152.474064 276.714215 
L 152.736878 276.714215 
L 152.811246 275.787974 
L 153.214697 275.787974 
L 153.214697 275.324854 
L 153.644434 275.324854 
L 153.644434 274.861733 
L 153.994632 274.861733 
L 153.994632 273.472371 
L 154.235652 273.472371 
L 154.337936 270.693648 
L 154.507086 270.693648 
L 154.507086 270.230528 
L 154.707925 270.230528 
L 154.741174 268.378046 
L 154.873541 268.378046 
L 154.873541 267.914925 
L 155.0376 267.914925 
L 155.102793 266.525564 
L 155.425155 266.525564 
L 155.488919 265.136202 
L 155.55245 265.136202 
L 155.55245 264.209961 
L 156.205916 264.209961 
L 156.205916 263.746841 
L 157.156845 263.746841 
L 157.156845 263.28372 
L 157.781772 263.28372 
L 157.781772 262.357479 
L 157.893028 262.357479 
L 157.893028 261.431238 
L 158.276927 261.431238 
L 158.276927 260.968117 
L 158.546057 260.968117 
L 158.546057 260.041876 
L 158.784773 260.041876 
L 158.811096 258.652515 
L 159.380382 258.652515 
L 159.431225 257.263153 
L 159.807898 257.263153 
L 159.807898 256.800033 
L 160.079044 256.800033 
L 160.079044 255.873792 
L 160.249422 255.873792 
L 160.297798 253.095069 
L 160.37011 253.095069 
L 160.37011 250.779466 
L 160.489968 250.779466 
L 160.489968 249.853225 
L 160.656397 249.853225 
L 160.680044 248.926984 
L 160.844678 248.926984 
L 160.844678 248.000743 
L 161.12334 248.000743 
L 161.12334 247.537622 
L 161.420284 247.537622 
L 161.420284 247.074502 
L 161.712255 247.074502 
L 161.778945 246.148261 
L 162.130378 246.148261 
L 162.130378 242.906417 
L 162.303474 242.906417 
L 162.303474 241.517056 
L 162.496175 241.517056 
L 162.602318 239.664574 
L 163.469301 239.664574 
L 163.469301 239.201453 
L 163.609699 239.201453 
L 163.609699 238.738333 
L 163.867476 238.738333 
L 163.926426 237.348971 
L 164.140886 237.348971 
L 164.140886 236.42273 
L 164.467222 236.42273 
L 164.467222 235.496489 
L 164.806225 235.496489 
L 164.806225 234.570248 
L 165.02862 234.570248 
L 165.065412 233.180886 
L 165.46508 233.180886 
L 165.518877 231.328404 
L 165.925901 231.328404 
L 165.995728 229.012802 
L 166.306535 229.012802 
L 166.306535 228.086561 
L 166.578233 228.086561 
L 166.578233 227.62344 
L 167.400994 227.62344 
L 167.400994 226.697199 
L 167.560988 226.697199 
L 167.576907 223.918476 
L 168.217383 223.918476 
L 168.217383 223.455355 
L 168.923766 223.455355 
L 168.967898 222.065994 
L 169.545889 222.065994 
L 169.545889 221.602873 
L 169.827856 221.602873 
L 169.827856 220.676632 
L 170.28336 220.676632 
L 170.28336 219.750391 
L 171.211906 219.750391 
L 171.211906 218.82415 
L 172.397859 218.82415 
L 172.397859 217.897909 
L 172.83878 217.897909 
L 172.920958 216.045427 
L 174.272644 216.045427 
L 174.272644 215.582307 
L 175.436043 215.582307 
L 175.436043 214.656066 
L 175.6777 214.656066 
L 175.6777 213.729825 
L 175.965303 213.729825 
L 175.965303 213.266704 
L 176.875552 213.266704 
L 176.875552 212.340463 
L 177.14421 212.340463 
L 177.14421 210.951101 
L 177.846921 210.951101 
L 177.855749 209.56174 
L 180.003686 209.56174 
L 180.003686 208.635499 
L 180.266984 208.635499 
L 180.266984 208.172378 
L 181.20219 208.172378 
L 181.231304 206.319896 
L 183.518129 206.319896 
L 183.518129 205.393655 
L 183.834181 205.393655 
L 183.834181 204.930535 
L 183.959015 204.930535 
L 183.959015 204.467414 
L 184.328244 204.467414 
L 184.328244 204.004294 
L 184.503941 204.004294 
L 184.534056 201.225571 
L 184.713659 201.225571 
L 184.713659 200.299329 
L 185.669713 200.299329 
L 185.669713 199.373088 
L 186.219158 199.373088 
L 186.262811 198.446847 
L 186.762415 198.446847 
L 186.799447 197.520606 
L 186.952032 197.520606 
L 186.957269 196.131245 
L 187.594861 196.131245 
L 187.594861 195.668124 
L 188.048373 195.668124 
L 188.082775 194.278763 
L 189.103018 194.278763 
L 189.195387 193.352522 
L 189.757409 193.352522 
L 189.757409 192.426281 
L 190.128096 192.426281 
L 190.128096 191.50004 
L 190.631621 191.50004 
L 190.631621 190.573799 
L 192.34344 190.573799 
L 192.34344 189.647558 
L 192.843797 189.647558 
L 192.843797 189.184437 
L 193.209863 189.184437 
L 193.209863 188.258196 
L 194.459336 188.258196 
L 194.483163 187.331955 
L 194.716298 187.331955 
L 194.716298 186.868834 
L 195.055323 186.868834 
L 195.055323 186.405714 
L 195.471648 186.405714 
L 195.471648 185.016352 
L 195.653892 185.016352 
L 195.672965 183.16387 
L 196.613015 183.16387 
L 196.613015 182.70075 
L 197.02652 182.70075 
L 197.070563 179.922027 
L 197.462017 179.922027 
L 197.487804 178.995786 
L 197.979005 178.995786 
L 198.059543 177.606424 
L 199.094939 177.606424 
L 199.094939 176.680183 
L 199.943442 176.680183 
L 199.943442 175.753942 
L 200.592761 175.753942 
L 200.592761 174.827701 
L 200.795254 174.827701 
L 200.844922 173.90146 
L 200.986055 173.90146 
L 200.986055 173.438339 
L 201.216457 173.438339 
L 201.216457 172.975219 
L 202.117563 172.975219 
L 202.189866 171.585857 
L 204.452566 171.585857 
L 204.452566 171.122737 
L 205.530476 171.122737 
L 205.530476 170.196496 
L 205.930248 170.196496 
L 205.930248 169.733375 
L 206.161606 169.733375 
L 206.161606 169.270255 
L 208.838936 169.270255 
L 208.838936 168.807134 
L 209.151219 168.807134 
L 209.151219 167.417773 
L 209.552873 167.417773 
L 209.552873 166.491532 
L 211.250683 166.491532 
L 211.250683 164.63905 
L 211.855205 164.63905 
L 211.944165 163.249688 
L 214.106471 163.249688 
L 214.189077 161.860326 
L 214.44324 161.860326 
L 214.44324 160.934085 
L 215.064465 160.934085 
L 215.064465 160.470965 
L 215.437695 160.470965 
L 215.437695 160.007844 
L 216.570295 160.007844 
L 216.66875 159.081603 
L 216.756222 159.081603 
L 216.756222 158.618483 
L 217.033781 158.618483 
L 217.033781 158.155362 
L 217.205616 158.155362 
L 217.314341 156.30288 
L 218.732965 156.30288 
L 218.732965 155.376639 
L 219.143852 155.376639 
L 219.143852 154.913519 
L 219.771726 154.913519 
L 219.771726 153.987278 
L 221.205437 153.987278 
L 221.205437 153.524157 
L 221.451337 153.524157 
L 221.485358 152.134795 
L 221.628673 152.134795 
L 221.628673 151.671675 
L 222.472193 151.671675 
L 222.472193 151.208554 
L 222.590694 151.208554 
L 222.590694 148.892952 
L 222.789779 148.892952 
L 222.789779 148.429831 
L 223.042922 148.429831 
L 223.119471 145.187988 
L 223.155649 145.187988 
L 223.155649 144.261747 
L 223.270263 144.261747 
L 223.33477 143.335506 
L 223.389964 143.335506 
L 223.389964 142.872385 
L 223.772147 142.872385 
L 223.848726 140.556783 
L 223.990236 140.556783 
L 224.083942 137.314939 
L 224.271706 137.314939 
L 224.271706 136.851818 
L 224.567501 136.851818 
L 224.567501 135.925577 
L 224.981295 135.925577 
L 224.981295 135.462457 
L 225.124508 135.462457 
L 225.124508 134.536216 
L 225.484669 134.536216 
L 225.484669 133.609975 
L 225.74546 133.609975 
L 225.74546 133.146854 
L 226.137509 133.146854 
L 226.234159 131.757493 
L 226.296833 131.757493 
L 226.296833 131.294372 
L 227.171776 131.294372 
L 227.171776 130.368131 
L 227.471386 130.368131 
L 227.471386 129.905011 
L 228.386823 129.905011 
L 228.386823 128.97877 
L 228.549145 128.97877 
L 228.549145 128.515649 
L 229.22229 128.515649 
L 229.22229 128.052529 
L 229.464221 128.052529 
L 229.464221 127.589408 
L 230.505662 127.589408 
L 230.505662 126.663167 
L 231.088587 126.663167 
L 231.088587 126.200046 
L 233.250753 126.200046 
L 233.273206 124.347564 
L 233.40294 124.347564 
L 233.421551 120.17948 
L 233.940781 120.17948 
L 233.940781 119.716359 
L 234.363638 119.716359 
L 234.363638 118.790118 
L 234.486909 118.790118 
L 234.486909 118.326998 
L 235.050038 118.326998 
L 235.050038 116.011395 
L 235.786086 116.011395 
L 235.786086 115.548274 
L 237.289218 115.548274 
L 237.289218 115.085154 
L 237.769894 115.085154 
L 237.769894 114.158913 
L 237.89282 114.158913 
L 237.89282 113.695792 
L 238.118559 113.695792 
L 238.118559 113.232672 
L 238.242104 113.232672 
L 238.242104 112.306431 
L 238.66869 112.306431 
L 238.66869 111.84331 
L 239.191257 111.84331 
L 239.191257 111.38019 
L 239.556552 111.38019 
L 239.662957 110.453949 
L 239.716933 110.453949 
L 239.716933 109.527708 
L 240.896122 109.527708 
L 240.896122 108.601467 
L 242.200387 108.601467 
L 242.200387 108.138346 
L 243.843076 108.138346 
L 243.843076 107.212105 
L 244.102585 107.212105 
L 244.102585 106.748985 
L 244.711008 106.748985 
L 244.791766 103.507141 
L 245.072261 103.507141 
L 245.072261 103.04402 
L 245.312386 103.04402 
L 245.400693 102.117779 
L 245.79317 102.117779 
L 245.847988 100.265297 
L 245.914754 100.265297 
L 245.914754 99.802177 
L 246.331132 99.802177 
L 246.331132 98.875936 
L 248.222809 98.875936 
L 248.222809 97.949695 
L 248.475705 97.949695 
L 248.475705 97.486574 
L 248.729383 97.486574 
L 248.729383 97.023454 
L 248.862151 97.023454 
L 248.862151 96.560333 
L 249.370484 96.560333 
L 249.370484 96.097213 
L 250.109039 96.097213 
L 250.109039 95.170972 
L 251.548193 95.170972 
L 251.548193 94.707851 
L 251.767767 94.707851 
L 251.785845 93.31849 
L 252.178276 93.31849 
L 252.178276 92.392249 
L 252.417494 92.392249 
L 252.417494 91.466008 
L 253.232635 91.466008 
L 253.232635 90.539766 
L 255.253094 90.539766 
L 255.356983 89.613525 
L 255.677003 89.613525 
L 255.677003 89.150405 
L 255.805911 89.150405 
L 255.805911 88.687284 
L 256.809016 88.687284 
L 256.809016 88.224164 
L 256.93364 88.224164 
L 256.93364 87.297923 
L 258.123572 87.297923 
L 258.123572 86.834802 
L 338.688 86.834802 
L 338.688 86.834802 
" style="fill:none;stroke:#ff00ff;stroke-linecap:square;stroke-width:1.5;"/>
   </g>
   <g id="line2d_41">
    <defs>
     <path d="M 0 8.485281 
L 5.091169 0 
L 0 -8.485281 
L -5.091169 0 
z
" id="mf5dca7b847" style="stroke:#ff00ff;stroke-linejoin:miter;stroke-width:1.5;"/>
    </defs>
    <g>
     <use style="fill-opacity:0;stroke:#ff00ff;stroke-linejoin:miter;stroke-width:1.5;" x="171.211906" xlink:href="#mf5dca7b847" y="218.82415"/>
     <use style="fill-opacity:0;stroke:#ff00ff;stroke-linejoin:miter;stroke-width:1.5;" x="222.789779" xlink:href="#mf5dca7b847" y="148.429831"/>
     <use style="fill-opacity:0;stroke:#ff00ff;stroke-linejoin:miter;stroke-width:1.5;" x="258.123572" xlink:href="#mf5dca7b847" y="87.297923"/>
     <use style="fill-opacity:0;stroke:#ff00ff;stroke-linejoin:miter;stroke-width:1.5;" x="258.123572" xlink:href="#mf5dca7b847" y="86.834802"/>
     <use style="fill-opacity:0;stroke:#ff00ff;stroke-linejoin:miter;stroke-width:1.5;" x="338.688" xlink:href="#mf5dca7b847" y="86.834802"/>
    </g>
   </g>
   <g id="line2d_42">
    <path style="fill:none;stroke:#ff00ff;stroke-linecap:square;stroke-width:1.5;"/>
    <g/>
   </g>
   <g id="line2d_43">
    <path clip-path="url(#pc1dd0a1975)" d="M 258.387342 86.834802 
" style="fill:none;stroke:#ff00ff;stroke-linecap:square;stroke-width:1.5;"/>
    <defs>
     <path d="M -12 12 
L 12 -12 
M -12 -12 
L 12 12 
" id="m3a2ee4e46d" style="stroke:#ff00ff;"/>
    </defs>
    <g clip-path="url(#pc1dd0a1975)">
     <use style="fill:#ff00ff;stroke:#ff00ff;" x="258.387342" xlink:href="#m3a2ee4e46d" y="86.834802"/>
    </g>
   </g>
   <g id="line2d_44">
    <defs>
     <path d="M 0 1.5 
C 0.397805 1.5 0.77937 1.341951 1.06066 1.06066 
C 1.341951 0.77937 1.5 0.397805 1.5 0 
C 1.5 -0.397805 1.341951 -0.77937 1.06066 -1.06066 
C 0.77937 -1.341951 0.397805 -1.5 0 -1.5 
C -0.397805 -1.5 -0.77937 -1.341951 -1.06066 -1.06066 
C -1.341951 -0.77937 -1.5 -0.397805 -1.5 0 
C -1.5 0.397805 -1.341951 0.77937 -1.06066 1.06066 
C -0.77937 1.341951 -0.397805 1.5 0 1.5 
z
" id="m55b89f33a5" style="stroke:#ff7500;"/>
    </defs>
    <g>
     <use style="fill:#ff7500;stroke:#ff7500;" x="257.577913" xlink:href="#m55b89f33a5" y="87.761043"/>
     <use style="fill:#ff7500;stroke:#ff7500;" x="257.577913" xlink:href="#m55b89f33a5" y="87.761043"/>
    </g>
   </g>
   <g id="line2d_45">
    <path d="M 137.016339 298.944 
L 137.016339 298.480879 
L 137.910857 298.480879 
L 137.910857 298.017759 
L 138.761723 298.017759 
L 138.761723 295.702156 
L 139.887228 295.702156 
L 139.887228 293.386554 
L 143.014805 293.386554 
L 143.014805 292.460313 
L 143.527762 292.460313 
L 143.527762 291.997192 
L 145.497361 291.997192 
L 145.497361 291.070951 
L 146.377764 291.070951 
L 146.377764 288.755349 
L 148.354135 288.755349 
L 148.354135 287.829108 
L 148.639252 287.829108 
L 148.639252 286.902867 
L 150.042389 286.902867 
L 150.042389 285.976625 
L 150.47195 285.976625 
L 150.47195 284.587264 
L 151.897188 284.587264 
L 151.897188 283.197902 
L 152.885298 283.197902 
L 152.885298 282.734782 
L 153.395042 282.734782 
L 153.395042 282.271661 
L 154.063835 282.271661 
L 154.063835 281.808541 
L 154.439623 281.808541 
L 154.439623 280.8823 
L 154.674612 280.8823 
L 154.674612 278.566697 
L 155.264719 278.566697 
L 155.296925 277.640456 
L 155.584129 277.640456 
L 155.584129 277.177336 
L 155.86668 277.177336 
L 155.86668 276.714215 
L 156.418408 276.714215 
L 156.418408 276.251095 
L 156.923929 276.251095 
L 156.923929 275.324854 
L 157.098907 275.324854 
L 157.098907 273.935492 
L 158.67908 273.935492 
L 158.67908 269.304287 
L 159.32939 269.304287 
L 159.405822 266.525564 
L 159.456591 266.525564 
L 159.456591 266.062443 
L 159.708245 266.062443 
L 159.758143 265.136202 
L 160.054568 265.136202 
L 160.054568 264.673082 
L 160.200913 264.673082 
L 160.200913 264.209961 
L 160.585265 264.209961 
L 160.585265 262.8206 
L 161.600536 262.8206 
L 161.600536 261.894358 
L 161.911563 261.894358 
L 161.911563 261.431238 
L 162.086834 261.431238 
L 162.086834 260.504997 
L 162.260361 260.504997 
L 162.260361 259.578756 
L 162.559939 259.578756 
L 162.559939 259.115635 
L 162.770815 259.115635 
L 162.875305 258.189394 
L 163.225959 258.189394 
L 163.225959 257.726274 
L 163.887148 257.726274 
L 163.887148 257.263153 
L 164.35274 257.263153 
L 164.35274 256.336912 
L 164.505216 256.336912 
L 164.543127 255.410671 
L 164.675172 255.410671 
L 164.675172 254.02131 
L 165.175324 254.02131 
L 165.175324 253.095069 
L 165.500963 253.095069 
L 165.500963 252.631948 
L 166.047915 252.631948 
L 166.047915 252.168828 
L 166.679039 252.168828 
L 166.679039 251.242587 
L 166.878918 251.242587 
L 166.878918 250.316346 
L 167.109252 250.316346 
L 167.109252 249.853225 
L 167.608702 249.853225 
L 167.640438 248.000743 
L 167.751064 248.000743 
L 167.829655 246.611381 
L 168.263336 246.611381 
L 168.370092 243.369538 
L 168.385289 243.369538 
L 168.385289 242.906417 
L 168.596677 242.906417 
L 168.596677 242.443297 
L 169.230367 242.443297 
L 169.230367 241.517056 
L 169.403177 241.517056 
L 169.403177 241.053935 
L 169.701534 241.053935 
L 169.701534 240.127694 
L 169.939378 240.127694 
L 170.050192 239.201453 
L 170.201421 239.201453 
L 170.201421 238.738333 
L 170.459584 238.738333 
L 170.459584 237.812091 
L 170.899085 237.812091 
L 170.899085 236.88585 
L 171.18605 236.88585 
L 171.18605 235.959609 
L 171.746192 235.959609 
L 171.746192 235.033368 
L 171.945501 235.033368 
L 171.945501 233.180886 
L 172.301041 233.180886 
L 172.301041 231.791525 
L 172.589897 231.791525 
L 172.673253 229.012802 
L 173.014404 229.012802 
L 173.014404 227.62344 
L 173.176739 227.62344 
L 173.176739 226.234079 
L 173.666095 226.234079 
L 173.666095 225.307837 
L 174.541525 225.307837 
L 174.541525 224.381596 
L 174.921573 224.381596 
L 174.921573 222.992235 
L 175.20127 222.992235 
L 175.20127 222.065994 
L 175.466434 222.065994 
L 175.577416 220.676632 
L 175.836964 220.676632 
L 175.836964 220.213512 
L 176.411991 220.213512 
L 176.517133 218.36103 
L 176.82881 218.36103 
L 176.82881 217.897909 
L 177.190115 217.897909 
L 177.190115 216.971668 
L 177.308905 216.971668 
L 177.308905 216.508548 
L 178.048838 216.508548 
L 178.048838 215.582307 
L 178.590234 215.582307 
L 178.607149 214.192945 
L 179.107114 214.192945 
L 179.172706 212.803583 
L 179.246204 212.803583 
L 179.246204 210.487981 
L 179.688747 210.487981 
L 179.688747 208.172378 
L 180.692168 208.172378 
L 180.759545 206.783017 
L 180.886106 206.783017 
L 180.900935 205.393655 
L 181.099906 205.393655 
L 181.099906 204.930535 
L 181.491165 204.930535 
L 181.491165 204.467414 
L 182.075935 204.467414 
L 182.075935 203.541173 
L 182.384967 203.541173 
L 182.384967 202.614932 
L 182.728709 202.614932 
L 182.728709 202.151812 
L 184.212165 202.151812 
L 184.212165 201.225571 
L 184.671916 201.225571 
L 184.671916 200.76245 
L 185.067409 200.76245 
L 185.067409 200.299329 
L 185.253182 200.299329 
L 185.253182 198.909968 
L 185.505431 198.909968 
L 185.528183 197.520606 
L 185.658433 197.520606 
L 185.658433 196.594365 
L 185.982634 196.594365 
L 185.982634 196.131245 
L 186.246454 196.131245 
L 186.246454 195.205004 
L 186.425543 195.205004 
L 186.490213 193.352522 
L 186.730611 193.352522 
L 186.730611 192.426281 
L 186.889055 192.426281 
L 186.899567 191.036919 
L 187.335442 191.036919 
L 187.335442 189.184437 
L 187.750682 189.184437 
L 187.750682 188.721316 
L 188.038531 188.721316 
L 188.126906 187.331955 
L 188.355574 187.331955 
L 188.355574 185.942593 
L 188.888693 185.942593 
L 188.982202 184.090111 
L 189.541995 184.090111 
L 189.541995 183.16387 
L 189.987809 183.16387 
L 190.014199 181.774509 
L 191.141627 181.774509 
L 191.149865 180.385147 
L 191.617107 180.385147 
L 191.721031 179.458906 
L 192.331899 179.458906 
L 192.331899 178.995786 
L 192.602992 178.995786 
L 192.602992 178.532665 
L 195.199559 178.532665 
L 195.199559 178.069545 
L 195.821654 178.069545 
L 195.821654 177.606424 
L 196.003413 177.606424 
L 196.043894 176.680183 
L 196.229518 176.680183 
L 196.229518 175.753942 
L 196.938101 175.753942 
L 196.976471 174.827701 
L 197.161233 174.827701 
L 197.161233 174.36458 
L 197.655916 174.36458 
L 197.655916 173.438339 
L 198.80533 173.438339 
L 198.80533 172.512098 
L 198.977043 172.512098 
L 198.977043 171.585857 
L 199.115815 171.585857 
L 199.12103 170.196496 
L 199.836169 170.196496 
L 199.836169 169.733375 
L 200.373335 169.733375 
L 200.373335 169.270255 
L 200.917984 169.270255 
L 201.028174 166.954652 
L 201.354627 166.954652 
L 201.354627 165.565291 
L 201.740267 165.565291 
L 201.740267 164.63905 
L 201.98533 164.63905 
L 202.009648 163.712808 
L 202.993189 163.712808 
L 202.993189 163.249688 
L 203.190433 163.249688 
L 203.190433 162.786567 
L 203.401796 162.786567 
L 203.401796 162.323447 
L 203.56017 162.323447 
L 203.56017 161.397206 
L 204.046508 161.397206 
L 204.115171 160.470965 
L 204.24003 160.470965 
L 204.24003 160.007844 
L 204.711806 160.007844 
L 204.711806 158.155362 
L 205.030528 158.155362 
L 205.030528 157.229121 
L 205.222678 157.229121 
L 205.222678 156.766001 
L 205.561139 156.766001 
L 205.561139 155.83976 
L 205.688624 155.83976 
L 205.761819 154.450398 
L 206.06558 154.450398 
L 206.06558 153.987278 
L 206.725235 153.987278 
L 206.725235 153.524157 
L 206.906354 153.524157 
L 206.969637 152.134795 
L 207.313644 152.134795 
L 207.313644 151.671675 
L 207.700483 151.671675 
L 207.700483 151.208554 
L 207.825963 151.208554 
L 207.920665 149.819193 
L 208.136547 149.819193 
L 208.136547 149.356072 
L 208.631627 149.356072 
L 208.631627 148.892952 
L 208.955029 148.892952 
L 208.955029 148.429831 
L 209.127733 148.429831 
L 209.127733 147.966711 
L 209.329261 147.966711 
L 209.420495 146.577349 
L 210.005646 146.577349 
L 210.005646 145.651108 
L 210.392403 145.651108 
L 210.392403 145.187988 
L 210.903935 145.187988 
L 210.903935 144.261747 
L 211.184233 144.261747 
L 211.184233 143.798626 
L 211.394441 143.798626 
L 211.394441 142.872385 
L 211.568976 142.872385 
L 211.568976 141.946144 
L 213.298665 141.946144 
L 213.298665 141.019903 
L 214.034561 141.019903 
L 214.07 139.167421 
L 214.408552 139.167421 
L 214.517801 137.778059 
L 214.544738 137.778059 
L 214.631728 135.925577 
L 215.005846 135.925577 
L 215.005846 135.462457 
L 215.619838 135.462457 
L 215.619838 134.999336 
L 216.012198 134.999336 
L 216.012198 132.683734 
L 216.507876 132.683734 
L 216.610509 131.757493 
L 216.768547 131.757493 
L 216.768547 131.294372 
L 217.24347 131.294372 
L 217.24347 130.831252 
L 217.362956 130.831252 
L 217.470708 127.589408 
L 217.773034 127.589408 
L 217.773034 126.663167 
L 218.036752 126.663167 
L 218.036752 125.736926 
L 218.569622 125.736926 
L 218.569622 125.273805 
L 218.891436 125.273805 
L 218.891436 124.810685 
L 220.203534 124.810685 
L 220.235415 120.6426 
L 220.580027 120.6426 
L 220.61883 119.716359 
L 220.734721 119.716359 
L 220.734721 119.253239 
L 221.324807 119.253239 
L 221.378003 117.863877 
L 221.663781 117.863877 
L 221.663781 116.937636 
L 222.526777 116.937636 
L 222.526777 116.011395 
L 222.801182 116.011395 
L 222.801182 115.548274 
L 224.270473 115.548274 
L 224.270473 115.085154 
L 226.298479 115.085154 
L 226.298479 114.622033 
L 226.866398 114.622033 
L 226.866398 113.695792 
L 227.906111 113.695792 
L 227.942603 112.306431 
L 228.183128 112.306431 
L 228.183128 111.84331 
L 230.447364 111.84331 
L 230.447364 110.917069 
L 230.763278 110.917069 
L 230.763278 110.453949 
L 231.326282 110.453949 
L 231.326282 109.527708 
L 231.570923 109.527708 
L 231.570923 108.601467 
L 231.825375 108.601467 
L 231.825375 108.138346 
L 232.797022 108.138346 
L 232.902175 106.285864 
L 232.966686 106.285864 
L 232.966686 105.822744 
L 233.709129 105.822744 
L 233.709129 105.359623 
L 235.041398 105.359623 
L 235.041398 104.896503 
L 236.35168 104.896503 
L 236.35168 104.433382 
L 236.673055 104.433382 
L 236.673055 103.970262 
L 237.565469 103.970262 
L 237.565469 103.04402 
L 239.144297 103.04402 
L 239.144297 102.117779 
L 239.768462 102.117779 
L 239.768462 101.191538 
L 242.130579 101.191538 
L 242.130579 100.728418 
L 242.451452 100.728418 
L 242.451452 100.265297 
L 243.006471 100.265297 
L 243.006471 99.339056 
L 245.699619 99.339056 
L 245.699619 98.875936 
L 246.070496 98.875936 
L 246.070496 97.949695 
L 246.377695 97.949695 
L 246.377695 97.486574 
L 247.649537 97.486574 
L 247.649537 95.170972 
L 247.836772 95.170972 
L 247.836772 94.707851 
L 249.027485 94.707851 
L 249.032701 92.855369 
L 250.61641 92.855369 
L 250.61641 91.929128 
L 250.887791 91.929128 
L 250.887791 91.002887 
L 252.976744 91.002887 
L 252.976744 90.076646 
L 254.252071 90.076646 
L 254.252071 89.150405 
L 254.776226 89.150405 
L 254.776226 88.687284 
L 256.453777 88.687284 
L 256.453777 88.224164 
L 257.577913 88.224164 
L 257.577913 87.761043 
L 338.688 87.761043 
L 338.688 87.761043 
" style="fill:none;stroke:#ff7500;stroke-linecap:square;stroke-width:1.5;"/>
   </g>
   <g id="line2d_46">
    <defs>
     <path d="M 0 -6 
L -1.347084 -1.854102 
L -5.706339 -1.854102 
L -2.179628 0.708204 
L -3.526712 4.854102 
L -0 2.291796 
L 3.526712 4.854102 
L 2.179628 0.708204 
L 5.706339 -1.854102 
L 1.347084 -1.854102 
z
" id="mc6281b0793" style="stroke:#ff7500;stroke-linejoin:bevel;stroke-width:1.5;"/>
    </defs>
    <g>
     <use style="fill-opacity:0;stroke:#ff7500;stroke-linejoin:bevel;stroke-width:1.5;" x="186.490213" xlink:href="#mc6281b0793" y="193.352522"/>
     <use style="fill-opacity:0;stroke:#ff7500;stroke-linejoin:bevel;stroke-width:1.5;" x="246.377695" xlink:href="#mc6281b0793" y="97.486574"/>
     <use style="fill-opacity:0;stroke:#ff7500;stroke-linejoin:bevel;stroke-width:1.5;" x="257.577913" xlink:href="#mc6281b0793" y="87.761043"/>
     <use style="fill-opacity:0;stroke:#ff7500;stroke-linejoin:bevel;stroke-width:1.5;" x="257.577913" xlink:href="#mc6281b0793" y="87.761043"/>
     <use style="fill-opacity:0;stroke:#ff7500;stroke-linejoin:bevel;stroke-width:1.5;" x="338.688" xlink:href="#mc6281b0793" y="87.761043"/>
    </g>
   </g>
   <g id="line2d_47">
    <path style="fill:none;stroke:#ff7500;stroke-linecap:square;stroke-width:1.5;"/>
    <g/>
   </g>
   <g id="line2d_48">
    <path clip-path="url(#pc1dd0a1975)" d="M 258.37723 87.761043 
" style="fill:none;stroke:#ff7500;stroke-linecap:square;stroke-width:1.5;"/>
    <defs>
     <path d="M -12 12 
L 12 -12 
M -12 -12 
L 12 12 
" id="m865bb346c4" style="stroke:#ff7500;"/>
    </defs>
    <g clip-path="url(#pc1dd0a1975)">
     <use style="fill:#ff7500;stroke:#ff7500;" x="258.37723" xlink:href="#m865bb346c4" y="87.761043"/>
    </g>
   </g>
   <g id="line2d_49">
    <path d="M 338.688 144.724867 
L 369.60768 293.571802 
" style="fill:none;stroke:#000080;stroke-linecap:square;stroke-width:1.5;"/>
    <g>
     <use style="fill-opacity:0;stroke:#000080;stroke-width:1.5;" x="338.688" xlink:href="#mce833031c1" y="144.724867"/>
     <use style="fill-opacity:0;stroke:#000080;stroke-width:1.5;" x="369.60768" xlink:href="#mce833031c1" y="293.571802"/>
    </g>
   </g>
   <g id="line2d_50">
    <path d="M 338.688 87.761043 
L 369.60768 207.616634 
" style="fill:none;stroke:#ff7500;stroke-linecap:square;stroke-width:1.5;"/>
    <g>
     <use style="fill-opacity:0;stroke:#ff7500;stroke-linejoin:bevel;stroke-width:1.5;" x="338.688" xlink:href="#mc6281b0793" y="87.761043"/>
     <use style="fill-opacity:0;stroke:#ff7500;stroke-linejoin:bevel;stroke-width:1.5;" x="369.60768" xlink:href="#mc6281b0793" y="207.616634"/>
    </g>
   </g>
   <g id="line2d_51">
    <path d="M 338.688 86.834802 
L 369.60768 121.661465 
" style="fill:none;stroke:#ff00ff;stroke-linecap:square;stroke-width:1.5;"/>
    <g>
     <use style="fill-opacity:0;stroke:#ff00ff;stroke-linejoin:miter;stroke-width:1.5;" x="338.688" xlink:href="#mf5dca7b847" y="86.834802"/>
     <use style="fill-opacity:0;stroke:#ff00ff;stroke-linejoin:miter;stroke-width:1.5;" x="369.60768" xlink:href="#mf5dca7b847" y="121.661465"/>
    </g>
   </g>
   <g id="line2d_52">
    <path d="M 338.688 298.944 
L 338.688 30.334099 
" style="fill:none;stroke:#000000;stroke-linecap:square;stroke-width:1.5;"/>
   </g>
   <g id="patch_3">
    <path d="M 57.6 298.944 
L 57.6 27.648 
" style="fill:none;stroke:#000000;stroke-linecap:square;stroke-linejoin:miter;stroke-width:0.8;"/>
   </g>
   <g id="patch_4">
    <path d="M 338.688 298.944 
L 338.688 27.648 
" style="fill:none;stroke:#000000;stroke-linecap:square;stroke-linejoin:miter;stroke-width:0.8;"/>
   </g>
   <g id="patch_5">
    <path d="M 57.6 298.944 
L 338.688 298.944 
" style="fill:none;stroke:#000000;stroke-linecap:square;stroke-linejoin:miter;stroke-width:0.8;"/>
   </g>
   <g id="patch_6">
    <path d="M 57.6 27.648 
L 338.688 27.648 
" style="fill:none;stroke:#000000;stroke-linecap:square;stroke-linejoin:miter;stroke-width:0.8;"/>
   </g>
   <g id="text_13">
    <!-- COMO-100  -->
    <g transform="translate(375.22944 298.262739)scale(0.17 -0.17)">
     <defs>
      <path d="M 64.40625 67.28125 
L 64.40625 56.890625 
Q 59.421875 61.53125 53.78125 63.8125 
Q 48.140625 66.109375 41.796875 66.109375 
Q 29.296875 66.109375 22.65625 58.46875 
Q 16.015625 50.828125 16.015625 36.375 
Q 16.015625 21.96875 22.65625 14.328125 
Q 29.296875 6.6875 41.796875 6.6875 
Q 48.140625 6.6875 53.78125 8.984375 
Q 59.421875 11.28125 64.40625 15.921875 
L 64.40625 5.609375 
Q 59.234375 2.09375 53.4375 0.328125 
Q 47.65625 -1.421875 41.21875 -1.421875 
Q 24.65625 -1.421875 15.125 8.703125 
Q 5.609375 18.84375 5.609375 36.375 
Q 5.609375 53.953125 15.125 64.078125 
Q 24.65625 74.21875 41.21875 74.21875 
Q 47.75 74.21875 53.53125 72.484375 
Q 59.328125 70.75 64.40625 67.28125 
z
" id="DejaVuSans-67"/>
      <path d="M 39.40625 66.21875 
Q 28.65625 66.21875 22.328125 58.203125 
Q 16.015625 50.203125 16.015625 36.375 
Q 16.015625 22.609375 22.328125 14.59375 
Q 28.65625 6.59375 39.40625 6.59375 
Q 50.140625 6.59375 56.421875 14.59375 
Q 62.703125 22.609375 62.703125 36.375 
Q 62.703125 50.203125 56.421875 58.203125 
Q 50.140625 66.21875 39.40625 66.21875 
z
M 39.40625 74.21875 
Q 54.734375 74.21875 63.90625 63.9375 
Q 73.09375 53.65625 73.09375 36.375 
Q 73.09375 19.140625 63.90625 8.859375 
Q 54.734375 -1.421875 39.40625 -1.421875 
Q 24.03125 -1.421875 14.8125 8.828125 
Q 5.609375 19.09375 5.609375 36.375 
Q 5.609375 53.65625 14.8125 63.9375 
Q 24.03125 74.21875 39.40625 74.21875 
z
" id="DejaVuSans-79"/>
      <path d="M 9.8125 72.90625 
L 24.515625 72.90625 
L 43.109375 23.296875 
L 61.8125 72.90625 
L 76.515625 72.90625 
L 76.515625 0 
L 66.890625 0 
L 66.890625 64.015625 
L 48.09375 14.015625 
L 38.1875 14.015625 
L 19.390625 64.015625 
L 19.390625 0 
L 9.8125 0 
z
" id="DejaVuSans-77"/>
     </defs>
     <use xlink:href="#DejaVuSans-67"/>
     <use x="69.824219" xlink:href="#DejaVuSans-79"/>
     <use x="148.535156" xlink:href="#DejaVuSans-77"/>
     <use x="234.814453" xlink:href="#DejaVuSans-79"/>
     <use x="316.275391" xlink:href="#DejaVuSans-45"/>
     <use x="352.359375" xlink:href="#DejaVuSans-49"/>
     <use x="415.982422" xlink:href="#DejaVuSans-48"/>
     <use x="479.605469" xlink:href="#DejaVuSans-48"/>
     <use x="543.228516" xlink:href="#DejaVuSans-32"/>
    </g>
   </g>
   <g id="text_14">
    <!-- SMS-EMOA- -->
    <g transform="translate(375.22944 212.307571)scale(0.17 -0.17)">
     <defs>
      <path d="M 53.515625 70.515625 
L 53.515625 60.890625 
Q 47.90625 63.578125 42.921875 64.890625 
Q 37.9375 66.21875 33.296875 66.21875 
Q 25.25 66.21875 20.875 63.09375 
Q 16.5 59.96875 16.5 54.203125 
Q 16.5 49.359375 19.40625 46.890625 
Q 22.3125 44.4375 30.421875 42.921875 
L 36.375 41.703125 
Q 47.40625 39.59375 52.65625 34.296875 
Q 57.90625 29 57.90625 20.125 
Q 57.90625 9.515625 50.796875 4.046875 
Q 43.703125 -1.421875 29.984375 -1.421875 
Q 24.8125 -1.421875 18.96875 -0.25 
Q 13.140625 0.921875 6.890625 3.21875 
L 6.890625 13.375 
Q 12.890625 10.015625 18.65625 8.296875 
Q 24.421875 6.59375 29.984375 6.59375 
Q 38.421875 6.59375 43.015625 9.90625 
Q 47.609375 13.234375 47.609375 19.390625 
Q 47.609375 24.75 44.3125 27.78125 
Q 41.015625 30.8125 33.5 32.328125 
L 27.484375 33.5 
Q 16.453125 35.6875 11.515625 40.375 
Q 6.59375 45.0625 6.59375 53.421875 
Q 6.59375 63.09375 13.40625 68.65625 
Q 20.21875 74.21875 32.171875 74.21875 
Q 37.3125 74.21875 42.625 73.28125 
Q 47.953125 72.359375 53.515625 70.515625 
z
" id="DejaVuSans-83"/>
      <path d="M 9.8125 72.90625 
L 55.90625 72.90625 
L 55.90625 64.59375 
L 19.671875 64.59375 
L 19.671875 43.015625 
L 54.390625 43.015625 
L 54.390625 34.71875 
L 19.671875 34.71875 
L 19.671875 8.296875 
L 56.78125 8.296875 
L 56.78125 0 
L 9.8125 0 
z
" id="DejaVuSans-69"/>
      <path d="M 34.1875 63.1875 
L 20.796875 26.90625 
L 47.609375 26.90625 
z
M 28.609375 72.90625 
L 39.796875 72.90625 
L 67.578125 0 
L 57.328125 0 
L 50.6875 18.703125 
L 17.828125 18.703125 
L 11.1875 0 
L 0.78125 0 
z
" id="DejaVuSans-65"/>
     </defs>
     <use xlink:href="#DejaVuSans-83"/>
     <use x="63.476562" xlink:href="#DejaVuSans-77"/>
     <use x="149.755859" xlink:href="#DejaVuSans-83"/>
     <use x="213.232422" xlink:href="#DejaVuSans-45"/>
     <use x="249.316406" xlink:href="#DejaVuSans-69"/>
     <use x="312.5" xlink:href="#DejaVuSans-77"/>
     <use x="398.779297" xlink:href="#DejaVuSans-79"/>
     <use x="475.740234" xlink:href="#DejaVuSans-65"/>
     <use x="541.898438" xlink:href="#DejaVuSans-45"/>
    </g>
   </g>
   <g id="text_15">
    <!-- NSGA-II-M -->
    <g transform="translate(375.22944 126.352403)scale(0.17 -0.17)">
     <defs>
      <path d="M 9.8125 72.90625 
L 23.09375 72.90625 
L 55.421875 11.921875 
L 55.421875 72.90625 
L 64.984375 72.90625 
L 64.984375 0 
L 51.703125 0 
L 19.390625 60.984375 
L 19.390625 0 
L 9.8125 0 
z
" id="DejaVuSans-78"/>
      <path d="M 59.515625 10.40625 
L 59.515625 29.984375 
L 43.40625 29.984375 
L 43.40625 38.09375 
L 69.28125 38.09375 
L 69.28125 6.78125 
Q 63.578125 2.734375 56.6875 0.65625 
Q 49.8125 -1.421875 42 -1.421875 
Q 24.90625 -1.421875 15.25 8.5625 
Q 5.609375 18.5625 5.609375 36.375 
Q 5.609375 54.25 15.25 64.234375 
Q 24.90625 74.21875 42 74.21875 
Q 49.125 74.21875 55.546875 72.453125 
Q 61.96875 70.703125 67.390625 67.28125 
L 67.390625 56.78125 
Q 61.921875 61.421875 55.765625 63.765625 
Q 49.609375 66.109375 42.828125 66.109375 
Q 29.4375 66.109375 22.71875 58.640625 
Q 16.015625 51.171875 16.015625 36.375 
Q 16.015625 21.625 22.71875 14.15625 
Q 29.4375 6.6875 42.828125 6.6875 
Q 48.046875 6.6875 52.140625 7.59375 
Q 56.25 8.5 59.515625 10.40625 
z
" id="DejaVuSans-71"/>
      <path d="M 9.8125 72.90625 
L 19.671875 72.90625 
L 19.671875 0 
L 9.8125 0 
z
" id="DejaVuSans-73"/>
     </defs>
     <use xlink:href="#DejaVuSans-78"/>
     <use x="74.804688" xlink:href="#DejaVuSans-83"/>
     <use x="138.28125" xlink:href="#DejaVuSans-71"/>
     <use x="215.771484" xlink:href="#DejaVuSans-65"/>
     <use x="281.929688" xlink:href="#DejaVuSans-45"/>
     <use x="318.013672" xlink:href="#DejaVuSans-73"/>
     <use x="347.505859" xlink:href="#DejaVuSans-73"/>
     <use x="376.998047" xlink:href="#DejaVuSans-45"/>
     <use x="413.082031" xlink:href="#DejaVuSans-77"/>
    </g>
   </g>
   <g id="text_16">
    <!-- best 2016 -->
    <g transform="translate(375.22944 40.397235)scale(0.17 -0.17)">
     <defs>
      <path d="M 48.6875 27.296875 
Q 48.6875 37.203125 44.609375 42.84375 
Q 40.53125 48.484375 33.40625 48.484375 
Q 26.265625 48.484375 22.1875 42.84375 
Q 18.109375 37.203125 18.109375 27.296875 
Q 18.109375 17.390625 22.1875 11.75 
Q 26.265625 6.109375 33.40625 6.109375 
Q 40.53125 6.109375 44.609375 11.75 
Q 48.6875 17.390625 48.6875 27.296875 
z
M 18.109375 46.390625 
Q 20.953125 51.265625 25.265625 53.625 
Q 29.59375 56 35.59375 56 
Q 45.5625 56 51.78125 48.09375 
Q 58.015625 40.1875 58.015625 27.296875 
Q 58.015625 14.40625 51.78125 6.484375 
Q 45.5625 -1.421875 35.59375 -1.421875 
Q 29.59375 -1.421875 25.265625 0.953125 
Q 20.953125 3.328125 18.109375 8.203125 
L 18.109375 0 
L 9.078125 0 
L 9.078125 75.984375 
L 18.109375 75.984375 
z
" id="DejaVuSans-98"/>
     </defs>
     <use xlink:href="#DejaVuSans-98"/>
     <use x="63.476562" xlink:href="#DejaVuSans-101"/>
     <use x="125" xlink:href="#DejaVuSans-115"/>
     <use x="177.099609" xlink:href="#DejaVuSans-116"/>
     <use x="216.308594" xlink:href="#DejaVuSans-32"/>
     <use x="248.095703" xlink:href="#DejaVuSans-50"/>
     <use x="311.71875" xlink:href="#DejaVuSans-48"/>
     <use x="375.341797" xlink:href="#DejaVuSans-49"/>
     <use x="438.964844" xlink:href="#DejaVuSans-54"/>
    </g>
   </g>
   <g id="text_17">
    <!-- bbob-biobj f31, 2-D -->
    <g transform="translate(60.41088 38.111366)scale(0.102 -0.102)">
     <defs>
      <path d="M 9.421875 54.6875 
L 18.40625 54.6875 
L 18.40625 -0.984375 
Q 18.40625 -11.421875 14.421875 -16.109375 
Q 10.453125 -20.796875 1.609375 -20.796875 
L -1.8125 -20.796875 
L -1.8125 -13.1875 
L 0.59375 -13.1875 
Q 5.71875 -13.1875 7.5625 -10.8125 
Q 9.421875 -8.453125 9.421875 -0.984375 
z
M 9.421875 75.984375 
L 18.40625 75.984375 
L 18.40625 64.59375 
L 9.421875 64.59375 
z
" id="DejaVuSans-106"/>
      <path d="M 40.578125 39.3125 
Q 47.65625 37.796875 51.625 33 
Q 55.609375 28.21875 55.609375 21.1875 
Q 55.609375 10.40625 48.1875 4.484375 
Q 40.765625 -1.421875 27.09375 -1.421875 
Q 22.515625 -1.421875 17.65625 -0.515625 
Q 12.796875 0.390625 7.625 2.203125 
L 7.625 11.71875 
Q 11.71875 9.328125 16.59375 8.109375 
Q 21.484375 6.890625 26.8125 6.890625 
Q 36.078125 6.890625 40.9375 10.546875 
Q 45.796875 14.203125 45.796875 21.1875 
Q 45.796875 27.640625 41.28125 31.265625 
Q 36.765625 34.90625 28.71875 34.90625 
L 20.21875 34.90625 
L 20.21875 43.015625 
L 29.109375 43.015625 
Q 36.375 43.015625 40.234375 45.921875 
Q 44.09375 48.828125 44.09375 54.296875 
Q 44.09375 59.90625 40.109375 62.90625 
Q 36.140625 65.921875 28.71875 65.921875 
Q 24.65625 65.921875 20.015625 65.03125 
Q 15.375 64.15625 9.8125 62.3125 
L 9.8125 71.09375 
Q 15.4375 72.65625 20.34375 73.4375 
Q 25.25 74.21875 29.59375 74.21875 
Q 40.828125 74.21875 47.359375 69.109375 
Q 53.90625 64.015625 53.90625 55.328125 
Q 53.90625 49.265625 50.4375 45.09375 
Q 46.96875 40.921875 40.578125 39.3125 
z
" id="DejaVuSans-51"/>
      <path d="M 19.671875 64.796875 
L 19.671875 8.109375 
L 31.59375 8.109375 
Q 46.6875 8.109375 53.6875 14.9375 
Q 60.6875 21.78125 60.6875 36.53125 
Q 60.6875 51.171875 53.6875 57.984375 
Q 46.6875 64.796875 31.59375 64.796875 
z
M 9.8125 72.90625 
L 30.078125 72.90625 
Q 51.265625 72.90625 61.171875 64.09375 
Q 71.09375 55.28125 71.09375 36.53125 
Q 71.09375 17.671875 61.125 8.828125 
Q 51.171875 0 30.078125 0 
L 9.8125 0 
z
" id="DejaVuSans-68"/>
     </defs>
     <use xlink:href="#DejaVuSans-98"/>
     <use x="63.476562" xlink:href="#DejaVuSans-98"/>
     <use x="126.953125" xlink:href="#DejaVuSans-111"/>
     <use x="188.134766" xlink:href="#DejaVuSans-98"/>
     <use x="251.611328" xlink:href="#DejaVuSans-45"/>
     <use x="287.695312" xlink:href="#DejaVuSans-98"/>
     <use x="351.171875" xlink:href="#DejaVuSans-105"/>
     <use x="378.955078" xlink:href="#DejaVuSans-111"/>
     <use x="440.136719" xlink:href="#DejaVuSans-98"/>
     <use x="503.613281" xlink:href="#DejaVuSans-106"/>
     <use x="531.396484" xlink:href="#DejaVuSans-32"/>
     <use x="563.183594" xlink:href="#DejaVuSans-102"/>
     <use x="598.388672" xlink:href="#DejaVuSans-51"/>
     <use x="662.011719" xlink:href="#DejaVuSans-49"/>
     <use x="725.634766" xlink:href="#DejaVuSans-44"/>
     <use x="757.421875" xlink:href="#DejaVuSans-32"/>
     <use x="789.208984" xlink:href="#DejaVuSans-50"/>
     <use x="852.832031" xlink:href="#DejaVuSans-45"/>
     <use x="888.916016" xlink:href="#DejaVuSans-68"/>
    </g>
    <!-- 58 targets: 1..-1.0e-4 -->
    <g transform="translate(60.41088 49.533135)scale(0.102 -0.102)">
     <defs>
      <path d="M 10.796875 72.90625 
L 49.515625 72.90625 
L 49.515625 64.59375 
L 19.828125 64.59375 
L 19.828125 46.734375 
Q 21.96875 47.46875 24.109375 47.828125 
Q 26.265625 48.1875 28.421875 48.1875 
Q 40.625 48.1875 47.75 41.5 
Q 54.890625 34.8125 54.890625 23.390625 
Q 54.890625 11.625 47.5625 5.09375 
Q 40.234375 -1.421875 26.90625 -1.421875 
Q 22.3125 -1.421875 17.546875 -0.640625 
Q 12.796875 0.140625 7.71875 1.703125 
L 7.71875 11.625 
Q 12.109375 9.234375 16.796875 8.0625 
Q 21.484375 6.890625 26.703125 6.890625 
Q 35.15625 6.890625 40.078125 11.328125 
Q 45.015625 15.765625 45.015625 23.390625 
Q 45.015625 31 40.078125 35.4375 
Q 35.15625 39.890625 26.703125 39.890625 
Q 22.75 39.890625 18.8125 39.015625 
Q 14.890625 38.140625 10.796875 36.28125 
z
" id="DejaVuSans-53"/>
      <path d="M 11.71875 12.40625 
L 22.015625 12.40625 
L 22.015625 0 
L 11.71875 0 
z
M 11.71875 51.703125 
L 22.015625 51.703125 
L 22.015625 39.3125 
L 11.71875 39.3125 
z
" id="DejaVuSans-58"/>
     </defs>
     <use xlink:href="#DejaVuSans-53"/>
     <use x="63.623047" xlink:href="#DejaVuSans-56"/>
     <use x="127.246094" xlink:href="#DejaVuSans-32"/>
     <use x="159.033203" xlink:href="#DejaVuSans-116"/>
     <use x="198.242188" xlink:href="#DejaVuSans-97"/>
     <use x="259.521484" xlink:href="#DejaVuSans-114"/>
     <use x="298.884766" xlink:href="#DejaVuSans-103"/>
     <use x="362.361328" xlink:href="#DejaVuSans-101"/>
     <use x="423.884766" xlink:href="#DejaVuSans-116"/>
     <use x="463.09375" xlink:href="#DejaVuSans-115"/>
     <use x="515.193359" xlink:href="#DejaVuSans-58"/>
     <use x="548.884766" xlink:href="#DejaVuSans-32"/>
     <use x="580.671875" xlink:href="#DejaVuSans-49"/>
     <use x="644.294922" xlink:href="#DejaVuSans-46"/>
     <use x="676.082031" xlink:href="#DejaVuSans-46"/>
     <use x="707.869141" xlink:href="#DejaVuSans-45"/>
     <use x="743.953125" xlink:href="#DejaVuSans-49"/>
     <use x="807.576172" xlink:href="#DejaVuSans-46"/>
     <use x="839.363281" xlink:href="#DejaVuSans-48"/>
     <use x="902.986328" xlink:href="#DejaVuSans-101"/>
     <use x="964.509766" xlink:href="#DejaVuSans-45"/>
     <use x="1000.59375" xlink:href="#DejaVuSans-52"/>
    </g>
    <!-- 10 instances -->
    <g transform="translate(60.41088 60.954904)scale(0.102 -0.102)">
     <use xlink:href="#DejaVuSans-49"/>
     <use x="63.623047" xlink:href="#DejaVuSans-48"/>
     <use x="127.246094" xlink:href="#DejaVuSans-32"/>
     <use x="159.033203" xlink:href="#DejaVuSans-105"/>
     <use x="186.816406" xlink:href="#DejaVuSans-110"/>
     <use x="250.195312" xlink:href="#DejaVuSans-115"/>
     <use x="302.294922" xlink:href="#DejaVuSans-116"/>
     <use x="341.503906" xlink:href="#DejaVuSans-97"/>
     <use x="402.783203" xlink:href="#DejaVuSans-110"/>
     <use x="466.162109" xlink:href="#DejaVuSans-99"/>
     <use x="521.142578" xlink:href="#DejaVuSans-101"/>
     <use x="582.666016" xlink:href="#DejaVuSans-115"/>
    </g>
   </g>
   <g id="text_18">
    <!-- v2.4.19, hv-hash=ff0e71e8cd978373 -->
    <g style="fill:#808080;" transform="translate(104.697125 294.151352)scale(0.1 -0.1)">
     <defs>
      <path d="M 10.984375 1.515625 
L 10.984375 10.5 
Q 14.703125 8.734375 18.5 7.8125 
Q 22.3125 6.890625 25.984375 6.890625 
Q 35.75 6.890625 40.890625 13.453125 
Q 46.046875 20.015625 46.78125 33.40625 
Q 43.953125 29.203125 39.59375 26.953125 
Q 35.25 24.703125 29.984375 24.703125 
Q 19.046875 24.703125 12.671875 31.3125 
Q 6.296875 37.9375 6.296875 49.421875 
Q 6.296875 60.640625 12.9375 67.421875 
Q 19.578125 74.21875 30.609375 74.21875 
Q 43.265625 74.21875 49.921875 64.515625 
Q 56.59375 54.828125 56.59375 36.375 
Q 56.59375 19.140625 48.40625 8.859375 
Q 40.234375 -1.421875 26.421875 -1.421875 
Q 22.703125 -1.421875 18.890625 -0.6875 
Q 15.09375 0.046875 10.984375 1.515625 
z
M 30.609375 32.421875 
Q 37.25 32.421875 41.125 36.953125 
Q 45.015625 41.5 45.015625 49.421875 
Q 45.015625 57.28125 41.125 61.84375 
Q 37.25 66.40625 30.609375 66.40625 
Q 23.96875 66.40625 20.09375 61.84375 
Q 16.21875 57.28125 16.21875 49.421875 
Q 16.21875 41.5 20.09375 36.953125 
Q 23.96875 32.421875 30.609375 32.421875 
z
" id="DejaVuSans-57"/>
      <path d="M 54.890625 33.015625 
L 54.890625 0 
L 45.90625 0 
L 45.90625 32.71875 
Q 45.90625 40.484375 42.875 44.328125 
Q 39.84375 48.1875 33.796875 48.1875 
Q 26.515625 48.1875 22.3125 43.546875 
Q 18.109375 38.921875 18.109375 30.90625 
L 18.109375 0 
L 9.078125 0 
L 9.078125 75.984375 
L 18.109375 75.984375 
L 18.109375 46.1875 
Q 21.34375 51.125 25.703125 53.5625 
Q 30.078125 56 35.796875 56 
Q 45.21875 56 50.046875 50.171875 
Q 54.890625 44.34375 54.890625 33.015625 
z
" id="DejaVuSans-104"/>
      <path d="M 10.59375 45.40625 
L 73.1875 45.40625 
L 73.1875 37.203125 
L 10.59375 37.203125 
z
M 10.59375 25.484375 
L 73.1875 25.484375 
L 73.1875 17.1875 
L 10.59375 17.1875 
z
" id="DejaVuSans-61"/>
      <path d="M 8.203125 72.90625 
L 55.078125 72.90625 
L 55.078125 68.703125 
L 28.609375 0 
L 18.3125 0 
L 43.21875 64.59375 
L 8.203125 64.59375 
z
" id="DejaVuSans-55"/>
     </defs>
     <use xlink:href="#DejaVuSans-118"/>
     <use x="59.179688" xlink:href="#DejaVuSans-50"/>
     <use x="122.802734" xlink:href="#DejaVuSans-46"/>
     <use x="154.589844" xlink:href="#DejaVuSans-52"/>
     <use x="218.212891" xlink:href="#DejaVuSans-46"/>
     <use x="250" xlink:href="#DejaVuSans-49"/>
     <use x="313.623047" xlink:href="#DejaVuSans-57"/>
     <use x="377.246094" xlink:href="#DejaVuSans-44"/>
     <use x="409.033203" xlink:href="#DejaVuSans-32"/>
     <use x="440.820312" xlink:href="#DejaVuSans-104"/>
     <use x="504.199219" xlink:href="#DejaVuSans-118"/>
     <use x="560.753906" xlink:href="#DejaVuSans-45"/>
     <use x="596.837891" xlink:href="#DejaVuSans-104"/>
     <use x="660.216797" xlink:href="#DejaVuSans-97"/>
     <use x="721.496094" xlink:href="#DejaVuSans-115"/>
     <use x="773.595703" xlink:href="#DejaVuSans-104"/>
     <use x="836.974609" xlink:href="#DejaVuSans-61"/>
     <use x="920.763672" xlink:href="#DejaVuSans-102"/>
     <use x="955.96875" xlink:href="#DejaVuSans-102"/>
     <use x="991.173828" xlink:href="#DejaVuSans-48"/>
     <use x="1054.796875" xlink:href="#DejaVuSans-101"/>
     <use x="1116.320312" xlink:href="#DejaVuSans-55"/>
     <use x="1179.943359" xlink:href="#DejaVuSans-49"/>
     <use x="1243.566406" xlink:href="#DejaVuSans-101"/>
     <use x="1305.089844" xlink:href="#DejaVuSans-56"/>
     <use x="1368.712891" xlink:href="#DejaVuSans-99"/>
     <use x="1423.693359" xlink:href="#DejaVuSans-100"/>
     <use x="1487.169922" xlink:href="#DejaVuSans-57"/>
     <use x="1550.792969" xlink:href="#DejaVuSans-55"/>
     <use x="1614.416016" xlink:href="#DejaVuSans-56"/>
     <use x="1678.039062" xlink:href="#DejaVuSans-51"/>
     <use x="1741.662109" xlink:href="#DejaVuSans-55"/>
     <use x="1805.285156" xlink:href="#DejaVuSans-51"/>
    </g>
   </g>
   <g id="text_19">
    <!-- 31 Rosenbrock/Rastrigin -->
    <g transform="translate(76.578375 21.648)scale(0.2 -0.2)">
     <defs>
      <path d="M 44.390625 34.1875 
Q 47.5625 33.109375 50.5625 29.59375 
Q 53.5625 26.078125 56.59375 19.921875 
L 66.609375 0 
L 56 0 
L 46.6875 18.703125 
Q 43.0625 26.03125 39.671875 28.421875 
Q 36.28125 30.8125 30.421875 30.8125 
L 19.671875 30.8125 
L 19.671875 0 
L 9.8125 0 
L 9.8125 72.90625 
L 32.078125 72.90625 
Q 44.578125 72.90625 50.734375 67.671875 
Q 56.890625 62.453125 56.890625 51.90625 
Q 56.890625 45.015625 53.6875 40.46875 
Q 50.484375 35.9375 44.390625 34.1875 
z
M 19.671875 64.796875 
L 19.671875 38.921875 
L 32.078125 38.921875 
Q 39.203125 38.921875 42.84375 42.21875 
Q 46.484375 45.515625 46.484375 51.90625 
Q 46.484375 58.296875 42.84375 61.546875 
Q 39.203125 64.796875 32.078125 64.796875 
z
" id="DejaVuSans-82"/>
      <path d="M 9.078125 75.984375 
L 18.109375 75.984375 
L 18.109375 31.109375 
L 44.921875 54.6875 
L 56.390625 54.6875 
L 27.390625 29.109375 
L 57.625 0 
L 45.90625 0 
L 18.109375 26.703125 
L 18.109375 0 
L 9.078125 0 
z
" id="DejaVuSans-107"/>
     </defs>
     <use xlink:href="#DejaVuSans-51"/>
     <use x="63.623047" xlink:href="#DejaVuSans-49"/>
     <use x="127.246094" xlink:href="#DejaVuSans-32"/>
     <use x="159.033203" xlink:href="#DejaVuSans-82"/>
     <use x="224.015625" xlink:href="#DejaVuSans-111"/>
     <use x="285.197266" xlink:href="#DejaVuSans-115"/>
     <use x="337.296875" xlink:href="#DejaVuSans-101"/>
     <use x="398.820312" xlink:href="#DejaVuSans-110"/>
     <use x="462.199219" xlink:href="#DejaVuSans-98"/>
     <use x="525.675781" xlink:href="#DejaVuSans-114"/>
     <use x="564.539062" xlink:href="#DejaVuSans-111"/>
     <use x="625.720703" xlink:href="#DejaVuSans-99"/>
     <use x="680.701172" xlink:href="#DejaVuSans-107"/>
     <use x="738.611328" xlink:href="#DejaVuSans-47"/>
     <use x="772.302734" xlink:href="#DejaVuSans-82"/>
     <use x="839.535156" xlink:href="#DejaVuSans-97"/>
     <use x="900.814453" xlink:href="#DejaVuSans-115"/>
     <use x="952.914062" xlink:href="#DejaVuSans-116"/>
     <use x="992.123047" xlink:href="#DejaVuSans-114"/>
     <use x="1033.236328" xlink:href="#DejaVuSans-105"/>
     <use x="1061.019531" xlink:href="#DejaVuSans-103"/>
     <use x="1124.496094" xlink:href="#DejaVuSans-105"/>
     <use x="1152.279297" xlink:href="#DejaVuSans-110"/>
    </g>
   </g>
  </g>
 </g>
 <defs>
  <clipPath id="pc1dd0a1975">
   <rect height="271.296" width="281.088" x="57.6" y="27.648"/>
  </clipPath>
 </defs>
</svg>
