<?xml version="1.0" encoding="utf-8" standalone="no"?>
<!DOCTYPE svg PUBLIC "-//W3C//DTD SVG 1.1//EN"
  "http://www.w3.org/Graphics/SVG/1.1/DTD/svg11.dtd">
<!-- Created with matplotlib (https://matplotlib.org/) -->
<svg height="345.6pt" version="1.1" viewBox="0 0 460.8 345.6" width="460.8pt" xmlns="http://www.w3.org/2000/svg" xmlns:xlink="http://www.w3.org/1999/xlink">
 <metadata>
  <rdf:RDF xmlns:cc="http://creativecommons.org/ns#" xmlns:dc="http://purl.org/dc/elements/1.1/" xmlns:rdf="http://www.w3.org/1999/02/22-rdf-syntax-ns#">
   <cc:Work>
    <dc:type rdf:resource="http://purl.org/dc/dcmitype/StillImage"/>
    <dc:date>2021-04-26T15:05:53.294528</dc:date>
    <dc:format>image/svg+xml</dc:format>
    <dc:creator>
     <cc:Agent>
      <dc:title>Matplotlib v3.3.2, https://matplotlib.org/</dc:title>
     </cc:Agent>
    </dc:creator>
   </cc:Work>
  </rdf:RDF>
 </metadata>
 <defs>
  <style type="text/css">*{stroke-linecap:butt;stroke-linejoin:round;}</style>
 </defs>
 <g id="figure_1">
  <g id="patch_1">
   <path d="M 0 345.6 
L 460.8 345.6 
L 460.8 0 
L 0 0 
z
" style="fill:#ffffff;"/>
  </g>
  <g id="axes_1">
   <g id="patch_2">
    <path d="M 57.6 298.944 
L 338.688 298.944 
L 338.688 27.648 
L 57.6 27.648 
z
" style="fill:#ffffff;"/>
   </g>
   <g id="line2d_1">
    <path d="M 73.579452 298.944 
L 73.579452 294.312795 
L 83.830028 294.312795 
L 83.830028 285.050384 
L 93.863965 285.050384 
L 93.863965 275.787974 
L 119.351785 275.787974 
L 119.351785 271.156769 
L 128.411207 271.156769 
L 128.411207 257.263153 
L 134.870259 257.263153 
L 134.870259 248.000743 
L 137.735587 248.000743 
L 137.735587 243.369538 
L 142.215919 243.369538 
L 142.215919 234.107127 
L 145.943118 234.107127 
L 145.943118 220.213512 
L 148.733265 220.213512 
L 148.733265 210.951101 
L 153.679772 210.951101 
L 153.679772 201.688691 
L 158.003578 201.688691 
L 158.003578 192.426281 
L 159.733212 192.426281 
L 159.733212 187.795075 
L 167.481174 187.795075 
L 167.481174 173.90146 
L 171.808721 173.90146 
L 171.808721 169.270255 
L 177.033543 169.270255 
L 177.033543 155.376639 
L 179.464856 155.376639 
L 179.464856 146.114229 
L 183.777712 146.114229 
L 183.777712 141.483024 
L 187.745678 141.483024 
L 187.745678 127.589408 
L 197.34117 127.589408 
L 197.34117 122.958203 
L 217.339124 122.958203 
L 217.339124 109.064587 
L 218.02441 109.064587 
L 218.02441 99.802177 
L 234.218248 99.802177 
L 234.218248 90.539766 
L 234.982134 90.539766 
L 234.982134 85.908561 
L 237.084071 85.908561 
L 237.084071 76.646151 
L 239.05607 76.646151 
L 239.05607 62.752535 
L 338.688 62.752535 
" style="fill:none;stroke:#f5deb3;stroke-linecap:square;stroke-width:4;"/>
   </g>
   <g id="line2d_2">
    <defs>
     <path d="M 0 7.778175 
L 7.778175 0 
L 0 -7.778175 
L -7.778175 0 
z
" id="m3964836238" style="stroke:#f5deb3;stroke-linejoin:miter;stroke-width:1.5;"/>
    </defs>
    <g>
     <use style="fill:#f5deb3;stroke:#f5deb3;stroke-linejoin:miter;stroke-width:1.5;" x="134.870259" xlink:href="#m3964836238" y="248.000743"/>
     <use style="fill:#f5deb3;stroke:#f5deb3;stroke-linejoin:miter;stroke-width:1.5;" x="183.777712" xlink:href="#m3964836238" y="146.114229"/>
     <use style="fill:#f5deb3;stroke:#f5deb3;stroke-linejoin:miter;stroke-width:1.5;" x="239.05607" xlink:href="#m3964836238" y="76.646151"/>
     <use style="fill:#f5deb3;stroke:#f5deb3;stroke-linejoin:miter;stroke-width:1.5;" x="239.05607" xlink:href="#m3964836238" y="62.752535"/>
     <use style="fill:#f5deb3;stroke:#f5deb3;stroke-linejoin:miter;stroke-width:1.5;" x="338.688" xlink:href="#m3964836238" y="62.752535"/>
    </g>
   </g>
   <g id="line2d_3">
    <path style="fill:none;stroke:#f5deb3;stroke-linecap:square;stroke-width:4;"/>
    <g/>
   </g>
   <g id="line2d_4">
    <path d="M 338.688 62.752535 
L 369.60768 35.706297 
" style="fill:none;stroke:#f5deb3;stroke-linecap:square;stroke-width:4;"/>
    <g>
     <use style="fill:#f5deb3;stroke:#f5deb3;stroke-linejoin:miter;stroke-width:1.5;" x="338.688" xlink:href="#m3964836238" y="62.752535"/>
     <use style="fill:#f5deb3;stroke:#f5deb3;stroke-linejoin:miter;stroke-width:1.5;" x="369.60768" xlink:href="#m3964836238" y="35.706297"/>
    </g>
   </g>
   <g id="matplotlib.axis_1">
    <g id="xtick_1">
     <g id="line2d_5">
      <path clip-path="url(#p35ac29d782)" d="M 57.6 298.944 
L 57.6 27.648 
" style="fill:none;stroke:#b0b0b0;stroke-linecap:square;stroke-width:0.8;"/>
     </g>
     <g id="line2d_6">
      <defs>
       <path d="M 0 0 
L 0 3.5 
" id="m5f53230bb2" style="stroke:#000000;stroke-width:0.8;"/>
      </defs>
      <g>
       <use style="stroke:#000000;stroke-width:0.8;" x="57.6" xlink:href="#m5f53230bb2" y="298.944"/>
      </g>
     </g>
     <g id="text_1">
      <!-- 0 -->
      <g transform="translate(51.2375 321.140875)scale(0.2 -0.2)">
       <defs>
        <path d="M 31.78125 66.40625 
Q 24.171875 66.40625 20.328125 58.90625 
Q 16.5 51.421875 16.5 36.375 
Q 16.5 21.390625 20.328125 13.890625 
Q 24.171875 6.390625 31.78125 6.390625 
Q 39.453125 6.390625 43.28125 13.890625 
Q 47.125 21.390625 47.125 36.375 
Q 47.125 51.421875 43.28125 58.90625 
Q 39.453125 66.40625 31.78125 66.40625 
z
M 31.78125 74.21875 
Q 44.046875 74.21875 50.515625 64.515625 
Q 56.984375 54.828125 56.984375 36.375 
Q 56.984375 17.96875 50.515625 8.265625 
Q 44.046875 -1.421875 31.78125 -1.421875 
Q 19.53125 -1.421875 13.0625 8.265625 
Q 6.59375 17.96875 6.59375 36.375 
Q 6.59375 54.828125 13.0625 64.515625 
Q 19.53125 74.21875 31.78125 74.21875 
z
" id="DejaVuSans-48"/>
       </defs>
       <use xlink:href="#DejaVuSans-48"/>
      </g>
     </g>
    </g>
    <g id="xtick_2">
     <g id="line2d_7">
      <path clip-path="url(#p35ac29d782)" d="M 137.910857 298.944 
L 137.910857 27.648 
" style="fill:none;stroke:#b0b0b0;stroke-linecap:square;stroke-width:0.8;"/>
     </g>
     <g id="line2d_8">
      <g>
       <use style="stroke:#000000;stroke-width:0.8;" x="137.910857" xlink:href="#m5f53230bb2" y="298.944"/>
      </g>
     </g>
     <g id="text_2">
      <!-- 2 -->
      <g transform="translate(131.548357 321.140875)scale(0.2 -0.2)">
       <defs>
        <path d="M 19.1875 8.296875 
L 53.609375 8.296875 
L 53.609375 0 
L 7.328125 0 
L 7.328125 8.296875 
Q 12.9375 14.109375 22.625 23.890625 
Q 32.328125 33.6875 34.8125 36.53125 
Q 39.546875 41.84375 41.421875 45.53125 
Q 43.3125 49.21875 43.3125 52.78125 
Q 43.3125 58.59375 39.234375 62.25 
Q 35.15625 65.921875 28.609375 65.921875 
Q 23.96875 65.921875 18.8125 64.3125 
Q 13.671875 62.703125 7.8125 59.421875 
L 7.8125 69.390625 
Q 13.765625 71.78125 18.9375 73 
Q 24.125 74.21875 28.421875 74.21875 
Q 39.75 74.21875 46.484375 68.546875 
Q 53.21875 62.890625 53.21875 53.421875 
Q 53.21875 48.921875 51.53125 44.890625 
Q 49.859375 40.875 45.40625 35.40625 
Q 44.1875 33.984375 37.640625 27.21875 
Q 31.109375 20.453125 19.1875 8.296875 
z
" id="DejaVuSans-50"/>
       </defs>
       <use xlink:href="#DejaVuSans-50"/>
      </g>
     </g>
    </g>
    <g id="xtick_3">
     <g id="line2d_9">
      <path clip-path="url(#p35ac29d782)" d="M 218.221714 298.944 
L 218.221714 27.648 
" style="fill:none;stroke:#b0b0b0;stroke-linecap:square;stroke-width:0.8;"/>
     </g>
     <g id="line2d_10">
      <g>
       <use style="stroke:#000000;stroke-width:0.8;" x="218.221714" xlink:href="#m5f53230bb2" y="298.944"/>
      </g>
     </g>
     <g id="text_3">
      <!-- 4 -->
      <g transform="translate(211.859214 321.140875)scale(0.2 -0.2)">
       <defs>
        <path d="M 37.796875 64.3125 
L 12.890625 25.390625 
L 37.796875 25.390625 
z
M 35.203125 72.90625 
L 47.609375 72.90625 
L 47.609375 25.390625 
L 58.015625 25.390625 
L 58.015625 17.1875 
L 47.609375 17.1875 
L 47.609375 0 
L 37.796875 0 
L 37.796875 17.1875 
L 4.890625 17.1875 
L 4.890625 26.703125 
z
" id="DejaVuSans-52"/>
       </defs>
       <use xlink:href="#DejaVuSans-52"/>
      </g>
     </g>
    </g>
    <g id="xtick_4">
     <g id="line2d_11">
      <path clip-path="url(#p35ac29d782)" d="M 298.532571 298.944 
L 298.532571 27.648 
" style="fill:none;stroke:#b0b0b0;stroke-linecap:square;stroke-width:0.8;"/>
     </g>
     <g id="line2d_12">
      <g>
       <use style="stroke:#000000;stroke-width:0.8;" x="298.532571" xlink:href="#m5f53230bb2" y="298.944"/>
      </g>
     </g>
     <g id="text_4">
      <!-- 6 -->
      <g transform="translate(292.170071 321.140875)scale(0.2 -0.2)">
       <defs>
        <path d="M 33.015625 40.375 
Q 26.375 40.375 22.484375 35.828125 
Q 18.609375 31.296875 18.609375 23.390625 
Q 18.609375 15.53125 22.484375 10.953125 
Q 26.375 6.390625 33.015625 6.390625 
Q 39.65625 6.390625 43.53125 10.953125 
Q 47.40625 15.53125 47.40625 23.390625 
Q 47.40625 31.296875 43.53125 35.828125 
Q 39.65625 40.375 33.015625 40.375 
z
M 52.59375 71.296875 
L 52.59375 62.3125 
Q 48.875 64.0625 45.09375 64.984375 
Q 41.3125 65.921875 37.59375 65.921875 
Q 27.828125 65.921875 22.671875 59.328125 
Q 17.53125 52.734375 16.796875 39.40625 
Q 19.671875 43.65625 24.015625 45.921875 
Q 28.375 48.1875 33.59375 48.1875 
Q 44.578125 48.1875 50.953125 41.515625 
Q 57.328125 34.859375 57.328125 23.390625 
Q 57.328125 12.15625 50.6875 5.359375 
Q 44.046875 -1.421875 33.015625 -1.421875 
Q 20.359375 -1.421875 13.671875 8.265625 
Q 6.984375 17.96875 6.984375 36.375 
Q 6.984375 53.65625 15.1875 63.9375 
Q 23.390625 74.21875 37.203125 74.21875 
Q 40.921875 74.21875 44.703125 73.484375 
Q 48.484375 72.75 52.59375 71.296875 
z
" id="DejaVuSans-54"/>
       </defs>
       <use xlink:href="#DejaVuSans-54"/>
      </g>
     </g>
    </g>
    <g id="xtick_5">
     <g id="line2d_13">
      <path clip-path="url(#p35ac29d782)" d="M 97.755429 298.944 
L 97.755429 27.648 
" style="fill:none;stroke:#b0b0b0;stroke-linecap:square;stroke-width:0.8;"/>
     </g>
     <g id="line2d_14">
      <defs>
       <path d="M 0 0 
L 0 2 
" id="mb0ff798422" style="stroke:#000000;stroke-width:0.6;"/>
      </defs>
      <g>
       <use style="stroke:#000000;stroke-width:0.6;" x="97.755429" xlink:href="#mb0ff798422" y="298.944"/>
      </g>
     </g>
    </g>
    <g id="xtick_6">
     <g id="line2d_15">
      <path clip-path="url(#p35ac29d782)" d="M 178.066286 298.944 
L 178.066286 27.648 
" style="fill:none;stroke:#b0b0b0;stroke-linecap:square;stroke-width:0.8;"/>
     </g>
     <g id="line2d_16">
      <g>
       <use style="stroke:#000000;stroke-width:0.6;" x="178.066286" xlink:href="#mb0ff798422" y="298.944"/>
      </g>
     </g>
    </g>
    <g id="xtick_7">
     <g id="line2d_17">
      <path clip-path="url(#p35ac29d782)" d="M 258.377143 298.944 
L 258.377143 27.648 
" style="fill:none;stroke:#b0b0b0;stroke-linecap:square;stroke-width:0.8;"/>
     </g>
     <g id="line2d_18">
      <g>
       <use style="stroke:#000000;stroke-width:0.6;" x="258.377143" xlink:href="#mb0ff798422" y="298.944"/>
      </g>
     </g>
    </g>
    <g id="xtick_8">
     <g id="line2d_19">
      <path clip-path="url(#p35ac29d782)" d="M 338.688 298.944 
L 338.688 27.648 
" style="fill:none;stroke:#b0b0b0;stroke-linecap:square;stroke-width:0.8;"/>
     </g>
     <g id="line2d_20">
      <g>
       <use style="stroke:#000000;stroke-width:0.6;" x="338.688" xlink:href="#mb0ff798422" y="298.944"/>
      </g>
     </g>
    </g>
    <g id="text_5">
     <!-- log10(# f-evals / dimension) -->
     <g transform="translate(77.764078 342.217594)scale(0.17 -0.17)">
      <defs>
       <path d="M 9.421875 75.984375 
L 18.40625 75.984375 
L 18.40625 0 
L 9.421875 0 
z
" id="DejaVuSans-108"/>
       <path d="M 30.609375 48.390625 
Q 23.390625 48.390625 19.1875 42.75 
Q 14.984375 37.109375 14.984375 27.296875 
Q 14.984375 17.484375 19.15625 11.84375 
Q 23.34375 6.203125 30.609375 6.203125 
Q 37.796875 6.203125 41.984375 11.859375 
Q 46.1875 17.53125 46.1875 27.296875 
Q 46.1875 37.015625 41.984375 42.703125 
Q 37.796875 48.390625 30.609375 48.390625 
z
M 30.609375 56 
Q 42.328125 56 49.015625 48.375 
Q 55.71875 40.765625 55.71875 27.296875 
Q 55.71875 13.875 49.015625 6.21875 
Q 42.328125 -1.421875 30.609375 -1.421875 
Q 18.84375 -1.421875 12.171875 6.21875 
Q 5.515625 13.875 5.515625 27.296875 
Q 5.515625 40.765625 12.171875 48.375 
Q 18.84375 56 30.609375 56 
z
" id="DejaVuSans-111"/>
       <path d="M 45.40625 27.984375 
Q 45.40625 37.75 41.375 43.109375 
Q 37.359375 48.484375 30.078125 48.484375 
Q 22.859375 48.484375 18.828125 43.109375 
Q 14.796875 37.75 14.796875 27.984375 
Q 14.796875 18.265625 18.828125 12.890625 
Q 22.859375 7.515625 30.078125 7.515625 
Q 37.359375 7.515625 41.375 12.890625 
Q 45.40625 18.265625 45.40625 27.984375 
z
M 54.390625 6.78125 
Q 54.390625 -7.171875 48.1875 -13.984375 
Q 42 -20.796875 29.203125 -20.796875 
Q 24.46875 -20.796875 20.265625 -20.09375 
Q 16.0625 -19.390625 12.109375 -17.921875 
L 12.109375 -9.1875 
Q 16.0625 -11.328125 19.921875 -12.34375 
Q 23.78125 -13.375 27.78125 -13.375 
Q 36.625 -13.375 41.015625 -8.765625 
Q 45.40625 -4.15625 45.40625 5.171875 
L 45.40625 9.625 
Q 42.625 4.78125 38.28125 2.390625 
Q 33.9375 0 27.875 0 
Q 17.828125 0 11.671875 7.65625 
Q 5.515625 15.328125 5.515625 27.984375 
Q 5.515625 40.671875 11.671875 48.328125 
Q 17.828125 56 27.875 56 
Q 33.9375 56 38.28125 53.609375 
Q 42.625 51.21875 45.40625 46.390625 
L 45.40625 54.6875 
L 54.390625 54.6875 
z
" id="DejaVuSans-103"/>
       <path d="M 12.40625 8.296875 
L 28.515625 8.296875 
L 28.515625 63.921875 
L 10.984375 60.40625 
L 10.984375 69.390625 
L 28.421875 72.90625 
L 38.28125 72.90625 
L 38.28125 8.296875 
L 54.390625 8.296875 
L 54.390625 0 
L 12.40625 0 
z
" id="DejaVuSans-49"/>
       <path d="M 31 75.875 
Q 24.46875 64.65625 21.28125 53.65625 
Q 18.109375 42.671875 18.109375 31.390625 
Q 18.109375 20.125 21.3125 9.0625 
Q 24.515625 -2 31 -13.1875 
L 23.1875 -13.1875 
Q 15.875 -1.703125 12.234375 9.375 
Q 8.59375 20.453125 8.59375 31.390625 
Q 8.59375 42.28125 12.203125 53.3125 
Q 15.828125 64.359375 23.1875 75.875 
z
" id="DejaVuSans-40"/>
       <path d="M 51.125 44 
L 36.921875 44 
L 32.8125 27.6875 
L 47.125 27.6875 
z
M 43.796875 71.78125 
L 38.71875 51.515625 
L 52.984375 51.515625 
L 58.109375 71.78125 
L 65.921875 71.78125 
L 60.890625 51.515625 
L 76.125 51.515625 
L 76.125 44 
L 58.984375 44 
L 54.984375 27.6875 
L 70.515625 27.6875 
L 70.515625 20.21875 
L 53.078125 20.21875 
L 48 0 
L 40.1875 0 
L 45.21875 20.21875 
L 30.90625 20.21875 
L 25.875 0 
L 18.015625 0 
L 23.09375 20.21875 
L 7.71875 20.21875 
L 7.71875 27.6875 
L 24.90625 27.6875 
L 29 44 
L 13.28125 44 
L 13.28125 51.515625 
L 30.90625 51.515625 
L 35.890625 71.78125 
z
" id="DejaVuSans-35"/>
       <path id="DejaVuSans-32"/>
       <path d="M 37.109375 75.984375 
L 37.109375 68.5 
L 28.515625 68.5 
Q 23.6875 68.5 21.796875 66.546875 
Q 19.921875 64.59375 19.921875 59.515625 
L 19.921875 54.6875 
L 34.71875 54.6875 
L 34.71875 47.703125 
L 19.921875 47.703125 
L 19.921875 0 
L 10.890625 0 
L 10.890625 47.703125 
L 2.296875 47.703125 
L 2.296875 54.6875 
L 10.890625 54.6875 
L 10.890625 58.5 
Q 10.890625 67.625 15.140625 71.796875 
Q 19.390625 75.984375 28.609375 75.984375 
z
" id="DejaVuSans-102"/>
       <path d="M 4.890625 31.390625 
L 31.203125 31.390625 
L 31.203125 23.390625 
L 4.890625 23.390625 
z
" id="DejaVuSans-45"/>
       <path d="M 56.203125 29.59375 
L 56.203125 25.203125 
L 14.890625 25.203125 
Q 15.484375 15.921875 20.484375 11.0625 
Q 25.484375 6.203125 34.421875 6.203125 
Q 39.59375 6.203125 44.453125 7.46875 
Q 49.3125 8.734375 54.109375 11.28125 
L 54.109375 2.78125 
Q 49.265625 0.734375 44.1875 -0.34375 
Q 39.109375 -1.421875 33.890625 -1.421875 
Q 20.796875 -1.421875 13.15625 6.1875 
Q 5.515625 13.8125 5.515625 26.8125 
Q 5.515625 40.234375 12.765625 48.109375 
Q 20.015625 56 32.328125 56 
Q 43.359375 56 49.78125 48.890625 
Q 56.203125 41.796875 56.203125 29.59375 
z
M 47.21875 32.234375 
Q 47.125 39.59375 43.09375 43.984375 
Q 39.0625 48.390625 32.421875 48.390625 
Q 24.90625 48.390625 20.390625 44.140625 
Q 15.875 39.890625 15.1875 32.171875 
z
" id="DejaVuSans-101"/>
       <path d="M 2.984375 54.6875 
L 12.5 54.6875 
L 29.59375 8.796875 
L 46.6875 54.6875 
L 56.203125 54.6875 
L 35.6875 0 
L 23.484375 0 
z
" id="DejaVuSans-118"/>
       <path d="M 34.28125 27.484375 
Q 23.390625 27.484375 19.1875 25 
Q 14.984375 22.515625 14.984375 16.5 
Q 14.984375 11.71875 18.140625 8.90625 
Q 21.296875 6.109375 26.703125 6.109375 
Q 34.1875 6.109375 38.703125 11.40625 
Q 43.21875 16.703125 43.21875 25.484375 
L 43.21875 27.484375 
z
M 52.203125 31.203125 
L 52.203125 0 
L 43.21875 0 
L 43.21875 8.296875 
Q 40.140625 3.328125 35.546875 0.953125 
Q 30.953125 -1.421875 24.3125 -1.421875 
Q 15.921875 -1.421875 10.953125 3.296875 
Q 6 8.015625 6 15.921875 
Q 6 25.140625 12.171875 29.828125 
Q 18.359375 34.515625 30.609375 34.515625 
L 43.21875 34.515625 
L 43.21875 35.40625 
Q 43.21875 41.609375 39.140625 45 
Q 35.0625 48.390625 27.6875 48.390625 
Q 23 48.390625 18.546875 47.265625 
Q 14.109375 46.140625 10.015625 43.890625 
L 10.015625 52.203125 
Q 14.9375 54.109375 19.578125 55.046875 
Q 24.21875 56 28.609375 56 
Q 40.484375 56 46.34375 49.84375 
Q 52.203125 43.703125 52.203125 31.203125 
z
" id="DejaVuSans-97"/>
       <path d="M 44.28125 53.078125 
L 44.28125 44.578125 
Q 40.484375 46.53125 36.375 47.5 
Q 32.28125 48.484375 27.875 48.484375 
Q 21.1875 48.484375 17.84375 46.4375 
Q 14.5 44.390625 14.5 40.28125 
Q 14.5 37.15625 16.890625 35.375 
Q 19.28125 33.59375 26.515625 31.984375 
L 29.59375 31.296875 
Q 39.15625 29.25 43.1875 25.515625 
Q 47.21875 21.78125 47.21875 15.09375 
Q 47.21875 7.46875 41.1875 3.015625 
Q 35.15625 -1.421875 24.609375 -1.421875 
Q 20.21875 -1.421875 15.453125 -0.5625 
Q 10.6875 0.296875 5.421875 2 
L 5.421875 11.28125 
Q 10.40625 8.6875 15.234375 7.390625 
Q 20.0625 6.109375 24.8125 6.109375 
Q 31.15625 6.109375 34.5625 8.28125 
Q 37.984375 10.453125 37.984375 14.40625 
Q 37.984375 18.0625 35.515625 20.015625 
Q 33.0625 21.96875 24.703125 23.78125 
L 21.578125 24.515625 
Q 13.234375 26.265625 9.515625 29.90625 
Q 5.8125 33.546875 5.8125 39.890625 
Q 5.8125 47.609375 11.28125 51.796875 
Q 16.75 56 26.8125 56 
Q 31.78125 56 36.171875 55.265625 
Q 40.578125 54.546875 44.28125 53.078125 
z
" id="DejaVuSans-115"/>
       <path d="M 25.390625 72.90625 
L 33.6875 72.90625 
L 8.296875 -9.28125 
L 0 -9.28125 
z
" id="DejaVuSans-47"/>
       <path d="M 45.40625 46.390625 
L 45.40625 75.984375 
L 54.390625 75.984375 
L 54.390625 0 
L 45.40625 0 
L 45.40625 8.203125 
Q 42.578125 3.328125 38.25 0.953125 
Q 33.9375 -1.421875 27.875 -1.421875 
Q 17.96875 -1.421875 11.734375 6.484375 
Q 5.515625 14.40625 5.515625 27.296875 
Q 5.515625 40.1875 11.734375 48.09375 
Q 17.96875 56 27.875 56 
Q 33.9375 56 38.25 53.625 
Q 42.578125 51.265625 45.40625 46.390625 
z
M 14.796875 27.296875 
Q 14.796875 17.390625 18.875 11.75 
Q 22.953125 6.109375 30.078125 6.109375 
Q 37.203125 6.109375 41.296875 11.75 
Q 45.40625 17.390625 45.40625 27.296875 
Q 45.40625 37.203125 41.296875 42.84375 
Q 37.203125 48.484375 30.078125 48.484375 
Q 22.953125 48.484375 18.875 42.84375 
Q 14.796875 37.203125 14.796875 27.296875 
z
" id="DejaVuSans-100"/>
       <path d="M 9.421875 54.6875 
L 18.40625 54.6875 
L 18.40625 0 
L 9.421875 0 
z
M 9.421875 75.984375 
L 18.40625 75.984375 
L 18.40625 64.59375 
L 9.421875 64.59375 
z
" id="DejaVuSans-105"/>
       <path d="M 52 44.1875 
Q 55.375 50.25 60.0625 53.125 
Q 64.75 56 71.09375 56 
Q 79.640625 56 84.28125 50.015625 
Q 88.921875 44.046875 88.921875 33.015625 
L 88.921875 0 
L 79.890625 0 
L 79.890625 32.71875 
Q 79.890625 40.578125 77.09375 44.375 
Q 74.3125 48.1875 68.609375 48.1875 
Q 61.625 48.1875 57.5625 43.546875 
Q 53.515625 38.921875 53.515625 30.90625 
L 53.515625 0 
L 44.484375 0 
L 44.484375 32.71875 
Q 44.484375 40.625 41.703125 44.40625 
Q 38.921875 48.1875 33.109375 48.1875 
Q 26.21875 48.1875 22.15625 43.53125 
Q 18.109375 38.875 18.109375 30.90625 
L 18.109375 0 
L 9.078125 0 
L 9.078125 54.6875 
L 18.109375 54.6875 
L 18.109375 46.1875 
Q 21.1875 51.21875 25.484375 53.609375 
Q 29.78125 56 35.6875 56 
Q 41.65625 56 45.828125 52.96875 
Q 50 49.953125 52 44.1875 
z
" id="DejaVuSans-109"/>
       <path d="M 54.890625 33.015625 
L 54.890625 0 
L 45.90625 0 
L 45.90625 32.71875 
Q 45.90625 40.484375 42.875 44.328125 
Q 39.84375 48.1875 33.796875 48.1875 
Q 26.515625 48.1875 22.3125 43.546875 
Q 18.109375 38.921875 18.109375 30.90625 
L 18.109375 0 
L 9.078125 0 
L 9.078125 54.6875 
L 18.109375 54.6875 
L 18.109375 46.1875 
Q 21.34375 51.125 25.703125 53.5625 
Q 30.078125 56 35.796875 56 
Q 45.21875 56 50.046875 50.171875 
Q 54.890625 44.34375 54.890625 33.015625 
z
" id="DejaVuSans-110"/>
       <path d="M 8.015625 75.875 
L 15.828125 75.875 
Q 23.140625 64.359375 26.78125 53.3125 
Q 30.421875 42.28125 30.421875 31.390625 
Q 30.421875 20.453125 26.78125 9.375 
Q 23.140625 -1.703125 15.828125 -13.1875 
L 8.015625 -13.1875 
Q 14.5 -2 17.703125 9.0625 
Q 20.90625 20.125 20.90625 31.390625 
Q 20.90625 42.671875 17.703125 53.65625 
Q 14.5 64.65625 8.015625 75.875 
z
" id="DejaVuSans-41"/>
      </defs>
      <use xlink:href="#DejaVuSans-108"/>
      <use x="27.783203" xlink:href="#DejaVuSans-111"/>
      <use x="88.964844" xlink:href="#DejaVuSans-103"/>
      <use x="152.441406" xlink:href="#DejaVuSans-49"/>
      <use x="216.064453" xlink:href="#DejaVuSans-48"/>
      <use x="279.6875" xlink:href="#DejaVuSans-40"/>
      <use x="318.701172" xlink:href="#DejaVuSans-35"/>
      <use x="402.490234" xlink:href="#DejaVuSans-32"/>
      <use x="434.277344" xlink:href="#DejaVuSans-102"/>
      <use x="463.982422" xlink:href="#DejaVuSans-45"/>
      <use x="500.066406" xlink:href="#DejaVuSans-101"/>
      <use x="561.589844" xlink:href="#DejaVuSans-118"/>
      <use x="620.769531" xlink:href="#DejaVuSans-97"/>
      <use x="682.048828" xlink:href="#DejaVuSans-108"/>
      <use x="709.832031" xlink:href="#DejaVuSans-115"/>
      <use x="761.931641" xlink:href="#DejaVuSans-32"/>
      <use x="793.71875" xlink:href="#DejaVuSans-47"/>
      <use x="827.410156" xlink:href="#DejaVuSans-32"/>
      <use x="859.197266" xlink:href="#DejaVuSans-100"/>
      <use x="922.673828" xlink:href="#DejaVuSans-105"/>
      <use x="950.457031" xlink:href="#DejaVuSans-109"/>
      <use x="1047.869141" xlink:href="#DejaVuSans-101"/>
      <use x="1109.392578" xlink:href="#DejaVuSans-110"/>
      <use x="1172.771484" xlink:href="#DejaVuSans-115"/>
      <use x="1224.871094" xlink:href="#DejaVuSans-105"/>
      <use x="1252.654297" xlink:href="#DejaVuSans-111"/>
      <use x="1313.835938" xlink:href="#DejaVuSans-110"/>
      <use x="1377.214844" xlink:href="#DejaVuSans-41"/>
     </g>
    </g>
   </g>
   <g id="matplotlib.axis_2">
    <g id="ytick_1">
     <g id="line2d_21">
      <path clip-path="url(#p35ac29d782)" d="M 57.6 298.944 
L 338.688 298.944 
" style="fill:none;stroke:#b0b0b0;stroke-linecap:square;stroke-width:0.8;"/>
     </g>
     <g id="line2d_22">
      <defs>
       <path d="M 0 0 
L -3.5 0 
" id="mb5c6aaf993" style="stroke:#000000;stroke-width:0.8;"/>
      </defs>
      <g>
       <use style="stroke:#000000;stroke-width:0.8;" x="57.6" xlink:href="#mb5c6aaf993" y="298.944"/>
      </g>
     </g>
     <g id="text_6">
      <!-- 0.0 -->
      <g transform="translate(25.155 305.02275)scale(0.16 -0.16)">
       <defs>
        <path d="M 10.6875 12.40625 
L 21 12.40625 
L 21 0 
L 10.6875 0 
z
" id="DejaVuSans-46"/>
       </defs>
       <use xlink:href="#DejaVuSans-48"/>
       <use x="63.623047" xlink:href="#DejaVuSans-46"/>
       <use x="95.410156" xlink:href="#DejaVuSans-48"/>
      </g>
     </g>
    </g>
    <g id="ytick_2">
     <g id="line2d_23">
      <path clip-path="url(#p35ac29d782)" d="M 57.6 245.22202 
L 338.688 245.22202 
" style="fill:none;stroke:#b0b0b0;stroke-linecap:square;stroke-width:0.8;"/>
     </g>
     <g id="line2d_24">
      <g>
       <use style="stroke:#000000;stroke-width:0.8;" x="57.6" xlink:href="#mb5c6aaf993" y="245.22202"/>
      </g>
     </g>
     <g id="text_7">
      <!-- 0.2 -->
      <g transform="translate(25.155 251.30077)scale(0.16 -0.16)">
       <use xlink:href="#DejaVuSans-48"/>
       <use x="63.623047" xlink:href="#DejaVuSans-46"/>
       <use x="95.410156" xlink:href="#DejaVuSans-50"/>
      </g>
     </g>
    </g>
    <g id="ytick_3">
     <g id="line2d_25">
      <path clip-path="url(#p35ac29d782)" d="M 57.6 191.50004 
L 338.688 191.50004 
" style="fill:none;stroke:#b0b0b0;stroke-linecap:square;stroke-width:0.8;"/>
     </g>
     <g id="line2d_26">
      <g>
       <use style="stroke:#000000;stroke-width:0.8;" x="57.6" xlink:href="#mb5c6aaf993" y="191.50004"/>
      </g>
     </g>
     <g id="text_8">
      <!-- 0.4 -->
      <g transform="translate(25.155 197.57879)scale(0.16 -0.16)">
       <use xlink:href="#DejaVuSans-48"/>
       <use x="63.623047" xlink:href="#DejaVuSans-46"/>
       <use x="95.410156" xlink:href="#DejaVuSans-52"/>
      </g>
     </g>
    </g>
    <g id="ytick_4">
     <g id="line2d_27">
      <path clip-path="url(#p35ac29d782)" d="M 57.6 137.778059 
L 338.688 137.778059 
" style="fill:none;stroke:#b0b0b0;stroke-linecap:square;stroke-width:0.8;"/>
     </g>
     <g id="line2d_28">
      <g>
       <use style="stroke:#000000;stroke-width:0.8;" x="57.6" xlink:href="#mb5c6aaf993" y="137.778059"/>
      </g>
     </g>
     <g id="text_9">
      <!-- 0.6 -->
      <g transform="translate(25.155 143.856809)scale(0.16 -0.16)">
       <use xlink:href="#DejaVuSans-48"/>
       <use x="63.623047" xlink:href="#DejaVuSans-46"/>
       <use x="95.410156" xlink:href="#DejaVuSans-54"/>
      </g>
     </g>
    </g>
    <g id="ytick_5">
     <g id="line2d_29">
      <path clip-path="url(#p35ac29d782)" d="M 57.6 84.056079 
L 338.688 84.056079 
" style="fill:none;stroke:#b0b0b0;stroke-linecap:square;stroke-width:0.8;"/>
     </g>
     <g id="line2d_30">
      <g>
       <use style="stroke:#000000;stroke-width:0.8;" x="57.6" xlink:href="#mb5c6aaf993" y="84.056079"/>
      </g>
     </g>
     <g id="text_10">
      <!-- 0.8 -->
      <g transform="translate(25.155 90.134829)scale(0.16 -0.16)">
       <defs>
        <path d="M 31.78125 34.625 
Q 24.75 34.625 20.71875 30.859375 
Q 16.703125 27.09375 16.703125 20.515625 
Q 16.703125 13.921875 20.71875 10.15625 
Q 24.75 6.390625 31.78125 6.390625 
Q 38.8125 6.390625 42.859375 10.171875 
Q 46.921875 13.96875 46.921875 20.515625 
Q 46.921875 27.09375 42.890625 30.859375 
Q 38.875 34.625 31.78125 34.625 
z
M 21.921875 38.8125 
Q 15.578125 40.375 12.03125 44.71875 
Q 8.5 49.078125 8.5 55.328125 
Q 8.5 64.0625 14.71875 69.140625 
Q 20.953125 74.21875 31.78125 74.21875 
Q 42.671875 74.21875 48.875 69.140625 
Q 55.078125 64.0625 55.078125 55.328125 
Q 55.078125 49.078125 51.53125 44.71875 
Q 48 40.375 41.703125 38.8125 
Q 48.828125 37.15625 52.796875 32.3125 
Q 56.78125 27.484375 56.78125 20.515625 
Q 56.78125 9.90625 50.3125 4.234375 
Q 43.84375 -1.421875 31.78125 -1.421875 
Q 19.734375 -1.421875 13.25 4.234375 
Q 6.78125 9.90625 6.78125 20.515625 
Q 6.78125 27.484375 10.78125 32.3125 
Q 14.796875 37.15625 21.921875 38.8125 
z
M 18.3125 54.390625 
Q 18.3125 48.734375 21.84375 45.5625 
Q 25.390625 42.390625 31.78125 42.390625 
Q 38.140625 42.390625 41.71875 45.5625 
Q 45.3125 48.734375 45.3125 54.390625 
Q 45.3125 60.0625 41.71875 63.234375 
Q 38.140625 66.40625 31.78125 66.40625 
Q 25.390625 66.40625 21.84375 63.234375 
Q 18.3125 60.0625 18.3125 54.390625 
z
" id="DejaVuSans-56"/>
       </defs>
       <use xlink:href="#DejaVuSans-48"/>
       <use x="63.623047" xlink:href="#DejaVuSans-46"/>
       <use x="95.410156" xlink:href="#DejaVuSans-56"/>
      </g>
     </g>
    </g>
    <g id="ytick_6">
     <g id="line2d_31">
      <path clip-path="url(#p35ac29d782)" d="M 57.6 30.334099 
L 338.688 30.334099 
" style="fill:none;stroke:#b0b0b0;stroke-linecap:square;stroke-width:0.8;"/>
     </g>
     <g id="line2d_32">
      <g>
       <use style="stroke:#000000;stroke-width:0.8;" x="57.6" xlink:href="#mb5c6aaf993" y="30.334099"/>
      </g>
     </g>
     <g id="text_11">
      <!-- 1.0 -->
      <g transform="translate(25.155 36.412849)scale(0.16 -0.16)">
       <use xlink:href="#DejaVuSans-49"/>
       <use x="63.623047" xlink:href="#DejaVuSans-46"/>
       <use x="95.410156" xlink:href="#DejaVuSans-48"/>
      </g>
     </g>
    </g>
    <g id="text_12">
     <!-- Fraction of function,target pairs -->
     <g transform="translate(17.619531 297.681)rotate(-90)scale(0.17 -0.17)">
      <defs>
       <path d="M 9.8125 72.90625 
L 51.703125 72.90625 
L 51.703125 64.59375 
L 19.671875 64.59375 
L 19.671875 43.109375 
L 48.578125 43.109375 
L 48.578125 34.8125 
L 19.671875 34.8125 
L 19.671875 0 
L 9.8125 0 
z
" id="DejaVuSans-70"/>
       <path d="M 41.109375 46.296875 
Q 39.59375 47.171875 37.8125 47.578125 
Q 36.03125 48 33.890625 48 
Q 26.265625 48 22.1875 43.046875 
Q 18.109375 38.09375 18.109375 28.8125 
L 18.109375 0 
L 9.078125 0 
L 9.078125 54.6875 
L 18.109375 54.6875 
L 18.109375 46.1875 
Q 20.953125 51.171875 25.484375 53.578125 
Q 30.03125 56 36.53125 56 
Q 37.453125 56 38.578125 55.875 
Q 39.703125 55.765625 41.0625 55.515625 
z
" id="DejaVuSans-114"/>
       <path d="M 48.78125 52.59375 
L 48.78125 44.1875 
Q 44.96875 46.296875 41.140625 47.34375 
Q 37.3125 48.390625 33.40625 48.390625 
Q 24.65625 48.390625 19.8125 42.84375 
Q 14.984375 37.3125 14.984375 27.296875 
Q 14.984375 17.28125 19.8125 11.734375 
Q 24.65625 6.203125 33.40625 6.203125 
Q 37.3125 6.203125 41.140625 7.25 
Q 44.96875 8.296875 48.78125 10.40625 
L 48.78125 2.09375 
Q 45.015625 0.34375 40.984375 -0.53125 
Q 36.96875 -1.421875 32.421875 -1.421875 
Q 20.0625 -1.421875 12.78125 6.34375 
Q 5.515625 14.109375 5.515625 27.296875 
Q 5.515625 40.671875 12.859375 48.328125 
Q 20.21875 56 33.015625 56 
Q 37.15625 56 41.109375 55.140625 
Q 45.0625 54.296875 48.78125 52.59375 
z
" id="DejaVuSans-99"/>
       <path d="M 18.3125 70.21875 
L 18.3125 54.6875 
L 36.8125 54.6875 
L 36.8125 47.703125 
L 18.3125 47.703125 
L 18.3125 18.015625 
Q 18.3125 11.328125 20.140625 9.421875 
Q 21.96875 7.515625 27.59375 7.515625 
L 36.8125 7.515625 
L 36.8125 0 
L 27.59375 0 
Q 17.1875 0 13.234375 3.875 
Q 9.28125 7.765625 9.28125 18.015625 
L 9.28125 47.703125 
L 2.6875 47.703125 
L 2.6875 54.6875 
L 9.28125 54.6875 
L 9.28125 70.21875 
z
" id="DejaVuSans-116"/>
       <path d="M 8.5 21.578125 
L 8.5 54.6875 
L 17.484375 54.6875 
L 17.484375 21.921875 
Q 17.484375 14.15625 20.5 10.265625 
Q 23.53125 6.390625 29.59375 6.390625 
Q 36.859375 6.390625 41.078125 11.03125 
Q 45.3125 15.671875 45.3125 23.6875 
L 45.3125 54.6875 
L 54.296875 54.6875 
L 54.296875 0 
L 45.3125 0 
L 45.3125 8.40625 
Q 42.046875 3.421875 37.71875 1 
Q 33.40625 -1.421875 27.6875 -1.421875 
Q 18.265625 -1.421875 13.375 4.4375 
Q 8.5 10.296875 8.5 21.578125 
z
M 31.109375 56 
z
" id="DejaVuSans-117"/>
       <path d="M 11.71875 12.40625 
L 22.015625 12.40625 
L 22.015625 4 
L 14.015625 -11.625 
L 7.71875 -11.625 
L 11.71875 4 
z
" id="DejaVuSans-44"/>
       <path d="M 18.109375 8.203125 
L 18.109375 -20.796875 
L 9.078125 -20.796875 
L 9.078125 54.6875 
L 18.109375 54.6875 
L 18.109375 46.390625 
Q 20.953125 51.265625 25.265625 53.625 
Q 29.59375 56 35.59375 56 
Q 45.5625 56 51.78125 48.09375 
Q 58.015625 40.1875 58.015625 27.296875 
Q 58.015625 14.40625 51.78125 6.484375 
Q 45.5625 -1.421875 35.59375 -1.421875 
Q 29.59375 -1.421875 25.265625 0.953125 
Q 20.953125 3.328125 18.109375 8.203125 
z
M 48.6875 27.296875 
Q 48.6875 37.203125 44.609375 42.84375 
Q 40.53125 48.484375 33.40625 48.484375 
Q 26.265625 48.484375 22.1875 42.84375 
Q 18.109375 37.203125 18.109375 27.296875 
Q 18.109375 17.390625 22.1875 11.75 
Q 26.265625 6.109375 33.40625 6.109375 
Q 40.53125 6.109375 44.609375 11.75 
Q 48.6875 17.390625 48.6875 27.296875 
z
" id="DejaVuSans-112"/>
      </defs>
      <use xlink:href="#DejaVuSans-70"/>
      <use x="50.269531" xlink:href="#DejaVuSans-114"/>
      <use x="91.382812" xlink:href="#DejaVuSans-97"/>
      <use x="152.662109" xlink:href="#DejaVuSans-99"/>
      <use x="207.642578" xlink:href="#DejaVuSans-116"/>
      <use x="246.851562" xlink:href="#DejaVuSans-105"/>
      <use x="274.634766" xlink:href="#DejaVuSans-111"/>
      <use x="335.816406" xlink:href="#DejaVuSans-110"/>
      <use x="399.195312" xlink:href="#DejaVuSans-32"/>
      <use x="430.982422" xlink:href="#DejaVuSans-111"/>
      <use x="492.164062" xlink:href="#DejaVuSans-102"/>
      <use x="527.369141" xlink:href="#DejaVuSans-32"/>
      <use x="559.15625" xlink:href="#DejaVuSans-102"/>
      <use x="594.361328" xlink:href="#DejaVuSans-117"/>
      <use x="657.740234" xlink:href="#DejaVuSans-110"/>
      <use x="721.119141" xlink:href="#DejaVuSans-99"/>
      <use x="776.099609" xlink:href="#DejaVuSans-116"/>
      <use x="815.308594" xlink:href="#DejaVuSans-105"/>
      <use x="843.091797" xlink:href="#DejaVuSans-111"/>
      <use x="904.273438" xlink:href="#DejaVuSans-110"/>
      <use x="967.652344" xlink:href="#DejaVuSans-44"/>
      <use x="999.439453" xlink:href="#DejaVuSans-116"/>
      <use x="1038.648438" xlink:href="#DejaVuSans-97"/>
      <use x="1099.927734" xlink:href="#DejaVuSans-114"/>
      <use x="1139.291016" xlink:href="#DejaVuSans-103"/>
      <use x="1202.767578" xlink:href="#DejaVuSans-101"/>
      <use x="1264.291016" xlink:href="#DejaVuSans-116"/>
      <use x="1303.5" xlink:href="#DejaVuSans-32"/>
      <use x="1335.287109" xlink:href="#DejaVuSans-112"/>
      <use x="1398.763672" xlink:href="#DejaVuSans-97"/>
      <use x="1460.042969" xlink:href="#DejaVuSans-105"/>
      <use x="1487.826172" xlink:href="#DejaVuSans-114"/>
      <use x="1528.939453" xlink:href="#DejaVuSans-115"/>
     </g>
    </g>
   </g>
   <g id="line2d_33">
    <defs>
     <path d="M 0 1.5 
C 0.397805 1.5 0.77937 1.341951 1.06066 1.06066 
C 1.341951 0.77937 1.5 0.397805 1.5 0 
C 1.5 -0.397805 1.341951 -0.77937 1.06066 -1.06066 
C 0.77937 -1.341951 0.397805 -1.5 0 -1.5 
C -0.397805 -1.5 -0.77937 -1.341951 -1.06066 -1.06066 
C -1.341951 -0.77937 -1.5 -0.397805 -1.5 0 
C -1.5 0.397805 -1.341951 0.77937 -1.06066 1.06066 
C -0.77937 1.341951 -0.397805 1.5 0 1.5 
z
" id="m9f4c9ecb06" style="stroke:#f5deb3;"/>
    </defs>
    <g>
     <use style="fill:#f5deb3;stroke:#f5deb3;" x="239.05607" xlink:href="#m9f4c9ecb06" y="62.752535"/>
     <use style="fill:#f5deb3;stroke:#f5deb3;" x="239.05607" xlink:href="#m9f4c9ecb06" y="62.752535"/>
    </g>
   </g>
   <g id="line2d_34">
    <defs>
     <path d="M 0 1.5 
C 0.397805 1.5 0.77937 1.341951 1.06066 1.06066 
C 1.341951 0.77937 1.5 0.397805 1.5 0 
C 1.5 -0.397805 1.341951 -0.77937 1.06066 -1.06066 
C 0.77937 -1.341951 0.397805 -1.5 0 -1.5 
C -0.397805 -1.5 -0.77937 -1.341951 -1.06066 -1.06066 
C -1.341951 -0.77937 -1.5 -0.397805 -1.5 0 
C -1.5 0.397805 -1.341951 0.77937 -1.06066 1.06066 
C -0.77937 1.341951 -0.397805 1.5 0 1.5 
z
" id="m9639104358" style="stroke:#000080;"/>
    </defs>
    <g>
     <use style="fill:#000080;stroke:#000080;" x="258.170665" xlink:href="#m9639104358" y="83.129838"/>
     <use style="fill:#000080;stroke:#000080;" x="258.170665" xlink:href="#m9639104358" y="83.129838"/>
    </g>
   </g>
   <g id="line2d_35">
    <path d="M 45.512012 298.944 
L 45.512012 292.460313 
L 57.6 292.460313 
L 57.6 291.534072 
L 64.67102 291.534072 
L 64.67102 291.070951 
L 69.687988 291.070951 
L 69.687988 290.14471 
L 76.759008 290.14471 
L 76.759008 289.68159 
L 79.447285 289.68159 
L 79.447285 287.829108 
L 81.775977 287.829108 
L 81.775977 284.124143 
L 87.329581 284.124143 
L 87.329581 283.661023 
L 88.846997 283.661023 
L 88.846997 282.271661 
L 90.242884 282.271661 
L 90.242884 281.808541 
L 92.73846 281.808541 
L 92.73846 281.34542 
L 94.921215 281.34542 
L 94.921215 280.8823 
L 95.918017 280.8823 
L 95.918017 280.419179 
L 96.86091 280.419179 
L 96.86091 279.956059 
L 99.41757 279.956059 
L 99.41757 279.492938 
L 100.934985 279.492938 
L 100.934985 278.566697 
L 101.646892 278.566697 
L 101.646892 277.640456 
L 103.623262 277.640456 
L 103.623262 277.177336 
L 105.951954 277.177336 
L 105.951954 276.714215 
L 107.514726 276.714215 
L 107.514726 275.324854 
L 108.006005 275.324854 
L 108.006005 272.08301 
L 110.274038 272.08301 
L 110.274038 271.619889 
L 113.022974 271.619889 
L 113.022974 270.230528 
L 114.080224 270.230528 
L 114.080224 269.304287 
L 114.418861 269.304287 
L 114.418861 268.378046 
L 117.486268 268.378046 
L 117.486268 267.451805 
L 118.039942 267.451805 
L 118.039942 266.988684 
L 121.931406 266.988684 
L 121.931406 266.525564 
L 122.988655 266.525564 
L 122.988655 265.136202 
L 123.790603 265.136202 
L 123.790603 261.894358 
L 126.168212 261.894358 
L 126.168212 261.431238 
L 127.325746 261.431238 
L 127.325746 260.968117 
L 128.107907 260.968117 
L 128.107907 260.041876 
L 129.853291 260.041876 
L 129.853291 259.578756 
L 130.531948 259.578756 
L 130.531948 255.873792 
L 130.664567 255.873792 
L 130.664567 254.947551 
L 131.056477 254.947551 
L 131.056477 254.02131 
L 135.178927 254.02131 
L 135.178927 252.631948 
L 136.551264 252.631948 
L 136.551264 251.705707 
L 137.198951 251.705707 
L 137.289545 249.390104 
L 137.469333 249.390104 
L 137.469333 248.000743 
L 138.426341 248.000743 
L 138.426341 246.611381 
L 138.594838 246.611381 
L 138.594838 245.22202 
L 139.572998 245.22202 
L 139.652088 243.369538 
L 140.64889 243.369538 
L 140.64889 242.443297 
L 141.307054 242.443297 
L 141.307054 241.517056 
L 142.553247 241.517056 
L 142.553247 241.053935 
L 146.801841 241.053935 
L 146.801841 240.127694 
L 147.570215 240.127694 
L 147.570215 239.664574 
L 147.71991 239.664574 
L 147.818997 238.275212 
L 148.497276 238.275212 
L 148.497276 237.812091 
L 149.377533 237.812091 
L 149.377533 237.348971 
L 149.646525 237.348971 
L 149.646525 235.496489 
L 149.867558 235.496489 
L 149.867558 235.033368 
L 150.973835 235.033368 
L 150.973835 234.570248 
L 152.0141 234.570248 
L 152.0141 231.791525 
L 152.168773 231.791525 
L 152.245598 229.475922 
L 152.699575 229.475922 
L 152.736878 227.16032 
L 153.250915 227.16032 
L 153.250915 226.697199 
L 153.395042 226.697199 
L 153.395042 225.770958 
L 158.003578 225.770958 
L 158.003578 224.844717 
L 158.168101 224.844717 
L 158.168101 224.381596 
L 159.582872 224.381596 
L 159.582872 223.455355 
L 160.914762 223.455355 
L 161.007772 220.213512 
L 161.054091 220.213512 
L 161.054091 219.287271 
L 162.581141 219.287271 
L 162.581141 218.36103 
L 163.287113 218.36103 
L 163.287113 217.434789 
L 163.50953 217.434789 
L 163.50953 216.508548 
L 164.121498 216.508548 
L 164.121498 215.582307 
L 164.524182 215.582307 
L 164.524182 213.729825 
L 167.223287 213.729825 
L 167.223287 211.877342 
L 168.109685 211.877342 
L 168.109685 210.951101 
L 168.400474 210.951101 
L 168.400474 210.487981 
L 168.746115 210.487981 
L 168.746115 210.02486 
L 169.041203 210.02486 
L 169.041203 209.098619 
L 169.288161 209.098619 
L 169.288161 208.172378 
L 170.215104 208.172378 
L 170.215104 206.783017 
L 171.327782 206.783017 
L 171.327782 206.319896 
L 171.771231 206.319896 
L 171.771231 204.930535 
L 172.056618 204.930535 
L 172.056618 204.467414 
L 173.084161 204.467414 
L 173.084161 204.004294 
L 173.222844 204.004294 
L 173.222844 203.541173 
L 173.451559 203.541173 
L 173.462916 202.151812 
L 173.621148 202.151812 
L 173.621148 201.688691 
L 174.626698 201.688691 
L 174.626698 201.225571 
L 175.354741 201.225571 
L 175.354741 200.299329 
L 175.697687 200.299329 
L 175.697687 199.373088 
L 176.151193 199.373088 
L 176.151193 198.909968 
L 176.517133 198.909968 
L 176.60269 196.594365 
L 176.697263 196.594365 
L 176.781943 194.741883 
L 177.327109 194.741883 
L 177.327109 193.815642 
L 177.846921 193.815642 
L 177.846921 193.352522 
L 179.6808 193.352522 
L 179.6808 192.889401 
L 180.351324 192.889401 
L 180.351324 192.426281 
L 180.556629 192.426281 
L 180.571741 191.036919 
L 180.915752 191.036919 
L 180.915752 190.573799 
L 181.676464 190.573799 
L 181.676464 190.110678 
L 181.803604 190.110678 
L 181.803604 189.184437 
L 182.186441 189.184437 
L 182.26201 188.258196 
L 182.874923 188.258196 
L 182.874923 187.795075 
L 183.10504 187.795075 
L 183.10504 186.868834 
L 183.306352 186.868834 
L 183.306352 186.405714 
L 183.486206 186.405714 
L 183.556359 185.016352 
L 183.708446 185.016352 
L 183.708446 184.553232 
L 184.0087 184.553232 
L 184.0087 184.090111 
L 184.534056 184.090111 
L 184.5521 183.16387 
L 184.850112 183.16387 
L 184.850112 180.848268 
L 185.333839 180.848268 
L 185.333839 180.385147 
L 185.613239 180.385147 
L 185.613239 179.922027 
L 186.158957 179.922027 
L 186.158957 179.458906 
L 186.468683 179.458906 
L 186.500968 178.069545 
L 186.709376 178.069545 
L 186.709376 177.606424 
L 187.650312 177.606424 
L 187.650312 176.680183 
L 187.910083 176.680183 
L 187.910083 175.753942 
L 188.949531 175.753942 
L 188.949531 175.290821 
L 189.121531 175.290821 
L 189.144645 174.36458 
L 189.374112 174.36458 
L 189.374112 173.90146 
L 190.223892 173.90146 
L 190.306204 172.048978 
L 190.456822 172.048978 
L 190.516707 171.122737 
L 190.699363 171.122737 
L 190.724699 169.733375 
L 190.867576 169.733375 
L 190.867576 169.270255 
L 191.617107 169.270255 
L 191.617107 168.344014 
L 192.227692 168.344014 
L 192.227692 167.417773 
L 193.081322 167.417773 
L 193.081322 166.954652 
L 193.250067 166.954652 
L 193.250067 166.491532 
L 193.399106 166.491532 
L 193.399106 166.028411 
L 193.902146 166.028411 
L 193.902146 165.565291 
L 194.191615 165.565291 
L 194.191615 165.10217 
L 194.776607 165.10217 
L 194.820034 163.712808 
L 195.055323 163.712808 
L 195.117753 162.323447 
L 195.332894 162.323447 
L 195.332894 161.860326 
L 195.574195 161.860326 
L 195.574195 161.397206 
L 195.79328 161.397206 
L 195.79328 160.934085 
L 196.501273 160.934085 
L 196.501273 160.470965 
L 196.652107 160.470965 
L 196.652107 160.007844 
L 196.973522 160.007844 
L 196.973522 159.544724 
L 197.199116 159.544724 
L 197.199116 159.081603 
L 197.544973 159.081603 
L 197.544973 158.618483 
L 197.889701 158.618483 
L 197.889701 158.155362 
L 198.084462 158.155362 
L 198.084462 157.692242 
L 198.227747 157.692242 
L 198.227747 156.766001 
L 198.826556 156.766001 
L 198.826556 156.30288 
L 199.530718 156.30288 
L 199.530718 155.83976 
L 199.68285 155.83976 
L 199.68285 155.376639 
L 200.300388 155.376639 
L 200.300388 154.913519 
L 200.67404 154.913519 
L 200.67404 153.987278 
L 200.837835 153.987278 
L 200.837835 153.061037 
L 201.018823 153.061037 
L 201.126056 151.671675 
L 201.881042 151.671675 
L 201.989754 150.282313 
L 202.174554 150.282313 
L 202.174554 149.819193 
L 202.70051 149.819193 
L 202.802135 148.892952 
L 202.821124 148.892952 
L 202.831665 147.966711 
L 203.383429 147.966711 
L 203.383429 147.04047 
L 203.86671 147.04047 
L 203.86671 146.577349 
L 204.183564 146.577349 
L 204.224472 145.651108 
L 205.01008 145.651108 
L 205.11393 144.261747 
L 205.152715 144.261747 
L 205.152715 143.335506 
L 205.30151 143.335506 
L 205.34718 141.946144 
L 206.231113 141.946144 
L 206.231113 141.483024 
L 206.398526 141.483024 
L 206.398526 141.019903 
L 206.549028 141.019903 
L 206.549028 140.556783 
L 207.070744 140.556783 
L 207.070744 140.093662 
L 207.274484 140.093662 
L 207.334819 138.24118 
L 207.703671 138.24118 
L 207.703671 137.314939 
L 207.8718 137.314939 
L 207.8718 136.851818 
L 208.345181 136.851818 
L 208.377412 135.925577 
L 208.810539 135.925577 
L 208.810539 135.462457 
L 209.068881 135.462457 
L 209.068881 134.999336 
L 209.281281 134.999336 
L 209.314736 133.146854 
L 209.462331 133.146854 
L 209.538532 132.220613 
L 209.875266 132.220613 
L 209.875266 131.757493 
L 210.380104 131.757493 
L 210.412882 129.44189 
L 211.462666 129.44189 
L 211.508856 128.052529 
L 211.707611 128.052529 
L 211.770838 126.200046 
L 212.157811 126.200046 
L 212.216969 125.273805 
L 212.379846 125.273805 
L 212.379846 124.810685 
L 212.636364 124.810685 
L 212.636364 124.347564 
L 213.070529 124.347564 
L 213.127844 122.958203 
L 213.370213 122.958203 
L 213.370213 122.031962 
L 214.156081 122.031962 
L 214.192373 121.105721 
L 214.282227 121.105721 
L 214.282227 120.6426 
L 214.547967 120.6426 
L 214.547967 120.17948 
L 214.87534 120.17948 
L 214.97121 118.790118 
L 215.01528 118.790118 
L 215.01528 118.326998 
L 215.576256 118.326998 
L 215.576256 117.400757 
L 215.852117 117.400757 
L 215.852117 116.474516 
L 216.117781 116.474516 
L 216.117781 116.011395 
L 216.397861 116.011395 
L 216.420113 114.622033 
L 216.672562 114.622033 
L 216.672562 114.158913 
L 216.953321 114.158913 
L 216.992662 112.306431 
L 217.162121 112.306431 
L 217.162121 111.84331 
L 217.447934 111.84331 
L 217.447934 111.38019 
L 217.634705 111.38019 
L 217.634705 110.453949 
L 218.364133 110.453949 
L 218.423708 109.064587 
L 219.313398 109.064587 
L 219.313398 108.138346 
L 219.468328 108.138346 
L 219.469952 106.748985 
L 219.65887 106.748985 
L 219.65887 105.822744 
L 219.982662 105.822744 
L 220.049532 103.507141 
L 220.095014 103.507141 
L 220.095014 103.04402 
L 220.316023 103.04402 
L 220.410111 101.654659 
L 220.466167 101.654659 
L 220.466167 101.191538 
L 220.996227 101.191538 
L 221.094861 99.802177 
L 221.114078 99.802177 
L 221.114078 98.875936 
L 221.449163 98.875936 
L 221.55176 97.486574 
L 221.932974 97.486574 
L 221.932974 97.023454 
L 222.205708 97.023454 
L 222.205708 96.097213 
L 222.428404 96.097213 
L 222.428404 95.634092 
L 223.305478 95.634092 
L 223.385426 93.31849 
L 223.543587 93.31849 
L 223.543587 92.855369 
L 223.781659 92.855369 
L 223.880902 91.466008 
L 223.925598 91.466008 
L 223.925598 91.002887 
L 224.469662 91.002887 
L 224.469662 90.539766 
L 224.785503 90.539766 
L 224.785503 89.613525 
L 225.705766 89.613525 
L 225.705766 89.150405 
L 225.924655 89.150405 
L 225.924655 88.224164 
L 226.317674 88.224164 
L 226.317674 87.761043 
L 226.437848 87.761043 
L 226.437848 87.297923 
L 227.808257 87.297923 
L 227.824353 86.371682 
L 229.186057 86.371682 
L 229.186057 85.908561 
L 231.719938 85.908561 
L 231.719938 84.98232 
L 234.596703 84.98232 
L 234.596703 84.056079 
L 235.389557 84.056079 
L 235.389557 83.592959 
L 258.170665 83.592959 
L 258.170665 83.129838 
L 338.688 83.129838 
L 338.688 83.129838 
" style="fill:none;stroke:#000080;stroke-linecap:square;stroke-width:1.5;"/>
   </g>
   <g id="line2d_36">
    <defs>
     <path d="M 0 6 
C 1.591219 6 3.117479 5.367802 4.242641 4.242641 
C 5.367802 3.117479 6 1.591219 6 0 
C 6 -1.591219 5.367802 -3.117479 4.242641 -4.242641 
C 3.117479 -5.367802 1.591219 -6 0 -6 
C -1.591219 -6 -3.117479 -5.367802 -4.242641 -4.242641 
C -5.367802 -3.117479 -6 -1.591219 -6 0 
C -6 1.591219 -5.367802 3.117479 -4.242641 4.242641 
C -3.117479 5.367802 -1.591219 6 0 6 
z
" id="md1bef62179" style="stroke:#000080;stroke-width:1.5;"/>
    </defs>
    <g>
     <use style="fill-opacity:0;stroke:#000080;stroke-width:1.5;" x="76.759008" xlink:href="#md1bef62179" y="289.68159"/>
     <use style="fill-opacity:0;stroke:#000080;stroke-width:1.5;" x="153.395042" xlink:href="#md1bef62179" y="226.697199"/>
     <use style="fill-opacity:0;stroke:#000080;stroke-width:1.5;" x="209.462331" xlink:href="#md1bef62179" y="132.683734"/>
     <use style="fill-opacity:0;stroke:#000080;stroke-width:1.5;" x="258.170665" xlink:href="#md1bef62179" y="83.592959"/>
     <use style="fill-opacity:0;stroke:#000080;stroke-width:1.5;" x="258.170665" xlink:href="#md1bef62179" y="83.129838"/>
     <use style="fill-opacity:0;stroke:#000080;stroke-width:1.5;" x="338.688" xlink:href="#md1bef62179" y="83.129838"/>
    </g>
   </g>
   <g id="line2d_37">
    <path style="fill:none;stroke:#000080;stroke-linecap:square;stroke-width:1.5;"/>
    <g/>
   </g>
   <g id="line2d_38">
    <path clip-path="url(#p35ac29d782)" d="M 258.377579 83.129838 
" style="fill:none;stroke:#000080;stroke-linecap:square;stroke-width:1.5;"/>
    <defs>
     <path d="M -12 12 
L 12 -12 
M -12 -12 
L 12 12 
" id="m97e7b2cb19" style="stroke:#000080;"/>
    </defs>
    <g clip-path="url(#p35ac29d782)">
     <use style="fill:#000080;stroke:#000080;" x="258.377579" xlink:href="#m97e7b2cb19" y="83.129838"/>
    </g>
   </g>
   <g id="line2d_39">
    <defs>
     <path d="M 0 1.5 
C 0.397805 1.5 0.77937 1.341951 1.06066 1.06066 
C 1.341951 0.77937 1.5 0.397805 1.5 0 
C 1.5 -0.397805 1.341951 -0.77937 1.06066 -1.06066 
C 0.77937 -1.341951 0.397805 -1.5 0 -1.5 
C -0.397805 -1.5 -0.77937 -1.341951 -1.06066 -1.06066 
C -1.341951 -0.77937 -1.5 -0.397805 -1.5 0 
C -1.5 0.397805 -1.341951 0.77937 -1.06066 1.06066 
C -0.77937 1.341951 -0.397805 1.5 0 1.5 
z
" id="mecd36f0090" style="stroke:#ff00ff;"/>
    </defs>
    <g>
     <use style="fill:#ff00ff;stroke:#ff00ff;" x="257.718925" xlink:href="#mecd36f0090" y="96.097213"/>
     <use style="fill:#ff00ff;stroke:#ff00ff;" x="257.718925" xlink:href="#mecd36f0090" y="96.097213"/>
    </g>
   </g>
   <g id="line2d_40">
    <path d="M 45.512012 298.944 
L 45.512012 293.386554 
L 100.192776 293.386554 
L 100.192776 292.923433 
L 110.694282 292.923433 
L 110.694282 292.460313 
L 145.384119 292.460313 
L 145.440832 290.14471 
L 145.832743 290.14471 
L 145.832743 289.68159 
L 146.538004 289.68159 
L 146.538004 285.976625 
L 147.113265 285.976625 
L 147.113265 282.734782 
L 148.354135 282.734782 
L 148.40198 280.419179 
L 148.54473 280.419179 
L 148.54473 278.566697 
L 149.779481 278.566697 
L 149.779481 278.103577 
L 150.215485 278.103577 
L 150.215485 275.787974 
L 150.932558 275.787974 
L 150.932558 273.009251 
L 151.13797 273.009251 
L 151.13797 272.54613 
L 153.323128 272.54613 
L 153.323128 272.08301 
L 153.959927 272.08301 
L 153.959927 271.619889 
L 154.269814 271.619889 
L 154.269814 271.156769 
L 154.840544 271.156769 
L 154.873541 269.767407 
L 155.102793 269.767407 
L 155.102793 268.841166 
L 155.329071 268.841166 
L 155.329071 267.914925 
L 155.647315 267.914925 
L 155.741666 266.988684 
L 156.175347 266.988684 
L 156.266892 265.599323 
L 156.297301 265.599323 
L 156.297301 265.136202 
L 156.865211 265.136202 
L 156.865211 264.209961 
L 156.98245 264.209961 
L 156.98245 261.894358 
L 157.156845 261.894358 
L 157.156845 260.968117 
L 157.300853 260.968117 
L 157.38669 259.578756 
L 157.415209 259.578756 
L 157.415209 257.263153 
L 157.528821 257.263153 
L 157.528821 255.410671 
L 157.781772 255.410671 
L 157.781772 254.947551 
L 157.920731 254.947551 
L 157.920731 254.48443 
L 158.168101 254.48443 
L 158.276927 253.095069 
L 158.625992 253.095069 
L 158.705563 249.853225 
L 158.75841 249.853225 
L 158.75841 249.390104 
L 158.889829 249.390104 
L 158.889829 248.926984 
L 159.456591 248.926984 
L 159.481921 247.537622 
L 159.832723 247.537622 
L 159.832723 246.148261 
L 159.956318 246.148261 
L 159.956318 245.22202 
L 160.103486 245.22202 
L 160.103486 243.832658 
L 160.321935 243.832658 
L 160.321935 242.906417 
L 160.513841 242.906417 
L 160.513841 241.517056 
L 160.984566 241.517056 
L 160.984566 238.275212 
L 161.146363 238.275212 
L 161.238149 236.42273 
L 161.352206 236.42273 
L 161.442917 235.496489 
L 161.578106 235.496489 
L 161.578106 232.717766 
L 162.19549 232.717766 
L 162.303474 230.402163 
L 162.346481 230.402163 
L 162.346481 229.475922 
L 162.770815 229.475922 
L 162.812686 228.086561 
L 162.916926 228.086561 
L 162.916926 227.62344 
L 163.123555 227.62344 
L 163.123555 226.234079 
L 163.569701 226.234079 
L 163.649606 222.529114 
L 164.024234 222.529114 
L 164.024234 222.065994 
L 164.256762 222.065994 
L 164.314412 220.676632 
L 164.371873 220.676632 
L 164.371873 220.213512 
L 164.599841 220.213512 
L 164.599841 216.971668 
L 164.880672 216.971668 
L 164.917777 214.656066 
L 165.356985 214.656066 
L 165.356985 213.266704 
L 165.643763 213.266704 
L 165.7501 212.340463 
L 166.272273 212.340463 
L 166.272273 211.414222 
L 166.510705 211.414222 
L 166.510705 210.487981 
L 166.712511 210.487981 
L 166.7626 209.098619 
L 166.945039 209.098619 
L 167.010909 208.172378 
L 167.109252 208.172378 
L 167.109252 207.709258 
L 167.907893 207.709258 
L 167.93909 205.856776 
L 168.202038 205.856776 
L 168.232714 204.004294 
L 168.71633 204.004294 
L 168.71633 203.078053 
L 169.041203 203.078053 
L 169.041203 201.688691 
L 169.474679 201.688691 
L 169.474679 201.225571 
L 169.630959 201.225571 
L 169.630959 199.836209 
L 169.771826 199.836209 
L 169.841835 197.057486 
L 170.310587 197.057486 
L 170.364915 195.205004 
L 170.713981 195.205004 
L 170.713981 194.741883 
L 170.846398 194.741883 
L 170.846398 194.278763 
L 171.531901 194.278763 
L 171.569909 193.352522 
L 172.00732 193.352522 
L 172.118046 191.036919 
L 172.506141 191.036919 
L 172.60183 189.647558 
L 172.720707 189.647558 
L 172.720707 189.184437 
L 172.885786 189.184437 
L 172.885786 188.721316 
L 173.789104 188.721316 
L 173.789104 188.258196 
L 173.922314 188.258196 
L 173.977519 186.405714 
L 174.098358 186.405714 
L 174.142093 185.479473 
L 174.380694 185.479473 
L 174.380694 185.016352 
L 174.562857 185.016352 
L 174.562857 184.553232 
L 174.700886 184.553232 
L 174.700886 184.090111 
L 175.129186 184.090111 
L 175.221811 182.70075 
L 175.6777 182.70075 
L 175.6777 182.237629 
L 176.536182 182.237629 
L 176.536182 181.311388 
L 176.763161 181.311388 
L 176.763161 180.848268 
L 176.959372 180.848268 
L 176.959372 180.385147 
L 177.72286 180.385147 
L 177.72286 179.922027 
L 177.95256 179.922027 
L 177.95256 176.680183 
L 178.351686 176.680183 
L 178.351686 176.217062 
L 178.6156 176.217062 
L 178.6156 173.90146 
L 178.908845 173.90146 
L 178.925454 172.975219 
L 179.553156 172.975219 
L 179.553156 171.585857 
L 179.870531 171.585857 
L 179.870531 171.122737 
L 180.228512 171.122737 
L 180.228512 170.659616 
L 180.669651 170.659616 
L 180.669651 169.733375 
L 181.136505 169.733375 
L 181.245843 168.807134 
L 181.803604 168.807134 
L 181.803604 168.344014 
L 181.950772 168.344014 
L 181.950772 167.880893 
L 182.124367 167.880893 
L 182.124367 166.954652 
L 183.325711 166.954652 
L 183.325711 166.491532 
L 183.575442 166.491532 
L 183.575442 166.028411 
L 183.909189 166.028411 
L 183.909189 165.565291 
L 184.962035 165.565291 
L 184.962035 165.10217 
L 187.830565 165.10217 
L 187.830565 164.175929 
L 189.735094 164.175929 
L 189.735094 163.712808 
L 190.062477 163.712808 
L 190.062477 163.249688 
L 192.659729 163.249688 
L 192.659729 162.323447 
L 194.115355 162.323447 
L 194.115355 161.860326 
L 195.381422 161.860326 
L 195.381422 161.397206 
L 198.58089 161.397206 
L 198.685454 160.007844 
L 200.285761 160.007844 
L 200.285761 159.081603 
L 202.751397 159.081603 
L 202.751397 158.155362 
L 204.425659 158.155362 
L 204.425659 157.692242 
L 205.443605 157.692242 
L 205.459926 156.30288 
L 209.048236 156.30288 
L 209.055612 154.913519 
L 209.25068 154.913519 
L 209.292925 153.987278 
L 210.147531 153.987278 
L 210.16138 153.061037 
L 210.386938 153.061037 
L 210.386938 152.134795 
L 211.189454 152.134795 
L 211.189454 151.208554 
L 211.616159 151.208554 
L 211.616159 150.745434 
L 213.03652 150.745434 
L 213.03652 150.282313 
L 215.472439 150.282313 
L 215.472439 149.819193 
L 216.813034 149.819193 
L 216.874371 148.892952 
L 217.003886 148.892952 
L 217.003886 148.429831 
L 217.19822 148.429831 
L 217.19822 147.50359 
L 217.572368 147.50359 
L 217.572368 147.04047 
L 217.692325 147.04047 
L 217.778401 145.187988 
L 218.602925 145.187988 
L 218.602925 144.724867 
L 218.730425 144.724867 
L 218.730425 143.798626 
L 219.872754 143.798626 
L 219.872754 143.335506 
L 221.658054 143.335506 
L 221.710245 142.409265 
L 225.573559 142.409265 
L 225.573559 141.019903 
L 226.025276 141.019903 
L 226.081483 139.630541 
L 227.965558 139.630541 
L 227.965558 138.7043 
L 228.840891 138.7043 
L 228.840891 138.24118 
L 230.680674 138.24118 
L 230.680674 137.778059 
L 231.602529 137.778059 
L 231.602529 136.388698 
L 232.00827 136.388698 
L 232.070256 134.536216 
L 232.125345 134.536216 
L 232.227585 132.220613 
L 232.259583 132.220613 
L 232.327287 130.368131 
L 232.388152 130.368131 
L 232.441476 129.44189 
L 232.505404 129.44189 
L 232.505404 128.515649 
L 232.632562 128.515649 
L 232.632562 128.052529 
L 232.803825 128.052529 
L 232.860416 125.736926 
L 232.96369 125.736926 
L 232.96369 125.273805 
L 233.50306 125.273805 
L 233.50306 124.810685 
L 233.833535 124.810685 
L 233.833535 123.884444 
L 234.727821 123.884444 
L 234.727821 122.958203 
L 235.344864 122.958203 
L 235.34715 120.17948 
L 235.481194 120.17948 
L 235.529096 118.790118 
L 236.357229 118.790118 
L 236.414464 117.400757 
L 236.524101 117.400757 
L 236.524101 116.937636 
L 236.879475 116.937636 
L 236.879475 116.474516 
L 237.108002 116.474516 
L 237.108002 116.011395 
L 237.438757 116.011395 
L 237.438757 115.548274 
L 239.4874 115.548274 
L 239.549367 114.158913 
L 240.338707 114.158913 
L 240.338707 113.695792 
L 240.823744 113.695792 
L 240.823744 113.232672 
L 241.238437 113.232672 
L 241.247288 111.84331 
L 241.433276 111.84331 
L 241.433276 111.38019 
L 242.203033 111.38019 
L 242.203033 110.917069 
L 242.706665 110.917069 
L 242.706665 109.990828 
L 243.107644 109.990828 
L 243.107644 109.527708 
L 244.373673 109.527708 
L 244.373673 108.601467 
L 244.557414 108.601467 
L 244.557414 108.138346 
L 246.108598 108.138346 
L 246.108598 107.212105 
L 247.084125 107.212105 
L 247.084125 106.748985 
L 247.295777 106.748985 
L 247.295777 105.822744 
L 247.700435 105.822744 
L 247.810741 104.433382 
L 248.15227 104.433382 
L 248.15227 103.507141 
L 250.469517 103.507141 
L 250.469517 103.04402 
L 251.6267 103.04402 
L 251.673636 101.654659 
L 252.04552 101.654659 
L 252.04552 101.191538 
L 252.667513 101.191538 
L 252.667513 100.728418 
L 252.829108 100.728418 
L 252.829108 100.265297 
L 253.238607 100.265297 
L 253.238607 99.339056 
L 254.013498 99.339056 
L 254.013498 98.412815 
L 255.716659 98.412815 
L 255.716659 97.486574 
L 256.132257 97.486574 
L 256.132257 96.560333 
L 257.718925 96.560333 
L 257.718925 96.097213 
L 338.688 96.097213 
L 338.688 96.097213 
" style="fill:none;stroke:#ff00ff;stroke-linecap:square;stroke-width:1.5;"/>
   </g>
   <g id="line2d_41">
    <defs>
     <path d="M 0 8.485281 
L 5.091169 0 
L 0 -8.485281 
L -5.091169 0 
z
" id="m45b81768ba" style="stroke:#ff00ff;stroke-linejoin:miter;stroke-width:1.5;"/>
    </defs>
    <g>
     <use style="fill-opacity:0;stroke:#ff00ff;stroke-linejoin:miter;stroke-width:1.5;" x="160.984566" xlink:href="#m45b81768ba" y="241.517056"/>
     <use style="fill-opacity:0;stroke:#ff00ff;stroke-linejoin:miter;stroke-width:1.5;" x="210.147531" xlink:href="#m45b81768ba" y="153.524157"/>
     <use style="fill-opacity:0;stroke:#ff00ff;stroke-linejoin:miter;stroke-width:1.5;" x="254.013498" xlink:href="#m45b81768ba" y="99.339056"/>
     <use style="fill-opacity:0;stroke:#ff00ff;stroke-linejoin:miter;stroke-width:1.5;" x="257.718925" xlink:href="#m45b81768ba" y="96.097213"/>
     <use style="fill-opacity:0;stroke:#ff00ff;stroke-linejoin:miter;stroke-width:1.5;" x="338.688" xlink:href="#m45b81768ba" y="96.097213"/>
    </g>
   </g>
   <g id="line2d_42">
    <path style="fill:none;stroke:#ff00ff;stroke-linecap:square;stroke-width:1.5;"/>
    <g/>
   </g>
   <g id="line2d_43">
    <path clip-path="url(#p35ac29d782)" d="M 258.387168 96.097213 
" style="fill:none;stroke:#ff00ff;stroke-linecap:square;stroke-width:1.5;"/>
    <defs>
     <path d="M -12 12 
L 12 -12 
M -12 -12 
L 12 12 
" id="m9d8c5a4f14" style="stroke:#ff00ff;"/>
    </defs>
    <g clip-path="url(#p35ac29d782)">
     <use style="fill:#ff00ff;stroke:#ff00ff;" x="258.387168" xlink:href="#m9d8c5a4f14" y="96.097213"/>
    </g>
   </g>
   <g id="line2d_44">
    <defs>
     <path d="M 0 1.5 
C 0.397805 1.5 0.77937 1.341951 1.06066 1.06066 
C 1.341951 0.77937 1.5 0.397805 1.5 0 
C 1.5 -0.397805 1.341951 -0.77937 1.06066 -1.06066 
C 0.77937 -1.341951 0.397805 -1.5 0 -1.5 
C -0.397805 -1.5 -0.77937 -1.341951 -1.06066 -1.06066 
C -1.341951 -0.77937 -1.5 -0.397805 -1.5 0 
C -1.5 0.397805 -1.341951 0.77937 -1.06066 1.06066 
C -0.77937 1.341951 -0.397805 1.5 0 1.5 
z
" id="m1a395b2397" style="stroke:#ff7500;"/>
    </defs>
    <g>
     <use style="fill:#ff7500;stroke:#ff7500;" x="254.42552" xlink:href="#m1a395b2397" y="88.687284"/>
     <use style="fill:#ff7500;stroke:#ff7500;" x="254.42552" xlink:href="#m1a395b2397" y="88.687284"/>
    </g>
   </g>
   <g id="line2d_45">
    <path d="M 141.307054 298.944 
L 141.307054 298.017759 
L 141.80232 298.017759 
L 141.80232 296.165277 
L 143.902815 296.165277 
L 143.902815 295.702156 
L 149.690956 295.702156 
L 149.690956 293.386554 
L 151.13797 293.386554 
L 151.178764 290.607831 
L 151.700576 290.607831 
L 151.700576 287.365987 
L 152.774102 287.365987 
L 152.774102 286.902867 
L 153.502361 286.902867 
L 153.502361 285.050384 
L 153.959927 285.050384 
L 153.959927 282.734782 
L 154.132765 282.734782 
L 154.132765 280.8823 
L 154.439623 280.8823 
L 154.439623 280.419179 
L 156.052535 280.419179 
L 156.052535 279.492938 
L 156.806295 279.492938 
L 156.806295 277.177336 
L 157.415209 277.177336 
L 157.415209 276.714215 
L 158.086033 276.714215 
L 158.086033 275.787974 
L 158.249784 275.787974 
L 158.358103 273.472371 
L 158.385078 273.472371 
L 158.492562 268.841166 
L 158.572743 268.841166 
L 158.572743 268.378046 
L 158.705563 268.378046 
L 158.732007 267.451805 
L 159.046236 267.451805 
L 159.046236 266.988684 
L 159.557689 266.988684 
L 159.557689 266.525564 
L 159.956318 266.525564 
L 159.956318 266.062443 
L 160.537682 266.062443 
L 160.537682 265.599323 
L 160.797798 265.599323 
L 160.797798 265.136202 
L 160.938061 265.136202 
L 161.007772 264.209961 
L 161.215247 264.209961 
L 161.215247 263.746841 
L 161.801118 263.746841 
L 161.801118 262.357479 
L 162.62347 262.357479 
L 162.68677 259.578756 
L 162.854457 259.578756 
L 162.854457 258.652515 
L 163.408783 258.652515 
L 163.408783 258.189394 
L 163.709295 258.189394 
L 163.709295 257.726274 
L 163.965615 257.726274 
L 163.965615 257.263153 
L 164.295217 257.263153 
L 164.371873 255.410671 
L 164.787563 255.410671 
L 164.787563 254.947551 
L 165.010195 254.947551 
L 165.010195 253.558189 
L 165.447111 253.558189 
L 165.518877 249.853225 
L 165.838222 249.853225 
L 165.838222 245.68514 
L 166.065276 245.68514 
L 166.08262 244.295779 
L 166.527611 244.295779 
L 166.527611 243.369538 
L 166.845764 243.369538 
L 166.928532 241.980176 
L 167.400994 241.980176 
L 167.400994 241.517056 
L 167.560988 241.517056 
L 167.624577 240.127694 
L 168.760989 240.127694 
L 168.790698 238.738333 
L 168.894283 238.738333 
L 168.909031 237.348971 
L 169.070439 237.348971 
L 169.070439 235.959609 
L 169.288161 235.959609 
L 169.288161 235.033368 
L 169.460402 235.033368 
L 169.460402 234.107127 
L 169.855803 234.107127 
L 169.855803 233.180886 
L 170.091567 233.180886 
L 170.091567 232.717766 
L 170.634045 232.717766 
L 170.634045 231.791525 
L 170.977818 231.791525 
L 170.990905 230.865284 
L 171.160157 230.865284 
L 171.250617 227.62344 
L 171.289242 227.62344 
L 171.289242 227.16032 
L 171.417378 227.16032 
L 171.46837 224.844717 
L 171.758716 224.844717 
L 171.758716 223.918476 
L 172.093501 223.918476 
L 172.130306 222.992235 
L 173.037687 222.992235 
L 173.037687 222.529114 
L 173.291774 222.529114 
L 173.326137 221.139753 
L 173.496944 221.139753 
L 173.496944 220.676632 
L 173.733298 220.676632 
L 173.733298 219.750391 
L 173.866933 219.750391 
L 173.866933 219.287271 
L 174.043535 219.287271 
L 174.142093 216.971668 
L 174.315944 216.971668 
L 174.391462 213.729825 
L 174.455933 213.729825 
L 174.455933 211.414222 
L 174.679722 211.414222 
L 174.700886 208.635499 
L 175.036065 208.635499 
L 175.098201 206.783017 
L 175.170413 206.783017 
L 175.170413 206.319896 
L 175.817135 206.319896 
L 175.85677 204.930535 
L 176.373599 204.930535 
L 176.373599 202.614932 
L 176.61217 202.614932 
L 176.61217 202.151812 
L 176.763161 202.151812 
L 176.763161 201.225571 
L 176.977944 201.225571 
L 176.977944 200.76245 
L 177.098184 200.76245 
L 177.098184 200.299329 
L 177.226752 200.299329 
L 177.299796 198.909968 
L 177.354379 198.909968 
L 177.354379 198.446847 
L 177.490094 198.446847 
L 177.490094 197.983727 
L 177.66942 197.983727 
L 177.66942 197.520606 
L 177.838089 197.520606 
L 177.838089 195.205004 
L 178.022633 195.205004 
L 178.092425 193.352522 
L 178.196592 193.352522 
L 178.196592 191.036919 
L 178.573302 191.036919 
L 178.573302 190.573799 
L 178.775401 190.573799 
L 178.867253 189.184437 
L 178.933752 189.184437 
L 178.933752 188.258196 
L 179.082454 188.258196 
L 179.156332 186.868834 
L 179.213577 186.868834 
L 179.270634 185.479473 
L 180.089306 185.479473 
L 180.089306 185.016352 
L 180.488462 185.016352 
L 180.564187 182.70075 
L 180.856409 182.70075 
L 180.967511 181.774509 
L 180.997019 181.774509 
L 180.997019 181.311388 
L 181.289386 181.311388 
L 181.376149 179.922027 
L 181.47683 179.922027 
L 181.47683 177.143304 
L 181.915844 177.143304 
L 181.915844 176.680183 
L 182.378159 176.680183 
L 182.378159 176.217062 
L 182.621596 176.217062 
L 182.715356 172.512098 
L 182.8418 172.512098 
L 182.8418 172.048978 
L 183.072351 172.048978 
L 183.118098 170.659616 
L 183.31926 170.659616 
L 183.31926 170.196496 
L 183.486206 170.196496 
L 183.486206 169.733375 
L 183.746262 169.733375 
L 183.746262 168.807134 
L 183.977663 168.807134 
L 183.977663 168.344014 
L 184.334333 168.344014 
L 184.352584 166.954652 
L 184.449604 166.954652 
L 184.485848 165.565291 
L 184.648019 165.565291 
L 184.695781 163.712808 
L 185.19534 163.712808 
L 185.253182 162.323447 
L 185.499738 162.323447 
L 185.499738 161.860326 
L 185.6302 161.860326 
L 185.731624 158.618483 
L 185.927165 158.618483 
L 185.977095 157.692242 
L 186.137014 157.692242 
L 186.137014 157.229121 
L 186.441733 157.229121 
L 186.441733 156.30288 
L 186.735916 156.30288 
L 186.82585 154.913519 
L 187.2378 154.913519 
L 187.2378 154.450398 
L 187.620088 154.450398 
L 187.625129 152.597916 
L 187.934858 152.597916 
L 188.043453 151.208554 
L 188.185575 151.208554 
L 188.185575 150.745434 
L 188.766378 150.745434 
L 188.766378 150.282313 
L 189.052006 150.282313 
L 189.052006 149.819193 
L 189.213803 149.819193 
L 189.213803 149.356072 
L 189.555537 149.356072 
L 189.555537 148.892952 
L 189.69933 148.892952 
L 189.69933 148.429831 
L 190.145552 148.429831 
L 190.254263 147.50359 
L 190.366607 147.50359 
L 190.366607 146.577349 
L 191.038326 146.577349 
L 191.121016 145.187988 
L 191.520624 145.187988 
L 191.589021 143.335506 
L 191.788649 143.335506 
L 191.895505 140.093662 
L 191.903394 140.093662 
L 191.903394 138.7043 
L 192.39336 138.7043 
L 192.39336 137.314939 
L 193.018544 137.314939 
L 193.018544 136.851818 
L 193.220837 136.851818 
L 193.246416 135.925577 
L 193.743172 135.925577 
L 193.764452 134.999336 
L 193.923233 134.999336 
L 193.923233 134.536216 
L 194.181236 134.536216 
L 194.191615 133.609975 
L 194.329422 133.609975 
L 194.329422 132.683734 
L 194.803344 132.683734 
L 194.846705 131.294372 
L 194.989365 131.294372 
L 194.989365 130.831252 
L 195.449135 130.831252 
L 195.506966 129.905011 
L 196.214125 129.905011 
L 196.214125 129.44189 
L 196.540616 129.44189 
L 196.540616 128.97877 
L 196.867041 128.97877 
L 196.867041 128.052529 
L 198.045683 128.052529 
L 198.045683 127.589408 
L 198.175529 127.589408 
L 198.183784 126.663167 
L 198.345349 126.663167 
L 198.345349 126.200046 
L 198.80002 126.200046 
L 198.80002 125.736926 
L 199.126243 125.736926 
L 199.126243 124.810685 
L 199.622156 124.810685 
L 199.622156 123.884444 
L 199.806114 123.884444 
L 199.806114 123.421323 
L 200.830746 123.421323 
L 200.830746 122.495082 
L 200.995424 122.495082 
L 200.995424 121.568841 
L 201.717817 121.568841 
L 201.73129 120.17948 
L 202.372569 120.17948 
L 202.38987 118.790118 
L 203.088975 118.790118 
L 203.088975 118.326998 
L 203.753138 118.326998 
L 203.79706 116.937636 
L 204.274986 116.937636 
L 204.274986 116.474516 
L 204.905609 116.474516 
L 204.905609 116.011395 
L 205.049097 116.011395 
L 205.049097 115.085154 
L 206.514937 115.085154 
L 206.514937 114.622033 
L 206.755553 114.622033 
L 206.755553 113.695792 
L 207.718009 113.695792 
L 207.718009 113.232672 
L 207.936399 113.232672 
L 207.936399 112.306431 
L 208.574106 112.306431 
L 208.574106 111.84331 
L 210.517631 111.84331 
L 210.517631 110.917069 
L 211.517823 110.917069 
L 211.517823 110.453949 
L 211.656864 110.453949 
L 211.656864 109.990828 
L 211.95416 109.990828 
L 211.95416 109.064587 
L 214.564106 109.064587 
L 214.564106 108.138346 
L 215.880063 108.138346 
L 215.880063 107.675226 
L 216.649676 107.675226 
L 216.649676 107.212105 
L 219.504821 107.212105 
L 219.504821 106.285864 
L 219.686151 106.285864 
L 219.686151 105.822744 
L 222.405782 105.822744 
L 222.405782 105.359623 
L 222.657083 105.359623 
L 222.657083 104.896503 
L 224.282797 104.896503 
L 224.282797 103.970262 
L 224.936261 103.970262 
L 224.936261 103.507141 
L 225.790149 103.507141 
L 225.868503 101.654659 
L 229.108696 101.654659 
L 229.108696 100.728418 
L 229.328231 100.728418 
L 229.328231 100.265297 
L 229.703293 100.265297 
L 229.703293 99.802177 
L 233.632904 99.802177 
L 233.632904 99.339056 
L 233.786093 99.339056 
L 233.790736 98.412815 
L 236.379715 98.412815 
L 236.379715 97.486574 
L 238.399358 97.486574 
L 238.399358 97.023454 
L 238.861453 97.023454 
L 238.861453 96.097213 
L 239.33658 96.097213 
L 239.33658 95.170972 
L 240.579888 95.170972 
L 240.579888 94.244731 
L 241.15296 94.244731 
L 241.15296 93.78161 
L 244.158442 93.78161 
L 244.158442 93.31849 
L 244.890491 93.31849 
L 244.890491 92.855369 
L 245.038756 92.855369 
L 245.038756 91.929128 
L 246.926456 91.929128 
L 246.926456 91.002887 
L 249.126175 91.002887 
L 249.126175 90.076646 
L 250.991842 90.076646 
L 250.991842 89.613525 
L 252.238513 89.613525 
L 252.238513 89.150405 
L 254.42552 89.150405 
L 254.42552 88.687284 
L 338.688 88.687284 
L 338.688 88.687284 
" style="fill:none;stroke:#ff7500;stroke-linecap:square;stroke-width:1.5;"/>
   </g>
   <g id="line2d_46">
    <defs>
     <path d="M 0 -6 
L -1.347084 -1.854102 
L -5.706339 -1.854102 
L -2.179628 0.708204 
L -3.526712 4.854102 
L -0 2.291796 
L 3.526712 4.854102 
L 2.179628 0.708204 
L 5.706339 -1.854102 
L 1.347084 -1.854102 
z
" id="m334524ccb2" style="stroke:#ff7500;stroke-linejoin:bevel;stroke-width:1.5;"/>
    </defs>
    <g>
     <use style="fill-opacity:0;stroke:#ff7500;stroke-linejoin:bevel;stroke-width:1.5;" x="182.621596" xlink:href="#m334524ccb2" y="176.217062"/>
     <use style="fill-opacity:0;stroke:#ff7500;stroke-linejoin:bevel;stroke-width:1.5;" x="233.790736" xlink:href="#m334524ccb2" y="98.412815"/>
     <use style="fill-opacity:0;stroke:#ff7500;stroke-linejoin:bevel;stroke-width:1.5;" x="254.42552" xlink:href="#m334524ccb2" y="88.687284"/>
     <use style="fill-opacity:0;stroke:#ff7500;stroke-linejoin:bevel;stroke-width:1.5;" x="254.42552" xlink:href="#m334524ccb2" y="88.687284"/>
     <use style="fill-opacity:0;stroke:#ff7500;stroke-linejoin:bevel;stroke-width:1.5;" x="338.688" xlink:href="#m334524ccb2" y="88.687284"/>
    </g>
   </g>
   <g id="line2d_47">
    <path style="fill:none;stroke:#ff7500;stroke-linecap:square;stroke-width:1.5;"/>
    <g/>
   </g>
   <g id="line2d_48">
    <path clip-path="url(#p35ac29d782)" d="M 258.37723 88.687284 
" style="fill:none;stroke:#ff7500;stroke-linecap:square;stroke-width:1.5;"/>
    <defs>
     <path d="M -12 12 
L 12 -12 
M -12 -12 
L 12 12 
" id="mfca2c9b0a9" style="stroke:#ff7500;"/>
    </defs>
    <g clip-path="url(#p35ac29d782)">
     <use style="fill:#ff7500;stroke:#ff7500;" x="258.37723" xlink:href="#mfca2c9b0a9" y="88.687284"/>
    </g>
   </g>
   <g id="line2d_49">
    <path d="M 338.688 96.097213 
L 369.60768 293.571802 
" style="fill:none;stroke:#ff00ff;stroke-linecap:square;stroke-width:1.5;"/>
    <g>
     <use style="fill-opacity:0;stroke:#ff00ff;stroke-linejoin:miter;stroke-width:1.5;" x="338.688" xlink:href="#m45b81768ba" y="96.097213"/>
     <use style="fill-opacity:0;stroke:#ff00ff;stroke-linejoin:miter;stroke-width:1.5;" x="369.60768" xlink:href="#m45b81768ba" y="293.571802"/>
    </g>
   </g>
   <g id="line2d_50">
    <path d="M 338.688 88.687284 
L 369.60768 207.616634 
" style="fill:none;stroke:#ff7500;stroke-linecap:square;stroke-width:1.5;"/>
    <g>
     <use style="fill-opacity:0;stroke:#ff7500;stroke-linejoin:bevel;stroke-width:1.5;" x="338.688" xlink:href="#m334524ccb2" y="88.687284"/>
     <use style="fill-opacity:0;stroke:#ff7500;stroke-linejoin:bevel;stroke-width:1.5;" x="369.60768" xlink:href="#m334524ccb2" y="207.616634"/>
    </g>
   </g>
   <g id="line2d_51">
    <path d="M 338.688 83.129838 
L 369.60768 121.661465 
" style="fill:none;stroke:#000080;stroke-linecap:square;stroke-width:1.5;"/>
    <g>
     <use style="fill-opacity:0;stroke:#000080;stroke-width:1.5;" x="338.688" xlink:href="#md1bef62179" y="83.129838"/>
     <use style="fill-opacity:0;stroke:#000080;stroke-width:1.5;" x="369.60768" xlink:href="#md1bef62179" y="121.661465"/>
    </g>
   </g>
   <g id="line2d_52">
    <path d="M 338.688 298.944 
L 338.688 30.334099 
" style="fill:none;stroke:#000000;stroke-linecap:square;stroke-width:1.5;"/>
   </g>
   <g id="patch_3">
    <path d="M 57.6 298.944 
L 57.6 27.648 
" style="fill:none;stroke:#000000;stroke-linecap:square;stroke-linejoin:miter;stroke-width:0.8;"/>
   </g>
   <g id="patch_4">
    <path d="M 338.688 298.944 
L 338.688 27.648 
" style="fill:none;stroke:#000000;stroke-linecap:square;stroke-linejoin:miter;stroke-width:0.8;"/>
   </g>
   <g id="patch_5">
    <path d="M 57.6 298.944 
L 338.688 298.944 
" style="fill:none;stroke:#000000;stroke-linecap:square;stroke-linejoin:miter;stroke-width:0.8;"/>
   </g>
   <g id="patch_6">
    <path d="M 57.6 27.648 
L 338.688 27.648 
" style="fill:none;stroke:#000000;stroke-linecap:square;stroke-linejoin:miter;stroke-width:0.8;"/>
   </g>
   <g id="text_13">
    <!-- NSGA-II-M -->
    <g transform="translate(375.22944 298.262739)scale(0.17 -0.17)">
     <defs>
      <path d="M 9.8125 72.90625 
L 23.09375 72.90625 
L 55.421875 11.921875 
L 55.421875 72.90625 
L 64.984375 72.90625 
L 64.984375 0 
L 51.703125 0 
L 19.390625 60.984375 
L 19.390625 0 
L 9.8125 0 
z
" id="DejaVuSans-78"/>
      <path d="M 53.515625 70.515625 
L 53.515625 60.890625 
Q 47.90625 63.578125 42.921875 64.890625 
Q 37.9375 66.21875 33.296875 66.21875 
Q 25.25 66.21875 20.875 63.09375 
Q 16.5 59.96875 16.5 54.203125 
Q 16.5 49.359375 19.40625 46.890625 
Q 22.3125 44.4375 30.421875 42.921875 
L 36.375 41.703125 
Q 47.40625 39.59375 52.65625 34.296875 
Q 57.90625 29 57.90625 20.125 
Q 57.90625 9.515625 50.796875 4.046875 
Q 43.703125 -1.421875 29.984375 -1.421875 
Q 24.8125 -1.421875 18.96875 -0.25 
Q 13.140625 0.921875 6.890625 3.21875 
L 6.890625 13.375 
Q 12.890625 10.015625 18.65625 8.296875 
Q 24.421875 6.59375 29.984375 6.59375 
Q 38.421875 6.59375 43.015625 9.90625 
Q 47.609375 13.234375 47.609375 19.390625 
Q 47.609375 24.75 44.3125 27.78125 
Q 41.015625 30.8125 33.5 32.328125 
L 27.484375 33.5 
Q 16.453125 35.6875 11.515625 40.375 
Q 6.59375 45.0625 6.59375 53.421875 
Q 6.59375 63.09375 13.40625 68.65625 
Q 20.21875 74.21875 32.171875 74.21875 
Q 37.3125 74.21875 42.625 73.28125 
Q 47.953125 72.359375 53.515625 70.515625 
z
" id="DejaVuSans-83"/>
      <path d="M 59.515625 10.40625 
L 59.515625 29.984375 
L 43.40625 29.984375 
L 43.40625 38.09375 
L 69.28125 38.09375 
L 69.28125 6.78125 
Q 63.578125 2.734375 56.6875 0.65625 
Q 49.8125 -1.421875 42 -1.421875 
Q 24.90625 -1.421875 15.25 8.5625 
Q 5.609375 18.5625 5.609375 36.375 
Q 5.609375 54.25 15.25 64.234375 
Q 24.90625 74.21875 42 74.21875 
Q 49.125 74.21875 55.546875 72.453125 
Q 61.96875 70.703125 67.390625 67.28125 
L 67.390625 56.78125 
Q 61.921875 61.421875 55.765625 63.765625 
Q 49.609375 66.109375 42.828125 66.109375 
Q 29.4375 66.109375 22.71875 58.640625 
Q 16.015625 51.171875 16.015625 36.375 
Q 16.015625 21.625 22.71875 14.15625 
Q 29.4375 6.6875 42.828125 6.6875 
Q 48.046875 6.6875 52.140625 7.59375 
Q 56.25 8.5 59.515625 10.40625 
z
" id="DejaVuSans-71"/>
      <path d="M 34.1875 63.1875 
L 20.796875 26.90625 
L 47.609375 26.90625 
z
M 28.609375 72.90625 
L 39.796875 72.90625 
L 67.578125 0 
L 57.328125 0 
L 50.6875 18.703125 
L 17.828125 18.703125 
L 11.1875 0 
L 0.78125 0 
z
" id="DejaVuSans-65"/>
      <path d="M 9.8125 72.90625 
L 19.671875 72.90625 
L 19.671875 0 
L 9.8125 0 
z
" id="DejaVuSans-73"/>
      <path d="M 9.8125 72.90625 
L 24.515625 72.90625 
L 43.109375 23.296875 
L 61.8125 72.90625 
L 76.515625 72.90625 
L 76.515625 0 
L 66.890625 0 
L 66.890625 64.015625 
L 48.09375 14.015625 
L 38.1875 14.015625 
L 19.390625 64.015625 
L 19.390625 0 
L 9.8125 0 
z
" id="DejaVuSans-77"/>
     </defs>
     <use xlink:href="#DejaVuSans-78"/>
     <use x="74.804688" xlink:href="#DejaVuSans-83"/>
     <use x="138.28125" xlink:href="#DejaVuSans-71"/>
     <use x="215.771484" xlink:href="#DejaVuSans-65"/>
     <use x="281.929688" xlink:href="#DejaVuSans-45"/>
     <use x="318.013672" xlink:href="#DejaVuSans-73"/>
     <use x="347.505859" xlink:href="#DejaVuSans-73"/>
     <use x="376.998047" xlink:href="#DejaVuSans-45"/>
     <use x="413.082031" xlink:href="#DejaVuSans-77"/>
    </g>
   </g>
   <g id="text_14">
    <!-- SMS-EMOA- -->
    <g transform="translate(375.22944 212.307571)scale(0.17 -0.17)">
     <defs>
      <path d="M 9.8125 72.90625 
L 55.90625 72.90625 
L 55.90625 64.59375 
L 19.671875 64.59375 
L 19.671875 43.015625 
L 54.390625 43.015625 
L 54.390625 34.71875 
L 19.671875 34.71875 
L 19.671875 8.296875 
L 56.78125 8.296875 
L 56.78125 0 
L 9.8125 0 
z
" id="DejaVuSans-69"/>
      <path d="M 39.40625 66.21875 
Q 28.65625 66.21875 22.328125 58.203125 
Q 16.015625 50.203125 16.015625 36.375 
Q 16.015625 22.609375 22.328125 14.59375 
Q 28.65625 6.59375 39.40625 6.59375 
Q 50.140625 6.59375 56.421875 14.59375 
Q 62.703125 22.609375 62.703125 36.375 
Q 62.703125 50.203125 56.421875 58.203125 
Q 50.140625 66.21875 39.40625 66.21875 
z
M 39.40625 74.21875 
Q 54.734375 74.21875 63.90625 63.9375 
Q 73.09375 53.65625 73.09375 36.375 
Q 73.09375 19.140625 63.90625 8.859375 
Q 54.734375 -1.421875 39.40625 -1.421875 
Q 24.03125 -1.421875 14.8125 8.828125 
Q 5.609375 19.09375 5.609375 36.375 
Q 5.609375 53.65625 14.8125 63.9375 
Q 24.03125 74.21875 39.40625 74.21875 
z
" id="DejaVuSans-79"/>
     </defs>
     <use xlink:href="#DejaVuSans-83"/>
     <use x="63.476562" xlink:href="#DejaVuSans-77"/>
     <use x="149.755859" xlink:href="#DejaVuSans-83"/>
     <use x="213.232422" xlink:href="#DejaVuSans-45"/>
     <use x="249.316406" xlink:href="#DejaVuSans-69"/>
     <use x="312.5" xlink:href="#DejaVuSans-77"/>
     <use x="398.779297" xlink:href="#DejaVuSans-79"/>
     <use x="475.740234" xlink:href="#DejaVuSans-65"/>
     <use x="541.898438" xlink:href="#DejaVuSans-45"/>
    </g>
   </g>
   <g id="text_15">
    <!-- COMO-100  -->
    <g transform="translate(375.22944 126.352403)scale(0.17 -0.17)">
     <defs>
      <path d="M 64.40625 67.28125 
L 64.40625 56.890625 
Q 59.421875 61.53125 53.78125 63.8125 
Q 48.140625 66.109375 41.796875 66.109375 
Q 29.296875 66.109375 22.65625 58.46875 
Q 16.015625 50.828125 16.015625 36.375 
Q 16.015625 21.96875 22.65625 14.328125 
Q 29.296875 6.6875 41.796875 6.6875 
Q 48.140625 6.6875 53.78125 8.984375 
Q 59.421875 11.28125 64.40625 15.921875 
L 64.40625 5.609375 
Q 59.234375 2.09375 53.4375 0.328125 
Q 47.65625 -1.421875 41.21875 -1.421875 
Q 24.65625 -1.421875 15.125 8.703125 
Q 5.609375 18.84375 5.609375 36.375 
Q 5.609375 53.953125 15.125 64.078125 
Q 24.65625 74.21875 41.21875 74.21875 
Q 47.75 74.21875 53.53125 72.484375 
Q 59.328125 70.75 64.40625 67.28125 
z
" id="DejaVuSans-67"/>
     </defs>
     <use xlink:href="#DejaVuSans-67"/>
     <use x="69.824219" xlink:href="#DejaVuSans-79"/>
     <use x="148.535156" xlink:href="#DejaVuSans-77"/>
     <use x="234.814453" xlink:href="#DejaVuSans-79"/>
     <use x="316.275391" xlink:href="#DejaVuSans-45"/>
     <use x="352.359375" xlink:href="#DejaVuSans-49"/>
     <use x="415.982422" xlink:href="#DejaVuSans-48"/>
     <use x="479.605469" xlink:href="#DejaVuSans-48"/>
     <use x="543.228516" xlink:href="#DejaVuSans-32"/>
    </g>
   </g>
   <g id="text_16">
    <!-- best 2016 -->
    <g transform="translate(375.22944 40.397235)scale(0.17 -0.17)">
     <defs>
      <path d="M 48.6875 27.296875 
Q 48.6875 37.203125 44.609375 42.84375 
Q 40.53125 48.484375 33.40625 48.484375 
Q 26.265625 48.484375 22.1875 42.84375 
Q 18.109375 37.203125 18.109375 27.296875 
Q 18.109375 17.390625 22.1875 11.75 
Q 26.265625 6.109375 33.40625 6.109375 
Q 40.53125 6.109375 44.609375 11.75 
Q 48.6875 17.390625 48.6875 27.296875 
z
M 18.109375 46.390625 
Q 20.953125 51.265625 25.265625 53.625 
Q 29.59375 56 35.59375 56 
Q 45.5625 56 51.78125 48.09375 
Q 58.015625 40.1875 58.015625 27.296875 
Q 58.015625 14.40625 51.78125 6.484375 
Q 45.5625 -1.421875 35.59375 -1.421875 
Q 29.59375 -1.421875 25.265625 0.953125 
Q 20.953125 3.328125 18.109375 8.203125 
L 18.109375 0 
L 9.078125 0 
L 9.078125 75.984375 
L 18.109375 75.984375 
z
" id="DejaVuSans-98"/>
     </defs>
     <use xlink:href="#DejaVuSans-98"/>
     <use x="63.476562" xlink:href="#DejaVuSans-101"/>
     <use x="125" xlink:href="#DejaVuSans-115"/>
     <use x="177.099609" xlink:href="#DejaVuSans-116"/>
     <use x="216.308594" xlink:href="#DejaVuSans-32"/>
     <use x="248.095703" xlink:href="#DejaVuSans-50"/>
     <use x="311.71875" xlink:href="#DejaVuSans-48"/>
     <use x="375.341797" xlink:href="#DejaVuSans-49"/>
     <use x="438.964844" xlink:href="#DejaVuSans-54"/>
    </g>
   </g>
   <g id="text_17">
    <!-- bbob-biobj f34, 2-D -->
    <g transform="translate(60.41088 38.111366)scale(0.102 -0.102)">
     <defs>
      <path d="M 9.421875 54.6875 
L 18.40625 54.6875 
L 18.40625 -0.984375 
Q 18.40625 -11.421875 14.421875 -16.109375 
Q 10.453125 -20.796875 1.609375 -20.796875 
L -1.8125 -20.796875 
L -1.8125 -13.1875 
L 0.59375 -13.1875 
Q 5.71875 -13.1875 7.5625 -10.8125 
Q 9.421875 -8.453125 9.421875 -0.984375 
z
M 9.421875 75.984375 
L 18.40625 75.984375 
L 18.40625 64.59375 
L 9.421875 64.59375 
z
" id="DejaVuSans-106"/>
      <path d="M 40.578125 39.3125 
Q 47.65625 37.796875 51.625 33 
Q 55.609375 28.21875 55.609375 21.1875 
Q 55.609375 10.40625 48.1875 4.484375 
Q 40.765625 -1.421875 27.09375 -1.421875 
Q 22.515625 -1.421875 17.65625 -0.515625 
Q 12.796875 0.390625 7.625 2.203125 
L 7.625 11.71875 
Q 11.71875 9.328125 16.59375 8.109375 
Q 21.484375 6.890625 26.8125 6.890625 
Q 36.078125 6.890625 40.9375 10.546875 
Q 45.796875 14.203125 45.796875 21.1875 
Q 45.796875 27.640625 41.28125 31.265625 
Q 36.765625 34.90625 28.71875 34.90625 
L 20.21875 34.90625 
L 20.21875 43.015625 
L 29.109375 43.015625 
Q 36.375 43.015625 40.234375 45.921875 
Q 44.09375 48.828125 44.09375 54.296875 
Q 44.09375 59.90625 40.109375 62.90625 
Q 36.140625 65.921875 28.71875 65.921875 
Q 24.65625 65.921875 20.015625 65.03125 
Q 15.375 64.15625 9.8125 62.3125 
L 9.8125 71.09375 
Q 15.4375 72.65625 20.34375 73.4375 
Q 25.25 74.21875 29.59375 74.21875 
Q 40.828125 74.21875 47.359375 69.109375 
Q 53.90625 64.015625 53.90625 55.328125 
Q 53.90625 49.265625 50.4375 45.09375 
Q 46.96875 40.921875 40.578125 39.3125 
z
" id="DejaVuSans-51"/>
      <path d="M 19.671875 64.796875 
L 19.671875 8.109375 
L 31.59375 8.109375 
Q 46.6875 8.109375 53.6875 14.9375 
Q 60.6875 21.78125 60.6875 36.53125 
Q 60.6875 51.171875 53.6875 57.984375 
Q 46.6875 64.796875 31.59375 64.796875 
z
M 9.8125 72.90625 
L 30.078125 72.90625 
Q 51.265625 72.90625 61.171875 64.09375 
Q 71.09375 55.28125 71.09375 36.53125 
Q 71.09375 17.671875 61.125 8.828125 
Q 51.171875 0 30.078125 0 
L 9.8125 0 
z
" id="DejaVuSans-68"/>
     </defs>
     <use xlink:href="#DejaVuSans-98"/>
     <use x="63.476562" xlink:href="#DejaVuSans-98"/>
     <use x="126.953125" xlink:href="#DejaVuSans-111"/>
     <use x="188.134766" xlink:href="#DejaVuSans-98"/>
     <use x="251.611328" xlink:href="#DejaVuSans-45"/>
     <use x="287.695312" xlink:href="#DejaVuSans-98"/>
     <use x="351.171875" xlink:href="#DejaVuSans-105"/>
     <use x="378.955078" xlink:href="#DejaVuSans-111"/>
     <use x="440.136719" xlink:href="#DejaVuSans-98"/>
     <use x="503.613281" xlink:href="#DejaVuSans-106"/>
     <use x="531.396484" xlink:href="#DejaVuSans-32"/>
     <use x="563.183594" xlink:href="#DejaVuSans-102"/>
     <use x="598.388672" xlink:href="#DejaVuSans-51"/>
     <use x="662.011719" xlink:href="#DejaVuSans-52"/>
     <use x="725.634766" xlink:href="#DejaVuSans-44"/>
     <use x="757.421875" xlink:href="#DejaVuSans-32"/>
     <use x="789.208984" xlink:href="#DejaVuSans-50"/>
     <use x="852.832031" xlink:href="#DejaVuSans-45"/>
     <use x="888.916016" xlink:href="#DejaVuSans-68"/>
    </g>
    <!-- 58 targets: 1..-1.0e-4 -->
    <g transform="translate(60.41088 49.533135)scale(0.102 -0.102)">
     <defs>
      <path d="M 10.796875 72.90625 
L 49.515625 72.90625 
L 49.515625 64.59375 
L 19.828125 64.59375 
L 19.828125 46.734375 
Q 21.96875 47.46875 24.109375 47.828125 
Q 26.265625 48.1875 28.421875 48.1875 
Q 40.625 48.1875 47.75 41.5 
Q 54.890625 34.8125 54.890625 23.390625 
Q 54.890625 11.625 47.5625 5.09375 
Q 40.234375 -1.421875 26.90625 -1.421875 
Q 22.3125 -1.421875 17.546875 -0.640625 
Q 12.796875 0.140625 7.71875 1.703125 
L 7.71875 11.625 
Q 12.109375 9.234375 16.796875 8.0625 
Q 21.484375 6.890625 26.703125 6.890625 
Q 35.15625 6.890625 40.078125 11.328125 
Q 45.015625 15.765625 45.015625 23.390625 
Q 45.015625 31 40.078125 35.4375 
Q 35.15625 39.890625 26.703125 39.890625 
Q 22.75 39.890625 18.8125 39.015625 
Q 14.890625 38.140625 10.796875 36.28125 
z
" id="DejaVuSans-53"/>
      <path d="M 11.71875 12.40625 
L 22.015625 12.40625 
L 22.015625 0 
L 11.71875 0 
z
M 11.71875 51.703125 
L 22.015625 51.703125 
L 22.015625 39.3125 
L 11.71875 39.3125 
z
" id="DejaVuSans-58"/>
     </defs>
     <use xlink:href="#DejaVuSans-53"/>
     <use x="63.623047" xlink:href="#DejaVuSans-56"/>
     <use x="127.246094" xlink:href="#DejaVuSans-32"/>
     <use x="159.033203" xlink:href="#DejaVuSans-116"/>
     <use x="198.242188" xlink:href="#DejaVuSans-97"/>
     <use x="259.521484" xlink:href="#DejaVuSans-114"/>
     <use x="298.884766" xlink:href="#DejaVuSans-103"/>
     <use x="362.361328" xlink:href="#DejaVuSans-101"/>
     <use x="423.884766" xlink:href="#DejaVuSans-116"/>
     <use x="463.09375" xlink:href="#DejaVuSans-115"/>
     <use x="515.193359" xlink:href="#DejaVuSans-58"/>
     <use x="548.884766" xlink:href="#DejaVuSans-32"/>
     <use x="580.671875" xlink:href="#DejaVuSans-49"/>
     <use x="644.294922" xlink:href="#DejaVuSans-46"/>
     <use x="676.082031" xlink:href="#DejaVuSans-46"/>
     <use x="707.869141" xlink:href="#DejaVuSans-45"/>
     <use x="743.953125" xlink:href="#DejaVuSans-49"/>
     <use x="807.576172" xlink:href="#DejaVuSans-46"/>
     <use x="839.363281" xlink:href="#DejaVuSans-48"/>
     <use x="902.986328" xlink:href="#DejaVuSans-101"/>
     <use x="964.509766" xlink:href="#DejaVuSans-45"/>
     <use x="1000.59375" xlink:href="#DejaVuSans-52"/>
    </g>
    <!-- 10 instances -->
    <g transform="translate(60.41088 60.954904)scale(0.102 -0.102)">
     <use xlink:href="#DejaVuSans-49"/>
     <use x="63.623047" xlink:href="#DejaVuSans-48"/>
     <use x="127.246094" xlink:href="#DejaVuSans-32"/>
     <use x="159.033203" xlink:href="#DejaVuSans-105"/>
     <use x="186.816406" xlink:href="#DejaVuSans-110"/>
     <use x="250.195312" xlink:href="#DejaVuSans-115"/>
     <use x="302.294922" xlink:href="#DejaVuSans-116"/>
     <use x="341.503906" xlink:href="#DejaVuSans-97"/>
     <use x="402.783203" xlink:href="#DejaVuSans-110"/>
     <use x="466.162109" xlink:href="#DejaVuSans-99"/>
     <use x="521.142578" xlink:href="#DejaVuSans-101"/>
     <use x="582.666016" xlink:href="#DejaVuSans-115"/>
    </g>
   </g>
   <g id="text_18">
    <!-- v2.4.19, hv-hash=ff0e71e8cd978373 -->
    <g style="fill:#808080;" transform="translate(104.697125 294.151352)scale(0.1 -0.1)">
     <defs>
      <path d="M 10.984375 1.515625 
L 10.984375 10.5 
Q 14.703125 8.734375 18.5 7.8125 
Q 22.3125 6.890625 25.984375 6.890625 
Q 35.75 6.890625 40.890625 13.453125 
Q 46.046875 20.015625 46.78125 33.40625 
Q 43.953125 29.203125 39.59375 26.953125 
Q 35.25 24.703125 29.984375 24.703125 
Q 19.046875 24.703125 12.671875 31.3125 
Q 6.296875 37.9375 6.296875 49.421875 
Q 6.296875 60.640625 12.9375 67.421875 
Q 19.578125 74.21875 30.609375 74.21875 
Q 43.265625 74.21875 49.921875 64.515625 
Q 56.59375 54.828125 56.59375 36.375 
Q 56.59375 19.140625 48.40625 8.859375 
Q 40.234375 -1.421875 26.421875 -1.421875 
Q 22.703125 -1.421875 18.890625 -0.6875 
Q 15.09375 0.046875 10.984375 1.515625 
z
M 30.609375 32.421875 
Q 37.25 32.421875 41.125 36.953125 
Q 45.015625 41.5 45.015625 49.421875 
Q 45.015625 57.28125 41.125 61.84375 
Q 37.25 66.40625 30.609375 66.40625 
Q 23.96875 66.40625 20.09375 61.84375 
Q 16.21875 57.28125 16.21875 49.421875 
Q 16.21875 41.5 20.09375 36.953125 
Q 23.96875 32.421875 30.609375 32.421875 
z
" id="DejaVuSans-57"/>
      <path d="M 54.890625 33.015625 
L 54.890625 0 
L 45.90625 0 
L 45.90625 32.71875 
Q 45.90625 40.484375 42.875 44.328125 
Q 39.84375 48.1875 33.796875 48.1875 
Q 26.515625 48.1875 22.3125 43.546875 
Q 18.109375 38.921875 18.109375 30.90625 
L 18.109375 0 
L 9.078125 0 
L 9.078125 75.984375 
L 18.109375 75.984375 
L 18.109375 46.1875 
Q 21.34375 51.125 25.703125 53.5625 
Q 30.078125 56 35.796875 56 
Q 45.21875 56 50.046875 50.171875 
Q 54.890625 44.34375 54.890625 33.015625 
z
" id="DejaVuSans-104"/>
      <path d="M 10.59375 45.40625 
L 73.1875 45.40625 
L 73.1875 37.203125 
L 10.59375 37.203125 
z
M 10.59375 25.484375 
L 73.1875 25.484375 
L 73.1875 17.1875 
L 10.59375 17.1875 
z
" id="DejaVuSans-61"/>
      <path d="M 8.203125 72.90625 
L 55.078125 72.90625 
L 55.078125 68.703125 
L 28.609375 0 
L 18.3125 0 
L 43.21875 64.59375 
L 8.203125 64.59375 
z
" id="DejaVuSans-55"/>
     </defs>
     <use xlink:href="#DejaVuSans-118"/>
     <use x="59.179688" xlink:href="#DejaVuSans-50"/>
     <use x="122.802734" xlink:href="#DejaVuSans-46"/>
     <use x="154.589844" xlink:href="#DejaVuSans-52"/>
     <use x="218.212891" xlink:href="#DejaVuSans-46"/>
     <use x="250" xlink:href="#DejaVuSans-49"/>
     <use x="313.623047" xlink:href="#DejaVuSans-57"/>
     <use x="377.246094" xlink:href="#DejaVuSans-44"/>
     <use x="409.033203" xlink:href="#DejaVuSans-32"/>
     <use x="440.820312" xlink:href="#DejaVuSans-104"/>
     <use x="504.199219" xlink:href="#DejaVuSans-118"/>
     <use x="560.753906" xlink:href="#DejaVuSans-45"/>
     <use x="596.837891" xlink:href="#DejaVuSans-104"/>
     <use x="660.216797" xlink:href="#DejaVuSans-97"/>
     <use x="721.496094" xlink:href="#DejaVuSans-115"/>
     <use x="773.595703" xlink:href="#DejaVuSans-104"/>
     <use x="836.974609" xlink:href="#DejaVuSans-61"/>
     <use x="920.763672" xlink:href="#DejaVuSans-102"/>
     <use x="955.96875" xlink:href="#DejaVuSans-102"/>
     <use x="991.173828" xlink:href="#DejaVuSans-48"/>
     <use x="1054.796875" xlink:href="#DejaVuSans-101"/>
     <use x="1116.320312" xlink:href="#DejaVuSans-55"/>
     <use x="1179.943359" xlink:href="#DejaVuSans-49"/>
     <use x="1243.566406" xlink:href="#DejaVuSans-101"/>
     <use x="1305.089844" xlink:href="#DejaVuSans-56"/>
     <use x="1368.712891" xlink:href="#DejaVuSans-99"/>
     <use x="1423.693359" xlink:href="#DejaVuSans-100"/>
     <use x="1487.169922" xlink:href="#DejaVuSans-57"/>
     <use x="1550.792969" xlink:href="#DejaVuSans-55"/>
     <use x="1614.416016" xlink:href="#DejaVuSans-56"/>
     <use x="1678.039062" xlink:href="#DejaVuSans-51"/>
     <use x="1741.662109" xlink:href="#DejaVuSans-55"/>
     <use x="1805.285156" xlink:href="#DejaVuSans-51"/>
    </g>
   </g>
   <g id="text_19">
    <!-- 34 Rosenbrock/Gallagher 101 -->
    <g transform="translate(50.136187 21.648)scale(0.2 -0.2)">
     <defs>
      <path d="M 44.390625 34.1875 
Q 47.5625 33.109375 50.5625 29.59375 
Q 53.5625 26.078125 56.59375 19.921875 
L 66.609375 0 
L 56 0 
L 46.6875 18.703125 
Q 43.0625 26.03125 39.671875 28.421875 
Q 36.28125 30.8125 30.421875 30.8125 
L 19.671875 30.8125 
L 19.671875 0 
L 9.8125 0 
L 9.8125 72.90625 
L 32.078125 72.90625 
Q 44.578125 72.90625 50.734375 67.671875 
Q 56.890625 62.453125 56.890625 51.90625 
Q 56.890625 45.015625 53.6875 40.46875 
Q 50.484375 35.9375 44.390625 34.1875 
z
M 19.671875 64.796875 
L 19.671875 38.921875 
L 32.078125 38.921875 
Q 39.203125 38.921875 42.84375 42.21875 
Q 46.484375 45.515625 46.484375 51.90625 
Q 46.484375 58.296875 42.84375 61.546875 
Q 39.203125 64.796875 32.078125 64.796875 
z
" id="DejaVuSans-82"/>
      <path d="M 9.078125 75.984375 
L 18.109375 75.984375 
L 18.109375 31.109375 
L 44.921875 54.6875 
L 56.390625 54.6875 
L 27.390625 29.109375 
L 57.625 0 
L 45.90625 0 
L 18.109375 26.703125 
L 18.109375 0 
L 9.078125 0 
z
" id="DejaVuSans-107"/>
     </defs>
     <use xlink:href="#DejaVuSans-51"/>
     <use x="63.623047" xlink:href="#DejaVuSans-52"/>
     <use x="127.246094" xlink:href="#DejaVuSans-32"/>
     <use x="159.033203" xlink:href="#DejaVuSans-82"/>
     <use x="224.015625" xlink:href="#DejaVuSans-111"/>
     <use x="285.197266" xlink:href="#DejaVuSans-115"/>
     <use x="337.296875" xlink:href="#DejaVuSans-101"/>
     <use x="398.820312" xlink:href="#DejaVuSans-110"/>
     <use x="462.199219" xlink:href="#DejaVuSans-98"/>
     <use x="525.675781" xlink:href="#DejaVuSans-114"/>
     <use x="564.539062" xlink:href="#DejaVuSans-111"/>
     <use x="625.720703" xlink:href="#DejaVuSans-99"/>
     <use x="680.701172" xlink:href="#DejaVuSans-107"/>
     <use x="738.611328" xlink:href="#DejaVuSans-47"/>
     <use x="772.302734" xlink:href="#DejaVuSans-71"/>
     <use x="849.792969" xlink:href="#DejaVuSans-97"/>
     <use x="911.072266" xlink:href="#DejaVuSans-108"/>
     <use x="938.855469" xlink:href="#DejaVuSans-108"/>
     <use x="966.638672" xlink:href="#DejaVuSans-97"/>
     <use x="1027.917969" xlink:href="#DejaVuSans-103"/>
     <use x="1091.394531" xlink:href="#DejaVuSans-104"/>
     <use x="1154.773438" xlink:href="#DejaVuSans-101"/>
     <use x="1216.296875" xlink:href="#DejaVuSans-114"/>
     <use x="1257.410156" xlink:href="#DejaVuSans-32"/>
     <use x="1289.197266" xlink:href="#DejaVuSans-49"/>
     <use x="1352.820312" xlink:href="#DejaVuSans-48"/>
     <use x="1416.443359" xlink:href="#DejaVuSans-49"/>
    </g>
   </g>
  </g>
 </g>
 <defs>
  <clipPath id="p35ac29d782">
   <rect height="271.296" width="281.088" x="57.6" y="27.648"/>
  </clipPath>
 </defs>
</svg>
