<?xml version="1.0" encoding="utf-8" standalone="no"?>
<!DOCTYPE svg PUBLIC "-//W3C//DTD SVG 1.1//EN"
  "http://www.w3.org/Graphics/SVG/1.1/DTD/svg11.dtd">
<!-- Created with matplotlib (https://matplotlib.org/) -->
<svg height="345.6pt" version="1.1" viewBox="0 0 460.8 345.6" width="460.8pt" xmlns="http://www.w3.org/2000/svg" xmlns:xlink="http://www.w3.org/1999/xlink">
 <metadata>
  <rdf:RDF xmlns:cc="http://creativecommons.org/ns#" xmlns:dc="http://purl.org/dc/elements/1.1/" xmlns:rdf="http://www.w3.org/1999/02/22-rdf-syntax-ns#">
   <cc:Work>
    <dc:type rdf:resource="http://purl.org/dc/dcmitype/StillImage"/>
    <dc:date>2021-04-26T15:04:57.537483</dc:date>
    <dc:format>image/svg+xml</dc:format>
    <dc:creator>
     <cc:Agent>
      <dc:title>Matplotlib v3.3.2, https://matplotlib.org/</dc:title>
     </cc:Agent>
    </dc:creator>
   </cc:Work>
  </rdf:RDF>
 </metadata>
 <defs>
  <style type="text/css">*{stroke-linecap:butt;stroke-linejoin:round;}</style>
 </defs>
 <g id="figure_1">
  <g id="patch_1">
   <path d="M 0 345.6 
L 460.8 345.6 
L 460.8 0 
L 0 0 
z
" style="fill:#ffffff;"/>
  </g>
  <g id="axes_1">
   <g id="patch_2">
    <path d="M 57.6 298.944 
L 338.688 298.944 
L 338.688 27.648 
L 57.6 27.648 
z
" style="fill:#ffffff;"/>
   </g>
   <g id="line2d_1">
    <path d="M 76.759008 298.944 
L 76.759008 294.312795 
L 86.792945 294.312795 
L 86.792945 285.050384 
L 92.34655 285.050384 
L 92.34655 275.787974 
L 98.32726 275.787974 
L 98.32726 271.156769 
L 107.680028 271.156769 
L 107.680028 257.263153 
L 114.418861 257.263153 
L 114.418861 248.000743 
L 123.327293 248.000743 
L 123.327293 243.369538 
L 130.127931 243.369538 
L 130.127931 234.107127 
L 133.277185 234.107127 
L 133.277185 220.213512 
L 140.195896 220.213512 
L 140.195896 210.951101 
L 148.031773 210.951101 
L 148.031773 201.688691 
L 158.67908 201.688691 
L 158.67908 192.426281 
L 164.333587 192.426281 
L 164.333587 187.795075 
L 171.46837 187.795075 
L 171.46837 173.90146 
L 175.422519 173.90146 
L 175.422519 169.270255 
L 178.994487 169.270255 
L 178.994487 155.376639 
L 189.345213 155.376639 
L 189.345213 146.114229 
L 195.031167 146.114229 
L 195.031167 141.483024 
L 203.755803 141.483024 
L 203.755803 127.589408 
L 211.236806 127.589408 
L 211.236806 122.958203 
L 214.847146 122.958203 
L 214.847146 109.064587 
L 219.834639 109.064587 
L 219.834639 99.802177 
L 224.688682 99.802177 
L 224.688682 90.539766 
L 231.085112 90.539766 
L 231.085112 85.908561 
L 235.260932 85.908561 
L 235.260932 76.646151 
L 240.060029 76.646151 
L 240.060029 62.752535 
L 338.688 62.752535 
" style="fill:none;stroke:#f5deb3;stroke-linecap:square;stroke-width:4;"/>
   </g>
   <g id="line2d_2">
    <defs>
     <path d="M 0 7.778175 
L 7.778175 0 
L 0 -7.778175 
L -7.778175 0 
z
" id="m4071ac5a92" style="stroke:#f5deb3;stroke-linejoin:miter;stroke-width:1.5;"/>
    </defs>
    <g>
     <use style="fill:#f5deb3;stroke:#f5deb3;stroke-linejoin:miter;stroke-width:1.5;" x="133.277185" xlink:href="#m4071ac5a92" y="220.213512"/>
     <use style="fill:#f5deb3;stroke:#f5deb3;stroke-linejoin:miter;stroke-width:1.5;" x="195.031167" xlink:href="#m4071ac5a92" y="141.483024"/>
     <use style="fill:#f5deb3;stroke:#f5deb3;stroke-linejoin:miter;stroke-width:1.5;" x="240.060029" xlink:href="#m4071ac5a92" y="76.646151"/>
     <use style="fill:#f5deb3;stroke:#f5deb3;stroke-linejoin:miter;stroke-width:1.5;" x="240.060029" xlink:href="#m4071ac5a92" y="62.752535"/>
     <use style="fill:#f5deb3;stroke:#f5deb3;stroke-linejoin:miter;stroke-width:1.5;" x="338.688" xlink:href="#m4071ac5a92" y="62.752535"/>
    </g>
   </g>
   <g id="line2d_3">
    <path style="fill:none;stroke:#f5deb3;stroke-linecap:square;stroke-width:4;"/>
    <g/>
   </g>
   <g id="line2d_4">
    <path d="M 338.688 62.752535 
L 369.60768 35.706297 
" style="fill:none;stroke:#f5deb3;stroke-linecap:square;stroke-width:4;"/>
    <g>
     <use style="fill:#f5deb3;stroke:#f5deb3;stroke-linejoin:miter;stroke-width:1.5;" x="338.688" xlink:href="#m4071ac5a92" y="62.752535"/>
     <use style="fill:#f5deb3;stroke:#f5deb3;stroke-linejoin:miter;stroke-width:1.5;" x="369.60768" xlink:href="#m4071ac5a92" y="35.706297"/>
    </g>
   </g>
   <g id="matplotlib.axis_1">
    <g id="xtick_1">
     <g id="line2d_5">
      <path clip-path="url(#p7648323e20)" d="M 57.6 298.944 
L 57.6 27.648 
" style="fill:none;stroke:#b0b0b0;stroke-linecap:square;stroke-width:0.8;"/>
     </g>
     <g id="line2d_6">
      <defs>
       <path d="M 0 0 
L 0 3.5 
" id="m8fe5460712" style="stroke:#000000;stroke-width:0.8;"/>
      </defs>
      <g>
       <use style="stroke:#000000;stroke-width:0.8;" x="57.6" xlink:href="#m8fe5460712" y="298.944"/>
      </g>
     </g>
     <g id="text_1">
      <!-- 0 -->
      <g transform="translate(51.2375 321.140875)scale(0.2 -0.2)">
       <defs>
        <path d="M 31.78125 66.40625 
Q 24.171875 66.40625 20.328125 58.90625 
Q 16.5 51.421875 16.5 36.375 
Q 16.5 21.390625 20.328125 13.890625 
Q 24.171875 6.390625 31.78125 6.390625 
Q 39.453125 6.390625 43.28125 13.890625 
Q 47.125 21.390625 47.125 36.375 
Q 47.125 51.421875 43.28125 58.90625 
Q 39.453125 66.40625 31.78125 66.40625 
z
M 31.78125 74.21875 
Q 44.046875 74.21875 50.515625 64.515625 
Q 56.984375 54.828125 56.984375 36.375 
Q 56.984375 17.96875 50.515625 8.265625 
Q 44.046875 -1.421875 31.78125 -1.421875 
Q 19.53125 -1.421875 13.0625 8.265625 
Q 6.59375 17.96875 6.59375 36.375 
Q 6.59375 54.828125 13.0625 64.515625 
Q 19.53125 74.21875 31.78125 74.21875 
z
" id="DejaVuSans-48"/>
       </defs>
       <use xlink:href="#DejaVuSans-48"/>
      </g>
     </g>
    </g>
    <g id="xtick_2">
     <g id="line2d_7">
      <path clip-path="url(#p7648323e20)" d="M 137.910857 298.944 
L 137.910857 27.648 
" style="fill:none;stroke:#b0b0b0;stroke-linecap:square;stroke-width:0.8;"/>
     </g>
     <g id="line2d_8">
      <g>
       <use style="stroke:#000000;stroke-width:0.8;" x="137.910857" xlink:href="#m8fe5460712" y="298.944"/>
      </g>
     </g>
     <g id="text_2">
      <!-- 2 -->
      <g transform="translate(131.548357 321.140875)scale(0.2 -0.2)">
       <defs>
        <path d="M 19.1875 8.296875 
L 53.609375 8.296875 
L 53.609375 0 
L 7.328125 0 
L 7.328125 8.296875 
Q 12.9375 14.109375 22.625 23.890625 
Q 32.328125 33.6875 34.8125 36.53125 
Q 39.546875 41.84375 41.421875 45.53125 
Q 43.3125 49.21875 43.3125 52.78125 
Q 43.3125 58.59375 39.234375 62.25 
Q 35.15625 65.921875 28.609375 65.921875 
Q 23.96875 65.921875 18.8125 64.3125 
Q 13.671875 62.703125 7.8125 59.421875 
L 7.8125 69.390625 
Q 13.765625 71.78125 18.9375 73 
Q 24.125 74.21875 28.421875 74.21875 
Q 39.75 74.21875 46.484375 68.546875 
Q 53.21875 62.890625 53.21875 53.421875 
Q 53.21875 48.921875 51.53125 44.890625 
Q 49.859375 40.875 45.40625 35.40625 
Q 44.1875 33.984375 37.640625 27.21875 
Q 31.109375 20.453125 19.1875 8.296875 
z
" id="DejaVuSans-50"/>
       </defs>
       <use xlink:href="#DejaVuSans-50"/>
      </g>
     </g>
    </g>
    <g id="xtick_3">
     <g id="line2d_9">
      <path clip-path="url(#p7648323e20)" d="M 218.221714 298.944 
L 218.221714 27.648 
" style="fill:none;stroke:#b0b0b0;stroke-linecap:square;stroke-width:0.8;"/>
     </g>
     <g id="line2d_10">
      <g>
       <use style="stroke:#000000;stroke-width:0.8;" x="218.221714" xlink:href="#m8fe5460712" y="298.944"/>
      </g>
     </g>
     <g id="text_3">
      <!-- 4 -->
      <g transform="translate(211.859214 321.140875)scale(0.2 -0.2)">
       <defs>
        <path d="M 37.796875 64.3125 
L 12.890625 25.390625 
L 37.796875 25.390625 
z
M 35.203125 72.90625 
L 47.609375 72.90625 
L 47.609375 25.390625 
L 58.015625 25.390625 
L 58.015625 17.1875 
L 47.609375 17.1875 
L 47.609375 0 
L 37.796875 0 
L 37.796875 17.1875 
L 4.890625 17.1875 
L 4.890625 26.703125 
z
" id="DejaVuSans-52"/>
       </defs>
       <use xlink:href="#DejaVuSans-52"/>
      </g>
     </g>
    </g>
    <g id="xtick_4">
     <g id="line2d_11">
      <path clip-path="url(#p7648323e20)" d="M 298.532571 298.944 
L 298.532571 27.648 
" style="fill:none;stroke:#b0b0b0;stroke-linecap:square;stroke-width:0.8;"/>
     </g>
     <g id="line2d_12">
      <g>
       <use style="stroke:#000000;stroke-width:0.8;" x="298.532571" xlink:href="#m8fe5460712" y="298.944"/>
      </g>
     </g>
     <g id="text_4">
      <!-- 6 -->
      <g transform="translate(292.170071 321.140875)scale(0.2 -0.2)">
       <defs>
        <path d="M 33.015625 40.375 
Q 26.375 40.375 22.484375 35.828125 
Q 18.609375 31.296875 18.609375 23.390625 
Q 18.609375 15.53125 22.484375 10.953125 
Q 26.375 6.390625 33.015625 6.390625 
Q 39.65625 6.390625 43.53125 10.953125 
Q 47.40625 15.53125 47.40625 23.390625 
Q 47.40625 31.296875 43.53125 35.828125 
Q 39.65625 40.375 33.015625 40.375 
z
M 52.59375 71.296875 
L 52.59375 62.3125 
Q 48.875 64.0625 45.09375 64.984375 
Q 41.3125 65.921875 37.59375 65.921875 
Q 27.828125 65.921875 22.671875 59.328125 
Q 17.53125 52.734375 16.796875 39.40625 
Q 19.671875 43.65625 24.015625 45.921875 
Q 28.375 48.1875 33.59375 48.1875 
Q 44.578125 48.1875 50.953125 41.515625 
Q 57.328125 34.859375 57.328125 23.390625 
Q 57.328125 12.15625 50.6875 5.359375 
Q 44.046875 -1.421875 33.015625 -1.421875 
Q 20.359375 -1.421875 13.671875 8.265625 
Q 6.984375 17.96875 6.984375 36.375 
Q 6.984375 53.65625 15.1875 63.9375 
Q 23.390625 74.21875 37.203125 74.21875 
Q 40.921875 74.21875 44.703125 73.484375 
Q 48.484375 72.75 52.59375 71.296875 
z
" id="DejaVuSans-54"/>
       </defs>
       <use xlink:href="#DejaVuSans-54"/>
      </g>
     </g>
    </g>
    <g id="xtick_5">
     <g id="line2d_13">
      <path clip-path="url(#p7648323e20)" d="M 97.755429 298.944 
L 97.755429 27.648 
" style="fill:none;stroke:#b0b0b0;stroke-linecap:square;stroke-width:0.8;"/>
     </g>
     <g id="line2d_14">
      <defs>
       <path d="M 0 0 
L 0 2 
" id="m89f3e2143b" style="stroke:#000000;stroke-width:0.6;"/>
      </defs>
      <g>
       <use style="stroke:#000000;stroke-width:0.6;" x="97.755429" xlink:href="#m89f3e2143b" y="298.944"/>
      </g>
     </g>
    </g>
    <g id="xtick_6">
     <g id="line2d_15">
      <path clip-path="url(#p7648323e20)" d="M 178.066286 298.944 
L 178.066286 27.648 
" style="fill:none;stroke:#b0b0b0;stroke-linecap:square;stroke-width:0.8;"/>
     </g>
     <g id="line2d_16">
      <g>
       <use style="stroke:#000000;stroke-width:0.6;" x="178.066286" xlink:href="#m89f3e2143b" y="298.944"/>
      </g>
     </g>
    </g>
    <g id="xtick_7">
     <g id="line2d_17">
      <path clip-path="url(#p7648323e20)" d="M 258.377143 298.944 
L 258.377143 27.648 
" style="fill:none;stroke:#b0b0b0;stroke-linecap:square;stroke-width:0.8;"/>
     </g>
     <g id="line2d_18">
      <g>
       <use style="stroke:#000000;stroke-width:0.6;" x="258.377143" xlink:href="#m89f3e2143b" y="298.944"/>
      </g>
     </g>
    </g>
    <g id="xtick_8">
     <g id="line2d_19">
      <path clip-path="url(#p7648323e20)" d="M 338.688 298.944 
L 338.688 27.648 
" style="fill:none;stroke:#b0b0b0;stroke-linecap:square;stroke-width:0.8;"/>
     </g>
     <g id="line2d_20">
      <g>
       <use style="stroke:#000000;stroke-width:0.6;" x="338.688" xlink:href="#m89f3e2143b" y="298.944"/>
      </g>
     </g>
    </g>
    <g id="text_5">
     <!-- log10(# f-evals / dimension) -->
     <g transform="translate(77.764078 342.217594)scale(0.17 -0.17)">
      <defs>
       <path d="M 9.421875 75.984375 
L 18.40625 75.984375 
L 18.40625 0 
L 9.421875 0 
z
" id="DejaVuSans-108"/>
       <path d="M 30.609375 48.390625 
Q 23.390625 48.390625 19.1875 42.75 
Q 14.984375 37.109375 14.984375 27.296875 
Q 14.984375 17.484375 19.15625 11.84375 
Q 23.34375 6.203125 30.609375 6.203125 
Q 37.796875 6.203125 41.984375 11.859375 
Q 46.1875 17.53125 46.1875 27.296875 
Q 46.1875 37.015625 41.984375 42.703125 
Q 37.796875 48.390625 30.609375 48.390625 
z
M 30.609375 56 
Q 42.328125 56 49.015625 48.375 
Q 55.71875 40.765625 55.71875 27.296875 
Q 55.71875 13.875 49.015625 6.21875 
Q 42.328125 -1.421875 30.609375 -1.421875 
Q 18.84375 -1.421875 12.171875 6.21875 
Q 5.515625 13.875 5.515625 27.296875 
Q 5.515625 40.765625 12.171875 48.375 
Q 18.84375 56 30.609375 56 
z
" id="DejaVuSans-111"/>
       <path d="M 45.40625 27.984375 
Q 45.40625 37.75 41.375 43.109375 
Q 37.359375 48.484375 30.078125 48.484375 
Q 22.859375 48.484375 18.828125 43.109375 
Q 14.796875 37.75 14.796875 27.984375 
Q 14.796875 18.265625 18.828125 12.890625 
Q 22.859375 7.515625 30.078125 7.515625 
Q 37.359375 7.515625 41.375 12.890625 
Q 45.40625 18.265625 45.40625 27.984375 
z
M 54.390625 6.78125 
Q 54.390625 -7.171875 48.1875 -13.984375 
Q 42 -20.796875 29.203125 -20.796875 
Q 24.46875 -20.796875 20.265625 -20.09375 
Q 16.0625 -19.390625 12.109375 -17.921875 
L 12.109375 -9.1875 
Q 16.0625 -11.328125 19.921875 -12.34375 
Q 23.78125 -13.375 27.78125 -13.375 
Q 36.625 -13.375 41.015625 -8.765625 
Q 45.40625 -4.15625 45.40625 5.171875 
L 45.40625 9.625 
Q 42.625 4.78125 38.28125 2.390625 
Q 33.9375 0 27.875 0 
Q 17.828125 0 11.671875 7.65625 
Q 5.515625 15.328125 5.515625 27.984375 
Q 5.515625 40.671875 11.671875 48.328125 
Q 17.828125 56 27.875 56 
Q 33.9375 56 38.28125 53.609375 
Q 42.625 51.21875 45.40625 46.390625 
L 45.40625 54.6875 
L 54.390625 54.6875 
z
" id="DejaVuSans-103"/>
       <path d="M 12.40625 8.296875 
L 28.515625 8.296875 
L 28.515625 63.921875 
L 10.984375 60.40625 
L 10.984375 69.390625 
L 28.421875 72.90625 
L 38.28125 72.90625 
L 38.28125 8.296875 
L 54.390625 8.296875 
L 54.390625 0 
L 12.40625 0 
z
" id="DejaVuSans-49"/>
       <path d="M 31 75.875 
Q 24.46875 64.65625 21.28125 53.65625 
Q 18.109375 42.671875 18.109375 31.390625 
Q 18.109375 20.125 21.3125 9.0625 
Q 24.515625 -2 31 -13.1875 
L 23.1875 -13.1875 
Q 15.875 -1.703125 12.234375 9.375 
Q 8.59375 20.453125 8.59375 31.390625 
Q 8.59375 42.28125 12.203125 53.3125 
Q 15.828125 64.359375 23.1875 75.875 
z
" id="DejaVuSans-40"/>
       <path d="M 51.125 44 
L 36.921875 44 
L 32.8125 27.6875 
L 47.125 27.6875 
z
M 43.796875 71.78125 
L 38.71875 51.515625 
L 52.984375 51.515625 
L 58.109375 71.78125 
L 65.921875 71.78125 
L 60.890625 51.515625 
L 76.125 51.515625 
L 76.125 44 
L 58.984375 44 
L 54.984375 27.6875 
L 70.515625 27.6875 
L 70.515625 20.21875 
L 53.078125 20.21875 
L 48 0 
L 40.1875 0 
L 45.21875 20.21875 
L 30.90625 20.21875 
L 25.875 0 
L 18.015625 0 
L 23.09375 20.21875 
L 7.71875 20.21875 
L 7.71875 27.6875 
L 24.90625 27.6875 
L 29 44 
L 13.28125 44 
L 13.28125 51.515625 
L 30.90625 51.515625 
L 35.890625 71.78125 
z
" id="DejaVuSans-35"/>
       <path id="DejaVuSans-32"/>
       <path d="M 37.109375 75.984375 
L 37.109375 68.5 
L 28.515625 68.5 
Q 23.6875 68.5 21.796875 66.546875 
Q 19.921875 64.59375 19.921875 59.515625 
L 19.921875 54.6875 
L 34.71875 54.6875 
L 34.71875 47.703125 
L 19.921875 47.703125 
L 19.921875 0 
L 10.890625 0 
L 10.890625 47.703125 
L 2.296875 47.703125 
L 2.296875 54.6875 
L 10.890625 54.6875 
L 10.890625 58.5 
Q 10.890625 67.625 15.140625 71.796875 
Q 19.390625 75.984375 28.609375 75.984375 
z
" id="DejaVuSans-102"/>
       <path d="M 4.890625 31.390625 
L 31.203125 31.390625 
L 31.203125 23.390625 
L 4.890625 23.390625 
z
" id="DejaVuSans-45"/>
       <path d="M 56.203125 29.59375 
L 56.203125 25.203125 
L 14.890625 25.203125 
Q 15.484375 15.921875 20.484375 11.0625 
Q 25.484375 6.203125 34.421875 6.203125 
Q 39.59375 6.203125 44.453125 7.46875 
Q 49.3125 8.734375 54.109375 11.28125 
L 54.109375 2.78125 
Q 49.265625 0.734375 44.1875 -0.34375 
Q 39.109375 -1.421875 33.890625 -1.421875 
Q 20.796875 -1.421875 13.15625 6.1875 
Q 5.515625 13.8125 5.515625 26.8125 
Q 5.515625 40.234375 12.765625 48.109375 
Q 20.015625 56 32.328125 56 
Q 43.359375 56 49.78125 48.890625 
Q 56.203125 41.796875 56.203125 29.59375 
z
M 47.21875 32.234375 
Q 47.125 39.59375 43.09375 43.984375 
Q 39.0625 48.390625 32.421875 48.390625 
Q 24.90625 48.390625 20.390625 44.140625 
Q 15.875 39.890625 15.1875 32.171875 
z
" id="DejaVuSans-101"/>
       <path d="M 2.984375 54.6875 
L 12.5 54.6875 
L 29.59375 8.796875 
L 46.6875 54.6875 
L 56.203125 54.6875 
L 35.6875 0 
L 23.484375 0 
z
" id="DejaVuSans-118"/>
       <path d="M 34.28125 27.484375 
Q 23.390625 27.484375 19.1875 25 
Q 14.984375 22.515625 14.984375 16.5 
Q 14.984375 11.71875 18.140625 8.90625 
Q 21.296875 6.109375 26.703125 6.109375 
Q 34.1875 6.109375 38.703125 11.40625 
Q 43.21875 16.703125 43.21875 25.484375 
L 43.21875 27.484375 
z
M 52.203125 31.203125 
L 52.203125 0 
L 43.21875 0 
L 43.21875 8.296875 
Q 40.140625 3.328125 35.546875 0.953125 
Q 30.953125 -1.421875 24.3125 -1.421875 
Q 15.921875 -1.421875 10.953125 3.296875 
Q 6 8.015625 6 15.921875 
Q 6 25.140625 12.171875 29.828125 
Q 18.359375 34.515625 30.609375 34.515625 
L 43.21875 34.515625 
L 43.21875 35.40625 
Q 43.21875 41.609375 39.140625 45 
Q 35.0625 48.390625 27.6875 48.390625 
Q 23 48.390625 18.546875 47.265625 
Q 14.109375 46.140625 10.015625 43.890625 
L 10.015625 52.203125 
Q 14.9375 54.109375 19.578125 55.046875 
Q 24.21875 56 28.609375 56 
Q 40.484375 56 46.34375 49.84375 
Q 52.203125 43.703125 52.203125 31.203125 
z
" id="DejaVuSans-97"/>
       <path d="M 44.28125 53.078125 
L 44.28125 44.578125 
Q 40.484375 46.53125 36.375 47.5 
Q 32.28125 48.484375 27.875 48.484375 
Q 21.1875 48.484375 17.84375 46.4375 
Q 14.5 44.390625 14.5 40.28125 
Q 14.5 37.15625 16.890625 35.375 
Q 19.28125 33.59375 26.515625 31.984375 
L 29.59375 31.296875 
Q 39.15625 29.25 43.1875 25.515625 
Q 47.21875 21.78125 47.21875 15.09375 
Q 47.21875 7.46875 41.1875 3.015625 
Q 35.15625 -1.421875 24.609375 -1.421875 
Q 20.21875 -1.421875 15.453125 -0.5625 
Q 10.6875 0.296875 5.421875 2 
L 5.421875 11.28125 
Q 10.40625 8.6875 15.234375 7.390625 
Q 20.0625 6.109375 24.8125 6.109375 
Q 31.15625 6.109375 34.5625 8.28125 
Q 37.984375 10.453125 37.984375 14.40625 
Q 37.984375 18.0625 35.515625 20.015625 
Q 33.0625 21.96875 24.703125 23.78125 
L 21.578125 24.515625 
Q 13.234375 26.265625 9.515625 29.90625 
Q 5.8125 33.546875 5.8125 39.890625 
Q 5.8125 47.609375 11.28125 51.796875 
Q 16.75 56 26.8125 56 
Q 31.78125 56 36.171875 55.265625 
Q 40.578125 54.546875 44.28125 53.078125 
z
" id="DejaVuSans-115"/>
       <path d="M 25.390625 72.90625 
L 33.6875 72.90625 
L 8.296875 -9.28125 
L 0 -9.28125 
z
" id="DejaVuSans-47"/>
       <path d="M 45.40625 46.390625 
L 45.40625 75.984375 
L 54.390625 75.984375 
L 54.390625 0 
L 45.40625 0 
L 45.40625 8.203125 
Q 42.578125 3.328125 38.25 0.953125 
Q 33.9375 -1.421875 27.875 -1.421875 
Q 17.96875 -1.421875 11.734375 6.484375 
Q 5.515625 14.40625 5.515625 27.296875 
Q 5.515625 40.1875 11.734375 48.09375 
Q 17.96875 56 27.875 56 
Q 33.9375 56 38.25 53.625 
Q 42.578125 51.265625 45.40625 46.390625 
z
M 14.796875 27.296875 
Q 14.796875 17.390625 18.875 11.75 
Q 22.953125 6.109375 30.078125 6.109375 
Q 37.203125 6.109375 41.296875 11.75 
Q 45.40625 17.390625 45.40625 27.296875 
Q 45.40625 37.203125 41.296875 42.84375 
Q 37.203125 48.484375 30.078125 48.484375 
Q 22.953125 48.484375 18.875 42.84375 
Q 14.796875 37.203125 14.796875 27.296875 
z
" id="DejaVuSans-100"/>
       <path d="M 9.421875 54.6875 
L 18.40625 54.6875 
L 18.40625 0 
L 9.421875 0 
z
M 9.421875 75.984375 
L 18.40625 75.984375 
L 18.40625 64.59375 
L 9.421875 64.59375 
z
" id="DejaVuSans-105"/>
       <path d="M 52 44.1875 
Q 55.375 50.25 60.0625 53.125 
Q 64.75 56 71.09375 56 
Q 79.640625 56 84.28125 50.015625 
Q 88.921875 44.046875 88.921875 33.015625 
L 88.921875 0 
L 79.890625 0 
L 79.890625 32.71875 
Q 79.890625 40.578125 77.09375 44.375 
Q 74.3125 48.1875 68.609375 48.1875 
Q 61.625 48.1875 57.5625 43.546875 
Q 53.515625 38.921875 53.515625 30.90625 
L 53.515625 0 
L 44.484375 0 
L 44.484375 32.71875 
Q 44.484375 40.625 41.703125 44.40625 
Q 38.921875 48.1875 33.109375 48.1875 
Q 26.21875 48.1875 22.15625 43.53125 
Q 18.109375 38.875 18.109375 30.90625 
L 18.109375 0 
L 9.078125 0 
L 9.078125 54.6875 
L 18.109375 54.6875 
L 18.109375 46.1875 
Q 21.1875 51.21875 25.484375 53.609375 
Q 29.78125 56 35.6875 56 
Q 41.65625 56 45.828125 52.96875 
Q 50 49.953125 52 44.1875 
z
" id="DejaVuSans-109"/>
       <path d="M 54.890625 33.015625 
L 54.890625 0 
L 45.90625 0 
L 45.90625 32.71875 
Q 45.90625 40.484375 42.875 44.328125 
Q 39.84375 48.1875 33.796875 48.1875 
Q 26.515625 48.1875 22.3125 43.546875 
Q 18.109375 38.921875 18.109375 30.90625 
L 18.109375 0 
L 9.078125 0 
L 9.078125 54.6875 
L 18.109375 54.6875 
L 18.109375 46.1875 
Q 21.34375 51.125 25.703125 53.5625 
Q 30.078125 56 35.796875 56 
Q 45.21875 56 50.046875 50.171875 
Q 54.890625 44.34375 54.890625 33.015625 
z
" id="DejaVuSans-110"/>
       <path d="M 8.015625 75.875 
L 15.828125 75.875 
Q 23.140625 64.359375 26.78125 53.3125 
Q 30.421875 42.28125 30.421875 31.390625 
Q 30.421875 20.453125 26.78125 9.375 
Q 23.140625 -1.703125 15.828125 -13.1875 
L 8.015625 -13.1875 
Q 14.5 -2 17.703125 9.0625 
Q 20.90625 20.125 20.90625 31.390625 
Q 20.90625 42.671875 17.703125 53.65625 
Q 14.5 64.65625 8.015625 75.875 
z
" id="DejaVuSans-41"/>
      </defs>
      <use xlink:href="#DejaVuSans-108"/>
      <use x="27.783203" xlink:href="#DejaVuSans-111"/>
      <use x="88.964844" xlink:href="#DejaVuSans-103"/>
      <use x="152.441406" xlink:href="#DejaVuSans-49"/>
      <use x="216.064453" xlink:href="#DejaVuSans-48"/>
      <use x="279.6875" xlink:href="#DejaVuSans-40"/>
      <use x="318.701172" xlink:href="#DejaVuSans-35"/>
      <use x="402.490234" xlink:href="#DejaVuSans-32"/>
      <use x="434.277344" xlink:href="#DejaVuSans-102"/>
      <use x="463.982422" xlink:href="#DejaVuSans-45"/>
      <use x="500.066406" xlink:href="#DejaVuSans-101"/>
      <use x="561.589844" xlink:href="#DejaVuSans-118"/>
      <use x="620.769531" xlink:href="#DejaVuSans-97"/>
      <use x="682.048828" xlink:href="#DejaVuSans-108"/>
      <use x="709.832031" xlink:href="#DejaVuSans-115"/>
      <use x="761.931641" xlink:href="#DejaVuSans-32"/>
      <use x="793.71875" xlink:href="#DejaVuSans-47"/>
      <use x="827.410156" xlink:href="#DejaVuSans-32"/>
      <use x="859.197266" xlink:href="#DejaVuSans-100"/>
      <use x="922.673828" xlink:href="#DejaVuSans-105"/>
      <use x="950.457031" xlink:href="#DejaVuSans-109"/>
      <use x="1047.869141" xlink:href="#DejaVuSans-101"/>
      <use x="1109.392578" xlink:href="#DejaVuSans-110"/>
      <use x="1172.771484" xlink:href="#DejaVuSans-115"/>
      <use x="1224.871094" xlink:href="#DejaVuSans-105"/>
      <use x="1252.654297" xlink:href="#DejaVuSans-111"/>
      <use x="1313.835938" xlink:href="#DejaVuSans-110"/>
      <use x="1377.214844" xlink:href="#DejaVuSans-41"/>
     </g>
    </g>
   </g>
   <g id="matplotlib.axis_2">
    <g id="ytick_1">
     <g id="line2d_21">
      <path clip-path="url(#p7648323e20)" d="M 57.6 298.944 
L 338.688 298.944 
" style="fill:none;stroke:#b0b0b0;stroke-linecap:square;stroke-width:0.8;"/>
     </g>
     <g id="line2d_22">
      <defs>
       <path d="M 0 0 
L -3.5 0 
" id="m5a90742161" style="stroke:#000000;stroke-width:0.8;"/>
      </defs>
      <g>
       <use style="stroke:#000000;stroke-width:0.8;" x="57.6" xlink:href="#m5a90742161" y="298.944"/>
      </g>
     </g>
     <g id="text_6">
      <!-- 0.0 -->
      <g transform="translate(25.155 305.02275)scale(0.16 -0.16)">
       <defs>
        <path d="M 10.6875 12.40625 
L 21 12.40625 
L 21 0 
L 10.6875 0 
z
" id="DejaVuSans-46"/>
       </defs>
       <use xlink:href="#DejaVuSans-48"/>
       <use x="63.623047" xlink:href="#DejaVuSans-46"/>
       <use x="95.410156" xlink:href="#DejaVuSans-48"/>
      </g>
     </g>
    </g>
    <g id="ytick_2">
     <g id="line2d_23">
      <path clip-path="url(#p7648323e20)" d="M 57.6 245.22202 
L 338.688 245.22202 
" style="fill:none;stroke:#b0b0b0;stroke-linecap:square;stroke-width:0.8;"/>
     </g>
     <g id="line2d_24">
      <g>
       <use style="stroke:#000000;stroke-width:0.8;" x="57.6" xlink:href="#m5a90742161" y="245.22202"/>
      </g>
     </g>
     <g id="text_7">
      <!-- 0.2 -->
      <g transform="translate(25.155 251.30077)scale(0.16 -0.16)">
       <use xlink:href="#DejaVuSans-48"/>
       <use x="63.623047" xlink:href="#DejaVuSans-46"/>
       <use x="95.410156" xlink:href="#DejaVuSans-50"/>
      </g>
     </g>
    </g>
    <g id="ytick_3">
     <g id="line2d_25">
      <path clip-path="url(#p7648323e20)" d="M 57.6 191.50004 
L 338.688 191.50004 
" style="fill:none;stroke:#b0b0b0;stroke-linecap:square;stroke-width:0.8;"/>
     </g>
     <g id="line2d_26">
      <g>
       <use style="stroke:#000000;stroke-width:0.8;" x="57.6" xlink:href="#m5a90742161" y="191.50004"/>
      </g>
     </g>
     <g id="text_8">
      <!-- 0.4 -->
      <g transform="translate(25.155 197.57879)scale(0.16 -0.16)">
       <use xlink:href="#DejaVuSans-48"/>
       <use x="63.623047" xlink:href="#DejaVuSans-46"/>
       <use x="95.410156" xlink:href="#DejaVuSans-52"/>
      </g>
     </g>
    </g>
    <g id="ytick_4">
     <g id="line2d_27">
      <path clip-path="url(#p7648323e20)" d="M 57.6 137.778059 
L 338.688 137.778059 
" style="fill:none;stroke:#b0b0b0;stroke-linecap:square;stroke-width:0.8;"/>
     </g>
     <g id="line2d_28">
      <g>
       <use style="stroke:#000000;stroke-width:0.8;" x="57.6" xlink:href="#m5a90742161" y="137.778059"/>
      </g>
     </g>
     <g id="text_9">
      <!-- 0.6 -->
      <g transform="translate(25.155 143.856809)scale(0.16 -0.16)">
       <use xlink:href="#DejaVuSans-48"/>
       <use x="63.623047" xlink:href="#DejaVuSans-46"/>
       <use x="95.410156" xlink:href="#DejaVuSans-54"/>
      </g>
     </g>
    </g>
    <g id="ytick_5">
     <g id="line2d_29">
      <path clip-path="url(#p7648323e20)" d="M 57.6 84.056079 
L 338.688 84.056079 
" style="fill:none;stroke:#b0b0b0;stroke-linecap:square;stroke-width:0.8;"/>
     </g>
     <g id="line2d_30">
      <g>
       <use style="stroke:#000000;stroke-width:0.8;" x="57.6" xlink:href="#m5a90742161" y="84.056079"/>
      </g>
     </g>
     <g id="text_10">
      <!-- 0.8 -->
      <g transform="translate(25.155 90.134829)scale(0.16 -0.16)">
       <defs>
        <path d="M 31.78125 34.625 
Q 24.75 34.625 20.71875 30.859375 
Q 16.703125 27.09375 16.703125 20.515625 
Q 16.703125 13.921875 20.71875 10.15625 
Q 24.75 6.390625 31.78125 6.390625 
Q 38.8125 6.390625 42.859375 10.171875 
Q 46.921875 13.96875 46.921875 20.515625 
Q 46.921875 27.09375 42.890625 30.859375 
Q 38.875 34.625 31.78125 34.625 
z
M 21.921875 38.8125 
Q 15.578125 40.375 12.03125 44.71875 
Q 8.5 49.078125 8.5 55.328125 
Q 8.5 64.0625 14.71875 69.140625 
Q 20.953125 74.21875 31.78125 74.21875 
Q 42.671875 74.21875 48.875 69.140625 
Q 55.078125 64.0625 55.078125 55.328125 
Q 55.078125 49.078125 51.53125 44.71875 
Q 48 40.375 41.703125 38.8125 
Q 48.828125 37.15625 52.796875 32.3125 
Q 56.78125 27.484375 56.78125 20.515625 
Q 56.78125 9.90625 50.3125 4.234375 
Q 43.84375 -1.421875 31.78125 -1.421875 
Q 19.734375 -1.421875 13.25 4.234375 
Q 6.78125 9.90625 6.78125 20.515625 
Q 6.78125 27.484375 10.78125 32.3125 
Q 14.796875 37.15625 21.921875 38.8125 
z
M 18.3125 54.390625 
Q 18.3125 48.734375 21.84375 45.5625 
Q 25.390625 42.390625 31.78125 42.390625 
Q 38.140625 42.390625 41.71875 45.5625 
Q 45.3125 48.734375 45.3125 54.390625 
Q 45.3125 60.0625 41.71875 63.234375 
Q 38.140625 66.40625 31.78125 66.40625 
Q 25.390625 66.40625 21.84375 63.234375 
Q 18.3125 60.0625 18.3125 54.390625 
z
" id="DejaVuSans-56"/>
       </defs>
       <use xlink:href="#DejaVuSans-48"/>
       <use x="63.623047" xlink:href="#DejaVuSans-46"/>
       <use x="95.410156" xlink:href="#DejaVuSans-56"/>
      </g>
     </g>
    </g>
    <g id="ytick_6">
     <g id="line2d_31">
      <path clip-path="url(#p7648323e20)" d="M 57.6 30.334099 
L 338.688 30.334099 
" style="fill:none;stroke:#b0b0b0;stroke-linecap:square;stroke-width:0.8;"/>
     </g>
     <g id="line2d_32">
      <g>
       <use style="stroke:#000000;stroke-width:0.8;" x="57.6" xlink:href="#m5a90742161" y="30.334099"/>
      </g>
     </g>
     <g id="text_11">
      <!-- 1.0 -->
      <g transform="translate(25.155 36.412849)scale(0.16 -0.16)">
       <use xlink:href="#DejaVuSans-49"/>
       <use x="63.623047" xlink:href="#DejaVuSans-46"/>
       <use x="95.410156" xlink:href="#DejaVuSans-48"/>
      </g>
     </g>
    </g>
    <g id="text_12">
     <!-- Fraction of function,target pairs -->
     <g transform="translate(17.619531 297.681)rotate(-90)scale(0.17 -0.17)">
      <defs>
       <path d="M 9.8125 72.90625 
L 51.703125 72.90625 
L 51.703125 64.59375 
L 19.671875 64.59375 
L 19.671875 43.109375 
L 48.578125 43.109375 
L 48.578125 34.8125 
L 19.671875 34.8125 
L 19.671875 0 
L 9.8125 0 
z
" id="DejaVuSans-70"/>
       <path d="M 41.109375 46.296875 
Q 39.59375 47.171875 37.8125 47.578125 
Q 36.03125 48 33.890625 48 
Q 26.265625 48 22.1875 43.046875 
Q 18.109375 38.09375 18.109375 28.8125 
L 18.109375 0 
L 9.078125 0 
L 9.078125 54.6875 
L 18.109375 54.6875 
L 18.109375 46.1875 
Q 20.953125 51.171875 25.484375 53.578125 
Q 30.03125 56 36.53125 56 
Q 37.453125 56 38.578125 55.875 
Q 39.703125 55.765625 41.0625 55.515625 
z
" id="DejaVuSans-114"/>
       <path d="M 48.78125 52.59375 
L 48.78125 44.1875 
Q 44.96875 46.296875 41.140625 47.34375 
Q 37.3125 48.390625 33.40625 48.390625 
Q 24.65625 48.390625 19.8125 42.84375 
Q 14.984375 37.3125 14.984375 27.296875 
Q 14.984375 17.28125 19.8125 11.734375 
Q 24.65625 6.203125 33.40625 6.203125 
Q 37.3125 6.203125 41.140625 7.25 
Q 44.96875 8.296875 48.78125 10.40625 
L 48.78125 2.09375 
Q 45.015625 0.34375 40.984375 -0.53125 
Q 36.96875 -1.421875 32.421875 -1.421875 
Q 20.0625 -1.421875 12.78125 6.34375 
Q 5.515625 14.109375 5.515625 27.296875 
Q 5.515625 40.671875 12.859375 48.328125 
Q 20.21875 56 33.015625 56 
Q 37.15625 56 41.109375 55.140625 
Q 45.0625 54.296875 48.78125 52.59375 
z
" id="DejaVuSans-99"/>
       <path d="M 18.3125 70.21875 
L 18.3125 54.6875 
L 36.8125 54.6875 
L 36.8125 47.703125 
L 18.3125 47.703125 
L 18.3125 18.015625 
Q 18.3125 11.328125 20.140625 9.421875 
Q 21.96875 7.515625 27.59375 7.515625 
L 36.8125 7.515625 
L 36.8125 0 
L 27.59375 0 
Q 17.1875 0 13.234375 3.875 
Q 9.28125 7.765625 9.28125 18.015625 
L 9.28125 47.703125 
L 2.6875 47.703125 
L 2.6875 54.6875 
L 9.28125 54.6875 
L 9.28125 70.21875 
z
" id="DejaVuSans-116"/>
       <path d="M 8.5 21.578125 
L 8.5 54.6875 
L 17.484375 54.6875 
L 17.484375 21.921875 
Q 17.484375 14.15625 20.5 10.265625 
Q 23.53125 6.390625 29.59375 6.390625 
Q 36.859375 6.390625 41.078125 11.03125 
Q 45.3125 15.671875 45.3125 23.6875 
L 45.3125 54.6875 
L 54.296875 54.6875 
L 54.296875 0 
L 45.3125 0 
L 45.3125 8.40625 
Q 42.046875 3.421875 37.71875 1 
Q 33.40625 -1.421875 27.6875 -1.421875 
Q 18.265625 -1.421875 13.375 4.4375 
Q 8.5 10.296875 8.5 21.578125 
z
M 31.109375 56 
z
" id="DejaVuSans-117"/>
       <path d="M 11.71875 12.40625 
L 22.015625 12.40625 
L 22.015625 4 
L 14.015625 -11.625 
L 7.71875 -11.625 
L 11.71875 4 
z
" id="DejaVuSans-44"/>
       <path d="M 18.109375 8.203125 
L 18.109375 -20.796875 
L 9.078125 -20.796875 
L 9.078125 54.6875 
L 18.109375 54.6875 
L 18.109375 46.390625 
Q 20.953125 51.265625 25.265625 53.625 
Q 29.59375 56 35.59375 56 
Q 45.5625 56 51.78125 48.09375 
Q 58.015625 40.1875 58.015625 27.296875 
Q 58.015625 14.40625 51.78125 6.484375 
Q 45.5625 -1.421875 35.59375 -1.421875 
Q 29.59375 -1.421875 25.265625 0.953125 
Q 20.953125 3.328125 18.109375 8.203125 
z
M 48.6875 27.296875 
Q 48.6875 37.203125 44.609375 42.84375 
Q 40.53125 48.484375 33.40625 48.484375 
Q 26.265625 48.484375 22.1875 42.84375 
Q 18.109375 37.203125 18.109375 27.296875 
Q 18.109375 17.390625 22.1875 11.75 
Q 26.265625 6.109375 33.40625 6.109375 
Q 40.53125 6.109375 44.609375 11.75 
Q 48.6875 17.390625 48.6875 27.296875 
z
" id="DejaVuSans-112"/>
      </defs>
      <use xlink:href="#DejaVuSans-70"/>
      <use x="50.269531" xlink:href="#DejaVuSans-114"/>
      <use x="91.382812" xlink:href="#DejaVuSans-97"/>
      <use x="152.662109" xlink:href="#DejaVuSans-99"/>
      <use x="207.642578" xlink:href="#DejaVuSans-116"/>
      <use x="246.851562" xlink:href="#DejaVuSans-105"/>
      <use x="274.634766" xlink:href="#DejaVuSans-111"/>
      <use x="335.816406" xlink:href="#DejaVuSans-110"/>
      <use x="399.195312" xlink:href="#DejaVuSans-32"/>
      <use x="430.982422" xlink:href="#DejaVuSans-111"/>
      <use x="492.164062" xlink:href="#DejaVuSans-102"/>
      <use x="527.369141" xlink:href="#DejaVuSans-32"/>
      <use x="559.15625" xlink:href="#DejaVuSans-102"/>
      <use x="594.361328" xlink:href="#DejaVuSans-117"/>
      <use x="657.740234" xlink:href="#DejaVuSans-110"/>
      <use x="721.119141" xlink:href="#DejaVuSans-99"/>
      <use x="776.099609" xlink:href="#DejaVuSans-116"/>
      <use x="815.308594" xlink:href="#DejaVuSans-105"/>
      <use x="843.091797" xlink:href="#DejaVuSans-111"/>
      <use x="904.273438" xlink:href="#DejaVuSans-110"/>
      <use x="967.652344" xlink:href="#DejaVuSans-44"/>
      <use x="999.439453" xlink:href="#DejaVuSans-116"/>
      <use x="1038.648438" xlink:href="#DejaVuSans-97"/>
      <use x="1099.927734" xlink:href="#DejaVuSans-114"/>
      <use x="1139.291016" xlink:href="#DejaVuSans-103"/>
      <use x="1202.767578" xlink:href="#DejaVuSans-101"/>
      <use x="1264.291016" xlink:href="#DejaVuSans-116"/>
      <use x="1303.5" xlink:href="#DejaVuSans-32"/>
      <use x="1335.287109" xlink:href="#DejaVuSans-112"/>
      <use x="1398.763672" xlink:href="#DejaVuSans-97"/>
      <use x="1460.042969" xlink:href="#DejaVuSans-105"/>
      <use x="1487.826172" xlink:href="#DejaVuSans-114"/>
      <use x="1528.939453" xlink:href="#DejaVuSans-115"/>
     </g>
    </g>
   </g>
   <g id="line2d_33">
    <defs>
     <path d="M 0 1.5 
C 0.397805 1.5 0.77937 1.341951 1.06066 1.06066 
C 1.341951 0.77937 1.5 0.397805 1.5 0 
C 1.5 -0.397805 1.341951 -0.77937 1.06066 -1.06066 
C 0.77937 -1.341951 0.397805 -1.5 0 -1.5 
C -0.397805 -1.5 -0.77937 -1.341951 -1.06066 -1.06066 
C -1.341951 -0.77937 -1.5 -0.397805 -1.5 0 
C -1.5 0.397805 -1.341951 0.77937 -1.06066 1.06066 
C -0.77937 1.341951 -0.397805 1.5 0 1.5 
z
" id="mec988e97bc" style="stroke:#f5deb3;"/>
    </defs>
    <g>
     <use style="fill:#f5deb3;stroke:#f5deb3;" x="240.060029" xlink:href="#mec988e97bc" y="62.752535"/>
     <use style="fill:#f5deb3;stroke:#f5deb3;" x="240.060029" xlink:href="#mec988e97bc" y="62.752535"/>
    </g>
   </g>
   <g id="line2d_34">
    <defs>
     <path d="M 0 1.5 
C 0.397805 1.5 0.77937 1.341951 1.06066 1.06066 
C 1.341951 0.77937 1.5 0.397805 1.5 0 
C 1.5 -0.397805 1.341951 -0.77937 1.06066 -1.06066 
C 0.77937 -1.341951 0.397805 -1.5 0 -1.5 
C -0.397805 -1.5 -0.77937 -1.341951 -1.06066 -1.06066 
C -1.341951 -0.77937 -1.5 -0.397805 -1.5 0 
C -1.5 0.397805 -1.341951 0.77937 -1.06066 1.06066 
C -0.77937 1.341951 -0.397805 1.5 0 1.5 
z
" id="m1f20897d1f" style="stroke:#000080;"/>
    </defs>
    <g>
     <use style="fill:#000080;stroke:#000080;" x="256.91361" xlink:href="#m1f20897d1f" y="87.297923"/>
     <use style="fill:#000080;stroke:#000080;" x="256.91361" xlink:href="#m1f20897d1f" y="87.297923"/>
    </g>
   </g>
   <g id="line2d_35">
    <path d="M 38.440992 298.944 
L 38.440992 292.923433 
L 57.6 292.923433 
L 57.6 291.534072 
L 62.616969 291.534072 
L 62.616969 285.513505 
L 69.687988 285.513505 
L 69.687988 284.587264 
L 72.376266 284.587264 
L 72.376266 284.124143 
L 76.759008 284.124143 
L 76.759008 281.808541 
L 80.258561 281.808541 
L 80.258561 280.419179 
L 85.66744 280.419179 
L 85.66744 279.492938 
L 88.846997 279.492938 
L 88.846997 279.029818 
L 90.684409 279.029818 
L 90.684409 277.640456 
L 91.535274 277.640456 
L 91.535274 277.177336 
L 92.34655 277.177336 
L 92.34655 274.861733 
L 93.863965 274.861733 
L 93.863965 270.230528 
L 94.575872 270.230528 
L 94.575872 267.914925 
L 95.918017 267.914925 
L 95.918017 267.451805 
L 97.755429 267.451805 
L 97.755429 266.525564 
L 98.32726 266.525564 
L 98.32726 264.209961 
L 99.41757 264.209961 
L 99.41757 262.8206 
L 101.412804 262.8206 
L 101.412804 260.968117 
L 101.877879 260.968117 
L 101.877879 260.041876 
L 103.623262 260.041876 
L 103.623262 259.115635 
L 105.584798 259.115635 
L 105.584798 258.189394 
L 108.640231 258.189394 
L 108.640231 257.726274 
L 116.323218 257.726274 
L 116.323218 257.263153 
L 116.522527 257.263153 
L 116.522527 255.873792 
L 120.571812 255.873792 
L 120.571812 255.410671 
L 120.728219 255.410671 
L 120.728219 254.48443 
L 120.883236 254.48443 
L 120.883236 254.02131 
L 121.036887 254.02131 
L 121.036887 253.558189 
L 121.489881 253.558189 
L 121.489881 253.095069 
L 121.638301 253.095069 
L 121.638301 252.168828 
L 121.931406 252.168828 
L 121.931406 250.779466 
L 122.503236 250.779466 
L 122.503236 249.853225 
L 122.643312 249.853225 
L 122.643312 248.926984 
L 125.706218 248.926984 
L 125.706218 248.463863 
L 126.729009 248.463863 
L 126.729009 247.074502 
L 128.209594 247.074502 
L 128.209594 246.611381 
L 129.480244 246.611381 
L 129.480244 245.22202 
L 129.853291 245.22202 
L 129.853291 244.295779 
L 130.926816 244.295779 
L 130.926816 243.832658 
L 131.270459 243.832658 
L 131.270459 242.443297 
L 133.503183 242.443297 
L 133.503183 241.517056 
L 135.681535 241.517056 
L 135.681535 240.590815 
L 136.008736 240.590815 
L 136.008736 240.127694 
L 139.783113 240.127694 
L 139.783113 237.812091 
L 140.144829 237.812091 
L 140.144829 236.88585 
L 141.987354 236.88585 
L 141.987354 235.959609 
L 147.027314 235.959609 
L 147.027314 233.644007 
L 150.429467 233.644007 
L 150.429467 232.717766 
L 151.394733 232.717766 
L 151.394733 232.254645 
L 153.250915 232.254645 
L 153.250915 230.865284 
L 157.1279 230.865284 
L 157.1279 229.475922 
L 158.501489 229.475922 
L 158.501489 229.012802 
L 158.749613 229.012802 
L 158.749613 228.549681 
L 158.976895 228.549681 
L 158.976895 227.62344 
L 160.200913 227.62344 
L 160.200913 225.770958 
L 160.458086 225.770958 
L 160.458086 225.307837 
L 161.161694 225.307837 
L 161.161694 224.381596 
L 161.926237 224.381596 
L 161.955547 221.602873 
L 162.503271 221.602873 
L 162.503271 221.139753 
L 163.171418 221.139753 
L 163.171418 220.676632 
L 163.642961 220.676632 
L 163.709295 219.750391 
L 165.034758 219.750391 
L 165.034758 218.82415 
L 165.423123 218.82415 
L 165.423123 218.36103 
L 165.720627 218.36103 
L 165.720627 217.434789 
L 165.98992 217.434789 
L 165.98992 216.971668 
L 166.277988 216.971668 
L 166.277988 216.045427 
L 167.244924 216.045427 
L 167.244924 215.582307 
L 167.534424 215.582307 
L 167.534424 215.119186 
L 168.656606 215.119186 
L 168.656606 214.192945 
L 168.982583 214.192945 
L 168.982583 213.729825 
L 170.036379 213.729825 
L 170.036379 213.266704 
L 171.289242 213.266704 
L 171.314944 212.340463 
L 171.536129 212.340463 
L 171.536129 211.414222 
L 172.63361 211.414222 
L 172.63361 210.951101 
L 173.42503 210.951101 
L 173.42503 210.487981 
L 175.101646 210.487981 
L 175.101646 209.56174 
L 175.313947 209.56174 
L 175.334356 207.709258 
L 175.916053 207.709258 
L 175.916053 206.783017 
L 176.794453 206.783017 
L 176.794453 204.930535 
L 177.541091 204.930535 
L 177.541091 204.004294 
L 177.719896 204.004294 
L 177.719896 203.078053 
L 178.553528 203.078053 
L 178.643741 202.151812 
L 179.467538 202.151812 
L 179.467538 201.688691 
L 180.699667 201.688691 
L 180.719649 200.299329 
L 180.91822 200.299329 
L 180.91822 199.373088 
L 183.113746 199.373088 
L 183.113746 198.446847 
L 183.61989 198.446847 
L 183.61989 197.520606 
L 184.230545 197.520606 
L 184.230545 196.594365 
L 184.930691 196.594365 
L 184.930691 196.131245 
L 185.478849 196.131245 
L 185.478849 195.668124 
L 186.280968 195.668124 
L 186.280968 195.205004 
L 186.689888 195.205004 
L 186.689888 194.741883 
L 187.645278 194.741883 
L 187.645278 194.278763 
L 188.05657 194.278763 
L 188.144854 191.96316 
L 188.180693 191.96316 
L 188.180693 191.036919 
L 188.579691 191.036919 
L 188.579691 190.110678 
L 189.115362 190.110678 
L 189.115362 189.647558 
L 189.229134 189.647558 
L 189.229134 189.184437 
L 190.473953 189.184437 
L 190.473953 188.721316 
L 191.336909 188.721316 
L 191.336909 187.795075 
L 191.488344 187.795075 
L 191.488344 187.331955 
L 191.736965 187.331955 
L 191.736965 186.868834 
L 192.231563 186.868834 
L 192.267647 185.016352 
L 193.222056 185.016352 
L 193.222056 184.553232 
L 193.672049 184.553232 
L 193.672049 184.090111 
L 194.711823 184.090111 
L 194.711823 183.16387 
L 195.458787 183.16387 
L 195.458787 182.70075 
L 195.817454 182.70075 
L 195.817454 182.237629 
L 195.947208 182.237629 
L 195.965963 181.311388 
L 196.670119 181.311388 
L 196.779795 179.922027 
L 196.84329 179.922027 
L 196.84329 178.995786 
L 197.096935 178.995786 
L 197.096935 178.532665 
L 197.678586 178.532665 
L 197.678586 178.069545 
L 198.563851 178.069545 
L 198.563851 177.606424 
L 198.781421 177.606424 
L 198.890958 175.753942 
L 199.213771 175.753942 
L 199.234506 174.827701 
L 199.36354 174.827701 
L 199.36354 173.90146 
L 199.562945 173.90146 
L 199.562945 173.438339 
L 199.95173 173.438339 
L 200.042641 172.048978 
L 200.257286 172.048978 
L 200.319059 171.122737 
L 201.294121 171.122737 
L 201.330909 169.270255 
L 201.54095 169.270255 
L 201.616432 168.344014 
L 201.670577 168.344014 
L 201.670577 167.880893 
L 202.937419 167.880893 
L 202.941608 166.954652 
L 203.556127 166.954652 
L 203.556127 166.491532 
L 203.709104 166.491532 
L 203.733136 164.63905 
L 203.889865 164.63905 
L 203.94663 163.712808 
L 204.067463 163.712808 
L 204.067463 163.249688 
L 204.409624 163.249688 
L 204.409624 162.323447 
L 204.543866 162.323447 
L 204.578219 161.397206 
L 204.88314 161.397206 
L 204.88314 160.934085 
L 205.208586 160.934085 
L 205.208586 160.007844 
L 206.123259 160.007844 
L 206.181328 159.081603 
L 206.265763 159.081603 
L 206.265763 158.155362 
L 206.604001 158.155362 
L 206.604001 157.692242 
L 207.089465 157.692242 
L 207.167434 155.83976 
L 207.488784 155.83976 
L 207.488784 155.376639 
L 207.783179 155.376639 
L 207.783179 154.913519 
L 207.951594 154.913519 
L 207.951594 154.450398 
L 208.272314 154.450398 
L 208.272314 153.987278 
L 208.69699 153.987278 
L 208.767107 153.061037 
L 208.816023 153.061037 
L 208.816023 152.134795 
L 209.678562 152.134795 
L 209.678562 151.208554 
L 209.965561 151.208554 
L 209.965561 150.745434 
L 210.078124 150.745434 
L 210.078124 150.282313 
L 210.410608 150.282313 
L 210.499538 148.892952 
L 210.547444 148.892952 
L 210.646455 147.04047 
L 210.828599 147.04047 
L 210.828599 146.114229 
L 210.944569 146.114229 
L 210.944569 145.651108 
L 211.321631 145.651108 
L 211.321631 145.187988 
L 211.633131 145.187988 
L 211.704233 143.798626 
L 211.759895 143.798626 
L 211.759895 143.335506 
L 212.116611 143.335506 
L 212.116611 142.872385 
L 212.285734 142.872385 
L 212.368872 141.946144 
L 212.412726 141.946144 
L 212.412726 141.483024 
L 212.745326 141.483024 
L 212.745326 140.556783 
L 213.149628 140.556783 
L 213.149628 139.630541 
L 213.42196 139.630541 
L 213.42196 139.167421 
L 213.585009 139.167421 
L 213.585009 138.7043 
L 213.712703 138.7043 
L 213.712703 138.24118 
L 213.850677 138.24118 
L 213.850677 137.314939 
L 214.242106 137.314939 
L 214.242106 136.851818 
L 214.385388 136.851818 
L 214.385388 136.388698 
L 214.609932 136.388698 
L 214.609932 135.462457 
L 214.99116 135.462457 
L 215.023313 134.536216 
L 215.138851 134.536216 
L 215.138851 134.073095 
L 215.640072 134.073095 
L 215.640072 133.609975 
L 215.886378 133.609975 
L 215.915596 131.757493 
L 216.171804 131.757493 
L 216.239669 130.831252 
L 216.623574 130.831252 
L 216.623574 129.905011 
L 216.786544 129.905011 
L 216.786544 129.44189 
L 217.516468 129.44189 
L 217.516468 128.97877 
L 217.779594 128.97877 
L 217.779594 128.515649 
L 217.962274 128.515649 
L 217.964634 126.663167 
L 218.211248 126.663167 
L 218.241468 124.810685 
L 218.365863 124.810685 
L 218.365863 124.347564 
L 218.609749 124.347564 
L 218.609749 123.421323 
L 218.780039 123.421323 
L 218.805355 122.031962 
L 219.109633 122.031962 
L 219.120679 121.105721 
L 219.426605 121.105721 
L 219.426605 120.6426 
L 219.884384 120.6426 
L 219.981873 119.716359 
L 220.119014 119.716359 
L 220.119014 119.253239 
L 220.278866 119.253239 
L 220.278866 118.326998 
L 220.462845 118.326998 
L 220.462845 117.400757 
L 220.748304 117.400757 
L 220.748304 116.937636 
L 220.976631 116.937636 
L 221.086971 114.622033 
L 221.61169 114.622033 
L 221.703819 113.695792 
L 221.75706 113.695792 
L 221.776984 112.769551 
L 221.9656 112.769551 
L 221.9656 112.306431 
L 222.484034 112.306431 
L 222.484034 111.38019 
L 223.219489 111.38019 
L 223.283531 110.453949 
L 223.357302 110.453949 
L 223.376777 109.527708 
L 223.548085 109.527708 
L 223.564353 108.601467 
L 224.027154 108.601467 
L 224.027154 108.138346 
L 224.736359 108.138346 
L 224.736359 107.212105 
L 224.98938 107.212105 
L 225.044501 106.285864 
L 226.03772 106.285864 
L 226.074814 104.896503 
L 226.492923 104.896503 
L 226.492923 104.433382 
L 227.07705 104.433382 
L 227.07705 103.970262 
L 227.310923 103.970262 
L 227.310923 103.04402 
L 227.915116 103.04402 
L 227.915116 102.5809 
L 228.59362 102.5809 
L 228.59362 102.117779 
L 228.998119 102.117779 
L 228.998119 101.191538 
L 230.155558 101.191538 
L 230.155558 100.265297 
L 230.280904 100.265297 
L 230.321616 98.875936 
L 231.89319 98.875936 
L 231.89319 98.412815 
L 233.585395 98.412815 
L 233.619566 97.486574 
L 234.347505 97.486574 
L 234.347505 96.560333 
L 236.273603 96.560333 
L 236.273603 95.634092 
L 237.729675 95.634092 
L 237.729675 95.170972 
L 238.286311 95.170972 
L 238.286311 94.707851 
L 238.810026 94.707851 
L 238.810026 93.78161 
L 239.446483 93.78161 
L 239.446483 93.31849 
L 239.697687 93.31849 
L 239.697687 92.392249 
L 240.492652 92.392249 
L 240.492652 91.929128 
L 243.411665 91.929128 
L 243.411665 91.466008 
L 244.034845 91.466008 
L 244.034845 91.002887 
L 245.172204 91.002887 
L 245.172204 90.539766 
L 248.105766 90.539766 
L 248.105766 89.613525 
L 248.519341 89.613525 
L 248.519341 88.687284 
L 252.996936 88.687284 
L 252.996936 87.761043 
L 256.91361 87.761043 
L 256.91361 87.297923 
L 338.688 87.297923 
L 338.688 87.297923 
" style="fill:none;stroke:#000080;stroke-linecap:square;stroke-width:1.5;"/>
   </g>
   <g id="line2d_36">
    <defs>
     <path d="M 0 6 
C 1.591219 6 3.117479 5.367802 4.242641 4.242641 
C 5.367802 3.117479 6 1.591219 6 0 
C 6 -1.591219 5.367802 -3.117479 4.242641 -4.242641 
C 3.117479 -5.367802 1.591219 -6 0 -6 
C -1.591219 -6 -3.117479 -5.367802 -4.242641 -4.242641 
C -5.367802 -3.117479 -6 -1.591219 -6 0 
C -6 1.591219 -5.367802 3.117479 -4.242641 4.242641 
C -3.117479 5.367802 -1.591219 6 0 6 
z
" id="m9404f1b4b8" style="stroke:#000080;stroke-width:1.5;"/>
    </defs>
    <g>
     <use style="fill-opacity:0;stroke:#000080;stroke-width:1.5;" x="116.522527" xlink:href="#m9404f1b4b8" y="257.263153"/>
     <use style="fill-opacity:0;stroke:#000080;stroke-width:1.5;" x="158.976895" xlink:href="#m9404f1b4b8" y="227.62344"/>
     <use style="fill-opacity:0;stroke:#000080;stroke-width:1.5;" x="210.646455" xlink:href="#m9404f1b4b8" y="147.04047"/>
     <use style="fill-opacity:0;stroke:#000080;stroke-width:1.5;" x="256.91361" xlink:href="#m9404f1b4b8" y="87.761043"/>
     <use style="fill-opacity:0;stroke:#000080;stroke-width:1.5;" x="256.91361" xlink:href="#m9404f1b4b8" y="87.297923"/>
     <use style="fill-opacity:0;stroke:#000080;stroke-width:1.5;" x="338.688" xlink:href="#m9404f1b4b8" y="87.297923"/>
    </g>
   </g>
   <g id="line2d_37">
    <path style="fill:none;stroke:#000080;stroke-linecap:square;stroke-width:1.5;"/>
    <g/>
   </g>
   <g id="line2d_38">
    <path clip-path="url(#p7648323e20)" d="M 258.377608 87.297923 
" style="fill:none;stroke:#000080;stroke-linecap:square;stroke-width:1.5;"/>
    <defs>
     <path d="M -12 12 
L 12 -12 
M -12 -12 
L 12 12 
" id="m507c18195d" style="stroke:#000080;"/>
    </defs>
    <g clip-path="url(#p7648323e20)">
     <use style="fill:#000080;stroke:#000080;" x="258.377608" xlink:href="#m507c18195d" y="87.297923"/>
    </g>
   </g>
   <g id="line2d_39">
    <defs>
     <path d="M 0 1.5 
C 0.397805 1.5 0.77937 1.341951 1.06066 1.06066 
C 1.341951 0.77937 1.5 0.397805 1.5 0 
C 1.5 -0.397805 1.341951 -0.77937 1.06066 -1.06066 
C 0.77937 -1.341951 0.397805 -1.5 0 -1.5 
C -0.397805 -1.5 -0.77937 -1.341951 -1.06066 -1.06066 
C -1.341951 -0.77937 -1.5 -0.397805 -1.5 0 
C -1.5 0.397805 -1.341951 0.77937 -1.06066 1.06066 
C -0.77937 1.341951 -0.397805 1.5 0 1.5 
z
" id="mf63d074925" style="stroke:#ff00ff;"/>
    </defs>
    <g>
     <use style="fill:#ff00ff;stroke:#ff00ff;" x="256.739266" xlink:href="#mf63d074925" y="108.138346"/>
     <use style="fill:#ff00ff;stroke:#ff00ff;" x="256.739266" xlink:href="#mf63d074925" y="108.138346"/>
    </g>
   </g>
   <g id="line2d_40">
    <path d="M 38.440992 298.944 
L 38.440992 294.312795 
L 139.783113 294.312795 
L 139.783113 292.923433 
L 140.297583 292.923433 
L 140.297583 291.997192 
L 142.53096 291.997192 
L 142.53096 291.534072 
L 143.230373 291.534072 
L 143.230373 290.607831 
L 144.148442 290.607831 
L 144.229555 289.68159 
L 145.059213 289.68159 
L 145.059213 287.829108 
L 147.027314 287.829108 
L 147.027314 286.439746 
L 147.164632 286.439746 
L 147.266916 280.8823 
L 147.368603 280.8823 
L 147.368603 280.419179 
L 147.901141 280.419179 
L 147.901141 279.956059 
L 148.064279 279.956059 
L 148.064279 278.103577 
L 148.290138 278.103577 
L 148.290138 277.177336 
L 148.981515 277.177336 
L 148.981515 275.787974 
L 149.134896 275.787974 
L 149.134896 275.324854 
L 149.940618 275.324854 
L 149.940618 273.935492 
L 150.085825 273.935492 
L 150.114722 271.619889 
L 150.201126 271.619889 
L 150.201126 270.693648 
L 150.598782 270.693648 
L 150.654857 268.378046 
L 150.738632 268.378046 
L 150.738632 267.914925 
L 150.932558 267.914925 
L 150.932558 266.525564 
L 151.097081 266.525564 
L 151.097081 265.136202 
L 151.233007 265.136202 
L 151.233007 264.209961 
L 151.792604 264.209961 
L 151.792604 263.746841 
L 152.662192 263.746841 
L 152.736878 259.578756 
L 152.860649 259.578756 
L 152.860649 259.115635 
L 153.081247 259.115635 
L 153.154164 254.947551 
L 153.323128 254.947551 
L 153.323128 254.48443 
L 153.537988 254.48443 
L 153.632638 251.705707 
L 153.773658 251.705707 
L 153.820412 248.926984 
L 153.959927 248.926984 
L 154.029268 248.000743 
L 154.484627 248.000743 
L 154.529516 246.611381 
L 155.296925 246.611381 
L 155.361158 245.22202 
L 155.573575 245.22202 
L 155.594676 243.832658 
L 155.699795 243.832658 
L 155.741666 242.906417 
L 156.297301 242.906417 
L 156.398281 241.517056 
L 156.598505 241.517056 
L 156.618401 236.42273 
L 156.835778 236.42273 
L 156.835778 235.959609 
L 157.262567 235.959609 
L 157.28172 234.570248 
L 157.491032 234.570248 
L 157.547684 231.791525 
L 157.86528 231.791525 
L 157.86528 230.865284 
L 158.012759 230.865284 
L 158.012759 230.402163 
L 158.340096 230.402163 
L 158.340096 228.086561 
L 158.608261 228.086561 
L 158.608261 227.62344 
L 159.0116 227.62344 
L 159.0116 227.16032 
L 159.303838 227.16032 
L 159.405822 225.770958 
L 159.439685 225.770958 
L 159.507213 223.918476 
L 159.557689 223.918476 
L 159.557689 222.529114 
L 159.708245 222.529114 
L 159.807898 221.602873 
L 159.857512 221.602873 
L 159.857512 220.676632 
L 159.972732 220.676632 
L 160.054568 217.897909 
L 160.136022 217.897909 
L 160.136022 217.434789 
L 160.249422 217.434789 
L 160.313893 216.045427 
L 160.36209 216.045427 
L 160.36209 213.266704 
L 160.648508 213.266704 
L 160.69579 210.487981 
L 160.914762 210.487981 
L 160.914762 210.02486 
L 161.177012 210.02486 
L 161.222884 208.172378 
L 162.274744 208.172378 
L 162.360793 207.246137 
L 162.403659 207.246137 
L 162.46065 206.319896 
L 162.574077 206.319896 
L 162.630514 204.467414 
L 162.728843 204.467414 
L 162.728843 203.541173 
L 162.882249 203.541173 
L 162.9377 201.688691 
L 163.536298 201.688691 
L 163.536298 200.76245 
L 163.735759 200.76245 
L 163.735759 199.836209 
L 163.854349 199.836209 
L 163.932963 197.983727 
L 163.972138 197.983727 
L 163.972138 197.520606 
L 164.102088 197.520606 
L 164.102088 196.594365 
L 164.562052 196.594365 
L 164.562052 195.668124 
L 164.985598 195.668124 
L 164.985598 194.741883 
L 165.108238 194.741883 
L 165.108238 194.278763 
L 165.885039 194.278763 
L 165.885039 193.815642 
L 166.013141 193.815642 
L 166.117256 191.50004 
L 166.335035 191.50004 
L 166.335035 191.036919 
L 166.48249 191.036919 
L 166.505065 189.647558 
L 166.662278 189.647558 
L 166.662278 188.721316 
L 166.994465 188.721316 
L 167.038282 187.331955 
L 167.427761 187.331955 
L 167.427761 186.868834 
L 167.954668 186.868834 
L 167.954668 186.405714 
L 168.212269 186.405714 
L 168.283721 185.479473 
L 168.476198 185.479473 
L 168.476198 184.553232 
L 168.982583 184.553232 
L 168.982583 184.090111 
L 169.360135 184.090111 
L 169.360135 183.626991 
L 169.879059 183.626991 
L 169.879059 183.16387 
L 170.24699 183.16387 
L 170.24699 182.237629 
L 170.553741 182.237629 
L 170.553741 181.311388 
L 170.837602 181.311388 
L 170.837602 180.848268 
L 171.66247 180.848268 
L 171.66247 180.385147 
L 172.036094 180.385147 
L 172.036094 179.458906 
L 172.224011 179.458906 
L 172.224011 178.532665 
L 172.62567 178.532665 
L 172.681171 177.143304 
L 172.901427 177.143304 
L 172.901427 176.680183 
L 173.242018 176.680183 
L 173.242018 176.217062 
L 175.074063 176.217062 
L 175.136064 175.290821 
L 175.225232 175.290821 
L 175.225232 174.36458 
L 176.498063 174.36458 
L 176.498063 173.90146 
L 176.806955 173.90146 
L 176.806955 173.438339 
L 177.432921 173.438339 
L 177.517111 172.048978 
L 178.58177 172.048978 
L 178.58177 171.585857 
L 179.148138 171.585857 
L 179.153601 170.196496 
L 180.223376 170.196496 
L 180.223376 169.733375 
L 181.158427 169.733375 
L 181.158427 169.270255 
L 181.332822 169.270255 
L 181.332822 168.344014 
L 181.671737 168.344014 
L 181.780129 166.028411 
L 182.275715 166.028411 
L 182.275715 165.10217 
L 183.209233 165.10217 
L 183.209233 164.63905 
L 184.324185 164.63905 
L 184.324185 164.175929 
L 184.530044 164.175929 
L 184.530044 163.712808 
L 184.646026 163.712808 
L 184.646026 163.249688 
L 185.65279 163.249688 
L 185.65279 162.786567 
L 185.899365 162.786567 
L 185.914197 161.397206 
L 186.55107 161.397206 
L 186.55107 160.470965 
L 189.526937 160.470965 
L 189.526937 159.544724 
L 189.831587 159.544724 
L 189.831587 159.081603 
L 189.984874 159.081603 
L 189.984874 158.618483 
L 191.257967 158.618483 
L 191.257967 157.692242 
L 191.536741 157.692242 
L 191.536741 157.229121 
L 192.490231 157.229121 
L 192.490231 156.766001 
L 194.166232 156.766001 
L 194.166232 155.83976 
L 196.416233 155.83976 
L 196.416233 155.376639 
L 196.997097 155.376639 
L 196.997097 154.450398 
L 197.830846 154.450398 
L 197.849552 153.524157 
L 198.51713 153.524157 
L 198.51713 153.061037 
L 199.125374 153.061037 
L 199.125374 152.597916 
L 200.022846 152.597916 
L 200.022846 151.671675 
L 203.437115 151.671675 
L 203.468299 148.892952 
L 204.240678 148.892952 
L 204.240678 148.429831 
L 204.67961 148.429831 
L 204.67961 147.966711 
L 205.175453 147.966711 
L 205.175453 147.04047 
L 205.718415 147.04047 
L 205.718415 146.114229 
L 206.233425 146.114229 
L 206.233425 145.651108 
L 206.38879 145.651108 
L 206.38879 144.724867 
L 206.76845 144.724867 
L 206.76845 144.261747 
L 206.910247 144.261747 
L 206.910247 143.798626 
L 208.59431 143.798626 
L 208.59431 143.335506 
L 208.716049 143.335506 
L 208.716049 142.872385 
L 210.265352 142.872385 
L 210.265352 142.409265 
L 212.485572 142.409265 
L 212.485572 141.946144 
L 213.31061 141.946144 
L 213.31061 141.483024 
L 214.37017 141.483024 
L 214.37017 141.019903 
L 214.728942 141.019903 
L 214.728942 140.556783 
L 215.343677 140.556783 
L 215.397756 138.7043 
L 215.539346 138.7043 
L 215.539346 137.778059 
L 215.720772 137.778059 
L 215.729492 136.388698 
L 215.853782 136.388698 
L 215.853782 135.925577 
L 216.350036 135.925577 
L 216.350036 135.462457 
L 218.095112 135.462457 
L 218.095112 134.999336 
L 218.555656 134.999336 
L 218.555656 134.073095 
L 218.96373 134.073095 
L 219.072026 132.683734 
L 220.174194 132.683734 
L 220.174194 132.220613 
L 220.759867 132.220613 
L 220.759867 131.757493 
L 221.254846 131.757493 
L 221.254846 131.294372 
L 221.494997 131.294372 
L 221.494997 130.831252 
L 221.877204 130.831252 
L 221.877204 130.368131 
L 222.968914 130.368131 
L 222.968914 129.44189 
L 223.522367 129.44189 
L 223.534802 128.052529 
L 224.87266 128.052529 
L 224.87266 127.589408 
L 225.045287 127.589408 
L 225.045287 127.126287 
L 227.088941 127.126287 
L 227.088941 126.200046 
L 227.911114 126.200046 
L 227.911114 125.273805 
L 228.02646 125.273805 
L 228.02646 124.347564 
L 228.322446 124.347564 
L 228.322446 123.884444 
L 230.779695 123.884444 
L 230.779695 123.421323 
L 231.164997 123.421323 
L 231.164997 122.958203 
L 231.346424 122.958203 
L 231.346424 122.495082 
L 231.494238 122.495082 
L 231.494238 122.031962 
L 234.407583 122.031962 
L 234.407583 121.105721 
L 234.871056 121.105721 
L 234.871056 120.6426 
L 235.278647 120.6426 
L 235.278647 120.17948 
L 235.447239 120.17948 
L 235.447239 119.716359 
L 236.463141 119.716359 
L 236.463141 118.790118 
L 236.650035 118.790118 
L 236.650035 118.326998 
L 241.697286 118.326998 
L 241.697286 117.400757 
L 241.94573 117.400757 
L 241.94573 116.474516 
L 242.284844 116.474516 
L 242.284844 116.011395 
L 244.973747 116.011395 
L 244.973747 115.085154 
L 246.429844 115.085154 
L 246.429844 114.622033 
L 247.556214 114.622033 
L 247.556214 113.695792 
L 248.105137 113.695792 
L 248.105137 113.232672 
L 249.260527 113.232672 
L 249.260527 112.769551 
L 249.511192 112.769551 
L 249.511192 111.84331 
L 253.598503 111.84331 
L 253.598503 111.38019 
L 254.627306 111.38019 
L 254.627306 110.917069 
L 255.442519 110.917069 
L 255.442519 109.990828 
L 256.158981 109.990828 
L 256.158981 109.527708 
L 256.598474 109.527708 
L 256.598474 109.064587 
L 256.739266 109.064587 
L 256.739266 108.138346 
L 338.688 108.138346 
L 338.688 108.138346 
" style="fill:none;stroke:#ff00ff;stroke-linecap:square;stroke-width:1.5;"/>
   </g>
   <g id="line2d_41">
    <defs>
     <path d="M 0 8.485281 
L 5.091169 0 
L 0 -8.485281 
L -5.091169 0 
z
" id="m1e861f50e2" style="stroke:#ff00ff;stroke-linejoin:miter;stroke-width:1.5;"/>
    </defs>
    <g>
     <use style="fill-opacity:0;stroke:#ff00ff;stroke-linejoin:miter;stroke-width:1.5;" x="158.608261" xlink:href="#m1e861f50e2" y="228.086561"/>
     <use style="fill-opacity:0;stroke:#ff00ff;stroke-linejoin:miter;stroke-width:1.5;" x="199.125374" xlink:href="#m1e861f50e2" y="152.597916"/>
     <use style="fill-opacity:0;stroke:#ff00ff;stroke-linejoin:miter;stroke-width:1.5;" x="256.739266" xlink:href="#m1e861f50e2" y="109.064587"/>
     <use style="fill-opacity:0;stroke:#ff00ff;stroke-linejoin:miter;stroke-width:1.5;" x="256.739266" xlink:href="#m1e861f50e2" y="108.138346"/>
     <use style="fill-opacity:0;stroke:#ff00ff;stroke-linejoin:miter;stroke-width:1.5;" x="338.688" xlink:href="#m1e861f50e2" y="108.138346"/>
    </g>
   </g>
   <g id="line2d_42">
    <path style="fill:none;stroke:#ff00ff;stroke-linecap:square;stroke-width:1.5;"/>
    <g/>
   </g>
   <g id="line2d_43">
    <path clip-path="url(#p7648323e20)" d="M 258.383769 108.138346 
" style="fill:none;stroke:#ff00ff;stroke-linecap:square;stroke-width:1.5;"/>
    <defs>
     <path d="M -12 12 
L 12 -12 
M -12 -12 
L 12 12 
" id="mfa19e03e69" style="stroke:#ff00ff;"/>
    </defs>
    <g clip-path="url(#p7648323e20)">
     <use style="fill:#ff00ff;stroke:#ff00ff;" x="258.383769" xlink:href="#mfa19e03e69" y="108.138346"/>
    </g>
   </g>
   <g id="line2d_44">
    <defs>
     <path d="M 0 1.5 
C 0.397805 1.5 0.77937 1.341951 1.06066 1.06066 
C 1.341951 0.77937 1.5 0.397805 1.5 0 
C 1.5 -0.397805 1.341951 -0.77937 1.06066 -1.06066 
C 0.77937 -1.341951 0.397805 -1.5 0 -1.5 
C -0.397805 -1.5 -0.77937 -1.341951 -1.06066 -1.06066 
C -1.341951 -0.77937 -1.5 -0.397805 -1.5 0 
C -1.5 0.397805 -1.341951 0.77937 -1.06066 1.06066 
C -0.77937 1.341951 -0.397805 1.5 0 1.5 
z
" id="m62a0a119d8" style="stroke:#ff7500;"/>
    </defs>
    <g>
     <use style="fill:#ff7500;stroke:#ff7500;" x="249.963772" xlink:href="#m62a0a119d8" y="150.745434"/>
     <use style="fill:#ff7500;stroke:#ff7500;" x="249.963772" xlink:href="#m62a0a119d8" y="150.745434"/>
    </g>
   </g>
   <g id="line2d_45">
    <path d="M 141.987354 298.944 
L 141.987354 297.554638 
L 149.012299 297.554638 
L 149.012299 296.165277 
L 152.181601 296.165277 
L 152.181601 294.312795 
L 153.49047 294.312795 
L 153.49047 293.386554 
L 154.752243 293.386554 
L 154.862549 291.070951 
L 155.46769 291.070951 
L 155.46769 290.607831 
L 156.478647 290.607831 
L 156.478647 289.218469 
L 156.757045 289.218469 
L 156.757045 288.292228 
L 156.972711 288.292228 
L 156.972711 287.365987 
L 157.262567 287.365987 
L 157.262567 285.050384 
L 157.453162 285.050384 
L 157.453162 283.661023 
L 157.67916 283.661023 
L 157.67916 281.34542 
L 158.213527 281.34542 
L 158.213527 280.8823 
L 158.749613 280.8823 
L 158.784773 279.029818 
L 158.959517 279.029818 
L 158.959517 276.714215 
L 159.557689 276.714215 
L 159.658204 275.324854 
L 160.152267 275.324854 
L 160.152267 274.398612 
L 160.313893 274.398612 
L 160.313893 273.935492 
L 160.553557 273.935492 
L 160.553557 273.009251 
L 161.405178 273.009251 
L 161.510643 270.230528 
L 161.660209 270.230528 
L 161.734513 266.062443 
L 162.028606 266.062443 
L 162.028606 265.599323 
L 162.375093 265.599323 
L 162.375093 264.209961 
L 162.812686 264.209961 
L 162.812686 263.746841 
L 163.048075 263.746841 
L 163.130401 262.357479 
L 163.293895 262.357479 
L 163.293895 260.041876 
L 163.496131 260.041876 
L 163.589711 258.189394 
L 163.642961 258.189394 
L 163.709295 256.800033 
L 164.050224 256.800033 
L 164.102088 253.558189 
L 164.205356 253.558189 
L 164.205356 251.705707 
L 164.371873 251.705707 
L 164.448194 248.463863 
L 164.498889 248.463863 
L 164.574657 246.611381 
L 164.675172 246.611381 
L 164.775111 245.68514 
L 165.059286 245.68514 
L 165.071537 244.295779 
L 165.387079 244.295779 
L 165.387079 243.369538 
L 165.578458 243.369538 
L 165.685193 241.980176 
L 165.732422 241.980176 
L 165.732422 241.517056 
L 165.873346 241.517056 
L 165.873346 240.590815 
L 166.08262 240.590815 
L 166.08262 240.127694 
L 166.266556 240.127694 
L 166.312239 236.42273 
L 166.437252 236.42273 
L 166.437252 235.959609 
L 166.583849 235.959609 
L 166.583849 235.033368 
L 166.751482 235.033368 
L 166.751482 234.570248 
L 166.895472 234.570248 
L 166.994465 232.717766 
L 167.147346 232.717766 
L 167.234109 229.939043 
L 167.384913 229.939043 
L 167.384913 229.475922 
L 167.513144 229.475922 
L 167.608702 227.16032 
L 167.840107 227.16032 
L 167.840107 226.697199 
L 168.058166 226.697199 
L 168.058166 226.234079 
L 168.263336 226.234079 
L 168.263336 225.307837 
L 168.425752 225.307837 
L 168.536542 222.992235 
L 168.546579 222.992235 
L 168.60668 221.602873 
L 168.77585 221.602873 
L 168.854895 220.213512 
L 169.011918 220.213512 
L 169.089902 217.434789 
L 169.23519 217.434789 
L 169.302579 216.045427 
L 169.48419 216.045427 
L 169.550626 215.119186 
L 169.739058 215.119186 
L 169.75779 214.192945 
L 170.054794 214.192945 
L 170.082381 212.803583 
L 170.228776 212.803583 
L 170.228776 212.340463 
L 170.40104 212.340463 
L 170.40104 211.414222 
L 170.58055 211.414222 
L 170.678499 207.709258 
L 170.740545 207.709258 
L 170.802371 204.930535 
L 171.003983 204.930535 
L 171.030109 203.541173 
L 171.116915 203.541173 
L 171.116915 203.078053 
L 171.332059 203.078053 
L 171.434392 201.225571 
L 171.603625 201.225571 
L 171.704381 196.594365 
L 171.854434 196.594365 
L 171.945501 195.205004 
L 172.068921 195.205004 
L 172.158878 193.815642 
L 172.585918 193.815642 
L 172.641546 192.426281 
L 172.728604 192.426281 
L 172.728604 191.50004 
L 172.97942 191.50004 
L 172.97942 191.036919 
L 173.103489 191.036919 
L 173.103489 190.110678 
L 173.265 190.110678 
L 173.287952 189.184437 
L 173.455346 189.184437 
L 173.470484 186.405714 
L 173.598631 186.405714 
L 173.673575 185.479473 
L 173.844732 185.479473 
L 173.889107 184.090111 
L 174.218366 184.090111 
L 174.218366 183.626991 
L 174.341153 183.626991 
L 174.412979 181.774509 
L 174.732584 181.774509 
L 174.732584 181.311388 
L 174.921573 181.311388 
L 174.970237 179.922027 
L 175.094755 179.922027 
L 175.094755 179.458906 
L 175.279879 179.458906 
L 175.327556 177.606424 
L 175.442801 177.606424 
L 175.442801 177.143304 
L 175.58412 177.143304 
L 175.651014 174.827701 
L 175.968581 174.827701 
L 175.968581 174.36458 
L 176.34475 174.36458 
L 176.34475 173.90146 
L 176.529835 173.90146 
L 176.529835 172.975219 
L 176.881775 172.975219 
L 176.881775 172.048978 
L 176.999587 172.048978 
L 177.067432 170.659616 
L 177.348323 170.659616 
L 177.420861 169.270255 
L 178.118525 169.270255 
L 178.199477 168.344014 
L 178.513913 168.344014 
L 178.6156 166.491532 
L 178.711096 166.491532 
L 178.711096 165.10217 
L 179.553156 165.10217 
L 179.590482 163.712808 
L 180.115169 163.712808 
L 180.115169 163.249688 
L 181.031383 163.249688 
L 181.031383 162.786567 
L 181.54839 162.786567 
L 181.54839 162.323447 
L 182.128973 162.323447 
L 182.128973 161.397206 
L 183.078894 161.397206 
L 183.087614 160.007844 
L 184.630074 160.007844 
L 184.630074 159.081603 
L 186.006616 159.081603 
L 186.006616 158.618483 
L 187.044335 158.618483 
L 187.044335 158.155362 
L 187.915041 158.155362 
L 187.915041 157.692242 
L 189.369552 157.692242 
L 189.369552 157.229121 
L 191.007908 157.229121 
L 191.007908 156.766001 
L 192.280517 156.766001 
L 192.280517 155.83976 
L 221.853147 155.83976 
L 221.853147 155.376639 
L 235.300056 155.376639 
L 235.300056 154.913519 
L 235.517456 154.913519 
L 235.517456 153.987278 
L 235.950391 153.987278 
L 235.950391 153.061037 
L 239.345152 153.061037 
L 239.345152 152.597916 
L 245.409316 152.597916 
L 245.409316 152.134795 
L 249.946907 152.134795 
L 249.963772 150.745434 
L 338.688 150.745434 
L 338.688 150.745434 
" style="fill:none;stroke:#ff7500;stroke-linecap:square;stroke-width:1.5;"/>
   </g>
   <g id="line2d_46">
    <defs>
     <path d="M 0 -6 
L -1.347084 -1.854102 
L -5.706339 -1.854102 
L -2.179628 0.708204 
L -3.526712 4.854102 
L -0 2.291796 
L 3.526712 4.854102 
L 2.179628 0.708204 
L 5.706339 -1.854102 
L 1.347084 -1.854102 
z
" id="m49fda8939b" style="stroke:#ff7500;stroke-linejoin:bevel;stroke-width:1.5;"/>
    </defs>
    <g>
     <use style="fill-opacity:0;stroke:#ff7500;stroke-linejoin:bevel;stroke-width:1.5;" x="166.437252" xlink:href="#m49fda8939b" y="235.959609"/>
     <use style="fill-opacity:0;stroke:#ff7500;stroke-linejoin:bevel;stroke-width:1.5;" x="192.280517" xlink:href="#m49fda8939b" y="156.766001"/>
     <use style="fill-opacity:0;stroke:#ff7500;stroke-linejoin:bevel;stroke-width:1.5;" x="249.963772" xlink:href="#m49fda8939b" y="151.208554"/>
     <use style="fill-opacity:0;stroke:#ff7500;stroke-linejoin:bevel;stroke-width:1.5;" x="249.963772" xlink:href="#m49fda8939b" y="150.745434"/>
     <use style="fill-opacity:0;stroke:#ff7500;stroke-linejoin:bevel;stroke-width:1.5;" x="338.688" xlink:href="#m49fda8939b" y="150.745434"/>
    </g>
   </g>
   <g id="line2d_47">
    <path style="fill:none;stroke:#ff7500;stroke-linecap:square;stroke-width:1.5;"/>
    <g/>
   </g>
   <g id="line2d_48">
    <path clip-path="url(#p7648323e20)" d="M 258.377201 150.745434 
" style="fill:none;stroke:#ff7500;stroke-linecap:square;stroke-width:1.5;"/>
    <defs>
     <path d="M -12 12 
L 12 -12 
M -12 -12 
L 12 12 
" id="mcb5f07008c" style="stroke:#ff7500;"/>
    </defs>
    <g clip-path="url(#p7648323e20)">
     <use style="fill:#ff7500;stroke:#ff7500;" x="258.377201" xlink:href="#mcb5f07008c" y="150.745434"/>
    </g>
   </g>
   <g id="line2d_49">
    <path d="M 338.688 150.745434 
L 369.60768 293.571802 
" style="fill:none;stroke:#ff7500;stroke-linecap:square;stroke-width:1.5;"/>
    <g>
     <use style="fill-opacity:0;stroke:#ff7500;stroke-linejoin:bevel;stroke-width:1.5;" x="338.688" xlink:href="#m49fda8939b" y="150.745434"/>
     <use style="fill-opacity:0;stroke:#ff7500;stroke-linejoin:bevel;stroke-width:1.5;" x="369.60768" xlink:href="#m49fda8939b" y="293.571802"/>
    </g>
   </g>
   <g id="line2d_50">
    <path d="M 338.688 108.138346 
L 369.60768 207.616634 
" style="fill:none;stroke:#ff00ff;stroke-linecap:square;stroke-width:1.5;"/>
    <g>
     <use style="fill-opacity:0;stroke:#ff00ff;stroke-linejoin:miter;stroke-width:1.5;" x="338.688" xlink:href="#m1e861f50e2" y="108.138346"/>
     <use style="fill-opacity:0;stroke:#ff00ff;stroke-linejoin:miter;stroke-width:1.5;" x="369.60768" xlink:href="#m1e861f50e2" y="207.616634"/>
    </g>
   </g>
   <g id="line2d_51">
    <path d="M 338.688 87.297923 
L 369.60768 121.661465 
" style="fill:none;stroke:#000080;stroke-linecap:square;stroke-width:1.5;"/>
    <g>
     <use style="fill-opacity:0;stroke:#000080;stroke-width:1.5;" x="338.688" xlink:href="#m9404f1b4b8" y="87.297923"/>
     <use style="fill-opacity:0;stroke:#000080;stroke-width:1.5;" x="369.60768" xlink:href="#m9404f1b4b8" y="121.661465"/>
    </g>
   </g>
   <g id="line2d_52">
    <path d="M 338.688 298.944 
L 338.688 30.334099 
" style="fill:none;stroke:#000000;stroke-linecap:square;stroke-width:1.5;"/>
   </g>
   <g id="patch_3">
    <path d="M 57.6 298.944 
L 57.6 27.648 
" style="fill:none;stroke:#000000;stroke-linecap:square;stroke-linejoin:miter;stroke-width:0.8;"/>
   </g>
   <g id="patch_4">
    <path d="M 338.688 298.944 
L 338.688 27.648 
" style="fill:none;stroke:#000000;stroke-linecap:square;stroke-linejoin:miter;stroke-width:0.8;"/>
   </g>
   <g id="patch_5">
    <path d="M 57.6 298.944 
L 338.688 298.944 
" style="fill:none;stroke:#000000;stroke-linecap:square;stroke-linejoin:miter;stroke-width:0.8;"/>
   </g>
   <g id="patch_6">
    <path d="M 57.6 27.648 
L 338.688 27.648 
" style="fill:none;stroke:#000000;stroke-linecap:square;stroke-linejoin:miter;stroke-width:0.8;"/>
   </g>
   <g id="text_13">
    <!-- SMS-EMOA- -->
    <g transform="translate(375.22944 298.262739)scale(0.17 -0.17)">
     <defs>
      <path d="M 53.515625 70.515625 
L 53.515625 60.890625 
Q 47.90625 63.578125 42.921875 64.890625 
Q 37.9375 66.21875 33.296875 66.21875 
Q 25.25 66.21875 20.875 63.09375 
Q 16.5 59.96875 16.5 54.203125 
Q 16.5 49.359375 19.40625 46.890625 
Q 22.3125 44.4375 30.421875 42.921875 
L 36.375 41.703125 
Q 47.40625 39.59375 52.65625 34.296875 
Q 57.90625 29 57.90625 20.125 
Q 57.90625 9.515625 50.796875 4.046875 
Q 43.703125 -1.421875 29.984375 -1.421875 
Q 24.8125 -1.421875 18.96875 -0.25 
Q 13.140625 0.921875 6.890625 3.21875 
L 6.890625 13.375 
Q 12.890625 10.015625 18.65625 8.296875 
Q 24.421875 6.59375 29.984375 6.59375 
Q 38.421875 6.59375 43.015625 9.90625 
Q 47.609375 13.234375 47.609375 19.390625 
Q 47.609375 24.75 44.3125 27.78125 
Q 41.015625 30.8125 33.5 32.328125 
L 27.484375 33.5 
Q 16.453125 35.6875 11.515625 40.375 
Q 6.59375 45.0625 6.59375 53.421875 
Q 6.59375 63.09375 13.40625 68.65625 
Q 20.21875 74.21875 32.171875 74.21875 
Q 37.3125 74.21875 42.625 73.28125 
Q 47.953125 72.359375 53.515625 70.515625 
z
" id="DejaVuSans-83"/>
      <path d="M 9.8125 72.90625 
L 24.515625 72.90625 
L 43.109375 23.296875 
L 61.8125 72.90625 
L 76.515625 72.90625 
L 76.515625 0 
L 66.890625 0 
L 66.890625 64.015625 
L 48.09375 14.015625 
L 38.1875 14.015625 
L 19.390625 64.015625 
L 19.390625 0 
L 9.8125 0 
z
" id="DejaVuSans-77"/>
      <path d="M 9.8125 72.90625 
L 55.90625 72.90625 
L 55.90625 64.59375 
L 19.671875 64.59375 
L 19.671875 43.015625 
L 54.390625 43.015625 
L 54.390625 34.71875 
L 19.671875 34.71875 
L 19.671875 8.296875 
L 56.78125 8.296875 
L 56.78125 0 
L 9.8125 0 
z
" id="DejaVuSans-69"/>
      <path d="M 39.40625 66.21875 
Q 28.65625 66.21875 22.328125 58.203125 
Q 16.015625 50.203125 16.015625 36.375 
Q 16.015625 22.609375 22.328125 14.59375 
Q 28.65625 6.59375 39.40625 6.59375 
Q 50.140625 6.59375 56.421875 14.59375 
Q 62.703125 22.609375 62.703125 36.375 
Q 62.703125 50.203125 56.421875 58.203125 
Q 50.140625 66.21875 39.40625 66.21875 
z
M 39.40625 74.21875 
Q 54.734375 74.21875 63.90625 63.9375 
Q 73.09375 53.65625 73.09375 36.375 
Q 73.09375 19.140625 63.90625 8.859375 
Q 54.734375 -1.421875 39.40625 -1.421875 
Q 24.03125 -1.421875 14.8125 8.828125 
Q 5.609375 19.09375 5.609375 36.375 
Q 5.609375 53.65625 14.8125 63.9375 
Q 24.03125 74.21875 39.40625 74.21875 
z
" id="DejaVuSans-79"/>
      <path d="M 34.1875 63.1875 
L 20.796875 26.90625 
L 47.609375 26.90625 
z
M 28.609375 72.90625 
L 39.796875 72.90625 
L 67.578125 0 
L 57.328125 0 
L 50.6875 18.703125 
L 17.828125 18.703125 
L 11.1875 0 
L 0.78125 0 
z
" id="DejaVuSans-65"/>
     </defs>
     <use xlink:href="#DejaVuSans-83"/>
     <use x="63.476562" xlink:href="#DejaVuSans-77"/>
     <use x="149.755859" xlink:href="#DejaVuSans-83"/>
     <use x="213.232422" xlink:href="#DejaVuSans-45"/>
     <use x="249.316406" xlink:href="#DejaVuSans-69"/>
     <use x="312.5" xlink:href="#DejaVuSans-77"/>
     <use x="398.779297" xlink:href="#DejaVuSans-79"/>
     <use x="475.740234" xlink:href="#DejaVuSans-65"/>
     <use x="541.898438" xlink:href="#DejaVuSans-45"/>
    </g>
   </g>
   <g id="text_14">
    <!-- NSGA-II-M -->
    <g transform="translate(375.22944 212.307571)scale(0.17 -0.17)">
     <defs>
      <path d="M 9.8125 72.90625 
L 23.09375 72.90625 
L 55.421875 11.921875 
L 55.421875 72.90625 
L 64.984375 72.90625 
L 64.984375 0 
L 51.703125 0 
L 19.390625 60.984375 
L 19.390625 0 
L 9.8125 0 
z
" id="DejaVuSans-78"/>
      <path d="M 59.515625 10.40625 
L 59.515625 29.984375 
L 43.40625 29.984375 
L 43.40625 38.09375 
L 69.28125 38.09375 
L 69.28125 6.78125 
Q 63.578125 2.734375 56.6875 0.65625 
Q 49.8125 -1.421875 42 -1.421875 
Q 24.90625 -1.421875 15.25 8.5625 
Q 5.609375 18.5625 5.609375 36.375 
Q 5.609375 54.25 15.25 64.234375 
Q 24.90625 74.21875 42 74.21875 
Q 49.125 74.21875 55.546875 72.453125 
Q 61.96875 70.703125 67.390625 67.28125 
L 67.390625 56.78125 
Q 61.921875 61.421875 55.765625 63.765625 
Q 49.609375 66.109375 42.828125 66.109375 
Q 29.4375 66.109375 22.71875 58.640625 
Q 16.015625 51.171875 16.015625 36.375 
Q 16.015625 21.625 22.71875 14.15625 
Q 29.4375 6.6875 42.828125 6.6875 
Q 48.046875 6.6875 52.140625 7.59375 
Q 56.25 8.5 59.515625 10.40625 
z
" id="DejaVuSans-71"/>
      <path d="M 9.8125 72.90625 
L 19.671875 72.90625 
L 19.671875 0 
L 9.8125 0 
z
" id="DejaVuSans-73"/>
     </defs>
     <use xlink:href="#DejaVuSans-78"/>
     <use x="74.804688" xlink:href="#DejaVuSans-83"/>
     <use x="138.28125" xlink:href="#DejaVuSans-71"/>
     <use x="215.771484" xlink:href="#DejaVuSans-65"/>
     <use x="281.929688" xlink:href="#DejaVuSans-45"/>
     <use x="318.013672" xlink:href="#DejaVuSans-73"/>
     <use x="347.505859" xlink:href="#DejaVuSans-73"/>
     <use x="376.998047" xlink:href="#DejaVuSans-45"/>
     <use x="413.082031" xlink:href="#DejaVuSans-77"/>
    </g>
   </g>
   <g id="text_15">
    <!-- COMO-100  -->
    <g transform="translate(375.22944 126.352403)scale(0.17 -0.17)">
     <defs>
      <path d="M 64.40625 67.28125 
L 64.40625 56.890625 
Q 59.421875 61.53125 53.78125 63.8125 
Q 48.140625 66.109375 41.796875 66.109375 
Q 29.296875 66.109375 22.65625 58.46875 
Q 16.015625 50.828125 16.015625 36.375 
Q 16.015625 21.96875 22.65625 14.328125 
Q 29.296875 6.6875 41.796875 6.6875 
Q 48.140625 6.6875 53.78125 8.984375 
Q 59.421875 11.28125 64.40625 15.921875 
L 64.40625 5.609375 
Q 59.234375 2.09375 53.4375 0.328125 
Q 47.65625 -1.421875 41.21875 -1.421875 
Q 24.65625 -1.421875 15.125 8.703125 
Q 5.609375 18.84375 5.609375 36.375 
Q 5.609375 53.953125 15.125 64.078125 
Q 24.65625 74.21875 41.21875 74.21875 
Q 47.75 74.21875 53.53125 72.484375 
Q 59.328125 70.75 64.40625 67.28125 
z
" id="DejaVuSans-67"/>
     </defs>
     <use xlink:href="#DejaVuSans-67"/>
     <use x="69.824219" xlink:href="#DejaVuSans-79"/>
     <use x="148.535156" xlink:href="#DejaVuSans-77"/>
     <use x="234.814453" xlink:href="#DejaVuSans-79"/>
     <use x="316.275391" xlink:href="#DejaVuSans-45"/>
     <use x="352.359375" xlink:href="#DejaVuSans-49"/>
     <use x="415.982422" xlink:href="#DejaVuSans-48"/>
     <use x="479.605469" xlink:href="#DejaVuSans-48"/>
     <use x="543.228516" xlink:href="#DejaVuSans-32"/>
    </g>
   </g>
   <g id="text_16">
    <!-- best 2016 -->
    <g transform="translate(375.22944 40.397235)scale(0.17 -0.17)">
     <defs>
      <path d="M 48.6875 27.296875 
Q 48.6875 37.203125 44.609375 42.84375 
Q 40.53125 48.484375 33.40625 48.484375 
Q 26.265625 48.484375 22.1875 42.84375 
Q 18.109375 37.203125 18.109375 27.296875 
Q 18.109375 17.390625 22.1875 11.75 
Q 26.265625 6.109375 33.40625 6.109375 
Q 40.53125 6.109375 44.609375 11.75 
Q 48.6875 17.390625 48.6875 27.296875 
z
M 18.109375 46.390625 
Q 20.953125 51.265625 25.265625 53.625 
Q 29.59375 56 35.59375 56 
Q 45.5625 56 51.78125 48.09375 
Q 58.015625 40.1875 58.015625 27.296875 
Q 58.015625 14.40625 51.78125 6.484375 
Q 45.5625 -1.421875 35.59375 -1.421875 
Q 29.59375 -1.421875 25.265625 0.953125 
Q 20.953125 3.328125 18.109375 8.203125 
L 18.109375 0 
L 9.078125 0 
L 9.078125 75.984375 
L 18.109375 75.984375 
z
" id="DejaVuSans-98"/>
     </defs>
     <use xlink:href="#DejaVuSans-98"/>
     <use x="63.476562" xlink:href="#DejaVuSans-101"/>
     <use x="125" xlink:href="#DejaVuSans-115"/>
     <use x="177.099609" xlink:href="#DejaVuSans-116"/>
     <use x="216.308594" xlink:href="#DejaVuSans-32"/>
     <use x="248.095703" xlink:href="#DejaVuSans-50"/>
     <use x="311.71875" xlink:href="#DejaVuSans-48"/>
     <use x="375.341797" xlink:href="#DejaVuSans-49"/>
     <use x="438.964844" xlink:href="#DejaVuSans-54"/>
    </g>
   </g>
   <g id="text_17">
    <!-- bbob-biobj f21, 3-D -->
    <g transform="translate(60.41088 38.111366)scale(0.102 -0.102)">
     <defs>
      <path d="M 9.421875 54.6875 
L 18.40625 54.6875 
L 18.40625 -0.984375 
Q 18.40625 -11.421875 14.421875 -16.109375 
Q 10.453125 -20.796875 1.609375 -20.796875 
L -1.8125 -20.796875 
L -1.8125 -13.1875 
L 0.59375 -13.1875 
Q 5.71875 -13.1875 7.5625 -10.8125 
Q 9.421875 -8.453125 9.421875 -0.984375 
z
M 9.421875 75.984375 
L 18.40625 75.984375 
L 18.40625 64.59375 
L 9.421875 64.59375 
z
" id="DejaVuSans-106"/>
      <path d="M 40.578125 39.3125 
Q 47.65625 37.796875 51.625 33 
Q 55.609375 28.21875 55.609375 21.1875 
Q 55.609375 10.40625 48.1875 4.484375 
Q 40.765625 -1.421875 27.09375 -1.421875 
Q 22.515625 -1.421875 17.65625 -0.515625 
Q 12.796875 0.390625 7.625 2.203125 
L 7.625 11.71875 
Q 11.71875 9.328125 16.59375 8.109375 
Q 21.484375 6.890625 26.8125 6.890625 
Q 36.078125 6.890625 40.9375 10.546875 
Q 45.796875 14.203125 45.796875 21.1875 
Q 45.796875 27.640625 41.28125 31.265625 
Q 36.765625 34.90625 28.71875 34.90625 
L 20.21875 34.90625 
L 20.21875 43.015625 
L 29.109375 43.015625 
Q 36.375 43.015625 40.234375 45.921875 
Q 44.09375 48.828125 44.09375 54.296875 
Q 44.09375 59.90625 40.109375 62.90625 
Q 36.140625 65.921875 28.71875 65.921875 
Q 24.65625 65.921875 20.015625 65.03125 
Q 15.375 64.15625 9.8125 62.3125 
L 9.8125 71.09375 
Q 15.4375 72.65625 20.34375 73.4375 
Q 25.25 74.21875 29.59375 74.21875 
Q 40.828125 74.21875 47.359375 69.109375 
Q 53.90625 64.015625 53.90625 55.328125 
Q 53.90625 49.265625 50.4375 45.09375 
Q 46.96875 40.921875 40.578125 39.3125 
z
" id="DejaVuSans-51"/>
      <path d="M 19.671875 64.796875 
L 19.671875 8.109375 
L 31.59375 8.109375 
Q 46.6875 8.109375 53.6875 14.9375 
Q 60.6875 21.78125 60.6875 36.53125 
Q 60.6875 51.171875 53.6875 57.984375 
Q 46.6875 64.796875 31.59375 64.796875 
z
M 9.8125 72.90625 
L 30.078125 72.90625 
Q 51.265625 72.90625 61.171875 64.09375 
Q 71.09375 55.28125 71.09375 36.53125 
Q 71.09375 17.671875 61.125 8.828125 
Q 51.171875 0 30.078125 0 
L 9.8125 0 
z
" id="DejaVuSans-68"/>
     </defs>
     <use xlink:href="#DejaVuSans-98"/>
     <use x="63.476562" xlink:href="#DejaVuSans-98"/>
     <use x="126.953125" xlink:href="#DejaVuSans-111"/>
     <use x="188.134766" xlink:href="#DejaVuSans-98"/>
     <use x="251.611328" xlink:href="#DejaVuSans-45"/>
     <use x="287.695312" xlink:href="#DejaVuSans-98"/>
     <use x="351.171875" xlink:href="#DejaVuSans-105"/>
     <use x="378.955078" xlink:href="#DejaVuSans-111"/>
     <use x="440.136719" xlink:href="#DejaVuSans-98"/>
     <use x="503.613281" xlink:href="#DejaVuSans-106"/>
     <use x="531.396484" xlink:href="#DejaVuSans-32"/>
     <use x="563.183594" xlink:href="#DejaVuSans-102"/>
     <use x="598.388672" xlink:href="#DejaVuSans-50"/>
     <use x="662.011719" xlink:href="#DejaVuSans-49"/>
     <use x="725.634766" xlink:href="#DejaVuSans-44"/>
     <use x="757.421875" xlink:href="#DejaVuSans-32"/>
     <use x="789.208984" xlink:href="#DejaVuSans-51"/>
     <use x="852.832031" xlink:href="#DejaVuSans-45"/>
     <use x="888.916016" xlink:href="#DejaVuSans-68"/>
    </g>
    <!-- 58 targets: 1..-1.0e-4 -->
    <g transform="translate(60.41088 49.533135)scale(0.102 -0.102)">
     <defs>
      <path d="M 10.796875 72.90625 
L 49.515625 72.90625 
L 49.515625 64.59375 
L 19.828125 64.59375 
L 19.828125 46.734375 
Q 21.96875 47.46875 24.109375 47.828125 
Q 26.265625 48.1875 28.421875 48.1875 
Q 40.625 48.1875 47.75 41.5 
Q 54.890625 34.8125 54.890625 23.390625 
Q 54.890625 11.625 47.5625 5.09375 
Q 40.234375 -1.421875 26.90625 -1.421875 
Q 22.3125 -1.421875 17.546875 -0.640625 
Q 12.796875 0.140625 7.71875 1.703125 
L 7.71875 11.625 
Q 12.109375 9.234375 16.796875 8.0625 
Q 21.484375 6.890625 26.703125 6.890625 
Q 35.15625 6.890625 40.078125 11.328125 
Q 45.015625 15.765625 45.015625 23.390625 
Q 45.015625 31 40.078125 35.4375 
Q 35.15625 39.890625 26.703125 39.890625 
Q 22.75 39.890625 18.8125 39.015625 
Q 14.890625 38.140625 10.796875 36.28125 
z
" id="DejaVuSans-53"/>
      <path d="M 11.71875 12.40625 
L 22.015625 12.40625 
L 22.015625 0 
L 11.71875 0 
z
M 11.71875 51.703125 
L 22.015625 51.703125 
L 22.015625 39.3125 
L 11.71875 39.3125 
z
" id="DejaVuSans-58"/>
     </defs>
     <use xlink:href="#DejaVuSans-53"/>
     <use x="63.623047" xlink:href="#DejaVuSans-56"/>
     <use x="127.246094" xlink:href="#DejaVuSans-32"/>
     <use x="159.033203" xlink:href="#DejaVuSans-116"/>
     <use x="198.242188" xlink:href="#DejaVuSans-97"/>
     <use x="259.521484" xlink:href="#DejaVuSans-114"/>
     <use x="298.884766" xlink:href="#DejaVuSans-103"/>
     <use x="362.361328" xlink:href="#DejaVuSans-101"/>
     <use x="423.884766" xlink:href="#DejaVuSans-116"/>
     <use x="463.09375" xlink:href="#DejaVuSans-115"/>
     <use x="515.193359" xlink:href="#DejaVuSans-58"/>
     <use x="548.884766" xlink:href="#DejaVuSans-32"/>
     <use x="580.671875" xlink:href="#DejaVuSans-49"/>
     <use x="644.294922" xlink:href="#DejaVuSans-46"/>
     <use x="676.082031" xlink:href="#DejaVuSans-46"/>
     <use x="707.869141" xlink:href="#DejaVuSans-45"/>
     <use x="743.953125" xlink:href="#DejaVuSans-49"/>
     <use x="807.576172" xlink:href="#DejaVuSans-46"/>
     <use x="839.363281" xlink:href="#DejaVuSans-48"/>
     <use x="902.986328" xlink:href="#DejaVuSans-101"/>
     <use x="964.509766" xlink:href="#DejaVuSans-45"/>
     <use x="1000.59375" xlink:href="#DejaVuSans-52"/>
    </g>
    <!-- 10 instances -->
    <g transform="translate(60.41088 60.954904)scale(0.102 -0.102)">
     <use xlink:href="#DejaVuSans-49"/>
     <use x="63.623047" xlink:href="#DejaVuSans-48"/>
     <use x="127.246094" xlink:href="#DejaVuSans-32"/>
     <use x="159.033203" xlink:href="#DejaVuSans-105"/>
     <use x="186.816406" xlink:href="#DejaVuSans-110"/>
     <use x="250.195312" xlink:href="#DejaVuSans-115"/>
     <use x="302.294922" xlink:href="#DejaVuSans-116"/>
     <use x="341.503906" xlink:href="#DejaVuSans-97"/>
     <use x="402.783203" xlink:href="#DejaVuSans-110"/>
     <use x="466.162109" xlink:href="#DejaVuSans-99"/>
     <use x="521.142578" xlink:href="#DejaVuSans-101"/>
     <use x="582.666016" xlink:href="#DejaVuSans-115"/>
    </g>
   </g>
   <g id="text_18">
    <!-- v2.4.19, hv-hash=ff0e71e8cd978373 -->
    <g style="fill:#808080;" transform="translate(104.697125 294.151352)scale(0.1 -0.1)">
     <defs>
      <path d="M 10.984375 1.515625 
L 10.984375 10.5 
Q 14.703125 8.734375 18.5 7.8125 
Q 22.3125 6.890625 25.984375 6.890625 
Q 35.75 6.890625 40.890625 13.453125 
Q 46.046875 20.015625 46.78125 33.40625 
Q 43.953125 29.203125 39.59375 26.953125 
Q 35.25 24.703125 29.984375 24.703125 
Q 19.046875 24.703125 12.671875 31.3125 
Q 6.296875 37.9375 6.296875 49.421875 
Q 6.296875 60.640625 12.9375 67.421875 
Q 19.578125 74.21875 30.609375 74.21875 
Q 43.265625 74.21875 49.921875 64.515625 
Q 56.59375 54.828125 56.59375 36.375 
Q 56.59375 19.140625 48.40625 8.859375 
Q 40.234375 -1.421875 26.421875 -1.421875 
Q 22.703125 -1.421875 18.890625 -0.6875 
Q 15.09375 0.046875 10.984375 1.515625 
z
M 30.609375 32.421875 
Q 37.25 32.421875 41.125 36.953125 
Q 45.015625 41.5 45.015625 49.421875 
Q 45.015625 57.28125 41.125 61.84375 
Q 37.25 66.40625 30.609375 66.40625 
Q 23.96875 66.40625 20.09375 61.84375 
Q 16.21875 57.28125 16.21875 49.421875 
Q 16.21875 41.5 20.09375 36.953125 
Q 23.96875 32.421875 30.609375 32.421875 
z
" id="DejaVuSans-57"/>
      <path d="M 54.890625 33.015625 
L 54.890625 0 
L 45.90625 0 
L 45.90625 32.71875 
Q 45.90625 40.484375 42.875 44.328125 
Q 39.84375 48.1875 33.796875 48.1875 
Q 26.515625 48.1875 22.3125 43.546875 
Q 18.109375 38.921875 18.109375 30.90625 
L 18.109375 0 
L 9.078125 0 
L 9.078125 75.984375 
L 18.109375 75.984375 
L 18.109375 46.1875 
Q 21.34375 51.125 25.703125 53.5625 
Q 30.078125 56 35.796875 56 
Q 45.21875 56 50.046875 50.171875 
Q 54.890625 44.34375 54.890625 33.015625 
z
" id="DejaVuSans-104"/>
      <path d="M 10.59375 45.40625 
L 73.1875 45.40625 
L 73.1875 37.203125 
L 10.59375 37.203125 
z
M 10.59375 25.484375 
L 73.1875 25.484375 
L 73.1875 17.1875 
L 10.59375 17.1875 
z
" id="DejaVuSans-61"/>
      <path d="M 8.203125 72.90625 
L 55.078125 72.90625 
L 55.078125 68.703125 
L 28.609375 0 
L 18.3125 0 
L 43.21875 64.59375 
L 8.203125 64.59375 
z
" id="DejaVuSans-55"/>
     </defs>
     <use xlink:href="#DejaVuSans-118"/>
     <use x="59.179688" xlink:href="#DejaVuSans-50"/>
     <use x="122.802734" xlink:href="#DejaVuSans-46"/>
     <use x="154.589844" xlink:href="#DejaVuSans-52"/>
     <use x="218.212891" xlink:href="#DejaVuSans-46"/>
     <use x="250" xlink:href="#DejaVuSans-49"/>
     <use x="313.623047" xlink:href="#DejaVuSans-57"/>
     <use x="377.246094" xlink:href="#DejaVuSans-44"/>
     <use x="409.033203" xlink:href="#DejaVuSans-32"/>
     <use x="440.820312" xlink:href="#DejaVuSans-104"/>
     <use x="504.199219" xlink:href="#DejaVuSans-118"/>
     <use x="560.753906" xlink:href="#DejaVuSans-45"/>
     <use x="596.837891" xlink:href="#DejaVuSans-104"/>
     <use x="660.216797" xlink:href="#DejaVuSans-97"/>
     <use x="721.496094" xlink:href="#DejaVuSans-115"/>
     <use x="773.595703" xlink:href="#DejaVuSans-104"/>
     <use x="836.974609" xlink:href="#DejaVuSans-61"/>
     <use x="920.763672" xlink:href="#DejaVuSans-102"/>
     <use x="955.96875" xlink:href="#DejaVuSans-102"/>
     <use x="991.173828" xlink:href="#DejaVuSans-48"/>
     <use x="1054.796875" xlink:href="#DejaVuSans-101"/>
     <use x="1116.320312" xlink:href="#DejaVuSans-55"/>
     <use x="1179.943359" xlink:href="#DejaVuSans-49"/>
     <use x="1243.566406" xlink:href="#DejaVuSans-101"/>
     <use x="1305.089844" xlink:href="#DejaVuSans-56"/>
     <use x="1368.712891" xlink:href="#DejaVuSans-99"/>
     <use x="1423.693359" xlink:href="#DejaVuSans-100"/>
     <use x="1487.169922" xlink:href="#DejaVuSans-57"/>
     <use x="1550.792969" xlink:href="#DejaVuSans-55"/>
     <use x="1614.416016" xlink:href="#DejaVuSans-56"/>
     <use x="1678.039062" xlink:href="#DejaVuSans-51"/>
     <use x="1741.662109" xlink:href="#DejaVuSans-55"/>
     <use x="1805.285156" xlink:href="#DejaVuSans-51"/>
    </g>
   </g>
   <g id="text_19">
    <!-- 21 Attr. sector/Rosenbrock -->
    <g transform="translate(65.840875 21.648)scale(0.2 -0.2)">
     <defs>
      <path d="M 44.390625 34.1875 
Q 47.5625 33.109375 50.5625 29.59375 
Q 53.5625 26.078125 56.59375 19.921875 
L 66.609375 0 
L 56 0 
L 46.6875 18.703125 
Q 43.0625 26.03125 39.671875 28.421875 
Q 36.28125 30.8125 30.421875 30.8125 
L 19.671875 30.8125 
L 19.671875 0 
L 9.8125 0 
L 9.8125 72.90625 
L 32.078125 72.90625 
Q 44.578125 72.90625 50.734375 67.671875 
Q 56.890625 62.453125 56.890625 51.90625 
Q 56.890625 45.015625 53.6875 40.46875 
Q 50.484375 35.9375 44.390625 34.1875 
z
M 19.671875 64.796875 
L 19.671875 38.921875 
L 32.078125 38.921875 
Q 39.203125 38.921875 42.84375 42.21875 
Q 46.484375 45.515625 46.484375 51.90625 
Q 46.484375 58.296875 42.84375 61.546875 
Q 39.203125 64.796875 32.078125 64.796875 
z
" id="DejaVuSans-82"/>
      <path d="M 9.078125 75.984375 
L 18.109375 75.984375 
L 18.109375 31.109375 
L 44.921875 54.6875 
L 56.390625 54.6875 
L 27.390625 29.109375 
L 57.625 0 
L 45.90625 0 
L 18.109375 26.703125 
L 18.109375 0 
L 9.078125 0 
z
" id="DejaVuSans-107"/>
     </defs>
     <use xlink:href="#DejaVuSans-50"/>
     <use x="63.623047" xlink:href="#DejaVuSans-49"/>
     <use x="127.246094" xlink:href="#DejaVuSans-32"/>
     <use x="159.033203" xlink:href="#DejaVuSans-65"/>
     <use x="225.691406" xlink:href="#DejaVuSans-116"/>
     <use x="264.900391" xlink:href="#DejaVuSans-116"/>
     <use x="304.109375" xlink:href="#DejaVuSans-114"/>
     <use x="336.097656" xlink:href="#DejaVuSans-46"/>
     <use x="367.884766" xlink:href="#DejaVuSans-32"/>
     <use x="399.671875" xlink:href="#DejaVuSans-115"/>
     <use x="451.771484" xlink:href="#DejaVuSans-101"/>
     <use x="513.294922" xlink:href="#DejaVuSans-99"/>
     <use x="568.275391" xlink:href="#DejaVuSans-116"/>
     <use x="607.484375" xlink:href="#DejaVuSans-111"/>
     <use x="668.666016" xlink:href="#DejaVuSans-114"/>
     <use x="709.779297" xlink:href="#DejaVuSans-47"/>
     <use x="743.470703" xlink:href="#DejaVuSans-82"/>
     <use x="808.453125" xlink:href="#DejaVuSans-111"/>
     <use x="869.634766" xlink:href="#DejaVuSans-115"/>
     <use x="921.734375" xlink:href="#DejaVuSans-101"/>
     <use x="983.257812" xlink:href="#DejaVuSans-110"/>
     <use x="1046.636719" xlink:href="#DejaVuSans-98"/>
     <use x="1110.113281" xlink:href="#DejaVuSans-114"/>
     <use x="1148.976562" xlink:href="#DejaVuSans-111"/>
     <use x="1210.158203" xlink:href="#DejaVuSans-99"/>
     <use x="1265.138672" xlink:href="#DejaVuSans-107"/>
    </g>
   </g>
  </g>
 </g>
 <defs>
  <clipPath id="p7648323e20">
   <rect height="271.296" width="281.088" x="57.6" y="27.648"/>
  </clipPath>
 </defs>
</svg>
