<?xml version="1.0" encoding="utf-8" standalone="no"?>
<!DOCTYPE svg PUBLIC "-//W3C//DTD SVG 1.1//EN"
  "http://www.w3.org/Graphics/SVG/1.1/DTD/svg11.dtd">
<!-- Created with matplotlib (https://matplotlib.org/) -->
<svg height="345.6pt" version="1.1" viewBox="0 0 460.8 345.6" width="460.8pt" xmlns="http://www.w3.org/2000/svg" xmlns:xlink="http://www.w3.org/1999/xlink">
 <metadata>
  <rdf:RDF xmlns:cc="http://creativecommons.org/ns#" xmlns:dc="http://purl.org/dc/elements/1.1/" xmlns:rdf="http://www.w3.org/1999/02/22-rdf-syntax-ns#">
   <cc:Work>
    <dc:type rdf:resource="http://purl.org/dc/dcmitype/StillImage"/>
    <dc:date>2021-04-26T15:04:12.812105</dc:date>
    <dc:format>image/svg+xml</dc:format>
    <dc:creator>
     <cc:Agent>
      <dc:title>Matplotlib v3.3.2, https://matplotlib.org/</dc:title>
     </cc:Agent>
    </dc:creator>
   </cc:Work>
  </rdf:RDF>
 </metadata>
 <defs>
  <style type="text/css">*{stroke-linecap:butt;stroke-linejoin:round;}</style>
 </defs>
 <g id="figure_1">
  <g id="patch_1">
   <path d="M 0 345.6 
L 460.8 345.6 
L 460.8 0 
L 0 0 
z
" style="fill:#ffffff;"/>
  </g>
  <g id="axes_1">
   <g id="patch_2">
    <path d="M 57.6 298.944 
L 338.688 298.944 
L 338.688 27.648 
L 57.6 27.648 
z
" style="fill:#ffffff;"/>
   </g>
   <g id="line2d_1">
    <path d="M 48.691568 298.944 
L 48.691568 294.312795 
L 65.796525 294.312795 
L 65.796525 285.050384 
L 81.775977 285.050384 
L 81.775977 275.787974 
L 92.504372 275.787974 
L 92.504372 271.156769 
L 98.100772 271.156769 
L 98.100772 257.263153 
L 104.355088 257.263153 
L 104.355088 248.000743 
L 110.694282 248.000743 
L 110.694282 243.369538 
L 118.994305 243.369538 
L 118.994305 234.107127 
L 127.100304 234.107127 
L 127.100304 220.213512 
L 135.240011 220.213512 
L 135.240011 210.951101 
L 143.47714 210.951101 
L 143.47714 201.688691 
L 149.232356 201.688691 
L 149.232356 192.426281 
L 155.128803 192.426281 
L 155.128803 187.795075 
L 161.329454 187.795075 
L 161.329454 173.90146 
L 167.442734 173.90146 
L 167.442734 169.270255 
L 174.069872 169.270255 
L 174.069872 155.376639 
L 187.138572 155.376639 
L 187.138572 146.114229 
L 195.839286 146.114229 
L 195.839286 141.483024 
L 202.648196 141.483024 
L 202.648196 127.589408 
L 210.404421 127.589408 
L 210.404421 122.958203 
L 217.748681 122.958203 
L 217.748681 109.064587 
L 224.79005 109.064587 
L 224.79005 99.802177 
L 233.003559 99.802177 
L 233.003559 90.539766 
L 241.841316 90.539766 
L 241.841316 85.908561 
L 249.592497 85.908561 
L 249.592497 76.646151 
L 255.83396 76.646151 
L 255.83396 62.752535 
L 338.688 62.752535 
" style="fill:none;stroke:#f5deb3;stroke-linecap:square;stroke-width:4;"/>
   </g>
   <g id="line2d_2">
    <defs>
     <path d="M 0 7.778175 
L 7.778175 0 
L 0 -7.778175 
L -7.778175 0 
z
" id="mfe211523f9" style="stroke:#f5deb3;stroke-linejoin:miter;stroke-width:1.5;"/>
    </defs>
    <g>
     <use style="fill:#f5deb3;stroke:#f5deb3;stroke-linejoin:miter;stroke-width:1.5;" x="104.355088" xlink:href="#mfe211523f9" y="248.000743"/>
     <use style="fill:#f5deb3;stroke:#f5deb3;stroke-linejoin:miter;stroke-width:1.5;" x="155.128803" xlink:href="#mfe211523f9" y="192.426281"/>
     <use style="fill:#f5deb3;stroke:#f5deb3;stroke-linejoin:miter;stroke-width:1.5;" x="224.79005" xlink:href="#mfe211523f9" y="109.064587"/>
     <use style="fill:#f5deb3;stroke:#f5deb3;stroke-linejoin:miter;stroke-width:1.5;" x="255.83396" xlink:href="#mfe211523f9" y="62.752535"/>
     <use style="fill:#f5deb3;stroke:#f5deb3;stroke-linejoin:miter;stroke-width:1.5;" x="255.83396" xlink:href="#mfe211523f9" y="62.752535"/>
     <use style="fill:#f5deb3;stroke:#f5deb3;stroke-linejoin:miter;stroke-width:1.5;" x="338.688" xlink:href="#mfe211523f9" y="62.752535"/>
    </g>
   </g>
   <g id="line2d_3">
    <path style="fill:none;stroke:#f5deb3;stroke-linecap:square;stroke-width:4;"/>
    <g/>
   </g>
   <g id="line2d_4">
    <path d="M 338.688 62.752535 
L 369.60768 35.706297 
" style="fill:none;stroke:#f5deb3;stroke-linecap:square;stroke-width:4;"/>
    <g>
     <use style="fill:#f5deb3;stroke:#f5deb3;stroke-linejoin:miter;stroke-width:1.5;" x="338.688" xlink:href="#mfe211523f9" y="62.752535"/>
     <use style="fill:#f5deb3;stroke:#f5deb3;stroke-linejoin:miter;stroke-width:1.5;" x="369.60768" xlink:href="#mfe211523f9" y="35.706297"/>
    </g>
   </g>
   <g id="matplotlib.axis_1">
    <g id="xtick_1">
     <g id="line2d_5">
      <path clip-path="url(#p1a57b6fd2d)" d="M 57.6 298.944 
L 57.6 27.648 
" style="fill:none;stroke:#b0b0b0;stroke-linecap:square;stroke-width:0.8;"/>
     </g>
     <g id="line2d_6">
      <defs>
       <path d="M 0 0 
L 0 3.5 
" id="mff0d774c17" style="stroke:#000000;stroke-width:0.8;"/>
      </defs>
      <g>
       <use style="stroke:#000000;stroke-width:0.8;" x="57.6" xlink:href="#mff0d774c17" y="298.944"/>
      </g>
     </g>
     <g id="text_1">
      <!-- 0 -->
      <g transform="translate(51.2375 321.140875)scale(0.2 -0.2)">
       <defs>
        <path d="M 31.78125 66.40625 
Q 24.171875 66.40625 20.328125 58.90625 
Q 16.5 51.421875 16.5 36.375 
Q 16.5 21.390625 20.328125 13.890625 
Q 24.171875 6.390625 31.78125 6.390625 
Q 39.453125 6.390625 43.28125 13.890625 
Q 47.125 21.390625 47.125 36.375 
Q 47.125 51.421875 43.28125 58.90625 
Q 39.453125 66.40625 31.78125 66.40625 
z
M 31.78125 74.21875 
Q 44.046875 74.21875 50.515625 64.515625 
Q 56.984375 54.828125 56.984375 36.375 
Q 56.984375 17.96875 50.515625 8.265625 
Q 44.046875 -1.421875 31.78125 -1.421875 
Q 19.53125 -1.421875 13.0625 8.265625 
Q 6.59375 17.96875 6.59375 36.375 
Q 6.59375 54.828125 13.0625 64.515625 
Q 19.53125 74.21875 31.78125 74.21875 
z
" id="DejaVuSans-48"/>
       </defs>
       <use xlink:href="#DejaVuSans-48"/>
      </g>
     </g>
    </g>
    <g id="xtick_2">
     <g id="line2d_7">
      <path clip-path="url(#p1a57b6fd2d)" d="M 137.910857 298.944 
L 137.910857 27.648 
" style="fill:none;stroke:#b0b0b0;stroke-linecap:square;stroke-width:0.8;"/>
     </g>
     <g id="line2d_8">
      <g>
       <use style="stroke:#000000;stroke-width:0.8;" x="137.910857" xlink:href="#mff0d774c17" y="298.944"/>
      </g>
     </g>
     <g id="text_2">
      <!-- 2 -->
      <g transform="translate(131.548357 321.140875)scale(0.2 -0.2)">
       <defs>
        <path d="M 19.1875 8.296875 
L 53.609375 8.296875 
L 53.609375 0 
L 7.328125 0 
L 7.328125 8.296875 
Q 12.9375 14.109375 22.625 23.890625 
Q 32.328125 33.6875 34.8125 36.53125 
Q 39.546875 41.84375 41.421875 45.53125 
Q 43.3125 49.21875 43.3125 52.78125 
Q 43.3125 58.59375 39.234375 62.25 
Q 35.15625 65.921875 28.609375 65.921875 
Q 23.96875 65.921875 18.8125 64.3125 
Q 13.671875 62.703125 7.8125 59.421875 
L 7.8125 69.390625 
Q 13.765625 71.78125 18.9375 73 
Q 24.125 74.21875 28.421875 74.21875 
Q 39.75 74.21875 46.484375 68.546875 
Q 53.21875 62.890625 53.21875 53.421875 
Q 53.21875 48.921875 51.53125 44.890625 
Q 49.859375 40.875 45.40625 35.40625 
Q 44.1875 33.984375 37.640625 27.21875 
Q 31.109375 20.453125 19.1875 8.296875 
z
" id="DejaVuSans-50"/>
       </defs>
       <use xlink:href="#DejaVuSans-50"/>
      </g>
     </g>
    </g>
    <g id="xtick_3">
     <g id="line2d_9">
      <path clip-path="url(#p1a57b6fd2d)" d="M 218.221714 298.944 
L 218.221714 27.648 
" style="fill:none;stroke:#b0b0b0;stroke-linecap:square;stroke-width:0.8;"/>
     </g>
     <g id="line2d_10">
      <g>
       <use style="stroke:#000000;stroke-width:0.8;" x="218.221714" xlink:href="#mff0d774c17" y="298.944"/>
      </g>
     </g>
     <g id="text_3">
      <!-- 4 -->
      <g transform="translate(211.859214 321.140875)scale(0.2 -0.2)">
       <defs>
        <path d="M 37.796875 64.3125 
L 12.890625 25.390625 
L 37.796875 25.390625 
z
M 35.203125 72.90625 
L 47.609375 72.90625 
L 47.609375 25.390625 
L 58.015625 25.390625 
L 58.015625 17.1875 
L 47.609375 17.1875 
L 47.609375 0 
L 37.796875 0 
L 37.796875 17.1875 
L 4.890625 17.1875 
L 4.890625 26.703125 
z
" id="DejaVuSans-52"/>
       </defs>
       <use xlink:href="#DejaVuSans-52"/>
      </g>
     </g>
    </g>
    <g id="xtick_4">
     <g id="line2d_11">
      <path clip-path="url(#p1a57b6fd2d)" d="M 298.532571 298.944 
L 298.532571 27.648 
" style="fill:none;stroke:#b0b0b0;stroke-linecap:square;stroke-width:0.8;"/>
     </g>
     <g id="line2d_12">
      <g>
       <use style="stroke:#000000;stroke-width:0.8;" x="298.532571" xlink:href="#mff0d774c17" y="298.944"/>
      </g>
     </g>
     <g id="text_4">
      <!-- 6 -->
      <g transform="translate(292.170071 321.140875)scale(0.2 -0.2)">
       <defs>
        <path d="M 33.015625 40.375 
Q 26.375 40.375 22.484375 35.828125 
Q 18.609375 31.296875 18.609375 23.390625 
Q 18.609375 15.53125 22.484375 10.953125 
Q 26.375 6.390625 33.015625 6.390625 
Q 39.65625 6.390625 43.53125 10.953125 
Q 47.40625 15.53125 47.40625 23.390625 
Q 47.40625 31.296875 43.53125 35.828125 
Q 39.65625 40.375 33.015625 40.375 
z
M 52.59375 71.296875 
L 52.59375 62.3125 
Q 48.875 64.0625 45.09375 64.984375 
Q 41.3125 65.921875 37.59375 65.921875 
Q 27.828125 65.921875 22.671875 59.328125 
Q 17.53125 52.734375 16.796875 39.40625 
Q 19.671875 43.65625 24.015625 45.921875 
Q 28.375 48.1875 33.59375 48.1875 
Q 44.578125 48.1875 50.953125 41.515625 
Q 57.328125 34.859375 57.328125 23.390625 
Q 57.328125 12.15625 50.6875 5.359375 
Q 44.046875 -1.421875 33.015625 -1.421875 
Q 20.359375 -1.421875 13.671875 8.265625 
Q 6.984375 17.96875 6.984375 36.375 
Q 6.984375 53.65625 15.1875 63.9375 
Q 23.390625 74.21875 37.203125 74.21875 
Q 40.921875 74.21875 44.703125 73.484375 
Q 48.484375 72.75 52.59375 71.296875 
z
" id="DejaVuSans-54"/>
       </defs>
       <use xlink:href="#DejaVuSans-54"/>
      </g>
     </g>
    </g>
    <g id="xtick_5">
     <g id="line2d_13">
      <path clip-path="url(#p1a57b6fd2d)" d="M 97.755429 298.944 
L 97.755429 27.648 
" style="fill:none;stroke:#b0b0b0;stroke-linecap:square;stroke-width:0.8;"/>
     </g>
     <g id="line2d_14">
      <defs>
       <path d="M 0 0 
L 0 2 
" id="m0c29a2c232" style="stroke:#000000;stroke-width:0.6;"/>
      </defs>
      <g>
       <use style="stroke:#000000;stroke-width:0.6;" x="97.755429" xlink:href="#m0c29a2c232" y="298.944"/>
      </g>
     </g>
    </g>
    <g id="xtick_6">
     <g id="line2d_15">
      <path clip-path="url(#p1a57b6fd2d)" d="M 178.066286 298.944 
L 178.066286 27.648 
" style="fill:none;stroke:#b0b0b0;stroke-linecap:square;stroke-width:0.8;"/>
     </g>
     <g id="line2d_16">
      <g>
       <use style="stroke:#000000;stroke-width:0.6;" x="178.066286" xlink:href="#m0c29a2c232" y="298.944"/>
      </g>
     </g>
    </g>
    <g id="xtick_7">
     <g id="line2d_17">
      <path clip-path="url(#p1a57b6fd2d)" d="M 258.377143 298.944 
L 258.377143 27.648 
" style="fill:none;stroke:#b0b0b0;stroke-linecap:square;stroke-width:0.8;"/>
     </g>
     <g id="line2d_18">
      <g>
       <use style="stroke:#000000;stroke-width:0.6;" x="258.377143" xlink:href="#m0c29a2c232" y="298.944"/>
      </g>
     </g>
    </g>
    <g id="xtick_8">
     <g id="line2d_19">
      <path clip-path="url(#p1a57b6fd2d)" d="M 338.688 298.944 
L 338.688 27.648 
" style="fill:none;stroke:#b0b0b0;stroke-linecap:square;stroke-width:0.8;"/>
     </g>
     <g id="line2d_20">
      <g>
       <use style="stroke:#000000;stroke-width:0.6;" x="338.688" xlink:href="#m0c29a2c232" y="298.944"/>
      </g>
     </g>
    </g>
    <g id="text_5">
     <!-- log10(# f-evals / dimension) -->
     <g transform="translate(77.764078 342.217594)scale(0.17 -0.17)">
      <defs>
       <path d="M 9.421875 75.984375 
L 18.40625 75.984375 
L 18.40625 0 
L 9.421875 0 
z
" id="DejaVuSans-108"/>
       <path d="M 30.609375 48.390625 
Q 23.390625 48.390625 19.1875 42.75 
Q 14.984375 37.109375 14.984375 27.296875 
Q 14.984375 17.484375 19.15625 11.84375 
Q 23.34375 6.203125 30.609375 6.203125 
Q 37.796875 6.203125 41.984375 11.859375 
Q 46.1875 17.53125 46.1875 27.296875 
Q 46.1875 37.015625 41.984375 42.703125 
Q 37.796875 48.390625 30.609375 48.390625 
z
M 30.609375 56 
Q 42.328125 56 49.015625 48.375 
Q 55.71875 40.765625 55.71875 27.296875 
Q 55.71875 13.875 49.015625 6.21875 
Q 42.328125 -1.421875 30.609375 -1.421875 
Q 18.84375 -1.421875 12.171875 6.21875 
Q 5.515625 13.875 5.515625 27.296875 
Q 5.515625 40.765625 12.171875 48.375 
Q 18.84375 56 30.609375 56 
z
" id="DejaVuSans-111"/>
       <path d="M 45.40625 27.984375 
Q 45.40625 37.75 41.375 43.109375 
Q 37.359375 48.484375 30.078125 48.484375 
Q 22.859375 48.484375 18.828125 43.109375 
Q 14.796875 37.75 14.796875 27.984375 
Q 14.796875 18.265625 18.828125 12.890625 
Q 22.859375 7.515625 30.078125 7.515625 
Q 37.359375 7.515625 41.375 12.890625 
Q 45.40625 18.265625 45.40625 27.984375 
z
M 54.390625 6.78125 
Q 54.390625 -7.171875 48.1875 -13.984375 
Q 42 -20.796875 29.203125 -20.796875 
Q 24.46875 -20.796875 20.265625 -20.09375 
Q 16.0625 -19.390625 12.109375 -17.921875 
L 12.109375 -9.1875 
Q 16.0625 -11.328125 19.921875 -12.34375 
Q 23.78125 -13.375 27.78125 -13.375 
Q 36.625 -13.375 41.015625 -8.765625 
Q 45.40625 -4.15625 45.40625 5.171875 
L 45.40625 9.625 
Q 42.625 4.78125 38.28125 2.390625 
Q 33.9375 0 27.875 0 
Q 17.828125 0 11.671875 7.65625 
Q 5.515625 15.328125 5.515625 27.984375 
Q 5.515625 40.671875 11.671875 48.328125 
Q 17.828125 56 27.875 56 
Q 33.9375 56 38.28125 53.609375 
Q 42.625 51.21875 45.40625 46.390625 
L 45.40625 54.6875 
L 54.390625 54.6875 
z
" id="DejaVuSans-103"/>
       <path d="M 12.40625 8.296875 
L 28.515625 8.296875 
L 28.515625 63.921875 
L 10.984375 60.40625 
L 10.984375 69.390625 
L 28.421875 72.90625 
L 38.28125 72.90625 
L 38.28125 8.296875 
L 54.390625 8.296875 
L 54.390625 0 
L 12.40625 0 
z
" id="DejaVuSans-49"/>
       <path d="M 31 75.875 
Q 24.46875 64.65625 21.28125 53.65625 
Q 18.109375 42.671875 18.109375 31.390625 
Q 18.109375 20.125 21.3125 9.0625 
Q 24.515625 -2 31 -13.1875 
L 23.1875 -13.1875 
Q 15.875 -1.703125 12.234375 9.375 
Q 8.59375 20.453125 8.59375 31.390625 
Q 8.59375 42.28125 12.203125 53.3125 
Q 15.828125 64.359375 23.1875 75.875 
z
" id="DejaVuSans-40"/>
       <path d="M 51.125 44 
L 36.921875 44 
L 32.8125 27.6875 
L 47.125 27.6875 
z
M 43.796875 71.78125 
L 38.71875 51.515625 
L 52.984375 51.515625 
L 58.109375 71.78125 
L 65.921875 71.78125 
L 60.890625 51.515625 
L 76.125 51.515625 
L 76.125 44 
L 58.984375 44 
L 54.984375 27.6875 
L 70.515625 27.6875 
L 70.515625 20.21875 
L 53.078125 20.21875 
L 48 0 
L 40.1875 0 
L 45.21875 20.21875 
L 30.90625 20.21875 
L 25.875 0 
L 18.015625 0 
L 23.09375 20.21875 
L 7.71875 20.21875 
L 7.71875 27.6875 
L 24.90625 27.6875 
L 29 44 
L 13.28125 44 
L 13.28125 51.515625 
L 30.90625 51.515625 
L 35.890625 71.78125 
z
" id="DejaVuSans-35"/>
       <path id="DejaVuSans-32"/>
       <path d="M 37.109375 75.984375 
L 37.109375 68.5 
L 28.515625 68.5 
Q 23.6875 68.5 21.796875 66.546875 
Q 19.921875 64.59375 19.921875 59.515625 
L 19.921875 54.6875 
L 34.71875 54.6875 
L 34.71875 47.703125 
L 19.921875 47.703125 
L 19.921875 0 
L 10.890625 0 
L 10.890625 47.703125 
L 2.296875 47.703125 
L 2.296875 54.6875 
L 10.890625 54.6875 
L 10.890625 58.5 
Q 10.890625 67.625 15.140625 71.796875 
Q 19.390625 75.984375 28.609375 75.984375 
z
" id="DejaVuSans-102"/>
       <path d="M 4.890625 31.390625 
L 31.203125 31.390625 
L 31.203125 23.390625 
L 4.890625 23.390625 
z
" id="DejaVuSans-45"/>
       <path d="M 56.203125 29.59375 
L 56.203125 25.203125 
L 14.890625 25.203125 
Q 15.484375 15.921875 20.484375 11.0625 
Q 25.484375 6.203125 34.421875 6.203125 
Q 39.59375 6.203125 44.453125 7.46875 
Q 49.3125 8.734375 54.109375 11.28125 
L 54.109375 2.78125 
Q 49.265625 0.734375 44.1875 -0.34375 
Q 39.109375 -1.421875 33.890625 -1.421875 
Q 20.796875 -1.421875 13.15625 6.1875 
Q 5.515625 13.8125 5.515625 26.8125 
Q 5.515625 40.234375 12.765625 48.109375 
Q 20.015625 56 32.328125 56 
Q 43.359375 56 49.78125 48.890625 
Q 56.203125 41.796875 56.203125 29.59375 
z
M 47.21875 32.234375 
Q 47.125 39.59375 43.09375 43.984375 
Q 39.0625 48.390625 32.421875 48.390625 
Q 24.90625 48.390625 20.390625 44.140625 
Q 15.875 39.890625 15.1875 32.171875 
z
" id="DejaVuSans-101"/>
       <path d="M 2.984375 54.6875 
L 12.5 54.6875 
L 29.59375 8.796875 
L 46.6875 54.6875 
L 56.203125 54.6875 
L 35.6875 0 
L 23.484375 0 
z
" id="DejaVuSans-118"/>
       <path d="M 34.28125 27.484375 
Q 23.390625 27.484375 19.1875 25 
Q 14.984375 22.515625 14.984375 16.5 
Q 14.984375 11.71875 18.140625 8.90625 
Q 21.296875 6.109375 26.703125 6.109375 
Q 34.1875 6.109375 38.703125 11.40625 
Q 43.21875 16.703125 43.21875 25.484375 
L 43.21875 27.484375 
z
M 52.203125 31.203125 
L 52.203125 0 
L 43.21875 0 
L 43.21875 8.296875 
Q 40.140625 3.328125 35.546875 0.953125 
Q 30.953125 -1.421875 24.3125 -1.421875 
Q 15.921875 -1.421875 10.953125 3.296875 
Q 6 8.015625 6 15.921875 
Q 6 25.140625 12.171875 29.828125 
Q 18.359375 34.515625 30.609375 34.515625 
L 43.21875 34.515625 
L 43.21875 35.40625 
Q 43.21875 41.609375 39.140625 45 
Q 35.0625 48.390625 27.6875 48.390625 
Q 23 48.390625 18.546875 47.265625 
Q 14.109375 46.140625 10.015625 43.890625 
L 10.015625 52.203125 
Q 14.9375 54.109375 19.578125 55.046875 
Q 24.21875 56 28.609375 56 
Q 40.484375 56 46.34375 49.84375 
Q 52.203125 43.703125 52.203125 31.203125 
z
" id="DejaVuSans-97"/>
       <path d="M 44.28125 53.078125 
L 44.28125 44.578125 
Q 40.484375 46.53125 36.375 47.5 
Q 32.28125 48.484375 27.875 48.484375 
Q 21.1875 48.484375 17.84375 46.4375 
Q 14.5 44.390625 14.5 40.28125 
Q 14.5 37.15625 16.890625 35.375 
Q 19.28125 33.59375 26.515625 31.984375 
L 29.59375 31.296875 
Q 39.15625 29.25 43.1875 25.515625 
Q 47.21875 21.78125 47.21875 15.09375 
Q 47.21875 7.46875 41.1875 3.015625 
Q 35.15625 -1.421875 24.609375 -1.421875 
Q 20.21875 -1.421875 15.453125 -0.5625 
Q 10.6875 0.296875 5.421875 2 
L 5.421875 11.28125 
Q 10.40625 8.6875 15.234375 7.390625 
Q 20.0625 6.109375 24.8125 6.109375 
Q 31.15625 6.109375 34.5625 8.28125 
Q 37.984375 10.453125 37.984375 14.40625 
Q 37.984375 18.0625 35.515625 20.015625 
Q 33.0625 21.96875 24.703125 23.78125 
L 21.578125 24.515625 
Q 13.234375 26.265625 9.515625 29.90625 
Q 5.8125 33.546875 5.8125 39.890625 
Q 5.8125 47.609375 11.28125 51.796875 
Q 16.75 56 26.8125 56 
Q 31.78125 56 36.171875 55.265625 
Q 40.578125 54.546875 44.28125 53.078125 
z
" id="DejaVuSans-115"/>
       <path d="M 25.390625 72.90625 
L 33.6875 72.90625 
L 8.296875 -9.28125 
L 0 -9.28125 
z
" id="DejaVuSans-47"/>
       <path d="M 45.40625 46.390625 
L 45.40625 75.984375 
L 54.390625 75.984375 
L 54.390625 0 
L 45.40625 0 
L 45.40625 8.203125 
Q 42.578125 3.328125 38.25 0.953125 
Q 33.9375 -1.421875 27.875 -1.421875 
Q 17.96875 -1.421875 11.734375 6.484375 
Q 5.515625 14.40625 5.515625 27.296875 
Q 5.515625 40.1875 11.734375 48.09375 
Q 17.96875 56 27.875 56 
Q 33.9375 56 38.25 53.625 
Q 42.578125 51.265625 45.40625 46.390625 
z
M 14.796875 27.296875 
Q 14.796875 17.390625 18.875 11.75 
Q 22.953125 6.109375 30.078125 6.109375 
Q 37.203125 6.109375 41.296875 11.75 
Q 45.40625 17.390625 45.40625 27.296875 
Q 45.40625 37.203125 41.296875 42.84375 
Q 37.203125 48.484375 30.078125 48.484375 
Q 22.953125 48.484375 18.875 42.84375 
Q 14.796875 37.203125 14.796875 27.296875 
z
" id="DejaVuSans-100"/>
       <path d="M 9.421875 54.6875 
L 18.40625 54.6875 
L 18.40625 0 
L 9.421875 0 
z
M 9.421875 75.984375 
L 18.40625 75.984375 
L 18.40625 64.59375 
L 9.421875 64.59375 
z
" id="DejaVuSans-105"/>
       <path d="M 52 44.1875 
Q 55.375 50.25 60.0625 53.125 
Q 64.75 56 71.09375 56 
Q 79.640625 56 84.28125 50.015625 
Q 88.921875 44.046875 88.921875 33.015625 
L 88.921875 0 
L 79.890625 0 
L 79.890625 32.71875 
Q 79.890625 40.578125 77.09375 44.375 
Q 74.3125 48.1875 68.609375 48.1875 
Q 61.625 48.1875 57.5625 43.546875 
Q 53.515625 38.921875 53.515625 30.90625 
L 53.515625 0 
L 44.484375 0 
L 44.484375 32.71875 
Q 44.484375 40.625 41.703125 44.40625 
Q 38.921875 48.1875 33.109375 48.1875 
Q 26.21875 48.1875 22.15625 43.53125 
Q 18.109375 38.875 18.109375 30.90625 
L 18.109375 0 
L 9.078125 0 
L 9.078125 54.6875 
L 18.109375 54.6875 
L 18.109375 46.1875 
Q 21.1875 51.21875 25.484375 53.609375 
Q 29.78125 56 35.6875 56 
Q 41.65625 56 45.828125 52.96875 
Q 50 49.953125 52 44.1875 
z
" id="DejaVuSans-109"/>
       <path d="M 54.890625 33.015625 
L 54.890625 0 
L 45.90625 0 
L 45.90625 32.71875 
Q 45.90625 40.484375 42.875 44.328125 
Q 39.84375 48.1875 33.796875 48.1875 
Q 26.515625 48.1875 22.3125 43.546875 
Q 18.109375 38.921875 18.109375 30.90625 
L 18.109375 0 
L 9.078125 0 
L 9.078125 54.6875 
L 18.109375 54.6875 
L 18.109375 46.1875 
Q 21.34375 51.125 25.703125 53.5625 
Q 30.078125 56 35.796875 56 
Q 45.21875 56 50.046875 50.171875 
Q 54.890625 44.34375 54.890625 33.015625 
z
" id="DejaVuSans-110"/>
       <path d="M 8.015625 75.875 
L 15.828125 75.875 
Q 23.140625 64.359375 26.78125 53.3125 
Q 30.421875 42.28125 30.421875 31.390625 
Q 30.421875 20.453125 26.78125 9.375 
Q 23.140625 -1.703125 15.828125 -13.1875 
L 8.015625 -13.1875 
Q 14.5 -2 17.703125 9.0625 
Q 20.90625 20.125 20.90625 31.390625 
Q 20.90625 42.671875 17.703125 53.65625 
Q 14.5 64.65625 8.015625 75.875 
z
" id="DejaVuSans-41"/>
      </defs>
      <use xlink:href="#DejaVuSans-108"/>
      <use x="27.783203" xlink:href="#DejaVuSans-111"/>
      <use x="88.964844" xlink:href="#DejaVuSans-103"/>
      <use x="152.441406" xlink:href="#DejaVuSans-49"/>
      <use x="216.064453" xlink:href="#DejaVuSans-48"/>
      <use x="279.6875" xlink:href="#DejaVuSans-40"/>
      <use x="318.701172" xlink:href="#DejaVuSans-35"/>
      <use x="402.490234" xlink:href="#DejaVuSans-32"/>
      <use x="434.277344" xlink:href="#DejaVuSans-102"/>
      <use x="463.982422" xlink:href="#DejaVuSans-45"/>
      <use x="500.066406" xlink:href="#DejaVuSans-101"/>
      <use x="561.589844" xlink:href="#DejaVuSans-118"/>
      <use x="620.769531" xlink:href="#DejaVuSans-97"/>
      <use x="682.048828" xlink:href="#DejaVuSans-108"/>
      <use x="709.832031" xlink:href="#DejaVuSans-115"/>
      <use x="761.931641" xlink:href="#DejaVuSans-32"/>
      <use x="793.71875" xlink:href="#DejaVuSans-47"/>
      <use x="827.410156" xlink:href="#DejaVuSans-32"/>
      <use x="859.197266" xlink:href="#DejaVuSans-100"/>
      <use x="922.673828" xlink:href="#DejaVuSans-105"/>
      <use x="950.457031" xlink:href="#DejaVuSans-109"/>
      <use x="1047.869141" xlink:href="#DejaVuSans-101"/>
      <use x="1109.392578" xlink:href="#DejaVuSans-110"/>
      <use x="1172.771484" xlink:href="#DejaVuSans-115"/>
      <use x="1224.871094" xlink:href="#DejaVuSans-105"/>
      <use x="1252.654297" xlink:href="#DejaVuSans-111"/>
      <use x="1313.835938" xlink:href="#DejaVuSans-110"/>
      <use x="1377.214844" xlink:href="#DejaVuSans-41"/>
     </g>
    </g>
   </g>
   <g id="matplotlib.axis_2">
    <g id="ytick_1">
     <g id="line2d_21">
      <path clip-path="url(#p1a57b6fd2d)" d="M 57.6 298.944 
L 338.688 298.944 
" style="fill:none;stroke:#b0b0b0;stroke-linecap:square;stroke-width:0.8;"/>
     </g>
     <g id="line2d_22">
      <defs>
       <path d="M 0 0 
L -3.5 0 
" id="m5bc02d4892" style="stroke:#000000;stroke-width:0.8;"/>
      </defs>
      <g>
       <use style="stroke:#000000;stroke-width:0.8;" x="57.6" xlink:href="#m5bc02d4892" y="298.944"/>
      </g>
     </g>
     <g id="text_6">
      <!-- 0.0 -->
      <g transform="translate(25.155 305.02275)scale(0.16 -0.16)">
       <defs>
        <path d="M 10.6875 12.40625 
L 21 12.40625 
L 21 0 
L 10.6875 0 
z
" id="DejaVuSans-46"/>
       </defs>
       <use xlink:href="#DejaVuSans-48"/>
       <use x="63.623047" xlink:href="#DejaVuSans-46"/>
       <use x="95.410156" xlink:href="#DejaVuSans-48"/>
      </g>
     </g>
    </g>
    <g id="ytick_2">
     <g id="line2d_23">
      <path clip-path="url(#p1a57b6fd2d)" d="M 57.6 245.22202 
L 338.688 245.22202 
" style="fill:none;stroke:#b0b0b0;stroke-linecap:square;stroke-width:0.8;"/>
     </g>
     <g id="line2d_24">
      <g>
       <use style="stroke:#000000;stroke-width:0.8;" x="57.6" xlink:href="#m5bc02d4892" y="245.22202"/>
      </g>
     </g>
     <g id="text_7">
      <!-- 0.2 -->
      <g transform="translate(25.155 251.30077)scale(0.16 -0.16)">
       <use xlink:href="#DejaVuSans-48"/>
       <use x="63.623047" xlink:href="#DejaVuSans-46"/>
       <use x="95.410156" xlink:href="#DejaVuSans-50"/>
      </g>
     </g>
    </g>
    <g id="ytick_3">
     <g id="line2d_25">
      <path clip-path="url(#p1a57b6fd2d)" d="M 57.6 191.50004 
L 338.688 191.50004 
" style="fill:none;stroke:#b0b0b0;stroke-linecap:square;stroke-width:0.8;"/>
     </g>
     <g id="line2d_26">
      <g>
       <use style="stroke:#000000;stroke-width:0.8;" x="57.6" xlink:href="#m5bc02d4892" y="191.50004"/>
      </g>
     </g>
     <g id="text_8">
      <!-- 0.4 -->
      <g transform="translate(25.155 197.57879)scale(0.16 -0.16)">
       <use xlink:href="#DejaVuSans-48"/>
       <use x="63.623047" xlink:href="#DejaVuSans-46"/>
       <use x="95.410156" xlink:href="#DejaVuSans-52"/>
      </g>
     </g>
    </g>
    <g id="ytick_4">
     <g id="line2d_27">
      <path clip-path="url(#p1a57b6fd2d)" d="M 57.6 137.778059 
L 338.688 137.778059 
" style="fill:none;stroke:#b0b0b0;stroke-linecap:square;stroke-width:0.8;"/>
     </g>
     <g id="line2d_28">
      <g>
       <use style="stroke:#000000;stroke-width:0.8;" x="57.6" xlink:href="#m5bc02d4892" y="137.778059"/>
      </g>
     </g>
     <g id="text_9">
      <!-- 0.6 -->
      <g transform="translate(25.155 143.856809)scale(0.16 -0.16)">
       <use xlink:href="#DejaVuSans-48"/>
       <use x="63.623047" xlink:href="#DejaVuSans-46"/>
       <use x="95.410156" xlink:href="#DejaVuSans-54"/>
      </g>
     </g>
    </g>
    <g id="ytick_5">
     <g id="line2d_29">
      <path clip-path="url(#p1a57b6fd2d)" d="M 57.6 84.056079 
L 338.688 84.056079 
" style="fill:none;stroke:#b0b0b0;stroke-linecap:square;stroke-width:0.8;"/>
     </g>
     <g id="line2d_30">
      <g>
       <use style="stroke:#000000;stroke-width:0.8;" x="57.6" xlink:href="#m5bc02d4892" y="84.056079"/>
      </g>
     </g>
     <g id="text_10">
      <!-- 0.8 -->
      <g transform="translate(25.155 90.134829)scale(0.16 -0.16)">
       <defs>
        <path d="M 31.78125 34.625 
Q 24.75 34.625 20.71875 30.859375 
Q 16.703125 27.09375 16.703125 20.515625 
Q 16.703125 13.921875 20.71875 10.15625 
Q 24.75 6.390625 31.78125 6.390625 
Q 38.8125 6.390625 42.859375 10.171875 
Q 46.921875 13.96875 46.921875 20.515625 
Q 46.921875 27.09375 42.890625 30.859375 
Q 38.875 34.625 31.78125 34.625 
z
M 21.921875 38.8125 
Q 15.578125 40.375 12.03125 44.71875 
Q 8.5 49.078125 8.5 55.328125 
Q 8.5 64.0625 14.71875 69.140625 
Q 20.953125 74.21875 31.78125 74.21875 
Q 42.671875 74.21875 48.875 69.140625 
Q 55.078125 64.0625 55.078125 55.328125 
Q 55.078125 49.078125 51.53125 44.71875 
Q 48 40.375 41.703125 38.8125 
Q 48.828125 37.15625 52.796875 32.3125 
Q 56.78125 27.484375 56.78125 20.515625 
Q 56.78125 9.90625 50.3125 4.234375 
Q 43.84375 -1.421875 31.78125 -1.421875 
Q 19.734375 -1.421875 13.25 4.234375 
Q 6.78125 9.90625 6.78125 20.515625 
Q 6.78125 27.484375 10.78125 32.3125 
Q 14.796875 37.15625 21.921875 38.8125 
z
M 18.3125 54.390625 
Q 18.3125 48.734375 21.84375 45.5625 
Q 25.390625 42.390625 31.78125 42.390625 
Q 38.140625 42.390625 41.71875 45.5625 
Q 45.3125 48.734375 45.3125 54.390625 
Q 45.3125 60.0625 41.71875 63.234375 
Q 38.140625 66.40625 31.78125 66.40625 
Q 25.390625 66.40625 21.84375 63.234375 
Q 18.3125 60.0625 18.3125 54.390625 
z
" id="DejaVuSans-56"/>
       </defs>
       <use xlink:href="#DejaVuSans-48"/>
       <use x="63.623047" xlink:href="#DejaVuSans-46"/>
       <use x="95.410156" xlink:href="#DejaVuSans-56"/>
      </g>
     </g>
    </g>
    <g id="ytick_6">
     <g id="line2d_31">
      <path clip-path="url(#p1a57b6fd2d)" d="M 57.6 30.334099 
L 338.688 30.334099 
" style="fill:none;stroke:#b0b0b0;stroke-linecap:square;stroke-width:0.8;"/>
     </g>
     <g id="line2d_32">
      <g>
       <use style="stroke:#000000;stroke-width:0.8;" x="57.6" xlink:href="#m5bc02d4892" y="30.334099"/>
      </g>
     </g>
     <g id="text_11">
      <!-- 1.0 -->
      <g transform="translate(25.155 36.412849)scale(0.16 -0.16)">
       <use xlink:href="#DejaVuSans-49"/>
       <use x="63.623047" xlink:href="#DejaVuSans-46"/>
       <use x="95.410156" xlink:href="#DejaVuSans-48"/>
      </g>
     </g>
    </g>
    <g id="text_12">
     <!-- Fraction of function,target pairs -->
     <g transform="translate(17.619531 297.681)rotate(-90)scale(0.17 -0.17)">
      <defs>
       <path d="M 9.8125 72.90625 
L 51.703125 72.90625 
L 51.703125 64.59375 
L 19.671875 64.59375 
L 19.671875 43.109375 
L 48.578125 43.109375 
L 48.578125 34.8125 
L 19.671875 34.8125 
L 19.671875 0 
L 9.8125 0 
z
" id="DejaVuSans-70"/>
       <path d="M 41.109375 46.296875 
Q 39.59375 47.171875 37.8125 47.578125 
Q 36.03125 48 33.890625 48 
Q 26.265625 48 22.1875 43.046875 
Q 18.109375 38.09375 18.109375 28.8125 
L 18.109375 0 
L 9.078125 0 
L 9.078125 54.6875 
L 18.109375 54.6875 
L 18.109375 46.1875 
Q 20.953125 51.171875 25.484375 53.578125 
Q 30.03125 56 36.53125 56 
Q 37.453125 56 38.578125 55.875 
Q 39.703125 55.765625 41.0625 55.515625 
z
" id="DejaVuSans-114"/>
       <path d="M 48.78125 52.59375 
L 48.78125 44.1875 
Q 44.96875 46.296875 41.140625 47.34375 
Q 37.3125 48.390625 33.40625 48.390625 
Q 24.65625 48.390625 19.8125 42.84375 
Q 14.984375 37.3125 14.984375 27.296875 
Q 14.984375 17.28125 19.8125 11.734375 
Q 24.65625 6.203125 33.40625 6.203125 
Q 37.3125 6.203125 41.140625 7.25 
Q 44.96875 8.296875 48.78125 10.40625 
L 48.78125 2.09375 
Q 45.015625 0.34375 40.984375 -0.53125 
Q 36.96875 -1.421875 32.421875 -1.421875 
Q 20.0625 -1.421875 12.78125 6.34375 
Q 5.515625 14.109375 5.515625 27.296875 
Q 5.515625 40.671875 12.859375 48.328125 
Q 20.21875 56 33.015625 56 
Q 37.15625 56 41.109375 55.140625 
Q 45.0625 54.296875 48.78125 52.59375 
z
" id="DejaVuSans-99"/>
       <path d="M 18.3125 70.21875 
L 18.3125 54.6875 
L 36.8125 54.6875 
L 36.8125 47.703125 
L 18.3125 47.703125 
L 18.3125 18.015625 
Q 18.3125 11.328125 20.140625 9.421875 
Q 21.96875 7.515625 27.59375 7.515625 
L 36.8125 7.515625 
L 36.8125 0 
L 27.59375 0 
Q 17.1875 0 13.234375 3.875 
Q 9.28125 7.765625 9.28125 18.015625 
L 9.28125 47.703125 
L 2.6875 47.703125 
L 2.6875 54.6875 
L 9.28125 54.6875 
L 9.28125 70.21875 
z
" id="DejaVuSans-116"/>
       <path d="M 8.5 21.578125 
L 8.5 54.6875 
L 17.484375 54.6875 
L 17.484375 21.921875 
Q 17.484375 14.15625 20.5 10.265625 
Q 23.53125 6.390625 29.59375 6.390625 
Q 36.859375 6.390625 41.078125 11.03125 
Q 45.3125 15.671875 45.3125 23.6875 
L 45.3125 54.6875 
L 54.296875 54.6875 
L 54.296875 0 
L 45.3125 0 
L 45.3125 8.40625 
Q 42.046875 3.421875 37.71875 1 
Q 33.40625 -1.421875 27.6875 -1.421875 
Q 18.265625 -1.421875 13.375 4.4375 
Q 8.5 10.296875 8.5 21.578125 
z
M 31.109375 56 
z
" id="DejaVuSans-117"/>
       <path d="M 11.71875 12.40625 
L 22.015625 12.40625 
L 22.015625 4 
L 14.015625 -11.625 
L 7.71875 -11.625 
L 11.71875 4 
z
" id="DejaVuSans-44"/>
       <path d="M 18.109375 8.203125 
L 18.109375 -20.796875 
L 9.078125 -20.796875 
L 9.078125 54.6875 
L 18.109375 54.6875 
L 18.109375 46.390625 
Q 20.953125 51.265625 25.265625 53.625 
Q 29.59375 56 35.59375 56 
Q 45.5625 56 51.78125 48.09375 
Q 58.015625 40.1875 58.015625 27.296875 
Q 58.015625 14.40625 51.78125 6.484375 
Q 45.5625 -1.421875 35.59375 -1.421875 
Q 29.59375 -1.421875 25.265625 0.953125 
Q 20.953125 3.328125 18.109375 8.203125 
z
M 48.6875 27.296875 
Q 48.6875 37.203125 44.609375 42.84375 
Q 40.53125 48.484375 33.40625 48.484375 
Q 26.265625 48.484375 22.1875 42.84375 
Q 18.109375 37.203125 18.109375 27.296875 
Q 18.109375 17.390625 22.1875 11.75 
Q 26.265625 6.109375 33.40625 6.109375 
Q 40.53125 6.109375 44.609375 11.75 
Q 48.6875 17.390625 48.6875 27.296875 
z
" id="DejaVuSans-112"/>
      </defs>
      <use xlink:href="#DejaVuSans-70"/>
      <use x="50.269531" xlink:href="#DejaVuSans-114"/>
      <use x="91.382812" xlink:href="#DejaVuSans-97"/>
      <use x="152.662109" xlink:href="#DejaVuSans-99"/>
      <use x="207.642578" xlink:href="#DejaVuSans-116"/>
      <use x="246.851562" xlink:href="#DejaVuSans-105"/>
      <use x="274.634766" xlink:href="#DejaVuSans-111"/>
      <use x="335.816406" xlink:href="#DejaVuSans-110"/>
      <use x="399.195312" xlink:href="#DejaVuSans-32"/>
      <use x="430.982422" xlink:href="#DejaVuSans-111"/>
      <use x="492.164062" xlink:href="#DejaVuSans-102"/>
      <use x="527.369141" xlink:href="#DejaVuSans-32"/>
      <use x="559.15625" xlink:href="#DejaVuSans-102"/>
      <use x="594.361328" xlink:href="#DejaVuSans-117"/>
      <use x="657.740234" xlink:href="#DejaVuSans-110"/>
      <use x="721.119141" xlink:href="#DejaVuSans-99"/>
      <use x="776.099609" xlink:href="#DejaVuSans-116"/>
      <use x="815.308594" xlink:href="#DejaVuSans-105"/>
      <use x="843.091797" xlink:href="#DejaVuSans-111"/>
      <use x="904.273438" xlink:href="#DejaVuSans-110"/>
      <use x="967.652344" xlink:href="#DejaVuSans-44"/>
      <use x="999.439453" xlink:href="#DejaVuSans-116"/>
      <use x="1038.648438" xlink:href="#DejaVuSans-97"/>
      <use x="1099.927734" xlink:href="#DejaVuSans-114"/>
      <use x="1139.291016" xlink:href="#DejaVuSans-103"/>
      <use x="1202.767578" xlink:href="#DejaVuSans-101"/>
      <use x="1264.291016" xlink:href="#DejaVuSans-116"/>
      <use x="1303.5" xlink:href="#DejaVuSans-32"/>
      <use x="1335.287109" xlink:href="#DejaVuSans-112"/>
      <use x="1398.763672" xlink:href="#DejaVuSans-97"/>
      <use x="1460.042969" xlink:href="#DejaVuSans-105"/>
      <use x="1487.826172" xlink:href="#DejaVuSans-114"/>
      <use x="1528.939453" xlink:href="#DejaVuSans-115"/>
     </g>
    </g>
   </g>
   <g id="line2d_33">
    <defs>
     <path d="M 0 1.5 
C 0.397805 1.5 0.77937 1.341951 1.06066 1.06066 
C 1.341951 0.77937 1.5 0.397805 1.5 0 
C 1.5 -0.397805 1.341951 -0.77937 1.06066 -1.06066 
C 0.77937 -1.341951 0.397805 -1.5 0 -1.5 
C -0.397805 -1.5 -0.77937 -1.341951 -1.06066 -1.06066 
C -1.341951 -0.77937 -1.5 -0.397805 -1.5 0 
C -1.5 0.397805 -1.341951 0.77937 -1.06066 1.06066 
C -0.77937 1.341951 -0.397805 1.5 0 1.5 
z
" id="me286432b91" style="stroke:#f5deb3;"/>
    </defs>
    <g>
     <use style="fill:#f5deb3;stroke:#f5deb3;" x="255.83396" xlink:href="#me286432b91" y="62.752535"/>
     <use style="fill:#f5deb3;stroke:#f5deb3;" x="255.83396" xlink:href="#me286432b91" y="62.752535"/>
    </g>
   </g>
   <g id="line2d_34">
    <defs>
     <path d="M 0 1.5 
C 0.397805 1.5 0.77937 1.341951 1.06066 1.06066 
C 1.341951 0.77937 1.5 0.397805 1.5 0 
C 1.5 -0.397805 1.341951 -0.77937 1.06066 -1.06066 
C 0.77937 -1.341951 0.397805 -1.5 0 -1.5 
C -0.397805 -1.5 -0.77937 -1.341951 -1.06066 -1.06066 
C -1.341951 -0.77937 -1.5 -0.397805 -1.5 0 
C -1.5 0.397805 -1.341951 0.77937 -1.06066 1.06066 
C -0.77937 1.341951 -0.397805 1.5 0 1.5 
z
" id="mfdf0bb4018" style="stroke:#000080;"/>
    </defs>
    <g>
     <use style="fill:#000080;stroke:#000080;" x="257.862094" xlink:href="#mfdf0bb4018" y="102.117779"/>
     <use style="fill:#000080;stroke:#000080;" x="257.862094" xlink:href="#mfdf0bb4018" y="102.117779"/>
    </g>
   </g>
   <g id="line2d_35">
    <path d="M 29.53256 298.944 
L 29.53256 289.218469 
L 41.620548 289.218469 
L 41.620548 287.365987 
L 48.691568 287.365987 
L 48.691568 286.902867 
L 69.687988 286.902867 
L 69.687988 286.439746 
L 76.759008 286.439746 
L 76.759008 285.976625 
L 82.626842 285.976625 
L 82.626842 285.513505 
L 83.438118 285.513505 
L 83.438118 285.050384 
L 85.66744 285.050384 
L 85.66744 282.734782 
L 86.351421 282.734782 
L 86.351421 281.808541 
L 92.026554 281.808541 
L 92.026554 280.8823 
L 92.504372 280.8823 
L 92.504372 279.956059 
L 94.294587 279.956059 
L 94.294587 279.492938 
L 96.301313 279.492938 
L 96.301313 279.029818 
L 96.676366 279.029818 
L 96.676366 278.566697 
L 97.043522 278.566697 
L 97.043522 278.103577 
L 100.040467 278.103577 
L 100.040467 277.640456 
L 101.506816 277.640456 
L 101.506816 277.177336 
L 102.330873 277.177336 
L 102.330873 276.714215 
L 102.859376 276.714215 
L 102.859376 276.251095 
L 104.592361 276.251095 
L 104.592361 275.324854 
L 105.951954 275.324854 
L 105.951954 273.935492 
L 114.148479 273.935492 
L 114.148479 273.472371 
L 117.598418 273.472371 
L 117.598418 273.009251 
L 121.128432 273.009251 
L 121.128432 271.619889 
L 121.579085 271.619889 
L 121.579085 270.693648 
L 122.699028 270.693648 
L 122.699028 270.230528 
L 127.611382 270.230528 
L 127.611382 269.767407 
L 128.590686 269.767407 
L 128.590686 269.304287 
L 128.944197 269.304287 
L 128.944197 268.841166 
L 129.290685 268.841166 
L 129.290685 267.914925 
L 133.533096 267.914925 
L 133.533096 266.988684 
L 134.450015 266.988684 
L 134.450015 266.062443 
L 136.150782 266.062443 
L 136.150782 265.599323 
L 136.494612 265.599323 
L 136.494612 264.673082 
L 138.728473 264.673082 
L 138.728473 264.209961 
L 139.887228 264.209961 
L 139.887228 263.746841 
L 141.996555 263.746841 
L 141.996555 263.28372 
L 142.699628 263.28372 
L 142.699628 262.8206 
L 144.747789 262.8206 
L 144.747789 262.357479 
L 144.958609 262.357479 
L 144.958609 261.431238 
L 146.937474 261.431238 
L 146.937474 260.968117 
L 150.275665 260.968117 
L 150.275665 260.504997 
L 151.405461 260.504997 
L 151.405461 260.041876 
L 154.001564 260.041876 
L 154.043103 259.115635 
L 154.371897 259.115635 
L 154.371897 258.652515 
L 154.906477 258.652515 
L 154.906477 258.189394 
L 156.906335 258.189394 
L 156.906335 257.726274 
L 157.506157 257.726274 
L 157.506157 257.263153 
L 158.689678 257.263153 
L 158.689678 256.800033 
L 158.816356 256.800033 
L 158.816356 255.873792 
L 159.283369 255.873792 
L 159.283369 255.410671 
L 159.678237 255.410671 
L 159.678237 254.947551 
L 160.613753 254.947551 
L 160.613753 254.48443 
L 160.952025 254.48443 
L 160.952025 254.02131 
L 161.92917 254.02131 
L 161.92917 253.558189 
L 162.043181 253.558189 
L 162.043181 253.095069 
L 162.320689 253.095069 
L 162.320689 252.168828 
L 162.896128 252.168828 
L 162.896128 251.242587 
L 163.372371 251.242587 
L 163.372371 250.316346 
L 164.77262 250.316346 
L 164.77262 249.390104 
L 165.497378 249.390104 
L 165.497378 248.463863 
L 165.943384 248.463863 
L 165.943384 247.537622 
L 168.238843 247.537622 
L 168.238843 247.074502 
L 168.458054 247.074502 
L 168.458054 246.148261 
L 168.596677 246.148261 
L 168.596677 245.22202 
L 169.463258 245.22202 
L 169.571453 244.295779 
L 169.667694 244.295779 
L 169.667694 243.832658 
L 170.988289 243.832658 
L 170.988289 243.369538 
L 171.498894 243.369538 
L 171.498894 242.906417 
L 172.171924 242.906417 
L 172.171924 242.443297 
L 172.635197 242.443297 
L 172.635197 241.980176 
L 173.607642 241.980176 
L 173.607642 241.517056 
L 173.849174 241.517056 
L 173.849174 240.590815 
L 175.705676 240.590815 
L 175.785362 239.201453 
L 176.061431 239.201453 
L 176.061431 238.275212 
L 176.3409 238.275212 
L 176.3409 237.348971 
L 176.702921 237.348971 
L 176.702921 236.88585 
L 176.853131 236.88585 
L 176.853131 236.42273 
L 178.149794 236.42273 
L 178.149794 235.959609 
L 178.760325 235.959609 
L 178.793811 234.570248 
L 178.930433 234.570248 
L 178.930433 234.107127 
L 180.594385 234.107127 
L 180.594385 233.644007 
L 181.364606 233.644007 
L 181.364606 233.180886 
L 183.136363 233.180886 
L 183.136363 232.717766 
L 183.52068 232.717766 
L 183.53598 231.328404 
L 183.736186 231.328404 
L 183.831675 229.475922 
L 183.944082 229.475922 
L 183.944082 228.549681 
L 184.550897 228.549681 
L 184.550897 227.62344 
L 186.052274 227.62344 
L 186.052274 227.16032 
L 186.308529 227.16032 
L 186.308529 226.234079 
L 186.810013 226.234079 
L 186.810013 225.307837 
L 187.017913 225.307837 
L 187.017913 224.844717 
L 187.536194 224.844717 
L 187.536194 223.918476 
L 187.915041 223.918476 
L 187.968496 221.139753 
L 188.163109 221.139753 
L 188.163109 220.213512 
L 188.860543 220.213512 
L 188.860543 219.287271 
L 189.653624 219.287271 
L 189.653624 218.82415 
L 189.823295 218.82415 
L 189.933143 217.434789 
L 190.070364 217.434789 
L 190.070364 216.971668 
L 191.142451 216.971668 
L 191.142451 216.045427 
L 191.859168 216.045427 
L 191.859168 215.582307 
L 192.000926 215.582307 
L 192.000926 215.119186 
L 192.294919 215.119186 
L 192.294919 214.192945 
L 193.002259 214.192945 
L 193.002259 213.266704 
L 193.513112 213.266704 
L 193.513112 212.340463 
L 193.847904 212.340463 
L 193.953414 210.951101 
L 193.961827 210.951101 
L 193.961827 210.02486 
L 194.075011 210.02486 
L 194.075011 209.56174 
L 194.249627 209.56174 
L 194.249627 208.635499 
L 194.727035 208.635499 
L 194.83004 207.246137 
L 195.320579 207.246137 
L 195.320579 206.783017 
L 195.572916 206.783017 
L 195.606117 205.856776 
L 195.781286 205.856776 
L 195.781286 204.930535 
L 196.384541 204.930535 
L 196.384541 204.467414 
L 196.999453 204.467414 
L 197.108643 202.614932 
L 197.342325 202.614932 
L 197.342325 201.688691 
L 197.723839 201.688691 
L 197.81287 199.373088 
L 198.017376 199.373088 
L 198.017376 198.909968 
L 198.410644 198.909968 
L 198.452956 197.520606 
L 198.920169 197.520606 
L 198.920169 197.057486 
L 199.150726 197.057486 
L 199.150726 196.594365 
L 199.300002 196.594365 
L 199.322696 195.668124 
L 199.462334 195.668124 
L 199.512372 194.278763 
L 199.81263 194.278763 
L 199.81263 193.815642 
L 200.455159 193.815642 
L 200.455159 193.352522 
L 200.86475 193.352522 
L 200.972931 191.036919 
L 200.99074 191.036919 
L 201.08231 190.110678 
L 201.172474 190.110678 
L 201.172474 189.184437 
L 201.365175 189.184437 
L 201.365175 188.721316 
L 201.517636 188.721316 
L 201.517636 188.258196 
L 202.139943 188.258196 
L 202.139943 187.795075 
L 202.549095 187.795075 
L 202.549095 187.331955 
L 202.66863 187.331955 
L 202.769595 185.479473 
L 203.015725 185.479473 
L 203.062375 184.553232 
L 203.860751 184.553232 
L 203.952691 183.626991 
L 203.974022 183.626991 
L 203.974022 182.70075 
L 204.227973 182.70075 
L 204.252079 181.774509 
L 204.50051 181.774509 
L 204.526536 179.922027 
L 204.660644 179.922027 
L 204.660644 179.458906 
L 205.205398 179.458906 
L 205.205398 178.532665 
L 205.492885 178.532665 
L 205.503737 177.143304 
L 205.731507 177.143304 
L 205.80559 176.217062 
L 206.162303 176.217062 
L 206.187356 174.827701 
L 206.429074 174.827701 
L 206.429074 174.36458 
L 206.614636 174.36458 
L 206.614636 173.90146 
L 206.741748 173.90146 
L 206.741748 173.438339 
L 207.117618 173.438339 
L 207.148577 172.512098 
L 207.29538 172.512098 
L 207.29538 172.048978 
L 207.494592 172.048978 
L 207.59303 170.196496 
L 208.059574 170.196496 
L 208.071438 168.344014 
L 208.235457 168.344014 
L 208.235457 167.880893 
L 208.594109 167.880893 
L 208.701004 166.954652 
L 208.711236 166.954652 
L 208.711236 166.491532 
L 209.252138 166.491532 
L 209.356247 165.565291 
L 209.437818 165.565291 
L 209.547138 164.175929 
L 210.115361 164.175929 
L 210.161933 163.249688 
L 210.407151 163.249688 
L 210.407151 162.786567 
L 210.529563 162.786567 
L 210.529563 162.323447 
L 210.719362 162.323447 
L 210.721507 160.934085 
L 210.922497 160.934085 
L 210.981764 160.007844 
L 211.668041 160.007844 
L 211.731917 157.692242 
L 212.188401 157.692242 
L 212.188401 156.766001 
L 212.561493 156.766001 
L 212.640927 155.376639 
L 213.106344 155.376639 
L 213.147917 153.987278 
L 213.358462 153.987278 
L 213.3686 153.061037 
L 213.742791 153.061037 
L 213.742791 152.597916 
L 213.980155 152.597916 
L 214.058711 151.208554 
L 214.585602 151.208554 
L 214.586032 150.282313 
L 214.731073 150.282313 
L 214.737037 148.429831 
L 214.951237 148.429831 
L 214.951237 147.966711 
L 215.473051 147.966711 
L 215.473051 147.50359 
L 215.686116 147.50359 
L 215.686116 147.04047 
L 216.004675 147.04047 
L 216.004675 146.577349 
L 216.278962 146.577349 
L 216.372285 145.187988 
L 216.622172 145.187988 
L 216.656163 143.798626 
L 216.888496 143.798626 
L 216.888496 143.335506 
L 218.034814 143.335506 
L 218.114658 142.409265 
L 218.424569 142.409265 
L 218.424569 141.946144 
L 218.649954 141.946144 
L 218.649954 141.019903 
L 218.819291 141.019903 
L 218.819291 140.556783 
L 219.203298 140.556783 
L 219.208573 139.630541 
L 219.493638 139.630541 
L 219.493638 139.167421 
L 220.407342 139.167421 
L 220.408265 137.778059 
L 220.527851 137.778059 
L 220.527851 136.851818 
L 220.748304 136.851818 
L 220.748304 136.388698 
L 220.964516 136.388698 
L 220.964516 135.925577 
L 221.172485 135.925577 
L 221.172485 135.462457 
L 221.642008 135.462457 
L 221.652611 134.073095 
L 221.889644 134.073095 
L 221.889644 133.609975 
L 222.451407 133.609975 
L 222.518327 131.757493 
L 222.601279 131.757493 
L 222.601279 131.294372 
L 223.367778 131.294372 
L 223.367778 130.831252 
L 223.520308 130.831252 
L 223.520308 129.905011 
L 223.866146 129.905011 
L 223.866146 128.97877 
L 224.091043 128.97877 
L 224.091043 128.515649 
L 224.923322 128.515649 
L 224.923322 128.052529 
L 225.152425 128.052529 
L 225.152425 127.589408 
L 225.535191 127.589408 
L 225.535191 127.126287 
L 226.284536 127.126287 
L 226.284536 126.663167 
L 226.763797 126.663167 
L 226.763797 126.200046 
L 227.058778 126.200046 
L 227.058778 125.736926 
L 227.630928 125.736926 
L 227.630928 125.273805 
L 228.309934 125.273805 
L 228.395194 124.347564 
L 229.109817 124.347564 
L 229.109817 123.884444 
L 229.935837 123.884444 
L 229.935837 123.421323 
L 231.028528 123.421323 
L 231.028528 122.958203 
L 231.81242 122.958203 
L 231.887934 121.568841 
L 232.497638 121.568841 
L 232.497638 120.6426 
L 232.793544 120.6426 
L 232.793544 120.17948 
L 234.678275 120.17948 
L 234.678275 119.716359 
L 234.926148 119.716359 
L 234.926148 118.790118 
L 237.418003 118.790118 
L 237.418003 118.326998 
L 237.875199 118.326998 
L 237.875199 117.863877 
L 238.027886 117.863877 
L 238.027886 117.400757 
L 238.151683 117.400757 
L 238.151683 116.937636 
L 238.577366 116.937636 
L 238.577366 116.011395 
L 238.988347 116.011395 
L 238.988347 115.085154 
L 240.82861 115.085154 
L 240.82861 114.622033 
L 240.948788 114.622033 
L 240.948788 113.695792 
L 241.804007 113.695792 
L 241.804007 112.769551 
L 241.959923 112.769551 
L 242.062001 109.990828 
L 243.099522 109.990828 
L 243.099522 109.527708 
L 245.802856 109.527708 
L 245.802856 108.601467 
L 246.85313 108.601467 
L 246.85313 107.675226 
L 247.210101 107.675226 
L 247.210101 107.212105 
L 247.653375 107.212105 
L 247.653375 106.748985 
L 248.789775 106.748985 
L 248.789775 106.285864 
L 250.101753 106.285864 
L 250.101753 105.359623 
L 251.867853 105.359623 
L 251.867853 104.433382 
L 255.190902 104.433382 
L 255.190902 103.970262 
L 255.799989 103.970262 
L 255.799989 103.507141 
L 257.209397 103.507141 
L 257.209397 103.04402 
L 257.448557 103.04402 
L 257.448557 102.5809 
L 257.862094 102.5809 
L 257.862094 102.117779 
L 338.688 102.117779 
L 338.688 102.117779 
" style="fill:none;stroke:#000080;stroke-linecap:square;stroke-width:1.5;"/>
   </g>
   <g id="line2d_36">
    <defs>
     <path d="M 0 6 
C 1.591219 6 3.117479 5.367802 4.242641 4.242641 
C 5.367802 3.117479 6 1.591219 6 0 
C 6 -1.591219 5.367802 -3.117479 4.242641 -4.242641 
C 3.117479 -5.367802 1.591219 -6 0 -6 
C -1.591219 -6 -3.117479 -5.367802 -4.242641 -4.242641 
C -5.367802 -3.117479 -6 -1.591219 -6 0 
C -6 1.591219 -5.367802 3.117479 -4.242641 4.242641 
C -3.117479 5.367802 -1.591219 6 0 6 
z
" id="mc9eda777fe" style="stroke:#000080;stroke-width:1.5;"/>
    </defs>
    <g>
     <use style="fill-opacity:0;stroke:#000080;stroke-width:1.5;" x="86.351421" xlink:href="#mc9eda777fe" y="282.734782"/>
     <use style="fill-opacity:0;stroke:#000080;stroke-width:1.5;" x="164.77262" xlink:href="#mc9eda777fe" y="250.316346"/>
     <use style="fill-opacity:0;stroke:#000080;stroke-width:1.5;" x="207.29538" xlink:href="#mc9eda777fe" y="172.048978"/>
     <use style="fill-opacity:0;stroke:#000080;stroke-width:1.5;" x="250.101753" xlink:href="#mc9eda777fe" y="105.359623"/>
     <use style="fill-opacity:0;stroke:#000080;stroke-width:1.5;" x="257.862094" xlink:href="#mc9eda777fe" y="102.117779"/>
     <use style="fill-opacity:0;stroke:#000080;stroke-width:1.5;" x="338.688" xlink:href="#mc9eda777fe" y="102.117779"/>
    </g>
   </g>
   <g id="line2d_37">
    <path style="fill:none;stroke:#000080;stroke-linecap:square;stroke-width:1.5;"/>
    <g/>
   </g>
   <g id="line2d_38">
    <path clip-path="url(#p1a57b6fd2d)" d="M 258.377317 102.117779 
" style="fill:none;stroke:#000080;stroke-linecap:square;stroke-width:1.5;"/>
    <defs>
     <path d="M -12 12 
L 12 -12 
M -12 -12 
L 12 12 
" id="mf32e4bb046" style="stroke:#000080;"/>
    </defs>
    <g clip-path="url(#p1a57b6fd2d)">
     <use style="fill:#000080;stroke:#000080;" x="258.377317" xlink:href="#mf32e4bb046" y="102.117779"/>
    </g>
   </g>
   <g id="line2d_39">
    <defs>
     <path d="M 0 1.5 
C 0.397805 1.5 0.77937 1.341951 1.06066 1.06066 
C 1.341951 0.77937 1.5 0.397805 1.5 0 
C 1.5 -0.397805 1.341951 -0.77937 1.06066 -1.06066 
C 0.77937 -1.341951 0.397805 -1.5 0 -1.5 
C -0.397805 -1.5 -0.77937 -1.341951 -1.06066 -1.06066 
C -1.341951 -0.77937 -1.5 -0.397805 -1.5 0 
C -1.5 0.397805 -1.341951 0.77937 -1.06066 1.06066 
C -0.77937 1.341951 -0.397805 1.5 0 1.5 
z
" id="mc7640cdd95" style="stroke:#ff00ff;"/>
    </defs>
    <g>
     <use style="fill:#ff00ff;stroke:#ff00ff;" x="257.416266" xlink:href="#mc7640cdd95" y="156.766001"/>
     <use style="fill:#ff00ff;stroke:#ff00ff;" x="257.416266" xlink:href="#mc7640cdd95" y="156.766001"/>
    </g>
   </g>
   <g id="line2d_40">
    <path d="M 29.53256 298.944 
L 29.53256 288.292228 
L 133.667073 288.292228 
L 133.667073 287.829108 
L 139.253002 287.829108 
L 139.253002 287.365987 
L 141.321401 287.365987 
L 141.321401 286.902867 
L 142.188649 286.902867 
L 142.188649 286.439746 
L 144.026061 286.439746 
L 144.026061 285.976625 
L 144.172816 285.976625 
L 144.172816 285.513505 
L 144.414696 285.513505 
L 144.414696 285.050384 
L 144.582038 285.050384 
L 144.582038 282.734782 
L 144.818346 282.734782 
L 144.818346 282.271661 
L 145.120836 282.271661 
L 145.120836 281.808541 
L 145.304409 281.808541 
L 145.327221 280.8823 
L 146.302479 280.8823 
L 146.367029 279.029818 
L 146.431341 279.029818 
L 146.431341 278.566697 
L 146.791364 278.566697 
L 146.791364 278.103577 
L 147.144103 278.103577 
L 147.185137 275.324854 
L 147.327999 275.324854 
L 147.409112 273.935492 
L 147.550159 273.935492 
L 147.570215 272.08301 
L 148.27731 272.08301 
L 148.27731 271.619889 
L 148.48777 271.619889 
L 148.582601 267.914925 
L 148.845415 267.914925 
L 148.845415 266.988684 
L 148.956849 266.988684 
L 148.956849 266.525564 
L 149.521512 266.525564 
L 149.610898 264.673082 
L 149.646525 264.673082 
L 149.646525 264.209961 
L 150.120495 264.209961 
L 150.120495 263.746841 
L 150.241302 263.746841 
L 150.292822 262.357479 
L 150.361278 262.357479 
L 150.412445 261.431238 
L 150.480434 261.431238 
L 150.480434 260.968117 
L 150.73306 260.968117 
L 150.73306 260.504997 
L 151.292481 260.504997 
L 151.292481 260.041876 
L 151.405461 260.041876 
L 151.405461 259.578756 
L 151.740076 259.578756 
L 151.740076 258.652515 
L 151.912822 258.652515 
L 151.99078 256.800033 
L 152.451351 256.800033 
L 152.451351 255.873792 
L 152.721966 255.873792 
L 152.721966 255.410671 
L 152.840905 255.410671 
L 152.885298 254.48443 
L 153.032466 254.48443 
L 153.032466 253.558189 
L 153.207444 253.558189 
L 153.207444 253.095069 
L 153.366312 253.095069 
L 153.395042 251.242587 
L 153.566437 251.242587 
L 153.665645 249.853225 
L 154.221969 249.853225 
L 154.221969 249.390104 
L 154.547439 249.390104 
L 154.547439 248.463863 
L 154.667942 248.463863 
L 154.747816 246.611381 
L 154.787617 246.611381 
L 154.787617 245.22202 
L 155.180705 245.22202 
L 155.180705 243.832658 
L 155.361158 243.832658 
L 155.463441 242.443297 
L 155.501643 242.443297 
L 155.501643 241.517056 
L 156.187581 241.517056 
L 156.248622 240.127694 
L 156.964915 240.127694 
L 157.058236 238.738333 
L 157.185742 238.738333 
L 157.289376 237.812091 
L 157.86528 237.812091 
L 157.86528 237.348971 
L 158.086033 237.348971 
L 158.086033 236.42273 
L 158.455018 236.42273 
L 158.455018 235.496489 
L 158.795307 235.496489 
L 158.795307 234.570248 
L 159.015067 234.570248 
L 159.108409 233.180886 
L 159.797958 233.180886 
L 159.807898 231.328404 
L 159.966168 231.328404 
L 159.966168 230.865284 
L 160.123015 230.865284 
L 160.123015 229.939043 
L 160.278464 229.939043 
L 160.278464 229.475922 
L 160.48041 229.475922 
L 160.48041 228.549681 
L 160.632719 228.549681 
L 160.632719 228.086561 
L 161.283861 228.086561 
L 161.283861 227.62344 
L 161.840959 227.62344 
L 161.902754 226.697199 
L 162.483394 226.697199 
L 162.483394 226.234079 
L 163.788565 226.234079 
L 163.788565 225.770958 
L 164.008622 225.770958 
L 164.008622 224.844717 
L 164.341251 224.844717 
L 164.341251 224.381596 
L 165.302685 224.381596 
L 165.302685 223.455355 
L 166.547878 223.455355 
L 166.595075 222.065994 
L 167.30752 222.065994 
L 167.30752 221.602873 
L 167.595991 221.602873 
L 167.595991 220.676632 
L 168.506396 220.676632 
L 168.506396 219.750391 
L 169.006055 219.750391 
L 169.006055 219.287271 
L 169.233261 219.287271 
L 169.233261 218.36103 
L 169.903212 218.36103 
L 169.903212 217.434789 
L 170.671394 217.434789 
L 170.671394 216.508548 
L 170.956857 216.508548 
L 170.956857 216.045427 
L 171.304668 216.045427 
L 171.335479 214.656066 
L 172.380955 214.656066 
L 172.380955 214.192945 
L 173.719878 214.192945 
L 173.719878 213.729825 
L 174.139909 213.729825 
L 174.139909 213.266704 
L 176.166757 213.266704 
L 176.166757 212.340463 
L 176.849392 212.340463 
L 176.890483 210.951101 
L 178.083716 210.951101 
L 178.177541 209.56174 
L 178.456026 209.56174 
L 178.530902 208.172378 
L 179.089033 208.172378 
L 179.089033 207.246137 
L 179.652162 207.246137 
L 179.652162 206.319896 
L 180.384947 206.319896 
L 180.448955 204.930535 
L 180.973417 204.930535 
L 180.973417 204.004294 
L 181.496896 204.004294 
L 181.496896 203.541173 
L 182.024587 203.541173 
L 182.024587 203.078053 
L 182.140942 203.078053 
L 182.140942 202.614932 
L 182.863006 202.614932 
L 182.92383 200.76245 
L 184.298992 200.76245 
L 184.298992 199.836209 
L 184.718423 199.836209 
L 184.718423 199.373088 
L 186.045654 199.373088 
L 186.045654 198.446847 
L 186.631648 198.446847 
L 186.631648 197.520606 
L 186.74652 197.520606 
L 186.74652 196.594365 
L 187.094982 196.594365 
L 187.132351 195.205004 
L 187.299532 195.205004 
L 187.311852 194.278763 
L 188.168972 194.278763 
L 188.168972 193.815642 
L 189.653624 193.815642 
L 189.653624 192.889401 
L 190.891832 192.889401 
L 190.891832 191.96316 
L 191.339081 191.96316 
L 191.339081 191.50004 
L 192.11195 191.50004 
L 192.199022 190.573799 
L 192.590105 190.573799 
L 192.590105 190.110678 
L 193.755943 190.110678 
L 193.755943 189.647558 
L 195.933441 189.647558 
L 195.933441 189.184437 
L 196.313634 189.184437 
L 196.313634 188.721316 
L 196.565386 188.721316 
L 196.565386 187.795075 
L 197.854412 187.795075 
L 197.854412 186.868834 
L 198.281997 186.868834 
L 198.281997 186.405714 
L 198.88215 186.405714 
L 198.88215 185.942593 
L 200.463851 185.942593 
L 200.473504 185.016352 
L 201.016017 185.016352 
L 201.060862 183.626991 
L 201.180816 183.626991 
L 201.180816 183.16387 
L 201.71557 183.16387 
L 201.71557 182.70075 
L 202.642232 182.70075 
L 202.642232 182.237629 
L 203.374851 182.237629 
L 203.374851 181.774509 
L 203.981126 181.774509 
L 203.981126 180.848268 
L 205.447959 180.848268 
L 205.447959 179.922027 
L 206.358287 179.922027 
L 206.358287 179.458906 
L 207.796501 179.458906 
L 207.796501 178.995786 
L 209.117449 178.995786 
L 209.117449 178.532665 
L 209.47587 178.532665 
L 209.47587 177.606424 
L 209.665464 177.606424 
L 209.665464 177.143304 
L 210.844402 177.143304 
L 210.844402 176.680183 
L 211.053987 176.680183 
L 211.053987 176.217062 
L 212.268568 176.217062 
L 212.268568 175.753942 
L 214.737463 175.753942 
L 214.737463 175.290821 
L 215.42603 175.290821 
L 215.42603 174.36458 
L 218.891268 174.36458 
L 218.891268 173.90146 
L 219.071251 173.90146 
L 219.071251 173.438339 
L 223.333469 173.438339 
L 223.333469 172.975219 
L 224.728195 172.975219 
L 224.728195 172.048978 
L 225.455207 172.048978 
L 225.455207 171.122737 
L 225.92701 171.122737 
L 225.92701 170.196496 
L 226.551791 170.196496 
L 226.551791 169.733375 
L 227.662215 169.733375 
L 227.662215 169.270255 
L 227.949892 169.270255 
L 227.949892 168.344014 
L 228.235061 168.344014 
L 228.235061 167.880893 
L 230.017604 167.880893 
L 230.017604 167.417773 
L 231.996717 167.417773 
L 231.996717 166.954652 
L 233.124478 166.954652 
L 233.124478 166.028411 
L 235.756059 166.028411 
L 235.756059 165.565291 
L 238.408403 165.565291 
L 238.408403 164.63905 
L 239.026579 164.63905 
L 239.026579 164.175929 
L 240.472183 164.175929 
L 240.472183 163.712808 
L 243.738141 163.712808 
L 243.738141 163.249688 
L 245.0665 163.249688 
L 245.0665 162.786567 
L 245.307922 162.786567 
L 245.307922 162.323447 
L 246.705001 162.323447 
L 246.705001 161.860326 
L 249.236391 161.860326 
L 249.253467 160.470965 
L 249.844234 160.470965 
L 249.844234 160.007844 
L 253.23397 160.007844 
L 253.23397 159.544724 
L 254.165095 159.544724 
L 254.188836 158.618483 
L 257.391335 158.618483 
L 257.416266 156.766001 
L 338.688 156.766001 
L 338.688 156.766001 
" style="fill:none;stroke:#ff00ff;stroke-linecap:square;stroke-width:1.5;"/>
   </g>
   <g id="line2d_41">
    <defs>
     <path d="M 0 8.485281 
L 5.091169 0 
L 0 -8.485281 
L -5.091169 0 
z
" id="m3f2568123e" style="stroke:#ff00ff;stroke-linejoin:miter;stroke-width:1.5;"/>
    </defs>
    <g>
     <use style="fill-opacity:0;stroke:#ff00ff;stroke-linejoin:miter;stroke-width:1.5;" x="152.885298" xlink:href="#m3f2568123e" y="254.48443"/>
     <use style="fill-opacity:0;stroke:#ff00ff;stroke-linejoin:miter;stroke-width:1.5;" x="201.71557" xlink:href="#m3f2568123e" y="183.16387"/>
     <use style="fill-opacity:0;stroke:#ff00ff;stroke-linejoin:miter;stroke-width:1.5;" x="246.705001" xlink:href="#m3f2568123e" y="161.860326"/>
     <use style="fill-opacity:0;stroke:#ff00ff;stroke-linejoin:miter;stroke-width:1.5;" x="257.416266" xlink:href="#m3f2568123e" y="156.766001"/>
     <use style="fill-opacity:0;stroke:#ff00ff;stroke-linejoin:miter;stroke-width:1.5;" x="338.688" xlink:href="#m3f2568123e" y="156.766001"/>
    </g>
   </g>
   <g id="line2d_42">
    <path style="fill:none;stroke:#ff00ff;stroke-linecap:square;stroke-width:1.5;"/>
    <g/>
   </g>
   <g id="line2d_43">
    <path clip-path="url(#p1a57b6fd2d)" d="M 258.381467 156.766001 
" style="fill:none;stroke:#ff00ff;stroke-linecap:square;stroke-width:1.5;"/>
    <defs>
     <path d="M -12 12 
L 12 -12 
M -12 -12 
L 12 12 
" id="m6a731900f4" style="stroke:#ff00ff;"/>
    </defs>
    <g clip-path="url(#p1a57b6fd2d)">
     <use style="fill:#ff00ff;stroke:#ff00ff;" x="258.381467" xlink:href="#m6a731900f4" y="156.766001"/>
    </g>
   </g>
   <g id="line2d_44">
    <defs>
     <path d="M 0 1.5 
C 0.397805 1.5 0.77937 1.341951 1.06066 1.06066 
C 1.341951 0.77937 1.5 0.397805 1.5 0 
C 1.5 -0.397805 1.341951 -0.77937 1.06066 -1.06066 
C 0.77937 -1.341951 0.397805 -1.5 0 -1.5 
C -0.397805 -1.5 -0.77937 -1.341951 -1.06066 -1.06066 
C -1.341951 -0.77937 -1.5 -0.397805 -1.5 0 
C -1.5 0.397805 -1.341951 0.77937 -1.06066 1.06066 
C -0.77937 1.341951 -0.397805 1.5 0 1.5 
z
" id="m6d61f55424" style="stroke:#ff7500;"/>
    </defs>
    <g>
     <use style="fill:#ff7500;stroke:#ff7500;" x="258.096992" xlink:href="#m6d61f55424" y="108.138346"/>
     <use style="fill:#ff7500;stroke:#ff7500;" x="258.096992" xlink:href="#m6d61f55424" y="108.138346"/>
    </g>
   </g>
   <g id="line2d_45">
    <path d="M 148.620389 298.944 
L 148.620389 298.480879 
L 150.632448 298.480879 
L 150.632448 298.017759 
L 153.337534 298.017759 
L 153.337534 297.554638 
L 155.063706 297.554638 
L 155.063706 297.091518 
L 155.703987 297.091518 
L 155.703987 296.628397 
L 155.86668 296.628397 
L 155.86668 296.165277 
L 156.670026 296.165277 
L 156.670026 295.702156 
L 156.812195 295.702156 
L 156.812195 295.239036 
L 156.964915 295.239036 
L 157.011638 293.849674 
L 157.1279 293.849674 
L 157.208825 292.460313 
L 157.277891 292.460313 
L 157.312322 291.534072 
L 157.472107 291.534072 
L 157.472107 291.070951 
L 158.053098 291.070951 
L 158.053098 290.607831 
L 158.249784 290.607831 
L 158.249784 290.14471 
L 158.710855 290.14471 
L 158.710855 289.68159 
L 159.004665 289.68159 
L 159.004665 288.755349 
L 159.62811 288.755349 
L 159.698248 287.829108 
L 159.827761 287.829108 
L 159.827761 287.365987 
L 160.064363 287.365987 
L 160.162007 285.976625 
L 160.220333 285.976625 
L 160.297798 285.050384 
L 160.403753 285.050384 
L 160.470846 283.661023 
L 160.670589 283.661023 
L 160.774311 280.8823 
L 161.109513 280.8823 
L 161.146363 279.492938 
L 161.384008 279.492938 
L 161.384008 279.029818 
L 161.743409 279.029818 
L 161.743409 278.566697 
L 161.96433 278.566697 
L 162.016937 277.177336 
L 162.130378 277.177336 
L 162.165135 274.861733 
L 162.423627 274.861733 
L 162.491916 273.472371 
L 162.593851 273.472371 
L 162.636148 272.54613 
L 162.862799 272.54613 
L 162.9543 271.619889 
L 162.979172 271.619889 
L 163.037069 270.230528 
L 163.331824 270.230528 
L 163.331824 269.767407 
L 163.573705 269.767407 
L 163.637643 268.841166 
L 163.780654 268.841166 
L 163.780654 268.378046 
L 164.00081 268.378046 
L 164.094319 265.599323 
L 164.325919 265.599323 
L 164.341251 264.673082 
L 164.675172 264.673082 
L 164.765143 261.431238 
L 164.91407 261.431238 
L 164.91407 260.968117 
L 165.054383 260.968117 
L 165.054383 260.041876 
L 165.251852 260.041876 
L 165.317182 258.652515 
L 165.439918 258.652515 
L 165.54035 256.800033 
L 165.838222 256.800033 
L 165.915403 255.410671 
L 165.992243 255.410671 
L 166.040966 254.02131 
L 166.124175 254.02131 
L 166.144916 252.631948 
L 166.268843 252.631948 
L 166.378267 249.853225 
L 166.391896 249.853225 
L 166.391896 249.390104 
L 166.58834 249.390104 
L 166.58834 248.926984 
L 166.994465 248.926984 
L 167.027338 247.537622 
L 167.132118 247.537622 
L 167.203791 246.148261 
L 167.294587 246.148261 
L 167.404208 244.758899 
L 167.46837 244.758899 
L 167.51953 243.369538 
L 167.873511 243.369538 
L 167.979563 241.517056 
L 168.084975 241.517056 
L 168.084975 240.590815 
L 168.238843 240.590815 
L 168.31222 239.201453 
L 168.482242 239.201453 
L 168.566635 237.348971 
L 168.60868 237.348971 
L 168.656606 235.496489 
L 168.72825 235.496489 
L 168.829244 234.107127 
L 168.994323 234.107127 
L 169.029495 233.180886 
L 169.157854 233.180886 
L 169.157854 232.254645 
L 169.296813 232.254645 
L 169.296813 231.328404 
L 169.514592 231.328404 
L 169.599814 229.939043 
L 169.75779 229.939043 
L 169.813865 228.086561 
L 170.256089 228.086561 
L 170.316028 226.234079 
L 170.392016 226.234079 
L 170.392016 225.307837 
L 170.575192 225.307837 
L 170.575192 224.381596 
L 170.713981 224.381596 
L 170.81471 222.065994 
L 170.851674 222.065994 
L 170.851674 221.602873 
L 170.998753 221.602873 
L 170.998753 220.676632 
L 171.284097 220.676632 
L 171.284097 220.213512 
L 171.46837 220.213512 
L 171.564846 217.897909 
L 171.781236 217.897909 
L 171.81621 216.045427 
L 171.945501 216.045427 
L 171.945501 215.119186 
L 172.211004 215.119186 
L 172.249996 213.729825 
L 172.577957 213.729825 
L 172.582734 211.877342 
L 173.040014 211.877342 
L 173.040014 210.951101 
L 173.17443 210.951101 
L 173.280304 209.56174 
L 173.362717 209.56174 
L 173.417442 208.172378 
L 173.503742 208.172378 
L 173.503742 207.709258 
L 173.621148 207.709258 
L 173.621148 206.783017 
L 173.897968 206.783017 
L 173.990742 205.393655 
L 174.065485 205.393655 
L 174.065485 204.467414 
L 174.391462 204.467414 
L 174.391462 204.004294 
L 174.545793 204.004294 
L 174.545793 203.541173 
L 174.846223 203.541173 
L 174.867186 201.688691 
L 175.013227 201.688691 
L 175.013227 201.225571 
L 175.391374 201.225571 
L 175.391374 200.76245 
L 175.561317 200.76245 
L 175.641664 199.373088 
L 175.681699 199.373088 
L 175.74158 198.446847 
L 175.927886 198.446847 
L 175.927886 197.983727 
L 176.30621 197.983727 
L 176.363988 196.131245 
L 176.650041 196.131245 
L 176.661386 194.741883 
L 176.830682 194.741883 
L 176.830682 194.278763 
L 177.296151 194.278763 
L 177.296151 193.815642 
L 177.581781 193.815642 
L 177.581781 193.352522 
L 177.887492 193.352522 
L 177.887492 192.889401 
L 178.006891 192.889401 
L 178.027877 191.50004 
L 178.250169 191.50004 
L 178.250169 191.036919 
L 178.659481 191.036919 
L 178.666222 190.110678 
L 178.777076 190.110678 
L 178.777076 189.184437 
L 179.31777 189.184437 
L 179.37287 188.258196 
L 179.447142 188.258196 
L 179.447142 187.795075 
L 179.629855 187.795075 
L 179.67444 186.868834 
L 179.823292 186.868834 
L 179.930185 185.942593 
L 180.436781 185.942593 
L 180.543017 184.090111 
L 180.744595 184.090111 
L 180.840054 182.237629 
L 180.949782 182.237629 
L 180.949782 181.774509 
L 181.216753 181.774509 
L 181.216753 180.848268 
L 181.364606 180.848268 
L 181.364606 179.922027 
L 181.522662 179.922027 
L 181.522662 178.995786 
L 181.806419 178.995786 
L 181.806419 178.532665 
L 182.057911 178.532665 
L 182.146463 177.143304 
L 182.425761 177.143304 
L 182.488126 175.753942 
L 182.574526 175.753942 
L 182.574526 175.290821 
L 183.467024 175.290821 
L 183.546172 173.90146 
L 183.884222 173.90146 
L 183.884222 173.438339 
L 184.15445 173.438339 
L 184.15445 172.975219 
L 184.415708 172.975219 
L 184.415708 172.512098 
L 184.692204 172.512098 
L 184.701742 171.585857 
L 185.473528 171.585857 
L 185.519085 170.659616 
L 185.60079 170.659616 
L 185.60079 170.196496 
L 186.179777 170.196496 
L 186.179777 169.733375 
L 186.442811 169.733375 
L 186.442811 169.270255 
L 186.761356 169.270255 
L 186.782528 167.880893 
L 188.009959 167.880893 
L 188.009959 167.417773 
L 189.237714 167.417773 
L 189.237714 166.954652 
L 189.849934 166.954652 
L 189.849934 166.028411 
L 190.030014 166.028411 
L 190.030014 165.565291 
L 190.767685 165.565291 
L 190.767685 165.10217 
L 191.003479 165.10217 
L 191.048269 164.175929 
L 191.392768 164.175929 
L 191.392768 163.249688 
L 191.989942 163.249688 
L 192.093235 161.397206 
L 192.288748 161.397206 
L 192.288748 160.934085 
L 192.857991 160.934085 
L 192.857991 160.470965 
L 193.148282 160.470965 
L 193.148282 159.544724 
L 193.893 159.544724 
L 193.933767 158.155362 
L 194.068045 158.155362 
L 194.068045 157.692242 
L 194.965559 157.692242 
L 194.965559 157.229121 
L 195.431748 157.229121 
L 195.431748 156.30288 
L 195.745886 156.30288 
L 195.822914 154.913519 
L 195.920916 154.913519 
L 195.920916 153.987278 
L 196.992385 153.987278 
L 196.992385 153.524157 
L 197.19504 153.524157 
L 197.207846 152.597916 
L 198.245849 152.597916 
L 198.245849 152.134795 
L 198.43561 152.134795 
L 198.43561 151.671675 
L 198.592181 151.671675 
L 198.592181 151.208554 
L 199.303099 151.208554 
L 199.303099 150.745434 
L 199.7745 150.745434 
L 199.7745 150.282313 
L 200.277468 150.282313 
L 200.277468 149.819193 
L 201.004787 149.819193 
L 201.004787 149.356072 
L 202.048486 149.356072 
L 202.048486 148.892952 
L 203.79706 148.892952 
L 203.79706 148.429831 
L 204.015817 148.429831 
L 204.015817 147.966711 
L 204.534184 147.966711 
L 204.534184 147.04047 
L 204.787702 147.04047 
L 204.787702 146.577349 
L 205.469712 146.577349 
L 205.469712 146.114229 
L 206.237355 146.114229 
L 206.237355 145.651108 
L 206.861251 145.651108 
L 206.861251 145.187988 
L 208.612878 145.187988 
L 208.612878 144.261747 
L 209.751842 144.261747 
L 209.751842 143.335506 
L 209.973772 143.335506 
L 209.973772 142.872385 
L 210.292119 142.872385 
L 210.292119 142.409265 
L 210.589097 142.409265 
L 210.589097 141.483024 
L 210.996022 141.483024 
L 210.996022 141.019903 
L 211.620743 141.019903 
L 211.620743 140.556783 
L 211.926159 140.556783 
L 211.926159 140.093662 
L 212.360576 140.093662 
L 212.405424 138.7043 
L 213.441698 138.7043 
L 213.441698 138.24118 
L 215.385449 138.24118 
L 215.385449 137.778059 
L 216.033564 137.778059 
L 216.033564 137.314939 
L 216.759636 137.314939 
L 216.759636 136.388698 
L 216.967756 136.388698 
L 216.967756 135.462457 
L 217.663899 135.462457 
L 217.663899 134.536216 
L 218.005528 134.536216 
L 218.070032 133.609975 
L 218.79332 133.609975 
L 218.79332 133.146854 
L 220.982984 133.146854 
L 220.982984 132.683734 
L 221.345959 132.683734 
L 221.345959 132.220613 
L 221.833594 132.220613 
L 221.833594 131.757493 
L 221.977602 131.757493 
L 221.977602 130.831252 
L 222.536311 130.831252 
L 222.536311 130.368131 
L 223.169311 130.368131 
L 223.169311 129.905011 
L 224.235426 129.905011 
L 224.235426 129.44189 
L 225.507192 129.44189 
L 225.507192 128.515649 
L 227.213376 128.515649 
L 227.271389 127.589408 
L 228.144866 127.589408 
L 228.144866 127.126287 
L 228.94351 127.126287 
L 228.94351 126.663167 
L 232.000516 126.663167 
L 232.000516 126.200046 
L 232.34747 126.200046 
L 232.34747 125.736926 
L 234.758725 125.736926 
L 234.758725 125.273805 
L 235.397635 125.273805 
L 235.397635 124.810685 
L 236.233626 124.810685 
L 236.233626 124.347564 
L 237.300667 124.347564 
L 237.300667 123.884444 
L 237.412549 123.884444 
L 237.412549 122.958203 
L 237.966387 122.958203 
L 237.966387 122.495082 
L 239.738934 122.495082 
L 239.746854 121.105721 
L 240.271707 121.105721 
L 240.271707 120.17948 
L 242.015449 120.17948 
L 242.015449 119.253239 
L 242.962039 119.253239 
L 242.962039 118.790118 
L 243.407935 118.790118 
L 243.407935 117.863877 
L 244.455075 117.863877 
L 244.455075 117.400757 
L 245.08841 117.400757 
L 245.08841 116.474516 
L 245.979277 116.474516 
L 245.979277 116.011395 
L 246.518811 116.011395 
L 246.518811 115.548274 
L 248.126957 115.548274 
L 248.126957 115.085154 
L 248.962796 115.085154 
L 248.962796 114.622033 
L 250.198299 114.622033 
L 250.198299 113.695792 
L 252.795491 113.695792 
L 252.795491 112.769551 
L 253.911381 112.769551 
L 253.911381 111.84331 
L 254.495835 111.84331 
L 254.495835 110.917069 
L 255.05353 110.917069 
L 255.05353 109.990828 
L 256.34033 109.990828 
L 256.34033 109.064587 
L 258.096992 109.064587 
L 258.096992 108.138346 
L 338.688 108.138346 
L 338.688 108.138346 
" style="fill:none;stroke:#ff7500;stroke-linecap:square;stroke-width:1.5;"/>
   </g>
   <g id="line2d_46">
    <defs>
     <path d="M 0 -6 
L -1.347084 -1.854102 
L -5.706339 -1.854102 
L -2.179628 0.708204 
L -3.526712 4.854102 
L -0 2.291796 
L 3.526712 4.854102 
L 2.179628 0.708204 
L 5.706339 -1.854102 
L 1.347084 -1.854102 
z
" id="mc84faed1b5" style="stroke:#ff7500;stroke-linejoin:bevel;stroke-width:1.5;"/>
    </defs>
    <g>
     <use style="fill-opacity:0;stroke:#ff7500;stroke-linejoin:bevel;stroke-width:1.5;" x="173.17443" xlink:href="#mc84faed1b5" y="210.951101"/>
     <use style="fill-opacity:0;stroke:#ff7500;stroke-linejoin:bevel;stroke-width:1.5;" x="208.612878" xlink:href="#mc84faed1b5" y="144.261747"/>
     <use style="fill-opacity:0;stroke:#ff7500;stroke-linejoin:bevel;stroke-width:1.5;" x="258.096992" xlink:href="#mc84faed1b5" y="109.064587"/>
     <use style="fill-opacity:0;stroke:#ff7500;stroke-linejoin:bevel;stroke-width:1.5;" x="258.096992" xlink:href="#mc84faed1b5" y="108.138346"/>
     <use style="fill-opacity:0;stroke:#ff7500;stroke-linejoin:bevel;stroke-width:1.5;" x="338.688" xlink:href="#mc84faed1b5" y="108.138346"/>
    </g>
   </g>
   <g id="line2d_47">
    <path style="fill:none;stroke:#ff7500;stroke-linecap:square;stroke-width:1.5;"/>
    <g/>
   </g>
   <g id="line2d_48">
    <path clip-path="url(#p1a57b6fd2d)" d="M 258.377178 108.138346 
" style="fill:none;stroke:#ff7500;stroke-linecap:square;stroke-width:1.5;"/>
    <defs>
     <path d="M -12 12 
L 12 -12 
M -12 -12 
L 12 12 
" id="md14fc05609" style="stroke:#ff7500;"/>
    </defs>
    <g clip-path="url(#p1a57b6fd2d)">
     <use style="fill:#ff7500;stroke:#ff7500;" x="258.377178" xlink:href="#md14fc05609" y="108.138346"/>
    </g>
   </g>
   <g id="line2d_49">
    <path d="M 338.688 156.766001 
L 369.60768 293.571802 
" style="fill:none;stroke:#ff00ff;stroke-linecap:square;stroke-width:1.5;"/>
    <g>
     <use style="fill-opacity:0;stroke:#ff00ff;stroke-linejoin:miter;stroke-width:1.5;" x="338.688" xlink:href="#m3f2568123e" y="156.766001"/>
     <use style="fill-opacity:0;stroke:#ff00ff;stroke-linejoin:miter;stroke-width:1.5;" x="369.60768" xlink:href="#m3f2568123e" y="293.571802"/>
    </g>
   </g>
   <g id="line2d_50">
    <path d="M 338.688 108.138346 
L 369.60768 207.616634 
" style="fill:none;stroke:#ff7500;stroke-linecap:square;stroke-width:1.5;"/>
    <g>
     <use style="fill-opacity:0;stroke:#ff7500;stroke-linejoin:bevel;stroke-width:1.5;" x="338.688" xlink:href="#mc84faed1b5" y="108.138346"/>
     <use style="fill-opacity:0;stroke:#ff7500;stroke-linejoin:bevel;stroke-width:1.5;" x="369.60768" xlink:href="#mc84faed1b5" y="207.616634"/>
    </g>
   </g>
   <g id="line2d_51">
    <path d="M 338.688 102.117779 
L 369.60768 121.661465 
" style="fill:none;stroke:#000080;stroke-linecap:square;stroke-width:1.5;"/>
    <g>
     <use style="fill-opacity:0;stroke:#000080;stroke-width:1.5;" x="338.688" xlink:href="#mc9eda777fe" y="102.117779"/>
     <use style="fill-opacity:0;stroke:#000080;stroke-width:1.5;" x="369.60768" xlink:href="#mc9eda777fe" y="121.661465"/>
    </g>
   </g>
   <g id="line2d_52">
    <path d="M 338.688 298.944 
L 338.688 30.334099 
" style="fill:none;stroke:#000000;stroke-linecap:square;stroke-width:1.5;"/>
   </g>
   <g id="patch_3">
    <path d="M 57.6 298.944 
L 57.6 27.648 
" style="fill:none;stroke:#000000;stroke-linecap:square;stroke-linejoin:miter;stroke-width:0.8;"/>
   </g>
   <g id="patch_4">
    <path d="M 338.688 298.944 
L 338.688 27.648 
" style="fill:none;stroke:#000000;stroke-linecap:square;stroke-linejoin:miter;stroke-width:0.8;"/>
   </g>
   <g id="patch_5">
    <path d="M 57.6 298.944 
L 338.688 298.944 
" style="fill:none;stroke:#000000;stroke-linecap:square;stroke-linejoin:miter;stroke-width:0.8;"/>
   </g>
   <g id="patch_6">
    <path d="M 57.6 27.648 
L 338.688 27.648 
" style="fill:none;stroke:#000000;stroke-linecap:square;stroke-linejoin:miter;stroke-width:0.8;"/>
   </g>
   <g id="text_13">
    <!-- NSGA-II-M -->
    <g transform="translate(375.22944 298.262739)scale(0.17 -0.17)">
     <defs>
      <path d="M 9.8125 72.90625 
L 23.09375 72.90625 
L 55.421875 11.921875 
L 55.421875 72.90625 
L 64.984375 72.90625 
L 64.984375 0 
L 51.703125 0 
L 19.390625 60.984375 
L 19.390625 0 
L 9.8125 0 
z
" id="DejaVuSans-78"/>
      <path d="M 53.515625 70.515625 
L 53.515625 60.890625 
Q 47.90625 63.578125 42.921875 64.890625 
Q 37.9375 66.21875 33.296875 66.21875 
Q 25.25 66.21875 20.875 63.09375 
Q 16.5 59.96875 16.5 54.203125 
Q 16.5 49.359375 19.40625 46.890625 
Q 22.3125 44.4375 30.421875 42.921875 
L 36.375 41.703125 
Q 47.40625 39.59375 52.65625 34.296875 
Q 57.90625 29 57.90625 20.125 
Q 57.90625 9.515625 50.796875 4.046875 
Q 43.703125 -1.421875 29.984375 -1.421875 
Q 24.8125 -1.421875 18.96875 -0.25 
Q 13.140625 0.921875 6.890625 3.21875 
L 6.890625 13.375 
Q 12.890625 10.015625 18.65625 8.296875 
Q 24.421875 6.59375 29.984375 6.59375 
Q 38.421875 6.59375 43.015625 9.90625 
Q 47.609375 13.234375 47.609375 19.390625 
Q 47.609375 24.75 44.3125 27.78125 
Q 41.015625 30.8125 33.5 32.328125 
L 27.484375 33.5 
Q 16.453125 35.6875 11.515625 40.375 
Q 6.59375 45.0625 6.59375 53.421875 
Q 6.59375 63.09375 13.40625 68.65625 
Q 20.21875 74.21875 32.171875 74.21875 
Q 37.3125 74.21875 42.625 73.28125 
Q 47.953125 72.359375 53.515625 70.515625 
z
" id="DejaVuSans-83"/>
      <path d="M 59.515625 10.40625 
L 59.515625 29.984375 
L 43.40625 29.984375 
L 43.40625 38.09375 
L 69.28125 38.09375 
L 69.28125 6.78125 
Q 63.578125 2.734375 56.6875 0.65625 
Q 49.8125 -1.421875 42 -1.421875 
Q 24.90625 -1.421875 15.25 8.5625 
Q 5.609375 18.5625 5.609375 36.375 
Q 5.609375 54.25 15.25 64.234375 
Q 24.90625 74.21875 42 74.21875 
Q 49.125 74.21875 55.546875 72.453125 
Q 61.96875 70.703125 67.390625 67.28125 
L 67.390625 56.78125 
Q 61.921875 61.421875 55.765625 63.765625 
Q 49.609375 66.109375 42.828125 66.109375 
Q 29.4375 66.109375 22.71875 58.640625 
Q 16.015625 51.171875 16.015625 36.375 
Q 16.015625 21.625 22.71875 14.15625 
Q 29.4375 6.6875 42.828125 6.6875 
Q 48.046875 6.6875 52.140625 7.59375 
Q 56.25 8.5 59.515625 10.40625 
z
" id="DejaVuSans-71"/>
      <path d="M 34.1875 63.1875 
L 20.796875 26.90625 
L 47.609375 26.90625 
z
M 28.609375 72.90625 
L 39.796875 72.90625 
L 67.578125 0 
L 57.328125 0 
L 50.6875 18.703125 
L 17.828125 18.703125 
L 11.1875 0 
L 0.78125 0 
z
" id="DejaVuSans-65"/>
      <path d="M 9.8125 72.90625 
L 19.671875 72.90625 
L 19.671875 0 
L 9.8125 0 
z
" id="DejaVuSans-73"/>
      <path d="M 9.8125 72.90625 
L 24.515625 72.90625 
L 43.109375 23.296875 
L 61.8125 72.90625 
L 76.515625 72.90625 
L 76.515625 0 
L 66.890625 0 
L 66.890625 64.015625 
L 48.09375 14.015625 
L 38.1875 14.015625 
L 19.390625 64.015625 
L 19.390625 0 
L 9.8125 0 
z
" id="DejaVuSans-77"/>
     </defs>
     <use xlink:href="#DejaVuSans-78"/>
     <use x="74.804688" xlink:href="#DejaVuSans-83"/>
     <use x="138.28125" xlink:href="#DejaVuSans-71"/>
     <use x="215.771484" xlink:href="#DejaVuSans-65"/>
     <use x="281.929688" xlink:href="#DejaVuSans-45"/>
     <use x="318.013672" xlink:href="#DejaVuSans-73"/>
     <use x="347.505859" xlink:href="#DejaVuSans-73"/>
     <use x="376.998047" xlink:href="#DejaVuSans-45"/>
     <use x="413.082031" xlink:href="#DejaVuSans-77"/>
    </g>
   </g>
   <g id="text_14">
    <!-- SMS-EMOA- -->
    <g transform="translate(375.22944 212.307571)scale(0.17 -0.17)">
     <defs>
      <path d="M 9.8125 72.90625 
L 55.90625 72.90625 
L 55.90625 64.59375 
L 19.671875 64.59375 
L 19.671875 43.015625 
L 54.390625 43.015625 
L 54.390625 34.71875 
L 19.671875 34.71875 
L 19.671875 8.296875 
L 56.78125 8.296875 
L 56.78125 0 
L 9.8125 0 
z
" id="DejaVuSans-69"/>
      <path d="M 39.40625 66.21875 
Q 28.65625 66.21875 22.328125 58.203125 
Q 16.015625 50.203125 16.015625 36.375 
Q 16.015625 22.609375 22.328125 14.59375 
Q 28.65625 6.59375 39.40625 6.59375 
Q 50.140625 6.59375 56.421875 14.59375 
Q 62.703125 22.609375 62.703125 36.375 
Q 62.703125 50.203125 56.421875 58.203125 
Q 50.140625 66.21875 39.40625 66.21875 
z
M 39.40625 74.21875 
Q 54.734375 74.21875 63.90625 63.9375 
Q 73.09375 53.65625 73.09375 36.375 
Q 73.09375 19.140625 63.90625 8.859375 
Q 54.734375 -1.421875 39.40625 -1.421875 
Q 24.03125 -1.421875 14.8125 8.828125 
Q 5.609375 19.09375 5.609375 36.375 
Q 5.609375 53.65625 14.8125 63.9375 
Q 24.03125 74.21875 39.40625 74.21875 
z
" id="DejaVuSans-79"/>
     </defs>
     <use xlink:href="#DejaVuSans-83"/>
     <use x="63.476562" xlink:href="#DejaVuSans-77"/>
     <use x="149.755859" xlink:href="#DejaVuSans-83"/>
     <use x="213.232422" xlink:href="#DejaVuSans-45"/>
     <use x="249.316406" xlink:href="#DejaVuSans-69"/>
     <use x="312.5" xlink:href="#DejaVuSans-77"/>
     <use x="398.779297" xlink:href="#DejaVuSans-79"/>
     <use x="475.740234" xlink:href="#DejaVuSans-65"/>
     <use x="541.898438" xlink:href="#DejaVuSans-45"/>
    </g>
   </g>
   <g id="text_15">
    <!-- COMO-100  -->
    <g transform="translate(375.22944 126.352403)scale(0.17 -0.17)">
     <defs>
      <path d="M 64.40625 67.28125 
L 64.40625 56.890625 
Q 59.421875 61.53125 53.78125 63.8125 
Q 48.140625 66.109375 41.796875 66.109375 
Q 29.296875 66.109375 22.65625 58.46875 
Q 16.015625 50.828125 16.015625 36.375 
Q 16.015625 21.96875 22.65625 14.328125 
Q 29.296875 6.6875 41.796875 6.6875 
Q 48.140625 6.6875 53.78125 8.984375 
Q 59.421875 11.28125 64.40625 15.921875 
L 64.40625 5.609375 
Q 59.234375 2.09375 53.4375 0.328125 
Q 47.65625 -1.421875 41.21875 -1.421875 
Q 24.65625 -1.421875 15.125 8.703125 
Q 5.609375 18.84375 5.609375 36.375 
Q 5.609375 53.953125 15.125 64.078125 
Q 24.65625 74.21875 41.21875 74.21875 
Q 47.75 74.21875 53.53125 72.484375 
Q 59.328125 70.75 64.40625 67.28125 
z
" id="DejaVuSans-67"/>
     </defs>
     <use xlink:href="#DejaVuSans-67"/>
     <use x="69.824219" xlink:href="#DejaVuSans-79"/>
     <use x="148.535156" xlink:href="#DejaVuSans-77"/>
     <use x="234.814453" xlink:href="#DejaVuSans-79"/>
     <use x="316.275391" xlink:href="#DejaVuSans-45"/>
     <use x="352.359375" xlink:href="#DejaVuSans-49"/>
     <use x="415.982422" xlink:href="#DejaVuSans-48"/>
     <use x="479.605469" xlink:href="#DejaVuSans-48"/>
     <use x="543.228516" xlink:href="#DejaVuSans-32"/>
    </g>
   </g>
   <g id="text_16">
    <!-- best 2016 -->
    <g transform="translate(375.22944 40.397235)scale(0.17 -0.17)">
     <defs>
      <path d="M 48.6875 27.296875 
Q 48.6875 37.203125 44.609375 42.84375 
Q 40.53125 48.484375 33.40625 48.484375 
Q 26.265625 48.484375 22.1875 42.84375 
Q 18.109375 37.203125 18.109375 27.296875 
Q 18.109375 17.390625 22.1875 11.75 
Q 26.265625 6.109375 33.40625 6.109375 
Q 40.53125 6.109375 44.609375 11.75 
Q 48.6875 17.390625 48.6875 27.296875 
z
M 18.109375 46.390625 
Q 20.953125 51.265625 25.265625 53.625 
Q 29.59375 56 35.59375 56 
Q 45.5625 56 51.78125 48.09375 
Q 58.015625 40.1875 58.015625 27.296875 
Q 58.015625 14.40625 51.78125 6.484375 
Q 45.5625 -1.421875 35.59375 -1.421875 
Q 29.59375 -1.421875 25.265625 0.953125 
Q 20.953125 3.328125 18.109375 8.203125 
L 18.109375 0 
L 9.078125 0 
L 9.078125 75.984375 
L 18.109375 75.984375 
z
" id="DejaVuSans-98"/>
     </defs>
     <use xlink:href="#DejaVuSans-98"/>
     <use x="63.476562" xlink:href="#DejaVuSans-101"/>
     <use x="125" xlink:href="#DejaVuSans-115"/>
     <use x="177.099609" xlink:href="#DejaVuSans-116"/>
     <use x="216.308594" xlink:href="#DejaVuSans-32"/>
     <use x="248.095703" xlink:href="#DejaVuSans-50"/>
     <use x="311.71875" xlink:href="#DejaVuSans-48"/>
     <use x="375.341797" xlink:href="#DejaVuSans-49"/>
     <use x="438.964844" xlink:href="#DejaVuSans-54"/>
    </g>
   </g>
   <g id="text_17">
    <!-- bbob-biobj f6, 5-D -->
    <g transform="translate(60.41088 38.111366)scale(0.102 -0.102)">
     <defs>
      <path d="M 9.421875 54.6875 
L 18.40625 54.6875 
L 18.40625 -0.984375 
Q 18.40625 -11.421875 14.421875 -16.109375 
Q 10.453125 -20.796875 1.609375 -20.796875 
L -1.8125 -20.796875 
L -1.8125 -13.1875 
L 0.59375 -13.1875 
Q 5.71875 -13.1875 7.5625 -10.8125 
Q 9.421875 -8.453125 9.421875 -0.984375 
z
M 9.421875 75.984375 
L 18.40625 75.984375 
L 18.40625 64.59375 
L 9.421875 64.59375 
z
" id="DejaVuSans-106"/>
      <path d="M 10.796875 72.90625 
L 49.515625 72.90625 
L 49.515625 64.59375 
L 19.828125 64.59375 
L 19.828125 46.734375 
Q 21.96875 47.46875 24.109375 47.828125 
Q 26.265625 48.1875 28.421875 48.1875 
Q 40.625 48.1875 47.75 41.5 
Q 54.890625 34.8125 54.890625 23.390625 
Q 54.890625 11.625 47.5625 5.09375 
Q 40.234375 -1.421875 26.90625 -1.421875 
Q 22.3125 -1.421875 17.546875 -0.640625 
Q 12.796875 0.140625 7.71875 1.703125 
L 7.71875 11.625 
Q 12.109375 9.234375 16.796875 8.0625 
Q 21.484375 6.890625 26.703125 6.890625 
Q 35.15625 6.890625 40.078125 11.328125 
Q 45.015625 15.765625 45.015625 23.390625 
Q 45.015625 31 40.078125 35.4375 
Q 35.15625 39.890625 26.703125 39.890625 
Q 22.75 39.890625 18.8125 39.015625 
Q 14.890625 38.140625 10.796875 36.28125 
z
" id="DejaVuSans-53"/>
      <path d="M 19.671875 64.796875 
L 19.671875 8.109375 
L 31.59375 8.109375 
Q 46.6875 8.109375 53.6875 14.9375 
Q 60.6875 21.78125 60.6875 36.53125 
Q 60.6875 51.171875 53.6875 57.984375 
Q 46.6875 64.796875 31.59375 64.796875 
z
M 9.8125 72.90625 
L 30.078125 72.90625 
Q 51.265625 72.90625 61.171875 64.09375 
Q 71.09375 55.28125 71.09375 36.53125 
Q 71.09375 17.671875 61.125 8.828125 
Q 51.171875 0 30.078125 0 
L 9.8125 0 
z
" id="DejaVuSans-68"/>
     </defs>
     <use xlink:href="#DejaVuSans-98"/>
     <use x="63.476562" xlink:href="#DejaVuSans-98"/>
     <use x="126.953125" xlink:href="#DejaVuSans-111"/>
     <use x="188.134766" xlink:href="#DejaVuSans-98"/>
     <use x="251.611328" xlink:href="#DejaVuSans-45"/>
     <use x="287.695312" xlink:href="#DejaVuSans-98"/>
     <use x="351.171875" xlink:href="#DejaVuSans-105"/>
     <use x="378.955078" xlink:href="#DejaVuSans-111"/>
     <use x="440.136719" xlink:href="#DejaVuSans-98"/>
     <use x="503.613281" xlink:href="#DejaVuSans-106"/>
     <use x="531.396484" xlink:href="#DejaVuSans-32"/>
     <use x="563.183594" xlink:href="#DejaVuSans-102"/>
     <use x="598.388672" xlink:href="#DejaVuSans-54"/>
     <use x="662.011719" xlink:href="#DejaVuSans-44"/>
     <use x="693.798828" xlink:href="#DejaVuSans-32"/>
     <use x="725.585938" xlink:href="#DejaVuSans-53"/>
     <use x="789.208984" xlink:href="#DejaVuSans-45"/>
     <use x="825.292969" xlink:href="#DejaVuSans-68"/>
    </g>
    <!-- 58 targets: 1..-1.0e-4 -->
    <g transform="translate(60.41088 49.533135)scale(0.102 -0.102)">
     <defs>
      <path d="M 11.71875 12.40625 
L 22.015625 12.40625 
L 22.015625 0 
L 11.71875 0 
z
M 11.71875 51.703125 
L 22.015625 51.703125 
L 22.015625 39.3125 
L 11.71875 39.3125 
z
" id="DejaVuSans-58"/>
     </defs>
     <use xlink:href="#DejaVuSans-53"/>
     <use x="63.623047" xlink:href="#DejaVuSans-56"/>
     <use x="127.246094" xlink:href="#DejaVuSans-32"/>
     <use x="159.033203" xlink:href="#DejaVuSans-116"/>
     <use x="198.242188" xlink:href="#DejaVuSans-97"/>
     <use x="259.521484" xlink:href="#DejaVuSans-114"/>
     <use x="298.884766" xlink:href="#DejaVuSans-103"/>
     <use x="362.361328" xlink:href="#DejaVuSans-101"/>
     <use x="423.884766" xlink:href="#DejaVuSans-116"/>
     <use x="463.09375" xlink:href="#DejaVuSans-115"/>
     <use x="515.193359" xlink:href="#DejaVuSans-58"/>
     <use x="548.884766" xlink:href="#DejaVuSans-32"/>
     <use x="580.671875" xlink:href="#DejaVuSans-49"/>
     <use x="644.294922" xlink:href="#DejaVuSans-46"/>
     <use x="676.082031" xlink:href="#DejaVuSans-46"/>
     <use x="707.869141" xlink:href="#DejaVuSans-45"/>
     <use x="743.953125" xlink:href="#DejaVuSans-49"/>
     <use x="807.576172" xlink:href="#DejaVuSans-46"/>
     <use x="839.363281" xlink:href="#DejaVuSans-48"/>
     <use x="902.986328" xlink:href="#DejaVuSans-101"/>
     <use x="964.509766" xlink:href="#DejaVuSans-45"/>
     <use x="1000.59375" xlink:href="#DejaVuSans-52"/>
    </g>
    <!-- 10 instances -->
    <g transform="translate(60.41088 60.954904)scale(0.102 -0.102)">
     <use xlink:href="#DejaVuSans-49"/>
     <use x="63.623047" xlink:href="#DejaVuSans-48"/>
     <use x="127.246094" xlink:href="#DejaVuSans-32"/>
     <use x="159.033203" xlink:href="#DejaVuSans-105"/>
     <use x="186.816406" xlink:href="#DejaVuSans-110"/>
     <use x="250.195312" xlink:href="#DejaVuSans-115"/>
     <use x="302.294922" xlink:href="#DejaVuSans-116"/>
     <use x="341.503906" xlink:href="#DejaVuSans-97"/>
     <use x="402.783203" xlink:href="#DejaVuSans-110"/>
     <use x="466.162109" xlink:href="#DejaVuSans-99"/>
     <use x="521.142578" xlink:href="#DejaVuSans-101"/>
     <use x="582.666016" xlink:href="#DejaVuSans-115"/>
    </g>
   </g>
   <g id="text_18">
    <!-- v2.4.19, hv-hash=ff0e71e8cd978373 -->
    <g style="fill:#808080;" transform="translate(104.697125 294.151352)scale(0.1 -0.1)">
     <defs>
      <path d="M 10.984375 1.515625 
L 10.984375 10.5 
Q 14.703125 8.734375 18.5 7.8125 
Q 22.3125 6.890625 25.984375 6.890625 
Q 35.75 6.890625 40.890625 13.453125 
Q 46.046875 20.015625 46.78125 33.40625 
Q 43.953125 29.203125 39.59375 26.953125 
Q 35.25 24.703125 29.984375 24.703125 
Q 19.046875 24.703125 12.671875 31.3125 
Q 6.296875 37.9375 6.296875 49.421875 
Q 6.296875 60.640625 12.9375 67.421875 
Q 19.578125 74.21875 30.609375 74.21875 
Q 43.265625 74.21875 49.921875 64.515625 
Q 56.59375 54.828125 56.59375 36.375 
Q 56.59375 19.140625 48.40625 8.859375 
Q 40.234375 -1.421875 26.421875 -1.421875 
Q 22.703125 -1.421875 18.890625 -0.6875 
Q 15.09375 0.046875 10.984375 1.515625 
z
M 30.609375 32.421875 
Q 37.25 32.421875 41.125 36.953125 
Q 45.015625 41.5 45.015625 49.421875 
Q 45.015625 57.28125 41.125 61.84375 
Q 37.25 66.40625 30.609375 66.40625 
Q 23.96875 66.40625 20.09375 61.84375 
Q 16.21875 57.28125 16.21875 49.421875 
Q 16.21875 41.5 20.09375 36.953125 
Q 23.96875 32.421875 30.609375 32.421875 
z
" id="DejaVuSans-57"/>
      <path d="M 54.890625 33.015625 
L 54.890625 0 
L 45.90625 0 
L 45.90625 32.71875 
Q 45.90625 40.484375 42.875 44.328125 
Q 39.84375 48.1875 33.796875 48.1875 
Q 26.515625 48.1875 22.3125 43.546875 
Q 18.109375 38.921875 18.109375 30.90625 
L 18.109375 0 
L 9.078125 0 
L 9.078125 75.984375 
L 18.109375 75.984375 
L 18.109375 46.1875 
Q 21.34375 51.125 25.703125 53.5625 
Q 30.078125 56 35.796875 56 
Q 45.21875 56 50.046875 50.171875 
Q 54.890625 44.34375 54.890625 33.015625 
z
" id="DejaVuSans-104"/>
      <path d="M 10.59375 45.40625 
L 73.1875 45.40625 
L 73.1875 37.203125 
L 10.59375 37.203125 
z
M 10.59375 25.484375 
L 73.1875 25.484375 
L 73.1875 17.1875 
L 10.59375 17.1875 
z
" id="DejaVuSans-61"/>
      <path d="M 8.203125 72.90625 
L 55.078125 72.90625 
L 55.078125 68.703125 
L 28.609375 0 
L 18.3125 0 
L 43.21875 64.59375 
L 8.203125 64.59375 
z
" id="DejaVuSans-55"/>
      <path d="M 40.578125 39.3125 
Q 47.65625 37.796875 51.625 33 
Q 55.609375 28.21875 55.609375 21.1875 
Q 55.609375 10.40625 48.1875 4.484375 
Q 40.765625 -1.421875 27.09375 -1.421875 
Q 22.515625 -1.421875 17.65625 -0.515625 
Q 12.796875 0.390625 7.625 2.203125 
L 7.625 11.71875 
Q 11.71875 9.328125 16.59375 8.109375 
Q 21.484375 6.890625 26.8125 6.890625 
Q 36.078125 6.890625 40.9375 10.546875 
Q 45.796875 14.203125 45.796875 21.1875 
Q 45.796875 27.640625 41.28125 31.265625 
Q 36.765625 34.90625 28.71875 34.90625 
L 20.21875 34.90625 
L 20.21875 43.015625 
L 29.109375 43.015625 
Q 36.375 43.015625 40.234375 45.921875 
Q 44.09375 48.828125 44.09375 54.296875 
Q 44.09375 59.90625 40.109375 62.90625 
Q 36.140625 65.921875 28.71875 65.921875 
Q 24.65625 65.921875 20.015625 65.03125 
Q 15.375 64.15625 9.8125 62.3125 
L 9.8125 71.09375 
Q 15.4375 72.65625 20.34375 73.4375 
Q 25.25 74.21875 29.59375 74.21875 
Q 40.828125 74.21875 47.359375 69.109375 
Q 53.90625 64.015625 53.90625 55.328125 
Q 53.90625 49.265625 50.4375 45.09375 
Q 46.96875 40.921875 40.578125 39.3125 
z
" id="DejaVuSans-51"/>
     </defs>
     <use xlink:href="#DejaVuSans-118"/>
     <use x="59.179688" xlink:href="#DejaVuSans-50"/>
     <use x="122.802734" xlink:href="#DejaVuSans-46"/>
     <use x="154.589844" xlink:href="#DejaVuSans-52"/>
     <use x="218.212891" xlink:href="#DejaVuSans-46"/>
     <use x="250" xlink:href="#DejaVuSans-49"/>
     <use x="313.623047" xlink:href="#DejaVuSans-57"/>
     <use x="377.246094" xlink:href="#DejaVuSans-44"/>
     <use x="409.033203" xlink:href="#DejaVuSans-32"/>
     <use x="440.820312" xlink:href="#DejaVuSans-104"/>
     <use x="504.199219" xlink:href="#DejaVuSans-118"/>
     <use x="560.753906" xlink:href="#DejaVuSans-45"/>
     <use x="596.837891" xlink:href="#DejaVuSans-104"/>
     <use x="660.216797" xlink:href="#DejaVuSans-97"/>
     <use x="721.496094" xlink:href="#DejaVuSans-115"/>
     <use x="773.595703" xlink:href="#DejaVuSans-104"/>
     <use x="836.974609" xlink:href="#DejaVuSans-61"/>
     <use x="920.763672" xlink:href="#DejaVuSans-102"/>
     <use x="955.96875" xlink:href="#DejaVuSans-102"/>
     <use x="991.173828" xlink:href="#DejaVuSans-48"/>
     <use x="1054.796875" xlink:href="#DejaVuSans-101"/>
     <use x="1116.320312" xlink:href="#DejaVuSans-55"/>
     <use x="1179.943359" xlink:href="#DejaVuSans-49"/>
     <use x="1243.566406" xlink:href="#DejaVuSans-101"/>
     <use x="1305.089844" xlink:href="#DejaVuSans-56"/>
     <use x="1368.712891" xlink:href="#DejaVuSans-99"/>
     <use x="1423.693359" xlink:href="#DejaVuSans-100"/>
     <use x="1487.169922" xlink:href="#DejaVuSans-57"/>
     <use x="1550.792969" xlink:href="#DejaVuSans-55"/>
     <use x="1614.416016" xlink:href="#DejaVuSans-56"/>
     <use x="1678.039062" xlink:href="#DejaVuSans-51"/>
     <use x="1741.662109" xlink:href="#DejaVuSans-55"/>
     <use x="1805.285156" xlink:href="#DejaVuSans-51"/>
    </g>
   </g>
   <g id="text_19">
    <!-- 6 Sphere/Different Powers -->
    <g transform="translate(67.423687 21.648)scale(0.2 -0.2)">
     <defs>
      <path d="M 19.671875 64.796875 
L 19.671875 37.40625 
L 32.078125 37.40625 
Q 38.96875 37.40625 42.71875 40.96875 
Q 46.484375 44.53125 46.484375 51.125 
Q 46.484375 57.671875 42.71875 61.234375 
Q 38.96875 64.796875 32.078125 64.796875 
z
M 9.8125 72.90625 
L 32.078125 72.90625 
Q 44.34375 72.90625 50.609375 67.359375 
Q 56.890625 61.8125 56.890625 51.125 
Q 56.890625 40.328125 50.609375 34.8125 
Q 44.34375 29.296875 32.078125 29.296875 
L 19.671875 29.296875 
L 19.671875 0 
L 9.8125 0 
z
" id="DejaVuSans-80"/>
      <path d="M 4.203125 54.6875 
L 13.1875 54.6875 
L 24.421875 12.015625 
L 35.59375 54.6875 
L 46.1875 54.6875 
L 57.421875 12.015625 
L 68.609375 54.6875 
L 77.59375 54.6875 
L 63.28125 0 
L 52.6875 0 
L 40.921875 44.828125 
L 29.109375 0 
L 18.5 0 
z
" id="DejaVuSans-119"/>
     </defs>
     <use xlink:href="#DejaVuSans-54"/>
     <use x="63.623047" xlink:href="#DejaVuSans-32"/>
     <use x="95.410156" xlink:href="#DejaVuSans-83"/>
     <use x="158.886719" xlink:href="#DejaVuSans-112"/>
     <use x="222.363281" xlink:href="#DejaVuSans-104"/>
     <use x="285.742188" xlink:href="#DejaVuSans-101"/>
     <use x="347.265625" xlink:href="#DejaVuSans-114"/>
     <use x="386.128906" xlink:href="#DejaVuSans-101"/>
     <use x="447.652344" xlink:href="#DejaVuSans-47"/>
     <use x="481.34375" xlink:href="#DejaVuSans-68"/>
     <use x="558.345703" xlink:href="#DejaVuSans-105"/>
     <use x="586.128906" xlink:href="#DejaVuSans-102"/>
     <use x="621.333984" xlink:href="#DejaVuSans-102"/>
     <use x="656.539062" xlink:href="#DejaVuSans-101"/>
     <use x="718.0625" xlink:href="#DejaVuSans-114"/>
     <use x="756.925781" xlink:href="#DejaVuSans-101"/>
     <use x="818.449219" xlink:href="#DejaVuSans-110"/>
     <use x="881.828125" xlink:href="#DejaVuSans-116"/>
     <use x="921.037109" xlink:href="#DejaVuSans-32"/>
     <use x="952.824219" xlink:href="#DejaVuSans-80"/>
     <use x="1009.501953" xlink:href="#DejaVuSans-111"/>
     <use x="1070.683594" xlink:href="#DejaVuSans-119"/>
     <use x="1152.470703" xlink:href="#DejaVuSans-101"/>
     <use x="1213.994141" xlink:href="#DejaVuSans-114"/>
     <use x="1255.107422" xlink:href="#DejaVuSans-115"/>
    </g>
   </g>
  </g>
 </g>
 <defs>
  <clipPath id="p1a57b6fd2d">
   <rect height="271.296" width="281.088" x="57.6" y="27.648"/>
  </clipPath>
 </defs>
</svg>
