<?xml version="1.0" encoding="utf-8" standalone="no"?>
<!DOCTYPE svg PUBLIC "-//W3C//DTD SVG 1.1//EN"
  "http://www.w3.org/Graphics/SVG/1.1/DTD/svg11.dtd">
<!-- Created with matplotlib (https://matplotlib.org/) -->
<svg height="345.6pt" version="1.1" viewBox="0 0 460.8 345.6" width="460.8pt" xmlns="http://www.w3.org/2000/svg" xmlns:xlink="http://www.w3.org/1999/xlink">
 <metadata>
  <rdf:RDF xmlns:cc="http://creativecommons.org/ns#" xmlns:dc="http://purl.org/dc/elements/1.1/" xmlns:rdf="http://www.w3.org/1999/02/22-rdf-syntax-ns#">
   <cc:Work>
    <dc:type rdf:resource="http://purl.org/dc/dcmitype/StillImage"/>
    <dc:date>2021-04-26T15:04:12.459668</dc:date>
    <dc:format>image/svg+xml</dc:format>
    <dc:creator>
     <cc:Agent>
      <dc:title>Matplotlib v3.3.2, https://matplotlib.org/</dc:title>
     </cc:Agent>
    </dc:creator>
   </cc:Work>
  </rdf:RDF>
 </metadata>
 <defs>
  <style type="text/css">*{stroke-linecap:butt;stroke-linejoin:round;}</style>
 </defs>
 <g id="figure_1">
  <g id="patch_1">
   <path d="M 0 345.6 
L 460.8 345.6 
L 460.8 0 
L 0 0 
z
" style="fill:#ffffff;"/>
  </g>
  <g id="axes_1">
   <g id="patch_2">
    <path d="M 57.6 298.944 
L 338.688 298.944 
L 338.688 27.648 
L 57.6 27.648 
z
" style="fill:#ffffff;"/>
   </g>
   <g id="line2d_1">
    <path d="M 50.52898 298.944 
L 50.52898 285.050384 
L 78.59642 285.050384 
L 78.59642 275.787974 
L 90.684409 275.787974 
L 90.684409 271.156769 
L 100.934985 271.156769 
L 100.934985 257.263153 
L 105.951954 257.263153 
L 105.951954 248.000743 
L 114.418861 248.000743 
L 114.418861 243.369538 
L 122.782271 243.369538 
L 122.782271 234.107127 
L 130.664567 234.107127 
L 130.664567 220.213512 
L 136.519813 220.213512 
L 136.519813 210.951101 
L 142.170445 210.951101 
L 142.170445 201.688691 
L 147.70334 201.688691 
L 147.70334 192.426281 
L 154.029268 192.426281 
L 154.029268 187.795075 
L 161.450455 187.795075 
L 161.450455 173.90146 
L 168.006494 173.90146 
L 168.006494 169.270255 
L 177.48709 169.270255 
L 177.48709 155.376639 
L 189.739559 155.376639 
L 189.739559 146.114229 
L 197.040234 146.114229 
L 197.040234 141.483024 
L 203.427613 141.483024 
L 203.427613 127.589408 
L 211.596622 127.589408 
L 211.596622 122.958203 
L 218.888919 122.958203 
L 218.888919 109.064587 
L 226.381142 109.064587 
L 226.381142 99.802177 
L 235.571493 99.802177 
L 235.571493 90.539766 
L 243.948102 90.539766 
L 243.948102 85.908561 
L 249.941061 85.908561 
L 249.941061 76.646151 
L 256.323571 76.646151 
L 256.323571 62.752535 
L 338.688 62.752535 
" style="fill:none;stroke:#f5deb3;stroke-linecap:square;stroke-width:4;"/>
   </g>
   <g id="line2d_2">
    <defs>
     <path d="M 0 7.778175 
L 7.778175 0 
L 0 -7.778175 
L -7.778175 0 
z
" id="m808bbe58d7" style="stroke:#f5deb3;stroke-linejoin:miter;stroke-width:1.5;"/>
    </defs>
    <g>
     <use style="fill:#f5deb3;stroke:#f5deb3;stroke-linejoin:miter;stroke-width:1.5;" x="114.418861" xlink:href="#m808bbe58d7" y="243.369538"/>
     <use style="fill:#f5deb3;stroke:#f5deb3;stroke-linejoin:miter;stroke-width:1.5;" x="177.48709" xlink:href="#m808bbe58d7" y="169.270255"/>
     <use style="fill:#f5deb3;stroke:#f5deb3;stroke-linejoin:miter;stroke-width:1.5;" x="211.596622" xlink:href="#m808bbe58d7" y="122.958203"/>
     <use style="fill:#f5deb3;stroke:#f5deb3;stroke-linejoin:miter;stroke-width:1.5;" x="256.323571" xlink:href="#m808bbe58d7" y="62.752535"/>
     <use style="fill:#f5deb3;stroke:#f5deb3;stroke-linejoin:miter;stroke-width:1.5;" x="256.323571" xlink:href="#m808bbe58d7" y="62.752535"/>
     <use style="fill:#f5deb3;stroke:#f5deb3;stroke-linejoin:miter;stroke-width:1.5;" x="338.688" xlink:href="#m808bbe58d7" y="62.752535"/>
    </g>
   </g>
   <g id="line2d_3">
    <path style="fill:none;stroke:#f5deb3;stroke-linecap:square;stroke-width:4;"/>
    <g/>
   </g>
   <g id="line2d_4">
    <path d="M 338.688 62.752535 
L 369.60768 35.706297 
" style="fill:none;stroke:#f5deb3;stroke-linecap:square;stroke-width:4;"/>
    <g>
     <use style="fill:#f5deb3;stroke:#f5deb3;stroke-linejoin:miter;stroke-width:1.5;" x="338.688" xlink:href="#m808bbe58d7" y="62.752535"/>
     <use style="fill:#f5deb3;stroke:#f5deb3;stroke-linejoin:miter;stroke-width:1.5;" x="369.60768" xlink:href="#m808bbe58d7" y="35.706297"/>
    </g>
   </g>
   <g id="matplotlib.axis_1">
    <g id="xtick_1">
     <g id="line2d_5">
      <path clip-path="url(#pb6d8b6e0c8)" d="M 57.6 298.944 
L 57.6 27.648 
" style="fill:none;stroke:#b0b0b0;stroke-linecap:square;stroke-width:0.8;"/>
     </g>
     <g id="line2d_6">
      <defs>
       <path d="M 0 0 
L 0 3.5 
" id="m53899f48df" style="stroke:#000000;stroke-width:0.8;"/>
      </defs>
      <g>
       <use style="stroke:#000000;stroke-width:0.8;" x="57.6" xlink:href="#m53899f48df" y="298.944"/>
      </g>
     </g>
     <g id="text_1">
      <!-- 0 -->
      <g transform="translate(51.2375 321.140875)scale(0.2 -0.2)">
       <defs>
        <path d="M 31.78125 66.40625 
Q 24.171875 66.40625 20.328125 58.90625 
Q 16.5 51.421875 16.5 36.375 
Q 16.5 21.390625 20.328125 13.890625 
Q 24.171875 6.390625 31.78125 6.390625 
Q 39.453125 6.390625 43.28125 13.890625 
Q 47.125 21.390625 47.125 36.375 
Q 47.125 51.421875 43.28125 58.90625 
Q 39.453125 66.40625 31.78125 66.40625 
z
M 31.78125 74.21875 
Q 44.046875 74.21875 50.515625 64.515625 
Q 56.984375 54.828125 56.984375 36.375 
Q 56.984375 17.96875 50.515625 8.265625 
Q 44.046875 -1.421875 31.78125 -1.421875 
Q 19.53125 -1.421875 13.0625 8.265625 
Q 6.59375 17.96875 6.59375 36.375 
Q 6.59375 54.828125 13.0625 64.515625 
Q 19.53125 74.21875 31.78125 74.21875 
z
" id="DejaVuSans-48"/>
       </defs>
       <use xlink:href="#DejaVuSans-48"/>
      </g>
     </g>
    </g>
    <g id="xtick_2">
     <g id="line2d_7">
      <path clip-path="url(#pb6d8b6e0c8)" d="M 137.910857 298.944 
L 137.910857 27.648 
" style="fill:none;stroke:#b0b0b0;stroke-linecap:square;stroke-width:0.8;"/>
     </g>
     <g id="line2d_8">
      <g>
       <use style="stroke:#000000;stroke-width:0.8;" x="137.910857" xlink:href="#m53899f48df" y="298.944"/>
      </g>
     </g>
     <g id="text_2">
      <!-- 2 -->
      <g transform="translate(131.548357 321.140875)scale(0.2 -0.2)">
       <defs>
        <path d="M 19.1875 8.296875 
L 53.609375 8.296875 
L 53.609375 0 
L 7.328125 0 
L 7.328125 8.296875 
Q 12.9375 14.109375 22.625 23.890625 
Q 32.328125 33.6875 34.8125 36.53125 
Q 39.546875 41.84375 41.421875 45.53125 
Q 43.3125 49.21875 43.3125 52.78125 
Q 43.3125 58.59375 39.234375 62.25 
Q 35.15625 65.921875 28.609375 65.921875 
Q 23.96875 65.921875 18.8125 64.3125 
Q 13.671875 62.703125 7.8125 59.421875 
L 7.8125 69.390625 
Q 13.765625 71.78125 18.9375 73 
Q 24.125 74.21875 28.421875 74.21875 
Q 39.75 74.21875 46.484375 68.546875 
Q 53.21875 62.890625 53.21875 53.421875 
Q 53.21875 48.921875 51.53125 44.890625 
Q 49.859375 40.875 45.40625 35.40625 
Q 44.1875 33.984375 37.640625 27.21875 
Q 31.109375 20.453125 19.1875 8.296875 
z
" id="DejaVuSans-50"/>
       </defs>
       <use xlink:href="#DejaVuSans-50"/>
      </g>
     </g>
    </g>
    <g id="xtick_3">
     <g id="line2d_9">
      <path clip-path="url(#pb6d8b6e0c8)" d="M 218.221714 298.944 
L 218.221714 27.648 
" style="fill:none;stroke:#b0b0b0;stroke-linecap:square;stroke-width:0.8;"/>
     </g>
     <g id="line2d_10">
      <g>
       <use style="stroke:#000000;stroke-width:0.8;" x="218.221714" xlink:href="#m53899f48df" y="298.944"/>
      </g>
     </g>
     <g id="text_3">
      <!-- 4 -->
      <g transform="translate(211.859214 321.140875)scale(0.2 -0.2)">
       <defs>
        <path d="M 37.796875 64.3125 
L 12.890625 25.390625 
L 37.796875 25.390625 
z
M 35.203125 72.90625 
L 47.609375 72.90625 
L 47.609375 25.390625 
L 58.015625 25.390625 
L 58.015625 17.1875 
L 47.609375 17.1875 
L 47.609375 0 
L 37.796875 0 
L 37.796875 17.1875 
L 4.890625 17.1875 
L 4.890625 26.703125 
z
" id="DejaVuSans-52"/>
       </defs>
       <use xlink:href="#DejaVuSans-52"/>
      </g>
     </g>
    </g>
    <g id="xtick_4">
     <g id="line2d_11">
      <path clip-path="url(#pb6d8b6e0c8)" d="M 298.532571 298.944 
L 298.532571 27.648 
" style="fill:none;stroke:#b0b0b0;stroke-linecap:square;stroke-width:0.8;"/>
     </g>
     <g id="line2d_12">
      <g>
       <use style="stroke:#000000;stroke-width:0.8;" x="298.532571" xlink:href="#m53899f48df" y="298.944"/>
      </g>
     </g>
     <g id="text_4">
      <!-- 6 -->
      <g transform="translate(292.170071 321.140875)scale(0.2 -0.2)">
       <defs>
        <path d="M 33.015625 40.375 
Q 26.375 40.375 22.484375 35.828125 
Q 18.609375 31.296875 18.609375 23.390625 
Q 18.609375 15.53125 22.484375 10.953125 
Q 26.375 6.390625 33.015625 6.390625 
Q 39.65625 6.390625 43.53125 10.953125 
Q 47.40625 15.53125 47.40625 23.390625 
Q 47.40625 31.296875 43.53125 35.828125 
Q 39.65625 40.375 33.015625 40.375 
z
M 52.59375 71.296875 
L 52.59375 62.3125 
Q 48.875 64.0625 45.09375 64.984375 
Q 41.3125 65.921875 37.59375 65.921875 
Q 27.828125 65.921875 22.671875 59.328125 
Q 17.53125 52.734375 16.796875 39.40625 
Q 19.671875 43.65625 24.015625 45.921875 
Q 28.375 48.1875 33.59375 48.1875 
Q 44.578125 48.1875 50.953125 41.515625 
Q 57.328125 34.859375 57.328125 23.390625 
Q 57.328125 12.15625 50.6875 5.359375 
Q 44.046875 -1.421875 33.015625 -1.421875 
Q 20.359375 -1.421875 13.671875 8.265625 
Q 6.984375 17.96875 6.984375 36.375 
Q 6.984375 53.65625 15.1875 63.9375 
Q 23.390625 74.21875 37.203125 74.21875 
Q 40.921875 74.21875 44.703125 73.484375 
Q 48.484375 72.75 52.59375 71.296875 
z
" id="DejaVuSans-54"/>
       </defs>
       <use xlink:href="#DejaVuSans-54"/>
      </g>
     </g>
    </g>
    <g id="xtick_5">
     <g id="line2d_13">
      <path clip-path="url(#pb6d8b6e0c8)" d="M 97.755429 298.944 
L 97.755429 27.648 
" style="fill:none;stroke:#b0b0b0;stroke-linecap:square;stroke-width:0.8;"/>
     </g>
     <g id="line2d_14">
      <defs>
       <path d="M 0 0 
L 0 2 
" id="mbaa187ba82" style="stroke:#000000;stroke-width:0.6;"/>
      </defs>
      <g>
       <use style="stroke:#000000;stroke-width:0.6;" x="97.755429" xlink:href="#mbaa187ba82" y="298.944"/>
      </g>
     </g>
    </g>
    <g id="xtick_6">
     <g id="line2d_15">
      <path clip-path="url(#pb6d8b6e0c8)" d="M 178.066286 298.944 
L 178.066286 27.648 
" style="fill:none;stroke:#b0b0b0;stroke-linecap:square;stroke-width:0.8;"/>
     </g>
     <g id="line2d_16">
      <g>
       <use style="stroke:#000000;stroke-width:0.6;" x="178.066286" xlink:href="#mbaa187ba82" y="298.944"/>
      </g>
     </g>
    </g>
    <g id="xtick_7">
     <g id="line2d_17">
      <path clip-path="url(#pb6d8b6e0c8)" d="M 258.377143 298.944 
L 258.377143 27.648 
" style="fill:none;stroke:#b0b0b0;stroke-linecap:square;stroke-width:0.8;"/>
     </g>
     <g id="line2d_18">
      <g>
       <use style="stroke:#000000;stroke-width:0.6;" x="258.377143" xlink:href="#mbaa187ba82" y="298.944"/>
      </g>
     </g>
    </g>
    <g id="xtick_8">
     <g id="line2d_19">
      <path clip-path="url(#pb6d8b6e0c8)" d="M 338.688 298.944 
L 338.688 27.648 
" style="fill:none;stroke:#b0b0b0;stroke-linecap:square;stroke-width:0.8;"/>
     </g>
     <g id="line2d_20">
      <g>
       <use style="stroke:#000000;stroke-width:0.6;" x="338.688" xlink:href="#mbaa187ba82" y="298.944"/>
      </g>
     </g>
    </g>
    <g id="text_5">
     <!-- log10(# f-evals / dimension) -->
     <g transform="translate(77.764078 342.217594)scale(0.17 -0.17)">
      <defs>
       <path d="M 9.421875 75.984375 
L 18.40625 75.984375 
L 18.40625 0 
L 9.421875 0 
z
" id="DejaVuSans-108"/>
       <path d="M 30.609375 48.390625 
Q 23.390625 48.390625 19.1875 42.75 
Q 14.984375 37.109375 14.984375 27.296875 
Q 14.984375 17.484375 19.15625 11.84375 
Q 23.34375 6.203125 30.609375 6.203125 
Q 37.796875 6.203125 41.984375 11.859375 
Q 46.1875 17.53125 46.1875 27.296875 
Q 46.1875 37.015625 41.984375 42.703125 
Q 37.796875 48.390625 30.609375 48.390625 
z
M 30.609375 56 
Q 42.328125 56 49.015625 48.375 
Q 55.71875 40.765625 55.71875 27.296875 
Q 55.71875 13.875 49.015625 6.21875 
Q 42.328125 -1.421875 30.609375 -1.421875 
Q 18.84375 -1.421875 12.171875 6.21875 
Q 5.515625 13.875 5.515625 27.296875 
Q 5.515625 40.765625 12.171875 48.375 
Q 18.84375 56 30.609375 56 
z
" id="DejaVuSans-111"/>
       <path d="M 45.40625 27.984375 
Q 45.40625 37.75 41.375 43.109375 
Q 37.359375 48.484375 30.078125 48.484375 
Q 22.859375 48.484375 18.828125 43.109375 
Q 14.796875 37.75 14.796875 27.984375 
Q 14.796875 18.265625 18.828125 12.890625 
Q 22.859375 7.515625 30.078125 7.515625 
Q 37.359375 7.515625 41.375 12.890625 
Q 45.40625 18.265625 45.40625 27.984375 
z
M 54.390625 6.78125 
Q 54.390625 -7.171875 48.1875 -13.984375 
Q 42 -20.796875 29.203125 -20.796875 
Q 24.46875 -20.796875 20.265625 -20.09375 
Q 16.0625 -19.390625 12.109375 -17.921875 
L 12.109375 -9.1875 
Q 16.0625 -11.328125 19.921875 -12.34375 
Q 23.78125 -13.375 27.78125 -13.375 
Q 36.625 -13.375 41.015625 -8.765625 
Q 45.40625 -4.15625 45.40625 5.171875 
L 45.40625 9.625 
Q 42.625 4.78125 38.28125 2.390625 
Q 33.9375 0 27.875 0 
Q 17.828125 0 11.671875 7.65625 
Q 5.515625 15.328125 5.515625 27.984375 
Q 5.515625 40.671875 11.671875 48.328125 
Q 17.828125 56 27.875 56 
Q 33.9375 56 38.28125 53.609375 
Q 42.625 51.21875 45.40625 46.390625 
L 45.40625 54.6875 
L 54.390625 54.6875 
z
" id="DejaVuSans-103"/>
       <path d="M 12.40625 8.296875 
L 28.515625 8.296875 
L 28.515625 63.921875 
L 10.984375 60.40625 
L 10.984375 69.390625 
L 28.421875 72.90625 
L 38.28125 72.90625 
L 38.28125 8.296875 
L 54.390625 8.296875 
L 54.390625 0 
L 12.40625 0 
z
" id="DejaVuSans-49"/>
       <path d="M 31 75.875 
Q 24.46875 64.65625 21.28125 53.65625 
Q 18.109375 42.671875 18.109375 31.390625 
Q 18.109375 20.125 21.3125 9.0625 
Q 24.515625 -2 31 -13.1875 
L 23.1875 -13.1875 
Q 15.875 -1.703125 12.234375 9.375 
Q 8.59375 20.453125 8.59375 31.390625 
Q 8.59375 42.28125 12.203125 53.3125 
Q 15.828125 64.359375 23.1875 75.875 
z
" id="DejaVuSans-40"/>
       <path d="M 51.125 44 
L 36.921875 44 
L 32.8125 27.6875 
L 47.125 27.6875 
z
M 43.796875 71.78125 
L 38.71875 51.515625 
L 52.984375 51.515625 
L 58.109375 71.78125 
L 65.921875 71.78125 
L 60.890625 51.515625 
L 76.125 51.515625 
L 76.125 44 
L 58.984375 44 
L 54.984375 27.6875 
L 70.515625 27.6875 
L 70.515625 20.21875 
L 53.078125 20.21875 
L 48 0 
L 40.1875 0 
L 45.21875 20.21875 
L 30.90625 20.21875 
L 25.875 0 
L 18.015625 0 
L 23.09375 20.21875 
L 7.71875 20.21875 
L 7.71875 27.6875 
L 24.90625 27.6875 
L 29 44 
L 13.28125 44 
L 13.28125 51.515625 
L 30.90625 51.515625 
L 35.890625 71.78125 
z
" id="DejaVuSans-35"/>
       <path id="DejaVuSans-32"/>
       <path d="M 37.109375 75.984375 
L 37.109375 68.5 
L 28.515625 68.5 
Q 23.6875 68.5 21.796875 66.546875 
Q 19.921875 64.59375 19.921875 59.515625 
L 19.921875 54.6875 
L 34.71875 54.6875 
L 34.71875 47.703125 
L 19.921875 47.703125 
L 19.921875 0 
L 10.890625 0 
L 10.890625 47.703125 
L 2.296875 47.703125 
L 2.296875 54.6875 
L 10.890625 54.6875 
L 10.890625 58.5 
Q 10.890625 67.625 15.140625 71.796875 
Q 19.390625 75.984375 28.609375 75.984375 
z
" id="DejaVuSans-102"/>
       <path d="M 4.890625 31.390625 
L 31.203125 31.390625 
L 31.203125 23.390625 
L 4.890625 23.390625 
z
" id="DejaVuSans-45"/>
       <path d="M 56.203125 29.59375 
L 56.203125 25.203125 
L 14.890625 25.203125 
Q 15.484375 15.921875 20.484375 11.0625 
Q 25.484375 6.203125 34.421875 6.203125 
Q 39.59375 6.203125 44.453125 7.46875 
Q 49.3125 8.734375 54.109375 11.28125 
L 54.109375 2.78125 
Q 49.265625 0.734375 44.1875 -0.34375 
Q 39.109375 -1.421875 33.890625 -1.421875 
Q 20.796875 -1.421875 13.15625 6.1875 
Q 5.515625 13.8125 5.515625 26.8125 
Q 5.515625 40.234375 12.765625 48.109375 
Q 20.015625 56 32.328125 56 
Q 43.359375 56 49.78125 48.890625 
Q 56.203125 41.796875 56.203125 29.59375 
z
M 47.21875 32.234375 
Q 47.125 39.59375 43.09375 43.984375 
Q 39.0625 48.390625 32.421875 48.390625 
Q 24.90625 48.390625 20.390625 44.140625 
Q 15.875 39.890625 15.1875 32.171875 
z
" id="DejaVuSans-101"/>
       <path d="M 2.984375 54.6875 
L 12.5 54.6875 
L 29.59375 8.796875 
L 46.6875 54.6875 
L 56.203125 54.6875 
L 35.6875 0 
L 23.484375 0 
z
" id="DejaVuSans-118"/>
       <path d="M 34.28125 27.484375 
Q 23.390625 27.484375 19.1875 25 
Q 14.984375 22.515625 14.984375 16.5 
Q 14.984375 11.71875 18.140625 8.90625 
Q 21.296875 6.109375 26.703125 6.109375 
Q 34.1875 6.109375 38.703125 11.40625 
Q 43.21875 16.703125 43.21875 25.484375 
L 43.21875 27.484375 
z
M 52.203125 31.203125 
L 52.203125 0 
L 43.21875 0 
L 43.21875 8.296875 
Q 40.140625 3.328125 35.546875 0.953125 
Q 30.953125 -1.421875 24.3125 -1.421875 
Q 15.921875 -1.421875 10.953125 3.296875 
Q 6 8.015625 6 15.921875 
Q 6 25.140625 12.171875 29.828125 
Q 18.359375 34.515625 30.609375 34.515625 
L 43.21875 34.515625 
L 43.21875 35.40625 
Q 43.21875 41.609375 39.140625 45 
Q 35.0625 48.390625 27.6875 48.390625 
Q 23 48.390625 18.546875 47.265625 
Q 14.109375 46.140625 10.015625 43.890625 
L 10.015625 52.203125 
Q 14.9375 54.109375 19.578125 55.046875 
Q 24.21875 56 28.609375 56 
Q 40.484375 56 46.34375 49.84375 
Q 52.203125 43.703125 52.203125 31.203125 
z
" id="DejaVuSans-97"/>
       <path d="M 44.28125 53.078125 
L 44.28125 44.578125 
Q 40.484375 46.53125 36.375 47.5 
Q 32.28125 48.484375 27.875 48.484375 
Q 21.1875 48.484375 17.84375 46.4375 
Q 14.5 44.390625 14.5 40.28125 
Q 14.5 37.15625 16.890625 35.375 
Q 19.28125 33.59375 26.515625 31.984375 
L 29.59375 31.296875 
Q 39.15625 29.25 43.1875 25.515625 
Q 47.21875 21.78125 47.21875 15.09375 
Q 47.21875 7.46875 41.1875 3.015625 
Q 35.15625 -1.421875 24.609375 -1.421875 
Q 20.21875 -1.421875 15.453125 -0.5625 
Q 10.6875 0.296875 5.421875 2 
L 5.421875 11.28125 
Q 10.40625 8.6875 15.234375 7.390625 
Q 20.0625 6.109375 24.8125 6.109375 
Q 31.15625 6.109375 34.5625 8.28125 
Q 37.984375 10.453125 37.984375 14.40625 
Q 37.984375 18.0625 35.515625 20.015625 
Q 33.0625 21.96875 24.703125 23.78125 
L 21.578125 24.515625 
Q 13.234375 26.265625 9.515625 29.90625 
Q 5.8125 33.546875 5.8125 39.890625 
Q 5.8125 47.609375 11.28125 51.796875 
Q 16.75 56 26.8125 56 
Q 31.78125 56 36.171875 55.265625 
Q 40.578125 54.546875 44.28125 53.078125 
z
" id="DejaVuSans-115"/>
       <path d="M 25.390625 72.90625 
L 33.6875 72.90625 
L 8.296875 -9.28125 
L 0 -9.28125 
z
" id="DejaVuSans-47"/>
       <path d="M 45.40625 46.390625 
L 45.40625 75.984375 
L 54.390625 75.984375 
L 54.390625 0 
L 45.40625 0 
L 45.40625 8.203125 
Q 42.578125 3.328125 38.25 0.953125 
Q 33.9375 -1.421875 27.875 -1.421875 
Q 17.96875 -1.421875 11.734375 6.484375 
Q 5.515625 14.40625 5.515625 27.296875 
Q 5.515625 40.1875 11.734375 48.09375 
Q 17.96875 56 27.875 56 
Q 33.9375 56 38.25 53.625 
Q 42.578125 51.265625 45.40625 46.390625 
z
M 14.796875 27.296875 
Q 14.796875 17.390625 18.875 11.75 
Q 22.953125 6.109375 30.078125 6.109375 
Q 37.203125 6.109375 41.296875 11.75 
Q 45.40625 17.390625 45.40625 27.296875 
Q 45.40625 37.203125 41.296875 42.84375 
Q 37.203125 48.484375 30.078125 48.484375 
Q 22.953125 48.484375 18.875 42.84375 
Q 14.796875 37.203125 14.796875 27.296875 
z
" id="DejaVuSans-100"/>
       <path d="M 9.421875 54.6875 
L 18.40625 54.6875 
L 18.40625 0 
L 9.421875 0 
z
M 9.421875 75.984375 
L 18.40625 75.984375 
L 18.40625 64.59375 
L 9.421875 64.59375 
z
" id="DejaVuSans-105"/>
       <path d="M 52 44.1875 
Q 55.375 50.25 60.0625 53.125 
Q 64.75 56 71.09375 56 
Q 79.640625 56 84.28125 50.015625 
Q 88.921875 44.046875 88.921875 33.015625 
L 88.921875 0 
L 79.890625 0 
L 79.890625 32.71875 
Q 79.890625 40.578125 77.09375 44.375 
Q 74.3125 48.1875 68.609375 48.1875 
Q 61.625 48.1875 57.5625 43.546875 
Q 53.515625 38.921875 53.515625 30.90625 
L 53.515625 0 
L 44.484375 0 
L 44.484375 32.71875 
Q 44.484375 40.625 41.703125 44.40625 
Q 38.921875 48.1875 33.109375 48.1875 
Q 26.21875 48.1875 22.15625 43.53125 
Q 18.109375 38.875 18.109375 30.90625 
L 18.109375 0 
L 9.078125 0 
L 9.078125 54.6875 
L 18.109375 54.6875 
L 18.109375 46.1875 
Q 21.1875 51.21875 25.484375 53.609375 
Q 29.78125 56 35.6875 56 
Q 41.65625 56 45.828125 52.96875 
Q 50 49.953125 52 44.1875 
z
" id="DejaVuSans-109"/>
       <path d="M 54.890625 33.015625 
L 54.890625 0 
L 45.90625 0 
L 45.90625 32.71875 
Q 45.90625 40.484375 42.875 44.328125 
Q 39.84375 48.1875 33.796875 48.1875 
Q 26.515625 48.1875 22.3125 43.546875 
Q 18.109375 38.921875 18.109375 30.90625 
L 18.109375 0 
L 9.078125 0 
L 9.078125 54.6875 
L 18.109375 54.6875 
L 18.109375 46.1875 
Q 21.34375 51.125 25.703125 53.5625 
Q 30.078125 56 35.796875 56 
Q 45.21875 56 50.046875 50.171875 
Q 54.890625 44.34375 54.890625 33.015625 
z
" id="DejaVuSans-110"/>
       <path d="M 8.015625 75.875 
L 15.828125 75.875 
Q 23.140625 64.359375 26.78125 53.3125 
Q 30.421875 42.28125 30.421875 31.390625 
Q 30.421875 20.453125 26.78125 9.375 
Q 23.140625 -1.703125 15.828125 -13.1875 
L 8.015625 -13.1875 
Q 14.5 -2 17.703125 9.0625 
Q 20.90625 20.125 20.90625 31.390625 
Q 20.90625 42.671875 17.703125 53.65625 
Q 14.5 64.65625 8.015625 75.875 
z
" id="DejaVuSans-41"/>
      </defs>
      <use xlink:href="#DejaVuSans-108"/>
      <use x="27.783203" xlink:href="#DejaVuSans-111"/>
      <use x="88.964844" xlink:href="#DejaVuSans-103"/>
      <use x="152.441406" xlink:href="#DejaVuSans-49"/>
      <use x="216.064453" xlink:href="#DejaVuSans-48"/>
      <use x="279.6875" xlink:href="#DejaVuSans-40"/>
      <use x="318.701172" xlink:href="#DejaVuSans-35"/>
      <use x="402.490234" xlink:href="#DejaVuSans-32"/>
      <use x="434.277344" xlink:href="#DejaVuSans-102"/>
      <use x="463.982422" xlink:href="#DejaVuSans-45"/>
      <use x="500.066406" xlink:href="#DejaVuSans-101"/>
      <use x="561.589844" xlink:href="#DejaVuSans-118"/>
      <use x="620.769531" xlink:href="#DejaVuSans-97"/>
      <use x="682.048828" xlink:href="#DejaVuSans-108"/>
      <use x="709.832031" xlink:href="#DejaVuSans-115"/>
      <use x="761.931641" xlink:href="#DejaVuSans-32"/>
      <use x="793.71875" xlink:href="#DejaVuSans-47"/>
      <use x="827.410156" xlink:href="#DejaVuSans-32"/>
      <use x="859.197266" xlink:href="#DejaVuSans-100"/>
      <use x="922.673828" xlink:href="#DejaVuSans-105"/>
      <use x="950.457031" xlink:href="#DejaVuSans-109"/>
      <use x="1047.869141" xlink:href="#DejaVuSans-101"/>
      <use x="1109.392578" xlink:href="#DejaVuSans-110"/>
      <use x="1172.771484" xlink:href="#DejaVuSans-115"/>
      <use x="1224.871094" xlink:href="#DejaVuSans-105"/>
      <use x="1252.654297" xlink:href="#DejaVuSans-111"/>
      <use x="1313.835938" xlink:href="#DejaVuSans-110"/>
      <use x="1377.214844" xlink:href="#DejaVuSans-41"/>
     </g>
    </g>
   </g>
   <g id="matplotlib.axis_2">
    <g id="ytick_1">
     <g id="line2d_21">
      <path clip-path="url(#pb6d8b6e0c8)" d="M 57.6 298.944 
L 338.688 298.944 
" style="fill:none;stroke:#b0b0b0;stroke-linecap:square;stroke-width:0.8;"/>
     </g>
     <g id="line2d_22">
      <defs>
       <path d="M 0 0 
L -3.5 0 
" id="md9be4d20e1" style="stroke:#000000;stroke-width:0.8;"/>
      </defs>
      <g>
       <use style="stroke:#000000;stroke-width:0.8;" x="57.6" xlink:href="#md9be4d20e1" y="298.944"/>
      </g>
     </g>
     <g id="text_6">
      <!-- 0.0 -->
      <g transform="translate(25.155 305.02275)scale(0.16 -0.16)">
       <defs>
        <path d="M 10.6875 12.40625 
L 21 12.40625 
L 21 0 
L 10.6875 0 
z
" id="DejaVuSans-46"/>
       </defs>
       <use xlink:href="#DejaVuSans-48"/>
       <use x="63.623047" xlink:href="#DejaVuSans-46"/>
       <use x="95.410156" xlink:href="#DejaVuSans-48"/>
      </g>
     </g>
    </g>
    <g id="ytick_2">
     <g id="line2d_23">
      <path clip-path="url(#pb6d8b6e0c8)" d="M 57.6 245.22202 
L 338.688 245.22202 
" style="fill:none;stroke:#b0b0b0;stroke-linecap:square;stroke-width:0.8;"/>
     </g>
     <g id="line2d_24">
      <g>
       <use style="stroke:#000000;stroke-width:0.8;" x="57.6" xlink:href="#md9be4d20e1" y="245.22202"/>
      </g>
     </g>
     <g id="text_7">
      <!-- 0.2 -->
      <g transform="translate(25.155 251.30077)scale(0.16 -0.16)">
       <use xlink:href="#DejaVuSans-48"/>
       <use x="63.623047" xlink:href="#DejaVuSans-46"/>
       <use x="95.410156" xlink:href="#DejaVuSans-50"/>
      </g>
     </g>
    </g>
    <g id="ytick_3">
     <g id="line2d_25">
      <path clip-path="url(#pb6d8b6e0c8)" d="M 57.6 191.50004 
L 338.688 191.50004 
" style="fill:none;stroke:#b0b0b0;stroke-linecap:square;stroke-width:0.8;"/>
     </g>
     <g id="line2d_26">
      <g>
       <use style="stroke:#000000;stroke-width:0.8;" x="57.6" xlink:href="#md9be4d20e1" y="191.50004"/>
      </g>
     </g>
     <g id="text_8">
      <!-- 0.4 -->
      <g transform="translate(25.155 197.57879)scale(0.16 -0.16)">
       <use xlink:href="#DejaVuSans-48"/>
       <use x="63.623047" xlink:href="#DejaVuSans-46"/>
       <use x="95.410156" xlink:href="#DejaVuSans-52"/>
      </g>
     </g>
    </g>
    <g id="ytick_4">
     <g id="line2d_27">
      <path clip-path="url(#pb6d8b6e0c8)" d="M 57.6 137.778059 
L 338.688 137.778059 
" style="fill:none;stroke:#b0b0b0;stroke-linecap:square;stroke-width:0.8;"/>
     </g>
     <g id="line2d_28">
      <g>
       <use style="stroke:#000000;stroke-width:0.8;" x="57.6" xlink:href="#md9be4d20e1" y="137.778059"/>
      </g>
     </g>
     <g id="text_9">
      <!-- 0.6 -->
      <g transform="translate(25.155 143.856809)scale(0.16 -0.16)">
       <use xlink:href="#DejaVuSans-48"/>
       <use x="63.623047" xlink:href="#DejaVuSans-46"/>
       <use x="95.410156" xlink:href="#DejaVuSans-54"/>
      </g>
     </g>
    </g>
    <g id="ytick_5">
     <g id="line2d_29">
      <path clip-path="url(#pb6d8b6e0c8)" d="M 57.6 84.056079 
L 338.688 84.056079 
" style="fill:none;stroke:#b0b0b0;stroke-linecap:square;stroke-width:0.8;"/>
     </g>
     <g id="line2d_30">
      <g>
       <use style="stroke:#000000;stroke-width:0.8;" x="57.6" xlink:href="#md9be4d20e1" y="84.056079"/>
      </g>
     </g>
     <g id="text_10">
      <!-- 0.8 -->
      <g transform="translate(25.155 90.134829)scale(0.16 -0.16)">
       <defs>
        <path d="M 31.78125 34.625 
Q 24.75 34.625 20.71875 30.859375 
Q 16.703125 27.09375 16.703125 20.515625 
Q 16.703125 13.921875 20.71875 10.15625 
Q 24.75 6.390625 31.78125 6.390625 
Q 38.8125 6.390625 42.859375 10.171875 
Q 46.921875 13.96875 46.921875 20.515625 
Q 46.921875 27.09375 42.890625 30.859375 
Q 38.875 34.625 31.78125 34.625 
z
M 21.921875 38.8125 
Q 15.578125 40.375 12.03125 44.71875 
Q 8.5 49.078125 8.5 55.328125 
Q 8.5 64.0625 14.71875 69.140625 
Q 20.953125 74.21875 31.78125 74.21875 
Q 42.671875 74.21875 48.875 69.140625 
Q 55.078125 64.0625 55.078125 55.328125 
Q 55.078125 49.078125 51.53125 44.71875 
Q 48 40.375 41.703125 38.8125 
Q 48.828125 37.15625 52.796875 32.3125 
Q 56.78125 27.484375 56.78125 20.515625 
Q 56.78125 9.90625 50.3125 4.234375 
Q 43.84375 -1.421875 31.78125 -1.421875 
Q 19.734375 -1.421875 13.25 4.234375 
Q 6.78125 9.90625 6.78125 20.515625 
Q 6.78125 27.484375 10.78125 32.3125 
Q 14.796875 37.15625 21.921875 38.8125 
z
M 18.3125 54.390625 
Q 18.3125 48.734375 21.84375 45.5625 
Q 25.390625 42.390625 31.78125 42.390625 
Q 38.140625 42.390625 41.71875 45.5625 
Q 45.3125 48.734375 45.3125 54.390625 
Q 45.3125 60.0625 41.71875 63.234375 
Q 38.140625 66.40625 31.78125 66.40625 
Q 25.390625 66.40625 21.84375 63.234375 
Q 18.3125 60.0625 18.3125 54.390625 
z
" id="DejaVuSans-56"/>
       </defs>
       <use xlink:href="#DejaVuSans-48"/>
       <use x="63.623047" xlink:href="#DejaVuSans-46"/>
       <use x="95.410156" xlink:href="#DejaVuSans-56"/>
      </g>
     </g>
    </g>
    <g id="ytick_6">
     <g id="line2d_31">
      <path clip-path="url(#pb6d8b6e0c8)" d="M 57.6 30.334099 
L 338.688 30.334099 
" style="fill:none;stroke:#b0b0b0;stroke-linecap:square;stroke-width:0.8;"/>
     </g>
     <g id="line2d_32">
      <g>
       <use style="stroke:#000000;stroke-width:0.8;" x="57.6" xlink:href="#md9be4d20e1" y="30.334099"/>
      </g>
     </g>
     <g id="text_11">
      <!-- 1.0 -->
      <g transform="translate(25.155 36.412849)scale(0.16 -0.16)">
       <use xlink:href="#DejaVuSans-49"/>
       <use x="63.623047" xlink:href="#DejaVuSans-46"/>
       <use x="95.410156" xlink:href="#DejaVuSans-48"/>
      </g>
     </g>
    </g>
    <g id="text_12">
     <!-- Fraction of function,target pairs -->
     <g transform="translate(17.619531 297.681)rotate(-90)scale(0.17 -0.17)">
      <defs>
       <path d="M 9.8125 72.90625 
L 51.703125 72.90625 
L 51.703125 64.59375 
L 19.671875 64.59375 
L 19.671875 43.109375 
L 48.578125 43.109375 
L 48.578125 34.8125 
L 19.671875 34.8125 
L 19.671875 0 
L 9.8125 0 
z
" id="DejaVuSans-70"/>
       <path d="M 41.109375 46.296875 
Q 39.59375 47.171875 37.8125 47.578125 
Q 36.03125 48 33.890625 48 
Q 26.265625 48 22.1875 43.046875 
Q 18.109375 38.09375 18.109375 28.8125 
L 18.109375 0 
L 9.078125 0 
L 9.078125 54.6875 
L 18.109375 54.6875 
L 18.109375 46.1875 
Q 20.953125 51.171875 25.484375 53.578125 
Q 30.03125 56 36.53125 56 
Q 37.453125 56 38.578125 55.875 
Q 39.703125 55.765625 41.0625 55.515625 
z
" id="DejaVuSans-114"/>
       <path d="M 48.78125 52.59375 
L 48.78125 44.1875 
Q 44.96875 46.296875 41.140625 47.34375 
Q 37.3125 48.390625 33.40625 48.390625 
Q 24.65625 48.390625 19.8125 42.84375 
Q 14.984375 37.3125 14.984375 27.296875 
Q 14.984375 17.28125 19.8125 11.734375 
Q 24.65625 6.203125 33.40625 6.203125 
Q 37.3125 6.203125 41.140625 7.25 
Q 44.96875 8.296875 48.78125 10.40625 
L 48.78125 2.09375 
Q 45.015625 0.34375 40.984375 -0.53125 
Q 36.96875 -1.421875 32.421875 -1.421875 
Q 20.0625 -1.421875 12.78125 6.34375 
Q 5.515625 14.109375 5.515625 27.296875 
Q 5.515625 40.671875 12.859375 48.328125 
Q 20.21875 56 33.015625 56 
Q 37.15625 56 41.109375 55.140625 
Q 45.0625 54.296875 48.78125 52.59375 
z
" id="DejaVuSans-99"/>
       <path d="M 18.3125 70.21875 
L 18.3125 54.6875 
L 36.8125 54.6875 
L 36.8125 47.703125 
L 18.3125 47.703125 
L 18.3125 18.015625 
Q 18.3125 11.328125 20.140625 9.421875 
Q 21.96875 7.515625 27.59375 7.515625 
L 36.8125 7.515625 
L 36.8125 0 
L 27.59375 0 
Q 17.1875 0 13.234375 3.875 
Q 9.28125 7.765625 9.28125 18.015625 
L 9.28125 47.703125 
L 2.6875 47.703125 
L 2.6875 54.6875 
L 9.28125 54.6875 
L 9.28125 70.21875 
z
" id="DejaVuSans-116"/>
       <path d="M 8.5 21.578125 
L 8.5 54.6875 
L 17.484375 54.6875 
L 17.484375 21.921875 
Q 17.484375 14.15625 20.5 10.265625 
Q 23.53125 6.390625 29.59375 6.390625 
Q 36.859375 6.390625 41.078125 11.03125 
Q 45.3125 15.671875 45.3125 23.6875 
L 45.3125 54.6875 
L 54.296875 54.6875 
L 54.296875 0 
L 45.3125 0 
L 45.3125 8.40625 
Q 42.046875 3.421875 37.71875 1 
Q 33.40625 -1.421875 27.6875 -1.421875 
Q 18.265625 -1.421875 13.375 4.4375 
Q 8.5 10.296875 8.5 21.578125 
z
M 31.109375 56 
z
" id="DejaVuSans-117"/>
       <path d="M 11.71875 12.40625 
L 22.015625 12.40625 
L 22.015625 4 
L 14.015625 -11.625 
L 7.71875 -11.625 
L 11.71875 4 
z
" id="DejaVuSans-44"/>
       <path d="M 18.109375 8.203125 
L 18.109375 -20.796875 
L 9.078125 -20.796875 
L 9.078125 54.6875 
L 18.109375 54.6875 
L 18.109375 46.390625 
Q 20.953125 51.265625 25.265625 53.625 
Q 29.59375 56 35.59375 56 
Q 45.5625 56 51.78125 48.09375 
Q 58.015625 40.1875 58.015625 27.296875 
Q 58.015625 14.40625 51.78125 6.484375 
Q 45.5625 -1.421875 35.59375 -1.421875 
Q 29.59375 -1.421875 25.265625 0.953125 
Q 20.953125 3.328125 18.109375 8.203125 
z
M 48.6875 27.296875 
Q 48.6875 37.203125 44.609375 42.84375 
Q 40.53125 48.484375 33.40625 48.484375 
Q 26.265625 48.484375 22.1875 42.84375 
Q 18.109375 37.203125 18.109375 27.296875 
Q 18.109375 17.390625 22.1875 11.75 
Q 26.265625 6.109375 33.40625 6.109375 
Q 40.53125 6.109375 44.609375 11.75 
Q 48.6875 17.390625 48.6875 27.296875 
z
" id="DejaVuSans-112"/>
      </defs>
      <use xlink:href="#DejaVuSans-70"/>
      <use x="50.269531" xlink:href="#DejaVuSans-114"/>
      <use x="91.382812" xlink:href="#DejaVuSans-97"/>
      <use x="152.662109" xlink:href="#DejaVuSans-99"/>
      <use x="207.642578" xlink:href="#DejaVuSans-116"/>
      <use x="246.851562" xlink:href="#DejaVuSans-105"/>
      <use x="274.634766" xlink:href="#DejaVuSans-111"/>
      <use x="335.816406" xlink:href="#DejaVuSans-110"/>
      <use x="399.195312" xlink:href="#DejaVuSans-32"/>
      <use x="430.982422" xlink:href="#DejaVuSans-111"/>
      <use x="492.164062" xlink:href="#DejaVuSans-102"/>
      <use x="527.369141" xlink:href="#DejaVuSans-32"/>
      <use x="559.15625" xlink:href="#DejaVuSans-102"/>
      <use x="594.361328" xlink:href="#DejaVuSans-117"/>
      <use x="657.740234" xlink:href="#DejaVuSans-110"/>
      <use x="721.119141" xlink:href="#DejaVuSans-99"/>
      <use x="776.099609" xlink:href="#DejaVuSans-116"/>
      <use x="815.308594" xlink:href="#DejaVuSans-105"/>
      <use x="843.091797" xlink:href="#DejaVuSans-111"/>
      <use x="904.273438" xlink:href="#DejaVuSans-110"/>
      <use x="967.652344" xlink:href="#DejaVuSans-44"/>
      <use x="999.439453" xlink:href="#DejaVuSans-116"/>
      <use x="1038.648438" xlink:href="#DejaVuSans-97"/>
      <use x="1099.927734" xlink:href="#DejaVuSans-114"/>
      <use x="1139.291016" xlink:href="#DejaVuSans-103"/>
      <use x="1202.767578" xlink:href="#DejaVuSans-101"/>
      <use x="1264.291016" xlink:href="#DejaVuSans-116"/>
      <use x="1303.5" xlink:href="#DejaVuSans-32"/>
      <use x="1335.287109" xlink:href="#DejaVuSans-112"/>
      <use x="1398.763672" xlink:href="#DejaVuSans-97"/>
      <use x="1460.042969" xlink:href="#DejaVuSans-105"/>
      <use x="1487.826172" xlink:href="#DejaVuSans-114"/>
      <use x="1528.939453" xlink:href="#DejaVuSans-115"/>
     </g>
    </g>
   </g>
   <g id="line2d_33">
    <defs>
     <path d="M 0 1.5 
C 0.397805 1.5 0.77937 1.341951 1.06066 1.06066 
C 1.341951 0.77937 1.5 0.397805 1.5 0 
C 1.5 -0.397805 1.341951 -0.77937 1.06066 -1.06066 
C 0.77937 -1.341951 0.397805 -1.5 0 -1.5 
C -0.397805 -1.5 -0.77937 -1.341951 -1.06066 -1.06066 
C -1.341951 -0.77937 -1.5 -0.397805 -1.5 0 
C -1.5 0.397805 -1.341951 0.77937 -1.06066 1.06066 
C -0.77937 1.341951 -0.397805 1.5 0 1.5 
z
" id="maa86a11a43" style="stroke:#f5deb3;"/>
    </defs>
    <g>
     <use style="fill:#f5deb3;stroke:#f5deb3;" x="256.323571" xlink:href="#maa86a11a43" y="62.752535"/>
     <use style="fill:#f5deb3;stroke:#f5deb3;" x="256.323571" xlink:href="#maa86a11a43" y="62.752535"/>
    </g>
   </g>
   <g id="line2d_34">
    <defs>
     <path d="M 0 1.5 
C 0.397805 1.5 0.77937 1.341951 1.06066 1.06066 
C 1.341951 0.77937 1.5 0.397805 1.5 0 
C 1.5 -0.397805 1.341951 -0.77937 1.06066 -1.06066 
C 0.77937 -1.341951 0.397805 -1.5 0 -1.5 
C -0.397805 -1.5 -0.77937 -1.341951 -1.06066 -1.06066 
C -1.341951 -0.77937 -1.5 -0.397805 -1.5 0 
C -1.5 0.397805 -1.341951 0.77937 -1.06066 1.06066 
C -0.77937 1.341951 -0.397805 1.5 0 1.5 
z
" id="mb5b2691d08" style="stroke:#000080;"/>
    </defs>
    <g>
     <use style="fill:#000080;stroke:#000080;" x="258.302226" xlink:href="#mb5b2691d08" y="97.486574"/>
     <use style="fill:#000080;stroke:#000080;" x="258.302226" xlink:href="#mb5b2691d08" y="97.486574"/>
    </g>
   </g>
   <g id="line2d_35">
    <path d="M 38.440992 298.944 
L 38.440992 285.513505 
L 57.6 285.513505 
L 57.6 285.050384 
L 62.616969 285.050384 
L 62.616969 282.734782 
L 66.508432 282.734782 
L 66.508432 280.8823 
L 69.687988 280.8823 
L 69.687988 280.419179 
L 72.376266 280.419179 
L 72.376266 279.492938 
L 80.258561 279.492938 
L 80.258561 277.640456 
L 81.775977 277.640456 
L 81.775977 277.177336 
L 83.171864 277.177336 
L 83.171864 276.714215 
L 84.464254 276.714215 
L 84.464254 275.787974 
L 89.78989 275.787974 
L 89.78989 273.935492 
L 90.684409 273.935492 
L 90.684409 273.472371 
L 94.575872 273.472371 
L 94.575872 273.009251 
L 95.259853 273.009251 
L 95.259853 272.08301 
L 98.32726 272.08301 
L 98.32726 271.619889 
L 99.41757 271.619889 
L 99.41757 270.693648 
L 102.772397 270.693648 
L 102.772397 268.841166 
L 106.311539 268.841166 
L 106.311539 267.914925 
L 107.680028 267.914925 
L 107.680028 267.451805 
L 109.843417 267.451805 
L 109.843417 266.988684 
L 111.505558 266.988684 
L 111.505558 265.136202 
L 111.767808 265.136202 
L 111.767808 264.673082 
L 117.486268 264.673082 
L 117.486268 264.209961 
L 118.399528 264.209961 
L 118.399528 263.746841 
L 121.036887 263.746841 
L 121.036887 263.28372 
L 121.340187 263.28372 
L 121.340187 262.357479 
L 121.638301 262.357479 
L 121.638301 261.894358 
L 121.931406 261.894358 
L 121.931406 260.968117 
L 122.362027 260.968117 
L 122.362027 260.041876 
L 122.643312 260.041876 
L 122.643312 259.578756 
L 122.782271 259.578756 
L 122.782271 259.115635 
L 123.985457 259.115635 
L 123.985457 258.189394 
L 124.241922 258.189394 
L 124.241922 257.726274 
L 128.610515 257.726274 
L 128.610515 256.800033 
L 129.002426 256.800033 
L 129.099042 255.873792 
L 129.760775 255.873792 
L 129.760775 255.410671 
L 130.127931 255.410671 
L 130.127931 254.947551 
L 130.30865 254.947551 
L 130.30865 254.48443 
L 130.752422 254.48443 
L 130.752422 253.558189 
L 134.091907 253.558189 
L 134.091907 253.095069 
L 134.450015 253.095069 
L 134.450015 252.168828 
L 137.319638 252.168828 
L 137.319638 251.705707 
L 137.499118 251.705707 
L 137.499118 250.316346 
L 138.426341 250.316346 
L 138.426341 249.390104 
L 139.783113 249.390104 
L 139.835248 248.000743 
L 140.89556 248.000743 
L 140.89556 247.537622 
L 141.615302 247.537622 
L 141.615302 247.074502 
L 143.569835 247.074502 
L 143.569835 245.68514 
L 145.703082 245.68514 
L 145.703082 245.22202 
L 147.402367 245.22202 
L 147.402367 244.295779 
L 150.626842 244.295779 
L 150.626842 243.369538 
L 151.44831 243.369538 
L 151.44831 242.906417 
L 152.104493 242.906417 
L 152.104493 242.443297 
L 152.486669 242.443297 
L 152.486669 241.517056 
L 152.662192 241.517056 
L 152.662192 240.590815 
L 152.959038 240.590815 
L 152.959038 239.664574 
L 154.144227 239.664574 
L 154.144227 239.201453 
L 156.618401 239.201453 
L 156.618401 238.738333 
L 157.472107 238.738333 
L 157.472107 237.812091 
L 158.213527 237.812091 
L 158.213527 237.348971 
L 159.098062 237.348971 
L 159.098062 236.88585 
L 159.524055 236.88585 
L 159.608019 235.959609 
L 159.791329 235.959609 
L 159.791329 235.496489 
L 160.711523 235.496489 
L 160.711523 234.570248 
L 160.94582 234.570248 
L 160.94582 233.644007 
L 162.644595 233.644007 
L 162.644595 232.717766 
L 165.411116 232.717766 
L 165.411116 231.791525 
L 166.718084 231.791525 
L 166.718084 230.865284 
L 167.840107 230.865284 
L 167.913096 229.012802 
L 168.536542 229.012802 
L 168.536542 228.549681 
L 169.206229 228.549681 
L 169.206229 226.697199 
L 169.888352 226.697199 
L 169.990255 225.307837 
L 170.082381 225.307837 
L 170.082381 224.844717 
L 170.473066 224.844717 
L 170.473066 223.918476 
L 170.828801 223.918476 
L 170.828801 222.992235 
L 171.54458 222.992235 
L 171.569909 222.065994 
L 172.696997 222.065994 
L 172.696997 221.602873 
L 173.249682 221.602873 
L 173.249682 221.139753 
L 175.142939 221.139753 
L 175.142939 220.213512 
L 175.442801 220.213512 
L 175.530419 219.287271 
L 176.079681 219.287271 
L 176.079681 218.82415 
L 176.30621 218.82415 
L 176.389606 217.434789 
L 176.504422 217.434789 
L 176.504422 216.508548 
L 177.814514 216.508548 
L 177.814514 216.045427 
L 178.095327 216.045427 
L 178.095327 215.119186 
L 178.280055 215.119186 
L 178.280055 214.192945 
L 178.988975 214.192945 
L 178.988975 213.266704 
L 180.027079 213.266704 
L 180.027079 212.803583 
L 180.498578 212.803583 
L 180.498578 211.877342 
L 181.766029 211.877342 
L 181.766029 211.414222 
L 181.990272 211.414222 
L 181.990272 210.951101 
L 183.368654 210.951101 
L 183.368654 210.02486 
L 183.838356 210.02486 
L 183.838356 209.098619 
L 184.181489 209.098619 
L 184.181489 208.172378 
L 184.380937 208.172378 
L 184.380937 207.246137 
L 184.907145 207.246137 
L 184.907145 206.783017 
L 185.6302 206.783017 
L 185.6302 206.319896 
L 186.682796 206.319896 
L 186.682796 205.393655 
L 186.824091 205.393655 
L 186.883796 204.467414 
L 187.224052 204.467414 
L 187.224052 203.541173 
L 187.446124 203.541173 
L 187.446124 203.078053 
L 187.994175 203.078053 
L 187.994175 202.151812 
L 188.690678 202.151812 
L 188.690678 201.225571 
L 189.496781 201.225571 
L 189.572074 200.299329 
L 190.192018 200.299329 
L 190.197818 199.373088 
L 190.307645 199.373088 
L 190.38813 196.131245 
L 191.766139 196.131245 
L 191.766139 195.668124 
L 191.950655 195.668124 
L 191.950655 195.205004 
L 192.765149 195.205004 
L 192.765149 194.278763 
L 192.91465 194.278763 
L 192.961727 192.889401 
L 193.514551 192.889401 
L 193.514551 192.426281 
L 193.750268 192.426281 
L 193.750268 191.96316 
L 194.31111 191.96316 
L 194.31111 191.50004 
L 194.468417 191.50004 
L 194.468417 190.573799 
L 195.234346 190.573799 
L 195.321012 189.184437 
L 195.428742 189.184437 
L 195.428742 188.721316 
L 195.555013 188.721316 
L 195.555013 188.258196 
L 195.709992 188.258196 
L 195.709992 187.795075 
L 196.065652 187.795075 
L 196.065652 187.331955 
L 196.924306 187.331955 
L 196.924306 186.868834 
L 197.061763 186.868834 
L 197.114494 185.479473 
L 197.481122 185.479473 
L 197.481122 185.016352 
L 197.738897 185.016352 
L 197.738897 184.090111 
L 198.277984 184.090111 
L 198.277984 183.16387 
L 198.472088 183.16387 
L 198.472088 182.70075 
L 198.839809 182.70075 
L 198.839809 181.774509 
L 199.001561 181.774509 
L 199.001561 181.311388 
L 199.56464 181.311388 
L 199.56464 180.848268 
L 199.734945 180.848268 
L 199.734945 180.385147 
L 199.862008 180.385147 
L 199.862008 179.458906 
L 200.019545 179.458906 
L 200.12816 177.606424 
L 200.188756 177.606424 
L 200.188756 177.143304 
L 200.515914 177.143304 
L 200.602343 175.753942 
L 201.258792 175.753942 
L 201.333971 174.827701 
L 201.610405 174.827701 
L 201.610405 174.36458 
L 201.797757 174.36458 
L 201.805209 173.438339 
L 201.981642 173.438339 
L 201.981642 172.512098 
L 202.156308 172.512098 
L 202.242263 171.585857 
L 202.456032 171.585857 
L 202.456032 171.122737 
L 203.341862 171.122737 
L 203.341862 169.733375 
L 203.558822 169.733375 
L 203.558822 169.270255 
L 203.683701 169.270255 
L 203.683701 168.807134 
L 204.196561 168.807134 
L 204.223823 167.880893 
L 204.685928 167.880893 
L 204.685928 167.417773 
L 204.797997 167.417773 
L 204.797997 166.954652 
L 205.45207 166.954652 
L 205.45207 166.491532 
L 205.578551 166.491532 
L 205.592948 165.10217 
L 205.69697 165.10217 
L 205.69697 164.63905 
L 205.960804 164.63905 
L 205.960804 164.175929 
L 206.149995 164.175929 
L 206.15464 162.323447 
L 207.00451 162.323447 
L 207.064132 160.934085 
L 207.246147 160.934085 
L 207.345126 160.007844 
L 207.413322 160.007844 
L 207.413322 159.081603 
L 207.825436 159.081603 
L 207.825436 158.155362 
L 208.106982 158.155362 
L 208.106982 157.692242 
L 208.304167 157.692242 
L 208.304167 157.229121 
L 208.509295 157.229121 
L 208.521465 155.83976 
L 208.688958 155.83976 
L 208.688958 154.913519 
L 209.104707 154.913519 
L 209.104707 154.450398 
L 209.248249 154.450398 
L 209.248249 153.987278 
L 210.053998 153.987278 
L 210.118876 152.134795 
L 210.542931 152.134795 
L 210.647352 151.208554 
L 210.793034 151.208554 
L 210.880926 149.819193 
L 211.328537 149.819193 
L 211.328537 149.356072 
L 211.813702 149.356072 
L 211.813702 148.429831 
L 211.932496 148.429831 
L 212.025626 147.04047 
L 212.505753 147.04047 
L 212.505753 146.577349 
L 212.827098 146.577349 
L 212.906912 144.724867 
L 213.345243 144.724867 
L 213.345243 144.261747 
L 213.800563 144.261747 
L 213.890217 143.335506 
L 214.003122 143.335506 
L 214.003122 142.872385 
L 214.405658 142.872385 
L 214.470652 141.946144 
L 214.757328 141.946144 
L 214.757328 141.019903 
L 215.09231 141.019903 
L 215.09231 140.556783 
L 215.716074 140.556783 
L 215.720101 139.630541 
L 215.88239 139.630541 
L 215.88239 138.7043 
L 216.135807 138.7043 
L 216.135807 138.24118 
L 216.543114 138.24118 
L 216.543114 137.778059 
L 216.746735 137.778059 
L 216.746735 137.314939 
L 216.973627 137.314939 
L 216.995468 135.925577 
L 218.136052 135.925577 
L 218.209503 134.073095 
L 218.676139 134.073095 
L 218.676139 133.609975 
L 219.033228 133.609975 
L 219.033228 133.146854 
L 219.386414 133.146854 
L 219.445041 131.294372 
L 220.225572 131.294372 
L 220.225572 130.368131 
L 220.687851 130.368131 
L 220.699454 129.44189 
L 220.995483 129.44189 
L 220.995483 128.97877 
L 221.836146 128.97877 
L 221.881446 128.052529 
L 222.054016 128.052529 
L 222.054016 127.126287 
L 222.18789 127.126287 
L 222.18789 126.663167 
L 222.321663 126.663167 
L 222.409668 125.273805 
L 222.652575 125.273805 
L 222.652575 124.347564 
L 223.468666 124.347564 
L 223.468666 123.884444 
L 223.988774 123.884444 
L 223.988774 123.421323 
L 224.179832 123.421323 
L 224.179832 122.958203 
L 224.892895 122.958203 
L 224.892895 122.495082 
L 225.430924 122.495082 
L 225.434384 121.568841 
L 225.606895 121.568841 
L 225.606895 121.105721 
L 227.402846 121.105721 
L 227.406966 119.253239 
L 227.873721 119.253239 
L 227.873721 118.326998 
L 228.909528 118.326998 
L 228.909528 117.863877 
L 229.042872 117.863877 
L 229.042872 116.937636 
L 229.472609 116.937636 
L 229.472609 116.474516 
L 229.927401 116.474516 
L 229.927401 116.011395 
L 230.941904 116.011395 
L 230.941904 115.548274 
L 231.441202 115.548274 
L 231.441202 115.085154 
L 234.180925 115.085154 
L 234.180925 114.622033 
L 234.64698 114.622033 
L 234.64698 114.158913 
L 236.627996 114.158913 
L 236.627996 113.232672 
L 237.285906 113.232672 
L 237.285906 112.306431 
L 237.860615 112.306431 
L 237.860615 111.84331 
L 238.73596 111.84331 
L 238.73596 111.38019 
L 241.1146 111.38019 
L 241.1146 110.917069 
L 241.441722 110.917069 
L 241.441722 109.990828 
L 242.353893 109.990828 
L 242.353893 109.064587 
L 242.76667 109.064587 
L 242.76667 108.138346 
L 244.782769 108.138346 
L 244.782769 107.212105 
L 245.610521 107.212105 
L 245.610521 106.285864 
L 245.921404 106.285864 
L 245.921404 105.359623 
L 247.125398 105.359623 
L 247.125398 104.896503 
L 247.639909 104.896503 
L 247.639909 104.433382 
L 248.447888 104.433382 
L 248.447888 103.507141 
L 250.272825 103.507141 
L 250.272825 103.04402 
L 250.414358 103.04402 
L 250.514194 101.654659 
L 251.386246 101.654659 
L 251.488885 100.265297 
L 254.05965 100.265297 
L 254.05965 99.802177 
L 255.582346 99.802177 
L 255.582346 99.339056 
L 256.185367 99.339056 
L 256.185367 98.875936 
L 256.956862 98.875936 
L 256.956862 98.412815 
L 258.302226 98.412815 
L 258.302226 97.486574 
L 338.688 97.486574 
L 338.688 97.486574 
" style="fill:none;stroke:#000080;stroke-linecap:square;stroke-width:1.5;"/>
   </g>
   <g id="line2d_36">
    <defs>
     <path d="M 0 6 
C 1.591219 6 3.117479 5.367802 4.242641 4.242641 
C 5.367802 3.117479 6 1.591219 6 0 
C 6 -1.591219 5.367802 -3.117479 4.242641 -4.242641 
C 3.117479 -5.367802 1.591219 -6 0 -6 
C -1.591219 -6 -3.117479 -5.367802 -4.242641 -4.242641 
C -5.367802 -3.117479 -6 -1.591219 -6 0 
C -6 1.591219 -5.367802 3.117479 -4.242641 4.242641 
C -3.117479 5.367802 -1.591219 6 0 6 
z
" id="me7887081ff" style="stroke:#000080;stroke-width:1.5;"/>
    </defs>
    <g>
     <use style="fill-opacity:0;stroke:#000080;stroke-width:1.5;" x="95.259853" xlink:href="#me7887081ff" y="273.009251"/>
     <use style="fill-opacity:0;stroke:#000080;stroke-width:1.5;" x="165.411116" xlink:href="#me7887081ff" y="231.791525"/>
     <use style="fill-opacity:0;stroke:#000080;stroke-width:1.5;" x="225.606895" xlink:href="#me7887081ff" y="121.568841"/>
     <use style="fill-opacity:0;stroke:#000080;stroke-width:1.5;" x="258.302226" xlink:href="#me7887081ff" y="98.412815"/>
     <use style="fill-opacity:0;stroke:#000080;stroke-width:1.5;" x="258.302226" xlink:href="#me7887081ff" y="97.486574"/>
     <use style="fill-opacity:0;stroke:#000080;stroke-width:1.5;" x="338.688" xlink:href="#me7887081ff" y="97.486574"/>
    </g>
   </g>
   <g id="line2d_37">
    <path style="fill:none;stroke:#000080;stroke-linecap:square;stroke-width:1.5;"/>
    <g/>
   </g>
   <g id="line2d_38">
    <path clip-path="url(#pb6d8b6e0c8)" d="M 258.377608 97.486574 
" style="fill:none;stroke:#000080;stroke-linecap:square;stroke-width:1.5;"/>
    <defs>
     <path d="M -12 12 
L 12 -12 
M -12 -12 
L 12 12 
" id="m33e8a0fc8b" style="stroke:#000080;"/>
    </defs>
    <g clip-path="url(#pb6d8b6e0c8)">
     <use style="fill:#000080;stroke:#000080;" x="258.377608" xlink:href="#m33e8a0fc8b" y="97.486574"/>
    </g>
   </g>
   <g id="line2d_39">
    <defs>
     <path d="M 0 1.5 
C 0.397805 1.5 0.77937 1.341951 1.06066 1.06066 
C 1.341951 0.77937 1.5 0.397805 1.5 0 
C 1.5 -0.397805 1.341951 -0.77937 1.06066 -1.06066 
C 0.77937 -1.341951 0.397805 -1.5 0 -1.5 
C -0.397805 -1.5 -0.77937 -1.341951 -1.06066 -1.06066 
C -1.341951 -0.77937 -1.5 -0.397805 -1.5 0 
C -1.5 0.397805 -1.341951 0.77937 -1.06066 1.06066 
C -0.77937 1.341951 -0.397805 1.5 0 1.5 
z
" id="mb940365077" style="stroke:#ff00ff;"/>
    </defs>
    <g>
     <use style="fill:#ff00ff;stroke:#ff00ff;" x="257.839663" xlink:href="#mb940365077" y="133.609975"/>
     <use style="fill:#ff00ff;stroke:#ff00ff;" x="257.839663" xlink:href="#mb940365077" y="133.609975"/>
    </g>
   </g>
   <g id="line2d_40">
    <path d="M 38.440992 298.944 
L 38.440992 288.755349 
L 136.893527 288.755349 
L 136.893527 288.292228 
L 140.79731 288.292228 
L 140.79731 287.829108 
L 141.47371 287.829108 
L 141.47371 287.365987 
L 142.840411 287.365987 
L 142.840411 286.902867 
L 143.569835 286.902867 
L 143.569835 285.976625 
L 144.269971 285.976625 
L 144.269971 285.513505 
L 145.097753 285.513505 
L 145.097753 285.050384 
L 147.027314 285.050384 
L 147.027314 284.124143 
L 147.164632 284.124143 
L 147.164632 283.661023 
L 147.570215 283.661023 
L 147.603592 282.734782 
L 147.999207 282.734782 
L 147.999207 281.808541 
L 148.258051 281.808541 
L 148.258051 280.419179 
L 148.857832 280.419179 
L 148.857832 279.956059 
L 149.31719 279.956059 
L 149.31719 279.029818 
L 149.735275 279.029818 
L 149.735275 278.103577 
L 149.882194 278.103577 
L 149.882194 277.177336 
L 150.201126 277.177336 
L 150.287105 275.787974 
L 150.344189 275.787974 
L 150.429467 273.472371 
L 150.570677 273.472371 
L 150.626842 271.156769 
L 150.849711 271.156769 
L 150.960087 268.378046 
L 151.501723 268.378046 
L 151.528368 266.525564 
L 152.334802 266.525564 
L 152.334802 266.062443 
L 152.736878 266.062443 
L 152.736878 265.599323 
L 152.860649 265.599323 
L 152.909913 261.894358 
L 153.032466 261.894358 
L 153.032466 261.431238 
L 153.178403 261.431238 
L 153.226778 260.504997 
L 153.347132 260.504997 
L 153.442821 258.189394 
L 153.656221 258.189394 
L 153.656221 257.263153 
L 153.843742 257.263153 
L 153.843742 256.336912 
L 154.303908 256.336912 
L 154.349264 255.410671 
L 154.439623 255.410671 
L 154.439623 254.947551 
L 155.059358 254.947551 
L 155.12447 253.095069 
L 155.210911 253.095069 
L 155.318362 251.705707 
L 155.339773 251.705707 
L 155.403849 250.779466 
L 155.531298 250.779466 
L 155.594676 249.390104 
L 155.699795 249.390104 
L 155.699795 248.463863 
L 155.825108 248.463863 
L 155.86668 247.537622 
L 156.093569 247.537622 
L 156.114049 245.68514 
L 156.558644 245.68514 
L 156.558644 244.295779 
L 156.992185 244.295779 
L 156.992185 243.832658 
L 157.1279 243.832658 
L 157.1279 243.369538 
L 157.262567 243.369538 
L 157.358125 241.980176 
L 157.566527 241.980176 
L 157.604152 239.664574 
L 157.697862 239.664574 
L 157.697862 238.738333 
L 157.957601 238.738333 
L 158.067744 236.42273 
L 158.122556 236.42273 
L 158.213527 234.570248 
L 158.39406 234.570248 
L 158.39406 234.107127 
L 158.749613 234.107127 
L 158.749613 233.644007 
L 159.098062 233.644007 
L 159.149734 231.791525 
L 159.69158 231.791525 
L 159.69158 230.865284 
L 159.89051 230.865284 
L 159.98913 228.086561 
L 160.136022 228.086561 
L 160.136022 226.697199 
L 160.489968 226.697199 
L 160.521792 224.381596 
L 160.601097 224.381596 
L 160.632719 222.992235 
L 160.836873 222.992235 
L 160.852479 222.065994 
L 161.11566 222.065994 
L 161.222884 220.213512 
L 161.314269 220.213512 
L 161.314269 219.750391 
L 161.764147 219.750391 
L 161.764147 218.82415 
L 162.043181 218.82415 
L 162.144868 216.971668 
L 162.559939 216.971668 
L 162.559939 216.045427 
L 162.854457 216.045427 
L 162.854457 215.119186 
L 163.157756 215.119186 
L 163.157756 214.192945 
L 163.361568 214.192945 
L 163.469301 212.340463 
L 163.788565 212.340463 
L 163.788565 211.877342 
L 164.179597 211.877342 
L 164.243924 209.56174 
L 164.295217 209.56174 
L 164.295217 208.635499 
L 165.375047 208.635499 
L 165.375047 207.709258 
L 165.59035 207.709258 
L 165.59035 206.783017 
L 166.047915 206.783017 
L 166.140309 205.856776 
L 166.24367 205.856776 
L 166.266556 204.467414 
L 166.459886 204.467414 
L 166.459886 204.004294 
L 166.572616 204.004294 
L 166.572616 203.541173 
L 166.751482 203.541173 
L 166.751482 203.078053 
L 167.223287 203.078053 
L 167.223287 202.614932 
L 167.745812 202.614932 
L 167.745812 201.688691 
L 168.027181 201.688691 
L 168.027181 201.225571 
L 168.385289 201.225571 
L 168.385289 200.299329 
L 169.080173 200.299329 
L 169.080173 199.836209 
L 169.710923 199.836209 
L 169.720307 198.909968 
L 170.082381 198.909968 
L 170.082381 197.983727 
L 170.219663 197.983727 
L 170.219663 197.057486 
L 170.428085 197.057486 
L 170.428085 196.594365 
L 170.88154 196.594365 
L 170.907851 195.668124 
L 171.012696 195.668124 
L 171.012696 195.205004 
L 171.400348 195.205004 
L 171.400348 194.741883 
L 172.183331 194.741883 
L 172.183331 194.278763 
L 172.482136 194.278763 
L 172.482136 193.815642 
L 172.768032 193.815642 
L 172.768032 192.889401 
L 173.188276 192.889401 
L 173.188276 191.96316 
L 173.333764 191.96316 
L 173.333764 191.036919 
L 173.770522 191.036919 
L 173.874327 190.110678 
L 175.456309 190.110678 
L 175.456309 189.647558 
L 175.883143 189.647558 
L 175.883143 189.184437 
L 176.131719 189.184437 
L 176.15768 188.258196 
L 177.299796 188.258196 
L 177.354379 186.868834 
L 177.493098 186.868834 
L 177.493098 186.405714 
L 177.873391 186.405714 
L 177.873391 185.479473 
L 178.479885 185.479473 
L 178.479885 185.016352 
L 179.093418 185.016352 
L 179.093418 184.553232 
L 180.437796 184.553232 
L 180.473278 183.626991 
L 180.614487 183.626991 
L 180.614487 183.16387 
L 181.356906 183.16387 
L 181.356906 182.237629 
L 182.248295 182.237629 
L 182.248295 181.774509 
L 182.398576 181.774509 
L 182.398576 180.848268 
L 182.574526 180.848268 
L 182.574526 180.385147 
L 183.118098 180.385147 
L 183.118098 179.458906 
L 183.586035 179.458906 
L 183.586035 178.532665 
L 184.15281 178.532665 
L 184.15281 178.069545 
L 184.685842 178.069545 
L 184.75332 176.680183 
L 185.958619 176.680183 
L 185.958619 176.217062 
L 187.155149 176.217062 
L 187.155149 175.753942 
L 187.524031 175.753942 
L 187.53079 174.827701 
L 187.858769 174.827701 
L 187.858769 174.36458 
L 189.614096 174.36458 
L 189.614096 173.90146 
L 190.703588 173.90146 
L 190.703588 173.438339 
L 191.178666 173.438339 
L 191.178666 172.975219 
L 191.353197 172.975219 
L 191.353197 172.512098 
L 192.599203 172.512098 
L 192.667281 171.585857 
L 195.951377 171.585857 
L 195.951377 171.122737 
L 198.149821 171.122737 
L 198.149821 170.196496 
L 198.862756 170.196496 
L 198.862756 169.733375 
L 199.239685 169.733375 
L 199.239685 168.807134 
L 199.72991 168.807134 
L 199.72991 167.880893 
L 200.249142 167.880893 
L 200.249142 167.417773 
L 201.178654 167.417773 
L 201.178654 166.954652 
L 201.702084 166.954652 
L 201.702084 166.491532 
L 202.311881 166.491532 
L 202.311881 166.028411 
L 203.070969 166.028411 
L 203.070969 165.565291 
L 204.400637 165.565291 
L 204.400637 165.10217 
L 204.901866 165.10217 
L 204.901866 164.63905 
L 205.41334 164.63905 
L 205.41334 164.175929 
L 206.584752 164.175929 
L 206.584752 163.249688 
L 207.731275 163.249688 
L 207.731275 162.786567 
L 208.424882 162.786567 
L 208.491023 161.397206 
L 210.854339 161.397206 
L 210.881811 160.007844 
L 211.296572 160.007844 
L 211.296572 159.081603 
L 211.992422 159.081603 
L 211.992422 158.618483 
L 214.626371 158.618483 
L 214.626371 157.692242 
L 215.81512 157.692242 
L 215.81512 157.229121 
L 216.087914 157.229121 
L 216.087914 156.30288 
L 217.49042 156.30288 
L 217.49042 155.83976 
L 217.781382 155.83976 
L 217.781382 155.376639 
L 218.836247 155.376639 
L 218.836247 154.913519 
L 219.260352 154.913519 
L 219.260352 154.450398 
L 219.892309 154.450398 
L 219.892309 153.987278 
L 224.320945 153.987278 
L 224.320945 153.524157 
L 224.484079 153.524157 
L 224.484079 153.061037 
L 224.786301 153.061037 
L 224.786301 152.597916 
L 224.904391 152.597916 
L 224.904391 151.671675 
L 225.257821 151.671675 
L 225.257821 151.208554 
L 227.249024 151.208554 
L 227.249024 150.745434 
L 227.923117 150.745434 
L 227.923117 150.282313 
L 229.11181 150.282313 
L 229.11181 149.819193 
L 232.080894 149.819193 
L 232.080894 149.356072 
L 234.423661 149.356072 
L 234.423661 148.892952 
L 235.150079 148.892952 
L 235.184179 147.50359 
L 235.477737 147.50359 
L 235.477737 147.04047 
L 237.670125 147.04047 
L 237.670125 146.577349 
L 242.940808 146.577349 
L 242.940808 146.114229 
L 243.290029 146.114229 
L 243.290029 145.651108 
L 243.986353 145.651108 
L 243.986353 145.187988 
L 244.111281 145.187988 
L 244.151412 143.798626 
L 246.037854 143.798626 
L 246.037854 143.335506 
L 246.470737 143.335506 
L 246.470737 142.872385 
L 246.782275 142.872385 
L 246.782275 141.946144 
L 247.855487 141.946144 
L 247.855487 141.483024 
L 249.389279 141.483024 
L 249.389279 141.019903 
L 251.335396 141.019903 
L 251.335396 140.093662 
L 251.453125 140.093662 
L 251.453125 139.630541 
L 251.567058 139.630541 
L 251.567058 138.7043 
L 252.057049 138.7043 
L 252.057049 138.24118 
L 253.4128 138.24118 
L 253.4128 137.778059 
L 253.643401 137.778059 
L 253.643401 136.851818 
L 254.223732 136.851818 
L 254.223732 135.925577 
L 254.512472 135.925577 
L 254.512472 134.999336 
L 257.098181 134.999336 
L 257.098181 134.536216 
L 257.625226 134.536216 
L 257.625226 134.073095 
L 257.839663 134.073095 
L 257.839663 133.609975 
L 338.688 133.609975 
L 338.688 133.609975 
" style="fill:none;stroke:#ff00ff;stroke-linecap:square;stroke-width:1.5;"/>
   </g>
   <g id="line2d_41">
    <defs>
     <path d="M 0 8.485281 
L 5.091169 0 
L 0 -8.485281 
L -5.091169 0 
z
" id="mf783951851" style="stroke:#ff00ff;stroke-linejoin:miter;stroke-width:1.5;"/>
    </defs>
    <g>
     <use style="fill-opacity:0;stroke:#ff00ff;stroke-linejoin:miter;stroke-width:1.5;" x="155.699795" xlink:href="#mf783951851" y="249.390104"/>
     <use style="fill-opacity:0;stroke:#ff00ff;stroke-linejoin:miter;stroke-width:1.5;" x="200.249142" xlink:href="#mf783951851" y="167.417773"/>
     <use style="fill-opacity:0;stroke:#ff00ff;stroke-linejoin:miter;stroke-width:1.5;" x="257.839663" xlink:href="#mf783951851" y="134.073095"/>
     <use style="fill-opacity:0;stroke:#ff00ff;stroke-linejoin:miter;stroke-width:1.5;" x="257.839663" xlink:href="#mf783951851" y="133.609975"/>
     <use style="fill-opacity:0;stroke:#ff00ff;stroke-linejoin:miter;stroke-width:1.5;" x="338.688" xlink:href="#mf783951851" y="133.609975"/>
    </g>
   </g>
   <g id="line2d_42">
    <path style="fill:none;stroke:#ff00ff;stroke-linecap:square;stroke-width:1.5;"/>
    <g/>
   </g>
   <g id="line2d_43">
    <path clip-path="url(#pb6d8b6e0c8)" d="M 258.383943 133.609975 
" style="fill:none;stroke:#ff00ff;stroke-linecap:square;stroke-width:1.5;"/>
    <defs>
     <path d="M -12 12 
L 12 -12 
M -12 -12 
L 12 12 
" id="m7ebbb5bf48" style="stroke:#ff00ff;"/>
    </defs>
    <g clip-path="url(#pb6d8b6e0c8)">
     <use style="fill:#ff00ff;stroke:#ff00ff;" x="258.383943" xlink:href="#m7ebbb5bf48" y="133.609975"/>
    </g>
   </g>
   <g id="line2d_44">
    <defs>
     <path d="M 0 1.5 
C 0.397805 1.5 0.77937 1.341951 1.06066 1.06066 
C 1.341951 0.77937 1.5 0.397805 1.5 0 
C 1.5 -0.397805 1.341951 -0.77937 1.06066 -1.06066 
C 0.77937 -1.341951 0.397805 -1.5 0 -1.5 
C -0.397805 -1.5 -0.77937 -1.341951 -1.06066 -1.06066 
C -1.341951 -0.77937 -1.5 -0.397805 -1.5 0 
C -1.5 0.397805 -1.341951 0.77937 -1.06066 1.06066 
C -0.77937 1.341951 -0.397805 1.5 0 1.5 
z
" id="m125d8a278c" style="stroke:#ff7500;"/>
    </defs>
    <g>
     <use style="fill:#ff7500;stroke:#ff7500;" x="257.097305" xlink:href="#m125d8a278c" y="91.929128"/>
     <use style="fill:#ff7500;stroke:#ff7500;" x="257.097305" xlink:href="#m125d8a278c" y="91.929128"/>
    </g>
   </g>
   <g id="line2d_45">
    <path d="M 138.761723 298.944 
L 138.761723 298.480879 
L 141.187031 298.480879 
L 141.187031 298.017759 
L 141.426256 298.017759 
L 141.426256 297.554638 
L 146.608752 297.554638 
L 146.608752 297.091518 
L 147.130404 297.091518 
L 147.130404 296.628397 
L 149.073705 296.628397 
L 149.073705 295.239036 
L 150.738632 295.239036 
L 150.738632 294.775915 
L 151.44831 294.775915 
L 151.44831 293.386554 
L 151.818809 293.386554 
L 151.818809 292.923433 
L 152.207228 292.923433 
L 152.207228 291.997192 
L 152.587184 291.997192 
L 152.587184 291.070951 
L 153.983071 291.070951 
L 153.983071 290.607831 
L 154.19 290.607831 
L 154.19 289.218469 
L 154.46214 289.218469 
L 154.46214 288.755349 
L 154.928399 288.755349 
L 154.928399 287.829108 
L 155.102793 287.829108 
L 155.102793 287.365987 
L 155.253971 287.365987 
L 155.318362 286.439746 
L 156.236431 286.439746 
L 156.236431 285.976625 
L 156.598505 285.976625 
L 156.598505 285.513505 
L 157.753847 285.513505 
L 157.753847 285.050384 
L 157.883783 285.050384 
L 157.902267 282.734782 
L 158.122556 282.734782 
L 158.177196 280.419179 
L 158.465753 280.419179 
L 158.501489 279.029818 
L 158.732007 279.029818 
L 158.83738 276.714215 
L 159.0116 276.714215 
L 159.0116 275.787974 
L 159.235515 275.787974 
L 159.235515 275.324854 
L 159.388866 275.324854 
L 159.439685 274.398612 
L 159.906985 274.398612 
L 159.906985 273.935492 
L 160.233268 273.935492 
L 160.313893 273.009251 
L 160.521792 273.009251 
L 160.521792 272.54613 
L 160.976823 272.54613 
L 160.976823 272.08301 
L 161.192316 272.08301 
L 161.192316 270.693648 
L 161.374928 270.693648 
L 161.374928 270.230528 
L 161.525657 270.230528 
L 161.615474 269.304287 
L 161.70483 269.304287 
L 161.719678 267.451805 
L 162.303474 267.451805 
L 162.303474 266.988684 
L 162.756836 266.988684 
L 162.854457 263.28372 
L 162.965359 263.28372 
L 163.061823 262.357479 
L 163.157756 262.357479 
L 163.21234 260.968117 
L 163.293895 260.968117 
L 163.402046 259.578756 
L 163.52292 259.578756 
L 163.589711 257.726274 
L 163.762182 257.726274 
L 163.762182 256.800033 
L 163.8937 256.800033 
L 163.972138 255.410671 
L 164.346358 255.410671 
L 164.346358 254.48443 
L 164.498889 254.48443 
L 164.599841 252.168828 
L 164.737701 252.168828 
L 164.76265 250.316346 
L 164.899235 250.316346 
L 164.985598 248.000743 
L 165.230021 248.000743 
L 165.290595 246.148261 
L 165.375047 246.148261 
L 165.447111 244.758899 
L 165.779524 244.758899 
L 165.849938 243.369538 
L 166.02474 243.369538 
L 166.08262 241.980176 
L 166.174831 241.980176 
L 166.266556 237.812091 
L 166.323641 237.812091 
L 166.380539 236.88585 
L 166.862349 236.88585 
L 166.939538 235.033368 
L 166.983494 235.033368 
L 167.0929 233.180886 
L 167.169078 233.180886 
L 167.266534 231.328404 
L 167.545055 231.328404 
L 167.587512 229.939043 
L 167.693205 229.939043 
L 167.693205 229.475922 
L 168.01684 229.475922 
L 168.01684 228.549681 
L 168.171308 228.549681 
L 168.171308 227.62344 
L 168.334579 227.62344 
L 168.334579 226.697199 
L 168.496336 226.697199 
L 168.566635 225.307837 
L 168.666574 225.307837 
L 168.77585 222.065994 
L 168.845033 222.065994 
L 168.894283 220.676632 
L 169.099626 220.676632 
L 169.128764 218.82415 
L 169.283352 218.82415 
L 169.283352 218.36103 
L 169.60737 218.36103 
L 169.60737 217.434789 
L 169.925477 217.434789 
L 170.008719 215.119186 
L 170.100748 215.119186 
L 170.100748 214.192945 
L 170.28336 214.192945 
L 170.28336 213.266704 
L 170.419074 213.266704 
L 170.526891 209.098619 
L 171.021405 209.098619 
L 171.03881 208.172378 
L 171.177424 208.172378 
L 171.220515 206.319896 
L 171.485334 206.319896 
L 171.595202 204.930535 
L 171.603625 204.930535 
L 171.603625 204.467414 
L 171.72948 204.467414 
L 171.754542 203.541173 
L 171.937241 203.541173 
L 171.937241 202.614932 
L 172.215882 202.614932 
L 172.215882 202.151812 
L 172.490141 202.151812 
L 172.498143 200.76245 
L 172.736497 200.76245 
L 172.752272 199.373088 
L 173.00275 199.373088 
L 173.041565 196.594365 
L 173.265 196.594365 
L 173.356625 195.668124 
L 173.545979 195.668124 
L 173.643636 194.741883 
L 173.695995 194.741883 
L 173.695995 194.278763 
L 173.859536 194.278763 
L 173.918627 193.352522 
L 174.218366 193.352522 
L 174.218366 192.426281 
L 174.341153 192.426281 
L 174.398638 190.573799 
L 174.59126 190.573799 
L 174.59126 190.110678 
L 175.115421 190.110678 
L 175.115421 189.647558 
L 175.307139 189.647558 
L 175.395439 188.721316 
L 175.483295 188.721316 
L 175.483295 187.795075 
L 175.597519 187.795075 
L 175.657689 186.868834 
L 176.001331 186.868834 
L 176.001331 186.405714 
L 176.363988 186.405714 
L 176.363988 185.942593 
L 176.498063 185.942593 
L 176.580549 184.090111 
L 176.631116 184.090111 
L 176.656344 182.237629 
L 176.82569 182.237629 
L 176.82569 181.774509 
L 177.184001 181.774509 
L 177.184001 181.311388 
L 177.31801 181.311388 
L 177.31801 180.848268 
L 177.636682 180.848268 
L 177.731751 179.458906 
L 177.767269 179.458906 
L 177.767269 178.995786 
L 178.153265 178.995786 
L 178.222537 176.680183 
L 178.6156 176.680183 
L 178.6156 176.217062 
L 178.794926 176.217062 
L 178.794926 175.753942 
L 178.911614 175.753942 
L 178.917151 174.827701 
L 179.159062 174.827701 
L 179.159062 174.36458 
L 179.643667 174.36458 
L 179.643667 173.90146 
L 180.084129 173.90146 
L 180.177084 172.512098 
L 180.228512 172.512098 
L 180.228512 172.048978 
L 180.432721 172.048978 
L 180.468214 170.659616 
L 182.133577 170.659616 
L 182.225412 169.733375 
L 182.516073 169.733375 
L 182.516073 168.807134 
L 182.74872 168.807134 
L 182.762047 167.880893 
L 182.88595 167.880893 
L 182.88595 167.417773 
L 183.467024 167.417773 
L 183.496853 166.491532 
L 184.148709 166.491532 
L 184.148709 165.565291 
L 184.368791 165.565291 
L 184.4778 164.175929 
L 184.650012 164.175929 
L 184.749358 162.323447 
L 185.645263 162.323447 
L 185.645263 161.860326 
L 186.255543 161.860326 
L 186.255543 161.397206 
L 186.490213 161.397206 
L 186.490213 160.934085 
L 186.936309 160.934085 
L 186.974717 159.081603 
L 187.206852 159.081603 
L 187.210293 158.155362 
L 187.765688 158.155362 
L 187.765688 157.229121 
L 188.349128 157.229121 
L 188.349128 156.766001 
L 188.826075 156.766001 
L 188.826075 156.30288 
L 189.118447 156.30288 
L 189.118447 155.83976 
L 189.834548 155.83976 
L 189.872989 153.987278 
L 191.274329 153.987278 
L 191.274329 153.524157 
L 192.505477 153.524157 
L 192.505477 152.597916 
L 192.919612 152.597916 
L 192.919612 151.671675 
L 193.605405 151.671675 
L 193.638759 150.745434 
L 193.769178 150.745434 
L 193.769178 150.282313 
L 194.24457 150.282313 
L 194.24457 149.819193 
L 194.36827 149.819193 
L 194.36827 149.356072 
L 194.691668 149.356072 
L 194.691668 148.429831 
L 196.289935 148.429831 
L 196.381694 147.50359 
L 196.527511 147.50359 
L 196.527511 147.04047 
L 196.765874 147.04047 
L 196.765874 146.577349 
L 197.16901 146.577349 
L 197.267872 144.724867 
L 197.416079 144.724867 
L 197.416079 143.798626 
L 198.499128 143.798626 
L 198.499128 143.335506 
L 199.49673 143.335506 
L 199.49673 142.409265 
L 200.031097 142.409265 
L 200.031097 141.946144 
L 200.62468 141.946144 
L 200.731187 140.093662 
L 201.020382 140.093662 
L 201.020382 139.630541 
L 201.307925 139.630541 
L 201.307925 139.167421 
L 202.969509 139.167421 
L 202.969509 138.7043 
L 203.488606 138.7043 
L 203.488606 138.24118 
L 203.950583 138.24118 
L 203.950583 137.778059 
L 204.306645 137.778059 
L 204.306645 137.314939 
L 204.582032 137.314939 
L 204.582032 136.851818 
L 205.141027 136.851818 
L 205.141027 136.388698 
L 206.285368 136.388698 
L 206.285368 135.462457 
L 207.519952 135.462457 
L 207.519952 134.999336 
L 208.339035 134.999336 
L 208.339035 134.536216 
L 208.714044 134.536216 
L 208.714044 133.609975 
L 208.907495 133.609975 
L 208.907495 133.146854 
L 210.969257 133.146854 
L 210.969257 132.683734 
L 211.294843 132.683734 
L 211.294843 132.220613 
L 212.105883 132.220613 
L 212.105883 131.757493 
L 212.255478 131.757493 
L 212.255478 131.294372 
L 212.921886 131.294372 
L 212.921886 130.368131 
L 213.929668 130.368131 
L 213.929668 129.44189 
L 214.535405 129.44189 
L 214.535405 128.515649 
L 214.96035 128.515649 
L 215.0568 127.589408 
L 215.609037 127.589408 
L 215.609037 127.126287 
L 216.028686 127.126287 
L 216.028686 126.663167 
L 216.526465 126.663167 
L 216.574448 124.810685 
L 216.932365 124.810685 
L 216.932365 124.347564 
L 217.938066 124.347564 
L 217.938066 123.884444 
L 218.94422 123.884444 
L 218.94422 123.421323 
L 219.521825 123.421323 
L 219.521825 122.495082 
L 220.486855 122.495082 
L 220.486855 122.031962 
L 220.67725 122.031962 
L 220.67725 121.568841 
L 221.729509 121.568841 
L 221.729509 120.6426 
L 222.451225 120.6426 
L 222.451225 120.17948 
L 222.742519 120.17948 
L 222.742519 119.716359 
L 223.143379 119.716359 
L 223.143379 119.253239 
L 225.252772 119.253239 
L 225.252772 118.326998 
L 225.778469 118.326998 
L 225.778469 117.400757 
L 225.905771 117.400757 
L 225.905771 116.474516 
L 227.086493 116.474516 
L 227.086493 116.011395 
L 229.172102 116.011395 
L 229.205267 114.622033 
L 230.488409 114.622033 
L 230.488409 114.158913 
L 230.81559 114.158913 
L 230.81559 113.695792 
L 231.280568 113.695792 
L 231.280568 113.232672 
L 233.298569 113.232672 
L 233.324506 111.84331 
L 234.492398 111.84331 
L 234.492398 111.38019 
L 234.633829 111.38019 
L 234.633829 110.917069 
L 234.789641 110.917069 
L 234.789641 110.453949 
L 234.944295 110.453949 
L 234.944295 109.990828 
L 236.02092 109.990828 
L 236.02092 109.064587 
L 236.46212 109.064587 
L 236.46212 108.601467 
L 237.026425 108.601467 
L 237.026425 108.138346 
L 237.258609 108.138346 
L 237.258609 107.212105 
L 238.969606 107.212105 
L 238.969606 106.285864 
L 239.903122 106.285864 
L 239.944823 104.433382 
L 240.719251 104.433382 
L 240.755536 103.04402 
L 241.316464 103.04402 
L 241.316464 102.5809 
L 244.752323 102.5809 
L 244.752323 101.654659 
L 245.419706 101.654659 
L 245.419706 101.191538 
L 246.800575 101.191538 
L 246.800575 100.728418 
L 248.290732 100.728418 
L 248.290732 99.802177 
L 249.267095 99.802177 
L 249.267095 98.875936 
L 249.530897 98.875936 
L 249.530897 97.949695 
L 249.928515 97.949695 
L 249.928515 97.486574 
L 251.105909 97.486574 
L 251.105909 96.560333 
L 251.314056 96.560333 
L 251.314056 96.097213 
L 252.232974 96.097213 
L 252.232974 95.170972 
L 253.867078 95.170972 
L 253.867078 94.707851 
L 255.133151 94.707851 
L 255.133151 93.78161 
L 255.995022 93.78161 
L 256.004882 92.855369 
L 256.111054 92.855369 
L 256.111054 92.392249 
L 257.097305 92.392249 
L 257.097305 91.929128 
L 338.688 91.929128 
L 338.688 91.929128 
" style="fill:none;stroke:#ff7500;stroke-linecap:square;stroke-width:1.5;"/>
   </g>
   <g id="line2d_46">
    <defs>
     <path d="M 0 -6 
L -1.347084 -1.854102 
L -5.706339 -1.854102 
L -2.179628 0.708204 
L -3.526712 4.854102 
L -0 2.291796 
L 3.526712 4.854102 
L 2.179628 0.708204 
L 5.706339 -1.854102 
L 1.347084 -1.854102 
z
" id="m02f31547dc" style="stroke:#ff7500;stroke-linejoin:bevel;stroke-width:1.5;"/>
    </defs>
    <g>
     <use style="fill-opacity:0;stroke:#ff7500;stroke-linejoin:bevel;stroke-width:1.5;" x="197.16901" xlink:href="#m02f31547dc" y="146.577349"/>
     <use style="fill-opacity:0;stroke:#ff7500;stroke-linejoin:bevel;stroke-width:1.5;" x="257.097305" xlink:href="#m02f31547dc" y="92.392249"/>
     <use style="fill-opacity:0;stroke:#ff7500;stroke-linejoin:bevel;stroke-width:1.5;" x="257.097305" xlink:href="#m02f31547dc" y="91.929128"/>
     <use style="fill-opacity:0;stroke:#ff7500;stroke-linejoin:bevel;stroke-width:1.5;" x="257.097305" xlink:href="#m02f31547dc" y="91.929128"/>
     <use style="fill-opacity:0;stroke:#ff7500;stroke-linejoin:bevel;stroke-width:1.5;" x="338.688" xlink:href="#m02f31547dc" y="91.929128"/>
    </g>
   </g>
   <g id="line2d_47">
    <path style="fill:none;stroke:#ff7500;stroke-linecap:square;stroke-width:1.5;"/>
    <g/>
   </g>
   <g id="line2d_48">
    <path clip-path="url(#pb6d8b6e0c8)" d="M 258.377201 91.929128 
" style="fill:none;stroke:#ff7500;stroke-linecap:square;stroke-width:1.5;"/>
    <defs>
     <path d="M -12 12 
L 12 -12 
M -12 -12 
L 12 12 
" id="me7d14864d4" style="stroke:#ff7500;"/>
    </defs>
    <g clip-path="url(#pb6d8b6e0c8)">
     <use style="fill:#ff7500;stroke:#ff7500;" x="258.377201" xlink:href="#me7d14864d4" y="91.929128"/>
    </g>
   </g>
   <g id="line2d_49">
    <path d="M 338.688 133.609975 
L 369.60768 293.571802 
" style="fill:none;stroke:#ff00ff;stroke-linecap:square;stroke-width:1.5;"/>
    <g>
     <use style="fill-opacity:0;stroke:#ff00ff;stroke-linejoin:miter;stroke-width:1.5;" x="338.688" xlink:href="#mf783951851" y="133.609975"/>
     <use style="fill-opacity:0;stroke:#ff00ff;stroke-linejoin:miter;stroke-width:1.5;" x="369.60768" xlink:href="#mf783951851" y="293.571802"/>
    </g>
   </g>
   <g id="line2d_50">
    <path d="M 338.688 97.486574 
L 369.60768 207.616634 
" style="fill:none;stroke:#000080;stroke-linecap:square;stroke-width:1.5;"/>
    <g>
     <use style="fill-opacity:0;stroke:#000080;stroke-width:1.5;" x="338.688" xlink:href="#me7887081ff" y="97.486574"/>
     <use style="fill-opacity:0;stroke:#000080;stroke-width:1.5;" x="369.60768" xlink:href="#me7887081ff" y="207.616634"/>
    </g>
   </g>
   <g id="line2d_51">
    <path d="M 338.688 91.929128 
L 369.60768 121.661465 
" style="fill:none;stroke:#ff7500;stroke-linecap:square;stroke-width:1.5;"/>
    <g>
     <use style="fill-opacity:0;stroke:#ff7500;stroke-linejoin:bevel;stroke-width:1.5;" x="338.688" xlink:href="#m02f31547dc" y="91.929128"/>
     <use style="fill-opacity:0;stroke:#ff7500;stroke-linejoin:bevel;stroke-width:1.5;" x="369.60768" xlink:href="#m02f31547dc" y="121.661465"/>
    </g>
   </g>
   <g id="line2d_52">
    <path d="M 338.688 298.944 
L 338.688 30.334099 
" style="fill:none;stroke:#000000;stroke-linecap:square;stroke-width:1.5;"/>
   </g>
   <g id="patch_3">
    <path d="M 57.6 298.944 
L 57.6 27.648 
" style="fill:none;stroke:#000000;stroke-linecap:square;stroke-linejoin:miter;stroke-width:0.8;"/>
   </g>
   <g id="patch_4">
    <path d="M 338.688 298.944 
L 338.688 27.648 
" style="fill:none;stroke:#000000;stroke-linecap:square;stroke-linejoin:miter;stroke-width:0.8;"/>
   </g>
   <g id="patch_5">
    <path d="M 57.6 298.944 
L 338.688 298.944 
" style="fill:none;stroke:#000000;stroke-linecap:square;stroke-linejoin:miter;stroke-width:0.8;"/>
   </g>
   <g id="patch_6">
    <path d="M 57.6 27.648 
L 338.688 27.648 
" style="fill:none;stroke:#000000;stroke-linecap:square;stroke-linejoin:miter;stroke-width:0.8;"/>
   </g>
   <g id="text_13">
    <!-- NSGA-II-M -->
    <g transform="translate(375.22944 298.262739)scale(0.17 -0.17)">
     <defs>
      <path d="M 9.8125 72.90625 
L 23.09375 72.90625 
L 55.421875 11.921875 
L 55.421875 72.90625 
L 64.984375 72.90625 
L 64.984375 0 
L 51.703125 0 
L 19.390625 60.984375 
L 19.390625 0 
L 9.8125 0 
z
" id="DejaVuSans-78"/>
      <path d="M 53.515625 70.515625 
L 53.515625 60.890625 
Q 47.90625 63.578125 42.921875 64.890625 
Q 37.9375 66.21875 33.296875 66.21875 
Q 25.25 66.21875 20.875 63.09375 
Q 16.5 59.96875 16.5 54.203125 
Q 16.5 49.359375 19.40625 46.890625 
Q 22.3125 44.4375 30.421875 42.921875 
L 36.375 41.703125 
Q 47.40625 39.59375 52.65625 34.296875 
Q 57.90625 29 57.90625 20.125 
Q 57.90625 9.515625 50.796875 4.046875 
Q 43.703125 -1.421875 29.984375 -1.421875 
Q 24.8125 -1.421875 18.96875 -0.25 
Q 13.140625 0.921875 6.890625 3.21875 
L 6.890625 13.375 
Q 12.890625 10.015625 18.65625 8.296875 
Q 24.421875 6.59375 29.984375 6.59375 
Q 38.421875 6.59375 43.015625 9.90625 
Q 47.609375 13.234375 47.609375 19.390625 
Q 47.609375 24.75 44.3125 27.78125 
Q 41.015625 30.8125 33.5 32.328125 
L 27.484375 33.5 
Q 16.453125 35.6875 11.515625 40.375 
Q 6.59375 45.0625 6.59375 53.421875 
Q 6.59375 63.09375 13.40625 68.65625 
Q 20.21875 74.21875 32.171875 74.21875 
Q 37.3125 74.21875 42.625 73.28125 
Q 47.953125 72.359375 53.515625 70.515625 
z
" id="DejaVuSans-83"/>
      <path d="M 59.515625 10.40625 
L 59.515625 29.984375 
L 43.40625 29.984375 
L 43.40625 38.09375 
L 69.28125 38.09375 
L 69.28125 6.78125 
Q 63.578125 2.734375 56.6875 0.65625 
Q 49.8125 -1.421875 42 -1.421875 
Q 24.90625 -1.421875 15.25 8.5625 
Q 5.609375 18.5625 5.609375 36.375 
Q 5.609375 54.25 15.25 64.234375 
Q 24.90625 74.21875 42 74.21875 
Q 49.125 74.21875 55.546875 72.453125 
Q 61.96875 70.703125 67.390625 67.28125 
L 67.390625 56.78125 
Q 61.921875 61.421875 55.765625 63.765625 
Q 49.609375 66.109375 42.828125 66.109375 
Q 29.4375 66.109375 22.71875 58.640625 
Q 16.015625 51.171875 16.015625 36.375 
Q 16.015625 21.625 22.71875 14.15625 
Q 29.4375 6.6875 42.828125 6.6875 
Q 48.046875 6.6875 52.140625 7.59375 
Q 56.25 8.5 59.515625 10.40625 
z
" id="DejaVuSans-71"/>
      <path d="M 34.1875 63.1875 
L 20.796875 26.90625 
L 47.609375 26.90625 
z
M 28.609375 72.90625 
L 39.796875 72.90625 
L 67.578125 0 
L 57.328125 0 
L 50.6875 18.703125 
L 17.828125 18.703125 
L 11.1875 0 
L 0.78125 0 
z
" id="DejaVuSans-65"/>
      <path d="M 9.8125 72.90625 
L 19.671875 72.90625 
L 19.671875 0 
L 9.8125 0 
z
" id="DejaVuSans-73"/>
      <path d="M 9.8125 72.90625 
L 24.515625 72.90625 
L 43.109375 23.296875 
L 61.8125 72.90625 
L 76.515625 72.90625 
L 76.515625 0 
L 66.890625 0 
L 66.890625 64.015625 
L 48.09375 14.015625 
L 38.1875 14.015625 
L 19.390625 64.015625 
L 19.390625 0 
L 9.8125 0 
z
" id="DejaVuSans-77"/>
     </defs>
     <use xlink:href="#DejaVuSans-78"/>
     <use x="74.804688" xlink:href="#DejaVuSans-83"/>
     <use x="138.28125" xlink:href="#DejaVuSans-71"/>
     <use x="215.771484" xlink:href="#DejaVuSans-65"/>
     <use x="281.929688" xlink:href="#DejaVuSans-45"/>
     <use x="318.013672" xlink:href="#DejaVuSans-73"/>
     <use x="347.505859" xlink:href="#DejaVuSans-73"/>
     <use x="376.998047" xlink:href="#DejaVuSans-45"/>
     <use x="413.082031" xlink:href="#DejaVuSans-77"/>
    </g>
   </g>
   <g id="text_14">
    <!-- COMO-100  -->
    <g transform="translate(375.22944 212.307571)scale(0.17 -0.17)">
     <defs>
      <path d="M 64.40625 67.28125 
L 64.40625 56.890625 
Q 59.421875 61.53125 53.78125 63.8125 
Q 48.140625 66.109375 41.796875 66.109375 
Q 29.296875 66.109375 22.65625 58.46875 
Q 16.015625 50.828125 16.015625 36.375 
Q 16.015625 21.96875 22.65625 14.328125 
Q 29.296875 6.6875 41.796875 6.6875 
Q 48.140625 6.6875 53.78125 8.984375 
Q 59.421875 11.28125 64.40625 15.921875 
L 64.40625 5.609375 
Q 59.234375 2.09375 53.4375 0.328125 
Q 47.65625 -1.421875 41.21875 -1.421875 
Q 24.65625 -1.421875 15.125 8.703125 
Q 5.609375 18.84375 5.609375 36.375 
Q 5.609375 53.953125 15.125 64.078125 
Q 24.65625 74.21875 41.21875 74.21875 
Q 47.75 74.21875 53.53125 72.484375 
Q 59.328125 70.75 64.40625 67.28125 
z
" id="DejaVuSans-67"/>
      <path d="M 39.40625 66.21875 
Q 28.65625 66.21875 22.328125 58.203125 
Q 16.015625 50.203125 16.015625 36.375 
Q 16.015625 22.609375 22.328125 14.59375 
Q 28.65625 6.59375 39.40625 6.59375 
Q 50.140625 6.59375 56.421875 14.59375 
Q 62.703125 22.609375 62.703125 36.375 
Q 62.703125 50.203125 56.421875 58.203125 
Q 50.140625 66.21875 39.40625 66.21875 
z
M 39.40625 74.21875 
Q 54.734375 74.21875 63.90625 63.9375 
Q 73.09375 53.65625 73.09375 36.375 
Q 73.09375 19.140625 63.90625 8.859375 
Q 54.734375 -1.421875 39.40625 -1.421875 
Q 24.03125 -1.421875 14.8125 8.828125 
Q 5.609375 19.09375 5.609375 36.375 
Q 5.609375 53.65625 14.8125 63.9375 
Q 24.03125 74.21875 39.40625 74.21875 
z
" id="DejaVuSans-79"/>
     </defs>
     <use xlink:href="#DejaVuSans-67"/>
     <use x="69.824219" xlink:href="#DejaVuSans-79"/>
     <use x="148.535156" xlink:href="#DejaVuSans-77"/>
     <use x="234.814453" xlink:href="#DejaVuSans-79"/>
     <use x="316.275391" xlink:href="#DejaVuSans-45"/>
     <use x="352.359375" xlink:href="#DejaVuSans-49"/>
     <use x="415.982422" xlink:href="#DejaVuSans-48"/>
     <use x="479.605469" xlink:href="#DejaVuSans-48"/>
     <use x="543.228516" xlink:href="#DejaVuSans-32"/>
    </g>
   </g>
   <g id="text_15">
    <!-- SMS-EMOA- -->
    <g transform="translate(375.22944 126.352403)scale(0.17 -0.17)">
     <defs>
      <path d="M 9.8125 72.90625 
L 55.90625 72.90625 
L 55.90625 64.59375 
L 19.671875 64.59375 
L 19.671875 43.015625 
L 54.390625 43.015625 
L 54.390625 34.71875 
L 19.671875 34.71875 
L 19.671875 8.296875 
L 56.78125 8.296875 
L 56.78125 0 
L 9.8125 0 
z
" id="DejaVuSans-69"/>
     </defs>
     <use xlink:href="#DejaVuSans-83"/>
     <use x="63.476562" xlink:href="#DejaVuSans-77"/>
     <use x="149.755859" xlink:href="#DejaVuSans-83"/>
     <use x="213.232422" xlink:href="#DejaVuSans-45"/>
     <use x="249.316406" xlink:href="#DejaVuSans-69"/>
     <use x="312.5" xlink:href="#DejaVuSans-77"/>
     <use x="398.779297" xlink:href="#DejaVuSans-79"/>
     <use x="475.740234" xlink:href="#DejaVuSans-65"/>
     <use x="541.898438" xlink:href="#DejaVuSans-45"/>
    </g>
   </g>
   <g id="text_16">
    <!-- best 2016 -->
    <g transform="translate(375.22944 40.397235)scale(0.17 -0.17)">
     <defs>
      <path d="M 48.6875 27.296875 
Q 48.6875 37.203125 44.609375 42.84375 
Q 40.53125 48.484375 33.40625 48.484375 
Q 26.265625 48.484375 22.1875 42.84375 
Q 18.109375 37.203125 18.109375 27.296875 
Q 18.109375 17.390625 22.1875 11.75 
Q 26.265625 6.109375 33.40625 6.109375 
Q 40.53125 6.109375 44.609375 11.75 
Q 48.6875 17.390625 48.6875 27.296875 
z
M 18.109375 46.390625 
Q 20.953125 51.265625 25.265625 53.625 
Q 29.59375 56 35.59375 56 
Q 45.5625 56 51.78125 48.09375 
Q 58.015625 40.1875 58.015625 27.296875 
Q 58.015625 14.40625 51.78125 6.484375 
Q 45.5625 -1.421875 35.59375 -1.421875 
Q 29.59375 -1.421875 25.265625 0.953125 
Q 20.953125 3.328125 18.109375 8.203125 
L 18.109375 0 
L 9.078125 0 
L 9.078125 75.984375 
L 18.109375 75.984375 
z
" id="DejaVuSans-98"/>
     </defs>
     <use xlink:href="#DejaVuSans-98"/>
     <use x="63.476562" xlink:href="#DejaVuSans-101"/>
     <use x="125" xlink:href="#DejaVuSans-115"/>
     <use x="177.099609" xlink:href="#DejaVuSans-116"/>
     <use x="216.308594" xlink:href="#DejaVuSans-32"/>
     <use x="248.095703" xlink:href="#DejaVuSans-50"/>
     <use x="311.71875" xlink:href="#DejaVuSans-48"/>
     <use x="375.341797" xlink:href="#DejaVuSans-49"/>
     <use x="438.964844" xlink:href="#DejaVuSans-54"/>
    </g>
   </g>
   <g id="text_17">
    <!-- bbob-biobj f6, 3-D -->
    <g transform="translate(60.41088 38.111366)scale(0.102 -0.102)">
     <defs>
      <path d="M 9.421875 54.6875 
L 18.40625 54.6875 
L 18.40625 -0.984375 
Q 18.40625 -11.421875 14.421875 -16.109375 
Q 10.453125 -20.796875 1.609375 -20.796875 
L -1.8125 -20.796875 
L -1.8125 -13.1875 
L 0.59375 -13.1875 
Q 5.71875 -13.1875 7.5625 -10.8125 
Q 9.421875 -8.453125 9.421875 -0.984375 
z
M 9.421875 75.984375 
L 18.40625 75.984375 
L 18.40625 64.59375 
L 9.421875 64.59375 
z
" id="DejaVuSans-106"/>
      <path d="M 40.578125 39.3125 
Q 47.65625 37.796875 51.625 33 
Q 55.609375 28.21875 55.609375 21.1875 
Q 55.609375 10.40625 48.1875 4.484375 
Q 40.765625 -1.421875 27.09375 -1.421875 
Q 22.515625 -1.421875 17.65625 -0.515625 
Q 12.796875 0.390625 7.625 2.203125 
L 7.625 11.71875 
Q 11.71875 9.328125 16.59375 8.109375 
Q 21.484375 6.890625 26.8125 6.890625 
Q 36.078125 6.890625 40.9375 10.546875 
Q 45.796875 14.203125 45.796875 21.1875 
Q 45.796875 27.640625 41.28125 31.265625 
Q 36.765625 34.90625 28.71875 34.90625 
L 20.21875 34.90625 
L 20.21875 43.015625 
L 29.109375 43.015625 
Q 36.375 43.015625 40.234375 45.921875 
Q 44.09375 48.828125 44.09375 54.296875 
Q 44.09375 59.90625 40.109375 62.90625 
Q 36.140625 65.921875 28.71875 65.921875 
Q 24.65625 65.921875 20.015625 65.03125 
Q 15.375 64.15625 9.8125 62.3125 
L 9.8125 71.09375 
Q 15.4375 72.65625 20.34375 73.4375 
Q 25.25 74.21875 29.59375 74.21875 
Q 40.828125 74.21875 47.359375 69.109375 
Q 53.90625 64.015625 53.90625 55.328125 
Q 53.90625 49.265625 50.4375 45.09375 
Q 46.96875 40.921875 40.578125 39.3125 
z
" id="DejaVuSans-51"/>
      <path d="M 19.671875 64.796875 
L 19.671875 8.109375 
L 31.59375 8.109375 
Q 46.6875 8.109375 53.6875 14.9375 
Q 60.6875 21.78125 60.6875 36.53125 
Q 60.6875 51.171875 53.6875 57.984375 
Q 46.6875 64.796875 31.59375 64.796875 
z
M 9.8125 72.90625 
L 30.078125 72.90625 
Q 51.265625 72.90625 61.171875 64.09375 
Q 71.09375 55.28125 71.09375 36.53125 
Q 71.09375 17.671875 61.125 8.828125 
Q 51.171875 0 30.078125 0 
L 9.8125 0 
z
" id="DejaVuSans-68"/>
     </defs>
     <use xlink:href="#DejaVuSans-98"/>
     <use x="63.476562" xlink:href="#DejaVuSans-98"/>
     <use x="126.953125" xlink:href="#DejaVuSans-111"/>
     <use x="188.134766" xlink:href="#DejaVuSans-98"/>
     <use x="251.611328" xlink:href="#DejaVuSans-45"/>
     <use x="287.695312" xlink:href="#DejaVuSans-98"/>
     <use x="351.171875" xlink:href="#DejaVuSans-105"/>
     <use x="378.955078" xlink:href="#DejaVuSans-111"/>
     <use x="440.136719" xlink:href="#DejaVuSans-98"/>
     <use x="503.613281" xlink:href="#DejaVuSans-106"/>
     <use x="531.396484" xlink:href="#DejaVuSans-32"/>
     <use x="563.183594" xlink:href="#DejaVuSans-102"/>
     <use x="598.388672" xlink:href="#DejaVuSans-54"/>
     <use x="662.011719" xlink:href="#DejaVuSans-44"/>
     <use x="693.798828" xlink:href="#DejaVuSans-32"/>
     <use x="725.585938" xlink:href="#DejaVuSans-51"/>
     <use x="789.208984" xlink:href="#DejaVuSans-45"/>
     <use x="825.292969" xlink:href="#DejaVuSans-68"/>
    </g>
    <!-- 58 targets: 1..-1.0e-4 -->
    <g transform="translate(60.41088 49.533135)scale(0.102 -0.102)">
     <defs>
      <path d="M 10.796875 72.90625 
L 49.515625 72.90625 
L 49.515625 64.59375 
L 19.828125 64.59375 
L 19.828125 46.734375 
Q 21.96875 47.46875 24.109375 47.828125 
Q 26.265625 48.1875 28.421875 48.1875 
Q 40.625 48.1875 47.75 41.5 
Q 54.890625 34.8125 54.890625 23.390625 
Q 54.890625 11.625 47.5625 5.09375 
Q 40.234375 -1.421875 26.90625 -1.421875 
Q 22.3125 -1.421875 17.546875 -0.640625 
Q 12.796875 0.140625 7.71875 1.703125 
L 7.71875 11.625 
Q 12.109375 9.234375 16.796875 8.0625 
Q 21.484375 6.890625 26.703125 6.890625 
Q 35.15625 6.890625 40.078125 11.328125 
Q 45.015625 15.765625 45.015625 23.390625 
Q 45.015625 31 40.078125 35.4375 
Q 35.15625 39.890625 26.703125 39.890625 
Q 22.75 39.890625 18.8125 39.015625 
Q 14.890625 38.140625 10.796875 36.28125 
z
" id="DejaVuSans-53"/>
      <path d="M 11.71875 12.40625 
L 22.015625 12.40625 
L 22.015625 0 
L 11.71875 0 
z
M 11.71875 51.703125 
L 22.015625 51.703125 
L 22.015625 39.3125 
L 11.71875 39.3125 
z
" id="DejaVuSans-58"/>
     </defs>
     <use xlink:href="#DejaVuSans-53"/>
     <use x="63.623047" xlink:href="#DejaVuSans-56"/>
     <use x="127.246094" xlink:href="#DejaVuSans-32"/>
     <use x="159.033203" xlink:href="#DejaVuSans-116"/>
     <use x="198.242188" xlink:href="#DejaVuSans-97"/>
     <use x="259.521484" xlink:href="#DejaVuSans-114"/>
     <use x="298.884766" xlink:href="#DejaVuSans-103"/>
     <use x="362.361328" xlink:href="#DejaVuSans-101"/>
     <use x="423.884766" xlink:href="#DejaVuSans-116"/>
     <use x="463.09375" xlink:href="#DejaVuSans-115"/>
     <use x="515.193359" xlink:href="#DejaVuSans-58"/>
     <use x="548.884766" xlink:href="#DejaVuSans-32"/>
     <use x="580.671875" xlink:href="#DejaVuSans-49"/>
     <use x="644.294922" xlink:href="#DejaVuSans-46"/>
     <use x="676.082031" xlink:href="#DejaVuSans-46"/>
     <use x="707.869141" xlink:href="#DejaVuSans-45"/>
     <use x="743.953125" xlink:href="#DejaVuSans-49"/>
     <use x="807.576172" xlink:href="#DejaVuSans-46"/>
     <use x="839.363281" xlink:href="#DejaVuSans-48"/>
     <use x="902.986328" xlink:href="#DejaVuSans-101"/>
     <use x="964.509766" xlink:href="#DejaVuSans-45"/>
     <use x="1000.59375" xlink:href="#DejaVuSans-52"/>
    </g>
    <!-- 10 instances -->
    <g transform="translate(60.41088 60.954904)scale(0.102 -0.102)">
     <use xlink:href="#DejaVuSans-49"/>
     <use x="63.623047" xlink:href="#DejaVuSans-48"/>
     <use x="127.246094" xlink:href="#DejaVuSans-32"/>
     <use x="159.033203" xlink:href="#DejaVuSans-105"/>
     <use x="186.816406" xlink:href="#DejaVuSans-110"/>
     <use x="250.195312" xlink:href="#DejaVuSans-115"/>
     <use x="302.294922" xlink:href="#DejaVuSans-116"/>
     <use x="341.503906" xlink:href="#DejaVuSans-97"/>
     <use x="402.783203" xlink:href="#DejaVuSans-110"/>
     <use x="466.162109" xlink:href="#DejaVuSans-99"/>
     <use x="521.142578" xlink:href="#DejaVuSans-101"/>
     <use x="582.666016" xlink:href="#DejaVuSans-115"/>
    </g>
   </g>
   <g id="text_18">
    <!-- v2.4.19, hv-hash=ff0e71e8cd978373 -->
    <g style="fill:#808080;" transform="translate(104.697125 294.151352)scale(0.1 -0.1)">
     <defs>
      <path d="M 10.984375 1.515625 
L 10.984375 10.5 
Q 14.703125 8.734375 18.5 7.8125 
Q 22.3125 6.890625 25.984375 6.890625 
Q 35.75 6.890625 40.890625 13.453125 
Q 46.046875 20.015625 46.78125 33.40625 
Q 43.953125 29.203125 39.59375 26.953125 
Q 35.25 24.703125 29.984375 24.703125 
Q 19.046875 24.703125 12.671875 31.3125 
Q 6.296875 37.9375 6.296875 49.421875 
Q 6.296875 60.640625 12.9375 67.421875 
Q 19.578125 74.21875 30.609375 74.21875 
Q 43.265625 74.21875 49.921875 64.515625 
Q 56.59375 54.828125 56.59375 36.375 
Q 56.59375 19.140625 48.40625 8.859375 
Q 40.234375 -1.421875 26.421875 -1.421875 
Q 22.703125 -1.421875 18.890625 -0.6875 
Q 15.09375 0.046875 10.984375 1.515625 
z
M 30.609375 32.421875 
Q 37.25 32.421875 41.125 36.953125 
Q 45.015625 41.5 45.015625 49.421875 
Q 45.015625 57.28125 41.125 61.84375 
Q 37.25 66.40625 30.609375 66.40625 
Q 23.96875 66.40625 20.09375 61.84375 
Q 16.21875 57.28125 16.21875 49.421875 
Q 16.21875 41.5 20.09375 36.953125 
Q 23.96875 32.421875 30.609375 32.421875 
z
" id="DejaVuSans-57"/>
      <path d="M 54.890625 33.015625 
L 54.890625 0 
L 45.90625 0 
L 45.90625 32.71875 
Q 45.90625 40.484375 42.875 44.328125 
Q 39.84375 48.1875 33.796875 48.1875 
Q 26.515625 48.1875 22.3125 43.546875 
Q 18.109375 38.921875 18.109375 30.90625 
L 18.109375 0 
L 9.078125 0 
L 9.078125 75.984375 
L 18.109375 75.984375 
L 18.109375 46.1875 
Q 21.34375 51.125 25.703125 53.5625 
Q 30.078125 56 35.796875 56 
Q 45.21875 56 50.046875 50.171875 
Q 54.890625 44.34375 54.890625 33.015625 
z
" id="DejaVuSans-104"/>
      <path d="M 10.59375 45.40625 
L 73.1875 45.40625 
L 73.1875 37.203125 
L 10.59375 37.203125 
z
M 10.59375 25.484375 
L 73.1875 25.484375 
L 73.1875 17.1875 
L 10.59375 17.1875 
z
" id="DejaVuSans-61"/>
      <path d="M 8.203125 72.90625 
L 55.078125 72.90625 
L 55.078125 68.703125 
L 28.609375 0 
L 18.3125 0 
L 43.21875 64.59375 
L 8.203125 64.59375 
z
" id="DejaVuSans-55"/>
     </defs>
     <use xlink:href="#DejaVuSans-118"/>
     <use x="59.179688" xlink:href="#DejaVuSans-50"/>
     <use x="122.802734" xlink:href="#DejaVuSans-46"/>
     <use x="154.589844" xlink:href="#DejaVuSans-52"/>
     <use x="218.212891" xlink:href="#DejaVuSans-46"/>
     <use x="250" xlink:href="#DejaVuSans-49"/>
     <use x="313.623047" xlink:href="#DejaVuSans-57"/>
     <use x="377.246094" xlink:href="#DejaVuSans-44"/>
     <use x="409.033203" xlink:href="#DejaVuSans-32"/>
     <use x="440.820312" xlink:href="#DejaVuSans-104"/>
     <use x="504.199219" xlink:href="#DejaVuSans-118"/>
     <use x="560.753906" xlink:href="#DejaVuSans-45"/>
     <use x="596.837891" xlink:href="#DejaVuSans-104"/>
     <use x="660.216797" xlink:href="#DejaVuSans-97"/>
     <use x="721.496094" xlink:href="#DejaVuSans-115"/>
     <use x="773.595703" xlink:href="#DejaVuSans-104"/>
     <use x="836.974609" xlink:href="#DejaVuSans-61"/>
     <use x="920.763672" xlink:href="#DejaVuSans-102"/>
     <use x="955.96875" xlink:href="#DejaVuSans-102"/>
     <use x="991.173828" xlink:href="#DejaVuSans-48"/>
     <use x="1054.796875" xlink:href="#DejaVuSans-101"/>
     <use x="1116.320312" xlink:href="#DejaVuSans-55"/>
     <use x="1179.943359" xlink:href="#DejaVuSans-49"/>
     <use x="1243.566406" xlink:href="#DejaVuSans-101"/>
     <use x="1305.089844" xlink:href="#DejaVuSans-56"/>
     <use x="1368.712891" xlink:href="#DejaVuSans-99"/>
     <use x="1423.693359" xlink:href="#DejaVuSans-100"/>
     <use x="1487.169922" xlink:href="#DejaVuSans-57"/>
     <use x="1550.792969" xlink:href="#DejaVuSans-55"/>
     <use x="1614.416016" xlink:href="#DejaVuSans-56"/>
     <use x="1678.039062" xlink:href="#DejaVuSans-51"/>
     <use x="1741.662109" xlink:href="#DejaVuSans-55"/>
     <use x="1805.285156" xlink:href="#DejaVuSans-51"/>
    </g>
   </g>
   <g id="text_19">
    <!-- 6 Sphere/Different Powers -->
    <g transform="translate(67.423687 21.648)scale(0.2 -0.2)">
     <defs>
      <path d="M 19.671875 64.796875 
L 19.671875 37.40625 
L 32.078125 37.40625 
Q 38.96875 37.40625 42.71875 40.96875 
Q 46.484375 44.53125 46.484375 51.125 
Q 46.484375 57.671875 42.71875 61.234375 
Q 38.96875 64.796875 32.078125 64.796875 
z
M 9.8125 72.90625 
L 32.078125 72.90625 
Q 44.34375 72.90625 50.609375 67.359375 
Q 56.890625 61.8125 56.890625 51.125 
Q 56.890625 40.328125 50.609375 34.8125 
Q 44.34375 29.296875 32.078125 29.296875 
L 19.671875 29.296875 
L 19.671875 0 
L 9.8125 0 
z
" id="DejaVuSans-80"/>
      <path d="M 4.203125 54.6875 
L 13.1875 54.6875 
L 24.421875 12.015625 
L 35.59375 54.6875 
L 46.1875 54.6875 
L 57.421875 12.015625 
L 68.609375 54.6875 
L 77.59375 54.6875 
L 63.28125 0 
L 52.6875 0 
L 40.921875 44.828125 
L 29.109375 0 
L 18.5 0 
z
" id="DejaVuSans-119"/>
     </defs>
     <use xlink:href="#DejaVuSans-54"/>
     <use x="63.623047" xlink:href="#DejaVuSans-32"/>
     <use x="95.410156" xlink:href="#DejaVuSans-83"/>
     <use x="158.886719" xlink:href="#DejaVuSans-112"/>
     <use x="222.363281" xlink:href="#DejaVuSans-104"/>
     <use x="285.742188" xlink:href="#DejaVuSans-101"/>
     <use x="347.265625" xlink:href="#DejaVuSans-114"/>
     <use x="386.128906" xlink:href="#DejaVuSans-101"/>
     <use x="447.652344" xlink:href="#DejaVuSans-47"/>
     <use x="481.34375" xlink:href="#DejaVuSans-68"/>
     <use x="558.345703" xlink:href="#DejaVuSans-105"/>
     <use x="586.128906" xlink:href="#DejaVuSans-102"/>
     <use x="621.333984" xlink:href="#DejaVuSans-102"/>
     <use x="656.539062" xlink:href="#DejaVuSans-101"/>
     <use x="718.0625" xlink:href="#DejaVuSans-114"/>
     <use x="756.925781" xlink:href="#DejaVuSans-101"/>
     <use x="818.449219" xlink:href="#DejaVuSans-110"/>
     <use x="881.828125" xlink:href="#DejaVuSans-116"/>
     <use x="921.037109" xlink:href="#DejaVuSans-32"/>
     <use x="952.824219" xlink:href="#DejaVuSans-80"/>
     <use x="1009.501953" xlink:href="#DejaVuSans-111"/>
     <use x="1070.683594" xlink:href="#DejaVuSans-119"/>
     <use x="1152.470703" xlink:href="#DejaVuSans-101"/>
     <use x="1213.994141" xlink:href="#DejaVuSans-114"/>
     <use x="1255.107422" xlink:href="#DejaVuSans-115"/>
    </g>
   </g>
  </g>
 </g>
 <defs>
  <clipPath id="pb6d8b6e0c8">
   <rect height="271.296" width="281.088" x="57.6" y="27.648"/>
  </clipPath>
 </defs>
</svg>
