<?xml version="1.0" encoding="utf-8" standalone="no"?>
<!DOCTYPE svg PUBLIC "-//W3C//DTD SVG 1.1//EN"
  "http://www.w3.org/Graphics/SVG/1.1/DTD/svg11.dtd">
<!-- Created with matplotlib (https://matplotlib.org/) -->
<svg height="345.6pt" version="1.1" viewBox="0 0 460.8 345.6" width="460.8pt" xmlns="http://www.w3.org/2000/svg" xmlns:xlink="http://www.w3.org/1999/xlink">
 <metadata>
  <rdf:RDF xmlns:cc="http://creativecommons.org/ns#" xmlns:dc="http://purl.org/dc/elements/1.1/" xmlns:rdf="http://www.w3.org/1999/02/22-rdf-syntax-ns#">
   <cc:Work>
    <dc:type rdf:resource="http://purl.org/dc/dcmitype/StillImage"/>
    <dc:date>2021-04-26T15:03:59.743181</dc:date>
    <dc:format>image/svg+xml</dc:format>
    <dc:creator>
     <cc:Agent>
      <dc:title>Matplotlib v3.3.2, https://matplotlib.org/</dc:title>
     </cc:Agent>
    </dc:creator>
   </cc:Work>
  </rdf:RDF>
 </metadata>
 <defs>
  <style type="text/css">*{stroke-linecap:butt;stroke-linejoin:round;}</style>
 </defs>
 <g id="figure_1">
  <g id="patch_1">
   <path d="M 0 345.6 
L 460.8 345.6 
L 460.8 0 
L 0 0 
z
" style="fill:#ffffff;"/>
  </g>
  <g id="axes_1">
   <g id="patch_2">
    <path d="M 57.6 298.944 
L 338.688 298.944 
L 338.688 27.648 
L 57.6 27.648 
z
" style="fill:#ffffff;"/>
   </g>
   <g id="line2d_1">
    <path d="M 29.53256 298.944 
L 29.53256 294.312795 
L 41.620548 294.312795 
L 41.620548 285.050384 
L 63.467834 285.050384 
L 63.467834 275.787974 
L 84.955534 275.787974 
L 84.955534 271.156769 
L 97.043522 271.156769 
L 97.043522 257.263153 
L 104.826449 257.263153 
L 104.826449 248.000743 
L 108.764355 248.000743 
L 108.764355 243.369538 
L 119.502775 243.369538 
L 119.502775 234.107127 
L 128.411207 234.107127 
L 128.411207 220.213512 
L 134.870259 220.213512 
L 134.870259 210.951101 
L 140.619053 210.951101 
L 140.619053 201.688691 
L 147.650212 201.688691 
L 147.650212 192.426281 
L 153.466662 192.426281 
L 153.466662 187.795075 
L 159.817832 187.795075 
L 159.817832 173.90146 
L 165.978297 173.90146 
L 165.978297 169.270255 
L 172.62567 169.270255 
L 172.62567 155.376639 
L 184.33068 155.376639 
L 184.33068 146.114229 
L 189.119681 146.114229 
L 189.119681 141.483024 
L 193.624949 141.483024 
L 193.624949 127.589408 
L 198.742032 127.589408 
L 198.742032 122.958203 
L 204.300189 122.958203 
L 204.300189 109.064587 
L 210.155842 109.064587 
L 210.155842 99.802177 
L 216.286368 99.802177 
L 216.286368 90.539766 
L 222.628933 90.539766 
L 222.628933 85.908561 
L 229.275664 85.908561 
L 229.275664 76.646151 
L 236.041228 76.646151 
L 236.041228 62.752535 
L 338.688 62.752535 
" style="fill:none;stroke:#f5deb3;stroke-linecap:square;stroke-width:4;"/>
   </g>
   <g id="line2d_2">
    <defs>
     <path d="M 0 7.778175 
L 7.778175 0 
L 0 -7.778175 
L -7.778175 0 
z
" id="m843dc54268" style="stroke:#f5deb3;stroke-linejoin:miter;stroke-width:1.5;"/>
    </defs>
    <g>
     <use style="fill:#f5deb3;stroke:#f5deb3;stroke-linejoin:miter;stroke-width:1.5;" x="97.043522" xlink:href="#m843dc54268" y="271.156769"/>
     <use style="fill:#f5deb3;stroke:#f5deb3;stroke-linejoin:miter;stroke-width:1.5;" x="140.619053" xlink:href="#m843dc54268" y="210.951101"/>
     <use style="fill:#f5deb3;stroke:#f5deb3;stroke-linejoin:miter;stroke-width:1.5;" x="198.742032" xlink:href="#m843dc54268" y="122.958203"/>
     <use style="fill:#f5deb3;stroke:#f5deb3;stroke-linejoin:miter;stroke-width:1.5;" x="236.041228" xlink:href="#m843dc54268" y="76.646151"/>
     <use style="fill:#f5deb3;stroke:#f5deb3;stroke-linejoin:miter;stroke-width:1.5;" x="236.041228" xlink:href="#m843dc54268" y="62.752535"/>
     <use style="fill:#f5deb3;stroke:#f5deb3;stroke-linejoin:miter;stroke-width:1.5;" x="338.688" xlink:href="#m843dc54268" y="62.752535"/>
    </g>
   </g>
   <g id="line2d_3">
    <path style="fill:none;stroke:#f5deb3;stroke-linecap:square;stroke-width:4;"/>
    <g/>
   </g>
   <g id="line2d_4">
    <path d="M 338.688 62.752535 
L 369.60768 35.706297 
" style="fill:none;stroke:#f5deb3;stroke-linecap:square;stroke-width:4;"/>
    <g>
     <use style="fill:#f5deb3;stroke:#f5deb3;stroke-linejoin:miter;stroke-width:1.5;" x="338.688" xlink:href="#m843dc54268" y="62.752535"/>
     <use style="fill:#f5deb3;stroke:#f5deb3;stroke-linejoin:miter;stroke-width:1.5;" x="369.60768" xlink:href="#m843dc54268" y="35.706297"/>
    </g>
   </g>
   <g id="matplotlib.axis_1">
    <g id="xtick_1">
     <g id="line2d_5">
      <path clip-path="url(#p187983cd51)" d="M 57.6 298.944 
L 57.6 27.648 
" style="fill:none;stroke:#b0b0b0;stroke-linecap:square;stroke-width:0.8;"/>
     </g>
     <g id="line2d_6">
      <defs>
       <path d="M 0 0 
L 0 3.5 
" id="m544eeb8636" style="stroke:#000000;stroke-width:0.8;"/>
      </defs>
      <g>
       <use style="stroke:#000000;stroke-width:0.8;" x="57.6" xlink:href="#m544eeb8636" y="298.944"/>
      </g>
     </g>
     <g id="text_1">
      <!-- 0 -->
      <g transform="translate(51.2375 321.140875)scale(0.2 -0.2)">
       <defs>
        <path d="M 31.78125 66.40625 
Q 24.171875 66.40625 20.328125 58.90625 
Q 16.5 51.421875 16.5 36.375 
Q 16.5 21.390625 20.328125 13.890625 
Q 24.171875 6.390625 31.78125 6.390625 
Q 39.453125 6.390625 43.28125 13.890625 
Q 47.125 21.390625 47.125 36.375 
Q 47.125 51.421875 43.28125 58.90625 
Q 39.453125 66.40625 31.78125 66.40625 
z
M 31.78125 74.21875 
Q 44.046875 74.21875 50.515625 64.515625 
Q 56.984375 54.828125 56.984375 36.375 
Q 56.984375 17.96875 50.515625 8.265625 
Q 44.046875 -1.421875 31.78125 -1.421875 
Q 19.53125 -1.421875 13.0625 8.265625 
Q 6.59375 17.96875 6.59375 36.375 
Q 6.59375 54.828125 13.0625 64.515625 
Q 19.53125 74.21875 31.78125 74.21875 
z
" id="DejaVuSans-48"/>
       </defs>
       <use xlink:href="#DejaVuSans-48"/>
      </g>
     </g>
    </g>
    <g id="xtick_2">
     <g id="line2d_7">
      <path clip-path="url(#p187983cd51)" d="M 137.910857 298.944 
L 137.910857 27.648 
" style="fill:none;stroke:#b0b0b0;stroke-linecap:square;stroke-width:0.8;"/>
     </g>
     <g id="line2d_8">
      <g>
       <use style="stroke:#000000;stroke-width:0.8;" x="137.910857" xlink:href="#m544eeb8636" y="298.944"/>
      </g>
     </g>
     <g id="text_2">
      <!-- 2 -->
      <g transform="translate(131.548357 321.140875)scale(0.2 -0.2)">
       <defs>
        <path d="M 19.1875 8.296875 
L 53.609375 8.296875 
L 53.609375 0 
L 7.328125 0 
L 7.328125 8.296875 
Q 12.9375 14.109375 22.625 23.890625 
Q 32.328125 33.6875 34.8125 36.53125 
Q 39.546875 41.84375 41.421875 45.53125 
Q 43.3125 49.21875 43.3125 52.78125 
Q 43.3125 58.59375 39.234375 62.25 
Q 35.15625 65.921875 28.609375 65.921875 
Q 23.96875 65.921875 18.8125 64.3125 
Q 13.671875 62.703125 7.8125 59.421875 
L 7.8125 69.390625 
Q 13.765625 71.78125 18.9375 73 
Q 24.125 74.21875 28.421875 74.21875 
Q 39.75 74.21875 46.484375 68.546875 
Q 53.21875 62.890625 53.21875 53.421875 
Q 53.21875 48.921875 51.53125 44.890625 
Q 49.859375 40.875 45.40625 35.40625 
Q 44.1875 33.984375 37.640625 27.21875 
Q 31.109375 20.453125 19.1875 8.296875 
z
" id="DejaVuSans-50"/>
       </defs>
       <use xlink:href="#DejaVuSans-50"/>
      </g>
     </g>
    </g>
    <g id="xtick_3">
     <g id="line2d_9">
      <path clip-path="url(#p187983cd51)" d="M 218.221714 298.944 
L 218.221714 27.648 
" style="fill:none;stroke:#b0b0b0;stroke-linecap:square;stroke-width:0.8;"/>
     </g>
     <g id="line2d_10">
      <g>
       <use style="stroke:#000000;stroke-width:0.8;" x="218.221714" xlink:href="#m544eeb8636" y="298.944"/>
      </g>
     </g>
     <g id="text_3">
      <!-- 4 -->
      <g transform="translate(211.859214 321.140875)scale(0.2 -0.2)">
       <defs>
        <path d="M 37.796875 64.3125 
L 12.890625 25.390625 
L 37.796875 25.390625 
z
M 35.203125 72.90625 
L 47.609375 72.90625 
L 47.609375 25.390625 
L 58.015625 25.390625 
L 58.015625 17.1875 
L 47.609375 17.1875 
L 47.609375 0 
L 37.796875 0 
L 37.796875 17.1875 
L 4.890625 17.1875 
L 4.890625 26.703125 
z
" id="DejaVuSans-52"/>
       </defs>
       <use xlink:href="#DejaVuSans-52"/>
      </g>
     </g>
    </g>
    <g id="xtick_4">
     <g id="line2d_11">
      <path clip-path="url(#p187983cd51)" d="M 298.532571 298.944 
L 298.532571 27.648 
" style="fill:none;stroke:#b0b0b0;stroke-linecap:square;stroke-width:0.8;"/>
     </g>
     <g id="line2d_12">
      <g>
       <use style="stroke:#000000;stroke-width:0.8;" x="298.532571" xlink:href="#m544eeb8636" y="298.944"/>
      </g>
     </g>
     <g id="text_4">
      <!-- 6 -->
      <g transform="translate(292.170071 321.140875)scale(0.2 -0.2)">
       <defs>
        <path d="M 33.015625 40.375 
Q 26.375 40.375 22.484375 35.828125 
Q 18.609375 31.296875 18.609375 23.390625 
Q 18.609375 15.53125 22.484375 10.953125 
Q 26.375 6.390625 33.015625 6.390625 
Q 39.65625 6.390625 43.53125 10.953125 
Q 47.40625 15.53125 47.40625 23.390625 
Q 47.40625 31.296875 43.53125 35.828125 
Q 39.65625 40.375 33.015625 40.375 
z
M 52.59375 71.296875 
L 52.59375 62.3125 
Q 48.875 64.0625 45.09375 64.984375 
Q 41.3125 65.921875 37.59375 65.921875 
Q 27.828125 65.921875 22.671875 59.328125 
Q 17.53125 52.734375 16.796875 39.40625 
Q 19.671875 43.65625 24.015625 45.921875 
Q 28.375 48.1875 33.59375 48.1875 
Q 44.578125 48.1875 50.953125 41.515625 
Q 57.328125 34.859375 57.328125 23.390625 
Q 57.328125 12.15625 50.6875 5.359375 
Q 44.046875 -1.421875 33.015625 -1.421875 
Q 20.359375 -1.421875 13.671875 8.265625 
Q 6.984375 17.96875 6.984375 36.375 
Q 6.984375 53.65625 15.1875 63.9375 
Q 23.390625 74.21875 37.203125 74.21875 
Q 40.921875 74.21875 44.703125 73.484375 
Q 48.484375 72.75 52.59375 71.296875 
z
" id="DejaVuSans-54"/>
       </defs>
       <use xlink:href="#DejaVuSans-54"/>
      </g>
     </g>
    </g>
    <g id="xtick_5">
     <g id="line2d_13">
      <path clip-path="url(#p187983cd51)" d="M 97.755429 298.944 
L 97.755429 27.648 
" style="fill:none;stroke:#b0b0b0;stroke-linecap:square;stroke-width:0.8;"/>
     </g>
     <g id="line2d_14">
      <defs>
       <path d="M 0 0 
L 0 2 
" id="m3c22364acd" style="stroke:#000000;stroke-width:0.6;"/>
      </defs>
      <g>
       <use style="stroke:#000000;stroke-width:0.6;" x="97.755429" xlink:href="#m3c22364acd" y="298.944"/>
      </g>
     </g>
    </g>
    <g id="xtick_6">
     <g id="line2d_15">
      <path clip-path="url(#p187983cd51)" d="M 178.066286 298.944 
L 178.066286 27.648 
" style="fill:none;stroke:#b0b0b0;stroke-linecap:square;stroke-width:0.8;"/>
     </g>
     <g id="line2d_16">
      <g>
       <use style="stroke:#000000;stroke-width:0.6;" x="178.066286" xlink:href="#m3c22364acd" y="298.944"/>
      </g>
     </g>
    </g>
    <g id="xtick_7">
     <g id="line2d_17">
      <path clip-path="url(#p187983cd51)" d="M 258.377143 298.944 
L 258.377143 27.648 
" style="fill:none;stroke:#b0b0b0;stroke-linecap:square;stroke-width:0.8;"/>
     </g>
     <g id="line2d_18">
      <g>
       <use style="stroke:#000000;stroke-width:0.6;" x="258.377143" xlink:href="#m3c22364acd" y="298.944"/>
      </g>
     </g>
    </g>
    <g id="xtick_8">
     <g id="line2d_19">
      <path clip-path="url(#p187983cd51)" d="M 338.688 298.944 
L 338.688 27.648 
" style="fill:none;stroke:#b0b0b0;stroke-linecap:square;stroke-width:0.8;"/>
     </g>
     <g id="line2d_20">
      <g>
       <use style="stroke:#000000;stroke-width:0.6;" x="338.688" xlink:href="#m3c22364acd" y="298.944"/>
      </g>
     </g>
    </g>
    <g id="text_5">
     <!-- log10(# f-evals / dimension) -->
     <g transform="translate(77.764078 342.217594)scale(0.17 -0.17)">
      <defs>
       <path d="M 9.421875 75.984375 
L 18.40625 75.984375 
L 18.40625 0 
L 9.421875 0 
z
" id="DejaVuSans-108"/>
       <path d="M 30.609375 48.390625 
Q 23.390625 48.390625 19.1875 42.75 
Q 14.984375 37.109375 14.984375 27.296875 
Q 14.984375 17.484375 19.15625 11.84375 
Q 23.34375 6.203125 30.609375 6.203125 
Q 37.796875 6.203125 41.984375 11.859375 
Q 46.1875 17.53125 46.1875 27.296875 
Q 46.1875 37.015625 41.984375 42.703125 
Q 37.796875 48.390625 30.609375 48.390625 
z
M 30.609375 56 
Q 42.328125 56 49.015625 48.375 
Q 55.71875 40.765625 55.71875 27.296875 
Q 55.71875 13.875 49.015625 6.21875 
Q 42.328125 -1.421875 30.609375 -1.421875 
Q 18.84375 -1.421875 12.171875 6.21875 
Q 5.515625 13.875 5.515625 27.296875 
Q 5.515625 40.765625 12.171875 48.375 
Q 18.84375 56 30.609375 56 
z
" id="DejaVuSans-111"/>
       <path d="M 45.40625 27.984375 
Q 45.40625 37.75 41.375 43.109375 
Q 37.359375 48.484375 30.078125 48.484375 
Q 22.859375 48.484375 18.828125 43.109375 
Q 14.796875 37.75 14.796875 27.984375 
Q 14.796875 18.265625 18.828125 12.890625 
Q 22.859375 7.515625 30.078125 7.515625 
Q 37.359375 7.515625 41.375 12.890625 
Q 45.40625 18.265625 45.40625 27.984375 
z
M 54.390625 6.78125 
Q 54.390625 -7.171875 48.1875 -13.984375 
Q 42 -20.796875 29.203125 -20.796875 
Q 24.46875 -20.796875 20.265625 -20.09375 
Q 16.0625 -19.390625 12.109375 -17.921875 
L 12.109375 -9.1875 
Q 16.0625 -11.328125 19.921875 -12.34375 
Q 23.78125 -13.375 27.78125 -13.375 
Q 36.625 -13.375 41.015625 -8.765625 
Q 45.40625 -4.15625 45.40625 5.171875 
L 45.40625 9.625 
Q 42.625 4.78125 38.28125 2.390625 
Q 33.9375 0 27.875 0 
Q 17.828125 0 11.671875 7.65625 
Q 5.515625 15.328125 5.515625 27.984375 
Q 5.515625 40.671875 11.671875 48.328125 
Q 17.828125 56 27.875 56 
Q 33.9375 56 38.28125 53.609375 
Q 42.625 51.21875 45.40625 46.390625 
L 45.40625 54.6875 
L 54.390625 54.6875 
z
" id="DejaVuSans-103"/>
       <path d="M 12.40625 8.296875 
L 28.515625 8.296875 
L 28.515625 63.921875 
L 10.984375 60.40625 
L 10.984375 69.390625 
L 28.421875 72.90625 
L 38.28125 72.90625 
L 38.28125 8.296875 
L 54.390625 8.296875 
L 54.390625 0 
L 12.40625 0 
z
" id="DejaVuSans-49"/>
       <path d="M 31 75.875 
Q 24.46875 64.65625 21.28125 53.65625 
Q 18.109375 42.671875 18.109375 31.390625 
Q 18.109375 20.125 21.3125 9.0625 
Q 24.515625 -2 31 -13.1875 
L 23.1875 -13.1875 
Q 15.875 -1.703125 12.234375 9.375 
Q 8.59375 20.453125 8.59375 31.390625 
Q 8.59375 42.28125 12.203125 53.3125 
Q 15.828125 64.359375 23.1875 75.875 
z
" id="DejaVuSans-40"/>
       <path d="M 51.125 44 
L 36.921875 44 
L 32.8125 27.6875 
L 47.125 27.6875 
z
M 43.796875 71.78125 
L 38.71875 51.515625 
L 52.984375 51.515625 
L 58.109375 71.78125 
L 65.921875 71.78125 
L 60.890625 51.515625 
L 76.125 51.515625 
L 76.125 44 
L 58.984375 44 
L 54.984375 27.6875 
L 70.515625 27.6875 
L 70.515625 20.21875 
L 53.078125 20.21875 
L 48 0 
L 40.1875 0 
L 45.21875 20.21875 
L 30.90625 20.21875 
L 25.875 0 
L 18.015625 0 
L 23.09375 20.21875 
L 7.71875 20.21875 
L 7.71875 27.6875 
L 24.90625 27.6875 
L 29 44 
L 13.28125 44 
L 13.28125 51.515625 
L 30.90625 51.515625 
L 35.890625 71.78125 
z
" id="DejaVuSans-35"/>
       <path id="DejaVuSans-32"/>
       <path d="M 37.109375 75.984375 
L 37.109375 68.5 
L 28.515625 68.5 
Q 23.6875 68.5 21.796875 66.546875 
Q 19.921875 64.59375 19.921875 59.515625 
L 19.921875 54.6875 
L 34.71875 54.6875 
L 34.71875 47.703125 
L 19.921875 47.703125 
L 19.921875 0 
L 10.890625 0 
L 10.890625 47.703125 
L 2.296875 47.703125 
L 2.296875 54.6875 
L 10.890625 54.6875 
L 10.890625 58.5 
Q 10.890625 67.625 15.140625 71.796875 
Q 19.390625 75.984375 28.609375 75.984375 
z
" id="DejaVuSans-102"/>
       <path d="M 4.890625 31.390625 
L 31.203125 31.390625 
L 31.203125 23.390625 
L 4.890625 23.390625 
z
" id="DejaVuSans-45"/>
       <path d="M 56.203125 29.59375 
L 56.203125 25.203125 
L 14.890625 25.203125 
Q 15.484375 15.921875 20.484375 11.0625 
Q 25.484375 6.203125 34.421875 6.203125 
Q 39.59375 6.203125 44.453125 7.46875 
Q 49.3125 8.734375 54.109375 11.28125 
L 54.109375 2.78125 
Q 49.265625 0.734375 44.1875 -0.34375 
Q 39.109375 -1.421875 33.890625 -1.421875 
Q 20.796875 -1.421875 13.15625 6.1875 
Q 5.515625 13.8125 5.515625 26.8125 
Q 5.515625 40.234375 12.765625 48.109375 
Q 20.015625 56 32.328125 56 
Q 43.359375 56 49.78125 48.890625 
Q 56.203125 41.796875 56.203125 29.59375 
z
M 47.21875 32.234375 
Q 47.125 39.59375 43.09375 43.984375 
Q 39.0625 48.390625 32.421875 48.390625 
Q 24.90625 48.390625 20.390625 44.140625 
Q 15.875 39.890625 15.1875 32.171875 
z
" id="DejaVuSans-101"/>
       <path d="M 2.984375 54.6875 
L 12.5 54.6875 
L 29.59375 8.796875 
L 46.6875 54.6875 
L 56.203125 54.6875 
L 35.6875 0 
L 23.484375 0 
z
" id="DejaVuSans-118"/>
       <path d="M 34.28125 27.484375 
Q 23.390625 27.484375 19.1875 25 
Q 14.984375 22.515625 14.984375 16.5 
Q 14.984375 11.71875 18.140625 8.90625 
Q 21.296875 6.109375 26.703125 6.109375 
Q 34.1875 6.109375 38.703125 11.40625 
Q 43.21875 16.703125 43.21875 25.484375 
L 43.21875 27.484375 
z
M 52.203125 31.203125 
L 52.203125 0 
L 43.21875 0 
L 43.21875 8.296875 
Q 40.140625 3.328125 35.546875 0.953125 
Q 30.953125 -1.421875 24.3125 -1.421875 
Q 15.921875 -1.421875 10.953125 3.296875 
Q 6 8.015625 6 15.921875 
Q 6 25.140625 12.171875 29.828125 
Q 18.359375 34.515625 30.609375 34.515625 
L 43.21875 34.515625 
L 43.21875 35.40625 
Q 43.21875 41.609375 39.140625 45 
Q 35.0625 48.390625 27.6875 48.390625 
Q 23 48.390625 18.546875 47.265625 
Q 14.109375 46.140625 10.015625 43.890625 
L 10.015625 52.203125 
Q 14.9375 54.109375 19.578125 55.046875 
Q 24.21875 56 28.609375 56 
Q 40.484375 56 46.34375 49.84375 
Q 52.203125 43.703125 52.203125 31.203125 
z
" id="DejaVuSans-97"/>
       <path d="M 44.28125 53.078125 
L 44.28125 44.578125 
Q 40.484375 46.53125 36.375 47.5 
Q 32.28125 48.484375 27.875 48.484375 
Q 21.1875 48.484375 17.84375 46.4375 
Q 14.5 44.390625 14.5 40.28125 
Q 14.5 37.15625 16.890625 35.375 
Q 19.28125 33.59375 26.515625 31.984375 
L 29.59375 31.296875 
Q 39.15625 29.25 43.1875 25.515625 
Q 47.21875 21.78125 47.21875 15.09375 
Q 47.21875 7.46875 41.1875 3.015625 
Q 35.15625 -1.421875 24.609375 -1.421875 
Q 20.21875 -1.421875 15.453125 -0.5625 
Q 10.6875 0.296875 5.421875 2 
L 5.421875 11.28125 
Q 10.40625 8.6875 15.234375 7.390625 
Q 20.0625 6.109375 24.8125 6.109375 
Q 31.15625 6.109375 34.5625 8.28125 
Q 37.984375 10.453125 37.984375 14.40625 
Q 37.984375 18.0625 35.515625 20.015625 
Q 33.0625 21.96875 24.703125 23.78125 
L 21.578125 24.515625 
Q 13.234375 26.265625 9.515625 29.90625 
Q 5.8125 33.546875 5.8125 39.890625 
Q 5.8125 47.609375 11.28125 51.796875 
Q 16.75 56 26.8125 56 
Q 31.78125 56 36.171875 55.265625 
Q 40.578125 54.546875 44.28125 53.078125 
z
" id="DejaVuSans-115"/>
       <path d="M 25.390625 72.90625 
L 33.6875 72.90625 
L 8.296875 -9.28125 
L 0 -9.28125 
z
" id="DejaVuSans-47"/>
       <path d="M 45.40625 46.390625 
L 45.40625 75.984375 
L 54.390625 75.984375 
L 54.390625 0 
L 45.40625 0 
L 45.40625 8.203125 
Q 42.578125 3.328125 38.25 0.953125 
Q 33.9375 -1.421875 27.875 -1.421875 
Q 17.96875 -1.421875 11.734375 6.484375 
Q 5.515625 14.40625 5.515625 27.296875 
Q 5.515625 40.1875 11.734375 48.09375 
Q 17.96875 56 27.875 56 
Q 33.9375 56 38.25 53.625 
Q 42.578125 51.265625 45.40625 46.390625 
z
M 14.796875 27.296875 
Q 14.796875 17.390625 18.875 11.75 
Q 22.953125 6.109375 30.078125 6.109375 
Q 37.203125 6.109375 41.296875 11.75 
Q 45.40625 17.390625 45.40625 27.296875 
Q 45.40625 37.203125 41.296875 42.84375 
Q 37.203125 48.484375 30.078125 48.484375 
Q 22.953125 48.484375 18.875 42.84375 
Q 14.796875 37.203125 14.796875 27.296875 
z
" id="DejaVuSans-100"/>
       <path d="M 9.421875 54.6875 
L 18.40625 54.6875 
L 18.40625 0 
L 9.421875 0 
z
M 9.421875 75.984375 
L 18.40625 75.984375 
L 18.40625 64.59375 
L 9.421875 64.59375 
z
" id="DejaVuSans-105"/>
       <path d="M 52 44.1875 
Q 55.375 50.25 60.0625 53.125 
Q 64.75 56 71.09375 56 
Q 79.640625 56 84.28125 50.015625 
Q 88.921875 44.046875 88.921875 33.015625 
L 88.921875 0 
L 79.890625 0 
L 79.890625 32.71875 
Q 79.890625 40.578125 77.09375 44.375 
Q 74.3125 48.1875 68.609375 48.1875 
Q 61.625 48.1875 57.5625 43.546875 
Q 53.515625 38.921875 53.515625 30.90625 
L 53.515625 0 
L 44.484375 0 
L 44.484375 32.71875 
Q 44.484375 40.625 41.703125 44.40625 
Q 38.921875 48.1875 33.109375 48.1875 
Q 26.21875 48.1875 22.15625 43.53125 
Q 18.109375 38.875 18.109375 30.90625 
L 18.109375 0 
L 9.078125 0 
L 9.078125 54.6875 
L 18.109375 54.6875 
L 18.109375 46.1875 
Q 21.1875 51.21875 25.484375 53.609375 
Q 29.78125 56 35.6875 56 
Q 41.65625 56 45.828125 52.96875 
Q 50 49.953125 52 44.1875 
z
" id="DejaVuSans-109"/>
       <path d="M 54.890625 33.015625 
L 54.890625 0 
L 45.90625 0 
L 45.90625 32.71875 
Q 45.90625 40.484375 42.875 44.328125 
Q 39.84375 48.1875 33.796875 48.1875 
Q 26.515625 48.1875 22.3125 43.546875 
Q 18.109375 38.921875 18.109375 30.90625 
L 18.109375 0 
L 9.078125 0 
L 9.078125 54.6875 
L 18.109375 54.6875 
L 18.109375 46.1875 
Q 21.34375 51.125 25.703125 53.5625 
Q 30.078125 56 35.796875 56 
Q 45.21875 56 50.046875 50.171875 
Q 54.890625 44.34375 54.890625 33.015625 
z
" id="DejaVuSans-110"/>
       <path d="M 8.015625 75.875 
L 15.828125 75.875 
Q 23.140625 64.359375 26.78125 53.3125 
Q 30.421875 42.28125 30.421875 31.390625 
Q 30.421875 20.453125 26.78125 9.375 
Q 23.140625 -1.703125 15.828125 -13.1875 
L 8.015625 -13.1875 
Q 14.5 -2 17.703125 9.0625 
Q 20.90625 20.125 20.90625 31.390625 
Q 20.90625 42.671875 17.703125 53.65625 
Q 14.5 64.65625 8.015625 75.875 
z
" id="DejaVuSans-41"/>
      </defs>
      <use xlink:href="#DejaVuSans-108"/>
      <use x="27.783203" xlink:href="#DejaVuSans-111"/>
      <use x="88.964844" xlink:href="#DejaVuSans-103"/>
      <use x="152.441406" xlink:href="#DejaVuSans-49"/>
      <use x="216.064453" xlink:href="#DejaVuSans-48"/>
      <use x="279.6875" xlink:href="#DejaVuSans-40"/>
      <use x="318.701172" xlink:href="#DejaVuSans-35"/>
      <use x="402.490234" xlink:href="#DejaVuSans-32"/>
      <use x="434.277344" xlink:href="#DejaVuSans-102"/>
      <use x="463.982422" xlink:href="#DejaVuSans-45"/>
      <use x="500.066406" xlink:href="#DejaVuSans-101"/>
      <use x="561.589844" xlink:href="#DejaVuSans-118"/>
      <use x="620.769531" xlink:href="#DejaVuSans-97"/>
      <use x="682.048828" xlink:href="#DejaVuSans-108"/>
      <use x="709.832031" xlink:href="#DejaVuSans-115"/>
      <use x="761.931641" xlink:href="#DejaVuSans-32"/>
      <use x="793.71875" xlink:href="#DejaVuSans-47"/>
      <use x="827.410156" xlink:href="#DejaVuSans-32"/>
      <use x="859.197266" xlink:href="#DejaVuSans-100"/>
      <use x="922.673828" xlink:href="#DejaVuSans-105"/>
      <use x="950.457031" xlink:href="#DejaVuSans-109"/>
      <use x="1047.869141" xlink:href="#DejaVuSans-101"/>
      <use x="1109.392578" xlink:href="#DejaVuSans-110"/>
      <use x="1172.771484" xlink:href="#DejaVuSans-115"/>
      <use x="1224.871094" xlink:href="#DejaVuSans-105"/>
      <use x="1252.654297" xlink:href="#DejaVuSans-111"/>
      <use x="1313.835938" xlink:href="#DejaVuSans-110"/>
      <use x="1377.214844" xlink:href="#DejaVuSans-41"/>
     </g>
    </g>
   </g>
   <g id="matplotlib.axis_2">
    <g id="ytick_1">
     <g id="line2d_21">
      <path clip-path="url(#p187983cd51)" d="M 57.6 298.944 
L 338.688 298.944 
" style="fill:none;stroke:#b0b0b0;stroke-linecap:square;stroke-width:0.8;"/>
     </g>
     <g id="line2d_22">
      <defs>
       <path d="M 0 0 
L -3.5 0 
" id="md15b4dc516" style="stroke:#000000;stroke-width:0.8;"/>
      </defs>
      <g>
       <use style="stroke:#000000;stroke-width:0.8;" x="57.6" xlink:href="#md15b4dc516" y="298.944"/>
      </g>
     </g>
     <g id="text_6">
      <!-- 0.0 -->
      <g transform="translate(25.155 305.02275)scale(0.16 -0.16)">
       <defs>
        <path d="M 10.6875 12.40625 
L 21 12.40625 
L 21 0 
L 10.6875 0 
z
" id="DejaVuSans-46"/>
       </defs>
       <use xlink:href="#DejaVuSans-48"/>
       <use x="63.623047" xlink:href="#DejaVuSans-46"/>
       <use x="95.410156" xlink:href="#DejaVuSans-48"/>
      </g>
     </g>
    </g>
    <g id="ytick_2">
     <g id="line2d_23">
      <path clip-path="url(#p187983cd51)" d="M 57.6 245.22202 
L 338.688 245.22202 
" style="fill:none;stroke:#b0b0b0;stroke-linecap:square;stroke-width:0.8;"/>
     </g>
     <g id="line2d_24">
      <g>
       <use style="stroke:#000000;stroke-width:0.8;" x="57.6" xlink:href="#md15b4dc516" y="245.22202"/>
      </g>
     </g>
     <g id="text_7">
      <!-- 0.2 -->
      <g transform="translate(25.155 251.30077)scale(0.16 -0.16)">
       <use xlink:href="#DejaVuSans-48"/>
       <use x="63.623047" xlink:href="#DejaVuSans-46"/>
       <use x="95.410156" xlink:href="#DejaVuSans-50"/>
      </g>
     </g>
    </g>
    <g id="ytick_3">
     <g id="line2d_25">
      <path clip-path="url(#p187983cd51)" d="M 57.6 191.50004 
L 338.688 191.50004 
" style="fill:none;stroke:#b0b0b0;stroke-linecap:square;stroke-width:0.8;"/>
     </g>
     <g id="line2d_26">
      <g>
       <use style="stroke:#000000;stroke-width:0.8;" x="57.6" xlink:href="#md15b4dc516" y="191.50004"/>
      </g>
     </g>
     <g id="text_8">
      <!-- 0.4 -->
      <g transform="translate(25.155 197.57879)scale(0.16 -0.16)">
       <use xlink:href="#DejaVuSans-48"/>
       <use x="63.623047" xlink:href="#DejaVuSans-46"/>
       <use x="95.410156" xlink:href="#DejaVuSans-52"/>
      </g>
     </g>
    </g>
    <g id="ytick_4">
     <g id="line2d_27">
      <path clip-path="url(#p187983cd51)" d="M 57.6 137.778059 
L 338.688 137.778059 
" style="fill:none;stroke:#b0b0b0;stroke-linecap:square;stroke-width:0.8;"/>
     </g>
     <g id="line2d_28">
      <g>
       <use style="stroke:#000000;stroke-width:0.8;" x="57.6" xlink:href="#md15b4dc516" y="137.778059"/>
      </g>
     </g>
     <g id="text_9">
      <!-- 0.6 -->
      <g transform="translate(25.155 143.856809)scale(0.16 -0.16)">
       <use xlink:href="#DejaVuSans-48"/>
       <use x="63.623047" xlink:href="#DejaVuSans-46"/>
       <use x="95.410156" xlink:href="#DejaVuSans-54"/>
      </g>
     </g>
    </g>
    <g id="ytick_5">
     <g id="line2d_29">
      <path clip-path="url(#p187983cd51)" d="M 57.6 84.056079 
L 338.688 84.056079 
" style="fill:none;stroke:#b0b0b0;stroke-linecap:square;stroke-width:0.8;"/>
     </g>
     <g id="line2d_30">
      <g>
       <use style="stroke:#000000;stroke-width:0.8;" x="57.6" xlink:href="#md15b4dc516" y="84.056079"/>
      </g>
     </g>
     <g id="text_10">
      <!-- 0.8 -->
      <g transform="translate(25.155 90.134829)scale(0.16 -0.16)">
       <defs>
        <path d="M 31.78125 34.625 
Q 24.75 34.625 20.71875 30.859375 
Q 16.703125 27.09375 16.703125 20.515625 
Q 16.703125 13.921875 20.71875 10.15625 
Q 24.75 6.390625 31.78125 6.390625 
Q 38.8125 6.390625 42.859375 10.171875 
Q 46.921875 13.96875 46.921875 20.515625 
Q 46.921875 27.09375 42.890625 30.859375 
Q 38.875 34.625 31.78125 34.625 
z
M 21.921875 38.8125 
Q 15.578125 40.375 12.03125 44.71875 
Q 8.5 49.078125 8.5 55.328125 
Q 8.5 64.0625 14.71875 69.140625 
Q 20.953125 74.21875 31.78125 74.21875 
Q 42.671875 74.21875 48.875 69.140625 
Q 55.078125 64.0625 55.078125 55.328125 
Q 55.078125 49.078125 51.53125 44.71875 
Q 48 40.375 41.703125 38.8125 
Q 48.828125 37.15625 52.796875 32.3125 
Q 56.78125 27.484375 56.78125 20.515625 
Q 56.78125 9.90625 50.3125 4.234375 
Q 43.84375 -1.421875 31.78125 -1.421875 
Q 19.734375 -1.421875 13.25 4.234375 
Q 6.78125 9.90625 6.78125 20.515625 
Q 6.78125 27.484375 10.78125 32.3125 
Q 14.796875 37.15625 21.921875 38.8125 
z
M 18.3125 54.390625 
Q 18.3125 48.734375 21.84375 45.5625 
Q 25.390625 42.390625 31.78125 42.390625 
Q 38.140625 42.390625 41.71875 45.5625 
Q 45.3125 48.734375 45.3125 54.390625 
Q 45.3125 60.0625 41.71875 63.234375 
Q 38.140625 66.40625 31.78125 66.40625 
Q 25.390625 66.40625 21.84375 63.234375 
Q 18.3125 60.0625 18.3125 54.390625 
z
" id="DejaVuSans-56"/>
       </defs>
       <use xlink:href="#DejaVuSans-48"/>
       <use x="63.623047" xlink:href="#DejaVuSans-46"/>
       <use x="95.410156" xlink:href="#DejaVuSans-56"/>
      </g>
     </g>
    </g>
    <g id="ytick_6">
     <g id="line2d_31">
      <path clip-path="url(#p187983cd51)" d="M 57.6 30.334099 
L 338.688 30.334099 
" style="fill:none;stroke:#b0b0b0;stroke-linecap:square;stroke-width:0.8;"/>
     </g>
     <g id="line2d_32">
      <g>
       <use style="stroke:#000000;stroke-width:0.8;" x="57.6" xlink:href="#md15b4dc516" y="30.334099"/>
      </g>
     </g>
     <g id="text_11">
      <!-- 1.0 -->
      <g transform="translate(25.155 36.412849)scale(0.16 -0.16)">
       <use xlink:href="#DejaVuSans-49"/>
       <use x="63.623047" xlink:href="#DejaVuSans-46"/>
       <use x="95.410156" xlink:href="#DejaVuSans-48"/>
      </g>
     </g>
    </g>
    <g id="text_12">
     <!-- Fraction of function,target pairs -->
     <g transform="translate(17.619531 297.681)rotate(-90)scale(0.17 -0.17)">
      <defs>
       <path d="M 9.8125 72.90625 
L 51.703125 72.90625 
L 51.703125 64.59375 
L 19.671875 64.59375 
L 19.671875 43.109375 
L 48.578125 43.109375 
L 48.578125 34.8125 
L 19.671875 34.8125 
L 19.671875 0 
L 9.8125 0 
z
" id="DejaVuSans-70"/>
       <path d="M 41.109375 46.296875 
Q 39.59375 47.171875 37.8125 47.578125 
Q 36.03125 48 33.890625 48 
Q 26.265625 48 22.1875 43.046875 
Q 18.109375 38.09375 18.109375 28.8125 
L 18.109375 0 
L 9.078125 0 
L 9.078125 54.6875 
L 18.109375 54.6875 
L 18.109375 46.1875 
Q 20.953125 51.171875 25.484375 53.578125 
Q 30.03125 56 36.53125 56 
Q 37.453125 56 38.578125 55.875 
Q 39.703125 55.765625 41.0625 55.515625 
z
" id="DejaVuSans-114"/>
       <path d="M 48.78125 52.59375 
L 48.78125 44.1875 
Q 44.96875 46.296875 41.140625 47.34375 
Q 37.3125 48.390625 33.40625 48.390625 
Q 24.65625 48.390625 19.8125 42.84375 
Q 14.984375 37.3125 14.984375 27.296875 
Q 14.984375 17.28125 19.8125 11.734375 
Q 24.65625 6.203125 33.40625 6.203125 
Q 37.3125 6.203125 41.140625 7.25 
Q 44.96875 8.296875 48.78125 10.40625 
L 48.78125 2.09375 
Q 45.015625 0.34375 40.984375 -0.53125 
Q 36.96875 -1.421875 32.421875 -1.421875 
Q 20.0625 -1.421875 12.78125 6.34375 
Q 5.515625 14.109375 5.515625 27.296875 
Q 5.515625 40.671875 12.859375 48.328125 
Q 20.21875 56 33.015625 56 
Q 37.15625 56 41.109375 55.140625 
Q 45.0625 54.296875 48.78125 52.59375 
z
" id="DejaVuSans-99"/>
       <path d="M 18.3125 70.21875 
L 18.3125 54.6875 
L 36.8125 54.6875 
L 36.8125 47.703125 
L 18.3125 47.703125 
L 18.3125 18.015625 
Q 18.3125 11.328125 20.140625 9.421875 
Q 21.96875 7.515625 27.59375 7.515625 
L 36.8125 7.515625 
L 36.8125 0 
L 27.59375 0 
Q 17.1875 0 13.234375 3.875 
Q 9.28125 7.765625 9.28125 18.015625 
L 9.28125 47.703125 
L 2.6875 47.703125 
L 2.6875 54.6875 
L 9.28125 54.6875 
L 9.28125 70.21875 
z
" id="DejaVuSans-116"/>
       <path d="M 8.5 21.578125 
L 8.5 54.6875 
L 17.484375 54.6875 
L 17.484375 21.921875 
Q 17.484375 14.15625 20.5 10.265625 
Q 23.53125 6.390625 29.59375 6.390625 
Q 36.859375 6.390625 41.078125 11.03125 
Q 45.3125 15.671875 45.3125 23.6875 
L 45.3125 54.6875 
L 54.296875 54.6875 
L 54.296875 0 
L 45.3125 0 
L 45.3125 8.40625 
Q 42.046875 3.421875 37.71875 1 
Q 33.40625 -1.421875 27.6875 -1.421875 
Q 18.265625 -1.421875 13.375 4.4375 
Q 8.5 10.296875 8.5 21.578125 
z
M 31.109375 56 
z
" id="DejaVuSans-117"/>
       <path d="M 11.71875 12.40625 
L 22.015625 12.40625 
L 22.015625 4 
L 14.015625 -11.625 
L 7.71875 -11.625 
L 11.71875 4 
z
" id="DejaVuSans-44"/>
       <path d="M 18.109375 8.203125 
L 18.109375 -20.796875 
L 9.078125 -20.796875 
L 9.078125 54.6875 
L 18.109375 54.6875 
L 18.109375 46.390625 
Q 20.953125 51.265625 25.265625 53.625 
Q 29.59375 56 35.59375 56 
Q 45.5625 56 51.78125 48.09375 
Q 58.015625 40.1875 58.015625 27.296875 
Q 58.015625 14.40625 51.78125 6.484375 
Q 45.5625 -1.421875 35.59375 -1.421875 
Q 29.59375 -1.421875 25.265625 0.953125 
Q 20.953125 3.328125 18.109375 8.203125 
z
M 48.6875 27.296875 
Q 48.6875 37.203125 44.609375 42.84375 
Q 40.53125 48.484375 33.40625 48.484375 
Q 26.265625 48.484375 22.1875 42.84375 
Q 18.109375 37.203125 18.109375 27.296875 
Q 18.109375 17.390625 22.1875 11.75 
Q 26.265625 6.109375 33.40625 6.109375 
Q 40.53125 6.109375 44.609375 11.75 
Q 48.6875 17.390625 48.6875 27.296875 
z
" id="DejaVuSans-112"/>
      </defs>
      <use xlink:href="#DejaVuSans-70"/>
      <use x="50.269531" xlink:href="#DejaVuSans-114"/>
      <use x="91.382812" xlink:href="#DejaVuSans-97"/>
      <use x="152.662109" xlink:href="#DejaVuSans-99"/>
      <use x="207.642578" xlink:href="#DejaVuSans-116"/>
      <use x="246.851562" xlink:href="#DejaVuSans-105"/>
      <use x="274.634766" xlink:href="#DejaVuSans-111"/>
      <use x="335.816406" xlink:href="#DejaVuSans-110"/>
      <use x="399.195312" xlink:href="#DejaVuSans-32"/>
      <use x="430.982422" xlink:href="#DejaVuSans-111"/>
      <use x="492.164062" xlink:href="#DejaVuSans-102"/>
      <use x="527.369141" xlink:href="#DejaVuSans-32"/>
      <use x="559.15625" xlink:href="#DejaVuSans-102"/>
      <use x="594.361328" xlink:href="#DejaVuSans-117"/>
      <use x="657.740234" xlink:href="#DejaVuSans-110"/>
      <use x="721.119141" xlink:href="#DejaVuSans-99"/>
      <use x="776.099609" xlink:href="#DejaVuSans-116"/>
      <use x="815.308594" xlink:href="#DejaVuSans-105"/>
      <use x="843.091797" xlink:href="#DejaVuSans-111"/>
      <use x="904.273438" xlink:href="#DejaVuSans-110"/>
      <use x="967.652344" xlink:href="#DejaVuSans-44"/>
      <use x="999.439453" xlink:href="#DejaVuSans-116"/>
      <use x="1038.648438" xlink:href="#DejaVuSans-97"/>
      <use x="1099.927734" xlink:href="#DejaVuSans-114"/>
      <use x="1139.291016" xlink:href="#DejaVuSans-103"/>
      <use x="1202.767578" xlink:href="#DejaVuSans-101"/>
      <use x="1264.291016" xlink:href="#DejaVuSans-116"/>
      <use x="1303.5" xlink:href="#DejaVuSans-32"/>
      <use x="1335.287109" xlink:href="#DejaVuSans-112"/>
      <use x="1398.763672" xlink:href="#DejaVuSans-97"/>
      <use x="1460.042969" xlink:href="#DejaVuSans-105"/>
      <use x="1487.826172" xlink:href="#DejaVuSans-114"/>
      <use x="1528.939453" xlink:href="#DejaVuSans-115"/>
     </g>
    </g>
   </g>
   <g id="line2d_33">
    <defs>
     <path d="M 0 1.5 
C 0.397805 1.5 0.77937 1.341951 1.06066 1.06066 
C 1.341951 0.77937 1.5 0.397805 1.5 0 
C 1.5 -0.397805 1.341951 -0.77937 1.06066 -1.06066 
C 0.77937 -1.341951 0.397805 -1.5 0 -1.5 
C -0.397805 -1.5 -0.77937 -1.341951 -1.06066 -1.06066 
C -1.341951 -0.77937 -1.5 -0.397805 -1.5 0 
C -1.5 0.397805 -1.341951 0.77937 -1.06066 1.06066 
C -0.77937 1.341951 -0.397805 1.5 0 1.5 
z
" id="mfe6bc5a077" style="stroke:#f5deb3;"/>
    </defs>
    <g>
     <use style="fill:#f5deb3;stroke:#f5deb3;" x="236.041228" xlink:href="#mfe6bc5a077" y="62.752535"/>
     <use style="fill:#f5deb3;stroke:#f5deb3;" x="236.041228" xlink:href="#mfe6bc5a077" y="62.752535"/>
    </g>
   </g>
   <g id="line2d_34">
    <defs>
     <path d="M 0 1.5 
C 0.397805 1.5 0.77937 1.341951 1.06066 1.06066 
C 1.341951 0.77937 1.5 0.397805 1.5 0 
C 1.5 -0.397805 1.341951 -0.77937 1.06066 -1.06066 
C 0.77937 -1.341951 0.397805 -1.5 0 -1.5 
C -0.397805 -1.5 -0.77937 -1.341951 -1.06066 -1.06066 
C -1.341951 -0.77937 -1.5 -0.397805 -1.5 0 
C -1.5 0.397805 -1.341951 0.77937 -1.06066 1.06066 
C -0.77937 1.341951 -0.397805 1.5 0 1.5 
z
" id="m7163a7fce7" style="stroke:#000080;"/>
    </defs>
    <g>
     <use style="fill:#000080;stroke:#000080;" x="258.217437" xlink:href="#m7163a7fce7" y="110.917069"/>
     <use style="fill:#000080;stroke:#000080;" x="258.217437" xlink:href="#m7163a7fce7" y="110.917069"/>
    </g>
   </g>
   <g id="line2d_35">
    <path d="M 29.53256 298.944 
L 29.53256 283.661023 
L 48.691568 283.661023 
L 48.691568 282.734782 
L 57.6 282.734782 
L 57.6 281.34542 
L 60.779557 281.34542 
L 60.779557 280.8823 
L 67.850577 280.8823 
L 67.850577 280.419179 
L 71.35013 280.419179 
L 71.35013 279.956059 
L 72.867545 279.956059 
L 72.867545 279.029818 
L 80.881459 279.029818 
L 80.881459 278.566697 
L 82.626842 278.566697 
L 82.626842 278.103577 
L 89.418828 278.103577 
L 89.418828 277.640456 
L 89.972502 277.640456 
L 89.972502 277.177336 
L 94.294587 277.177336 
L 94.294587 276.714215 
L 97.403108 276.714215 
L 97.403108 276.251095 
L 97.755429 276.251095 
L 97.755429 275.787974 
L 102.060491 275.787974 
L 102.060491 275.324854 
L 102.330873 275.324854 
L 102.330873 274.861733 
L 104.592361 274.861733 
L 104.592361 274.398612 
L 107.213174 274.398612 
L 107.213174 273.935492 
L 107.614095 273.935492 
L 107.614095 273.009251 
L 109.843417 273.009251 
L 109.843417 272.54613 
L 112.128456 272.54613 
L 112.128456 272.08301 
L 114.947365 272.08301 
L 114.947365 271.619889 
L 115.077025 271.619889 
L 115.077025 271.156769 
L 115.33349 271.156769 
L 115.33349 270.693648 
L 121.667835 270.693648 
L 121.667835 269.767407 
L 121.931406 269.767407 
L 121.931406 269.304287 
L 125.470548 269.304287 
L 125.470548 268.841166 
L 126.70692 268.841166 
L 126.70692 268.378046 
L 128.411207 268.378046 
L 128.411207 266.525564 
L 131.490249 266.525564 
L 131.490249 266.062443 
L 133.533096 266.062443 
L 133.533096 265.599323 
L 135.760625 265.599323 
L 135.760625 265.136202 
L 136.494612 265.136202 
L 136.494612 264.209961 
L 137.307607 264.209961 
L 137.307607 263.746841 
L 138.628343 263.746841 
L 138.628343 263.28372 
L 139.02546 263.28372 
L 139.02546 262.8206 
L 146.302479 262.8206 
L 146.40993 261.431238 
L 147.185137 261.431238 
L 147.185137 260.504997 
L 147.670154 260.504997 
L 147.670154 259.578756 
L 148.025265 259.578756 
L 148.025265 259.115635 
L 148.200145 259.115635 
L 148.200145 258.652515 
L 148.373289 258.652515 
L 148.468742 257.726274 
L 149.377533 257.726274 
L 149.377533 256.800033 
L 150.172372 256.800033 
L 150.172372 255.873792 
L 150.480434 255.873792 
L 150.480434 255.410671 
L 150.632448 255.410671 
L 150.632448 254.947551 
L 150.783149 254.947551 
L 150.783149 254.48443 
L 151.162458 254.48443 
L 151.162458 254.02131 
L 152.885298 254.02131 
L 152.885298 253.558189 
L 153.061751 253.558189 
L 153.061751 253.095069 
L 153.395042 253.095069 
L 153.395042 252.631948 
L 154.180855 252.631948 
L 154.180855 252.168828 
L 154.533999 252.168828 
L 154.533999 251.705707 
L 155.024532 251.705707 
L 155.024532 251.242587 
L 155.603109 251.242587 
L 155.603109 250.779466 
L 156.138594 250.779466 
L 156.138594 250.316346 
L 156.705677 250.316346 
L 156.705677 249.853225 
L 157.84305 249.853225 
L 157.84305 249.390104 
L 158.238915 249.390104 
L 158.28235 248.000743 
L 160.355672 248.000743 
L 160.355672 247.074502 
L 160.727241 247.074502 
L 160.727241 246.611381 
L 160.86807 246.611381 
L 160.86807 246.148261 
L 161.035578 246.148261 
L 161.035578 245.68514 
L 161.474555 245.68514 
L 161.474555 245.22202 
L 161.770068 245.22202 
L 161.770068 244.758899 
L 163.549667 244.758899 
L 163.549667 244.295779 
L 165.346138 244.295779 
L 165.346138 243.832658 
L 167.672117 243.832658 
L 167.672117 242.906417 
L 167.848464 242.906417 
L 167.90477 241.053935 
L 168.01684 241.053935 
L 168.01684 240.127694 
L 168.976711 240.127694 
L 168.976711 239.201453 
L 169.15204 239.201453 
L 169.157854 237.812091 
L 169.463258 237.812091 
L 169.463258 236.88585 
L 169.819463 236.88585 
L 169.819463 236.42273 
L 170.019789 236.42273 
L 170.019789 235.496489 
L 172.171924 235.496489 
L 172.171924 235.033368 
L 172.946705 235.033368 
L 172.946705 234.570248 
L 174.087407 234.570248 
L 174.087407 233.644007 
L 175.472506 233.644007 
L 175.472506 232.717766 
L 177.186447 232.717766 
L 177.186447 231.791525 
L 177.466646 231.791525 
L 177.466646 231.328404 
L 178.73349 231.328404 
L 178.73349 230.402163 
L 179.546749 230.402163 
L 179.546749 229.475922 
L 180.014607 229.475922 
L 180.014607 228.549681 
L 180.503634 228.549681 
L 180.503634 227.62344 
L 180.890556 227.62344 
L 180.890556 227.16032 
L 181.155506 227.16032 
L 181.155506 226.234079 
L 182.242806 226.234079 
L 182.278455 225.307837 
L 182.791332 225.307837 
L 182.791332 224.381596 
L 183.047467 224.381596 
L 183.123319 222.529114 
L 183.420902 222.529114 
L 183.420902 222.065994 
L 184.603722 222.065994 
L 184.711276 220.213512 
L 186.07212 220.213512 
L 186.07212 219.750391 
L 186.26935 219.750391 
L 186.26935 218.82415 
L 186.8859 218.82415 
L 186.8859 217.897909 
L 187.352857 217.897909 
L 187.352857 216.971668 
L 187.717624 216.971668 
L 187.717624 216.045427 
L 188.069022 216.045427 
L 188.069022 215.119186 
L 189.10487 215.119186 
L 189.10487 214.192945 
L 189.369552 214.192945 
L 189.385963 212.340463 
L 189.540189 212.340463 
L 189.540189 211.414222 
L 190.249927 211.414222 
L 190.249927 210.951101 
L 191.191817 210.951101 
L 191.191817 210.02486 
L 191.41225 210.02486 
L 191.41225 209.098619 
L 191.944361 209.098619 
L 192.04323 206.783017 
L 192.102595 206.783017 
L 192.102595 206.319896 
L 192.322662 206.319896 
L 192.322662 205.393655 
L 193.300374 205.393655 
L 193.300374 204.467414 
L 193.660643 204.467414 
L 193.72755 202.614932 
L 193.857779 202.614932 
L 193.857779 202.151812 
L 193.999637 202.151812 
L 194.083366 200.76245 
L 194.311568 200.76245 
L 194.311568 200.299329 
L 194.460699 200.299329 
L 194.460699 199.836209 
L 194.799336 199.836209 
L 194.799336 199.373088 
L 195.059273 199.373088 
L 195.059273 198.909968 
L 195.747152 198.909968 
L 195.781286 197.520606 
L 195.928432 197.520606 
L 195.993434 196.594365 
L 196.076831 196.594365 
L 196.076831 196.131245 
L 196.463664 196.131245 
L 196.548473 195.205004 
L 197.542119 195.205004 
L 197.542119 194.741883 
L 197.786996 194.741883 
L 197.786996 194.278763 
L 197.912629 194.278763 
L 197.912629 193.352522 
L 198.536193 193.352522 
L 198.536193 192.889401 
L 198.981249 192.889401 
L 199.066193 191.96316 
L 199.31651 191.96316 
L 199.32785 191.036919 
L 199.562267 191.036919 
L 199.622156 189.647558 
L 199.938467 189.647558 
L 199.938467 189.184437 
L 200.078216 189.184437 
L 200.157993 188.258196 
L 200.234473 188.258196 
L 200.234473 187.331955 
L 200.545732 187.331955 
L 200.545732 186.405714 
L 200.91375 186.405714 
L 200.978557 185.016352 
L 201.388999 185.016352 
L 201.476684 183.626991 
L 201.51309 183.626991 
L 201.530356 181.774509 
L 201.624564 181.774509 
L 201.624564 180.848268 
L 201.893501 180.848268 
L 201.893501 180.385147 
L 202.273625 180.385147 
L 202.336181 179.458906 
L 202.515649 179.458906 
L 202.580766 178.532665 
L 202.964769 178.532665 
L 202.964769 178.069545 
L 203.122998 178.069545 
L 203.147851 176.680183 
L 203.351138 176.680183 
L 203.4344 175.290821 
L 204.170297 175.290821 
L 204.170297 174.827701 
L 204.37365 174.827701 
L 204.422966 172.975219 
L 204.510466 172.975219 
L 204.554052 172.048978 
L 204.786194 172.048978 
L 204.786194 171.585857 
L 204.930291 171.585857 
L 204.930291 171.122737 
L 205.185522 171.122737 
L 205.185522 170.659616 
L 205.718653 170.659616 
L 205.718653 170.196496 
L 206.562305 170.196496 
L 206.562305 169.733375 
L 206.690474 169.733375 
L 206.690474 169.270255 
L 207.543559 169.270255 
L 207.543559 168.807134 
L 207.842731 168.807134 
L 207.881268 167.880893 
L 208.003893 167.880893 
L 208.003893 167.417773 
L 208.125038 167.417773 
L 208.125038 166.954652 
L 208.337191 166.954652 
L 208.378945 166.028411 
L 208.817418 166.028411 
L 208.840728 164.63905 
L 209.685961 164.63905 
L 209.685961 163.712808 
L 209.816911 163.712808 
L 209.909287 162.323447 
L 209.996146 162.323447 
L 210.097586 159.544724 
L 210.176324 159.544724 
L 210.176324 158.618483 
L 210.543111 158.618483 
L 210.543111 157.692242 
L 210.808692 157.692242 
L 210.808692 157.229121 
L 211.192324 157.229121 
L 211.192324 156.766001 
L 211.731917 156.766001 
L 211.79909 154.450398 
L 211.855958 154.450398 
L 211.870021 153.524157 
L 212.130135 153.524157 
L 212.130135 153.061037 
L 212.447244 153.061037 
L 212.447244 152.597916 
L 212.726217 152.597916 
L 212.726217 151.671675 
L 213.530473 151.671675 
L 213.530473 151.208554 
L 213.65192 151.208554 
L 213.669588 150.282313 
L 213.914196 150.282313 
L 213.974816 148.892952 
L 214.026355 148.892952 
L 214.083934 147.966711 
L 214.394657 147.966711 
L 214.479155 147.04047 
L 215.733649 147.04047 
L 215.78747 146.114229 
L 217.547552 146.114229 
L 217.547552 145.651108 
L 218.418363 145.651108 
L 218.483423 144.724867 
L 218.58927 144.724867 
L 218.58927 144.261747 
L 218.762239 144.261747 
L 218.767986 143.335506 
L 219.055298 143.335506 
L 219.096148 142.409265 
L 220.153496 142.409265 
L 220.25436 141.019903 
L 220.464174 141.019903 
L 220.464174 140.556783 
L 220.609859 140.556783 
L 220.609859 139.630541 
L 221.069699 139.630541 
L 221.156575 137.778059 
L 221.384405 137.778059 
L 221.477257 135.925577 
L 221.781629 135.925577 
L 221.781629 134.999336 
L 221.928321 134.999336 
L 221.928321 134.073095 
L 222.360862 134.073095 
L 222.360862 133.146854 
L 222.943037 133.146854 
L 222.943037 132.220613 
L 223.233799 132.220613 
L 223.233799 131.757493 
L 224.035902 131.757493 
L 224.117926 130.368131 
L 224.665397 130.368131 
L 224.682021 129.44189 
L 224.836895 129.44189 
L 224.836895 128.97877 
L 225.188017 128.97877 
L 225.188017 128.515649 
L 225.487428 128.515649 
L 225.487428 128.052529 
L 226.319648 128.052529 
L 226.319648 127.589408 
L 228.579696 127.589408 
L 228.579696 127.126287 
L 229.45882 127.126287 
L 229.45882 126.663167 
L 229.587984 126.663167 
L 229.587984 126.200046 
L 229.906413 126.200046 
L 229.977657 125.273805 
L 230.090691 125.273805 
L 230.090691 124.810685 
L 230.353768 124.810685 
L 230.353768 124.347564 
L 233.300919 124.347564 
L 233.300919 123.884444 
L 233.525844 123.884444 
L 233.525844 123.421323 
L 233.694126 123.421323 
L 233.694126 122.958203 
L 241.903142 122.958203 
L 242.001093 122.031962 
L 244.676839 122.031962 
L 244.676839 121.568841 
L 245.31198 121.568841 
L 245.324518 120.6426 
L 246.693282 120.6426 
L 246.693282 120.17948 
L 246.963541 120.17948 
L 246.963541 119.253239 
L 248.909755 119.253239 
L 248.909755 118.326998 
L 249.361655 118.326998 
L 249.361655 117.400757 
L 249.666682 117.400757 
L 249.666682 116.474516 
L 250.498913 116.474516 
L 250.498913 116.011395 
L 251.0242 116.011395 
L 251.0242 115.548274 
L 251.207154 115.548274 
L 251.207154 115.085154 
L 252.980594 115.085154 
L 252.980594 114.158913 
L 255.388205 114.158913 
L 255.388205 113.232672 
L 256.367866 113.232672 
L 256.367866 112.769551 
L 257.482882 112.769551 
L 257.482882 111.84331 
L 258.217437 111.84331 
L 258.217437 110.917069 
L 338.688 110.917069 
L 338.688 110.917069 
" style="fill:none;stroke:#000080;stroke-linecap:square;stroke-width:1.5;"/>
   </g>
   <g id="line2d_36">
    <defs>
     <path d="M 0 6 
C 1.591219 6 3.117479 5.367802 4.242641 4.242641 
C 5.367802 3.117479 6 1.591219 6 0 
C 6 -1.591219 5.367802 -3.117479 4.242641 -4.242641 
C 3.117479 -5.367802 1.591219 -6 0 -6 
C -1.591219 -6 -3.117479 -5.367802 -4.242641 -4.242641 
C -5.367802 -3.117479 -6 -1.591219 -6 0 
C -6 1.591219 -5.367802 3.117479 -4.242641 4.242641 
C -3.117479 5.367802 -1.591219 6 0 6 
z
" id="m5013d5cef3" style="stroke:#000080;stroke-width:1.5;"/>
    </defs>
    <g>
     <use style="fill-opacity:0;stroke:#000080;stroke-width:1.5;" x="115.33349" xlink:href="#m5013d5cef3" y="271.156769"/>
     <use style="fill-opacity:0;stroke:#000080;stroke-width:1.5;" x="192.04323" xlink:href="#m5013d5cef3" y="207.709258"/>
     <use style="fill-opacity:0;stroke:#000080;stroke-width:1.5;" x="220.464174" xlink:href="#m5013d5cef3" y="140.556783"/>
     <use style="fill-opacity:0;stroke:#000080;stroke-width:1.5;" x="258.217437" xlink:href="#m5013d5cef3" y="110.917069"/>
     <use style="fill-opacity:0;stroke:#000080;stroke-width:1.5;" x="258.217437" xlink:href="#m5013d5cef3" y="110.917069"/>
     <use style="fill-opacity:0;stroke:#000080;stroke-width:1.5;" x="338.688" xlink:href="#m5013d5cef3" y="110.917069"/>
    </g>
   </g>
   <g id="line2d_37">
    <path style="fill:none;stroke:#000080;stroke-linecap:square;stroke-width:1.5;"/>
    <g/>
   </g>
   <g id="line2d_38">
    <path clip-path="url(#p187983cd51)" d="M 258.377317 110.917069 
" style="fill:none;stroke:#000080;stroke-linecap:square;stroke-width:1.5;"/>
    <defs>
     <path d="M -12 12 
L 12 -12 
M -12 -12 
L 12 12 
" id="mb2086f3f74" style="stroke:#000080;"/>
    </defs>
    <g clip-path="url(#p187983cd51)">
     <use style="fill:#000080;stroke:#000080;" x="258.377317" xlink:href="#mb2086f3f74" y="110.917069"/>
    </g>
   </g>
   <g id="line2d_39">
    <defs>
     <path d="M 0 1.5 
C 0.397805 1.5 0.77937 1.341951 1.06066 1.06066 
C 1.341951 0.77937 1.5 0.397805 1.5 0 
C 1.5 -0.397805 1.341951 -0.77937 1.06066 -1.06066 
C 0.77937 -1.341951 0.397805 -1.5 0 -1.5 
C -0.397805 -1.5 -0.77937 -1.341951 -1.06066 -1.06066 
C -1.341951 -0.77937 -1.5 -0.397805 -1.5 0 
C -1.5 0.397805 -1.341951 0.77937 -1.06066 1.06066 
C -0.77937 1.341951 -0.397805 1.5 0 1.5 
z
" id="m9c641660d0" style="stroke:#ff00ff;"/>
    </defs>
    <g>
     <use style="fill:#ff00ff;stroke:#ff00ff;" x="257.04607" xlink:href="#m9c641660d0" y="147.04047"/>
     <use style="fill:#ff00ff;stroke:#ff00ff;" x="257.04607" xlink:href="#m9c641660d0" y="147.04047"/>
    </g>
   </g>
   <g id="line2d_40">
    <path d="M 29.53256 298.944 
L 29.53256 284.587264 
L 128.350967 284.587264 
L 128.350967 284.124143 
L 133.032848 284.124143 
L 133.032848 283.661023 
L 133.398082 283.661023 
L 133.398082 283.197902 
L 137.343676 283.197902 
L 137.343676 282.734782 
L 139.317473 282.734782 
L 139.317473 282.271661 
L 141.46423 282.271661 
L 141.46423 281.808541 
L 141.634094 281.808541 
L 141.662245 280.8823 
L 142.778958 280.8823 
L 142.884173 279.492938 
L 143.828447 279.492938 
L 143.902815 278.103577 
L 143.976867 278.103577 
L 143.976867 277.640456 
L 144.124035 277.640456 
L 144.124035 277.177336 
L 144.318346 277.177336 
L 144.318346 276.714215 
L 144.818346 276.714215 
L 144.818346 275.787974 
L 144.981877 275.787974 
L 144.981877 275.324854 
L 145.327221 275.324854 
L 145.327221 274.861733 
L 145.463466 274.861733 
L 145.463466 274.398612 
L 145.621085 274.398612 
L 145.621085 273.935492 
L 146.150926 273.935492 
L 146.150926 273.472371 
L 146.302479 273.472371 
L 146.367029 272.54613 
L 146.644018 272.54613 
L 146.749392 271.619889 
L 146.77039 271.619889 
L 146.791364 270.693648 
L 146.916676 270.693648 
L 146.978997 268.841166 
L 147.041095 268.841166 
L 147.144103 266.988684 
L 147.530079 266.988684 
L 147.530079 266.525564 
L 147.986163 266.525564 
L 147.986163 266.062443 
L 148.23877 266.062443 
L 148.23877 265.599323 
L 148.411533 265.599323 
L 148.506778 264.209961 
L 148.525764 264.209961 
L 148.525764 263.28372 
L 148.695721 263.28372 
L 148.752007 261.431238 
L 148.864037 261.431238 
L 148.864037 260.968117 
L 149.030744 260.968117 
L 149.122675 258.652515 
L 149.268764 258.652515 
L 149.268764 258.189394 
L 149.467659 258.189394 
L 149.467659 257.726274 
L 150.155097 257.726274 
L 150.241302 254.947551 
L 150.327083 254.947551 
L 150.344189 254.02131 
L 150.632448 254.02131 
L 150.699587 251.705707 
L 150.799813 251.705707 
L 150.799813 251.242587 
L 151.227591 251.242587 
L 151.324836 248.926984 
L 151.357131 248.926984 
L 151.357131 248.463863 
L 151.708484 248.463863 
L 151.787359 247.074502 
L 151.850203 247.074502 
L 151.850203 246.611381 
L 152.130233 246.611381 
L 152.130233 246.148261 
L 152.253262 246.148261 
L 152.299175 243.832658 
L 152.481628 243.832658 
L 152.542024 242.906417 
L 152.751777 242.906417 
L 152.796398 241.517056 
L 152.973748 241.517056 
L 152.973748 240.590815 
L 153.337534 240.590815 
L 153.337534 240.127694 
L 153.452361 240.127694 
L 153.523746 237.348971 
L 153.876352 237.348971 
L 153.876352 236.42273 
L 154.19457 236.42273 
L 154.19457 235.959609 
L 154.399019 235.959609 
L 154.399019 235.033368 
L 154.627867 235.033368 
L 154.627867 234.570248 
L 155.154773 234.570248 
L 155.154773 233.644007 
L 155.463441 233.644007 
L 155.488919 231.791525 
L 155.603109 231.791525 
L 155.603109 230.865284 
L 156.027868 230.865284 
L 156.040206 229.475922 
L 156.187581 229.475922 
L 156.199806 227.62344 
L 156.574599 227.62344 
L 156.574599 227.16032 
L 156.847557 227.16032 
L 156.847557 226.234079 
L 156.999969 226.234079 
L 156.999969 225.770958 
L 157.15106 225.770958 
L 157.2549 223.918476 
L 158.184468 223.918476 
L 158.184468 223.455355 
L 158.921223 223.455355 
L 158.921223 222.529114 
L 159.066985 222.529114 
L 159.108409 221.139753 
L 159.39565 221.139753 
L 159.39565 220.213512 
L 159.557689 220.213512 
L 159.557689 219.287271 
L 161.302112 219.287271 
L 161.302112 218.36103 
L 161.573617 218.36103 
L 161.573617 217.434789 
L 161.999419 217.434789 
L 161.999419 216.508548 
L 162.962595 216.508548 
L 163.02881 214.192945 
L 163.461244 214.192945 
L 163.461244 213.266704 
L 164.117618 213.266704 
L 164.117618 212.340463 
L 164.921483 212.340463 
L 164.921483 211.414222 
L 165.251852 211.414222 
L 165.251852 210.487981 
L 165.597481 210.487981 
L 165.597481 210.02486 
L 166.58834 210.02486 
L 166.648858 208.635499 
L 167.595991 208.635499 
L 167.595991 208.172378 
L 168.004423 208.172378 
L 168.004423 207.709258 
L 169.017779 207.709258 
L 169.017779 207.246137 
L 169.774632 207.246137 
L 169.774632 206.319896 
L 170.537636 206.319896 
L 170.537636 205.856776 
L 171.248038 205.856776 
L 171.248038 205.393655 
L 172.351938 205.393655 
L 172.351938 204.930535 
L 173.403777 204.930535 
L 173.403777 204.004294 
L 175.009071 204.004294 
L 175.009071 203.541173 
L 176.053603 203.541173 
L 176.053603 203.078053 
L 177.459425 203.078053 
L 177.459425 202.614932 
L 177.678338 202.614932 
L 177.678338 202.151812 
L 178.111569 202.151812 
L 178.111569 201.225571 
L 178.274311 201.225571 
L 178.274311 200.76245 
L 179.671259 200.76245 
L 179.718912 199.836209 
L 180.323767 199.836209 
L 180.323767 198.909968 
L 180.600418 198.909968 
L 180.600418 198.446847 
L 182.644413 198.446847 
L 182.644413 197.520606 
L 183.063188 197.520606 
L 183.063188 196.594365 
L 183.513025 196.594365 
L 183.513025 196.131245 
L 184.144607 196.131245 
L 184.183946 194.741883 
L 184.811065 194.741883 
L 184.811065 194.278763 
L 185.338437 194.278763 
L 185.338437 193.815642 
L 186.432021 193.815642 
L 186.432021 192.889401 
L 186.793104 192.889401 
L 186.793104 191.96316 
L 188.526803 191.96316 
L 188.526803 191.036919 
L 188.760712 191.036919 
L 188.760712 190.573799 
L 188.942989 190.573799 
L 188.942989 190.110678 
L 189.556439 190.110678 
L 189.556439 189.647558 
L 190.559356 189.647558 
L 190.559356 188.721316 
L 190.95191 188.721316 
L 190.95191 187.795075 
L 191.183599 187.795075 
L 191.183599 187.331955 
L 191.82434 187.331955 
L 191.914433 185.479473 
L 192.122858 185.479473 
L 192.122858 185.016352 
L 194.045737 185.016352 
L 194.045737 184.553232 
L 194.165309 184.553232 
L 194.165309 184.090111 
L 195.408539 184.090111 
L 195.408539 183.626991 
L 195.963463 183.626991 
L 195.963463 183.16387 
L 196.095448 183.16387 
L 196.095448 182.237629 
L 196.634075 182.237629 
L 196.634075 181.774509 
L 197.451692 181.774509 
L 197.451692 180.848268 
L 197.724969 180.848268 
L 197.724969 179.922027 
L 198.722837 179.922027 
L 198.722837 179.458906 
L 199.41728 179.458906 
L 199.41728 178.532665 
L 200.031757 178.532665 
L 200.031757 178.069545 
L 200.927859 178.069545 
L 200.927859 177.606424 
L 201.57843 177.606424 
L 201.650743 176.680183 
L 203.29623 176.680183 
L 203.29623 176.217062 
L 203.848827 176.217062 
L 203.848827 175.753942 
L 205.031643 175.753942 
L 205.031643 175.290821 
L 206.203344 175.290821 
L 206.203344 174.36458 
L 206.639048 174.36458 
L 206.639048 173.90146 
L 207.381314 173.90146 
L 207.381314 173.438339 
L 207.742516 173.438339 
L 207.742516 172.975219 
L 207.975671 172.975219 
L 207.975671 172.512098 
L 209.500617 172.512098 
L 209.500617 172.048978 
L 210.632807 172.048978 
L 210.632807 171.122737 
L 213.624702 171.122737 
L 213.624702 170.659616 
L 215.208085 170.659616 
L 215.250735 169.733375 
L 215.380113 169.733375 
L 215.476317 168.807134 
L 217.151925 168.807134 
L 217.151925 168.344014 
L 218.977317 168.344014 
L 218.977317 167.880893 
L 219.417598 167.880893 
L 219.417598 167.417773 
L 220.755545 167.417773 
L 220.755545 166.954652 
L 223.140924 166.954652 
L 223.140924 166.491532 
L 223.776079 166.491532 
L 223.776079 166.028411 
L 224.317503 166.028411 
L 224.317503 165.10217 
L 225.213029 165.10217 
L 225.213029 164.63905 
L 228.350958 164.63905 
L 228.350958 164.175929 
L 228.987587 164.175929 
L 228.987587 163.249688 
L 230.097047 163.249688 
L 230.097047 162.323447 
L 230.686818 162.323447 
L 230.686818 161.397206 
L 230.84211 161.397206 
L 230.918567 159.544724 
L 234.302715 159.544724 
L 234.408089 157.692242 
L 235.483528 157.692242 
L 235.483528 156.766001 
L 236.808136 156.766001 
L 236.808136 156.30288 
L 238.258695 156.30288 
L 238.258695 155.83976 
L 239.434568 155.83976 
L 239.434568 155.376639 
L 240.2044 155.376639 
L 240.2044 154.913519 
L 240.562411 154.913519 
L 240.562411 154.450398 
L 241.629471 154.450398 
L 241.629471 153.987278 
L 242.341271 153.987278 
L 242.341271 153.524157 
L 243.748796 153.524157 
L 243.748796 153.061037 
L 244.460421 153.061037 
L 244.460421 152.597916 
L 245.732779 152.597916 
L 245.732779 152.134795 
L 247.012932 152.134795 
L 247.012932 151.671675 
L 249.518516 151.671675 
L 249.518516 151.208554 
L 250.368007 151.208554 
L 250.368007 150.282313 
L 250.656451 150.282313 
L 250.663292 149.356072 
L 253.134992 149.356072 
L 253.22966 148.429831 
L 255.229004 148.429831 
L 255.229004 147.966711 
L 256.835651 147.966711 
L 256.835651 147.50359 
L 257.04607 147.50359 
L 257.04607 147.04047 
L 338.688 147.04047 
L 338.688 147.04047 
" style="fill:none;stroke:#ff00ff;stroke-linecap:square;stroke-width:1.5;"/>
   </g>
   <g id="line2d_41">
    <defs>
     <path d="M 0 8.485281 
L 5.091169 0 
L 0 -8.485281 
L -5.091169 0 
z
" id="m21433ca903" style="stroke:#ff00ff;stroke-linejoin:miter;stroke-width:1.5;"/>
    </defs>
    <g>
     <use style="fill-opacity:0;stroke:#ff00ff;stroke-linejoin:miter;stroke-width:1.5;" x="146.150926" xlink:href="#m21433ca903" y="273.472371"/>
     <use style="fill-opacity:0;stroke:#ff00ff;stroke-linejoin:miter;stroke-width:1.5;" x="194.165309" xlink:href="#m21433ca903" y="184.553232"/>
     <use style="fill-opacity:0;stroke:#ff00ff;stroke-linejoin:miter;stroke-width:1.5;" x="247.012932" xlink:href="#m21433ca903" y="152.134795"/>
     <use style="fill-opacity:0;stroke:#ff00ff;stroke-linejoin:miter;stroke-width:1.5;" x="257.04607" xlink:href="#m21433ca903" y="147.04047"/>
     <use style="fill-opacity:0;stroke:#ff00ff;stroke-linejoin:miter;stroke-width:1.5;" x="257.04607" xlink:href="#m21433ca903" y="147.04047"/>
     <use style="fill-opacity:0;stroke:#ff00ff;stroke-linejoin:miter;stroke-width:1.5;" x="338.688" xlink:href="#m21433ca903" y="147.04047"/>
    </g>
   </g>
   <g id="line2d_42">
    <path style="fill:none;stroke:#ff00ff;stroke-linecap:square;stroke-width:1.5;"/>
    <g/>
   </g>
   <g id="line2d_43">
    <path clip-path="url(#p187983cd51)" d="M 258.381432 147.04047 
" style="fill:none;stroke:#ff00ff;stroke-linecap:square;stroke-width:1.5;"/>
    <defs>
     <path d="M -12 12 
L 12 -12 
M -12 -12 
L 12 12 
" id="mf3ed8fe3cf" style="stroke:#ff00ff;"/>
    </defs>
    <g clip-path="url(#p187983cd51)">
     <use style="fill:#ff00ff;stroke:#ff00ff;" x="258.381432" xlink:href="#mf3ed8fe3cf" y="147.04047"/>
    </g>
   </g>
   <g id="line2d_44">
    <defs>
     <path d="M 0 1.5 
C 0.397805 1.5 0.77937 1.341951 1.06066 1.06066 
C 1.341951 0.77937 1.5 0.397805 1.5 0 
C 1.5 -0.397805 1.341951 -0.77937 1.06066 -1.06066 
C 0.77937 -1.341951 0.397805 -1.5 0 -1.5 
C -0.397805 -1.5 -0.77937 -1.341951 -1.06066 -1.06066 
C -1.341951 -0.77937 -1.5 -0.397805 -1.5 0 
C -1.5 0.397805 -1.341951 0.77937 -1.06066 1.06066 
C -0.77937 1.341951 -0.397805 1.5 0 1.5 
z
" id="m920c28bb03" style="stroke:#ff7500;"/>
    </defs>
    <g>
     <use style="fill:#ff7500;stroke:#ff7500;" x="236.392331" xlink:href="#m920c28bb03" y="62.752535"/>
     <use style="fill:#ff7500;stroke:#ff7500;" x="236.392331" xlink:href="#m920c28bb03" y="62.752535"/>
    </g>
   </g>
   <g id="line2d_45">
    <path d="M 145.954117 298.944 
L 145.954117 298.480879 
L 148.334961 298.480879 
L 148.334961 298.017759 
L 148.54473 298.017759 
L 148.54473 297.554638 
L 149.323233 297.554638 
L 149.323233 297.091518 
L 149.946449 297.091518 
L 149.946449 295.702156 
L 150.899466 295.702156 
L 150.899466 295.239036 
L 152.885298 295.239036 
L 152.885298 294.775915 
L 153.337534 294.775915 
L 153.337534 294.312795 
L 153.609024 294.312795 
L 153.609024 293.849674 
L 154.208275 293.849674 
L 154.303908 292.923433 
L 154.331136 292.923433 
L 154.331136 291.997192 
L 154.507086 291.997192 
L 154.614488 289.218469 
L 154.8141 289.218469 
L 154.8141 288.755349 
L 155.102793 288.755349 
L 155.102793 288.292228 
L 155.296925 288.292228 
L 155.373976 287.365987 
L 155.539762 287.365987 
L 155.539762 286.902867 
L 155.953659 286.902867 
L 155.953659 286.439746 
L 156.114049 286.439746 
L 156.163105 285.050384 
L 156.333721 285.050384 
L 156.333721 284.587264 
L 156.823991 284.587264 
L 156.906335 283.661023 
L 157.15106 283.661023 
L 157.208825 282.271661 
L 157.323784 282.271661 
L 157.358125 280.8823 
L 157.460743 280.8823 
L 157.460743 280.419179 
L 157.765022 280.419179 
L 157.820792 277.640456 
L 157.920731 277.640456 
L 157.920731 277.177336 
L 158.422772 277.177336 
L 158.455018 276.251095 
L 158.583406 276.251095 
L 158.583406 275.324854 
L 158.732007 275.324854 
L 158.732007 274.861733 
L 158.9003 274.861733 
L 158.9003 273.472371 
L 159.066985 273.472371 
L 159.139412 272.08301 
L 159.303838 272.08301 
L 159.303838 271.156769 
L 159.537516 271.156769 
L 159.577838 269.767407 
L 159.887213 269.767407 
L 159.887213 269.304287 
L 160.083935 269.304287 
L 160.181471 268.378046 
L 160.268789 268.378046 
L 160.326759 266.988684 
L 160.632719 266.988684 
L 160.632719 266.525564 
L 161.100288 266.525564 
L 161.192316 263.746841 
L 161.564634 263.746841 
L 161.627414 261.431238 
L 161.725614 261.431238 
L 161.725614 260.504997 
L 161.8498 260.504997 
L 161.920369 259.578756 
L 161.973109 259.578756 
L 162.02569 258.189394 
L 162.208484 258.189394 
L 162.217141 257.263153 
L 162.337888 257.263153 
L 162.38081 255.410671 
L 162.466339 255.410671 
L 162.534461 253.095069 
L 162.695193 253.095069 
L 162.80432 251.705707 
L 163.020547 251.705707 
L 163.020547 250.779466 
L 163.152289 250.779466 
L 163.258601 248.926984 
L 163.266752 248.926984 
L 163.291183 248.000743 
L 163.404741 248.000743 
L 163.501492 247.074502 
L 163.557683 247.074502 
L 163.557683 246.611381 
L 163.709295 246.611381 
L 163.812276 245.22202 
L 164.171861 245.22202 
L 164.256762 243.369538 
L 164.394804 243.369538 
L 164.478629 242.443297 
L 164.660132 242.443297 
L 164.735204 239.664574 
L 165.083779 239.664574 
L 165.127781 237.348971 
L 165.475853 237.348971 
L 165.475853 236.42273 
L 165.689922 236.42273 
L 165.689922 235.496489 
L 165.838222 235.496489 
L 165.838222 234.570248 
L 165.950372 234.570248 
L 165.96434 232.717766 
L 166.117256 232.717766 
L 166.117256 231.791525 
L 166.350975 231.791525 
L 166.364626 229.939043 
L 166.527611 229.939043 
L 166.541125 228.086561 
L 166.648858 228.086561 
L 166.735904 226.697199 
L 166.802568 226.697199 
L 166.908703 224.844717 
L 167.268694 224.844717 
L 167.268694 223.918476 
L 167.500363 223.918476 
L 167.595991 222.065994 
L 167.621403 222.065994 
L 167.710056 220.676632 
L 167.842196 220.676632 
L 167.842196 219.750391 
L 168.189752 219.750391 
L 168.300012 218.36103 
L 168.33661 218.36103 
L 168.409578 216.508548 
L 168.494323 216.508548 
L 168.506396 214.656066 
L 168.935546 214.656066 
L 168.935546 213.729825 
L 169.221681 213.729825 
L 169.302579 211.414222 
L 169.588476 211.414222 
L 169.684622 207.709258 
L 169.763406 207.709258 
L 169.763406 206.783017 
L 170.058475 206.783017 
L 170.058475 206.319896 
L 170.217839 206.319896 
L 170.217839 205.856776 
L 170.332339 205.856776 
L 170.354063 204.004294 
L 170.446091 204.004294 
L 170.446091 203.078053 
L 170.872762 203.078053 
L 170.872762 202.151812 
L 171.061409 202.151812 
L 171.160157 199.373088 
L 171.299527 199.373088 
L 171.345738 197.983727 
L 171.549649 197.983727 
L 171.585089 197.057486 
L 171.756212 197.057486 
L 171.851113 195.668124 
L 171.960357 195.668124 
L 171.960357 195.205004 
L 172.122951 195.205004 
L 172.171924 193.815642 
L 172.549266 193.815642 
L 172.549266 193.352522 
L 172.663747 193.352522 
L 172.663747 192.889401 
L 172.786927 192.889401 
L 172.885786 191.50004 
L 172.97475 191.50004 
L 172.97475 191.036919 
L 173.137453 191.036919 
L 173.137453 190.110678 
L 173.503742 190.110678 
L 173.503742 189.647558 
L 173.773496 189.647558 
L 173.773496 188.721316 
L 173.955458 188.721316 
L 173.977519 187.795075 
L 174.078642 187.795075 
L 174.091789 186.405714 
L 174.270476 186.405714 
L 174.279146 185.479473 
L 174.554327 185.479473 
L 174.554327 184.553232 
L 174.812629 184.553232 
L 174.917395 182.237629 
L 175.08786 182.237629 
L 175.145688 180.385147 
L 175.264868 180.385147 
L 175.264868 179.458906 
L 175.431987 179.458906 
L 175.533108 178.532665 
L 175.613585 178.532665 
L 175.701682 177.143304 
L 175.990858 177.143304 
L 176.080984 175.290821 
L 176.155086 175.290821 
L 176.155086 174.827701 
L 176.267585 174.827701 
L 176.34475 173.90146 
L 176.61217 173.90146 
L 176.61217 173.438339 
L 176.763161 173.438339 
L 176.763161 172.975219 
L 176.990933 172.975219 
L 176.990933 172.512098 
L 177.138693 172.512098 
L 177.237728 171.122737 
L 177.397923 171.122737 
L 177.397923 170.659616 
L 177.785001 170.659616 
L 177.785001 169.733375 
L 178.263969 169.733375 
L 178.263969 169.270255 
L 178.411629 169.270255 
L 178.411629 168.807134 
L 178.833909 168.807134 
L 178.833909 168.344014 
L 179.363159 168.344014 
L 179.363159 167.880893 
L 179.572362 167.880893 
L 179.572362 167.417773 
L 179.750608 167.417773 
L 179.750608 166.954652 
L 179.933319 166.954652 
L 179.933319 166.028411 
L 180.16678 166.028411 
L 180.271595 164.63905 
L 180.363558 164.63905 
L 180.363558 163.712808 
L 180.714656 163.712808 
L 180.750576 162.786567 
L 180.934995 162.786567 
L 180.934995 161.860326 
L 181.178864 161.860326 
L 181.178864 160.934085 
L 181.425124 160.934085 
L 181.425124 160.007844 
L 181.687803 160.007844 
L 181.699134 158.618483 
L 181.993985 158.618483 
L 182.010684 156.766001 
L 182.245551 156.766001 
L 182.281194 154.913519 
L 182.450191 154.913519 
L 182.477296 153.987278 
L 182.775365 153.987278 
L 182.775365 153.524157 
L 183.188444 153.524157 
L 183.188444 153.061037 
L 183.418336 153.061037 
L 183.469583 152.134795 
L 183.591965 152.134795 
L 183.591965 151.671675 
L 183.756332 151.671675 
L 183.791533 150.745434 
L 183.959015 150.745434 
L 183.959015 150.282313 
L 184.442346 150.282313 
L 184.442346 149.819193 
L 184.560514 149.819193 
L 184.560514 149.356072 
L 184.713659 149.356072 
L 184.713659 148.892952 
L 184.905574 148.892952 
L 184.905574 148.429831 
L 185.489487 148.429831 
L 185.550905 147.04047 
L 185.706886 147.04047 
L 185.713637 146.114229 
L 187.334417 146.114229 
L 187.334417 145.651108 
L 188.540199 145.651108 
L 188.540199 145.187988 
L 188.898067 145.187988 
L 188.96354 144.261747 
L 189.021326 144.261747 
L 189.021326 143.798626 
L 189.49497 143.798626 
L 189.597899 142.409265 
L 189.610498 142.409265 
L 189.610498 141.946144 
L 189.881849 141.946144 
L 189.881849 141.019903 
L 190.051078 141.019903 
L 190.051078 140.556783 
L 190.946912 140.556783 
L 190.946912 139.630541 
L 191.170442 139.630541 
L 191.175377 137.778059 
L 191.337452 137.778059 
L 191.337452 136.851818 
L 191.556063 136.851818 
L 191.610691 134.999336 
L 191.695507 134.999336 
L 191.709869 133.146854 
L 192.164867 133.146854 
L 192.164867 132.683734 
L 192.325742 132.683734 
L 192.325742 131.757493 
L 193.140936 131.757493 
L 193.140936 131.294372 
L 193.330924 131.294372 
L 193.365774 130.368131 
L 193.604928 130.368131 
L 193.604928 129.905011 
L 193.787123 129.905011 
L 193.838024 128.97877 
L 193.963229 128.97877 
L 193.963229 128.515649 
L 194.101454 128.515649 
L 194.101454 128.052529 
L 194.826039 128.052529 
L 194.834041 127.126287 
L 195.829213 127.126287 
L 195.932189 125.736926 
L 196.170951 125.736926 
L 196.22521 124.810685 
L 196.375998 124.810685 
L 196.375998 124.347564 
L 196.514599 124.347564 
L 196.547265 123.421323 
L 197.164733 123.421323 
L 197.164733 122.958203 
L 200.43099 122.958203 
L 200.43099 122.495082 
L 201.19008 122.495082 
L 201.21137 121.568841 
L 201.319268 121.568841 
L 201.357838 120.6426 
L 201.61372 120.6426 
L 201.61372 120.17948 
L 201.725453 120.17948 
L 201.725453 119.716359 
L 201.862338 119.716359 
L 201.862338 118.790118 
L 202.253595 118.790118 
L 202.253595 118.326998 
L 203.374851 118.326998 
L 203.374851 117.400757 
L 204.010303 117.400757 
L 204.025266 115.548274 
L 204.134348 115.548274 
L 204.134348 114.622033 
L 204.307162 114.622033 
L 204.372879 112.769551 
L 204.550233 112.769551 
L 204.644697 109.990828 
L 204.980295 109.990828 
L 204.980295 109.064587 
L 209.291179 109.064587 
L 209.291179 108.138346 
L 209.895799 108.138346 
L 209.983844 106.285864 
L 210.17245 106.285864 
L 210.239279 103.507141 
L 210.301459 103.507141 
L 210.367249 101.654659 
L 210.507863 101.654659 
L 210.572881 99.802177 
L 212.619299 99.802177 
L 212.619299 99.339056 
L 212.935272 99.339056 
L 212.935272 98.875936 
L 213.050601 98.875936 
L 213.122237 97.949695 
L 213.184272 97.949695 
L 213.250725 97.023454 
L 213.39024 97.023454 
L 213.496664 95.634092 
L 213.505808 95.634092 
L 213.505808 95.170972 
L 215.709496 95.170972 
L 215.709496 94.707851 
L 216.124272 94.707851 
L 216.158461 93.31849 
L 216.279352 93.31849 
L 216.369182 92.392249 
L 216.423787 92.392249 
L 216.478992 91.466008 
L 216.550921 91.466008 
L 216.611848 90.539766 
L 218.965289 90.539766 
L 218.965289 90.076646 
L 219.180534 90.076646 
L 219.180534 89.613525 
L 219.380758 89.613525 
L 219.449484 88.224164 
L 219.557722 88.224164 
L 219.668183 85.908561 
L 225.511785 85.908561 
L 225.512933 84.056079 
L 225.793764 84.056079 
L 225.793764 83.129838 
L 225.933063 83.129838 
L 226.00464 81.277356 
L 226.059467 81.277356 
L 226.077037 78.498633 
L 226.203069 78.498633 
L 226.211012 76.646151 
L 232.114263 76.646151 
L 232.114263 75.71991 
L 232.398907 75.71991 
L 232.435379 73.867428 
L 232.589693 73.867428 
L 232.688721 72.014946 
L 232.706514 72.014946 
L 232.767359 70.162464 
L 232.866592 70.162464 
L 232.932735 67.383741 
L 235.3906 67.383741 
L 235.3906 66.92062 
L 235.753507 66.92062 
L 235.753507 66.457499 
L 235.994463 66.457499 
L 236.092125 64.141897 
L 236.298197 64.141897 
L 236.392331 62.752535 
L 338.688 62.752535 
L 338.688 62.752535 
" style="fill:none;stroke:#ff7500;stroke-linecap:square;stroke-width:1.5;"/>
   </g>
   <g id="line2d_46">
    <defs>
     <path d="M 0 -6 
L -1.347084 -1.854102 
L -5.706339 -1.854102 
L -2.179628 0.708204 
L -3.526712 4.854102 
L -0 2.291796 
L 3.526712 4.854102 
L 2.179628 0.708204 
L 5.706339 -1.854102 
L 1.347084 -1.854102 
z
" id="m995153b8c5" style="stroke:#ff7500;stroke-linejoin:bevel;stroke-width:1.5;"/>
    </defs>
    <g>
     <use style="fill-opacity:0;stroke:#ff7500;stroke-linejoin:bevel;stroke-width:1.5;" x="191.709869" xlink:href="#m995153b8c5" y="134.073095"/>
     <use style="fill-opacity:0;stroke:#ff7500;stroke-linejoin:bevel;stroke-width:1.5;" x="236.392331" xlink:href="#m995153b8c5" y="63.215656"/>
     <use style="fill-opacity:0;stroke:#ff7500;stroke-linejoin:bevel;stroke-width:1.5;" x="236.392331" xlink:href="#m995153b8c5" y="62.752535"/>
     <use style="fill-opacity:0;stroke:#ff7500;stroke-linejoin:bevel;stroke-width:1.5;" x="236.392331" xlink:href="#m995153b8c5" y="62.752535"/>
     <use style="fill-opacity:0;stroke:#ff7500;stroke-linejoin:bevel;stroke-width:1.5;" x="338.688" xlink:href="#m995153b8c5" y="62.752535"/>
    </g>
   </g>
   <g id="line2d_47">
    <path style="fill:none;stroke:#ff7500;stroke-linecap:square;stroke-width:1.5;"/>
    <g/>
   </g>
   <g id="line2d_48">
    <path clip-path="url(#p187983cd51)" d="M 258.377178 62.752535 
" style="fill:none;stroke:#ff7500;stroke-linecap:square;stroke-width:1.5;"/>
    <defs>
     <path d="M -12 12 
L 12 -12 
M -12 -12 
L 12 12 
" id="mfb668dafcc" style="stroke:#ff7500;"/>
    </defs>
    <g clip-path="url(#p187983cd51)">
     <use style="fill:#ff7500;stroke:#ff7500;" x="258.377178" xlink:href="#mfb668dafcc" y="62.752535"/>
    </g>
   </g>
   <g id="line2d_49">
    <path d="M 338.688 147.04047 
L 369.60768 293.571802 
" style="fill:none;stroke:#ff00ff;stroke-linecap:square;stroke-width:1.5;"/>
    <g>
     <use style="fill-opacity:0;stroke:#ff00ff;stroke-linejoin:miter;stroke-width:1.5;" x="338.688" xlink:href="#m21433ca903" y="147.04047"/>
     <use style="fill-opacity:0;stroke:#ff00ff;stroke-linejoin:miter;stroke-width:1.5;" x="369.60768" xlink:href="#m21433ca903" y="293.571802"/>
    </g>
   </g>
   <g id="line2d_50">
    <path d="M 338.688 110.917069 
L 369.60768 207.616634 
" style="fill:none;stroke:#000080;stroke-linecap:square;stroke-width:1.5;"/>
    <g>
     <use style="fill-opacity:0;stroke:#000080;stroke-width:1.5;" x="338.688" xlink:href="#m5013d5cef3" y="110.917069"/>
     <use style="fill-opacity:0;stroke:#000080;stroke-width:1.5;" x="369.60768" xlink:href="#m5013d5cef3" y="207.616634"/>
    </g>
   </g>
   <g id="line2d_51">
    <path d="M 338.688 62.752535 
L 369.60768 121.661465 
" style="fill:none;stroke:#ff7500;stroke-linecap:square;stroke-width:1.5;"/>
    <g>
     <use style="fill-opacity:0;stroke:#ff7500;stroke-linejoin:bevel;stroke-width:1.5;" x="338.688" xlink:href="#m995153b8c5" y="62.752535"/>
     <use style="fill-opacity:0;stroke:#ff7500;stroke-linejoin:bevel;stroke-width:1.5;" x="369.60768" xlink:href="#m995153b8c5" y="121.661465"/>
    </g>
   </g>
   <g id="line2d_52">
    <path d="M 338.688 298.944 
L 338.688 30.334099 
" style="fill:none;stroke:#000000;stroke-linecap:square;stroke-width:1.5;"/>
   </g>
   <g id="patch_3">
    <path d="M 57.6 298.944 
L 57.6 27.648 
" style="fill:none;stroke:#000000;stroke-linecap:square;stroke-linejoin:miter;stroke-width:0.8;"/>
   </g>
   <g id="patch_4">
    <path d="M 338.688 298.944 
L 338.688 27.648 
" style="fill:none;stroke:#000000;stroke-linecap:square;stroke-linejoin:miter;stroke-width:0.8;"/>
   </g>
   <g id="patch_5">
    <path d="M 57.6 298.944 
L 338.688 298.944 
" style="fill:none;stroke:#000000;stroke-linecap:square;stroke-linejoin:miter;stroke-width:0.8;"/>
   </g>
   <g id="patch_6">
    <path d="M 57.6 27.648 
L 338.688 27.648 
" style="fill:none;stroke:#000000;stroke-linecap:square;stroke-linejoin:miter;stroke-width:0.8;"/>
   </g>
   <g id="text_13">
    <!-- NSGA-II-M -->
    <g transform="translate(375.22944 298.262739)scale(0.17 -0.17)">
     <defs>
      <path d="M 9.8125 72.90625 
L 23.09375 72.90625 
L 55.421875 11.921875 
L 55.421875 72.90625 
L 64.984375 72.90625 
L 64.984375 0 
L 51.703125 0 
L 19.390625 60.984375 
L 19.390625 0 
L 9.8125 0 
z
" id="DejaVuSans-78"/>
      <path d="M 53.515625 70.515625 
L 53.515625 60.890625 
Q 47.90625 63.578125 42.921875 64.890625 
Q 37.9375 66.21875 33.296875 66.21875 
Q 25.25 66.21875 20.875 63.09375 
Q 16.5 59.96875 16.5 54.203125 
Q 16.5 49.359375 19.40625 46.890625 
Q 22.3125 44.4375 30.421875 42.921875 
L 36.375 41.703125 
Q 47.40625 39.59375 52.65625 34.296875 
Q 57.90625 29 57.90625 20.125 
Q 57.90625 9.515625 50.796875 4.046875 
Q 43.703125 -1.421875 29.984375 -1.421875 
Q 24.8125 -1.421875 18.96875 -0.25 
Q 13.140625 0.921875 6.890625 3.21875 
L 6.890625 13.375 
Q 12.890625 10.015625 18.65625 8.296875 
Q 24.421875 6.59375 29.984375 6.59375 
Q 38.421875 6.59375 43.015625 9.90625 
Q 47.609375 13.234375 47.609375 19.390625 
Q 47.609375 24.75 44.3125 27.78125 
Q 41.015625 30.8125 33.5 32.328125 
L 27.484375 33.5 
Q 16.453125 35.6875 11.515625 40.375 
Q 6.59375 45.0625 6.59375 53.421875 
Q 6.59375 63.09375 13.40625 68.65625 
Q 20.21875 74.21875 32.171875 74.21875 
Q 37.3125 74.21875 42.625 73.28125 
Q 47.953125 72.359375 53.515625 70.515625 
z
" id="DejaVuSans-83"/>
      <path d="M 59.515625 10.40625 
L 59.515625 29.984375 
L 43.40625 29.984375 
L 43.40625 38.09375 
L 69.28125 38.09375 
L 69.28125 6.78125 
Q 63.578125 2.734375 56.6875 0.65625 
Q 49.8125 -1.421875 42 -1.421875 
Q 24.90625 -1.421875 15.25 8.5625 
Q 5.609375 18.5625 5.609375 36.375 
Q 5.609375 54.25 15.25 64.234375 
Q 24.90625 74.21875 42 74.21875 
Q 49.125 74.21875 55.546875 72.453125 
Q 61.96875 70.703125 67.390625 67.28125 
L 67.390625 56.78125 
Q 61.921875 61.421875 55.765625 63.765625 
Q 49.609375 66.109375 42.828125 66.109375 
Q 29.4375 66.109375 22.71875 58.640625 
Q 16.015625 51.171875 16.015625 36.375 
Q 16.015625 21.625 22.71875 14.15625 
Q 29.4375 6.6875 42.828125 6.6875 
Q 48.046875 6.6875 52.140625 7.59375 
Q 56.25 8.5 59.515625 10.40625 
z
" id="DejaVuSans-71"/>
      <path d="M 34.1875 63.1875 
L 20.796875 26.90625 
L 47.609375 26.90625 
z
M 28.609375 72.90625 
L 39.796875 72.90625 
L 67.578125 0 
L 57.328125 0 
L 50.6875 18.703125 
L 17.828125 18.703125 
L 11.1875 0 
L 0.78125 0 
z
" id="DejaVuSans-65"/>
      <path d="M 9.8125 72.90625 
L 19.671875 72.90625 
L 19.671875 0 
L 9.8125 0 
z
" id="DejaVuSans-73"/>
      <path d="M 9.8125 72.90625 
L 24.515625 72.90625 
L 43.109375 23.296875 
L 61.8125 72.90625 
L 76.515625 72.90625 
L 76.515625 0 
L 66.890625 0 
L 66.890625 64.015625 
L 48.09375 14.015625 
L 38.1875 14.015625 
L 19.390625 64.015625 
L 19.390625 0 
L 9.8125 0 
z
" id="DejaVuSans-77"/>
     </defs>
     <use xlink:href="#DejaVuSans-78"/>
     <use x="74.804688" xlink:href="#DejaVuSans-83"/>
     <use x="138.28125" xlink:href="#DejaVuSans-71"/>
     <use x="215.771484" xlink:href="#DejaVuSans-65"/>
     <use x="281.929688" xlink:href="#DejaVuSans-45"/>
     <use x="318.013672" xlink:href="#DejaVuSans-73"/>
     <use x="347.505859" xlink:href="#DejaVuSans-73"/>
     <use x="376.998047" xlink:href="#DejaVuSans-45"/>
     <use x="413.082031" xlink:href="#DejaVuSans-77"/>
    </g>
   </g>
   <g id="text_14">
    <!-- COMO-100  -->
    <g transform="translate(375.22944 212.307571)scale(0.17 -0.17)">
     <defs>
      <path d="M 64.40625 67.28125 
L 64.40625 56.890625 
Q 59.421875 61.53125 53.78125 63.8125 
Q 48.140625 66.109375 41.796875 66.109375 
Q 29.296875 66.109375 22.65625 58.46875 
Q 16.015625 50.828125 16.015625 36.375 
Q 16.015625 21.96875 22.65625 14.328125 
Q 29.296875 6.6875 41.796875 6.6875 
Q 48.140625 6.6875 53.78125 8.984375 
Q 59.421875 11.28125 64.40625 15.921875 
L 64.40625 5.609375 
Q 59.234375 2.09375 53.4375 0.328125 
Q 47.65625 -1.421875 41.21875 -1.421875 
Q 24.65625 -1.421875 15.125 8.703125 
Q 5.609375 18.84375 5.609375 36.375 
Q 5.609375 53.953125 15.125 64.078125 
Q 24.65625 74.21875 41.21875 74.21875 
Q 47.75 74.21875 53.53125 72.484375 
Q 59.328125 70.75 64.40625 67.28125 
z
" id="DejaVuSans-67"/>
      <path d="M 39.40625 66.21875 
Q 28.65625 66.21875 22.328125 58.203125 
Q 16.015625 50.203125 16.015625 36.375 
Q 16.015625 22.609375 22.328125 14.59375 
Q 28.65625 6.59375 39.40625 6.59375 
Q 50.140625 6.59375 56.421875 14.59375 
Q 62.703125 22.609375 62.703125 36.375 
Q 62.703125 50.203125 56.421875 58.203125 
Q 50.140625 66.21875 39.40625 66.21875 
z
M 39.40625 74.21875 
Q 54.734375 74.21875 63.90625 63.9375 
Q 73.09375 53.65625 73.09375 36.375 
Q 73.09375 19.140625 63.90625 8.859375 
Q 54.734375 -1.421875 39.40625 -1.421875 
Q 24.03125 -1.421875 14.8125 8.828125 
Q 5.609375 19.09375 5.609375 36.375 
Q 5.609375 53.65625 14.8125 63.9375 
Q 24.03125 74.21875 39.40625 74.21875 
z
" id="DejaVuSans-79"/>
     </defs>
     <use xlink:href="#DejaVuSans-67"/>
     <use x="69.824219" xlink:href="#DejaVuSans-79"/>
     <use x="148.535156" xlink:href="#DejaVuSans-77"/>
     <use x="234.814453" xlink:href="#DejaVuSans-79"/>
     <use x="316.275391" xlink:href="#DejaVuSans-45"/>
     <use x="352.359375" xlink:href="#DejaVuSans-49"/>
     <use x="415.982422" xlink:href="#DejaVuSans-48"/>
     <use x="479.605469" xlink:href="#DejaVuSans-48"/>
     <use x="543.228516" xlink:href="#DejaVuSans-32"/>
    </g>
   </g>
   <g id="text_15">
    <!-- SMS-EMOA- -->
    <g transform="translate(375.22944 126.352403)scale(0.17 -0.17)">
     <defs>
      <path d="M 9.8125 72.90625 
L 55.90625 72.90625 
L 55.90625 64.59375 
L 19.671875 64.59375 
L 19.671875 43.015625 
L 54.390625 43.015625 
L 54.390625 34.71875 
L 19.671875 34.71875 
L 19.671875 8.296875 
L 56.78125 8.296875 
L 56.78125 0 
L 9.8125 0 
z
" id="DejaVuSans-69"/>
     </defs>
     <use xlink:href="#DejaVuSans-83"/>
     <use x="63.476562" xlink:href="#DejaVuSans-77"/>
     <use x="149.755859" xlink:href="#DejaVuSans-83"/>
     <use x="213.232422" xlink:href="#DejaVuSans-45"/>
     <use x="249.316406" xlink:href="#DejaVuSans-69"/>
     <use x="312.5" xlink:href="#DejaVuSans-77"/>
     <use x="398.779297" xlink:href="#DejaVuSans-79"/>
     <use x="475.740234" xlink:href="#DejaVuSans-65"/>
     <use x="541.898438" xlink:href="#DejaVuSans-45"/>
    </g>
   </g>
   <g id="text_16">
    <!-- best 2016 -->
    <g transform="translate(375.22944 40.397235)scale(0.17 -0.17)">
     <defs>
      <path d="M 48.6875 27.296875 
Q 48.6875 37.203125 44.609375 42.84375 
Q 40.53125 48.484375 33.40625 48.484375 
Q 26.265625 48.484375 22.1875 42.84375 
Q 18.109375 37.203125 18.109375 27.296875 
Q 18.109375 17.390625 22.1875 11.75 
Q 26.265625 6.109375 33.40625 6.109375 
Q 40.53125 6.109375 44.609375 11.75 
Q 48.6875 17.390625 48.6875 27.296875 
z
M 18.109375 46.390625 
Q 20.953125 51.265625 25.265625 53.625 
Q 29.59375 56 35.59375 56 
Q 45.5625 56 51.78125 48.09375 
Q 58.015625 40.1875 58.015625 27.296875 
Q 58.015625 14.40625 51.78125 6.484375 
Q 45.5625 -1.421875 35.59375 -1.421875 
Q 29.59375 -1.421875 25.265625 0.953125 
Q 20.953125 3.328125 18.109375 8.203125 
L 18.109375 0 
L 9.078125 0 
L 9.078125 75.984375 
L 18.109375 75.984375 
z
" id="DejaVuSans-98"/>
     </defs>
     <use xlink:href="#DejaVuSans-98"/>
     <use x="63.476562" xlink:href="#DejaVuSans-101"/>
     <use x="125" xlink:href="#DejaVuSans-115"/>
     <use x="177.099609" xlink:href="#DejaVuSans-116"/>
     <use x="216.308594" xlink:href="#DejaVuSans-32"/>
     <use x="248.095703" xlink:href="#DejaVuSans-50"/>
     <use x="311.71875" xlink:href="#DejaVuSans-48"/>
     <use x="375.341797" xlink:href="#DejaVuSans-49"/>
     <use x="438.964844" xlink:href="#DejaVuSans-54"/>
    </g>
   </g>
   <g id="text_17">
    <!-- bbob-biobj f1, 5-D -->
    <g transform="translate(60.41088 38.111366)scale(0.102 -0.102)">
     <defs>
      <path d="M 9.421875 54.6875 
L 18.40625 54.6875 
L 18.40625 -0.984375 
Q 18.40625 -11.421875 14.421875 -16.109375 
Q 10.453125 -20.796875 1.609375 -20.796875 
L -1.8125 -20.796875 
L -1.8125 -13.1875 
L 0.59375 -13.1875 
Q 5.71875 -13.1875 7.5625 -10.8125 
Q 9.421875 -8.453125 9.421875 -0.984375 
z
M 9.421875 75.984375 
L 18.40625 75.984375 
L 18.40625 64.59375 
L 9.421875 64.59375 
z
" id="DejaVuSans-106"/>
      <path d="M 10.796875 72.90625 
L 49.515625 72.90625 
L 49.515625 64.59375 
L 19.828125 64.59375 
L 19.828125 46.734375 
Q 21.96875 47.46875 24.109375 47.828125 
Q 26.265625 48.1875 28.421875 48.1875 
Q 40.625 48.1875 47.75 41.5 
Q 54.890625 34.8125 54.890625 23.390625 
Q 54.890625 11.625 47.5625 5.09375 
Q 40.234375 -1.421875 26.90625 -1.421875 
Q 22.3125 -1.421875 17.546875 -0.640625 
Q 12.796875 0.140625 7.71875 1.703125 
L 7.71875 11.625 
Q 12.109375 9.234375 16.796875 8.0625 
Q 21.484375 6.890625 26.703125 6.890625 
Q 35.15625 6.890625 40.078125 11.328125 
Q 45.015625 15.765625 45.015625 23.390625 
Q 45.015625 31 40.078125 35.4375 
Q 35.15625 39.890625 26.703125 39.890625 
Q 22.75 39.890625 18.8125 39.015625 
Q 14.890625 38.140625 10.796875 36.28125 
z
" id="DejaVuSans-53"/>
      <path d="M 19.671875 64.796875 
L 19.671875 8.109375 
L 31.59375 8.109375 
Q 46.6875 8.109375 53.6875 14.9375 
Q 60.6875 21.78125 60.6875 36.53125 
Q 60.6875 51.171875 53.6875 57.984375 
Q 46.6875 64.796875 31.59375 64.796875 
z
M 9.8125 72.90625 
L 30.078125 72.90625 
Q 51.265625 72.90625 61.171875 64.09375 
Q 71.09375 55.28125 71.09375 36.53125 
Q 71.09375 17.671875 61.125 8.828125 
Q 51.171875 0 30.078125 0 
L 9.8125 0 
z
" id="DejaVuSans-68"/>
     </defs>
     <use xlink:href="#DejaVuSans-98"/>
     <use x="63.476562" xlink:href="#DejaVuSans-98"/>
     <use x="126.953125" xlink:href="#DejaVuSans-111"/>
     <use x="188.134766" xlink:href="#DejaVuSans-98"/>
     <use x="251.611328" xlink:href="#DejaVuSans-45"/>
     <use x="287.695312" xlink:href="#DejaVuSans-98"/>
     <use x="351.171875" xlink:href="#DejaVuSans-105"/>
     <use x="378.955078" xlink:href="#DejaVuSans-111"/>
     <use x="440.136719" xlink:href="#DejaVuSans-98"/>
     <use x="503.613281" xlink:href="#DejaVuSans-106"/>
     <use x="531.396484" xlink:href="#DejaVuSans-32"/>
     <use x="563.183594" xlink:href="#DejaVuSans-102"/>
     <use x="598.388672" xlink:href="#DejaVuSans-49"/>
     <use x="662.011719" xlink:href="#DejaVuSans-44"/>
     <use x="693.798828" xlink:href="#DejaVuSans-32"/>
     <use x="725.585938" xlink:href="#DejaVuSans-53"/>
     <use x="789.208984" xlink:href="#DejaVuSans-45"/>
     <use x="825.292969" xlink:href="#DejaVuSans-68"/>
    </g>
    <!-- 58 targets: 1..-1.0e-4 -->
    <g transform="translate(60.41088 49.533135)scale(0.102 -0.102)">
     <defs>
      <path d="M 11.71875 12.40625 
L 22.015625 12.40625 
L 22.015625 0 
L 11.71875 0 
z
M 11.71875 51.703125 
L 22.015625 51.703125 
L 22.015625 39.3125 
L 11.71875 39.3125 
z
" id="DejaVuSans-58"/>
     </defs>
     <use xlink:href="#DejaVuSans-53"/>
     <use x="63.623047" xlink:href="#DejaVuSans-56"/>
     <use x="127.246094" xlink:href="#DejaVuSans-32"/>
     <use x="159.033203" xlink:href="#DejaVuSans-116"/>
     <use x="198.242188" xlink:href="#DejaVuSans-97"/>
     <use x="259.521484" xlink:href="#DejaVuSans-114"/>
     <use x="298.884766" xlink:href="#DejaVuSans-103"/>
     <use x="362.361328" xlink:href="#DejaVuSans-101"/>
     <use x="423.884766" xlink:href="#DejaVuSans-116"/>
     <use x="463.09375" xlink:href="#DejaVuSans-115"/>
     <use x="515.193359" xlink:href="#DejaVuSans-58"/>
     <use x="548.884766" xlink:href="#DejaVuSans-32"/>
     <use x="580.671875" xlink:href="#DejaVuSans-49"/>
     <use x="644.294922" xlink:href="#DejaVuSans-46"/>
     <use x="676.082031" xlink:href="#DejaVuSans-46"/>
     <use x="707.869141" xlink:href="#DejaVuSans-45"/>
     <use x="743.953125" xlink:href="#DejaVuSans-49"/>
     <use x="807.576172" xlink:href="#DejaVuSans-46"/>
     <use x="839.363281" xlink:href="#DejaVuSans-48"/>
     <use x="902.986328" xlink:href="#DejaVuSans-101"/>
     <use x="964.509766" xlink:href="#DejaVuSans-45"/>
     <use x="1000.59375" xlink:href="#DejaVuSans-52"/>
    </g>
    <!-- 10 instances -->
    <g transform="translate(60.41088 60.954904)scale(0.102 -0.102)">
     <use xlink:href="#DejaVuSans-49"/>
     <use x="63.623047" xlink:href="#DejaVuSans-48"/>
     <use x="127.246094" xlink:href="#DejaVuSans-32"/>
     <use x="159.033203" xlink:href="#DejaVuSans-105"/>
     <use x="186.816406" xlink:href="#DejaVuSans-110"/>
     <use x="250.195312" xlink:href="#DejaVuSans-115"/>
     <use x="302.294922" xlink:href="#DejaVuSans-116"/>
     <use x="341.503906" xlink:href="#DejaVuSans-97"/>
     <use x="402.783203" xlink:href="#DejaVuSans-110"/>
     <use x="466.162109" xlink:href="#DejaVuSans-99"/>
     <use x="521.142578" xlink:href="#DejaVuSans-101"/>
     <use x="582.666016" xlink:href="#DejaVuSans-115"/>
    </g>
   </g>
   <g id="text_18">
    <!-- v2.4.19, hv-hash=ff0e71e8cd978373 -->
    <g style="fill:#808080;" transform="translate(104.697125 294.151352)scale(0.1 -0.1)">
     <defs>
      <path d="M 10.984375 1.515625 
L 10.984375 10.5 
Q 14.703125 8.734375 18.5 7.8125 
Q 22.3125 6.890625 25.984375 6.890625 
Q 35.75 6.890625 40.890625 13.453125 
Q 46.046875 20.015625 46.78125 33.40625 
Q 43.953125 29.203125 39.59375 26.953125 
Q 35.25 24.703125 29.984375 24.703125 
Q 19.046875 24.703125 12.671875 31.3125 
Q 6.296875 37.9375 6.296875 49.421875 
Q 6.296875 60.640625 12.9375 67.421875 
Q 19.578125 74.21875 30.609375 74.21875 
Q 43.265625 74.21875 49.921875 64.515625 
Q 56.59375 54.828125 56.59375 36.375 
Q 56.59375 19.140625 48.40625 8.859375 
Q 40.234375 -1.421875 26.421875 -1.421875 
Q 22.703125 -1.421875 18.890625 -0.6875 
Q 15.09375 0.046875 10.984375 1.515625 
z
M 30.609375 32.421875 
Q 37.25 32.421875 41.125 36.953125 
Q 45.015625 41.5 45.015625 49.421875 
Q 45.015625 57.28125 41.125 61.84375 
Q 37.25 66.40625 30.609375 66.40625 
Q 23.96875 66.40625 20.09375 61.84375 
Q 16.21875 57.28125 16.21875 49.421875 
Q 16.21875 41.5 20.09375 36.953125 
Q 23.96875 32.421875 30.609375 32.421875 
z
" id="DejaVuSans-57"/>
      <path d="M 54.890625 33.015625 
L 54.890625 0 
L 45.90625 0 
L 45.90625 32.71875 
Q 45.90625 40.484375 42.875 44.328125 
Q 39.84375 48.1875 33.796875 48.1875 
Q 26.515625 48.1875 22.3125 43.546875 
Q 18.109375 38.921875 18.109375 30.90625 
L 18.109375 0 
L 9.078125 0 
L 9.078125 75.984375 
L 18.109375 75.984375 
L 18.109375 46.1875 
Q 21.34375 51.125 25.703125 53.5625 
Q 30.078125 56 35.796875 56 
Q 45.21875 56 50.046875 50.171875 
Q 54.890625 44.34375 54.890625 33.015625 
z
" id="DejaVuSans-104"/>
      <path d="M 10.59375 45.40625 
L 73.1875 45.40625 
L 73.1875 37.203125 
L 10.59375 37.203125 
z
M 10.59375 25.484375 
L 73.1875 25.484375 
L 73.1875 17.1875 
L 10.59375 17.1875 
z
" id="DejaVuSans-61"/>
      <path d="M 8.203125 72.90625 
L 55.078125 72.90625 
L 55.078125 68.703125 
L 28.609375 0 
L 18.3125 0 
L 43.21875 64.59375 
L 8.203125 64.59375 
z
" id="DejaVuSans-55"/>
      <path d="M 40.578125 39.3125 
Q 47.65625 37.796875 51.625 33 
Q 55.609375 28.21875 55.609375 21.1875 
Q 55.609375 10.40625 48.1875 4.484375 
Q 40.765625 -1.421875 27.09375 -1.421875 
Q 22.515625 -1.421875 17.65625 -0.515625 
Q 12.796875 0.390625 7.625 2.203125 
L 7.625 11.71875 
Q 11.71875 9.328125 16.59375 8.109375 
Q 21.484375 6.890625 26.8125 6.890625 
Q 36.078125 6.890625 40.9375 10.546875 
Q 45.796875 14.203125 45.796875 21.1875 
Q 45.796875 27.640625 41.28125 31.265625 
Q 36.765625 34.90625 28.71875 34.90625 
L 20.21875 34.90625 
L 20.21875 43.015625 
L 29.109375 43.015625 
Q 36.375 43.015625 40.234375 45.921875 
Q 44.09375 48.828125 44.09375 54.296875 
Q 44.09375 59.90625 40.109375 62.90625 
Q 36.140625 65.921875 28.71875 65.921875 
Q 24.65625 65.921875 20.015625 65.03125 
Q 15.375 64.15625 9.8125 62.3125 
L 9.8125 71.09375 
Q 15.4375 72.65625 20.34375 73.4375 
Q 25.25 74.21875 29.59375 74.21875 
Q 40.828125 74.21875 47.359375 69.109375 
Q 53.90625 64.015625 53.90625 55.328125 
Q 53.90625 49.265625 50.4375 45.09375 
Q 46.96875 40.921875 40.578125 39.3125 
z
" id="DejaVuSans-51"/>
     </defs>
     <use xlink:href="#DejaVuSans-118"/>
     <use x="59.179688" xlink:href="#DejaVuSans-50"/>
     <use x="122.802734" xlink:href="#DejaVuSans-46"/>
     <use x="154.589844" xlink:href="#DejaVuSans-52"/>
     <use x="218.212891" xlink:href="#DejaVuSans-46"/>
     <use x="250" xlink:href="#DejaVuSans-49"/>
     <use x="313.623047" xlink:href="#DejaVuSans-57"/>
     <use x="377.246094" xlink:href="#DejaVuSans-44"/>
     <use x="409.033203" xlink:href="#DejaVuSans-32"/>
     <use x="440.820312" xlink:href="#DejaVuSans-104"/>
     <use x="504.199219" xlink:href="#DejaVuSans-118"/>
     <use x="560.753906" xlink:href="#DejaVuSans-45"/>
     <use x="596.837891" xlink:href="#DejaVuSans-104"/>
     <use x="660.216797" xlink:href="#DejaVuSans-97"/>
     <use x="721.496094" xlink:href="#DejaVuSans-115"/>
     <use x="773.595703" xlink:href="#DejaVuSans-104"/>
     <use x="836.974609" xlink:href="#DejaVuSans-61"/>
     <use x="920.763672" xlink:href="#DejaVuSans-102"/>
     <use x="955.96875" xlink:href="#DejaVuSans-102"/>
     <use x="991.173828" xlink:href="#DejaVuSans-48"/>
     <use x="1054.796875" xlink:href="#DejaVuSans-101"/>
     <use x="1116.320312" xlink:href="#DejaVuSans-55"/>
     <use x="1179.943359" xlink:href="#DejaVuSans-49"/>
     <use x="1243.566406" xlink:href="#DejaVuSans-101"/>
     <use x="1305.089844" xlink:href="#DejaVuSans-56"/>
     <use x="1368.712891" xlink:href="#DejaVuSans-99"/>
     <use x="1423.693359" xlink:href="#DejaVuSans-100"/>
     <use x="1487.169922" xlink:href="#DejaVuSans-57"/>
     <use x="1550.792969" xlink:href="#DejaVuSans-55"/>
     <use x="1614.416016" xlink:href="#DejaVuSans-56"/>
     <use x="1678.039062" xlink:href="#DejaVuSans-51"/>
     <use x="1741.662109" xlink:href="#DejaVuSans-55"/>
     <use x="1805.285156" xlink:href="#DejaVuSans-51"/>
    </g>
   </g>
   <g id="text_19">
    <!-- 1 Sphere/Sphere -->
    <g transform="translate(114.7815 21.648)scale(0.2 -0.2)">
     <use xlink:href="#DejaVuSans-49"/>
     <use x="63.623047" xlink:href="#DejaVuSans-32"/>
     <use x="95.410156" xlink:href="#DejaVuSans-83"/>
     <use x="158.886719" xlink:href="#DejaVuSans-112"/>
     <use x="222.363281" xlink:href="#DejaVuSans-104"/>
     <use x="285.742188" xlink:href="#DejaVuSans-101"/>
     <use x="347.265625" xlink:href="#DejaVuSans-114"/>
     <use x="386.128906" xlink:href="#DejaVuSans-101"/>
     <use x="447.652344" xlink:href="#DejaVuSans-47"/>
     <use x="481.34375" xlink:href="#DejaVuSans-83"/>
     <use x="544.820312" xlink:href="#DejaVuSans-112"/>
     <use x="608.296875" xlink:href="#DejaVuSans-104"/>
     <use x="671.675781" xlink:href="#DejaVuSans-101"/>
     <use x="733.199219" xlink:href="#DejaVuSans-114"/>
     <use x="772.0625" xlink:href="#DejaVuSans-101"/>
    </g>
   </g>
  </g>
 </g>
 <defs>
  <clipPath id="p187983cd51">
   <rect height="271.296" width="281.088" x="57.6" y="27.648"/>
  </clipPath>
 </defs>
</svg>
