<?xml version="1.0" encoding="utf-8" standalone="no"?>
<!DOCTYPE svg PUBLIC "-//W3C//DTD SVG 1.1//EN"
  "http://www.w3.org/Graphics/SVG/1.1/DTD/svg11.dtd">
<!-- Created with matplotlib (https://matplotlib.org/) -->
<svg height="345.6pt" version="1.1" viewBox="0 0 460.8 345.6" width="460.8pt" xmlns="http://www.w3.org/2000/svg" xmlns:xlink="http://www.w3.org/1999/xlink">
 <metadata>
  <rdf:RDF xmlns:cc="http://creativecommons.org/ns#" xmlns:dc="http://purl.org/dc/elements/1.1/" xmlns:rdf="http://www.w3.org/1999/02/22-rdf-syntax-ns#">
   <cc:Work>
    <dc:type rdf:resource="http://purl.org/dc/dcmitype/StillImage"/>
    <dc:date>2021-04-26T15:05:46.459978</dc:date>
    <dc:format>image/svg+xml</dc:format>
    <dc:creator>
     <cc:Agent>
      <dc:title>Matplotlib v3.3.2, https://matplotlib.org/</dc:title>
     </cc:Agent>
    </dc:creator>
   </cc:Work>
  </rdf:RDF>
 </metadata>
 <defs>
  <style type="text/css">*{stroke-linecap:butt;stroke-linejoin:round;}</style>
 </defs>
 <g id="figure_1">
  <g id="patch_1">
   <path d="M 0 345.6 
L 460.8 345.6 
L 460.8 0 
L 0 0 
z
" style="fill:#ffffff;"/>
  </g>
  <g id="axes_1">
   <g id="patch_2">
    <path d="M 57.6 298.944 
L 338.688 298.944 
L 338.688 27.648 
L 57.6 27.648 
z
" style="fill:#ffffff;"/>
   </g>
   <g id="line2d_1">
    <path d="M 81.775977 298.944 
L 81.775977 294.312795 
L 101.646892 294.312795 
L 101.646892 285.050384 
L 114.751048 285.050384 
L 114.751048 275.787974 
L 121.264855 275.787974 
L 121.264855 271.156769 
L 128.560901 271.156769 
L 128.560901 257.263153 
L 135.681535 257.263153 
L 135.681535 248.000743 
L 149.058374 248.000743 
L 149.058374 243.369538 
L 151.461678 243.369538 
L 151.461678 234.107127 
L 160.466062 234.107127 
L 160.466062 220.213512 
L 165.302685 220.213512 
L 165.302685 210.951101 
L 167.892273 210.951101 
L 167.892273 201.688691 
L 170.40555 201.688691 
L 170.40555 192.426281 
L 173.072554 192.426281 
L 173.072554 187.795075 
L 183.695823 187.795075 
L 183.695823 173.90146 
L 188.013903 173.90146 
L 188.013903 169.270255 
L 193.051808 169.270255 
L 193.051808 155.376639 
L 197.439063 155.376639 
L 197.439063 146.114229 
L 204.222526 146.114229 
L 204.222526 141.483024 
L 208.197076 141.483024 
L 208.197076 127.589408 
L 211.10573 127.589408 
L 211.10573 122.958203 
L 215.145787 122.958203 
L 215.145787 109.064587 
L 221.942134 109.064587 
L 221.942134 99.802177 
L 223.456614 99.802177 
L 223.456614 90.539766 
L 225.684748 90.539766 
L 225.684748 85.908561 
L 229.270945 85.908561 
L 229.270945 76.646151 
L 233.912436 76.646151 
L 233.912436 62.752535 
L 338.688 62.752535 
" style="fill:none;stroke:#f5deb3;stroke-linecap:square;stroke-width:4;"/>
   </g>
   <g id="line2d_2">
    <defs>
     <path d="M 0 7.778175 
L 7.778175 0 
L 0 -7.778175 
L -7.778175 0 
z
" id="m8fe553178c" style="stroke:#f5deb3;stroke-linejoin:miter;stroke-width:1.5;"/>
    </defs>
    <g>
     <use style="fill:#f5deb3;stroke:#f5deb3;stroke-linejoin:miter;stroke-width:1.5;" x="160.466062" xlink:href="#m8fe553178c" y="220.213512"/>
     <use style="fill:#f5deb3;stroke:#f5deb3;stroke-linejoin:miter;stroke-width:1.5;" x="208.197076" xlink:href="#m8fe553178c" y="141.483024"/>
     <use style="fill:#f5deb3;stroke:#f5deb3;stroke-linejoin:miter;stroke-width:1.5;" x="233.912436" xlink:href="#m8fe553178c" y="76.646151"/>
     <use style="fill:#f5deb3;stroke:#f5deb3;stroke-linejoin:miter;stroke-width:1.5;" x="233.912436" xlink:href="#m8fe553178c" y="62.752535"/>
     <use style="fill:#f5deb3;stroke:#f5deb3;stroke-linejoin:miter;stroke-width:1.5;" x="338.688" xlink:href="#m8fe553178c" y="62.752535"/>
    </g>
   </g>
   <g id="line2d_3">
    <path style="fill:none;stroke:#f5deb3;stroke-linecap:square;stroke-width:4;"/>
    <g/>
   </g>
   <g id="line2d_4">
    <path d="M 338.688 62.752535 
L 369.60768 35.706297 
" style="fill:none;stroke:#f5deb3;stroke-linecap:square;stroke-width:4;"/>
    <g>
     <use style="fill:#f5deb3;stroke:#f5deb3;stroke-linejoin:miter;stroke-width:1.5;" x="338.688" xlink:href="#m8fe553178c" y="62.752535"/>
     <use style="fill:#f5deb3;stroke:#f5deb3;stroke-linejoin:miter;stroke-width:1.5;" x="369.60768" xlink:href="#m8fe553178c" y="35.706297"/>
    </g>
   </g>
   <g id="matplotlib.axis_1">
    <g id="xtick_1">
     <g id="line2d_5">
      <path clip-path="url(#pdba348d429)" d="M 57.6 298.944 
L 57.6 27.648 
" style="fill:none;stroke:#b0b0b0;stroke-linecap:square;stroke-width:0.8;"/>
     </g>
     <g id="line2d_6">
      <defs>
       <path d="M 0 0 
L 0 3.5 
" id="m3c1470353a" style="stroke:#000000;stroke-width:0.8;"/>
      </defs>
      <g>
       <use style="stroke:#000000;stroke-width:0.8;" x="57.6" xlink:href="#m3c1470353a" y="298.944"/>
      </g>
     </g>
     <g id="text_1">
      <!-- 0 -->
      <g transform="translate(51.2375 321.140875)scale(0.2 -0.2)">
       <defs>
        <path d="M 31.78125 66.40625 
Q 24.171875 66.40625 20.328125 58.90625 
Q 16.5 51.421875 16.5 36.375 
Q 16.5 21.390625 20.328125 13.890625 
Q 24.171875 6.390625 31.78125 6.390625 
Q 39.453125 6.390625 43.28125 13.890625 
Q 47.125 21.390625 47.125 36.375 
Q 47.125 51.421875 43.28125 58.90625 
Q 39.453125 66.40625 31.78125 66.40625 
z
M 31.78125 74.21875 
Q 44.046875 74.21875 50.515625 64.515625 
Q 56.984375 54.828125 56.984375 36.375 
Q 56.984375 17.96875 50.515625 8.265625 
Q 44.046875 -1.421875 31.78125 -1.421875 
Q 19.53125 -1.421875 13.0625 8.265625 
Q 6.59375 17.96875 6.59375 36.375 
Q 6.59375 54.828125 13.0625 64.515625 
Q 19.53125 74.21875 31.78125 74.21875 
z
" id="DejaVuSans-48"/>
       </defs>
       <use xlink:href="#DejaVuSans-48"/>
      </g>
     </g>
    </g>
    <g id="xtick_2">
     <g id="line2d_7">
      <path clip-path="url(#pdba348d429)" d="M 137.910857 298.944 
L 137.910857 27.648 
" style="fill:none;stroke:#b0b0b0;stroke-linecap:square;stroke-width:0.8;"/>
     </g>
     <g id="line2d_8">
      <g>
       <use style="stroke:#000000;stroke-width:0.8;" x="137.910857" xlink:href="#m3c1470353a" y="298.944"/>
      </g>
     </g>
     <g id="text_2">
      <!-- 2 -->
      <g transform="translate(131.548357 321.140875)scale(0.2 -0.2)">
       <defs>
        <path d="M 19.1875 8.296875 
L 53.609375 8.296875 
L 53.609375 0 
L 7.328125 0 
L 7.328125 8.296875 
Q 12.9375 14.109375 22.625 23.890625 
Q 32.328125 33.6875 34.8125 36.53125 
Q 39.546875 41.84375 41.421875 45.53125 
Q 43.3125 49.21875 43.3125 52.78125 
Q 43.3125 58.59375 39.234375 62.25 
Q 35.15625 65.921875 28.609375 65.921875 
Q 23.96875 65.921875 18.8125 64.3125 
Q 13.671875 62.703125 7.8125 59.421875 
L 7.8125 69.390625 
Q 13.765625 71.78125 18.9375 73 
Q 24.125 74.21875 28.421875 74.21875 
Q 39.75 74.21875 46.484375 68.546875 
Q 53.21875 62.890625 53.21875 53.421875 
Q 53.21875 48.921875 51.53125 44.890625 
Q 49.859375 40.875 45.40625 35.40625 
Q 44.1875 33.984375 37.640625 27.21875 
Q 31.109375 20.453125 19.1875 8.296875 
z
" id="DejaVuSans-50"/>
       </defs>
       <use xlink:href="#DejaVuSans-50"/>
      </g>
     </g>
    </g>
    <g id="xtick_3">
     <g id="line2d_9">
      <path clip-path="url(#pdba348d429)" d="M 218.221714 298.944 
L 218.221714 27.648 
" style="fill:none;stroke:#b0b0b0;stroke-linecap:square;stroke-width:0.8;"/>
     </g>
     <g id="line2d_10">
      <g>
       <use style="stroke:#000000;stroke-width:0.8;" x="218.221714" xlink:href="#m3c1470353a" y="298.944"/>
      </g>
     </g>
     <g id="text_3">
      <!-- 4 -->
      <g transform="translate(211.859214 321.140875)scale(0.2 -0.2)">
       <defs>
        <path d="M 37.796875 64.3125 
L 12.890625 25.390625 
L 37.796875 25.390625 
z
M 35.203125 72.90625 
L 47.609375 72.90625 
L 47.609375 25.390625 
L 58.015625 25.390625 
L 58.015625 17.1875 
L 47.609375 17.1875 
L 47.609375 0 
L 37.796875 0 
L 37.796875 17.1875 
L 4.890625 17.1875 
L 4.890625 26.703125 
z
" id="DejaVuSans-52"/>
       </defs>
       <use xlink:href="#DejaVuSans-52"/>
      </g>
     </g>
    </g>
    <g id="xtick_4">
     <g id="line2d_11">
      <path clip-path="url(#pdba348d429)" d="M 298.532571 298.944 
L 298.532571 27.648 
" style="fill:none;stroke:#b0b0b0;stroke-linecap:square;stroke-width:0.8;"/>
     </g>
     <g id="line2d_12">
      <g>
       <use style="stroke:#000000;stroke-width:0.8;" x="298.532571" xlink:href="#m3c1470353a" y="298.944"/>
      </g>
     </g>
     <g id="text_4">
      <!-- 6 -->
      <g transform="translate(292.170071 321.140875)scale(0.2 -0.2)">
       <defs>
        <path d="M 33.015625 40.375 
Q 26.375 40.375 22.484375 35.828125 
Q 18.609375 31.296875 18.609375 23.390625 
Q 18.609375 15.53125 22.484375 10.953125 
Q 26.375 6.390625 33.015625 6.390625 
Q 39.65625 6.390625 43.53125 10.953125 
Q 47.40625 15.53125 47.40625 23.390625 
Q 47.40625 31.296875 43.53125 35.828125 
Q 39.65625 40.375 33.015625 40.375 
z
M 52.59375 71.296875 
L 52.59375 62.3125 
Q 48.875 64.0625 45.09375 64.984375 
Q 41.3125 65.921875 37.59375 65.921875 
Q 27.828125 65.921875 22.671875 59.328125 
Q 17.53125 52.734375 16.796875 39.40625 
Q 19.671875 43.65625 24.015625 45.921875 
Q 28.375 48.1875 33.59375 48.1875 
Q 44.578125 48.1875 50.953125 41.515625 
Q 57.328125 34.859375 57.328125 23.390625 
Q 57.328125 12.15625 50.6875 5.359375 
Q 44.046875 -1.421875 33.015625 -1.421875 
Q 20.359375 -1.421875 13.671875 8.265625 
Q 6.984375 17.96875 6.984375 36.375 
Q 6.984375 53.65625 15.1875 63.9375 
Q 23.390625 74.21875 37.203125 74.21875 
Q 40.921875 74.21875 44.703125 73.484375 
Q 48.484375 72.75 52.59375 71.296875 
z
" id="DejaVuSans-54"/>
       </defs>
       <use xlink:href="#DejaVuSans-54"/>
      </g>
     </g>
    </g>
    <g id="xtick_5">
     <g id="line2d_13">
      <path clip-path="url(#pdba348d429)" d="M 97.755429 298.944 
L 97.755429 27.648 
" style="fill:none;stroke:#b0b0b0;stroke-linecap:square;stroke-width:0.8;"/>
     </g>
     <g id="line2d_14">
      <defs>
       <path d="M 0 0 
L 0 2 
" id="m4eecc8ff3e" style="stroke:#000000;stroke-width:0.6;"/>
      </defs>
      <g>
       <use style="stroke:#000000;stroke-width:0.6;" x="97.755429" xlink:href="#m4eecc8ff3e" y="298.944"/>
      </g>
     </g>
    </g>
    <g id="xtick_6">
     <g id="line2d_15">
      <path clip-path="url(#pdba348d429)" d="M 178.066286 298.944 
L 178.066286 27.648 
" style="fill:none;stroke:#b0b0b0;stroke-linecap:square;stroke-width:0.8;"/>
     </g>
     <g id="line2d_16">
      <g>
       <use style="stroke:#000000;stroke-width:0.6;" x="178.066286" xlink:href="#m4eecc8ff3e" y="298.944"/>
      </g>
     </g>
    </g>
    <g id="xtick_7">
     <g id="line2d_17">
      <path clip-path="url(#pdba348d429)" d="M 258.377143 298.944 
L 258.377143 27.648 
" style="fill:none;stroke:#b0b0b0;stroke-linecap:square;stroke-width:0.8;"/>
     </g>
     <g id="line2d_18">
      <g>
       <use style="stroke:#000000;stroke-width:0.6;" x="258.377143" xlink:href="#m4eecc8ff3e" y="298.944"/>
      </g>
     </g>
    </g>
    <g id="xtick_8">
     <g id="line2d_19">
      <path clip-path="url(#pdba348d429)" d="M 338.688 298.944 
L 338.688 27.648 
" style="fill:none;stroke:#b0b0b0;stroke-linecap:square;stroke-width:0.8;"/>
     </g>
     <g id="line2d_20">
      <g>
       <use style="stroke:#000000;stroke-width:0.6;" x="338.688" xlink:href="#m4eecc8ff3e" y="298.944"/>
      </g>
     </g>
    </g>
    <g id="text_5">
     <!-- log10(# f-evals / dimension) -->
     <g transform="translate(77.764078 342.217594)scale(0.17 -0.17)">
      <defs>
       <path d="M 9.421875 75.984375 
L 18.40625 75.984375 
L 18.40625 0 
L 9.421875 0 
z
" id="DejaVuSans-108"/>
       <path d="M 30.609375 48.390625 
Q 23.390625 48.390625 19.1875 42.75 
Q 14.984375 37.109375 14.984375 27.296875 
Q 14.984375 17.484375 19.15625 11.84375 
Q 23.34375 6.203125 30.609375 6.203125 
Q 37.796875 6.203125 41.984375 11.859375 
Q 46.1875 17.53125 46.1875 27.296875 
Q 46.1875 37.015625 41.984375 42.703125 
Q 37.796875 48.390625 30.609375 48.390625 
z
M 30.609375 56 
Q 42.328125 56 49.015625 48.375 
Q 55.71875 40.765625 55.71875 27.296875 
Q 55.71875 13.875 49.015625 6.21875 
Q 42.328125 -1.421875 30.609375 -1.421875 
Q 18.84375 -1.421875 12.171875 6.21875 
Q 5.515625 13.875 5.515625 27.296875 
Q 5.515625 40.765625 12.171875 48.375 
Q 18.84375 56 30.609375 56 
z
" id="DejaVuSans-111"/>
       <path d="M 45.40625 27.984375 
Q 45.40625 37.75 41.375 43.109375 
Q 37.359375 48.484375 30.078125 48.484375 
Q 22.859375 48.484375 18.828125 43.109375 
Q 14.796875 37.75 14.796875 27.984375 
Q 14.796875 18.265625 18.828125 12.890625 
Q 22.859375 7.515625 30.078125 7.515625 
Q 37.359375 7.515625 41.375 12.890625 
Q 45.40625 18.265625 45.40625 27.984375 
z
M 54.390625 6.78125 
Q 54.390625 -7.171875 48.1875 -13.984375 
Q 42 -20.796875 29.203125 -20.796875 
Q 24.46875 -20.796875 20.265625 -20.09375 
Q 16.0625 -19.390625 12.109375 -17.921875 
L 12.109375 -9.1875 
Q 16.0625 -11.328125 19.921875 -12.34375 
Q 23.78125 -13.375 27.78125 -13.375 
Q 36.625 -13.375 41.015625 -8.765625 
Q 45.40625 -4.15625 45.40625 5.171875 
L 45.40625 9.625 
Q 42.625 4.78125 38.28125 2.390625 
Q 33.9375 0 27.875 0 
Q 17.828125 0 11.671875 7.65625 
Q 5.515625 15.328125 5.515625 27.984375 
Q 5.515625 40.671875 11.671875 48.328125 
Q 17.828125 56 27.875 56 
Q 33.9375 56 38.28125 53.609375 
Q 42.625 51.21875 45.40625 46.390625 
L 45.40625 54.6875 
L 54.390625 54.6875 
z
" id="DejaVuSans-103"/>
       <path d="M 12.40625 8.296875 
L 28.515625 8.296875 
L 28.515625 63.921875 
L 10.984375 60.40625 
L 10.984375 69.390625 
L 28.421875 72.90625 
L 38.28125 72.90625 
L 38.28125 8.296875 
L 54.390625 8.296875 
L 54.390625 0 
L 12.40625 0 
z
" id="DejaVuSans-49"/>
       <path d="M 31 75.875 
Q 24.46875 64.65625 21.28125 53.65625 
Q 18.109375 42.671875 18.109375 31.390625 
Q 18.109375 20.125 21.3125 9.0625 
Q 24.515625 -2 31 -13.1875 
L 23.1875 -13.1875 
Q 15.875 -1.703125 12.234375 9.375 
Q 8.59375 20.453125 8.59375 31.390625 
Q 8.59375 42.28125 12.203125 53.3125 
Q 15.828125 64.359375 23.1875 75.875 
z
" id="DejaVuSans-40"/>
       <path d="M 51.125 44 
L 36.921875 44 
L 32.8125 27.6875 
L 47.125 27.6875 
z
M 43.796875 71.78125 
L 38.71875 51.515625 
L 52.984375 51.515625 
L 58.109375 71.78125 
L 65.921875 71.78125 
L 60.890625 51.515625 
L 76.125 51.515625 
L 76.125 44 
L 58.984375 44 
L 54.984375 27.6875 
L 70.515625 27.6875 
L 70.515625 20.21875 
L 53.078125 20.21875 
L 48 0 
L 40.1875 0 
L 45.21875 20.21875 
L 30.90625 20.21875 
L 25.875 0 
L 18.015625 0 
L 23.09375 20.21875 
L 7.71875 20.21875 
L 7.71875 27.6875 
L 24.90625 27.6875 
L 29 44 
L 13.28125 44 
L 13.28125 51.515625 
L 30.90625 51.515625 
L 35.890625 71.78125 
z
" id="DejaVuSans-35"/>
       <path id="DejaVuSans-32"/>
       <path d="M 37.109375 75.984375 
L 37.109375 68.5 
L 28.515625 68.5 
Q 23.6875 68.5 21.796875 66.546875 
Q 19.921875 64.59375 19.921875 59.515625 
L 19.921875 54.6875 
L 34.71875 54.6875 
L 34.71875 47.703125 
L 19.921875 47.703125 
L 19.921875 0 
L 10.890625 0 
L 10.890625 47.703125 
L 2.296875 47.703125 
L 2.296875 54.6875 
L 10.890625 54.6875 
L 10.890625 58.5 
Q 10.890625 67.625 15.140625 71.796875 
Q 19.390625 75.984375 28.609375 75.984375 
z
" id="DejaVuSans-102"/>
       <path d="M 4.890625 31.390625 
L 31.203125 31.390625 
L 31.203125 23.390625 
L 4.890625 23.390625 
z
" id="DejaVuSans-45"/>
       <path d="M 56.203125 29.59375 
L 56.203125 25.203125 
L 14.890625 25.203125 
Q 15.484375 15.921875 20.484375 11.0625 
Q 25.484375 6.203125 34.421875 6.203125 
Q 39.59375 6.203125 44.453125 7.46875 
Q 49.3125 8.734375 54.109375 11.28125 
L 54.109375 2.78125 
Q 49.265625 0.734375 44.1875 -0.34375 
Q 39.109375 -1.421875 33.890625 -1.421875 
Q 20.796875 -1.421875 13.15625 6.1875 
Q 5.515625 13.8125 5.515625 26.8125 
Q 5.515625 40.234375 12.765625 48.109375 
Q 20.015625 56 32.328125 56 
Q 43.359375 56 49.78125 48.890625 
Q 56.203125 41.796875 56.203125 29.59375 
z
M 47.21875 32.234375 
Q 47.125 39.59375 43.09375 43.984375 
Q 39.0625 48.390625 32.421875 48.390625 
Q 24.90625 48.390625 20.390625 44.140625 
Q 15.875 39.890625 15.1875 32.171875 
z
" id="DejaVuSans-101"/>
       <path d="M 2.984375 54.6875 
L 12.5 54.6875 
L 29.59375 8.796875 
L 46.6875 54.6875 
L 56.203125 54.6875 
L 35.6875 0 
L 23.484375 0 
z
" id="DejaVuSans-118"/>
       <path d="M 34.28125 27.484375 
Q 23.390625 27.484375 19.1875 25 
Q 14.984375 22.515625 14.984375 16.5 
Q 14.984375 11.71875 18.140625 8.90625 
Q 21.296875 6.109375 26.703125 6.109375 
Q 34.1875 6.109375 38.703125 11.40625 
Q 43.21875 16.703125 43.21875 25.484375 
L 43.21875 27.484375 
z
M 52.203125 31.203125 
L 52.203125 0 
L 43.21875 0 
L 43.21875 8.296875 
Q 40.140625 3.328125 35.546875 0.953125 
Q 30.953125 -1.421875 24.3125 -1.421875 
Q 15.921875 -1.421875 10.953125 3.296875 
Q 6 8.015625 6 15.921875 
Q 6 25.140625 12.171875 29.828125 
Q 18.359375 34.515625 30.609375 34.515625 
L 43.21875 34.515625 
L 43.21875 35.40625 
Q 43.21875 41.609375 39.140625 45 
Q 35.0625 48.390625 27.6875 48.390625 
Q 23 48.390625 18.546875 47.265625 
Q 14.109375 46.140625 10.015625 43.890625 
L 10.015625 52.203125 
Q 14.9375 54.109375 19.578125 55.046875 
Q 24.21875 56 28.609375 56 
Q 40.484375 56 46.34375 49.84375 
Q 52.203125 43.703125 52.203125 31.203125 
z
" id="DejaVuSans-97"/>
       <path d="M 44.28125 53.078125 
L 44.28125 44.578125 
Q 40.484375 46.53125 36.375 47.5 
Q 32.28125 48.484375 27.875 48.484375 
Q 21.1875 48.484375 17.84375 46.4375 
Q 14.5 44.390625 14.5 40.28125 
Q 14.5 37.15625 16.890625 35.375 
Q 19.28125 33.59375 26.515625 31.984375 
L 29.59375 31.296875 
Q 39.15625 29.25 43.1875 25.515625 
Q 47.21875 21.78125 47.21875 15.09375 
Q 47.21875 7.46875 41.1875 3.015625 
Q 35.15625 -1.421875 24.609375 -1.421875 
Q 20.21875 -1.421875 15.453125 -0.5625 
Q 10.6875 0.296875 5.421875 2 
L 5.421875 11.28125 
Q 10.40625 8.6875 15.234375 7.390625 
Q 20.0625 6.109375 24.8125 6.109375 
Q 31.15625 6.109375 34.5625 8.28125 
Q 37.984375 10.453125 37.984375 14.40625 
Q 37.984375 18.0625 35.515625 20.015625 
Q 33.0625 21.96875 24.703125 23.78125 
L 21.578125 24.515625 
Q 13.234375 26.265625 9.515625 29.90625 
Q 5.8125 33.546875 5.8125 39.890625 
Q 5.8125 47.609375 11.28125 51.796875 
Q 16.75 56 26.8125 56 
Q 31.78125 56 36.171875 55.265625 
Q 40.578125 54.546875 44.28125 53.078125 
z
" id="DejaVuSans-115"/>
       <path d="M 25.390625 72.90625 
L 33.6875 72.90625 
L 8.296875 -9.28125 
L 0 -9.28125 
z
" id="DejaVuSans-47"/>
       <path d="M 45.40625 46.390625 
L 45.40625 75.984375 
L 54.390625 75.984375 
L 54.390625 0 
L 45.40625 0 
L 45.40625 8.203125 
Q 42.578125 3.328125 38.25 0.953125 
Q 33.9375 -1.421875 27.875 -1.421875 
Q 17.96875 -1.421875 11.734375 6.484375 
Q 5.515625 14.40625 5.515625 27.296875 
Q 5.515625 40.1875 11.734375 48.09375 
Q 17.96875 56 27.875 56 
Q 33.9375 56 38.25 53.625 
Q 42.578125 51.265625 45.40625 46.390625 
z
M 14.796875 27.296875 
Q 14.796875 17.390625 18.875 11.75 
Q 22.953125 6.109375 30.078125 6.109375 
Q 37.203125 6.109375 41.296875 11.75 
Q 45.40625 17.390625 45.40625 27.296875 
Q 45.40625 37.203125 41.296875 42.84375 
Q 37.203125 48.484375 30.078125 48.484375 
Q 22.953125 48.484375 18.875 42.84375 
Q 14.796875 37.203125 14.796875 27.296875 
z
" id="DejaVuSans-100"/>
       <path d="M 9.421875 54.6875 
L 18.40625 54.6875 
L 18.40625 0 
L 9.421875 0 
z
M 9.421875 75.984375 
L 18.40625 75.984375 
L 18.40625 64.59375 
L 9.421875 64.59375 
z
" id="DejaVuSans-105"/>
       <path d="M 52 44.1875 
Q 55.375 50.25 60.0625 53.125 
Q 64.75 56 71.09375 56 
Q 79.640625 56 84.28125 50.015625 
Q 88.921875 44.046875 88.921875 33.015625 
L 88.921875 0 
L 79.890625 0 
L 79.890625 32.71875 
Q 79.890625 40.578125 77.09375 44.375 
Q 74.3125 48.1875 68.609375 48.1875 
Q 61.625 48.1875 57.5625 43.546875 
Q 53.515625 38.921875 53.515625 30.90625 
L 53.515625 0 
L 44.484375 0 
L 44.484375 32.71875 
Q 44.484375 40.625 41.703125 44.40625 
Q 38.921875 48.1875 33.109375 48.1875 
Q 26.21875 48.1875 22.15625 43.53125 
Q 18.109375 38.875 18.109375 30.90625 
L 18.109375 0 
L 9.078125 0 
L 9.078125 54.6875 
L 18.109375 54.6875 
L 18.109375 46.1875 
Q 21.1875 51.21875 25.484375 53.609375 
Q 29.78125 56 35.6875 56 
Q 41.65625 56 45.828125 52.96875 
Q 50 49.953125 52 44.1875 
z
" id="DejaVuSans-109"/>
       <path d="M 54.890625 33.015625 
L 54.890625 0 
L 45.90625 0 
L 45.90625 32.71875 
Q 45.90625 40.484375 42.875 44.328125 
Q 39.84375 48.1875 33.796875 48.1875 
Q 26.515625 48.1875 22.3125 43.546875 
Q 18.109375 38.921875 18.109375 30.90625 
L 18.109375 0 
L 9.078125 0 
L 9.078125 54.6875 
L 18.109375 54.6875 
L 18.109375 46.1875 
Q 21.34375 51.125 25.703125 53.5625 
Q 30.078125 56 35.796875 56 
Q 45.21875 56 50.046875 50.171875 
Q 54.890625 44.34375 54.890625 33.015625 
z
" id="DejaVuSans-110"/>
       <path d="M 8.015625 75.875 
L 15.828125 75.875 
Q 23.140625 64.359375 26.78125 53.3125 
Q 30.421875 42.28125 30.421875 31.390625 
Q 30.421875 20.453125 26.78125 9.375 
Q 23.140625 -1.703125 15.828125 -13.1875 
L 8.015625 -13.1875 
Q 14.5 -2 17.703125 9.0625 
Q 20.90625 20.125 20.90625 31.390625 
Q 20.90625 42.671875 17.703125 53.65625 
Q 14.5 64.65625 8.015625 75.875 
z
" id="DejaVuSans-41"/>
      </defs>
      <use xlink:href="#DejaVuSans-108"/>
      <use x="27.783203" xlink:href="#DejaVuSans-111"/>
      <use x="88.964844" xlink:href="#DejaVuSans-103"/>
      <use x="152.441406" xlink:href="#DejaVuSans-49"/>
      <use x="216.064453" xlink:href="#DejaVuSans-48"/>
      <use x="279.6875" xlink:href="#DejaVuSans-40"/>
      <use x="318.701172" xlink:href="#DejaVuSans-35"/>
      <use x="402.490234" xlink:href="#DejaVuSans-32"/>
      <use x="434.277344" xlink:href="#DejaVuSans-102"/>
      <use x="463.982422" xlink:href="#DejaVuSans-45"/>
      <use x="500.066406" xlink:href="#DejaVuSans-101"/>
      <use x="561.589844" xlink:href="#DejaVuSans-118"/>
      <use x="620.769531" xlink:href="#DejaVuSans-97"/>
      <use x="682.048828" xlink:href="#DejaVuSans-108"/>
      <use x="709.832031" xlink:href="#DejaVuSans-115"/>
      <use x="761.931641" xlink:href="#DejaVuSans-32"/>
      <use x="793.71875" xlink:href="#DejaVuSans-47"/>
      <use x="827.410156" xlink:href="#DejaVuSans-32"/>
      <use x="859.197266" xlink:href="#DejaVuSans-100"/>
      <use x="922.673828" xlink:href="#DejaVuSans-105"/>
      <use x="950.457031" xlink:href="#DejaVuSans-109"/>
      <use x="1047.869141" xlink:href="#DejaVuSans-101"/>
      <use x="1109.392578" xlink:href="#DejaVuSans-110"/>
      <use x="1172.771484" xlink:href="#DejaVuSans-115"/>
      <use x="1224.871094" xlink:href="#DejaVuSans-105"/>
      <use x="1252.654297" xlink:href="#DejaVuSans-111"/>
      <use x="1313.835938" xlink:href="#DejaVuSans-110"/>
      <use x="1377.214844" xlink:href="#DejaVuSans-41"/>
     </g>
    </g>
   </g>
   <g id="matplotlib.axis_2">
    <g id="ytick_1">
     <g id="line2d_21">
      <path clip-path="url(#pdba348d429)" d="M 57.6 298.944 
L 338.688 298.944 
" style="fill:none;stroke:#b0b0b0;stroke-linecap:square;stroke-width:0.8;"/>
     </g>
     <g id="line2d_22">
      <defs>
       <path d="M 0 0 
L -3.5 0 
" id="me0c204ea12" style="stroke:#000000;stroke-width:0.8;"/>
      </defs>
      <g>
       <use style="stroke:#000000;stroke-width:0.8;" x="57.6" xlink:href="#me0c204ea12" y="298.944"/>
      </g>
     </g>
     <g id="text_6">
      <!-- 0.0 -->
      <g transform="translate(25.155 305.02275)scale(0.16 -0.16)">
       <defs>
        <path d="M 10.6875 12.40625 
L 21 12.40625 
L 21 0 
L 10.6875 0 
z
" id="DejaVuSans-46"/>
       </defs>
       <use xlink:href="#DejaVuSans-48"/>
       <use x="63.623047" xlink:href="#DejaVuSans-46"/>
       <use x="95.410156" xlink:href="#DejaVuSans-48"/>
      </g>
     </g>
    </g>
    <g id="ytick_2">
     <g id="line2d_23">
      <path clip-path="url(#pdba348d429)" d="M 57.6 245.22202 
L 338.688 245.22202 
" style="fill:none;stroke:#b0b0b0;stroke-linecap:square;stroke-width:0.8;"/>
     </g>
     <g id="line2d_24">
      <g>
       <use style="stroke:#000000;stroke-width:0.8;" x="57.6" xlink:href="#me0c204ea12" y="245.22202"/>
      </g>
     </g>
     <g id="text_7">
      <!-- 0.2 -->
      <g transform="translate(25.155 251.30077)scale(0.16 -0.16)">
       <use xlink:href="#DejaVuSans-48"/>
       <use x="63.623047" xlink:href="#DejaVuSans-46"/>
       <use x="95.410156" xlink:href="#DejaVuSans-50"/>
      </g>
     </g>
    </g>
    <g id="ytick_3">
     <g id="line2d_25">
      <path clip-path="url(#pdba348d429)" d="M 57.6 191.50004 
L 338.688 191.50004 
" style="fill:none;stroke:#b0b0b0;stroke-linecap:square;stroke-width:0.8;"/>
     </g>
     <g id="line2d_26">
      <g>
       <use style="stroke:#000000;stroke-width:0.8;" x="57.6" xlink:href="#me0c204ea12" y="191.50004"/>
      </g>
     </g>
     <g id="text_8">
      <!-- 0.4 -->
      <g transform="translate(25.155 197.57879)scale(0.16 -0.16)">
       <use xlink:href="#DejaVuSans-48"/>
       <use x="63.623047" xlink:href="#DejaVuSans-46"/>
       <use x="95.410156" xlink:href="#DejaVuSans-52"/>
      </g>
     </g>
    </g>
    <g id="ytick_4">
     <g id="line2d_27">
      <path clip-path="url(#pdba348d429)" d="M 57.6 137.778059 
L 338.688 137.778059 
" style="fill:none;stroke:#b0b0b0;stroke-linecap:square;stroke-width:0.8;"/>
     </g>
     <g id="line2d_28">
      <g>
       <use style="stroke:#000000;stroke-width:0.8;" x="57.6" xlink:href="#me0c204ea12" y="137.778059"/>
      </g>
     </g>
     <g id="text_9">
      <!-- 0.6 -->
      <g transform="translate(25.155 143.856809)scale(0.16 -0.16)">
       <use xlink:href="#DejaVuSans-48"/>
       <use x="63.623047" xlink:href="#DejaVuSans-46"/>
       <use x="95.410156" xlink:href="#DejaVuSans-54"/>
      </g>
     </g>
    </g>
    <g id="ytick_5">
     <g id="line2d_29">
      <path clip-path="url(#pdba348d429)" d="M 57.6 84.056079 
L 338.688 84.056079 
" style="fill:none;stroke:#b0b0b0;stroke-linecap:square;stroke-width:0.8;"/>
     </g>
     <g id="line2d_30">
      <g>
       <use style="stroke:#000000;stroke-width:0.8;" x="57.6" xlink:href="#me0c204ea12" y="84.056079"/>
      </g>
     </g>
     <g id="text_10">
      <!-- 0.8 -->
      <g transform="translate(25.155 90.134829)scale(0.16 -0.16)">
       <defs>
        <path d="M 31.78125 34.625 
Q 24.75 34.625 20.71875 30.859375 
Q 16.703125 27.09375 16.703125 20.515625 
Q 16.703125 13.921875 20.71875 10.15625 
Q 24.75 6.390625 31.78125 6.390625 
Q 38.8125 6.390625 42.859375 10.171875 
Q 46.921875 13.96875 46.921875 20.515625 
Q 46.921875 27.09375 42.890625 30.859375 
Q 38.875 34.625 31.78125 34.625 
z
M 21.921875 38.8125 
Q 15.578125 40.375 12.03125 44.71875 
Q 8.5 49.078125 8.5 55.328125 
Q 8.5 64.0625 14.71875 69.140625 
Q 20.953125 74.21875 31.78125 74.21875 
Q 42.671875 74.21875 48.875 69.140625 
Q 55.078125 64.0625 55.078125 55.328125 
Q 55.078125 49.078125 51.53125 44.71875 
Q 48 40.375 41.703125 38.8125 
Q 48.828125 37.15625 52.796875 32.3125 
Q 56.78125 27.484375 56.78125 20.515625 
Q 56.78125 9.90625 50.3125 4.234375 
Q 43.84375 -1.421875 31.78125 -1.421875 
Q 19.734375 -1.421875 13.25 4.234375 
Q 6.78125 9.90625 6.78125 20.515625 
Q 6.78125 27.484375 10.78125 32.3125 
Q 14.796875 37.15625 21.921875 38.8125 
z
M 18.3125 54.390625 
Q 18.3125 48.734375 21.84375 45.5625 
Q 25.390625 42.390625 31.78125 42.390625 
Q 38.140625 42.390625 41.71875 45.5625 
Q 45.3125 48.734375 45.3125 54.390625 
Q 45.3125 60.0625 41.71875 63.234375 
Q 38.140625 66.40625 31.78125 66.40625 
Q 25.390625 66.40625 21.84375 63.234375 
Q 18.3125 60.0625 18.3125 54.390625 
z
" id="DejaVuSans-56"/>
       </defs>
       <use xlink:href="#DejaVuSans-48"/>
       <use x="63.623047" xlink:href="#DejaVuSans-46"/>
       <use x="95.410156" xlink:href="#DejaVuSans-56"/>
      </g>
     </g>
    </g>
    <g id="ytick_6">
     <g id="line2d_31">
      <path clip-path="url(#pdba348d429)" d="M 57.6 30.334099 
L 338.688 30.334099 
" style="fill:none;stroke:#b0b0b0;stroke-linecap:square;stroke-width:0.8;"/>
     </g>
     <g id="line2d_32">
      <g>
       <use style="stroke:#000000;stroke-width:0.8;" x="57.6" xlink:href="#me0c204ea12" y="30.334099"/>
      </g>
     </g>
     <g id="text_11">
      <!-- 1.0 -->
      <g transform="translate(25.155 36.412849)scale(0.16 -0.16)">
       <use xlink:href="#DejaVuSans-49"/>
       <use x="63.623047" xlink:href="#DejaVuSans-46"/>
       <use x="95.410156" xlink:href="#DejaVuSans-48"/>
      </g>
     </g>
    </g>
    <g id="text_12">
     <!-- Fraction of function,target pairs -->
     <g transform="translate(17.619531 297.681)rotate(-90)scale(0.17 -0.17)">
      <defs>
       <path d="M 9.8125 72.90625 
L 51.703125 72.90625 
L 51.703125 64.59375 
L 19.671875 64.59375 
L 19.671875 43.109375 
L 48.578125 43.109375 
L 48.578125 34.8125 
L 19.671875 34.8125 
L 19.671875 0 
L 9.8125 0 
z
" id="DejaVuSans-70"/>
       <path d="M 41.109375 46.296875 
Q 39.59375 47.171875 37.8125 47.578125 
Q 36.03125 48 33.890625 48 
Q 26.265625 48 22.1875 43.046875 
Q 18.109375 38.09375 18.109375 28.8125 
L 18.109375 0 
L 9.078125 0 
L 9.078125 54.6875 
L 18.109375 54.6875 
L 18.109375 46.1875 
Q 20.953125 51.171875 25.484375 53.578125 
Q 30.03125 56 36.53125 56 
Q 37.453125 56 38.578125 55.875 
Q 39.703125 55.765625 41.0625 55.515625 
z
" id="DejaVuSans-114"/>
       <path d="M 48.78125 52.59375 
L 48.78125 44.1875 
Q 44.96875 46.296875 41.140625 47.34375 
Q 37.3125 48.390625 33.40625 48.390625 
Q 24.65625 48.390625 19.8125 42.84375 
Q 14.984375 37.3125 14.984375 27.296875 
Q 14.984375 17.28125 19.8125 11.734375 
Q 24.65625 6.203125 33.40625 6.203125 
Q 37.3125 6.203125 41.140625 7.25 
Q 44.96875 8.296875 48.78125 10.40625 
L 48.78125 2.09375 
Q 45.015625 0.34375 40.984375 -0.53125 
Q 36.96875 -1.421875 32.421875 -1.421875 
Q 20.0625 -1.421875 12.78125 6.34375 
Q 5.515625 14.109375 5.515625 27.296875 
Q 5.515625 40.671875 12.859375 48.328125 
Q 20.21875 56 33.015625 56 
Q 37.15625 56 41.109375 55.140625 
Q 45.0625 54.296875 48.78125 52.59375 
z
" id="DejaVuSans-99"/>
       <path d="M 18.3125 70.21875 
L 18.3125 54.6875 
L 36.8125 54.6875 
L 36.8125 47.703125 
L 18.3125 47.703125 
L 18.3125 18.015625 
Q 18.3125 11.328125 20.140625 9.421875 
Q 21.96875 7.515625 27.59375 7.515625 
L 36.8125 7.515625 
L 36.8125 0 
L 27.59375 0 
Q 17.1875 0 13.234375 3.875 
Q 9.28125 7.765625 9.28125 18.015625 
L 9.28125 47.703125 
L 2.6875 47.703125 
L 2.6875 54.6875 
L 9.28125 54.6875 
L 9.28125 70.21875 
z
" id="DejaVuSans-116"/>
       <path d="M 8.5 21.578125 
L 8.5 54.6875 
L 17.484375 54.6875 
L 17.484375 21.921875 
Q 17.484375 14.15625 20.5 10.265625 
Q 23.53125 6.390625 29.59375 6.390625 
Q 36.859375 6.390625 41.078125 11.03125 
Q 45.3125 15.671875 45.3125 23.6875 
L 45.3125 54.6875 
L 54.296875 54.6875 
L 54.296875 0 
L 45.3125 0 
L 45.3125 8.40625 
Q 42.046875 3.421875 37.71875 1 
Q 33.40625 -1.421875 27.6875 -1.421875 
Q 18.265625 -1.421875 13.375 4.4375 
Q 8.5 10.296875 8.5 21.578125 
z
M 31.109375 56 
z
" id="DejaVuSans-117"/>
       <path d="M 11.71875 12.40625 
L 22.015625 12.40625 
L 22.015625 4 
L 14.015625 -11.625 
L 7.71875 -11.625 
L 11.71875 4 
z
" id="DejaVuSans-44"/>
       <path d="M 18.109375 8.203125 
L 18.109375 -20.796875 
L 9.078125 -20.796875 
L 9.078125 54.6875 
L 18.109375 54.6875 
L 18.109375 46.390625 
Q 20.953125 51.265625 25.265625 53.625 
Q 29.59375 56 35.59375 56 
Q 45.5625 56 51.78125 48.09375 
Q 58.015625 40.1875 58.015625 27.296875 
Q 58.015625 14.40625 51.78125 6.484375 
Q 45.5625 -1.421875 35.59375 -1.421875 
Q 29.59375 -1.421875 25.265625 0.953125 
Q 20.953125 3.328125 18.109375 8.203125 
z
M 48.6875 27.296875 
Q 48.6875 37.203125 44.609375 42.84375 
Q 40.53125 48.484375 33.40625 48.484375 
Q 26.265625 48.484375 22.1875 42.84375 
Q 18.109375 37.203125 18.109375 27.296875 
Q 18.109375 17.390625 22.1875 11.75 
Q 26.265625 6.109375 33.40625 6.109375 
Q 40.53125 6.109375 44.609375 11.75 
Q 48.6875 17.390625 48.6875 27.296875 
z
" id="DejaVuSans-112"/>
      </defs>
      <use xlink:href="#DejaVuSans-70"/>
      <use x="50.269531" xlink:href="#DejaVuSans-114"/>
      <use x="91.382812" xlink:href="#DejaVuSans-97"/>
      <use x="152.662109" xlink:href="#DejaVuSans-99"/>
      <use x="207.642578" xlink:href="#DejaVuSans-116"/>
      <use x="246.851562" xlink:href="#DejaVuSans-105"/>
      <use x="274.634766" xlink:href="#DejaVuSans-111"/>
      <use x="335.816406" xlink:href="#DejaVuSans-110"/>
      <use x="399.195312" xlink:href="#DejaVuSans-32"/>
      <use x="430.982422" xlink:href="#DejaVuSans-111"/>
      <use x="492.164062" xlink:href="#DejaVuSans-102"/>
      <use x="527.369141" xlink:href="#DejaVuSans-32"/>
      <use x="559.15625" xlink:href="#DejaVuSans-102"/>
      <use x="594.361328" xlink:href="#DejaVuSans-117"/>
      <use x="657.740234" xlink:href="#DejaVuSans-110"/>
      <use x="721.119141" xlink:href="#DejaVuSans-99"/>
      <use x="776.099609" xlink:href="#DejaVuSans-116"/>
      <use x="815.308594" xlink:href="#DejaVuSans-105"/>
      <use x="843.091797" xlink:href="#DejaVuSans-111"/>
      <use x="904.273438" xlink:href="#DejaVuSans-110"/>
      <use x="967.652344" xlink:href="#DejaVuSans-44"/>
      <use x="999.439453" xlink:href="#DejaVuSans-116"/>
      <use x="1038.648438" xlink:href="#DejaVuSans-97"/>
      <use x="1099.927734" xlink:href="#DejaVuSans-114"/>
      <use x="1139.291016" xlink:href="#DejaVuSans-103"/>
      <use x="1202.767578" xlink:href="#DejaVuSans-101"/>
      <use x="1264.291016" xlink:href="#DejaVuSans-116"/>
      <use x="1303.5" xlink:href="#DejaVuSans-32"/>
      <use x="1335.287109" xlink:href="#DejaVuSans-112"/>
      <use x="1398.763672" xlink:href="#DejaVuSans-97"/>
      <use x="1460.042969" xlink:href="#DejaVuSans-105"/>
      <use x="1487.826172" xlink:href="#DejaVuSans-114"/>
      <use x="1528.939453" xlink:href="#DejaVuSans-115"/>
     </g>
    </g>
   </g>
   <g id="line2d_33">
    <defs>
     <path d="M 0 1.5 
C 0.397805 1.5 0.77937 1.341951 1.06066 1.06066 
C 1.341951 0.77937 1.5 0.397805 1.5 0 
C 1.5 -0.397805 1.341951 -0.77937 1.06066 -1.06066 
C 0.77937 -1.341951 0.397805 -1.5 0 -1.5 
C -0.397805 -1.5 -0.77937 -1.341951 -1.06066 -1.06066 
C -1.341951 -0.77937 -1.5 -0.397805 -1.5 0 
C -1.5 0.397805 -1.341951 0.77937 -1.06066 1.06066 
C -0.77937 1.341951 -0.397805 1.5 0 1.5 
z
" id="mfca6e78c6c" style="stroke:#f5deb3;"/>
    </defs>
    <g>
     <use style="fill:#f5deb3;stroke:#f5deb3;" x="233.912436" xlink:href="#mfca6e78c6c" y="62.752535"/>
     <use style="fill:#f5deb3;stroke:#f5deb3;" x="233.912436" xlink:href="#mfca6e78c6c" y="62.752535"/>
    </g>
   </g>
   <g id="line2d_34">
    <defs>
     <path d="M 0 1.5 
C 0.397805 1.5 0.77937 1.341951 1.06066 1.06066 
C 1.341951 0.77937 1.5 0.397805 1.5 0 
C 1.5 -0.397805 1.341951 -0.77937 1.06066 -1.06066 
C 0.77937 -1.341951 0.397805 -1.5 0 -1.5 
C -0.397805 -1.5 -0.77937 -1.341951 -1.06066 -1.06066 
C -1.341951 -0.77937 -1.5 -0.397805 -1.5 0 
C -1.5 0.397805 -1.341951 0.77937 -1.06066 1.06066 
C -0.77937 1.341951 -0.397805 1.5 0 1.5 
z
" id="m680aefc044" style="stroke:#000080;"/>
    </defs>
    <g>
     <use style="fill:#000080;stroke:#000080;" x="248.894773" xlink:href="#m680aefc044" y="100.728418"/>
     <use style="fill:#000080;stroke:#000080;" x="248.894773" xlink:href="#m680aefc044" y="100.728418"/>
    </g>
   </g>
   <g id="line2d_35">
    <path d="M 45.512012 298.944 
L 45.512012 295.702156 
L 64.67102 295.702156 
L 64.67102 292.460313 
L 69.687988 292.460313 
L 69.687988 291.534072 
L 81.775977 291.534072 
L 81.775977 288.292228 
L 83.830028 288.292228 
L 83.830028 287.365987 
L 87.329581 287.365987 
L 87.329581 286.439746 
L 90.242884 286.439746 
L 90.242884 285.976625 
L 91.535274 285.976625 
L 91.535274 284.587264 
L 97.755429 284.587264 
L 97.755429 283.197902 
L 102.989037 283.197902 
L 102.989037 282.734782 
L 108.006005 282.734782 
L 108.006005 282.271661 
L 108.948899 282.271661 
L 108.948899 280.8823 
L 114.080224 280.8823 
L 114.080224 280.419179 
L 115.711251 280.419179 
L 115.711251 279.492938 
L 116.019919 279.492938 
L 116.019919 277.640456 
L 116.621333 277.640456 
L 116.621333 277.177336 
L 122.148045 277.177336 
L 122.148045 276.251095 
L 122.782271 276.251095 
L 122.782271 275.324854 
L 124.557288 275.324854 
L 124.557288 274.861733 
L 125.110962 274.861733 
L 125.110962 274.398612 
L 125.822869 274.398612 
L 125.822869 273.472371 
L 127.48501 273.472371 
L 127.48501 273.009251 
L 127.642832 273.009251 
L 127.642832 272.54613 
L 129.290685 272.54613 
L 129.290685 270.693648 
L 131.312942 270.693648 
L 131.312942 270.230528 
L 131.439773 270.230528 
L 131.439773 269.767407 
L 132.181982 269.767407 
L 132.181982 269.304287 
L 133.689303 269.304287 
L 133.800029 268.378046 
L 137.37967 268.378046 
L 137.37967 267.914925 
L 138.426341 267.914925 
L 138.426341 266.988684 
L 138.761723 266.988684 
L 138.761723 266.525564 
L 140.195896 266.525564 
L 140.195896 266.062443 
L 140.499195 266.062443 
L 140.499195 265.599323 
L 140.723258 265.599323 
L 140.723258 264.673082 
L 142.010346 264.673082 
L 142.010346 264.209961 
L 143.208936 264.209961 
L 143.208936 263.746841 
L 143.527762 263.746841 
L 143.527762 263.28372 
L 143.964547 263.28372 
L 143.964547 262.357479 
L 144.629556 262.357479 
L 144.629556 261.431238 
L 147.061745 261.431238 
L 147.061745 259.578756 
L 147.215849 259.578756 
L 147.215849 259.115635 
L 147.419225 259.115635 
L 147.419225 258.189394 
L 147.917524 258.189394 
L 147.917524 257.726274 
L 151.818809 257.726274 
L 151.818809 257.263153 
L 152.624728 257.263153 
L 152.624728 256.800033 
L 153.502361 256.800033 
L 153.502361 256.336912 
L 155.647315 256.336912 
L 155.647315 255.873792 
L 156.357959 255.873792 
L 156.357959 254.02131 
L 157.040776 254.02131 
L 157.040776 253.558189 
L 157.613546 253.558189 
L 157.613546 253.095069 
L 159.278248 253.095069 
L 159.278248 252.168828 
L 160.680044 252.168828 
L 160.680044 251.705707 
L 161.999419 251.705707 
L 161.999419 250.779466 
L 162.303474 250.779466 
L 162.410793 249.853225 
L 163.082425 249.853225 
L 163.082425 248.000743 
L 163.569701 248.000743 
L 163.569701 247.537622 
L 163.748975 247.537622 
L 163.748975 246.611381 
L 164.160252 246.611381 
L 164.160252 245.68514 
L 164.824867 245.68514 
L 164.824867 244.758899 
L 165.302685 244.758899 
L 165.302685 244.295779 
L 166.013141 244.295779 
L 166.013141 243.369538 
L 166.357802 243.369538 
L 166.391896 242.443297 
L 167.076532 242.443297 
L 167.076532 241.517056 
L 169.78585 241.517056 
L 169.78585 241.053935 
L 170.119095 241.053935 
L 170.119095 240.590815 
L 170.620687 240.590815 
L 170.620687 239.664574 
L 171.121244 239.664574 
L 171.121244 238.738333 
L 172.97942 238.738333 
L 173.06094 237.348971 
L 174.240098 237.348971 
L 174.240098 236.88585 
L 174.911127 236.88585 
L 174.911127 236.42273 
L 175.415753 236.42273 
L 175.486665 234.107127 
L 175.697687 234.107127 
L 175.697687 233.180886 
L 176.335123 233.180886 
L 176.335123 231.328404 
L 176.687829 231.328404 
L 176.687829 230.865284 
L 177.381607 230.865284 
L 177.381607 230.402163 
L 178.624047 230.402163 
L 178.624047 229.939043 
L 179.440696 229.939043 
L 179.440696 229.012802 
L 180.034869 229.012802 
L 180.034869 228.549681 
L 181.245843 228.549681 
L 181.245843 228.086561 
L 182.547572 228.086561 
L 182.547572 227.62344 
L 182.688619 227.62344 
L 182.688619 226.697199 
L 183.10504 226.697199 
L 183.10504 226.234079 
L 184.570125 226.234079 
L 184.618101 223.455355 
L 184.802771 223.455355 
L 184.802771 222.529114 
L 185.596261 222.529114 
L 185.596261 222.065994 
L 185.865946 222.065994 
L 185.865946 221.139753 
L 186.197291 221.139753 
L 186.197291 220.213512 
L 186.506343 220.213512 
L 186.592119 218.36103 
L 188.131803 218.36103 
L 188.131803 217.434789 
L 188.389375 217.434789 
L 188.389375 216.971668 
L 188.590821 216.971668 
L 188.590821 215.582307 
L 188.723837 215.582307 
L 188.723837 215.119186 
L 190.533779 215.119186 
L 190.533779 214.656066 
L 191.20742 214.656066 
L 191.252509 212.803583 
L 191.334192 212.803583 
L 191.334192 211.877342 
L 191.673143 211.877342 
L 191.748906 210.02486 
L 192.742612 210.02486 
L 192.761395 208.172378 
L 193.151219 208.172378 
L 193.151219 207.709258 
L 194.000336 207.709258 
L 194.101454 205.393655 
L 194.625442 205.393655 
L 194.625442 204.467414 
L 194.923157 204.467414 
L 194.923157 203.541173 
L 195.16034 203.541173 
L 195.271231 201.688691 
L 195.381422 201.688691 
L 195.449135 200.299329 
L 196.040783 200.299329 
L 196.040783 199.373088 
L 196.38271 199.373088 
L 196.38271 198.446847 
L 197.044151 198.446847 
L 197.044151 197.983727 
L 197.158315 197.983727 
L 197.158315 197.057486 
L 198.489218 197.057486 
L 198.489218 196.594365 
L 198.637272 196.594365 
L 198.637272 196.131245 
L 198.757479 196.131245 
L 198.80002 194.278763 
L 198.89536 194.278763 
L 198.89536 193.352522 
L 200.032747 193.352522 
L 200.032747 192.889401 
L 200.251586 192.889401 
L 200.251586 192.426281 
L 201.107454 192.426281 
L 201.179426 191.50004 
L 201.423304 191.50004 
L 201.509908 190.573799 
L 201.840936 190.573799 
L 201.840936 190.110678 
L 202.205165 190.110678 
L 202.205165 189.184437 
L 202.704756 189.184437 
L 202.704756 188.721316 
L 202.949285 188.721316 
L 202.949285 188.258196 
L 203.289251 188.258196 
L 203.289251 187.795075 
L 203.640833 187.795075 
L 203.640833 187.331955 
L 205.158249 187.331955 
L 205.158249 186.868834 
L 205.439976 186.868834 
L 205.439976 185.942593 
L 206.156382 185.942593 
L 206.17205 185.016352 
L 206.620403 185.016352 
L 206.620403 184.553232 
L 206.737032 184.553232 
L 206.737032 184.090111 
L 206.987913 184.090111 
L 207.049246 182.237629 
L 207.378716 182.237629 
L 207.378716 181.774509 
L 207.727561 181.774509 
L 207.727561 180.848268 
L 208.277455 180.848268 
L 208.277455 179.922027 
L 208.443224 179.922027 
L 208.466123 178.995786 
L 208.891125 178.995786 
L 208.891125 178.069545 
L 209.034951 178.069545 
L 209.034951 177.606424 
L 209.427715 177.606424 
L 209.427715 177.143304 
L 210.208382 177.143304 
L 210.208382 176.680183 
L 210.474176 176.680183 
L 210.474176 176.217062 
L 210.656773 176.217062 
L 210.656773 174.827701 
L 210.814826 174.827701 
L 210.824158 173.438339 
L 211.253284 173.438339 
L 211.266282 172.512098 
L 211.779672 172.512098 
L 211.779672 172.048978 
L 212.056283 172.048978 
L 212.097213 171.122737 
L 212.637565 171.122737 
L 212.637565 170.196496 
L 213.159345 170.196496 
L 213.200095 169.270255 
L 213.386328 169.270255 
L 213.386328 168.807134 
L 213.54667 168.807134 
L 213.54667 168.344014 
L 213.691988 168.344014 
L 213.691988 167.880893 
L 214.004603 167.880893 
L 214.004603 167.417773 
L 214.525348 167.417773 
L 214.525348 166.954652 
L 215.221554 166.954652 
L 215.221554 166.491532 
L 215.595527 166.491532 
L 215.595527 166.028411 
L 215.826127 166.028411 
L 215.826127 165.565291 
L 216.319269 165.565291 
L 216.382365 164.175929 
L 216.463568 164.175929 
L 216.553032 161.860326 
L 216.613378 161.860326 
L 216.613378 161.397206 
L 216.74199 161.397206 
L 216.74199 160.934085 
L 216.91483 160.934085 
L 216.91483 160.470965 
L 217.031914 160.470965 
L 217.044046 159.081603 
L 217.416002 159.081603 
L 217.50254 157.692242 
L 217.570558 157.692242 
L 217.570558 156.766001 
L 218.195536 156.766001 
L 218.195536 156.30288 
L 218.345096 156.30288 
L 218.451267 154.913519 
L 218.883043 154.913519 
L 218.883043 153.987278 
L 219.101621 153.987278 
L 219.144679 151.671675 
L 219.370638 151.671675 
L 219.481312 150.745434 
L 219.568703 150.745434 
L 219.568703 150.282313 
L 219.782891 150.282313 
L 219.878306 149.356072 
L 220.158334 149.356072 
L 220.158334 148.429831 
L 220.340751 148.429831 
L 220.340751 147.966711 
L 220.453129 147.966711 
L 220.453129 147.50359 
L 220.567074 147.50359 
L 220.567074 147.04047 
L 220.836342 147.04047 
L 220.836342 146.577349 
L 221.145076 146.577349 
L 221.145076 146.114229 
L 221.335751 146.114229 
L 221.417976 145.187988 
L 221.46727 145.187988 
L 221.46727 144.724867 
L 221.693104 144.724867 
L 221.693104 144.261747 
L 221.992078 144.261747 
L 221.992078 143.798626 
L 222.40441 143.798626 
L 222.40441 143.335506 
L 222.536311 143.335506 
L 222.549923 142.409265 
L 222.713114 142.409265 
L 222.713114 141.946144 
L 223.025718 141.946144 
L 223.025718 141.019903 
L 223.26504 141.019903 
L 223.26504 140.093662 
L 223.755014 140.093662 
L 223.755014 139.630541 
L 223.873337 139.630541 
L 223.873337 139.167421 
L 224.062122 139.167421 
L 224.164748 138.24118 
L 224.193871 138.24118 
L 224.276636 136.388698 
L 224.360237 136.388698 
L 224.360237 135.925577 
L 224.696103 135.925577 
L 224.696103 135.462457 
L 224.922016 135.462457 
L 225.028573 133.146854 
L 225.073369 133.146854 
L 225.073369 132.220613 
L 225.389544 132.220613 
L 225.45417 130.831252 
L 225.627246 130.831252 
L 225.627246 130.368131 
L 225.952664 130.368131 
L 226.014125 128.97877 
L 226.285305 128.97877 
L 226.389878 126.200046 
L 226.449276 126.200046 
L 226.449276 125.273805 
L 226.624111 125.273805 
L 226.624111 124.810685 
L 227.20098 124.810685 
L 227.286225 123.421323 
L 227.360215 123.421323 
L 227.360215 122.958203 
L 227.730082 122.958203 
L 227.76543 121.568841 
L 228.268127 121.568841 
L 228.268127 121.105721 
L 228.640541 121.105721 
L 228.672656 120.17948 
L 228.91189 120.17948 
L 228.91189 119.716359 
L 229.292218 119.716359 
L 229.292218 119.253239 
L 229.514032 119.253239 
L 229.563247 118.326998 
L 229.694714 118.326998 
L 229.694714 117.400757 
L 230.144118 117.400757 
L 230.228859 116.011395 
L 230.776017 116.011395 
L 230.846761 114.622033 
L 230.913851 114.622033 
L 230.913851 114.158913 
L 231.08108 114.158913 
L 231.08108 113.232672 
L 231.286753 113.232672 
L 231.286753 112.769551 
L 231.751676 112.769551 
L 231.751676 111.84331 
L 232.052117 111.84331 
L 232.052117 111.38019 
L 232.379249 111.38019 
L 232.379249 110.917069 
L 232.68933 110.917069 
L 232.68933 109.990828 
L 233.275045 109.990828 
L 233.275045 109.527708 
L 233.423375 109.527708 
L 233.508142 108.601467 
L 236.181273 108.601467 
L 236.181273 108.138346 
L 236.693626 108.138346 
L 236.693626 107.675226 
L 236.906674 107.675226 
L 236.906674 107.212105 
L 238.232695 107.212105 
L 238.295691 105.822744 
L 239.046298 105.822744 
L 239.046298 104.896503 
L 240.879245 104.896503 
L 240.879245 104.433382 
L 242.337203 104.433382 
L 242.337203 103.507141 
L 242.736836 103.507141 
L 242.736836 103.04402 
L 243.835249 103.04402 
L 243.835249 102.117779 
L 246.44748 102.117779 
L 246.44748 101.654659 
L 248.894773 101.654659 
L 248.894773 100.728418 
L 338.688 100.728418 
L 338.688 100.728418 
" style="fill:none;stroke:#000080;stroke-linecap:square;stroke-width:1.5;"/>
   </g>
   <g id="line2d_36">
    <defs>
     <path d="M 0 6 
C 1.591219 6 3.117479 5.367802 4.242641 4.242641 
C 5.367802 3.117479 6 1.591219 6 0 
C 6 -1.591219 5.367802 -3.117479 4.242641 -4.242641 
C 3.117479 -5.367802 1.591219 -6 0 -6 
C -1.591219 -6 -3.117479 -5.367802 -4.242641 -4.242641 
C -5.367802 -3.117479 -6 -1.591219 -6 0 
C -6 1.591219 -5.367802 3.117479 -4.242641 4.242641 
C -3.117479 5.367802 -1.591219 6 0 6 
z
" id="m456e5e34ce" style="stroke:#000080;stroke-width:1.5;"/>
    </defs>
    <g>
     <use style="fill-opacity:0;stroke:#000080;stroke-width:1.5;" x="114.080224" xlink:href="#m456e5e34ce" y="280.419179"/>
     <use style="fill-opacity:0;stroke:#000080;stroke-width:1.5;" x="182.547572" xlink:href="#m456e5e34ce" y="227.62344"/>
     <use style="fill-opacity:0;stroke:#000080;stroke-width:1.5;" x="228.672656" xlink:href="#m456e5e34ce" y="120.6426"/>
     <use style="fill-opacity:0;stroke:#000080;stroke-width:1.5;" x="248.894773" xlink:href="#m456e5e34ce" y="100.728418"/>
     <use style="fill-opacity:0;stroke:#000080;stroke-width:1.5;" x="248.894773" xlink:href="#m456e5e34ce" y="100.728418"/>
     <use style="fill-opacity:0;stroke:#000080;stroke-width:1.5;" x="338.688" xlink:href="#m456e5e34ce" y="100.728418"/>
    </g>
   </g>
   <g id="line2d_37">
    <path style="fill:none;stroke:#000080;stroke-linecap:square;stroke-width:1.5;"/>
    <g/>
   </g>
   <g id="line2d_38">
    <path clip-path="url(#pdba348d429)" d="M 258.377579 100.728418 
" style="fill:none;stroke:#000080;stroke-linecap:square;stroke-width:1.5;"/>
    <defs>
     <path d="M -12 12 
L 12 -12 
M -12 -12 
L 12 12 
" id="m93cf981dab" style="stroke:#000080;"/>
    </defs>
    <g clip-path="url(#pdba348d429)">
     <use style="fill:#000080;stroke:#000080;" x="258.377579" xlink:href="#m93cf981dab" y="100.728418"/>
    </g>
   </g>
   <g id="line2d_39">
    <defs>
     <path d="M 0 1.5 
C 0.397805 1.5 0.77937 1.341951 1.06066 1.06066 
C 1.341951 0.77937 1.5 0.397805 1.5 0 
C 1.5 -0.397805 1.341951 -0.77937 1.06066 -1.06066 
C 0.77937 -1.341951 0.397805 -1.5 0 -1.5 
C -0.397805 -1.5 -0.77937 -1.341951 -1.06066 -1.06066 
C -1.341951 -0.77937 -1.5 -0.397805 -1.5 0 
C -1.5 0.397805 -1.341951 0.77937 -1.06066 1.06066 
C -0.77937 1.341951 -0.397805 1.5 0 1.5 
z
" id="m24ce4cbf62" style="stroke:#ff00ff;"/>
    </defs>
    <g>
     <use style="fill:#ff00ff;stroke:#ff00ff;" x="255.545699" xlink:href="#m24ce4cbf62" y="90.539766"/>
     <use style="fill:#ff00ff;stroke:#ff00ff;" x="255.545699" xlink:href="#m24ce4cbf62" y="90.539766"/>
    </g>
   </g>
   <g id="line2d_40">
    <path d="M 45.512012 298.944 
L 45.512012 297.554638 
L 146.906268 297.554638 
L 146.906268 297.091518 
L 147.368603 297.091518 
L 147.368603 296.165277 
L 149.690956 296.165277 
L 149.690956 293.849674 
L 150.042389 293.849674 
L 150.042389 291.534072 
L 150.172372 291.534072 
L 150.172372 289.68159 
L 150.766468 289.68159 
L 150.766468 288.755349 
L 151.381313 288.755349 
L 151.381313 287.829108 
L 151.501723 287.829108 
L 151.501723 286.439746 
L 151.858043 286.439746 
L 151.858043 285.050384 
L 152.0141 285.050384 
L 152.0141 284.587264 
L 152.322086 284.587264 
L 152.322086 284.124143 
L 152.959038 284.124143 
L 152.959038 283.661023 
L 153.178403 283.661023 
L 153.178403 282.271661 
L 154.098334 282.271661 
L 154.098334 281.808541 
L 154.707925 281.808541 
L 154.707925 281.34542 
L 155.135299 281.34542 
L 155.232454 278.103577 
L 155.329071 278.103577 
L 155.425155 274.398612 
L 155.457066 274.398612 
L 155.457066 273.472371 
L 155.61575 273.472371 
L 155.61575 272.54613 
L 156.083319 272.54613 
L 156.083319 271.156769 
L 156.357959 271.156769 
L 156.357959 269.767407 
L 156.508689 269.767407 
L 156.508689 269.304287 
L 157.243392 269.304287 
L 157.243392 268.841166 
L 157.613546 268.841166 
L 157.697862 266.525564 
L 158.031107 266.525564 
L 158.031107 266.062443 
L 158.358103 266.062443 
L 158.358103 265.599323 
L 158.599388 265.599323 
L 158.67908 263.28372 
L 158.784773 263.28372 
L 158.811096 262.357479 
L 159.354904 262.357479 
L 159.354904 261.894358 
L 159.532469 261.894358 
L 159.557689 260.504997 
L 159.882266 260.504997 
L 159.980933 259.115635 
L 160.346039 259.115635 
L 160.346039 258.189394 
L 160.656397 258.189394 
L 160.680044 255.410671 
L 160.86807 255.410671 
L 160.86807 254.947551 
L 161.238149 254.947551 
L 161.238149 254.02131 
L 161.442917 254.02131 
L 161.442917 252.631948 
L 161.600536 252.631948 
L 161.600536 252.168828 
L 161.84538 252.168828 
L 161.84538 251.705707 
L 162.130378 251.705707 
L 162.217141 248.463863 
L 162.367945 248.463863 
L 162.453536 246.148261 
L 162.68677 246.148261 
L 162.68677 245.22202 
L 162.875305 245.22202 
L 162.958448 242.443297 
L 163.368321 242.443297 
L 163.368321 241.517056 
L 163.649606 241.517056 
L 163.649606 241.053935 
L 163.926426 241.053935 
L 163.926426 239.664574 
L 164.121498 239.664574 
L 164.140886 238.738333 
L 164.410075 238.738333 
L 164.410075 237.812091 
L 164.693955 237.812091 
L 164.693955 236.42273 
L 165.010195 236.42273 
L 165.010195 235.496489 
L 165.356985 235.496489 
L 165.356985 235.033368 
L 165.7501 235.033368 
L 165.855793 233.644007 
L 166.013141 233.644007 
L 166.08262 231.791525 
L 166.169082 231.791525 
L 166.169082 231.328404 
L 166.459886 231.328404 
L 166.527611 228.549681 
L 166.645502 228.549681 
L 166.645502 227.62344 
L 166.795913 227.62344 
L 166.845764 225.307837 
L 167.06015 225.307837 
L 167.06015 224.844717 
L 167.255733 224.844717 
L 167.255733 224.381596 
L 167.719528 224.381596 
L 167.76681 222.992235 
L 168.094245 222.992235 
L 168.094245 222.529114 
L 168.354881 222.529114 
L 168.46108 221.139753 
L 168.551595 221.139753 
L 168.551595 220.676632 
L 169.026567 220.676632 
L 169.026567 220.213512 
L 169.201398 220.213512 
L 169.27373 218.82415 
L 169.388841 218.82415 
L 169.460402 217.434789 
L 169.659223 217.434789 
L 169.75779 215.119186 
L 170.324185 215.119186 
L 170.40555 213.729825 
L 170.899085 213.729825 
L 170.951613 211.877342 
L 171.18605 211.877342 
L 171.18605 210.951101 
L 171.327782 210.951101 
L 171.43014 208.172378 
L 171.758716 208.172378 
L 171.8212 206.783017 
L 172.434028 206.783017 
L 172.506141 205.856776 
L 172.577957 205.856776 
L 172.60183 204.930535 
L 173.118935 204.930535 
L 173.222844 201.688691 
L 173.55351 201.688691 
L 173.55351 201.225571 
L 174.305129 201.225571 
L 174.305129 200.299329 
L 174.616074 200.299329 
L 174.616074 199.836209 
L 174.795808 199.836209 
L 174.806323 198.446847 
L 175.283289 198.446847 
L 175.344551 197.057486 
L 175.567356 197.057486 
L 175.637655 196.131245 
L 175.817135 196.131245 
L 175.817135 195.668124 
L 176.170646 195.668124 
L 176.170646 195.205004 
L 176.866214 195.205004 
L 176.866214 194.278763 
L 176.987223 194.278763 
L 176.987223 193.815642 
L 177.153401 193.815642 
L 177.199282 191.96316 
L 177.50811 191.96316 
L 177.50811 191.036919 
L 177.749519 191.036919 
L 177.846921 190.110678 
L 177.95256 190.110678 
L 177.95256 189.647558 
L 178.343106 189.647558 
L 178.343106 189.184437 
L 179.123536 189.184437 
L 179.123536 188.721316 
L 179.505048 188.721316 
L 179.505048 188.258196 
L 179.664896 188.258196 
L 179.70463 186.868834 
L 180.205388 186.868834 
L 180.205388 186.405714 
L 180.450477 186.405714 
L 180.450477 185.942593 
L 180.848977 185.942593 
L 180.848977 185.479473 
L 181.311118 185.479473 
L 181.311118 185.016352 
L 181.469658 185.016352 
L 181.469658 184.090111 
L 181.683552 184.090111 
L 181.683552 183.626991 
L 182.207084 183.626991 
L 182.207084 183.16387 
L 182.967335 183.16387 
L 182.967335 182.237629 
L 183.280506 182.237629 
L 183.280506 181.774509 
L 184.230545 181.774509 
L 184.255021 180.848268 
L 184.856021 180.848268 
L 184.856021 179.922027 
L 185.125676 179.922027 
L 185.230068 178.532665 
L 185.849212 178.532665 
L 185.882663 177.143304 
L 186.788874 177.143304 
L 186.815293 176.217062 
L 186.972973 176.217062 
L 186.972973 175.753942 
L 187.780681 175.753942 
L 187.880306 174.827701 
L 189.761868 174.827701 
L 189.761868 174.36458 
L 189.943737 174.36458 
L 190.03177 172.975219 
L 190.804686 172.975219 
L 190.804686 172.512098 
L 190.934409 172.512098 
L 190.934409 172.048978 
L 191.729 172.048978 
L 191.729 171.585857 
L 191.962451 171.585857 
L 191.962451 171.122737 
L 192.304942 171.122737 
L 192.304942 170.196496 
L 192.944398 170.196496 
L 192.944398 169.270255 
L 193.689857 169.270255 
L 193.689857 168.807134 
L 194.428655 168.807134 
L 194.428655 167.880893 
L 195.238689 167.880893 
L 195.238689 167.417773 
L 196.281755 167.417773 
L 196.281755 166.954652 
L 196.634075 166.954652 
L 196.646098 166.028411 
L 197.265938 166.028411 
L 197.265938 165.10217 
L 198.249686 165.10217 
L 198.249686 164.63905 
L 198.54859 164.63905 
L 198.54859 164.175929 
L 199.126243 164.175929 
L 199.126243 163.712808 
L 199.660114 163.712808 
L 199.660114 163.249688 
L 200.329603 163.249688 
L 200.368481 161.860326 
L 200.735941 161.860326 
L 200.735941 161.397206 
L 202.564082 161.397206 
L 202.564082 160.470965 
L 204.456406 160.470965 
L 204.494764 159.081603 
L 205.751127 159.081603 
L 205.751127 158.618483 
L 206.448267 158.618483 
L 206.448267 157.692242 
L 208.430998 157.692242 
L 208.430998 157.229121 
L 208.545275 157.229121 
L 208.63616 155.83976 
L 209.365522 155.83976 
L 209.365522 155.376639 
L 209.719784 155.376639 
L 209.719784 154.913519 
L 209.974891 154.913519 
L 209.974891 154.450398 
L 211.122769 154.450398 
L 211.122769 153.987278 
L 211.331126 153.987278 
L 211.400889 152.597916 
L 211.474225 152.597916 
L 211.508856 151.671675 
L 211.658134 151.671675 
L 211.739253 149.819193 
L 211.818738 149.819193 
L 211.818738 149.356072 
L 212.056283 149.356072 
L 212.145461 147.966711 
L 212.420024 147.966711 
L 212.501315 146.577349 
L 212.936453 146.577349 
L 212.936453 146.114229 
L 213.616074 146.114229 
L 213.616074 145.651108 
L 214.07553 145.651108 
L 214.174787 144.724867 
L 214.190176 144.724867 
L 214.190176 144.261747 
L 214.396612 144.261747 
L 214.396612 143.798626 
L 214.660628 143.798626 
L 214.696953 142.409265 
L 215.383397 142.409265 
L 215.383397 141.483024 
L 216.399797 141.483024 
L 216.399797 141.019903 
L 216.954258 141.019903 
L 216.954258 140.556783 
L 217.087836 140.556783 
L 217.087836 138.7043 
L 217.32536 138.7043 
L 217.32536 138.24118 
L 217.495269 138.24118 
L 217.585938 136.851818 
L 217.863164 136.851818 
L 217.863164 136.388698 
L 218.355482 136.388698 
L 218.355482 135.462457 
L 219.252683 135.462457 
L 219.252683 134.999336 
L 220.563262 134.999336 
L 220.577742 133.146854 
L 220.923937 133.146854 
L 220.923937 132.683734 
L 221.197352 132.683734 
L 221.197352 131.294372 
L 221.35179 131.294372 
L 221.35179 130.368131 
L 221.46727 130.368131 
L 221.46727 129.905011 
L 222.182101 129.905011 
L 222.182101 129.44189 
L 222.825976 129.44189 
L 222.825976 128.515649 
L 223.248054 128.515649 
L 223.248054 128.052529 
L 223.674833 128.052529 
L 223.674833 127.589408 
L 224.084565 127.589408 
L 224.149858 125.736926 
L 224.529282 125.736926 
L 224.529282 124.810685 
L 225.06277 124.810685 
L 225.06277 124.347564 
L 225.446681 124.347564 
L 225.446681 123.884444 
L 226.478084 123.884444 
L 226.478084 123.421323 
L 227.065501 123.421323 
L 227.065501 122.958203 
L 227.381372 122.958203 
L 227.39529 121.105721 
L 228.101671 121.105721 
L 228.101671 120.6426 
L 229.135765 120.6426 
L 229.135765 120.17948 
L 229.768175 120.17948 
L 229.830128 119.253239 
L 229.879354 119.253239 
L 229.879354 118.790118 
L 230.329311 118.790118 
L 230.329311 117.863877 
L 230.448229 117.863877 
L 230.448229 116.937636 
L 231.203284 116.937636 
L 231.203284 116.474516 
L 231.346424 116.474516 
L 231.346424 116.011395 
L 231.594025 116.011395 
L 231.594025 115.548274 
L 231.889208 115.548274 
L 231.97224 114.158913 
L 232.007083 114.158913 
L 232.007083 113.695792 
L 232.206481 113.695792 
L 232.206481 113.232672 
L 232.493099 113.232672 
L 232.493099 112.769551 
L 232.676392 112.769551 
L 232.740984 111.38019 
L 232.826483 111.38019 
L 232.826483 110.917069 
L 233.811079 110.917069 
L 233.811079 109.990828 
L 234.451188 109.990828 
L 234.451188 109.064587 
L 234.590224 109.064587 
L 234.590224 108.601467 
L 236.143871 108.601467 
L 236.143871 108.138346 
L 237.180479 108.138346 
L 237.180479 107.212105 
L 237.40483 107.212105 
L 237.40483 106.748985 
L 237.924967 106.748985 
L 237.924967 106.285864 
L 239.520339 106.285864 
L 239.520339 105.822744 
L 240.483329 105.822744 
L 240.483329 105.359623 
L 242.473171 105.359623 
L 242.542056 104.433382 
L 244.408284 104.433382 
L 244.408284 103.970262 
L 244.776177 103.970262 
L 244.776177 103.04402 
L 245.32179 103.04402 
L 245.32179 102.5809 
L 245.7398 102.5809 
L 245.7398 101.654659 
L 246.067847 101.654659 
L 246.067847 101.191538 
L 246.429498 101.191538 
L 246.429498 100.265297 
L 246.78736 100.265297 
L 246.78736 99.802177 
L 247.338524 99.802177 
L 247.338524 99.339056 
L 247.673233 99.339056 
L 247.673233 98.875936 
L 248.650514 98.875936 
L 248.650514 98.412815 
L 249.235213 98.412815 
L 249.235213 97.486574 
L 250.32525 97.486574 
L 250.32525 96.560333 
L 251.11314 96.560333 
L 251.11314 95.634092 
L 252.460393 95.634092 
L 252.486815 94.707851 
L 252.957837 94.707851 
L 252.957837 93.78161 
L 253.476974 93.78161 
L 253.476974 92.855369 
L 254.294328 92.855369 
L 254.294328 92.392249 
L 255.117706 92.392249 
L 255.117706 91.466008 
L 255.545699 91.466008 
L 255.545699 90.539766 
L 338.688 90.539766 
L 338.688 90.539766 
" style="fill:none;stroke:#ff00ff;stroke-linecap:square;stroke-width:1.5;"/>
   </g>
   <g id="line2d_41">
    <defs>
     <path d="M 0 8.485281 
L 5.091169 0 
L 0 -8.485281 
L -5.091169 0 
z
" id="ma62c4f992e" style="stroke:#ff00ff;stroke-linejoin:miter;stroke-width:1.5;"/>
    </defs>
    <g>
     <use style="fill-opacity:0;stroke:#ff00ff;stroke-linejoin:miter;stroke-width:1.5;" x="178.343106" xlink:href="#ma62c4f992e" y="189.184437"/>
     <use style="fill-opacity:0;stroke:#ff00ff;stroke-linejoin:miter;stroke-width:1.5;" x="232.676392" xlink:href="#ma62c4f992e" y="112.769551"/>
     <use style="fill-opacity:0;stroke:#ff00ff;stroke-linejoin:miter;stroke-width:1.5;" x="255.545699" xlink:href="#ma62c4f992e" y="90.539766"/>
     <use style="fill-opacity:0;stroke:#ff00ff;stroke-linejoin:miter;stroke-width:1.5;" x="255.545699" xlink:href="#ma62c4f992e" y="90.539766"/>
     <use style="fill-opacity:0;stroke:#ff00ff;stroke-linejoin:miter;stroke-width:1.5;" x="338.688" xlink:href="#ma62c4f992e" y="90.539766"/>
    </g>
   </g>
   <g id="line2d_42">
    <path style="fill:none;stroke:#ff00ff;stroke-linecap:square;stroke-width:1.5;"/>
    <g/>
   </g>
   <g id="line2d_43">
    <path clip-path="url(#pdba348d429)" d="M 258.387516 90.539766 
" style="fill:none;stroke:#ff00ff;stroke-linecap:square;stroke-width:1.5;"/>
    <defs>
     <path d="M -12 12 
L 12 -12 
M -12 -12 
L 12 12 
" id="mfb598f27e4" style="stroke:#ff00ff;"/>
    </defs>
    <g clip-path="url(#pdba348d429)">
     <use style="fill:#ff00ff;stroke:#ff00ff;" x="258.387516" xlink:href="#mfb598f27e4" y="90.539766"/>
    </g>
   </g>
   <g id="line2d_44">
    <defs>
     <path d="M 0 1.5 
C 0.397805 1.5 0.77937 1.341951 1.06066 1.06066 
C 1.341951 0.77937 1.5 0.397805 1.5 0 
C 1.5 -0.397805 1.341951 -0.77937 1.06066 -1.06066 
C 0.77937 -1.341951 0.397805 -1.5 0 -1.5 
C -0.397805 -1.5 -0.77937 -1.341951 -1.06066 -1.06066 
C -1.341951 -0.77937 -1.5 -0.397805 -1.5 0 
C -1.5 0.397805 -1.341951 0.77937 -1.06066 1.06066 
C -0.77937 1.341951 -0.397805 1.5 0 1.5 
z
" id="m1555074a55" style="stroke:#ff7500;"/>
    </defs>
    <g>
     <use style="fill:#ff7500;stroke:#ff7500;" x="257.928015" xlink:href="#m1555074a55" y="91.929128"/>
     <use style="fill:#ff7500;stroke:#ff7500;" x="257.928015" xlink:href="#m1555074a55" y="91.929128"/>
    </g>
   </g>
   <g id="line2d_45">
    <path d="M 140.499195 298.944 
L 140.499195 297.091518 
L 142.215919 297.091518 
L 142.283909 294.312795 
L 144.688773 294.312795 
L 144.688773 293.849674 
L 152.052897 293.849674 
L 152.052897 293.386554 
L 152.774102 293.386554 
L 152.848312 291.070951 
L 153.537988 291.070951 
L 153.537988 290.607831 
L 153.925152 290.607831 
L 153.925152 286.902867 
L 155.070227 286.902867 
L 155.070227 284.587264 
L 156.052535 284.587264 
L 156.083319 281.808541 
L 156.776762 281.808541 
L 156.776762 280.419179 
L 157.443681 280.419179 
L 157.443681 279.492938 
L 157.837488 279.492938 
L 157.837488 279.029818 
L 158.058592 279.029818 
L 158.058592 278.103577 
L 158.67908 278.103577 
L 158.67908 277.177336 
L 159.380382 277.177336 
L 159.380382 276.251095 
L 160.127894 276.251095 
L 160.127894 275.787974 
L 160.297798 275.787974 
L 160.297798 274.861733 
L 160.442124 274.861733 
L 160.442124 273.472371 
L 160.774311 273.472371 
L 160.774311 272.54613 
L 160.891432 272.54613 
L 160.891432 271.619889 
L 161.555647 271.619889 
L 161.555647 270.693648 
L 161.778945 270.693648 
L 161.778945 270.230528 
L 162.303474 270.230528 
L 162.303474 269.767407 
L 162.707819 269.767407 
L 162.707819 269.304287 
L 163.103002 269.304287 
L 163.103002 268.378046 
L 163.449152 268.378046 
L 163.449152 267.914925 
L 163.906798 267.914925 
L 163.906798 267.451805 
L 164.276 267.451805 
L 164.371873 266.062443 
L 164.390984 266.062443 
L 164.410075 264.673082 
L 164.787563 264.673082 
L 164.824867 262.8206 
L 164.917777 262.8206 
L 164.917777 261.894358 
L 165.785402 261.894358 
L 165.785402 260.041876 
L 165.925901 260.041876 
L 165.995728 258.652515 
L 166.08262 258.652515 
L 166.08262 258.189394 
L 166.357802 258.189394 
L 166.425924 256.800033 
L 166.527611 256.800033 
L 166.527611 256.336912 
L 166.679039 256.336912 
L 166.779265 255.410671 
L 167.320442 255.410671 
L 167.320442 254.48443 
L 167.84533 254.48443 
L 167.84533 254.02131 
L 168.109685 254.02131 
L 168.140524 252.631948 
L 168.354881 252.631948 
L 168.354881 251.705707 
L 168.849965 251.705707 
L 168.938489 250.779466 
L 169.201398 250.779466 
L 169.201398 250.316346 
L 169.446113 250.316346 
L 169.460402 248.926984 
L 169.560096 248.926984 
L 169.560096 248.463863 
L 169.701534 248.463863 
L 169.799863 247.537622 
L 169.827856 247.537622 
L 169.883706 245.22202 
L 170.228776 245.22202 
L 170.242438 243.369538 
L 170.432588 243.369538 
L 170.432588 242.906417 
L 170.58055 242.906417 
L 170.687376 241.517056 
L 170.780315 241.517056 
L 170.846398 240.590815 
L 170.912232 240.590815 
L 170.912232 240.127694 
L 171.056197 240.127694 
L 171.056197 239.201453 
L 171.379036 239.201453 
L 171.379036 238.738333 
L 171.49381 238.738333 
L 171.49381 238.275212 
L 171.607834 238.275212 
L 171.607834 237.348971 
L 171.73366 237.348971 
L 171.783736 236.42273 
L 172.179258 236.42273 
L 172.228073 233.644007 
L 172.325296 233.644007 
L 172.325296 232.717766 
L 172.446067 232.717766 
L 172.494143 230.402163 
L 172.83878 230.402163 
L 172.944366 229.475922 
L 172.97942 229.475922 
L 172.97942 228.549681 
L 173.268827 228.549681 
L 173.349008 226.234079 
L 173.394661 226.234079 
L 173.394661 225.770958 
L 173.530906 225.770958 
L 173.530906 224.844717 
L 173.654869 224.844717 
L 173.654869 224.381596 
L 174.065485 224.381596 
L 174.142093 221.139753 
L 174.218366 221.139753 
L 174.218366 220.213512 
L 174.911127 220.213512 
L 174.973708 219.287271 
L 175.139502 219.287271 
L 175.139502 218.82415 
L 175.293514 218.82415 
L 175.385274 217.434789 
L 175.737594 217.434789 
L 175.807212 215.582307 
L 176.004603 215.582307 
L 176.014414 213.729825 
L 176.209486 213.729825 
L 176.219183 212.340463 
L 176.517133 212.340463 
L 176.593204 210.951101 
L 176.800705 210.951101 
L 176.800705 210.487981 
L 176.996497 210.487981 
L 176.996497 210.02486 
L 177.444973 210.02486 
L 177.50811 207.709258 
L 177.785001 207.709258 
L 177.785001 207.246137 
L 177.908622 207.246137 
L 177.908622 206.319896 
L 178.239812 206.319896 
L 178.343106 204.930535 
L 178.360262 204.930535 
L 178.462846 203.078053 
L 178.58177 203.078053 
L 178.58177 202.614932 
L 178.900534 202.614932 
L 178.900534 202.151812 
L 179.172706 202.151812 
L 179.172706 201.225571 
L 179.561161 201.225571 
L 179.561161 200.299329 
L 179.752191 200.299329 
L 179.752191 199.836209 
L 179.956806 199.836209 
L 179.980262 198.446847 
L 180.097069 198.446847 
L 180.097069 197.520606 
L 180.220807 197.520606 
L 180.220807 197.057486 
L 180.480872 197.057486 
L 180.556629 196.131245 
L 180.789406 196.131245 
L 180.789406 195.205004 
L 181.011755 195.205004 
L 181.092577 193.815642 
L 181.887852 193.815642 
L 181.985629 191.96316 
L 182.041257 191.96316 
L 182.041257 191.036919 
L 182.220831 191.036919 
L 182.220831 190.110678 
L 182.405376 190.110678 
L 182.507063 188.721316 
L 182.661841 188.721316 
L 182.661841 188.258196 
L 182.967335 188.258196 
L 182.967335 187.795075 
L 183.183243 187.795075 
L 183.183243 187.331955 
L 183.657898 187.331955 
L 183.657898 186.405714 
L 183.865473 186.405714 
L 183.865473 185.942593 
L 184.132295 185.942593 
L 184.132295 185.016352 
L 184.248905 185.016352 
L 184.316062 183.626991 
L 184.761242 183.626991 
L 184.761242 182.70075 
L 185.499738 182.70075 
L 185.499738 182.237629 
L 185.742857 182.237629 
L 185.765302 181.311388 
L 185.865946 181.311388 
L 185.865946 180.848268 
L 186.355212 180.848268 
L 186.355212 180.385147 
L 186.815293 180.385147 
L 186.815293 179.922027 
L 187.170676 179.922027 
L 187.196524 178.995786 
L 187.5291 178.995786 
L 187.604956 177.143304 
L 187.974425 177.143304 
L 188.033608 176.217062 
L 188.576509 176.217062 
L 188.576509 175.753942 
L 188.738029 175.753942 
L 188.846451 174.36458 
L 188.916799 174.36458 
L 188.916799 173.438339 
L 189.250575 173.438339 
L 189.250575 172.975219 
L 189.496781 172.975219 
L 189.496781 172.512098 
L 189.926077 172.512098 
L 189.99221 171.122737 
L 190.245591 171.122737 
L 190.245591 170.196496 
L 190.42251 170.196496 
L 190.529512 168.807134 
L 191.00514 168.807134 
L 191.00514 168.344014 
L 191.12514 168.344014 
L 191.170442 166.028411 
L 191.374891 166.028411 
L 191.374891 165.565291 
L 191.776735 165.565291 
L 191.776735 165.10217 
L 192.040882 165.10217 
L 192.115067 164.175929 
L 193.362872 164.175929 
L 193.464138 162.786567 
L 193.489362 162.786567 
L 193.554059 161.860326 
L 193.940786 161.860326 
L 194.000336 160.934085 
L 194.17085 160.934085 
L 194.17085 160.470965 
L 194.803344 160.470965 
L 194.803344 160.007844 
L 194.952982 160.007844 
L 194.952982 159.081603 
L 195.28748 159.081603 
L 195.28748 158.155362 
L 195.631613 158.155362 
L 195.663431 155.83976 
L 196.08428 155.83976 
L 196.08428 155.376639 
L 196.263336 155.376639 
L 196.364398 153.987278 
L 196.391859 153.987278 
L 196.401003 152.597916 
L 196.579869 152.597916 
L 196.579869 152.134795 
L 196.991206 152.134795 
L 197.02064 150.745434 
L 197.352716 150.745434 
L 197.453413 148.429831 
L 197.678586 148.429831 
L 197.678586 147.966711 
L 197.794312 147.966711 
L 197.794312 147.50359 
L 198.106583 147.50359 
L 198.106583 147.04047 
L 198.312609 147.04047 
L 198.312609 146.577349 
L 198.564748 146.577349 
L 198.650669 145.651108 
L 199.188684 145.651108 
L 199.188684 145.187988 
L 199.637349 145.187988 
L 199.637349 144.724867 
L 199.763447 144.724867 
L 199.763447 144.261747 
L 199.88365 144.261747 
L 199.931002 143.335506 
L 200.11421 143.335506 
L 200.11421 142.872385 
L 200.587968 142.872385 
L 200.587968 142.409265 
L 201.197951 142.409265 
L 201.246487 141.483024 
L 201.414163 141.483024 
L 201.414163 140.556783 
L 201.706581 140.556783 
L 201.706581 139.630541 
L 201.845397 139.630541 
L 201.845397 139.167421 
L 202.324903 139.167421 
L 202.381222 138.24118 
L 202.875865 138.24118 
L 202.875865 137.778059 
L 203.206942 137.778059 
L 203.26871 136.851818 
L 203.618688 136.851818 
L 203.618688 135.925577 
L 203.783097 135.925577 
L 203.783097 134.999336 
L 203.926189 134.999336 
L 203.926189 134.073095 
L 204.819322 134.073095 
L 204.819322 133.146854 
L 204.935522 133.146854 
L 204.974705 132.220613 
L 205.31431 132.220613 
L 205.31431 131.294372 
L 205.914361 131.294372 
L 205.939067 129.905011 
L 206.032283 129.905011 
L 206.032283 129.44189 
L 206.47565 129.44189 
L 206.47565 128.515649 
L 206.66275 128.515649 
L 206.66275 128.052529 
L 207.19918 128.052529 
L 207.19918 127.589408 
L 207.393324 127.589408 
L 207.393324 127.126287 
L 207.617393 127.126287 
L 207.617393 126.663167 
L 208.008592 126.663167 
L 208.008592 126.200046 
L 208.48442 126.200046 
L 208.48442 125.736926 
L 208.838936 125.736926 
L 208.904519 124.810685 
L 210.632537 124.810685 
L 210.699777 123.884444 
L 212.697514 123.884444 
L 212.759644 122.495082 
L 213.43688 122.495082 
L 213.43688 122.031962 
L 213.568317 122.031962 
L 213.568317 121.568841 
L 213.685203 121.568841 
L 213.685203 120.6426 
L 215.327901 120.6426 
L 215.327901 119.716359 
L 217.778401 119.716359 
L 217.781084 118.326998 
L 218.567058 118.326998 
L 218.567058 117.400757 
L 218.787075 117.400757 
L 218.787075 116.937636 
L 220.152091 116.937636 
L 220.152091 116.011395 
L 220.678765 116.011395 
L 220.678765 115.085154 
L 220.896284 115.085154 
L 220.896284 114.158913 
L 222.141754 114.158913 
L 222.141754 113.695792 
L 223.427527 113.695792 
L 223.427527 112.769551 
L 224.240243 112.769551 
L 224.240243 111.84331 
L 225.497888 111.84331 
L 225.497888 110.917069 
L 225.65175 110.917069 
L 225.65175 110.453949 
L 226.992883 110.453949 
L 226.992883 109.527708 
L 227.162379 109.527708 
L 227.162379 109.064587 
L 228.376597 109.064587 
L 228.460661 108.138346 
L 230.694326 108.138346 
L 230.759454 106.748985 
L 231.151846 106.748985 
L 231.151846 106.285864 
L 232.314467 106.285864 
L 232.314467 105.822744 
L 234.463561 105.822744 
L 234.463561 105.359623 
L 235.200215 105.359623 
L 235.301039 104.433382 
L 236.11483 104.433382 
L 236.11483 103.507141 
L 236.324835 103.507141 
L 236.324835 103.04402 
L 239.259504 103.04402 
L 239.259504 102.5809 
L 240.426307 102.5809 
L 240.426307 102.117779 
L 242.763113 102.117779 
L 242.763113 101.191538 
L 245.529588 101.191538 
L 245.529588 100.265297 
L 246.436589 100.265297 
L 246.436589 99.339056 
L 250.84809 99.339056 
L 250.891943 97.486574 
L 251.330129 97.486574 
L 251.330129 96.560333 
L 253.793178 96.560333 
L 253.793178 95.634092 
L 255.187887 95.634092 
L 255.187887 94.707851 
L 255.623579 94.707851 
L 255.623579 93.78161 
L 256.619961 93.78161 
L 256.619961 93.31849 
L 256.876524 93.31849 
L 256.876524 92.855369 
L 257.187062 92.855369 
L 257.187062 92.392249 
L 257.928015 92.392249 
L 257.928015 91.929128 
L 338.688 91.929128 
L 338.688 91.929128 
" style="fill:none;stroke:#ff7500;stroke-linecap:square;stroke-width:1.5;"/>
   </g>
   <g id="line2d_46">
    <defs>
     <path d="M 0 -6 
L -1.347084 -1.854102 
L -5.706339 -1.854102 
L -2.179628 0.708204 
L -3.526712 4.854102 
L -0 2.291796 
L 3.526712 4.854102 
L 2.179628 0.708204 
L 5.706339 -1.854102 
L 1.347084 -1.854102 
z
" id="m1ca8086b39" style="stroke:#ff7500;stroke-linejoin:bevel;stroke-width:1.5;"/>
    </defs>
    <g>
     <use style="fill-opacity:0;stroke:#ff7500;stroke-linejoin:bevel;stroke-width:1.5;" x="170.58055" xlink:href="#m1ca8086b39" y="242.906417"/>
     <use style="fill-opacity:0;stroke:#ff7500;stroke-linejoin:bevel;stroke-width:1.5;" x="213.685203" xlink:href="#m1ca8086b39" y="121.568841"/>
     <use style="fill-opacity:0;stroke:#ff7500;stroke-linejoin:bevel;stroke-width:1.5;" x="257.928015" xlink:href="#m1ca8086b39" y="92.392249"/>
     <use style="fill-opacity:0;stroke:#ff7500;stroke-linejoin:bevel;stroke-width:1.5;" x="257.928015" xlink:href="#m1ca8086b39" y="91.929128"/>
     <use style="fill-opacity:0;stroke:#ff7500;stroke-linejoin:bevel;stroke-width:1.5;" x="338.688" xlink:href="#m1ca8086b39" y="91.929128"/>
    </g>
   </g>
   <g id="line2d_47">
    <path style="fill:none;stroke:#ff7500;stroke-linecap:square;stroke-width:1.5;"/>
    <g/>
   </g>
   <g id="line2d_48">
    <path clip-path="url(#pdba348d429)" d="M 258.37723 91.929128 
" style="fill:none;stroke:#ff7500;stroke-linecap:square;stroke-width:1.5;"/>
    <defs>
     <path d="M -12 12 
L 12 -12 
M -12 -12 
L 12 12 
" id="m002bb7adcb" style="stroke:#ff7500;"/>
    </defs>
    <g clip-path="url(#pdba348d429)">
     <use style="fill:#ff7500;stroke:#ff7500;" x="258.37723" xlink:href="#m002bb7adcb" y="91.929128"/>
    </g>
   </g>
   <g id="line2d_49">
    <path d="M 338.688 100.728418 
L 369.60768 293.571802 
" style="fill:none;stroke:#000080;stroke-linecap:square;stroke-width:1.5;"/>
    <g>
     <use style="fill-opacity:0;stroke:#000080;stroke-width:1.5;" x="338.688" xlink:href="#m456e5e34ce" y="100.728418"/>
     <use style="fill-opacity:0;stroke:#000080;stroke-width:1.5;" x="369.60768" xlink:href="#m456e5e34ce" y="293.571802"/>
    </g>
   </g>
   <g id="line2d_50">
    <path d="M 338.688 91.929128 
L 369.60768 207.616634 
" style="fill:none;stroke:#ff7500;stroke-linecap:square;stroke-width:1.5;"/>
    <g>
     <use style="fill-opacity:0;stroke:#ff7500;stroke-linejoin:bevel;stroke-width:1.5;" x="338.688" xlink:href="#m1ca8086b39" y="91.929128"/>
     <use style="fill-opacity:0;stroke:#ff7500;stroke-linejoin:bevel;stroke-width:1.5;" x="369.60768" xlink:href="#m1ca8086b39" y="207.616634"/>
    </g>
   </g>
   <g id="line2d_51">
    <path d="M 338.688 90.539766 
L 369.60768 121.661465 
" style="fill:none;stroke:#ff00ff;stroke-linecap:square;stroke-width:1.5;"/>
    <g>
     <use style="fill-opacity:0;stroke:#ff00ff;stroke-linejoin:miter;stroke-width:1.5;" x="338.688" xlink:href="#ma62c4f992e" y="90.539766"/>
     <use style="fill-opacity:0;stroke:#ff00ff;stroke-linejoin:miter;stroke-width:1.5;" x="369.60768" xlink:href="#ma62c4f992e" y="121.661465"/>
    </g>
   </g>
   <g id="line2d_52">
    <path d="M 338.688 298.944 
L 338.688 30.334099 
" style="fill:none;stroke:#000000;stroke-linecap:square;stroke-width:1.5;"/>
   </g>
   <g id="patch_3">
    <path d="M 57.6 298.944 
L 57.6 27.648 
" style="fill:none;stroke:#000000;stroke-linecap:square;stroke-linejoin:miter;stroke-width:0.8;"/>
   </g>
   <g id="patch_4">
    <path d="M 338.688 298.944 
L 338.688 27.648 
" style="fill:none;stroke:#000000;stroke-linecap:square;stroke-linejoin:miter;stroke-width:0.8;"/>
   </g>
   <g id="patch_5">
    <path d="M 57.6 298.944 
L 338.688 298.944 
" style="fill:none;stroke:#000000;stroke-linecap:square;stroke-linejoin:miter;stroke-width:0.8;"/>
   </g>
   <g id="patch_6">
    <path d="M 57.6 27.648 
L 338.688 27.648 
" style="fill:none;stroke:#000000;stroke-linecap:square;stroke-linejoin:miter;stroke-width:0.8;"/>
   </g>
   <g id="text_13">
    <!-- COMO-100  -->
    <g transform="translate(375.22944 298.262739)scale(0.17 -0.17)">
     <defs>
      <path d="M 64.40625 67.28125 
L 64.40625 56.890625 
Q 59.421875 61.53125 53.78125 63.8125 
Q 48.140625 66.109375 41.796875 66.109375 
Q 29.296875 66.109375 22.65625 58.46875 
Q 16.015625 50.828125 16.015625 36.375 
Q 16.015625 21.96875 22.65625 14.328125 
Q 29.296875 6.6875 41.796875 6.6875 
Q 48.140625 6.6875 53.78125 8.984375 
Q 59.421875 11.28125 64.40625 15.921875 
L 64.40625 5.609375 
Q 59.234375 2.09375 53.4375 0.328125 
Q 47.65625 -1.421875 41.21875 -1.421875 
Q 24.65625 -1.421875 15.125 8.703125 
Q 5.609375 18.84375 5.609375 36.375 
Q 5.609375 53.953125 15.125 64.078125 
Q 24.65625 74.21875 41.21875 74.21875 
Q 47.75 74.21875 53.53125 72.484375 
Q 59.328125 70.75 64.40625 67.28125 
z
" id="DejaVuSans-67"/>
      <path d="M 39.40625 66.21875 
Q 28.65625 66.21875 22.328125 58.203125 
Q 16.015625 50.203125 16.015625 36.375 
Q 16.015625 22.609375 22.328125 14.59375 
Q 28.65625 6.59375 39.40625 6.59375 
Q 50.140625 6.59375 56.421875 14.59375 
Q 62.703125 22.609375 62.703125 36.375 
Q 62.703125 50.203125 56.421875 58.203125 
Q 50.140625 66.21875 39.40625 66.21875 
z
M 39.40625 74.21875 
Q 54.734375 74.21875 63.90625 63.9375 
Q 73.09375 53.65625 73.09375 36.375 
Q 73.09375 19.140625 63.90625 8.859375 
Q 54.734375 -1.421875 39.40625 -1.421875 
Q 24.03125 -1.421875 14.8125 8.828125 
Q 5.609375 19.09375 5.609375 36.375 
Q 5.609375 53.65625 14.8125 63.9375 
Q 24.03125 74.21875 39.40625 74.21875 
z
" id="DejaVuSans-79"/>
      <path d="M 9.8125 72.90625 
L 24.515625 72.90625 
L 43.109375 23.296875 
L 61.8125 72.90625 
L 76.515625 72.90625 
L 76.515625 0 
L 66.890625 0 
L 66.890625 64.015625 
L 48.09375 14.015625 
L 38.1875 14.015625 
L 19.390625 64.015625 
L 19.390625 0 
L 9.8125 0 
z
" id="DejaVuSans-77"/>
     </defs>
     <use xlink:href="#DejaVuSans-67"/>
     <use x="69.824219" xlink:href="#DejaVuSans-79"/>
     <use x="148.535156" xlink:href="#DejaVuSans-77"/>
     <use x="234.814453" xlink:href="#DejaVuSans-79"/>
     <use x="316.275391" xlink:href="#DejaVuSans-45"/>
     <use x="352.359375" xlink:href="#DejaVuSans-49"/>
     <use x="415.982422" xlink:href="#DejaVuSans-48"/>
     <use x="479.605469" xlink:href="#DejaVuSans-48"/>
     <use x="543.228516" xlink:href="#DejaVuSans-32"/>
    </g>
   </g>
   <g id="text_14">
    <!-- SMS-EMOA- -->
    <g transform="translate(375.22944 212.307571)scale(0.17 -0.17)">
     <defs>
      <path d="M 53.515625 70.515625 
L 53.515625 60.890625 
Q 47.90625 63.578125 42.921875 64.890625 
Q 37.9375 66.21875 33.296875 66.21875 
Q 25.25 66.21875 20.875 63.09375 
Q 16.5 59.96875 16.5 54.203125 
Q 16.5 49.359375 19.40625 46.890625 
Q 22.3125 44.4375 30.421875 42.921875 
L 36.375 41.703125 
Q 47.40625 39.59375 52.65625 34.296875 
Q 57.90625 29 57.90625 20.125 
Q 57.90625 9.515625 50.796875 4.046875 
Q 43.703125 -1.421875 29.984375 -1.421875 
Q 24.8125 -1.421875 18.96875 -0.25 
Q 13.140625 0.921875 6.890625 3.21875 
L 6.890625 13.375 
Q 12.890625 10.015625 18.65625 8.296875 
Q 24.421875 6.59375 29.984375 6.59375 
Q 38.421875 6.59375 43.015625 9.90625 
Q 47.609375 13.234375 47.609375 19.390625 
Q 47.609375 24.75 44.3125 27.78125 
Q 41.015625 30.8125 33.5 32.328125 
L 27.484375 33.5 
Q 16.453125 35.6875 11.515625 40.375 
Q 6.59375 45.0625 6.59375 53.421875 
Q 6.59375 63.09375 13.40625 68.65625 
Q 20.21875 74.21875 32.171875 74.21875 
Q 37.3125 74.21875 42.625 73.28125 
Q 47.953125 72.359375 53.515625 70.515625 
z
" id="DejaVuSans-83"/>
      <path d="M 9.8125 72.90625 
L 55.90625 72.90625 
L 55.90625 64.59375 
L 19.671875 64.59375 
L 19.671875 43.015625 
L 54.390625 43.015625 
L 54.390625 34.71875 
L 19.671875 34.71875 
L 19.671875 8.296875 
L 56.78125 8.296875 
L 56.78125 0 
L 9.8125 0 
z
" id="DejaVuSans-69"/>
      <path d="M 34.1875 63.1875 
L 20.796875 26.90625 
L 47.609375 26.90625 
z
M 28.609375 72.90625 
L 39.796875 72.90625 
L 67.578125 0 
L 57.328125 0 
L 50.6875 18.703125 
L 17.828125 18.703125 
L 11.1875 0 
L 0.78125 0 
z
" id="DejaVuSans-65"/>
     </defs>
     <use xlink:href="#DejaVuSans-83"/>
     <use x="63.476562" xlink:href="#DejaVuSans-77"/>
     <use x="149.755859" xlink:href="#DejaVuSans-83"/>
     <use x="213.232422" xlink:href="#DejaVuSans-45"/>
     <use x="249.316406" xlink:href="#DejaVuSans-69"/>
     <use x="312.5" xlink:href="#DejaVuSans-77"/>
     <use x="398.779297" xlink:href="#DejaVuSans-79"/>
     <use x="475.740234" xlink:href="#DejaVuSans-65"/>
     <use x="541.898438" xlink:href="#DejaVuSans-45"/>
    </g>
   </g>
   <g id="text_15">
    <!-- NSGA-II-M -->
    <g transform="translate(375.22944 126.352403)scale(0.17 -0.17)">
     <defs>
      <path d="M 9.8125 72.90625 
L 23.09375 72.90625 
L 55.421875 11.921875 
L 55.421875 72.90625 
L 64.984375 72.90625 
L 64.984375 0 
L 51.703125 0 
L 19.390625 60.984375 
L 19.390625 0 
L 9.8125 0 
z
" id="DejaVuSans-78"/>
      <path d="M 59.515625 10.40625 
L 59.515625 29.984375 
L 43.40625 29.984375 
L 43.40625 38.09375 
L 69.28125 38.09375 
L 69.28125 6.78125 
Q 63.578125 2.734375 56.6875 0.65625 
Q 49.8125 -1.421875 42 -1.421875 
Q 24.90625 -1.421875 15.25 8.5625 
Q 5.609375 18.5625 5.609375 36.375 
Q 5.609375 54.25 15.25 64.234375 
Q 24.90625 74.21875 42 74.21875 
Q 49.125 74.21875 55.546875 72.453125 
Q 61.96875 70.703125 67.390625 67.28125 
L 67.390625 56.78125 
Q 61.921875 61.421875 55.765625 63.765625 
Q 49.609375 66.109375 42.828125 66.109375 
Q 29.4375 66.109375 22.71875 58.640625 
Q 16.015625 51.171875 16.015625 36.375 
Q 16.015625 21.625 22.71875 14.15625 
Q 29.4375 6.6875 42.828125 6.6875 
Q 48.046875 6.6875 52.140625 7.59375 
Q 56.25 8.5 59.515625 10.40625 
z
" id="DejaVuSans-71"/>
      <path d="M 9.8125 72.90625 
L 19.671875 72.90625 
L 19.671875 0 
L 9.8125 0 
z
" id="DejaVuSans-73"/>
     </defs>
     <use xlink:href="#DejaVuSans-78"/>
     <use x="74.804688" xlink:href="#DejaVuSans-83"/>
     <use x="138.28125" xlink:href="#DejaVuSans-71"/>
     <use x="215.771484" xlink:href="#DejaVuSans-65"/>
     <use x="281.929688" xlink:href="#DejaVuSans-45"/>
     <use x="318.013672" xlink:href="#DejaVuSans-73"/>
     <use x="347.505859" xlink:href="#DejaVuSans-73"/>
     <use x="376.998047" xlink:href="#DejaVuSans-45"/>
     <use x="413.082031" xlink:href="#DejaVuSans-77"/>
    </g>
   </g>
   <g id="text_16">
    <!-- best 2016 -->
    <g transform="translate(375.22944 40.397235)scale(0.17 -0.17)">
     <defs>
      <path d="M 48.6875 27.296875 
Q 48.6875 37.203125 44.609375 42.84375 
Q 40.53125 48.484375 33.40625 48.484375 
Q 26.265625 48.484375 22.1875 42.84375 
Q 18.109375 37.203125 18.109375 27.296875 
Q 18.109375 17.390625 22.1875 11.75 
Q 26.265625 6.109375 33.40625 6.109375 
Q 40.53125 6.109375 44.609375 11.75 
Q 48.6875 17.390625 48.6875 27.296875 
z
M 18.109375 46.390625 
Q 20.953125 51.265625 25.265625 53.625 
Q 29.59375 56 35.59375 56 
Q 45.5625 56 51.78125 48.09375 
Q 58.015625 40.1875 58.015625 27.296875 
Q 58.015625 14.40625 51.78125 6.484375 
Q 45.5625 -1.421875 35.59375 -1.421875 
Q 29.59375 -1.421875 25.265625 0.953125 
Q 20.953125 3.328125 18.109375 8.203125 
L 18.109375 0 
L 9.078125 0 
L 9.078125 75.984375 
L 18.109375 75.984375 
z
" id="DejaVuSans-98"/>
     </defs>
     <use xlink:href="#DejaVuSans-98"/>
     <use x="63.476562" xlink:href="#DejaVuSans-101"/>
     <use x="125" xlink:href="#DejaVuSans-115"/>
     <use x="177.099609" xlink:href="#DejaVuSans-116"/>
     <use x="216.308594" xlink:href="#DejaVuSans-32"/>
     <use x="248.095703" xlink:href="#DejaVuSans-50"/>
     <use x="311.71875" xlink:href="#DejaVuSans-48"/>
     <use x="375.341797" xlink:href="#DejaVuSans-49"/>
     <use x="438.964844" xlink:href="#DejaVuSans-54"/>
    </g>
   </g>
   <g id="text_17">
    <!-- bbob-biobj f32, 2-D -->
    <g transform="translate(60.41088 38.111366)scale(0.102 -0.102)">
     <defs>
      <path d="M 9.421875 54.6875 
L 18.40625 54.6875 
L 18.40625 -0.984375 
Q 18.40625 -11.421875 14.421875 -16.109375 
Q 10.453125 -20.796875 1.609375 -20.796875 
L -1.8125 -20.796875 
L -1.8125 -13.1875 
L 0.59375 -13.1875 
Q 5.71875 -13.1875 7.5625 -10.8125 
Q 9.421875 -8.453125 9.421875 -0.984375 
z
M 9.421875 75.984375 
L 18.40625 75.984375 
L 18.40625 64.59375 
L 9.421875 64.59375 
z
" id="DejaVuSans-106"/>
      <path d="M 40.578125 39.3125 
Q 47.65625 37.796875 51.625 33 
Q 55.609375 28.21875 55.609375 21.1875 
Q 55.609375 10.40625 48.1875 4.484375 
Q 40.765625 -1.421875 27.09375 -1.421875 
Q 22.515625 -1.421875 17.65625 -0.515625 
Q 12.796875 0.390625 7.625 2.203125 
L 7.625 11.71875 
Q 11.71875 9.328125 16.59375 8.109375 
Q 21.484375 6.890625 26.8125 6.890625 
Q 36.078125 6.890625 40.9375 10.546875 
Q 45.796875 14.203125 45.796875 21.1875 
Q 45.796875 27.640625 41.28125 31.265625 
Q 36.765625 34.90625 28.71875 34.90625 
L 20.21875 34.90625 
L 20.21875 43.015625 
L 29.109375 43.015625 
Q 36.375 43.015625 40.234375 45.921875 
Q 44.09375 48.828125 44.09375 54.296875 
Q 44.09375 59.90625 40.109375 62.90625 
Q 36.140625 65.921875 28.71875 65.921875 
Q 24.65625 65.921875 20.015625 65.03125 
Q 15.375 64.15625 9.8125 62.3125 
L 9.8125 71.09375 
Q 15.4375 72.65625 20.34375 73.4375 
Q 25.25 74.21875 29.59375 74.21875 
Q 40.828125 74.21875 47.359375 69.109375 
Q 53.90625 64.015625 53.90625 55.328125 
Q 53.90625 49.265625 50.4375 45.09375 
Q 46.96875 40.921875 40.578125 39.3125 
z
" id="DejaVuSans-51"/>
      <path d="M 19.671875 64.796875 
L 19.671875 8.109375 
L 31.59375 8.109375 
Q 46.6875 8.109375 53.6875 14.9375 
Q 60.6875 21.78125 60.6875 36.53125 
Q 60.6875 51.171875 53.6875 57.984375 
Q 46.6875 64.796875 31.59375 64.796875 
z
M 9.8125 72.90625 
L 30.078125 72.90625 
Q 51.265625 72.90625 61.171875 64.09375 
Q 71.09375 55.28125 71.09375 36.53125 
Q 71.09375 17.671875 61.125 8.828125 
Q 51.171875 0 30.078125 0 
L 9.8125 0 
z
" id="DejaVuSans-68"/>
     </defs>
     <use xlink:href="#DejaVuSans-98"/>
     <use x="63.476562" xlink:href="#DejaVuSans-98"/>
     <use x="126.953125" xlink:href="#DejaVuSans-111"/>
     <use x="188.134766" xlink:href="#DejaVuSans-98"/>
     <use x="251.611328" xlink:href="#DejaVuSans-45"/>
     <use x="287.695312" xlink:href="#DejaVuSans-98"/>
     <use x="351.171875" xlink:href="#DejaVuSans-105"/>
     <use x="378.955078" xlink:href="#DejaVuSans-111"/>
     <use x="440.136719" xlink:href="#DejaVuSans-98"/>
     <use x="503.613281" xlink:href="#DejaVuSans-106"/>
     <use x="531.396484" xlink:href="#DejaVuSans-32"/>
     <use x="563.183594" xlink:href="#DejaVuSans-102"/>
     <use x="598.388672" xlink:href="#DejaVuSans-51"/>
     <use x="662.011719" xlink:href="#DejaVuSans-50"/>
     <use x="725.634766" xlink:href="#DejaVuSans-44"/>
     <use x="757.421875" xlink:href="#DejaVuSans-32"/>
     <use x="789.208984" xlink:href="#DejaVuSans-50"/>
     <use x="852.832031" xlink:href="#DejaVuSans-45"/>
     <use x="888.916016" xlink:href="#DejaVuSans-68"/>
    </g>
    <!-- 58 targets: 1..-1.0e-4 -->
    <g transform="translate(60.41088 49.533135)scale(0.102 -0.102)">
     <defs>
      <path d="M 10.796875 72.90625 
L 49.515625 72.90625 
L 49.515625 64.59375 
L 19.828125 64.59375 
L 19.828125 46.734375 
Q 21.96875 47.46875 24.109375 47.828125 
Q 26.265625 48.1875 28.421875 48.1875 
Q 40.625 48.1875 47.75 41.5 
Q 54.890625 34.8125 54.890625 23.390625 
Q 54.890625 11.625 47.5625 5.09375 
Q 40.234375 -1.421875 26.90625 -1.421875 
Q 22.3125 -1.421875 17.546875 -0.640625 
Q 12.796875 0.140625 7.71875 1.703125 
L 7.71875 11.625 
Q 12.109375 9.234375 16.796875 8.0625 
Q 21.484375 6.890625 26.703125 6.890625 
Q 35.15625 6.890625 40.078125 11.328125 
Q 45.015625 15.765625 45.015625 23.390625 
Q 45.015625 31 40.078125 35.4375 
Q 35.15625 39.890625 26.703125 39.890625 
Q 22.75 39.890625 18.8125 39.015625 
Q 14.890625 38.140625 10.796875 36.28125 
z
" id="DejaVuSans-53"/>
      <path d="M 11.71875 12.40625 
L 22.015625 12.40625 
L 22.015625 0 
L 11.71875 0 
z
M 11.71875 51.703125 
L 22.015625 51.703125 
L 22.015625 39.3125 
L 11.71875 39.3125 
z
" id="DejaVuSans-58"/>
     </defs>
     <use xlink:href="#DejaVuSans-53"/>
     <use x="63.623047" xlink:href="#DejaVuSans-56"/>
     <use x="127.246094" xlink:href="#DejaVuSans-32"/>
     <use x="159.033203" xlink:href="#DejaVuSans-116"/>
     <use x="198.242188" xlink:href="#DejaVuSans-97"/>
     <use x="259.521484" xlink:href="#DejaVuSans-114"/>
     <use x="298.884766" xlink:href="#DejaVuSans-103"/>
     <use x="362.361328" xlink:href="#DejaVuSans-101"/>
     <use x="423.884766" xlink:href="#DejaVuSans-116"/>
     <use x="463.09375" xlink:href="#DejaVuSans-115"/>
     <use x="515.193359" xlink:href="#DejaVuSans-58"/>
     <use x="548.884766" xlink:href="#DejaVuSans-32"/>
     <use x="580.671875" xlink:href="#DejaVuSans-49"/>
     <use x="644.294922" xlink:href="#DejaVuSans-46"/>
     <use x="676.082031" xlink:href="#DejaVuSans-46"/>
     <use x="707.869141" xlink:href="#DejaVuSans-45"/>
     <use x="743.953125" xlink:href="#DejaVuSans-49"/>
     <use x="807.576172" xlink:href="#DejaVuSans-46"/>
     <use x="839.363281" xlink:href="#DejaVuSans-48"/>
     <use x="902.986328" xlink:href="#DejaVuSans-101"/>
     <use x="964.509766" xlink:href="#DejaVuSans-45"/>
     <use x="1000.59375" xlink:href="#DejaVuSans-52"/>
    </g>
    <!-- 10 instances -->
    <g transform="translate(60.41088 60.954904)scale(0.102 -0.102)">
     <use xlink:href="#DejaVuSans-49"/>
     <use x="63.623047" xlink:href="#DejaVuSans-48"/>
     <use x="127.246094" xlink:href="#DejaVuSans-32"/>
     <use x="159.033203" xlink:href="#DejaVuSans-105"/>
     <use x="186.816406" xlink:href="#DejaVuSans-110"/>
     <use x="250.195312" xlink:href="#DejaVuSans-115"/>
     <use x="302.294922" xlink:href="#DejaVuSans-116"/>
     <use x="341.503906" xlink:href="#DejaVuSans-97"/>
     <use x="402.783203" xlink:href="#DejaVuSans-110"/>
     <use x="466.162109" xlink:href="#DejaVuSans-99"/>
     <use x="521.142578" xlink:href="#DejaVuSans-101"/>
     <use x="582.666016" xlink:href="#DejaVuSans-115"/>
    </g>
   </g>
   <g id="text_18">
    <!-- v2.4.19, hv-hash=ff0e71e8cd978373 -->
    <g style="fill:#808080;" transform="translate(104.697125 294.151352)scale(0.1 -0.1)">
     <defs>
      <path d="M 10.984375 1.515625 
L 10.984375 10.5 
Q 14.703125 8.734375 18.5 7.8125 
Q 22.3125 6.890625 25.984375 6.890625 
Q 35.75 6.890625 40.890625 13.453125 
Q 46.046875 20.015625 46.78125 33.40625 
Q 43.953125 29.203125 39.59375 26.953125 
Q 35.25 24.703125 29.984375 24.703125 
Q 19.046875 24.703125 12.671875 31.3125 
Q 6.296875 37.9375 6.296875 49.421875 
Q 6.296875 60.640625 12.9375 67.421875 
Q 19.578125 74.21875 30.609375 74.21875 
Q 43.265625 74.21875 49.921875 64.515625 
Q 56.59375 54.828125 56.59375 36.375 
Q 56.59375 19.140625 48.40625 8.859375 
Q 40.234375 -1.421875 26.421875 -1.421875 
Q 22.703125 -1.421875 18.890625 -0.6875 
Q 15.09375 0.046875 10.984375 1.515625 
z
M 30.609375 32.421875 
Q 37.25 32.421875 41.125 36.953125 
Q 45.015625 41.5 45.015625 49.421875 
Q 45.015625 57.28125 41.125 61.84375 
Q 37.25 66.40625 30.609375 66.40625 
Q 23.96875 66.40625 20.09375 61.84375 
Q 16.21875 57.28125 16.21875 49.421875 
Q 16.21875 41.5 20.09375 36.953125 
Q 23.96875 32.421875 30.609375 32.421875 
z
" id="DejaVuSans-57"/>
      <path d="M 54.890625 33.015625 
L 54.890625 0 
L 45.90625 0 
L 45.90625 32.71875 
Q 45.90625 40.484375 42.875 44.328125 
Q 39.84375 48.1875 33.796875 48.1875 
Q 26.515625 48.1875 22.3125 43.546875 
Q 18.109375 38.921875 18.109375 30.90625 
L 18.109375 0 
L 9.078125 0 
L 9.078125 75.984375 
L 18.109375 75.984375 
L 18.109375 46.1875 
Q 21.34375 51.125 25.703125 53.5625 
Q 30.078125 56 35.796875 56 
Q 45.21875 56 50.046875 50.171875 
Q 54.890625 44.34375 54.890625 33.015625 
z
" id="DejaVuSans-104"/>
      <path d="M 10.59375 45.40625 
L 73.1875 45.40625 
L 73.1875 37.203125 
L 10.59375 37.203125 
z
M 10.59375 25.484375 
L 73.1875 25.484375 
L 73.1875 17.1875 
L 10.59375 17.1875 
z
" id="DejaVuSans-61"/>
      <path d="M 8.203125 72.90625 
L 55.078125 72.90625 
L 55.078125 68.703125 
L 28.609375 0 
L 18.3125 0 
L 43.21875 64.59375 
L 8.203125 64.59375 
z
" id="DejaVuSans-55"/>
     </defs>
     <use xlink:href="#DejaVuSans-118"/>
     <use x="59.179688" xlink:href="#DejaVuSans-50"/>
     <use x="122.802734" xlink:href="#DejaVuSans-46"/>
     <use x="154.589844" xlink:href="#DejaVuSans-52"/>
     <use x="218.212891" xlink:href="#DejaVuSans-46"/>
     <use x="250" xlink:href="#DejaVuSans-49"/>
     <use x="313.623047" xlink:href="#DejaVuSans-57"/>
     <use x="377.246094" xlink:href="#DejaVuSans-44"/>
     <use x="409.033203" xlink:href="#DejaVuSans-32"/>
     <use x="440.820312" xlink:href="#DejaVuSans-104"/>
     <use x="504.199219" xlink:href="#DejaVuSans-118"/>
     <use x="560.753906" xlink:href="#DejaVuSans-45"/>
     <use x="596.837891" xlink:href="#DejaVuSans-104"/>
     <use x="660.216797" xlink:href="#DejaVuSans-97"/>
     <use x="721.496094" xlink:href="#DejaVuSans-115"/>
     <use x="773.595703" xlink:href="#DejaVuSans-104"/>
     <use x="836.974609" xlink:href="#DejaVuSans-61"/>
     <use x="920.763672" xlink:href="#DejaVuSans-102"/>
     <use x="955.96875" xlink:href="#DejaVuSans-102"/>
     <use x="991.173828" xlink:href="#DejaVuSans-48"/>
     <use x="1054.796875" xlink:href="#DejaVuSans-101"/>
     <use x="1116.320312" xlink:href="#DejaVuSans-55"/>
     <use x="1179.943359" xlink:href="#DejaVuSans-49"/>
     <use x="1243.566406" xlink:href="#DejaVuSans-101"/>
     <use x="1305.089844" xlink:href="#DejaVuSans-56"/>
     <use x="1368.712891" xlink:href="#DejaVuSans-99"/>
     <use x="1423.693359" xlink:href="#DejaVuSans-100"/>
     <use x="1487.169922" xlink:href="#DejaVuSans-57"/>
     <use x="1550.792969" xlink:href="#DejaVuSans-55"/>
     <use x="1614.416016" xlink:href="#DejaVuSans-56"/>
     <use x="1678.039062" xlink:href="#DejaVuSans-51"/>
     <use x="1741.662109" xlink:href="#DejaVuSans-55"/>
     <use x="1805.285156" xlink:href="#DejaVuSans-51"/>
    </g>
   </g>
   <g id="text_19">
    <!-- 32 Rosenbrock/Schaffer F7 -->
    <g transform="translate(64.003375 21.648)scale(0.2 -0.2)">
     <defs>
      <path d="M 44.390625 34.1875 
Q 47.5625 33.109375 50.5625 29.59375 
Q 53.5625 26.078125 56.59375 19.921875 
L 66.609375 0 
L 56 0 
L 46.6875 18.703125 
Q 43.0625 26.03125 39.671875 28.421875 
Q 36.28125 30.8125 30.421875 30.8125 
L 19.671875 30.8125 
L 19.671875 0 
L 9.8125 0 
L 9.8125 72.90625 
L 32.078125 72.90625 
Q 44.578125 72.90625 50.734375 67.671875 
Q 56.890625 62.453125 56.890625 51.90625 
Q 56.890625 45.015625 53.6875 40.46875 
Q 50.484375 35.9375 44.390625 34.1875 
z
M 19.671875 64.796875 
L 19.671875 38.921875 
L 32.078125 38.921875 
Q 39.203125 38.921875 42.84375 42.21875 
Q 46.484375 45.515625 46.484375 51.90625 
Q 46.484375 58.296875 42.84375 61.546875 
Q 39.203125 64.796875 32.078125 64.796875 
z
" id="DejaVuSans-82"/>
      <path d="M 9.078125 75.984375 
L 18.109375 75.984375 
L 18.109375 31.109375 
L 44.921875 54.6875 
L 56.390625 54.6875 
L 27.390625 29.109375 
L 57.625 0 
L 45.90625 0 
L 18.109375 26.703125 
L 18.109375 0 
L 9.078125 0 
z
" id="DejaVuSans-107"/>
     </defs>
     <use xlink:href="#DejaVuSans-51"/>
     <use x="63.623047" xlink:href="#DejaVuSans-50"/>
     <use x="127.246094" xlink:href="#DejaVuSans-32"/>
     <use x="159.033203" xlink:href="#DejaVuSans-82"/>
     <use x="224.015625" xlink:href="#DejaVuSans-111"/>
     <use x="285.197266" xlink:href="#DejaVuSans-115"/>
     <use x="337.296875" xlink:href="#DejaVuSans-101"/>
     <use x="398.820312" xlink:href="#DejaVuSans-110"/>
     <use x="462.199219" xlink:href="#DejaVuSans-98"/>
     <use x="525.675781" xlink:href="#DejaVuSans-114"/>
     <use x="564.539062" xlink:href="#DejaVuSans-111"/>
     <use x="625.720703" xlink:href="#DejaVuSans-99"/>
     <use x="680.701172" xlink:href="#DejaVuSans-107"/>
     <use x="738.611328" xlink:href="#DejaVuSans-47"/>
     <use x="772.302734" xlink:href="#DejaVuSans-83"/>
     <use x="835.779297" xlink:href="#DejaVuSans-99"/>
     <use x="890.759766" xlink:href="#DejaVuSans-104"/>
     <use x="954.138672" xlink:href="#DejaVuSans-97"/>
     <use x="1015.417969" xlink:href="#DejaVuSans-102"/>
     <use x="1050.623047" xlink:href="#DejaVuSans-102"/>
     <use x="1085.828125" xlink:href="#DejaVuSans-101"/>
     <use x="1147.351562" xlink:href="#DejaVuSans-114"/>
     <use x="1188.464844" xlink:href="#DejaVuSans-32"/>
     <use x="1220.251953" xlink:href="#DejaVuSans-70"/>
     <use x="1277.771484" xlink:href="#DejaVuSans-55"/>
    </g>
   </g>
  </g>
 </g>
 <defs>
  <clipPath id="pdba348d429">
   <rect height="271.296" width="281.088" x="57.6" y="27.648"/>
  </clipPath>
 </defs>
</svg>
