<?xml version="1.0" encoding="utf-8" standalone="no"?>
<!DOCTYPE svg PUBLIC "-//W3C//DTD SVG 1.1//EN"
  "http://www.w3.org/Graphics/SVG/1.1/DTD/svg11.dtd">
<!-- Created with matplotlib (https://matplotlib.org/) -->
<svg height="345.6pt" version="1.1" viewBox="0 0 460.8 345.6" width="460.8pt" xmlns="http://www.w3.org/2000/svg" xmlns:xlink="http://www.w3.org/1999/xlink">
 <metadata>
  <rdf:RDF xmlns:cc="http://creativecommons.org/ns#" xmlns:dc="http://purl.org/dc/elements/1.1/" xmlns:rdf="http://www.w3.org/1999/02/22-rdf-syntax-ns#">
   <cc:Work>
    <dc:type rdf:resource="http://purl.org/dc/dcmitype/StillImage"/>
    <dc:date>2021-04-26T15:06:15.585846</dc:date>
    <dc:format>image/svg+xml</dc:format>
    <dc:creator>
     <cc:Agent>
      <dc:title>Matplotlib v3.3.2, https://matplotlib.org/</dc:title>
     </cc:Agent>
    </dc:creator>
   </cc:Work>
  </rdf:RDF>
 </metadata>
 <defs>
  <style type="text/css">*{stroke-linecap:butt;stroke-linejoin:round;}</style>
 </defs>
 <g id="figure_1">
  <g id="patch_1">
   <path d="M 0 345.6 
L 460.8 345.6 
L 460.8 0 
L 0 0 
z
" style="fill:#ffffff;"/>
  </g>
  <g id="axes_1">
   <g id="patch_2">
    <path d="M 57.6 298.944 
L 338.688 298.944 
L 338.688 27.648 
L 57.6 27.648 
z
" style="fill:#ffffff;"/>
   </g>
   <g id="line2d_1">
    <path d="M 62.616969 298.944 
L 62.616969 294.312795 
L 69.687988 294.312795 
L 69.687988 285.050384 
L 74.704957 285.050384 
L 74.704957 275.787974 
L 88.846997 275.787974 
L 88.846997 271.156769 
L 96.552242 271.156769 
L 96.552242 257.263153 
L 108.326001 257.263153 
L 108.326001 248.000743 
L 115.291007 248.000743 
L 115.291007 243.369538 
L 120.571812 243.369538 
L 120.571812 234.107127 
L 127.590383 234.107127 
L 127.590383 220.213512 
L 136.519813 220.213512 
L 136.519813 210.951101 
L 145.212864 210.951101 
L 145.212864 201.688691 
L 151.634543 201.688691 
L 151.634543 192.426281 
L 157.660438 192.426281 
L 157.660438 187.795075 
L 164.024234 187.795075 
L 164.024234 173.90146 
L 171.116915 173.90146 
L 171.116915 169.270255 
L 184.745395 169.270255 
L 184.745395 155.376639 
L 193.733706 155.376639 
L 193.733706 146.114229 
L 202.539096 146.114229 
L 202.539096 141.483024 
L 208.173303 141.483024 
L 208.173303 127.589408 
L 214.879565 127.589408 
L 214.879565 122.958203 
L 221.980133 122.958203 
L 221.980133 109.064587 
L 229.761728 109.064587 
L 229.761728 99.802177 
L 238.582539 99.802177 
L 238.582539 90.539766 
L 244.158901 90.539766 
L 244.158901 85.908561 
L 250.108386 85.908561 
L 250.108386 76.646151 
L 256.53172 76.646151 
L 256.53172 62.752535 
L 338.688 62.752535 
" style="fill:none;stroke:#f5deb3;stroke-linecap:square;stroke-width:4;"/>
   </g>
   <g id="line2d_2">
    <defs>
     <path d="M 0 7.778175 
L 7.778175 0 
L 0 -7.778175 
L -7.778175 0 
z
" id="ma8e6d228ae" style="stroke:#f5deb3;stroke-linejoin:miter;stroke-width:1.5;"/>
    </defs>
    <g>
     <use style="fill:#f5deb3;stroke:#f5deb3;stroke-linejoin:miter;stroke-width:1.5;" x="127.590383" xlink:href="#ma8e6d228ae" y="234.107127"/>
     <use style="fill:#f5deb3;stroke:#f5deb3;stroke-linejoin:miter;stroke-width:1.5;" x="193.733706" xlink:href="#ma8e6d228ae" y="146.114229"/>
     <use style="fill:#f5deb3;stroke:#f5deb3;stroke-linejoin:miter;stroke-width:1.5;" x="256.53172" xlink:href="#ma8e6d228ae" y="76.646151"/>
     <use style="fill:#f5deb3;stroke:#f5deb3;stroke-linejoin:miter;stroke-width:1.5;" x="256.53172" xlink:href="#ma8e6d228ae" y="62.752535"/>
     <use style="fill:#f5deb3;stroke:#f5deb3;stroke-linejoin:miter;stroke-width:1.5;" x="338.688" xlink:href="#ma8e6d228ae" y="62.752535"/>
    </g>
   </g>
   <g id="line2d_3">
    <path style="fill:none;stroke:#f5deb3;stroke-linecap:square;stroke-width:4;"/>
    <g/>
   </g>
   <g id="line2d_4">
    <path d="M 338.688 62.752535 
L 369.60768 35.706297 
" style="fill:none;stroke:#f5deb3;stroke-linecap:square;stroke-width:4;"/>
    <g>
     <use style="fill:#f5deb3;stroke:#f5deb3;stroke-linejoin:miter;stroke-width:1.5;" x="338.688" xlink:href="#ma8e6d228ae" y="62.752535"/>
     <use style="fill:#f5deb3;stroke:#f5deb3;stroke-linejoin:miter;stroke-width:1.5;" x="369.60768" xlink:href="#ma8e6d228ae" y="35.706297"/>
    </g>
   </g>
   <g id="matplotlib.axis_1">
    <g id="xtick_1">
     <g id="line2d_5">
      <path clip-path="url(#p4a6351e7d5)" d="M 57.6 298.944 
L 57.6 27.648 
" style="fill:none;stroke:#b0b0b0;stroke-linecap:square;stroke-width:0.8;"/>
     </g>
     <g id="line2d_6">
      <defs>
       <path d="M 0 0 
L 0 3.5 
" id="m95c29243b0" style="stroke:#000000;stroke-width:0.8;"/>
      </defs>
      <g>
       <use style="stroke:#000000;stroke-width:0.8;" x="57.6" xlink:href="#m95c29243b0" y="298.944"/>
      </g>
     </g>
     <g id="text_1">
      <!-- 0 -->
      <g transform="translate(51.2375 321.140875)scale(0.2 -0.2)">
       <defs>
        <path d="M 31.78125 66.40625 
Q 24.171875 66.40625 20.328125 58.90625 
Q 16.5 51.421875 16.5 36.375 
Q 16.5 21.390625 20.328125 13.890625 
Q 24.171875 6.390625 31.78125 6.390625 
Q 39.453125 6.390625 43.28125 13.890625 
Q 47.125 21.390625 47.125 36.375 
Q 47.125 51.421875 43.28125 58.90625 
Q 39.453125 66.40625 31.78125 66.40625 
z
M 31.78125 74.21875 
Q 44.046875 74.21875 50.515625 64.515625 
Q 56.984375 54.828125 56.984375 36.375 
Q 56.984375 17.96875 50.515625 8.265625 
Q 44.046875 -1.421875 31.78125 -1.421875 
Q 19.53125 -1.421875 13.0625 8.265625 
Q 6.59375 17.96875 6.59375 36.375 
Q 6.59375 54.828125 13.0625 64.515625 
Q 19.53125 74.21875 31.78125 74.21875 
z
" id="DejaVuSans-48"/>
       </defs>
       <use xlink:href="#DejaVuSans-48"/>
      </g>
     </g>
    </g>
    <g id="xtick_2">
     <g id="line2d_7">
      <path clip-path="url(#p4a6351e7d5)" d="M 137.910857 298.944 
L 137.910857 27.648 
" style="fill:none;stroke:#b0b0b0;stroke-linecap:square;stroke-width:0.8;"/>
     </g>
     <g id="line2d_8">
      <g>
       <use style="stroke:#000000;stroke-width:0.8;" x="137.910857" xlink:href="#m95c29243b0" y="298.944"/>
      </g>
     </g>
     <g id="text_2">
      <!-- 2 -->
      <g transform="translate(131.548357 321.140875)scale(0.2 -0.2)">
       <defs>
        <path d="M 19.1875 8.296875 
L 53.609375 8.296875 
L 53.609375 0 
L 7.328125 0 
L 7.328125 8.296875 
Q 12.9375 14.109375 22.625 23.890625 
Q 32.328125 33.6875 34.8125 36.53125 
Q 39.546875 41.84375 41.421875 45.53125 
Q 43.3125 49.21875 43.3125 52.78125 
Q 43.3125 58.59375 39.234375 62.25 
Q 35.15625 65.921875 28.609375 65.921875 
Q 23.96875 65.921875 18.8125 64.3125 
Q 13.671875 62.703125 7.8125 59.421875 
L 7.8125 69.390625 
Q 13.765625 71.78125 18.9375 73 
Q 24.125 74.21875 28.421875 74.21875 
Q 39.75 74.21875 46.484375 68.546875 
Q 53.21875 62.890625 53.21875 53.421875 
Q 53.21875 48.921875 51.53125 44.890625 
Q 49.859375 40.875 45.40625 35.40625 
Q 44.1875 33.984375 37.640625 27.21875 
Q 31.109375 20.453125 19.1875 8.296875 
z
" id="DejaVuSans-50"/>
       </defs>
       <use xlink:href="#DejaVuSans-50"/>
      </g>
     </g>
    </g>
    <g id="xtick_3">
     <g id="line2d_9">
      <path clip-path="url(#p4a6351e7d5)" d="M 218.221714 298.944 
L 218.221714 27.648 
" style="fill:none;stroke:#b0b0b0;stroke-linecap:square;stroke-width:0.8;"/>
     </g>
     <g id="line2d_10">
      <g>
       <use style="stroke:#000000;stroke-width:0.8;" x="218.221714" xlink:href="#m95c29243b0" y="298.944"/>
      </g>
     </g>
     <g id="text_3">
      <!-- 4 -->
      <g transform="translate(211.859214 321.140875)scale(0.2 -0.2)">
       <defs>
        <path d="M 37.796875 64.3125 
L 12.890625 25.390625 
L 37.796875 25.390625 
z
M 35.203125 72.90625 
L 47.609375 72.90625 
L 47.609375 25.390625 
L 58.015625 25.390625 
L 58.015625 17.1875 
L 47.609375 17.1875 
L 47.609375 0 
L 37.796875 0 
L 37.796875 17.1875 
L 4.890625 17.1875 
L 4.890625 26.703125 
z
" id="DejaVuSans-52"/>
       </defs>
       <use xlink:href="#DejaVuSans-52"/>
      </g>
     </g>
    </g>
    <g id="xtick_4">
     <g id="line2d_11">
      <path clip-path="url(#p4a6351e7d5)" d="M 298.532571 298.944 
L 298.532571 27.648 
" style="fill:none;stroke:#b0b0b0;stroke-linecap:square;stroke-width:0.8;"/>
     </g>
     <g id="line2d_12">
      <g>
       <use style="stroke:#000000;stroke-width:0.8;" x="298.532571" xlink:href="#m95c29243b0" y="298.944"/>
      </g>
     </g>
     <g id="text_4">
      <!-- 6 -->
      <g transform="translate(292.170071 321.140875)scale(0.2 -0.2)">
       <defs>
        <path d="M 33.015625 40.375 
Q 26.375 40.375 22.484375 35.828125 
Q 18.609375 31.296875 18.609375 23.390625 
Q 18.609375 15.53125 22.484375 10.953125 
Q 26.375 6.390625 33.015625 6.390625 
Q 39.65625 6.390625 43.53125 10.953125 
Q 47.40625 15.53125 47.40625 23.390625 
Q 47.40625 31.296875 43.53125 35.828125 
Q 39.65625 40.375 33.015625 40.375 
z
M 52.59375 71.296875 
L 52.59375 62.3125 
Q 48.875 64.0625 45.09375 64.984375 
Q 41.3125 65.921875 37.59375 65.921875 
Q 27.828125 65.921875 22.671875 59.328125 
Q 17.53125 52.734375 16.796875 39.40625 
Q 19.671875 43.65625 24.015625 45.921875 
Q 28.375 48.1875 33.59375 48.1875 
Q 44.578125 48.1875 50.953125 41.515625 
Q 57.328125 34.859375 57.328125 23.390625 
Q 57.328125 12.15625 50.6875 5.359375 
Q 44.046875 -1.421875 33.015625 -1.421875 
Q 20.359375 -1.421875 13.671875 8.265625 
Q 6.984375 17.96875 6.984375 36.375 
Q 6.984375 53.65625 15.1875 63.9375 
Q 23.390625 74.21875 37.203125 74.21875 
Q 40.921875 74.21875 44.703125 73.484375 
Q 48.484375 72.75 52.59375 71.296875 
z
" id="DejaVuSans-54"/>
       </defs>
       <use xlink:href="#DejaVuSans-54"/>
      </g>
     </g>
    </g>
    <g id="xtick_5">
     <g id="line2d_13">
      <path clip-path="url(#p4a6351e7d5)" d="M 97.755429 298.944 
L 97.755429 27.648 
" style="fill:none;stroke:#b0b0b0;stroke-linecap:square;stroke-width:0.8;"/>
     </g>
     <g id="line2d_14">
      <defs>
       <path d="M 0 0 
L 0 2 
" id="m13930a0fb4" style="stroke:#000000;stroke-width:0.6;"/>
      </defs>
      <g>
       <use style="stroke:#000000;stroke-width:0.6;" x="97.755429" xlink:href="#m13930a0fb4" y="298.944"/>
      </g>
     </g>
    </g>
    <g id="xtick_6">
     <g id="line2d_15">
      <path clip-path="url(#p4a6351e7d5)" d="M 178.066286 298.944 
L 178.066286 27.648 
" style="fill:none;stroke:#b0b0b0;stroke-linecap:square;stroke-width:0.8;"/>
     </g>
     <g id="line2d_16">
      <g>
       <use style="stroke:#000000;stroke-width:0.6;" x="178.066286" xlink:href="#m13930a0fb4" y="298.944"/>
      </g>
     </g>
    </g>
    <g id="xtick_7">
     <g id="line2d_17">
      <path clip-path="url(#p4a6351e7d5)" d="M 258.377143 298.944 
L 258.377143 27.648 
" style="fill:none;stroke:#b0b0b0;stroke-linecap:square;stroke-width:0.8;"/>
     </g>
     <g id="line2d_18">
      <g>
       <use style="stroke:#000000;stroke-width:0.6;" x="258.377143" xlink:href="#m13930a0fb4" y="298.944"/>
      </g>
     </g>
    </g>
    <g id="xtick_8">
     <g id="line2d_19">
      <path clip-path="url(#p4a6351e7d5)" d="M 338.688 298.944 
L 338.688 27.648 
" style="fill:none;stroke:#b0b0b0;stroke-linecap:square;stroke-width:0.8;"/>
     </g>
     <g id="line2d_20">
      <g>
       <use style="stroke:#000000;stroke-width:0.6;" x="338.688" xlink:href="#m13930a0fb4" y="298.944"/>
      </g>
     </g>
    </g>
    <g id="text_5">
     <!-- log10(# f-evals / dimension) -->
     <g transform="translate(77.764078 342.217594)scale(0.17 -0.17)">
      <defs>
       <path d="M 9.421875 75.984375 
L 18.40625 75.984375 
L 18.40625 0 
L 9.421875 0 
z
" id="DejaVuSans-108"/>
       <path d="M 30.609375 48.390625 
Q 23.390625 48.390625 19.1875 42.75 
Q 14.984375 37.109375 14.984375 27.296875 
Q 14.984375 17.484375 19.15625 11.84375 
Q 23.34375 6.203125 30.609375 6.203125 
Q 37.796875 6.203125 41.984375 11.859375 
Q 46.1875 17.53125 46.1875 27.296875 
Q 46.1875 37.015625 41.984375 42.703125 
Q 37.796875 48.390625 30.609375 48.390625 
z
M 30.609375 56 
Q 42.328125 56 49.015625 48.375 
Q 55.71875 40.765625 55.71875 27.296875 
Q 55.71875 13.875 49.015625 6.21875 
Q 42.328125 -1.421875 30.609375 -1.421875 
Q 18.84375 -1.421875 12.171875 6.21875 
Q 5.515625 13.875 5.515625 27.296875 
Q 5.515625 40.765625 12.171875 48.375 
Q 18.84375 56 30.609375 56 
z
" id="DejaVuSans-111"/>
       <path d="M 45.40625 27.984375 
Q 45.40625 37.75 41.375 43.109375 
Q 37.359375 48.484375 30.078125 48.484375 
Q 22.859375 48.484375 18.828125 43.109375 
Q 14.796875 37.75 14.796875 27.984375 
Q 14.796875 18.265625 18.828125 12.890625 
Q 22.859375 7.515625 30.078125 7.515625 
Q 37.359375 7.515625 41.375 12.890625 
Q 45.40625 18.265625 45.40625 27.984375 
z
M 54.390625 6.78125 
Q 54.390625 -7.171875 48.1875 -13.984375 
Q 42 -20.796875 29.203125 -20.796875 
Q 24.46875 -20.796875 20.265625 -20.09375 
Q 16.0625 -19.390625 12.109375 -17.921875 
L 12.109375 -9.1875 
Q 16.0625 -11.328125 19.921875 -12.34375 
Q 23.78125 -13.375 27.78125 -13.375 
Q 36.625 -13.375 41.015625 -8.765625 
Q 45.40625 -4.15625 45.40625 5.171875 
L 45.40625 9.625 
Q 42.625 4.78125 38.28125 2.390625 
Q 33.9375 0 27.875 0 
Q 17.828125 0 11.671875 7.65625 
Q 5.515625 15.328125 5.515625 27.984375 
Q 5.515625 40.671875 11.671875 48.328125 
Q 17.828125 56 27.875 56 
Q 33.9375 56 38.28125 53.609375 
Q 42.625 51.21875 45.40625 46.390625 
L 45.40625 54.6875 
L 54.390625 54.6875 
z
" id="DejaVuSans-103"/>
       <path d="M 12.40625 8.296875 
L 28.515625 8.296875 
L 28.515625 63.921875 
L 10.984375 60.40625 
L 10.984375 69.390625 
L 28.421875 72.90625 
L 38.28125 72.90625 
L 38.28125 8.296875 
L 54.390625 8.296875 
L 54.390625 0 
L 12.40625 0 
z
" id="DejaVuSans-49"/>
       <path d="M 31 75.875 
Q 24.46875 64.65625 21.28125 53.65625 
Q 18.109375 42.671875 18.109375 31.390625 
Q 18.109375 20.125 21.3125 9.0625 
Q 24.515625 -2 31 -13.1875 
L 23.1875 -13.1875 
Q 15.875 -1.703125 12.234375 9.375 
Q 8.59375 20.453125 8.59375 31.390625 
Q 8.59375 42.28125 12.203125 53.3125 
Q 15.828125 64.359375 23.1875 75.875 
z
" id="DejaVuSans-40"/>
       <path d="M 51.125 44 
L 36.921875 44 
L 32.8125 27.6875 
L 47.125 27.6875 
z
M 43.796875 71.78125 
L 38.71875 51.515625 
L 52.984375 51.515625 
L 58.109375 71.78125 
L 65.921875 71.78125 
L 60.890625 51.515625 
L 76.125 51.515625 
L 76.125 44 
L 58.984375 44 
L 54.984375 27.6875 
L 70.515625 27.6875 
L 70.515625 20.21875 
L 53.078125 20.21875 
L 48 0 
L 40.1875 0 
L 45.21875 20.21875 
L 30.90625 20.21875 
L 25.875 0 
L 18.015625 0 
L 23.09375 20.21875 
L 7.71875 20.21875 
L 7.71875 27.6875 
L 24.90625 27.6875 
L 29 44 
L 13.28125 44 
L 13.28125 51.515625 
L 30.90625 51.515625 
L 35.890625 71.78125 
z
" id="DejaVuSans-35"/>
       <path id="DejaVuSans-32"/>
       <path d="M 37.109375 75.984375 
L 37.109375 68.5 
L 28.515625 68.5 
Q 23.6875 68.5 21.796875 66.546875 
Q 19.921875 64.59375 19.921875 59.515625 
L 19.921875 54.6875 
L 34.71875 54.6875 
L 34.71875 47.703125 
L 19.921875 47.703125 
L 19.921875 0 
L 10.890625 0 
L 10.890625 47.703125 
L 2.296875 47.703125 
L 2.296875 54.6875 
L 10.890625 54.6875 
L 10.890625 58.5 
Q 10.890625 67.625 15.140625 71.796875 
Q 19.390625 75.984375 28.609375 75.984375 
z
" id="DejaVuSans-102"/>
       <path d="M 4.890625 31.390625 
L 31.203125 31.390625 
L 31.203125 23.390625 
L 4.890625 23.390625 
z
" id="DejaVuSans-45"/>
       <path d="M 56.203125 29.59375 
L 56.203125 25.203125 
L 14.890625 25.203125 
Q 15.484375 15.921875 20.484375 11.0625 
Q 25.484375 6.203125 34.421875 6.203125 
Q 39.59375 6.203125 44.453125 7.46875 
Q 49.3125 8.734375 54.109375 11.28125 
L 54.109375 2.78125 
Q 49.265625 0.734375 44.1875 -0.34375 
Q 39.109375 -1.421875 33.890625 -1.421875 
Q 20.796875 -1.421875 13.15625 6.1875 
Q 5.515625 13.8125 5.515625 26.8125 
Q 5.515625 40.234375 12.765625 48.109375 
Q 20.015625 56 32.328125 56 
Q 43.359375 56 49.78125 48.890625 
Q 56.203125 41.796875 56.203125 29.59375 
z
M 47.21875 32.234375 
Q 47.125 39.59375 43.09375 43.984375 
Q 39.0625 48.390625 32.421875 48.390625 
Q 24.90625 48.390625 20.390625 44.140625 
Q 15.875 39.890625 15.1875 32.171875 
z
" id="DejaVuSans-101"/>
       <path d="M 2.984375 54.6875 
L 12.5 54.6875 
L 29.59375 8.796875 
L 46.6875 54.6875 
L 56.203125 54.6875 
L 35.6875 0 
L 23.484375 0 
z
" id="DejaVuSans-118"/>
       <path d="M 34.28125 27.484375 
Q 23.390625 27.484375 19.1875 25 
Q 14.984375 22.515625 14.984375 16.5 
Q 14.984375 11.71875 18.140625 8.90625 
Q 21.296875 6.109375 26.703125 6.109375 
Q 34.1875 6.109375 38.703125 11.40625 
Q 43.21875 16.703125 43.21875 25.484375 
L 43.21875 27.484375 
z
M 52.203125 31.203125 
L 52.203125 0 
L 43.21875 0 
L 43.21875 8.296875 
Q 40.140625 3.328125 35.546875 0.953125 
Q 30.953125 -1.421875 24.3125 -1.421875 
Q 15.921875 -1.421875 10.953125 3.296875 
Q 6 8.015625 6 15.921875 
Q 6 25.140625 12.171875 29.828125 
Q 18.359375 34.515625 30.609375 34.515625 
L 43.21875 34.515625 
L 43.21875 35.40625 
Q 43.21875 41.609375 39.140625 45 
Q 35.0625 48.390625 27.6875 48.390625 
Q 23 48.390625 18.546875 47.265625 
Q 14.109375 46.140625 10.015625 43.890625 
L 10.015625 52.203125 
Q 14.9375 54.109375 19.578125 55.046875 
Q 24.21875 56 28.609375 56 
Q 40.484375 56 46.34375 49.84375 
Q 52.203125 43.703125 52.203125 31.203125 
z
" id="DejaVuSans-97"/>
       <path d="M 44.28125 53.078125 
L 44.28125 44.578125 
Q 40.484375 46.53125 36.375 47.5 
Q 32.28125 48.484375 27.875 48.484375 
Q 21.1875 48.484375 17.84375 46.4375 
Q 14.5 44.390625 14.5 40.28125 
Q 14.5 37.15625 16.890625 35.375 
Q 19.28125 33.59375 26.515625 31.984375 
L 29.59375 31.296875 
Q 39.15625 29.25 43.1875 25.515625 
Q 47.21875 21.78125 47.21875 15.09375 
Q 47.21875 7.46875 41.1875 3.015625 
Q 35.15625 -1.421875 24.609375 -1.421875 
Q 20.21875 -1.421875 15.453125 -0.5625 
Q 10.6875 0.296875 5.421875 2 
L 5.421875 11.28125 
Q 10.40625 8.6875 15.234375 7.390625 
Q 20.0625 6.109375 24.8125 6.109375 
Q 31.15625 6.109375 34.5625 8.28125 
Q 37.984375 10.453125 37.984375 14.40625 
Q 37.984375 18.0625 35.515625 20.015625 
Q 33.0625 21.96875 24.703125 23.78125 
L 21.578125 24.515625 
Q 13.234375 26.265625 9.515625 29.90625 
Q 5.8125 33.546875 5.8125 39.890625 
Q 5.8125 47.609375 11.28125 51.796875 
Q 16.75 56 26.8125 56 
Q 31.78125 56 36.171875 55.265625 
Q 40.578125 54.546875 44.28125 53.078125 
z
" id="DejaVuSans-115"/>
       <path d="M 25.390625 72.90625 
L 33.6875 72.90625 
L 8.296875 -9.28125 
L 0 -9.28125 
z
" id="DejaVuSans-47"/>
       <path d="M 45.40625 46.390625 
L 45.40625 75.984375 
L 54.390625 75.984375 
L 54.390625 0 
L 45.40625 0 
L 45.40625 8.203125 
Q 42.578125 3.328125 38.25 0.953125 
Q 33.9375 -1.421875 27.875 -1.421875 
Q 17.96875 -1.421875 11.734375 6.484375 
Q 5.515625 14.40625 5.515625 27.296875 
Q 5.515625 40.1875 11.734375 48.09375 
Q 17.96875 56 27.875 56 
Q 33.9375 56 38.25 53.625 
Q 42.578125 51.265625 45.40625 46.390625 
z
M 14.796875 27.296875 
Q 14.796875 17.390625 18.875 11.75 
Q 22.953125 6.109375 30.078125 6.109375 
Q 37.203125 6.109375 41.296875 11.75 
Q 45.40625 17.390625 45.40625 27.296875 
Q 45.40625 37.203125 41.296875 42.84375 
Q 37.203125 48.484375 30.078125 48.484375 
Q 22.953125 48.484375 18.875 42.84375 
Q 14.796875 37.203125 14.796875 27.296875 
z
" id="DejaVuSans-100"/>
       <path d="M 9.421875 54.6875 
L 18.40625 54.6875 
L 18.40625 0 
L 9.421875 0 
z
M 9.421875 75.984375 
L 18.40625 75.984375 
L 18.40625 64.59375 
L 9.421875 64.59375 
z
" id="DejaVuSans-105"/>
       <path d="M 52 44.1875 
Q 55.375 50.25 60.0625 53.125 
Q 64.75 56 71.09375 56 
Q 79.640625 56 84.28125 50.015625 
Q 88.921875 44.046875 88.921875 33.015625 
L 88.921875 0 
L 79.890625 0 
L 79.890625 32.71875 
Q 79.890625 40.578125 77.09375 44.375 
Q 74.3125 48.1875 68.609375 48.1875 
Q 61.625 48.1875 57.5625 43.546875 
Q 53.515625 38.921875 53.515625 30.90625 
L 53.515625 0 
L 44.484375 0 
L 44.484375 32.71875 
Q 44.484375 40.625 41.703125 44.40625 
Q 38.921875 48.1875 33.109375 48.1875 
Q 26.21875 48.1875 22.15625 43.53125 
Q 18.109375 38.875 18.109375 30.90625 
L 18.109375 0 
L 9.078125 0 
L 9.078125 54.6875 
L 18.109375 54.6875 
L 18.109375 46.1875 
Q 21.1875 51.21875 25.484375 53.609375 
Q 29.78125 56 35.6875 56 
Q 41.65625 56 45.828125 52.96875 
Q 50 49.953125 52 44.1875 
z
" id="DejaVuSans-109"/>
       <path d="M 54.890625 33.015625 
L 54.890625 0 
L 45.90625 0 
L 45.90625 32.71875 
Q 45.90625 40.484375 42.875 44.328125 
Q 39.84375 48.1875 33.796875 48.1875 
Q 26.515625 48.1875 22.3125 43.546875 
Q 18.109375 38.921875 18.109375 30.90625 
L 18.109375 0 
L 9.078125 0 
L 9.078125 54.6875 
L 18.109375 54.6875 
L 18.109375 46.1875 
Q 21.34375 51.125 25.703125 53.5625 
Q 30.078125 56 35.796875 56 
Q 45.21875 56 50.046875 50.171875 
Q 54.890625 44.34375 54.890625 33.015625 
z
" id="DejaVuSans-110"/>
       <path d="M 8.015625 75.875 
L 15.828125 75.875 
Q 23.140625 64.359375 26.78125 53.3125 
Q 30.421875 42.28125 30.421875 31.390625 
Q 30.421875 20.453125 26.78125 9.375 
Q 23.140625 -1.703125 15.828125 -13.1875 
L 8.015625 -13.1875 
Q 14.5 -2 17.703125 9.0625 
Q 20.90625 20.125 20.90625 31.390625 
Q 20.90625 42.671875 17.703125 53.65625 
Q 14.5 64.65625 8.015625 75.875 
z
" id="DejaVuSans-41"/>
      </defs>
      <use xlink:href="#DejaVuSans-108"/>
      <use x="27.783203" xlink:href="#DejaVuSans-111"/>
      <use x="88.964844" xlink:href="#DejaVuSans-103"/>
      <use x="152.441406" xlink:href="#DejaVuSans-49"/>
      <use x="216.064453" xlink:href="#DejaVuSans-48"/>
      <use x="279.6875" xlink:href="#DejaVuSans-40"/>
      <use x="318.701172" xlink:href="#DejaVuSans-35"/>
      <use x="402.490234" xlink:href="#DejaVuSans-32"/>
      <use x="434.277344" xlink:href="#DejaVuSans-102"/>
      <use x="463.982422" xlink:href="#DejaVuSans-45"/>
      <use x="500.066406" xlink:href="#DejaVuSans-101"/>
      <use x="561.589844" xlink:href="#DejaVuSans-118"/>
      <use x="620.769531" xlink:href="#DejaVuSans-97"/>
      <use x="682.048828" xlink:href="#DejaVuSans-108"/>
      <use x="709.832031" xlink:href="#DejaVuSans-115"/>
      <use x="761.931641" xlink:href="#DejaVuSans-32"/>
      <use x="793.71875" xlink:href="#DejaVuSans-47"/>
      <use x="827.410156" xlink:href="#DejaVuSans-32"/>
      <use x="859.197266" xlink:href="#DejaVuSans-100"/>
      <use x="922.673828" xlink:href="#DejaVuSans-105"/>
      <use x="950.457031" xlink:href="#DejaVuSans-109"/>
      <use x="1047.869141" xlink:href="#DejaVuSans-101"/>
      <use x="1109.392578" xlink:href="#DejaVuSans-110"/>
      <use x="1172.771484" xlink:href="#DejaVuSans-115"/>
      <use x="1224.871094" xlink:href="#DejaVuSans-105"/>
      <use x="1252.654297" xlink:href="#DejaVuSans-111"/>
      <use x="1313.835938" xlink:href="#DejaVuSans-110"/>
      <use x="1377.214844" xlink:href="#DejaVuSans-41"/>
     </g>
    </g>
   </g>
   <g id="matplotlib.axis_2">
    <g id="ytick_1">
     <g id="line2d_21">
      <path clip-path="url(#p4a6351e7d5)" d="M 57.6 298.944 
L 338.688 298.944 
" style="fill:none;stroke:#b0b0b0;stroke-linecap:square;stroke-width:0.8;"/>
     </g>
     <g id="line2d_22">
      <defs>
       <path d="M 0 0 
L -3.5 0 
" id="m2079586fed" style="stroke:#000000;stroke-width:0.8;"/>
      </defs>
      <g>
       <use style="stroke:#000000;stroke-width:0.8;" x="57.6" xlink:href="#m2079586fed" y="298.944"/>
      </g>
     </g>
     <g id="text_6">
      <!-- 0.0 -->
      <g transform="translate(25.155 305.02275)scale(0.16 -0.16)">
       <defs>
        <path d="M 10.6875 12.40625 
L 21 12.40625 
L 21 0 
L 10.6875 0 
z
" id="DejaVuSans-46"/>
       </defs>
       <use xlink:href="#DejaVuSans-48"/>
       <use x="63.623047" xlink:href="#DejaVuSans-46"/>
       <use x="95.410156" xlink:href="#DejaVuSans-48"/>
      </g>
     </g>
    </g>
    <g id="ytick_2">
     <g id="line2d_23">
      <path clip-path="url(#p4a6351e7d5)" d="M 57.6 245.22202 
L 338.688 245.22202 
" style="fill:none;stroke:#b0b0b0;stroke-linecap:square;stroke-width:0.8;"/>
     </g>
     <g id="line2d_24">
      <g>
       <use style="stroke:#000000;stroke-width:0.8;" x="57.6" xlink:href="#m2079586fed" y="245.22202"/>
      </g>
     </g>
     <g id="text_7">
      <!-- 0.2 -->
      <g transform="translate(25.155 251.30077)scale(0.16 -0.16)">
       <use xlink:href="#DejaVuSans-48"/>
       <use x="63.623047" xlink:href="#DejaVuSans-46"/>
       <use x="95.410156" xlink:href="#DejaVuSans-50"/>
      </g>
     </g>
    </g>
    <g id="ytick_3">
     <g id="line2d_25">
      <path clip-path="url(#p4a6351e7d5)" d="M 57.6 191.50004 
L 338.688 191.50004 
" style="fill:none;stroke:#b0b0b0;stroke-linecap:square;stroke-width:0.8;"/>
     </g>
     <g id="line2d_26">
      <g>
       <use style="stroke:#000000;stroke-width:0.8;" x="57.6" xlink:href="#m2079586fed" y="191.50004"/>
      </g>
     </g>
     <g id="text_8">
      <!-- 0.4 -->
      <g transform="translate(25.155 197.57879)scale(0.16 -0.16)">
       <use xlink:href="#DejaVuSans-48"/>
       <use x="63.623047" xlink:href="#DejaVuSans-46"/>
       <use x="95.410156" xlink:href="#DejaVuSans-52"/>
      </g>
     </g>
    </g>
    <g id="ytick_4">
     <g id="line2d_27">
      <path clip-path="url(#p4a6351e7d5)" d="M 57.6 137.778059 
L 338.688 137.778059 
" style="fill:none;stroke:#b0b0b0;stroke-linecap:square;stroke-width:0.8;"/>
     </g>
     <g id="line2d_28">
      <g>
       <use style="stroke:#000000;stroke-width:0.8;" x="57.6" xlink:href="#m2079586fed" y="137.778059"/>
      </g>
     </g>
     <g id="text_9">
      <!-- 0.6 -->
      <g transform="translate(25.155 143.856809)scale(0.16 -0.16)">
       <use xlink:href="#DejaVuSans-48"/>
       <use x="63.623047" xlink:href="#DejaVuSans-46"/>
       <use x="95.410156" xlink:href="#DejaVuSans-54"/>
      </g>
     </g>
    </g>
    <g id="ytick_5">
     <g id="line2d_29">
      <path clip-path="url(#p4a6351e7d5)" d="M 57.6 84.056079 
L 338.688 84.056079 
" style="fill:none;stroke:#b0b0b0;stroke-linecap:square;stroke-width:0.8;"/>
     </g>
     <g id="line2d_30">
      <g>
       <use style="stroke:#000000;stroke-width:0.8;" x="57.6" xlink:href="#m2079586fed" y="84.056079"/>
      </g>
     </g>
     <g id="text_10">
      <!-- 0.8 -->
      <g transform="translate(25.155 90.134829)scale(0.16 -0.16)">
       <defs>
        <path d="M 31.78125 34.625 
Q 24.75 34.625 20.71875 30.859375 
Q 16.703125 27.09375 16.703125 20.515625 
Q 16.703125 13.921875 20.71875 10.15625 
Q 24.75 6.390625 31.78125 6.390625 
Q 38.8125 6.390625 42.859375 10.171875 
Q 46.921875 13.96875 46.921875 20.515625 
Q 46.921875 27.09375 42.890625 30.859375 
Q 38.875 34.625 31.78125 34.625 
z
M 21.921875 38.8125 
Q 15.578125 40.375 12.03125 44.71875 
Q 8.5 49.078125 8.5 55.328125 
Q 8.5 64.0625 14.71875 69.140625 
Q 20.953125 74.21875 31.78125 74.21875 
Q 42.671875 74.21875 48.875 69.140625 
Q 55.078125 64.0625 55.078125 55.328125 
Q 55.078125 49.078125 51.53125 44.71875 
Q 48 40.375 41.703125 38.8125 
Q 48.828125 37.15625 52.796875 32.3125 
Q 56.78125 27.484375 56.78125 20.515625 
Q 56.78125 9.90625 50.3125 4.234375 
Q 43.84375 -1.421875 31.78125 -1.421875 
Q 19.734375 -1.421875 13.25 4.234375 
Q 6.78125 9.90625 6.78125 20.515625 
Q 6.78125 27.484375 10.78125 32.3125 
Q 14.796875 37.15625 21.921875 38.8125 
z
M 18.3125 54.390625 
Q 18.3125 48.734375 21.84375 45.5625 
Q 25.390625 42.390625 31.78125 42.390625 
Q 38.140625 42.390625 41.71875 45.5625 
Q 45.3125 48.734375 45.3125 54.390625 
Q 45.3125 60.0625 41.71875 63.234375 
Q 38.140625 66.40625 31.78125 66.40625 
Q 25.390625 66.40625 21.84375 63.234375 
Q 18.3125 60.0625 18.3125 54.390625 
z
" id="DejaVuSans-56"/>
       </defs>
       <use xlink:href="#DejaVuSans-48"/>
       <use x="63.623047" xlink:href="#DejaVuSans-46"/>
       <use x="95.410156" xlink:href="#DejaVuSans-56"/>
      </g>
     </g>
    </g>
    <g id="ytick_6">
     <g id="line2d_31">
      <path clip-path="url(#p4a6351e7d5)" d="M 57.6 30.334099 
L 338.688 30.334099 
" style="fill:none;stroke:#b0b0b0;stroke-linecap:square;stroke-width:0.8;"/>
     </g>
     <g id="line2d_32">
      <g>
       <use style="stroke:#000000;stroke-width:0.8;" x="57.6" xlink:href="#m2079586fed" y="30.334099"/>
      </g>
     </g>
     <g id="text_11">
      <!-- 1.0 -->
      <g transform="translate(25.155 36.412849)scale(0.16 -0.16)">
       <use xlink:href="#DejaVuSans-49"/>
       <use x="63.623047" xlink:href="#DejaVuSans-46"/>
       <use x="95.410156" xlink:href="#DejaVuSans-48"/>
      </g>
     </g>
    </g>
    <g id="text_12">
     <!-- Fraction of function,target pairs -->
     <g transform="translate(17.619531 297.681)rotate(-90)scale(0.17 -0.17)">
      <defs>
       <path d="M 9.8125 72.90625 
L 51.703125 72.90625 
L 51.703125 64.59375 
L 19.671875 64.59375 
L 19.671875 43.109375 
L 48.578125 43.109375 
L 48.578125 34.8125 
L 19.671875 34.8125 
L 19.671875 0 
L 9.8125 0 
z
" id="DejaVuSans-70"/>
       <path d="M 41.109375 46.296875 
Q 39.59375 47.171875 37.8125 47.578125 
Q 36.03125 48 33.890625 48 
Q 26.265625 48 22.1875 43.046875 
Q 18.109375 38.09375 18.109375 28.8125 
L 18.109375 0 
L 9.078125 0 
L 9.078125 54.6875 
L 18.109375 54.6875 
L 18.109375 46.1875 
Q 20.953125 51.171875 25.484375 53.578125 
Q 30.03125 56 36.53125 56 
Q 37.453125 56 38.578125 55.875 
Q 39.703125 55.765625 41.0625 55.515625 
z
" id="DejaVuSans-114"/>
       <path d="M 48.78125 52.59375 
L 48.78125 44.1875 
Q 44.96875 46.296875 41.140625 47.34375 
Q 37.3125 48.390625 33.40625 48.390625 
Q 24.65625 48.390625 19.8125 42.84375 
Q 14.984375 37.3125 14.984375 27.296875 
Q 14.984375 17.28125 19.8125 11.734375 
Q 24.65625 6.203125 33.40625 6.203125 
Q 37.3125 6.203125 41.140625 7.25 
Q 44.96875 8.296875 48.78125 10.40625 
L 48.78125 2.09375 
Q 45.015625 0.34375 40.984375 -0.53125 
Q 36.96875 -1.421875 32.421875 -1.421875 
Q 20.0625 -1.421875 12.78125 6.34375 
Q 5.515625 14.109375 5.515625 27.296875 
Q 5.515625 40.671875 12.859375 48.328125 
Q 20.21875 56 33.015625 56 
Q 37.15625 56 41.109375 55.140625 
Q 45.0625 54.296875 48.78125 52.59375 
z
" id="DejaVuSans-99"/>
       <path d="M 18.3125 70.21875 
L 18.3125 54.6875 
L 36.8125 54.6875 
L 36.8125 47.703125 
L 18.3125 47.703125 
L 18.3125 18.015625 
Q 18.3125 11.328125 20.140625 9.421875 
Q 21.96875 7.515625 27.59375 7.515625 
L 36.8125 7.515625 
L 36.8125 0 
L 27.59375 0 
Q 17.1875 0 13.234375 3.875 
Q 9.28125 7.765625 9.28125 18.015625 
L 9.28125 47.703125 
L 2.6875 47.703125 
L 2.6875 54.6875 
L 9.28125 54.6875 
L 9.28125 70.21875 
z
" id="DejaVuSans-116"/>
       <path d="M 8.5 21.578125 
L 8.5 54.6875 
L 17.484375 54.6875 
L 17.484375 21.921875 
Q 17.484375 14.15625 20.5 10.265625 
Q 23.53125 6.390625 29.59375 6.390625 
Q 36.859375 6.390625 41.078125 11.03125 
Q 45.3125 15.671875 45.3125 23.6875 
L 45.3125 54.6875 
L 54.296875 54.6875 
L 54.296875 0 
L 45.3125 0 
L 45.3125 8.40625 
Q 42.046875 3.421875 37.71875 1 
Q 33.40625 -1.421875 27.6875 -1.421875 
Q 18.265625 -1.421875 13.375 4.4375 
Q 8.5 10.296875 8.5 21.578125 
z
M 31.109375 56 
z
" id="DejaVuSans-117"/>
       <path d="M 11.71875 12.40625 
L 22.015625 12.40625 
L 22.015625 4 
L 14.015625 -11.625 
L 7.71875 -11.625 
L 11.71875 4 
z
" id="DejaVuSans-44"/>
       <path d="M 18.109375 8.203125 
L 18.109375 -20.796875 
L 9.078125 -20.796875 
L 9.078125 54.6875 
L 18.109375 54.6875 
L 18.109375 46.390625 
Q 20.953125 51.265625 25.265625 53.625 
Q 29.59375 56 35.59375 56 
Q 45.5625 56 51.78125 48.09375 
Q 58.015625 40.1875 58.015625 27.296875 
Q 58.015625 14.40625 51.78125 6.484375 
Q 45.5625 -1.421875 35.59375 -1.421875 
Q 29.59375 -1.421875 25.265625 0.953125 
Q 20.953125 3.328125 18.109375 8.203125 
z
M 48.6875 27.296875 
Q 48.6875 37.203125 44.609375 42.84375 
Q 40.53125 48.484375 33.40625 48.484375 
Q 26.265625 48.484375 22.1875 42.84375 
Q 18.109375 37.203125 18.109375 27.296875 
Q 18.109375 17.390625 22.1875 11.75 
Q 26.265625 6.109375 33.40625 6.109375 
Q 40.53125 6.109375 44.609375 11.75 
Q 48.6875 17.390625 48.6875 27.296875 
z
" id="DejaVuSans-112"/>
      </defs>
      <use xlink:href="#DejaVuSans-70"/>
      <use x="50.269531" xlink:href="#DejaVuSans-114"/>
      <use x="91.382812" xlink:href="#DejaVuSans-97"/>
      <use x="152.662109" xlink:href="#DejaVuSans-99"/>
      <use x="207.642578" xlink:href="#DejaVuSans-116"/>
      <use x="246.851562" xlink:href="#DejaVuSans-105"/>
      <use x="274.634766" xlink:href="#DejaVuSans-111"/>
      <use x="335.816406" xlink:href="#DejaVuSans-110"/>
      <use x="399.195312" xlink:href="#DejaVuSans-32"/>
      <use x="430.982422" xlink:href="#DejaVuSans-111"/>
      <use x="492.164062" xlink:href="#DejaVuSans-102"/>
      <use x="527.369141" xlink:href="#DejaVuSans-32"/>
      <use x="559.15625" xlink:href="#DejaVuSans-102"/>
      <use x="594.361328" xlink:href="#DejaVuSans-117"/>
      <use x="657.740234" xlink:href="#DejaVuSans-110"/>
      <use x="721.119141" xlink:href="#DejaVuSans-99"/>
      <use x="776.099609" xlink:href="#DejaVuSans-116"/>
      <use x="815.308594" xlink:href="#DejaVuSans-105"/>
      <use x="843.091797" xlink:href="#DejaVuSans-111"/>
      <use x="904.273438" xlink:href="#DejaVuSans-110"/>
      <use x="967.652344" xlink:href="#DejaVuSans-44"/>
      <use x="999.439453" xlink:href="#DejaVuSans-116"/>
      <use x="1038.648438" xlink:href="#DejaVuSans-97"/>
      <use x="1099.927734" xlink:href="#DejaVuSans-114"/>
      <use x="1139.291016" xlink:href="#DejaVuSans-103"/>
      <use x="1202.767578" xlink:href="#DejaVuSans-101"/>
      <use x="1264.291016" xlink:href="#DejaVuSans-116"/>
      <use x="1303.5" xlink:href="#DejaVuSans-32"/>
      <use x="1335.287109" xlink:href="#DejaVuSans-112"/>
      <use x="1398.763672" xlink:href="#DejaVuSans-97"/>
      <use x="1460.042969" xlink:href="#DejaVuSans-105"/>
      <use x="1487.826172" xlink:href="#DejaVuSans-114"/>
      <use x="1528.939453" xlink:href="#DejaVuSans-115"/>
     </g>
    </g>
   </g>
   <g id="line2d_33">
    <defs>
     <path d="M 0 1.5 
C 0.397805 1.5 0.77937 1.341951 1.06066 1.06066 
C 1.341951 0.77937 1.5 0.397805 1.5 0 
C 1.5 -0.397805 1.341951 -0.77937 1.06066 -1.06066 
C 0.77937 -1.341951 0.397805 -1.5 0 -1.5 
C -0.397805 -1.5 -0.77937 -1.341951 -1.06066 -1.06066 
C -1.341951 -0.77937 -1.5 -0.397805 -1.5 0 
C -1.5 0.397805 -1.341951 0.77937 -1.06066 1.06066 
C -0.77937 1.341951 -0.397805 1.5 0 1.5 
z
" id="md71bc20cb1" style="stroke:#f5deb3;"/>
    </defs>
    <g>
     <use style="fill:#f5deb3;stroke:#f5deb3;" x="256.53172" xlink:href="#md71bc20cb1" y="62.752535"/>
     <use style="fill:#f5deb3;stroke:#f5deb3;" x="256.53172" xlink:href="#md71bc20cb1" y="62.752535"/>
    </g>
   </g>
   <g id="line2d_34">
    <defs>
     <path d="M 0 1.5 
C 0.397805 1.5 0.77937 1.341951 1.06066 1.06066 
C 1.341951 0.77937 1.5 0.397805 1.5 0 
C 1.5 -0.397805 1.341951 -0.77937 1.06066 -1.06066 
C 0.77937 -1.341951 0.397805 -1.5 0 -1.5 
C -0.397805 -1.5 -0.77937 -1.341951 -1.06066 -1.06066 
C -1.341951 -0.77937 -1.5 -0.397805 -1.5 0 
C -1.5 0.397805 -1.341951 0.77937 -1.06066 1.06066 
C -0.77937 1.341951 -0.397805 1.5 0 1.5 
z
" id="mcaeebad317" style="stroke:#000080;"/>
    </defs>
    <g>
     <use style="fill:#000080;stroke:#000080;" x="257.628078" xlink:href="#mcaeebad317" y="98.875936"/>
     <use style="fill:#000080;stroke:#000080;" x="257.628078" xlink:href="#mcaeebad317" y="98.875936"/>
    </g>
   </g>
   <g id="line2d_35">
    <path d="M 38.440992 298.944 
L 38.440992 286.902867 
L 50.52898 286.902867 
L 50.52898 284.587264 
L 57.6 284.587264 
L 57.6 284.124143 
L 69.687988 284.124143 
L 69.687988 283.661023 
L 72.376266 283.661023 
L 72.376266 281.808541 
L 76.759008 281.808541 
L 76.759008 280.8823 
L 83.171864 280.8823 
L 83.171864 280.419179 
L 85.66744 280.419179 
L 85.66744 279.492938 
L 93.121756 279.492938 
L 93.121756 278.103577 
L 93.863965 278.103577 
L 93.863965 277.640456 
L 96.552242 277.640456 
L 96.552242 275.787974 
L 97.16421 275.787974 
L 97.16421 274.861733 
L 99.41757 274.861733 
L 99.41757 274.398612 
L 102.772397 274.398612 
L 102.772397 273.935492 
L 103.203018 273.935492 
L 103.203018 273.009251 
L 104.033617 273.009251 
L 104.033617 272.54613 
L 105.584798 272.54613 
L 105.584798 271.156769 
L 106.311539 271.156769 
L 106.311539 270.693648 
L 106.66386 270.693648 
L 106.66386 270.230528 
L 109.550313 270.230528 
L 109.550313 269.304287 
L 112.026172 269.304287 
L 112.026172 267.914925 
L 113.500792 267.914925 
L 113.500792 267.451805 
L 113.73488 267.451805 
L 113.73488 266.988684 
L 114.418861 266.988684 
L 114.418861 266.525564 
L 114.860386 266.525564 
L 114.860386 265.599323 
L 115.502395 265.599323 
L 115.502395 265.136202 
L 115.917635 265.136202 
L 115.917635 264.209961 
L 118.576578 264.209961 
L 118.576578 263.746841 
L 119.931767 263.746841 
L 119.931767 262.8206 
L 124.743806 262.8206 
L 124.743806 262.357479 
L 125.588781 262.357479 
L 125.588781 261.894358 
L 127.48501 261.894358 
L 127.48501 261.431238 
L 129.099042 261.431238 
L 129.099042 260.968117 
L 129.480244 260.968117 
L 129.480244 260.504997 
L 130.487516 260.504997 
L 130.487516 260.041876 
L 131.270459 260.041876 
L 131.270459 259.578756 
L 131.856005 259.578756 
L 131.856005 258.652515 
L 132.501978 258.652515 
L 132.581068 257.263153 
L 133.800029 257.263153 
L 133.873458 256.336912 
L 134.800918 256.336912 
L 134.800918 255.873792 
L 137.439497 255.873792 
L 137.439497 254.947551 
L 137.558536 254.947551 
L 137.558536 254.48443 
L 140.944478 254.48443 
L 140.944478 254.02131 
L 143.144465 254.02131 
L 143.144465 253.095069 
L 145.628555 253.095069 
L 145.703082 250.779466 
L 146.216039 250.779466 
L 146.216039 249.853225 
L 146.359869 249.853225 
L 146.359869 248.926984 
L 146.538004 248.926984 
L 146.538004 248.463863 
L 146.714338 248.463863 
L 146.714338 247.537622 
L 147.901141 247.537622 
L 147.901141 247.074502 
L 148.919783 247.074502 
L 148.919783 246.611381 
L 150.822008 246.611381 
L 150.822008 246.148261 
L 152.436193 246.148261 
L 152.436193 245.68514 
L 155.403849 245.68514 
L 155.403849 244.758899 
L 157.108577 244.758899 
L 157.108577 244.295779 
L 158.590511 244.295779 
L 158.590511 243.832658 
L 159.303838 243.832658 
L 159.303838 243.369538 
L 159.658204 243.369538 
L 159.658204 242.443297 
L 161.131018 242.443297 
L 161.192316 240.590815 
L 161.435376 240.590815 
L 161.435376 239.664574 
L 161.689969 239.664574 
L 161.689969 238.738333 
L 162.332157 238.738333 
L 162.332157 238.275212 
L 162.559939 238.275212 
L 162.559939 237.812091 
L 163.061823 237.812091 
L 163.061823 236.88585 
L 163.616356 236.88585 
L 163.616356 235.959609 
L 166.403246 235.959609 
L 166.403246 235.496489 
L 167.0929 235.496489 
L 167.114699 234.570248 
L 167.363449 234.570248 
L 167.363449 234.107127 
L 168.222494 234.107127 
L 168.222494 233.180886 
L 168.616676 233.180886 
L 168.656606 232.254645 
L 168.972794 232.254645 
L 168.972794 231.791525 
L 169.283352 231.791525 
L 169.340971 230.402163 
L 169.436581 230.402163 
L 169.436581 229.475922 
L 170.969087 229.475922 
L 170.969087 228.549681 
L 171.24632 228.549681 
L 171.24632 228.086561 
L 172.641546 228.086561 
L 172.641546 227.62344 
L 173.530906 227.62344 
L 173.530906 226.697199 
L 175.211544 226.697199 
L 175.211544 225.770958 
L 176.001331 225.770958 
L 176.001331 224.844717 
L 176.993406 224.844717 
L 176.993406 223.918476 
L 178.002224 223.918476 
L 178.002224 223.455355 
L 178.911614 223.455355 
L 178.911614 222.992235 
L 179.585155 222.992235 
L 179.585155 222.065994 
L 180.120337 222.065994 
L 180.120337 221.139753 
L 180.799349 221.139753 
L 180.799349 220.213512 
L 181.138942 220.213512 
L 181.138942 219.287271 
L 181.671737 219.287271 
L 181.671737 218.36103 
L 182.394041 218.36103 
L 182.394041 217.897909 
L 182.6104 217.897909 
L 182.6104 217.434789 
L 183.07017 217.434789 
L 183.07017 216.508548 
L 183.921659 216.508548 
L 183.921659 215.582307 
L 184.82843 215.582307 
L 184.82843 215.119186 
L 185.079078 215.119186 
L 185.079078 214.192945 
L 185.513018 214.192945 
L 185.513018 213.266704 
L 185.6302 213.266704 
L 185.6302 212.803583 
L 186.14616 212.803583 
L 186.14616 212.340463 
L 186.522458 212.340463 
L 186.522458 211.877342 
L 187.429142 211.877342 
L 187.429142 211.414222 
L 188.690678 211.414222 
L 188.690678 210.951101 
L 189.505833 210.951101 
L 189.52091 209.56174 
L 189.754435 209.56174 
L 189.849343 208.172378 
L 190.061016 208.172378 
L 190.061016 207.709258 
L 190.762633 207.709258 
L 190.762633 206.783017 
L 191.09625 206.783017 
L 191.09625 206.319896 
L 191.472181 206.319896 
L 191.472181 205.393655 
L 191.702424 205.393655 
L 191.774087 204.004294 
L 192.411245 204.004294 
L 192.411245 203.541173 
L 192.669797 203.541173 
L 192.697452 202.151812 
L 193.326563 202.151812 
L 193.326563 201.688691 
L 194.177775 201.688691 
L 194.177775 201.225571 
L 194.75876 201.225571 
L 194.75876 200.299329 
L 195.340452 200.299329 
L 195.372805 198.909968 
L 195.497341 198.909968 
L 195.497341 198.446847 
L 196.051149 198.446847 
L 196.051149 197.520606 
L 196.385761 197.520606 
L 196.385761 197.057486 
L 196.84923 197.057486 
L 196.84923 196.131245 
L 197.110594 196.131245 
L 197.202026 195.205004 
L 197.246596 195.205004 
L 197.246596 194.278763 
L 198.219512 194.278763 
L 198.219512 193.815642 
L 198.339897 193.815642 
L 198.339897 193.352522 
L 198.46848 193.352522 
L 198.50453 191.50004 
L 198.792051 191.50004 
L 198.862756 189.647558 
L 199.500131 189.647558 
L 199.500131 189.184437 
L 199.875329 189.184437 
L 199.896954 188.258196 
L 200.057473 188.258196 
L 200.057473 187.331955 
L 200.268682 187.331955 
L 200.268682 186.868834 
L 200.862233 186.868834 
L 200.892094 185.942593 
L 200.998546 185.942593 
L 200.998546 185.479473 
L 201.318655 185.479473 
L 201.323251 184.553232 
L 201.876591 184.553232 
L 201.876591 184.090111 
L 202.237902 184.090111 
L 202.237902 183.626991 
L 202.516221 183.626991 
L 202.531951 182.70075 
L 202.696971 182.70075 
L 202.696971 182.237629 
L 202.920653 182.237629 
L 202.920653 181.774509 
L 203.066811 181.774509 
L 203.066811 181.311388 
L 203.549387 181.311388 
L 203.549387 180.385147 
L 203.836894 180.385147 
L 203.836894 179.458906 
L 204.543866 179.458906 
L 204.543866 178.995786 
L 204.733866 178.995786 
L 204.816814 178.069545 
L 204.890633 178.069545 
L 204.890633 177.143304 
L 205.188959 177.143304 
L 205.188959 176.217062 
L 205.686238 176.217062 
L 205.686238 175.753942 
L 205.977235 175.753942 
L 205.977235 175.290821 
L 206.257684 175.290821 
L 206.257684 174.36458 
L 206.375036 174.36458 
L 206.375036 173.438339 
L 206.52915 173.438339 
L 206.606264 172.512098 
L 206.741523 172.512098 
L 206.807643 171.122737 
L 207.458639 171.122737 
L 207.563921 169.733375 
L 207.736578 169.733375 
L 207.75036 168.344014 
L 208.186744 168.344014 
L 208.186744 167.417773 
L 208.304167 167.417773 
L 208.39325 166.028411 
L 208.878713 166.028411 
L 208.878713 165.565291 
L 209.01328 165.565291 
L 209.01328 164.175929 
L 209.162461 164.175929 
L 209.162461 163.712808 
L 209.731612 163.712808 
L 209.782615 162.786567 
L 209.868229 162.786567 
L 209.868229 162.323447 
L 209.996332 162.323447 
L 209.996332 161.397206 
L 210.131823 161.397206 
L 210.141065 160.470965 
L 211.115781 160.470965 
L 211.15854 159.544724 
L 211.27321 159.544724 
L 211.31213 158.618483 
L 211.550664 158.618483 
L 211.550664 158.155362 
L 212.332242 158.155362 
L 212.332242 157.692242 
L 212.639166 157.692242 
L 212.683145 156.766001 
L 212.830266 156.766001 
L 212.830266 156.30288 
L 213.093556 156.30288 
L 213.148073 154.913519 
L 213.406643 154.913519 
L 213.406643 154.450398 
L 213.824516 154.450398 
L 213.824516 153.987278 
L 214.208479 153.987278 
L 214.208479 153.061037 
L 214.37307 153.061037 
L 214.391906 151.671675 
L 214.628514 151.671675 
L 214.628514 151.208554 
L 214.854199 151.208554 
L 214.888716 149.819193 
L 215.317604 149.819193 
L 215.317604 148.892952 
L 215.570505 148.892952 
L 215.570505 148.429831 
L 215.80978 148.429831 
L 215.80978 147.50359 
L 216.187489 147.50359 
L 216.236412 145.651108 
L 216.42108 145.651108 
L 216.511083 144.724867 
L 216.659851 144.724867 
L 216.659851 143.798626 
L 216.823114 143.798626 
L 216.823114 143.335506 
L 217.087526 143.335506 
L 217.120994 141.946144 
L 217.529174 141.946144 
L 217.529174 141.483024 
L 217.98527 141.483024 
L 218.089255 140.556783 
L 218.22927 140.556783 
L 218.22927 140.093662 
L 218.449259 140.093662 
L 218.449259 139.630541 
L 218.821089 139.630541 
L 218.882204 138.7043 
L 219.035447 138.7043 
L 219.035447 138.24118 
L 219.277323 138.24118 
L 219.277323 137.314939 
L 219.502391 137.314939 
L 219.549321 136.388698 
L 219.879098 136.388698 
L 219.879098 135.925577 
L 220.494511 135.925577 
L 220.494511 135.462457 
L 220.853096 135.462457 
L 220.853096 134.999336 
L 221.187792 134.999336 
L 221.187792 134.536216 
L 222.236905 134.536216 
L 222.236905 134.073095 
L 222.74835 134.073095 
L 222.836464 132.683734 
L 222.92458 132.683734 
L 223.017993 131.757493 
L 223.518506 131.757493 
L 223.575048 130.368131 
L 224.099926 130.368131 
L 224.099926 129.905011 
L 224.240449 129.905011 
L 224.29265 128.515649 
L 224.628398 128.515649 
L 224.628398 128.052529 
L 225.065322 128.052529 
L 225.146798 126.663167 
L 225.837542 126.663167 
L 225.837542 126.200046 
L 226.296101 126.200046 
L 226.296101 125.273805 
L 226.925609 125.273805 
L 226.925609 124.810685 
L 227.0753 124.810685 
L 227.0753 124.347564 
L 228.600995 124.347564 
L 228.600995 123.421323 
L 229.416408 123.421323 
L 229.431698 122.031962 
L 229.603245 122.031962 
L 229.603245 121.105721 
L 229.742822 121.105721 
L 229.815931 119.716359 
L 230.418359 119.716359 
L 230.418359 119.253239 
L 231.564433 119.253239 
L 231.564433 118.790118 
L 232.559521 118.790118 
L 232.559521 118.326998 
L 234.452105 118.326998 
L 234.452105 117.863877 
L 234.794361 117.863877 
L 234.794361 117.400757 
L 236.375302 117.400757 
L 236.375302 116.474516 
L 237.789401 116.474516 
L 237.789401 115.548274 
L 239.587398 115.548274 
L 239.587398 114.622033 
L 241.421446 114.622033 
L 241.421446 113.695792 
L 241.812485 113.695792 
L 241.812485 113.232672 
L 242.181858 113.232672 
L 242.181858 112.769551 
L 242.630973 112.769551 
L 242.630973 111.84331 
L 243.207401 111.84331 
L 243.207401 110.917069 
L 243.965378 110.917069 
L 243.965378 110.453949 
L 245.008816 110.453949 
L 245.05979 109.064587 
L 246.886844 109.064587 
L 246.886844 108.601467 
L 247.813031 108.601467 
L 247.813031 107.675226 
L 248.159634 107.675226 
L 248.159634 106.748985 
L 248.339072 106.748985 
L 248.339072 105.822744 
L 249.049928 105.822744 
L 249.049928 104.896503 
L 250.050197 104.896503 
L 250.050197 104.433382 
L 250.298249 104.433382 
L 250.298249 103.970262 
L 250.674687 103.970262 
L 250.674687 103.04402 
L 250.804037 103.04402 
L 250.804037 102.5809 
L 251.367662 102.5809 
L 251.367662 102.117779 
L 251.876969 102.117779 
L 251.876969 101.654659 
L 253.837842 101.654659 
L 253.837842 101.191538 
L 254.553778 101.191538 
L 254.553778 100.728418 
L 254.886714 100.728418 
L 254.886714 100.265297 
L 255.906903 100.265297 
L 255.906903 99.802177 
L 256.47755 99.802177 
L 256.47755 99.339056 
L 257.628078 99.339056 
L 257.628078 98.875936 
L 338.688 98.875936 
L 338.688 98.875936 
" style="fill:none;stroke:#000080;stroke-linecap:square;stroke-width:1.5;"/>
   </g>
   <g id="line2d_36">
    <defs>
     <path d="M 0 6 
C 1.591219 6 3.117479 5.367802 4.242641 4.242641 
C 5.367802 3.117479 6 1.591219 6 0 
C 6 -1.591219 5.367802 -3.117479 4.242641 -4.242641 
C 3.117479 -5.367802 1.591219 -6 0 -6 
C -1.591219 -6 -3.117479 -5.367802 -4.242641 -4.242641 
C -5.367802 -3.117479 -6 -1.591219 -6 0 
C -6 1.591219 -5.367802 3.117479 -4.242641 4.242641 
C -3.117479 5.367802 -1.591219 6 0 6 
z
" id="m36722431ee" style="stroke:#000080;stroke-width:1.5;"/>
    </defs>
    <g>
     <use style="fill-opacity:0;stroke:#000080;stroke-width:1.5;" x="106.66386" xlink:href="#m36722431ee" y="270.230528"/>
     <use style="fill-opacity:0;stroke:#000080;stroke-width:1.5;" x="193.326563" xlink:href="#m36722431ee" y="201.688691"/>
     <use style="fill-opacity:0;stroke:#000080;stroke-width:1.5;" x="236.375302" xlink:href="#m36722431ee" y="116.474516"/>
     <use style="fill-opacity:0;stroke:#000080;stroke-width:1.5;" x="257.628078" xlink:href="#m36722431ee" y="98.875936"/>
     <use style="fill-opacity:0;stroke:#000080;stroke-width:1.5;" x="257.628078" xlink:href="#m36722431ee" y="98.875936"/>
     <use style="fill-opacity:0;stroke:#000080;stroke-width:1.5;" x="338.688" xlink:href="#m36722431ee" y="98.875936"/>
    </g>
   </g>
   <g id="line2d_37">
    <path style="fill:none;stroke:#000080;stroke-linecap:square;stroke-width:1.5;"/>
    <g/>
   </g>
   <g id="line2d_38">
    <path clip-path="url(#p4a6351e7d5)" d="M 258.377608 98.875936 
" style="fill:none;stroke:#000080;stroke-linecap:square;stroke-width:1.5;"/>
    <defs>
     <path d="M -12 12 
L 12 -12 
M -12 -12 
L 12 12 
" id="mf64a358674" style="stroke:#000080;"/>
    </defs>
    <g clip-path="url(#p4a6351e7d5)">
     <use style="fill:#000080;stroke:#000080;" x="258.377608" xlink:href="#mf64a358674" y="98.875936"/>
    </g>
   </g>
   <g id="line2d_39">
    <defs>
     <path d="M 0 1.5 
C 0.397805 1.5 0.77937 1.341951 1.06066 1.06066 
C 1.341951 0.77937 1.5 0.397805 1.5 0 
C 1.5 -0.397805 1.341951 -0.77937 1.06066 -1.06066 
C 0.77937 -1.341951 0.397805 -1.5 0 -1.5 
C -0.397805 -1.5 -0.77937 -1.341951 -1.06066 -1.06066 
C -1.341951 -0.77937 -1.5 -0.397805 -1.5 0 
C -1.5 0.397805 -1.341951 0.77937 -1.06066 1.06066 
C -0.77937 1.341951 -0.397805 1.5 0 1.5 
z
" id="m4828afbaf3" style="stroke:#ff00ff;"/>
    </defs>
    <g>
     <use style="fill:#ff00ff;stroke:#ff00ff;" x="257.568508" xlink:href="#m4828afbaf3" y="140.556783"/>
     <use style="fill:#ff00ff;stroke:#ff00ff;" x="257.568508" xlink:href="#m4828afbaf3" y="140.556783"/>
    </g>
   </g>
   <g id="line2d_40">
    <path d="M 38.440992 298.944 
L 38.440992 286.902867 
L 131.60746 286.902867 
L 131.60746 285.976625 
L 137.676769 285.976625 
L 137.676769 285.513505 
L 142.708461 285.513505 
L 142.708461 285.050384 
L 142.971369 285.050384 
L 143.014805 284.124143 
L 143.31586 284.124143 
L 143.31586 283.197902 
L 143.778691 283.197902 
L 143.778691 282.734782 
L 146.143677 282.734782 
L 146.252108 280.8823 
L 147.027314 280.8823 
L 147.027314 280.419179 
L 147.368603 280.419179 
L 147.368603 278.566697 
L 147.769524 278.566697 
L 147.769524 277.640456 
L 148.290138 277.640456 
L 148.322166 276.251095 
L 149.347388 276.251095 
L 149.347388 274.861733 
L 149.998846 274.861733 
L 150.027887 273.472371 
L 150.287105 273.472371 
L 150.31567 271.619889 
L 150.987572 271.619889 
L 151.097081 270.230528 
L 151.124351 270.230528 
L 151.124351 269.304287 
L 151.660987 269.304287 
L 151.660987 267.914925 
L 152.612222 267.914925 
L 152.612222 266.988684 
L 152.761703 266.988684 
L 152.860649 265.599323 
L 153.008024 265.599323 
L 153.008024 264.209961 
L 153.129893 264.209961 
L 153.129893 263.28372 
L 153.275019 263.28372 
L 153.275019 262.357479 
L 153.418948 262.357479 
L 153.418948 261.894358 
L 153.537988 261.894358 
L 153.561699 260.504997 
L 153.79705 260.504997 
L 153.79705 260.041876 
L 153.959927 260.041876 
L 153.959927 259.115635 
L 154.167129 259.115635 
L 154.167129 258.189394 
L 154.281186 258.189394 
L 154.349264 256.336912 
L 154.417077 256.336912 
L 154.484627 254.02131 
L 155.12447 254.02131 
L 155.232454 253.095069 
L 155.275461 253.095069 
L 155.339773 252.168828 
L 155.510121 252.168828 
L 155.594676 251.242587 
L 155.741666 251.242587 
L 155.845906 249.853225 
L 155.86668 249.853225 
L 155.86668 249.390104 
L 155.990803 249.390104 
L 156.052535 247.537622 
L 156.875011 247.537622 
L 156.933697 244.295779 
L 156.992185 244.295779 
L 156.992185 243.832658 
L 157.224197 243.832658 
L 157.28172 241.980176 
L 157.358125 241.980176 
L 157.358125 241.053935 
L 157.528821 241.053935 
L 157.604152 240.127694 
L 157.660438 240.127694 
L 157.660438 239.664574 
L 157.846757 239.664574 
L 157.846757 238.738333 
L 158.012759 238.738333 
L 158.104304 237.348971 
L 158.140788 237.348971 
L 158.140788 236.88585 
L 158.322071 236.88585 
L 158.412011 235.033368 
L 159.028927 235.033368 
L 159.028927 234.570248 
L 159.286782 234.570248 
L 159.286782 233.644007 
L 159.405822 233.644007 
L 159.473482 231.791525 
L 159.807898 231.791525 
L 159.807898 230.865284 
L 159.972732 230.865284 
L 160.02188 229.475922 
L 160.458086 229.475922 
L 160.553557 228.086561 
L 160.680044 228.086561 
L 160.727241 226.697199 
L 160.80562 226.697199 
L 160.836873 224.844717 
L 160.930298 224.844717 
L 160.930298 224.381596 
L 161.069504 224.381596 
L 161.069504 223.455355 
L 161.344625 223.455355 
L 161.39006 222.065994 
L 162.115875 222.065994 
L 162.115875 221.139753 
L 162.231559 221.139753 
L 162.332157 218.82415 
L 162.602318 218.82415 
L 162.602318 218.36103 
L 163.266752 218.36103 
L 163.280329 216.971668 
L 163.642961 216.971668 
L 163.748975 214.192945 
L 163.801742 214.192945 
L 163.867476 213.266704 
L 164.295217 213.266704 
L 164.295217 212.340463 
L 164.800007 212.340463 
L 164.899235 210.951101 
L 165.022481 210.951101 
L 165.022481 210.02486 
L 165.144862 210.02486 
L 165.144862 209.56174 
L 165.338904 209.56174 
L 165.338904 209.098619 
L 165.803027 209.098619 
L 165.803027 208.172378 
L 166.346422 208.172378 
L 166.346422 207.709258 
L 166.684622 207.709258 
L 166.784816 205.856776 
L 166.950537 205.856776 
L 166.950537 204.930535 
L 167.147346 204.930535 
L 167.147346 204.004294 
L 167.545055 204.004294 
L 167.545055 203.541173 
L 167.975417 203.541173 
L 167.975417 203.078053 
L 168.212269 203.078053 
L 168.212269 202.151812 
L 168.375159 202.151812 
L 168.405532 200.76245 
L 168.746115 200.76245 
L 168.746115 199.836209 
L 168.963 199.836209 
L 168.963 199.373088 
L 169.244833 199.373088 
L 169.27373 198.446847 
L 170.625141 198.446847 
L 170.625141 197.520606 
L 171.03881 197.520606 
L 171.03881 197.057486 
L 171.177424 197.057486 
L 171.177424 196.594365 
L 171.357698 196.594365 
L 171.451389 195.205004 
L 172.027878 195.205004 
L 172.027878 194.741883 
L 172.385786 194.741883 
L 172.385786 193.815642 
L 172.862299 193.815642 
L 172.862299 192.889401 
L 173.478048 192.889401 
L 173.485609 191.96316 
L 174.297915 191.96316 
L 174.326753 191.036919 
L 174.718503 191.036919 
L 174.718503 190.573799 
L 175.018766 190.573799 
L 175.018766 190.110678 
L 175.790662 190.110678 
L 175.790662 189.647558 
L 177.092038 189.647558 
L 177.092038 189.184437 
L 177.269398 189.184437 
L 177.269398 188.721316 
L 178.547874 188.721316 
L 178.547874 188.258196 
L 179.033027 188.258196 
L 179.033027 187.331955 
L 179.424571 187.331955 
L 179.424571 186.868834 
L 179.69669 186.868834 
L 179.69669 186.405714 
L 180.412408 186.405714 
L 180.412408 185.942593 
L 180.544026 185.942593 
L 180.544026 185.479473 
L 180.883633 185.479473 
L 180.883633 185.016352 
L 181.216753 185.016352 
L 181.226455 183.626991 
L 182.801969 183.626991 
L 182.84622 182.70075 
L 184.513985 182.70075 
L 184.513985 181.774509 
L 186.043446 181.774509 
L 186.043446 181.311388 
L 186.30273 181.311388 
L 186.30273 180.848268 
L 187.544298 180.848268 
L 187.544298 179.922027 
L 188.693839 179.922027 
L 188.693839 179.458906 
L 188.894943 179.458906 
L 188.894943 178.995786 
L 189.268932 178.995786 
L 189.268932 178.069545 
L 189.641057 178.069545 
L 189.641057 177.606424 
L 190.411057 177.606424 
L 190.473953 175.753942 
L 191.296121 175.753942 
L 191.296121 174.827701 
L 192.697452 174.827701 
L 192.697452 174.36458 
L 195.783811 174.36458 
L 195.783811 173.90146 
L 196.678119 173.90146 
L 196.678119 173.438339 
L 197.479213 173.438339 
L 197.479213 172.975219 
L 198.42693 172.975219 
L 198.42693 172.512098 
L 199.571416 172.512098 
L 199.571416 172.048978 
L 201.944724 172.048978 
L 201.944724 171.585857 
L 202.287256 171.585857 
L 202.287256 171.122737 
L 202.816906 171.122737 
L 202.816906 170.659616 
L 204.098847 170.659616 
L 204.098847 169.733375 
L 204.492848 169.733375 
L 204.505616 168.344014 
L 206.770692 168.344014 
L 206.770692 167.880893 
L 209.020179 167.880893 
L 209.020179 167.417773 
L 210.833928 167.417773 
L 210.833928 166.954652 
L 211.494328 166.954652 
L 211.494328 166.491532 
L 213.25969 166.491532 
L 213.25969 166.028411 
L 213.623643 166.028411 
L 213.623643 165.565291 
L 218.019412 165.565291 
L 218.019412 165.10217 
L 219.044876 165.10217 
L 219.044876 164.63905 
L 220.366986 164.63905 
L 220.441361 163.712808 
L 220.498082 163.712808 
L 220.498082 163.249688 
L 220.721126 163.249688 
L 220.737237 161.860326 
L 221.663781 161.860326 
L 221.663781 160.934085 
L 222.369387 160.934085 
L 222.369387 160.470965 
L 224.93725 160.470965 
L 225.011056 159.544724 
L 225.729782 159.544724 
L 225.729782 158.618483 
L 227.214001 158.618483 
L 227.214001 158.155362 
L 228.553164 158.155362 
L 228.553164 157.229121 
L 229.228476 157.229121 
L 229.228476 156.30288 
L 229.346209 156.30288 
L 229.346209 155.83976 
L 229.672118 155.83976 
L 229.672118 155.376639 
L 232.384411 155.376639 
L 232.384411 154.913519 
L 232.593467 154.913519 
L 232.593467 153.987278 
L 233.338438 153.987278 
L 233.338438 153.524157 
L 233.488533 153.524157 
L 233.488533 152.597916 
L 235.563107 152.597916 
L 235.563107 152.134795 
L 236.969777 152.134795 
L 237.028204 151.208554 
L 237.45613 151.208554 
L 237.45613 150.745434 
L 238.078672 150.745434 
L 238.078672 150.282313 
L 239.554072 150.282313 
L 239.554072 149.356072 
L 240.388597 149.356072 
L 240.388597 148.429831 
L 241.062276 148.429831 
L 241.062276 147.966711 
L 242.272406 147.966711 
L 242.272406 147.50359 
L 243.688763 147.50359 
L 243.688763 147.04047 
L 244.373543 147.04047 
L 244.373543 146.577349 
L 245.309127 146.577349 
L 245.309127 146.114229 
L 245.433266 146.114229 
L 245.433266 145.651108 
L 246.258784 145.651108 
L 246.258784 144.724867 
L 246.972241 144.724867 
L 246.972241 144.261747 
L 247.946856 144.261747 
L 247.946856 143.798626 
L 249.224015 143.798626 
L 249.224015 143.335506 
L 251.609099 143.335506 
L 251.609099 142.872385 
L 252.32336 142.872385 
L 252.32336 142.409265 
L 252.640919 142.409265 
L 252.640919 141.946144 
L 253.698526 141.946144 
L 253.698526 141.483024 
L 255.959267 141.483024 
L 255.959267 141.019903 
L 257.568508 141.019903 
L 257.568508 140.556783 
L 338.688 140.556783 
L 338.688 140.556783 
" style="fill:none;stroke:#ff00ff;stroke-linecap:square;stroke-width:1.5;"/>
   </g>
   <g id="line2d_41">
    <defs>
     <path d="M 0 8.485281 
L 5.091169 0 
L 0 -8.485281 
L -5.091169 0 
z
" id="m476b1e3cad" style="stroke:#ff00ff;stroke-linejoin:miter;stroke-width:1.5;"/>
    </defs>
    <g>
     <use style="fill-opacity:0;stroke:#ff00ff;stroke-linejoin:miter;stroke-width:1.5;" x="142.971369" xlink:href="#m476b1e3cad" y="284.587264"/>
     <use style="fill-opacity:0;stroke:#ff00ff;stroke-linejoin:miter;stroke-width:1.5;" x="166.950537" xlink:href="#m476b1e3cad" y="205.856776"/>
     <use style="fill-opacity:0;stroke:#ff00ff;stroke-linejoin:miter;stroke-width:1.5;" x="241.062276" xlink:href="#m476b1e3cad" y="147.966711"/>
     <use style="fill-opacity:0;stroke:#ff00ff;stroke-linejoin:miter;stroke-width:1.5;" x="257.568508" xlink:href="#m476b1e3cad" y="140.556783"/>
     <use style="fill-opacity:0;stroke:#ff00ff;stroke-linejoin:miter;stroke-width:1.5;" x="257.568508" xlink:href="#m476b1e3cad" y="140.556783"/>
     <use style="fill-opacity:0;stroke:#ff00ff;stroke-linejoin:miter;stroke-width:1.5;" x="338.688" xlink:href="#m476b1e3cad" y="140.556783"/>
    </g>
   </g>
   <g id="line2d_42">
    <path style="fill:none;stroke:#ff00ff;stroke-linecap:square;stroke-width:1.5;"/>
    <g/>
   </g>
   <g id="line2d_43">
    <path clip-path="url(#p4a6351e7d5)" d="M 258.384146 140.556783 
" style="fill:none;stroke:#ff00ff;stroke-linecap:square;stroke-width:1.5;"/>
    <defs>
     <path d="M -12 12 
L 12 -12 
M -12 -12 
L 12 12 
" id="m05969b61fc" style="stroke:#ff00ff;"/>
    </defs>
    <g clip-path="url(#p4a6351e7d5)">
     <use style="fill:#ff00ff;stroke:#ff00ff;" x="258.384146" xlink:href="#m05969b61fc" y="140.556783"/>
    </g>
   </g>
   <g id="line2d_44">
    <defs>
     <path d="M 0 1.5 
C 0.397805 1.5 0.77937 1.341951 1.06066 1.06066 
C 1.341951 0.77937 1.5 0.397805 1.5 0 
C 1.5 -0.397805 1.341951 -0.77937 1.06066 -1.06066 
C 0.77937 -1.341951 0.397805 -1.5 0 -1.5 
C -0.397805 -1.5 -0.77937 -1.341951 -1.06066 -1.06066 
C -1.341951 -0.77937 -1.5 -0.397805 -1.5 0 
C -1.5 0.397805 -1.341951 0.77937 -1.06066 1.06066 
C -0.77937 1.341951 -0.397805 1.5 0 1.5 
z
" id="mbe8ac41a8f" style="stroke:#ff7500;"/>
    </defs>
    <g>
     <use style="fill:#ff7500;stroke:#ff7500;" x="257.124871" xlink:href="#mbe8ac41a8f" y="115.548274"/>
     <use style="fill:#ff7500;stroke:#ff7500;" x="257.124871" xlink:href="#mbe8ac41a8f" y="115.548274"/>
    </g>
   </g>
   <g id="line2d_45">
    <path d="M 140.093612 298.944 
L 140.093612 296.165277 
L 148.607802 296.165277 
L 148.607802 295.239036 
L 148.888835 295.239036 
L 148.888835 294.775915 
L 153.395042 294.775915 
L 153.395042 293.849674 
L 155.488919 293.849674 
L 155.488919 292.460313 
L 156.875011 292.460313 
L 156.875011 291.997192 
L 157.050478 291.997192 
L 157.050478 290.607831 
L 157.339055 290.607831 
L 157.339055 290.14471 
L 157.453162 290.14471 
L 157.453162 288.755349 
L 157.753847 288.755349 
L 157.753847 288.292228 
L 158.285965 288.292228 
L 158.39406 287.365987 
L 159.080804 287.365987 
L 159.098062 286.439746 
L 159.235515 286.439746 
L 159.286782 283.197902 
L 159.774744 283.197902 
L 159.824452 282.271661 
L 159.906985 282.271661 
L 159.906985 281.808541 
L 160.378126 281.808541 
L 160.410154 280.8823 
L 160.601097 280.8823 
L 160.601097 279.492938 
L 161.344625 279.492938 
L 161.344625 279.029818 
L 161.540659 279.029818 
L 161.64531 277.177336 
L 161.675095 277.177336 
L 161.749336 275.324854 
L 161.88218 275.324854 
L 161.984807 273.935492 
L 162.043181 273.935492 
L 162.072295 273.009251 
L 162.503271 273.009251 
L 162.517456 271.156769 
L 162.742845 271.156769 
L 162.742845 270.693648 
L 162.882249 270.693648 
L 162.882249 270.230528 
L 163.061823 270.230528 
L 163.116707 268.841166 
L 163.33453 268.841166 
L 163.361568 266.988684 
L 163.455871 266.988684 
L 163.482721 264.673082 
L 163.735759 264.673082 
L 163.735759 263.746841 
L 163.946031 263.746841 
L 163.985177 261.894358 
L 164.063205 261.894358 
L 164.063205 261.431238 
L 164.243924 261.431238 
L 164.243924 260.968117 
L 164.35912 260.968117 
L 164.42279 260.041876 
L 164.587254 260.041876 
L 164.587254 259.578756 
L 164.700211 259.578756 
L 164.800007 257.726274 
L 164.86209 257.726274 
L 164.9363 256.336912 
L 164.985598 256.336912 
L 165.047026 255.410671 
L 165.338904 255.410671 
L 165.338904 254.947551 
L 165.518877 254.947551 
L 165.59035 253.558189 
L 165.885039 253.558189 
L 165.885039 253.095069 
L 166.036331 253.095069 
L 166.128786 251.242587 
L 166.277988 251.242587 
L 166.312239 248.926984 
L 166.448573 248.926984 
L 166.448573 248.463863 
L 166.561376 248.463863 
L 166.617505 247.074502 
L 166.695783 247.074502 
L 166.695783 246.611381 
L 166.862349 246.611381 
L 166.862349 246.148261 
L 167.103803 246.148261 
L 167.212459 244.758899 
L 167.341959 244.758899 
L 167.438457 243.832658 
L 167.651004 243.832658 
L 167.672117 242.443297 
L 167.76681 242.443297 
L 167.860992 240.590815 
L 167.954668 240.590815 
L 168.037515 239.201453 
L 168.068482 239.201453 
L 168.089095 237.812091 
L 168.825295 237.812091 
L 168.933583 235.033368 
L 168.972794 235.033368 
L 169.011918 233.180886 
L 169.128764 233.180886 
L 169.128764 232.717766 
L 169.27373 232.717766 
L 169.379278 229.475922 
L 169.588476 229.475922 
L 169.66393 225.770958 
L 169.860457 225.770958 
L 169.888352 224.381596 
L 170.24699 224.381596 
L 170.346825 223.455355 
L 170.491026 223.455355 
L 170.553741 221.602873 
L 170.969087 221.602873 
L 170.977818 219.750391 
L 171.220515 219.750391 
L 171.306381 217.897909 
L 171.3833 217.897909 
L 171.49381 216.971668 
L 171.8212 216.971668 
L 171.91244 215.582307 
L 171.986738 215.582307 
L 172.052516 214.192945 
L 172.248373 214.192945 
L 172.248373 213.266704 
L 172.450079 213.266704 
L 172.450079 211.877342 
L 172.720707 211.877342 
L 172.807372 210.02486 
L 173.033809 210.02486 
L 173.126653 208.172378 
L 173.149788 208.172378 
L 173.165193 206.319896 
L 173.576085 206.319896 
L 173.591119 205.393655 
L 173.896491 205.393655 
L 173.948098 204.004294 
L 174.058171 204.004294 
L 174.094709 203.078053 
L 174.276256 203.078053 
L 174.276256 202.151812 
L 174.412979 202.151812 
L 174.412979 201.225571 
L 174.626698 201.225571 
L 174.647927 200.299329 
L 174.970237 200.299329 
L 175.025688 199.373088 
L 175.122305 199.373088 
L 175.122305 198.446847 
L 175.36153 198.446847 
L 175.46306 197.057486 
L 175.476552 197.057486 
L 175.523695 196.131245 
L 175.975136 196.131245 
L 175.975136 195.668124 
L 176.112223 195.668124 
L 176.196549 194.278763 
L 176.523485 194.278763 
L 176.523485 193.352522 
L 176.763161 193.352522 
L 176.763161 192.426281 
L 176.90043 192.426281 
L 176.93768 191.50004 
L 177.116609 191.50004 
L 177.116609 190.573799 
L 177.396715 190.573799 
L 177.396715 190.110678 
L 178.025547 190.110678 
L 178.025547 189.184437 
L 178.245567 189.184437 
L 178.245567 188.721316 
L 178.37169 188.721316 
L 178.468527 187.795075 
L 178.530902 187.795075 
L 178.530902 187.331955 
L 178.683063 187.331955 
L 178.750267 185.942593 
L 178.817212 185.942593 
L 178.8617 185.016352 
L 179.126271 185.016352 
L 179.126271 184.553232 
L 179.617095 184.553232 
L 179.670199 183.16387 
L 180.032273 183.16387 
L 180.094482 181.774509 
L 180.508688 181.774509 
L 180.508688 180.848268 
L 180.824181 180.848268 
L 180.824181 179.922027 
L 181.289386 179.922027 
L 181.289386 179.458906 
L 181.404974 179.458906 
L 181.491165 178.069545 
L 181.827047 178.069545 
L 181.827047 177.606424 
L 182.004192 177.606424 
L 182.004192 177.143304 
L 182.384967 177.143304 
L 182.403109 176.217062 
L 183.144185 176.217062 
L 183.196243 175.290821 
L 184.295739 175.290821 
L 184.340418 174.36458 
L 184.911072 174.36458 
L 184.911072 173.90146 
L 185.191477 173.90146 
L 185.191477 173.438339 
L 185.750342 173.438339 
L 185.750342 172.975219 
L 186.032405 172.975219 
L 186.032405 172.512098 
L 186.204583 172.512098 
L 186.204583 171.585857 
L 187.792333 171.585857 
L 187.792333 171.122737 
L 188.709634 171.122737 
L 188.810385 169.270255 
L 188.829211 169.270255 
L 188.829211 168.344014 
L 189.608099 168.344014 
L 189.608099 167.880893 
L 190.09313 167.880893 
L 190.09313 167.417773 
L 190.223892 167.417773 
L 190.223892 166.954652 
L 191.257967 166.954652 
L 191.257967 166.028411 
L 192.259921 166.028411 
L 192.259921 165.565291 
L 192.388246 165.565291 
L 192.388246 165.10217 
L 192.604255 165.10217 
L 192.604255 164.63905 
L 192.889822 164.63905 
L 192.897274 163.249688 
L 193.36529 163.249688 
L 193.444894 161.397206 
L 193.717127 161.397206 
L 193.717127 160.470965 
L 194.604062 160.470965 
L 194.604062 160.007844 
L 195.383576 160.007844 
L 195.383576 159.544724 
L 195.988859 159.544724 
L 196.080142 158.618483 
L 196.357272 158.618483 
L 196.357272 157.692242 
L 196.470949 157.692242 
L 196.470949 157.229121 
L 197.132036 157.229121 
L 197.132036 156.766001 
L 197.356562 156.766001 
L 197.356562 156.30288 
L 197.778363 156.30288 
L 197.778363 155.83976 
L 199.132324 155.83976 
L 199.132324 155.376639 
L 200.045938 155.376639 
L 200.045938 154.913519 
L 200.571981 154.913519 
L 200.571981 154.450398 
L 201.067082 154.450398 
L 201.124506 153.524157 
L 201.56514 153.524157 
L 201.56514 153.061037 
L 204.218633 153.061037 
L 204.218633 152.134795 
L 205.781405 152.134795 
L 205.781405 151.671675 
L 206.734785 151.671675 
L 206.734785 151.208554 
L 207.053106 151.208554 
L 207.053106 150.745434 
L 209.94782 150.745434 
L 210.014955 149.819193 
L 210.406059 149.819193 
L 210.516727 148.429831 
L 211.628041 148.429831 
L 211.628041 147.966711 
L 212.281649 147.966711 
L 212.281649 147.04047 
L 213.209396 147.04047 
L 213.209396 146.577349 
L 213.432673 146.577349 
L 213.432673 146.114229 
L 214.02532 146.114229 
L 214.02532 145.651108 
L 215.167963 145.651108 
L 215.167963 144.724867 
L 216.017476 144.724867 
L 216.017476 143.798626 
L 216.22729 143.798626 
L 216.22729 143.335506 
L 216.460996 143.335506 
L 216.460996 142.872385 
L 217.553352 142.872385 
L 217.553352 142.409265 
L 217.972891 142.409265 
L 217.98527 140.556783 
L 218.312164 140.556783 
L 218.36471 138.7043 
L 220.090314 138.7043 
L 220.090314 137.778059 
L 220.644397 137.778059 
L 220.644397 137.314939 
L 221.199067 137.314939 
L 221.199067 136.851818 
L 222.31201 136.851818 
L 222.31201 136.388698 
L 222.893923 136.388698 
L 222.926799 135.462457 
L 224.609063 135.462457 
L 224.609063 134.999336 
L 225.302033 134.999336 
L 225.302033 134.536216 
L 226.80201 134.536216 
L 226.80201 134.073095 
L 227.410398 134.073095 
L 227.410398 133.609975 
L 228.160786 133.609975 
L 228.160786 133.146854 
L 231.120661 133.146854 
L 231.120661 132.683734 
L 232.713657 132.683734 
L 232.713657 132.220613 
L 233.564908 132.220613 
L 233.564908 131.757493 
L 234.368936 131.757493 
L 234.437201 130.831252 
L 235.146776 130.831252 
L 235.146776 130.368131 
L 235.560957 130.368131 
L 235.560957 129.905011 
L 237.288244 129.905011 
L 237.288244 128.97877 
L 237.695835 128.97877 
L 237.695835 128.515649 
L 239.838615 128.515649 
L 239.838615 127.589408 
L 240.246144 127.589408 
L 240.246144 127.126287 
L 240.854097 127.126287 
L 240.854097 126.663167 
L 241.276681 126.663167 
L 241.276681 125.736926 
L 246.664108 125.736926 
L 246.664108 125.273805 
L 247.346295 125.273805 
L 247.422941 123.421323 
L 247.614821 123.421323 
L 247.614821 122.958203 
L 247.918288 122.958203 
L 247.918288 122.495082 
L 248.304098 122.495082 
L 248.304098 122.031962 
L 251.460819 122.031962 
L 251.460819 121.568841 
L 251.872412 121.568841 
L 251.872412 120.6426 
L 252.587286 120.6426 
L 252.587286 120.17948 
L 253.169865 120.17948 
L 253.169865 119.253239 
L 253.289499 119.253239 
L 253.289499 118.790118 
L 253.791325 118.790118 
L 253.791325 118.326998 
L 254.347948 118.326998 
L 254.347948 117.400757 
L 255.695114 117.400757 
L 255.738922 116.474516 
L 257.124871 116.474516 
L 257.124871 115.548274 
L 338.688 115.548274 
L 338.688 115.548274 
" style="fill:none;stroke:#ff7500;stroke-linecap:square;stroke-width:1.5;"/>
   </g>
   <g id="line2d_46">
    <defs>
     <path d="M 0 -6 
L -1.347084 -1.854102 
L -5.706339 -1.854102 
L -2.179628 0.708204 
L -3.526712 4.854102 
L -0 2.291796 
L 3.526712 4.854102 
L 2.179628 0.708204 
L 5.706339 -1.854102 
L 1.347084 -1.854102 
z
" id="ma34da5bec8" style="stroke:#ff7500;stroke-linejoin:bevel;stroke-width:1.5;"/>
    </defs>
    <g>
     <use style="fill-opacity:0;stroke:#ff7500;stroke-linejoin:bevel;stroke-width:1.5;" x="170.977818" xlink:href="#ma34da5bec8" y="219.750391"/>
     <use style="fill-opacity:0;stroke:#ff7500;stroke-linejoin:bevel;stroke-width:1.5;" x="235.146776" xlink:href="#ma34da5bec8" y="130.368131"/>
     <use style="fill-opacity:0;stroke:#ff7500;stroke-linejoin:bevel;stroke-width:1.5;" x="257.124871" xlink:href="#ma34da5bec8" y="116.474516"/>
     <use style="fill-opacity:0;stroke:#ff7500;stroke-linejoin:bevel;stroke-width:1.5;" x="257.124871" xlink:href="#ma34da5bec8" y="115.548274"/>
     <use style="fill-opacity:0;stroke:#ff7500;stroke-linejoin:bevel;stroke-width:1.5;" x="338.688" xlink:href="#ma34da5bec8" y="115.548274"/>
    </g>
   </g>
   <g id="line2d_47">
    <path style="fill:none;stroke:#ff7500;stroke-linecap:square;stroke-width:1.5;"/>
    <g/>
   </g>
   <g id="line2d_48">
    <path clip-path="url(#p4a6351e7d5)" d="M 258.377201 115.548274 
" style="fill:none;stroke:#ff7500;stroke-linecap:square;stroke-width:1.5;"/>
    <defs>
     <path d="M -12 12 
L 12 -12 
M -12 -12 
L 12 12 
" id="mef146c88ee" style="stroke:#ff7500;"/>
    </defs>
    <g clip-path="url(#p4a6351e7d5)">
     <use style="fill:#ff7500;stroke:#ff7500;" x="258.377201" xlink:href="#mef146c88ee" y="115.548274"/>
    </g>
   </g>
   <g id="line2d_49">
    <path d="M 338.688 140.556783 
L 369.60768 293.571802 
" style="fill:none;stroke:#ff00ff;stroke-linecap:square;stroke-width:1.5;"/>
    <g>
     <use style="fill-opacity:0;stroke:#ff00ff;stroke-linejoin:miter;stroke-width:1.5;" x="338.688" xlink:href="#m476b1e3cad" y="140.556783"/>
     <use style="fill-opacity:0;stroke:#ff00ff;stroke-linejoin:miter;stroke-width:1.5;" x="369.60768" xlink:href="#m476b1e3cad" y="293.571802"/>
    </g>
   </g>
   <g id="line2d_50">
    <path d="M 338.688 115.548274 
L 369.60768 207.616634 
" style="fill:none;stroke:#ff7500;stroke-linecap:square;stroke-width:1.5;"/>
    <g>
     <use style="fill-opacity:0;stroke:#ff7500;stroke-linejoin:bevel;stroke-width:1.5;" x="338.688" xlink:href="#ma34da5bec8" y="115.548274"/>
     <use style="fill-opacity:0;stroke:#ff7500;stroke-linejoin:bevel;stroke-width:1.5;" x="369.60768" xlink:href="#ma34da5bec8" y="207.616634"/>
    </g>
   </g>
   <g id="line2d_51">
    <path d="M 338.688 98.875936 
L 369.60768 121.661465 
" style="fill:none;stroke:#000080;stroke-linecap:square;stroke-width:1.5;"/>
    <g>
     <use style="fill-opacity:0;stroke:#000080;stroke-width:1.5;" x="338.688" xlink:href="#m36722431ee" y="98.875936"/>
     <use style="fill-opacity:0;stroke:#000080;stroke-width:1.5;" x="369.60768" xlink:href="#m36722431ee" y="121.661465"/>
    </g>
   </g>
   <g id="line2d_52">
    <path d="M 338.688 298.944 
L 338.688 30.334099 
" style="fill:none;stroke:#000000;stroke-linecap:square;stroke-width:1.5;"/>
   </g>
   <g id="patch_3">
    <path d="M 57.6 298.944 
L 57.6 27.648 
" style="fill:none;stroke:#000000;stroke-linecap:square;stroke-linejoin:miter;stroke-width:0.8;"/>
   </g>
   <g id="patch_4">
    <path d="M 338.688 298.944 
L 338.688 27.648 
" style="fill:none;stroke:#000000;stroke-linecap:square;stroke-linejoin:miter;stroke-width:0.8;"/>
   </g>
   <g id="patch_5">
    <path d="M 57.6 298.944 
L 338.688 298.944 
" style="fill:none;stroke:#000000;stroke-linecap:square;stroke-linejoin:miter;stroke-width:0.8;"/>
   </g>
   <g id="patch_6">
    <path d="M 57.6 27.648 
L 338.688 27.648 
" style="fill:none;stroke:#000000;stroke-linecap:square;stroke-linejoin:miter;stroke-width:0.8;"/>
   </g>
   <g id="text_13">
    <!-- NSGA-II-M -->
    <g transform="translate(375.22944 298.262739)scale(0.17 -0.17)">
     <defs>
      <path d="M 9.8125 72.90625 
L 23.09375 72.90625 
L 55.421875 11.921875 
L 55.421875 72.90625 
L 64.984375 72.90625 
L 64.984375 0 
L 51.703125 0 
L 19.390625 60.984375 
L 19.390625 0 
L 9.8125 0 
z
" id="DejaVuSans-78"/>
      <path d="M 53.515625 70.515625 
L 53.515625 60.890625 
Q 47.90625 63.578125 42.921875 64.890625 
Q 37.9375 66.21875 33.296875 66.21875 
Q 25.25 66.21875 20.875 63.09375 
Q 16.5 59.96875 16.5 54.203125 
Q 16.5 49.359375 19.40625 46.890625 
Q 22.3125 44.4375 30.421875 42.921875 
L 36.375 41.703125 
Q 47.40625 39.59375 52.65625 34.296875 
Q 57.90625 29 57.90625 20.125 
Q 57.90625 9.515625 50.796875 4.046875 
Q 43.703125 -1.421875 29.984375 -1.421875 
Q 24.8125 -1.421875 18.96875 -0.25 
Q 13.140625 0.921875 6.890625 3.21875 
L 6.890625 13.375 
Q 12.890625 10.015625 18.65625 8.296875 
Q 24.421875 6.59375 29.984375 6.59375 
Q 38.421875 6.59375 43.015625 9.90625 
Q 47.609375 13.234375 47.609375 19.390625 
Q 47.609375 24.75 44.3125 27.78125 
Q 41.015625 30.8125 33.5 32.328125 
L 27.484375 33.5 
Q 16.453125 35.6875 11.515625 40.375 
Q 6.59375 45.0625 6.59375 53.421875 
Q 6.59375 63.09375 13.40625 68.65625 
Q 20.21875 74.21875 32.171875 74.21875 
Q 37.3125 74.21875 42.625 73.28125 
Q 47.953125 72.359375 53.515625 70.515625 
z
" id="DejaVuSans-83"/>
      <path d="M 59.515625 10.40625 
L 59.515625 29.984375 
L 43.40625 29.984375 
L 43.40625 38.09375 
L 69.28125 38.09375 
L 69.28125 6.78125 
Q 63.578125 2.734375 56.6875 0.65625 
Q 49.8125 -1.421875 42 -1.421875 
Q 24.90625 -1.421875 15.25 8.5625 
Q 5.609375 18.5625 5.609375 36.375 
Q 5.609375 54.25 15.25 64.234375 
Q 24.90625 74.21875 42 74.21875 
Q 49.125 74.21875 55.546875 72.453125 
Q 61.96875 70.703125 67.390625 67.28125 
L 67.390625 56.78125 
Q 61.921875 61.421875 55.765625 63.765625 
Q 49.609375 66.109375 42.828125 66.109375 
Q 29.4375 66.109375 22.71875 58.640625 
Q 16.015625 51.171875 16.015625 36.375 
Q 16.015625 21.625 22.71875 14.15625 
Q 29.4375 6.6875 42.828125 6.6875 
Q 48.046875 6.6875 52.140625 7.59375 
Q 56.25 8.5 59.515625 10.40625 
z
" id="DejaVuSans-71"/>
      <path d="M 34.1875 63.1875 
L 20.796875 26.90625 
L 47.609375 26.90625 
z
M 28.609375 72.90625 
L 39.796875 72.90625 
L 67.578125 0 
L 57.328125 0 
L 50.6875 18.703125 
L 17.828125 18.703125 
L 11.1875 0 
L 0.78125 0 
z
" id="DejaVuSans-65"/>
      <path d="M 9.8125 72.90625 
L 19.671875 72.90625 
L 19.671875 0 
L 9.8125 0 
z
" id="DejaVuSans-73"/>
      <path d="M 9.8125 72.90625 
L 24.515625 72.90625 
L 43.109375 23.296875 
L 61.8125 72.90625 
L 76.515625 72.90625 
L 76.515625 0 
L 66.890625 0 
L 66.890625 64.015625 
L 48.09375 14.015625 
L 38.1875 14.015625 
L 19.390625 64.015625 
L 19.390625 0 
L 9.8125 0 
z
" id="DejaVuSans-77"/>
     </defs>
     <use xlink:href="#DejaVuSans-78"/>
     <use x="74.804688" xlink:href="#DejaVuSans-83"/>
     <use x="138.28125" xlink:href="#DejaVuSans-71"/>
     <use x="215.771484" xlink:href="#DejaVuSans-65"/>
     <use x="281.929688" xlink:href="#DejaVuSans-45"/>
     <use x="318.013672" xlink:href="#DejaVuSans-73"/>
     <use x="347.505859" xlink:href="#DejaVuSans-73"/>
     <use x="376.998047" xlink:href="#DejaVuSans-45"/>
     <use x="413.082031" xlink:href="#DejaVuSans-77"/>
    </g>
   </g>
   <g id="text_14">
    <!-- SMS-EMOA- -->
    <g transform="translate(375.22944 212.307571)scale(0.17 -0.17)">
     <defs>
      <path d="M 9.8125 72.90625 
L 55.90625 72.90625 
L 55.90625 64.59375 
L 19.671875 64.59375 
L 19.671875 43.015625 
L 54.390625 43.015625 
L 54.390625 34.71875 
L 19.671875 34.71875 
L 19.671875 8.296875 
L 56.78125 8.296875 
L 56.78125 0 
L 9.8125 0 
z
" id="DejaVuSans-69"/>
      <path d="M 39.40625 66.21875 
Q 28.65625 66.21875 22.328125 58.203125 
Q 16.015625 50.203125 16.015625 36.375 
Q 16.015625 22.609375 22.328125 14.59375 
Q 28.65625 6.59375 39.40625 6.59375 
Q 50.140625 6.59375 56.421875 14.59375 
Q 62.703125 22.609375 62.703125 36.375 
Q 62.703125 50.203125 56.421875 58.203125 
Q 50.140625 66.21875 39.40625 66.21875 
z
M 39.40625 74.21875 
Q 54.734375 74.21875 63.90625 63.9375 
Q 73.09375 53.65625 73.09375 36.375 
Q 73.09375 19.140625 63.90625 8.859375 
Q 54.734375 -1.421875 39.40625 -1.421875 
Q 24.03125 -1.421875 14.8125 8.828125 
Q 5.609375 19.09375 5.609375 36.375 
Q 5.609375 53.65625 14.8125 63.9375 
Q 24.03125 74.21875 39.40625 74.21875 
z
" id="DejaVuSans-79"/>
     </defs>
     <use xlink:href="#DejaVuSans-83"/>
     <use x="63.476562" xlink:href="#DejaVuSans-77"/>
     <use x="149.755859" xlink:href="#DejaVuSans-83"/>
     <use x="213.232422" xlink:href="#DejaVuSans-45"/>
     <use x="249.316406" xlink:href="#DejaVuSans-69"/>
     <use x="312.5" xlink:href="#DejaVuSans-77"/>
     <use x="398.779297" xlink:href="#DejaVuSans-79"/>
     <use x="475.740234" xlink:href="#DejaVuSans-65"/>
     <use x="541.898438" xlink:href="#DejaVuSans-45"/>
    </g>
   </g>
   <g id="text_15">
    <!-- COMO-100  -->
    <g transform="translate(375.22944 126.352403)scale(0.17 -0.17)">
     <defs>
      <path d="M 64.40625 67.28125 
L 64.40625 56.890625 
Q 59.421875 61.53125 53.78125 63.8125 
Q 48.140625 66.109375 41.796875 66.109375 
Q 29.296875 66.109375 22.65625 58.46875 
Q 16.015625 50.828125 16.015625 36.375 
Q 16.015625 21.96875 22.65625 14.328125 
Q 29.296875 6.6875 41.796875 6.6875 
Q 48.140625 6.6875 53.78125 8.984375 
Q 59.421875 11.28125 64.40625 15.921875 
L 64.40625 5.609375 
Q 59.234375 2.09375 53.4375 0.328125 
Q 47.65625 -1.421875 41.21875 -1.421875 
Q 24.65625 -1.421875 15.125 8.703125 
Q 5.609375 18.84375 5.609375 36.375 
Q 5.609375 53.953125 15.125 64.078125 
Q 24.65625 74.21875 41.21875 74.21875 
Q 47.75 74.21875 53.53125 72.484375 
Q 59.328125 70.75 64.40625 67.28125 
z
" id="DejaVuSans-67"/>
     </defs>
     <use xlink:href="#DejaVuSans-67"/>
     <use x="69.824219" xlink:href="#DejaVuSans-79"/>
     <use x="148.535156" xlink:href="#DejaVuSans-77"/>
     <use x="234.814453" xlink:href="#DejaVuSans-79"/>
     <use x="316.275391" xlink:href="#DejaVuSans-45"/>
     <use x="352.359375" xlink:href="#DejaVuSans-49"/>
     <use x="415.982422" xlink:href="#DejaVuSans-48"/>
     <use x="479.605469" xlink:href="#DejaVuSans-48"/>
     <use x="543.228516" xlink:href="#DejaVuSans-32"/>
    </g>
   </g>
   <g id="text_16">
    <!-- best 2016 -->
    <g transform="translate(375.22944 40.397235)scale(0.17 -0.17)">
     <defs>
      <path d="M 48.6875 27.296875 
Q 48.6875 37.203125 44.609375 42.84375 
Q 40.53125 48.484375 33.40625 48.484375 
Q 26.265625 48.484375 22.1875 42.84375 
Q 18.109375 37.203125 18.109375 27.296875 
Q 18.109375 17.390625 22.1875 11.75 
Q 26.265625 6.109375 33.40625 6.109375 
Q 40.53125 6.109375 44.609375 11.75 
Q 48.6875 17.390625 48.6875 27.296875 
z
M 18.109375 46.390625 
Q 20.953125 51.265625 25.265625 53.625 
Q 29.59375 56 35.59375 56 
Q 45.5625 56 51.78125 48.09375 
Q 58.015625 40.1875 58.015625 27.296875 
Q 58.015625 14.40625 51.78125 6.484375 
Q 45.5625 -1.421875 35.59375 -1.421875 
Q 29.59375 -1.421875 25.265625 0.953125 
Q 20.953125 3.328125 18.109375 8.203125 
L 18.109375 0 
L 9.078125 0 
L 9.078125 75.984375 
L 18.109375 75.984375 
z
" id="DejaVuSans-98"/>
     </defs>
     <use xlink:href="#DejaVuSans-98"/>
     <use x="63.476562" xlink:href="#DejaVuSans-101"/>
     <use x="125" xlink:href="#DejaVuSans-115"/>
     <use x="177.099609" xlink:href="#DejaVuSans-116"/>
     <use x="216.308594" xlink:href="#DejaVuSans-32"/>
     <use x="248.095703" xlink:href="#DejaVuSans-50"/>
     <use x="311.71875" xlink:href="#DejaVuSans-48"/>
     <use x="375.341797" xlink:href="#DejaVuSans-49"/>
     <use x="438.964844" xlink:href="#DejaVuSans-54"/>
    </g>
   </g>
   <g id="text_17">
    <!-- bbob-biobj f41, 3-D -->
    <g transform="translate(60.41088 38.111366)scale(0.102 -0.102)">
     <defs>
      <path d="M 9.421875 54.6875 
L 18.40625 54.6875 
L 18.40625 -0.984375 
Q 18.40625 -11.421875 14.421875 -16.109375 
Q 10.453125 -20.796875 1.609375 -20.796875 
L -1.8125 -20.796875 
L -1.8125 -13.1875 
L 0.59375 -13.1875 
Q 5.71875 -13.1875 7.5625 -10.8125 
Q 9.421875 -8.453125 9.421875 -0.984375 
z
M 9.421875 75.984375 
L 18.40625 75.984375 
L 18.40625 64.59375 
L 9.421875 64.59375 
z
" id="DejaVuSans-106"/>
      <path d="M 40.578125 39.3125 
Q 47.65625 37.796875 51.625 33 
Q 55.609375 28.21875 55.609375 21.1875 
Q 55.609375 10.40625 48.1875 4.484375 
Q 40.765625 -1.421875 27.09375 -1.421875 
Q 22.515625 -1.421875 17.65625 -0.515625 
Q 12.796875 0.390625 7.625 2.203125 
L 7.625 11.71875 
Q 11.71875 9.328125 16.59375 8.109375 
Q 21.484375 6.890625 26.8125 6.890625 
Q 36.078125 6.890625 40.9375 10.546875 
Q 45.796875 14.203125 45.796875 21.1875 
Q 45.796875 27.640625 41.28125 31.265625 
Q 36.765625 34.90625 28.71875 34.90625 
L 20.21875 34.90625 
L 20.21875 43.015625 
L 29.109375 43.015625 
Q 36.375 43.015625 40.234375 45.921875 
Q 44.09375 48.828125 44.09375 54.296875 
Q 44.09375 59.90625 40.109375 62.90625 
Q 36.140625 65.921875 28.71875 65.921875 
Q 24.65625 65.921875 20.015625 65.03125 
Q 15.375 64.15625 9.8125 62.3125 
L 9.8125 71.09375 
Q 15.4375 72.65625 20.34375 73.4375 
Q 25.25 74.21875 29.59375 74.21875 
Q 40.828125 74.21875 47.359375 69.109375 
Q 53.90625 64.015625 53.90625 55.328125 
Q 53.90625 49.265625 50.4375 45.09375 
Q 46.96875 40.921875 40.578125 39.3125 
z
" id="DejaVuSans-51"/>
      <path d="M 19.671875 64.796875 
L 19.671875 8.109375 
L 31.59375 8.109375 
Q 46.6875 8.109375 53.6875 14.9375 
Q 60.6875 21.78125 60.6875 36.53125 
Q 60.6875 51.171875 53.6875 57.984375 
Q 46.6875 64.796875 31.59375 64.796875 
z
M 9.8125 72.90625 
L 30.078125 72.90625 
Q 51.265625 72.90625 61.171875 64.09375 
Q 71.09375 55.28125 71.09375 36.53125 
Q 71.09375 17.671875 61.125 8.828125 
Q 51.171875 0 30.078125 0 
L 9.8125 0 
z
" id="DejaVuSans-68"/>
     </defs>
     <use xlink:href="#DejaVuSans-98"/>
     <use x="63.476562" xlink:href="#DejaVuSans-98"/>
     <use x="126.953125" xlink:href="#DejaVuSans-111"/>
     <use x="188.134766" xlink:href="#DejaVuSans-98"/>
     <use x="251.611328" xlink:href="#DejaVuSans-45"/>
     <use x="287.695312" xlink:href="#DejaVuSans-98"/>
     <use x="351.171875" xlink:href="#DejaVuSans-105"/>
     <use x="378.955078" xlink:href="#DejaVuSans-111"/>
     <use x="440.136719" xlink:href="#DejaVuSans-98"/>
     <use x="503.613281" xlink:href="#DejaVuSans-106"/>
     <use x="531.396484" xlink:href="#DejaVuSans-32"/>
     <use x="563.183594" xlink:href="#DejaVuSans-102"/>
     <use x="598.388672" xlink:href="#DejaVuSans-52"/>
     <use x="662.011719" xlink:href="#DejaVuSans-49"/>
     <use x="725.634766" xlink:href="#DejaVuSans-44"/>
     <use x="757.421875" xlink:href="#DejaVuSans-32"/>
     <use x="789.208984" xlink:href="#DejaVuSans-51"/>
     <use x="852.832031" xlink:href="#DejaVuSans-45"/>
     <use x="888.916016" xlink:href="#DejaVuSans-68"/>
    </g>
    <!-- 58 targets: 1..-1.0e-4 -->
    <g transform="translate(60.41088 49.533135)scale(0.102 -0.102)">
     <defs>
      <path d="M 10.796875 72.90625 
L 49.515625 72.90625 
L 49.515625 64.59375 
L 19.828125 64.59375 
L 19.828125 46.734375 
Q 21.96875 47.46875 24.109375 47.828125 
Q 26.265625 48.1875 28.421875 48.1875 
Q 40.625 48.1875 47.75 41.5 
Q 54.890625 34.8125 54.890625 23.390625 
Q 54.890625 11.625 47.5625 5.09375 
Q 40.234375 -1.421875 26.90625 -1.421875 
Q 22.3125 -1.421875 17.546875 -0.640625 
Q 12.796875 0.140625 7.71875 1.703125 
L 7.71875 11.625 
Q 12.109375 9.234375 16.796875 8.0625 
Q 21.484375 6.890625 26.703125 6.890625 
Q 35.15625 6.890625 40.078125 11.328125 
Q 45.015625 15.765625 45.015625 23.390625 
Q 45.015625 31 40.078125 35.4375 
Q 35.15625 39.890625 26.703125 39.890625 
Q 22.75 39.890625 18.8125 39.015625 
Q 14.890625 38.140625 10.796875 36.28125 
z
" id="DejaVuSans-53"/>
      <path d="M 11.71875 12.40625 
L 22.015625 12.40625 
L 22.015625 0 
L 11.71875 0 
z
M 11.71875 51.703125 
L 22.015625 51.703125 
L 22.015625 39.3125 
L 11.71875 39.3125 
z
" id="DejaVuSans-58"/>
     </defs>
     <use xlink:href="#DejaVuSans-53"/>
     <use x="63.623047" xlink:href="#DejaVuSans-56"/>
     <use x="127.246094" xlink:href="#DejaVuSans-32"/>
     <use x="159.033203" xlink:href="#DejaVuSans-116"/>
     <use x="198.242188" xlink:href="#DejaVuSans-97"/>
     <use x="259.521484" xlink:href="#DejaVuSans-114"/>
     <use x="298.884766" xlink:href="#DejaVuSans-103"/>
     <use x="362.361328" xlink:href="#DejaVuSans-101"/>
     <use x="423.884766" xlink:href="#DejaVuSans-116"/>
     <use x="463.09375" xlink:href="#DejaVuSans-115"/>
     <use x="515.193359" xlink:href="#DejaVuSans-58"/>
     <use x="548.884766" xlink:href="#DejaVuSans-32"/>
     <use x="580.671875" xlink:href="#DejaVuSans-49"/>
     <use x="644.294922" xlink:href="#DejaVuSans-46"/>
     <use x="676.082031" xlink:href="#DejaVuSans-46"/>
     <use x="707.869141" xlink:href="#DejaVuSans-45"/>
     <use x="743.953125" xlink:href="#DejaVuSans-49"/>
     <use x="807.576172" xlink:href="#DejaVuSans-46"/>
     <use x="839.363281" xlink:href="#DejaVuSans-48"/>
     <use x="902.986328" xlink:href="#DejaVuSans-101"/>
     <use x="964.509766" xlink:href="#DejaVuSans-45"/>
     <use x="1000.59375" xlink:href="#DejaVuSans-52"/>
    </g>
    <!-- 10 instances -->
    <g transform="translate(60.41088 60.954904)scale(0.102 -0.102)">
     <use xlink:href="#DejaVuSans-49"/>
     <use x="63.623047" xlink:href="#DejaVuSans-48"/>
     <use x="127.246094" xlink:href="#DejaVuSans-32"/>
     <use x="159.033203" xlink:href="#DejaVuSans-105"/>
     <use x="186.816406" xlink:href="#DejaVuSans-110"/>
     <use x="250.195312" xlink:href="#DejaVuSans-115"/>
     <use x="302.294922" xlink:href="#DejaVuSans-116"/>
     <use x="341.503906" xlink:href="#DejaVuSans-97"/>
     <use x="402.783203" xlink:href="#DejaVuSans-110"/>
     <use x="466.162109" xlink:href="#DejaVuSans-99"/>
     <use x="521.142578" xlink:href="#DejaVuSans-101"/>
     <use x="582.666016" xlink:href="#DejaVuSans-115"/>
    </g>
   </g>
   <g id="text_18">
    <!-- v2.4.19, hv-hash=ff0e71e8cd978373 -->
    <g style="fill:#808080;" transform="translate(104.697125 294.151352)scale(0.1 -0.1)">
     <defs>
      <path d="M 10.984375 1.515625 
L 10.984375 10.5 
Q 14.703125 8.734375 18.5 7.8125 
Q 22.3125 6.890625 25.984375 6.890625 
Q 35.75 6.890625 40.890625 13.453125 
Q 46.046875 20.015625 46.78125 33.40625 
Q 43.953125 29.203125 39.59375 26.953125 
Q 35.25 24.703125 29.984375 24.703125 
Q 19.046875 24.703125 12.671875 31.3125 
Q 6.296875 37.9375 6.296875 49.421875 
Q 6.296875 60.640625 12.9375 67.421875 
Q 19.578125 74.21875 30.609375 74.21875 
Q 43.265625 74.21875 49.921875 64.515625 
Q 56.59375 54.828125 56.59375 36.375 
Q 56.59375 19.140625 48.40625 8.859375 
Q 40.234375 -1.421875 26.421875 -1.421875 
Q 22.703125 -1.421875 18.890625 -0.6875 
Q 15.09375 0.046875 10.984375 1.515625 
z
M 30.609375 32.421875 
Q 37.25 32.421875 41.125 36.953125 
Q 45.015625 41.5 45.015625 49.421875 
Q 45.015625 57.28125 41.125 61.84375 
Q 37.25 66.40625 30.609375 66.40625 
Q 23.96875 66.40625 20.09375 61.84375 
Q 16.21875 57.28125 16.21875 49.421875 
Q 16.21875 41.5 20.09375 36.953125 
Q 23.96875 32.421875 30.609375 32.421875 
z
" id="DejaVuSans-57"/>
      <path d="M 54.890625 33.015625 
L 54.890625 0 
L 45.90625 0 
L 45.90625 32.71875 
Q 45.90625 40.484375 42.875 44.328125 
Q 39.84375 48.1875 33.796875 48.1875 
Q 26.515625 48.1875 22.3125 43.546875 
Q 18.109375 38.921875 18.109375 30.90625 
L 18.109375 0 
L 9.078125 0 
L 9.078125 75.984375 
L 18.109375 75.984375 
L 18.109375 46.1875 
Q 21.34375 51.125 25.703125 53.5625 
Q 30.078125 56 35.796875 56 
Q 45.21875 56 50.046875 50.171875 
Q 54.890625 44.34375 54.890625 33.015625 
z
" id="DejaVuSans-104"/>
      <path d="M 10.59375 45.40625 
L 73.1875 45.40625 
L 73.1875 37.203125 
L 10.59375 37.203125 
z
M 10.59375 25.484375 
L 73.1875 25.484375 
L 73.1875 17.1875 
L 10.59375 17.1875 
z
" id="DejaVuSans-61"/>
      <path d="M 8.203125 72.90625 
L 55.078125 72.90625 
L 55.078125 68.703125 
L 28.609375 0 
L 18.3125 0 
L 43.21875 64.59375 
L 8.203125 64.59375 
z
" id="DejaVuSans-55"/>
     </defs>
     <use xlink:href="#DejaVuSans-118"/>
     <use x="59.179688" xlink:href="#DejaVuSans-50"/>
     <use x="122.802734" xlink:href="#DejaVuSans-46"/>
     <use x="154.589844" xlink:href="#DejaVuSans-52"/>
     <use x="218.212891" xlink:href="#DejaVuSans-46"/>
     <use x="250" xlink:href="#DejaVuSans-49"/>
     <use x="313.623047" xlink:href="#DejaVuSans-57"/>
     <use x="377.246094" xlink:href="#DejaVuSans-44"/>
     <use x="409.033203" xlink:href="#DejaVuSans-32"/>
     <use x="440.820312" xlink:href="#DejaVuSans-104"/>
     <use x="504.199219" xlink:href="#DejaVuSans-118"/>
     <use x="560.753906" xlink:href="#DejaVuSans-45"/>
     <use x="596.837891" xlink:href="#DejaVuSans-104"/>
     <use x="660.216797" xlink:href="#DejaVuSans-97"/>
     <use x="721.496094" xlink:href="#DejaVuSans-115"/>
     <use x="773.595703" xlink:href="#DejaVuSans-104"/>
     <use x="836.974609" xlink:href="#DejaVuSans-61"/>
     <use x="920.763672" xlink:href="#DejaVuSans-102"/>
     <use x="955.96875" xlink:href="#DejaVuSans-102"/>
     <use x="991.173828" xlink:href="#DejaVuSans-48"/>
     <use x="1054.796875" xlink:href="#DejaVuSans-101"/>
     <use x="1116.320312" xlink:href="#DejaVuSans-55"/>
     <use x="1179.943359" xlink:href="#DejaVuSans-49"/>
     <use x="1243.566406" xlink:href="#DejaVuSans-101"/>
     <use x="1305.089844" xlink:href="#DejaVuSans-56"/>
     <use x="1368.712891" xlink:href="#DejaVuSans-99"/>
     <use x="1423.693359" xlink:href="#DejaVuSans-100"/>
     <use x="1487.169922" xlink:href="#DejaVuSans-57"/>
     <use x="1550.792969" xlink:href="#DejaVuSans-55"/>
     <use x="1614.416016" xlink:href="#DejaVuSans-56"/>
     <use x="1678.039062" xlink:href="#DejaVuSans-51"/>
     <use x="1741.662109" xlink:href="#DejaVuSans-55"/>
     <use x="1805.285156" xlink:href="#DejaVuSans-51"/>
    </g>
   </g>
   <g id="text_19">
    <!-- 41 Diff. Powers/Diff. Powers -->
    <g transform="translate(61.697125 21.648)scale(0.2 -0.2)">
     <defs>
      <path d="M 19.671875 64.796875 
L 19.671875 37.40625 
L 32.078125 37.40625 
Q 38.96875 37.40625 42.71875 40.96875 
Q 46.484375 44.53125 46.484375 51.125 
Q 46.484375 57.671875 42.71875 61.234375 
Q 38.96875 64.796875 32.078125 64.796875 
z
M 9.8125 72.90625 
L 32.078125 72.90625 
Q 44.34375 72.90625 50.609375 67.359375 
Q 56.890625 61.8125 56.890625 51.125 
Q 56.890625 40.328125 50.609375 34.8125 
Q 44.34375 29.296875 32.078125 29.296875 
L 19.671875 29.296875 
L 19.671875 0 
L 9.8125 0 
z
" id="DejaVuSans-80"/>
      <path d="M 4.203125 54.6875 
L 13.1875 54.6875 
L 24.421875 12.015625 
L 35.59375 54.6875 
L 46.1875 54.6875 
L 57.421875 12.015625 
L 68.609375 54.6875 
L 77.59375 54.6875 
L 63.28125 0 
L 52.6875 0 
L 40.921875 44.828125 
L 29.109375 0 
L 18.5 0 
z
" id="DejaVuSans-119"/>
     </defs>
     <use xlink:href="#DejaVuSans-52"/>
     <use x="63.623047" xlink:href="#DejaVuSans-49"/>
     <use x="127.246094" xlink:href="#DejaVuSans-32"/>
     <use x="159.033203" xlink:href="#DejaVuSans-68"/>
     <use x="236.035156" xlink:href="#DejaVuSans-105"/>
     <use x="263.818359" xlink:href="#DejaVuSans-102"/>
     <use x="299.023438" xlink:href="#DejaVuSans-102"/>
     <use x="326.978516" xlink:href="#DejaVuSans-46"/>
     <use x="358.765625" xlink:href="#DejaVuSans-32"/>
     <use x="390.552734" xlink:href="#DejaVuSans-80"/>
     <use x="447.230469" xlink:href="#DejaVuSans-111"/>
     <use x="508.412109" xlink:href="#DejaVuSans-119"/>
     <use x="590.199219" xlink:href="#DejaVuSans-101"/>
     <use x="651.722656" xlink:href="#DejaVuSans-114"/>
     <use x="692.835938" xlink:href="#DejaVuSans-115"/>
     <use x="744.935547" xlink:href="#DejaVuSans-47"/>
     <use x="778.626953" xlink:href="#DejaVuSans-68"/>
     <use x="855.628906" xlink:href="#DejaVuSans-105"/>
     <use x="883.412109" xlink:href="#DejaVuSans-102"/>
     <use x="918.617188" xlink:href="#DejaVuSans-102"/>
     <use x="946.572266" xlink:href="#DejaVuSans-46"/>
     <use x="978.359375" xlink:href="#DejaVuSans-32"/>
     <use x="1010.146484" xlink:href="#DejaVuSans-80"/>
     <use x="1066.824219" xlink:href="#DejaVuSans-111"/>
     <use x="1128.005859" xlink:href="#DejaVuSans-119"/>
     <use x="1209.792969" xlink:href="#DejaVuSans-101"/>
     <use x="1271.316406" xlink:href="#DejaVuSans-114"/>
     <use x="1312.429688" xlink:href="#DejaVuSans-115"/>
    </g>
   </g>
  </g>
 </g>
 <defs>
  <clipPath id="p4a6351e7d5">
   <rect height="271.296" width="281.088" x="57.6" y="27.648"/>
  </clipPath>
 </defs>
</svg>
