<?xml version="1.0" encoding="utf-8" standalone="no"?>
<!DOCTYPE svg PUBLIC "-//W3C//DTD SVG 1.1//EN"
  "http://www.w3.org/Graphics/SVG/1.1/DTD/svg11.dtd">
<!-- Created with matplotlib (https://matplotlib.org/) -->
<svg height="345.6pt" version="1.1" viewBox="0 0 460.8 345.6" width="460.8pt" xmlns="http://www.w3.org/2000/svg" xmlns:xlink="http://www.w3.org/1999/xlink">
 <metadata>
  <rdf:RDF xmlns:cc="http://creativecommons.org/ns#" xmlns:dc="http://purl.org/dc/elements/1.1/" xmlns:rdf="http://www.w3.org/1999/02/22-rdf-syntax-ns#">
   <cc:Work>
    <dc:type rdf:resource="http://purl.org/dc/dcmitype/StillImage"/>
    <dc:date>2021-04-26T15:04:53.443931</dc:date>
    <dc:format>image/svg+xml</dc:format>
    <dc:creator>
     <cc:Agent>
      <dc:title>Matplotlib v3.3.2, https://matplotlib.org/</dc:title>
     </cc:Agent>
    </dc:creator>
   </cc:Work>
  </rdf:RDF>
 </metadata>
 <defs>
  <style type="text/css">*{stroke-linecap:butt;stroke-linejoin:round;}</style>
 </defs>
 <g id="figure_1">
  <g id="patch_1">
   <path d="M 0 345.6 
L 460.8 345.6 
L 460.8 0 
L 0 0 
z
" style="fill:#ffffff;"/>
  </g>
  <g id="axes_1">
   <g id="patch_2">
    <path d="M 57.6 298.944 
L 338.688 298.944 
L 338.688 27.648 
L 57.6 27.648 
z
" style="fill:#ffffff;"/>
   </g>
   <g id="line2d_1">
    <path d="M 69.687988 298.944 
L 69.687988 294.312795 
L 87.329581 294.312795 
L 87.329581 285.050384 
L 97.755429 285.050384 
L 97.755429 275.787974 
L 102.989037 275.787974 
L 102.989037 271.156769 
L 119.850084 271.156769 
L 119.850084 257.263153 
L 132.541568 257.263153 
L 132.541568 248.000743 
L 136.551264 248.000743 
L 136.551264 243.369538 
L 138.761723 243.369538 
L 138.761723 234.107127 
L 142.351634 234.107127 
L 142.351634 220.213512 
L 146.644018 220.213512 
L 146.644018 210.951101 
L 149.60198 210.951101 
L 149.60198 201.688691 
L 152.398241 201.688691 
L 152.398241 192.426281 
L 156.205916 192.426281 
L 156.205916 187.795075 
L 159.783038 187.795075 
L 159.783038 173.90146 
L 164.276 173.90146 
L 164.276 169.270255 
L 178.44579 169.270255 
L 178.44579 155.376639 
L 188.643199 155.376639 
L 188.643199 146.114229 
L 193.088693 146.114229 
L 193.088693 141.483024 
L 196.858138 141.483024 
L 196.858138 127.589408 
L 205.246549 127.589408 
L 205.246549 122.958203 
L 211.67718 122.958203 
L 211.67718 109.064587 
L 217.537036 109.064587 
L 217.537036 99.802177 
L 225.888177 99.802177 
L 225.888177 90.539766 
L 233.38175 90.539766 
L 233.38175 85.908561 
L 238.469676 85.908561 
L 238.469676 76.646151 
L 244.203509 76.646151 
L 244.203509 62.752535 
L 338.688 62.752535 
" style="fill:none;stroke:#f5deb3;stroke-linecap:square;stroke-width:4;"/>
   </g>
   <g id="line2d_2">
    <defs>
     <path d="M 0 7.778175 
L 7.778175 0 
L 0 -7.778175 
L -7.778175 0 
z
" id="mba4f62a7e3" style="stroke:#f5deb3;stroke-linejoin:miter;stroke-width:1.5;"/>
    </defs>
    <g>
     <use style="fill:#f5deb3;stroke:#f5deb3;stroke-linejoin:miter;stroke-width:1.5;" x="156.205916" xlink:href="#mba4f62a7e3" y="187.795075"/>
     <use style="fill:#f5deb3;stroke:#f5deb3;stroke-linejoin:miter;stroke-width:1.5;" x="211.67718" xlink:href="#mba4f62a7e3" y="122.958203"/>
     <use style="fill:#f5deb3;stroke:#f5deb3;stroke-linejoin:miter;stroke-width:1.5;" x="244.203509" xlink:href="#mba4f62a7e3" y="62.752535"/>
     <use style="fill:#f5deb3;stroke:#f5deb3;stroke-linejoin:miter;stroke-width:1.5;" x="244.203509" xlink:href="#mba4f62a7e3" y="62.752535"/>
     <use style="fill:#f5deb3;stroke:#f5deb3;stroke-linejoin:miter;stroke-width:1.5;" x="338.688" xlink:href="#mba4f62a7e3" y="62.752535"/>
    </g>
   </g>
   <g id="line2d_3">
    <path style="fill:none;stroke:#f5deb3;stroke-linecap:square;stroke-width:4;"/>
    <g/>
   </g>
   <g id="line2d_4">
    <path d="M 338.688 62.752535 
L 369.60768 35.706297 
" style="fill:none;stroke:#f5deb3;stroke-linecap:square;stroke-width:4;"/>
    <g>
     <use style="fill:#f5deb3;stroke:#f5deb3;stroke-linejoin:miter;stroke-width:1.5;" x="338.688" xlink:href="#mba4f62a7e3" y="62.752535"/>
     <use style="fill:#f5deb3;stroke:#f5deb3;stroke-linejoin:miter;stroke-width:1.5;" x="369.60768" xlink:href="#mba4f62a7e3" y="35.706297"/>
    </g>
   </g>
   <g id="matplotlib.axis_1">
    <g id="xtick_1">
     <g id="line2d_5">
      <path clip-path="url(#p0e865a97b4)" d="M 57.6 298.944 
L 57.6 27.648 
" style="fill:none;stroke:#b0b0b0;stroke-linecap:square;stroke-width:0.8;"/>
     </g>
     <g id="line2d_6">
      <defs>
       <path d="M 0 0 
L 0 3.5 
" id="m896fe807b4" style="stroke:#000000;stroke-width:0.8;"/>
      </defs>
      <g>
       <use style="stroke:#000000;stroke-width:0.8;" x="57.6" xlink:href="#m896fe807b4" y="298.944"/>
      </g>
     </g>
     <g id="text_1">
      <!-- 0 -->
      <g transform="translate(51.2375 321.140875)scale(0.2 -0.2)">
       <defs>
        <path d="M 31.78125 66.40625 
Q 24.171875 66.40625 20.328125 58.90625 
Q 16.5 51.421875 16.5 36.375 
Q 16.5 21.390625 20.328125 13.890625 
Q 24.171875 6.390625 31.78125 6.390625 
Q 39.453125 6.390625 43.28125 13.890625 
Q 47.125 21.390625 47.125 36.375 
Q 47.125 51.421875 43.28125 58.90625 
Q 39.453125 66.40625 31.78125 66.40625 
z
M 31.78125 74.21875 
Q 44.046875 74.21875 50.515625 64.515625 
Q 56.984375 54.828125 56.984375 36.375 
Q 56.984375 17.96875 50.515625 8.265625 
Q 44.046875 -1.421875 31.78125 -1.421875 
Q 19.53125 -1.421875 13.0625 8.265625 
Q 6.59375 17.96875 6.59375 36.375 
Q 6.59375 54.828125 13.0625 64.515625 
Q 19.53125 74.21875 31.78125 74.21875 
z
" id="DejaVuSans-48"/>
       </defs>
       <use xlink:href="#DejaVuSans-48"/>
      </g>
     </g>
    </g>
    <g id="xtick_2">
     <g id="line2d_7">
      <path clip-path="url(#p0e865a97b4)" d="M 137.910857 298.944 
L 137.910857 27.648 
" style="fill:none;stroke:#b0b0b0;stroke-linecap:square;stroke-width:0.8;"/>
     </g>
     <g id="line2d_8">
      <g>
       <use style="stroke:#000000;stroke-width:0.8;" x="137.910857" xlink:href="#m896fe807b4" y="298.944"/>
      </g>
     </g>
     <g id="text_2">
      <!-- 2 -->
      <g transform="translate(131.548357 321.140875)scale(0.2 -0.2)">
       <defs>
        <path d="M 19.1875 8.296875 
L 53.609375 8.296875 
L 53.609375 0 
L 7.328125 0 
L 7.328125 8.296875 
Q 12.9375 14.109375 22.625 23.890625 
Q 32.328125 33.6875 34.8125 36.53125 
Q 39.546875 41.84375 41.421875 45.53125 
Q 43.3125 49.21875 43.3125 52.78125 
Q 43.3125 58.59375 39.234375 62.25 
Q 35.15625 65.921875 28.609375 65.921875 
Q 23.96875 65.921875 18.8125 64.3125 
Q 13.671875 62.703125 7.8125 59.421875 
L 7.8125 69.390625 
Q 13.765625 71.78125 18.9375 73 
Q 24.125 74.21875 28.421875 74.21875 
Q 39.75 74.21875 46.484375 68.546875 
Q 53.21875 62.890625 53.21875 53.421875 
Q 53.21875 48.921875 51.53125 44.890625 
Q 49.859375 40.875 45.40625 35.40625 
Q 44.1875 33.984375 37.640625 27.21875 
Q 31.109375 20.453125 19.1875 8.296875 
z
" id="DejaVuSans-50"/>
       </defs>
       <use xlink:href="#DejaVuSans-50"/>
      </g>
     </g>
    </g>
    <g id="xtick_3">
     <g id="line2d_9">
      <path clip-path="url(#p0e865a97b4)" d="M 218.221714 298.944 
L 218.221714 27.648 
" style="fill:none;stroke:#b0b0b0;stroke-linecap:square;stroke-width:0.8;"/>
     </g>
     <g id="line2d_10">
      <g>
       <use style="stroke:#000000;stroke-width:0.8;" x="218.221714" xlink:href="#m896fe807b4" y="298.944"/>
      </g>
     </g>
     <g id="text_3">
      <!-- 4 -->
      <g transform="translate(211.859214 321.140875)scale(0.2 -0.2)">
       <defs>
        <path d="M 37.796875 64.3125 
L 12.890625 25.390625 
L 37.796875 25.390625 
z
M 35.203125 72.90625 
L 47.609375 72.90625 
L 47.609375 25.390625 
L 58.015625 25.390625 
L 58.015625 17.1875 
L 47.609375 17.1875 
L 47.609375 0 
L 37.796875 0 
L 37.796875 17.1875 
L 4.890625 17.1875 
L 4.890625 26.703125 
z
" id="DejaVuSans-52"/>
       </defs>
       <use xlink:href="#DejaVuSans-52"/>
      </g>
     </g>
    </g>
    <g id="xtick_4">
     <g id="line2d_11">
      <path clip-path="url(#p0e865a97b4)" d="M 298.532571 298.944 
L 298.532571 27.648 
" style="fill:none;stroke:#b0b0b0;stroke-linecap:square;stroke-width:0.8;"/>
     </g>
     <g id="line2d_12">
      <g>
       <use style="stroke:#000000;stroke-width:0.8;" x="298.532571" xlink:href="#m896fe807b4" y="298.944"/>
      </g>
     </g>
     <g id="text_4">
      <!-- 6 -->
      <g transform="translate(292.170071 321.140875)scale(0.2 -0.2)">
       <defs>
        <path d="M 33.015625 40.375 
Q 26.375 40.375 22.484375 35.828125 
Q 18.609375 31.296875 18.609375 23.390625 
Q 18.609375 15.53125 22.484375 10.953125 
Q 26.375 6.390625 33.015625 6.390625 
Q 39.65625 6.390625 43.53125 10.953125 
Q 47.40625 15.53125 47.40625 23.390625 
Q 47.40625 31.296875 43.53125 35.828125 
Q 39.65625 40.375 33.015625 40.375 
z
M 52.59375 71.296875 
L 52.59375 62.3125 
Q 48.875 64.0625 45.09375 64.984375 
Q 41.3125 65.921875 37.59375 65.921875 
Q 27.828125 65.921875 22.671875 59.328125 
Q 17.53125 52.734375 16.796875 39.40625 
Q 19.671875 43.65625 24.015625 45.921875 
Q 28.375 48.1875 33.59375 48.1875 
Q 44.578125 48.1875 50.953125 41.515625 
Q 57.328125 34.859375 57.328125 23.390625 
Q 57.328125 12.15625 50.6875 5.359375 
Q 44.046875 -1.421875 33.015625 -1.421875 
Q 20.359375 -1.421875 13.671875 8.265625 
Q 6.984375 17.96875 6.984375 36.375 
Q 6.984375 53.65625 15.1875 63.9375 
Q 23.390625 74.21875 37.203125 74.21875 
Q 40.921875 74.21875 44.703125 73.484375 
Q 48.484375 72.75 52.59375 71.296875 
z
" id="DejaVuSans-54"/>
       </defs>
       <use xlink:href="#DejaVuSans-54"/>
      </g>
     </g>
    </g>
    <g id="xtick_5">
     <g id="line2d_13">
      <path clip-path="url(#p0e865a97b4)" d="M 97.755429 298.944 
L 97.755429 27.648 
" style="fill:none;stroke:#b0b0b0;stroke-linecap:square;stroke-width:0.8;"/>
     </g>
     <g id="line2d_14">
      <defs>
       <path d="M 0 0 
L 0 2 
" id="m7476e5a0f6" style="stroke:#000000;stroke-width:0.6;"/>
      </defs>
      <g>
       <use style="stroke:#000000;stroke-width:0.6;" x="97.755429" xlink:href="#m7476e5a0f6" y="298.944"/>
      </g>
     </g>
    </g>
    <g id="xtick_6">
     <g id="line2d_15">
      <path clip-path="url(#p0e865a97b4)" d="M 178.066286 298.944 
L 178.066286 27.648 
" style="fill:none;stroke:#b0b0b0;stroke-linecap:square;stroke-width:0.8;"/>
     </g>
     <g id="line2d_16">
      <g>
       <use style="stroke:#000000;stroke-width:0.6;" x="178.066286" xlink:href="#m7476e5a0f6" y="298.944"/>
      </g>
     </g>
    </g>
    <g id="xtick_7">
     <g id="line2d_17">
      <path clip-path="url(#p0e865a97b4)" d="M 258.377143 298.944 
L 258.377143 27.648 
" style="fill:none;stroke:#b0b0b0;stroke-linecap:square;stroke-width:0.8;"/>
     </g>
     <g id="line2d_18">
      <g>
       <use style="stroke:#000000;stroke-width:0.6;" x="258.377143" xlink:href="#m7476e5a0f6" y="298.944"/>
      </g>
     </g>
    </g>
    <g id="xtick_8">
     <g id="line2d_19">
      <path clip-path="url(#p0e865a97b4)" d="M 338.688 298.944 
L 338.688 27.648 
" style="fill:none;stroke:#b0b0b0;stroke-linecap:square;stroke-width:0.8;"/>
     </g>
     <g id="line2d_20">
      <g>
       <use style="stroke:#000000;stroke-width:0.6;" x="338.688" xlink:href="#m7476e5a0f6" y="298.944"/>
      </g>
     </g>
    </g>
    <g id="text_5">
     <!-- log10(# f-evals / dimension) -->
     <g transform="translate(77.764078 342.217594)scale(0.17 -0.17)">
      <defs>
       <path d="M 9.421875 75.984375 
L 18.40625 75.984375 
L 18.40625 0 
L 9.421875 0 
z
" id="DejaVuSans-108"/>
       <path d="M 30.609375 48.390625 
Q 23.390625 48.390625 19.1875 42.75 
Q 14.984375 37.109375 14.984375 27.296875 
Q 14.984375 17.484375 19.15625 11.84375 
Q 23.34375 6.203125 30.609375 6.203125 
Q 37.796875 6.203125 41.984375 11.859375 
Q 46.1875 17.53125 46.1875 27.296875 
Q 46.1875 37.015625 41.984375 42.703125 
Q 37.796875 48.390625 30.609375 48.390625 
z
M 30.609375 56 
Q 42.328125 56 49.015625 48.375 
Q 55.71875 40.765625 55.71875 27.296875 
Q 55.71875 13.875 49.015625 6.21875 
Q 42.328125 -1.421875 30.609375 -1.421875 
Q 18.84375 -1.421875 12.171875 6.21875 
Q 5.515625 13.875 5.515625 27.296875 
Q 5.515625 40.765625 12.171875 48.375 
Q 18.84375 56 30.609375 56 
z
" id="DejaVuSans-111"/>
       <path d="M 45.40625 27.984375 
Q 45.40625 37.75 41.375 43.109375 
Q 37.359375 48.484375 30.078125 48.484375 
Q 22.859375 48.484375 18.828125 43.109375 
Q 14.796875 37.75 14.796875 27.984375 
Q 14.796875 18.265625 18.828125 12.890625 
Q 22.859375 7.515625 30.078125 7.515625 
Q 37.359375 7.515625 41.375 12.890625 
Q 45.40625 18.265625 45.40625 27.984375 
z
M 54.390625 6.78125 
Q 54.390625 -7.171875 48.1875 -13.984375 
Q 42 -20.796875 29.203125 -20.796875 
Q 24.46875 -20.796875 20.265625 -20.09375 
Q 16.0625 -19.390625 12.109375 -17.921875 
L 12.109375 -9.1875 
Q 16.0625 -11.328125 19.921875 -12.34375 
Q 23.78125 -13.375 27.78125 -13.375 
Q 36.625 -13.375 41.015625 -8.765625 
Q 45.40625 -4.15625 45.40625 5.171875 
L 45.40625 9.625 
Q 42.625 4.78125 38.28125 2.390625 
Q 33.9375 0 27.875 0 
Q 17.828125 0 11.671875 7.65625 
Q 5.515625 15.328125 5.515625 27.984375 
Q 5.515625 40.671875 11.671875 48.328125 
Q 17.828125 56 27.875 56 
Q 33.9375 56 38.28125 53.609375 
Q 42.625 51.21875 45.40625 46.390625 
L 45.40625 54.6875 
L 54.390625 54.6875 
z
" id="DejaVuSans-103"/>
       <path d="M 12.40625 8.296875 
L 28.515625 8.296875 
L 28.515625 63.921875 
L 10.984375 60.40625 
L 10.984375 69.390625 
L 28.421875 72.90625 
L 38.28125 72.90625 
L 38.28125 8.296875 
L 54.390625 8.296875 
L 54.390625 0 
L 12.40625 0 
z
" id="DejaVuSans-49"/>
       <path d="M 31 75.875 
Q 24.46875 64.65625 21.28125 53.65625 
Q 18.109375 42.671875 18.109375 31.390625 
Q 18.109375 20.125 21.3125 9.0625 
Q 24.515625 -2 31 -13.1875 
L 23.1875 -13.1875 
Q 15.875 -1.703125 12.234375 9.375 
Q 8.59375 20.453125 8.59375 31.390625 
Q 8.59375 42.28125 12.203125 53.3125 
Q 15.828125 64.359375 23.1875 75.875 
z
" id="DejaVuSans-40"/>
       <path d="M 51.125 44 
L 36.921875 44 
L 32.8125 27.6875 
L 47.125 27.6875 
z
M 43.796875 71.78125 
L 38.71875 51.515625 
L 52.984375 51.515625 
L 58.109375 71.78125 
L 65.921875 71.78125 
L 60.890625 51.515625 
L 76.125 51.515625 
L 76.125 44 
L 58.984375 44 
L 54.984375 27.6875 
L 70.515625 27.6875 
L 70.515625 20.21875 
L 53.078125 20.21875 
L 48 0 
L 40.1875 0 
L 45.21875 20.21875 
L 30.90625 20.21875 
L 25.875 0 
L 18.015625 0 
L 23.09375 20.21875 
L 7.71875 20.21875 
L 7.71875 27.6875 
L 24.90625 27.6875 
L 29 44 
L 13.28125 44 
L 13.28125 51.515625 
L 30.90625 51.515625 
L 35.890625 71.78125 
z
" id="DejaVuSans-35"/>
       <path id="DejaVuSans-32"/>
       <path d="M 37.109375 75.984375 
L 37.109375 68.5 
L 28.515625 68.5 
Q 23.6875 68.5 21.796875 66.546875 
Q 19.921875 64.59375 19.921875 59.515625 
L 19.921875 54.6875 
L 34.71875 54.6875 
L 34.71875 47.703125 
L 19.921875 47.703125 
L 19.921875 0 
L 10.890625 0 
L 10.890625 47.703125 
L 2.296875 47.703125 
L 2.296875 54.6875 
L 10.890625 54.6875 
L 10.890625 58.5 
Q 10.890625 67.625 15.140625 71.796875 
Q 19.390625 75.984375 28.609375 75.984375 
z
" id="DejaVuSans-102"/>
       <path d="M 4.890625 31.390625 
L 31.203125 31.390625 
L 31.203125 23.390625 
L 4.890625 23.390625 
z
" id="DejaVuSans-45"/>
       <path d="M 56.203125 29.59375 
L 56.203125 25.203125 
L 14.890625 25.203125 
Q 15.484375 15.921875 20.484375 11.0625 
Q 25.484375 6.203125 34.421875 6.203125 
Q 39.59375 6.203125 44.453125 7.46875 
Q 49.3125 8.734375 54.109375 11.28125 
L 54.109375 2.78125 
Q 49.265625 0.734375 44.1875 -0.34375 
Q 39.109375 -1.421875 33.890625 -1.421875 
Q 20.796875 -1.421875 13.15625 6.1875 
Q 5.515625 13.8125 5.515625 26.8125 
Q 5.515625 40.234375 12.765625 48.109375 
Q 20.015625 56 32.328125 56 
Q 43.359375 56 49.78125 48.890625 
Q 56.203125 41.796875 56.203125 29.59375 
z
M 47.21875 32.234375 
Q 47.125 39.59375 43.09375 43.984375 
Q 39.0625 48.390625 32.421875 48.390625 
Q 24.90625 48.390625 20.390625 44.140625 
Q 15.875 39.890625 15.1875 32.171875 
z
" id="DejaVuSans-101"/>
       <path d="M 2.984375 54.6875 
L 12.5 54.6875 
L 29.59375 8.796875 
L 46.6875 54.6875 
L 56.203125 54.6875 
L 35.6875 0 
L 23.484375 0 
z
" id="DejaVuSans-118"/>
       <path d="M 34.28125 27.484375 
Q 23.390625 27.484375 19.1875 25 
Q 14.984375 22.515625 14.984375 16.5 
Q 14.984375 11.71875 18.140625 8.90625 
Q 21.296875 6.109375 26.703125 6.109375 
Q 34.1875 6.109375 38.703125 11.40625 
Q 43.21875 16.703125 43.21875 25.484375 
L 43.21875 27.484375 
z
M 52.203125 31.203125 
L 52.203125 0 
L 43.21875 0 
L 43.21875 8.296875 
Q 40.140625 3.328125 35.546875 0.953125 
Q 30.953125 -1.421875 24.3125 -1.421875 
Q 15.921875 -1.421875 10.953125 3.296875 
Q 6 8.015625 6 15.921875 
Q 6 25.140625 12.171875 29.828125 
Q 18.359375 34.515625 30.609375 34.515625 
L 43.21875 34.515625 
L 43.21875 35.40625 
Q 43.21875 41.609375 39.140625 45 
Q 35.0625 48.390625 27.6875 48.390625 
Q 23 48.390625 18.546875 47.265625 
Q 14.109375 46.140625 10.015625 43.890625 
L 10.015625 52.203125 
Q 14.9375 54.109375 19.578125 55.046875 
Q 24.21875 56 28.609375 56 
Q 40.484375 56 46.34375 49.84375 
Q 52.203125 43.703125 52.203125 31.203125 
z
" id="DejaVuSans-97"/>
       <path d="M 44.28125 53.078125 
L 44.28125 44.578125 
Q 40.484375 46.53125 36.375 47.5 
Q 32.28125 48.484375 27.875 48.484375 
Q 21.1875 48.484375 17.84375 46.4375 
Q 14.5 44.390625 14.5 40.28125 
Q 14.5 37.15625 16.890625 35.375 
Q 19.28125 33.59375 26.515625 31.984375 
L 29.59375 31.296875 
Q 39.15625 29.25 43.1875 25.515625 
Q 47.21875 21.78125 47.21875 15.09375 
Q 47.21875 7.46875 41.1875 3.015625 
Q 35.15625 -1.421875 24.609375 -1.421875 
Q 20.21875 -1.421875 15.453125 -0.5625 
Q 10.6875 0.296875 5.421875 2 
L 5.421875 11.28125 
Q 10.40625 8.6875 15.234375 7.390625 
Q 20.0625 6.109375 24.8125 6.109375 
Q 31.15625 6.109375 34.5625 8.28125 
Q 37.984375 10.453125 37.984375 14.40625 
Q 37.984375 18.0625 35.515625 20.015625 
Q 33.0625 21.96875 24.703125 23.78125 
L 21.578125 24.515625 
Q 13.234375 26.265625 9.515625 29.90625 
Q 5.8125 33.546875 5.8125 39.890625 
Q 5.8125 47.609375 11.28125 51.796875 
Q 16.75 56 26.8125 56 
Q 31.78125 56 36.171875 55.265625 
Q 40.578125 54.546875 44.28125 53.078125 
z
" id="DejaVuSans-115"/>
       <path d="M 25.390625 72.90625 
L 33.6875 72.90625 
L 8.296875 -9.28125 
L 0 -9.28125 
z
" id="DejaVuSans-47"/>
       <path d="M 45.40625 46.390625 
L 45.40625 75.984375 
L 54.390625 75.984375 
L 54.390625 0 
L 45.40625 0 
L 45.40625 8.203125 
Q 42.578125 3.328125 38.25 0.953125 
Q 33.9375 -1.421875 27.875 -1.421875 
Q 17.96875 -1.421875 11.734375 6.484375 
Q 5.515625 14.40625 5.515625 27.296875 
Q 5.515625 40.1875 11.734375 48.09375 
Q 17.96875 56 27.875 56 
Q 33.9375 56 38.25 53.625 
Q 42.578125 51.265625 45.40625 46.390625 
z
M 14.796875 27.296875 
Q 14.796875 17.390625 18.875 11.75 
Q 22.953125 6.109375 30.078125 6.109375 
Q 37.203125 6.109375 41.296875 11.75 
Q 45.40625 17.390625 45.40625 27.296875 
Q 45.40625 37.203125 41.296875 42.84375 
Q 37.203125 48.484375 30.078125 48.484375 
Q 22.953125 48.484375 18.875 42.84375 
Q 14.796875 37.203125 14.796875 27.296875 
z
" id="DejaVuSans-100"/>
       <path d="M 9.421875 54.6875 
L 18.40625 54.6875 
L 18.40625 0 
L 9.421875 0 
z
M 9.421875 75.984375 
L 18.40625 75.984375 
L 18.40625 64.59375 
L 9.421875 64.59375 
z
" id="DejaVuSans-105"/>
       <path d="M 52 44.1875 
Q 55.375 50.25 60.0625 53.125 
Q 64.75 56 71.09375 56 
Q 79.640625 56 84.28125 50.015625 
Q 88.921875 44.046875 88.921875 33.015625 
L 88.921875 0 
L 79.890625 0 
L 79.890625 32.71875 
Q 79.890625 40.578125 77.09375 44.375 
Q 74.3125 48.1875 68.609375 48.1875 
Q 61.625 48.1875 57.5625 43.546875 
Q 53.515625 38.921875 53.515625 30.90625 
L 53.515625 0 
L 44.484375 0 
L 44.484375 32.71875 
Q 44.484375 40.625 41.703125 44.40625 
Q 38.921875 48.1875 33.109375 48.1875 
Q 26.21875 48.1875 22.15625 43.53125 
Q 18.109375 38.875 18.109375 30.90625 
L 18.109375 0 
L 9.078125 0 
L 9.078125 54.6875 
L 18.109375 54.6875 
L 18.109375 46.1875 
Q 21.1875 51.21875 25.484375 53.609375 
Q 29.78125 56 35.6875 56 
Q 41.65625 56 45.828125 52.96875 
Q 50 49.953125 52 44.1875 
z
" id="DejaVuSans-109"/>
       <path d="M 54.890625 33.015625 
L 54.890625 0 
L 45.90625 0 
L 45.90625 32.71875 
Q 45.90625 40.484375 42.875 44.328125 
Q 39.84375 48.1875 33.796875 48.1875 
Q 26.515625 48.1875 22.3125 43.546875 
Q 18.109375 38.921875 18.109375 30.90625 
L 18.109375 0 
L 9.078125 0 
L 9.078125 54.6875 
L 18.109375 54.6875 
L 18.109375 46.1875 
Q 21.34375 51.125 25.703125 53.5625 
Q 30.078125 56 35.796875 56 
Q 45.21875 56 50.046875 50.171875 
Q 54.890625 44.34375 54.890625 33.015625 
z
" id="DejaVuSans-110"/>
       <path d="M 8.015625 75.875 
L 15.828125 75.875 
Q 23.140625 64.359375 26.78125 53.3125 
Q 30.421875 42.28125 30.421875 31.390625 
Q 30.421875 20.453125 26.78125 9.375 
Q 23.140625 -1.703125 15.828125 -13.1875 
L 8.015625 -13.1875 
Q 14.5 -2 17.703125 9.0625 
Q 20.90625 20.125 20.90625 31.390625 
Q 20.90625 42.671875 17.703125 53.65625 
Q 14.5 64.65625 8.015625 75.875 
z
" id="DejaVuSans-41"/>
      </defs>
      <use xlink:href="#DejaVuSans-108"/>
      <use x="27.783203" xlink:href="#DejaVuSans-111"/>
      <use x="88.964844" xlink:href="#DejaVuSans-103"/>
      <use x="152.441406" xlink:href="#DejaVuSans-49"/>
      <use x="216.064453" xlink:href="#DejaVuSans-48"/>
      <use x="279.6875" xlink:href="#DejaVuSans-40"/>
      <use x="318.701172" xlink:href="#DejaVuSans-35"/>
      <use x="402.490234" xlink:href="#DejaVuSans-32"/>
      <use x="434.277344" xlink:href="#DejaVuSans-102"/>
      <use x="463.982422" xlink:href="#DejaVuSans-45"/>
      <use x="500.066406" xlink:href="#DejaVuSans-101"/>
      <use x="561.589844" xlink:href="#DejaVuSans-118"/>
      <use x="620.769531" xlink:href="#DejaVuSans-97"/>
      <use x="682.048828" xlink:href="#DejaVuSans-108"/>
      <use x="709.832031" xlink:href="#DejaVuSans-115"/>
      <use x="761.931641" xlink:href="#DejaVuSans-32"/>
      <use x="793.71875" xlink:href="#DejaVuSans-47"/>
      <use x="827.410156" xlink:href="#DejaVuSans-32"/>
      <use x="859.197266" xlink:href="#DejaVuSans-100"/>
      <use x="922.673828" xlink:href="#DejaVuSans-105"/>
      <use x="950.457031" xlink:href="#DejaVuSans-109"/>
      <use x="1047.869141" xlink:href="#DejaVuSans-101"/>
      <use x="1109.392578" xlink:href="#DejaVuSans-110"/>
      <use x="1172.771484" xlink:href="#DejaVuSans-115"/>
      <use x="1224.871094" xlink:href="#DejaVuSans-105"/>
      <use x="1252.654297" xlink:href="#DejaVuSans-111"/>
      <use x="1313.835938" xlink:href="#DejaVuSans-110"/>
      <use x="1377.214844" xlink:href="#DejaVuSans-41"/>
     </g>
    </g>
   </g>
   <g id="matplotlib.axis_2">
    <g id="ytick_1">
     <g id="line2d_21">
      <path clip-path="url(#p0e865a97b4)" d="M 57.6 298.944 
L 338.688 298.944 
" style="fill:none;stroke:#b0b0b0;stroke-linecap:square;stroke-width:0.8;"/>
     </g>
     <g id="line2d_22">
      <defs>
       <path d="M 0 0 
L -3.5 0 
" id="m0c629c8a6e" style="stroke:#000000;stroke-width:0.8;"/>
      </defs>
      <g>
       <use style="stroke:#000000;stroke-width:0.8;" x="57.6" xlink:href="#m0c629c8a6e" y="298.944"/>
      </g>
     </g>
     <g id="text_6">
      <!-- 0.0 -->
      <g transform="translate(25.155 305.02275)scale(0.16 -0.16)">
       <defs>
        <path d="M 10.6875 12.40625 
L 21 12.40625 
L 21 0 
L 10.6875 0 
z
" id="DejaVuSans-46"/>
       </defs>
       <use xlink:href="#DejaVuSans-48"/>
       <use x="63.623047" xlink:href="#DejaVuSans-46"/>
       <use x="95.410156" xlink:href="#DejaVuSans-48"/>
      </g>
     </g>
    </g>
    <g id="ytick_2">
     <g id="line2d_23">
      <path clip-path="url(#p0e865a97b4)" d="M 57.6 245.22202 
L 338.688 245.22202 
" style="fill:none;stroke:#b0b0b0;stroke-linecap:square;stroke-width:0.8;"/>
     </g>
     <g id="line2d_24">
      <g>
       <use style="stroke:#000000;stroke-width:0.8;" x="57.6" xlink:href="#m0c629c8a6e" y="245.22202"/>
      </g>
     </g>
     <g id="text_7">
      <!-- 0.2 -->
      <g transform="translate(25.155 251.30077)scale(0.16 -0.16)">
       <use xlink:href="#DejaVuSans-48"/>
       <use x="63.623047" xlink:href="#DejaVuSans-46"/>
       <use x="95.410156" xlink:href="#DejaVuSans-50"/>
      </g>
     </g>
    </g>
    <g id="ytick_3">
     <g id="line2d_25">
      <path clip-path="url(#p0e865a97b4)" d="M 57.6 191.50004 
L 338.688 191.50004 
" style="fill:none;stroke:#b0b0b0;stroke-linecap:square;stroke-width:0.8;"/>
     </g>
     <g id="line2d_26">
      <g>
       <use style="stroke:#000000;stroke-width:0.8;" x="57.6" xlink:href="#m0c629c8a6e" y="191.50004"/>
      </g>
     </g>
     <g id="text_8">
      <!-- 0.4 -->
      <g transform="translate(25.155 197.57879)scale(0.16 -0.16)">
       <use xlink:href="#DejaVuSans-48"/>
       <use x="63.623047" xlink:href="#DejaVuSans-46"/>
       <use x="95.410156" xlink:href="#DejaVuSans-52"/>
      </g>
     </g>
    </g>
    <g id="ytick_4">
     <g id="line2d_27">
      <path clip-path="url(#p0e865a97b4)" d="M 57.6 137.778059 
L 338.688 137.778059 
" style="fill:none;stroke:#b0b0b0;stroke-linecap:square;stroke-width:0.8;"/>
     </g>
     <g id="line2d_28">
      <g>
       <use style="stroke:#000000;stroke-width:0.8;" x="57.6" xlink:href="#m0c629c8a6e" y="137.778059"/>
      </g>
     </g>
     <g id="text_9">
      <!-- 0.6 -->
      <g transform="translate(25.155 143.856809)scale(0.16 -0.16)">
       <use xlink:href="#DejaVuSans-48"/>
       <use x="63.623047" xlink:href="#DejaVuSans-46"/>
       <use x="95.410156" xlink:href="#DejaVuSans-54"/>
      </g>
     </g>
    </g>
    <g id="ytick_5">
     <g id="line2d_29">
      <path clip-path="url(#p0e865a97b4)" d="M 57.6 84.056079 
L 338.688 84.056079 
" style="fill:none;stroke:#b0b0b0;stroke-linecap:square;stroke-width:0.8;"/>
     </g>
     <g id="line2d_30">
      <g>
       <use style="stroke:#000000;stroke-width:0.8;" x="57.6" xlink:href="#m0c629c8a6e" y="84.056079"/>
      </g>
     </g>
     <g id="text_10">
      <!-- 0.8 -->
      <g transform="translate(25.155 90.134829)scale(0.16 -0.16)">
       <defs>
        <path d="M 31.78125 34.625 
Q 24.75 34.625 20.71875 30.859375 
Q 16.703125 27.09375 16.703125 20.515625 
Q 16.703125 13.921875 20.71875 10.15625 
Q 24.75 6.390625 31.78125 6.390625 
Q 38.8125 6.390625 42.859375 10.171875 
Q 46.921875 13.96875 46.921875 20.515625 
Q 46.921875 27.09375 42.890625 30.859375 
Q 38.875 34.625 31.78125 34.625 
z
M 21.921875 38.8125 
Q 15.578125 40.375 12.03125 44.71875 
Q 8.5 49.078125 8.5 55.328125 
Q 8.5 64.0625 14.71875 69.140625 
Q 20.953125 74.21875 31.78125 74.21875 
Q 42.671875 74.21875 48.875 69.140625 
Q 55.078125 64.0625 55.078125 55.328125 
Q 55.078125 49.078125 51.53125 44.71875 
Q 48 40.375 41.703125 38.8125 
Q 48.828125 37.15625 52.796875 32.3125 
Q 56.78125 27.484375 56.78125 20.515625 
Q 56.78125 9.90625 50.3125 4.234375 
Q 43.84375 -1.421875 31.78125 -1.421875 
Q 19.734375 -1.421875 13.25 4.234375 
Q 6.78125 9.90625 6.78125 20.515625 
Q 6.78125 27.484375 10.78125 32.3125 
Q 14.796875 37.15625 21.921875 38.8125 
z
M 18.3125 54.390625 
Q 18.3125 48.734375 21.84375 45.5625 
Q 25.390625 42.390625 31.78125 42.390625 
Q 38.140625 42.390625 41.71875 45.5625 
Q 45.3125 48.734375 45.3125 54.390625 
Q 45.3125 60.0625 41.71875 63.234375 
Q 38.140625 66.40625 31.78125 66.40625 
Q 25.390625 66.40625 21.84375 63.234375 
Q 18.3125 60.0625 18.3125 54.390625 
z
" id="DejaVuSans-56"/>
       </defs>
       <use xlink:href="#DejaVuSans-48"/>
       <use x="63.623047" xlink:href="#DejaVuSans-46"/>
       <use x="95.410156" xlink:href="#DejaVuSans-56"/>
      </g>
     </g>
    </g>
    <g id="ytick_6">
     <g id="line2d_31">
      <path clip-path="url(#p0e865a97b4)" d="M 57.6 30.334099 
L 338.688 30.334099 
" style="fill:none;stroke:#b0b0b0;stroke-linecap:square;stroke-width:0.8;"/>
     </g>
     <g id="line2d_32">
      <g>
       <use style="stroke:#000000;stroke-width:0.8;" x="57.6" xlink:href="#m0c629c8a6e" y="30.334099"/>
      </g>
     </g>
     <g id="text_11">
      <!-- 1.0 -->
      <g transform="translate(25.155 36.412849)scale(0.16 -0.16)">
       <use xlink:href="#DejaVuSans-49"/>
       <use x="63.623047" xlink:href="#DejaVuSans-46"/>
       <use x="95.410156" xlink:href="#DejaVuSans-48"/>
      </g>
     </g>
    </g>
    <g id="text_12">
     <!-- Fraction of function,target pairs -->
     <g transform="translate(17.619531 297.681)rotate(-90)scale(0.17 -0.17)">
      <defs>
       <path d="M 9.8125 72.90625 
L 51.703125 72.90625 
L 51.703125 64.59375 
L 19.671875 64.59375 
L 19.671875 43.109375 
L 48.578125 43.109375 
L 48.578125 34.8125 
L 19.671875 34.8125 
L 19.671875 0 
L 9.8125 0 
z
" id="DejaVuSans-70"/>
       <path d="M 41.109375 46.296875 
Q 39.59375 47.171875 37.8125 47.578125 
Q 36.03125 48 33.890625 48 
Q 26.265625 48 22.1875 43.046875 
Q 18.109375 38.09375 18.109375 28.8125 
L 18.109375 0 
L 9.078125 0 
L 9.078125 54.6875 
L 18.109375 54.6875 
L 18.109375 46.1875 
Q 20.953125 51.171875 25.484375 53.578125 
Q 30.03125 56 36.53125 56 
Q 37.453125 56 38.578125 55.875 
Q 39.703125 55.765625 41.0625 55.515625 
z
" id="DejaVuSans-114"/>
       <path d="M 48.78125 52.59375 
L 48.78125 44.1875 
Q 44.96875 46.296875 41.140625 47.34375 
Q 37.3125 48.390625 33.40625 48.390625 
Q 24.65625 48.390625 19.8125 42.84375 
Q 14.984375 37.3125 14.984375 27.296875 
Q 14.984375 17.28125 19.8125 11.734375 
Q 24.65625 6.203125 33.40625 6.203125 
Q 37.3125 6.203125 41.140625 7.25 
Q 44.96875 8.296875 48.78125 10.40625 
L 48.78125 2.09375 
Q 45.015625 0.34375 40.984375 -0.53125 
Q 36.96875 -1.421875 32.421875 -1.421875 
Q 20.0625 -1.421875 12.78125 6.34375 
Q 5.515625 14.109375 5.515625 27.296875 
Q 5.515625 40.671875 12.859375 48.328125 
Q 20.21875 56 33.015625 56 
Q 37.15625 56 41.109375 55.140625 
Q 45.0625 54.296875 48.78125 52.59375 
z
" id="DejaVuSans-99"/>
       <path d="M 18.3125 70.21875 
L 18.3125 54.6875 
L 36.8125 54.6875 
L 36.8125 47.703125 
L 18.3125 47.703125 
L 18.3125 18.015625 
Q 18.3125 11.328125 20.140625 9.421875 
Q 21.96875 7.515625 27.59375 7.515625 
L 36.8125 7.515625 
L 36.8125 0 
L 27.59375 0 
Q 17.1875 0 13.234375 3.875 
Q 9.28125 7.765625 9.28125 18.015625 
L 9.28125 47.703125 
L 2.6875 47.703125 
L 2.6875 54.6875 
L 9.28125 54.6875 
L 9.28125 70.21875 
z
" id="DejaVuSans-116"/>
       <path d="M 8.5 21.578125 
L 8.5 54.6875 
L 17.484375 54.6875 
L 17.484375 21.921875 
Q 17.484375 14.15625 20.5 10.265625 
Q 23.53125 6.390625 29.59375 6.390625 
Q 36.859375 6.390625 41.078125 11.03125 
Q 45.3125 15.671875 45.3125 23.6875 
L 45.3125 54.6875 
L 54.296875 54.6875 
L 54.296875 0 
L 45.3125 0 
L 45.3125 8.40625 
Q 42.046875 3.421875 37.71875 1 
Q 33.40625 -1.421875 27.6875 -1.421875 
Q 18.265625 -1.421875 13.375 4.4375 
Q 8.5 10.296875 8.5 21.578125 
z
M 31.109375 56 
z
" id="DejaVuSans-117"/>
       <path d="M 11.71875 12.40625 
L 22.015625 12.40625 
L 22.015625 4 
L 14.015625 -11.625 
L 7.71875 -11.625 
L 11.71875 4 
z
" id="DejaVuSans-44"/>
       <path d="M 18.109375 8.203125 
L 18.109375 -20.796875 
L 9.078125 -20.796875 
L 9.078125 54.6875 
L 18.109375 54.6875 
L 18.109375 46.390625 
Q 20.953125 51.265625 25.265625 53.625 
Q 29.59375 56 35.59375 56 
Q 45.5625 56 51.78125 48.09375 
Q 58.015625 40.1875 58.015625 27.296875 
Q 58.015625 14.40625 51.78125 6.484375 
Q 45.5625 -1.421875 35.59375 -1.421875 
Q 29.59375 -1.421875 25.265625 0.953125 
Q 20.953125 3.328125 18.109375 8.203125 
z
M 48.6875 27.296875 
Q 48.6875 37.203125 44.609375 42.84375 
Q 40.53125 48.484375 33.40625 48.484375 
Q 26.265625 48.484375 22.1875 42.84375 
Q 18.109375 37.203125 18.109375 27.296875 
Q 18.109375 17.390625 22.1875 11.75 
Q 26.265625 6.109375 33.40625 6.109375 
Q 40.53125 6.109375 44.609375 11.75 
Q 48.6875 17.390625 48.6875 27.296875 
z
" id="DejaVuSans-112"/>
      </defs>
      <use xlink:href="#DejaVuSans-70"/>
      <use x="50.269531" xlink:href="#DejaVuSans-114"/>
      <use x="91.382812" xlink:href="#DejaVuSans-97"/>
      <use x="152.662109" xlink:href="#DejaVuSans-99"/>
      <use x="207.642578" xlink:href="#DejaVuSans-116"/>
      <use x="246.851562" xlink:href="#DejaVuSans-105"/>
      <use x="274.634766" xlink:href="#DejaVuSans-111"/>
      <use x="335.816406" xlink:href="#DejaVuSans-110"/>
      <use x="399.195312" xlink:href="#DejaVuSans-32"/>
      <use x="430.982422" xlink:href="#DejaVuSans-111"/>
      <use x="492.164062" xlink:href="#DejaVuSans-102"/>
      <use x="527.369141" xlink:href="#DejaVuSans-32"/>
      <use x="559.15625" xlink:href="#DejaVuSans-102"/>
      <use x="594.361328" xlink:href="#DejaVuSans-117"/>
      <use x="657.740234" xlink:href="#DejaVuSans-110"/>
      <use x="721.119141" xlink:href="#DejaVuSans-99"/>
      <use x="776.099609" xlink:href="#DejaVuSans-116"/>
      <use x="815.308594" xlink:href="#DejaVuSans-105"/>
      <use x="843.091797" xlink:href="#DejaVuSans-111"/>
      <use x="904.273438" xlink:href="#DejaVuSans-110"/>
      <use x="967.652344" xlink:href="#DejaVuSans-44"/>
      <use x="999.439453" xlink:href="#DejaVuSans-116"/>
      <use x="1038.648438" xlink:href="#DejaVuSans-97"/>
      <use x="1099.927734" xlink:href="#DejaVuSans-114"/>
      <use x="1139.291016" xlink:href="#DejaVuSans-103"/>
      <use x="1202.767578" xlink:href="#DejaVuSans-101"/>
      <use x="1264.291016" xlink:href="#DejaVuSans-116"/>
      <use x="1303.5" xlink:href="#DejaVuSans-32"/>
      <use x="1335.287109" xlink:href="#DejaVuSans-112"/>
      <use x="1398.763672" xlink:href="#DejaVuSans-97"/>
      <use x="1460.042969" xlink:href="#DejaVuSans-105"/>
      <use x="1487.826172" xlink:href="#DejaVuSans-114"/>
      <use x="1528.939453" xlink:href="#DejaVuSans-115"/>
     </g>
    </g>
   </g>
   <g id="line2d_33">
    <defs>
     <path d="M 0 1.5 
C 0.397805 1.5 0.77937 1.341951 1.06066 1.06066 
C 1.341951 0.77937 1.5 0.397805 1.5 0 
C 1.5 -0.397805 1.341951 -0.77937 1.06066 -1.06066 
C 0.77937 -1.341951 0.397805 -1.5 0 -1.5 
C -0.397805 -1.5 -0.77937 -1.341951 -1.06066 -1.06066 
C -1.341951 -0.77937 -1.5 -0.397805 -1.5 0 
C -1.5 0.397805 -1.341951 0.77937 -1.06066 1.06066 
C -0.77937 1.341951 -0.397805 1.5 0 1.5 
z
" id="m132d200962" style="stroke:#f5deb3;"/>
    </defs>
    <g>
     <use style="fill:#f5deb3;stroke:#f5deb3;" x="244.203509" xlink:href="#m132d200962" y="62.752535"/>
     <use style="fill:#f5deb3;stroke:#f5deb3;" x="244.203509" xlink:href="#m132d200962" y="62.752535"/>
    </g>
   </g>
   <g id="line2d_34">
    <defs>
     <path d="M 0 1.5 
C 0.397805 1.5 0.77937 1.341951 1.06066 1.06066 
C 1.341951 0.77937 1.5 0.397805 1.5 0 
C 1.5 -0.397805 1.341951 -0.77937 1.06066 -1.06066 
C 0.77937 -1.341951 0.397805 -1.5 0 -1.5 
C -0.397805 -1.5 -0.77937 -1.341951 -1.06066 -1.06066 
C -1.341951 -0.77937 -1.5 -0.397805 -1.5 0 
C -1.5 0.397805 -1.341951 0.77937 -1.06066 1.06066 
C -0.77937 1.341951 -0.397805 1.5 0 1.5 
z
" id="mc7237e4bee" style="stroke:#000080;"/>
    </defs>
    <g>
     <use style="fill:#000080;stroke:#000080;" x="258.165458" xlink:href="#mc7237e4bee" y="84.5192"/>
     <use style="fill:#000080;stroke:#000080;" x="258.165458" xlink:href="#mc7237e4bee" y="84.5192"/>
    </g>
   </g>
   <g id="line2d_35">
    <path d="M 45.512012 298.944 
L 45.512012 286.439746 
L 73.579452 286.439746 
L 73.579452 285.050384 
L 79.447285 285.050384 
L 79.447285 284.587264 
L 83.830028 284.587264 
L 83.830028 282.734782 
L 85.66744 282.734782 
L 85.66744 280.419179 
L 87.329581 280.419179 
L 87.329581 279.956059 
L 88.846997 279.956059 
L 88.846997 275.324854 
L 90.242884 275.324854 
L 90.242884 272.08301 
L 93.863965 272.08301 
L 93.863965 271.619889 
L 96.86091 271.619889 
L 96.86091 268.841166 
L 99.41757 268.841166 
L 99.41757 268.378046 
L 100.192776 268.378046 
L 100.192776 266.525564 
L 102.330873 266.525564 
L 102.330873 266.062443 
L 105.398279 266.062443 
L 105.398279 265.599323 
L 105.951954 265.599323 
L 105.951954 263.746841 
L 108.006005 263.746841 
L 108.006005 263.28372 
L 108.483824 263.28372 
L 108.483824 261.431238 
L 110.274038 261.431238 
L 110.274038 260.504997 
L 113.382559 260.504997 
L 113.382559 260.041876 
L 114.751048 260.041876 
L 114.751048 259.115635 
L 115.077025 259.115635 
L 115.077025 257.726274 
L 116.019919 257.726274 
L 116.019919 257.263153 
L 117.486268 257.263153 
L 117.486268 256.800033 
L 118.838828 256.800033 
L 118.838828 256.336912 
L 121.036887 256.336912 
L 121.036887 255.873792 
L 122.573415 255.873792 
L 122.573415 254.48443 
L 122.988655 254.48443 
L 122.988655 254.02131 
L 124.92835 254.02131 
L 124.92835 252.631948 
L 125.996395 252.631948 
L 125.996395 252.168828 
L 129.147151 252.168828 
L 129.147151 251.705707 
L 130.263646 251.705707 
L 130.263646 250.779466 
L 130.796184 250.779466 
L 130.796184 250.316346 
L 133.689303 250.316346 
L 133.689303 249.853225 
L 135.280614 249.853225 
L 135.381712 248.000743 
L 136.361705 248.000743 
L 136.361705 247.537622 
L 136.924311 247.537622 
L 136.924311 247.074502 
L 137.107884 247.074502 
L 137.107884 245.68514 
L 137.469333 245.68514 
L 137.469333 243.369538 
L 138.426341 243.369538 
L 138.426341 242.906417 
L 138.927025 242.906417 
L 138.927025 240.590815 
L 140.195896 240.590815 
L 140.195896 240.127694 
L 140.723258 240.127694 
L 140.723258 239.201453 
L 141.521035 239.201453 
L 141.521035 238.738333 
L 143.144465 238.738333 
L 143.144465 237.812091 
L 145.097753 237.812091 
L 145.097753 234.570248 
L 147.670154 234.570248 
L 147.769524 230.402163 
L 149.286939 230.402163 
L 149.286939 229.012802 
L 149.422654 229.012802 
L 149.422654 227.16032 
L 149.646525 227.16032 
L 149.646525 226.697199 
L 150.640855 226.697199 
L 150.640855 226.234079 
L 151.660987 226.234079 
L 151.660987 225.307837 
L 152.848312 225.307837 
L 152.848312 224.381596 
L 153.573542 224.381596 
L 153.573542 223.455355 
L 153.925152 223.455355 
L 153.925152 222.992235 
L 155.678822 222.992235 
L 155.678822 222.065994 
L 155.804285 222.065994 
L 155.804285 221.602873 
L 156.144725 221.602873 
L 156.144725 221.139753 
L 157.069866 221.139753 
L 157.069866 220.213512 
L 158.438903 220.213512 
L 158.438903 219.750391 
L 158.572743 219.750391 
L 158.572743 217.897909 
L 161.667653 217.897909 
L 161.734513 216.045427 
L 163.709295 216.045427 
L 163.709295 215.582307 
L 164.024234 215.582307 
L 164.043731 214.192945 
L 164.35274 214.192945 
L 164.35274 213.729825 
L 165.925901 213.729825 
L 165.925901 211.877342 
L 166.845764 211.877342 
L 166.845764 211.414222 
L 167.672117 211.414222 
L 167.672117 210.951101 
L 168.671556 210.951101 
L 168.671556 210.487981 
L 169.403177 210.487981 
L 169.460402 208.635499 
L 170.859585 208.635499 
L 170.859585 207.709258 
L 172.142557 207.709258 
L 172.142557 206.783017 
L 172.42198 206.783017 
L 172.42198 206.319896 
L 173.933369 206.319896 
L 173.933369 205.856776 
L 174.12024 205.856776 
L 174.12024 205.393655 
L 174.984116 205.393655 
L 174.984116 204.467414 
L 175.486665 204.467414 
L 175.516968 203.541173 
L 176.545699 203.541173 
L 176.545699 202.614932 
L 177.171768 202.614932 
L 177.171768 201.688691 
L 178.556354 201.688691 
L 178.556354 201.225571 
L 178.89222 201.225571 
L 178.89222 199.836209 
L 179.286902 199.836209 
L 179.286902 199.373088 
L 180.381893 199.373088 
L 180.381893 198.909968 
L 180.639584 198.909968 
L 180.639584 197.983727 
L 181.055886 197.983727 
L 181.055886 197.057486 
L 181.873839 197.057486 
L 181.873839 196.594365 
L 182.268864 196.594365 
L 182.268864 196.131245 
L 182.452904 196.131245 
L 182.452904 195.205004 
L 182.828533 195.205004 
L 182.828533 194.741883 
L 183.467024 194.741883 
L 183.467024 193.815642 
L 183.68319 193.815642 
L 183.68319 193.352522 
L 184.261135 193.352522 
L 184.261135 192.889401 
L 184.701742 192.889401 
L 184.755301 191.96316 
L 184.914997 191.96316 
L 184.914997 191.50004 
L 185.090739 191.50004 
L 185.090739 191.036919 
L 186.115043 191.036919 
L 186.164438 190.110678 
L 186.677475 190.110678 
L 186.677475 189.647558 
L 187.401936 189.647558 
L 187.493588 188.721316 
L 187.539233 188.721316 
L 187.539233 188.258196 
L 188.690678 188.258196 
L 188.690678 187.331955 
L 189.939324 187.331955 
L 190.027379 185.479473 
L 190.07124 185.479473 
L 190.14119 184.090111 
L 191.162214 184.090111 
L 191.162214 183.626991 
L 192.780157 183.626991 
L 192.780157 182.237629 
L 193.478556 182.237629 
L 193.478556 181.311388 
L 193.639949 181.311388 
L 193.700533 179.922027 
L 194.233072 179.922027 
L 194.233072 179.458906 
L 194.638932 179.458906 
L 194.638932 178.532665 
L 195.193028 178.532665 
L 195.193028 177.606424 
L 195.758537 177.606424 
L 195.802743 176.680183 
L 197.005929 176.680183 
L 197.06763 174.827701 
L 197.132036 174.827701 
L 197.178727 173.90146 
L 197.320947 173.90146 
L 197.320947 173.438339 
L 197.570638 173.438339 
L 197.570638 172.512098 
L 198.037362 172.512098 
L 198.037362 172.048978 
L 198.194785 172.048978 
L 198.194785 171.585857 
L 198.527024 171.585857 
L 198.527024 171.122737 
L 198.998061 171.122737 
L 198.998061 170.196496 
L 199.225006 170.196496 
L 199.225006 169.270255 
L 200.143739 169.270255 
L 200.143739 168.807134 
L 200.537562 168.807134 
L 200.537562 168.344014 
L 200.690728 168.344014 
L 200.702637 166.491532 
L 201.002447 166.491532 
L 201.002447 166.028411 
L 201.459821 166.028411 
L 201.459821 165.565291 
L 201.963193 165.565291 
L 201.963193 165.10217 
L 202.322733 165.10217 
L 202.433047 164.175929 
L 202.568361 164.175929 
L 202.568361 163.712808 
L 202.844305 163.712808 
L 202.844305 162.786567 
L 203.311818 162.786567 
L 203.311818 162.323447 
L 203.74714 162.323447 
L 203.74714 161.860326 
L 204.056334 161.860326 
L 204.056334 161.397206 
L 204.319551 161.397206 
L 204.319551 160.934085 
L 204.441039 160.934085 
L 204.441039 160.007844 
L 204.931785 160.007844 
L 204.959788 158.155362 
L 205.39091 158.155362 
L 205.39091 157.692242 
L 205.634871 157.692242 
L 205.733292 156.30288 
L 205.886082 156.30288 
L 205.886082 155.376639 
L 206.250179 155.376639 
L 206.250179 154.913519 
L 206.455117 154.913519 
L 206.455117 154.450398 
L 206.576253 154.450398 
L 206.583052 153.524157 
L 206.941355 153.524157 
L 206.941355 152.597916 
L 207.181125 152.597916 
L 207.181125 151.671675 
L 207.328306 151.671675 
L 207.435456 150.745434 
L 207.454867 150.745434 
L 207.454867 150.282313 
L 207.583725 150.282313 
L 207.614189 149.356072 
L 208.470699 149.356072 
L 208.539199 148.429831 
L 208.59532 148.429831 
L 208.59532 147.966711 
L 209.121857 147.966711 
L 209.121857 147.50359 
L 209.233169 147.50359 
L 209.233169 147.04047 
L 209.518436 147.04047 
L 209.518436 146.577349 
L 209.75666 146.577349 
L 209.806177 145.651108 
L 209.990275 145.651108 
L 209.990275 145.187988 
L 210.778788 145.187988 
L 210.778788 144.724867 
L 211.489625 144.724867 
L 211.584293 143.335506 
L 211.807405 143.335506 
L 211.896609 141.946144 
L 212.255069 141.946144 
L 212.268568 140.556783 
L 212.777525 140.556783 
L 212.808475 139.167421 
L 213.097455 139.167421 
L 213.097455 138.24118 
L 213.384027 138.24118 
L 213.384027 137.778059 
L 213.538687 137.778059 
L 213.633099 136.851818 
L 213.650106 136.851818 
L 213.65124 135.925577 
L 213.934501 135.925577 
L 213.934501 134.999336 
L 214.092112 134.999336 
L 214.120817 133.609975 
L 214.425904 133.609975 
L 214.525348 132.220613 
L 214.824558 132.220613 
L 214.824558 131.757493 
L 215.289773 131.757493 
L 215.391604 129.905011 
L 215.73385 129.905011 
L 215.76299 128.052529 
L 216.870603 128.052529 
L 216.890378 127.126287 
L 217.01043 127.126287 
L 217.050575 126.200046 
L 217.739003 126.200046 
L 217.739003 125.273805 
L 217.890735 125.273805 
L 217.932452 123.884444 
L 218.012942 123.884444 
L 218.012942 123.421323 
L 218.42026 123.421323 
L 218.459871 121.568841 
L 219.000181 121.568841 
L 219.046817 119.716359 
L 219.398372 119.716359 
L 219.398372 118.790118 
L 219.620284 118.790118 
L 219.620284 118.326998 
L 219.90287 118.326998 
L 220.004718 116.474516 
L 220.081695 116.474516 
L 220.081695 116.011395 
L 220.805542 116.011395 
L 220.867837 115.085154 
L 221.055622 115.085154 
L 221.157607 114.158913 
L 221.237007 114.158913 
L 221.237007 113.695792 
L 221.772953 113.695792 
L 221.772953 112.769551 
L 222.420866 112.769551 
L 222.420866 112.306431 
L 222.89081 112.306431 
L 222.979316 110.917069 
L 223.391261 110.917069 
L 223.391261 110.453949 
L 223.613494 110.453949 
L 223.613494 109.527708 
L 224.078957 109.527708 
L 224.078957 109.064587 
L 224.325861 109.064587 
L 224.325861 108.601467 
L 224.438555 108.601467 
L 224.438555 107.675226 
L 224.551132 107.675226 
L 224.624372 106.748985 
L 225.351348 106.748985 
L 225.351348 106.285864 
L 225.735828 106.285864 
L 225.735828 105.822744 
L 225.95882 105.822744 
L 225.95882 105.359623 
L 226.390424 105.359623 
L 226.390424 104.433382 
L 226.891875 104.433382 
L 226.958574 102.5809 
L 227.122645 102.5809 
L 227.210877 100.728418 
L 227.328691 100.728418 
L 227.328691 100.265297 
L 227.787613 100.265297 
L 227.787613 99.339056 
L 228.497463 99.339056 
L 228.514385 98.412815 
L 229.745224 98.412815 
L 229.745224 97.949695 
L 229.882928 97.949695 
L 229.882928 97.023454 
L 230.257306 97.023454 
L 230.257306 96.560333 
L 230.776017 96.560333 
L 230.776017 96.097213 
L 231.222327 96.097213 
L 231.222327 95.634092 
L 232.725807 95.634092 
L 232.828748 94.244731 
L 233.56322 94.244731 
L 233.56322 93.31849 
L 234.020257 93.31849 
L 234.020257 92.392249 
L 235.561387 92.392249 
L 235.561387 91.929128 
L 236.758507 91.929128 
L 236.758507 91.466008 
L 237.897618 91.466008 
L 237.897618 91.002887 
L 238.268366 91.002887 
L 238.268366 90.076646 
L 243.052303 90.076646 
L 243.052303 89.150405 
L 244.719406 89.150405 
L 244.719406 88.687284 
L 245.795323 88.687284 
L 245.859074 87.297923 
L 246.176833 87.297923 
L 246.176833 86.834802 
L 252.750304 86.834802 
L 252.750304 86.371682 
L 253.288993 86.371682 
L 253.288993 85.908561 
L 255.256848 85.908561 
L 255.256848 84.98232 
L 258.165458 84.98232 
L 258.165458 84.5192 
L 338.688 84.5192 
L 338.688 84.5192 
" style="fill:none;stroke:#000080;stroke-linecap:square;stroke-width:1.5;"/>
   </g>
   <g id="line2d_36">
    <defs>
     <path d="M 0 6 
C 1.591219 6 3.117479 5.367802 4.242641 4.242641 
C 5.367802 3.117479 6 1.591219 6 0 
C 6 -1.591219 5.367802 -3.117479 4.242641 -4.242641 
C 3.117479 -5.367802 1.591219 -6 0 -6 
C -1.591219 -6 -3.117479 -5.367802 -4.242641 -4.242641 
C -5.367802 -3.117479 -6 -1.591219 -6 0 
C -6 1.591219 -5.367802 3.117479 -4.242641 4.242641 
C -3.117479 5.367802 -1.591219 6 0 6 
z
" id="mf5b22f52c0" style="stroke:#000080;stroke-width:1.5;"/>
    </defs>
    <g>
     <use style="fill-opacity:0;stroke:#000080;stroke-width:1.5;" x="100.192776" xlink:href="#mf5b22f52c0" y="266.525564"/>
     <use style="fill-opacity:0;stroke:#000080;stroke-width:1.5;" x="168.671556" xlink:href="#mf5b22f52c0" y="210.487981"/>
     <use style="fill-opacity:0;stroke:#000080;stroke-width:1.5;" x="224.325861" xlink:href="#mf5b22f52c0" y="108.601467"/>
     <use style="fill-opacity:0;stroke:#000080;stroke-width:1.5;" x="258.165458" xlink:href="#mf5b22f52c0" y="84.98232"/>
     <use style="fill-opacity:0;stroke:#000080;stroke-width:1.5;" x="258.165458" xlink:href="#mf5b22f52c0" y="84.5192"/>
     <use style="fill-opacity:0;stroke:#000080;stroke-width:1.5;" x="338.688" xlink:href="#mf5b22f52c0" y="84.5192"/>
    </g>
   </g>
   <g id="line2d_37">
    <path style="fill:none;stroke:#000080;stroke-linecap:square;stroke-width:1.5;"/>
    <g/>
   </g>
   <g id="line2d_38">
    <path clip-path="url(#p0e865a97b4)" d="M 258.377579 84.5192 
" style="fill:none;stroke:#000080;stroke-linecap:square;stroke-width:1.5;"/>
    <defs>
     <path d="M -12 12 
L 12 -12 
M -12 -12 
L 12 12 
" id="medc54f6b37" style="stroke:#000080;"/>
    </defs>
    <g clip-path="url(#p0e865a97b4)">
     <use style="fill:#000080;stroke:#000080;" x="258.377579" xlink:href="#medc54f6b37" y="84.5192"/>
    </g>
   </g>
   <g id="line2d_39">
    <defs>
     <path d="M 0 1.5 
C 0.397805 1.5 0.77937 1.341951 1.06066 1.06066 
C 1.341951 0.77937 1.5 0.397805 1.5 0 
C 1.5 -0.397805 1.341951 -0.77937 1.06066 -1.06066 
C 0.77937 -1.341951 0.397805 -1.5 0 -1.5 
C -0.397805 -1.5 -0.77937 -1.341951 -1.06066 -1.06066 
C -1.341951 -0.77937 -1.5 -0.397805 -1.5 0 
C -1.5 0.397805 -1.341951 0.77937 -1.06066 1.06066 
C -0.77937 1.341951 -0.397805 1.5 0 1.5 
z
" id="mf821e651fc" style="stroke:#ff00ff;"/>
    </defs>
    <g>
     <use style="fill:#ff00ff;stroke:#ff00ff;" x="252.8056" xlink:href="#mf821e651fc" y="104.896503"/>
     <use style="fill:#ff00ff;stroke:#ff00ff;" x="252.8056" xlink:href="#mf821e651fc" y="104.896503"/>
    </g>
   </g>
   <g id="line2d_40">
    <path d="M 45.512012 298.944 
L 45.512012 296.165277 
L 85.66744 296.165277 
L 85.66744 295.239036 
L 93.863965 295.239036 
L 93.863965 292.923433 
L 98.606294 292.923433 
L 98.606294 291.070951 
L 99.41757 291.070951 
L 99.41757 290.14471 
L 114.751048 290.14471 
L 114.751048 287.829108 
L 116.019919 287.829108 
L 116.019919 285.513505 
L 133.352844 285.513505 
L 133.352844 284.124143 
L 134.343353 284.124143 
L 134.343353 282.734782 
L 139.253002 282.734782 
L 139.253002 281.808541 
L 141.307054 281.808541 
L 141.307054 279.029818 
L 141.45 279.029818 
L 141.45 278.103577 
L 143.840863 278.103577 
L 143.840863 277.640456 
L 144.209312 277.640456 
L 144.209312 275.324854 
L 145.212864 275.324854 
L 145.212864 273.472371 
L 145.553708 273.472371 
L 145.553708 272.54613 
L 145.888018 272.54613 
L 145.888018 272.08301 
L 146.324022 272.08301 
L 146.377764 271.156769 
L 147.215849 271.156769 
L 147.215849 270.230528 
L 149.012299 270.230528 
L 149.058374 268.841166 
L 149.998846 268.841166 
L 149.998846 268.378046 
L 150.429467 268.378046 
L 150.429467 267.451805 
L 150.891184 267.451805 
L 150.891184 266.525564 
L 151.381313 266.525564 
L 151.381313 266.062443 
L 151.541675 266.062443 
L 151.541675 265.136202 
L 151.779487 265.136202 
L 151.779487 264.673082 
L 152.398241 264.673082 
L 152.398241 263.28372 
L 152.699575 263.28372 
L 152.699575 262.8206 
L 153.032466 262.8206 
L 153.142033 260.041876 
L 153.855395 260.041876 
L 153.855395 259.578756 
L 153.994632 259.578756 
L 153.994632 259.115635 
L 154.167129 259.115635 
L 154.201424 257.726274 
L 154.641235 257.726274 
L 154.641235 255.410671 
L 154.93935 255.410671 
L 154.972161 254.48443 
L 155.584129 254.48443 
L 155.584129 252.631948 
L 156.083319 252.631948 
L 156.083319 251.705707 
L 156.205916 251.705707 
L 156.205916 248.463863 
L 157.443681 248.463863 
L 157.443681 246.611381 
L 157.893028 246.611381 
L 157.893028 245.22202 
L 158.031107 245.22202 
L 158.031107 241.053935 
L 158.222599 241.053935 
L 158.331086 240.127694 
L 158.705563 240.127694 
L 158.705563 239.664574 
L 159.175513 239.664574 
L 159.175513 239.201453 
L 159.380382 239.201453 
L 159.405822 237.348971 
L 159.557689 237.348971 
L 159.557689 236.42273 
L 160.394148 236.42273 
L 160.466062 233.180886 
L 160.86807 233.180886 
L 160.86807 232.717766 
L 161.146363 232.717766 
L 161.215247 231.791525 
L 161.329454 231.791525 
L 161.329454 231.328404 
L 161.465522 231.328404 
L 161.510643 229.939043 
L 161.712255 229.939043 
L 161.712255 229.475922 
L 162.303474 229.475922 
L 162.367945 223.918476 
L 163.144084 223.918476 
L 163.144084 223.455355 
L 163.287113 223.455355 
L 163.287113 222.065994 
L 163.408783 222.065994 
L 163.408783 221.139753 
L 163.828065 221.139753 
L 163.828065 220.213512 
L 164.004716 220.213512 
L 164.082658 218.36103 
L 164.140886 218.36103 
L 164.140886 217.897909 
L 164.295217 217.897909 
L 164.295217 217.434789 
L 164.524182 217.434789 
L 164.524182 216.508548 
L 164.637547 216.508548 
L 164.712717 215.582307 
L 164.768882 215.582307 
L 164.768882 215.119186 
L 164.973287 215.119186 
L 164.973287 214.656066 
L 165.7501 214.656066 
L 165.838222 213.266704 
L 166.047915 213.266704 
L 166.047915 212.803583 
L 166.203547 212.803583 
L 166.306535 211.414222 
L 166.459886 211.414222 
L 166.561376 210.02486 
L 167.043752 210.02486 
L 167.125588 208.635499 
L 167.513144 208.635499 
L 167.576907 205.856776 
L 167.640438 205.856776 
L 167.640438 205.393655 
L 168.155922 205.393655 
L 168.155922 204.930535 
L 168.339657 204.930535 
L 168.339657 204.004294 
L 168.686493 204.004294 
L 168.686493 203.078053 
L 169.041203 203.078053 
L 169.128764 201.225571 
L 169.360135 201.225571 
L 169.360135 200.299329 
L 169.503198 200.299329 
L 169.503198 199.836209 
L 169.855803 199.836209 
L 169.86976 198.446847 
L 170.364915 198.446847 
L 170.364915 197.983727 
L 170.767069 197.983727 
L 170.872762 196.131245 
L 170.951613 196.131245 
L 171.017051 194.741883 
L 171.108254 194.741883 
L 171.108254 194.278763 
L 171.645677 194.278763 
L 171.645677 193.352522 
L 171.758716 193.352522 
L 171.8212 192.426281 
L 171.883461 192.426281 
L 171.945501 190.573799 
L 172.118046 190.573799 
L 172.130306 189.647558 
L 172.542086 189.647558 
L 172.542086 188.721316 
L 173.107351 188.721316 
L 173.107351 187.795075 
L 173.291774 187.795075 
L 173.291774 186.868834 
L 173.822502 186.868834 
L 173.889107 185.942593 
L 174.337554 185.942593 
L 174.380694 184.553232 
L 174.509477 184.553232 
L 174.573514 183.16387 
L 174.83783 183.16387 
L 174.83783 182.70075 
L 175.036065 182.70075 
L 175.036065 181.774509 
L 175.170413 181.774509 
L 175.170413 181.311388 
L 175.737594 181.311388 
L 175.737594 180.385147 
L 176.219183 180.385147 
L 176.219183 179.922027 
L 176.363988 179.922027 
L 176.363988 178.995786 
L 176.67839 178.995786 
L 176.67839 178.532665 
L 177.399735 178.532665 
L 177.399735 177.606424 
L 177.544086 177.606424 
L 177.606866 176.680183 
L 177.978871 176.680183 
L 177.978871 176.217062 
L 178.883902 176.217062 
L 178.975185 174.827701 
L 179.27877 174.827701 
L 179.27877 173.90146 
L 179.448753 173.90146 
L 179.448753 173.438339 
L 179.561161 173.438339 
L 179.561161 172.512098 
L 180.05822 172.512098 
L 180.05822 172.048978 
L 180.442869 172.048978 
L 180.442869 171.122737 
L 180.915752 171.122737 
L 180.915752 170.659616 
L 181.231304 170.659616 
L 181.231304 170.196496 
L 181.404974 170.196496 
L 181.404974 169.733375 
L 181.534102 169.733375 
L 181.534102 169.270255 
L 182.907984 169.270255 
L 182.907984 168.807134 
L 183.299894 168.807134 
L 183.299894 168.344014 
L 183.428598 168.344014 
L 183.428598 167.880893 
L 184.570125 167.880893 
L 184.570125 167.417773 
L 184.707702 167.417773 
L 184.707702 166.491532 
L 185.061571 166.491532 
L 185.061571 166.028411 
L 186.175396 166.028411 
L 186.240998 164.63905 
L 186.962506 164.63905 
L 186.962506 164.175929 
L 187.795661 164.175929 
L 187.795661 163.712808 
L 188.224578 163.712808 
L 188.224578 163.249688 
L 189.428738 163.249688 
L 189.428738 162.786567 
L 189.908399 162.786567 
L 189.908399 162.323447 
L 190.306204 162.323447 
L 190.306204 161.860326 
L 191.34234 161.860326 
L 191.34234 161.397206 
L 191.552844 161.397206 
L 191.621116 159.081603 
L 191.776735 159.081603 
L 191.776735 158.155362 
L 192.84006 158.155362 
L 192.84006 157.692242 
L 193.661356 157.692242 
L 193.661356 156.766001 
L 194.191615 156.766001 
L 194.191615 156.30288 
L 196.022108 156.30288 
L 196.022108 155.376639 
L 196.37966 155.376639 
L 196.37966 154.913519 
L 196.558744 154.913519 
L 196.558744 154.450398 
L 198.222257 154.450398 
L 198.304415 153.524157 
L 200.121597 153.524157 
L 200.212446 150.745434 
L 200.539965 150.745434 
L 200.539965 150.282313 
L 202.452442 150.282313 
L 202.452442 149.819193 
L 202.919954 149.819193 
L 202.919954 148.892952 
L 203.190433 148.892952 
L 203.190433 148.429831 
L 203.668977 148.429831 
L 203.668977 147.966711 
L 204.946726 147.966711 
L 205.045385 146.577349 
L 205.58815 146.577349 
L 205.58815 145.651108 
L 206.467097 145.651108 
L 206.467097 144.724867 
L 206.964649 144.724867 
L 206.964649 144.261747 
L 208.72507 144.261747 
L 208.72507 143.798626 
L 209.515563 143.798626 
L 209.515563 143.335506 
L 209.862597 143.335506 
L 209.862597 142.872385 
L 212.058766 142.872385 
L 212.058766 142.409265 
L 212.269795 142.409265 
L 212.269795 141.483024 
L 213.907721 141.483024 
L 213.907721 141.019903 
L 215.087441 141.019903 
L 215.087441 140.556783 
L 215.253629 140.556783 
L 215.253629 139.630541 
L 215.399807 139.630541 
L 215.442809 138.7043 
L 215.749934 138.7043 
L 215.805107 136.851818 
L 216.282276 136.851818 
L 216.282276 136.388698 
L 216.827208 136.388698 
L 216.827208 135.462457 
L 216.945817 135.462457 
L 216.945817 134.999336 
L 217.224092 134.999336 
L 217.224092 134.536216 
L 217.439729 134.536216 
L 217.439729 134.073095 
L 217.55154 134.073095 
L 217.55154 133.609975 
L 218.332104 133.609975 
L 218.332104 133.146854 
L 218.550808 133.146854 
L 218.550808 132.683734 
L 219.782891 132.683734 
L 219.782891 132.220613 
L 219.958999 132.220613 
L 219.958999 131.294372 
L 220.822075 131.294372 
L 220.822075 130.831252 
L 221.584148 130.831252 
L 221.584148 129.905011 
L 221.839689 129.905011 
L 221.839689 129.44189 
L 222.99325 129.44189 
L 222.99325 128.515649 
L 223.371153 128.515649 
L 223.371153 128.052529 
L 223.642913 128.052529 
L 223.642913 127.589408 
L 223.805098 127.589408 
L 223.805098 127.126287 
L 223.98585 127.126287 
L 223.98585 126.663167 
L 224.169089 126.663167 
L 224.180245 125.273805 
L 225.313068 125.273805 
L 225.313068 124.810685 
L 226.613875 124.810685 
L 226.613875 124.347564 
L 229.748376 124.347564 
L 229.748376 123.421323 
L 230.469411 123.421323 
L 230.489703 122.495082 
L 232.700357 122.495082 
L 232.700357 121.568841 
L 233.180631 121.568841 
L 233.180631 121.105721 
L 234.614424 121.105721 
L 234.614424 120.6426 
L 235.534266 120.6426 
L 235.534266 120.17948 
L 235.893087 120.17948 
L 235.893087 119.716359 
L 236.203987 119.716359 
L 236.203987 119.253239 
L 236.602081 119.253239 
L 236.602081 118.790118 
L 237.593056 118.790118 
L 237.593056 118.326998 
L 238.378235 118.326998 
L 238.456565 116.937636 
L 238.964741 116.937636 
L 238.964741 116.011395 
L 240.572386 116.011395 
L 240.572386 115.085154 
L 240.851636 115.085154 
L 240.851636 114.158913 
L 241.826681 114.158913 
L 241.826681 113.695792 
L 242.165297 113.695792 
L 242.165297 113.232672 
L 242.974233 113.232672 
L 242.974233 112.769551 
L 243.857517 112.769551 
L 243.857517 111.84331 
L 244.015385 111.84331 
L 244.015385 111.38019 
L 244.20292 111.38019 
L 244.20292 110.453949 
L 245.490563 110.453949 
L 245.490563 109.990828 
L 246.402663 109.990828 
L 246.402663 109.064587 
L 248.557204 109.064587 
L 248.557204 108.138346 
L 249.2386 108.138346 
L 249.2386 107.675226 
L 249.854614 107.675226 
L 249.854614 106.748985 
L 251.080046 106.748985 
L 251.080046 106.285864 
L 252.698576 106.285864 
L 252.8056 104.896503 
L 338.688 104.896503 
L 338.688 104.896503 
" style="fill:none;stroke:#ff00ff;stroke-linecap:square;stroke-width:1.5;"/>
   </g>
   <g id="line2d_41">
    <defs>
     <path d="M 0 8.485281 
L 5.091169 0 
L 0 -8.485281 
L -5.091169 0 
z
" id="md9dd1938d4" style="stroke:#ff00ff;stroke-linejoin:miter;stroke-width:1.5;"/>
    </defs>
    <g>
     <use style="fill-opacity:0;stroke:#ff00ff;stroke-linejoin:miter;stroke-width:1.5;" x="99.41757" xlink:href="#md9dd1938d4" y="291.070951"/>
     <use style="fill-opacity:0;stroke:#ff00ff;stroke-linejoin:miter;stroke-width:1.5;" x="161.146363" xlink:href="#md9dd1938d4" y="232.254645"/>
     <use style="fill-opacity:0;stroke:#ff00ff;stroke-linejoin:miter;stroke-width:1.5;" x="208.72507" xlink:href="#md9dd1938d4" y="143.798626"/>
     <use style="fill-opacity:0;stroke:#ff00ff;stroke-linejoin:miter;stroke-width:1.5;" x="252.8056" xlink:href="#md9dd1938d4" y="104.896503"/>
     <use style="fill-opacity:0;stroke:#ff00ff;stroke-linejoin:miter;stroke-width:1.5;" x="252.8056" xlink:href="#md9dd1938d4" y="104.896503"/>
     <use style="fill-opacity:0;stroke:#ff00ff;stroke-linejoin:miter;stroke-width:1.5;" x="338.688" xlink:href="#md9dd1938d4" y="104.896503"/>
    </g>
   </g>
   <g id="line2d_42">
    <path style="fill:none;stroke:#ff00ff;stroke-linecap:square;stroke-width:1.5;"/>
    <g/>
   </g>
   <g id="line2d_43">
    <path clip-path="url(#p0e865a97b4)" d="M 258.386819 104.896503 
" style="fill:none;stroke:#ff00ff;stroke-linecap:square;stroke-width:1.5;"/>
    <defs>
     <path d="M -12 12 
L 12 -12 
M -12 -12 
L 12 12 
" id="m4023c3fcfd" style="stroke:#ff00ff;"/>
    </defs>
    <g clip-path="url(#p0e865a97b4)">
     <use style="fill:#ff00ff;stroke:#ff00ff;" x="258.386819" xlink:href="#m4023c3fcfd" y="104.896503"/>
    </g>
   </g>
   <g id="line2d_44">
    <defs>
     <path d="M 0 1.5 
C 0.397805 1.5 0.77937 1.341951 1.06066 1.06066 
C 1.341951 0.77937 1.5 0.397805 1.5 0 
C 1.5 -0.397805 1.341951 -0.77937 1.06066 -1.06066 
C 0.77937 -1.341951 0.397805 -1.5 0 -1.5 
C -0.397805 -1.5 -0.77937 -1.341951 -1.06066 -1.06066 
C -1.341951 -0.77937 -1.5 -0.397805 -1.5 0 
C -1.5 0.397805 -1.341951 0.77937 -1.06066 1.06066 
C -0.77937 1.341951 -0.397805 1.5 0 1.5 
z
" id="m1781610353" style="stroke:#ff7500;"/>
    </defs>
    <g>
     <use style="fill:#ff7500;stroke:#ff7500;" x="254.433065" xlink:href="#m1781610353" y="125.736926"/>
     <use style="fill:#ff7500;stroke:#ff7500;" x="254.433065" xlink:href="#m1781610353" y="125.736926"/>
    </g>
   </g>
   <g id="line2d_45">
    <path d="M 45.512012 298.944 
L 45.512012 298.480879 
L 91.535274 298.480879 
L 91.535274 298.017759 
L 96.86091 298.017759 
L 96.86091 295.702156 
L 109.843417 295.702156 
L 109.843417 295.239036 
L 116.914437 295.239036 
L 116.914437 294.312795 
L 122.988655 294.312795 
L 122.988655 291.997192 
L 124.557288 291.997192 
L 124.557288 290.14471 
L 138.84457 290.14471 
L 138.84457 289.218469 
L 139.172077 289.218469 
L 139.172077 287.829108 
L 139.413734 287.829108 
L 139.413734 286.439746 
L 140.944478 286.439746 
L 140.944478 285.976625 
L 142.07914 285.976625 
L 142.07914 285.050384 
L 142.283909 285.050384 
L 142.283909 280.8823 
L 144.629556 280.8823 
L 144.629556 279.029818 
L 148.354135 279.029818 
L 148.354135 278.566697 
L 148.826773 278.566697 
L 148.826773 278.103577 
L 149.332295 278.103577 
L 149.332295 276.714215 
L 149.60198 276.714215 
L 149.646525 271.619889 
L 150.301393 271.619889 
L 150.301393 270.693648 
L 150.640855 270.693648 
L 150.640855 269.767407 
L 151.541675 269.767407 
L 151.581536 266.988684 
L 154.269814 266.988684 
L 154.269814 264.209961 
L 154.741174 264.209961 
L 154.741174 263.28372 
L 155.296925 263.28372 
L 155.296925 262.357479 
L 156.236431 262.357479 
L 156.236431 257.726274 
L 156.98245 257.726274 
L 156.98245 257.263153 
L 157.214591 257.263153 
L 157.272146 255.873792 
L 157.443681 255.873792 
L 157.472107 254.48443 
L 157.58535 254.48443 
L 157.58535 253.095069 
L 157.809652 253.095069 
L 157.809652 252.631948 
L 158.705563 252.631948 
L 158.705563 252.168828 
L 158.968208 252.168828 
L 158.968208 251.705707 
L 159.278248 251.705707 
L 159.354904 249.390104 
L 159.405822 249.390104 
L 159.405822 248.926984 
L 160.200913 248.926984 
L 160.200913 248.463863 
L 160.86807 248.463863 
L 160.86807 247.537622 
L 161.169354 247.537622 
L 161.169354 247.074502 
L 161.420284 247.074502 
L 161.420284 246.611381 
L 161.778945 246.611381 
L 161.778945 245.68514 
L 162.130378 245.68514 
L 162.130378 244.758899 
L 162.324991 244.758899 
L 162.324991 243.369538 
L 162.770815 243.369538 
L 162.812686 241.517056 
L 162.9377 241.517056 
L 162.9377 241.053935 
L 163.164589 241.053935 
L 163.205526 239.664574 
L 163.287113 239.664574 
L 163.348054 237.348971 
L 163.449152 237.348971 
L 163.449152 236.42273 
L 163.788565 236.42273 
L 163.788565 235.959609 
L 164.121498 235.959609 
L 164.121498 235.496489 
L 164.371873 235.496489 
L 164.371873 234.570248 
L 164.524182 234.570248 
L 164.543127 231.328404 
L 164.712717 231.328404 
L 164.712717 230.865284 
L 165.120455 230.865284 
L 165.193576 229.012802 
L 165.697012 229.012802 
L 165.803027 227.62344 
L 166.169082 227.62344 
L 166.169082 227.16032 
L 166.391896 227.16032 
L 166.408919 226.234079 
L 166.510705 226.234079 
L 166.578233 224.381596 
L 166.628709 224.381596 
L 166.712511 222.992235 
L 166.795913 222.992235 
L 166.795913 222.529114 
L 167.010909 222.529114 
L 167.0929 221.139753 
L 167.141909 221.139753 
L 167.158215 219.750391 
L 167.255733 219.750391 
L 167.288118 217.897909 
L 167.93909 217.897909 
L 167.985782 216.508548 
L 168.125111 216.508548 
L 168.171308 215.582307 
L 168.263336 215.582307 
L 168.263336 214.656066 
L 168.626667 214.656066 
L 168.626667 213.729825 
L 168.86475 213.729825 
L 168.894283 211.877342 
L 169.085039 211.877342 
L 169.085039 211.414222 
L 169.403177 211.414222 
L 169.503198 210.02486 
L 169.602648 210.02486 
L 169.616809 207.709258 
L 169.771826 207.709258 
L 169.86976 206.319896 
L 170.14658 206.319896 
L 170.242438 204.467414 
L 170.310587 204.467414 
L 170.337772 202.614932 
L 170.51345 202.614932 
L 170.540321 199.836209 
L 170.833202 199.836209 
L 170.912232 198.446847 
L 170.951613 198.446847 
L 171.030109 197.057486 
L 171.095254 197.057486 
L 171.095254 196.131245 
L 171.417378 196.131245 
L 171.417378 195.205004 
L 171.54458 195.205004 
L 171.54458 194.278763 
L 171.721118 194.278763 
L 171.721118 193.815642 
L 171.858583 193.815642 
L 171.858583 193.352522 
L 171.994974 193.352522 
L 172.093501 192.426281 
L 172.130306 192.426281 
L 172.130306 191.50004 
L 172.276753 191.50004 
L 172.276753 190.110678 
L 172.470121 190.110678 
L 172.518131 189.184437 
L 172.589897 189.184437 
L 172.589897 188.721316 
L 172.720707 188.721316 
L 172.791647 187.795075 
L 173.026049 187.795075 
L 173.037687 186.405714 
L 173.55351 186.405714 
L 173.55351 185.942593 
L 173.710926 185.942593 
L 173.777957 184.553232 
L 173.83362 184.553232 
L 173.83362 184.090111 
L 173.999552 184.090111 
L 174.043535 182.70075 
L 174.250953 182.70075 
L 174.359138 181.311388 
L 174.594807 181.311388 
L 174.700886 179.458906 
L 174.743137 179.458906 
L 174.753684 178.069545 
L 175.077514 178.069545 
L 175.077514 177.143304 
L 175.375102 177.143304 
L 175.456309 175.753942 
L 175.62763 175.753942 
L 175.707673 173.438339 
L 176.004603 173.438339 
L 176.004603 172.512098 
L 176.30621 172.512098 
L 176.383205 171.585857 
L 176.431155 171.585857 
L 176.431155 171.122737 
L 176.659495 171.122737 
L 176.753762 169.733375 
L 176.903537 169.733375 
L 176.903537 168.807134 
L 177.281564 168.807134 
L 177.336204 167.417773 
L 177.535099 167.417773 
L 177.535099 166.491532 
L 177.829252 166.491532 
L 177.864572 165.565291 
L 178.239812 165.565291 
L 178.239812 165.10217 
L 178.640929 165.10217 
L 178.691478 163.712808 
L 178.883902 163.712808 
L 178.883902 163.249688 
L 178.999998 163.249688 
L 178.999998 162.323447 
L 179.440696 162.323447 
L 179.440696 161.397206 
L 179.625071 161.397206 
L 179.6808 160.470965 
L 179.901953 160.470965 
L 179.933319 159.081603 
L 180.019285 159.081603 
L 180.019285 158.155362 
L 180.358972 158.155362 
L 180.358972 157.692242 
L 180.714656 157.692242 
L 180.714656 157.229121 
L 180.886106 157.229121 
L 180.937953 156.30288 
L 181.011755 156.30288 
L 181.011755 155.83976 
L 181.648084 155.83976 
L 181.754271 154.913519 
L 181.922835 154.913519 
L 181.922835 154.450398 
L 182.124367 154.450398 
L 182.138181 153.061037 
L 182.507063 153.061037 
L 182.513821 151.671675 
L 183.059259 151.671675 
L 183.059259 151.208554 
L 184.150759 151.208554 
L 184.150759 150.282313 
L 184.473775 150.282313 
L 184.473775 149.819193 
L 184.671916 149.819193 
L 184.671916 149.356072 
L 185.471247 149.356072 
L 185.471247 148.429831 
L 186.240998 148.429831 
L 186.240998 147.966711 
L 186.773004 147.966711 
L 186.773004 147.50359 
L 187.513889 147.50359 
L 187.574653 146.577349 
L 188.258635 146.577349 
L 188.258635 146.114229 
L 188.832347 146.114229 
L 188.832347 145.651108 
L 191.512559 145.651108 
L 191.512559 145.187988 
L 193.954816 145.187988 
L 193.954816 144.261747 
L 194.567993 144.261747 
L 194.567993 143.798626 
L 195.015778 143.798626 
L 195.015778 143.335506 
L 195.212612 143.335506 
L 195.212612 142.872385 
L 195.912771 142.872385 
L 195.912771 141.946144 
L 196.492181 141.946144 
L 196.507332 140.556783 
L 198.307147 140.556783 
L 198.307147 140.093662 
L 199.214636 140.093662 
L 199.214636 139.630541 
L 202.821124 139.630541 
L 202.821124 139.167421 
L 205.167467 139.167421 
L 205.167467 138.7043 
L 208.545275 138.7043 
L 208.545275 137.778059 
L 209.187851 137.778059 
L 209.187851 137.314939 
L 209.337971 137.314939 
L 209.337971 136.388698 
L 212.360332 136.388698 
L 212.360332 135.462457 
L 214.582379 135.462457 
L 214.582379 134.536216 
L 215.93085 134.536216 
L 215.93085 134.073095 
L 218.888919 134.073095 
L 218.888919 133.609975 
L 219.04848 133.609975 
L 219.04848 133.146854 
L 222.973341 133.146854 
L 222.973341 132.683734 
L 224.259374 132.683734 
L 224.259374 132.220613 
L 227.708333 132.220613 
L 227.708333 131.757493 
L 227.874055 131.757493 
L 227.874055 131.294372 
L 232.180261 131.294372 
L 232.180261 130.368131 
L 237.962677 130.368131 
L 237.962677 129.44189 
L 238.879333 129.44189 
L 238.879333 128.515649 
L 242.631331 128.515649 
L 242.631331 128.052529 
L 247.299398 128.052529 
L 247.299398 127.589408 
L 248.987045 127.589408 
L 248.987045 126.663167 
L 251.866206 126.663167 
L 251.866206 126.200046 
L 254.433065 126.200046 
L 254.433065 125.736926 
L 338.688 125.736926 
L 338.688 125.736926 
" style="fill:none;stroke:#ff7500;stroke-linecap:square;stroke-width:1.5;"/>
   </g>
   <g id="line2d_46">
    <defs>
     <path d="M 0 -6 
L -1.347084 -1.854102 
L -5.706339 -1.854102 
L -2.179628 0.708204 
L -3.526712 4.854102 
L -0 2.291796 
L 3.526712 4.854102 
L 2.179628 0.708204 
L 5.706339 -1.854102 
L 1.347084 -1.854102 
z
" id="meb63109faa" style="stroke:#ff7500;stroke-linejoin:bevel;stroke-width:1.5;"/>
    </defs>
    <g>
     <use style="fill-opacity:0;stroke:#ff7500;stroke-linejoin:bevel;stroke-width:1.5;" x="124.557288" xlink:href="#meb63109faa" y="291.997192"/>
     <use style="fill-opacity:0;stroke:#ff7500;stroke-linejoin:bevel;stroke-width:1.5;" x="176.30621" xlink:href="#meb63109faa" y="172.048978"/>
     <use style="fill-opacity:0;stroke:#ff7500;stroke-linejoin:bevel;stroke-width:1.5;" x="232.180261" xlink:href="#meb63109faa" y="131.294372"/>
     <use style="fill-opacity:0;stroke:#ff7500;stroke-linejoin:bevel;stroke-width:1.5;" x="254.433065" xlink:href="#meb63109faa" y="125.736926"/>
     <use style="fill-opacity:0;stroke:#ff7500;stroke-linejoin:bevel;stroke-width:1.5;" x="254.433065" xlink:href="#meb63109faa" y="125.736926"/>
     <use style="fill-opacity:0;stroke:#ff7500;stroke-linejoin:bevel;stroke-width:1.5;" x="338.688" xlink:href="#meb63109faa" y="125.736926"/>
    </g>
   </g>
   <g id="line2d_47">
    <path style="fill:none;stroke:#ff7500;stroke-linecap:square;stroke-width:1.5;"/>
    <g/>
   </g>
   <g id="line2d_48">
    <path clip-path="url(#p0e865a97b4)" d="M 258.37723 125.736926 
" style="fill:none;stroke:#ff7500;stroke-linecap:square;stroke-width:1.5;"/>
    <defs>
     <path d="M -12 12 
L 12 -12 
M -12 -12 
L 12 12 
" id="m5808f2aa76" style="stroke:#ff7500;"/>
    </defs>
    <g clip-path="url(#p0e865a97b4)">
     <use style="fill:#ff7500;stroke:#ff7500;" x="258.37723" xlink:href="#m5808f2aa76" y="125.736926"/>
    </g>
   </g>
   <g id="line2d_49">
    <path d="M 338.688 125.736926 
L 369.60768 293.571802 
" style="fill:none;stroke:#ff7500;stroke-linecap:square;stroke-width:1.5;"/>
    <g>
     <use style="fill-opacity:0;stroke:#ff7500;stroke-linejoin:bevel;stroke-width:1.5;" x="338.688" xlink:href="#meb63109faa" y="125.736926"/>
     <use style="fill-opacity:0;stroke:#ff7500;stroke-linejoin:bevel;stroke-width:1.5;" x="369.60768" xlink:href="#meb63109faa" y="293.571802"/>
    </g>
   </g>
   <g id="line2d_50">
    <path d="M 338.688 104.896503 
L 369.60768 207.616634 
" style="fill:none;stroke:#ff00ff;stroke-linecap:square;stroke-width:1.5;"/>
    <g>
     <use style="fill-opacity:0;stroke:#ff00ff;stroke-linejoin:miter;stroke-width:1.5;" x="338.688" xlink:href="#md9dd1938d4" y="104.896503"/>
     <use style="fill-opacity:0;stroke:#ff00ff;stroke-linejoin:miter;stroke-width:1.5;" x="369.60768" xlink:href="#md9dd1938d4" y="207.616634"/>
    </g>
   </g>
   <g id="line2d_51">
    <path d="M 338.688 84.5192 
L 369.60768 121.661465 
" style="fill:none;stroke:#000080;stroke-linecap:square;stroke-width:1.5;"/>
    <g>
     <use style="fill-opacity:0;stroke:#000080;stroke-width:1.5;" x="338.688" xlink:href="#mf5b22f52c0" y="84.5192"/>
     <use style="fill-opacity:0;stroke:#000080;stroke-width:1.5;" x="369.60768" xlink:href="#mf5b22f52c0" y="121.661465"/>
    </g>
   </g>
   <g id="line2d_52">
    <path d="M 338.688 298.944 
L 338.688 30.334099 
" style="fill:none;stroke:#000000;stroke-linecap:square;stroke-width:1.5;"/>
   </g>
   <g id="patch_3">
    <path d="M 57.6 298.944 
L 57.6 27.648 
" style="fill:none;stroke:#000000;stroke-linecap:square;stroke-linejoin:miter;stroke-width:0.8;"/>
   </g>
   <g id="patch_4">
    <path d="M 338.688 298.944 
L 338.688 27.648 
" style="fill:none;stroke:#000000;stroke-linecap:square;stroke-linejoin:miter;stroke-width:0.8;"/>
   </g>
   <g id="patch_5">
    <path d="M 57.6 298.944 
L 338.688 298.944 
" style="fill:none;stroke:#000000;stroke-linecap:square;stroke-linejoin:miter;stroke-width:0.8;"/>
   </g>
   <g id="patch_6">
    <path d="M 57.6 27.648 
L 338.688 27.648 
" style="fill:none;stroke:#000000;stroke-linecap:square;stroke-linejoin:miter;stroke-width:0.8;"/>
   </g>
   <g id="text_13">
    <!-- SMS-EMOA- -->
    <g transform="translate(375.22944 298.262739)scale(0.17 -0.17)">
     <defs>
      <path d="M 53.515625 70.515625 
L 53.515625 60.890625 
Q 47.90625 63.578125 42.921875 64.890625 
Q 37.9375 66.21875 33.296875 66.21875 
Q 25.25 66.21875 20.875 63.09375 
Q 16.5 59.96875 16.5 54.203125 
Q 16.5 49.359375 19.40625 46.890625 
Q 22.3125 44.4375 30.421875 42.921875 
L 36.375 41.703125 
Q 47.40625 39.59375 52.65625 34.296875 
Q 57.90625 29 57.90625 20.125 
Q 57.90625 9.515625 50.796875 4.046875 
Q 43.703125 -1.421875 29.984375 -1.421875 
Q 24.8125 -1.421875 18.96875 -0.25 
Q 13.140625 0.921875 6.890625 3.21875 
L 6.890625 13.375 
Q 12.890625 10.015625 18.65625 8.296875 
Q 24.421875 6.59375 29.984375 6.59375 
Q 38.421875 6.59375 43.015625 9.90625 
Q 47.609375 13.234375 47.609375 19.390625 
Q 47.609375 24.75 44.3125 27.78125 
Q 41.015625 30.8125 33.5 32.328125 
L 27.484375 33.5 
Q 16.453125 35.6875 11.515625 40.375 
Q 6.59375 45.0625 6.59375 53.421875 
Q 6.59375 63.09375 13.40625 68.65625 
Q 20.21875 74.21875 32.171875 74.21875 
Q 37.3125 74.21875 42.625 73.28125 
Q 47.953125 72.359375 53.515625 70.515625 
z
" id="DejaVuSans-83"/>
      <path d="M 9.8125 72.90625 
L 24.515625 72.90625 
L 43.109375 23.296875 
L 61.8125 72.90625 
L 76.515625 72.90625 
L 76.515625 0 
L 66.890625 0 
L 66.890625 64.015625 
L 48.09375 14.015625 
L 38.1875 14.015625 
L 19.390625 64.015625 
L 19.390625 0 
L 9.8125 0 
z
" id="DejaVuSans-77"/>
      <path d="M 9.8125 72.90625 
L 55.90625 72.90625 
L 55.90625 64.59375 
L 19.671875 64.59375 
L 19.671875 43.015625 
L 54.390625 43.015625 
L 54.390625 34.71875 
L 19.671875 34.71875 
L 19.671875 8.296875 
L 56.78125 8.296875 
L 56.78125 0 
L 9.8125 0 
z
" id="DejaVuSans-69"/>
      <path d="M 39.40625 66.21875 
Q 28.65625 66.21875 22.328125 58.203125 
Q 16.015625 50.203125 16.015625 36.375 
Q 16.015625 22.609375 22.328125 14.59375 
Q 28.65625 6.59375 39.40625 6.59375 
Q 50.140625 6.59375 56.421875 14.59375 
Q 62.703125 22.609375 62.703125 36.375 
Q 62.703125 50.203125 56.421875 58.203125 
Q 50.140625 66.21875 39.40625 66.21875 
z
M 39.40625 74.21875 
Q 54.734375 74.21875 63.90625 63.9375 
Q 73.09375 53.65625 73.09375 36.375 
Q 73.09375 19.140625 63.90625 8.859375 
Q 54.734375 -1.421875 39.40625 -1.421875 
Q 24.03125 -1.421875 14.8125 8.828125 
Q 5.609375 19.09375 5.609375 36.375 
Q 5.609375 53.65625 14.8125 63.9375 
Q 24.03125 74.21875 39.40625 74.21875 
z
" id="DejaVuSans-79"/>
      <path d="M 34.1875 63.1875 
L 20.796875 26.90625 
L 47.609375 26.90625 
z
M 28.609375 72.90625 
L 39.796875 72.90625 
L 67.578125 0 
L 57.328125 0 
L 50.6875 18.703125 
L 17.828125 18.703125 
L 11.1875 0 
L 0.78125 0 
z
" id="DejaVuSans-65"/>
     </defs>
     <use xlink:href="#DejaVuSans-83"/>
     <use x="63.476562" xlink:href="#DejaVuSans-77"/>
     <use x="149.755859" xlink:href="#DejaVuSans-83"/>
     <use x="213.232422" xlink:href="#DejaVuSans-45"/>
     <use x="249.316406" xlink:href="#DejaVuSans-69"/>
     <use x="312.5" xlink:href="#DejaVuSans-77"/>
     <use x="398.779297" xlink:href="#DejaVuSans-79"/>
     <use x="475.740234" xlink:href="#DejaVuSans-65"/>
     <use x="541.898438" xlink:href="#DejaVuSans-45"/>
    </g>
   </g>
   <g id="text_14">
    <!-- NSGA-II-M -->
    <g transform="translate(375.22944 212.307571)scale(0.17 -0.17)">
     <defs>
      <path d="M 9.8125 72.90625 
L 23.09375 72.90625 
L 55.421875 11.921875 
L 55.421875 72.90625 
L 64.984375 72.90625 
L 64.984375 0 
L 51.703125 0 
L 19.390625 60.984375 
L 19.390625 0 
L 9.8125 0 
z
" id="DejaVuSans-78"/>
      <path d="M 59.515625 10.40625 
L 59.515625 29.984375 
L 43.40625 29.984375 
L 43.40625 38.09375 
L 69.28125 38.09375 
L 69.28125 6.78125 
Q 63.578125 2.734375 56.6875 0.65625 
Q 49.8125 -1.421875 42 -1.421875 
Q 24.90625 -1.421875 15.25 8.5625 
Q 5.609375 18.5625 5.609375 36.375 
Q 5.609375 54.25 15.25 64.234375 
Q 24.90625 74.21875 42 74.21875 
Q 49.125 74.21875 55.546875 72.453125 
Q 61.96875 70.703125 67.390625 67.28125 
L 67.390625 56.78125 
Q 61.921875 61.421875 55.765625 63.765625 
Q 49.609375 66.109375 42.828125 66.109375 
Q 29.4375 66.109375 22.71875 58.640625 
Q 16.015625 51.171875 16.015625 36.375 
Q 16.015625 21.625 22.71875 14.15625 
Q 29.4375 6.6875 42.828125 6.6875 
Q 48.046875 6.6875 52.140625 7.59375 
Q 56.25 8.5 59.515625 10.40625 
z
" id="DejaVuSans-71"/>
      <path d="M 9.8125 72.90625 
L 19.671875 72.90625 
L 19.671875 0 
L 9.8125 0 
z
" id="DejaVuSans-73"/>
     </defs>
     <use xlink:href="#DejaVuSans-78"/>
     <use x="74.804688" xlink:href="#DejaVuSans-83"/>
     <use x="138.28125" xlink:href="#DejaVuSans-71"/>
     <use x="215.771484" xlink:href="#DejaVuSans-65"/>
     <use x="281.929688" xlink:href="#DejaVuSans-45"/>
     <use x="318.013672" xlink:href="#DejaVuSans-73"/>
     <use x="347.505859" xlink:href="#DejaVuSans-73"/>
     <use x="376.998047" xlink:href="#DejaVuSans-45"/>
     <use x="413.082031" xlink:href="#DejaVuSans-77"/>
    </g>
   </g>
   <g id="text_15">
    <!-- COMO-100  -->
    <g transform="translate(375.22944 126.352403)scale(0.17 -0.17)">
     <defs>
      <path d="M 64.40625 67.28125 
L 64.40625 56.890625 
Q 59.421875 61.53125 53.78125 63.8125 
Q 48.140625 66.109375 41.796875 66.109375 
Q 29.296875 66.109375 22.65625 58.46875 
Q 16.015625 50.828125 16.015625 36.375 
Q 16.015625 21.96875 22.65625 14.328125 
Q 29.296875 6.6875 41.796875 6.6875 
Q 48.140625 6.6875 53.78125 8.984375 
Q 59.421875 11.28125 64.40625 15.921875 
L 64.40625 5.609375 
Q 59.234375 2.09375 53.4375 0.328125 
Q 47.65625 -1.421875 41.21875 -1.421875 
Q 24.65625 -1.421875 15.125 8.703125 
Q 5.609375 18.84375 5.609375 36.375 
Q 5.609375 53.953125 15.125 64.078125 
Q 24.65625 74.21875 41.21875 74.21875 
Q 47.75 74.21875 53.53125 72.484375 
Q 59.328125 70.75 64.40625 67.28125 
z
" id="DejaVuSans-67"/>
     </defs>
     <use xlink:href="#DejaVuSans-67"/>
     <use x="69.824219" xlink:href="#DejaVuSans-79"/>
     <use x="148.535156" xlink:href="#DejaVuSans-77"/>
     <use x="234.814453" xlink:href="#DejaVuSans-79"/>
     <use x="316.275391" xlink:href="#DejaVuSans-45"/>
     <use x="352.359375" xlink:href="#DejaVuSans-49"/>
     <use x="415.982422" xlink:href="#DejaVuSans-48"/>
     <use x="479.605469" xlink:href="#DejaVuSans-48"/>
     <use x="543.228516" xlink:href="#DejaVuSans-32"/>
    </g>
   </g>
   <g id="text_16">
    <!-- best 2016 -->
    <g transform="translate(375.22944 40.397235)scale(0.17 -0.17)">
     <defs>
      <path d="M 48.6875 27.296875 
Q 48.6875 37.203125 44.609375 42.84375 
Q 40.53125 48.484375 33.40625 48.484375 
Q 26.265625 48.484375 22.1875 42.84375 
Q 18.109375 37.203125 18.109375 27.296875 
Q 18.109375 17.390625 22.1875 11.75 
Q 26.265625 6.109375 33.40625 6.109375 
Q 40.53125 6.109375 44.609375 11.75 
Q 48.6875 17.390625 48.6875 27.296875 
z
M 18.109375 46.390625 
Q 20.953125 51.265625 25.265625 53.625 
Q 29.59375 56 35.59375 56 
Q 45.5625 56 51.78125 48.09375 
Q 58.015625 40.1875 58.015625 27.296875 
Q 58.015625 14.40625 51.78125 6.484375 
Q 45.5625 -1.421875 35.59375 -1.421875 
Q 29.59375 -1.421875 25.265625 0.953125 
Q 20.953125 3.328125 18.109375 8.203125 
L 18.109375 0 
L 9.078125 0 
L 9.078125 75.984375 
L 18.109375 75.984375 
z
" id="DejaVuSans-98"/>
     </defs>
     <use xlink:href="#DejaVuSans-98"/>
     <use x="63.476562" xlink:href="#DejaVuSans-101"/>
     <use x="125" xlink:href="#DejaVuSans-115"/>
     <use x="177.099609" xlink:href="#DejaVuSans-116"/>
     <use x="216.308594" xlink:href="#DejaVuSans-32"/>
     <use x="248.095703" xlink:href="#DejaVuSans-50"/>
     <use x="311.71875" xlink:href="#DejaVuSans-48"/>
     <use x="375.341797" xlink:href="#DejaVuSans-49"/>
     <use x="438.964844" xlink:href="#DejaVuSans-54"/>
    </g>
   </g>
   <g id="text_17">
    <!-- bbob-biobj f20, 2-D -->
    <g transform="translate(60.41088 38.111366)scale(0.102 -0.102)">
     <defs>
      <path d="M 9.421875 54.6875 
L 18.40625 54.6875 
L 18.40625 -0.984375 
Q 18.40625 -11.421875 14.421875 -16.109375 
Q 10.453125 -20.796875 1.609375 -20.796875 
L -1.8125 -20.796875 
L -1.8125 -13.1875 
L 0.59375 -13.1875 
Q 5.71875 -13.1875 7.5625 -10.8125 
Q 9.421875 -8.453125 9.421875 -0.984375 
z
M 9.421875 75.984375 
L 18.40625 75.984375 
L 18.40625 64.59375 
L 9.421875 64.59375 
z
" id="DejaVuSans-106"/>
      <path d="M 19.671875 64.796875 
L 19.671875 8.109375 
L 31.59375 8.109375 
Q 46.6875 8.109375 53.6875 14.9375 
Q 60.6875 21.78125 60.6875 36.53125 
Q 60.6875 51.171875 53.6875 57.984375 
Q 46.6875 64.796875 31.59375 64.796875 
z
M 9.8125 72.90625 
L 30.078125 72.90625 
Q 51.265625 72.90625 61.171875 64.09375 
Q 71.09375 55.28125 71.09375 36.53125 
Q 71.09375 17.671875 61.125 8.828125 
Q 51.171875 0 30.078125 0 
L 9.8125 0 
z
" id="DejaVuSans-68"/>
     </defs>
     <use xlink:href="#DejaVuSans-98"/>
     <use x="63.476562" xlink:href="#DejaVuSans-98"/>
     <use x="126.953125" xlink:href="#DejaVuSans-111"/>
     <use x="188.134766" xlink:href="#DejaVuSans-98"/>
     <use x="251.611328" xlink:href="#DejaVuSans-45"/>
     <use x="287.695312" xlink:href="#DejaVuSans-98"/>
     <use x="351.171875" xlink:href="#DejaVuSans-105"/>
     <use x="378.955078" xlink:href="#DejaVuSans-111"/>
     <use x="440.136719" xlink:href="#DejaVuSans-98"/>
     <use x="503.613281" xlink:href="#DejaVuSans-106"/>
     <use x="531.396484" xlink:href="#DejaVuSans-32"/>
     <use x="563.183594" xlink:href="#DejaVuSans-102"/>
     <use x="598.388672" xlink:href="#DejaVuSans-50"/>
     <use x="662.011719" xlink:href="#DejaVuSans-48"/>
     <use x="725.634766" xlink:href="#DejaVuSans-44"/>
     <use x="757.421875" xlink:href="#DejaVuSans-32"/>
     <use x="789.208984" xlink:href="#DejaVuSans-50"/>
     <use x="852.832031" xlink:href="#DejaVuSans-45"/>
     <use x="888.916016" xlink:href="#DejaVuSans-68"/>
    </g>
    <!-- 58 targets: 1..-1.0e-4 -->
    <g transform="translate(60.41088 49.533135)scale(0.102 -0.102)">
     <defs>
      <path d="M 10.796875 72.90625 
L 49.515625 72.90625 
L 49.515625 64.59375 
L 19.828125 64.59375 
L 19.828125 46.734375 
Q 21.96875 47.46875 24.109375 47.828125 
Q 26.265625 48.1875 28.421875 48.1875 
Q 40.625 48.1875 47.75 41.5 
Q 54.890625 34.8125 54.890625 23.390625 
Q 54.890625 11.625 47.5625 5.09375 
Q 40.234375 -1.421875 26.90625 -1.421875 
Q 22.3125 -1.421875 17.546875 -0.640625 
Q 12.796875 0.140625 7.71875 1.703125 
L 7.71875 11.625 
Q 12.109375 9.234375 16.796875 8.0625 
Q 21.484375 6.890625 26.703125 6.890625 
Q 35.15625 6.890625 40.078125 11.328125 
Q 45.015625 15.765625 45.015625 23.390625 
Q 45.015625 31 40.078125 35.4375 
Q 35.15625 39.890625 26.703125 39.890625 
Q 22.75 39.890625 18.8125 39.015625 
Q 14.890625 38.140625 10.796875 36.28125 
z
" id="DejaVuSans-53"/>
      <path d="M 11.71875 12.40625 
L 22.015625 12.40625 
L 22.015625 0 
L 11.71875 0 
z
M 11.71875 51.703125 
L 22.015625 51.703125 
L 22.015625 39.3125 
L 11.71875 39.3125 
z
" id="DejaVuSans-58"/>
     </defs>
     <use xlink:href="#DejaVuSans-53"/>
     <use x="63.623047" xlink:href="#DejaVuSans-56"/>
     <use x="127.246094" xlink:href="#DejaVuSans-32"/>
     <use x="159.033203" xlink:href="#DejaVuSans-116"/>
     <use x="198.242188" xlink:href="#DejaVuSans-97"/>
     <use x="259.521484" xlink:href="#DejaVuSans-114"/>
     <use x="298.884766" xlink:href="#DejaVuSans-103"/>
     <use x="362.361328" xlink:href="#DejaVuSans-101"/>
     <use x="423.884766" xlink:href="#DejaVuSans-116"/>
     <use x="463.09375" xlink:href="#DejaVuSans-115"/>
     <use x="515.193359" xlink:href="#DejaVuSans-58"/>
     <use x="548.884766" xlink:href="#DejaVuSans-32"/>
     <use x="580.671875" xlink:href="#DejaVuSans-49"/>
     <use x="644.294922" xlink:href="#DejaVuSans-46"/>
     <use x="676.082031" xlink:href="#DejaVuSans-46"/>
     <use x="707.869141" xlink:href="#DejaVuSans-45"/>
     <use x="743.953125" xlink:href="#DejaVuSans-49"/>
     <use x="807.576172" xlink:href="#DejaVuSans-46"/>
     <use x="839.363281" xlink:href="#DejaVuSans-48"/>
     <use x="902.986328" xlink:href="#DejaVuSans-101"/>
     <use x="964.509766" xlink:href="#DejaVuSans-45"/>
     <use x="1000.59375" xlink:href="#DejaVuSans-52"/>
    </g>
    <!-- 10 instances -->
    <g transform="translate(60.41088 60.954904)scale(0.102 -0.102)">
     <use xlink:href="#DejaVuSans-49"/>
     <use x="63.623047" xlink:href="#DejaVuSans-48"/>
     <use x="127.246094" xlink:href="#DejaVuSans-32"/>
     <use x="159.033203" xlink:href="#DejaVuSans-105"/>
     <use x="186.816406" xlink:href="#DejaVuSans-110"/>
     <use x="250.195312" xlink:href="#DejaVuSans-115"/>
     <use x="302.294922" xlink:href="#DejaVuSans-116"/>
     <use x="341.503906" xlink:href="#DejaVuSans-97"/>
     <use x="402.783203" xlink:href="#DejaVuSans-110"/>
     <use x="466.162109" xlink:href="#DejaVuSans-99"/>
     <use x="521.142578" xlink:href="#DejaVuSans-101"/>
     <use x="582.666016" xlink:href="#DejaVuSans-115"/>
    </g>
   </g>
   <g id="text_18">
    <!-- v2.4.19, hv-hash=ff0e71e8cd978373 -->
    <g style="fill:#808080;" transform="translate(104.697125 294.151352)scale(0.1 -0.1)">
     <defs>
      <path d="M 10.984375 1.515625 
L 10.984375 10.5 
Q 14.703125 8.734375 18.5 7.8125 
Q 22.3125 6.890625 25.984375 6.890625 
Q 35.75 6.890625 40.890625 13.453125 
Q 46.046875 20.015625 46.78125 33.40625 
Q 43.953125 29.203125 39.59375 26.953125 
Q 35.25 24.703125 29.984375 24.703125 
Q 19.046875 24.703125 12.671875 31.3125 
Q 6.296875 37.9375 6.296875 49.421875 
Q 6.296875 60.640625 12.9375 67.421875 
Q 19.578125 74.21875 30.609375 74.21875 
Q 43.265625 74.21875 49.921875 64.515625 
Q 56.59375 54.828125 56.59375 36.375 
Q 56.59375 19.140625 48.40625 8.859375 
Q 40.234375 -1.421875 26.421875 -1.421875 
Q 22.703125 -1.421875 18.890625 -0.6875 
Q 15.09375 0.046875 10.984375 1.515625 
z
M 30.609375 32.421875 
Q 37.25 32.421875 41.125 36.953125 
Q 45.015625 41.5 45.015625 49.421875 
Q 45.015625 57.28125 41.125 61.84375 
Q 37.25 66.40625 30.609375 66.40625 
Q 23.96875 66.40625 20.09375 61.84375 
Q 16.21875 57.28125 16.21875 49.421875 
Q 16.21875 41.5 20.09375 36.953125 
Q 23.96875 32.421875 30.609375 32.421875 
z
" id="DejaVuSans-57"/>
      <path d="M 54.890625 33.015625 
L 54.890625 0 
L 45.90625 0 
L 45.90625 32.71875 
Q 45.90625 40.484375 42.875 44.328125 
Q 39.84375 48.1875 33.796875 48.1875 
Q 26.515625 48.1875 22.3125 43.546875 
Q 18.109375 38.921875 18.109375 30.90625 
L 18.109375 0 
L 9.078125 0 
L 9.078125 75.984375 
L 18.109375 75.984375 
L 18.109375 46.1875 
Q 21.34375 51.125 25.703125 53.5625 
Q 30.078125 56 35.796875 56 
Q 45.21875 56 50.046875 50.171875 
Q 54.890625 44.34375 54.890625 33.015625 
z
" id="DejaVuSans-104"/>
      <path d="M 10.59375 45.40625 
L 73.1875 45.40625 
L 73.1875 37.203125 
L 10.59375 37.203125 
z
M 10.59375 25.484375 
L 73.1875 25.484375 
L 73.1875 17.1875 
L 10.59375 17.1875 
z
" id="DejaVuSans-61"/>
      <path d="M 8.203125 72.90625 
L 55.078125 72.90625 
L 55.078125 68.703125 
L 28.609375 0 
L 18.3125 0 
L 43.21875 64.59375 
L 8.203125 64.59375 
z
" id="DejaVuSans-55"/>
      <path d="M 40.578125 39.3125 
Q 47.65625 37.796875 51.625 33 
Q 55.609375 28.21875 55.609375 21.1875 
Q 55.609375 10.40625 48.1875 4.484375 
Q 40.765625 -1.421875 27.09375 -1.421875 
Q 22.515625 -1.421875 17.65625 -0.515625 
Q 12.796875 0.390625 7.625 2.203125 
L 7.625 11.71875 
Q 11.71875 9.328125 16.59375 8.109375 
Q 21.484375 6.890625 26.8125 6.890625 
Q 36.078125 6.890625 40.9375 10.546875 
Q 45.796875 14.203125 45.796875 21.1875 
Q 45.796875 27.640625 41.28125 31.265625 
Q 36.765625 34.90625 28.71875 34.90625 
L 20.21875 34.90625 
L 20.21875 43.015625 
L 29.109375 43.015625 
Q 36.375 43.015625 40.234375 45.921875 
Q 44.09375 48.828125 44.09375 54.296875 
Q 44.09375 59.90625 40.109375 62.90625 
Q 36.140625 65.921875 28.71875 65.921875 
Q 24.65625 65.921875 20.015625 65.03125 
Q 15.375 64.15625 9.8125 62.3125 
L 9.8125 71.09375 
Q 15.4375 72.65625 20.34375 73.4375 
Q 25.25 74.21875 29.59375 74.21875 
Q 40.828125 74.21875 47.359375 69.109375 
Q 53.90625 64.015625 53.90625 55.328125 
Q 53.90625 49.265625 50.4375 45.09375 
Q 46.96875 40.921875 40.578125 39.3125 
z
" id="DejaVuSans-51"/>
     </defs>
     <use xlink:href="#DejaVuSans-118"/>
     <use x="59.179688" xlink:href="#DejaVuSans-50"/>
     <use x="122.802734" xlink:href="#DejaVuSans-46"/>
     <use x="154.589844" xlink:href="#DejaVuSans-52"/>
     <use x="218.212891" xlink:href="#DejaVuSans-46"/>
     <use x="250" xlink:href="#DejaVuSans-49"/>
     <use x="313.623047" xlink:href="#DejaVuSans-57"/>
     <use x="377.246094" xlink:href="#DejaVuSans-44"/>
     <use x="409.033203" xlink:href="#DejaVuSans-32"/>
     <use x="440.820312" xlink:href="#DejaVuSans-104"/>
     <use x="504.199219" xlink:href="#DejaVuSans-118"/>
     <use x="560.753906" xlink:href="#DejaVuSans-45"/>
     <use x="596.837891" xlink:href="#DejaVuSans-104"/>
     <use x="660.216797" xlink:href="#DejaVuSans-97"/>
     <use x="721.496094" xlink:href="#DejaVuSans-115"/>
     <use x="773.595703" xlink:href="#DejaVuSans-104"/>
     <use x="836.974609" xlink:href="#DejaVuSans-61"/>
     <use x="920.763672" xlink:href="#DejaVuSans-102"/>
     <use x="955.96875" xlink:href="#DejaVuSans-102"/>
     <use x="991.173828" xlink:href="#DejaVuSans-48"/>
     <use x="1054.796875" xlink:href="#DejaVuSans-101"/>
     <use x="1116.320312" xlink:href="#DejaVuSans-55"/>
     <use x="1179.943359" xlink:href="#DejaVuSans-49"/>
     <use x="1243.566406" xlink:href="#DejaVuSans-101"/>
     <use x="1305.089844" xlink:href="#DejaVuSans-56"/>
     <use x="1368.712891" xlink:href="#DejaVuSans-99"/>
     <use x="1423.693359" xlink:href="#DejaVuSans-100"/>
     <use x="1487.169922" xlink:href="#DejaVuSans-57"/>
     <use x="1550.792969" xlink:href="#DejaVuSans-55"/>
     <use x="1614.416016" xlink:href="#DejaVuSans-56"/>
     <use x="1678.039062" xlink:href="#DejaVuSans-51"/>
     <use x="1741.662109" xlink:href="#DejaVuSans-55"/>
     <use x="1805.285156" xlink:href="#DejaVuSans-51"/>
    </g>
   </g>
   <g id="text_19">
    <!-- 20 Attr. sector/Attr. sector -->
    <g transform="translate(68.728375 21.648)scale(0.2 -0.2)">
     <use xlink:href="#DejaVuSans-50"/>
     <use x="63.623047" xlink:href="#DejaVuSans-48"/>
     <use x="127.246094" xlink:href="#DejaVuSans-32"/>
     <use x="159.033203" xlink:href="#DejaVuSans-65"/>
     <use x="225.691406" xlink:href="#DejaVuSans-116"/>
     <use x="264.900391" xlink:href="#DejaVuSans-116"/>
     <use x="304.109375" xlink:href="#DejaVuSans-114"/>
     <use x="336.097656" xlink:href="#DejaVuSans-46"/>
     <use x="367.884766" xlink:href="#DejaVuSans-32"/>
     <use x="399.671875" xlink:href="#DejaVuSans-115"/>
     <use x="451.771484" xlink:href="#DejaVuSans-101"/>
     <use x="513.294922" xlink:href="#DejaVuSans-99"/>
     <use x="568.275391" xlink:href="#DejaVuSans-116"/>
     <use x="607.484375" xlink:href="#DejaVuSans-111"/>
     <use x="668.666016" xlink:href="#DejaVuSans-114"/>
     <use x="709.779297" xlink:href="#DejaVuSans-47"/>
     <use x="743.470703" xlink:href="#DejaVuSans-65"/>
     <use x="810.128906" xlink:href="#DejaVuSans-116"/>
     <use x="849.337891" xlink:href="#DejaVuSans-116"/>
     <use x="888.546875" xlink:href="#DejaVuSans-114"/>
     <use x="920.535156" xlink:href="#DejaVuSans-46"/>
     <use x="952.322266" xlink:href="#DejaVuSans-32"/>
     <use x="984.109375" xlink:href="#DejaVuSans-115"/>
     <use x="1036.208984" xlink:href="#DejaVuSans-101"/>
     <use x="1097.732422" xlink:href="#DejaVuSans-99"/>
     <use x="1152.712891" xlink:href="#DejaVuSans-116"/>
     <use x="1191.921875" xlink:href="#DejaVuSans-111"/>
     <use x="1253.103516" xlink:href="#DejaVuSans-114"/>
    </g>
   </g>
  </g>
 </g>
 <defs>
  <clipPath id="p0e865a97b4">
   <rect height="271.296" width="281.088" x="57.6" y="27.648"/>
  </clipPath>
 </defs>
</svg>
