<?xml version="1.0" encoding="utf-8" standalone="no"?>
<!DOCTYPE svg PUBLIC "-//W3C//DTD SVG 1.1//EN"
  "http://www.w3.org/Graphics/SVG/1.1/DTD/svg11.dtd">
<!-- Created with matplotlib (https://matplotlib.org/) -->
<svg height="345.6pt" version="1.1" viewBox="0 0 460.8 345.6" width="460.8pt" xmlns="http://www.w3.org/2000/svg" xmlns:xlink="http://www.w3.org/1999/xlink">
 <metadata>
  <rdf:RDF xmlns:cc="http://creativecommons.org/ns#" xmlns:dc="http://purl.org/dc/elements/1.1/" xmlns:rdf="http://www.w3.org/1999/02/22-rdf-syntax-ns#">
   <cc:Work>
    <dc:type rdf:resource="http://purl.org/dc/dcmitype/StillImage"/>
    <dc:date>2021-04-26T15:04:30.319399</dc:date>
    <dc:format>image/svg+xml</dc:format>
    <dc:creator>
     <cc:Agent>
      <dc:title>Matplotlib v3.3.2, https://matplotlib.org/</dc:title>
     </cc:Agent>
    </dc:creator>
   </cc:Work>
  </rdf:RDF>
 </metadata>
 <defs>
  <style type="text/css">*{stroke-linecap:butt;stroke-linejoin:round;}</style>
 </defs>
 <g id="figure_1">
  <g id="patch_1">
   <path d="M 0 345.6 
L 460.8 345.6 
L 460.8 0 
L 0 0 
z
" style="fill:#ffffff;"/>
  </g>
  <g id="axes_1">
   <g id="patch_2">
    <path d="M 57.6 298.944 
L 338.688 298.944 
L 338.688 27.648 
L 57.6 27.648 
z
" style="fill:#ffffff;"/>
   </g>
   <g id="line2d_1">
    <path d="M 57.6 298.944 
L 57.6 294.312795 
L 67.850577 294.312795 
L 67.850577 285.050384 
L 75.555822 285.050384 
L 75.555822 275.787974 
L 81.775977 275.787974 
L 81.775977 271.156769 
L 88.255778 271.156769 
L 88.255778 257.263153 
L 95.526106 257.263153 
L 95.526106 248.000743 
L 102.060491 248.000743 
L 102.060491 243.369538 
L 107.213174 243.369538 
L 107.213174 234.107127 
L 116.202531 234.107127 
L 116.202531 220.213512 
L 132.753813 220.213512 
L 132.753813 210.951101 
L 142.243147 210.951101 
L 142.243147 201.688691 
L 147.828875 201.688691 
L 147.828875 192.426281 
L 154.098334 192.426281 
L 154.098334 187.795075 
L 161.007772 187.795075 
L 161.007772 173.90146 
L 169.964373 173.90146 
L 169.964373 169.270255 
L 174.13554 169.270255 
L 174.13554 155.376639 
L 181.358831 155.376639 
L 181.358831 146.114229 
L 187.192391 146.114229 
L 187.192391 141.483024 
L 191.900239 141.483024 
L 191.900239 127.589408 
L 198.021819 127.589408 
L 198.021819 122.958203 
L 203.180107 122.958203 
L 203.180107 109.064587 
L 210.963265 109.064587 
L 210.963265 99.802177 
L 217.714243 99.802177 
L 217.714243 90.539766 
L 223.614262 90.539766 
L 223.614262 85.908561 
L 227.479797 85.908561 
L 227.479797 76.646151 
L 231.035889 76.646151 
L 231.035889 62.752535 
L 338.688 62.752535 
" style="fill:none;stroke:#f5deb3;stroke-linecap:square;stroke-width:4;"/>
   </g>
   <g id="line2d_2">
    <defs>
     <path d="M 0 7.778175 
L 7.778175 0 
L 0 -7.778175 
L -7.778175 0 
z
" id="mae4664a0f6" style="stroke:#f5deb3;stroke-linejoin:miter;stroke-width:1.5;"/>
    </defs>
    <g>
     <use style="fill:#f5deb3;stroke:#f5deb3;stroke-linejoin:miter;stroke-width:1.5;" x="95.526106" xlink:href="#mae4664a0f6" y="248.000743"/>
     <use style="fill:#f5deb3;stroke:#f5deb3;stroke-linejoin:miter;stroke-width:1.5;" x="169.964373" xlink:href="#mae4664a0f6" y="173.90146"/>
     <use style="fill:#f5deb3;stroke:#f5deb3;stroke-linejoin:miter;stroke-width:1.5;" x="231.035889" xlink:href="#mae4664a0f6" y="76.646151"/>
     <use style="fill:#f5deb3;stroke:#f5deb3;stroke-linejoin:miter;stroke-width:1.5;" x="231.035889" xlink:href="#mae4664a0f6" y="62.752535"/>
     <use style="fill:#f5deb3;stroke:#f5deb3;stroke-linejoin:miter;stroke-width:1.5;" x="338.688" xlink:href="#mae4664a0f6" y="62.752535"/>
    </g>
   </g>
   <g id="line2d_3">
    <path style="fill:none;stroke:#f5deb3;stroke-linecap:square;stroke-width:4;"/>
    <g/>
   </g>
   <g id="line2d_4">
    <path d="M 338.688 62.752535 
L 369.60768 35.706297 
" style="fill:none;stroke:#f5deb3;stroke-linecap:square;stroke-width:4;"/>
    <g>
     <use style="fill:#f5deb3;stroke:#f5deb3;stroke-linejoin:miter;stroke-width:1.5;" x="338.688" xlink:href="#mae4664a0f6" y="62.752535"/>
     <use style="fill:#f5deb3;stroke:#f5deb3;stroke-linejoin:miter;stroke-width:1.5;" x="369.60768" xlink:href="#mae4664a0f6" y="35.706297"/>
    </g>
   </g>
   <g id="matplotlib.axis_1">
    <g id="xtick_1">
     <g id="line2d_5">
      <path clip-path="url(#p23ff29e2c0)" d="M 57.6 298.944 
L 57.6 27.648 
" style="fill:none;stroke:#b0b0b0;stroke-linecap:square;stroke-width:0.8;"/>
     </g>
     <g id="line2d_6">
      <defs>
       <path d="M 0 0 
L 0 3.5 
" id="m09a4f4f913" style="stroke:#000000;stroke-width:0.8;"/>
      </defs>
      <g>
       <use style="stroke:#000000;stroke-width:0.8;" x="57.6" xlink:href="#m09a4f4f913" y="298.944"/>
      </g>
     </g>
     <g id="text_1">
      <!-- 0 -->
      <g transform="translate(51.2375 321.140875)scale(0.2 -0.2)">
       <defs>
        <path d="M 31.78125 66.40625 
Q 24.171875 66.40625 20.328125 58.90625 
Q 16.5 51.421875 16.5 36.375 
Q 16.5 21.390625 20.328125 13.890625 
Q 24.171875 6.390625 31.78125 6.390625 
Q 39.453125 6.390625 43.28125 13.890625 
Q 47.125 21.390625 47.125 36.375 
Q 47.125 51.421875 43.28125 58.90625 
Q 39.453125 66.40625 31.78125 66.40625 
z
M 31.78125 74.21875 
Q 44.046875 74.21875 50.515625 64.515625 
Q 56.984375 54.828125 56.984375 36.375 
Q 56.984375 17.96875 50.515625 8.265625 
Q 44.046875 -1.421875 31.78125 -1.421875 
Q 19.53125 -1.421875 13.0625 8.265625 
Q 6.59375 17.96875 6.59375 36.375 
Q 6.59375 54.828125 13.0625 64.515625 
Q 19.53125 74.21875 31.78125 74.21875 
z
" id="DejaVuSans-48"/>
       </defs>
       <use xlink:href="#DejaVuSans-48"/>
      </g>
     </g>
    </g>
    <g id="xtick_2">
     <g id="line2d_7">
      <path clip-path="url(#p23ff29e2c0)" d="M 137.910857 298.944 
L 137.910857 27.648 
" style="fill:none;stroke:#b0b0b0;stroke-linecap:square;stroke-width:0.8;"/>
     </g>
     <g id="line2d_8">
      <g>
       <use style="stroke:#000000;stroke-width:0.8;" x="137.910857" xlink:href="#m09a4f4f913" y="298.944"/>
      </g>
     </g>
     <g id="text_2">
      <!-- 2 -->
      <g transform="translate(131.548357 321.140875)scale(0.2 -0.2)">
       <defs>
        <path d="M 19.1875 8.296875 
L 53.609375 8.296875 
L 53.609375 0 
L 7.328125 0 
L 7.328125 8.296875 
Q 12.9375 14.109375 22.625 23.890625 
Q 32.328125 33.6875 34.8125 36.53125 
Q 39.546875 41.84375 41.421875 45.53125 
Q 43.3125 49.21875 43.3125 52.78125 
Q 43.3125 58.59375 39.234375 62.25 
Q 35.15625 65.921875 28.609375 65.921875 
Q 23.96875 65.921875 18.8125 64.3125 
Q 13.671875 62.703125 7.8125 59.421875 
L 7.8125 69.390625 
Q 13.765625 71.78125 18.9375 73 
Q 24.125 74.21875 28.421875 74.21875 
Q 39.75 74.21875 46.484375 68.546875 
Q 53.21875 62.890625 53.21875 53.421875 
Q 53.21875 48.921875 51.53125 44.890625 
Q 49.859375 40.875 45.40625 35.40625 
Q 44.1875 33.984375 37.640625 27.21875 
Q 31.109375 20.453125 19.1875 8.296875 
z
" id="DejaVuSans-50"/>
       </defs>
       <use xlink:href="#DejaVuSans-50"/>
      </g>
     </g>
    </g>
    <g id="xtick_3">
     <g id="line2d_9">
      <path clip-path="url(#p23ff29e2c0)" d="M 218.221714 298.944 
L 218.221714 27.648 
" style="fill:none;stroke:#b0b0b0;stroke-linecap:square;stroke-width:0.8;"/>
     </g>
     <g id="line2d_10">
      <g>
       <use style="stroke:#000000;stroke-width:0.8;" x="218.221714" xlink:href="#m09a4f4f913" y="298.944"/>
      </g>
     </g>
     <g id="text_3">
      <!-- 4 -->
      <g transform="translate(211.859214 321.140875)scale(0.2 -0.2)">
       <defs>
        <path d="M 37.796875 64.3125 
L 12.890625 25.390625 
L 37.796875 25.390625 
z
M 35.203125 72.90625 
L 47.609375 72.90625 
L 47.609375 25.390625 
L 58.015625 25.390625 
L 58.015625 17.1875 
L 47.609375 17.1875 
L 47.609375 0 
L 37.796875 0 
L 37.796875 17.1875 
L 4.890625 17.1875 
L 4.890625 26.703125 
z
" id="DejaVuSans-52"/>
       </defs>
       <use xlink:href="#DejaVuSans-52"/>
      </g>
     </g>
    </g>
    <g id="xtick_4">
     <g id="line2d_11">
      <path clip-path="url(#p23ff29e2c0)" d="M 298.532571 298.944 
L 298.532571 27.648 
" style="fill:none;stroke:#b0b0b0;stroke-linecap:square;stroke-width:0.8;"/>
     </g>
     <g id="line2d_12">
      <g>
       <use style="stroke:#000000;stroke-width:0.8;" x="298.532571" xlink:href="#m09a4f4f913" y="298.944"/>
      </g>
     </g>
     <g id="text_4">
      <!-- 6 -->
      <g transform="translate(292.170071 321.140875)scale(0.2 -0.2)">
       <defs>
        <path d="M 33.015625 40.375 
Q 26.375 40.375 22.484375 35.828125 
Q 18.609375 31.296875 18.609375 23.390625 
Q 18.609375 15.53125 22.484375 10.953125 
Q 26.375 6.390625 33.015625 6.390625 
Q 39.65625 6.390625 43.53125 10.953125 
Q 47.40625 15.53125 47.40625 23.390625 
Q 47.40625 31.296875 43.53125 35.828125 
Q 39.65625 40.375 33.015625 40.375 
z
M 52.59375 71.296875 
L 52.59375 62.3125 
Q 48.875 64.0625 45.09375 64.984375 
Q 41.3125 65.921875 37.59375 65.921875 
Q 27.828125 65.921875 22.671875 59.328125 
Q 17.53125 52.734375 16.796875 39.40625 
Q 19.671875 43.65625 24.015625 45.921875 
Q 28.375 48.1875 33.59375 48.1875 
Q 44.578125 48.1875 50.953125 41.515625 
Q 57.328125 34.859375 57.328125 23.390625 
Q 57.328125 12.15625 50.6875 5.359375 
Q 44.046875 -1.421875 33.015625 -1.421875 
Q 20.359375 -1.421875 13.671875 8.265625 
Q 6.984375 17.96875 6.984375 36.375 
Q 6.984375 53.65625 15.1875 63.9375 
Q 23.390625 74.21875 37.203125 74.21875 
Q 40.921875 74.21875 44.703125 73.484375 
Q 48.484375 72.75 52.59375 71.296875 
z
" id="DejaVuSans-54"/>
       </defs>
       <use xlink:href="#DejaVuSans-54"/>
      </g>
     </g>
    </g>
    <g id="xtick_5">
     <g id="line2d_13">
      <path clip-path="url(#p23ff29e2c0)" d="M 97.755429 298.944 
L 97.755429 27.648 
" style="fill:none;stroke:#b0b0b0;stroke-linecap:square;stroke-width:0.8;"/>
     </g>
     <g id="line2d_14">
      <defs>
       <path d="M 0 0 
L 0 2 
" id="medd0504e18" style="stroke:#000000;stroke-width:0.6;"/>
      </defs>
      <g>
       <use style="stroke:#000000;stroke-width:0.6;" x="97.755429" xlink:href="#medd0504e18" y="298.944"/>
      </g>
     </g>
    </g>
    <g id="xtick_6">
     <g id="line2d_15">
      <path clip-path="url(#p23ff29e2c0)" d="M 178.066286 298.944 
L 178.066286 27.648 
" style="fill:none;stroke:#b0b0b0;stroke-linecap:square;stroke-width:0.8;"/>
     </g>
     <g id="line2d_16">
      <g>
       <use style="stroke:#000000;stroke-width:0.6;" x="178.066286" xlink:href="#medd0504e18" y="298.944"/>
      </g>
     </g>
    </g>
    <g id="xtick_7">
     <g id="line2d_17">
      <path clip-path="url(#p23ff29e2c0)" d="M 258.377143 298.944 
L 258.377143 27.648 
" style="fill:none;stroke:#b0b0b0;stroke-linecap:square;stroke-width:0.8;"/>
     </g>
     <g id="line2d_18">
      <g>
       <use style="stroke:#000000;stroke-width:0.6;" x="258.377143" xlink:href="#medd0504e18" y="298.944"/>
      </g>
     </g>
    </g>
    <g id="xtick_8">
     <g id="line2d_19">
      <path clip-path="url(#p23ff29e2c0)" d="M 338.688 298.944 
L 338.688 27.648 
" style="fill:none;stroke:#b0b0b0;stroke-linecap:square;stroke-width:0.8;"/>
     </g>
     <g id="line2d_20">
      <g>
       <use style="stroke:#000000;stroke-width:0.6;" x="338.688" xlink:href="#medd0504e18" y="298.944"/>
      </g>
     </g>
    </g>
    <g id="text_5">
     <!-- log10(# f-evals / dimension) -->
     <g transform="translate(77.764078 342.217594)scale(0.17 -0.17)">
      <defs>
       <path d="M 9.421875 75.984375 
L 18.40625 75.984375 
L 18.40625 0 
L 9.421875 0 
z
" id="DejaVuSans-108"/>
       <path d="M 30.609375 48.390625 
Q 23.390625 48.390625 19.1875 42.75 
Q 14.984375 37.109375 14.984375 27.296875 
Q 14.984375 17.484375 19.15625 11.84375 
Q 23.34375 6.203125 30.609375 6.203125 
Q 37.796875 6.203125 41.984375 11.859375 
Q 46.1875 17.53125 46.1875 27.296875 
Q 46.1875 37.015625 41.984375 42.703125 
Q 37.796875 48.390625 30.609375 48.390625 
z
M 30.609375 56 
Q 42.328125 56 49.015625 48.375 
Q 55.71875 40.765625 55.71875 27.296875 
Q 55.71875 13.875 49.015625 6.21875 
Q 42.328125 -1.421875 30.609375 -1.421875 
Q 18.84375 -1.421875 12.171875 6.21875 
Q 5.515625 13.875 5.515625 27.296875 
Q 5.515625 40.765625 12.171875 48.375 
Q 18.84375 56 30.609375 56 
z
" id="DejaVuSans-111"/>
       <path d="M 45.40625 27.984375 
Q 45.40625 37.75 41.375 43.109375 
Q 37.359375 48.484375 30.078125 48.484375 
Q 22.859375 48.484375 18.828125 43.109375 
Q 14.796875 37.75 14.796875 27.984375 
Q 14.796875 18.265625 18.828125 12.890625 
Q 22.859375 7.515625 30.078125 7.515625 
Q 37.359375 7.515625 41.375 12.890625 
Q 45.40625 18.265625 45.40625 27.984375 
z
M 54.390625 6.78125 
Q 54.390625 -7.171875 48.1875 -13.984375 
Q 42 -20.796875 29.203125 -20.796875 
Q 24.46875 -20.796875 20.265625 -20.09375 
Q 16.0625 -19.390625 12.109375 -17.921875 
L 12.109375 -9.1875 
Q 16.0625 -11.328125 19.921875 -12.34375 
Q 23.78125 -13.375 27.78125 -13.375 
Q 36.625 -13.375 41.015625 -8.765625 
Q 45.40625 -4.15625 45.40625 5.171875 
L 45.40625 9.625 
Q 42.625 4.78125 38.28125 2.390625 
Q 33.9375 0 27.875 0 
Q 17.828125 0 11.671875 7.65625 
Q 5.515625 15.328125 5.515625 27.984375 
Q 5.515625 40.671875 11.671875 48.328125 
Q 17.828125 56 27.875 56 
Q 33.9375 56 38.28125 53.609375 
Q 42.625 51.21875 45.40625 46.390625 
L 45.40625 54.6875 
L 54.390625 54.6875 
z
" id="DejaVuSans-103"/>
       <path d="M 12.40625 8.296875 
L 28.515625 8.296875 
L 28.515625 63.921875 
L 10.984375 60.40625 
L 10.984375 69.390625 
L 28.421875 72.90625 
L 38.28125 72.90625 
L 38.28125 8.296875 
L 54.390625 8.296875 
L 54.390625 0 
L 12.40625 0 
z
" id="DejaVuSans-49"/>
       <path d="M 31 75.875 
Q 24.46875 64.65625 21.28125 53.65625 
Q 18.109375 42.671875 18.109375 31.390625 
Q 18.109375 20.125 21.3125 9.0625 
Q 24.515625 -2 31 -13.1875 
L 23.1875 -13.1875 
Q 15.875 -1.703125 12.234375 9.375 
Q 8.59375 20.453125 8.59375 31.390625 
Q 8.59375 42.28125 12.203125 53.3125 
Q 15.828125 64.359375 23.1875 75.875 
z
" id="DejaVuSans-40"/>
       <path d="M 51.125 44 
L 36.921875 44 
L 32.8125 27.6875 
L 47.125 27.6875 
z
M 43.796875 71.78125 
L 38.71875 51.515625 
L 52.984375 51.515625 
L 58.109375 71.78125 
L 65.921875 71.78125 
L 60.890625 51.515625 
L 76.125 51.515625 
L 76.125 44 
L 58.984375 44 
L 54.984375 27.6875 
L 70.515625 27.6875 
L 70.515625 20.21875 
L 53.078125 20.21875 
L 48 0 
L 40.1875 0 
L 45.21875 20.21875 
L 30.90625 20.21875 
L 25.875 0 
L 18.015625 0 
L 23.09375 20.21875 
L 7.71875 20.21875 
L 7.71875 27.6875 
L 24.90625 27.6875 
L 29 44 
L 13.28125 44 
L 13.28125 51.515625 
L 30.90625 51.515625 
L 35.890625 71.78125 
z
" id="DejaVuSans-35"/>
       <path id="DejaVuSans-32"/>
       <path d="M 37.109375 75.984375 
L 37.109375 68.5 
L 28.515625 68.5 
Q 23.6875 68.5 21.796875 66.546875 
Q 19.921875 64.59375 19.921875 59.515625 
L 19.921875 54.6875 
L 34.71875 54.6875 
L 34.71875 47.703125 
L 19.921875 47.703125 
L 19.921875 0 
L 10.890625 0 
L 10.890625 47.703125 
L 2.296875 47.703125 
L 2.296875 54.6875 
L 10.890625 54.6875 
L 10.890625 58.5 
Q 10.890625 67.625 15.140625 71.796875 
Q 19.390625 75.984375 28.609375 75.984375 
z
" id="DejaVuSans-102"/>
       <path d="M 4.890625 31.390625 
L 31.203125 31.390625 
L 31.203125 23.390625 
L 4.890625 23.390625 
z
" id="DejaVuSans-45"/>
       <path d="M 56.203125 29.59375 
L 56.203125 25.203125 
L 14.890625 25.203125 
Q 15.484375 15.921875 20.484375 11.0625 
Q 25.484375 6.203125 34.421875 6.203125 
Q 39.59375 6.203125 44.453125 7.46875 
Q 49.3125 8.734375 54.109375 11.28125 
L 54.109375 2.78125 
Q 49.265625 0.734375 44.1875 -0.34375 
Q 39.109375 -1.421875 33.890625 -1.421875 
Q 20.796875 -1.421875 13.15625 6.1875 
Q 5.515625 13.8125 5.515625 26.8125 
Q 5.515625 40.234375 12.765625 48.109375 
Q 20.015625 56 32.328125 56 
Q 43.359375 56 49.78125 48.890625 
Q 56.203125 41.796875 56.203125 29.59375 
z
M 47.21875 32.234375 
Q 47.125 39.59375 43.09375 43.984375 
Q 39.0625 48.390625 32.421875 48.390625 
Q 24.90625 48.390625 20.390625 44.140625 
Q 15.875 39.890625 15.1875 32.171875 
z
" id="DejaVuSans-101"/>
       <path d="M 2.984375 54.6875 
L 12.5 54.6875 
L 29.59375 8.796875 
L 46.6875 54.6875 
L 56.203125 54.6875 
L 35.6875 0 
L 23.484375 0 
z
" id="DejaVuSans-118"/>
       <path d="M 34.28125 27.484375 
Q 23.390625 27.484375 19.1875 25 
Q 14.984375 22.515625 14.984375 16.5 
Q 14.984375 11.71875 18.140625 8.90625 
Q 21.296875 6.109375 26.703125 6.109375 
Q 34.1875 6.109375 38.703125 11.40625 
Q 43.21875 16.703125 43.21875 25.484375 
L 43.21875 27.484375 
z
M 52.203125 31.203125 
L 52.203125 0 
L 43.21875 0 
L 43.21875 8.296875 
Q 40.140625 3.328125 35.546875 0.953125 
Q 30.953125 -1.421875 24.3125 -1.421875 
Q 15.921875 -1.421875 10.953125 3.296875 
Q 6 8.015625 6 15.921875 
Q 6 25.140625 12.171875 29.828125 
Q 18.359375 34.515625 30.609375 34.515625 
L 43.21875 34.515625 
L 43.21875 35.40625 
Q 43.21875 41.609375 39.140625 45 
Q 35.0625 48.390625 27.6875 48.390625 
Q 23 48.390625 18.546875 47.265625 
Q 14.109375 46.140625 10.015625 43.890625 
L 10.015625 52.203125 
Q 14.9375 54.109375 19.578125 55.046875 
Q 24.21875 56 28.609375 56 
Q 40.484375 56 46.34375 49.84375 
Q 52.203125 43.703125 52.203125 31.203125 
z
" id="DejaVuSans-97"/>
       <path d="M 44.28125 53.078125 
L 44.28125 44.578125 
Q 40.484375 46.53125 36.375 47.5 
Q 32.28125 48.484375 27.875 48.484375 
Q 21.1875 48.484375 17.84375 46.4375 
Q 14.5 44.390625 14.5 40.28125 
Q 14.5 37.15625 16.890625 35.375 
Q 19.28125 33.59375 26.515625 31.984375 
L 29.59375 31.296875 
Q 39.15625 29.25 43.1875 25.515625 
Q 47.21875 21.78125 47.21875 15.09375 
Q 47.21875 7.46875 41.1875 3.015625 
Q 35.15625 -1.421875 24.609375 -1.421875 
Q 20.21875 -1.421875 15.453125 -0.5625 
Q 10.6875 0.296875 5.421875 2 
L 5.421875 11.28125 
Q 10.40625 8.6875 15.234375 7.390625 
Q 20.0625 6.109375 24.8125 6.109375 
Q 31.15625 6.109375 34.5625 8.28125 
Q 37.984375 10.453125 37.984375 14.40625 
Q 37.984375 18.0625 35.515625 20.015625 
Q 33.0625 21.96875 24.703125 23.78125 
L 21.578125 24.515625 
Q 13.234375 26.265625 9.515625 29.90625 
Q 5.8125 33.546875 5.8125 39.890625 
Q 5.8125 47.609375 11.28125 51.796875 
Q 16.75 56 26.8125 56 
Q 31.78125 56 36.171875 55.265625 
Q 40.578125 54.546875 44.28125 53.078125 
z
" id="DejaVuSans-115"/>
       <path d="M 25.390625 72.90625 
L 33.6875 72.90625 
L 8.296875 -9.28125 
L 0 -9.28125 
z
" id="DejaVuSans-47"/>
       <path d="M 45.40625 46.390625 
L 45.40625 75.984375 
L 54.390625 75.984375 
L 54.390625 0 
L 45.40625 0 
L 45.40625 8.203125 
Q 42.578125 3.328125 38.25 0.953125 
Q 33.9375 -1.421875 27.875 -1.421875 
Q 17.96875 -1.421875 11.734375 6.484375 
Q 5.515625 14.40625 5.515625 27.296875 
Q 5.515625 40.1875 11.734375 48.09375 
Q 17.96875 56 27.875 56 
Q 33.9375 56 38.25 53.625 
Q 42.578125 51.265625 45.40625 46.390625 
z
M 14.796875 27.296875 
Q 14.796875 17.390625 18.875 11.75 
Q 22.953125 6.109375 30.078125 6.109375 
Q 37.203125 6.109375 41.296875 11.75 
Q 45.40625 17.390625 45.40625 27.296875 
Q 45.40625 37.203125 41.296875 42.84375 
Q 37.203125 48.484375 30.078125 48.484375 
Q 22.953125 48.484375 18.875 42.84375 
Q 14.796875 37.203125 14.796875 27.296875 
z
" id="DejaVuSans-100"/>
       <path d="M 9.421875 54.6875 
L 18.40625 54.6875 
L 18.40625 0 
L 9.421875 0 
z
M 9.421875 75.984375 
L 18.40625 75.984375 
L 18.40625 64.59375 
L 9.421875 64.59375 
z
" id="DejaVuSans-105"/>
       <path d="M 52 44.1875 
Q 55.375 50.25 60.0625 53.125 
Q 64.75 56 71.09375 56 
Q 79.640625 56 84.28125 50.015625 
Q 88.921875 44.046875 88.921875 33.015625 
L 88.921875 0 
L 79.890625 0 
L 79.890625 32.71875 
Q 79.890625 40.578125 77.09375 44.375 
Q 74.3125 48.1875 68.609375 48.1875 
Q 61.625 48.1875 57.5625 43.546875 
Q 53.515625 38.921875 53.515625 30.90625 
L 53.515625 0 
L 44.484375 0 
L 44.484375 32.71875 
Q 44.484375 40.625 41.703125 44.40625 
Q 38.921875 48.1875 33.109375 48.1875 
Q 26.21875 48.1875 22.15625 43.53125 
Q 18.109375 38.875 18.109375 30.90625 
L 18.109375 0 
L 9.078125 0 
L 9.078125 54.6875 
L 18.109375 54.6875 
L 18.109375 46.1875 
Q 21.1875 51.21875 25.484375 53.609375 
Q 29.78125 56 35.6875 56 
Q 41.65625 56 45.828125 52.96875 
Q 50 49.953125 52 44.1875 
z
" id="DejaVuSans-109"/>
       <path d="M 54.890625 33.015625 
L 54.890625 0 
L 45.90625 0 
L 45.90625 32.71875 
Q 45.90625 40.484375 42.875 44.328125 
Q 39.84375 48.1875 33.796875 48.1875 
Q 26.515625 48.1875 22.3125 43.546875 
Q 18.109375 38.921875 18.109375 30.90625 
L 18.109375 0 
L 9.078125 0 
L 9.078125 54.6875 
L 18.109375 54.6875 
L 18.109375 46.1875 
Q 21.34375 51.125 25.703125 53.5625 
Q 30.078125 56 35.796875 56 
Q 45.21875 56 50.046875 50.171875 
Q 54.890625 44.34375 54.890625 33.015625 
z
" id="DejaVuSans-110"/>
       <path d="M 8.015625 75.875 
L 15.828125 75.875 
Q 23.140625 64.359375 26.78125 53.3125 
Q 30.421875 42.28125 30.421875 31.390625 
Q 30.421875 20.453125 26.78125 9.375 
Q 23.140625 -1.703125 15.828125 -13.1875 
L 8.015625 -13.1875 
Q 14.5 -2 17.703125 9.0625 
Q 20.90625 20.125 20.90625 31.390625 
Q 20.90625 42.671875 17.703125 53.65625 
Q 14.5 64.65625 8.015625 75.875 
z
" id="DejaVuSans-41"/>
      </defs>
      <use xlink:href="#DejaVuSans-108"/>
      <use x="27.783203" xlink:href="#DejaVuSans-111"/>
      <use x="88.964844" xlink:href="#DejaVuSans-103"/>
      <use x="152.441406" xlink:href="#DejaVuSans-49"/>
      <use x="216.064453" xlink:href="#DejaVuSans-48"/>
      <use x="279.6875" xlink:href="#DejaVuSans-40"/>
      <use x="318.701172" xlink:href="#DejaVuSans-35"/>
      <use x="402.490234" xlink:href="#DejaVuSans-32"/>
      <use x="434.277344" xlink:href="#DejaVuSans-102"/>
      <use x="463.982422" xlink:href="#DejaVuSans-45"/>
      <use x="500.066406" xlink:href="#DejaVuSans-101"/>
      <use x="561.589844" xlink:href="#DejaVuSans-118"/>
      <use x="620.769531" xlink:href="#DejaVuSans-97"/>
      <use x="682.048828" xlink:href="#DejaVuSans-108"/>
      <use x="709.832031" xlink:href="#DejaVuSans-115"/>
      <use x="761.931641" xlink:href="#DejaVuSans-32"/>
      <use x="793.71875" xlink:href="#DejaVuSans-47"/>
      <use x="827.410156" xlink:href="#DejaVuSans-32"/>
      <use x="859.197266" xlink:href="#DejaVuSans-100"/>
      <use x="922.673828" xlink:href="#DejaVuSans-105"/>
      <use x="950.457031" xlink:href="#DejaVuSans-109"/>
      <use x="1047.869141" xlink:href="#DejaVuSans-101"/>
      <use x="1109.392578" xlink:href="#DejaVuSans-110"/>
      <use x="1172.771484" xlink:href="#DejaVuSans-115"/>
      <use x="1224.871094" xlink:href="#DejaVuSans-105"/>
      <use x="1252.654297" xlink:href="#DejaVuSans-111"/>
      <use x="1313.835938" xlink:href="#DejaVuSans-110"/>
      <use x="1377.214844" xlink:href="#DejaVuSans-41"/>
     </g>
    </g>
   </g>
   <g id="matplotlib.axis_2">
    <g id="ytick_1">
     <g id="line2d_21">
      <path clip-path="url(#p23ff29e2c0)" d="M 57.6 298.944 
L 338.688 298.944 
" style="fill:none;stroke:#b0b0b0;stroke-linecap:square;stroke-width:0.8;"/>
     </g>
     <g id="line2d_22">
      <defs>
       <path d="M 0 0 
L -3.5 0 
" id="m062d1a8c6b" style="stroke:#000000;stroke-width:0.8;"/>
      </defs>
      <g>
       <use style="stroke:#000000;stroke-width:0.8;" x="57.6" xlink:href="#m062d1a8c6b" y="298.944"/>
      </g>
     </g>
     <g id="text_6">
      <!-- 0.0 -->
      <g transform="translate(25.155 305.02275)scale(0.16 -0.16)">
       <defs>
        <path d="M 10.6875 12.40625 
L 21 12.40625 
L 21 0 
L 10.6875 0 
z
" id="DejaVuSans-46"/>
       </defs>
       <use xlink:href="#DejaVuSans-48"/>
       <use x="63.623047" xlink:href="#DejaVuSans-46"/>
       <use x="95.410156" xlink:href="#DejaVuSans-48"/>
      </g>
     </g>
    </g>
    <g id="ytick_2">
     <g id="line2d_23">
      <path clip-path="url(#p23ff29e2c0)" d="M 57.6 245.22202 
L 338.688 245.22202 
" style="fill:none;stroke:#b0b0b0;stroke-linecap:square;stroke-width:0.8;"/>
     </g>
     <g id="line2d_24">
      <g>
       <use style="stroke:#000000;stroke-width:0.8;" x="57.6" xlink:href="#m062d1a8c6b" y="245.22202"/>
      </g>
     </g>
     <g id="text_7">
      <!-- 0.2 -->
      <g transform="translate(25.155 251.30077)scale(0.16 -0.16)">
       <use xlink:href="#DejaVuSans-48"/>
       <use x="63.623047" xlink:href="#DejaVuSans-46"/>
       <use x="95.410156" xlink:href="#DejaVuSans-50"/>
      </g>
     </g>
    </g>
    <g id="ytick_3">
     <g id="line2d_25">
      <path clip-path="url(#p23ff29e2c0)" d="M 57.6 191.50004 
L 338.688 191.50004 
" style="fill:none;stroke:#b0b0b0;stroke-linecap:square;stroke-width:0.8;"/>
     </g>
     <g id="line2d_26">
      <g>
       <use style="stroke:#000000;stroke-width:0.8;" x="57.6" xlink:href="#m062d1a8c6b" y="191.50004"/>
      </g>
     </g>
     <g id="text_8">
      <!-- 0.4 -->
      <g transform="translate(25.155 197.57879)scale(0.16 -0.16)">
       <use xlink:href="#DejaVuSans-48"/>
       <use x="63.623047" xlink:href="#DejaVuSans-46"/>
       <use x="95.410156" xlink:href="#DejaVuSans-52"/>
      </g>
     </g>
    </g>
    <g id="ytick_4">
     <g id="line2d_27">
      <path clip-path="url(#p23ff29e2c0)" d="M 57.6 137.778059 
L 338.688 137.778059 
" style="fill:none;stroke:#b0b0b0;stroke-linecap:square;stroke-width:0.8;"/>
     </g>
     <g id="line2d_28">
      <g>
       <use style="stroke:#000000;stroke-width:0.8;" x="57.6" xlink:href="#m062d1a8c6b" y="137.778059"/>
      </g>
     </g>
     <g id="text_9">
      <!-- 0.6 -->
      <g transform="translate(25.155 143.856809)scale(0.16 -0.16)">
       <use xlink:href="#DejaVuSans-48"/>
       <use x="63.623047" xlink:href="#DejaVuSans-46"/>
       <use x="95.410156" xlink:href="#DejaVuSans-54"/>
      </g>
     </g>
    </g>
    <g id="ytick_5">
     <g id="line2d_29">
      <path clip-path="url(#p23ff29e2c0)" d="M 57.6 84.056079 
L 338.688 84.056079 
" style="fill:none;stroke:#b0b0b0;stroke-linecap:square;stroke-width:0.8;"/>
     </g>
     <g id="line2d_30">
      <g>
       <use style="stroke:#000000;stroke-width:0.8;" x="57.6" xlink:href="#m062d1a8c6b" y="84.056079"/>
      </g>
     </g>
     <g id="text_10">
      <!-- 0.8 -->
      <g transform="translate(25.155 90.134829)scale(0.16 -0.16)">
       <defs>
        <path d="M 31.78125 34.625 
Q 24.75 34.625 20.71875 30.859375 
Q 16.703125 27.09375 16.703125 20.515625 
Q 16.703125 13.921875 20.71875 10.15625 
Q 24.75 6.390625 31.78125 6.390625 
Q 38.8125 6.390625 42.859375 10.171875 
Q 46.921875 13.96875 46.921875 20.515625 
Q 46.921875 27.09375 42.890625 30.859375 
Q 38.875 34.625 31.78125 34.625 
z
M 21.921875 38.8125 
Q 15.578125 40.375 12.03125 44.71875 
Q 8.5 49.078125 8.5 55.328125 
Q 8.5 64.0625 14.71875 69.140625 
Q 20.953125 74.21875 31.78125 74.21875 
Q 42.671875 74.21875 48.875 69.140625 
Q 55.078125 64.0625 55.078125 55.328125 
Q 55.078125 49.078125 51.53125 44.71875 
Q 48 40.375 41.703125 38.8125 
Q 48.828125 37.15625 52.796875 32.3125 
Q 56.78125 27.484375 56.78125 20.515625 
Q 56.78125 9.90625 50.3125 4.234375 
Q 43.84375 -1.421875 31.78125 -1.421875 
Q 19.734375 -1.421875 13.25 4.234375 
Q 6.78125 9.90625 6.78125 20.515625 
Q 6.78125 27.484375 10.78125 32.3125 
Q 14.796875 37.15625 21.921875 38.8125 
z
M 18.3125 54.390625 
Q 18.3125 48.734375 21.84375 45.5625 
Q 25.390625 42.390625 31.78125 42.390625 
Q 38.140625 42.390625 41.71875 45.5625 
Q 45.3125 48.734375 45.3125 54.390625 
Q 45.3125 60.0625 41.71875 63.234375 
Q 38.140625 66.40625 31.78125 66.40625 
Q 25.390625 66.40625 21.84375 63.234375 
Q 18.3125 60.0625 18.3125 54.390625 
z
" id="DejaVuSans-56"/>
       </defs>
       <use xlink:href="#DejaVuSans-48"/>
       <use x="63.623047" xlink:href="#DejaVuSans-46"/>
       <use x="95.410156" xlink:href="#DejaVuSans-56"/>
      </g>
     </g>
    </g>
    <g id="ytick_6">
     <g id="line2d_31">
      <path clip-path="url(#p23ff29e2c0)" d="M 57.6 30.334099 
L 338.688 30.334099 
" style="fill:none;stroke:#b0b0b0;stroke-linecap:square;stroke-width:0.8;"/>
     </g>
     <g id="line2d_32">
      <g>
       <use style="stroke:#000000;stroke-width:0.8;" x="57.6" xlink:href="#m062d1a8c6b" y="30.334099"/>
      </g>
     </g>
     <g id="text_11">
      <!-- 1.0 -->
      <g transform="translate(25.155 36.412849)scale(0.16 -0.16)">
       <use xlink:href="#DejaVuSans-49"/>
       <use x="63.623047" xlink:href="#DejaVuSans-46"/>
       <use x="95.410156" xlink:href="#DejaVuSans-48"/>
      </g>
     </g>
    </g>
    <g id="text_12">
     <!-- Fraction of function,target pairs -->
     <g transform="translate(17.619531 297.681)rotate(-90)scale(0.17 -0.17)">
      <defs>
       <path d="M 9.8125 72.90625 
L 51.703125 72.90625 
L 51.703125 64.59375 
L 19.671875 64.59375 
L 19.671875 43.109375 
L 48.578125 43.109375 
L 48.578125 34.8125 
L 19.671875 34.8125 
L 19.671875 0 
L 9.8125 0 
z
" id="DejaVuSans-70"/>
       <path d="M 41.109375 46.296875 
Q 39.59375 47.171875 37.8125 47.578125 
Q 36.03125 48 33.890625 48 
Q 26.265625 48 22.1875 43.046875 
Q 18.109375 38.09375 18.109375 28.8125 
L 18.109375 0 
L 9.078125 0 
L 9.078125 54.6875 
L 18.109375 54.6875 
L 18.109375 46.1875 
Q 20.953125 51.171875 25.484375 53.578125 
Q 30.03125 56 36.53125 56 
Q 37.453125 56 38.578125 55.875 
Q 39.703125 55.765625 41.0625 55.515625 
z
" id="DejaVuSans-114"/>
       <path d="M 48.78125 52.59375 
L 48.78125 44.1875 
Q 44.96875 46.296875 41.140625 47.34375 
Q 37.3125 48.390625 33.40625 48.390625 
Q 24.65625 48.390625 19.8125 42.84375 
Q 14.984375 37.3125 14.984375 27.296875 
Q 14.984375 17.28125 19.8125 11.734375 
Q 24.65625 6.203125 33.40625 6.203125 
Q 37.3125 6.203125 41.140625 7.25 
Q 44.96875 8.296875 48.78125 10.40625 
L 48.78125 2.09375 
Q 45.015625 0.34375 40.984375 -0.53125 
Q 36.96875 -1.421875 32.421875 -1.421875 
Q 20.0625 -1.421875 12.78125 6.34375 
Q 5.515625 14.109375 5.515625 27.296875 
Q 5.515625 40.671875 12.859375 48.328125 
Q 20.21875 56 33.015625 56 
Q 37.15625 56 41.109375 55.140625 
Q 45.0625 54.296875 48.78125 52.59375 
z
" id="DejaVuSans-99"/>
       <path d="M 18.3125 70.21875 
L 18.3125 54.6875 
L 36.8125 54.6875 
L 36.8125 47.703125 
L 18.3125 47.703125 
L 18.3125 18.015625 
Q 18.3125 11.328125 20.140625 9.421875 
Q 21.96875 7.515625 27.59375 7.515625 
L 36.8125 7.515625 
L 36.8125 0 
L 27.59375 0 
Q 17.1875 0 13.234375 3.875 
Q 9.28125 7.765625 9.28125 18.015625 
L 9.28125 47.703125 
L 2.6875 47.703125 
L 2.6875 54.6875 
L 9.28125 54.6875 
L 9.28125 70.21875 
z
" id="DejaVuSans-116"/>
       <path d="M 8.5 21.578125 
L 8.5 54.6875 
L 17.484375 54.6875 
L 17.484375 21.921875 
Q 17.484375 14.15625 20.5 10.265625 
Q 23.53125 6.390625 29.59375 6.390625 
Q 36.859375 6.390625 41.078125 11.03125 
Q 45.3125 15.671875 45.3125 23.6875 
L 45.3125 54.6875 
L 54.296875 54.6875 
L 54.296875 0 
L 45.3125 0 
L 45.3125 8.40625 
Q 42.046875 3.421875 37.71875 1 
Q 33.40625 -1.421875 27.6875 -1.421875 
Q 18.265625 -1.421875 13.375 4.4375 
Q 8.5 10.296875 8.5 21.578125 
z
M 31.109375 56 
z
" id="DejaVuSans-117"/>
       <path d="M 11.71875 12.40625 
L 22.015625 12.40625 
L 22.015625 4 
L 14.015625 -11.625 
L 7.71875 -11.625 
L 11.71875 4 
z
" id="DejaVuSans-44"/>
       <path d="M 18.109375 8.203125 
L 18.109375 -20.796875 
L 9.078125 -20.796875 
L 9.078125 54.6875 
L 18.109375 54.6875 
L 18.109375 46.390625 
Q 20.953125 51.265625 25.265625 53.625 
Q 29.59375 56 35.59375 56 
Q 45.5625 56 51.78125 48.09375 
Q 58.015625 40.1875 58.015625 27.296875 
Q 58.015625 14.40625 51.78125 6.484375 
Q 45.5625 -1.421875 35.59375 -1.421875 
Q 29.59375 -1.421875 25.265625 0.953125 
Q 20.953125 3.328125 18.109375 8.203125 
z
M 48.6875 27.296875 
Q 48.6875 37.203125 44.609375 42.84375 
Q 40.53125 48.484375 33.40625 48.484375 
Q 26.265625 48.484375 22.1875 42.84375 
Q 18.109375 37.203125 18.109375 27.296875 
Q 18.109375 17.390625 22.1875 11.75 
Q 26.265625 6.109375 33.40625 6.109375 
Q 40.53125 6.109375 44.609375 11.75 
Q 48.6875 17.390625 48.6875 27.296875 
z
" id="DejaVuSans-112"/>
      </defs>
      <use xlink:href="#DejaVuSans-70"/>
      <use x="50.269531" xlink:href="#DejaVuSans-114"/>
      <use x="91.382812" xlink:href="#DejaVuSans-97"/>
      <use x="152.662109" xlink:href="#DejaVuSans-99"/>
      <use x="207.642578" xlink:href="#DejaVuSans-116"/>
      <use x="246.851562" xlink:href="#DejaVuSans-105"/>
      <use x="274.634766" xlink:href="#DejaVuSans-111"/>
      <use x="335.816406" xlink:href="#DejaVuSans-110"/>
      <use x="399.195312" xlink:href="#DejaVuSans-32"/>
      <use x="430.982422" xlink:href="#DejaVuSans-111"/>
      <use x="492.164062" xlink:href="#DejaVuSans-102"/>
      <use x="527.369141" xlink:href="#DejaVuSans-32"/>
      <use x="559.15625" xlink:href="#DejaVuSans-102"/>
      <use x="594.361328" xlink:href="#DejaVuSans-117"/>
      <use x="657.740234" xlink:href="#DejaVuSans-110"/>
      <use x="721.119141" xlink:href="#DejaVuSans-99"/>
      <use x="776.099609" xlink:href="#DejaVuSans-116"/>
      <use x="815.308594" xlink:href="#DejaVuSans-105"/>
      <use x="843.091797" xlink:href="#DejaVuSans-111"/>
      <use x="904.273438" xlink:href="#DejaVuSans-110"/>
      <use x="967.652344" xlink:href="#DejaVuSans-44"/>
      <use x="999.439453" xlink:href="#DejaVuSans-116"/>
      <use x="1038.648438" xlink:href="#DejaVuSans-97"/>
      <use x="1099.927734" xlink:href="#DejaVuSans-114"/>
      <use x="1139.291016" xlink:href="#DejaVuSans-103"/>
      <use x="1202.767578" xlink:href="#DejaVuSans-101"/>
      <use x="1264.291016" xlink:href="#DejaVuSans-116"/>
      <use x="1303.5" xlink:href="#DejaVuSans-32"/>
      <use x="1335.287109" xlink:href="#DejaVuSans-112"/>
      <use x="1398.763672" xlink:href="#DejaVuSans-97"/>
      <use x="1460.042969" xlink:href="#DejaVuSans-105"/>
      <use x="1487.826172" xlink:href="#DejaVuSans-114"/>
      <use x="1528.939453" xlink:href="#DejaVuSans-115"/>
     </g>
    </g>
   </g>
   <g id="line2d_33">
    <defs>
     <path d="M 0 1.5 
C 0.397805 1.5 0.77937 1.341951 1.06066 1.06066 
C 1.341951 0.77937 1.5 0.397805 1.5 0 
C 1.5 -0.397805 1.341951 -0.77937 1.06066 -1.06066 
C 0.77937 -1.341951 0.397805 -1.5 0 -1.5 
C -0.397805 -1.5 -0.77937 -1.341951 -1.06066 -1.06066 
C -1.341951 -0.77937 -1.5 -0.397805 -1.5 0 
C -1.5 0.397805 -1.341951 0.77937 -1.06066 1.06066 
C -0.77937 1.341951 -0.397805 1.5 0 1.5 
z
" id="m4d729d68c0" style="stroke:#f5deb3;"/>
    </defs>
    <g>
     <use style="fill:#f5deb3;stroke:#f5deb3;" x="231.035889" xlink:href="#m4d729d68c0" y="62.752535"/>
     <use style="fill:#f5deb3;stroke:#f5deb3;" x="231.035889" xlink:href="#m4d729d68c0" y="62.752535"/>
    </g>
   </g>
   <g id="line2d_34">
    <defs>
     <path d="M 0 1.5 
C 0.397805 1.5 0.77937 1.341951 1.06066 1.06066 
C 1.341951 0.77937 1.5 0.397805 1.5 0 
C 1.5 -0.397805 1.341951 -0.77937 1.06066 -1.06066 
C 0.77937 -1.341951 0.397805 -1.5 0 -1.5 
C -0.397805 -1.5 -0.77937 -1.341951 -1.06066 -1.06066 
C -1.341951 -0.77937 -1.5 -0.397805 -1.5 0 
C -1.5 0.397805 -1.341951 0.77937 -1.06066 1.06066 
C -0.77937 1.341951 -0.397805 1.5 0 1.5 
z
" id="mea2fe9843f" style="stroke:#000080;"/>
    </defs>
    <g>
     <use style="fill:#000080;stroke:#000080;" x="249.161768" xlink:href="#mea2fe9843f" y="78.498633"/>
     <use style="fill:#000080;stroke:#000080;" x="249.161768" xlink:href="#mea2fe9843f" y="78.498633"/>
    </g>
   </g>
   <g id="line2d_35">
    <path d="M 29.53256 298.944 
L 29.53256 296.628397 
L 41.620548 296.628397 
L 41.620548 293.386554 
L 48.691568 293.386554 
L 48.691568 289.218469 
L 53.708537 289.218469 
L 53.708537 288.755349 
L 57.6 288.755349 
L 57.6 288.292228 
L 60.779557 288.292228 
L 60.779557 287.829108 
L 63.467834 287.829108 
L 63.467834 286.902867 
L 65.796525 286.902867 
L 65.796525 285.976625 
L 72.867545 285.976625 
L 72.867545 285.513505 
L 74.263433 285.513505 
L 74.263433 285.050384 
L 76.759008 285.050384 
L 76.759008 284.587264 
L 78.941764 284.587264 
L 78.941764 284.124143 
L 79.938565 284.124143 
L 79.938565 283.197902 
L 81.775977 283.197902 
L 81.775977 281.808541 
L 82.626842 281.808541 
L 82.626842 280.8823 
L 83.438118 280.8823 
L 83.438118 279.956059 
L 84.213325 279.956059 
L 84.213325 279.492938 
L 84.955534 279.492938 
L 84.955534 279.029818 
L 87.009585 279.029818 
L 87.009585 278.566697 
L 87.643811 278.566697 
L 87.643811 278.103577 
L 91.029752 278.103577 
L 91.029752 277.640456 
L 92.504372 277.640456 
L 92.504372 277.177336 
L 93.422441 277.177336 
L 93.422441 276.714215 
L 94.714831 276.714215 
L 94.714831 275.324854 
L 95.125186 275.324854 
L 95.125186 274.861733 
L 95.918017 274.861733 
L 95.918017 273.935492 
L 98.43941 273.935492 
L 98.43941 268.378046 
L 101.785851 268.378046 
L 101.785851 266.988684 
L 102.597126 266.988684 
L 102.597126 266.062443 
L 107.213174 266.062443 
L 107.213174 264.673082 
L 108.764355 264.673082 
L 108.764355 264.209961 
L 109.131511 264.209961 
L 109.131511 263.746841 
L 110.694282 263.746841 
L 110.694282 263.28372 
L 111.505558 263.28372 
L 111.505558 260.968117 
L 111.819788 260.968117 
L 111.819788 258.652515 
L 112.877038 258.652515 
L 112.877038 258.189394 
L 114.0117 258.189394 
L 114.0117 256.336912 
L 115.205729 256.336912 
L 115.205729 255.873792 
L 115.33349 255.873792 
L 115.33349 255.410671 
L 116.914437 255.410671 
L 116.914437 253.095069 
L 118.363901 253.095069 
L 118.363901 251.705707 
L 119.40226 251.705707 
L 119.40226 250.779466 
L 120.286695 250.779466 
L 120.286695 250.316346 
L 121.579085 250.316346 
L 121.579085 249.853225 
L 122.276749 249.853225 
L 122.276749 247.074502 
L 122.699028 247.074502 
L 122.782271 244.295779 
L 123.434283 244.295779 
L 123.434283 242.906417 
L 123.593547 242.906417 
L 123.672636 241.053935 
L 124.062793 241.053935 
L 124.062793 238.738333 
L 126.439646 238.738333 
L 126.439646 238.275212 
L 128.046609 238.275212 
L 128.046609 237.812091 
L 130.61164 237.812091 
L 130.61164 237.348971 
L 131.236397 237.348971 
L 131.236397 235.959609 
L 131.389151 235.959609 
L 131.389151 235.033368 
L 134.787017 235.033368 
L 134.828688 231.791525 
L 135.401861 231.791525 
L 135.401861 231.328404 
L 135.681535 231.328404 
L 135.681535 230.865284 
L 135.956794 230.865284 
L 135.956794 230.402163 
L 136.494612 230.402163 
L 136.494612 229.475922 
L 139.188293 229.475922 
L 139.188293 228.086561 
L 139.667863 228.086561 
L 139.667863 227.62344 
L 139.793552 227.62344 
L 139.793552 226.697199 
L 140.011351 226.697199 
L 140.011351 225.770958 
L 142.539878 225.770958 
L 142.539878 223.918476 
L 142.726112 223.918476 
L 142.726112 222.992235 
L 144.099593 222.992235 
L 144.099593 222.529114 
L 146.324022 222.529114 
L 146.324022 222.065994 
L 147.749695 222.065994 
L 147.749695 220.213512 
L 150.172372 220.213512 
L 150.172372 219.750391 
L 151.080698 219.750391 
L 151.080698 217.897909 
L 151.803091 217.897909 
L 151.803091 216.508548 
L 153.552218 216.508548 
L 153.552218 216.045427 
L 153.987696 216.045427 
L 153.987696 215.119186 
L 154.167129 215.119186 
L 154.180855 213.729825 
L 154.56087 213.729825 
L 154.56087 212.803583 
L 154.880133 212.803583 
L 154.906477 211.414222 
L 156.526689 211.414222 
L 156.574599 209.56174 
L 156.812195 209.56174 
L 156.812195 209.098619 
L 159.916863 209.098619 
L 159.916863 208.635499 
L 160.594766 208.635499 
L 160.594766 208.172378 
L 160.86807 208.172378 
L 160.86807 207.709258 
L 161.474555 207.709258 
L 161.528659 205.856776 
L 163.037069 205.856776 
L 163.037069 204.930535 
L 163.299319 204.930535 
L 163.299319 204.467414 
L 163.867476 204.467414 
L 163.867476 203.541173 
L 165.746566 203.541173 
L 165.746566 203.078053 
L 165.950372 203.078053 
L 165.957358 201.225571 
L 166.068747 201.225571 
L 166.068747 198.909968 
L 166.439517 198.909968 
L 166.439517 198.446847 
L 166.981298 198.446847 
L 166.981298 197.983727 
L 167.3269 197.983727 
L 167.3269 197.057486 
L 168.512429 197.057486 
L 168.512429 196.131245 
L 168.876569 196.131245 
L 168.876569 194.278763 
L 169.314106 194.278763 
L 169.314106 193.352522 
L 169.605481 193.352522 
L 169.605481 192.889401 
L 171.129034 192.889401 
L 171.129034 191.96316 
L 174.166101 191.96316 
L 174.166101 191.50004 
L 174.387156 191.50004 
L 174.387156 191.036919 
L 174.592679 191.036919 
L 174.62245 190.110678 
L 175.083722 190.110678 
L 175.083722 188.721316 
L 176.559013 188.721316 
L 176.559013 188.258196 
L 178.605458 188.258196 
L 178.605458 187.331955 
L 179.327506 187.331955 
L 179.327506 186.868834 
L 179.958371 186.868834 
L 179.958371 185.942593 
L 181.576933 185.942593 
L 181.576933 185.016352 
L 181.800789 185.016352 
L 181.800789 184.090111 
L 181.952167 184.090111 
L 182.002336 183.16387 
L 182.116074 183.16387 
L 182.116074 182.70075 
L 182.561055 182.70075 
L 182.561055 181.774509 
L 183.188444 181.774509 
L 183.188444 179.922027 
L 183.34376 179.922027 
L 183.34376 178.995786 
L 184.298992 178.995786 
L 184.298992 178.069545 
L 185.2185 178.069545 
L 185.2185 177.606424 
L 185.514535 177.606424 
L 185.514535 175.290821 
L 187.46309 175.290821 
L 187.46309 174.36458 
L 188.819173 174.36458 
L 188.819173 173.438339 
L 189.296432 173.438339 
L 189.296432 172.512098 
L 191.665149 172.512098 
L 191.665149 172.048978 
L 192.139985 172.048978 
L 192.139985 171.122737 
L 192.489722 171.122737 
L 192.585555 170.196496 
L 193.076161 170.196496 
L 193.160028 168.807134 
L 193.52749 168.807134 
L 193.52749 168.344014 
L 194.326676 168.344014 
L 194.326676 167.417773 
L 195.238689 167.417773 
L 195.238689 166.954652 
L 196.986492 166.954652 
L 197.05472 166.028411 
L 197.186885 166.028411 
L 197.224132 163.712808 
L 197.318057 163.712808 
L 197.318057 163.249688 
L 199.118422 163.249688 
L 199.118422 162.323447 
L 199.314447 162.323447 
L 199.314447 161.860326 
L 199.670728 161.860326 
L 199.670728 161.397206 
L 200.371879 161.397206 
L 200.371879 160.007844 
L 200.714063 160.007844 
L 200.792886 158.155362 
L 201.55577 158.155362 
L 201.617336 157.229121 
L 201.951228 157.229121 
L 201.951228 156.766001 
L 202.420105 156.766001 
L 202.420105 156.30288 
L 202.904431 156.30288 
L 202.985671 154.913519 
L 204.380594 154.913519 
L 204.380594 154.450398 
L 204.511231 154.450398 
L 204.597529 151.671675 
L 205.082099 151.671675 
L 205.106533 149.819193 
L 205.432716 149.819193 
L 205.432716 149.356072 
L 205.809854 149.356072 
L 205.809854 148.892952 
L 205.978173 148.892952 
L 205.978173 148.429831 
L 206.689798 148.429831 
L 206.689798 147.966711 
L 207.336447 147.966711 
L 207.336447 147.50359 
L 207.558351 147.50359 
L 207.608421 146.114229 
L 208.092649 146.114229 
L 208.130638 144.724867 
L 208.258322 144.724867 
L 208.258322 143.798626 
L 208.498131 143.798626 
L 208.554688 142.872385 
L 209.117449 142.872385 
L 209.117449 142.409265 
L 209.260303 142.409265 
L 209.288268 141.483024 
L 209.705865 141.483024 
L 209.705865 141.019903 
L 210.002294 141.019903 
L 210.002294 140.556783 
L 210.227699 140.556783 
L 210.227699 140.093662 
L 210.352468 140.093662 
L 210.352468 139.630541 
L 211.301587 139.630541 
L 211.301587 138.7043 
L 211.430775 138.7043 
L 211.430775 138.24118 
L 212.283283 138.24118 
L 212.299945 135.925577 
L 212.555701 135.925577 
L 212.656291 134.536216 
L 212.697514 134.536216 
L 212.697514 134.073095 
L 213.351085 134.073095 
L 213.351085 133.609975 
L 213.787824 133.609975 
L 213.875754 131.757493 
L 213.909731 131.757493 
L 213.935616 130.368131 
L 214.046308 130.368131 
L 214.046308 129.44189 
L 214.262543 129.44189 
L 214.363354 127.589408 
L 215.033087 127.589408 
L 215.078254 126.663167 
L 215.190664 126.663167 
L 215.190664 126.200046 
L 215.405956 126.200046 
L 215.405956 125.736926 
L 215.808312 125.736926 
L 215.808312 125.273805 
L 216.031586 125.273805 
L 216.095533 123.884444 
L 216.404443 123.884444 
L 216.404443 123.421323 
L 216.62179 123.421323 
L 216.62179 122.958203 
L 216.791845 122.958203 
L 216.791845 122.031962 
L 217.126689 122.031962 
L 217.159341 119.253239 
L 217.356176 119.253239 
L 217.356176 118.790118 
L 217.502904 118.790118 
L 217.502904 117.863877 
L 217.972301 117.863877 
L 218.020706 116.474516 
L 218.124481 116.474516 
L 218.124481 116.011395 
L 218.318755 116.011395 
L 218.318755 115.548274 
L 218.443176 115.548274 
L 218.511917 113.695792 
L 218.783867 113.695792 
L 218.783867 113.232672 
L 218.932839 113.232672 
L 218.932839 112.306431 
L 219.20165 112.306431 
L 219.20165 111.84331 
L 219.718831 111.84331 
L 219.718831 110.917069 
L 219.872754 110.917069 
L 219.872754 110.453949 
L 220.097207 110.453949 
L 220.186871 108.138346 
L 220.432248 108.138346 
L 220.432248 107.675226 
L 220.577285 107.675226 
L 220.577285 107.212105 
L 220.737438 107.212105 
L 220.737438 106.285864 
L 220.875777 106.285864 
L 220.979113 105.359623 
L 221.076511 105.359623 
L 221.076511 104.433382 
L 221.667503 104.433382 
L 221.667503 103.970262 
L 222.32837 103.970262 
L 222.32837 103.507141 
L 222.517237 103.507141 
L 222.609417 101.654659 
L 222.787497 101.654659 
L 222.787497 101.191538 
L 222.954208 101.191538 
L 222.954208 100.728418 
L 223.496611 100.728418 
L 223.496611 100.265297 
L 223.938419 100.265297 
L 224.015899 98.875936 
L 224.619781 98.875936 
L 224.619781 98.412815 
L 224.811098 98.412815 
L 224.811098 97.486574 
L 225.011449 97.486574 
L 225.011449 96.560333 
L 225.287153 96.560333 
L 225.287153 95.634092 
L 225.50903 95.634092 
L 225.50903 95.170972 
L 225.938441 95.170972 
L 225.938441 94.707851 
L 226.416932 94.707851 
L 226.416932 93.78161 
L 226.722073 93.78161 
L 226.722073 93.31849 
L 226.840139 93.31849 
L 226.840139 92.392249 
L 227.030808 92.392249 
L 227.030808 91.929128 
L 227.952886 91.929128 
L 227.952886 91.466008 
L 228.13183 91.466008 
L 228.13183 91.002887 
L 228.282922 91.002887 
L 228.315214 89.613525 
L 229.008081 89.613525 
L 229.008081 89.150405 
L 229.1339 89.150405 
L 229.1339 88.687284 
L 229.437749 88.687284 
L 229.46596 87.761043 
L 230.354812 87.761043 
L 230.354812 86.834802 
L 231.346752 86.834802 
L 231.346752 85.908561 
L 231.468583 85.908561 
L 231.468583 84.98232 
L 231.822017 84.98232 
L 231.822017 84.5192 
L 233.029392 84.5192 
L 233.066357 83.129838 
L 233.688523 83.129838 
L 233.71494 81.277356 
L 234.197957 81.277356 
L 234.197957 80.814236 
L 237.679728 80.814236 
L 237.679728 80.351115 
L 240.42245 80.351115 
L 240.42245 79.887995 
L 248.502084 79.887995 
L 248.502084 79.424874 
L 249.161768 79.424874 
L 249.161768 78.498633 
L 338.688 78.498633 
L 338.688 78.498633 
" style="fill:none;stroke:#000080;stroke-linecap:square;stroke-width:1.5;"/>
   </g>
   <g id="line2d_36">
    <defs>
     <path d="M 0 6 
C 1.591219 6 3.117479 5.367802 4.242641 4.242641 
C 5.367802 3.117479 6 1.591219 6 0 
C 6 -1.591219 5.367802 -3.117479 4.242641 -4.242641 
C 3.117479 -5.367802 1.591219 -6 0 -6 
C -1.591219 -6 -3.117479 -5.367802 -4.242641 -4.242641 
C -5.367802 -3.117479 -6 -1.591219 -6 0 
C -6 1.591219 -5.367802 3.117479 -4.242641 4.242641 
C -3.117479 5.367802 -1.591219 6 0 6 
z
" id="m0e70e6c84f" style="stroke:#000080;stroke-width:1.5;"/>
    </defs>
    <g>
     <use style="fill-opacity:0;stroke:#000080;stroke-width:1.5;" x="74.263433" xlink:href="#m0e70e6c84f" y="285.050384"/>
     <use style="fill-opacity:0;stroke:#000080;stroke-width:1.5;" x="156.812195" xlink:href="#m0e70e6c84f" y="209.098619"/>
     <use style="fill-opacity:0;stroke:#000080;stroke-width:1.5;" x="207.608421" xlink:href="#m0e70e6c84f" y="147.04047"/>
     <use style="fill-opacity:0;stroke:#000080;stroke-width:1.5;" x="249.161768" xlink:href="#m0e70e6c84f" y="79.424874"/>
     <use style="fill-opacity:0;stroke:#000080;stroke-width:1.5;" x="249.161768" xlink:href="#m0e70e6c84f" y="78.498633"/>
     <use style="fill-opacity:0;stroke:#000080;stroke-width:1.5;" x="338.688" xlink:href="#m0e70e6c84f" y="78.498633"/>
    </g>
   </g>
   <g id="line2d_37">
    <path style="fill:none;stroke:#000080;stroke-linecap:square;stroke-width:1.5;"/>
    <g/>
   </g>
   <g id="line2d_38">
    <path clip-path="url(#p23ff29e2c0)" d="M 258.377317 78.498633 
" style="fill:none;stroke:#000080;stroke-linecap:square;stroke-width:1.5;"/>
    <defs>
     <path d="M -12 12 
L 12 -12 
M -12 -12 
L 12 12 
" id="m32c5c25057" style="stroke:#000080;"/>
    </defs>
    <g clip-path="url(#p23ff29e2c0)">
     <use style="fill:#000080;stroke:#000080;" x="258.377317" xlink:href="#m32c5c25057" y="78.498633"/>
    </g>
   </g>
   <g id="line2d_39">
    <defs>
     <path d="M 0 1.5 
C 0.397805 1.5 0.77937 1.341951 1.06066 1.06066 
C 1.341951 0.77937 1.5 0.397805 1.5 0 
C 1.5 -0.397805 1.341951 -0.77937 1.06066 -1.06066 
C 0.77937 -1.341951 0.397805 -1.5 0 -1.5 
C -0.397805 -1.5 -0.77937 -1.341951 -1.06066 -1.06066 
C -1.341951 -0.77937 -1.5 -0.397805 -1.5 0 
C -1.5 0.397805 -1.341951 0.77937 -1.06066 1.06066 
C -0.77937 1.341951 -0.397805 1.5 0 1.5 
z
" id="mebce1c303f" style="stroke:#ff00ff;"/>
    </defs>
    <g>
     <use style="fill:#ff00ff;stroke:#ff00ff;" x="253.601117" xlink:href="#mebce1c303f" y="101.654659"/>
     <use style="fill:#ff00ff;stroke:#ff00ff;" x="253.601117" xlink:href="#mebce1c303f" y="101.654659"/>
    </g>
   </g>
   <g id="line2d_40">
    <path d="M 29.53256 298.944 
L 29.53256 297.091518 
L 129.686407 297.091518 
L 129.742212 295.239036 
L 131.236397 295.239036 
L 131.236397 294.312795 
L 131.640805 294.312795 
L 131.740458 292.923433 
L 134.019394 292.923433 
L 134.019394 292.460313 
L 134.279041 292.460313 
L 134.279041 291.070951 
L 134.492498 291.070951 
L 134.492498 290.14471 
L 134.61933 290.14471 
L 134.61933 289.218469 
L 135.117629 289.218469 
L 135.158519 287.365987 
L 135.839358 287.365987 
L 135.839358 286.902867 
L 137.875944 286.902867 
L 137.875944 285.976625 
L 138.118883 285.976625 
L 138.187677 281.808541 
L 138.493936 281.808541 
L 138.561269 279.956059 
L 138.861092 279.956059 
L 138.89409 278.103577 
L 139.188293 278.103577 
L 139.188293 277.177336 
L 139.381706 277.177336 
L 139.381706 276.714215 
L 139.509467 276.714215 
L 139.509467 276.251095 
L 139.636299 276.251095 
L 139.636299 275.324854 
L 139.762215 275.324854 
L 139.762215 274.861733 
L 141.148448 274.861733 
L 141.148448 273.935492 
L 141.634094 273.935492 
L 141.71841 270.230528 
L 142.378651 270.230528 
L 142.378651 269.767407 
L 142.699628 269.767407 
L 142.778958 266.525564 
L 142.857929 266.525564 
L 142.910378 265.136202 
L 143.144465 265.136202 
L 143.144465 262.8206 
L 143.273169 262.8206 
L 143.273169 260.968117 
L 143.853271 260.968117 
L 143.952218 256.800033 
L 144.050606 256.800033 
L 144.148442 254.02131 
L 144.221461 254.02131 
L 144.318346 251.705707 
L 144.366588 251.705707 
L 144.390658 248.000743 
L 144.510517 248.000743 
L 144.582038 245.68514 
L 144.653267 245.68514 
L 144.653267 245.22202 
L 144.794859 245.22202 
L 144.794859 241.980176 
L 145.281568 241.980176 
L 145.281568 241.053935 
L 145.440832 241.053935 
L 145.440832 239.201453 
L 146.150926 239.201453 
L 146.259313 237.812091 
L 146.280909 237.812091 
L 146.280909 237.348971 
L 146.538004 237.348971 
L 146.60169 234.570248 
L 146.665144 234.570248 
L 146.665144 233.180886 
L 146.895853 233.180886 
L 146.916676 231.328404 
L 147.185137 231.328404 
L 147.185137 230.402163 
L 147.429332 230.402163 
L 147.4697 228.086561 
L 147.729844 228.086561 
L 147.729844 227.62344 
L 148.334961 227.62344 
L 148.392421 224.844717 
L 148.882639 224.844717 
L 148.882639 224.381596 
L 149.646525 224.381596 
L 149.717561 223.455355 
L 150.18963 223.455355 
L 150.206871 222.065994 
L 150.309961 222.065994 
L 150.395406 221.139753 
L 150.463462 221.139753 
L 150.49739 217.897909 
L 150.682827 217.897909 
L 150.682827 216.508548 
L 151.178764 216.508548 
L 151.276281 214.192945 
L 151.357131 214.192945 
L 151.357131 213.729825 
L 152.00633 213.729825 
L 152.00633 213.266704 
L 152.283884 213.266704 
L 152.283884 212.803583 
L 152.55709 212.803583 
L 152.55709 210.951101 
L 152.707042 210.951101 
L 152.707042 210.487981 
L 153.090987 210.487981 
L 153.090987 209.56174 
L 153.265382 209.56174 
L 153.265382 208.635499 
L 153.537988 208.635499 
L 153.537988 208.172378 
L 153.834414 208.172378 
L 153.904255 207.246137 
L 154.439623 207.246137 
L 154.439623 206.783017 
L 154.641235 206.783017 
L 154.641235 206.319896 
L 154.972161 206.319896 
L 154.972161 205.856776 
L 155.258271 205.856776 
L 155.258271 205.393655 
L 155.488919 205.393655 
L 155.488919 204.004294 
L 155.916435 204.004294 
L 155.916435 203.541173 
L 156.077167 203.541173 
L 156.150854 202.614932 
L 156.285144 202.614932 
L 156.285144 202.151812 
L 156.454576 202.151812 
L 156.502685 200.76245 
L 157.034952 200.76245 
L 157.034952 200.299329 
L 157.540141 200.299329 
L 157.540141 199.836209 
L 158.086033 199.836209 
L 158.086033 199.373088 
L 158.238915 199.373088 
L 158.238915 198.909968 
L 158.487203 198.909968 
L 158.562073 196.131245 
L 159.375289 196.131245 
L 159.466728 195.205004 
L 159.507213 195.205004 
L 159.557689 193.815642 
L 160.451703 193.815642 
L 160.451703 192.426281 
L 160.604262 192.426281 
L 160.604262 191.50004 
L 161.017045 191.50004 
L 161.100288 190.573799 
L 161.146363 190.573799 
L 161.146363 190.110678 
L 162.397949 190.110678 
L 162.397949 189.647558 
L 162.80432 189.647558 
L 162.80432 189.184437 
L 162.9543 189.184437 
L 162.9543 188.258196 
L 164.302897 188.258196 
L 164.302897 187.795075 
L 164.455807 187.795075 
L 164.455807 186.868834 
L 164.980675 186.868834 
L 164.980675 185.942593 
L 165.178976 185.942593 
L 165.178976 185.016352 
L 165.675732 185.016352 
L 165.675732 184.553232 
L 166.075685 184.553232 
L 166.10341 183.626991 
L 166.608536 183.626991 
L 166.608536 182.70075 
L 167.281645 182.70075 
L 167.281645 182.237629 
L 168.464104 182.237629 
L 168.464104 181.774509 
L 168.9532 181.774509 
L 169.052903 179.922027 
L 169.645097 179.922027 
L 169.645097 179.458906 
L 170.119095 179.458906 
L 170.119095 178.995786 
L 170.261547 178.995786 
L 170.364915 177.143304 
L 171.80123 177.143304 
L 171.811218 175.290821 
L 172.25973 175.290821 
L 172.351938 173.90146 
L 174.065485 173.90146 
L 174.065485 172.975219 
L 175.813167 172.975219 
L 175.813167 172.048978 
L 177.094497 172.048978 
L 177.171768 170.196496 
L 177.681904 170.196496 
L 177.706845 169.270255 
L 179.026426 169.270255 
L 179.026426 168.807134 
L 179.356682 168.807134 
L 179.363159 167.880893 
L 180.014607 167.880893 
L 180.014607 167.417773 
L 180.277741 167.417773 
L 180.277741 166.491532 
L 181.384802 166.491532 
L 181.384802 166.028411 
L 182.066232 166.028411 
L 182.066232 165.10217 
L 182.354991 165.10217 
L 182.354991 164.63905 
L 182.944937 164.63905 
L 182.944937 164.175929 
L 183.128538 164.175929 
L 183.16763 163.249688 
L 183.604663 163.249688 
L 183.657898 161.860326 
L 183.916672 161.860326 
L 183.916672 160.934085 
L 184.708893 160.934085 
L 184.708893 160.470965 
L 185.845863 160.470965 
L 185.845863 160.007844 
L 186.034614 160.007844 
L 186.034614 159.544724 
L 186.472991 159.544724 
L 186.472991 158.618483 
L 187.113676 158.618483 
L 187.113676 157.692242 
L 188.875562 157.692242 
L 188.967274 156.766001 
L 189.239551 156.766001 
L 189.239551 156.30288 
L 189.590696 156.30288 
L 189.590696 155.83976 
L 190.552539 155.83976 
L 190.652819 153.987278 
L 191.010122 153.987278 
L 191.010122 153.524157 
L 191.472181 153.524157 
L 191.472181 153.061037 
L 192.650664 153.061037 
L 192.650664 152.597916 
L 193.602066 152.597916 
L 193.614942 150.745434 
L 194.677322 150.745434 
L 194.677322 150.282313 
L 195.011819 150.282313 
L 195.011819 149.819193 
L 195.223048 149.819193 
L 195.223048 149.356072 
L 196.855169 149.356072 
L 196.855169 148.892952 
L 197.567218 148.892952 
L 197.567218 148.429831 
L 197.835337 148.429831 
L 197.835337 147.966711 
L 199.198551 147.966711 
L 199.198551 147.50359 
L 200.636794 147.50359 
L 200.636794 146.577349 
L 201.164128 146.577349 
L 201.164128 146.114229 
L 202.879229 146.114229 
L 202.879229 145.187988 
L 203.657725 145.187988 
L 203.76273 142.409265 
L 203.812208 142.409265 
L 203.812208 141.483024 
L 204.049653 141.483024 
L 204.049653 141.019903 
L 204.749228 141.019903 
L 204.749228 140.093662 
L 205.572309 140.093662 
L 205.572309 139.630541 
L 206.603096 139.630541 
L 206.603096 138.7043 
L 206.73164 138.7043 
L 206.73164 138.24118 
L 207.575699 138.24118 
L 207.575699 137.778059 
L 208.675095 137.778059 
L 208.675095 137.314939 
L 210.39295 137.314939 
L 210.39295 136.388698 
L 210.512205 136.388698 
L 210.614473 135.462457 
L 210.69199 135.462457 
L 210.762212 133.609975 
L 211.445185 133.609975 
L 211.445185 133.146854 
L 212.778716 133.146854 
L 212.828207 131.757493 
L 213.128311 131.757493 
L 213.128311 130.831252 
L 214.714874 130.831252 
L 214.714874 130.368131 
L 214.97226 130.368131 
L 214.97226 129.44189 
L 216.761911 129.44189 
L 216.761911 128.97877 
L 218.716191 128.97877 
L 218.716191 128.515649 
L 219.787515 128.515649 
L 219.787515 127.589408 
L 220.259016 127.589408 
L 220.259016 127.126287 
L 220.805241 127.126287 
L 220.805241 126.200046 
L 221.458726 126.200046 
L 221.458726 125.736926 
L 222.368013 125.736926 
L 222.368013 125.273805 
L 224.774248 125.273805 
L 224.774248 124.347564 
L 225.355403 124.347564 
L 225.355403 123.884444 
L 225.88031 123.884444 
L 225.88031 122.958203 
L 226.188055 122.958203 
L 226.188055 122.495082 
L 230.394599 122.495082 
L 230.394599 122.031962 
L 230.975229 122.031962 
L 230.975229 121.105721 
L 231.126154 121.105721 
L 231.126154 120.6426 
L 231.244407 120.6426 
L 231.244407 119.716359 
L 231.504772 119.716359 
L 231.504772 118.790118 
L 231.684435 118.790118 
L 231.684435 117.863877 
L 232.001149 117.863877 
L 232.001149 116.937636 
L 232.240079 116.937636 
L 232.240079 116.474516 
L 232.373363 116.474516 
L 232.373363 116.011395 
L 232.516395 116.011395 
L 232.516395 115.085154 
L 232.65491 115.085154 
L 232.65491 114.158913 
L 232.778262 114.158913 
L 232.778262 113.695792 
L 234.440458 113.695792 
L 234.547057 112.306431 
L 234.598408 112.306431 
L 234.598408 111.38019 
L 238.974346 111.38019 
L 238.974346 110.453949 
L 239.398048 110.453949 
L 239.49492 108.138346 
L 239.61807 108.138346 
L 239.61807 107.675226 
L 240.058334 107.675226 
L 240.058334 106.748985 
L 240.188373 106.748985 
L 240.188373 106.285864 
L 240.685008 106.285864 
L 240.769454 104.896503 
L 240.804361 104.896503 
L 240.804361 104.433382 
L 241.090526 104.433382 
L 241.090526 103.970262 
L 246.458675 103.970262 
L 246.547358 102.5809 
L 247.080059 102.5809 
L 247.080059 102.117779 
L 253.601117 102.117779 
L 253.601117 101.654659 
L 338.688 101.654659 
L 338.688 101.654659 
" style="fill:none;stroke:#ff00ff;stroke-linecap:square;stroke-width:1.5;"/>
   </g>
   <g id="line2d_41">
    <defs>
     <path d="M 0 8.485281 
L 5.091169 0 
L 0 -8.485281 
L -5.091169 0 
z
" id="m3dd7bb1e6d" style="stroke:#ff00ff;stroke-linejoin:miter;stroke-width:1.5;"/>
    </defs>
    <g>
     <use style="fill-opacity:0;stroke:#ff00ff;stroke-linejoin:miter;stroke-width:1.5;" x="162.397949" xlink:href="#m3dd7bb1e6d" y="189.647558"/>
     <use style="fill-opacity:0;stroke:#ff00ff;stroke-linejoin:miter;stroke-width:1.5;" x="216.761911" xlink:href="#m3dd7bb1e6d" y="128.97877"/>
     <use style="fill-opacity:0;stroke:#ff00ff;stroke-linejoin:miter;stroke-width:1.5;" x="253.601117" xlink:href="#m3dd7bb1e6d" y="101.654659"/>
     <use style="fill-opacity:0;stroke:#ff00ff;stroke-linejoin:miter;stroke-width:1.5;" x="253.601117" xlink:href="#m3dd7bb1e6d" y="101.654659"/>
     <use style="fill-opacity:0;stroke:#ff00ff;stroke-linejoin:miter;stroke-width:1.5;" x="338.688" xlink:href="#m3dd7bb1e6d" y="101.654659"/>
    </g>
   </g>
   <g id="line2d_42">
    <path style="fill:none;stroke:#ff00ff;stroke-linecap:square;stroke-width:1.5;"/>
    <g/>
   </g>
   <g id="line2d_43">
    <path clip-path="url(#p23ff29e2c0)" d="M 258.381084 101.654659 
" style="fill:none;stroke:#ff00ff;stroke-linecap:square;stroke-width:1.5;"/>
    <defs>
     <path d="M -12 12 
L 12 -12 
M -12 -12 
L 12 12 
" id="m74a469a5f6" style="stroke:#ff00ff;"/>
    </defs>
    <g clip-path="url(#p23ff29e2c0)">
     <use style="fill:#ff00ff;stroke:#ff00ff;" x="258.381084" xlink:href="#m74a469a5f6" y="101.654659"/>
    </g>
   </g>
   <g id="line2d_44">
    <defs>
     <path d="M 0 1.5 
C 0.397805 1.5 0.77937 1.341951 1.06066 1.06066 
C 1.341951 0.77937 1.5 0.397805 1.5 0 
C 1.5 -0.397805 1.341951 -0.77937 1.06066 -1.06066 
C 0.77937 -1.341951 0.397805 -1.5 0 -1.5 
C -0.397805 -1.5 -0.77937 -1.341951 -1.06066 -1.06066 
C -1.341951 -0.77937 -1.5 -0.397805 -1.5 0 
C -1.5 0.397805 -1.341951 0.77937 -1.06066 1.06066 
C -0.77937 1.341951 -0.397805 1.5 0 1.5 
z
" id="m4787e10556" style="stroke:#ff7500;"/>
    </defs>
    <g>
     <use style="fill:#ff7500;stroke:#ff7500;" x="201.872138" xlink:href="#m4787e10556" y="131.757493"/>
     <use style="fill:#ff7500;stroke:#ff7500;" x="201.872138" xlink:href="#m4787e10556" y="131.757493"/>
    </g>
   </g>
   <g id="line2d_45">
    <path d="M 69.687988 298.944 
L 69.687988 298.480879 
L 94.294587 298.480879 
L 94.294587 296.628397 
L 135.117629 296.628397 
L 135.117629 295.239036 
L 139.155847 295.239036 
L 139.155847 294.312795 
L 139.285267 294.312795 
L 139.349619 293.386554 
L 139.793552 293.386554 
L 139.793552 291.997192 
L 141.20629 291.997192 
L 141.20629 290.14471 
L 142.778958 290.14471 
L 142.778958 288.292228 
L 143.927534 288.292228 
L 143.927534 287.829108 
L 144.865226 287.829108 
L 144.865226 287.365987 
L 145.051495 287.365987 
L 145.120836 284.587264 
L 146.516724 284.587264 
L 146.538004 283.197902 
L 146.728368 283.197902 
L 146.728368 281.808541 
L 147.266916 281.808541 
L 147.266916 281.34542 
L 147.630247 281.34542 
L 147.630247 280.8823 
L 148.714503 280.8823 
L 148.714503 280.419179 
L 149.323233 280.419179 
L 149.323233 276.251095 
L 150.275665 276.251095 
L 150.275665 275.787974 
L 150.49739 275.787974 
L 150.49739 275.324854 
L 151.581536 275.324854 
L 151.581536 274.398612 
L 151.692666 274.398612 
L 151.803091 273.009251 
L 152.283884 273.009251 
L 152.375429 270.230528 
L 152.796398 270.230528 
L 152.796398 269.767407 
L 152.973748 269.767407 
L 152.973748 269.304287 
L 153.294279 269.304287 
L 153.380683 266.525564 
L 153.509492 266.525564 
L 153.509492 266.062443 
L 154.249325 266.062443 
L 154.317527 262.357479 
L 155.271165 262.357479 
L 155.30979 261.431238 
L 155.425155 261.431238 
L 155.425155 259.115635 
L 155.879132 259.115635 
L 155.879132 258.652515 
L 156.370066 258.652515 
L 156.370066 257.726274 
L 156.562634 257.726274 
L 156.634302 256.336912 
L 156.906335 256.336912 
L 156.976607 253.558189 
L 157.058236 253.558189 
L 157.093102 252.168828 
L 157.277891 252.168828 
L 157.277891 251.705707 
L 157.58535 251.705707 
L 157.596634 250.779466 
L 157.953917 250.779466 
L 157.953917 248.463863 
L 158.075062 248.463863 
L 158.075062 248.000743 
L 158.412011 248.000743 
L 158.444276 246.148261 
L 158.647247 246.148261 
L 158.647247 245.22202 
L 158.805835 245.22202 
L 158.805835 244.758899 
L 158.952561 244.758899 
L 158.952561 243.832658 
L 159.728221 243.832658 
L 159.768105 242.443297 
L 160.015335 242.443297 
L 160.015335 239.664574 
L 160.239731 239.664574 
L 160.239731 238.738333 
L 160.461277 238.738333 
L 160.461277 238.275212 
L 160.783709 238.275212 
L 160.849359 236.88585 
L 161.256448 236.88585 
L 161.256448 235.959609 
L 161.681046 235.959609 
L 161.734513 234.107127 
L 161.858637 234.107127 
L 161.876297 232.254645 
L 162.432178 232.254645 
L 162.432178 231.791525 
L 162.593851 231.791525 
L 162.593851 231.328404 
L 162.871137 231.328404 
L 162.979172 229.012802 
L 163.004009 229.012802 
L 163.020547 227.62344 
L 163.127663 227.62344 
L 163.144084 226.697199 
L 163.315579 226.697199 
L 163.404741 225.307837 
L 163.589711 225.307837 
L 163.66156 224.381596 
L 163.835954 224.381596 
L 163.883215 222.529114 
L 164.086545 222.529114 
L 164.171861 221.139753 
L 164.295217 221.139753 
L 164.295217 220.213512 
L 164.546914 220.213512 
L 164.546914 219.287271 
L 164.884386 219.287271 
L 164.958502 215.582307 
L 165.039666 215.582307 
L 165.039666 215.119186 
L 165.266391 215.119186 
L 165.266391 214.656066 
L 165.633093 214.656066 
L 165.711185 212.803583 
L 165.760698 212.803583 
L 165.760698 210.951101 
L 166.013141 210.951101 
L 166.110335 210.02486 
L 166.186323 210.02486 
L 166.289413 209.098619 
L 166.459886 209.098619 
L 166.459886 208.635499 
L 166.601807 208.635499 
L 166.601807 207.709258 
L 166.88223 207.709258 
L 166.88223 206.783017 
L 167.027338 206.783017 
L 167.027338 206.319896 
L 167.158215 206.319896 
L 167.158215 205.856776 
L 167.404208 205.856776 
L 167.46837 203.541173 
L 167.672117 203.541173 
L 167.672117 203.078053 
L 167.791975 203.078053 
L 167.791975 202.614932 
L 168.01684 202.614932 
L 168.091155 200.299329 
L 168.183606 200.299329 
L 168.269454 199.373088 
L 168.385289 199.373088 
L 168.391365 196.131245 
L 168.536542 196.131245 
L 168.536542 195.205004 
L 168.852923 195.205004 
L 168.917874 193.815642 
L 169.006055 193.815642 
L 169.006055 193.352522 
L 169.140406 193.352522 
L 169.140406 192.889401 
L 169.27373 192.889401 
L 169.348639 190.110678 
L 169.486092 190.110678 
L 169.486092 189.647558 
L 169.752173 189.647558 
L 169.858596 188.258196 
L 169.942157 188.258196 
L 169.958822 186.868834 
L 170.113593 186.868834 
L 170.130094 185.479473 
L 170.386599 185.479473 
L 170.489231 183.16387 
L 170.516139 183.16387 
L 170.553741 182.237629 
L 170.713981 182.237629 
L 170.819995 180.385147 
L 171.170519 180.385147 
L 171.27895 177.606424 
L 171.706056 177.606424 
L 171.76122 176.680183 
L 172.044307 176.680183 
L 172.044307 176.217062 
L 172.22076 176.217062 
L 172.293758 172.048978 
L 172.361615 172.048978 
L 172.458099 170.659616 
L 172.534903 170.659616 
L 172.630434 167.880893 
L 172.758578 167.880893 
L 172.758578 166.954652 
L 173.234351 166.954652 
L 173.284893 164.63905 
L 173.462916 164.63905 
L 173.494678 163.712808 
L 173.616647 163.712808 
L 173.67507 161.860326 
L 173.742239 161.860326 
L 173.804698 160.934085 
L 173.906825 160.934085 
L 173.906825 160.470965 
L 174.144277 160.470965 
L 174.144277 160.007844 
L 174.274811 160.007844 
L 174.274811 159.081603 
L 174.626698 159.081603 
L 174.728361 157.229121 
L 174.883938 157.229121 
L 174.979954 155.376639 
L 174.996598 155.376639 
L 174.996598 154.450398 
L 175.415753 154.450398 
L 175.415753 153.987278 
L 175.697687 153.987278 
L 175.733608 151.671675 
L 175.844889 151.671675 
L 175.844889 150.745434 
L 176.069255 150.745434 
L 176.069255 150.282313 
L 176.221122 150.282313 
L 176.221122 149.356072 
L 177.401547 149.356072 
L 177.495501 148.429831 
L 177.855749 148.429831 
L 177.855749 147.966711 
L 177.98588 147.966711 
L 177.98588 147.50359 
L 178.125479 147.50359 
L 178.125479 146.577349 
L 178.356832 146.577349 
L 178.356832 146.114229 
L 179.154693 146.114229 
L 179.154693 145.651108 
L 179.463246 145.651108 
L 179.463246 145.187988 
L 179.607519 145.187988 
L 179.67762 143.798626 
L 180.095517 143.798626 
L 180.095517 143.335506 
L 180.246989 143.335506 
L 180.246989 142.872385 
L 180.506666 142.872385 
L 180.506666 142.409265 
L 180.711659 142.409265 
L 180.711659 141.483024 
L 180.831127 141.483024 
L 180.831127 141.019903 
L 181.656603 141.019903 
L 181.656603 140.556783 
L 181.879445 140.556783 
L 181.879445 140.093662 
L 182.242806 140.093662 
L 182.242806 139.167421 
L 183.93412 139.167421 
L 183.93412 138.24118 
L 184.613309 138.24118 
L 184.613309 137.778059 
L 184.957337 137.778059 
L 184.957337 136.851818 
L 194.895274 136.851818 
L 194.895274 136.388698 
L 196.704891 136.388698 
L 196.704891 135.925577 
L 197.125021 135.925577 
L 197.125021 134.999336 
L 197.253175 134.999336 
L 197.253175 134.073095 
L 198.333352 134.073095 
L 198.333352 133.146854 
L 201.055263 133.146854 
L 201.055263 132.220613 
L 201.872138 132.220613 
L 201.872138 131.757493 
L 338.688 131.757493 
L 338.688 131.757493 
" style="fill:none;stroke:#ff7500;stroke-linecap:square;stroke-width:1.5;"/>
   </g>
   <g id="line2d_46">
    <defs>
     <path d="M 0 -6 
L -1.347084 -1.854102 
L -5.706339 -1.854102 
L -2.179628 0.708204 
L -3.526712 4.854102 
L -0 2.291796 
L 3.526712 4.854102 
L 2.179628 0.708204 
L 5.706339 -1.854102 
L 1.347084 -1.854102 
z
" id="m8b73e4f8a5" style="stroke:#ff7500;stroke-linejoin:bevel;stroke-width:1.5;"/>
    </defs>
    <g>
     <use style="fill-opacity:0;stroke:#ff7500;stroke-linejoin:bevel;stroke-width:1.5;" x="151.581536" xlink:href="#m8b73e4f8a5" y="275.324854"/>
     <use style="fill-opacity:0;stroke:#ff7500;stroke-linejoin:bevel;stroke-width:1.5;" x="184.957337" xlink:href="#m8b73e4f8a5" y="137.778059"/>
     <use style="fill-opacity:0;stroke:#ff7500;stroke-linejoin:bevel;stroke-width:1.5;" x="201.872138" xlink:href="#m8b73e4f8a5" y="132.220613"/>
     <use style="fill-opacity:0;stroke:#ff7500;stroke-linejoin:bevel;stroke-width:1.5;" x="201.872138" xlink:href="#m8b73e4f8a5" y="131.757493"/>
     <use style="fill-opacity:0;stroke:#ff7500;stroke-linejoin:bevel;stroke-width:1.5;" x="338.688" xlink:href="#m8b73e4f8a5" y="131.757493"/>
    </g>
   </g>
   <g id="line2d_47">
    <path style="fill:none;stroke:#ff7500;stroke-linecap:square;stroke-width:1.5;"/>
    <g/>
   </g>
   <g id="line2d_48">
    <path clip-path="url(#p23ff29e2c0)" d="M 258.377178 131.757493 
" style="fill:none;stroke:#ff7500;stroke-linecap:square;stroke-width:1.5;"/>
    <defs>
     <path d="M -12 12 
L 12 -12 
M -12 -12 
L 12 12 
" id="m95fae0b4c6" style="stroke:#ff7500;"/>
    </defs>
    <g clip-path="url(#p23ff29e2c0)">
     <use style="fill:#ff7500;stroke:#ff7500;" x="258.377178" xlink:href="#m95fae0b4c6" y="131.757493"/>
    </g>
   </g>
   <g id="line2d_49">
    <path d="M 338.688 131.757493 
L 369.60768 293.571802 
" style="fill:none;stroke:#ff7500;stroke-linecap:square;stroke-width:1.5;"/>
    <g>
     <use style="fill-opacity:0;stroke:#ff7500;stroke-linejoin:bevel;stroke-width:1.5;" x="338.688" xlink:href="#m8b73e4f8a5" y="131.757493"/>
     <use style="fill-opacity:0;stroke:#ff7500;stroke-linejoin:bevel;stroke-width:1.5;" x="369.60768" xlink:href="#m8b73e4f8a5" y="293.571802"/>
    </g>
   </g>
   <g id="line2d_50">
    <path d="M 338.688 101.654659 
L 369.60768 207.616634 
" style="fill:none;stroke:#ff00ff;stroke-linecap:square;stroke-width:1.5;"/>
    <g>
     <use style="fill-opacity:0;stroke:#ff00ff;stroke-linejoin:miter;stroke-width:1.5;" x="338.688" xlink:href="#m3dd7bb1e6d" y="101.654659"/>
     <use style="fill-opacity:0;stroke:#ff00ff;stroke-linejoin:miter;stroke-width:1.5;" x="369.60768" xlink:href="#m3dd7bb1e6d" y="207.616634"/>
    </g>
   </g>
   <g id="line2d_51">
    <path d="M 338.688 78.498633 
L 369.60768 121.661465 
" style="fill:none;stroke:#000080;stroke-linecap:square;stroke-width:1.5;"/>
    <g>
     <use style="fill-opacity:0;stroke:#000080;stroke-width:1.5;" x="338.688" xlink:href="#m0e70e6c84f" y="78.498633"/>
     <use style="fill-opacity:0;stroke:#000080;stroke-width:1.5;" x="369.60768" xlink:href="#m0e70e6c84f" y="121.661465"/>
    </g>
   </g>
   <g id="line2d_52">
    <path d="M 338.688 298.944 
L 338.688 30.334099 
" style="fill:none;stroke:#000000;stroke-linecap:square;stroke-width:1.5;"/>
   </g>
   <g id="patch_3">
    <path d="M 57.6 298.944 
L 57.6 27.648 
" style="fill:none;stroke:#000000;stroke-linecap:square;stroke-linejoin:miter;stroke-width:0.8;"/>
   </g>
   <g id="patch_4">
    <path d="M 338.688 298.944 
L 338.688 27.648 
" style="fill:none;stroke:#000000;stroke-linecap:square;stroke-linejoin:miter;stroke-width:0.8;"/>
   </g>
   <g id="patch_5">
    <path d="M 57.6 298.944 
L 338.688 298.944 
" style="fill:none;stroke:#000000;stroke-linecap:square;stroke-linejoin:miter;stroke-width:0.8;"/>
   </g>
   <g id="patch_6">
    <path d="M 57.6 27.648 
L 338.688 27.648 
" style="fill:none;stroke:#000000;stroke-linecap:square;stroke-linejoin:miter;stroke-width:0.8;"/>
   </g>
   <g id="text_13">
    <!-- SMS-EMOA- -->
    <g transform="translate(375.22944 298.262739)scale(0.17 -0.17)">
     <defs>
      <path d="M 53.515625 70.515625 
L 53.515625 60.890625 
Q 47.90625 63.578125 42.921875 64.890625 
Q 37.9375 66.21875 33.296875 66.21875 
Q 25.25 66.21875 20.875 63.09375 
Q 16.5 59.96875 16.5 54.203125 
Q 16.5 49.359375 19.40625 46.890625 
Q 22.3125 44.4375 30.421875 42.921875 
L 36.375 41.703125 
Q 47.40625 39.59375 52.65625 34.296875 
Q 57.90625 29 57.90625 20.125 
Q 57.90625 9.515625 50.796875 4.046875 
Q 43.703125 -1.421875 29.984375 -1.421875 
Q 24.8125 -1.421875 18.96875 -0.25 
Q 13.140625 0.921875 6.890625 3.21875 
L 6.890625 13.375 
Q 12.890625 10.015625 18.65625 8.296875 
Q 24.421875 6.59375 29.984375 6.59375 
Q 38.421875 6.59375 43.015625 9.90625 
Q 47.609375 13.234375 47.609375 19.390625 
Q 47.609375 24.75 44.3125 27.78125 
Q 41.015625 30.8125 33.5 32.328125 
L 27.484375 33.5 
Q 16.453125 35.6875 11.515625 40.375 
Q 6.59375 45.0625 6.59375 53.421875 
Q 6.59375 63.09375 13.40625 68.65625 
Q 20.21875 74.21875 32.171875 74.21875 
Q 37.3125 74.21875 42.625 73.28125 
Q 47.953125 72.359375 53.515625 70.515625 
z
" id="DejaVuSans-83"/>
      <path d="M 9.8125 72.90625 
L 24.515625 72.90625 
L 43.109375 23.296875 
L 61.8125 72.90625 
L 76.515625 72.90625 
L 76.515625 0 
L 66.890625 0 
L 66.890625 64.015625 
L 48.09375 14.015625 
L 38.1875 14.015625 
L 19.390625 64.015625 
L 19.390625 0 
L 9.8125 0 
z
" id="DejaVuSans-77"/>
      <path d="M 9.8125 72.90625 
L 55.90625 72.90625 
L 55.90625 64.59375 
L 19.671875 64.59375 
L 19.671875 43.015625 
L 54.390625 43.015625 
L 54.390625 34.71875 
L 19.671875 34.71875 
L 19.671875 8.296875 
L 56.78125 8.296875 
L 56.78125 0 
L 9.8125 0 
z
" id="DejaVuSans-69"/>
      <path d="M 39.40625 66.21875 
Q 28.65625 66.21875 22.328125 58.203125 
Q 16.015625 50.203125 16.015625 36.375 
Q 16.015625 22.609375 22.328125 14.59375 
Q 28.65625 6.59375 39.40625 6.59375 
Q 50.140625 6.59375 56.421875 14.59375 
Q 62.703125 22.609375 62.703125 36.375 
Q 62.703125 50.203125 56.421875 58.203125 
Q 50.140625 66.21875 39.40625 66.21875 
z
M 39.40625 74.21875 
Q 54.734375 74.21875 63.90625 63.9375 
Q 73.09375 53.65625 73.09375 36.375 
Q 73.09375 19.140625 63.90625 8.859375 
Q 54.734375 -1.421875 39.40625 -1.421875 
Q 24.03125 -1.421875 14.8125 8.828125 
Q 5.609375 19.09375 5.609375 36.375 
Q 5.609375 53.65625 14.8125 63.9375 
Q 24.03125 74.21875 39.40625 74.21875 
z
" id="DejaVuSans-79"/>
      <path d="M 34.1875 63.1875 
L 20.796875 26.90625 
L 47.609375 26.90625 
z
M 28.609375 72.90625 
L 39.796875 72.90625 
L 67.578125 0 
L 57.328125 0 
L 50.6875 18.703125 
L 17.828125 18.703125 
L 11.1875 0 
L 0.78125 0 
z
" id="DejaVuSans-65"/>
     </defs>
     <use xlink:href="#DejaVuSans-83"/>
     <use x="63.476562" xlink:href="#DejaVuSans-77"/>
     <use x="149.755859" xlink:href="#DejaVuSans-83"/>
     <use x="213.232422" xlink:href="#DejaVuSans-45"/>
     <use x="249.316406" xlink:href="#DejaVuSans-69"/>
     <use x="312.5" xlink:href="#DejaVuSans-77"/>
     <use x="398.779297" xlink:href="#DejaVuSans-79"/>
     <use x="475.740234" xlink:href="#DejaVuSans-65"/>
     <use x="541.898438" xlink:href="#DejaVuSans-45"/>
    </g>
   </g>
   <g id="text_14">
    <!-- NSGA-II-M -->
    <g transform="translate(375.22944 212.307571)scale(0.17 -0.17)">
     <defs>
      <path d="M 9.8125 72.90625 
L 23.09375 72.90625 
L 55.421875 11.921875 
L 55.421875 72.90625 
L 64.984375 72.90625 
L 64.984375 0 
L 51.703125 0 
L 19.390625 60.984375 
L 19.390625 0 
L 9.8125 0 
z
" id="DejaVuSans-78"/>
      <path d="M 59.515625 10.40625 
L 59.515625 29.984375 
L 43.40625 29.984375 
L 43.40625 38.09375 
L 69.28125 38.09375 
L 69.28125 6.78125 
Q 63.578125 2.734375 56.6875 0.65625 
Q 49.8125 -1.421875 42 -1.421875 
Q 24.90625 -1.421875 15.25 8.5625 
Q 5.609375 18.5625 5.609375 36.375 
Q 5.609375 54.25 15.25 64.234375 
Q 24.90625 74.21875 42 74.21875 
Q 49.125 74.21875 55.546875 72.453125 
Q 61.96875 70.703125 67.390625 67.28125 
L 67.390625 56.78125 
Q 61.921875 61.421875 55.765625 63.765625 
Q 49.609375 66.109375 42.828125 66.109375 
Q 29.4375 66.109375 22.71875 58.640625 
Q 16.015625 51.171875 16.015625 36.375 
Q 16.015625 21.625 22.71875 14.15625 
Q 29.4375 6.6875 42.828125 6.6875 
Q 48.046875 6.6875 52.140625 7.59375 
Q 56.25 8.5 59.515625 10.40625 
z
" id="DejaVuSans-71"/>
      <path d="M 9.8125 72.90625 
L 19.671875 72.90625 
L 19.671875 0 
L 9.8125 0 
z
" id="DejaVuSans-73"/>
     </defs>
     <use xlink:href="#DejaVuSans-78"/>
     <use x="74.804688" xlink:href="#DejaVuSans-83"/>
     <use x="138.28125" xlink:href="#DejaVuSans-71"/>
     <use x="215.771484" xlink:href="#DejaVuSans-65"/>
     <use x="281.929688" xlink:href="#DejaVuSans-45"/>
     <use x="318.013672" xlink:href="#DejaVuSans-73"/>
     <use x="347.505859" xlink:href="#DejaVuSans-73"/>
     <use x="376.998047" xlink:href="#DejaVuSans-45"/>
     <use x="413.082031" xlink:href="#DejaVuSans-77"/>
    </g>
   </g>
   <g id="text_15">
    <!-- COMO-100  -->
    <g transform="translate(375.22944 126.352403)scale(0.17 -0.17)">
     <defs>
      <path d="M 64.40625 67.28125 
L 64.40625 56.890625 
Q 59.421875 61.53125 53.78125 63.8125 
Q 48.140625 66.109375 41.796875 66.109375 
Q 29.296875 66.109375 22.65625 58.46875 
Q 16.015625 50.828125 16.015625 36.375 
Q 16.015625 21.96875 22.65625 14.328125 
Q 29.296875 6.6875 41.796875 6.6875 
Q 48.140625 6.6875 53.78125 8.984375 
Q 59.421875 11.28125 64.40625 15.921875 
L 64.40625 5.609375 
Q 59.234375 2.09375 53.4375 0.328125 
Q 47.65625 -1.421875 41.21875 -1.421875 
Q 24.65625 -1.421875 15.125 8.703125 
Q 5.609375 18.84375 5.609375 36.375 
Q 5.609375 53.953125 15.125 64.078125 
Q 24.65625 74.21875 41.21875 74.21875 
Q 47.75 74.21875 53.53125 72.484375 
Q 59.328125 70.75 64.40625 67.28125 
z
" id="DejaVuSans-67"/>
     </defs>
     <use xlink:href="#DejaVuSans-67"/>
     <use x="69.824219" xlink:href="#DejaVuSans-79"/>
     <use x="148.535156" xlink:href="#DejaVuSans-77"/>
     <use x="234.814453" xlink:href="#DejaVuSans-79"/>
     <use x="316.275391" xlink:href="#DejaVuSans-45"/>
     <use x="352.359375" xlink:href="#DejaVuSans-49"/>
     <use x="415.982422" xlink:href="#DejaVuSans-48"/>
     <use x="479.605469" xlink:href="#DejaVuSans-48"/>
     <use x="543.228516" xlink:href="#DejaVuSans-32"/>
    </g>
   </g>
   <g id="text_16">
    <!-- best 2016 -->
    <g transform="translate(375.22944 40.397235)scale(0.17 -0.17)">
     <defs>
      <path d="M 48.6875 27.296875 
Q 48.6875 37.203125 44.609375 42.84375 
Q 40.53125 48.484375 33.40625 48.484375 
Q 26.265625 48.484375 22.1875 42.84375 
Q 18.109375 37.203125 18.109375 27.296875 
Q 18.109375 17.390625 22.1875 11.75 
Q 26.265625 6.109375 33.40625 6.109375 
Q 40.53125 6.109375 44.609375 11.75 
Q 48.6875 17.390625 48.6875 27.296875 
z
M 18.109375 46.390625 
Q 20.953125 51.265625 25.265625 53.625 
Q 29.59375 56 35.59375 56 
Q 45.5625 56 51.78125 48.09375 
Q 58.015625 40.1875 58.015625 27.296875 
Q 58.015625 14.40625 51.78125 6.484375 
Q 45.5625 -1.421875 35.59375 -1.421875 
Q 29.59375 -1.421875 25.265625 0.953125 
Q 20.953125 3.328125 18.109375 8.203125 
L 18.109375 0 
L 9.078125 0 
L 9.078125 75.984375 
L 18.109375 75.984375 
z
" id="DejaVuSans-98"/>
     </defs>
     <use xlink:href="#DejaVuSans-98"/>
     <use x="63.476562" xlink:href="#DejaVuSans-101"/>
     <use x="125" xlink:href="#DejaVuSans-115"/>
     <use x="177.099609" xlink:href="#DejaVuSans-116"/>
     <use x="216.308594" xlink:href="#DejaVuSans-32"/>
     <use x="248.095703" xlink:href="#DejaVuSans-50"/>
     <use x="311.71875" xlink:href="#DejaVuSans-48"/>
     <use x="375.341797" xlink:href="#DejaVuSans-49"/>
     <use x="438.964844" xlink:href="#DejaVuSans-54"/>
    </g>
   </g>
   <g id="text_17">
    <!-- bbob-biobj f12, 5-D -->
    <g transform="translate(60.41088 38.111366)scale(0.102 -0.102)">
     <defs>
      <path d="M 9.421875 54.6875 
L 18.40625 54.6875 
L 18.40625 -0.984375 
Q 18.40625 -11.421875 14.421875 -16.109375 
Q 10.453125 -20.796875 1.609375 -20.796875 
L -1.8125 -20.796875 
L -1.8125 -13.1875 
L 0.59375 -13.1875 
Q 5.71875 -13.1875 7.5625 -10.8125 
Q 9.421875 -8.453125 9.421875 -0.984375 
z
M 9.421875 75.984375 
L 18.40625 75.984375 
L 18.40625 64.59375 
L 9.421875 64.59375 
z
" id="DejaVuSans-106"/>
      <path d="M 10.796875 72.90625 
L 49.515625 72.90625 
L 49.515625 64.59375 
L 19.828125 64.59375 
L 19.828125 46.734375 
Q 21.96875 47.46875 24.109375 47.828125 
Q 26.265625 48.1875 28.421875 48.1875 
Q 40.625 48.1875 47.75 41.5 
Q 54.890625 34.8125 54.890625 23.390625 
Q 54.890625 11.625 47.5625 5.09375 
Q 40.234375 -1.421875 26.90625 -1.421875 
Q 22.3125 -1.421875 17.546875 -0.640625 
Q 12.796875 0.140625 7.71875 1.703125 
L 7.71875 11.625 
Q 12.109375 9.234375 16.796875 8.0625 
Q 21.484375 6.890625 26.703125 6.890625 
Q 35.15625 6.890625 40.078125 11.328125 
Q 45.015625 15.765625 45.015625 23.390625 
Q 45.015625 31 40.078125 35.4375 
Q 35.15625 39.890625 26.703125 39.890625 
Q 22.75 39.890625 18.8125 39.015625 
Q 14.890625 38.140625 10.796875 36.28125 
z
" id="DejaVuSans-53"/>
      <path d="M 19.671875 64.796875 
L 19.671875 8.109375 
L 31.59375 8.109375 
Q 46.6875 8.109375 53.6875 14.9375 
Q 60.6875 21.78125 60.6875 36.53125 
Q 60.6875 51.171875 53.6875 57.984375 
Q 46.6875 64.796875 31.59375 64.796875 
z
M 9.8125 72.90625 
L 30.078125 72.90625 
Q 51.265625 72.90625 61.171875 64.09375 
Q 71.09375 55.28125 71.09375 36.53125 
Q 71.09375 17.671875 61.125 8.828125 
Q 51.171875 0 30.078125 0 
L 9.8125 0 
z
" id="DejaVuSans-68"/>
     </defs>
     <use xlink:href="#DejaVuSans-98"/>
     <use x="63.476562" xlink:href="#DejaVuSans-98"/>
     <use x="126.953125" xlink:href="#DejaVuSans-111"/>
     <use x="188.134766" xlink:href="#DejaVuSans-98"/>
     <use x="251.611328" xlink:href="#DejaVuSans-45"/>
     <use x="287.695312" xlink:href="#DejaVuSans-98"/>
     <use x="351.171875" xlink:href="#DejaVuSans-105"/>
     <use x="378.955078" xlink:href="#DejaVuSans-111"/>
     <use x="440.136719" xlink:href="#DejaVuSans-98"/>
     <use x="503.613281" xlink:href="#DejaVuSans-106"/>
     <use x="531.396484" xlink:href="#DejaVuSans-32"/>
     <use x="563.183594" xlink:href="#DejaVuSans-102"/>
     <use x="598.388672" xlink:href="#DejaVuSans-49"/>
     <use x="662.011719" xlink:href="#DejaVuSans-50"/>
     <use x="725.634766" xlink:href="#DejaVuSans-44"/>
     <use x="757.421875" xlink:href="#DejaVuSans-32"/>
     <use x="789.208984" xlink:href="#DejaVuSans-53"/>
     <use x="852.832031" xlink:href="#DejaVuSans-45"/>
     <use x="888.916016" xlink:href="#DejaVuSans-68"/>
    </g>
    <!-- 58 targets: 1..-1.0e-4 -->
    <g transform="translate(60.41088 49.533135)scale(0.102 -0.102)">
     <defs>
      <path d="M 11.71875 12.40625 
L 22.015625 12.40625 
L 22.015625 0 
L 11.71875 0 
z
M 11.71875 51.703125 
L 22.015625 51.703125 
L 22.015625 39.3125 
L 11.71875 39.3125 
z
" id="DejaVuSans-58"/>
     </defs>
     <use xlink:href="#DejaVuSans-53"/>
     <use x="63.623047" xlink:href="#DejaVuSans-56"/>
     <use x="127.246094" xlink:href="#DejaVuSans-32"/>
     <use x="159.033203" xlink:href="#DejaVuSans-116"/>
     <use x="198.242188" xlink:href="#DejaVuSans-97"/>
     <use x="259.521484" xlink:href="#DejaVuSans-114"/>
     <use x="298.884766" xlink:href="#DejaVuSans-103"/>
     <use x="362.361328" xlink:href="#DejaVuSans-101"/>
     <use x="423.884766" xlink:href="#DejaVuSans-116"/>
     <use x="463.09375" xlink:href="#DejaVuSans-115"/>
     <use x="515.193359" xlink:href="#DejaVuSans-58"/>
     <use x="548.884766" xlink:href="#DejaVuSans-32"/>
     <use x="580.671875" xlink:href="#DejaVuSans-49"/>
     <use x="644.294922" xlink:href="#DejaVuSans-46"/>
     <use x="676.082031" xlink:href="#DejaVuSans-46"/>
     <use x="707.869141" xlink:href="#DejaVuSans-45"/>
     <use x="743.953125" xlink:href="#DejaVuSans-49"/>
     <use x="807.576172" xlink:href="#DejaVuSans-46"/>
     <use x="839.363281" xlink:href="#DejaVuSans-48"/>
     <use x="902.986328" xlink:href="#DejaVuSans-101"/>
     <use x="964.509766" xlink:href="#DejaVuSans-45"/>
     <use x="1000.59375" xlink:href="#DejaVuSans-52"/>
    </g>
    <!-- 10 instances -->
    <g transform="translate(60.41088 60.954904)scale(0.102 -0.102)">
     <use xlink:href="#DejaVuSans-49"/>
     <use x="63.623047" xlink:href="#DejaVuSans-48"/>
     <use x="127.246094" xlink:href="#DejaVuSans-32"/>
     <use x="159.033203" xlink:href="#DejaVuSans-105"/>
     <use x="186.816406" xlink:href="#DejaVuSans-110"/>
     <use x="250.195312" xlink:href="#DejaVuSans-115"/>
     <use x="302.294922" xlink:href="#DejaVuSans-116"/>
     <use x="341.503906" xlink:href="#DejaVuSans-97"/>
     <use x="402.783203" xlink:href="#DejaVuSans-110"/>
     <use x="466.162109" xlink:href="#DejaVuSans-99"/>
     <use x="521.142578" xlink:href="#DejaVuSans-101"/>
     <use x="582.666016" xlink:href="#DejaVuSans-115"/>
    </g>
   </g>
   <g id="text_18">
    <!-- v2.4.19, hv-hash=ff0e71e8cd978373 -->
    <g style="fill:#808080;" transform="translate(104.697125 294.151352)scale(0.1 -0.1)">
     <defs>
      <path d="M 10.984375 1.515625 
L 10.984375 10.5 
Q 14.703125 8.734375 18.5 7.8125 
Q 22.3125 6.890625 25.984375 6.890625 
Q 35.75 6.890625 40.890625 13.453125 
Q 46.046875 20.015625 46.78125 33.40625 
Q 43.953125 29.203125 39.59375 26.953125 
Q 35.25 24.703125 29.984375 24.703125 
Q 19.046875 24.703125 12.671875 31.3125 
Q 6.296875 37.9375 6.296875 49.421875 
Q 6.296875 60.640625 12.9375 67.421875 
Q 19.578125 74.21875 30.609375 74.21875 
Q 43.265625 74.21875 49.921875 64.515625 
Q 56.59375 54.828125 56.59375 36.375 
Q 56.59375 19.140625 48.40625 8.859375 
Q 40.234375 -1.421875 26.421875 -1.421875 
Q 22.703125 -1.421875 18.890625 -0.6875 
Q 15.09375 0.046875 10.984375 1.515625 
z
M 30.609375 32.421875 
Q 37.25 32.421875 41.125 36.953125 
Q 45.015625 41.5 45.015625 49.421875 
Q 45.015625 57.28125 41.125 61.84375 
Q 37.25 66.40625 30.609375 66.40625 
Q 23.96875 66.40625 20.09375 61.84375 
Q 16.21875 57.28125 16.21875 49.421875 
Q 16.21875 41.5 20.09375 36.953125 
Q 23.96875 32.421875 30.609375 32.421875 
z
" id="DejaVuSans-57"/>
      <path d="M 54.890625 33.015625 
L 54.890625 0 
L 45.90625 0 
L 45.90625 32.71875 
Q 45.90625 40.484375 42.875 44.328125 
Q 39.84375 48.1875 33.796875 48.1875 
Q 26.515625 48.1875 22.3125 43.546875 
Q 18.109375 38.921875 18.109375 30.90625 
L 18.109375 0 
L 9.078125 0 
L 9.078125 75.984375 
L 18.109375 75.984375 
L 18.109375 46.1875 
Q 21.34375 51.125 25.703125 53.5625 
Q 30.078125 56 35.796875 56 
Q 45.21875 56 50.046875 50.171875 
Q 54.890625 44.34375 54.890625 33.015625 
z
" id="DejaVuSans-104"/>
      <path d="M 10.59375 45.40625 
L 73.1875 45.40625 
L 73.1875 37.203125 
L 10.59375 37.203125 
z
M 10.59375 25.484375 
L 73.1875 25.484375 
L 73.1875 17.1875 
L 10.59375 17.1875 
z
" id="DejaVuSans-61"/>
      <path d="M 8.203125 72.90625 
L 55.078125 72.90625 
L 55.078125 68.703125 
L 28.609375 0 
L 18.3125 0 
L 43.21875 64.59375 
L 8.203125 64.59375 
z
" id="DejaVuSans-55"/>
      <path d="M 40.578125 39.3125 
Q 47.65625 37.796875 51.625 33 
Q 55.609375 28.21875 55.609375 21.1875 
Q 55.609375 10.40625 48.1875 4.484375 
Q 40.765625 -1.421875 27.09375 -1.421875 
Q 22.515625 -1.421875 17.65625 -0.515625 
Q 12.796875 0.390625 7.625 2.203125 
L 7.625 11.71875 
Q 11.71875 9.328125 16.59375 8.109375 
Q 21.484375 6.890625 26.8125 6.890625 
Q 36.078125 6.890625 40.9375 10.546875 
Q 45.796875 14.203125 45.796875 21.1875 
Q 45.796875 27.640625 41.28125 31.265625 
Q 36.765625 34.90625 28.71875 34.90625 
L 20.21875 34.90625 
L 20.21875 43.015625 
L 29.109375 43.015625 
Q 36.375 43.015625 40.234375 45.921875 
Q 44.09375 48.828125 44.09375 54.296875 
Q 44.09375 59.90625 40.109375 62.90625 
Q 36.140625 65.921875 28.71875 65.921875 
Q 24.65625 65.921875 20.015625 65.03125 
Q 15.375 64.15625 9.8125 62.3125 
L 9.8125 71.09375 
Q 15.4375 72.65625 20.34375 73.4375 
Q 25.25 74.21875 29.59375 74.21875 
Q 40.828125 74.21875 47.359375 69.109375 
Q 53.90625 64.015625 53.90625 55.328125 
Q 53.90625 49.265625 50.4375 45.09375 
Q 46.96875 40.921875 40.578125 39.3125 
z
" id="DejaVuSans-51"/>
     </defs>
     <use xlink:href="#DejaVuSans-118"/>
     <use x="59.179688" xlink:href="#DejaVuSans-50"/>
     <use x="122.802734" xlink:href="#DejaVuSans-46"/>
     <use x="154.589844" xlink:href="#DejaVuSans-52"/>
     <use x="218.212891" xlink:href="#DejaVuSans-46"/>
     <use x="250" xlink:href="#DejaVuSans-49"/>
     <use x="313.623047" xlink:href="#DejaVuSans-57"/>
     <use x="377.246094" xlink:href="#DejaVuSans-44"/>
     <use x="409.033203" xlink:href="#DejaVuSans-32"/>
     <use x="440.820312" xlink:href="#DejaVuSans-104"/>
     <use x="504.199219" xlink:href="#DejaVuSans-118"/>
     <use x="560.753906" xlink:href="#DejaVuSans-45"/>
     <use x="596.837891" xlink:href="#DejaVuSans-104"/>
     <use x="660.216797" xlink:href="#DejaVuSans-97"/>
     <use x="721.496094" xlink:href="#DejaVuSans-115"/>
     <use x="773.595703" xlink:href="#DejaVuSans-104"/>
     <use x="836.974609" xlink:href="#DejaVuSans-61"/>
     <use x="920.763672" xlink:href="#DejaVuSans-102"/>
     <use x="955.96875" xlink:href="#DejaVuSans-102"/>
     <use x="991.173828" xlink:href="#DejaVuSans-48"/>
     <use x="1054.796875" xlink:href="#DejaVuSans-101"/>
     <use x="1116.320312" xlink:href="#DejaVuSans-55"/>
     <use x="1179.943359" xlink:href="#DejaVuSans-49"/>
     <use x="1243.566406" xlink:href="#DejaVuSans-101"/>
     <use x="1305.089844" xlink:href="#DejaVuSans-56"/>
     <use x="1368.712891" xlink:href="#DejaVuSans-99"/>
     <use x="1423.693359" xlink:href="#DejaVuSans-100"/>
     <use x="1487.169922" xlink:href="#DejaVuSans-57"/>
     <use x="1550.792969" xlink:href="#DejaVuSans-55"/>
     <use x="1614.416016" xlink:href="#DejaVuSans-56"/>
     <use x="1678.039062" xlink:href="#DejaVuSans-51"/>
     <use x="1741.662109" xlink:href="#DejaVuSans-55"/>
     <use x="1805.285156" xlink:href="#DejaVuSans-51"/>
    </g>
   </g>
   <g id="text_19">
    <!-- 12 sep. Ellipsoid/Attr. sector -->
    <g transform="translate(58.276812 21.648)scale(0.2 -0.2)">
     <use xlink:href="#DejaVuSans-49"/>
     <use x="63.623047" xlink:href="#DejaVuSans-50"/>
     <use x="127.246094" xlink:href="#DejaVuSans-32"/>
     <use x="159.033203" xlink:href="#DejaVuSans-115"/>
     <use x="211.132812" xlink:href="#DejaVuSans-101"/>
     <use x="272.65625" xlink:href="#DejaVuSans-112"/>
     <use x="336.132812" xlink:href="#DejaVuSans-46"/>
     <use x="367.919922" xlink:href="#DejaVuSans-32"/>
     <use x="399.707031" xlink:href="#DejaVuSans-69"/>
     <use x="462.890625" xlink:href="#DejaVuSans-108"/>
     <use x="490.673828" xlink:href="#DejaVuSans-108"/>
     <use x="518.457031" xlink:href="#DejaVuSans-105"/>
     <use x="546.240234" xlink:href="#DejaVuSans-112"/>
     <use x="609.716797" xlink:href="#DejaVuSans-115"/>
     <use x="661.816406" xlink:href="#DejaVuSans-111"/>
     <use x="722.998047" xlink:href="#DejaVuSans-105"/>
     <use x="750.78125" xlink:href="#DejaVuSans-100"/>
     <use x="814.257812" xlink:href="#DejaVuSans-47"/>
     <use x="847.949219" xlink:href="#DejaVuSans-65"/>
     <use x="914.607422" xlink:href="#DejaVuSans-116"/>
     <use x="953.816406" xlink:href="#DejaVuSans-116"/>
     <use x="993.025391" xlink:href="#DejaVuSans-114"/>
     <use x="1025.013672" xlink:href="#DejaVuSans-46"/>
     <use x="1056.800781" xlink:href="#DejaVuSans-32"/>
     <use x="1088.587891" xlink:href="#DejaVuSans-115"/>
     <use x="1140.6875" xlink:href="#DejaVuSans-101"/>
     <use x="1202.210938" xlink:href="#DejaVuSans-99"/>
     <use x="1257.191406" xlink:href="#DejaVuSans-116"/>
     <use x="1296.400391" xlink:href="#DejaVuSans-111"/>
     <use x="1357.582031" xlink:href="#DejaVuSans-114"/>
    </g>
   </g>
  </g>
 </g>
 <defs>
  <clipPath id="p23ff29e2c0">
   <rect height="271.296" width="281.088" x="57.6" y="27.648"/>
  </clipPath>
 </defs>
</svg>
