<?xml version="1.0" encoding="utf-8" standalone="no"?>
<!DOCTYPE svg PUBLIC "-//W3C//DTD SVG 1.1//EN"
  "http://www.w3.org/Graphics/SVG/1.1/DTD/svg11.dtd">
<!-- Created with matplotlib (https://matplotlib.org/) -->
<svg height="345.6pt" version="1.1" viewBox="0 0 460.8 345.6" width="460.8pt" xmlns="http://www.w3.org/2000/svg" xmlns:xlink="http://www.w3.org/1999/xlink">
 <metadata>
  <rdf:RDF xmlns:cc="http://creativecommons.org/ns#" xmlns:dc="http://purl.org/dc/elements/1.1/" xmlns:rdf="http://www.w3.org/1999/02/22-rdf-syntax-ns#">
   <cc:Work>
    <dc:type rdf:resource="http://purl.org/dc/dcmitype/StillImage"/>
    <dc:date>2021-04-26T15:04:29.469531</dc:date>
    <dc:format>image/svg+xml</dc:format>
    <dc:creator>
     <cc:Agent>
      <dc:title>Matplotlib v3.3.2, https://matplotlib.org/</dc:title>
     </cc:Agent>
    </dc:creator>
   </cc:Work>
  </rdf:RDF>
 </metadata>
 <defs>
  <style type="text/css">*{stroke-linecap:butt;stroke-linejoin:round;}</style>
 </defs>
 <g id="figure_1">
  <g id="patch_1">
   <path d="M 0 345.6 
L 460.8 345.6 
L 460.8 0 
L 0 0 
z
" style="fill:#ffffff;"/>
  </g>
  <g id="axes_1">
   <g id="patch_2">
    <path d="M 57.6 298.944 
L 338.688 298.944 
L 338.688 27.648 
L 57.6 27.648 
z
" style="fill:#ffffff;"/>
   </g>
   <g id="line2d_1">
    <path d="M 69.687988 298.944 
L 69.687988 294.312795 
L 76.759008 294.312795 
L 76.759008 285.050384 
L 83.830028 285.050384 
L 83.830028 275.787974 
L 94.921215 275.787974 
L 94.921215 271.156769 
L 104.826449 271.156769 
L 104.826449 257.263153 
L 114.751048 257.263153 
L 114.751048 248.000743 
L 121.036887 248.000743 
L 121.036887 243.369538 
L 127.48501 243.369538 
L 127.48501 234.107127 
L 135.878591 234.107127 
L 135.878591 220.213512 
L 139.493548 220.213512 
L 139.493548 210.951101 
L 142.215919 210.951101 
L 142.215919 201.688691 
L 145.998045 201.688691 
L 145.998045 192.426281 
L 149.557321 192.426281 
L 149.557321 187.795075 
L 153.069065 187.795075 
L 153.069065 173.90146 
L 159.354904 173.90146 
L 159.354904 169.270255 
L 165.732422 169.270255 
L 165.732422 155.376639 
L 178.547874 155.376639 
L 178.547874 146.114229 
L 186.240998 146.114229 
L 186.240998 141.483024 
L 193.235458 141.483024 
L 193.235458 127.589408 
L 196.646098 127.589408 
L 196.646098 122.958203 
L 202.884272 122.958203 
L 202.884272 109.064587 
L 203.04323 109.064587 
L 203.04323 99.802177 
L 203.122169 99.802177 
L 203.122169 90.539766 
L 203.91629 90.539766 
L 203.91629 85.908561 
L 217.058965 85.908561 
L 217.058965 76.646151 
L 218.044682 76.646151 
L 218.044682 62.752535 
L 338.688 62.752535 
" style="fill:none;stroke:#f5deb3;stroke-linecap:square;stroke-width:4;"/>
   </g>
   <g id="line2d_2">
    <defs>
     <path d="M 0 7.778175 
L 7.778175 0 
L 0 -7.778175 
L -7.778175 0 
z
" id="m5fa5a49822" style="stroke:#f5deb3;stroke-linejoin:miter;stroke-width:1.5;"/>
    </defs>
    <g>
     <use style="fill:#f5deb3;stroke:#f5deb3;stroke-linejoin:miter;stroke-width:1.5;" x="142.215919" xlink:href="#m5fa5a49822" y="201.688691"/>
     <use style="fill:#f5deb3;stroke:#f5deb3;stroke-linejoin:miter;stroke-width:1.5;" x="202.884272" xlink:href="#m5fa5a49822" y="109.064587"/>
     <use style="fill:#f5deb3;stroke:#f5deb3;stroke-linejoin:miter;stroke-width:1.5;" x="218.044682" xlink:href="#m5fa5a49822" y="62.752535"/>
     <use style="fill:#f5deb3;stroke:#f5deb3;stroke-linejoin:miter;stroke-width:1.5;" x="218.044682" xlink:href="#m5fa5a49822" y="62.752535"/>
     <use style="fill:#f5deb3;stroke:#f5deb3;stroke-linejoin:miter;stroke-width:1.5;" x="338.688" xlink:href="#m5fa5a49822" y="62.752535"/>
    </g>
   </g>
   <g id="line2d_3">
    <path style="fill:none;stroke:#f5deb3;stroke-linecap:square;stroke-width:4;"/>
    <g/>
   </g>
   <g id="line2d_4">
    <path d="M 338.688 62.752535 
L 369.60768 35.706297 
" style="fill:none;stroke:#f5deb3;stroke-linecap:square;stroke-width:4;"/>
    <g>
     <use style="fill:#f5deb3;stroke:#f5deb3;stroke-linejoin:miter;stroke-width:1.5;" x="338.688" xlink:href="#m5fa5a49822" y="62.752535"/>
     <use style="fill:#f5deb3;stroke:#f5deb3;stroke-linejoin:miter;stroke-width:1.5;" x="369.60768" xlink:href="#m5fa5a49822" y="35.706297"/>
    </g>
   </g>
   <g id="matplotlib.axis_1">
    <g id="xtick_1">
     <g id="line2d_5">
      <path clip-path="url(#p2de2945128)" d="M 57.6 298.944 
L 57.6 27.648 
" style="fill:none;stroke:#b0b0b0;stroke-linecap:square;stroke-width:0.8;"/>
     </g>
     <g id="line2d_6">
      <defs>
       <path d="M 0 0 
L 0 3.5 
" id="m332648511a" style="stroke:#000000;stroke-width:0.8;"/>
      </defs>
      <g>
       <use style="stroke:#000000;stroke-width:0.8;" x="57.6" xlink:href="#m332648511a" y="298.944"/>
      </g>
     </g>
     <g id="text_1">
      <!-- 0 -->
      <g transform="translate(51.2375 321.140875)scale(0.2 -0.2)">
       <defs>
        <path d="M 31.78125 66.40625 
Q 24.171875 66.40625 20.328125 58.90625 
Q 16.5 51.421875 16.5 36.375 
Q 16.5 21.390625 20.328125 13.890625 
Q 24.171875 6.390625 31.78125 6.390625 
Q 39.453125 6.390625 43.28125 13.890625 
Q 47.125 21.390625 47.125 36.375 
Q 47.125 51.421875 43.28125 58.90625 
Q 39.453125 66.40625 31.78125 66.40625 
z
M 31.78125 74.21875 
Q 44.046875 74.21875 50.515625 64.515625 
Q 56.984375 54.828125 56.984375 36.375 
Q 56.984375 17.96875 50.515625 8.265625 
Q 44.046875 -1.421875 31.78125 -1.421875 
Q 19.53125 -1.421875 13.0625 8.265625 
Q 6.59375 17.96875 6.59375 36.375 
Q 6.59375 54.828125 13.0625 64.515625 
Q 19.53125 74.21875 31.78125 74.21875 
z
" id="DejaVuSans-48"/>
       </defs>
       <use xlink:href="#DejaVuSans-48"/>
      </g>
     </g>
    </g>
    <g id="xtick_2">
     <g id="line2d_7">
      <path clip-path="url(#p2de2945128)" d="M 137.910857 298.944 
L 137.910857 27.648 
" style="fill:none;stroke:#b0b0b0;stroke-linecap:square;stroke-width:0.8;"/>
     </g>
     <g id="line2d_8">
      <g>
       <use style="stroke:#000000;stroke-width:0.8;" x="137.910857" xlink:href="#m332648511a" y="298.944"/>
      </g>
     </g>
     <g id="text_2">
      <!-- 2 -->
      <g transform="translate(131.548357 321.140875)scale(0.2 -0.2)">
       <defs>
        <path d="M 19.1875 8.296875 
L 53.609375 8.296875 
L 53.609375 0 
L 7.328125 0 
L 7.328125 8.296875 
Q 12.9375 14.109375 22.625 23.890625 
Q 32.328125 33.6875 34.8125 36.53125 
Q 39.546875 41.84375 41.421875 45.53125 
Q 43.3125 49.21875 43.3125 52.78125 
Q 43.3125 58.59375 39.234375 62.25 
Q 35.15625 65.921875 28.609375 65.921875 
Q 23.96875 65.921875 18.8125 64.3125 
Q 13.671875 62.703125 7.8125 59.421875 
L 7.8125 69.390625 
Q 13.765625 71.78125 18.9375 73 
Q 24.125 74.21875 28.421875 74.21875 
Q 39.75 74.21875 46.484375 68.546875 
Q 53.21875 62.890625 53.21875 53.421875 
Q 53.21875 48.921875 51.53125 44.890625 
Q 49.859375 40.875 45.40625 35.40625 
Q 44.1875 33.984375 37.640625 27.21875 
Q 31.109375 20.453125 19.1875 8.296875 
z
" id="DejaVuSans-50"/>
       </defs>
       <use xlink:href="#DejaVuSans-50"/>
      </g>
     </g>
    </g>
    <g id="xtick_3">
     <g id="line2d_9">
      <path clip-path="url(#p2de2945128)" d="M 218.221714 298.944 
L 218.221714 27.648 
" style="fill:none;stroke:#b0b0b0;stroke-linecap:square;stroke-width:0.8;"/>
     </g>
     <g id="line2d_10">
      <g>
       <use style="stroke:#000000;stroke-width:0.8;" x="218.221714" xlink:href="#m332648511a" y="298.944"/>
      </g>
     </g>
     <g id="text_3">
      <!-- 4 -->
      <g transform="translate(211.859214 321.140875)scale(0.2 -0.2)">
       <defs>
        <path d="M 37.796875 64.3125 
L 12.890625 25.390625 
L 37.796875 25.390625 
z
M 35.203125 72.90625 
L 47.609375 72.90625 
L 47.609375 25.390625 
L 58.015625 25.390625 
L 58.015625 17.1875 
L 47.609375 17.1875 
L 47.609375 0 
L 37.796875 0 
L 37.796875 17.1875 
L 4.890625 17.1875 
L 4.890625 26.703125 
z
" id="DejaVuSans-52"/>
       </defs>
       <use xlink:href="#DejaVuSans-52"/>
      </g>
     </g>
    </g>
    <g id="xtick_4">
     <g id="line2d_11">
      <path clip-path="url(#p2de2945128)" d="M 298.532571 298.944 
L 298.532571 27.648 
" style="fill:none;stroke:#b0b0b0;stroke-linecap:square;stroke-width:0.8;"/>
     </g>
     <g id="line2d_12">
      <g>
       <use style="stroke:#000000;stroke-width:0.8;" x="298.532571" xlink:href="#m332648511a" y="298.944"/>
      </g>
     </g>
     <g id="text_4">
      <!-- 6 -->
      <g transform="translate(292.170071 321.140875)scale(0.2 -0.2)">
       <defs>
        <path d="M 33.015625 40.375 
Q 26.375 40.375 22.484375 35.828125 
Q 18.609375 31.296875 18.609375 23.390625 
Q 18.609375 15.53125 22.484375 10.953125 
Q 26.375 6.390625 33.015625 6.390625 
Q 39.65625 6.390625 43.53125 10.953125 
Q 47.40625 15.53125 47.40625 23.390625 
Q 47.40625 31.296875 43.53125 35.828125 
Q 39.65625 40.375 33.015625 40.375 
z
M 52.59375 71.296875 
L 52.59375 62.3125 
Q 48.875 64.0625 45.09375 64.984375 
Q 41.3125 65.921875 37.59375 65.921875 
Q 27.828125 65.921875 22.671875 59.328125 
Q 17.53125 52.734375 16.796875 39.40625 
Q 19.671875 43.65625 24.015625 45.921875 
Q 28.375 48.1875 33.59375 48.1875 
Q 44.578125 48.1875 50.953125 41.515625 
Q 57.328125 34.859375 57.328125 23.390625 
Q 57.328125 12.15625 50.6875 5.359375 
Q 44.046875 -1.421875 33.015625 -1.421875 
Q 20.359375 -1.421875 13.671875 8.265625 
Q 6.984375 17.96875 6.984375 36.375 
Q 6.984375 53.65625 15.1875 63.9375 
Q 23.390625 74.21875 37.203125 74.21875 
Q 40.921875 74.21875 44.703125 73.484375 
Q 48.484375 72.75 52.59375 71.296875 
z
" id="DejaVuSans-54"/>
       </defs>
       <use xlink:href="#DejaVuSans-54"/>
      </g>
     </g>
    </g>
    <g id="xtick_5">
     <g id="line2d_13">
      <path clip-path="url(#p2de2945128)" d="M 97.755429 298.944 
L 97.755429 27.648 
" style="fill:none;stroke:#b0b0b0;stroke-linecap:square;stroke-width:0.8;"/>
     </g>
     <g id="line2d_14">
      <defs>
       <path d="M 0 0 
L 0 2 
" id="md2a20f5313" style="stroke:#000000;stroke-width:0.6;"/>
      </defs>
      <g>
       <use style="stroke:#000000;stroke-width:0.6;" x="97.755429" xlink:href="#md2a20f5313" y="298.944"/>
      </g>
     </g>
    </g>
    <g id="xtick_6">
     <g id="line2d_15">
      <path clip-path="url(#p2de2945128)" d="M 178.066286 298.944 
L 178.066286 27.648 
" style="fill:none;stroke:#b0b0b0;stroke-linecap:square;stroke-width:0.8;"/>
     </g>
     <g id="line2d_16">
      <g>
       <use style="stroke:#000000;stroke-width:0.6;" x="178.066286" xlink:href="#md2a20f5313" y="298.944"/>
      </g>
     </g>
    </g>
    <g id="xtick_7">
     <g id="line2d_17">
      <path clip-path="url(#p2de2945128)" d="M 258.377143 298.944 
L 258.377143 27.648 
" style="fill:none;stroke:#b0b0b0;stroke-linecap:square;stroke-width:0.8;"/>
     </g>
     <g id="line2d_18">
      <g>
       <use style="stroke:#000000;stroke-width:0.6;" x="258.377143" xlink:href="#md2a20f5313" y="298.944"/>
      </g>
     </g>
    </g>
    <g id="xtick_8">
     <g id="line2d_19">
      <path clip-path="url(#p2de2945128)" d="M 338.688 298.944 
L 338.688 27.648 
" style="fill:none;stroke:#b0b0b0;stroke-linecap:square;stroke-width:0.8;"/>
     </g>
     <g id="line2d_20">
      <g>
       <use style="stroke:#000000;stroke-width:0.6;" x="338.688" xlink:href="#md2a20f5313" y="298.944"/>
      </g>
     </g>
    </g>
    <g id="text_5">
     <!-- log10(# f-evals / dimension) -->
     <g transform="translate(77.764078 342.217594)scale(0.17 -0.17)">
      <defs>
       <path d="M 9.421875 75.984375 
L 18.40625 75.984375 
L 18.40625 0 
L 9.421875 0 
z
" id="DejaVuSans-108"/>
       <path d="M 30.609375 48.390625 
Q 23.390625 48.390625 19.1875 42.75 
Q 14.984375 37.109375 14.984375 27.296875 
Q 14.984375 17.484375 19.15625 11.84375 
Q 23.34375 6.203125 30.609375 6.203125 
Q 37.796875 6.203125 41.984375 11.859375 
Q 46.1875 17.53125 46.1875 27.296875 
Q 46.1875 37.015625 41.984375 42.703125 
Q 37.796875 48.390625 30.609375 48.390625 
z
M 30.609375 56 
Q 42.328125 56 49.015625 48.375 
Q 55.71875 40.765625 55.71875 27.296875 
Q 55.71875 13.875 49.015625 6.21875 
Q 42.328125 -1.421875 30.609375 -1.421875 
Q 18.84375 -1.421875 12.171875 6.21875 
Q 5.515625 13.875 5.515625 27.296875 
Q 5.515625 40.765625 12.171875 48.375 
Q 18.84375 56 30.609375 56 
z
" id="DejaVuSans-111"/>
       <path d="M 45.40625 27.984375 
Q 45.40625 37.75 41.375 43.109375 
Q 37.359375 48.484375 30.078125 48.484375 
Q 22.859375 48.484375 18.828125 43.109375 
Q 14.796875 37.75 14.796875 27.984375 
Q 14.796875 18.265625 18.828125 12.890625 
Q 22.859375 7.515625 30.078125 7.515625 
Q 37.359375 7.515625 41.375 12.890625 
Q 45.40625 18.265625 45.40625 27.984375 
z
M 54.390625 6.78125 
Q 54.390625 -7.171875 48.1875 -13.984375 
Q 42 -20.796875 29.203125 -20.796875 
Q 24.46875 -20.796875 20.265625 -20.09375 
Q 16.0625 -19.390625 12.109375 -17.921875 
L 12.109375 -9.1875 
Q 16.0625 -11.328125 19.921875 -12.34375 
Q 23.78125 -13.375 27.78125 -13.375 
Q 36.625 -13.375 41.015625 -8.765625 
Q 45.40625 -4.15625 45.40625 5.171875 
L 45.40625 9.625 
Q 42.625 4.78125 38.28125 2.390625 
Q 33.9375 0 27.875 0 
Q 17.828125 0 11.671875 7.65625 
Q 5.515625 15.328125 5.515625 27.984375 
Q 5.515625 40.671875 11.671875 48.328125 
Q 17.828125 56 27.875 56 
Q 33.9375 56 38.28125 53.609375 
Q 42.625 51.21875 45.40625 46.390625 
L 45.40625 54.6875 
L 54.390625 54.6875 
z
" id="DejaVuSans-103"/>
       <path d="M 12.40625 8.296875 
L 28.515625 8.296875 
L 28.515625 63.921875 
L 10.984375 60.40625 
L 10.984375 69.390625 
L 28.421875 72.90625 
L 38.28125 72.90625 
L 38.28125 8.296875 
L 54.390625 8.296875 
L 54.390625 0 
L 12.40625 0 
z
" id="DejaVuSans-49"/>
       <path d="M 31 75.875 
Q 24.46875 64.65625 21.28125 53.65625 
Q 18.109375 42.671875 18.109375 31.390625 
Q 18.109375 20.125 21.3125 9.0625 
Q 24.515625 -2 31 -13.1875 
L 23.1875 -13.1875 
Q 15.875 -1.703125 12.234375 9.375 
Q 8.59375 20.453125 8.59375 31.390625 
Q 8.59375 42.28125 12.203125 53.3125 
Q 15.828125 64.359375 23.1875 75.875 
z
" id="DejaVuSans-40"/>
       <path d="M 51.125 44 
L 36.921875 44 
L 32.8125 27.6875 
L 47.125 27.6875 
z
M 43.796875 71.78125 
L 38.71875 51.515625 
L 52.984375 51.515625 
L 58.109375 71.78125 
L 65.921875 71.78125 
L 60.890625 51.515625 
L 76.125 51.515625 
L 76.125 44 
L 58.984375 44 
L 54.984375 27.6875 
L 70.515625 27.6875 
L 70.515625 20.21875 
L 53.078125 20.21875 
L 48 0 
L 40.1875 0 
L 45.21875 20.21875 
L 30.90625 20.21875 
L 25.875 0 
L 18.015625 0 
L 23.09375 20.21875 
L 7.71875 20.21875 
L 7.71875 27.6875 
L 24.90625 27.6875 
L 29 44 
L 13.28125 44 
L 13.28125 51.515625 
L 30.90625 51.515625 
L 35.890625 71.78125 
z
" id="DejaVuSans-35"/>
       <path id="DejaVuSans-32"/>
       <path d="M 37.109375 75.984375 
L 37.109375 68.5 
L 28.515625 68.5 
Q 23.6875 68.5 21.796875 66.546875 
Q 19.921875 64.59375 19.921875 59.515625 
L 19.921875 54.6875 
L 34.71875 54.6875 
L 34.71875 47.703125 
L 19.921875 47.703125 
L 19.921875 0 
L 10.890625 0 
L 10.890625 47.703125 
L 2.296875 47.703125 
L 2.296875 54.6875 
L 10.890625 54.6875 
L 10.890625 58.5 
Q 10.890625 67.625 15.140625 71.796875 
Q 19.390625 75.984375 28.609375 75.984375 
z
" id="DejaVuSans-102"/>
       <path d="M 4.890625 31.390625 
L 31.203125 31.390625 
L 31.203125 23.390625 
L 4.890625 23.390625 
z
" id="DejaVuSans-45"/>
       <path d="M 56.203125 29.59375 
L 56.203125 25.203125 
L 14.890625 25.203125 
Q 15.484375 15.921875 20.484375 11.0625 
Q 25.484375 6.203125 34.421875 6.203125 
Q 39.59375 6.203125 44.453125 7.46875 
Q 49.3125 8.734375 54.109375 11.28125 
L 54.109375 2.78125 
Q 49.265625 0.734375 44.1875 -0.34375 
Q 39.109375 -1.421875 33.890625 -1.421875 
Q 20.796875 -1.421875 13.15625 6.1875 
Q 5.515625 13.8125 5.515625 26.8125 
Q 5.515625 40.234375 12.765625 48.109375 
Q 20.015625 56 32.328125 56 
Q 43.359375 56 49.78125 48.890625 
Q 56.203125 41.796875 56.203125 29.59375 
z
M 47.21875 32.234375 
Q 47.125 39.59375 43.09375 43.984375 
Q 39.0625 48.390625 32.421875 48.390625 
Q 24.90625 48.390625 20.390625 44.140625 
Q 15.875 39.890625 15.1875 32.171875 
z
" id="DejaVuSans-101"/>
       <path d="M 2.984375 54.6875 
L 12.5 54.6875 
L 29.59375 8.796875 
L 46.6875 54.6875 
L 56.203125 54.6875 
L 35.6875 0 
L 23.484375 0 
z
" id="DejaVuSans-118"/>
       <path d="M 34.28125 27.484375 
Q 23.390625 27.484375 19.1875 25 
Q 14.984375 22.515625 14.984375 16.5 
Q 14.984375 11.71875 18.140625 8.90625 
Q 21.296875 6.109375 26.703125 6.109375 
Q 34.1875 6.109375 38.703125 11.40625 
Q 43.21875 16.703125 43.21875 25.484375 
L 43.21875 27.484375 
z
M 52.203125 31.203125 
L 52.203125 0 
L 43.21875 0 
L 43.21875 8.296875 
Q 40.140625 3.328125 35.546875 0.953125 
Q 30.953125 -1.421875 24.3125 -1.421875 
Q 15.921875 -1.421875 10.953125 3.296875 
Q 6 8.015625 6 15.921875 
Q 6 25.140625 12.171875 29.828125 
Q 18.359375 34.515625 30.609375 34.515625 
L 43.21875 34.515625 
L 43.21875 35.40625 
Q 43.21875 41.609375 39.140625 45 
Q 35.0625 48.390625 27.6875 48.390625 
Q 23 48.390625 18.546875 47.265625 
Q 14.109375 46.140625 10.015625 43.890625 
L 10.015625 52.203125 
Q 14.9375 54.109375 19.578125 55.046875 
Q 24.21875 56 28.609375 56 
Q 40.484375 56 46.34375 49.84375 
Q 52.203125 43.703125 52.203125 31.203125 
z
" id="DejaVuSans-97"/>
       <path d="M 44.28125 53.078125 
L 44.28125 44.578125 
Q 40.484375 46.53125 36.375 47.5 
Q 32.28125 48.484375 27.875 48.484375 
Q 21.1875 48.484375 17.84375 46.4375 
Q 14.5 44.390625 14.5 40.28125 
Q 14.5 37.15625 16.890625 35.375 
Q 19.28125 33.59375 26.515625 31.984375 
L 29.59375 31.296875 
Q 39.15625 29.25 43.1875 25.515625 
Q 47.21875 21.78125 47.21875 15.09375 
Q 47.21875 7.46875 41.1875 3.015625 
Q 35.15625 -1.421875 24.609375 -1.421875 
Q 20.21875 -1.421875 15.453125 -0.5625 
Q 10.6875 0.296875 5.421875 2 
L 5.421875 11.28125 
Q 10.40625 8.6875 15.234375 7.390625 
Q 20.0625 6.109375 24.8125 6.109375 
Q 31.15625 6.109375 34.5625 8.28125 
Q 37.984375 10.453125 37.984375 14.40625 
Q 37.984375 18.0625 35.515625 20.015625 
Q 33.0625 21.96875 24.703125 23.78125 
L 21.578125 24.515625 
Q 13.234375 26.265625 9.515625 29.90625 
Q 5.8125 33.546875 5.8125 39.890625 
Q 5.8125 47.609375 11.28125 51.796875 
Q 16.75 56 26.8125 56 
Q 31.78125 56 36.171875 55.265625 
Q 40.578125 54.546875 44.28125 53.078125 
z
" id="DejaVuSans-115"/>
       <path d="M 25.390625 72.90625 
L 33.6875 72.90625 
L 8.296875 -9.28125 
L 0 -9.28125 
z
" id="DejaVuSans-47"/>
       <path d="M 45.40625 46.390625 
L 45.40625 75.984375 
L 54.390625 75.984375 
L 54.390625 0 
L 45.40625 0 
L 45.40625 8.203125 
Q 42.578125 3.328125 38.25 0.953125 
Q 33.9375 -1.421875 27.875 -1.421875 
Q 17.96875 -1.421875 11.734375 6.484375 
Q 5.515625 14.40625 5.515625 27.296875 
Q 5.515625 40.1875 11.734375 48.09375 
Q 17.96875 56 27.875 56 
Q 33.9375 56 38.25 53.625 
Q 42.578125 51.265625 45.40625 46.390625 
z
M 14.796875 27.296875 
Q 14.796875 17.390625 18.875 11.75 
Q 22.953125 6.109375 30.078125 6.109375 
Q 37.203125 6.109375 41.296875 11.75 
Q 45.40625 17.390625 45.40625 27.296875 
Q 45.40625 37.203125 41.296875 42.84375 
Q 37.203125 48.484375 30.078125 48.484375 
Q 22.953125 48.484375 18.875 42.84375 
Q 14.796875 37.203125 14.796875 27.296875 
z
" id="DejaVuSans-100"/>
       <path d="M 9.421875 54.6875 
L 18.40625 54.6875 
L 18.40625 0 
L 9.421875 0 
z
M 9.421875 75.984375 
L 18.40625 75.984375 
L 18.40625 64.59375 
L 9.421875 64.59375 
z
" id="DejaVuSans-105"/>
       <path d="M 52 44.1875 
Q 55.375 50.25 60.0625 53.125 
Q 64.75 56 71.09375 56 
Q 79.640625 56 84.28125 50.015625 
Q 88.921875 44.046875 88.921875 33.015625 
L 88.921875 0 
L 79.890625 0 
L 79.890625 32.71875 
Q 79.890625 40.578125 77.09375 44.375 
Q 74.3125 48.1875 68.609375 48.1875 
Q 61.625 48.1875 57.5625 43.546875 
Q 53.515625 38.921875 53.515625 30.90625 
L 53.515625 0 
L 44.484375 0 
L 44.484375 32.71875 
Q 44.484375 40.625 41.703125 44.40625 
Q 38.921875 48.1875 33.109375 48.1875 
Q 26.21875 48.1875 22.15625 43.53125 
Q 18.109375 38.875 18.109375 30.90625 
L 18.109375 0 
L 9.078125 0 
L 9.078125 54.6875 
L 18.109375 54.6875 
L 18.109375 46.1875 
Q 21.1875 51.21875 25.484375 53.609375 
Q 29.78125 56 35.6875 56 
Q 41.65625 56 45.828125 52.96875 
Q 50 49.953125 52 44.1875 
z
" id="DejaVuSans-109"/>
       <path d="M 54.890625 33.015625 
L 54.890625 0 
L 45.90625 0 
L 45.90625 32.71875 
Q 45.90625 40.484375 42.875 44.328125 
Q 39.84375 48.1875 33.796875 48.1875 
Q 26.515625 48.1875 22.3125 43.546875 
Q 18.109375 38.921875 18.109375 30.90625 
L 18.109375 0 
L 9.078125 0 
L 9.078125 54.6875 
L 18.109375 54.6875 
L 18.109375 46.1875 
Q 21.34375 51.125 25.703125 53.5625 
Q 30.078125 56 35.796875 56 
Q 45.21875 56 50.046875 50.171875 
Q 54.890625 44.34375 54.890625 33.015625 
z
" id="DejaVuSans-110"/>
       <path d="M 8.015625 75.875 
L 15.828125 75.875 
Q 23.140625 64.359375 26.78125 53.3125 
Q 30.421875 42.28125 30.421875 31.390625 
Q 30.421875 20.453125 26.78125 9.375 
Q 23.140625 -1.703125 15.828125 -13.1875 
L 8.015625 -13.1875 
Q 14.5 -2 17.703125 9.0625 
Q 20.90625 20.125 20.90625 31.390625 
Q 20.90625 42.671875 17.703125 53.65625 
Q 14.5 64.65625 8.015625 75.875 
z
" id="DejaVuSans-41"/>
      </defs>
      <use xlink:href="#DejaVuSans-108"/>
      <use x="27.783203" xlink:href="#DejaVuSans-111"/>
      <use x="88.964844" xlink:href="#DejaVuSans-103"/>
      <use x="152.441406" xlink:href="#DejaVuSans-49"/>
      <use x="216.064453" xlink:href="#DejaVuSans-48"/>
      <use x="279.6875" xlink:href="#DejaVuSans-40"/>
      <use x="318.701172" xlink:href="#DejaVuSans-35"/>
      <use x="402.490234" xlink:href="#DejaVuSans-32"/>
      <use x="434.277344" xlink:href="#DejaVuSans-102"/>
      <use x="463.982422" xlink:href="#DejaVuSans-45"/>
      <use x="500.066406" xlink:href="#DejaVuSans-101"/>
      <use x="561.589844" xlink:href="#DejaVuSans-118"/>
      <use x="620.769531" xlink:href="#DejaVuSans-97"/>
      <use x="682.048828" xlink:href="#DejaVuSans-108"/>
      <use x="709.832031" xlink:href="#DejaVuSans-115"/>
      <use x="761.931641" xlink:href="#DejaVuSans-32"/>
      <use x="793.71875" xlink:href="#DejaVuSans-47"/>
      <use x="827.410156" xlink:href="#DejaVuSans-32"/>
      <use x="859.197266" xlink:href="#DejaVuSans-100"/>
      <use x="922.673828" xlink:href="#DejaVuSans-105"/>
      <use x="950.457031" xlink:href="#DejaVuSans-109"/>
      <use x="1047.869141" xlink:href="#DejaVuSans-101"/>
      <use x="1109.392578" xlink:href="#DejaVuSans-110"/>
      <use x="1172.771484" xlink:href="#DejaVuSans-115"/>
      <use x="1224.871094" xlink:href="#DejaVuSans-105"/>
      <use x="1252.654297" xlink:href="#DejaVuSans-111"/>
      <use x="1313.835938" xlink:href="#DejaVuSans-110"/>
      <use x="1377.214844" xlink:href="#DejaVuSans-41"/>
     </g>
    </g>
   </g>
   <g id="matplotlib.axis_2">
    <g id="ytick_1">
     <g id="line2d_21">
      <path clip-path="url(#p2de2945128)" d="M 57.6 298.944 
L 338.688 298.944 
" style="fill:none;stroke:#b0b0b0;stroke-linecap:square;stroke-width:0.8;"/>
     </g>
     <g id="line2d_22">
      <defs>
       <path d="M 0 0 
L -3.5 0 
" id="mba4eaacc12" style="stroke:#000000;stroke-width:0.8;"/>
      </defs>
      <g>
       <use style="stroke:#000000;stroke-width:0.8;" x="57.6" xlink:href="#mba4eaacc12" y="298.944"/>
      </g>
     </g>
     <g id="text_6">
      <!-- 0.0 -->
      <g transform="translate(25.155 305.02275)scale(0.16 -0.16)">
       <defs>
        <path d="M 10.6875 12.40625 
L 21 12.40625 
L 21 0 
L 10.6875 0 
z
" id="DejaVuSans-46"/>
       </defs>
       <use xlink:href="#DejaVuSans-48"/>
       <use x="63.623047" xlink:href="#DejaVuSans-46"/>
       <use x="95.410156" xlink:href="#DejaVuSans-48"/>
      </g>
     </g>
    </g>
    <g id="ytick_2">
     <g id="line2d_23">
      <path clip-path="url(#p2de2945128)" d="M 57.6 245.22202 
L 338.688 245.22202 
" style="fill:none;stroke:#b0b0b0;stroke-linecap:square;stroke-width:0.8;"/>
     </g>
     <g id="line2d_24">
      <g>
       <use style="stroke:#000000;stroke-width:0.8;" x="57.6" xlink:href="#mba4eaacc12" y="245.22202"/>
      </g>
     </g>
     <g id="text_7">
      <!-- 0.2 -->
      <g transform="translate(25.155 251.30077)scale(0.16 -0.16)">
       <use xlink:href="#DejaVuSans-48"/>
       <use x="63.623047" xlink:href="#DejaVuSans-46"/>
       <use x="95.410156" xlink:href="#DejaVuSans-50"/>
      </g>
     </g>
    </g>
    <g id="ytick_3">
     <g id="line2d_25">
      <path clip-path="url(#p2de2945128)" d="M 57.6 191.50004 
L 338.688 191.50004 
" style="fill:none;stroke:#b0b0b0;stroke-linecap:square;stroke-width:0.8;"/>
     </g>
     <g id="line2d_26">
      <g>
       <use style="stroke:#000000;stroke-width:0.8;" x="57.6" xlink:href="#mba4eaacc12" y="191.50004"/>
      </g>
     </g>
     <g id="text_8">
      <!-- 0.4 -->
      <g transform="translate(25.155 197.57879)scale(0.16 -0.16)">
       <use xlink:href="#DejaVuSans-48"/>
       <use x="63.623047" xlink:href="#DejaVuSans-46"/>
       <use x="95.410156" xlink:href="#DejaVuSans-52"/>
      </g>
     </g>
    </g>
    <g id="ytick_4">
     <g id="line2d_27">
      <path clip-path="url(#p2de2945128)" d="M 57.6 137.778059 
L 338.688 137.778059 
" style="fill:none;stroke:#b0b0b0;stroke-linecap:square;stroke-width:0.8;"/>
     </g>
     <g id="line2d_28">
      <g>
       <use style="stroke:#000000;stroke-width:0.8;" x="57.6" xlink:href="#mba4eaacc12" y="137.778059"/>
      </g>
     </g>
     <g id="text_9">
      <!-- 0.6 -->
      <g transform="translate(25.155 143.856809)scale(0.16 -0.16)">
       <use xlink:href="#DejaVuSans-48"/>
       <use x="63.623047" xlink:href="#DejaVuSans-46"/>
       <use x="95.410156" xlink:href="#DejaVuSans-54"/>
      </g>
     </g>
    </g>
    <g id="ytick_5">
     <g id="line2d_29">
      <path clip-path="url(#p2de2945128)" d="M 57.6 84.056079 
L 338.688 84.056079 
" style="fill:none;stroke:#b0b0b0;stroke-linecap:square;stroke-width:0.8;"/>
     </g>
     <g id="line2d_30">
      <g>
       <use style="stroke:#000000;stroke-width:0.8;" x="57.6" xlink:href="#mba4eaacc12" y="84.056079"/>
      </g>
     </g>
     <g id="text_10">
      <!-- 0.8 -->
      <g transform="translate(25.155 90.134829)scale(0.16 -0.16)">
       <defs>
        <path d="M 31.78125 34.625 
Q 24.75 34.625 20.71875 30.859375 
Q 16.703125 27.09375 16.703125 20.515625 
Q 16.703125 13.921875 20.71875 10.15625 
Q 24.75 6.390625 31.78125 6.390625 
Q 38.8125 6.390625 42.859375 10.171875 
Q 46.921875 13.96875 46.921875 20.515625 
Q 46.921875 27.09375 42.890625 30.859375 
Q 38.875 34.625 31.78125 34.625 
z
M 21.921875 38.8125 
Q 15.578125 40.375 12.03125 44.71875 
Q 8.5 49.078125 8.5 55.328125 
Q 8.5 64.0625 14.71875 69.140625 
Q 20.953125 74.21875 31.78125 74.21875 
Q 42.671875 74.21875 48.875 69.140625 
Q 55.078125 64.0625 55.078125 55.328125 
Q 55.078125 49.078125 51.53125 44.71875 
Q 48 40.375 41.703125 38.8125 
Q 48.828125 37.15625 52.796875 32.3125 
Q 56.78125 27.484375 56.78125 20.515625 
Q 56.78125 9.90625 50.3125 4.234375 
Q 43.84375 -1.421875 31.78125 -1.421875 
Q 19.734375 -1.421875 13.25 4.234375 
Q 6.78125 9.90625 6.78125 20.515625 
Q 6.78125 27.484375 10.78125 32.3125 
Q 14.796875 37.15625 21.921875 38.8125 
z
M 18.3125 54.390625 
Q 18.3125 48.734375 21.84375 45.5625 
Q 25.390625 42.390625 31.78125 42.390625 
Q 38.140625 42.390625 41.71875 45.5625 
Q 45.3125 48.734375 45.3125 54.390625 
Q 45.3125 60.0625 41.71875 63.234375 
Q 38.140625 66.40625 31.78125 66.40625 
Q 25.390625 66.40625 21.84375 63.234375 
Q 18.3125 60.0625 18.3125 54.390625 
z
" id="DejaVuSans-56"/>
       </defs>
       <use xlink:href="#DejaVuSans-48"/>
       <use x="63.623047" xlink:href="#DejaVuSans-46"/>
       <use x="95.410156" xlink:href="#DejaVuSans-56"/>
      </g>
     </g>
    </g>
    <g id="ytick_6">
     <g id="line2d_31">
      <path clip-path="url(#p2de2945128)" d="M 57.6 30.334099 
L 338.688 30.334099 
" style="fill:none;stroke:#b0b0b0;stroke-linecap:square;stroke-width:0.8;"/>
     </g>
     <g id="line2d_32">
      <g>
       <use style="stroke:#000000;stroke-width:0.8;" x="57.6" xlink:href="#mba4eaacc12" y="30.334099"/>
      </g>
     </g>
     <g id="text_11">
      <!-- 1.0 -->
      <g transform="translate(25.155 36.412849)scale(0.16 -0.16)">
       <use xlink:href="#DejaVuSans-49"/>
       <use x="63.623047" xlink:href="#DejaVuSans-46"/>
       <use x="95.410156" xlink:href="#DejaVuSans-48"/>
      </g>
     </g>
    </g>
    <g id="text_12">
     <!-- Fraction of function,target pairs -->
     <g transform="translate(17.619531 297.681)rotate(-90)scale(0.17 -0.17)">
      <defs>
       <path d="M 9.8125 72.90625 
L 51.703125 72.90625 
L 51.703125 64.59375 
L 19.671875 64.59375 
L 19.671875 43.109375 
L 48.578125 43.109375 
L 48.578125 34.8125 
L 19.671875 34.8125 
L 19.671875 0 
L 9.8125 0 
z
" id="DejaVuSans-70"/>
       <path d="M 41.109375 46.296875 
Q 39.59375 47.171875 37.8125 47.578125 
Q 36.03125 48 33.890625 48 
Q 26.265625 48 22.1875 43.046875 
Q 18.109375 38.09375 18.109375 28.8125 
L 18.109375 0 
L 9.078125 0 
L 9.078125 54.6875 
L 18.109375 54.6875 
L 18.109375 46.1875 
Q 20.953125 51.171875 25.484375 53.578125 
Q 30.03125 56 36.53125 56 
Q 37.453125 56 38.578125 55.875 
Q 39.703125 55.765625 41.0625 55.515625 
z
" id="DejaVuSans-114"/>
       <path d="M 48.78125 52.59375 
L 48.78125 44.1875 
Q 44.96875 46.296875 41.140625 47.34375 
Q 37.3125 48.390625 33.40625 48.390625 
Q 24.65625 48.390625 19.8125 42.84375 
Q 14.984375 37.3125 14.984375 27.296875 
Q 14.984375 17.28125 19.8125 11.734375 
Q 24.65625 6.203125 33.40625 6.203125 
Q 37.3125 6.203125 41.140625 7.25 
Q 44.96875 8.296875 48.78125 10.40625 
L 48.78125 2.09375 
Q 45.015625 0.34375 40.984375 -0.53125 
Q 36.96875 -1.421875 32.421875 -1.421875 
Q 20.0625 -1.421875 12.78125 6.34375 
Q 5.515625 14.109375 5.515625 27.296875 
Q 5.515625 40.671875 12.859375 48.328125 
Q 20.21875 56 33.015625 56 
Q 37.15625 56 41.109375 55.140625 
Q 45.0625 54.296875 48.78125 52.59375 
z
" id="DejaVuSans-99"/>
       <path d="M 18.3125 70.21875 
L 18.3125 54.6875 
L 36.8125 54.6875 
L 36.8125 47.703125 
L 18.3125 47.703125 
L 18.3125 18.015625 
Q 18.3125 11.328125 20.140625 9.421875 
Q 21.96875 7.515625 27.59375 7.515625 
L 36.8125 7.515625 
L 36.8125 0 
L 27.59375 0 
Q 17.1875 0 13.234375 3.875 
Q 9.28125 7.765625 9.28125 18.015625 
L 9.28125 47.703125 
L 2.6875 47.703125 
L 2.6875 54.6875 
L 9.28125 54.6875 
L 9.28125 70.21875 
z
" id="DejaVuSans-116"/>
       <path d="M 8.5 21.578125 
L 8.5 54.6875 
L 17.484375 54.6875 
L 17.484375 21.921875 
Q 17.484375 14.15625 20.5 10.265625 
Q 23.53125 6.390625 29.59375 6.390625 
Q 36.859375 6.390625 41.078125 11.03125 
Q 45.3125 15.671875 45.3125 23.6875 
L 45.3125 54.6875 
L 54.296875 54.6875 
L 54.296875 0 
L 45.3125 0 
L 45.3125 8.40625 
Q 42.046875 3.421875 37.71875 1 
Q 33.40625 -1.421875 27.6875 -1.421875 
Q 18.265625 -1.421875 13.375 4.4375 
Q 8.5 10.296875 8.5 21.578125 
z
M 31.109375 56 
z
" id="DejaVuSans-117"/>
       <path d="M 11.71875 12.40625 
L 22.015625 12.40625 
L 22.015625 4 
L 14.015625 -11.625 
L 7.71875 -11.625 
L 11.71875 4 
z
" id="DejaVuSans-44"/>
       <path d="M 18.109375 8.203125 
L 18.109375 -20.796875 
L 9.078125 -20.796875 
L 9.078125 54.6875 
L 18.109375 54.6875 
L 18.109375 46.390625 
Q 20.953125 51.265625 25.265625 53.625 
Q 29.59375 56 35.59375 56 
Q 45.5625 56 51.78125 48.09375 
Q 58.015625 40.1875 58.015625 27.296875 
Q 58.015625 14.40625 51.78125 6.484375 
Q 45.5625 -1.421875 35.59375 -1.421875 
Q 29.59375 -1.421875 25.265625 0.953125 
Q 20.953125 3.328125 18.109375 8.203125 
z
M 48.6875 27.296875 
Q 48.6875 37.203125 44.609375 42.84375 
Q 40.53125 48.484375 33.40625 48.484375 
Q 26.265625 48.484375 22.1875 42.84375 
Q 18.109375 37.203125 18.109375 27.296875 
Q 18.109375 17.390625 22.1875 11.75 
Q 26.265625 6.109375 33.40625 6.109375 
Q 40.53125 6.109375 44.609375 11.75 
Q 48.6875 17.390625 48.6875 27.296875 
z
" id="DejaVuSans-112"/>
      </defs>
      <use xlink:href="#DejaVuSans-70"/>
      <use x="50.269531" xlink:href="#DejaVuSans-114"/>
      <use x="91.382812" xlink:href="#DejaVuSans-97"/>
      <use x="152.662109" xlink:href="#DejaVuSans-99"/>
      <use x="207.642578" xlink:href="#DejaVuSans-116"/>
      <use x="246.851562" xlink:href="#DejaVuSans-105"/>
      <use x="274.634766" xlink:href="#DejaVuSans-111"/>
      <use x="335.816406" xlink:href="#DejaVuSans-110"/>
      <use x="399.195312" xlink:href="#DejaVuSans-32"/>
      <use x="430.982422" xlink:href="#DejaVuSans-111"/>
      <use x="492.164062" xlink:href="#DejaVuSans-102"/>
      <use x="527.369141" xlink:href="#DejaVuSans-32"/>
      <use x="559.15625" xlink:href="#DejaVuSans-102"/>
      <use x="594.361328" xlink:href="#DejaVuSans-117"/>
      <use x="657.740234" xlink:href="#DejaVuSans-110"/>
      <use x="721.119141" xlink:href="#DejaVuSans-99"/>
      <use x="776.099609" xlink:href="#DejaVuSans-116"/>
      <use x="815.308594" xlink:href="#DejaVuSans-105"/>
      <use x="843.091797" xlink:href="#DejaVuSans-111"/>
      <use x="904.273438" xlink:href="#DejaVuSans-110"/>
      <use x="967.652344" xlink:href="#DejaVuSans-44"/>
      <use x="999.439453" xlink:href="#DejaVuSans-116"/>
      <use x="1038.648438" xlink:href="#DejaVuSans-97"/>
      <use x="1099.927734" xlink:href="#DejaVuSans-114"/>
      <use x="1139.291016" xlink:href="#DejaVuSans-103"/>
      <use x="1202.767578" xlink:href="#DejaVuSans-101"/>
      <use x="1264.291016" xlink:href="#DejaVuSans-116"/>
      <use x="1303.5" xlink:href="#DejaVuSans-32"/>
      <use x="1335.287109" xlink:href="#DejaVuSans-112"/>
      <use x="1398.763672" xlink:href="#DejaVuSans-97"/>
      <use x="1460.042969" xlink:href="#DejaVuSans-105"/>
      <use x="1487.826172" xlink:href="#DejaVuSans-114"/>
      <use x="1528.939453" xlink:href="#DejaVuSans-115"/>
     </g>
    </g>
   </g>
   <g id="line2d_33">
    <defs>
     <path d="M 0 1.5 
C 0.397805 1.5 0.77937 1.341951 1.06066 1.06066 
C 1.341951 0.77937 1.5 0.397805 1.5 0 
C 1.5 -0.397805 1.341951 -0.77937 1.06066 -1.06066 
C 0.77937 -1.341951 0.397805 -1.5 0 -1.5 
C -0.397805 -1.5 -0.77937 -1.341951 -1.06066 -1.06066 
C -1.341951 -0.77937 -1.5 -0.397805 -1.5 0 
C -1.5 0.397805 -1.341951 0.77937 -1.06066 1.06066 
C -0.77937 1.341951 -0.397805 1.5 0 1.5 
z
" id="m634cc5dac6" style="stroke:#f5deb3;"/>
    </defs>
    <g>
     <use style="fill:#f5deb3;stroke:#f5deb3;" x="218.044682" xlink:href="#m634cc5dac6" y="62.752535"/>
     <use style="fill:#f5deb3;stroke:#f5deb3;" x="218.044682" xlink:href="#m634cc5dac6" y="62.752535"/>
    </g>
   </g>
   <g id="line2d_34">
    <defs>
     <path d="M 0 1.5 
C 0.397805 1.5 0.77937 1.341951 1.06066 1.06066 
C 1.341951 0.77937 1.5 0.397805 1.5 0 
C 1.5 -0.397805 1.341951 -0.77937 1.06066 -1.06066 
C 0.77937 -1.341951 0.397805 -1.5 0 -1.5 
C -0.397805 -1.5 -0.77937 -1.341951 -1.06066 -1.06066 
C -1.341951 -0.77937 -1.5 -0.397805 -1.5 0 
C -1.5 0.397805 -1.341951 0.77937 -1.06066 1.06066 
C -0.77937 1.341951 -0.397805 1.5 0 1.5 
z
" id="m92b38b1088" style="stroke:#000080;"/>
    </defs>
    <g>
     <use style="fill:#000080;stroke:#000080;" x="257.516186" xlink:href="#m92b38b1088" y="74.330548"/>
     <use style="fill:#000080;stroke:#000080;" x="257.516186" xlink:href="#m92b38b1088" y="74.330548"/>
    </g>
   </g>
   <g id="line2d_35">
    <path d="M 45.512012 298.944 
L 45.512012 286.902867 
L 57.6 286.902867 
L 57.6 278.566697 
L 69.687988 278.566697 
L 69.687988 277.177336 
L 76.759008 277.177336 
L 76.759008 271.619889 
L 79.447285 271.619889 
L 79.447285 270.693648 
L 81.775977 270.693648 
L 81.775977 268.378046 
L 83.830028 268.378046 
L 83.830028 267.914925 
L 85.66744 267.914925 
L 85.66744 266.988684 
L 87.329581 266.988684 
L 87.329581 266.062443 
L 90.242884 266.062443 
L 90.242884 265.599323 
L 91.535274 265.599323 
L 91.535274 263.28372 
L 92.73846 263.28372 
L 92.73846 259.115635 
L 96.86091 259.115635 
L 96.86091 258.189394 
L 97.755429 258.189394 
L 97.755429 257.726274 
L 98.606294 257.726274 
L 98.606294 254.947551 
L 100.934985 254.947551 
L 100.934985 254.48443 
L 101.646892 254.48443 
L 101.646892 253.558189 
L 105.398279 253.558189 
L 105.398279 246.611381 
L 106.48859 246.611381 
L 106.48859 246.148261 
L 108.006005 246.148261 
L 108.006005 244.758899 
L 113.382559 244.758899 
L 113.382559 242.906417 
L 113.73488 242.906417 
L 113.73488 242.443297 
L 114.080224 242.443297 
L 114.080224 241.517056 
L 115.397021 241.517056 
L 115.397021 241.053935 
L 118.039942 241.053935 
L 118.039942 240.590815 
L 118.576578 240.590815 
L 118.576578 240.127694 
L 118.838828 240.127694 
L 118.838828 239.201453 
L 119.602714 239.201453 
L 119.602714 238.738333 
L 122.782271 238.738333 
L 122.782271 237.812091 
L 124.178158 237.812091 
L 124.178158 234.107127 
L 124.557288 234.107127 
L 124.557288 232.717766 
L 125.110962 232.717766 
L 125.110962 228.549681 
L 125.470548 228.549681 
L 125.470548 226.697199 
L 126.50685 226.697199 
L 126.50685 226.234079 
L 126.673734 226.234079 
L 126.673734 225.770958 
L 127.165014 225.770958 
L 127.165014 223.918476 
L 127.48501 223.918476 
L 127.48501 223.455355 
L 128.856489 223.455355 
L 128.856489 222.529114 
L 129.147151 222.529114 
L 129.147151 222.065994 
L 129.574256 222.065994 
L 129.574256 220.676632 
L 130.263646 220.676632 
L 130.263646 219.287271 
L 131.439773 219.287271 
L 131.439773 218.82415 
L 132.422528 218.82415 
L 132.422528 217.897909 
L 134.019394 217.897909 
L 134.019394 216.508548 
L 134.450015 216.508548 
L 134.450015 216.045427 
L 135.780341 216.045427 
L 135.780341 215.119186 
L 136.073445 215.119186 
L 136.073445 214.656066 
L 137.198951 214.656066 
L 137.198951 214.192945 
L 137.647286 214.192945 
L 137.647286 213.729825 
L 137.823442 213.729825 
L 137.823442 213.266704 
L 139.964909 213.266704 
L 139.964909 212.803583 
L 143.079756 212.803583 
L 143.079756 211.877342 
L 143.464461 211.877342 
L 143.464461 211.414222 
L 144.570138 211.414222 
L 144.570138 210.02486 
L 144.981877 210.02486 
L 144.981877 209.56174 
L 145.998045 209.56174 
L 145.998045 208.635499 
L 147.164632 208.635499 
L 147.164632 207.709258 
L 148.112924 207.709258 
L 148.112924 206.319896 
L 151.740076 206.319896 
L 151.779487 204.930535 
L 153.142033 204.930535 
L 153.142033 204.467414 
L 153.994632 204.467414 
L 153.994632 203.078053 
L 156.052535 203.078053 
L 156.052535 202.151812 
L 157.011638 202.151812 
L 157.011638 201.688691 
L 160.938061 201.688691 
L 160.938061 200.76245 
L 161.283861 200.76245 
L 161.283861 199.836209 
L 163.020547 199.836209 
L 163.082425 198.446847 
L 163.185069 198.446847 
L 163.185069 197.057486 
L 163.768781 197.057486 
L 163.768781 196.594365 
L 163.985177 196.594365 
L 163.985177 195.668124 
L 164.19892 195.668124 
L 164.19892 194.741883 
L 164.562052 194.741883 
L 164.562052 193.815642 
L 165.248216 193.815642 
L 165.248216 192.889401 
L 166.829163 192.889401 
L 166.878918 191.50004 
L 168.581663 191.50004 
L 168.581663 191.036919 
L 170.26973 191.036919 
L 170.26973 190.573799 
L 171.379036 190.573799 
L 171.379036 190.110678 
L 171.531901 190.110678 
L 171.531901 189.647558 
L 172.756213 189.647558 
L 172.827009 187.331955 
L 174.054514 187.331955 
L 174.054514 186.868834 
L 175.364924 186.868834 
L 175.364924 185.942593 
L 175.506873 185.942593 
L 175.506873 185.016352 
L 175.906187 185.016352 
L 175.906187 184.090111 
L 176.209486 184.090111 
L 176.209486 183.626991 
L 176.94078 183.626991 
L 176.94078 183.16387 
L 177.180944 183.16387 
L 177.180944 182.237629 
L 178.607149 182.237629 
L 178.607149 181.774509 
L 179.521099 181.774509 
L 179.609115 180.385147 
L 179.712566 180.385147 
L 179.760106 169.270255 
L 180.019285 169.270255 
L 180.097069 167.880893 
L 180.143574 167.880893 
L 180.143574 166.491532 
L 180.480872 166.491532 
L 180.480872 166.028411 
L 181.311118 166.028411 
L 181.34005 164.63905 
L 181.887852 164.63905 
L 181.887852 163.712808 
L 182.124367 163.712808 
L 182.124367 163.249688 
L 182.574526 163.249688 
L 182.574526 162.323447 
L 184.039681 162.323447 
L 184.039681 161.397206 
L 184.867832 161.397206 
L 184.867832 160.470965 
L 185.003089 160.470965 
L 185.003089 160.007844 
L 185.125676 160.007844 
L 185.125676 159.081603 
L 185.601922 159.081603 
L 185.601922 158.618483 
L 186.240998 158.618483 
L 186.240998 157.692242 
L 186.387708 157.692242 
L 186.387708 157.229121 
L 186.682796 157.229121 
L 186.682796 156.766001 
L 187.366163 156.766001 
L 187.366163 156.30288 
L 187.910083 156.30288 
L 187.910083 155.83976 
L 188.214836 155.83976 
L 188.214836 154.913519 
L 188.360406 154.913519 
L 188.413479 153.987278 
L 188.519143 153.987278 
L 188.519143 153.524157 
L 188.647953 153.524157 
L 188.647953 152.597916 
L 189.176953 152.597916 
L 189.176953 152.134795 
L 190.297558 152.134795 
L 190.297558 151.671675 
L 191.496419 151.671675 
L 191.496419 150.745434 
L 191.613097 150.745434 
L 191.613097 149.819193 
L 193.202544 149.819193 
L 193.202544 149.356072 
L 194.028289 149.356072 
L 194.028289 148.892952 
L 194.21581 148.892952 
L 194.21581 147.966711 
L 194.506957 147.966711 
L 194.564608 146.114229 
L 195.551814 146.114229 
L 195.551814 145.651108 
L 195.818504 145.651108 
L 195.818504 145.187988 
L 196.34301 145.187988 
L 196.443613 144.261747 
L 196.558744 144.261747 
L 196.558744 143.798626 
L 196.831402 143.798626 
L 196.831402 143.335506 
L 198.123155 143.335506 
L 198.123155 142.409265 
L 198.429643 142.409265 
L 198.429643 141.483024 
L 199.126243 141.483024 
L 199.126243 140.556783 
L 200.111747 140.556783 
L 200.111747 140.093662 
L 200.263799 140.093662 
L 200.263799 139.167421 
L 200.852006 139.167421 
L 200.852006 138.7043 
L 201.065527 138.7043 
L 201.065527 138.24118 
L 201.534897 138.24118 
L 201.534897 137.778059 
L 201.74251 137.778059 
L 201.849857 136.388698 
L 202.242263 136.388698 
L 202.242263 135.925577 
L 202.514791 135.925577 
L 202.604695 134.536216 
L 203.032817 134.536216 
L 203.032817 133.609975 
L 203.338451 133.609975 
L 203.381387 132.220613 
L 204.645457 132.220613 
L 204.645457 131.294372 
L 204.87377 131.294372 
L 204.87377 130.831252 
L 205.288702 130.831252 
L 205.288702 129.44189 
L 205.555732 129.44189 
L 205.555732 128.97877 
L 205.668934 128.97877 
L 205.777846 128.052529 
L 206.149414 128.052529 
L 206.149414 127.589408 
L 206.918029 127.589408 
L 206.918029 127.126287 
L 207.609383 127.126287 
L 207.718009 125.273805 
L 207.923813 125.273805 
L 207.923813 124.347564 
L 208.295952 124.347564 
L 208.295952 123.884444 
L 209.117449 123.884444 
L 209.187851 122.958203 
L 209.554306 122.958203 
L 209.587241 122.031962 
L 210.264894 122.031962 
L 210.264894 121.568841 
L 210.433337 121.568841 
L 210.433337 121.105721 
L 211.02819 121.105721 
L 211.075544 120.17948 
L 211.54214 120.17948 
L 211.61998 118.790118 
L 212.147932 118.790118 
L 212.147932 118.326998 
L 212.366432 118.326998 
L 212.366432 117.400757 
L 213.069358 117.400757 
L 213.069358 116.474516 
L 213.342551 116.474516 
L 213.342551 116.011395 
L 213.574009 116.011395 
L 213.574009 115.548274 
L 213.761944 115.548274 
L 213.761944 115.085154 
L 213.976818 115.085154 
L 214.034561 114.158913 
L 214.885901 114.158913 
L 214.90384 112.769551 
L 215.238116 112.769551 
L 215.270161 110.453949 
L 215.996355 110.453949 
L 215.996355 109.527708 
L 216.134497 109.527708 
L 216.134497 109.064587 
L 216.253991 109.064587 
L 216.253991 108.138346 
L 216.631536 108.138346 
L 216.631536 107.212105 
L 217.285844 107.212105 
L 217.35471 106.285864 
L 217.592268 106.285864 
L 217.66804 105.359623 
L 217.975839 105.359623 
L 217.975839 104.896503 
L 218.095697 104.896503 
L 218.095697 103.970262 
L 218.614012 103.970262 
L 218.614012 103.507141 
L 218.863724 103.507141 
L 218.863724 103.04402 
L 219.006017 103.04402 
L 219.006017 102.5809 
L 219.430945 102.5809 
L 219.430945 102.117779 
L 219.782094 102.117779 
L 219.782094 101.654659 
L 220.412418 101.654659 
L 220.412418 101.191538 
L 220.810052 101.191538 
L 220.810052 100.728418 
L 220.977624 100.728418 
L 220.977624 100.265297 
L 221.447714 100.265297 
L 221.505594 99.339056 
L 222.110387 99.339056 
L 222.110387 98.875936 
L 222.84806 98.875936 
L 222.84806 97.949695 
L 223.175351 97.949695 
L 223.249361 97.023454 
L 223.456614 97.023454 
L 223.456614 96.097213 
L 223.687585 96.097213 
L 223.687585 95.170972 
L 224.951087 95.170972 
L 225.003768 93.31849 
L 225.655736 93.31849 
L 225.655736 92.855369 
L 226.641337 92.855369 
L 226.684328 90.539766 
L 227.555322 90.539766 
L 227.597649 88.687284 
L 228.103156 88.687284 
L 228.103156 88.224164 
L 228.598751 88.224164 
L 228.598751 87.297923 
L 228.780075 87.297923 
L 228.780075 86.834802 
L 229.087666 86.834802 
L 229.087666 86.371682 
L 231.480655 86.371682 
L 231.480655 85.445441 
L 231.609005 85.445441 
L 231.609005 84.98232 
L 232.01855 84.98232 
L 232.01855 84.5192 
L 233.436499 84.5192 
L 233.436499 83.592959 
L 235.01046 83.592959 
L 235.01046 83.129838 
L 235.423083 83.129838 
L 235.423083 82.666718 
L 236.397559 82.666718 
L 236.397559 81.740477 
L 236.512497 81.740477 
L 236.512497 81.277356 
L 237.505547 81.277356 
L 237.505547 80.814236 
L 239.7905 80.814236 
L 239.7905 80.351115 
L 241.14734 80.351115 
L 241.14734 79.424874 
L 241.541909 79.424874 
L 241.541909 78.961753 
L 244.637352 78.961753 
L 244.637352 78.498633 
L 244.755433 78.498633 
L 244.755433 77.572392 
L 250.633955 77.572392 
L 250.633955 76.646151 
L 250.819601 76.646151 
L 250.819601 75.71991 
L 255.136721 75.71991 
L 255.136721 75.256789 
L 257.516186 75.256789 
L 257.516186 74.330548 
L 338.688 74.330548 
L 338.688 74.330548 
" style="fill:none;stroke:#000080;stroke-linecap:square;stroke-width:1.5;"/>
   </g>
   <g id="line2d_36">
    <defs>
     <path d="M 0 6 
C 1.591219 6 3.117479 5.367802 4.242641 4.242641 
C 5.367802 3.117479 6 1.591219 6 0 
C 6 -1.591219 5.367802 -3.117479 4.242641 -4.242641 
C 3.117479 -5.367802 1.591219 -6 0 -6 
C -1.591219 -6 -3.117479 -5.367802 -4.242641 -4.242641 
C -5.367802 -3.117479 -6 -1.591219 -6 0 
C -6 1.591219 -5.367802 3.117479 -4.242641 4.242641 
C -3.117479 5.367802 -1.591219 6 0 6 
z
" id="m6422167efc" style="stroke:#000080;stroke-width:1.5;"/>
    </defs>
    <g>
     <use style="fill-opacity:0;stroke:#000080;stroke-width:1.5;" x="98.606294" xlink:href="#m6422167efc" y="254.947551"/>
     <use style="fill-opacity:0;stroke:#000080;stroke-width:1.5;" x="180.097069" xlink:href="#m6422167efc" y="167.880893"/>
     <use style="fill-opacity:0;stroke:#000080;stroke-width:1.5;" x="228.103156" xlink:href="#m6422167efc" y="88.224164"/>
     <use style="fill-opacity:0;stroke:#000080;stroke-width:1.5;" x="257.516186" xlink:href="#m6422167efc" y="74.330548"/>
     <use style="fill-opacity:0;stroke:#000080;stroke-width:1.5;" x="257.516186" xlink:href="#m6422167efc" y="74.330548"/>
     <use style="fill-opacity:0;stroke:#000080;stroke-width:1.5;" x="338.688" xlink:href="#m6422167efc" y="74.330548"/>
    </g>
   </g>
   <g id="line2d_37">
    <path style="fill:none;stroke:#000080;stroke-linecap:square;stroke-width:1.5;"/>
    <g/>
   </g>
   <g id="line2d_38">
    <path clip-path="url(#p2de2945128)" d="M 258.377579 74.330548 
" style="fill:none;stroke:#000080;stroke-linecap:square;stroke-width:1.5;"/>
    <defs>
     <path d="M -12 12 
L 12 -12 
M -12 -12 
L 12 12 
" id="mf205a13e19" style="stroke:#000080;"/>
    </defs>
    <g clip-path="url(#p2de2945128)">
     <use style="fill:#000080;stroke:#000080;" x="258.377579" xlink:href="#mf205a13e19" y="74.330548"/>
    </g>
   </g>
   <g id="line2d_39">
    <defs>
     <path d="M 0 1.5 
C 0.397805 1.5 0.77937 1.341951 1.06066 1.06066 
C 1.341951 0.77937 1.5 0.397805 1.5 0 
C 1.5 -0.397805 1.341951 -0.77937 1.06066 -1.06066 
C 0.77937 -1.341951 0.397805 -1.5 0 -1.5 
C -0.397805 -1.5 -0.77937 -1.341951 -1.06066 -1.06066 
C -1.341951 -0.77937 -1.5 -0.397805 -1.5 0 
C -1.5 0.397805 -1.341951 0.77937 -1.06066 1.06066 
C -0.77937 1.341951 -0.397805 1.5 0 1.5 
z
" id="m9c91fed77c" style="stroke:#ff00ff;"/>
    </defs>
    <g>
     <use style="fill:#ff00ff;stroke:#ff00ff;" x="257.403971" xlink:href="#m9c91fed77c" y="97.486574"/>
     <use style="fill:#ff00ff;stroke:#ff00ff;" x="257.403971" xlink:href="#m9c91fed77c" y="97.486574"/>
    </g>
   </g>
   <g id="line2d_40">
    <path d="M 45.512012 298.944 
L 45.512012 290.607831 
L 92.73846 290.607831 
L 92.73846 290.14471 
L 108.006005 290.14471 
L 108.006005 289.218469 
L 115.397021 289.218469 
L 115.397021 288.292228 
L 121.931406 288.292228 
L 121.931406 287.365987 
L 125.996395 287.365987 
L 125.996395 286.439746 
L 126.338353 286.439746 
L 126.338353 279.956059 
L 134.019394 279.956059 
L 134.019394 278.566697 
L 138.67848 278.566697 
L 138.67848 278.103577 
L 139.009092 278.103577 
L 139.009092 276.251095 
L 139.730821 276.251095 
L 139.730821 275.787974 
L 140.195896 275.787974 
L 140.195896 274.861733 
L 141.090414 274.861733 
L 141.090414 273.009251 
L 141.235139 273.009251 
L 141.235139 269.304287 
L 142.010346 269.304287 
L 142.07914 267.451805 
L 142.752555 267.451805 
L 142.818488 263.746841 
L 143.079756 263.746841 
L 143.079756 263.28372 
L 144.688773 263.28372 
L 144.688773 262.8206 
L 145.270136 262.8206 
L 145.270136 262.357479 
L 145.384119 262.357479 
L 145.384119 254.02131 
L 145.665858 254.02131 
L 145.665858 253.558189 
L 146.107383 253.558189 
L 146.216039 248.000743 
L 146.324022 248.000743 
L 146.324022 242.443297 
L 146.906268 242.443297 
L 146.906268 241.517056 
L 148.87334 241.517056 
L 148.87334 241.053935 
L 149.15016 241.053935 
L 149.15016 240.127694 
L 150.042389 240.127694 
L 150.129152 238.275212 
L 150.215485 238.275212 
L 150.301393 236.42273 
L 150.344189 236.42273 
L 150.344189 235.959609 
L 150.598782 235.959609 
L 150.640855 233.180886 
L 151.260066 233.180886 
L 151.260066 232.254645 
L 151.501723 232.254645 
L 151.501723 229.939043 
L 151.818809 229.939043 
L 151.858043 227.16032 
L 152.245598 227.16032 
L 152.245598 226.697199 
L 152.436193 226.697199 
L 152.436193 225.770958 
L 153.430889 225.770958 
L 153.430889 225.307837 
L 154.235652 225.307837 
L 154.303908 223.918476 
L 154.371897 223.918476 
L 154.371897 223.455355 
L 154.54072 223.455355 
L 154.54072 222.529114 
L 154.840544 222.529114 
L 154.840544 220.676632 
L 155.0376 220.676632 
L 155.0376 220.213512 
L 155.488919 220.213512 
L 155.488919 219.287271 
L 155.647315 219.287271 
L 155.647315 218.82415 
L 156.175347 218.82415 
L 156.175347 217.434789 
L 156.38821 217.434789 
L 156.38821 216.508548 
L 157.1279 216.508548 
L 157.1279 216.045427 
L 157.243392 216.045427 
L 157.329512 211.414222 
L 157.415209 211.414222 
L 157.500487 210.02486 
L 157.613546 210.02486 
L 157.669802 207.246137 
L 158.003578 207.246137 
L 158.003578 204.930535 
L 158.140788 204.930535 
L 158.140788 204.467414 
L 158.889829 204.467414 
L 158.889829 203.541173 
L 159.354904 203.541173 
L 159.380382 202.151812 
L 159.783038 202.151812 
L 159.857512 200.299329 
L 160.005512 200.299329 
L 160.005512 199.373088 
L 160.321935 199.373088 
L 160.321935 198.446847 
L 160.466062 198.446847 
L 160.513841 197.057486 
L 160.797798 197.057486 
L 160.86807 195.668124 
L 160.961329 195.668124 
L 160.961329 195.205004 
L 161.555647 195.205004 
L 161.555647 193.815642 
L 161.689969 193.815642 
L 161.734513 192.426281 
L 161.823263 192.426281 
L 161.823263 191.50004 
L 162.021314 191.50004 
L 162.021314 191.036919 
L 162.303474 191.036919 
L 162.303474 190.573799 
L 162.517456 190.573799 
L 162.517456 188.721316 
L 162.68677 188.721316 
L 162.707819 186.868834 
L 162.812686 186.868834 
L 162.812686 185.479473 
L 163.388564 185.479473 
L 163.449152 184.553232 
L 163.589711 184.553232 
L 163.589711 183.626991 
L 163.828065 183.626991 
L 163.847782 182.237629 
L 164.390984 182.237629 
L 164.410075 180.848268 
L 164.843488 180.848268 
L 164.880672 179.458906 
L 165.855793 179.458906 
L 165.925901 177.606424 
L 165.978297 177.606424 
L 166.08262 176.680183 
L 166.220754 176.680183 
L 166.237944 175.290821 
L 166.357802 175.290821 
L 166.425924 173.90146 
L 166.91201 173.90146 
L 166.91201 172.975219 
L 167.0929 172.975219 
L 167.0929 172.048978 
L 167.223287 172.048978 
L 167.239518 169.270255 
L 167.417059 169.270255 
L 167.417059 168.344014 
L 167.545055 168.344014 
L 167.640438 166.491532 
L 167.985782 166.491532 
L 167.985782 166.028411 
L 168.278627 166.028411 
L 168.324419 165.10217 
L 168.9532 165.10217 
L 169.041203 162.323447 
L 169.099626 162.323447 
L 169.099626 161.860326 
L 169.331381 161.860326 
L 169.345764 160.470965 
L 169.503198 160.470965 
L 169.503198 160.007844 
L 169.645097 160.007844 
L 169.645097 159.544724 
L 170.077786 159.544724 
L 170.187727 156.766001 
L 170.256089 156.766001 
L 170.337772 155.83976 
L 170.767069 155.83976 
L 170.806779 154.450398 
L 170.885928 154.450398 
L 170.885928 153.987278 
L 171.003983 153.987278 
L 171.108254 152.597916 
L 171.276376 152.597916 
L 171.276376 152.134795 
L 171.506517 152.134795 
L 171.506517 151.671675 
L 171.871027 151.671675 
L 171.871027 151.208554 
L 171.994974 151.208554 
L 171.994974 150.745434 
L 172.191475 150.745434 
L 172.191475 149.819193 
L 172.991089 149.819193 
L 172.991089 148.892952 
L 173.107351 148.892952 
L 173.107351 148.429831 
L 173.55351 148.429831 
L 173.55351 147.966711 
L 173.766803 147.966711 
L 173.766803 147.50359 
L 174.218366 147.50359 
L 174.218366 147.04047 
L 174.679722 147.04047 
L 174.679722 146.577349 
L 174.932012 146.577349 
L 174.932012 146.114229 
L 176.043814 146.114229 
L 176.043814 145.651108 
L 176.52666 145.651108 
L 176.52666 145.187988 
L 177.07051 145.187988 
L 177.07051 144.261747 
L 178.308742 144.261747 
L 178.308742 143.335506 
L 180.135832 143.335506 
L 180.135832 142.872385 
L 180.320702 142.872385 
L 180.320702 141.946144 
L 180.450477 141.946144 
L 180.450477 141.483024 
L 181.026478 141.483024 
L 181.026478 141.019903 
L 181.873839 141.019903 
L 181.873839 140.093662 
L 182.020417 140.093662 
L 182.020417 139.630541 
L 182.874923 139.630541 
L 182.874923 139.167421 
L 183.2287 139.167421 
L 183.2287 138.7043 
L 184.095309 138.7043 
L 184.095309 137.778059 
L 184.346502 137.778059 
L 184.449604 136.851818 
L 185.008946 136.851818 
L 185.008946 136.388698 
L 186.99389 136.388698 
L 186.99389 135.925577 
L 188.097498 135.925577 
L 188.097498 135.462457 
L 188.253773 135.462457 
L 188.253773 134.536216 
L 188.427926 134.536216 
L 188.427926 133.609975 
L 192.530858 133.609975 
L 192.530858 133.146854 
L 193.187895 133.146854 
L 193.286536 132.220613 
L 195.042151 132.220613 
L 195.048738 130.831252 
L 197.265938 130.831252 
L 197.265938 130.368131 
L 200.55438 130.368131 
L 200.55438 129.905011 
L 202.68989 129.905011 
L 202.68989 129.44189 
L 203.086899 129.44189 
L 203.086899 128.515649 
L 204.109296 128.515649 
L 204.109296 127.589408 
L 206.114532 127.589408 
L 206.114532 127.126287 
L 207.267949 127.126287 
L 207.295707 126.200046 
L 207.586934 126.200046 
L 207.586934 125.273805 
L 207.794281 125.273805 
L 207.794281 124.347564 
L 208.892613 124.347564 
L 208.892613 122.958203 
L 211.24548 122.958203 
L 211.24548 122.495082 
L 213.248869 122.495082 
L 213.248869 122.031962 
L 213.558066 122.031962 
L 213.585388 121.105721 
L 216.754325 121.105721 
L 216.754325 120.6426 
L 217.045911 120.6426 
L 217.045911 120.17948 
L 217.492542 120.17948 
L 217.492542 119.253239 
L 217.642819 119.253239 
L 217.642819 118.790118 
L 217.798067 118.790118 
L 217.798067 117.863877 
L 217.91205 117.863877 
L 217.91205 117.400757 
L 219.389404 117.400757 
L 219.389404 116.937636 
L 221.748039 116.937636 
L 221.748039 116.474516 
L 222.578473 116.474516 
L 222.578473 116.011395 
L 223.99462 116.011395 
L 223.99462 115.548274 
L 224.28834 115.548274 
L 224.28834 115.085154 
L 224.899437 115.085154 
L 224.899437 114.158913 
L 227.569102 114.158913 
L 227.569102 113.695792 
L 228.097712 113.695792 
L 228.097712 112.769551 
L 228.353201 112.769551 
L 228.353201 111.84331 
L 228.48585 111.84331 
L 228.48585 111.38019 
L 229.444531 111.38019 
L 229.444531 110.917069 
L 232.591682 110.917069 
L 232.591682 109.990828 
L 234.169747 109.990828 
L 234.169747 109.527708 
L 236.301042 109.527708 
L 236.317732 108.138346 
L 236.453743 108.138346 
L 236.453743 107.675226 
L 236.834547 107.675226 
L 236.849536 106.285864 
L 236.98237 106.285864 
L 236.98237 105.359623 
L 237.25734 105.359623 
L 237.25734 104.896503 
L 240.934096 104.896503 
L 240.934096 104.433382 
L 242.883732 104.433382 
L 242.883732 103.970262 
L 243.496131 103.970262 
L 243.496131 103.507141 
L 244.277059 103.507141 
L 244.277059 103.04402 
L 251.237145 103.04402 
L 251.237145 102.117779 
L 251.427816 102.117779 
L 251.427816 101.654659 
L 251.781009 101.654659 
L 251.781009 101.191538 
L 253.069435 101.191538 
L 253.069435 100.728418 
L 254.874034 100.728418 
L 254.874034 100.265297 
L 255.22961 100.265297 
L 255.22961 99.802177 
L 255.745785 99.802177 
L 255.745785 99.339056 
L 256.253424 99.339056 
L 256.253424 98.412815 
L 257.338848 98.412815 
L 257.403971 97.486574 
L 338.688 97.486574 
L 338.688 97.486574 
" style="fill:none;stroke:#ff00ff;stroke-linecap:square;stroke-width:1.5;"/>
   </g>
   <g id="line2d_41">
    <defs>
     <path d="M 0 8.485281 
L 5.091169 0 
L 0 -8.485281 
L -5.091169 0 
z
" id="m6da0b01585" style="stroke:#ff00ff;stroke-linejoin:miter;stroke-width:1.5;"/>
    </defs>
    <g>
     <use style="fill-opacity:0;stroke:#ff00ff;stroke-linejoin:miter;stroke-width:1.5;" x="146.216039" xlink:href="#m6da0b01585" y="248.000743"/>
     <use style="fill-opacity:0;stroke:#ff00ff;stroke-linejoin:miter;stroke-width:1.5;" x="171.276376" xlink:href="#m6da0b01585" y="152.134795"/>
     <use style="fill-opacity:0;stroke:#ff00ff;stroke-linejoin:miter;stroke-width:1.5;" x="251.237145" xlink:href="#m6da0b01585" y="103.04402"/>
     <use style="fill-opacity:0;stroke:#ff00ff;stroke-linejoin:miter;stroke-width:1.5;" x="257.403971" xlink:href="#m6da0b01585" y="97.486574"/>
     <use style="fill-opacity:0;stroke:#ff00ff;stroke-linejoin:miter;stroke-width:1.5;" x="257.403971" xlink:href="#m6da0b01585" y="97.486574"/>
     <use style="fill-opacity:0;stroke:#ff00ff;stroke-linejoin:miter;stroke-width:1.5;" x="338.688" xlink:href="#m6da0b01585" y="97.486574"/>
    </g>
   </g>
   <g id="line2d_42">
    <path style="fill:none;stroke:#ff00ff;stroke-linecap:square;stroke-width:1.5;"/>
    <g/>
   </g>
   <g id="line2d_43">
    <path clip-path="url(#p2de2945128)" d="M 258.386906 97.486574 
" style="fill:none;stroke:#ff00ff;stroke-linecap:square;stroke-width:1.5;"/>
    <defs>
     <path d="M -12 12 
L 12 -12 
M -12 -12 
L 12 12 
" id="mf047b113ae" style="stroke:#ff00ff;"/>
    </defs>
    <g clip-path="url(#p2de2945128)">
     <use style="fill:#ff00ff;stroke:#ff00ff;" x="258.386906" xlink:href="#mf047b113ae" y="97.486574"/>
    </g>
   </g>
   <g id="line2d_44">
    <defs>
     <path d="M 0 1.5 
C 0.397805 1.5 0.77937 1.341951 1.06066 1.06066 
C 1.341951 0.77937 1.5 0.397805 1.5 0 
C 1.5 -0.397805 1.341951 -0.77937 1.06066 -1.06066 
C 0.77937 -1.341951 0.397805 -1.5 0 -1.5 
C -0.397805 -1.5 -0.77937 -1.341951 -1.06066 -1.06066 
C -1.341951 -0.77937 -1.5 -0.397805 -1.5 0 
C -1.5 0.397805 -1.341951 0.77937 -1.06066 1.06066 
C -0.77937 1.341951 -0.397805 1.5 0 1.5 
z
" id="mef05daf296" style="stroke:#ff7500;"/>
    </defs>
    <g>
     <use style="fill:#ff7500;stroke:#ff7500;" x="183.338605" xlink:href="#mef05daf296" y="132.220613"/>
     <use style="fill:#ff7500;stroke:#ff7500;" x="183.338605" xlink:href="#mef05daf296" y="132.220613"/>
    </g>
   </g>
   <g id="line2d_45">
    <path d="M 85.66744 298.944 
L 85.66744 293.386554 
L 108.483824 293.386554 
L 108.483824 290.607831 
L 117.486268 290.607831 
L 117.486268 287.829108 
L 124.368753 287.829108 
L 124.368753 284.124143 
L 133.46572 284.124143 
L 133.46572 283.661023 
L 135.582166 283.661023 
L 135.582166 282.734782 
L 139.493548 282.734782 
L 139.493548 282.271661 
L 140.042245 282.271661 
L 140.042245 280.419179 
L 140.574203 280.419179 
L 140.574203 276.714215 
L 143.273169 276.714215 
L 143.273169 276.251095 
L 144.570138 276.251095 
L 144.570138 274.861733 
L 144.923649 274.861733 
L 144.923649 273.472371 
L 145.777292 273.472371 
L 145.777292 271.156769 
L 146.324022 271.156769 
L 146.324022 270.693648 
L 146.538004 270.693648 
L 146.644018 269.304287 
L 147.164632 269.304287 
L 147.164632 263.746841 
L 149.104327 263.746841 
L 149.104327 262.8206 
L 149.512548 262.8206 
L 149.512548 262.357479 
L 150.042389 262.357479 
L 150.042389 260.504997 
L 150.47195 260.504997 
L 150.47195 260.041876 
L 150.682827 260.041876 
L 150.766468 259.115635 
L 151.13797 259.115635 
L 151.13797 258.189394 
L 151.340991 258.189394 
L 151.340991 255.410671 
L 151.461678 255.410671 
L 151.461678 254.947551 
L 151.660987 254.947551 
L 151.660987 254.02131 
L 151.779487 254.02131 
L 151.858043 249.853225 
L 152.322086 249.853225 
L 152.398241 247.537622 
L 152.624728 247.537622 
L 152.624728 246.611381 
L 152.848312 246.611381 
L 152.885298 245.68514 
L 153.323128 245.68514 
L 153.323128 245.22202 
L 153.644434 245.22202 
L 153.644434 244.758899 
L 154.269814 244.758899 
L 154.269814 244.295779 
L 154.473387 244.295779 
L 154.473387 241.980176 
L 154.641235 241.980176 
L 154.674612 238.738333 
L 155.232454 238.738333 
L 155.232454 238.275212 
L 155.86668 238.275212 
L 155.86668 236.42273 
L 155.990803 236.42273 
L 155.990803 235.959609 
L 156.38821 235.959609 
L 156.38821 235.033368 
L 156.508689 235.033368 
L 156.508689 233.644007 
L 156.717545 233.644007 
L 156.717545 230.402163 
L 156.835778 230.402163 
L 156.894595 228.086561 
L 157.098907 228.086561 
L 157.098907 227.62344 
L 158.140788 227.62344 
L 158.140788 227.16032 
L 158.412011 227.16032 
L 158.492562 225.770958 
L 158.625992 225.770958 
L 158.625992 225.307837 
L 158.942121 225.307837 
L 158.942121 224.844717 
L 159.123917 224.844717 
L 159.123917 223.455355 
L 159.532469 223.455355 
L 159.532469 222.529114 
L 159.783038 222.529114 
L 159.783038 221.139753 
L 160.127894 221.139753 
L 160.127894 220.676632 
L 160.394148 220.676632 
L 160.394148 220.213512 
L 160.727241 220.213512 
L 160.727241 219.287271 
L 160.961329 219.287271 
L 160.961329 218.82415 
L 161.26102 218.82415 
L 161.26102 216.508548 
L 161.397621 216.508548 
L 161.397621 215.119186 
L 161.778945 215.119186 
L 161.778945 214.656066 
L 162.065021 214.656066 
L 162.10862 210.951101 
L 162.281931 210.951101 
L 162.281931 210.487981 
L 162.432178 210.487981 
L 162.517456 209.56174 
L 162.896128 209.56174 
L 162.9377 207.246137 
L 163.061823 207.246137 
L 163.061823 204.930535 
L 163.225959 204.930535 
L 163.225959 204.467414 
L 163.689421 204.467414 
L 163.689421 203.541173 
L 163.867476 203.541173 
L 163.867476 202.614932 
L 164.043731 202.614932 
L 164.063205 200.76245 
L 164.160252 200.76245 
L 164.160252 200.299329 
L 164.295217 200.299329 
L 164.295217 199.373088 
L 164.675172 199.373088 
L 164.675172 198.446847 
L 164.880672 198.446847 
L 164.880672 197.520606 
L 165.284547 197.520606 
L 165.284547 197.057486 
L 165.500963 197.057486 
L 165.59035 195.668124 
L 165.643763 195.668124 
L 165.643763 195.205004 
L 166.237944 195.205004 
L 166.323641 194.278763 
L 167.320442 194.278763 
L 167.320442 193.815642 
L 167.656285 193.815642 
L 167.735303 192.426281 
L 167.87664 192.426281 
L 167.985782 191.036919 
L 168.324419 191.036919 
L 168.430803 190.110678 
L 168.551595 190.110678 
L 168.551595 189.647558 
L 168.86475 189.647558 
L 168.86475 189.184437 
L 169.055827 189.184437 
L 169.055827 188.258196 
L 169.27373 188.258196 
L 169.27373 187.795075 
L 169.431813 187.795075 
L 169.431813 186.868834 
L 169.701534 186.868834 
L 169.701534 185.479473 
L 169.813865 185.479473 
L 169.827856 184.090111 
L 170.091567 184.090111 
L 170.174022 182.237629 
L 170.58055 182.237629 
L 170.58055 181.311388 
L 170.819995 181.311388 
L 170.833202 179.922027 
L 170.951613 179.922027 
L 170.990905 178.069545 
L 171.121244 178.069545 
L 171.121244 177.143304 
L 171.46837 177.143304 
L 171.557249 176.217062 
L 171.620458 176.217062 
L 171.708567 172.975219 
L 171.771231 172.975219 
L 171.771231 172.048978 
L 171.982619 172.048978 
L 172.019658 170.659616 
L 172.118046 170.659616 
L 172.191475 169.733375 
L 172.589897 169.733375 
L 172.589897 169.270255 
L 173.00275 169.270255 
L 173.00275 168.344014 
L 173.199806 168.344014 
L 173.211329 166.954652 
L 173.337576 166.954652 
L 173.349008 165.565291 
L 173.733298 165.565291 
L 173.733298 165.10217 
L 173.866933 165.10217 
L 173.866933 164.63905 
L 174.12024 164.63905 
L 174.12024 163.712808 
L 174.272644 163.712808 
L 174.337554 161.860326 
L 174.391462 161.860326 
L 174.498781 160.007844 
L 174.552194 160.007844 
L 174.647927 158.618483 
L 174.732584 158.618483 
L 174.732584 157.692242 
L 175.004915 157.692242 
L 175.025688 155.83976 
L 175.118863 155.83976 
L 175.118863 155.376639 
L 175.273058 155.376639 
L 175.375102 153.987278 
L 175.577416 153.987278 
L 175.647675 152.597916 
L 176.053603 152.597916 
L 176.053603 152.134795 
L 176.267585 152.134795 
L 176.267585 151.208554 
L 176.431155 151.208554 
L 176.459861 149.356072 
L 176.621646 149.356072 
L 176.659495 148.429831 
L 176.772554 148.429831 
L 176.772554 147.50359 
L 177.171768 147.50359 
L 177.281564 144.724867 
L 177.606866 144.724867 
L 177.678338 142.872385 
L 177.776137 142.872385 
L 177.776137 142.409265 
L 177.970105 142.409265 
L 178.057564 141.019903 
L 178.248444 141.019903 
L 178.248444 140.556783 
L 178.377401 140.556783 
L 178.488398 139.167421 
L 178.607149 139.167421 
L 178.607149 138.7043 
L 179.041275 138.7043 
L 179.074226 137.314939 
L 179.577161 137.314939 
L 179.6808 135.925577 
L 180.174508 135.925577 
L 180.174508 134.999336 
L 180.49605 134.999336 
L 180.49605 134.536216 
L 180.937953 134.536216 
L 180.937953 133.609975 
L 181.303877 133.609975 
L 181.303877 133.146854 
L 182.574526 133.146854 
L 182.574526 132.683734 
L 183.338605 132.683734 
L 183.338605 132.220613 
L 338.688 132.220613 
L 338.688 132.220613 
" style="fill:none;stroke:#ff7500;stroke-linecap:square;stroke-width:1.5;"/>
   </g>
   <g id="line2d_46">
    <defs>
     <path d="M 0 -6 
L -1.347084 -1.854102 
L -5.706339 -1.854102 
L -2.179628 0.708204 
L -3.526712 4.854102 
L -0 2.291796 
L 3.526712 4.854102 
L 2.179628 0.708204 
L 5.706339 -1.854102 
L 1.347084 -1.854102 
z
" id="mb19453bd21" style="stroke:#ff7500;stroke-linejoin:bevel;stroke-width:1.5;"/>
    </defs>
    <g>
     <use style="fill-opacity:0;stroke:#ff7500;stroke-linejoin:bevel;stroke-width:1.5;" x="164.675172" xlink:href="#mb19453bd21" y="198.446847"/>
     <use style="fill-opacity:0;stroke:#ff7500;stroke-linejoin:bevel;stroke-width:1.5;" x="183.338605" xlink:href="#mb19453bd21" y="132.683734"/>
     <use style="fill-opacity:0;stroke:#ff7500;stroke-linejoin:bevel;stroke-width:1.5;" x="183.338605" xlink:href="#mb19453bd21" y="132.220613"/>
     <use style="fill-opacity:0;stroke:#ff7500;stroke-linejoin:bevel;stroke-width:1.5;" x="183.338605" xlink:href="#mb19453bd21" y="132.220613"/>
     <use style="fill-opacity:0;stroke:#ff7500;stroke-linejoin:bevel;stroke-width:1.5;" x="338.688" xlink:href="#mb19453bd21" y="132.220613"/>
    </g>
   </g>
   <g id="line2d_47">
    <path style="fill:none;stroke:#ff7500;stroke-linecap:square;stroke-width:1.5;"/>
    <g/>
   </g>
   <g id="line2d_48">
    <path clip-path="url(#p2de2945128)" d="M 258.37723 132.220613 
" style="fill:none;stroke:#ff7500;stroke-linecap:square;stroke-width:1.5;"/>
    <defs>
     <path d="M -12 12 
L 12 -12 
M -12 -12 
L 12 12 
" id="m6d9e241230" style="stroke:#ff7500;"/>
    </defs>
    <g clip-path="url(#p2de2945128)">
     <use style="fill:#ff7500;stroke:#ff7500;" x="258.37723" xlink:href="#m6d9e241230" y="132.220613"/>
    </g>
   </g>
   <g id="line2d_49">
    <path d="M 338.688 132.220613 
L 369.60768 293.571802 
" style="fill:none;stroke:#ff7500;stroke-linecap:square;stroke-width:1.5;"/>
    <g>
     <use style="fill-opacity:0;stroke:#ff7500;stroke-linejoin:bevel;stroke-width:1.5;" x="338.688" xlink:href="#mb19453bd21" y="132.220613"/>
     <use style="fill-opacity:0;stroke:#ff7500;stroke-linejoin:bevel;stroke-width:1.5;" x="369.60768" xlink:href="#mb19453bd21" y="293.571802"/>
    </g>
   </g>
   <g id="line2d_50">
    <path d="M 338.688 97.486574 
L 369.60768 207.616634 
" style="fill:none;stroke:#ff00ff;stroke-linecap:square;stroke-width:1.5;"/>
    <g>
     <use style="fill-opacity:0;stroke:#ff00ff;stroke-linejoin:miter;stroke-width:1.5;" x="338.688" xlink:href="#m6da0b01585" y="97.486574"/>
     <use style="fill-opacity:0;stroke:#ff00ff;stroke-linejoin:miter;stroke-width:1.5;" x="369.60768" xlink:href="#m6da0b01585" y="207.616634"/>
    </g>
   </g>
   <g id="line2d_51">
    <path d="M 338.688 74.330548 
L 369.60768 121.661465 
" style="fill:none;stroke:#000080;stroke-linecap:square;stroke-width:1.5;"/>
    <g>
     <use style="fill-opacity:0;stroke:#000080;stroke-width:1.5;" x="338.688" xlink:href="#m6422167efc" y="74.330548"/>
     <use style="fill-opacity:0;stroke:#000080;stroke-width:1.5;" x="369.60768" xlink:href="#m6422167efc" y="121.661465"/>
    </g>
   </g>
   <g id="line2d_52">
    <path d="M 338.688 298.944 
L 338.688 30.334099 
" style="fill:none;stroke:#000000;stroke-linecap:square;stroke-width:1.5;"/>
   </g>
   <g id="patch_3">
    <path d="M 57.6 298.944 
L 57.6 27.648 
" style="fill:none;stroke:#000000;stroke-linecap:square;stroke-linejoin:miter;stroke-width:0.8;"/>
   </g>
   <g id="patch_4">
    <path d="M 338.688 298.944 
L 338.688 27.648 
" style="fill:none;stroke:#000000;stroke-linecap:square;stroke-linejoin:miter;stroke-width:0.8;"/>
   </g>
   <g id="patch_5">
    <path d="M 57.6 298.944 
L 338.688 298.944 
" style="fill:none;stroke:#000000;stroke-linecap:square;stroke-linejoin:miter;stroke-width:0.8;"/>
   </g>
   <g id="patch_6">
    <path d="M 57.6 27.648 
L 338.688 27.648 
" style="fill:none;stroke:#000000;stroke-linecap:square;stroke-linejoin:miter;stroke-width:0.8;"/>
   </g>
   <g id="text_13">
    <!-- SMS-EMOA- -->
    <g transform="translate(375.22944 298.262739)scale(0.17 -0.17)">
     <defs>
      <path d="M 53.515625 70.515625 
L 53.515625 60.890625 
Q 47.90625 63.578125 42.921875 64.890625 
Q 37.9375 66.21875 33.296875 66.21875 
Q 25.25 66.21875 20.875 63.09375 
Q 16.5 59.96875 16.5 54.203125 
Q 16.5 49.359375 19.40625 46.890625 
Q 22.3125 44.4375 30.421875 42.921875 
L 36.375 41.703125 
Q 47.40625 39.59375 52.65625 34.296875 
Q 57.90625 29 57.90625 20.125 
Q 57.90625 9.515625 50.796875 4.046875 
Q 43.703125 -1.421875 29.984375 -1.421875 
Q 24.8125 -1.421875 18.96875 -0.25 
Q 13.140625 0.921875 6.890625 3.21875 
L 6.890625 13.375 
Q 12.890625 10.015625 18.65625 8.296875 
Q 24.421875 6.59375 29.984375 6.59375 
Q 38.421875 6.59375 43.015625 9.90625 
Q 47.609375 13.234375 47.609375 19.390625 
Q 47.609375 24.75 44.3125 27.78125 
Q 41.015625 30.8125 33.5 32.328125 
L 27.484375 33.5 
Q 16.453125 35.6875 11.515625 40.375 
Q 6.59375 45.0625 6.59375 53.421875 
Q 6.59375 63.09375 13.40625 68.65625 
Q 20.21875 74.21875 32.171875 74.21875 
Q 37.3125 74.21875 42.625 73.28125 
Q 47.953125 72.359375 53.515625 70.515625 
z
" id="DejaVuSans-83"/>
      <path d="M 9.8125 72.90625 
L 24.515625 72.90625 
L 43.109375 23.296875 
L 61.8125 72.90625 
L 76.515625 72.90625 
L 76.515625 0 
L 66.890625 0 
L 66.890625 64.015625 
L 48.09375 14.015625 
L 38.1875 14.015625 
L 19.390625 64.015625 
L 19.390625 0 
L 9.8125 0 
z
" id="DejaVuSans-77"/>
      <path d="M 9.8125 72.90625 
L 55.90625 72.90625 
L 55.90625 64.59375 
L 19.671875 64.59375 
L 19.671875 43.015625 
L 54.390625 43.015625 
L 54.390625 34.71875 
L 19.671875 34.71875 
L 19.671875 8.296875 
L 56.78125 8.296875 
L 56.78125 0 
L 9.8125 0 
z
" id="DejaVuSans-69"/>
      <path d="M 39.40625 66.21875 
Q 28.65625 66.21875 22.328125 58.203125 
Q 16.015625 50.203125 16.015625 36.375 
Q 16.015625 22.609375 22.328125 14.59375 
Q 28.65625 6.59375 39.40625 6.59375 
Q 50.140625 6.59375 56.421875 14.59375 
Q 62.703125 22.609375 62.703125 36.375 
Q 62.703125 50.203125 56.421875 58.203125 
Q 50.140625 66.21875 39.40625 66.21875 
z
M 39.40625 74.21875 
Q 54.734375 74.21875 63.90625 63.9375 
Q 73.09375 53.65625 73.09375 36.375 
Q 73.09375 19.140625 63.90625 8.859375 
Q 54.734375 -1.421875 39.40625 -1.421875 
Q 24.03125 -1.421875 14.8125 8.828125 
Q 5.609375 19.09375 5.609375 36.375 
Q 5.609375 53.65625 14.8125 63.9375 
Q 24.03125 74.21875 39.40625 74.21875 
z
" id="DejaVuSans-79"/>
      <path d="M 34.1875 63.1875 
L 20.796875 26.90625 
L 47.609375 26.90625 
z
M 28.609375 72.90625 
L 39.796875 72.90625 
L 67.578125 0 
L 57.328125 0 
L 50.6875 18.703125 
L 17.828125 18.703125 
L 11.1875 0 
L 0.78125 0 
z
" id="DejaVuSans-65"/>
     </defs>
     <use xlink:href="#DejaVuSans-83"/>
     <use x="63.476562" xlink:href="#DejaVuSans-77"/>
     <use x="149.755859" xlink:href="#DejaVuSans-83"/>
     <use x="213.232422" xlink:href="#DejaVuSans-45"/>
     <use x="249.316406" xlink:href="#DejaVuSans-69"/>
     <use x="312.5" xlink:href="#DejaVuSans-77"/>
     <use x="398.779297" xlink:href="#DejaVuSans-79"/>
     <use x="475.740234" xlink:href="#DejaVuSans-65"/>
     <use x="541.898438" xlink:href="#DejaVuSans-45"/>
    </g>
   </g>
   <g id="text_14">
    <!-- NSGA-II-M -->
    <g transform="translate(375.22944 212.307571)scale(0.17 -0.17)">
     <defs>
      <path d="M 9.8125 72.90625 
L 23.09375 72.90625 
L 55.421875 11.921875 
L 55.421875 72.90625 
L 64.984375 72.90625 
L 64.984375 0 
L 51.703125 0 
L 19.390625 60.984375 
L 19.390625 0 
L 9.8125 0 
z
" id="DejaVuSans-78"/>
      <path d="M 59.515625 10.40625 
L 59.515625 29.984375 
L 43.40625 29.984375 
L 43.40625 38.09375 
L 69.28125 38.09375 
L 69.28125 6.78125 
Q 63.578125 2.734375 56.6875 0.65625 
Q 49.8125 -1.421875 42 -1.421875 
Q 24.90625 -1.421875 15.25 8.5625 
Q 5.609375 18.5625 5.609375 36.375 
Q 5.609375 54.25 15.25 64.234375 
Q 24.90625 74.21875 42 74.21875 
Q 49.125 74.21875 55.546875 72.453125 
Q 61.96875 70.703125 67.390625 67.28125 
L 67.390625 56.78125 
Q 61.921875 61.421875 55.765625 63.765625 
Q 49.609375 66.109375 42.828125 66.109375 
Q 29.4375 66.109375 22.71875 58.640625 
Q 16.015625 51.171875 16.015625 36.375 
Q 16.015625 21.625 22.71875 14.15625 
Q 29.4375 6.6875 42.828125 6.6875 
Q 48.046875 6.6875 52.140625 7.59375 
Q 56.25 8.5 59.515625 10.40625 
z
" id="DejaVuSans-71"/>
      <path d="M 9.8125 72.90625 
L 19.671875 72.90625 
L 19.671875 0 
L 9.8125 0 
z
" id="DejaVuSans-73"/>
     </defs>
     <use xlink:href="#DejaVuSans-78"/>
     <use x="74.804688" xlink:href="#DejaVuSans-83"/>
     <use x="138.28125" xlink:href="#DejaVuSans-71"/>
     <use x="215.771484" xlink:href="#DejaVuSans-65"/>
     <use x="281.929688" xlink:href="#DejaVuSans-45"/>
     <use x="318.013672" xlink:href="#DejaVuSans-73"/>
     <use x="347.505859" xlink:href="#DejaVuSans-73"/>
     <use x="376.998047" xlink:href="#DejaVuSans-45"/>
     <use x="413.082031" xlink:href="#DejaVuSans-77"/>
    </g>
   </g>
   <g id="text_15">
    <!-- COMO-100  -->
    <g transform="translate(375.22944 126.352403)scale(0.17 -0.17)">
     <defs>
      <path d="M 64.40625 67.28125 
L 64.40625 56.890625 
Q 59.421875 61.53125 53.78125 63.8125 
Q 48.140625 66.109375 41.796875 66.109375 
Q 29.296875 66.109375 22.65625 58.46875 
Q 16.015625 50.828125 16.015625 36.375 
Q 16.015625 21.96875 22.65625 14.328125 
Q 29.296875 6.6875 41.796875 6.6875 
Q 48.140625 6.6875 53.78125 8.984375 
Q 59.421875 11.28125 64.40625 15.921875 
L 64.40625 5.609375 
Q 59.234375 2.09375 53.4375 0.328125 
Q 47.65625 -1.421875 41.21875 -1.421875 
Q 24.65625 -1.421875 15.125 8.703125 
Q 5.609375 18.84375 5.609375 36.375 
Q 5.609375 53.953125 15.125 64.078125 
Q 24.65625 74.21875 41.21875 74.21875 
Q 47.75 74.21875 53.53125 72.484375 
Q 59.328125 70.75 64.40625 67.28125 
z
" id="DejaVuSans-67"/>
     </defs>
     <use xlink:href="#DejaVuSans-67"/>
     <use x="69.824219" xlink:href="#DejaVuSans-79"/>
     <use x="148.535156" xlink:href="#DejaVuSans-77"/>
     <use x="234.814453" xlink:href="#DejaVuSans-79"/>
     <use x="316.275391" xlink:href="#DejaVuSans-45"/>
     <use x="352.359375" xlink:href="#DejaVuSans-49"/>
     <use x="415.982422" xlink:href="#DejaVuSans-48"/>
     <use x="479.605469" xlink:href="#DejaVuSans-48"/>
     <use x="543.228516" xlink:href="#DejaVuSans-32"/>
    </g>
   </g>
   <g id="text_16">
    <!-- best 2016 -->
    <g transform="translate(375.22944 40.397235)scale(0.17 -0.17)">
     <defs>
      <path d="M 48.6875 27.296875 
Q 48.6875 37.203125 44.609375 42.84375 
Q 40.53125 48.484375 33.40625 48.484375 
Q 26.265625 48.484375 22.1875 42.84375 
Q 18.109375 37.203125 18.109375 27.296875 
Q 18.109375 17.390625 22.1875 11.75 
Q 26.265625 6.109375 33.40625 6.109375 
Q 40.53125 6.109375 44.609375 11.75 
Q 48.6875 17.390625 48.6875 27.296875 
z
M 18.109375 46.390625 
Q 20.953125 51.265625 25.265625 53.625 
Q 29.59375 56 35.59375 56 
Q 45.5625 56 51.78125 48.09375 
Q 58.015625 40.1875 58.015625 27.296875 
Q 58.015625 14.40625 51.78125 6.484375 
Q 45.5625 -1.421875 35.59375 -1.421875 
Q 29.59375 -1.421875 25.265625 0.953125 
Q 20.953125 3.328125 18.109375 8.203125 
L 18.109375 0 
L 9.078125 0 
L 9.078125 75.984375 
L 18.109375 75.984375 
z
" id="DejaVuSans-98"/>
     </defs>
     <use xlink:href="#DejaVuSans-98"/>
     <use x="63.476562" xlink:href="#DejaVuSans-101"/>
     <use x="125" xlink:href="#DejaVuSans-115"/>
     <use x="177.099609" xlink:href="#DejaVuSans-116"/>
     <use x="216.308594" xlink:href="#DejaVuSans-32"/>
     <use x="248.095703" xlink:href="#DejaVuSans-50"/>
     <use x="311.71875" xlink:href="#DejaVuSans-48"/>
     <use x="375.341797" xlink:href="#DejaVuSans-49"/>
     <use x="438.964844" xlink:href="#DejaVuSans-54"/>
    </g>
   </g>
   <g id="text_17">
    <!-- bbob-biobj f12, 2-D -->
    <g transform="translate(60.41088 38.111366)scale(0.102 -0.102)">
     <defs>
      <path d="M 9.421875 54.6875 
L 18.40625 54.6875 
L 18.40625 -0.984375 
Q 18.40625 -11.421875 14.421875 -16.109375 
Q 10.453125 -20.796875 1.609375 -20.796875 
L -1.8125 -20.796875 
L -1.8125 -13.1875 
L 0.59375 -13.1875 
Q 5.71875 -13.1875 7.5625 -10.8125 
Q 9.421875 -8.453125 9.421875 -0.984375 
z
M 9.421875 75.984375 
L 18.40625 75.984375 
L 18.40625 64.59375 
L 9.421875 64.59375 
z
" id="DejaVuSans-106"/>
      <path d="M 19.671875 64.796875 
L 19.671875 8.109375 
L 31.59375 8.109375 
Q 46.6875 8.109375 53.6875 14.9375 
Q 60.6875 21.78125 60.6875 36.53125 
Q 60.6875 51.171875 53.6875 57.984375 
Q 46.6875 64.796875 31.59375 64.796875 
z
M 9.8125 72.90625 
L 30.078125 72.90625 
Q 51.265625 72.90625 61.171875 64.09375 
Q 71.09375 55.28125 71.09375 36.53125 
Q 71.09375 17.671875 61.125 8.828125 
Q 51.171875 0 30.078125 0 
L 9.8125 0 
z
" id="DejaVuSans-68"/>
     </defs>
     <use xlink:href="#DejaVuSans-98"/>
     <use x="63.476562" xlink:href="#DejaVuSans-98"/>
     <use x="126.953125" xlink:href="#DejaVuSans-111"/>
     <use x="188.134766" xlink:href="#DejaVuSans-98"/>
     <use x="251.611328" xlink:href="#DejaVuSans-45"/>
     <use x="287.695312" xlink:href="#DejaVuSans-98"/>
     <use x="351.171875" xlink:href="#DejaVuSans-105"/>
     <use x="378.955078" xlink:href="#DejaVuSans-111"/>
     <use x="440.136719" xlink:href="#DejaVuSans-98"/>
     <use x="503.613281" xlink:href="#DejaVuSans-106"/>
     <use x="531.396484" xlink:href="#DejaVuSans-32"/>
     <use x="563.183594" xlink:href="#DejaVuSans-102"/>
     <use x="598.388672" xlink:href="#DejaVuSans-49"/>
     <use x="662.011719" xlink:href="#DejaVuSans-50"/>
     <use x="725.634766" xlink:href="#DejaVuSans-44"/>
     <use x="757.421875" xlink:href="#DejaVuSans-32"/>
     <use x="789.208984" xlink:href="#DejaVuSans-50"/>
     <use x="852.832031" xlink:href="#DejaVuSans-45"/>
     <use x="888.916016" xlink:href="#DejaVuSans-68"/>
    </g>
    <!-- 58 targets: 1..-1.0e-4 -->
    <g transform="translate(60.41088 49.533135)scale(0.102 -0.102)">
     <defs>
      <path d="M 10.796875 72.90625 
L 49.515625 72.90625 
L 49.515625 64.59375 
L 19.828125 64.59375 
L 19.828125 46.734375 
Q 21.96875 47.46875 24.109375 47.828125 
Q 26.265625 48.1875 28.421875 48.1875 
Q 40.625 48.1875 47.75 41.5 
Q 54.890625 34.8125 54.890625 23.390625 
Q 54.890625 11.625 47.5625 5.09375 
Q 40.234375 -1.421875 26.90625 -1.421875 
Q 22.3125 -1.421875 17.546875 -0.640625 
Q 12.796875 0.140625 7.71875 1.703125 
L 7.71875 11.625 
Q 12.109375 9.234375 16.796875 8.0625 
Q 21.484375 6.890625 26.703125 6.890625 
Q 35.15625 6.890625 40.078125 11.328125 
Q 45.015625 15.765625 45.015625 23.390625 
Q 45.015625 31 40.078125 35.4375 
Q 35.15625 39.890625 26.703125 39.890625 
Q 22.75 39.890625 18.8125 39.015625 
Q 14.890625 38.140625 10.796875 36.28125 
z
" id="DejaVuSans-53"/>
      <path d="M 11.71875 12.40625 
L 22.015625 12.40625 
L 22.015625 0 
L 11.71875 0 
z
M 11.71875 51.703125 
L 22.015625 51.703125 
L 22.015625 39.3125 
L 11.71875 39.3125 
z
" id="DejaVuSans-58"/>
     </defs>
     <use xlink:href="#DejaVuSans-53"/>
     <use x="63.623047" xlink:href="#DejaVuSans-56"/>
     <use x="127.246094" xlink:href="#DejaVuSans-32"/>
     <use x="159.033203" xlink:href="#DejaVuSans-116"/>
     <use x="198.242188" xlink:href="#DejaVuSans-97"/>
     <use x="259.521484" xlink:href="#DejaVuSans-114"/>
     <use x="298.884766" xlink:href="#DejaVuSans-103"/>
     <use x="362.361328" xlink:href="#DejaVuSans-101"/>
     <use x="423.884766" xlink:href="#DejaVuSans-116"/>
     <use x="463.09375" xlink:href="#DejaVuSans-115"/>
     <use x="515.193359" xlink:href="#DejaVuSans-58"/>
     <use x="548.884766" xlink:href="#DejaVuSans-32"/>
     <use x="580.671875" xlink:href="#DejaVuSans-49"/>
     <use x="644.294922" xlink:href="#DejaVuSans-46"/>
     <use x="676.082031" xlink:href="#DejaVuSans-46"/>
     <use x="707.869141" xlink:href="#DejaVuSans-45"/>
     <use x="743.953125" xlink:href="#DejaVuSans-49"/>
     <use x="807.576172" xlink:href="#DejaVuSans-46"/>
     <use x="839.363281" xlink:href="#DejaVuSans-48"/>
     <use x="902.986328" xlink:href="#DejaVuSans-101"/>
     <use x="964.509766" xlink:href="#DejaVuSans-45"/>
     <use x="1000.59375" xlink:href="#DejaVuSans-52"/>
    </g>
    <!-- 10 instances -->
    <g transform="translate(60.41088 60.954904)scale(0.102 -0.102)">
     <use xlink:href="#DejaVuSans-49"/>
     <use x="63.623047" xlink:href="#DejaVuSans-48"/>
     <use x="127.246094" xlink:href="#DejaVuSans-32"/>
     <use x="159.033203" xlink:href="#DejaVuSans-105"/>
     <use x="186.816406" xlink:href="#DejaVuSans-110"/>
     <use x="250.195312" xlink:href="#DejaVuSans-115"/>
     <use x="302.294922" xlink:href="#DejaVuSans-116"/>
     <use x="341.503906" xlink:href="#DejaVuSans-97"/>
     <use x="402.783203" xlink:href="#DejaVuSans-110"/>
     <use x="466.162109" xlink:href="#DejaVuSans-99"/>
     <use x="521.142578" xlink:href="#DejaVuSans-101"/>
     <use x="582.666016" xlink:href="#DejaVuSans-115"/>
    </g>
   </g>
   <g id="text_18">
    <!-- v2.4.19, hv-hash=ff0e71e8cd978373 -->
    <g style="fill:#808080;" transform="translate(104.697125 294.151352)scale(0.1 -0.1)">
     <defs>
      <path d="M 10.984375 1.515625 
L 10.984375 10.5 
Q 14.703125 8.734375 18.5 7.8125 
Q 22.3125 6.890625 25.984375 6.890625 
Q 35.75 6.890625 40.890625 13.453125 
Q 46.046875 20.015625 46.78125 33.40625 
Q 43.953125 29.203125 39.59375 26.953125 
Q 35.25 24.703125 29.984375 24.703125 
Q 19.046875 24.703125 12.671875 31.3125 
Q 6.296875 37.9375 6.296875 49.421875 
Q 6.296875 60.640625 12.9375 67.421875 
Q 19.578125 74.21875 30.609375 74.21875 
Q 43.265625 74.21875 49.921875 64.515625 
Q 56.59375 54.828125 56.59375 36.375 
Q 56.59375 19.140625 48.40625 8.859375 
Q 40.234375 -1.421875 26.421875 -1.421875 
Q 22.703125 -1.421875 18.890625 -0.6875 
Q 15.09375 0.046875 10.984375 1.515625 
z
M 30.609375 32.421875 
Q 37.25 32.421875 41.125 36.953125 
Q 45.015625 41.5 45.015625 49.421875 
Q 45.015625 57.28125 41.125 61.84375 
Q 37.25 66.40625 30.609375 66.40625 
Q 23.96875 66.40625 20.09375 61.84375 
Q 16.21875 57.28125 16.21875 49.421875 
Q 16.21875 41.5 20.09375 36.953125 
Q 23.96875 32.421875 30.609375 32.421875 
z
" id="DejaVuSans-57"/>
      <path d="M 54.890625 33.015625 
L 54.890625 0 
L 45.90625 0 
L 45.90625 32.71875 
Q 45.90625 40.484375 42.875 44.328125 
Q 39.84375 48.1875 33.796875 48.1875 
Q 26.515625 48.1875 22.3125 43.546875 
Q 18.109375 38.921875 18.109375 30.90625 
L 18.109375 0 
L 9.078125 0 
L 9.078125 75.984375 
L 18.109375 75.984375 
L 18.109375 46.1875 
Q 21.34375 51.125 25.703125 53.5625 
Q 30.078125 56 35.796875 56 
Q 45.21875 56 50.046875 50.171875 
Q 54.890625 44.34375 54.890625 33.015625 
z
" id="DejaVuSans-104"/>
      <path d="M 10.59375 45.40625 
L 73.1875 45.40625 
L 73.1875 37.203125 
L 10.59375 37.203125 
z
M 10.59375 25.484375 
L 73.1875 25.484375 
L 73.1875 17.1875 
L 10.59375 17.1875 
z
" id="DejaVuSans-61"/>
      <path d="M 8.203125 72.90625 
L 55.078125 72.90625 
L 55.078125 68.703125 
L 28.609375 0 
L 18.3125 0 
L 43.21875 64.59375 
L 8.203125 64.59375 
z
" id="DejaVuSans-55"/>
      <path d="M 40.578125 39.3125 
Q 47.65625 37.796875 51.625 33 
Q 55.609375 28.21875 55.609375 21.1875 
Q 55.609375 10.40625 48.1875 4.484375 
Q 40.765625 -1.421875 27.09375 -1.421875 
Q 22.515625 -1.421875 17.65625 -0.515625 
Q 12.796875 0.390625 7.625 2.203125 
L 7.625 11.71875 
Q 11.71875 9.328125 16.59375 8.109375 
Q 21.484375 6.890625 26.8125 6.890625 
Q 36.078125 6.890625 40.9375 10.546875 
Q 45.796875 14.203125 45.796875 21.1875 
Q 45.796875 27.640625 41.28125 31.265625 
Q 36.765625 34.90625 28.71875 34.90625 
L 20.21875 34.90625 
L 20.21875 43.015625 
L 29.109375 43.015625 
Q 36.375 43.015625 40.234375 45.921875 
Q 44.09375 48.828125 44.09375 54.296875 
Q 44.09375 59.90625 40.109375 62.90625 
Q 36.140625 65.921875 28.71875 65.921875 
Q 24.65625 65.921875 20.015625 65.03125 
Q 15.375 64.15625 9.8125 62.3125 
L 9.8125 71.09375 
Q 15.4375 72.65625 20.34375 73.4375 
Q 25.25 74.21875 29.59375 74.21875 
Q 40.828125 74.21875 47.359375 69.109375 
Q 53.90625 64.015625 53.90625 55.328125 
Q 53.90625 49.265625 50.4375 45.09375 
Q 46.96875 40.921875 40.578125 39.3125 
z
" id="DejaVuSans-51"/>
     </defs>
     <use xlink:href="#DejaVuSans-118"/>
     <use x="59.179688" xlink:href="#DejaVuSans-50"/>
     <use x="122.802734" xlink:href="#DejaVuSans-46"/>
     <use x="154.589844" xlink:href="#DejaVuSans-52"/>
     <use x="218.212891" xlink:href="#DejaVuSans-46"/>
     <use x="250" xlink:href="#DejaVuSans-49"/>
     <use x="313.623047" xlink:href="#DejaVuSans-57"/>
     <use x="377.246094" xlink:href="#DejaVuSans-44"/>
     <use x="409.033203" xlink:href="#DejaVuSans-32"/>
     <use x="440.820312" xlink:href="#DejaVuSans-104"/>
     <use x="504.199219" xlink:href="#DejaVuSans-118"/>
     <use x="560.753906" xlink:href="#DejaVuSans-45"/>
     <use x="596.837891" xlink:href="#DejaVuSans-104"/>
     <use x="660.216797" xlink:href="#DejaVuSans-97"/>
     <use x="721.496094" xlink:href="#DejaVuSans-115"/>
     <use x="773.595703" xlink:href="#DejaVuSans-104"/>
     <use x="836.974609" xlink:href="#DejaVuSans-61"/>
     <use x="920.763672" xlink:href="#DejaVuSans-102"/>
     <use x="955.96875" xlink:href="#DejaVuSans-102"/>
     <use x="991.173828" xlink:href="#DejaVuSans-48"/>
     <use x="1054.796875" xlink:href="#DejaVuSans-101"/>
     <use x="1116.320312" xlink:href="#DejaVuSans-55"/>
     <use x="1179.943359" xlink:href="#DejaVuSans-49"/>
     <use x="1243.566406" xlink:href="#DejaVuSans-101"/>
     <use x="1305.089844" xlink:href="#DejaVuSans-56"/>
     <use x="1368.712891" xlink:href="#DejaVuSans-99"/>
     <use x="1423.693359" xlink:href="#DejaVuSans-100"/>
     <use x="1487.169922" xlink:href="#DejaVuSans-57"/>
     <use x="1550.792969" xlink:href="#DejaVuSans-55"/>
     <use x="1614.416016" xlink:href="#DejaVuSans-56"/>
     <use x="1678.039062" xlink:href="#DejaVuSans-51"/>
     <use x="1741.662109" xlink:href="#DejaVuSans-55"/>
     <use x="1805.285156" xlink:href="#DejaVuSans-51"/>
    </g>
   </g>
   <g id="text_19">
    <!-- 12 sep. Ellipsoid/Attr. sector -->
    <g transform="translate(58.276812 21.648)scale(0.2 -0.2)">
     <use xlink:href="#DejaVuSans-49"/>
     <use x="63.623047" xlink:href="#DejaVuSans-50"/>
     <use x="127.246094" xlink:href="#DejaVuSans-32"/>
     <use x="159.033203" xlink:href="#DejaVuSans-115"/>
     <use x="211.132812" xlink:href="#DejaVuSans-101"/>
     <use x="272.65625" xlink:href="#DejaVuSans-112"/>
     <use x="336.132812" xlink:href="#DejaVuSans-46"/>
     <use x="367.919922" xlink:href="#DejaVuSans-32"/>
     <use x="399.707031" xlink:href="#DejaVuSans-69"/>
     <use x="462.890625" xlink:href="#DejaVuSans-108"/>
     <use x="490.673828" xlink:href="#DejaVuSans-108"/>
     <use x="518.457031" xlink:href="#DejaVuSans-105"/>
     <use x="546.240234" xlink:href="#DejaVuSans-112"/>
     <use x="609.716797" xlink:href="#DejaVuSans-115"/>
     <use x="661.816406" xlink:href="#DejaVuSans-111"/>
     <use x="722.998047" xlink:href="#DejaVuSans-105"/>
     <use x="750.78125" xlink:href="#DejaVuSans-100"/>
     <use x="814.257812" xlink:href="#DejaVuSans-47"/>
     <use x="847.949219" xlink:href="#DejaVuSans-65"/>
     <use x="914.607422" xlink:href="#DejaVuSans-116"/>
     <use x="953.816406" xlink:href="#DejaVuSans-116"/>
     <use x="993.025391" xlink:href="#DejaVuSans-114"/>
     <use x="1025.013672" xlink:href="#DejaVuSans-46"/>
     <use x="1056.800781" xlink:href="#DejaVuSans-32"/>
     <use x="1088.587891" xlink:href="#DejaVuSans-115"/>
     <use x="1140.6875" xlink:href="#DejaVuSans-101"/>
     <use x="1202.210938" xlink:href="#DejaVuSans-99"/>
     <use x="1257.191406" xlink:href="#DejaVuSans-116"/>
     <use x="1296.400391" xlink:href="#DejaVuSans-111"/>
     <use x="1357.582031" xlink:href="#DejaVuSans-114"/>
    </g>
   </g>
  </g>
 </g>
 <defs>
  <clipPath id="p2de2945128">
   <rect height="271.296" width="281.088" x="57.6" y="27.648"/>
  </clipPath>
 </defs>
</svg>
