<?xml version="1.0" encoding="utf-8" standalone="no"?>
<!DOCTYPE svg PUBLIC "-//W3C//DTD SVG 1.1//EN"
  "http://www.w3.org/Graphics/SVG/1.1/DTD/svg11.dtd">
<!-- Created with matplotlib (https://matplotlib.org/) -->
<svg height="345.6pt" version="1.1" viewBox="0 0 460.8 345.6" width="460.8pt" xmlns="http://www.w3.org/2000/svg" xmlns:xlink="http://www.w3.org/1999/xlink">
 <metadata>
  <rdf:RDF xmlns:cc="http://creativecommons.org/ns#" xmlns:dc="http://purl.org/dc/elements/1.1/" xmlns:rdf="http://www.w3.org/1999/02/22-rdf-syntax-ns#">
   <cc:Work>
    <dc:type rdf:resource="http://purl.org/dc/dcmitype/StillImage"/>
    <dc:date>2021-04-26T15:05:07.298554</dc:date>
    <dc:format>image/svg+xml</dc:format>
    <dc:creator>
     <cc:Agent>
      <dc:title>Matplotlib v3.3.2, https://matplotlib.org/</dc:title>
     </cc:Agent>
    </dc:creator>
   </cc:Work>
  </rdf:RDF>
 </metadata>
 <defs>
  <style type="text/css">*{stroke-linecap:butt;stroke-linejoin:round;}</style>
 </defs>
 <g id="figure_1">
  <g id="patch_1">
   <path d="M 0 345.6 
L 460.8 345.6 
L 460.8 0 
L 0 0 
z
" style="fill:#ffffff;"/>
  </g>
  <g id="axes_1">
   <g id="patch_2">
    <path d="M 57.6 298.944 
L 338.688 298.944 
L 338.688 27.648 
L 57.6 27.648 
z
" style="fill:#ffffff;"/>
   </g>
   <g id="line2d_1">
    <path d="M 45.512012 298.944 
L 45.512012 285.050384 
L 64.67102 285.050384 
L 64.67102 275.787974 
L 76.759008 275.787974 
L 76.759008 271.156769 
L 91.535274 271.156769 
L 91.535274 257.263153 
L 96.86091 257.263153 
L 96.86091 248.000743 
L 105.951954 248.000743 
L 105.951954 243.369538 
L 114.751048 243.369538 
L 114.751048 234.107127 
L 124.743806 234.107127 
L 124.743806 220.213512 
L 132.30267 220.213512 
L 132.30267 210.951101 
L 136.361705 210.951101 
L 136.361705 201.688691 
L 140.871049 201.688691 
L 140.871049 192.426281 
L 147.317833 192.426281 
L 147.317833 187.795075 
L 154.405793 187.795075 
L 154.405793 173.90146 
L 160.961329 173.90146 
L 160.961329 169.270255 
L 169.099626 169.270255 
L 169.099626 155.376639 
L 178.101129 155.376639 
L 178.101129 146.114229 
L 188.302324 146.114229 
L 188.302324 141.483024 
L 196.346067 141.483024 
L 196.346067 127.589408 
L 204.519651 127.589408 
L 204.519651 122.958203 
L 212.18495 122.958203 
L 212.18495 109.064587 
L 219.327317 109.064587 
L 219.327317 99.802177 
L 226.477541 99.802177 
L 226.477541 90.539766 
L 233.032824 90.539766 
L 233.032824 85.908561 
L 238.24653 85.908561 
L 238.24653 76.646151 
L 243.967636 76.646151 
L 243.967636 62.752535 
L 338.688 62.752535 
" style="fill:none;stroke:#f5deb3;stroke-linecap:square;stroke-width:4;"/>
   </g>
   <g id="line2d_2">
    <defs>
     <path d="M 0 7.778175 
L 7.778175 0 
L 0 -7.778175 
L -7.778175 0 
z
" id="ma78b763b6e" style="stroke:#f5deb3;stroke-linejoin:miter;stroke-width:1.5;"/>
    </defs>
    <g>
     <use style="fill:#f5deb3;stroke:#f5deb3;stroke-linejoin:miter;stroke-width:1.5;" x="64.67102" xlink:href="#ma78b763b6e" y="275.787974"/>
     <use style="fill:#f5deb3;stroke:#f5deb3;stroke-linejoin:miter;stroke-width:1.5;" x="124.743806" xlink:href="#ma78b763b6e" y="220.213512"/>
     <use style="fill:#f5deb3;stroke:#f5deb3;stroke-linejoin:miter;stroke-width:1.5;" x="169.099626" xlink:href="#ma78b763b6e" y="155.376639"/>
     <use style="fill:#f5deb3;stroke:#f5deb3;stroke-linejoin:miter;stroke-width:1.5;" x="243.967636" xlink:href="#ma78b763b6e" y="76.646151"/>
     <use style="fill:#f5deb3;stroke:#f5deb3;stroke-linejoin:miter;stroke-width:1.5;" x="243.967636" xlink:href="#ma78b763b6e" y="62.752535"/>
     <use style="fill:#f5deb3;stroke:#f5deb3;stroke-linejoin:miter;stroke-width:1.5;" x="338.688" xlink:href="#ma78b763b6e" y="62.752535"/>
    </g>
   </g>
   <g id="line2d_3">
    <path style="fill:none;stroke:#f5deb3;stroke-linecap:square;stroke-width:4;"/>
    <g/>
   </g>
   <g id="line2d_4">
    <path d="M 338.688 62.752535 
L 369.60768 35.706297 
" style="fill:none;stroke:#f5deb3;stroke-linecap:square;stroke-width:4;"/>
    <g>
     <use style="fill:#f5deb3;stroke:#f5deb3;stroke-linejoin:miter;stroke-width:1.5;" x="338.688" xlink:href="#ma78b763b6e" y="62.752535"/>
     <use style="fill:#f5deb3;stroke:#f5deb3;stroke-linejoin:miter;stroke-width:1.5;" x="369.60768" xlink:href="#ma78b763b6e" y="35.706297"/>
    </g>
   </g>
   <g id="matplotlib.axis_1">
    <g id="xtick_1">
     <g id="line2d_5">
      <path clip-path="url(#pb73eed4b51)" d="M 57.6 298.944 
L 57.6 27.648 
" style="fill:none;stroke:#b0b0b0;stroke-linecap:square;stroke-width:0.8;"/>
     </g>
     <g id="line2d_6">
      <defs>
       <path d="M 0 0 
L 0 3.5 
" id="m151f0025f8" style="stroke:#000000;stroke-width:0.8;"/>
      </defs>
      <g>
       <use style="stroke:#000000;stroke-width:0.8;" x="57.6" xlink:href="#m151f0025f8" y="298.944"/>
      </g>
     </g>
     <g id="text_1">
      <!-- 0 -->
      <g transform="translate(51.2375 321.140875)scale(0.2 -0.2)">
       <defs>
        <path d="M 31.78125 66.40625 
Q 24.171875 66.40625 20.328125 58.90625 
Q 16.5 51.421875 16.5 36.375 
Q 16.5 21.390625 20.328125 13.890625 
Q 24.171875 6.390625 31.78125 6.390625 
Q 39.453125 6.390625 43.28125 13.890625 
Q 47.125 21.390625 47.125 36.375 
Q 47.125 51.421875 43.28125 58.90625 
Q 39.453125 66.40625 31.78125 66.40625 
z
M 31.78125 74.21875 
Q 44.046875 74.21875 50.515625 64.515625 
Q 56.984375 54.828125 56.984375 36.375 
Q 56.984375 17.96875 50.515625 8.265625 
Q 44.046875 -1.421875 31.78125 -1.421875 
Q 19.53125 -1.421875 13.0625 8.265625 
Q 6.59375 17.96875 6.59375 36.375 
Q 6.59375 54.828125 13.0625 64.515625 
Q 19.53125 74.21875 31.78125 74.21875 
z
" id="DejaVuSans-48"/>
       </defs>
       <use xlink:href="#DejaVuSans-48"/>
      </g>
     </g>
    </g>
    <g id="xtick_2">
     <g id="line2d_7">
      <path clip-path="url(#pb73eed4b51)" d="M 137.910857 298.944 
L 137.910857 27.648 
" style="fill:none;stroke:#b0b0b0;stroke-linecap:square;stroke-width:0.8;"/>
     </g>
     <g id="line2d_8">
      <g>
       <use style="stroke:#000000;stroke-width:0.8;" x="137.910857" xlink:href="#m151f0025f8" y="298.944"/>
      </g>
     </g>
     <g id="text_2">
      <!-- 2 -->
      <g transform="translate(131.548357 321.140875)scale(0.2 -0.2)">
       <defs>
        <path d="M 19.1875 8.296875 
L 53.609375 8.296875 
L 53.609375 0 
L 7.328125 0 
L 7.328125 8.296875 
Q 12.9375 14.109375 22.625 23.890625 
Q 32.328125 33.6875 34.8125 36.53125 
Q 39.546875 41.84375 41.421875 45.53125 
Q 43.3125 49.21875 43.3125 52.78125 
Q 43.3125 58.59375 39.234375 62.25 
Q 35.15625 65.921875 28.609375 65.921875 
Q 23.96875 65.921875 18.8125 64.3125 
Q 13.671875 62.703125 7.8125 59.421875 
L 7.8125 69.390625 
Q 13.765625 71.78125 18.9375 73 
Q 24.125 74.21875 28.421875 74.21875 
Q 39.75 74.21875 46.484375 68.546875 
Q 53.21875 62.890625 53.21875 53.421875 
Q 53.21875 48.921875 51.53125 44.890625 
Q 49.859375 40.875 45.40625 35.40625 
Q 44.1875 33.984375 37.640625 27.21875 
Q 31.109375 20.453125 19.1875 8.296875 
z
" id="DejaVuSans-50"/>
       </defs>
       <use xlink:href="#DejaVuSans-50"/>
      </g>
     </g>
    </g>
    <g id="xtick_3">
     <g id="line2d_9">
      <path clip-path="url(#pb73eed4b51)" d="M 218.221714 298.944 
L 218.221714 27.648 
" style="fill:none;stroke:#b0b0b0;stroke-linecap:square;stroke-width:0.8;"/>
     </g>
     <g id="line2d_10">
      <g>
       <use style="stroke:#000000;stroke-width:0.8;" x="218.221714" xlink:href="#m151f0025f8" y="298.944"/>
      </g>
     </g>
     <g id="text_3">
      <!-- 4 -->
      <g transform="translate(211.859214 321.140875)scale(0.2 -0.2)">
       <defs>
        <path d="M 37.796875 64.3125 
L 12.890625 25.390625 
L 37.796875 25.390625 
z
M 35.203125 72.90625 
L 47.609375 72.90625 
L 47.609375 25.390625 
L 58.015625 25.390625 
L 58.015625 17.1875 
L 47.609375 17.1875 
L 47.609375 0 
L 37.796875 0 
L 37.796875 17.1875 
L 4.890625 17.1875 
L 4.890625 26.703125 
z
" id="DejaVuSans-52"/>
       </defs>
       <use xlink:href="#DejaVuSans-52"/>
      </g>
     </g>
    </g>
    <g id="xtick_4">
     <g id="line2d_11">
      <path clip-path="url(#pb73eed4b51)" d="M 298.532571 298.944 
L 298.532571 27.648 
" style="fill:none;stroke:#b0b0b0;stroke-linecap:square;stroke-width:0.8;"/>
     </g>
     <g id="line2d_12">
      <g>
       <use style="stroke:#000000;stroke-width:0.8;" x="298.532571" xlink:href="#m151f0025f8" y="298.944"/>
      </g>
     </g>
     <g id="text_4">
      <!-- 6 -->
      <g transform="translate(292.170071 321.140875)scale(0.2 -0.2)">
       <defs>
        <path d="M 33.015625 40.375 
Q 26.375 40.375 22.484375 35.828125 
Q 18.609375 31.296875 18.609375 23.390625 
Q 18.609375 15.53125 22.484375 10.953125 
Q 26.375 6.390625 33.015625 6.390625 
Q 39.65625 6.390625 43.53125 10.953125 
Q 47.40625 15.53125 47.40625 23.390625 
Q 47.40625 31.296875 43.53125 35.828125 
Q 39.65625 40.375 33.015625 40.375 
z
M 52.59375 71.296875 
L 52.59375 62.3125 
Q 48.875 64.0625 45.09375 64.984375 
Q 41.3125 65.921875 37.59375 65.921875 
Q 27.828125 65.921875 22.671875 59.328125 
Q 17.53125 52.734375 16.796875 39.40625 
Q 19.671875 43.65625 24.015625 45.921875 
Q 28.375 48.1875 33.59375 48.1875 
Q 44.578125 48.1875 50.953125 41.515625 
Q 57.328125 34.859375 57.328125 23.390625 
Q 57.328125 12.15625 50.6875 5.359375 
Q 44.046875 -1.421875 33.015625 -1.421875 
Q 20.359375 -1.421875 13.671875 8.265625 
Q 6.984375 17.96875 6.984375 36.375 
Q 6.984375 53.65625 15.1875 63.9375 
Q 23.390625 74.21875 37.203125 74.21875 
Q 40.921875 74.21875 44.703125 73.484375 
Q 48.484375 72.75 52.59375 71.296875 
z
" id="DejaVuSans-54"/>
       </defs>
       <use xlink:href="#DejaVuSans-54"/>
      </g>
     </g>
    </g>
    <g id="xtick_5">
     <g id="line2d_13">
      <path clip-path="url(#pb73eed4b51)" d="M 97.755429 298.944 
L 97.755429 27.648 
" style="fill:none;stroke:#b0b0b0;stroke-linecap:square;stroke-width:0.8;"/>
     </g>
     <g id="line2d_14">
      <defs>
       <path d="M 0 0 
L 0 2 
" id="m8825c1cbeb" style="stroke:#000000;stroke-width:0.6;"/>
      </defs>
      <g>
       <use style="stroke:#000000;stroke-width:0.6;" x="97.755429" xlink:href="#m8825c1cbeb" y="298.944"/>
      </g>
     </g>
    </g>
    <g id="xtick_6">
     <g id="line2d_15">
      <path clip-path="url(#pb73eed4b51)" d="M 178.066286 298.944 
L 178.066286 27.648 
" style="fill:none;stroke:#b0b0b0;stroke-linecap:square;stroke-width:0.8;"/>
     </g>
     <g id="line2d_16">
      <g>
       <use style="stroke:#000000;stroke-width:0.6;" x="178.066286" xlink:href="#m8825c1cbeb" y="298.944"/>
      </g>
     </g>
    </g>
    <g id="xtick_7">
     <g id="line2d_17">
      <path clip-path="url(#pb73eed4b51)" d="M 258.377143 298.944 
L 258.377143 27.648 
" style="fill:none;stroke:#b0b0b0;stroke-linecap:square;stroke-width:0.8;"/>
     </g>
     <g id="line2d_18">
      <g>
       <use style="stroke:#000000;stroke-width:0.6;" x="258.377143" xlink:href="#m8825c1cbeb" y="298.944"/>
      </g>
     </g>
    </g>
    <g id="xtick_8">
     <g id="line2d_19">
      <path clip-path="url(#pb73eed4b51)" d="M 338.688 298.944 
L 338.688 27.648 
" style="fill:none;stroke:#b0b0b0;stroke-linecap:square;stroke-width:0.8;"/>
     </g>
     <g id="line2d_20">
      <g>
       <use style="stroke:#000000;stroke-width:0.6;" x="338.688" xlink:href="#m8825c1cbeb" y="298.944"/>
      </g>
     </g>
    </g>
    <g id="text_5">
     <!-- log10(# f-evals / dimension) -->
     <g transform="translate(77.764078 342.217594)scale(0.17 -0.17)">
      <defs>
       <path d="M 9.421875 75.984375 
L 18.40625 75.984375 
L 18.40625 0 
L 9.421875 0 
z
" id="DejaVuSans-108"/>
       <path d="M 30.609375 48.390625 
Q 23.390625 48.390625 19.1875 42.75 
Q 14.984375 37.109375 14.984375 27.296875 
Q 14.984375 17.484375 19.15625 11.84375 
Q 23.34375 6.203125 30.609375 6.203125 
Q 37.796875 6.203125 41.984375 11.859375 
Q 46.1875 17.53125 46.1875 27.296875 
Q 46.1875 37.015625 41.984375 42.703125 
Q 37.796875 48.390625 30.609375 48.390625 
z
M 30.609375 56 
Q 42.328125 56 49.015625 48.375 
Q 55.71875 40.765625 55.71875 27.296875 
Q 55.71875 13.875 49.015625 6.21875 
Q 42.328125 -1.421875 30.609375 -1.421875 
Q 18.84375 -1.421875 12.171875 6.21875 
Q 5.515625 13.875 5.515625 27.296875 
Q 5.515625 40.765625 12.171875 48.375 
Q 18.84375 56 30.609375 56 
z
" id="DejaVuSans-111"/>
       <path d="M 45.40625 27.984375 
Q 45.40625 37.75 41.375 43.109375 
Q 37.359375 48.484375 30.078125 48.484375 
Q 22.859375 48.484375 18.828125 43.109375 
Q 14.796875 37.75 14.796875 27.984375 
Q 14.796875 18.265625 18.828125 12.890625 
Q 22.859375 7.515625 30.078125 7.515625 
Q 37.359375 7.515625 41.375 12.890625 
Q 45.40625 18.265625 45.40625 27.984375 
z
M 54.390625 6.78125 
Q 54.390625 -7.171875 48.1875 -13.984375 
Q 42 -20.796875 29.203125 -20.796875 
Q 24.46875 -20.796875 20.265625 -20.09375 
Q 16.0625 -19.390625 12.109375 -17.921875 
L 12.109375 -9.1875 
Q 16.0625 -11.328125 19.921875 -12.34375 
Q 23.78125 -13.375 27.78125 -13.375 
Q 36.625 -13.375 41.015625 -8.765625 
Q 45.40625 -4.15625 45.40625 5.171875 
L 45.40625 9.625 
Q 42.625 4.78125 38.28125 2.390625 
Q 33.9375 0 27.875 0 
Q 17.828125 0 11.671875 7.65625 
Q 5.515625 15.328125 5.515625 27.984375 
Q 5.515625 40.671875 11.671875 48.328125 
Q 17.828125 56 27.875 56 
Q 33.9375 56 38.28125 53.609375 
Q 42.625 51.21875 45.40625 46.390625 
L 45.40625 54.6875 
L 54.390625 54.6875 
z
" id="DejaVuSans-103"/>
       <path d="M 12.40625 8.296875 
L 28.515625 8.296875 
L 28.515625 63.921875 
L 10.984375 60.40625 
L 10.984375 69.390625 
L 28.421875 72.90625 
L 38.28125 72.90625 
L 38.28125 8.296875 
L 54.390625 8.296875 
L 54.390625 0 
L 12.40625 0 
z
" id="DejaVuSans-49"/>
       <path d="M 31 75.875 
Q 24.46875 64.65625 21.28125 53.65625 
Q 18.109375 42.671875 18.109375 31.390625 
Q 18.109375 20.125 21.3125 9.0625 
Q 24.515625 -2 31 -13.1875 
L 23.1875 -13.1875 
Q 15.875 -1.703125 12.234375 9.375 
Q 8.59375 20.453125 8.59375 31.390625 
Q 8.59375 42.28125 12.203125 53.3125 
Q 15.828125 64.359375 23.1875 75.875 
z
" id="DejaVuSans-40"/>
       <path d="M 51.125 44 
L 36.921875 44 
L 32.8125 27.6875 
L 47.125 27.6875 
z
M 43.796875 71.78125 
L 38.71875 51.515625 
L 52.984375 51.515625 
L 58.109375 71.78125 
L 65.921875 71.78125 
L 60.890625 51.515625 
L 76.125 51.515625 
L 76.125 44 
L 58.984375 44 
L 54.984375 27.6875 
L 70.515625 27.6875 
L 70.515625 20.21875 
L 53.078125 20.21875 
L 48 0 
L 40.1875 0 
L 45.21875 20.21875 
L 30.90625 20.21875 
L 25.875 0 
L 18.015625 0 
L 23.09375 20.21875 
L 7.71875 20.21875 
L 7.71875 27.6875 
L 24.90625 27.6875 
L 29 44 
L 13.28125 44 
L 13.28125 51.515625 
L 30.90625 51.515625 
L 35.890625 71.78125 
z
" id="DejaVuSans-35"/>
       <path id="DejaVuSans-32"/>
       <path d="M 37.109375 75.984375 
L 37.109375 68.5 
L 28.515625 68.5 
Q 23.6875 68.5 21.796875 66.546875 
Q 19.921875 64.59375 19.921875 59.515625 
L 19.921875 54.6875 
L 34.71875 54.6875 
L 34.71875 47.703125 
L 19.921875 47.703125 
L 19.921875 0 
L 10.890625 0 
L 10.890625 47.703125 
L 2.296875 47.703125 
L 2.296875 54.6875 
L 10.890625 54.6875 
L 10.890625 58.5 
Q 10.890625 67.625 15.140625 71.796875 
Q 19.390625 75.984375 28.609375 75.984375 
z
" id="DejaVuSans-102"/>
       <path d="M 4.890625 31.390625 
L 31.203125 31.390625 
L 31.203125 23.390625 
L 4.890625 23.390625 
z
" id="DejaVuSans-45"/>
       <path d="M 56.203125 29.59375 
L 56.203125 25.203125 
L 14.890625 25.203125 
Q 15.484375 15.921875 20.484375 11.0625 
Q 25.484375 6.203125 34.421875 6.203125 
Q 39.59375 6.203125 44.453125 7.46875 
Q 49.3125 8.734375 54.109375 11.28125 
L 54.109375 2.78125 
Q 49.265625 0.734375 44.1875 -0.34375 
Q 39.109375 -1.421875 33.890625 -1.421875 
Q 20.796875 -1.421875 13.15625 6.1875 
Q 5.515625 13.8125 5.515625 26.8125 
Q 5.515625 40.234375 12.765625 48.109375 
Q 20.015625 56 32.328125 56 
Q 43.359375 56 49.78125 48.890625 
Q 56.203125 41.796875 56.203125 29.59375 
z
M 47.21875 32.234375 
Q 47.125 39.59375 43.09375 43.984375 
Q 39.0625 48.390625 32.421875 48.390625 
Q 24.90625 48.390625 20.390625 44.140625 
Q 15.875 39.890625 15.1875 32.171875 
z
" id="DejaVuSans-101"/>
       <path d="M 2.984375 54.6875 
L 12.5 54.6875 
L 29.59375 8.796875 
L 46.6875 54.6875 
L 56.203125 54.6875 
L 35.6875 0 
L 23.484375 0 
z
" id="DejaVuSans-118"/>
       <path d="M 34.28125 27.484375 
Q 23.390625 27.484375 19.1875 25 
Q 14.984375 22.515625 14.984375 16.5 
Q 14.984375 11.71875 18.140625 8.90625 
Q 21.296875 6.109375 26.703125 6.109375 
Q 34.1875 6.109375 38.703125 11.40625 
Q 43.21875 16.703125 43.21875 25.484375 
L 43.21875 27.484375 
z
M 52.203125 31.203125 
L 52.203125 0 
L 43.21875 0 
L 43.21875 8.296875 
Q 40.140625 3.328125 35.546875 0.953125 
Q 30.953125 -1.421875 24.3125 -1.421875 
Q 15.921875 -1.421875 10.953125 3.296875 
Q 6 8.015625 6 15.921875 
Q 6 25.140625 12.171875 29.828125 
Q 18.359375 34.515625 30.609375 34.515625 
L 43.21875 34.515625 
L 43.21875 35.40625 
Q 43.21875 41.609375 39.140625 45 
Q 35.0625 48.390625 27.6875 48.390625 
Q 23 48.390625 18.546875 47.265625 
Q 14.109375 46.140625 10.015625 43.890625 
L 10.015625 52.203125 
Q 14.9375 54.109375 19.578125 55.046875 
Q 24.21875 56 28.609375 56 
Q 40.484375 56 46.34375 49.84375 
Q 52.203125 43.703125 52.203125 31.203125 
z
" id="DejaVuSans-97"/>
       <path d="M 44.28125 53.078125 
L 44.28125 44.578125 
Q 40.484375 46.53125 36.375 47.5 
Q 32.28125 48.484375 27.875 48.484375 
Q 21.1875 48.484375 17.84375 46.4375 
Q 14.5 44.390625 14.5 40.28125 
Q 14.5 37.15625 16.890625 35.375 
Q 19.28125 33.59375 26.515625 31.984375 
L 29.59375 31.296875 
Q 39.15625 29.25 43.1875 25.515625 
Q 47.21875 21.78125 47.21875 15.09375 
Q 47.21875 7.46875 41.1875 3.015625 
Q 35.15625 -1.421875 24.609375 -1.421875 
Q 20.21875 -1.421875 15.453125 -0.5625 
Q 10.6875 0.296875 5.421875 2 
L 5.421875 11.28125 
Q 10.40625 8.6875 15.234375 7.390625 
Q 20.0625 6.109375 24.8125 6.109375 
Q 31.15625 6.109375 34.5625 8.28125 
Q 37.984375 10.453125 37.984375 14.40625 
Q 37.984375 18.0625 35.515625 20.015625 
Q 33.0625 21.96875 24.703125 23.78125 
L 21.578125 24.515625 
Q 13.234375 26.265625 9.515625 29.90625 
Q 5.8125 33.546875 5.8125 39.890625 
Q 5.8125 47.609375 11.28125 51.796875 
Q 16.75 56 26.8125 56 
Q 31.78125 56 36.171875 55.265625 
Q 40.578125 54.546875 44.28125 53.078125 
z
" id="DejaVuSans-115"/>
       <path d="M 25.390625 72.90625 
L 33.6875 72.90625 
L 8.296875 -9.28125 
L 0 -9.28125 
z
" id="DejaVuSans-47"/>
       <path d="M 45.40625 46.390625 
L 45.40625 75.984375 
L 54.390625 75.984375 
L 54.390625 0 
L 45.40625 0 
L 45.40625 8.203125 
Q 42.578125 3.328125 38.25 0.953125 
Q 33.9375 -1.421875 27.875 -1.421875 
Q 17.96875 -1.421875 11.734375 6.484375 
Q 5.515625 14.40625 5.515625 27.296875 
Q 5.515625 40.1875 11.734375 48.09375 
Q 17.96875 56 27.875 56 
Q 33.9375 56 38.25 53.625 
Q 42.578125 51.265625 45.40625 46.390625 
z
M 14.796875 27.296875 
Q 14.796875 17.390625 18.875 11.75 
Q 22.953125 6.109375 30.078125 6.109375 
Q 37.203125 6.109375 41.296875 11.75 
Q 45.40625 17.390625 45.40625 27.296875 
Q 45.40625 37.203125 41.296875 42.84375 
Q 37.203125 48.484375 30.078125 48.484375 
Q 22.953125 48.484375 18.875 42.84375 
Q 14.796875 37.203125 14.796875 27.296875 
z
" id="DejaVuSans-100"/>
       <path d="M 9.421875 54.6875 
L 18.40625 54.6875 
L 18.40625 0 
L 9.421875 0 
z
M 9.421875 75.984375 
L 18.40625 75.984375 
L 18.40625 64.59375 
L 9.421875 64.59375 
z
" id="DejaVuSans-105"/>
       <path d="M 52 44.1875 
Q 55.375 50.25 60.0625 53.125 
Q 64.75 56 71.09375 56 
Q 79.640625 56 84.28125 50.015625 
Q 88.921875 44.046875 88.921875 33.015625 
L 88.921875 0 
L 79.890625 0 
L 79.890625 32.71875 
Q 79.890625 40.578125 77.09375 44.375 
Q 74.3125 48.1875 68.609375 48.1875 
Q 61.625 48.1875 57.5625 43.546875 
Q 53.515625 38.921875 53.515625 30.90625 
L 53.515625 0 
L 44.484375 0 
L 44.484375 32.71875 
Q 44.484375 40.625 41.703125 44.40625 
Q 38.921875 48.1875 33.109375 48.1875 
Q 26.21875 48.1875 22.15625 43.53125 
Q 18.109375 38.875 18.109375 30.90625 
L 18.109375 0 
L 9.078125 0 
L 9.078125 54.6875 
L 18.109375 54.6875 
L 18.109375 46.1875 
Q 21.1875 51.21875 25.484375 53.609375 
Q 29.78125 56 35.6875 56 
Q 41.65625 56 45.828125 52.96875 
Q 50 49.953125 52 44.1875 
z
" id="DejaVuSans-109"/>
       <path d="M 54.890625 33.015625 
L 54.890625 0 
L 45.90625 0 
L 45.90625 32.71875 
Q 45.90625 40.484375 42.875 44.328125 
Q 39.84375 48.1875 33.796875 48.1875 
Q 26.515625 48.1875 22.3125 43.546875 
Q 18.109375 38.921875 18.109375 30.90625 
L 18.109375 0 
L 9.078125 0 
L 9.078125 54.6875 
L 18.109375 54.6875 
L 18.109375 46.1875 
Q 21.34375 51.125 25.703125 53.5625 
Q 30.078125 56 35.796875 56 
Q 45.21875 56 50.046875 50.171875 
Q 54.890625 44.34375 54.890625 33.015625 
z
" id="DejaVuSans-110"/>
       <path d="M 8.015625 75.875 
L 15.828125 75.875 
Q 23.140625 64.359375 26.78125 53.3125 
Q 30.421875 42.28125 30.421875 31.390625 
Q 30.421875 20.453125 26.78125 9.375 
Q 23.140625 -1.703125 15.828125 -13.1875 
L 8.015625 -13.1875 
Q 14.5 -2 17.703125 9.0625 
Q 20.90625 20.125 20.90625 31.390625 
Q 20.90625 42.671875 17.703125 53.65625 
Q 14.5 64.65625 8.015625 75.875 
z
" id="DejaVuSans-41"/>
      </defs>
      <use xlink:href="#DejaVuSans-108"/>
      <use x="27.783203" xlink:href="#DejaVuSans-111"/>
      <use x="88.964844" xlink:href="#DejaVuSans-103"/>
      <use x="152.441406" xlink:href="#DejaVuSans-49"/>
      <use x="216.064453" xlink:href="#DejaVuSans-48"/>
      <use x="279.6875" xlink:href="#DejaVuSans-40"/>
      <use x="318.701172" xlink:href="#DejaVuSans-35"/>
      <use x="402.490234" xlink:href="#DejaVuSans-32"/>
      <use x="434.277344" xlink:href="#DejaVuSans-102"/>
      <use x="463.982422" xlink:href="#DejaVuSans-45"/>
      <use x="500.066406" xlink:href="#DejaVuSans-101"/>
      <use x="561.589844" xlink:href="#DejaVuSans-118"/>
      <use x="620.769531" xlink:href="#DejaVuSans-97"/>
      <use x="682.048828" xlink:href="#DejaVuSans-108"/>
      <use x="709.832031" xlink:href="#DejaVuSans-115"/>
      <use x="761.931641" xlink:href="#DejaVuSans-32"/>
      <use x="793.71875" xlink:href="#DejaVuSans-47"/>
      <use x="827.410156" xlink:href="#DejaVuSans-32"/>
      <use x="859.197266" xlink:href="#DejaVuSans-100"/>
      <use x="922.673828" xlink:href="#DejaVuSans-105"/>
      <use x="950.457031" xlink:href="#DejaVuSans-109"/>
      <use x="1047.869141" xlink:href="#DejaVuSans-101"/>
      <use x="1109.392578" xlink:href="#DejaVuSans-110"/>
      <use x="1172.771484" xlink:href="#DejaVuSans-115"/>
      <use x="1224.871094" xlink:href="#DejaVuSans-105"/>
      <use x="1252.654297" xlink:href="#DejaVuSans-111"/>
      <use x="1313.835938" xlink:href="#DejaVuSans-110"/>
      <use x="1377.214844" xlink:href="#DejaVuSans-41"/>
     </g>
    </g>
   </g>
   <g id="matplotlib.axis_2">
    <g id="ytick_1">
     <g id="line2d_21">
      <path clip-path="url(#pb73eed4b51)" d="M 57.6 298.944 
L 338.688 298.944 
" style="fill:none;stroke:#b0b0b0;stroke-linecap:square;stroke-width:0.8;"/>
     </g>
     <g id="line2d_22">
      <defs>
       <path d="M 0 0 
L -3.5 0 
" id="mf8ea8ca410" style="stroke:#000000;stroke-width:0.8;"/>
      </defs>
      <g>
       <use style="stroke:#000000;stroke-width:0.8;" x="57.6" xlink:href="#mf8ea8ca410" y="298.944"/>
      </g>
     </g>
     <g id="text_6">
      <!-- 0.0 -->
      <g transform="translate(25.155 305.02275)scale(0.16 -0.16)">
       <defs>
        <path d="M 10.6875 12.40625 
L 21 12.40625 
L 21 0 
L 10.6875 0 
z
" id="DejaVuSans-46"/>
       </defs>
       <use xlink:href="#DejaVuSans-48"/>
       <use x="63.623047" xlink:href="#DejaVuSans-46"/>
       <use x="95.410156" xlink:href="#DejaVuSans-48"/>
      </g>
     </g>
    </g>
    <g id="ytick_2">
     <g id="line2d_23">
      <path clip-path="url(#pb73eed4b51)" d="M 57.6 245.22202 
L 338.688 245.22202 
" style="fill:none;stroke:#b0b0b0;stroke-linecap:square;stroke-width:0.8;"/>
     </g>
     <g id="line2d_24">
      <g>
       <use style="stroke:#000000;stroke-width:0.8;" x="57.6" xlink:href="#mf8ea8ca410" y="245.22202"/>
      </g>
     </g>
     <g id="text_7">
      <!-- 0.2 -->
      <g transform="translate(25.155 251.30077)scale(0.16 -0.16)">
       <use xlink:href="#DejaVuSans-48"/>
       <use x="63.623047" xlink:href="#DejaVuSans-46"/>
       <use x="95.410156" xlink:href="#DejaVuSans-50"/>
      </g>
     </g>
    </g>
    <g id="ytick_3">
     <g id="line2d_25">
      <path clip-path="url(#pb73eed4b51)" d="M 57.6 191.50004 
L 338.688 191.50004 
" style="fill:none;stroke:#b0b0b0;stroke-linecap:square;stroke-width:0.8;"/>
     </g>
     <g id="line2d_26">
      <g>
       <use style="stroke:#000000;stroke-width:0.8;" x="57.6" xlink:href="#mf8ea8ca410" y="191.50004"/>
      </g>
     </g>
     <g id="text_8">
      <!-- 0.4 -->
      <g transform="translate(25.155 197.57879)scale(0.16 -0.16)">
       <use xlink:href="#DejaVuSans-48"/>
       <use x="63.623047" xlink:href="#DejaVuSans-46"/>
       <use x="95.410156" xlink:href="#DejaVuSans-52"/>
      </g>
     </g>
    </g>
    <g id="ytick_4">
     <g id="line2d_27">
      <path clip-path="url(#pb73eed4b51)" d="M 57.6 137.778059 
L 338.688 137.778059 
" style="fill:none;stroke:#b0b0b0;stroke-linecap:square;stroke-width:0.8;"/>
     </g>
     <g id="line2d_28">
      <g>
       <use style="stroke:#000000;stroke-width:0.8;" x="57.6" xlink:href="#mf8ea8ca410" y="137.778059"/>
      </g>
     </g>
     <g id="text_9">
      <!-- 0.6 -->
      <g transform="translate(25.155 143.856809)scale(0.16 -0.16)">
       <use xlink:href="#DejaVuSans-48"/>
       <use x="63.623047" xlink:href="#DejaVuSans-46"/>
       <use x="95.410156" xlink:href="#DejaVuSans-54"/>
      </g>
     </g>
    </g>
    <g id="ytick_5">
     <g id="line2d_29">
      <path clip-path="url(#pb73eed4b51)" d="M 57.6 84.056079 
L 338.688 84.056079 
" style="fill:none;stroke:#b0b0b0;stroke-linecap:square;stroke-width:0.8;"/>
     </g>
     <g id="line2d_30">
      <g>
       <use style="stroke:#000000;stroke-width:0.8;" x="57.6" xlink:href="#mf8ea8ca410" y="84.056079"/>
      </g>
     </g>
     <g id="text_10">
      <!-- 0.8 -->
      <g transform="translate(25.155 90.134829)scale(0.16 -0.16)">
       <defs>
        <path d="M 31.78125 34.625 
Q 24.75 34.625 20.71875 30.859375 
Q 16.703125 27.09375 16.703125 20.515625 
Q 16.703125 13.921875 20.71875 10.15625 
Q 24.75 6.390625 31.78125 6.390625 
Q 38.8125 6.390625 42.859375 10.171875 
Q 46.921875 13.96875 46.921875 20.515625 
Q 46.921875 27.09375 42.890625 30.859375 
Q 38.875 34.625 31.78125 34.625 
z
M 21.921875 38.8125 
Q 15.578125 40.375 12.03125 44.71875 
Q 8.5 49.078125 8.5 55.328125 
Q 8.5 64.0625 14.71875 69.140625 
Q 20.953125 74.21875 31.78125 74.21875 
Q 42.671875 74.21875 48.875 69.140625 
Q 55.078125 64.0625 55.078125 55.328125 
Q 55.078125 49.078125 51.53125 44.71875 
Q 48 40.375 41.703125 38.8125 
Q 48.828125 37.15625 52.796875 32.3125 
Q 56.78125 27.484375 56.78125 20.515625 
Q 56.78125 9.90625 50.3125 4.234375 
Q 43.84375 -1.421875 31.78125 -1.421875 
Q 19.734375 -1.421875 13.25 4.234375 
Q 6.78125 9.90625 6.78125 20.515625 
Q 6.78125 27.484375 10.78125 32.3125 
Q 14.796875 37.15625 21.921875 38.8125 
z
M 18.3125 54.390625 
Q 18.3125 48.734375 21.84375 45.5625 
Q 25.390625 42.390625 31.78125 42.390625 
Q 38.140625 42.390625 41.71875 45.5625 
Q 45.3125 48.734375 45.3125 54.390625 
Q 45.3125 60.0625 41.71875 63.234375 
Q 38.140625 66.40625 31.78125 66.40625 
Q 25.390625 66.40625 21.84375 63.234375 
Q 18.3125 60.0625 18.3125 54.390625 
z
" id="DejaVuSans-56"/>
       </defs>
       <use xlink:href="#DejaVuSans-48"/>
       <use x="63.623047" xlink:href="#DejaVuSans-46"/>
       <use x="95.410156" xlink:href="#DejaVuSans-56"/>
      </g>
     </g>
    </g>
    <g id="ytick_6">
     <g id="line2d_31">
      <path clip-path="url(#pb73eed4b51)" d="M 57.6 30.334099 
L 338.688 30.334099 
" style="fill:none;stroke:#b0b0b0;stroke-linecap:square;stroke-width:0.8;"/>
     </g>
     <g id="line2d_32">
      <g>
       <use style="stroke:#000000;stroke-width:0.8;" x="57.6" xlink:href="#mf8ea8ca410" y="30.334099"/>
      </g>
     </g>
     <g id="text_11">
      <!-- 1.0 -->
      <g transform="translate(25.155 36.412849)scale(0.16 -0.16)">
       <use xlink:href="#DejaVuSans-49"/>
       <use x="63.623047" xlink:href="#DejaVuSans-46"/>
       <use x="95.410156" xlink:href="#DejaVuSans-48"/>
      </g>
     </g>
    </g>
    <g id="text_12">
     <!-- Fraction of function,target pairs -->
     <g transform="translate(17.619531 297.681)rotate(-90)scale(0.17 -0.17)">
      <defs>
       <path d="M 9.8125 72.90625 
L 51.703125 72.90625 
L 51.703125 64.59375 
L 19.671875 64.59375 
L 19.671875 43.109375 
L 48.578125 43.109375 
L 48.578125 34.8125 
L 19.671875 34.8125 
L 19.671875 0 
L 9.8125 0 
z
" id="DejaVuSans-70"/>
       <path d="M 41.109375 46.296875 
Q 39.59375 47.171875 37.8125 47.578125 
Q 36.03125 48 33.890625 48 
Q 26.265625 48 22.1875 43.046875 
Q 18.109375 38.09375 18.109375 28.8125 
L 18.109375 0 
L 9.078125 0 
L 9.078125 54.6875 
L 18.109375 54.6875 
L 18.109375 46.1875 
Q 20.953125 51.171875 25.484375 53.578125 
Q 30.03125 56 36.53125 56 
Q 37.453125 56 38.578125 55.875 
Q 39.703125 55.765625 41.0625 55.515625 
z
" id="DejaVuSans-114"/>
       <path d="M 48.78125 52.59375 
L 48.78125 44.1875 
Q 44.96875 46.296875 41.140625 47.34375 
Q 37.3125 48.390625 33.40625 48.390625 
Q 24.65625 48.390625 19.8125 42.84375 
Q 14.984375 37.3125 14.984375 27.296875 
Q 14.984375 17.28125 19.8125 11.734375 
Q 24.65625 6.203125 33.40625 6.203125 
Q 37.3125 6.203125 41.140625 7.25 
Q 44.96875 8.296875 48.78125 10.40625 
L 48.78125 2.09375 
Q 45.015625 0.34375 40.984375 -0.53125 
Q 36.96875 -1.421875 32.421875 -1.421875 
Q 20.0625 -1.421875 12.78125 6.34375 
Q 5.515625 14.109375 5.515625 27.296875 
Q 5.515625 40.671875 12.859375 48.328125 
Q 20.21875 56 33.015625 56 
Q 37.15625 56 41.109375 55.140625 
Q 45.0625 54.296875 48.78125 52.59375 
z
" id="DejaVuSans-99"/>
       <path d="M 18.3125 70.21875 
L 18.3125 54.6875 
L 36.8125 54.6875 
L 36.8125 47.703125 
L 18.3125 47.703125 
L 18.3125 18.015625 
Q 18.3125 11.328125 20.140625 9.421875 
Q 21.96875 7.515625 27.59375 7.515625 
L 36.8125 7.515625 
L 36.8125 0 
L 27.59375 0 
Q 17.1875 0 13.234375 3.875 
Q 9.28125 7.765625 9.28125 18.015625 
L 9.28125 47.703125 
L 2.6875 47.703125 
L 2.6875 54.6875 
L 9.28125 54.6875 
L 9.28125 70.21875 
z
" id="DejaVuSans-116"/>
       <path d="M 8.5 21.578125 
L 8.5 54.6875 
L 17.484375 54.6875 
L 17.484375 21.921875 
Q 17.484375 14.15625 20.5 10.265625 
Q 23.53125 6.390625 29.59375 6.390625 
Q 36.859375 6.390625 41.078125 11.03125 
Q 45.3125 15.671875 45.3125 23.6875 
L 45.3125 54.6875 
L 54.296875 54.6875 
L 54.296875 0 
L 45.3125 0 
L 45.3125 8.40625 
Q 42.046875 3.421875 37.71875 1 
Q 33.40625 -1.421875 27.6875 -1.421875 
Q 18.265625 -1.421875 13.375 4.4375 
Q 8.5 10.296875 8.5 21.578125 
z
M 31.109375 56 
z
" id="DejaVuSans-117"/>
       <path d="M 11.71875 12.40625 
L 22.015625 12.40625 
L 22.015625 4 
L 14.015625 -11.625 
L 7.71875 -11.625 
L 11.71875 4 
z
" id="DejaVuSans-44"/>
       <path d="M 18.109375 8.203125 
L 18.109375 -20.796875 
L 9.078125 -20.796875 
L 9.078125 54.6875 
L 18.109375 54.6875 
L 18.109375 46.390625 
Q 20.953125 51.265625 25.265625 53.625 
Q 29.59375 56 35.59375 56 
Q 45.5625 56 51.78125 48.09375 
Q 58.015625 40.1875 58.015625 27.296875 
Q 58.015625 14.40625 51.78125 6.484375 
Q 45.5625 -1.421875 35.59375 -1.421875 
Q 29.59375 -1.421875 25.265625 0.953125 
Q 20.953125 3.328125 18.109375 8.203125 
z
M 48.6875 27.296875 
Q 48.6875 37.203125 44.609375 42.84375 
Q 40.53125 48.484375 33.40625 48.484375 
Q 26.265625 48.484375 22.1875 42.84375 
Q 18.109375 37.203125 18.109375 27.296875 
Q 18.109375 17.390625 22.1875 11.75 
Q 26.265625 6.109375 33.40625 6.109375 
Q 40.53125 6.109375 44.609375 11.75 
Q 48.6875 17.390625 48.6875 27.296875 
z
" id="DejaVuSans-112"/>
      </defs>
      <use xlink:href="#DejaVuSans-70"/>
      <use x="50.269531" xlink:href="#DejaVuSans-114"/>
      <use x="91.382812" xlink:href="#DejaVuSans-97"/>
      <use x="152.662109" xlink:href="#DejaVuSans-99"/>
      <use x="207.642578" xlink:href="#DejaVuSans-116"/>
      <use x="246.851562" xlink:href="#DejaVuSans-105"/>
      <use x="274.634766" xlink:href="#DejaVuSans-111"/>
      <use x="335.816406" xlink:href="#DejaVuSans-110"/>
      <use x="399.195312" xlink:href="#DejaVuSans-32"/>
      <use x="430.982422" xlink:href="#DejaVuSans-111"/>
      <use x="492.164062" xlink:href="#DejaVuSans-102"/>
      <use x="527.369141" xlink:href="#DejaVuSans-32"/>
      <use x="559.15625" xlink:href="#DejaVuSans-102"/>
      <use x="594.361328" xlink:href="#DejaVuSans-117"/>
      <use x="657.740234" xlink:href="#DejaVuSans-110"/>
      <use x="721.119141" xlink:href="#DejaVuSans-99"/>
      <use x="776.099609" xlink:href="#DejaVuSans-116"/>
      <use x="815.308594" xlink:href="#DejaVuSans-105"/>
      <use x="843.091797" xlink:href="#DejaVuSans-111"/>
      <use x="904.273438" xlink:href="#DejaVuSans-110"/>
      <use x="967.652344" xlink:href="#DejaVuSans-44"/>
      <use x="999.439453" xlink:href="#DejaVuSans-116"/>
      <use x="1038.648438" xlink:href="#DejaVuSans-97"/>
      <use x="1099.927734" xlink:href="#DejaVuSans-114"/>
      <use x="1139.291016" xlink:href="#DejaVuSans-103"/>
      <use x="1202.767578" xlink:href="#DejaVuSans-101"/>
      <use x="1264.291016" xlink:href="#DejaVuSans-116"/>
      <use x="1303.5" xlink:href="#DejaVuSans-32"/>
      <use x="1335.287109" xlink:href="#DejaVuSans-112"/>
      <use x="1398.763672" xlink:href="#DejaVuSans-97"/>
      <use x="1460.042969" xlink:href="#DejaVuSans-105"/>
      <use x="1487.826172" xlink:href="#DejaVuSans-114"/>
      <use x="1528.939453" xlink:href="#DejaVuSans-115"/>
     </g>
    </g>
   </g>
   <g id="line2d_33">
    <defs>
     <path d="M 0 1.5 
C 0.397805 1.5 0.77937 1.341951 1.06066 1.06066 
C 1.341951 0.77937 1.5 0.397805 1.5 0 
C 1.5 -0.397805 1.341951 -0.77937 1.06066 -1.06066 
C 0.77937 -1.341951 0.397805 -1.5 0 -1.5 
C -0.397805 -1.5 -0.77937 -1.341951 -1.06066 -1.06066 
C -1.341951 -0.77937 -1.5 -0.397805 -1.5 0 
C -1.5 0.397805 -1.341951 0.77937 -1.06066 1.06066 
C -0.77937 1.341951 -0.397805 1.5 0 1.5 
z
" id="m4e3e7ed75e" style="stroke:#f5deb3;"/>
    </defs>
    <g>
     <use style="fill:#f5deb3;stroke:#f5deb3;" x="243.967636" xlink:href="#m4e3e7ed75e" y="62.752535"/>
     <use style="fill:#f5deb3;stroke:#f5deb3;" x="243.967636" xlink:href="#m4e3e7ed75e" y="62.752535"/>
    </g>
   </g>
   <g id="line2d_34">
    <defs>
     <path d="M 0 1.5 
C 0.397805 1.5 0.77937 1.341951 1.06066 1.06066 
C 1.341951 0.77937 1.5 0.397805 1.5 0 
C 1.5 -0.397805 1.341951 -0.77937 1.06066 -1.06066 
C 0.77937 -1.341951 0.397805 -1.5 0 -1.5 
C -0.397805 -1.5 -0.77937 -1.341951 -1.06066 -1.06066 
C -1.341951 -0.77937 -1.5 -0.397805 -1.5 0 
C -1.5 0.397805 -1.341951 0.77937 -1.06066 1.06066 
C -0.77937 1.341951 -0.397805 1.5 0 1.5 
z
" id="m7b214f9d0f" style="stroke:#000080;"/>
    </defs>
    <g>
     <use style="fill:#000080;stroke:#000080;" x="257.037711" xlink:href="#m7b214f9d0f" y="78.035512"/>
     <use style="fill:#000080;stroke:#000080;" x="257.037711" xlink:href="#m7b214f9d0f" y="78.035512"/>
    </g>
   </g>
   <g id="line2d_35">
    <path d="M 45.512012 298.944 
L 45.512012 282.734782 
L 57.6 282.734782 
L 57.6 278.103577 
L 64.67102 278.103577 
L 64.67102 277.177336 
L 69.687988 277.177336 
L 69.687988 275.787974 
L 73.579452 275.787974 
L 73.579452 274.861733 
L 76.759008 274.861733 
L 76.759008 274.398612 
L 79.447285 274.398612 
L 79.447285 273.472371 
L 81.775977 273.472371 
L 81.775977 270.230528 
L 83.830028 270.230528 
L 83.830028 261.431238 
L 85.66744 261.431238 
L 85.66744 260.504997 
L 87.329581 260.504997 
L 87.329581 259.115635 
L 88.846997 259.115635 
L 88.846997 258.652515 
L 92.73846 258.652515 
L 92.73846 257.263153 
L 94.921215 257.263153 
L 94.921215 255.873792 
L 96.86091 255.873792 
L 96.86091 254.947551 
L 97.755429 254.947551 
L 97.755429 254.48443 
L 98.606294 254.48443 
L 98.606294 252.631948 
L 99.41757 252.631948 
L 99.41757 251.705707 
L 102.330873 251.705707 
L 102.330873 251.242587 
L 103.623262 251.242587 
L 103.623262 250.779466 
L 104.826449 250.779466 
L 104.826449 248.463863 
L 107.009204 248.463863 
L 107.009204 247.537622 
L 107.514726 247.537622 
L 107.514726 247.074502 
L 108.006005 247.074502 
L 108.006005 244.758899 
L 108.483824 244.758899 
L 108.483824 244.295779 
L 108.948899 244.295779 
L 108.948899 243.369538 
L 109.843417 243.369538 
L 109.843417 241.980176 
L 111.104637 241.980176 
L 111.104637 241.517056 
L 111.505558 241.517056 
L 111.505558 241.053935 
L 111.897469 241.053935 
L 111.897469 240.127694 
L 112.280765 240.127694 
L 112.280765 239.664574 
L 114.751048 239.664574 
L 114.751048 238.738333 
L 115.077025 238.738333 
L 115.077025 236.88585 
L 116.019919 236.88585 
L 116.019919 235.959609 
L 116.323218 235.959609 
L 116.323218 235.496489 
L 118.310324 235.496489 
L 118.310324 235.033368 
L 118.576578 235.033368 
L 118.576578 234.107127 
L 121.489881 234.107127 
L 121.489881 233.180886 
L 122.988655 233.180886 
L 122.988655 232.717766 
L 124.92835 232.717766 
L 124.92835 232.254645 
L 126.839037 232.254645 
L 126.839037 231.328404 
L 127.48501 231.328404 
L 127.48501 229.939043 
L 127.799239 229.939043 
L 127.799239 229.012802 
L 128.260216 229.012802 
L 128.260216 228.549681 
L 130.531948 228.549681 
L 130.531948 227.62344 
L 132.181982 227.62344 
L 132.181982 227.16032 
L 133.239232 227.16032 
L 133.239232 226.234079 
L 134.973757 226.234079 
L 134.973757 225.770958 
L 137.198951 225.770958 
L 137.289545 222.992235 
L 137.735587 222.992235 
L 137.735587 222.065994 
L 139.253002 222.065994 
L 139.253002 221.602873 
L 140.11924 221.602873 
L 140.11924 220.676632 
L 140.64889 220.676632 
L 140.64889 219.750391 
L 140.871049 219.750391 
L 140.871049 219.287271 
L 141.307054 219.287271 
L 141.307054 218.36103 
L 142.147664 218.36103 
L 142.147664 217.434789 
L 143.079756 217.434789 
L 143.079756 216.508548 
L 143.208936 216.508548 
L 143.208936 216.045427 
L 144.148442 216.045427 
L 144.148442 215.582307 
L 144.629556 215.582307 
L 144.629556 214.656066 
L 144.747789 214.656066 
L 144.806606 213.729825 
L 145.212864 213.729825 
L 145.212864 213.266704 
L 148.209809 213.266704 
L 148.209809 212.803583 
L 149.779481 212.803583 
L 149.779481 212.340463 
L 150.640855 212.340463 
L 150.640855 211.414222 
L 151.381313 211.414222 
L 151.381313 210.487981 
L 151.779487 210.487981 
L 151.779487 210.02486 
L 154.57429 210.02486 
L 154.607795 208.635499 
L 157.528821 208.635499 
L 157.528821 207.709258 
L 158.031107 207.709258 
L 158.031107 207.246137 
L 158.222599 207.246137 
L 158.222599 206.783017 
L 159.683242 206.783017 
L 159.683242 206.319896 
L 161.488097 206.319896 
L 161.488097 205.856776 
L 161.64531 205.856776 
L 161.64531 204.930535 
L 162.410793 204.930535 
L 162.410793 204.467414 
L 162.812686 204.467414 
L 162.812686 203.541173 
L 163.428979 203.541173 
L 163.428979 202.614932 
L 163.569701 202.614932 
L 163.569701 201.688691 
L 163.847782 201.688691 
L 163.887148 199.836209 
L 164.390984 199.836209 
L 164.390984 199.373088 
L 165.211808 199.373088 
L 165.211808 198.446847 
L 165.661531 198.446847 
L 165.661531 197.983727 
L 167.449146 197.983727 
L 167.449146 197.520606 
L 168.125111 197.520606 
L 168.125111 197.057486 
L 168.476198 197.057486 
L 168.476198 196.131245 
L 168.641643 196.131245 
L 168.641643 195.668124 
L 169.055827 195.668124 
L 169.143315 194.278763 
L 170.486538 194.278763 
L 170.540321 193.352522 
L 171.289242 193.352522 
L 171.289242 192.889401 
L 172.373705 192.889401 
L 172.373705 192.426281 
L 173.222844 192.426281 
L 173.303236 191.036919 
L 174.16392 191.036919 
L 174.16392 190.573799 
L 174.294307 190.573799 
L 174.294307 189.647558 
L 175.098201 189.647558 
L 175.098201 187.795075 
L 176.55521 187.795075 
L 176.55521 187.331955 
L 176.875552 187.331955 
L 176.875552 186.868834 
L 177.36346 186.868834 
L 177.36346 185.942593 
L 177.731751 185.942593 
L 177.731751 185.479473 
L 178.231177 185.479473 
L 178.231177 185.016352 
L 178.775401 185.016352 
L 178.775401 184.553232 
L 179.123536 184.553232 
L 179.123536 184.090111 
L 179.799624 184.090111 
L 179.862667 181.774509 
L 180.684666 181.774509 
L 180.684666 180.848268 
L 181.158427 180.848268 
L 181.158427 180.385147 
L 181.32559 180.385147 
L 181.32559 179.922027 
L 181.47683 179.922027 
L 181.47683 178.995786 
L 181.591186 178.995786 
L 181.591186 178.069545 
L 182.186441 178.069545 
L 182.186441 177.606424 
L 182.43255 177.606424 
L 182.43255 177.143304 
L 182.980496 177.143304 
L 182.980496 176.217062 
L 184.126136 176.217062 
L 184.193766 175.290821 
L 184.606119 175.290821 
L 184.606119 174.36458 
L 185.084909 174.36458 
L 185.108216 173.438339 
L 185.414125 173.438339 
L 185.482649 172.048978 
L 185.697882 172.048978 
L 185.793317 170.659616 
L 185.954922 170.659616 
L 185.954922 170.196496 
L 186.104047 170.196496 
L 186.104047 169.733375 
L 186.300918 169.733375 
L 186.300918 168.807134 
L 186.457908 168.807134 
L 186.457908 168.344014 
L 186.788874 168.344014 
L 186.788874 167.880893 
L 187.113676 167.880893 
L 187.113676 167.417773 
L 188.048373 167.417773 
L 188.102403 166.028411 
L 188.389375 166.028411 
L 188.389375 165.10217 
L 189.149264 165.10217 
L 189.149264 164.63905 
L 189.469596 164.63905 
L 189.569068 163.712808 
L 189.645546 163.712808 
L 189.645546 163.249688 
L 190.418216 163.249688 
L 190.418216 162.786567 
L 190.546572 162.786567 
L 190.546572 162.323447 
L 191.334192 162.323447 
L 191.334192 161.860326 
L 191.875766 161.860326 
L 191.875766 161.397206 
L 192.056526 161.397206 
L 192.056526 160.934085 
L 192.60678 160.934085 
L 192.60678 160.470965 
L 192.86247 160.470965 
L 192.86247 160.007844 
L 193.471348 160.007844 
L 193.471348 159.544724 
L 193.760908 159.544724 
L 193.760908 159.081603 
L 194.219264 159.081603 
L 194.219264 158.155362 
L 194.605188 158.155362 
L 194.605188 157.692242 
L 194.83004 157.692242 
L 194.83004 156.766001 
L 195.510174 156.766001 
L 195.510174 156.30288 
L 195.755375 156.30288 
L 195.768019 155.376639 
L 195.987819 155.376639 
L 195.987819 154.913519 
L 196.694107 154.913519 
L 196.694107 154.450398 
L 197.239821 154.450398 
L 197.34117 153.061037 
L 197.507835 153.061037 
L 197.507835 152.597916 
L 197.928828 152.597916 
L 197.967867 151.208554 
L 198.288014 151.208554 
L 198.391625 149.819193 
L 198.855699 149.819193 
L 198.855699 148.892952 
L 199.15489 148.892952 
L 199.15489 147.966711 
L 199.333517 147.966711 
L 199.333517 147.04047 
L 199.461823 147.04047 
L 199.461823 146.577349 
L 199.670223 146.577349 
L 199.670223 146.114229 
L 200.173218 146.114229 
L 200.249142 145.187988 
L 200.290638 145.187988 
L 200.290638 144.261747 
L 200.503876 144.261747 
L 200.503876 143.798626 
L 200.769181 143.798626 
L 200.769181 143.335506 
L 201.38442 143.335506 
L 201.38442 142.872385 
L 201.550781 142.872385 
L 201.550781 142.409265 
L 202.066992 142.409265 
L 202.066992 141.483024 
L 202.38987 141.483024 
L 202.38987 141.019903 
L 202.512645 141.019903 
L 202.55766 139.630541 
L 202.819015 139.630541 
L 202.840093 138.7043 
L 202.993189 138.7043 
L 202.993189 138.24118 
L 203.299513 138.24118 
L 203.301564 137.314939 
L 204.167955 137.314939 
L 204.167955 136.851818 
L 204.335025 136.851818 
L 204.406415 135.925577 
L 204.830601 135.925577 
L 204.830601 135.462457 
L 205.246549 135.462457 
L 205.246549 134.999336 
L 206.329685 134.999336 
L 206.329685 134.536216 
L 206.593247 134.536216 
L 206.593247 133.609975 
L 206.735347 133.609975 
L 206.735347 133.146854 
L 206.961323 133.146854 
L 206.961323 132.220613 
L 207.112013 132.220613 
L 207.112013 131.757493 
L 207.381963 131.757493 
L 207.381963 131.294372 
L 207.830711 131.294372 
L 207.830711 130.831252 
L 207.986651 130.831252 
L 207.986651 130.368131 
L 208.746102 130.368131 
L 208.773104 128.97877 
L 209.058562 128.97877 
L 209.058562 128.515649 
L 209.58438 128.515649 
L 209.657201 126.200046 
L 209.848509 126.200046 
L 209.864005 124.810685 
L 210.146146 124.810685 
L 210.146146 123.884444 
L 210.792144 123.884444 
L 210.792144 122.958203 
L 211.255884 122.958203 
L 211.311698 122.031962 
L 211.804886 122.031962 
L 211.804886 121.105721 
L 211.986605 121.105721 
L 211.986605 120.17948 
L 212.100929 120.17948 
L 212.100929 119.253239 
L 212.793007 119.253239 
L 212.801337 118.326998 
L 213.062326 118.326998 
L 213.062326 117.863877 
L 213.507865 117.863877 
L 213.507865 117.400757 
L 213.883136 117.400757 
L 213.918884 116.011395 
L 214.163786 116.011395 
L 214.163786 115.085154 
L 214.398784 115.085154 
L 214.398784 114.622033 
L 214.834091 114.622033 
L 214.834091 113.695792 
L 214.986962 113.695792 
L 214.986962 113.232672 
L 215.104131 113.232672 
L 215.160343 112.306431 
L 216.055693 112.306431 
L 216.090213 110.917069 
L 216.497291 110.917069 
L 216.603813 109.990828 
L 216.633446 109.990828 
L 216.657308 109.064587 
L 216.924226 109.064587 
L 216.924226 108.601467 
L 217.121303 108.601467 
L 217.121303 108.138346 
L 217.585034 108.138346 
L 217.585034 107.212105 
L 217.709395 107.212105 
L 217.709395 106.285864 
L 218.037634 106.285864 
L 218.037634 105.822744 
L 218.2435 105.822744 
L 218.2435 105.359623 
L 218.426293 105.359623 
L 218.426293 104.433382 
L 219.237882 104.433382 
L 219.237882 103.970262 
L 219.666096 103.970262 
L 219.714189 103.04402 
L 220.393182 103.04402 
L 220.393182 102.5809 
L 220.557162 102.5809 
L 220.573933 101.654659 
L 221.188527 101.654659 
L 221.188527 100.728418 
L 221.301437 100.728418 
L 221.301437 100.265297 
L 221.478125 100.265297 
L 221.527971 98.875936 
L 221.608579 98.875936 
L 221.608579 98.412815 
L 222.258364 98.412815 
L 222.258364 97.949695 
L 222.828655 97.949695 
L 222.920806 96.560333 
L 223.02307 96.560333 
L 223.02307 96.097213 
L 223.145132 96.097213 
L 223.145132 95.634092 
L 223.422998 95.634092 
L 223.503698 94.244731 
L 225.833033 94.244731 
L 225.833033 93.31849 
L 227.358666 93.31849 
L 227.458041 91.466008 
L 228.936907 91.466008 
L 228.936907 90.539766 
L 230.951292 90.539766 
L 230.951292 89.613525 
L 231.788965 89.613525 
L 231.827773 87.761043 
L 233.570092 87.761043 
L 233.570092 87.297923 
L 235.980233 87.297923 
L 235.980233 86.371682 
L 236.280931 86.371682 
L 236.280931 85.908561 
L 240.669899 85.908561 
L 240.669899 84.98232 
L 241.311902 84.98232 
L 241.311902 84.056079 
L 242.492694 84.056079 
L 242.492694 83.592959 
L 244.069738 83.592959 
L 244.069738 83.129838 
L 246.267516 83.129838 
L 246.267516 82.203597 
L 247.705099 82.203597 
L 247.705099 81.277356 
L 250.287437 81.277356 
L 250.287437 80.814236 
L 250.823635 80.814236 
L 250.823635 80.351115 
L 254.663522 80.351115 
L 254.663522 79.424874 
L 255.517778 79.424874 
L 255.517778 78.961753 
L 256.763355 78.961753 
L 256.763355 78.498633 
L 257.037711 78.498633 
L 257.037711 78.035512 
L 338.688 78.035512 
L 338.688 78.035512 
" style="fill:none;stroke:#000080;stroke-linecap:square;stroke-width:1.5;"/>
   </g>
   <g id="line2d_36">
    <defs>
     <path d="M 0 6 
C 1.591219 6 3.117479 5.367802 4.242641 4.242641 
C 5.367802 3.117479 6 1.591219 6 0 
C 6 -1.591219 5.367802 -3.117479 4.242641 -4.242641 
C 3.117479 -5.367802 1.591219 -6 0 -6 
C -1.591219 -6 -3.117479 -5.367802 -4.242641 -4.242641 
C -5.367802 -3.117479 -6 -1.591219 -6 0 
C -6 1.591219 -5.367802 3.117479 -4.242641 4.242641 
C -3.117479 5.367802 -1.591219 6 0 6 
z
" id="m15ef7bcee8" style="stroke:#000080;stroke-width:1.5;"/>
    </defs>
    <g>
     <use style="fill-opacity:0;stroke:#000080;stroke-width:1.5;" x="99.41757" xlink:href="#m15ef7bcee8" y="251.705707"/>
     <use style="fill-opacity:0;stroke:#000080;stroke-width:1.5;" x="161.64531" xlink:href="#m15ef7bcee8" y="205.856776"/>
     <use style="fill-opacity:0;stroke:#000080;stroke-width:1.5;" x="200.290638" xlink:href="#m15ef7bcee8" y="144.261747"/>
     <use style="fill-opacity:0;stroke:#000080;stroke-width:1.5;" x="257.037711" xlink:href="#m15ef7bcee8" y="78.498633"/>
     <use style="fill-opacity:0;stroke:#000080;stroke-width:1.5;" x="257.037711" xlink:href="#m15ef7bcee8" y="78.035512"/>
     <use style="fill-opacity:0;stroke:#000080;stroke-width:1.5;" x="338.688" xlink:href="#m15ef7bcee8" y="78.035512"/>
    </g>
   </g>
   <g id="line2d_37">
    <path style="fill:none;stroke:#000080;stroke-linecap:square;stroke-width:1.5;"/>
    <g/>
   </g>
   <g id="line2d_38">
    <path clip-path="url(#pb73eed4b51)" d="M 258.377579 78.035512 
" style="fill:none;stroke:#000080;stroke-linecap:square;stroke-width:1.5;"/>
    <defs>
     <path d="M -12 12 
L 12 -12 
M -12 -12 
L 12 12 
" id="m718fa2e4aa" style="stroke:#000080;"/>
    </defs>
    <g clip-path="url(#pb73eed4b51)">
     <use style="fill:#000080;stroke:#000080;" x="258.377579" xlink:href="#m718fa2e4aa" y="78.035512"/>
    </g>
   </g>
   <g id="line2d_39">
    <defs>
     <path d="M 0 1.5 
C 0.397805 1.5 0.77937 1.341951 1.06066 1.06066 
C 1.341951 0.77937 1.5 0.397805 1.5 0 
C 1.5 -0.397805 1.341951 -0.77937 1.06066 -1.06066 
C 0.77937 -1.341951 0.397805 -1.5 0 -1.5 
C -0.397805 -1.5 -0.77937 -1.341951 -1.06066 -1.06066 
C -1.341951 -0.77937 -1.5 -0.397805 -1.5 0 
C -1.5 0.397805 -1.341951 0.77937 -1.06066 1.06066 
C -0.77937 1.341951 -0.397805 1.5 0 1.5 
z
" id="mb4794d4016" style="stroke:#ff00ff;"/>
    </defs>
    <g>
     <use style="fill:#ff00ff;stroke:#ff00ff;" x="258.166606" xlink:href="#mb4794d4016" y="100.265297"/>
     <use style="fill:#ff00ff;stroke:#ff00ff;" x="258.166606" xlink:href="#mb4794d4016" y="100.265297"/>
    </g>
   </g>
   <g id="line2d_40">
    <path d="M 45.512012 298.944 
L 45.512012 285.976625 
L 81.775977 285.976625 
L 81.775977 285.513505 
L 102.989037 285.513505 
L 102.989037 285.050384 
L 116.621333 285.050384 
L 116.621333 282.271661 
L 118.576578 282.271661 
L 118.576578 279.956059 
L 121.712041 279.956059 
L 121.712041 279.492938 
L 132.422528 279.492938 
L 132.422528 278.566697 
L 138.170504 278.566697 
L 138.170504 275.787974 
L 138.761723 275.787974 
L 138.761723 275.324854 
L 139.493548 275.324854 
L 139.493548 273.935492 
L 141.521035 273.935492 
L 141.521035 273.472371 
L 141.80232 273.472371 
L 141.80232 272.54613 
L 141.941279 272.54613 
L 141.941279 270.230528 
L 143.079756 270.230528 
L 143.079756 269.304287 
L 143.902815 269.304287 
L 143.902815 268.841166 
L 144.45069 268.841166 
L 144.45069 266.062443 
L 145.270136 266.062443 
L 145.270136 264.209961 
L 145.384119 264.209961 
L 145.384119 263.746841 
L 146.107383 263.746841 
L 146.161795 260.968117 
L 146.696785 260.968117 
L 146.696785 260.041876 
L 146.854132 260.041876 
L 146.854132 259.115635 
L 147.4697 259.115635 
L 147.4697 258.189394 
L 147.71991 258.189394 
L 147.71991 257.263153 
L 148.258051 257.263153 
L 148.354135 255.410671 
L 148.686322 255.410671 
L 148.686322 254.947551 
L 150.429467 254.947551 
L 150.429467 254.48443 
L 150.598782 254.48443 
L 150.598782 253.095069 
L 151.178764 253.095069 
L 151.178764 252.168828 
L 151.421542 252.168828 
L 151.501723 249.390104 
L 151.581536 249.390104 
L 151.581536 248.926984 
L 151.818809 248.926984 
L 151.818809 247.537622 
L 152.130233 247.537622 
L 152.168773 246.148261 
L 152.322086 246.148261 
L 152.322086 245.68514 
L 152.436193 245.68514 
L 152.436193 244.295779 
L 152.922207 244.295779 
L 152.922207 242.906417 
L 153.430889 242.906417 
L 153.430889 241.980176 
L 154.063835 241.980176 
L 154.063835 241.053935 
L 154.235652 241.053935 
L 154.235652 240.127694 
L 154.405793 240.127694 
L 154.507086 238.738333 
L 154.873541 238.738333 
L 154.873541 237.812091 
L 155.361158 237.812091 
L 155.361158 237.348971 
L 155.86668 237.348971 
L 155.959855 235.959609 
L 156.357959 235.959609 
L 156.357959 235.033368 
L 156.658127 235.033368 
L 156.658127 234.107127 
L 156.806295 234.107127 
L 156.806295 232.717766 
L 157.011638 232.717766 
L 157.011638 232.254645 
L 157.1279 232.254645 
L 157.185742 229.012802 
L 157.272146 229.012802 
L 157.272146 228.086561 
L 157.38669 228.086561 
L 157.415209 226.697199 
L 157.500487 226.697199 
L 157.528821 224.844717 
L 157.837488 224.844717 
L 157.920731 223.455355 
L 157.976006 223.455355 
L 158.058592 220.676632 
L 158.51933 220.676632 
L 158.51933 219.750391 
L 158.75841 219.750391 
L 158.75841 219.287271 
L 159.32939 219.287271 
L 159.380382 217.897909 
L 159.882266 217.897909 
L 159.980933 215.582307 
L 160.005512 215.582307 
L 160.054568 214.192945 
L 160.225184 214.192945 
L 160.297798 212.803583 
L 160.394148 212.803583 
L 160.418152 211.414222 
L 160.609008 211.414222 
L 160.609008 210.951101 
L 161.007772 210.951101 
L 161.007772 210.487981 
L 161.465522 210.487981 
L 161.53316 209.56174 
L 161.667653 209.56174 
L 161.667653 209.098619 
L 161.801118 209.098619 
L 161.801118 208.635499 
L 162.346481 208.635499 
L 162.432178 206.319896 
L 162.496175 206.319896 
L 162.602318 205.393655 
L 162.62347 205.393655 
L 162.62347 204.467414 
L 162.770815 204.467414 
L 162.833584 203.078053 
L 162.916926 203.078053 
L 162.916926 202.614932 
L 163.164589 202.614932 
L 163.164589 201.688691 
L 163.287113 201.688691 
L 163.287113 200.76245 
L 163.408783 200.76245 
L 163.469301 199.373088 
L 163.669525 199.373088 
L 163.768781 197.983727 
L 164.410075 197.983727 
L 164.410075 197.520606 
L 164.86209 197.520606 
L 164.86209 197.057486 
L 164.973287 197.057486 
L 164.973287 196.594365 
L 165.120455 196.594365 
L 165.175324 195.668124 
L 165.248216 195.668124 
L 165.248216 194.278763 
L 165.643763 194.278763 
L 165.643763 192.889401 
L 165.76776 192.889401 
L 165.785402 191.50004 
L 166.795913 191.50004 
L 166.895472 188.258196 
L 166.928532 188.258196 
L 166.96153 186.405714 
L 167.125588 186.405714 
L 167.190782 185.016352 
L 167.560988 185.016352 
L 167.592812 183.626991 
L 167.687935 183.626991 
L 167.687935 182.70075 
L 167.860992 182.70075 
L 167.860992 181.774509 
L 168.047843 181.774509 
L 168.063324 180.848268 
L 168.263336 180.848268 
L 168.263336 180.385147 
L 168.805533 180.385147 
L 168.805533 179.922027 
L 168.9532 179.922027 
L 169.011918 178.532665 
L 169.143315 178.532665 
L 169.143315 178.069545 
L 169.488944 178.069545 
L 169.488944 177.606424 
L 169.911564 177.606424 
L 169.911564 177.143304 
L 170.036379 177.143304 
L 170.036379 176.680183 
L 170.740545 176.680183 
L 170.833202 175.753942 
L 171.030109 175.753942 
L 171.134225 174.827701 
L 171.49381 174.827701 
L 171.595202 172.975219 
L 171.970255 172.975219 
L 171.970255 172.512098 
L 172.093501 172.512098 
L 172.179258 171.585857 
L 172.301041 171.585857 
L 172.301041 170.659616 
L 172.779844 170.659616 
L 172.83878 169.733375 
L 173.474266 169.733375 
L 173.530906 168.344014 
L 173.722116 168.344014 
L 173.722116 167.880893 
L 174.196608 167.880893 
L 174.196608 167.417773 
L 174.520166 167.417773 
L 174.520166 166.028411 
L 174.827334 166.028411 
L 174.827334 165.565291 
L 175.067161 165.565291 
L 175.067161 164.63905 
L 175.486665 164.63905 
L 175.486665 164.175929 
L 175.637655 164.175929 
L 175.637655 163.249688 
L 176.431155 163.249688 
L 176.431155 162.786567 
L 176.763161 162.786567 
L 176.763161 162.323447 
L 177.327109 162.323447 
L 177.399735 161.397206 
L 177.490094 161.397206 
L 177.490094 160.934085 
L 178.179274 160.934085 
L 178.179274 160.470965 
L 178.666222 160.470965 
L 178.666222 159.544724 
L 179.585155 159.544724 
L 179.664896 158.618483 
L 179.988073 158.618483 
L 179.988073 158.155362 
L 180.397157 158.155362 
L 180.397157 157.692242 
L 181.209473 157.692242 
L 181.209473 156.766001 
L 181.34005 156.766001 
L 181.419369 155.376639 
L 181.626769 155.376639 
L 181.648084 153.987278 
L 182.165775 153.987278 
L 182.165775 153.061037 
L 183.569083 153.061037 
L 183.569083 152.597916 
L 184.297772 152.597916 
L 184.297772 152.134795 
L 185.32234 152.134795 
L 185.32234 151.208554 
L 186.634849 151.208554 
L 186.634849 150.745434 
L 186.873275 150.745434 
L 186.873275 150.282313 
L 187.232646 150.282313 
L 187.232646 149.819193 
L 187.69053 149.819193 
L 187.69053 148.892952 
L 188.244047 148.892952 
L 188.244047 148.429831 
L 188.771098 148.429831 
L 188.771098 147.966711 
L 189.730627 147.966711 
L 189.730627 147.50359 
L 192.584038 147.50359 
L 192.584038 147.04047 
L 192.910928 147.04047 
L 192.910928 146.577349 
L 195.042151 146.577349 
L 195.042151 145.651108 
L 195.609306 145.651108 
L 195.669787 144.724867 
L 196.561763 144.724867 
L 196.561763 143.798626 
L 198.200283 143.798626 
L 198.200283 142.872385 
L 201.035183 142.872385 
L 201.035183 142.409265 
L 201.153921 142.409265 
L 201.153921 141.946144 
L 202.837986 141.946144 
L 202.837986 141.019903 
L 203.140813 141.019903 
L 203.140813 140.556783 
L 204.247804 140.556783 
L 204.247804 140.093662 
L 204.477513 140.093662 
L 204.477513 139.630541 
L 206.799252 139.630541 
L 206.799252 138.7043 
L 207.575699 138.7043 
L 207.575699 138.24118 
L 208.265113 138.24118 
L 208.265113 137.778059 
L 210.66081 137.778059 
L 210.66081 136.851818 
L 211.41893 136.851818 
L 211.41893 136.388698 
L 212.83937 136.388698 
L 212.902181 135.462457 
L 212.997738 135.462457 
L 212.997738 134.999336 
L 213.258144 134.999336 
L 213.258144 134.536216 
L 213.462101 134.536216 
L 213.462101 134.073095 
L 215.556964 134.073095 
L 215.556964 133.609975 
L 216.175727 133.609975 
L 216.175727 133.146854 
L 216.34065 133.146854 
L 216.34065 132.683734 
L 216.81965 132.683734 
L 216.81965 131.757493 
L 217.393157 131.757493 
L 217.393157 131.294372 
L 217.693224 131.294372 
L 217.693224 130.831252 
L 218.035871 130.831252 
L 218.122903 128.97877 
L 218.959272 128.97877 
L 218.959272 128.515649 
L 219.10991 128.515649 
L 219.10991 128.052529 
L 219.635568 128.052529 
L 219.635568 127.589408 
L 220.535794 127.589408 
L 220.535794 127.126287 
L 222.021555 127.126287 
L 222.021555 126.200046 
L 225.289246 126.200046 
L 225.289246 125.736926 
L 225.466836 125.736926 
L 225.466836 125.273805 
L 227.209835 125.273805 
L 227.209835 124.347564 
L 227.993961 124.347564 
L 227.993961 123.421323 
L 230.613108 123.421323 
L 230.613108 122.958203 
L 231.846545 122.958203 
L 231.949634 122.031962 
L 233.001841 122.031962 
L 233.001841 121.105721 
L 234.085334 121.105721 
L 234.103231 120.17948 
L 234.214415 120.17948 
L 234.214415 119.253239 
L 237.657829 119.253239 
L 237.657829 118.326998 
L 237.860615 118.326998 
L 237.860615 117.400757 
L 238.055758 117.400757 
L 238.055758 116.937636 
L 239.116692 116.937636 
L 239.116692 116.474516 
L 241.183135 116.474516 
L 241.183135 116.011395 
L 241.738387 116.011395 
L 241.738387 115.085154 
L 242.293618 115.085154 
L 242.293618 114.158913 
L 242.645951 114.158913 
L 242.645951 113.695792 
L 242.919312 113.695792 
L 242.919312 113.232672 
L 245.20768 113.232672 
L 245.20768 112.769551 
L 245.379026 112.769551 
L 245.379026 111.84331 
L 245.866758 111.84331 
L 245.866758 111.38019 
L 246.427421 111.38019 
L 246.427421 110.453949 
L 246.727941 110.453949 
L 246.821223 109.064587 
L 247.404248 109.064587 
L 247.404248 108.601467 
L 247.7709 108.601467 
L 247.82927 107.212105 
L 250.382852 107.212105 
L 250.382852 106.285864 
L 250.540454 106.285864 
L 250.540454 105.822744 
L 250.822963 105.822744 
L 250.822963 105.359623 
L 250.952379 105.359623 
L 250.952379 104.896503 
L 251.624774 104.896503 
L 251.624774 103.970262 
L 251.915787 103.970262 
L 251.915787 103.507141 
L 253.928855 103.507141 
L 253.928855 103.04402 
L 254.250524 103.04402 
L 254.250524 102.117779 
L 255.157919 102.117779 
L 255.157919 101.654659 
L 256.59651 101.654659 
L 256.59651 101.191538 
L 257.25387 101.191538 
L 257.25387 100.728418 
L 258.166606 100.728418 
L 258.166606 100.265297 
L 338.688 100.265297 
L 338.688 100.265297 
" style="fill:none;stroke:#ff00ff;stroke-linecap:square;stroke-width:1.5;"/>
   </g>
   <g id="line2d_41">
    <defs>
     <path d="M 0 8.485281 
L 5.091169 0 
L 0 -8.485281 
L -5.091169 0 
z
" id="m144fc58d6a" style="stroke:#ff00ff;stroke-linejoin:miter;stroke-width:1.5;"/>
    </defs>
    <g>
     <use style="fill-opacity:0;stroke:#ff00ff;stroke-linejoin:miter;stroke-width:1.5;" x="102.989037" xlink:href="#m144fc58d6a" y="285.513505"/>
     <use style="fill-opacity:0;stroke:#ff00ff;stroke-linejoin:miter;stroke-width:1.5;" x="163.164589" xlink:href="#m144fc58d6a" y="202.614932"/>
     <use style="fill-opacity:0;stroke:#ff00ff;stroke-linejoin:miter;stroke-width:1.5;" x="225.466836" xlink:href="#m144fc58d6a" y="125.273805"/>
     <use style="fill-opacity:0;stroke:#ff00ff;stroke-linejoin:miter;stroke-width:1.5;" x="258.166606" xlink:href="#m144fc58d6a" y="100.728418"/>
     <use style="fill-opacity:0;stroke:#ff00ff;stroke-linejoin:miter;stroke-width:1.5;" x="258.166606" xlink:href="#m144fc58d6a" y="100.265297"/>
     <use style="fill-opacity:0;stroke:#ff00ff;stroke-linejoin:miter;stroke-width:1.5;" x="338.688" xlink:href="#m144fc58d6a" y="100.265297"/>
    </g>
   </g>
   <g id="line2d_42">
    <path style="fill:none;stroke:#ff00ff;stroke-linecap:square;stroke-width:1.5;"/>
    <g/>
   </g>
   <g id="line2d_43">
    <path clip-path="url(#pb73eed4b51)" d="M 258.386906 100.265297 
" style="fill:none;stroke:#ff00ff;stroke-linecap:square;stroke-width:1.5;"/>
    <defs>
     <path d="M -12 12 
L 12 -12 
M -12 -12 
L 12 12 
" id="m15f53e71d6" style="stroke:#ff00ff;"/>
    </defs>
    <g clip-path="url(#pb73eed4b51)">
     <use style="fill:#ff00ff;stroke:#ff00ff;" x="258.386906" xlink:href="#m15f53e71d6" y="100.265297"/>
    </g>
   </g>
   <g id="line2d_44">
    <defs>
     <path d="M 0 1.5 
C 0.397805 1.5 0.77937 1.341951 1.06066 1.06066 
C 1.341951 0.77937 1.5 0.397805 1.5 0 
C 1.5 -0.397805 1.341951 -0.77937 1.06066 -1.06066 
C 0.77937 -1.341951 0.397805 -1.5 0 -1.5 
C -0.397805 -1.5 -0.77937 -1.341951 -1.06066 -1.06066 
C -1.341951 -0.77937 -1.5 -0.397805 -1.5 0 
C -1.5 0.397805 -1.341951 0.77937 -1.06066 1.06066 
C -0.77937 1.341951 -0.397805 1.5 0 1.5 
z
" id="m0a406bcf76" style="stroke:#ff7500;"/>
    </defs>
    <g>
     <use style="fill:#ff7500;stroke:#ff7500;" x="255.041541" xlink:href="#m0a406bcf76" y="152.134795"/>
     <use style="fill:#ff7500;stroke:#ff7500;" x="255.041541" xlink:href="#m0a406bcf76" y="152.134795"/>
    </g>
   </g>
   <g id="line2d_45">
    <path d="M 57.6 298.944 
L 57.6 295.702156 
L 90.242884 295.702156 
L 90.242884 293.386554 
L 107.514726 293.386554 
L 107.514726 291.997192 
L 114.080224 291.997192 
L 114.080224 291.070951 
L 125.996395 291.070951 
L 125.996395 290.14471 
L 128.709321 290.14471 
L 128.709321 289.68159 
L 128.856489 289.68159 
L 128.856489 289.218469 
L 129.991152 289.218469 
L 129.991152 288.755349 
L 130.127931 288.755349 
L 130.127931 288.292228 
L 133.124876 288.292228 
L 133.124876 287.365987 
L 133.46572 287.365987 
L 133.46572 286.439746 
L 134.450015 286.439746 
L 134.450015 285.976625 
L 135.582166 285.976625 
L 135.582166 280.8823 
L 136.456742 280.8823 
L 136.456742 279.956059 
L 137.647286 279.956059 
L 137.647286 278.566697 
L 137.910857 278.566697 
L 137.910857 278.103577 
L 138.927025 278.103577 
L 138.927025 277.640456 
L 139.493548 277.640456 
L 139.493548 276.714215 
L 139.730821 276.714215 
L 139.730821 274.398612 
L 140.423864 274.398612 
L 140.423864 273.009251 
L 140.574203 273.009251 
L 140.574203 271.619889 
L 140.944478 271.619889 
L 140.944478 271.156769 
L 142.818488 271.156769 
L 142.818488 269.767407 
L 143.337167 269.767407 
L 143.337167 268.841166 
L 145.440832 268.841166 
L 145.440832 268.378046 
L 147.317833 268.378046 
L 147.419225 264.673082 
L 147.670154 264.673082 
L 147.670154 260.504997 
L 148.306159 260.504997 
L 148.306159 260.041876 
L 149.058374 260.041876 
L 149.058374 259.115635 
L 150.085825 259.115635 
L 150.085825 258.189394 
L 152.168773 258.189394 
L 152.168773 257.726274 
L 152.398241 257.726274 
L 152.398241 256.800033 
L 152.848312 256.800033 
L 152.848312 256.336912 
L 153.925152 256.336912 
L 153.994632 254.48443 
L 154.063835 254.48443 
L 154.063835 254.02131 
L 154.201424 254.02131 
L 154.201424 253.095069 
L 154.93935 253.095069 
L 154.93935 252.631948 
L 155.647315 252.631948 
L 155.678822 251.705707 
L 156.38821 251.705707 
L 156.38821 250.779466 
L 156.717545 250.779466 
L 156.717545 250.316346 
L 156.894595 250.316346 
L 156.894595 249.853225 
L 157.069866 249.853225 
L 157.069866 248.926984 
L 157.214591 248.926984 
L 157.214591 248.000743 
L 157.976006 248.000743 
L 158.086033 246.611381 
L 158.140788 246.611381 
L 158.140788 245.22202 
L 158.652556 245.22202 
L 158.705563 243.832658 
L 158.811096 243.832658 
L 158.811096 242.906417 
L 158.994256 242.906417 
L 158.994256 241.517056 
L 159.278248 241.517056 
L 159.278248 240.127694 
L 160.005512 240.127694 
L 160.005512 239.664574 
L 160.346039 239.664574 
L 160.394148 236.88585 
L 160.656397 236.88585 
L 160.656397 235.959609 
L 160.914762 235.959609 
L 160.938061 234.570248 
L 161.146363 234.570248 
L 161.146363 234.107127 
L 161.465522 234.107127 
L 161.465522 233.180886 
L 162.10862 233.180886 
L 162.10862 232.254645 
L 162.410793 232.254645 
L 162.410793 231.328404 
L 162.559939 231.328404 
L 162.559939 230.865284 
L 163.368321 230.865284 
L 163.469301 227.62344 
L 163.946031 227.62344 
L 163.946031 227.16032 
L 164.256762 227.16032 
L 164.35274 225.770958 
L 164.75018 225.770958 
L 164.843488 222.992235 
L 164.86209 222.992235 
L 164.86209 222.529114 
L 165.02862 222.529114 
L 165.102127 221.139753 
L 165.411116 221.139753 
L 165.411116 220.676632 
L 165.572509 220.676632 
L 165.572509 218.36103 
L 165.873346 218.36103 
L 165.873346 217.434789 
L 165.995728 217.434789 
L 166.065276 216.508548 
L 166.151824 216.508548 
L 166.151824 215.582307 
L 166.34073 215.582307 
L 166.34073 215.119186 
L 166.476842 215.119186 
L 166.527611 213.729825 
L 166.6119 213.729825 
L 166.695783 212.340463 
L 166.862349 212.340463 
L 166.91201 210.951101 
L 166.978005 210.951101 
L 167.06015 208.172378 
L 167.465168 208.172378 
L 167.465168 207.709258 
L 167.719528 207.709258 
L 167.719528 206.783017 
L 168.047843 206.783017 
L 168.125111 204.930535 
L 168.263336 204.930535 
L 168.324419 203.541173 
L 168.415645 203.541173 
L 168.415645 203.078053 
L 168.641643 203.078053 
L 168.641643 202.614932 
L 168.760989 202.614932 
L 168.77585 199.836209 
L 168.982583 199.836209 
L 168.982583 199.373088 
L 169.172381 199.373088 
L 169.172381 198.909968 
L 169.388841 198.909968 
L 169.460402 196.131245 
L 169.588476 196.131245 
L 169.588476 195.668124 
L 169.771826 195.668124 
L 169.841835 194.278763 
L 169.994873 194.278763 
L 169.994873 193.815642 
L 170.324185 193.815642 
L 170.324185 192.889401 
L 170.740545 192.889401 
L 170.793552 190.573799 
L 170.899085 190.573799 
L 170.96472 189.647558 
L 171.237722 189.647558 
L 171.314944 188.258196 
L 171.43014 188.258196 
L 171.531901 186.405714 
L 171.569909 186.405714 
L 171.569909 185.942593 
L 171.796233 185.942593 
L 171.858583 185.016352 
L 171.970255 185.016352 
L 171.970255 184.553232 
L 172.409924 184.553232 
L 172.458099 182.237629 
L 172.885786 182.237629 
L 172.932666 180.385147 
L 173.107351 180.385147 
L 173.107351 179.922027 
L 173.268827 179.922027 
L 173.268827 179.458906 
L 173.988539 179.458906 
L 173.988539 178.995786 
L 174.142093 178.995786 
L 174.142093 178.532665 
L 174.412979 178.532665 
L 174.466655 176.680183 
L 174.879752 176.680183 
L 174.973708 175.753942 
L 175.415753 175.753942 
L 175.415753 174.827701 
L 175.647675 174.827701 
L 175.647675 173.90146 
L 176.267585 173.90146 
L 176.267585 172.975219 
L 176.810078 172.975219 
L 176.810078 172.512098 
L 177.005766 172.512098 
L 177.005766 172.048978 
L 177.943781 172.048978 
L 177.943781 171.585857 
L 179.846927 171.585857 
L 179.846927 170.196496 
L 181.541248 170.196496 
L 181.541248 169.733375 
L 183.157214 169.733375 
L 183.157214 169.270255 
L 183.821648 169.270255 
L 183.821648 168.807134 
L 184.316062 168.807134 
L 184.316062 168.344014 
L 188.581281 168.344014 
L 188.581281 167.880893 
L 189.038067 167.880893 
L 189.038067 166.954652 
L 192.768902 166.954652 
L 192.768902 166.491532 
L 193.8352 166.491532 
L 193.8352 166.028411 
L 194.554448 166.028411 
L 194.554448 165.565291 
L 197.044151 165.565291 
L 197.044151 164.63905 
L 199.512882 164.63905 
L 199.512882 164.175929 
L 204.00321 164.175929 
L 204.00321 163.249688 
L 204.824962 163.249688 
L 204.824962 162.323447 
L 211.362166 162.323447 
L 211.362166 161.860326 
L 212.259979 161.860326 
L 212.259979 161.397206 
L 214.191275 161.397206 
L 214.191275 160.934085 
L 217.069215 160.934085 
L 217.069215 160.470965 
L 220.531976 160.470965 
L 220.531976 160.007844 
L 222.025762 160.007844 
L 222.025762 159.544724 
L 230.04746 159.544724 
L 230.04746 159.081603 
L 230.808671 159.081603 
L 230.808671 158.618483 
L 237.889998 158.618483 
L 237.889998 157.692242 
L 240.23241 157.692242 
L 240.23241 157.229121 
L 244.720551 157.229121 
L 244.720551 156.766001 
L 245.868009 156.766001 
L 245.868009 155.83976 
L 246.311462 155.83976 
L 246.311462 155.376639 
L 251.126888 155.376639 
L 251.126888 154.450398 
L 251.345535 154.450398 
L 251.345535 153.987278 
L 252.706302 153.987278 
L 252.706302 153.061037 
L 254.321525 153.061037 
L 254.321525 152.597916 
L 255.041541 152.597916 
L 255.041541 152.134795 
L 338.688 152.134795 
L 338.688 152.134795 
" style="fill:none;stroke:#ff7500;stroke-linecap:square;stroke-width:1.5;"/>
   </g>
   <g id="line2d_46">
    <defs>
     <path d="M 0 -6 
L -1.347084 -1.854102 
L -5.706339 -1.854102 
L -2.179628 0.708204 
L -3.526712 4.854102 
L -0 2.291796 
L 3.526712 4.854102 
L 2.179628 0.708204 
L 5.706339 -1.854102 
L 1.347084 -1.854102 
z
" id="mae02fd1932" style="stroke:#ff7500;stroke-linejoin:bevel;stroke-width:1.5;"/>
    </defs>
    <g>
     <use style="fill-opacity:0;stroke:#ff7500;stroke-linejoin:bevel;stroke-width:1.5;" x="157.214591" xlink:href="#mae02fd1932" y="248.926984"/>
     <use style="fill-opacity:0;stroke:#ff7500;stroke-linejoin:bevel;stroke-width:1.5;" x="211.362166" xlink:href="#mae02fd1932" y="162.323447"/>
     <use style="fill-opacity:0;stroke:#ff7500;stroke-linejoin:bevel;stroke-width:1.5;" x="255.041541" xlink:href="#mae02fd1932" y="152.134795"/>
     <use style="fill-opacity:0;stroke:#ff7500;stroke-linejoin:bevel;stroke-width:1.5;" x="255.041541" xlink:href="#mae02fd1932" y="152.134795"/>
     <use style="fill-opacity:0;stroke:#ff7500;stroke-linejoin:bevel;stroke-width:1.5;" x="338.688" xlink:href="#mae02fd1932" y="152.134795"/>
    </g>
   </g>
   <g id="line2d_47">
    <path style="fill:none;stroke:#ff7500;stroke-linecap:square;stroke-width:1.5;"/>
    <g/>
   </g>
   <g id="line2d_48">
    <path clip-path="url(#pb73eed4b51)" d="M 258.37723 152.134795 
" style="fill:none;stroke:#ff7500;stroke-linecap:square;stroke-width:1.5;"/>
    <defs>
     <path d="M -12 12 
L 12 -12 
M -12 -12 
L 12 12 
" id="m662bb24d7e" style="stroke:#ff7500;"/>
    </defs>
    <g clip-path="url(#pb73eed4b51)">
     <use style="fill:#ff7500;stroke:#ff7500;" x="258.37723" xlink:href="#m662bb24d7e" y="152.134795"/>
    </g>
   </g>
   <g id="line2d_49">
    <path d="M 338.688 152.134795 
L 369.60768 293.571802 
" style="fill:none;stroke:#ff7500;stroke-linecap:square;stroke-width:1.5;"/>
    <g>
     <use style="fill-opacity:0;stroke:#ff7500;stroke-linejoin:bevel;stroke-width:1.5;" x="338.688" xlink:href="#mae02fd1932" y="152.134795"/>
     <use style="fill-opacity:0;stroke:#ff7500;stroke-linejoin:bevel;stroke-width:1.5;" x="369.60768" xlink:href="#mae02fd1932" y="293.571802"/>
    </g>
   </g>
   <g id="line2d_50">
    <path d="M 338.688 100.265297 
L 369.60768 207.616634 
" style="fill:none;stroke:#ff00ff;stroke-linecap:square;stroke-width:1.5;"/>
    <g>
     <use style="fill-opacity:0;stroke:#ff00ff;stroke-linejoin:miter;stroke-width:1.5;" x="338.688" xlink:href="#m144fc58d6a" y="100.265297"/>
     <use style="fill-opacity:0;stroke:#ff00ff;stroke-linejoin:miter;stroke-width:1.5;" x="369.60768" xlink:href="#m144fc58d6a" y="207.616634"/>
    </g>
   </g>
   <g id="line2d_51">
    <path d="M 338.688 78.035512 
L 369.60768 121.661465 
" style="fill:none;stroke:#000080;stroke-linecap:square;stroke-width:1.5;"/>
    <g>
     <use style="fill-opacity:0;stroke:#000080;stroke-width:1.5;" x="338.688" xlink:href="#m15ef7bcee8" y="78.035512"/>
     <use style="fill-opacity:0;stroke:#000080;stroke-width:1.5;" x="369.60768" xlink:href="#m15ef7bcee8" y="121.661465"/>
    </g>
   </g>
   <g id="line2d_52">
    <path d="M 338.688 298.944 
L 338.688 30.334099 
" style="fill:none;stroke:#000000;stroke-linecap:square;stroke-width:1.5;"/>
   </g>
   <g id="patch_3">
    <path d="M 57.6 298.944 
L 57.6 27.648 
" style="fill:none;stroke:#000000;stroke-linecap:square;stroke-linejoin:miter;stroke-width:0.8;"/>
   </g>
   <g id="patch_4">
    <path d="M 338.688 298.944 
L 338.688 27.648 
" style="fill:none;stroke:#000000;stroke-linecap:square;stroke-linejoin:miter;stroke-width:0.8;"/>
   </g>
   <g id="patch_5">
    <path d="M 57.6 298.944 
L 338.688 298.944 
" style="fill:none;stroke:#000000;stroke-linecap:square;stroke-linejoin:miter;stroke-width:0.8;"/>
   </g>
   <g id="patch_6">
    <path d="M 57.6 27.648 
L 338.688 27.648 
" style="fill:none;stroke:#000000;stroke-linecap:square;stroke-linejoin:miter;stroke-width:0.8;"/>
   </g>
   <g id="text_13">
    <!-- SMS-EMOA- -->
    <g transform="translate(375.22944 298.262739)scale(0.17 -0.17)">
     <defs>
      <path d="M 53.515625 70.515625 
L 53.515625 60.890625 
Q 47.90625 63.578125 42.921875 64.890625 
Q 37.9375 66.21875 33.296875 66.21875 
Q 25.25 66.21875 20.875 63.09375 
Q 16.5 59.96875 16.5 54.203125 
Q 16.5 49.359375 19.40625 46.890625 
Q 22.3125 44.4375 30.421875 42.921875 
L 36.375 41.703125 
Q 47.40625 39.59375 52.65625 34.296875 
Q 57.90625 29 57.90625 20.125 
Q 57.90625 9.515625 50.796875 4.046875 
Q 43.703125 -1.421875 29.984375 -1.421875 
Q 24.8125 -1.421875 18.96875 -0.25 
Q 13.140625 0.921875 6.890625 3.21875 
L 6.890625 13.375 
Q 12.890625 10.015625 18.65625 8.296875 
Q 24.421875 6.59375 29.984375 6.59375 
Q 38.421875 6.59375 43.015625 9.90625 
Q 47.609375 13.234375 47.609375 19.390625 
Q 47.609375 24.75 44.3125 27.78125 
Q 41.015625 30.8125 33.5 32.328125 
L 27.484375 33.5 
Q 16.453125 35.6875 11.515625 40.375 
Q 6.59375 45.0625 6.59375 53.421875 
Q 6.59375 63.09375 13.40625 68.65625 
Q 20.21875 74.21875 32.171875 74.21875 
Q 37.3125 74.21875 42.625 73.28125 
Q 47.953125 72.359375 53.515625 70.515625 
z
" id="DejaVuSans-83"/>
      <path d="M 9.8125 72.90625 
L 24.515625 72.90625 
L 43.109375 23.296875 
L 61.8125 72.90625 
L 76.515625 72.90625 
L 76.515625 0 
L 66.890625 0 
L 66.890625 64.015625 
L 48.09375 14.015625 
L 38.1875 14.015625 
L 19.390625 64.015625 
L 19.390625 0 
L 9.8125 0 
z
" id="DejaVuSans-77"/>
      <path d="M 9.8125 72.90625 
L 55.90625 72.90625 
L 55.90625 64.59375 
L 19.671875 64.59375 
L 19.671875 43.015625 
L 54.390625 43.015625 
L 54.390625 34.71875 
L 19.671875 34.71875 
L 19.671875 8.296875 
L 56.78125 8.296875 
L 56.78125 0 
L 9.8125 0 
z
" id="DejaVuSans-69"/>
      <path d="M 39.40625 66.21875 
Q 28.65625 66.21875 22.328125 58.203125 
Q 16.015625 50.203125 16.015625 36.375 
Q 16.015625 22.609375 22.328125 14.59375 
Q 28.65625 6.59375 39.40625 6.59375 
Q 50.140625 6.59375 56.421875 14.59375 
Q 62.703125 22.609375 62.703125 36.375 
Q 62.703125 50.203125 56.421875 58.203125 
Q 50.140625 66.21875 39.40625 66.21875 
z
M 39.40625 74.21875 
Q 54.734375 74.21875 63.90625 63.9375 
Q 73.09375 53.65625 73.09375 36.375 
Q 73.09375 19.140625 63.90625 8.859375 
Q 54.734375 -1.421875 39.40625 -1.421875 
Q 24.03125 -1.421875 14.8125 8.828125 
Q 5.609375 19.09375 5.609375 36.375 
Q 5.609375 53.65625 14.8125 63.9375 
Q 24.03125 74.21875 39.40625 74.21875 
z
" id="DejaVuSans-79"/>
      <path d="M 34.1875 63.1875 
L 20.796875 26.90625 
L 47.609375 26.90625 
z
M 28.609375 72.90625 
L 39.796875 72.90625 
L 67.578125 0 
L 57.328125 0 
L 50.6875 18.703125 
L 17.828125 18.703125 
L 11.1875 0 
L 0.78125 0 
z
" id="DejaVuSans-65"/>
     </defs>
     <use xlink:href="#DejaVuSans-83"/>
     <use x="63.476562" xlink:href="#DejaVuSans-77"/>
     <use x="149.755859" xlink:href="#DejaVuSans-83"/>
     <use x="213.232422" xlink:href="#DejaVuSans-45"/>
     <use x="249.316406" xlink:href="#DejaVuSans-69"/>
     <use x="312.5" xlink:href="#DejaVuSans-77"/>
     <use x="398.779297" xlink:href="#DejaVuSans-79"/>
     <use x="475.740234" xlink:href="#DejaVuSans-65"/>
     <use x="541.898438" xlink:href="#DejaVuSans-45"/>
    </g>
   </g>
   <g id="text_14">
    <!-- NSGA-II-M -->
    <g transform="translate(375.22944 212.307571)scale(0.17 -0.17)">
     <defs>
      <path d="M 9.8125 72.90625 
L 23.09375 72.90625 
L 55.421875 11.921875 
L 55.421875 72.90625 
L 64.984375 72.90625 
L 64.984375 0 
L 51.703125 0 
L 19.390625 60.984375 
L 19.390625 0 
L 9.8125 0 
z
" id="DejaVuSans-78"/>
      <path d="M 59.515625 10.40625 
L 59.515625 29.984375 
L 43.40625 29.984375 
L 43.40625 38.09375 
L 69.28125 38.09375 
L 69.28125 6.78125 
Q 63.578125 2.734375 56.6875 0.65625 
Q 49.8125 -1.421875 42 -1.421875 
Q 24.90625 -1.421875 15.25 8.5625 
Q 5.609375 18.5625 5.609375 36.375 
Q 5.609375 54.25 15.25 64.234375 
Q 24.90625 74.21875 42 74.21875 
Q 49.125 74.21875 55.546875 72.453125 
Q 61.96875 70.703125 67.390625 67.28125 
L 67.390625 56.78125 
Q 61.921875 61.421875 55.765625 63.765625 
Q 49.609375 66.109375 42.828125 66.109375 
Q 29.4375 66.109375 22.71875 58.640625 
Q 16.015625 51.171875 16.015625 36.375 
Q 16.015625 21.625 22.71875 14.15625 
Q 29.4375 6.6875 42.828125 6.6875 
Q 48.046875 6.6875 52.140625 7.59375 
Q 56.25 8.5 59.515625 10.40625 
z
" id="DejaVuSans-71"/>
      <path d="M 9.8125 72.90625 
L 19.671875 72.90625 
L 19.671875 0 
L 9.8125 0 
z
" id="DejaVuSans-73"/>
     </defs>
     <use xlink:href="#DejaVuSans-78"/>
     <use x="74.804688" xlink:href="#DejaVuSans-83"/>
     <use x="138.28125" xlink:href="#DejaVuSans-71"/>
     <use x="215.771484" xlink:href="#DejaVuSans-65"/>
     <use x="281.929688" xlink:href="#DejaVuSans-45"/>
     <use x="318.013672" xlink:href="#DejaVuSans-73"/>
     <use x="347.505859" xlink:href="#DejaVuSans-73"/>
     <use x="376.998047" xlink:href="#DejaVuSans-45"/>
     <use x="413.082031" xlink:href="#DejaVuSans-77"/>
    </g>
   </g>
   <g id="text_15">
    <!-- COMO-100  -->
    <g transform="translate(375.22944 126.352403)scale(0.17 -0.17)">
     <defs>
      <path d="M 64.40625 67.28125 
L 64.40625 56.890625 
Q 59.421875 61.53125 53.78125 63.8125 
Q 48.140625 66.109375 41.796875 66.109375 
Q 29.296875 66.109375 22.65625 58.46875 
Q 16.015625 50.828125 16.015625 36.375 
Q 16.015625 21.96875 22.65625 14.328125 
Q 29.296875 6.6875 41.796875 6.6875 
Q 48.140625 6.6875 53.78125 8.984375 
Q 59.421875 11.28125 64.40625 15.921875 
L 64.40625 5.609375 
Q 59.234375 2.09375 53.4375 0.328125 
Q 47.65625 -1.421875 41.21875 -1.421875 
Q 24.65625 -1.421875 15.125 8.703125 
Q 5.609375 18.84375 5.609375 36.375 
Q 5.609375 53.953125 15.125 64.078125 
Q 24.65625 74.21875 41.21875 74.21875 
Q 47.75 74.21875 53.53125 72.484375 
Q 59.328125 70.75 64.40625 67.28125 
z
" id="DejaVuSans-67"/>
     </defs>
     <use xlink:href="#DejaVuSans-67"/>
     <use x="69.824219" xlink:href="#DejaVuSans-79"/>
     <use x="148.535156" xlink:href="#DejaVuSans-77"/>
     <use x="234.814453" xlink:href="#DejaVuSans-79"/>
     <use x="316.275391" xlink:href="#DejaVuSans-45"/>
     <use x="352.359375" xlink:href="#DejaVuSans-49"/>
     <use x="415.982422" xlink:href="#DejaVuSans-48"/>
     <use x="479.605469" xlink:href="#DejaVuSans-48"/>
     <use x="543.228516" xlink:href="#DejaVuSans-32"/>
    </g>
   </g>
   <g id="text_16">
    <!-- best 2016 -->
    <g transform="translate(375.22944 40.397235)scale(0.17 -0.17)">
     <defs>
      <path d="M 48.6875 27.296875 
Q 48.6875 37.203125 44.609375 42.84375 
Q 40.53125 48.484375 33.40625 48.484375 
Q 26.265625 48.484375 22.1875 42.84375 
Q 18.109375 37.203125 18.109375 27.296875 
Q 18.109375 17.390625 22.1875 11.75 
Q 26.265625 6.109375 33.40625 6.109375 
Q 40.53125 6.109375 44.609375 11.75 
Q 48.6875 17.390625 48.6875 27.296875 
z
M 18.109375 46.390625 
Q 20.953125 51.265625 25.265625 53.625 
Q 29.59375 56 35.59375 56 
Q 45.5625 56 51.78125 48.09375 
Q 58.015625 40.1875 58.015625 27.296875 
Q 58.015625 14.40625 51.78125 6.484375 
Q 45.5625 -1.421875 35.59375 -1.421875 
Q 29.59375 -1.421875 25.265625 0.953125 
Q 20.953125 3.328125 18.109375 8.203125 
L 18.109375 0 
L 9.078125 0 
L 9.078125 75.984375 
L 18.109375 75.984375 
z
" id="DejaVuSans-98"/>
     </defs>
     <use xlink:href="#DejaVuSans-98"/>
     <use x="63.476562" xlink:href="#DejaVuSans-101"/>
     <use x="125" xlink:href="#DejaVuSans-115"/>
     <use x="177.099609" xlink:href="#DejaVuSans-116"/>
     <use x="216.308594" xlink:href="#DejaVuSans-32"/>
     <use x="248.095703" xlink:href="#DejaVuSans-50"/>
     <use x="311.71875" xlink:href="#DejaVuSans-48"/>
     <use x="375.341797" xlink:href="#DejaVuSans-49"/>
     <use x="438.964844" xlink:href="#DejaVuSans-54"/>
    </g>
   </g>
   <g id="text_17">
    <!-- bbob-biobj f23, 2-D -->
    <g transform="translate(60.41088 38.111366)scale(0.102 -0.102)">
     <defs>
      <path d="M 9.421875 54.6875 
L 18.40625 54.6875 
L 18.40625 -0.984375 
Q 18.40625 -11.421875 14.421875 -16.109375 
Q 10.453125 -20.796875 1.609375 -20.796875 
L -1.8125 -20.796875 
L -1.8125 -13.1875 
L 0.59375 -13.1875 
Q 5.71875 -13.1875 7.5625 -10.8125 
Q 9.421875 -8.453125 9.421875 -0.984375 
z
M 9.421875 75.984375 
L 18.40625 75.984375 
L 18.40625 64.59375 
L 9.421875 64.59375 
z
" id="DejaVuSans-106"/>
      <path d="M 40.578125 39.3125 
Q 47.65625 37.796875 51.625 33 
Q 55.609375 28.21875 55.609375 21.1875 
Q 55.609375 10.40625 48.1875 4.484375 
Q 40.765625 -1.421875 27.09375 -1.421875 
Q 22.515625 -1.421875 17.65625 -0.515625 
Q 12.796875 0.390625 7.625 2.203125 
L 7.625 11.71875 
Q 11.71875 9.328125 16.59375 8.109375 
Q 21.484375 6.890625 26.8125 6.890625 
Q 36.078125 6.890625 40.9375 10.546875 
Q 45.796875 14.203125 45.796875 21.1875 
Q 45.796875 27.640625 41.28125 31.265625 
Q 36.765625 34.90625 28.71875 34.90625 
L 20.21875 34.90625 
L 20.21875 43.015625 
L 29.109375 43.015625 
Q 36.375 43.015625 40.234375 45.921875 
Q 44.09375 48.828125 44.09375 54.296875 
Q 44.09375 59.90625 40.109375 62.90625 
Q 36.140625 65.921875 28.71875 65.921875 
Q 24.65625 65.921875 20.015625 65.03125 
Q 15.375 64.15625 9.8125 62.3125 
L 9.8125 71.09375 
Q 15.4375 72.65625 20.34375 73.4375 
Q 25.25 74.21875 29.59375 74.21875 
Q 40.828125 74.21875 47.359375 69.109375 
Q 53.90625 64.015625 53.90625 55.328125 
Q 53.90625 49.265625 50.4375 45.09375 
Q 46.96875 40.921875 40.578125 39.3125 
z
" id="DejaVuSans-51"/>
      <path d="M 19.671875 64.796875 
L 19.671875 8.109375 
L 31.59375 8.109375 
Q 46.6875 8.109375 53.6875 14.9375 
Q 60.6875 21.78125 60.6875 36.53125 
Q 60.6875 51.171875 53.6875 57.984375 
Q 46.6875 64.796875 31.59375 64.796875 
z
M 9.8125 72.90625 
L 30.078125 72.90625 
Q 51.265625 72.90625 61.171875 64.09375 
Q 71.09375 55.28125 71.09375 36.53125 
Q 71.09375 17.671875 61.125 8.828125 
Q 51.171875 0 30.078125 0 
L 9.8125 0 
z
" id="DejaVuSans-68"/>
     </defs>
     <use xlink:href="#DejaVuSans-98"/>
     <use x="63.476562" xlink:href="#DejaVuSans-98"/>
     <use x="126.953125" xlink:href="#DejaVuSans-111"/>
     <use x="188.134766" xlink:href="#DejaVuSans-98"/>
     <use x="251.611328" xlink:href="#DejaVuSans-45"/>
     <use x="287.695312" xlink:href="#DejaVuSans-98"/>
     <use x="351.171875" xlink:href="#DejaVuSans-105"/>
     <use x="378.955078" xlink:href="#DejaVuSans-111"/>
     <use x="440.136719" xlink:href="#DejaVuSans-98"/>
     <use x="503.613281" xlink:href="#DejaVuSans-106"/>
     <use x="531.396484" xlink:href="#DejaVuSans-32"/>
     <use x="563.183594" xlink:href="#DejaVuSans-102"/>
     <use x="598.388672" xlink:href="#DejaVuSans-50"/>
     <use x="662.011719" xlink:href="#DejaVuSans-51"/>
     <use x="725.634766" xlink:href="#DejaVuSans-44"/>
     <use x="757.421875" xlink:href="#DejaVuSans-32"/>
     <use x="789.208984" xlink:href="#DejaVuSans-50"/>
     <use x="852.832031" xlink:href="#DejaVuSans-45"/>
     <use x="888.916016" xlink:href="#DejaVuSans-68"/>
    </g>
    <!-- 58 targets: 1..-1.0e-4 -->
    <g transform="translate(60.41088 49.533135)scale(0.102 -0.102)">
     <defs>
      <path d="M 10.796875 72.90625 
L 49.515625 72.90625 
L 49.515625 64.59375 
L 19.828125 64.59375 
L 19.828125 46.734375 
Q 21.96875 47.46875 24.109375 47.828125 
Q 26.265625 48.1875 28.421875 48.1875 
Q 40.625 48.1875 47.75 41.5 
Q 54.890625 34.8125 54.890625 23.390625 
Q 54.890625 11.625 47.5625 5.09375 
Q 40.234375 -1.421875 26.90625 -1.421875 
Q 22.3125 -1.421875 17.546875 -0.640625 
Q 12.796875 0.140625 7.71875 1.703125 
L 7.71875 11.625 
Q 12.109375 9.234375 16.796875 8.0625 
Q 21.484375 6.890625 26.703125 6.890625 
Q 35.15625 6.890625 40.078125 11.328125 
Q 45.015625 15.765625 45.015625 23.390625 
Q 45.015625 31 40.078125 35.4375 
Q 35.15625 39.890625 26.703125 39.890625 
Q 22.75 39.890625 18.8125 39.015625 
Q 14.890625 38.140625 10.796875 36.28125 
z
" id="DejaVuSans-53"/>
      <path d="M 11.71875 12.40625 
L 22.015625 12.40625 
L 22.015625 0 
L 11.71875 0 
z
M 11.71875 51.703125 
L 22.015625 51.703125 
L 22.015625 39.3125 
L 11.71875 39.3125 
z
" id="DejaVuSans-58"/>
     </defs>
     <use xlink:href="#DejaVuSans-53"/>
     <use x="63.623047" xlink:href="#DejaVuSans-56"/>
     <use x="127.246094" xlink:href="#DejaVuSans-32"/>
     <use x="159.033203" xlink:href="#DejaVuSans-116"/>
     <use x="198.242188" xlink:href="#DejaVuSans-97"/>
     <use x="259.521484" xlink:href="#DejaVuSans-114"/>
     <use x="298.884766" xlink:href="#DejaVuSans-103"/>
     <use x="362.361328" xlink:href="#DejaVuSans-101"/>
     <use x="423.884766" xlink:href="#DejaVuSans-116"/>
     <use x="463.09375" xlink:href="#DejaVuSans-115"/>
     <use x="515.193359" xlink:href="#DejaVuSans-58"/>
     <use x="548.884766" xlink:href="#DejaVuSans-32"/>
     <use x="580.671875" xlink:href="#DejaVuSans-49"/>
     <use x="644.294922" xlink:href="#DejaVuSans-46"/>
     <use x="676.082031" xlink:href="#DejaVuSans-46"/>
     <use x="707.869141" xlink:href="#DejaVuSans-45"/>
     <use x="743.953125" xlink:href="#DejaVuSans-49"/>
     <use x="807.576172" xlink:href="#DejaVuSans-46"/>
     <use x="839.363281" xlink:href="#DejaVuSans-48"/>
     <use x="902.986328" xlink:href="#DejaVuSans-101"/>
     <use x="964.509766" xlink:href="#DejaVuSans-45"/>
     <use x="1000.59375" xlink:href="#DejaVuSans-52"/>
    </g>
    <!-- 10 instances -->
    <g transform="translate(60.41088 60.954904)scale(0.102 -0.102)">
     <use xlink:href="#DejaVuSans-49"/>
     <use x="63.623047" xlink:href="#DejaVuSans-48"/>
     <use x="127.246094" xlink:href="#DejaVuSans-32"/>
     <use x="159.033203" xlink:href="#DejaVuSans-105"/>
     <use x="186.816406" xlink:href="#DejaVuSans-110"/>
     <use x="250.195312" xlink:href="#DejaVuSans-115"/>
     <use x="302.294922" xlink:href="#DejaVuSans-116"/>
     <use x="341.503906" xlink:href="#DejaVuSans-97"/>
     <use x="402.783203" xlink:href="#DejaVuSans-110"/>
     <use x="466.162109" xlink:href="#DejaVuSans-99"/>
     <use x="521.142578" xlink:href="#DejaVuSans-101"/>
     <use x="582.666016" xlink:href="#DejaVuSans-115"/>
    </g>
   </g>
   <g id="text_18">
    <!-- v2.4.19, hv-hash=ff0e71e8cd978373 -->
    <g style="fill:#808080;" transform="translate(104.697125 294.151352)scale(0.1 -0.1)">
     <defs>
      <path d="M 10.984375 1.515625 
L 10.984375 10.5 
Q 14.703125 8.734375 18.5 7.8125 
Q 22.3125 6.890625 25.984375 6.890625 
Q 35.75 6.890625 40.890625 13.453125 
Q 46.046875 20.015625 46.78125 33.40625 
Q 43.953125 29.203125 39.59375 26.953125 
Q 35.25 24.703125 29.984375 24.703125 
Q 19.046875 24.703125 12.671875 31.3125 
Q 6.296875 37.9375 6.296875 49.421875 
Q 6.296875 60.640625 12.9375 67.421875 
Q 19.578125 74.21875 30.609375 74.21875 
Q 43.265625 74.21875 49.921875 64.515625 
Q 56.59375 54.828125 56.59375 36.375 
Q 56.59375 19.140625 48.40625 8.859375 
Q 40.234375 -1.421875 26.421875 -1.421875 
Q 22.703125 -1.421875 18.890625 -0.6875 
Q 15.09375 0.046875 10.984375 1.515625 
z
M 30.609375 32.421875 
Q 37.25 32.421875 41.125 36.953125 
Q 45.015625 41.5 45.015625 49.421875 
Q 45.015625 57.28125 41.125 61.84375 
Q 37.25 66.40625 30.609375 66.40625 
Q 23.96875 66.40625 20.09375 61.84375 
Q 16.21875 57.28125 16.21875 49.421875 
Q 16.21875 41.5 20.09375 36.953125 
Q 23.96875 32.421875 30.609375 32.421875 
z
" id="DejaVuSans-57"/>
      <path d="M 54.890625 33.015625 
L 54.890625 0 
L 45.90625 0 
L 45.90625 32.71875 
Q 45.90625 40.484375 42.875 44.328125 
Q 39.84375 48.1875 33.796875 48.1875 
Q 26.515625 48.1875 22.3125 43.546875 
Q 18.109375 38.921875 18.109375 30.90625 
L 18.109375 0 
L 9.078125 0 
L 9.078125 75.984375 
L 18.109375 75.984375 
L 18.109375 46.1875 
Q 21.34375 51.125 25.703125 53.5625 
Q 30.078125 56 35.796875 56 
Q 45.21875 56 50.046875 50.171875 
Q 54.890625 44.34375 54.890625 33.015625 
z
" id="DejaVuSans-104"/>
      <path d="M 10.59375 45.40625 
L 73.1875 45.40625 
L 73.1875 37.203125 
L 10.59375 37.203125 
z
M 10.59375 25.484375 
L 73.1875 25.484375 
L 73.1875 17.1875 
L 10.59375 17.1875 
z
" id="DejaVuSans-61"/>
      <path d="M 8.203125 72.90625 
L 55.078125 72.90625 
L 55.078125 68.703125 
L 28.609375 0 
L 18.3125 0 
L 43.21875 64.59375 
L 8.203125 64.59375 
z
" id="DejaVuSans-55"/>
     </defs>
     <use xlink:href="#DejaVuSans-118"/>
     <use x="59.179688" xlink:href="#DejaVuSans-50"/>
     <use x="122.802734" xlink:href="#DejaVuSans-46"/>
     <use x="154.589844" xlink:href="#DejaVuSans-52"/>
     <use x="218.212891" xlink:href="#DejaVuSans-46"/>
     <use x="250" xlink:href="#DejaVuSans-49"/>
     <use x="313.623047" xlink:href="#DejaVuSans-57"/>
     <use x="377.246094" xlink:href="#DejaVuSans-44"/>
     <use x="409.033203" xlink:href="#DejaVuSans-32"/>
     <use x="440.820312" xlink:href="#DejaVuSans-104"/>
     <use x="504.199219" xlink:href="#DejaVuSans-118"/>
     <use x="560.753906" xlink:href="#DejaVuSans-45"/>
     <use x="596.837891" xlink:href="#DejaVuSans-104"/>
     <use x="660.216797" xlink:href="#DejaVuSans-97"/>
     <use x="721.496094" xlink:href="#DejaVuSans-115"/>
     <use x="773.595703" xlink:href="#DejaVuSans-104"/>
     <use x="836.974609" xlink:href="#DejaVuSans-61"/>
     <use x="920.763672" xlink:href="#DejaVuSans-102"/>
     <use x="955.96875" xlink:href="#DejaVuSans-102"/>
     <use x="991.173828" xlink:href="#DejaVuSans-48"/>
     <use x="1054.796875" xlink:href="#DejaVuSans-101"/>
     <use x="1116.320312" xlink:href="#DejaVuSans-55"/>
     <use x="1179.943359" xlink:href="#DejaVuSans-49"/>
     <use x="1243.566406" xlink:href="#DejaVuSans-101"/>
     <use x="1305.089844" xlink:href="#DejaVuSans-56"/>
     <use x="1368.712891" xlink:href="#DejaVuSans-99"/>
     <use x="1423.693359" xlink:href="#DejaVuSans-100"/>
     <use x="1487.169922" xlink:href="#DejaVuSans-57"/>
     <use x="1550.792969" xlink:href="#DejaVuSans-55"/>
     <use x="1614.416016" xlink:href="#DejaVuSans-56"/>
     <use x="1678.039062" xlink:href="#DejaVuSans-51"/>
     <use x="1741.662109" xlink:href="#DejaVuSans-55"/>
     <use x="1805.285156" xlink:href="#DejaVuSans-51"/>
    </g>
   </g>
   <g id="text_19">
    <!-- 23 Attr. sector/Diff. Powers -->
    <g transform="translate(65.21275 21.648)scale(0.2 -0.2)">
     <defs>
      <path d="M 19.671875 64.796875 
L 19.671875 37.40625 
L 32.078125 37.40625 
Q 38.96875 37.40625 42.71875 40.96875 
Q 46.484375 44.53125 46.484375 51.125 
Q 46.484375 57.671875 42.71875 61.234375 
Q 38.96875 64.796875 32.078125 64.796875 
z
M 9.8125 72.90625 
L 32.078125 72.90625 
Q 44.34375 72.90625 50.609375 67.359375 
Q 56.890625 61.8125 56.890625 51.125 
Q 56.890625 40.328125 50.609375 34.8125 
Q 44.34375 29.296875 32.078125 29.296875 
L 19.671875 29.296875 
L 19.671875 0 
L 9.8125 0 
z
" id="DejaVuSans-80"/>
      <path d="M 4.203125 54.6875 
L 13.1875 54.6875 
L 24.421875 12.015625 
L 35.59375 54.6875 
L 46.1875 54.6875 
L 57.421875 12.015625 
L 68.609375 54.6875 
L 77.59375 54.6875 
L 63.28125 0 
L 52.6875 0 
L 40.921875 44.828125 
L 29.109375 0 
L 18.5 0 
z
" id="DejaVuSans-119"/>
     </defs>
     <use xlink:href="#DejaVuSans-50"/>
     <use x="63.623047" xlink:href="#DejaVuSans-51"/>
     <use x="127.246094" xlink:href="#DejaVuSans-32"/>
     <use x="159.033203" xlink:href="#DejaVuSans-65"/>
     <use x="225.691406" xlink:href="#DejaVuSans-116"/>
     <use x="264.900391" xlink:href="#DejaVuSans-116"/>
     <use x="304.109375" xlink:href="#DejaVuSans-114"/>
     <use x="336.097656" xlink:href="#DejaVuSans-46"/>
     <use x="367.884766" xlink:href="#DejaVuSans-32"/>
     <use x="399.671875" xlink:href="#DejaVuSans-115"/>
     <use x="451.771484" xlink:href="#DejaVuSans-101"/>
     <use x="513.294922" xlink:href="#DejaVuSans-99"/>
     <use x="568.275391" xlink:href="#DejaVuSans-116"/>
     <use x="607.484375" xlink:href="#DejaVuSans-111"/>
     <use x="668.666016" xlink:href="#DejaVuSans-114"/>
     <use x="709.779297" xlink:href="#DejaVuSans-47"/>
     <use x="743.470703" xlink:href="#DejaVuSans-68"/>
     <use x="820.472656" xlink:href="#DejaVuSans-105"/>
     <use x="848.255859" xlink:href="#DejaVuSans-102"/>
     <use x="883.460938" xlink:href="#DejaVuSans-102"/>
     <use x="911.416016" xlink:href="#DejaVuSans-46"/>
     <use x="943.203125" xlink:href="#DejaVuSans-32"/>
     <use x="974.990234" xlink:href="#DejaVuSans-80"/>
     <use x="1031.667969" xlink:href="#DejaVuSans-111"/>
     <use x="1092.849609" xlink:href="#DejaVuSans-119"/>
     <use x="1174.636719" xlink:href="#DejaVuSans-101"/>
     <use x="1236.160156" xlink:href="#DejaVuSans-114"/>
     <use x="1277.273438" xlink:href="#DejaVuSans-115"/>
    </g>
   </g>
  </g>
 </g>
 <defs>
  <clipPath id="pb73eed4b51">
   <rect height="271.296" width="281.088" x="57.6" y="27.648"/>
  </clipPath>
 </defs>
</svg>
