<?xml version="1.0" encoding="utf-8" standalone="no"?>
<!DOCTYPE svg PUBLIC "-//W3C//DTD SVG 1.1//EN"
  "http://www.w3.org/Graphics/SVG/1.1/DTD/svg11.dtd">
<!-- Created with matplotlib (https://matplotlib.org/) -->
<svg height="345.6pt" version="1.1" viewBox="0 0 460.8 345.6" width="460.8pt" xmlns="http://www.w3.org/2000/svg" xmlns:xlink="http://www.w3.org/1999/xlink">
 <metadata>
  <rdf:RDF xmlns:cc="http://creativecommons.org/ns#" xmlns:dc="http://purl.org/dc/elements/1.1/" xmlns:rdf="http://www.w3.org/1999/02/22-rdf-syntax-ns#">
   <cc:Work>
    <dc:type rdf:resource="http://purl.org/dc/dcmitype/StillImage"/>
    <dc:date>2021-04-26T15:07:02.960016</dc:date>
    <dc:format>image/svg+xml</dc:format>
    <dc:creator>
     <cc:Agent>
      <dc:title>Matplotlib v3.3.2, https://matplotlib.org/</dc:title>
     </cc:Agent>
    </dc:creator>
   </cc:Work>
  </rdf:RDF>
 </metadata>
 <defs>
  <style type="text/css">*{stroke-linecap:butt;stroke-linejoin:round;}</style>
 </defs>
 <g id="figure_1">
  <g id="patch_1">
   <path d="M 0 345.6 
L 460.8 345.6 
L 460.8 0 
L 0 0 
z
" style="fill:#ffffff;"/>
  </g>
  <g id="axes_1">
   <g id="patch_2">
    <path d="M 57.6 298.944 
L 338.688 298.944 
L 338.688 27.648 
L 57.6 27.648 
z
" style="fill:#ffffff;"/>
   </g>
   <g id="line2d_1">
    <path d="M 57.6 298.944 
L 57.6 294.312795 
L 91.535274 294.312795 
L 91.535274 285.050384 
L 120.41399 285.050384 
L 120.41399 275.787974 
L 139.413734 275.787974 
L 139.413734 271.156769 
L 144.629556 271.156769 
L 144.629556 257.263153 
L 148.919783 257.263153 
L 148.919783 248.000743 
L 155.446436 248.000743 
L 155.446436 243.369538 
L 163.696049 243.369538 
L 163.696049 234.107127 
L 166.729224 234.107127 
L 166.729224 220.213512 
L 169.701534 220.213512 
L 169.701534 210.951101 
L 175.320753 210.951101 
L 175.320753 201.688691 
L 184.070607 201.688691 
L 184.070607 192.426281 
L 192.777656 192.426281 
L 192.777656 187.795075 
L 205.461739 187.795075 
L 205.461739 173.90146 
L 213.602443 173.90146 
L 213.602443 169.270255 
L 238.253904 169.270255 
L 238.253904 155.376639 
L 239.38078 155.376639 
L 239.38078 146.114229 
L 239.82144 146.114229 
L 239.82144 141.483024 
L 240.369181 141.483024 
L 240.369181 127.589408 
L 240.953683 127.589408 
L 240.953683 122.958203 
L 242.164045 122.958203 
L 242.164045 109.064587 
L 244.465301 109.064587 
L 244.465301 99.802177 
L 245.71116 99.802177 
L 245.71116 90.539766 
L 247.078681 90.539766 
L 247.078681 85.908561 
L 250.784552 85.908561 
L 250.784552 76.646151 
L 262.071102 76.646151 
L 262.071102 62.752535 
L 338.688 62.752535 
" style="fill:none;stroke:#f5deb3;stroke-linecap:square;stroke-width:4;"/>
   </g>
   <g id="line2d_2">
    <defs>
     <path d="M 0 7.778175 
L 7.778175 0 
L 0 -7.778175 
L -7.778175 0 
z
" id="mc300bba61f" style="stroke:#f5deb3;stroke-linejoin:miter;stroke-width:1.5;"/>
    </defs>
    <g>
     <use style="fill:#f5deb3;stroke:#f5deb3;stroke-linejoin:miter;stroke-width:1.5;" x="120.41399" xlink:href="#mc300bba61f" y="275.787974"/>
     <use style="fill:#f5deb3;stroke:#f5deb3;stroke-linejoin:miter;stroke-width:1.5;" x="192.777656" xlink:href="#mc300bba61f" y="192.426281"/>
     <use style="fill:#f5deb3;stroke:#f5deb3;stroke-linejoin:miter;stroke-width:1.5;" x="250.784552" xlink:href="#mc300bba61f" y="85.908561"/>
     <use style="fill:#f5deb3;stroke:#f5deb3;stroke-linejoin:miter;stroke-width:1.5;" x="262.071102" xlink:href="#mc300bba61f" y="62.752535"/>
     <use style="fill:#f5deb3;stroke:#f5deb3;stroke-linejoin:miter;stroke-width:1.5;" x="338.688" xlink:href="#mc300bba61f" y="62.752535"/>
    </g>
   </g>
   <g id="line2d_3">
    <path style="fill:none;stroke:#f5deb3;stroke-linecap:square;stroke-width:4;"/>
    <g/>
   </g>
   <g id="line2d_4">
    <path d="M 338.688 62.752535 
L 369.60768 35.706297 
" style="fill:none;stroke:#f5deb3;stroke-linecap:square;stroke-width:4;"/>
    <g>
     <use style="fill:#f5deb3;stroke:#f5deb3;stroke-linejoin:miter;stroke-width:1.5;" x="338.688" xlink:href="#mc300bba61f" y="62.752535"/>
     <use style="fill:#f5deb3;stroke:#f5deb3;stroke-linejoin:miter;stroke-width:1.5;" x="369.60768" xlink:href="#mc300bba61f" y="35.706297"/>
    </g>
   </g>
   <g id="matplotlib.axis_1">
    <g id="xtick_1">
     <g id="line2d_5">
      <path clip-path="url(#p31ed1f1a88)" d="M 57.6 298.944 
L 57.6 27.648 
" style="fill:none;stroke:#b0b0b0;stroke-linecap:square;stroke-width:0.8;"/>
     </g>
     <g id="line2d_6">
      <defs>
       <path d="M 0 0 
L 0 3.5 
" id="m4997675651" style="stroke:#000000;stroke-width:0.8;"/>
      </defs>
      <g>
       <use style="stroke:#000000;stroke-width:0.8;" x="57.6" xlink:href="#m4997675651" y="298.944"/>
      </g>
     </g>
     <g id="text_1">
      <!-- 0 -->
      <g transform="translate(51.2375 321.140875)scale(0.2 -0.2)">
       <defs>
        <path d="M 31.78125 66.40625 
Q 24.171875 66.40625 20.328125 58.90625 
Q 16.5 51.421875 16.5 36.375 
Q 16.5 21.390625 20.328125 13.890625 
Q 24.171875 6.390625 31.78125 6.390625 
Q 39.453125 6.390625 43.28125 13.890625 
Q 47.125 21.390625 47.125 36.375 
Q 47.125 51.421875 43.28125 58.90625 
Q 39.453125 66.40625 31.78125 66.40625 
z
M 31.78125 74.21875 
Q 44.046875 74.21875 50.515625 64.515625 
Q 56.984375 54.828125 56.984375 36.375 
Q 56.984375 17.96875 50.515625 8.265625 
Q 44.046875 -1.421875 31.78125 -1.421875 
Q 19.53125 -1.421875 13.0625 8.265625 
Q 6.59375 17.96875 6.59375 36.375 
Q 6.59375 54.828125 13.0625 64.515625 
Q 19.53125 74.21875 31.78125 74.21875 
z
" id="DejaVuSans-48"/>
       </defs>
       <use xlink:href="#DejaVuSans-48"/>
      </g>
     </g>
    </g>
    <g id="xtick_2">
     <g id="line2d_7">
      <path clip-path="url(#p31ed1f1a88)" d="M 137.910857 298.944 
L 137.910857 27.648 
" style="fill:none;stroke:#b0b0b0;stroke-linecap:square;stroke-width:0.8;"/>
     </g>
     <g id="line2d_8">
      <g>
       <use style="stroke:#000000;stroke-width:0.8;" x="137.910857" xlink:href="#m4997675651" y="298.944"/>
      </g>
     </g>
     <g id="text_2">
      <!-- 2 -->
      <g transform="translate(131.548357 321.140875)scale(0.2 -0.2)">
       <defs>
        <path d="M 19.1875 8.296875 
L 53.609375 8.296875 
L 53.609375 0 
L 7.328125 0 
L 7.328125 8.296875 
Q 12.9375 14.109375 22.625 23.890625 
Q 32.328125 33.6875 34.8125 36.53125 
Q 39.546875 41.84375 41.421875 45.53125 
Q 43.3125 49.21875 43.3125 52.78125 
Q 43.3125 58.59375 39.234375 62.25 
Q 35.15625 65.921875 28.609375 65.921875 
Q 23.96875 65.921875 18.8125 64.3125 
Q 13.671875 62.703125 7.8125 59.421875 
L 7.8125 69.390625 
Q 13.765625 71.78125 18.9375 73 
Q 24.125 74.21875 28.421875 74.21875 
Q 39.75 74.21875 46.484375 68.546875 
Q 53.21875 62.890625 53.21875 53.421875 
Q 53.21875 48.921875 51.53125 44.890625 
Q 49.859375 40.875 45.40625 35.40625 
Q 44.1875 33.984375 37.640625 27.21875 
Q 31.109375 20.453125 19.1875 8.296875 
z
" id="DejaVuSans-50"/>
       </defs>
       <use xlink:href="#DejaVuSans-50"/>
      </g>
     </g>
    </g>
    <g id="xtick_3">
     <g id="line2d_9">
      <path clip-path="url(#p31ed1f1a88)" d="M 218.221714 298.944 
L 218.221714 27.648 
" style="fill:none;stroke:#b0b0b0;stroke-linecap:square;stroke-width:0.8;"/>
     </g>
     <g id="line2d_10">
      <g>
       <use style="stroke:#000000;stroke-width:0.8;" x="218.221714" xlink:href="#m4997675651" y="298.944"/>
      </g>
     </g>
     <g id="text_3">
      <!-- 4 -->
      <g transform="translate(211.859214 321.140875)scale(0.2 -0.2)">
       <defs>
        <path d="M 37.796875 64.3125 
L 12.890625 25.390625 
L 37.796875 25.390625 
z
M 35.203125 72.90625 
L 47.609375 72.90625 
L 47.609375 25.390625 
L 58.015625 25.390625 
L 58.015625 17.1875 
L 47.609375 17.1875 
L 47.609375 0 
L 37.796875 0 
L 37.796875 17.1875 
L 4.890625 17.1875 
L 4.890625 26.703125 
z
" id="DejaVuSans-52"/>
       </defs>
       <use xlink:href="#DejaVuSans-52"/>
      </g>
     </g>
    </g>
    <g id="xtick_4">
     <g id="line2d_11">
      <path clip-path="url(#p31ed1f1a88)" d="M 298.532571 298.944 
L 298.532571 27.648 
" style="fill:none;stroke:#b0b0b0;stroke-linecap:square;stroke-width:0.8;"/>
     </g>
     <g id="line2d_12">
      <g>
       <use style="stroke:#000000;stroke-width:0.8;" x="298.532571" xlink:href="#m4997675651" y="298.944"/>
      </g>
     </g>
     <g id="text_4">
      <!-- 6 -->
      <g transform="translate(292.170071 321.140875)scale(0.2 -0.2)">
       <defs>
        <path d="M 33.015625 40.375 
Q 26.375 40.375 22.484375 35.828125 
Q 18.609375 31.296875 18.609375 23.390625 
Q 18.609375 15.53125 22.484375 10.953125 
Q 26.375 6.390625 33.015625 6.390625 
Q 39.65625 6.390625 43.53125 10.953125 
Q 47.40625 15.53125 47.40625 23.390625 
Q 47.40625 31.296875 43.53125 35.828125 
Q 39.65625 40.375 33.015625 40.375 
z
M 52.59375 71.296875 
L 52.59375 62.3125 
Q 48.875 64.0625 45.09375 64.984375 
Q 41.3125 65.921875 37.59375 65.921875 
Q 27.828125 65.921875 22.671875 59.328125 
Q 17.53125 52.734375 16.796875 39.40625 
Q 19.671875 43.65625 24.015625 45.921875 
Q 28.375 48.1875 33.59375 48.1875 
Q 44.578125 48.1875 50.953125 41.515625 
Q 57.328125 34.859375 57.328125 23.390625 
Q 57.328125 12.15625 50.6875 5.359375 
Q 44.046875 -1.421875 33.015625 -1.421875 
Q 20.359375 -1.421875 13.671875 8.265625 
Q 6.984375 17.96875 6.984375 36.375 
Q 6.984375 53.65625 15.1875 63.9375 
Q 23.390625 74.21875 37.203125 74.21875 
Q 40.921875 74.21875 44.703125 73.484375 
Q 48.484375 72.75 52.59375 71.296875 
z
" id="DejaVuSans-54"/>
       </defs>
       <use xlink:href="#DejaVuSans-54"/>
      </g>
     </g>
    </g>
    <g id="xtick_5">
     <g id="line2d_13">
      <path clip-path="url(#p31ed1f1a88)" d="M 97.755429 298.944 
L 97.755429 27.648 
" style="fill:none;stroke:#b0b0b0;stroke-linecap:square;stroke-width:0.8;"/>
     </g>
     <g id="line2d_14">
      <defs>
       <path d="M 0 0 
L 0 2 
" id="md87586e7f8" style="stroke:#000000;stroke-width:0.6;"/>
      </defs>
      <g>
       <use style="stroke:#000000;stroke-width:0.6;" x="97.755429" xlink:href="#md87586e7f8" y="298.944"/>
      </g>
     </g>
    </g>
    <g id="xtick_6">
     <g id="line2d_15">
      <path clip-path="url(#p31ed1f1a88)" d="M 178.066286 298.944 
L 178.066286 27.648 
" style="fill:none;stroke:#b0b0b0;stroke-linecap:square;stroke-width:0.8;"/>
     </g>
     <g id="line2d_16">
      <g>
       <use style="stroke:#000000;stroke-width:0.6;" x="178.066286" xlink:href="#md87586e7f8" y="298.944"/>
      </g>
     </g>
    </g>
    <g id="xtick_7">
     <g id="line2d_17">
      <path clip-path="url(#p31ed1f1a88)" d="M 258.377143 298.944 
L 258.377143 27.648 
" style="fill:none;stroke:#b0b0b0;stroke-linecap:square;stroke-width:0.8;"/>
     </g>
     <g id="line2d_18">
      <g>
       <use style="stroke:#000000;stroke-width:0.6;" x="258.377143" xlink:href="#md87586e7f8" y="298.944"/>
      </g>
     </g>
    </g>
    <g id="xtick_8">
     <g id="line2d_19">
      <path clip-path="url(#p31ed1f1a88)" d="M 338.688 298.944 
L 338.688 27.648 
" style="fill:none;stroke:#b0b0b0;stroke-linecap:square;stroke-width:0.8;"/>
     </g>
     <g id="line2d_20">
      <g>
       <use style="stroke:#000000;stroke-width:0.6;" x="338.688" xlink:href="#md87586e7f8" y="298.944"/>
      </g>
     </g>
    </g>
    <g id="text_5">
     <!-- log10(# f-evals / dimension) -->
     <g transform="translate(77.764078 342.217594)scale(0.17 -0.17)">
      <defs>
       <path d="M 9.421875 75.984375 
L 18.40625 75.984375 
L 18.40625 0 
L 9.421875 0 
z
" id="DejaVuSans-108"/>
       <path d="M 30.609375 48.390625 
Q 23.390625 48.390625 19.1875 42.75 
Q 14.984375 37.109375 14.984375 27.296875 
Q 14.984375 17.484375 19.15625 11.84375 
Q 23.34375 6.203125 30.609375 6.203125 
Q 37.796875 6.203125 41.984375 11.859375 
Q 46.1875 17.53125 46.1875 27.296875 
Q 46.1875 37.015625 41.984375 42.703125 
Q 37.796875 48.390625 30.609375 48.390625 
z
M 30.609375 56 
Q 42.328125 56 49.015625 48.375 
Q 55.71875 40.765625 55.71875 27.296875 
Q 55.71875 13.875 49.015625 6.21875 
Q 42.328125 -1.421875 30.609375 -1.421875 
Q 18.84375 -1.421875 12.171875 6.21875 
Q 5.515625 13.875 5.515625 27.296875 
Q 5.515625 40.765625 12.171875 48.375 
Q 18.84375 56 30.609375 56 
z
" id="DejaVuSans-111"/>
       <path d="M 45.40625 27.984375 
Q 45.40625 37.75 41.375 43.109375 
Q 37.359375 48.484375 30.078125 48.484375 
Q 22.859375 48.484375 18.828125 43.109375 
Q 14.796875 37.75 14.796875 27.984375 
Q 14.796875 18.265625 18.828125 12.890625 
Q 22.859375 7.515625 30.078125 7.515625 
Q 37.359375 7.515625 41.375 12.890625 
Q 45.40625 18.265625 45.40625 27.984375 
z
M 54.390625 6.78125 
Q 54.390625 -7.171875 48.1875 -13.984375 
Q 42 -20.796875 29.203125 -20.796875 
Q 24.46875 -20.796875 20.265625 -20.09375 
Q 16.0625 -19.390625 12.109375 -17.921875 
L 12.109375 -9.1875 
Q 16.0625 -11.328125 19.921875 -12.34375 
Q 23.78125 -13.375 27.78125 -13.375 
Q 36.625 -13.375 41.015625 -8.765625 
Q 45.40625 -4.15625 45.40625 5.171875 
L 45.40625 9.625 
Q 42.625 4.78125 38.28125 2.390625 
Q 33.9375 0 27.875 0 
Q 17.828125 0 11.671875 7.65625 
Q 5.515625 15.328125 5.515625 27.984375 
Q 5.515625 40.671875 11.671875 48.328125 
Q 17.828125 56 27.875 56 
Q 33.9375 56 38.28125 53.609375 
Q 42.625 51.21875 45.40625 46.390625 
L 45.40625 54.6875 
L 54.390625 54.6875 
z
" id="DejaVuSans-103"/>
       <path d="M 12.40625 8.296875 
L 28.515625 8.296875 
L 28.515625 63.921875 
L 10.984375 60.40625 
L 10.984375 69.390625 
L 28.421875 72.90625 
L 38.28125 72.90625 
L 38.28125 8.296875 
L 54.390625 8.296875 
L 54.390625 0 
L 12.40625 0 
z
" id="DejaVuSans-49"/>
       <path d="M 31 75.875 
Q 24.46875 64.65625 21.28125 53.65625 
Q 18.109375 42.671875 18.109375 31.390625 
Q 18.109375 20.125 21.3125 9.0625 
Q 24.515625 -2 31 -13.1875 
L 23.1875 -13.1875 
Q 15.875 -1.703125 12.234375 9.375 
Q 8.59375 20.453125 8.59375 31.390625 
Q 8.59375 42.28125 12.203125 53.3125 
Q 15.828125 64.359375 23.1875 75.875 
z
" id="DejaVuSans-40"/>
       <path d="M 51.125 44 
L 36.921875 44 
L 32.8125 27.6875 
L 47.125 27.6875 
z
M 43.796875 71.78125 
L 38.71875 51.515625 
L 52.984375 51.515625 
L 58.109375 71.78125 
L 65.921875 71.78125 
L 60.890625 51.515625 
L 76.125 51.515625 
L 76.125 44 
L 58.984375 44 
L 54.984375 27.6875 
L 70.515625 27.6875 
L 70.515625 20.21875 
L 53.078125 20.21875 
L 48 0 
L 40.1875 0 
L 45.21875 20.21875 
L 30.90625 20.21875 
L 25.875 0 
L 18.015625 0 
L 23.09375 20.21875 
L 7.71875 20.21875 
L 7.71875 27.6875 
L 24.90625 27.6875 
L 29 44 
L 13.28125 44 
L 13.28125 51.515625 
L 30.90625 51.515625 
L 35.890625 71.78125 
z
" id="DejaVuSans-35"/>
       <path id="DejaVuSans-32"/>
       <path d="M 37.109375 75.984375 
L 37.109375 68.5 
L 28.515625 68.5 
Q 23.6875 68.5 21.796875 66.546875 
Q 19.921875 64.59375 19.921875 59.515625 
L 19.921875 54.6875 
L 34.71875 54.6875 
L 34.71875 47.703125 
L 19.921875 47.703125 
L 19.921875 0 
L 10.890625 0 
L 10.890625 47.703125 
L 2.296875 47.703125 
L 2.296875 54.6875 
L 10.890625 54.6875 
L 10.890625 58.5 
Q 10.890625 67.625 15.140625 71.796875 
Q 19.390625 75.984375 28.609375 75.984375 
z
" id="DejaVuSans-102"/>
       <path d="M 4.890625 31.390625 
L 31.203125 31.390625 
L 31.203125 23.390625 
L 4.890625 23.390625 
z
" id="DejaVuSans-45"/>
       <path d="M 56.203125 29.59375 
L 56.203125 25.203125 
L 14.890625 25.203125 
Q 15.484375 15.921875 20.484375 11.0625 
Q 25.484375 6.203125 34.421875 6.203125 
Q 39.59375 6.203125 44.453125 7.46875 
Q 49.3125 8.734375 54.109375 11.28125 
L 54.109375 2.78125 
Q 49.265625 0.734375 44.1875 -0.34375 
Q 39.109375 -1.421875 33.890625 -1.421875 
Q 20.796875 -1.421875 13.15625 6.1875 
Q 5.515625 13.8125 5.515625 26.8125 
Q 5.515625 40.234375 12.765625 48.109375 
Q 20.015625 56 32.328125 56 
Q 43.359375 56 49.78125 48.890625 
Q 56.203125 41.796875 56.203125 29.59375 
z
M 47.21875 32.234375 
Q 47.125 39.59375 43.09375 43.984375 
Q 39.0625 48.390625 32.421875 48.390625 
Q 24.90625 48.390625 20.390625 44.140625 
Q 15.875 39.890625 15.1875 32.171875 
z
" id="DejaVuSans-101"/>
       <path d="M 2.984375 54.6875 
L 12.5 54.6875 
L 29.59375 8.796875 
L 46.6875 54.6875 
L 56.203125 54.6875 
L 35.6875 0 
L 23.484375 0 
z
" id="DejaVuSans-118"/>
       <path d="M 34.28125 27.484375 
Q 23.390625 27.484375 19.1875 25 
Q 14.984375 22.515625 14.984375 16.5 
Q 14.984375 11.71875 18.140625 8.90625 
Q 21.296875 6.109375 26.703125 6.109375 
Q 34.1875 6.109375 38.703125 11.40625 
Q 43.21875 16.703125 43.21875 25.484375 
L 43.21875 27.484375 
z
M 52.203125 31.203125 
L 52.203125 0 
L 43.21875 0 
L 43.21875 8.296875 
Q 40.140625 3.328125 35.546875 0.953125 
Q 30.953125 -1.421875 24.3125 -1.421875 
Q 15.921875 -1.421875 10.953125 3.296875 
Q 6 8.015625 6 15.921875 
Q 6 25.140625 12.171875 29.828125 
Q 18.359375 34.515625 30.609375 34.515625 
L 43.21875 34.515625 
L 43.21875 35.40625 
Q 43.21875 41.609375 39.140625 45 
Q 35.0625 48.390625 27.6875 48.390625 
Q 23 48.390625 18.546875 47.265625 
Q 14.109375 46.140625 10.015625 43.890625 
L 10.015625 52.203125 
Q 14.9375 54.109375 19.578125 55.046875 
Q 24.21875 56 28.609375 56 
Q 40.484375 56 46.34375 49.84375 
Q 52.203125 43.703125 52.203125 31.203125 
z
" id="DejaVuSans-97"/>
       <path d="M 44.28125 53.078125 
L 44.28125 44.578125 
Q 40.484375 46.53125 36.375 47.5 
Q 32.28125 48.484375 27.875 48.484375 
Q 21.1875 48.484375 17.84375 46.4375 
Q 14.5 44.390625 14.5 40.28125 
Q 14.5 37.15625 16.890625 35.375 
Q 19.28125 33.59375 26.515625 31.984375 
L 29.59375 31.296875 
Q 39.15625 29.25 43.1875 25.515625 
Q 47.21875 21.78125 47.21875 15.09375 
Q 47.21875 7.46875 41.1875 3.015625 
Q 35.15625 -1.421875 24.609375 -1.421875 
Q 20.21875 -1.421875 15.453125 -0.5625 
Q 10.6875 0.296875 5.421875 2 
L 5.421875 11.28125 
Q 10.40625 8.6875 15.234375 7.390625 
Q 20.0625 6.109375 24.8125 6.109375 
Q 31.15625 6.109375 34.5625 8.28125 
Q 37.984375 10.453125 37.984375 14.40625 
Q 37.984375 18.0625 35.515625 20.015625 
Q 33.0625 21.96875 24.703125 23.78125 
L 21.578125 24.515625 
Q 13.234375 26.265625 9.515625 29.90625 
Q 5.8125 33.546875 5.8125 39.890625 
Q 5.8125 47.609375 11.28125 51.796875 
Q 16.75 56 26.8125 56 
Q 31.78125 56 36.171875 55.265625 
Q 40.578125 54.546875 44.28125 53.078125 
z
" id="DejaVuSans-115"/>
       <path d="M 25.390625 72.90625 
L 33.6875 72.90625 
L 8.296875 -9.28125 
L 0 -9.28125 
z
" id="DejaVuSans-47"/>
       <path d="M 45.40625 46.390625 
L 45.40625 75.984375 
L 54.390625 75.984375 
L 54.390625 0 
L 45.40625 0 
L 45.40625 8.203125 
Q 42.578125 3.328125 38.25 0.953125 
Q 33.9375 -1.421875 27.875 -1.421875 
Q 17.96875 -1.421875 11.734375 6.484375 
Q 5.515625 14.40625 5.515625 27.296875 
Q 5.515625 40.1875 11.734375 48.09375 
Q 17.96875 56 27.875 56 
Q 33.9375 56 38.25 53.625 
Q 42.578125 51.265625 45.40625 46.390625 
z
M 14.796875 27.296875 
Q 14.796875 17.390625 18.875 11.75 
Q 22.953125 6.109375 30.078125 6.109375 
Q 37.203125 6.109375 41.296875 11.75 
Q 45.40625 17.390625 45.40625 27.296875 
Q 45.40625 37.203125 41.296875 42.84375 
Q 37.203125 48.484375 30.078125 48.484375 
Q 22.953125 48.484375 18.875 42.84375 
Q 14.796875 37.203125 14.796875 27.296875 
z
" id="DejaVuSans-100"/>
       <path d="M 9.421875 54.6875 
L 18.40625 54.6875 
L 18.40625 0 
L 9.421875 0 
z
M 9.421875 75.984375 
L 18.40625 75.984375 
L 18.40625 64.59375 
L 9.421875 64.59375 
z
" id="DejaVuSans-105"/>
       <path d="M 52 44.1875 
Q 55.375 50.25 60.0625 53.125 
Q 64.75 56 71.09375 56 
Q 79.640625 56 84.28125 50.015625 
Q 88.921875 44.046875 88.921875 33.015625 
L 88.921875 0 
L 79.890625 0 
L 79.890625 32.71875 
Q 79.890625 40.578125 77.09375 44.375 
Q 74.3125 48.1875 68.609375 48.1875 
Q 61.625 48.1875 57.5625 43.546875 
Q 53.515625 38.921875 53.515625 30.90625 
L 53.515625 0 
L 44.484375 0 
L 44.484375 32.71875 
Q 44.484375 40.625 41.703125 44.40625 
Q 38.921875 48.1875 33.109375 48.1875 
Q 26.21875 48.1875 22.15625 43.53125 
Q 18.109375 38.875 18.109375 30.90625 
L 18.109375 0 
L 9.078125 0 
L 9.078125 54.6875 
L 18.109375 54.6875 
L 18.109375 46.1875 
Q 21.1875 51.21875 25.484375 53.609375 
Q 29.78125 56 35.6875 56 
Q 41.65625 56 45.828125 52.96875 
Q 50 49.953125 52 44.1875 
z
" id="DejaVuSans-109"/>
       <path d="M 54.890625 33.015625 
L 54.890625 0 
L 45.90625 0 
L 45.90625 32.71875 
Q 45.90625 40.484375 42.875 44.328125 
Q 39.84375 48.1875 33.796875 48.1875 
Q 26.515625 48.1875 22.3125 43.546875 
Q 18.109375 38.921875 18.109375 30.90625 
L 18.109375 0 
L 9.078125 0 
L 9.078125 54.6875 
L 18.109375 54.6875 
L 18.109375 46.1875 
Q 21.34375 51.125 25.703125 53.5625 
Q 30.078125 56 35.796875 56 
Q 45.21875 56 50.046875 50.171875 
Q 54.890625 44.34375 54.890625 33.015625 
z
" id="DejaVuSans-110"/>
       <path d="M 8.015625 75.875 
L 15.828125 75.875 
Q 23.140625 64.359375 26.78125 53.3125 
Q 30.421875 42.28125 30.421875 31.390625 
Q 30.421875 20.453125 26.78125 9.375 
Q 23.140625 -1.703125 15.828125 -13.1875 
L 8.015625 -13.1875 
Q 14.5 -2 17.703125 9.0625 
Q 20.90625 20.125 20.90625 31.390625 
Q 20.90625 42.671875 17.703125 53.65625 
Q 14.5 64.65625 8.015625 75.875 
z
" id="DejaVuSans-41"/>
      </defs>
      <use xlink:href="#DejaVuSans-108"/>
      <use x="27.783203" xlink:href="#DejaVuSans-111"/>
      <use x="88.964844" xlink:href="#DejaVuSans-103"/>
      <use x="152.441406" xlink:href="#DejaVuSans-49"/>
      <use x="216.064453" xlink:href="#DejaVuSans-48"/>
      <use x="279.6875" xlink:href="#DejaVuSans-40"/>
      <use x="318.701172" xlink:href="#DejaVuSans-35"/>
      <use x="402.490234" xlink:href="#DejaVuSans-32"/>
      <use x="434.277344" xlink:href="#DejaVuSans-102"/>
      <use x="463.982422" xlink:href="#DejaVuSans-45"/>
      <use x="500.066406" xlink:href="#DejaVuSans-101"/>
      <use x="561.589844" xlink:href="#DejaVuSans-118"/>
      <use x="620.769531" xlink:href="#DejaVuSans-97"/>
      <use x="682.048828" xlink:href="#DejaVuSans-108"/>
      <use x="709.832031" xlink:href="#DejaVuSans-115"/>
      <use x="761.931641" xlink:href="#DejaVuSans-32"/>
      <use x="793.71875" xlink:href="#DejaVuSans-47"/>
      <use x="827.410156" xlink:href="#DejaVuSans-32"/>
      <use x="859.197266" xlink:href="#DejaVuSans-100"/>
      <use x="922.673828" xlink:href="#DejaVuSans-105"/>
      <use x="950.457031" xlink:href="#DejaVuSans-109"/>
      <use x="1047.869141" xlink:href="#DejaVuSans-101"/>
      <use x="1109.392578" xlink:href="#DejaVuSans-110"/>
      <use x="1172.771484" xlink:href="#DejaVuSans-115"/>
      <use x="1224.871094" xlink:href="#DejaVuSans-105"/>
      <use x="1252.654297" xlink:href="#DejaVuSans-111"/>
      <use x="1313.835938" xlink:href="#DejaVuSans-110"/>
      <use x="1377.214844" xlink:href="#DejaVuSans-41"/>
     </g>
    </g>
   </g>
   <g id="matplotlib.axis_2">
    <g id="ytick_1">
     <g id="line2d_21">
      <path clip-path="url(#p31ed1f1a88)" d="M 57.6 298.944 
L 338.688 298.944 
" style="fill:none;stroke:#b0b0b0;stroke-linecap:square;stroke-width:0.8;"/>
     </g>
     <g id="line2d_22">
      <defs>
       <path d="M 0 0 
L -3.5 0 
" id="m9395663b26" style="stroke:#000000;stroke-width:0.8;"/>
      </defs>
      <g>
       <use style="stroke:#000000;stroke-width:0.8;" x="57.6" xlink:href="#m9395663b26" y="298.944"/>
      </g>
     </g>
     <g id="text_6">
      <!-- 0.0 -->
      <g transform="translate(25.155 305.02275)scale(0.16 -0.16)">
       <defs>
        <path d="M 10.6875 12.40625 
L 21 12.40625 
L 21 0 
L 10.6875 0 
z
" id="DejaVuSans-46"/>
       </defs>
       <use xlink:href="#DejaVuSans-48"/>
       <use x="63.623047" xlink:href="#DejaVuSans-46"/>
       <use x="95.410156" xlink:href="#DejaVuSans-48"/>
      </g>
     </g>
    </g>
    <g id="ytick_2">
     <g id="line2d_23">
      <path clip-path="url(#p31ed1f1a88)" d="M 57.6 245.22202 
L 338.688 245.22202 
" style="fill:none;stroke:#b0b0b0;stroke-linecap:square;stroke-width:0.8;"/>
     </g>
     <g id="line2d_24">
      <g>
       <use style="stroke:#000000;stroke-width:0.8;" x="57.6" xlink:href="#m9395663b26" y="245.22202"/>
      </g>
     </g>
     <g id="text_7">
      <!-- 0.2 -->
      <g transform="translate(25.155 251.30077)scale(0.16 -0.16)">
       <use xlink:href="#DejaVuSans-48"/>
       <use x="63.623047" xlink:href="#DejaVuSans-46"/>
       <use x="95.410156" xlink:href="#DejaVuSans-50"/>
      </g>
     </g>
    </g>
    <g id="ytick_3">
     <g id="line2d_25">
      <path clip-path="url(#p31ed1f1a88)" d="M 57.6 191.50004 
L 338.688 191.50004 
" style="fill:none;stroke:#b0b0b0;stroke-linecap:square;stroke-width:0.8;"/>
     </g>
     <g id="line2d_26">
      <g>
       <use style="stroke:#000000;stroke-width:0.8;" x="57.6" xlink:href="#m9395663b26" y="191.50004"/>
      </g>
     </g>
     <g id="text_8">
      <!-- 0.4 -->
      <g transform="translate(25.155 197.57879)scale(0.16 -0.16)">
       <use xlink:href="#DejaVuSans-48"/>
       <use x="63.623047" xlink:href="#DejaVuSans-46"/>
       <use x="95.410156" xlink:href="#DejaVuSans-52"/>
      </g>
     </g>
    </g>
    <g id="ytick_4">
     <g id="line2d_27">
      <path clip-path="url(#p31ed1f1a88)" d="M 57.6 137.778059 
L 338.688 137.778059 
" style="fill:none;stroke:#b0b0b0;stroke-linecap:square;stroke-width:0.8;"/>
     </g>
     <g id="line2d_28">
      <g>
       <use style="stroke:#000000;stroke-width:0.8;" x="57.6" xlink:href="#m9395663b26" y="137.778059"/>
      </g>
     </g>
     <g id="text_9">
      <!-- 0.6 -->
      <g transform="translate(25.155 143.856809)scale(0.16 -0.16)">
       <use xlink:href="#DejaVuSans-48"/>
       <use x="63.623047" xlink:href="#DejaVuSans-46"/>
       <use x="95.410156" xlink:href="#DejaVuSans-54"/>
      </g>
     </g>
    </g>
    <g id="ytick_5">
     <g id="line2d_29">
      <path clip-path="url(#p31ed1f1a88)" d="M 57.6 84.056079 
L 338.688 84.056079 
" style="fill:none;stroke:#b0b0b0;stroke-linecap:square;stroke-width:0.8;"/>
     </g>
     <g id="line2d_30">
      <g>
       <use style="stroke:#000000;stroke-width:0.8;" x="57.6" xlink:href="#m9395663b26" y="84.056079"/>
      </g>
     </g>
     <g id="text_10">
      <!-- 0.8 -->
      <g transform="translate(25.155 90.134829)scale(0.16 -0.16)">
       <defs>
        <path d="M 31.78125 34.625 
Q 24.75 34.625 20.71875 30.859375 
Q 16.703125 27.09375 16.703125 20.515625 
Q 16.703125 13.921875 20.71875 10.15625 
Q 24.75 6.390625 31.78125 6.390625 
Q 38.8125 6.390625 42.859375 10.171875 
Q 46.921875 13.96875 46.921875 20.515625 
Q 46.921875 27.09375 42.890625 30.859375 
Q 38.875 34.625 31.78125 34.625 
z
M 21.921875 38.8125 
Q 15.578125 40.375 12.03125 44.71875 
Q 8.5 49.078125 8.5 55.328125 
Q 8.5 64.0625 14.71875 69.140625 
Q 20.953125 74.21875 31.78125 74.21875 
Q 42.671875 74.21875 48.875 69.140625 
Q 55.078125 64.0625 55.078125 55.328125 
Q 55.078125 49.078125 51.53125 44.71875 
Q 48 40.375 41.703125 38.8125 
Q 48.828125 37.15625 52.796875 32.3125 
Q 56.78125 27.484375 56.78125 20.515625 
Q 56.78125 9.90625 50.3125 4.234375 
Q 43.84375 -1.421875 31.78125 -1.421875 
Q 19.734375 -1.421875 13.25 4.234375 
Q 6.78125 9.90625 6.78125 20.515625 
Q 6.78125 27.484375 10.78125 32.3125 
Q 14.796875 37.15625 21.921875 38.8125 
z
M 18.3125 54.390625 
Q 18.3125 48.734375 21.84375 45.5625 
Q 25.390625 42.390625 31.78125 42.390625 
Q 38.140625 42.390625 41.71875 45.5625 
Q 45.3125 48.734375 45.3125 54.390625 
Q 45.3125 60.0625 41.71875 63.234375 
Q 38.140625 66.40625 31.78125 66.40625 
Q 25.390625 66.40625 21.84375 63.234375 
Q 18.3125 60.0625 18.3125 54.390625 
z
" id="DejaVuSans-56"/>
       </defs>
       <use xlink:href="#DejaVuSans-48"/>
       <use x="63.623047" xlink:href="#DejaVuSans-46"/>
       <use x="95.410156" xlink:href="#DejaVuSans-56"/>
      </g>
     </g>
    </g>
    <g id="ytick_6">
     <g id="line2d_31">
      <path clip-path="url(#p31ed1f1a88)" d="M 57.6 30.334099 
L 338.688 30.334099 
" style="fill:none;stroke:#b0b0b0;stroke-linecap:square;stroke-width:0.8;"/>
     </g>
     <g id="line2d_32">
      <g>
       <use style="stroke:#000000;stroke-width:0.8;" x="57.6" xlink:href="#m9395663b26" y="30.334099"/>
      </g>
     </g>
     <g id="text_11">
      <!-- 1.0 -->
      <g transform="translate(25.155 36.412849)scale(0.16 -0.16)">
       <use xlink:href="#DejaVuSans-49"/>
       <use x="63.623047" xlink:href="#DejaVuSans-46"/>
       <use x="95.410156" xlink:href="#DejaVuSans-48"/>
      </g>
     </g>
    </g>
    <g id="text_12">
     <!-- Fraction of function,target pairs -->
     <g transform="translate(17.619531 297.681)rotate(-90)scale(0.17 -0.17)">
      <defs>
       <path d="M 9.8125 72.90625 
L 51.703125 72.90625 
L 51.703125 64.59375 
L 19.671875 64.59375 
L 19.671875 43.109375 
L 48.578125 43.109375 
L 48.578125 34.8125 
L 19.671875 34.8125 
L 19.671875 0 
L 9.8125 0 
z
" id="DejaVuSans-70"/>
       <path d="M 41.109375 46.296875 
Q 39.59375 47.171875 37.8125 47.578125 
Q 36.03125 48 33.890625 48 
Q 26.265625 48 22.1875 43.046875 
Q 18.109375 38.09375 18.109375 28.8125 
L 18.109375 0 
L 9.078125 0 
L 9.078125 54.6875 
L 18.109375 54.6875 
L 18.109375 46.1875 
Q 20.953125 51.171875 25.484375 53.578125 
Q 30.03125 56 36.53125 56 
Q 37.453125 56 38.578125 55.875 
Q 39.703125 55.765625 41.0625 55.515625 
z
" id="DejaVuSans-114"/>
       <path d="M 48.78125 52.59375 
L 48.78125 44.1875 
Q 44.96875 46.296875 41.140625 47.34375 
Q 37.3125 48.390625 33.40625 48.390625 
Q 24.65625 48.390625 19.8125 42.84375 
Q 14.984375 37.3125 14.984375 27.296875 
Q 14.984375 17.28125 19.8125 11.734375 
Q 24.65625 6.203125 33.40625 6.203125 
Q 37.3125 6.203125 41.140625 7.25 
Q 44.96875 8.296875 48.78125 10.40625 
L 48.78125 2.09375 
Q 45.015625 0.34375 40.984375 -0.53125 
Q 36.96875 -1.421875 32.421875 -1.421875 
Q 20.0625 -1.421875 12.78125 6.34375 
Q 5.515625 14.109375 5.515625 27.296875 
Q 5.515625 40.671875 12.859375 48.328125 
Q 20.21875 56 33.015625 56 
Q 37.15625 56 41.109375 55.140625 
Q 45.0625 54.296875 48.78125 52.59375 
z
" id="DejaVuSans-99"/>
       <path d="M 18.3125 70.21875 
L 18.3125 54.6875 
L 36.8125 54.6875 
L 36.8125 47.703125 
L 18.3125 47.703125 
L 18.3125 18.015625 
Q 18.3125 11.328125 20.140625 9.421875 
Q 21.96875 7.515625 27.59375 7.515625 
L 36.8125 7.515625 
L 36.8125 0 
L 27.59375 0 
Q 17.1875 0 13.234375 3.875 
Q 9.28125 7.765625 9.28125 18.015625 
L 9.28125 47.703125 
L 2.6875 47.703125 
L 2.6875 54.6875 
L 9.28125 54.6875 
L 9.28125 70.21875 
z
" id="DejaVuSans-116"/>
       <path d="M 8.5 21.578125 
L 8.5 54.6875 
L 17.484375 54.6875 
L 17.484375 21.921875 
Q 17.484375 14.15625 20.5 10.265625 
Q 23.53125 6.390625 29.59375 6.390625 
Q 36.859375 6.390625 41.078125 11.03125 
Q 45.3125 15.671875 45.3125 23.6875 
L 45.3125 54.6875 
L 54.296875 54.6875 
L 54.296875 0 
L 45.3125 0 
L 45.3125 8.40625 
Q 42.046875 3.421875 37.71875 1 
Q 33.40625 -1.421875 27.6875 -1.421875 
Q 18.265625 -1.421875 13.375 4.4375 
Q 8.5 10.296875 8.5 21.578125 
z
M 31.109375 56 
z
" id="DejaVuSans-117"/>
       <path d="M 11.71875 12.40625 
L 22.015625 12.40625 
L 22.015625 4 
L 14.015625 -11.625 
L 7.71875 -11.625 
L 11.71875 4 
z
" id="DejaVuSans-44"/>
       <path d="M 18.109375 8.203125 
L 18.109375 -20.796875 
L 9.078125 -20.796875 
L 9.078125 54.6875 
L 18.109375 54.6875 
L 18.109375 46.390625 
Q 20.953125 51.265625 25.265625 53.625 
Q 29.59375 56 35.59375 56 
Q 45.5625 56 51.78125 48.09375 
Q 58.015625 40.1875 58.015625 27.296875 
Q 58.015625 14.40625 51.78125 6.484375 
Q 45.5625 -1.421875 35.59375 -1.421875 
Q 29.59375 -1.421875 25.265625 0.953125 
Q 20.953125 3.328125 18.109375 8.203125 
z
M 48.6875 27.296875 
Q 48.6875 37.203125 44.609375 42.84375 
Q 40.53125 48.484375 33.40625 48.484375 
Q 26.265625 48.484375 22.1875 42.84375 
Q 18.109375 37.203125 18.109375 27.296875 
Q 18.109375 17.390625 22.1875 11.75 
Q 26.265625 6.109375 33.40625 6.109375 
Q 40.53125 6.109375 44.609375 11.75 
Q 48.6875 17.390625 48.6875 27.296875 
z
" id="DejaVuSans-112"/>
      </defs>
      <use xlink:href="#DejaVuSans-70"/>
      <use x="50.269531" xlink:href="#DejaVuSans-114"/>
      <use x="91.382812" xlink:href="#DejaVuSans-97"/>
      <use x="152.662109" xlink:href="#DejaVuSans-99"/>
      <use x="207.642578" xlink:href="#DejaVuSans-116"/>
      <use x="246.851562" xlink:href="#DejaVuSans-105"/>
      <use x="274.634766" xlink:href="#DejaVuSans-111"/>
      <use x="335.816406" xlink:href="#DejaVuSans-110"/>
      <use x="399.195312" xlink:href="#DejaVuSans-32"/>
      <use x="430.982422" xlink:href="#DejaVuSans-111"/>
      <use x="492.164062" xlink:href="#DejaVuSans-102"/>
      <use x="527.369141" xlink:href="#DejaVuSans-32"/>
      <use x="559.15625" xlink:href="#DejaVuSans-102"/>
      <use x="594.361328" xlink:href="#DejaVuSans-117"/>
      <use x="657.740234" xlink:href="#DejaVuSans-110"/>
      <use x="721.119141" xlink:href="#DejaVuSans-99"/>
      <use x="776.099609" xlink:href="#DejaVuSans-116"/>
      <use x="815.308594" xlink:href="#DejaVuSans-105"/>
      <use x="843.091797" xlink:href="#DejaVuSans-111"/>
      <use x="904.273438" xlink:href="#DejaVuSans-110"/>
      <use x="967.652344" xlink:href="#DejaVuSans-44"/>
      <use x="999.439453" xlink:href="#DejaVuSans-116"/>
      <use x="1038.648438" xlink:href="#DejaVuSans-97"/>
      <use x="1099.927734" xlink:href="#DejaVuSans-114"/>
      <use x="1139.291016" xlink:href="#DejaVuSans-103"/>
      <use x="1202.767578" xlink:href="#DejaVuSans-101"/>
      <use x="1264.291016" xlink:href="#DejaVuSans-116"/>
      <use x="1303.5" xlink:href="#DejaVuSans-32"/>
      <use x="1335.287109" xlink:href="#DejaVuSans-112"/>
      <use x="1398.763672" xlink:href="#DejaVuSans-97"/>
      <use x="1460.042969" xlink:href="#DejaVuSans-105"/>
      <use x="1487.826172" xlink:href="#DejaVuSans-114"/>
      <use x="1528.939453" xlink:href="#DejaVuSans-115"/>
     </g>
    </g>
   </g>
   <g id="line2d_33">
    <defs>
     <path d="M 0 1.5 
C 0.397805 1.5 0.77937 1.341951 1.06066 1.06066 
C 1.341951 0.77937 1.5 0.397805 1.5 0 
C 1.5 -0.397805 1.341951 -0.77937 1.06066 -1.06066 
C 0.77937 -1.341951 0.397805 -1.5 0 -1.5 
C -0.397805 -1.5 -0.77937 -1.341951 -1.06066 -1.06066 
C -1.341951 -0.77937 -1.5 -0.397805 -1.5 0 
C -1.5 0.397805 -1.341951 0.77937 -1.06066 1.06066 
C -0.77937 1.341951 -0.397805 1.5 0 1.5 
z
" id="mfe04d134f9" style="stroke:#f5deb3;"/>
    </defs>
    <g>
     <use style="fill:#f5deb3;stroke:#f5deb3;" x="262.071102" xlink:href="#mfe04d134f9" y="62.752535"/>
     <use style="fill:#f5deb3;stroke:#f5deb3;" x="262.071102" xlink:href="#mfe04d134f9" y="62.752535"/>
    </g>
   </g>
   <g id="line2d_34">
    <defs>
     <path d="M 0 1.5 
C 0.397805 1.5 0.77937 1.341951 1.06066 1.06066 
C 1.341951 0.77937 1.5 0.397805 1.5 0 
C 1.5 -0.397805 1.341951 -0.77937 1.06066 -1.06066 
C 0.77937 -1.341951 0.397805 -1.5 0 -1.5 
C -0.397805 -1.5 -0.77937 -1.341951 -1.06066 -1.06066 
C -1.341951 -0.77937 -1.5 -0.397805 -1.5 0 
C -1.5 0.397805 -1.341951 0.77937 -1.06066 1.06066 
C -0.77937 1.341951 -0.397805 1.5 0 1.5 
z
" id="m263ea98e20" style="stroke:#000080;"/>
    </defs>
    <g>
     <use style="fill:#000080;stroke:#000080;" x="239.333202" xlink:href="#m263ea98e20" y="129.44189"/>
     <use style="fill:#000080;stroke:#000080;" x="239.333202" xlink:href="#m263ea98e20" y="129.44189"/>
    </g>
   </g>
   <g id="line2d_35">
    <path d="M 38.440992 298.944 
L 38.440992 297.091518 
L 50.52898 297.091518 
L 50.52898 296.165277 
L 57.6 296.165277 
L 57.6 295.702156 
L 66.508432 295.702156 
L 66.508432 294.312795 
L 69.687988 294.312795 
L 69.687988 293.849674 
L 72.376266 293.849674 
L 72.376266 292.460313 
L 81.775977 292.460313 
L 81.775977 291.534072 
L 84.464254 291.534072 
L 84.464254 290.14471 
L 85.66744 290.14471 
L 85.66744 288.292228 
L 86.792945 288.292228 
L 86.792945 287.365987 
L 90.684409 287.365987 
L 90.684409 286.439746 
L 99.41757 286.439746 
L 99.41757 285.513505 
L 99.938184 285.513505 
L 99.938184 285.050384 
L 104.434538 285.050384 
L 104.434538 284.124143 
L 105.951954 284.124143 
L 105.951954 283.661023 
L 107.347841 283.661023 
L 107.347841 282.734782 
L 108.006005 282.734782 
L 108.006005 282.271661 
L 113.965867 282.271661 
L 113.965867 281.808541 
L 114.193835 281.808541 
L 114.193835 281.34542 
L 116.121606 281.34542 
L 116.121606 280.419179 
L 116.522527 280.419179 
L 116.522527 279.956059 
L 117.857331 279.956059 
L 117.857331 279.492938 
L 121.489881 279.492938 
L 121.489881 279.029818 
L 121.638301 279.029818 
L 121.638301 277.177336 
L 122.643312 277.177336 
L 122.643312 276.714215 
L 124.743806 276.714215 
L 124.743806 276.251095 
L 126.3947 276.251095 
L 126.3947 275.787974 
L 128.209594 275.787974 
L 128.209594 275.324854 
L 128.807571 275.324854 
L 128.807571 274.861733 
L 130.218525 274.861733 
L 130.218525 273.935492 
L 130.576266 273.935492 
L 130.664567 272.08301 
L 132.893889 272.08301 
L 132.893889 271.619889 
L 134.236034 271.619889 
L 134.236034 270.693648 
L 135.144899 270.693648 
L 135.144899 270.230528 
L 135.813153 270.230528 
L 135.813153 268.378046 
L 137.077422 268.378046 
L 137.138292 267.451805 
L 139.413734 267.451805 
L 139.413734 266.988684 
L 139.625765 266.988684 
L 139.625765 266.062443 
L 140.297583 266.062443 
L 140.297583 265.136202 
L 141.848763 265.136202 
L 141.848763 264.209961 
L 142.261275 264.209961 
L 142.261275 263.28372 
L 144.787023 263.28372 
L 144.787023 262.8206 
L 146.288102 262.8206 
L 146.288102 262.357479 
L 147.670154 262.357479 
L 147.670154 261.894358 
L 147.933891 261.894358 
L 147.933891 260.968117 
L 149.043029 260.968117 
L 149.043029 260.504997 
L 150.542526 260.504997 
L 150.542526 260.041876 
L 151.844975 260.041876 
L 151.897188 259.115635 
L 153.105587 259.115635 
L 153.105587 258.652515 
L 153.703291 258.652515 
L 153.703291 257.726274 
L 156.914157 257.726274 
L 156.914157 257.263153 
L 157.089232 257.263153 
L 157.089232 256.800033 
L 159.26971 256.800033 
L 159.26971 255.873792 
L 159.6749 255.873792 
L 159.6749 254.947551 
L 160.537682 254.947551 
L 160.537682 254.48443 
L 160.899212 254.48443 
L 160.899212 254.02131 
L 161.084903 254.02131 
L 161.084903 253.558189 
L 161.39006 253.558189 
L 161.39006 252.631948 
L 161.808503 252.631948 
L 161.808503 252.168828 
L 163.455871 252.168828 
L 163.496131 250.779466 
L 163.814908 250.779466 
L 163.814908 250.316346 
L 164.435497 250.316346 
L 164.435497 249.853225 
L 165.326839 249.853225 
L 165.326839 249.390104 
L 165.637836 249.390104 
L 165.637836 248.926984 
L 166.628709 248.926984 
L 166.628709 248.463863 
L 168.334579 248.463863 
L 168.334579 247.074502 
L 168.982583 247.074502 
L 168.982583 246.148261 
L 169.813865 246.148261 
L 169.813865 245.68514 
L 170.237885 245.68514 
L 170.237885 244.758899 
L 170.473066 244.758899 
L 170.473066 243.832658 
L 170.687376 243.832658 
L 170.687376 243.369538 
L 171.612043 243.369538 
L 171.612043 242.906417 
L 172.248373 242.906417 
L 172.248373 242.443297 
L 173.740749 242.443297 
L 173.822502 241.053935 
L 173.859536 241.053935 
L 173.859536 240.590815 
L 174.014225 240.590815 
L 174.014225 240.127694 
L 174.997985 240.127694 
L 174.997985 239.664574 
L 175.590821 239.664574 
L 175.590821 239.201453 
L 175.830357 239.201453 
L 175.830357 238.738333 
L 175.981689 238.738333 
L 175.981689 238.275212 
L 177.642639 238.275212 
L 177.642639 237.812091 
L 178.170609 237.812091 
L 178.170609 236.88585 
L 178.474207 236.88585 
L 178.474207 235.959609 
L 178.811643 235.959609 
L 178.811643 235.496489 
L 180.699667 235.496489 
L 180.699667 235.033368 
L 181.538866 235.033368 
L 181.538866 234.107127 
L 181.728374 234.107127 
L 181.728374 233.180886 
L 182.788672 233.180886 
L 182.788672 232.254645 
L 184.218294 232.254645 
L 184.218294 230.402163 
L 184.977686 230.402163 
L 184.977686 229.475922 
L 185.287795 229.475922 
L 185.287795 229.012802 
L 186.320845 229.012802 
L 186.320845 228.086561 
L 187.789005 228.086561 
L 187.789005 227.62344 
L 188.410267 227.62344 
L 188.410267 226.697199 
L 189.481683 226.697199 
L 189.481683 226.234079 
L 189.626084 226.234079 
L 189.626084 225.307837 
L 189.745511 225.307837 
L 189.745511 224.381596 
L 189.94962 224.381596 
L 190.022987 222.529114 
L 190.07854 222.529114 
L 190.07854 221.602873 
L 190.607566 221.602873 
L 190.649994 220.213512 
L 191.336909 220.213512 
L 191.336909 219.287271 
L 192.750128 219.287271 
L 192.750128 218.36103 
L 193.36529 218.36103 
L 193.36529 217.897909 
L 193.973506 217.897909 
L 193.973506 216.971668 
L 194.177775 216.971668 
L 194.177775 216.508548 
L 194.391081 216.508548 
L 194.391081 215.582307 
L 194.776607 215.582307 
L 194.776607 215.119186 
L 195.123219 215.119186 
L 195.216961 213.266704 
L 195.411549 213.266704 
L 195.48664 210.487981 
L 196.811571 210.487981 
L 196.811571 210.02486 
L 197.238853 210.02486 
L 197.238853 209.098619 
L 198.111187 209.098619 
L 198.111187 208.172378 
L 199.017305 208.172378 
L 199.017305 207.709258 
L 199.142743 207.709258 
L 199.142743 207.246137 
L 199.358397 207.246137 
L 199.358397 206.319896 
L 199.79692 206.319896 
L 199.885313 205.393655 
L 200.149475 205.393655 
L 200.216527 204.467414 
L 200.335278 204.467414 
L 200.374144 203.078053 
L 200.483795 203.078053 
L 200.560782 198.446847 
L 201.186375 198.446847 
L 201.186375 197.983727 
L 201.431679 197.983727 
L 201.489435 196.594365 
L 201.766422 196.594365 
L 201.837962 194.741883 
L 202.039079 194.741883 
L 202.137312 193.815642 
L 202.402835 193.815642 
L 202.402835 193.352522 
L 202.922051 193.352522 
L 202.922051 192.889401 
L 203.689052 192.889401 
L 203.775778 191.96316 
L 203.847501 191.96316 
L 203.847501 191.036919 
L 204.826842 191.036919 
L 204.881891 190.110678 
L 204.976568 190.110678 
L 205.085557 189.184437 
L 205.095431 189.184437 
L 205.097899 187.795075 
L 205.437556 187.795075 
L 205.437556 187.331955 
L 205.683852 187.331955 
L 205.763601 185.942593 
L 206.187124 185.942593 
L 206.187124 185.479473 
L 206.352088 185.479473 
L 206.352088 185.016352 
L 206.932472 185.016352 
L 206.996767 182.70075 
L 207.104866 182.70075 
L 207.184956 180.848268 
L 207.379798 180.848268 
L 207.379798 180.385147 
L 207.519952 180.385147 
L 207.519952 179.922027 
L 207.805377 179.922027 
L 207.805377 179.458906 
L 208.127735 179.458906 
L 208.22391 177.143304 
L 208.444242 177.143304 
L 208.444242 176.680183 
L 208.591281 176.680183 
L 208.6155 174.827701 
L 208.88765 174.827701 
L 208.88765 174.36458 
L 209.479134 174.36458 
L 209.55765 173.438339 
L 209.761854 173.438339 
L 209.761854 172.975219 
L 209.906665 172.975219 
L 209.906665 172.512098 
L 210.117951 172.512098 
L 210.169683 171.122737 
L 210.377826 171.122737 
L 210.466016 169.733375 
L 210.539319 169.733375 
L 210.539319 169.270255 
L 211.27321 169.270255 
L 211.27321 168.344014 
L 211.400889 168.344014 
L 211.400889 167.880893 
L 211.530199 167.880893 
L 211.560887 166.491532 
L 211.841381 166.491532 
L 211.85981 165.565291 
L 212.20384 165.565291 
L 212.227629 164.175929 
L 212.487187 164.175929 
L 212.487187 163.712808 
L 212.940781 163.712808 
L 212.946289 162.786567 
L 213.207071 162.786567 
L 213.207071 162.323447 
L 213.464774 162.323447 
L 213.557687 160.934085 
L 213.747299 160.934085 
L 213.747299 159.544724 
L 213.947504 159.544724 
L 213.947504 159.081603 
L 214.33461 159.081603 
L 214.341873 158.155362 
L 214.493703 158.155362 
L 214.493703 157.692242 
L 214.685565 157.692242 
L 214.734623 155.83976 
L 214.847852 155.83976 
L 214.847852 155.376639 
L 214.968058 155.376639 
L 214.968058 154.450398 
L 215.268096 154.450398 
L 215.268096 153.987278 
L 215.577947 153.987278 
L 215.68652 153.061037 
L 216.498254 153.061037 
L 216.578281 151.208554 
L 216.751795 151.208554 
L 216.751795 150.745434 
L 216.871545 150.745434 
L 216.871545 150.282313 
L 217.004821 150.282313 
L 217.004821 149.356072 
L 217.329032 149.356072 
L 217.329032 148.892952 
L 217.453403 148.892952 
L 217.495269 147.50359 
L 217.662338 147.50359 
L 217.662338 147.04047 
L 218.119687 147.04047 
L 218.119687 146.577349 
L 218.386605 146.577349 
L 218.386605 146.114229 
L 218.510545 146.114229 
L 218.515119 144.724867 
L 218.965401 144.724867 
L 218.965401 144.261747 
L 219.167545 144.261747 
L 219.167545 143.798626 
L 219.336862 143.798626 
L 219.336862 143.335506 
L 219.695235 143.335506 
L 219.72939 141.946144 
L 219.89178 141.946144 
L 219.89178 141.483024 
L 220.026484 141.483024 
L 220.026484 140.556783 
L 220.187182 140.556783 
L 220.187182 140.093662 
L 220.333027 140.093662 
L 220.333027 139.167421 
L 220.464378 139.167421 
L 220.464378 138.24118 
L 220.614522 138.24118 
L 220.614522 137.778059 
L 220.806544 137.778059 
L 220.806544 137.314939 
L 221.242141 137.314939 
L 221.242141 136.851818 
L 221.405146 136.851818 
L 221.510409 134.536216 
L 222.894368 134.536216 
L 222.894368 133.609975 
L 223.248708 133.609975 
L 223.248708 133.146854 
L 223.389316 133.146854 
L 223.389316 132.683734 
L 223.808685 132.683734 
L 223.808685 132.220613 
L 226.596082 132.220613 
L 226.596082 131.294372 
L 226.843189 131.294372 
L 226.843189 130.831252 
L 228.770077 130.831252 
L 228.770077 130.368131 
L 233.742701 130.368131 
L 233.742701 129.905011 
L 239.333202 129.905011 
L 239.333202 129.44189 
L 338.688 129.44189 
L 338.688 129.44189 
" style="fill:none;stroke:#000080;stroke-linecap:square;stroke-width:1.5;"/>
   </g>
   <g id="line2d_36">
    <defs>
     <path d="M 0 6 
C 1.591219 6 3.117479 5.367802 4.242641 4.242641 
C 5.367802 3.117479 6 1.591219 6 0 
C 6 -1.591219 5.367802 -3.117479 4.242641 -4.242641 
C 3.117479 -5.367802 1.591219 -6 0 -6 
C -1.591219 -6 -3.117479 -5.367802 -4.242641 -4.242641 
C -5.367802 -3.117479 -6 -1.591219 -6 0 
C -6 1.591219 -5.367802 3.117479 -4.242641 4.242641 
C -3.117479 5.367802 -1.591219 6 0 6 
z
" id="m133b491b54" style="stroke:#000080;stroke-width:1.5;"/>
    </defs>
    <g>
     <use style="fill-opacity:0;stroke:#000080;stroke-width:1.5;" x="122.643312" xlink:href="#m133b491b54" y="277.177336"/>
     <use style="fill-opacity:0;stroke:#000080;stroke-width:1.5;" x="188.410267" xlink:href="#m133b491b54" y="227.62344"/>
     <use style="fill-opacity:0;stroke:#000080;stroke-width:1.5;" x="239.333202" xlink:href="#m133b491b54" y="129.905011"/>
     <use style="fill-opacity:0;stroke:#000080;stroke-width:1.5;" x="239.333202" xlink:href="#m133b491b54" y="129.44189"/>
     <use style="fill-opacity:0;stroke:#000080;stroke-width:1.5;" x="239.333202" xlink:href="#m133b491b54" y="129.44189"/>
     <use style="fill-opacity:0;stroke:#000080;stroke-width:1.5;" x="338.688" xlink:href="#m133b491b54" y="129.44189"/>
    </g>
   </g>
   <g id="line2d_37">
    <path style="fill:none;stroke:#000080;stroke-linecap:square;stroke-width:1.5;"/>
    <g/>
   </g>
   <g id="line2d_38">
    <path clip-path="url(#p31ed1f1a88)" d="M 258.377608 129.44189 
" style="fill:none;stroke:#000080;stroke-linecap:square;stroke-width:1.5;"/>
    <defs>
     <path d="M -12 12 
L 12 -12 
M -12 -12 
L 12 12 
" id="mfc2dd7492f" style="stroke:#000080;"/>
    </defs>
    <g clip-path="url(#p31ed1f1a88)">
     <use style="fill:#000080;stroke:#000080;" x="258.377608" xlink:href="#mfc2dd7492f" y="129.44189"/>
    </g>
   </g>
   <g id="line2d_39">
    <defs>
     <path d="M 0 1.5 
C 0.397805 1.5 0.77937 1.341951 1.06066 1.06066 
C 1.341951 0.77937 1.5 0.397805 1.5 0 
C 1.5 -0.397805 1.341951 -0.77937 1.06066 -1.06066 
C 0.77937 -1.341951 0.397805 -1.5 0 -1.5 
C -0.397805 -1.5 -0.77937 -1.341951 -1.06066 -1.06066 
C -1.341951 -0.77937 -1.5 -0.397805 -1.5 0 
C -1.5 0.397805 -1.341951 0.77937 -1.06066 1.06066 
C -0.77937 1.341951 -0.397805 1.5 0 1.5 
z
" id="m8994b351ff" style="stroke:#ff00ff;"/>
    </defs>
    <g>
     <use style="fill:#ff00ff;stroke:#ff00ff;" x="258.363302" xlink:href="#m8994b351ff" y="137.314939"/>
     <use style="fill:#ff00ff;stroke:#ff00ff;" x="258.363302" xlink:href="#m8994b351ff" y="137.314939"/>
    </g>
   </g>
   <g id="line2d_40">
    <path d="M 38.440992 298.944 
L 38.440992 293.849674 
L 137.319638 293.849674 
L 137.319638 293.386554 
L 138.141844 293.386554 
L 138.141844 292.923433 
L 142.927826 292.923433 
L 142.927826 292.460313 
L 143.187472 292.460313 
L 143.273169 291.070951 
L 144.826168 291.070951 
L 144.826168 290.14471 
L 145.289185 290.14471 
L 145.289185 289.218469 
L 146.923612 289.218469 
L 146.923612 288.755349 
L 147.164632 288.755349 
L 147.198794 287.829108 
L 147.670154 287.829108 
L 147.670154 287.365987 
L 147.835457 287.365987 
L 147.835457 286.902867 
L 148.161434 286.902867 
L 148.161434 286.439746 
L 148.322166 286.439746 
L 148.322166 285.513505 
L 150.172372 285.513505 
L 150.172372 285.050384 
L 150.570677 285.050384 
L 150.570677 282.734782 
L 150.682827 282.734782 
L 150.766468 281.808541 
L 150.87737 281.808541 
L 150.87737 279.956059 
L 151.124351 279.956059 
L 151.124351 279.029818 
L 151.581536 279.029818 
L 151.581536 278.566697 
L 151.818809 278.566697 
L 151.818809 278.103577 
L 152.052897 278.103577 
L 152.052897 276.714215 
L 152.536999 276.714215 
L 152.536999 276.251095 
L 153.275019 276.251095 
L 153.275019 275.787974 
L 153.609024 275.787974 
L 153.609024 274.861733 
L 154.121296 274.861733 
L 154.121296 273.935492 
L 154.235652 273.935492 
L 154.235652 273.472371 
L 154.439623 273.472371 
L 154.46214 271.619889 
L 155.081089 271.619889 
L 155.102793 269.767407 
L 155.531298 269.767407 
L 155.531298 269.304287 
L 155.678822 269.304287 
L 155.678822 268.841166 
L 155.804285 268.841166 
L 155.804285 267.914925 
L 156.011405 267.914925 
L 156.011405 266.062443 
L 156.478647 266.062443 
L 156.478647 265.599323 
L 156.598505 265.599323 
L 156.598505 265.136202 
L 156.894595 265.136202 
L 156.894595 264.673082 
L 157.069866 264.673082 
L 157.147202 263.28372 
L 157.20498 263.28372 
L 157.20498 262.357479 
L 157.509937 262.357479 
L 157.509937 261.894358 
L 157.622935 261.894358 
L 157.622935 261.431238 
L 157.883783 261.431238 
L 157.883783 260.968117 
L 158.049435 260.968117 
L 158.140788 258.652515 
L 158.322071 258.652515 
L 158.340096 257.263153 
L 158.48363 257.263153 
L 158.48363 256.800033 
L 158.819862 256.800033 
L 158.819862 256.336912 
L 159.507213 256.336912 
L 159.507213 255.873792 
L 159.624763 255.873792 
L 159.658204 254.48443 
L 160.136022 254.48443 
L 160.233268 253.095069 
L 160.426146 253.095069 
L 160.426146 252.631948 
L 160.585265 252.631948 
L 160.585265 250.779466 
L 161.764147 250.779466 
L 161.764147 250.316346 
L 161.926237 250.316346 
L 161.926237 249.853225 
L 162.432178 249.853225 
L 162.46065 248.463863 
L 162.630514 248.463863 
L 162.700806 246.148261 
L 162.742845 246.148261 
L 162.742845 245.22202 
L 163.536298 245.22202 
L 163.589711 243.832658 
L 163.735759 243.832658 
L 163.735759 242.906417 
L 164.650098 242.906417 
L 164.650098 241.980176 
L 165.144862 241.980176 
L 165.254276 240.127694 
L 165.471066 240.127694 
L 165.518877 238.738333 
L 166.425924 238.738333 
L 166.493781 237.348971 
L 167.277329 237.348971 
L 167.277329 236.42273 
L 168.232714 236.42273 
L 168.304082 235.033368 
L 169.099626 235.033368 
L 169.16754 232.717766 
L 169.60737 232.717766 
L 169.60737 231.791525 
L 170.364915 231.791525 
L 170.364915 231.328404 
L 170.696249 231.328404 
L 170.696249 230.865284 
L 171.134225 230.865284 
L 171.134225 229.939043 
L 171.332059 229.939043 
L 171.332059 228.549681 
L 173.326137 228.549681 
L 173.364239 227.16032 
L 174.058171 227.16032 
L 174.058171 226.697199 
L 174.865789 226.697199 
L 174.865789 225.770958 
L 176.894213 225.770958 
L 176.894213 225.307837 
L 177.104328 225.307837 
L 177.104328 224.381596 
L 178.222537 224.381596 
L 178.239812 222.529114 
L 178.553528 222.529114 
L 178.553528 222.065994 
L 179.137208 222.065994 
L 179.137208 221.139753 
L 179.622413 221.139753 
L 179.622413 220.213512 
L 182.188736 220.213512 
L 182.188736 219.750391 
L 185.024556 219.750391 
L 185.024556 219.287271 
L 185.341502 219.287271 
L 185.341502 218.36103 
L 185.958619 218.36103 
L 185.958619 217.897909 
L 186.215516 217.897909 
L 186.215516 217.434789 
L 187.24467 217.434789 
L 187.24467 216.971668 
L 192.285662 216.971668 
L 192.285662 216.508548 
L 194.525064 216.508548 
L 194.525064 216.045427 
L 196.399988 216.045427 
L 196.399988 215.119186 
L 199.983189 215.119186 
L 199.983189 214.192945 
L 202.294502 214.192945 
L 202.294502 213.729825 
L 202.460338 213.729825 
L 202.460338 212.803583 
L 202.584756 212.803583 
L 202.620345 209.56174 
L 202.706879 209.56174 
L 202.706879 208.635499 
L 202.825341 208.635499 
L 202.825341 208.172378 
L 202.972296 208.172378 
L 203.055718 206.319896 
L 203.122169 206.319896 
L 203.152542 204.467414 
L 203.237853 204.467414 
L 203.330943 203.541173 
L 203.36913 203.541173 
L 203.381387 202.151812 
L 203.533199 202.151812 
L 203.533199 201.688691 
L 203.6529 201.688691 
L 203.726464 200.76245 
L 203.91893 200.76245 
L 203.91893 200.299329 
L 205.050952 200.299329 
L 205.050952 199.836209 
L 205.565344 199.836209 
L 205.622903 197.983727 
L 205.742212 197.983727 
L 205.842986 196.131245 
L 205.911417 196.131245 
L 205.957281 194.741883 
L 206.151156 194.741883 
L 206.151156 194.278763 
L 206.298041 194.278763 
L 206.298041 193.815642 
L 206.51778 193.815642 
L 206.51778 192.889401 
L 206.71568 192.889401 
L 206.71568 191.96316 
L 206.923586 191.96316 
L 207.02993 191.036919 
L 208.162957 191.036919 
L 208.162957 190.573799 
L 209.321032 190.573799 
L 209.41279 188.721316 
L 209.847569 188.721316 
L 209.847569 188.258196 
L 210.69933 188.258196 
L 210.69933 187.795075 
L 212.813628 187.795075 
L 212.813628 186.868834 
L 213.87829 186.868834 
L 213.87829 186.405714 
L 214.295338 186.405714 
L 214.338242 185.016352 
L 214.428072 185.016352 
L 214.510252 184.090111 
L 215.044947 184.090111 
L 215.044947 183.626991 
L 215.512207 183.626991 
L 215.512207 183.16387 
L 218.134883 183.16387 
L 218.134883 182.237629 
L 218.392363 182.237629 
L 218.44065 180.848268 
L 218.62566 180.848268 
L 218.62566 179.922027 
L 218.943105 179.922027 
L 218.943105 178.995786 
L 219.289356 178.995786 
L 219.289356 178.532665 
L 219.401089 178.532665 
L 219.401089 178.069545 
L 219.884912 178.069545 
L 219.885969 176.680183 
L 220.099712 176.680183 
L 220.099712 176.217062 
L 220.545973 176.217062 
L 220.545973 175.753942 
L 220.670684 175.753942 
L 220.714577 173.90146 
L 221.542153 173.90146 
L 221.542153 173.438339 
L 221.919107 173.438339 
L 221.919107 172.512098 
L 223.688434 172.512098 
L 223.688434 172.048978 
L 223.986686 172.048978 
L 223.986686 171.122737 
L 225.094353 171.122737 
L 225.094353 170.659616 
L 225.50076 170.659616 
L 225.50076 170.196496 
L 225.694219 170.196496 
L 225.694219 168.344014 
L 225.841673 168.344014 
L 225.841673 167.880893 
L 226.262775 167.880893 
L 226.315847 166.491532 
L 226.437848 166.491532 
L 226.437848 166.028411 
L 226.593565 166.028411 
L 226.593565 165.565291 
L 227.193857 165.565291 
L 227.193857 165.10217 
L 228.309086 165.10217 
L 228.343281 163.712808 
L 229.00877 163.712808 
L 229.00877 163.249688 
L 230.655331 163.249688 
L 230.655331 162.786567 
L 230.833369 162.786567 
L 230.833369 162.323447 
L 231.543864 162.323447 
L 231.543864 161.860326 
L 232.59984 161.860326 
L 232.59984 160.934085 
L 232.918325 160.934085 
L 232.918325 160.470965 
L 233.478114 160.470965 
L 233.478114 159.544724 
L 234.38758 159.544724 
L 234.38758 159.081603 
L 234.546054 159.081603 
L 234.61363 158.155362 
L 235.772174 158.155362 
L 235.772174 157.692242 
L 236.36216 157.692242 
L 236.36216 156.766001 
L 236.587892 156.766001 
L 236.587892 156.30288 
L 236.795517 156.30288 
L 236.81174 154.913519 
L 236.98683 154.913519 
L 236.98683 154.450398 
L 237.573424 154.450398 
L 237.573424 153.524157 
L 237.874182 153.524157 
L 237.874182 152.597916 
L 238.18058 152.597916 
L 238.18058 152.134795 
L 241.181577 152.134795 
L 241.269705 151.208554 
L 242.246625 151.208554 
L 242.246625 150.745434 
L 243.417012 150.745434 
L 243.417012 150.282313 
L 244.457167 150.282313 
L 244.457167 149.819193 
L 244.614522 149.819193 
L 244.614522 149.356072 
L 244.910823 149.356072 
L 244.910823 148.429831 
L 246.886844 148.429831 
L 246.886844 147.966711 
L 248.835246 147.966711 
L 248.835246 147.50359 
L 249.680757 147.50359 
L 249.680757 147.04047 
L 249.840156 147.04047 
L 249.840156 146.114229 
L 250.430777 146.114229 
L 250.430777 145.187988 
L 252.444757 145.187988 
L 252.444757 144.261747 
L 254.979139 144.261747 
L 254.979139 143.335506 
L 255.786937 143.335506 
L 255.786937 142.409265 
L 256.539925 142.409265 
L 256.539925 140.093662 
L 256.681061 140.093662 
L 256.681061 139.630541 
L 256.877854 139.630541 
L 256.877854 139.167421 
L 257.165235 139.167421 
L 257.165235 138.7043 
L 257.531325 138.7043 
L 257.531325 138.24118 
L 258.363302 138.24118 
L 258.363302 137.314939 
L 338.688 137.314939 
L 338.688 137.314939 
" style="fill:none;stroke:#ff00ff;stroke-linecap:square;stroke-width:1.5;"/>
   </g>
   <g id="line2d_41">
    <defs>
     <path d="M 0 8.485281 
L 5.091169 0 
L 0 -8.485281 
L -5.091169 0 
z
" id="mce92377c27" style="stroke:#ff00ff;stroke-linejoin:miter;stroke-width:1.5;"/>
    </defs>
    <g>
     <use style="fill-opacity:0;stroke:#ff00ff;stroke-linejoin:miter;stroke-width:1.5;" x="185.024556" xlink:href="#mce92377c27" y="219.750391"/>
     <use style="fill-opacity:0;stroke:#ff00ff;stroke-linejoin:miter;stroke-width:1.5;" x="221.919107" xlink:href="#mce92377c27" y="172.512098"/>
     <use style="fill-opacity:0;stroke:#ff00ff;stroke-linejoin:miter;stroke-width:1.5;" x="258.363302" xlink:href="#mce92377c27" y="137.314939"/>
     <use style="fill-opacity:0;stroke:#ff00ff;stroke-linejoin:miter;stroke-width:1.5;" x="258.363302" xlink:href="#mce92377c27" y="137.314939"/>
     <use style="fill-opacity:0;stroke:#ff00ff;stroke-linejoin:miter;stroke-width:1.5;" x="338.688" xlink:href="#mce92377c27" y="137.314939"/>
    </g>
   </g>
   <g id="line2d_42">
    <path style="fill:none;stroke:#ff00ff;stroke-linecap:square;stroke-width:1.5;"/>
    <g/>
   </g>
   <g id="line2d_43">
    <path clip-path="url(#p31ed1f1a88)" d="M 258.384059 137.314939 
" style="fill:none;stroke:#ff00ff;stroke-linecap:square;stroke-width:1.5;"/>
    <defs>
     <path d="M -12 12 
L 12 -12 
M -12 -12 
L 12 12 
" id="me9cb208de0" style="stroke:#ff00ff;"/>
    </defs>
    <g clip-path="url(#p31ed1f1a88)">
     <use style="fill:#ff00ff;stroke:#ff00ff;" x="258.384059" xlink:href="#me9cb208de0" y="137.314939"/>
    </g>
   </g>
   <g id="line2d_44">
    <defs>
     <path d="M 0 1.5 
C 0.397805 1.5 0.77937 1.341951 1.06066 1.06066 
C 1.341951 0.77937 1.5 0.397805 1.5 0 
C 1.5 -0.397805 1.341951 -0.77937 1.06066 -1.06066 
C 0.77937 -1.341951 0.397805 -1.5 0 -1.5 
C -0.397805 -1.5 -0.77937 -1.341951 -1.06066 -1.06066 
C -1.341951 -0.77937 -1.5 -0.397805 -1.5 0 
C -1.5 0.397805 -1.341951 0.77937 -1.06066 1.06066 
C -0.77937 1.341951 -0.397805 1.5 0 1.5 
z
" id="ma4d88750e3" style="stroke:#ff7500;"/>
    </defs>
    <g>
     <use style="fill:#ff7500;stroke:#ff7500;" x="257.354943" xlink:href="#ma4d88750e3" y="122.495082"/>
     <use style="fill:#ff7500;stroke:#ff7500;" x="257.354943" xlink:href="#ma4d88750e3" y="122.495082"/>
    </g>
   </g>
   <g id="line2d_45">
    <path d="M 149.073705 298.944 
L 149.073705 298.480879 
L 150.027887 298.480879 
L 150.085825 293.849674 
L 151.60806 293.849674 
L 151.60806 293.386554 
L 152.104493 293.386554 
L 152.104493 292.923433 
L 152.761703 292.923433 
L 152.860649 289.218469 
L 153.081247 289.218469 
L 153.081247 288.755349 
L 153.49047 288.755349 
L 153.561699 287.365987 
L 153.983071 287.365987 
L 153.983071 286.902867 
L 154.121296 286.902867 
L 154.144227 285.976625 
L 154.596634 285.976625 
L 154.596634 285.513505 
L 155.102793 285.513505 
L 155.102793 285.050384 
L 155.928852 285.050384 
L 155.928852 284.587264 
L 156.134506 284.587264 
L 156.134506 284.124143 
L 157.224197 284.124143 
L 157.319964 282.734782 
L 157.660438 282.734782 
L 157.735205 281.808541 
L 158.48363 281.808541 
L 158.554957 280.8823 
L 158.819862 280.8823 
L 158.819862 279.956059 
L 159.286782 279.956059 
L 159.286782 279.492938 
L 159.422762 279.492938 
L 159.524055 276.251095 
L 159.708245 276.251095 
L 159.791329 273.935492 
L 159.824452 273.935492 
L 159.906985 272.54613 
L 159.93989 272.54613 
L 160.02188 271.619889 
L 160.489968 271.619889 
L 160.489968 271.156769 
L 162.101361 271.156769 
L 162.159347 270.230528 
L 162.217141 270.230528 
L 162.217141 269.304287 
L 162.531628 269.304287 
L 162.531628 268.841166 
L 163.361568 268.841166 
L 163.388564 267.914925 
L 164.037234 267.914925 
L 164.037234 266.988684 
L 164.192481 266.988684 
L 164.243924 266.062443 
L 164.737701 266.062443 
L 164.775111 264.673082 
L 165.047026 264.673082 
L 165.047026 264.209961 
L 165.708824 264.209961 
L 165.708824 263.746841 
L 165.896723 263.746841 
L 165.896723 261.894358 
L 166.174831 261.894358 
L 166.24367 260.968117 
L 166.595075 260.968117 
L 166.595075 259.578756 
L 167.136471 259.578756 
L 167.136471 259.115635 
L 167.427761 259.115635 
L 167.470505 258.189394 
L 167.651004 258.189394 
L 167.651004 257.726274 
L 167.996141 257.726274 
L 167.996141 257.263153 
L 168.150791 257.263153 
L 168.150791 256.336912 
L 168.395414 256.336912 
L 168.395414 255.410671 
L 168.526499 255.410671 
L 168.526499 254.02131 
L 168.71633 254.02131 
L 168.71633 253.558189 
L 169.002145 253.558189 
L 169.002145 252.631948 
L 169.588476 252.631948 
L 169.588476 251.705707 
L 170.43709 251.705707 
L 170.43709 251.242587 
L 170.85519 251.242587 
L 170.85519 250.779466 
L 171.56147 250.779466 
L 171.628868 249.390104 
L 172.150719 249.390104 
L 172.150719 248.463863 
L 172.482136 248.463863 
L 172.506141 247.074502 
L 172.617727 247.074502 
L 172.617727 246.611381 
L 172.807372 246.611381 
L 172.823083 245.68514 
L 173.01052 245.68514 
L 173.01052 245.22202 
L 173.180585 245.22202 
L 173.180585 244.758899 
L 173.591119 244.758899 
L 173.591119 243.832658 
L 174.014225 243.832658 
L 174.014225 243.369538 
L 174.305129 243.369538 
L 174.305129 242.906417 
L 174.662065 242.906417 
L 174.73962 241.517056 
L 174.886729 241.517056 
L 174.886729 240.590815 
L 175.115421 240.590815 
L 175.115421 240.127694 
L 175.902897 240.127694 
L 175.902897 239.201453 
L 176.105719 239.201453 
L 176.125223 238.275212 
L 176.561548 238.275212 
L 176.586878 236.42273 
L 176.675242 236.42273 
L 176.675242 235.496489 
L 177.055116 235.496489 
L 177.055116 234.107127 
L 177.553068 234.107127 
L 177.606866 233.180886 
L 177.796812 233.180886 
L 177.891015 231.791525 
L 178.325932 231.791525 
L 178.37169 229.939043 
L 178.525241 229.939043 
L 178.609966 228.549681 
L 178.988975 228.549681 
L 179.049518 225.770958 
L 179.126271 225.770958 
L 179.137208 223.918476 
L 179.262495 223.918476 
L 179.262495 223.455355 
L 179.505048 223.455355 
L 179.505048 222.992235 
L 179.928095 222.992235 
L 179.928095 222.529114 
L 180.427645 222.529114 
L 180.427645 222.065994 
L 180.982272 222.065994 
L 180.982272 221.139753 
L 181.433752 221.139753 
L 181.433752 220.213512 
L 181.841098 220.213512 
L 181.841098 219.750391 
L 182.105933 219.750391 
L 182.161179 217.897909 
L 182.271148 217.897909 
L 182.271148 217.434789 
L 182.384967 217.434789 
L 182.412173 215.582307 
L 182.646201 215.582307 
L 182.646201 214.656066 
L 183.078894 214.656066 
L 183.078894 214.192945 
L 183.204904 214.192945 
L 183.235184 212.340463 
L 183.342901 212.340463 
L 183.432872 210.951101 
L 183.946572 210.951101 
L 183.946572 210.487981 
L 184.291671 210.487981 
L 184.291671 209.56174 
L 184.48987 209.56174 
L 184.55811 208.172378 
L 184.792892 208.172378 
L 184.792892 207.246137 
L 184.965949 207.246137 
L 184.965949 206.783017 
L 185.079078 206.783017 
L 185.079078 206.319896 
L 185.783983 206.319896 
L 185.828738 204.467414 
L 186.098547 204.467414 
L 186.098547 204.004294 
L 186.288225 204.004294 
L 186.288225 203.078053 
L 186.447126 203.078053 
L 186.515297 201.225571 
L 186.70052 201.225571 
L 186.810013 199.373088 
L 187.07904 199.373088 
L 187.07904 198.909968 
L 187.456306 198.909968 
L 187.561169 197.520606 
L 187.698897 197.520606 
L 187.698897 197.057486 
L 187.828904 197.057486 
L 187.828904 196.594365 
L 188.151376 196.594365 
L 188.151376 195.668124 
L 188.810385 195.668124 
L 188.916799 193.815642 
L 189.093754 193.815642 
L 189.093754 192.889401 
L 189.28116 192.889401 
L 189.336077 191.96316 
L 190.049323 191.96316 
L 190.125184 190.110678 
L 190.180414 190.110678 
L 190.180414 189.647558 
L 190.511012 189.647558 
L 190.511012 189.184437 
L 190.723292 189.184437 
L 190.723292 188.258196 
L 190.880126 188.258196 
L 190.880126 187.795075 
L 190.996833 187.795075 
L 190.996833 187.331955 
L 191.474876 187.331955 
L 191.474876 186.868834 
L 191.643813 186.868834 
L 191.643813 186.405714 
L 191.758187 186.405714 
L 191.758187 185.942593 
L 191.995173 185.942593 
L 192.021307 185.016352 
L 192.130645 185.016352 
L 192.130645 184.553232 
L 192.411245 184.553232 
L 192.411245 184.090111 
L 193.072719 184.090111 
L 193.072719 183.626991 
L 193.814006 183.626991 
L 193.814006 183.16387 
L 194.075939 183.16387 
L 194.103772 181.774509 
L 194.38196 181.774509 
L 194.38196 180.848268 
L 194.527326 180.848268 
L 194.527326 179.922027 
L 194.925368 179.922027 
L 194.958499 178.069545 
L 195.271231 178.069545 
L 195.271231 177.143304 
L 195.676142 177.143304 
L 195.676142 176.217062 
L 195.821654 176.217062 
L 195.84474 174.827701 
L 196.294023 174.827701 
L 196.294023 174.36458 
L 196.82942 174.36458 
L 196.82942 173.90146 
L 197.065675 173.90146 
L 197.098887 172.975219 
L 197.327691 172.975219 
L 197.327691 172.512098 
L 198.606866 172.512098 
L 198.606866 171.585857 
L 198.738834 171.585857 
L 198.793823 170.196496 
L 199.618778 170.196496 
L 199.618778 169.733375 
L 200.420991 169.733375 
L 200.420991 169.270255 
L 200.58637 169.270255 
L 200.58637 168.807134 
L 200.819712 168.807134 
L 200.819712 168.344014 
L 200.959484 168.344014 
L 201.025057 166.954652 
L 201.755965 166.954652 
L 201.755965 166.491532 
L 202.966721 166.491532 
L 202.966721 166.028411 
L 203.371855 166.028411 
L 203.371855 165.10217 
L 203.811677 165.10217 
L 203.811677 164.63905 
L 204.50051 164.63905 
L 204.50051 164.175929 
L 205.08926 164.175929 
L 205.08926 163.249688 
L 205.489507 163.249688 
L 205.489507 162.786567 
L 206.073165 162.786567 
L 206.073165 162.323447 
L 207.143312 162.323447 
L 207.143312 161.860326 
L 208.774104 161.860326 
L 208.774104 161.397206 
L 210.773443 161.397206 
L 210.773443 160.934085 
L 211.274076 160.934085 
L 211.37164 159.544724 
L 211.572807 159.544724 
L 211.666179 158.155362 
L 211.947497 158.155362 
L 211.947497 157.692242 
L 212.154519 157.692242 
L 212.154519 157.229121 
L 213.572871 157.229121 
L 213.572871 156.766001 
L 213.757815 156.766001 
L 213.757815 156.30288 
L 215.074912 156.30288 
L 215.074912 155.83976 
L 215.37108 155.83976 
L 215.37108 154.913519 
L 217.747367 154.913519 
L 217.747367 153.987278 
L 218.375661 153.987278 
L 218.403872 152.597916 
L 218.841858 152.597916 
L 218.841858 152.134795 
L 219.42118 152.134795 
L 219.42118 151.208554 
L 219.62833 151.208554 
L 219.644946 149.819193 
L 219.792722 149.819193 
L 219.792722 148.892952 
L 221.480536 148.892952 
L 221.480536 148.429831 
L 222.35701 148.429831 
L 222.35701 147.966711 
L 223.702874 147.966711 
L 223.702874 147.50359 
L 224.592128 147.50359 
L 224.638862 146.577349 
L 224.793082 146.577349 
L 224.793082 146.114229 
L 225.405915 146.114229 
L 225.405915 145.651108 
L 227.837922 145.651108 
L 227.837922 144.724867 
L 229.608693 144.724867 
L 229.608693 144.261747 
L 229.853267 144.261747 
L 229.853267 143.798626 
L 230.858454 143.798626 
L 230.858454 143.335506 
L 232.149817 143.335506 
L 232.149817 142.872385 
L 232.316928 142.872385 
L 232.316928 141.946144 
L 232.44572 141.946144 
L 232.553133 141.019903 
L 233.450463 141.019903 
L 233.450463 140.093662 
L 234.668725 140.093662 
L 234.668725 139.630541 
L 236.786096 139.630541 
L 236.786096 139.167421 
L 237.502757 139.167421 
L 237.502757 138.24118 
L 240.401964 138.24118 
L 240.428992 136.388698 
L 241.295578 136.388698 
L 241.295578 135.925577 
L 242.007069 135.925577 
L 242.007069 135.462457 
L 244.296294 135.462457 
L 244.296294 134.999336 
L 245.576643 134.999336 
L 245.603629 133.609975 
L 246.637917 133.609975 
L 246.637917 133.146854 
L 248.239451 133.146854 
L 248.239451 132.220613 
L 249.050821 132.220613 
L 249.050821 131.294372 
L 250.365007 131.294372 
L 250.365007 130.831252 
L 250.979231 130.831252 
L 250.979231 129.905011 
L 253.524259 129.905011 
L 253.524259 129.44189 
L 254.399433 129.44189 
L 254.399433 128.515649 
L 255.460944 128.515649 
L 255.460944 127.589408 
L 255.572449 127.589408 
L 255.604235 126.663167 
L 255.733647 126.663167 
L 255.786937 124.810685 
L 255.882104 124.810685 
L 255.882104 124.347564 
L 256.443291 124.347564 
L 256.443291 123.884444 
L 257.019058 123.884444 
L 257.019058 122.958203 
L 257.354943 122.958203 
L 257.354943 122.495082 
L 338.688 122.495082 
L 338.688 122.495082 
" style="fill:none;stroke:#ff7500;stroke-linecap:square;stroke-width:1.5;"/>
   </g>
   <g id="line2d_46">
    <defs>
     <path d="M 0 -6 
L -1.347084 -1.854102 
L -5.706339 -1.854102 
L -2.179628 0.708204 
L -3.526712 4.854102 
L -0 2.291796 
L 3.526712 4.854102 
L 2.179628 0.708204 
L 5.706339 -1.854102 
L 1.347084 -1.854102 
z
" id="mecdb63b2d5" style="stroke:#ff7500;stroke-linejoin:bevel;stroke-width:1.5;"/>
    </defs>
    <g>
     <use style="fill-opacity:0;stroke:#ff7500;stroke-linejoin:bevel;stroke-width:1.5;" x="178.525241" xlink:href="#mecdb63b2d5" y="229.939043"/>
     <use style="fill-opacity:0;stroke:#ff7500;stroke-linejoin:bevel;stroke-width:1.5;" x="217.747367" xlink:href="#mecdb63b2d5" y="153.987278"/>
     <use style="fill-opacity:0;stroke:#ff7500;stroke-linejoin:bevel;stroke-width:1.5;" x="257.354943" xlink:href="#mecdb63b2d5" y="122.958203"/>
     <use style="fill-opacity:0;stroke:#ff7500;stroke-linejoin:bevel;stroke-width:1.5;" x="257.354943" xlink:href="#mecdb63b2d5" y="122.495082"/>
     <use style="fill-opacity:0;stroke:#ff7500;stroke-linejoin:bevel;stroke-width:1.5;" x="338.688" xlink:href="#mecdb63b2d5" y="122.495082"/>
    </g>
   </g>
   <g id="line2d_47">
    <path style="fill:none;stroke:#ff7500;stroke-linecap:square;stroke-width:1.5;"/>
    <g/>
   </g>
   <g id="line2d_48">
    <path clip-path="url(#p31ed1f1a88)" d="M 258.377201 122.495082 
" style="fill:none;stroke:#ff7500;stroke-linecap:square;stroke-width:1.5;"/>
    <defs>
     <path d="M -12 12 
L 12 -12 
M -12 -12 
L 12 12 
" id="m78d4eba463" style="stroke:#ff7500;"/>
    </defs>
    <g clip-path="url(#p31ed1f1a88)">
     <use style="fill:#ff7500;stroke:#ff7500;" x="258.377201" xlink:href="#m78d4eba463" y="122.495082"/>
    </g>
   </g>
   <g id="line2d_49">
    <path d="M 338.688 137.314939 
L 369.60768 293.571802 
" style="fill:none;stroke:#ff00ff;stroke-linecap:square;stroke-width:1.5;"/>
    <g>
     <use style="fill-opacity:0;stroke:#ff00ff;stroke-linejoin:miter;stroke-width:1.5;" x="338.688" xlink:href="#mce92377c27" y="137.314939"/>
     <use style="fill-opacity:0;stroke:#ff00ff;stroke-linejoin:miter;stroke-width:1.5;" x="369.60768" xlink:href="#mce92377c27" y="293.571802"/>
    </g>
   </g>
   <g id="line2d_50">
    <path d="M 338.688 129.44189 
L 369.60768 207.616634 
" style="fill:none;stroke:#000080;stroke-linecap:square;stroke-width:1.5;"/>
    <g>
     <use style="fill-opacity:0;stroke:#000080;stroke-width:1.5;" x="338.688" xlink:href="#m133b491b54" y="129.44189"/>
     <use style="fill-opacity:0;stroke:#000080;stroke-width:1.5;" x="369.60768" xlink:href="#m133b491b54" y="207.616634"/>
    </g>
   </g>
   <g id="line2d_51">
    <path d="M 338.688 122.495082 
L 369.60768 121.661465 
" style="fill:none;stroke:#ff7500;stroke-linecap:square;stroke-width:1.5;"/>
    <g>
     <use style="fill-opacity:0;stroke:#ff7500;stroke-linejoin:bevel;stroke-width:1.5;" x="338.688" xlink:href="#mecdb63b2d5" y="122.495082"/>
     <use style="fill-opacity:0;stroke:#ff7500;stroke-linejoin:bevel;stroke-width:1.5;" x="369.60768" xlink:href="#mecdb63b2d5" y="121.661465"/>
    </g>
   </g>
   <g id="line2d_52">
    <path d="M 338.688 298.944 
L 338.688 30.334099 
" style="fill:none;stroke:#000000;stroke-linecap:square;stroke-width:1.5;"/>
   </g>
   <g id="patch_3">
    <path d="M 57.6 298.944 
L 57.6 27.648 
" style="fill:none;stroke:#000000;stroke-linecap:square;stroke-linejoin:miter;stroke-width:0.8;"/>
   </g>
   <g id="patch_4">
    <path d="M 338.688 298.944 
L 338.688 27.648 
" style="fill:none;stroke:#000000;stroke-linecap:square;stroke-linejoin:miter;stroke-width:0.8;"/>
   </g>
   <g id="patch_5">
    <path d="M 57.6 298.944 
L 338.688 298.944 
" style="fill:none;stroke:#000000;stroke-linecap:square;stroke-linejoin:miter;stroke-width:0.8;"/>
   </g>
   <g id="patch_6">
    <path d="M 57.6 27.648 
L 338.688 27.648 
" style="fill:none;stroke:#000000;stroke-linecap:square;stroke-linejoin:miter;stroke-width:0.8;"/>
   </g>
   <g id="text_13">
    <!-- NSGA-II-M -->
    <g transform="translate(375.22944 298.262739)scale(0.17 -0.17)">
     <defs>
      <path d="M 9.8125 72.90625 
L 23.09375 72.90625 
L 55.421875 11.921875 
L 55.421875 72.90625 
L 64.984375 72.90625 
L 64.984375 0 
L 51.703125 0 
L 19.390625 60.984375 
L 19.390625 0 
L 9.8125 0 
z
" id="DejaVuSans-78"/>
      <path d="M 53.515625 70.515625 
L 53.515625 60.890625 
Q 47.90625 63.578125 42.921875 64.890625 
Q 37.9375 66.21875 33.296875 66.21875 
Q 25.25 66.21875 20.875 63.09375 
Q 16.5 59.96875 16.5 54.203125 
Q 16.5 49.359375 19.40625 46.890625 
Q 22.3125 44.4375 30.421875 42.921875 
L 36.375 41.703125 
Q 47.40625 39.59375 52.65625 34.296875 
Q 57.90625 29 57.90625 20.125 
Q 57.90625 9.515625 50.796875 4.046875 
Q 43.703125 -1.421875 29.984375 -1.421875 
Q 24.8125 -1.421875 18.96875 -0.25 
Q 13.140625 0.921875 6.890625 3.21875 
L 6.890625 13.375 
Q 12.890625 10.015625 18.65625 8.296875 
Q 24.421875 6.59375 29.984375 6.59375 
Q 38.421875 6.59375 43.015625 9.90625 
Q 47.609375 13.234375 47.609375 19.390625 
Q 47.609375 24.75 44.3125 27.78125 
Q 41.015625 30.8125 33.5 32.328125 
L 27.484375 33.5 
Q 16.453125 35.6875 11.515625 40.375 
Q 6.59375 45.0625 6.59375 53.421875 
Q 6.59375 63.09375 13.40625 68.65625 
Q 20.21875 74.21875 32.171875 74.21875 
Q 37.3125 74.21875 42.625 73.28125 
Q 47.953125 72.359375 53.515625 70.515625 
z
" id="DejaVuSans-83"/>
      <path d="M 59.515625 10.40625 
L 59.515625 29.984375 
L 43.40625 29.984375 
L 43.40625 38.09375 
L 69.28125 38.09375 
L 69.28125 6.78125 
Q 63.578125 2.734375 56.6875 0.65625 
Q 49.8125 -1.421875 42 -1.421875 
Q 24.90625 -1.421875 15.25 8.5625 
Q 5.609375 18.5625 5.609375 36.375 
Q 5.609375 54.25 15.25 64.234375 
Q 24.90625 74.21875 42 74.21875 
Q 49.125 74.21875 55.546875 72.453125 
Q 61.96875 70.703125 67.390625 67.28125 
L 67.390625 56.78125 
Q 61.921875 61.421875 55.765625 63.765625 
Q 49.609375 66.109375 42.828125 66.109375 
Q 29.4375 66.109375 22.71875 58.640625 
Q 16.015625 51.171875 16.015625 36.375 
Q 16.015625 21.625 22.71875 14.15625 
Q 29.4375 6.6875 42.828125 6.6875 
Q 48.046875 6.6875 52.140625 7.59375 
Q 56.25 8.5 59.515625 10.40625 
z
" id="DejaVuSans-71"/>
      <path d="M 34.1875 63.1875 
L 20.796875 26.90625 
L 47.609375 26.90625 
z
M 28.609375 72.90625 
L 39.796875 72.90625 
L 67.578125 0 
L 57.328125 0 
L 50.6875 18.703125 
L 17.828125 18.703125 
L 11.1875 0 
L 0.78125 0 
z
" id="DejaVuSans-65"/>
      <path d="M 9.8125 72.90625 
L 19.671875 72.90625 
L 19.671875 0 
L 9.8125 0 
z
" id="DejaVuSans-73"/>
      <path d="M 9.8125 72.90625 
L 24.515625 72.90625 
L 43.109375 23.296875 
L 61.8125 72.90625 
L 76.515625 72.90625 
L 76.515625 0 
L 66.890625 0 
L 66.890625 64.015625 
L 48.09375 14.015625 
L 38.1875 14.015625 
L 19.390625 64.015625 
L 19.390625 0 
L 9.8125 0 
z
" id="DejaVuSans-77"/>
     </defs>
     <use xlink:href="#DejaVuSans-78"/>
     <use x="74.804688" xlink:href="#DejaVuSans-83"/>
     <use x="138.28125" xlink:href="#DejaVuSans-71"/>
     <use x="215.771484" xlink:href="#DejaVuSans-65"/>
     <use x="281.929688" xlink:href="#DejaVuSans-45"/>
     <use x="318.013672" xlink:href="#DejaVuSans-73"/>
     <use x="347.505859" xlink:href="#DejaVuSans-73"/>
     <use x="376.998047" xlink:href="#DejaVuSans-45"/>
     <use x="413.082031" xlink:href="#DejaVuSans-77"/>
    </g>
   </g>
   <g id="text_14">
    <!-- COMO-100  -->
    <g transform="translate(375.22944 212.307571)scale(0.17 -0.17)">
     <defs>
      <path d="M 64.40625 67.28125 
L 64.40625 56.890625 
Q 59.421875 61.53125 53.78125 63.8125 
Q 48.140625 66.109375 41.796875 66.109375 
Q 29.296875 66.109375 22.65625 58.46875 
Q 16.015625 50.828125 16.015625 36.375 
Q 16.015625 21.96875 22.65625 14.328125 
Q 29.296875 6.6875 41.796875 6.6875 
Q 48.140625 6.6875 53.78125 8.984375 
Q 59.421875 11.28125 64.40625 15.921875 
L 64.40625 5.609375 
Q 59.234375 2.09375 53.4375 0.328125 
Q 47.65625 -1.421875 41.21875 -1.421875 
Q 24.65625 -1.421875 15.125 8.703125 
Q 5.609375 18.84375 5.609375 36.375 
Q 5.609375 53.953125 15.125 64.078125 
Q 24.65625 74.21875 41.21875 74.21875 
Q 47.75 74.21875 53.53125 72.484375 
Q 59.328125 70.75 64.40625 67.28125 
z
" id="DejaVuSans-67"/>
      <path d="M 39.40625 66.21875 
Q 28.65625 66.21875 22.328125 58.203125 
Q 16.015625 50.203125 16.015625 36.375 
Q 16.015625 22.609375 22.328125 14.59375 
Q 28.65625 6.59375 39.40625 6.59375 
Q 50.140625 6.59375 56.421875 14.59375 
Q 62.703125 22.609375 62.703125 36.375 
Q 62.703125 50.203125 56.421875 58.203125 
Q 50.140625 66.21875 39.40625 66.21875 
z
M 39.40625 74.21875 
Q 54.734375 74.21875 63.90625 63.9375 
Q 73.09375 53.65625 73.09375 36.375 
Q 73.09375 19.140625 63.90625 8.859375 
Q 54.734375 -1.421875 39.40625 -1.421875 
Q 24.03125 -1.421875 14.8125 8.828125 
Q 5.609375 19.09375 5.609375 36.375 
Q 5.609375 53.65625 14.8125 63.9375 
Q 24.03125 74.21875 39.40625 74.21875 
z
" id="DejaVuSans-79"/>
     </defs>
     <use xlink:href="#DejaVuSans-67"/>
     <use x="69.824219" xlink:href="#DejaVuSans-79"/>
     <use x="148.535156" xlink:href="#DejaVuSans-77"/>
     <use x="234.814453" xlink:href="#DejaVuSans-79"/>
     <use x="316.275391" xlink:href="#DejaVuSans-45"/>
     <use x="352.359375" xlink:href="#DejaVuSans-49"/>
     <use x="415.982422" xlink:href="#DejaVuSans-48"/>
     <use x="479.605469" xlink:href="#DejaVuSans-48"/>
     <use x="543.228516" xlink:href="#DejaVuSans-32"/>
    </g>
   </g>
   <g id="text_15">
    <!-- SMS-EMOA- -->
    <g transform="translate(375.22944 126.352403)scale(0.17 -0.17)">
     <defs>
      <path d="M 9.8125 72.90625 
L 55.90625 72.90625 
L 55.90625 64.59375 
L 19.671875 64.59375 
L 19.671875 43.015625 
L 54.390625 43.015625 
L 54.390625 34.71875 
L 19.671875 34.71875 
L 19.671875 8.296875 
L 56.78125 8.296875 
L 56.78125 0 
L 9.8125 0 
z
" id="DejaVuSans-69"/>
     </defs>
     <use xlink:href="#DejaVuSans-83"/>
     <use x="63.476562" xlink:href="#DejaVuSans-77"/>
     <use x="149.755859" xlink:href="#DejaVuSans-83"/>
     <use x="213.232422" xlink:href="#DejaVuSans-45"/>
     <use x="249.316406" xlink:href="#DejaVuSans-69"/>
     <use x="312.5" xlink:href="#DejaVuSans-77"/>
     <use x="398.779297" xlink:href="#DejaVuSans-79"/>
     <use x="475.740234" xlink:href="#DejaVuSans-65"/>
     <use x="541.898438" xlink:href="#DejaVuSans-45"/>
    </g>
   </g>
   <g id="text_16">
    <!-- best 2016 -->
    <g transform="translate(375.22944 40.397235)scale(0.17 -0.17)">
     <defs>
      <path d="M 48.6875 27.296875 
Q 48.6875 37.203125 44.609375 42.84375 
Q 40.53125 48.484375 33.40625 48.484375 
Q 26.265625 48.484375 22.1875 42.84375 
Q 18.109375 37.203125 18.109375 27.296875 
Q 18.109375 17.390625 22.1875 11.75 
Q 26.265625 6.109375 33.40625 6.109375 
Q 40.53125 6.109375 44.609375 11.75 
Q 48.6875 17.390625 48.6875 27.296875 
z
M 18.109375 46.390625 
Q 20.953125 51.265625 25.265625 53.625 
Q 29.59375 56 35.59375 56 
Q 45.5625 56 51.78125 48.09375 
Q 58.015625 40.1875 58.015625 27.296875 
Q 58.015625 14.40625 51.78125 6.484375 
Q 45.5625 -1.421875 35.59375 -1.421875 
Q 29.59375 -1.421875 25.265625 0.953125 
Q 20.953125 3.328125 18.109375 8.203125 
L 18.109375 0 
L 9.078125 0 
L 9.078125 75.984375 
L 18.109375 75.984375 
z
" id="DejaVuSans-98"/>
     </defs>
     <use xlink:href="#DejaVuSans-98"/>
     <use x="63.476562" xlink:href="#DejaVuSans-101"/>
     <use x="125" xlink:href="#DejaVuSans-115"/>
     <use x="177.099609" xlink:href="#DejaVuSans-116"/>
     <use x="216.308594" xlink:href="#DejaVuSans-32"/>
     <use x="248.095703" xlink:href="#DejaVuSans-50"/>
     <use x="311.71875" xlink:href="#DejaVuSans-48"/>
     <use x="375.341797" xlink:href="#DejaVuSans-49"/>
     <use x="438.964844" xlink:href="#DejaVuSans-54"/>
    </g>
   </g>
   <g id="text_17">
    <!-- bbob-biobj f55, 3-D -->
    <g transform="translate(60.41088 38.111366)scale(0.102 -0.102)">
     <defs>
      <path d="M 9.421875 54.6875 
L 18.40625 54.6875 
L 18.40625 -0.984375 
Q 18.40625 -11.421875 14.421875 -16.109375 
Q 10.453125 -20.796875 1.609375 -20.796875 
L -1.8125 -20.796875 
L -1.8125 -13.1875 
L 0.59375 -13.1875 
Q 5.71875 -13.1875 7.5625 -10.8125 
Q 9.421875 -8.453125 9.421875 -0.984375 
z
M 9.421875 75.984375 
L 18.40625 75.984375 
L 18.40625 64.59375 
L 9.421875 64.59375 
z
" id="DejaVuSans-106"/>
      <path d="M 10.796875 72.90625 
L 49.515625 72.90625 
L 49.515625 64.59375 
L 19.828125 64.59375 
L 19.828125 46.734375 
Q 21.96875 47.46875 24.109375 47.828125 
Q 26.265625 48.1875 28.421875 48.1875 
Q 40.625 48.1875 47.75 41.5 
Q 54.890625 34.8125 54.890625 23.390625 
Q 54.890625 11.625 47.5625 5.09375 
Q 40.234375 -1.421875 26.90625 -1.421875 
Q 22.3125 -1.421875 17.546875 -0.640625 
Q 12.796875 0.140625 7.71875 1.703125 
L 7.71875 11.625 
Q 12.109375 9.234375 16.796875 8.0625 
Q 21.484375 6.890625 26.703125 6.890625 
Q 35.15625 6.890625 40.078125 11.328125 
Q 45.015625 15.765625 45.015625 23.390625 
Q 45.015625 31 40.078125 35.4375 
Q 35.15625 39.890625 26.703125 39.890625 
Q 22.75 39.890625 18.8125 39.015625 
Q 14.890625 38.140625 10.796875 36.28125 
z
" id="DejaVuSans-53"/>
      <path d="M 40.578125 39.3125 
Q 47.65625 37.796875 51.625 33 
Q 55.609375 28.21875 55.609375 21.1875 
Q 55.609375 10.40625 48.1875 4.484375 
Q 40.765625 -1.421875 27.09375 -1.421875 
Q 22.515625 -1.421875 17.65625 -0.515625 
Q 12.796875 0.390625 7.625 2.203125 
L 7.625 11.71875 
Q 11.71875 9.328125 16.59375 8.109375 
Q 21.484375 6.890625 26.8125 6.890625 
Q 36.078125 6.890625 40.9375 10.546875 
Q 45.796875 14.203125 45.796875 21.1875 
Q 45.796875 27.640625 41.28125 31.265625 
Q 36.765625 34.90625 28.71875 34.90625 
L 20.21875 34.90625 
L 20.21875 43.015625 
L 29.109375 43.015625 
Q 36.375 43.015625 40.234375 45.921875 
Q 44.09375 48.828125 44.09375 54.296875 
Q 44.09375 59.90625 40.109375 62.90625 
Q 36.140625 65.921875 28.71875 65.921875 
Q 24.65625 65.921875 20.015625 65.03125 
Q 15.375 64.15625 9.8125 62.3125 
L 9.8125 71.09375 
Q 15.4375 72.65625 20.34375 73.4375 
Q 25.25 74.21875 29.59375 74.21875 
Q 40.828125 74.21875 47.359375 69.109375 
Q 53.90625 64.015625 53.90625 55.328125 
Q 53.90625 49.265625 50.4375 45.09375 
Q 46.96875 40.921875 40.578125 39.3125 
z
" id="DejaVuSans-51"/>
      <path d="M 19.671875 64.796875 
L 19.671875 8.109375 
L 31.59375 8.109375 
Q 46.6875 8.109375 53.6875 14.9375 
Q 60.6875 21.78125 60.6875 36.53125 
Q 60.6875 51.171875 53.6875 57.984375 
Q 46.6875 64.796875 31.59375 64.796875 
z
M 9.8125 72.90625 
L 30.078125 72.90625 
Q 51.265625 72.90625 61.171875 64.09375 
Q 71.09375 55.28125 71.09375 36.53125 
Q 71.09375 17.671875 61.125 8.828125 
Q 51.171875 0 30.078125 0 
L 9.8125 0 
z
" id="DejaVuSans-68"/>
     </defs>
     <use xlink:href="#DejaVuSans-98"/>
     <use x="63.476562" xlink:href="#DejaVuSans-98"/>
     <use x="126.953125" xlink:href="#DejaVuSans-111"/>
     <use x="188.134766" xlink:href="#DejaVuSans-98"/>
     <use x="251.611328" xlink:href="#DejaVuSans-45"/>
     <use x="287.695312" xlink:href="#DejaVuSans-98"/>
     <use x="351.171875" xlink:href="#DejaVuSans-105"/>
     <use x="378.955078" xlink:href="#DejaVuSans-111"/>
     <use x="440.136719" xlink:href="#DejaVuSans-98"/>
     <use x="503.613281" xlink:href="#DejaVuSans-106"/>
     <use x="531.396484" xlink:href="#DejaVuSans-32"/>
     <use x="563.183594" xlink:href="#DejaVuSans-102"/>
     <use x="598.388672" xlink:href="#DejaVuSans-53"/>
     <use x="662.011719" xlink:href="#DejaVuSans-53"/>
     <use x="725.634766" xlink:href="#DejaVuSans-44"/>
     <use x="757.421875" xlink:href="#DejaVuSans-32"/>
     <use x="789.208984" xlink:href="#DejaVuSans-51"/>
     <use x="852.832031" xlink:href="#DejaVuSans-45"/>
     <use x="888.916016" xlink:href="#DejaVuSans-68"/>
    </g>
    <!-- 58 targets: 1..-1.0e-4 -->
    <g transform="translate(60.41088 49.533135)scale(0.102 -0.102)">
     <defs>
      <path d="M 11.71875 12.40625 
L 22.015625 12.40625 
L 22.015625 0 
L 11.71875 0 
z
M 11.71875 51.703125 
L 22.015625 51.703125 
L 22.015625 39.3125 
L 11.71875 39.3125 
z
" id="DejaVuSans-58"/>
     </defs>
     <use xlink:href="#DejaVuSans-53"/>
     <use x="63.623047" xlink:href="#DejaVuSans-56"/>
     <use x="127.246094" xlink:href="#DejaVuSans-32"/>
     <use x="159.033203" xlink:href="#DejaVuSans-116"/>
     <use x="198.242188" xlink:href="#DejaVuSans-97"/>
     <use x="259.521484" xlink:href="#DejaVuSans-114"/>
     <use x="298.884766" xlink:href="#DejaVuSans-103"/>
     <use x="362.361328" xlink:href="#DejaVuSans-101"/>
     <use x="423.884766" xlink:href="#DejaVuSans-116"/>
     <use x="463.09375" xlink:href="#DejaVuSans-115"/>
     <use x="515.193359" xlink:href="#DejaVuSans-58"/>
     <use x="548.884766" xlink:href="#DejaVuSans-32"/>
     <use x="580.671875" xlink:href="#DejaVuSans-49"/>
     <use x="644.294922" xlink:href="#DejaVuSans-46"/>
     <use x="676.082031" xlink:href="#DejaVuSans-46"/>
     <use x="707.869141" xlink:href="#DejaVuSans-45"/>
     <use x="743.953125" xlink:href="#DejaVuSans-49"/>
     <use x="807.576172" xlink:href="#DejaVuSans-46"/>
     <use x="839.363281" xlink:href="#DejaVuSans-48"/>
     <use x="902.986328" xlink:href="#DejaVuSans-101"/>
     <use x="964.509766" xlink:href="#DejaVuSans-45"/>
     <use x="1000.59375" xlink:href="#DejaVuSans-52"/>
    </g>
    <!-- 10 instances -->
    <g transform="translate(60.41088 60.954904)scale(0.102 -0.102)">
     <use xlink:href="#DejaVuSans-49"/>
     <use x="63.623047" xlink:href="#DejaVuSans-48"/>
     <use x="127.246094" xlink:href="#DejaVuSans-32"/>
     <use x="159.033203" xlink:href="#DejaVuSans-105"/>
     <use x="186.816406" xlink:href="#DejaVuSans-110"/>
     <use x="250.195312" xlink:href="#DejaVuSans-115"/>
     <use x="302.294922" xlink:href="#DejaVuSans-116"/>
     <use x="341.503906" xlink:href="#DejaVuSans-97"/>
     <use x="402.783203" xlink:href="#DejaVuSans-110"/>
     <use x="466.162109" xlink:href="#DejaVuSans-99"/>
     <use x="521.142578" xlink:href="#DejaVuSans-101"/>
     <use x="582.666016" xlink:href="#DejaVuSans-115"/>
    </g>
   </g>
   <g id="text_18">
    <!-- v2.4.19, hv-hash=ff0e71e8cd978373 -->
    <g style="fill:#808080;" transform="translate(104.697125 294.151352)scale(0.1 -0.1)">
     <defs>
      <path d="M 10.984375 1.515625 
L 10.984375 10.5 
Q 14.703125 8.734375 18.5 7.8125 
Q 22.3125 6.890625 25.984375 6.890625 
Q 35.75 6.890625 40.890625 13.453125 
Q 46.046875 20.015625 46.78125 33.40625 
Q 43.953125 29.203125 39.59375 26.953125 
Q 35.25 24.703125 29.984375 24.703125 
Q 19.046875 24.703125 12.671875 31.3125 
Q 6.296875 37.9375 6.296875 49.421875 
Q 6.296875 60.640625 12.9375 67.421875 
Q 19.578125 74.21875 30.609375 74.21875 
Q 43.265625 74.21875 49.921875 64.515625 
Q 56.59375 54.828125 56.59375 36.375 
Q 56.59375 19.140625 48.40625 8.859375 
Q 40.234375 -1.421875 26.421875 -1.421875 
Q 22.703125 -1.421875 18.890625 -0.6875 
Q 15.09375 0.046875 10.984375 1.515625 
z
M 30.609375 32.421875 
Q 37.25 32.421875 41.125 36.953125 
Q 45.015625 41.5 45.015625 49.421875 
Q 45.015625 57.28125 41.125 61.84375 
Q 37.25 66.40625 30.609375 66.40625 
Q 23.96875 66.40625 20.09375 61.84375 
Q 16.21875 57.28125 16.21875 49.421875 
Q 16.21875 41.5 20.09375 36.953125 
Q 23.96875 32.421875 30.609375 32.421875 
z
" id="DejaVuSans-57"/>
      <path d="M 54.890625 33.015625 
L 54.890625 0 
L 45.90625 0 
L 45.90625 32.71875 
Q 45.90625 40.484375 42.875 44.328125 
Q 39.84375 48.1875 33.796875 48.1875 
Q 26.515625 48.1875 22.3125 43.546875 
Q 18.109375 38.921875 18.109375 30.90625 
L 18.109375 0 
L 9.078125 0 
L 9.078125 75.984375 
L 18.109375 75.984375 
L 18.109375 46.1875 
Q 21.34375 51.125 25.703125 53.5625 
Q 30.078125 56 35.796875 56 
Q 45.21875 56 50.046875 50.171875 
Q 54.890625 44.34375 54.890625 33.015625 
z
" id="DejaVuSans-104"/>
      <path d="M 10.59375 45.40625 
L 73.1875 45.40625 
L 73.1875 37.203125 
L 10.59375 37.203125 
z
M 10.59375 25.484375 
L 73.1875 25.484375 
L 73.1875 17.1875 
L 10.59375 17.1875 
z
" id="DejaVuSans-61"/>
      <path d="M 8.203125 72.90625 
L 55.078125 72.90625 
L 55.078125 68.703125 
L 28.609375 0 
L 18.3125 0 
L 43.21875 64.59375 
L 8.203125 64.59375 
z
" id="DejaVuSans-55"/>
     </defs>
     <use xlink:href="#DejaVuSans-118"/>
     <use x="59.179688" xlink:href="#DejaVuSans-50"/>
     <use x="122.802734" xlink:href="#DejaVuSans-46"/>
     <use x="154.589844" xlink:href="#DejaVuSans-52"/>
     <use x="218.212891" xlink:href="#DejaVuSans-46"/>
     <use x="250" xlink:href="#DejaVuSans-49"/>
     <use x="313.623047" xlink:href="#DejaVuSans-57"/>
     <use x="377.246094" xlink:href="#DejaVuSans-44"/>
     <use x="409.033203" xlink:href="#DejaVuSans-32"/>
     <use x="440.820312" xlink:href="#DejaVuSans-104"/>
     <use x="504.199219" xlink:href="#DejaVuSans-118"/>
     <use x="560.753906" xlink:href="#DejaVuSans-45"/>
     <use x="596.837891" xlink:href="#DejaVuSans-104"/>
     <use x="660.216797" xlink:href="#DejaVuSans-97"/>
     <use x="721.496094" xlink:href="#DejaVuSans-115"/>
     <use x="773.595703" xlink:href="#DejaVuSans-104"/>
     <use x="836.974609" xlink:href="#DejaVuSans-61"/>
     <use x="920.763672" xlink:href="#DejaVuSans-102"/>
     <use x="955.96875" xlink:href="#DejaVuSans-102"/>
     <use x="991.173828" xlink:href="#DejaVuSans-48"/>
     <use x="1054.796875" xlink:href="#DejaVuSans-101"/>
     <use x="1116.320312" xlink:href="#DejaVuSans-55"/>
     <use x="1179.943359" xlink:href="#DejaVuSans-49"/>
     <use x="1243.566406" xlink:href="#DejaVuSans-101"/>
     <use x="1305.089844" xlink:href="#DejaVuSans-56"/>
     <use x="1368.712891" xlink:href="#DejaVuSans-99"/>
     <use x="1423.693359" xlink:href="#DejaVuSans-100"/>
     <use x="1487.169922" xlink:href="#DejaVuSans-57"/>
     <use x="1550.792969" xlink:href="#DejaVuSans-55"/>
     <use x="1614.416016" xlink:href="#DejaVuSans-56"/>
     <use x="1678.039062" xlink:href="#DejaVuSans-51"/>
     <use x="1741.662109" xlink:href="#DejaVuSans-55"/>
     <use x="1805.285156" xlink:href="#DejaVuSans-51"/>
    </g>
   </g>
   <g id="text_19">
    <!-- 55 Gallagher 101/Gallagh. 101 -->
    <g transform="translate(44.404937 21.648)scale(0.2 -0.2)">
     <use xlink:href="#DejaVuSans-53"/>
     <use x="63.623047" xlink:href="#DejaVuSans-53"/>
     <use x="127.246094" xlink:href="#DejaVuSans-32"/>
     <use x="159.033203" xlink:href="#DejaVuSans-71"/>
     <use x="236.523438" xlink:href="#DejaVuSans-97"/>
     <use x="297.802734" xlink:href="#DejaVuSans-108"/>
     <use x="325.585938" xlink:href="#DejaVuSans-108"/>
     <use x="353.369141" xlink:href="#DejaVuSans-97"/>
     <use x="414.648438" xlink:href="#DejaVuSans-103"/>
     <use x="478.125" xlink:href="#DejaVuSans-104"/>
     <use x="541.503906" xlink:href="#DejaVuSans-101"/>
     <use x="603.027344" xlink:href="#DejaVuSans-114"/>
     <use x="644.140625" xlink:href="#DejaVuSans-32"/>
     <use x="675.927734" xlink:href="#DejaVuSans-49"/>
     <use x="739.550781" xlink:href="#DejaVuSans-48"/>
     <use x="803.173828" xlink:href="#DejaVuSans-49"/>
     <use x="866.796875" xlink:href="#DejaVuSans-47"/>
     <use x="900.488281" xlink:href="#DejaVuSans-71"/>
     <use x="977.978516" xlink:href="#DejaVuSans-97"/>
     <use x="1039.257812" xlink:href="#DejaVuSans-108"/>
     <use x="1067.041016" xlink:href="#DejaVuSans-108"/>
     <use x="1094.824219" xlink:href="#DejaVuSans-97"/>
     <use x="1156.103516" xlink:href="#DejaVuSans-103"/>
     <use x="1219.580078" xlink:href="#DejaVuSans-104"/>
     <use x="1282.958984" xlink:href="#DejaVuSans-46"/>
     <use x="1314.746094" xlink:href="#DejaVuSans-32"/>
     <use x="1346.533203" xlink:href="#DejaVuSans-49"/>
     <use x="1410.15625" xlink:href="#DejaVuSans-48"/>
     <use x="1473.779297" xlink:href="#DejaVuSans-49"/>
    </g>
   </g>
  </g>
 </g>
 <defs>
  <clipPath id="p31ed1f1a88">
   <rect height="271.296" width="281.088" x="57.6" y="27.648"/>
  </clipPath>
 </defs>
</svg>
