<?xml version="1.0" encoding="utf-8" standalone="no"?>
<!DOCTYPE svg PUBLIC "-//W3C//DTD SVG 1.1//EN"
  "http://www.w3.org/Graphics/SVG/1.1/DTD/svg11.dtd">
<!-- Created with matplotlib (https://matplotlib.org/) -->
<svg height="345.6pt" version="1.1" viewBox="0 0 460.8 345.6" width="460.8pt" xmlns="http://www.w3.org/2000/svg" xmlns:xlink="http://www.w3.org/1999/xlink">
 <metadata>
  <rdf:RDF xmlns:cc="http://creativecommons.org/ns#" xmlns:dc="http://purl.org/dc/elements/1.1/" xmlns:rdf="http://www.w3.org/1999/02/22-rdf-syntax-ns#">
   <cc:Work>
    <dc:type rdf:resource="http://purl.org/dc/dcmitype/StillImage"/>
    <dc:date>2021-04-26T15:05:28.947623</dc:date>
    <dc:format>image/svg+xml</dc:format>
    <dc:creator>
     <cc:Agent>
      <dc:title>Matplotlib v3.3.2, https://matplotlib.org/</dc:title>
     </cc:Agent>
    </dc:creator>
   </cc:Work>
  </rdf:RDF>
 </metadata>
 <defs>
  <style type="text/css">*{stroke-linecap:butt;stroke-linejoin:round;}</style>
 </defs>
 <g id="figure_1">
  <g id="patch_1">
   <path d="M 0 345.6 
L 460.8 345.6 
L 460.8 0 
L 0 0 
z
" style="fill:#ffffff;"/>
  </g>
  <g id="axes_1">
   <g id="patch_2">
    <path d="M 57.6 298.944 
L 338.688 298.944 
L 338.688 27.648 
L 57.6 27.648 
z
" style="fill:#ffffff;"/>
   </g>
   <g id="line2d_1">
    <path d="M 64.67102 298.944 
L 64.67102 294.312795 
L 73.579452 294.312795 
L 73.579452 285.050384 
L 85.66744 285.050384 
L 85.66744 275.787974 
L 93.863965 275.787974 
L 93.863965 271.156769 
L 97.755429 271.156769 
L 97.755429 257.263153 
L 102.330873 257.263153 
L 102.330873 248.000743 
L 119.351785 248.000743 
L 119.351785 243.369538 
L 124.368753 243.369538 
L 124.368753 234.107127 
L 127.799239 234.107127 
L 127.799239 220.213512 
L 137.558536 220.213512 
L 137.558536 210.951101 
L 143.079756 210.951101 
L 143.079756 201.688691 
L 148.686322 201.688691 
L 148.686322 192.426281 
L 153.287059 192.426281 
L 153.287059 187.795075 
L 157.185742 187.795075 
L 157.185742 173.90146 
L 163.185069 173.90146 
L 163.185069 169.270255 
L 169.157854 169.270255 
L 169.157854 155.376639 
L 176.151193 155.376639 
L 176.151193 146.114229 
L 177.208443 146.114229 
L 177.208443 141.483024 
L 178.360262 141.483024 
L 178.360262 127.589408 
L 183.370799 127.589408 
L 183.370799 122.958203 
L 185.310832 122.958203 
L 185.310832 109.064587 
L 192.473699 109.064587 
L 192.473699 99.802177 
L 196.306283 99.802177 
L 196.306283 90.539766 
L 204.596005 90.539766 
L 204.596005 85.908561 
L 205.571949 85.908561 
L 205.571949 76.646151 
L 218.168443 76.646151 
L 218.168443 62.752535 
L 338.688 62.752535 
" style="fill:none;stroke:#f5deb3;stroke-linecap:square;stroke-width:4;"/>
   </g>
   <g id="line2d_2">
    <defs>
     <path d="M 0 7.778175 
L 7.778175 0 
L 0 -7.778175 
L -7.778175 0 
z
" id="m361f4b2817" style="stroke:#f5deb3;stroke-linejoin:miter;stroke-width:1.5;"/>
    </defs>
    <g>
     <use style="fill:#f5deb3;stroke:#f5deb3;stroke-linejoin:miter;stroke-width:1.5;" x="148.686322" xlink:href="#m361f4b2817" y="192.426281"/>
     <use style="fill:#f5deb3;stroke:#f5deb3;stroke-linejoin:miter;stroke-width:1.5;" x="185.310832" xlink:href="#m361f4b2817" y="122.958203"/>
     <use style="fill:#f5deb3;stroke:#f5deb3;stroke-linejoin:miter;stroke-width:1.5;" x="218.168443" xlink:href="#m361f4b2817" y="62.752535"/>
     <use style="fill:#f5deb3;stroke:#f5deb3;stroke-linejoin:miter;stroke-width:1.5;" x="218.168443" xlink:href="#m361f4b2817" y="62.752535"/>
     <use style="fill:#f5deb3;stroke:#f5deb3;stroke-linejoin:miter;stroke-width:1.5;" x="338.688" xlink:href="#m361f4b2817" y="62.752535"/>
    </g>
   </g>
   <g id="line2d_3">
    <path style="fill:none;stroke:#f5deb3;stroke-linecap:square;stroke-width:4;"/>
    <g/>
   </g>
   <g id="line2d_4">
    <path d="M 338.688 62.752535 
L 369.60768 35.706297 
" style="fill:none;stroke:#f5deb3;stroke-linecap:square;stroke-width:4;"/>
    <g>
     <use style="fill:#f5deb3;stroke:#f5deb3;stroke-linejoin:miter;stroke-width:1.5;" x="338.688" xlink:href="#m361f4b2817" y="62.752535"/>
     <use style="fill:#f5deb3;stroke:#f5deb3;stroke-linejoin:miter;stroke-width:1.5;" x="369.60768" xlink:href="#m361f4b2817" y="35.706297"/>
    </g>
   </g>
   <g id="matplotlib.axis_1">
    <g id="xtick_1">
     <g id="line2d_5">
      <path clip-path="url(#p6510498943)" d="M 57.6 298.944 
L 57.6 27.648 
" style="fill:none;stroke:#b0b0b0;stroke-linecap:square;stroke-width:0.8;"/>
     </g>
     <g id="line2d_6">
      <defs>
       <path d="M 0 0 
L 0 3.5 
" id="mabc6db77dd" style="stroke:#000000;stroke-width:0.8;"/>
      </defs>
      <g>
       <use style="stroke:#000000;stroke-width:0.8;" x="57.6" xlink:href="#mabc6db77dd" y="298.944"/>
      </g>
     </g>
     <g id="text_1">
      <!-- 0 -->
      <g transform="translate(51.2375 321.140875)scale(0.2 -0.2)">
       <defs>
        <path d="M 31.78125 66.40625 
Q 24.171875 66.40625 20.328125 58.90625 
Q 16.5 51.421875 16.5 36.375 
Q 16.5 21.390625 20.328125 13.890625 
Q 24.171875 6.390625 31.78125 6.390625 
Q 39.453125 6.390625 43.28125 13.890625 
Q 47.125 21.390625 47.125 36.375 
Q 47.125 51.421875 43.28125 58.90625 
Q 39.453125 66.40625 31.78125 66.40625 
z
M 31.78125 74.21875 
Q 44.046875 74.21875 50.515625 64.515625 
Q 56.984375 54.828125 56.984375 36.375 
Q 56.984375 17.96875 50.515625 8.265625 
Q 44.046875 -1.421875 31.78125 -1.421875 
Q 19.53125 -1.421875 13.0625 8.265625 
Q 6.59375 17.96875 6.59375 36.375 
Q 6.59375 54.828125 13.0625 64.515625 
Q 19.53125 74.21875 31.78125 74.21875 
z
" id="DejaVuSans-48"/>
       </defs>
       <use xlink:href="#DejaVuSans-48"/>
      </g>
     </g>
    </g>
    <g id="xtick_2">
     <g id="line2d_7">
      <path clip-path="url(#p6510498943)" d="M 137.910857 298.944 
L 137.910857 27.648 
" style="fill:none;stroke:#b0b0b0;stroke-linecap:square;stroke-width:0.8;"/>
     </g>
     <g id="line2d_8">
      <g>
       <use style="stroke:#000000;stroke-width:0.8;" x="137.910857" xlink:href="#mabc6db77dd" y="298.944"/>
      </g>
     </g>
     <g id="text_2">
      <!-- 2 -->
      <g transform="translate(131.548357 321.140875)scale(0.2 -0.2)">
       <defs>
        <path d="M 19.1875 8.296875 
L 53.609375 8.296875 
L 53.609375 0 
L 7.328125 0 
L 7.328125 8.296875 
Q 12.9375 14.109375 22.625 23.890625 
Q 32.328125 33.6875 34.8125 36.53125 
Q 39.546875 41.84375 41.421875 45.53125 
Q 43.3125 49.21875 43.3125 52.78125 
Q 43.3125 58.59375 39.234375 62.25 
Q 35.15625 65.921875 28.609375 65.921875 
Q 23.96875 65.921875 18.8125 64.3125 
Q 13.671875 62.703125 7.8125 59.421875 
L 7.8125 69.390625 
Q 13.765625 71.78125 18.9375 73 
Q 24.125 74.21875 28.421875 74.21875 
Q 39.75 74.21875 46.484375 68.546875 
Q 53.21875 62.890625 53.21875 53.421875 
Q 53.21875 48.921875 51.53125 44.890625 
Q 49.859375 40.875 45.40625 35.40625 
Q 44.1875 33.984375 37.640625 27.21875 
Q 31.109375 20.453125 19.1875 8.296875 
z
" id="DejaVuSans-50"/>
       </defs>
       <use xlink:href="#DejaVuSans-50"/>
      </g>
     </g>
    </g>
    <g id="xtick_3">
     <g id="line2d_9">
      <path clip-path="url(#p6510498943)" d="M 218.221714 298.944 
L 218.221714 27.648 
" style="fill:none;stroke:#b0b0b0;stroke-linecap:square;stroke-width:0.8;"/>
     </g>
     <g id="line2d_10">
      <g>
       <use style="stroke:#000000;stroke-width:0.8;" x="218.221714" xlink:href="#mabc6db77dd" y="298.944"/>
      </g>
     </g>
     <g id="text_3">
      <!-- 4 -->
      <g transform="translate(211.859214 321.140875)scale(0.2 -0.2)">
       <defs>
        <path d="M 37.796875 64.3125 
L 12.890625 25.390625 
L 37.796875 25.390625 
z
M 35.203125 72.90625 
L 47.609375 72.90625 
L 47.609375 25.390625 
L 58.015625 25.390625 
L 58.015625 17.1875 
L 47.609375 17.1875 
L 47.609375 0 
L 37.796875 0 
L 37.796875 17.1875 
L 4.890625 17.1875 
L 4.890625 26.703125 
z
" id="DejaVuSans-52"/>
       </defs>
       <use xlink:href="#DejaVuSans-52"/>
      </g>
     </g>
    </g>
    <g id="xtick_4">
     <g id="line2d_11">
      <path clip-path="url(#p6510498943)" d="M 298.532571 298.944 
L 298.532571 27.648 
" style="fill:none;stroke:#b0b0b0;stroke-linecap:square;stroke-width:0.8;"/>
     </g>
     <g id="line2d_12">
      <g>
       <use style="stroke:#000000;stroke-width:0.8;" x="298.532571" xlink:href="#mabc6db77dd" y="298.944"/>
      </g>
     </g>
     <g id="text_4">
      <!-- 6 -->
      <g transform="translate(292.170071 321.140875)scale(0.2 -0.2)">
       <defs>
        <path d="M 33.015625 40.375 
Q 26.375 40.375 22.484375 35.828125 
Q 18.609375 31.296875 18.609375 23.390625 
Q 18.609375 15.53125 22.484375 10.953125 
Q 26.375 6.390625 33.015625 6.390625 
Q 39.65625 6.390625 43.53125 10.953125 
Q 47.40625 15.53125 47.40625 23.390625 
Q 47.40625 31.296875 43.53125 35.828125 
Q 39.65625 40.375 33.015625 40.375 
z
M 52.59375 71.296875 
L 52.59375 62.3125 
Q 48.875 64.0625 45.09375 64.984375 
Q 41.3125 65.921875 37.59375 65.921875 
Q 27.828125 65.921875 22.671875 59.328125 
Q 17.53125 52.734375 16.796875 39.40625 
Q 19.671875 43.65625 24.015625 45.921875 
Q 28.375 48.1875 33.59375 48.1875 
Q 44.578125 48.1875 50.953125 41.515625 
Q 57.328125 34.859375 57.328125 23.390625 
Q 57.328125 12.15625 50.6875 5.359375 
Q 44.046875 -1.421875 33.015625 -1.421875 
Q 20.359375 -1.421875 13.671875 8.265625 
Q 6.984375 17.96875 6.984375 36.375 
Q 6.984375 53.65625 15.1875 63.9375 
Q 23.390625 74.21875 37.203125 74.21875 
Q 40.921875 74.21875 44.703125 73.484375 
Q 48.484375 72.75 52.59375 71.296875 
z
" id="DejaVuSans-54"/>
       </defs>
       <use xlink:href="#DejaVuSans-54"/>
      </g>
     </g>
    </g>
    <g id="xtick_5">
     <g id="line2d_13">
      <path clip-path="url(#p6510498943)" d="M 97.755429 298.944 
L 97.755429 27.648 
" style="fill:none;stroke:#b0b0b0;stroke-linecap:square;stroke-width:0.8;"/>
     </g>
     <g id="line2d_14">
      <defs>
       <path d="M 0 0 
L 0 2 
" id="m6c8f1c97a7" style="stroke:#000000;stroke-width:0.6;"/>
      </defs>
      <g>
       <use style="stroke:#000000;stroke-width:0.6;" x="97.755429" xlink:href="#m6c8f1c97a7" y="298.944"/>
      </g>
     </g>
    </g>
    <g id="xtick_6">
     <g id="line2d_15">
      <path clip-path="url(#p6510498943)" d="M 178.066286 298.944 
L 178.066286 27.648 
" style="fill:none;stroke:#b0b0b0;stroke-linecap:square;stroke-width:0.8;"/>
     </g>
     <g id="line2d_16">
      <g>
       <use style="stroke:#000000;stroke-width:0.6;" x="178.066286" xlink:href="#m6c8f1c97a7" y="298.944"/>
      </g>
     </g>
    </g>
    <g id="xtick_7">
     <g id="line2d_17">
      <path clip-path="url(#p6510498943)" d="M 258.377143 298.944 
L 258.377143 27.648 
" style="fill:none;stroke:#b0b0b0;stroke-linecap:square;stroke-width:0.8;"/>
     </g>
     <g id="line2d_18">
      <g>
       <use style="stroke:#000000;stroke-width:0.6;" x="258.377143" xlink:href="#m6c8f1c97a7" y="298.944"/>
      </g>
     </g>
    </g>
    <g id="xtick_8">
     <g id="line2d_19">
      <path clip-path="url(#p6510498943)" d="M 338.688 298.944 
L 338.688 27.648 
" style="fill:none;stroke:#b0b0b0;stroke-linecap:square;stroke-width:0.8;"/>
     </g>
     <g id="line2d_20">
      <g>
       <use style="stroke:#000000;stroke-width:0.6;" x="338.688" xlink:href="#m6c8f1c97a7" y="298.944"/>
      </g>
     </g>
    </g>
    <g id="text_5">
     <!-- log10(# f-evals / dimension) -->
     <g transform="translate(77.764078 342.217594)scale(0.17 -0.17)">
      <defs>
       <path d="M 9.421875 75.984375 
L 18.40625 75.984375 
L 18.40625 0 
L 9.421875 0 
z
" id="DejaVuSans-108"/>
       <path d="M 30.609375 48.390625 
Q 23.390625 48.390625 19.1875 42.75 
Q 14.984375 37.109375 14.984375 27.296875 
Q 14.984375 17.484375 19.15625 11.84375 
Q 23.34375 6.203125 30.609375 6.203125 
Q 37.796875 6.203125 41.984375 11.859375 
Q 46.1875 17.53125 46.1875 27.296875 
Q 46.1875 37.015625 41.984375 42.703125 
Q 37.796875 48.390625 30.609375 48.390625 
z
M 30.609375 56 
Q 42.328125 56 49.015625 48.375 
Q 55.71875 40.765625 55.71875 27.296875 
Q 55.71875 13.875 49.015625 6.21875 
Q 42.328125 -1.421875 30.609375 -1.421875 
Q 18.84375 -1.421875 12.171875 6.21875 
Q 5.515625 13.875 5.515625 27.296875 
Q 5.515625 40.765625 12.171875 48.375 
Q 18.84375 56 30.609375 56 
z
" id="DejaVuSans-111"/>
       <path d="M 45.40625 27.984375 
Q 45.40625 37.75 41.375 43.109375 
Q 37.359375 48.484375 30.078125 48.484375 
Q 22.859375 48.484375 18.828125 43.109375 
Q 14.796875 37.75 14.796875 27.984375 
Q 14.796875 18.265625 18.828125 12.890625 
Q 22.859375 7.515625 30.078125 7.515625 
Q 37.359375 7.515625 41.375 12.890625 
Q 45.40625 18.265625 45.40625 27.984375 
z
M 54.390625 6.78125 
Q 54.390625 -7.171875 48.1875 -13.984375 
Q 42 -20.796875 29.203125 -20.796875 
Q 24.46875 -20.796875 20.265625 -20.09375 
Q 16.0625 -19.390625 12.109375 -17.921875 
L 12.109375 -9.1875 
Q 16.0625 -11.328125 19.921875 -12.34375 
Q 23.78125 -13.375 27.78125 -13.375 
Q 36.625 -13.375 41.015625 -8.765625 
Q 45.40625 -4.15625 45.40625 5.171875 
L 45.40625 9.625 
Q 42.625 4.78125 38.28125 2.390625 
Q 33.9375 0 27.875 0 
Q 17.828125 0 11.671875 7.65625 
Q 5.515625 15.328125 5.515625 27.984375 
Q 5.515625 40.671875 11.671875 48.328125 
Q 17.828125 56 27.875 56 
Q 33.9375 56 38.28125 53.609375 
Q 42.625 51.21875 45.40625 46.390625 
L 45.40625 54.6875 
L 54.390625 54.6875 
z
" id="DejaVuSans-103"/>
       <path d="M 12.40625 8.296875 
L 28.515625 8.296875 
L 28.515625 63.921875 
L 10.984375 60.40625 
L 10.984375 69.390625 
L 28.421875 72.90625 
L 38.28125 72.90625 
L 38.28125 8.296875 
L 54.390625 8.296875 
L 54.390625 0 
L 12.40625 0 
z
" id="DejaVuSans-49"/>
       <path d="M 31 75.875 
Q 24.46875 64.65625 21.28125 53.65625 
Q 18.109375 42.671875 18.109375 31.390625 
Q 18.109375 20.125 21.3125 9.0625 
Q 24.515625 -2 31 -13.1875 
L 23.1875 -13.1875 
Q 15.875 -1.703125 12.234375 9.375 
Q 8.59375 20.453125 8.59375 31.390625 
Q 8.59375 42.28125 12.203125 53.3125 
Q 15.828125 64.359375 23.1875 75.875 
z
" id="DejaVuSans-40"/>
       <path d="M 51.125 44 
L 36.921875 44 
L 32.8125 27.6875 
L 47.125 27.6875 
z
M 43.796875 71.78125 
L 38.71875 51.515625 
L 52.984375 51.515625 
L 58.109375 71.78125 
L 65.921875 71.78125 
L 60.890625 51.515625 
L 76.125 51.515625 
L 76.125 44 
L 58.984375 44 
L 54.984375 27.6875 
L 70.515625 27.6875 
L 70.515625 20.21875 
L 53.078125 20.21875 
L 48 0 
L 40.1875 0 
L 45.21875 20.21875 
L 30.90625 20.21875 
L 25.875 0 
L 18.015625 0 
L 23.09375 20.21875 
L 7.71875 20.21875 
L 7.71875 27.6875 
L 24.90625 27.6875 
L 29 44 
L 13.28125 44 
L 13.28125 51.515625 
L 30.90625 51.515625 
L 35.890625 71.78125 
z
" id="DejaVuSans-35"/>
       <path id="DejaVuSans-32"/>
       <path d="M 37.109375 75.984375 
L 37.109375 68.5 
L 28.515625 68.5 
Q 23.6875 68.5 21.796875 66.546875 
Q 19.921875 64.59375 19.921875 59.515625 
L 19.921875 54.6875 
L 34.71875 54.6875 
L 34.71875 47.703125 
L 19.921875 47.703125 
L 19.921875 0 
L 10.890625 0 
L 10.890625 47.703125 
L 2.296875 47.703125 
L 2.296875 54.6875 
L 10.890625 54.6875 
L 10.890625 58.5 
Q 10.890625 67.625 15.140625 71.796875 
Q 19.390625 75.984375 28.609375 75.984375 
z
" id="DejaVuSans-102"/>
       <path d="M 4.890625 31.390625 
L 31.203125 31.390625 
L 31.203125 23.390625 
L 4.890625 23.390625 
z
" id="DejaVuSans-45"/>
       <path d="M 56.203125 29.59375 
L 56.203125 25.203125 
L 14.890625 25.203125 
Q 15.484375 15.921875 20.484375 11.0625 
Q 25.484375 6.203125 34.421875 6.203125 
Q 39.59375 6.203125 44.453125 7.46875 
Q 49.3125 8.734375 54.109375 11.28125 
L 54.109375 2.78125 
Q 49.265625 0.734375 44.1875 -0.34375 
Q 39.109375 -1.421875 33.890625 -1.421875 
Q 20.796875 -1.421875 13.15625 6.1875 
Q 5.515625 13.8125 5.515625 26.8125 
Q 5.515625 40.234375 12.765625 48.109375 
Q 20.015625 56 32.328125 56 
Q 43.359375 56 49.78125 48.890625 
Q 56.203125 41.796875 56.203125 29.59375 
z
M 47.21875 32.234375 
Q 47.125 39.59375 43.09375 43.984375 
Q 39.0625 48.390625 32.421875 48.390625 
Q 24.90625 48.390625 20.390625 44.140625 
Q 15.875 39.890625 15.1875 32.171875 
z
" id="DejaVuSans-101"/>
       <path d="M 2.984375 54.6875 
L 12.5 54.6875 
L 29.59375 8.796875 
L 46.6875 54.6875 
L 56.203125 54.6875 
L 35.6875 0 
L 23.484375 0 
z
" id="DejaVuSans-118"/>
       <path d="M 34.28125 27.484375 
Q 23.390625 27.484375 19.1875 25 
Q 14.984375 22.515625 14.984375 16.5 
Q 14.984375 11.71875 18.140625 8.90625 
Q 21.296875 6.109375 26.703125 6.109375 
Q 34.1875 6.109375 38.703125 11.40625 
Q 43.21875 16.703125 43.21875 25.484375 
L 43.21875 27.484375 
z
M 52.203125 31.203125 
L 52.203125 0 
L 43.21875 0 
L 43.21875 8.296875 
Q 40.140625 3.328125 35.546875 0.953125 
Q 30.953125 -1.421875 24.3125 -1.421875 
Q 15.921875 -1.421875 10.953125 3.296875 
Q 6 8.015625 6 15.921875 
Q 6 25.140625 12.171875 29.828125 
Q 18.359375 34.515625 30.609375 34.515625 
L 43.21875 34.515625 
L 43.21875 35.40625 
Q 43.21875 41.609375 39.140625 45 
Q 35.0625 48.390625 27.6875 48.390625 
Q 23 48.390625 18.546875 47.265625 
Q 14.109375 46.140625 10.015625 43.890625 
L 10.015625 52.203125 
Q 14.9375 54.109375 19.578125 55.046875 
Q 24.21875 56 28.609375 56 
Q 40.484375 56 46.34375 49.84375 
Q 52.203125 43.703125 52.203125 31.203125 
z
" id="DejaVuSans-97"/>
       <path d="M 44.28125 53.078125 
L 44.28125 44.578125 
Q 40.484375 46.53125 36.375 47.5 
Q 32.28125 48.484375 27.875 48.484375 
Q 21.1875 48.484375 17.84375 46.4375 
Q 14.5 44.390625 14.5 40.28125 
Q 14.5 37.15625 16.890625 35.375 
Q 19.28125 33.59375 26.515625 31.984375 
L 29.59375 31.296875 
Q 39.15625 29.25 43.1875 25.515625 
Q 47.21875 21.78125 47.21875 15.09375 
Q 47.21875 7.46875 41.1875 3.015625 
Q 35.15625 -1.421875 24.609375 -1.421875 
Q 20.21875 -1.421875 15.453125 -0.5625 
Q 10.6875 0.296875 5.421875 2 
L 5.421875 11.28125 
Q 10.40625 8.6875 15.234375 7.390625 
Q 20.0625 6.109375 24.8125 6.109375 
Q 31.15625 6.109375 34.5625 8.28125 
Q 37.984375 10.453125 37.984375 14.40625 
Q 37.984375 18.0625 35.515625 20.015625 
Q 33.0625 21.96875 24.703125 23.78125 
L 21.578125 24.515625 
Q 13.234375 26.265625 9.515625 29.90625 
Q 5.8125 33.546875 5.8125 39.890625 
Q 5.8125 47.609375 11.28125 51.796875 
Q 16.75 56 26.8125 56 
Q 31.78125 56 36.171875 55.265625 
Q 40.578125 54.546875 44.28125 53.078125 
z
" id="DejaVuSans-115"/>
       <path d="M 25.390625 72.90625 
L 33.6875 72.90625 
L 8.296875 -9.28125 
L 0 -9.28125 
z
" id="DejaVuSans-47"/>
       <path d="M 45.40625 46.390625 
L 45.40625 75.984375 
L 54.390625 75.984375 
L 54.390625 0 
L 45.40625 0 
L 45.40625 8.203125 
Q 42.578125 3.328125 38.25 0.953125 
Q 33.9375 -1.421875 27.875 -1.421875 
Q 17.96875 -1.421875 11.734375 6.484375 
Q 5.515625 14.40625 5.515625 27.296875 
Q 5.515625 40.1875 11.734375 48.09375 
Q 17.96875 56 27.875 56 
Q 33.9375 56 38.25 53.625 
Q 42.578125 51.265625 45.40625 46.390625 
z
M 14.796875 27.296875 
Q 14.796875 17.390625 18.875 11.75 
Q 22.953125 6.109375 30.078125 6.109375 
Q 37.203125 6.109375 41.296875 11.75 
Q 45.40625 17.390625 45.40625 27.296875 
Q 45.40625 37.203125 41.296875 42.84375 
Q 37.203125 48.484375 30.078125 48.484375 
Q 22.953125 48.484375 18.875 42.84375 
Q 14.796875 37.203125 14.796875 27.296875 
z
" id="DejaVuSans-100"/>
       <path d="M 9.421875 54.6875 
L 18.40625 54.6875 
L 18.40625 0 
L 9.421875 0 
z
M 9.421875 75.984375 
L 18.40625 75.984375 
L 18.40625 64.59375 
L 9.421875 64.59375 
z
" id="DejaVuSans-105"/>
       <path d="M 52 44.1875 
Q 55.375 50.25 60.0625 53.125 
Q 64.75 56 71.09375 56 
Q 79.640625 56 84.28125 50.015625 
Q 88.921875 44.046875 88.921875 33.015625 
L 88.921875 0 
L 79.890625 0 
L 79.890625 32.71875 
Q 79.890625 40.578125 77.09375 44.375 
Q 74.3125 48.1875 68.609375 48.1875 
Q 61.625 48.1875 57.5625 43.546875 
Q 53.515625 38.921875 53.515625 30.90625 
L 53.515625 0 
L 44.484375 0 
L 44.484375 32.71875 
Q 44.484375 40.625 41.703125 44.40625 
Q 38.921875 48.1875 33.109375 48.1875 
Q 26.21875 48.1875 22.15625 43.53125 
Q 18.109375 38.875 18.109375 30.90625 
L 18.109375 0 
L 9.078125 0 
L 9.078125 54.6875 
L 18.109375 54.6875 
L 18.109375 46.1875 
Q 21.1875 51.21875 25.484375 53.609375 
Q 29.78125 56 35.6875 56 
Q 41.65625 56 45.828125 52.96875 
Q 50 49.953125 52 44.1875 
z
" id="DejaVuSans-109"/>
       <path d="M 54.890625 33.015625 
L 54.890625 0 
L 45.90625 0 
L 45.90625 32.71875 
Q 45.90625 40.484375 42.875 44.328125 
Q 39.84375 48.1875 33.796875 48.1875 
Q 26.515625 48.1875 22.3125 43.546875 
Q 18.109375 38.921875 18.109375 30.90625 
L 18.109375 0 
L 9.078125 0 
L 9.078125 54.6875 
L 18.109375 54.6875 
L 18.109375 46.1875 
Q 21.34375 51.125 25.703125 53.5625 
Q 30.078125 56 35.796875 56 
Q 45.21875 56 50.046875 50.171875 
Q 54.890625 44.34375 54.890625 33.015625 
z
" id="DejaVuSans-110"/>
       <path d="M 8.015625 75.875 
L 15.828125 75.875 
Q 23.140625 64.359375 26.78125 53.3125 
Q 30.421875 42.28125 30.421875 31.390625 
Q 30.421875 20.453125 26.78125 9.375 
Q 23.140625 -1.703125 15.828125 -13.1875 
L 8.015625 -13.1875 
Q 14.5 -2 17.703125 9.0625 
Q 20.90625 20.125 20.90625 31.390625 
Q 20.90625 42.671875 17.703125 53.65625 
Q 14.5 64.65625 8.015625 75.875 
z
" id="DejaVuSans-41"/>
      </defs>
      <use xlink:href="#DejaVuSans-108"/>
      <use x="27.783203" xlink:href="#DejaVuSans-111"/>
      <use x="88.964844" xlink:href="#DejaVuSans-103"/>
      <use x="152.441406" xlink:href="#DejaVuSans-49"/>
      <use x="216.064453" xlink:href="#DejaVuSans-48"/>
      <use x="279.6875" xlink:href="#DejaVuSans-40"/>
      <use x="318.701172" xlink:href="#DejaVuSans-35"/>
      <use x="402.490234" xlink:href="#DejaVuSans-32"/>
      <use x="434.277344" xlink:href="#DejaVuSans-102"/>
      <use x="463.982422" xlink:href="#DejaVuSans-45"/>
      <use x="500.066406" xlink:href="#DejaVuSans-101"/>
      <use x="561.589844" xlink:href="#DejaVuSans-118"/>
      <use x="620.769531" xlink:href="#DejaVuSans-97"/>
      <use x="682.048828" xlink:href="#DejaVuSans-108"/>
      <use x="709.832031" xlink:href="#DejaVuSans-115"/>
      <use x="761.931641" xlink:href="#DejaVuSans-32"/>
      <use x="793.71875" xlink:href="#DejaVuSans-47"/>
      <use x="827.410156" xlink:href="#DejaVuSans-32"/>
      <use x="859.197266" xlink:href="#DejaVuSans-100"/>
      <use x="922.673828" xlink:href="#DejaVuSans-105"/>
      <use x="950.457031" xlink:href="#DejaVuSans-109"/>
      <use x="1047.869141" xlink:href="#DejaVuSans-101"/>
      <use x="1109.392578" xlink:href="#DejaVuSans-110"/>
      <use x="1172.771484" xlink:href="#DejaVuSans-115"/>
      <use x="1224.871094" xlink:href="#DejaVuSans-105"/>
      <use x="1252.654297" xlink:href="#DejaVuSans-111"/>
      <use x="1313.835938" xlink:href="#DejaVuSans-110"/>
      <use x="1377.214844" xlink:href="#DejaVuSans-41"/>
     </g>
    </g>
   </g>
   <g id="matplotlib.axis_2">
    <g id="ytick_1">
     <g id="line2d_21">
      <path clip-path="url(#p6510498943)" d="M 57.6 298.944 
L 338.688 298.944 
" style="fill:none;stroke:#b0b0b0;stroke-linecap:square;stroke-width:0.8;"/>
     </g>
     <g id="line2d_22">
      <defs>
       <path d="M 0 0 
L -3.5 0 
" id="ma3c5402975" style="stroke:#000000;stroke-width:0.8;"/>
      </defs>
      <g>
       <use style="stroke:#000000;stroke-width:0.8;" x="57.6" xlink:href="#ma3c5402975" y="298.944"/>
      </g>
     </g>
     <g id="text_6">
      <!-- 0.0 -->
      <g transform="translate(25.155 305.02275)scale(0.16 -0.16)">
       <defs>
        <path d="M 10.6875 12.40625 
L 21 12.40625 
L 21 0 
L 10.6875 0 
z
" id="DejaVuSans-46"/>
       </defs>
       <use xlink:href="#DejaVuSans-48"/>
       <use x="63.623047" xlink:href="#DejaVuSans-46"/>
       <use x="95.410156" xlink:href="#DejaVuSans-48"/>
      </g>
     </g>
    </g>
    <g id="ytick_2">
     <g id="line2d_23">
      <path clip-path="url(#p6510498943)" d="M 57.6 245.22202 
L 338.688 245.22202 
" style="fill:none;stroke:#b0b0b0;stroke-linecap:square;stroke-width:0.8;"/>
     </g>
     <g id="line2d_24">
      <g>
       <use style="stroke:#000000;stroke-width:0.8;" x="57.6" xlink:href="#ma3c5402975" y="245.22202"/>
      </g>
     </g>
     <g id="text_7">
      <!-- 0.2 -->
      <g transform="translate(25.155 251.30077)scale(0.16 -0.16)">
       <use xlink:href="#DejaVuSans-48"/>
       <use x="63.623047" xlink:href="#DejaVuSans-46"/>
       <use x="95.410156" xlink:href="#DejaVuSans-50"/>
      </g>
     </g>
    </g>
    <g id="ytick_3">
     <g id="line2d_25">
      <path clip-path="url(#p6510498943)" d="M 57.6 191.50004 
L 338.688 191.50004 
" style="fill:none;stroke:#b0b0b0;stroke-linecap:square;stroke-width:0.8;"/>
     </g>
     <g id="line2d_26">
      <g>
       <use style="stroke:#000000;stroke-width:0.8;" x="57.6" xlink:href="#ma3c5402975" y="191.50004"/>
      </g>
     </g>
     <g id="text_8">
      <!-- 0.4 -->
      <g transform="translate(25.155 197.57879)scale(0.16 -0.16)">
       <use xlink:href="#DejaVuSans-48"/>
       <use x="63.623047" xlink:href="#DejaVuSans-46"/>
       <use x="95.410156" xlink:href="#DejaVuSans-52"/>
      </g>
     </g>
    </g>
    <g id="ytick_4">
     <g id="line2d_27">
      <path clip-path="url(#p6510498943)" d="M 57.6 137.778059 
L 338.688 137.778059 
" style="fill:none;stroke:#b0b0b0;stroke-linecap:square;stroke-width:0.8;"/>
     </g>
     <g id="line2d_28">
      <g>
       <use style="stroke:#000000;stroke-width:0.8;" x="57.6" xlink:href="#ma3c5402975" y="137.778059"/>
      </g>
     </g>
     <g id="text_9">
      <!-- 0.6 -->
      <g transform="translate(25.155 143.856809)scale(0.16 -0.16)">
       <use xlink:href="#DejaVuSans-48"/>
       <use x="63.623047" xlink:href="#DejaVuSans-46"/>
       <use x="95.410156" xlink:href="#DejaVuSans-54"/>
      </g>
     </g>
    </g>
    <g id="ytick_5">
     <g id="line2d_29">
      <path clip-path="url(#p6510498943)" d="M 57.6 84.056079 
L 338.688 84.056079 
" style="fill:none;stroke:#b0b0b0;stroke-linecap:square;stroke-width:0.8;"/>
     </g>
     <g id="line2d_30">
      <g>
       <use style="stroke:#000000;stroke-width:0.8;" x="57.6" xlink:href="#ma3c5402975" y="84.056079"/>
      </g>
     </g>
     <g id="text_10">
      <!-- 0.8 -->
      <g transform="translate(25.155 90.134829)scale(0.16 -0.16)">
       <defs>
        <path d="M 31.78125 34.625 
Q 24.75 34.625 20.71875 30.859375 
Q 16.703125 27.09375 16.703125 20.515625 
Q 16.703125 13.921875 20.71875 10.15625 
Q 24.75 6.390625 31.78125 6.390625 
Q 38.8125 6.390625 42.859375 10.171875 
Q 46.921875 13.96875 46.921875 20.515625 
Q 46.921875 27.09375 42.890625 30.859375 
Q 38.875 34.625 31.78125 34.625 
z
M 21.921875 38.8125 
Q 15.578125 40.375 12.03125 44.71875 
Q 8.5 49.078125 8.5 55.328125 
Q 8.5 64.0625 14.71875 69.140625 
Q 20.953125 74.21875 31.78125 74.21875 
Q 42.671875 74.21875 48.875 69.140625 
Q 55.078125 64.0625 55.078125 55.328125 
Q 55.078125 49.078125 51.53125 44.71875 
Q 48 40.375 41.703125 38.8125 
Q 48.828125 37.15625 52.796875 32.3125 
Q 56.78125 27.484375 56.78125 20.515625 
Q 56.78125 9.90625 50.3125 4.234375 
Q 43.84375 -1.421875 31.78125 -1.421875 
Q 19.734375 -1.421875 13.25 4.234375 
Q 6.78125 9.90625 6.78125 20.515625 
Q 6.78125 27.484375 10.78125 32.3125 
Q 14.796875 37.15625 21.921875 38.8125 
z
M 18.3125 54.390625 
Q 18.3125 48.734375 21.84375 45.5625 
Q 25.390625 42.390625 31.78125 42.390625 
Q 38.140625 42.390625 41.71875 45.5625 
Q 45.3125 48.734375 45.3125 54.390625 
Q 45.3125 60.0625 41.71875 63.234375 
Q 38.140625 66.40625 31.78125 66.40625 
Q 25.390625 66.40625 21.84375 63.234375 
Q 18.3125 60.0625 18.3125 54.390625 
z
" id="DejaVuSans-56"/>
       </defs>
       <use xlink:href="#DejaVuSans-48"/>
       <use x="63.623047" xlink:href="#DejaVuSans-46"/>
       <use x="95.410156" xlink:href="#DejaVuSans-56"/>
      </g>
     </g>
    </g>
    <g id="ytick_6">
     <g id="line2d_31">
      <path clip-path="url(#p6510498943)" d="M 57.6 30.334099 
L 338.688 30.334099 
" style="fill:none;stroke:#b0b0b0;stroke-linecap:square;stroke-width:0.8;"/>
     </g>
     <g id="line2d_32">
      <g>
       <use style="stroke:#000000;stroke-width:0.8;" x="57.6" xlink:href="#ma3c5402975" y="30.334099"/>
      </g>
     </g>
     <g id="text_11">
      <!-- 1.0 -->
      <g transform="translate(25.155 36.412849)scale(0.16 -0.16)">
       <use xlink:href="#DejaVuSans-49"/>
       <use x="63.623047" xlink:href="#DejaVuSans-46"/>
       <use x="95.410156" xlink:href="#DejaVuSans-48"/>
      </g>
     </g>
    </g>
    <g id="text_12">
     <!-- Fraction of function,target pairs -->
     <g transform="translate(17.619531 297.681)rotate(-90)scale(0.17 -0.17)">
      <defs>
       <path d="M 9.8125 72.90625 
L 51.703125 72.90625 
L 51.703125 64.59375 
L 19.671875 64.59375 
L 19.671875 43.109375 
L 48.578125 43.109375 
L 48.578125 34.8125 
L 19.671875 34.8125 
L 19.671875 0 
L 9.8125 0 
z
" id="DejaVuSans-70"/>
       <path d="M 41.109375 46.296875 
Q 39.59375 47.171875 37.8125 47.578125 
Q 36.03125 48 33.890625 48 
Q 26.265625 48 22.1875 43.046875 
Q 18.109375 38.09375 18.109375 28.8125 
L 18.109375 0 
L 9.078125 0 
L 9.078125 54.6875 
L 18.109375 54.6875 
L 18.109375 46.1875 
Q 20.953125 51.171875 25.484375 53.578125 
Q 30.03125 56 36.53125 56 
Q 37.453125 56 38.578125 55.875 
Q 39.703125 55.765625 41.0625 55.515625 
z
" id="DejaVuSans-114"/>
       <path d="M 48.78125 52.59375 
L 48.78125 44.1875 
Q 44.96875 46.296875 41.140625 47.34375 
Q 37.3125 48.390625 33.40625 48.390625 
Q 24.65625 48.390625 19.8125 42.84375 
Q 14.984375 37.3125 14.984375 27.296875 
Q 14.984375 17.28125 19.8125 11.734375 
Q 24.65625 6.203125 33.40625 6.203125 
Q 37.3125 6.203125 41.140625 7.25 
Q 44.96875 8.296875 48.78125 10.40625 
L 48.78125 2.09375 
Q 45.015625 0.34375 40.984375 -0.53125 
Q 36.96875 -1.421875 32.421875 -1.421875 
Q 20.0625 -1.421875 12.78125 6.34375 
Q 5.515625 14.109375 5.515625 27.296875 
Q 5.515625 40.671875 12.859375 48.328125 
Q 20.21875 56 33.015625 56 
Q 37.15625 56 41.109375 55.140625 
Q 45.0625 54.296875 48.78125 52.59375 
z
" id="DejaVuSans-99"/>
       <path d="M 18.3125 70.21875 
L 18.3125 54.6875 
L 36.8125 54.6875 
L 36.8125 47.703125 
L 18.3125 47.703125 
L 18.3125 18.015625 
Q 18.3125 11.328125 20.140625 9.421875 
Q 21.96875 7.515625 27.59375 7.515625 
L 36.8125 7.515625 
L 36.8125 0 
L 27.59375 0 
Q 17.1875 0 13.234375 3.875 
Q 9.28125 7.765625 9.28125 18.015625 
L 9.28125 47.703125 
L 2.6875 47.703125 
L 2.6875 54.6875 
L 9.28125 54.6875 
L 9.28125 70.21875 
z
" id="DejaVuSans-116"/>
       <path d="M 8.5 21.578125 
L 8.5 54.6875 
L 17.484375 54.6875 
L 17.484375 21.921875 
Q 17.484375 14.15625 20.5 10.265625 
Q 23.53125 6.390625 29.59375 6.390625 
Q 36.859375 6.390625 41.078125 11.03125 
Q 45.3125 15.671875 45.3125 23.6875 
L 45.3125 54.6875 
L 54.296875 54.6875 
L 54.296875 0 
L 45.3125 0 
L 45.3125 8.40625 
Q 42.046875 3.421875 37.71875 1 
Q 33.40625 -1.421875 27.6875 -1.421875 
Q 18.265625 -1.421875 13.375 4.4375 
Q 8.5 10.296875 8.5 21.578125 
z
M 31.109375 56 
z
" id="DejaVuSans-117"/>
       <path d="M 11.71875 12.40625 
L 22.015625 12.40625 
L 22.015625 4 
L 14.015625 -11.625 
L 7.71875 -11.625 
L 11.71875 4 
z
" id="DejaVuSans-44"/>
       <path d="M 18.109375 8.203125 
L 18.109375 -20.796875 
L 9.078125 -20.796875 
L 9.078125 54.6875 
L 18.109375 54.6875 
L 18.109375 46.390625 
Q 20.953125 51.265625 25.265625 53.625 
Q 29.59375 56 35.59375 56 
Q 45.5625 56 51.78125 48.09375 
Q 58.015625 40.1875 58.015625 27.296875 
Q 58.015625 14.40625 51.78125 6.484375 
Q 45.5625 -1.421875 35.59375 -1.421875 
Q 29.59375 -1.421875 25.265625 0.953125 
Q 20.953125 3.328125 18.109375 8.203125 
z
M 48.6875 27.296875 
Q 48.6875 37.203125 44.609375 42.84375 
Q 40.53125 48.484375 33.40625 48.484375 
Q 26.265625 48.484375 22.1875 42.84375 
Q 18.109375 37.203125 18.109375 27.296875 
Q 18.109375 17.390625 22.1875 11.75 
Q 26.265625 6.109375 33.40625 6.109375 
Q 40.53125 6.109375 44.609375 11.75 
Q 48.6875 17.390625 48.6875 27.296875 
z
" id="DejaVuSans-112"/>
      </defs>
      <use xlink:href="#DejaVuSans-70"/>
      <use x="50.269531" xlink:href="#DejaVuSans-114"/>
      <use x="91.382812" xlink:href="#DejaVuSans-97"/>
      <use x="152.662109" xlink:href="#DejaVuSans-99"/>
      <use x="207.642578" xlink:href="#DejaVuSans-116"/>
      <use x="246.851562" xlink:href="#DejaVuSans-105"/>
      <use x="274.634766" xlink:href="#DejaVuSans-111"/>
      <use x="335.816406" xlink:href="#DejaVuSans-110"/>
      <use x="399.195312" xlink:href="#DejaVuSans-32"/>
      <use x="430.982422" xlink:href="#DejaVuSans-111"/>
      <use x="492.164062" xlink:href="#DejaVuSans-102"/>
      <use x="527.369141" xlink:href="#DejaVuSans-32"/>
      <use x="559.15625" xlink:href="#DejaVuSans-102"/>
      <use x="594.361328" xlink:href="#DejaVuSans-117"/>
      <use x="657.740234" xlink:href="#DejaVuSans-110"/>
      <use x="721.119141" xlink:href="#DejaVuSans-99"/>
      <use x="776.099609" xlink:href="#DejaVuSans-116"/>
      <use x="815.308594" xlink:href="#DejaVuSans-105"/>
      <use x="843.091797" xlink:href="#DejaVuSans-111"/>
      <use x="904.273438" xlink:href="#DejaVuSans-110"/>
      <use x="967.652344" xlink:href="#DejaVuSans-44"/>
      <use x="999.439453" xlink:href="#DejaVuSans-116"/>
      <use x="1038.648438" xlink:href="#DejaVuSans-97"/>
      <use x="1099.927734" xlink:href="#DejaVuSans-114"/>
      <use x="1139.291016" xlink:href="#DejaVuSans-103"/>
      <use x="1202.767578" xlink:href="#DejaVuSans-101"/>
      <use x="1264.291016" xlink:href="#DejaVuSans-116"/>
      <use x="1303.5" xlink:href="#DejaVuSans-32"/>
      <use x="1335.287109" xlink:href="#DejaVuSans-112"/>
      <use x="1398.763672" xlink:href="#DejaVuSans-97"/>
      <use x="1460.042969" xlink:href="#DejaVuSans-105"/>
      <use x="1487.826172" xlink:href="#DejaVuSans-114"/>
      <use x="1528.939453" xlink:href="#DejaVuSans-115"/>
     </g>
    </g>
   </g>
   <g id="line2d_33">
    <defs>
     <path d="M 0 1.5 
C 0.397805 1.5 0.77937 1.341951 1.06066 1.06066 
C 1.341951 0.77937 1.5 0.397805 1.5 0 
C 1.5 -0.397805 1.341951 -0.77937 1.06066 -1.06066 
C 0.77937 -1.341951 0.397805 -1.5 0 -1.5 
C -0.397805 -1.5 -0.77937 -1.341951 -1.06066 -1.06066 
C -1.341951 -0.77937 -1.5 -0.397805 -1.5 0 
C -1.5 0.397805 -1.341951 0.77937 -1.06066 1.06066 
C -0.77937 1.341951 -0.397805 1.5 0 1.5 
z
" id="m37ef26035a" style="stroke:#f5deb3;"/>
    </defs>
    <g>
     <use style="fill:#f5deb3;stroke:#f5deb3;" x="218.168443" xlink:href="#m37ef26035a" y="62.752535"/>
     <use style="fill:#f5deb3;stroke:#f5deb3;" x="218.168443" xlink:href="#m37ef26035a" y="62.752535"/>
    </g>
   </g>
   <g id="line2d_34">
    <defs>
     <path d="M 0 1.5 
C 0.397805 1.5 0.77937 1.341951 1.06066 1.06066 
C 1.341951 0.77937 1.5 0.397805 1.5 0 
C 1.5 -0.397805 1.341951 -0.77937 1.06066 -1.06066 
C 0.77937 -1.341951 0.397805 -1.5 0 -1.5 
C -0.397805 -1.5 -0.77937 -1.341951 -1.06066 -1.06066 
C -1.341951 -0.77937 -1.5 -0.397805 -1.5 0 
C -1.5 0.397805 -1.341951 0.77937 -1.06066 1.06066 
C -0.77937 1.341951 -0.397805 1.5 0 1.5 
z
" id="mb04d4eaee9" style="stroke:#000080;"/>
    </defs>
    <g>
     <use style="fill:#000080;stroke:#000080;" x="254.820013" xlink:href="#mb04d4eaee9" y="64.141897"/>
     <use style="fill:#000080;stroke:#000080;" x="254.820013" xlink:href="#mb04d4eaee9" y="64.141897"/>
    </g>
   </g>
   <g id="line2d_35">
    <path d="M 45.512012 298.944 
L 45.512012 283.197902 
L 57.6 283.197902 
L 57.6 282.271661 
L 64.67102 282.271661 
L 64.67102 276.714215 
L 69.687988 276.714215 
L 69.687988 274.398612 
L 73.579452 274.398612 
L 73.579452 271.156769 
L 76.759008 271.156769 
L 76.759008 268.378046 
L 79.447285 268.378046 
L 79.447285 264.209961 
L 87.329581 264.209961 
L 87.329581 261.894358 
L 88.846997 261.894358 
L 88.846997 260.968117 
L 90.242884 260.968117 
L 90.242884 260.504997 
L 91.535274 260.504997 
L 91.535274 259.578756 
L 93.863965 259.578756 
L 93.863965 253.095069 
L 95.918017 253.095069 
L 95.918017 249.853225 
L 96.86091 249.853225 
L 96.86091 248.926984 
L 97.755429 248.926984 
L 97.755429 245.22202 
L 99.41757 245.22202 
L 99.41757 242.906417 
L 100.192776 242.906417 
L 100.192776 240.127694 
L 100.934985 240.127694 
L 100.934985 237.812091 
L 106.48859 237.812091 
L 106.48859 236.88585 
L 108.483824 236.88585 
L 108.483824 235.959609 
L 108.948899 235.959609 
L 108.948899 235.033368 
L 110.694282 235.033368 
L 110.694282 234.570248 
L 111.505558 234.570248 
L 111.505558 233.644007 
L 111.897469 233.644007 
L 111.897469 225.770958 
L 115.077025 225.770958 
L 115.077025 223.918476 
L 118.576578 223.918476 
L 118.576578 223.455355 
L 122.362027 223.455355 
L 122.362027 222.992235 
L 122.573415 222.992235 
L 122.573415 222.065994 
L 122.782271 222.065994 
L 122.782271 221.139753 
L 123.985457 221.139753 
L 123.985457 220.676632 
L 124.92835 220.676632 
L 124.92835 219.750391 
L 127.48501 219.750391 
L 127.48501 219.287271 
L 128.260216 219.287271 
L 128.260216 218.82415 
L 129.714332 218.82415 
L 129.714332 217.897909 
L 129.853291 217.897909 
L 129.853291 217.434789 
L 130.926816 217.434789 
L 130.926816 216.971668 
L 132.659801 216.971668 
L 132.659801 216.508548 
L 133.352844 216.508548 
L 133.352844 215.582307 
L 133.57787 215.582307 
L 133.57787 214.656066 
L 133.689303 214.656066 
L 133.689303 214.192945 
L 135.178927 214.192945 
L 135.178927 212.803583 
L 135.582166 212.803583 
L 135.582166 211.877342 
L 136.551264 211.877342 
L 136.551264 210.487981 
L 137.558536 210.487981 
L 137.558536 209.098619 
L 137.823442 209.098619 
L 137.823442 206.319896 
L 138.084384 206.319896 
L 138.170504 204.467414 
L 138.426341 204.467414 
L 138.426341 204.004294 
L 139.090775 204.004294 
L 139.090775 202.614932 
L 139.333553 202.614932 
L 139.333553 200.76245 
L 139.572998 200.76245 
L 139.572998 199.373088 
L 140.871049 199.373088 
L 140.871049 198.446847 
L 141.162927 198.446847 
L 141.162927 197.983727 
L 141.871938 197.983727 
L 141.871938 196.131245 
L 142.07914 196.131245 
L 142.07914 195.668124 
L 142.686372 195.668124 
L 142.686372 194.741883 
L 144.747789 194.741883 
L 144.747789 194.278763 
L 146.216039 194.278763 
L 146.270114 192.889401 
L 148.161434 192.889401 
L 148.161434 191.96316 
L 148.826773 191.96316 
L 148.919783 190.573799 
L 149.467659 190.573799 
L 149.467659 190.110678 
L 150.258492 190.110678 
L 150.258492 189.184437 
L 150.38688 189.184437 
L 150.38688 188.721316 
L 152.885298 188.721316 
L 152.885298 187.795075 
L 154.371897 187.795075 
L 154.371897 187.331955 
L 154.57429 187.331955 
L 154.57429 186.868834 
L 155.004911 186.868834 
L 155.004911 186.405714 
L 156.144725 186.405714 
L 156.144725 185.479473 
L 156.598505 185.479473 
L 156.598505 185.016352 
L 156.894595 185.016352 
L 156.894595 183.626991 
L 157.069866 183.626991 
L 157.069866 182.70075 
L 158.249784 182.70075 
L 158.249784 181.311388 
L 158.546057 181.311388 
L 158.546057 180.848268 
L 159.708245 180.848268 
L 159.708245 180.385147 
L 160.680044 180.385147 
L 160.680044 179.458906 
L 161.329454 179.458906 
L 161.329454 178.995786 
L 161.465522 178.995786 
L 161.465522 178.069545 
L 161.64531 178.069545 
L 161.64531 177.143304 
L 163.287113 177.143304 
L 163.307451 176.217062 
L 163.768781 176.217062 
L 163.768781 174.827701 
L 164.256762 174.827701 
L 164.256762 173.90146 
L 164.562052 173.90146 
L 164.562052 173.438339 
L 165.55465 173.438339 
L 165.55465 172.512098 
L 165.855793 172.512098 
L 165.855793 172.048978 
L 168.324419 172.048978 
L 168.324419 171.122737 
L 168.626667 171.122737 
L 168.626667 170.659616 
L 169.157854 170.659616 
L 169.157854 169.733375 
L 169.602648 169.733375 
L 169.602648 168.807134 
L 169.729685 168.807134 
L 169.729685 168.344014 
L 169.897641 168.344014 
L 169.897641 167.417773 
L 170.634045 167.417773 
L 170.634045 166.954652 
L 170.872762 166.954652 
L 170.872762 166.491532 
L 171.069226 166.491532 
L 171.069226 166.028411 
L 171.658273 166.028411 
L 171.658273 165.565291 
L 172.019658 165.565291 
L 172.056618 164.175929 
L 172.313173 164.175929 
L 172.313173 163.249688 
L 173.130511 163.249688 
L 173.130511 162.786567 
L 173.451559 162.786567 
L 173.451559 161.860326 
L 174.15301 161.860326 
L 174.15301 160.934085 
L 174.391462 160.934085 
L 174.391462 160.470965 
L 175.273058 160.470965 
L 175.273058 159.544724 
L 175.597519 159.544724 
L 175.597519 158.155362 
L 176.199784 158.155362 
L 176.277249 157.229121 
L 176.847522 157.229121 
L 176.847522 156.766001 
L 177.678338 156.766001 
L 177.678338 156.30288 
L 177.873391 156.30288 
L 177.908622 154.913519 
L 178.170609 154.913519 
L 178.213893 153.987278 
L 180.011487 153.987278 
L 180.011487 153.524157 
L 180.358972 153.524157 
L 180.358972 153.061037 
L 181.026478 153.061037 
L 181.048539 152.134795 
L 181.605428 152.134795 
L 181.605428 151.671675 
L 182.914588 151.671675 
L 182.914588 151.208554 
L 184.095309 151.208554 
L 184.095309 150.745434 
L 184.425399 150.745434 
L 184.425399 150.282313 
L 184.5521 150.282313 
L 184.5521 149.819193 
L 185.590598 149.819193 
L 185.590598 149.356072 
L 185.782116 149.356072 
L 185.782116 148.429831 
L 185.927165 148.429831 
L 185.927165 147.966711 
L 186.517088 147.966711 
L 186.517088 147.50359 
L 186.873275 147.50359 
L 186.873275 147.04047 
L 186.988663 147.04047 
L 186.988663 146.114229 
L 187.665404 146.114229 
L 187.665404 145.187988 
L 187.780681 145.187988 
L 187.780681 144.261747 
L 188.345904 144.261747 
L 188.345904 143.798626 
L 188.514354 143.798626 
L 188.514354 142.872385 
L 188.968208 142.872385 
L 188.968208 141.946144 
L 189.636566 141.946144 
L 189.636566 141.019903 
L 190.336432 141.019903 
L 190.336432 140.093662 
L 190.563615 140.093662 
L 190.669758 138.7043 
L 191.927041 138.7043 
L 191.927041 138.24118 
L 192.08387 138.24118 
L 192.08387 137.778059 
L 192.621925 137.778059 
L 192.621925 137.314939 
L 192.791404 137.314939 
L 192.791404 136.388698 
L 193.409962 136.388698 
L 193.409962 135.462457 
L 193.814006 135.462457 
L 193.814006 134.999336 
L 194.118829 134.999336 
L 194.118829 134.536216 
L 194.336283 134.536216 
L 194.438888 132.220613 
L 194.459336 132.220613 
L 194.459336 131.757493 
L 196.658113 131.757493 
L 196.733018 130.831252 
L 196.949916 130.831252 
L 197.02652 129.905011 
L 197.169982 129.905011 
L 197.169982 129.44189 
L 197.884104 129.44189 
L 197.884104 128.97877 
L 198.307147 128.97877 
L 198.307147 128.515649 
L 198.637272 128.515649 
L 198.637272 127.589408 
L 198.9112 127.589408 
L 199.01643 126.200046 
L 199.170496 126.200046 
L 199.170496 125.273805 
L 199.338667 125.273805 
L 199.338667 124.810685 
L 199.51798 124.810685 
L 199.51798 124.347564 
L 200.474952 124.347564 
L 200.474952 123.884444 
L 200.616706 123.884444 
L 200.616706 123.421323 
L 201.614172 123.421323 
L 201.724555 121.568841 
L 202.314052 121.568841 
L 202.314052 120.6426 
L 202.869558 120.6426 
L 202.869558 120.17948 
L 203.373217 120.17948 
L 203.373217 119.716359 
L 203.838883 119.716359 
L 203.838883 119.253239 
L 204.926179 119.253239 
L 205.00636 117.863877 
L 205.22819 117.863877 
L 205.316138 116.937636 
L 205.432716 116.937636 
L 205.432716 116.011395 
L 206.131982 116.011395 
L 206.185965 115.085154 
L 206.7404 115.085154 
L 206.7404 113.232672 
L 207.167982 113.232672 
L 207.167982 112.769551 
L 208.030504 112.769551 
L 208.030504 112.306431 
L 208.423353 112.306431 
L 208.449333 110.917069 
L 208.56349 110.917069 
L 208.56349 110.453949 
L 209.093918 110.453949 
L 209.192242 109.064587 
L 209.483931 109.064587 
L 209.564336 107.212105 
L 209.617259 107.212105 
L 209.617259 106.748985 
L 210.147531 106.748985 
L 210.147531 105.822744 
L 210.571799 105.822744 
L 210.604219 104.433382 
L 210.861432 104.433382 
L 210.959563 103.507141 
L 211.502448 103.507141 
L 211.510137 102.117779 
L 212.283283 102.117779 
L 212.333464 101.191538 
L 212.759644 101.191538 
L 212.759644 100.265297 
L 213.603579 100.265297 
L 213.603579 99.339056 
L 213.716843 99.339056 
L 213.716843 98.875936 
L 214.011265 98.875936 
L 214.020143 97.486574 
L 214.439991 97.486574 
L 214.439991 97.023454 
L 214.898566 97.023454 
L 214.898566 96.560333 
L 215.239151 96.560333 
L 215.239151 95.634092 
L 215.819123 95.634092 
L 215.819123 95.170972 
L 216.113845 95.170972 
L 216.113845 94.707851 
L 216.280326 94.707851 
L 216.280326 93.78161 
L 216.400765 93.78161 
L 216.400765 93.31849 
L 216.611465 93.31849 
L 216.611465 92.855369 
L 217.234245 92.855369 
L 217.234245 91.929128 
L 217.418741 91.929128 
L 217.418741 91.002887 
L 217.721065 91.002887 
L 217.721065 90.539766 
L 217.867614 90.539766 
L 217.867614 90.076646 
L 218.071967 90.076646 
L 218.071967 89.150405 
L 218.48222 89.150405 
L 218.48222 88.687284 
L 218.8427 88.687284 
L 218.8427 88.224164 
L 219.837023 88.224164 
L 219.837023 87.297923 
L 220.195749 87.297923 
L 220.195749 86.834802 
L 220.437777 86.834802 
L 220.437777 86.371682 
L 220.656029 86.371682 
L 220.656029 85.445441 
L 220.9075 85.445441 
L 220.9075 84.5192 
L 221.477402 84.5192 
L 221.477402 84.056079 
L 221.759433 84.056079 
L 221.759433 83.129838 
L 222.180711 83.129838 
L 222.196686 82.203597 
L 222.69828 82.203597 
L 222.69828 81.740477 
L 223.916794 81.740477 
L 223.916794 80.814236 
L 224.044647 80.814236 
L 224.123149 79.887995 
L 225.123334 79.887995 
L 225.123334 79.424874 
L 226.876487 79.424874 
L 226.895587 78.498633 
L 227.340584 78.498633 
L 227.340584 78.035512 
L 230.715211 78.035512 
L 230.715211 77.109271 
L 231.139379 77.109271 
L 231.139379 76.646151 
L 231.424714 76.646151 
L 231.424714 75.71991 
L 232.429512 75.71991 
L 232.429512 74.793669 
L 234.339087 74.793669 
L 234.339087 74.330548 
L 234.469058 74.330548 
L 234.571112 72.478066 
L 235.937977 72.478066 
L 235.999435 71.551825 
L 237.098847 71.551825 
L 237.098847 71.088705 
L 238.704558 71.088705 
L 238.704558 70.625584 
L 239.356315 70.625584 
L 239.356315 70.162464 
L 239.511081 70.162464 
L 239.511081 69.236223 
L 242.270357 69.236223 
L 242.270357 68.309982 
L 244.509391 68.309982 
L 244.509391 67.846861 
L 246.166826 67.846861 
L 246.166826 66.92062 
L 248.728019 66.92062 
L 248.728019 65.994379 
L 248.965968 65.994379 
L 248.965968 65.531258 
L 252.803319 65.531258 
L 252.803319 65.068138 
L 254.820013 65.068138 
L 254.820013 64.141897 
L 338.688 64.141897 
L 338.688 64.141897 
" style="fill:none;stroke:#000080;stroke-linecap:square;stroke-width:1.5;"/>
   </g>
   <g id="line2d_36">
    <defs>
     <path d="M 0 6 
C 1.591219 6 3.117479 5.367802 4.242641 4.242641 
C 5.367802 3.117479 6 1.591219 6 0 
C 6 -1.591219 5.367802 -3.117479 4.242641 -4.242641 
C 3.117479 -5.367802 1.591219 -6 0 -6 
C -1.591219 -6 -3.117479 -5.367802 -4.242641 -4.242641 
C -5.367802 -3.117479 -6 -1.591219 -6 0 
C -6 1.591219 -5.367802 3.117479 -4.242641 4.242641 
C -3.117479 5.367802 -1.591219 6 0 6 
z
" id="md379bf9e9d" style="stroke:#000080;stroke-width:1.5;"/>
    </defs>
    <g>
     <use style="fill-opacity:0;stroke:#000080;stroke-width:1.5;" x="130.926816" xlink:href="#md379bf9e9d" y="216.971668"/>
     <use style="fill-opacity:0;stroke:#000080;stroke-width:1.5;" x="188.968208" xlink:href="#md379bf9e9d" y="142.872385"/>
     <use style="fill-opacity:0;stroke:#000080;stroke-width:1.5;" x="234.571112" xlink:href="#md379bf9e9d" y="73.404307"/>
     <use style="fill-opacity:0;stroke:#000080;stroke-width:1.5;" x="254.820013" xlink:href="#md379bf9e9d" y="64.141897"/>
     <use style="fill-opacity:0;stroke:#000080;stroke-width:1.5;" x="254.820013" xlink:href="#md379bf9e9d" y="64.141897"/>
     <use style="fill-opacity:0;stroke:#000080;stroke-width:1.5;" x="338.688" xlink:href="#md379bf9e9d" y="64.141897"/>
    </g>
   </g>
   <g id="line2d_37">
    <path style="fill:none;stroke:#000080;stroke-linecap:square;stroke-width:1.5;"/>
    <g/>
   </g>
   <g id="line2d_38">
    <path clip-path="url(#p6510498943)" d="M 258.377579 64.141897 
" style="fill:none;stroke:#000080;stroke-linecap:square;stroke-width:1.5;"/>
    <defs>
     <path d="M -12 12 
L 12 -12 
M -12 -12 
L 12 12 
" id="m21193908e6" style="stroke:#000080;"/>
    </defs>
    <g clip-path="url(#p6510498943)">
     <use style="fill:#000080;stroke:#000080;" x="258.377579" xlink:href="#m21193908e6" y="64.141897"/>
    </g>
   </g>
   <g id="line2d_39">
    <defs>
     <path d="M 0 1.5 
C 0.397805 1.5 0.77937 1.341951 1.06066 1.06066 
C 1.341951 0.77937 1.5 0.397805 1.5 0 
C 1.5 -0.397805 1.341951 -0.77937 1.06066 -1.06066 
C 0.77937 -1.341951 0.397805 -1.5 0 -1.5 
C -0.397805 -1.5 -0.77937 -1.341951 -1.06066 -1.06066 
C -1.341951 -0.77937 -1.5 -0.397805 -1.5 0 
C -1.5 0.397805 -1.341951 0.77937 -1.06066 1.06066 
C -0.77937 1.341951 -0.397805 1.5 0 1.5 
z
" id="m8da56af7e1" style="stroke:#ff00ff;"/>
    </defs>
    <g>
     <use style="fill:#ff00ff;stroke:#ff00ff;" x="258.03354" xlink:href="#m8da56af7e1" y="76.18303"/>
     <use style="fill:#ff00ff;stroke:#ff00ff;" x="258.03354" xlink:href="#m8da56af7e1" y="76.18303"/>
    </g>
   </g>
   <g id="line2d_40">
    <path d="M 45.512012 298.944 
L 45.512012 290.14471 
L 87.329581 290.14471 
L 87.329581 283.197902 
L 103.623262 283.197902 
L 103.623262 282.734782 
L 127.165014 282.734782 
L 127.165014 282.271661 
L 128.856489 282.271661 
L 128.856489 281.34542 
L 140.499195 281.34542 
L 140.499195 280.8823 
L 144.629556 280.8823 
L 144.629556 279.492938 
L 146.431341 279.492938 
L 146.431341 278.566697 
L 146.591092 278.566697 
L 146.644018 276.251095 
L 147.52003 276.251095 
L 147.52003 275.324854 
L 148.54473 275.324854 
L 148.54473 273.472371 
L 148.826773 273.472371 
L 148.826773 273.009251 
L 149.058374 273.009251 
L 149.058374 271.619889 
L 149.422654 271.619889 
L 149.422654 270.693648 
L 150.38688 270.693648 
L 150.38688 264.673082 
L 150.808139 264.673082 
L 150.891184 263.28372 
L 151.056095 263.28372 
L 151.056095 261.894358 
L 151.219462 261.894358 
L 151.219462 261.431238 
L 151.501723 261.431238 
L 151.501723 260.968117 
L 151.818809 260.968117 
L 151.818809 260.504997 
L 152.130233 260.504997 
L 152.130233 257.726274 
L 152.549559 257.726274 
L 152.549559 257.263153 
L 152.995791 257.263153 
L 153.105587 252.168828 
L 153.250915 252.168828 
L 153.359122 246.148261 
L 153.430889 246.148261 
L 153.430889 245.22202 
L 153.855395 245.22202 
L 153.855395 244.758899 
L 154.201424 244.758899 
L 154.269814 238.275212 
L 154.57429 238.275212 
L 154.57429 237.348971 
L 154.93935 237.348971 
L 155.004911 236.42273 
L 155.200129 236.42273 
L 155.232454 234.570248 
L 155.647315 234.570248 
L 155.678822 231.791525 
L 155.928852 231.791525 
L 155.928852 231.328404 
L 156.144725 231.328404 
L 156.236431 230.402163 
L 156.538679 230.402163 
L 156.538679 229.475922 
L 157.214591 229.475922 
L 157.214591 227.62344 
L 157.329512 227.62344 
L 157.38669 222.529114 
L 157.472107 222.529114 
L 157.472107 220.213512 
L 157.641697 220.213512 
L 157.697862 218.82415 
L 157.753847 218.82415 
L 157.753847 217.897909 
L 158.249784 217.897909 
L 158.249784 216.971668 
L 158.51933 216.971668 
L 158.51933 216.045427 
L 158.915995 216.045427 
L 159.020266 214.656066 
L 159.201253 214.656066 
L 159.226956 213.266704 
L 159.380382 213.266704 
L 159.380382 212.803583 
L 159.532469 212.803583 
L 159.532469 212.340463 
L 160.079044 212.340463 
L 160.103486 210.951101 
L 160.249422 210.951101 
L 160.273627 209.56174 
L 160.489968 209.56174 
L 160.585265 207.246137 
L 160.774311 207.246137 
L 160.844678 205.393655 
L 160.891432 205.393655 
L 160.891432 204.930535 
L 161.306672 204.930535 
L 161.352206 202.151812 
L 161.420284 202.151812 
L 161.442917 199.836209 
L 161.53316 199.836209 
L 161.600536 198.909968 
L 161.712255 198.909968 
L 161.712255 198.446847 
L 162.389382 198.446847 
L 162.474869 197.520606 
L 162.559939 197.520606 
L 162.665696 196.131245 
L 162.896128 196.131245 
L 162.9377 192.889401 
L 163.246367 192.889401 
L 163.348054 191.50004 
L 163.965615 191.50004 
L 164.004716 190.110678 
L 164.102088 190.110678 
L 164.102088 189.647558 
L 164.276 189.647558 
L 164.35274 188.258196 
L 164.390984 188.258196 
L 164.390984 186.868834 
L 164.675172 186.868834 
L 164.731458 185.479473 
L 164.806225 185.479473 
L 164.880672 182.70075 
L 165.193576 182.70075 
L 165.193576 182.237629 
L 165.338904 182.237629 
L 165.338904 181.774509 
L 166.459886 181.774509 
L 166.544502 179.922027 
L 166.845764 179.922027 
L 166.845764 178.995786 
L 167.125588 178.995786 
L 167.125588 178.532665 
L 167.923499 178.532665 
L 167.923499 178.069545 
L 168.202038 178.069545 
L 168.202038 177.606424 
L 168.370092 177.606424 
L 168.370092 176.680183 
L 168.491304 176.680183 
L 168.491304 175.753942 
L 168.77585 175.753942 
L 168.77585 174.827701 
L 169.085039 174.827701 
L 169.085039 174.36458 
L 169.474679 174.36458 
L 169.574291 172.975219 
L 169.841835 172.975219 
L 169.883706 172.048978 
L 170.378471 172.048978 
L 170.378471 171.585857 
L 172.385786 171.585857 
L 172.385786 170.659616 
L 172.542086 170.659616 
L 172.542086 169.733375 
L 172.897518 169.733375 
L 172.967743 168.807134 
L 173.037687 168.807134 
L 173.037687 168.344014 
L 173.417442 168.344014 
L 173.417442 167.880893 
L 174.626698 167.880893 
L 174.626698 166.954652 
L 174.785287 166.954652 
L 174.827334 165.565291 
L 174.921573 165.565291 
L 174.921573 164.63905 
L 175.637655 164.63905 
L 175.687696 163.249688 
L 175.846869 163.249688 
L 175.846869 162.323447 
L 176.875552 162.323447 
L 176.875552 161.860326 
L 177.36346 161.860326 
L 177.399735 160.470965 
L 177.678338 160.470965 
L 177.785001 159.081603 
L 177.95256 159.081603 
L 177.95256 158.618483 
L 178.325932 158.618483 
L 178.325932 158.155362 
L 178.825562 158.155362 
L 178.825562 157.229121 
L 180.159048 157.229121 
L 180.220807 155.376639 
L 180.358972 155.376639 
L 180.450477 153.061037 
L 180.564187 153.061037 
L 180.564187 152.597916 
L 181.158427 152.597916 
L 181.158427 151.671675 
L 181.483999 151.671675 
L 181.483999 151.208554 
L 181.817674 151.208554 
L 181.824704 150.282313 
L 181.964723 150.282313 
L 182.055136 148.429831 
L 182.234569 148.429831 
L 182.234569 147.966711 
L 183.435008 147.966711 
L 183.435008 147.04047 
L 183.594505 147.04047 
L 183.645238 146.114229 
L 183.752557 146.114229 
L 183.752557 145.187988 
L 184.431454 145.187988 
L 184.431454 144.724867 
L 184.784985 144.724867 
L 184.784985 143.798626 
L 185.368293 143.798626 
L 185.368293 142.872385 
L 185.70351 142.872385 
L 185.70351 142.409265 
L 186.592119 142.409265 
L 186.592119 141.483024 
L 186.799447 141.483024 
L 186.799447 140.556783 
L 187.160326 140.556783 
L 187.268693 139.167421 
L 187.498665 139.167421 
L 187.498665 138.24118 
L 188.287773 138.24118 
L 188.287773 137.778059 
L 188.528717 137.778059 
L 188.528717 137.314939 
L 189.176953 137.314939 
L 189.176953 136.851818 
L 189.806402 136.851818 
L 189.806402 136.388698 
L 190.926069 136.388698 
L 190.926069 135.925577 
L 192.977803 135.925577 
L 192.977803 135.462457 
L 194.246869 135.462457 
L 194.246869 134.999336 
L 198.051228 134.999336 
L 198.051228 134.073095 
L 199.703034 134.073095 
L 199.703034 133.146854 
L 201.498537 133.146854 
L 201.498537 132.220613 
L 206.7404 132.220613 
L 206.7404 131.757493 
L 207.404677 131.757493 
L 207.404677 131.294372 
L 207.591747 131.294372 
L 207.591747 130.368131 
L 207.82438 130.368131 
L 207.82438 129.44189 
L 208.089843 129.44189 
L 208.09296 128.052529 
L 208.359002 128.052529 
L 208.359002 127.589408 
L 208.476799 127.589408 
L 208.513353 126.663167 
L 209.029044 126.663167 
L 209.073302 125.736926 
L 209.244845 125.736926 
L 209.244845 124.810685 
L 209.433489 124.810685 
L 209.479613 123.884444 
L 209.810415 123.884444 
L 209.810415 122.958203 
L 210.007043 122.958203 
L 210.007043 122.495082 
L 210.292394 122.495082 
L 210.292394 122.031962 
L 211.522945 122.031962 
L 211.522945 121.568841 
L 211.860229 121.568841 
L 211.860229 121.105721 
L 212.202198 121.105721 
L 212.202198 120.6426 
L 212.599089 120.6426 
L 212.599089 119.716359 
L 213.186134 119.716359 
L 213.186134 118.790118 
L 213.473554 118.790118 
L 213.537547 117.863877 
L 213.806928 117.863877 
L 213.806928 116.937636 
L 215.040413 116.937636 
L 215.087441 116.011395 
L 215.381345 116.011395 
L 215.381345 115.548274 
L 215.558996 115.548274 
L 215.607687 113.695792 
L 215.703654 113.695792 
L 215.703654 112.769551 
L 215.862103 112.769551 
L 215.862103 112.306431 
L 216.076413 112.306431 
L 216.164938 110.453949 
L 216.504028 110.453949 
L 216.504028 109.990828 
L 216.64204 109.990828 
L 216.64204 109.527708 
L 216.894142 109.527708 
L 216.894142 109.064587 
L 217.252691 109.064587 
L 217.252691 108.138346 
L 218.249595 108.138346 
L 218.249595 107.675226 
L 219.31176 107.675226 
L 219.31176 107.212105 
L 219.641196 107.212105 
L 219.65887 106.285864 
L 220.599059 106.285864 
L 220.599059 105.822744 
L 220.781465 105.822744 
L 220.803286 104.433382 
L 221.685241 104.433382 
L 221.685241 103.970262 
L 221.966069 103.970262 
L 221.966069 103.04402 
L 222.652349 103.04402 
L 222.652349 102.5809 
L 223.109591 102.5809 
L 223.109591 102.117779 
L 223.4979 102.117779 
L 223.4979 100.265297 
L 223.647385 100.265297 
L 223.711151 98.875936 
L 223.830403 98.875936 
L 223.878381 97.023454 
L 224.140546 97.023454 
L 224.230361 95.170972 
L 225.168474 95.170972 
L 225.168474 94.707851 
L 225.595853 94.707851 
L 225.595853 94.244731 
L 225.737528 94.244731 
L 225.737528 93.31849 
L 226.27267 93.31849 
L 226.27267 92.392249 
L 227.295037 92.392249 
L 227.295037 91.929128 
L 228.658763 91.929128 
L 228.658763 91.002887 
L 230.307523 91.002887 
L 230.307523 90.539766 
L 231.345191 90.539766 
L 231.345191 90.076646 
L 231.721546 90.076646 
L 231.721546 89.613525 
L 232.233443 89.613525 
L 232.233443 89.150405 
L 233.263271 89.150405 
L 233.263271 88.224164 
L 235.333428 88.224164 
L 235.333428 87.297923 
L 235.51131 87.297923 
L 235.5846 85.908561 
L 236.420608 85.908561 
L 236.423064 84.5192 
L 239.678505 84.5192 
L 239.678505 84.056079 
L 240.735725 84.056079 
L 240.735725 83.592959 
L 241.246589 83.592959 
L 241.246589 82.666718 
L 246.094849 82.666718 
L 246.094849 81.740477 
L 246.869197 81.740477 
L 246.869197 80.814236 
L 247.664693 80.814236 
L 247.664693 80.351115 
L 248.109904 80.351115 
L 248.109904 79.887995 
L 250.583177 79.887995 
L 250.583177 79.424874 
L 252.393793 79.424874 
L 252.41148 78.035512 
L 252.880211 78.035512 
L 252.880211 77.572392 
L 254.091044 77.572392 
L 254.091044 76.646151 
L 258.03354 76.646151 
L 258.03354 76.18303 
L 338.688 76.18303 
L 338.688 76.18303 
" style="fill:none;stroke:#ff00ff;stroke-linecap:square;stroke-width:1.5;"/>
   </g>
   <g id="line2d_41">
    <defs>
     <path d="M 0 8.485281 
L 5.091169 0 
L 0 -8.485281 
L -5.091169 0 
z
" id="m65d786a4cd" style="stroke:#ff00ff;stroke-linejoin:miter;stroke-width:1.5;"/>
    </defs>
    <g>
     <use style="fill-opacity:0;stroke:#ff00ff;stroke-linejoin:miter;stroke-width:1.5;" x="149.422654" xlink:href="#m65d786a4cd" y="270.693648"/>
     <use style="fill-opacity:0;stroke:#ff00ff;stroke-linejoin:miter;stroke-width:1.5;" x="188.287773" xlink:href="#m65d786a4cd" y="138.24118"/>
     <use style="fill-opacity:0;stroke:#ff00ff;stroke-linejoin:miter;stroke-width:1.5;" x="250.583177" xlink:href="#m65d786a4cd" y="79.424874"/>
     <use style="fill-opacity:0;stroke:#ff00ff;stroke-linejoin:miter;stroke-width:1.5;" x="258.03354" xlink:href="#m65d786a4cd" y="76.18303"/>
     <use style="fill-opacity:0;stroke:#ff00ff;stroke-linejoin:miter;stroke-width:1.5;" x="258.03354" xlink:href="#m65d786a4cd" y="76.18303"/>
     <use style="fill-opacity:0;stroke:#ff00ff;stroke-linejoin:miter;stroke-width:1.5;" x="338.688" xlink:href="#m65d786a4cd" y="76.18303"/>
    </g>
   </g>
   <g id="line2d_42">
    <path style="fill:none;stroke:#ff00ff;stroke-linecap:square;stroke-width:1.5;"/>
    <g/>
   </g>
   <g id="line2d_43">
    <path clip-path="url(#p6510498943)" d="M 258.38708 76.18303 
" style="fill:none;stroke:#ff00ff;stroke-linecap:square;stroke-width:1.5;"/>
    <defs>
     <path d="M -12 12 
L 12 -12 
M -12 -12 
L 12 12 
" id="ma867cb2045" style="stroke:#ff00ff;"/>
    </defs>
    <g clip-path="url(#p6510498943)">
     <use style="fill:#ff00ff;stroke:#ff00ff;" x="258.38708" xlink:href="#ma867cb2045" y="76.18303"/>
    </g>
   </g>
   <g id="line2d_44">
    <defs>
     <path d="M 0 1.5 
C 0.397805 1.5 0.77937 1.341951 1.06066 1.06066 
C 1.341951 0.77937 1.5 0.397805 1.5 0 
C 1.5 -0.397805 1.341951 -0.77937 1.06066 -1.06066 
C 0.77937 -1.341951 0.397805 -1.5 0 -1.5 
C -0.397805 -1.5 -0.77937 -1.341951 -1.06066 -1.06066 
C -1.341951 -0.77937 -1.5 -0.397805 -1.5 0 
C -1.5 0.397805 -1.341951 0.77937 -1.06066 1.06066 
C -0.77937 1.341951 -0.397805 1.5 0 1.5 
z
" id="m05641b5a86" style="stroke:#ff7500;"/>
    </defs>
    <g>
     <use style="fill:#ff7500;stroke:#ff7500;" x="246.781597" xlink:href="#m05641b5a86" y="124.347564"/>
     <use style="fill:#ff7500;stroke:#ff7500;" x="246.781597" xlink:href="#m05641b5a86" y="124.347564"/>
    </g>
   </g>
   <g id="line2d_45">
    <path d="M 137.910857 298.944 
L 137.910857 296.628397 
L 139.253002 296.628397 
L 139.253002 296.165277 
L 140.423864 296.165277 
L 140.423864 294.775915 
L 144.865226 294.775915 
L 144.865226 291.534072 
L 145.039911 291.534072 
L 145.039911 289.68159 
L 147.670154 289.68159 
L 147.670154 288.292228 
L 149.60198 288.292228 
L 149.60198 284.587264 
L 149.911431 284.587264 
L 149.911431 280.419179 
L 150.042389 280.419179 
L 150.042389 279.956059 
L 150.556607 279.956059 
L 150.556607 277.177336 
L 151.300575 277.177336 
L 151.300575 275.787974 
L 151.621307 275.787974 
L 151.621307 275.324854 
L 152.885298 275.324854 
L 152.995791 273.009251 
L 153.142033 273.009251 
L 153.142033 267.451805 
L 153.323128 267.451805 
L 153.395042 266.525564 
L 153.959927 266.525564 
L 153.959927 265.599323 
L 154.57429 265.599323 
L 154.57429 265.136202 
L 154.840544 265.136202 
L 154.840544 264.209961 
L 155.488919 264.209961 
L 155.584129 259.115635 
L 155.710272 259.115635 
L 155.710272 253.558189 
L 156.021696 253.558189 
L 156.021696 253.095069 
L 156.266892 253.095069 
L 156.266892 251.705707 
L 157.809652 251.705707 
L 157.809652 249.853225 
L 158.276927 249.853225 
L 158.331086 248.463863 
L 158.625992 248.463863 
L 158.67908 246.148261 
L 159.354904 246.148261 
L 159.431225 244.758899 
L 160.054568 244.758899 
L 160.054568 244.295779 
L 160.225184 244.295779 
L 160.225184 242.906417 
L 160.37011 242.906417 
L 160.37011 242.443297 
L 160.537682 242.443297 
L 160.537682 241.517056 
L 161.26102 241.517056 
L 161.283861 236.88585 
L 161.442917 236.88585 
L 161.442917 235.959609 
L 161.689969 235.959609 
L 161.689969 235.496489 
L 162.021314 235.496489 
L 162.021314 234.570248 
L 162.496175 234.570248 
L 162.496175 234.107127 
L 162.68677 234.107127 
L 162.68677 233.644007 
L 162.854457 233.644007 
L 162.916926 230.402163 
L 163.103002 230.402163 
L 163.205526 226.697199 
L 163.609699 226.697199 
L 163.689421 224.381596 
L 163.887148 224.381596 
L 163.887148 223.455355 
L 164.371873 223.455355 
L 164.371873 221.602873 
L 165.302685 221.602873 
L 165.302685 221.139753 
L 165.608172 221.139753 
L 165.608172 218.36103 
L 166.065276 218.36103 
L 166.134549 213.729825 
L 166.595075 213.729825 
L 166.679039 209.098619 
L 166.878918 209.098619 
L 166.878918 208.635499 
L 167.384913 208.635499 
L 167.400994 207.246137 
L 167.640438 207.246137 
L 167.751064 204.930535 
L 167.907893 204.930535 
L 167.907893 204.467414 
L 168.125111 204.467414 
L 168.232714 203.078053 
L 168.415645 203.078053 
L 168.445948 200.299329 
L 168.656606 200.299329 
L 168.656606 199.373088 
L 168.835167 199.373088 
L 168.909031 197.983727 
L 169.215888 197.983727 
L 169.302579 195.205004 
L 169.474679 195.205004 
L 169.474679 193.815642 
L 169.687442 193.815642 
L 169.771826 190.573799 
L 169.841835 190.573799 
L 169.911564 188.721316 
L 170.132843 188.721316 
L 170.132843 188.258196 
L 170.620687 188.258196 
L 170.620687 187.331955 
L 170.859585 187.331955 
L 170.859585 186.868834 
L 171.108254 186.868834 
L 171.121244 185.942593 
L 171.366236 185.942593 
L 171.455636 184.553232 
L 171.746192 184.553232 
L 171.8212 183.626991 
L 171.858583 183.626991 
L 171.957882 177.606424 
L 172.019658 177.606424 
L 172.019658 176.680183 
L 172.409924 176.680183 
L 172.409924 176.217062 
L 172.542086 176.217062 
L 172.542086 175.290821 
L 172.685129 175.290821 
L 172.708856 174.36458 
L 173.406055 174.36458 
L 173.496944 172.975219 
L 173.519593 172.975219 
L 173.542212 171.122737 
L 173.688525 171.122737 
L 173.688525 170.196496 
L 173.911252 170.196496 
L 173.911252 169.733375 
L 174.07645 169.733375 
L 174.098358 168.807134 
L 174.488079 168.807134 
L 174.488079 166.954652 
L 174.679722 166.954652 
L 174.679722 166.491532 
L 174.984116 166.491532 
L 174.984116 166.028411 
L 175.375102 166.028411 
L 175.395439 165.10217 
L 175.55729 165.10217 
L 175.577416 164.175929 
L 175.687696 164.175929 
L 175.687696 163.712808 
L 176.082938 163.712808 
L 176.082938 162.786567 
L 176.383205 162.786567 
L 176.431155 160.934085 
L 176.744358 160.934085 
L 176.763161 160.007844 
L 176.931477 160.007844 
L 176.931477 159.544724 
L 177.07051 159.544724 
L 177.14421 158.155362 
L 177.190115 158.155362 
L 177.190115 157.692242 
L 177.526107 157.692242 
L 177.579988 156.30288 
L 177.687252 156.30288 
L 177.687252 155.83976 
L 177.864572 155.83976 
L 177.864572 154.913519 
L 178.101129 154.913519 
L 178.127217 153.061037 
L 178.590234 153.061037 
L 178.590234 152.134795 
L 178.925454 152.134795 
L 179.008261 150.745434 
L 179.13174 150.745434 
L 179.13174 150.282313 
L 179.295031 150.282313 
L 179.392276 149.356072 
L 179.956806 149.356072 
L 179.956806 148.892952 
L 180.639584 148.892952 
L 180.722145 147.50359 
L 180.945347 147.50359 
L 181.033834 146.577349 
L 181.648084 146.577349 
L 181.74015 145.651108 
L 182.220831 145.651108 
L 182.296252 144.724867 
L 182.466459 144.724867 
L 182.53408 143.335506 
L 182.688619 143.335506 
L 182.715356 141.946144 
L 183.157214 141.946144 
L 183.157214 141.483024 
L 183.498982 141.483024 
L 183.498982 141.019903 
L 183.802832 141.019903 
L 183.809106 139.630541 
L 184.291671 139.630541 
L 184.291671 139.167421 
L 185.055732 139.167421 
L 185.055732 138.7043 
L 186.613497 138.7043 
L 186.714687 136.851818 
L 186.76771 136.851818 
L 186.76771 135.925577 
L 186.899567 135.925577 
L 186.899567 135.462457 
L 187.155149 135.462457 
L 187.155149 134.536216 
L 188.244047 134.536216 
L 188.316863 133.146854 
L 188.485592 133.146854 
L 188.485592 132.220613 
L 188.666955 132.220613 
L 188.7333 130.831252 
L 189.163114 130.831252 
L 189.163114 130.368131 
L 189.442368 130.368131 
L 189.442368 129.905011 
L 189.645546 129.905011 
L 189.650035 128.515649 
L 193.888073 128.515649 
L 193.888073 128.052529 
L 196.483085 128.052529 
L 196.483085 127.589408 
L 197.427575 127.589408 
L 197.427575 126.663167 
L 204.111254 126.663167 
L 204.111254 126.200046 
L 219.037666 126.200046 
L 219.037666 125.273805 
L 239.385617 125.273805 
L 239.385617 124.810685 
L 246.781597 124.810685 
L 246.781597 124.347564 
L 338.688 124.347564 
L 338.688 124.347564 
" style="fill:none;stroke:#ff7500;stroke-linecap:square;stroke-width:1.5;"/>
   </g>
   <g id="line2d_46">
    <defs>
     <path d="M 0 -6 
L -1.347084 -1.854102 
L -5.706339 -1.854102 
L -2.179628 0.708204 
L -3.526712 4.854102 
L -0 2.291796 
L 3.526712 4.854102 
L 2.179628 0.708204 
L 5.706339 -1.854102 
L 1.347084 -1.854102 
z
" id="m684ed4f74f" style="stroke:#ff7500;stroke-linejoin:bevel;stroke-width:1.5;"/>
    </defs>
    <g>
     <use style="fill-opacity:0;stroke:#ff7500;stroke-linejoin:bevel;stroke-width:1.5;" x="153.142033" xlink:href="#m684ed4f74f" y="273.009251"/>
     <use style="fill-opacity:0;stroke:#ff7500;stroke-linejoin:bevel;stroke-width:1.5;" x="189.650035" xlink:href="#m684ed4f74f" y="128.515649"/>
     <use style="fill-opacity:0;stroke:#ff7500;stroke-linejoin:bevel;stroke-width:1.5;" x="246.781597" xlink:href="#m684ed4f74f" y="124.810685"/>
     <use style="fill-opacity:0;stroke:#ff7500;stroke-linejoin:bevel;stroke-width:1.5;" x="246.781597" xlink:href="#m684ed4f74f" y="124.347564"/>
     <use style="fill-opacity:0;stroke:#ff7500;stroke-linejoin:bevel;stroke-width:1.5;" x="338.688" xlink:href="#m684ed4f74f" y="124.347564"/>
    </g>
   </g>
   <g id="line2d_47">
    <path style="fill:none;stroke:#ff7500;stroke-linecap:square;stroke-width:1.5;"/>
    <g/>
   </g>
   <g id="line2d_48">
    <path clip-path="url(#p6510498943)" d="M 258.37723 124.347564 
" style="fill:none;stroke:#ff7500;stroke-linecap:square;stroke-width:1.5;"/>
    <defs>
     <path d="M -12 12 
L 12 -12 
M -12 -12 
L 12 12 
" id="m2d01b541b8" style="stroke:#ff7500;"/>
    </defs>
    <g clip-path="url(#p6510498943)">
     <use style="fill:#ff7500;stroke:#ff7500;" x="258.37723" xlink:href="#m2d01b541b8" y="124.347564"/>
    </g>
   </g>
   <g id="line2d_49">
    <path d="M 338.688 124.347564 
L 369.60768 293.571802 
" style="fill:none;stroke:#ff7500;stroke-linecap:square;stroke-width:1.5;"/>
    <g>
     <use style="fill-opacity:0;stroke:#ff7500;stroke-linejoin:bevel;stroke-width:1.5;" x="338.688" xlink:href="#m684ed4f74f" y="124.347564"/>
     <use style="fill-opacity:0;stroke:#ff7500;stroke-linejoin:bevel;stroke-width:1.5;" x="369.60768" xlink:href="#m684ed4f74f" y="293.571802"/>
    </g>
   </g>
   <g id="line2d_50">
    <path d="M 338.688 76.18303 
L 369.60768 207.616634 
" style="fill:none;stroke:#ff00ff;stroke-linecap:square;stroke-width:1.5;"/>
    <g>
     <use style="fill-opacity:0;stroke:#ff00ff;stroke-linejoin:miter;stroke-width:1.5;" x="338.688" xlink:href="#m65d786a4cd" y="76.18303"/>
     <use style="fill-opacity:0;stroke:#ff00ff;stroke-linejoin:miter;stroke-width:1.5;" x="369.60768" xlink:href="#m65d786a4cd" y="207.616634"/>
    </g>
   </g>
   <g id="line2d_51">
    <path d="M 338.688 64.141897 
L 369.60768 121.661465 
" style="fill:none;stroke:#000080;stroke-linecap:square;stroke-width:1.5;"/>
    <g>
     <use style="fill-opacity:0;stroke:#000080;stroke-width:1.5;" x="338.688" xlink:href="#md379bf9e9d" y="64.141897"/>
     <use style="fill-opacity:0;stroke:#000080;stroke-width:1.5;" x="369.60768" xlink:href="#md379bf9e9d" y="121.661465"/>
    </g>
   </g>
   <g id="line2d_52">
    <path d="M 338.688 298.944 
L 338.688 30.334099 
" style="fill:none;stroke:#000000;stroke-linecap:square;stroke-width:1.5;"/>
   </g>
   <g id="patch_3">
    <path d="M 57.6 298.944 
L 57.6 27.648 
" style="fill:none;stroke:#000000;stroke-linecap:square;stroke-linejoin:miter;stroke-width:0.8;"/>
   </g>
   <g id="patch_4">
    <path d="M 338.688 298.944 
L 338.688 27.648 
" style="fill:none;stroke:#000000;stroke-linecap:square;stroke-linejoin:miter;stroke-width:0.8;"/>
   </g>
   <g id="patch_5">
    <path d="M 57.6 298.944 
L 338.688 298.944 
" style="fill:none;stroke:#000000;stroke-linecap:square;stroke-linejoin:miter;stroke-width:0.8;"/>
   </g>
   <g id="patch_6">
    <path d="M 57.6 27.648 
L 338.688 27.648 
" style="fill:none;stroke:#000000;stroke-linecap:square;stroke-linejoin:miter;stroke-width:0.8;"/>
   </g>
   <g id="text_13">
    <!-- SMS-EMOA- -->
    <g transform="translate(375.22944 298.262739)scale(0.17 -0.17)">
     <defs>
      <path d="M 53.515625 70.515625 
L 53.515625 60.890625 
Q 47.90625 63.578125 42.921875 64.890625 
Q 37.9375 66.21875 33.296875 66.21875 
Q 25.25 66.21875 20.875 63.09375 
Q 16.5 59.96875 16.5 54.203125 
Q 16.5 49.359375 19.40625 46.890625 
Q 22.3125 44.4375 30.421875 42.921875 
L 36.375 41.703125 
Q 47.40625 39.59375 52.65625 34.296875 
Q 57.90625 29 57.90625 20.125 
Q 57.90625 9.515625 50.796875 4.046875 
Q 43.703125 -1.421875 29.984375 -1.421875 
Q 24.8125 -1.421875 18.96875 -0.25 
Q 13.140625 0.921875 6.890625 3.21875 
L 6.890625 13.375 
Q 12.890625 10.015625 18.65625 8.296875 
Q 24.421875 6.59375 29.984375 6.59375 
Q 38.421875 6.59375 43.015625 9.90625 
Q 47.609375 13.234375 47.609375 19.390625 
Q 47.609375 24.75 44.3125 27.78125 
Q 41.015625 30.8125 33.5 32.328125 
L 27.484375 33.5 
Q 16.453125 35.6875 11.515625 40.375 
Q 6.59375 45.0625 6.59375 53.421875 
Q 6.59375 63.09375 13.40625 68.65625 
Q 20.21875 74.21875 32.171875 74.21875 
Q 37.3125 74.21875 42.625 73.28125 
Q 47.953125 72.359375 53.515625 70.515625 
z
" id="DejaVuSans-83"/>
      <path d="M 9.8125 72.90625 
L 24.515625 72.90625 
L 43.109375 23.296875 
L 61.8125 72.90625 
L 76.515625 72.90625 
L 76.515625 0 
L 66.890625 0 
L 66.890625 64.015625 
L 48.09375 14.015625 
L 38.1875 14.015625 
L 19.390625 64.015625 
L 19.390625 0 
L 9.8125 0 
z
" id="DejaVuSans-77"/>
      <path d="M 9.8125 72.90625 
L 55.90625 72.90625 
L 55.90625 64.59375 
L 19.671875 64.59375 
L 19.671875 43.015625 
L 54.390625 43.015625 
L 54.390625 34.71875 
L 19.671875 34.71875 
L 19.671875 8.296875 
L 56.78125 8.296875 
L 56.78125 0 
L 9.8125 0 
z
" id="DejaVuSans-69"/>
      <path d="M 39.40625 66.21875 
Q 28.65625 66.21875 22.328125 58.203125 
Q 16.015625 50.203125 16.015625 36.375 
Q 16.015625 22.609375 22.328125 14.59375 
Q 28.65625 6.59375 39.40625 6.59375 
Q 50.140625 6.59375 56.421875 14.59375 
Q 62.703125 22.609375 62.703125 36.375 
Q 62.703125 50.203125 56.421875 58.203125 
Q 50.140625 66.21875 39.40625 66.21875 
z
M 39.40625 74.21875 
Q 54.734375 74.21875 63.90625 63.9375 
Q 73.09375 53.65625 73.09375 36.375 
Q 73.09375 19.140625 63.90625 8.859375 
Q 54.734375 -1.421875 39.40625 -1.421875 
Q 24.03125 -1.421875 14.8125 8.828125 
Q 5.609375 19.09375 5.609375 36.375 
Q 5.609375 53.65625 14.8125 63.9375 
Q 24.03125 74.21875 39.40625 74.21875 
z
" id="DejaVuSans-79"/>
      <path d="M 34.1875 63.1875 
L 20.796875 26.90625 
L 47.609375 26.90625 
z
M 28.609375 72.90625 
L 39.796875 72.90625 
L 67.578125 0 
L 57.328125 0 
L 50.6875 18.703125 
L 17.828125 18.703125 
L 11.1875 0 
L 0.78125 0 
z
" id="DejaVuSans-65"/>
     </defs>
     <use xlink:href="#DejaVuSans-83"/>
     <use x="63.476562" xlink:href="#DejaVuSans-77"/>
     <use x="149.755859" xlink:href="#DejaVuSans-83"/>
     <use x="213.232422" xlink:href="#DejaVuSans-45"/>
     <use x="249.316406" xlink:href="#DejaVuSans-69"/>
     <use x="312.5" xlink:href="#DejaVuSans-77"/>
     <use x="398.779297" xlink:href="#DejaVuSans-79"/>
     <use x="475.740234" xlink:href="#DejaVuSans-65"/>
     <use x="541.898438" xlink:href="#DejaVuSans-45"/>
    </g>
   </g>
   <g id="text_14">
    <!-- NSGA-II-M -->
    <g transform="translate(375.22944 212.307571)scale(0.17 -0.17)">
     <defs>
      <path d="M 9.8125 72.90625 
L 23.09375 72.90625 
L 55.421875 11.921875 
L 55.421875 72.90625 
L 64.984375 72.90625 
L 64.984375 0 
L 51.703125 0 
L 19.390625 60.984375 
L 19.390625 0 
L 9.8125 0 
z
" id="DejaVuSans-78"/>
      <path d="M 59.515625 10.40625 
L 59.515625 29.984375 
L 43.40625 29.984375 
L 43.40625 38.09375 
L 69.28125 38.09375 
L 69.28125 6.78125 
Q 63.578125 2.734375 56.6875 0.65625 
Q 49.8125 -1.421875 42 -1.421875 
Q 24.90625 -1.421875 15.25 8.5625 
Q 5.609375 18.5625 5.609375 36.375 
Q 5.609375 54.25 15.25 64.234375 
Q 24.90625 74.21875 42 74.21875 
Q 49.125 74.21875 55.546875 72.453125 
Q 61.96875 70.703125 67.390625 67.28125 
L 67.390625 56.78125 
Q 61.921875 61.421875 55.765625 63.765625 
Q 49.609375 66.109375 42.828125 66.109375 
Q 29.4375 66.109375 22.71875 58.640625 
Q 16.015625 51.171875 16.015625 36.375 
Q 16.015625 21.625 22.71875 14.15625 
Q 29.4375 6.6875 42.828125 6.6875 
Q 48.046875 6.6875 52.140625 7.59375 
Q 56.25 8.5 59.515625 10.40625 
z
" id="DejaVuSans-71"/>
      <path d="M 9.8125 72.90625 
L 19.671875 72.90625 
L 19.671875 0 
L 9.8125 0 
z
" id="DejaVuSans-73"/>
     </defs>
     <use xlink:href="#DejaVuSans-78"/>
     <use x="74.804688" xlink:href="#DejaVuSans-83"/>
     <use x="138.28125" xlink:href="#DejaVuSans-71"/>
     <use x="215.771484" xlink:href="#DejaVuSans-65"/>
     <use x="281.929688" xlink:href="#DejaVuSans-45"/>
     <use x="318.013672" xlink:href="#DejaVuSans-73"/>
     <use x="347.505859" xlink:href="#DejaVuSans-73"/>
     <use x="376.998047" xlink:href="#DejaVuSans-45"/>
     <use x="413.082031" xlink:href="#DejaVuSans-77"/>
    </g>
   </g>
   <g id="text_15">
    <!-- COMO-100  -->
    <g transform="translate(375.22944 126.352403)scale(0.17 -0.17)">
     <defs>
      <path d="M 64.40625 67.28125 
L 64.40625 56.890625 
Q 59.421875 61.53125 53.78125 63.8125 
Q 48.140625 66.109375 41.796875 66.109375 
Q 29.296875 66.109375 22.65625 58.46875 
Q 16.015625 50.828125 16.015625 36.375 
Q 16.015625 21.96875 22.65625 14.328125 
Q 29.296875 6.6875 41.796875 6.6875 
Q 48.140625 6.6875 53.78125 8.984375 
Q 59.421875 11.28125 64.40625 15.921875 
L 64.40625 5.609375 
Q 59.234375 2.09375 53.4375 0.328125 
Q 47.65625 -1.421875 41.21875 -1.421875 
Q 24.65625 -1.421875 15.125 8.703125 
Q 5.609375 18.84375 5.609375 36.375 
Q 5.609375 53.953125 15.125 64.078125 
Q 24.65625 74.21875 41.21875 74.21875 
Q 47.75 74.21875 53.53125 72.484375 
Q 59.328125 70.75 64.40625 67.28125 
z
" id="DejaVuSans-67"/>
     </defs>
     <use xlink:href="#DejaVuSans-67"/>
     <use x="69.824219" xlink:href="#DejaVuSans-79"/>
     <use x="148.535156" xlink:href="#DejaVuSans-77"/>
     <use x="234.814453" xlink:href="#DejaVuSans-79"/>
     <use x="316.275391" xlink:href="#DejaVuSans-45"/>
     <use x="352.359375" xlink:href="#DejaVuSans-49"/>
     <use x="415.982422" xlink:href="#DejaVuSans-48"/>
     <use x="479.605469" xlink:href="#DejaVuSans-48"/>
     <use x="543.228516" xlink:href="#DejaVuSans-32"/>
    </g>
   </g>
   <g id="text_16">
    <!-- best 2016 -->
    <g transform="translate(375.22944 40.397235)scale(0.17 -0.17)">
     <defs>
      <path d="M 48.6875 27.296875 
Q 48.6875 37.203125 44.609375 42.84375 
Q 40.53125 48.484375 33.40625 48.484375 
Q 26.265625 48.484375 22.1875 42.84375 
Q 18.109375 37.203125 18.109375 27.296875 
Q 18.109375 17.390625 22.1875 11.75 
Q 26.265625 6.109375 33.40625 6.109375 
Q 40.53125 6.109375 44.609375 11.75 
Q 48.6875 17.390625 48.6875 27.296875 
z
M 18.109375 46.390625 
Q 20.953125 51.265625 25.265625 53.625 
Q 29.59375 56 35.59375 56 
Q 45.5625 56 51.78125 48.09375 
Q 58.015625 40.1875 58.015625 27.296875 
Q 58.015625 14.40625 51.78125 6.484375 
Q 45.5625 -1.421875 35.59375 -1.421875 
Q 29.59375 -1.421875 25.265625 0.953125 
Q 20.953125 3.328125 18.109375 8.203125 
L 18.109375 0 
L 9.078125 0 
L 9.078125 75.984375 
L 18.109375 75.984375 
z
" id="DejaVuSans-98"/>
     </defs>
     <use xlink:href="#DejaVuSans-98"/>
     <use x="63.476562" xlink:href="#DejaVuSans-101"/>
     <use x="125" xlink:href="#DejaVuSans-115"/>
     <use x="177.099609" xlink:href="#DejaVuSans-116"/>
     <use x="216.308594" xlink:href="#DejaVuSans-32"/>
     <use x="248.095703" xlink:href="#DejaVuSans-50"/>
     <use x="311.71875" xlink:href="#DejaVuSans-48"/>
     <use x="375.341797" xlink:href="#DejaVuSans-49"/>
     <use x="438.964844" xlink:href="#DejaVuSans-54"/>
    </g>
   </g>
   <g id="text_17">
    <!-- bbob-biobj f28, 2-D -->
    <g transform="translate(60.41088 38.111366)scale(0.102 -0.102)">
     <defs>
      <path d="M 9.421875 54.6875 
L 18.40625 54.6875 
L 18.40625 -0.984375 
Q 18.40625 -11.421875 14.421875 -16.109375 
Q 10.453125 -20.796875 1.609375 -20.796875 
L -1.8125 -20.796875 
L -1.8125 -13.1875 
L 0.59375 -13.1875 
Q 5.71875 -13.1875 7.5625 -10.8125 
Q 9.421875 -8.453125 9.421875 -0.984375 
z
M 9.421875 75.984375 
L 18.40625 75.984375 
L 18.40625 64.59375 
L 9.421875 64.59375 
z
" id="DejaVuSans-106"/>
      <path d="M 19.671875 64.796875 
L 19.671875 8.109375 
L 31.59375 8.109375 
Q 46.6875 8.109375 53.6875 14.9375 
Q 60.6875 21.78125 60.6875 36.53125 
Q 60.6875 51.171875 53.6875 57.984375 
Q 46.6875 64.796875 31.59375 64.796875 
z
M 9.8125 72.90625 
L 30.078125 72.90625 
Q 51.265625 72.90625 61.171875 64.09375 
Q 71.09375 55.28125 71.09375 36.53125 
Q 71.09375 17.671875 61.125 8.828125 
Q 51.171875 0 30.078125 0 
L 9.8125 0 
z
" id="DejaVuSans-68"/>
     </defs>
     <use xlink:href="#DejaVuSans-98"/>
     <use x="63.476562" xlink:href="#DejaVuSans-98"/>
     <use x="126.953125" xlink:href="#DejaVuSans-111"/>
     <use x="188.134766" xlink:href="#DejaVuSans-98"/>
     <use x="251.611328" xlink:href="#DejaVuSans-45"/>
     <use x="287.695312" xlink:href="#DejaVuSans-98"/>
     <use x="351.171875" xlink:href="#DejaVuSans-105"/>
     <use x="378.955078" xlink:href="#DejaVuSans-111"/>
     <use x="440.136719" xlink:href="#DejaVuSans-98"/>
     <use x="503.613281" xlink:href="#DejaVuSans-106"/>
     <use x="531.396484" xlink:href="#DejaVuSans-32"/>
     <use x="563.183594" xlink:href="#DejaVuSans-102"/>
     <use x="598.388672" xlink:href="#DejaVuSans-50"/>
     <use x="662.011719" xlink:href="#DejaVuSans-56"/>
     <use x="725.634766" xlink:href="#DejaVuSans-44"/>
     <use x="757.421875" xlink:href="#DejaVuSans-32"/>
     <use x="789.208984" xlink:href="#DejaVuSans-50"/>
     <use x="852.832031" xlink:href="#DejaVuSans-45"/>
     <use x="888.916016" xlink:href="#DejaVuSans-68"/>
    </g>
    <!-- 58 targets: 1..-1.0e-4 -->
    <g transform="translate(60.41088 49.533135)scale(0.102 -0.102)">
     <defs>
      <path d="M 10.796875 72.90625 
L 49.515625 72.90625 
L 49.515625 64.59375 
L 19.828125 64.59375 
L 19.828125 46.734375 
Q 21.96875 47.46875 24.109375 47.828125 
Q 26.265625 48.1875 28.421875 48.1875 
Q 40.625 48.1875 47.75 41.5 
Q 54.890625 34.8125 54.890625 23.390625 
Q 54.890625 11.625 47.5625 5.09375 
Q 40.234375 -1.421875 26.90625 -1.421875 
Q 22.3125 -1.421875 17.546875 -0.640625 
Q 12.796875 0.140625 7.71875 1.703125 
L 7.71875 11.625 
Q 12.109375 9.234375 16.796875 8.0625 
Q 21.484375 6.890625 26.703125 6.890625 
Q 35.15625 6.890625 40.078125 11.328125 
Q 45.015625 15.765625 45.015625 23.390625 
Q 45.015625 31 40.078125 35.4375 
Q 35.15625 39.890625 26.703125 39.890625 
Q 22.75 39.890625 18.8125 39.015625 
Q 14.890625 38.140625 10.796875 36.28125 
z
" id="DejaVuSans-53"/>
      <path d="M 11.71875 12.40625 
L 22.015625 12.40625 
L 22.015625 0 
L 11.71875 0 
z
M 11.71875 51.703125 
L 22.015625 51.703125 
L 22.015625 39.3125 
L 11.71875 39.3125 
z
" id="DejaVuSans-58"/>
     </defs>
     <use xlink:href="#DejaVuSans-53"/>
     <use x="63.623047" xlink:href="#DejaVuSans-56"/>
     <use x="127.246094" xlink:href="#DejaVuSans-32"/>
     <use x="159.033203" xlink:href="#DejaVuSans-116"/>
     <use x="198.242188" xlink:href="#DejaVuSans-97"/>
     <use x="259.521484" xlink:href="#DejaVuSans-114"/>
     <use x="298.884766" xlink:href="#DejaVuSans-103"/>
     <use x="362.361328" xlink:href="#DejaVuSans-101"/>
     <use x="423.884766" xlink:href="#DejaVuSans-116"/>
     <use x="463.09375" xlink:href="#DejaVuSans-115"/>
     <use x="515.193359" xlink:href="#DejaVuSans-58"/>
     <use x="548.884766" xlink:href="#DejaVuSans-32"/>
     <use x="580.671875" xlink:href="#DejaVuSans-49"/>
     <use x="644.294922" xlink:href="#DejaVuSans-46"/>
     <use x="676.082031" xlink:href="#DejaVuSans-46"/>
     <use x="707.869141" xlink:href="#DejaVuSans-45"/>
     <use x="743.953125" xlink:href="#DejaVuSans-49"/>
     <use x="807.576172" xlink:href="#DejaVuSans-46"/>
     <use x="839.363281" xlink:href="#DejaVuSans-48"/>
     <use x="902.986328" xlink:href="#DejaVuSans-101"/>
     <use x="964.509766" xlink:href="#DejaVuSans-45"/>
     <use x="1000.59375" xlink:href="#DejaVuSans-52"/>
    </g>
    <!-- 10 instances -->
    <g transform="translate(60.41088 60.954904)scale(0.102 -0.102)">
     <use xlink:href="#DejaVuSans-49"/>
     <use x="63.623047" xlink:href="#DejaVuSans-48"/>
     <use x="127.246094" xlink:href="#DejaVuSans-32"/>
     <use x="159.033203" xlink:href="#DejaVuSans-105"/>
     <use x="186.816406" xlink:href="#DejaVuSans-110"/>
     <use x="250.195312" xlink:href="#DejaVuSans-115"/>
     <use x="302.294922" xlink:href="#DejaVuSans-116"/>
     <use x="341.503906" xlink:href="#DejaVuSans-97"/>
     <use x="402.783203" xlink:href="#DejaVuSans-110"/>
     <use x="466.162109" xlink:href="#DejaVuSans-99"/>
     <use x="521.142578" xlink:href="#DejaVuSans-101"/>
     <use x="582.666016" xlink:href="#DejaVuSans-115"/>
    </g>
   </g>
   <g id="text_18">
    <!-- v2.4.19, hv-hash=ff0e71e8cd978373 -->
    <g style="fill:#808080;" transform="translate(104.697125 294.151352)scale(0.1 -0.1)">
     <defs>
      <path d="M 10.984375 1.515625 
L 10.984375 10.5 
Q 14.703125 8.734375 18.5 7.8125 
Q 22.3125 6.890625 25.984375 6.890625 
Q 35.75 6.890625 40.890625 13.453125 
Q 46.046875 20.015625 46.78125 33.40625 
Q 43.953125 29.203125 39.59375 26.953125 
Q 35.25 24.703125 29.984375 24.703125 
Q 19.046875 24.703125 12.671875 31.3125 
Q 6.296875 37.9375 6.296875 49.421875 
Q 6.296875 60.640625 12.9375 67.421875 
Q 19.578125 74.21875 30.609375 74.21875 
Q 43.265625 74.21875 49.921875 64.515625 
Q 56.59375 54.828125 56.59375 36.375 
Q 56.59375 19.140625 48.40625 8.859375 
Q 40.234375 -1.421875 26.421875 -1.421875 
Q 22.703125 -1.421875 18.890625 -0.6875 
Q 15.09375 0.046875 10.984375 1.515625 
z
M 30.609375 32.421875 
Q 37.25 32.421875 41.125 36.953125 
Q 45.015625 41.5 45.015625 49.421875 
Q 45.015625 57.28125 41.125 61.84375 
Q 37.25 66.40625 30.609375 66.40625 
Q 23.96875 66.40625 20.09375 61.84375 
Q 16.21875 57.28125 16.21875 49.421875 
Q 16.21875 41.5 20.09375 36.953125 
Q 23.96875 32.421875 30.609375 32.421875 
z
" id="DejaVuSans-57"/>
      <path d="M 54.890625 33.015625 
L 54.890625 0 
L 45.90625 0 
L 45.90625 32.71875 
Q 45.90625 40.484375 42.875 44.328125 
Q 39.84375 48.1875 33.796875 48.1875 
Q 26.515625 48.1875 22.3125 43.546875 
Q 18.109375 38.921875 18.109375 30.90625 
L 18.109375 0 
L 9.078125 0 
L 9.078125 75.984375 
L 18.109375 75.984375 
L 18.109375 46.1875 
Q 21.34375 51.125 25.703125 53.5625 
Q 30.078125 56 35.796875 56 
Q 45.21875 56 50.046875 50.171875 
Q 54.890625 44.34375 54.890625 33.015625 
z
" id="DejaVuSans-104"/>
      <path d="M 10.59375 45.40625 
L 73.1875 45.40625 
L 73.1875 37.203125 
L 10.59375 37.203125 
z
M 10.59375 25.484375 
L 73.1875 25.484375 
L 73.1875 17.1875 
L 10.59375 17.1875 
z
" id="DejaVuSans-61"/>
      <path d="M 8.203125 72.90625 
L 55.078125 72.90625 
L 55.078125 68.703125 
L 28.609375 0 
L 18.3125 0 
L 43.21875 64.59375 
L 8.203125 64.59375 
z
" id="DejaVuSans-55"/>
      <path d="M 40.578125 39.3125 
Q 47.65625 37.796875 51.625 33 
Q 55.609375 28.21875 55.609375 21.1875 
Q 55.609375 10.40625 48.1875 4.484375 
Q 40.765625 -1.421875 27.09375 -1.421875 
Q 22.515625 -1.421875 17.65625 -0.515625 
Q 12.796875 0.390625 7.625 2.203125 
L 7.625 11.71875 
Q 11.71875 9.328125 16.59375 8.109375 
Q 21.484375 6.890625 26.8125 6.890625 
Q 36.078125 6.890625 40.9375 10.546875 
Q 45.796875 14.203125 45.796875 21.1875 
Q 45.796875 27.640625 41.28125 31.265625 
Q 36.765625 34.90625 28.71875 34.90625 
L 20.21875 34.90625 
L 20.21875 43.015625 
L 29.109375 43.015625 
Q 36.375 43.015625 40.234375 45.921875 
Q 44.09375 48.828125 44.09375 54.296875 
Q 44.09375 59.90625 40.109375 62.90625 
Q 36.140625 65.921875 28.71875 65.921875 
Q 24.65625 65.921875 20.015625 65.03125 
Q 15.375 64.15625 9.8125 62.3125 
L 9.8125 71.09375 
Q 15.4375 72.65625 20.34375 73.4375 
Q 25.25 74.21875 29.59375 74.21875 
Q 40.828125 74.21875 47.359375 69.109375 
Q 53.90625 64.015625 53.90625 55.328125 
Q 53.90625 49.265625 50.4375 45.09375 
Q 46.96875 40.921875 40.578125 39.3125 
z
" id="DejaVuSans-51"/>
     </defs>
     <use xlink:href="#DejaVuSans-118"/>
     <use x="59.179688" xlink:href="#DejaVuSans-50"/>
     <use x="122.802734" xlink:href="#DejaVuSans-46"/>
     <use x="154.589844" xlink:href="#DejaVuSans-52"/>
     <use x="218.212891" xlink:href="#DejaVuSans-46"/>
     <use x="250" xlink:href="#DejaVuSans-49"/>
     <use x="313.623047" xlink:href="#DejaVuSans-57"/>
     <use x="377.246094" xlink:href="#DejaVuSans-44"/>
     <use x="409.033203" xlink:href="#DejaVuSans-32"/>
     <use x="440.820312" xlink:href="#DejaVuSans-104"/>
     <use x="504.199219" xlink:href="#DejaVuSans-118"/>
     <use x="560.753906" xlink:href="#DejaVuSans-45"/>
     <use x="596.837891" xlink:href="#DejaVuSans-104"/>
     <use x="660.216797" xlink:href="#DejaVuSans-97"/>
     <use x="721.496094" xlink:href="#DejaVuSans-115"/>
     <use x="773.595703" xlink:href="#DejaVuSans-104"/>
     <use x="836.974609" xlink:href="#DejaVuSans-61"/>
     <use x="920.763672" xlink:href="#DejaVuSans-102"/>
     <use x="955.96875" xlink:href="#DejaVuSans-102"/>
     <use x="991.173828" xlink:href="#DejaVuSans-48"/>
     <use x="1054.796875" xlink:href="#DejaVuSans-101"/>
     <use x="1116.320312" xlink:href="#DejaVuSans-55"/>
     <use x="1179.943359" xlink:href="#DejaVuSans-49"/>
     <use x="1243.566406" xlink:href="#DejaVuSans-101"/>
     <use x="1305.089844" xlink:href="#DejaVuSans-56"/>
     <use x="1368.712891" xlink:href="#DejaVuSans-99"/>
     <use x="1423.693359" xlink:href="#DejaVuSans-100"/>
     <use x="1487.169922" xlink:href="#DejaVuSans-57"/>
     <use x="1550.792969" xlink:href="#DejaVuSans-55"/>
     <use x="1614.416016" xlink:href="#DejaVuSans-56"/>
     <use x="1678.039062" xlink:href="#DejaVuSans-51"/>
     <use x="1741.662109" xlink:href="#DejaVuSans-55"/>
     <use x="1805.285156" xlink:href="#DejaVuSans-51"/>
    </g>
   </g>
   <g id="text_19">
    <!-- 28 Rosenbrock/Rosenbrock -->
    <g transform="translate(62.953375 21.648)scale(0.2 -0.2)">
     <defs>
      <path d="M 44.390625 34.1875 
Q 47.5625 33.109375 50.5625 29.59375 
Q 53.5625 26.078125 56.59375 19.921875 
L 66.609375 0 
L 56 0 
L 46.6875 18.703125 
Q 43.0625 26.03125 39.671875 28.421875 
Q 36.28125 30.8125 30.421875 30.8125 
L 19.671875 30.8125 
L 19.671875 0 
L 9.8125 0 
L 9.8125 72.90625 
L 32.078125 72.90625 
Q 44.578125 72.90625 50.734375 67.671875 
Q 56.890625 62.453125 56.890625 51.90625 
Q 56.890625 45.015625 53.6875 40.46875 
Q 50.484375 35.9375 44.390625 34.1875 
z
M 19.671875 64.796875 
L 19.671875 38.921875 
L 32.078125 38.921875 
Q 39.203125 38.921875 42.84375 42.21875 
Q 46.484375 45.515625 46.484375 51.90625 
Q 46.484375 58.296875 42.84375 61.546875 
Q 39.203125 64.796875 32.078125 64.796875 
z
" id="DejaVuSans-82"/>
      <path d="M 9.078125 75.984375 
L 18.109375 75.984375 
L 18.109375 31.109375 
L 44.921875 54.6875 
L 56.390625 54.6875 
L 27.390625 29.109375 
L 57.625 0 
L 45.90625 0 
L 18.109375 26.703125 
L 18.109375 0 
L 9.078125 0 
z
" id="DejaVuSans-107"/>
     </defs>
     <use xlink:href="#DejaVuSans-50"/>
     <use x="63.623047" xlink:href="#DejaVuSans-56"/>
     <use x="127.246094" xlink:href="#DejaVuSans-32"/>
     <use x="159.033203" xlink:href="#DejaVuSans-82"/>
     <use x="224.015625" xlink:href="#DejaVuSans-111"/>
     <use x="285.197266" xlink:href="#DejaVuSans-115"/>
     <use x="337.296875" xlink:href="#DejaVuSans-101"/>
     <use x="398.820312" xlink:href="#DejaVuSans-110"/>
     <use x="462.199219" xlink:href="#DejaVuSans-98"/>
     <use x="525.675781" xlink:href="#DejaVuSans-114"/>
     <use x="564.539062" xlink:href="#DejaVuSans-111"/>
     <use x="625.720703" xlink:href="#DejaVuSans-99"/>
     <use x="680.701172" xlink:href="#DejaVuSans-107"/>
     <use x="738.611328" xlink:href="#DejaVuSans-47"/>
     <use x="772.302734" xlink:href="#DejaVuSans-82"/>
     <use x="837.285156" xlink:href="#DejaVuSans-111"/>
     <use x="898.466797" xlink:href="#DejaVuSans-115"/>
     <use x="950.566406" xlink:href="#DejaVuSans-101"/>
     <use x="1012.089844" xlink:href="#DejaVuSans-110"/>
     <use x="1075.46875" xlink:href="#DejaVuSans-98"/>
     <use x="1138.945312" xlink:href="#DejaVuSans-114"/>
     <use x="1177.808594" xlink:href="#DejaVuSans-111"/>
     <use x="1238.990234" xlink:href="#DejaVuSans-99"/>
     <use x="1293.970703" xlink:href="#DejaVuSans-107"/>
    </g>
   </g>
  </g>
 </g>
 <defs>
  <clipPath id="p6510498943">
   <rect height="271.296" width="281.088" x="57.6" y="27.648"/>
  </clipPath>
 </defs>
</svg>
