<?xml version="1.0" encoding="utf-8" standalone="no"?>
<!DOCTYPE svg PUBLIC "-//W3C//DTD SVG 1.1//EN"
  "http://www.w3.org/Graphics/SVG/1.1/DTD/svg11.dtd">
<!-- Created with matplotlib (https://matplotlib.org/) -->
<svg height="345.6pt" version="1.1" viewBox="0 0 460.8 345.6" width="460.8pt" xmlns="http://www.w3.org/2000/svg" xmlns:xlink="http://www.w3.org/1999/xlink">
 <metadata>
  <rdf:RDF xmlns:cc="http://creativecommons.org/ns#" xmlns:dc="http://purl.org/dc/elements/1.1/" xmlns:rdf="http://www.w3.org/1999/02/22-rdf-syntax-ns#">
   <cc:Work>
    <dc:type rdf:resource="http://purl.org/dc/dcmitype/StillImage"/>
    <dc:date>2021-04-26T15:05:29.781842</dc:date>
    <dc:format>image/svg+xml</dc:format>
    <dc:creator>
     <cc:Agent>
      <dc:title>Matplotlib v3.3.2, https://matplotlib.org/</dc:title>
     </cc:Agent>
    </dc:creator>
   </cc:Work>
  </rdf:RDF>
 </metadata>
 <defs>
  <style type="text/css">*{stroke-linecap:butt;stroke-linejoin:round;}</style>
 </defs>
 <g id="figure_1">
  <g id="patch_1">
   <path d="M 0 345.6 
L 460.8 345.6 
L 460.8 0 
L 0 0 
z
" style="fill:#ffffff;"/>
  </g>
  <g id="axes_1">
   <g id="patch_2">
    <path d="M 57.6 298.944 
L 338.688 298.944 
L 338.688 27.648 
L 57.6 27.648 
z
" style="fill:#ffffff;"/>
   </g>
   <g id="line2d_1">
    <path d="M 57.6 298.944 
L 57.6 294.312795 
L 69.687988 294.312795 
L 69.687988 285.050384 
L 80.258561 285.050384 
L 80.258561 275.787974 
L 104.826449 275.787974 
L 104.826449 271.156769 
L 106.311539 271.156769 
L 106.311539 257.263153 
L 108.326001 257.263153 
L 108.326001 248.000743 
L 111.505558 248.000743 
L 111.505558 243.369538 
L 119.768017 243.369538 
L 119.768017 234.107127 
L 123.985457 234.107127 
L 123.985457 220.213512 
L 128.209594 220.213512 
L 128.209594 210.951101 
L 132.101058 210.951101 
L 132.101058 201.688691 
L 136.707671 201.688691 
L 136.707671 192.426281 
L 143.101352 192.426281 
L 143.101352 187.795075 
L 149.882194 187.795075 
L 149.882194 173.90146 
L 160.711523 173.90146 
L 160.711523 169.270255 
L 169.446113 169.270255 
L 169.446113 155.376639 
L 180.937953 155.376639 
L 180.937953 146.114229 
L 190.160086 146.114229 
L 190.160086 141.483024 
L 197.913001 141.483024 
L 197.913001 127.589408 
L 209.313283 127.589408 
L 209.313283 122.958203 
L 212.854007 122.958203 
L 212.854007 109.064587 
L 217.883624 109.064587 
L 217.883624 99.802177 
L 223.395798 99.802177 
L 223.395798 90.539766 
L 225.992359 90.539766 
L 225.992359 85.908561 
L 229.309618 85.908561 
L 229.309618 76.646151 
L 233.419363 76.646151 
L 233.419363 62.752535 
L 338.688 62.752535 
" style="fill:none;stroke:#f5deb3;stroke-linecap:square;stroke-width:4;"/>
   </g>
   <g id="line2d_2">
    <defs>
     <path d="M 0 7.778175 
L 7.778175 0 
L 0 -7.778175 
L -7.778175 0 
z
" id="mdfe6834944" style="stroke:#f5deb3;stroke-linejoin:miter;stroke-width:1.5;"/>
    </defs>
    <g>
     <use style="fill:#f5deb3;stroke:#f5deb3;stroke-linejoin:miter;stroke-width:1.5;" x="149.882194" xlink:href="#mdfe6834944" y="187.795075"/>
     <use style="fill:#f5deb3;stroke:#f5deb3;stroke-linejoin:miter;stroke-width:1.5;" x="209.313283" xlink:href="#mdfe6834944" y="122.958203"/>
     <use style="fill:#f5deb3;stroke:#f5deb3;stroke-linejoin:miter;stroke-width:1.5;" x="233.419363" xlink:href="#mdfe6834944" y="62.752535"/>
     <use style="fill:#f5deb3;stroke:#f5deb3;stroke-linejoin:miter;stroke-width:1.5;" x="233.419363" xlink:href="#mdfe6834944" y="62.752535"/>
     <use style="fill:#f5deb3;stroke:#f5deb3;stroke-linejoin:miter;stroke-width:1.5;" x="338.688" xlink:href="#mdfe6834944" y="62.752535"/>
    </g>
   </g>
   <g id="line2d_3">
    <path style="fill:none;stroke:#f5deb3;stroke-linecap:square;stroke-width:4;"/>
    <g/>
   </g>
   <g id="line2d_4">
    <path d="M 338.688 62.752535 
L 369.60768 35.706297 
" style="fill:none;stroke:#f5deb3;stroke-linecap:square;stroke-width:4;"/>
    <g>
     <use style="fill:#f5deb3;stroke:#f5deb3;stroke-linejoin:miter;stroke-width:1.5;" x="338.688" xlink:href="#mdfe6834944" y="62.752535"/>
     <use style="fill:#f5deb3;stroke:#f5deb3;stroke-linejoin:miter;stroke-width:1.5;" x="369.60768" xlink:href="#mdfe6834944" y="35.706297"/>
    </g>
   </g>
   <g id="matplotlib.axis_1">
    <g id="xtick_1">
     <g id="line2d_5">
      <path clip-path="url(#p08426f4216)" d="M 57.6 298.944 
L 57.6 27.648 
" style="fill:none;stroke:#b0b0b0;stroke-linecap:square;stroke-width:0.8;"/>
     </g>
     <g id="line2d_6">
      <defs>
       <path d="M 0 0 
L 0 3.5 
" id="mf86e6535df" style="stroke:#000000;stroke-width:0.8;"/>
      </defs>
      <g>
       <use style="stroke:#000000;stroke-width:0.8;" x="57.6" xlink:href="#mf86e6535df" y="298.944"/>
      </g>
     </g>
     <g id="text_1">
      <!-- 0 -->
      <g transform="translate(51.2375 321.140875)scale(0.2 -0.2)">
       <defs>
        <path d="M 31.78125 66.40625 
Q 24.171875 66.40625 20.328125 58.90625 
Q 16.5 51.421875 16.5 36.375 
Q 16.5 21.390625 20.328125 13.890625 
Q 24.171875 6.390625 31.78125 6.390625 
Q 39.453125 6.390625 43.28125 13.890625 
Q 47.125 21.390625 47.125 36.375 
Q 47.125 51.421875 43.28125 58.90625 
Q 39.453125 66.40625 31.78125 66.40625 
z
M 31.78125 74.21875 
Q 44.046875 74.21875 50.515625 64.515625 
Q 56.984375 54.828125 56.984375 36.375 
Q 56.984375 17.96875 50.515625 8.265625 
Q 44.046875 -1.421875 31.78125 -1.421875 
Q 19.53125 -1.421875 13.0625 8.265625 
Q 6.59375 17.96875 6.59375 36.375 
Q 6.59375 54.828125 13.0625 64.515625 
Q 19.53125 74.21875 31.78125 74.21875 
z
" id="DejaVuSans-48"/>
       </defs>
       <use xlink:href="#DejaVuSans-48"/>
      </g>
     </g>
    </g>
    <g id="xtick_2">
     <g id="line2d_7">
      <path clip-path="url(#p08426f4216)" d="M 137.910857 298.944 
L 137.910857 27.648 
" style="fill:none;stroke:#b0b0b0;stroke-linecap:square;stroke-width:0.8;"/>
     </g>
     <g id="line2d_8">
      <g>
       <use style="stroke:#000000;stroke-width:0.8;" x="137.910857" xlink:href="#mf86e6535df" y="298.944"/>
      </g>
     </g>
     <g id="text_2">
      <!-- 2 -->
      <g transform="translate(131.548357 321.140875)scale(0.2 -0.2)">
       <defs>
        <path d="M 19.1875 8.296875 
L 53.609375 8.296875 
L 53.609375 0 
L 7.328125 0 
L 7.328125 8.296875 
Q 12.9375 14.109375 22.625 23.890625 
Q 32.328125 33.6875 34.8125 36.53125 
Q 39.546875 41.84375 41.421875 45.53125 
Q 43.3125 49.21875 43.3125 52.78125 
Q 43.3125 58.59375 39.234375 62.25 
Q 35.15625 65.921875 28.609375 65.921875 
Q 23.96875 65.921875 18.8125 64.3125 
Q 13.671875 62.703125 7.8125 59.421875 
L 7.8125 69.390625 
Q 13.765625 71.78125 18.9375 73 
Q 24.125 74.21875 28.421875 74.21875 
Q 39.75 74.21875 46.484375 68.546875 
Q 53.21875 62.890625 53.21875 53.421875 
Q 53.21875 48.921875 51.53125 44.890625 
Q 49.859375 40.875 45.40625 35.40625 
Q 44.1875 33.984375 37.640625 27.21875 
Q 31.109375 20.453125 19.1875 8.296875 
z
" id="DejaVuSans-50"/>
       </defs>
       <use xlink:href="#DejaVuSans-50"/>
      </g>
     </g>
    </g>
    <g id="xtick_3">
     <g id="line2d_9">
      <path clip-path="url(#p08426f4216)" d="M 218.221714 298.944 
L 218.221714 27.648 
" style="fill:none;stroke:#b0b0b0;stroke-linecap:square;stroke-width:0.8;"/>
     </g>
     <g id="line2d_10">
      <g>
       <use style="stroke:#000000;stroke-width:0.8;" x="218.221714" xlink:href="#mf86e6535df" y="298.944"/>
      </g>
     </g>
     <g id="text_3">
      <!-- 4 -->
      <g transform="translate(211.859214 321.140875)scale(0.2 -0.2)">
       <defs>
        <path d="M 37.796875 64.3125 
L 12.890625 25.390625 
L 37.796875 25.390625 
z
M 35.203125 72.90625 
L 47.609375 72.90625 
L 47.609375 25.390625 
L 58.015625 25.390625 
L 58.015625 17.1875 
L 47.609375 17.1875 
L 47.609375 0 
L 37.796875 0 
L 37.796875 17.1875 
L 4.890625 17.1875 
L 4.890625 26.703125 
z
" id="DejaVuSans-52"/>
       </defs>
       <use xlink:href="#DejaVuSans-52"/>
      </g>
     </g>
    </g>
    <g id="xtick_4">
     <g id="line2d_11">
      <path clip-path="url(#p08426f4216)" d="M 298.532571 298.944 
L 298.532571 27.648 
" style="fill:none;stroke:#b0b0b0;stroke-linecap:square;stroke-width:0.8;"/>
     </g>
     <g id="line2d_12">
      <g>
       <use style="stroke:#000000;stroke-width:0.8;" x="298.532571" xlink:href="#mf86e6535df" y="298.944"/>
      </g>
     </g>
     <g id="text_4">
      <!-- 6 -->
      <g transform="translate(292.170071 321.140875)scale(0.2 -0.2)">
       <defs>
        <path d="M 33.015625 40.375 
Q 26.375 40.375 22.484375 35.828125 
Q 18.609375 31.296875 18.609375 23.390625 
Q 18.609375 15.53125 22.484375 10.953125 
Q 26.375 6.390625 33.015625 6.390625 
Q 39.65625 6.390625 43.53125 10.953125 
Q 47.40625 15.53125 47.40625 23.390625 
Q 47.40625 31.296875 43.53125 35.828125 
Q 39.65625 40.375 33.015625 40.375 
z
M 52.59375 71.296875 
L 52.59375 62.3125 
Q 48.875 64.0625 45.09375 64.984375 
Q 41.3125 65.921875 37.59375 65.921875 
Q 27.828125 65.921875 22.671875 59.328125 
Q 17.53125 52.734375 16.796875 39.40625 
Q 19.671875 43.65625 24.015625 45.921875 
Q 28.375 48.1875 33.59375 48.1875 
Q 44.578125 48.1875 50.953125 41.515625 
Q 57.328125 34.859375 57.328125 23.390625 
Q 57.328125 12.15625 50.6875 5.359375 
Q 44.046875 -1.421875 33.015625 -1.421875 
Q 20.359375 -1.421875 13.671875 8.265625 
Q 6.984375 17.96875 6.984375 36.375 
Q 6.984375 53.65625 15.1875 63.9375 
Q 23.390625 74.21875 37.203125 74.21875 
Q 40.921875 74.21875 44.703125 73.484375 
Q 48.484375 72.75 52.59375 71.296875 
z
" id="DejaVuSans-54"/>
       </defs>
       <use xlink:href="#DejaVuSans-54"/>
      </g>
     </g>
    </g>
    <g id="xtick_5">
     <g id="line2d_13">
      <path clip-path="url(#p08426f4216)" d="M 97.755429 298.944 
L 97.755429 27.648 
" style="fill:none;stroke:#b0b0b0;stroke-linecap:square;stroke-width:0.8;"/>
     </g>
     <g id="line2d_14">
      <defs>
       <path d="M 0 0 
L 0 2 
" id="mabd9501aba" style="stroke:#000000;stroke-width:0.6;"/>
      </defs>
      <g>
       <use style="stroke:#000000;stroke-width:0.6;" x="97.755429" xlink:href="#mabd9501aba" y="298.944"/>
      </g>
     </g>
    </g>
    <g id="xtick_6">
     <g id="line2d_15">
      <path clip-path="url(#p08426f4216)" d="M 178.066286 298.944 
L 178.066286 27.648 
" style="fill:none;stroke:#b0b0b0;stroke-linecap:square;stroke-width:0.8;"/>
     </g>
     <g id="line2d_16">
      <g>
       <use style="stroke:#000000;stroke-width:0.6;" x="178.066286" xlink:href="#mabd9501aba" y="298.944"/>
      </g>
     </g>
    </g>
    <g id="xtick_7">
     <g id="line2d_17">
      <path clip-path="url(#p08426f4216)" d="M 258.377143 298.944 
L 258.377143 27.648 
" style="fill:none;stroke:#b0b0b0;stroke-linecap:square;stroke-width:0.8;"/>
     </g>
     <g id="line2d_18">
      <g>
       <use style="stroke:#000000;stroke-width:0.6;" x="258.377143" xlink:href="#mabd9501aba" y="298.944"/>
      </g>
     </g>
    </g>
    <g id="xtick_8">
     <g id="line2d_19">
      <path clip-path="url(#p08426f4216)" d="M 338.688 298.944 
L 338.688 27.648 
" style="fill:none;stroke:#b0b0b0;stroke-linecap:square;stroke-width:0.8;"/>
     </g>
     <g id="line2d_20">
      <g>
       <use style="stroke:#000000;stroke-width:0.6;" x="338.688" xlink:href="#mabd9501aba" y="298.944"/>
      </g>
     </g>
    </g>
    <g id="text_5">
     <!-- log10(# f-evals / dimension) -->
     <g transform="translate(77.764078 342.217594)scale(0.17 -0.17)">
      <defs>
       <path d="M 9.421875 75.984375 
L 18.40625 75.984375 
L 18.40625 0 
L 9.421875 0 
z
" id="DejaVuSans-108"/>
       <path d="M 30.609375 48.390625 
Q 23.390625 48.390625 19.1875 42.75 
Q 14.984375 37.109375 14.984375 27.296875 
Q 14.984375 17.484375 19.15625 11.84375 
Q 23.34375 6.203125 30.609375 6.203125 
Q 37.796875 6.203125 41.984375 11.859375 
Q 46.1875 17.53125 46.1875 27.296875 
Q 46.1875 37.015625 41.984375 42.703125 
Q 37.796875 48.390625 30.609375 48.390625 
z
M 30.609375 56 
Q 42.328125 56 49.015625 48.375 
Q 55.71875 40.765625 55.71875 27.296875 
Q 55.71875 13.875 49.015625 6.21875 
Q 42.328125 -1.421875 30.609375 -1.421875 
Q 18.84375 -1.421875 12.171875 6.21875 
Q 5.515625 13.875 5.515625 27.296875 
Q 5.515625 40.765625 12.171875 48.375 
Q 18.84375 56 30.609375 56 
z
" id="DejaVuSans-111"/>
       <path d="M 45.40625 27.984375 
Q 45.40625 37.75 41.375 43.109375 
Q 37.359375 48.484375 30.078125 48.484375 
Q 22.859375 48.484375 18.828125 43.109375 
Q 14.796875 37.75 14.796875 27.984375 
Q 14.796875 18.265625 18.828125 12.890625 
Q 22.859375 7.515625 30.078125 7.515625 
Q 37.359375 7.515625 41.375 12.890625 
Q 45.40625 18.265625 45.40625 27.984375 
z
M 54.390625 6.78125 
Q 54.390625 -7.171875 48.1875 -13.984375 
Q 42 -20.796875 29.203125 -20.796875 
Q 24.46875 -20.796875 20.265625 -20.09375 
Q 16.0625 -19.390625 12.109375 -17.921875 
L 12.109375 -9.1875 
Q 16.0625 -11.328125 19.921875 -12.34375 
Q 23.78125 -13.375 27.78125 -13.375 
Q 36.625 -13.375 41.015625 -8.765625 
Q 45.40625 -4.15625 45.40625 5.171875 
L 45.40625 9.625 
Q 42.625 4.78125 38.28125 2.390625 
Q 33.9375 0 27.875 0 
Q 17.828125 0 11.671875 7.65625 
Q 5.515625 15.328125 5.515625 27.984375 
Q 5.515625 40.671875 11.671875 48.328125 
Q 17.828125 56 27.875 56 
Q 33.9375 56 38.28125 53.609375 
Q 42.625 51.21875 45.40625 46.390625 
L 45.40625 54.6875 
L 54.390625 54.6875 
z
" id="DejaVuSans-103"/>
       <path d="M 12.40625 8.296875 
L 28.515625 8.296875 
L 28.515625 63.921875 
L 10.984375 60.40625 
L 10.984375 69.390625 
L 28.421875 72.90625 
L 38.28125 72.90625 
L 38.28125 8.296875 
L 54.390625 8.296875 
L 54.390625 0 
L 12.40625 0 
z
" id="DejaVuSans-49"/>
       <path d="M 31 75.875 
Q 24.46875 64.65625 21.28125 53.65625 
Q 18.109375 42.671875 18.109375 31.390625 
Q 18.109375 20.125 21.3125 9.0625 
Q 24.515625 -2 31 -13.1875 
L 23.1875 -13.1875 
Q 15.875 -1.703125 12.234375 9.375 
Q 8.59375 20.453125 8.59375 31.390625 
Q 8.59375 42.28125 12.203125 53.3125 
Q 15.828125 64.359375 23.1875 75.875 
z
" id="DejaVuSans-40"/>
       <path d="M 51.125 44 
L 36.921875 44 
L 32.8125 27.6875 
L 47.125 27.6875 
z
M 43.796875 71.78125 
L 38.71875 51.515625 
L 52.984375 51.515625 
L 58.109375 71.78125 
L 65.921875 71.78125 
L 60.890625 51.515625 
L 76.125 51.515625 
L 76.125 44 
L 58.984375 44 
L 54.984375 27.6875 
L 70.515625 27.6875 
L 70.515625 20.21875 
L 53.078125 20.21875 
L 48 0 
L 40.1875 0 
L 45.21875 20.21875 
L 30.90625 20.21875 
L 25.875 0 
L 18.015625 0 
L 23.09375 20.21875 
L 7.71875 20.21875 
L 7.71875 27.6875 
L 24.90625 27.6875 
L 29 44 
L 13.28125 44 
L 13.28125 51.515625 
L 30.90625 51.515625 
L 35.890625 71.78125 
z
" id="DejaVuSans-35"/>
       <path id="DejaVuSans-32"/>
       <path d="M 37.109375 75.984375 
L 37.109375 68.5 
L 28.515625 68.5 
Q 23.6875 68.5 21.796875 66.546875 
Q 19.921875 64.59375 19.921875 59.515625 
L 19.921875 54.6875 
L 34.71875 54.6875 
L 34.71875 47.703125 
L 19.921875 47.703125 
L 19.921875 0 
L 10.890625 0 
L 10.890625 47.703125 
L 2.296875 47.703125 
L 2.296875 54.6875 
L 10.890625 54.6875 
L 10.890625 58.5 
Q 10.890625 67.625 15.140625 71.796875 
Q 19.390625 75.984375 28.609375 75.984375 
z
" id="DejaVuSans-102"/>
       <path d="M 4.890625 31.390625 
L 31.203125 31.390625 
L 31.203125 23.390625 
L 4.890625 23.390625 
z
" id="DejaVuSans-45"/>
       <path d="M 56.203125 29.59375 
L 56.203125 25.203125 
L 14.890625 25.203125 
Q 15.484375 15.921875 20.484375 11.0625 
Q 25.484375 6.203125 34.421875 6.203125 
Q 39.59375 6.203125 44.453125 7.46875 
Q 49.3125 8.734375 54.109375 11.28125 
L 54.109375 2.78125 
Q 49.265625 0.734375 44.1875 -0.34375 
Q 39.109375 -1.421875 33.890625 -1.421875 
Q 20.796875 -1.421875 13.15625 6.1875 
Q 5.515625 13.8125 5.515625 26.8125 
Q 5.515625 40.234375 12.765625 48.109375 
Q 20.015625 56 32.328125 56 
Q 43.359375 56 49.78125 48.890625 
Q 56.203125 41.796875 56.203125 29.59375 
z
M 47.21875 32.234375 
Q 47.125 39.59375 43.09375 43.984375 
Q 39.0625 48.390625 32.421875 48.390625 
Q 24.90625 48.390625 20.390625 44.140625 
Q 15.875 39.890625 15.1875 32.171875 
z
" id="DejaVuSans-101"/>
       <path d="M 2.984375 54.6875 
L 12.5 54.6875 
L 29.59375 8.796875 
L 46.6875 54.6875 
L 56.203125 54.6875 
L 35.6875 0 
L 23.484375 0 
z
" id="DejaVuSans-118"/>
       <path d="M 34.28125 27.484375 
Q 23.390625 27.484375 19.1875 25 
Q 14.984375 22.515625 14.984375 16.5 
Q 14.984375 11.71875 18.140625 8.90625 
Q 21.296875 6.109375 26.703125 6.109375 
Q 34.1875 6.109375 38.703125 11.40625 
Q 43.21875 16.703125 43.21875 25.484375 
L 43.21875 27.484375 
z
M 52.203125 31.203125 
L 52.203125 0 
L 43.21875 0 
L 43.21875 8.296875 
Q 40.140625 3.328125 35.546875 0.953125 
Q 30.953125 -1.421875 24.3125 -1.421875 
Q 15.921875 -1.421875 10.953125 3.296875 
Q 6 8.015625 6 15.921875 
Q 6 25.140625 12.171875 29.828125 
Q 18.359375 34.515625 30.609375 34.515625 
L 43.21875 34.515625 
L 43.21875 35.40625 
Q 43.21875 41.609375 39.140625 45 
Q 35.0625 48.390625 27.6875 48.390625 
Q 23 48.390625 18.546875 47.265625 
Q 14.109375 46.140625 10.015625 43.890625 
L 10.015625 52.203125 
Q 14.9375 54.109375 19.578125 55.046875 
Q 24.21875 56 28.609375 56 
Q 40.484375 56 46.34375 49.84375 
Q 52.203125 43.703125 52.203125 31.203125 
z
" id="DejaVuSans-97"/>
       <path d="M 44.28125 53.078125 
L 44.28125 44.578125 
Q 40.484375 46.53125 36.375 47.5 
Q 32.28125 48.484375 27.875 48.484375 
Q 21.1875 48.484375 17.84375 46.4375 
Q 14.5 44.390625 14.5 40.28125 
Q 14.5 37.15625 16.890625 35.375 
Q 19.28125 33.59375 26.515625 31.984375 
L 29.59375 31.296875 
Q 39.15625 29.25 43.1875 25.515625 
Q 47.21875 21.78125 47.21875 15.09375 
Q 47.21875 7.46875 41.1875 3.015625 
Q 35.15625 -1.421875 24.609375 -1.421875 
Q 20.21875 -1.421875 15.453125 -0.5625 
Q 10.6875 0.296875 5.421875 2 
L 5.421875 11.28125 
Q 10.40625 8.6875 15.234375 7.390625 
Q 20.0625 6.109375 24.8125 6.109375 
Q 31.15625 6.109375 34.5625 8.28125 
Q 37.984375 10.453125 37.984375 14.40625 
Q 37.984375 18.0625 35.515625 20.015625 
Q 33.0625 21.96875 24.703125 23.78125 
L 21.578125 24.515625 
Q 13.234375 26.265625 9.515625 29.90625 
Q 5.8125 33.546875 5.8125 39.890625 
Q 5.8125 47.609375 11.28125 51.796875 
Q 16.75 56 26.8125 56 
Q 31.78125 56 36.171875 55.265625 
Q 40.578125 54.546875 44.28125 53.078125 
z
" id="DejaVuSans-115"/>
       <path d="M 25.390625 72.90625 
L 33.6875 72.90625 
L 8.296875 -9.28125 
L 0 -9.28125 
z
" id="DejaVuSans-47"/>
       <path d="M 45.40625 46.390625 
L 45.40625 75.984375 
L 54.390625 75.984375 
L 54.390625 0 
L 45.40625 0 
L 45.40625 8.203125 
Q 42.578125 3.328125 38.25 0.953125 
Q 33.9375 -1.421875 27.875 -1.421875 
Q 17.96875 -1.421875 11.734375 6.484375 
Q 5.515625 14.40625 5.515625 27.296875 
Q 5.515625 40.1875 11.734375 48.09375 
Q 17.96875 56 27.875 56 
Q 33.9375 56 38.25 53.625 
Q 42.578125 51.265625 45.40625 46.390625 
z
M 14.796875 27.296875 
Q 14.796875 17.390625 18.875 11.75 
Q 22.953125 6.109375 30.078125 6.109375 
Q 37.203125 6.109375 41.296875 11.75 
Q 45.40625 17.390625 45.40625 27.296875 
Q 45.40625 37.203125 41.296875 42.84375 
Q 37.203125 48.484375 30.078125 48.484375 
Q 22.953125 48.484375 18.875 42.84375 
Q 14.796875 37.203125 14.796875 27.296875 
z
" id="DejaVuSans-100"/>
       <path d="M 9.421875 54.6875 
L 18.40625 54.6875 
L 18.40625 0 
L 9.421875 0 
z
M 9.421875 75.984375 
L 18.40625 75.984375 
L 18.40625 64.59375 
L 9.421875 64.59375 
z
" id="DejaVuSans-105"/>
       <path d="M 52 44.1875 
Q 55.375 50.25 60.0625 53.125 
Q 64.75 56 71.09375 56 
Q 79.640625 56 84.28125 50.015625 
Q 88.921875 44.046875 88.921875 33.015625 
L 88.921875 0 
L 79.890625 0 
L 79.890625 32.71875 
Q 79.890625 40.578125 77.09375 44.375 
Q 74.3125 48.1875 68.609375 48.1875 
Q 61.625 48.1875 57.5625 43.546875 
Q 53.515625 38.921875 53.515625 30.90625 
L 53.515625 0 
L 44.484375 0 
L 44.484375 32.71875 
Q 44.484375 40.625 41.703125 44.40625 
Q 38.921875 48.1875 33.109375 48.1875 
Q 26.21875 48.1875 22.15625 43.53125 
Q 18.109375 38.875 18.109375 30.90625 
L 18.109375 0 
L 9.078125 0 
L 9.078125 54.6875 
L 18.109375 54.6875 
L 18.109375 46.1875 
Q 21.1875 51.21875 25.484375 53.609375 
Q 29.78125 56 35.6875 56 
Q 41.65625 56 45.828125 52.96875 
Q 50 49.953125 52 44.1875 
z
" id="DejaVuSans-109"/>
       <path d="M 54.890625 33.015625 
L 54.890625 0 
L 45.90625 0 
L 45.90625 32.71875 
Q 45.90625 40.484375 42.875 44.328125 
Q 39.84375 48.1875 33.796875 48.1875 
Q 26.515625 48.1875 22.3125 43.546875 
Q 18.109375 38.921875 18.109375 30.90625 
L 18.109375 0 
L 9.078125 0 
L 9.078125 54.6875 
L 18.109375 54.6875 
L 18.109375 46.1875 
Q 21.34375 51.125 25.703125 53.5625 
Q 30.078125 56 35.796875 56 
Q 45.21875 56 50.046875 50.171875 
Q 54.890625 44.34375 54.890625 33.015625 
z
" id="DejaVuSans-110"/>
       <path d="M 8.015625 75.875 
L 15.828125 75.875 
Q 23.140625 64.359375 26.78125 53.3125 
Q 30.421875 42.28125 30.421875 31.390625 
Q 30.421875 20.453125 26.78125 9.375 
Q 23.140625 -1.703125 15.828125 -13.1875 
L 8.015625 -13.1875 
Q 14.5 -2 17.703125 9.0625 
Q 20.90625 20.125 20.90625 31.390625 
Q 20.90625 42.671875 17.703125 53.65625 
Q 14.5 64.65625 8.015625 75.875 
z
" id="DejaVuSans-41"/>
      </defs>
      <use xlink:href="#DejaVuSans-108"/>
      <use x="27.783203" xlink:href="#DejaVuSans-111"/>
      <use x="88.964844" xlink:href="#DejaVuSans-103"/>
      <use x="152.441406" xlink:href="#DejaVuSans-49"/>
      <use x="216.064453" xlink:href="#DejaVuSans-48"/>
      <use x="279.6875" xlink:href="#DejaVuSans-40"/>
      <use x="318.701172" xlink:href="#DejaVuSans-35"/>
      <use x="402.490234" xlink:href="#DejaVuSans-32"/>
      <use x="434.277344" xlink:href="#DejaVuSans-102"/>
      <use x="463.982422" xlink:href="#DejaVuSans-45"/>
      <use x="500.066406" xlink:href="#DejaVuSans-101"/>
      <use x="561.589844" xlink:href="#DejaVuSans-118"/>
      <use x="620.769531" xlink:href="#DejaVuSans-97"/>
      <use x="682.048828" xlink:href="#DejaVuSans-108"/>
      <use x="709.832031" xlink:href="#DejaVuSans-115"/>
      <use x="761.931641" xlink:href="#DejaVuSans-32"/>
      <use x="793.71875" xlink:href="#DejaVuSans-47"/>
      <use x="827.410156" xlink:href="#DejaVuSans-32"/>
      <use x="859.197266" xlink:href="#DejaVuSans-100"/>
      <use x="922.673828" xlink:href="#DejaVuSans-105"/>
      <use x="950.457031" xlink:href="#DejaVuSans-109"/>
      <use x="1047.869141" xlink:href="#DejaVuSans-101"/>
      <use x="1109.392578" xlink:href="#DejaVuSans-110"/>
      <use x="1172.771484" xlink:href="#DejaVuSans-115"/>
      <use x="1224.871094" xlink:href="#DejaVuSans-105"/>
      <use x="1252.654297" xlink:href="#DejaVuSans-111"/>
      <use x="1313.835938" xlink:href="#DejaVuSans-110"/>
      <use x="1377.214844" xlink:href="#DejaVuSans-41"/>
     </g>
    </g>
   </g>
   <g id="matplotlib.axis_2">
    <g id="ytick_1">
     <g id="line2d_21">
      <path clip-path="url(#p08426f4216)" d="M 57.6 298.944 
L 338.688 298.944 
" style="fill:none;stroke:#b0b0b0;stroke-linecap:square;stroke-width:0.8;"/>
     </g>
     <g id="line2d_22">
      <defs>
       <path d="M 0 0 
L -3.5 0 
" id="m80051d9ed4" style="stroke:#000000;stroke-width:0.8;"/>
      </defs>
      <g>
       <use style="stroke:#000000;stroke-width:0.8;" x="57.6" xlink:href="#m80051d9ed4" y="298.944"/>
      </g>
     </g>
     <g id="text_6">
      <!-- 0.0 -->
      <g transform="translate(25.155 305.02275)scale(0.16 -0.16)">
       <defs>
        <path d="M 10.6875 12.40625 
L 21 12.40625 
L 21 0 
L 10.6875 0 
z
" id="DejaVuSans-46"/>
       </defs>
       <use xlink:href="#DejaVuSans-48"/>
       <use x="63.623047" xlink:href="#DejaVuSans-46"/>
       <use x="95.410156" xlink:href="#DejaVuSans-48"/>
      </g>
     </g>
    </g>
    <g id="ytick_2">
     <g id="line2d_23">
      <path clip-path="url(#p08426f4216)" d="M 57.6 245.22202 
L 338.688 245.22202 
" style="fill:none;stroke:#b0b0b0;stroke-linecap:square;stroke-width:0.8;"/>
     </g>
     <g id="line2d_24">
      <g>
       <use style="stroke:#000000;stroke-width:0.8;" x="57.6" xlink:href="#m80051d9ed4" y="245.22202"/>
      </g>
     </g>
     <g id="text_7">
      <!-- 0.2 -->
      <g transform="translate(25.155 251.30077)scale(0.16 -0.16)">
       <use xlink:href="#DejaVuSans-48"/>
       <use x="63.623047" xlink:href="#DejaVuSans-46"/>
       <use x="95.410156" xlink:href="#DejaVuSans-50"/>
      </g>
     </g>
    </g>
    <g id="ytick_3">
     <g id="line2d_25">
      <path clip-path="url(#p08426f4216)" d="M 57.6 191.50004 
L 338.688 191.50004 
" style="fill:none;stroke:#b0b0b0;stroke-linecap:square;stroke-width:0.8;"/>
     </g>
     <g id="line2d_26">
      <g>
       <use style="stroke:#000000;stroke-width:0.8;" x="57.6" xlink:href="#m80051d9ed4" y="191.50004"/>
      </g>
     </g>
     <g id="text_8">
      <!-- 0.4 -->
      <g transform="translate(25.155 197.57879)scale(0.16 -0.16)">
       <use xlink:href="#DejaVuSans-48"/>
       <use x="63.623047" xlink:href="#DejaVuSans-46"/>
       <use x="95.410156" xlink:href="#DejaVuSans-52"/>
      </g>
     </g>
    </g>
    <g id="ytick_4">
     <g id="line2d_27">
      <path clip-path="url(#p08426f4216)" d="M 57.6 137.778059 
L 338.688 137.778059 
" style="fill:none;stroke:#b0b0b0;stroke-linecap:square;stroke-width:0.8;"/>
     </g>
     <g id="line2d_28">
      <g>
       <use style="stroke:#000000;stroke-width:0.8;" x="57.6" xlink:href="#m80051d9ed4" y="137.778059"/>
      </g>
     </g>
     <g id="text_9">
      <!-- 0.6 -->
      <g transform="translate(25.155 143.856809)scale(0.16 -0.16)">
       <use xlink:href="#DejaVuSans-48"/>
       <use x="63.623047" xlink:href="#DejaVuSans-46"/>
       <use x="95.410156" xlink:href="#DejaVuSans-54"/>
      </g>
     </g>
    </g>
    <g id="ytick_5">
     <g id="line2d_29">
      <path clip-path="url(#p08426f4216)" d="M 57.6 84.056079 
L 338.688 84.056079 
" style="fill:none;stroke:#b0b0b0;stroke-linecap:square;stroke-width:0.8;"/>
     </g>
     <g id="line2d_30">
      <g>
       <use style="stroke:#000000;stroke-width:0.8;" x="57.6" xlink:href="#m80051d9ed4" y="84.056079"/>
      </g>
     </g>
     <g id="text_10">
      <!-- 0.8 -->
      <g transform="translate(25.155 90.134829)scale(0.16 -0.16)">
       <defs>
        <path d="M 31.78125 34.625 
Q 24.75 34.625 20.71875 30.859375 
Q 16.703125 27.09375 16.703125 20.515625 
Q 16.703125 13.921875 20.71875 10.15625 
Q 24.75 6.390625 31.78125 6.390625 
Q 38.8125 6.390625 42.859375 10.171875 
Q 46.921875 13.96875 46.921875 20.515625 
Q 46.921875 27.09375 42.890625 30.859375 
Q 38.875 34.625 31.78125 34.625 
z
M 21.921875 38.8125 
Q 15.578125 40.375 12.03125 44.71875 
Q 8.5 49.078125 8.5 55.328125 
Q 8.5 64.0625 14.71875 69.140625 
Q 20.953125 74.21875 31.78125 74.21875 
Q 42.671875 74.21875 48.875 69.140625 
Q 55.078125 64.0625 55.078125 55.328125 
Q 55.078125 49.078125 51.53125 44.71875 
Q 48 40.375 41.703125 38.8125 
Q 48.828125 37.15625 52.796875 32.3125 
Q 56.78125 27.484375 56.78125 20.515625 
Q 56.78125 9.90625 50.3125 4.234375 
Q 43.84375 -1.421875 31.78125 -1.421875 
Q 19.734375 -1.421875 13.25 4.234375 
Q 6.78125 9.90625 6.78125 20.515625 
Q 6.78125 27.484375 10.78125 32.3125 
Q 14.796875 37.15625 21.921875 38.8125 
z
M 18.3125 54.390625 
Q 18.3125 48.734375 21.84375 45.5625 
Q 25.390625 42.390625 31.78125 42.390625 
Q 38.140625 42.390625 41.71875 45.5625 
Q 45.3125 48.734375 45.3125 54.390625 
Q 45.3125 60.0625 41.71875 63.234375 
Q 38.140625 66.40625 31.78125 66.40625 
Q 25.390625 66.40625 21.84375 63.234375 
Q 18.3125 60.0625 18.3125 54.390625 
z
" id="DejaVuSans-56"/>
       </defs>
       <use xlink:href="#DejaVuSans-48"/>
       <use x="63.623047" xlink:href="#DejaVuSans-46"/>
       <use x="95.410156" xlink:href="#DejaVuSans-56"/>
      </g>
     </g>
    </g>
    <g id="ytick_6">
     <g id="line2d_31">
      <path clip-path="url(#p08426f4216)" d="M 57.6 30.334099 
L 338.688 30.334099 
" style="fill:none;stroke:#b0b0b0;stroke-linecap:square;stroke-width:0.8;"/>
     </g>
     <g id="line2d_32">
      <g>
       <use style="stroke:#000000;stroke-width:0.8;" x="57.6" xlink:href="#m80051d9ed4" y="30.334099"/>
      </g>
     </g>
     <g id="text_11">
      <!-- 1.0 -->
      <g transform="translate(25.155 36.412849)scale(0.16 -0.16)">
       <use xlink:href="#DejaVuSans-49"/>
       <use x="63.623047" xlink:href="#DejaVuSans-46"/>
       <use x="95.410156" xlink:href="#DejaVuSans-48"/>
      </g>
     </g>
    </g>
    <g id="text_12">
     <!-- Fraction of function,target pairs -->
     <g transform="translate(17.619531 297.681)rotate(-90)scale(0.17 -0.17)">
      <defs>
       <path d="M 9.8125 72.90625 
L 51.703125 72.90625 
L 51.703125 64.59375 
L 19.671875 64.59375 
L 19.671875 43.109375 
L 48.578125 43.109375 
L 48.578125 34.8125 
L 19.671875 34.8125 
L 19.671875 0 
L 9.8125 0 
z
" id="DejaVuSans-70"/>
       <path d="M 41.109375 46.296875 
Q 39.59375 47.171875 37.8125 47.578125 
Q 36.03125 48 33.890625 48 
Q 26.265625 48 22.1875 43.046875 
Q 18.109375 38.09375 18.109375 28.8125 
L 18.109375 0 
L 9.078125 0 
L 9.078125 54.6875 
L 18.109375 54.6875 
L 18.109375 46.1875 
Q 20.953125 51.171875 25.484375 53.578125 
Q 30.03125 56 36.53125 56 
Q 37.453125 56 38.578125 55.875 
Q 39.703125 55.765625 41.0625 55.515625 
z
" id="DejaVuSans-114"/>
       <path d="M 48.78125 52.59375 
L 48.78125 44.1875 
Q 44.96875 46.296875 41.140625 47.34375 
Q 37.3125 48.390625 33.40625 48.390625 
Q 24.65625 48.390625 19.8125 42.84375 
Q 14.984375 37.3125 14.984375 27.296875 
Q 14.984375 17.28125 19.8125 11.734375 
Q 24.65625 6.203125 33.40625 6.203125 
Q 37.3125 6.203125 41.140625 7.25 
Q 44.96875 8.296875 48.78125 10.40625 
L 48.78125 2.09375 
Q 45.015625 0.34375 40.984375 -0.53125 
Q 36.96875 -1.421875 32.421875 -1.421875 
Q 20.0625 -1.421875 12.78125 6.34375 
Q 5.515625 14.109375 5.515625 27.296875 
Q 5.515625 40.671875 12.859375 48.328125 
Q 20.21875 56 33.015625 56 
Q 37.15625 56 41.109375 55.140625 
Q 45.0625 54.296875 48.78125 52.59375 
z
" id="DejaVuSans-99"/>
       <path d="M 18.3125 70.21875 
L 18.3125 54.6875 
L 36.8125 54.6875 
L 36.8125 47.703125 
L 18.3125 47.703125 
L 18.3125 18.015625 
Q 18.3125 11.328125 20.140625 9.421875 
Q 21.96875 7.515625 27.59375 7.515625 
L 36.8125 7.515625 
L 36.8125 0 
L 27.59375 0 
Q 17.1875 0 13.234375 3.875 
Q 9.28125 7.765625 9.28125 18.015625 
L 9.28125 47.703125 
L 2.6875 47.703125 
L 2.6875 54.6875 
L 9.28125 54.6875 
L 9.28125 70.21875 
z
" id="DejaVuSans-116"/>
       <path d="M 8.5 21.578125 
L 8.5 54.6875 
L 17.484375 54.6875 
L 17.484375 21.921875 
Q 17.484375 14.15625 20.5 10.265625 
Q 23.53125 6.390625 29.59375 6.390625 
Q 36.859375 6.390625 41.078125 11.03125 
Q 45.3125 15.671875 45.3125 23.6875 
L 45.3125 54.6875 
L 54.296875 54.6875 
L 54.296875 0 
L 45.3125 0 
L 45.3125 8.40625 
Q 42.046875 3.421875 37.71875 1 
Q 33.40625 -1.421875 27.6875 -1.421875 
Q 18.265625 -1.421875 13.375 4.4375 
Q 8.5 10.296875 8.5 21.578125 
z
M 31.109375 56 
z
" id="DejaVuSans-117"/>
       <path d="M 11.71875 12.40625 
L 22.015625 12.40625 
L 22.015625 4 
L 14.015625 -11.625 
L 7.71875 -11.625 
L 11.71875 4 
z
" id="DejaVuSans-44"/>
       <path d="M 18.109375 8.203125 
L 18.109375 -20.796875 
L 9.078125 -20.796875 
L 9.078125 54.6875 
L 18.109375 54.6875 
L 18.109375 46.390625 
Q 20.953125 51.265625 25.265625 53.625 
Q 29.59375 56 35.59375 56 
Q 45.5625 56 51.78125 48.09375 
Q 58.015625 40.1875 58.015625 27.296875 
Q 58.015625 14.40625 51.78125 6.484375 
Q 45.5625 -1.421875 35.59375 -1.421875 
Q 29.59375 -1.421875 25.265625 0.953125 
Q 20.953125 3.328125 18.109375 8.203125 
z
M 48.6875 27.296875 
Q 48.6875 37.203125 44.609375 42.84375 
Q 40.53125 48.484375 33.40625 48.484375 
Q 26.265625 48.484375 22.1875 42.84375 
Q 18.109375 37.203125 18.109375 27.296875 
Q 18.109375 17.390625 22.1875 11.75 
Q 26.265625 6.109375 33.40625 6.109375 
Q 40.53125 6.109375 44.609375 11.75 
Q 48.6875 17.390625 48.6875 27.296875 
z
" id="DejaVuSans-112"/>
      </defs>
      <use xlink:href="#DejaVuSans-70"/>
      <use x="50.269531" xlink:href="#DejaVuSans-114"/>
      <use x="91.382812" xlink:href="#DejaVuSans-97"/>
      <use x="152.662109" xlink:href="#DejaVuSans-99"/>
      <use x="207.642578" xlink:href="#DejaVuSans-116"/>
      <use x="246.851562" xlink:href="#DejaVuSans-105"/>
      <use x="274.634766" xlink:href="#DejaVuSans-111"/>
      <use x="335.816406" xlink:href="#DejaVuSans-110"/>
      <use x="399.195312" xlink:href="#DejaVuSans-32"/>
      <use x="430.982422" xlink:href="#DejaVuSans-111"/>
      <use x="492.164062" xlink:href="#DejaVuSans-102"/>
      <use x="527.369141" xlink:href="#DejaVuSans-32"/>
      <use x="559.15625" xlink:href="#DejaVuSans-102"/>
      <use x="594.361328" xlink:href="#DejaVuSans-117"/>
      <use x="657.740234" xlink:href="#DejaVuSans-110"/>
      <use x="721.119141" xlink:href="#DejaVuSans-99"/>
      <use x="776.099609" xlink:href="#DejaVuSans-116"/>
      <use x="815.308594" xlink:href="#DejaVuSans-105"/>
      <use x="843.091797" xlink:href="#DejaVuSans-111"/>
      <use x="904.273438" xlink:href="#DejaVuSans-110"/>
      <use x="967.652344" xlink:href="#DejaVuSans-44"/>
      <use x="999.439453" xlink:href="#DejaVuSans-116"/>
      <use x="1038.648438" xlink:href="#DejaVuSans-97"/>
      <use x="1099.927734" xlink:href="#DejaVuSans-114"/>
      <use x="1139.291016" xlink:href="#DejaVuSans-103"/>
      <use x="1202.767578" xlink:href="#DejaVuSans-101"/>
      <use x="1264.291016" xlink:href="#DejaVuSans-116"/>
      <use x="1303.5" xlink:href="#DejaVuSans-32"/>
      <use x="1335.287109" xlink:href="#DejaVuSans-112"/>
      <use x="1398.763672" xlink:href="#DejaVuSans-97"/>
      <use x="1460.042969" xlink:href="#DejaVuSans-105"/>
      <use x="1487.826172" xlink:href="#DejaVuSans-114"/>
      <use x="1528.939453" xlink:href="#DejaVuSans-115"/>
     </g>
    </g>
   </g>
   <g id="line2d_33">
    <defs>
     <path d="M 0 1.5 
C 0.397805 1.5 0.77937 1.341951 1.06066 1.06066 
C 1.341951 0.77937 1.5 0.397805 1.5 0 
C 1.5 -0.397805 1.341951 -0.77937 1.06066 -1.06066 
C 0.77937 -1.341951 0.397805 -1.5 0 -1.5 
C -0.397805 -1.5 -0.77937 -1.341951 -1.06066 -1.06066 
C -1.341951 -0.77937 -1.5 -0.397805 -1.5 0 
C -1.5 0.397805 -1.341951 0.77937 -1.06066 1.06066 
C -0.77937 1.341951 -0.397805 1.5 0 1.5 
z
" id="mcd3fce24bf" style="stroke:#f5deb3;"/>
    </defs>
    <g>
     <use style="fill:#f5deb3;stroke:#f5deb3;" x="233.419363" xlink:href="#mcd3fce24bf" y="62.752535"/>
     <use style="fill:#f5deb3;stroke:#f5deb3;" x="233.419363" xlink:href="#mcd3fce24bf" y="62.752535"/>
    </g>
   </g>
   <g id="line2d_34">
    <defs>
     <path d="M 0 1.5 
C 0.397805 1.5 0.77937 1.341951 1.06066 1.06066 
C 1.341951 0.77937 1.5 0.397805 1.5 0 
C 1.5 -0.397805 1.341951 -0.77937 1.06066 -1.06066 
C 0.77937 -1.341951 0.397805 -1.5 0 -1.5 
C -0.397805 -1.5 -0.77937 -1.341951 -1.06066 -1.06066 
C -1.341951 -0.77937 -1.5 -0.397805 -1.5 0 
C -1.5 0.397805 -1.341951 0.77937 -1.06066 1.06066 
C -0.77937 1.341951 -0.397805 1.5 0 1.5 
z
" id="mb200494128" style="stroke:#000080;"/>
    </defs>
    <g>
     <use style="fill:#000080;stroke:#000080;" x="254.677614" xlink:href="#mb200494128" y="66.457499"/>
     <use style="fill:#000080;stroke:#000080;" x="254.677614" xlink:href="#mb200494128" y="66.457499"/>
    </g>
   </g>
   <g id="line2d_35">
    <path d="M 38.440992 298.944 
L 38.440992 290.14471 
L 50.52898 290.14471 
L 50.52898 287.829108 
L 62.616969 287.829108 
L 62.616969 285.513505 
L 66.508432 285.513505 
L 66.508432 284.124143 
L 69.687988 284.124143 
L 69.687988 281.808541 
L 72.376266 281.808541 
L 72.376266 279.956059 
L 76.759008 279.956059 
L 76.759008 277.177336 
L 83.171864 277.177336 
L 83.171864 276.714215 
L 84.464254 276.714215 
L 84.464254 275.787974 
L 86.792945 275.787974 
L 86.792945 273.472371 
L 92.34655 273.472371 
L 92.34655 271.156769 
L 94.575872 271.156769 
L 94.575872 269.304287 
L 95.259853 269.304287 
L 95.259853 268.841166 
L 97.755429 268.841166 
L 97.755429 266.988684 
L 98.32726 266.988684 
L 98.32726 266.062443 
L 99.41757 266.062443 
L 99.41757 265.136202 
L 101.877879 265.136202 
L 101.877879 261.894358 
L 103.203018 261.894358 
L 103.203018 260.968117 
L 104.033617 260.968117 
L 104.033617 260.504997 
L 107.009204 260.504997 
L 107.009204 260.041876 
L 108.326001 260.041876 
L 108.326001 259.578756 
L 108.640231 259.578756 
L 108.640231 259.115635 
L 111.239304 259.115635 
L 111.239304 258.189394 
L 111.505558 258.189394 
L 111.505558 257.726274 
L 113.022974 257.726274 
L 113.022974 256.336912 
L 116.522527 256.336912 
L 116.522527 254.947551 
L 118.751849 254.947551 
L 118.751849 254.02131 
L 119.097192 254.02131 
L 119.097192 253.558189 
L 119.267333 253.558189 
L 119.267333 252.631948 
L 120.093994 252.631948 
L 120.093994 251.705707 
L 120.254726 251.705707 
L 120.254726 251.242587 
L 120.41399 251.242587 
L 120.41399 249.853225 
L 124.867052 249.853225 
L 124.867052 249.390104 
L 125.351508 249.390104 
L 125.351508 248.463863 
L 125.588781 248.463863 
L 125.588781 248.000743 
L 127.48501 248.000743 
L 127.48501 247.537622 
L 128.107907 247.537622 
L 128.107907 246.611381 
L 128.610515 246.611381 
L 128.610515 246.148261 
L 129.099042 246.148261 
L 129.099042 245.22202 
L 129.853291 245.22202 
L 129.853291 244.758899 
L 132.73818 244.758899 
L 132.73818 244.295779 
L 133.201197 244.295779 
L 133.201197 243.832658 
L 133.946579 243.832658 
L 133.946579 243.369538 
L 135.943785 243.369538 
L 136.008736 241.980176 
L 136.073445 241.980176 
L 136.137916 240.127694 
L 138.084384 240.127694 
L 138.084384 239.664574 
L 139.572998 239.664574 
L 139.572998 238.738333 
L 139.730821 238.738333 
L 139.730821 237.812091 
L 140.144829 237.812091 
L 140.144829 236.42273 
L 142.441528 236.42273 
L 142.441528 235.033368 
L 142.796538 235.033368 
L 142.796538 234.107127 
L 143.527762 234.107127 
L 143.569835 232.717766 
L 144.550287 232.717766 
L 144.550287 231.791525 
L 145.365173 231.791525 
L 145.365173 230.865284 
L 146.179895 230.865284 
L 146.179895 229.475922 
L 146.573414 229.475922 
L 146.573414 228.549681 
L 148.417899 228.549681 
L 148.417899 228.086561 
L 151.178764 228.086561 
L 151.260066 225.307837 
L 151.818809 225.307837 
L 151.818809 224.844717 
L 152.104493 224.844717 
L 152.181601 223.455355 
L 152.25837 223.455355 
L 152.25837 222.992235 
L 153.750233 222.992235 
L 153.750233 222.065994 
L 154.394502 222.065994 
L 154.394502 221.139753 
L 155.825108 221.139753 
L 155.825108 220.676632 
L 157.089232 220.676632 
L 157.108577 219.287271 
L 157.660438 219.287271 
L 157.697862 217.434789 
L 157.994392 217.434789 
L 157.994392 216.508548 
L 158.994256 216.508548 
L 158.994256 215.582307 
L 159.371893 215.582307 
L 159.405822 213.729825 
L 160.200913 213.729825 
L 160.200913 211.877342 
L 160.94582 211.877342 
L 160.94582 210.951101 
L 161.555647 210.951101 
L 161.555647 210.02486 
L 162.389382 210.02486 
L 162.389382 209.098619 
L 162.616422 209.098619 
L 162.616422 208.635499 
L 163.388564 208.635499 
L 163.388564 207.709258 
L 163.709295 207.709258 
L 163.709295 206.319896 
L 163.919885 206.319896 
L 163.919885 205.856776 
L 166.972515 205.856776 
L 166.972515 205.393655 
L 168.576655 205.393655 
L 168.576655 204.930535 
L 169.109344 204.930535 
L 169.206229 203.078053 
L 169.512694 203.078053 
L 169.512694 202.614932 
L 170.392016 202.614932 
L 170.392016 202.151812 
L 171.160157 202.151812 
L 171.160157 201.225571 
L 171.451389 201.225571 
L 171.451389 200.76245 
L 171.986738 200.76245 
L 171.986738 199.836209 
L 172.417962 199.836209 
L 172.506141 197.983727 
L 172.554051 197.983727 
L 172.554051 197.520606 
L 172.696997 197.520606 
L 172.696997 196.594365 
L 172.846623 196.594365 
L 172.846623 196.131245 
L 173.072554 196.131245 
L 173.072554 195.668124 
L 173.295595 195.668124 
L 173.295595 194.741883 
L 173.800244 194.741883 
L 173.800244 193.815642 
L 174.619617 193.815642 
L 174.619617 192.889401 
L 175.060255 192.889401 
L 175.060255 192.426281 
L 175.273058 192.426281 
L 175.273058 191.96316 
L 175.869961 191.96316 
L 175.869961 191.50004 
L 176.794453 191.50004 
L 176.794453 191.036919 
L 177.719896 191.036919 
L 177.719896 190.573799 
L 179.733711 190.573799 
L 179.733711 189.647558 
L 180.559149 189.647558 
L 180.639584 188.258196 
L 180.719649 188.258196 
L 180.724641 187.331955 
L 180.839063 187.331955 
L 180.839063 186.868834 
L 182.26658 186.868834 
L 182.26658 186.405714 
L 182.739829 186.405714 
L 182.739829 185.479473 
L 183.783996 185.479473 
L 183.783996 185.016352 
L 184.021099 185.016352 
L 184.021099 184.090111 
L 184.445572 184.090111 
L 184.445572 183.626991 
L 185.310832 183.626991 
L 185.310832 183.16387 
L 185.543334 183.16387 
L 185.543334 182.237629 
L 186.890807 182.237629 
L 186.890807 181.774509 
L 187.013042 181.774509 
L 187.013042 181.311388 
L 187.574653 181.311388 
L 187.574653 180.848268 
L 187.745678 180.848268 
L 187.745678 179.922027 
L 187.858769 179.922027 
L 187.858769 179.458906 
L 188.004042 179.458906 
L 188.004042 178.532665 
L 188.229447 178.532665 
L 188.229447 178.069545 
L 188.841751 178.069545 
L 188.841751 177.143304 
L 189.378671 177.143304 
L 189.378671 176.680183 
L 189.548015 176.680183 
L 189.626084 175.753942 
L 189.793054 175.753942 
L 189.793054 174.827701 
L 190.29035 174.827701 
L 190.29035 174.36458 
L 190.468244 174.36458 
L 190.559356 172.512098 
L 191.222463 172.512098 
L 191.222463 172.048978 
L 191.808486 172.048978 
L 191.808486 171.122737 
L 192.280517 171.122737 
L 192.280517 170.659616 
L 192.634535 170.659616 
L 192.677344 169.733375 
L 193.295034 169.733375 
L 193.295034 169.270255 
L 193.672049 169.270255 
L 193.745538 168.344014 
L 194.050387 168.344014 
L 194.050387 167.880893 
L 194.36142 167.880893 
L 194.36142 166.954652 
L 195.110098 166.954652 
L 195.110098 166.491532 
L 195.456643 166.491532 
L 195.544347 163.712808 
L 196.763885 163.712808 
L 196.763885 163.249688 
L 196.882857 163.249688 
L 196.882857 162.786567 
L 197.789623 162.786567 
L 197.789623 161.860326 
L 198.294394 161.860326 
L 198.374399 160.470965 
L 198.662272 160.470965 
L 198.662272 160.007844 
L 198.917356 160.007844 
L 198.917356 159.544724 
L 199.085362 159.544724 
L 199.085362 159.081603 
L 199.306882 159.081603 
L 199.306882 158.618483 
L 199.593422 158.618483 
L 199.593422 158.155362 
L 199.953387 158.155362 
L 199.960014 157.229121 
L 200.307696 157.229121 
L 200.38223 156.30288 
L 201.141542 156.30288 
L 201.20952 154.450398 
L 201.581751 154.450398 
L 201.660062 151.671675 
L 201.730542 151.671675 
L 201.821593 150.282313 
L 202.181118 150.282313 
L 202.181118 149.819193 
L 202.549095 149.819193 
L 202.650184 148.429831 
L 202.704048 148.429831 
L 202.704048 147.966711 
L 203.142884 147.966711 
L 203.142884 147.50359 
L 203.484546 147.50359 
L 203.504835 146.114229 
L 203.687714 146.114229 
L 203.687714 145.651108 
L 203.84485 145.651108 
L 203.84485 145.187988 
L 204.162749 145.187988 
L 204.256222 144.261747 
L 204.762817 144.261747 
L 204.762817 143.798626 
L 205.330753 143.798626 
L 205.419397 142.872385 
L 205.49192 142.872385 
L 205.49192 142.409265 
L 205.771912 142.409265 
L 205.771912 141.946144 
L 205.906707 141.946144 
L 205.918481 141.019903 
L 206.498436 141.019903 
L 206.498436 140.556783 
L 206.930251 140.556783 
L 206.930251 139.630541 
L 207.06303 139.630541 
L 207.06303 139.167421 
L 207.273395 139.167421 
L 207.273395 138.24118 
L 207.396028 138.24118 
L 207.409 137.314939 
L 208.025811 137.314939 
L 208.025811 136.851818 
L 208.313403 136.851818 
L 208.313403 135.925577 
L 208.460528 135.925577 
L 208.501177 134.999336 
L 208.797072 134.999336 
L 208.902536 133.609975 
L 209.290015 133.609975 
L 209.392548 132.683734 
L 209.638668 132.683734 
L 209.716471 131.294372 
L 209.986081 131.294372 
L 210.047497 129.905011 
L 210.160457 129.905011 
L 210.192729 128.052529 
L 211.066784 128.052529 
L 211.162026 125.736926 
L 211.203803 125.736926 
L 211.203803 124.810685 
L 211.466092 124.810685 
L 211.466092 123.884444 
L 211.831321 123.884444 
L 211.831321 123.421323 
L 212.321646 123.421323 
L 212.321646 122.958203 
L 212.458088 122.958203 
L 212.483956 122.031962 
L 212.642368 122.031962 
L 212.642368 121.568841 
L 212.917946 121.568841 
L 212.917946 121.105721 
L 213.129401 121.105721 
L 213.187686 119.716359 
L 213.591075 119.716359 
L 213.65615 118.790118 
L 213.899157 118.790118 
L 213.899157 118.326998 
L 214.034191 118.326998 
L 214.056349 116.937636 
L 214.706201 116.937636 
L 214.706201 116.474516 
L 214.847146 116.474516 
L 214.944924 114.622033 
L 215.278422 114.622033 
L 215.278422 113.695792 
L 215.56509 113.695792 
L 215.621862 112.769551 
L 215.993713 112.769551 
L 216.045159 111.38019 
L 216.35586 111.38019 
L 216.35586 110.917069 
L 216.472567 110.917069 
L 216.472567 110.453949 
L 216.635038 110.453949 
L 216.635038 109.990828 
L 216.846403 109.990828 
L 216.9236 108.601467 
L 217.607629 108.601467 
L 217.607629 107.675226 
L 217.938066 107.675226 
L 218.000583 104.896503 
L 218.122611 104.896503 
L 218.122611 104.433382 
L 218.3399 104.433382 
L 218.3399 103.507141 
L 219.104108 103.507141 
L 219.160936 102.117779 
L 219.273492 102.117779 
L 219.273492 101.191538 
L 220.090837 101.191538 
L 220.168995 99.802177 
L 220.929911 99.802177 
L 220.962231 98.412815 
L 221.275352 98.412815 
L 221.275352 97.486574 
L 221.908758 97.486574 
L 221.94636 96.097213 
L 222.081991 96.097213 
L 222.173066 94.244731 
L 222.251675 94.244731 
L 222.251675 93.31849 
L 222.563524 93.31849 
L 222.563524 92.855369 
L 223.116618 92.855369 
L 223.116618 92.392249 
L 223.261775 92.392249 
L 223.261775 91.929128 
L 223.512069 91.929128 
L 223.512069 91.466008 
L 223.828506 91.466008 
L 223.828506 90.539766 
L 223.940262 90.539766 
L 224.02632 89.613525 
L 224.380258 89.613525 
L 224.484079 88.224164 
L 224.542436 88.224164 
L 224.542436 87.761043 
L 225.197138 87.761043 
L 225.197138 87.297923 
L 226.149504 87.297923 
L 226.149504 86.834802 
L 226.272303 86.834802 
L 226.272303 86.371682 
L 227.351952 86.371682 
L 227.351952 85.908561 
L 227.50692 85.908561 
L 227.50692 84.98232 
L 227.719632 84.98232 
L 227.719632 84.056079 
L 227.85466 84.056079 
L 227.85466 83.592959 
L 228.600995 83.592959 
L 228.600995 82.666718 
L 229.6685 82.666718 
L 229.6685 82.203597 
L 229.949966 82.203597 
L 229.949966 81.277356 
L 230.690061 81.277356 
L 230.690061 80.351115 
L 231.243966 80.351115 
L 231.243966 79.887995 
L 232.61258 79.887995 
L 232.61258 79.424874 
L 233.16978 79.424874 
L 233.16978 78.961753 
L 234.021902 78.961753 
L 234.021902 78.035512 
L 234.20907 78.035512 
L 234.20907 77.109271 
L 234.574754 77.109271 
L 234.574754 76.646151 
L 236.686368 76.646151 
L 236.686368 76.18303 
L 238.455471 76.18303 
L 238.455471 75.256789 
L 238.795917 75.256789 
L 238.795917 74.330548 
L 239.581421 74.330548 
L 239.581421 73.404307 
L 240.293758 73.404307 
L 240.293758 72.478066 
L 240.803214 72.478066 
L 240.803214 72.014946 
L 242.130579 72.014946 
L 242.130579 71.551825 
L 242.601983 71.551825 
L 242.601983 71.088705 
L 245.140071 71.088705 
L 245.140071 70.162464 
L 245.285129 70.162464 
L 245.285129 69.699343 
L 246.95703 69.699343 
L 246.95703 68.773102 
L 247.483301 68.773102 
L 247.483301 68.309982 
L 248.348579 68.309982 
L 248.348579 67.846861 
L 250.336454 67.846861 
L 250.336454 66.92062 
L 254.677614 66.92062 
L 254.677614 66.457499 
L 338.688 66.457499 
L 338.688 66.457499 
" style="fill:none;stroke:#000080;stroke-linecap:square;stroke-width:1.5;"/>
   </g>
   <g id="line2d_36">
    <defs>
     <path d="M 0 6 
C 1.591219 6 3.117479 5.367802 4.242641 4.242641 
C 5.367802 3.117479 6 1.591219 6 0 
C 6 -1.591219 5.367802 -3.117479 4.242641 -4.242641 
C 3.117479 -5.367802 1.591219 -6 0 -6 
C -1.591219 -6 -3.117479 -5.367802 -4.242641 -4.242641 
C -5.367802 -3.117479 -6 -1.591219 -6 0 
C -6 1.591219 -5.367802 3.117479 -4.242641 4.242641 
C -3.117479 5.367802 -1.591219 6 0 6 
z
" id="m0620792638" style="stroke:#000080;stroke-width:1.5;"/>
    </defs>
    <g>
     <use style="fill-opacity:0;stroke:#000080;stroke-width:1.5;" x="86.792945" xlink:href="#m0620792638" y="275.787974"/>
     <use style="fill-opacity:0;stroke:#000080;stroke-width:1.5;" x="160.200913" xlink:href="#m0620792638" y="211.877342"/>
     <use style="fill-opacity:0;stroke:#000080;stroke-width:1.5;" x="213.129401" xlink:href="#m0620792638" y="121.105721"/>
     <use style="fill-opacity:0;stroke:#000080;stroke-width:1.5;" x="254.677614" xlink:href="#m0620792638" y="66.92062"/>
     <use style="fill-opacity:0;stroke:#000080;stroke-width:1.5;" x="254.677614" xlink:href="#m0620792638" y="66.457499"/>
     <use style="fill-opacity:0;stroke:#000080;stroke-width:1.5;" x="338.688" xlink:href="#m0620792638" y="66.457499"/>
    </g>
   </g>
   <g id="line2d_37">
    <path style="fill:none;stroke:#000080;stroke-linecap:square;stroke-width:1.5;"/>
    <g/>
   </g>
   <g id="line2d_38">
    <path clip-path="url(#p08426f4216)" d="M 258.377608 66.457499 
" style="fill:none;stroke:#000080;stroke-linecap:square;stroke-width:1.5;"/>
    <defs>
     <path d="M -12 12 
L 12 -12 
M -12 -12 
L 12 12 
" id="mf4e44b7052" style="stroke:#000080;"/>
    </defs>
    <g clip-path="url(#p08426f4216)">
     <use style="fill:#000080;stroke:#000080;" x="258.377608" xlink:href="#mf4e44b7052" y="66.457499"/>
    </g>
   </g>
   <g id="line2d_39">
    <defs>
     <path d="M 0 1.5 
C 0.397805 1.5 0.77937 1.341951 1.06066 1.06066 
C 1.341951 0.77937 1.5 0.397805 1.5 0 
C 1.5 -0.397805 1.341951 -0.77937 1.06066 -1.06066 
C 0.77937 -1.341951 0.397805 -1.5 0 -1.5 
C -0.397805 -1.5 -0.77937 -1.341951 -1.06066 -1.06066 
C -1.341951 -0.77937 -1.5 -0.397805 -1.5 0 
C -1.5 0.397805 -1.341951 0.77937 -1.06066 1.06066 
C -0.77937 1.341951 -0.397805 1.5 0 1.5 
z
" id="ma51bfa6c23" style="stroke:#ff00ff;"/>
    </defs>
    <g>
     <use style="fill:#ff00ff;stroke:#ff00ff;" x="257.13149" xlink:href="#ma51bfa6c23" y="106.285864"/>
     <use style="fill:#ff00ff;stroke:#ff00ff;" x="257.13149" xlink:href="#ma51bfa6c23" y="106.285864"/>
    </g>
   </g>
   <g id="line2d_40">
    <path d="M 38.440992 298.944 
L 38.440992 292.923433 
L 134.307653 292.923433 
L 134.307653 291.534072 
L 137.852629 291.534072 
L 137.852629 290.607831 
L 138.981779 290.607831 
L 138.981779 290.14471 
L 139.466984 290.14471 
L 139.466984 288.292228 
L 140.89556 288.292228 
L 140.89556 283.197902 
L 141.615302 283.197902 
L 141.615302 281.34542 
L 142.53096 281.34542 
L 142.53096 280.8823 
L 143.695448 280.8823 
L 143.695448 280.419179 
L 144.981877 280.419179 
L 144.981877 279.956059 
L 145.440832 279.956059 
L 145.440832 279.029818 
L 146.749392 279.029818 
L 146.749392 277.640456 
L 147.300877 277.640456 
L 147.368603 274.398612 
L 147.4697 274.398612 
L 147.4697 273.009251 
L 147.603592 273.009251 
L 147.70334 272.08301 
L 147.736463 272.08301 
L 147.736463 271.619889 
L 148.322166 271.619889 
L 148.417899 269.767407 
L 148.826773 269.767407 
L 148.919783 268.378046 
L 149.012299 268.378046 
L 149.012299 267.451805 
L 149.226281 267.451805 
L 149.226281 266.062443 
L 149.467659 266.062443 
L 149.467659 265.599323 
L 150.085825 265.599323 
L 150.085825 265.136202 
L 150.229833 265.136202 
L 150.229833 264.673082 
L 150.372662 264.673082 
L 150.457801 262.8206 
L 150.598782 262.8206 
L 150.598782 262.357479 
L 151.178764 262.357479 
L 151.178764 259.115635 
L 151.367883 259.115635 
L 151.394733 257.726274 
L 151.76636 257.726274 
L 151.871101 256.336912 
L 151.897188 256.336912 
L 151.897188 255.873792 
L 152.078714 255.873792 
L 152.155936 252.631948 
L 152.385571 252.631948 
L 152.385571 251.705707 
L 152.786492 251.705707 
L 152.860649 250.316346 
L 152.909913 250.316346 
L 152.983548 247.074502 
L 153.154164 247.074502 
L 153.250915 243.832658 
L 153.466662 243.832658 
L 153.466662 241.517056 
L 153.632638 241.517056 
L 153.726778 238.738333 
L 154.029268 238.738333 
L 154.121296 237.348971 
L 154.371897 237.348971 
L 154.371897 235.959609 
L 154.484627 235.959609 
L 154.484627 235.033368 
L 154.618949 235.033368 
L 154.663493 233.644007 
L 155.059358 233.644007 
L 155.059358 231.791525 
L 155.275461 231.791525 
L 155.275461 230.402163 
L 155.46769 230.402163 
L 155.46769 229.475922 
L 155.61575 229.475922 
L 155.61575 228.549681 
L 155.825108 228.549681 
L 155.928852 226.697199 
L 155.990803 226.697199 
L 156.052535 225.307837 
L 156.134506 225.307837 
L 156.134506 224.381596 
L 156.357959 224.381596 
L 156.357959 223.455355 
L 156.498681 223.455355 
L 156.498681 222.529114 
L 156.618401 222.529114 
L 156.618401 222.065994 
L 156.776762 222.065994 
L 156.835778 221.139753 
L 156.972711 221.139753 
L 156.972711 220.213512 
L 157.147202 220.213512 
L 157.166482 218.82415 
L 157.28172 218.82415 
L 157.358125 216.508548 
L 157.58535 216.508548 
L 157.604152 214.656066 
L 157.716543 214.656066 
L 157.809652 210.951101 
L 158.285965 210.951101 
L 158.285965 210.487981 
L 158.429943 210.487981 
L 158.465753 209.56174 
L 158.590511 209.56174 
L 158.590511 209.098619 
L 158.976895 209.098619 
L 159.063529 206.319896 
L 159.26971 206.319896 
L 159.371893 203.541173 
L 159.405822 203.541173 
L 159.422762 200.76245 
L 159.591258 200.76245 
L 159.591258 200.299329 
L 159.84099 200.299329 
L 159.84099 199.373088 
L 160.537682 199.373088 
L 160.537682 198.446847 
L 160.664283 198.446847 
L 160.664283 197.520606 
L 160.852479 197.520606 
L 160.852479 196.594365 
L 161.007772 196.594365 
L 161.054091 195.205004 
L 161.222884 195.205004 
L 161.222884 194.741883 
L 161.344625 194.741883 
L 161.344625 194.278763 
L 161.525657 194.278763 
L 161.615474 192.426281 
L 162.115875 192.426281 
L 162.188268 191.036919 
L 162.317821 191.036919 
L 162.403659 189.647558 
L 162.531628 189.647558 
L 162.588203 188.721316 
L 162.68677 188.721316 
L 162.68677 188.258196 
L 163.103002 188.258196 
L 163.144084 186.868834 
L 163.402046 186.868834 
L 163.402046 185.942593 
L 163.616356 185.942593 
L 163.616356 185.016352 
L 163.775378 185.016352 
L 163.828065 183.626991 
L 163.919885 183.626991 
L 163.972138 182.70075 
L 164.282408 182.70075 
L 164.282408 182.237629 
L 164.562052 182.237629 
L 164.562052 181.311388 
L 165.157053 181.311388 
L 165.157053 180.848268 
L 165.290595 180.848268 
L 165.290595 180.385147 
L 165.459092 180.385147 
L 165.518877 178.532665 
L 165.885039 178.532665 
L 165.885039 177.606424 
L 166.001534 177.606424 
L 166.001534 177.143304 
L 166.117256 177.143304 
L 166.117256 176.680183 
L 166.24367 176.680183 
L 166.24367 176.217062 
L 166.662278 176.217062 
L 166.662278 175.290821 
L 167.06015 175.290821 
L 167.06015 174.827701 
L 167.587512 174.827701 
L 167.587512 174.36458 
L 167.808732 174.36458 
L 167.808732 173.90146 
L 168.77585 173.90146 
L 168.884444 172.512098 
L 169.748427 172.512098 
L 169.832517 170.659616 
L 169.99949 170.659616 
L 170.091567 169.733375 
L 171.142873 169.733375 
L 171.142873 169.270255 
L 171.323504 169.270255 
L 171.323504 168.807134 
L 171.721118 168.807134 
L 171.721118 168.344014 
L 171.937241 168.344014 
L 171.937241 167.880893 
L 172.823083 167.880893 
L 172.823083 167.417773 
L 173.00275 167.417773 
L 173.00275 166.491532 
L 173.485609 166.491532 
L 173.485609 166.028411 
L 173.695995 166.028411 
L 173.695995 165.565291 
L 175.737594 165.565291 
L 175.737594 165.10217 
L 175.9292 165.10217 
L 175.9292 164.175929 
L 176.586878 164.175929 
L 176.586878 163.712808 
L 177.348323 163.712808 
L 177.348323 162.786567 
L 178.365977 162.786567 
L 178.365977 162.323447 
L 178.911614 162.323447 
L 178.911614 161.860326 
L 179.69669 161.860326 
L 179.69669 161.397206 
L 181.953098 161.397206 
L 181.994913 160.470965 
L 183.008979 160.470965 
L 183.008979 160.007844 
L 183.148529 160.007844 
L 183.148529 159.544724 
L 183.33001 159.544724 
L 183.33001 159.081603 
L 185.276265 159.081603 
L 185.276265 158.155362 
L 185.991862 158.155362 
L 185.991862 157.692242 
L 186.806491 157.692242 
L 186.806491 157.229121 
L 186.922321 157.229121 
L 187.030434 155.83976 
L 189.647043 155.83976 
L 189.647043 155.376639 
L 190.3623 155.376639 
L 190.3623 154.450398 
L 193.764452 154.450398 
L 193.764452 153.987278 
L 199.454151 153.987278 
L 199.454151 153.524157 
L 200.31419 153.524157 
L 200.31419 153.061037 
L 201.221851 153.061037 
L 201.221851 152.597916 
L 201.815637 152.597916 
L 201.815637 152.134795 
L 201.978692 152.134795 
L 201.978692 151.671675 
L 203.350047 151.671675 
L 203.350047 150.282313 
L 203.558822 150.282313 
L 203.558822 149.356072 
L 203.936083 149.356072 
L 203.936083 148.429831 
L 205.765976 148.429831 
L 205.765976 147.966711 
L 206.622099 147.966711 
L 206.622099 147.50359 
L 207.1477 147.50359 
L 207.1477 147.04047 
L 208.961951 147.04047 
L 208.961951 146.577349 
L 210.1272 146.577349 
L 210.1272 146.114229 
L 214.105735 146.114229 
L 214.105735 145.187988 
L 214.60421 145.187988 
L 214.60421 144.724867 
L 216.178341 144.724867 
L 216.178341 144.261747 
L 217.073872 144.261747 
L 217.095589 142.872385 
L 217.900803 142.872385 
L 217.900803 142.409265 
L 218.036459 142.409265 
L 218.036459 141.946144 
L 218.960944 141.946144 
L 218.960944 141.019903 
L 219.123991 141.019903 
L 219.123991 140.556783 
L 219.411952 140.556783 
L 219.411952 140.093662 
L 219.640124 140.093662 
L 219.640124 139.167421 
L 219.876455 139.167421 
L 219.876455 138.7043 
L 220.479706 138.7043 
L 220.479706 138.24118 
L 221.971696 138.24118 
L 221.971696 137.778059 
L 222.148485 137.778059 
L 222.148485 136.851818 
L 222.889921 136.851818 
L 222.889921 136.388698 
L 223.012694 136.388698 
L 223.012694 135.925577 
L 223.63226 135.925577 
L 223.63226 135.462457 
L 223.849147 135.462457 
L 223.849147 134.536216 
L 225.449754 134.536216 
L 225.493099 133.609975 
L 226.019887 133.609975 
L 226.019887 133.146854 
L 228.918029 133.146854 
L 228.918029 132.683734 
L 230.128266 132.683734 
L 230.128266 132.220613 
L 231.131756 132.220613 
L 231.131756 131.294372 
L 231.649695 131.294372 
L 231.649695 130.368131 
L 233.37846 130.368131 
L 233.37846 129.44189 
L 234.528491 129.44189 
L 234.528491 128.97877 
L 234.911286 128.97877 
L 234.911286 128.052529 
L 235.912912 128.052529 
L 235.912912 127.589408 
L 236.190404 127.589408 
L 236.190404 127.126287 
L 237.161358 127.126287 
L 237.161358 126.663167 
L 237.427359 126.663167 
L 237.505066 124.810685 
L 237.725686 124.810685 
L 237.725686 124.347564 
L 239.082278 124.347564 
L 239.082278 123.884444 
L 240.94942 123.884444 
L 240.94942 122.958203 
L 241.450623 122.958203 
L 241.450623 122.031962 
L 242.38228 122.031962 
L 242.38228 121.568841 
L 243.36347 121.568841 
L 243.36347 120.6426 
L 244.163105 120.6426 
L 244.163105 120.17948 
L 244.555295 120.17948 
L 244.555295 119.253239 
L 245.271454 119.253239 
L 245.299286 118.326998 
L 245.665553 118.326998 
L 245.665553 117.400757 
L 245.853114 117.400757 
L 245.853114 116.474516 
L 247.234544 116.474516 
L 247.234544 116.011395 
L 248.282645 116.011395 
L 248.282645 115.085154 
L 248.752768 115.085154 
L 248.752768 114.158913 
L 248.988091 114.158913 
L 248.988091 113.695792 
L 249.887135 113.695792 
L 249.887135 113.232672 
L 250.41656 113.232672 
L 250.41656 112.769551 
L 250.770531 112.769551 
L 250.770531 112.306431 
L 250.926911 112.306431 
L 250.926911 111.84331 
L 251.123452 111.84331 
L 251.123452 110.917069 
L 251.798141 110.917069 
L 251.864982 109.990828 
L 252.060974 109.990828 
L 252.060974 109.527708 
L 252.38109 109.527708 
L 252.38109 109.064587 
L 253.387049 109.064587 
L 253.387049 108.601467 
L 254.782871 108.601467 
L 254.782871 107.675226 
L 256.062065 107.675226 
L 256.062065 107.212105 
L 257.13149 107.212105 
L 257.13149 106.285864 
L 338.688 106.285864 
L 338.688 106.285864 
" style="fill:none;stroke:#ff00ff;stroke-linecap:square;stroke-width:1.5;"/>
   </g>
   <g id="line2d_41">
    <defs>
     <path d="M 0 8.485281 
L 5.091169 0 
L 0 -8.485281 
L -5.091169 0 
z
" id="mc472dde105" style="stroke:#ff00ff;stroke-linejoin:miter;stroke-width:1.5;"/>
    </defs>
    <g>
     <use style="fill-opacity:0;stroke:#ff00ff;stroke-linejoin:miter;stroke-width:1.5;" x="165.157053" xlink:href="#mc472dde105" y="180.848268"/>
     <use style="fill-opacity:0;stroke:#ff00ff;stroke-linejoin:miter;stroke-width:1.5;" x="243.36347" xlink:href="#mc472dde105" y="121.568841"/>
     <use style="fill-opacity:0;stroke:#ff00ff;stroke-linejoin:miter;stroke-width:1.5;" x="257.13149" xlink:href="#mc472dde105" y="106.285864"/>
     <use style="fill-opacity:0;stroke:#ff00ff;stroke-linejoin:miter;stroke-width:1.5;" x="257.13149" xlink:href="#mc472dde105" y="106.285864"/>
     <use style="fill-opacity:0;stroke:#ff00ff;stroke-linejoin:miter;stroke-width:1.5;" x="338.688" xlink:href="#mc472dde105" y="106.285864"/>
    </g>
   </g>
   <g id="line2d_42">
    <path style="fill:none;stroke:#ff00ff;stroke-linecap:square;stroke-width:1.5;"/>
    <g/>
   </g>
   <g id="line2d_43">
    <path clip-path="url(#p08426f4216)" d="M 258.383943 106.285864 
" style="fill:none;stroke:#ff00ff;stroke-linecap:square;stroke-width:1.5;"/>
    <defs>
     <path d="M -12 12 
L 12 -12 
M -12 -12 
L 12 12 
" id="me428319f0c" style="stroke:#ff00ff;"/>
    </defs>
    <g clip-path="url(#p08426f4216)">
     <use style="fill:#ff00ff;stroke:#ff00ff;" x="258.383943" xlink:href="#me428319f0c" y="106.285864"/>
    </g>
   </g>
   <g id="line2d_44">
    <defs>
     <path d="M 0 1.5 
C 0.397805 1.5 0.77937 1.341951 1.06066 1.06066 
C 1.341951 0.77937 1.5 0.397805 1.5 0 
C 1.5 -0.397805 1.341951 -0.77937 1.06066 -1.06066 
C 0.77937 -1.341951 0.397805 -1.5 0 -1.5 
C -0.397805 -1.5 -0.77937 -1.341951 -1.06066 -1.06066 
C -1.341951 -0.77937 -1.5 -0.397805 -1.5 0 
C -1.5 0.397805 -1.341951 0.77937 -1.06066 1.06066 
C -0.77937 1.341951 -0.397805 1.5 0 1.5 
z
" id="maccb44d24c" style="stroke:#ff7500;"/>
    </defs>
    <g>
     <use style="fill:#ff7500;stroke:#ff7500;" x="243.52197" xlink:href="#maccb44d24c" y="161.397206"/>
     <use style="fill:#ff7500;stroke:#ff7500;" x="243.52197" xlink:href="#maccb44d24c" y="161.397206"/>
    </g>
   </g>
   <g id="line2d_45">
    <path d="M 141.521035 298.944 
L 141.521035 298.017759 
L 144.390658 298.017759 
L 144.390658 293.849674 
L 149.134896 293.849674 
L 149.134896 292.923433 
L 151.340991 292.923433 
L 151.367883 291.534072 
L 151.792604 291.534072 
L 151.792604 291.070951 
L 153.250915 291.070951 
L 153.250915 290.607831 
L 155.0376 290.607831 
L 155.12447 287.829108 
L 155.318362 287.829108 
L 155.339773 281.34542 
L 155.720743 281.34542 
L 155.720743 279.029818 
L 155.970177 279.029818 
L 156.073064 275.324854 
L 156.216093 275.324854 
L 156.216093 274.861733 
L 156.378132 274.861733 
L 156.378132 271.156769 
L 156.677955 271.156769 
L 156.697761 268.378046 
L 157.358125 268.378046 
L 157.358125 266.062443 
L 157.67916 266.062443 
L 157.67916 265.599323 
L 158.714382 265.599323 
L 158.714382 265.136202 
L 158.942121 265.136202 
L 158.942121 264.673082 
L 159.080804 264.673082 
L 159.080804 263.746841 
L 159.286782 263.746841 
L 159.354904 262.357479 
L 159.791329 262.357479 
L 159.791329 260.504997 
L 160.410154 260.504997 
L 160.410154 260.041876 
L 160.711523 260.041876 
L 160.711523 259.578756 
L 160.883648 259.578756 
L 160.992304 258.189394 
L 161.299072 258.189394 
L 161.344625 255.410671 
L 161.480575 255.410671 
L 161.480575 254.947551 
L 161.600536 254.947551 
L 161.600536 254.02131 
L 161.852746 254.02131 
L 161.852746 252.631948 
L 162.043181 252.631948 
L 162.130378 251.242587 
L 162.503271 251.242587 
L 162.503271 250.779466 
L 162.616422 250.779466 
L 162.616422 250.316346 
L 163.089286 250.316346 
L 163.157756 249.390104 
L 163.469301 249.390104 
L 163.469301 247.537622 
L 163.603039 247.537622 
L 163.603039 246.611381 
L 163.722532 246.611381 
L 163.722532 245.68514 
L 163.8937 245.68514 
L 163.8937 245.22202 
L 164.011225 245.22202 
L 164.063205 243.369538 
L 164.346358 243.369538 
L 164.435497 241.053935 
L 164.624987 241.053935 
L 164.624987 240.127694 
L 164.874481 240.127694 
L 164.874481 239.201453 
L 165.047026 239.201453 
L 165.108238 237.812091 
L 165.314766 237.812091 
L 165.314766 237.348971 
L 165.943384 237.348971 
L 166.036331 235.033368 
L 166.117256 235.033368 
L 166.220754 232.717766 
L 166.369174 232.717766 
L 166.391896 230.865284 
L 166.527611 230.865284 
L 166.617505 229.012802 
L 166.807003 229.012802 
L 166.895472 227.62344 
L 167.114699 227.62344 
L 167.114699 227.16032 
L 167.331204 227.16032 
L 167.40635 224.381596 
L 167.534424 224.381596 
L 167.534424 223.455355 
L 167.860992 223.455355 
L 167.860992 222.529114 
L 168.027181 222.529114 
L 168.027181 221.602873 
L 168.212269 221.602873 
L 168.314254 219.287271 
L 168.726264 219.287271 
L 168.805533 214.192945 
L 168.9532 214.192945 
L 168.9532 213.266704 
L 169.254471 213.266704 
L 169.292968 211.877342 
L 169.446113 211.877342 
L 169.446113 211.414222 
L 169.60737 211.414222 
L 169.710923 208.635499 
L 169.748427 208.635499 
L 169.832517 206.783017 
L 169.906925 206.783017 
L 169.906925 205.856776 
L 170.054794 205.856776 
L 170.054794 204.004294 
L 170.192293 204.004294 
L 170.192293 203.541173 
L 170.319654 203.541173 
L 170.373953 202.151812 
L 170.43709 202.151812 
L 170.446091 200.299329 
L 170.749391 200.299329 
L 170.749391 199.836209 
L 170.925369 199.836209 
L 170.925369 199.373088 
L 171.064884 199.373088 
L 171.108254 197.983727 
L 171.263501 197.983727 
L 171.289242 196.594365 
L 171.476854 196.594365 
L 171.553027 194.741883 
L 171.66247 194.741883 
L 171.687629 193.352522 
L 171.837825 193.352522 
L 171.937241 192.426281 
L 172.036094 192.426281 
L 172.036094 191.50004 
L 172.175184 191.50004 
L 172.264595 190.110678 
L 172.288901 190.110678 
L 172.361615 188.258196 
L 172.577957 188.258196 
L 172.60978 186.868834 
L 172.791647 186.868834 
L 172.83878 184.553232 
L 173.00275 184.553232 
L 173.09576 183.16387 
L 173.118935 183.16387 
L 173.118935 182.70075 
L 173.508272 182.70075 
L 173.508272 181.774509 
L 173.658612 181.774509 
L 173.763084 180.848268 
L 174.028886 180.848268 
L 174.065485 179.922027 
L 174.384284 179.922027 
L 174.384284 179.458906 
L 174.527289 179.458906 
L 174.527289 178.532665 
L 174.732584 178.532665 
L 174.830834 176.217062 
L 174.963293 176.217062 
L 175.039523 174.827701 
L 175.122305 174.827701 
L 175.129186 173.438339 
L 175.55729 173.438339 
L 175.55729 172.975219 
L 175.691027 172.975219 
L 175.737594 171.585857 
L 175.916053 171.585857 
L 175.955464 169.733375 
L 176.177125 169.733375 
L 176.177125 168.807134 
L 176.421575 168.807134 
L 176.485339 167.417773 
L 176.999587 167.417773 
L 176.999587 166.954652 
L 178.002224 166.954652 
L 178.002224 166.491532 
L 178.337383 166.491532 
L 178.337383 166.028411 
L 178.502578 166.028411 
L 178.502578 165.565291 
L 178.699888 165.565291 
L 178.699888 165.10217 
L 179.164521 165.10217 
L 179.164521 164.63905 
L 179.917643 164.63905 
L 179.917643 163.712808 
L 180.386982 163.712808 
L 180.386982 162.786567 
L 191.542111 162.786567 
L 191.542111 162.323447 
L 202.910866 162.323447 
L 202.910866 161.860326 
L 243.52197 161.860326 
L 243.52197 161.397206 
L 338.688 161.397206 
L 338.688 161.397206 
" style="fill:none;stroke:#ff7500;stroke-linecap:square;stroke-width:1.5;"/>
   </g>
   <g id="line2d_46">
    <defs>
     <path d="M 0 -6 
L -1.347084 -1.854102 
L -5.706339 -1.854102 
L -2.179628 0.708204 
L -3.526712 4.854102 
L -0 2.291796 
L 3.526712 4.854102 
L 2.179628 0.708204 
L 5.706339 -1.854102 
L 1.347084 -1.854102 
z
" id="m2c613b5e5d" style="stroke:#ff7500;stroke-linejoin:bevel;stroke-width:1.5;"/>
    </defs>
    <g>
     <use style="fill-opacity:0;stroke:#ff7500;stroke-linejoin:bevel;stroke-width:1.5;" x="169.60737" xlink:href="#m2c613b5e5d" y="211.414222"/>
     <use style="fill-opacity:0;stroke:#ff7500;stroke-linejoin:bevel;stroke-width:1.5;" x="243.52197" xlink:href="#m2c613b5e5d" y="161.860326"/>
     <use style="fill-opacity:0;stroke:#ff7500;stroke-linejoin:bevel;stroke-width:1.5;" x="243.52197" xlink:href="#m2c613b5e5d" y="161.397206"/>
     <use style="fill-opacity:0;stroke:#ff7500;stroke-linejoin:bevel;stroke-width:1.5;" x="243.52197" xlink:href="#m2c613b5e5d" y="161.397206"/>
     <use style="fill-opacity:0;stroke:#ff7500;stroke-linejoin:bevel;stroke-width:1.5;" x="338.688" xlink:href="#m2c613b5e5d" y="161.397206"/>
    </g>
   </g>
   <g id="line2d_47">
    <path style="fill:none;stroke:#ff7500;stroke-linecap:square;stroke-width:1.5;"/>
    <g/>
   </g>
   <g id="line2d_48">
    <path clip-path="url(#p08426f4216)" d="M 258.377201 161.397206 
" style="fill:none;stroke:#ff7500;stroke-linecap:square;stroke-width:1.5;"/>
    <defs>
     <path d="M -12 12 
L 12 -12 
M -12 -12 
L 12 12 
" id="med6f4c345f" style="stroke:#ff7500;"/>
    </defs>
    <g clip-path="url(#p08426f4216)">
     <use style="fill:#ff7500;stroke:#ff7500;" x="258.377201" xlink:href="#med6f4c345f" y="161.397206"/>
    </g>
   </g>
   <g id="line2d_49">
    <path d="M 338.688 161.397206 
L 369.60768 293.571802 
" style="fill:none;stroke:#ff7500;stroke-linecap:square;stroke-width:1.5;"/>
    <g>
     <use style="fill-opacity:0;stroke:#ff7500;stroke-linejoin:bevel;stroke-width:1.5;" x="338.688" xlink:href="#m2c613b5e5d" y="161.397206"/>
     <use style="fill-opacity:0;stroke:#ff7500;stroke-linejoin:bevel;stroke-width:1.5;" x="369.60768" xlink:href="#m2c613b5e5d" y="293.571802"/>
    </g>
   </g>
   <g id="line2d_50">
    <path d="M 338.688 106.285864 
L 369.60768 207.616634 
" style="fill:none;stroke:#ff00ff;stroke-linecap:square;stroke-width:1.5;"/>
    <g>
     <use style="fill-opacity:0;stroke:#ff00ff;stroke-linejoin:miter;stroke-width:1.5;" x="338.688" xlink:href="#mc472dde105" y="106.285864"/>
     <use style="fill-opacity:0;stroke:#ff00ff;stroke-linejoin:miter;stroke-width:1.5;" x="369.60768" xlink:href="#mc472dde105" y="207.616634"/>
    </g>
   </g>
   <g id="line2d_51">
    <path d="M 338.688 66.457499 
L 369.60768 121.661465 
" style="fill:none;stroke:#000080;stroke-linecap:square;stroke-width:1.5;"/>
    <g>
     <use style="fill-opacity:0;stroke:#000080;stroke-width:1.5;" x="338.688" xlink:href="#m0620792638" y="66.457499"/>
     <use style="fill-opacity:0;stroke:#000080;stroke-width:1.5;" x="369.60768" xlink:href="#m0620792638" y="121.661465"/>
    </g>
   </g>
   <g id="line2d_52">
    <path d="M 338.688 298.944 
L 338.688 30.334099 
" style="fill:none;stroke:#000000;stroke-linecap:square;stroke-width:1.5;"/>
   </g>
   <g id="patch_3">
    <path d="M 57.6 298.944 
L 57.6 27.648 
" style="fill:none;stroke:#000000;stroke-linecap:square;stroke-linejoin:miter;stroke-width:0.8;"/>
   </g>
   <g id="patch_4">
    <path d="M 338.688 298.944 
L 338.688 27.648 
" style="fill:none;stroke:#000000;stroke-linecap:square;stroke-linejoin:miter;stroke-width:0.8;"/>
   </g>
   <g id="patch_5">
    <path d="M 57.6 298.944 
L 338.688 298.944 
" style="fill:none;stroke:#000000;stroke-linecap:square;stroke-linejoin:miter;stroke-width:0.8;"/>
   </g>
   <g id="patch_6">
    <path d="M 57.6 27.648 
L 338.688 27.648 
" style="fill:none;stroke:#000000;stroke-linecap:square;stroke-linejoin:miter;stroke-width:0.8;"/>
   </g>
   <g id="text_13">
    <!-- SMS-EMOA- -->
    <g transform="translate(375.22944 298.262739)scale(0.17 -0.17)">
     <defs>
      <path d="M 53.515625 70.515625 
L 53.515625 60.890625 
Q 47.90625 63.578125 42.921875 64.890625 
Q 37.9375 66.21875 33.296875 66.21875 
Q 25.25 66.21875 20.875 63.09375 
Q 16.5 59.96875 16.5 54.203125 
Q 16.5 49.359375 19.40625 46.890625 
Q 22.3125 44.4375 30.421875 42.921875 
L 36.375 41.703125 
Q 47.40625 39.59375 52.65625 34.296875 
Q 57.90625 29 57.90625 20.125 
Q 57.90625 9.515625 50.796875 4.046875 
Q 43.703125 -1.421875 29.984375 -1.421875 
Q 24.8125 -1.421875 18.96875 -0.25 
Q 13.140625 0.921875 6.890625 3.21875 
L 6.890625 13.375 
Q 12.890625 10.015625 18.65625 8.296875 
Q 24.421875 6.59375 29.984375 6.59375 
Q 38.421875 6.59375 43.015625 9.90625 
Q 47.609375 13.234375 47.609375 19.390625 
Q 47.609375 24.75 44.3125 27.78125 
Q 41.015625 30.8125 33.5 32.328125 
L 27.484375 33.5 
Q 16.453125 35.6875 11.515625 40.375 
Q 6.59375 45.0625 6.59375 53.421875 
Q 6.59375 63.09375 13.40625 68.65625 
Q 20.21875 74.21875 32.171875 74.21875 
Q 37.3125 74.21875 42.625 73.28125 
Q 47.953125 72.359375 53.515625 70.515625 
z
" id="DejaVuSans-83"/>
      <path d="M 9.8125 72.90625 
L 24.515625 72.90625 
L 43.109375 23.296875 
L 61.8125 72.90625 
L 76.515625 72.90625 
L 76.515625 0 
L 66.890625 0 
L 66.890625 64.015625 
L 48.09375 14.015625 
L 38.1875 14.015625 
L 19.390625 64.015625 
L 19.390625 0 
L 9.8125 0 
z
" id="DejaVuSans-77"/>
      <path d="M 9.8125 72.90625 
L 55.90625 72.90625 
L 55.90625 64.59375 
L 19.671875 64.59375 
L 19.671875 43.015625 
L 54.390625 43.015625 
L 54.390625 34.71875 
L 19.671875 34.71875 
L 19.671875 8.296875 
L 56.78125 8.296875 
L 56.78125 0 
L 9.8125 0 
z
" id="DejaVuSans-69"/>
      <path d="M 39.40625 66.21875 
Q 28.65625 66.21875 22.328125 58.203125 
Q 16.015625 50.203125 16.015625 36.375 
Q 16.015625 22.609375 22.328125 14.59375 
Q 28.65625 6.59375 39.40625 6.59375 
Q 50.140625 6.59375 56.421875 14.59375 
Q 62.703125 22.609375 62.703125 36.375 
Q 62.703125 50.203125 56.421875 58.203125 
Q 50.140625 66.21875 39.40625 66.21875 
z
M 39.40625 74.21875 
Q 54.734375 74.21875 63.90625 63.9375 
Q 73.09375 53.65625 73.09375 36.375 
Q 73.09375 19.140625 63.90625 8.859375 
Q 54.734375 -1.421875 39.40625 -1.421875 
Q 24.03125 -1.421875 14.8125 8.828125 
Q 5.609375 19.09375 5.609375 36.375 
Q 5.609375 53.65625 14.8125 63.9375 
Q 24.03125 74.21875 39.40625 74.21875 
z
" id="DejaVuSans-79"/>
      <path d="M 34.1875 63.1875 
L 20.796875 26.90625 
L 47.609375 26.90625 
z
M 28.609375 72.90625 
L 39.796875 72.90625 
L 67.578125 0 
L 57.328125 0 
L 50.6875 18.703125 
L 17.828125 18.703125 
L 11.1875 0 
L 0.78125 0 
z
" id="DejaVuSans-65"/>
     </defs>
     <use xlink:href="#DejaVuSans-83"/>
     <use x="63.476562" xlink:href="#DejaVuSans-77"/>
     <use x="149.755859" xlink:href="#DejaVuSans-83"/>
     <use x="213.232422" xlink:href="#DejaVuSans-45"/>
     <use x="249.316406" xlink:href="#DejaVuSans-69"/>
     <use x="312.5" xlink:href="#DejaVuSans-77"/>
     <use x="398.779297" xlink:href="#DejaVuSans-79"/>
     <use x="475.740234" xlink:href="#DejaVuSans-65"/>
     <use x="541.898438" xlink:href="#DejaVuSans-45"/>
    </g>
   </g>
   <g id="text_14">
    <!-- NSGA-II-M -->
    <g transform="translate(375.22944 212.307571)scale(0.17 -0.17)">
     <defs>
      <path d="M 9.8125 72.90625 
L 23.09375 72.90625 
L 55.421875 11.921875 
L 55.421875 72.90625 
L 64.984375 72.90625 
L 64.984375 0 
L 51.703125 0 
L 19.390625 60.984375 
L 19.390625 0 
L 9.8125 0 
z
" id="DejaVuSans-78"/>
      <path d="M 59.515625 10.40625 
L 59.515625 29.984375 
L 43.40625 29.984375 
L 43.40625 38.09375 
L 69.28125 38.09375 
L 69.28125 6.78125 
Q 63.578125 2.734375 56.6875 0.65625 
Q 49.8125 -1.421875 42 -1.421875 
Q 24.90625 -1.421875 15.25 8.5625 
Q 5.609375 18.5625 5.609375 36.375 
Q 5.609375 54.25 15.25 64.234375 
Q 24.90625 74.21875 42 74.21875 
Q 49.125 74.21875 55.546875 72.453125 
Q 61.96875 70.703125 67.390625 67.28125 
L 67.390625 56.78125 
Q 61.921875 61.421875 55.765625 63.765625 
Q 49.609375 66.109375 42.828125 66.109375 
Q 29.4375 66.109375 22.71875 58.640625 
Q 16.015625 51.171875 16.015625 36.375 
Q 16.015625 21.625 22.71875 14.15625 
Q 29.4375 6.6875 42.828125 6.6875 
Q 48.046875 6.6875 52.140625 7.59375 
Q 56.25 8.5 59.515625 10.40625 
z
" id="DejaVuSans-71"/>
      <path d="M 9.8125 72.90625 
L 19.671875 72.90625 
L 19.671875 0 
L 9.8125 0 
z
" id="DejaVuSans-73"/>
     </defs>
     <use xlink:href="#DejaVuSans-78"/>
     <use x="74.804688" xlink:href="#DejaVuSans-83"/>
     <use x="138.28125" xlink:href="#DejaVuSans-71"/>
     <use x="215.771484" xlink:href="#DejaVuSans-65"/>
     <use x="281.929688" xlink:href="#DejaVuSans-45"/>
     <use x="318.013672" xlink:href="#DejaVuSans-73"/>
     <use x="347.505859" xlink:href="#DejaVuSans-73"/>
     <use x="376.998047" xlink:href="#DejaVuSans-45"/>
     <use x="413.082031" xlink:href="#DejaVuSans-77"/>
    </g>
   </g>
   <g id="text_15">
    <!-- COMO-100  -->
    <g transform="translate(375.22944 126.352403)scale(0.17 -0.17)">
     <defs>
      <path d="M 64.40625 67.28125 
L 64.40625 56.890625 
Q 59.421875 61.53125 53.78125 63.8125 
Q 48.140625 66.109375 41.796875 66.109375 
Q 29.296875 66.109375 22.65625 58.46875 
Q 16.015625 50.828125 16.015625 36.375 
Q 16.015625 21.96875 22.65625 14.328125 
Q 29.296875 6.6875 41.796875 6.6875 
Q 48.140625 6.6875 53.78125 8.984375 
Q 59.421875 11.28125 64.40625 15.921875 
L 64.40625 5.609375 
Q 59.234375 2.09375 53.4375 0.328125 
Q 47.65625 -1.421875 41.21875 -1.421875 
Q 24.65625 -1.421875 15.125 8.703125 
Q 5.609375 18.84375 5.609375 36.375 
Q 5.609375 53.953125 15.125 64.078125 
Q 24.65625 74.21875 41.21875 74.21875 
Q 47.75 74.21875 53.53125 72.484375 
Q 59.328125 70.75 64.40625 67.28125 
z
" id="DejaVuSans-67"/>
     </defs>
     <use xlink:href="#DejaVuSans-67"/>
     <use x="69.824219" xlink:href="#DejaVuSans-79"/>
     <use x="148.535156" xlink:href="#DejaVuSans-77"/>
     <use x="234.814453" xlink:href="#DejaVuSans-79"/>
     <use x="316.275391" xlink:href="#DejaVuSans-45"/>
     <use x="352.359375" xlink:href="#DejaVuSans-49"/>
     <use x="415.982422" xlink:href="#DejaVuSans-48"/>
     <use x="479.605469" xlink:href="#DejaVuSans-48"/>
     <use x="543.228516" xlink:href="#DejaVuSans-32"/>
    </g>
   </g>
   <g id="text_16">
    <!-- best 2016 -->
    <g transform="translate(375.22944 40.397235)scale(0.17 -0.17)">
     <defs>
      <path d="M 48.6875 27.296875 
Q 48.6875 37.203125 44.609375 42.84375 
Q 40.53125 48.484375 33.40625 48.484375 
Q 26.265625 48.484375 22.1875 42.84375 
Q 18.109375 37.203125 18.109375 27.296875 
Q 18.109375 17.390625 22.1875 11.75 
Q 26.265625 6.109375 33.40625 6.109375 
Q 40.53125 6.109375 44.609375 11.75 
Q 48.6875 17.390625 48.6875 27.296875 
z
M 18.109375 46.390625 
Q 20.953125 51.265625 25.265625 53.625 
Q 29.59375 56 35.59375 56 
Q 45.5625 56 51.78125 48.09375 
Q 58.015625 40.1875 58.015625 27.296875 
Q 58.015625 14.40625 51.78125 6.484375 
Q 45.5625 -1.421875 35.59375 -1.421875 
Q 29.59375 -1.421875 25.265625 0.953125 
Q 20.953125 3.328125 18.109375 8.203125 
L 18.109375 0 
L 9.078125 0 
L 9.078125 75.984375 
L 18.109375 75.984375 
z
" id="DejaVuSans-98"/>
     </defs>
     <use xlink:href="#DejaVuSans-98"/>
     <use x="63.476562" xlink:href="#DejaVuSans-101"/>
     <use x="125" xlink:href="#DejaVuSans-115"/>
     <use x="177.099609" xlink:href="#DejaVuSans-116"/>
     <use x="216.308594" xlink:href="#DejaVuSans-32"/>
     <use x="248.095703" xlink:href="#DejaVuSans-50"/>
     <use x="311.71875" xlink:href="#DejaVuSans-48"/>
     <use x="375.341797" xlink:href="#DejaVuSans-49"/>
     <use x="438.964844" xlink:href="#DejaVuSans-54"/>
    </g>
   </g>
   <g id="text_17">
    <!-- bbob-biobj f28, 3-D -->
    <g transform="translate(60.41088 38.111366)scale(0.102 -0.102)">
     <defs>
      <path d="M 9.421875 54.6875 
L 18.40625 54.6875 
L 18.40625 -0.984375 
Q 18.40625 -11.421875 14.421875 -16.109375 
Q 10.453125 -20.796875 1.609375 -20.796875 
L -1.8125 -20.796875 
L -1.8125 -13.1875 
L 0.59375 -13.1875 
Q 5.71875 -13.1875 7.5625 -10.8125 
Q 9.421875 -8.453125 9.421875 -0.984375 
z
M 9.421875 75.984375 
L 18.40625 75.984375 
L 18.40625 64.59375 
L 9.421875 64.59375 
z
" id="DejaVuSans-106"/>
      <path d="M 40.578125 39.3125 
Q 47.65625 37.796875 51.625 33 
Q 55.609375 28.21875 55.609375 21.1875 
Q 55.609375 10.40625 48.1875 4.484375 
Q 40.765625 -1.421875 27.09375 -1.421875 
Q 22.515625 -1.421875 17.65625 -0.515625 
Q 12.796875 0.390625 7.625 2.203125 
L 7.625 11.71875 
Q 11.71875 9.328125 16.59375 8.109375 
Q 21.484375 6.890625 26.8125 6.890625 
Q 36.078125 6.890625 40.9375 10.546875 
Q 45.796875 14.203125 45.796875 21.1875 
Q 45.796875 27.640625 41.28125 31.265625 
Q 36.765625 34.90625 28.71875 34.90625 
L 20.21875 34.90625 
L 20.21875 43.015625 
L 29.109375 43.015625 
Q 36.375 43.015625 40.234375 45.921875 
Q 44.09375 48.828125 44.09375 54.296875 
Q 44.09375 59.90625 40.109375 62.90625 
Q 36.140625 65.921875 28.71875 65.921875 
Q 24.65625 65.921875 20.015625 65.03125 
Q 15.375 64.15625 9.8125 62.3125 
L 9.8125 71.09375 
Q 15.4375 72.65625 20.34375 73.4375 
Q 25.25 74.21875 29.59375 74.21875 
Q 40.828125 74.21875 47.359375 69.109375 
Q 53.90625 64.015625 53.90625 55.328125 
Q 53.90625 49.265625 50.4375 45.09375 
Q 46.96875 40.921875 40.578125 39.3125 
z
" id="DejaVuSans-51"/>
      <path d="M 19.671875 64.796875 
L 19.671875 8.109375 
L 31.59375 8.109375 
Q 46.6875 8.109375 53.6875 14.9375 
Q 60.6875 21.78125 60.6875 36.53125 
Q 60.6875 51.171875 53.6875 57.984375 
Q 46.6875 64.796875 31.59375 64.796875 
z
M 9.8125 72.90625 
L 30.078125 72.90625 
Q 51.265625 72.90625 61.171875 64.09375 
Q 71.09375 55.28125 71.09375 36.53125 
Q 71.09375 17.671875 61.125 8.828125 
Q 51.171875 0 30.078125 0 
L 9.8125 0 
z
" id="DejaVuSans-68"/>
     </defs>
     <use xlink:href="#DejaVuSans-98"/>
     <use x="63.476562" xlink:href="#DejaVuSans-98"/>
     <use x="126.953125" xlink:href="#DejaVuSans-111"/>
     <use x="188.134766" xlink:href="#DejaVuSans-98"/>
     <use x="251.611328" xlink:href="#DejaVuSans-45"/>
     <use x="287.695312" xlink:href="#DejaVuSans-98"/>
     <use x="351.171875" xlink:href="#DejaVuSans-105"/>
     <use x="378.955078" xlink:href="#DejaVuSans-111"/>
     <use x="440.136719" xlink:href="#DejaVuSans-98"/>
     <use x="503.613281" xlink:href="#DejaVuSans-106"/>
     <use x="531.396484" xlink:href="#DejaVuSans-32"/>
     <use x="563.183594" xlink:href="#DejaVuSans-102"/>
     <use x="598.388672" xlink:href="#DejaVuSans-50"/>
     <use x="662.011719" xlink:href="#DejaVuSans-56"/>
     <use x="725.634766" xlink:href="#DejaVuSans-44"/>
     <use x="757.421875" xlink:href="#DejaVuSans-32"/>
     <use x="789.208984" xlink:href="#DejaVuSans-51"/>
     <use x="852.832031" xlink:href="#DejaVuSans-45"/>
     <use x="888.916016" xlink:href="#DejaVuSans-68"/>
    </g>
    <!-- 58 targets: 1..-1.0e-4 -->
    <g transform="translate(60.41088 49.533135)scale(0.102 -0.102)">
     <defs>
      <path d="M 10.796875 72.90625 
L 49.515625 72.90625 
L 49.515625 64.59375 
L 19.828125 64.59375 
L 19.828125 46.734375 
Q 21.96875 47.46875 24.109375 47.828125 
Q 26.265625 48.1875 28.421875 48.1875 
Q 40.625 48.1875 47.75 41.5 
Q 54.890625 34.8125 54.890625 23.390625 
Q 54.890625 11.625 47.5625 5.09375 
Q 40.234375 -1.421875 26.90625 -1.421875 
Q 22.3125 -1.421875 17.546875 -0.640625 
Q 12.796875 0.140625 7.71875 1.703125 
L 7.71875 11.625 
Q 12.109375 9.234375 16.796875 8.0625 
Q 21.484375 6.890625 26.703125 6.890625 
Q 35.15625 6.890625 40.078125 11.328125 
Q 45.015625 15.765625 45.015625 23.390625 
Q 45.015625 31 40.078125 35.4375 
Q 35.15625 39.890625 26.703125 39.890625 
Q 22.75 39.890625 18.8125 39.015625 
Q 14.890625 38.140625 10.796875 36.28125 
z
" id="DejaVuSans-53"/>
      <path d="M 11.71875 12.40625 
L 22.015625 12.40625 
L 22.015625 0 
L 11.71875 0 
z
M 11.71875 51.703125 
L 22.015625 51.703125 
L 22.015625 39.3125 
L 11.71875 39.3125 
z
" id="DejaVuSans-58"/>
     </defs>
     <use xlink:href="#DejaVuSans-53"/>
     <use x="63.623047" xlink:href="#DejaVuSans-56"/>
     <use x="127.246094" xlink:href="#DejaVuSans-32"/>
     <use x="159.033203" xlink:href="#DejaVuSans-116"/>
     <use x="198.242188" xlink:href="#DejaVuSans-97"/>
     <use x="259.521484" xlink:href="#DejaVuSans-114"/>
     <use x="298.884766" xlink:href="#DejaVuSans-103"/>
     <use x="362.361328" xlink:href="#DejaVuSans-101"/>
     <use x="423.884766" xlink:href="#DejaVuSans-116"/>
     <use x="463.09375" xlink:href="#DejaVuSans-115"/>
     <use x="515.193359" xlink:href="#DejaVuSans-58"/>
     <use x="548.884766" xlink:href="#DejaVuSans-32"/>
     <use x="580.671875" xlink:href="#DejaVuSans-49"/>
     <use x="644.294922" xlink:href="#DejaVuSans-46"/>
     <use x="676.082031" xlink:href="#DejaVuSans-46"/>
     <use x="707.869141" xlink:href="#DejaVuSans-45"/>
     <use x="743.953125" xlink:href="#DejaVuSans-49"/>
     <use x="807.576172" xlink:href="#DejaVuSans-46"/>
     <use x="839.363281" xlink:href="#DejaVuSans-48"/>
     <use x="902.986328" xlink:href="#DejaVuSans-101"/>
     <use x="964.509766" xlink:href="#DejaVuSans-45"/>
     <use x="1000.59375" xlink:href="#DejaVuSans-52"/>
    </g>
    <!-- 10 instances -->
    <g transform="translate(60.41088 60.954904)scale(0.102 -0.102)">
     <use xlink:href="#DejaVuSans-49"/>
     <use x="63.623047" xlink:href="#DejaVuSans-48"/>
     <use x="127.246094" xlink:href="#DejaVuSans-32"/>
     <use x="159.033203" xlink:href="#DejaVuSans-105"/>
     <use x="186.816406" xlink:href="#DejaVuSans-110"/>
     <use x="250.195312" xlink:href="#DejaVuSans-115"/>
     <use x="302.294922" xlink:href="#DejaVuSans-116"/>
     <use x="341.503906" xlink:href="#DejaVuSans-97"/>
     <use x="402.783203" xlink:href="#DejaVuSans-110"/>
     <use x="466.162109" xlink:href="#DejaVuSans-99"/>
     <use x="521.142578" xlink:href="#DejaVuSans-101"/>
     <use x="582.666016" xlink:href="#DejaVuSans-115"/>
    </g>
   </g>
   <g id="text_18">
    <!-- v2.4.19, hv-hash=ff0e71e8cd978373 -->
    <g style="fill:#808080;" transform="translate(104.697125 294.151352)scale(0.1 -0.1)">
     <defs>
      <path d="M 10.984375 1.515625 
L 10.984375 10.5 
Q 14.703125 8.734375 18.5 7.8125 
Q 22.3125 6.890625 25.984375 6.890625 
Q 35.75 6.890625 40.890625 13.453125 
Q 46.046875 20.015625 46.78125 33.40625 
Q 43.953125 29.203125 39.59375 26.953125 
Q 35.25 24.703125 29.984375 24.703125 
Q 19.046875 24.703125 12.671875 31.3125 
Q 6.296875 37.9375 6.296875 49.421875 
Q 6.296875 60.640625 12.9375 67.421875 
Q 19.578125 74.21875 30.609375 74.21875 
Q 43.265625 74.21875 49.921875 64.515625 
Q 56.59375 54.828125 56.59375 36.375 
Q 56.59375 19.140625 48.40625 8.859375 
Q 40.234375 -1.421875 26.421875 -1.421875 
Q 22.703125 -1.421875 18.890625 -0.6875 
Q 15.09375 0.046875 10.984375 1.515625 
z
M 30.609375 32.421875 
Q 37.25 32.421875 41.125 36.953125 
Q 45.015625 41.5 45.015625 49.421875 
Q 45.015625 57.28125 41.125 61.84375 
Q 37.25 66.40625 30.609375 66.40625 
Q 23.96875 66.40625 20.09375 61.84375 
Q 16.21875 57.28125 16.21875 49.421875 
Q 16.21875 41.5 20.09375 36.953125 
Q 23.96875 32.421875 30.609375 32.421875 
z
" id="DejaVuSans-57"/>
      <path d="M 54.890625 33.015625 
L 54.890625 0 
L 45.90625 0 
L 45.90625 32.71875 
Q 45.90625 40.484375 42.875 44.328125 
Q 39.84375 48.1875 33.796875 48.1875 
Q 26.515625 48.1875 22.3125 43.546875 
Q 18.109375 38.921875 18.109375 30.90625 
L 18.109375 0 
L 9.078125 0 
L 9.078125 75.984375 
L 18.109375 75.984375 
L 18.109375 46.1875 
Q 21.34375 51.125 25.703125 53.5625 
Q 30.078125 56 35.796875 56 
Q 45.21875 56 50.046875 50.171875 
Q 54.890625 44.34375 54.890625 33.015625 
z
" id="DejaVuSans-104"/>
      <path d="M 10.59375 45.40625 
L 73.1875 45.40625 
L 73.1875 37.203125 
L 10.59375 37.203125 
z
M 10.59375 25.484375 
L 73.1875 25.484375 
L 73.1875 17.1875 
L 10.59375 17.1875 
z
" id="DejaVuSans-61"/>
      <path d="M 8.203125 72.90625 
L 55.078125 72.90625 
L 55.078125 68.703125 
L 28.609375 0 
L 18.3125 0 
L 43.21875 64.59375 
L 8.203125 64.59375 
z
" id="DejaVuSans-55"/>
     </defs>
     <use xlink:href="#DejaVuSans-118"/>
     <use x="59.179688" xlink:href="#DejaVuSans-50"/>
     <use x="122.802734" xlink:href="#DejaVuSans-46"/>
     <use x="154.589844" xlink:href="#DejaVuSans-52"/>
     <use x="218.212891" xlink:href="#DejaVuSans-46"/>
     <use x="250" xlink:href="#DejaVuSans-49"/>
     <use x="313.623047" xlink:href="#DejaVuSans-57"/>
     <use x="377.246094" xlink:href="#DejaVuSans-44"/>
     <use x="409.033203" xlink:href="#DejaVuSans-32"/>
     <use x="440.820312" xlink:href="#DejaVuSans-104"/>
     <use x="504.199219" xlink:href="#DejaVuSans-118"/>
     <use x="560.753906" xlink:href="#DejaVuSans-45"/>
     <use x="596.837891" xlink:href="#DejaVuSans-104"/>
     <use x="660.216797" xlink:href="#DejaVuSans-97"/>
     <use x="721.496094" xlink:href="#DejaVuSans-115"/>
     <use x="773.595703" xlink:href="#DejaVuSans-104"/>
     <use x="836.974609" xlink:href="#DejaVuSans-61"/>
     <use x="920.763672" xlink:href="#DejaVuSans-102"/>
     <use x="955.96875" xlink:href="#DejaVuSans-102"/>
     <use x="991.173828" xlink:href="#DejaVuSans-48"/>
     <use x="1054.796875" xlink:href="#DejaVuSans-101"/>
     <use x="1116.320312" xlink:href="#DejaVuSans-55"/>
     <use x="1179.943359" xlink:href="#DejaVuSans-49"/>
     <use x="1243.566406" xlink:href="#DejaVuSans-101"/>
     <use x="1305.089844" xlink:href="#DejaVuSans-56"/>
     <use x="1368.712891" xlink:href="#DejaVuSans-99"/>
     <use x="1423.693359" xlink:href="#DejaVuSans-100"/>
     <use x="1487.169922" xlink:href="#DejaVuSans-57"/>
     <use x="1550.792969" xlink:href="#DejaVuSans-55"/>
     <use x="1614.416016" xlink:href="#DejaVuSans-56"/>
     <use x="1678.039062" xlink:href="#DejaVuSans-51"/>
     <use x="1741.662109" xlink:href="#DejaVuSans-55"/>
     <use x="1805.285156" xlink:href="#DejaVuSans-51"/>
    </g>
   </g>
   <g id="text_19">
    <!-- 28 Rosenbrock/Rosenbrock -->
    <g transform="translate(62.953375 21.648)scale(0.2 -0.2)">
     <defs>
      <path d="M 44.390625 34.1875 
Q 47.5625 33.109375 50.5625 29.59375 
Q 53.5625 26.078125 56.59375 19.921875 
L 66.609375 0 
L 56 0 
L 46.6875 18.703125 
Q 43.0625 26.03125 39.671875 28.421875 
Q 36.28125 30.8125 30.421875 30.8125 
L 19.671875 30.8125 
L 19.671875 0 
L 9.8125 0 
L 9.8125 72.90625 
L 32.078125 72.90625 
Q 44.578125 72.90625 50.734375 67.671875 
Q 56.890625 62.453125 56.890625 51.90625 
Q 56.890625 45.015625 53.6875 40.46875 
Q 50.484375 35.9375 44.390625 34.1875 
z
M 19.671875 64.796875 
L 19.671875 38.921875 
L 32.078125 38.921875 
Q 39.203125 38.921875 42.84375 42.21875 
Q 46.484375 45.515625 46.484375 51.90625 
Q 46.484375 58.296875 42.84375 61.546875 
Q 39.203125 64.796875 32.078125 64.796875 
z
" id="DejaVuSans-82"/>
      <path d="M 9.078125 75.984375 
L 18.109375 75.984375 
L 18.109375 31.109375 
L 44.921875 54.6875 
L 56.390625 54.6875 
L 27.390625 29.109375 
L 57.625 0 
L 45.90625 0 
L 18.109375 26.703125 
L 18.109375 0 
L 9.078125 0 
z
" id="DejaVuSans-107"/>
     </defs>
     <use xlink:href="#DejaVuSans-50"/>
     <use x="63.623047" xlink:href="#DejaVuSans-56"/>
     <use x="127.246094" xlink:href="#DejaVuSans-32"/>
     <use x="159.033203" xlink:href="#DejaVuSans-82"/>
     <use x="224.015625" xlink:href="#DejaVuSans-111"/>
     <use x="285.197266" xlink:href="#DejaVuSans-115"/>
     <use x="337.296875" xlink:href="#DejaVuSans-101"/>
     <use x="398.820312" xlink:href="#DejaVuSans-110"/>
     <use x="462.199219" xlink:href="#DejaVuSans-98"/>
     <use x="525.675781" xlink:href="#DejaVuSans-114"/>
     <use x="564.539062" xlink:href="#DejaVuSans-111"/>
     <use x="625.720703" xlink:href="#DejaVuSans-99"/>
     <use x="680.701172" xlink:href="#DejaVuSans-107"/>
     <use x="738.611328" xlink:href="#DejaVuSans-47"/>
     <use x="772.302734" xlink:href="#DejaVuSans-82"/>
     <use x="837.285156" xlink:href="#DejaVuSans-111"/>
     <use x="898.466797" xlink:href="#DejaVuSans-115"/>
     <use x="950.566406" xlink:href="#DejaVuSans-101"/>
     <use x="1012.089844" xlink:href="#DejaVuSans-110"/>
     <use x="1075.46875" xlink:href="#DejaVuSans-98"/>
     <use x="1138.945312" xlink:href="#DejaVuSans-114"/>
     <use x="1177.808594" xlink:href="#DejaVuSans-111"/>
     <use x="1238.990234" xlink:href="#DejaVuSans-99"/>
     <use x="1293.970703" xlink:href="#DejaVuSans-107"/>
    </g>
   </g>
  </g>
 </g>
 <defs>
  <clipPath id="p08426f4216">
   <rect height="271.296" width="281.088" x="57.6" y="27.648"/>
  </clipPath>
 </defs>
</svg>
