<?xml version="1.0" encoding="utf-8" standalone="no"?>
<!DOCTYPE svg PUBLIC "-//W3C//DTD SVG 1.1//EN"
  "http://www.w3.org/Graphics/SVG/1.1/DTD/svg11.dtd">
<!-- Created with matplotlib (https://matplotlib.org/) -->
<svg height="345.6pt" version="1.1" viewBox="0 0 460.8 345.6" width="460.8pt" xmlns="http://www.w3.org/2000/svg" xmlns:xlink="http://www.w3.org/1999/xlink">
 <metadata>
  <rdf:RDF xmlns:cc="http://creativecommons.org/ns#" xmlns:dc="http://purl.org/dc/elements/1.1/" xmlns:rdf="http://www.w3.org/1999/02/22-rdf-syntax-ns#">
   <cc:Work>
    <dc:type rdf:resource="http://purl.org/dc/dcmitype/StillImage"/>
    <dc:date>2021-04-26T15:05:50.755166</dc:date>
    <dc:format>image/svg+xml</dc:format>
    <dc:creator>
     <cc:Agent>
      <dc:title>Matplotlib v3.3.2, https://matplotlib.org/</dc:title>
     </cc:Agent>
    </dc:creator>
   </cc:Work>
  </rdf:RDF>
 </metadata>
 <defs>
  <style type="text/css">*{stroke-linecap:butt;stroke-linejoin:round;}</style>
 </defs>
 <g id="figure_1">
  <g id="patch_1">
   <path d="M 0 345.6 
L 460.8 345.6 
L 460.8 0 
L 0 0 
z
" style="fill:#ffffff;"/>
  </g>
  <g id="axes_1">
   <g id="patch_2">
    <path d="M 57.6 298.944 
L 338.688 298.944 
L 338.688 27.648 
L 57.6 27.648 
z
" style="fill:#ffffff;"/>
   </g>
   <g id="line2d_1">
    <path d="M 80.258561 298.944 
L 80.258561 294.312795 
L 86.792945 294.312795 
L 86.792945 285.050384 
L 100.443706 285.050384 
L 100.443706 275.787974 
L 127.378995 275.787974 
L 127.378995 271.156769 
L 143.144465 271.156769 
L 143.144465 257.263153 
L 148.576295 257.263153 
L 148.576295 248.000743 
L 163.946031 248.000743 
L 163.946031 243.369538 
L 164.725213 243.369538 
L 164.725213 234.107127 
L 168.058166 234.107127 
L 168.058166 220.213512 
L 170.890315 220.213512 
L 170.890315 210.951101 
L 172.12622 210.951101 
L 172.12622 201.688691 
L 177.396715 201.688691 
L 177.396715 192.426281 
L 178.98346 192.426281 
L 178.98346 187.795075 
L 179.664896 187.795075 
L 179.664896 173.90146 
L 179.907185 173.90146 
L 179.907185 169.270255 
L 180.564187 169.270255 
L 180.564187 155.376639 
L 181.31353 155.376639 
L 181.31353 146.114229 
L 187.53079 146.114229 
L 187.53079 141.483024 
L 188.069677 141.483024 
L 188.069677 127.589408 
L 196.146232 127.589408 
L 196.146232 122.958203 
L 204.576948 122.958203 
L 204.576948 109.064587 
L 217.495875 109.064587 
L 217.495875 99.802177 
L 252.442552 99.802177 
L 252.442552 90.539766 
L 255.28276 90.539766 
L 255.28276 85.908561 
L 258.223878 85.908561 
L 258.223878 76.646151 
L 261.188307 76.646151 
L 261.188307 62.752535 
L 338.688 62.752535 
" style="fill:none;stroke:#f5deb3;stroke-linecap:square;stroke-width:4;"/>
   </g>
   <g id="line2d_2">
    <defs>
     <path d="M 0 7.778175 
L 7.778175 0 
L 0 -7.778175 
L -7.778175 0 
z
" id="m645016a49d" style="stroke:#f5deb3;stroke-linejoin:miter;stroke-width:1.5;"/>
    </defs>
    <g>
     <use style="fill:#f5deb3;stroke:#f5deb3;stroke-linejoin:miter;stroke-width:1.5;" x="148.576295" xlink:href="#m645016a49d" y="257.263153"/>
     <use style="fill:#f5deb3;stroke:#f5deb3;stroke-linejoin:miter;stroke-width:1.5;" x="188.069677" xlink:href="#m645016a49d" y="141.483024"/>
     <use style="fill:#f5deb3;stroke:#f5deb3;stroke-linejoin:miter;stroke-width:1.5;" x="261.188307" xlink:href="#m645016a49d" y="76.646151"/>
     <use style="fill:#f5deb3;stroke:#f5deb3;stroke-linejoin:miter;stroke-width:1.5;" x="261.188307" xlink:href="#m645016a49d" y="62.752535"/>
     <use style="fill:#f5deb3;stroke:#f5deb3;stroke-linejoin:miter;stroke-width:1.5;" x="338.688" xlink:href="#m645016a49d" y="62.752535"/>
    </g>
   </g>
   <g id="line2d_3">
    <path style="fill:none;stroke:#f5deb3;stroke-linecap:square;stroke-width:4;"/>
    <g/>
   </g>
   <g id="line2d_4">
    <path d="M 338.688 62.752535 
L 369.60768 35.706297 
" style="fill:none;stroke:#f5deb3;stroke-linecap:square;stroke-width:4;"/>
    <g>
     <use style="fill:#f5deb3;stroke:#f5deb3;stroke-linejoin:miter;stroke-width:1.5;" x="338.688" xlink:href="#m645016a49d" y="62.752535"/>
     <use style="fill:#f5deb3;stroke:#f5deb3;stroke-linejoin:miter;stroke-width:1.5;" x="369.60768" xlink:href="#m645016a49d" y="35.706297"/>
    </g>
   </g>
   <g id="matplotlib.axis_1">
    <g id="xtick_1">
     <g id="line2d_5">
      <path clip-path="url(#pdfdf72d38b)" d="M 57.6 298.944 
L 57.6 27.648 
" style="fill:none;stroke:#b0b0b0;stroke-linecap:square;stroke-width:0.8;"/>
     </g>
     <g id="line2d_6">
      <defs>
       <path d="M 0 0 
L 0 3.5 
" id="m48c94a9a21" style="stroke:#000000;stroke-width:0.8;"/>
      </defs>
      <g>
       <use style="stroke:#000000;stroke-width:0.8;" x="57.6" xlink:href="#m48c94a9a21" y="298.944"/>
      </g>
     </g>
     <g id="text_1">
      <!-- 0 -->
      <g transform="translate(51.2375 321.140875)scale(0.2 -0.2)">
       <defs>
        <path d="M 31.78125 66.40625 
Q 24.171875 66.40625 20.328125 58.90625 
Q 16.5 51.421875 16.5 36.375 
Q 16.5 21.390625 20.328125 13.890625 
Q 24.171875 6.390625 31.78125 6.390625 
Q 39.453125 6.390625 43.28125 13.890625 
Q 47.125 21.390625 47.125 36.375 
Q 47.125 51.421875 43.28125 58.90625 
Q 39.453125 66.40625 31.78125 66.40625 
z
M 31.78125 74.21875 
Q 44.046875 74.21875 50.515625 64.515625 
Q 56.984375 54.828125 56.984375 36.375 
Q 56.984375 17.96875 50.515625 8.265625 
Q 44.046875 -1.421875 31.78125 -1.421875 
Q 19.53125 -1.421875 13.0625 8.265625 
Q 6.59375 17.96875 6.59375 36.375 
Q 6.59375 54.828125 13.0625 64.515625 
Q 19.53125 74.21875 31.78125 74.21875 
z
" id="DejaVuSans-48"/>
       </defs>
       <use xlink:href="#DejaVuSans-48"/>
      </g>
     </g>
    </g>
    <g id="xtick_2">
     <g id="line2d_7">
      <path clip-path="url(#pdfdf72d38b)" d="M 137.910857 298.944 
L 137.910857 27.648 
" style="fill:none;stroke:#b0b0b0;stroke-linecap:square;stroke-width:0.8;"/>
     </g>
     <g id="line2d_8">
      <g>
       <use style="stroke:#000000;stroke-width:0.8;" x="137.910857" xlink:href="#m48c94a9a21" y="298.944"/>
      </g>
     </g>
     <g id="text_2">
      <!-- 2 -->
      <g transform="translate(131.548357 321.140875)scale(0.2 -0.2)">
       <defs>
        <path d="M 19.1875 8.296875 
L 53.609375 8.296875 
L 53.609375 0 
L 7.328125 0 
L 7.328125 8.296875 
Q 12.9375 14.109375 22.625 23.890625 
Q 32.328125 33.6875 34.8125 36.53125 
Q 39.546875 41.84375 41.421875 45.53125 
Q 43.3125 49.21875 43.3125 52.78125 
Q 43.3125 58.59375 39.234375 62.25 
Q 35.15625 65.921875 28.609375 65.921875 
Q 23.96875 65.921875 18.8125 64.3125 
Q 13.671875 62.703125 7.8125 59.421875 
L 7.8125 69.390625 
Q 13.765625 71.78125 18.9375 73 
Q 24.125 74.21875 28.421875 74.21875 
Q 39.75 74.21875 46.484375 68.546875 
Q 53.21875 62.890625 53.21875 53.421875 
Q 53.21875 48.921875 51.53125 44.890625 
Q 49.859375 40.875 45.40625 35.40625 
Q 44.1875 33.984375 37.640625 27.21875 
Q 31.109375 20.453125 19.1875 8.296875 
z
" id="DejaVuSans-50"/>
       </defs>
       <use xlink:href="#DejaVuSans-50"/>
      </g>
     </g>
    </g>
    <g id="xtick_3">
     <g id="line2d_9">
      <path clip-path="url(#pdfdf72d38b)" d="M 218.221714 298.944 
L 218.221714 27.648 
" style="fill:none;stroke:#b0b0b0;stroke-linecap:square;stroke-width:0.8;"/>
     </g>
     <g id="line2d_10">
      <g>
       <use style="stroke:#000000;stroke-width:0.8;" x="218.221714" xlink:href="#m48c94a9a21" y="298.944"/>
      </g>
     </g>
     <g id="text_3">
      <!-- 4 -->
      <g transform="translate(211.859214 321.140875)scale(0.2 -0.2)">
       <defs>
        <path d="M 37.796875 64.3125 
L 12.890625 25.390625 
L 37.796875 25.390625 
z
M 35.203125 72.90625 
L 47.609375 72.90625 
L 47.609375 25.390625 
L 58.015625 25.390625 
L 58.015625 17.1875 
L 47.609375 17.1875 
L 47.609375 0 
L 37.796875 0 
L 37.796875 17.1875 
L 4.890625 17.1875 
L 4.890625 26.703125 
z
" id="DejaVuSans-52"/>
       </defs>
       <use xlink:href="#DejaVuSans-52"/>
      </g>
     </g>
    </g>
    <g id="xtick_4">
     <g id="line2d_11">
      <path clip-path="url(#pdfdf72d38b)" d="M 298.532571 298.944 
L 298.532571 27.648 
" style="fill:none;stroke:#b0b0b0;stroke-linecap:square;stroke-width:0.8;"/>
     </g>
     <g id="line2d_12">
      <g>
       <use style="stroke:#000000;stroke-width:0.8;" x="298.532571" xlink:href="#m48c94a9a21" y="298.944"/>
      </g>
     </g>
     <g id="text_4">
      <!-- 6 -->
      <g transform="translate(292.170071 321.140875)scale(0.2 -0.2)">
       <defs>
        <path d="M 33.015625 40.375 
Q 26.375 40.375 22.484375 35.828125 
Q 18.609375 31.296875 18.609375 23.390625 
Q 18.609375 15.53125 22.484375 10.953125 
Q 26.375 6.390625 33.015625 6.390625 
Q 39.65625 6.390625 43.53125 10.953125 
Q 47.40625 15.53125 47.40625 23.390625 
Q 47.40625 31.296875 43.53125 35.828125 
Q 39.65625 40.375 33.015625 40.375 
z
M 52.59375 71.296875 
L 52.59375 62.3125 
Q 48.875 64.0625 45.09375 64.984375 
Q 41.3125 65.921875 37.59375 65.921875 
Q 27.828125 65.921875 22.671875 59.328125 
Q 17.53125 52.734375 16.796875 39.40625 
Q 19.671875 43.65625 24.015625 45.921875 
Q 28.375 48.1875 33.59375 48.1875 
Q 44.578125 48.1875 50.953125 41.515625 
Q 57.328125 34.859375 57.328125 23.390625 
Q 57.328125 12.15625 50.6875 5.359375 
Q 44.046875 -1.421875 33.015625 -1.421875 
Q 20.359375 -1.421875 13.671875 8.265625 
Q 6.984375 17.96875 6.984375 36.375 
Q 6.984375 53.65625 15.1875 63.9375 
Q 23.390625 74.21875 37.203125 74.21875 
Q 40.921875 74.21875 44.703125 73.484375 
Q 48.484375 72.75 52.59375 71.296875 
z
" id="DejaVuSans-54"/>
       </defs>
       <use xlink:href="#DejaVuSans-54"/>
      </g>
     </g>
    </g>
    <g id="xtick_5">
     <g id="line2d_13">
      <path clip-path="url(#pdfdf72d38b)" d="M 97.755429 298.944 
L 97.755429 27.648 
" style="fill:none;stroke:#b0b0b0;stroke-linecap:square;stroke-width:0.8;"/>
     </g>
     <g id="line2d_14">
      <defs>
       <path d="M 0 0 
L 0 2 
" id="m6d45f30858" style="stroke:#000000;stroke-width:0.6;"/>
      </defs>
      <g>
       <use style="stroke:#000000;stroke-width:0.6;" x="97.755429" xlink:href="#m6d45f30858" y="298.944"/>
      </g>
     </g>
    </g>
    <g id="xtick_6">
     <g id="line2d_15">
      <path clip-path="url(#pdfdf72d38b)" d="M 178.066286 298.944 
L 178.066286 27.648 
" style="fill:none;stroke:#b0b0b0;stroke-linecap:square;stroke-width:0.8;"/>
     </g>
     <g id="line2d_16">
      <g>
       <use style="stroke:#000000;stroke-width:0.6;" x="178.066286" xlink:href="#m6d45f30858" y="298.944"/>
      </g>
     </g>
    </g>
    <g id="xtick_7">
     <g id="line2d_17">
      <path clip-path="url(#pdfdf72d38b)" d="M 258.377143 298.944 
L 258.377143 27.648 
" style="fill:none;stroke:#b0b0b0;stroke-linecap:square;stroke-width:0.8;"/>
     </g>
     <g id="line2d_18">
      <g>
       <use style="stroke:#000000;stroke-width:0.6;" x="258.377143" xlink:href="#m6d45f30858" y="298.944"/>
      </g>
     </g>
    </g>
    <g id="xtick_8">
     <g id="line2d_19">
      <path clip-path="url(#pdfdf72d38b)" d="M 338.688 298.944 
L 338.688 27.648 
" style="fill:none;stroke:#b0b0b0;stroke-linecap:square;stroke-width:0.8;"/>
     </g>
     <g id="line2d_20">
      <g>
       <use style="stroke:#000000;stroke-width:0.6;" x="338.688" xlink:href="#m6d45f30858" y="298.944"/>
      </g>
     </g>
    </g>
    <g id="text_5">
     <!-- log10(# f-evals / dimension) -->
     <g transform="translate(77.764078 342.217594)scale(0.17 -0.17)">
      <defs>
       <path d="M 9.421875 75.984375 
L 18.40625 75.984375 
L 18.40625 0 
L 9.421875 0 
z
" id="DejaVuSans-108"/>
       <path d="M 30.609375 48.390625 
Q 23.390625 48.390625 19.1875 42.75 
Q 14.984375 37.109375 14.984375 27.296875 
Q 14.984375 17.484375 19.15625 11.84375 
Q 23.34375 6.203125 30.609375 6.203125 
Q 37.796875 6.203125 41.984375 11.859375 
Q 46.1875 17.53125 46.1875 27.296875 
Q 46.1875 37.015625 41.984375 42.703125 
Q 37.796875 48.390625 30.609375 48.390625 
z
M 30.609375 56 
Q 42.328125 56 49.015625 48.375 
Q 55.71875 40.765625 55.71875 27.296875 
Q 55.71875 13.875 49.015625 6.21875 
Q 42.328125 -1.421875 30.609375 -1.421875 
Q 18.84375 -1.421875 12.171875 6.21875 
Q 5.515625 13.875 5.515625 27.296875 
Q 5.515625 40.765625 12.171875 48.375 
Q 18.84375 56 30.609375 56 
z
" id="DejaVuSans-111"/>
       <path d="M 45.40625 27.984375 
Q 45.40625 37.75 41.375 43.109375 
Q 37.359375 48.484375 30.078125 48.484375 
Q 22.859375 48.484375 18.828125 43.109375 
Q 14.796875 37.75 14.796875 27.984375 
Q 14.796875 18.265625 18.828125 12.890625 
Q 22.859375 7.515625 30.078125 7.515625 
Q 37.359375 7.515625 41.375 12.890625 
Q 45.40625 18.265625 45.40625 27.984375 
z
M 54.390625 6.78125 
Q 54.390625 -7.171875 48.1875 -13.984375 
Q 42 -20.796875 29.203125 -20.796875 
Q 24.46875 -20.796875 20.265625 -20.09375 
Q 16.0625 -19.390625 12.109375 -17.921875 
L 12.109375 -9.1875 
Q 16.0625 -11.328125 19.921875 -12.34375 
Q 23.78125 -13.375 27.78125 -13.375 
Q 36.625 -13.375 41.015625 -8.765625 
Q 45.40625 -4.15625 45.40625 5.171875 
L 45.40625 9.625 
Q 42.625 4.78125 38.28125 2.390625 
Q 33.9375 0 27.875 0 
Q 17.828125 0 11.671875 7.65625 
Q 5.515625 15.328125 5.515625 27.984375 
Q 5.515625 40.671875 11.671875 48.328125 
Q 17.828125 56 27.875 56 
Q 33.9375 56 38.28125 53.609375 
Q 42.625 51.21875 45.40625 46.390625 
L 45.40625 54.6875 
L 54.390625 54.6875 
z
" id="DejaVuSans-103"/>
       <path d="M 12.40625 8.296875 
L 28.515625 8.296875 
L 28.515625 63.921875 
L 10.984375 60.40625 
L 10.984375 69.390625 
L 28.421875 72.90625 
L 38.28125 72.90625 
L 38.28125 8.296875 
L 54.390625 8.296875 
L 54.390625 0 
L 12.40625 0 
z
" id="DejaVuSans-49"/>
       <path d="M 31 75.875 
Q 24.46875 64.65625 21.28125 53.65625 
Q 18.109375 42.671875 18.109375 31.390625 
Q 18.109375 20.125 21.3125 9.0625 
Q 24.515625 -2 31 -13.1875 
L 23.1875 -13.1875 
Q 15.875 -1.703125 12.234375 9.375 
Q 8.59375 20.453125 8.59375 31.390625 
Q 8.59375 42.28125 12.203125 53.3125 
Q 15.828125 64.359375 23.1875 75.875 
z
" id="DejaVuSans-40"/>
       <path d="M 51.125 44 
L 36.921875 44 
L 32.8125 27.6875 
L 47.125 27.6875 
z
M 43.796875 71.78125 
L 38.71875 51.515625 
L 52.984375 51.515625 
L 58.109375 71.78125 
L 65.921875 71.78125 
L 60.890625 51.515625 
L 76.125 51.515625 
L 76.125 44 
L 58.984375 44 
L 54.984375 27.6875 
L 70.515625 27.6875 
L 70.515625 20.21875 
L 53.078125 20.21875 
L 48 0 
L 40.1875 0 
L 45.21875 20.21875 
L 30.90625 20.21875 
L 25.875 0 
L 18.015625 0 
L 23.09375 20.21875 
L 7.71875 20.21875 
L 7.71875 27.6875 
L 24.90625 27.6875 
L 29 44 
L 13.28125 44 
L 13.28125 51.515625 
L 30.90625 51.515625 
L 35.890625 71.78125 
z
" id="DejaVuSans-35"/>
       <path id="DejaVuSans-32"/>
       <path d="M 37.109375 75.984375 
L 37.109375 68.5 
L 28.515625 68.5 
Q 23.6875 68.5 21.796875 66.546875 
Q 19.921875 64.59375 19.921875 59.515625 
L 19.921875 54.6875 
L 34.71875 54.6875 
L 34.71875 47.703125 
L 19.921875 47.703125 
L 19.921875 0 
L 10.890625 0 
L 10.890625 47.703125 
L 2.296875 47.703125 
L 2.296875 54.6875 
L 10.890625 54.6875 
L 10.890625 58.5 
Q 10.890625 67.625 15.140625 71.796875 
Q 19.390625 75.984375 28.609375 75.984375 
z
" id="DejaVuSans-102"/>
       <path d="M 4.890625 31.390625 
L 31.203125 31.390625 
L 31.203125 23.390625 
L 4.890625 23.390625 
z
" id="DejaVuSans-45"/>
       <path d="M 56.203125 29.59375 
L 56.203125 25.203125 
L 14.890625 25.203125 
Q 15.484375 15.921875 20.484375 11.0625 
Q 25.484375 6.203125 34.421875 6.203125 
Q 39.59375 6.203125 44.453125 7.46875 
Q 49.3125 8.734375 54.109375 11.28125 
L 54.109375 2.78125 
Q 49.265625 0.734375 44.1875 -0.34375 
Q 39.109375 -1.421875 33.890625 -1.421875 
Q 20.796875 -1.421875 13.15625 6.1875 
Q 5.515625 13.8125 5.515625 26.8125 
Q 5.515625 40.234375 12.765625 48.109375 
Q 20.015625 56 32.328125 56 
Q 43.359375 56 49.78125 48.890625 
Q 56.203125 41.796875 56.203125 29.59375 
z
M 47.21875 32.234375 
Q 47.125 39.59375 43.09375 43.984375 
Q 39.0625 48.390625 32.421875 48.390625 
Q 24.90625 48.390625 20.390625 44.140625 
Q 15.875 39.890625 15.1875 32.171875 
z
" id="DejaVuSans-101"/>
       <path d="M 2.984375 54.6875 
L 12.5 54.6875 
L 29.59375 8.796875 
L 46.6875 54.6875 
L 56.203125 54.6875 
L 35.6875 0 
L 23.484375 0 
z
" id="DejaVuSans-118"/>
       <path d="M 34.28125 27.484375 
Q 23.390625 27.484375 19.1875 25 
Q 14.984375 22.515625 14.984375 16.5 
Q 14.984375 11.71875 18.140625 8.90625 
Q 21.296875 6.109375 26.703125 6.109375 
Q 34.1875 6.109375 38.703125 11.40625 
Q 43.21875 16.703125 43.21875 25.484375 
L 43.21875 27.484375 
z
M 52.203125 31.203125 
L 52.203125 0 
L 43.21875 0 
L 43.21875 8.296875 
Q 40.140625 3.328125 35.546875 0.953125 
Q 30.953125 -1.421875 24.3125 -1.421875 
Q 15.921875 -1.421875 10.953125 3.296875 
Q 6 8.015625 6 15.921875 
Q 6 25.140625 12.171875 29.828125 
Q 18.359375 34.515625 30.609375 34.515625 
L 43.21875 34.515625 
L 43.21875 35.40625 
Q 43.21875 41.609375 39.140625 45 
Q 35.0625 48.390625 27.6875 48.390625 
Q 23 48.390625 18.546875 47.265625 
Q 14.109375 46.140625 10.015625 43.890625 
L 10.015625 52.203125 
Q 14.9375 54.109375 19.578125 55.046875 
Q 24.21875 56 28.609375 56 
Q 40.484375 56 46.34375 49.84375 
Q 52.203125 43.703125 52.203125 31.203125 
z
" id="DejaVuSans-97"/>
       <path d="M 44.28125 53.078125 
L 44.28125 44.578125 
Q 40.484375 46.53125 36.375 47.5 
Q 32.28125 48.484375 27.875 48.484375 
Q 21.1875 48.484375 17.84375 46.4375 
Q 14.5 44.390625 14.5 40.28125 
Q 14.5 37.15625 16.890625 35.375 
Q 19.28125 33.59375 26.515625 31.984375 
L 29.59375 31.296875 
Q 39.15625 29.25 43.1875 25.515625 
Q 47.21875 21.78125 47.21875 15.09375 
Q 47.21875 7.46875 41.1875 3.015625 
Q 35.15625 -1.421875 24.609375 -1.421875 
Q 20.21875 -1.421875 15.453125 -0.5625 
Q 10.6875 0.296875 5.421875 2 
L 5.421875 11.28125 
Q 10.40625 8.6875 15.234375 7.390625 
Q 20.0625 6.109375 24.8125 6.109375 
Q 31.15625 6.109375 34.5625 8.28125 
Q 37.984375 10.453125 37.984375 14.40625 
Q 37.984375 18.0625 35.515625 20.015625 
Q 33.0625 21.96875 24.703125 23.78125 
L 21.578125 24.515625 
Q 13.234375 26.265625 9.515625 29.90625 
Q 5.8125 33.546875 5.8125 39.890625 
Q 5.8125 47.609375 11.28125 51.796875 
Q 16.75 56 26.8125 56 
Q 31.78125 56 36.171875 55.265625 
Q 40.578125 54.546875 44.28125 53.078125 
z
" id="DejaVuSans-115"/>
       <path d="M 25.390625 72.90625 
L 33.6875 72.90625 
L 8.296875 -9.28125 
L 0 -9.28125 
z
" id="DejaVuSans-47"/>
       <path d="M 45.40625 46.390625 
L 45.40625 75.984375 
L 54.390625 75.984375 
L 54.390625 0 
L 45.40625 0 
L 45.40625 8.203125 
Q 42.578125 3.328125 38.25 0.953125 
Q 33.9375 -1.421875 27.875 -1.421875 
Q 17.96875 -1.421875 11.734375 6.484375 
Q 5.515625 14.40625 5.515625 27.296875 
Q 5.515625 40.1875 11.734375 48.09375 
Q 17.96875 56 27.875 56 
Q 33.9375 56 38.25 53.625 
Q 42.578125 51.265625 45.40625 46.390625 
z
M 14.796875 27.296875 
Q 14.796875 17.390625 18.875 11.75 
Q 22.953125 6.109375 30.078125 6.109375 
Q 37.203125 6.109375 41.296875 11.75 
Q 45.40625 17.390625 45.40625 27.296875 
Q 45.40625 37.203125 41.296875 42.84375 
Q 37.203125 48.484375 30.078125 48.484375 
Q 22.953125 48.484375 18.875 42.84375 
Q 14.796875 37.203125 14.796875 27.296875 
z
" id="DejaVuSans-100"/>
       <path d="M 9.421875 54.6875 
L 18.40625 54.6875 
L 18.40625 0 
L 9.421875 0 
z
M 9.421875 75.984375 
L 18.40625 75.984375 
L 18.40625 64.59375 
L 9.421875 64.59375 
z
" id="DejaVuSans-105"/>
       <path d="M 52 44.1875 
Q 55.375 50.25 60.0625 53.125 
Q 64.75 56 71.09375 56 
Q 79.640625 56 84.28125 50.015625 
Q 88.921875 44.046875 88.921875 33.015625 
L 88.921875 0 
L 79.890625 0 
L 79.890625 32.71875 
Q 79.890625 40.578125 77.09375 44.375 
Q 74.3125 48.1875 68.609375 48.1875 
Q 61.625 48.1875 57.5625 43.546875 
Q 53.515625 38.921875 53.515625 30.90625 
L 53.515625 0 
L 44.484375 0 
L 44.484375 32.71875 
Q 44.484375 40.625 41.703125 44.40625 
Q 38.921875 48.1875 33.109375 48.1875 
Q 26.21875 48.1875 22.15625 43.53125 
Q 18.109375 38.875 18.109375 30.90625 
L 18.109375 0 
L 9.078125 0 
L 9.078125 54.6875 
L 18.109375 54.6875 
L 18.109375 46.1875 
Q 21.1875 51.21875 25.484375 53.609375 
Q 29.78125 56 35.6875 56 
Q 41.65625 56 45.828125 52.96875 
Q 50 49.953125 52 44.1875 
z
" id="DejaVuSans-109"/>
       <path d="M 54.890625 33.015625 
L 54.890625 0 
L 45.90625 0 
L 45.90625 32.71875 
Q 45.90625 40.484375 42.875 44.328125 
Q 39.84375 48.1875 33.796875 48.1875 
Q 26.515625 48.1875 22.3125 43.546875 
Q 18.109375 38.921875 18.109375 30.90625 
L 18.109375 0 
L 9.078125 0 
L 9.078125 54.6875 
L 18.109375 54.6875 
L 18.109375 46.1875 
Q 21.34375 51.125 25.703125 53.5625 
Q 30.078125 56 35.796875 56 
Q 45.21875 56 50.046875 50.171875 
Q 54.890625 44.34375 54.890625 33.015625 
z
" id="DejaVuSans-110"/>
       <path d="M 8.015625 75.875 
L 15.828125 75.875 
Q 23.140625 64.359375 26.78125 53.3125 
Q 30.421875 42.28125 30.421875 31.390625 
Q 30.421875 20.453125 26.78125 9.375 
Q 23.140625 -1.703125 15.828125 -13.1875 
L 8.015625 -13.1875 
Q 14.5 -2 17.703125 9.0625 
Q 20.90625 20.125 20.90625 31.390625 
Q 20.90625 42.671875 17.703125 53.65625 
Q 14.5 64.65625 8.015625 75.875 
z
" id="DejaVuSans-41"/>
      </defs>
      <use xlink:href="#DejaVuSans-108"/>
      <use x="27.783203" xlink:href="#DejaVuSans-111"/>
      <use x="88.964844" xlink:href="#DejaVuSans-103"/>
      <use x="152.441406" xlink:href="#DejaVuSans-49"/>
      <use x="216.064453" xlink:href="#DejaVuSans-48"/>
      <use x="279.6875" xlink:href="#DejaVuSans-40"/>
      <use x="318.701172" xlink:href="#DejaVuSans-35"/>
      <use x="402.490234" xlink:href="#DejaVuSans-32"/>
      <use x="434.277344" xlink:href="#DejaVuSans-102"/>
      <use x="463.982422" xlink:href="#DejaVuSans-45"/>
      <use x="500.066406" xlink:href="#DejaVuSans-101"/>
      <use x="561.589844" xlink:href="#DejaVuSans-118"/>
      <use x="620.769531" xlink:href="#DejaVuSans-97"/>
      <use x="682.048828" xlink:href="#DejaVuSans-108"/>
      <use x="709.832031" xlink:href="#DejaVuSans-115"/>
      <use x="761.931641" xlink:href="#DejaVuSans-32"/>
      <use x="793.71875" xlink:href="#DejaVuSans-47"/>
      <use x="827.410156" xlink:href="#DejaVuSans-32"/>
      <use x="859.197266" xlink:href="#DejaVuSans-100"/>
      <use x="922.673828" xlink:href="#DejaVuSans-105"/>
      <use x="950.457031" xlink:href="#DejaVuSans-109"/>
      <use x="1047.869141" xlink:href="#DejaVuSans-101"/>
      <use x="1109.392578" xlink:href="#DejaVuSans-110"/>
      <use x="1172.771484" xlink:href="#DejaVuSans-115"/>
      <use x="1224.871094" xlink:href="#DejaVuSans-105"/>
      <use x="1252.654297" xlink:href="#DejaVuSans-111"/>
      <use x="1313.835938" xlink:href="#DejaVuSans-110"/>
      <use x="1377.214844" xlink:href="#DejaVuSans-41"/>
     </g>
    </g>
   </g>
   <g id="matplotlib.axis_2">
    <g id="ytick_1">
     <g id="line2d_21">
      <path clip-path="url(#pdfdf72d38b)" d="M 57.6 298.944 
L 338.688 298.944 
" style="fill:none;stroke:#b0b0b0;stroke-linecap:square;stroke-width:0.8;"/>
     </g>
     <g id="line2d_22">
      <defs>
       <path d="M 0 0 
L -3.5 0 
" id="m9bf025fad4" style="stroke:#000000;stroke-width:0.8;"/>
      </defs>
      <g>
       <use style="stroke:#000000;stroke-width:0.8;" x="57.6" xlink:href="#m9bf025fad4" y="298.944"/>
      </g>
     </g>
     <g id="text_6">
      <!-- 0.0 -->
      <g transform="translate(25.155 305.02275)scale(0.16 -0.16)">
       <defs>
        <path d="M 10.6875 12.40625 
L 21 12.40625 
L 21 0 
L 10.6875 0 
z
" id="DejaVuSans-46"/>
       </defs>
       <use xlink:href="#DejaVuSans-48"/>
       <use x="63.623047" xlink:href="#DejaVuSans-46"/>
       <use x="95.410156" xlink:href="#DejaVuSans-48"/>
      </g>
     </g>
    </g>
    <g id="ytick_2">
     <g id="line2d_23">
      <path clip-path="url(#pdfdf72d38b)" d="M 57.6 245.22202 
L 338.688 245.22202 
" style="fill:none;stroke:#b0b0b0;stroke-linecap:square;stroke-width:0.8;"/>
     </g>
     <g id="line2d_24">
      <g>
       <use style="stroke:#000000;stroke-width:0.8;" x="57.6" xlink:href="#m9bf025fad4" y="245.22202"/>
      </g>
     </g>
     <g id="text_7">
      <!-- 0.2 -->
      <g transform="translate(25.155 251.30077)scale(0.16 -0.16)">
       <use xlink:href="#DejaVuSans-48"/>
       <use x="63.623047" xlink:href="#DejaVuSans-46"/>
       <use x="95.410156" xlink:href="#DejaVuSans-50"/>
      </g>
     </g>
    </g>
    <g id="ytick_3">
     <g id="line2d_25">
      <path clip-path="url(#pdfdf72d38b)" d="M 57.6 191.50004 
L 338.688 191.50004 
" style="fill:none;stroke:#b0b0b0;stroke-linecap:square;stroke-width:0.8;"/>
     </g>
     <g id="line2d_26">
      <g>
       <use style="stroke:#000000;stroke-width:0.8;" x="57.6" xlink:href="#m9bf025fad4" y="191.50004"/>
      </g>
     </g>
     <g id="text_8">
      <!-- 0.4 -->
      <g transform="translate(25.155 197.57879)scale(0.16 -0.16)">
       <use xlink:href="#DejaVuSans-48"/>
       <use x="63.623047" xlink:href="#DejaVuSans-46"/>
       <use x="95.410156" xlink:href="#DejaVuSans-52"/>
      </g>
     </g>
    </g>
    <g id="ytick_4">
     <g id="line2d_27">
      <path clip-path="url(#pdfdf72d38b)" d="M 57.6 137.778059 
L 338.688 137.778059 
" style="fill:none;stroke:#b0b0b0;stroke-linecap:square;stroke-width:0.8;"/>
     </g>
     <g id="line2d_28">
      <g>
       <use style="stroke:#000000;stroke-width:0.8;" x="57.6" xlink:href="#m9bf025fad4" y="137.778059"/>
      </g>
     </g>
     <g id="text_9">
      <!-- 0.6 -->
      <g transform="translate(25.155 143.856809)scale(0.16 -0.16)">
       <use xlink:href="#DejaVuSans-48"/>
       <use x="63.623047" xlink:href="#DejaVuSans-46"/>
       <use x="95.410156" xlink:href="#DejaVuSans-54"/>
      </g>
     </g>
    </g>
    <g id="ytick_5">
     <g id="line2d_29">
      <path clip-path="url(#pdfdf72d38b)" d="M 57.6 84.056079 
L 338.688 84.056079 
" style="fill:none;stroke:#b0b0b0;stroke-linecap:square;stroke-width:0.8;"/>
     </g>
     <g id="line2d_30">
      <g>
       <use style="stroke:#000000;stroke-width:0.8;" x="57.6" xlink:href="#m9bf025fad4" y="84.056079"/>
      </g>
     </g>
     <g id="text_10">
      <!-- 0.8 -->
      <g transform="translate(25.155 90.134829)scale(0.16 -0.16)">
       <defs>
        <path d="M 31.78125 34.625 
Q 24.75 34.625 20.71875 30.859375 
Q 16.703125 27.09375 16.703125 20.515625 
Q 16.703125 13.921875 20.71875 10.15625 
Q 24.75 6.390625 31.78125 6.390625 
Q 38.8125 6.390625 42.859375 10.171875 
Q 46.921875 13.96875 46.921875 20.515625 
Q 46.921875 27.09375 42.890625 30.859375 
Q 38.875 34.625 31.78125 34.625 
z
M 21.921875 38.8125 
Q 15.578125 40.375 12.03125 44.71875 
Q 8.5 49.078125 8.5 55.328125 
Q 8.5 64.0625 14.71875 69.140625 
Q 20.953125 74.21875 31.78125 74.21875 
Q 42.671875 74.21875 48.875 69.140625 
Q 55.078125 64.0625 55.078125 55.328125 
Q 55.078125 49.078125 51.53125 44.71875 
Q 48 40.375 41.703125 38.8125 
Q 48.828125 37.15625 52.796875 32.3125 
Q 56.78125 27.484375 56.78125 20.515625 
Q 56.78125 9.90625 50.3125 4.234375 
Q 43.84375 -1.421875 31.78125 -1.421875 
Q 19.734375 -1.421875 13.25 4.234375 
Q 6.78125 9.90625 6.78125 20.515625 
Q 6.78125 27.484375 10.78125 32.3125 
Q 14.796875 37.15625 21.921875 38.8125 
z
M 18.3125 54.390625 
Q 18.3125 48.734375 21.84375 45.5625 
Q 25.390625 42.390625 31.78125 42.390625 
Q 38.140625 42.390625 41.71875 45.5625 
Q 45.3125 48.734375 45.3125 54.390625 
Q 45.3125 60.0625 41.71875 63.234375 
Q 38.140625 66.40625 31.78125 66.40625 
Q 25.390625 66.40625 21.84375 63.234375 
Q 18.3125 60.0625 18.3125 54.390625 
z
" id="DejaVuSans-56"/>
       </defs>
       <use xlink:href="#DejaVuSans-48"/>
       <use x="63.623047" xlink:href="#DejaVuSans-46"/>
       <use x="95.410156" xlink:href="#DejaVuSans-56"/>
      </g>
     </g>
    </g>
    <g id="ytick_6">
     <g id="line2d_31">
      <path clip-path="url(#pdfdf72d38b)" d="M 57.6 30.334099 
L 338.688 30.334099 
" style="fill:none;stroke:#b0b0b0;stroke-linecap:square;stroke-width:0.8;"/>
     </g>
     <g id="line2d_32">
      <g>
       <use style="stroke:#000000;stroke-width:0.8;" x="57.6" xlink:href="#m9bf025fad4" y="30.334099"/>
      </g>
     </g>
     <g id="text_11">
      <!-- 1.0 -->
      <g transform="translate(25.155 36.412849)scale(0.16 -0.16)">
       <use xlink:href="#DejaVuSans-49"/>
       <use x="63.623047" xlink:href="#DejaVuSans-46"/>
       <use x="95.410156" xlink:href="#DejaVuSans-48"/>
      </g>
     </g>
    </g>
    <g id="text_12">
     <!-- Fraction of function,target pairs -->
     <g transform="translate(17.619531 297.681)rotate(-90)scale(0.17 -0.17)">
      <defs>
       <path d="M 9.8125 72.90625 
L 51.703125 72.90625 
L 51.703125 64.59375 
L 19.671875 64.59375 
L 19.671875 43.109375 
L 48.578125 43.109375 
L 48.578125 34.8125 
L 19.671875 34.8125 
L 19.671875 0 
L 9.8125 0 
z
" id="DejaVuSans-70"/>
       <path d="M 41.109375 46.296875 
Q 39.59375 47.171875 37.8125 47.578125 
Q 36.03125 48 33.890625 48 
Q 26.265625 48 22.1875 43.046875 
Q 18.109375 38.09375 18.109375 28.8125 
L 18.109375 0 
L 9.078125 0 
L 9.078125 54.6875 
L 18.109375 54.6875 
L 18.109375 46.1875 
Q 20.953125 51.171875 25.484375 53.578125 
Q 30.03125 56 36.53125 56 
Q 37.453125 56 38.578125 55.875 
Q 39.703125 55.765625 41.0625 55.515625 
z
" id="DejaVuSans-114"/>
       <path d="M 48.78125 52.59375 
L 48.78125 44.1875 
Q 44.96875 46.296875 41.140625 47.34375 
Q 37.3125 48.390625 33.40625 48.390625 
Q 24.65625 48.390625 19.8125 42.84375 
Q 14.984375 37.3125 14.984375 27.296875 
Q 14.984375 17.28125 19.8125 11.734375 
Q 24.65625 6.203125 33.40625 6.203125 
Q 37.3125 6.203125 41.140625 7.25 
Q 44.96875 8.296875 48.78125 10.40625 
L 48.78125 2.09375 
Q 45.015625 0.34375 40.984375 -0.53125 
Q 36.96875 -1.421875 32.421875 -1.421875 
Q 20.0625 -1.421875 12.78125 6.34375 
Q 5.515625 14.109375 5.515625 27.296875 
Q 5.515625 40.671875 12.859375 48.328125 
Q 20.21875 56 33.015625 56 
Q 37.15625 56 41.109375 55.140625 
Q 45.0625 54.296875 48.78125 52.59375 
z
" id="DejaVuSans-99"/>
       <path d="M 18.3125 70.21875 
L 18.3125 54.6875 
L 36.8125 54.6875 
L 36.8125 47.703125 
L 18.3125 47.703125 
L 18.3125 18.015625 
Q 18.3125 11.328125 20.140625 9.421875 
Q 21.96875 7.515625 27.59375 7.515625 
L 36.8125 7.515625 
L 36.8125 0 
L 27.59375 0 
Q 17.1875 0 13.234375 3.875 
Q 9.28125 7.765625 9.28125 18.015625 
L 9.28125 47.703125 
L 2.6875 47.703125 
L 2.6875 54.6875 
L 9.28125 54.6875 
L 9.28125 70.21875 
z
" id="DejaVuSans-116"/>
       <path d="M 8.5 21.578125 
L 8.5 54.6875 
L 17.484375 54.6875 
L 17.484375 21.921875 
Q 17.484375 14.15625 20.5 10.265625 
Q 23.53125 6.390625 29.59375 6.390625 
Q 36.859375 6.390625 41.078125 11.03125 
Q 45.3125 15.671875 45.3125 23.6875 
L 45.3125 54.6875 
L 54.296875 54.6875 
L 54.296875 0 
L 45.3125 0 
L 45.3125 8.40625 
Q 42.046875 3.421875 37.71875 1 
Q 33.40625 -1.421875 27.6875 -1.421875 
Q 18.265625 -1.421875 13.375 4.4375 
Q 8.5 10.296875 8.5 21.578125 
z
M 31.109375 56 
z
" id="DejaVuSans-117"/>
       <path d="M 11.71875 12.40625 
L 22.015625 12.40625 
L 22.015625 4 
L 14.015625 -11.625 
L 7.71875 -11.625 
L 11.71875 4 
z
" id="DejaVuSans-44"/>
       <path d="M 18.109375 8.203125 
L 18.109375 -20.796875 
L 9.078125 -20.796875 
L 9.078125 54.6875 
L 18.109375 54.6875 
L 18.109375 46.390625 
Q 20.953125 51.265625 25.265625 53.625 
Q 29.59375 56 35.59375 56 
Q 45.5625 56 51.78125 48.09375 
Q 58.015625 40.1875 58.015625 27.296875 
Q 58.015625 14.40625 51.78125 6.484375 
Q 45.5625 -1.421875 35.59375 -1.421875 
Q 29.59375 -1.421875 25.265625 0.953125 
Q 20.953125 3.328125 18.109375 8.203125 
z
M 48.6875 27.296875 
Q 48.6875 37.203125 44.609375 42.84375 
Q 40.53125 48.484375 33.40625 48.484375 
Q 26.265625 48.484375 22.1875 42.84375 
Q 18.109375 37.203125 18.109375 27.296875 
Q 18.109375 17.390625 22.1875 11.75 
Q 26.265625 6.109375 33.40625 6.109375 
Q 40.53125 6.109375 44.609375 11.75 
Q 48.6875 17.390625 48.6875 27.296875 
z
" id="DejaVuSans-112"/>
      </defs>
      <use xlink:href="#DejaVuSans-70"/>
      <use x="50.269531" xlink:href="#DejaVuSans-114"/>
      <use x="91.382812" xlink:href="#DejaVuSans-97"/>
      <use x="152.662109" xlink:href="#DejaVuSans-99"/>
      <use x="207.642578" xlink:href="#DejaVuSans-116"/>
      <use x="246.851562" xlink:href="#DejaVuSans-105"/>
      <use x="274.634766" xlink:href="#DejaVuSans-111"/>
      <use x="335.816406" xlink:href="#DejaVuSans-110"/>
      <use x="399.195312" xlink:href="#DejaVuSans-32"/>
      <use x="430.982422" xlink:href="#DejaVuSans-111"/>
      <use x="492.164062" xlink:href="#DejaVuSans-102"/>
      <use x="527.369141" xlink:href="#DejaVuSans-32"/>
      <use x="559.15625" xlink:href="#DejaVuSans-102"/>
      <use x="594.361328" xlink:href="#DejaVuSans-117"/>
      <use x="657.740234" xlink:href="#DejaVuSans-110"/>
      <use x="721.119141" xlink:href="#DejaVuSans-99"/>
      <use x="776.099609" xlink:href="#DejaVuSans-116"/>
      <use x="815.308594" xlink:href="#DejaVuSans-105"/>
      <use x="843.091797" xlink:href="#DejaVuSans-111"/>
      <use x="904.273438" xlink:href="#DejaVuSans-110"/>
      <use x="967.652344" xlink:href="#DejaVuSans-44"/>
      <use x="999.439453" xlink:href="#DejaVuSans-116"/>
      <use x="1038.648438" xlink:href="#DejaVuSans-97"/>
      <use x="1099.927734" xlink:href="#DejaVuSans-114"/>
      <use x="1139.291016" xlink:href="#DejaVuSans-103"/>
      <use x="1202.767578" xlink:href="#DejaVuSans-101"/>
      <use x="1264.291016" xlink:href="#DejaVuSans-116"/>
      <use x="1303.5" xlink:href="#DejaVuSans-32"/>
      <use x="1335.287109" xlink:href="#DejaVuSans-112"/>
      <use x="1398.763672" xlink:href="#DejaVuSans-97"/>
      <use x="1460.042969" xlink:href="#DejaVuSans-105"/>
      <use x="1487.826172" xlink:href="#DejaVuSans-114"/>
      <use x="1528.939453" xlink:href="#DejaVuSans-115"/>
     </g>
    </g>
   </g>
   <g id="line2d_33">
    <defs>
     <path d="M 0 1.5 
C 0.397805 1.5 0.77937 1.341951 1.06066 1.06066 
C 1.341951 0.77937 1.5 0.397805 1.5 0 
C 1.5 -0.397805 1.341951 -0.77937 1.06066 -1.06066 
C 0.77937 -1.341951 0.397805 -1.5 0 -1.5 
C -0.397805 -1.5 -0.77937 -1.341951 -1.06066 -1.06066 
C -1.341951 -0.77937 -1.5 -0.397805 -1.5 0 
C -1.5 0.397805 -1.341951 0.77937 -1.06066 1.06066 
C -0.77937 1.341951 -0.397805 1.5 0 1.5 
z
" id="m3816dcccba" style="stroke:#f5deb3;"/>
    </defs>
    <g>
     <use style="fill:#f5deb3;stroke:#f5deb3;" x="261.188307" xlink:href="#m3816dcccba" y="62.752535"/>
     <use style="fill:#f5deb3;stroke:#f5deb3;" x="261.188307" xlink:href="#m3816dcccba" y="62.752535"/>
    </g>
   </g>
   <g id="line2d_34">
    <defs>
     <path d="M 0 1.5 
C 0.397805 1.5 0.77937 1.341951 1.06066 1.06066 
C 1.341951 0.77937 1.5 0.397805 1.5 0 
C 1.5 -0.397805 1.341951 -0.77937 1.06066 -1.06066 
C 0.77937 -1.341951 0.397805 -1.5 0 -1.5 
C -0.397805 -1.5 -0.77937 -1.341951 -1.06066 -1.06066 
C -1.341951 -0.77937 -1.5 -0.397805 -1.5 0 
C -1.5 0.397805 -1.341951 0.77937 -1.06066 1.06066 
C -0.77937 1.341951 -0.397805 1.5 0 1.5 
z
" id="m1f3dc4dc06" style="stroke:#000080;"/>
    </defs>
    <g>
     <use style="fill:#000080;stroke:#000080;" x="248.882904" xlink:href="#m1f3dc4dc06" y="120.6426"/>
     <use style="fill:#000080;stroke:#000080;" x="248.882904" xlink:href="#m1f3dc4dc06" y="120.6426"/>
    </g>
   </g>
   <g id="line2d_35">
    <path d="M 38.440992 298.944 
L 38.440992 292.923433 
L 57.6 292.923433 
L 57.6 291.534072 
L 66.508432 291.534072 
L 66.508432 289.218469 
L 69.687988 289.218469 
L 69.687988 286.902867 
L 72.376266 286.902867 
L 72.376266 285.513505 
L 80.258561 285.513505 
L 80.258561 285.050384 
L 83.171864 285.050384 
L 83.171864 284.124143 
L 85.66744 284.124143 
L 85.66744 283.661023 
L 86.792945 283.661023 
L 86.792945 282.271661 
L 87.850195 282.271661 
L 87.850195 280.8823 
L 91.535274 280.8823 
L 91.535274 279.956059 
L 93.121756 279.956059 
L 93.121756 279.492938 
L 95.918017 279.492938 
L 95.918017 279.029818 
L 100.443706 279.029818 
L 100.443706 277.640456 
L 101.412804 277.640456 
L 101.412804 276.251095 
L 105.209745 276.251095 
L 105.209745 275.787974 
L 109.550313 275.787974 
L 109.550313 274.398612 
L 109.843417 274.398612 
L 109.843417 273.009251 
L 110.131676 273.009251 
L 110.131676 269.304287 
L 113.26352 269.304287 
L 113.26352 268.378046 
L 113.500792 268.378046 
L 113.500792 267.914925 
L 113.965867 267.914925 
L 113.965867 266.525564 
L 115.711251 266.525564 
L 115.711251 265.136202 
L 116.719583 265.136202 
L 116.719583 262.357479 
L 117.857331 262.357479 
L 117.857331 261.894358 
L 118.039942 261.894358 
L 118.039942 260.968117 
L 118.925375 260.968117 
L 118.925375 259.578756 
L 120.254726 259.578756 
L 120.254726 259.115635 
L 121.785469 259.115635 
L 121.785469 258.189394 
L 124.114161 258.189394 
L 124.114161 257.263153 
L 125.110962 257.263153 
L 125.110962 255.873792 
L 125.351508 255.873792 
L 125.351508 255.410671 
L 125.706218 255.410671 
L 125.706218 254.48443 
L 126.729009 254.48443 
L 126.729009 253.558189 
L 128.310692 253.558189 
L 128.310692 253.095069 
L 128.511146 253.095069 
L 128.511146 252.631948 
L 128.709321 252.631948 
L 128.709321 251.705707 
L 131.938072 251.705707 
L 131.938072 251.242587 
L 132.581068 251.242587 
L 132.581068 250.316346 
L 132.816208 250.316346 
L 132.816208 249.390104 
L 133.800029 249.390104 
L 133.800029 248.463863 
L 135.681535 248.463863 
L 135.681535 248.000743 
L 144.148442 248.000743 
L 144.148442 247.074502 
L 144.94308 247.074502 
L 144.94308 246.611381 
L 145.403044 246.611381 
L 145.403044 245.68514 
L 145.703082 245.68514 
L 145.703082 244.758899 
L 146.608752 244.758899 
L 146.608752 244.295779 
L 146.819289 244.295779 
L 146.819289 243.369538 
L 147.402367 243.369538 
L 147.50327 241.517056 
L 148.826773 241.517056 
L 148.888835 239.664574 
L 148.950676 239.664574 
L 148.950676 239.201453 
L 149.377533 239.201453 
L 149.437669 237.348971 
L 149.527485 237.348971 
L 149.616841 235.033368 
L 149.676158 235.033368 
L 149.676158 234.570248 
L 154.596634 234.570248 
L 154.596634 234.107127 
L 154.752243 234.107127 
L 154.752243 233.180886 
L 155.46769 233.180886 
L 155.46769 232.717766 
L 155.6368 232.717766 
L 155.6368 231.791525 
L 157.089232 231.791525 
L 157.089232 230.402163 
L 157.604152 230.402163 
L 157.697862 228.549681 
L 157.846757 228.549681 
L 157.86528 227.62344 
L 158.501489 227.62344 
L 158.501489 226.697199 
L 158.924708 226.697199 
L 158.994256 224.381596 
L 159.286782 224.381596 
L 159.286782 223.918476 
L 161.838011 223.918476 
L 161.838011 222.529114 
L 162.043181 222.529114 
L 162.043181 222.065994 
L 162.346481 222.065994 
L 162.346481 220.676632 
L 162.559939 220.676632 
L 162.559939 219.750391 
L 163.388564 219.750391 
L 163.388564 219.287271 
L 163.946031 219.287271 
L 163.946031 218.82415 
L 164.837283 218.82415 
L 164.837283 217.434789 
L 165.132663 217.434789 
L 165.132663 216.508548 
L 165.779524 216.508548 
L 165.779524 216.045427 
L 166.617505 216.045427 
L 166.617505 215.582307 
L 167.745812 215.582307 
L 167.745812 214.656066 
L 167.871425 214.656066 
L 167.923499 213.729825 
L 168.171308 213.729825 
L 168.171308 213.266704 
L 168.48627 213.266704 
L 168.576655 211.877342 
L 170.934121 211.877342 
L 170.934121 210.951101 
L 172.514135 210.951101 
L 172.514135 210.02486 
L 172.948265 210.02486 
L 173.01052 209.098619 
L 173.072554 209.098619 
L 173.072554 208.635499 
L 175.604215 208.635499 
L 175.604215 207.709258 
L 175.817135 207.709258 
L 175.817135 206.783017 
L 175.975136 206.783017 
L 175.975136 206.319896 
L 176.24824 206.319896 
L 176.338333 205.393655 
L 176.466234 205.393655 
L 176.466234 204.467414 
L 178.944811 204.467414 
L 178.944811 204.004294 
L 181.798912 204.004294 
L 181.798912 203.541173 
L 182.078244 203.541173 
L 182.078244 203.078053 
L 182.681928 203.078053 
L 182.681928 202.151812 
L 183.278351 202.151812 
L 183.278351 201.225571 
L 185.233922 201.225571 
L 185.233922 200.299329 
L 185.720384 200.299329 
L 185.720384 199.373088 
L 186.625955 199.373088 
L 186.732379 198.446847 
L 187.594861 198.446847 
L 187.69555 197.057486 
L 187.994175 197.057486 
L 187.994175 196.594365 
L 188.671702 196.594365 
L 188.671702 194.741883 
L 188.947974 194.741883 
L 188.947974 193.352522 
L 189.311691 193.352522 
L 189.311691 192.889401 
L 189.846385 192.889401 
L 189.846385 192.426281 
L 190.063938 192.426281 
L 190.110621 191.036919 
L 190.284581 191.036919 
L 190.301882 188.258196 
L 190.785074 188.258196 
L 190.785074 187.331955 
L 192.558734 187.331955 
L 192.558734 186.868834 
L 192.857493 186.868834 
L 192.857493 186.405714 
L 192.993864 186.405714 
L 192.993864 185.942593 
L 194.085222 185.942593 
L 194.085222 185.479473 
L 195.286397 185.479473 
L 195.286397 184.553232 
L 195.411549 184.553232 
L 195.510174 183.16387 
L 196.391859 183.16387 
L 196.391859 180.848268 
L 197.283328 180.848268 
L 197.283328 180.385147 
L 197.828974 180.385147 
L 197.873839 178.532665 
L 198.79028 178.532665 
L 198.838042 177.606424 
L 198.924388 177.606424 
L 198.924388 177.143304 
L 199.85201 177.143304 
L 199.85201 176.680183 
L 199.999724 176.680183 
L 200.04429 174.827701 
L 200.198563 174.827701 
L 200.198563 174.36458 
L 201.4545 174.36458 
L 201.4545 173.90146 
L 201.670577 173.90146 
L 201.670577 173.438339 
L 202.191324 173.438339 
L 202.191324 172.512098 
L 202.460338 172.512098 
L 202.509067 171.585857 
L 203.077897 171.585857 
L 203.077897 171.122737 
L 203.581716 171.122737 
L 203.581716 170.659616 
L 204.374936 170.659616 
L 204.374936 169.733375 
L 204.533674 169.733375 
L 204.533674 169.270255 
L 204.756527 169.270255 
L 204.756527 166.954652 
L 204.878143 166.954652 
L 204.878143 166.491532 
L 205.466571 166.491532 
L 205.55453 165.565291 
L 206.17669 165.565291 
L 206.17669 165.10217 
L 206.522329 165.10217 
L 206.543919 163.712808 
L 207.027721 163.712808 
L 207.027721 162.786567 
L 207.234144 162.786567 
L 207.234144 162.323447 
L 208.231128 162.323447 
L 208.231128 161.860326 
L 208.407543 161.860326 
L 208.430998 160.470965 
L 208.587242 160.470965 
L 208.587242 160.007844 
L 209.029044 160.007844 
L 209.123326 158.155362 
L 209.941279 158.155362 
L 209.941279 157.692242 
L 210.238728 157.692242 
L 210.238728 157.229121 
L 210.685007 157.229121 
L 210.685007 156.766001 
L 210.809937 156.766001 
L 210.809937 156.30288 
L 210.923381 156.30288 
L 210.923381 155.376639 
L 211.54214 155.376639 
L 211.54214 154.913519 
L 212.052143 154.913519 
L 212.052143 153.987278 
L 212.256297 153.987278 
L 212.256297 153.061037 
L 212.723827 153.061037 
L 212.723827 152.134795 
L 213.062326 152.134795 
L 213.062326 151.671675 
L 213.214819 151.671675 
L 213.269731 150.745434 
L 213.672758 150.745434 
L 213.67653 149.356072 
L 214.055611 149.356072 
L 214.082902 147.966711 
L 214.304073 147.966711 
L 214.304073 147.50359 
L 214.513847 147.50359 
L 214.612792 146.114229 
L 214.910518 146.114229 
L 214.910518 145.651108 
L 215.489784 145.651108 
L 215.517638 144.724867 
L 216.454564 144.724867 
L 216.454564 144.261747 
L 216.679549 144.261747 
L 216.78402 143.335506 
L 216.91671 143.335506 
L 216.91671 142.409265 
L 217.076356 142.409265 
L 217.076356 141.946144 
L 217.225323 141.946144 
L 217.225323 141.019903 
L 217.396205 141.019903 
L 217.396205 140.556783 
L 217.708497 140.556783 
L 217.786747 139.167421 
L 218.432612 139.167421 
L 218.432612 138.24118 
L 219.55363 138.24118 
L 219.55363 137.314939 
L 219.686685 137.314939 
L 219.686685 136.388698 
L 220.059998 136.388698 
L 220.088225 134.536216 
L 220.21313 134.536216 
L 220.21313 133.609975 
L 220.391642 133.609975 
L 220.391642 133.146854 
L 221.322131 133.146854 
L 221.322131 132.683734 
L 221.451096 132.683734 
L 221.451096 132.220613 
L 221.828584 132.220613 
L 221.828584 131.294372 
L 222.485855 131.294372 
L 222.485855 130.831252 
L 222.689508 130.831252 
L 222.689508 129.905011 
L 224.402703 129.905011 
L 224.402703 129.44189 
L 224.764344 129.44189 
L 224.764344 128.515649 
L 225.199086 128.515649 
L 225.199086 127.126287 
L 225.520662 127.126287 
L 225.520662 126.200046 
L 225.811228 126.200046 
L 225.811228 125.736926 
L 228.117334 125.736926 
L 228.117334 124.810685 
L 228.491335 124.810685 
L 228.491335 124.347564 
L 228.892197 124.347564 
L 228.910788 122.958203 
L 230.766959 122.958203 
L 230.766959 122.495082 
L 231.278369 122.495082 
L 231.278369 122.031962 
L 235.426443 122.031962 
L 235.426443 121.568841 
L 248.882904 121.568841 
L 248.882904 120.6426 
L 338.688 120.6426 
L 338.688 120.6426 
" style="fill:none;stroke:#000080;stroke-linecap:square;stroke-width:1.5;"/>
   </g>
   <g id="line2d_36">
    <defs>
     <path d="M 0 6 
C 1.591219 6 3.117479 5.367802 4.242641 4.242641 
C 5.367802 3.117479 6 1.591219 6 0 
C 6 -1.591219 5.367802 -3.117479 4.242641 -4.242641 
C 3.117479 -5.367802 1.591219 -6 0 -6 
C -1.591219 -6 -3.117479 -5.367802 -4.242641 -4.242641 
C -5.367802 -3.117479 -6 -1.591219 -6 0 
C -6 1.591219 -5.367802 3.117479 -4.242641 4.242641 
C -3.117479 5.367802 -1.591219 6 0 6 
z
" id="m48c8e3605c" style="stroke:#000080;stroke-width:1.5;"/>
    </defs>
    <g>
     <use style="fill-opacity:0;stroke:#000080;stroke-width:1.5;" x="105.209745" xlink:href="#m48c8e3605c" y="275.787974"/>
     <use style="fill-opacity:0;stroke:#000080;stroke-width:1.5;" x="163.946031" xlink:href="#m48c8e3605c" y="219.287271"/>
     <use style="fill-opacity:0;stroke:#000080;stroke-width:1.5;" x="214.082902" xlink:href="#m48c8e3605c" y="148.892952"/>
     <use style="fill-opacity:0;stroke:#000080;stroke-width:1.5;" x="248.882904" xlink:href="#m48c8e3605c" y="120.6426"/>
     <use style="fill-opacity:0;stroke:#000080;stroke-width:1.5;" x="248.882904" xlink:href="#m48c8e3605c" y="120.6426"/>
     <use style="fill-opacity:0;stroke:#000080;stroke-width:1.5;" x="338.688" xlink:href="#m48c8e3605c" y="120.6426"/>
    </g>
   </g>
   <g id="line2d_37">
    <path style="fill:none;stroke:#000080;stroke-linecap:square;stroke-width:1.5;"/>
    <g/>
   </g>
   <g id="line2d_38">
    <path clip-path="url(#pdfdf72d38b)" d="M 258.377608 120.6426 
" style="fill:none;stroke:#000080;stroke-linecap:square;stroke-width:1.5;"/>
    <defs>
     <path d="M -12 12 
L 12 -12 
M -12 -12 
L 12 12 
" id="mb964abb4b6" style="stroke:#000080;"/>
    </defs>
    <g clip-path="url(#pdfdf72d38b)">
     <use style="fill:#000080;stroke:#000080;" x="258.377608" xlink:href="#mb964abb4b6" y="120.6426"/>
    </g>
   </g>
   <g id="line2d_39">
    <defs>
     <path d="M 0 1.5 
C 0.397805 1.5 0.77937 1.341951 1.06066 1.06066 
C 1.341951 0.77937 1.5 0.397805 1.5 0 
C 1.5 -0.397805 1.341951 -0.77937 1.06066 -1.06066 
C 0.77937 -1.341951 0.397805 -1.5 0 -1.5 
C -0.397805 -1.5 -0.77937 -1.341951 -1.06066 -1.06066 
C -1.341951 -0.77937 -1.5 -0.397805 -1.5 0 
C -1.5 0.397805 -1.341951 0.77937 -1.06066 1.06066 
C -0.77937 1.341951 -0.397805 1.5 0 1.5 
z
" id="me1883b9bbf" style="stroke:#ff00ff;"/>
    </defs>
    <g>
     <use style="fill:#ff00ff;stroke:#ff00ff;" x="254.839" xlink:href="#me1883b9bbf" y="113.695792"/>
     <use style="fill:#ff00ff;stroke:#ff00ff;" x="254.839" xlink:href="#me1883b9bbf" y="113.695792"/>
    </g>
   </g>
   <g id="line2d_40">
    <path d="M 38.440992 298.944 
L 38.440992 289.68159 
L 137.968891 289.68159 
L 137.968891 288.292228 
L 139.413734 288.292228 
L 139.413734 287.829108 
L 140.89556 287.829108 
L 140.89556 285.976625 
L 141.090414 285.976625 
L 141.090414 283.661023 
L 142.840411 283.661023 
L 142.840411 283.197902 
L 144.981877 283.197902 
L 144.981877 281.34542 
L 145.665858 281.34542 
L 145.665858 277.640456 
L 146.034567 277.640456 
L 146.034567 274.861733 
L 146.679213 274.861733 
L 146.679213 274.398612 
L 146.888907 274.398612 
L 146.888907 273.472371 
L 147.232888 273.472371 
L 147.232888 273.009251 
L 147.570215 273.009251 
L 147.570215 272.08301 
L 148.064279 272.08301 
L 148.064279 271.619889 
L 148.193699 271.619889 
L 148.193699 266.988684 
L 149.043029 266.988684 
L 149.043029 266.062443 
L 149.256637 266.062443 
L 149.256637 262.8206 
L 149.676158 262.8206 
L 149.676158 261.431238 
L 150.143571 261.431238 
L 150.229833 259.578756 
L 150.31567 259.578756 
L 150.344189 257.726274 
L 150.904986 257.726274 
L 150.904986 257.263153 
L 151.042412 257.263153 
L 151.042412 256.800033 
L 151.233007 256.800033 
L 151.287083 253.558189 
L 151.501723 253.558189 
L 151.581536 251.705707 
L 151.634543 251.705707 
L 151.634543 251.242587 
L 151.792604 251.242587 
L 151.792604 250.779466 
L 151.975216 250.779466 
L 151.975216 249.853225 
L 152.104493 249.853225 
L 152.181601 247.537622 
L 152.761703 247.537622 
L 152.761703 245.22202 
L 153.032466 245.22202 
L 153.129893 241.980176 
L 153.561699 241.980176 
L 153.656221 239.664574 
L 153.843742 239.664574 
L 153.913546 237.812091 
L 153.959927 237.812091 
L 153.959927 237.348971 
L 154.144227 237.348971 
L 154.144227 236.88585 
L 154.663493 236.88585 
L 154.707925 235.959609 
L 154.928399 235.959609 
L 155.015814 234.570248 
L 155.102793 234.570248 
L 155.210911 232.254645 
L 155.275461 232.254645 
L 155.339773 230.402163 
L 155.55245 230.402163 
L 155.573575 228.549681 
L 155.699795 228.549681 
L 155.741666 226.234079 
L 155.908152 226.234079 
L 155.908152 224.381596 
L 156.031982 224.381596 
L 156.031982 223.918476 
L 156.638275 223.918476 
L 156.677955 222.065994 
L 156.855406 222.065994 
L 156.855406 221.139753 
L 157.031069 221.139753 
L 157.031069 220.676632 
L 157.243392 220.676632 
L 157.28172 218.36103 
L 157.396202 218.36103 
L 157.472107 216.971668 
L 157.772468 216.971668 
L 157.828215 214.192945 
L 157.994392 214.192945 
L 157.994392 213.266704 
L 158.447857 213.266704 
L 158.447857 212.803583 
L 158.625992 212.803583 
L 158.625992 212.340463 
L 158.889829 212.340463 
L 158.889829 211.877342 
L 159.115303 211.877342 
L 159.201253 210.487981 
L 159.286782 210.487981 
L 159.388866 208.172378 
L 159.405822 208.172378 
L 159.405822 207.709258 
L 159.658204 207.709258 
L 159.724893 206.319896 
L 159.807898 206.319896 
L 159.807898 205.856776 
L 160.054568 205.856776 
L 160.054568 205.393655 
L 160.616915 205.393655 
L 160.616915 204.930535 
L 160.774311 204.930535 
L 160.883648 203.078053 
L 161.238149 203.078053 
L 161.253399 201.688691 
L 161.359783 201.688691 
L 161.359783 200.299329 
L 161.510643 200.299329 
L 161.570623 198.446847 
L 162.317821 198.446847 
L 162.317821 197.983727 
L 162.432178 197.983727 
L 162.432178 197.057486 
L 162.992975 197.057486 
L 163.048075 195.668124 
L 163.52292 195.668124 
L 163.52292 194.741883 
L 163.682792 194.741883 
L 163.722532 192.889401 
L 163.814908 192.889401 
L 163.814908 192.426281 
L 164.923954 192.426281 
L 164.973287 191.50004 
L 165.059286 191.50004 
L 165.071537 190.573799 
L 165.411116 190.573799 
L 165.411116 189.647558 
L 165.55465 189.647558 
L 165.637836 186.868834 
L 165.720627 186.868834 
L 165.720627 186.405714 
L 166.939538 186.405714 
L 166.939538 185.016352 
L 167.136471 185.016352 
L 167.136471 184.090111 
L 167.438457 184.090111 
L 167.438457 183.626991 
L 167.640438 183.626991 
L 167.640438 182.70075 
L 168.11997 182.70075 
L 168.181557 180.848268 
L 169.157854 180.848268 
L 169.157854 179.922027 
L 169.971772 179.922027 
L 169.971772 179.458906 
L 170.219663 179.458906 
L 170.219663 178.532665 
L 170.419074 178.532665 
L 170.419074 178.069545 
L 170.802371 178.069545 
L 170.85519 177.143304 
L 171.754542 177.143304 
L 171.754542 176.680183 
L 171.879317 176.680183 
L 171.895887 174.827701 
L 172.06072 174.827701 
L 172.06072 174.36458 
L 172.183331 174.36458 
L 172.183331 173.438339 
L 174.584164 173.438339 
L 174.584164 172.975219 
L 175.163549 172.975219 
L 175.163549 172.512098 
L 175.408984 172.512098 
L 175.408984 171.585857 
L 176.203019 171.585857 
L 176.203019 170.196496 
L 177.354379 170.196496 
L 177.354379 169.270255 
L 178.037196 169.270255 
L 178.037196 168.807134 
L 178.542219 168.807134 
L 178.542219 168.344014 
L 180.202817 168.344014 
L 180.274668 165.10217 
L 180.589355 165.10217 
L 180.589355 164.63905 
L 181.756623 164.63905 
L 181.756623 164.175929 
L 182.632784 164.175929 
L 182.632784 163.249688 
L 183.07017 163.249688 
L 183.07017 162.323447 
L 183.875892 162.323447 
L 183.875892 161.860326 
L 184.602123 161.860326 
L 184.602123 161.397206 
L 185.1528 161.397206 
L 185.1528 160.470965 
L 185.637733 160.470965 
L 185.637733 160.007844 
L 191.953277 160.007844 
L 191.953277 159.081603 
L 192.11247 159.081603 
L 192.11247 158.618483 
L 195.84474 158.618483 
L 195.84474 158.155362 
L 197.59911 158.155362 
L 197.59911 157.692242 
L 200.538363 157.692242 
L 200.538363 156.766001 
L 202.926244 156.766001 
L 202.926244 155.83976 
L 204.590925 155.83976 
L 204.62265 154.450398 
L 205.209811 154.450398 
L 205.209811 153.987278 
L 205.335622 153.987278 
L 205.335622 153.524157 
L 205.738644 153.524157 
L 205.738644 152.597916 
L 206.510955 152.597916 
L 206.510955 152.134795 
L 207.529613 152.134795 
L 207.529613 151.208554 
L 208.913443 151.208554 
L 208.913443 150.745434 
L 209.408936 150.745434 
L 209.408936 150.282313 
L 210.148455 150.282313 
L 210.148455 149.819193 
L 211.486632 149.819193 
L 211.486632 149.356072 
L 212.094322 149.356072 
L 212.094322 148.892952 
L 214.789206 148.892952 
L 214.789206 147.966711 
L 215.202556 147.966711 
L 215.202556 147.50359 
L 215.527817 147.50359 
L 215.527817 147.04047 
L 216.757486 147.04047 
L 216.839482 145.651108 
L 216.956134 145.651108 
L 217.04218 144.261747 
L 217.112323 144.261747 
L 217.112323 143.798626 
L 217.366925 143.798626 
L 217.366925 143.335506 
L 217.659337 143.335506 
L 217.659337 142.409265 
L 218.535685 142.409265 
L 218.535685 141.946144 
L 224.600597 141.946144 
L 224.600597 141.483024 
L 227.443659 141.483024 
L 227.547832 139.630541 
L 227.598837 139.630541 
L 227.685542 138.7043 
L 228.502622 138.7043 
L 228.568908 136.851818 
L 228.854008 136.851818 
L 228.854008 136.388698 
L 229.368311 136.388698 
L 229.368311 135.925577 
L 230.362232 135.925577 
L 230.45241 134.536216 
L 230.998155 134.536216 
L 230.998155 134.073095 
L 232.157662 134.073095 
L 232.157662 133.609975 
L 233.250016 133.609975 
L 233.250016 132.683734 
L 235.260057 132.683734 
L 235.260057 131.757493 
L 236.345718 131.757493 
L 236.345718 130.831252 
L 237.103376 130.831252 
L 237.103376 129.905011 
L 238.574399 129.905011 
L 238.574399 129.44189 
L 240.084937 129.44189 
L 240.084937 128.052529 
L 240.535395 128.052529 
L 240.535395 127.126287 
L 240.671985 127.126287 
L 240.671985 126.663167 
L 240.870126 126.663167 
L 240.870126 126.200046 
L 241.09347 126.200046 
L 241.09347 124.810685 
L 241.255436 124.810685 
L 241.286906 122.958203 
L 241.374351 122.958203 
L 241.374351 122.031962 
L 241.56258 122.031962 
L 241.575381 121.105721 
L 241.94916 121.105721 
L 241.94916 120.6426 
L 244.492 120.6426 
L 244.492 119.716359 
L 245.044438 119.716359 
L 245.044438 119.253239 
L 247.512914 119.253239 
L 247.512914 118.326998 
L 248.517193 118.326998 
L 248.517193 117.863877 
L 248.881902 117.863877 
L 248.964472 116.011395 
L 249.524814 116.011395 
L 249.524814 115.548274 
L 251.813309 115.548274 
L 251.908249 114.158913 
L 254.839 114.158913 
L 254.839 113.695792 
L 338.688 113.695792 
L 338.688 113.695792 
" style="fill:none;stroke:#ff00ff;stroke-linecap:square;stroke-width:1.5;"/>
   </g>
   <g id="line2d_41">
    <defs>
     <path d="M 0 8.485281 
L 5.091169 0 
L 0 -8.485281 
L -5.091169 0 
z
" id="m4432ce1ab0" style="stroke:#ff00ff;stroke-linejoin:miter;stroke-width:1.5;"/>
    </defs>
    <g>
     <use style="fill-opacity:0;stroke:#ff00ff;stroke-linejoin:miter;stroke-width:1.5;" x="140.89556" xlink:href="#m4432ce1ab0" y="287.829108"/>
     <use style="fill-opacity:0;stroke:#ff00ff;stroke-linejoin:miter;stroke-width:1.5;" x="165.071537" xlink:href="#m4432ce1ab0" y="190.573799"/>
     <use style="fill-opacity:0;stroke:#ff00ff;stroke-linejoin:miter;stroke-width:1.5;" x="233.250016" xlink:href="#m4432ce1ab0" y="132.683734"/>
     <use style="fill-opacity:0;stroke:#ff00ff;stroke-linejoin:miter;stroke-width:1.5;" x="254.839" xlink:href="#m4432ce1ab0" y="113.695792"/>
     <use style="fill-opacity:0;stroke:#ff00ff;stroke-linejoin:miter;stroke-width:1.5;" x="254.839" xlink:href="#m4432ce1ab0" y="113.695792"/>
     <use style="fill-opacity:0;stroke:#ff00ff;stroke-linejoin:miter;stroke-width:1.5;" x="338.688" xlink:href="#m4432ce1ab0" y="113.695792"/>
    </g>
   </g>
   <g id="line2d_42">
    <path style="fill:none;stroke:#ff00ff;stroke-linecap:square;stroke-width:1.5;"/>
    <g/>
   </g>
   <g id="line2d_43">
    <path clip-path="url(#pdfdf72d38b)" d="M 258.384233 113.695792 
" style="fill:none;stroke:#ff00ff;stroke-linecap:square;stroke-width:1.5;"/>
    <defs>
     <path d="M -12 12 
L 12 -12 
M -12 -12 
L 12 12 
" id="m692a3650c2" style="stroke:#ff00ff;"/>
    </defs>
    <g clip-path="url(#pdfdf72d38b)">
     <use style="fill:#ff00ff;stroke:#ff00ff;" x="258.384233" xlink:href="#m692a3650c2" y="113.695792"/>
    </g>
   </g>
   <g id="line2d_44">
    <defs>
     <path d="M 0 1.5 
C 0.397805 1.5 0.77937 1.341951 1.06066 1.06066 
C 1.341951 0.77937 1.5 0.397805 1.5 0 
C 1.5 -0.397805 1.341951 -0.77937 1.06066 -1.06066 
C 0.77937 -1.341951 0.397805 -1.5 0 -1.5 
C -0.397805 -1.5 -0.77937 -1.341951 -1.06066 -1.06066 
C -1.341951 -0.77937 -1.5 -0.397805 -1.5 0 
C -1.5 0.397805 -1.341951 0.77937 -1.06066 1.06066 
C -0.77937 1.341951 -0.397805 1.5 0 1.5 
z
" id="ma40c359a22" style="stroke:#ff7500;"/>
    </defs>
    <g>
     <use style="fill:#ff7500;stroke:#ff7500;" x="221.275352" xlink:href="#ma40c359a22" y="150.745434"/>
     <use style="fill:#ff7500;stroke:#ff7500;" x="221.275352" xlink:href="#ma40c359a22" y="150.745434"/>
    </g>
   </g>
   <g id="line2d_45">
    <path d="M 151.844975 298.944 
L 151.844975 297.091518 
L 152.232818 297.091518 
L 152.232818 292.460313 
L 153.750233 292.460313 
L 153.820412 289.218469 
L 154.212841 289.218469 
L 154.212841 288.755349 
L 154.371897 288.755349 
L 154.394502 284.124143 
L 154.928399 284.124143 
L 154.928399 283.661023 
L 155.990803 283.661023 
L 155.990803 281.808541 
L 156.757045 281.808541 
L 156.757045 281.34542 
L 157.319964 281.34542 
L 157.319964 280.8823 
L 157.716543 280.8823 
L 157.716543 278.103577 
L 158.625992 278.103577 
L 158.625992 277.640456 
L 158.889829 277.640456 
L 158.976895 273.472371 
L 159.286782 273.472371 
L 159.337899 272.08301 
L 160.070889 272.08301 
L 160.070889 271.156769 
L 160.184713 271.156769 
L 160.184713 269.767407 
L 160.346039 269.767407 
L 160.346039 268.841166 
L 160.569418 268.841166 
L 160.616915 266.525564 
L 160.789972 266.525564 
L 160.789972 265.599323 
L 161.161694 265.599323 
L 161.161694 264.673082 
L 161.299072 264.673082 
L 161.299072 263.28372 
L 161.70483 263.28372 
L 161.764147 260.968117 
L 161.838011 260.968117 
L 161.838011 260.041876 
L 161.984807 260.041876 
L 161.984807 259.578756 
L 162.101361 259.578756 
L 162.20271 256.800033 
L 162.274744 256.800033 
L 162.274744 254.947551 
L 162.46065 254.947551 
L 162.46065 253.558189 
L 162.588203 253.558189 
L 162.602318 251.705707 
L 162.770815 251.705707 
L 162.770815 250.779466 
L 162.896128 250.779466 
L 162.896128 249.390104 
L 163.171418 249.390104 
L 163.171418 248.926984 
L 163.415518 248.926984 
L 163.415518 248.463863 
L 163.576373 248.463863 
L 163.656248 247.074502 
L 163.709295 247.074502 
L 163.722532 246.148261 
L 163.972138 246.148261 
L 163.972138 244.295779 
L 164.295217 244.295779 
L 164.295217 240.127694 
L 164.549438 240.127694 
L 164.650098 238.275212 
L 165.034758 238.275212 
L 165.108238 235.959609 
L 165.242153 235.959609 
L 165.266391 233.644007 
L 165.447111 233.644007 
L 165.518877 232.254645 
L 165.625977 232.254645 
L 165.697012 226.234079 
L 165.744209 226.234079 
L 165.744209 225.770958 
L 166.163331 225.770958 
L 166.174831 224.381596 
L 166.414589 224.381596 
L 166.414589 223.455355 
L 166.7626 223.455355 
L 166.7626 222.992235 
L 166.906499 222.992235 
L 166.972515 222.065994 
L 167.114699 222.065994 
L 167.114699 221.602873 
L 167.234109 221.602873 
L 167.298899 220.213512 
L 167.449146 220.213512 
L 167.449146 219.287271 
L 167.566296 219.287271 
L 167.566296 217.897909 
L 167.829655 217.897909 
L 167.850553 216.045427 
L 167.965045 216.045427 
L 168.058166 215.119186 
L 168.324419 215.119186 
L 168.324419 214.656066 
L 168.445948 214.656066 
L 168.476198 213.729825 
L 168.736192 213.729825 
L 168.815417 212.803583 
L 168.923766 212.803583 
L 168.923766 212.340463 
L 169.138466 212.340463 
L 169.225542 210.487981 
L 169.331381 210.487981 
L 169.331381 210.02486 
L 169.635673 210.02486 
L 169.635673 209.56174 
L 169.851149 209.56174 
L 169.851149 209.098619 
L 169.99949 209.098619 
L 169.99949 208.172378 
L 170.128262 208.172378 
L 170.18316 205.856776 
L 170.544796 205.856776 
L 170.544796 205.393655 
L 170.72284 205.393655 
L 170.758232 203.541173 
L 170.934121 203.541173 
L 170.934121 203.078053 
L 171.142873 203.078053 
L 171.151517 202.151812 
L 171.425887 202.151812 
L 171.485334 201.225571 
L 171.54458 201.225571 
L 171.628868 199.373088 
L 171.696007 199.373088 
L 171.696007 198.446847 
L 171.879317 198.446847 
L 171.928978 197.520606 
L 172.280803 197.520606 
L 172.280803 196.131245 
L 172.498143 196.131245 
L 172.593876 193.352522 
L 172.673253 193.352522 
L 172.673253 192.426281 
L 172.917053 192.426281 
L 172.917053 191.96316 
L 173.080293 191.96316 
L 173.080293 191.50004 
L 173.257343 191.50004 
L 173.257343 191.036919 
L 173.636143 191.036919 
L 173.636143 190.573799 
L 173.866933 190.573799 
L 173.977519 188.258196 
L 174.48451 188.258196 
L 174.48451 187.795075 
L 174.711458 187.795075 
L 174.711458 187.331955 
L 174.928533 187.331955 
L 174.928533 186.868834 
L 175.060255 186.868834 
L 175.142939 185.016352 
L 175.23891 185.016352 
L 175.23891 184.553232 
L 175.381884 184.553232 
L 175.46306 182.70075 
L 176.274029 182.70075 
L 176.274029 182.237629 
L 176.415186 182.237629 
L 176.415186 181.774509 
L 176.561548 181.774509 
L 176.605851 179.922027 
L 176.719257 179.922027 
L 176.719257 178.995786 
L 177.165647 178.995786 
L 177.165647 178.532665 
L 178.25707 178.532665 
L 178.331659 176.217062 
L 179.257066 176.217062 
L 179.257066 174.827701 
L 179.553156 174.827701 
L 179.553156 173.90146 
L 179.738993 173.90146 
L 179.738993 173.438339 
L 180.330916 173.438339 
L 180.330916 171.585857 
L 180.447941 171.585857 
L 180.447941 171.122737 
L 180.589355 171.122737 
L 180.589355 170.659616 
L 180.779458 170.659616 
L 180.779458 170.196496 
L 181.153558 170.196496 
L 181.216753 168.807134 
L 181.308704 168.807134 
L 181.308704 167.417773 
L 181.600682 167.417773 
L 181.600682 166.954652 
L 182.069005 166.954652 
L 182.069005 166.028411 
L 182.448383 166.028411 
L 182.448383 164.175929 
L 182.84622 164.175929 
L 182.84622 163.249688 
L 184.263172 163.249688 
L 184.263172 162.786567 
L 184.610114 162.786567 
L 184.610114 162.323447 
L 185.13343 162.323447 
L 185.13343 161.397206 
L 185.671592 161.397206 
L 185.671592 160.934085 
L 186.378687 160.934085 
L 186.378687 160.007844 
L 188.397414 160.007844 
L 188.432739 158.618483 
L 188.643199 158.618483 
L 188.643199 158.155362 
L 189.198458 158.155362 
L 189.198458 157.692242 
L 190.958018 157.692242 
L 190.958018 157.229121 
L 191.159471 157.229121 
L 191.159471 156.30288 
L 191.485651 156.30288 
L 191.485651 155.83976 
L 192.172118 155.83976 
L 192.172118 154.913519 
L 194.725246 154.913519 
L 194.725246 154.450398 
L 198.938445 154.450398 
L 198.938445 153.987278 
L 204.550233 153.987278 
L 204.659379 153.061037 
L 211.115781 153.061037 
L 211.115781 152.597916 
L 214.592761 152.597916 
L 214.592761 152.134795 
L 215.866428 152.134795 
L 215.866428 151.671675 
L 221.275352 151.671675 
L 221.275352 150.745434 
L 338.688 150.745434 
L 338.688 150.745434 
" style="fill:none;stroke:#ff7500;stroke-linecap:square;stroke-width:1.5;"/>
   </g>
   <g id="line2d_46">
    <defs>
     <path d="M 0 -6 
L -1.347084 -1.854102 
L -5.706339 -1.854102 
L -2.179628 0.708204 
L -3.526712 4.854102 
L -0 2.291796 
L 3.526712 4.854102 
L 2.179628 0.708204 
L 5.706339 -1.854102 
L 1.347084 -1.854102 
z
" id="mcd7b0ea4da" style="stroke:#ff7500;stroke-linejoin:bevel;stroke-width:1.5;"/>
    </defs>
    <g>
     <use style="fill-opacity:0;stroke:#ff7500;stroke-linejoin:bevel;stroke-width:1.5;" x="215.866428" xlink:href="#mcd7b0ea4da" y="151.671675"/>
     <use style="fill-opacity:0;stroke:#ff7500;stroke-linejoin:bevel;stroke-width:1.5;" x="221.275352" xlink:href="#mcd7b0ea4da" y="150.745434"/>
     <use style="fill-opacity:0;stroke:#ff7500;stroke-linejoin:bevel;stroke-width:1.5;" x="221.275352" xlink:href="#mcd7b0ea4da" y="150.745434"/>
     <use style="fill-opacity:0;stroke:#ff7500;stroke-linejoin:bevel;stroke-width:1.5;" x="338.688" xlink:href="#mcd7b0ea4da" y="150.745434"/>
    </g>
   </g>
   <g id="line2d_47">
    <path style="fill:none;stroke:#ff7500;stroke-linecap:square;stroke-width:1.5;"/>
    <g/>
   </g>
   <g id="line2d_48">
    <path clip-path="url(#pdfdf72d38b)" d="M 258.377201 150.745434 
" style="fill:none;stroke:#ff7500;stroke-linecap:square;stroke-width:1.5;"/>
    <defs>
     <path d="M -12 12 
L 12 -12 
M -12 -12 
L 12 12 
" id="ma0157066aa" style="stroke:#ff7500;"/>
    </defs>
    <g clip-path="url(#pdfdf72d38b)">
     <use style="fill:#ff7500;stroke:#ff7500;" x="258.377201" xlink:href="#ma0157066aa" y="150.745434"/>
    </g>
   </g>
   <g id="line2d_49">
    <path d="M 338.688 150.745434 
L 369.60768 293.571802 
" style="fill:none;stroke:#ff7500;stroke-linecap:square;stroke-width:1.5;"/>
    <g>
     <use style="fill-opacity:0;stroke:#ff7500;stroke-linejoin:bevel;stroke-width:1.5;" x="338.688" xlink:href="#mcd7b0ea4da" y="150.745434"/>
     <use style="fill-opacity:0;stroke:#ff7500;stroke-linejoin:bevel;stroke-width:1.5;" x="369.60768" xlink:href="#mcd7b0ea4da" y="293.571802"/>
    </g>
   </g>
   <g id="line2d_50">
    <path d="M 338.688 120.6426 
L 369.60768 207.616634 
" style="fill:none;stroke:#000080;stroke-linecap:square;stroke-width:1.5;"/>
    <g>
     <use style="fill-opacity:0;stroke:#000080;stroke-width:1.5;" x="338.688" xlink:href="#m48c8e3605c" y="120.6426"/>
     <use style="fill-opacity:0;stroke:#000080;stroke-width:1.5;" x="369.60768" xlink:href="#m48c8e3605c" y="207.616634"/>
    </g>
   </g>
   <g id="line2d_51">
    <path d="M 338.688 113.695792 
L 369.60768 121.661465 
" style="fill:none;stroke:#ff00ff;stroke-linecap:square;stroke-width:1.5;"/>
    <g>
     <use style="fill-opacity:0;stroke:#ff00ff;stroke-linejoin:miter;stroke-width:1.5;" x="338.688" xlink:href="#m4432ce1ab0" y="113.695792"/>
     <use style="fill-opacity:0;stroke:#ff00ff;stroke-linejoin:miter;stroke-width:1.5;" x="369.60768" xlink:href="#m4432ce1ab0" y="121.661465"/>
    </g>
   </g>
   <g id="line2d_52">
    <path d="M 338.688 298.944 
L 338.688 30.334099 
" style="fill:none;stroke:#000000;stroke-linecap:square;stroke-width:1.5;"/>
   </g>
   <g id="patch_3">
    <path d="M 57.6 298.944 
L 57.6 27.648 
" style="fill:none;stroke:#000000;stroke-linecap:square;stroke-linejoin:miter;stroke-width:0.8;"/>
   </g>
   <g id="patch_4">
    <path d="M 338.688 298.944 
L 338.688 27.648 
" style="fill:none;stroke:#000000;stroke-linecap:square;stroke-linejoin:miter;stroke-width:0.8;"/>
   </g>
   <g id="patch_5">
    <path d="M 57.6 298.944 
L 338.688 298.944 
" style="fill:none;stroke:#000000;stroke-linecap:square;stroke-linejoin:miter;stroke-width:0.8;"/>
   </g>
   <g id="patch_6">
    <path d="M 57.6 27.648 
L 338.688 27.648 
" style="fill:none;stroke:#000000;stroke-linecap:square;stroke-linejoin:miter;stroke-width:0.8;"/>
   </g>
   <g id="text_13">
    <!-- SMS-EMOA- -->
    <g transform="translate(375.22944 298.262739)scale(0.17 -0.17)">
     <defs>
      <path d="M 53.515625 70.515625 
L 53.515625 60.890625 
Q 47.90625 63.578125 42.921875 64.890625 
Q 37.9375 66.21875 33.296875 66.21875 
Q 25.25 66.21875 20.875 63.09375 
Q 16.5 59.96875 16.5 54.203125 
Q 16.5 49.359375 19.40625 46.890625 
Q 22.3125 44.4375 30.421875 42.921875 
L 36.375 41.703125 
Q 47.40625 39.59375 52.65625 34.296875 
Q 57.90625 29 57.90625 20.125 
Q 57.90625 9.515625 50.796875 4.046875 
Q 43.703125 -1.421875 29.984375 -1.421875 
Q 24.8125 -1.421875 18.96875 -0.25 
Q 13.140625 0.921875 6.890625 3.21875 
L 6.890625 13.375 
Q 12.890625 10.015625 18.65625 8.296875 
Q 24.421875 6.59375 29.984375 6.59375 
Q 38.421875 6.59375 43.015625 9.90625 
Q 47.609375 13.234375 47.609375 19.390625 
Q 47.609375 24.75 44.3125 27.78125 
Q 41.015625 30.8125 33.5 32.328125 
L 27.484375 33.5 
Q 16.453125 35.6875 11.515625 40.375 
Q 6.59375 45.0625 6.59375 53.421875 
Q 6.59375 63.09375 13.40625 68.65625 
Q 20.21875 74.21875 32.171875 74.21875 
Q 37.3125 74.21875 42.625 73.28125 
Q 47.953125 72.359375 53.515625 70.515625 
z
" id="DejaVuSans-83"/>
      <path d="M 9.8125 72.90625 
L 24.515625 72.90625 
L 43.109375 23.296875 
L 61.8125 72.90625 
L 76.515625 72.90625 
L 76.515625 0 
L 66.890625 0 
L 66.890625 64.015625 
L 48.09375 14.015625 
L 38.1875 14.015625 
L 19.390625 64.015625 
L 19.390625 0 
L 9.8125 0 
z
" id="DejaVuSans-77"/>
      <path d="M 9.8125 72.90625 
L 55.90625 72.90625 
L 55.90625 64.59375 
L 19.671875 64.59375 
L 19.671875 43.015625 
L 54.390625 43.015625 
L 54.390625 34.71875 
L 19.671875 34.71875 
L 19.671875 8.296875 
L 56.78125 8.296875 
L 56.78125 0 
L 9.8125 0 
z
" id="DejaVuSans-69"/>
      <path d="M 39.40625 66.21875 
Q 28.65625 66.21875 22.328125 58.203125 
Q 16.015625 50.203125 16.015625 36.375 
Q 16.015625 22.609375 22.328125 14.59375 
Q 28.65625 6.59375 39.40625 6.59375 
Q 50.140625 6.59375 56.421875 14.59375 
Q 62.703125 22.609375 62.703125 36.375 
Q 62.703125 50.203125 56.421875 58.203125 
Q 50.140625 66.21875 39.40625 66.21875 
z
M 39.40625 74.21875 
Q 54.734375 74.21875 63.90625 63.9375 
Q 73.09375 53.65625 73.09375 36.375 
Q 73.09375 19.140625 63.90625 8.859375 
Q 54.734375 -1.421875 39.40625 -1.421875 
Q 24.03125 -1.421875 14.8125 8.828125 
Q 5.609375 19.09375 5.609375 36.375 
Q 5.609375 53.65625 14.8125 63.9375 
Q 24.03125 74.21875 39.40625 74.21875 
z
" id="DejaVuSans-79"/>
      <path d="M 34.1875 63.1875 
L 20.796875 26.90625 
L 47.609375 26.90625 
z
M 28.609375 72.90625 
L 39.796875 72.90625 
L 67.578125 0 
L 57.328125 0 
L 50.6875 18.703125 
L 17.828125 18.703125 
L 11.1875 0 
L 0.78125 0 
z
" id="DejaVuSans-65"/>
     </defs>
     <use xlink:href="#DejaVuSans-83"/>
     <use x="63.476562" xlink:href="#DejaVuSans-77"/>
     <use x="149.755859" xlink:href="#DejaVuSans-83"/>
     <use x="213.232422" xlink:href="#DejaVuSans-45"/>
     <use x="249.316406" xlink:href="#DejaVuSans-69"/>
     <use x="312.5" xlink:href="#DejaVuSans-77"/>
     <use x="398.779297" xlink:href="#DejaVuSans-79"/>
     <use x="475.740234" xlink:href="#DejaVuSans-65"/>
     <use x="541.898438" xlink:href="#DejaVuSans-45"/>
    </g>
   </g>
   <g id="text_14">
    <!-- COMO-100  -->
    <g transform="translate(375.22944 212.307571)scale(0.17 -0.17)">
     <defs>
      <path d="M 64.40625 67.28125 
L 64.40625 56.890625 
Q 59.421875 61.53125 53.78125 63.8125 
Q 48.140625 66.109375 41.796875 66.109375 
Q 29.296875 66.109375 22.65625 58.46875 
Q 16.015625 50.828125 16.015625 36.375 
Q 16.015625 21.96875 22.65625 14.328125 
Q 29.296875 6.6875 41.796875 6.6875 
Q 48.140625 6.6875 53.78125 8.984375 
Q 59.421875 11.28125 64.40625 15.921875 
L 64.40625 5.609375 
Q 59.234375 2.09375 53.4375 0.328125 
Q 47.65625 -1.421875 41.21875 -1.421875 
Q 24.65625 -1.421875 15.125 8.703125 
Q 5.609375 18.84375 5.609375 36.375 
Q 5.609375 53.953125 15.125 64.078125 
Q 24.65625 74.21875 41.21875 74.21875 
Q 47.75 74.21875 53.53125 72.484375 
Q 59.328125 70.75 64.40625 67.28125 
z
" id="DejaVuSans-67"/>
     </defs>
     <use xlink:href="#DejaVuSans-67"/>
     <use x="69.824219" xlink:href="#DejaVuSans-79"/>
     <use x="148.535156" xlink:href="#DejaVuSans-77"/>
     <use x="234.814453" xlink:href="#DejaVuSans-79"/>
     <use x="316.275391" xlink:href="#DejaVuSans-45"/>
     <use x="352.359375" xlink:href="#DejaVuSans-49"/>
     <use x="415.982422" xlink:href="#DejaVuSans-48"/>
     <use x="479.605469" xlink:href="#DejaVuSans-48"/>
     <use x="543.228516" xlink:href="#DejaVuSans-32"/>
    </g>
   </g>
   <g id="text_15">
    <!-- NSGA-II-M -->
    <g transform="translate(375.22944 126.352403)scale(0.17 -0.17)">
     <defs>
      <path d="M 9.8125 72.90625 
L 23.09375 72.90625 
L 55.421875 11.921875 
L 55.421875 72.90625 
L 64.984375 72.90625 
L 64.984375 0 
L 51.703125 0 
L 19.390625 60.984375 
L 19.390625 0 
L 9.8125 0 
z
" id="DejaVuSans-78"/>
      <path d="M 59.515625 10.40625 
L 59.515625 29.984375 
L 43.40625 29.984375 
L 43.40625 38.09375 
L 69.28125 38.09375 
L 69.28125 6.78125 
Q 63.578125 2.734375 56.6875 0.65625 
Q 49.8125 -1.421875 42 -1.421875 
Q 24.90625 -1.421875 15.25 8.5625 
Q 5.609375 18.5625 5.609375 36.375 
Q 5.609375 54.25 15.25 64.234375 
Q 24.90625 74.21875 42 74.21875 
Q 49.125 74.21875 55.546875 72.453125 
Q 61.96875 70.703125 67.390625 67.28125 
L 67.390625 56.78125 
Q 61.921875 61.421875 55.765625 63.765625 
Q 49.609375 66.109375 42.828125 66.109375 
Q 29.4375 66.109375 22.71875 58.640625 
Q 16.015625 51.171875 16.015625 36.375 
Q 16.015625 21.625 22.71875 14.15625 
Q 29.4375 6.6875 42.828125 6.6875 
Q 48.046875 6.6875 52.140625 7.59375 
Q 56.25 8.5 59.515625 10.40625 
z
" id="DejaVuSans-71"/>
      <path d="M 9.8125 72.90625 
L 19.671875 72.90625 
L 19.671875 0 
L 9.8125 0 
z
" id="DejaVuSans-73"/>
     </defs>
     <use xlink:href="#DejaVuSans-78"/>
     <use x="74.804688" xlink:href="#DejaVuSans-83"/>
     <use x="138.28125" xlink:href="#DejaVuSans-71"/>
     <use x="215.771484" xlink:href="#DejaVuSans-65"/>
     <use x="281.929688" xlink:href="#DejaVuSans-45"/>
     <use x="318.013672" xlink:href="#DejaVuSans-73"/>
     <use x="347.505859" xlink:href="#DejaVuSans-73"/>
     <use x="376.998047" xlink:href="#DejaVuSans-45"/>
     <use x="413.082031" xlink:href="#DejaVuSans-77"/>
    </g>
   </g>
   <g id="text_16">
    <!-- best 2016 -->
    <g transform="translate(375.22944 40.397235)scale(0.17 -0.17)">
     <defs>
      <path d="M 48.6875 27.296875 
Q 48.6875 37.203125 44.609375 42.84375 
Q 40.53125 48.484375 33.40625 48.484375 
Q 26.265625 48.484375 22.1875 42.84375 
Q 18.109375 37.203125 18.109375 27.296875 
Q 18.109375 17.390625 22.1875 11.75 
Q 26.265625 6.109375 33.40625 6.109375 
Q 40.53125 6.109375 44.609375 11.75 
Q 48.6875 17.390625 48.6875 27.296875 
z
M 18.109375 46.390625 
Q 20.953125 51.265625 25.265625 53.625 
Q 29.59375 56 35.59375 56 
Q 45.5625 56 51.78125 48.09375 
Q 58.015625 40.1875 58.015625 27.296875 
Q 58.015625 14.40625 51.78125 6.484375 
Q 45.5625 -1.421875 35.59375 -1.421875 
Q 29.59375 -1.421875 25.265625 0.953125 
Q 20.953125 3.328125 18.109375 8.203125 
L 18.109375 0 
L 9.078125 0 
L 9.078125 75.984375 
L 18.109375 75.984375 
z
" id="DejaVuSans-98"/>
     </defs>
     <use xlink:href="#DejaVuSans-98"/>
     <use x="63.476562" xlink:href="#DejaVuSans-101"/>
     <use x="125" xlink:href="#DejaVuSans-115"/>
     <use x="177.099609" xlink:href="#DejaVuSans-116"/>
     <use x="216.308594" xlink:href="#DejaVuSans-32"/>
     <use x="248.095703" xlink:href="#DejaVuSans-50"/>
     <use x="311.71875" xlink:href="#DejaVuSans-48"/>
     <use x="375.341797" xlink:href="#DejaVuSans-49"/>
     <use x="438.964844" xlink:href="#DejaVuSans-54"/>
    </g>
   </g>
   <g id="text_17">
    <!-- bbob-biobj f33, 3-D -->
    <g transform="translate(60.41088 38.111366)scale(0.102 -0.102)">
     <defs>
      <path d="M 9.421875 54.6875 
L 18.40625 54.6875 
L 18.40625 -0.984375 
Q 18.40625 -11.421875 14.421875 -16.109375 
Q 10.453125 -20.796875 1.609375 -20.796875 
L -1.8125 -20.796875 
L -1.8125 -13.1875 
L 0.59375 -13.1875 
Q 5.71875 -13.1875 7.5625 -10.8125 
Q 9.421875 -8.453125 9.421875 -0.984375 
z
M 9.421875 75.984375 
L 18.40625 75.984375 
L 18.40625 64.59375 
L 9.421875 64.59375 
z
" id="DejaVuSans-106"/>
      <path d="M 40.578125 39.3125 
Q 47.65625 37.796875 51.625 33 
Q 55.609375 28.21875 55.609375 21.1875 
Q 55.609375 10.40625 48.1875 4.484375 
Q 40.765625 -1.421875 27.09375 -1.421875 
Q 22.515625 -1.421875 17.65625 -0.515625 
Q 12.796875 0.390625 7.625 2.203125 
L 7.625 11.71875 
Q 11.71875 9.328125 16.59375 8.109375 
Q 21.484375 6.890625 26.8125 6.890625 
Q 36.078125 6.890625 40.9375 10.546875 
Q 45.796875 14.203125 45.796875 21.1875 
Q 45.796875 27.640625 41.28125 31.265625 
Q 36.765625 34.90625 28.71875 34.90625 
L 20.21875 34.90625 
L 20.21875 43.015625 
L 29.109375 43.015625 
Q 36.375 43.015625 40.234375 45.921875 
Q 44.09375 48.828125 44.09375 54.296875 
Q 44.09375 59.90625 40.109375 62.90625 
Q 36.140625 65.921875 28.71875 65.921875 
Q 24.65625 65.921875 20.015625 65.03125 
Q 15.375 64.15625 9.8125 62.3125 
L 9.8125 71.09375 
Q 15.4375 72.65625 20.34375 73.4375 
Q 25.25 74.21875 29.59375 74.21875 
Q 40.828125 74.21875 47.359375 69.109375 
Q 53.90625 64.015625 53.90625 55.328125 
Q 53.90625 49.265625 50.4375 45.09375 
Q 46.96875 40.921875 40.578125 39.3125 
z
" id="DejaVuSans-51"/>
      <path d="M 19.671875 64.796875 
L 19.671875 8.109375 
L 31.59375 8.109375 
Q 46.6875 8.109375 53.6875 14.9375 
Q 60.6875 21.78125 60.6875 36.53125 
Q 60.6875 51.171875 53.6875 57.984375 
Q 46.6875 64.796875 31.59375 64.796875 
z
M 9.8125 72.90625 
L 30.078125 72.90625 
Q 51.265625 72.90625 61.171875 64.09375 
Q 71.09375 55.28125 71.09375 36.53125 
Q 71.09375 17.671875 61.125 8.828125 
Q 51.171875 0 30.078125 0 
L 9.8125 0 
z
" id="DejaVuSans-68"/>
     </defs>
     <use xlink:href="#DejaVuSans-98"/>
     <use x="63.476562" xlink:href="#DejaVuSans-98"/>
     <use x="126.953125" xlink:href="#DejaVuSans-111"/>
     <use x="188.134766" xlink:href="#DejaVuSans-98"/>
     <use x="251.611328" xlink:href="#DejaVuSans-45"/>
     <use x="287.695312" xlink:href="#DejaVuSans-98"/>
     <use x="351.171875" xlink:href="#DejaVuSans-105"/>
     <use x="378.955078" xlink:href="#DejaVuSans-111"/>
     <use x="440.136719" xlink:href="#DejaVuSans-98"/>
     <use x="503.613281" xlink:href="#DejaVuSans-106"/>
     <use x="531.396484" xlink:href="#DejaVuSans-32"/>
     <use x="563.183594" xlink:href="#DejaVuSans-102"/>
     <use x="598.388672" xlink:href="#DejaVuSans-51"/>
     <use x="662.011719" xlink:href="#DejaVuSans-51"/>
     <use x="725.634766" xlink:href="#DejaVuSans-44"/>
     <use x="757.421875" xlink:href="#DejaVuSans-32"/>
     <use x="789.208984" xlink:href="#DejaVuSans-51"/>
     <use x="852.832031" xlink:href="#DejaVuSans-45"/>
     <use x="888.916016" xlink:href="#DejaVuSans-68"/>
    </g>
    <!-- 58 targets: 1..-1.0e-4 -->
    <g transform="translate(60.41088 49.533135)scale(0.102 -0.102)">
     <defs>
      <path d="M 10.796875 72.90625 
L 49.515625 72.90625 
L 49.515625 64.59375 
L 19.828125 64.59375 
L 19.828125 46.734375 
Q 21.96875 47.46875 24.109375 47.828125 
Q 26.265625 48.1875 28.421875 48.1875 
Q 40.625 48.1875 47.75 41.5 
Q 54.890625 34.8125 54.890625 23.390625 
Q 54.890625 11.625 47.5625 5.09375 
Q 40.234375 -1.421875 26.90625 -1.421875 
Q 22.3125 -1.421875 17.546875 -0.640625 
Q 12.796875 0.140625 7.71875 1.703125 
L 7.71875 11.625 
Q 12.109375 9.234375 16.796875 8.0625 
Q 21.484375 6.890625 26.703125 6.890625 
Q 35.15625 6.890625 40.078125 11.328125 
Q 45.015625 15.765625 45.015625 23.390625 
Q 45.015625 31 40.078125 35.4375 
Q 35.15625 39.890625 26.703125 39.890625 
Q 22.75 39.890625 18.8125 39.015625 
Q 14.890625 38.140625 10.796875 36.28125 
z
" id="DejaVuSans-53"/>
      <path d="M 11.71875 12.40625 
L 22.015625 12.40625 
L 22.015625 0 
L 11.71875 0 
z
M 11.71875 51.703125 
L 22.015625 51.703125 
L 22.015625 39.3125 
L 11.71875 39.3125 
z
" id="DejaVuSans-58"/>
     </defs>
     <use xlink:href="#DejaVuSans-53"/>
     <use x="63.623047" xlink:href="#DejaVuSans-56"/>
     <use x="127.246094" xlink:href="#DejaVuSans-32"/>
     <use x="159.033203" xlink:href="#DejaVuSans-116"/>
     <use x="198.242188" xlink:href="#DejaVuSans-97"/>
     <use x="259.521484" xlink:href="#DejaVuSans-114"/>
     <use x="298.884766" xlink:href="#DejaVuSans-103"/>
     <use x="362.361328" xlink:href="#DejaVuSans-101"/>
     <use x="423.884766" xlink:href="#DejaVuSans-116"/>
     <use x="463.09375" xlink:href="#DejaVuSans-115"/>
     <use x="515.193359" xlink:href="#DejaVuSans-58"/>
     <use x="548.884766" xlink:href="#DejaVuSans-32"/>
     <use x="580.671875" xlink:href="#DejaVuSans-49"/>
     <use x="644.294922" xlink:href="#DejaVuSans-46"/>
     <use x="676.082031" xlink:href="#DejaVuSans-46"/>
     <use x="707.869141" xlink:href="#DejaVuSans-45"/>
     <use x="743.953125" xlink:href="#DejaVuSans-49"/>
     <use x="807.576172" xlink:href="#DejaVuSans-46"/>
     <use x="839.363281" xlink:href="#DejaVuSans-48"/>
     <use x="902.986328" xlink:href="#DejaVuSans-101"/>
     <use x="964.509766" xlink:href="#DejaVuSans-45"/>
     <use x="1000.59375" xlink:href="#DejaVuSans-52"/>
    </g>
    <!-- 10 instances -->
    <g transform="translate(60.41088 60.954904)scale(0.102 -0.102)">
     <use xlink:href="#DejaVuSans-49"/>
     <use x="63.623047" xlink:href="#DejaVuSans-48"/>
     <use x="127.246094" xlink:href="#DejaVuSans-32"/>
     <use x="159.033203" xlink:href="#DejaVuSans-105"/>
     <use x="186.816406" xlink:href="#DejaVuSans-110"/>
     <use x="250.195312" xlink:href="#DejaVuSans-115"/>
     <use x="302.294922" xlink:href="#DejaVuSans-116"/>
     <use x="341.503906" xlink:href="#DejaVuSans-97"/>
     <use x="402.783203" xlink:href="#DejaVuSans-110"/>
     <use x="466.162109" xlink:href="#DejaVuSans-99"/>
     <use x="521.142578" xlink:href="#DejaVuSans-101"/>
     <use x="582.666016" xlink:href="#DejaVuSans-115"/>
    </g>
   </g>
   <g id="text_18">
    <!-- v2.4.19, hv-hash=ff0e71e8cd978373 -->
    <g style="fill:#808080;" transform="translate(104.697125 294.151352)scale(0.1 -0.1)">
     <defs>
      <path d="M 10.984375 1.515625 
L 10.984375 10.5 
Q 14.703125 8.734375 18.5 7.8125 
Q 22.3125 6.890625 25.984375 6.890625 
Q 35.75 6.890625 40.890625 13.453125 
Q 46.046875 20.015625 46.78125 33.40625 
Q 43.953125 29.203125 39.59375 26.953125 
Q 35.25 24.703125 29.984375 24.703125 
Q 19.046875 24.703125 12.671875 31.3125 
Q 6.296875 37.9375 6.296875 49.421875 
Q 6.296875 60.640625 12.9375 67.421875 
Q 19.578125 74.21875 30.609375 74.21875 
Q 43.265625 74.21875 49.921875 64.515625 
Q 56.59375 54.828125 56.59375 36.375 
Q 56.59375 19.140625 48.40625 8.859375 
Q 40.234375 -1.421875 26.421875 -1.421875 
Q 22.703125 -1.421875 18.890625 -0.6875 
Q 15.09375 0.046875 10.984375 1.515625 
z
M 30.609375 32.421875 
Q 37.25 32.421875 41.125 36.953125 
Q 45.015625 41.5 45.015625 49.421875 
Q 45.015625 57.28125 41.125 61.84375 
Q 37.25 66.40625 30.609375 66.40625 
Q 23.96875 66.40625 20.09375 61.84375 
Q 16.21875 57.28125 16.21875 49.421875 
Q 16.21875 41.5 20.09375 36.953125 
Q 23.96875 32.421875 30.609375 32.421875 
z
" id="DejaVuSans-57"/>
      <path d="M 54.890625 33.015625 
L 54.890625 0 
L 45.90625 0 
L 45.90625 32.71875 
Q 45.90625 40.484375 42.875 44.328125 
Q 39.84375 48.1875 33.796875 48.1875 
Q 26.515625 48.1875 22.3125 43.546875 
Q 18.109375 38.921875 18.109375 30.90625 
L 18.109375 0 
L 9.078125 0 
L 9.078125 75.984375 
L 18.109375 75.984375 
L 18.109375 46.1875 
Q 21.34375 51.125 25.703125 53.5625 
Q 30.078125 56 35.796875 56 
Q 45.21875 56 50.046875 50.171875 
Q 54.890625 44.34375 54.890625 33.015625 
z
" id="DejaVuSans-104"/>
      <path d="M 10.59375 45.40625 
L 73.1875 45.40625 
L 73.1875 37.203125 
L 10.59375 37.203125 
z
M 10.59375 25.484375 
L 73.1875 25.484375 
L 73.1875 17.1875 
L 10.59375 17.1875 
z
" id="DejaVuSans-61"/>
      <path d="M 8.203125 72.90625 
L 55.078125 72.90625 
L 55.078125 68.703125 
L 28.609375 0 
L 18.3125 0 
L 43.21875 64.59375 
L 8.203125 64.59375 
z
" id="DejaVuSans-55"/>
     </defs>
     <use xlink:href="#DejaVuSans-118"/>
     <use x="59.179688" xlink:href="#DejaVuSans-50"/>
     <use x="122.802734" xlink:href="#DejaVuSans-46"/>
     <use x="154.589844" xlink:href="#DejaVuSans-52"/>
     <use x="218.212891" xlink:href="#DejaVuSans-46"/>
     <use x="250" xlink:href="#DejaVuSans-49"/>
     <use x="313.623047" xlink:href="#DejaVuSans-57"/>
     <use x="377.246094" xlink:href="#DejaVuSans-44"/>
     <use x="409.033203" xlink:href="#DejaVuSans-32"/>
     <use x="440.820312" xlink:href="#DejaVuSans-104"/>
     <use x="504.199219" xlink:href="#DejaVuSans-118"/>
     <use x="560.753906" xlink:href="#DejaVuSans-45"/>
     <use x="596.837891" xlink:href="#DejaVuSans-104"/>
     <use x="660.216797" xlink:href="#DejaVuSans-97"/>
     <use x="721.496094" xlink:href="#DejaVuSans-115"/>
     <use x="773.595703" xlink:href="#DejaVuSans-104"/>
     <use x="836.974609" xlink:href="#DejaVuSans-61"/>
     <use x="920.763672" xlink:href="#DejaVuSans-102"/>
     <use x="955.96875" xlink:href="#DejaVuSans-102"/>
     <use x="991.173828" xlink:href="#DejaVuSans-48"/>
     <use x="1054.796875" xlink:href="#DejaVuSans-101"/>
     <use x="1116.320312" xlink:href="#DejaVuSans-55"/>
     <use x="1179.943359" xlink:href="#DejaVuSans-49"/>
     <use x="1243.566406" xlink:href="#DejaVuSans-101"/>
     <use x="1305.089844" xlink:href="#DejaVuSans-56"/>
     <use x="1368.712891" xlink:href="#DejaVuSans-99"/>
     <use x="1423.693359" xlink:href="#DejaVuSans-100"/>
     <use x="1487.169922" xlink:href="#DejaVuSans-57"/>
     <use x="1550.792969" xlink:href="#DejaVuSans-55"/>
     <use x="1614.416016" xlink:href="#DejaVuSans-56"/>
     <use x="1678.039062" xlink:href="#DejaVuSans-51"/>
     <use x="1741.662109" xlink:href="#DejaVuSans-55"/>
     <use x="1805.285156" xlink:href="#DejaVuSans-51"/>
    </g>
   </g>
   <g id="text_19">
    <!-- 33 Rosenbrock/Schwefel -->
    <g transform="translate(75.945562 21.648)scale(0.2 -0.2)">
     <defs>
      <path d="M 44.390625 34.1875 
Q 47.5625 33.109375 50.5625 29.59375 
Q 53.5625 26.078125 56.59375 19.921875 
L 66.609375 0 
L 56 0 
L 46.6875 18.703125 
Q 43.0625 26.03125 39.671875 28.421875 
Q 36.28125 30.8125 30.421875 30.8125 
L 19.671875 30.8125 
L 19.671875 0 
L 9.8125 0 
L 9.8125 72.90625 
L 32.078125 72.90625 
Q 44.578125 72.90625 50.734375 67.671875 
Q 56.890625 62.453125 56.890625 51.90625 
Q 56.890625 45.015625 53.6875 40.46875 
Q 50.484375 35.9375 44.390625 34.1875 
z
M 19.671875 64.796875 
L 19.671875 38.921875 
L 32.078125 38.921875 
Q 39.203125 38.921875 42.84375 42.21875 
Q 46.484375 45.515625 46.484375 51.90625 
Q 46.484375 58.296875 42.84375 61.546875 
Q 39.203125 64.796875 32.078125 64.796875 
z
" id="DejaVuSans-82"/>
      <path d="M 9.078125 75.984375 
L 18.109375 75.984375 
L 18.109375 31.109375 
L 44.921875 54.6875 
L 56.390625 54.6875 
L 27.390625 29.109375 
L 57.625 0 
L 45.90625 0 
L 18.109375 26.703125 
L 18.109375 0 
L 9.078125 0 
z
" id="DejaVuSans-107"/>
      <path d="M 4.203125 54.6875 
L 13.1875 54.6875 
L 24.421875 12.015625 
L 35.59375 54.6875 
L 46.1875 54.6875 
L 57.421875 12.015625 
L 68.609375 54.6875 
L 77.59375 54.6875 
L 63.28125 0 
L 52.6875 0 
L 40.921875 44.828125 
L 29.109375 0 
L 18.5 0 
z
" id="DejaVuSans-119"/>
     </defs>
     <use xlink:href="#DejaVuSans-51"/>
     <use x="63.623047" xlink:href="#DejaVuSans-51"/>
     <use x="127.246094" xlink:href="#DejaVuSans-32"/>
     <use x="159.033203" xlink:href="#DejaVuSans-82"/>
     <use x="224.015625" xlink:href="#DejaVuSans-111"/>
     <use x="285.197266" xlink:href="#DejaVuSans-115"/>
     <use x="337.296875" xlink:href="#DejaVuSans-101"/>
     <use x="398.820312" xlink:href="#DejaVuSans-110"/>
     <use x="462.199219" xlink:href="#DejaVuSans-98"/>
     <use x="525.675781" xlink:href="#DejaVuSans-114"/>
     <use x="564.539062" xlink:href="#DejaVuSans-111"/>
     <use x="625.720703" xlink:href="#DejaVuSans-99"/>
     <use x="680.701172" xlink:href="#DejaVuSans-107"/>
     <use x="738.611328" xlink:href="#DejaVuSans-47"/>
     <use x="772.302734" xlink:href="#DejaVuSans-83"/>
     <use x="835.779297" xlink:href="#DejaVuSans-99"/>
     <use x="890.759766" xlink:href="#DejaVuSans-104"/>
     <use x="954.138672" xlink:href="#DejaVuSans-119"/>
     <use x="1035.925781" xlink:href="#DejaVuSans-101"/>
     <use x="1097.449219" xlink:href="#DejaVuSans-102"/>
     <use x="1132.654297" xlink:href="#DejaVuSans-101"/>
     <use x="1194.177734" xlink:href="#DejaVuSans-108"/>
    </g>
   </g>
  </g>
 </g>
 <defs>
  <clipPath id="pdfdf72d38b">
   <rect height="271.296" width="281.088" x="57.6" y="27.648"/>
  </clipPath>
 </defs>
</svg>
