<?xml version="1.0" encoding="utf-8" standalone="no"?>
<!DOCTYPE svg PUBLIC "-//W3C//DTD SVG 1.1//EN"
  "http://www.w3.org/Graphics/SVG/1.1/DTD/svg11.dtd">
<!-- Created with matplotlib (https://matplotlib.org/) -->
<svg height="345.6pt" version="1.1" viewBox="0 0 460.8 345.6" width="460.8pt" xmlns="http://www.w3.org/2000/svg" xmlns:xlink="http://www.w3.org/1999/xlink">
 <metadata>
  <rdf:RDF xmlns:cc="http://creativecommons.org/ns#" xmlns:dc="http://purl.org/dc/elements/1.1/" xmlns:rdf="http://www.w3.org/1999/02/22-rdf-syntax-ns#">
   <cc:Work>
    <dc:type rdf:resource="http://purl.org/dc/dcmitype/StillImage"/>
    <dc:date>2021-04-26T15:04:05.098421</dc:date>
    <dc:format>image/svg+xml</dc:format>
    <dc:creator>
     <cc:Agent>
      <dc:title>Matplotlib v3.3.2, https://matplotlib.org/</dc:title>
     </cc:Agent>
    </dc:creator>
   </cc:Work>
  </rdf:RDF>
 </metadata>
 <defs>
  <style type="text/css">*{stroke-linecap:butt;stroke-linejoin:round;}</style>
 </defs>
 <g id="figure_1">
  <g id="patch_1">
   <path d="M 0 345.6 
L 460.8 345.6 
L 460.8 0 
L 0 0 
z
" style="fill:#ffffff;"/>
  </g>
  <g id="axes_1">
   <g id="patch_2">
    <path d="M 57.6 298.944 
L 338.688 298.944 
L 338.688 27.648 
L 57.6 27.648 
z
" style="fill:#ffffff;"/>
   </g>
   <g id="line2d_1">
    <path d="M 29.53256 298.944 
L 29.53256 294.312795 
L 53.708537 294.312795 
L 53.708537 285.050384 
L 78.941764 285.050384 
L 78.941764 275.787974 
L 89.697862 275.787974 
L 89.697862 271.156769 
L 95.918017 271.156769 
L 95.918017 257.263153 
L 100.040467 257.263153 
L 100.040467 248.000743 
L 106.06061 248.000743 
L 106.06061 243.369538 
L 115.835374 243.369538 
L 115.835374 234.107127 
L 124.482119 234.107127 
L 124.482119 220.213512 
L 131.389151 220.213512 
L 131.389151 210.951101 
L 137.928288 210.951101 
L 137.928288 201.688691 
L 145.178411 201.688691 
L 145.178411 192.426281 
L 151.621307 192.426281 
L 151.621307 187.795075 
L 157.312322 187.795075 
L 157.312322 173.90146 
L 163.008145 173.90146 
L 163.008145 169.270255 
L 169.342888 169.270255 
L 169.342888 155.376639 
L 179.400355 155.376639 
L 179.400355 146.114229 
L 187.510846 146.114229 
L 187.510846 141.483024 
L 193.719734 141.483024 
L 193.719734 127.589408 
L 201.577071 127.589408 
L 201.577071 122.958203 
L 209.20687 122.958203 
L 209.20687 109.064587 
L 215.951123 109.064587 
L 215.951123 99.802177 
L 223.600304 99.802177 
L 223.600304 90.539766 
L 232.313068 90.539766 
L 232.313068 85.908561 
L 242.782357 85.908561 
L 242.782357 76.646151 
L 252.230055 76.646151 
L 252.230055 62.752535 
L 338.688 62.752535 
" style="fill:none;stroke:#f5deb3;stroke-linecap:square;stroke-width:4;"/>
   </g>
   <g id="line2d_2">
    <defs>
     <path d="M 0 7.778175 
L 7.778175 0 
L 0 -7.778175 
L -7.778175 0 
z
" id="m2f7670775c" style="stroke:#f5deb3;stroke-linejoin:miter;stroke-width:1.5;"/>
    </defs>
    <g>
     <use style="fill:#f5deb3;stroke:#f5deb3;stroke-linejoin:miter;stroke-width:1.5;" x="95.918017" xlink:href="#m2f7670775c" y="271.156769"/>
     <use style="fill:#f5deb3;stroke:#f5deb3;stroke-linejoin:miter;stroke-width:1.5;" x="124.482119" xlink:href="#m2f7670775c" y="234.107127"/>
     <use style="fill:#f5deb3;stroke:#f5deb3;stroke-linejoin:miter;stroke-width:1.5;" x="193.719734" xlink:href="#m2f7670775c" y="141.483024"/>
     <use style="fill:#f5deb3;stroke:#f5deb3;stroke-linejoin:miter;stroke-width:1.5;" x="252.230055" xlink:href="#m2f7670775c" y="76.646151"/>
     <use style="fill:#f5deb3;stroke:#f5deb3;stroke-linejoin:miter;stroke-width:1.5;" x="252.230055" xlink:href="#m2f7670775c" y="62.752535"/>
     <use style="fill:#f5deb3;stroke:#f5deb3;stroke-linejoin:miter;stroke-width:1.5;" x="338.688" xlink:href="#m2f7670775c" y="62.752535"/>
    </g>
   </g>
   <g id="line2d_3">
    <path style="fill:none;stroke:#f5deb3;stroke-linecap:square;stroke-width:4;"/>
    <g/>
   </g>
   <g id="line2d_4">
    <path d="M 338.688 62.752535 
L 369.60768 35.706297 
" style="fill:none;stroke:#f5deb3;stroke-linecap:square;stroke-width:4;"/>
    <g>
     <use style="fill:#f5deb3;stroke:#f5deb3;stroke-linejoin:miter;stroke-width:1.5;" x="338.688" xlink:href="#m2f7670775c" y="62.752535"/>
     <use style="fill:#f5deb3;stroke:#f5deb3;stroke-linejoin:miter;stroke-width:1.5;" x="369.60768" xlink:href="#m2f7670775c" y="35.706297"/>
    </g>
   </g>
   <g id="matplotlib.axis_1">
    <g id="xtick_1">
     <g id="line2d_5">
      <path clip-path="url(#p9e247682da)" d="M 57.6 298.944 
L 57.6 27.648 
" style="fill:none;stroke:#b0b0b0;stroke-linecap:square;stroke-width:0.8;"/>
     </g>
     <g id="line2d_6">
      <defs>
       <path d="M 0 0 
L 0 3.5 
" id="m3b1cd803b2" style="stroke:#000000;stroke-width:0.8;"/>
      </defs>
      <g>
       <use style="stroke:#000000;stroke-width:0.8;" x="57.6" xlink:href="#m3b1cd803b2" y="298.944"/>
      </g>
     </g>
     <g id="text_1">
      <!-- 0 -->
      <g transform="translate(51.2375 321.140875)scale(0.2 -0.2)">
       <defs>
        <path d="M 31.78125 66.40625 
Q 24.171875 66.40625 20.328125 58.90625 
Q 16.5 51.421875 16.5 36.375 
Q 16.5 21.390625 20.328125 13.890625 
Q 24.171875 6.390625 31.78125 6.390625 
Q 39.453125 6.390625 43.28125 13.890625 
Q 47.125 21.390625 47.125 36.375 
Q 47.125 51.421875 43.28125 58.90625 
Q 39.453125 66.40625 31.78125 66.40625 
z
M 31.78125 74.21875 
Q 44.046875 74.21875 50.515625 64.515625 
Q 56.984375 54.828125 56.984375 36.375 
Q 56.984375 17.96875 50.515625 8.265625 
Q 44.046875 -1.421875 31.78125 -1.421875 
Q 19.53125 -1.421875 13.0625 8.265625 
Q 6.59375 17.96875 6.59375 36.375 
Q 6.59375 54.828125 13.0625 64.515625 
Q 19.53125 74.21875 31.78125 74.21875 
z
" id="DejaVuSans-48"/>
       </defs>
       <use xlink:href="#DejaVuSans-48"/>
      </g>
     </g>
    </g>
    <g id="xtick_2">
     <g id="line2d_7">
      <path clip-path="url(#p9e247682da)" d="M 137.910857 298.944 
L 137.910857 27.648 
" style="fill:none;stroke:#b0b0b0;stroke-linecap:square;stroke-width:0.8;"/>
     </g>
     <g id="line2d_8">
      <g>
       <use style="stroke:#000000;stroke-width:0.8;" x="137.910857" xlink:href="#m3b1cd803b2" y="298.944"/>
      </g>
     </g>
     <g id="text_2">
      <!-- 2 -->
      <g transform="translate(131.548357 321.140875)scale(0.2 -0.2)">
       <defs>
        <path d="M 19.1875 8.296875 
L 53.609375 8.296875 
L 53.609375 0 
L 7.328125 0 
L 7.328125 8.296875 
Q 12.9375 14.109375 22.625 23.890625 
Q 32.328125 33.6875 34.8125 36.53125 
Q 39.546875 41.84375 41.421875 45.53125 
Q 43.3125 49.21875 43.3125 52.78125 
Q 43.3125 58.59375 39.234375 62.25 
Q 35.15625 65.921875 28.609375 65.921875 
Q 23.96875 65.921875 18.8125 64.3125 
Q 13.671875 62.703125 7.8125 59.421875 
L 7.8125 69.390625 
Q 13.765625 71.78125 18.9375 73 
Q 24.125 74.21875 28.421875 74.21875 
Q 39.75 74.21875 46.484375 68.546875 
Q 53.21875 62.890625 53.21875 53.421875 
Q 53.21875 48.921875 51.53125 44.890625 
Q 49.859375 40.875 45.40625 35.40625 
Q 44.1875 33.984375 37.640625 27.21875 
Q 31.109375 20.453125 19.1875 8.296875 
z
" id="DejaVuSans-50"/>
       </defs>
       <use xlink:href="#DejaVuSans-50"/>
      </g>
     </g>
    </g>
    <g id="xtick_3">
     <g id="line2d_9">
      <path clip-path="url(#p9e247682da)" d="M 218.221714 298.944 
L 218.221714 27.648 
" style="fill:none;stroke:#b0b0b0;stroke-linecap:square;stroke-width:0.8;"/>
     </g>
     <g id="line2d_10">
      <g>
       <use style="stroke:#000000;stroke-width:0.8;" x="218.221714" xlink:href="#m3b1cd803b2" y="298.944"/>
      </g>
     </g>
     <g id="text_3">
      <!-- 4 -->
      <g transform="translate(211.859214 321.140875)scale(0.2 -0.2)">
       <defs>
        <path d="M 37.796875 64.3125 
L 12.890625 25.390625 
L 37.796875 25.390625 
z
M 35.203125 72.90625 
L 47.609375 72.90625 
L 47.609375 25.390625 
L 58.015625 25.390625 
L 58.015625 17.1875 
L 47.609375 17.1875 
L 47.609375 0 
L 37.796875 0 
L 37.796875 17.1875 
L 4.890625 17.1875 
L 4.890625 26.703125 
z
" id="DejaVuSans-52"/>
       </defs>
       <use xlink:href="#DejaVuSans-52"/>
      </g>
     </g>
    </g>
    <g id="xtick_4">
     <g id="line2d_11">
      <path clip-path="url(#p9e247682da)" d="M 298.532571 298.944 
L 298.532571 27.648 
" style="fill:none;stroke:#b0b0b0;stroke-linecap:square;stroke-width:0.8;"/>
     </g>
     <g id="line2d_12">
      <g>
       <use style="stroke:#000000;stroke-width:0.8;" x="298.532571" xlink:href="#m3b1cd803b2" y="298.944"/>
      </g>
     </g>
     <g id="text_4">
      <!-- 6 -->
      <g transform="translate(292.170071 321.140875)scale(0.2 -0.2)">
       <defs>
        <path d="M 33.015625 40.375 
Q 26.375 40.375 22.484375 35.828125 
Q 18.609375 31.296875 18.609375 23.390625 
Q 18.609375 15.53125 22.484375 10.953125 
Q 26.375 6.390625 33.015625 6.390625 
Q 39.65625 6.390625 43.53125 10.953125 
Q 47.40625 15.53125 47.40625 23.390625 
Q 47.40625 31.296875 43.53125 35.828125 
Q 39.65625 40.375 33.015625 40.375 
z
M 52.59375 71.296875 
L 52.59375 62.3125 
Q 48.875 64.0625 45.09375 64.984375 
Q 41.3125 65.921875 37.59375 65.921875 
Q 27.828125 65.921875 22.671875 59.328125 
Q 17.53125 52.734375 16.796875 39.40625 
Q 19.671875 43.65625 24.015625 45.921875 
Q 28.375 48.1875 33.59375 48.1875 
Q 44.578125 48.1875 50.953125 41.515625 
Q 57.328125 34.859375 57.328125 23.390625 
Q 57.328125 12.15625 50.6875 5.359375 
Q 44.046875 -1.421875 33.015625 -1.421875 
Q 20.359375 -1.421875 13.671875 8.265625 
Q 6.984375 17.96875 6.984375 36.375 
Q 6.984375 53.65625 15.1875 63.9375 
Q 23.390625 74.21875 37.203125 74.21875 
Q 40.921875 74.21875 44.703125 73.484375 
Q 48.484375 72.75 52.59375 71.296875 
z
" id="DejaVuSans-54"/>
       </defs>
       <use xlink:href="#DejaVuSans-54"/>
      </g>
     </g>
    </g>
    <g id="xtick_5">
     <g id="line2d_13">
      <path clip-path="url(#p9e247682da)" d="M 97.755429 298.944 
L 97.755429 27.648 
" style="fill:none;stroke:#b0b0b0;stroke-linecap:square;stroke-width:0.8;"/>
     </g>
     <g id="line2d_14">
      <defs>
       <path d="M 0 0 
L 0 2 
" id="m0c5aad1fd8" style="stroke:#000000;stroke-width:0.6;"/>
      </defs>
      <g>
       <use style="stroke:#000000;stroke-width:0.6;" x="97.755429" xlink:href="#m0c5aad1fd8" y="298.944"/>
      </g>
     </g>
    </g>
    <g id="xtick_6">
     <g id="line2d_15">
      <path clip-path="url(#p9e247682da)" d="M 178.066286 298.944 
L 178.066286 27.648 
" style="fill:none;stroke:#b0b0b0;stroke-linecap:square;stroke-width:0.8;"/>
     </g>
     <g id="line2d_16">
      <g>
       <use style="stroke:#000000;stroke-width:0.6;" x="178.066286" xlink:href="#m0c5aad1fd8" y="298.944"/>
      </g>
     </g>
    </g>
    <g id="xtick_7">
     <g id="line2d_17">
      <path clip-path="url(#p9e247682da)" d="M 258.377143 298.944 
L 258.377143 27.648 
" style="fill:none;stroke:#b0b0b0;stroke-linecap:square;stroke-width:0.8;"/>
     </g>
     <g id="line2d_18">
      <g>
       <use style="stroke:#000000;stroke-width:0.6;" x="258.377143" xlink:href="#m0c5aad1fd8" y="298.944"/>
      </g>
     </g>
    </g>
    <g id="xtick_8">
     <g id="line2d_19">
      <path clip-path="url(#p9e247682da)" d="M 338.688 298.944 
L 338.688 27.648 
" style="fill:none;stroke:#b0b0b0;stroke-linecap:square;stroke-width:0.8;"/>
     </g>
     <g id="line2d_20">
      <g>
       <use style="stroke:#000000;stroke-width:0.6;" x="338.688" xlink:href="#m0c5aad1fd8" y="298.944"/>
      </g>
     </g>
    </g>
    <g id="text_5">
     <!-- log10(# f-evals / dimension) -->
     <g transform="translate(77.764078 342.217594)scale(0.17 -0.17)">
      <defs>
       <path d="M 9.421875 75.984375 
L 18.40625 75.984375 
L 18.40625 0 
L 9.421875 0 
z
" id="DejaVuSans-108"/>
       <path d="M 30.609375 48.390625 
Q 23.390625 48.390625 19.1875 42.75 
Q 14.984375 37.109375 14.984375 27.296875 
Q 14.984375 17.484375 19.15625 11.84375 
Q 23.34375 6.203125 30.609375 6.203125 
Q 37.796875 6.203125 41.984375 11.859375 
Q 46.1875 17.53125 46.1875 27.296875 
Q 46.1875 37.015625 41.984375 42.703125 
Q 37.796875 48.390625 30.609375 48.390625 
z
M 30.609375 56 
Q 42.328125 56 49.015625 48.375 
Q 55.71875 40.765625 55.71875 27.296875 
Q 55.71875 13.875 49.015625 6.21875 
Q 42.328125 -1.421875 30.609375 -1.421875 
Q 18.84375 -1.421875 12.171875 6.21875 
Q 5.515625 13.875 5.515625 27.296875 
Q 5.515625 40.765625 12.171875 48.375 
Q 18.84375 56 30.609375 56 
z
" id="DejaVuSans-111"/>
       <path d="M 45.40625 27.984375 
Q 45.40625 37.75 41.375 43.109375 
Q 37.359375 48.484375 30.078125 48.484375 
Q 22.859375 48.484375 18.828125 43.109375 
Q 14.796875 37.75 14.796875 27.984375 
Q 14.796875 18.265625 18.828125 12.890625 
Q 22.859375 7.515625 30.078125 7.515625 
Q 37.359375 7.515625 41.375 12.890625 
Q 45.40625 18.265625 45.40625 27.984375 
z
M 54.390625 6.78125 
Q 54.390625 -7.171875 48.1875 -13.984375 
Q 42 -20.796875 29.203125 -20.796875 
Q 24.46875 -20.796875 20.265625 -20.09375 
Q 16.0625 -19.390625 12.109375 -17.921875 
L 12.109375 -9.1875 
Q 16.0625 -11.328125 19.921875 -12.34375 
Q 23.78125 -13.375 27.78125 -13.375 
Q 36.625 -13.375 41.015625 -8.765625 
Q 45.40625 -4.15625 45.40625 5.171875 
L 45.40625 9.625 
Q 42.625 4.78125 38.28125 2.390625 
Q 33.9375 0 27.875 0 
Q 17.828125 0 11.671875 7.65625 
Q 5.515625 15.328125 5.515625 27.984375 
Q 5.515625 40.671875 11.671875 48.328125 
Q 17.828125 56 27.875 56 
Q 33.9375 56 38.28125 53.609375 
Q 42.625 51.21875 45.40625 46.390625 
L 45.40625 54.6875 
L 54.390625 54.6875 
z
" id="DejaVuSans-103"/>
       <path d="M 12.40625 8.296875 
L 28.515625 8.296875 
L 28.515625 63.921875 
L 10.984375 60.40625 
L 10.984375 69.390625 
L 28.421875 72.90625 
L 38.28125 72.90625 
L 38.28125 8.296875 
L 54.390625 8.296875 
L 54.390625 0 
L 12.40625 0 
z
" id="DejaVuSans-49"/>
       <path d="M 31 75.875 
Q 24.46875 64.65625 21.28125 53.65625 
Q 18.109375 42.671875 18.109375 31.390625 
Q 18.109375 20.125 21.3125 9.0625 
Q 24.515625 -2 31 -13.1875 
L 23.1875 -13.1875 
Q 15.875 -1.703125 12.234375 9.375 
Q 8.59375 20.453125 8.59375 31.390625 
Q 8.59375 42.28125 12.203125 53.3125 
Q 15.828125 64.359375 23.1875 75.875 
z
" id="DejaVuSans-40"/>
       <path d="M 51.125 44 
L 36.921875 44 
L 32.8125 27.6875 
L 47.125 27.6875 
z
M 43.796875 71.78125 
L 38.71875 51.515625 
L 52.984375 51.515625 
L 58.109375 71.78125 
L 65.921875 71.78125 
L 60.890625 51.515625 
L 76.125 51.515625 
L 76.125 44 
L 58.984375 44 
L 54.984375 27.6875 
L 70.515625 27.6875 
L 70.515625 20.21875 
L 53.078125 20.21875 
L 48 0 
L 40.1875 0 
L 45.21875 20.21875 
L 30.90625 20.21875 
L 25.875 0 
L 18.015625 0 
L 23.09375 20.21875 
L 7.71875 20.21875 
L 7.71875 27.6875 
L 24.90625 27.6875 
L 29 44 
L 13.28125 44 
L 13.28125 51.515625 
L 30.90625 51.515625 
L 35.890625 71.78125 
z
" id="DejaVuSans-35"/>
       <path id="DejaVuSans-32"/>
       <path d="M 37.109375 75.984375 
L 37.109375 68.5 
L 28.515625 68.5 
Q 23.6875 68.5 21.796875 66.546875 
Q 19.921875 64.59375 19.921875 59.515625 
L 19.921875 54.6875 
L 34.71875 54.6875 
L 34.71875 47.703125 
L 19.921875 47.703125 
L 19.921875 0 
L 10.890625 0 
L 10.890625 47.703125 
L 2.296875 47.703125 
L 2.296875 54.6875 
L 10.890625 54.6875 
L 10.890625 58.5 
Q 10.890625 67.625 15.140625 71.796875 
Q 19.390625 75.984375 28.609375 75.984375 
z
" id="DejaVuSans-102"/>
       <path d="M 4.890625 31.390625 
L 31.203125 31.390625 
L 31.203125 23.390625 
L 4.890625 23.390625 
z
" id="DejaVuSans-45"/>
       <path d="M 56.203125 29.59375 
L 56.203125 25.203125 
L 14.890625 25.203125 
Q 15.484375 15.921875 20.484375 11.0625 
Q 25.484375 6.203125 34.421875 6.203125 
Q 39.59375 6.203125 44.453125 7.46875 
Q 49.3125 8.734375 54.109375 11.28125 
L 54.109375 2.78125 
Q 49.265625 0.734375 44.1875 -0.34375 
Q 39.109375 -1.421875 33.890625 -1.421875 
Q 20.796875 -1.421875 13.15625 6.1875 
Q 5.515625 13.8125 5.515625 26.8125 
Q 5.515625 40.234375 12.765625 48.109375 
Q 20.015625 56 32.328125 56 
Q 43.359375 56 49.78125 48.890625 
Q 56.203125 41.796875 56.203125 29.59375 
z
M 47.21875 32.234375 
Q 47.125 39.59375 43.09375 43.984375 
Q 39.0625 48.390625 32.421875 48.390625 
Q 24.90625 48.390625 20.390625 44.140625 
Q 15.875 39.890625 15.1875 32.171875 
z
" id="DejaVuSans-101"/>
       <path d="M 2.984375 54.6875 
L 12.5 54.6875 
L 29.59375 8.796875 
L 46.6875 54.6875 
L 56.203125 54.6875 
L 35.6875 0 
L 23.484375 0 
z
" id="DejaVuSans-118"/>
       <path d="M 34.28125 27.484375 
Q 23.390625 27.484375 19.1875 25 
Q 14.984375 22.515625 14.984375 16.5 
Q 14.984375 11.71875 18.140625 8.90625 
Q 21.296875 6.109375 26.703125 6.109375 
Q 34.1875 6.109375 38.703125 11.40625 
Q 43.21875 16.703125 43.21875 25.484375 
L 43.21875 27.484375 
z
M 52.203125 31.203125 
L 52.203125 0 
L 43.21875 0 
L 43.21875 8.296875 
Q 40.140625 3.328125 35.546875 0.953125 
Q 30.953125 -1.421875 24.3125 -1.421875 
Q 15.921875 -1.421875 10.953125 3.296875 
Q 6 8.015625 6 15.921875 
Q 6 25.140625 12.171875 29.828125 
Q 18.359375 34.515625 30.609375 34.515625 
L 43.21875 34.515625 
L 43.21875 35.40625 
Q 43.21875 41.609375 39.140625 45 
Q 35.0625 48.390625 27.6875 48.390625 
Q 23 48.390625 18.546875 47.265625 
Q 14.109375 46.140625 10.015625 43.890625 
L 10.015625 52.203125 
Q 14.9375 54.109375 19.578125 55.046875 
Q 24.21875 56 28.609375 56 
Q 40.484375 56 46.34375 49.84375 
Q 52.203125 43.703125 52.203125 31.203125 
z
" id="DejaVuSans-97"/>
       <path d="M 44.28125 53.078125 
L 44.28125 44.578125 
Q 40.484375 46.53125 36.375 47.5 
Q 32.28125 48.484375 27.875 48.484375 
Q 21.1875 48.484375 17.84375 46.4375 
Q 14.5 44.390625 14.5 40.28125 
Q 14.5 37.15625 16.890625 35.375 
Q 19.28125 33.59375 26.515625 31.984375 
L 29.59375 31.296875 
Q 39.15625 29.25 43.1875 25.515625 
Q 47.21875 21.78125 47.21875 15.09375 
Q 47.21875 7.46875 41.1875 3.015625 
Q 35.15625 -1.421875 24.609375 -1.421875 
Q 20.21875 -1.421875 15.453125 -0.5625 
Q 10.6875 0.296875 5.421875 2 
L 5.421875 11.28125 
Q 10.40625 8.6875 15.234375 7.390625 
Q 20.0625 6.109375 24.8125 6.109375 
Q 31.15625 6.109375 34.5625 8.28125 
Q 37.984375 10.453125 37.984375 14.40625 
Q 37.984375 18.0625 35.515625 20.015625 
Q 33.0625 21.96875 24.703125 23.78125 
L 21.578125 24.515625 
Q 13.234375 26.265625 9.515625 29.90625 
Q 5.8125 33.546875 5.8125 39.890625 
Q 5.8125 47.609375 11.28125 51.796875 
Q 16.75 56 26.8125 56 
Q 31.78125 56 36.171875 55.265625 
Q 40.578125 54.546875 44.28125 53.078125 
z
" id="DejaVuSans-115"/>
       <path d="M 25.390625 72.90625 
L 33.6875 72.90625 
L 8.296875 -9.28125 
L 0 -9.28125 
z
" id="DejaVuSans-47"/>
       <path d="M 45.40625 46.390625 
L 45.40625 75.984375 
L 54.390625 75.984375 
L 54.390625 0 
L 45.40625 0 
L 45.40625 8.203125 
Q 42.578125 3.328125 38.25 0.953125 
Q 33.9375 -1.421875 27.875 -1.421875 
Q 17.96875 -1.421875 11.734375 6.484375 
Q 5.515625 14.40625 5.515625 27.296875 
Q 5.515625 40.1875 11.734375 48.09375 
Q 17.96875 56 27.875 56 
Q 33.9375 56 38.25 53.625 
Q 42.578125 51.265625 45.40625 46.390625 
z
M 14.796875 27.296875 
Q 14.796875 17.390625 18.875 11.75 
Q 22.953125 6.109375 30.078125 6.109375 
Q 37.203125 6.109375 41.296875 11.75 
Q 45.40625 17.390625 45.40625 27.296875 
Q 45.40625 37.203125 41.296875 42.84375 
Q 37.203125 48.484375 30.078125 48.484375 
Q 22.953125 48.484375 18.875 42.84375 
Q 14.796875 37.203125 14.796875 27.296875 
z
" id="DejaVuSans-100"/>
       <path d="M 9.421875 54.6875 
L 18.40625 54.6875 
L 18.40625 0 
L 9.421875 0 
z
M 9.421875 75.984375 
L 18.40625 75.984375 
L 18.40625 64.59375 
L 9.421875 64.59375 
z
" id="DejaVuSans-105"/>
       <path d="M 52 44.1875 
Q 55.375 50.25 60.0625 53.125 
Q 64.75 56 71.09375 56 
Q 79.640625 56 84.28125 50.015625 
Q 88.921875 44.046875 88.921875 33.015625 
L 88.921875 0 
L 79.890625 0 
L 79.890625 32.71875 
Q 79.890625 40.578125 77.09375 44.375 
Q 74.3125 48.1875 68.609375 48.1875 
Q 61.625 48.1875 57.5625 43.546875 
Q 53.515625 38.921875 53.515625 30.90625 
L 53.515625 0 
L 44.484375 0 
L 44.484375 32.71875 
Q 44.484375 40.625 41.703125 44.40625 
Q 38.921875 48.1875 33.109375 48.1875 
Q 26.21875 48.1875 22.15625 43.53125 
Q 18.109375 38.875 18.109375 30.90625 
L 18.109375 0 
L 9.078125 0 
L 9.078125 54.6875 
L 18.109375 54.6875 
L 18.109375 46.1875 
Q 21.1875 51.21875 25.484375 53.609375 
Q 29.78125 56 35.6875 56 
Q 41.65625 56 45.828125 52.96875 
Q 50 49.953125 52 44.1875 
z
" id="DejaVuSans-109"/>
       <path d="M 54.890625 33.015625 
L 54.890625 0 
L 45.90625 0 
L 45.90625 32.71875 
Q 45.90625 40.484375 42.875 44.328125 
Q 39.84375 48.1875 33.796875 48.1875 
Q 26.515625 48.1875 22.3125 43.546875 
Q 18.109375 38.921875 18.109375 30.90625 
L 18.109375 0 
L 9.078125 0 
L 9.078125 54.6875 
L 18.109375 54.6875 
L 18.109375 46.1875 
Q 21.34375 51.125 25.703125 53.5625 
Q 30.078125 56 35.796875 56 
Q 45.21875 56 50.046875 50.171875 
Q 54.890625 44.34375 54.890625 33.015625 
z
" id="DejaVuSans-110"/>
       <path d="M 8.015625 75.875 
L 15.828125 75.875 
Q 23.140625 64.359375 26.78125 53.3125 
Q 30.421875 42.28125 30.421875 31.390625 
Q 30.421875 20.453125 26.78125 9.375 
Q 23.140625 -1.703125 15.828125 -13.1875 
L 8.015625 -13.1875 
Q 14.5 -2 17.703125 9.0625 
Q 20.90625 20.125 20.90625 31.390625 
Q 20.90625 42.671875 17.703125 53.65625 
Q 14.5 64.65625 8.015625 75.875 
z
" id="DejaVuSans-41"/>
      </defs>
      <use xlink:href="#DejaVuSans-108"/>
      <use x="27.783203" xlink:href="#DejaVuSans-111"/>
      <use x="88.964844" xlink:href="#DejaVuSans-103"/>
      <use x="152.441406" xlink:href="#DejaVuSans-49"/>
      <use x="216.064453" xlink:href="#DejaVuSans-48"/>
      <use x="279.6875" xlink:href="#DejaVuSans-40"/>
      <use x="318.701172" xlink:href="#DejaVuSans-35"/>
      <use x="402.490234" xlink:href="#DejaVuSans-32"/>
      <use x="434.277344" xlink:href="#DejaVuSans-102"/>
      <use x="463.982422" xlink:href="#DejaVuSans-45"/>
      <use x="500.066406" xlink:href="#DejaVuSans-101"/>
      <use x="561.589844" xlink:href="#DejaVuSans-118"/>
      <use x="620.769531" xlink:href="#DejaVuSans-97"/>
      <use x="682.048828" xlink:href="#DejaVuSans-108"/>
      <use x="709.832031" xlink:href="#DejaVuSans-115"/>
      <use x="761.931641" xlink:href="#DejaVuSans-32"/>
      <use x="793.71875" xlink:href="#DejaVuSans-47"/>
      <use x="827.410156" xlink:href="#DejaVuSans-32"/>
      <use x="859.197266" xlink:href="#DejaVuSans-100"/>
      <use x="922.673828" xlink:href="#DejaVuSans-105"/>
      <use x="950.457031" xlink:href="#DejaVuSans-109"/>
      <use x="1047.869141" xlink:href="#DejaVuSans-101"/>
      <use x="1109.392578" xlink:href="#DejaVuSans-110"/>
      <use x="1172.771484" xlink:href="#DejaVuSans-115"/>
      <use x="1224.871094" xlink:href="#DejaVuSans-105"/>
      <use x="1252.654297" xlink:href="#DejaVuSans-111"/>
      <use x="1313.835938" xlink:href="#DejaVuSans-110"/>
      <use x="1377.214844" xlink:href="#DejaVuSans-41"/>
     </g>
    </g>
   </g>
   <g id="matplotlib.axis_2">
    <g id="ytick_1">
     <g id="line2d_21">
      <path clip-path="url(#p9e247682da)" d="M 57.6 298.944 
L 338.688 298.944 
" style="fill:none;stroke:#b0b0b0;stroke-linecap:square;stroke-width:0.8;"/>
     </g>
     <g id="line2d_22">
      <defs>
       <path d="M 0 0 
L -3.5 0 
" id="m25eda6c7d1" style="stroke:#000000;stroke-width:0.8;"/>
      </defs>
      <g>
       <use style="stroke:#000000;stroke-width:0.8;" x="57.6" xlink:href="#m25eda6c7d1" y="298.944"/>
      </g>
     </g>
     <g id="text_6">
      <!-- 0.0 -->
      <g transform="translate(25.155 305.02275)scale(0.16 -0.16)">
       <defs>
        <path d="M 10.6875 12.40625 
L 21 12.40625 
L 21 0 
L 10.6875 0 
z
" id="DejaVuSans-46"/>
       </defs>
       <use xlink:href="#DejaVuSans-48"/>
       <use x="63.623047" xlink:href="#DejaVuSans-46"/>
       <use x="95.410156" xlink:href="#DejaVuSans-48"/>
      </g>
     </g>
    </g>
    <g id="ytick_2">
     <g id="line2d_23">
      <path clip-path="url(#p9e247682da)" d="M 57.6 245.22202 
L 338.688 245.22202 
" style="fill:none;stroke:#b0b0b0;stroke-linecap:square;stroke-width:0.8;"/>
     </g>
     <g id="line2d_24">
      <g>
       <use style="stroke:#000000;stroke-width:0.8;" x="57.6" xlink:href="#m25eda6c7d1" y="245.22202"/>
      </g>
     </g>
     <g id="text_7">
      <!-- 0.2 -->
      <g transform="translate(25.155 251.30077)scale(0.16 -0.16)">
       <use xlink:href="#DejaVuSans-48"/>
       <use x="63.623047" xlink:href="#DejaVuSans-46"/>
       <use x="95.410156" xlink:href="#DejaVuSans-50"/>
      </g>
     </g>
    </g>
    <g id="ytick_3">
     <g id="line2d_25">
      <path clip-path="url(#p9e247682da)" d="M 57.6 191.50004 
L 338.688 191.50004 
" style="fill:none;stroke:#b0b0b0;stroke-linecap:square;stroke-width:0.8;"/>
     </g>
     <g id="line2d_26">
      <g>
       <use style="stroke:#000000;stroke-width:0.8;" x="57.6" xlink:href="#m25eda6c7d1" y="191.50004"/>
      </g>
     </g>
     <g id="text_8">
      <!-- 0.4 -->
      <g transform="translate(25.155 197.57879)scale(0.16 -0.16)">
       <use xlink:href="#DejaVuSans-48"/>
       <use x="63.623047" xlink:href="#DejaVuSans-46"/>
       <use x="95.410156" xlink:href="#DejaVuSans-52"/>
      </g>
     </g>
    </g>
    <g id="ytick_4">
     <g id="line2d_27">
      <path clip-path="url(#p9e247682da)" d="M 57.6 137.778059 
L 338.688 137.778059 
" style="fill:none;stroke:#b0b0b0;stroke-linecap:square;stroke-width:0.8;"/>
     </g>
     <g id="line2d_28">
      <g>
       <use style="stroke:#000000;stroke-width:0.8;" x="57.6" xlink:href="#m25eda6c7d1" y="137.778059"/>
      </g>
     </g>
     <g id="text_9">
      <!-- 0.6 -->
      <g transform="translate(25.155 143.856809)scale(0.16 -0.16)">
       <use xlink:href="#DejaVuSans-48"/>
       <use x="63.623047" xlink:href="#DejaVuSans-46"/>
       <use x="95.410156" xlink:href="#DejaVuSans-54"/>
      </g>
     </g>
    </g>
    <g id="ytick_5">
     <g id="line2d_29">
      <path clip-path="url(#p9e247682da)" d="M 57.6 84.056079 
L 338.688 84.056079 
" style="fill:none;stroke:#b0b0b0;stroke-linecap:square;stroke-width:0.8;"/>
     </g>
     <g id="line2d_30">
      <g>
       <use style="stroke:#000000;stroke-width:0.8;" x="57.6" xlink:href="#m25eda6c7d1" y="84.056079"/>
      </g>
     </g>
     <g id="text_10">
      <!-- 0.8 -->
      <g transform="translate(25.155 90.134829)scale(0.16 -0.16)">
       <defs>
        <path d="M 31.78125 34.625 
Q 24.75 34.625 20.71875 30.859375 
Q 16.703125 27.09375 16.703125 20.515625 
Q 16.703125 13.921875 20.71875 10.15625 
Q 24.75 6.390625 31.78125 6.390625 
Q 38.8125 6.390625 42.859375 10.171875 
Q 46.921875 13.96875 46.921875 20.515625 
Q 46.921875 27.09375 42.890625 30.859375 
Q 38.875 34.625 31.78125 34.625 
z
M 21.921875 38.8125 
Q 15.578125 40.375 12.03125 44.71875 
Q 8.5 49.078125 8.5 55.328125 
Q 8.5 64.0625 14.71875 69.140625 
Q 20.953125 74.21875 31.78125 74.21875 
Q 42.671875 74.21875 48.875 69.140625 
Q 55.078125 64.0625 55.078125 55.328125 
Q 55.078125 49.078125 51.53125 44.71875 
Q 48 40.375 41.703125 38.8125 
Q 48.828125 37.15625 52.796875 32.3125 
Q 56.78125 27.484375 56.78125 20.515625 
Q 56.78125 9.90625 50.3125 4.234375 
Q 43.84375 -1.421875 31.78125 -1.421875 
Q 19.734375 -1.421875 13.25 4.234375 
Q 6.78125 9.90625 6.78125 20.515625 
Q 6.78125 27.484375 10.78125 32.3125 
Q 14.796875 37.15625 21.921875 38.8125 
z
M 18.3125 54.390625 
Q 18.3125 48.734375 21.84375 45.5625 
Q 25.390625 42.390625 31.78125 42.390625 
Q 38.140625 42.390625 41.71875 45.5625 
Q 45.3125 48.734375 45.3125 54.390625 
Q 45.3125 60.0625 41.71875 63.234375 
Q 38.140625 66.40625 31.78125 66.40625 
Q 25.390625 66.40625 21.84375 63.234375 
Q 18.3125 60.0625 18.3125 54.390625 
z
" id="DejaVuSans-56"/>
       </defs>
       <use xlink:href="#DejaVuSans-48"/>
       <use x="63.623047" xlink:href="#DejaVuSans-46"/>
       <use x="95.410156" xlink:href="#DejaVuSans-56"/>
      </g>
     </g>
    </g>
    <g id="ytick_6">
     <g id="line2d_31">
      <path clip-path="url(#p9e247682da)" d="M 57.6 30.334099 
L 338.688 30.334099 
" style="fill:none;stroke:#b0b0b0;stroke-linecap:square;stroke-width:0.8;"/>
     </g>
     <g id="line2d_32">
      <g>
       <use style="stroke:#000000;stroke-width:0.8;" x="57.6" xlink:href="#m25eda6c7d1" y="30.334099"/>
      </g>
     </g>
     <g id="text_11">
      <!-- 1.0 -->
      <g transform="translate(25.155 36.412849)scale(0.16 -0.16)">
       <use xlink:href="#DejaVuSans-49"/>
       <use x="63.623047" xlink:href="#DejaVuSans-46"/>
       <use x="95.410156" xlink:href="#DejaVuSans-48"/>
      </g>
     </g>
    </g>
    <g id="text_12">
     <!-- Fraction of function,target pairs -->
     <g transform="translate(17.619531 297.681)rotate(-90)scale(0.17 -0.17)">
      <defs>
       <path d="M 9.8125 72.90625 
L 51.703125 72.90625 
L 51.703125 64.59375 
L 19.671875 64.59375 
L 19.671875 43.109375 
L 48.578125 43.109375 
L 48.578125 34.8125 
L 19.671875 34.8125 
L 19.671875 0 
L 9.8125 0 
z
" id="DejaVuSans-70"/>
       <path d="M 41.109375 46.296875 
Q 39.59375 47.171875 37.8125 47.578125 
Q 36.03125 48 33.890625 48 
Q 26.265625 48 22.1875 43.046875 
Q 18.109375 38.09375 18.109375 28.8125 
L 18.109375 0 
L 9.078125 0 
L 9.078125 54.6875 
L 18.109375 54.6875 
L 18.109375 46.1875 
Q 20.953125 51.171875 25.484375 53.578125 
Q 30.03125 56 36.53125 56 
Q 37.453125 56 38.578125 55.875 
Q 39.703125 55.765625 41.0625 55.515625 
z
" id="DejaVuSans-114"/>
       <path d="M 48.78125 52.59375 
L 48.78125 44.1875 
Q 44.96875 46.296875 41.140625 47.34375 
Q 37.3125 48.390625 33.40625 48.390625 
Q 24.65625 48.390625 19.8125 42.84375 
Q 14.984375 37.3125 14.984375 27.296875 
Q 14.984375 17.28125 19.8125 11.734375 
Q 24.65625 6.203125 33.40625 6.203125 
Q 37.3125 6.203125 41.140625 7.25 
Q 44.96875 8.296875 48.78125 10.40625 
L 48.78125 2.09375 
Q 45.015625 0.34375 40.984375 -0.53125 
Q 36.96875 -1.421875 32.421875 -1.421875 
Q 20.0625 -1.421875 12.78125 6.34375 
Q 5.515625 14.109375 5.515625 27.296875 
Q 5.515625 40.671875 12.859375 48.328125 
Q 20.21875 56 33.015625 56 
Q 37.15625 56 41.109375 55.140625 
Q 45.0625 54.296875 48.78125 52.59375 
z
" id="DejaVuSans-99"/>
       <path d="M 18.3125 70.21875 
L 18.3125 54.6875 
L 36.8125 54.6875 
L 36.8125 47.703125 
L 18.3125 47.703125 
L 18.3125 18.015625 
Q 18.3125 11.328125 20.140625 9.421875 
Q 21.96875 7.515625 27.59375 7.515625 
L 36.8125 7.515625 
L 36.8125 0 
L 27.59375 0 
Q 17.1875 0 13.234375 3.875 
Q 9.28125 7.765625 9.28125 18.015625 
L 9.28125 47.703125 
L 2.6875 47.703125 
L 2.6875 54.6875 
L 9.28125 54.6875 
L 9.28125 70.21875 
z
" id="DejaVuSans-116"/>
       <path d="M 8.5 21.578125 
L 8.5 54.6875 
L 17.484375 54.6875 
L 17.484375 21.921875 
Q 17.484375 14.15625 20.5 10.265625 
Q 23.53125 6.390625 29.59375 6.390625 
Q 36.859375 6.390625 41.078125 11.03125 
Q 45.3125 15.671875 45.3125 23.6875 
L 45.3125 54.6875 
L 54.296875 54.6875 
L 54.296875 0 
L 45.3125 0 
L 45.3125 8.40625 
Q 42.046875 3.421875 37.71875 1 
Q 33.40625 -1.421875 27.6875 -1.421875 
Q 18.265625 -1.421875 13.375 4.4375 
Q 8.5 10.296875 8.5 21.578125 
z
M 31.109375 56 
z
" id="DejaVuSans-117"/>
       <path d="M 11.71875 12.40625 
L 22.015625 12.40625 
L 22.015625 4 
L 14.015625 -11.625 
L 7.71875 -11.625 
L 11.71875 4 
z
" id="DejaVuSans-44"/>
       <path d="M 18.109375 8.203125 
L 18.109375 -20.796875 
L 9.078125 -20.796875 
L 9.078125 54.6875 
L 18.109375 54.6875 
L 18.109375 46.390625 
Q 20.953125 51.265625 25.265625 53.625 
Q 29.59375 56 35.59375 56 
Q 45.5625 56 51.78125 48.09375 
Q 58.015625 40.1875 58.015625 27.296875 
Q 58.015625 14.40625 51.78125 6.484375 
Q 45.5625 -1.421875 35.59375 -1.421875 
Q 29.59375 -1.421875 25.265625 0.953125 
Q 20.953125 3.328125 18.109375 8.203125 
z
M 48.6875 27.296875 
Q 48.6875 37.203125 44.609375 42.84375 
Q 40.53125 48.484375 33.40625 48.484375 
Q 26.265625 48.484375 22.1875 42.84375 
Q 18.109375 37.203125 18.109375 27.296875 
Q 18.109375 17.390625 22.1875 11.75 
Q 26.265625 6.109375 33.40625 6.109375 
Q 40.53125 6.109375 44.609375 11.75 
Q 48.6875 17.390625 48.6875 27.296875 
z
" id="DejaVuSans-112"/>
      </defs>
      <use xlink:href="#DejaVuSans-70"/>
      <use x="50.269531" xlink:href="#DejaVuSans-114"/>
      <use x="91.382812" xlink:href="#DejaVuSans-97"/>
      <use x="152.662109" xlink:href="#DejaVuSans-99"/>
      <use x="207.642578" xlink:href="#DejaVuSans-116"/>
      <use x="246.851562" xlink:href="#DejaVuSans-105"/>
      <use x="274.634766" xlink:href="#DejaVuSans-111"/>
      <use x="335.816406" xlink:href="#DejaVuSans-110"/>
      <use x="399.195312" xlink:href="#DejaVuSans-32"/>
      <use x="430.982422" xlink:href="#DejaVuSans-111"/>
      <use x="492.164062" xlink:href="#DejaVuSans-102"/>
      <use x="527.369141" xlink:href="#DejaVuSans-32"/>
      <use x="559.15625" xlink:href="#DejaVuSans-102"/>
      <use x="594.361328" xlink:href="#DejaVuSans-117"/>
      <use x="657.740234" xlink:href="#DejaVuSans-110"/>
      <use x="721.119141" xlink:href="#DejaVuSans-99"/>
      <use x="776.099609" xlink:href="#DejaVuSans-116"/>
      <use x="815.308594" xlink:href="#DejaVuSans-105"/>
      <use x="843.091797" xlink:href="#DejaVuSans-111"/>
      <use x="904.273438" xlink:href="#DejaVuSans-110"/>
      <use x="967.652344" xlink:href="#DejaVuSans-44"/>
      <use x="999.439453" xlink:href="#DejaVuSans-116"/>
      <use x="1038.648438" xlink:href="#DejaVuSans-97"/>
      <use x="1099.927734" xlink:href="#DejaVuSans-114"/>
      <use x="1139.291016" xlink:href="#DejaVuSans-103"/>
      <use x="1202.767578" xlink:href="#DejaVuSans-101"/>
      <use x="1264.291016" xlink:href="#DejaVuSans-116"/>
      <use x="1303.5" xlink:href="#DejaVuSans-32"/>
      <use x="1335.287109" xlink:href="#DejaVuSans-112"/>
      <use x="1398.763672" xlink:href="#DejaVuSans-97"/>
      <use x="1460.042969" xlink:href="#DejaVuSans-105"/>
      <use x="1487.826172" xlink:href="#DejaVuSans-114"/>
      <use x="1528.939453" xlink:href="#DejaVuSans-115"/>
     </g>
    </g>
   </g>
   <g id="line2d_33">
    <defs>
     <path d="M 0 1.5 
C 0.397805 1.5 0.77937 1.341951 1.06066 1.06066 
C 1.341951 0.77937 1.5 0.397805 1.5 0 
C 1.5 -0.397805 1.341951 -0.77937 1.06066 -1.06066 
C 0.77937 -1.341951 0.397805 -1.5 0 -1.5 
C -0.397805 -1.5 -0.77937 -1.341951 -1.06066 -1.06066 
C -1.341951 -0.77937 -1.5 -0.397805 -1.5 0 
C -1.5 0.397805 -1.341951 0.77937 -1.06066 1.06066 
C -0.77937 1.341951 -0.397805 1.5 0 1.5 
z
" id="m1813802fd3" style="stroke:#f5deb3;"/>
    </defs>
    <g>
     <use style="fill:#f5deb3;stroke:#f5deb3;" x="252.230055" xlink:href="#m1813802fd3" y="62.752535"/>
     <use style="fill:#f5deb3;stroke:#f5deb3;" x="252.230055" xlink:href="#m1813802fd3" y="62.752535"/>
    </g>
   </g>
   <g id="line2d_34">
    <defs>
     <path d="M 0 1.5 
C 0.397805 1.5 0.77937 1.341951 1.06066 1.06066 
C 1.341951 0.77937 1.5 0.397805 1.5 0 
C 1.5 -0.397805 1.341951 -0.77937 1.06066 -1.06066 
C 0.77937 -1.341951 0.397805 -1.5 0 -1.5 
C -0.397805 -1.5 -0.77937 -1.341951 -1.06066 -1.06066 
C -1.341951 -0.77937 -1.5 -0.397805 -1.5 0 
C -1.5 0.397805 -1.341951 0.77937 -1.06066 1.06066 
C -0.77937 1.341951 -0.397805 1.5 0 1.5 
z
" id="mbc260d846c" style="stroke:#000080;"/>
    </defs>
    <g>
     <use style="fill:#000080;stroke:#000080;" x="257.024675" xlink:href="#mbc260d846c" y="106.748985"/>
     <use style="fill:#000080;stroke:#000080;" x="257.024675" xlink:href="#mbc260d846c" y="106.748985"/>
    </g>
   </g>
   <g id="line2d_35">
    <path d="M 17.444571 298.944 
L 17.444571 289.218469 
L 55.762588 289.218469 
L 55.762588 287.829108 
L 59.262141 287.829108 
L 59.262141 287.365987 
L 85.315119 287.365987 
L 85.315119 286.902867 
L 92.73846 286.902867 
L 92.73846 286.439746 
L 93.644601 286.439746 
L 93.644601 285.976625 
L 95.326798 285.976625 
L 95.326798 285.513505 
L 96.489848 285.513505 
L 96.489848 285.050384 
L 98.270913 285.050384 
L 98.270913 284.587264 
L 99.731799 284.587264 
L 99.731799 284.124143 
L 101.365607 284.124143 
L 101.365607 283.661023 
L 105.51043 283.661023 
L 105.51043 283.197902 
L 107.811151 283.197902 
L 107.811151 282.734782 
L 118.681952 282.734782 
L 118.681952 282.271661 
L 123.233135 282.271661 
L 123.233135 281.808541 
L 124.965026 281.808541 
L 124.965026 281.34542 
L 130.425122 281.34542 
L 130.425122 280.8823 
L 134.364738 280.8823 
L 134.364738 280.419179 
L 137.37967 280.419179 
L 137.37967 279.956059 
L 137.963097 279.956059 
L 137.963097 279.492938 
L 141.885829 279.492938 
L 141.885829 279.029818 
L 142.33811 279.029818 
L 142.33811 278.103577 
L 143.51512 278.103577 
L 143.51512 277.640456 
L 145.463466 277.640456 
L 145.463466 277.177336 
L 145.632289 277.177336 
L 145.632289 276.714215 
L 149.841182 276.714215 
L 149.841182 276.251095 
L 150.224095 276.251095 
L 150.224095 275.324854 
L 153.098289 275.324854 
L 153.098289 274.861733 
L 153.959927 274.861733 
L 153.973817 273.935492 
L 154.187714 273.935492 
L 154.187714 273.472371 
L 154.337936 273.472371 
L 154.337936 273.009251 
L 154.707925 273.009251 
L 154.707925 272.54613 
L 155.703987 272.54613 
L 155.703987 271.156769 
L 159.51732 271.156769 
L 159.51732 270.230528 
L 160.297798 270.230528 
L 160.297798 269.767407 
L 160.56149 269.767407 
L 160.56149 269.304287 
L 162.53871 269.304287 
L 162.631923 267.451805 
L 162.724641 267.451805 
L 162.724641 266.988684 
L 164.398623 266.988684 
L 164.398623 266.062443 
L 165.017568 266.062443 
L 165.017568 265.599323 
L 165.876855 265.599323 
L 165.876855 265.136202 
L 166.493781 265.136202 
L 166.493781 264.209961 
L 166.715855 264.209961 
L 166.715855 263.746841 
L 167.161475 263.746841 
L 167.258974 262.8206 
L 168.793666 262.8206 
L 168.793666 262.357479 
L 170.494616 262.357479 
L 170.494616 261.894358 
L 170.912232 261.894358 
L 170.912232 261.431238 
L 172.618521 261.431238 
L 172.618521 260.968117 
L 173.135139 260.968117 
L 173.135139 260.504997 
L 173.710926 260.504997 
L 173.80915 259.578756 
L 174.626698 259.578756 
L 174.626698 258.652515 
L 175.060946 258.652515 
L 175.060946 258.189394 
L 175.687696 258.189394 
L 175.687696 257.726274 
L 176.143406 257.726274 
L 176.143406 257.263153 
L 176.335123 257.263153 
L 176.335123 256.800033 
L 176.545699 256.800033 
L 176.545699 256.336912 
L 177.853983 256.336912 
L 177.853983 255.873792 
L 178.541087 255.873792 
L 178.541087 255.410671 
L 178.782098 255.410671 
L 178.782098 254.947551 
L 178.910506 254.947551 
L 178.910506 254.02131 
L 179.093966 254.02131 
L 179.093966 253.558189 
L 179.308028 253.558189 
L 179.308028 253.095069 
L 180.246989 253.095069 
L 180.2977 251.705707 
L 180.565698 251.705707 
L 180.565698 250.779466 
L 181.008809 250.779466 
L 181.008809 249.853225 
L 181.692053 249.853225 
L 181.692053 249.390104 
L 181.86262 249.390104 
L 181.86262 248.463863 
L 182.153363 248.463863 
L 182.153363 247.537622 
L 182.954163 247.537622 
L 182.954163 247.074502 
L 183.184543 247.074502 
L 183.184543 246.148261 
L 183.543625 246.148261 
L 183.543625 244.758899 
L 183.830422 244.758899 
L 183.921659 242.906417 
L 184.144607 242.906417 
L 184.144607 242.443297 
L 184.769556 242.443297 
L 184.769556 241.980176 
L 185.736118 241.980176 
L 185.747349 240.127694 
L 186.101847 240.127694 
L 186.101847 239.201453 
L 186.330258 239.201453 
L 186.389872 237.812091 
L 187.316983 237.812091 
L 187.339541 235.959609 
L 187.530114 235.959609 
L 187.530114 235.033368 
L 187.663393 235.033368 
L 187.663393 234.570248 
L 187.937829 234.570248 
L 187.937829 233.644007 
L 188.431776 233.644007 
L 188.53733 232.254645 
L 189.289103 232.254645 
L 189.289103 231.328404 
L 189.633871 231.328404 
L 189.69754 229.939043 
L 190.125476 229.939043 
L 190.125476 229.012802 
L 190.382967 229.012802 
L 190.382967 228.549681 
L 191.075585 228.549681 
L 191.075585 228.086561 
L 191.331747 228.086561 
L 191.331747 227.16032 
L 191.681933 227.16032 
L 191.681933 226.234079 
L 192.197471 226.234079 
L 192.223046 224.381596 
L 193.287264 224.381596 
L 193.311291 222.529114 
L 193.606359 222.529114 
L 193.614226 220.676632 
L 194.072225 220.676632 
L 194.072225 220.213512 
L 194.186772 220.213512 
L 194.186772 219.750391 
L 194.622743 219.750391 
L 194.622743 218.82415 
L 194.793323 218.82415 
L 194.793323 217.897909 
L 195.253015 217.897909 
L 195.356852 216.508548 
L 195.70217 216.508548 
L 195.70217 215.582307 
L 196.231365 215.582307 
L 196.332612 212.803583 
L 196.493394 212.803583 
L 196.493394 212.340463 
L 196.817126 212.340463 
L 196.817126 211.414222 
L 197.123267 211.414222 
L 197.123267 210.951101 
L 197.237497 210.951101 
L 197.237497 210.487981 
L 197.443656 210.487981 
L 197.528985 208.635499 
L 198.112108 208.635499 
L 198.16782 207.709258 
L 198.267218 207.709258 
L 198.3066 205.856776 
L 198.589494 205.856776 
L 198.619035 204.467414 
L 198.894304 204.467414 
L 198.894304 204.004294 
L 199.09076 204.004294 
L 199.09076 203.078053 
L 199.582592 203.078053 
L 199.582592 202.614932 
L 199.778016 202.614932 
L 199.778016 201.688691 
L 199.925525 201.688691 
L 199.925525 200.76245 
L 200.133409 200.76245 
L 200.216364 199.836209 
L 200.273563 199.836209 
L 200.273563 199.373088 
L 200.385948 199.373088 
L 200.385948 198.446847 
L 200.561102 198.446847 
L 200.561102 197.983727 
L 201.045459 197.983727 
L 201.045459 197.520606 
L 201.225702 197.520606 
L 201.225702 196.594365 
L 201.815935 196.594365 
L 201.877926 195.668124 
L 202.004787 195.668124 
L 202.004787 195.205004 
L 202.116246 195.205004 
L 202.125904 194.278763 
L 202.294068 194.278763 
L 202.294068 193.815642 
L 202.55038 193.815642 
L 202.55038 192.889401 
L 202.672459 192.889401 
L 202.672459 191.96316 
L 203.182173 191.96316 
L 203.182173 191.50004 
L 203.304436 191.50004 
L 203.387512 190.573799 
L 203.423403 190.573799 
L 203.481569 189.184437 
L 203.588444 189.184437 
L 203.593287 187.795075 
L 203.716718 187.795075 
L 203.79706 186.868834 
L 203.840475 186.868834 
L 203.840475 186.405714 
L 204.186294 186.405714 
L 204.186294 185.479473 
L 204.465236 185.479473 
L 204.465236 185.016352 
L 204.756024 185.016352 
L 204.756024 184.090111 
L 204.919824 184.090111 
L 204.93739 183.16387 
L 205.085063 183.16387 
L 205.085063 182.237629 
L 205.222311 182.237629 
L 205.222311 181.311388 
L 205.341706 181.311388 
L 205.341706 180.848268 
L 205.626614 180.848268 
L 205.626614 180.385147 
L 205.842513 180.385147 
L 205.842513 179.922027 
L 206.005601 179.922027 
L 206.005601 179.458906 
L 206.281679 179.458906 
L 206.37343 178.532665 
L 206.672898 178.532665 
L 206.759591 176.680183 
L 206.879975 176.680183 
L 206.879975 176.217062 
L 207.00816 176.217062 
L 207.089905 174.827701 
L 207.492011 174.827701 
L 207.529398 173.438339 
L 208.11788 173.438339 
L 208.134059 172.048978 
L 208.31566 172.048978 
L 208.366061 171.122737 
L 208.634044 171.122737 
L 208.634044 170.659616 
L 208.796772 170.659616 
L 208.806051 169.733375 
L 209.004506 169.733375 
L 209.048531 168.344014 
L 209.319676 168.344014 
L 209.319676 167.880893 
L 209.505217 167.880893 
L 209.505217 167.417773 
L 209.644658 167.417773 
L 209.644658 166.491532 
L 209.776201 166.491532 
L 209.776201 165.565291 
L 210.041644 165.565291 
L 210.095085 164.63905 
L 210.259113 164.63905 
L 210.321223 163.249688 
L 210.453769 163.249688 
L 210.453769 162.786567 
L 210.966437 162.786567 
L 210.966437 162.323447 
L 211.099172 162.323447 
L 211.165424 161.397206 
L 211.488599 161.397206 
L 211.491421 160.470965 
L 211.833837 160.470965 
L 211.851185 159.081603 
L 211.97039 159.081603 
L 212.003802 157.692242 
L 212.288675 157.692242 
L 212.288675 157.229121 
L 212.607513 157.229121 
L 212.607513 156.30288 
L 212.825118 156.30288 
L 212.825118 155.376639 
L 213.509464 155.376639 
L 213.611759 153.524157 
L 213.671173 153.524157 
L 213.717295 151.671675 
L 214.008156 151.671675 
L 214.008156 151.208554 
L 214.202258 151.208554 
L 214.220475 150.282313 
L 214.58732 150.282313 
L 214.58732 149.356072 
L 214.719352 149.356072 
L 214.796778 148.429831 
L 215.238737 148.429831 
L 215.288535 145.651108 
L 215.418863 145.651108 
L 215.432375 144.724867 
L 215.812116 144.724867 
L 215.812116 144.261747 
L 216.069115 144.261747 
L 216.073257 142.872385 
L 216.23309 142.872385 
L 216.23309 142.409265 
L 216.471089 142.409265 
L 216.471089 141.946144 
L 216.632491 141.946144 
L 216.685136 141.019903 
L 216.945629 141.019903 
L 216.945629 140.556783 
L 217.476533 140.556783 
L 217.476533 140.093662 
L 217.62821 140.093662 
L 217.62821 139.630541 
L 217.793957 139.630541 
L 217.793957 138.7043 
L 218.086561 138.7043 
L 218.195186 137.314939 
L 218.229212 137.314939 
L 218.229212 136.851818 
L 218.965791 136.851818 
L 218.965791 136.388698 
L 219.12366 136.388698 
L 219.207419 135.462457 
L 219.333372 135.462457 
L 219.333372 134.999336 
L 219.504659 134.999336 
L 219.504659 134.073095 
L 219.683906 134.073095 
L 219.783529 132.683734 
L 219.813162 132.683734 
L 219.813162 131.757493 
L 220.501398 131.757493 
L 220.530448 130.368131 
L 220.741061 130.368131 
L 220.809752 128.97877 
L 221.159523 128.97877 
L 221.159523 128.515649 
L 221.661061 128.515649 
L 221.661061 128.052529 
L 222.008227 128.052529 
L 222.102571 126.663167 
L 222.906815 126.663167 
L 222.906815 126.200046 
L 223.124606 126.200046 
L 223.159591 124.810685 
L 223.811681 124.810685 
L 223.811681 123.884444 
L 225.281337 123.884444 
L 225.281337 123.421323 
L 225.466721 123.421323 
L 225.466721 122.495082 
L 226.174907 122.495082 
L 226.174907 122.031962 
L 226.330825 122.031962 
L 226.330825 121.568841 
L 227.76543 121.568841 
L 227.76543 121.105721 
L 230.401106 121.105721 
L 230.401106 120.17948 
L 231.822417 120.17948 
L 231.822417 119.253239 
L 232.00194 119.253239 
L 232.00194 118.790118 
L 232.408806 118.790118 
L 232.408806 118.326998 
L 232.720492 118.326998 
L 232.720492 117.863877 
L 233.817569 117.863877 
L 233.817569 117.400757 
L 234.569132 117.400757 
L 234.569132 116.474516 
L 234.729987 116.474516 
L 234.729987 116.011395 
L 235.060267 116.011395 
L 235.060267 115.548274 
L 235.476462 115.548274 
L 235.476462 115.085154 
L 238.03567 115.085154 
L 238.03567 114.622033 
L 238.14918 114.622033 
L 238.14918 113.695792 
L 239.208697 113.695792 
L 239.208697 113.232672 
L 240.907428 113.232672 
L 240.907428 112.769551 
L 241.142468 112.769551 
L 241.142468 112.306431 
L 241.375261 112.306431 
L 241.375261 111.84331 
L 242.592141 111.84331 
L 242.592141 111.38019 
L 243.707188 111.38019 
L 243.707188 110.453949 
L 248.408099 110.453949 
L 248.408099 109.990828 
L 252.680525 109.990828 
L 252.680525 109.527708 
L 253.133155 109.527708 
L 253.133155 109.064587 
L 255.41807 109.064587 
L 255.41807 108.138346 
L 256.333744 108.138346 
L 256.333744 107.675226 
L 257.024675 107.675226 
L 257.024675 106.748985 
L 338.688 106.748985 
L 338.688 106.748985 
" style="fill:none;stroke:#000080;stroke-linecap:square;stroke-width:1.5;"/>
   </g>
   <g id="line2d_36">
    <defs>
     <path d="M 0 6 
C 1.591219 6 3.117479 5.367802 4.242641 4.242641 
C 5.367802 3.117479 6 1.591219 6 0 
C 6 -1.591219 5.367802 -3.117479 4.242641 -4.242641 
C 3.117479 -5.367802 1.591219 -6 0 -6 
C -1.591219 -6 -3.117479 -5.367802 -4.242641 -4.242641 
C -5.367802 -3.117479 -6 -1.591219 -6 0 
C -6 1.591219 -5.367802 3.117479 -4.242641 4.242641 
C -3.117479 5.367802 -1.591219 6 0 6 
z
" id="m1a593bb3df" style="stroke:#000080;stroke-width:1.5;"/>
    </defs>
    <g>
     <use style="fill-opacity:0;stroke:#000080;stroke-width:1.5;" x="150.224095" xlink:href="#m1a593bb3df" y="276.251095"/>
     <use style="fill-opacity:0;stroke:#000080;stroke-width:1.5;" x="200.216364" xlink:href="#m1a593bb3df" y="199.836209"/>
     <use style="fill-opacity:0;stroke:#000080;stroke-width:1.5;" x="248.408099" xlink:href="#m1a593bb3df" y="109.990828"/>
     <use style="fill-opacity:0;stroke:#000080;stroke-width:1.5;" x="257.024675" xlink:href="#m1a593bb3df" y="106.748985"/>
     <use style="fill-opacity:0;stroke:#000080;stroke-width:1.5;" x="257.024675" xlink:href="#m1a593bb3df" y="106.748985"/>
     <use style="fill-opacity:0;stroke:#000080;stroke-width:1.5;" x="338.688" xlink:href="#m1a593bb3df" y="106.748985"/>
    </g>
   </g>
   <g id="line2d_37">
    <path style="fill:none;stroke:#000080;stroke-linecap:square;stroke-width:1.5;"/>
    <g/>
   </g>
   <g id="line2d_38">
    <path clip-path="url(#p9e247682da)" d="M 258.37716 106.748985 
" style="fill:none;stroke:#000080;stroke-linecap:square;stroke-width:1.5;"/>
    <defs>
     <path d="M -12 12 
L 12 -12 
M -12 -12 
L 12 12 
" id="mb57a3849bf" style="stroke:#000080;"/>
    </defs>
    <g clip-path="url(#p9e247682da)">
     <use style="fill:#000080;stroke:#000080;" x="258.37716" xlink:href="#mb57a3849bf" y="106.748985"/>
    </g>
   </g>
   <g id="line2d_39">
    <defs>
     <path d="M 0 1.5 
C 0.397805 1.5 0.77937 1.341951 1.06066 1.06066 
C 1.341951 0.77937 1.5 0.397805 1.5 0 
C 1.5 -0.397805 1.341951 -0.77937 1.06066 -1.06066 
C 0.77937 -1.341951 0.397805 -1.5 0 -1.5 
C -0.397805 -1.5 -0.77937 -1.341951 -1.06066 -1.06066 
C -1.341951 -0.77937 -1.5 -0.397805 -1.5 0 
C -1.5 0.397805 -1.341951 0.77937 -1.06066 1.06066 
C -0.77937 1.341951 -0.397805 1.5 0 1.5 
z
" id="m12fa91c32b" style="stroke:#ff00ff;"/>
    </defs>
    <g>
     <use style="fill:#ff00ff;stroke:#ff00ff;" x="257.326998" xlink:href="#m12fa91c32b" y="181.311388"/>
     <use style="fill:#ff00ff;stroke:#ff00ff;" x="257.326998" xlink:href="#m12fa91c32b" y="181.311388"/>
    </g>
   </g>
   <g id="line2d_40">
    <path d="M 17.444571 298.944 
L 17.444571 291.070951 
L 121.53454 291.070951 
L 121.53454 290.607831 
L 128.590686 290.607831 
L 128.590686 290.14471 
L 129.686407 290.14471 
L 129.686407 289.218469 
L 133.622529 289.218469 
L 133.622529 288.755349 
L 134.106373 288.755349 
L 134.106373 288.292228 
L 135.014985 288.292228 
L 135.014985 287.829108 
L 136.266147 287.829108 
L 136.361705 286.902867 
L 136.475687 286.902867 
L 136.570107 285.050384 
L 136.831795 285.050384 
L 136.831795 284.587264 
L 138.032507 284.587264 
L 138.032507 284.124143 
L 138.375473 284.124143 
L 138.426341 283.197902 
L 138.67848 283.197902 
L 138.67848 282.734782 
L 138.959898 282.734782 
L 138.959898 282.271661 
L 139.333553 282.271661 
L 139.333553 281.808541 
L 139.604677 281.808541 
L 139.69937 280.8823 
L 139.902792 280.8823 
L 139.902792 280.419179 
L 140.469102 280.419179 
L 140.514223 279.029818 
L 140.812083 279.029818 
L 140.812083 278.566697 
L 141.191848 278.566697 
L 141.263941 277.640456 
L 141.307054 277.640456 
L 141.307054 277.177336 
L 142.818488 277.177336 
L 142.818488 276.714215 
L 143.014805 276.714215 
L 143.105668 275.787974 
L 143.51512 275.787974 
L 143.60342 274.861733 
L 144.653267 274.861733 
L 144.653267 274.398612 
L 145.120836 274.398612 
L 145.212864 273.009251 
L 145.235796 273.009251 
L 145.235796 272.54613 
L 145.440832 272.54613 
L 145.440832 272.08301 
L 146.216039 272.08301 
L 146.216039 271.156769 
L 146.591092 271.156769 
L 146.591092 270.693648 
L 146.801841 270.693648 
L 146.801841 270.230528 
L 147.388869 270.230528 
L 147.409112 269.304287 
L 148.112924 269.304287 
L 148.112924 268.841166 
L 149.682079 268.841166 
L 149.682079 268.378046 
L 150.137805 268.378046 
L 150.137805 267.451805 
L 150.412445 267.451805 
L 150.412445 266.525564 
L 151.023238 266.525564 
L 151.023238 266.062443 
L 151.227591 266.062443 
L 151.227591 265.599323 
L 151.740076 265.599323 
L 151.740076 265.136202 
L 153.061751 265.136202 
L 153.127464 263.746841 
L 153.236437 263.746841 
L 153.236437 263.28372 
L 153.48095 263.28372 
L 153.537988 261.894358 
L 153.623196 261.894358 
L 153.623196 261.431238 
L 154.084543 261.431238 
L 154.084543 260.504997 
L 154.833936 260.504997 
L 154.840544 259.578756 
L 155.290488 259.578756 
L 155.290488 259.115635 
L 156.484659 259.115635 
L 156.484659 258.652515 
L 157.540141 258.652515 
L 157.540141 258.189394 
L 157.669802 258.189394 
L 157.669802 257.726274 
L 157.820792 257.726274 
L 157.820792 257.263153 
L 158.047603 257.263153 
L 158.047603 256.800033 
L 158.497919 256.800033 
L 158.497919 255.873792 
L 158.889829 255.873792 
L 158.889829 254.947551 
L 159.180664 254.947551 
L 159.180664 254.48443 
L 161.187726 254.48443 
L 161.187726 253.558189 
L 162.051921 253.558189 
L 162.051921 253.095069 
L 163.35211 253.095069 
L 163.35211 252.168828 
L 164.094319 252.168828 
L 164.094319 251.705707 
L 164.337419 251.705707 
L 164.337419 251.242587 
L 165.215452 251.242587 
L 165.215452 250.316346 
L 165.346138 250.316346 
L 165.346138 249.390104 
L 165.746566 249.390104 
L 165.746566 248.926984 
L 166.872292 248.926984 
L 166.872292 248.463863 
L 167.294587 248.463863 
L 167.365597 247.537622 
L 167.529106 247.537622 
L 167.529106 247.074502 
L 168.244969 247.074502 
L 168.244969 246.611381 
L 168.701418 246.611381 
L 168.701418 245.68514 
L 168.979647 245.68514 
L 168.979647 245.22202 
L 170.930621 245.22202 
L 170.930621 244.295779 
L 171.688467 244.295779 
L 171.688467 243.832658 
L 172.167033 243.832658 
L 172.167033 243.369538 
L 173.222844 243.369538 
L 173.222844 242.906417 
L 173.920102 242.906417 
L 173.920102 242.443297 
L 174.488079 242.443297 
L 174.584164 240.590815 
L 175.577416 240.590815 
L 175.577416 240.127694 
L 177.753071 240.127694 
L 177.753071 239.201453 
L 178.953652 239.201453 
L 178.953652 238.738333 
L 180.107931 238.738333 
L 180.107931 238.275212 
L 182.18231 238.275212 
L 182.18231 237.812091 
L 182.76338 237.812091 
L 182.76338 236.88585 
L 183.018609 236.88585 
L 183.018609 236.42273 
L 184.980815 236.42273 
L 185.005432 234.107127 
L 186.032405 234.107127 
L 186.032405 233.644007 
L 187.309799 233.644007 
L 187.309799 233.180886 
L 188.411552 233.180886 
L 188.411552 232.254645 
L 188.786195 232.254645 
L 188.786195 231.328404 
L 189.874762 231.328404 
L 189.874762 230.402163 
L 190.387269 230.402163 
L 190.387269 229.475922 
L 191.576971 229.475922 
L 191.576971 228.549681 
L 193.763035 228.549681 
L 193.763035 227.62344 
L 194.224788 227.62344 
L 194.224788 226.697199 
L 194.764562 226.697199 
L 194.764562 225.770958 
L 195.558211 225.770958 
L 195.641801 224.844717 
L 196.2018 224.844717 
L 196.2018 223.918476 
L 196.473984 223.918476 
L 196.477625 222.529114 
L 196.628061 222.529114 
L 196.628061 222.065994 
L 196.773631 222.065994 
L 196.773631 221.602873 
L 197.155397 221.602873 
L 197.155397 220.676632 
L 197.340593 220.676632 
L 197.340593 219.750391 
L 197.981788 219.750391 
L 197.981788 219.287271 
L 198.753751 219.287271 
L 198.753751 218.36103 
L 200.641096 218.36103 
L 200.641096 217.434789 
L 200.758741 217.434789 
L 200.830746 216.508548 
L 201.305472 216.508548 
L 201.305472 216.045427 
L 202.498043 216.045427 
L 202.498043 215.582307 
L 202.752243 215.582307 
L 202.752243 215.119186 
L 202.999452 215.119186 
L 202.999452 214.192945 
L 204.423351 214.192945 
L 204.423351 213.266704 
L 205.195463 213.266704 
L 205.195463 212.803583 
L 205.565824 212.803583 
L 205.565824 211.877342 
L 205.903055 211.877342 
L 205.903055 210.951101 
L 206.198827 210.951101 
L 206.198827 210.487981 
L 207.650996 210.487981 
L 207.650996 209.56174 
L 207.836406 209.56174 
L 207.836406 209.098619 
L 209.365522 209.098619 
L 209.365522 208.635499 
L 211.470373 208.635499 
L 211.470373 207.709258 
L 212.441658 207.709258 
L 212.441658 207.246137 
L 212.755827 207.246137 
L 212.755827 206.783017 
L 213.393 206.783017 
L 213.393 205.856776 
L 213.910847 205.856776 
L 213.910847 204.930535 
L 214.090344 204.930535 
L 214.090344 204.467414 
L 214.345722 204.467414 
L 214.345722 204.004294 
L 215.390373 204.004294 
L 215.390373 203.078053 
L 215.697407 203.078053 
L 215.697407 202.614932 
L 215.932242 202.614932 
L 215.969984 201.225571 
L 217.01286 201.225571 
L 217.01286 200.76245 
L 217.72591 200.76245 
L 217.72591 199.836209 
L 218.7891 199.836209 
L 218.882539 197.520606 
L 219.092831 197.520606 
L 219.092831 197.057486 
L 219.278308 197.057486 
L 219.278308 196.594365 
L 219.709065 196.594365 
L 219.709065 196.131245 
L 220.628555 196.131245 
L 220.628555 195.668124 
L 221.564003 195.668124 
L 221.610015 193.815642 
L 224.869325 193.815642 
L 224.869325 192.889401 
L 227.836415 192.889401 
L 227.836415 192.426281 
L 229.363985 192.426281 
L 229.363985 191.96316 
L 231.453809 191.96316 
L 231.453809 191.50004 
L 232.140896 191.50004 
L 232.140896 191.036919 
L 233.184772 191.036919 
L 233.184772 190.110678 
L 233.821276 190.110678 
L 233.821276 189.647558 
L 235.246528 189.647558 
L 235.246528 189.184437 
L 240.557324 189.184437 
L 240.597009 187.795075 
L 241.388385 187.795075 
L 241.388385 187.331955 
L 243.423234 187.331955 
L 243.423234 186.868834 
L 246.746943 186.868834 
L 246.746943 185.942593 
L 249.147889 185.942593 
L 249.147889 185.479473 
L 249.476848 185.479473 
L 249.476848 185.016352 
L 249.750537 185.016352 
L 249.750537 184.090111 
L 251.637971 184.090111 
L 251.637971 183.16387 
L 252.029616 183.16387 
L 252.029616 182.70075 
L 252.467712 182.70075 
L 252.467712 182.237629 
L 257.326998 182.237629 
L 257.326998 181.311388 
L 338.688 181.311388 
L 338.688 181.311388 
" style="fill:none;stroke:#ff00ff;stroke-linecap:square;stroke-width:1.5;"/>
   </g>
   <g id="line2d_41">
    <defs>
     <path d="M 0 8.485281 
L 5.091169 0 
L 0 -8.485281 
L -5.091169 0 
z
" id="m2e79ea73d8" style="stroke:#ff00ff;stroke-linejoin:miter;stroke-width:1.5;"/>
    </defs>
    <g>
     <use style="fill-opacity:0;stroke:#ff00ff;stroke-linejoin:miter;stroke-width:1.5;" x="158.497919" xlink:href="#m2e79ea73d8" y="256.800033"/>
     <use style="fill-opacity:0;stroke:#ff00ff;stroke-linejoin:miter;stroke-width:1.5;" x="224.869325" xlink:href="#m2e79ea73d8" y="193.815642"/>
     <use style="fill-opacity:0;stroke:#ff00ff;stroke-linejoin:miter;stroke-width:1.5;" x="257.326998" xlink:href="#m2e79ea73d8" y="181.311388"/>
     <use style="fill-opacity:0;stroke:#ff00ff;stroke-linejoin:miter;stroke-width:1.5;" x="257.326998" xlink:href="#m2e79ea73d8" y="181.311388"/>
     <use style="fill-opacity:0;stroke:#ff00ff;stroke-linejoin:miter;stroke-width:1.5;" x="338.688" xlink:href="#m2e79ea73d8" y="181.311388"/>
    </g>
   </g>
   <g id="line2d_42">
    <path style="fill:none;stroke:#ff00ff;stroke-linecap:square;stroke-width:1.5;"/>
    <g/>
   </g>
   <g id="line2d_43">
    <path clip-path="url(#p9e247682da)" d="M 258.379358 181.311388 
" style="fill:none;stroke:#ff00ff;stroke-linecap:square;stroke-width:1.5;"/>
    <defs>
     <path d="M -12 12 
L 12 -12 
M -12 -12 
L 12 12 
" id="m9e071028de" style="stroke:#ff00ff;"/>
    </defs>
    <g clip-path="url(#p9e247682da)">
     <use style="fill:#ff00ff;stroke:#ff00ff;" x="258.379358" xlink:href="#m9e071028de" y="181.311388"/>
    </g>
   </g>
   <g id="line2d_44">
    <defs>
     <path d="M 0 1.5 
C 0.397805 1.5 0.77937 1.341951 1.06066 1.06066 
C 1.341951 0.77937 1.5 0.397805 1.5 0 
C 1.5 -0.397805 1.341951 -0.77937 1.06066 -1.06066 
C 0.77937 -1.341951 0.397805 -1.5 0 -1.5 
C -0.397805 -1.5 -0.77937 -1.341951 -1.06066 -1.06066 
C -1.341951 -0.77937 -1.5 -0.397805 -1.5 0 
C -1.5 0.397805 -1.341951 0.77937 -1.06066 1.06066 
C -0.77937 1.341951 -0.397805 1.5 0 1.5 
z
" id="mb4b2d36bb3" style="stroke:#ff7500;"/>
    </defs>
    <g>
     <use style="fill:#ff7500;stroke:#ff7500;" x="180.10638" xlink:href="#mb4b2d36bb3" y="207.246137"/>
     <use style="fill:#ff7500;stroke:#ff7500;" x="180.10638" xlink:href="#mb4b2d36bb3" y="207.246137"/>
    </g>
   </g>
   <g id="line2d_45">
    <path d="M 152.060646 298.944 
L 152.060646 298.480879 
L 153.221946 298.480879 
L 153.221946 298.017759 
L 155.539762 298.017759 
L 155.539762 296.628397 
L 156.175347 296.628397 
L 156.272978 295.702156 
L 156.664077 295.702156 
L 156.664077 295.239036 
L 156.918066 295.239036 
L 156.918066 294.775915 
L 157.329512 294.775915 
L 157.329512 294.312795 
L 157.959442 294.312795 
L 157.959442 293.849674 
L 158.091517 293.849674 
L 158.18992 291.997192 
L 158.352703 291.997192 
L 158.352703 291.534072 
L 158.663171 291.534072 
L 158.663171 291.070951 
L 158.9003 291.070951 
L 158.968208 289.68159 
L 159.041045 289.68159 
L 159.134248 288.755349 
L 159.185813 288.755349 
L 159.257749 286.902867 
L 159.492042 286.902867 
L 159.592935 285.976625 
L 159.778062 285.976625 
L 159.887213 284.587264 
L 159.902044 284.587264 
L 159.956318 283.661023 
L 160.054568 283.661023 
L 160.054568 283.197902 
L 160.346039 283.197902 
L 160.418152 281.808541 
L 160.48519 281.808541 
L 160.48519 281.34542 
L 160.651664 281.34542 
L 160.651664 280.8823 
L 160.942717 280.8823 
L 161.003133 279.956059 
L 161.06334 279.956059 
L 161.118732 279.029818 
L 161.201492 279.029818 
L 161.27016 278.103577 
L 161.393084 278.103577 
L 161.393084 277.640456 
L 161.663187 277.640456 
L 161.725614 276.251095 
L 161.778945 276.251095 
L 161.88953 275.324854 
L 162.099909 275.324854 
L 162.19549 274.398612 
L 162.243086 274.398612 
L 162.33359 273.009251 
L 162.372234 273.009251 
L 162.466339 271.619889 
L 162.53871 271.619889 
L 162.53871 271.156769 
L 162.707819 271.156769 
L 162.733045 270.230528 
L 162.883637 270.230528 
L 162.966741 268.841166 
L 163.004009 268.841166 
L 163.070067 266.062443 
L 163.144084 266.062443 
L 163.144084 265.599323 
L 163.323704 265.599323 
L 163.356164 264.209961 
L 163.449152 264.209961 
L 163.449152 263.746841 
L 163.593711 263.746841 
L 163.593711 263.28372 
L 163.741046 263.28372 
L 163.835954 261.431238 
L 164.01643 261.431238 
L 164.047627 260.504997 
L 164.164122 260.504997 
L 164.256762 259.578756 
L 164.35274 259.578756 
L 164.463418 258.189394 
L 164.524182 258.189394 
L 164.565835 257.263153 
L 164.663893 257.263153 
L 164.663893 256.800033 
L 164.791297 256.800033 
L 164.84721 255.410671 
L 165.171671 255.410671 
L 165.171671 254.48443 
L 165.331666 254.48443 
L 165.414719 251.705707 
L 165.551076 251.705707 
L 165.63665 249.853225 
L 165.855793 249.853225 
L 165.855793 249.390104 
L 166.217314 249.390104 
L 166.289413 248.463863 
L 166.333896 248.463863 
L 166.429323 247.537622 
L 166.476842 247.537622 
L 166.527611 244.758899 
L 166.621987 244.758899 
L 166.668984 243.832658 
L 166.812546 243.832658 
L 166.918621 242.443297 
L 167.099442 242.443297 
L 167.099442 241.980176 
L 167.506754 241.980176 
L 167.567357 239.201453 
L 167.656285 239.201453 
L 167.72584 238.275212 
L 167.801403 238.275212 
L 167.82338 236.42273 
L 167.964008 236.42273 
L 167.964008 235.496489 
L 168.159001 235.496489 
L 168.159001 234.570248 
L 168.403509 234.570248 
L 168.436863 233.180886 
L 168.802567 233.180886 
L 168.808499 231.791525 
L 169.114201 231.791525 
L 169.157854 229.939043 
L 169.548731 229.939043 
L 169.58564 228.549681 
L 169.892068 228.549681 
L 169.892068 227.62344 
L 170.127345 227.62344 
L 170.198683 225.770958 
L 170.34592 225.770958 
L 170.456886 224.381596 
L 170.518828 224.381596 
L 170.518828 223.918476 
L 170.767069 223.918476 
L 170.822637 220.676632 
L 170.985671 220.676632 
L 170.985671 219.750391 
L 171.511597 219.750391 
L 171.511597 218.82415 
L 171.706056 218.82415 
L 171.74118 217.897909 
L 172.019658 217.897909 
L 172.019658 216.971668 
L 172.498943 216.971668 
L 172.498943 216.045427 
L 172.630434 216.045427 
L 172.630434 215.582307 
L 173.303236 215.582307 
L 173.303236 215.119186 
L 174.181361 215.119186 
L 174.181361 214.192945 
L 174.451642 214.192945 
L 174.451642 213.729825 
L 174.913216 213.729825 
L 174.913216 212.340463 
L 175.096133 212.340463 
L 175.195103 210.951101 
L 175.661693 210.951101 
L 175.661693 210.487981 
L 175.817135 210.487981 
L 175.817135 209.56174 
L 176.263718 209.56174 
L 176.263718 209.098619 
L 177.660498 209.098619 
L 177.660498 208.635499 
L 179.236422 208.635499 
L 179.236422 207.709258 
L 180.10638 207.709258 
L 180.10638 207.246137 
L 338.688 207.246137 
L 338.688 207.246137 
" style="fill:none;stroke:#ff7500;stroke-linecap:square;stroke-width:1.5;"/>
   </g>
   <g id="line2d_46">
    <defs>
     <path d="M 0 -6 
L -1.347084 -1.854102 
L -5.706339 -1.854102 
L -2.179628 0.708204 
L -3.526712 4.854102 
L -0 2.291796 
L 3.526712 4.854102 
L 2.179628 0.708204 
L 5.706339 -1.854102 
L 1.347084 -1.854102 
z
" id="m5c3c92e8f7" style="stroke:#ff7500;stroke-linejoin:bevel;stroke-width:1.5;"/>
    </defs>
    <g>
     <use style="fill-opacity:0;stroke:#ff7500;stroke-linejoin:bevel;stroke-width:1.5;" x="170.985671" xlink:href="#m5c3c92e8f7" y="219.750391"/>
     <use style="fill-opacity:0;stroke:#ff7500;stroke-linejoin:bevel;stroke-width:1.5;" x="180.10638" xlink:href="#m5c3c92e8f7" y="207.246137"/>
     <use style="fill-opacity:0;stroke:#ff7500;stroke-linejoin:bevel;stroke-width:1.5;" x="180.10638" xlink:href="#m5c3c92e8f7" y="207.246137"/>
     <use style="fill-opacity:0;stroke:#ff7500;stroke-linejoin:bevel;stroke-width:1.5;" x="338.688" xlink:href="#m5c3c92e8f7" y="207.246137"/>
    </g>
   </g>
   <g id="line2d_47">
    <path style="fill:none;stroke:#ff7500;stroke-linecap:square;stroke-width:1.5;"/>
    <g/>
   </g>
   <g id="line2d_48">
    <path clip-path="url(#p9e247682da)" d="M 258.37716 207.246137 
" style="fill:none;stroke:#ff7500;stroke-linecap:square;stroke-width:1.5;"/>
    <defs>
     <path d="M -12 12 
L 12 -12 
M -12 -12 
L 12 12 
" id="m19eeb599ed" style="stroke:#ff7500;"/>
    </defs>
    <g clip-path="url(#p9e247682da)">
     <use style="fill:#ff7500;stroke:#ff7500;" x="258.37716" xlink:href="#m19eeb599ed" y="207.246137"/>
    </g>
   </g>
   <g id="line2d_49">
    <path d="M 338.688 207.246137 
L 369.60768 293.571802 
" style="fill:none;stroke:#ff7500;stroke-linecap:square;stroke-width:1.5;"/>
    <g>
     <use style="fill-opacity:0;stroke:#ff7500;stroke-linejoin:bevel;stroke-width:1.5;" x="338.688" xlink:href="#m5c3c92e8f7" y="207.246137"/>
     <use style="fill-opacity:0;stroke:#ff7500;stroke-linejoin:bevel;stroke-width:1.5;" x="369.60768" xlink:href="#m5c3c92e8f7" y="293.571802"/>
    </g>
   </g>
   <g id="line2d_50">
    <path d="M 338.688 181.311388 
L 369.60768 207.616634 
" style="fill:none;stroke:#ff00ff;stroke-linecap:square;stroke-width:1.5;"/>
    <g>
     <use style="fill-opacity:0;stroke:#ff00ff;stroke-linejoin:miter;stroke-width:1.5;" x="338.688" xlink:href="#m2e79ea73d8" y="181.311388"/>
     <use style="fill-opacity:0;stroke:#ff00ff;stroke-linejoin:miter;stroke-width:1.5;" x="369.60768" xlink:href="#m2e79ea73d8" y="207.616634"/>
    </g>
   </g>
   <g id="line2d_51">
    <path d="M 338.688 106.748985 
L 369.60768 121.661465 
" style="fill:none;stroke:#000080;stroke-linecap:square;stroke-width:1.5;"/>
    <g>
     <use style="fill-opacity:0;stroke:#000080;stroke-width:1.5;" x="338.688" xlink:href="#m1a593bb3df" y="106.748985"/>
     <use style="fill-opacity:0;stroke:#000080;stroke-width:1.5;" x="369.60768" xlink:href="#m1a593bb3df" y="121.661465"/>
    </g>
   </g>
   <g id="line2d_52">
    <path d="M 338.688 298.944 
L 338.688 30.334099 
" style="fill:none;stroke:#000000;stroke-linecap:square;stroke-width:1.5;"/>
   </g>
   <g id="patch_3">
    <path d="M 57.6 298.944 
L 57.6 27.648 
" style="fill:none;stroke:#000000;stroke-linecap:square;stroke-linejoin:miter;stroke-width:0.8;"/>
   </g>
   <g id="patch_4">
    <path d="M 338.688 298.944 
L 338.688 27.648 
" style="fill:none;stroke:#000000;stroke-linecap:square;stroke-linejoin:miter;stroke-width:0.8;"/>
   </g>
   <g id="patch_5">
    <path d="M 57.6 298.944 
L 338.688 298.944 
" style="fill:none;stroke:#000000;stroke-linecap:square;stroke-linejoin:miter;stroke-width:0.8;"/>
   </g>
   <g id="patch_6">
    <path d="M 57.6 27.648 
L 338.688 27.648 
" style="fill:none;stroke:#000000;stroke-linecap:square;stroke-linejoin:miter;stroke-width:0.8;"/>
   </g>
   <g id="text_13">
    <!-- SMS-EMOA- -->
    <g transform="translate(375.22944 298.262739)scale(0.17 -0.17)">
     <defs>
      <path d="M 53.515625 70.515625 
L 53.515625 60.890625 
Q 47.90625 63.578125 42.921875 64.890625 
Q 37.9375 66.21875 33.296875 66.21875 
Q 25.25 66.21875 20.875 63.09375 
Q 16.5 59.96875 16.5 54.203125 
Q 16.5 49.359375 19.40625 46.890625 
Q 22.3125 44.4375 30.421875 42.921875 
L 36.375 41.703125 
Q 47.40625 39.59375 52.65625 34.296875 
Q 57.90625 29 57.90625 20.125 
Q 57.90625 9.515625 50.796875 4.046875 
Q 43.703125 -1.421875 29.984375 -1.421875 
Q 24.8125 -1.421875 18.96875 -0.25 
Q 13.140625 0.921875 6.890625 3.21875 
L 6.890625 13.375 
Q 12.890625 10.015625 18.65625 8.296875 
Q 24.421875 6.59375 29.984375 6.59375 
Q 38.421875 6.59375 43.015625 9.90625 
Q 47.609375 13.234375 47.609375 19.390625 
Q 47.609375 24.75 44.3125 27.78125 
Q 41.015625 30.8125 33.5 32.328125 
L 27.484375 33.5 
Q 16.453125 35.6875 11.515625 40.375 
Q 6.59375 45.0625 6.59375 53.421875 
Q 6.59375 63.09375 13.40625 68.65625 
Q 20.21875 74.21875 32.171875 74.21875 
Q 37.3125 74.21875 42.625 73.28125 
Q 47.953125 72.359375 53.515625 70.515625 
z
" id="DejaVuSans-83"/>
      <path d="M 9.8125 72.90625 
L 24.515625 72.90625 
L 43.109375 23.296875 
L 61.8125 72.90625 
L 76.515625 72.90625 
L 76.515625 0 
L 66.890625 0 
L 66.890625 64.015625 
L 48.09375 14.015625 
L 38.1875 14.015625 
L 19.390625 64.015625 
L 19.390625 0 
L 9.8125 0 
z
" id="DejaVuSans-77"/>
      <path d="M 9.8125 72.90625 
L 55.90625 72.90625 
L 55.90625 64.59375 
L 19.671875 64.59375 
L 19.671875 43.015625 
L 54.390625 43.015625 
L 54.390625 34.71875 
L 19.671875 34.71875 
L 19.671875 8.296875 
L 56.78125 8.296875 
L 56.78125 0 
L 9.8125 0 
z
" id="DejaVuSans-69"/>
      <path d="M 39.40625 66.21875 
Q 28.65625 66.21875 22.328125 58.203125 
Q 16.015625 50.203125 16.015625 36.375 
Q 16.015625 22.609375 22.328125 14.59375 
Q 28.65625 6.59375 39.40625 6.59375 
Q 50.140625 6.59375 56.421875 14.59375 
Q 62.703125 22.609375 62.703125 36.375 
Q 62.703125 50.203125 56.421875 58.203125 
Q 50.140625 66.21875 39.40625 66.21875 
z
M 39.40625 74.21875 
Q 54.734375 74.21875 63.90625 63.9375 
Q 73.09375 53.65625 73.09375 36.375 
Q 73.09375 19.140625 63.90625 8.859375 
Q 54.734375 -1.421875 39.40625 -1.421875 
Q 24.03125 -1.421875 14.8125 8.828125 
Q 5.609375 19.09375 5.609375 36.375 
Q 5.609375 53.65625 14.8125 63.9375 
Q 24.03125 74.21875 39.40625 74.21875 
z
" id="DejaVuSans-79"/>
      <path d="M 34.1875 63.1875 
L 20.796875 26.90625 
L 47.609375 26.90625 
z
M 28.609375 72.90625 
L 39.796875 72.90625 
L 67.578125 0 
L 57.328125 0 
L 50.6875 18.703125 
L 17.828125 18.703125 
L 11.1875 0 
L 0.78125 0 
z
" id="DejaVuSans-65"/>
     </defs>
     <use xlink:href="#DejaVuSans-83"/>
     <use x="63.476562" xlink:href="#DejaVuSans-77"/>
     <use x="149.755859" xlink:href="#DejaVuSans-83"/>
     <use x="213.232422" xlink:href="#DejaVuSans-45"/>
     <use x="249.316406" xlink:href="#DejaVuSans-69"/>
     <use x="312.5" xlink:href="#DejaVuSans-77"/>
     <use x="398.779297" xlink:href="#DejaVuSans-79"/>
     <use x="475.740234" xlink:href="#DejaVuSans-65"/>
     <use x="541.898438" xlink:href="#DejaVuSans-45"/>
    </g>
   </g>
   <g id="text_14">
    <!-- NSGA-II-M -->
    <g transform="translate(375.22944 212.307571)scale(0.17 -0.17)">
     <defs>
      <path d="M 9.8125 72.90625 
L 23.09375 72.90625 
L 55.421875 11.921875 
L 55.421875 72.90625 
L 64.984375 72.90625 
L 64.984375 0 
L 51.703125 0 
L 19.390625 60.984375 
L 19.390625 0 
L 9.8125 0 
z
" id="DejaVuSans-78"/>
      <path d="M 59.515625 10.40625 
L 59.515625 29.984375 
L 43.40625 29.984375 
L 43.40625 38.09375 
L 69.28125 38.09375 
L 69.28125 6.78125 
Q 63.578125 2.734375 56.6875 0.65625 
Q 49.8125 -1.421875 42 -1.421875 
Q 24.90625 -1.421875 15.25 8.5625 
Q 5.609375 18.5625 5.609375 36.375 
Q 5.609375 54.25 15.25 64.234375 
Q 24.90625 74.21875 42 74.21875 
Q 49.125 74.21875 55.546875 72.453125 
Q 61.96875 70.703125 67.390625 67.28125 
L 67.390625 56.78125 
Q 61.921875 61.421875 55.765625 63.765625 
Q 49.609375 66.109375 42.828125 66.109375 
Q 29.4375 66.109375 22.71875 58.640625 
Q 16.015625 51.171875 16.015625 36.375 
Q 16.015625 21.625 22.71875 14.15625 
Q 29.4375 6.6875 42.828125 6.6875 
Q 48.046875 6.6875 52.140625 7.59375 
Q 56.25 8.5 59.515625 10.40625 
z
" id="DejaVuSans-71"/>
      <path d="M 9.8125 72.90625 
L 19.671875 72.90625 
L 19.671875 0 
L 9.8125 0 
z
" id="DejaVuSans-73"/>
     </defs>
     <use xlink:href="#DejaVuSans-78"/>
     <use x="74.804688" xlink:href="#DejaVuSans-83"/>
     <use x="138.28125" xlink:href="#DejaVuSans-71"/>
     <use x="215.771484" xlink:href="#DejaVuSans-65"/>
     <use x="281.929688" xlink:href="#DejaVuSans-45"/>
     <use x="318.013672" xlink:href="#DejaVuSans-73"/>
     <use x="347.505859" xlink:href="#DejaVuSans-73"/>
     <use x="376.998047" xlink:href="#DejaVuSans-45"/>
     <use x="413.082031" xlink:href="#DejaVuSans-77"/>
    </g>
   </g>
   <g id="text_15">
    <!-- COMO-100  -->
    <g transform="translate(375.22944 126.352403)scale(0.17 -0.17)">
     <defs>
      <path d="M 64.40625 67.28125 
L 64.40625 56.890625 
Q 59.421875 61.53125 53.78125 63.8125 
Q 48.140625 66.109375 41.796875 66.109375 
Q 29.296875 66.109375 22.65625 58.46875 
Q 16.015625 50.828125 16.015625 36.375 
Q 16.015625 21.96875 22.65625 14.328125 
Q 29.296875 6.6875 41.796875 6.6875 
Q 48.140625 6.6875 53.78125 8.984375 
Q 59.421875 11.28125 64.40625 15.921875 
L 64.40625 5.609375 
Q 59.234375 2.09375 53.4375 0.328125 
Q 47.65625 -1.421875 41.21875 -1.421875 
Q 24.65625 -1.421875 15.125 8.703125 
Q 5.609375 18.84375 5.609375 36.375 
Q 5.609375 53.953125 15.125 64.078125 
Q 24.65625 74.21875 41.21875 74.21875 
Q 47.75 74.21875 53.53125 72.484375 
Q 59.328125 70.75 64.40625 67.28125 
z
" id="DejaVuSans-67"/>
     </defs>
     <use xlink:href="#DejaVuSans-67"/>
     <use x="69.824219" xlink:href="#DejaVuSans-79"/>
     <use x="148.535156" xlink:href="#DejaVuSans-77"/>
     <use x="234.814453" xlink:href="#DejaVuSans-79"/>
     <use x="316.275391" xlink:href="#DejaVuSans-45"/>
     <use x="352.359375" xlink:href="#DejaVuSans-49"/>
     <use x="415.982422" xlink:href="#DejaVuSans-48"/>
     <use x="479.605469" xlink:href="#DejaVuSans-48"/>
     <use x="543.228516" xlink:href="#DejaVuSans-32"/>
    </g>
   </g>
   <g id="text_16">
    <!-- best 2016 -->
    <g transform="translate(375.22944 40.397235)scale(0.17 -0.17)">
     <defs>
      <path d="M 48.6875 27.296875 
Q 48.6875 37.203125 44.609375 42.84375 
Q 40.53125 48.484375 33.40625 48.484375 
Q 26.265625 48.484375 22.1875 42.84375 
Q 18.109375 37.203125 18.109375 27.296875 
Q 18.109375 17.390625 22.1875 11.75 
Q 26.265625 6.109375 33.40625 6.109375 
Q 40.53125 6.109375 44.609375 11.75 
Q 48.6875 17.390625 48.6875 27.296875 
z
M 18.109375 46.390625 
Q 20.953125 51.265625 25.265625 53.625 
Q 29.59375 56 35.59375 56 
Q 45.5625 56 51.78125 48.09375 
Q 58.015625 40.1875 58.015625 27.296875 
Q 58.015625 14.40625 51.78125 6.484375 
Q 45.5625 -1.421875 35.59375 -1.421875 
Q 29.59375 -1.421875 25.265625 0.953125 
Q 20.953125 3.328125 18.109375 8.203125 
L 18.109375 0 
L 9.078125 0 
L 9.078125 75.984375 
L 18.109375 75.984375 
z
" id="DejaVuSans-98"/>
     </defs>
     <use xlink:href="#DejaVuSans-98"/>
     <use x="63.476562" xlink:href="#DejaVuSans-101"/>
     <use x="125" xlink:href="#DejaVuSans-115"/>
     <use x="177.099609" xlink:href="#DejaVuSans-116"/>
     <use x="216.308594" xlink:href="#DejaVuSans-32"/>
     <use x="248.095703" xlink:href="#DejaVuSans-50"/>
     <use x="311.71875" xlink:href="#DejaVuSans-48"/>
     <use x="375.341797" xlink:href="#DejaVuSans-49"/>
     <use x="438.964844" xlink:href="#DejaVuSans-54"/>
    </g>
   </g>
   <g id="text_17">
    <!-- bbob-biobj f3, 10-D -->
    <g transform="translate(60.41088 38.111366)scale(0.102 -0.102)">
     <defs>
      <path d="M 9.421875 54.6875 
L 18.40625 54.6875 
L 18.40625 -0.984375 
Q 18.40625 -11.421875 14.421875 -16.109375 
Q 10.453125 -20.796875 1.609375 -20.796875 
L -1.8125 -20.796875 
L -1.8125 -13.1875 
L 0.59375 -13.1875 
Q 5.71875 -13.1875 7.5625 -10.8125 
Q 9.421875 -8.453125 9.421875 -0.984375 
z
M 9.421875 75.984375 
L 18.40625 75.984375 
L 18.40625 64.59375 
L 9.421875 64.59375 
z
" id="DejaVuSans-106"/>
      <path d="M 40.578125 39.3125 
Q 47.65625 37.796875 51.625 33 
Q 55.609375 28.21875 55.609375 21.1875 
Q 55.609375 10.40625 48.1875 4.484375 
Q 40.765625 -1.421875 27.09375 -1.421875 
Q 22.515625 -1.421875 17.65625 -0.515625 
Q 12.796875 0.390625 7.625 2.203125 
L 7.625 11.71875 
Q 11.71875 9.328125 16.59375 8.109375 
Q 21.484375 6.890625 26.8125 6.890625 
Q 36.078125 6.890625 40.9375 10.546875 
Q 45.796875 14.203125 45.796875 21.1875 
Q 45.796875 27.640625 41.28125 31.265625 
Q 36.765625 34.90625 28.71875 34.90625 
L 20.21875 34.90625 
L 20.21875 43.015625 
L 29.109375 43.015625 
Q 36.375 43.015625 40.234375 45.921875 
Q 44.09375 48.828125 44.09375 54.296875 
Q 44.09375 59.90625 40.109375 62.90625 
Q 36.140625 65.921875 28.71875 65.921875 
Q 24.65625 65.921875 20.015625 65.03125 
Q 15.375 64.15625 9.8125 62.3125 
L 9.8125 71.09375 
Q 15.4375 72.65625 20.34375 73.4375 
Q 25.25 74.21875 29.59375 74.21875 
Q 40.828125 74.21875 47.359375 69.109375 
Q 53.90625 64.015625 53.90625 55.328125 
Q 53.90625 49.265625 50.4375 45.09375 
Q 46.96875 40.921875 40.578125 39.3125 
z
" id="DejaVuSans-51"/>
      <path d="M 19.671875 64.796875 
L 19.671875 8.109375 
L 31.59375 8.109375 
Q 46.6875 8.109375 53.6875 14.9375 
Q 60.6875 21.78125 60.6875 36.53125 
Q 60.6875 51.171875 53.6875 57.984375 
Q 46.6875 64.796875 31.59375 64.796875 
z
M 9.8125 72.90625 
L 30.078125 72.90625 
Q 51.265625 72.90625 61.171875 64.09375 
Q 71.09375 55.28125 71.09375 36.53125 
Q 71.09375 17.671875 61.125 8.828125 
Q 51.171875 0 30.078125 0 
L 9.8125 0 
z
" id="DejaVuSans-68"/>
     </defs>
     <use xlink:href="#DejaVuSans-98"/>
     <use x="63.476562" xlink:href="#DejaVuSans-98"/>
     <use x="126.953125" xlink:href="#DejaVuSans-111"/>
     <use x="188.134766" xlink:href="#DejaVuSans-98"/>
     <use x="251.611328" xlink:href="#DejaVuSans-45"/>
     <use x="287.695312" xlink:href="#DejaVuSans-98"/>
     <use x="351.171875" xlink:href="#DejaVuSans-105"/>
     <use x="378.955078" xlink:href="#DejaVuSans-111"/>
     <use x="440.136719" xlink:href="#DejaVuSans-98"/>
     <use x="503.613281" xlink:href="#DejaVuSans-106"/>
     <use x="531.396484" xlink:href="#DejaVuSans-32"/>
     <use x="563.183594" xlink:href="#DejaVuSans-102"/>
     <use x="598.388672" xlink:href="#DejaVuSans-51"/>
     <use x="662.011719" xlink:href="#DejaVuSans-44"/>
     <use x="693.798828" xlink:href="#DejaVuSans-32"/>
     <use x="725.585938" xlink:href="#DejaVuSans-49"/>
     <use x="789.208984" xlink:href="#DejaVuSans-48"/>
     <use x="852.832031" xlink:href="#DejaVuSans-45"/>
     <use x="888.916016" xlink:href="#DejaVuSans-68"/>
    </g>
    <!-- 58 targets: 1..-1.0e-4 -->
    <g transform="translate(60.41088 49.533135)scale(0.102 -0.102)">
     <defs>
      <path d="M 10.796875 72.90625 
L 49.515625 72.90625 
L 49.515625 64.59375 
L 19.828125 64.59375 
L 19.828125 46.734375 
Q 21.96875 47.46875 24.109375 47.828125 
Q 26.265625 48.1875 28.421875 48.1875 
Q 40.625 48.1875 47.75 41.5 
Q 54.890625 34.8125 54.890625 23.390625 
Q 54.890625 11.625 47.5625 5.09375 
Q 40.234375 -1.421875 26.90625 -1.421875 
Q 22.3125 -1.421875 17.546875 -0.640625 
Q 12.796875 0.140625 7.71875 1.703125 
L 7.71875 11.625 
Q 12.109375 9.234375 16.796875 8.0625 
Q 21.484375 6.890625 26.703125 6.890625 
Q 35.15625 6.890625 40.078125 11.328125 
Q 45.015625 15.765625 45.015625 23.390625 
Q 45.015625 31 40.078125 35.4375 
Q 35.15625 39.890625 26.703125 39.890625 
Q 22.75 39.890625 18.8125 39.015625 
Q 14.890625 38.140625 10.796875 36.28125 
z
" id="DejaVuSans-53"/>
      <path d="M 11.71875 12.40625 
L 22.015625 12.40625 
L 22.015625 0 
L 11.71875 0 
z
M 11.71875 51.703125 
L 22.015625 51.703125 
L 22.015625 39.3125 
L 11.71875 39.3125 
z
" id="DejaVuSans-58"/>
     </defs>
     <use xlink:href="#DejaVuSans-53"/>
     <use x="63.623047" xlink:href="#DejaVuSans-56"/>
     <use x="127.246094" xlink:href="#DejaVuSans-32"/>
     <use x="159.033203" xlink:href="#DejaVuSans-116"/>
     <use x="198.242188" xlink:href="#DejaVuSans-97"/>
     <use x="259.521484" xlink:href="#DejaVuSans-114"/>
     <use x="298.884766" xlink:href="#DejaVuSans-103"/>
     <use x="362.361328" xlink:href="#DejaVuSans-101"/>
     <use x="423.884766" xlink:href="#DejaVuSans-116"/>
     <use x="463.09375" xlink:href="#DejaVuSans-115"/>
     <use x="515.193359" xlink:href="#DejaVuSans-58"/>
     <use x="548.884766" xlink:href="#DejaVuSans-32"/>
     <use x="580.671875" xlink:href="#DejaVuSans-49"/>
     <use x="644.294922" xlink:href="#DejaVuSans-46"/>
     <use x="676.082031" xlink:href="#DejaVuSans-46"/>
     <use x="707.869141" xlink:href="#DejaVuSans-45"/>
     <use x="743.953125" xlink:href="#DejaVuSans-49"/>
     <use x="807.576172" xlink:href="#DejaVuSans-46"/>
     <use x="839.363281" xlink:href="#DejaVuSans-48"/>
     <use x="902.986328" xlink:href="#DejaVuSans-101"/>
     <use x="964.509766" xlink:href="#DejaVuSans-45"/>
     <use x="1000.59375" xlink:href="#DejaVuSans-52"/>
    </g>
    <!-- 10 instances -->
    <g transform="translate(60.41088 60.954904)scale(0.102 -0.102)">
     <use xlink:href="#DejaVuSans-49"/>
     <use x="63.623047" xlink:href="#DejaVuSans-48"/>
     <use x="127.246094" xlink:href="#DejaVuSans-32"/>
     <use x="159.033203" xlink:href="#DejaVuSans-105"/>
     <use x="186.816406" xlink:href="#DejaVuSans-110"/>
     <use x="250.195312" xlink:href="#DejaVuSans-115"/>
     <use x="302.294922" xlink:href="#DejaVuSans-116"/>
     <use x="341.503906" xlink:href="#DejaVuSans-97"/>
     <use x="402.783203" xlink:href="#DejaVuSans-110"/>
     <use x="466.162109" xlink:href="#DejaVuSans-99"/>
     <use x="521.142578" xlink:href="#DejaVuSans-101"/>
     <use x="582.666016" xlink:href="#DejaVuSans-115"/>
    </g>
   </g>
   <g id="text_18">
    <!-- v2.4.19, hv-hash=ff0e71e8cd978373 -->
    <g style="fill:#808080;" transform="translate(104.697125 294.151352)scale(0.1 -0.1)">
     <defs>
      <path d="M 10.984375 1.515625 
L 10.984375 10.5 
Q 14.703125 8.734375 18.5 7.8125 
Q 22.3125 6.890625 25.984375 6.890625 
Q 35.75 6.890625 40.890625 13.453125 
Q 46.046875 20.015625 46.78125 33.40625 
Q 43.953125 29.203125 39.59375 26.953125 
Q 35.25 24.703125 29.984375 24.703125 
Q 19.046875 24.703125 12.671875 31.3125 
Q 6.296875 37.9375 6.296875 49.421875 
Q 6.296875 60.640625 12.9375 67.421875 
Q 19.578125 74.21875 30.609375 74.21875 
Q 43.265625 74.21875 49.921875 64.515625 
Q 56.59375 54.828125 56.59375 36.375 
Q 56.59375 19.140625 48.40625 8.859375 
Q 40.234375 -1.421875 26.421875 -1.421875 
Q 22.703125 -1.421875 18.890625 -0.6875 
Q 15.09375 0.046875 10.984375 1.515625 
z
M 30.609375 32.421875 
Q 37.25 32.421875 41.125 36.953125 
Q 45.015625 41.5 45.015625 49.421875 
Q 45.015625 57.28125 41.125 61.84375 
Q 37.25 66.40625 30.609375 66.40625 
Q 23.96875 66.40625 20.09375 61.84375 
Q 16.21875 57.28125 16.21875 49.421875 
Q 16.21875 41.5 20.09375 36.953125 
Q 23.96875 32.421875 30.609375 32.421875 
z
" id="DejaVuSans-57"/>
      <path d="M 54.890625 33.015625 
L 54.890625 0 
L 45.90625 0 
L 45.90625 32.71875 
Q 45.90625 40.484375 42.875 44.328125 
Q 39.84375 48.1875 33.796875 48.1875 
Q 26.515625 48.1875 22.3125 43.546875 
Q 18.109375 38.921875 18.109375 30.90625 
L 18.109375 0 
L 9.078125 0 
L 9.078125 75.984375 
L 18.109375 75.984375 
L 18.109375 46.1875 
Q 21.34375 51.125 25.703125 53.5625 
Q 30.078125 56 35.796875 56 
Q 45.21875 56 50.046875 50.171875 
Q 54.890625 44.34375 54.890625 33.015625 
z
" id="DejaVuSans-104"/>
      <path d="M 10.59375 45.40625 
L 73.1875 45.40625 
L 73.1875 37.203125 
L 10.59375 37.203125 
z
M 10.59375 25.484375 
L 73.1875 25.484375 
L 73.1875 17.1875 
L 10.59375 17.1875 
z
" id="DejaVuSans-61"/>
      <path d="M 8.203125 72.90625 
L 55.078125 72.90625 
L 55.078125 68.703125 
L 28.609375 0 
L 18.3125 0 
L 43.21875 64.59375 
L 8.203125 64.59375 
z
" id="DejaVuSans-55"/>
     </defs>
     <use xlink:href="#DejaVuSans-118"/>
     <use x="59.179688" xlink:href="#DejaVuSans-50"/>
     <use x="122.802734" xlink:href="#DejaVuSans-46"/>
     <use x="154.589844" xlink:href="#DejaVuSans-52"/>
     <use x="218.212891" xlink:href="#DejaVuSans-46"/>
     <use x="250" xlink:href="#DejaVuSans-49"/>
     <use x="313.623047" xlink:href="#DejaVuSans-57"/>
     <use x="377.246094" xlink:href="#DejaVuSans-44"/>
     <use x="409.033203" xlink:href="#DejaVuSans-32"/>
     <use x="440.820312" xlink:href="#DejaVuSans-104"/>
     <use x="504.199219" xlink:href="#DejaVuSans-118"/>
     <use x="560.753906" xlink:href="#DejaVuSans-45"/>
     <use x="596.837891" xlink:href="#DejaVuSans-104"/>
     <use x="660.216797" xlink:href="#DejaVuSans-97"/>
     <use x="721.496094" xlink:href="#DejaVuSans-115"/>
     <use x="773.595703" xlink:href="#DejaVuSans-104"/>
     <use x="836.974609" xlink:href="#DejaVuSans-61"/>
     <use x="920.763672" xlink:href="#DejaVuSans-102"/>
     <use x="955.96875" xlink:href="#DejaVuSans-102"/>
     <use x="991.173828" xlink:href="#DejaVuSans-48"/>
     <use x="1054.796875" xlink:href="#DejaVuSans-101"/>
     <use x="1116.320312" xlink:href="#DejaVuSans-55"/>
     <use x="1179.943359" xlink:href="#DejaVuSans-49"/>
     <use x="1243.566406" xlink:href="#DejaVuSans-101"/>
     <use x="1305.089844" xlink:href="#DejaVuSans-56"/>
     <use x="1368.712891" xlink:href="#DejaVuSans-99"/>
     <use x="1423.693359" xlink:href="#DejaVuSans-100"/>
     <use x="1487.169922" xlink:href="#DejaVuSans-57"/>
     <use x="1550.792969" xlink:href="#DejaVuSans-55"/>
     <use x="1614.416016" xlink:href="#DejaVuSans-56"/>
     <use x="1678.039062" xlink:href="#DejaVuSans-51"/>
     <use x="1741.662109" xlink:href="#DejaVuSans-55"/>
     <use x="1805.285156" xlink:href="#DejaVuSans-51"/>
    </g>
   </g>
   <g id="text_19">
    <!-- 3 Sphere/Attr. sector -->
    <g transform="translate(94.936187 21.648)scale(0.2 -0.2)">
     <use xlink:href="#DejaVuSans-51"/>
     <use x="63.623047" xlink:href="#DejaVuSans-32"/>
     <use x="95.410156" xlink:href="#DejaVuSans-83"/>
     <use x="158.886719" xlink:href="#DejaVuSans-112"/>
     <use x="222.363281" xlink:href="#DejaVuSans-104"/>
     <use x="285.742188" xlink:href="#DejaVuSans-101"/>
     <use x="347.265625" xlink:href="#DejaVuSans-114"/>
     <use x="386.128906" xlink:href="#DejaVuSans-101"/>
     <use x="447.652344" xlink:href="#DejaVuSans-47"/>
     <use x="481.34375" xlink:href="#DejaVuSans-65"/>
     <use x="548.001953" xlink:href="#DejaVuSans-116"/>
     <use x="587.210938" xlink:href="#DejaVuSans-116"/>
     <use x="626.419922" xlink:href="#DejaVuSans-114"/>
     <use x="658.408203" xlink:href="#DejaVuSans-46"/>
     <use x="690.195312" xlink:href="#DejaVuSans-32"/>
     <use x="721.982422" xlink:href="#DejaVuSans-115"/>
     <use x="774.082031" xlink:href="#DejaVuSans-101"/>
     <use x="835.605469" xlink:href="#DejaVuSans-99"/>
     <use x="890.585938" xlink:href="#DejaVuSans-116"/>
     <use x="929.794922" xlink:href="#DejaVuSans-111"/>
     <use x="990.976562" xlink:href="#DejaVuSans-114"/>
    </g>
   </g>
  </g>
 </g>
 <defs>
  <clipPath id="p9e247682da">
   <rect height="271.296" width="281.088" x="57.6" y="27.648"/>
  </clipPath>
 </defs>
</svg>
