<?xml version="1.0" encoding="utf-8" standalone="no"?>
<!DOCTYPE svg PUBLIC "-//W3C//DTD SVG 1.1//EN"
  "http://www.w3.org/Graphics/SVG/1.1/DTD/svg11.dtd">
<!-- Created with matplotlib (https://matplotlib.org/) -->
<svg height="345.6pt" version="1.1" viewBox="0 0 460.8 345.6" width="460.8pt" xmlns="http://www.w3.org/2000/svg" xmlns:xlink="http://www.w3.org/1999/xlink">
 <metadata>
  <rdf:RDF xmlns:cc="http://creativecommons.org/ns#" xmlns:dc="http://purl.org/dc/elements/1.1/" xmlns:rdf="http://www.w3.org/1999/02/22-rdf-syntax-ns#">
   <cc:Work>
    <dc:type rdf:resource="http://purl.org/dc/dcmitype/StillImage"/>
    <dc:date>2021-04-26T15:04:31.047386</dc:date>
    <dc:format>image/svg+xml</dc:format>
    <dc:creator>
     <cc:Agent>
      <dc:title>Matplotlib v3.3.2, https://matplotlib.org/</dc:title>
     </cc:Agent>
    </dc:creator>
   </cc:Work>
  </rdf:RDF>
 </metadata>
 <defs>
  <style type="text/css">*{stroke-linecap:butt;stroke-linejoin:round;}</style>
 </defs>
 <g id="figure_1">
  <g id="patch_1">
   <path d="M 0 345.6 
L 460.8 345.6 
L 460.8 0 
L 0 0 
z
" style="fill:#ffffff;"/>
  </g>
  <g id="axes_1">
   <g id="patch_2">
    <path d="M 57.6 298.944 
L 338.688 298.944 
L 338.688 27.648 
L 57.6 27.648 
z
" style="fill:#ffffff;"/>
   </g>
   <g id="line2d_1">
    <path d="M 47.174153 298.944 
L 47.174153 294.312795 
L 59.262141 294.312795 
L 59.262141 285.050384 
L 67.359297 285.050384 
L 67.359297 275.787974 
L 77.047268 275.787974 
L 77.047268 271.156769 
L 83.635174 271.156769 
L 83.635174 257.263153 
L 90.376519 257.263153 
L 90.376519 248.000743 
L 96.676366 248.000743 
L 96.676366 243.369538 
L 104.355088 243.369538 
L 104.355088 234.107127 
L 115.586238 234.107127 
L 115.586238 220.213512 
L 124.482119 220.213512 
L 124.482119 210.951101 
L 132.695115 210.951101 
L 132.695115 201.688691 
L 140.317849 201.688691 
L 140.317849 192.426281 
L 146.511399 192.426281 
L 146.511399 187.795075 
L 154.125885 187.795075 
L 154.125885 173.90146 
L 160.54959 173.90146 
L 160.54959 169.270255 
L 168.316796 169.270255 
L 168.316796 155.376639 
L 176.486612 155.376639 
L 176.486612 146.114229 
L 186.047309 146.114229 
L 186.047309 141.483024 
L 196.037983 141.483024 
L 196.037983 127.589408 
L 204.853512 127.589408 
L 204.853512 122.958203 
L 214.276543 122.958203 
L 214.276543 109.064587 
L 224.05919 109.064587 
L 224.05919 99.802177 
L 225.999338 99.802177 
L 225.999338 90.539766 
L 229.267474 90.539766 
L 229.267474 85.908561 
L 233.463882 85.908561 
L 233.463882 76.646151 
L 239.078235 76.646151 
L 239.078235 62.752535 
L 338.688 62.752535 
" style="fill:none;stroke:#f5deb3;stroke-linecap:square;stroke-width:4;"/>
   </g>
   <g id="line2d_2">
    <defs>
     <path d="M 0 7.778175 
L 7.778175 0 
L 0 -7.778175 
L -7.778175 0 
z
" id="m2240077391" style="stroke:#f5deb3;stroke-linejoin:miter;stroke-width:1.5;"/>
    </defs>
    <g>
     <use style="fill:#f5deb3;stroke:#f5deb3;stroke-linejoin:miter;stroke-width:1.5;" x="104.355088" xlink:href="#m2240077391" y="243.369538"/>
     <use style="fill:#f5deb3;stroke:#f5deb3;stroke-linejoin:miter;stroke-width:1.5;" x="154.125885" xlink:href="#m2240077391" y="187.795075"/>
     <use style="fill:#f5deb3;stroke:#f5deb3;stroke-linejoin:miter;stroke-width:1.5;" x="204.853512" xlink:href="#m2240077391" y="122.958203"/>
     <use style="fill:#f5deb3;stroke:#f5deb3;stroke-linejoin:miter;stroke-width:1.5;" x="239.078235" xlink:href="#m2240077391" y="76.646151"/>
     <use style="fill:#f5deb3;stroke:#f5deb3;stroke-linejoin:miter;stroke-width:1.5;" x="239.078235" xlink:href="#m2240077391" y="62.752535"/>
     <use style="fill:#f5deb3;stroke:#f5deb3;stroke-linejoin:miter;stroke-width:1.5;" x="338.688" xlink:href="#m2240077391" y="62.752535"/>
    </g>
   </g>
   <g id="line2d_3">
    <path style="fill:none;stroke:#f5deb3;stroke-linecap:square;stroke-width:4;"/>
    <g/>
   </g>
   <g id="line2d_4">
    <path d="M 338.688 62.752535 
L 369.60768 35.706297 
" style="fill:none;stroke:#f5deb3;stroke-linecap:square;stroke-width:4;"/>
    <g>
     <use style="fill:#f5deb3;stroke:#f5deb3;stroke-linejoin:miter;stroke-width:1.5;" x="338.688" xlink:href="#m2240077391" y="62.752535"/>
     <use style="fill:#f5deb3;stroke:#f5deb3;stroke-linejoin:miter;stroke-width:1.5;" x="369.60768" xlink:href="#m2240077391" y="35.706297"/>
    </g>
   </g>
   <g id="matplotlib.axis_1">
    <g id="xtick_1">
     <g id="line2d_5">
      <path clip-path="url(#pdb9feb76e5)" d="M 57.6 298.944 
L 57.6 27.648 
" style="fill:none;stroke:#b0b0b0;stroke-linecap:square;stroke-width:0.8;"/>
     </g>
     <g id="line2d_6">
      <defs>
       <path d="M 0 0 
L 0 3.5 
" id="ma0c55dd634" style="stroke:#000000;stroke-width:0.8;"/>
      </defs>
      <g>
       <use style="stroke:#000000;stroke-width:0.8;" x="57.6" xlink:href="#ma0c55dd634" y="298.944"/>
      </g>
     </g>
     <g id="text_1">
      <!-- 0 -->
      <g transform="translate(51.2375 321.140875)scale(0.2 -0.2)">
       <defs>
        <path d="M 31.78125 66.40625 
Q 24.171875 66.40625 20.328125 58.90625 
Q 16.5 51.421875 16.5 36.375 
Q 16.5 21.390625 20.328125 13.890625 
Q 24.171875 6.390625 31.78125 6.390625 
Q 39.453125 6.390625 43.28125 13.890625 
Q 47.125 21.390625 47.125 36.375 
Q 47.125 51.421875 43.28125 58.90625 
Q 39.453125 66.40625 31.78125 66.40625 
z
M 31.78125 74.21875 
Q 44.046875 74.21875 50.515625 64.515625 
Q 56.984375 54.828125 56.984375 36.375 
Q 56.984375 17.96875 50.515625 8.265625 
Q 44.046875 -1.421875 31.78125 -1.421875 
Q 19.53125 -1.421875 13.0625 8.265625 
Q 6.59375 17.96875 6.59375 36.375 
Q 6.59375 54.828125 13.0625 64.515625 
Q 19.53125 74.21875 31.78125 74.21875 
z
" id="DejaVuSans-48"/>
       </defs>
       <use xlink:href="#DejaVuSans-48"/>
      </g>
     </g>
    </g>
    <g id="xtick_2">
     <g id="line2d_7">
      <path clip-path="url(#pdb9feb76e5)" d="M 137.910857 298.944 
L 137.910857 27.648 
" style="fill:none;stroke:#b0b0b0;stroke-linecap:square;stroke-width:0.8;"/>
     </g>
     <g id="line2d_8">
      <g>
       <use style="stroke:#000000;stroke-width:0.8;" x="137.910857" xlink:href="#ma0c55dd634" y="298.944"/>
      </g>
     </g>
     <g id="text_2">
      <!-- 2 -->
      <g transform="translate(131.548357 321.140875)scale(0.2 -0.2)">
       <defs>
        <path d="M 19.1875 8.296875 
L 53.609375 8.296875 
L 53.609375 0 
L 7.328125 0 
L 7.328125 8.296875 
Q 12.9375 14.109375 22.625 23.890625 
Q 32.328125 33.6875 34.8125 36.53125 
Q 39.546875 41.84375 41.421875 45.53125 
Q 43.3125 49.21875 43.3125 52.78125 
Q 43.3125 58.59375 39.234375 62.25 
Q 35.15625 65.921875 28.609375 65.921875 
Q 23.96875 65.921875 18.8125 64.3125 
Q 13.671875 62.703125 7.8125 59.421875 
L 7.8125 69.390625 
Q 13.765625 71.78125 18.9375 73 
Q 24.125 74.21875 28.421875 74.21875 
Q 39.75 74.21875 46.484375 68.546875 
Q 53.21875 62.890625 53.21875 53.421875 
Q 53.21875 48.921875 51.53125 44.890625 
Q 49.859375 40.875 45.40625 35.40625 
Q 44.1875 33.984375 37.640625 27.21875 
Q 31.109375 20.453125 19.1875 8.296875 
z
" id="DejaVuSans-50"/>
       </defs>
       <use xlink:href="#DejaVuSans-50"/>
      </g>
     </g>
    </g>
    <g id="xtick_3">
     <g id="line2d_9">
      <path clip-path="url(#pdb9feb76e5)" d="M 218.221714 298.944 
L 218.221714 27.648 
" style="fill:none;stroke:#b0b0b0;stroke-linecap:square;stroke-width:0.8;"/>
     </g>
     <g id="line2d_10">
      <g>
       <use style="stroke:#000000;stroke-width:0.8;" x="218.221714" xlink:href="#ma0c55dd634" y="298.944"/>
      </g>
     </g>
     <g id="text_3">
      <!-- 4 -->
      <g transform="translate(211.859214 321.140875)scale(0.2 -0.2)">
       <defs>
        <path d="M 37.796875 64.3125 
L 12.890625 25.390625 
L 37.796875 25.390625 
z
M 35.203125 72.90625 
L 47.609375 72.90625 
L 47.609375 25.390625 
L 58.015625 25.390625 
L 58.015625 17.1875 
L 47.609375 17.1875 
L 47.609375 0 
L 37.796875 0 
L 37.796875 17.1875 
L 4.890625 17.1875 
L 4.890625 26.703125 
z
" id="DejaVuSans-52"/>
       </defs>
       <use xlink:href="#DejaVuSans-52"/>
      </g>
     </g>
    </g>
    <g id="xtick_4">
     <g id="line2d_11">
      <path clip-path="url(#pdb9feb76e5)" d="M 298.532571 298.944 
L 298.532571 27.648 
" style="fill:none;stroke:#b0b0b0;stroke-linecap:square;stroke-width:0.8;"/>
     </g>
     <g id="line2d_12">
      <g>
       <use style="stroke:#000000;stroke-width:0.8;" x="298.532571" xlink:href="#ma0c55dd634" y="298.944"/>
      </g>
     </g>
     <g id="text_4">
      <!-- 6 -->
      <g transform="translate(292.170071 321.140875)scale(0.2 -0.2)">
       <defs>
        <path d="M 33.015625 40.375 
Q 26.375 40.375 22.484375 35.828125 
Q 18.609375 31.296875 18.609375 23.390625 
Q 18.609375 15.53125 22.484375 10.953125 
Q 26.375 6.390625 33.015625 6.390625 
Q 39.65625 6.390625 43.53125 10.953125 
Q 47.40625 15.53125 47.40625 23.390625 
Q 47.40625 31.296875 43.53125 35.828125 
Q 39.65625 40.375 33.015625 40.375 
z
M 52.59375 71.296875 
L 52.59375 62.3125 
Q 48.875 64.0625 45.09375 64.984375 
Q 41.3125 65.921875 37.59375 65.921875 
Q 27.828125 65.921875 22.671875 59.328125 
Q 17.53125 52.734375 16.796875 39.40625 
Q 19.671875 43.65625 24.015625 45.921875 
Q 28.375 48.1875 33.59375 48.1875 
Q 44.578125 48.1875 50.953125 41.515625 
Q 57.328125 34.859375 57.328125 23.390625 
Q 57.328125 12.15625 50.6875 5.359375 
Q 44.046875 -1.421875 33.015625 -1.421875 
Q 20.359375 -1.421875 13.671875 8.265625 
Q 6.984375 17.96875 6.984375 36.375 
Q 6.984375 53.65625 15.1875 63.9375 
Q 23.390625 74.21875 37.203125 74.21875 
Q 40.921875 74.21875 44.703125 73.484375 
Q 48.484375 72.75 52.59375 71.296875 
z
" id="DejaVuSans-54"/>
       </defs>
       <use xlink:href="#DejaVuSans-54"/>
      </g>
     </g>
    </g>
    <g id="xtick_5">
     <g id="line2d_13">
      <path clip-path="url(#pdb9feb76e5)" d="M 97.755429 298.944 
L 97.755429 27.648 
" style="fill:none;stroke:#b0b0b0;stroke-linecap:square;stroke-width:0.8;"/>
     </g>
     <g id="line2d_14">
      <defs>
       <path d="M 0 0 
L 0 2 
" id="m4a00172d95" style="stroke:#000000;stroke-width:0.6;"/>
      </defs>
      <g>
       <use style="stroke:#000000;stroke-width:0.6;" x="97.755429" xlink:href="#m4a00172d95" y="298.944"/>
      </g>
     </g>
    </g>
    <g id="xtick_6">
     <g id="line2d_15">
      <path clip-path="url(#pdb9feb76e5)" d="M 178.066286 298.944 
L 178.066286 27.648 
" style="fill:none;stroke:#b0b0b0;stroke-linecap:square;stroke-width:0.8;"/>
     </g>
     <g id="line2d_16">
      <g>
       <use style="stroke:#000000;stroke-width:0.6;" x="178.066286" xlink:href="#m4a00172d95" y="298.944"/>
      </g>
     </g>
    </g>
    <g id="xtick_7">
     <g id="line2d_17">
      <path clip-path="url(#pdb9feb76e5)" d="M 258.377143 298.944 
L 258.377143 27.648 
" style="fill:none;stroke:#b0b0b0;stroke-linecap:square;stroke-width:0.8;"/>
     </g>
     <g id="line2d_18">
      <g>
       <use style="stroke:#000000;stroke-width:0.6;" x="258.377143" xlink:href="#m4a00172d95" y="298.944"/>
      </g>
     </g>
    </g>
    <g id="xtick_8">
     <g id="line2d_19">
      <path clip-path="url(#pdb9feb76e5)" d="M 338.688 298.944 
L 338.688 27.648 
" style="fill:none;stroke:#b0b0b0;stroke-linecap:square;stroke-width:0.8;"/>
     </g>
     <g id="line2d_20">
      <g>
       <use style="stroke:#000000;stroke-width:0.6;" x="338.688" xlink:href="#m4a00172d95" y="298.944"/>
      </g>
     </g>
    </g>
    <g id="text_5">
     <!-- log10(# f-evals / dimension) -->
     <g transform="translate(77.764078 342.217594)scale(0.17 -0.17)">
      <defs>
       <path d="M 9.421875 75.984375 
L 18.40625 75.984375 
L 18.40625 0 
L 9.421875 0 
z
" id="DejaVuSans-108"/>
       <path d="M 30.609375 48.390625 
Q 23.390625 48.390625 19.1875 42.75 
Q 14.984375 37.109375 14.984375 27.296875 
Q 14.984375 17.484375 19.15625 11.84375 
Q 23.34375 6.203125 30.609375 6.203125 
Q 37.796875 6.203125 41.984375 11.859375 
Q 46.1875 17.53125 46.1875 27.296875 
Q 46.1875 37.015625 41.984375 42.703125 
Q 37.796875 48.390625 30.609375 48.390625 
z
M 30.609375 56 
Q 42.328125 56 49.015625 48.375 
Q 55.71875 40.765625 55.71875 27.296875 
Q 55.71875 13.875 49.015625 6.21875 
Q 42.328125 -1.421875 30.609375 -1.421875 
Q 18.84375 -1.421875 12.171875 6.21875 
Q 5.515625 13.875 5.515625 27.296875 
Q 5.515625 40.765625 12.171875 48.375 
Q 18.84375 56 30.609375 56 
z
" id="DejaVuSans-111"/>
       <path d="M 45.40625 27.984375 
Q 45.40625 37.75 41.375 43.109375 
Q 37.359375 48.484375 30.078125 48.484375 
Q 22.859375 48.484375 18.828125 43.109375 
Q 14.796875 37.75 14.796875 27.984375 
Q 14.796875 18.265625 18.828125 12.890625 
Q 22.859375 7.515625 30.078125 7.515625 
Q 37.359375 7.515625 41.375 12.890625 
Q 45.40625 18.265625 45.40625 27.984375 
z
M 54.390625 6.78125 
Q 54.390625 -7.171875 48.1875 -13.984375 
Q 42 -20.796875 29.203125 -20.796875 
Q 24.46875 -20.796875 20.265625 -20.09375 
Q 16.0625 -19.390625 12.109375 -17.921875 
L 12.109375 -9.1875 
Q 16.0625 -11.328125 19.921875 -12.34375 
Q 23.78125 -13.375 27.78125 -13.375 
Q 36.625 -13.375 41.015625 -8.765625 
Q 45.40625 -4.15625 45.40625 5.171875 
L 45.40625 9.625 
Q 42.625 4.78125 38.28125 2.390625 
Q 33.9375 0 27.875 0 
Q 17.828125 0 11.671875 7.65625 
Q 5.515625 15.328125 5.515625 27.984375 
Q 5.515625 40.671875 11.671875 48.328125 
Q 17.828125 56 27.875 56 
Q 33.9375 56 38.28125 53.609375 
Q 42.625 51.21875 45.40625 46.390625 
L 45.40625 54.6875 
L 54.390625 54.6875 
z
" id="DejaVuSans-103"/>
       <path d="M 12.40625 8.296875 
L 28.515625 8.296875 
L 28.515625 63.921875 
L 10.984375 60.40625 
L 10.984375 69.390625 
L 28.421875 72.90625 
L 38.28125 72.90625 
L 38.28125 8.296875 
L 54.390625 8.296875 
L 54.390625 0 
L 12.40625 0 
z
" id="DejaVuSans-49"/>
       <path d="M 31 75.875 
Q 24.46875 64.65625 21.28125 53.65625 
Q 18.109375 42.671875 18.109375 31.390625 
Q 18.109375 20.125 21.3125 9.0625 
Q 24.515625 -2 31 -13.1875 
L 23.1875 -13.1875 
Q 15.875 -1.703125 12.234375 9.375 
Q 8.59375 20.453125 8.59375 31.390625 
Q 8.59375 42.28125 12.203125 53.3125 
Q 15.828125 64.359375 23.1875 75.875 
z
" id="DejaVuSans-40"/>
       <path d="M 51.125 44 
L 36.921875 44 
L 32.8125 27.6875 
L 47.125 27.6875 
z
M 43.796875 71.78125 
L 38.71875 51.515625 
L 52.984375 51.515625 
L 58.109375 71.78125 
L 65.921875 71.78125 
L 60.890625 51.515625 
L 76.125 51.515625 
L 76.125 44 
L 58.984375 44 
L 54.984375 27.6875 
L 70.515625 27.6875 
L 70.515625 20.21875 
L 53.078125 20.21875 
L 48 0 
L 40.1875 0 
L 45.21875 20.21875 
L 30.90625 20.21875 
L 25.875 0 
L 18.015625 0 
L 23.09375 20.21875 
L 7.71875 20.21875 
L 7.71875 27.6875 
L 24.90625 27.6875 
L 29 44 
L 13.28125 44 
L 13.28125 51.515625 
L 30.90625 51.515625 
L 35.890625 71.78125 
z
" id="DejaVuSans-35"/>
       <path id="DejaVuSans-32"/>
       <path d="M 37.109375 75.984375 
L 37.109375 68.5 
L 28.515625 68.5 
Q 23.6875 68.5 21.796875 66.546875 
Q 19.921875 64.59375 19.921875 59.515625 
L 19.921875 54.6875 
L 34.71875 54.6875 
L 34.71875 47.703125 
L 19.921875 47.703125 
L 19.921875 0 
L 10.890625 0 
L 10.890625 47.703125 
L 2.296875 47.703125 
L 2.296875 54.6875 
L 10.890625 54.6875 
L 10.890625 58.5 
Q 10.890625 67.625 15.140625 71.796875 
Q 19.390625 75.984375 28.609375 75.984375 
z
" id="DejaVuSans-102"/>
       <path d="M 4.890625 31.390625 
L 31.203125 31.390625 
L 31.203125 23.390625 
L 4.890625 23.390625 
z
" id="DejaVuSans-45"/>
       <path d="M 56.203125 29.59375 
L 56.203125 25.203125 
L 14.890625 25.203125 
Q 15.484375 15.921875 20.484375 11.0625 
Q 25.484375 6.203125 34.421875 6.203125 
Q 39.59375 6.203125 44.453125 7.46875 
Q 49.3125 8.734375 54.109375 11.28125 
L 54.109375 2.78125 
Q 49.265625 0.734375 44.1875 -0.34375 
Q 39.109375 -1.421875 33.890625 -1.421875 
Q 20.796875 -1.421875 13.15625 6.1875 
Q 5.515625 13.8125 5.515625 26.8125 
Q 5.515625 40.234375 12.765625 48.109375 
Q 20.015625 56 32.328125 56 
Q 43.359375 56 49.78125 48.890625 
Q 56.203125 41.796875 56.203125 29.59375 
z
M 47.21875 32.234375 
Q 47.125 39.59375 43.09375 43.984375 
Q 39.0625 48.390625 32.421875 48.390625 
Q 24.90625 48.390625 20.390625 44.140625 
Q 15.875 39.890625 15.1875 32.171875 
z
" id="DejaVuSans-101"/>
       <path d="M 2.984375 54.6875 
L 12.5 54.6875 
L 29.59375 8.796875 
L 46.6875 54.6875 
L 56.203125 54.6875 
L 35.6875 0 
L 23.484375 0 
z
" id="DejaVuSans-118"/>
       <path d="M 34.28125 27.484375 
Q 23.390625 27.484375 19.1875 25 
Q 14.984375 22.515625 14.984375 16.5 
Q 14.984375 11.71875 18.140625 8.90625 
Q 21.296875 6.109375 26.703125 6.109375 
Q 34.1875 6.109375 38.703125 11.40625 
Q 43.21875 16.703125 43.21875 25.484375 
L 43.21875 27.484375 
z
M 52.203125 31.203125 
L 52.203125 0 
L 43.21875 0 
L 43.21875 8.296875 
Q 40.140625 3.328125 35.546875 0.953125 
Q 30.953125 -1.421875 24.3125 -1.421875 
Q 15.921875 -1.421875 10.953125 3.296875 
Q 6 8.015625 6 15.921875 
Q 6 25.140625 12.171875 29.828125 
Q 18.359375 34.515625 30.609375 34.515625 
L 43.21875 34.515625 
L 43.21875 35.40625 
Q 43.21875 41.609375 39.140625 45 
Q 35.0625 48.390625 27.6875 48.390625 
Q 23 48.390625 18.546875 47.265625 
Q 14.109375 46.140625 10.015625 43.890625 
L 10.015625 52.203125 
Q 14.9375 54.109375 19.578125 55.046875 
Q 24.21875 56 28.609375 56 
Q 40.484375 56 46.34375 49.84375 
Q 52.203125 43.703125 52.203125 31.203125 
z
" id="DejaVuSans-97"/>
       <path d="M 44.28125 53.078125 
L 44.28125 44.578125 
Q 40.484375 46.53125 36.375 47.5 
Q 32.28125 48.484375 27.875 48.484375 
Q 21.1875 48.484375 17.84375 46.4375 
Q 14.5 44.390625 14.5 40.28125 
Q 14.5 37.15625 16.890625 35.375 
Q 19.28125 33.59375 26.515625 31.984375 
L 29.59375 31.296875 
Q 39.15625 29.25 43.1875 25.515625 
Q 47.21875 21.78125 47.21875 15.09375 
Q 47.21875 7.46875 41.1875 3.015625 
Q 35.15625 -1.421875 24.609375 -1.421875 
Q 20.21875 -1.421875 15.453125 -0.5625 
Q 10.6875 0.296875 5.421875 2 
L 5.421875 11.28125 
Q 10.40625 8.6875 15.234375 7.390625 
Q 20.0625 6.109375 24.8125 6.109375 
Q 31.15625 6.109375 34.5625 8.28125 
Q 37.984375 10.453125 37.984375 14.40625 
Q 37.984375 18.0625 35.515625 20.015625 
Q 33.0625 21.96875 24.703125 23.78125 
L 21.578125 24.515625 
Q 13.234375 26.265625 9.515625 29.90625 
Q 5.8125 33.546875 5.8125 39.890625 
Q 5.8125 47.609375 11.28125 51.796875 
Q 16.75 56 26.8125 56 
Q 31.78125 56 36.171875 55.265625 
Q 40.578125 54.546875 44.28125 53.078125 
z
" id="DejaVuSans-115"/>
       <path d="M 25.390625 72.90625 
L 33.6875 72.90625 
L 8.296875 -9.28125 
L 0 -9.28125 
z
" id="DejaVuSans-47"/>
       <path d="M 45.40625 46.390625 
L 45.40625 75.984375 
L 54.390625 75.984375 
L 54.390625 0 
L 45.40625 0 
L 45.40625 8.203125 
Q 42.578125 3.328125 38.25 0.953125 
Q 33.9375 -1.421875 27.875 -1.421875 
Q 17.96875 -1.421875 11.734375 6.484375 
Q 5.515625 14.40625 5.515625 27.296875 
Q 5.515625 40.1875 11.734375 48.09375 
Q 17.96875 56 27.875 56 
Q 33.9375 56 38.25 53.625 
Q 42.578125 51.265625 45.40625 46.390625 
z
M 14.796875 27.296875 
Q 14.796875 17.390625 18.875 11.75 
Q 22.953125 6.109375 30.078125 6.109375 
Q 37.203125 6.109375 41.296875 11.75 
Q 45.40625 17.390625 45.40625 27.296875 
Q 45.40625 37.203125 41.296875 42.84375 
Q 37.203125 48.484375 30.078125 48.484375 
Q 22.953125 48.484375 18.875 42.84375 
Q 14.796875 37.203125 14.796875 27.296875 
z
" id="DejaVuSans-100"/>
       <path d="M 9.421875 54.6875 
L 18.40625 54.6875 
L 18.40625 0 
L 9.421875 0 
z
M 9.421875 75.984375 
L 18.40625 75.984375 
L 18.40625 64.59375 
L 9.421875 64.59375 
z
" id="DejaVuSans-105"/>
       <path d="M 52 44.1875 
Q 55.375 50.25 60.0625 53.125 
Q 64.75 56 71.09375 56 
Q 79.640625 56 84.28125 50.015625 
Q 88.921875 44.046875 88.921875 33.015625 
L 88.921875 0 
L 79.890625 0 
L 79.890625 32.71875 
Q 79.890625 40.578125 77.09375 44.375 
Q 74.3125 48.1875 68.609375 48.1875 
Q 61.625 48.1875 57.5625 43.546875 
Q 53.515625 38.921875 53.515625 30.90625 
L 53.515625 0 
L 44.484375 0 
L 44.484375 32.71875 
Q 44.484375 40.625 41.703125 44.40625 
Q 38.921875 48.1875 33.109375 48.1875 
Q 26.21875 48.1875 22.15625 43.53125 
Q 18.109375 38.875 18.109375 30.90625 
L 18.109375 0 
L 9.078125 0 
L 9.078125 54.6875 
L 18.109375 54.6875 
L 18.109375 46.1875 
Q 21.1875 51.21875 25.484375 53.609375 
Q 29.78125 56 35.6875 56 
Q 41.65625 56 45.828125 52.96875 
Q 50 49.953125 52 44.1875 
z
" id="DejaVuSans-109"/>
       <path d="M 54.890625 33.015625 
L 54.890625 0 
L 45.90625 0 
L 45.90625 32.71875 
Q 45.90625 40.484375 42.875 44.328125 
Q 39.84375 48.1875 33.796875 48.1875 
Q 26.515625 48.1875 22.3125 43.546875 
Q 18.109375 38.921875 18.109375 30.90625 
L 18.109375 0 
L 9.078125 0 
L 9.078125 54.6875 
L 18.109375 54.6875 
L 18.109375 46.1875 
Q 21.34375 51.125 25.703125 53.5625 
Q 30.078125 56 35.796875 56 
Q 45.21875 56 50.046875 50.171875 
Q 54.890625 44.34375 54.890625 33.015625 
z
" id="DejaVuSans-110"/>
       <path d="M 8.015625 75.875 
L 15.828125 75.875 
Q 23.140625 64.359375 26.78125 53.3125 
Q 30.421875 42.28125 30.421875 31.390625 
Q 30.421875 20.453125 26.78125 9.375 
Q 23.140625 -1.703125 15.828125 -13.1875 
L 8.015625 -13.1875 
Q 14.5 -2 17.703125 9.0625 
Q 20.90625 20.125 20.90625 31.390625 
Q 20.90625 42.671875 17.703125 53.65625 
Q 14.5 64.65625 8.015625 75.875 
z
" id="DejaVuSans-41"/>
      </defs>
      <use xlink:href="#DejaVuSans-108"/>
      <use x="27.783203" xlink:href="#DejaVuSans-111"/>
      <use x="88.964844" xlink:href="#DejaVuSans-103"/>
      <use x="152.441406" xlink:href="#DejaVuSans-49"/>
      <use x="216.064453" xlink:href="#DejaVuSans-48"/>
      <use x="279.6875" xlink:href="#DejaVuSans-40"/>
      <use x="318.701172" xlink:href="#DejaVuSans-35"/>
      <use x="402.490234" xlink:href="#DejaVuSans-32"/>
      <use x="434.277344" xlink:href="#DejaVuSans-102"/>
      <use x="463.982422" xlink:href="#DejaVuSans-45"/>
      <use x="500.066406" xlink:href="#DejaVuSans-101"/>
      <use x="561.589844" xlink:href="#DejaVuSans-118"/>
      <use x="620.769531" xlink:href="#DejaVuSans-97"/>
      <use x="682.048828" xlink:href="#DejaVuSans-108"/>
      <use x="709.832031" xlink:href="#DejaVuSans-115"/>
      <use x="761.931641" xlink:href="#DejaVuSans-32"/>
      <use x="793.71875" xlink:href="#DejaVuSans-47"/>
      <use x="827.410156" xlink:href="#DejaVuSans-32"/>
      <use x="859.197266" xlink:href="#DejaVuSans-100"/>
      <use x="922.673828" xlink:href="#DejaVuSans-105"/>
      <use x="950.457031" xlink:href="#DejaVuSans-109"/>
      <use x="1047.869141" xlink:href="#DejaVuSans-101"/>
      <use x="1109.392578" xlink:href="#DejaVuSans-110"/>
      <use x="1172.771484" xlink:href="#DejaVuSans-115"/>
      <use x="1224.871094" xlink:href="#DejaVuSans-105"/>
      <use x="1252.654297" xlink:href="#DejaVuSans-111"/>
      <use x="1313.835938" xlink:href="#DejaVuSans-110"/>
      <use x="1377.214844" xlink:href="#DejaVuSans-41"/>
     </g>
    </g>
   </g>
   <g id="matplotlib.axis_2">
    <g id="ytick_1">
     <g id="line2d_21">
      <path clip-path="url(#pdb9feb76e5)" d="M 57.6 298.944 
L 338.688 298.944 
" style="fill:none;stroke:#b0b0b0;stroke-linecap:square;stroke-width:0.8;"/>
     </g>
     <g id="line2d_22">
      <defs>
       <path d="M 0 0 
L -3.5 0 
" id="m589ba01b30" style="stroke:#000000;stroke-width:0.8;"/>
      </defs>
      <g>
       <use style="stroke:#000000;stroke-width:0.8;" x="57.6" xlink:href="#m589ba01b30" y="298.944"/>
      </g>
     </g>
     <g id="text_6">
      <!-- 0.0 -->
      <g transform="translate(25.155 305.02275)scale(0.16 -0.16)">
       <defs>
        <path d="M 10.6875 12.40625 
L 21 12.40625 
L 21 0 
L 10.6875 0 
z
" id="DejaVuSans-46"/>
       </defs>
       <use xlink:href="#DejaVuSans-48"/>
       <use x="63.623047" xlink:href="#DejaVuSans-46"/>
       <use x="95.410156" xlink:href="#DejaVuSans-48"/>
      </g>
     </g>
    </g>
    <g id="ytick_2">
     <g id="line2d_23">
      <path clip-path="url(#pdb9feb76e5)" d="M 57.6 245.22202 
L 338.688 245.22202 
" style="fill:none;stroke:#b0b0b0;stroke-linecap:square;stroke-width:0.8;"/>
     </g>
     <g id="line2d_24">
      <g>
       <use style="stroke:#000000;stroke-width:0.8;" x="57.6" xlink:href="#m589ba01b30" y="245.22202"/>
      </g>
     </g>
     <g id="text_7">
      <!-- 0.2 -->
      <g transform="translate(25.155 251.30077)scale(0.16 -0.16)">
       <use xlink:href="#DejaVuSans-48"/>
       <use x="63.623047" xlink:href="#DejaVuSans-46"/>
       <use x="95.410156" xlink:href="#DejaVuSans-50"/>
      </g>
     </g>
    </g>
    <g id="ytick_3">
     <g id="line2d_25">
      <path clip-path="url(#pdb9feb76e5)" d="M 57.6 191.50004 
L 338.688 191.50004 
" style="fill:none;stroke:#b0b0b0;stroke-linecap:square;stroke-width:0.8;"/>
     </g>
     <g id="line2d_26">
      <g>
       <use style="stroke:#000000;stroke-width:0.8;" x="57.6" xlink:href="#m589ba01b30" y="191.50004"/>
      </g>
     </g>
     <g id="text_8">
      <!-- 0.4 -->
      <g transform="translate(25.155 197.57879)scale(0.16 -0.16)">
       <use xlink:href="#DejaVuSans-48"/>
       <use x="63.623047" xlink:href="#DejaVuSans-46"/>
       <use x="95.410156" xlink:href="#DejaVuSans-52"/>
      </g>
     </g>
    </g>
    <g id="ytick_4">
     <g id="line2d_27">
      <path clip-path="url(#pdb9feb76e5)" d="M 57.6 137.778059 
L 338.688 137.778059 
" style="fill:none;stroke:#b0b0b0;stroke-linecap:square;stroke-width:0.8;"/>
     </g>
     <g id="line2d_28">
      <g>
       <use style="stroke:#000000;stroke-width:0.8;" x="57.6" xlink:href="#m589ba01b30" y="137.778059"/>
      </g>
     </g>
     <g id="text_9">
      <!-- 0.6 -->
      <g transform="translate(25.155 143.856809)scale(0.16 -0.16)">
       <use xlink:href="#DejaVuSans-48"/>
       <use x="63.623047" xlink:href="#DejaVuSans-46"/>
       <use x="95.410156" xlink:href="#DejaVuSans-54"/>
      </g>
     </g>
    </g>
    <g id="ytick_5">
     <g id="line2d_29">
      <path clip-path="url(#pdb9feb76e5)" d="M 57.6 84.056079 
L 338.688 84.056079 
" style="fill:none;stroke:#b0b0b0;stroke-linecap:square;stroke-width:0.8;"/>
     </g>
     <g id="line2d_30">
      <g>
       <use style="stroke:#000000;stroke-width:0.8;" x="57.6" xlink:href="#m589ba01b30" y="84.056079"/>
      </g>
     </g>
     <g id="text_10">
      <!-- 0.8 -->
      <g transform="translate(25.155 90.134829)scale(0.16 -0.16)">
       <defs>
        <path d="M 31.78125 34.625 
Q 24.75 34.625 20.71875 30.859375 
Q 16.703125 27.09375 16.703125 20.515625 
Q 16.703125 13.921875 20.71875 10.15625 
Q 24.75 6.390625 31.78125 6.390625 
Q 38.8125 6.390625 42.859375 10.171875 
Q 46.921875 13.96875 46.921875 20.515625 
Q 46.921875 27.09375 42.890625 30.859375 
Q 38.875 34.625 31.78125 34.625 
z
M 21.921875 38.8125 
Q 15.578125 40.375 12.03125 44.71875 
Q 8.5 49.078125 8.5 55.328125 
Q 8.5 64.0625 14.71875 69.140625 
Q 20.953125 74.21875 31.78125 74.21875 
Q 42.671875 74.21875 48.875 69.140625 
Q 55.078125 64.0625 55.078125 55.328125 
Q 55.078125 49.078125 51.53125 44.71875 
Q 48 40.375 41.703125 38.8125 
Q 48.828125 37.15625 52.796875 32.3125 
Q 56.78125 27.484375 56.78125 20.515625 
Q 56.78125 9.90625 50.3125 4.234375 
Q 43.84375 -1.421875 31.78125 -1.421875 
Q 19.734375 -1.421875 13.25 4.234375 
Q 6.78125 9.90625 6.78125 20.515625 
Q 6.78125 27.484375 10.78125 32.3125 
Q 14.796875 37.15625 21.921875 38.8125 
z
M 18.3125 54.390625 
Q 18.3125 48.734375 21.84375 45.5625 
Q 25.390625 42.390625 31.78125 42.390625 
Q 38.140625 42.390625 41.71875 45.5625 
Q 45.3125 48.734375 45.3125 54.390625 
Q 45.3125 60.0625 41.71875 63.234375 
Q 38.140625 66.40625 31.78125 66.40625 
Q 25.390625 66.40625 21.84375 63.234375 
Q 18.3125 60.0625 18.3125 54.390625 
z
" id="DejaVuSans-56"/>
       </defs>
       <use xlink:href="#DejaVuSans-48"/>
       <use x="63.623047" xlink:href="#DejaVuSans-46"/>
       <use x="95.410156" xlink:href="#DejaVuSans-56"/>
      </g>
     </g>
    </g>
    <g id="ytick_6">
     <g id="line2d_31">
      <path clip-path="url(#pdb9feb76e5)" d="M 57.6 30.334099 
L 338.688 30.334099 
" style="fill:none;stroke:#b0b0b0;stroke-linecap:square;stroke-width:0.8;"/>
     </g>
     <g id="line2d_32">
      <g>
       <use style="stroke:#000000;stroke-width:0.8;" x="57.6" xlink:href="#m589ba01b30" y="30.334099"/>
      </g>
     </g>
     <g id="text_11">
      <!-- 1.0 -->
      <g transform="translate(25.155 36.412849)scale(0.16 -0.16)">
       <use xlink:href="#DejaVuSans-49"/>
       <use x="63.623047" xlink:href="#DejaVuSans-46"/>
       <use x="95.410156" xlink:href="#DejaVuSans-48"/>
      </g>
     </g>
    </g>
    <g id="text_12">
     <!-- Fraction of function,target pairs -->
     <g transform="translate(17.619531 297.681)rotate(-90)scale(0.17 -0.17)">
      <defs>
       <path d="M 9.8125 72.90625 
L 51.703125 72.90625 
L 51.703125 64.59375 
L 19.671875 64.59375 
L 19.671875 43.109375 
L 48.578125 43.109375 
L 48.578125 34.8125 
L 19.671875 34.8125 
L 19.671875 0 
L 9.8125 0 
z
" id="DejaVuSans-70"/>
       <path d="M 41.109375 46.296875 
Q 39.59375 47.171875 37.8125 47.578125 
Q 36.03125 48 33.890625 48 
Q 26.265625 48 22.1875 43.046875 
Q 18.109375 38.09375 18.109375 28.8125 
L 18.109375 0 
L 9.078125 0 
L 9.078125 54.6875 
L 18.109375 54.6875 
L 18.109375 46.1875 
Q 20.953125 51.171875 25.484375 53.578125 
Q 30.03125 56 36.53125 56 
Q 37.453125 56 38.578125 55.875 
Q 39.703125 55.765625 41.0625 55.515625 
z
" id="DejaVuSans-114"/>
       <path d="M 48.78125 52.59375 
L 48.78125 44.1875 
Q 44.96875 46.296875 41.140625 47.34375 
Q 37.3125 48.390625 33.40625 48.390625 
Q 24.65625 48.390625 19.8125 42.84375 
Q 14.984375 37.3125 14.984375 27.296875 
Q 14.984375 17.28125 19.8125 11.734375 
Q 24.65625 6.203125 33.40625 6.203125 
Q 37.3125 6.203125 41.140625 7.25 
Q 44.96875 8.296875 48.78125 10.40625 
L 48.78125 2.09375 
Q 45.015625 0.34375 40.984375 -0.53125 
Q 36.96875 -1.421875 32.421875 -1.421875 
Q 20.0625 -1.421875 12.78125 6.34375 
Q 5.515625 14.109375 5.515625 27.296875 
Q 5.515625 40.671875 12.859375 48.328125 
Q 20.21875 56 33.015625 56 
Q 37.15625 56 41.109375 55.140625 
Q 45.0625 54.296875 48.78125 52.59375 
z
" id="DejaVuSans-99"/>
       <path d="M 18.3125 70.21875 
L 18.3125 54.6875 
L 36.8125 54.6875 
L 36.8125 47.703125 
L 18.3125 47.703125 
L 18.3125 18.015625 
Q 18.3125 11.328125 20.140625 9.421875 
Q 21.96875 7.515625 27.59375 7.515625 
L 36.8125 7.515625 
L 36.8125 0 
L 27.59375 0 
Q 17.1875 0 13.234375 3.875 
Q 9.28125 7.765625 9.28125 18.015625 
L 9.28125 47.703125 
L 2.6875 47.703125 
L 2.6875 54.6875 
L 9.28125 54.6875 
L 9.28125 70.21875 
z
" id="DejaVuSans-116"/>
       <path d="M 8.5 21.578125 
L 8.5 54.6875 
L 17.484375 54.6875 
L 17.484375 21.921875 
Q 17.484375 14.15625 20.5 10.265625 
Q 23.53125 6.390625 29.59375 6.390625 
Q 36.859375 6.390625 41.078125 11.03125 
Q 45.3125 15.671875 45.3125 23.6875 
L 45.3125 54.6875 
L 54.296875 54.6875 
L 54.296875 0 
L 45.3125 0 
L 45.3125 8.40625 
Q 42.046875 3.421875 37.71875 1 
Q 33.40625 -1.421875 27.6875 -1.421875 
Q 18.265625 -1.421875 13.375 4.4375 
Q 8.5 10.296875 8.5 21.578125 
z
M 31.109375 56 
z
" id="DejaVuSans-117"/>
       <path d="M 11.71875 12.40625 
L 22.015625 12.40625 
L 22.015625 4 
L 14.015625 -11.625 
L 7.71875 -11.625 
L 11.71875 4 
z
" id="DejaVuSans-44"/>
       <path d="M 18.109375 8.203125 
L 18.109375 -20.796875 
L 9.078125 -20.796875 
L 9.078125 54.6875 
L 18.109375 54.6875 
L 18.109375 46.390625 
Q 20.953125 51.265625 25.265625 53.625 
Q 29.59375 56 35.59375 56 
Q 45.5625 56 51.78125 48.09375 
Q 58.015625 40.1875 58.015625 27.296875 
Q 58.015625 14.40625 51.78125 6.484375 
Q 45.5625 -1.421875 35.59375 -1.421875 
Q 29.59375 -1.421875 25.265625 0.953125 
Q 20.953125 3.328125 18.109375 8.203125 
z
M 48.6875 27.296875 
Q 48.6875 37.203125 44.609375 42.84375 
Q 40.53125 48.484375 33.40625 48.484375 
Q 26.265625 48.484375 22.1875 42.84375 
Q 18.109375 37.203125 18.109375 27.296875 
Q 18.109375 17.390625 22.1875 11.75 
Q 26.265625 6.109375 33.40625 6.109375 
Q 40.53125 6.109375 44.609375 11.75 
Q 48.6875 17.390625 48.6875 27.296875 
z
" id="DejaVuSans-112"/>
      </defs>
      <use xlink:href="#DejaVuSans-70"/>
      <use x="50.269531" xlink:href="#DejaVuSans-114"/>
      <use x="91.382812" xlink:href="#DejaVuSans-97"/>
      <use x="152.662109" xlink:href="#DejaVuSans-99"/>
      <use x="207.642578" xlink:href="#DejaVuSans-116"/>
      <use x="246.851562" xlink:href="#DejaVuSans-105"/>
      <use x="274.634766" xlink:href="#DejaVuSans-111"/>
      <use x="335.816406" xlink:href="#DejaVuSans-110"/>
      <use x="399.195312" xlink:href="#DejaVuSans-32"/>
      <use x="430.982422" xlink:href="#DejaVuSans-111"/>
      <use x="492.164062" xlink:href="#DejaVuSans-102"/>
      <use x="527.369141" xlink:href="#DejaVuSans-32"/>
      <use x="559.15625" xlink:href="#DejaVuSans-102"/>
      <use x="594.361328" xlink:href="#DejaVuSans-117"/>
      <use x="657.740234" xlink:href="#DejaVuSans-110"/>
      <use x="721.119141" xlink:href="#DejaVuSans-99"/>
      <use x="776.099609" xlink:href="#DejaVuSans-116"/>
      <use x="815.308594" xlink:href="#DejaVuSans-105"/>
      <use x="843.091797" xlink:href="#DejaVuSans-111"/>
      <use x="904.273438" xlink:href="#DejaVuSans-110"/>
      <use x="967.652344" xlink:href="#DejaVuSans-44"/>
      <use x="999.439453" xlink:href="#DejaVuSans-116"/>
      <use x="1038.648438" xlink:href="#DejaVuSans-97"/>
      <use x="1099.927734" xlink:href="#DejaVuSans-114"/>
      <use x="1139.291016" xlink:href="#DejaVuSans-103"/>
      <use x="1202.767578" xlink:href="#DejaVuSans-101"/>
      <use x="1264.291016" xlink:href="#DejaVuSans-116"/>
      <use x="1303.5" xlink:href="#DejaVuSans-32"/>
      <use x="1335.287109" xlink:href="#DejaVuSans-112"/>
      <use x="1398.763672" xlink:href="#DejaVuSans-97"/>
      <use x="1460.042969" xlink:href="#DejaVuSans-105"/>
      <use x="1487.826172" xlink:href="#DejaVuSans-114"/>
      <use x="1528.939453" xlink:href="#DejaVuSans-115"/>
     </g>
    </g>
   </g>
   <g id="line2d_33">
    <defs>
     <path d="M 0 1.5 
C 0.397805 1.5 0.77937 1.341951 1.06066 1.06066 
C 1.341951 0.77937 1.5 0.397805 1.5 0 
C 1.5 -0.397805 1.341951 -0.77937 1.06066 -1.06066 
C 0.77937 -1.341951 0.397805 -1.5 0 -1.5 
C -0.397805 -1.5 -0.77937 -1.341951 -1.06066 -1.06066 
C -1.341951 -0.77937 -1.5 -0.397805 -1.5 0 
C -1.5 0.397805 -1.341951 0.77937 -1.06066 1.06066 
C -0.77937 1.341951 -0.397805 1.5 0 1.5 
z
" id="m61a3e257bb" style="stroke:#f5deb3;"/>
    </defs>
    <g>
     <use style="fill:#f5deb3;stroke:#f5deb3;" x="239.078235" xlink:href="#m61a3e257bb" y="62.752535"/>
     <use style="fill:#f5deb3;stroke:#f5deb3;" x="239.078235" xlink:href="#m61a3e257bb" y="62.752535"/>
    </g>
   </g>
   <g id="line2d_34">
    <defs>
     <path d="M 0 1.5 
C 0.397805 1.5 0.77937 1.341951 1.06066 1.06066 
C 1.341951 0.77937 1.5 0.397805 1.5 0 
C 1.5 -0.397805 1.341951 -0.77937 1.06066 -1.06066 
C 0.77937 -1.341951 0.397805 -1.5 0 -1.5 
C -0.397805 -1.5 -0.77937 -1.341951 -1.06066 -1.06066 
C -1.341951 -0.77937 -1.5 -0.397805 -1.5 0 
C -1.5 0.397805 -1.341951 0.77937 -1.06066 1.06066 
C -0.77937 1.341951 -0.397805 1.5 0 1.5 
z
" id="m5c3f74862d" style="stroke:#000080;"/>
    </defs>
    <g>
     <use style="fill:#000080;stroke:#000080;" x="253.327416" xlink:href="#m5c3f74862d" y="103.04402"/>
     <use style="fill:#000080;stroke:#000080;" x="253.327416" xlink:href="#m5c3f74862d" y="103.04402"/>
    </g>
   </g>
   <g id="line2d_35">
    <path d="M 5.356583 298.944 
L 5.356583 295.702156 
L 17.444571 295.702156 
L 17.444571 295.239036 
L 24.515591 295.239036 
L 24.515591 294.775915 
L 33.424023 294.775915 
L 33.424023 294.312795 
L 41.620548 294.312795 
L 41.620548 293.386554 
L 50.087456 293.386554 
L 50.087456 292.923433 
L 57.6 292.923433 
L 57.6 292.460313 
L 61.491463 292.460313 
L 61.491463 291.997192 
L 68.328395 291.997192 
L 68.328395 291.070951 
L 69.246464 291.070951 
L 69.246464 290.607831 
L 75.86449 290.607831 
L 75.86449 290.14471 
L 76.465904 290.14471 
L 76.465904 289.68159 
L 84.213325 289.68159 
L 84.213325 289.218469 
L 101.223245 289.218469 
L 101.223245 288.755349 
L 107.414787 288.755349 
L 107.414787 288.292228 
L 115.173642 288.292228 
L 115.173642 287.829108 
L 116.768501 287.829108 
L 116.768501 287.365987 
L 121.422678 287.365987 
L 121.422678 286.902867 
L 123.090939 286.902867 
L 123.090939 286.439746 
L 127.309739 286.439746 
L 127.309739 285.976625 
L 129.46138 285.976625 
L 129.46138 285.513505 
L 130.358022 285.513505 
L 130.358022 285.050384 
L 131.540579 285.050384 
L 131.540579 284.587264 
L 133.398082 284.587264 
L 133.398082 284.124143 
L 135.731008 284.124143 
L 135.731008 283.197902 
L 136.970386 283.197902 
L 136.970386 282.271661 
L 138.569667 282.271661 
L 138.569667 281.808541 
L 144.050606 281.808541 
L 144.050606 281.34542 
L 144.576089 281.34542 
L 144.576089 280.8823 
L 145.355693 280.8823 
L 145.355693 280.419179 
L 145.576196 280.419179 
L 145.576196 279.956059 
L 146.431341 279.956059 
L 146.431341 279.492938 
L 147.164632 279.492938 
L 147.164632 279.029818 
L 147.833811 279.029818 
L 147.833811 278.566697 
L 149.60198 278.566697 
L 149.60198 278.103577 
L 149.83238 278.103577 
L 149.83238 277.177336 
L 152.283884 277.177336 
L 152.283884 276.251095 
L 153.294279 276.251095 
L 153.294279 275.324854 
L 153.577094 275.324854 
L 153.577094 274.861733 
L 155.206599 274.861733 
L 155.206599 273.935492 
L 156.888722 273.935492 
L 156.888722 273.472371 
L 158.368898 273.472371 
L 158.368898 273.009251 
L 158.631308 273.009251 
L 158.631308 272.54613 
L 159.007266 272.54613 
L 159.007266 271.619889 
L 160.025151 271.619889 
L 160.025151 271.156769 
L 160.682407 271.156769 
L 160.682407 270.693648 
L 161.754522 270.693648 
L 161.754522 270.230528 
L 162.040996 270.230528 
L 162.040996 269.767407 
L 162.612897 269.767407 
L 162.612897 269.304287 
L 163.45923 269.304287 
L 163.45923 268.378046 
L 164.411983 268.378046 
L 164.411983 267.451805 
L 165.22638 267.451805 
L 165.22638 266.988684 
L 166.981298 266.988684 
L 166.981298 266.525564 
L 167.79669 266.525564 
L 167.79669 266.062443 
L 169.019244 266.062443 
L 169.019244 265.136202 
L 170.654063 265.136202 
L 170.688708 264.209961 
L 170.967341 264.209961 
L 170.967341 263.746841 
L 172.052926 263.746841 
L 172.11682 262.357479 
L 172.619713 262.357479 
L 172.619713 261.431238 
L 173.28604 261.431238 
L 173.288334 260.041876 
L 173.55464 260.041876 
L 173.642512 258.652515 
L 174.103831 258.652515 
L 174.103831 258.189394 
L 174.718855 258.189394 
L 174.718855 257.726274 
L 175.0454 257.726274 
L 175.0454 257.263153 
L 175.179676 257.263153 
L 175.179676 256.800033 
L 175.431987 256.800033 
L 175.431987 256.336912 
L 175.999695 256.336912 
L 176.052625 255.410671 
L 176.629222 255.410671 
L 176.629222 254.947551 
L 177.55217 254.947551 
L 177.587159 254.02131 
L 178.047092 254.02131 
L 178.047092 253.558189 
L 178.931263 253.558189 
L 179.039625 251.242587 
L 180.120337 251.242587 
L 180.120337 250.779466 
L 180.714656 250.779466 
L 180.714656 249.853225 
L 180.869779 249.853225 
L 180.869779 249.390104 
L 181.467505 249.390104 
L 181.467505 248.926984 
L 181.66228 248.926984 
L 181.66228 248.463863 
L 182.36726 248.463863 
L 182.36726 247.537622 
L 183.639538 247.537622 
L 183.639538 247.074502 
L 183.868599 247.074502 
L 183.868599 246.611381 
L 184.662959 246.611381 
L 184.662959 246.148261 
L 184.802179 246.148261 
L 184.802179 245.22202 
L 185.107634 245.22202 
L 185.107634 244.295779 
L 185.437568 244.295779 
L 185.437568 243.832658 
L 185.775392 243.832658 
L 185.806189 242.443297 
L 186.524605 242.443297 
L 186.587305 240.590815 
L 186.863274 240.590815 
L 186.863274 240.127694 
L 187.026783 240.127694 
L 187.026783 239.664574 
L 187.335954 239.664574 
L 187.335954 239.201453 
L 188.462068 239.201453 
L 188.462068 238.275212 
L 188.914458 238.275212 
L 188.914458 237.812091 
L 189.281771 237.812091 
L 189.281771 237.348971 
L 189.524376 237.348971 
L 189.524376 236.88585 
L 189.815739 236.88585 
L 189.815739 235.959609 
L 190.506883 235.959609 
L 190.506883 235.033368 
L 191.22506 235.033368 
L 191.22506 234.570248 
L 191.378955 234.570248 
L 191.378955 233.644007 
L 193.27378 233.644007 
L 193.27378 232.717766 
L 194.526987 232.717766 
L 194.526987 231.791525 
L 196.705191 231.791525 
L 196.705191 231.328404 
L 196.937214 231.328404 
L 196.937214 230.402163 
L 197.078772 230.402163 
L 197.078772 229.475922 
L 197.317189 229.475922 
L 197.317189 229.012802 
L 197.600532 229.012802 
L 197.600532 228.086561 
L 197.740778 228.086561 
L 197.740778 227.16032 
L 199.051018 227.16032 
L 199.051018 226.234079 
L 199.162434 226.234079 
L 199.227079 224.844717 
L 199.717653 224.844717 
L 199.717653 224.381596 
L 200.199952 224.381596 
L 200.199952 222.992235 
L 200.562543 222.992235 
L 200.562543 222.065994 
L 200.702161 222.065994 
L 200.745682 220.676632 
L 201.474407 220.676632 
L 201.474407 220.213512 
L 201.741837 220.213512 
L 201.741837 219.287271 
L 202.013845 219.287271 
L 202.013845 218.36103 
L 202.340951 218.36103 
L 202.340951 216.508548 
L 202.505345 216.508548 
L 202.525947 215.582307 
L 202.861775 215.582307 
L 202.861775 214.656066 
L 203.238883 214.656066 
L 203.238883 213.729825 
L 204.931225 213.729825 
L 204.953072 212.340463 
L 205.112451 212.340463 
L 205.112451 211.414222 
L 205.284674 211.414222 
L 205.284674 210.487981 
L 205.572669 210.487981 
L 205.572669 209.56174 
L 205.762176 209.56174 
L 205.762176 209.098619 
L 205.897399 209.098619 
L 205.897399 208.635499 
L 206.142443 208.635499 
L 206.142443 207.709258 
L 206.52466 207.709258 
L 206.52466 207.246137 
L 207.139032 207.246137 
L 207.139032 206.783017 
L 207.64524 206.783017 
L 207.64524 206.319896 
L 208.055982 206.319896 
L 208.145407 204.004294 
L 208.427023 204.004294 
L 208.457577 202.151812 
L 209.210963 202.151812 
L 209.210963 201.688691 
L 209.404599 201.688691 
L 209.404599 201.225571 
L 209.529205 201.225571 
L 209.529205 200.299329 
L 209.753543 200.299329 
L 209.766433 198.909968 
L 210.442875 198.909968 
L 210.442875 197.983727 
L 210.593284 197.983727 
L 210.593284 197.520606 
L 211.449685 197.520606 
L 211.504755 196.594365 
L 211.634743 196.594365 
L 211.720022 194.741883 
L 211.870774 194.741883 
L 211.870774 194.278763 
L 212.17484 194.278763 
L 212.17484 193.815642 
L 212.457926 193.815642 
L 212.487752 192.426281 
L 212.881822 192.426281 
L 212.937161 191.036919 
L 213.064084 191.036919 
L 213.064084 190.573799 
L 213.408061 190.573799 
L 213.408061 189.647558 
L 213.775452 189.647558 
L 213.841824 188.258196 
L 214.031678 188.258196 
L 214.031678 187.795075 
L 214.423628 187.795075 
L 214.444756 186.868834 
L 214.879882 186.868834 
L 214.879882 186.405714 
L 215.121743 186.405714 
L 215.121743 185.479473 
L 215.463146 185.479473 
L 215.553103 184.090111 
L 215.623077 184.090111 
L 215.623077 183.626991 
L 215.741492 183.626991 
L 215.811115 182.237629 
L 216.003783 182.237629 
L 216.003783 181.774509 
L 216.296109 181.774509 
L 216.296109 181.311388 
L 216.619018 181.311388 
L 216.676087 179.922027 
L 217.056076 179.922027 
L 217.144136 178.532665 
L 217.247528 178.532665 
L 217.247528 178.069545 
L 217.532864 178.069545 
L 217.544652 176.680183 
L 217.756653 176.680183 
L 217.756653 176.217062 
L 217.869216 176.217062 
L 217.974159 174.36458 
L 218.123692 174.36458 
L 218.123692 173.90146 
L 218.301057 173.90146 
L 218.301057 173.438339 
L 218.546015 173.438339 
L 218.546015 172.975219 
L 219.073576 172.975219 
L 219.087604 170.659616 
L 219.371536 170.659616 
L 219.371536 170.196496 
L 220.032327 170.196496 
L 220.120995 169.270255 
L 220.230442 169.270255 
L 220.244269 168.344014 
L 220.733286 168.344014 
L 220.733286 167.880893 
L 220.851647 167.880893 
L 220.907126 166.954652 
L 221.197205 166.954652 
L 221.197205 166.491532 
L 221.388914 166.491532 
L 221.388914 166.028411 
L 221.582854 166.028411 
L 221.623938 164.63905 
L 222.190089 164.63905 
L 222.232472 163.712808 
L 222.326028 163.712808 
L 222.326028 163.249688 
L 222.492409 163.249688 
L 222.492409 162.786567 
L 222.631438 162.786567 
L 222.706912 158.618483 
L 222.866108 158.618483 
L 222.9264 156.766001 
L 223.181585 156.766001 
L 223.181585 156.30288 
L 223.864821 156.30288 
L 223.890984 155.376639 
L 224.200804 155.376639 
L 224.200804 154.913519 
L 224.34318 154.913519 
L 224.34318 154.450398 
L 224.670157 154.450398 
L 224.74056 153.524157 
L 224.919878 153.524157 
L 224.919878 153.061037 
L 225.193046 153.061037 
L 225.200177 151.671675 
L 225.370283 151.671675 
L 225.382374 150.745434 
L 225.610758 150.745434 
L 225.645713 149.819193 
L 225.806412 149.819193 
L 225.806412 149.356072 
L 226.001236 149.356072 
L 226.001236 148.892952 
L 226.113345 148.892952 
L 226.113345 147.966711 
L 226.489215 147.966711 
L 226.489215 147.50359 
L 226.988348 147.50359 
L 226.988348 146.577349 
L 227.335776 146.577349 
L 227.335776 146.114229 
L 227.64927 146.114229 
L 227.755237 145.187988 
L 227.958774 145.187988 
L 228.009936 144.261747 
L 228.116807 144.261747 
L 228.116807 143.798626 
L 228.266068 143.798626 
L 228.266068 143.335506 
L 228.587927 143.335506 
L 228.587927 142.409265 
L 229.135206 142.409265 
L 229.135206 141.483024 
L 229.274971 141.483024 
L 229.323064 139.630541 
L 229.476298 139.630541 
L 229.476298 139.167421 
L 229.649583 139.167421 
L 229.649583 138.7043 
L 230.02988 138.7043 
L 230.02988 138.24118 
L 230.358117 138.24118 
L 230.37033 136.851818 
L 230.480985 136.851818 
L 230.589998 135.925577 
L 230.615635 135.925577 
L 230.615635 135.462457 
L 231.457198 135.462457 
L 231.550877 134.073095 
L 231.647609 134.073095 
L 231.647609 133.146854 
L 231.861709 133.146854 
L 231.861709 132.683734 
L 232.235981 132.683734 
L 232.235981 131.757493 
L 232.380333 131.757493 
L 232.464417 130.831252 
L 232.752812 130.831252 
L 232.752812 130.368131 
L 232.955001 130.368131 
L 233.063714 128.052529 
L 233.222406 128.052529 
L 233.326242 127.126287 
L 233.800875 127.126287 
L 233.881273 126.200046 
L 234.123248 126.200046 
L 234.142751 124.810685 
L 234.246797 124.810685 
L 234.246797 124.347564 
L 234.735434 124.347564 
L 234.836585 122.495082 
L 235.22615 122.495082 
L 235.302054 120.6426 
L 236.182052 120.6426 
L 236.182052 119.716359 
L 236.573823 119.716359 
L 236.632477 117.863877 
L 237.317916 117.863877 
L 237.377758 116.474516 
L 238.054863 116.474516 
L 238.054863 116.011395 
L 238.772478 116.011395 
L 238.823205 115.085154 
L 239.625687 115.085154 
L 239.625687 114.622033 
L 240.107349 114.622033 
L 240.107349 113.695792 
L 240.373922 113.695792 
L 240.403398 111.84331 
L 240.890989 111.84331 
L 240.890989 111.38019 
L 241.008355 111.38019 
L 241.084839 110.453949 
L 241.297489 110.453949 
L 241.351088 109.527708 
L 241.447738 109.527708 
L 241.447738 109.064587 
L 242.629482 109.064587 
L 242.629482 108.601467 
L 243.261465 108.601467 
L 243.261465 107.675226 
L 245.708853 107.675226 
L 245.708853 106.748985 
L 246.646342 106.748985 
L 246.729505 105.359623 
L 246.871018 105.359623 
L 246.871018 104.896503 
L 250.105201 104.896503 
L 250.105201 104.433382 
L 251.463861 104.433382 
L 251.463861 103.970262 
L 253.327416 103.970262 
L 253.327416 103.04402 
L 338.688 103.04402 
L 338.688 103.04402 
" style="fill:none;stroke:#000080;stroke-linecap:square;stroke-width:1.5;"/>
   </g>
   <g id="line2d_36">
    <defs>
     <path d="M 0 6 
C 1.591219 6 3.117479 5.367802 4.242641 4.242641 
C 5.367802 3.117479 6 1.591219 6 0 
C 6 -1.591219 5.367802 -3.117479 4.242641 -4.242641 
C 3.117479 -5.367802 1.591219 -6 0 -6 
C -1.591219 -6 -3.117479 -5.367802 -4.242641 -4.242641 
C -5.367802 -3.117479 -6 -1.591219 -6 0 
C -6 1.591219 -5.367802 3.117479 -4.242641 4.242641 
C -3.117479 5.367802 -1.591219 6 0 6 
z
" id="ma1a769c896" style="stroke:#000080;stroke-width:1.5;"/>
    </defs>
    <g>
     <use style="fill-opacity:0;stroke:#000080;stroke-width:1.5;" x="69.246464" xlink:href="#ma1a769c896" y="290.607831"/>
     <use style="fill-opacity:0;stroke:#000080;stroke-width:1.5;" x="153.577094" xlink:href="#ma1a769c896" y="274.861733"/>
     <use style="fill-opacity:0;stroke:#000080;stroke-width:1.5;" x="215.553103" xlink:href="#ma1a769c896" y="184.090111"/>
     <use style="fill-opacity:0;stroke:#000080;stroke-width:1.5;" x="253.327416" xlink:href="#ma1a769c896" y="103.970262"/>
     <use style="fill-opacity:0;stroke:#000080;stroke-width:1.5;" x="253.327416" xlink:href="#ma1a769c896" y="103.04402"/>
     <use style="fill-opacity:0;stroke:#000080;stroke-width:1.5;" x="338.688" xlink:href="#ma1a769c896" y="103.04402"/>
    </g>
   </g>
   <g id="line2d_37">
    <path style="fill:none;stroke:#000080;stroke-linecap:square;stroke-width:1.5;"/>
    <g/>
   </g>
   <g id="line2d_38">
    <path clip-path="url(#pdb9feb76e5)" d="M 258.377195 103.04402 
" style="fill:none;stroke:#000080;stroke-linecap:square;stroke-width:1.5;"/>
    <defs>
     <path d="M -12 12 
L 12 -12 
M -12 -12 
L 12 12 
" id="m8fdfa5a127" style="stroke:#000080;"/>
    </defs>
    <g clip-path="url(#pdb9feb76e5)">
     <use style="fill:#000080;stroke:#000080;" x="258.377195" xlink:href="#m8fdfa5a127" y="103.04402"/>
    </g>
   </g>
   <g id="line2d_39">
    <defs>
     <path d="M 0 1.5 
C 0.397805 1.5 0.77937 1.341951 1.06066 1.06066 
C 1.341951 0.77937 1.5 0.397805 1.5 0 
C 1.5 -0.397805 1.341951 -0.77937 1.06066 -1.06066 
C 0.77937 -1.341951 0.397805 -1.5 0 -1.5 
C -0.397805 -1.5 -0.77937 -1.341951 -1.06066 -1.06066 
C -1.341951 -0.77937 -1.5 -0.397805 -1.5 0 
C -1.5 0.397805 -1.341951 0.77937 -1.06066 1.06066 
C -0.77937 1.341951 -0.397805 1.5 0 1.5 
z
" id="m927982c2bb" style="stroke:#ff00ff;"/>
    </defs>
    <g>
     <use style="fill:#ff00ff;stroke:#ff00ff;" x="257.329971" xlink:href="#m927982c2bb" y="177.606424"/>
     <use style="fill:#ff00ff;stroke:#ff00ff;" x="257.329971" xlink:href="#m927982c2bb" y="177.606424"/>
    </g>
   </g>
   <g id="line2d_40">
    <path d="M 5.356583 298.944 
L 5.356583 295.239036 
L 113.629929 295.239036 
L 113.699967 294.312795 
L 119.65247 294.312795 
L 119.65247 293.849674 
L 122.061712 293.849674 
L 122.061712 293.386554 
L 122.298108 293.386554 
L 122.298108 292.923433 
L 122.719876 292.923433 
L 122.761498 291.997192 
L 123.172336 291.997192 
L 123.172336 291.534072 
L 123.434283 291.534072 
L 123.434283 290.607831 
L 124.406624 290.607831 
L 124.406624 290.14471 
L 124.538526 290.14471 
L 124.538526 289.68159 
L 124.873192 289.68159 
L 124.983335 288.755349 
L 125.147256 288.755349 
L 125.147256 288.292228 
L 126.185301 288.292228 
L 126.185301 287.829108 
L 126.439646 287.829108 
L 126.540355 286.902867 
L 126.573795 286.902867 
L 126.573795 285.513505 
L 126.740043 285.513505 
L 126.740043 284.124143 
L 126.855481 284.124143 
L 126.855481 283.661023 
L 126.986481 283.661023 
L 127.035353 282.734782 
L 127.532507 282.734782 
L 127.5641 281.34542 
L 127.892415 281.34542 
L 127.954256 279.956059 
L 128.123198 279.956059 
L 128.229861 278.103577 
L 129.045969 278.103577 
L 129.089405 276.714215 
L 129.362011 276.714215 
L 129.362011 276.251095 
L 129.700375 276.251095 
L 129.728278 275.324854 
L 129.908566 275.324854 
L 129.908566 274.861733 
L 130.45189 274.861733 
L 130.51863 273.472371 
L 130.624887 273.472371 
L 130.624887 273.009251 
L 130.76994 273.009251 
L 130.874681 272.08301 
L 131.133813 272.08301 
L 131.210808 270.693648 
L 131.715598 270.693648 
L 131.715598 270.230528 
L 131.82719 270.230528 
L 131.839545 268.841166 
L 132.588957 268.841166 
L 132.588957 267.914925 
L 133.032848 267.914925 
L 133.136345 266.525564 
L 133.147807 266.525564 
L 133.147807 266.062443 
L 133.755823 266.062443 
L 133.755823 265.136202 
L 134.268299 265.136202 
L 134.268299 264.673082 
L 134.47127 264.673082 
L 134.47127 264.209961 
L 134.807865 264.209961 
L 134.807865 263.746841 
L 135.260324 263.746841 
L 135.260324 263.28372 
L 136.617126 263.28372 
L 136.635898 262.357479 
L 137.664982 262.357479 
L 137.664982 261.431238 
L 138.204833 261.431238 
L 138.204833 260.504997 
L 138.910565 260.504997 
L 138.910565 259.578756 
L 139.612588 259.578756 
L 139.612588 259.115635 
L 140.073083 259.115635 
L 140.073083 258.652515 
L 140.626517 258.652515 
L 140.626517 257.726274 
L 142.22273 257.726274 
L 142.22273 256.800033 
L 142.732726 256.800033 
L 142.732726 256.336912 
L 143.540394 256.336912 
L 143.540394 255.873792 
L 145.080421 255.873792 
L 145.080421 254.947551 
L 145.258697 254.947551 
L 145.258697 254.02131 
L 145.805039 254.02131 
L 145.805039 253.558189 
L 147.077217 253.558189 
L 147.077217 253.095069 
L 147.799224 253.095069 
L 147.799224 252.631948 
L 148.074019 252.631948 
L 148.074019 252.168828 
L 148.502028 252.168828 
L 148.502028 251.705707 
L 151.084795 251.705707 
L 151.084795 250.779466 
L 152.800111 250.779466 
L 152.800111 250.316346 
L 153.182035 250.316346 
L 153.182035 249.853225 
L 155.523889 249.853225 
L 155.523889 248.926984 
L 155.841748 248.926984 
L 155.841748 248.463863 
L 158.892448 248.463863 
L 158.892448 248.000743 
L 159.560209 248.000743 
L 159.560209 247.537622 
L 160.017789 247.537622 
L 160.017789 246.611381 
L 160.684769 246.611381 
L 160.684769 245.68514 
L 163.537636 245.68514 
L 163.537636 244.758899 
L 165.076435 244.758899 
L 165.076435 243.832658 
L 166.989529 243.832658 
L 166.989529 243.369538 
L 168.441406 243.369538 
L 168.542565 241.517056 
L 172.909242 241.517056 
L 172.909242 240.590815 
L 173.64813 240.590815 
L 173.704209 238.738333 
L 173.994046 238.738333 
L 173.994046 238.275212 
L 174.211842 238.275212 
L 174.211842 237.812091 
L 174.479513 237.812091 
L 174.571383 236.42273 
L 174.68078 236.42273 
L 174.68078 235.959609 
L 176.224029 235.959609 
L 176.224029 235.496489 
L 176.336086 235.496489 
L 176.336086 235.033368 
L 177.288859 235.033368 
L 177.288859 234.107127 
L 178.228585 234.107127 
L 178.31648 233.180886 
L 183.369512 233.180886 
L 183.369512 232.717766 
L 184.957924 232.717766 
L 184.957924 232.254645 
L 185.267035 232.254645 
L 185.267035 231.328404 
L 185.440996 231.328404 
L 185.440996 230.402163 
L 185.553743 230.402163 
L 185.649403 229.475922 
L 186.091944 229.475922 
L 186.091944 228.549681 
L 186.609757 228.549681 
L 186.609757 227.62344 
L 187.81013 227.62344 
L 187.81013 227.16032 
L 190.153838 227.16032 
L 190.153838 226.234079 
L 190.713302 226.234079 
L 190.713302 225.770958 
L 191.003063 225.770958 
L 191.003063 225.307837 
L 191.928222 225.307837 
L 191.928222 224.381596 
L 192.408308 224.381596 
L 192.51868 222.992235 
L 194.802008 222.992235 
L 194.802008 222.529114 
L 195.08788 222.529114 
L 195.112504 221.602873 
L 196.641891 221.602873 
L 196.641891 220.676632 
L 197.370019 220.676632 
L 197.370019 220.213512 
L 199.196734 220.213512 
L 199.196734 219.750391 
L 199.815887 219.750391 
L 199.815887 219.287271 
L 200.049564 219.287271 
L 200.049564 218.36103 
L 200.328387 218.36103 
L 200.328387 217.434789 
L 201.365175 217.434789 
L 201.365175 216.971668 
L 202.060165 216.971668 
L 202.060165 216.045427 
L 204.284296 216.045427 
L 204.284296 215.119186 
L 204.5097 215.119186 
L 204.5097 214.656066 
L 204.904486 214.656066 
L 204.904486 214.192945 
L 205.070796 214.192945 
L 205.070796 213.266704 
L 205.309923 213.266704 
L 205.309923 212.340463 
L 205.851909 212.340463 
L 205.851909 211.414222 
L 206.162477 211.414222 
L 206.162477 210.951101 
L 207.066281 210.951101 
L 207.093041 209.098619 
L 207.384074 209.098619 
L 207.384074 208.635499 
L 207.533422 208.635499 
L 207.533422 208.172378 
L 207.753168 208.172378 
L 207.796184 207.246137 
L 208.936328 207.246137 
L 208.936328 206.783017 
L 211.205629 206.783017 
L 211.224394 205.393655 
L 213.866914 205.393655 
L 213.866914 204.467414 
L 216.720905 204.467414 
L 216.720905 204.004294 
L 219.05588 204.004294 
L 219.05588 203.078053 
L 220.470077 203.078053 
L 220.470077 202.151812 
L 220.878098 202.151812 
L 220.878098 201.225571 
L 221.3574 201.225571 
L 221.3574 200.76245 
L 221.853643 200.76245 
L 221.853643 199.373088 
L 222.477455 199.373088 
L 222.51935 198.446847 
L 223.55804 198.446847 
L 223.55804 197.520606 
L 225.595396 197.520606 
L 225.595396 197.057486 
L 227.527166 197.057486 
L 227.527166 196.594365 
L 227.749229 196.594365 
L 227.749229 196.131245 
L 228.713171 196.131245 
L 228.713171 195.668124 
L 230.457483 195.668124 
L 230.457483 194.741883 
L 230.850312 194.741883 
L 230.850312 194.278763 
L 231.265964 194.278763 
L 231.35394 193.352522 
L 231.627933 193.352522 
L 231.627933 192.426281 
L 231.920004 192.426281 
L 231.920004 191.96316 
L 232.071044 191.96316 
L 232.097232 190.573799 
L 232.406332 190.573799 
L 232.406332 189.647558 
L 233.153244 189.647558 
L 233.153244 189.184437 
L 233.423958 189.184437 
L 233.423958 188.721316 
L 233.827941 188.721316 
L 233.827941 188.258196 
L 234.622699 188.258196 
L 234.622699 187.795075 
L 244.135568 187.795075 
L 244.18528 186.868834 
L 244.278194 186.868834 
L 244.278194 185.942593 
L 244.430512 185.942593 
L 244.430512 185.479473 
L 244.773191 185.479473 
L 244.773191 184.553232 
L 247.149152 184.553232 
L 247.149152 183.626991 
L 249.532698 183.626991 
L 249.532698 183.16387 
L 250.633234 183.16387 
L 250.633234 182.70075 
L 251.304627 182.70075 
L 251.304627 181.774509 
L 252.152366 181.774509 
L 252.152366 180.848268 
L 254.109163 180.848268 
L 254.169346 179.458906 
L 254.821339 179.458906 
L 254.821339 178.995786 
L 255.182306 178.995786 
L 255.182306 178.069545 
L 257.329971 178.069545 
L 257.329971 177.606424 
L 338.688 177.606424 
L 338.688 177.606424 
" style="fill:none;stroke:#ff00ff;stroke-linecap:square;stroke-width:1.5;"/>
   </g>
   <g id="line2d_41">
    <defs>
     <path d="M 0 8.485281 
L 5.091169 0 
L 0 -8.485281 
L -5.091169 0 
z
" id="mfcb8c45216" style="stroke:#ff00ff;stroke-linejoin:miter;stroke-width:1.5;"/>
    </defs>
    <g>
     <use style="fill-opacity:0;stroke:#ff00ff;stroke-linejoin:miter;stroke-width:1.5;" x="119.65247" xlink:href="#mfcb8c45216" y="293.849674"/>
     <use style="fill-opacity:0;stroke:#ff00ff;stroke-linejoin:miter;stroke-width:1.5;" x="160.684769" xlink:href="#mfcb8c45216" y="245.68514"/>
     <use style="fill-opacity:0;stroke:#ff00ff;stroke-linejoin:miter;stroke-width:1.5;" x="221.3574" xlink:href="#mfcb8c45216" y="200.76245"/>
     <use style="fill-opacity:0;stroke:#ff00ff;stroke-linejoin:miter;stroke-width:1.5;" x="257.329971" xlink:href="#mfcb8c45216" y="177.606424"/>
     <use style="fill-opacity:0;stroke:#ff00ff;stroke-linejoin:miter;stroke-width:1.5;" x="257.329971" xlink:href="#mfcb8c45216" y="177.606424"/>
     <use style="fill-opacity:0;stroke:#ff00ff;stroke-linejoin:miter;stroke-width:1.5;" x="338.688" xlink:href="#mfcb8c45216" y="177.606424"/>
    </g>
   </g>
   <g id="line2d_42">
    <path style="fill:none;stroke:#ff00ff;stroke-linecap:square;stroke-width:1.5;"/>
    <g/>
   </g>
   <g id="line2d_43">
    <path clip-path="url(#pdb9feb76e5)" d="M 258.378425 177.606424 
" style="fill:none;stroke:#ff00ff;stroke-linecap:square;stroke-width:1.5;"/>
    <defs>
     <path d="M -12 12 
L 12 -12 
M -12 -12 
L 12 12 
" id="m06f1398c04" style="stroke:#ff00ff;"/>
    </defs>
    <g clip-path="url(#pdb9feb76e5)">
     <use style="fill:#ff00ff;stroke:#ff00ff;" x="258.378425" xlink:href="#m06f1398c04" y="177.606424"/>
    </g>
   </g>
   <g id="line2d_44">
    <defs>
     <path d="M 0 1.5 
C 0.397805 1.5 0.77937 1.341951 1.06066 1.06066 
C 1.341951 0.77937 1.5 0.397805 1.5 0 
C 1.5 -0.397805 1.341951 -0.77937 1.06066 -1.06066 
C 0.77937 -1.341951 0.397805 -1.5 0 -1.5 
C -0.397805 -1.5 -0.77937 -1.341951 -1.06066 -1.06066 
C -1.341951 -0.77937 -1.5 -0.397805 -1.5 0 
C -1.5 0.397805 -1.341951 0.77937 -1.06066 1.06066 
C -0.77937 1.341951 -0.397805 1.5 0 1.5 
z
" id="m79a3586f54" style="stroke:#ff7500;"/>
    </defs>
    <g>
     <use style="fill:#ff7500;stroke:#ff7500;" x="199.313674" xlink:href="#m79a3586f54" y="170.196496"/>
     <use style="fill:#ff7500;stroke:#ff7500;" x="199.313674" xlink:href="#m79a3586f54" y="170.196496"/>
    </g>
   </g>
   <g id="line2d_45">
    <path d="M 134.321942 298.944 
L 134.321942 298.017759 
L 137.415591 298.017759 
L 137.415591 297.554638 
L 139.180187 297.554638 
L 139.180187 297.091518 
L 140.211187 297.091518 
L 140.211187 296.165277 
L 141.321401 296.165277 
L 141.321401 295.702156 
L 144.18499 295.702156 
L 144.18499 294.312795 
L 144.93531 294.312795 
L 144.946964 293.386554 
L 145.570577 293.386554 
L 145.570577 292.923433 
L 147.164632 292.923433 
L 147.164632 291.997192 
L 147.883103 291.997192 
L 147.883103 291.534072 
L 148.161434 291.534072 
L 148.161434 291.070951 
L 148.349344 291.070951 
L 148.444928 289.68159 
L 149.168459 289.68159 
L 149.200437 288.292228 
L 149.391082 288.292228 
L 149.391082 287.829108 
L 149.628721 287.829108 
L 149.628721 287.365987 
L 150.241302 287.365987 
L 150.241302 286.439746 
L 150.56505 286.439746 
L 150.56505 285.976625 
L 150.695399 285.976625 
L 150.720515 285.050384 
L 150.911883 285.050384 
L 150.911883 284.587264 
L 151.195055 284.587264 
L 151.195055 284.124143 
L 151.62925 284.124143 
L 151.696621 283.197902 
L 151.759793 283.197902 
L 151.759793 282.734782 
L 152.002444 282.734782 
L 152.002444 282.271661 
L 152.496747 282.271661 
L 152.568381 281.34542 
L 152.69584 281.34542 
L 152.69584 280.8823 
L 153.405804 280.8823 
L 153.405804 279.956059 
L 153.605479 279.956059 
L 153.605479 279.492938 
L 153.991164 279.492938 
L 154.029268 278.566697 
L 154.197998 278.566697 
L 154.208275 277.177336 
L 154.331136 277.177336 
L 154.331136 276.251095 
L 154.731206 276.251095 
L 154.731206 275.787974 
L 155.599947 275.787974 
L 155.697699 273.009251 
L 155.956757 273.009251 
L 155.956757 272.54613 
L 156.574599 272.54613 
L 156.574599 272.08301 
L 156.732368 272.08301 
L 156.732368 271.619889 
L 156.871092 271.619889 
L 156.967839 268.841166 
L 157.156845 268.841166 
L 157.156845 268.378046 
L 157.472107 268.378046 
L 157.472107 267.914925 
L 157.778981 267.914925 
L 157.778981 267.451805 
L 158.148986 267.451805 
L 158.148986 266.988684 
L 158.271501 266.988684 
L 158.290482 265.136202 
L 158.393162 265.136202 
L 158.393162 264.673082 
L 158.83738 264.673082 
L 158.83738 263.746841 
L 158.98905 263.746841 
L 158.98905 262.8206 
L 159.121333 262.8206 
L 159.129083 261.894358 
L 159.519846 261.894358 
L 159.519846 261.431238 
L 160.017789 261.431238 
L 160.017789 260.968117 
L 160.147395 260.968117 
L 160.174175 259.578756 
L 160.48041 259.578756 
L 160.582889 257.726274 
L 160.613753 257.726274 
L 160.625609 256.800033 
L 160.924085 256.800033 
L 161.003133 255.410671 
L 161.061028 255.410671 
L 161.109513 254.02131 
L 161.180839 254.02131 
L 161.249588 253.095069 
L 161.656485 253.095069 
L 161.656485 252.631948 
L 162.281931 252.631948 
L 162.281931 251.705707 
L 162.41935 251.705707 
L 162.508946 250.316346 
L 162.56206 250.316346 
L 162.655149 248.926984 
L 162.730944 248.926984 
L 162.818958 247.537622 
L 162.896128 247.537622 
L 162.896128 246.611381 
L 163.115337 246.611381 
L 163.115337 246.148261 
L 163.289148 246.148261 
L 163.374396 244.758899 
L 163.53563 244.758899 
L 163.53563 244.295779 
L 163.885182 244.295779 
L 163.885182 243.832658 
L 164.05347 243.832658 
L 164.05347 243.369538 
L 164.256762 243.369538 
L 164.256762 242.906417 
L 164.5507 242.906417 
L 164.641313 240.127694 
L 164.667654 240.127694 
L 164.757663 239.201453 
L 164.836042 239.201453 
L 164.836042 238.738333 
L 165.329856 238.738333 
L 165.329856 238.275212 
L 165.524248 238.275212 
L 165.524248 237.812091 
L 165.776583 237.812091 
L 165.832947 235.959609 
L 166.067012 235.959609 
L 166.106873 234.570248 
L 166.441215 234.570248 
L 166.510705 232.717766 
L 166.679039 232.717766 
L 166.789256 230.402163 
L 166.829163 230.402163 
L 166.930183 229.012802 
L 167.050313 229.012802 
L 167.050313 228.549681 
L 167.205417 228.549681 
L 167.205417 228.086561 
L 167.417059 228.086561 
L 167.417059 227.62344 
L 167.624577 227.62344 
L 167.735303 226.234079 
L 167.870382 226.234079 
L 167.870382 225.307837 
L 168.009081 225.307837 
L 168.118942 223.918476 
L 168.149765 223.918476 
L 168.214315 222.992235 
L 168.406544 222.992235 
L 168.415645 221.139753 
L 168.683507 221.139753 
L 168.777335 220.213512 
L 168.815911 220.213512 
L 168.815911 219.287271 
L 169.380234 219.287271 
L 169.448972 217.434789 
L 169.504622 217.434789 
L 169.504622 216.971668 
L 169.766213 216.971668 
L 169.766213 216.045427 
L 170.110841 216.045427 
L 170.110841 215.582307 
L 170.49327 215.582307 
L 170.49327 215.119186 
L 170.674059 215.119186 
L 170.674059 214.656066 
L 170.785611 214.656066 
L 170.849036 213.266704 
L 171.224819 213.266704 
L 171.305953 211.877342 
L 171.446717 211.877342 
L 171.463278 210.951101 
L 171.588882 210.951101 
L 171.588882 210.02486 
L 171.890917 210.02486 
L 171.890917 209.098619 
L 172.049233 209.098619 
L 172.065231 207.246137 
L 172.407511 207.246137 
L 172.407511 206.783017 
L 172.528914 206.783017 
L 172.605408 205.393655 
L 172.789287 205.393655 
L 172.789287 204.930535 
L 172.924471 204.930535 
L 173.024885 203.078053 
L 173.109669 203.078053 
L 173.109669 202.151812 
L 173.830286 202.151812 
L 173.830286 201.225571 
L 174.008357 201.225571 
L 174.008357 200.76245 
L 174.215104 200.76245 
L 174.300801 199.373088 
L 174.353744 199.373088 
L 174.424802 197.983727 
L 174.716742 197.983727 
L 174.726249 197.057486 
L 175.330276 197.057486 
L 175.330276 196.594365 
L 175.450232 196.594365 
L 175.465422 195.205004 
L 175.824078 195.205004 
L 175.913094 193.815642 
L 176.110272 193.815642 
L 176.185221 191.96316 
L 176.360142 191.96316 
L 176.360142 191.50004 
L 176.69915 191.50004 
L 176.803518 189.647558 
L 177.415129 189.647558 
L 177.415129 188.721316 
L 177.602389 188.721316 
L 177.602389 188.258196 
L 177.876917 188.258196 
L 177.969228 186.868834 
L 178.483291 186.868834 
L 178.483291 186.405714 
L 178.6156 186.405714 
L 178.717537 185.016352 
L 179.038801 185.016352 
L 179.134201 183.16387 
L 179.242129 183.16387 
L 179.242129 182.70075 
L 179.486571 182.70075 
L 179.486571 181.774509 
L 179.831174 181.774509 
L 179.831174 181.311388 
L 180.218495 181.311388 
L 180.218495 180.848268 
L 180.409359 180.848268 
L 180.499842 178.069545 
L 180.689168 178.069545 
L 180.689168 177.606424 
L 180.963081 177.606424 
L 180.963081 177.143304 
L 181.120411 177.143304 
L 181.120411 176.680183 
L 181.316908 176.680183 
L 181.316908 176.217062 
L 182.441373 176.217062 
L 182.441373 175.753942 
L 183.002848 175.753942 
L 183.002848 175.290821 
L 183.144185 175.290821 
L 183.144185 174.827701 
L 183.579892 174.827701 
L 183.579892 173.90146 
L 186.866433 173.90146 
L 186.866433 173.438339 
L 191.080133 173.438339 
L 191.080133 172.512098 
L 194.983417 172.512098 
L 194.983417 172.048978 
L 196.065341 172.048978 
L 196.065341 171.122737 
L 198.34126 171.122737 
L 198.34126 170.659616 
L 199.313674 170.659616 
L 199.313674 170.196496 
L 338.688 170.196496 
L 338.688 170.196496 
" style="fill:none;stroke:#ff7500;stroke-linecap:square;stroke-width:1.5;"/>
   </g>
   <g id="line2d_46">
    <defs>
     <path d="M 0 -6 
L -1.347084 -1.854102 
L -5.706339 -1.854102 
L -2.179628 0.708204 
L -3.526712 4.854102 
L -0 2.291796 
L 3.526712 4.854102 
L 2.179628 0.708204 
L 5.706339 -1.854102 
L 1.347084 -1.854102 
z
" id="m4c6bfd4898" style="stroke:#ff7500;stroke-linejoin:bevel;stroke-width:1.5;"/>
    </defs>
    <g>
     <use style="fill-opacity:0;stroke:#ff7500;stroke-linejoin:bevel;stroke-width:1.5;" x="163.374396" xlink:href="#m4c6bfd4898" y="245.22202"/>
     <use style="fill-opacity:0;stroke:#ff7500;stroke-linejoin:bevel;stroke-width:1.5;" x="186.866433" xlink:href="#m4c6bfd4898" y="173.438339"/>
     <use style="fill-opacity:0;stroke:#ff7500;stroke-linejoin:bevel;stroke-width:1.5;" x="199.313674" xlink:href="#m4c6bfd4898" y="170.196496"/>
     <use style="fill-opacity:0;stroke:#ff7500;stroke-linejoin:bevel;stroke-width:1.5;" x="199.313674" xlink:href="#m4c6bfd4898" y="170.196496"/>
     <use style="fill-opacity:0;stroke:#ff7500;stroke-linejoin:bevel;stroke-width:1.5;" x="338.688" xlink:href="#m4c6bfd4898" y="170.196496"/>
    </g>
   </g>
   <g id="line2d_47">
    <path style="fill:none;stroke:#ff7500;stroke-linecap:square;stroke-width:1.5;"/>
    <g/>
   </g>
   <g id="line2d_48">
    <path clip-path="url(#pdb9feb76e5)" d="M 258.377152 170.196496 
" style="fill:none;stroke:#ff7500;stroke-linecap:square;stroke-width:1.5;"/>
    <defs>
     <path d="M -12 12 
L 12 -12 
M -12 -12 
L 12 12 
" id="m4b572eb6a9" style="stroke:#ff7500;"/>
    </defs>
    <g clip-path="url(#pdb9feb76e5)">
     <use style="fill:#ff7500;stroke:#ff7500;" x="258.377152" xlink:href="#m4b572eb6a9" y="170.196496"/>
    </g>
   </g>
   <g id="line2d_49">
    <path d="M 338.688 177.606424 
L 369.60768 293.571802 
" style="fill:none;stroke:#ff00ff;stroke-linecap:square;stroke-width:1.5;"/>
    <g>
     <use style="fill-opacity:0;stroke:#ff00ff;stroke-linejoin:miter;stroke-width:1.5;" x="338.688" xlink:href="#mfcb8c45216" y="177.606424"/>
     <use style="fill-opacity:0;stroke:#ff00ff;stroke-linejoin:miter;stroke-width:1.5;" x="369.60768" xlink:href="#mfcb8c45216" y="293.571802"/>
    </g>
   </g>
   <g id="line2d_50">
    <path d="M 338.688 170.196496 
L 369.60768 207.616634 
" style="fill:none;stroke:#ff7500;stroke-linecap:square;stroke-width:1.5;"/>
    <g>
     <use style="fill-opacity:0;stroke:#ff7500;stroke-linejoin:bevel;stroke-width:1.5;" x="338.688" xlink:href="#m4c6bfd4898" y="170.196496"/>
     <use style="fill-opacity:0;stroke:#ff7500;stroke-linejoin:bevel;stroke-width:1.5;" x="369.60768" xlink:href="#m4c6bfd4898" y="207.616634"/>
    </g>
   </g>
   <g id="line2d_51">
    <path d="M 338.688 103.04402 
L 369.60768 121.661465 
" style="fill:none;stroke:#000080;stroke-linecap:square;stroke-width:1.5;"/>
    <g>
     <use style="fill-opacity:0;stroke:#000080;stroke-width:1.5;" x="338.688" xlink:href="#ma1a769c896" y="103.04402"/>
     <use style="fill-opacity:0;stroke:#000080;stroke-width:1.5;" x="369.60768" xlink:href="#ma1a769c896" y="121.661465"/>
    </g>
   </g>
   <g id="line2d_52">
    <path d="M 338.688 298.944 
L 338.688 30.334099 
" style="fill:none;stroke:#000000;stroke-linecap:square;stroke-width:1.5;"/>
   </g>
   <g id="patch_3">
    <path d="M 57.6 298.944 
L 57.6 27.648 
" style="fill:none;stroke:#000000;stroke-linecap:square;stroke-linejoin:miter;stroke-width:0.8;"/>
   </g>
   <g id="patch_4">
    <path d="M 338.688 298.944 
L 338.688 27.648 
" style="fill:none;stroke:#000000;stroke-linecap:square;stroke-linejoin:miter;stroke-width:0.8;"/>
   </g>
   <g id="patch_5">
    <path d="M 57.6 298.944 
L 338.688 298.944 
" style="fill:none;stroke:#000000;stroke-linecap:square;stroke-linejoin:miter;stroke-width:0.8;"/>
   </g>
   <g id="patch_6">
    <path d="M 57.6 27.648 
L 338.688 27.648 
" style="fill:none;stroke:#000000;stroke-linecap:square;stroke-linejoin:miter;stroke-width:0.8;"/>
   </g>
   <g id="text_13">
    <!-- NSGA-II-M -->
    <g transform="translate(375.22944 298.262739)scale(0.17 -0.17)">
     <defs>
      <path d="M 9.8125 72.90625 
L 23.09375 72.90625 
L 55.421875 11.921875 
L 55.421875 72.90625 
L 64.984375 72.90625 
L 64.984375 0 
L 51.703125 0 
L 19.390625 60.984375 
L 19.390625 0 
L 9.8125 0 
z
" id="DejaVuSans-78"/>
      <path d="M 53.515625 70.515625 
L 53.515625 60.890625 
Q 47.90625 63.578125 42.921875 64.890625 
Q 37.9375 66.21875 33.296875 66.21875 
Q 25.25 66.21875 20.875 63.09375 
Q 16.5 59.96875 16.5 54.203125 
Q 16.5 49.359375 19.40625 46.890625 
Q 22.3125 44.4375 30.421875 42.921875 
L 36.375 41.703125 
Q 47.40625 39.59375 52.65625 34.296875 
Q 57.90625 29 57.90625 20.125 
Q 57.90625 9.515625 50.796875 4.046875 
Q 43.703125 -1.421875 29.984375 -1.421875 
Q 24.8125 -1.421875 18.96875 -0.25 
Q 13.140625 0.921875 6.890625 3.21875 
L 6.890625 13.375 
Q 12.890625 10.015625 18.65625 8.296875 
Q 24.421875 6.59375 29.984375 6.59375 
Q 38.421875 6.59375 43.015625 9.90625 
Q 47.609375 13.234375 47.609375 19.390625 
Q 47.609375 24.75 44.3125 27.78125 
Q 41.015625 30.8125 33.5 32.328125 
L 27.484375 33.5 
Q 16.453125 35.6875 11.515625 40.375 
Q 6.59375 45.0625 6.59375 53.421875 
Q 6.59375 63.09375 13.40625 68.65625 
Q 20.21875 74.21875 32.171875 74.21875 
Q 37.3125 74.21875 42.625 73.28125 
Q 47.953125 72.359375 53.515625 70.515625 
z
" id="DejaVuSans-83"/>
      <path d="M 59.515625 10.40625 
L 59.515625 29.984375 
L 43.40625 29.984375 
L 43.40625 38.09375 
L 69.28125 38.09375 
L 69.28125 6.78125 
Q 63.578125 2.734375 56.6875 0.65625 
Q 49.8125 -1.421875 42 -1.421875 
Q 24.90625 -1.421875 15.25 8.5625 
Q 5.609375 18.5625 5.609375 36.375 
Q 5.609375 54.25 15.25 64.234375 
Q 24.90625 74.21875 42 74.21875 
Q 49.125 74.21875 55.546875 72.453125 
Q 61.96875 70.703125 67.390625 67.28125 
L 67.390625 56.78125 
Q 61.921875 61.421875 55.765625 63.765625 
Q 49.609375 66.109375 42.828125 66.109375 
Q 29.4375 66.109375 22.71875 58.640625 
Q 16.015625 51.171875 16.015625 36.375 
Q 16.015625 21.625 22.71875 14.15625 
Q 29.4375 6.6875 42.828125 6.6875 
Q 48.046875 6.6875 52.140625 7.59375 
Q 56.25 8.5 59.515625 10.40625 
z
" id="DejaVuSans-71"/>
      <path d="M 34.1875 63.1875 
L 20.796875 26.90625 
L 47.609375 26.90625 
z
M 28.609375 72.90625 
L 39.796875 72.90625 
L 67.578125 0 
L 57.328125 0 
L 50.6875 18.703125 
L 17.828125 18.703125 
L 11.1875 0 
L 0.78125 0 
z
" id="DejaVuSans-65"/>
      <path d="M 9.8125 72.90625 
L 19.671875 72.90625 
L 19.671875 0 
L 9.8125 0 
z
" id="DejaVuSans-73"/>
      <path d="M 9.8125 72.90625 
L 24.515625 72.90625 
L 43.109375 23.296875 
L 61.8125 72.90625 
L 76.515625 72.90625 
L 76.515625 0 
L 66.890625 0 
L 66.890625 64.015625 
L 48.09375 14.015625 
L 38.1875 14.015625 
L 19.390625 64.015625 
L 19.390625 0 
L 9.8125 0 
z
" id="DejaVuSans-77"/>
     </defs>
     <use xlink:href="#DejaVuSans-78"/>
     <use x="74.804688" xlink:href="#DejaVuSans-83"/>
     <use x="138.28125" xlink:href="#DejaVuSans-71"/>
     <use x="215.771484" xlink:href="#DejaVuSans-65"/>
     <use x="281.929688" xlink:href="#DejaVuSans-45"/>
     <use x="318.013672" xlink:href="#DejaVuSans-73"/>
     <use x="347.505859" xlink:href="#DejaVuSans-73"/>
     <use x="376.998047" xlink:href="#DejaVuSans-45"/>
     <use x="413.082031" xlink:href="#DejaVuSans-77"/>
    </g>
   </g>
   <g id="text_14">
    <!-- SMS-EMOA- -->
    <g transform="translate(375.22944 212.307571)scale(0.17 -0.17)">
     <defs>
      <path d="M 9.8125 72.90625 
L 55.90625 72.90625 
L 55.90625 64.59375 
L 19.671875 64.59375 
L 19.671875 43.015625 
L 54.390625 43.015625 
L 54.390625 34.71875 
L 19.671875 34.71875 
L 19.671875 8.296875 
L 56.78125 8.296875 
L 56.78125 0 
L 9.8125 0 
z
" id="DejaVuSans-69"/>
      <path d="M 39.40625 66.21875 
Q 28.65625 66.21875 22.328125 58.203125 
Q 16.015625 50.203125 16.015625 36.375 
Q 16.015625 22.609375 22.328125 14.59375 
Q 28.65625 6.59375 39.40625 6.59375 
Q 50.140625 6.59375 56.421875 14.59375 
Q 62.703125 22.609375 62.703125 36.375 
Q 62.703125 50.203125 56.421875 58.203125 
Q 50.140625 66.21875 39.40625 66.21875 
z
M 39.40625 74.21875 
Q 54.734375 74.21875 63.90625 63.9375 
Q 73.09375 53.65625 73.09375 36.375 
Q 73.09375 19.140625 63.90625 8.859375 
Q 54.734375 -1.421875 39.40625 -1.421875 
Q 24.03125 -1.421875 14.8125 8.828125 
Q 5.609375 19.09375 5.609375 36.375 
Q 5.609375 53.65625 14.8125 63.9375 
Q 24.03125 74.21875 39.40625 74.21875 
z
" id="DejaVuSans-79"/>
     </defs>
     <use xlink:href="#DejaVuSans-83"/>
     <use x="63.476562" xlink:href="#DejaVuSans-77"/>
     <use x="149.755859" xlink:href="#DejaVuSans-83"/>
     <use x="213.232422" xlink:href="#DejaVuSans-45"/>
     <use x="249.316406" xlink:href="#DejaVuSans-69"/>
     <use x="312.5" xlink:href="#DejaVuSans-77"/>
     <use x="398.779297" xlink:href="#DejaVuSans-79"/>
     <use x="475.740234" xlink:href="#DejaVuSans-65"/>
     <use x="541.898438" xlink:href="#DejaVuSans-45"/>
    </g>
   </g>
   <g id="text_15">
    <!-- COMO-100  -->
    <g transform="translate(375.22944 126.352403)scale(0.17 -0.17)">
     <defs>
      <path d="M 64.40625 67.28125 
L 64.40625 56.890625 
Q 59.421875 61.53125 53.78125 63.8125 
Q 48.140625 66.109375 41.796875 66.109375 
Q 29.296875 66.109375 22.65625 58.46875 
Q 16.015625 50.828125 16.015625 36.375 
Q 16.015625 21.96875 22.65625 14.328125 
Q 29.296875 6.6875 41.796875 6.6875 
Q 48.140625 6.6875 53.78125 8.984375 
Q 59.421875 11.28125 64.40625 15.921875 
L 64.40625 5.609375 
Q 59.234375 2.09375 53.4375 0.328125 
Q 47.65625 -1.421875 41.21875 -1.421875 
Q 24.65625 -1.421875 15.125 8.703125 
Q 5.609375 18.84375 5.609375 36.375 
Q 5.609375 53.953125 15.125 64.078125 
Q 24.65625 74.21875 41.21875 74.21875 
Q 47.75 74.21875 53.53125 72.484375 
Q 59.328125 70.75 64.40625 67.28125 
z
" id="DejaVuSans-67"/>
     </defs>
     <use xlink:href="#DejaVuSans-67"/>
     <use x="69.824219" xlink:href="#DejaVuSans-79"/>
     <use x="148.535156" xlink:href="#DejaVuSans-77"/>
     <use x="234.814453" xlink:href="#DejaVuSans-79"/>
     <use x="316.275391" xlink:href="#DejaVuSans-45"/>
     <use x="352.359375" xlink:href="#DejaVuSans-49"/>
     <use x="415.982422" xlink:href="#DejaVuSans-48"/>
     <use x="479.605469" xlink:href="#DejaVuSans-48"/>
     <use x="543.228516" xlink:href="#DejaVuSans-32"/>
    </g>
   </g>
   <g id="text_16">
    <!-- best 2016 -->
    <g transform="translate(375.22944 40.397235)scale(0.17 -0.17)">
     <defs>
      <path d="M 48.6875 27.296875 
Q 48.6875 37.203125 44.609375 42.84375 
Q 40.53125 48.484375 33.40625 48.484375 
Q 26.265625 48.484375 22.1875 42.84375 
Q 18.109375 37.203125 18.109375 27.296875 
Q 18.109375 17.390625 22.1875 11.75 
Q 26.265625 6.109375 33.40625 6.109375 
Q 40.53125 6.109375 44.609375 11.75 
Q 48.6875 17.390625 48.6875 27.296875 
z
M 18.109375 46.390625 
Q 20.953125 51.265625 25.265625 53.625 
Q 29.59375 56 35.59375 56 
Q 45.5625 56 51.78125 48.09375 
Q 58.015625 40.1875 58.015625 27.296875 
Q 58.015625 14.40625 51.78125 6.484375 
Q 45.5625 -1.421875 35.59375 -1.421875 
Q 29.59375 -1.421875 25.265625 0.953125 
Q 20.953125 3.328125 18.109375 8.203125 
L 18.109375 0 
L 9.078125 0 
L 9.078125 75.984375 
L 18.109375 75.984375 
z
" id="DejaVuSans-98"/>
     </defs>
     <use xlink:href="#DejaVuSans-98"/>
     <use x="63.476562" xlink:href="#DejaVuSans-101"/>
     <use x="125" xlink:href="#DejaVuSans-115"/>
     <use x="177.099609" xlink:href="#DejaVuSans-116"/>
     <use x="216.308594" xlink:href="#DejaVuSans-32"/>
     <use x="248.095703" xlink:href="#DejaVuSans-50"/>
     <use x="311.71875" xlink:href="#DejaVuSans-48"/>
     <use x="375.341797" xlink:href="#DejaVuSans-49"/>
     <use x="438.964844" xlink:href="#DejaVuSans-54"/>
    </g>
   </g>
   <g id="text_17">
    <!-- bbob-biobj f12, 20-D -->
    <g transform="translate(60.41088 38.111366)scale(0.102 -0.102)">
     <defs>
      <path d="M 9.421875 54.6875 
L 18.40625 54.6875 
L 18.40625 -0.984375 
Q 18.40625 -11.421875 14.421875 -16.109375 
Q 10.453125 -20.796875 1.609375 -20.796875 
L -1.8125 -20.796875 
L -1.8125 -13.1875 
L 0.59375 -13.1875 
Q 5.71875 -13.1875 7.5625 -10.8125 
Q 9.421875 -8.453125 9.421875 -0.984375 
z
M 9.421875 75.984375 
L 18.40625 75.984375 
L 18.40625 64.59375 
L 9.421875 64.59375 
z
" id="DejaVuSans-106"/>
      <path d="M 19.671875 64.796875 
L 19.671875 8.109375 
L 31.59375 8.109375 
Q 46.6875 8.109375 53.6875 14.9375 
Q 60.6875 21.78125 60.6875 36.53125 
Q 60.6875 51.171875 53.6875 57.984375 
Q 46.6875 64.796875 31.59375 64.796875 
z
M 9.8125 72.90625 
L 30.078125 72.90625 
Q 51.265625 72.90625 61.171875 64.09375 
Q 71.09375 55.28125 71.09375 36.53125 
Q 71.09375 17.671875 61.125 8.828125 
Q 51.171875 0 30.078125 0 
L 9.8125 0 
z
" id="DejaVuSans-68"/>
     </defs>
     <use xlink:href="#DejaVuSans-98"/>
     <use x="63.476562" xlink:href="#DejaVuSans-98"/>
     <use x="126.953125" xlink:href="#DejaVuSans-111"/>
     <use x="188.134766" xlink:href="#DejaVuSans-98"/>
     <use x="251.611328" xlink:href="#DejaVuSans-45"/>
     <use x="287.695312" xlink:href="#DejaVuSans-98"/>
     <use x="351.171875" xlink:href="#DejaVuSans-105"/>
     <use x="378.955078" xlink:href="#DejaVuSans-111"/>
     <use x="440.136719" xlink:href="#DejaVuSans-98"/>
     <use x="503.613281" xlink:href="#DejaVuSans-106"/>
     <use x="531.396484" xlink:href="#DejaVuSans-32"/>
     <use x="563.183594" xlink:href="#DejaVuSans-102"/>
     <use x="598.388672" xlink:href="#DejaVuSans-49"/>
     <use x="662.011719" xlink:href="#DejaVuSans-50"/>
     <use x="725.634766" xlink:href="#DejaVuSans-44"/>
     <use x="757.421875" xlink:href="#DejaVuSans-32"/>
     <use x="789.208984" xlink:href="#DejaVuSans-50"/>
     <use x="852.832031" xlink:href="#DejaVuSans-48"/>
     <use x="916.455078" xlink:href="#DejaVuSans-45"/>
     <use x="952.539062" xlink:href="#DejaVuSans-68"/>
    </g>
    <!-- 58 targets: 1..-1.0e-4 -->
    <g transform="translate(60.41088 49.533135)scale(0.102 -0.102)">
     <defs>
      <path d="M 10.796875 72.90625 
L 49.515625 72.90625 
L 49.515625 64.59375 
L 19.828125 64.59375 
L 19.828125 46.734375 
Q 21.96875 47.46875 24.109375 47.828125 
Q 26.265625 48.1875 28.421875 48.1875 
Q 40.625 48.1875 47.75 41.5 
Q 54.890625 34.8125 54.890625 23.390625 
Q 54.890625 11.625 47.5625 5.09375 
Q 40.234375 -1.421875 26.90625 -1.421875 
Q 22.3125 -1.421875 17.546875 -0.640625 
Q 12.796875 0.140625 7.71875 1.703125 
L 7.71875 11.625 
Q 12.109375 9.234375 16.796875 8.0625 
Q 21.484375 6.890625 26.703125 6.890625 
Q 35.15625 6.890625 40.078125 11.328125 
Q 45.015625 15.765625 45.015625 23.390625 
Q 45.015625 31 40.078125 35.4375 
Q 35.15625 39.890625 26.703125 39.890625 
Q 22.75 39.890625 18.8125 39.015625 
Q 14.890625 38.140625 10.796875 36.28125 
z
" id="DejaVuSans-53"/>
      <path d="M 11.71875 12.40625 
L 22.015625 12.40625 
L 22.015625 0 
L 11.71875 0 
z
M 11.71875 51.703125 
L 22.015625 51.703125 
L 22.015625 39.3125 
L 11.71875 39.3125 
z
" id="DejaVuSans-58"/>
     </defs>
     <use xlink:href="#DejaVuSans-53"/>
     <use x="63.623047" xlink:href="#DejaVuSans-56"/>
     <use x="127.246094" xlink:href="#DejaVuSans-32"/>
     <use x="159.033203" xlink:href="#DejaVuSans-116"/>
     <use x="198.242188" xlink:href="#DejaVuSans-97"/>
     <use x="259.521484" xlink:href="#DejaVuSans-114"/>
     <use x="298.884766" xlink:href="#DejaVuSans-103"/>
     <use x="362.361328" xlink:href="#DejaVuSans-101"/>
     <use x="423.884766" xlink:href="#DejaVuSans-116"/>
     <use x="463.09375" xlink:href="#DejaVuSans-115"/>
     <use x="515.193359" xlink:href="#DejaVuSans-58"/>
     <use x="548.884766" xlink:href="#DejaVuSans-32"/>
     <use x="580.671875" xlink:href="#DejaVuSans-49"/>
     <use x="644.294922" xlink:href="#DejaVuSans-46"/>
     <use x="676.082031" xlink:href="#DejaVuSans-46"/>
     <use x="707.869141" xlink:href="#DejaVuSans-45"/>
     <use x="743.953125" xlink:href="#DejaVuSans-49"/>
     <use x="807.576172" xlink:href="#DejaVuSans-46"/>
     <use x="839.363281" xlink:href="#DejaVuSans-48"/>
     <use x="902.986328" xlink:href="#DejaVuSans-101"/>
     <use x="964.509766" xlink:href="#DejaVuSans-45"/>
     <use x="1000.59375" xlink:href="#DejaVuSans-52"/>
    </g>
    <!-- 10 instances -->
    <g transform="translate(60.41088 60.954904)scale(0.102 -0.102)">
     <use xlink:href="#DejaVuSans-49"/>
     <use x="63.623047" xlink:href="#DejaVuSans-48"/>
     <use x="127.246094" xlink:href="#DejaVuSans-32"/>
     <use x="159.033203" xlink:href="#DejaVuSans-105"/>
     <use x="186.816406" xlink:href="#DejaVuSans-110"/>
     <use x="250.195312" xlink:href="#DejaVuSans-115"/>
     <use x="302.294922" xlink:href="#DejaVuSans-116"/>
     <use x="341.503906" xlink:href="#DejaVuSans-97"/>
     <use x="402.783203" xlink:href="#DejaVuSans-110"/>
     <use x="466.162109" xlink:href="#DejaVuSans-99"/>
     <use x="521.142578" xlink:href="#DejaVuSans-101"/>
     <use x="582.666016" xlink:href="#DejaVuSans-115"/>
    </g>
   </g>
   <g id="text_18">
    <!-- v2.4.19, hv-hash=ff0e71e8cd978373 -->
    <g style="fill:#808080;" transform="translate(104.697125 294.151352)scale(0.1 -0.1)">
     <defs>
      <path d="M 10.984375 1.515625 
L 10.984375 10.5 
Q 14.703125 8.734375 18.5 7.8125 
Q 22.3125 6.890625 25.984375 6.890625 
Q 35.75 6.890625 40.890625 13.453125 
Q 46.046875 20.015625 46.78125 33.40625 
Q 43.953125 29.203125 39.59375 26.953125 
Q 35.25 24.703125 29.984375 24.703125 
Q 19.046875 24.703125 12.671875 31.3125 
Q 6.296875 37.9375 6.296875 49.421875 
Q 6.296875 60.640625 12.9375 67.421875 
Q 19.578125 74.21875 30.609375 74.21875 
Q 43.265625 74.21875 49.921875 64.515625 
Q 56.59375 54.828125 56.59375 36.375 
Q 56.59375 19.140625 48.40625 8.859375 
Q 40.234375 -1.421875 26.421875 -1.421875 
Q 22.703125 -1.421875 18.890625 -0.6875 
Q 15.09375 0.046875 10.984375 1.515625 
z
M 30.609375 32.421875 
Q 37.25 32.421875 41.125 36.953125 
Q 45.015625 41.5 45.015625 49.421875 
Q 45.015625 57.28125 41.125 61.84375 
Q 37.25 66.40625 30.609375 66.40625 
Q 23.96875 66.40625 20.09375 61.84375 
Q 16.21875 57.28125 16.21875 49.421875 
Q 16.21875 41.5 20.09375 36.953125 
Q 23.96875 32.421875 30.609375 32.421875 
z
" id="DejaVuSans-57"/>
      <path d="M 54.890625 33.015625 
L 54.890625 0 
L 45.90625 0 
L 45.90625 32.71875 
Q 45.90625 40.484375 42.875 44.328125 
Q 39.84375 48.1875 33.796875 48.1875 
Q 26.515625 48.1875 22.3125 43.546875 
Q 18.109375 38.921875 18.109375 30.90625 
L 18.109375 0 
L 9.078125 0 
L 9.078125 75.984375 
L 18.109375 75.984375 
L 18.109375 46.1875 
Q 21.34375 51.125 25.703125 53.5625 
Q 30.078125 56 35.796875 56 
Q 45.21875 56 50.046875 50.171875 
Q 54.890625 44.34375 54.890625 33.015625 
z
" id="DejaVuSans-104"/>
      <path d="M 10.59375 45.40625 
L 73.1875 45.40625 
L 73.1875 37.203125 
L 10.59375 37.203125 
z
M 10.59375 25.484375 
L 73.1875 25.484375 
L 73.1875 17.1875 
L 10.59375 17.1875 
z
" id="DejaVuSans-61"/>
      <path d="M 8.203125 72.90625 
L 55.078125 72.90625 
L 55.078125 68.703125 
L 28.609375 0 
L 18.3125 0 
L 43.21875 64.59375 
L 8.203125 64.59375 
z
" id="DejaVuSans-55"/>
      <path d="M 40.578125 39.3125 
Q 47.65625 37.796875 51.625 33 
Q 55.609375 28.21875 55.609375 21.1875 
Q 55.609375 10.40625 48.1875 4.484375 
Q 40.765625 -1.421875 27.09375 -1.421875 
Q 22.515625 -1.421875 17.65625 -0.515625 
Q 12.796875 0.390625 7.625 2.203125 
L 7.625 11.71875 
Q 11.71875 9.328125 16.59375 8.109375 
Q 21.484375 6.890625 26.8125 6.890625 
Q 36.078125 6.890625 40.9375 10.546875 
Q 45.796875 14.203125 45.796875 21.1875 
Q 45.796875 27.640625 41.28125 31.265625 
Q 36.765625 34.90625 28.71875 34.90625 
L 20.21875 34.90625 
L 20.21875 43.015625 
L 29.109375 43.015625 
Q 36.375 43.015625 40.234375 45.921875 
Q 44.09375 48.828125 44.09375 54.296875 
Q 44.09375 59.90625 40.109375 62.90625 
Q 36.140625 65.921875 28.71875 65.921875 
Q 24.65625 65.921875 20.015625 65.03125 
Q 15.375 64.15625 9.8125 62.3125 
L 9.8125 71.09375 
Q 15.4375 72.65625 20.34375 73.4375 
Q 25.25 74.21875 29.59375 74.21875 
Q 40.828125 74.21875 47.359375 69.109375 
Q 53.90625 64.015625 53.90625 55.328125 
Q 53.90625 49.265625 50.4375 45.09375 
Q 46.96875 40.921875 40.578125 39.3125 
z
" id="DejaVuSans-51"/>
     </defs>
     <use xlink:href="#DejaVuSans-118"/>
     <use x="59.179688" xlink:href="#DejaVuSans-50"/>
     <use x="122.802734" xlink:href="#DejaVuSans-46"/>
     <use x="154.589844" xlink:href="#DejaVuSans-52"/>
     <use x="218.212891" xlink:href="#DejaVuSans-46"/>
     <use x="250" xlink:href="#DejaVuSans-49"/>
     <use x="313.623047" xlink:href="#DejaVuSans-57"/>
     <use x="377.246094" xlink:href="#DejaVuSans-44"/>
     <use x="409.033203" xlink:href="#DejaVuSans-32"/>
     <use x="440.820312" xlink:href="#DejaVuSans-104"/>
     <use x="504.199219" xlink:href="#DejaVuSans-118"/>
     <use x="560.753906" xlink:href="#DejaVuSans-45"/>
     <use x="596.837891" xlink:href="#DejaVuSans-104"/>
     <use x="660.216797" xlink:href="#DejaVuSans-97"/>
     <use x="721.496094" xlink:href="#DejaVuSans-115"/>
     <use x="773.595703" xlink:href="#DejaVuSans-104"/>
     <use x="836.974609" xlink:href="#DejaVuSans-61"/>
     <use x="920.763672" xlink:href="#DejaVuSans-102"/>
     <use x="955.96875" xlink:href="#DejaVuSans-102"/>
     <use x="991.173828" xlink:href="#DejaVuSans-48"/>
     <use x="1054.796875" xlink:href="#DejaVuSans-101"/>
     <use x="1116.320312" xlink:href="#DejaVuSans-55"/>
     <use x="1179.943359" xlink:href="#DejaVuSans-49"/>
     <use x="1243.566406" xlink:href="#DejaVuSans-101"/>
     <use x="1305.089844" xlink:href="#DejaVuSans-56"/>
     <use x="1368.712891" xlink:href="#DejaVuSans-99"/>
     <use x="1423.693359" xlink:href="#DejaVuSans-100"/>
     <use x="1487.169922" xlink:href="#DejaVuSans-57"/>
     <use x="1550.792969" xlink:href="#DejaVuSans-55"/>
     <use x="1614.416016" xlink:href="#DejaVuSans-56"/>
     <use x="1678.039062" xlink:href="#DejaVuSans-51"/>
     <use x="1741.662109" xlink:href="#DejaVuSans-55"/>
     <use x="1805.285156" xlink:href="#DejaVuSans-51"/>
    </g>
   </g>
   <g id="text_19">
    <!-- 12 sep. Ellipsoid/Attr. sector -->
    <g transform="translate(58.276812 21.648)scale(0.2 -0.2)">
     <use xlink:href="#DejaVuSans-49"/>
     <use x="63.623047" xlink:href="#DejaVuSans-50"/>
     <use x="127.246094" xlink:href="#DejaVuSans-32"/>
     <use x="159.033203" xlink:href="#DejaVuSans-115"/>
     <use x="211.132812" xlink:href="#DejaVuSans-101"/>
     <use x="272.65625" xlink:href="#DejaVuSans-112"/>
     <use x="336.132812" xlink:href="#DejaVuSans-46"/>
     <use x="367.919922" xlink:href="#DejaVuSans-32"/>
     <use x="399.707031" xlink:href="#DejaVuSans-69"/>
     <use x="462.890625" xlink:href="#DejaVuSans-108"/>
     <use x="490.673828" xlink:href="#DejaVuSans-108"/>
     <use x="518.457031" xlink:href="#DejaVuSans-105"/>
     <use x="546.240234" xlink:href="#DejaVuSans-112"/>
     <use x="609.716797" xlink:href="#DejaVuSans-115"/>
     <use x="661.816406" xlink:href="#DejaVuSans-111"/>
     <use x="722.998047" xlink:href="#DejaVuSans-105"/>
     <use x="750.78125" xlink:href="#DejaVuSans-100"/>
     <use x="814.257812" xlink:href="#DejaVuSans-47"/>
     <use x="847.949219" xlink:href="#DejaVuSans-65"/>
     <use x="914.607422" xlink:href="#DejaVuSans-116"/>
     <use x="953.816406" xlink:href="#DejaVuSans-116"/>
     <use x="993.025391" xlink:href="#DejaVuSans-114"/>
     <use x="1025.013672" xlink:href="#DejaVuSans-46"/>
     <use x="1056.800781" xlink:href="#DejaVuSans-32"/>
     <use x="1088.587891" xlink:href="#DejaVuSans-115"/>
     <use x="1140.6875" xlink:href="#DejaVuSans-101"/>
     <use x="1202.210938" xlink:href="#DejaVuSans-99"/>
     <use x="1257.191406" xlink:href="#DejaVuSans-116"/>
     <use x="1296.400391" xlink:href="#DejaVuSans-111"/>
     <use x="1357.582031" xlink:href="#DejaVuSans-114"/>
    </g>
   </g>
  </g>
 </g>
 <defs>
  <clipPath id="pdb9feb76e5">
   <rect height="271.296" width="281.088" x="57.6" y="27.648"/>
  </clipPath>
 </defs>
</svg>
