<?xml version="1.0" encoding="utf-8" standalone="no"?>
<!DOCTYPE svg PUBLIC "-//W3C//DTD SVG 1.1//EN"
  "http://www.w3.org/Graphics/SVG/1.1/DTD/svg11.dtd">
<!-- Created with matplotlib (https://matplotlib.org/) -->
<svg height="345.6pt" version="1.1" viewBox="0 0 460.8 345.6" width="460.8pt" xmlns="http://www.w3.org/2000/svg" xmlns:xlink="http://www.w3.org/1999/xlink">
 <metadata>
  <rdf:RDF xmlns:cc="http://creativecommons.org/ns#" xmlns:dc="http://purl.org/dc/elements/1.1/" xmlns:rdf="http://www.w3.org/1999/02/22-rdf-syntax-ns#">
   <cc:Work>
    <dc:type rdf:resource="http://purl.org/dc/dcmitype/StillImage"/>
    <dc:date>2021-04-26T15:06:28.957469</dc:date>
    <dc:format>image/svg+xml</dc:format>
    <dc:creator>
     <cc:Agent>
      <dc:title>Matplotlib v3.3.2, https://matplotlib.org/</dc:title>
     </cc:Agent>
    </dc:creator>
   </cc:Work>
  </rdf:RDF>
 </metadata>
 <defs>
  <style type="text/css">*{stroke-linecap:butt;stroke-linejoin:round;}</style>
 </defs>
 <g id="figure_1">
  <g id="patch_1">
   <path d="M 0 345.6 
L 460.8 345.6 
L 460.8 0 
L 0 0 
z
" style="fill:#ffffff;"/>
  </g>
  <g id="axes_1">
   <g id="patch_2">
    <path d="M 57.6 298.944 
L 338.688 298.944 
L 338.688 27.648 
L 57.6 27.648 
z
" style="fill:#ffffff;"/>
   </g>
   <g id="line2d_1">
    <path d="M 53.708537 298.944 
L 53.708537 294.312795 
L 75.555822 294.312795 
L 75.555822 285.050384 
L 91.029752 285.050384 
L 91.029752 275.787974 
L 106.382575 275.787974 
L 106.382575 271.156769 
L 123.029641 271.156769 
L 123.029641 257.263153 
L 146.452726 257.263153 
L 146.452726 248.000743 
L 155.322646 248.000743 
L 155.322646 243.369538 
L 167.754214 243.369538 
L 167.754214 234.107127 
L 173.55351 234.107127 
L 173.55351 220.213512 
L 175.40763 220.213512 
L 175.40763 210.951101 
L 180.442869 210.951101 
L 180.442869 201.688691 
L 210.295966 201.688691 
L 210.295966 192.426281 
L 215.204353 192.426281 
L 215.204353 187.795075 
L 218.069681 187.795075 
L 218.069681 173.90146 
L 218.844887 173.90146 
L 218.844887 169.270255 
L 219.451434 169.270255 
L 219.451434 155.376639 
L 220.15131 155.376639 
L 220.15131 146.114229 
L 221.33225 146.114229 
L 221.33225 141.483024 
L 223.054426 141.483024 
L 223.054426 127.589408 
L 225.310862 127.589408 
L 225.310862 122.958203 
L 228.682231 122.958203 
L 228.682231 109.064587 
L 232.813194 109.064587 
L 232.813194 99.802177 
L 237.731081 99.802177 
L 237.731081 90.539766 
L 241.964571 90.539766 
L 241.964571 85.908561 
L 246.954143 85.908561 
L 246.954143 76.646151 
L 252.360878 76.646151 
L 252.360878 62.752535 
L 338.688 62.752535 
" style="fill:none;stroke:#f5deb3;stroke-linecap:square;stroke-width:4;"/>
   </g>
   <g id="line2d_2">
    <defs>
     <path d="M 0 7.778175 
L 7.778175 0 
L 0 -7.778175 
L -7.778175 0 
z
" id="m82cbf40f1b" style="stroke:#f5deb3;stroke-linejoin:miter;stroke-width:1.5;"/>
    </defs>
    <g>
     <use style="fill:#f5deb3;stroke:#f5deb3;stroke-linejoin:miter;stroke-width:1.5;" x="155.322646" xlink:href="#m82cbf40f1b" y="243.369538"/>
     <use style="fill:#f5deb3;stroke:#f5deb3;stroke-linejoin:miter;stroke-width:1.5;" x="215.204353" xlink:href="#m82cbf40f1b" y="187.795075"/>
     <use style="fill:#f5deb3;stroke:#f5deb3;stroke-linejoin:miter;stroke-width:1.5;" x="232.813194" xlink:href="#m82cbf40f1b" y="109.064587"/>
     <use style="fill:#f5deb3;stroke:#f5deb3;stroke-linejoin:miter;stroke-width:1.5;" x="252.360878" xlink:href="#m82cbf40f1b" y="62.752535"/>
     <use style="fill:#f5deb3;stroke:#f5deb3;stroke-linejoin:miter;stroke-width:1.5;" x="252.360878" xlink:href="#m82cbf40f1b" y="62.752535"/>
     <use style="fill:#f5deb3;stroke:#f5deb3;stroke-linejoin:miter;stroke-width:1.5;" x="338.688" xlink:href="#m82cbf40f1b" y="62.752535"/>
    </g>
   </g>
   <g id="line2d_3">
    <path style="fill:none;stroke:#f5deb3;stroke-linecap:square;stroke-width:4;"/>
    <g/>
   </g>
   <g id="line2d_4">
    <path d="M 338.688 62.752535 
L 369.60768 35.706297 
" style="fill:none;stroke:#f5deb3;stroke-linecap:square;stroke-width:4;"/>
    <g>
     <use style="fill:#f5deb3;stroke:#f5deb3;stroke-linejoin:miter;stroke-width:1.5;" x="338.688" xlink:href="#m82cbf40f1b" y="62.752535"/>
     <use style="fill:#f5deb3;stroke:#f5deb3;stroke-linejoin:miter;stroke-width:1.5;" x="369.60768" xlink:href="#m82cbf40f1b" y="35.706297"/>
    </g>
   </g>
   <g id="matplotlib.axis_1">
    <g id="xtick_1">
     <g id="line2d_5">
      <path clip-path="url(#p7ee5c9ad41)" d="M 57.6 298.944 
L 57.6 27.648 
" style="fill:none;stroke:#b0b0b0;stroke-linecap:square;stroke-width:0.8;"/>
     </g>
     <g id="line2d_6">
      <defs>
       <path d="M 0 0 
L 0 3.5 
" id="m86ab39d673" style="stroke:#000000;stroke-width:0.8;"/>
      </defs>
      <g>
       <use style="stroke:#000000;stroke-width:0.8;" x="57.6" xlink:href="#m86ab39d673" y="298.944"/>
      </g>
     </g>
     <g id="text_1">
      <!-- 0 -->
      <g transform="translate(51.2375 321.140875)scale(0.2 -0.2)">
       <defs>
        <path d="M 31.78125 66.40625 
Q 24.171875 66.40625 20.328125 58.90625 
Q 16.5 51.421875 16.5 36.375 
Q 16.5 21.390625 20.328125 13.890625 
Q 24.171875 6.390625 31.78125 6.390625 
Q 39.453125 6.390625 43.28125 13.890625 
Q 47.125 21.390625 47.125 36.375 
Q 47.125 51.421875 43.28125 58.90625 
Q 39.453125 66.40625 31.78125 66.40625 
z
M 31.78125 74.21875 
Q 44.046875 74.21875 50.515625 64.515625 
Q 56.984375 54.828125 56.984375 36.375 
Q 56.984375 17.96875 50.515625 8.265625 
Q 44.046875 -1.421875 31.78125 -1.421875 
Q 19.53125 -1.421875 13.0625 8.265625 
Q 6.59375 17.96875 6.59375 36.375 
Q 6.59375 54.828125 13.0625 64.515625 
Q 19.53125 74.21875 31.78125 74.21875 
z
" id="DejaVuSans-48"/>
       </defs>
       <use xlink:href="#DejaVuSans-48"/>
      </g>
     </g>
    </g>
    <g id="xtick_2">
     <g id="line2d_7">
      <path clip-path="url(#p7ee5c9ad41)" d="M 137.910857 298.944 
L 137.910857 27.648 
" style="fill:none;stroke:#b0b0b0;stroke-linecap:square;stroke-width:0.8;"/>
     </g>
     <g id="line2d_8">
      <g>
       <use style="stroke:#000000;stroke-width:0.8;" x="137.910857" xlink:href="#m86ab39d673" y="298.944"/>
      </g>
     </g>
     <g id="text_2">
      <!-- 2 -->
      <g transform="translate(131.548357 321.140875)scale(0.2 -0.2)">
       <defs>
        <path d="M 19.1875 8.296875 
L 53.609375 8.296875 
L 53.609375 0 
L 7.328125 0 
L 7.328125 8.296875 
Q 12.9375 14.109375 22.625 23.890625 
Q 32.328125 33.6875 34.8125 36.53125 
Q 39.546875 41.84375 41.421875 45.53125 
Q 43.3125 49.21875 43.3125 52.78125 
Q 43.3125 58.59375 39.234375 62.25 
Q 35.15625 65.921875 28.609375 65.921875 
Q 23.96875 65.921875 18.8125 64.3125 
Q 13.671875 62.703125 7.8125 59.421875 
L 7.8125 69.390625 
Q 13.765625 71.78125 18.9375 73 
Q 24.125 74.21875 28.421875 74.21875 
Q 39.75 74.21875 46.484375 68.546875 
Q 53.21875 62.890625 53.21875 53.421875 
Q 53.21875 48.921875 51.53125 44.890625 
Q 49.859375 40.875 45.40625 35.40625 
Q 44.1875 33.984375 37.640625 27.21875 
Q 31.109375 20.453125 19.1875 8.296875 
z
" id="DejaVuSans-50"/>
       </defs>
       <use xlink:href="#DejaVuSans-50"/>
      </g>
     </g>
    </g>
    <g id="xtick_3">
     <g id="line2d_9">
      <path clip-path="url(#p7ee5c9ad41)" d="M 218.221714 298.944 
L 218.221714 27.648 
" style="fill:none;stroke:#b0b0b0;stroke-linecap:square;stroke-width:0.8;"/>
     </g>
     <g id="line2d_10">
      <g>
       <use style="stroke:#000000;stroke-width:0.8;" x="218.221714" xlink:href="#m86ab39d673" y="298.944"/>
      </g>
     </g>
     <g id="text_3">
      <!-- 4 -->
      <g transform="translate(211.859214 321.140875)scale(0.2 -0.2)">
       <defs>
        <path d="M 37.796875 64.3125 
L 12.890625 25.390625 
L 37.796875 25.390625 
z
M 35.203125 72.90625 
L 47.609375 72.90625 
L 47.609375 25.390625 
L 58.015625 25.390625 
L 58.015625 17.1875 
L 47.609375 17.1875 
L 47.609375 0 
L 37.796875 0 
L 37.796875 17.1875 
L 4.890625 17.1875 
L 4.890625 26.703125 
z
" id="DejaVuSans-52"/>
       </defs>
       <use xlink:href="#DejaVuSans-52"/>
      </g>
     </g>
    </g>
    <g id="xtick_4">
     <g id="line2d_11">
      <path clip-path="url(#p7ee5c9ad41)" d="M 298.532571 298.944 
L 298.532571 27.648 
" style="fill:none;stroke:#b0b0b0;stroke-linecap:square;stroke-width:0.8;"/>
     </g>
     <g id="line2d_12">
      <g>
       <use style="stroke:#000000;stroke-width:0.8;" x="298.532571" xlink:href="#m86ab39d673" y="298.944"/>
      </g>
     </g>
     <g id="text_4">
      <!-- 6 -->
      <g transform="translate(292.170071 321.140875)scale(0.2 -0.2)">
       <defs>
        <path d="M 33.015625 40.375 
Q 26.375 40.375 22.484375 35.828125 
Q 18.609375 31.296875 18.609375 23.390625 
Q 18.609375 15.53125 22.484375 10.953125 
Q 26.375 6.390625 33.015625 6.390625 
Q 39.65625 6.390625 43.53125 10.953125 
Q 47.40625 15.53125 47.40625 23.390625 
Q 47.40625 31.296875 43.53125 35.828125 
Q 39.65625 40.375 33.015625 40.375 
z
M 52.59375 71.296875 
L 52.59375 62.3125 
Q 48.875 64.0625 45.09375 64.984375 
Q 41.3125 65.921875 37.59375 65.921875 
Q 27.828125 65.921875 22.671875 59.328125 
Q 17.53125 52.734375 16.796875 39.40625 
Q 19.671875 43.65625 24.015625 45.921875 
Q 28.375 48.1875 33.59375 48.1875 
Q 44.578125 48.1875 50.953125 41.515625 
Q 57.328125 34.859375 57.328125 23.390625 
Q 57.328125 12.15625 50.6875 5.359375 
Q 44.046875 -1.421875 33.015625 -1.421875 
Q 20.359375 -1.421875 13.671875 8.265625 
Q 6.984375 17.96875 6.984375 36.375 
Q 6.984375 53.65625 15.1875 63.9375 
Q 23.390625 74.21875 37.203125 74.21875 
Q 40.921875 74.21875 44.703125 73.484375 
Q 48.484375 72.75 52.59375 71.296875 
z
" id="DejaVuSans-54"/>
       </defs>
       <use xlink:href="#DejaVuSans-54"/>
      </g>
     </g>
    </g>
    <g id="xtick_5">
     <g id="line2d_13">
      <path clip-path="url(#p7ee5c9ad41)" d="M 97.755429 298.944 
L 97.755429 27.648 
" style="fill:none;stroke:#b0b0b0;stroke-linecap:square;stroke-width:0.8;"/>
     </g>
     <g id="line2d_14">
      <defs>
       <path d="M 0 0 
L 0 2 
" id="mf7ee726f02" style="stroke:#000000;stroke-width:0.6;"/>
      </defs>
      <g>
       <use style="stroke:#000000;stroke-width:0.6;" x="97.755429" xlink:href="#mf7ee726f02" y="298.944"/>
      </g>
     </g>
    </g>
    <g id="xtick_6">
     <g id="line2d_15">
      <path clip-path="url(#p7ee5c9ad41)" d="M 178.066286 298.944 
L 178.066286 27.648 
" style="fill:none;stroke:#b0b0b0;stroke-linecap:square;stroke-width:0.8;"/>
     </g>
     <g id="line2d_16">
      <g>
       <use style="stroke:#000000;stroke-width:0.6;" x="178.066286" xlink:href="#mf7ee726f02" y="298.944"/>
      </g>
     </g>
    </g>
    <g id="xtick_7">
     <g id="line2d_17">
      <path clip-path="url(#p7ee5c9ad41)" d="M 258.377143 298.944 
L 258.377143 27.648 
" style="fill:none;stroke:#b0b0b0;stroke-linecap:square;stroke-width:0.8;"/>
     </g>
     <g id="line2d_18">
      <g>
       <use style="stroke:#000000;stroke-width:0.6;" x="258.377143" xlink:href="#mf7ee726f02" y="298.944"/>
      </g>
     </g>
    </g>
    <g id="xtick_8">
     <g id="line2d_19">
      <path clip-path="url(#p7ee5c9ad41)" d="M 338.688 298.944 
L 338.688 27.648 
" style="fill:none;stroke:#b0b0b0;stroke-linecap:square;stroke-width:0.8;"/>
     </g>
     <g id="line2d_20">
      <g>
       <use style="stroke:#000000;stroke-width:0.6;" x="338.688" xlink:href="#mf7ee726f02" y="298.944"/>
      </g>
     </g>
    </g>
    <g id="text_5">
     <!-- log10(# f-evals / dimension) -->
     <g transform="translate(77.764078 342.217594)scale(0.17 -0.17)">
      <defs>
       <path d="M 9.421875 75.984375 
L 18.40625 75.984375 
L 18.40625 0 
L 9.421875 0 
z
" id="DejaVuSans-108"/>
       <path d="M 30.609375 48.390625 
Q 23.390625 48.390625 19.1875 42.75 
Q 14.984375 37.109375 14.984375 27.296875 
Q 14.984375 17.484375 19.15625 11.84375 
Q 23.34375 6.203125 30.609375 6.203125 
Q 37.796875 6.203125 41.984375 11.859375 
Q 46.1875 17.53125 46.1875 27.296875 
Q 46.1875 37.015625 41.984375 42.703125 
Q 37.796875 48.390625 30.609375 48.390625 
z
M 30.609375 56 
Q 42.328125 56 49.015625 48.375 
Q 55.71875 40.765625 55.71875 27.296875 
Q 55.71875 13.875 49.015625 6.21875 
Q 42.328125 -1.421875 30.609375 -1.421875 
Q 18.84375 -1.421875 12.171875 6.21875 
Q 5.515625 13.875 5.515625 27.296875 
Q 5.515625 40.765625 12.171875 48.375 
Q 18.84375 56 30.609375 56 
z
" id="DejaVuSans-111"/>
       <path d="M 45.40625 27.984375 
Q 45.40625 37.75 41.375 43.109375 
Q 37.359375 48.484375 30.078125 48.484375 
Q 22.859375 48.484375 18.828125 43.109375 
Q 14.796875 37.75 14.796875 27.984375 
Q 14.796875 18.265625 18.828125 12.890625 
Q 22.859375 7.515625 30.078125 7.515625 
Q 37.359375 7.515625 41.375 12.890625 
Q 45.40625 18.265625 45.40625 27.984375 
z
M 54.390625 6.78125 
Q 54.390625 -7.171875 48.1875 -13.984375 
Q 42 -20.796875 29.203125 -20.796875 
Q 24.46875 -20.796875 20.265625 -20.09375 
Q 16.0625 -19.390625 12.109375 -17.921875 
L 12.109375 -9.1875 
Q 16.0625 -11.328125 19.921875 -12.34375 
Q 23.78125 -13.375 27.78125 -13.375 
Q 36.625 -13.375 41.015625 -8.765625 
Q 45.40625 -4.15625 45.40625 5.171875 
L 45.40625 9.625 
Q 42.625 4.78125 38.28125 2.390625 
Q 33.9375 0 27.875 0 
Q 17.828125 0 11.671875 7.65625 
Q 5.515625 15.328125 5.515625 27.984375 
Q 5.515625 40.671875 11.671875 48.328125 
Q 17.828125 56 27.875 56 
Q 33.9375 56 38.28125 53.609375 
Q 42.625 51.21875 45.40625 46.390625 
L 45.40625 54.6875 
L 54.390625 54.6875 
z
" id="DejaVuSans-103"/>
       <path d="M 12.40625 8.296875 
L 28.515625 8.296875 
L 28.515625 63.921875 
L 10.984375 60.40625 
L 10.984375 69.390625 
L 28.421875 72.90625 
L 38.28125 72.90625 
L 38.28125 8.296875 
L 54.390625 8.296875 
L 54.390625 0 
L 12.40625 0 
z
" id="DejaVuSans-49"/>
       <path d="M 31 75.875 
Q 24.46875 64.65625 21.28125 53.65625 
Q 18.109375 42.671875 18.109375 31.390625 
Q 18.109375 20.125 21.3125 9.0625 
Q 24.515625 -2 31 -13.1875 
L 23.1875 -13.1875 
Q 15.875 -1.703125 12.234375 9.375 
Q 8.59375 20.453125 8.59375 31.390625 
Q 8.59375 42.28125 12.203125 53.3125 
Q 15.828125 64.359375 23.1875 75.875 
z
" id="DejaVuSans-40"/>
       <path d="M 51.125 44 
L 36.921875 44 
L 32.8125 27.6875 
L 47.125 27.6875 
z
M 43.796875 71.78125 
L 38.71875 51.515625 
L 52.984375 51.515625 
L 58.109375 71.78125 
L 65.921875 71.78125 
L 60.890625 51.515625 
L 76.125 51.515625 
L 76.125 44 
L 58.984375 44 
L 54.984375 27.6875 
L 70.515625 27.6875 
L 70.515625 20.21875 
L 53.078125 20.21875 
L 48 0 
L 40.1875 0 
L 45.21875 20.21875 
L 30.90625 20.21875 
L 25.875 0 
L 18.015625 0 
L 23.09375 20.21875 
L 7.71875 20.21875 
L 7.71875 27.6875 
L 24.90625 27.6875 
L 29 44 
L 13.28125 44 
L 13.28125 51.515625 
L 30.90625 51.515625 
L 35.890625 71.78125 
z
" id="DejaVuSans-35"/>
       <path id="DejaVuSans-32"/>
       <path d="M 37.109375 75.984375 
L 37.109375 68.5 
L 28.515625 68.5 
Q 23.6875 68.5 21.796875 66.546875 
Q 19.921875 64.59375 19.921875 59.515625 
L 19.921875 54.6875 
L 34.71875 54.6875 
L 34.71875 47.703125 
L 19.921875 47.703125 
L 19.921875 0 
L 10.890625 0 
L 10.890625 47.703125 
L 2.296875 47.703125 
L 2.296875 54.6875 
L 10.890625 54.6875 
L 10.890625 58.5 
Q 10.890625 67.625 15.140625 71.796875 
Q 19.390625 75.984375 28.609375 75.984375 
z
" id="DejaVuSans-102"/>
       <path d="M 4.890625 31.390625 
L 31.203125 31.390625 
L 31.203125 23.390625 
L 4.890625 23.390625 
z
" id="DejaVuSans-45"/>
       <path d="M 56.203125 29.59375 
L 56.203125 25.203125 
L 14.890625 25.203125 
Q 15.484375 15.921875 20.484375 11.0625 
Q 25.484375 6.203125 34.421875 6.203125 
Q 39.59375 6.203125 44.453125 7.46875 
Q 49.3125 8.734375 54.109375 11.28125 
L 54.109375 2.78125 
Q 49.265625 0.734375 44.1875 -0.34375 
Q 39.109375 -1.421875 33.890625 -1.421875 
Q 20.796875 -1.421875 13.15625 6.1875 
Q 5.515625 13.8125 5.515625 26.8125 
Q 5.515625 40.234375 12.765625 48.109375 
Q 20.015625 56 32.328125 56 
Q 43.359375 56 49.78125 48.890625 
Q 56.203125 41.796875 56.203125 29.59375 
z
M 47.21875 32.234375 
Q 47.125 39.59375 43.09375 43.984375 
Q 39.0625 48.390625 32.421875 48.390625 
Q 24.90625 48.390625 20.390625 44.140625 
Q 15.875 39.890625 15.1875 32.171875 
z
" id="DejaVuSans-101"/>
       <path d="M 2.984375 54.6875 
L 12.5 54.6875 
L 29.59375 8.796875 
L 46.6875 54.6875 
L 56.203125 54.6875 
L 35.6875 0 
L 23.484375 0 
z
" id="DejaVuSans-118"/>
       <path d="M 34.28125 27.484375 
Q 23.390625 27.484375 19.1875 25 
Q 14.984375 22.515625 14.984375 16.5 
Q 14.984375 11.71875 18.140625 8.90625 
Q 21.296875 6.109375 26.703125 6.109375 
Q 34.1875 6.109375 38.703125 11.40625 
Q 43.21875 16.703125 43.21875 25.484375 
L 43.21875 27.484375 
z
M 52.203125 31.203125 
L 52.203125 0 
L 43.21875 0 
L 43.21875 8.296875 
Q 40.140625 3.328125 35.546875 0.953125 
Q 30.953125 -1.421875 24.3125 -1.421875 
Q 15.921875 -1.421875 10.953125 3.296875 
Q 6 8.015625 6 15.921875 
Q 6 25.140625 12.171875 29.828125 
Q 18.359375 34.515625 30.609375 34.515625 
L 43.21875 34.515625 
L 43.21875 35.40625 
Q 43.21875 41.609375 39.140625 45 
Q 35.0625 48.390625 27.6875 48.390625 
Q 23 48.390625 18.546875 47.265625 
Q 14.109375 46.140625 10.015625 43.890625 
L 10.015625 52.203125 
Q 14.9375 54.109375 19.578125 55.046875 
Q 24.21875 56 28.609375 56 
Q 40.484375 56 46.34375 49.84375 
Q 52.203125 43.703125 52.203125 31.203125 
z
" id="DejaVuSans-97"/>
       <path d="M 44.28125 53.078125 
L 44.28125 44.578125 
Q 40.484375 46.53125 36.375 47.5 
Q 32.28125 48.484375 27.875 48.484375 
Q 21.1875 48.484375 17.84375 46.4375 
Q 14.5 44.390625 14.5 40.28125 
Q 14.5 37.15625 16.890625 35.375 
Q 19.28125 33.59375 26.515625 31.984375 
L 29.59375 31.296875 
Q 39.15625 29.25 43.1875 25.515625 
Q 47.21875 21.78125 47.21875 15.09375 
Q 47.21875 7.46875 41.1875 3.015625 
Q 35.15625 -1.421875 24.609375 -1.421875 
Q 20.21875 -1.421875 15.453125 -0.5625 
Q 10.6875 0.296875 5.421875 2 
L 5.421875 11.28125 
Q 10.40625 8.6875 15.234375 7.390625 
Q 20.0625 6.109375 24.8125 6.109375 
Q 31.15625 6.109375 34.5625 8.28125 
Q 37.984375 10.453125 37.984375 14.40625 
Q 37.984375 18.0625 35.515625 20.015625 
Q 33.0625 21.96875 24.703125 23.78125 
L 21.578125 24.515625 
Q 13.234375 26.265625 9.515625 29.90625 
Q 5.8125 33.546875 5.8125 39.890625 
Q 5.8125 47.609375 11.28125 51.796875 
Q 16.75 56 26.8125 56 
Q 31.78125 56 36.171875 55.265625 
Q 40.578125 54.546875 44.28125 53.078125 
z
" id="DejaVuSans-115"/>
       <path d="M 25.390625 72.90625 
L 33.6875 72.90625 
L 8.296875 -9.28125 
L 0 -9.28125 
z
" id="DejaVuSans-47"/>
       <path d="M 45.40625 46.390625 
L 45.40625 75.984375 
L 54.390625 75.984375 
L 54.390625 0 
L 45.40625 0 
L 45.40625 8.203125 
Q 42.578125 3.328125 38.25 0.953125 
Q 33.9375 -1.421875 27.875 -1.421875 
Q 17.96875 -1.421875 11.734375 6.484375 
Q 5.515625 14.40625 5.515625 27.296875 
Q 5.515625 40.1875 11.734375 48.09375 
Q 17.96875 56 27.875 56 
Q 33.9375 56 38.25 53.625 
Q 42.578125 51.265625 45.40625 46.390625 
z
M 14.796875 27.296875 
Q 14.796875 17.390625 18.875 11.75 
Q 22.953125 6.109375 30.078125 6.109375 
Q 37.203125 6.109375 41.296875 11.75 
Q 45.40625 17.390625 45.40625 27.296875 
Q 45.40625 37.203125 41.296875 42.84375 
Q 37.203125 48.484375 30.078125 48.484375 
Q 22.953125 48.484375 18.875 42.84375 
Q 14.796875 37.203125 14.796875 27.296875 
z
" id="DejaVuSans-100"/>
       <path d="M 9.421875 54.6875 
L 18.40625 54.6875 
L 18.40625 0 
L 9.421875 0 
z
M 9.421875 75.984375 
L 18.40625 75.984375 
L 18.40625 64.59375 
L 9.421875 64.59375 
z
" id="DejaVuSans-105"/>
       <path d="M 52 44.1875 
Q 55.375 50.25 60.0625 53.125 
Q 64.75 56 71.09375 56 
Q 79.640625 56 84.28125 50.015625 
Q 88.921875 44.046875 88.921875 33.015625 
L 88.921875 0 
L 79.890625 0 
L 79.890625 32.71875 
Q 79.890625 40.578125 77.09375 44.375 
Q 74.3125 48.1875 68.609375 48.1875 
Q 61.625 48.1875 57.5625 43.546875 
Q 53.515625 38.921875 53.515625 30.90625 
L 53.515625 0 
L 44.484375 0 
L 44.484375 32.71875 
Q 44.484375 40.625 41.703125 44.40625 
Q 38.921875 48.1875 33.109375 48.1875 
Q 26.21875 48.1875 22.15625 43.53125 
Q 18.109375 38.875 18.109375 30.90625 
L 18.109375 0 
L 9.078125 0 
L 9.078125 54.6875 
L 18.109375 54.6875 
L 18.109375 46.1875 
Q 21.1875 51.21875 25.484375 53.609375 
Q 29.78125 56 35.6875 56 
Q 41.65625 56 45.828125 52.96875 
Q 50 49.953125 52 44.1875 
z
" id="DejaVuSans-109"/>
       <path d="M 54.890625 33.015625 
L 54.890625 0 
L 45.90625 0 
L 45.90625 32.71875 
Q 45.90625 40.484375 42.875 44.328125 
Q 39.84375 48.1875 33.796875 48.1875 
Q 26.515625 48.1875 22.3125 43.546875 
Q 18.109375 38.921875 18.109375 30.90625 
L 18.109375 0 
L 9.078125 0 
L 9.078125 54.6875 
L 18.109375 54.6875 
L 18.109375 46.1875 
Q 21.34375 51.125 25.703125 53.5625 
Q 30.078125 56 35.796875 56 
Q 45.21875 56 50.046875 50.171875 
Q 54.890625 44.34375 54.890625 33.015625 
z
" id="DejaVuSans-110"/>
       <path d="M 8.015625 75.875 
L 15.828125 75.875 
Q 23.140625 64.359375 26.78125 53.3125 
Q 30.421875 42.28125 30.421875 31.390625 
Q 30.421875 20.453125 26.78125 9.375 
Q 23.140625 -1.703125 15.828125 -13.1875 
L 8.015625 -13.1875 
Q 14.5 -2 17.703125 9.0625 
Q 20.90625 20.125 20.90625 31.390625 
Q 20.90625 42.671875 17.703125 53.65625 
Q 14.5 64.65625 8.015625 75.875 
z
" id="DejaVuSans-41"/>
      </defs>
      <use xlink:href="#DejaVuSans-108"/>
      <use x="27.783203" xlink:href="#DejaVuSans-111"/>
      <use x="88.964844" xlink:href="#DejaVuSans-103"/>
      <use x="152.441406" xlink:href="#DejaVuSans-49"/>
      <use x="216.064453" xlink:href="#DejaVuSans-48"/>
      <use x="279.6875" xlink:href="#DejaVuSans-40"/>
      <use x="318.701172" xlink:href="#DejaVuSans-35"/>
      <use x="402.490234" xlink:href="#DejaVuSans-32"/>
      <use x="434.277344" xlink:href="#DejaVuSans-102"/>
      <use x="463.982422" xlink:href="#DejaVuSans-45"/>
      <use x="500.066406" xlink:href="#DejaVuSans-101"/>
      <use x="561.589844" xlink:href="#DejaVuSans-118"/>
      <use x="620.769531" xlink:href="#DejaVuSans-97"/>
      <use x="682.048828" xlink:href="#DejaVuSans-108"/>
      <use x="709.832031" xlink:href="#DejaVuSans-115"/>
      <use x="761.931641" xlink:href="#DejaVuSans-32"/>
      <use x="793.71875" xlink:href="#DejaVuSans-47"/>
      <use x="827.410156" xlink:href="#DejaVuSans-32"/>
      <use x="859.197266" xlink:href="#DejaVuSans-100"/>
      <use x="922.673828" xlink:href="#DejaVuSans-105"/>
      <use x="950.457031" xlink:href="#DejaVuSans-109"/>
      <use x="1047.869141" xlink:href="#DejaVuSans-101"/>
      <use x="1109.392578" xlink:href="#DejaVuSans-110"/>
      <use x="1172.771484" xlink:href="#DejaVuSans-115"/>
      <use x="1224.871094" xlink:href="#DejaVuSans-105"/>
      <use x="1252.654297" xlink:href="#DejaVuSans-111"/>
      <use x="1313.835938" xlink:href="#DejaVuSans-110"/>
      <use x="1377.214844" xlink:href="#DejaVuSans-41"/>
     </g>
    </g>
   </g>
   <g id="matplotlib.axis_2">
    <g id="ytick_1">
     <g id="line2d_21">
      <path clip-path="url(#p7ee5c9ad41)" d="M 57.6 298.944 
L 338.688 298.944 
" style="fill:none;stroke:#b0b0b0;stroke-linecap:square;stroke-width:0.8;"/>
     </g>
     <g id="line2d_22">
      <defs>
       <path d="M 0 0 
L -3.5 0 
" id="m955d5cd0c1" style="stroke:#000000;stroke-width:0.8;"/>
      </defs>
      <g>
       <use style="stroke:#000000;stroke-width:0.8;" x="57.6" xlink:href="#m955d5cd0c1" y="298.944"/>
      </g>
     </g>
     <g id="text_6">
      <!-- 0.0 -->
      <g transform="translate(25.155 305.02275)scale(0.16 -0.16)">
       <defs>
        <path d="M 10.6875 12.40625 
L 21 12.40625 
L 21 0 
L 10.6875 0 
z
" id="DejaVuSans-46"/>
       </defs>
       <use xlink:href="#DejaVuSans-48"/>
       <use x="63.623047" xlink:href="#DejaVuSans-46"/>
       <use x="95.410156" xlink:href="#DejaVuSans-48"/>
      </g>
     </g>
    </g>
    <g id="ytick_2">
     <g id="line2d_23">
      <path clip-path="url(#p7ee5c9ad41)" d="M 57.6 245.22202 
L 338.688 245.22202 
" style="fill:none;stroke:#b0b0b0;stroke-linecap:square;stroke-width:0.8;"/>
     </g>
     <g id="line2d_24">
      <g>
       <use style="stroke:#000000;stroke-width:0.8;" x="57.6" xlink:href="#m955d5cd0c1" y="245.22202"/>
      </g>
     </g>
     <g id="text_7">
      <!-- 0.2 -->
      <g transform="translate(25.155 251.30077)scale(0.16 -0.16)">
       <use xlink:href="#DejaVuSans-48"/>
       <use x="63.623047" xlink:href="#DejaVuSans-46"/>
       <use x="95.410156" xlink:href="#DejaVuSans-50"/>
      </g>
     </g>
    </g>
    <g id="ytick_3">
     <g id="line2d_25">
      <path clip-path="url(#p7ee5c9ad41)" d="M 57.6 191.50004 
L 338.688 191.50004 
" style="fill:none;stroke:#b0b0b0;stroke-linecap:square;stroke-width:0.8;"/>
     </g>
     <g id="line2d_26">
      <g>
       <use style="stroke:#000000;stroke-width:0.8;" x="57.6" xlink:href="#m955d5cd0c1" y="191.50004"/>
      </g>
     </g>
     <g id="text_8">
      <!-- 0.4 -->
      <g transform="translate(25.155 197.57879)scale(0.16 -0.16)">
       <use xlink:href="#DejaVuSans-48"/>
       <use x="63.623047" xlink:href="#DejaVuSans-46"/>
       <use x="95.410156" xlink:href="#DejaVuSans-52"/>
      </g>
     </g>
    </g>
    <g id="ytick_4">
     <g id="line2d_27">
      <path clip-path="url(#p7ee5c9ad41)" d="M 57.6 137.778059 
L 338.688 137.778059 
" style="fill:none;stroke:#b0b0b0;stroke-linecap:square;stroke-width:0.8;"/>
     </g>
     <g id="line2d_28">
      <g>
       <use style="stroke:#000000;stroke-width:0.8;" x="57.6" xlink:href="#m955d5cd0c1" y="137.778059"/>
      </g>
     </g>
     <g id="text_9">
      <!-- 0.6 -->
      <g transform="translate(25.155 143.856809)scale(0.16 -0.16)">
       <use xlink:href="#DejaVuSans-48"/>
       <use x="63.623047" xlink:href="#DejaVuSans-46"/>
       <use x="95.410156" xlink:href="#DejaVuSans-54"/>
      </g>
     </g>
    </g>
    <g id="ytick_5">
     <g id="line2d_29">
      <path clip-path="url(#p7ee5c9ad41)" d="M 57.6 84.056079 
L 338.688 84.056079 
" style="fill:none;stroke:#b0b0b0;stroke-linecap:square;stroke-width:0.8;"/>
     </g>
     <g id="line2d_30">
      <g>
       <use style="stroke:#000000;stroke-width:0.8;" x="57.6" xlink:href="#m955d5cd0c1" y="84.056079"/>
      </g>
     </g>
     <g id="text_10">
      <!-- 0.8 -->
      <g transform="translate(25.155 90.134829)scale(0.16 -0.16)">
       <defs>
        <path d="M 31.78125 34.625 
Q 24.75 34.625 20.71875 30.859375 
Q 16.703125 27.09375 16.703125 20.515625 
Q 16.703125 13.921875 20.71875 10.15625 
Q 24.75 6.390625 31.78125 6.390625 
Q 38.8125 6.390625 42.859375 10.171875 
Q 46.921875 13.96875 46.921875 20.515625 
Q 46.921875 27.09375 42.890625 30.859375 
Q 38.875 34.625 31.78125 34.625 
z
M 21.921875 38.8125 
Q 15.578125 40.375 12.03125 44.71875 
Q 8.5 49.078125 8.5 55.328125 
Q 8.5 64.0625 14.71875 69.140625 
Q 20.953125 74.21875 31.78125 74.21875 
Q 42.671875 74.21875 48.875 69.140625 
Q 55.078125 64.0625 55.078125 55.328125 
Q 55.078125 49.078125 51.53125 44.71875 
Q 48 40.375 41.703125 38.8125 
Q 48.828125 37.15625 52.796875 32.3125 
Q 56.78125 27.484375 56.78125 20.515625 
Q 56.78125 9.90625 50.3125 4.234375 
Q 43.84375 -1.421875 31.78125 -1.421875 
Q 19.734375 -1.421875 13.25 4.234375 
Q 6.78125 9.90625 6.78125 20.515625 
Q 6.78125 27.484375 10.78125 32.3125 
Q 14.796875 37.15625 21.921875 38.8125 
z
M 18.3125 54.390625 
Q 18.3125 48.734375 21.84375 45.5625 
Q 25.390625 42.390625 31.78125 42.390625 
Q 38.140625 42.390625 41.71875 45.5625 
Q 45.3125 48.734375 45.3125 54.390625 
Q 45.3125 60.0625 41.71875 63.234375 
Q 38.140625 66.40625 31.78125 66.40625 
Q 25.390625 66.40625 21.84375 63.234375 
Q 18.3125 60.0625 18.3125 54.390625 
z
" id="DejaVuSans-56"/>
       </defs>
       <use xlink:href="#DejaVuSans-48"/>
       <use x="63.623047" xlink:href="#DejaVuSans-46"/>
       <use x="95.410156" xlink:href="#DejaVuSans-56"/>
      </g>
     </g>
    </g>
    <g id="ytick_6">
     <g id="line2d_31">
      <path clip-path="url(#p7ee5c9ad41)" d="M 57.6 30.334099 
L 338.688 30.334099 
" style="fill:none;stroke:#b0b0b0;stroke-linecap:square;stroke-width:0.8;"/>
     </g>
     <g id="line2d_32">
      <g>
       <use style="stroke:#000000;stroke-width:0.8;" x="57.6" xlink:href="#m955d5cd0c1" y="30.334099"/>
      </g>
     </g>
     <g id="text_11">
      <!-- 1.0 -->
      <g transform="translate(25.155 36.412849)scale(0.16 -0.16)">
       <use xlink:href="#DejaVuSans-49"/>
       <use x="63.623047" xlink:href="#DejaVuSans-46"/>
       <use x="95.410156" xlink:href="#DejaVuSans-48"/>
      </g>
     </g>
    </g>
    <g id="text_12">
     <!-- Fraction of function,target pairs -->
     <g transform="translate(17.619531 297.681)rotate(-90)scale(0.17 -0.17)">
      <defs>
       <path d="M 9.8125 72.90625 
L 51.703125 72.90625 
L 51.703125 64.59375 
L 19.671875 64.59375 
L 19.671875 43.109375 
L 48.578125 43.109375 
L 48.578125 34.8125 
L 19.671875 34.8125 
L 19.671875 0 
L 9.8125 0 
z
" id="DejaVuSans-70"/>
       <path d="M 41.109375 46.296875 
Q 39.59375 47.171875 37.8125 47.578125 
Q 36.03125 48 33.890625 48 
Q 26.265625 48 22.1875 43.046875 
Q 18.109375 38.09375 18.109375 28.8125 
L 18.109375 0 
L 9.078125 0 
L 9.078125 54.6875 
L 18.109375 54.6875 
L 18.109375 46.1875 
Q 20.953125 51.171875 25.484375 53.578125 
Q 30.03125 56 36.53125 56 
Q 37.453125 56 38.578125 55.875 
Q 39.703125 55.765625 41.0625 55.515625 
z
" id="DejaVuSans-114"/>
       <path d="M 48.78125 52.59375 
L 48.78125 44.1875 
Q 44.96875 46.296875 41.140625 47.34375 
Q 37.3125 48.390625 33.40625 48.390625 
Q 24.65625 48.390625 19.8125 42.84375 
Q 14.984375 37.3125 14.984375 27.296875 
Q 14.984375 17.28125 19.8125 11.734375 
Q 24.65625 6.203125 33.40625 6.203125 
Q 37.3125 6.203125 41.140625 7.25 
Q 44.96875 8.296875 48.78125 10.40625 
L 48.78125 2.09375 
Q 45.015625 0.34375 40.984375 -0.53125 
Q 36.96875 -1.421875 32.421875 -1.421875 
Q 20.0625 -1.421875 12.78125 6.34375 
Q 5.515625 14.109375 5.515625 27.296875 
Q 5.515625 40.671875 12.859375 48.328125 
Q 20.21875 56 33.015625 56 
Q 37.15625 56 41.109375 55.140625 
Q 45.0625 54.296875 48.78125 52.59375 
z
" id="DejaVuSans-99"/>
       <path d="M 18.3125 70.21875 
L 18.3125 54.6875 
L 36.8125 54.6875 
L 36.8125 47.703125 
L 18.3125 47.703125 
L 18.3125 18.015625 
Q 18.3125 11.328125 20.140625 9.421875 
Q 21.96875 7.515625 27.59375 7.515625 
L 36.8125 7.515625 
L 36.8125 0 
L 27.59375 0 
Q 17.1875 0 13.234375 3.875 
Q 9.28125 7.765625 9.28125 18.015625 
L 9.28125 47.703125 
L 2.6875 47.703125 
L 2.6875 54.6875 
L 9.28125 54.6875 
L 9.28125 70.21875 
z
" id="DejaVuSans-116"/>
       <path d="M 8.5 21.578125 
L 8.5 54.6875 
L 17.484375 54.6875 
L 17.484375 21.921875 
Q 17.484375 14.15625 20.5 10.265625 
Q 23.53125 6.390625 29.59375 6.390625 
Q 36.859375 6.390625 41.078125 11.03125 
Q 45.3125 15.671875 45.3125 23.6875 
L 45.3125 54.6875 
L 54.296875 54.6875 
L 54.296875 0 
L 45.3125 0 
L 45.3125 8.40625 
Q 42.046875 3.421875 37.71875 1 
Q 33.40625 -1.421875 27.6875 -1.421875 
Q 18.265625 -1.421875 13.375 4.4375 
Q 8.5 10.296875 8.5 21.578125 
z
M 31.109375 56 
z
" id="DejaVuSans-117"/>
       <path d="M 11.71875 12.40625 
L 22.015625 12.40625 
L 22.015625 4 
L 14.015625 -11.625 
L 7.71875 -11.625 
L 11.71875 4 
z
" id="DejaVuSans-44"/>
       <path d="M 18.109375 8.203125 
L 18.109375 -20.796875 
L 9.078125 -20.796875 
L 9.078125 54.6875 
L 18.109375 54.6875 
L 18.109375 46.390625 
Q 20.953125 51.265625 25.265625 53.625 
Q 29.59375 56 35.59375 56 
Q 45.5625 56 51.78125 48.09375 
Q 58.015625 40.1875 58.015625 27.296875 
Q 58.015625 14.40625 51.78125 6.484375 
Q 45.5625 -1.421875 35.59375 -1.421875 
Q 29.59375 -1.421875 25.265625 0.953125 
Q 20.953125 3.328125 18.109375 8.203125 
z
M 48.6875 27.296875 
Q 48.6875 37.203125 44.609375 42.84375 
Q 40.53125 48.484375 33.40625 48.484375 
Q 26.265625 48.484375 22.1875 42.84375 
Q 18.109375 37.203125 18.109375 27.296875 
Q 18.109375 17.390625 22.1875 11.75 
Q 26.265625 6.109375 33.40625 6.109375 
Q 40.53125 6.109375 44.609375 11.75 
Q 48.6875 17.390625 48.6875 27.296875 
z
" id="DejaVuSans-112"/>
      </defs>
      <use xlink:href="#DejaVuSans-70"/>
      <use x="50.269531" xlink:href="#DejaVuSans-114"/>
      <use x="91.382812" xlink:href="#DejaVuSans-97"/>
      <use x="152.662109" xlink:href="#DejaVuSans-99"/>
      <use x="207.642578" xlink:href="#DejaVuSans-116"/>
      <use x="246.851562" xlink:href="#DejaVuSans-105"/>
      <use x="274.634766" xlink:href="#DejaVuSans-111"/>
      <use x="335.816406" xlink:href="#DejaVuSans-110"/>
      <use x="399.195312" xlink:href="#DejaVuSans-32"/>
      <use x="430.982422" xlink:href="#DejaVuSans-111"/>
      <use x="492.164062" xlink:href="#DejaVuSans-102"/>
      <use x="527.369141" xlink:href="#DejaVuSans-32"/>
      <use x="559.15625" xlink:href="#DejaVuSans-102"/>
      <use x="594.361328" xlink:href="#DejaVuSans-117"/>
      <use x="657.740234" xlink:href="#DejaVuSans-110"/>
      <use x="721.119141" xlink:href="#DejaVuSans-99"/>
      <use x="776.099609" xlink:href="#DejaVuSans-116"/>
      <use x="815.308594" xlink:href="#DejaVuSans-105"/>
      <use x="843.091797" xlink:href="#DejaVuSans-111"/>
      <use x="904.273438" xlink:href="#DejaVuSans-110"/>
      <use x="967.652344" xlink:href="#DejaVuSans-44"/>
      <use x="999.439453" xlink:href="#DejaVuSans-116"/>
      <use x="1038.648438" xlink:href="#DejaVuSans-97"/>
      <use x="1099.927734" xlink:href="#DejaVuSans-114"/>
      <use x="1139.291016" xlink:href="#DejaVuSans-103"/>
      <use x="1202.767578" xlink:href="#DejaVuSans-101"/>
      <use x="1264.291016" xlink:href="#DejaVuSans-116"/>
      <use x="1303.5" xlink:href="#DejaVuSans-32"/>
      <use x="1335.287109" xlink:href="#DejaVuSans-112"/>
      <use x="1398.763672" xlink:href="#DejaVuSans-97"/>
      <use x="1460.042969" xlink:href="#DejaVuSans-105"/>
      <use x="1487.826172" xlink:href="#DejaVuSans-114"/>
      <use x="1528.939453" xlink:href="#DejaVuSans-115"/>
     </g>
    </g>
   </g>
   <g id="line2d_33">
    <defs>
     <path d="M 0 1.5 
C 0.397805 1.5 0.77937 1.341951 1.06066 1.06066 
C 1.341951 0.77937 1.5 0.397805 1.5 0 
C 1.5 -0.397805 1.341951 -0.77937 1.06066 -1.06066 
C 0.77937 -1.341951 0.397805 -1.5 0 -1.5 
C -0.397805 -1.5 -0.77937 -1.341951 -1.06066 -1.06066 
C -1.341951 -0.77937 -1.5 -0.397805 -1.5 0 
C -1.5 0.397805 -1.341951 0.77937 -1.06066 1.06066 
C -0.77937 1.341951 -0.397805 1.5 0 1.5 
z
" id="m46ddc0f9bf" style="stroke:#f5deb3;"/>
    </defs>
    <g>
     <use style="fill:#f5deb3;stroke:#f5deb3;" x="252.360878" xlink:href="#m46ddc0f9bf" y="62.752535"/>
     <use style="fill:#f5deb3;stroke:#f5deb3;" x="252.360878" xlink:href="#m46ddc0f9bf" y="62.752535"/>
    </g>
   </g>
   <g id="line2d_34">
    <defs>
     <path d="M 0 1.5 
C 0.397805 1.5 0.77937 1.341951 1.06066 1.06066 
C 1.341951 0.77937 1.5 0.397805 1.5 0 
C 1.5 -0.397805 1.341951 -0.77937 1.06066 -1.06066 
C 0.77937 -1.341951 0.397805 -1.5 0 -1.5 
C -0.397805 -1.5 -0.77937 -1.341951 -1.06066 -1.06066 
C -1.341951 -0.77937 -1.5 -0.397805 -1.5 0 
C -1.5 0.397805 -1.341951 0.77937 -1.06066 1.06066 
C -0.77937 1.341951 -0.397805 1.5 0 1.5 
z
" id="m9baddb0a93" style="stroke:#000080;"/>
    </defs>
    <g>
     <use style="fill:#000080;stroke:#000080;" x="248.611174" xlink:href="#m9baddb0a93" y="175.290821"/>
     <use style="fill:#000080;stroke:#000080;" x="248.611174" xlink:href="#m9baddb0a93" y="175.290821"/>
    </g>
   </g>
   <g id="line2d_35">
    <path d="M 29.53256 298.944 
L 29.53256 294.775915 
L 41.620548 294.775915 
L 41.620548 294.312795 
L 53.708537 294.312795 
L 53.708537 293.849674 
L 57.6 293.849674 
L 57.6 292.460313 
L 60.779557 292.460313 
L 60.779557 290.14471 
L 65.796525 290.14471 
L 65.796525 289.68159 
L 67.850577 289.68159 
L 67.850577 289.218469 
L 74.263433 289.218469 
L 74.263433 288.755349 
L 88.846997 288.755349 
L 88.846997 288.292228 
L 90.509138 288.292228 
L 90.509138 286.902867 
L 92.504372 286.902867 
L 92.504372 285.976625 
L 93.422441 285.976625 
L 93.422441 285.513505 
L 93.863965 285.513505 
L 93.863965 285.050384 
L 95.918017 285.050384 
L 95.918017 284.124143 
L 98.100772 284.124143 
L 98.100772 283.661023 
L 100.641881 283.661023 
L 100.641881 283.197902 
L 100.934985 283.197902 
L 100.934985 282.734782 
L 102.859376 282.734782 
L 102.859376 282.271661 
L 105.51043 282.271661 
L 105.51043 280.8823 
L 109.31223 280.8823 
L 109.31223 280.419179 
L 111.505558 280.419179 
L 111.505558 279.956059 
L 112.877038 279.956059 
L 112.877038 278.103577 
L 115.711251 278.103577 
L 115.711251 277.640456 
L 116.680349 277.640456 
L 116.680349 277.177336 
L 125.470548 277.177336 
L 125.470548 276.714215 
L 131.987128 276.714215 
L 131.987128 276.251095 
L 132.278599 276.251095 
L 132.278599 275.787974 
L 133.533096 275.787974 
L 133.533096 275.324854 
L 135.44209 275.324854 
L 135.44209 273.935492 
L 136.150782 273.935492 
L 136.150782 273.472371 
L 138.493936 273.472371 
L 138.527635 272.54613 
L 140.973763 272.54613 
L 140.973763 272.08301 
L 143.11861 272.08301 
L 143.11861 271.619889 
L 143.703791 271.619889 
L 143.703791 271.156769 
L 145.166911 271.156769 
L 145.166911 270.230528 
L 145.598655 270.230528 
L 145.598655 269.304287 
L 150.632448 269.304287 
L 150.632448 268.841166 
L 151.373256 268.841166 
L 151.373256 267.914925 
L 151.597455 267.914925 
L 151.597455 266.988684 
L 152.542024 266.988684 
L 152.542024 266.525564 
L 153.693887 266.525564 
L 153.693887 266.062443 
L 154.547439 266.062443 
L 154.547439 265.599323 
L 156.064855 265.599323 
L 156.064855 265.136202 
L 157.335239 265.136202 
L 157.335239 263.746841 
L 159.597964 263.746841 
L 159.597964 262.8206 
L 163.217788 262.8206 
L 163.323704 261.894358 
L 163.859601 261.894358 
L 163.906798 260.968117 
L 165.432722 260.968117 
L 165.432722 260.504997 
L 166.131092 260.504997 
L 166.131092 259.578756 
L 166.802568 259.578756 
L 166.802568 259.115635 
L 167.229781 259.115635 
L 167.229781 258.189394 
L 168.318321 258.189394 
L 168.318321 257.263153 
L 170.168537 257.263153 
L 170.168537 256.800033 
L 170.618014 256.800033 
L 170.618014 256.336912 
L 171.056197 256.336912 
L 171.056197 255.873792 
L 171.289242 255.873792 
L 171.289242 255.410671 
L 172.739653 255.410671 
L 172.739653 254.947551 
L 172.946705 254.947551 
L 172.946705 254.48443 
L 173.280304 254.48443 
L 173.280304 254.02131 
L 173.973109 254.02131 
L 174.008357 251.705707 
L 174.205315 251.705707 
L 174.205315 251.242587 
L 175.141564 251.242587 
L 175.141564 250.779466 
L 175.305777 250.779466 
L 175.305777 250.316346 
L 175.888413 250.316346 
L 175.888413 249.853225 
L 178.449203 249.853225 
L 178.459436 248.926984 
L 179.559561 248.926984 
L 179.559561 248.463863 
L 180.123437 248.463863 
L 180.123437 248.000743 
L 180.412408 248.000743 
L 180.412408 247.537622 
L 181.823298 247.537622 
L 181.845779 246.148261 
L 183.302477 246.148261 
L 183.402933 244.295779 
L 183.461906 244.295779 
L 183.461906 243.832658 
L 184.01118 243.832658 
L 184.01118 242.906417 
L 184.775492 242.906417 
L 184.775492 242.443297 
L 184.945586 242.443297 
L 184.945586 241.517056 
L 185.32234 241.517056 
L 185.32234 241.053935 
L 185.892686 241.053935 
L 185.892686 240.590815 
L 186.330258 240.590815 
L 186.330258 239.664574 
L 187.186189 239.664574 
L 187.186189 238.738333 
L 189.10487 238.738333 
L 189.10487 238.275212 
L 190.739039 238.275212 
L 190.823157 236.88585 
L 191.018422 236.88585 
L 191.030035 235.033368 
L 191.383019 235.033368 
L 191.383019 234.570248 
L 192.000926 234.570248 
L 192.000926 233.644007 
L 193.371575 233.644007 
L 193.449707 231.791525 
L 193.767288 231.791525 
L 193.767288 231.328404 
L 194.836708 231.328404 
L 194.836708 230.402163 
L 195.031607 230.402163 
L 195.094778 229.012802 
L 195.597185 229.012802 
L 195.597185 228.086561 
L 196.018371 228.086561 
L 196.018371 227.62344 
L 196.850418 227.62344 
L 196.850418 226.697199 
L 198.028482 226.697199 
L 198.060651 224.844717 
L 198.209626 224.844717 
L 198.299496 221.602873 
L 199.22656 221.602873 
L 199.330941 220.213512 
L 199.911578 220.213512 
L 199.963327 219.287271 
L 200.207057 219.287271 
L 200.207057 218.36103 
L 200.951349 218.36103 
L 200.951349 217.434789 
L 201.251102 217.434789 
L 201.251102 216.971668 
L 201.388999 216.971668 
L 201.389915 215.582307 
L 202.586751 215.582307 
L 202.630297 214.192945 
L 202.722155 214.192945 
L 202.722155 213.266704 
L 203.18176 213.266704 
L 203.18176 212.340463 
L 204.21474 212.340463 
L 204.21474 211.877342 
L 204.644697 211.877342 
L 204.644697 210.951101 
L 204.792976 210.951101 
L 204.792976 210.02486 
L 205.062083 210.02486 
L 205.062083 209.098619 
L 205.191414 209.098619 
L 205.191414 208.172378 
L 205.737217 208.172378 
L 205.840385 207.246137 
L 205.865905 207.246137 
L 205.877235 205.856776 
L 206.161606 205.856776 
L 206.25399 204.004294 
L 206.62549 204.004294 
L 206.62549 203.541173 
L 206.887325 203.541173 
L 206.910692 202.614932 
L 207.567348 202.614932 
L 207.567348 201.688691 
L 207.690916 201.688691 
L 207.690916 201.225571 
L 207.885685 201.225571 
L 207.955575 199.373088 
L 208.5644 199.373088 
L 208.5644 198.909968 
L 208.732885 198.909968 
L 208.818016 197.983727 
L 208.88904 197.983727 
L 208.88904 197.520606 
L 209.649505 197.520606 
L 209.649505 197.057486 
L 209.81804 197.057486 
L 209.81804 196.594365 
L 210.242035 196.594365 
L 210.250852 195.205004 
L 210.50732 195.205004 
L 210.50732 194.741883 
L 211.198065 194.741883 
L 211.198065 194.278763 
L 211.356997 194.278763 
L 211.435408 193.352522 
L 211.798082 193.352522 
L 211.798082 192.426281 
L 212.105883 192.426281 
L 212.105883 191.96316 
L 212.309738 191.96316 
L 212.309738 191.50004 
L 212.651971 191.50004 
L 212.651971 190.573799 
L 212.774903 190.573799 
L 212.774903 189.647558 
L 213.143251 189.647558 
L 213.143251 188.721316 
L 213.268341 188.721316 
L 213.268341 188.258196 
L 214.040989 188.258196 
L 214.089681 187.331955 
L 214.296648 187.331955 
L 214.327199 185.942593 
L 214.748533 185.942593 
L 214.748533 185.479473 
L 214.988641 185.479473 
L 214.988641 185.016352 
L 215.876672 185.016352 
L 215.876672 184.090111 
L 215.996355 184.090111 
L 215.996355 183.16387 
L 216.277012 183.16387 
L 216.277012 182.70075 
L 217.108482 182.70075 
L 217.108482 182.237629 
L 217.388036 182.237629 
L 217.388036 181.774509 
L 218.722293 181.774509 
L 218.722293 181.311388 
L 219.037333 181.311388 
L 219.037333 180.848268 
L 219.991015 180.848268 
L 219.991015 180.385147 
L 221.782198 180.385147 
L 221.782198 179.922027 
L 222.85127 179.922027 
L 222.85127 179.458906 
L 226.138506 179.458906 
L 226.138506 178.532665 
L 229.619038 178.532665 
L 229.619038 178.069545 
L 233.039088 178.069545 
L 233.039088 177.606424 
L 233.443567 177.606424 
L 233.443567 176.680183 
L 237.813953 176.680183 
L 237.813953 176.217062 
L 243.552655 176.217062 
L 243.552655 175.753942 
L 248.611174 175.753942 
L 248.611174 175.290821 
L 338.688 175.290821 
L 338.688 175.290821 
" style="fill:none;stroke:#000080;stroke-linecap:square;stroke-width:1.5;"/>
   </g>
   <g id="line2d_36">
    <defs>
     <path d="M 0 6 
C 1.591219 6 3.117479 5.367802 4.242641 4.242641 
C 5.367802 3.117479 6 1.591219 6 0 
C 6 -1.591219 5.367802 -3.117479 4.242641 -4.242641 
C 3.117479 -5.367802 1.591219 -6 0 -6 
C -1.591219 -6 -3.117479 -5.367802 -4.242641 -4.242641 
C -5.367802 -3.117479 -6 -1.591219 -6 0 
C -6 1.591219 -5.367802 3.117479 -4.242641 4.242641 
C -3.117479 5.367802 -1.591219 6 0 6 
z
" id="m5f9e755cc0" style="stroke:#000080;stroke-width:1.5;"/>
    </defs>
    <g>
     <use style="fill-opacity:0;stroke:#000080;stroke-width:1.5;" x="74.263433" xlink:href="#m5f9e755cc0" y="288.755349"/>
     <use style="fill-opacity:0;stroke:#000080;stroke-width:1.5;" x="178.459436" xlink:href="#m5f9e755cc0" y="249.390104"/>
     <use style="fill-opacity:0;stroke:#000080;stroke-width:1.5;" x="217.388036" xlink:href="#m5f9e755cc0" y="181.774509"/>
     <use style="fill-opacity:0;stroke:#000080;stroke-width:1.5;" x="248.611174" xlink:href="#m5f9e755cc0" y="175.753942"/>
     <use style="fill-opacity:0;stroke:#000080;stroke-width:1.5;" x="248.611174" xlink:href="#m5f9e755cc0" y="175.290821"/>
     <use style="fill-opacity:0;stroke:#000080;stroke-width:1.5;" x="338.688" xlink:href="#m5f9e755cc0" y="175.290821"/>
    </g>
   </g>
   <g id="line2d_37">
    <path style="fill:none;stroke:#000080;stroke-linecap:square;stroke-width:1.5;"/>
    <g/>
   </g>
   <g id="line2d_38">
    <path clip-path="url(#p7ee5c9ad41)" d="M 258.377317 175.290821 
" style="fill:none;stroke:#000080;stroke-linecap:square;stroke-width:1.5;"/>
    <defs>
     <path d="M -12 12 
L 12 -12 
M -12 -12 
L 12 12 
" id="m8f410d0bf5" style="stroke:#000080;"/>
    </defs>
    <g clip-path="url(#p7ee5c9ad41)">
     <use style="fill:#000080;stroke:#000080;" x="258.377317" xlink:href="#m8f410d0bf5" y="175.290821"/>
    </g>
   </g>
   <g id="line2d_39">
    <defs>
     <path d="M 0 1.5 
C 0.397805 1.5 0.77937 1.341951 1.06066 1.06066 
C 1.341951 0.77937 1.5 0.397805 1.5 0 
C 1.5 -0.397805 1.341951 -0.77937 1.06066 -1.06066 
C 0.77937 -1.341951 0.397805 -1.5 0 -1.5 
C -0.397805 -1.5 -0.77937 -1.341951 -1.06066 -1.06066 
C -1.341951 -0.77937 -1.5 -0.397805 -1.5 0 
C -1.5 0.397805 -1.341951 0.77937 -1.06066 1.06066 
C -0.77937 1.341951 -0.397805 1.5 0 1.5 
z
" id="m309ea0ea26" style="stroke:#ff00ff;"/>
    </defs>
    <g>
     <use style="fill:#ff00ff;stroke:#ff00ff;" x="257.52333" xlink:href="#m309ea0ea26" y="166.491532"/>
     <use style="fill:#ff00ff;stroke:#ff00ff;" x="257.52333" xlink:href="#m309ea0ea26" y="166.491532"/>
    </g>
   </g>
   <g id="line2d_40">
    <path d="M 29.53256 298.944 
L 29.53256 295.702156 
L 133.124876 295.702156 
L 133.124876 295.239036 
L 133.398082 295.239036 
L 133.398082 294.775915 
L 133.844123 294.775915 
L 133.844123 294.312795 
L 134.450015 294.312795 
L 134.450015 293.849674 
L 140.738093 293.849674 
L 140.738093 293.386554 
L 141.002999 293.386554 
L 141.002999 292.923433 
L 141.378673 292.923433 
L 141.378673 292.460313 
L 141.662245 292.460313 
L 141.662245 291.997192 
L 142.07914 291.997192 
L 142.07914 291.534072 
L 142.297475 291.534072 
L 142.297475 291.070951 
L 142.699628 291.070951 
L 142.699628 290.607831 
L 142.884173 290.607831 
L 142.884173 289.68159 
L 143.298796 289.68159 
L 143.40093 287.829108 
L 144.245733 287.829108 
L 144.245733 286.902867 
L 144.510517 286.902867 
L 144.605813 285.976625 
L 144.958609 285.976625 
L 145.005114 284.587264 
L 145.212864 284.587264 
L 145.212864 284.124143 
L 145.710517 284.124143 
L 145.710517 283.661023 
L 146.216039 283.661023 
L 146.259313 282.271661 
L 146.345539 282.271661 
L 146.345539 281.808541 
L 146.580487 281.808541 
L 146.665144 280.8823 
L 146.999721 280.8823 
L 147.02042 279.956059 
L 147.226074 279.956059 
L 147.226074 279.492938 
L 147.409112 279.492938 
L 147.429332 278.566697 
L 148.200145 278.566697 
L 148.23877 277.640456 
L 148.315765 277.640456 
L 148.315765 277.177336 
L 148.48777 277.177336 
L 148.48777 276.714215 
L 148.808112 276.714215 
L 148.882639 275.787974 
L 149.012299 275.787974 
L 149.085961 274.398612 
L 149.467659 274.398612 
L 149.467659 273.935492 
L 150.033689 273.935492 
L 150.068464 272.54613 
L 150.258492 272.54613 
L 150.344189 270.693648 
L 150.395406 270.693648 
L 150.395406 270.230528 
L 150.56505 270.230528 
L 150.581924 268.378046 
L 150.766468 268.378046 
L 150.766468 267.914925 
L 151.080698 267.914925 
L 151.080698 267.451805 
L 151.340991 267.451805 
L 151.373256 265.599323 
L 151.881541 265.599323 
L 151.881541 265.136202 
L 152.253262 265.136202 
L 152.253262 264.673082 
L 152.496747 264.673082 
L 152.496747 264.209961 
L 152.677155 264.209961 
L 152.677155 263.746841 
L 153.207444 263.746841 
L 153.250915 262.8206 
L 153.323128 262.8206 
L 153.323128 261.894358 
L 153.509492 261.894358 
L 153.509492 261.431238 
L 154.015422 261.431238 
L 154.015422 260.968117 
L 154.208275 260.968117 
L 154.303908 260.041876 
L 154.89331 260.041876 
L 154.985269 258.189394 
L 155.34833 258.189394 
L 155.412374 256.800033 
L 155.488919 256.800033 
L 155.527065 255.873792 
L 155.854218 255.873792 
L 155.891575 254.48443 
L 156.138594 254.48443 
L 156.138594 254.02131 
L 156.442528 254.02131 
L 156.442528 253.558189 
L 157.243392 253.558189 
L 157.243392 253.095069 
L 157.630442 253.095069 
L 157.731474 251.242587 
L 157.77619 251.242587 
L 157.77619 250.779466 
L 158.594062 250.779466 
L 158.625992 249.390104 
L 159.426147 249.390104 
L 159.476858 248.463863 
L 160.123015 248.463863 
L 160.123015 248.000743 
L 161.081824 248.000743 
L 161.081824 247.074502 
L 161.519653 247.074502 
L 161.519653 246.611381 
L 161.955547 246.611381 
L 161.955547 245.22202 
L 162.678343 245.22202 
L 162.678343 244.295779 
L 163.094774 244.295779 
L 163.094774 243.369538 
L 163.66156 243.369538 
L 163.66156 242.906417 
L 163.780654 242.906417 
L 163.780654 242.443297 
L 164.387164 242.443297 
L 164.387164 241.980176 
L 165.35337 241.980176 
L 165.35337 241.053935 
L 165.838222 241.053935 
L 165.929399 240.127694 
L 167.954668 240.127694 
L 167.954668 238.275212 
L 168.911979 238.275212 
L 168.911979 237.812091 
L 169.503198 237.812091 
L 169.503198 236.88585 
L 169.724059 236.88585 
L 169.724059 236.42273 
L 172.409924 236.42273 
L 172.409924 235.959609 
L 172.904553 235.959609 
L 172.904553 235.496489 
L 174.126799 235.496489 
L 174.126799 235.033368 
L 174.571383 235.033368 
L 174.571383 234.107127 
L 175.440098 234.107127 
L 175.440098 233.644007 
L 178.930433 233.644007 
L 178.930433 233.180886 
L 179.161246 233.180886 
L 179.161246 232.254645 
L 180.268521 232.254645 
L 180.320702 230.865284 
L 183.751298 230.865284 
L 183.751298 229.939043 
L 184.257467 229.939043 
L 184.257467 229.012802 
L 184.413285 229.012802 
L 184.413285 228.086561 
L 185.10938 228.086561 
L 185.10938 227.16032 
L 185.66633 227.16032 
L 185.66633 226.697199 
L 187.17378 226.697199 
L 187.17378 226.234079 
L 189.646444 226.234079 
L 189.716327 224.381596 
L 190.136826 224.381596 
L 190.161249 223.455355 
L 190.443105 223.455355 
L 190.443105 222.992235 
L 190.923566 222.992235 
L 190.923566 222.065994 
L 192.105714 222.065994 
L 192.105714 221.139753 
L 196.199334 221.139753 
L 196.199334 220.213512 
L 196.54122 220.213512 
L 196.54122 219.287271 
L 197.547826 219.287271 
L 197.547826 218.82415 
L 200.32717 218.82415 
L 200.32717 218.36103 
L 201.250179 218.36103 
L 201.250179 217.434789 
L 202.272755 217.434789 
L 202.272755 216.508548 
L 202.535381 216.508548 
L 202.535381 215.582307 
L 204.665957 215.582307 
L 204.665957 215.119186 
L 205.963387 215.119186 
L 205.963387 214.656066 
L 207.011808 214.656066 
L 207.011808 213.729825 
L 211.512444 213.729825 
L 211.512444 213.266704 
L 213.336322 213.266704 
L 213.336322 212.340463 
L 215.354232 212.340463 
L 215.354232 211.877342 
L 217.987509 211.877342 
L 218.00694 210.02486 
L 218.119921 210.02486 
L 218.196584 208.635499 
L 218.735167 208.635499 
L 218.735167 207.709258 
L 220.171595 207.709258 
L 220.171595 206.783017 
L 220.297764 206.783017 
L 220.303956 205.393655 
L 221.227762 205.393655 
L 221.227762 204.930535 
L 222.357285 204.930535 
L 222.357285 204.004294 
L 222.675465 204.004294 
L 222.675465 203.078053 
L 223.80016 203.078053 
L 223.805985 201.688691 
L 224.559015 201.688691 
L 224.559015 201.225571 
L 225.665867 201.225571 
L 225.665867 200.76245 
L 226.172586 200.76245 
L 226.172586 200.299329 
L 227.035228 200.299329 
L 227.035228 199.836209 
L 230.139364 199.836209 
L 230.198435 197.983727 
L 230.258356 197.983727 
L 230.331488 195.668124 
L 230.529098 195.668124 
L 230.586179 194.278763 
L 230.731304 194.278763 
L 230.731304 193.815642 
L 230.996702 193.815642 
L 230.996702 193.352522 
L 231.251513 193.352522 
L 231.251513 192.889401 
L 231.484568 192.889401 
L 231.484568 192.426281 
L 231.922786 192.426281 
L 231.922786 191.50004 
L 232.462529 191.50004 
L 232.544646 189.184437 
L 232.663598 189.184437 
L 232.663598 188.721316 
L 233.667534 188.721316 
L 233.667534 188.258196 
L 234.673524 188.258196 
L 234.673524 187.795075 
L 235.409095 187.795075 
L 235.409095 187.331955 
L 236.384701 187.331955 
L 236.384701 186.868834 
L 238.350214 186.868834 
L 238.45088 184.553232 
L 238.52736 184.553232 
L 238.52736 184.090111 
L 238.795381 184.090111 
L 238.795381 183.626991 
L 239.010068 183.626991 
L 239.026685 182.237629 
L 239.891716 182.237629 
L 239.891716 181.774509 
L 241.610689 181.774509 
L 241.610689 181.311388 
L 241.770866 181.311388 
L 241.770866 180.848268 
L 243.120448 180.848268 
L 243.120448 179.922027 
L 244.237597 179.922027 
L 244.237597 179.458906 
L 245.422077 179.458906 
L 245.422077 178.995786 
L 246.077134 178.995786 
L 246.077134 178.069545 
L 246.44188 178.069545 
L 246.44188 177.143304 
L 247.037943 177.143304 
L 247.072524 175.753942 
L 247.532131 175.753942 
L 247.532131 175.290821 
L 248.290421 175.290821 
L 248.290421 174.827701 
L 249.651559 174.827701 
L 249.651559 174.36458 
L 249.921947 174.36458 
L 249.921947 173.90146 
L 250.588602 173.90146 
L 250.66454 172.048978 
L 250.72858 172.048978 
L 250.72858 171.585857 
L 250.857246 171.585857 
L 250.857246 171.122737 
L 251.065677 171.122737 
L 251.065677 170.659616 
L 252.763037 170.659616 
L 252.846191 169.270255 
L 252.875287 169.270255 
L 252.875287 168.807134 
L 254.117381 168.807134 
L 254.117381 168.344014 
L 255.066692 168.344014 
L 255.066692 167.880893 
L 256.03964 167.880893 
L 256.122674 166.954652 
L 257.52333 166.954652 
L 257.52333 166.491532 
L 338.688 166.491532 
L 338.688 166.491532 
" style="fill:none;stroke:#ff00ff;stroke-linecap:square;stroke-width:1.5;"/>
   </g>
   <g id="line2d_41">
    <defs>
     <path d="M 0 8.485281 
L 5.091169 0 
L 0 -8.485281 
L -5.091169 0 
z
" id="mf6aba627c1" style="stroke:#ff00ff;stroke-linejoin:miter;stroke-width:1.5;"/>
    </defs>
    <g>
     <use style="fill-opacity:0;stroke:#ff00ff;stroke-linejoin:miter;stroke-width:1.5;" x="150.395406" xlink:href="#mf6aba627c1" y="270.693648"/>
     <use style="fill-opacity:0;stroke:#ff00ff;stroke-linejoin:miter;stroke-width:1.5;" x="205.963387" xlink:href="#mf6aba627c1" y="214.656066"/>
     <use style="fill-opacity:0;stroke:#ff00ff;stroke-linejoin:miter;stroke-width:1.5;" x="257.52333" xlink:href="#mf6aba627c1" y="166.954652"/>
     <use style="fill-opacity:0;stroke:#ff00ff;stroke-linejoin:miter;stroke-width:1.5;" x="257.52333" xlink:href="#mf6aba627c1" y="166.491532"/>
     <use style="fill-opacity:0;stroke:#ff00ff;stroke-linejoin:miter;stroke-width:1.5;" x="338.688" xlink:href="#mf6aba627c1" y="166.491532"/>
    </g>
   </g>
   <g id="line2d_42">
    <path style="fill:none;stroke:#ff00ff;stroke-linecap:square;stroke-width:1.5;"/>
    <g/>
   </g>
   <g id="line2d_43">
    <path clip-path="url(#p7ee5c9ad41)" d="M 258.381502 166.491532 
" style="fill:none;stroke:#ff00ff;stroke-linecap:square;stroke-width:1.5;"/>
    <defs>
     <path d="M -12 12 
L 12 -12 
M -12 -12 
L 12 12 
" id="m27131ffb40" style="stroke:#ff00ff;"/>
    </defs>
    <g clip-path="url(#p7ee5c9ad41)">
     <use style="fill:#ff00ff;stroke:#ff00ff;" x="258.381502" xlink:href="#m27131ffb40" y="166.491532"/>
    </g>
   </g>
   <g id="line2d_44">
    <defs>
     <path d="M 0 1.5 
C 0.397805 1.5 0.77937 1.341951 1.06066 1.06066 
C 1.341951 0.77937 1.5 0.397805 1.5 0 
C 1.5 -0.397805 1.341951 -0.77937 1.06066 -1.06066 
C 0.77937 -1.341951 0.397805 -1.5 0 -1.5 
C -0.397805 -1.5 -0.77937 -1.341951 -1.06066 -1.06066 
C -1.341951 -0.77937 -1.5 -0.397805 -1.5 0 
C -1.5 0.397805 -1.341951 0.77937 -1.06066 1.06066 
C -0.77937 1.341951 -0.397805 1.5 0 1.5 
z
" id="m81ee15ec46" style="stroke:#ff7500;"/>
    </defs>
    <g>
     <use style="fill:#ff7500;stroke:#ff7500;" x="258.261908" xlink:href="#m81ee15ec46" y="177.606424"/>
     <use style="fill:#ff7500;stroke:#ff7500;" x="258.261908" xlink:href="#m81ee15ec46" y="177.606424"/>
    </g>
   </g>
   <g id="line2d_45">
    <path d="M 146.686244 298.944 
L 146.686244 298.480879 
L 147.848613 298.480879 
L 147.848613 298.017759 
L 151.834513 298.017759 
L 151.834513 297.554638 
L 155.412374 297.554638 
L 155.412374 296.628397 
L 156.052535 296.628397 
L 156.052535 296.165277 
L 156.717545 296.165277 
L 156.717545 295.702156 
L 157.243392 295.702156 
L 157.289376 294.312795 
L 157.483465 294.312795 
L 157.483465 293.849674 
L 158.0201 293.849674 
L 158.096998 292.923433 
L 158.228039 292.923433 
L 158.228039 291.997192 
L 158.390468 291.997192 
L 158.390468 291.534072 
L 158.721434 291.534072 
L 158.721434 291.070951 
L 158.952561 291.070951 
L 159.046236 290.14471 
L 159.456591 290.14471 
L 159.456591 289.68159 
L 159.608019 289.68159 
L 159.608019 289.218469 
L 159.867418 289.218469 
L 159.926735 288.292228 
L 160.064363 288.292228 
L 160.083935 286.439746 
L 160.31711 286.439746 
L 160.326759 285.513505 
L 160.661129 285.513505 
L 160.661129 284.587264 
L 160.886762 284.587264 
L 160.886762 284.124143 
L 161.338558 284.124143 
L 161.402155 282.734782 
L 161.492608 282.734782 
L 161.555647 281.34542 
L 161.832113 281.34542 
L 161.920369 280.419179 
L 161.946759 280.419179 
L 161.946759 279.492938 
L 162.121678 279.492938 
L 162.182487 278.566697 
L 162.406513 278.566697 
L 162.406513 278.103577 
L 162.52596 278.103577 
L 162.52596 277.640456 
L 162.644595 277.640456 
L 162.644595 277.177336 
L 163.135875 277.177336 
L 163.135875 276.714215 
L 163.517565 276.714215 
L 163.533623 275.324854 
L 163.693398 275.324854 
L 163.693398 274.861733 
L 163.89108 274.861733 
L 163.953867 273.935492 
L 164.448194 273.935492 
L 164.448194 273.472371 
L 164.780093 273.472371 
L 164.780093 273.009251 
L 165.127781 273.009251 
L 165.171671 272.08301 
L 165.317182 272.08301 
L 165.317182 271.156769 
L 165.583216 271.156769 
L 165.682828 269.304287 
L 165.739495 269.304287 
L 165.774819 267.914925 
L 165.85228 267.914925 
L 165.85228 267.451805 
L 165.96434 267.451805 
L 165.96434 266.525564 
L 166.138005 266.525564 
L 166.138005 265.599323 
L 166.789256 265.599323 
L 166.849082 263.746841 
L 167.0929 263.746841 
L 167.105982 262.357479 
L 167.229781 262.357479 
L 167.268694 260.968117 
L 167.449146 260.968117 
L 167.449146 260.041876 
L 167.998212 260.041876 
L 167.998212 259.578756 
L 168.109685 259.578756 
L 168.109685 259.115635 
L 168.330516 259.115635 
L 168.360967 257.263153 
L 168.602679 257.263153 
L 168.704401 255.410671 
L 168.929657 255.410671 
L 169.029495 254.48443 
L 169.371623 254.48443 
L 169.446113 253.095069 
L 169.819463 253.095069 
L 169.830653 251.705707 
L 170.124596 251.705707 
L 170.124596 251.242587 
L 170.473066 251.242587 
L 170.483844 249.853225 
L 170.612667 249.853225 
L 170.655397 247.537622 
L 170.983054 247.537622 
L 171.092653 245.68514 
L 171.463278 245.68514 
L 171.509057 244.758899 
L 171.806224 244.758899 
L 171.806224 244.295779 
L 171.945501 244.295779 
L 171.945501 243.832658 
L 172.298614 243.832658 
L 172.376122 242.443297 
L 172.8058 242.443297 
L 172.89048 241.053935 
L 172.97475 241.053935 
L 172.97475 240.127694 
L 173.435646 240.127694 
L 173.485609 238.275212 
L 174.464511 238.275212 
L 174.532984 236.88585 
L 174.959126 236.88585 
L 175.009071 235.033368 
L 175.293514 235.033368 
L 175.293514 234.570248 
L 175.829035 234.570248 
L 175.876553 231.328404 
L 175.982999 231.328404 
L 176.00264 229.012802 
L 176.729302 229.012802 
L 176.729302 228.549681 
L 177.266964 228.549681 
L 177.266964 227.62344 
L 177.599702 227.62344 
L 177.599702 226.697199 
L 177.866336 226.697199 
L 177.866336 225.770958 
L 178.034867 225.770958 
L 178.034867 224.844717 
L 178.174075 224.844717 
L 178.232904 223.455355 
L 179.042924 223.455355 
L 179.092322 222.065994 
L 179.154693 222.065994 
L 179.154693 221.139753 
L 179.728427 221.139753 
L 179.728427 220.676632 
L 179.845353 220.676632 
L 179.883107 218.82415 
L 181.137967 218.82415 
L 181.137967 217.897909 
L 181.298082 217.897909 
L 181.298082 217.434789 
L 181.727431 217.434789 
L 181.727431 216.971668 
L 182.218083 216.971668 
L 182.218083 216.045427 
L 182.352263 216.045427 
L 182.384967 214.656066 
L 184.119975 214.656066 
L 184.228096 213.266704 
L 184.298992 213.266704 
L 184.298992 212.803583 
L 184.692204 212.803583 
L 184.692204 212.340463 
L 185.053396 212.340463 
L 185.053396 211.414222 
L 185.950484 211.414222 
L 185.950484 210.951101 
L 186.687051 210.951101 
L 186.687051 210.487981 
L 187.281035 210.487981 
L 187.281035 210.02486 
L 188.3188 210.02486 
L 188.3188 209.098619 
L 189.411459 209.098619 
L 189.411459 208.172378 
L 190.480801 208.172378 
L 190.480801 207.709258 
L 190.848313 207.709258 
L 190.848313 206.783017 
L 192.079186 206.783017 
L 192.079186 206.319896 
L 192.736598 206.319896 
L 192.736598 205.856776 
L 192.92358 205.856776 
L 192.92358 205.393655 
L 194.015017 205.393655 
L 194.015017 204.467414 
L 194.947021 204.467414 
L 194.947021 204.004294 
L 195.640528 204.004294 
L 195.640528 203.541173 
L 195.768651 203.541173 
L 195.768651 202.614932 
L 196.025845 202.614932 
L 196.025845 201.688691 
L 197.681984 201.688691 
L 197.681984 201.225571 
L 197.856654 201.225571 
L 197.856654 200.299329 
L 198.602928 200.299329 
L 198.602928 199.836209 
L 199.094416 199.836209 
L 199.094416 198.909968 
L 199.895624 198.909968 
L 199.9315 197.520606 
L 200.464816 197.520606 
L 200.464816 197.057486 
L 201.368842 197.057486 
L 201.368842 196.594365 
L 202.155724 196.594365 
L 202.155724 195.668124 
L 204.401408 195.668124 
L 204.401408 194.741883 
L 204.987746 194.741883 
L 204.987746 194.278763 
L 205.672873 194.278763 
L 205.672873 193.815642 
L 206.275453 193.815642 
L 206.275453 193.352522 
L 206.768674 193.352522 
L 206.768674 192.889401 
L 210.182961 192.889401 
L 210.182961 192.426281 
L 210.391857 192.426281 
L 210.391857 191.50004 
L 210.987046 191.50004 
L 210.987046 190.573799 
L 211.273556 190.573799 
L 211.273556 190.110678 
L 211.638559 190.110678 
L 211.638559 189.647558 
L 217.331968 189.647558 
L 217.331968 189.184437 
L 218.682594 189.184437 
L 218.682594 188.721316 
L 219.865455 188.721316 
L 219.865455 188.258196 
L 221.551472 188.258196 
L 221.551472 187.795075 
L 223.986853 187.795075 
L 223.986853 186.868834 
L 224.859078 186.868834 
L 224.921184 185.479473 
L 230.663251 185.479473 
L 230.663251 185.016352 
L 231.728541 185.016352 
L 231.728541 184.090111 
L 234.913831 184.090111 
L 234.913831 183.626991 
L 236.714414 183.626991 
L 236.714414 183.16387 
L 239.064834 183.16387 
L 239.064834 182.70075 
L 242.361642 182.70075 
L 242.361642 182.237629 
L 242.777964 182.237629 
L 242.777964 181.311388 
L 246.673641 181.311388 
L 246.673641 180.848268 
L 249.836438 180.848268 
L 249.836438 179.922027 
L 252.073679 179.922027 
L 252.073679 179.458906 
L 252.955195 179.458906 
L 252.955195 178.995786 
L 253.158202 178.995786 
L 253.158202 178.532665 
L 258.204127 178.532665 
L 258.261908 177.606424 
L 338.688 177.606424 
L 338.688 177.606424 
" style="fill:none;stroke:#ff7500;stroke-linecap:square;stroke-width:1.5;"/>
   </g>
   <g id="line2d_46">
    <defs>
     <path d="M 0 -6 
L -1.347084 -1.854102 
L -5.706339 -1.854102 
L -2.179628 0.708204 
L -3.526712 4.854102 
L -0 2.291796 
L 3.526712 4.854102 
L 2.179628 0.708204 
L 5.706339 -1.854102 
L 1.347084 -1.854102 
z
" id="mfe35ba83e9" style="stroke:#ff7500;stroke-linejoin:bevel;stroke-width:1.5;"/>
    </defs>
    <g>
     <use style="fill-opacity:0;stroke:#ff7500;stroke-linejoin:bevel;stroke-width:1.5;" x="189.411459" xlink:href="#mfe35ba83e9" y="208.172378"/>
     <use style="fill-opacity:0;stroke:#ff7500;stroke-linejoin:bevel;stroke-width:1.5;" x="258.261908" xlink:href="#mfe35ba83e9" y="178.069545"/>
     <use style="fill-opacity:0;stroke:#ff7500;stroke-linejoin:bevel;stroke-width:1.5;" x="258.261908" xlink:href="#mfe35ba83e9" y="177.606424"/>
     <use style="fill-opacity:0;stroke:#ff7500;stroke-linejoin:bevel;stroke-width:1.5;" x="258.261908" xlink:href="#mfe35ba83e9" y="177.606424"/>
     <use style="fill-opacity:0;stroke:#ff7500;stroke-linejoin:bevel;stroke-width:1.5;" x="338.688" xlink:href="#mfe35ba83e9" y="177.606424"/>
    </g>
   </g>
   <g id="line2d_47">
    <path style="fill:none;stroke:#ff7500;stroke-linecap:square;stroke-width:1.5;"/>
    <g/>
   </g>
   <g id="line2d_48">
    <path clip-path="url(#p7ee5c9ad41)" d="M 258.377178 177.606424 
" style="fill:none;stroke:#ff7500;stroke-linecap:square;stroke-width:1.5;"/>
    <defs>
     <path d="M -12 12 
L 12 -12 
M -12 -12 
L 12 12 
" id="m8dac496519" style="stroke:#ff7500;"/>
    </defs>
    <g clip-path="url(#p7ee5c9ad41)">
     <use style="fill:#ff7500;stroke:#ff7500;" x="258.377178" xlink:href="#m8dac496519" y="177.606424"/>
    </g>
   </g>
   <g id="line2d_49">
    <path d="M 338.688 177.606424 
L 369.60768 293.571802 
" style="fill:none;stroke:#ff7500;stroke-linecap:square;stroke-width:1.5;"/>
    <g>
     <use style="fill-opacity:0;stroke:#ff7500;stroke-linejoin:bevel;stroke-width:1.5;" x="338.688" xlink:href="#mfe35ba83e9" y="177.606424"/>
     <use style="fill-opacity:0;stroke:#ff7500;stroke-linejoin:bevel;stroke-width:1.5;" x="369.60768" xlink:href="#mfe35ba83e9" y="293.571802"/>
    </g>
   </g>
   <g id="line2d_50">
    <path d="M 338.688 175.290821 
L 369.60768 207.616634 
" style="fill:none;stroke:#000080;stroke-linecap:square;stroke-width:1.5;"/>
    <g>
     <use style="fill-opacity:0;stroke:#000080;stroke-width:1.5;" x="338.688" xlink:href="#m5f9e755cc0" y="175.290821"/>
     <use style="fill-opacity:0;stroke:#000080;stroke-width:1.5;" x="369.60768" xlink:href="#m5f9e755cc0" y="207.616634"/>
    </g>
   </g>
   <g id="line2d_51">
    <path d="M 338.688 166.491532 
L 369.60768 121.661465 
" style="fill:none;stroke:#ff00ff;stroke-linecap:square;stroke-width:1.5;"/>
    <g>
     <use style="fill-opacity:0;stroke:#ff00ff;stroke-linejoin:miter;stroke-width:1.5;" x="338.688" xlink:href="#mf6aba627c1" y="166.491532"/>
     <use style="fill-opacity:0;stroke:#ff00ff;stroke-linejoin:miter;stroke-width:1.5;" x="369.60768" xlink:href="#mf6aba627c1" y="121.661465"/>
    </g>
   </g>
   <g id="line2d_52">
    <path d="M 338.688 298.944 
L 338.688 30.334099 
" style="fill:none;stroke:#000000;stroke-linecap:square;stroke-width:1.5;"/>
   </g>
   <g id="patch_3">
    <path d="M 57.6 298.944 
L 57.6 27.648 
" style="fill:none;stroke:#000000;stroke-linecap:square;stroke-linejoin:miter;stroke-width:0.8;"/>
   </g>
   <g id="patch_4">
    <path d="M 338.688 298.944 
L 338.688 27.648 
" style="fill:none;stroke:#000000;stroke-linecap:square;stroke-linejoin:miter;stroke-width:0.8;"/>
   </g>
   <g id="patch_5">
    <path d="M 57.6 298.944 
L 338.688 298.944 
" style="fill:none;stroke:#000000;stroke-linecap:square;stroke-linejoin:miter;stroke-width:0.8;"/>
   </g>
   <g id="patch_6">
    <path d="M 57.6 27.648 
L 338.688 27.648 
" style="fill:none;stroke:#000000;stroke-linecap:square;stroke-linejoin:miter;stroke-width:0.8;"/>
   </g>
   <g id="text_13">
    <!-- SMS-EMOA- -->
    <g transform="translate(375.22944 298.262739)scale(0.17 -0.17)">
     <defs>
      <path d="M 53.515625 70.515625 
L 53.515625 60.890625 
Q 47.90625 63.578125 42.921875 64.890625 
Q 37.9375 66.21875 33.296875 66.21875 
Q 25.25 66.21875 20.875 63.09375 
Q 16.5 59.96875 16.5 54.203125 
Q 16.5 49.359375 19.40625 46.890625 
Q 22.3125 44.4375 30.421875 42.921875 
L 36.375 41.703125 
Q 47.40625 39.59375 52.65625 34.296875 
Q 57.90625 29 57.90625 20.125 
Q 57.90625 9.515625 50.796875 4.046875 
Q 43.703125 -1.421875 29.984375 -1.421875 
Q 24.8125 -1.421875 18.96875 -0.25 
Q 13.140625 0.921875 6.890625 3.21875 
L 6.890625 13.375 
Q 12.890625 10.015625 18.65625 8.296875 
Q 24.421875 6.59375 29.984375 6.59375 
Q 38.421875 6.59375 43.015625 9.90625 
Q 47.609375 13.234375 47.609375 19.390625 
Q 47.609375 24.75 44.3125 27.78125 
Q 41.015625 30.8125 33.5 32.328125 
L 27.484375 33.5 
Q 16.453125 35.6875 11.515625 40.375 
Q 6.59375 45.0625 6.59375 53.421875 
Q 6.59375 63.09375 13.40625 68.65625 
Q 20.21875 74.21875 32.171875 74.21875 
Q 37.3125 74.21875 42.625 73.28125 
Q 47.953125 72.359375 53.515625 70.515625 
z
" id="DejaVuSans-83"/>
      <path d="M 9.8125 72.90625 
L 24.515625 72.90625 
L 43.109375 23.296875 
L 61.8125 72.90625 
L 76.515625 72.90625 
L 76.515625 0 
L 66.890625 0 
L 66.890625 64.015625 
L 48.09375 14.015625 
L 38.1875 14.015625 
L 19.390625 64.015625 
L 19.390625 0 
L 9.8125 0 
z
" id="DejaVuSans-77"/>
      <path d="M 9.8125 72.90625 
L 55.90625 72.90625 
L 55.90625 64.59375 
L 19.671875 64.59375 
L 19.671875 43.015625 
L 54.390625 43.015625 
L 54.390625 34.71875 
L 19.671875 34.71875 
L 19.671875 8.296875 
L 56.78125 8.296875 
L 56.78125 0 
L 9.8125 0 
z
" id="DejaVuSans-69"/>
      <path d="M 39.40625 66.21875 
Q 28.65625 66.21875 22.328125 58.203125 
Q 16.015625 50.203125 16.015625 36.375 
Q 16.015625 22.609375 22.328125 14.59375 
Q 28.65625 6.59375 39.40625 6.59375 
Q 50.140625 6.59375 56.421875 14.59375 
Q 62.703125 22.609375 62.703125 36.375 
Q 62.703125 50.203125 56.421875 58.203125 
Q 50.140625 66.21875 39.40625 66.21875 
z
M 39.40625 74.21875 
Q 54.734375 74.21875 63.90625 63.9375 
Q 73.09375 53.65625 73.09375 36.375 
Q 73.09375 19.140625 63.90625 8.859375 
Q 54.734375 -1.421875 39.40625 -1.421875 
Q 24.03125 -1.421875 14.8125 8.828125 
Q 5.609375 19.09375 5.609375 36.375 
Q 5.609375 53.65625 14.8125 63.9375 
Q 24.03125 74.21875 39.40625 74.21875 
z
" id="DejaVuSans-79"/>
      <path d="M 34.1875 63.1875 
L 20.796875 26.90625 
L 47.609375 26.90625 
z
M 28.609375 72.90625 
L 39.796875 72.90625 
L 67.578125 0 
L 57.328125 0 
L 50.6875 18.703125 
L 17.828125 18.703125 
L 11.1875 0 
L 0.78125 0 
z
" id="DejaVuSans-65"/>
     </defs>
     <use xlink:href="#DejaVuSans-83"/>
     <use x="63.476562" xlink:href="#DejaVuSans-77"/>
     <use x="149.755859" xlink:href="#DejaVuSans-83"/>
     <use x="213.232422" xlink:href="#DejaVuSans-45"/>
     <use x="249.316406" xlink:href="#DejaVuSans-69"/>
     <use x="312.5" xlink:href="#DejaVuSans-77"/>
     <use x="398.779297" xlink:href="#DejaVuSans-79"/>
     <use x="475.740234" xlink:href="#DejaVuSans-65"/>
     <use x="541.898438" xlink:href="#DejaVuSans-45"/>
    </g>
   </g>
   <g id="text_14">
    <!-- COMO-100  -->
    <g transform="translate(375.22944 212.307571)scale(0.17 -0.17)">
     <defs>
      <path d="M 64.40625 67.28125 
L 64.40625 56.890625 
Q 59.421875 61.53125 53.78125 63.8125 
Q 48.140625 66.109375 41.796875 66.109375 
Q 29.296875 66.109375 22.65625 58.46875 
Q 16.015625 50.828125 16.015625 36.375 
Q 16.015625 21.96875 22.65625 14.328125 
Q 29.296875 6.6875 41.796875 6.6875 
Q 48.140625 6.6875 53.78125 8.984375 
Q 59.421875 11.28125 64.40625 15.921875 
L 64.40625 5.609375 
Q 59.234375 2.09375 53.4375 0.328125 
Q 47.65625 -1.421875 41.21875 -1.421875 
Q 24.65625 -1.421875 15.125 8.703125 
Q 5.609375 18.84375 5.609375 36.375 
Q 5.609375 53.953125 15.125 64.078125 
Q 24.65625 74.21875 41.21875 74.21875 
Q 47.75 74.21875 53.53125 72.484375 
Q 59.328125 70.75 64.40625 67.28125 
z
" id="DejaVuSans-67"/>
     </defs>
     <use xlink:href="#DejaVuSans-67"/>
     <use x="69.824219" xlink:href="#DejaVuSans-79"/>
     <use x="148.535156" xlink:href="#DejaVuSans-77"/>
     <use x="234.814453" xlink:href="#DejaVuSans-79"/>
     <use x="316.275391" xlink:href="#DejaVuSans-45"/>
     <use x="352.359375" xlink:href="#DejaVuSans-49"/>
     <use x="415.982422" xlink:href="#DejaVuSans-48"/>
     <use x="479.605469" xlink:href="#DejaVuSans-48"/>
     <use x="543.228516" xlink:href="#DejaVuSans-32"/>
    </g>
   </g>
   <g id="text_15">
    <!-- NSGA-II-M -->
    <g transform="translate(375.22944 126.352403)scale(0.17 -0.17)">
     <defs>
      <path d="M 9.8125 72.90625 
L 23.09375 72.90625 
L 55.421875 11.921875 
L 55.421875 72.90625 
L 64.984375 72.90625 
L 64.984375 0 
L 51.703125 0 
L 19.390625 60.984375 
L 19.390625 0 
L 9.8125 0 
z
" id="DejaVuSans-78"/>
      <path d="M 59.515625 10.40625 
L 59.515625 29.984375 
L 43.40625 29.984375 
L 43.40625 38.09375 
L 69.28125 38.09375 
L 69.28125 6.78125 
Q 63.578125 2.734375 56.6875 0.65625 
Q 49.8125 -1.421875 42 -1.421875 
Q 24.90625 -1.421875 15.25 8.5625 
Q 5.609375 18.5625 5.609375 36.375 
Q 5.609375 54.25 15.25 64.234375 
Q 24.90625 74.21875 42 74.21875 
Q 49.125 74.21875 55.546875 72.453125 
Q 61.96875 70.703125 67.390625 67.28125 
L 67.390625 56.78125 
Q 61.921875 61.421875 55.765625 63.765625 
Q 49.609375 66.109375 42.828125 66.109375 
Q 29.4375 66.109375 22.71875 58.640625 
Q 16.015625 51.171875 16.015625 36.375 
Q 16.015625 21.625 22.71875 14.15625 
Q 29.4375 6.6875 42.828125 6.6875 
Q 48.046875 6.6875 52.140625 7.59375 
Q 56.25 8.5 59.515625 10.40625 
z
" id="DejaVuSans-71"/>
      <path d="M 9.8125 72.90625 
L 19.671875 72.90625 
L 19.671875 0 
L 9.8125 0 
z
" id="DejaVuSans-73"/>
     </defs>
     <use xlink:href="#DejaVuSans-78"/>
     <use x="74.804688" xlink:href="#DejaVuSans-83"/>
     <use x="138.28125" xlink:href="#DejaVuSans-71"/>
     <use x="215.771484" xlink:href="#DejaVuSans-65"/>
     <use x="281.929688" xlink:href="#DejaVuSans-45"/>
     <use x="318.013672" xlink:href="#DejaVuSans-73"/>
     <use x="347.505859" xlink:href="#DejaVuSans-73"/>
     <use x="376.998047" xlink:href="#DejaVuSans-45"/>
     <use x="413.082031" xlink:href="#DejaVuSans-77"/>
    </g>
   </g>
   <g id="text_16">
    <!-- best 2016 -->
    <g transform="translate(375.22944 40.397235)scale(0.17 -0.17)">
     <defs>
      <path d="M 48.6875 27.296875 
Q 48.6875 37.203125 44.609375 42.84375 
Q 40.53125 48.484375 33.40625 48.484375 
Q 26.265625 48.484375 22.1875 42.84375 
Q 18.109375 37.203125 18.109375 27.296875 
Q 18.109375 17.390625 22.1875 11.75 
Q 26.265625 6.109375 33.40625 6.109375 
Q 40.53125 6.109375 44.609375 11.75 
Q 48.6875 17.390625 48.6875 27.296875 
z
M 18.109375 46.390625 
Q 20.953125 51.265625 25.265625 53.625 
Q 29.59375 56 35.59375 56 
Q 45.5625 56 51.78125 48.09375 
Q 58.015625 40.1875 58.015625 27.296875 
Q 58.015625 14.40625 51.78125 6.484375 
Q 45.5625 -1.421875 35.59375 -1.421875 
Q 29.59375 -1.421875 25.265625 0.953125 
Q 20.953125 3.328125 18.109375 8.203125 
L 18.109375 0 
L 9.078125 0 
L 9.078125 75.984375 
L 18.109375 75.984375 
z
" id="DejaVuSans-98"/>
     </defs>
     <use xlink:href="#DejaVuSans-98"/>
     <use x="63.476562" xlink:href="#DejaVuSans-101"/>
     <use x="125" xlink:href="#DejaVuSans-115"/>
     <use x="177.099609" xlink:href="#DejaVuSans-116"/>
     <use x="216.308594" xlink:href="#DejaVuSans-32"/>
     <use x="248.095703" xlink:href="#DejaVuSans-50"/>
     <use x="311.71875" xlink:href="#DejaVuSans-48"/>
     <use x="375.341797" xlink:href="#DejaVuSans-49"/>
     <use x="438.964844" xlink:href="#DejaVuSans-54"/>
    </g>
   </g>
   <g id="text_17">
    <!-- bbob-biobj f45, 5-D -->
    <g transform="translate(60.41088 38.111366)scale(0.102 -0.102)">
     <defs>
      <path d="M 9.421875 54.6875 
L 18.40625 54.6875 
L 18.40625 -0.984375 
Q 18.40625 -11.421875 14.421875 -16.109375 
Q 10.453125 -20.796875 1.609375 -20.796875 
L -1.8125 -20.796875 
L -1.8125 -13.1875 
L 0.59375 -13.1875 
Q 5.71875 -13.1875 7.5625 -10.8125 
Q 9.421875 -8.453125 9.421875 -0.984375 
z
M 9.421875 75.984375 
L 18.40625 75.984375 
L 18.40625 64.59375 
L 9.421875 64.59375 
z
" id="DejaVuSans-106"/>
      <path d="M 10.796875 72.90625 
L 49.515625 72.90625 
L 49.515625 64.59375 
L 19.828125 64.59375 
L 19.828125 46.734375 
Q 21.96875 47.46875 24.109375 47.828125 
Q 26.265625 48.1875 28.421875 48.1875 
Q 40.625 48.1875 47.75 41.5 
Q 54.890625 34.8125 54.890625 23.390625 
Q 54.890625 11.625 47.5625 5.09375 
Q 40.234375 -1.421875 26.90625 -1.421875 
Q 22.3125 -1.421875 17.546875 -0.640625 
Q 12.796875 0.140625 7.71875 1.703125 
L 7.71875 11.625 
Q 12.109375 9.234375 16.796875 8.0625 
Q 21.484375 6.890625 26.703125 6.890625 
Q 35.15625 6.890625 40.078125 11.328125 
Q 45.015625 15.765625 45.015625 23.390625 
Q 45.015625 31 40.078125 35.4375 
Q 35.15625 39.890625 26.703125 39.890625 
Q 22.75 39.890625 18.8125 39.015625 
Q 14.890625 38.140625 10.796875 36.28125 
z
" id="DejaVuSans-53"/>
      <path d="M 19.671875 64.796875 
L 19.671875 8.109375 
L 31.59375 8.109375 
Q 46.6875 8.109375 53.6875 14.9375 
Q 60.6875 21.78125 60.6875 36.53125 
Q 60.6875 51.171875 53.6875 57.984375 
Q 46.6875 64.796875 31.59375 64.796875 
z
M 9.8125 72.90625 
L 30.078125 72.90625 
Q 51.265625 72.90625 61.171875 64.09375 
Q 71.09375 55.28125 71.09375 36.53125 
Q 71.09375 17.671875 61.125 8.828125 
Q 51.171875 0 30.078125 0 
L 9.8125 0 
z
" id="DejaVuSans-68"/>
     </defs>
     <use xlink:href="#DejaVuSans-98"/>
     <use x="63.476562" xlink:href="#DejaVuSans-98"/>
     <use x="126.953125" xlink:href="#DejaVuSans-111"/>
     <use x="188.134766" xlink:href="#DejaVuSans-98"/>
     <use x="251.611328" xlink:href="#DejaVuSans-45"/>
     <use x="287.695312" xlink:href="#DejaVuSans-98"/>
     <use x="351.171875" xlink:href="#DejaVuSans-105"/>
     <use x="378.955078" xlink:href="#DejaVuSans-111"/>
     <use x="440.136719" xlink:href="#DejaVuSans-98"/>
     <use x="503.613281" xlink:href="#DejaVuSans-106"/>
     <use x="531.396484" xlink:href="#DejaVuSans-32"/>
     <use x="563.183594" xlink:href="#DejaVuSans-102"/>
     <use x="598.388672" xlink:href="#DejaVuSans-52"/>
     <use x="662.011719" xlink:href="#DejaVuSans-53"/>
     <use x="725.634766" xlink:href="#DejaVuSans-44"/>
     <use x="757.421875" xlink:href="#DejaVuSans-32"/>
     <use x="789.208984" xlink:href="#DejaVuSans-53"/>
     <use x="852.832031" xlink:href="#DejaVuSans-45"/>
     <use x="888.916016" xlink:href="#DejaVuSans-68"/>
    </g>
    <!-- 58 targets: 1..-1.0e-4 -->
    <g transform="translate(60.41088 49.533135)scale(0.102 -0.102)">
     <defs>
      <path d="M 11.71875 12.40625 
L 22.015625 12.40625 
L 22.015625 0 
L 11.71875 0 
z
M 11.71875 51.703125 
L 22.015625 51.703125 
L 22.015625 39.3125 
L 11.71875 39.3125 
z
" id="DejaVuSans-58"/>
     </defs>
     <use xlink:href="#DejaVuSans-53"/>
     <use x="63.623047" xlink:href="#DejaVuSans-56"/>
     <use x="127.246094" xlink:href="#DejaVuSans-32"/>
     <use x="159.033203" xlink:href="#DejaVuSans-116"/>
     <use x="198.242188" xlink:href="#DejaVuSans-97"/>
     <use x="259.521484" xlink:href="#DejaVuSans-114"/>
     <use x="298.884766" xlink:href="#DejaVuSans-103"/>
     <use x="362.361328" xlink:href="#DejaVuSans-101"/>
     <use x="423.884766" xlink:href="#DejaVuSans-116"/>
     <use x="463.09375" xlink:href="#DejaVuSans-115"/>
     <use x="515.193359" xlink:href="#DejaVuSans-58"/>
     <use x="548.884766" xlink:href="#DejaVuSans-32"/>
     <use x="580.671875" xlink:href="#DejaVuSans-49"/>
     <use x="644.294922" xlink:href="#DejaVuSans-46"/>
     <use x="676.082031" xlink:href="#DejaVuSans-46"/>
     <use x="707.869141" xlink:href="#DejaVuSans-45"/>
     <use x="743.953125" xlink:href="#DejaVuSans-49"/>
     <use x="807.576172" xlink:href="#DejaVuSans-46"/>
     <use x="839.363281" xlink:href="#DejaVuSans-48"/>
     <use x="902.986328" xlink:href="#DejaVuSans-101"/>
     <use x="964.509766" xlink:href="#DejaVuSans-45"/>
     <use x="1000.59375" xlink:href="#DejaVuSans-52"/>
    </g>
    <!-- 10 instances -->
    <g transform="translate(60.41088 60.954904)scale(0.102 -0.102)">
     <use xlink:href="#DejaVuSans-49"/>
     <use x="63.623047" xlink:href="#DejaVuSans-48"/>
     <use x="127.246094" xlink:href="#DejaVuSans-32"/>
     <use x="159.033203" xlink:href="#DejaVuSans-105"/>
     <use x="186.816406" xlink:href="#DejaVuSans-110"/>
     <use x="250.195312" xlink:href="#DejaVuSans-115"/>
     <use x="302.294922" xlink:href="#DejaVuSans-116"/>
     <use x="341.503906" xlink:href="#DejaVuSans-97"/>
     <use x="402.783203" xlink:href="#DejaVuSans-110"/>
     <use x="466.162109" xlink:href="#DejaVuSans-99"/>
     <use x="521.142578" xlink:href="#DejaVuSans-101"/>
     <use x="582.666016" xlink:href="#DejaVuSans-115"/>
    </g>
   </g>
   <g id="text_18">
    <!-- v2.4.19, hv-hash=ff0e71e8cd978373 -->
    <g style="fill:#808080;" transform="translate(104.697125 294.151352)scale(0.1 -0.1)">
     <defs>
      <path d="M 10.984375 1.515625 
L 10.984375 10.5 
Q 14.703125 8.734375 18.5 7.8125 
Q 22.3125 6.890625 25.984375 6.890625 
Q 35.75 6.890625 40.890625 13.453125 
Q 46.046875 20.015625 46.78125 33.40625 
Q 43.953125 29.203125 39.59375 26.953125 
Q 35.25 24.703125 29.984375 24.703125 
Q 19.046875 24.703125 12.671875 31.3125 
Q 6.296875 37.9375 6.296875 49.421875 
Q 6.296875 60.640625 12.9375 67.421875 
Q 19.578125 74.21875 30.609375 74.21875 
Q 43.265625 74.21875 49.921875 64.515625 
Q 56.59375 54.828125 56.59375 36.375 
Q 56.59375 19.140625 48.40625 8.859375 
Q 40.234375 -1.421875 26.421875 -1.421875 
Q 22.703125 -1.421875 18.890625 -0.6875 
Q 15.09375 0.046875 10.984375 1.515625 
z
M 30.609375 32.421875 
Q 37.25 32.421875 41.125 36.953125 
Q 45.015625 41.5 45.015625 49.421875 
Q 45.015625 57.28125 41.125 61.84375 
Q 37.25 66.40625 30.609375 66.40625 
Q 23.96875 66.40625 20.09375 61.84375 
Q 16.21875 57.28125 16.21875 49.421875 
Q 16.21875 41.5 20.09375 36.953125 
Q 23.96875 32.421875 30.609375 32.421875 
z
" id="DejaVuSans-57"/>
      <path d="M 54.890625 33.015625 
L 54.890625 0 
L 45.90625 0 
L 45.90625 32.71875 
Q 45.90625 40.484375 42.875 44.328125 
Q 39.84375 48.1875 33.796875 48.1875 
Q 26.515625 48.1875 22.3125 43.546875 
Q 18.109375 38.921875 18.109375 30.90625 
L 18.109375 0 
L 9.078125 0 
L 9.078125 75.984375 
L 18.109375 75.984375 
L 18.109375 46.1875 
Q 21.34375 51.125 25.703125 53.5625 
Q 30.078125 56 35.796875 56 
Q 45.21875 56 50.046875 50.171875 
Q 54.890625 44.34375 54.890625 33.015625 
z
" id="DejaVuSans-104"/>
      <path d="M 10.59375 45.40625 
L 73.1875 45.40625 
L 73.1875 37.203125 
L 10.59375 37.203125 
z
M 10.59375 25.484375 
L 73.1875 25.484375 
L 73.1875 17.1875 
L 10.59375 17.1875 
z
" id="DejaVuSans-61"/>
      <path d="M 8.203125 72.90625 
L 55.078125 72.90625 
L 55.078125 68.703125 
L 28.609375 0 
L 18.3125 0 
L 43.21875 64.59375 
L 8.203125 64.59375 
z
" id="DejaVuSans-55"/>
      <path d="M 40.578125 39.3125 
Q 47.65625 37.796875 51.625 33 
Q 55.609375 28.21875 55.609375 21.1875 
Q 55.609375 10.40625 48.1875 4.484375 
Q 40.765625 -1.421875 27.09375 -1.421875 
Q 22.515625 -1.421875 17.65625 -0.515625 
Q 12.796875 0.390625 7.625 2.203125 
L 7.625 11.71875 
Q 11.71875 9.328125 16.59375 8.109375 
Q 21.484375 6.890625 26.8125 6.890625 
Q 36.078125 6.890625 40.9375 10.546875 
Q 45.796875 14.203125 45.796875 21.1875 
Q 45.796875 27.640625 41.28125 31.265625 
Q 36.765625 34.90625 28.71875 34.90625 
L 20.21875 34.90625 
L 20.21875 43.015625 
L 29.109375 43.015625 
Q 36.375 43.015625 40.234375 45.921875 
Q 44.09375 48.828125 44.09375 54.296875 
Q 44.09375 59.90625 40.109375 62.90625 
Q 36.140625 65.921875 28.71875 65.921875 
Q 24.65625 65.921875 20.015625 65.03125 
Q 15.375 64.15625 9.8125 62.3125 
L 9.8125 71.09375 
Q 15.4375 72.65625 20.34375 73.4375 
Q 25.25 74.21875 29.59375 74.21875 
Q 40.828125 74.21875 47.359375 69.109375 
Q 53.90625 64.015625 53.90625 55.328125 
Q 53.90625 49.265625 50.4375 45.09375 
Q 46.96875 40.921875 40.578125 39.3125 
z
" id="DejaVuSans-51"/>
     </defs>
     <use xlink:href="#DejaVuSans-118"/>
     <use x="59.179688" xlink:href="#DejaVuSans-50"/>
     <use x="122.802734" xlink:href="#DejaVuSans-46"/>
     <use x="154.589844" xlink:href="#DejaVuSans-52"/>
     <use x="218.212891" xlink:href="#DejaVuSans-46"/>
     <use x="250" xlink:href="#DejaVuSans-49"/>
     <use x="313.623047" xlink:href="#DejaVuSans-57"/>
     <use x="377.246094" xlink:href="#DejaVuSans-44"/>
     <use x="409.033203" xlink:href="#DejaVuSans-32"/>
     <use x="440.820312" xlink:href="#DejaVuSans-104"/>
     <use x="504.199219" xlink:href="#DejaVuSans-118"/>
     <use x="560.753906" xlink:href="#DejaVuSans-45"/>
     <use x="596.837891" xlink:href="#DejaVuSans-104"/>
     <use x="660.216797" xlink:href="#DejaVuSans-97"/>
     <use x="721.496094" xlink:href="#DejaVuSans-115"/>
     <use x="773.595703" xlink:href="#DejaVuSans-104"/>
     <use x="836.974609" xlink:href="#DejaVuSans-61"/>
     <use x="920.763672" xlink:href="#DejaVuSans-102"/>
     <use x="955.96875" xlink:href="#DejaVuSans-102"/>
     <use x="991.173828" xlink:href="#DejaVuSans-48"/>
     <use x="1054.796875" xlink:href="#DejaVuSans-101"/>
     <use x="1116.320312" xlink:href="#DejaVuSans-55"/>
     <use x="1179.943359" xlink:href="#DejaVuSans-49"/>
     <use x="1243.566406" xlink:href="#DejaVuSans-101"/>
     <use x="1305.089844" xlink:href="#DejaVuSans-56"/>
     <use x="1368.712891" xlink:href="#DejaVuSans-99"/>
     <use x="1423.693359" xlink:href="#DejaVuSans-100"/>
     <use x="1487.169922" xlink:href="#DejaVuSans-57"/>
     <use x="1550.792969" xlink:href="#DejaVuSans-55"/>
     <use x="1614.416016" xlink:href="#DejaVuSans-56"/>
     <use x="1678.039062" xlink:href="#DejaVuSans-51"/>
     <use x="1741.662109" xlink:href="#DejaVuSans-55"/>
     <use x="1805.285156" xlink:href="#DejaVuSans-51"/>
    </g>
   </g>
   <g id="text_19">
    <!-- 45 Diff. Powers/Gallagher 101 -->
    <g transform="translate(49.508062 21.648)scale(0.2 -0.2)">
     <defs>
      <path d="M 19.671875 64.796875 
L 19.671875 37.40625 
L 32.078125 37.40625 
Q 38.96875 37.40625 42.71875 40.96875 
Q 46.484375 44.53125 46.484375 51.125 
Q 46.484375 57.671875 42.71875 61.234375 
Q 38.96875 64.796875 32.078125 64.796875 
z
M 9.8125 72.90625 
L 32.078125 72.90625 
Q 44.34375 72.90625 50.609375 67.359375 
Q 56.890625 61.8125 56.890625 51.125 
Q 56.890625 40.328125 50.609375 34.8125 
Q 44.34375 29.296875 32.078125 29.296875 
L 19.671875 29.296875 
L 19.671875 0 
L 9.8125 0 
z
" id="DejaVuSans-80"/>
      <path d="M 4.203125 54.6875 
L 13.1875 54.6875 
L 24.421875 12.015625 
L 35.59375 54.6875 
L 46.1875 54.6875 
L 57.421875 12.015625 
L 68.609375 54.6875 
L 77.59375 54.6875 
L 63.28125 0 
L 52.6875 0 
L 40.921875 44.828125 
L 29.109375 0 
L 18.5 0 
z
" id="DejaVuSans-119"/>
     </defs>
     <use xlink:href="#DejaVuSans-52"/>
     <use x="63.623047" xlink:href="#DejaVuSans-53"/>
     <use x="127.246094" xlink:href="#DejaVuSans-32"/>
     <use x="159.033203" xlink:href="#DejaVuSans-68"/>
     <use x="236.035156" xlink:href="#DejaVuSans-105"/>
     <use x="263.818359" xlink:href="#DejaVuSans-102"/>
     <use x="299.023438" xlink:href="#DejaVuSans-102"/>
     <use x="326.978516" xlink:href="#DejaVuSans-46"/>
     <use x="358.765625" xlink:href="#DejaVuSans-32"/>
     <use x="390.552734" xlink:href="#DejaVuSans-80"/>
     <use x="447.230469" xlink:href="#DejaVuSans-111"/>
     <use x="508.412109" xlink:href="#DejaVuSans-119"/>
     <use x="590.199219" xlink:href="#DejaVuSans-101"/>
     <use x="651.722656" xlink:href="#DejaVuSans-114"/>
     <use x="692.835938" xlink:href="#DejaVuSans-115"/>
     <use x="744.935547" xlink:href="#DejaVuSans-47"/>
     <use x="778.626953" xlink:href="#DejaVuSans-71"/>
     <use x="856.117188" xlink:href="#DejaVuSans-97"/>
     <use x="917.396484" xlink:href="#DejaVuSans-108"/>
     <use x="945.179688" xlink:href="#DejaVuSans-108"/>
     <use x="972.962891" xlink:href="#DejaVuSans-97"/>
     <use x="1034.242188" xlink:href="#DejaVuSans-103"/>
     <use x="1097.71875" xlink:href="#DejaVuSans-104"/>
     <use x="1161.097656" xlink:href="#DejaVuSans-101"/>
     <use x="1222.621094" xlink:href="#DejaVuSans-114"/>
     <use x="1263.734375" xlink:href="#DejaVuSans-32"/>
     <use x="1295.521484" xlink:href="#DejaVuSans-49"/>
     <use x="1359.144531" xlink:href="#DejaVuSans-48"/>
     <use x="1422.767578" xlink:href="#DejaVuSans-49"/>
    </g>
   </g>
  </g>
 </g>
 <defs>
  <clipPath id="p7ee5c9ad41">
   <rect height="271.296" width="281.088" x="57.6" y="27.648"/>
  </clipPath>
 </defs>
</svg>
