<?xml version="1.0" encoding="utf-8" standalone="no"?>
<!DOCTYPE svg PUBLIC "-//W3C//DTD SVG 1.1//EN"
  "http://www.w3.org/Graphics/SVG/1.1/DTD/svg11.dtd">
<!-- Created with matplotlib (https://matplotlib.org/) -->
<svg height="345.6pt" version="1.1" viewBox="0 0 460.8 345.6" width="460.8pt" xmlns="http://www.w3.org/2000/svg" xmlns:xlink="http://www.w3.org/1999/xlink">
 <metadata>
  <rdf:RDF xmlns:cc="http://creativecommons.org/ns#" xmlns:dc="http://purl.org/dc/elements/1.1/" xmlns:rdf="http://www.w3.org/1999/02/22-rdf-syntax-ns#">
   <cc:Work>
    <dc:type rdf:resource="http://purl.org/dc/dcmitype/StillImage"/>
    <dc:date>2021-04-26T15:06:03.099377</dc:date>
    <dc:format>image/svg+xml</dc:format>
    <dc:creator>
     <cc:Agent>
      <dc:title>Matplotlib v3.3.2, https://matplotlib.org/</dc:title>
     </cc:Agent>
    </dc:creator>
   </cc:Work>
  </rdf:RDF>
 </metadata>
 <defs>
  <style type="text/css">*{stroke-linecap:butt;stroke-linejoin:round;}</style>
 </defs>
 <g id="figure_1">
  <g id="patch_1">
   <path d="M 0 345.6 
L 460.8 345.6 
L 460.8 0 
L 0 0 
z
" style="fill:#ffffff;"/>
  </g>
  <g id="axes_1">
   <g id="patch_2">
    <path d="M 57.6 298.944 
L 338.688 298.944 
L 338.688 27.648 
L 57.6 27.648 
z
" style="fill:#ffffff;"/>
   </g>
   <g id="line2d_1">
    <path d="M 79.447285 298.944 
L 79.447285 294.312795 
L 85.66744 294.312795 
L 85.66744 285.050384 
L 101.646892 285.050384 
L 101.646892 275.787974 
L 108.948899 275.787974 
L 108.948899 271.156769 
L 125.470548 271.156769 
L 125.470548 257.263153 
L 149.286939 257.263153 
L 149.286939 248.000743 
L 157.781772 248.000743 
L 157.781772 243.369538 
L 165.083779 243.369538 
L 165.083779 234.107127 
L 171.895887 234.107127 
L 171.895887 220.213512 
L 178.377401 220.213512 
L 178.377401 210.951101 
L 183.802832 210.951101 
L 183.802832 201.688691 
L 190.110621 201.688691 
L 190.110621 192.426281 
L 194.438888 192.426281 
L 194.438888 187.795075 
L 204.89625 187.795075 
L 204.89625 173.90146 
L 217.91205 173.90146 
L 217.91205 169.270255 
L 219.56063 169.270255 
L 219.56063 155.376639 
L 220.840094 155.376639 
L 220.840094 146.114229 
L 222.236905 146.114229 
L 222.236905 141.483024 
L 224.400052 141.483024 
L 224.400052 127.589408 
L 227.359699 127.589408 
L 227.359699 122.958203 
L 230.485819 122.958203 
L 230.485819 109.064587 
L 234.749804 109.064587 
L 234.749804 99.802177 
L 238.55412 99.802177 
L 238.55412 90.539766 
L 245.327872 90.539766 
L 245.327872 85.908561 
L 252.648147 85.908561 
L 252.648147 76.646151 
L 258.624243 76.646151 
L 258.624243 62.752535 
L 338.688 62.752535 
" style="fill:none;stroke:#f5deb3;stroke-linecap:square;stroke-width:4;"/>
   </g>
   <g id="line2d_2">
    <defs>
     <path d="M 0 7.778175 
L 7.778175 0 
L 0 -7.778175 
L -7.778175 0 
z
" id="maa84bdff36" style="stroke:#f5deb3;stroke-linejoin:miter;stroke-width:1.5;"/>
    </defs>
    <g>
     <use style="fill:#f5deb3;stroke:#f5deb3;stroke-linejoin:miter;stroke-width:1.5;" x="171.895887" xlink:href="#maa84bdff36" y="234.107127"/>
     <use style="fill:#f5deb3;stroke:#f5deb3;stroke-linejoin:miter;stroke-width:1.5;" x="230.485819" xlink:href="#maa84bdff36" y="122.958203"/>
     <use style="fill:#f5deb3;stroke:#f5deb3;stroke-linejoin:miter;stroke-width:1.5;" x="258.624243" xlink:href="#maa84bdff36" y="76.646151"/>
     <use style="fill:#f5deb3;stroke:#f5deb3;stroke-linejoin:miter;stroke-width:1.5;" x="258.624243" xlink:href="#maa84bdff36" y="62.752535"/>
     <use style="fill:#f5deb3;stroke:#f5deb3;stroke-linejoin:miter;stroke-width:1.5;" x="338.688" xlink:href="#maa84bdff36" y="62.752535"/>
    </g>
   </g>
   <g id="line2d_3">
    <path style="fill:none;stroke:#f5deb3;stroke-linecap:square;stroke-width:4;"/>
    <g/>
   </g>
   <g id="line2d_4">
    <path d="M 338.688 62.752535 
L 369.60768 35.706297 
" style="fill:none;stroke:#f5deb3;stroke-linecap:square;stroke-width:4;"/>
    <g>
     <use style="fill:#f5deb3;stroke:#f5deb3;stroke-linejoin:miter;stroke-width:1.5;" x="338.688" xlink:href="#maa84bdff36" y="62.752535"/>
     <use style="fill:#f5deb3;stroke:#f5deb3;stroke-linejoin:miter;stroke-width:1.5;" x="369.60768" xlink:href="#maa84bdff36" y="35.706297"/>
    </g>
   </g>
   <g id="matplotlib.axis_1">
    <g id="xtick_1">
     <g id="line2d_5">
      <path clip-path="url(#p3a1e2282e4)" d="M 57.6 298.944 
L 57.6 27.648 
" style="fill:none;stroke:#b0b0b0;stroke-linecap:square;stroke-width:0.8;"/>
     </g>
     <g id="line2d_6">
      <defs>
       <path d="M 0 0 
L 0 3.5 
" id="m33b8d026c9" style="stroke:#000000;stroke-width:0.8;"/>
      </defs>
      <g>
       <use style="stroke:#000000;stroke-width:0.8;" x="57.6" xlink:href="#m33b8d026c9" y="298.944"/>
      </g>
     </g>
     <g id="text_1">
      <!-- 0 -->
      <g transform="translate(51.2375 321.140875)scale(0.2 -0.2)">
       <defs>
        <path d="M 31.78125 66.40625 
Q 24.171875 66.40625 20.328125 58.90625 
Q 16.5 51.421875 16.5 36.375 
Q 16.5 21.390625 20.328125 13.890625 
Q 24.171875 6.390625 31.78125 6.390625 
Q 39.453125 6.390625 43.28125 13.890625 
Q 47.125 21.390625 47.125 36.375 
Q 47.125 51.421875 43.28125 58.90625 
Q 39.453125 66.40625 31.78125 66.40625 
z
M 31.78125 74.21875 
Q 44.046875 74.21875 50.515625 64.515625 
Q 56.984375 54.828125 56.984375 36.375 
Q 56.984375 17.96875 50.515625 8.265625 
Q 44.046875 -1.421875 31.78125 -1.421875 
Q 19.53125 -1.421875 13.0625 8.265625 
Q 6.59375 17.96875 6.59375 36.375 
Q 6.59375 54.828125 13.0625 64.515625 
Q 19.53125 74.21875 31.78125 74.21875 
z
" id="DejaVuSans-48"/>
       </defs>
       <use xlink:href="#DejaVuSans-48"/>
      </g>
     </g>
    </g>
    <g id="xtick_2">
     <g id="line2d_7">
      <path clip-path="url(#p3a1e2282e4)" d="M 137.910857 298.944 
L 137.910857 27.648 
" style="fill:none;stroke:#b0b0b0;stroke-linecap:square;stroke-width:0.8;"/>
     </g>
     <g id="line2d_8">
      <g>
       <use style="stroke:#000000;stroke-width:0.8;" x="137.910857" xlink:href="#m33b8d026c9" y="298.944"/>
      </g>
     </g>
     <g id="text_2">
      <!-- 2 -->
      <g transform="translate(131.548357 321.140875)scale(0.2 -0.2)">
       <defs>
        <path d="M 19.1875 8.296875 
L 53.609375 8.296875 
L 53.609375 0 
L 7.328125 0 
L 7.328125 8.296875 
Q 12.9375 14.109375 22.625 23.890625 
Q 32.328125 33.6875 34.8125 36.53125 
Q 39.546875 41.84375 41.421875 45.53125 
Q 43.3125 49.21875 43.3125 52.78125 
Q 43.3125 58.59375 39.234375 62.25 
Q 35.15625 65.921875 28.609375 65.921875 
Q 23.96875 65.921875 18.8125 64.3125 
Q 13.671875 62.703125 7.8125 59.421875 
L 7.8125 69.390625 
Q 13.765625 71.78125 18.9375 73 
Q 24.125 74.21875 28.421875 74.21875 
Q 39.75 74.21875 46.484375 68.546875 
Q 53.21875 62.890625 53.21875 53.421875 
Q 53.21875 48.921875 51.53125 44.890625 
Q 49.859375 40.875 45.40625 35.40625 
Q 44.1875 33.984375 37.640625 27.21875 
Q 31.109375 20.453125 19.1875 8.296875 
z
" id="DejaVuSans-50"/>
       </defs>
       <use xlink:href="#DejaVuSans-50"/>
      </g>
     </g>
    </g>
    <g id="xtick_3">
     <g id="line2d_9">
      <path clip-path="url(#p3a1e2282e4)" d="M 218.221714 298.944 
L 218.221714 27.648 
" style="fill:none;stroke:#b0b0b0;stroke-linecap:square;stroke-width:0.8;"/>
     </g>
     <g id="line2d_10">
      <g>
       <use style="stroke:#000000;stroke-width:0.8;" x="218.221714" xlink:href="#m33b8d026c9" y="298.944"/>
      </g>
     </g>
     <g id="text_3">
      <!-- 4 -->
      <g transform="translate(211.859214 321.140875)scale(0.2 -0.2)">
       <defs>
        <path d="M 37.796875 64.3125 
L 12.890625 25.390625 
L 37.796875 25.390625 
z
M 35.203125 72.90625 
L 47.609375 72.90625 
L 47.609375 25.390625 
L 58.015625 25.390625 
L 58.015625 17.1875 
L 47.609375 17.1875 
L 47.609375 0 
L 37.796875 0 
L 37.796875 17.1875 
L 4.890625 17.1875 
L 4.890625 26.703125 
z
" id="DejaVuSans-52"/>
       </defs>
       <use xlink:href="#DejaVuSans-52"/>
      </g>
     </g>
    </g>
    <g id="xtick_4">
     <g id="line2d_11">
      <path clip-path="url(#p3a1e2282e4)" d="M 298.532571 298.944 
L 298.532571 27.648 
" style="fill:none;stroke:#b0b0b0;stroke-linecap:square;stroke-width:0.8;"/>
     </g>
     <g id="line2d_12">
      <g>
       <use style="stroke:#000000;stroke-width:0.8;" x="298.532571" xlink:href="#m33b8d026c9" y="298.944"/>
      </g>
     </g>
     <g id="text_4">
      <!-- 6 -->
      <g transform="translate(292.170071 321.140875)scale(0.2 -0.2)">
       <defs>
        <path d="M 33.015625 40.375 
Q 26.375 40.375 22.484375 35.828125 
Q 18.609375 31.296875 18.609375 23.390625 
Q 18.609375 15.53125 22.484375 10.953125 
Q 26.375 6.390625 33.015625 6.390625 
Q 39.65625 6.390625 43.53125 10.953125 
Q 47.40625 15.53125 47.40625 23.390625 
Q 47.40625 31.296875 43.53125 35.828125 
Q 39.65625 40.375 33.015625 40.375 
z
M 52.59375 71.296875 
L 52.59375 62.3125 
Q 48.875 64.0625 45.09375 64.984375 
Q 41.3125 65.921875 37.59375 65.921875 
Q 27.828125 65.921875 22.671875 59.328125 
Q 17.53125 52.734375 16.796875 39.40625 
Q 19.671875 43.65625 24.015625 45.921875 
Q 28.375 48.1875 33.59375 48.1875 
Q 44.578125 48.1875 50.953125 41.515625 
Q 57.328125 34.859375 57.328125 23.390625 
Q 57.328125 12.15625 50.6875 5.359375 
Q 44.046875 -1.421875 33.015625 -1.421875 
Q 20.359375 -1.421875 13.671875 8.265625 
Q 6.984375 17.96875 6.984375 36.375 
Q 6.984375 53.65625 15.1875 63.9375 
Q 23.390625 74.21875 37.203125 74.21875 
Q 40.921875 74.21875 44.703125 73.484375 
Q 48.484375 72.75 52.59375 71.296875 
z
" id="DejaVuSans-54"/>
       </defs>
       <use xlink:href="#DejaVuSans-54"/>
      </g>
     </g>
    </g>
    <g id="xtick_5">
     <g id="line2d_13">
      <path clip-path="url(#p3a1e2282e4)" d="M 97.755429 298.944 
L 97.755429 27.648 
" style="fill:none;stroke:#b0b0b0;stroke-linecap:square;stroke-width:0.8;"/>
     </g>
     <g id="line2d_14">
      <defs>
       <path d="M 0 0 
L 0 2 
" id="m0b51ff0aa1" style="stroke:#000000;stroke-width:0.6;"/>
      </defs>
      <g>
       <use style="stroke:#000000;stroke-width:0.6;" x="97.755429" xlink:href="#m0b51ff0aa1" y="298.944"/>
      </g>
     </g>
    </g>
    <g id="xtick_6">
     <g id="line2d_15">
      <path clip-path="url(#p3a1e2282e4)" d="M 178.066286 298.944 
L 178.066286 27.648 
" style="fill:none;stroke:#b0b0b0;stroke-linecap:square;stroke-width:0.8;"/>
     </g>
     <g id="line2d_16">
      <g>
       <use style="stroke:#000000;stroke-width:0.6;" x="178.066286" xlink:href="#m0b51ff0aa1" y="298.944"/>
      </g>
     </g>
    </g>
    <g id="xtick_7">
     <g id="line2d_17">
      <path clip-path="url(#p3a1e2282e4)" d="M 258.377143 298.944 
L 258.377143 27.648 
" style="fill:none;stroke:#b0b0b0;stroke-linecap:square;stroke-width:0.8;"/>
     </g>
     <g id="line2d_18">
      <g>
       <use style="stroke:#000000;stroke-width:0.6;" x="258.377143" xlink:href="#m0b51ff0aa1" y="298.944"/>
      </g>
     </g>
    </g>
    <g id="xtick_8">
     <g id="line2d_19">
      <path clip-path="url(#p3a1e2282e4)" d="M 338.688 298.944 
L 338.688 27.648 
" style="fill:none;stroke:#b0b0b0;stroke-linecap:square;stroke-width:0.8;"/>
     </g>
     <g id="line2d_20">
      <g>
       <use style="stroke:#000000;stroke-width:0.6;" x="338.688" xlink:href="#m0b51ff0aa1" y="298.944"/>
      </g>
     </g>
    </g>
    <g id="text_5">
     <!-- log10(# f-evals / dimension) -->
     <g transform="translate(77.764078 342.217594)scale(0.17 -0.17)">
      <defs>
       <path d="M 9.421875 75.984375 
L 18.40625 75.984375 
L 18.40625 0 
L 9.421875 0 
z
" id="DejaVuSans-108"/>
       <path d="M 30.609375 48.390625 
Q 23.390625 48.390625 19.1875 42.75 
Q 14.984375 37.109375 14.984375 27.296875 
Q 14.984375 17.484375 19.15625 11.84375 
Q 23.34375 6.203125 30.609375 6.203125 
Q 37.796875 6.203125 41.984375 11.859375 
Q 46.1875 17.53125 46.1875 27.296875 
Q 46.1875 37.015625 41.984375 42.703125 
Q 37.796875 48.390625 30.609375 48.390625 
z
M 30.609375 56 
Q 42.328125 56 49.015625 48.375 
Q 55.71875 40.765625 55.71875 27.296875 
Q 55.71875 13.875 49.015625 6.21875 
Q 42.328125 -1.421875 30.609375 -1.421875 
Q 18.84375 -1.421875 12.171875 6.21875 
Q 5.515625 13.875 5.515625 27.296875 
Q 5.515625 40.765625 12.171875 48.375 
Q 18.84375 56 30.609375 56 
z
" id="DejaVuSans-111"/>
       <path d="M 45.40625 27.984375 
Q 45.40625 37.75 41.375 43.109375 
Q 37.359375 48.484375 30.078125 48.484375 
Q 22.859375 48.484375 18.828125 43.109375 
Q 14.796875 37.75 14.796875 27.984375 
Q 14.796875 18.265625 18.828125 12.890625 
Q 22.859375 7.515625 30.078125 7.515625 
Q 37.359375 7.515625 41.375 12.890625 
Q 45.40625 18.265625 45.40625 27.984375 
z
M 54.390625 6.78125 
Q 54.390625 -7.171875 48.1875 -13.984375 
Q 42 -20.796875 29.203125 -20.796875 
Q 24.46875 -20.796875 20.265625 -20.09375 
Q 16.0625 -19.390625 12.109375 -17.921875 
L 12.109375 -9.1875 
Q 16.0625 -11.328125 19.921875 -12.34375 
Q 23.78125 -13.375 27.78125 -13.375 
Q 36.625 -13.375 41.015625 -8.765625 
Q 45.40625 -4.15625 45.40625 5.171875 
L 45.40625 9.625 
Q 42.625 4.78125 38.28125 2.390625 
Q 33.9375 0 27.875 0 
Q 17.828125 0 11.671875 7.65625 
Q 5.515625 15.328125 5.515625 27.984375 
Q 5.515625 40.671875 11.671875 48.328125 
Q 17.828125 56 27.875 56 
Q 33.9375 56 38.28125 53.609375 
Q 42.625 51.21875 45.40625 46.390625 
L 45.40625 54.6875 
L 54.390625 54.6875 
z
" id="DejaVuSans-103"/>
       <path d="M 12.40625 8.296875 
L 28.515625 8.296875 
L 28.515625 63.921875 
L 10.984375 60.40625 
L 10.984375 69.390625 
L 28.421875 72.90625 
L 38.28125 72.90625 
L 38.28125 8.296875 
L 54.390625 8.296875 
L 54.390625 0 
L 12.40625 0 
z
" id="DejaVuSans-49"/>
       <path d="M 31 75.875 
Q 24.46875 64.65625 21.28125 53.65625 
Q 18.109375 42.671875 18.109375 31.390625 
Q 18.109375 20.125 21.3125 9.0625 
Q 24.515625 -2 31 -13.1875 
L 23.1875 -13.1875 
Q 15.875 -1.703125 12.234375 9.375 
Q 8.59375 20.453125 8.59375 31.390625 
Q 8.59375 42.28125 12.203125 53.3125 
Q 15.828125 64.359375 23.1875 75.875 
z
" id="DejaVuSans-40"/>
       <path d="M 51.125 44 
L 36.921875 44 
L 32.8125 27.6875 
L 47.125 27.6875 
z
M 43.796875 71.78125 
L 38.71875 51.515625 
L 52.984375 51.515625 
L 58.109375 71.78125 
L 65.921875 71.78125 
L 60.890625 51.515625 
L 76.125 51.515625 
L 76.125 44 
L 58.984375 44 
L 54.984375 27.6875 
L 70.515625 27.6875 
L 70.515625 20.21875 
L 53.078125 20.21875 
L 48 0 
L 40.1875 0 
L 45.21875 20.21875 
L 30.90625 20.21875 
L 25.875 0 
L 18.015625 0 
L 23.09375 20.21875 
L 7.71875 20.21875 
L 7.71875 27.6875 
L 24.90625 27.6875 
L 29 44 
L 13.28125 44 
L 13.28125 51.515625 
L 30.90625 51.515625 
L 35.890625 71.78125 
z
" id="DejaVuSans-35"/>
       <path id="DejaVuSans-32"/>
       <path d="M 37.109375 75.984375 
L 37.109375 68.5 
L 28.515625 68.5 
Q 23.6875 68.5 21.796875 66.546875 
Q 19.921875 64.59375 19.921875 59.515625 
L 19.921875 54.6875 
L 34.71875 54.6875 
L 34.71875 47.703125 
L 19.921875 47.703125 
L 19.921875 0 
L 10.890625 0 
L 10.890625 47.703125 
L 2.296875 47.703125 
L 2.296875 54.6875 
L 10.890625 54.6875 
L 10.890625 58.5 
Q 10.890625 67.625 15.140625 71.796875 
Q 19.390625 75.984375 28.609375 75.984375 
z
" id="DejaVuSans-102"/>
       <path d="M 4.890625 31.390625 
L 31.203125 31.390625 
L 31.203125 23.390625 
L 4.890625 23.390625 
z
" id="DejaVuSans-45"/>
       <path d="M 56.203125 29.59375 
L 56.203125 25.203125 
L 14.890625 25.203125 
Q 15.484375 15.921875 20.484375 11.0625 
Q 25.484375 6.203125 34.421875 6.203125 
Q 39.59375 6.203125 44.453125 7.46875 
Q 49.3125 8.734375 54.109375 11.28125 
L 54.109375 2.78125 
Q 49.265625 0.734375 44.1875 -0.34375 
Q 39.109375 -1.421875 33.890625 -1.421875 
Q 20.796875 -1.421875 13.15625 6.1875 
Q 5.515625 13.8125 5.515625 26.8125 
Q 5.515625 40.234375 12.765625 48.109375 
Q 20.015625 56 32.328125 56 
Q 43.359375 56 49.78125 48.890625 
Q 56.203125 41.796875 56.203125 29.59375 
z
M 47.21875 32.234375 
Q 47.125 39.59375 43.09375 43.984375 
Q 39.0625 48.390625 32.421875 48.390625 
Q 24.90625 48.390625 20.390625 44.140625 
Q 15.875 39.890625 15.1875 32.171875 
z
" id="DejaVuSans-101"/>
       <path d="M 2.984375 54.6875 
L 12.5 54.6875 
L 29.59375 8.796875 
L 46.6875 54.6875 
L 56.203125 54.6875 
L 35.6875 0 
L 23.484375 0 
z
" id="DejaVuSans-118"/>
       <path d="M 34.28125 27.484375 
Q 23.390625 27.484375 19.1875 25 
Q 14.984375 22.515625 14.984375 16.5 
Q 14.984375 11.71875 18.140625 8.90625 
Q 21.296875 6.109375 26.703125 6.109375 
Q 34.1875 6.109375 38.703125 11.40625 
Q 43.21875 16.703125 43.21875 25.484375 
L 43.21875 27.484375 
z
M 52.203125 31.203125 
L 52.203125 0 
L 43.21875 0 
L 43.21875 8.296875 
Q 40.140625 3.328125 35.546875 0.953125 
Q 30.953125 -1.421875 24.3125 -1.421875 
Q 15.921875 -1.421875 10.953125 3.296875 
Q 6 8.015625 6 15.921875 
Q 6 25.140625 12.171875 29.828125 
Q 18.359375 34.515625 30.609375 34.515625 
L 43.21875 34.515625 
L 43.21875 35.40625 
Q 43.21875 41.609375 39.140625 45 
Q 35.0625 48.390625 27.6875 48.390625 
Q 23 48.390625 18.546875 47.265625 
Q 14.109375 46.140625 10.015625 43.890625 
L 10.015625 52.203125 
Q 14.9375 54.109375 19.578125 55.046875 
Q 24.21875 56 28.609375 56 
Q 40.484375 56 46.34375 49.84375 
Q 52.203125 43.703125 52.203125 31.203125 
z
" id="DejaVuSans-97"/>
       <path d="M 44.28125 53.078125 
L 44.28125 44.578125 
Q 40.484375 46.53125 36.375 47.5 
Q 32.28125 48.484375 27.875 48.484375 
Q 21.1875 48.484375 17.84375 46.4375 
Q 14.5 44.390625 14.5 40.28125 
Q 14.5 37.15625 16.890625 35.375 
Q 19.28125 33.59375 26.515625 31.984375 
L 29.59375 31.296875 
Q 39.15625 29.25 43.1875 25.515625 
Q 47.21875 21.78125 47.21875 15.09375 
Q 47.21875 7.46875 41.1875 3.015625 
Q 35.15625 -1.421875 24.609375 -1.421875 
Q 20.21875 -1.421875 15.453125 -0.5625 
Q 10.6875 0.296875 5.421875 2 
L 5.421875 11.28125 
Q 10.40625 8.6875 15.234375 7.390625 
Q 20.0625 6.109375 24.8125 6.109375 
Q 31.15625 6.109375 34.5625 8.28125 
Q 37.984375 10.453125 37.984375 14.40625 
Q 37.984375 18.0625 35.515625 20.015625 
Q 33.0625 21.96875 24.703125 23.78125 
L 21.578125 24.515625 
Q 13.234375 26.265625 9.515625 29.90625 
Q 5.8125 33.546875 5.8125 39.890625 
Q 5.8125 47.609375 11.28125 51.796875 
Q 16.75 56 26.8125 56 
Q 31.78125 56 36.171875 55.265625 
Q 40.578125 54.546875 44.28125 53.078125 
z
" id="DejaVuSans-115"/>
       <path d="M 25.390625 72.90625 
L 33.6875 72.90625 
L 8.296875 -9.28125 
L 0 -9.28125 
z
" id="DejaVuSans-47"/>
       <path d="M 45.40625 46.390625 
L 45.40625 75.984375 
L 54.390625 75.984375 
L 54.390625 0 
L 45.40625 0 
L 45.40625 8.203125 
Q 42.578125 3.328125 38.25 0.953125 
Q 33.9375 -1.421875 27.875 -1.421875 
Q 17.96875 -1.421875 11.734375 6.484375 
Q 5.515625 14.40625 5.515625 27.296875 
Q 5.515625 40.1875 11.734375 48.09375 
Q 17.96875 56 27.875 56 
Q 33.9375 56 38.25 53.625 
Q 42.578125 51.265625 45.40625 46.390625 
z
M 14.796875 27.296875 
Q 14.796875 17.390625 18.875 11.75 
Q 22.953125 6.109375 30.078125 6.109375 
Q 37.203125 6.109375 41.296875 11.75 
Q 45.40625 17.390625 45.40625 27.296875 
Q 45.40625 37.203125 41.296875 42.84375 
Q 37.203125 48.484375 30.078125 48.484375 
Q 22.953125 48.484375 18.875 42.84375 
Q 14.796875 37.203125 14.796875 27.296875 
z
" id="DejaVuSans-100"/>
       <path d="M 9.421875 54.6875 
L 18.40625 54.6875 
L 18.40625 0 
L 9.421875 0 
z
M 9.421875 75.984375 
L 18.40625 75.984375 
L 18.40625 64.59375 
L 9.421875 64.59375 
z
" id="DejaVuSans-105"/>
       <path d="M 52 44.1875 
Q 55.375 50.25 60.0625 53.125 
Q 64.75 56 71.09375 56 
Q 79.640625 56 84.28125 50.015625 
Q 88.921875 44.046875 88.921875 33.015625 
L 88.921875 0 
L 79.890625 0 
L 79.890625 32.71875 
Q 79.890625 40.578125 77.09375 44.375 
Q 74.3125 48.1875 68.609375 48.1875 
Q 61.625 48.1875 57.5625 43.546875 
Q 53.515625 38.921875 53.515625 30.90625 
L 53.515625 0 
L 44.484375 0 
L 44.484375 32.71875 
Q 44.484375 40.625 41.703125 44.40625 
Q 38.921875 48.1875 33.109375 48.1875 
Q 26.21875 48.1875 22.15625 43.53125 
Q 18.109375 38.875 18.109375 30.90625 
L 18.109375 0 
L 9.078125 0 
L 9.078125 54.6875 
L 18.109375 54.6875 
L 18.109375 46.1875 
Q 21.1875 51.21875 25.484375 53.609375 
Q 29.78125 56 35.6875 56 
Q 41.65625 56 45.828125 52.96875 
Q 50 49.953125 52 44.1875 
z
" id="DejaVuSans-109"/>
       <path d="M 54.890625 33.015625 
L 54.890625 0 
L 45.90625 0 
L 45.90625 32.71875 
Q 45.90625 40.484375 42.875 44.328125 
Q 39.84375 48.1875 33.796875 48.1875 
Q 26.515625 48.1875 22.3125 43.546875 
Q 18.109375 38.921875 18.109375 30.90625 
L 18.109375 0 
L 9.078125 0 
L 9.078125 54.6875 
L 18.109375 54.6875 
L 18.109375 46.1875 
Q 21.34375 51.125 25.703125 53.5625 
Q 30.078125 56 35.796875 56 
Q 45.21875 56 50.046875 50.171875 
Q 54.890625 44.34375 54.890625 33.015625 
z
" id="DejaVuSans-110"/>
       <path d="M 8.015625 75.875 
L 15.828125 75.875 
Q 23.140625 64.359375 26.78125 53.3125 
Q 30.421875 42.28125 30.421875 31.390625 
Q 30.421875 20.453125 26.78125 9.375 
Q 23.140625 -1.703125 15.828125 -13.1875 
L 8.015625 -13.1875 
Q 14.5 -2 17.703125 9.0625 
Q 20.90625 20.125 20.90625 31.390625 
Q 20.90625 42.671875 17.703125 53.65625 
Q 14.5 64.65625 8.015625 75.875 
z
" id="DejaVuSans-41"/>
      </defs>
      <use xlink:href="#DejaVuSans-108"/>
      <use x="27.783203" xlink:href="#DejaVuSans-111"/>
      <use x="88.964844" xlink:href="#DejaVuSans-103"/>
      <use x="152.441406" xlink:href="#DejaVuSans-49"/>
      <use x="216.064453" xlink:href="#DejaVuSans-48"/>
      <use x="279.6875" xlink:href="#DejaVuSans-40"/>
      <use x="318.701172" xlink:href="#DejaVuSans-35"/>
      <use x="402.490234" xlink:href="#DejaVuSans-32"/>
      <use x="434.277344" xlink:href="#DejaVuSans-102"/>
      <use x="463.982422" xlink:href="#DejaVuSans-45"/>
      <use x="500.066406" xlink:href="#DejaVuSans-101"/>
      <use x="561.589844" xlink:href="#DejaVuSans-118"/>
      <use x="620.769531" xlink:href="#DejaVuSans-97"/>
      <use x="682.048828" xlink:href="#DejaVuSans-108"/>
      <use x="709.832031" xlink:href="#DejaVuSans-115"/>
      <use x="761.931641" xlink:href="#DejaVuSans-32"/>
      <use x="793.71875" xlink:href="#DejaVuSans-47"/>
      <use x="827.410156" xlink:href="#DejaVuSans-32"/>
      <use x="859.197266" xlink:href="#DejaVuSans-100"/>
      <use x="922.673828" xlink:href="#DejaVuSans-105"/>
      <use x="950.457031" xlink:href="#DejaVuSans-109"/>
      <use x="1047.869141" xlink:href="#DejaVuSans-101"/>
      <use x="1109.392578" xlink:href="#DejaVuSans-110"/>
      <use x="1172.771484" xlink:href="#DejaVuSans-115"/>
      <use x="1224.871094" xlink:href="#DejaVuSans-105"/>
      <use x="1252.654297" xlink:href="#DejaVuSans-111"/>
      <use x="1313.835938" xlink:href="#DejaVuSans-110"/>
      <use x="1377.214844" xlink:href="#DejaVuSans-41"/>
     </g>
    </g>
   </g>
   <g id="matplotlib.axis_2">
    <g id="ytick_1">
     <g id="line2d_21">
      <path clip-path="url(#p3a1e2282e4)" d="M 57.6 298.944 
L 338.688 298.944 
" style="fill:none;stroke:#b0b0b0;stroke-linecap:square;stroke-width:0.8;"/>
     </g>
     <g id="line2d_22">
      <defs>
       <path d="M 0 0 
L -3.5 0 
" id="meaa5f20cdb" style="stroke:#000000;stroke-width:0.8;"/>
      </defs>
      <g>
       <use style="stroke:#000000;stroke-width:0.8;" x="57.6" xlink:href="#meaa5f20cdb" y="298.944"/>
      </g>
     </g>
     <g id="text_6">
      <!-- 0.0 -->
      <g transform="translate(25.155 305.02275)scale(0.16 -0.16)">
       <defs>
        <path d="M 10.6875 12.40625 
L 21 12.40625 
L 21 0 
L 10.6875 0 
z
" id="DejaVuSans-46"/>
       </defs>
       <use xlink:href="#DejaVuSans-48"/>
       <use x="63.623047" xlink:href="#DejaVuSans-46"/>
       <use x="95.410156" xlink:href="#DejaVuSans-48"/>
      </g>
     </g>
    </g>
    <g id="ytick_2">
     <g id="line2d_23">
      <path clip-path="url(#p3a1e2282e4)" d="M 57.6 245.22202 
L 338.688 245.22202 
" style="fill:none;stroke:#b0b0b0;stroke-linecap:square;stroke-width:0.8;"/>
     </g>
     <g id="line2d_24">
      <g>
       <use style="stroke:#000000;stroke-width:0.8;" x="57.6" xlink:href="#meaa5f20cdb" y="245.22202"/>
      </g>
     </g>
     <g id="text_7">
      <!-- 0.2 -->
      <g transform="translate(25.155 251.30077)scale(0.16 -0.16)">
       <use xlink:href="#DejaVuSans-48"/>
       <use x="63.623047" xlink:href="#DejaVuSans-46"/>
       <use x="95.410156" xlink:href="#DejaVuSans-50"/>
      </g>
     </g>
    </g>
    <g id="ytick_3">
     <g id="line2d_25">
      <path clip-path="url(#p3a1e2282e4)" d="M 57.6 191.50004 
L 338.688 191.50004 
" style="fill:none;stroke:#b0b0b0;stroke-linecap:square;stroke-width:0.8;"/>
     </g>
     <g id="line2d_26">
      <g>
       <use style="stroke:#000000;stroke-width:0.8;" x="57.6" xlink:href="#meaa5f20cdb" y="191.50004"/>
      </g>
     </g>
     <g id="text_8">
      <!-- 0.4 -->
      <g transform="translate(25.155 197.57879)scale(0.16 -0.16)">
       <use xlink:href="#DejaVuSans-48"/>
       <use x="63.623047" xlink:href="#DejaVuSans-46"/>
       <use x="95.410156" xlink:href="#DejaVuSans-52"/>
      </g>
     </g>
    </g>
    <g id="ytick_4">
     <g id="line2d_27">
      <path clip-path="url(#p3a1e2282e4)" d="M 57.6 137.778059 
L 338.688 137.778059 
" style="fill:none;stroke:#b0b0b0;stroke-linecap:square;stroke-width:0.8;"/>
     </g>
     <g id="line2d_28">
      <g>
       <use style="stroke:#000000;stroke-width:0.8;" x="57.6" xlink:href="#meaa5f20cdb" y="137.778059"/>
      </g>
     </g>
     <g id="text_9">
      <!-- 0.6 -->
      <g transform="translate(25.155 143.856809)scale(0.16 -0.16)">
       <use xlink:href="#DejaVuSans-48"/>
       <use x="63.623047" xlink:href="#DejaVuSans-46"/>
       <use x="95.410156" xlink:href="#DejaVuSans-54"/>
      </g>
     </g>
    </g>
    <g id="ytick_5">
     <g id="line2d_29">
      <path clip-path="url(#p3a1e2282e4)" d="M 57.6 84.056079 
L 338.688 84.056079 
" style="fill:none;stroke:#b0b0b0;stroke-linecap:square;stroke-width:0.8;"/>
     </g>
     <g id="line2d_30">
      <g>
       <use style="stroke:#000000;stroke-width:0.8;" x="57.6" xlink:href="#meaa5f20cdb" y="84.056079"/>
      </g>
     </g>
     <g id="text_10">
      <!-- 0.8 -->
      <g transform="translate(25.155 90.134829)scale(0.16 -0.16)">
       <defs>
        <path d="M 31.78125 34.625 
Q 24.75 34.625 20.71875 30.859375 
Q 16.703125 27.09375 16.703125 20.515625 
Q 16.703125 13.921875 20.71875 10.15625 
Q 24.75 6.390625 31.78125 6.390625 
Q 38.8125 6.390625 42.859375 10.171875 
Q 46.921875 13.96875 46.921875 20.515625 
Q 46.921875 27.09375 42.890625 30.859375 
Q 38.875 34.625 31.78125 34.625 
z
M 21.921875 38.8125 
Q 15.578125 40.375 12.03125 44.71875 
Q 8.5 49.078125 8.5 55.328125 
Q 8.5 64.0625 14.71875 69.140625 
Q 20.953125 74.21875 31.78125 74.21875 
Q 42.671875 74.21875 48.875 69.140625 
Q 55.078125 64.0625 55.078125 55.328125 
Q 55.078125 49.078125 51.53125 44.71875 
Q 48 40.375 41.703125 38.8125 
Q 48.828125 37.15625 52.796875 32.3125 
Q 56.78125 27.484375 56.78125 20.515625 
Q 56.78125 9.90625 50.3125 4.234375 
Q 43.84375 -1.421875 31.78125 -1.421875 
Q 19.734375 -1.421875 13.25 4.234375 
Q 6.78125 9.90625 6.78125 20.515625 
Q 6.78125 27.484375 10.78125 32.3125 
Q 14.796875 37.15625 21.921875 38.8125 
z
M 18.3125 54.390625 
Q 18.3125 48.734375 21.84375 45.5625 
Q 25.390625 42.390625 31.78125 42.390625 
Q 38.140625 42.390625 41.71875 45.5625 
Q 45.3125 48.734375 45.3125 54.390625 
Q 45.3125 60.0625 41.71875 63.234375 
Q 38.140625 66.40625 31.78125 66.40625 
Q 25.390625 66.40625 21.84375 63.234375 
Q 18.3125 60.0625 18.3125 54.390625 
z
" id="DejaVuSans-56"/>
       </defs>
       <use xlink:href="#DejaVuSans-48"/>
       <use x="63.623047" xlink:href="#DejaVuSans-46"/>
       <use x="95.410156" xlink:href="#DejaVuSans-56"/>
      </g>
     </g>
    </g>
    <g id="ytick_6">
     <g id="line2d_31">
      <path clip-path="url(#p3a1e2282e4)" d="M 57.6 30.334099 
L 338.688 30.334099 
" style="fill:none;stroke:#b0b0b0;stroke-linecap:square;stroke-width:0.8;"/>
     </g>
     <g id="line2d_32">
      <g>
       <use style="stroke:#000000;stroke-width:0.8;" x="57.6" xlink:href="#meaa5f20cdb" y="30.334099"/>
      </g>
     </g>
     <g id="text_11">
      <!-- 1.0 -->
      <g transform="translate(25.155 36.412849)scale(0.16 -0.16)">
       <use xlink:href="#DejaVuSans-49"/>
       <use x="63.623047" xlink:href="#DejaVuSans-46"/>
       <use x="95.410156" xlink:href="#DejaVuSans-48"/>
      </g>
     </g>
    </g>
    <g id="text_12">
     <!-- Fraction of function,target pairs -->
     <g transform="translate(17.619531 297.681)rotate(-90)scale(0.17 -0.17)">
      <defs>
       <path d="M 9.8125 72.90625 
L 51.703125 72.90625 
L 51.703125 64.59375 
L 19.671875 64.59375 
L 19.671875 43.109375 
L 48.578125 43.109375 
L 48.578125 34.8125 
L 19.671875 34.8125 
L 19.671875 0 
L 9.8125 0 
z
" id="DejaVuSans-70"/>
       <path d="M 41.109375 46.296875 
Q 39.59375 47.171875 37.8125 47.578125 
Q 36.03125 48 33.890625 48 
Q 26.265625 48 22.1875 43.046875 
Q 18.109375 38.09375 18.109375 28.8125 
L 18.109375 0 
L 9.078125 0 
L 9.078125 54.6875 
L 18.109375 54.6875 
L 18.109375 46.1875 
Q 20.953125 51.171875 25.484375 53.578125 
Q 30.03125 56 36.53125 56 
Q 37.453125 56 38.578125 55.875 
Q 39.703125 55.765625 41.0625 55.515625 
z
" id="DejaVuSans-114"/>
       <path d="M 48.78125 52.59375 
L 48.78125 44.1875 
Q 44.96875 46.296875 41.140625 47.34375 
Q 37.3125 48.390625 33.40625 48.390625 
Q 24.65625 48.390625 19.8125 42.84375 
Q 14.984375 37.3125 14.984375 27.296875 
Q 14.984375 17.28125 19.8125 11.734375 
Q 24.65625 6.203125 33.40625 6.203125 
Q 37.3125 6.203125 41.140625 7.25 
Q 44.96875 8.296875 48.78125 10.40625 
L 48.78125 2.09375 
Q 45.015625 0.34375 40.984375 -0.53125 
Q 36.96875 -1.421875 32.421875 -1.421875 
Q 20.0625 -1.421875 12.78125 6.34375 
Q 5.515625 14.109375 5.515625 27.296875 
Q 5.515625 40.671875 12.859375 48.328125 
Q 20.21875 56 33.015625 56 
Q 37.15625 56 41.109375 55.140625 
Q 45.0625 54.296875 48.78125 52.59375 
z
" id="DejaVuSans-99"/>
       <path d="M 18.3125 70.21875 
L 18.3125 54.6875 
L 36.8125 54.6875 
L 36.8125 47.703125 
L 18.3125 47.703125 
L 18.3125 18.015625 
Q 18.3125 11.328125 20.140625 9.421875 
Q 21.96875 7.515625 27.59375 7.515625 
L 36.8125 7.515625 
L 36.8125 0 
L 27.59375 0 
Q 17.1875 0 13.234375 3.875 
Q 9.28125 7.765625 9.28125 18.015625 
L 9.28125 47.703125 
L 2.6875 47.703125 
L 2.6875 54.6875 
L 9.28125 54.6875 
L 9.28125 70.21875 
z
" id="DejaVuSans-116"/>
       <path d="M 8.5 21.578125 
L 8.5 54.6875 
L 17.484375 54.6875 
L 17.484375 21.921875 
Q 17.484375 14.15625 20.5 10.265625 
Q 23.53125 6.390625 29.59375 6.390625 
Q 36.859375 6.390625 41.078125 11.03125 
Q 45.3125 15.671875 45.3125 23.6875 
L 45.3125 54.6875 
L 54.296875 54.6875 
L 54.296875 0 
L 45.3125 0 
L 45.3125 8.40625 
Q 42.046875 3.421875 37.71875 1 
Q 33.40625 -1.421875 27.6875 -1.421875 
Q 18.265625 -1.421875 13.375 4.4375 
Q 8.5 10.296875 8.5 21.578125 
z
M 31.109375 56 
z
" id="DejaVuSans-117"/>
       <path d="M 11.71875 12.40625 
L 22.015625 12.40625 
L 22.015625 4 
L 14.015625 -11.625 
L 7.71875 -11.625 
L 11.71875 4 
z
" id="DejaVuSans-44"/>
       <path d="M 18.109375 8.203125 
L 18.109375 -20.796875 
L 9.078125 -20.796875 
L 9.078125 54.6875 
L 18.109375 54.6875 
L 18.109375 46.390625 
Q 20.953125 51.265625 25.265625 53.625 
Q 29.59375 56 35.59375 56 
Q 45.5625 56 51.78125 48.09375 
Q 58.015625 40.1875 58.015625 27.296875 
Q 58.015625 14.40625 51.78125 6.484375 
Q 45.5625 -1.421875 35.59375 -1.421875 
Q 29.59375 -1.421875 25.265625 0.953125 
Q 20.953125 3.328125 18.109375 8.203125 
z
M 48.6875 27.296875 
Q 48.6875 37.203125 44.609375 42.84375 
Q 40.53125 48.484375 33.40625 48.484375 
Q 26.265625 48.484375 22.1875 42.84375 
Q 18.109375 37.203125 18.109375 27.296875 
Q 18.109375 17.390625 22.1875 11.75 
Q 26.265625 6.109375 33.40625 6.109375 
Q 40.53125 6.109375 44.609375 11.75 
Q 48.6875 17.390625 48.6875 27.296875 
z
" id="DejaVuSans-112"/>
      </defs>
      <use xlink:href="#DejaVuSans-70"/>
      <use x="50.269531" xlink:href="#DejaVuSans-114"/>
      <use x="91.382812" xlink:href="#DejaVuSans-97"/>
      <use x="152.662109" xlink:href="#DejaVuSans-99"/>
      <use x="207.642578" xlink:href="#DejaVuSans-116"/>
      <use x="246.851562" xlink:href="#DejaVuSans-105"/>
      <use x="274.634766" xlink:href="#DejaVuSans-111"/>
      <use x="335.816406" xlink:href="#DejaVuSans-110"/>
      <use x="399.195312" xlink:href="#DejaVuSans-32"/>
      <use x="430.982422" xlink:href="#DejaVuSans-111"/>
      <use x="492.164062" xlink:href="#DejaVuSans-102"/>
      <use x="527.369141" xlink:href="#DejaVuSans-32"/>
      <use x="559.15625" xlink:href="#DejaVuSans-102"/>
      <use x="594.361328" xlink:href="#DejaVuSans-117"/>
      <use x="657.740234" xlink:href="#DejaVuSans-110"/>
      <use x="721.119141" xlink:href="#DejaVuSans-99"/>
      <use x="776.099609" xlink:href="#DejaVuSans-116"/>
      <use x="815.308594" xlink:href="#DejaVuSans-105"/>
      <use x="843.091797" xlink:href="#DejaVuSans-111"/>
      <use x="904.273438" xlink:href="#DejaVuSans-110"/>
      <use x="967.652344" xlink:href="#DejaVuSans-44"/>
      <use x="999.439453" xlink:href="#DejaVuSans-116"/>
      <use x="1038.648438" xlink:href="#DejaVuSans-97"/>
      <use x="1099.927734" xlink:href="#DejaVuSans-114"/>
      <use x="1139.291016" xlink:href="#DejaVuSans-103"/>
      <use x="1202.767578" xlink:href="#DejaVuSans-101"/>
      <use x="1264.291016" xlink:href="#DejaVuSans-116"/>
      <use x="1303.5" xlink:href="#DejaVuSans-32"/>
      <use x="1335.287109" xlink:href="#DejaVuSans-112"/>
      <use x="1398.763672" xlink:href="#DejaVuSans-97"/>
      <use x="1460.042969" xlink:href="#DejaVuSans-105"/>
      <use x="1487.826172" xlink:href="#DejaVuSans-114"/>
      <use x="1528.939453" xlink:href="#DejaVuSans-115"/>
     </g>
    </g>
   </g>
   <g id="line2d_33">
    <defs>
     <path d="M 0 1.5 
C 0.397805 1.5 0.77937 1.341951 1.06066 1.06066 
C 1.341951 0.77937 1.5 0.397805 1.5 0 
C 1.5 -0.397805 1.341951 -0.77937 1.06066 -1.06066 
C 0.77937 -1.341951 0.397805 -1.5 0 -1.5 
C -0.397805 -1.5 -0.77937 -1.341951 -1.06066 -1.06066 
C -1.341951 -0.77937 -1.5 -0.397805 -1.5 0 
C -1.5 0.397805 -1.341951 0.77937 -1.06066 1.06066 
C -0.77937 1.341951 -0.397805 1.5 0 1.5 
z
" id="mb23f4491f0" style="stroke:#f5deb3;"/>
    </defs>
    <g>
     <use style="fill:#f5deb3;stroke:#f5deb3;" x="258.624243" xlink:href="#mb23f4491f0" y="62.752535"/>
     <use style="fill:#f5deb3;stroke:#f5deb3;" x="258.624243" xlink:href="#mb23f4491f0" y="62.752535"/>
    </g>
   </g>
   <g id="line2d_34">
    <defs>
     <path d="M 0 1.5 
C 0.397805 1.5 0.77937 1.341951 1.06066 1.06066 
C 1.341951 0.77937 1.5 0.397805 1.5 0 
C 1.5 -0.397805 1.341951 -0.77937 1.06066 -1.06066 
C 0.77937 -1.341951 0.397805 -1.5 0 -1.5 
C -0.397805 -1.5 -0.77937 -1.341951 -1.06066 -1.06066 
C -1.341951 -0.77937 -1.5 -0.397805 -1.5 0 
C -1.5 0.397805 -1.341951 0.77937 -1.06066 1.06066 
C -0.77937 1.341951 -0.397805 1.5 0 1.5 
z
" id="md06960606a" style="stroke:#000080;"/>
    </defs>
    <g>
     <use style="fill:#000080;stroke:#000080;" x="243.33099" xlink:href="#md06960606a" y="132.683734"/>
     <use style="fill:#000080;stroke:#000080;" x="243.33099" xlink:href="#md06960606a" y="132.683734"/>
    </g>
   </g>
   <g id="line2d_35">
    <path d="M 45.512012 298.944 
L 45.512012 291.070951 
L 57.6 291.070951 
L 57.6 290.607831 
L 64.67102 290.607831 
L 64.67102 290.14471 
L 73.579452 290.14471 
L 73.579452 289.218469 
L 76.759008 289.218469 
L 76.759008 288.292228 
L 81.775977 288.292228 
L 81.775977 287.365987 
L 90.242884 287.365987 
L 90.242884 286.902867 
L 94.921215 286.902867 
L 94.921215 285.513505 
L 97.755429 285.513505 
L 97.755429 285.050384 
L 98.606294 285.050384 
L 98.606294 284.587264 
L 99.41757 284.587264 
L 99.41757 283.661023 
L 100.934985 283.661023 
L 100.934985 283.197902 
L 101.646892 283.197902 
L 101.646892 281.34542 
L 102.989037 281.34542 
L 102.989037 280.8823 
L 111.104637 280.8823 
L 111.104637 279.492938 
L 111.897469 279.492938 
L 111.897469 279.029818 
L 114.418861 279.029818 
L 114.418861 278.566697 
L 115.711251 278.566697 
L 115.711251 278.103577 
L 116.621333 278.103577 
L 116.621333 276.714215 
L 119.097192 276.714215 
L 119.097192 276.251095 
L 119.351785 276.251095 
L 119.351785 274.398612 
L 119.602714 274.398612 
L 119.602714 273.935492 
L 120.571812 273.935492 
L 120.571812 273.472371 
L 124.92835 273.472371 
L 124.92835 272.54613 
L 125.291682 272.54613 
L 125.291682 272.08301 
L 127.002787 272.08301 
L 127.002787 271.619889 
L 128.260216 271.619889 
L 128.260216 271.156769 
L 130.263646 271.156769 
L 130.263646 269.767407 
L 130.796184 269.767407 
L 130.796184 269.304287 
L 131.185181 269.304287 
L 131.185181 268.841166 
L 135.97629 268.841166 
L 135.97629 268.378046 
L 136.170062 268.378046 
L 136.170062 267.914925 
L 138.510793 267.914925 
L 138.510793 267.451805 
L 139.009092 267.451805 
L 139.009092 266.988684 
L 139.333553 266.988684 
L 139.333553 266.525564 
L 140.574203 266.525564 
L 140.574203 266.062443 
L 140.723258 266.062443 
L 140.723258 265.599323 
L 141.017599 265.599323 
L 141.017599 264.673082 
L 142.619936 264.673082 
L 142.619936 264.209961 
L 143.527762 264.209961 
L 143.527762 263.28372 
L 144.688773 263.28372 
L 144.688773 262.357479 
L 145.097753 262.357479 
L 145.097753 261.894358 
L 145.497361 261.894358 
L 145.497361 260.968117 
L 149.15016 260.968117 
L 149.15016 260.041876 
L 149.512548 260.041876 
L 149.512548 259.578756 
L 152.360205 259.578756 
L 152.398241 258.189394 
L 153.395042 258.189394 
L 153.395042 257.726274 
L 154.507086 257.726274 
L 154.507086 256.336912 
L 154.840544 256.336912 
L 154.840544 255.873792 
L 156.052535 255.873792 
L 156.052535 254.947551 
L 156.38821 254.947551 
L 156.38821 254.48443 
L 158.276927 254.48443 
L 158.276927 253.558189 
L 159.020266 253.558189 
L 159.123917 251.242587 
L 161.146363 251.242587 
L 161.146363 250.316346 
L 161.488097 250.316346 
L 161.488097 249.853225 
L 161.712255 249.853225 
L 161.712255 249.390104 
L 162.791763 249.390104 
L 162.791763 248.926984 
L 163.589711 248.926984 
L 163.589711 248.463863 
L 165.483031 248.463863 
L 165.572509 246.611381 
L 167.687935 246.611381 
L 167.687935 245.68514 
L 168.324419 245.68514 
L 168.324419 245.22202 
L 168.536542 245.22202 
L 168.536542 244.295779 
L 169.460402 244.295779 
L 169.460402 243.832658 
L 170.050192 243.832658 
L 170.050192 243.369538 
L 170.806779 243.369538 
L 170.819995 241.980176 
L 171.069226 241.980176 
L 171.069226 241.517056 
L 171.883461 241.517056 
L 171.883461 241.053935 
L 172.118046 241.053935 
L 172.118046 240.127694 
L 172.566008 240.127694 
L 172.566008 239.664574 
L 173.257343 239.664574 
L 173.349008 238.738333 
L 174.174823 238.738333 
L 174.174823 237.812091 
L 176.004603 237.812091 
L 176.004603 237.348971 
L 178.274311 237.348971 
L 178.274311 236.42273 
L 179.057758 236.42273 
L 179.057758 235.496489 
L 180.320702 235.496489 
L 180.320702 234.570248 
L 181.426562 234.570248 
L 181.426562 233.644007 
L 181.978663 233.644007 
L 181.978663 232.717766 
L 182.117457 232.717766 
L 182.117457 232.254645 
L 182.821896 232.254645 
L 182.821896 231.328404 
L 183.241666 231.328404 
L 183.241666 230.402163 
L 184.425399 230.402163 
L 184.425399 229.475922 
L 184.719614 229.475922 
L 184.719614 229.012802 
L 184.932651 229.012802 
L 184.932651 228.086561 
L 185.87152 228.086561 
L 185.87152 227.62344 
L 186.251908 227.62344 
L 186.251908 227.16032 
L 187.253254 227.16032 
L 187.253254 226.697199 
L 188.200211 226.697199 
L 188.200211 226.234079 
L 188.389375 226.234079 
L 188.389375 225.770958 
L 190.271594 225.770958 
L 190.271594 224.844717 
L 191.673143 224.844717 
L 191.752884 222.992235 
L 191.97031 222.992235 
L 191.97031 222.065994 
L 192.177295 222.065994 
L 192.177295 221.139753 
L 192.404859 221.139753 
L 192.439313 219.750391 
L 192.795152 219.750391 
L 192.795152 219.287271 
L 194.411586 219.287271 
L 194.411586 218.36103 
L 195.048738 218.36103 
L 195.048738 217.434789 
L 195.284231 217.434789 
L 195.284231 216.508548 
L 195.442698 216.508548 
L 195.442698 216.045427 
L 196.012763 216.045427 
L 196.012763 215.582307 
L 197.297807 215.582307 
L 197.297807 215.119186 
L 197.9372 215.119186 
L 197.9372 214.192945 
L 198.405212 214.192945 
L 198.437779 213.266704 
L 199.256078 213.266704 
L 199.320634 210.487981 
L 199.833666 210.487981 
L 199.833666 210.02486 
L 200.621491 210.02486 
L 200.657337 208.172378 
L 201.491711 208.172378 
L 201.491711 207.246137 
L 201.652547 207.246137 
L 201.652547 206.783017 
L 201.929935 206.783017 
L 201.929935 205.856776 
L 202.060385 205.856776 
L 202.119758 204.467414 
L 202.797913 204.467414 
L 202.797913 203.541173 
L 203.85479 203.541173 
L 203.945971 202.151812 
L 204.132783 202.151812 
L 204.218633 200.76245 
L 204.481348 200.76245 
L 204.481348 200.299329 
L 205.182207 200.299329 
L 205.182207 199.373088 
L 205.409099 199.373088 
L 205.409099 198.909968 
L 205.532281 198.909968 
L 205.532281 198.446847 
L 205.66356 198.446847 
L 205.66356 197.983727 
L 205.937304 197.983727 
L 205.937304 197.057486 
L 206.284791 197.057486 
L 206.284791 196.594365 
L 206.542215 196.594365 
L 206.542215 196.131245 
L 206.765647 196.131245 
L 206.779096 194.741883 
L 206.957997 194.741883 
L 206.957997 194.278763 
L 207.833875 194.278763 
L 207.833875 193.352522 
L 208.45544 193.352522 
L 208.45544 192.889401 
L 208.599863 192.889401 
L 208.63616 191.036919 
L 208.731082 191.036919 
L 208.838936 189.647558 
L 209.532793 189.647558 
L 209.532793 189.184437 
L 210.380104 189.184437 
L 210.380104 188.721316 
L 210.789474 188.721316 
L 210.797484 187.331955 
L 211.147642 187.331955 
L 211.155489 185.942593 
L 211.294843 185.942593 
L 211.393151 184.553232 
L 211.649239 184.553232 
L 211.649239 184.090111 
L 211.819997 184.090111 
L 211.819997 183.626991 
L 212.283283 183.626991 
L 212.283283 183.16387 
L 212.554495 183.16387 
L 212.554495 182.70075 
L 212.898631 182.70075 
L 212.898631 182.237629 
L 213.611531 182.237629 
L 213.621751 180.848268 
L 213.928925 180.848268 
L 214.034561 179.922027 
L 214.411807 179.922027 
L 214.411807 179.458906 
L 214.547967 179.458906 
L 214.623155 178.532665 
L 214.94282 178.532665 
L 214.94282 177.606424 
L 215.263964 177.606424 
L 215.263964 176.680183 
L 215.422345 176.680183 
L 215.422345 176.217062 
L 215.56509 176.217062 
L 215.593499 175.290821 
L 215.734856 175.290821 
L 215.734856 174.827701 
L 216.13941 174.827701 
L 216.13941 173.90146 
L 216.406572 173.90146 
L 216.445234 172.975219 
L 216.549194 172.975219 
L 216.549194 172.512098 
L 216.918589 172.512098 
L 216.949569 171.122737 
L 217.136157 171.122737 
L 217.136157 170.196496 
L 217.516165 170.196496 
L 217.583225 169.270255 
L 217.982028 169.270255 
L 218.039396 167.417773 
L 218.424569 167.417773 
L 218.424569 166.954652 
L 218.598659 166.954652 
L 218.68633 166.028411 
L 218.72619 166.028411 
L 218.785386 165.10217 
L 219.051806 165.10217 
L 219.051806 164.63905 
L 219.572738 164.63905 
L 219.577579 162.323447 
L 219.714989 162.323447 
L 219.714989 161.860326 
L 220.453129 161.860326 
L 220.453129 161.397206 
L 220.668916 161.397206 
L 220.668916 160.934085 
L 220.813811 160.934085 
L 220.884312 160.007844 
L 220.993995 160.007844 
L 220.993995 159.544724 
L 221.369998 159.544724 
L 221.453511 157.229121 
L 221.507039 157.229121 
L 221.507039 156.766001 
L 221.857395 156.766001 
L 221.939316 155.83976 
L 222.132698 155.83976 
L 222.140361 154.450398 
L 222.290157 154.450398 
L 222.365263 153.524157 
L 222.424293 153.524157 
L 222.424293 153.061037 
L 222.654378 153.061037 
L 222.654378 152.597916 
L 222.983298 152.597916 
L 222.983298 151.671675 
L 223.2474 151.671675 
L 223.2474 151.208554 
L 223.551297 151.208554 
L 223.551297 150.282313 
L 223.775953 150.282313 
L 223.824713 148.892952 
L 223.959516 148.892952 
L 223.959516 148.429831 
L 224.644293 148.429831 
L 224.671422 146.577349 
L 224.932107 146.577349 
L 224.948716 145.187988 
L 225.087492 145.187988 
L 225.163789 144.261747 
L 225.496739 144.261747 
L 225.496739 143.798626 
L 225.973361 143.798626 
L 225.973361 143.335506 
L 226.22314 143.335506 
L 226.22314 142.872385 
L 227.11165 142.872385 
L 227.144092 141.946144 
L 227.308507 141.946144 
L 227.308507 141.019903 
L 227.511869 141.019903 
L 227.511869 140.556783 
L 228.632863 140.556783 
L 228.632863 140.093662 
L 229.070823 140.093662 
L 229.107295 138.7043 
L 229.687939 138.7043 
L 229.687939 138.24118 
L 230.164353 138.24118 
L 230.164353 137.778059 
L 230.625528 137.778059 
L 230.625528 137.314939 
L 231.389506 137.314939 
L 231.389506 136.851818 
L 231.800576 136.851818 
L 231.800576 135.925577 
L 232.042646 135.925577 
L 232.042646 135.462457 
L 232.364142 135.462457 
L 232.364142 134.536216 
L 234.360874 134.536216 
L 234.360874 134.073095 
L 240.348517 134.073095 
L 240.348517 133.609975 
L 243.33099 133.609975 
L 243.33099 132.683734 
L 338.688 132.683734 
L 338.688 132.683734 
" style="fill:none;stroke:#000080;stroke-linecap:square;stroke-width:1.5;"/>
   </g>
   <g id="line2d_36">
    <defs>
     <path d="M 0 6 
C 1.591219 6 3.117479 5.367802 4.242641 4.242641 
C 5.367802 3.117479 6 1.591219 6 0 
C 6 -1.591219 5.367802 -3.117479 4.242641 -4.242641 
C 3.117479 -5.367802 1.591219 -6 0 -6 
C -1.591219 -6 -3.117479 -5.367802 -4.242641 -4.242641 
C -5.367802 -3.117479 -6 -1.591219 -6 0 
C -6 1.591219 -5.367802 3.117479 -4.242641 4.242641 
C -3.117479 5.367802 -1.591219 6 0 6 
z
" id="mff4df0238b" style="stroke:#000080;stroke-width:1.5;"/>
    </defs>
    <g>
     <use style="fill-opacity:0;stroke:#000080;stroke-width:1.5;" x="145.497361" xlink:href="#mff4df0238b" y="260.968117"/>
     <use style="fill-opacity:0;stroke:#000080;stroke-width:1.5;" x="199.320634" xlink:href="#mff4df0238b" y="210.487981"/>
     <use style="fill-opacity:0;stroke:#000080;stroke-width:1.5;" x="232.042646" xlink:href="#mff4df0238b" y="135.925577"/>
     <use style="fill-opacity:0;stroke:#000080;stroke-width:1.5;" x="243.33099" xlink:href="#mff4df0238b" y="132.683734"/>
     <use style="fill-opacity:0;stroke:#000080;stroke-width:1.5;" x="243.33099" xlink:href="#mff4df0238b" y="132.683734"/>
     <use style="fill-opacity:0;stroke:#000080;stroke-width:1.5;" x="338.688" xlink:href="#mff4df0238b" y="132.683734"/>
    </g>
   </g>
   <g id="line2d_37">
    <path style="fill:none;stroke:#000080;stroke-linecap:square;stroke-width:1.5;"/>
    <g/>
   </g>
   <g id="line2d_38">
    <path clip-path="url(#p3a1e2282e4)" d="M 258.377579 132.683734 
" style="fill:none;stroke:#000080;stroke-linecap:square;stroke-width:1.5;"/>
    <defs>
     <path d="M -12 12 
L 12 -12 
M -12 -12 
L 12 12 
" id="m61cfeb657d" style="stroke:#000080;"/>
    </defs>
    <g clip-path="url(#p3a1e2282e4)">
     <use style="fill:#000080;stroke:#000080;" x="258.377579" xlink:href="#m61cfeb657d" y="132.683734"/>
    </g>
   </g>
   <g id="line2d_39">
    <defs>
     <path d="M 0 1.5 
C 0.397805 1.5 0.77937 1.341951 1.06066 1.06066 
C 1.341951 0.77937 1.5 0.397805 1.5 0 
C 1.5 -0.397805 1.341951 -0.77937 1.06066 -1.06066 
C 0.77937 -1.341951 0.397805 -1.5 0 -1.5 
C -0.397805 -1.5 -0.77937 -1.341951 -1.06066 -1.06066 
C -1.341951 -0.77937 -1.5 -0.397805 -1.5 0 
C -1.5 0.397805 -1.341951 0.77937 -1.06066 1.06066 
C -0.77937 1.341951 -0.397805 1.5 0 1.5 
z
" id="m12a31a9b29" style="stroke:#ff00ff;"/>
    </defs>
    <g>
     <use style="fill:#ff00ff;stroke:#ff00ff;" x="258.132771" xlink:href="#m12a31a9b29" y="122.958203"/>
     <use style="fill:#ff00ff;stroke:#ff00ff;" x="258.132771" xlink:href="#m12a31a9b29" y="122.958203"/>
    </g>
   </g>
   <g id="line2d_40">
    <path d="M 45.512012 298.944 
L 45.512012 291.070951 
L 138.761723 291.070951 
L 138.761723 289.68159 
L 139.493548 289.68159 
L 139.493548 289.218469 
L 140.423864 289.218469 
L 140.423864 288.755349 
L 143.964547 288.755349 
L 143.964547 287.829108 
L 144.570138 287.829108 
L 144.570138 286.902867 
L 146.161795 286.902867 
L 146.161795 286.439746 
L 147.570215 286.439746 
L 147.570215 285.050384 
L 150.301393 285.050384 
L 150.38688 284.124143 
L 150.51433 284.124143 
L 150.51433 283.661023 
L 150.973835 283.661023 
L 150.973835 283.197902 
L 151.178764 283.197902 
L 151.178764 282.734782 
L 151.340991 282.734782 
L 151.340991 282.271661 
L 151.740076 282.271661 
L 151.740076 281.808541 
L 152.0141 281.808541 
L 152.0141 281.34542 
L 152.885298 281.34542 
L 152.922207 280.419179 
L 153.032466 280.419179 
L 153.032466 279.492938 
L 154.063835 279.492938 
L 154.167129 276.714215 
L 154.235652 276.714215 
L 154.337936 275.324854 
L 154.439623 275.324854 
L 154.439623 274.861733 
L 154.674612 274.861733 
L 154.741174 273.472371 
L 154.972161 273.472371 
L 154.972161 273.009251 
L 155.102793 273.009251 
L 155.102793 272.54613 
L 155.584129 272.54613 
L 155.584129 272.08301 
L 155.928852 272.08301 
L 155.928852 271.619889 
L 157.185742 271.619889 
L 157.185742 269.304287 
L 157.329512 269.304287 
L 157.329512 268.378046 
L 157.472107 268.378046 
L 157.472107 267.914925 
L 157.725877 267.914925 
L 157.725877 267.451805 
L 157.94839 267.451805 
L 157.94839 266.988684 
L 158.140788 266.988684 
L 158.140788 266.525564 
L 158.385078 266.525564 
L 158.438903 265.136202 
L 158.625992 265.136202 
L 158.625992 264.673082 
L 159.072168 264.673082 
L 159.149734 263.746841 
L 159.431225 263.746841 
L 159.431225 263.28372 
L 159.807898 263.28372 
L 159.807898 260.968117 
L 160.079044 260.968117 
L 160.127894 258.189394 
L 160.418152 258.189394 
L 160.442124 256.800033 
L 161.26102 256.800033 
L 161.352206 254.947551 
L 161.578106 254.947551 
L 161.578106 253.095069 
L 161.955547 253.095069 
L 161.955547 252.631948 
L 162.130378 252.631948 
L 162.130378 251.705707 
L 162.496175 251.705707 
L 162.559939 250.779466 
L 162.896128 250.779466 
L 162.916926 248.926984 
L 163.123555 248.926984 
L 163.123555 248.000743 
L 163.549667 248.000743 
L 163.549667 247.537622 
L 163.926426 247.537622 
L 163.926426 247.074502 
L 164.314412 247.074502 
L 164.314412 246.611381 
L 164.562052 246.611381 
L 164.562052 246.148261 
L 164.787563 246.148261 
L 164.787563 244.758899 
L 164.899235 244.758899 
L 164.9363 242.443297 
L 165.083779 242.443297 
L 165.083779 241.980176 
L 165.447111 241.980176 
L 165.447111 241.517056 
L 165.855793 241.517056 
L 165.855793 240.590815 
L 166.289413 240.590815 
L 166.289413 240.127694 
L 166.679039 240.127694 
L 166.7626 238.275212 
L 167.190782 238.275212 
L 167.271933 237.348971 
L 167.481174 237.348971 
L 167.481174 236.42273 
L 167.751064 236.42273 
L 167.813965 234.570248 
L 167.985782 234.570248 
L 167.985782 234.107127 
L 168.370092 234.107127 
L 168.370092 233.180886 
L 168.596677 233.180886 
L 168.596677 232.717766 
L 169.201398 232.717766 
L 169.201398 231.791525 
L 169.78585 231.791525 
L 169.78585 230.865284 
L 169.994873 230.865284 
L 169.994873 229.939043 
L 170.296979 229.939043 
L 170.296979 229.475922 
L 170.58055 229.475922 
L 170.58055 228.549681 
L 170.833202 228.549681 
L 170.885928 226.697199 
L 171.263501 226.697199 
L 171.263501 225.770958 
L 173.257343 225.770958 
L 173.257343 224.844717 
L 174.530849 224.844717 
L 174.530849 223.918476 
L 174.921573 223.918476 
L 174.963293 222.065994 
L 176.60269 222.065994 
L 176.60269 221.139753 
L 176.884885 221.139753 
L 176.884885 220.676632 
L 177.327109 220.676632 
L 177.345294 219.287271 
L 177.855749 219.287271 
L 177.855749 218.82415 
L 178.239812 218.82415 
L 178.239812 217.897909 
L 179.505048 217.897909 
L 179.505048 216.971668 
L 180.027079 216.971668 
L 180.027079 216.045427 
L 180.220807 216.045427 
L 180.259296 214.656066 
L 180.819217 214.656066 
L 180.819217 213.729825 
L 181.775431 213.729825 
L 181.775431 213.266704 
L 183.293434 213.266704 
L 183.293434 212.340463 
L 183.524506 212.340463 
L 183.524506 211.877342 
L 183.846704 211.877342 
L 183.846704 210.951101 
L 184.236667 210.951101 
L 184.236667 210.02486 
L 184.938532 210.02486 
L 184.938532 208.635499 
L 185.108216 208.635499 
L 185.108216 208.172378 
L 185.310832 208.172378 
L 185.310832 207.709258 
L 185.647145 207.709258 
L 185.647145 206.319896 
L 186.032405 206.319896 
L 186.126032 204.930535 
L 186.629513 204.930535 
L 186.629513 204.467414 
L 187.268693 204.467414 
L 187.28412 203.078053 
L 187.412143 203.078053 
L 187.412143 202.151812 
L 187.534168 202.151812 
L 187.569598 200.76245 
L 189.005501 200.76245 
L 189.005501 200.299329 
L 189.744023 200.299329 
L 189.824183 199.373088 
L 190.110621 199.373088 
L 190.110621 198.909968 
L 190.533779 198.909968 
L 190.533779 198.446847 
L 190.779466 198.446847 
L 190.779466 197.983727 
L 191.059035 197.983727 
L 191.059035 197.057486 
L 192.439313 197.057486 
L 192.439313 196.594365 
L 193.593478 196.594365 
L 193.593478 195.668124 
L 193.996839 195.668124 
L 193.996839 195.205004 
L 195.319931 195.205004 
L 195.358793 194.278763 
L 197.909275 194.278763 
L 197.909275 193.815642 
L 198.605076 193.815642 
L 198.607761 191.96316 
L 199.665169 191.96316 
L 199.705555 190.573799 
L 201.091161 190.573799 
L 201.091161 189.647558 
L 202.309709 189.647558 
L 202.357417 188.721316 
L 202.980657 188.721316 
L 202.980657 188.258196 
L 203.26871 188.258196 
L 203.26871 187.331955 
L 203.385471 187.331955 
L 203.385471 186.868834 
L 203.969679 186.868834 
L 203.969679 185.942593 
L 204.346622 185.942593 
L 204.346622 185.479473 
L 205.407281 185.479473 
L 205.407281 185.016352 
L 210.978066 185.016352 
L 211.040041 183.16387 
L 211.135865 183.16387 
L 211.14895 180.848268 
L 211.318177 180.848268 
L 211.318177 179.458906 
L 212.043861 179.458906 
L 212.043861 178.532665 
L 212.245245 178.532665 
L 212.343239 175.290821 
L 212.427319 175.290821 
L 212.457683 173.90146 
L 212.611122 173.90146 
L 212.615932 172.975219 
L 212.869026 172.975219 
L 212.903363 171.122737 
L 213.13835 171.122737 
L 213.13835 170.196496 
L 213.265097 170.196496 
L 213.265097 169.733375 
L 213.45408 169.733375 
L 213.45408 169.270255 
L 214.001271 169.270255 
L 214.103158 166.028411 
L 214.423736 166.028411 
L 214.423736 165.565291 
L 215.012136 165.565291 
L 215.034134 164.175929 
L 215.169694 164.175929 
L 215.169694 163.249688 
L 216.400765 163.249688 
L 216.400765 162.786567 
L 216.943941 162.786567 
L 216.943941 161.860326 
L 217.16768 161.860326 
L 217.16768 161.397206 
L 217.63741 161.397206 
L 217.63741 160.934085 
L 217.767665 160.934085 
L 217.767665 160.470965 
L 218.737199 160.470965 
L 218.823335 159.544724 
L 221.829766 159.544724 
L 221.829766 159.081603 
L 222.594766 159.081603 
L 222.648291 157.229121 
L 222.896147 157.229121 
L 222.896147 156.766001 
L 223.32436 156.766001 
L 223.32436 155.83976 
L 223.958888 155.83976 
L 223.958888 155.376639 
L 224.949902 155.376639 
L 224.949902 154.913519 
L 225.187199 154.913519 
L 225.187199 154.450398 
L 225.350769 154.450398 
L 225.396479 152.597916 
L 225.470289 152.597916 
L 225.470289 152.134795 
L 226.682718 152.134795 
L 226.682718 151.671675 
L 227.577773 151.671675 
L 227.668303 150.745434 
L 228.365878 150.745434 
L 228.365878 150.282313 
L 229.778067 150.282313 
L 229.778067 149.356072 
L 230.470707 149.356072 
L 230.470707 148.892952 
L 231.213636 148.892952 
L 231.264891 147.966711 
L 233.417174 147.966711 
L 233.417174 147.50359 
L 234.230439 147.50359 
L 234.230439 147.04047 
L 234.984135 147.04047 
L 234.984135 146.577349 
L 235.829664 146.577349 
L 235.829664 146.114229 
L 236.204298 146.114229 
L 236.204298 144.724867 
L 236.576228 144.724867 
L 236.576228 143.798626 
L 236.93413 143.798626 
L 237.040261 141.483024 
L 237.46452 141.483024 
L 237.46452 141.019903 
L 238.008158 141.019903 
L 238.008158 140.556783 
L 238.722061 140.556783 
L 238.722061 139.630541 
L 239.919378 139.630541 
L 239.919378 138.7043 
L 240.302855 138.7043 
L 240.302855 138.24118 
L 240.643161 138.24118 
L 240.643161 137.314939 
L 241.106073 137.314939 
L 241.106073 136.388698 
L 241.248685 136.388698 
L 241.248685 135.925577 
L 241.532062 135.925577 
L 241.532062 134.999336 
L 243.41427 134.999336 
L 243.41427 134.073095 
L 244.543927 134.073095 
L 244.645977 132.220613 
L 244.696492 132.220613 
L 244.696492 131.757493 
L 245.313862 131.757493 
L 245.313862 131.294372 
L 245.61046 131.294372 
L 245.61046 130.831252 
L 247.107602 130.831252 
L 247.107602 130.368131 
L 247.310422 130.368131 
L 247.310422 129.905011 
L 247.738672 129.905011 
L 247.823841 128.97877 
L 248.210317 128.97877 
L 248.210317 128.515649 
L 248.650209 128.515649 
L 248.650209 127.589408 
L 249.268174 127.589408 
L 249.268174 127.126287 
L 249.514139 127.126287 
L 249.514139 126.200046 
L 250.083525 126.200046 
L 250.083525 125.736926 
L 251.818136 125.736926 
L 251.818136 125.273805 
L 252.091343 125.273805 
L 252.091343 124.810685 
L 252.614083 124.810685 
L 252.614083 124.347564 
L 255.010368 124.347564 
L 255.010368 123.884444 
L 255.169137 123.884444 
L 255.169137 123.421323 
L 258.132771 123.421323 
L 258.132771 122.958203 
L 338.688 122.958203 
L 338.688 122.958203 
" style="fill:none;stroke:#ff00ff;stroke-linecap:square;stroke-width:1.5;"/>
   </g>
   <g id="line2d_41">
    <defs>
     <path d="M 0 8.485281 
L 5.091169 0 
L 0 -8.485281 
L -5.091169 0 
z
" id="m5be5e9ed0e" style="stroke:#ff00ff;stroke-linejoin:miter;stroke-width:1.5;"/>
    </defs>
    <g>
     <use style="fill-opacity:0;stroke:#ff00ff;stroke-linejoin:miter;stroke-width:1.5;" x="180.819217" xlink:href="#m5be5e9ed0e" y="213.729825"/>
     <use style="fill-opacity:0;stroke:#ff00ff;stroke-linejoin:miter;stroke-width:1.5;" x="236.204298" xlink:href="#m5be5e9ed0e" y="144.724867"/>
     <use style="fill-opacity:0;stroke:#ff00ff;stroke-linejoin:miter;stroke-width:1.5;" x="258.132771" xlink:href="#m5be5e9ed0e" y="122.958203"/>
     <use style="fill-opacity:0;stroke:#ff00ff;stroke-linejoin:miter;stroke-width:1.5;" x="258.132771" xlink:href="#m5be5e9ed0e" y="122.958203"/>
     <use style="fill-opacity:0;stroke:#ff00ff;stroke-linejoin:miter;stroke-width:1.5;" x="338.688" xlink:href="#m5be5e9ed0e" y="122.958203"/>
    </g>
   </g>
   <g id="line2d_42">
    <path style="fill:none;stroke:#ff00ff;stroke-linecap:square;stroke-width:1.5;"/>
    <g/>
   </g>
   <g id="line2d_43">
    <path clip-path="url(#p3a1e2282e4)" d="M 258.387429 122.958203 
" style="fill:none;stroke:#ff00ff;stroke-linecap:square;stroke-width:1.5;"/>
    <defs>
     <path d="M -12 12 
L 12 -12 
M -12 -12 
L 12 12 
" id="mb7a7503240" style="stroke:#ff00ff;"/>
    </defs>
    <g clip-path="url(#p3a1e2282e4)">
     <use style="fill:#ff00ff;stroke:#ff00ff;" x="258.387429" xlink:href="#mb7a7503240" y="122.958203"/>
    </g>
   </g>
   <g id="line2d_44">
    <defs>
     <path d="M 0 1.5 
C 0.397805 1.5 0.77937 1.341951 1.06066 1.06066 
C 1.341951 0.77937 1.5 0.397805 1.5 0 
C 1.5 -0.397805 1.341951 -0.77937 1.06066 -1.06066 
C 0.77937 -1.341951 0.397805 -1.5 0 -1.5 
C -0.397805 -1.5 -0.77937 -1.341951 -1.06066 -1.06066 
C -1.341951 -0.77937 -1.5 -0.397805 -1.5 0 
C -1.5 0.397805 -1.341951 0.77937 -1.06066 1.06066 
C -0.77937 1.341951 -0.397805 1.5 0 1.5 
z
" id="m47365f861e" style="stroke:#ff7500;"/>
    </defs>
    <g>
     <use style="fill:#ff7500;stroke:#ff7500;" x="257.500055" xlink:href="#m47365f861e" y="128.97877"/>
     <use style="fill:#ff7500;stroke:#ff7500;" x="257.500055" xlink:href="#m47365f861e" y="128.97877"/>
    </g>
   </g>
   <g id="line2d_45">
    <path d="M 118.838828 298.944 
L 118.838828 298.480879 
L 133.800029 298.480879 
L 133.800029 297.091518 
L 134.019394 297.091518 
L 134.019394 294.775915 
L 137.37967 294.775915 
L 137.37967 293.849674 
L 142.818488 293.849674 
L 142.818488 293.386554 
L 148.015498 293.386554 
L 148.015498 291.997192 
L 151.015013 291.997192 
L 151.015013 291.070951 
L 151.421542 291.070951 
L 151.421542 290.14471 
L 151.936246 290.14471 
L 151.936246 289.68159 
L 152.052897 289.68159 
L 152.052897 288.755349 
L 152.922207 288.755349 
L 152.922207 288.292228 
L 153.395042 288.292228 
L 153.395042 287.829108 
L 153.573542 287.829108 
L 153.573542 287.365987 
L 153.715038 287.365987 
L 153.715038 286.439746 
L 154.972161 286.439746 
L 154.972161 285.513505 
L 155.55245 285.513505 
L 155.55245 285.050384 
L 156.114049 285.050384 
L 156.144725 282.734782 
L 157.098907 282.734782 
L 157.098907 282.271661 
L 157.920731 282.271661 
L 158.031107 280.419179 
L 158.705563 280.419179 
L 158.732007 278.103577 
L 159.226956 278.103577 
L 159.226956 276.714215 
L 159.532469 276.714215 
L 159.608019 275.787974 
L 160.176607 275.787974 
L 160.176607 275.324854 
L 160.466062 275.324854 
L 160.513841 274.398612 
L 160.891432 274.398612 
L 160.891432 273.472371 
L 161.077205 273.472371 
L 161.169354 272.54613 
L 161.215247 272.54613 
L 161.215247 272.08301 
L 162.217141 272.08301 
L 162.281931 270.230528 
L 162.581141 270.230528 
L 162.581141 269.767407 
L 162.770815 269.767407 
L 162.875305 267.914925 
L 163.020547 267.914925 
L 163.123555 266.525564 
L 163.985177 266.525564 
L 163.985177 265.599323 
L 164.276 265.599323 
L 164.276 265.136202 
L 164.75018 265.136202 
L 164.75018 264.209961 
L 165.679281 264.209961 
L 165.7501 263.28372 
L 165.803027 263.28372 
L 165.803027 262.8206 
L 165.995728 262.8206 
L 165.995728 261.894358 
L 166.134549 261.894358 
L 166.134549 261.431238 
L 166.425924 261.431238 
L 166.476842 260.041876 
L 166.645502 260.041876 
L 166.679039 258.652515 
L 166.779265 258.652515 
L 166.779265 257.726274 
L 166.978005 257.726274 
L 167.076532 255.410671 
L 167.320442 255.410671 
L 167.320442 254.48443 
L 167.640438 254.48443 
L 167.640438 254.02131 
L 167.87664 254.02131 
L 167.87664 253.558189 
L 168.078792 253.558189 
L 168.140524 252.631948 
L 168.217383 252.631948 
L 168.217383 251.705707 
L 168.370092 251.705707 
L 168.430803 249.853225 
L 168.77585 249.853225 
L 168.820356 248.926984 
L 168.938489 248.926984 
L 168.938489 248.000743 
L 169.474679 248.000743 
L 169.474679 247.074502 
L 169.701534 247.074502 
L 169.701534 246.611381 
L 169.897641 246.611381 
L 169.897641 246.148261 
L 170.228776 246.148261 
L 170.337772 245.22202 
L 171.173108 245.22202 
L 171.276376 242.906417 
L 171.758716 242.906417 
L 171.758716 241.980176 
L 171.871027 241.980176 
L 171.871027 241.053935 
L 172.00732 241.053935 
L 172.093501 240.127694 
L 172.240256 240.127694 
L 172.240256 239.664574 
L 172.397859 239.664574 
L 172.397859 238.738333 
L 172.589897 238.738333 
L 172.589897 238.275212 
L 172.874047 238.275212 
L 172.944366 236.42273 
L 173.699729 236.42273 
L 173.699729 235.959609 
L 173.855836 235.959609 
L 173.855836 235.496489 
L 174.109302 235.496489 
L 174.196608 234.107127 
L 174.423728 234.107127 
L 174.434469 232.717766 
L 174.584164 232.717766 
L 174.584164 231.791525 
L 175.303734 231.791525 
L 175.303734 230.865284 
L 175.486665 230.865284 
L 175.486665 230.402163 
L 175.687696 230.402163 
L 175.77741 227.62344 
L 175.984964 227.62344 
L 175.984964 227.16032 
L 176.621646 227.16032 
L 176.621646 226.697199 
L 177.345294 226.697199 
L 177.345294 226.234079 
L 177.66942 226.234079 
L 177.66942 225.770958 
L 178.031372 225.770958 
L 178.048838 224.381596 
L 178.394524 224.381596 
L 178.394524 223.455355 
L 178.8005 223.455355 
L 178.875579 222.065994 
L 179.139941 222.065994 
L 179.139941 221.602873 
L 179.712566 221.602873 
L 179.775924 219.750391 
L 180.450477 219.750391 
L 180.488462 217.897909 
L 180.647105 217.897909 
L 180.647105 216.971668 
L 180.982272 216.971668 
L 180.982272 216.508548 
L 181.129191 216.508548 
L 181.129191 216.045427 
L 181.81064 216.045427 
L 181.81064 215.582307 
L 182.323597 215.582307 
L 182.323597 214.656066 
L 182.742052 214.656066 
L 182.742052 213.729825 
L 183.299894 213.729825 
L 183.364365 212.340463 
L 183.435008 212.340463 
L 183.435008 211.877342 
L 183.996292 211.877342 
L 183.996292 211.414222 
L 184.113812 211.414222 
L 184.113812 210.487981 
L 184.695781 210.487981 
L 184.695781 210.02486 
L 184.850112 210.02486 
L 184.850112 209.56174 
L 185.613239 209.56174 
L 185.613239 209.098619 
L 185.893799 209.098619 
L 185.927165 207.246137 
L 186.447126 207.246137 
L 186.527826 204.930535 
L 187.103293 204.930535 
L 187.103293 204.467414 
L 187.222333 204.467414 
L 187.222333 204.004294 
L 187.589811 204.004294 
L 187.589811 203.541173 
L 187.780681 203.541173 
L 187.840524 201.688691 
L 188.331389 201.688691 
L 188.331389 201.225571 
L 189.163114 201.225571 
L 189.163114 198.909968 
L 189.650035 198.909968 
L 189.650035 197.983727 
L 189.948149 197.983727 
L 189.948149 197.520606 
L 190.154274 197.520606 
L 190.154274 196.594365 
L 190.77526 196.594365 
L 190.77526 196.131245 
L 191.403323 196.131245 
L 191.403323 195.668124 
L 192.060435 195.668124 
L 192.060435 195.205004 
L 192.328051 195.205004 
L 192.328051 194.741883 
L 193.359245 194.741883 
L 193.409962 193.352522 
L 193.785707 193.352522 
L 193.785707 192.426281 
L 194.010824 192.426281 
L 194.010824 191.50004 
L 194.353426 191.50004 
L 194.353426 191.036919 
L 194.863353 191.036919 
L 194.863353 189.647558 
L 195.02897 189.647558 
L 195.02897 188.721316 
L 195.274482 188.721316 
L 195.274482 188.258196 
L 195.439478 188.258196 
L 195.439478 187.331955 
L 196.458805 187.331955 
L 196.540616 185.942593 
L 197.014757 185.942593 
L 197.014757 185.016352 
L 198.634591 185.016352 
L 198.744163 182.237629 
L 199.818643 182.237629 
L 199.818643 181.774509 
L 200.133901 181.774509 
L 200.133901 181.311388 
L 200.2882 181.311388 
L 200.2882 180.848268 
L 200.628666 180.848268 
L 200.628666 180.385147 
L 200.821288 180.385147 
L 200.828382 179.458906 
L 201.778366 179.458906 
L 201.778366 178.995786 
L 202.318393 178.995786 
L 202.318393 178.532665 
L 202.497613 178.532665 
L 202.497613 177.606424 
L 203.13253 177.606424 
L 203.142884 176.680183 
L 203.566233 176.680183 
L 203.566233 176.217062 
L 204.177712 176.217062 
L 204.177712 175.290821 
L 205.215327 175.290821 
L 205.215327 174.827701 
L 205.859529 174.827701 
L 205.859529 174.36458 
L 206.014734 174.36458 
L 206.014734 173.90146 
L 206.179009 173.90146 
L 206.179009 172.975219 
L 206.689798 172.975219 
L 206.689798 172.048978 
L 208.601376 172.048978 
L 208.688958 171.122737 
L 209.230249 171.122737 
L 209.243386 169.733375 
L 209.434932 169.733375 
L 209.434932 169.270255 
L 210.112862 169.270255 
L 210.16138 168.344014 
L 210.780124 168.344014 
L 210.780124 167.880893 
L 211.689866 167.880893 
L 211.689866 167.417773 
L 212.027699 167.417773 
L 212.027699 166.028411 
L 212.22435 166.028411 
L 212.230498 164.63905 
L 212.376188 164.63905 
L 212.376188 164.175929 
L 212.779907 164.175929 
L 212.889163 162.786567 
L 213.386328 162.786567 
L 213.386328 162.323447 
L 213.558066 162.323447 
L 213.558066 161.860326 
L 214.038994 161.860326 
L 214.038994 161.397206 
L 214.602779 161.397206 
L 214.643508 160.470965 
L 215.656241 160.470965 
L 215.656241 160.007844 
L 216.980494 160.007844 
L 216.980494 159.544724 
L 217.756922 159.544724 
L 217.809678 158.155362 
L 218.359808 158.155362 
L 218.359808 157.692242 
L 218.619127 157.692242 
L 218.720259 156.30288 
L 219.91316 156.30288 
L 219.91316 155.376639 
L 221.639428 155.376639 
L 221.7345 153.524157 
L 222.729282 153.524157 
L 222.729282 153.061037 
L 222.986616 153.061037 
L 222.997229 151.208554 
L 224.662384 151.208554 
L 224.662384 150.745434 
L 224.832717 150.745434 
L 224.832717 149.819193 
L 225.268302 149.819193 
L 225.268302 149.356072 
L 225.580422 149.356072 
L 225.580422 148.892952 
L 225.898286 148.892952 
L 225.898286 148.429831 
L 226.680034 148.429831 
L 226.680034 147.966711 
L 228.996239 147.966711 
L 228.996239 147.04047 
L 229.434449 147.04047 
L 229.434449 146.114229 
L 230.878439 146.114229 
L 230.878439 145.651108 
L 231.709882 145.651108 
L 231.709882 145.187988 
L 232.469233 145.187988 
L 232.469233 144.724867 
L 234.149819 144.724867 
L 234.187209 143.335506 
L 234.847545 143.335506 
L 234.847545 142.872385 
L 236.92369 142.872385 
L 237.021876 141.483024 
L 237.407733 141.483024 
L 237.407733 140.556783 
L 238.636805 140.556783 
L 238.636805 140.093662 
L 238.994177 140.093662 
L 238.994177 139.630541 
L 240.875201 139.630541 
L 240.875201 139.167421 
L 241.258927 139.167421 
L 241.258927 138.7043 
L 241.523583 138.7043 
L 241.523583 137.778059 
L 243.72853 137.778059 
L 243.72853 137.314939 
L 246.545536 137.314939 
L 246.626974 135.925577 
L 248.964621 135.925577 
L 248.978528 134.999336 
L 249.172947 134.999336 
L 249.172947 134.536216 
L 249.624098 134.536216 
L 249.624098 133.609975 
L 251.157651 133.609975 
L 251.157651 133.146854 
L 251.353363 133.146854 
L 251.353363 132.683734 
L 252.54953 132.683734 
L 252.54953 132.220613 
L 254.695752 132.220613 
L 254.792512 131.294372 
L 256.182467 131.294372 
L 256.182467 130.368131 
L 256.465262 130.368131 
L 256.465262 129.44189 
L 257.500055 129.44189 
L 257.500055 128.97877 
L 338.688 128.97877 
L 338.688 128.97877 
" style="fill:none;stroke:#ff7500;stroke-linecap:square;stroke-width:1.5;"/>
   </g>
   <g id="line2d_46">
    <defs>
     <path d="M 0 -6 
L -1.347084 -1.854102 
L -5.706339 -1.854102 
L -2.179628 0.708204 
L -3.526712 4.854102 
L -0 2.291796 
L 3.526712 4.854102 
L 2.179628 0.708204 
L 5.706339 -1.854102 
L 1.347084 -1.854102 
z
" id="m78cc57db40" style="stroke:#ff7500;stroke-linejoin:bevel;stroke-width:1.5;"/>
    </defs>
    <g>
     <use style="fill-opacity:0;stroke:#ff7500;stroke-linejoin:bevel;stroke-width:1.5;" x="193.785707" xlink:href="#m78cc57db40" y="193.352522"/>
     <use style="fill-opacity:0;stroke:#ff7500;stroke-linejoin:bevel;stroke-width:1.5;" x="234.847545" xlink:href="#m78cc57db40" y="142.872385"/>
     <use style="fill-opacity:0;stroke:#ff7500;stroke-linejoin:bevel;stroke-width:1.5;" x="257.500055" xlink:href="#m78cc57db40" y="128.97877"/>
     <use style="fill-opacity:0;stroke:#ff7500;stroke-linejoin:bevel;stroke-width:1.5;" x="257.500055" xlink:href="#m78cc57db40" y="128.97877"/>
     <use style="fill-opacity:0;stroke:#ff7500;stroke-linejoin:bevel;stroke-width:1.5;" x="338.688" xlink:href="#m78cc57db40" y="128.97877"/>
    </g>
   </g>
   <g id="line2d_47">
    <path style="fill:none;stroke:#ff7500;stroke-linecap:square;stroke-width:1.5;"/>
    <g/>
   </g>
   <g id="line2d_48">
    <path clip-path="url(#p3a1e2282e4)" d="M 258.37723 128.97877 
" style="fill:none;stroke:#ff7500;stroke-linecap:square;stroke-width:1.5;"/>
    <defs>
     <path d="M -12 12 
L 12 -12 
M -12 -12 
L 12 12 
" id="m9e0210b49c" style="stroke:#ff7500;"/>
    </defs>
    <g clip-path="url(#p3a1e2282e4)">
     <use style="fill:#ff7500;stroke:#ff7500;" x="258.37723" xlink:href="#m9e0210b49c" y="128.97877"/>
    </g>
   </g>
   <g id="line2d_49">
    <path d="M 338.688 132.683734 
L 369.60768 293.571802 
" style="fill:none;stroke:#000080;stroke-linecap:square;stroke-width:1.5;"/>
    <g>
     <use style="fill-opacity:0;stroke:#000080;stroke-width:1.5;" x="338.688" xlink:href="#mff4df0238b" y="132.683734"/>
     <use style="fill-opacity:0;stroke:#000080;stroke-width:1.5;" x="369.60768" xlink:href="#mff4df0238b" y="293.571802"/>
    </g>
   </g>
   <g id="line2d_50">
    <path d="M 338.688 128.97877 
L 369.60768 207.616634 
" style="fill:none;stroke:#ff7500;stroke-linecap:square;stroke-width:1.5;"/>
    <g>
     <use style="fill-opacity:0;stroke:#ff7500;stroke-linejoin:bevel;stroke-width:1.5;" x="338.688" xlink:href="#m78cc57db40" y="128.97877"/>
     <use style="fill-opacity:0;stroke:#ff7500;stroke-linejoin:bevel;stroke-width:1.5;" x="369.60768" xlink:href="#m78cc57db40" y="207.616634"/>
    </g>
   </g>
   <g id="line2d_51">
    <path d="M 338.688 122.958203 
L 369.60768 121.661465 
" style="fill:none;stroke:#ff00ff;stroke-linecap:square;stroke-width:1.5;"/>
    <g>
     <use style="fill-opacity:0;stroke:#ff00ff;stroke-linejoin:miter;stroke-width:1.5;" x="338.688" xlink:href="#m5be5e9ed0e" y="122.958203"/>
     <use style="fill-opacity:0;stroke:#ff00ff;stroke-linejoin:miter;stroke-width:1.5;" x="369.60768" xlink:href="#m5be5e9ed0e" y="121.661465"/>
    </g>
   </g>
   <g id="line2d_52">
    <path d="M 338.688 298.944 
L 338.688 30.334099 
" style="fill:none;stroke:#000000;stroke-linecap:square;stroke-width:1.5;"/>
   </g>
   <g id="patch_3">
    <path d="M 57.6 298.944 
L 57.6 27.648 
" style="fill:none;stroke:#000000;stroke-linecap:square;stroke-linejoin:miter;stroke-width:0.8;"/>
   </g>
   <g id="patch_4">
    <path d="M 338.688 298.944 
L 338.688 27.648 
" style="fill:none;stroke:#000000;stroke-linecap:square;stroke-linejoin:miter;stroke-width:0.8;"/>
   </g>
   <g id="patch_5">
    <path d="M 57.6 298.944 
L 338.688 298.944 
" style="fill:none;stroke:#000000;stroke-linecap:square;stroke-linejoin:miter;stroke-width:0.8;"/>
   </g>
   <g id="patch_6">
    <path d="M 57.6 27.648 
L 338.688 27.648 
" style="fill:none;stroke:#000000;stroke-linecap:square;stroke-linejoin:miter;stroke-width:0.8;"/>
   </g>
   <g id="text_13">
    <!-- COMO-100  -->
    <g transform="translate(375.22944 298.262739)scale(0.17 -0.17)">
     <defs>
      <path d="M 64.40625 67.28125 
L 64.40625 56.890625 
Q 59.421875 61.53125 53.78125 63.8125 
Q 48.140625 66.109375 41.796875 66.109375 
Q 29.296875 66.109375 22.65625 58.46875 
Q 16.015625 50.828125 16.015625 36.375 
Q 16.015625 21.96875 22.65625 14.328125 
Q 29.296875 6.6875 41.796875 6.6875 
Q 48.140625 6.6875 53.78125 8.984375 
Q 59.421875 11.28125 64.40625 15.921875 
L 64.40625 5.609375 
Q 59.234375 2.09375 53.4375 0.328125 
Q 47.65625 -1.421875 41.21875 -1.421875 
Q 24.65625 -1.421875 15.125 8.703125 
Q 5.609375 18.84375 5.609375 36.375 
Q 5.609375 53.953125 15.125 64.078125 
Q 24.65625 74.21875 41.21875 74.21875 
Q 47.75 74.21875 53.53125 72.484375 
Q 59.328125 70.75 64.40625 67.28125 
z
" id="DejaVuSans-67"/>
      <path d="M 39.40625 66.21875 
Q 28.65625 66.21875 22.328125 58.203125 
Q 16.015625 50.203125 16.015625 36.375 
Q 16.015625 22.609375 22.328125 14.59375 
Q 28.65625 6.59375 39.40625 6.59375 
Q 50.140625 6.59375 56.421875 14.59375 
Q 62.703125 22.609375 62.703125 36.375 
Q 62.703125 50.203125 56.421875 58.203125 
Q 50.140625 66.21875 39.40625 66.21875 
z
M 39.40625 74.21875 
Q 54.734375 74.21875 63.90625 63.9375 
Q 73.09375 53.65625 73.09375 36.375 
Q 73.09375 19.140625 63.90625 8.859375 
Q 54.734375 -1.421875 39.40625 -1.421875 
Q 24.03125 -1.421875 14.8125 8.828125 
Q 5.609375 19.09375 5.609375 36.375 
Q 5.609375 53.65625 14.8125 63.9375 
Q 24.03125 74.21875 39.40625 74.21875 
z
" id="DejaVuSans-79"/>
      <path d="M 9.8125 72.90625 
L 24.515625 72.90625 
L 43.109375 23.296875 
L 61.8125 72.90625 
L 76.515625 72.90625 
L 76.515625 0 
L 66.890625 0 
L 66.890625 64.015625 
L 48.09375 14.015625 
L 38.1875 14.015625 
L 19.390625 64.015625 
L 19.390625 0 
L 9.8125 0 
z
" id="DejaVuSans-77"/>
     </defs>
     <use xlink:href="#DejaVuSans-67"/>
     <use x="69.824219" xlink:href="#DejaVuSans-79"/>
     <use x="148.535156" xlink:href="#DejaVuSans-77"/>
     <use x="234.814453" xlink:href="#DejaVuSans-79"/>
     <use x="316.275391" xlink:href="#DejaVuSans-45"/>
     <use x="352.359375" xlink:href="#DejaVuSans-49"/>
     <use x="415.982422" xlink:href="#DejaVuSans-48"/>
     <use x="479.605469" xlink:href="#DejaVuSans-48"/>
     <use x="543.228516" xlink:href="#DejaVuSans-32"/>
    </g>
   </g>
   <g id="text_14">
    <!-- SMS-EMOA- -->
    <g transform="translate(375.22944 212.307571)scale(0.17 -0.17)">
     <defs>
      <path d="M 53.515625 70.515625 
L 53.515625 60.890625 
Q 47.90625 63.578125 42.921875 64.890625 
Q 37.9375 66.21875 33.296875 66.21875 
Q 25.25 66.21875 20.875 63.09375 
Q 16.5 59.96875 16.5 54.203125 
Q 16.5 49.359375 19.40625 46.890625 
Q 22.3125 44.4375 30.421875 42.921875 
L 36.375 41.703125 
Q 47.40625 39.59375 52.65625 34.296875 
Q 57.90625 29 57.90625 20.125 
Q 57.90625 9.515625 50.796875 4.046875 
Q 43.703125 -1.421875 29.984375 -1.421875 
Q 24.8125 -1.421875 18.96875 -0.25 
Q 13.140625 0.921875 6.890625 3.21875 
L 6.890625 13.375 
Q 12.890625 10.015625 18.65625 8.296875 
Q 24.421875 6.59375 29.984375 6.59375 
Q 38.421875 6.59375 43.015625 9.90625 
Q 47.609375 13.234375 47.609375 19.390625 
Q 47.609375 24.75 44.3125 27.78125 
Q 41.015625 30.8125 33.5 32.328125 
L 27.484375 33.5 
Q 16.453125 35.6875 11.515625 40.375 
Q 6.59375 45.0625 6.59375 53.421875 
Q 6.59375 63.09375 13.40625 68.65625 
Q 20.21875 74.21875 32.171875 74.21875 
Q 37.3125 74.21875 42.625 73.28125 
Q 47.953125 72.359375 53.515625 70.515625 
z
" id="DejaVuSans-83"/>
      <path d="M 9.8125 72.90625 
L 55.90625 72.90625 
L 55.90625 64.59375 
L 19.671875 64.59375 
L 19.671875 43.015625 
L 54.390625 43.015625 
L 54.390625 34.71875 
L 19.671875 34.71875 
L 19.671875 8.296875 
L 56.78125 8.296875 
L 56.78125 0 
L 9.8125 0 
z
" id="DejaVuSans-69"/>
      <path d="M 34.1875 63.1875 
L 20.796875 26.90625 
L 47.609375 26.90625 
z
M 28.609375 72.90625 
L 39.796875 72.90625 
L 67.578125 0 
L 57.328125 0 
L 50.6875 18.703125 
L 17.828125 18.703125 
L 11.1875 0 
L 0.78125 0 
z
" id="DejaVuSans-65"/>
     </defs>
     <use xlink:href="#DejaVuSans-83"/>
     <use x="63.476562" xlink:href="#DejaVuSans-77"/>
     <use x="149.755859" xlink:href="#DejaVuSans-83"/>
     <use x="213.232422" xlink:href="#DejaVuSans-45"/>
     <use x="249.316406" xlink:href="#DejaVuSans-69"/>
     <use x="312.5" xlink:href="#DejaVuSans-77"/>
     <use x="398.779297" xlink:href="#DejaVuSans-79"/>
     <use x="475.740234" xlink:href="#DejaVuSans-65"/>
     <use x="541.898438" xlink:href="#DejaVuSans-45"/>
    </g>
   </g>
   <g id="text_15">
    <!-- NSGA-II-M -->
    <g transform="translate(375.22944 126.352403)scale(0.17 -0.17)">
     <defs>
      <path d="M 9.8125 72.90625 
L 23.09375 72.90625 
L 55.421875 11.921875 
L 55.421875 72.90625 
L 64.984375 72.90625 
L 64.984375 0 
L 51.703125 0 
L 19.390625 60.984375 
L 19.390625 0 
L 9.8125 0 
z
" id="DejaVuSans-78"/>
      <path d="M 59.515625 10.40625 
L 59.515625 29.984375 
L 43.40625 29.984375 
L 43.40625 38.09375 
L 69.28125 38.09375 
L 69.28125 6.78125 
Q 63.578125 2.734375 56.6875 0.65625 
Q 49.8125 -1.421875 42 -1.421875 
Q 24.90625 -1.421875 15.25 8.5625 
Q 5.609375 18.5625 5.609375 36.375 
Q 5.609375 54.25 15.25 64.234375 
Q 24.90625 74.21875 42 74.21875 
Q 49.125 74.21875 55.546875 72.453125 
Q 61.96875 70.703125 67.390625 67.28125 
L 67.390625 56.78125 
Q 61.921875 61.421875 55.765625 63.765625 
Q 49.609375 66.109375 42.828125 66.109375 
Q 29.4375 66.109375 22.71875 58.640625 
Q 16.015625 51.171875 16.015625 36.375 
Q 16.015625 21.625 22.71875 14.15625 
Q 29.4375 6.6875 42.828125 6.6875 
Q 48.046875 6.6875 52.140625 7.59375 
Q 56.25 8.5 59.515625 10.40625 
z
" id="DejaVuSans-71"/>
      <path d="M 9.8125 72.90625 
L 19.671875 72.90625 
L 19.671875 0 
L 9.8125 0 
z
" id="DejaVuSans-73"/>
     </defs>
     <use xlink:href="#DejaVuSans-78"/>
     <use x="74.804688" xlink:href="#DejaVuSans-83"/>
     <use x="138.28125" xlink:href="#DejaVuSans-71"/>
     <use x="215.771484" xlink:href="#DejaVuSans-65"/>
     <use x="281.929688" xlink:href="#DejaVuSans-45"/>
     <use x="318.013672" xlink:href="#DejaVuSans-73"/>
     <use x="347.505859" xlink:href="#DejaVuSans-73"/>
     <use x="376.998047" xlink:href="#DejaVuSans-45"/>
     <use x="413.082031" xlink:href="#DejaVuSans-77"/>
    </g>
   </g>
   <g id="text_16">
    <!-- best 2016 -->
    <g transform="translate(375.22944 40.397235)scale(0.17 -0.17)">
     <defs>
      <path d="M 48.6875 27.296875 
Q 48.6875 37.203125 44.609375 42.84375 
Q 40.53125 48.484375 33.40625 48.484375 
Q 26.265625 48.484375 22.1875 42.84375 
Q 18.109375 37.203125 18.109375 27.296875 
Q 18.109375 17.390625 22.1875 11.75 
Q 26.265625 6.109375 33.40625 6.109375 
Q 40.53125 6.109375 44.609375 11.75 
Q 48.6875 17.390625 48.6875 27.296875 
z
M 18.109375 46.390625 
Q 20.953125 51.265625 25.265625 53.625 
Q 29.59375 56 35.59375 56 
Q 45.5625 56 51.78125 48.09375 
Q 58.015625 40.1875 58.015625 27.296875 
Q 58.015625 14.40625 51.78125 6.484375 
Q 45.5625 -1.421875 35.59375 -1.421875 
Q 29.59375 -1.421875 25.265625 0.953125 
Q 20.953125 3.328125 18.109375 8.203125 
L 18.109375 0 
L 9.078125 0 
L 9.078125 75.984375 
L 18.109375 75.984375 
z
" id="DejaVuSans-98"/>
     </defs>
     <use xlink:href="#DejaVuSans-98"/>
     <use x="63.476562" xlink:href="#DejaVuSans-101"/>
     <use x="125" xlink:href="#DejaVuSans-115"/>
     <use x="177.099609" xlink:href="#DejaVuSans-116"/>
     <use x="216.308594" xlink:href="#DejaVuSans-32"/>
     <use x="248.095703" xlink:href="#DejaVuSans-50"/>
     <use x="311.71875" xlink:href="#DejaVuSans-48"/>
     <use x="375.341797" xlink:href="#DejaVuSans-49"/>
     <use x="438.964844" xlink:href="#DejaVuSans-54"/>
    </g>
   </g>
   <g id="text_17">
    <!-- bbob-biobj f37, 2-D -->
    <g transform="translate(60.41088 38.111366)scale(0.102 -0.102)">
     <defs>
      <path d="M 9.421875 54.6875 
L 18.40625 54.6875 
L 18.40625 -0.984375 
Q 18.40625 -11.421875 14.421875 -16.109375 
Q 10.453125 -20.796875 1.609375 -20.796875 
L -1.8125 -20.796875 
L -1.8125 -13.1875 
L 0.59375 -13.1875 
Q 5.71875 -13.1875 7.5625 -10.8125 
Q 9.421875 -8.453125 9.421875 -0.984375 
z
M 9.421875 75.984375 
L 18.40625 75.984375 
L 18.40625 64.59375 
L 9.421875 64.59375 
z
" id="DejaVuSans-106"/>
      <path d="M 40.578125 39.3125 
Q 47.65625 37.796875 51.625 33 
Q 55.609375 28.21875 55.609375 21.1875 
Q 55.609375 10.40625 48.1875 4.484375 
Q 40.765625 -1.421875 27.09375 -1.421875 
Q 22.515625 -1.421875 17.65625 -0.515625 
Q 12.796875 0.390625 7.625 2.203125 
L 7.625 11.71875 
Q 11.71875 9.328125 16.59375 8.109375 
Q 21.484375 6.890625 26.8125 6.890625 
Q 36.078125 6.890625 40.9375 10.546875 
Q 45.796875 14.203125 45.796875 21.1875 
Q 45.796875 27.640625 41.28125 31.265625 
Q 36.765625 34.90625 28.71875 34.90625 
L 20.21875 34.90625 
L 20.21875 43.015625 
L 29.109375 43.015625 
Q 36.375 43.015625 40.234375 45.921875 
Q 44.09375 48.828125 44.09375 54.296875 
Q 44.09375 59.90625 40.109375 62.90625 
Q 36.140625 65.921875 28.71875 65.921875 
Q 24.65625 65.921875 20.015625 65.03125 
Q 15.375 64.15625 9.8125 62.3125 
L 9.8125 71.09375 
Q 15.4375 72.65625 20.34375 73.4375 
Q 25.25 74.21875 29.59375 74.21875 
Q 40.828125 74.21875 47.359375 69.109375 
Q 53.90625 64.015625 53.90625 55.328125 
Q 53.90625 49.265625 50.4375 45.09375 
Q 46.96875 40.921875 40.578125 39.3125 
z
" id="DejaVuSans-51"/>
      <path d="M 8.203125 72.90625 
L 55.078125 72.90625 
L 55.078125 68.703125 
L 28.609375 0 
L 18.3125 0 
L 43.21875 64.59375 
L 8.203125 64.59375 
z
" id="DejaVuSans-55"/>
      <path d="M 19.671875 64.796875 
L 19.671875 8.109375 
L 31.59375 8.109375 
Q 46.6875 8.109375 53.6875 14.9375 
Q 60.6875 21.78125 60.6875 36.53125 
Q 60.6875 51.171875 53.6875 57.984375 
Q 46.6875 64.796875 31.59375 64.796875 
z
M 9.8125 72.90625 
L 30.078125 72.90625 
Q 51.265625 72.90625 61.171875 64.09375 
Q 71.09375 55.28125 71.09375 36.53125 
Q 71.09375 17.671875 61.125 8.828125 
Q 51.171875 0 30.078125 0 
L 9.8125 0 
z
" id="DejaVuSans-68"/>
     </defs>
     <use xlink:href="#DejaVuSans-98"/>
     <use x="63.476562" xlink:href="#DejaVuSans-98"/>
     <use x="126.953125" xlink:href="#DejaVuSans-111"/>
     <use x="188.134766" xlink:href="#DejaVuSans-98"/>
     <use x="251.611328" xlink:href="#DejaVuSans-45"/>
     <use x="287.695312" xlink:href="#DejaVuSans-98"/>
     <use x="351.171875" xlink:href="#DejaVuSans-105"/>
     <use x="378.955078" xlink:href="#DejaVuSans-111"/>
     <use x="440.136719" xlink:href="#DejaVuSans-98"/>
     <use x="503.613281" xlink:href="#DejaVuSans-106"/>
     <use x="531.396484" xlink:href="#DejaVuSans-32"/>
     <use x="563.183594" xlink:href="#DejaVuSans-102"/>
     <use x="598.388672" xlink:href="#DejaVuSans-51"/>
     <use x="662.011719" xlink:href="#DejaVuSans-55"/>
     <use x="725.634766" xlink:href="#DejaVuSans-44"/>
     <use x="757.421875" xlink:href="#DejaVuSans-32"/>
     <use x="789.208984" xlink:href="#DejaVuSans-50"/>
     <use x="852.832031" xlink:href="#DejaVuSans-45"/>
     <use x="888.916016" xlink:href="#DejaVuSans-68"/>
    </g>
    <!-- 58 targets: 1..-1.0e-4 -->
    <g transform="translate(60.41088 49.533135)scale(0.102 -0.102)">
     <defs>
      <path d="M 10.796875 72.90625 
L 49.515625 72.90625 
L 49.515625 64.59375 
L 19.828125 64.59375 
L 19.828125 46.734375 
Q 21.96875 47.46875 24.109375 47.828125 
Q 26.265625 48.1875 28.421875 48.1875 
Q 40.625 48.1875 47.75 41.5 
Q 54.890625 34.8125 54.890625 23.390625 
Q 54.890625 11.625 47.5625 5.09375 
Q 40.234375 -1.421875 26.90625 -1.421875 
Q 22.3125 -1.421875 17.546875 -0.640625 
Q 12.796875 0.140625 7.71875 1.703125 
L 7.71875 11.625 
Q 12.109375 9.234375 16.796875 8.0625 
Q 21.484375 6.890625 26.703125 6.890625 
Q 35.15625 6.890625 40.078125 11.328125 
Q 45.015625 15.765625 45.015625 23.390625 
Q 45.015625 31 40.078125 35.4375 
Q 35.15625 39.890625 26.703125 39.890625 
Q 22.75 39.890625 18.8125 39.015625 
Q 14.890625 38.140625 10.796875 36.28125 
z
" id="DejaVuSans-53"/>
      <path d="M 11.71875 12.40625 
L 22.015625 12.40625 
L 22.015625 0 
L 11.71875 0 
z
M 11.71875 51.703125 
L 22.015625 51.703125 
L 22.015625 39.3125 
L 11.71875 39.3125 
z
" id="DejaVuSans-58"/>
     </defs>
     <use xlink:href="#DejaVuSans-53"/>
     <use x="63.623047" xlink:href="#DejaVuSans-56"/>
     <use x="127.246094" xlink:href="#DejaVuSans-32"/>
     <use x="159.033203" xlink:href="#DejaVuSans-116"/>
     <use x="198.242188" xlink:href="#DejaVuSans-97"/>
     <use x="259.521484" xlink:href="#DejaVuSans-114"/>
     <use x="298.884766" xlink:href="#DejaVuSans-103"/>
     <use x="362.361328" xlink:href="#DejaVuSans-101"/>
     <use x="423.884766" xlink:href="#DejaVuSans-116"/>
     <use x="463.09375" xlink:href="#DejaVuSans-115"/>
     <use x="515.193359" xlink:href="#DejaVuSans-58"/>
     <use x="548.884766" xlink:href="#DejaVuSans-32"/>
     <use x="580.671875" xlink:href="#DejaVuSans-49"/>
     <use x="644.294922" xlink:href="#DejaVuSans-46"/>
     <use x="676.082031" xlink:href="#DejaVuSans-46"/>
     <use x="707.869141" xlink:href="#DejaVuSans-45"/>
     <use x="743.953125" xlink:href="#DejaVuSans-49"/>
     <use x="807.576172" xlink:href="#DejaVuSans-46"/>
     <use x="839.363281" xlink:href="#DejaVuSans-48"/>
     <use x="902.986328" xlink:href="#DejaVuSans-101"/>
     <use x="964.509766" xlink:href="#DejaVuSans-45"/>
     <use x="1000.59375" xlink:href="#DejaVuSans-52"/>
    </g>
    <!-- 10 instances -->
    <g transform="translate(60.41088 60.954904)scale(0.102 -0.102)">
     <use xlink:href="#DejaVuSans-49"/>
     <use x="63.623047" xlink:href="#DejaVuSans-48"/>
     <use x="127.246094" xlink:href="#DejaVuSans-32"/>
     <use x="159.033203" xlink:href="#DejaVuSans-105"/>
     <use x="186.816406" xlink:href="#DejaVuSans-110"/>
     <use x="250.195312" xlink:href="#DejaVuSans-115"/>
     <use x="302.294922" xlink:href="#DejaVuSans-116"/>
     <use x="341.503906" xlink:href="#DejaVuSans-97"/>
     <use x="402.783203" xlink:href="#DejaVuSans-110"/>
     <use x="466.162109" xlink:href="#DejaVuSans-99"/>
     <use x="521.142578" xlink:href="#DejaVuSans-101"/>
     <use x="582.666016" xlink:href="#DejaVuSans-115"/>
    </g>
   </g>
   <g id="text_18">
    <!-- v2.4.19, hv-hash=ff0e71e8cd978373 -->
    <g style="fill:#808080;" transform="translate(104.697125 294.151352)scale(0.1 -0.1)">
     <defs>
      <path d="M 10.984375 1.515625 
L 10.984375 10.5 
Q 14.703125 8.734375 18.5 7.8125 
Q 22.3125 6.890625 25.984375 6.890625 
Q 35.75 6.890625 40.890625 13.453125 
Q 46.046875 20.015625 46.78125 33.40625 
Q 43.953125 29.203125 39.59375 26.953125 
Q 35.25 24.703125 29.984375 24.703125 
Q 19.046875 24.703125 12.671875 31.3125 
Q 6.296875 37.9375 6.296875 49.421875 
Q 6.296875 60.640625 12.9375 67.421875 
Q 19.578125 74.21875 30.609375 74.21875 
Q 43.265625 74.21875 49.921875 64.515625 
Q 56.59375 54.828125 56.59375 36.375 
Q 56.59375 19.140625 48.40625 8.859375 
Q 40.234375 -1.421875 26.421875 -1.421875 
Q 22.703125 -1.421875 18.890625 -0.6875 
Q 15.09375 0.046875 10.984375 1.515625 
z
M 30.609375 32.421875 
Q 37.25 32.421875 41.125 36.953125 
Q 45.015625 41.5 45.015625 49.421875 
Q 45.015625 57.28125 41.125 61.84375 
Q 37.25 66.40625 30.609375 66.40625 
Q 23.96875 66.40625 20.09375 61.84375 
Q 16.21875 57.28125 16.21875 49.421875 
Q 16.21875 41.5 20.09375 36.953125 
Q 23.96875 32.421875 30.609375 32.421875 
z
" id="DejaVuSans-57"/>
      <path d="M 54.890625 33.015625 
L 54.890625 0 
L 45.90625 0 
L 45.90625 32.71875 
Q 45.90625 40.484375 42.875 44.328125 
Q 39.84375 48.1875 33.796875 48.1875 
Q 26.515625 48.1875 22.3125 43.546875 
Q 18.109375 38.921875 18.109375 30.90625 
L 18.109375 0 
L 9.078125 0 
L 9.078125 75.984375 
L 18.109375 75.984375 
L 18.109375 46.1875 
Q 21.34375 51.125 25.703125 53.5625 
Q 30.078125 56 35.796875 56 
Q 45.21875 56 50.046875 50.171875 
Q 54.890625 44.34375 54.890625 33.015625 
z
" id="DejaVuSans-104"/>
      <path d="M 10.59375 45.40625 
L 73.1875 45.40625 
L 73.1875 37.203125 
L 10.59375 37.203125 
z
M 10.59375 25.484375 
L 73.1875 25.484375 
L 73.1875 17.1875 
L 10.59375 17.1875 
z
" id="DejaVuSans-61"/>
     </defs>
     <use xlink:href="#DejaVuSans-118"/>
     <use x="59.179688" xlink:href="#DejaVuSans-50"/>
     <use x="122.802734" xlink:href="#DejaVuSans-46"/>
     <use x="154.589844" xlink:href="#DejaVuSans-52"/>
     <use x="218.212891" xlink:href="#DejaVuSans-46"/>
     <use x="250" xlink:href="#DejaVuSans-49"/>
     <use x="313.623047" xlink:href="#DejaVuSans-57"/>
     <use x="377.246094" xlink:href="#DejaVuSans-44"/>
     <use x="409.033203" xlink:href="#DejaVuSans-32"/>
     <use x="440.820312" xlink:href="#DejaVuSans-104"/>
     <use x="504.199219" xlink:href="#DejaVuSans-118"/>
     <use x="560.753906" xlink:href="#DejaVuSans-45"/>
     <use x="596.837891" xlink:href="#DejaVuSans-104"/>
     <use x="660.216797" xlink:href="#DejaVuSans-97"/>
     <use x="721.496094" xlink:href="#DejaVuSans-115"/>
     <use x="773.595703" xlink:href="#DejaVuSans-104"/>
     <use x="836.974609" xlink:href="#DejaVuSans-61"/>
     <use x="920.763672" xlink:href="#DejaVuSans-102"/>
     <use x="955.96875" xlink:href="#DejaVuSans-102"/>
     <use x="991.173828" xlink:href="#DejaVuSans-48"/>
     <use x="1054.796875" xlink:href="#DejaVuSans-101"/>
     <use x="1116.320312" xlink:href="#DejaVuSans-55"/>
     <use x="1179.943359" xlink:href="#DejaVuSans-49"/>
     <use x="1243.566406" xlink:href="#DejaVuSans-101"/>
     <use x="1305.089844" xlink:href="#DejaVuSans-56"/>
     <use x="1368.712891" xlink:href="#DejaVuSans-99"/>
     <use x="1423.693359" xlink:href="#DejaVuSans-100"/>
     <use x="1487.169922" xlink:href="#DejaVuSans-57"/>
     <use x="1550.792969" xlink:href="#DejaVuSans-55"/>
     <use x="1614.416016" xlink:href="#DejaVuSans-56"/>
     <use x="1678.039062" xlink:href="#DejaVuSans-51"/>
     <use x="1741.662109" xlink:href="#DejaVuSans-55"/>
     <use x="1805.285156" xlink:href="#DejaVuSans-51"/>
    </g>
   </g>
   <g id="text_19">
    <!-- 37 Sharp ridge/Rastrigin -->
    <g transform="translate(76.347125 21.648)scale(0.2 -0.2)">
     <defs>
      <path d="M 44.390625 34.1875 
Q 47.5625 33.109375 50.5625 29.59375 
Q 53.5625 26.078125 56.59375 19.921875 
L 66.609375 0 
L 56 0 
L 46.6875 18.703125 
Q 43.0625 26.03125 39.671875 28.421875 
Q 36.28125 30.8125 30.421875 30.8125 
L 19.671875 30.8125 
L 19.671875 0 
L 9.8125 0 
L 9.8125 72.90625 
L 32.078125 72.90625 
Q 44.578125 72.90625 50.734375 67.671875 
Q 56.890625 62.453125 56.890625 51.90625 
Q 56.890625 45.015625 53.6875 40.46875 
Q 50.484375 35.9375 44.390625 34.1875 
z
M 19.671875 64.796875 
L 19.671875 38.921875 
L 32.078125 38.921875 
Q 39.203125 38.921875 42.84375 42.21875 
Q 46.484375 45.515625 46.484375 51.90625 
Q 46.484375 58.296875 42.84375 61.546875 
Q 39.203125 64.796875 32.078125 64.796875 
z
" id="DejaVuSans-82"/>
     </defs>
     <use xlink:href="#DejaVuSans-51"/>
     <use x="63.623047" xlink:href="#DejaVuSans-55"/>
     <use x="127.246094" xlink:href="#DejaVuSans-32"/>
     <use x="159.033203" xlink:href="#DejaVuSans-83"/>
     <use x="222.509766" xlink:href="#DejaVuSans-104"/>
     <use x="285.888672" xlink:href="#DejaVuSans-97"/>
     <use x="347.167969" xlink:href="#DejaVuSans-114"/>
     <use x="388.28125" xlink:href="#DejaVuSans-112"/>
     <use x="451.757812" xlink:href="#DejaVuSans-32"/>
     <use x="483.544922" xlink:href="#DejaVuSans-114"/>
     <use x="524.658203" xlink:href="#DejaVuSans-105"/>
     <use x="552.441406" xlink:href="#DejaVuSans-100"/>
     <use x="615.917969" xlink:href="#DejaVuSans-103"/>
     <use x="679.394531" xlink:href="#DejaVuSans-101"/>
     <use x="740.917969" xlink:href="#DejaVuSans-47"/>
     <use x="774.609375" xlink:href="#DejaVuSans-82"/>
     <use x="841.841797" xlink:href="#DejaVuSans-97"/>
     <use x="903.121094" xlink:href="#DejaVuSans-115"/>
     <use x="955.220703" xlink:href="#DejaVuSans-116"/>
     <use x="994.429688" xlink:href="#DejaVuSans-114"/>
     <use x="1035.542969" xlink:href="#DejaVuSans-105"/>
     <use x="1063.326172" xlink:href="#DejaVuSans-103"/>
     <use x="1126.802734" xlink:href="#DejaVuSans-105"/>
     <use x="1154.585938" xlink:href="#DejaVuSans-110"/>
    </g>
   </g>
  </g>
 </g>
 <defs>
  <clipPath id="p3a1e2282e4">
   <rect height="271.296" width="281.088" x="57.6" y="27.648"/>
  </clipPath>
 </defs>
</svg>
