<?xml version="1.0" encoding="utf-8" standalone="no"?>
<!DOCTYPE svg PUBLIC "-//W3C//DTD SVG 1.1//EN"
  "http://www.w3.org/Graphics/SVG/1.1/DTD/svg11.dtd">
<!-- Created with matplotlib (https://matplotlib.org/) -->
<svg height="345.6pt" version="1.1" viewBox="0 0 460.8 345.6" width="460.8pt" xmlns="http://www.w3.org/2000/svg" xmlns:xlink="http://www.w3.org/1999/xlink">
 <metadata>
  <rdf:RDF xmlns:cc="http://creativecommons.org/ns#" xmlns:dc="http://purl.org/dc/elements/1.1/" xmlns:rdf="http://www.w3.org/1999/02/22-rdf-syntax-ns#">
   <cc:Work>
    <dc:type rdf:resource="http://purl.org/dc/dcmitype/StillImage"/>
    <dc:date>2021-04-26T15:06:55.965247</dc:date>
    <dc:format>image/svg+xml</dc:format>
    <dc:creator>
     <cc:Agent>
      <dc:title>Matplotlib v3.3.2, https://matplotlib.org/</dc:title>
     </cc:Agent>
    </dc:creator>
   </cc:Work>
  </rdf:RDF>
 </metadata>
 <defs>
  <style type="text/css">*{stroke-linecap:butt;stroke-linejoin:round;}</style>
 </defs>
 <g id="figure_1">
  <g id="patch_1">
   <path d="M 0 345.6 
L 460.8 345.6 
L 460.8 0 
L 0 0 
z
" style="fill:#ffffff;"/>
  </g>
  <g id="axes_1">
   <g id="patch_2">
    <path d="M 57.6 298.944 
L 338.688 298.944 
L 338.688 27.648 
L 57.6 27.648 
z
" style="fill:#ffffff;"/>
   </g>
   <g id="line2d_1">
    <path d="M 50.52898 298.944 
L 50.52898 275.787974 
L 57.6 275.787974 
L 57.6 271.156769 
L 66.508432 271.156769 
L 66.508432 257.263153 
L 69.687988 257.263153 
L 69.687988 248.000743 
L 85.66744 248.000743 
L 85.66744 243.369538 
L 89.78989 243.369538 
L 89.78989 234.107127 
L 90.684409 234.107127 
L 90.684409 220.213512 
L 94.575872 220.213512 
L 94.575872 210.951101 
L 98.880934 210.951101 
L 98.880934 201.688691 
L 104.434538 201.688691 
L 104.434538 192.426281 
L 110.415248 192.426281 
L 110.415248 187.795075 
L 121.785469 187.795075 
L 121.785469 173.90146 
L 127.378995 173.90146 
L 127.378995 169.270255 
L 134.019394 169.270255 
L 134.019394 155.376639 
L 142.971369 155.376639 
L 142.971369 146.114229 
L 152.786492 146.114229 
L 152.786492 141.483024 
L 174.942445 141.483024 
L 174.942445 127.589408 
L 179.69669 127.589408 
L 179.69669 122.958203 
L 187.561169 122.958203 
L 187.561169 109.064587 
L 196.622044 109.064587 
L 196.622044 99.802177 
L 207.272306 99.802177 
L 207.272306 90.539766 
L 220.965708 90.539766 
L 220.965708 85.908561 
L 241.143983 85.908561 
L 241.143983 76.646151 
L 251.74746 76.646151 
L 251.74746 62.752535 
L 338.688 62.752535 
" style="fill:none;stroke:#f5deb3;stroke-linecap:square;stroke-width:4;"/>
   </g>
   <g id="line2d_2">
    <defs>
     <path d="M 0 7.778175 
L 7.778175 0 
L 0 -7.778175 
L -7.778175 0 
z
" id="m4a41fdae7a" style="stroke:#f5deb3;stroke-linejoin:miter;stroke-width:1.5;"/>
    </defs>
    <g>
     <use style="fill:#f5deb3;stroke:#f5deb3;stroke-linejoin:miter;stroke-width:1.5;" x="89.78989" xlink:href="#m4a41fdae7a" y="243.369538"/>
     <use style="fill:#f5deb3;stroke:#f5deb3;stroke-linejoin:miter;stroke-width:1.5;" x="110.415248" xlink:href="#m4a41fdae7a" y="187.795075"/>
     <use style="fill:#f5deb3;stroke:#f5deb3;stroke-linejoin:miter;stroke-width:1.5;" x="187.561169" xlink:href="#m4a41fdae7a" y="122.958203"/>
     <use style="fill:#f5deb3;stroke:#f5deb3;stroke-linejoin:miter;stroke-width:1.5;" x="251.74746" xlink:href="#m4a41fdae7a" y="76.646151"/>
     <use style="fill:#f5deb3;stroke:#f5deb3;stroke-linejoin:miter;stroke-width:1.5;" x="251.74746" xlink:href="#m4a41fdae7a" y="62.752535"/>
     <use style="fill:#f5deb3;stroke:#f5deb3;stroke-linejoin:miter;stroke-width:1.5;" x="338.688" xlink:href="#m4a41fdae7a" y="62.752535"/>
    </g>
   </g>
   <g id="line2d_3">
    <path style="fill:none;stroke:#f5deb3;stroke-linecap:square;stroke-width:4;"/>
    <g/>
   </g>
   <g id="line2d_4">
    <path d="M 338.688 62.752535 
L 369.60768 35.706297 
" style="fill:none;stroke:#f5deb3;stroke-linecap:square;stroke-width:4;"/>
    <g>
     <use style="fill:#f5deb3;stroke:#f5deb3;stroke-linejoin:miter;stroke-width:1.5;" x="338.688" xlink:href="#m4a41fdae7a" y="62.752535"/>
     <use style="fill:#f5deb3;stroke:#f5deb3;stroke-linejoin:miter;stroke-width:1.5;" x="369.60768" xlink:href="#m4a41fdae7a" y="35.706297"/>
    </g>
   </g>
   <g id="matplotlib.axis_1">
    <g id="xtick_1">
     <g id="line2d_5">
      <path clip-path="url(#p75c734deb0)" d="M 57.6 298.944 
L 57.6 27.648 
" style="fill:none;stroke:#b0b0b0;stroke-linecap:square;stroke-width:0.8;"/>
     </g>
     <g id="line2d_6">
      <defs>
       <path d="M 0 0 
L 0 3.5 
" id="m80e84b74f5" style="stroke:#000000;stroke-width:0.8;"/>
      </defs>
      <g>
       <use style="stroke:#000000;stroke-width:0.8;" x="57.6" xlink:href="#m80e84b74f5" y="298.944"/>
      </g>
     </g>
     <g id="text_1">
      <!-- 0 -->
      <g transform="translate(51.2375 321.140875)scale(0.2 -0.2)">
       <defs>
        <path d="M 31.78125 66.40625 
Q 24.171875 66.40625 20.328125 58.90625 
Q 16.5 51.421875 16.5 36.375 
Q 16.5 21.390625 20.328125 13.890625 
Q 24.171875 6.390625 31.78125 6.390625 
Q 39.453125 6.390625 43.28125 13.890625 
Q 47.125 21.390625 47.125 36.375 
Q 47.125 51.421875 43.28125 58.90625 
Q 39.453125 66.40625 31.78125 66.40625 
z
M 31.78125 74.21875 
Q 44.046875 74.21875 50.515625 64.515625 
Q 56.984375 54.828125 56.984375 36.375 
Q 56.984375 17.96875 50.515625 8.265625 
Q 44.046875 -1.421875 31.78125 -1.421875 
Q 19.53125 -1.421875 13.0625 8.265625 
Q 6.59375 17.96875 6.59375 36.375 
Q 6.59375 54.828125 13.0625 64.515625 
Q 19.53125 74.21875 31.78125 74.21875 
z
" id="DejaVuSans-48"/>
       </defs>
       <use xlink:href="#DejaVuSans-48"/>
      </g>
     </g>
    </g>
    <g id="xtick_2">
     <g id="line2d_7">
      <path clip-path="url(#p75c734deb0)" d="M 137.910857 298.944 
L 137.910857 27.648 
" style="fill:none;stroke:#b0b0b0;stroke-linecap:square;stroke-width:0.8;"/>
     </g>
     <g id="line2d_8">
      <g>
       <use style="stroke:#000000;stroke-width:0.8;" x="137.910857" xlink:href="#m80e84b74f5" y="298.944"/>
      </g>
     </g>
     <g id="text_2">
      <!-- 2 -->
      <g transform="translate(131.548357 321.140875)scale(0.2 -0.2)">
       <defs>
        <path d="M 19.1875 8.296875 
L 53.609375 8.296875 
L 53.609375 0 
L 7.328125 0 
L 7.328125 8.296875 
Q 12.9375 14.109375 22.625 23.890625 
Q 32.328125 33.6875 34.8125 36.53125 
Q 39.546875 41.84375 41.421875 45.53125 
Q 43.3125 49.21875 43.3125 52.78125 
Q 43.3125 58.59375 39.234375 62.25 
Q 35.15625 65.921875 28.609375 65.921875 
Q 23.96875 65.921875 18.8125 64.3125 
Q 13.671875 62.703125 7.8125 59.421875 
L 7.8125 69.390625 
Q 13.765625 71.78125 18.9375 73 
Q 24.125 74.21875 28.421875 74.21875 
Q 39.75 74.21875 46.484375 68.546875 
Q 53.21875 62.890625 53.21875 53.421875 
Q 53.21875 48.921875 51.53125 44.890625 
Q 49.859375 40.875 45.40625 35.40625 
Q 44.1875 33.984375 37.640625 27.21875 
Q 31.109375 20.453125 19.1875 8.296875 
z
" id="DejaVuSans-50"/>
       </defs>
       <use xlink:href="#DejaVuSans-50"/>
      </g>
     </g>
    </g>
    <g id="xtick_3">
     <g id="line2d_9">
      <path clip-path="url(#p75c734deb0)" d="M 218.221714 298.944 
L 218.221714 27.648 
" style="fill:none;stroke:#b0b0b0;stroke-linecap:square;stroke-width:0.8;"/>
     </g>
     <g id="line2d_10">
      <g>
       <use style="stroke:#000000;stroke-width:0.8;" x="218.221714" xlink:href="#m80e84b74f5" y="298.944"/>
      </g>
     </g>
     <g id="text_3">
      <!-- 4 -->
      <g transform="translate(211.859214 321.140875)scale(0.2 -0.2)">
       <defs>
        <path d="M 37.796875 64.3125 
L 12.890625 25.390625 
L 37.796875 25.390625 
z
M 35.203125 72.90625 
L 47.609375 72.90625 
L 47.609375 25.390625 
L 58.015625 25.390625 
L 58.015625 17.1875 
L 47.609375 17.1875 
L 47.609375 0 
L 37.796875 0 
L 37.796875 17.1875 
L 4.890625 17.1875 
L 4.890625 26.703125 
z
" id="DejaVuSans-52"/>
       </defs>
       <use xlink:href="#DejaVuSans-52"/>
      </g>
     </g>
    </g>
    <g id="xtick_4">
     <g id="line2d_11">
      <path clip-path="url(#p75c734deb0)" d="M 298.532571 298.944 
L 298.532571 27.648 
" style="fill:none;stroke:#b0b0b0;stroke-linecap:square;stroke-width:0.8;"/>
     </g>
     <g id="line2d_12">
      <g>
       <use style="stroke:#000000;stroke-width:0.8;" x="298.532571" xlink:href="#m80e84b74f5" y="298.944"/>
      </g>
     </g>
     <g id="text_4">
      <!-- 6 -->
      <g transform="translate(292.170071 321.140875)scale(0.2 -0.2)">
       <defs>
        <path d="M 33.015625 40.375 
Q 26.375 40.375 22.484375 35.828125 
Q 18.609375 31.296875 18.609375 23.390625 
Q 18.609375 15.53125 22.484375 10.953125 
Q 26.375 6.390625 33.015625 6.390625 
Q 39.65625 6.390625 43.53125 10.953125 
Q 47.40625 15.53125 47.40625 23.390625 
Q 47.40625 31.296875 43.53125 35.828125 
Q 39.65625 40.375 33.015625 40.375 
z
M 52.59375 71.296875 
L 52.59375 62.3125 
Q 48.875 64.0625 45.09375 64.984375 
Q 41.3125 65.921875 37.59375 65.921875 
Q 27.828125 65.921875 22.671875 59.328125 
Q 17.53125 52.734375 16.796875 39.40625 
Q 19.671875 43.65625 24.015625 45.921875 
Q 28.375 48.1875 33.59375 48.1875 
Q 44.578125 48.1875 50.953125 41.515625 
Q 57.328125 34.859375 57.328125 23.390625 
Q 57.328125 12.15625 50.6875 5.359375 
Q 44.046875 -1.421875 33.015625 -1.421875 
Q 20.359375 -1.421875 13.671875 8.265625 
Q 6.984375 17.96875 6.984375 36.375 
Q 6.984375 53.65625 15.1875 63.9375 
Q 23.390625 74.21875 37.203125 74.21875 
Q 40.921875 74.21875 44.703125 73.484375 
Q 48.484375 72.75 52.59375 71.296875 
z
" id="DejaVuSans-54"/>
       </defs>
       <use xlink:href="#DejaVuSans-54"/>
      </g>
     </g>
    </g>
    <g id="xtick_5">
     <g id="line2d_13">
      <path clip-path="url(#p75c734deb0)" d="M 97.755429 298.944 
L 97.755429 27.648 
" style="fill:none;stroke:#b0b0b0;stroke-linecap:square;stroke-width:0.8;"/>
     </g>
     <g id="line2d_14">
      <defs>
       <path d="M 0 0 
L 0 2 
" id="m7415e0f92c" style="stroke:#000000;stroke-width:0.6;"/>
      </defs>
      <g>
       <use style="stroke:#000000;stroke-width:0.6;" x="97.755429" xlink:href="#m7415e0f92c" y="298.944"/>
      </g>
     </g>
    </g>
    <g id="xtick_6">
     <g id="line2d_15">
      <path clip-path="url(#p75c734deb0)" d="M 178.066286 298.944 
L 178.066286 27.648 
" style="fill:none;stroke:#b0b0b0;stroke-linecap:square;stroke-width:0.8;"/>
     </g>
     <g id="line2d_16">
      <g>
       <use style="stroke:#000000;stroke-width:0.6;" x="178.066286" xlink:href="#m7415e0f92c" y="298.944"/>
      </g>
     </g>
    </g>
    <g id="xtick_7">
     <g id="line2d_17">
      <path clip-path="url(#p75c734deb0)" d="M 258.377143 298.944 
L 258.377143 27.648 
" style="fill:none;stroke:#b0b0b0;stroke-linecap:square;stroke-width:0.8;"/>
     </g>
     <g id="line2d_18">
      <g>
       <use style="stroke:#000000;stroke-width:0.6;" x="258.377143" xlink:href="#m7415e0f92c" y="298.944"/>
      </g>
     </g>
    </g>
    <g id="xtick_8">
     <g id="line2d_19">
      <path clip-path="url(#p75c734deb0)" d="M 338.688 298.944 
L 338.688 27.648 
" style="fill:none;stroke:#b0b0b0;stroke-linecap:square;stroke-width:0.8;"/>
     </g>
     <g id="line2d_20">
      <g>
       <use style="stroke:#000000;stroke-width:0.6;" x="338.688" xlink:href="#m7415e0f92c" y="298.944"/>
      </g>
     </g>
    </g>
    <g id="text_5">
     <!-- log10(# f-evals / dimension) -->
     <g transform="translate(77.764078 342.217594)scale(0.17 -0.17)">
      <defs>
       <path d="M 9.421875 75.984375 
L 18.40625 75.984375 
L 18.40625 0 
L 9.421875 0 
z
" id="DejaVuSans-108"/>
       <path d="M 30.609375 48.390625 
Q 23.390625 48.390625 19.1875 42.75 
Q 14.984375 37.109375 14.984375 27.296875 
Q 14.984375 17.484375 19.15625 11.84375 
Q 23.34375 6.203125 30.609375 6.203125 
Q 37.796875 6.203125 41.984375 11.859375 
Q 46.1875 17.53125 46.1875 27.296875 
Q 46.1875 37.015625 41.984375 42.703125 
Q 37.796875 48.390625 30.609375 48.390625 
z
M 30.609375 56 
Q 42.328125 56 49.015625 48.375 
Q 55.71875 40.765625 55.71875 27.296875 
Q 55.71875 13.875 49.015625 6.21875 
Q 42.328125 -1.421875 30.609375 -1.421875 
Q 18.84375 -1.421875 12.171875 6.21875 
Q 5.515625 13.875 5.515625 27.296875 
Q 5.515625 40.765625 12.171875 48.375 
Q 18.84375 56 30.609375 56 
z
" id="DejaVuSans-111"/>
       <path d="M 45.40625 27.984375 
Q 45.40625 37.75 41.375 43.109375 
Q 37.359375 48.484375 30.078125 48.484375 
Q 22.859375 48.484375 18.828125 43.109375 
Q 14.796875 37.75 14.796875 27.984375 
Q 14.796875 18.265625 18.828125 12.890625 
Q 22.859375 7.515625 30.078125 7.515625 
Q 37.359375 7.515625 41.375 12.890625 
Q 45.40625 18.265625 45.40625 27.984375 
z
M 54.390625 6.78125 
Q 54.390625 -7.171875 48.1875 -13.984375 
Q 42 -20.796875 29.203125 -20.796875 
Q 24.46875 -20.796875 20.265625 -20.09375 
Q 16.0625 -19.390625 12.109375 -17.921875 
L 12.109375 -9.1875 
Q 16.0625 -11.328125 19.921875 -12.34375 
Q 23.78125 -13.375 27.78125 -13.375 
Q 36.625 -13.375 41.015625 -8.765625 
Q 45.40625 -4.15625 45.40625 5.171875 
L 45.40625 9.625 
Q 42.625 4.78125 38.28125 2.390625 
Q 33.9375 0 27.875 0 
Q 17.828125 0 11.671875 7.65625 
Q 5.515625 15.328125 5.515625 27.984375 
Q 5.515625 40.671875 11.671875 48.328125 
Q 17.828125 56 27.875 56 
Q 33.9375 56 38.28125 53.609375 
Q 42.625 51.21875 45.40625 46.390625 
L 45.40625 54.6875 
L 54.390625 54.6875 
z
" id="DejaVuSans-103"/>
       <path d="M 12.40625 8.296875 
L 28.515625 8.296875 
L 28.515625 63.921875 
L 10.984375 60.40625 
L 10.984375 69.390625 
L 28.421875 72.90625 
L 38.28125 72.90625 
L 38.28125 8.296875 
L 54.390625 8.296875 
L 54.390625 0 
L 12.40625 0 
z
" id="DejaVuSans-49"/>
       <path d="M 31 75.875 
Q 24.46875 64.65625 21.28125 53.65625 
Q 18.109375 42.671875 18.109375 31.390625 
Q 18.109375 20.125 21.3125 9.0625 
Q 24.515625 -2 31 -13.1875 
L 23.1875 -13.1875 
Q 15.875 -1.703125 12.234375 9.375 
Q 8.59375 20.453125 8.59375 31.390625 
Q 8.59375 42.28125 12.203125 53.3125 
Q 15.828125 64.359375 23.1875 75.875 
z
" id="DejaVuSans-40"/>
       <path d="M 51.125 44 
L 36.921875 44 
L 32.8125 27.6875 
L 47.125 27.6875 
z
M 43.796875 71.78125 
L 38.71875 51.515625 
L 52.984375 51.515625 
L 58.109375 71.78125 
L 65.921875 71.78125 
L 60.890625 51.515625 
L 76.125 51.515625 
L 76.125 44 
L 58.984375 44 
L 54.984375 27.6875 
L 70.515625 27.6875 
L 70.515625 20.21875 
L 53.078125 20.21875 
L 48 0 
L 40.1875 0 
L 45.21875 20.21875 
L 30.90625 20.21875 
L 25.875 0 
L 18.015625 0 
L 23.09375 20.21875 
L 7.71875 20.21875 
L 7.71875 27.6875 
L 24.90625 27.6875 
L 29 44 
L 13.28125 44 
L 13.28125 51.515625 
L 30.90625 51.515625 
L 35.890625 71.78125 
z
" id="DejaVuSans-35"/>
       <path id="DejaVuSans-32"/>
       <path d="M 37.109375 75.984375 
L 37.109375 68.5 
L 28.515625 68.5 
Q 23.6875 68.5 21.796875 66.546875 
Q 19.921875 64.59375 19.921875 59.515625 
L 19.921875 54.6875 
L 34.71875 54.6875 
L 34.71875 47.703125 
L 19.921875 47.703125 
L 19.921875 0 
L 10.890625 0 
L 10.890625 47.703125 
L 2.296875 47.703125 
L 2.296875 54.6875 
L 10.890625 54.6875 
L 10.890625 58.5 
Q 10.890625 67.625 15.140625 71.796875 
Q 19.390625 75.984375 28.609375 75.984375 
z
" id="DejaVuSans-102"/>
       <path d="M 4.890625 31.390625 
L 31.203125 31.390625 
L 31.203125 23.390625 
L 4.890625 23.390625 
z
" id="DejaVuSans-45"/>
       <path d="M 56.203125 29.59375 
L 56.203125 25.203125 
L 14.890625 25.203125 
Q 15.484375 15.921875 20.484375 11.0625 
Q 25.484375 6.203125 34.421875 6.203125 
Q 39.59375 6.203125 44.453125 7.46875 
Q 49.3125 8.734375 54.109375 11.28125 
L 54.109375 2.78125 
Q 49.265625 0.734375 44.1875 -0.34375 
Q 39.109375 -1.421875 33.890625 -1.421875 
Q 20.796875 -1.421875 13.15625 6.1875 
Q 5.515625 13.8125 5.515625 26.8125 
Q 5.515625 40.234375 12.765625 48.109375 
Q 20.015625 56 32.328125 56 
Q 43.359375 56 49.78125 48.890625 
Q 56.203125 41.796875 56.203125 29.59375 
z
M 47.21875 32.234375 
Q 47.125 39.59375 43.09375 43.984375 
Q 39.0625 48.390625 32.421875 48.390625 
Q 24.90625 48.390625 20.390625 44.140625 
Q 15.875 39.890625 15.1875 32.171875 
z
" id="DejaVuSans-101"/>
       <path d="M 2.984375 54.6875 
L 12.5 54.6875 
L 29.59375 8.796875 
L 46.6875 54.6875 
L 56.203125 54.6875 
L 35.6875 0 
L 23.484375 0 
z
" id="DejaVuSans-118"/>
       <path d="M 34.28125 27.484375 
Q 23.390625 27.484375 19.1875 25 
Q 14.984375 22.515625 14.984375 16.5 
Q 14.984375 11.71875 18.140625 8.90625 
Q 21.296875 6.109375 26.703125 6.109375 
Q 34.1875 6.109375 38.703125 11.40625 
Q 43.21875 16.703125 43.21875 25.484375 
L 43.21875 27.484375 
z
M 52.203125 31.203125 
L 52.203125 0 
L 43.21875 0 
L 43.21875 8.296875 
Q 40.140625 3.328125 35.546875 0.953125 
Q 30.953125 -1.421875 24.3125 -1.421875 
Q 15.921875 -1.421875 10.953125 3.296875 
Q 6 8.015625 6 15.921875 
Q 6 25.140625 12.171875 29.828125 
Q 18.359375 34.515625 30.609375 34.515625 
L 43.21875 34.515625 
L 43.21875 35.40625 
Q 43.21875 41.609375 39.140625 45 
Q 35.0625 48.390625 27.6875 48.390625 
Q 23 48.390625 18.546875 47.265625 
Q 14.109375 46.140625 10.015625 43.890625 
L 10.015625 52.203125 
Q 14.9375 54.109375 19.578125 55.046875 
Q 24.21875 56 28.609375 56 
Q 40.484375 56 46.34375 49.84375 
Q 52.203125 43.703125 52.203125 31.203125 
z
" id="DejaVuSans-97"/>
       <path d="M 44.28125 53.078125 
L 44.28125 44.578125 
Q 40.484375 46.53125 36.375 47.5 
Q 32.28125 48.484375 27.875 48.484375 
Q 21.1875 48.484375 17.84375 46.4375 
Q 14.5 44.390625 14.5 40.28125 
Q 14.5 37.15625 16.890625 35.375 
Q 19.28125 33.59375 26.515625 31.984375 
L 29.59375 31.296875 
Q 39.15625 29.25 43.1875 25.515625 
Q 47.21875 21.78125 47.21875 15.09375 
Q 47.21875 7.46875 41.1875 3.015625 
Q 35.15625 -1.421875 24.609375 -1.421875 
Q 20.21875 -1.421875 15.453125 -0.5625 
Q 10.6875 0.296875 5.421875 2 
L 5.421875 11.28125 
Q 10.40625 8.6875 15.234375 7.390625 
Q 20.0625 6.109375 24.8125 6.109375 
Q 31.15625 6.109375 34.5625 8.28125 
Q 37.984375 10.453125 37.984375 14.40625 
Q 37.984375 18.0625 35.515625 20.015625 
Q 33.0625 21.96875 24.703125 23.78125 
L 21.578125 24.515625 
Q 13.234375 26.265625 9.515625 29.90625 
Q 5.8125 33.546875 5.8125 39.890625 
Q 5.8125 47.609375 11.28125 51.796875 
Q 16.75 56 26.8125 56 
Q 31.78125 56 36.171875 55.265625 
Q 40.578125 54.546875 44.28125 53.078125 
z
" id="DejaVuSans-115"/>
       <path d="M 25.390625 72.90625 
L 33.6875 72.90625 
L 8.296875 -9.28125 
L 0 -9.28125 
z
" id="DejaVuSans-47"/>
       <path d="M 45.40625 46.390625 
L 45.40625 75.984375 
L 54.390625 75.984375 
L 54.390625 0 
L 45.40625 0 
L 45.40625 8.203125 
Q 42.578125 3.328125 38.25 0.953125 
Q 33.9375 -1.421875 27.875 -1.421875 
Q 17.96875 -1.421875 11.734375 6.484375 
Q 5.515625 14.40625 5.515625 27.296875 
Q 5.515625 40.1875 11.734375 48.09375 
Q 17.96875 56 27.875 56 
Q 33.9375 56 38.25 53.625 
Q 42.578125 51.265625 45.40625 46.390625 
z
M 14.796875 27.296875 
Q 14.796875 17.390625 18.875 11.75 
Q 22.953125 6.109375 30.078125 6.109375 
Q 37.203125 6.109375 41.296875 11.75 
Q 45.40625 17.390625 45.40625 27.296875 
Q 45.40625 37.203125 41.296875 42.84375 
Q 37.203125 48.484375 30.078125 48.484375 
Q 22.953125 48.484375 18.875 42.84375 
Q 14.796875 37.203125 14.796875 27.296875 
z
" id="DejaVuSans-100"/>
       <path d="M 9.421875 54.6875 
L 18.40625 54.6875 
L 18.40625 0 
L 9.421875 0 
z
M 9.421875 75.984375 
L 18.40625 75.984375 
L 18.40625 64.59375 
L 9.421875 64.59375 
z
" id="DejaVuSans-105"/>
       <path d="M 52 44.1875 
Q 55.375 50.25 60.0625 53.125 
Q 64.75 56 71.09375 56 
Q 79.640625 56 84.28125 50.015625 
Q 88.921875 44.046875 88.921875 33.015625 
L 88.921875 0 
L 79.890625 0 
L 79.890625 32.71875 
Q 79.890625 40.578125 77.09375 44.375 
Q 74.3125 48.1875 68.609375 48.1875 
Q 61.625 48.1875 57.5625 43.546875 
Q 53.515625 38.921875 53.515625 30.90625 
L 53.515625 0 
L 44.484375 0 
L 44.484375 32.71875 
Q 44.484375 40.625 41.703125 44.40625 
Q 38.921875 48.1875 33.109375 48.1875 
Q 26.21875 48.1875 22.15625 43.53125 
Q 18.109375 38.875 18.109375 30.90625 
L 18.109375 0 
L 9.078125 0 
L 9.078125 54.6875 
L 18.109375 54.6875 
L 18.109375 46.1875 
Q 21.1875 51.21875 25.484375 53.609375 
Q 29.78125 56 35.6875 56 
Q 41.65625 56 45.828125 52.96875 
Q 50 49.953125 52 44.1875 
z
" id="DejaVuSans-109"/>
       <path d="M 54.890625 33.015625 
L 54.890625 0 
L 45.90625 0 
L 45.90625 32.71875 
Q 45.90625 40.484375 42.875 44.328125 
Q 39.84375 48.1875 33.796875 48.1875 
Q 26.515625 48.1875 22.3125 43.546875 
Q 18.109375 38.921875 18.109375 30.90625 
L 18.109375 0 
L 9.078125 0 
L 9.078125 54.6875 
L 18.109375 54.6875 
L 18.109375 46.1875 
Q 21.34375 51.125 25.703125 53.5625 
Q 30.078125 56 35.796875 56 
Q 45.21875 56 50.046875 50.171875 
Q 54.890625 44.34375 54.890625 33.015625 
z
" id="DejaVuSans-110"/>
       <path d="M 8.015625 75.875 
L 15.828125 75.875 
Q 23.140625 64.359375 26.78125 53.3125 
Q 30.421875 42.28125 30.421875 31.390625 
Q 30.421875 20.453125 26.78125 9.375 
Q 23.140625 -1.703125 15.828125 -13.1875 
L 8.015625 -13.1875 
Q 14.5 -2 17.703125 9.0625 
Q 20.90625 20.125 20.90625 31.390625 
Q 20.90625 42.671875 17.703125 53.65625 
Q 14.5 64.65625 8.015625 75.875 
z
" id="DejaVuSans-41"/>
      </defs>
      <use xlink:href="#DejaVuSans-108"/>
      <use x="27.783203" xlink:href="#DejaVuSans-111"/>
      <use x="88.964844" xlink:href="#DejaVuSans-103"/>
      <use x="152.441406" xlink:href="#DejaVuSans-49"/>
      <use x="216.064453" xlink:href="#DejaVuSans-48"/>
      <use x="279.6875" xlink:href="#DejaVuSans-40"/>
      <use x="318.701172" xlink:href="#DejaVuSans-35"/>
      <use x="402.490234" xlink:href="#DejaVuSans-32"/>
      <use x="434.277344" xlink:href="#DejaVuSans-102"/>
      <use x="463.982422" xlink:href="#DejaVuSans-45"/>
      <use x="500.066406" xlink:href="#DejaVuSans-101"/>
      <use x="561.589844" xlink:href="#DejaVuSans-118"/>
      <use x="620.769531" xlink:href="#DejaVuSans-97"/>
      <use x="682.048828" xlink:href="#DejaVuSans-108"/>
      <use x="709.832031" xlink:href="#DejaVuSans-115"/>
      <use x="761.931641" xlink:href="#DejaVuSans-32"/>
      <use x="793.71875" xlink:href="#DejaVuSans-47"/>
      <use x="827.410156" xlink:href="#DejaVuSans-32"/>
      <use x="859.197266" xlink:href="#DejaVuSans-100"/>
      <use x="922.673828" xlink:href="#DejaVuSans-105"/>
      <use x="950.457031" xlink:href="#DejaVuSans-109"/>
      <use x="1047.869141" xlink:href="#DejaVuSans-101"/>
      <use x="1109.392578" xlink:href="#DejaVuSans-110"/>
      <use x="1172.771484" xlink:href="#DejaVuSans-115"/>
      <use x="1224.871094" xlink:href="#DejaVuSans-105"/>
      <use x="1252.654297" xlink:href="#DejaVuSans-111"/>
      <use x="1313.835938" xlink:href="#DejaVuSans-110"/>
      <use x="1377.214844" xlink:href="#DejaVuSans-41"/>
     </g>
    </g>
   </g>
   <g id="matplotlib.axis_2">
    <g id="ytick_1">
     <g id="line2d_21">
      <path clip-path="url(#p75c734deb0)" d="M 57.6 298.944 
L 338.688 298.944 
" style="fill:none;stroke:#b0b0b0;stroke-linecap:square;stroke-width:0.8;"/>
     </g>
     <g id="line2d_22">
      <defs>
       <path d="M 0 0 
L -3.5 0 
" id="m634113879f" style="stroke:#000000;stroke-width:0.8;"/>
      </defs>
      <g>
       <use style="stroke:#000000;stroke-width:0.8;" x="57.6" xlink:href="#m634113879f" y="298.944"/>
      </g>
     </g>
     <g id="text_6">
      <!-- 0.0 -->
      <g transform="translate(25.155 305.02275)scale(0.16 -0.16)">
       <defs>
        <path d="M 10.6875 12.40625 
L 21 12.40625 
L 21 0 
L 10.6875 0 
z
" id="DejaVuSans-46"/>
       </defs>
       <use xlink:href="#DejaVuSans-48"/>
       <use x="63.623047" xlink:href="#DejaVuSans-46"/>
       <use x="95.410156" xlink:href="#DejaVuSans-48"/>
      </g>
     </g>
    </g>
    <g id="ytick_2">
     <g id="line2d_23">
      <path clip-path="url(#p75c734deb0)" d="M 57.6 245.22202 
L 338.688 245.22202 
" style="fill:none;stroke:#b0b0b0;stroke-linecap:square;stroke-width:0.8;"/>
     </g>
     <g id="line2d_24">
      <g>
       <use style="stroke:#000000;stroke-width:0.8;" x="57.6" xlink:href="#m634113879f" y="245.22202"/>
      </g>
     </g>
     <g id="text_7">
      <!-- 0.2 -->
      <g transform="translate(25.155 251.30077)scale(0.16 -0.16)">
       <use xlink:href="#DejaVuSans-48"/>
       <use x="63.623047" xlink:href="#DejaVuSans-46"/>
       <use x="95.410156" xlink:href="#DejaVuSans-50"/>
      </g>
     </g>
    </g>
    <g id="ytick_3">
     <g id="line2d_25">
      <path clip-path="url(#p75c734deb0)" d="M 57.6 191.50004 
L 338.688 191.50004 
" style="fill:none;stroke:#b0b0b0;stroke-linecap:square;stroke-width:0.8;"/>
     </g>
     <g id="line2d_26">
      <g>
       <use style="stroke:#000000;stroke-width:0.8;" x="57.6" xlink:href="#m634113879f" y="191.50004"/>
      </g>
     </g>
     <g id="text_8">
      <!-- 0.4 -->
      <g transform="translate(25.155 197.57879)scale(0.16 -0.16)">
       <use xlink:href="#DejaVuSans-48"/>
       <use x="63.623047" xlink:href="#DejaVuSans-46"/>
       <use x="95.410156" xlink:href="#DejaVuSans-52"/>
      </g>
     </g>
    </g>
    <g id="ytick_4">
     <g id="line2d_27">
      <path clip-path="url(#p75c734deb0)" d="M 57.6 137.778059 
L 338.688 137.778059 
" style="fill:none;stroke:#b0b0b0;stroke-linecap:square;stroke-width:0.8;"/>
     </g>
     <g id="line2d_28">
      <g>
       <use style="stroke:#000000;stroke-width:0.8;" x="57.6" xlink:href="#m634113879f" y="137.778059"/>
      </g>
     </g>
     <g id="text_9">
      <!-- 0.6 -->
      <g transform="translate(25.155 143.856809)scale(0.16 -0.16)">
       <use xlink:href="#DejaVuSans-48"/>
       <use x="63.623047" xlink:href="#DejaVuSans-46"/>
       <use x="95.410156" xlink:href="#DejaVuSans-54"/>
      </g>
     </g>
    </g>
    <g id="ytick_5">
     <g id="line2d_29">
      <path clip-path="url(#p75c734deb0)" d="M 57.6 84.056079 
L 338.688 84.056079 
" style="fill:none;stroke:#b0b0b0;stroke-linecap:square;stroke-width:0.8;"/>
     </g>
     <g id="line2d_30">
      <g>
       <use style="stroke:#000000;stroke-width:0.8;" x="57.6" xlink:href="#m634113879f" y="84.056079"/>
      </g>
     </g>
     <g id="text_10">
      <!-- 0.8 -->
      <g transform="translate(25.155 90.134829)scale(0.16 -0.16)">
       <defs>
        <path d="M 31.78125 34.625 
Q 24.75 34.625 20.71875 30.859375 
Q 16.703125 27.09375 16.703125 20.515625 
Q 16.703125 13.921875 20.71875 10.15625 
Q 24.75 6.390625 31.78125 6.390625 
Q 38.8125 6.390625 42.859375 10.171875 
Q 46.921875 13.96875 46.921875 20.515625 
Q 46.921875 27.09375 42.890625 30.859375 
Q 38.875 34.625 31.78125 34.625 
z
M 21.921875 38.8125 
Q 15.578125 40.375 12.03125 44.71875 
Q 8.5 49.078125 8.5 55.328125 
Q 8.5 64.0625 14.71875 69.140625 
Q 20.953125 74.21875 31.78125 74.21875 
Q 42.671875 74.21875 48.875 69.140625 
Q 55.078125 64.0625 55.078125 55.328125 
Q 55.078125 49.078125 51.53125 44.71875 
Q 48 40.375 41.703125 38.8125 
Q 48.828125 37.15625 52.796875 32.3125 
Q 56.78125 27.484375 56.78125 20.515625 
Q 56.78125 9.90625 50.3125 4.234375 
Q 43.84375 -1.421875 31.78125 -1.421875 
Q 19.734375 -1.421875 13.25 4.234375 
Q 6.78125 9.90625 6.78125 20.515625 
Q 6.78125 27.484375 10.78125 32.3125 
Q 14.796875 37.15625 21.921875 38.8125 
z
M 18.3125 54.390625 
Q 18.3125 48.734375 21.84375 45.5625 
Q 25.390625 42.390625 31.78125 42.390625 
Q 38.140625 42.390625 41.71875 45.5625 
Q 45.3125 48.734375 45.3125 54.390625 
Q 45.3125 60.0625 41.71875 63.234375 
Q 38.140625 66.40625 31.78125 66.40625 
Q 25.390625 66.40625 21.84375 63.234375 
Q 18.3125 60.0625 18.3125 54.390625 
z
" id="DejaVuSans-56"/>
       </defs>
       <use xlink:href="#DejaVuSans-48"/>
       <use x="63.623047" xlink:href="#DejaVuSans-46"/>
       <use x="95.410156" xlink:href="#DejaVuSans-56"/>
      </g>
     </g>
    </g>
    <g id="ytick_6">
     <g id="line2d_31">
      <path clip-path="url(#p75c734deb0)" d="M 57.6 30.334099 
L 338.688 30.334099 
" style="fill:none;stroke:#b0b0b0;stroke-linecap:square;stroke-width:0.8;"/>
     </g>
     <g id="line2d_32">
      <g>
       <use style="stroke:#000000;stroke-width:0.8;" x="57.6" xlink:href="#m634113879f" y="30.334099"/>
      </g>
     </g>
     <g id="text_11">
      <!-- 1.0 -->
      <g transform="translate(25.155 36.412849)scale(0.16 -0.16)">
       <use xlink:href="#DejaVuSans-49"/>
       <use x="63.623047" xlink:href="#DejaVuSans-46"/>
       <use x="95.410156" xlink:href="#DejaVuSans-48"/>
      </g>
     </g>
    </g>
    <g id="text_12">
     <!-- Fraction of function,target pairs -->
     <g transform="translate(17.619531 297.681)rotate(-90)scale(0.17 -0.17)">
      <defs>
       <path d="M 9.8125 72.90625 
L 51.703125 72.90625 
L 51.703125 64.59375 
L 19.671875 64.59375 
L 19.671875 43.109375 
L 48.578125 43.109375 
L 48.578125 34.8125 
L 19.671875 34.8125 
L 19.671875 0 
L 9.8125 0 
z
" id="DejaVuSans-70"/>
       <path d="M 41.109375 46.296875 
Q 39.59375 47.171875 37.8125 47.578125 
Q 36.03125 48 33.890625 48 
Q 26.265625 48 22.1875 43.046875 
Q 18.109375 38.09375 18.109375 28.8125 
L 18.109375 0 
L 9.078125 0 
L 9.078125 54.6875 
L 18.109375 54.6875 
L 18.109375 46.1875 
Q 20.953125 51.171875 25.484375 53.578125 
Q 30.03125 56 36.53125 56 
Q 37.453125 56 38.578125 55.875 
Q 39.703125 55.765625 41.0625 55.515625 
z
" id="DejaVuSans-114"/>
       <path d="M 48.78125 52.59375 
L 48.78125 44.1875 
Q 44.96875 46.296875 41.140625 47.34375 
Q 37.3125 48.390625 33.40625 48.390625 
Q 24.65625 48.390625 19.8125 42.84375 
Q 14.984375 37.3125 14.984375 27.296875 
Q 14.984375 17.28125 19.8125 11.734375 
Q 24.65625 6.203125 33.40625 6.203125 
Q 37.3125 6.203125 41.140625 7.25 
Q 44.96875 8.296875 48.78125 10.40625 
L 48.78125 2.09375 
Q 45.015625 0.34375 40.984375 -0.53125 
Q 36.96875 -1.421875 32.421875 -1.421875 
Q 20.0625 -1.421875 12.78125 6.34375 
Q 5.515625 14.109375 5.515625 27.296875 
Q 5.515625 40.671875 12.859375 48.328125 
Q 20.21875 56 33.015625 56 
Q 37.15625 56 41.109375 55.140625 
Q 45.0625 54.296875 48.78125 52.59375 
z
" id="DejaVuSans-99"/>
       <path d="M 18.3125 70.21875 
L 18.3125 54.6875 
L 36.8125 54.6875 
L 36.8125 47.703125 
L 18.3125 47.703125 
L 18.3125 18.015625 
Q 18.3125 11.328125 20.140625 9.421875 
Q 21.96875 7.515625 27.59375 7.515625 
L 36.8125 7.515625 
L 36.8125 0 
L 27.59375 0 
Q 17.1875 0 13.234375 3.875 
Q 9.28125 7.765625 9.28125 18.015625 
L 9.28125 47.703125 
L 2.6875 47.703125 
L 2.6875 54.6875 
L 9.28125 54.6875 
L 9.28125 70.21875 
z
" id="DejaVuSans-116"/>
       <path d="M 8.5 21.578125 
L 8.5 54.6875 
L 17.484375 54.6875 
L 17.484375 21.921875 
Q 17.484375 14.15625 20.5 10.265625 
Q 23.53125 6.390625 29.59375 6.390625 
Q 36.859375 6.390625 41.078125 11.03125 
Q 45.3125 15.671875 45.3125 23.6875 
L 45.3125 54.6875 
L 54.296875 54.6875 
L 54.296875 0 
L 45.3125 0 
L 45.3125 8.40625 
Q 42.046875 3.421875 37.71875 1 
Q 33.40625 -1.421875 27.6875 -1.421875 
Q 18.265625 -1.421875 13.375 4.4375 
Q 8.5 10.296875 8.5 21.578125 
z
M 31.109375 56 
z
" id="DejaVuSans-117"/>
       <path d="M 11.71875 12.40625 
L 22.015625 12.40625 
L 22.015625 4 
L 14.015625 -11.625 
L 7.71875 -11.625 
L 11.71875 4 
z
" id="DejaVuSans-44"/>
       <path d="M 18.109375 8.203125 
L 18.109375 -20.796875 
L 9.078125 -20.796875 
L 9.078125 54.6875 
L 18.109375 54.6875 
L 18.109375 46.390625 
Q 20.953125 51.265625 25.265625 53.625 
Q 29.59375 56 35.59375 56 
Q 45.5625 56 51.78125 48.09375 
Q 58.015625 40.1875 58.015625 27.296875 
Q 58.015625 14.40625 51.78125 6.484375 
Q 45.5625 -1.421875 35.59375 -1.421875 
Q 29.59375 -1.421875 25.265625 0.953125 
Q 20.953125 3.328125 18.109375 8.203125 
z
M 48.6875 27.296875 
Q 48.6875 37.203125 44.609375 42.84375 
Q 40.53125 48.484375 33.40625 48.484375 
Q 26.265625 48.484375 22.1875 42.84375 
Q 18.109375 37.203125 18.109375 27.296875 
Q 18.109375 17.390625 22.1875 11.75 
Q 26.265625 6.109375 33.40625 6.109375 
Q 40.53125 6.109375 44.609375 11.75 
Q 48.6875 17.390625 48.6875 27.296875 
z
" id="DejaVuSans-112"/>
      </defs>
      <use xlink:href="#DejaVuSans-70"/>
      <use x="50.269531" xlink:href="#DejaVuSans-114"/>
      <use x="91.382812" xlink:href="#DejaVuSans-97"/>
      <use x="152.662109" xlink:href="#DejaVuSans-99"/>
      <use x="207.642578" xlink:href="#DejaVuSans-116"/>
      <use x="246.851562" xlink:href="#DejaVuSans-105"/>
      <use x="274.634766" xlink:href="#DejaVuSans-111"/>
      <use x="335.816406" xlink:href="#DejaVuSans-110"/>
      <use x="399.195312" xlink:href="#DejaVuSans-32"/>
      <use x="430.982422" xlink:href="#DejaVuSans-111"/>
      <use x="492.164062" xlink:href="#DejaVuSans-102"/>
      <use x="527.369141" xlink:href="#DejaVuSans-32"/>
      <use x="559.15625" xlink:href="#DejaVuSans-102"/>
      <use x="594.361328" xlink:href="#DejaVuSans-117"/>
      <use x="657.740234" xlink:href="#DejaVuSans-110"/>
      <use x="721.119141" xlink:href="#DejaVuSans-99"/>
      <use x="776.099609" xlink:href="#DejaVuSans-116"/>
      <use x="815.308594" xlink:href="#DejaVuSans-105"/>
      <use x="843.091797" xlink:href="#DejaVuSans-111"/>
      <use x="904.273438" xlink:href="#DejaVuSans-110"/>
      <use x="967.652344" xlink:href="#DejaVuSans-44"/>
      <use x="999.439453" xlink:href="#DejaVuSans-116"/>
      <use x="1038.648438" xlink:href="#DejaVuSans-97"/>
      <use x="1099.927734" xlink:href="#DejaVuSans-114"/>
      <use x="1139.291016" xlink:href="#DejaVuSans-103"/>
      <use x="1202.767578" xlink:href="#DejaVuSans-101"/>
      <use x="1264.291016" xlink:href="#DejaVuSans-116"/>
      <use x="1303.5" xlink:href="#DejaVuSans-32"/>
      <use x="1335.287109" xlink:href="#DejaVuSans-112"/>
      <use x="1398.763672" xlink:href="#DejaVuSans-97"/>
      <use x="1460.042969" xlink:href="#DejaVuSans-105"/>
      <use x="1487.826172" xlink:href="#DejaVuSans-114"/>
      <use x="1528.939453" xlink:href="#DejaVuSans-115"/>
     </g>
    </g>
   </g>
   <g id="line2d_33">
    <defs>
     <path d="M 0 1.5 
C 0.397805 1.5 0.77937 1.341951 1.06066 1.06066 
C 1.341951 0.77937 1.5 0.397805 1.5 0 
C 1.5 -0.397805 1.341951 -0.77937 1.06066 -1.06066 
C 0.77937 -1.341951 0.397805 -1.5 0 -1.5 
C -0.397805 -1.5 -0.77937 -1.341951 -1.06066 -1.06066 
C -1.341951 -0.77937 -1.5 -0.397805 -1.5 0 
C -1.5 0.397805 -1.341951 0.77937 -1.06066 1.06066 
C -0.77937 1.341951 -0.397805 1.5 0 1.5 
z
" id="m2c1d523f46" style="stroke:#f5deb3;"/>
    </defs>
    <g>
     <use style="fill:#f5deb3;stroke:#f5deb3;" x="251.74746" xlink:href="#m2c1d523f46" y="62.752535"/>
     <use style="fill:#f5deb3;stroke:#f5deb3;" x="251.74746" xlink:href="#m2c1d523f46" y="62.752535"/>
    </g>
   </g>
   <g id="line2d_34">
    <defs>
     <path d="M 0 1.5 
C 0.397805 1.5 0.77937 1.341951 1.06066 1.06066 
C 1.341951 0.77937 1.5 0.397805 1.5 0 
C 1.5 -0.397805 1.341951 -0.77937 1.06066 -1.06066 
C 0.77937 -1.341951 0.397805 -1.5 0 -1.5 
C -0.397805 -1.5 -0.77937 -1.341951 -1.06066 -1.06066 
C -1.341951 -0.77937 -1.5 -0.397805 -1.5 0 
C -1.5 0.397805 -1.341951 0.77937 -1.06066 1.06066 
C -0.77937 1.341951 -0.397805 1.5 0 1.5 
z
" id="m27ef91ca88" style="stroke:#000080;"/>
    </defs>
    <g>
     <use style="fill:#000080;stroke:#000080;" x="254.097955" xlink:href="#m27ef91ca88" y="74.793669"/>
     <use style="fill:#000080;stroke:#000080;" x="254.097955" xlink:href="#m27ef91ca88" y="74.793669"/>
    </g>
   </g>
   <g id="line2d_35">
    <path d="M 38.440992 298.944 
L 38.440992 273.472371 
L 50.52898 273.472371 
L 50.52898 273.009251 
L 57.6 273.009251 
L 57.6 272.08301 
L 62.616969 272.08301 
L 62.616969 267.914925 
L 66.508432 267.914925 
L 66.508432 266.062443 
L 69.687988 266.062443 
L 69.687988 264.673082 
L 72.376266 264.673082 
L 72.376266 261.894358 
L 76.759008 261.894358 
L 76.759008 260.968117 
L 78.59642 260.968117 
L 78.59642 260.504997 
L 80.258561 260.504997 
L 80.258561 260.041876 
L 81.775977 260.041876 
L 81.775977 258.189394 
L 84.464254 258.189394 
L 84.464254 252.168828 
L 85.66744 252.168828 
L 85.66744 250.779466 
L 87.850195 250.779466 
L 87.850195 249.853225 
L 88.846997 249.853225 
L 88.846997 249.390104 
L 90.684409 249.390104 
L 90.684409 248.926984 
L 92.34655 248.926984 
L 92.34655 248.000743 
L 93.121756 248.000743 
L 93.121756 246.148261 
L 93.863965 246.148261 
L 93.863965 245.68514 
L 96.552242 245.68514 
L 96.552242 244.758899 
L 97.16421 244.758899 
L 97.16421 244.295779 
L 97.755429 244.295779 
L 97.755429 237.348971 
L 98.880934 237.348971 
L 98.880934 235.959609 
L 100.443706 235.959609 
L 100.443706 231.791525 
L 105.209745 231.791525 
L 105.209745 230.865284 
L 105.584798 230.865284 
L 105.584798 228.549681 
L 105.951954 228.549681 
L 105.951954 220.213512 
L 107.347841 220.213512 
L 107.347841 218.82415 
L 110.131676 218.82415 
L 110.131676 217.897909 
L 110.415248 217.897909 
L 110.415248 216.971668 
L 113.022974 216.971668 
L 113.022974 216.508548 
L 114.418861 216.508548 
L 114.418861 215.582307 
L 115.711251 215.582307 
L 115.711251 215.119186 
L 116.323218 215.119186 
L 116.323218 212.803583 
L 117.486268 212.803583 
L 117.486268 212.340463 
L 117.857331 212.340463 
L 117.857331 211.414222 
L 120.571812 211.414222 
L 120.571812 210.487981 
L 122.503236 210.487981 
L 122.503236 209.098619 
L 122.920132 209.098619 
L 122.920132 208.172378 
L 123.593547 208.172378 
L 123.593547 207.246137 
L 124.867052 207.246137 
L 124.867052 199.836209 
L 125.706218 199.836209 
L 125.706218 198.446847 
L 126.618283 198.446847 
L 126.618283 197.520606 
L 128.310692 197.520606 
L 128.310692 197.057486 
L 129.195127 197.057486 
L 129.195127 196.131245 
L 130.127931 196.131245 
L 130.127931 195.205004 
L 131.77355 195.205004 
L 131.77355 193.815642 
L 135.482227 193.815642 
L 135.482227 192.889401 
L 136.008736 192.889401 
L 136.008736 191.96316 
L 137.016339 191.96316 
L 137.016339 191.50004 
L 137.439497 191.50004 
L 137.439497 190.573799 
L 138.872098 190.573799 
L 138.872098 190.110678 
L 139.730821 190.110678 
L 139.730821 189.647558 
L 140.144829 189.647558 
L 140.246813 188.721316 
L 140.89556 188.721316 
L 140.89556 188.258196 
L 141.138789 188.258196 
L 141.138789 187.795075 
L 141.941279 187.795075 
L 141.941279 187.331955 
L 142.840411 187.331955 
L 142.840411 186.868834 
L 144.787023 186.868834 
L 144.787023 185.942593 
L 145.851187 185.942593 
L 145.851187 185.479473 
L 146.502522 185.479473 
L 146.502522 185.016352 
L 148.193699 185.016352 
L 148.193699 184.553232 
L 151.660987 184.553232 
L 151.660987 184.090111 
L 152.309362 184.090111 
L 152.309362 183.626991 
L 153.867041 183.626991 
L 153.867041 183.16387 
L 154.596634 183.16387 
L 154.596634 182.70075 
L 156.154939 182.70075 
L 156.154939 182.237629 
L 156.914157 182.237629 
L 156.914157 181.311388 
L 157.243392 181.311388 
L 157.243392 180.848268 
L 157.641697 180.848268 
L 157.641697 179.922027 
L 157.883783 179.922027 
L 157.883783 178.995786 
L 158.48363 178.995786 
L 158.48363 177.606424 
L 158.907277 177.606424 
L 158.994256 176.217062 
L 159.132527 176.217062 
L 159.132527 175.753942 
L 159.69158 175.753942 
L 159.69158 175.290821 
L 159.923445 175.290821 
L 159.923445 174.36458 
L 160.054568 174.36458 
L 160.070889 172.975219 
L 160.742945 172.975219 
L 160.742945 172.512098 
L 161.054091 172.512098 
L 161.054091 172.048978 
L 161.600536 172.048978 
L 161.689969 170.196496 
L 162.489076 170.196496 
L 162.503271 168.807134 
L 163.709295 168.807134 
L 163.709295 168.344014 
L 164.923954 168.344014 
L 164.923954 167.880893 
L 166.174831 167.880893 
L 166.174831 166.491532 
L 166.829163 166.491532 
L 166.829163 166.028411 
L 167.756314 166.028411 
L 167.756314 165.565291 
L 169.206229 165.565291 
L 169.206229 165.10217 
L 169.512694 165.10217 
L 169.512694 164.63905 
L 169.971772 164.63905 
L 169.971772 163.712808 
L 171.459882 163.712808 
L 171.459882 163.249688 
L 171.904165 163.249688 
L 171.904165 162.323447 
L 172.183331 162.323447 
L 172.183331 161.860326 
L 172.377733 161.860326 
L 172.377733 161.397206 
L 173.118935 161.397206 
L 173.118935 160.470965 
L 173.379457 160.470965 
L 173.379457 159.544724 
L 173.636143 159.544724 
L 173.636143 159.081603 
L 175.115421 159.081603 
L 175.115421 158.155362 
L 175.402213 158.155362 
L 175.402213 157.229121 
L 175.604215 157.229121 
L 175.604215 156.766001 
L 175.744237 156.766001 
L 175.744237 155.83976 
L 177.529105 155.83976 
L 177.529105 155.376639 
L 178.423024 155.376639 
L 178.423024 154.450398 
L 178.883902 154.450398 
L 178.922687 153.524157 
L 179.92287 153.524157 
L 179.92287 153.061037 
L 180.719649 153.061037 
L 180.719649 152.597916 
L 181.036286 152.597916 
L 181.036286 152.134795 
L 181.20219 152.134795 
L 181.20219 151.671675 
L 181.878511 151.671675 
L 181.934481 149.819193 
L 182.717582 149.819193 
L 182.779802 148.892952 
L 183.008979 148.892952 
L 183.013357 147.966711 
L 184.119975 147.966711 
L 184.119975 147.50359 
L 184.550096 147.50359 
L 184.550096 147.04047 
L 187.702242 147.04047 
L 187.702242 146.577349 
L 188.030326 146.577349 
L 188.030326 146.114229 
L 188.410267 146.114229 
L 188.410267 145.651108 
L 188.807245 145.651108 
L 188.807245 145.187988 
L 189.050458 145.187988 
L 189.050458 144.724867 
L 189.342168 144.724867 
L 189.342168 144.261747 
L 189.757409 144.261747 
L 189.757409 143.798626 
L 190.71485 143.798626 
L 190.71485 142.872385 
L 191.159471 142.872385 
L 191.26615 141.946144 
L 191.466791 141.946144 
L 191.466791 141.019903 
L 191.766139 141.019903 
L 191.829622 139.167421 
L 192.452056 139.167421 
L 192.452056 138.7043 
L 192.715028 138.7043 
L 192.715028 137.778059 
L 193.59825 137.778059 
L 193.59825 137.314939 
L 193.961827 137.314939 
L 193.961827 136.851818 
L 194.340856 136.851818 
L 194.340856 135.925577 
L 194.522802 135.925577 
L 194.522802 135.462457 
L 194.651289 135.462457 
L 194.684945 134.073095 
L 195.709992 134.073095 
L 195.709992 133.609975 
L 195.907547 133.609975 
L 195.907547 132.220613 
L 196.63608 132.220613 
L 196.63608 131.757493 
L 196.801647 131.757493 
L 196.801647 130.831252 
L 197.296842 130.831252 
L 197.296842 130.368131 
L 197.898093 130.368131 
L 197.898093 129.905011 
L 198.041061 129.905011 
L 198.041061 129.44189 
L 198.168188 129.44189 
L 198.272511 128.052529 
L 198.783193 128.052529 
L 198.783193 127.589408 
L 199.547687 127.589408 
L 199.547687 127.126287 
L 200.12652 127.126287 
L 200.12652 126.663167 
L 200.528746 126.663167 
L 200.528746 126.200046 
L 201.081067 126.200046 
L 201.081067 125.736926 
L 202.211717 125.736926 
L 202.211717 125.273805 
L 202.808467 125.273805 
L 202.808467 124.810685 
L 203.100047 124.810685 
L 203.13322 122.958203 
L 203.561517 122.958203 
L 203.599203 122.031962 
L 204.869395 122.031962 
L 204.869395 121.105721 
L 205.11886 121.105721 
L 205.11886 120.17948 
L 205.582151 120.17948 
L 205.582151 119.716359 
L 205.726748 119.716359 
L 205.834709 118.326998 
L 206.018245 118.326998 
L 206.018245 117.863877 
L 206.137213 117.863877 
L 206.220705 116.011395 
L 206.490464 116.011395 
L 206.581353 114.622033 
L 207.080657 114.622033 
L 207.080657 112.769551 
L 207.415483 112.769551 
L 207.415483 111.84331 
L 207.635536 111.84331 
L 207.733396 109.990828 
L 207.940068 109.990828 
L 207.977763 108.601467 
L 208.304167 108.601467 
L 208.305193 105.822744 
L 209.033967 105.822744 
L 209.033967 104.896503 
L 210.889779 104.896503 
L 210.889779 103.970262 
L 211.317313 103.970262 
L 211.361305 102.117779 
L 211.745575 102.117779 
L 211.845571 100.265297 
L 212.074486 100.265297 
L 212.087713 98.875936 
L 212.341203 98.875936 
L 212.341203 97.949695 
L 212.551678 97.949695 
L 212.551678 97.023454 
L 212.827098 97.023454 
L 212.827098 96.560333 
L 213.168279 96.560333 
L 213.168279 96.097213 
L 214.113829 96.097213 
L 214.199696 94.707851 
L 214.494423 94.707851 
L 214.494423 94.244731 
L 214.982063 94.244731 
L 214.982063 93.78161 
L 215.11247 93.78161 
L 215.122194 92.855369 
L 215.261897 92.855369 
L 215.261897 92.392249 
L 215.493863 92.392249 
L 215.594851 91.466008 
L 216.042524 91.466008 
L 216.042524 91.002887 
L 216.459066 91.002887 
L 216.459066 90.539766 
L 217.002327 90.539766 
L 217.002327 89.613525 
L 217.509203 89.613525 
L 217.509203 89.150405 
L 218.272215 89.150405 
L 218.272215 88.224164 
L 218.73607 88.224164 
L 218.73607 87.761043 
L 219.256518 87.761043 
L 219.256518 87.297923 
L 219.803343 87.297923 
L 219.803343 86.834802 
L 220.36493 86.834802 
L 220.36493 86.371682 
L 220.591702 86.371682 
L 220.591702 85.445441 
L 221.828111 85.445441 
L 221.828111 84.5192 
L 221.942604 84.5192 
L 221.942604 84.056079 
L 222.150342 84.056079 
L 222.150342 83.592959 
L 222.490862 83.592959 
L 222.490862 83.129838 
L 223.124957 83.129838 
L 223.124957 82.666718 
L 223.357735 82.666718 
L 223.357735 82.203597 
L 224.049641 82.203597 
L 224.049641 81.740477 
L 224.635241 81.740477 
L 224.635241 80.814236 
L 225.937171 80.814236 
L 225.937171 80.351115 
L 228.643899 80.351115 
L 228.643899 79.424874 
L 230.856764 79.424874 
L 230.856764 78.498633 
L 236.991983 78.498633 
L 236.991983 77.572392 
L 238.902256 77.572392 
L 238.902256 76.646151 
L 244.917114 76.646151 
L 244.917114 75.71991 
L 254.097955 75.71991 
L 254.097955 74.793669 
L 338.688 74.793669 
L 338.688 74.793669 
" style="fill:none;stroke:#000080;stroke-linecap:square;stroke-width:1.5;"/>
   </g>
   <g id="line2d_36">
    <defs>
     <path d="M 0 6 
C 1.591219 6 3.117479 5.367802 4.242641 4.242641 
C 5.367802 3.117479 6 1.591219 6 0 
C 6 -1.591219 5.367802 -3.117479 4.242641 -4.242641 
C 3.117479 -5.367802 1.591219 -6 0 -6 
C -1.591219 -6 -3.117479 -5.367802 -4.242641 -4.242641 
C -5.367802 -3.117479 -6 -1.591219 -6 0 
C -6 1.591219 -5.367802 3.117479 -4.242641 4.242641 
C -3.117479 5.367802 -1.591219 6 0 6 
z
" id="mdeca845f87" style="stroke:#000080;stroke-width:1.5;"/>
    </defs>
    <g>
     <use style="fill-opacity:0;stroke:#000080;stroke-width:1.5;" x="100.443706" xlink:href="#mdeca845f87" y="235.959609"/>
     <use style="fill-opacity:0;stroke:#000080;stroke-width:1.5;" x="160.070889" xlink:href="#mdeca845f87" y="172.975219"/>
     <use style="fill-opacity:0;stroke:#000080;stroke-width:1.5;" x="206.220705" xlink:href="#mdeca845f87" y="116.011395"/>
     <use style="fill-opacity:0;stroke:#000080;stroke-width:1.5;" x="254.097955" xlink:href="#mdeca845f87" y="74.793669"/>
     <use style="fill-opacity:0;stroke:#000080;stroke-width:1.5;" x="254.097955" xlink:href="#mdeca845f87" y="74.793669"/>
     <use style="fill-opacity:0;stroke:#000080;stroke-width:1.5;" x="338.688" xlink:href="#mdeca845f87" y="74.793669"/>
    </g>
   </g>
   <g id="line2d_37">
    <path style="fill:none;stroke:#000080;stroke-linecap:square;stroke-width:1.5;"/>
    <g/>
   </g>
   <g id="line2d_38">
    <path clip-path="url(#p75c734deb0)" d="M 258.377608 74.793669 
" style="fill:none;stroke:#000080;stroke-linecap:square;stroke-width:1.5;"/>
    <defs>
     <path d="M -12 12 
L 12 -12 
M -12 -12 
L 12 12 
" id="m0746856e6c" style="stroke:#000080;"/>
    </defs>
    <g clip-path="url(#p75c734deb0)">
     <use style="fill:#000080;stroke:#000080;" x="258.377608" xlink:href="#m0746856e6c" y="74.793669"/>
    </g>
   </g>
   <g id="line2d_39">
    <defs>
     <path d="M 0 1.5 
C 0.397805 1.5 0.77937 1.341951 1.06066 1.06066 
C 1.341951 0.77937 1.5 0.397805 1.5 0 
C 1.5 -0.397805 1.341951 -0.77937 1.06066 -1.06066 
C 0.77937 -1.341951 0.397805 -1.5 0 -1.5 
C -0.397805 -1.5 -0.77937 -1.341951 -1.06066 -1.06066 
C -1.341951 -0.77937 -1.5 -0.397805 -1.5 0 
C -1.5 0.397805 -1.341951 0.77937 -1.06066 1.06066 
C -0.77937 1.341951 -0.397805 1.5 0 1.5 
z
" id="m8e824b405e" style="stroke:#ff00ff;"/>
    </defs>
    <g>
     <use style="fill:#ff00ff;stroke:#ff00ff;" x="256.918478" xlink:href="#m8e824b405e" y="70.625584"/>
     <use style="fill:#ff00ff;stroke:#ff00ff;" x="256.918478" xlink:href="#m8e824b405e" y="70.625584"/>
    </g>
   </g>
   <g id="line2d_40">
    <path d="M 38.440992 298.944 
L 38.440992 274.398612 
L 138.199116 274.398612 
L 138.199116 273.009251 
L 139.520072 273.009251 
L 139.520072 272.54613 
L 142.033307 272.54613 
L 142.033307 271.156769 
L 142.575505 271.156769 
L 142.575505 269.767407 
L 142.752555 269.767407 
L 142.752555 268.378046 
L 143.611807 268.378046 
L 143.611807 267.451805 
L 144.310293 267.451805 
L 144.310293 266.525564 
L 144.981877 266.525564 
L 144.981877 266.062443 
L 146.288102 266.062443 
L 146.395642 263.746841 
L 146.888907 263.746841 
L 146.992815 261.894358 
L 147.061745 261.894358 
L 147.096109 252.168828 
L 147.266916 252.168828 
L 147.368603 249.390104 
L 147.570215 249.390104 
L 147.570215 248.926984 
L 147.835457 248.926984 
L 147.933891 247.537622 
L 147.96658 247.537622 
L 148.031773 245.68514 
L 148.129109 245.68514 
L 148.161434 243.369538 
L 148.322166 243.369538 
L 148.322166 241.980176 
L 148.701984 241.980176 
L 148.701984 241.517056 
L 149.012299 241.517056 
L 149.012299 241.053935 
L 149.286939 241.053935 
L 149.286939 239.201453 
L 149.557321 239.201453 
L 149.557321 237.812091 
L 150.05688 237.812091 
L 150.143571 233.644007 
L 150.172372 233.644007 
L 150.258492 231.791525 
L 150.372662 231.791525 
L 150.429467 229.939043 
L 150.51433 229.939043 
L 150.598782 226.234079 
L 150.626842 226.234079 
L 150.626842 221.139753 
L 150.79426 221.139753 
L 150.904986 217.434789 
L 151.069768 217.434789 
L 151.069768 216.971668 
L 151.314058 216.971668 
L 151.314058 216.045427 
L 151.44831 216.045427 
L 151.44831 215.582307 
L 151.660987 215.582307 
L 151.713753 213.729825 
L 152.104493 213.729825 
L 152.207228 211.877342 
L 152.232818 211.877342 
L 152.232818 211.414222 
L 152.486669 211.414222 
L 152.486669 210.951101 
L 152.761703 210.951101 
L 152.811246 209.098619 
L 152.885298 209.098619 
L 152.959038 206.319896 
L 153.178403 206.319896 
L 153.202607 204.467414 
L 153.29909 204.467414 
L 153.395042 202.614932 
L 153.442821 202.614932 
L 153.514245 200.299329 
L 153.890309 200.299329 
L 153.959927 199.373088 
L 154.029268 199.373088 
L 154.121296 194.278763 
L 154.144227 194.278763 
L 154.144227 193.815642 
L 154.326601 193.815642 
L 154.371897 191.96316 
L 154.641235 191.96316 
L 154.641235 191.50004 
L 155.059358 191.50004 
L 155.167744 190.110678 
L 155.210911 190.110678 
L 155.318362 186.868834 
L 155.339773 186.868834 
L 155.339773 185.942593 
L 155.510121 185.942593 
L 155.61575 184.090111 
L 155.741666 184.090111 
L 155.845906 181.311388 
L 156.154939 181.311388 
L 156.195732 179.458906 
L 156.418408 179.458906 
L 156.45859 173.438339 
L 156.538679 173.438339 
L 156.558644 172.512098 
L 156.697761 172.512098 
L 156.697761 172.048978 
L 156.816128 172.048978 
L 156.816128 170.196496 
L 157.108577 170.196496 
L 157.108577 169.733375 
L 157.28172 169.733375 
L 157.319964 168.344014 
L 157.491032 168.344014 
L 157.491032 167.880893 
L 157.622935 167.880893 
L 157.622935 167.417773 
L 157.772468 167.417773 
L 157.809652 166.491532 
L 158.447857 166.491532 
L 158.465753 165.565291 
L 158.661402 165.565291 
L 158.661402 164.63905 
L 159.046236 164.63905 
L 159.080804 163.249688 
L 159.354904 163.249688 
L 159.354904 162.323447 
L 159.507213 162.323447 
L 159.54088 161.397206 
L 159.956318 161.397206 
L 160.038232 158.618483 
L 160.070889 158.618483 
L 160.070889 157.692242 
L 160.664283 157.692242 
L 160.742945 155.83976 
L 160.821253 155.83976 
L 160.883648 154.913519 
L 161.023225 154.913519 
L 161.023225 154.450398 
L 161.177012 154.450398 
L 161.177012 153.987278 
L 161.585586 153.987278 
L 161.585586 153.524157 
L 161.867469 153.524157 
L 161.867469 153.061037 
L 162.101361 153.061037 
L 162.101361 151.208554 
L 162.217141 151.208554 
L 162.217141 150.745434 
L 162.346481 150.745434 
L 162.346481 150.282313 
L 162.545789 150.282313 
L 162.616422 148.892952 
L 162.756836 148.892952 
L 162.79874 146.577349 
L 163.130401 146.577349 
L 163.130401 146.114229 
L 163.44243 146.114229 
L 163.44243 145.651108 
L 163.589711 145.651108 
L 163.589711 145.187988 
L 163.841212 145.187988 
L 163.841212 144.724867 
L 164.179597 144.724867 
L 164.179597 143.798626 
L 164.51154 143.798626 
L 164.51154 143.335506 
L 165.096013 143.335506 
L 165.169236 142.409265 
L 165.720627 142.409265 
L 165.826498 141.483024 
L 165.9084 141.483024 
L 165.9084 140.556783 
L 166.277988 140.556783 
L 166.277988 139.630541 
L 166.403246 139.630541 
L 166.48249 138.24118 
L 167.438457 138.24118 
L 167.438457 137.778059 
L 167.944284 137.778059 
L 167.944284 137.314939 
L 168.181557 137.314939 
L 168.232714 136.388698 
L 169.321786 136.388698 
L 169.427043 134.999336 
L 169.579021 134.999336 
L 169.579021 134.536216 
L 170.28336 134.536216 
L 170.392016 133.609975 
L 170.758232 133.609975 
L 170.758232 132.683734 
L 171.237722 132.683734 
L 171.237722 131.757493 
L 171.66247 131.757493 
L 171.66247 131.294372 
L 172.142557 131.294372 
L 172.240256 129.905011 
L 173.09576 129.905011 
L 173.09576 129.44189 
L 173.341388 129.44189 
L 173.38706 128.052529 
L 175.803903 128.052529 
L 175.803903 127.589408 
L 176.001331 127.589408 
L 176.001331 127.126287 
L 176.643735 127.126287 
L 176.643735 126.200046 
L 177.475067 126.200046 
L 177.475067 125.736926 
L 177.678338 125.736926 
L 177.678338 125.273805 
L 179.338318 125.273805 
L 179.338318 124.810685 
L 179.828547 124.810685 
L 179.828547 124.347564 
L 180.714656 124.347564 
L 180.779458 122.495082 
L 181.090134 122.495082 
L 181.090134 122.031962 
L 182.138181 122.031962 
L 182.138181 121.568841 
L 182.371348 121.568841 
L 182.371348 121.105721 
L 183.670549 121.105721 
L 183.674764 119.716359 
L 188.413479 119.716359 
L 188.413479 119.253239 
L 189.396894 119.253239 
L 189.396894 118.790118 
L 190.258597 118.790118 
L 190.258597 118.326998 
L 191.153982 118.326998 
L 191.153982 117.400757 
L 192.03436 117.400757 
L 192.03436 116.937636 
L 194.235372 116.937636 
L 194.235372 116.474516 
L 195.920081 116.474516 
L 195.920081 116.011395 
L 196.391859 116.011395 
L 196.391859 115.085154 
L 196.698102 115.085154 
L 196.698102 114.158913 
L 199.559556 114.158913 
L 199.559556 113.232672 
L 200.65495 113.232672 
L 200.65495 112.769551 
L 203.577679 112.769551 
L 203.577679 111.84331 
L 209.825004 111.84331 
L 209.91041 109.990828 
L 210.28369 109.990828 
L 210.28369 109.527708 
L 210.438788 109.527708 
L 210.494106 107.675226 
L 210.760072 107.675226 
L 210.760072 106.748985 
L 211.018528 106.748985 
L 211.018528 106.285864 
L 211.375083 106.285864 
L 211.375083 105.359623 
L 211.505439 105.359623 
L 211.505439 104.896503 
L 212.015671 104.896503 
L 212.015671 104.433382 
L 212.964372 104.433382 
L 212.964372 103.507141 
L 214.254517 103.507141 
L 214.254517 103.04402 
L 215.088832 103.04402 
L 215.088832 102.117779 
L 216.43139 102.117779 
L 216.43139 101.191538 
L 216.737243 101.191538 
L 216.737243 100.728418 
L 218.738327 100.728418 
L 218.756377 99.802177 
L 219.067596 99.802177 
L 219.166994 98.875936 
L 219.248299 98.875936 
L 219.248299 97.949695 
L 219.494827 97.949695 
L 219.494827 97.023454 
L 219.701644 97.023454 
L 219.709118 95.634092 
L 219.856354 95.634092 
L 219.856354 95.170972 
L 221.324564 95.170972 
L 221.324564 94.707851 
L 221.98435 94.707851 
L 221.98435 94.244731 
L 222.155909 94.244731 
L 222.155909 93.31849 
L 223.260033 93.31849 
L 223.260033 92.855369 
L 224.266363 92.855369 
L 224.266363 92.392249 
L 226.172365 92.392249 
L 226.172365 91.929128 
L 226.862325 91.929128 
L 226.862325 91.466008 
L 227.369851 91.466008 
L 227.369851 91.002887 
L 229.045372 91.002887 
L 229.045372 90.539766 
L 230.156731 90.539766 
L 230.158783 89.150405 
L 230.461633 89.150405 
L 230.547859 87.761043 
L 231.025515 87.761043 
L 231.025515 87.297923 
L 232.739719 87.297923 
L 232.739719 86.834802 
L 234.346352 86.834802 
L 234.346352 86.371682 
L 235.072393 86.371682 
L 235.08588 84.98232 
L 235.518534 84.98232 
L 235.518534 84.056079 
L 235.848292 84.056079 
L 235.890765 82.666718 
L 235.973933 82.666718 
L 235.973933 82.203597 
L 237.830994 82.203597 
L 237.830994 81.740477 
L 238.004232 81.740477 
L 238.004232 81.277356 
L 239.253152 81.277356 
L 239.253152 80.814236 
L 243.355218 80.814236 
L 243.355218 79.887995 
L 244.707316 79.887995 
L 244.707316 78.961753 
L 244.957191 78.961753 
L 244.957191 78.035512 
L 246.933181 78.035512 
L 246.933181 77.109271 
L 248.543367 77.109271 
L 248.543367 76.18303 
L 249.339474 76.18303 
L 249.339474 75.256789 
L 249.588725 75.256789 
L 249.667256 73.867428 
L 253.032907 73.867428 
L 253.032907 72.941187 
L 253.306767 72.941187 
L 253.306767 72.014946 
L 255.714763 72.014946 
L 255.714763 71.088705 
L 256.918478 71.088705 
L 256.918478 70.625584 
L 338.688 70.625584 
L 338.688 70.625584 
" style="fill:none;stroke:#ff00ff;stroke-linecap:square;stroke-width:1.5;"/>
   </g>
   <g id="line2d_41">
    <defs>
     <path d="M 0 8.485281 
L 5.091169 0 
L 0 -8.485281 
L -5.091169 0 
z
" id="m1b92c72f6e" style="stroke:#ff00ff;stroke-linejoin:miter;stroke-width:1.5;"/>
    </defs>
    <g>
     <use style="fill-opacity:0;stroke:#ff00ff;stroke-linejoin:miter;stroke-width:1.5;" x="159.956318" xlink:href="#m1b92c72f6e" y="160.470965"/>
     <use style="fill-opacity:0;stroke:#ff00ff;stroke-linejoin:miter;stroke-width:1.5;" x="214.254517" xlink:href="#m1b92c72f6e" y="103.04402"/>
     <use style="fill-opacity:0;stroke:#ff00ff;stroke-linejoin:miter;stroke-width:1.5;" x="256.918478" xlink:href="#m1b92c72f6e" y="70.625584"/>
     <use style="fill-opacity:0;stroke:#ff00ff;stroke-linejoin:miter;stroke-width:1.5;" x="256.918478" xlink:href="#m1b92c72f6e" y="70.625584"/>
     <use style="fill-opacity:0;stroke:#ff00ff;stroke-linejoin:miter;stroke-width:1.5;" x="338.688" xlink:href="#m1b92c72f6e" y="70.625584"/>
    </g>
   </g>
   <g id="line2d_42">
    <path style="fill:none;stroke:#ff00ff;stroke-linecap:square;stroke-width:1.5;"/>
    <g/>
   </g>
   <g id="line2d_43">
    <path clip-path="url(#p75c734deb0)" d="M 258.384117 70.625584 
" style="fill:none;stroke:#ff00ff;stroke-linecap:square;stroke-width:1.5;"/>
    <defs>
     <path d="M -12 12 
L 12 -12 
M -12 -12 
L 12 12 
" id="m2ed74460dc" style="stroke:#ff00ff;"/>
    </defs>
    <g clip-path="url(#p75c734deb0)">
     <use style="fill:#ff00ff;stroke:#ff00ff;" x="258.384117" xlink:href="#m2ed74460dc" y="70.625584"/>
    </g>
   </g>
   <g id="line2d_44">
    <defs>
     <path d="M 0 1.5 
C 0.397805 1.5 0.77937 1.341951 1.06066 1.06066 
C 1.341951 0.77937 1.5 0.397805 1.5 0 
C 1.5 -0.397805 1.341951 -0.77937 1.06066 -1.06066 
C 0.77937 -1.341951 0.397805 -1.5 0 -1.5 
C -0.397805 -1.5 -0.77937 -1.341951 -1.06066 -1.06066 
C -1.341951 -0.77937 -1.5 -0.397805 -1.5 0 
C -1.5 0.397805 -1.341951 0.77937 -1.06066 1.06066 
C -0.77937 1.341951 -0.397805 1.5 0 1.5 
z
" id="m3bb8c8a94c" style="stroke:#ff7500;"/>
    </defs>
    <g>
     <use style="fill:#ff7500;stroke:#ff7500;" x="253.250154" xlink:href="#m3bb8c8a94c" y="108.601467"/>
     <use style="fill:#ff7500;stroke:#ff7500;" x="253.250154" xlink:href="#m3bb8c8a94c" y="108.601467"/>
    </g>
   </g>
   <g id="line2d_45">
    <path d="M 141.987354 298.944 
L 141.987354 293.849674 
L 149.104327 293.849674 
L 149.104327 292.923433 
L 149.226281 292.923433 
L 149.226281 287.365987 
L 152.104493 287.365987 
L 152.104493 286.902867 
L 152.360205 286.902867 
L 152.360205 285.513505 
L 153.056874 285.513505 
L 153.056874 285.050384 
L 153.418948 285.050384 
L 153.49047 280.419179 
L 155.46769 280.419179 
L 155.46769 278.103577 
L 155.804285 278.103577 
L 155.804285 274.398612 
L 156.357959 274.398612 
L 156.357959 273.935492 
L 157.224197 273.935492 
L 157.262567 272.54613 
L 158.049435 272.54613 
L 158.140788 268.841166 
L 158.572743 268.841166 
L 158.572743 266.525564 
L 158.69674 266.525564 
L 158.802326 261.894358 
L 159.046236 261.894358 
L 159.046236 261.431238 
L 159.456591 261.431238 
L 159.456591 259.578756 
L 160.054568 259.578756 
L 160.070889 248.926984 
L 160.249422 248.926984 
L 160.249422 248.000743 
L 160.569418 248.000743 
L 160.632719 224.381596 
L 160.727241 224.381596 
L 160.727241 223.918476 
L 160.976823 223.918476 
L 161.054091 218.36103 
L 161.268637 218.36103 
L 161.268637 216.508548 
L 161.585586 216.508548 
L 161.675095 214.192945 
L 161.867469 214.192945 
L 161.867469 213.266704 
L 162.432178 213.266704 
L 162.432178 212.803583 
L 162.923853 212.803583 
L 162.923853 209.098619 
L 163.144084 209.098619 
L 163.253165 207.246137 
L 163.402046 207.246137 
L 163.496131 205.856776 
L 163.722532 205.856776 
L 163.722532 204.930535 
L 163.8937 204.930535 
L 163.906798 199.836209 
L 164.166702 199.836209 
L 164.231078 197.520606 
L 164.320806 197.520606 
L 164.320806 197.057486 
L 164.47356 197.057486 
L 164.47356 196.131245 
L 164.725213 196.131245 
L 164.800007 194.741883 
L 164.9363 194.741883 
L 164.9363 191.036919 
L 165.108238 191.036919 
L 165.108238 190.573799 
L 165.302685 190.573799 
L 165.302685 190.110678 
L 165.826498 190.110678 
L 165.849938 185.479473 
L 165.943384 185.479473 
L 165.966667 184.090111 
L 166.105719 184.090111 
L 166.117256 181.774509 
L 166.471192 181.774509 
L 166.572616 180.385147 
L 166.684622 180.385147 
L 166.729224 178.069545 
L 167.147346 178.069545 
L 167.147346 177.143304 
L 167.672117 177.143304 
L 167.745812 174.36458 
L 167.933895 174.36458 
L 167.933895 173.90146 
L 168.099393 173.90146 
L 168.099393 172.975219 
L 168.435853 172.975219 
L 168.496336 170.196496 
L 168.596677 170.196496 
L 168.626667 166.028411 
L 168.923766 166.028411 
L 168.923766 165.565291 
L 169.089902 165.565291 
L 169.16754 163.249688 
L 169.465162 163.249688 
L 169.493697 160.934085 
L 169.635673 160.934085 
L 169.635673 158.155362 
L 170.027164 158.155362 
L 170.063995 157.229121 
L 170.473066 157.229121 
L 170.473066 156.766001 
L 170.625141 156.766001 
L 170.625141 154.913519 
L 170.960352 154.913519 
L 171.056197 150.745434 
L 171.408865 150.745434 
L 171.476854 147.966711 
L 171.91244 147.966711 
L 172.003206 145.651108 
L 172.12622 145.651108 
L 172.20775 143.335506 
L 172.83878 143.335506 
L 172.83878 142.409265 
L 173.072554 142.409265 
L 173.072554 141.946144 
L 173.598631 141.946144 
L 173.598631 141.483024 
L 174.050855 141.483024 
L 174.050855 140.556783 
L 174.355542 140.556783 
L 174.355542 139.630541 
L 174.732584 139.630541 
L 174.732584 138.7043 
L 174.886729 138.7043 
L 174.886729 138.24118 
L 175.313947 138.24118 
L 175.313947 136.388698 
L 175.85677 136.388698 
L 175.85677 135.925577 
L 176.875552 135.925577 
L 176.875552 134.999336 
L 177.38463 134.999336 
L 177.38463 133.146854 
L 177.719896 133.146854 
L 177.719896 132.220613 
L 178.130113 132.220613 
L 178.130113 129.44189 
L 178.55918 129.44189 
L 178.55918 128.515649 
L 178.744676 128.515649 
L 178.744676 127.589408 
L 179.408431 127.589408 
L 179.408431 125.736926 
L 180.089306 125.736926 
L 180.089306 122.958203 
L 180.32581 122.958203 
L 180.32581 122.495082 
L 180.774482 122.495082 
L 180.774482 121.568841 
L 181.376149 121.568841 
L 181.376149 120.6426 
L 181.873839 120.6426 
L 181.873839 119.716359 
L 182.229991 119.716359 
L 182.229991 118.790118 
L 182.735382 118.790118 
L 182.735382 118.326998 
L 182.907984 118.326998 
L 182.907984 117.863877 
L 183.308504 117.863877 
L 183.308504 117.400757 
L 190.174608 117.400757 
L 190.174608 113.695792 
L 191.082476 113.695792 
L 191.082476 113.232672 
L 215.283238 113.232672 
L 215.283238 112.769551 
L 222.400979 112.769551 
L 222.400979 110.917069 
L 250.316439 110.917069 
L 250.316439 109.064587 
L 253.250154 109.064587 
L 253.250154 108.601467 
L 338.688 108.601467 
L 338.688 108.601467 
" style="fill:none;stroke:#ff7500;stroke-linecap:square;stroke-width:1.5;"/>
   </g>
   <g id="line2d_46">
    <defs>
     <path d="M 0 -6 
L -1.347084 -1.854102 
L -5.706339 -1.854102 
L -2.179628 0.708204 
L -3.526712 4.854102 
L -0 2.291796 
L 3.526712 4.854102 
L 2.179628 0.708204 
L 5.706339 -1.854102 
L 1.347084 -1.854102 
z
" id="md7770cb9f4" style="stroke:#ff7500;stroke-linejoin:bevel;stroke-width:1.5;"/>
    </defs>
    <g>
     <use style="fill-opacity:0;stroke:#ff7500;stroke-linejoin:bevel;stroke-width:1.5;" x="162.432178" xlink:href="#md7770cb9f4" y="213.266704"/>
     <use style="fill-opacity:0;stroke:#ff7500;stroke-linejoin:bevel;stroke-width:1.5;" x="191.082476" xlink:href="#md7770cb9f4" y="113.695792"/>
     <use style="fill-opacity:0;stroke:#ff7500;stroke-linejoin:bevel;stroke-width:1.5;" x="253.250154" xlink:href="#md7770cb9f4" y="108.601467"/>
     <use style="fill-opacity:0;stroke:#ff7500;stroke-linejoin:bevel;stroke-width:1.5;" x="253.250154" xlink:href="#md7770cb9f4" y="108.601467"/>
     <use style="fill-opacity:0;stroke:#ff7500;stroke-linejoin:bevel;stroke-width:1.5;" x="338.688" xlink:href="#md7770cb9f4" y="108.601467"/>
    </g>
   </g>
   <g id="line2d_47">
    <path style="fill:none;stroke:#ff7500;stroke-linecap:square;stroke-width:1.5;"/>
    <g/>
   </g>
   <g id="line2d_48">
    <path clip-path="url(#p75c734deb0)" d="M 258.377201 108.601467 
" style="fill:none;stroke:#ff7500;stroke-linecap:square;stroke-width:1.5;"/>
    <defs>
     <path d="M -12 12 
L 12 -12 
M -12 -12 
L 12 12 
" id="m764de53437" style="stroke:#ff7500;"/>
    </defs>
    <g clip-path="url(#p75c734deb0)">
     <use style="fill:#ff7500;stroke:#ff7500;" x="258.377201" xlink:href="#m764de53437" y="108.601467"/>
    </g>
   </g>
   <g id="line2d_49">
    <path d="M 338.688 108.601467 
L 369.60768 293.571802 
" style="fill:none;stroke:#ff7500;stroke-linecap:square;stroke-width:1.5;"/>
    <g>
     <use style="fill-opacity:0;stroke:#ff7500;stroke-linejoin:bevel;stroke-width:1.5;" x="338.688" xlink:href="#md7770cb9f4" y="108.601467"/>
     <use style="fill-opacity:0;stroke:#ff7500;stroke-linejoin:bevel;stroke-width:1.5;" x="369.60768" xlink:href="#md7770cb9f4" y="293.571802"/>
    </g>
   </g>
   <g id="line2d_50">
    <path d="M 338.688 74.793669 
L 369.60768 207.616634 
" style="fill:none;stroke:#000080;stroke-linecap:square;stroke-width:1.5;"/>
    <g>
     <use style="fill-opacity:0;stroke:#000080;stroke-width:1.5;" x="338.688" xlink:href="#mdeca845f87" y="74.793669"/>
     <use style="fill-opacity:0;stroke:#000080;stroke-width:1.5;" x="369.60768" xlink:href="#mdeca845f87" y="207.616634"/>
    </g>
   </g>
   <g id="line2d_51">
    <path d="M 338.688 70.625584 
L 369.60768 121.661465 
" style="fill:none;stroke:#ff00ff;stroke-linecap:square;stroke-width:1.5;"/>
    <g>
     <use style="fill-opacity:0;stroke:#ff00ff;stroke-linejoin:miter;stroke-width:1.5;" x="338.688" xlink:href="#m1b92c72f6e" y="70.625584"/>
     <use style="fill-opacity:0;stroke:#ff00ff;stroke-linejoin:miter;stroke-width:1.5;" x="369.60768" xlink:href="#m1b92c72f6e" y="121.661465"/>
    </g>
   </g>
   <g id="line2d_52">
    <path d="M 338.688 298.944 
L 338.688 30.334099 
" style="fill:none;stroke:#000000;stroke-linecap:square;stroke-width:1.5;"/>
   </g>
   <g id="patch_3">
    <path d="M 57.6 298.944 
L 57.6 27.648 
" style="fill:none;stroke:#000000;stroke-linecap:square;stroke-linejoin:miter;stroke-width:0.8;"/>
   </g>
   <g id="patch_4">
    <path d="M 338.688 298.944 
L 338.688 27.648 
" style="fill:none;stroke:#000000;stroke-linecap:square;stroke-linejoin:miter;stroke-width:0.8;"/>
   </g>
   <g id="patch_5">
    <path d="M 57.6 298.944 
L 338.688 298.944 
" style="fill:none;stroke:#000000;stroke-linecap:square;stroke-linejoin:miter;stroke-width:0.8;"/>
   </g>
   <g id="patch_6">
    <path d="M 57.6 27.648 
L 338.688 27.648 
" style="fill:none;stroke:#000000;stroke-linecap:square;stroke-linejoin:miter;stroke-width:0.8;"/>
   </g>
   <g id="text_13">
    <!-- SMS-EMOA- -->
    <g transform="translate(375.22944 298.262739)scale(0.17 -0.17)">
     <defs>
      <path d="M 53.515625 70.515625 
L 53.515625 60.890625 
Q 47.90625 63.578125 42.921875 64.890625 
Q 37.9375 66.21875 33.296875 66.21875 
Q 25.25 66.21875 20.875 63.09375 
Q 16.5 59.96875 16.5 54.203125 
Q 16.5 49.359375 19.40625 46.890625 
Q 22.3125 44.4375 30.421875 42.921875 
L 36.375 41.703125 
Q 47.40625 39.59375 52.65625 34.296875 
Q 57.90625 29 57.90625 20.125 
Q 57.90625 9.515625 50.796875 4.046875 
Q 43.703125 -1.421875 29.984375 -1.421875 
Q 24.8125 -1.421875 18.96875 -0.25 
Q 13.140625 0.921875 6.890625 3.21875 
L 6.890625 13.375 
Q 12.890625 10.015625 18.65625 8.296875 
Q 24.421875 6.59375 29.984375 6.59375 
Q 38.421875 6.59375 43.015625 9.90625 
Q 47.609375 13.234375 47.609375 19.390625 
Q 47.609375 24.75 44.3125 27.78125 
Q 41.015625 30.8125 33.5 32.328125 
L 27.484375 33.5 
Q 16.453125 35.6875 11.515625 40.375 
Q 6.59375 45.0625 6.59375 53.421875 
Q 6.59375 63.09375 13.40625 68.65625 
Q 20.21875 74.21875 32.171875 74.21875 
Q 37.3125 74.21875 42.625 73.28125 
Q 47.953125 72.359375 53.515625 70.515625 
z
" id="DejaVuSans-83"/>
      <path d="M 9.8125 72.90625 
L 24.515625 72.90625 
L 43.109375 23.296875 
L 61.8125 72.90625 
L 76.515625 72.90625 
L 76.515625 0 
L 66.890625 0 
L 66.890625 64.015625 
L 48.09375 14.015625 
L 38.1875 14.015625 
L 19.390625 64.015625 
L 19.390625 0 
L 9.8125 0 
z
" id="DejaVuSans-77"/>
      <path d="M 9.8125 72.90625 
L 55.90625 72.90625 
L 55.90625 64.59375 
L 19.671875 64.59375 
L 19.671875 43.015625 
L 54.390625 43.015625 
L 54.390625 34.71875 
L 19.671875 34.71875 
L 19.671875 8.296875 
L 56.78125 8.296875 
L 56.78125 0 
L 9.8125 0 
z
" id="DejaVuSans-69"/>
      <path d="M 39.40625 66.21875 
Q 28.65625 66.21875 22.328125 58.203125 
Q 16.015625 50.203125 16.015625 36.375 
Q 16.015625 22.609375 22.328125 14.59375 
Q 28.65625 6.59375 39.40625 6.59375 
Q 50.140625 6.59375 56.421875 14.59375 
Q 62.703125 22.609375 62.703125 36.375 
Q 62.703125 50.203125 56.421875 58.203125 
Q 50.140625 66.21875 39.40625 66.21875 
z
M 39.40625 74.21875 
Q 54.734375 74.21875 63.90625 63.9375 
Q 73.09375 53.65625 73.09375 36.375 
Q 73.09375 19.140625 63.90625 8.859375 
Q 54.734375 -1.421875 39.40625 -1.421875 
Q 24.03125 -1.421875 14.8125 8.828125 
Q 5.609375 19.09375 5.609375 36.375 
Q 5.609375 53.65625 14.8125 63.9375 
Q 24.03125 74.21875 39.40625 74.21875 
z
" id="DejaVuSans-79"/>
      <path d="M 34.1875 63.1875 
L 20.796875 26.90625 
L 47.609375 26.90625 
z
M 28.609375 72.90625 
L 39.796875 72.90625 
L 67.578125 0 
L 57.328125 0 
L 50.6875 18.703125 
L 17.828125 18.703125 
L 11.1875 0 
L 0.78125 0 
z
" id="DejaVuSans-65"/>
     </defs>
     <use xlink:href="#DejaVuSans-83"/>
     <use x="63.476562" xlink:href="#DejaVuSans-77"/>
     <use x="149.755859" xlink:href="#DejaVuSans-83"/>
     <use x="213.232422" xlink:href="#DejaVuSans-45"/>
     <use x="249.316406" xlink:href="#DejaVuSans-69"/>
     <use x="312.5" xlink:href="#DejaVuSans-77"/>
     <use x="398.779297" xlink:href="#DejaVuSans-79"/>
     <use x="475.740234" xlink:href="#DejaVuSans-65"/>
     <use x="541.898438" xlink:href="#DejaVuSans-45"/>
    </g>
   </g>
   <g id="text_14">
    <!-- COMO-100  -->
    <g transform="translate(375.22944 212.307571)scale(0.17 -0.17)">
     <defs>
      <path d="M 64.40625 67.28125 
L 64.40625 56.890625 
Q 59.421875 61.53125 53.78125 63.8125 
Q 48.140625 66.109375 41.796875 66.109375 
Q 29.296875 66.109375 22.65625 58.46875 
Q 16.015625 50.828125 16.015625 36.375 
Q 16.015625 21.96875 22.65625 14.328125 
Q 29.296875 6.6875 41.796875 6.6875 
Q 48.140625 6.6875 53.78125 8.984375 
Q 59.421875 11.28125 64.40625 15.921875 
L 64.40625 5.609375 
Q 59.234375 2.09375 53.4375 0.328125 
Q 47.65625 -1.421875 41.21875 -1.421875 
Q 24.65625 -1.421875 15.125 8.703125 
Q 5.609375 18.84375 5.609375 36.375 
Q 5.609375 53.953125 15.125 64.078125 
Q 24.65625 74.21875 41.21875 74.21875 
Q 47.75 74.21875 53.53125 72.484375 
Q 59.328125 70.75 64.40625 67.28125 
z
" id="DejaVuSans-67"/>
     </defs>
     <use xlink:href="#DejaVuSans-67"/>
     <use x="69.824219" xlink:href="#DejaVuSans-79"/>
     <use x="148.535156" xlink:href="#DejaVuSans-77"/>
     <use x="234.814453" xlink:href="#DejaVuSans-79"/>
     <use x="316.275391" xlink:href="#DejaVuSans-45"/>
     <use x="352.359375" xlink:href="#DejaVuSans-49"/>
     <use x="415.982422" xlink:href="#DejaVuSans-48"/>
     <use x="479.605469" xlink:href="#DejaVuSans-48"/>
     <use x="543.228516" xlink:href="#DejaVuSans-32"/>
    </g>
   </g>
   <g id="text_15">
    <!-- NSGA-II-M -->
    <g transform="translate(375.22944 126.352403)scale(0.17 -0.17)">
     <defs>
      <path d="M 9.8125 72.90625 
L 23.09375 72.90625 
L 55.421875 11.921875 
L 55.421875 72.90625 
L 64.984375 72.90625 
L 64.984375 0 
L 51.703125 0 
L 19.390625 60.984375 
L 19.390625 0 
L 9.8125 0 
z
" id="DejaVuSans-78"/>
      <path d="M 59.515625 10.40625 
L 59.515625 29.984375 
L 43.40625 29.984375 
L 43.40625 38.09375 
L 69.28125 38.09375 
L 69.28125 6.78125 
Q 63.578125 2.734375 56.6875 0.65625 
Q 49.8125 -1.421875 42 -1.421875 
Q 24.90625 -1.421875 15.25 8.5625 
Q 5.609375 18.5625 5.609375 36.375 
Q 5.609375 54.25 15.25 64.234375 
Q 24.90625 74.21875 42 74.21875 
Q 49.125 74.21875 55.546875 72.453125 
Q 61.96875 70.703125 67.390625 67.28125 
L 67.390625 56.78125 
Q 61.921875 61.421875 55.765625 63.765625 
Q 49.609375 66.109375 42.828125 66.109375 
Q 29.4375 66.109375 22.71875 58.640625 
Q 16.015625 51.171875 16.015625 36.375 
Q 16.015625 21.625 22.71875 14.15625 
Q 29.4375 6.6875 42.828125 6.6875 
Q 48.046875 6.6875 52.140625 7.59375 
Q 56.25 8.5 59.515625 10.40625 
z
" id="DejaVuSans-71"/>
      <path d="M 9.8125 72.90625 
L 19.671875 72.90625 
L 19.671875 0 
L 9.8125 0 
z
" id="DejaVuSans-73"/>
     </defs>
     <use xlink:href="#DejaVuSans-78"/>
     <use x="74.804688" xlink:href="#DejaVuSans-83"/>
     <use x="138.28125" xlink:href="#DejaVuSans-71"/>
     <use x="215.771484" xlink:href="#DejaVuSans-65"/>
     <use x="281.929688" xlink:href="#DejaVuSans-45"/>
     <use x="318.013672" xlink:href="#DejaVuSans-73"/>
     <use x="347.505859" xlink:href="#DejaVuSans-73"/>
     <use x="376.998047" xlink:href="#DejaVuSans-45"/>
     <use x="413.082031" xlink:href="#DejaVuSans-77"/>
    </g>
   </g>
   <g id="text_16">
    <!-- best 2016 -->
    <g transform="translate(375.22944 40.397235)scale(0.17 -0.17)">
     <defs>
      <path d="M 48.6875 27.296875 
Q 48.6875 37.203125 44.609375 42.84375 
Q 40.53125 48.484375 33.40625 48.484375 
Q 26.265625 48.484375 22.1875 42.84375 
Q 18.109375 37.203125 18.109375 27.296875 
Q 18.109375 17.390625 22.1875 11.75 
Q 26.265625 6.109375 33.40625 6.109375 
Q 40.53125 6.109375 44.609375 11.75 
Q 48.6875 17.390625 48.6875 27.296875 
z
M 18.109375 46.390625 
Q 20.953125 51.265625 25.265625 53.625 
Q 29.59375 56 35.59375 56 
Q 45.5625 56 51.78125 48.09375 
Q 58.015625 40.1875 58.015625 27.296875 
Q 58.015625 14.40625 51.78125 6.484375 
Q 45.5625 -1.421875 35.59375 -1.421875 
Q 29.59375 -1.421875 25.265625 0.953125 
Q 20.953125 3.328125 18.109375 8.203125 
L 18.109375 0 
L 9.078125 0 
L 9.078125 75.984375 
L 18.109375 75.984375 
z
" id="DejaVuSans-98"/>
     </defs>
     <use xlink:href="#DejaVuSans-98"/>
     <use x="63.476562" xlink:href="#DejaVuSans-101"/>
     <use x="125" xlink:href="#DejaVuSans-115"/>
     <use x="177.099609" xlink:href="#DejaVuSans-116"/>
     <use x="216.308594" xlink:href="#DejaVuSans-32"/>
     <use x="248.095703" xlink:href="#DejaVuSans-50"/>
     <use x="311.71875" xlink:href="#DejaVuSans-48"/>
     <use x="375.341797" xlink:href="#DejaVuSans-49"/>
     <use x="438.964844" xlink:href="#DejaVuSans-54"/>
    </g>
   </g>
   <g id="text_17">
    <!-- bbob-biobj f53, 3-D -->
    <g transform="translate(60.41088 38.111366)scale(0.102 -0.102)">
     <defs>
      <path d="M 9.421875 54.6875 
L 18.40625 54.6875 
L 18.40625 -0.984375 
Q 18.40625 -11.421875 14.421875 -16.109375 
Q 10.453125 -20.796875 1.609375 -20.796875 
L -1.8125 -20.796875 
L -1.8125 -13.1875 
L 0.59375 -13.1875 
Q 5.71875 -13.1875 7.5625 -10.8125 
Q 9.421875 -8.453125 9.421875 -0.984375 
z
M 9.421875 75.984375 
L 18.40625 75.984375 
L 18.40625 64.59375 
L 9.421875 64.59375 
z
" id="DejaVuSans-106"/>
      <path d="M 10.796875 72.90625 
L 49.515625 72.90625 
L 49.515625 64.59375 
L 19.828125 64.59375 
L 19.828125 46.734375 
Q 21.96875 47.46875 24.109375 47.828125 
Q 26.265625 48.1875 28.421875 48.1875 
Q 40.625 48.1875 47.75 41.5 
Q 54.890625 34.8125 54.890625 23.390625 
Q 54.890625 11.625 47.5625 5.09375 
Q 40.234375 -1.421875 26.90625 -1.421875 
Q 22.3125 -1.421875 17.546875 -0.640625 
Q 12.796875 0.140625 7.71875 1.703125 
L 7.71875 11.625 
Q 12.109375 9.234375 16.796875 8.0625 
Q 21.484375 6.890625 26.703125 6.890625 
Q 35.15625 6.890625 40.078125 11.328125 
Q 45.015625 15.765625 45.015625 23.390625 
Q 45.015625 31 40.078125 35.4375 
Q 35.15625 39.890625 26.703125 39.890625 
Q 22.75 39.890625 18.8125 39.015625 
Q 14.890625 38.140625 10.796875 36.28125 
z
" id="DejaVuSans-53"/>
      <path d="M 40.578125 39.3125 
Q 47.65625 37.796875 51.625 33 
Q 55.609375 28.21875 55.609375 21.1875 
Q 55.609375 10.40625 48.1875 4.484375 
Q 40.765625 -1.421875 27.09375 -1.421875 
Q 22.515625 -1.421875 17.65625 -0.515625 
Q 12.796875 0.390625 7.625 2.203125 
L 7.625 11.71875 
Q 11.71875 9.328125 16.59375 8.109375 
Q 21.484375 6.890625 26.8125 6.890625 
Q 36.078125 6.890625 40.9375 10.546875 
Q 45.796875 14.203125 45.796875 21.1875 
Q 45.796875 27.640625 41.28125 31.265625 
Q 36.765625 34.90625 28.71875 34.90625 
L 20.21875 34.90625 
L 20.21875 43.015625 
L 29.109375 43.015625 
Q 36.375 43.015625 40.234375 45.921875 
Q 44.09375 48.828125 44.09375 54.296875 
Q 44.09375 59.90625 40.109375 62.90625 
Q 36.140625 65.921875 28.71875 65.921875 
Q 24.65625 65.921875 20.015625 65.03125 
Q 15.375 64.15625 9.8125 62.3125 
L 9.8125 71.09375 
Q 15.4375 72.65625 20.34375 73.4375 
Q 25.25 74.21875 29.59375 74.21875 
Q 40.828125 74.21875 47.359375 69.109375 
Q 53.90625 64.015625 53.90625 55.328125 
Q 53.90625 49.265625 50.4375 45.09375 
Q 46.96875 40.921875 40.578125 39.3125 
z
" id="DejaVuSans-51"/>
      <path d="M 19.671875 64.796875 
L 19.671875 8.109375 
L 31.59375 8.109375 
Q 46.6875 8.109375 53.6875 14.9375 
Q 60.6875 21.78125 60.6875 36.53125 
Q 60.6875 51.171875 53.6875 57.984375 
Q 46.6875 64.796875 31.59375 64.796875 
z
M 9.8125 72.90625 
L 30.078125 72.90625 
Q 51.265625 72.90625 61.171875 64.09375 
Q 71.09375 55.28125 71.09375 36.53125 
Q 71.09375 17.671875 61.125 8.828125 
Q 51.171875 0 30.078125 0 
L 9.8125 0 
z
" id="DejaVuSans-68"/>
     </defs>
     <use xlink:href="#DejaVuSans-98"/>
     <use x="63.476562" xlink:href="#DejaVuSans-98"/>
     <use x="126.953125" xlink:href="#DejaVuSans-111"/>
     <use x="188.134766" xlink:href="#DejaVuSans-98"/>
     <use x="251.611328" xlink:href="#DejaVuSans-45"/>
     <use x="287.695312" xlink:href="#DejaVuSans-98"/>
     <use x="351.171875" xlink:href="#DejaVuSans-105"/>
     <use x="378.955078" xlink:href="#DejaVuSans-111"/>
     <use x="440.136719" xlink:href="#DejaVuSans-98"/>
     <use x="503.613281" xlink:href="#DejaVuSans-106"/>
     <use x="531.396484" xlink:href="#DejaVuSans-32"/>
     <use x="563.183594" xlink:href="#DejaVuSans-102"/>
     <use x="598.388672" xlink:href="#DejaVuSans-53"/>
     <use x="662.011719" xlink:href="#DejaVuSans-51"/>
     <use x="725.634766" xlink:href="#DejaVuSans-44"/>
     <use x="757.421875" xlink:href="#DejaVuSans-32"/>
     <use x="789.208984" xlink:href="#DejaVuSans-51"/>
     <use x="852.832031" xlink:href="#DejaVuSans-45"/>
     <use x="888.916016" xlink:href="#DejaVuSans-68"/>
    </g>
    <!-- 58 targets: 1..-1.0e-4 -->
    <g transform="translate(60.41088 49.533135)scale(0.102 -0.102)">
     <defs>
      <path d="M 11.71875 12.40625 
L 22.015625 12.40625 
L 22.015625 0 
L 11.71875 0 
z
M 11.71875 51.703125 
L 22.015625 51.703125 
L 22.015625 39.3125 
L 11.71875 39.3125 
z
" id="DejaVuSans-58"/>
     </defs>
     <use xlink:href="#DejaVuSans-53"/>
     <use x="63.623047" xlink:href="#DejaVuSans-56"/>
     <use x="127.246094" xlink:href="#DejaVuSans-32"/>
     <use x="159.033203" xlink:href="#DejaVuSans-116"/>
     <use x="198.242188" xlink:href="#DejaVuSans-97"/>
     <use x="259.521484" xlink:href="#DejaVuSans-114"/>
     <use x="298.884766" xlink:href="#DejaVuSans-103"/>
     <use x="362.361328" xlink:href="#DejaVuSans-101"/>
     <use x="423.884766" xlink:href="#DejaVuSans-116"/>
     <use x="463.09375" xlink:href="#DejaVuSans-115"/>
     <use x="515.193359" xlink:href="#DejaVuSans-58"/>
     <use x="548.884766" xlink:href="#DejaVuSans-32"/>
     <use x="580.671875" xlink:href="#DejaVuSans-49"/>
     <use x="644.294922" xlink:href="#DejaVuSans-46"/>
     <use x="676.082031" xlink:href="#DejaVuSans-46"/>
     <use x="707.869141" xlink:href="#DejaVuSans-45"/>
     <use x="743.953125" xlink:href="#DejaVuSans-49"/>
     <use x="807.576172" xlink:href="#DejaVuSans-46"/>
     <use x="839.363281" xlink:href="#DejaVuSans-48"/>
     <use x="902.986328" xlink:href="#DejaVuSans-101"/>
     <use x="964.509766" xlink:href="#DejaVuSans-45"/>
     <use x="1000.59375" xlink:href="#DejaVuSans-52"/>
    </g>
    <!-- 10 instances -->
    <g transform="translate(60.41088 60.954904)scale(0.102 -0.102)">
     <use xlink:href="#DejaVuSans-49"/>
     <use x="63.623047" xlink:href="#DejaVuSans-48"/>
     <use x="127.246094" xlink:href="#DejaVuSans-32"/>
     <use x="159.033203" xlink:href="#DejaVuSans-105"/>
     <use x="186.816406" xlink:href="#DejaVuSans-110"/>
     <use x="250.195312" xlink:href="#DejaVuSans-115"/>
     <use x="302.294922" xlink:href="#DejaVuSans-116"/>
     <use x="341.503906" xlink:href="#DejaVuSans-97"/>
     <use x="402.783203" xlink:href="#DejaVuSans-110"/>
     <use x="466.162109" xlink:href="#DejaVuSans-99"/>
     <use x="521.142578" xlink:href="#DejaVuSans-101"/>
     <use x="582.666016" xlink:href="#DejaVuSans-115"/>
    </g>
   </g>
   <g id="text_18">
    <!-- v2.4.19, hv-hash=ff0e71e8cd978373 -->
    <g style="fill:#808080;" transform="translate(104.697125 294.151352)scale(0.1 -0.1)">
     <defs>
      <path d="M 10.984375 1.515625 
L 10.984375 10.5 
Q 14.703125 8.734375 18.5 7.8125 
Q 22.3125 6.890625 25.984375 6.890625 
Q 35.75 6.890625 40.890625 13.453125 
Q 46.046875 20.015625 46.78125 33.40625 
Q 43.953125 29.203125 39.59375 26.953125 
Q 35.25 24.703125 29.984375 24.703125 
Q 19.046875 24.703125 12.671875 31.3125 
Q 6.296875 37.9375 6.296875 49.421875 
Q 6.296875 60.640625 12.9375 67.421875 
Q 19.578125 74.21875 30.609375 74.21875 
Q 43.265625 74.21875 49.921875 64.515625 
Q 56.59375 54.828125 56.59375 36.375 
Q 56.59375 19.140625 48.40625 8.859375 
Q 40.234375 -1.421875 26.421875 -1.421875 
Q 22.703125 -1.421875 18.890625 -0.6875 
Q 15.09375 0.046875 10.984375 1.515625 
z
M 30.609375 32.421875 
Q 37.25 32.421875 41.125 36.953125 
Q 45.015625 41.5 45.015625 49.421875 
Q 45.015625 57.28125 41.125 61.84375 
Q 37.25 66.40625 30.609375 66.40625 
Q 23.96875 66.40625 20.09375 61.84375 
Q 16.21875 57.28125 16.21875 49.421875 
Q 16.21875 41.5 20.09375 36.953125 
Q 23.96875 32.421875 30.609375 32.421875 
z
" id="DejaVuSans-57"/>
      <path d="M 54.890625 33.015625 
L 54.890625 0 
L 45.90625 0 
L 45.90625 32.71875 
Q 45.90625 40.484375 42.875 44.328125 
Q 39.84375 48.1875 33.796875 48.1875 
Q 26.515625 48.1875 22.3125 43.546875 
Q 18.109375 38.921875 18.109375 30.90625 
L 18.109375 0 
L 9.078125 0 
L 9.078125 75.984375 
L 18.109375 75.984375 
L 18.109375 46.1875 
Q 21.34375 51.125 25.703125 53.5625 
Q 30.078125 56 35.796875 56 
Q 45.21875 56 50.046875 50.171875 
Q 54.890625 44.34375 54.890625 33.015625 
z
" id="DejaVuSans-104"/>
      <path d="M 10.59375 45.40625 
L 73.1875 45.40625 
L 73.1875 37.203125 
L 10.59375 37.203125 
z
M 10.59375 25.484375 
L 73.1875 25.484375 
L 73.1875 17.1875 
L 10.59375 17.1875 
z
" id="DejaVuSans-61"/>
      <path d="M 8.203125 72.90625 
L 55.078125 72.90625 
L 55.078125 68.703125 
L 28.609375 0 
L 18.3125 0 
L 43.21875 64.59375 
L 8.203125 64.59375 
z
" id="DejaVuSans-55"/>
     </defs>
     <use xlink:href="#DejaVuSans-118"/>
     <use x="59.179688" xlink:href="#DejaVuSans-50"/>
     <use x="122.802734" xlink:href="#DejaVuSans-46"/>
     <use x="154.589844" xlink:href="#DejaVuSans-52"/>
     <use x="218.212891" xlink:href="#DejaVuSans-46"/>
     <use x="250" xlink:href="#DejaVuSans-49"/>
     <use x="313.623047" xlink:href="#DejaVuSans-57"/>
     <use x="377.246094" xlink:href="#DejaVuSans-44"/>
     <use x="409.033203" xlink:href="#DejaVuSans-32"/>
     <use x="440.820312" xlink:href="#DejaVuSans-104"/>
     <use x="504.199219" xlink:href="#DejaVuSans-118"/>
     <use x="560.753906" xlink:href="#DejaVuSans-45"/>
     <use x="596.837891" xlink:href="#DejaVuSans-104"/>
     <use x="660.216797" xlink:href="#DejaVuSans-97"/>
     <use x="721.496094" xlink:href="#DejaVuSans-115"/>
     <use x="773.595703" xlink:href="#DejaVuSans-104"/>
     <use x="836.974609" xlink:href="#DejaVuSans-61"/>
     <use x="920.763672" xlink:href="#DejaVuSans-102"/>
     <use x="955.96875" xlink:href="#DejaVuSans-102"/>
     <use x="991.173828" xlink:href="#DejaVuSans-48"/>
     <use x="1054.796875" xlink:href="#DejaVuSans-101"/>
     <use x="1116.320312" xlink:href="#DejaVuSans-55"/>
     <use x="1179.943359" xlink:href="#DejaVuSans-49"/>
     <use x="1243.566406" xlink:href="#DejaVuSans-101"/>
     <use x="1305.089844" xlink:href="#DejaVuSans-56"/>
     <use x="1368.712891" xlink:href="#DejaVuSans-99"/>
     <use x="1423.693359" xlink:href="#DejaVuSans-100"/>
     <use x="1487.169922" xlink:href="#DejaVuSans-57"/>
     <use x="1550.792969" xlink:href="#DejaVuSans-55"/>
     <use x="1614.416016" xlink:href="#DejaVuSans-56"/>
     <use x="1678.039062" xlink:href="#DejaVuSans-51"/>
     <use x="1741.662109" xlink:href="#DejaVuSans-55"/>
     <use x="1805.285156" xlink:href="#DejaVuSans-51"/>
    </g>
   </g>
   <g id="text_19">
    <!-- 53 Schwefel/Schwefel -->
    <g transform="translate(88.93775 21.648)scale(0.2 -0.2)">
     <defs>
      <path d="M 4.203125 54.6875 
L 13.1875 54.6875 
L 24.421875 12.015625 
L 35.59375 54.6875 
L 46.1875 54.6875 
L 57.421875 12.015625 
L 68.609375 54.6875 
L 77.59375 54.6875 
L 63.28125 0 
L 52.6875 0 
L 40.921875 44.828125 
L 29.109375 0 
L 18.5 0 
z
" id="DejaVuSans-119"/>
     </defs>
     <use xlink:href="#DejaVuSans-53"/>
     <use x="63.623047" xlink:href="#DejaVuSans-51"/>
     <use x="127.246094" xlink:href="#DejaVuSans-32"/>
     <use x="159.033203" xlink:href="#DejaVuSans-83"/>
     <use x="222.509766" xlink:href="#DejaVuSans-99"/>
     <use x="277.490234" xlink:href="#DejaVuSans-104"/>
     <use x="340.869141" xlink:href="#DejaVuSans-119"/>
     <use x="422.65625" xlink:href="#DejaVuSans-101"/>
     <use x="484.179688" xlink:href="#DejaVuSans-102"/>
     <use x="519.384766" xlink:href="#DejaVuSans-101"/>
     <use x="580.908203" xlink:href="#DejaVuSans-108"/>
     <use x="608.691406" xlink:href="#DejaVuSans-47"/>
     <use x="642.382812" xlink:href="#DejaVuSans-83"/>
     <use x="705.859375" xlink:href="#DejaVuSans-99"/>
     <use x="760.839844" xlink:href="#DejaVuSans-104"/>
     <use x="824.21875" xlink:href="#DejaVuSans-119"/>
     <use x="906.005859" xlink:href="#DejaVuSans-101"/>
     <use x="967.529297" xlink:href="#DejaVuSans-102"/>
     <use x="1002.734375" xlink:href="#DejaVuSans-101"/>
     <use x="1064.257812" xlink:href="#DejaVuSans-108"/>
    </g>
   </g>
  </g>
 </g>
 <defs>
  <clipPath id="p75c734deb0">
   <rect height="271.296" width="281.088" x="57.6" y="27.648"/>
  </clipPath>
 </defs>
</svg>
