<?xml version="1.0" encoding="utf-8" standalone="no"?>
<!DOCTYPE svg PUBLIC "-//W3C//DTD SVG 1.1//EN"
  "http://www.w3.org/Graphics/SVG/1.1/DTD/svg11.dtd">
<!-- Created with matplotlib (https://matplotlib.org/) -->
<svg height="345.6pt" version="1.1" viewBox="0 0 460.8 345.6" width="460.8pt" xmlns="http://www.w3.org/2000/svg" xmlns:xlink="http://www.w3.org/1999/xlink">
 <metadata>
  <rdf:RDF xmlns:cc="http://creativecommons.org/ns#" xmlns:dc="http://purl.org/dc/elements/1.1/" xmlns:rdf="http://www.w3.org/1999/02/22-rdf-syntax-ns#">
   <cc:Work>
    <dc:type rdf:resource="http://purl.org/dc/dcmitype/StillImage"/>
    <dc:date>2021-04-26T15:04:46.712472</dc:date>
    <dc:format>image/svg+xml</dc:format>
    <dc:creator>
     <cc:Agent>
      <dc:title>Matplotlib v3.3.2, https://matplotlib.org/</dc:title>
     </cc:Agent>
    </dc:creator>
   </cc:Work>
  </rdf:RDF>
 </metadata>
 <defs>
  <style type="text/css">*{stroke-linecap:butt;stroke-linejoin:round;}</style>
 </defs>
 <g id="figure_1">
  <g id="patch_1">
   <path d="M 0 345.6 
L 460.8 345.6 
L 460.8 0 
L 0 0 
z
" style="fill:#ffffff;"/>
  </g>
  <g id="axes_1">
   <g id="patch_2">
    <path d="M 57.6 298.944 
L 338.688 298.944 
L 338.688 27.648 
L 57.6 27.648 
z
" style="fill:#ffffff;"/>
   </g>
   <g id="line2d_1">
    <path d="M 84.464254 298.944 
L 84.464254 285.050384 
L 86.792945 285.050384 
L 86.792945 275.787974 
L 99.41757 275.787974 
L 99.41757 271.156769 
L 105.584798 271.156769 
L 105.584798 257.263153 
L 114.418861 257.263153 
L 114.418861 248.000743 
L 116.719583 248.000743 
L 116.719583 243.369538 
L 119.602714 243.369538 
L 119.602714 234.107127 
L 123.855796 234.107127 
L 123.855796 220.213512 
L 132.971225 220.213512 
L 132.971225 210.951101 
L 151.015013 210.951101 
L 151.015013 201.688691 
L 155.594676 201.688691 
L 155.594676 192.426281 
L 164.700211 192.426281 
L 164.700211 187.795075 
L 167.881853 187.795075 
L 167.881853 173.90146 
L 171.51075 173.90146 
L 171.51075 169.270255 
L 175.711 169.270255 
L 175.711 155.376639 
L 180.533936 155.376639 
L 180.533936 146.114229 
L 188.099133 146.114229 
L 188.099133 141.483024 
L 193.683923 141.483024 
L 193.683923 127.589408 
L 198.035513 127.589408 
L 198.035513 122.958203 
L 204.201757 122.958203 
L 204.201757 109.064587 
L 210.69754 109.064587 
L 210.69754 99.802177 
L 216.530949 99.802177 
L 216.530949 90.539766 
L 227.256644 90.539766 
L 227.256644 85.908561 
L 230.962354 85.908561 
L 230.962354 76.646151 
L 235.655123 76.646151 
L 235.655123 62.752535 
L 338.688 62.752535 
" style="fill:none;stroke:#f5deb3;stroke-linecap:square;stroke-width:4;"/>
   </g>
   <g id="line2d_2">
    <defs>
     <path d="M 0 7.778175 
L 7.778175 0 
L 0 -7.778175 
L -7.778175 0 
z
" id="mbb271d010c" style="stroke:#f5deb3;stroke-linejoin:miter;stroke-width:1.5;"/>
    </defs>
    <g>
     <use style="fill:#f5deb3;stroke:#f5deb3;stroke-linejoin:miter;stroke-width:1.5;" x="132.971225" xlink:href="#mbb271d010c" y="210.951101"/>
     <use style="fill:#f5deb3;stroke:#f5deb3;stroke-linejoin:miter;stroke-width:1.5;" x="204.201757" xlink:href="#mbb271d010c" y="109.064587"/>
     <use style="fill:#f5deb3;stroke:#f5deb3;stroke-linejoin:miter;stroke-width:1.5;" x="235.655123" xlink:href="#mbb271d010c" y="76.646151"/>
     <use style="fill:#f5deb3;stroke:#f5deb3;stroke-linejoin:miter;stroke-width:1.5;" x="235.655123" xlink:href="#mbb271d010c" y="62.752535"/>
     <use style="fill:#f5deb3;stroke:#f5deb3;stroke-linejoin:miter;stroke-width:1.5;" x="338.688" xlink:href="#mbb271d010c" y="62.752535"/>
    </g>
   </g>
   <g id="line2d_3">
    <path style="fill:none;stroke:#f5deb3;stroke-linecap:square;stroke-width:4;"/>
    <g/>
   </g>
   <g id="line2d_4">
    <path d="M 338.688 62.752535 
L 369.60768 35.706297 
" style="fill:none;stroke:#f5deb3;stroke-linecap:square;stroke-width:4;"/>
    <g>
     <use style="fill:#f5deb3;stroke:#f5deb3;stroke-linejoin:miter;stroke-width:1.5;" x="338.688" xlink:href="#mbb271d010c" y="62.752535"/>
     <use style="fill:#f5deb3;stroke:#f5deb3;stroke-linejoin:miter;stroke-width:1.5;" x="369.60768" xlink:href="#mbb271d010c" y="35.706297"/>
    </g>
   </g>
   <g id="matplotlib.axis_1">
    <g id="xtick_1">
     <g id="line2d_5">
      <path clip-path="url(#pafaf26e015)" d="M 57.6 298.944 
L 57.6 27.648 
" style="fill:none;stroke:#b0b0b0;stroke-linecap:square;stroke-width:0.8;"/>
     </g>
     <g id="line2d_6">
      <defs>
       <path d="M 0 0 
L 0 3.5 
" id="ma83e99f8fd" style="stroke:#000000;stroke-width:0.8;"/>
      </defs>
      <g>
       <use style="stroke:#000000;stroke-width:0.8;" x="57.6" xlink:href="#ma83e99f8fd" y="298.944"/>
      </g>
     </g>
     <g id="text_1">
      <!-- 0 -->
      <g transform="translate(51.2375 321.140875)scale(0.2 -0.2)">
       <defs>
        <path d="M 31.78125 66.40625 
Q 24.171875 66.40625 20.328125 58.90625 
Q 16.5 51.421875 16.5 36.375 
Q 16.5 21.390625 20.328125 13.890625 
Q 24.171875 6.390625 31.78125 6.390625 
Q 39.453125 6.390625 43.28125 13.890625 
Q 47.125 21.390625 47.125 36.375 
Q 47.125 51.421875 43.28125 58.90625 
Q 39.453125 66.40625 31.78125 66.40625 
z
M 31.78125 74.21875 
Q 44.046875 74.21875 50.515625 64.515625 
Q 56.984375 54.828125 56.984375 36.375 
Q 56.984375 17.96875 50.515625 8.265625 
Q 44.046875 -1.421875 31.78125 -1.421875 
Q 19.53125 -1.421875 13.0625 8.265625 
Q 6.59375 17.96875 6.59375 36.375 
Q 6.59375 54.828125 13.0625 64.515625 
Q 19.53125 74.21875 31.78125 74.21875 
z
" id="DejaVuSans-48"/>
       </defs>
       <use xlink:href="#DejaVuSans-48"/>
      </g>
     </g>
    </g>
    <g id="xtick_2">
     <g id="line2d_7">
      <path clip-path="url(#pafaf26e015)" d="M 137.910857 298.944 
L 137.910857 27.648 
" style="fill:none;stroke:#b0b0b0;stroke-linecap:square;stroke-width:0.8;"/>
     </g>
     <g id="line2d_8">
      <g>
       <use style="stroke:#000000;stroke-width:0.8;" x="137.910857" xlink:href="#ma83e99f8fd" y="298.944"/>
      </g>
     </g>
     <g id="text_2">
      <!-- 2 -->
      <g transform="translate(131.548357 321.140875)scale(0.2 -0.2)">
       <defs>
        <path d="M 19.1875 8.296875 
L 53.609375 8.296875 
L 53.609375 0 
L 7.328125 0 
L 7.328125 8.296875 
Q 12.9375 14.109375 22.625 23.890625 
Q 32.328125 33.6875 34.8125 36.53125 
Q 39.546875 41.84375 41.421875 45.53125 
Q 43.3125 49.21875 43.3125 52.78125 
Q 43.3125 58.59375 39.234375 62.25 
Q 35.15625 65.921875 28.609375 65.921875 
Q 23.96875 65.921875 18.8125 64.3125 
Q 13.671875 62.703125 7.8125 59.421875 
L 7.8125 69.390625 
Q 13.765625 71.78125 18.9375 73 
Q 24.125 74.21875 28.421875 74.21875 
Q 39.75 74.21875 46.484375 68.546875 
Q 53.21875 62.890625 53.21875 53.421875 
Q 53.21875 48.921875 51.53125 44.890625 
Q 49.859375 40.875 45.40625 35.40625 
Q 44.1875 33.984375 37.640625 27.21875 
Q 31.109375 20.453125 19.1875 8.296875 
z
" id="DejaVuSans-50"/>
       </defs>
       <use xlink:href="#DejaVuSans-50"/>
      </g>
     </g>
    </g>
    <g id="xtick_3">
     <g id="line2d_9">
      <path clip-path="url(#pafaf26e015)" d="M 218.221714 298.944 
L 218.221714 27.648 
" style="fill:none;stroke:#b0b0b0;stroke-linecap:square;stroke-width:0.8;"/>
     </g>
     <g id="line2d_10">
      <g>
       <use style="stroke:#000000;stroke-width:0.8;" x="218.221714" xlink:href="#ma83e99f8fd" y="298.944"/>
      </g>
     </g>
     <g id="text_3">
      <!-- 4 -->
      <g transform="translate(211.859214 321.140875)scale(0.2 -0.2)">
       <defs>
        <path d="M 37.796875 64.3125 
L 12.890625 25.390625 
L 37.796875 25.390625 
z
M 35.203125 72.90625 
L 47.609375 72.90625 
L 47.609375 25.390625 
L 58.015625 25.390625 
L 58.015625 17.1875 
L 47.609375 17.1875 
L 47.609375 0 
L 37.796875 0 
L 37.796875 17.1875 
L 4.890625 17.1875 
L 4.890625 26.703125 
z
" id="DejaVuSans-52"/>
       </defs>
       <use xlink:href="#DejaVuSans-52"/>
      </g>
     </g>
    </g>
    <g id="xtick_4">
     <g id="line2d_11">
      <path clip-path="url(#pafaf26e015)" d="M 298.532571 298.944 
L 298.532571 27.648 
" style="fill:none;stroke:#b0b0b0;stroke-linecap:square;stroke-width:0.8;"/>
     </g>
     <g id="line2d_12">
      <g>
       <use style="stroke:#000000;stroke-width:0.8;" x="298.532571" xlink:href="#ma83e99f8fd" y="298.944"/>
      </g>
     </g>
     <g id="text_4">
      <!-- 6 -->
      <g transform="translate(292.170071 321.140875)scale(0.2 -0.2)">
       <defs>
        <path d="M 33.015625 40.375 
Q 26.375 40.375 22.484375 35.828125 
Q 18.609375 31.296875 18.609375 23.390625 
Q 18.609375 15.53125 22.484375 10.953125 
Q 26.375 6.390625 33.015625 6.390625 
Q 39.65625 6.390625 43.53125 10.953125 
Q 47.40625 15.53125 47.40625 23.390625 
Q 47.40625 31.296875 43.53125 35.828125 
Q 39.65625 40.375 33.015625 40.375 
z
M 52.59375 71.296875 
L 52.59375 62.3125 
Q 48.875 64.0625 45.09375 64.984375 
Q 41.3125 65.921875 37.59375 65.921875 
Q 27.828125 65.921875 22.671875 59.328125 
Q 17.53125 52.734375 16.796875 39.40625 
Q 19.671875 43.65625 24.015625 45.921875 
Q 28.375 48.1875 33.59375 48.1875 
Q 44.578125 48.1875 50.953125 41.515625 
Q 57.328125 34.859375 57.328125 23.390625 
Q 57.328125 12.15625 50.6875 5.359375 
Q 44.046875 -1.421875 33.015625 -1.421875 
Q 20.359375 -1.421875 13.671875 8.265625 
Q 6.984375 17.96875 6.984375 36.375 
Q 6.984375 53.65625 15.1875 63.9375 
Q 23.390625 74.21875 37.203125 74.21875 
Q 40.921875 74.21875 44.703125 73.484375 
Q 48.484375 72.75 52.59375 71.296875 
z
" id="DejaVuSans-54"/>
       </defs>
       <use xlink:href="#DejaVuSans-54"/>
      </g>
     </g>
    </g>
    <g id="xtick_5">
     <g id="line2d_13">
      <path clip-path="url(#pafaf26e015)" d="M 97.755429 298.944 
L 97.755429 27.648 
" style="fill:none;stroke:#b0b0b0;stroke-linecap:square;stroke-width:0.8;"/>
     </g>
     <g id="line2d_14">
      <defs>
       <path d="M 0 0 
L 0 2 
" id="mab4343b91f" style="stroke:#000000;stroke-width:0.6;"/>
      </defs>
      <g>
       <use style="stroke:#000000;stroke-width:0.6;" x="97.755429" xlink:href="#mab4343b91f" y="298.944"/>
      </g>
     </g>
    </g>
    <g id="xtick_6">
     <g id="line2d_15">
      <path clip-path="url(#pafaf26e015)" d="M 178.066286 298.944 
L 178.066286 27.648 
" style="fill:none;stroke:#b0b0b0;stroke-linecap:square;stroke-width:0.8;"/>
     </g>
     <g id="line2d_16">
      <g>
       <use style="stroke:#000000;stroke-width:0.6;" x="178.066286" xlink:href="#mab4343b91f" y="298.944"/>
      </g>
     </g>
    </g>
    <g id="xtick_7">
     <g id="line2d_17">
      <path clip-path="url(#pafaf26e015)" d="M 258.377143 298.944 
L 258.377143 27.648 
" style="fill:none;stroke:#b0b0b0;stroke-linecap:square;stroke-width:0.8;"/>
     </g>
     <g id="line2d_18">
      <g>
       <use style="stroke:#000000;stroke-width:0.6;" x="258.377143" xlink:href="#mab4343b91f" y="298.944"/>
      </g>
     </g>
    </g>
    <g id="xtick_8">
     <g id="line2d_19">
      <path clip-path="url(#pafaf26e015)" d="M 338.688 298.944 
L 338.688 27.648 
" style="fill:none;stroke:#b0b0b0;stroke-linecap:square;stroke-width:0.8;"/>
     </g>
     <g id="line2d_20">
      <g>
       <use style="stroke:#000000;stroke-width:0.6;" x="338.688" xlink:href="#mab4343b91f" y="298.944"/>
      </g>
     </g>
    </g>
    <g id="text_5">
     <!-- log10(# f-evals / dimension) -->
     <g transform="translate(77.764078 342.217594)scale(0.17 -0.17)">
      <defs>
       <path d="M 9.421875 75.984375 
L 18.40625 75.984375 
L 18.40625 0 
L 9.421875 0 
z
" id="DejaVuSans-108"/>
       <path d="M 30.609375 48.390625 
Q 23.390625 48.390625 19.1875 42.75 
Q 14.984375 37.109375 14.984375 27.296875 
Q 14.984375 17.484375 19.15625 11.84375 
Q 23.34375 6.203125 30.609375 6.203125 
Q 37.796875 6.203125 41.984375 11.859375 
Q 46.1875 17.53125 46.1875 27.296875 
Q 46.1875 37.015625 41.984375 42.703125 
Q 37.796875 48.390625 30.609375 48.390625 
z
M 30.609375 56 
Q 42.328125 56 49.015625 48.375 
Q 55.71875 40.765625 55.71875 27.296875 
Q 55.71875 13.875 49.015625 6.21875 
Q 42.328125 -1.421875 30.609375 -1.421875 
Q 18.84375 -1.421875 12.171875 6.21875 
Q 5.515625 13.875 5.515625 27.296875 
Q 5.515625 40.765625 12.171875 48.375 
Q 18.84375 56 30.609375 56 
z
" id="DejaVuSans-111"/>
       <path d="M 45.40625 27.984375 
Q 45.40625 37.75 41.375 43.109375 
Q 37.359375 48.484375 30.078125 48.484375 
Q 22.859375 48.484375 18.828125 43.109375 
Q 14.796875 37.75 14.796875 27.984375 
Q 14.796875 18.265625 18.828125 12.890625 
Q 22.859375 7.515625 30.078125 7.515625 
Q 37.359375 7.515625 41.375 12.890625 
Q 45.40625 18.265625 45.40625 27.984375 
z
M 54.390625 6.78125 
Q 54.390625 -7.171875 48.1875 -13.984375 
Q 42 -20.796875 29.203125 -20.796875 
Q 24.46875 -20.796875 20.265625 -20.09375 
Q 16.0625 -19.390625 12.109375 -17.921875 
L 12.109375 -9.1875 
Q 16.0625 -11.328125 19.921875 -12.34375 
Q 23.78125 -13.375 27.78125 -13.375 
Q 36.625 -13.375 41.015625 -8.765625 
Q 45.40625 -4.15625 45.40625 5.171875 
L 45.40625 9.625 
Q 42.625 4.78125 38.28125 2.390625 
Q 33.9375 0 27.875 0 
Q 17.828125 0 11.671875 7.65625 
Q 5.515625 15.328125 5.515625 27.984375 
Q 5.515625 40.671875 11.671875 48.328125 
Q 17.828125 56 27.875 56 
Q 33.9375 56 38.28125 53.609375 
Q 42.625 51.21875 45.40625 46.390625 
L 45.40625 54.6875 
L 54.390625 54.6875 
z
" id="DejaVuSans-103"/>
       <path d="M 12.40625 8.296875 
L 28.515625 8.296875 
L 28.515625 63.921875 
L 10.984375 60.40625 
L 10.984375 69.390625 
L 28.421875 72.90625 
L 38.28125 72.90625 
L 38.28125 8.296875 
L 54.390625 8.296875 
L 54.390625 0 
L 12.40625 0 
z
" id="DejaVuSans-49"/>
       <path d="M 31 75.875 
Q 24.46875 64.65625 21.28125 53.65625 
Q 18.109375 42.671875 18.109375 31.390625 
Q 18.109375 20.125 21.3125 9.0625 
Q 24.515625 -2 31 -13.1875 
L 23.1875 -13.1875 
Q 15.875 -1.703125 12.234375 9.375 
Q 8.59375 20.453125 8.59375 31.390625 
Q 8.59375 42.28125 12.203125 53.3125 
Q 15.828125 64.359375 23.1875 75.875 
z
" id="DejaVuSans-40"/>
       <path d="M 51.125 44 
L 36.921875 44 
L 32.8125 27.6875 
L 47.125 27.6875 
z
M 43.796875 71.78125 
L 38.71875 51.515625 
L 52.984375 51.515625 
L 58.109375 71.78125 
L 65.921875 71.78125 
L 60.890625 51.515625 
L 76.125 51.515625 
L 76.125 44 
L 58.984375 44 
L 54.984375 27.6875 
L 70.515625 27.6875 
L 70.515625 20.21875 
L 53.078125 20.21875 
L 48 0 
L 40.1875 0 
L 45.21875 20.21875 
L 30.90625 20.21875 
L 25.875 0 
L 18.015625 0 
L 23.09375 20.21875 
L 7.71875 20.21875 
L 7.71875 27.6875 
L 24.90625 27.6875 
L 29 44 
L 13.28125 44 
L 13.28125 51.515625 
L 30.90625 51.515625 
L 35.890625 71.78125 
z
" id="DejaVuSans-35"/>
       <path id="DejaVuSans-32"/>
       <path d="M 37.109375 75.984375 
L 37.109375 68.5 
L 28.515625 68.5 
Q 23.6875 68.5 21.796875 66.546875 
Q 19.921875 64.59375 19.921875 59.515625 
L 19.921875 54.6875 
L 34.71875 54.6875 
L 34.71875 47.703125 
L 19.921875 47.703125 
L 19.921875 0 
L 10.890625 0 
L 10.890625 47.703125 
L 2.296875 47.703125 
L 2.296875 54.6875 
L 10.890625 54.6875 
L 10.890625 58.5 
Q 10.890625 67.625 15.140625 71.796875 
Q 19.390625 75.984375 28.609375 75.984375 
z
" id="DejaVuSans-102"/>
       <path d="M 4.890625 31.390625 
L 31.203125 31.390625 
L 31.203125 23.390625 
L 4.890625 23.390625 
z
" id="DejaVuSans-45"/>
       <path d="M 56.203125 29.59375 
L 56.203125 25.203125 
L 14.890625 25.203125 
Q 15.484375 15.921875 20.484375 11.0625 
Q 25.484375 6.203125 34.421875 6.203125 
Q 39.59375 6.203125 44.453125 7.46875 
Q 49.3125 8.734375 54.109375 11.28125 
L 54.109375 2.78125 
Q 49.265625 0.734375 44.1875 -0.34375 
Q 39.109375 -1.421875 33.890625 -1.421875 
Q 20.796875 -1.421875 13.15625 6.1875 
Q 5.515625 13.8125 5.515625 26.8125 
Q 5.515625 40.234375 12.765625 48.109375 
Q 20.015625 56 32.328125 56 
Q 43.359375 56 49.78125 48.890625 
Q 56.203125 41.796875 56.203125 29.59375 
z
M 47.21875 32.234375 
Q 47.125 39.59375 43.09375 43.984375 
Q 39.0625 48.390625 32.421875 48.390625 
Q 24.90625 48.390625 20.390625 44.140625 
Q 15.875 39.890625 15.1875 32.171875 
z
" id="DejaVuSans-101"/>
       <path d="M 2.984375 54.6875 
L 12.5 54.6875 
L 29.59375 8.796875 
L 46.6875 54.6875 
L 56.203125 54.6875 
L 35.6875 0 
L 23.484375 0 
z
" id="DejaVuSans-118"/>
       <path d="M 34.28125 27.484375 
Q 23.390625 27.484375 19.1875 25 
Q 14.984375 22.515625 14.984375 16.5 
Q 14.984375 11.71875 18.140625 8.90625 
Q 21.296875 6.109375 26.703125 6.109375 
Q 34.1875 6.109375 38.703125 11.40625 
Q 43.21875 16.703125 43.21875 25.484375 
L 43.21875 27.484375 
z
M 52.203125 31.203125 
L 52.203125 0 
L 43.21875 0 
L 43.21875 8.296875 
Q 40.140625 3.328125 35.546875 0.953125 
Q 30.953125 -1.421875 24.3125 -1.421875 
Q 15.921875 -1.421875 10.953125 3.296875 
Q 6 8.015625 6 15.921875 
Q 6 25.140625 12.171875 29.828125 
Q 18.359375 34.515625 30.609375 34.515625 
L 43.21875 34.515625 
L 43.21875 35.40625 
Q 43.21875 41.609375 39.140625 45 
Q 35.0625 48.390625 27.6875 48.390625 
Q 23 48.390625 18.546875 47.265625 
Q 14.109375 46.140625 10.015625 43.890625 
L 10.015625 52.203125 
Q 14.9375 54.109375 19.578125 55.046875 
Q 24.21875 56 28.609375 56 
Q 40.484375 56 46.34375 49.84375 
Q 52.203125 43.703125 52.203125 31.203125 
z
" id="DejaVuSans-97"/>
       <path d="M 44.28125 53.078125 
L 44.28125 44.578125 
Q 40.484375 46.53125 36.375 47.5 
Q 32.28125 48.484375 27.875 48.484375 
Q 21.1875 48.484375 17.84375 46.4375 
Q 14.5 44.390625 14.5 40.28125 
Q 14.5 37.15625 16.890625 35.375 
Q 19.28125 33.59375 26.515625 31.984375 
L 29.59375 31.296875 
Q 39.15625 29.25 43.1875 25.515625 
Q 47.21875 21.78125 47.21875 15.09375 
Q 47.21875 7.46875 41.1875 3.015625 
Q 35.15625 -1.421875 24.609375 -1.421875 
Q 20.21875 -1.421875 15.453125 -0.5625 
Q 10.6875 0.296875 5.421875 2 
L 5.421875 11.28125 
Q 10.40625 8.6875 15.234375 7.390625 
Q 20.0625 6.109375 24.8125 6.109375 
Q 31.15625 6.109375 34.5625 8.28125 
Q 37.984375 10.453125 37.984375 14.40625 
Q 37.984375 18.0625 35.515625 20.015625 
Q 33.0625 21.96875 24.703125 23.78125 
L 21.578125 24.515625 
Q 13.234375 26.265625 9.515625 29.90625 
Q 5.8125 33.546875 5.8125 39.890625 
Q 5.8125 47.609375 11.28125 51.796875 
Q 16.75 56 26.8125 56 
Q 31.78125 56 36.171875 55.265625 
Q 40.578125 54.546875 44.28125 53.078125 
z
" id="DejaVuSans-115"/>
       <path d="M 25.390625 72.90625 
L 33.6875 72.90625 
L 8.296875 -9.28125 
L 0 -9.28125 
z
" id="DejaVuSans-47"/>
       <path d="M 45.40625 46.390625 
L 45.40625 75.984375 
L 54.390625 75.984375 
L 54.390625 0 
L 45.40625 0 
L 45.40625 8.203125 
Q 42.578125 3.328125 38.25 0.953125 
Q 33.9375 -1.421875 27.875 -1.421875 
Q 17.96875 -1.421875 11.734375 6.484375 
Q 5.515625 14.40625 5.515625 27.296875 
Q 5.515625 40.1875 11.734375 48.09375 
Q 17.96875 56 27.875 56 
Q 33.9375 56 38.25 53.625 
Q 42.578125 51.265625 45.40625 46.390625 
z
M 14.796875 27.296875 
Q 14.796875 17.390625 18.875 11.75 
Q 22.953125 6.109375 30.078125 6.109375 
Q 37.203125 6.109375 41.296875 11.75 
Q 45.40625 17.390625 45.40625 27.296875 
Q 45.40625 37.203125 41.296875 42.84375 
Q 37.203125 48.484375 30.078125 48.484375 
Q 22.953125 48.484375 18.875 42.84375 
Q 14.796875 37.203125 14.796875 27.296875 
z
" id="DejaVuSans-100"/>
       <path d="M 9.421875 54.6875 
L 18.40625 54.6875 
L 18.40625 0 
L 9.421875 0 
z
M 9.421875 75.984375 
L 18.40625 75.984375 
L 18.40625 64.59375 
L 9.421875 64.59375 
z
" id="DejaVuSans-105"/>
       <path d="M 52 44.1875 
Q 55.375 50.25 60.0625 53.125 
Q 64.75 56 71.09375 56 
Q 79.640625 56 84.28125 50.015625 
Q 88.921875 44.046875 88.921875 33.015625 
L 88.921875 0 
L 79.890625 0 
L 79.890625 32.71875 
Q 79.890625 40.578125 77.09375 44.375 
Q 74.3125 48.1875 68.609375 48.1875 
Q 61.625 48.1875 57.5625 43.546875 
Q 53.515625 38.921875 53.515625 30.90625 
L 53.515625 0 
L 44.484375 0 
L 44.484375 32.71875 
Q 44.484375 40.625 41.703125 44.40625 
Q 38.921875 48.1875 33.109375 48.1875 
Q 26.21875 48.1875 22.15625 43.53125 
Q 18.109375 38.875 18.109375 30.90625 
L 18.109375 0 
L 9.078125 0 
L 9.078125 54.6875 
L 18.109375 54.6875 
L 18.109375 46.1875 
Q 21.1875 51.21875 25.484375 53.609375 
Q 29.78125 56 35.6875 56 
Q 41.65625 56 45.828125 52.96875 
Q 50 49.953125 52 44.1875 
z
" id="DejaVuSans-109"/>
       <path d="M 54.890625 33.015625 
L 54.890625 0 
L 45.90625 0 
L 45.90625 32.71875 
Q 45.90625 40.484375 42.875 44.328125 
Q 39.84375 48.1875 33.796875 48.1875 
Q 26.515625 48.1875 22.3125 43.546875 
Q 18.109375 38.921875 18.109375 30.90625 
L 18.109375 0 
L 9.078125 0 
L 9.078125 54.6875 
L 18.109375 54.6875 
L 18.109375 46.1875 
Q 21.34375 51.125 25.703125 53.5625 
Q 30.078125 56 35.796875 56 
Q 45.21875 56 50.046875 50.171875 
Q 54.890625 44.34375 54.890625 33.015625 
z
" id="DejaVuSans-110"/>
       <path d="M 8.015625 75.875 
L 15.828125 75.875 
Q 23.140625 64.359375 26.78125 53.3125 
Q 30.421875 42.28125 30.421875 31.390625 
Q 30.421875 20.453125 26.78125 9.375 
Q 23.140625 -1.703125 15.828125 -13.1875 
L 8.015625 -13.1875 
Q 14.5 -2 17.703125 9.0625 
Q 20.90625 20.125 20.90625 31.390625 
Q 20.90625 42.671875 17.703125 53.65625 
Q 14.5 64.65625 8.015625 75.875 
z
" id="DejaVuSans-41"/>
      </defs>
      <use xlink:href="#DejaVuSans-108"/>
      <use x="27.783203" xlink:href="#DejaVuSans-111"/>
      <use x="88.964844" xlink:href="#DejaVuSans-103"/>
      <use x="152.441406" xlink:href="#DejaVuSans-49"/>
      <use x="216.064453" xlink:href="#DejaVuSans-48"/>
      <use x="279.6875" xlink:href="#DejaVuSans-40"/>
      <use x="318.701172" xlink:href="#DejaVuSans-35"/>
      <use x="402.490234" xlink:href="#DejaVuSans-32"/>
      <use x="434.277344" xlink:href="#DejaVuSans-102"/>
      <use x="463.982422" xlink:href="#DejaVuSans-45"/>
      <use x="500.066406" xlink:href="#DejaVuSans-101"/>
      <use x="561.589844" xlink:href="#DejaVuSans-118"/>
      <use x="620.769531" xlink:href="#DejaVuSans-97"/>
      <use x="682.048828" xlink:href="#DejaVuSans-108"/>
      <use x="709.832031" xlink:href="#DejaVuSans-115"/>
      <use x="761.931641" xlink:href="#DejaVuSans-32"/>
      <use x="793.71875" xlink:href="#DejaVuSans-47"/>
      <use x="827.410156" xlink:href="#DejaVuSans-32"/>
      <use x="859.197266" xlink:href="#DejaVuSans-100"/>
      <use x="922.673828" xlink:href="#DejaVuSans-105"/>
      <use x="950.457031" xlink:href="#DejaVuSans-109"/>
      <use x="1047.869141" xlink:href="#DejaVuSans-101"/>
      <use x="1109.392578" xlink:href="#DejaVuSans-110"/>
      <use x="1172.771484" xlink:href="#DejaVuSans-115"/>
      <use x="1224.871094" xlink:href="#DejaVuSans-105"/>
      <use x="1252.654297" xlink:href="#DejaVuSans-111"/>
      <use x="1313.835938" xlink:href="#DejaVuSans-110"/>
      <use x="1377.214844" xlink:href="#DejaVuSans-41"/>
     </g>
    </g>
   </g>
   <g id="matplotlib.axis_2">
    <g id="ytick_1">
     <g id="line2d_21">
      <path clip-path="url(#pafaf26e015)" d="M 57.6 298.944 
L 338.688 298.944 
" style="fill:none;stroke:#b0b0b0;stroke-linecap:square;stroke-width:0.8;"/>
     </g>
     <g id="line2d_22">
      <defs>
       <path d="M 0 0 
L -3.5 0 
" id="m5c2be4d453" style="stroke:#000000;stroke-width:0.8;"/>
      </defs>
      <g>
       <use style="stroke:#000000;stroke-width:0.8;" x="57.6" xlink:href="#m5c2be4d453" y="298.944"/>
      </g>
     </g>
     <g id="text_6">
      <!-- 0.0 -->
      <g transform="translate(25.155 305.02275)scale(0.16 -0.16)">
       <defs>
        <path d="M 10.6875 12.40625 
L 21 12.40625 
L 21 0 
L 10.6875 0 
z
" id="DejaVuSans-46"/>
       </defs>
       <use xlink:href="#DejaVuSans-48"/>
       <use x="63.623047" xlink:href="#DejaVuSans-46"/>
       <use x="95.410156" xlink:href="#DejaVuSans-48"/>
      </g>
     </g>
    </g>
    <g id="ytick_2">
     <g id="line2d_23">
      <path clip-path="url(#pafaf26e015)" d="M 57.6 245.22202 
L 338.688 245.22202 
" style="fill:none;stroke:#b0b0b0;stroke-linecap:square;stroke-width:0.8;"/>
     </g>
     <g id="line2d_24">
      <g>
       <use style="stroke:#000000;stroke-width:0.8;" x="57.6" xlink:href="#m5c2be4d453" y="245.22202"/>
      </g>
     </g>
     <g id="text_7">
      <!-- 0.2 -->
      <g transform="translate(25.155 251.30077)scale(0.16 -0.16)">
       <use xlink:href="#DejaVuSans-48"/>
       <use x="63.623047" xlink:href="#DejaVuSans-46"/>
       <use x="95.410156" xlink:href="#DejaVuSans-50"/>
      </g>
     </g>
    </g>
    <g id="ytick_3">
     <g id="line2d_25">
      <path clip-path="url(#pafaf26e015)" d="M 57.6 191.50004 
L 338.688 191.50004 
" style="fill:none;stroke:#b0b0b0;stroke-linecap:square;stroke-width:0.8;"/>
     </g>
     <g id="line2d_26">
      <g>
       <use style="stroke:#000000;stroke-width:0.8;" x="57.6" xlink:href="#m5c2be4d453" y="191.50004"/>
      </g>
     </g>
     <g id="text_8">
      <!-- 0.4 -->
      <g transform="translate(25.155 197.57879)scale(0.16 -0.16)">
       <use xlink:href="#DejaVuSans-48"/>
       <use x="63.623047" xlink:href="#DejaVuSans-46"/>
       <use x="95.410156" xlink:href="#DejaVuSans-52"/>
      </g>
     </g>
    </g>
    <g id="ytick_4">
     <g id="line2d_27">
      <path clip-path="url(#pafaf26e015)" d="M 57.6 137.778059 
L 338.688 137.778059 
" style="fill:none;stroke:#b0b0b0;stroke-linecap:square;stroke-width:0.8;"/>
     </g>
     <g id="line2d_28">
      <g>
       <use style="stroke:#000000;stroke-width:0.8;" x="57.6" xlink:href="#m5c2be4d453" y="137.778059"/>
      </g>
     </g>
     <g id="text_9">
      <!-- 0.6 -->
      <g transform="translate(25.155 143.856809)scale(0.16 -0.16)">
       <use xlink:href="#DejaVuSans-48"/>
       <use x="63.623047" xlink:href="#DejaVuSans-46"/>
       <use x="95.410156" xlink:href="#DejaVuSans-54"/>
      </g>
     </g>
    </g>
    <g id="ytick_5">
     <g id="line2d_29">
      <path clip-path="url(#pafaf26e015)" d="M 57.6 84.056079 
L 338.688 84.056079 
" style="fill:none;stroke:#b0b0b0;stroke-linecap:square;stroke-width:0.8;"/>
     </g>
     <g id="line2d_30">
      <g>
       <use style="stroke:#000000;stroke-width:0.8;" x="57.6" xlink:href="#m5c2be4d453" y="84.056079"/>
      </g>
     </g>
     <g id="text_10">
      <!-- 0.8 -->
      <g transform="translate(25.155 90.134829)scale(0.16 -0.16)">
       <defs>
        <path d="M 31.78125 34.625 
Q 24.75 34.625 20.71875 30.859375 
Q 16.703125 27.09375 16.703125 20.515625 
Q 16.703125 13.921875 20.71875 10.15625 
Q 24.75 6.390625 31.78125 6.390625 
Q 38.8125 6.390625 42.859375 10.171875 
Q 46.921875 13.96875 46.921875 20.515625 
Q 46.921875 27.09375 42.890625 30.859375 
Q 38.875 34.625 31.78125 34.625 
z
M 21.921875 38.8125 
Q 15.578125 40.375 12.03125 44.71875 
Q 8.5 49.078125 8.5 55.328125 
Q 8.5 64.0625 14.71875 69.140625 
Q 20.953125 74.21875 31.78125 74.21875 
Q 42.671875 74.21875 48.875 69.140625 
Q 55.078125 64.0625 55.078125 55.328125 
Q 55.078125 49.078125 51.53125 44.71875 
Q 48 40.375 41.703125 38.8125 
Q 48.828125 37.15625 52.796875 32.3125 
Q 56.78125 27.484375 56.78125 20.515625 
Q 56.78125 9.90625 50.3125 4.234375 
Q 43.84375 -1.421875 31.78125 -1.421875 
Q 19.734375 -1.421875 13.25 4.234375 
Q 6.78125 9.90625 6.78125 20.515625 
Q 6.78125 27.484375 10.78125 32.3125 
Q 14.796875 37.15625 21.921875 38.8125 
z
M 18.3125 54.390625 
Q 18.3125 48.734375 21.84375 45.5625 
Q 25.390625 42.390625 31.78125 42.390625 
Q 38.140625 42.390625 41.71875 45.5625 
Q 45.3125 48.734375 45.3125 54.390625 
Q 45.3125 60.0625 41.71875 63.234375 
Q 38.140625 66.40625 31.78125 66.40625 
Q 25.390625 66.40625 21.84375 63.234375 
Q 18.3125 60.0625 18.3125 54.390625 
z
" id="DejaVuSans-56"/>
       </defs>
       <use xlink:href="#DejaVuSans-48"/>
       <use x="63.623047" xlink:href="#DejaVuSans-46"/>
       <use x="95.410156" xlink:href="#DejaVuSans-56"/>
      </g>
     </g>
    </g>
    <g id="ytick_6">
     <g id="line2d_31">
      <path clip-path="url(#pafaf26e015)" d="M 57.6 30.334099 
L 338.688 30.334099 
" style="fill:none;stroke:#b0b0b0;stroke-linecap:square;stroke-width:0.8;"/>
     </g>
     <g id="line2d_32">
      <g>
       <use style="stroke:#000000;stroke-width:0.8;" x="57.6" xlink:href="#m5c2be4d453" y="30.334099"/>
      </g>
     </g>
     <g id="text_11">
      <!-- 1.0 -->
      <g transform="translate(25.155 36.412849)scale(0.16 -0.16)">
       <use xlink:href="#DejaVuSans-49"/>
       <use x="63.623047" xlink:href="#DejaVuSans-46"/>
       <use x="95.410156" xlink:href="#DejaVuSans-48"/>
      </g>
     </g>
    </g>
    <g id="text_12">
     <!-- Fraction of function,target pairs -->
     <g transform="translate(17.619531 297.681)rotate(-90)scale(0.17 -0.17)">
      <defs>
       <path d="M 9.8125 72.90625 
L 51.703125 72.90625 
L 51.703125 64.59375 
L 19.671875 64.59375 
L 19.671875 43.109375 
L 48.578125 43.109375 
L 48.578125 34.8125 
L 19.671875 34.8125 
L 19.671875 0 
L 9.8125 0 
z
" id="DejaVuSans-70"/>
       <path d="M 41.109375 46.296875 
Q 39.59375 47.171875 37.8125 47.578125 
Q 36.03125 48 33.890625 48 
Q 26.265625 48 22.1875 43.046875 
Q 18.109375 38.09375 18.109375 28.8125 
L 18.109375 0 
L 9.078125 0 
L 9.078125 54.6875 
L 18.109375 54.6875 
L 18.109375 46.1875 
Q 20.953125 51.171875 25.484375 53.578125 
Q 30.03125 56 36.53125 56 
Q 37.453125 56 38.578125 55.875 
Q 39.703125 55.765625 41.0625 55.515625 
z
" id="DejaVuSans-114"/>
       <path d="M 48.78125 52.59375 
L 48.78125 44.1875 
Q 44.96875 46.296875 41.140625 47.34375 
Q 37.3125 48.390625 33.40625 48.390625 
Q 24.65625 48.390625 19.8125 42.84375 
Q 14.984375 37.3125 14.984375 27.296875 
Q 14.984375 17.28125 19.8125 11.734375 
Q 24.65625 6.203125 33.40625 6.203125 
Q 37.3125 6.203125 41.140625 7.25 
Q 44.96875 8.296875 48.78125 10.40625 
L 48.78125 2.09375 
Q 45.015625 0.34375 40.984375 -0.53125 
Q 36.96875 -1.421875 32.421875 -1.421875 
Q 20.0625 -1.421875 12.78125 6.34375 
Q 5.515625 14.109375 5.515625 27.296875 
Q 5.515625 40.671875 12.859375 48.328125 
Q 20.21875 56 33.015625 56 
Q 37.15625 56 41.109375 55.140625 
Q 45.0625 54.296875 48.78125 52.59375 
z
" id="DejaVuSans-99"/>
       <path d="M 18.3125 70.21875 
L 18.3125 54.6875 
L 36.8125 54.6875 
L 36.8125 47.703125 
L 18.3125 47.703125 
L 18.3125 18.015625 
Q 18.3125 11.328125 20.140625 9.421875 
Q 21.96875 7.515625 27.59375 7.515625 
L 36.8125 7.515625 
L 36.8125 0 
L 27.59375 0 
Q 17.1875 0 13.234375 3.875 
Q 9.28125 7.765625 9.28125 18.015625 
L 9.28125 47.703125 
L 2.6875 47.703125 
L 2.6875 54.6875 
L 9.28125 54.6875 
L 9.28125 70.21875 
z
" id="DejaVuSans-116"/>
       <path d="M 8.5 21.578125 
L 8.5 54.6875 
L 17.484375 54.6875 
L 17.484375 21.921875 
Q 17.484375 14.15625 20.5 10.265625 
Q 23.53125 6.390625 29.59375 6.390625 
Q 36.859375 6.390625 41.078125 11.03125 
Q 45.3125 15.671875 45.3125 23.6875 
L 45.3125 54.6875 
L 54.296875 54.6875 
L 54.296875 0 
L 45.3125 0 
L 45.3125 8.40625 
Q 42.046875 3.421875 37.71875 1 
Q 33.40625 -1.421875 27.6875 -1.421875 
Q 18.265625 -1.421875 13.375 4.4375 
Q 8.5 10.296875 8.5 21.578125 
z
M 31.109375 56 
z
" id="DejaVuSans-117"/>
       <path d="M 11.71875 12.40625 
L 22.015625 12.40625 
L 22.015625 4 
L 14.015625 -11.625 
L 7.71875 -11.625 
L 11.71875 4 
z
" id="DejaVuSans-44"/>
       <path d="M 18.109375 8.203125 
L 18.109375 -20.796875 
L 9.078125 -20.796875 
L 9.078125 54.6875 
L 18.109375 54.6875 
L 18.109375 46.390625 
Q 20.953125 51.265625 25.265625 53.625 
Q 29.59375 56 35.59375 56 
Q 45.5625 56 51.78125 48.09375 
Q 58.015625 40.1875 58.015625 27.296875 
Q 58.015625 14.40625 51.78125 6.484375 
Q 45.5625 -1.421875 35.59375 -1.421875 
Q 29.59375 -1.421875 25.265625 0.953125 
Q 20.953125 3.328125 18.109375 8.203125 
z
M 48.6875 27.296875 
Q 48.6875 37.203125 44.609375 42.84375 
Q 40.53125 48.484375 33.40625 48.484375 
Q 26.265625 48.484375 22.1875 42.84375 
Q 18.109375 37.203125 18.109375 27.296875 
Q 18.109375 17.390625 22.1875 11.75 
Q 26.265625 6.109375 33.40625 6.109375 
Q 40.53125 6.109375 44.609375 11.75 
Q 48.6875 17.390625 48.6875 27.296875 
z
" id="DejaVuSans-112"/>
      </defs>
      <use xlink:href="#DejaVuSans-70"/>
      <use x="50.269531" xlink:href="#DejaVuSans-114"/>
      <use x="91.382812" xlink:href="#DejaVuSans-97"/>
      <use x="152.662109" xlink:href="#DejaVuSans-99"/>
      <use x="207.642578" xlink:href="#DejaVuSans-116"/>
      <use x="246.851562" xlink:href="#DejaVuSans-105"/>
      <use x="274.634766" xlink:href="#DejaVuSans-111"/>
      <use x="335.816406" xlink:href="#DejaVuSans-110"/>
      <use x="399.195312" xlink:href="#DejaVuSans-32"/>
      <use x="430.982422" xlink:href="#DejaVuSans-111"/>
      <use x="492.164062" xlink:href="#DejaVuSans-102"/>
      <use x="527.369141" xlink:href="#DejaVuSans-32"/>
      <use x="559.15625" xlink:href="#DejaVuSans-102"/>
      <use x="594.361328" xlink:href="#DejaVuSans-117"/>
      <use x="657.740234" xlink:href="#DejaVuSans-110"/>
      <use x="721.119141" xlink:href="#DejaVuSans-99"/>
      <use x="776.099609" xlink:href="#DejaVuSans-116"/>
      <use x="815.308594" xlink:href="#DejaVuSans-105"/>
      <use x="843.091797" xlink:href="#DejaVuSans-111"/>
      <use x="904.273438" xlink:href="#DejaVuSans-110"/>
      <use x="967.652344" xlink:href="#DejaVuSans-44"/>
      <use x="999.439453" xlink:href="#DejaVuSans-116"/>
      <use x="1038.648438" xlink:href="#DejaVuSans-97"/>
      <use x="1099.927734" xlink:href="#DejaVuSans-114"/>
      <use x="1139.291016" xlink:href="#DejaVuSans-103"/>
      <use x="1202.767578" xlink:href="#DejaVuSans-101"/>
      <use x="1264.291016" xlink:href="#DejaVuSans-116"/>
      <use x="1303.5" xlink:href="#DejaVuSans-32"/>
      <use x="1335.287109" xlink:href="#DejaVuSans-112"/>
      <use x="1398.763672" xlink:href="#DejaVuSans-97"/>
      <use x="1460.042969" xlink:href="#DejaVuSans-105"/>
      <use x="1487.826172" xlink:href="#DejaVuSans-114"/>
      <use x="1528.939453" xlink:href="#DejaVuSans-115"/>
     </g>
    </g>
   </g>
   <g id="line2d_33">
    <defs>
     <path d="M 0 1.5 
C 0.397805 1.5 0.77937 1.341951 1.06066 1.06066 
C 1.341951 0.77937 1.5 0.397805 1.5 0 
C 1.5 -0.397805 1.341951 -0.77937 1.06066 -1.06066 
C 0.77937 -1.341951 0.397805 -1.5 0 -1.5 
C -0.397805 -1.5 -0.77937 -1.341951 -1.06066 -1.06066 
C -1.341951 -0.77937 -1.5 -0.397805 -1.5 0 
C -1.5 0.397805 -1.341951 0.77937 -1.06066 1.06066 
C -0.77937 1.341951 -0.397805 1.5 0 1.5 
z
" id="m76a850c48e" style="stroke:#f5deb3;"/>
    </defs>
    <g>
     <use style="fill:#f5deb3;stroke:#f5deb3;" x="235.655123" xlink:href="#m76a850c48e" y="62.752535"/>
     <use style="fill:#f5deb3;stroke:#f5deb3;" x="235.655123" xlink:href="#m76a850c48e" y="62.752535"/>
    </g>
   </g>
   <g id="line2d_34">
    <defs>
     <path d="M 0 1.5 
C 0.397805 1.5 0.77937 1.341951 1.06066 1.06066 
C 1.341951 0.77937 1.5 0.397805 1.5 0 
C 1.5 -0.397805 1.341951 -0.77937 1.06066 -1.06066 
C 0.77937 -1.341951 0.397805 -1.5 0 -1.5 
C -0.397805 -1.5 -0.77937 -1.341951 -1.06066 -1.06066 
C -1.341951 -0.77937 -1.5 -0.397805 -1.5 0 
C -1.5 0.397805 -1.341951 0.77937 -1.06066 1.06066 
C -0.77937 1.341951 -0.397805 1.5 0 1.5 
z
" id="m817145d5e2" style="stroke:#000080;"/>
    </defs>
    <g>
     <use style="fill:#000080;stroke:#000080;" x="257.779128" xlink:href="#m817145d5e2" y="80.351115"/>
     <use style="fill:#000080;stroke:#000080;" x="257.779128" xlink:href="#m817145d5e2" y="80.351115"/>
    </g>
   </g>
   <g id="line2d_35">
    <path d="M 38.440992 298.944 
L 38.440992 279.492938 
L 50.52898 279.492938 
L 50.52898 278.566697 
L 57.6 278.566697 
L 57.6 276.714215 
L 69.687988 276.714215 
L 69.687988 275.324854 
L 72.376266 275.324854 
L 72.376266 273.009251 
L 74.704957 273.009251 
L 74.704957 272.08301 
L 78.59642 272.08301 
L 78.59642 271.156769 
L 80.258561 271.156769 
L 80.258561 268.841166 
L 81.775977 268.841166 
L 81.775977 265.599323 
L 83.171864 265.599323 
L 83.171864 265.136202 
L 84.464254 265.136202 
L 84.464254 262.8206 
L 85.66744 262.8206 
L 85.66744 262.357479 
L 86.792945 262.357479 
L 86.792945 260.504997 
L 87.850195 260.504997 
L 87.850195 259.578756 
L 88.846997 259.578756 
L 88.846997 259.115635 
L 89.78989 259.115635 
L 89.78989 258.652515 
L 90.684409 258.652515 
L 90.684409 258.189394 
L 91.535274 258.189394 
L 91.535274 256.336912 
L 93.863965 256.336912 
L 93.863965 255.873792 
L 98.32726 255.873792 
L 98.32726 254.48443 
L 98.880934 254.48443 
L 98.880934 253.095069 
L 103.203018 253.095069 
L 103.203018 252.631948 
L 103.623262 252.631948 
L 103.623262 252.168828 
L 104.434538 252.168828 
L 104.434538 251.705707 
L 107.009204 251.705707 
L 107.009204 249.390104 
L 109.550313 249.390104 
L 109.550313 248.463863 
L 110.131676 248.463863 
L 110.131676 247.537622 
L 111.767808 247.537622 
L 111.767808 246.611381 
L 112.280765 246.611381 
L 112.280765 246.148261 
L 112.531694 246.148261 
L 112.531694 245.68514 
L 115.917635 245.68514 
L 115.917635 243.832658 
L 116.522527 243.832658 
L 116.522527 241.053935 
L 118.220662 241.053935 
L 118.220662 240.590815 
L 120.728219 240.590815 
L 120.728219 240.127694 
L 121.340187 240.127694 
L 121.340187 239.201453 
L 121.489881 239.201453 
L 121.489881 238.275212 
L 122.643312 238.275212 
L 122.643312 237.348971 
L 126.948374 237.348971 
L 126.948374 236.42273 
L 127.48501 236.42273 
L 127.48501 235.959609 
L 127.799239 235.959609 
L 127.799239 235.033368 
L 129.195127 235.033368 
L 129.195127 234.570248 
L 131.185181 234.570248 
L 131.185181 233.644007 
L 131.355321 233.644007 
L 131.355321 232.717766 
L 132.581068 232.717766 
L 132.581068 231.791525 
L 133.352844 231.791525 
L 133.352844 231.328404 
L 133.800029 231.328404 
L 133.800029 230.865284 
L 136.519813 230.865284 
L 136.519813 229.939043 
L 137.016339 229.939043 
L 137.016339 229.012802 
L 139.306744 229.012802 
L 139.306744 228.086561 
L 139.572998 228.086561 
L 139.572998 227.62344 
L 140.348205 227.62344 
L 140.348205 227.16032 
L 140.549236 227.16032 
L 140.549236 226.234079 
L 143.820164 226.234079 
L 143.820164 223.918476 
L 147.198794 223.918476 
L 147.198794 223.455355 
L 147.933891 223.455355 
L 147.933891 218.82415 
L 148.322166 218.82415 
L 148.322166 217.897909 
L 148.48143 217.897909 
L 148.48143 217.434789 
L 149.616841 217.434789 
L 149.616841 216.971668 
L 152.283884 216.971668 
L 152.283884 216.045427 
L 153.913546 216.045427 
L 153.913546 211.877342 
L 155.510121 211.877342 
L 155.510121 211.414222 
L 157.185742 211.414222 
L 157.243392 210.02486 
L 157.377174 210.02486 
L 157.377174 209.56174 
L 158.285965 209.56174 
L 158.285965 209.098619 
L 159.063529 209.098619 
L 159.132527 207.246137 
L 159.473482 207.246137 
L 159.473482 206.783017 
L 159.6749 206.783017 
L 159.6749 205.856776 
L 160.930298 205.856776 
L 160.930298 205.393655 
L 161.88218 205.393655 
L 161.88218 204.930535 
L 162.389382 204.930535 
L 162.389382 204.004294 
L 163.919885 204.004294 
L 163.919885 203.541173 
L 167.40635 203.541173 
L 167.40635 202.614932 
L 167.608702 202.614932 
L 167.608702 201.688691 
L 168.646632 201.688691 
L 168.646632 201.225571 
L 168.992367 201.225571 
L 168.992367 200.299329 
L 169.331381 200.299329 
L 169.331381 199.373088 
L 170.491026 199.373088 
L 170.491026 198.446847 
L 171.125572 198.446847 
L 171.125572 197.983727 
L 171.721118 197.983727 
L 171.721118 197.520606 
L 172.142557 197.520606 
L 172.142557 196.594365 
L 172.815229 196.594365 
L 172.815229 196.131245 
L 173.01052 196.131245 
L 173.072554 194.741883 
L 173.673575 194.741883 
L 173.673575 194.278763 
L 174.949398 194.278763 
L 174.949398 193.815642 
L 175.225232 193.815642 
L 175.225232 193.352522 
L 175.922628 193.352522 
L 175.922628 192.426281 
L 176.542527 192.426281 
L 176.542527 191.96316 
L 176.962469 191.96316 
L 176.962469 191.50004 
L 177.092038 191.50004 
L 177.092038 191.036919 
L 178.331659 191.036919 
L 178.331659 190.573799 
L 178.462846 190.573799 
L 178.462846 190.110678 
L 178.78935 190.110678 
L 178.78935 189.647558 
L 179.397663 189.647558 
L 179.397663 189.184437 
L 181.001933 189.184437 
L 181.001933 188.721316 
L 181.737795 188.721316 
L 181.737795 188.258196 
L 182.174963 188.258196 
L 182.174963 187.795075 
L 184.82843 187.795075 
L 184.82843 186.405714 
L 185.264727 186.405714 
L 185.280109 185.016352 
L 185.877092 185.016352 
L 185.877092 184.553232 
L 186.540346 184.553232 
L 186.63307 183.626991 
L 187.378095 183.626991 
L 187.378095 182.70075 
L 188.099133 182.70075 
L 188.099133 182.237629 
L 188.313633 182.237629 
L 188.358796 180.848268 
L 189.115362 180.848268 
L 189.115362 180.385147 
L 189.238326 180.385147 
L 189.238326 179.922027 
L 189.511865 179.922027 
L 189.511865 178.995786 
L 190.491067 178.995786 
L 190.491067 178.069545 
L 191.520624 178.069545 
L 191.531371 176.680183 
L 191.699764 176.680183 
L 191.766139 175.290821 
L 192.390803 175.290821 
L 192.390803 174.827701 
L 193.326563 174.827701 
L 193.326563 174.36458 
L 194.066652 174.36458 
L 194.117671 170.659616 
L 194.379679 170.659616 
L 194.379679 170.196496 
L 194.583782 170.196496 
L 194.583782 169.733375 
L 194.960706 169.733375 
L 194.960706 169.270255 
L 195.426593 169.270255 
L 195.426593 168.807134 
L 196.015879 168.807134 
L 196.015879 168.344014 
L 196.312409 168.344014 
L 196.312409 167.880893 
L 197.186497 167.880893 
L 197.186497 166.954652 
L 197.33732 166.954652 
L 197.33732 166.491532 
L 197.746421 166.491532 
L 197.746421 166.028411 
L 198.215851 166.028411 
L 198.215851 165.565291 
L 198.737058 165.565291 
L 198.737058 165.10217 
L 198.919114 165.10217 
L 198.919114 164.63905 
L 200.021196 164.63905 
L 200.113389 161.860326 
L 200.183851 161.860326 
L 200.283322 160.934085 
L 201.22031 160.934085 
L 201.22031 159.544724 
L 201.717068 159.544724 
L 201.717068 159.081603 
L 202.374012 159.081603 
L 202.374012 158.618483 
L 202.798616 158.618483 
L 202.798616 157.692242 
L 203.298145 157.692242 
L 203.352775 156.30288 
L 203.891187 156.30288 
L 203.953218 154.913519 
L 204.131479 154.913519 
L 204.131479 154.450398 
L 204.38008 154.450398 
L 204.38008 153.524157 
L 205.034863 153.524157 
L 205.102833 152.597916 
L 205.556934 152.597916 
L 205.620508 151.208554 
L 205.874875 151.208554 
L 205.874875 150.745434 
L 206.00888 150.745434 
L 206.00888 150.282313 
L 206.228801 150.282313 
L 206.228801 149.819193 
L 206.484768 149.819193 
L 206.585885 147.04047 
L 206.731415 147.04047 
L 206.731415 146.577349 
L 207.377633 146.577349 
L 207.403596 145.187988 
L 207.663248 145.187988 
L 207.74718 144.261747 
L 208.027897 144.261747 
L 208.121511 142.872385 
L 208.151569 142.872385 
L 208.151569 141.946144 
L 208.916417 141.946144 
L 208.916417 141.019903 
L 209.239494 141.019903 
L 209.239494 140.556783 
L 210.050283 140.556783 
L 210.050283 140.093662 
L 210.445145 140.093662 
L 210.467829 139.167421 
L 210.719899 139.167421 
L 210.719899 138.7043 
L 210.856999 138.7043 
L 210.856999 138.24118 
L 211.343204 138.24118 
L 211.343204 137.778059 
L 211.918317 137.778059 
L 211.918317 137.314939 
L 212.161103 137.314939 
L 212.161103 136.851818 
L 212.327353 136.851818 
L 212.384314 134.999336 
L 212.575801 134.999336 
L 212.658371 134.073095 
L 213.323701 134.073095 
L 213.360613 132.683734 
L 213.665965 132.683734 
L 213.730762 131.294372 
L 214.532532 131.294372 
L 214.576291 129.905011 
L 214.713311 129.905011 
L 214.713311 128.97877 
L 214.945626 128.97877 
L 214.945626 128.052529 
L 215.364233 128.052529 
L 215.415518 127.126287 
L 215.662301 127.126287 
L 215.662301 126.663167 
L 215.968595 126.663167 
L 215.968595 126.200046 
L 216.203812 126.200046 
L 216.284549 124.347564 
L 216.72838 124.347564 
L 216.72838 123.884444 
L 217.132136 123.884444 
L 217.132136 123.421323 
L 217.25607 123.421323 
L 217.25607 122.958203 
L 217.469797 122.958203 
L 217.469797 122.495082 
L 217.697718 122.495082 
L 217.697718 122.031962 
L 218.065223 122.031962 
L 218.149483 120.6426 
L 218.275692 120.6426 
L 218.275692 120.17948 
L 218.700475 120.17948 
L 218.700475 119.716359 
L 219.081989 119.716359 
L 219.081989 118.790118 
L 219.262543 118.790118 
L 219.262543 118.326998 
L 219.455876 118.326998 
L 219.455876 117.863877 
L 220.441361 117.863877 
L 220.441361 116.937636 
L 220.82508 116.937636 
L 220.82508 116.474516 
L 221.679045 116.474516 
L 221.679045 116.011395 
L 222.264128 116.011395 
L 222.264128 115.085154 
L 222.657534 115.085154 
L 222.657534 114.622033 
L 222.994134 114.622033 
L 222.994134 114.158913 
L 223.449724 114.158913 
L 223.449724 113.695792 
L 223.616908 113.695792 
L 223.616908 112.769551 
L 223.734261 112.769551 
L 223.734261 111.84331 
L 223.979584 111.84331 
L 223.979584 111.38019 
L 224.237567 111.38019 
L 224.287313 110.453949 
L 224.635643 110.453949 
L 224.635643 109.990828 
L 224.984253 109.990828 
L 224.984253 109.064587 
L 225.10219 109.064587 
L 225.10219 108.138346 
L 225.275674 108.138346 
L 225.275674 107.212105 
L 225.812357 107.212105 
L 225.830403 105.822744 
L 226.11109 105.822744 
L 226.11109 105.359623 
L 226.404064 105.359623 
L 226.405519 103.970262 
L 226.693987 103.970262 
L 226.693987 103.507141 
L 226.822612 103.507141 
L 226.829 102.5809 
L 227.371915 102.5809 
L 227.475148 100.728418 
L 227.529774 100.728418 
L 227.529774 100.265297 
L 229.825796 100.265297 
L 229.825796 99.339056 
L 230.188369 99.339056 
L 230.188369 98.875936 
L 230.669573 98.875936 
L 230.669573 97.949695 
L 230.981942 97.949695 
L 230.981942 97.023454 
L 231.205078 97.023454 
L 231.206183 95.634092 
L 231.680621 95.634092 
L 231.744182 94.244731 
L 232.175691 94.244731 
L 232.175691 93.31849 
L 233.154972 93.31849 
L 233.26278 91.929128 
L 234.284674 91.929128 
L 234.284674 91.002887 
L 236.609171 91.002887 
L 236.609171 90.539766 
L 236.752381 90.539766 
L 236.823548 89.150405 
L 241.262572 89.150405 
L 241.362327 88.224164 
L 242.070858 88.224164 
L 242.070858 87.761043 
L 242.551494 87.761043 
L 242.551494 87.297923 
L 242.882531 87.297923 
L 242.882531 86.371682 
L 243.874016 86.371682 
L 243.874016 85.445441 
L 246.731341 85.445441 
L 246.731341 84.98232 
L 247.600161 84.98232 
L 247.600161 84.5192 
L 249.054393 84.5192 
L 249.054393 84.056079 
L 250.718662 84.056079 
L 250.718662 83.129838 
L 251.12451 83.129838 
L 251.12451 82.666718 
L 251.317368 82.666718 
L 251.317368 82.203597 
L 254.606319 82.203597 
L 254.606319 81.740477 
L 257.01535 81.740477 
L 257.01535 80.814236 
L 257.779128 80.814236 
L 257.779128 80.351115 
L 338.688 80.351115 
L 338.688 80.351115 
" style="fill:none;stroke:#000080;stroke-linecap:square;stroke-width:1.5;"/>
   </g>
   <g id="line2d_36">
    <defs>
     <path d="M 0 6 
C 1.591219 6 3.117479 5.367802 4.242641 4.242641 
C 5.367802 3.117479 6 1.591219 6 0 
C 6 -1.591219 5.367802 -3.117479 4.242641 -4.242641 
C 3.117479 -5.367802 1.591219 -6 0 -6 
C -1.591219 -6 -3.117479 -5.367802 -4.242641 -4.242641 
C -5.367802 -3.117479 -6 -1.591219 -6 0 
C -6 1.591219 -5.367802 3.117479 -4.242641 4.242641 
C -3.117479 5.367802 -1.591219 6 0 6 
z
" id="me7d20f4b0e" style="stroke:#000080;stroke-width:1.5;"/>
    </defs>
    <g>
     <use style="fill-opacity:0;stroke:#000080;stroke-width:1.5;" x="98.880934" xlink:href="#me7d20f4b0e" y="253.095069"/>
     <use style="fill-opacity:0;stroke:#000080;stroke-width:1.5;" x="171.721118" xlink:href="#me7d20f4b0e" y="197.983727"/>
     <use style="fill-opacity:0;stroke:#000080;stroke-width:1.5;" x="225.275674" xlink:href="#me7d20f4b0e" y="108.138346"/>
     <use style="fill-opacity:0;stroke:#000080;stroke-width:1.5;" x="257.779128" xlink:href="#me7d20f4b0e" y="80.814236"/>
     <use style="fill-opacity:0;stroke:#000080;stroke-width:1.5;" x="257.779128" xlink:href="#me7d20f4b0e" y="80.351115"/>
     <use style="fill-opacity:0;stroke:#000080;stroke-width:1.5;" x="338.688" xlink:href="#me7d20f4b0e" y="80.351115"/>
    </g>
   </g>
   <g id="line2d_37">
    <path style="fill:none;stroke:#000080;stroke-linecap:square;stroke-width:1.5;"/>
    <g/>
   </g>
   <g id="line2d_38">
    <path clip-path="url(#pafaf26e015)" d="M 258.377608 80.351115 
" style="fill:none;stroke:#000080;stroke-linecap:square;stroke-width:1.5;"/>
    <defs>
     <path d="M -12 12 
L 12 -12 
M -12 -12 
L 12 12 
" id="m86f10882c2" style="stroke:#000080;"/>
    </defs>
    <g clip-path="url(#pafaf26e015)">
     <use style="fill:#000080;stroke:#000080;" x="258.377608" xlink:href="#m86f10882c2" y="80.351115"/>
    </g>
   </g>
   <g id="line2d_39">
    <defs>
     <path d="M 0 1.5 
C 0.397805 1.5 0.77937 1.341951 1.06066 1.06066 
C 1.341951 0.77937 1.5 0.397805 1.5 0 
C 1.5 -0.397805 1.341951 -0.77937 1.06066 -1.06066 
C 0.77937 -1.341951 0.397805 -1.5 0 -1.5 
C -0.397805 -1.5 -0.77937 -1.341951 -1.06066 -1.06066 
C -1.341951 -0.77937 -1.5 -0.397805 -1.5 0 
C -1.5 0.397805 -1.341951 0.77937 -1.06066 1.06066 
C -0.77937 1.341951 -0.397805 1.5 0 1.5 
z
" id="m376b2fe133" style="stroke:#ff00ff;"/>
    </defs>
    <g>
     <use style="fill:#ff00ff;stroke:#ff00ff;" x="256.002484" xlink:href="#m376b2fe133" y="109.990828"/>
     <use style="fill:#ff00ff;stroke:#ff00ff;" x="256.002484" xlink:href="#m376b2fe133" y="109.990828"/>
    </g>
   </g>
   <g id="line2d_40">
    <path d="M 38.440992 298.944 
L 38.440992 283.197902 
L 137.558536 283.197902 
L 137.558536 282.734782 
L 140.499195 282.734782 
L 140.499195 281.34542 
L 142.486301 281.34542 
L 142.486301 280.8823 
L 144.148442 280.8823 
L 144.148442 280.419179 
L 144.430703 280.419179 
L 144.430703 279.956059 
L 144.708467 279.956059 
L 144.708467 279.492938 
L 144.826168 279.492938 
L 144.826168 277.640456 
L 145.289185 277.640456 
L 145.289185 272.08301 
L 145.851187 272.08301 
L 145.851187 270.230528 
L 146.324022 270.230528 
L 146.324022 269.304287 
L 146.749392 269.304287 
L 146.749392 267.914925 
L 146.992815 267.914925 
L 146.992815 267.451805 
L 147.232888 267.451805 
L 147.232888 266.988684 
L 147.4697 266.988684 
L 147.4697 266.525564 
L 148.129109 266.525564 
L 148.161434 265.136202 
L 148.386046 265.136202 
L 148.386046 264.209961 
L 148.54473 264.209961 
L 148.54473 263.746841 
L 148.670646 263.746841 
L 148.76449 262.357479 
L 148.826773 262.357479 
L 148.826773 261.894358 
L 149.043029 261.894358 
L 149.043029 261.431238 
L 149.31719 261.431238 
L 149.31719 260.968117 
L 149.616841 260.968117 
L 149.616841 260.504997 
L 150.05688 260.504997 
L 150.143571 259.115635 
L 150.201126 259.115635 
L 150.287105 254.947551 
L 150.372662 254.947551 
L 150.372662 254.48443 
L 150.598782 254.48443 
L 150.598782 253.558189 
L 150.932558 253.558189 
L 151.015013 252.168828 
L 151.205907 252.168828 
L 151.205907 251.705707 
L 151.340991 251.705707 
L 151.340991 251.242587 
L 151.554972 251.242587 
L 151.554972 250.316346 
L 151.740076 250.316346 
L 151.740076 249.853225 
L 151.949246 249.853225 
L 151.975216 248.000743 
L 152.181601 248.000743 
L 152.181601 247.537622 
L 152.835965 247.537622 
L 152.835965 247.074502 
L 152.959038 247.074502 
L 153.056874 244.295779 
L 153.105587 244.295779 
L 153.129893 242.906417 
L 153.323128 242.906417 
L 153.371104 241.517056 
L 153.679772 241.517056 
L 153.703291 239.201453 
L 154.121296 239.201453 
L 154.121296 238.738333 
L 154.685723 238.738333 
L 154.752243 236.88585 
L 155.361158 236.88585 
L 155.46769 234.570248 
L 155.488919 234.570248 
L 155.531298 233.180886 
L 155.762564 233.180886 
L 155.86668 231.791525 
L 155.990803 231.791525 
L 156.031982 227.62344 
L 156.175347 227.62344 
L 156.195732 225.770958 
L 156.297301 225.770958 
L 156.297301 224.844717 
L 156.658127 224.844717 
L 156.658127 223.918476 
L 157.224197 223.918476 
L 157.224197 222.992235 
L 157.396202 222.992235 
L 157.453162 220.213512 
L 157.547684 220.213512 
L 157.566527 219.287271 
L 157.735205 219.287271 
L 157.735205 218.82415 
L 157.846757 218.82415 
L 157.846757 217.897909 
L 158.067744 217.897909 
L 158.122556 216.508548 
L 158.195371 216.508548 
L 158.195371 215.119186 
L 158.39406 215.119186 
L 158.39406 214.192945 
L 159.046236 214.192945 
L 159.149734 210.487981 
L 159.388866 210.487981 
L 159.490356 209.56174 
L 159.69158 209.56174 
L 159.724893 207.709258 
L 159.923445 207.709258 
L 159.923445 207.246137 
L 160.087195 207.246137 
L 160.119762 205.856776 
L 160.648508 205.856776 
L 160.680044 204.467414 
L 160.899212 204.467414 
L 160.94582 202.151812 
L 161.161694 202.151812 
L 161.161694 201.688691 
L 161.435376 201.688691 
L 161.450455 200.76245 
L 161.600536 200.76245 
L 161.600536 199.373088 
L 161.778945 199.373088 
L 161.852746 197.983727 
L 162.274744 197.983727 
L 162.274744 197.520606 
L 162.489076 197.520606 
L 162.574077 194.741883 
L 162.700806 194.741883 
L 162.700806 194.278763 
L 162.812686 194.278763 
L 162.812686 193.815642 
L 163.020547 193.815642 
L 163.061823 191.50004 
L 163.415518 191.50004 
L 163.428979 190.573799 
L 163.536298 190.573799 
L 163.576373 189.184437 
L 164.011225 189.184437 
L 164.011225 188.258196 
L 164.140886 188.258196 
L 164.140886 187.795075 
L 164.320806 187.795075 
L 164.320806 187.331955 
L 164.524182 187.331955 
L 164.524182 186.405714 
L 164.812441 186.405714 
L 164.911599 184.090111 
L 164.948638 184.090111 
L 164.973287 182.70075 
L 165.266391 182.70075 
L 165.266391 182.237629 
L 165.55465 182.237629 
L 165.566558 180.848268 
L 165.791279 180.848268 
L 165.803027 179.458906 
L 166.151824 179.458906 
L 166.209284 177.606424 
L 166.277988 177.606424 
L 166.277988 176.680183 
L 166.606293 176.680183 
L 166.606293 176.217062 
L 166.795913 176.217062 
L 166.795913 175.753942 
L 167.08199 175.753942 
L 167.08199 174.827701 
L 167.288118 174.827701 
L 167.288118 174.36458 
L 167.76681 174.36458 
L 167.76681 173.90146 
L 168.293904 173.90146 
L 168.354881 172.975219 
L 168.70639 172.975219 
L 168.70639 172.512098 
L 169.17722 172.512098 
L 169.254471 171.585857 
L 169.379278 171.585857 
L 169.379278 171.122737 
L 169.654516 171.122737 
L 169.654516 170.196496 
L 169.823193 170.196496 
L 169.823193 169.270255 
L 170.256089 169.270255 
L 170.355872 168.344014 
L 170.784729 168.344014 
L 170.784729 167.417773 
L 170.960352 167.417773 
L 170.977818 166.028411 
L 171.160157 166.028411 
L 171.160157 165.10217 
L 171.54458 165.10217 
L 171.54458 164.63905 
L 171.737838 164.63905 
L 171.737838 164.175929 
L 171.920711 164.175929 
L 171.920711 163.712808 
L 172.150719 163.712808 
L 172.150719 163.249688 
L 172.901427 163.249688 
L 172.901427 162.786567 
L 173.188276 162.786567 
L 173.280304 161.860326 
L 173.38706 161.860326 
L 173.38706 160.934085 
L 173.896491 160.934085 
L 173.977519 160.007844 
L 174.569962 160.007844 
L 174.569962 159.544724 
L 176.325491 159.544724 
L 176.325491 159.081603 
L 176.567884 159.081603 
L 176.567884 158.618483 
L 176.744358 158.618483 
L 176.744358 158.155362 
L 176.999587 158.155362 
L 176.999587 157.692242 
L 177.708032 157.692242 
L 177.708032 156.766001 
L 177.92621 156.766001 
L 177.92621 156.30288 
L 178.598693 156.30288 
L 178.609966 155.376639 
L 178.722297 155.376639 
L 178.722297 154.913519 
L 179.311276 154.913519 
L 179.311276 153.987278 
L 179.664896 153.987278 
L 179.664896 153.524157 
L 180.171933 153.524157 
L 180.264422 152.134795 
L 181.901854 152.134795 
L 181.901854 151.671675 
L 185.37594 151.671675 
L 185.37594 151.208554 
L 189.69187 151.208554 
L 189.69187 150.282313 
L 190.07854 150.282313 
L 190.07854 149.819193 
L 191.412791 149.819193 
L 191.412791 149.356072 
L 191.659818 149.356072 
L 191.659818 148.429831 
L 193.60779 148.429831 
L 193.60779 147.50359 
L 194.447979 147.50359 
L 194.447979 147.04047 
L 195.863606 147.04047 
L 195.863606 146.114229 
L 196.373557 146.114229 
L 196.373557 145.651108 
L 198.334443 145.651108 
L 198.334443 145.187988 
L 201.54095 145.187988 
L 201.54095 144.724867 
L 202.684223 144.724867 
L 202.684223 144.261747 
L 202.90527 144.261747 
L 202.90527 143.798626 
L 203.420823 143.798626 
L 203.420823 143.335506 
L 203.911008 143.335506 
L 203.911008 142.872385 
L 205.268554 142.872385 
L 205.268554 141.946144 
L 206.799811 141.946144 
L 206.799811 141.483024 
L 207.313644 141.483024 
L 207.313644 140.556783 
L 208.105944 140.556783 
L 208.105944 139.630541 
L 208.952062 139.630541 
L 208.952062 139.167421 
L 211.016771 139.167421 
L 211.016771 138.7043 
L 211.741361 138.7043 
L 211.741361 138.24118 
L 211.954993 138.24118 
L 211.954993 137.778059 
L 212.161926 137.778059 
L 212.161926 137.314939 
L 212.407047 137.314939 
L 212.407047 136.388698 
L 214.732493 136.388698 
L 214.732493 135.462457 
L 221.882389 135.462457 
L 221.923339 134.073095 
L 222.176309 134.073095 
L 222.211952 132.683734 
L 222.349671 132.683734 
L 222.411954 130.831252 
L 222.469004 130.831252 
L 222.469004 130.368131 
L 223.954495 130.368131 
L 223.954495 129.905011 
L 224.105319 129.905011 
L 224.105319 129.44189 
L 225.522957 129.44189 
L 225.522957 128.97877 
L 228.323749 128.97877 
L 228.323749 128.515649 
L 228.572761 128.515649 
L 228.572761 128.052529 
L 228.703597 128.052529 
L 228.703597 127.589408 
L 232.253604 127.589408 
L 232.253604 126.663167 
L 234.53237 126.663167 
L 234.53237 125.736926 
L 238.158356 125.736926 
L 238.158356 124.810685 
L 238.475137 124.810685 
L 238.475137 124.347564 
L 238.6641 124.347564 
L 238.6641 123.421323 
L 239.927083 123.421323 
L 239.940306 122.495082 
L 240.971671 122.495082 
L 240.971671 122.031962 
L 241.34412 122.031962 
L 241.440954 121.105721 
L 243.898835 121.105721 
L 243.898835 120.6426 
L 244.811898 120.6426 
L 244.811898 120.17948 
L 245.381292 120.17948 
L 245.381292 119.716359 
L 245.58887 119.716359 
L 245.697214 117.400757 
L 245.834747 117.400757 
L 245.834747 116.937636 
L 246.826297 116.937636 
L 246.826297 116.474516 
L 247.280187 116.474516 
L 247.280187 116.011395 
L 247.436554 116.011395 
L 247.436554 115.085154 
L 249.964243 115.085154 
L 249.987487 113.695792 
L 250.369424 113.695792 
L 250.369424 113.232672 
L 254.671217 113.232672 
L 254.671217 112.769551 
L 254.811921 112.769551 
L 254.811921 112.306431 
L 254.987331 112.306431 
L 255.080841 110.917069 
L 256.002484 110.917069 
L 256.002484 109.990828 
L 338.688 109.990828 
L 338.688 109.990828 
" style="fill:none;stroke:#ff00ff;stroke-linecap:square;stroke-width:1.5;"/>
   </g>
   <g id="line2d_41">
    <defs>
     <path d="M 0 8.485281 
L 5.091169 0 
L 0 -8.485281 
L -5.091169 0 
z
" id="m06b55319a0" style="stroke:#ff00ff;stroke-linejoin:miter;stroke-width:1.5;"/>
    </defs>
    <g>
     <use style="fill-opacity:0;stroke:#ff00ff;stroke-linejoin:miter;stroke-width:1.5;" x="149.043029" xlink:href="#m06b55319a0" y="261.894358"/>
     <use style="fill-opacity:0;stroke:#ff00ff;stroke-linejoin:miter;stroke-width:1.5;" x="198.334443" xlink:href="#m06b55319a0" y="145.187988"/>
     <use style="fill-opacity:0;stroke:#ff00ff;stroke-linejoin:miter;stroke-width:1.5;" x="256.002484" xlink:href="#m06b55319a0" y="110.917069"/>
     <use style="fill-opacity:0;stroke:#ff00ff;stroke-linejoin:miter;stroke-width:1.5;" x="256.002484" xlink:href="#m06b55319a0" y="109.990828"/>
     <use style="fill-opacity:0;stroke:#ff00ff;stroke-linejoin:miter;stroke-width:1.5;" x="338.688" xlink:href="#m06b55319a0" y="109.990828"/>
    </g>
   </g>
   <g id="line2d_42">
    <path style="fill:none;stroke:#ff00ff;stroke-linecap:square;stroke-width:1.5;"/>
    <g/>
   </g>
   <g id="line2d_43">
    <path clip-path="url(#pafaf26e015)" d="M 258.384059 109.990828 
" style="fill:none;stroke:#ff00ff;stroke-linecap:square;stroke-width:1.5;"/>
    <defs>
     <path d="M -12 12 
L 12 -12 
M -12 -12 
L 12 12 
" id="md209fa051f" style="stroke:#ff00ff;"/>
    </defs>
    <g clip-path="url(#pafaf26e015)">
     <use style="fill:#ff00ff;stroke:#ff00ff;" x="258.384059" xlink:href="#md209fa051f" y="109.990828"/>
    </g>
   </g>
   <g id="line2d_44">
    <defs>
     <path d="M 0 1.5 
C 0.397805 1.5 0.77937 1.341951 1.06066 1.06066 
C 1.341951 0.77937 1.5 0.397805 1.5 0 
C 1.5 -0.397805 1.341951 -0.77937 1.06066 -1.06066 
C 0.77937 -1.341951 0.397805 -1.5 0 -1.5 
C -0.397805 -1.5 -0.77937 -1.341951 -1.06066 -1.06066 
C -1.341951 -0.77937 -1.5 -0.397805 -1.5 0 
C -1.5 0.397805 -1.341951 0.77937 -1.06066 1.06066 
C -0.77937 1.341951 -0.397805 1.5 0 1.5 
z
" id="m7d5baef87b" style="stroke:#ff7500;"/>
    </defs>
    <g>
     <use style="fill:#ff7500;stroke:#ff7500;" x="202.062588" xlink:href="#m7d5baef87b" y="149.819193"/>
     <use style="fill:#ff7500;stroke:#ff7500;" x="202.062588" xlink:href="#m7d5baef87b" y="149.819193"/>
    </g>
   </g>
   <g id="line2d_45">
    <path d="M 141.941279 298.944 
L 141.941279 298.017759 
L 146.679213 298.017759 
L 146.679213 296.628397 
L 147.4697 296.628397 
L 147.4697 296.165277 
L 147.670154 296.165277 
L 147.670154 295.702156 
L 148.513109 295.702156 
L 148.513109 294.312795 
L 149.969756 294.312795 
L 149.969756 293.849674 
L 150.457801 293.849674 
L 150.457801 291.534072 
L 150.987572 291.534072 
L 150.987572 290.607831 
L 151.205907 290.607831 
L 151.205907 288.755349 
L 152.052897 288.755349 
L 152.052897 287.365987 
L 152.587184 287.365987 
L 152.587184 286.439746 
L 153.395042 286.439746 
L 153.418948 283.197902 
L 153.79705 283.197902 
L 153.867041 281.34542 
L 154.281186 281.34542 
L 154.281186 280.419179 
L 155.015814 280.419179 
L 155.12447 279.492938 
L 156.175347 279.492938 
L 156.216093 277.640456 
L 156.398281 277.640456 
L 156.398281 275.787974 
L 157.319964 275.787974 
L 157.319964 275.324854 
L 157.453162 275.324854 
L 157.453162 273.935492 
L 157.902267 273.935492 
L 157.902267 273.472371 
L 158.267884 273.472371 
L 158.267884 272.08301 
L 158.465753 272.08301 
L 158.501489 270.230528 
L 158.83738 270.230528 
L 158.83738 269.767407 
L 159.149734 269.767407 
L 159.252621 265.599323 
L 159.6749 265.599323 
L 159.724893 263.28372 
L 159.84099 263.28372 
L 159.84099 262.8206 
L 160.136022 262.8206 
L 160.136022 262.357479 
L 160.249422 262.357479 
L 160.249422 261.894358 
L 160.821253 261.894358 
L 160.899212 260.504997 
L 160.976823 260.504997 
L 161.023225 257.726274 
L 161.177012 257.726274 
L 161.192316 256.336912 
L 161.374928 256.336912 
L 161.374928 255.410671 
L 161.867469 255.410671 
L 161.970183 253.558189 
L 161.984807 253.558189 
L 161.984807 253.095069 
L 162.417924 253.095069 
L 162.417924 252.168828 
L 162.658665 252.168828 
L 162.658665 251.705707 
L 162.79874 251.705707 
L 162.826621 250.316346 
L 162.992975 250.316346 
L 163.061823 247.537622 
L 163.144084 247.537622 
L 163.144084 247.074502 
L 163.293895 247.074502 
L 163.361568 242.906417 
L 163.735759 242.906417 
L 163.735759 241.980176 
L 163.906798 241.980176 
L 163.906798 241.053935 
L 164.127963 241.053935 
L 164.127963 240.590815 
L 164.256762 240.590815 
L 164.256762 239.664574 
L 164.371873 239.664574 
L 164.460881 235.033368 
L 164.536814 235.033368 
L 164.536814 233.644007 
L 164.66264 233.644007 
L 164.66264 233.180886 
L 164.837283 233.180886 
L 164.837283 232.254645 
L 164.948638 232.254645 
L 164.997901 230.865284 
L 165.144862 230.865284 
L 165.169236 229.475922 
L 165.278497 229.475922 
L 165.35096 228.549681 
L 165.685193 228.549681 
L 165.779524 226.234079 
L 165.861646 226.234079 
L 165.861646 225.307837 
L 166.013141 225.307837 
L 166.08262 223.455355 
L 166.140309 223.455355 
L 166.140309 221.602873 
L 166.277988 221.602873 
L 166.380539 218.82415 
L 166.851294 218.82415 
L 166.906499 216.508548 
L 167.169078 216.508548 
L 167.169078 215.582307 
L 167.352708 215.582307 
L 167.438457 213.266704 
L 167.682664 213.266704 
L 167.76681 212.340463 
L 167.840107 212.340463 
L 167.840107 211.877342 
L 168.13025 211.877342 
L 168.232714 210.487981 
L 168.60668 210.487981 
L 168.60668 210.02486 
L 168.894283 210.02486 
L 168.992367 208.635499 
L 169.041203 208.635499 
L 169.041203 207.709258 
L 169.157854 207.709258 
L 169.23519 204.930535 
L 169.27373 204.930535 
L 169.27373 203.541173 
L 169.3984 203.541173 
L 169.417501 202.151812 
L 169.512694 202.151812 
L 169.512694 201.225571 
L 169.720307 201.225571 
L 169.720307 200.299329 
L 169.879059 200.299329 
L 169.981016 197.520606 
L 170.07319 197.520606 
L 170.07319 196.594365 
L 170.364915 196.594365 
L 170.446091 194.741883 
L 170.571619 194.741883 
L 170.5984 192.426281 
L 170.872762 192.426281 
L 170.977818 191.50004 
L 171.047505 191.50004 
L 171.047505 190.573799 
L 171.280666 190.573799 
L 171.306381 189.647558 
L 171.400348 189.647558 
L 171.451389 187.795075 
L 171.519214 187.795075 
L 171.519214 187.331955 
L 171.953756 187.331955 
L 171.994974 186.405714 
L 172.264595 186.405714 
L 172.337411 184.553232 
L 172.569992 184.553232 
L 172.569992 182.237629 
L 172.720707 182.237629 
L 172.720707 181.774509 
L 173.072554 181.774509 
L 173.172891 180.385147 
L 173.188276 180.385147 
L 173.195964 178.069545 
L 173.38706 178.069545 
L 173.38706 177.606424 
L 173.545979 177.606424 
L 173.621148 175.753942 
L 173.881719 175.753942 
L 173.881719 174.827701 
L 174.203864 174.827701 
L 174.203864 173.90146 
L 174.619617 173.90146 
L 174.647927 172.512098 
L 175.259407 172.512098 
L 175.334356 170.659616 
L 176.325491 170.659616 
L 176.396004 168.344014 
L 176.478973 168.344014 
L 176.478973 166.954652 
L 177.396715 166.954652 
L 177.396715 166.491532 
L 178.593054 166.491532 
L 178.593054 166.028411 
L 179.462173 166.028411 
L 179.526446 163.249688 
L 179.638356 163.249688 
L 179.638356 162.786567 
L 180.228512 162.786567 
L 180.228512 161.860326 
L 180.878686 161.860326 
L 180.878686 161.397206 
L 181.294218 161.397206 
L 181.294218 160.934085 
L 182.188736 160.934085 
L 182.211667 157.692242 
L 182.47549 157.692242 
L 182.47549 156.766001 
L 182.717582 156.766001 
L 182.717582 156.30288 
L 182.868304 156.30288 
L 182.868304 155.83976 
L 184.863896 155.83976 
L 184.863896 155.376639 
L 186.113211 155.376639 
L 186.113211 154.450398 
L 186.367856 154.450398 
L 186.367856 153.987278 
L 186.946792 153.987278 
L 186.946792 153.524157 
L 187.772353 153.524157 
L 187.772353 153.061037 
L 189.914294 153.061037 
L 189.914294 152.597916 
L 191.121016 152.597916 
L 191.121016 151.671675 
L 193.669674 151.671675 
L 193.669674 150.745434 
L 196.408112 150.745434 
L 196.408112 150.282313 
L 202.062588 150.282313 
L 202.062588 149.819193 
L 338.688 149.819193 
L 338.688 149.819193 
" style="fill:none;stroke:#ff7500;stroke-linecap:square;stroke-width:1.5;"/>
   </g>
   <g id="line2d_46">
    <defs>
     <path d="M 0 -6 
L -1.347084 -1.854102 
L -5.706339 -1.854102 
L -2.179628 0.708204 
L -3.526712 4.854102 
L -0 2.291796 
L 3.526712 4.854102 
L 2.179628 0.708204 
L 5.706339 -1.854102 
L 1.347084 -1.854102 
z
" id="mfeb158ce02" style="stroke:#ff7500;stroke-linejoin:bevel;stroke-width:1.5;"/>
    </defs>
    <g>
     <use style="fill-opacity:0;stroke:#ff7500;stroke-linejoin:bevel;stroke-width:1.5;" x="175.334356" xlink:href="#mfeb158ce02" y="170.659616"/>
     <use style="fill-opacity:0;stroke:#ff7500;stroke-linejoin:bevel;stroke-width:1.5;" x="202.062588" xlink:href="#mfeb158ce02" y="150.282313"/>
     <use style="fill-opacity:0;stroke:#ff7500;stroke-linejoin:bevel;stroke-width:1.5;" x="202.062588" xlink:href="#mfeb158ce02" y="149.819193"/>
     <use style="fill-opacity:0;stroke:#ff7500;stroke-linejoin:bevel;stroke-width:1.5;" x="202.062588" xlink:href="#mfeb158ce02" y="149.819193"/>
     <use style="fill-opacity:0;stroke:#ff7500;stroke-linejoin:bevel;stroke-width:1.5;" x="338.688" xlink:href="#mfeb158ce02" y="149.819193"/>
    </g>
   </g>
   <g id="line2d_47">
    <path style="fill:none;stroke:#ff7500;stroke-linecap:square;stroke-width:1.5;"/>
    <g/>
   </g>
   <g id="line2d_48">
    <path clip-path="url(#pafaf26e015)" d="M 258.377201 149.819193 
" style="fill:none;stroke:#ff7500;stroke-linecap:square;stroke-width:1.5;"/>
    <defs>
     <path d="M -12 12 
L 12 -12 
M -12 -12 
L 12 12 
" id="mac4db4dc6d" style="stroke:#ff7500;"/>
    </defs>
    <g clip-path="url(#pafaf26e015)">
     <use style="fill:#ff7500;stroke:#ff7500;" x="258.377201" xlink:href="#mac4db4dc6d" y="149.819193"/>
    </g>
   </g>
   <g id="line2d_49">
    <path d="M 338.688 149.819193 
L 369.60768 293.571802 
" style="fill:none;stroke:#ff7500;stroke-linecap:square;stroke-width:1.5;"/>
    <g>
     <use style="fill-opacity:0;stroke:#ff7500;stroke-linejoin:bevel;stroke-width:1.5;" x="338.688" xlink:href="#mfeb158ce02" y="149.819193"/>
     <use style="fill-opacity:0;stroke:#ff7500;stroke-linejoin:bevel;stroke-width:1.5;" x="369.60768" xlink:href="#mfeb158ce02" y="293.571802"/>
    </g>
   </g>
   <g id="line2d_50">
    <path d="M 338.688 109.990828 
L 369.60768 207.616634 
" style="fill:none;stroke:#ff00ff;stroke-linecap:square;stroke-width:1.5;"/>
    <g>
     <use style="fill-opacity:0;stroke:#ff00ff;stroke-linejoin:miter;stroke-width:1.5;" x="338.688" xlink:href="#m06b55319a0" y="109.990828"/>
     <use style="fill-opacity:0;stroke:#ff00ff;stroke-linejoin:miter;stroke-width:1.5;" x="369.60768" xlink:href="#m06b55319a0" y="207.616634"/>
    </g>
   </g>
   <g id="line2d_51">
    <path d="M 338.688 80.351115 
L 369.60768 121.661465 
" style="fill:none;stroke:#000080;stroke-linecap:square;stroke-width:1.5;"/>
    <g>
     <use style="fill-opacity:0;stroke:#000080;stroke-width:1.5;" x="338.688" xlink:href="#me7d20f4b0e" y="80.351115"/>
     <use style="fill-opacity:0;stroke:#000080;stroke-width:1.5;" x="369.60768" xlink:href="#me7d20f4b0e" y="121.661465"/>
    </g>
   </g>
   <g id="line2d_52">
    <path d="M 338.688 298.944 
L 338.688 30.334099 
" style="fill:none;stroke:#000000;stroke-linecap:square;stroke-width:1.5;"/>
   </g>
   <g id="patch_3">
    <path d="M 57.6 298.944 
L 57.6 27.648 
" style="fill:none;stroke:#000000;stroke-linecap:square;stroke-linejoin:miter;stroke-width:0.8;"/>
   </g>
   <g id="patch_4">
    <path d="M 338.688 298.944 
L 338.688 27.648 
" style="fill:none;stroke:#000000;stroke-linecap:square;stroke-linejoin:miter;stroke-width:0.8;"/>
   </g>
   <g id="patch_5">
    <path d="M 57.6 298.944 
L 338.688 298.944 
" style="fill:none;stroke:#000000;stroke-linecap:square;stroke-linejoin:miter;stroke-width:0.8;"/>
   </g>
   <g id="patch_6">
    <path d="M 57.6 27.648 
L 338.688 27.648 
" style="fill:none;stroke:#000000;stroke-linecap:square;stroke-linejoin:miter;stroke-width:0.8;"/>
   </g>
   <g id="text_13">
    <!-- SMS-EMOA- -->
    <g transform="translate(375.22944 298.262739)scale(0.17 -0.17)">
     <defs>
      <path d="M 53.515625 70.515625 
L 53.515625 60.890625 
Q 47.90625 63.578125 42.921875 64.890625 
Q 37.9375 66.21875 33.296875 66.21875 
Q 25.25 66.21875 20.875 63.09375 
Q 16.5 59.96875 16.5 54.203125 
Q 16.5 49.359375 19.40625 46.890625 
Q 22.3125 44.4375 30.421875 42.921875 
L 36.375 41.703125 
Q 47.40625 39.59375 52.65625 34.296875 
Q 57.90625 29 57.90625 20.125 
Q 57.90625 9.515625 50.796875 4.046875 
Q 43.703125 -1.421875 29.984375 -1.421875 
Q 24.8125 -1.421875 18.96875 -0.25 
Q 13.140625 0.921875 6.890625 3.21875 
L 6.890625 13.375 
Q 12.890625 10.015625 18.65625 8.296875 
Q 24.421875 6.59375 29.984375 6.59375 
Q 38.421875 6.59375 43.015625 9.90625 
Q 47.609375 13.234375 47.609375 19.390625 
Q 47.609375 24.75 44.3125 27.78125 
Q 41.015625 30.8125 33.5 32.328125 
L 27.484375 33.5 
Q 16.453125 35.6875 11.515625 40.375 
Q 6.59375 45.0625 6.59375 53.421875 
Q 6.59375 63.09375 13.40625 68.65625 
Q 20.21875 74.21875 32.171875 74.21875 
Q 37.3125 74.21875 42.625 73.28125 
Q 47.953125 72.359375 53.515625 70.515625 
z
" id="DejaVuSans-83"/>
      <path d="M 9.8125 72.90625 
L 24.515625 72.90625 
L 43.109375 23.296875 
L 61.8125 72.90625 
L 76.515625 72.90625 
L 76.515625 0 
L 66.890625 0 
L 66.890625 64.015625 
L 48.09375 14.015625 
L 38.1875 14.015625 
L 19.390625 64.015625 
L 19.390625 0 
L 9.8125 0 
z
" id="DejaVuSans-77"/>
      <path d="M 9.8125 72.90625 
L 55.90625 72.90625 
L 55.90625 64.59375 
L 19.671875 64.59375 
L 19.671875 43.015625 
L 54.390625 43.015625 
L 54.390625 34.71875 
L 19.671875 34.71875 
L 19.671875 8.296875 
L 56.78125 8.296875 
L 56.78125 0 
L 9.8125 0 
z
" id="DejaVuSans-69"/>
      <path d="M 39.40625 66.21875 
Q 28.65625 66.21875 22.328125 58.203125 
Q 16.015625 50.203125 16.015625 36.375 
Q 16.015625 22.609375 22.328125 14.59375 
Q 28.65625 6.59375 39.40625 6.59375 
Q 50.140625 6.59375 56.421875 14.59375 
Q 62.703125 22.609375 62.703125 36.375 
Q 62.703125 50.203125 56.421875 58.203125 
Q 50.140625 66.21875 39.40625 66.21875 
z
M 39.40625 74.21875 
Q 54.734375 74.21875 63.90625 63.9375 
Q 73.09375 53.65625 73.09375 36.375 
Q 73.09375 19.140625 63.90625 8.859375 
Q 54.734375 -1.421875 39.40625 -1.421875 
Q 24.03125 -1.421875 14.8125 8.828125 
Q 5.609375 19.09375 5.609375 36.375 
Q 5.609375 53.65625 14.8125 63.9375 
Q 24.03125 74.21875 39.40625 74.21875 
z
" id="DejaVuSans-79"/>
      <path d="M 34.1875 63.1875 
L 20.796875 26.90625 
L 47.609375 26.90625 
z
M 28.609375 72.90625 
L 39.796875 72.90625 
L 67.578125 0 
L 57.328125 0 
L 50.6875 18.703125 
L 17.828125 18.703125 
L 11.1875 0 
L 0.78125 0 
z
" id="DejaVuSans-65"/>
     </defs>
     <use xlink:href="#DejaVuSans-83"/>
     <use x="63.476562" xlink:href="#DejaVuSans-77"/>
     <use x="149.755859" xlink:href="#DejaVuSans-83"/>
     <use x="213.232422" xlink:href="#DejaVuSans-45"/>
     <use x="249.316406" xlink:href="#DejaVuSans-69"/>
     <use x="312.5" xlink:href="#DejaVuSans-77"/>
     <use x="398.779297" xlink:href="#DejaVuSans-79"/>
     <use x="475.740234" xlink:href="#DejaVuSans-65"/>
     <use x="541.898438" xlink:href="#DejaVuSans-45"/>
    </g>
   </g>
   <g id="text_14">
    <!-- NSGA-II-M -->
    <g transform="translate(375.22944 212.307571)scale(0.17 -0.17)">
     <defs>
      <path d="M 9.8125 72.90625 
L 23.09375 72.90625 
L 55.421875 11.921875 
L 55.421875 72.90625 
L 64.984375 72.90625 
L 64.984375 0 
L 51.703125 0 
L 19.390625 60.984375 
L 19.390625 0 
L 9.8125 0 
z
" id="DejaVuSans-78"/>
      <path d="M 59.515625 10.40625 
L 59.515625 29.984375 
L 43.40625 29.984375 
L 43.40625 38.09375 
L 69.28125 38.09375 
L 69.28125 6.78125 
Q 63.578125 2.734375 56.6875 0.65625 
Q 49.8125 -1.421875 42 -1.421875 
Q 24.90625 -1.421875 15.25 8.5625 
Q 5.609375 18.5625 5.609375 36.375 
Q 5.609375 54.25 15.25 64.234375 
Q 24.90625 74.21875 42 74.21875 
Q 49.125 74.21875 55.546875 72.453125 
Q 61.96875 70.703125 67.390625 67.28125 
L 67.390625 56.78125 
Q 61.921875 61.421875 55.765625 63.765625 
Q 49.609375 66.109375 42.828125 66.109375 
Q 29.4375 66.109375 22.71875 58.640625 
Q 16.015625 51.171875 16.015625 36.375 
Q 16.015625 21.625 22.71875 14.15625 
Q 29.4375 6.6875 42.828125 6.6875 
Q 48.046875 6.6875 52.140625 7.59375 
Q 56.25 8.5 59.515625 10.40625 
z
" id="DejaVuSans-71"/>
      <path d="M 9.8125 72.90625 
L 19.671875 72.90625 
L 19.671875 0 
L 9.8125 0 
z
" id="DejaVuSans-73"/>
     </defs>
     <use xlink:href="#DejaVuSans-78"/>
     <use x="74.804688" xlink:href="#DejaVuSans-83"/>
     <use x="138.28125" xlink:href="#DejaVuSans-71"/>
     <use x="215.771484" xlink:href="#DejaVuSans-65"/>
     <use x="281.929688" xlink:href="#DejaVuSans-45"/>
     <use x="318.013672" xlink:href="#DejaVuSans-73"/>
     <use x="347.505859" xlink:href="#DejaVuSans-73"/>
     <use x="376.998047" xlink:href="#DejaVuSans-45"/>
     <use x="413.082031" xlink:href="#DejaVuSans-77"/>
    </g>
   </g>
   <g id="text_15">
    <!-- COMO-100  -->
    <g transform="translate(375.22944 126.352403)scale(0.17 -0.17)">
     <defs>
      <path d="M 64.40625 67.28125 
L 64.40625 56.890625 
Q 59.421875 61.53125 53.78125 63.8125 
Q 48.140625 66.109375 41.796875 66.109375 
Q 29.296875 66.109375 22.65625 58.46875 
Q 16.015625 50.828125 16.015625 36.375 
Q 16.015625 21.96875 22.65625 14.328125 
Q 29.296875 6.6875 41.796875 6.6875 
Q 48.140625 6.6875 53.78125 8.984375 
Q 59.421875 11.28125 64.40625 15.921875 
L 64.40625 5.609375 
Q 59.234375 2.09375 53.4375 0.328125 
Q 47.65625 -1.421875 41.21875 -1.421875 
Q 24.65625 -1.421875 15.125 8.703125 
Q 5.609375 18.84375 5.609375 36.375 
Q 5.609375 53.953125 15.125 64.078125 
Q 24.65625 74.21875 41.21875 74.21875 
Q 47.75 74.21875 53.53125 72.484375 
Q 59.328125 70.75 64.40625 67.28125 
z
" id="DejaVuSans-67"/>
     </defs>
     <use xlink:href="#DejaVuSans-67"/>
     <use x="69.824219" xlink:href="#DejaVuSans-79"/>
     <use x="148.535156" xlink:href="#DejaVuSans-77"/>
     <use x="234.814453" xlink:href="#DejaVuSans-79"/>
     <use x="316.275391" xlink:href="#DejaVuSans-45"/>
     <use x="352.359375" xlink:href="#DejaVuSans-49"/>
     <use x="415.982422" xlink:href="#DejaVuSans-48"/>
     <use x="479.605469" xlink:href="#DejaVuSans-48"/>
     <use x="543.228516" xlink:href="#DejaVuSans-32"/>
    </g>
   </g>
   <g id="text_16">
    <!-- best 2016 -->
    <g transform="translate(375.22944 40.397235)scale(0.17 -0.17)">
     <defs>
      <path d="M 48.6875 27.296875 
Q 48.6875 37.203125 44.609375 42.84375 
Q 40.53125 48.484375 33.40625 48.484375 
Q 26.265625 48.484375 22.1875 42.84375 
Q 18.109375 37.203125 18.109375 27.296875 
Q 18.109375 17.390625 22.1875 11.75 
Q 26.265625 6.109375 33.40625 6.109375 
Q 40.53125 6.109375 44.609375 11.75 
Q 48.6875 17.390625 48.6875 27.296875 
z
M 18.109375 46.390625 
Q 20.953125 51.265625 25.265625 53.625 
Q 29.59375 56 35.59375 56 
Q 45.5625 56 51.78125 48.09375 
Q 58.015625 40.1875 58.015625 27.296875 
Q 58.015625 14.40625 51.78125 6.484375 
Q 45.5625 -1.421875 35.59375 -1.421875 
Q 29.59375 -1.421875 25.265625 0.953125 
Q 20.953125 3.328125 18.109375 8.203125 
L 18.109375 0 
L 9.078125 0 
L 9.078125 75.984375 
L 18.109375 75.984375 
z
" id="DejaVuSans-98"/>
     </defs>
     <use xlink:href="#DejaVuSans-98"/>
     <use x="63.476562" xlink:href="#DejaVuSans-101"/>
     <use x="125" xlink:href="#DejaVuSans-115"/>
     <use x="177.099609" xlink:href="#DejaVuSans-116"/>
     <use x="216.308594" xlink:href="#DejaVuSans-32"/>
     <use x="248.095703" xlink:href="#DejaVuSans-50"/>
     <use x="311.71875" xlink:href="#DejaVuSans-48"/>
     <use x="375.341797" xlink:href="#DejaVuSans-49"/>
     <use x="438.964844" xlink:href="#DejaVuSans-54"/>
    </g>
   </g>
   <g id="text_17">
    <!-- bbob-biobj f18, 3-D -->
    <g transform="translate(60.41088 38.111366)scale(0.102 -0.102)">
     <defs>
      <path d="M 9.421875 54.6875 
L 18.40625 54.6875 
L 18.40625 -0.984375 
Q 18.40625 -11.421875 14.421875 -16.109375 
Q 10.453125 -20.796875 1.609375 -20.796875 
L -1.8125 -20.796875 
L -1.8125 -13.1875 
L 0.59375 -13.1875 
Q 5.71875 -13.1875 7.5625 -10.8125 
Q 9.421875 -8.453125 9.421875 -0.984375 
z
M 9.421875 75.984375 
L 18.40625 75.984375 
L 18.40625 64.59375 
L 9.421875 64.59375 
z
" id="DejaVuSans-106"/>
      <path d="M 40.578125 39.3125 
Q 47.65625 37.796875 51.625 33 
Q 55.609375 28.21875 55.609375 21.1875 
Q 55.609375 10.40625 48.1875 4.484375 
Q 40.765625 -1.421875 27.09375 -1.421875 
Q 22.515625 -1.421875 17.65625 -0.515625 
Q 12.796875 0.390625 7.625 2.203125 
L 7.625 11.71875 
Q 11.71875 9.328125 16.59375 8.109375 
Q 21.484375 6.890625 26.8125 6.890625 
Q 36.078125 6.890625 40.9375 10.546875 
Q 45.796875 14.203125 45.796875 21.1875 
Q 45.796875 27.640625 41.28125 31.265625 
Q 36.765625 34.90625 28.71875 34.90625 
L 20.21875 34.90625 
L 20.21875 43.015625 
L 29.109375 43.015625 
Q 36.375 43.015625 40.234375 45.921875 
Q 44.09375 48.828125 44.09375 54.296875 
Q 44.09375 59.90625 40.109375 62.90625 
Q 36.140625 65.921875 28.71875 65.921875 
Q 24.65625 65.921875 20.015625 65.03125 
Q 15.375 64.15625 9.8125 62.3125 
L 9.8125 71.09375 
Q 15.4375 72.65625 20.34375 73.4375 
Q 25.25 74.21875 29.59375 74.21875 
Q 40.828125 74.21875 47.359375 69.109375 
Q 53.90625 64.015625 53.90625 55.328125 
Q 53.90625 49.265625 50.4375 45.09375 
Q 46.96875 40.921875 40.578125 39.3125 
z
" id="DejaVuSans-51"/>
      <path d="M 19.671875 64.796875 
L 19.671875 8.109375 
L 31.59375 8.109375 
Q 46.6875 8.109375 53.6875 14.9375 
Q 60.6875 21.78125 60.6875 36.53125 
Q 60.6875 51.171875 53.6875 57.984375 
Q 46.6875 64.796875 31.59375 64.796875 
z
M 9.8125 72.90625 
L 30.078125 72.90625 
Q 51.265625 72.90625 61.171875 64.09375 
Q 71.09375 55.28125 71.09375 36.53125 
Q 71.09375 17.671875 61.125 8.828125 
Q 51.171875 0 30.078125 0 
L 9.8125 0 
z
" id="DejaVuSans-68"/>
     </defs>
     <use xlink:href="#DejaVuSans-98"/>
     <use x="63.476562" xlink:href="#DejaVuSans-98"/>
     <use x="126.953125" xlink:href="#DejaVuSans-111"/>
     <use x="188.134766" xlink:href="#DejaVuSans-98"/>
     <use x="251.611328" xlink:href="#DejaVuSans-45"/>
     <use x="287.695312" xlink:href="#DejaVuSans-98"/>
     <use x="351.171875" xlink:href="#DejaVuSans-105"/>
     <use x="378.955078" xlink:href="#DejaVuSans-111"/>
     <use x="440.136719" xlink:href="#DejaVuSans-98"/>
     <use x="503.613281" xlink:href="#DejaVuSans-106"/>
     <use x="531.396484" xlink:href="#DejaVuSans-32"/>
     <use x="563.183594" xlink:href="#DejaVuSans-102"/>
     <use x="598.388672" xlink:href="#DejaVuSans-49"/>
     <use x="662.011719" xlink:href="#DejaVuSans-56"/>
     <use x="725.634766" xlink:href="#DejaVuSans-44"/>
     <use x="757.421875" xlink:href="#DejaVuSans-32"/>
     <use x="789.208984" xlink:href="#DejaVuSans-51"/>
     <use x="852.832031" xlink:href="#DejaVuSans-45"/>
     <use x="888.916016" xlink:href="#DejaVuSans-68"/>
    </g>
    <!-- 58 targets: 1..-1.0e-4 -->
    <g transform="translate(60.41088 49.533135)scale(0.102 -0.102)">
     <defs>
      <path d="M 10.796875 72.90625 
L 49.515625 72.90625 
L 49.515625 64.59375 
L 19.828125 64.59375 
L 19.828125 46.734375 
Q 21.96875 47.46875 24.109375 47.828125 
Q 26.265625 48.1875 28.421875 48.1875 
Q 40.625 48.1875 47.75 41.5 
Q 54.890625 34.8125 54.890625 23.390625 
Q 54.890625 11.625 47.5625 5.09375 
Q 40.234375 -1.421875 26.90625 -1.421875 
Q 22.3125 -1.421875 17.546875 -0.640625 
Q 12.796875 0.140625 7.71875 1.703125 
L 7.71875 11.625 
Q 12.109375 9.234375 16.796875 8.0625 
Q 21.484375 6.890625 26.703125 6.890625 
Q 35.15625 6.890625 40.078125 11.328125 
Q 45.015625 15.765625 45.015625 23.390625 
Q 45.015625 31 40.078125 35.4375 
Q 35.15625 39.890625 26.703125 39.890625 
Q 22.75 39.890625 18.8125 39.015625 
Q 14.890625 38.140625 10.796875 36.28125 
z
" id="DejaVuSans-53"/>
      <path d="M 11.71875 12.40625 
L 22.015625 12.40625 
L 22.015625 0 
L 11.71875 0 
z
M 11.71875 51.703125 
L 22.015625 51.703125 
L 22.015625 39.3125 
L 11.71875 39.3125 
z
" id="DejaVuSans-58"/>
     </defs>
     <use xlink:href="#DejaVuSans-53"/>
     <use x="63.623047" xlink:href="#DejaVuSans-56"/>
     <use x="127.246094" xlink:href="#DejaVuSans-32"/>
     <use x="159.033203" xlink:href="#DejaVuSans-116"/>
     <use x="198.242188" xlink:href="#DejaVuSans-97"/>
     <use x="259.521484" xlink:href="#DejaVuSans-114"/>
     <use x="298.884766" xlink:href="#DejaVuSans-103"/>
     <use x="362.361328" xlink:href="#DejaVuSans-101"/>
     <use x="423.884766" xlink:href="#DejaVuSans-116"/>
     <use x="463.09375" xlink:href="#DejaVuSans-115"/>
     <use x="515.193359" xlink:href="#DejaVuSans-58"/>
     <use x="548.884766" xlink:href="#DejaVuSans-32"/>
     <use x="580.671875" xlink:href="#DejaVuSans-49"/>
     <use x="644.294922" xlink:href="#DejaVuSans-46"/>
     <use x="676.082031" xlink:href="#DejaVuSans-46"/>
     <use x="707.869141" xlink:href="#DejaVuSans-45"/>
     <use x="743.953125" xlink:href="#DejaVuSans-49"/>
     <use x="807.576172" xlink:href="#DejaVuSans-46"/>
     <use x="839.363281" xlink:href="#DejaVuSans-48"/>
     <use x="902.986328" xlink:href="#DejaVuSans-101"/>
     <use x="964.509766" xlink:href="#DejaVuSans-45"/>
     <use x="1000.59375" xlink:href="#DejaVuSans-52"/>
    </g>
    <!-- 10 instances -->
    <g transform="translate(60.41088 60.954904)scale(0.102 -0.102)">
     <use xlink:href="#DejaVuSans-49"/>
     <use x="63.623047" xlink:href="#DejaVuSans-48"/>
     <use x="127.246094" xlink:href="#DejaVuSans-32"/>
     <use x="159.033203" xlink:href="#DejaVuSans-105"/>
     <use x="186.816406" xlink:href="#DejaVuSans-110"/>
     <use x="250.195312" xlink:href="#DejaVuSans-115"/>
     <use x="302.294922" xlink:href="#DejaVuSans-116"/>
     <use x="341.503906" xlink:href="#DejaVuSans-97"/>
     <use x="402.783203" xlink:href="#DejaVuSans-110"/>
     <use x="466.162109" xlink:href="#DejaVuSans-99"/>
     <use x="521.142578" xlink:href="#DejaVuSans-101"/>
     <use x="582.666016" xlink:href="#DejaVuSans-115"/>
    </g>
   </g>
   <g id="text_18">
    <!-- v2.4.19, hv-hash=ff0e71e8cd978373 -->
    <g style="fill:#808080;" transform="translate(104.697125 294.151352)scale(0.1 -0.1)">
     <defs>
      <path d="M 10.984375 1.515625 
L 10.984375 10.5 
Q 14.703125 8.734375 18.5 7.8125 
Q 22.3125 6.890625 25.984375 6.890625 
Q 35.75 6.890625 40.890625 13.453125 
Q 46.046875 20.015625 46.78125 33.40625 
Q 43.953125 29.203125 39.59375 26.953125 
Q 35.25 24.703125 29.984375 24.703125 
Q 19.046875 24.703125 12.671875 31.3125 
Q 6.296875 37.9375 6.296875 49.421875 
Q 6.296875 60.640625 12.9375 67.421875 
Q 19.578125 74.21875 30.609375 74.21875 
Q 43.265625 74.21875 49.921875 64.515625 
Q 56.59375 54.828125 56.59375 36.375 
Q 56.59375 19.140625 48.40625 8.859375 
Q 40.234375 -1.421875 26.421875 -1.421875 
Q 22.703125 -1.421875 18.890625 -0.6875 
Q 15.09375 0.046875 10.984375 1.515625 
z
M 30.609375 32.421875 
Q 37.25 32.421875 41.125 36.953125 
Q 45.015625 41.5 45.015625 49.421875 
Q 45.015625 57.28125 41.125 61.84375 
Q 37.25 66.40625 30.609375 66.40625 
Q 23.96875 66.40625 20.09375 61.84375 
Q 16.21875 57.28125 16.21875 49.421875 
Q 16.21875 41.5 20.09375 36.953125 
Q 23.96875 32.421875 30.609375 32.421875 
z
" id="DejaVuSans-57"/>
      <path d="M 54.890625 33.015625 
L 54.890625 0 
L 45.90625 0 
L 45.90625 32.71875 
Q 45.90625 40.484375 42.875 44.328125 
Q 39.84375 48.1875 33.796875 48.1875 
Q 26.515625 48.1875 22.3125 43.546875 
Q 18.109375 38.921875 18.109375 30.90625 
L 18.109375 0 
L 9.078125 0 
L 9.078125 75.984375 
L 18.109375 75.984375 
L 18.109375 46.1875 
Q 21.34375 51.125 25.703125 53.5625 
Q 30.078125 56 35.796875 56 
Q 45.21875 56 50.046875 50.171875 
Q 54.890625 44.34375 54.890625 33.015625 
z
" id="DejaVuSans-104"/>
      <path d="M 10.59375 45.40625 
L 73.1875 45.40625 
L 73.1875 37.203125 
L 10.59375 37.203125 
z
M 10.59375 25.484375 
L 73.1875 25.484375 
L 73.1875 17.1875 
L 10.59375 17.1875 
z
" id="DejaVuSans-61"/>
      <path d="M 8.203125 72.90625 
L 55.078125 72.90625 
L 55.078125 68.703125 
L 28.609375 0 
L 18.3125 0 
L 43.21875 64.59375 
L 8.203125 64.59375 
z
" id="DejaVuSans-55"/>
     </defs>
     <use xlink:href="#DejaVuSans-118"/>
     <use x="59.179688" xlink:href="#DejaVuSans-50"/>
     <use x="122.802734" xlink:href="#DejaVuSans-46"/>
     <use x="154.589844" xlink:href="#DejaVuSans-52"/>
     <use x="218.212891" xlink:href="#DejaVuSans-46"/>
     <use x="250" xlink:href="#DejaVuSans-49"/>
     <use x="313.623047" xlink:href="#DejaVuSans-57"/>
     <use x="377.246094" xlink:href="#DejaVuSans-44"/>
     <use x="409.033203" xlink:href="#DejaVuSans-32"/>
     <use x="440.820312" xlink:href="#DejaVuSans-104"/>
     <use x="504.199219" xlink:href="#DejaVuSans-118"/>
     <use x="560.753906" xlink:href="#DejaVuSans-45"/>
     <use x="596.837891" xlink:href="#DejaVuSans-104"/>
     <use x="660.216797" xlink:href="#DejaVuSans-97"/>
     <use x="721.496094" xlink:href="#DejaVuSans-115"/>
     <use x="773.595703" xlink:href="#DejaVuSans-104"/>
     <use x="836.974609" xlink:href="#DejaVuSans-61"/>
     <use x="920.763672" xlink:href="#DejaVuSans-102"/>
     <use x="955.96875" xlink:href="#DejaVuSans-102"/>
     <use x="991.173828" xlink:href="#DejaVuSans-48"/>
     <use x="1054.796875" xlink:href="#DejaVuSans-101"/>
     <use x="1116.320312" xlink:href="#DejaVuSans-55"/>
     <use x="1179.943359" xlink:href="#DejaVuSans-49"/>
     <use x="1243.566406" xlink:href="#DejaVuSans-101"/>
     <use x="1305.089844" xlink:href="#DejaVuSans-56"/>
     <use x="1368.712891" xlink:href="#DejaVuSans-99"/>
     <use x="1423.693359" xlink:href="#DejaVuSans-100"/>
     <use x="1487.169922" xlink:href="#DejaVuSans-57"/>
     <use x="1550.792969" xlink:href="#DejaVuSans-55"/>
     <use x="1614.416016" xlink:href="#DejaVuSans-56"/>
     <use x="1678.039062" xlink:href="#DejaVuSans-51"/>
     <use x="1741.662109" xlink:href="#DejaVuSans-55"/>
     <use x="1805.285156" xlink:href="#DejaVuSans-51"/>
    </g>
   </g>
   <g id="text_19">
    <!-- 18 sep. Ellipsoid/Schwefel -->
    <g transform="translate(68.3815 21.648)scale(0.2 -0.2)">
     <defs>
      <path d="M 4.203125 54.6875 
L 13.1875 54.6875 
L 24.421875 12.015625 
L 35.59375 54.6875 
L 46.1875 54.6875 
L 57.421875 12.015625 
L 68.609375 54.6875 
L 77.59375 54.6875 
L 63.28125 0 
L 52.6875 0 
L 40.921875 44.828125 
L 29.109375 0 
L 18.5 0 
z
" id="DejaVuSans-119"/>
     </defs>
     <use xlink:href="#DejaVuSans-49"/>
     <use x="63.623047" xlink:href="#DejaVuSans-56"/>
     <use x="127.246094" xlink:href="#DejaVuSans-32"/>
     <use x="159.033203" xlink:href="#DejaVuSans-115"/>
     <use x="211.132812" xlink:href="#DejaVuSans-101"/>
     <use x="272.65625" xlink:href="#DejaVuSans-112"/>
     <use x="336.132812" xlink:href="#DejaVuSans-46"/>
     <use x="367.919922" xlink:href="#DejaVuSans-32"/>
     <use x="399.707031" xlink:href="#DejaVuSans-69"/>
     <use x="462.890625" xlink:href="#DejaVuSans-108"/>
     <use x="490.673828" xlink:href="#DejaVuSans-108"/>
     <use x="518.457031" xlink:href="#DejaVuSans-105"/>
     <use x="546.240234" xlink:href="#DejaVuSans-112"/>
     <use x="609.716797" xlink:href="#DejaVuSans-115"/>
     <use x="661.816406" xlink:href="#DejaVuSans-111"/>
     <use x="722.998047" xlink:href="#DejaVuSans-105"/>
     <use x="750.78125" xlink:href="#DejaVuSans-100"/>
     <use x="814.257812" xlink:href="#DejaVuSans-47"/>
     <use x="847.949219" xlink:href="#DejaVuSans-83"/>
     <use x="911.425781" xlink:href="#DejaVuSans-99"/>
     <use x="966.40625" xlink:href="#DejaVuSans-104"/>
     <use x="1029.785156" xlink:href="#DejaVuSans-119"/>
     <use x="1111.572266" xlink:href="#DejaVuSans-101"/>
     <use x="1173.095703" xlink:href="#DejaVuSans-102"/>
     <use x="1208.300781" xlink:href="#DejaVuSans-101"/>
     <use x="1269.824219" xlink:href="#DejaVuSans-108"/>
    </g>
   </g>
  </g>
 </g>
 <defs>
  <clipPath id="pafaf26e015">
   <rect height="271.296" width="281.088" x="57.6" y="27.648"/>
  </clipPath>
 </defs>
</svg>
