<?xml version="1.0" encoding="utf-8" standalone="no"?>
<!DOCTYPE svg PUBLIC "-//W3C//DTD SVG 1.1//EN"
  "http://www.w3.org/Graphics/SVG/1.1/DTD/svg11.dtd">
<!-- Created with matplotlib (https://matplotlib.org/) -->
<svg height="345.6pt" version="1.1" viewBox="0 0 460.8 345.6" width="460.8pt" xmlns="http://www.w3.org/2000/svg" xmlns:xlink="http://www.w3.org/1999/xlink">
 <metadata>
  <rdf:RDF xmlns:cc="http://creativecommons.org/ns#" xmlns:dc="http://purl.org/dc/elements/1.1/" xmlns:rdf="http://www.w3.org/1999/02/22-rdf-syntax-ns#">
   <cc:Work>
    <dc:type rdf:resource="http://purl.org/dc/dcmitype/StillImage"/>
    <dc:date>2021-04-26T15:04:13.182589</dc:date>
    <dc:format>image/svg+xml</dc:format>
    <dc:creator>
     <cc:Agent>
      <dc:title>Matplotlib v3.3.2, https://matplotlib.org/</dc:title>
     </cc:Agent>
    </dc:creator>
   </cc:Work>
  </rdf:RDF>
 </metadata>
 <defs>
  <style type="text/css">*{stroke-linecap:butt;stroke-linejoin:round;}</style>
 </defs>
 <g id="figure_1">
  <g id="patch_1">
   <path d="M 0 345.6 
L 460.8 345.6 
L 460.8 0 
L 0 0 
z
" style="fill:#ffffff;"/>
  </g>
  <g id="axes_1">
   <g id="patch_2">
    <path d="M 57.6 298.944 
L 338.688 298.944 
L 338.688 27.648 
L 57.6 27.648 
z
" style="fill:#ffffff;"/>
   </g>
   <g id="line2d_1">
    <path d="M 41.620548 298.944 
L 41.620548 294.312795 
L 57.6 294.312795 
L 57.6 285.050384 
L 76.16779 285.050384 
L 76.16779 275.787974 
L 91.535274 275.787974 
L 91.535274 271.156769 
L 95.723163 271.156769 
L 95.723163 257.263153 
L 100.934985 257.263153 
L 100.934985 248.000743 
L 111.974805 248.000743 
L 111.974805 243.369538 
L 122.615387 243.369538 
L 122.615387 234.107127 
L 129.908566 234.107127 
L 129.908566 220.213512 
L 135.858985 220.213512 
L 135.858985 210.951101 
L 142.215919 210.951101 
L 142.215919 201.688691 
L 150.301393 201.688691 
L 150.301393 192.426281 
L 156.735331 192.426281 
L 156.735331 187.795075 
L 162.38081 187.795075 
L 162.38081 173.90146 
L 168.244969 173.90146 
L 168.244969 169.270255 
L 175.93577 169.270255 
L 175.93577 155.376639 
L 184.767181 155.376639 
L 184.767181 146.114229 
L 193.658503 146.114229 
L 193.658503 141.483024 
L 200.828382 141.483024 
L 200.828382 127.589408 
L 207.632122 127.589408 
L 207.632122 122.958203 
L 214.239111 122.958203 
L 214.239111 109.064587 
L 221.160407 109.064587 
L 221.160407 99.802177 
L 228.411924 99.802177 
L 228.411924 90.539766 
L 236.290092 90.539766 
L 236.290092 85.908561 
L 245.107828 85.908561 
L 245.107828 76.646151 
L 253.694162 76.646151 
L 253.694162 62.752535 
L 338.688 62.752535 
" style="fill:none;stroke:#f5deb3;stroke-linecap:square;stroke-width:4;"/>
   </g>
   <g id="line2d_2">
    <defs>
     <path d="M 0 7.778175 
L 7.778175 0 
L 0 -7.778175 
L -7.778175 0 
z
" id="m87fa67a713" style="stroke:#f5deb3;stroke-linejoin:miter;stroke-width:1.5;"/>
    </defs>
    <g>
     <use style="fill:#f5deb3;stroke:#f5deb3;stroke-linejoin:miter;stroke-width:1.5;" x="129.908566" xlink:href="#m87fa67a713" y="234.107127"/>
     <use style="fill:#f5deb3;stroke:#f5deb3;stroke-linejoin:miter;stroke-width:1.5;" x="184.767181" xlink:href="#m87fa67a713" y="155.376639"/>
     <use style="fill:#f5deb3;stroke:#f5deb3;stroke-linejoin:miter;stroke-width:1.5;" x="236.290092" xlink:href="#m87fa67a713" y="90.539766"/>
     <use style="fill:#f5deb3;stroke:#f5deb3;stroke-linejoin:miter;stroke-width:1.5;" x="253.694162" xlink:href="#m87fa67a713" y="62.752535"/>
     <use style="fill:#f5deb3;stroke:#f5deb3;stroke-linejoin:miter;stroke-width:1.5;" x="253.694162" xlink:href="#m87fa67a713" y="62.752535"/>
     <use style="fill:#f5deb3;stroke:#f5deb3;stroke-linejoin:miter;stroke-width:1.5;" x="338.688" xlink:href="#m87fa67a713" y="62.752535"/>
    </g>
   </g>
   <g id="line2d_3">
    <path style="fill:none;stroke:#f5deb3;stroke-linecap:square;stroke-width:4;"/>
    <g/>
   </g>
   <g id="line2d_4">
    <path d="M 338.688 62.752535 
L 369.60768 35.706297 
" style="fill:none;stroke:#f5deb3;stroke-linecap:square;stroke-width:4;"/>
    <g>
     <use style="fill:#f5deb3;stroke:#f5deb3;stroke-linejoin:miter;stroke-width:1.5;" x="338.688" xlink:href="#m87fa67a713" y="62.752535"/>
     <use style="fill:#f5deb3;stroke:#f5deb3;stroke-linejoin:miter;stroke-width:1.5;" x="369.60768" xlink:href="#m87fa67a713" y="35.706297"/>
    </g>
   </g>
   <g id="matplotlib.axis_1">
    <g id="xtick_1">
     <g id="line2d_5">
      <path clip-path="url(#p277f899938)" d="M 57.6 298.944 
L 57.6 27.648 
" style="fill:none;stroke:#b0b0b0;stroke-linecap:square;stroke-width:0.8;"/>
     </g>
     <g id="line2d_6">
      <defs>
       <path d="M 0 0 
L 0 3.5 
" id="mef9af0038d" style="stroke:#000000;stroke-width:0.8;"/>
      </defs>
      <g>
       <use style="stroke:#000000;stroke-width:0.8;" x="57.6" xlink:href="#mef9af0038d" y="298.944"/>
      </g>
     </g>
     <g id="text_1">
      <!-- 0 -->
      <g transform="translate(51.2375 321.140875)scale(0.2 -0.2)">
       <defs>
        <path d="M 31.78125 66.40625 
Q 24.171875 66.40625 20.328125 58.90625 
Q 16.5 51.421875 16.5 36.375 
Q 16.5 21.390625 20.328125 13.890625 
Q 24.171875 6.390625 31.78125 6.390625 
Q 39.453125 6.390625 43.28125 13.890625 
Q 47.125 21.390625 47.125 36.375 
Q 47.125 51.421875 43.28125 58.90625 
Q 39.453125 66.40625 31.78125 66.40625 
z
M 31.78125 74.21875 
Q 44.046875 74.21875 50.515625 64.515625 
Q 56.984375 54.828125 56.984375 36.375 
Q 56.984375 17.96875 50.515625 8.265625 
Q 44.046875 -1.421875 31.78125 -1.421875 
Q 19.53125 -1.421875 13.0625 8.265625 
Q 6.59375 17.96875 6.59375 36.375 
Q 6.59375 54.828125 13.0625 64.515625 
Q 19.53125 74.21875 31.78125 74.21875 
z
" id="DejaVuSans-48"/>
       </defs>
       <use xlink:href="#DejaVuSans-48"/>
      </g>
     </g>
    </g>
    <g id="xtick_2">
     <g id="line2d_7">
      <path clip-path="url(#p277f899938)" d="M 137.910857 298.944 
L 137.910857 27.648 
" style="fill:none;stroke:#b0b0b0;stroke-linecap:square;stroke-width:0.8;"/>
     </g>
     <g id="line2d_8">
      <g>
       <use style="stroke:#000000;stroke-width:0.8;" x="137.910857" xlink:href="#mef9af0038d" y="298.944"/>
      </g>
     </g>
     <g id="text_2">
      <!-- 2 -->
      <g transform="translate(131.548357 321.140875)scale(0.2 -0.2)">
       <defs>
        <path d="M 19.1875 8.296875 
L 53.609375 8.296875 
L 53.609375 0 
L 7.328125 0 
L 7.328125 8.296875 
Q 12.9375 14.109375 22.625 23.890625 
Q 32.328125 33.6875 34.8125 36.53125 
Q 39.546875 41.84375 41.421875 45.53125 
Q 43.3125 49.21875 43.3125 52.78125 
Q 43.3125 58.59375 39.234375 62.25 
Q 35.15625 65.921875 28.609375 65.921875 
Q 23.96875 65.921875 18.8125 64.3125 
Q 13.671875 62.703125 7.8125 59.421875 
L 7.8125 69.390625 
Q 13.765625 71.78125 18.9375 73 
Q 24.125 74.21875 28.421875 74.21875 
Q 39.75 74.21875 46.484375 68.546875 
Q 53.21875 62.890625 53.21875 53.421875 
Q 53.21875 48.921875 51.53125 44.890625 
Q 49.859375 40.875 45.40625 35.40625 
Q 44.1875 33.984375 37.640625 27.21875 
Q 31.109375 20.453125 19.1875 8.296875 
z
" id="DejaVuSans-50"/>
       </defs>
       <use xlink:href="#DejaVuSans-50"/>
      </g>
     </g>
    </g>
    <g id="xtick_3">
     <g id="line2d_9">
      <path clip-path="url(#p277f899938)" d="M 218.221714 298.944 
L 218.221714 27.648 
" style="fill:none;stroke:#b0b0b0;stroke-linecap:square;stroke-width:0.8;"/>
     </g>
     <g id="line2d_10">
      <g>
       <use style="stroke:#000000;stroke-width:0.8;" x="218.221714" xlink:href="#mef9af0038d" y="298.944"/>
      </g>
     </g>
     <g id="text_3">
      <!-- 4 -->
      <g transform="translate(211.859214 321.140875)scale(0.2 -0.2)">
       <defs>
        <path d="M 37.796875 64.3125 
L 12.890625 25.390625 
L 37.796875 25.390625 
z
M 35.203125 72.90625 
L 47.609375 72.90625 
L 47.609375 25.390625 
L 58.015625 25.390625 
L 58.015625 17.1875 
L 47.609375 17.1875 
L 47.609375 0 
L 37.796875 0 
L 37.796875 17.1875 
L 4.890625 17.1875 
L 4.890625 26.703125 
z
" id="DejaVuSans-52"/>
       </defs>
       <use xlink:href="#DejaVuSans-52"/>
      </g>
     </g>
    </g>
    <g id="xtick_4">
     <g id="line2d_11">
      <path clip-path="url(#p277f899938)" d="M 298.532571 298.944 
L 298.532571 27.648 
" style="fill:none;stroke:#b0b0b0;stroke-linecap:square;stroke-width:0.8;"/>
     </g>
     <g id="line2d_12">
      <g>
       <use style="stroke:#000000;stroke-width:0.8;" x="298.532571" xlink:href="#mef9af0038d" y="298.944"/>
      </g>
     </g>
     <g id="text_4">
      <!-- 6 -->
      <g transform="translate(292.170071 321.140875)scale(0.2 -0.2)">
       <defs>
        <path d="M 33.015625 40.375 
Q 26.375 40.375 22.484375 35.828125 
Q 18.609375 31.296875 18.609375 23.390625 
Q 18.609375 15.53125 22.484375 10.953125 
Q 26.375 6.390625 33.015625 6.390625 
Q 39.65625 6.390625 43.53125 10.953125 
Q 47.40625 15.53125 47.40625 23.390625 
Q 47.40625 31.296875 43.53125 35.828125 
Q 39.65625 40.375 33.015625 40.375 
z
M 52.59375 71.296875 
L 52.59375 62.3125 
Q 48.875 64.0625 45.09375 64.984375 
Q 41.3125 65.921875 37.59375 65.921875 
Q 27.828125 65.921875 22.671875 59.328125 
Q 17.53125 52.734375 16.796875 39.40625 
Q 19.671875 43.65625 24.015625 45.921875 
Q 28.375 48.1875 33.59375 48.1875 
Q 44.578125 48.1875 50.953125 41.515625 
Q 57.328125 34.859375 57.328125 23.390625 
Q 57.328125 12.15625 50.6875 5.359375 
Q 44.046875 -1.421875 33.015625 -1.421875 
Q 20.359375 -1.421875 13.671875 8.265625 
Q 6.984375 17.96875 6.984375 36.375 
Q 6.984375 53.65625 15.1875 63.9375 
Q 23.390625 74.21875 37.203125 74.21875 
Q 40.921875 74.21875 44.703125 73.484375 
Q 48.484375 72.75 52.59375 71.296875 
z
" id="DejaVuSans-54"/>
       </defs>
       <use xlink:href="#DejaVuSans-54"/>
      </g>
     </g>
    </g>
    <g id="xtick_5">
     <g id="line2d_13">
      <path clip-path="url(#p277f899938)" d="M 97.755429 298.944 
L 97.755429 27.648 
" style="fill:none;stroke:#b0b0b0;stroke-linecap:square;stroke-width:0.8;"/>
     </g>
     <g id="line2d_14">
      <defs>
       <path d="M 0 0 
L 0 2 
" id="m09bea4d7d2" style="stroke:#000000;stroke-width:0.6;"/>
      </defs>
      <g>
       <use style="stroke:#000000;stroke-width:0.6;" x="97.755429" xlink:href="#m09bea4d7d2" y="298.944"/>
      </g>
     </g>
    </g>
    <g id="xtick_6">
     <g id="line2d_15">
      <path clip-path="url(#p277f899938)" d="M 178.066286 298.944 
L 178.066286 27.648 
" style="fill:none;stroke:#b0b0b0;stroke-linecap:square;stroke-width:0.8;"/>
     </g>
     <g id="line2d_16">
      <g>
       <use style="stroke:#000000;stroke-width:0.6;" x="178.066286" xlink:href="#m09bea4d7d2" y="298.944"/>
      </g>
     </g>
    </g>
    <g id="xtick_7">
     <g id="line2d_17">
      <path clip-path="url(#p277f899938)" d="M 258.377143 298.944 
L 258.377143 27.648 
" style="fill:none;stroke:#b0b0b0;stroke-linecap:square;stroke-width:0.8;"/>
     </g>
     <g id="line2d_18">
      <g>
       <use style="stroke:#000000;stroke-width:0.6;" x="258.377143" xlink:href="#m09bea4d7d2" y="298.944"/>
      </g>
     </g>
    </g>
    <g id="xtick_8">
     <g id="line2d_19">
      <path clip-path="url(#p277f899938)" d="M 338.688 298.944 
L 338.688 27.648 
" style="fill:none;stroke:#b0b0b0;stroke-linecap:square;stroke-width:0.8;"/>
     </g>
     <g id="line2d_20">
      <g>
       <use style="stroke:#000000;stroke-width:0.6;" x="338.688" xlink:href="#m09bea4d7d2" y="298.944"/>
      </g>
     </g>
    </g>
    <g id="text_5">
     <!-- log10(# f-evals / dimension) -->
     <g transform="translate(77.764078 342.217594)scale(0.17 -0.17)">
      <defs>
       <path d="M 9.421875 75.984375 
L 18.40625 75.984375 
L 18.40625 0 
L 9.421875 0 
z
" id="DejaVuSans-108"/>
       <path d="M 30.609375 48.390625 
Q 23.390625 48.390625 19.1875 42.75 
Q 14.984375 37.109375 14.984375 27.296875 
Q 14.984375 17.484375 19.15625 11.84375 
Q 23.34375 6.203125 30.609375 6.203125 
Q 37.796875 6.203125 41.984375 11.859375 
Q 46.1875 17.53125 46.1875 27.296875 
Q 46.1875 37.015625 41.984375 42.703125 
Q 37.796875 48.390625 30.609375 48.390625 
z
M 30.609375 56 
Q 42.328125 56 49.015625 48.375 
Q 55.71875 40.765625 55.71875 27.296875 
Q 55.71875 13.875 49.015625 6.21875 
Q 42.328125 -1.421875 30.609375 -1.421875 
Q 18.84375 -1.421875 12.171875 6.21875 
Q 5.515625 13.875 5.515625 27.296875 
Q 5.515625 40.765625 12.171875 48.375 
Q 18.84375 56 30.609375 56 
z
" id="DejaVuSans-111"/>
       <path d="M 45.40625 27.984375 
Q 45.40625 37.75 41.375 43.109375 
Q 37.359375 48.484375 30.078125 48.484375 
Q 22.859375 48.484375 18.828125 43.109375 
Q 14.796875 37.75 14.796875 27.984375 
Q 14.796875 18.265625 18.828125 12.890625 
Q 22.859375 7.515625 30.078125 7.515625 
Q 37.359375 7.515625 41.375 12.890625 
Q 45.40625 18.265625 45.40625 27.984375 
z
M 54.390625 6.78125 
Q 54.390625 -7.171875 48.1875 -13.984375 
Q 42 -20.796875 29.203125 -20.796875 
Q 24.46875 -20.796875 20.265625 -20.09375 
Q 16.0625 -19.390625 12.109375 -17.921875 
L 12.109375 -9.1875 
Q 16.0625 -11.328125 19.921875 -12.34375 
Q 23.78125 -13.375 27.78125 -13.375 
Q 36.625 -13.375 41.015625 -8.765625 
Q 45.40625 -4.15625 45.40625 5.171875 
L 45.40625 9.625 
Q 42.625 4.78125 38.28125 2.390625 
Q 33.9375 0 27.875 0 
Q 17.828125 0 11.671875 7.65625 
Q 5.515625 15.328125 5.515625 27.984375 
Q 5.515625 40.671875 11.671875 48.328125 
Q 17.828125 56 27.875 56 
Q 33.9375 56 38.28125 53.609375 
Q 42.625 51.21875 45.40625 46.390625 
L 45.40625 54.6875 
L 54.390625 54.6875 
z
" id="DejaVuSans-103"/>
       <path d="M 12.40625 8.296875 
L 28.515625 8.296875 
L 28.515625 63.921875 
L 10.984375 60.40625 
L 10.984375 69.390625 
L 28.421875 72.90625 
L 38.28125 72.90625 
L 38.28125 8.296875 
L 54.390625 8.296875 
L 54.390625 0 
L 12.40625 0 
z
" id="DejaVuSans-49"/>
       <path d="M 31 75.875 
Q 24.46875 64.65625 21.28125 53.65625 
Q 18.109375 42.671875 18.109375 31.390625 
Q 18.109375 20.125 21.3125 9.0625 
Q 24.515625 -2 31 -13.1875 
L 23.1875 -13.1875 
Q 15.875 -1.703125 12.234375 9.375 
Q 8.59375 20.453125 8.59375 31.390625 
Q 8.59375 42.28125 12.203125 53.3125 
Q 15.828125 64.359375 23.1875 75.875 
z
" id="DejaVuSans-40"/>
       <path d="M 51.125 44 
L 36.921875 44 
L 32.8125 27.6875 
L 47.125 27.6875 
z
M 43.796875 71.78125 
L 38.71875 51.515625 
L 52.984375 51.515625 
L 58.109375 71.78125 
L 65.921875 71.78125 
L 60.890625 51.515625 
L 76.125 51.515625 
L 76.125 44 
L 58.984375 44 
L 54.984375 27.6875 
L 70.515625 27.6875 
L 70.515625 20.21875 
L 53.078125 20.21875 
L 48 0 
L 40.1875 0 
L 45.21875 20.21875 
L 30.90625 20.21875 
L 25.875 0 
L 18.015625 0 
L 23.09375 20.21875 
L 7.71875 20.21875 
L 7.71875 27.6875 
L 24.90625 27.6875 
L 29 44 
L 13.28125 44 
L 13.28125 51.515625 
L 30.90625 51.515625 
L 35.890625 71.78125 
z
" id="DejaVuSans-35"/>
       <path id="DejaVuSans-32"/>
       <path d="M 37.109375 75.984375 
L 37.109375 68.5 
L 28.515625 68.5 
Q 23.6875 68.5 21.796875 66.546875 
Q 19.921875 64.59375 19.921875 59.515625 
L 19.921875 54.6875 
L 34.71875 54.6875 
L 34.71875 47.703125 
L 19.921875 47.703125 
L 19.921875 0 
L 10.890625 0 
L 10.890625 47.703125 
L 2.296875 47.703125 
L 2.296875 54.6875 
L 10.890625 54.6875 
L 10.890625 58.5 
Q 10.890625 67.625 15.140625 71.796875 
Q 19.390625 75.984375 28.609375 75.984375 
z
" id="DejaVuSans-102"/>
       <path d="M 4.890625 31.390625 
L 31.203125 31.390625 
L 31.203125 23.390625 
L 4.890625 23.390625 
z
" id="DejaVuSans-45"/>
       <path d="M 56.203125 29.59375 
L 56.203125 25.203125 
L 14.890625 25.203125 
Q 15.484375 15.921875 20.484375 11.0625 
Q 25.484375 6.203125 34.421875 6.203125 
Q 39.59375 6.203125 44.453125 7.46875 
Q 49.3125 8.734375 54.109375 11.28125 
L 54.109375 2.78125 
Q 49.265625 0.734375 44.1875 -0.34375 
Q 39.109375 -1.421875 33.890625 -1.421875 
Q 20.796875 -1.421875 13.15625 6.1875 
Q 5.515625 13.8125 5.515625 26.8125 
Q 5.515625 40.234375 12.765625 48.109375 
Q 20.015625 56 32.328125 56 
Q 43.359375 56 49.78125 48.890625 
Q 56.203125 41.796875 56.203125 29.59375 
z
M 47.21875 32.234375 
Q 47.125 39.59375 43.09375 43.984375 
Q 39.0625 48.390625 32.421875 48.390625 
Q 24.90625 48.390625 20.390625 44.140625 
Q 15.875 39.890625 15.1875 32.171875 
z
" id="DejaVuSans-101"/>
       <path d="M 2.984375 54.6875 
L 12.5 54.6875 
L 29.59375 8.796875 
L 46.6875 54.6875 
L 56.203125 54.6875 
L 35.6875 0 
L 23.484375 0 
z
" id="DejaVuSans-118"/>
       <path d="M 34.28125 27.484375 
Q 23.390625 27.484375 19.1875 25 
Q 14.984375 22.515625 14.984375 16.5 
Q 14.984375 11.71875 18.140625 8.90625 
Q 21.296875 6.109375 26.703125 6.109375 
Q 34.1875 6.109375 38.703125 11.40625 
Q 43.21875 16.703125 43.21875 25.484375 
L 43.21875 27.484375 
z
M 52.203125 31.203125 
L 52.203125 0 
L 43.21875 0 
L 43.21875 8.296875 
Q 40.140625 3.328125 35.546875 0.953125 
Q 30.953125 -1.421875 24.3125 -1.421875 
Q 15.921875 -1.421875 10.953125 3.296875 
Q 6 8.015625 6 15.921875 
Q 6 25.140625 12.171875 29.828125 
Q 18.359375 34.515625 30.609375 34.515625 
L 43.21875 34.515625 
L 43.21875 35.40625 
Q 43.21875 41.609375 39.140625 45 
Q 35.0625 48.390625 27.6875 48.390625 
Q 23 48.390625 18.546875 47.265625 
Q 14.109375 46.140625 10.015625 43.890625 
L 10.015625 52.203125 
Q 14.9375 54.109375 19.578125 55.046875 
Q 24.21875 56 28.609375 56 
Q 40.484375 56 46.34375 49.84375 
Q 52.203125 43.703125 52.203125 31.203125 
z
" id="DejaVuSans-97"/>
       <path d="M 44.28125 53.078125 
L 44.28125 44.578125 
Q 40.484375 46.53125 36.375 47.5 
Q 32.28125 48.484375 27.875 48.484375 
Q 21.1875 48.484375 17.84375 46.4375 
Q 14.5 44.390625 14.5 40.28125 
Q 14.5 37.15625 16.890625 35.375 
Q 19.28125 33.59375 26.515625 31.984375 
L 29.59375 31.296875 
Q 39.15625 29.25 43.1875 25.515625 
Q 47.21875 21.78125 47.21875 15.09375 
Q 47.21875 7.46875 41.1875 3.015625 
Q 35.15625 -1.421875 24.609375 -1.421875 
Q 20.21875 -1.421875 15.453125 -0.5625 
Q 10.6875 0.296875 5.421875 2 
L 5.421875 11.28125 
Q 10.40625 8.6875 15.234375 7.390625 
Q 20.0625 6.109375 24.8125 6.109375 
Q 31.15625 6.109375 34.5625 8.28125 
Q 37.984375 10.453125 37.984375 14.40625 
Q 37.984375 18.0625 35.515625 20.015625 
Q 33.0625 21.96875 24.703125 23.78125 
L 21.578125 24.515625 
Q 13.234375 26.265625 9.515625 29.90625 
Q 5.8125 33.546875 5.8125 39.890625 
Q 5.8125 47.609375 11.28125 51.796875 
Q 16.75 56 26.8125 56 
Q 31.78125 56 36.171875 55.265625 
Q 40.578125 54.546875 44.28125 53.078125 
z
" id="DejaVuSans-115"/>
       <path d="M 25.390625 72.90625 
L 33.6875 72.90625 
L 8.296875 -9.28125 
L 0 -9.28125 
z
" id="DejaVuSans-47"/>
       <path d="M 45.40625 46.390625 
L 45.40625 75.984375 
L 54.390625 75.984375 
L 54.390625 0 
L 45.40625 0 
L 45.40625 8.203125 
Q 42.578125 3.328125 38.25 0.953125 
Q 33.9375 -1.421875 27.875 -1.421875 
Q 17.96875 -1.421875 11.734375 6.484375 
Q 5.515625 14.40625 5.515625 27.296875 
Q 5.515625 40.1875 11.734375 48.09375 
Q 17.96875 56 27.875 56 
Q 33.9375 56 38.25 53.625 
Q 42.578125 51.265625 45.40625 46.390625 
z
M 14.796875 27.296875 
Q 14.796875 17.390625 18.875 11.75 
Q 22.953125 6.109375 30.078125 6.109375 
Q 37.203125 6.109375 41.296875 11.75 
Q 45.40625 17.390625 45.40625 27.296875 
Q 45.40625 37.203125 41.296875 42.84375 
Q 37.203125 48.484375 30.078125 48.484375 
Q 22.953125 48.484375 18.875 42.84375 
Q 14.796875 37.203125 14.796875 27.296875 
z
" id="DejaVuSans-100"/>
       <path d="M 9.421875 54.6875 
L 18.40625 54.6875 
L 18.40625 0 
L 9.421875 0 
z
M 9.421875 75.984375 
L 18.40625 75.984375 
L 18.40625 64.59375 
L 9.421875 64.59375 
z
" id="DejaVuSans-105"/>
       <path d="M 52 44.1875 
Q 55.375 50.25 60.0625 53.125 
Q 64.75 56 71.09375 56 
Q 79.640625 56 84.28125 50.015625 
Q 88.921875 44.046875 88.921875 33.015625 
L 88.921875 0 
L 79.890625 0 
L 79.890625 32.71875 
Q 79.890625 40.578125 77.09375 44.375 
Q 74.3125 48.1875 68.609375 48.1875 
Q 61.625 48.1875 57.5625 43.546875 
Q 53.515625 38.921875 53.515625 30.90625 
L 53.515625 0 
L 44.484375 0 
L 44.484375 32.71875 
Q 44.484375 40.625 41.703125 44.40625 
Q 38.921875 48.1875 33.109375 48.1875 
Q 26.21875 48.1875 22.15625 43.53125 
Q 18.109375 38.875 18.109375 30.90625 
L 18.109375 0 
L 9.078125 0 
L 9.078125 54.6875 
L 18.109375 54.6875 
L 18.109375 46.1875 
Q 21.1875 51.21875 25.484375 53.609375 
Q 29.78125 56 35.6875 56 
Q 41.65625 56 45.828125 52.96875 
Q 50 49.953125 52 44.1875 
z
" id="DejaVuSans-109"/>
       <path d="M 54.890625 33.015625 
L 54.890625 0 
L 45.90625 0 
L 45.90625 32.71875 
Q 45.90625 40.484375 42.875 44.328125 
Q 39.84375 48.1875 33.796875 48.1875 
Q 26.515625 48.1875 22.3125 43.546875 
Q 18.109375 38.921875 18.109375 30.90625 
L 18.109375 0 
L 9.078125 0 
L 9.078125 54.6875 
L 18.109375 54.6875 
L 18.109375 46.1875 
Q 21.34375 51.125 25.703125 53.5625 
Q 30.078125 56 35.796875 56 
Q 45.21875 56 50.046875 50.171875 
Q 54.890625 44.34375 54.890625 33.015625 
z
" id="DejaVuSans-110"/>
       <path d="M 8.015625 75.875 
L 15.828125 75.875 
Q 23.140625 64.359375 26.78125 53.3125 
Q 30.421875 42.28125 30.421875 31.390625 
Q 30.421875 20.453125 26.78125 9.375 
Q 23.140625 -1.703125 15.828125 -13.1875 
L 8.015625 -13.1875 
Q 14.5 -2 17.703125 9.0625 
Q 20.90625 20.125 20.90625 31.390625 
Q 20.90625 42.671875 17.703125 53.65625 
Q 14.5 64.65625 8.015625 75.875 
z
" id="DejaVuSans-41"/>
      </defs>
      <use xlink:href="#DejaVuSans-108"/>
      <use x="27.783203" xlink:href="#DejaVuSans-111"/>
      <use x="88.964844" xlink:href="#DejaVuSans-103"/>
      <use x="152.441406" xlink:href="#DejaVuSans-49"/>
      <use x="216.064453" xlink:href="#DejaVuSans-48"/>
      <use x="279.6875" xlink:href="#DejaVuSans-40"/>
      <use x="318.701172" xlink:href="#DejaVuSans-35"/>
      <use x="402.490234" xlink:href="#DejaVuSans-32"/>
      <use x="434.277344" xlink:href="#DejaVuSans-102"/>
      <use x="463.982422" xlink:href="#DejaVuSans-45"/>
      <use x="500.066406" xlink:href="#DejaVuSans-101"/>
      <use x="561.589844" xlink:href="#DejaVuSans-118"/>
      <use x="620.769531" xlink:href="#DejaVuSans-97"/>
      <use x="682.048828" xlink:href="#DejaVuSans-108"/>
      <use x="709.832031" xlink:href="#DejaVuSans-115"/>
      <use x="761.931641" xlink:href="#DejaVuSans-32"/>
      <use x="793.71875" xlink:href="#DejaVuSans-47"/>
      <use x="827.410156" xlink:href="#DejaVuSans-32"/>
      <use x="859.197266" xlink:href="#DejaVuSans-100"/>
      <use x="922.673828" xlink:href="#DejaVuSans-105"/>
      <use x="950.457031" xlink:href="#DejaVuSans-109"/>
      <use x="1047.869141" xlink:href="#DejaVuSans-101"/>
      <use x="1109.392578" xlink:href="#DejaVuSans-110"/>
      <use x="1172.771484" xlink:href="#DejaVuSans-115"/>
      <use x="1224.871094" xlink:href="#DejaVuSans-105"/>
      <use x="1252.654297" xlink:href="#DejaVuSans-111"/>
      <use x="1313.835938" xlink:href="#DejaVuSans-110"/>
      <use x="1377.214844" xlink:href="#DejaVuSans-41"/>
     </g>
    </g>
   </g>
   <g id="matplotlib.axis_2">
    <g id="ytick_1">
     <g id="line2d_21">
      <path clip-path="url(#p277f899938)" d="M 57.6 298.944 
L 338.688 298.944 
" style="fill:none;stroke:#b0b0b0;stroke-linecap:square;stroke-width:0.8;"/>
     </g>
     <g id="line2d_22">
      <defs>
       <path d="M 0 0 
L -3.5 0 
" id="mdfc58f1e3c" style="stroke:#000000;stroke-width:0.8;"/>
      </defs>
      <g>
       <use style="stroke:#000000;stroke-width:0.8;" x="57.6" xlink:href="#mdfc58f1e3c" y="298.944"/>
      </g>
     </g>
     <g id="text_6">
      <!-- 0.0 -->
      <g transform="translate(25.155 305.02275)scale(0.16 -0.16)">
       <defs>
        <path d="M 10.6875 12.40625 
L 21 12.40625 
L 21 0 
L 10.6875 0 
z
" id="DejaVuSans-46"/>
       </defs>
       <use xlink:href="#DejaVuSans-48"/>
       <use x="63.623047" xlink:href="#DejaVuSans-46"/>
       <use x="95.410156" xlink:href="#DejaVuSans-48"/>
      </g>
     </g>
    </g>
    <g id="ytick_2">
     <g id="line2d_23">
      <path clip-path="url(#p277f899938)" d="M 57.6 245.22202 
L 338.688 245.22202 
" style="fill:none;stroke:#b0b0b0;stroke-linecap:square;stroke-width:0.8;"/>
     </g>
     <g id="line2d_24">
      <g>
       <use style="stroke:#000000;stroke-width:0.8;" x="57.6" xlink:href="#mdfc58f1e3c" y="245.22202"/>
      </g>
     </g>
     <g id="text_7">
      <!-- 0.2 -->
      <g transform="translate(25.155 251.30077)scale(0.16 -0.16)">
       <use xlink:href="#DejaVuSans-48"/>
       <use x="63.623047" xlink:href="#DejaVuSans-46"/>
       <use x="95.410156" xlink:href="#DejaVuSans-50"/>
      </g>
     </g>
    </g>
    <g id="ytick_3">
     <g id="line2d_25">
      <path clip-path="url(#p277f899938)" d="M 57.6 191.50004 
L 338.688 191.50004 
" style="fill:none;stroke:#b0b0b0;stroke-linecap:square;stroke-width:0.8;"/>
     </g>
     <g id="line2d_26">
      <g>
       <use style="stroke:#000000;stroke-width:0.8;" x="57.6" xlink:href="#mdfc58f1e3c" y="191.50004"/>
      </g>
     </g>
     <g id="text_8">
      <!-- 0.4 -->
      <g transform="translate(25.155 197.57879)scale(0.16 -0.16)">
       <use xlink:href="#DejaVuSans-48"/>
       <use x="63.623047" xlink:href="#DejaVuSans-46"/>
       <use x="95.410156" xlink:href="#DejaVuSans-52"/>
      </g>
     </g>
    </g>
    <g id="ytick_4">
     <g id="line2d_27">
      <path clip-path="url(#p277f899938)" d="M 57.6 137.778059 
L 338.688 137.778059 
" style="fill:none;stroke:#b0b0b0;stroke-linecap:square;stroke-width:0.8;"/>
     </g>
     <g id="line2d_28">
      <g>
       <use style="stroke:#000000;stroke-width:0.8;" x="57.6" xlink:href="#mdfc58f1e3c" y="137.778059"/>
      </g>
     </g>
     <g id="text_9">
      <!-- 0.6 -->
      <g transform="translate(25.155 143.856809)scale(0.16 -0.16)">
       <use xlink:href="#DejaVuSans-48"/>
       <use x="63.623047" xlink:href="#DejaVuSans-46"/>
       <use x="95.410156" xlink:href="#DejaVuSans-54"/>
      </g>
     </g>
    </g>
    <g id="ytick_5">
     <g id="line2d_29">
      <path clip-path="url(#p277f899938)" d="M 57.6 84.056079 
L 338.688 84.056079 
" style="fill:none;stroke:#b0b0b0;stroke-linecap:square;stroke-width:0.8;"/>
     </g>
     <g id="line2d_30">
      <g>
       <use style="stroke:#000000;stroke-width:0.8;" x="57.6" xlink:href="#mdfc58f1e3c" y="84.056079"/>
      </g>
     </g>
     <g id="text_10">
      <!-- 0.8 -->
      <g transform="translate(25.155 90.134829)scale(0.16 -0.16)">
       <defs>
        <path d="M 31.78125 34.625 
Q 24.75 34.625 20.71875 30.859375 
Q 16.703125 27.09375 16.703125 20.515625 
Q 16.703125 13.921875 20.71875 10.15625 
Q 24.75 6.390625 31.78125 6.390625 
Q 38.8125 6.390625 42.859375 10.171875 
Q 46.921875 13.96875 46.921875 20.515625 
Q 46.921875 27.09375 42.890625 30.859375 
Q 38.875 34.625 31.78125 34.625 
z
M 21.921875 38.8125 
Q 15.578125 40.375 12.03125 44.71875 
Q 8.5 49.078125 8.5 55.328125 
Q 8.5 64.0625 14.71875 69.140625 
Q 20.953125 74.21875 31.78125 74.21875 
Q 42.671875 74.21875 48.875 69.140625 
Q 55.078125 64.0625 55.078125 55.328125 
Q 55.078125 49.078125 51.53125 44.71875 
Q 48 40.375 41.703125 38.8125 
Q 48.828125 37.15625 52.796875 32.3125 
Q 56.78125 27.484375 56.78125 20.515625 
Q 56.78125 9.90625 50.3125 4.234375 
Q 43.84375 -1.421875 31.78125 -1.421875 
Q 19.734375 -1.421875 13.25 4.234375 
Q 6.78125 9.90625 6.78125 20.515625 
Q 6.78125 27.484375 10.78125 32.3125 
Q 14.796875 37.15625 21.921875 38.8125 
z
M 18.3125 54.390625 
Q 18.3125 48.734375 21.84375 45.5625 
Q 25.390625 42.390625 31.78125 42.390625 
Q 38.140625 42.390625 41.71875 45.5625 
Q 45.3125 48.734375 45.3125 54.390625 
Q 45.3125 60.0625 41.71875 63.234375 
Q 38.140625 66.40625 31.78125 66.40625 
Q 25.390625 66.40625 21.84375 63.234375 
Q 18.3125 60.0625 18.3125 54.390625 
z
" id="DejaVuSans-56"/>
       </defs>
       <use xlink:href="#DejaVuSans-48"/>
       <use x="63.623047" xlink:href="#DejaVuSans-46"/>
       <use x="95.410156" xlink:href="#DejaVuSans-56"/>
      </g>
     </g>
    </g>
    <g id="ytick_6">
     <g id="line2d_31">
      <path clip-path="url(#p277f899938)" d="M 57.6 30.334099 
L 338.688 30.334099 
" style="fill:none;stroke:#b0b0b0;stroke-linecap:square;stroke-width:0.8;"/>
     </g>
     <g id="line2d_32">
      <g>
       <use style="stroke:#000000;stroke-width:0.8;" x="57.6" xlink:href="#mdfc58f1e3c" y="30.334099"/>
      </g>
     </g>
     <g id="text_11">
      <!-- 1.0 -->
      <g transform="translate(25.155 36.412849)scale(0.16 -0.16)">
       <use xlink:href="#DejaVuSans-49"/>
       <use x="63.623047" xlink:href="#DejaVuSans-46"/>
       <use x="95.410156" xlink:href="#DejaVuSans-48"/>
      </g>
     </g>
    </g>
    <g id="text_12">
     <!-- Fraction of function,target pairs -->
     <g transform="translate(17.619531 297.681)rotate(-90)scale(0.17 -0.17)">
      <defs>
       <path d="M 9.8125 72.90625 
L 51.703125 72.90625 
L 51.703125 64.59375 
L 19.671875 64.59375 
L 19.671875 43.109375 
L 48.578125 43.109375 
L 48.578125 34.8125 
L 19.671875 34.8125 
L 19.671875 0 
L 9.8125 0 
z
" id="DejaVuSans-70"/>
       <path d="M 41.109375 46.296875 
Q 39.59375 47.171875 37.8125 47.578125 
Q 36.03125 48 33.890625 48 
Q 26.265625 48 22.1875 43.046875 
Q 18.109375 38.09375 18.109375 28.8125 
L 18.109375 0 
L 9.078125 0 
L 9.078125 54.6875 
L 18.109375 54.6875 
L 18.109375 46.1875 
Q 20.953125 51.171875 25.484375 53.578125 
Q 30.03125 56 36.53125 56 
Q 37.453125 56 38.578125 55.875 
Q 39.703125 55.765625 41.0625 55.515625 
z
" id="DejaVuSans-114"/>
       <path d="M 48.78125 52.59375 
L 48.78125 44.1875 
Q 44.96875 46.296875 41.140625 47.34375 
Q 37.3125 48.390625 33.40625 48.390625 
Q 24.65625 48.390625 19.8125 42.84375 
Q 14.984375 37.3125 14.984375 27.296875 
Q 14.984375 17.28125 19.8125 11.734375 
Q 24.65625 6.203125 33.40625 6.203125 
Q 37.3125 6.203125 41.140625 7.25 
Q 44.96875 8.296875 48.78125 10.40625 
L 48.78125 2.09375 
Q 45.015625 0.34375 40.984375 -0.53125 
Q 36.96875 -1.421875 32.421875 -1.421875 
Q 20.0625 -1.421875 12.78125 6.34375 
Q 5.515625 14.109375 5.515625 27.296875 
Q 5.515625 40.671875 12.859375 48.328125 
Q 20.21875 56 33.015625 56 
Q 37.15625 56 41.109375 55.140625 
Q 45.0625 54.296875 48.78125 52.59375 
z
" id="DejaVuSans-99"/>
       <path d="M 18.3125 70.21875 
L 18.3125 54.6875 
L 36.8125 54.6875 
L 36.8125 47.703125 
L 18.3125 47.703125 
L 18.3125 18.015625 
Q 18.3125 11.328125 20.140625 9.421875 
Q 21.96875 7.515625 27.59375 7.515625 
L 36.8125 7.515625 
L 36.8125 0 
L 27.59375 0 
Q 17.1875 0 13.234375 3.875 
Q 9.28125 7.765625 9.28125 18.015625 
L 9.28125 47.703125 
L 2.6875 47.703125 
L 2.6875 54.6875 
L 9.28125 54.6875 
L 9.28125 70.21875 
z
" id="DejaVuSans-116"/>
       <path d="M 8.5 21.578125 
L 8.5 54.6875 
L 17.484375 54.6875 
L 17.484375 21.921875 
Q 17.484375 14.15625 20.5 10.265625 
Q 23.53125 6.390625 29.59375 6.390625 
Q 36.859375 6.390625 41.078125 11.03125 
Q 45.3125 15.671875 45.3125 23.6875 
L 45.3125 54.6875 
L 54.296875 54.6875 
L 54.296875 0 
L 45.3125 0 
L 45.3125 8.40625 
Q 42.046875 3.421875 37.71875 1 
Q 33.40625 -1.421875 27.6875 -1.421875 
Q 18.265625 -1.421875 13.375 4.4375 
Q 8.5 10.296875 8.5 21.578125 
z
M 31.109375 56 
z
" id="DejaVuSans-117"/>
       <path d="M 11.71875 12.40625 
L 22.015625 12.40625 
L 22.015625 4 
L 14.015625 -11.625 
L 7.71875 -11.625 
L 11.71875 4 
z
" id="DejaVuSans-44"/>
       <path d="M 18.109375 8.203125 
L 18.109375 -20.796875 
L 9.078125 -20.796875 
L 9.078125 54.6875 
L 18.109375 54.6875 
L 18.109375 46.390625 
Q 20.953125 51.265625 25.265625 53.625 
Q 29.59375 56 35.59375 56 
Q 45.5625 56 51.78125 48.09375 
Q 58.015625 40.1875 58.015625 27.296875 
Q 58.015625 14.40625 51.78125 6.484375 
Q 45.5625 -1.421875 35.59375 -1.421875 
Q 29.59375 -1.421875 25.265625 0.953125 
Q 20.953125 3.328125 18.109375 8.203125 
z
M 48.6875 27.296875 
Q 48.6875 37.203125 44.609375 42.84375 
Q 40.53125 48.484375 33.40625 48.484375 
Q 26.265625 48.484375 22.1875 42.84375 
Q 18.109375 37.203125 18.109375 27.296875 
Q 18.109375 17.390625 22.1875 11.75 
Q 26.265625 6.109375 33.40625 6.109375 
Q 40.53125 6.109375 44.609375 11.75 
Q 48.6875 17.390625 48.6875 27.296875 
z
" id="DejaVuSans-112"/>
      </defs>
      <use xlink:href="#DejaVuSans-70"/>
      <use x="50.269531" xlink:href="#DejaVuSans-114"/>
      <use x="91.382812" xlink:href="#DejaVuSans-97"/>
      <use x="152.662109" xlink:href="#DejaVuSans-99"/>
      <use x="207.642578" xlink:href="#DejaVuSans-116"/>
      <use x="246.851562" xlink:href="#DejaVuSans-105"/>
      <use x="274.634766" xlink:href="#DejaVuSans-111"/>
      <use x="335.816406" xlink:href="#DejaVuSans-110"/>
      <use x="399.195312" xlink:href="#DejaVuSans-32"/>
      <use x="430.982422" xlink:href="#DejaVuSans-111"/>
      <use x="492.164062" xlink:href="#DejaVuSans-102"/>
      <use x="527.369141" xlink:href="#DejaVuSans-32"/>
      <use x="559.15625" xlink:href="#DejaVuSans-102"/>
      <use x="594.361328" xlink:href="#DejaVuSans-117"/>
      <use x="657.740234" xlink:href="#DejaVuSans-110"/>
      <use x="721.119141" xlink:href="#DejaVuSans-99"/>
      <use x="776.099609" xlink:href="#DejaVuSans-116"/>
      <use x="815.308594" xlink:href="#DejaVuSans-105"/>
      <use x="843.091797" xlink:href="#DejaVuSans-111"/>
      <use x="904.273438" xlink:href="#DejaVuSans-110"/>
      <use x="967.652344" xlink:href="#DejaVuSans-44"/>
      <use x="999.439453" xlink:href="#DejaVuSans-116"/>
      <use x="1038.648438" xlink:href="#DejaVuSans-97"/>
      <use x="1099.927734" xlink:href="#DejaVuSans-114"/>
      <use x="1139.291016" xlink:href="#DejaVuSans-103"/>
      <use x="1202.767578" xlink:href="#DejaVuSans-101"/>
      <use x="1264.291016" xlink:href="#DejaVuSans-116"/>
      <use x="1303.5" xlink:href="#DejaVuSans-32"/>
      <use x="1335.287109" xlink:href="#DejaVuSans-112"/>
      <use x="1398.763672" xlink:href="#DejaVuSans-97"/>
      <use x="1460.042969" xlink:href="#DejaVuSans-105"/>
      <use x="1487.826172" xlink:href="#DejaVuSans-114"/>
      <use x="1528.939453" xlink:href="#DejaVuSans-115"/>
     </g>
    </g>
   </g>
   <g id="line2d_33">
    <defs>
     <path d="M 0 1.5 
C 0.397805 1.5 0.77937 1.341951 1.06066 1.06066 
C 1.341951 0.77937 1.5 0.397805 1.5 0 
C 1.5 -0.397805 1.341951 -0.77937 1.06066 -1.06066 
C 0.77937 -1.341951 0.397805 -1.5 0 -1.5 
C -0.397805 -1.5 -0.77937 -1.341951 -1.06066 -1.06066 
C -1.341951 -0.77937 -1.5 -0.397805 -1.5 0 
C -1.5 0.397805 -1.341951 0.77937 -1.06066 1.06066 
C -0.77937 1.341951 -0.397805 1.5 0 1.5 
z
" id="m4fa0008fe5" style="stroke:#f5deb3;"/>
    </defs>
    <g>
     <use style="fill:#f5deb3;stroke:#f5deb3;" x="253.694162" xlink:href="#m4fa0008fe5" y="62.752535"/>
     <use style="fill:#f5deb3;stroke:#f5deb3;" x="253.694162" xlink:href="#m4fa0008fe5" y="62.752535"/>
    </g>
   </g>
   <g id="line2d_34">
    <defs>
     <path d="M 0 1.5 
C 0.397805 1.5 0.77937 1.341951 1.06066 1.06066 
C 1.341951 0.77937 1.5 0.397805 1.5 0 
C 1.5 -0.397805 1.341951 -0.77937 1.06066 -1.06066 
C 0.77937 -1.341951 0.397805 -1.5 0 -1.5 
C -0.397805 -1.5 -0.77937 -1.341951 -1.06066 -1.06066 
C -1.341951 -0.77937 -1.5 -0.397805 -1.5 0 
C -1.5 0.397805 -1.341951 0.77937 -1.06066 1.06066 
C -0.77937 1.341951 -0.397805 1.5 0 1.5 
z
" id="m580b7749ca" style="stroke:#000080;"/>
    </defs>
    <g>
     <use style="fill:#000080;stroke:#000080;" x="257.293163" xlink:href="#m580b7749ca" y="101.191538"/>
     <use style="fill:#000080;stroke:#000080;" x="257.293163" xlink:href="#m580b7749ca" y="101.191538"/>
    </g>
   </g>
   <g id="line2d_35">
    <path d="M 17.444571 298.944 
L 17.444571 290.607831 
L 57.6 290.607831 
L 57.6 290.14471 
L 67.850577 290.14471 
L 67.850577 289.218469 
L 71.35013 289.218469 
L 71.35013 288.755349 
L 79.447285 288.755349 
L 79.447285 288.292228 
L 79.938565 288.292228 
L 79.938565 287.829108 
L 95.326798 287.829108 
L 95.326798 287.365987 
L 99.731799 287.365987 
L 99.731799 286.439746 
L 109.843417 286.439746 
L 109.843417 285.976625 
L 111.663381 285.976625 
L 111.663381 285.513505 
L 116.739166 285.513505 
L 116.739166 285.050384 
L 116.856209 285.050384 
L 116.856209 284.587264 
L 117.087964 284.587264 
L 117.087964 284.124143 
L 117.486268 284.124143 
L 117.486268 283.661023 
L 125.717918 283.661023 
L 125.717918 283.197902 
L 126.773103 283.197902 
L 126.773103 282.734782 
L 128.229861 282.734782 
L 128.229861 282.271661 
L 129.825588 282.271661 
L 129.825588 281.808541 
L 135.721125 281.808541 
L 135.721125 280.8823 
L 141.732423 280.8823 
L 141.732423 280.419179 
L 142.037896 280.419179 
L 142.037896 279.956059 
L 144.306265 279.956059 
L 144.306265 279.492938 
L 145.0862 279.492938 
L 145.0862 279.029818 
L 145.710517 279.029818 
L 145.710517 278.103577 
L 146.074653 278.103577 
L 146.074653 277.640456 
L 146.313254 277.640456 
L 146.313254 277.177336 
L 148.325365 277.177336 
L 148.325365 276.714215 
L 150.318524 276.714215 
L 150.318524 276.251095 
L 152.774102 276.251095 
L 152.774102 275.787974 
L 153.959927 275.787974 
L 153.959927 275.324854 
L 154.634552 275.324854 
L 154.707925 274.398612 
L 154.8141 274.398612 
L 154.8141 273.935492 
L 155.495282 273.935492 
L 155.495282 273.472371 
L 155.634696 273.472371 
L 155.634696 273.009251 
L 155.97843 273.009251 
L 155.97843 272.08301 
L 156.448553 272.08301 
L 156.448553 271.156769 
L 157.540141 271.156769 
L 157.540141 270.230528 
L 158.031107 270.230528 
L 158.031107 269.767407 
L 160.872745 269.767407 
L 160.872745 269.304287 
L 161.528659 269.304287 
L 161.528659 268.841166 
L 163.090659 268.841166 
L 163.090659 268.378046 
L 165.017568 268.378046 
L 165.017568 267.914925 
L 165.178976 267.914925 
L 165.178976 267.451805 
L 165.378658 267.451805 
L 165.378658 266.525564 
L 165.536773 266.525564 
L 165.536773 266.062443 
L 166.456493 266.062443 
L 166.456493 265.599323 
L 167.820242 265.599323 
L 167.820242 265.136202 
L 169.052903 265.136202 
L 169.052903 264.673082 
L 169.244833 264.673082 
L 169.244833 264.209961 
L 169.528825 264.209961 
L 169.528825 263.28372 
L 170.294256 263.28372 
L 170.294256 262.8206 
L 170.561788 262.8206 
L 170.561788 262.357479 
L 171.868539 262.357479 
L 171.868539 261.894358 
L 172.618521 261.894358 
L 172.618521 261.431238 
L 173.512801 261.431238 
L 173.53769 260.041876 
L 175.083722 260.041876 
L 175.083722 259.578756 
L 175.350666 259.578756 
L 175.350666 258.652515 
L 176.524755 258.652515 
L 176.524755 258.189394 
L 177.182778 258.189394 
L 177.182778 257.726274 
L 177.719303 257.726274 
L 177.719303 257.263153 
L 178.144586 257.263153 
L 178.144586 256.800033 
L 178.334521 256.800033 
L 178.334521 255.873792 
L 178.503711 255.873792 
L 178.503711 255.410671 
L 179.247834 255.410671 
L 179.247834 254.48443 
L 180.698168 254.48443 
L 180.698168 254.02131 
L 181.041188 254.02131 
L 181.041188 253.558189 
L 181.660861 253.558189 
L 181.660861 253.095069 
L 181.800789 253.095069 
L 181.800789 252.631948 
L 182.587988 252.631948 
L 182.587988 251.705707 
L 182.8418 251.705707 
L 182.8418 251.242587 
L 183.527056 251.242587 
L 183.527056 250.779466 
L 184.144607 250.779466 
L 184.144607 249.853225 
L 184.439926 249.853225 
L 184.535259 248.463863 
L 184.658777 248.463863 
L 184.658777 247.537622 
L 185.182589 247.537622 
L 185.182589 246.611381 
L 185.784357 246.611381 
L 185.784357 246.148261 
L 185.931609 246.148261 
L 185.931609 245.68514 
L 186.113944 245.68514 
L 186.113944 245.22202 
L 186.342197 245.22202 
L 186.342197 244.758899 
L 186.917422 244.758899 
L 186.917422 244.295779 
L 187.474279 244.295779 
L 187.474279 243.369538 
L 187.707594 243.369538 
L 187.707594 242.906417 
L 188.024744 242.906417 
L 188.057226 241.053935 
L 188.767322 241.053935 
L 188.767322 240.590815 
L 188.901815 240.590815 
L 188.901815 239.201453 
L 189.93226 239.201453 
L 189.93226 238.275212 
L 190.27679 238.275212 
L 190.27679 237.812091 
L 190.514144 237.812091 
L 190.514144 237.348971 
L 190.877617 237.348971 
L 190.969394 235.959609 
L 191.313807 235.959609 
L 191.313807 235.033368 
L 191.74811 235.033368 
L 191.74811 234.570248 
L 191.935703 234.570248 
L 191.942 233.180886 
L 192.809385 233.180886 
L 192.809385 232.254645 
L 193.386795 232.254645 
L 193.386795 231.328404 
L 193.763035 231.328404 
L 193.804107 229.939043 
L 194.049225 229.939043 
L 194.049225 229.012802 
L 194.330794 229.012802 
L 194.330794 228.086561 
L 194.443661 228.086561 
L 194.443661 227.16032 
L 194.814695 227.16032 
L 194.814695 226.697199 
L 194.978789 226.697199 
L 194.978789 225.770958 
L 195.176692 225.770958 
L 195.176692 224.844717 
L 195.470362 224.844717 
L 195.470362 224.381596 
L 195.619507 224.381596 
L 195.681223 222.992235 
L 196.312409 222.992235 
L 196.372946 221.139753 
L 197.109228 221.139753 
L 197.109228 220.676632 
L 197.243886 220.676632 
L 197.352139 218.82415 
L 197.38385 218.82415 
L 197.418954 217.434789 
L 198.096632 217.434789 
L 198.097738 215.582307 
L 198.31534 215.582307 
L 198.425302 214.192945 
L 198.777699 214.192945 
L 198.777699 213.266704 
L 199.358739 213.266704 
L 199.392655 211.877342 
L 199.563284 211.877342 
L 199.611513 210.951101 
L 199.715133 210.951101 
L 199.715133 210.487981 
L 199.950901 210.487981 
L 199.950901 209.56174 
L 200.498577 209.56174 
L 200.498577 209.098619 
L 200.652084 209.098619 
L 200.652084 208.172378 
L 201.292586 208.172378 
L 201.361048 206.319896 
L 201.409133 206.319896 
L 201.409133 205.856776 
L 201.58658 205.856776 
L 201.58658 204.930535 
L 201.978249 204.930535 
L 202.072716 203.541173 
L 202.20866 203.541173 
L 202.20866 203.078053 
L 202.375165 203.078053 
L 202.43779 201.688691 
L 202.630297 201.688691 
L 202.630297 201.225571 
L 202.748009 201.225571 
L 202.761556 199.836209 
L 203.619896 199.836209 
L 203.619896 199.373088 
L 203.830925 199.373088 
L 203.879019 198.446847 
L 203.969284 198.446847 
L 203.969284 197.983727 
L 204.087346 197.983727 
L 204.087346 197.520606 
L 204.284684 197.520606 
L 204.376351 195.668124 
L 204.407955 195.668124 
L 204.423736 193.815642 
L 205.080247 193.815642 
L 205.129824 192.426281 
L 205.443968 192.426281 
L 205.443968 191.50004 
L 205.603977 191.50004 
L 205.691844 190.110678 
L 205.748275 190.110678 
L 205.748275 189.647558 
L 206.345542 189.647558 
L 206.399557 188.258196 
L 206.580333 188.258196 
L 206.580333 187.331955 
L 206.753196 187.331955 
L 206.848534 185.942593 
L 206.961323 185.942593 
L 206.961323 185.479473 
L 207.099147 185.479473 
L 207.099147 184.553232 
L 207.282976 184.553232 
L 207.282976 184.090111 
L 207.459393 184.090111 
L 207.459393 183.626991 
L 207.702077 183.626991 
L 207.702077 182.70075 
L 207.946146 182.70075 
L 207.946146 181.774509 
L 208.424882 181.774509 
L 208.531905 179.922027 
L 208.752706 179.922027 
L 208.832364 178.995786 
L 208.886062 178.995786 
L 208.886062 178.532665 
L 209.015449 178.532665 
L 209.015449 178.069545 
L 209.341453 178.069545 
L 209.341453 177.606424 
L 209.546851 177.606424 
L 209.627538 176.680183 
L 209.8564 176.680183 
L 209.8564 176.217062 
L 209.978809 176.217062 
L 210.051398 174.36458 
L 210.338771 174.36458 
L 210.338771 173.438339 
L 210.808158 173.438339 
L 210.886946 171.585857 
L 210.949774 171.585857 
L 210.949774 171.122737 
L 211.081585 171.122737 
L 211.081585 170.659616 
L 211.267841 170.659616 
L 211.305477 169.270255 
L 211.859224 169.270255 
L 211.859224 168.807134 
L 212.120488 168.807134 
L 212.160033 167.417773 
L 212.351788 167.417773 
L 212.351788 166.954652 
L 212.526475 166.954652 
L 212.547977 166.028411 
L 212.952266 166.028411 
L 213.053181 165.10217 
L 213.071232 165.10217 
L 213.071232 164.175929 
L 213.252812 164.175929 
L 213.252812 163.712808 
L 213.543933 163.712808 
L 213.586071 162.323447 
L 213.688144 162.323447 
L 213.688144 161.860326 
L 213.924463 161.860326 
L 213.924463 160.934085 
L 214.447787 160.934085 
L 214.447787 160.470965 
L 214.651856 160.470965 
L 214.67132 159.081603 
L 214.820744 159.081603 
L 214.860967 157.692242 
L 214.995987 157.692242 
L 214.995987 157.229121 
L 215.360603 157.229121 
L 215.427668 155.83976 
L 215.524425 155.83976 
L 215.524425 155.376639 
L 215.812517 155.376639 
L 215.812517 154.913519 
L 216.224879 154.913519 
L 216.274868 153.524157 
L 216.364915 153.524157 
L 216.364915 153.061037 
L 216.67885 153.061037 
L 216.67885 152.134795 
L 217.267986 152.134795 
L 217.281979 151.208554 
L 217.428052 151.208554 
L 217.481446 150.282313 
L 217.721244 150.282313 
L 217.807178 149.356072 
L 218.248376 149.356072 
L 218.248376 148.892952 
L 218.96178 148.892952 
L 218.993676 147.50359 
L 219.292418 147.50359 
L 219.292418 147.04047 
L 219.827642 147.04047 
L 219.827642 146.577349 
L 220.327773 146.577349 
L 220.327773 146.114229 
L 220.46632 146.114229 
L 220.551517 145.187988 
L 221.583717 145.187988 
L 221.583717 144.261747 
L 222.035715 144.261747 
L 222.114851 142.872385 
L 222.237598 142.872385 
L 222.247153 141.483024 
L 222.409074 141.483024 
L 222.496504 140.093662 
L 223.748282 140.093662 
L 223.846831 139.167421 
L 224.204764 139.167421 
L 224.284522 137.778059 
L 224.4471 137.778059 
L 224.530618 136.388698 
L 224.563016 136.388698 
L 224.563016 135.462457 
L 225.396479 135.462457 
L 225.396479 134.999336 
L 225.93183 134.999336 
L 225.93183 134.073095 
L 226.166947 134.073095 
L 226.166947 133.609975 
L 226.498276 133.609975 
L 226.498276 133.146854 
L 226.710822 133.146854 
L 226.710822 132.683734 
L 226.944409 132.683734 
L 226.944409 132.220613 
L 227.142523 132.220613 
L 227.224412 129.905011 
L 227.413007 129.905011 
L 227.413007 129.44189 
L 228.211671 129.44189 
L 228.211671 128.97877 
L 228.790448 128.97877 
L 228.790448 128.515649 
L 228.919257 128.515649 
L 228.920296 127.126287 
L 229.78939 127.126287 
L 229.78939 126.663167 
L 230.112663 126.663167 
L 230.112663 126.200046 
L 230.805875 126.200046 
L 230.805875 125.736926 
L 231.193257 125.736926 
L 231.193257 125.273805 
L 231.480818 125.273805 
L 231.480818 124.810685 
L 232.216333 124.810685 
L 232.216333 124.347564 
L 233.566403 124.347564 
L 233.566403 123.884444 
L 233.677816 123.884444 
L 233.677816 123.421323 
L 233.99557 123.421323 
L 233.99557 122.958203 
L 234.124824 122.958203 
L 234.124824 122.495082 
L 235.433421 122.495082 
L 235.433421 122.031962 
L 236.133821 122.031962 
L 236.133821 121.568841 
L 236.775607 121.568841 
L 236.775607 121.105721 
L 236.981419 121.105721 
L 236.981419 120.6426 
L 238.417937 120.6426 
L 238.417937 119.716359 
L 239.680288 119.716359 
L 239.680288 119.253239 
L 240.054444 119.253239 
L 240.054444 118.326998 
L 240.202916 118.326998 
L 240.202916 117.400757 
L 240.606867 117.400757 
L 240.606867 116.937636 
L 240.817444 116.937636 
L 240.817444 116.474516 
L 241.099217 116.474516 
L 241.099217 115.548274 
L 241.702444 115.548274 
L 241.810321 114.158913 
L 244.863222 114.158913 
L 244.958157 112.306431 
L 245.215471 112.306431 
L 245.215471 111.38019 
L 248.604823 111.38019 
L 248.604823 110.453949 
L 249.020359 110.453949 
L 249.020359 109.527708 
L 250.049119 109.527708 
L 250.049119 108.601467 
L 250.649499 108.601467 
L 250.649499 108.138346 
L 253.15432 108.138346 
L 253.15432 107.212105 
L 253.904193 107.212105 
L 253.904193 106.285864 
L 254.036351 106.285864 
L 254.036351 105.359623 
L 254.802426 105.359623 
L 254.802426 104.896503 
L 255.365731 104.896503 
L 255.365731 104.433382 
L 255.754057 104.433382 
L 255.754057 103.507141 
L 256.366887 103.507141 
L 256.366887 102.5809 
L 257.21445 102.5809 
L 257.293163 101.191538 
L 338.688 101.191538 
L 338.688 101.191538 
" style="fill:none;stroke:#000080;stroke-linecap:square;stroke-width:1.5;"/>
   </g>
   <g id="line2d_36">
    <defs>
     <path d="M 0 6 
C 1.591219 6 3.117479 5.367802 4.242641 4.242641 
C 5.367802 3.117479 6 1.591219 6 0 
C 6 -1.591219 5.367802 -3.117479 4.242641 -4.242641 
C 3.117479 -5.367802 1.591219 -6 0 -6 
C -1.591219 -6 -3.117479 -5.367802 -4.242641 -4.242641 
C -5.367802 -3.117479 -6 -1.591219 -6 0 
C -6 1.591219 -5.367802 3.117479 -4.242641 4.242641 
C -3.117479 5.367802 -1.591219 6 0 6 
z
" id="mbd18cc3dd0" style="stroke:#000080;stroke-width:1.5;"/>
    </defs>
    <g>
     <use style="fill-opacity:0;stroke:#000080;stroke-width:1.5;" x="117.486268" xlink:href="#mbd18cc3dd0" y="284.124143"/>
     <use style="fill-opacity:0;stroke:#000080;stroke-width:1.5;" x="186.113944" xlink:href="#mbd18cc3dd0" y="245.68514"/>
     <use style="fill-opacity:0;stroke:#000080;stroke-width:1.5;" x="222.496504" xlink:href="#mbd18cc3dd0" y="141.019903"/>
     <use style="fill-opacity:0;stroke:#000080;stroke-width:1.5;" x="257.293163" xlink:href="#mbd18cc3dd0" y="101.191538"/>
     <use style="fill-opacity:0;stroke:#000080;stroke-width:1.5;" x="257.293163" xlink:href="#mbd18cc3dd0" y="101.191538"/>
     <use style="fill-opacity:0;stroke:#000080;stroke-width:1.5;" x="338.688" xlink:href="#mbd18cc3dd0" y="101.191538"/>
    </g>
   </g>
   <g id="line2d_37">
    <path style="fill:none;stroke:#000080;stroke-linecap:square;stroke-width:1.5;"/>
    <g/>
   </g>
   <g id="line2d_38">
    <path clip-path="url(#p277f899938)" d="M 258.37716 101.191538 
" style="fill:none;stroke:#000080;stroke-linecap:square;stroke-width:1.5;"/>
    <defs>
     <path d="M -12 12 
L 12 -12 
M -12 -12 
L 12 12 
" id="ma9733ddf0c" style="stroke:#000080;"/>
    </defs>
    <g clip-path="url(#p277f899938)">
     <use style="fill:#000080;stroke:#000080;" x="258.37716" xlink:href="#ma9733ddf0c" y="101.191538"/>
    </g>
   </g>
   <g id="line2d_39">
    <defs>
     <path d="M 0 1.5 
C 0.397805 1.5 0.77937 1.341951 1.06066 1.06066 
C 1.341951 0.77937 1.5 0.397805 1.5 0 
C 1.5 -0.397805 1.341951 -0.77937 1.06066 -1.06066 
C 0.77937 -1.341951 0.397805 -1.5 0 -1.5 
C -0.397805 -1.5 -0.77937 -1.341951 -1.06066 -1.06066 
C -1.341951 -0.77937 -1.5 -0.397805 -1.5 0 
C -1.5 0.397805 -1.341951 0.77937 -1.06066 1.06066 
C -0.77937 1.341951 -0.397805 1.5 0 1.5 
z
" id="m3612de77d2" style="stroke:#ff00ff;"/>
    </defs>
    <g>
     <use style="fill:#ff00ff;stroke:#ff00ff;" x="258.265383" xlink:href="#m3612de77d2" y="187.795075"/>
     <use style="fill:#ff00ff;stroke:#ff00ff;" x="258.265383" xlink:href="#m3612de77d2" y="187.795075"/>
    </g>
   </g>
   <g id="line2d_40">
    <path d="M 17.444571 298.944 
L 17.444571 291.997192 
L 125.291682 291.997192 
L 125.327602 291.070951 
L 125.682793 291.070951 
L 125.682793 290.607831 
L 132.254495 290.607831 
L 132.254495 290.14471 
L 132.374684 290.14471 
L 132.374684 289.68159 
L 133.032848 289.68159 
L 133.032848 289.218469 
L 133.170708 289.218469 
L 133.170708 288.755349 
L 134.12805 288.755349 
L 134.12805 288.292228 
L 134.321942 288.292228 
L 134.407429 287.365987 
L 134.47127 287.365987 
L 134.47127 286.902867 
L 134.598256 286.902867 
L 134.598256 286.439746 
L 134.807865 286.439746 
L 134.807865 285.513505 
L 135.076644 285.513505 
L 135.076644 285.050384 
L 136.150782 285.050384 
L 136.150782 284.587264 
L 136.266147 284.587264 
L 136.266147 284.124143 
L 136.380754 284.124143 
L 136.380754 283.661023 
L 136.58893 283.661023 
L 136.58893 283.197902 
L 136.738785 283.197902 
L 136.738785 282.734782 
L 138.290362 282.734782 
L 138.307417 281.808541 
L 138.828032 281.808541 
L 138.828032 281.34542 
L 138.959898 281.34542 
L 138.959898 280.8823 
L 139.155847 280.8823 
L 139.155847 280.419179 
L 139.317473 280.419179 
L 139.317473 279.956059 
L 139.746525 279.956059 
L 139.824833 278.566697 
L 139.995884 278.566697 
L 139.995884 278.103577 
L 140.180592 278.103577 
L 140.180592 277.640456 
L 141.350061 277.640456 
L 141.45 276.251095 
L 141.521035 276.251095 
L 141.521035 275.787974 
L 142.243147 275.787974 
L 142.243147 275.324854 
L 142.526499 275.324854 
L 142.526499 274.861733 
L 142.857929 274.861733 
L 142.857929 274.398612 
L 143.105668 274.398612 
L 143.105668 273.935492 
L 143.502469 273.935492 
L 143.502469 273.472371 
L 144.062866 273.472371 
L 144.148442 272.54613 
L 145.0862 272.54613 
L 145.0862 271.619889 
L 145.304409 271.619889 
L 145.384119 270.230528 
L 145.932112 270.230528 
L 145.932112 269.767407 
L 146.484754 269.767407 
L 146.527367 268.841166 
L 146.812312 268.841166 
L 146.812312 268.378046 
L 147.995947 268.378046 
L 147.995947 267.914925 
L 150.808139 267.914925 
L 150.858013 266.062443 
L 151.653058 266.062443 
L 151.653058 265.136202 
L 152.114793 265.136202 
L 152.114793 264.673082 
L 152.781537 264.673082 
L 152.781537 264.209961 
L 153.229193 264.209961 
L 153.229193 263.28372 
L 153.973817 263.28372 
L 153.973817 262.8206 
L 154.661269 262.8206 
L 154.661269 262.357479 
L 155.102793 262.357479 
L 155.102793 261.894358 
L 156.610446 261.894358 
L 156.610446 261.431238 
L 157.574059 261.431238 
L 157.61918 260.041876 
L 158.162642 260.041876 
L 158.162642 259.578756 
L 158.747853 259.578756 
L 158.747853 259.115635 
L 160.249422 259.115635 
L 160.249422 258.652515 
L 161.026314 258.652515 
L 161.026314 258.189394 
L 164.00081 258.189394 
L 164.00081 257.726274 
L 164.554485 257.726274 
L 164.554485 257.263153 
L 164.727712 257.263153 
L 164.727712 256.336912 
L 165.262757 256.336912 
L 165.262757 255.873792 
L 168.527503 255.873792 
L 168.527503 254.947551 
L 169.543046 254.947551 
L 169.543046 254.48443 
L 170.859585 254.48443 
L 170.859585 253.558189 
L 171.569909 253.558189 
L 171.675893 252.168828 
L 173.070232 252.168828 
L 173.070232 251.705707 
L 173.243551 251.705707 
L 173.243551 251.242587 
L 174.028154 251.242587 
L 174.028154 250.316346 
L 176.004603 250.316346 
L 176.004603 249.390104 
L 176.190077 249.390104 
L 176.190077 248.463863 
L 177.066817 248.463863 
L 177.066817 248.000743 
L 180.372728 248.000743 
L 180.372728 247.074502 
L 180.704165 247.074502 
L 180.704165 246.611381 
L 181.228395 246.611381 
L 181.228395 246.148261 
L 182.233195 246.148261 
L 182.233195 245.68514 
L 182.730044 245.68514 
L 182.730044 244.758899 
L 185.252027 244.758899 
L 185.252027 244.295779 
L 185.438139 244.295779 
L 185.438139 243.369538 
L 186.042342 243.369538 
L 186.042342 242.906417 
L 186.261721 242.906417 
L 186.370384 240.590815 
L 186.858534 240.590815 
L 186.869065 239.201453 
L 187.654338 239.201453 
L 187.717624 238.275212 
L 188.150397 238.275212 
L 188.150397 237.812091 
L 188.358473 237.812091 
L 188.358473 236.88585 
L 189.282687 236.88585 
L 189.282687 236.42273 
L 189.623986 236.42273 
L 189.645546 235.033368 
L 190.995171 235.033368 
L 190.995171 234.570248 
L 191.502877 234.570248 
L 191.502877 234.107127 
L 191.898661 234.107127 
L 191.935703 232.717766 
L 192.808636 232.717766 
L 192.808636 232.254645 
L 193.755234 232.254645 
L 193.755234 231.328404 
L 195.381422 231.328404 
L 195.381422 230.402163 
L 195.509532 230.402163 
L 195.509532 229.475922 
L 195.920916 229.475922 
L 195.920916 228.549681 
L 196.827239 228.549681 
L 196.827239 227.62344 
L 197.004163 227.62344 
L 197.004163 227.16032 
L 197.215409 227.16032 
L 197.215409 226.697199 
L 197.338283 226.697199 
L 197.338283 225.770958 
L 197.540406 225.770958 
L 197.540406 225.307837 
L 197.861139 225.307837 
L 197.861139 224.844717 
L 198.026262 224.844717 
L 198.136953 223.455355 
L 198.159007 223.455355 
L 198.159007 222.529114 
L 198.951789 222.529114 
L 198.951789 222.065994 
L 199.378275 222.065994 
L 199.378275 221.602873 
L 199.648483 221.602873 
L 199.648483 220.676632 
L 200.451777 220.676632 
L 200.451777 219.750391 
L 200.967304 219.750391 
L 200.967304 219.287271 
L 201.43655 219.287271 
L 201.43655 218.82415 
L 202.581194 218.82415 
L 202.581194 217.897909 
L 202.940072 217.897909 
L 202.940072 216.971668 
L 203.053637 216.971668 
L 203.053637 216.045427 
L 203.615464 216.045427 
L 203.615464 215.582307 
L 204.203835 215.582307 
L 204.203835 214.656066 
L 206.30967 214.656066 
L 206.406769 213.266704 
L 206.634643 213.266704 
L 206.634643 212.340463 
L 207.026395 212.340463 
L 207.026395 211.414222 
L 208.008278 211.414222 
L 208.008278 210.951101 
L 209.514414 210.951101 
L 209.514414 210.487981 
L 209.839769 210.487981 
L 209.839769 209.56174 
L 211.536256 209.56174 
L 211.536256 209.098619 
L 214.319784 209.098619 
L 214.319784 208.635499 
L 216.178668 208.635499 
L 216.178668 207.709258 
L 217.240334 207.709258 
L 217.240334 207.246137 
L 219.203463 207.246137 
L 219.203463 206.319896 
L 220.363902 206.319896 
L 220.363902 205.856776 
L 223.416396 205.856776 
L 223.454935 204.467414 
L 225.210109 204.467414 
L 225.210109 204.004294 
L 225.981298 204.004294 
L 225.981298 203.078053 
L 226.10791 203.078053 
L 226.10791 202.151812 
L 226.646179 202.151812 
L 226.646179 201.225571 
L 226.943351 201.225571 
L 226.943351 200.76245 
L 227.456501 200.76245 
L 227.456501 200.299329 
L 228.770077 200.299329 
L 228.770077 199.836209 
L 229.417296 199.836209 
L 229.43124 198.446847 
L 229.846075 198.446847 
L 229.846075 197.983727 
L 230.148871 197.983727 
L 230.148871 197.520606 
L 232.358018 197.520606 
L 232.358018 196.594365 
L 235.364387 196.594365 
L 235.364387 196.131245 
L 237.789212 196.131245 
L 237.789212 195.668124 
L 239.878926 195.668124 
L 239.878926 194.741883 
L 240.232065 194.741883 
L 240.232065 193.815642 
L 240.424013 193.815642 
L 240.424013 193.352522 
L 240.604983 193.352522 
L 240.604983 192.889401 
L 240.959207 192.889401 
L 240.959207 192.426281 
L 246.003828 192.426281 
L 246.003828 191.96316 
L 246.603627 191.96316 
L 246.603627 191.50004 
L 247.34056 191.50004 
L 247.34056 191.036919 
L 247.606188 191.036919 
L 247.606188 190.573799 
L 254.462426 190.573799 
L 254.462426 190.110678 
L 254.789877 190.110678 
L 254.789877 189.647558 
L 256.931347 189.647558 
L 256.931347 188.721316 
L 258.265383 188.721316 
L 258.265383 187.795075 
L 338.688 187.795075 
L 338.688 187.795075 
" style="fill:none;stroke:#ff00ff;stroke-linecap:square;stroke-width:1.5;"/>
   </g>
   <g id="line2d_41">
    <defs>
     <path d="M 0 8.485281 
L 5.091169 0 
L 0 -8.485281 
L -5.091169 0 
z
" id="mb7335c6d0c" style="stroke:#ff00ff;stroke-linejoin:miter;stroke-width:1.5;"/>
    </defs>
    <g>
     <use style="fill-opacity:0;stroke:#ff00ff;stroke-linejoin:miter;stroke-width:1.5;" x="158.747853" xlink:href="#mb7335c6d0c" y="259.578756"/>
     <use style="fill-opacity:0;stroke:#ff00ff;stroke-linejoin:miter;stroke-width:1.5;" x="226.943351" xlink:href="#mb7335c6d0c" y="200.76245"/>
     <use style="fill-opacity:0;stroke:#ff00ff;stroke-linejoin:miter;stroke-width:1.5;" x="258.265383" xlink:href="#mb7335c6d0c" y="188.721316"/>
     <use style="fill-opacity:0;stroke:#ff00ff;stroke-linejoin:miter;stroke-width:1.5;" x="258.265383" xlink:href="#mb7335c6d0c" y="187.795075"/>
     <use style="fill-opacity:0;stroke:#ff00ff;stroke-linejoin:miter;stroke-width:1.5;" x="338.688" xlink:href="#mb7335c6d0c" y="187.795075"/>
    </g>
   </g>
   <g id="line2d_42">
    <path style="fill:none;stroke:#ff00ff;stroke-linecap:square;stroke-width:1.5;"/>
    <g/>
   </g>
   <g id="line2d_43">
    <path clip-path="url(#p277f899938)" d="M 258.379445 187.795075 
" style="fill:none;stroke:#ff00ff;stroke-linecap:square;stroke-width:1.5;"/>
    <defs>
     <path d="M -12 12 
L 12 -12 
M -12 -12 
L 12 12 
" id="m9d6e38f76a" style="stroke:#ff00ff;"/>
    </defs>
    <g clip-path="url(#p277f899938)">
     <use style="fill:#ff00ff;stroke:#ff00ff;" x="258.379445" xlink:href="#m9d6e38f76a" y="187.795075"/>
    </g>
   </g>
   <g id="line2d_44">
    <defs>
     <path d="M 0 1.5 
C 0.397805 1.5 0.77937 1.341951 1.06066 1.06066 
C 1.341951 0.77937 1.5 0.397805 1.5 0 
C 1.5 -0.397805 1.341951 -0.77937 1.06066 -1.06066 
C 0.77937 -1.341951 0.397805 -1.5 0 -1.5 
C -0.397805 -1.5 -0.77937 -1.341951 -1.06066 -1.06066 
C -1.341951 -0.77937 -1.5 -0.397805 -1.5 0 
C -1.5 0.397805 -1.341951 0.77937 -1.06066 1.06066 
C -0.77937 1.341951 -0.397805 1.5 0 1.5 
z
" id="m7b2930efe0" style="stroke:#ff7500;"/>
    </defs>
    <g>
     <use style="fill:#ff7500;stroke:#ff7500;" x="254.711295" xlink:href="#m7b2930efe0" y="124.810685"/>
     <use style="fill:#ff7500;stroke:#ff7500;" x="254.711295" xlink:href="#m7b2930efe0" y="124.810685"/>
    </g>
   </g>
   <g id="line2d_45">
    <path d="M 153.27261 298.944 
L 153.27261 298.480879 
L 154.68128 298.480879 
L 154.68128 298.017759 
L 154.991819 298.017759 
L 154.991819 297.554638 
L 156.046372 297.554638 
L 156.138594 296.628397 
L 156.394253 296.628397 
L 156.394253 295.702156 
L 156.646219 295.702156 
L 156.646219 295.239036 
L 157.197287 295.239036 
L 157.249147 293.849674 
L 157.312322 293.849674 
L 157.318054 292.923433 
L 157.681031 292.923433 
L 157.681031 292.460313 
L 158.168101 292.460313 
L 158.24435 291.070951 
L 158.636623 291.070951 
L 158.742573 290.14471 
L 158.795307 290.14471 
L 158.795307 289.68159 
L 159.144574 289.68159 
L 159.144574 289.218469 
L 159.278248 289.218469 
L 159.324282 288.292228 
L 159.527421 288.292228 
L 159.552648 287.365987 
L 159.872369 287.365987 
L 159.971091 285.050384 
L 160.093714 285.050384 
L 160.176607 283.197902 
L 160.210625 283.197902 
L 160.278464 282.271661 
L 160.475629 282.271661 
L 160.575759 281.34542 
L 160.713095 281.34542 
L 160.713095 280.8823 
L 160.844678 280.8823 
L 160.8961 279.492938 
L 160.970627 279.492938 
L 161.049465 278.103577 
L 161.183135 278.103577 
L 161.192316 277.177336 
L 161.302112 277.177336 
L 161.302112 276.714215 
L 161.429341 276.714215 
L 161.501628 275.787974 
L 161.591568 275.787974 
L 161.591568 275.324854 
L 161.778945 275.324854 
L 161.818836 274.398612 
L 161.920369 274.398612 
L 161.999419 273.472371 
L 162.051921 273.472371 
L 162.121678 271.156769 
L 162.470604 271.156769 
L 162.470604 270.693648 
L 162.589615 270.693648 
L 162.636148 269.304287 
L 162.887802 269.304287 
L 162.958448 267.451805 
L 163.024679 267.451805 
L 163.074187 266.062443 
L 163.221874 266.062443 
L 163.291183 265.136202 
L 163.537636 265.136202 
L 163.573705 263.28372 
L 163.677486 263.28372 
L 163.764822 261.894358 
L 163.820172 261.894358 
L 163.875347 260.968117 
L 164.074879 260.968117 
L 164.164122 259.578756 
L 164.237502 259.578756 
L 164.279845 258.189394 
L 164.383342 258.189394 
L 164.440577 256.800033 
L 164.573397 256.800033 
L 164.652607 255.410671 
L 164.884386 255.410671 
L 164.984368 253.558189 
L 165.153397 253.558189 
L 165.153397 252.631948 
L 165.335285 252.631948 
L 165.364212 250.779466 
L 165.536773 250.779466 
L 165.604609 249.390104 
L 165.746566 249.390104 
L 165.746566 248.926984 
L 166.10341 248.926984 
L 166.20699 247.074502 
L 166.347561 247.074502 
L 166.446309 245.22202 
L 166.554628 245.22202 
L 166.615263 243.832658 
L 166.689087 243.832658 
L 166.799241 242.443297 
L 166.805895 242.443297 
L 166.805895 241.980176 
L 167.271933 241.980176 
L 167.275171 240.590815 
L 167.442734 240.590815 
L 167.538677 239.201453 
L 167.627751 239.201453 
L 167.678446 236.88585 
L 167.929737 236.88585 
L 167.932855 235.033368 
L 168.165155 235.033368 
L 168.177458 234.107127 
L 168.318321 234.107127 
L 168.318321 233.644007 
L 168.698434 233.644007 
L 168.698434 233.180886 
L 168.885428 233.180886 
L 168.917874 231.791525 
L 169.049979 231.791525 
L 169.140406 229.939043 
L 169.166572 229.939043 
L 169.166572 229.012802 
L 169.528825 229.012802 
L 169.528825 228.086561 
L 169.897641 228.086561 
L 169.981016 226.697199 
L 170.02532 226.697199 
L 170.088811 225.307837 
L 170.261547 225.307837 
L 170.261547 224.844717 
L 170.532264 224.844717 
L 170.532264 223.918476 
L 170.977818 223.918476 
L 170.977818 222.992235 
L 171.118647 222.992235 
L 171.118647 222.065994 
L 171.327782 222.065994 
L 171.412271 218.36103 
L 171.602783 218.36103 
L 171.602783 217.434789 
L 171.977674 217.434789 
L 171.977674 216.971668 
L 172.325296 216.971668 
L 172.393031 215.582307 
L 173.08184 215.582307 
L 173.08184 214.656066 
L 173.406055 214.656066 
L 173.406055 213.729825 
L 173.672827 213.729825 
L 173.672827 212.803583 
L 173.80915 212.803583 
L 173.822502 210.951101 
L 173.957665 210.951101 
L 173.995148 208.172378 
L 174.573514 208.172378 
L 174.679722 206.783017 
L 174.705116 206.783017 
L 174.705116 205.856776 
L 174.942445 205.856776 
L 174.942445 205.393655 
L 175.393407 205.393655 
L 175.393407 204.467414 
L 175.84885 204.467414 
L 175.84885 204.004294 
L 176.118074 204.004294 
L 176.118074 203.078053 
L 176.265652 203.078053 
L 176.265652 202.614932 
L 176.4369 202.614932 
L 176.520945 200.76245 
L 176.570418 200.76245 
L 176.680278 199.836209 
L 177.02614 199.836209 
L 177.02614 198.909968 
L 177.339841 198.909968 
L 177.339841 198.446847 
L 177.630126 198.446847 
L 177.703285 197.520606 
L 177.875154 197.520606 
L 177.875154 196.594365 
L 178.055819 196.594365 
L 178.115047 195.668124 
L 178.370547 195.668124 
L 178.370547 195.205004 
L 179.220107 195.205004 
L 179.299906 194.278763 
L 179.340479 194.278763 
L 179.356682 193.352522 
L 179.588351 193.352522 
L 179.617095 192.426281 
L 181.137967 192.426281 
L 181.244389 191.036919 
L 181.534102 191.036919 
L 181.559813 190.110678 
L 181.757093 190.110678 
L 181.757093 189.184437 
L 182.718027 189.184437 
L 182.718027 188.721316 
L 183.119403 188.721316 
L 183.222213 186.868834 
L 183.437572 186.868834 
L 183.437572 186.405714 
L 183.630033 186.405714 
L 183.630033 185.942593 
L 183.95155 185.942593 
L 183.95155 185.479473 
L 184.327027 185.479473 
L 184.327027 185.016352 
L 184.508763 185.016352 
L 184.508763 184.553232 
L 185.201133 184.553232 
L 185.201133 184.090111 
L 185.446137 184.090111 
L 185.446137 183.16387 
L 185.747349 183.16387 
L 185.747349 182.237629 
L 185.873749 182.237629 
L 185.873749 181.774509 
L 186.225713 181.774509 
L 186.280242 180.848268 
L 186.409338 180.848268 
L 186.415822 178.995786 
L 186.805787 178.995786 
L 186.805787 178.532665 
L 187.034606 178.532665 
L 187.034606 177.606424 
L 187.175849 177.606424 
L 187.175849 176.680183 
L 187.951685 176.680183 
L 187.951685 176.217062 
L 188.966341 176.217062 
L 189.065005 174.36458 
L 189.6033 174.36458 
L 189.6033 173.90146 
L 189.759193 173.90146 
L 189.759193 173.438339 
L 190.065106 173.438339 
L 190.065106 172.975219 
L 190.857528 172.975219 
L 190.857528 172.512098 
L 191.747314 172.512098 
L 191.747314 172.048978 
L 192.091675 172.048978 
L 192.141541 171.122737 
L 192.206775 171.122737 
L 192.240849 170.196496 
L 192.866203 170.196496 
L 192.904227 169.270255 
L 193.682024 169.270255 
L 193.682024 168.807134 
L 195.715487 168.807134 
L 195.715487 167.880893 
L 196.013386 167.880893 
L 196.013386 167.417773 
L 196.151178 167.417773 
L 196.151178 166.491532 
L 196.964674 166.491532 
L 196.964674 165.565291 
L 197.101034 165.565291 
L 197.101034 165.10217 
L 197.400547 165.10217 
L 197.400547 164.63905 
L 198.920169 164.63905 
L 198.920169 164.175929 
L 199.176214 164.175929 
L 199.278829 162.786567 
L 199.536829 162.786567 
L 199.536829 162.323447 
L 199.866172 162.323447 
L 199.866172 161.860326 
L 200.415989 161.860326 
L 200.502431 160.934085 
L 201.20258 160.934085 
L 201.20258 160.007844 
L 201.89439 160.007844 
L 201.89439 159.544724 
L 203.03365 159.544724 
L 203.03365 158.618483 
L 203.276108 158.618483 
L 203.276108 157.692242 
L 203.479944 157.692242 
L 203.479944 157.229121 
L 203.765527 157.229121 
L 203.765527 156.30288 
L 204.476746 156.30288 
L 204.536095 155.376639 
L 205.009336 155.376639 
L 205.009336 154.913519 
L 205.227822 154.913519 
L 205.234434 153.524157 
L 206.913694 153.524157 
L 206.913694 153.061037 
L 207.990101 153.061037 
L 207.990101 152.597916 
L 208.203272 152.597916 
L 208.203272 152.134795 
L 208.494171 152.134795 
L 208.494171 151.671675 
L 209.191071 151.671675 
L 209.191071 151.208554 
L 211.165424 151.208554 
L 211.165424 150.745434 
L 211.65051 150.745434 
L 211.651018 149.819193 
L 213.180547 149.819193 
L 213.180547 149.356072 
L 213.366988 149.356072 
L 213.366988 148.892952 
L 214.217623 148.892952 
L 214.217623 148.429831 
L 214.504209 148.429831 
L 214.504209 147.966711 
L 214.848063 147.966711 
L 214.848063 147.50359 
L 215.648563 147.50359 
L 215.648563 147.04047 
L 218.457806 147.04047 
L 218.457806 146.114229 
L 219.989597 146.114229 
L 219.989597 145.187988 
L 221.164679 145.187988 
L 221.164679 144.724867 
L 221.757013 144.724867 
L 221.757013 143.798626 
L 222.671547 143.798626 
L 222.671547 143.335506 
L 222.915344 143.335506 
L 222.915344 142.872385 
L 224.193747 142.872385 
L 224.193747 142.409265 
L 225.20567 142.409265 
L 225.20567 141.946144 
L 225.975709 141.946144 
L 225.975709 141.483024 
L 227.483079 141.483024 
L 227.483079 140.556783 
L 227.601519 140.556783 
L 227.601519 140.093662 
L 228.4626 140.093662 
L 228.4626 139.167421 
L 229.474469 139.167421 
L 229.474469 138.7043 
L 230.763278 138.7043 
L 230.763278 137.778059 
L 230.966917 137.778059 
L 231.027691 136.851818 
L 232.253344 136.851818 
L 232.253344 136.388698 
L 232.805488 136.388698 
L 232.805488 135.462457 
L 235.384343 135.462457 
L 235.384343 134.999336 
L 235.695785 134.999336 
L 235.695785 134.536216 
L 238.26273 134.536216 
L 238.26273 133.609975 
L 238.774034 133.609975 
L 238.841631 132.683734 
L 239.231453 132.683734 
L 239.231453 132.220613 
L 239.938465 132.220613 
L 239.938465 131.757493 
L 240.252144 131.757493 
L 240.252144 131.294372 
L 242.652612 131.294372 
L 242.652612 130.831252 
L 244.063756 130.831252 
L 244.063756 130.368131 
L 245.112904 130.368131 
L 245.112904 129.44189 
L 246.046427 129.44189 
L 246.046427 128.97877 
L 247.025743 128.97877 
L 247.025743 128.052529 
L 248.182648 128.052529 
L 248.182648 127.589408 
L 249.726783 127.589408 
L 249.726783 127.126287 
L 250.945436 127.126287 
L 250.945436 126.663167 
L 254.426045 126.663167 
L 254.426045 125.736926 
L 254.711295 125.736926 
L 254.711295 124.810685 
L 338.688 124.810685 
L 338.688 124.810685 
" style="fill:none;stroke:#ff7500;stroke-linecap:square;stroke-width:1.5;"/>
   </g>
   <g id="line2d_46">
    <defs>
     <path d="M 0 -6 
L -1.347084 -1.854102 
L -5.706339 -1.854102 
L -2.179628 0.708204 
L -3.526712 4.854102 
L -0 2.291796 
L 3.526712 4.854102 
L 2.179628 0.708204 
L 5.706339 -1.854102 
L 1.347084 -1.854102 
z
" id="mb09ee60d22" style="stroke:#ff7500;stroke-linejoin:bevel;stroke-width:1.5;"/>
    </defs>
    <g>
     <use style="fill-opacity:0;stroke:#ff7500;stroke-linejoin:bevel;stroke-width:1.5;" x="208.203272" xlink:href="#mb09ee60d22" y="152.597916"/>
     <use style="fill-opacity:0;stroke:#ff7500;stroke-linejoin:bevel;stroke-width:1.5;" x="254.711295" xlink:href="#mb09ee60d22" y="124.810685"/>
     <use style="fill-opacity:0;stroke:#ff7500;stroke-linejoin:bevel;stroke-width:1.5;" x="254.711295" xlink:href="#mb09ee60d22" y="124.810685"/>
     <use style="fill-opacity:0;stroke:#ff7500;stroke-linejoin:bevel;stroke-width:1.5;" x="338.688" xlink:href="#mb09ee60d22" y="124.810685"/>
    </g>
   </g>
   <g id="line2d_47">
    <path style="fill:none;stroke:#ff7500;stroke-linecap:square;stroke-width:1.5;"/>
    <g/>
   </g>
   <g id="line2d_48">
    <path clip-path="url(#p277f899938)" d="M 258.37716 124.810685 
" style="fill:none;stroke:#ff7500;stroke-linecap:square;stroke-width:1.5;"/>
    <defs>
     <path d="M -12 12 
L 12 -12 
M -12 -12 
L 12 12 
" id="m830c8821b7" style="stroke:#ff7500;"/>
    </defs>
    <g clip-path="url(#p277f899938)">
     <use style="fill:#ff7500;stroke:#ff7500;" x="258.37716" xlink:href="#m830c8821b7" y="124.810685"/>
    </g>
   </g>
   <g id="line2d_49">
    <path d="M 338.688 187.795075 
L 369.60768 293.571802 
" style="fill:none;stroke:#ff00ff;stroke-linecap:square;stroke-width:1.5;"/>
    <g>
     <use style="fill-opacity:0;stroke:#ff00ff;stroke-linejoin:miter;stroke-width:1.5;" x="338.688" xlink:href="#mb7335c6d0c" y="187.795075"/>
     <use style="fill-opacity:0;stroke:#ff00ff;stroke-linejoin:miter;stroke-width:1.5;" x="369.60768" xlink:href="#mb7335c6d0c" y="293.571802"/>
    </g>
   </g>
   <g id="line2d_50">
    <path d="M 338.688 124.810685 
L 369.60768 207.616634 
" style="fill:none;stroke:#ff7500;stroke-linecap:square;stroke-width:1.5;"/>
    <g>
     <use style="fill-opacity:0;stroke:#ff7500;stroke-linejoin:bevel;stroke-width:1.5;" x="338.688" xlink:href="#mb09ee60d22" y="124.810685"/>
     <use style="fill-opacity:0;stroke:#ff7500;stroke-linejoin:bevel;stroke-width:1.5;" x="369.60768" xlink:href="#mb09ee60d22" y="207.616634"/>
    </g>
   </g>
   <g id="line2d_51">
    <path d="M 338.688 101.191538 
L 369.60768 121.661465 
" style="fill:none;stroke:#000080;stroke-linecap:square;stroke-width:1.5;"/>
    <g>
     <use style="fill-opacity:0;stroke:#000080;stroke-width:1.5;" x="338.688" xlink:href="#mbd18cc3dd0" y="101.191538"/>
     <use style="fill-opacity:0;stroke:#000080;stroke-width:1.5;" x="369.60768" xlink:href="#mbd18cc3dd0" y="121.661465"/>
    </g>
   </g>
   <g id="line2d_52">
    <path d="M 338.688 298.944 
L 338.688 30.334099 
" style="fill:none;stroke:#000000;stroke-linecap:square;stroke-width:1.5;"/>
   </g>
   <g id="patch_3">
    <path d="M 57.6 298.944 
L 57.6 27.648 
" style="fill:none;stroke:#000000;stroke-linecap:square;stroke-linejoin:miter;stroke-width:0.8;"/>
   </g>
   <g id="patch_4">
    <path d="M 338.688 298.944 
L 338.688 27.648 
" style="fill:none;stroke:#000000;stroke-linecap:square;stroke-linejoin:miter;stroke-width:0.8;"/>
   </g>
   <g id="patch_5">
    <path d="M 57.6 298.944 
L 338.688 298.944 
" style="fill:none;stroke:#000000;stroke-linecap:square;stroke-linejoin:miter;stroke-width:0.8;"/>
   </g>
   <g id="patch_6">
    <path d="M 57.6 27.648 
L 338.688 27.648 
" style="fill:none;stroke:#000000;stroke-linecap:square;stroke-linejoin:miter;stroke-width:0.8;"/>
   </g>
   <g id="text_13">
    <!-- NSGA-II-M -->
    <g transform="translate(375.22944 298.262739)scale(0.17 -0.17)">
     <defs>
      <path d="M 9.8125 72.90625 
L 23.09375 72.90625 
L 55.421875 11.921875 
L 55.421875 72.90625 
L 64.984375 72.90625 
L 64.984375 0 
L 51.703125 0 
L 19.390625 60.984375 
L 19.390625 0 
L 9.8125 0 
z
" id="DejaVuSans-78"/>
      <path d="M 53.515625 70.515625 
L 53.515625 60.890625 
Q 47.90625 63.578125 42.921875 64.890625 
Q 37.9375 66.21875 33.296875 66.21875 
Q 25.25 66.21875 20.875 63.09375 
Q 16.5 59.96875 16.5 54.203125 
Q 16.5 49.359375 19.40625 46.890625 
Q 22.3125 44.4375 30.421875 42.921875 
L 36.375 41.703125 
Q 47.40625 39.59375 52.65625 34.296875 
Q 57.90625 29 57.90625 20.125 
Q 57.90625 9.515625 50.796875 4.046875 
Q 43.703125 -1.421875 29.984375 -1.421875 
Q 24.8125 -1.421875 18.96875 -0.25 
Q 13.140625 0.921875 6.890625 3.21875 
L 6.890625 13.375 
Q 12.890625 10.015625 18.65625 8.296875 
Q 24.421875 6.59375 29.984375 6.59375 
Q 38.421875 6.59375 43.015625 9.90625 
Q 47.609375 13.234375 47.609375 19.390625 
Q 47.609375 24.75 44.3125 27.78125 
Q 41.015625 30.8125 33.5 32.328125 
L 27.484375 33.5 
Q 16.453125 35.6875 11.515625 40.375 
Q 6.59375 45.0625 6.59375 53.421875 
Q 6.59375 63.09375 13.40625 68.65625 
Q 20.21875 74.21875 32.171875 74.21875 
Q 37.3125 74.21875 42.625 73.28125 
Q 47.953125 72.359375 53.515625 70.515625 
z
" id="DejaVuSans-83"/>
      <path d="M 59.515625 10.40625 
L 59.515625 29.984375 
L 43.40625 29.984375 
L 43.40625 38.09375 
L 69.28125 38.09375 
L 69.28125 6.78125 
Q 63.578125 2.734375 56.6875 0.65625 
Q 49.8125 -1.421875 42 -1.421875 
Q 24.90625 -1.421875 15.25 8.5625 
Q 5.609375 18.5625 5.609375 36.375 
Q 5.609375 54.25 15.25 64.234375 
Q 24.90625 74.21875 42 74.21875 
Q 49.125 74.21875 55.546875 72.453125 
Q 61.96875 70.703125 67.390625 67.28125 
L 67.390625 56.78125 
Q 61.921875 61.421875 55.765625 63.765625 
Q 49.609375 66.109375 42.828125 66.109375 
Q 29.4375 66.109375 22.71875 58.640625 
Q 16.015625 51.171875 16.015625 36.375 
Q 16.015625 21.625 22.71875 14.15625 
Q 29.4375 6.6875 42.828125 6.6875 
Q 48.046875 6.6875 52.140625 7.59375 
Q 56.25 8.5 59.515625 10.40625 
z
" id="DejaVuSans-71"/>
      <path d="M 34.1875 63.1875 
L 20.796875 26.90625 
L 47.609375 26.90625 
z
M 28.609375 72.90625 
L 39.796875 72.90625 
L 67.578125 0 
L 57.328125 0 
L 50.6875 18.703125 
L 17.828125 18.703125 
L 11.1875 0 
L 0.78125 0 
z
" id="DejaVuSans-65"/>
      <path d="M 9.8125 72.90625 
L 19.671875 72.90625 
L 19.671875 0 
L 9.8125 0 
z
" id="DejaVuSans-73"/>
      <path d="M 9.8125 72.90625 
L 24.515625 72.90625 
L 43.109375 23.296875 
L 61.8125 72.90625 
L 76.515625 72.90625 
L 76.515625 0 
L 66.890625 0 
L 66.890625 64.015625 
L 48.09375 14.015625 
L 38.1875 14.015625 
L 19.390625 64.015625 
L 19.390625 0 
L 9.8125 0 
z
" id="DejaVuSans-77"/>
     </defs>
     <use xlink:href="#DejaVuSans-78"/>
     <use x="74.804688" xlink:href="#DejaVuSans-83"/>
     <use x="138.28125" xlink:href="#DejaVuSans-71"/>
     <use x="215.771484" xlink:href="#DejaVuSans-65"/>
     <use x="281.929688" xlink:href="#DejaVuSans-45"/>
     <use x="318.013672" xlink:href="#DejaVuSans-73"/>
     <use x="347.505859" xlink:href="#DejaVuSans-73"/>
     <use x="376.998047" xlink:href="#DejaVuSans-45"/>
     <use x="413.082031" xlink:href="#DejaVuSans-77"/>
    </g>
   </g>
   <g id="text_14">
    <!-- SMS-EMOA- -->
    <g transform="translate(375.22944 212.307571)scale(0.17 -0.17)">
     <defs>
      <path d="M 9.8125 72.90625 
L 55.90625 72.90625 
L 55.90625 64.59375 
L 19.671875 64.59375 
L 19.671875 43.015625 
L 54.390625 43.015625 
L 54.390625 34.71875 
L 19.671875 34.71875 
L 19.671875 8.296875 
L 56.78125 8.296875 
L 56.78125 0 
L 9.8125 0 
z
" id="DejaVuSans-69"/>
      <path d="M 39.40625 66.21875 
Q 28.65625 66.21875 22.328125 58.203125 
Q 16.015625 50.203125 16.015625 36.375 
Q 16.015625 22.609375 22.328125 14.59375 
Q 28.65625 6.59375 39.40625 6.59375 
Q 50.140625 6.59375 56.421875 14.59375 
Q 62.703125 22.609375 62.703125 36.375 
Q 62.703125 50.203125 56.421875 58.203125 
Q 50.140625 66.21875 39.40625 66.21875 
z
M 39.40625 74.21875 
Q 54.734375 74.21875 63.90625 63.9375 
Q 73.09375 53.65625 73.09375 36.375 
Q 73.09375 19.140625 63.90625 8.859375 
Q 54.734375 -1.421875 39.40625 -1.421875 
Q 24.03125 -1.421875 14.8125 8.828125 
Q 5.609375 19.09375 5.609375 36.375 
Q 5.609375 53.65625 14.8125 63.9375 
Q 24.03125 74.21875 39.40625 74.21875 
z
" id="DejaVuSans-79"/>
     </defs>
     <use xlink:href="#DejaVuSans-83"/>
     <use x="63.476562" xlink:href="#DejaVuSans-77"/>
     <use x="149.755859" xlink:href="#DejaVuSans-83"/>
     <use x="213.232422" xlink:href="#DejaVuSans-45"/>
     <use x="249.316406" xlink:href="#DejaVuSans-69"/>
     <use x="312.5" xlink:href="#DejaVuSans-77"/>
     <use x="398.779297" xlink:href="#DejaVuSans-79"/>
     <use x="475.740234" xlink:href="#DejaVuSans-65"/>
     <use x="541.898438" xlink:href="#DejaVuSans-45"/>
    </g>
   </g>
   <g id="text_15">
    <!-- COMO-100  -->
    <g transform="translate(375.22944 126.352403)scale(0.17 -0.17)">
     <defs>
      <path d="M 64.40625 67.28125 
L 64.40625 56.890625 
Q 59.421875 61.53125 53.78125 63.8125 
Q 48.140625 66.109375 41.796875 66.109375 
Q 29.296875 66.109375 22.65625 58.46875 
Q 16.015625 50.828125 16.015625 36.375 
Q 16.015625 21.96875 22.65625 14.328125 
Q 29.296875 6.6875 41.796875 6.6875 
Q 48.140625 6.6875 53.78125 8.984375 
Q 59.421875 11.28125 64.40625 15.921875 
L 64.40625 5.609375 
Q 59.234375 2.09375 53.4375 0.328125 
Q 47.65625 -1.421875 41.21875 -1.421875 
Q 24.65625 -1.421875 15.125 8.703125 
Q 5.609375 18.84375 5.609375 36.375 
Q 5.609375 53.953125 15.125 64.078125 
Q 24.65625 74.21875 41.21875 74.21875 
Q 47.75 74.21875 53.53125 72.484375 
Q 59.328125 70.75 64.40625 67.28125 
z
" id="DejaVuSans-67"/>
     </defs>
     <use xlink:href="#DejaVuSans-67"/>
     <use x="69.824219" xlink:href="#DejaVuSans-79"/>
     <use x="148.535156" xlink:href="#DejaVuSans-77"/>
     <use x="234.814453" xlink:href="#DejaVuSans-79"/>
     <use x="316.275391" xlink:href="#DejaVuSans-45"/>
     <use x="352.359375" xlink:href="#DejaVuSans-49"/>
     <use x="415.982422" xlink:href="#DejaVuSans-48"/>
     <use x="479.605469" xlink:href="#DejaVuSans-48"/>
     <use x="543.228516" xlink:href="#DejaVuSans-32"/>
    </g>
   </g>
   <g id="text_16">
    <!-- best 2016 -->
    <g transform="translate(375.22944 40.397235)scale(0.17 -0.17)">
     <defs>
      <path d="M 48.6875 27.296875 
Q 48.6875 37.203125 44.609375 42.84375 
Q 40.53125 48.484375 33.40625 48.484375 
Q 26.265625 48.484375 22.1875 42.84375 
Q 18.109375 37.203125 18.109375 27.296875 
Q 18.109375 17.390625 22.1875 11.75 
Q 26.265625 6.109375 33.40625 6.109375 
Q 40.53125 6.109375 44.609375 11.75 
Q 48.6875 17.390625 48.6875 27.296875 
z
M 18.109375 46.390625 
Q 20.953125 51.265625 25.265625 53.625 
Q 29.59375 56 35.59375 56 
Q 45.5625 56 51.78125 48.09375 
Q 58.015625 40.1875 58.015625 27.296875 
Q 58.015625 14.40625 51.78125 6.484375 
Q 45.5625 -1.421875 35.59375 -1.421875 
Q 29.59375 -1.421875 25.265625 0.953125 
Q 20.953125 3.328125 18.109375 8.203125 
L 18.109375 0 
L 9.078125 0 
L 9.078125 75.984375 
L 18.109375 75.984375 
z
" id="DejaVuSans-98"/>
     </defs>
     <use xlink:href="#DejaVuSans-98"/>
     <use x="63.476562" xlink:href="#DejaVuSans-101"/>
     <use x="125" xlink:href="#DejaVuSans-115"/>
     <use x="177.099609" xlink:href="#DejaVuSans-116"/>
     <use x="216.308594" xlink:href="#DejaVuSans-32"/>
     <use x="248.095703" xlink:href="#DejaVuSans-50"/>
     <use x="311.71875" xlink:href="#DejaVuSans-48"/>
     <use x="375.341797" xlink:href="#DejaVuSans-49"/>
     <use x="438.964844" xlink:href="#DejaVuSans-54"/>
    </g>
   </g>
   <g id="text_17">
    <!-- bbob-biobj f6, 10-D -->
    <g transform="translate(60.41088 38.111366)scale(0.102 -0.102)">
     <defs>
      <path d="M 9.421875 54.6875 
L 18.40625 54.6875 
L 18.40625 -0.984375 
Q 18.40625 -11.421875 14.421875 -16.109375 
Q 10.453125 -20.796875 1.609375 -20.796875 
L -1.8125 -20.796875 
L -1.8125 -13.1875 
L 0.59375 -13.1875 
Q 5.71875 -13.1875 7.5625 -10.8125 
Q 9.421875 -8.453125 9.421875 -0.984375 
z
M 9.421875 75.984375 
L 18.40625 75.984375 
L 18.40625 64.59375 
L 9.421875 64.59375 
z
" id="DejaVuSans-106"/>
      <path d="M 19.671875 64.796875 
L 19.671875 8.109375 
L 31.59375 8.109375 
Q 46.6875 8.109375 53.6875 14.9375 
Q 60.6875 21.78125 60.6875 36.53125 
Q 60.6875 51.171875 53.6875 57.984375 
Q 46.6875 64.796875 31.59375 64.796875 
z
M 9.8125 72.90625 
L 30.078125 72.90625 
Q 51.265625 72.90625 61.171875 64.09375 
Q 71.09375 55.28125 71.09375 36.53125 
Q 71.09375 17.671875 61.125 8.828125 
Q 51.171875 0 30.078125 0 
L 9.8125 0 
z
" id="DejaVuSans-68"/>
     </defs>
     <use xlink:href="#DejaVuSans-98"/>
     <use x="63.476562" xlink:href="#DejaVuSans-98"/>
     <use x="126.953125" xlink:href="#DejaVuSans-111"/>
     <use x="188.134766" xlink:href="#DejaVuSans-98"/>
     <use x="251.611328" xlink:href="#DejaVuSans-45"/>
     <use x="287.695312" xlink:href="#DejaVuSans-98"/>
     <use x="351.171875" xlink:href="#DejaVuSans-105"/>
     <use x="378.955078" xlink:href="#DejaVuSans-111"/>
     <use x="440.136719" xlink:href="#DejaVuSans-98"/>
     <use x="503.613281" xlink:href="#DejaVuSans-106"/>
     <use x="531.396484" xlink:href="#DejaVuSans-32"/>
     <use x="563.183594" xlink:href="#DejaVuSans-102"/>
     <use x="598.388672" xlink:href="#DejaVuSans-54"/>
     <use x="662.011719" xlink:href="#DejaVuSans-44"/>
     <use x="693.798828" xlink:href="#DejaVuSans-32"/>
     <use x="725.585938" xlink:href="#DejaVuSans-49"/>
     <use x="789.208984" xlink:href="#DejaVuSans-48"/>
     <use x="852.832031" xlink:href="#DejaVuSans-45"/>
     <use x="888.916016" xlink:href="#DejaVuSans-68"/>
    </g>
    <!-- 58 targets: 1..-1.0e-4 -->
    <g transform="translate(60.41088 49.533135)scale(0.102 -0.102)">
     <defs>
      <path d="M 10.796875 72.90625 
L 49.515625 72.90625 
L 49.515625 64.59375 
L 19.828125 64.59375 
L 19.828125 46.734375 
Q 21.96875 47.46875 24.109375 47.828125 
Q 26.265625 48.1875 28.421875 48.1875 
Q 40.625 48.1875 47.75 41.5 
Q 54.890625 34.8125 54.890625 23.390625 
Q 54.890625 11.625 47.5625 5.09375 
Q 40.234375 -1.421875 26.90625 -1.421875 
Q 22.3125 -1.421875 17.546875 -0.640625 
Q 12.796875 0.140625 7.71875 1.703125 
L 7.71875 11.625 
Q 12.109375 9.234375 16.796875 8.0625 
Q 21.484375 6.890625 26.703125 6.890625 
Q 35.15625 6.890625 40.078125 11.328125 
Q 45.015625 15.765625 45.015625 23.390625 
Q 45.015625 31 40.078125 35.4375 
Q 35.15625 39.890625 26.703125 39.890625 
Q 22.75 39.890625 18.8125 39.015625 
Q 14.890625 38.140625 10.796875 36.28125 
z
" id="DejaVuSans-53"/>
      <path d="M 11.71875 12.40625 
L 22.015625 12.40625 
L 22.015625 0 
L 11.71875 0 
z
M 11.71875 51.703125 
L 22.015625 51.703125 
L 22.015625 39.3125 
L 11.71875 39.3125 
z
" id="DejaVuSans-58"/>
     </defs>
     <use xlink:href="#DejaVuSans-53"/>
     <use x="63.623047" xlink:href="#DejaVuSans-56"/>
     <use x="127.246094" xlink:href="#DejaVuSans-32"/>
     <use x="159.033203" xlink:href="#DejaVuSans-116"/>
     <use x="198.242188" xlink:href="#DejaVuSans-97"/>
     <use x="259.521484" xlink:href="#DejaVuSans-114"/>
     <use x="298.884766" xlink:href="#DejaVuSans-103"/>
     <use x="362.361328" xlink:href="#DejaVuSans-101"/>
     <use x="423.884766" xlink:href="#DejaVuSans-116"/>
     <use x="463.09375" xlink:href="#DejaVuSans-115"/>
     <use x="515.193359" xlink:href="#DejaVuSans-58"/>
     <use x="548.884766" xlink:href="#DejaVuSans-32"/>
     <use x="580.671875" xlink:href="#DejaVuSans-49"/>
     <use x="644.294922" xlink:href="#DejaVuSans-46"/>
     <use x="676.082031" xlink:href="#DejaVuSans-46"/>
     <use x="707.869141" xlink:href="#DejaVuSans-45"/>
     <use x="743.953125" xlink:href="#DejaVuSans-49"/>
     <use x="807.576172" xlink:href="#DejaVuSans-46"/>
     <use x="839.363281" xlink:href="#DejaVuSans-48"/>
     <use x="902.986328" xlink:href="#DejaVuSans-101"/>
     <use x="964.509766" xlink:href="#DejaVuSans-45"/>
     <use x="1000.59375" xlink:href="#DejaVuSans-52"/>
    </g>
    <!-- 10 instances -->
    <g transform="translate(60.41088 60.954904)scale(0.102 -0.102)">
     <use xlink:href="#DejaVuSans-49"/>
     <use x="63.623047" xlink:href="#DejaVuSans-48"/>
     <use x="127.246094" xlink:href="#DejaVuSans-32"/>
     <use x="159.033203" xlink:href="#DejaVuSans-105"/>
     <use x="186.816406" xlink:href="#DejaVuSans-110"/>
     <use x="250.195312" xlink:href="#DejaVuSans-115"/>
     <use x="302.294922" xlink:href="#DejaVuSans-116"/>
     <use x="341.503906" xlink:href="#DejaVuSans-97"/>
     <use x="402.783203" xlink:href="#DejaVuSans-110"/>
     <use x="466.162109" xlink:href="#DejaVuSans-99"/>
     <use x="521.142578" xlink:href="#DejaVuSans-101"/>
     <use x="582.666016" xlink:href="#DejaVuSans-115"/>
    </g>
   </g>
   <g id="text_18">
    <!-- v2.4.19, hv-hash=ff0e71e8cd978373 -->
    <g style="fill:#808080;" transform="translate(104.697125 294.151352)scale(0.1 -0.1)">
     <defs>
      <path d="M 10.984375 1.515625 
L 10.984375 10.5 
Q 14.703125 8.734375 18.5 7.8125 
Q 22.3125 6.890625 25.984375 6.890625 
Q 35.75 6.890625 40.890625 13.453125 
Q 46.046875 20.015625 46.78125 33.40625 
Q 43.953125 29.203125 39.59375 26.953125 
Q 35.25 24.703125 29.984375 24.703125 
Q 19.046875 24.703125 12.671875 31.3125 
Q 6.296875 37.9375 6.296875 49.421875 
Q 6.296875 60.640625 12.9375 67.421875 
Q 19.578125 74.21875 30.609375 74.21875 
Q 43.265625 74.21875 49.921875 64.515625 
Q 56.59375 54.828125 56.59375 36.375 
Q 56.59375 19.140625 48.40625 8.859375 
Q 40.234375 -1.421875 26.421875 -1.421875 
Q 22.703125 -1.421875 18.890625 -0.6875 
Q 15.09375 0.046875 10.984375 1.515625 
z
M 30.609375 32.421875 
Q 37.25 32.421875 41.125 36.953125 
Q 45.015625 41.5 45.015625 49.421875 
Q 45.015625 57.28125 41.125 61.84375 
Q 37.25 66.40625 30.609375 66.40625 
Q 23.96875 66.40625 20.09375 61.84375 
Q 16.21875 57.28125 16.21875 49.421875 
Q 16.21875 41.5 20.09375 36.953125 
Q 23.96875 32.421875 30.609375 32.421875 
z
" id="DejaVuSans-57"/>
      <path d="M 54.890625 33.015625 
L 54.890625 0 
L 45.90625 0 
L 45.90625 32.71875 
Q 45.90625 40.484375 42.875 44.328125 
Q 39.84375 48.1875 33.796875 48.1875 
Q 26.515625 48.1875 22.3125 43.546875 
Q 18.109375 38.921875 18.109375 30.90625 
L 18.109375 0 
L 9.078125 0 
L 9.078125 75.984375 
L 18.109375 75.984375 
L 18.109375 46.1875 
Q 21.34375 51.125 25.703125 53.5625 
Q 30.078125 56 35.796875 56 
Q 45.21875 56 50.046875 50.171875 
Q 54.890625 44.34375 54.890625 33.015625 
z
" id="DejaVuSans-104"/>
      <path d="M 10.59375 45.40625 
L 73.1875 45.40625 
L 73.1875 37.203125 
L 10.59375 37.203125 
z
M 10.59375 25.484375 
L 73.1875 25.484375 
L 73.1875 17.1875 
L 10.59375 17.1875 
z
" id="DejaVuSans-61"/>
      <path d="M 8.203125 72.90625 
L 55.078125 72.90625 
L 55.078125 68.703125 
L 28.609375 0 
L 18.3125 0 
L 43.21875 64.59375 
L 8.203125 64.59375 
z
" id="DejaVuSans-55"/>
      <path d="M 40.578125 39.3125 
Q 47.65625 37.796875 51.625 33 
Q 55.609375 28.21875 55.609375 21.1875 
Q 55.609375 10.40625 48.1875 4.484375 
Q 40.765625 -1.421875 27.09375 -1.421875 
Q 22.515625 -1.421875 17.65625 -0.515625 
Q 12.796875 0.390625 7.625 2.203125 
L 7.625 11.71875 
Q 11.71875 9.328125 16.59375 8.109375 
Q 21.484375 6.890625 26.8125 6.890625 
Q 36.078125 6.890625 40.9375 10.546875 
Q 45.796875 14.203125 45.796875 21.1875 
Q 45.796875 27.640625 41.28125 31.265625 
Q 36.765625 34.90625 28.71875 34.90625 
L 20.21875 34.90625 
L 20.21875 43.015625 
L 29.109375 43.015625 
Q 36.375 43.015625 40.234375 45.921875 
Q 44.09375 48.828125 44.09375 54.296875 
Q 44.09375 59.90625 40.109375 62.90625 
Q 36.140625 65.921875 28.71875 65.921875 
Q 24.65625 65.921875 20.015625 65.03125 
Q 15.375 64.15625 9.8125 62.3125 
L 9.8125 71.09375 
Q 15.4375 72.65625 20.34375 73.4375 
Q 25.25 74.21875 29.59375 74.21875 
Q 40.828125 74.21875 47.359375 69.109375 
Q 53.90625 64.015625 53.90625 55.328125 
Q 53.90625 49.265625 50.4375 45.09375 
Q 46.96875 40.921875 40.578125 39.3125 
z
" id="DejaVuSans-51"/>
     </defs>
     <use xlink:href="#DejaVuSans-118"/>
     <use x="59.179688" xlink:href="#DejaVuSans-50"/>
     <use x="122.802734" xlink:href="#DejaVuSans-46"/>
     <use x="154.589844" xlink:href="#DejaVuSans-52"/>
     <use x="218.212891" xlink:href="#DejaVuSans-46"/>
     <use x="250" xlink:href="#DejaVuSans-49"/>
     <use x="313.623047" xlink:href="#DejaVuSans-57"/>
     <use x="377.246094" xlink:href="#DejaVuSans-44"/>
     <use x="409.033203" xlink:href="#DejaVuSans-32"/>
     <use x="440.820312" xlink:href="#DejaVuSans-104"/>
     <use x="504.199219" xlink:href="#DejaVuSans-118"/>
     <use x="560.753906" xlink:href="#DejaVuSans-45"/>
     <use x="596.837891" xlink:href="#DejaVuSans-104"/>
     <use x="660.216797" xlink:href="#DejaVuSans-97"/>
     <use x="721.496094" xlink:href="#DejaVuSans-115"/>
     <use x="773.595703" xlink:href="#DejaVuSans-104"/>
     <use x="836.974609" xlink:href="#DejaVuSans-61"/>
     <use x="920.763672" xlink:href="#DejaVuSans-102"/>
     <use x="955.96875" xlink:href="#DejaVuSans-102"/>
     <use x="991.173828" xlink:href="#DejaVuSans-48"/>
     <use x="1054.796875" xlink:href="#DejaVuSans-101"/>
     <use x="1116.320312" xlink:href="#DejaVuSans-55"/>
     <use x="1179.943359" xlink:href="#DejaVuSans-49"/>
     <use x="1243.566406" xlink:href="#DejaVuSans-101"/>
     <use x="1305.089844" xlink:href="#DejaVuSans-56"/>
     <use x="1368.712891" xlink:href="#DejaVuSans-99"/>
     <use x="1423.693359" xlink:href="#DejaVuSans-100"/>
     <use x="1487.169922" xlink:href="#DejaVuSans-57"/>
     <use x="1550.792969" xlink:href="#DejaVuSans-55"/>
     <use x="1614.416016" xlink:href="#DejaVuSans-56"/>
     <use x="1678.039062" xlink:href="#DejaVuSans-51"/>
     <use x="1741.662109" xlink:href="#DejaVuSans-55"/>
     <use x="1805.285156" xlink:href="#DejaVuSans-51"/>
    </g>
   </g>
   <g id="text_19">
    <!-- 6 Sphere/Different Powers -->
    <g transform="translate(67.423687 21.648)scale(0.2 -0.2)">
     <defs>
      <path d="M 19.671875 64.796875 
L 19.671875 37.40625 
L 32.078125 37.40625 
Q 38.96875 37.40625 42.71875 40.96875 
Q 46.484375 44.53125 46.484375 51.125 
Q 46.484375 57.671875 42.71875 61.234375 
Q 38.96875 64.796875 32.078125 64.796875 
z
M 9.8125 72.90625 
L 32.078125 72.90625 
Q 44.34375 72.90625 50.609375 67.359375 
Q 56.890625 61.8125 56.890625 51.125 
Q 56.890625 40.328125 50.609375 34.8125 
Q 44.34375 29.296875 32.078125 29.296875 
L 19.671875 29.296875 
L 19.671875 0 
L 9.8125 0 
z
" id="DejaVuSans-80"/>
      <path d="M 4.203125 54.6875 
L 13.1875 54.6875 
L 24.421875 12.015625 
L 35.59375 54.6875 
L 46.1875 54.6875 
L 57.421875 12.015625 
L 68.609375 54.6875 
L 77.59375 54.6875 
L 63.28125 0 
L 52.6875 0 
L 40.921875 44.828125 
L 29.109375 0 
L 18.5 0 
z
" id="DejaVuSans-119"/>
     </defs>
     <use xlink:href="#DejaVuSans-54"/>
     <use x="63.623047" xlink:href="#DejaVuSans-32"/>
     <use x="95.410156" xlink:href="#DejaVuSans-83"/>
     <use x="158.886719" xlink:href="#DejaVuSans-112"/>
     <use x="222.363281" xlink:href="#DejaVuSans-104"/>
     <use x="285.742188" xlink:href="#DejaVuSans-101"/>
     <use x="347.265625" xlink:href="#DejaVuSans-114"/>
     <use x="386.128906" xlink:href="#DejaVuSans-101"/>
     <use x="447.652344" xlink:href="#DejaVuSans-47"/>
     <use x="481.34375" xlink:href="#DejaVuSans-68"/>
     <use x="558.345703" xlink:href="#DejaVuSans-105"/>
     <use x="586.128906" xlink:href="#DejaVuSans-102"/>
     <use x="621.333984" xlink:href="#DejaVuSans-102"/>
     <use x="656.539062" xlink:href="#DejaVuSans-101"/>
     <use x="718.0625" xlink:href="#DejaVuSans-114"/>
     <use x="756.925781" xlink:href="#DejaVuSans-101"/>
     <use x="818.449219" xlink:href="#DejaVuSans-110"/>
     <use x="881.828125" xlink:href="#DejaVuSans-116"/>
     <use x="921.037109" xlink:href="#DejaVuSans-32"/>
     <use x="952.824219" xlink:href="#DejaVuSans-80"/>
     <use x="1009.501953" xlink:href="#DejaVuSans-111"/>
     <use x="1070.683594" xlink:href="#DejaVuSans-119"/>
     <use x="1152.470703" xlink:href="#DejaVuSans-101"/>
     <use x="1213.994141" xlink:href="#DejaVuSans-114"/>
     <use x="1255.107422" xlink:href="#DejaVuSans-115"/>
    </g>
   </g>
  </g>
 </g>
 <defs>
  <clipPath id="p277f899938">
   <rect height="271.296" width="281.088" x="57.6" y="27.648"/>
  </clipPath>
 </defs>
</svg>
