<?xml version="1.0" encoding="utf-8" standalone="no"?>
<!DOCTYPE svg PUBLIC "-//W3C//DTD SVG 1.1//EN"
  "http://www.w3.org/Graphics/SVG/1.1/DTD/svg11.dtd">
<!-- Created with matplotlib (https://matplotlib.org/) -->
<svg height="345.6pt" version="1.1" viewBox="0 0 460.8 345.6" width="460.8pt" xmlns="http://www.w3.org/2000/svg" xmlns:xlink="http://www.w3.org/1999/xlink">
 <metadata>
  <rdf:RDF xmlns:cc="http://creativecommons.org/ns#" xmlns:dc="http://purl.org/dc/elements/1.1/" xmlns:rdf="http://www.w3.org/1999/02/22-rdf-syntax-ns#">
   <cc:Work>
    <dc:type rdf:resource="http://purl.org/dc/dcmitype/StillImage"/>
    <dc:date>2021-04-26T15:04:21.691381</dc:date>
    <dc:format>image/svg+xml</dc:format>
    <dc:creator>
     <cc:Agent>
      <dc:title>Matplotlib v3.3.2, https://matplotlib.org/</dc:title>
     </cc:Agent>
    </dc:creator>
   </cc:Work>
  </rdf:RDF>
 </metadata>
 <defs>
  <style type="text/css">*{stroke-linecap:butt;stroke-linejoin:round;}</style>
 </defs>
 <g id="figure_1">
  <g id="patch_1">
   <path d="M 0 345.6 
L 460.8 345.6 
L 460.8 0 
L 0 0 
z
" style="fill:#ffffff;"/>
  </g>
  <g id="axes_1">
   <g id="patch_2">
    <path d="M 57.6 298.944 
L 338.688 298.944 
L 338.688 27.648 
L 57.6 27.648 
z
" style="fill:#ffffff;"/>
   </g>
   <g id="line2d_1">
    <path d="M 53.708537 298.944 
L 53.708537 294.312795 
L 79.938565 294.312795 
L 79.938565 285.050384 
L 86.351421 285.050384 
L 86.351421 275.787974 
L 101.785851 275.787974 
L 101.785851 271.156769 
L 104.826449 271.156769 
L 104.826449 257.263153 
L 109.131511 257.263153 
L 109.131511 248.000743 
L 117.373392 248.000743 
L 117.373392 243.369538 
L 123.751369 243.369538 
L 123.751369 234.107127 
L 127.674226 234.107127 
L 127.674226 220.213512 
L 133.622529 220.213512 
L 133.622529 210.951101 
L 138.628343 210.951101 
L 138.628343 201.688691 
L 142.486301 201.688691 
L 142.486301 192.426281 
L 146.895853 192.426281 
L 146.895853 187.795075 
L 151.21133 187.795075 
L 151.21133 173.90146 
L 155.966049 173.90146 
L 155.966049 169.270255 
L 161.96433 169.270255 
L 161.96433 155.376639 
L 167.911015 155.376639 
L 167.911015 146.114229 
L 174.218366 146.114229 
L 174.218366 141.483024 
L 188.118089 141.483024 
L 188.118089 127.589408 
L 196.235057 127.589408 
L 196.235057 122.958203 
L 203.925002 122.958203 
L 203.925002 109.064587 
L 214.63794 109.064587 
L 214.63794 99.802177 
L 225.335466 99.802177 
L 225.335466 90.539766 
L 240.467703 90.539766 
L 240.467703 85.908561 
L 253.698313 85.908561 
L 253.698313 76.646151 
L 262.932641 76.646151 
L 262.932641 62.752535 
L 338.688 62.752535 
" style="fill:none;stroke:#f5deb3;stroke-linecap:square;stroke-width:4;"/>
   </g>
   <g id="line2d_2">
    <defs>
     <path d="M 0 7.778175 
L 7.778175 0 
L 0 -7.778175 
L -7.778175 0 
z
" id="m5c1900b9b1" style="stroke:#f5deb3;stroke-linejoin:miter;stroke-width:1.5;"/>
    </defs>
    <g>
     <use style="fill:#f5deb3;stroke:#f5deb3;stroke-linejoin:miter;stroke-width:1.5;" x="109.131511" xlink:href="#m5c1900b9b1" y="248.000743"/>
     <use style="fill:#f5deb3;stroke:#f5deb3;stroke-linejoin:miter;stroke-width:1.5;" x="151.21133" xlink:href="#m5c1900b9b1" y="187.795075"/>
     <use style="fill:#f5deb3;stroke:#f5deb3;stroke-linejoin:miter;stroke-width:1.5;" x="203.925002" xlink:href="#m5c1900b9b1" y="122.958203"/>
     <use style="fill:#f5deb3;stroke:#f5deb3;stroke-linejoin:miter;stroke-width:1.5;" x="262.932641" xlink:href="#m5c1900b9b1" y="76.646151"/>
     <use style="fill:#f5deb3;stroke:#f5deb3;stroke-linejoin:miter;stroke-width:1.5;" x="262.932641" xlink:href="#m5c1900b9b1" y="62.752535"/>
     <use style="fill:#f5deb3;stroke:#f5deb3;stroke-linejoin:miter;stroke-width:1.5;" x="338.688" xlink:href="#m5c1900b9b1" y="62.752535"/>
    </g>
   </g>
   <g id="line2d_3">
    <path style="fill:none;stroke:#f5deb3;stroke-linecap:square;stroke-width:4;"/>
    <g/>
   </g>
   <g id="line2d_4">
    <path d="M 338.688 62.752535 
L 369.60768 35.706297 
" style="fill:none;stroke:#f5deb3;stroke-linecap:square;stroke-width:4;"/>
    <g>
     <use style="fill:#f5deb3;stroke:#f5deb3;stroke-linejoin:miter;stroke-width:1.5;" x="338.688" xlink:href="#m5c1900b9b1" y="62.752535"/>
     <use style="fill:#f5deb3;stroke:#f5deb3;stroke-linejoin:miter;stroke-width:1.5;" x="369.60768" xlink:href="#m5c1900b9b1" y="35.706297"/>
    </g>
   </g>
   <g id="matplotlib.axis_1">
    <g id="xtick_1">
     <g id="line2d_5">
      <path clip-path="url(#p6ae2ed5e42)" d="M 57.6 298.944 
L 57.6 27.648 
" style="fill:none;stroke:#b0b0b0;stroke-linecap:square;stroke-width:0.8;"/>
     </g>
     <g id="line2d_6">
      <defs>
       <path d="M 0 0 
L 0 3.5 
" id="m4667aa78c1" style="stroke:#000000;stroke-width:0.8;"/>
      </defs>
      <g>
       <use style="stroke:#000000;stroke-width:0.8;" x="57.6" xlink:href="#m4667aa78c1" y="298.944"/>
      </g>
     </g>
     <g id="text_1">
      <!-- 0 -->
      <g transform="translate(51.2375 321.140875)scale(0.2 -0.2)">
       <defs>
        <path d="M 31.78125 66.40625 
Q 24.171875 66.40625 20.328125 58.90625 
Q 16.5 51.421875 16.5 36.375 
Q 16.5 21.390625 20.328125 13.890625 
Q 24.171875 6.390625 31.78125 6.390625 
Q 39.453125 6.390625 43.28125 13.890625 
Q 47.125 21.390625 47.125 36.375 
Q 47.125 51.421875 43.28125 58.90625 
Q 39.453125 66.40625 31.78125 66.40625 
z
M 31.78125 74.21875 
Q 44.046875 74.21875 50.515625 64.515625 
Q 56.984375 54.828125 56.984375 36.375 
Q 56.984375 17.96875 50.515625 8.265625 
Q 44.046875 -1.421875 31.78125 -1.421875 
Q 19.53125 -1.421875 13.0625 8.265625 
Q 6.59375 17.96875 6.59375 36.375 
Q 6.59375 54.828125 13.0625 64.515625 
Q 19.53125 74.21875 31.78125 74.21875 
z
" id="DejaVuSans-48"/>
       </defs>
       <use xlink:href="#DejaVuSans-48"/>
      </g>
     </g>
    </g>
    <g id="xtick_2">
     <g id="line2d_7">
      <path clip-path="url(#p6ae2ed5e42)" d="M 137.910857 298.944 
L 137.910857 27.648 
" style="fill:none;stroke:#b0b0b0;stroke-linecap:square;stroke-width:0.8;"/>
     </g>
     <g id="line2d_8">
      <g>
       <use style="stroke:#000000;stroke-width:0.8;" x="137.910857" xlink:href="#m4667aa78c1" y="298.944"/>
      </g>
     </g>
     <g id="text_2">
      <!-- 2 -->
      <g transform="translate(131.548357 321.140875)scale(0.2 -0.2)">
       <defs>
        <path d="M 19.1875 8.296875 
L 53.609375 8.296875 
L 53.609375 0 
L 7.328125 0 
L 7.328125 8.296875 
Q 12.9375 14.109375 22.625 23.890625 
Q 32.328125 33.6875 34.8125 36.53125 
Q 39.546875 41.84375 41.421875 45.53125 
Q 43.3125 49.21875 43.3125 52.78125 
Q 43.3125 58.59375 39.234375 62.25 
Q 35.15625 65.921875 28.609375 65.921875 
Q 23.96875 65.921875 18.8125 64.3125 
Q 13.671875 62.703125 7.8125 59.421875 
L 7.8125 69.390625 
Q 13.765625 71.78125 18.9375 73 
Q 24.125 74.21875 28.421875 74.21875 
Q 39.75 74.21875 46.484375 68.546875 
Q 53.21875 62.890625 53.21875 53.421875 
Q 53.21875 48.921875 51.53125 44.890625 
Q 49.859375 40.875 45.40625 35.40625 
Q 44.1875 33.984375 37.640625 27.21875 
Q 31.109375 20.453125 19.1875 8.296875 
z
" id="DejaVuSans-50"/>
       </defs>
       <use xlink:href="#DejaVuSans-50"/>
      </g>
     </g>
    </g>
    <g id="xtick_3">
     <g id="line2d_9">
      <path clip-path="url(#p6ae2ed5e42)" d="M 218.221714 298.944 
L 218.221714 27.648 
" style="fill:none;stroke:#b0b0b0;stroke-linecap:square;stroke-width:0.8;"/>
     </g>
     <g id="line2d_10">
      <g>
       <use style="stroke:#000000;stroke-width:0.8;" x="218.221714" xlink:href="#m4667aa78c1" y="298.944"/>
      </g>
     </g>
     <g id="text_3">
      <!-- 4 -->
      <g transform="translate(211.859214 321.140875)scale(0.2 -0.2)">
       <defs>
        <path d="M 37.796875 64.3125 
L 12.890625 25.390625 
L 37.796875 25.390625 
z
M 35.203125 72.90625 
L 47.609375 72.90625 
L 47.609375 25.390625 
L 58.015625 25.390625 
L 58.015625 17.1875 
L 47.609375 17.1875 
L 47.609375 0 
L 37.796875 0 
L 37.796875 17.1875 
L 4.890625 17.1875 
L 4.890625 26.703125 
z
" id="DejaVuSans-52"/>
       </defs>
       <use xlink:href="#DejaVuSans-52"/>
      </g>
     </g>
    </g>
    <g id="xtick_4">
     <g id="line2d_11">
      <path clip-path="url(#p6ae2ed5e42)" d="M 298.532571 298.944 
L 298.532571 27.648 
" style="fill:none;stroke:#b0b0b0;stroke-linecap:square;stroke-width:0.8;"/>
     </g>
     <g id="line2d_12">
      <g>
       <use style="stroke:#000000;stroke-width:0.8;" x="298.532571" xlink:href="#m4667aa78c1" y="298.944"/>
      </g>
     </g>
     <g id="text_4">
      <!-- 6 -->
      <g transform="translate(292.170071 321.140875)scale(0.2 -0.2)">
       <defs>
        <path d="M 33.015625 40.375 
Q 26.375 40.375 22.484375 35.828125 
Q 18.609375 31.296875 18.609375 23.390625 
Q 18.609375 15.53125 22.484375 10.953125 
Q 26.375 6.390625 33.015625 6.390625 
Q 39.65625 6.390625 43.53125 10.953125 
Q 47.40625 15.53125 47.40625 23.390625 
Q 47.40625 31.296875 43.53125 35.828125 
Q 39.65625 40.375 33.015625 40.375 
z
M 52.59375 71.296875 
L 52.59375 62.3125 
Q 48.875 64.0625 45.09375 64.984375 
Q 41.3125 65.921875 37.59375 65.921875 
Q 27.828125 65.921875 22.671875 59.328125 
Q 17.53125 52.734375 16.796875 39.40625 
Q 19.671875 43.65625 24.015625 45.921875 
Q 28.375 48.1875 33.59375 48.1875 
Q 44.578125 48.1875 50.953125 41.515625 
Q 57.328125 34.859375 57.328125 23.390625 
Q 57.328125 12.15625 50.6875 5.359375 
Q 44.046875 -1.421875 33.015625 -1.421875 
Q 20.359375 -1.421875 13.671875 8.265625 
Q 6.984375 17.96875 6.984375 36.375 
Q 6.984375 53.65625 15.1875 63.9375 
Q 23.390625 74.21875 37.203125 74.21875 
Q 40.921875 74.21875 44.703125 73.484375 
Q 48.484375 72.75 52.59375 71.296875 
z
" id="DejaVuSans-54"/>
       </defs>
       <use xlink:href="#DejaVuSans-54"/>
      </g>
     </g>
    </g>
    <g id="xtick_5">
     <g id="line2d_13">
      <path clip-path="url(#p6ae2ed5e42)" d="M 97.755429 298.944 
L 97.755429 27.648 
" style="fill:none;stroke:#b0b0b0;stroke-linecap:square;stroke-width:0.8;"/>
     </g>
     <g id="line2d_14">
      <defs>
       <path d="M 0 0 
L 0 2 
" id="md84f0de135" style="stroke:#000000;stroke-width:0.6;"/>
      </defs>
      <g>
       <use style="stroke:#000000;stroke-width:0.6;" x="97.755429" xlink:href="#md84f0de135" y="298.944"/>
      </g>
     </g>
    </g>
    <g id="xtick_6">
     <g id="line2d_15">
      <path clip-path="url(#p6ae2ed5e42)" d="M 178.066286 298.944 
L 178.066286 27.648 
" style="fill:none;stroke:#b0b0b0;stroke-linecap:square;stroke-width:0.8;"/>
     </g>
     <g id="line2d_16">
      <g>
       <use style="stroke:#000000;stroke-width:0.6;" x="178.066286" xlink:href="#md84f0de135" y="298.944"/>
      </g>
     </g>
    </g>
    <g id="xtick_7">
     <g id="line2d_17">
      <path clip-path="url(#p6ae2ed5e42)" d="M 258.377143 298.944 
L 258.377143 27.648 
" style="fill:none;stroke:#b0b0b0;stroke-linecap:square;stroke-width:0.8;"/>
     </g>
     <g id="line2d_18">
      <g>
       <use style="stroke:#000000;stroke-width:0.6;" x="258.377143" xlink:href="#md84f0de135" y="298.944"/>
      </g>
     </g>
    </g>
    <g id="xtick_8">
     <g id="line2d_19">
      <path clip-path="url(#p6ae2ed5e42)" d="M 338.688 298.944 
L 338.688 27.648 
" style="fill:none;stroke:#b0b0b0;stroke-linecap:square;stroke-width:0.8;"/>
     </g>
     <g id="line2d_20">
      <g>
       <use style="stroke:#000000;stroke-width:0.6;" x="338.688" xlink:href="#md84f0de135" y="298.944"/>
      </g>
     </g>
    </g>
    <g id="text_5">
     <!-- log10(# f-evals / dimension) -->
     <g transform="translate(77.764078 342.217594)scale(0.17 -0.17)">
      <defs>
       <path d="M 9.421875 75.984375 
L 18.40625 75.984375 
L 18.40625 0 
L 9.421875 0 
z
" id="DejaVuSans-108"/>
       <path d="M 30.609375 48.390625 
Q 23.390625 48.390625 19.1875 42.75 
Q 14.984375 37.109375 14.984375 27.296875 
Q 14.984375 17.484375 19.15625 11.84375 
Q 23.34375 6.203125 30.609375 6.203125 
Q 37.796875 6.203125 41.984375 11.859375 
Q 46.1875 17.53125 46.1875 27.296875 
Q 46.1875 37.015625 41.984375 42.703125 
Q 37.796875 48.390625 30.609375 48.390625 
z
M 30.609375 56 
Q 42.328125 56 49.015625 48.375 
Q 55.71875 40.765625 55.71875 27.296875 
Q 55.71875 13.875 49.015625 6.21875 
Q 42.328125 -1.421875 30.609375 -1.421875 
Q 18.84375 -1.421875 12.171875 6.21875 
Q 5.515625 13.875 5.515625 27.296875 
Q 5.515625 40.765625 12.171875 48.375 
Q 18.84375 56 30.609375 56 
z
" id="DejaVuSans-111"/>
       <path d="M 45.40625 27.984375 
Q 45.40625 37.75 41.375 43.109375 
Q 37.359375 48.484375 30.078125 48.484375 
Q 22.859375 48.484375 18.828125 43.109375 
Q 14.796875 37.75 14.796875 27.984375 
Q 14.796875 18.265625 18.828125 12.890625 
Q 22.859375 7.515625 30.078125 7.515625 
Q 37.359375 7.515625 41.375 12.890625 
Q 45.40625 18.265625 45.40625 27.984375 
z
M 54.390625 6.78125 
Q 54.390625 -7.171875 48.1875 -13.984375 
Q 42 -20.796875 29.203125 -20.796875 
Q 24.46875 -20.796875 20.265625 -20.09375 
Q 16.0625 -19.390625 12.109375 -17.921875 
L 12.109375 -9.1875 
Q 16.0625 -11.328125 19.921875 -12.34375 
Q 23.78125 -13.375 27.78125 -13.375 
Q 36.625 -13.375 41.015625 -8.765625 
Q 45.40625 -4.15625 45.40625 5.171875 
L 45.40625 9.625 
Q 42.625 4.78125 38.28125 2.390625 
Q 33.9375 0 27.875 0 
Q 17.828125 0 11.671875 7.65625 
Q 5.515625 15.328125 5.515625 27.984375 
Q 5.515625 40.671875 11.671875 48.328125 
Q 17.828125 56 27.875 56 
Q 33.9375 56 38.28125 53.609375 
Q 42.625 51.21875 45.40625 46.390625 
L 45.40625 54.6875 
L 54.390625 54.6875 
z
" id="DejaVuSans-103"/>
       <path d="M 12.40625 8.296875 
L 28.515625 8.296875 
L 28.515625 63.921875 
L 10.984375 60.40625 
L 10.984375 69.390625 
L 28.421875 72.90625 
L 38.28125 72.90625 
L 38.28125 8.296875 
L 54.390625 8.296875 
L 54.390625 0 
L 12.40625 0 
z
" id="DejaVuSans-49"/>
       <path d="M 31 75.875 
Q 24.46875 64.65625 21.28125 53.65625 
Q 18.109375 42.671875 18.109375 31.390625 
Q 18.109375 20.125 21.3125 9.0625 
Q 24.515625 -2 31 -13.1875 
L 23.1875 -13.1875 
Q 15.875 -1.703125 12.234375 9.375 
Q 8.59375 20.453125 8.59375 31.390625 
Q 8.59375 42.28125 12.203125 53.3125 
Q 15.828125 64.359375 23.1875 75.875 
z
" id="DejaVuSans-40"/>
       <path d="M 51.125 44 
L 36.921875 44 
L 32.8125 27.6875 
L 47.125 27.6875 
z
M 43.796875 71.78125 
L 38.71875 51.515625 
L 52.984375 51.515625 
L 58.109375 71.78125 
L 65.921875 71.78125 
L 60.890625 51.515625 
L 76.125 51.515625 
L 76.125 44 
L 58.984375 44 
L 54.984375 27.6875 
L 70.515625 27.6875 
L 70.515625 20.21875 
L 53.078125 20.21875 
L 48 0 
L 40.1875 0 
L 45.21875 20.21875 
L 30.90625 20.21875 
L 25.875 0 
L 18.015625 0 
L 23.09375 20.21875 
L 7.71875 20.21875 
L 7.71875 27.6875 
L 24.90625 27.6875 
L 29 44 
L 13.28125 44 
L 13.28125 51.515625 
L 30.90625 51.515625 
L 35.890625 71.78125 
z
" id="DejaVuSans-35"/>
       <path id="DejaVuSans-32"/>
       <path d="M 37.109375 75.984375 
L 37.109375 68.5 
L 28.515625 68.5 
Q 23.6875 68.5 21.796875 66.546875 
Q 19.921875 64.59375 19.921875 59.515625 
L 19.921875 54.6875 
L 34.71875 54.6875 
L 34.71875 47.703125 
L 19.921875 47.703125 
L 19.921875 0 
L 10.890625 0 
L 10.890625 47.703125 
L 2.296875 47.703125 
L 2.296875 54.6875 
L 10.890625 54.6875 
L 10.890625 58.5 
Q 10.890625 67.625 15.140625 71.796875 
Q 19.390625 75.984375 28.609375 75.984375 
z
" id="DejaVuSans-102"/>
       <path d="M 4.890625 31.390625 
L 31.203125 31.390625 
L 31.203125 23.390625 
L 4.890625 23.390625 
z
" id="DejaVuSans-45"/>
       <path d="M 56.203125 29.59375 
L 56.203125 25.203125 
L 14.890625 25.203125 
Q 15.484375 15.921875 20.484375 11.0625 
Q 25.484375 6.203125 34.421875 6.203125 
Q 39.59375 6.203125 44.453125 7.46875 
Q 49.3125 8.734375 54.109375 11.28125 
L 54.109375 2.78125 
Q 49.265625 0.734375 44.1875 -0.34375 
Q 39.109375 -1.421875 33.890625 -1.421875 
Q 20.796875 -1.421875 13.15625 6.1875 
Q 5.515625 13.8125 5.515625 26.8125 
Q 5.515625 40.234375 12.765625 48.109375 
Q 20.015625 56 32.328125 56 
Q 43.359375 56 49.78125 48.890625 
Q 56.203125 41.796875 56.203125 29.59375 
z
M 47.21875 32.234375 
Q 47.125 39.59375 43.09375 43.984375 
Q 39.0625 48.390625 32.421875 48.390625 
Q 24.90625 48.390625 20.390625 44.140625 
Q 15.875 39.890625 15.1875 32.171875 
z
" id="DejaVuSans-101"/>
       <path d="M 2.984375 54.6875 
L 12.5 54.6875 
L 29.59375 8.796875 
L 46.6875 54.6875 
L 56.203125 54.6875 
L 35.6875 0 
L 23.484375 0 
z
" id="DejaVuSans-118"/>
       <path d="M 34.28125 27.484375 
Q 23.390625 27.484375 19.1875 25 
Q 14.984375 22.515625 14.984375 16.5 
Q 14.984375 11.71875 18.140625 8.90625 
Q 21.296875 6.109375 26.703125 6.109375 
Q 34.1875 6.109375 38.703125 11.40625 
Q 43.21875 16.703125 43.21875 25.484375 
L 43.21875 27.484375 
z
M 52.203125 31.203125 
L 52.203125 0 
L 43.21875 0 
L 43.21875 8.296875 
Q 40.140625 3.328125 35.546875 0.953125 
Q 30.953125 -1.421875 24.3125 -1.421875 
Q 15.921875 -1.421875 10.953125 3.296875 
Q 6 8.015625 6 15.921875 
Q 6 25.140625 12.171875 29.828125 
Q 18.359375 34.515625 30.609375 34.515625 
L 43.21875 34.515625 
L 43.21875 35.40625 
Q 43.21875 41.609375 39.140625 45 
Q 35.0625 48.390625 27.6875 48.390625 
Q 23 48.390625 18.546875 47.265625 
Q 14.109375 46.140625 10.015625 43.890625 
L 10.015625 52.203125 
Q 14.9375 54.109375 19.578125 55.046875 
Q 24.21875 56 28.609375 56 
Q 40.484375 56 46.34375 49.84375 
Q 52.203125 43.703125 52.203125 31.203125 
z
" id="DejaVuSans-97"/>
       <path d="M 44.28125 53.078125 
L 44.28125 44.578125 
Q 40.484375 46.53125 36.375 47.5 
Q 32.28125 48.484375 27.875 48.484375 
Q 21.1875 48.484375 17.84375 46.4375 
Q 14.5 44.390625 14.5 40.28125 
Q 14.5 37.15625 16.890625 35.375 
Q 19.28125 33.59375 26.515625 31.984375 
L 29.59375 31.296875 
Q 39.15625 29.25 43.1875 25.515625 
Q 47.21875 21.78125 47.21875 15.09375 
Q 47.21875 7.46875 41.1875 3.015625 
Q 35.15625 -1.421875 24.609375 -1.421875 
Q 20.21875 -1.421875 15.453125 -0.5625 
Q 10.6875 0.296875 5.421875 2 
L 5.421875 11.28125 
Q 10.40625 8.6875 15.234375 7.390625 
Q 20.0625 6.109375 24.8125 6.109375 
Q 31.15625 6.109375 34.5625 8.28125 
Q 37.984375 10.453125 37.984375 14.40625 
Q 37.984375 18.0625 35.515625 20.015625 
Q 33.0625 21.96875 24.703125 23.78125 
L 21.578125 24.515625 
Q 13.234375 26.265625 9.515625 29.90625 
Q 5.8125 33.546875 5.8125 39.890625 
Q 5.8125 47.609375 11.28125 51.796875 
Q 16.75 56 26.8125 56 
Q 31.78125 56 36.171875 55.265625 
Q 40.578125 54.546875 44.28125 53.078125 
z
" id="DejaVuSans-115"/>
       <path d="M 25.390625 72.90625 
L 33.6875 72.90625 
L 8.296875 -9.28125 
L 0 -9.28125 
z
" id="DejaVuSans-47"/>
       <path d="M 45.40625 46.390625 
L 45.40625 75.984375 
L 54.390625 75.984375 
L 54.390625 0 
L 45.40625 0 
L 45.40625 8.203125 
Q 42.578125 3.328125 38.25 0.953125 
Q 33.9375 -1.421875 27.875 -1.421875 
Q 17.96875 -1.421875 11.734375 6.484375 
Q 5.515625 14.40625 5.515625 27.296875 
Q 5.515625 40.1875 11.734375 48.09375 
Q 17.96875 56 27.875 56 
Q 33.9375 56 38.25 53.625 
Q 42.578125 51.265625 45.40625 46.390625 
z
M 14.796875 27.296875 
Q 14.796875 17.390625 18.875 11.75 
Q 22.953125 6.109375 30.078125 6.109375 
Q 37.203125 6.109375 41.296875 11.75 
Q 45.40625 17.390625 45.40625 27.296875 
Q 45.40625 37.203125 41.296875 42.84375 
Q 37.203125 48.484375 30.078125 48.484375 
Q 22.953125 48.484375 18.875 42.84375 
Q 14.796875 37.203125 14.796875 27.296875 
z
" id="DejaVuSans-100"/>
       <path d="M 9.421875 54.6875 
L 18.40625 54.6875 
L 18.40625 0 
L 9.421875 0 
z
M 9.421875 75.984375 
L 18.40625 75.984375 
L 18.40625 64.59375 
L 9.421875 64.59375 
z
" id="DejaVuSans-105"/>
       <path d="M 52 44.1875 
Q 55.375 50.25 60.0625 53.125 
Q 64.75 56 71.09375 56 
Q 79.640625 56 84.28125 50.015625 
Q 88.921875 44.046875 88.921875 33.015625 
L 88.921875 0 
L 79.890625 0 
L 79.890625 32.71875 
Q 79.890625 40.578125 77.09375 44.375 
Q 74.3125 48.1875 68.609375 48.1875 
Q 61.625 48.1875 57.5625 43.546875 
Q 53.515625 38.921875 53.515625 30.90625 
L 53.515625 0 
L 44.484375 0 
L 44.484375 32.71875 
Q 44.484375 40.625 41.703125 44.40625 
Q 38.921875 48.1875 33.109375 48.1875 
Q 26.21875 48.1875 22.15625 43.53125 
Q 18.109375 38.875 18.109375 30.90625 
L 18.109375 0 
L 9.078125 0 
L 9.078125 54.6875 
L 18.109375 54.6875 
L 18.109375 46.1875 
Q 21.1875 51.21875 25.484375 53.609375 
Q 29.78125 56 35.6875 56 
Q 41.65625 56 45.828125 52.96875 
Q 50 49.953125 52 44.1875 
z
" id="DejaVuSans-109"/>
       <path d="M 54.890625 33.015625 
L 54.890625 0 
L 45.90625 0 
L 45.90625 32.71875 
Q 45.90625 40.484375 42.875 44.328125 
Q 39.84375 48.1875 33.796875 48.1875 
Q 26.515625 48.1875 22.3125 43.546875 
Q 18.109375 38.921875 18.109375 30.90625 
L 18.109375 0 
L 9.078125 0 
L 9.078125 54.6875 
L 18.109375 54.6875 
L 18.109375 46.1875 
Q 21.34375 51.125 25.703125 53.5625 
Q 30.078125 56 35.796875 56 
Q 45.21875 56 50.046875 50.171875 
Q 54.890625 44.34375 54.890625 33.015625 
z
" id="DejaVuSans-110"/>
       <path d="M 8.015625 75.875 
L 15.828125 75.875 
Q 23.140625 64.359375 26.78125 53.3125 
Q 30.421875 42.28125 30.421875 31.390625 
Q 30.421875 20.453125 26.78125 9.375 
Q 23.140625 -1.703125 15.828125 -13.1875 
L 8.015625 -13.1875 
Q 14.5 -2 17.703125 9.0625 
Q 20.90625 20.125 20.90625 31.390625 
Q 20.90625 42.671875 17.703125 53.65625 
Q 14.5 64.65625 8.015625 75.875 
z
" id="DejaVuSans-41"/>
      </defs>
      <use xlink:href="#DejaVuSans-108"/>
      <use x="27.783203" xlink:href="#DejaVuSans-111"/>
      <use x="88.964844" xlink:href="#DejaVuSans-103"/>
      <use x="152.441406" xlink:href="#DejaVuSans-49"/>
      <use x="216.064453" xlink:href="#DejaVuSans-48"/>
      <use x="279.6875" xlink:href="#DejaVuSans-40"/>
      <use x="318.701172" xlink:href="#DejaVuSans-35"/>
      <use x="402.490234" xlink:href="#DejaVuSans-32"/>
      <use x="434.277344" xlink:href="#DejaVuSans-102"/>
      <use x="463.982422" xlink:href="#DejaVuSans-45"/>
      <use x="500.066406" xlink:href="#DejaVuSans-101"/>
      <use x="561.589844" xlink:href="#DejaVuSans-118"/>
      <use x="620.769531" xlink:href="#DejaVuSans-97"/>
      <use x="682.048828" xlink:href="#DejaVuSans-108"/>
      <use x="709.832031" xlink:href="#DejaVuSans-115"/>
      <use x="761.931641" xlink:href="#DejaVuSans-32"/>
      <use x="793.71875" xlink:href="#DejaVuSans-47"/>
      <use x="827.410156" xlink:href="#DejaVuSans-32"/>
      <use x="859.197266" xlink:href="#DejaVuSans-100"/>
      <use x="922.673828" xlink:href="#DejaVuSans-105"/>
      <use x="950.457031" xlink:href="#DejaVuSans-109"/>
      <use x="1047.869141" xlink:href="#DejaVuSans-101"/>
      <use x="1109.392578" xlink:href="#DejaVuSans-110"/>
      <use x="1172.771484" xlink:href="#DejaVuSans-115"/>
      <use x="1224.871094" xlink:href="#DejaVuSans-105"/>
      <use x="1252.654297" xlink:href="#DejaVuSans-111"/>
      <use x="1313.835938" xlink:href="#DejaVuSans-110"/>
      <use x="1377.214844" xlink:href="#DejaVuSans-41"/>
     </g>
    </g>
   </g>
   <g id="matplotlib.axis_2">
    <g id="ytick_1">
     <g id="line2d_21">
      <path clip-path="url(#p6ae2ed5e42)" d="M 57.6 298.944 
L 338.688 298.944 
" style="fill:none;stroke:#b0b0b0;stroke-linecap:square;stroke-width:0.8;"/>
     </g>
     <g id="line2d_22">
      <defs>
       <path d="M 0 0 
L -3.5 0 
" id="m1f3201a6e9" style="stroke:#000000;stroke-width:0.8;"/>
      </defs>
      <g>
       <use style="stroke:#000000;stroke-width:0.8;" x="57.6" xlink:href="#m1f3201a6e9" y="298.944"/>
      </g>
     </g>
     <g id="text_6">
      <!-- 0.0 -->
      <g transform="translate(25.155 305.02275)scale(0.16 -0.16)">
       <defs>
        <path d="M 10.6875 12.40625 
L 21 12.40625 
L 21 0 
L 10.6875 0 
z
" id="DejaVuSans-46"/>
       </defs>
       <use xlink:href="#DejaVuSans-48"/>
       <use x="63.623047" xlink:href="#DejaVuSans-46"/>
       <use x="95.410156" xlink:href="#DejaVuSans-48"/>
      </g>
     </g>
    </g>
    <g id="ytick_2">
     <g id="line2d_23">
      <path clip-path="url(#p6ae2ed5e42)" d="M 57.6 245.22202 
L 338.688 245.22202 
" style="fill:none;stroke:#b0b0b0;stroke-linecap:square;stroke-width:0.8;"/>
     </g>
     <g id="line2d_24">
      <g>
       <use style="stroke:#000000;stroke-width:0.8;" x="57.6" xlink:href="#m1f3201a6e9" y="245.22202"/>
      </g>
     </g>
     <g id="text_7">
      <!-- 0.2 -->
      <g transform="translate(25.155 251.30077)scale(0.16 -0.16)">
       <use xlink:href="#DejaVuSans-48"/>
       <use x="63.623047" xlink:href="#DejaVuSans-46"/>
       <use x="95.410156" xlink:href="#DejaVuSans-50"/>
      </g>
     </g>
    </g>
    <g id="ytick_3">
     <g id="line2d_25">
      <path clip-path="url(#p6ae2ed5e42)" d="M 57.6 191.50004 
L 338.688 191.50004 
" style="fill:none;stroke:#b0b0b0;stroke-linecap:square;stroke-width:0.8;"/>
     </g>
     <g id="line2d_26">
      <g>
       <use style="stroke:#000000;stroke-width:0.8;" x="57.6" xlink:href="#m1f3201a6e9" y="191.50004"/>
      </g>
     </g>
     <g id="text_8">
      <!-- 0.4 -->
      <g transform="translate(25.155 197.57879)scale(0.16 -0.16)">
       <use xlink:href="#DejaVuSans-48"/>
       <use x="63.623047" xlink:href="#DejaVuSans-46"/>
       <use x="95.410156" xlink:href="#DejaVuSans-52"/>
      </g>
     </g>
    </g>
    <g id="ytick_4">
     <g id="line2d_27">
      <path clip-path="url(#p6ae2ed5e42)" d="M 57.6 137.778059 
L 338.688 137.778059 
" style="fill:none;stroke:#b0b0b0;stroke-linecap:square;stroke-width:0.8;"/>
     </g>
     <g id="line2d_28">
      <g>
       <use style="stroke:#000000;stroke-width:0.8;" x="57.6" xlink:href="#m1f3201a6e9" y="137.778059"/>
      </g>
     </g>
     <g id="text_9">
      <!-- 0.6 -->
      <g transform="translate(25.155 143.856809)scale(0.16 -0.16)">
       <use xlink:href="#DejaVuSans-48"/>
       <use x="63.623047" xlink:href="#DejaVuSans-46"/>
       <use x="95.410156" xlink:href="#DejaVuSans-54"/>
      </g>
     </g>
    </g>
    <g id="ytick_5">
     <g id="line2d_29">
      <path clip-path="url(#p6ae2ed5e42)" d="M 57.6 84.056079 
L 338.688 84.056079 
" style="fill:none;stroke:#b0b0b0;stroke-linecap:square;stroke-width:0.8;"/>
     </g>
     <g id="line2d_30">
      <g>
       <use style="stroke:#000000;stroke-width:0.8;" x="57.6" xlink:href="#m1f3201a6e9" y="84.056079"/>
      </g>
     </g>
     <g id="text_10">
      <!-- 0.8 -->
      <g transform="translate(25.155 90.134829)scale(0.16 -0.16)">
       <defs>
        <path d="M 31.78125 34.625 
Q 24.75 34.625 20.71875 30.859375 
Q 16.703125 27.09375 16.703125 20.515625 
Q 16.703125 13.921875 20.71875 10.15625 
Q 24.75 6.390625 31.78125 6.390625 
Q 38.8125 6.390625 42.859375 10.171875 
Q 46.921875 13.96875 46.921875 20.515625 
Q 46.921875 27.09375 42.890625 30.859375 
Q 38.875 34.625 31.78125 34.625 
z
M 21.921875 38.8125 
Q 15.578125 40.375 12.03125 44.71875 
Q 8.5 49.078125 8.5 55.328125 
Q 8.5 64.0625 14.71875 69.140625 
Q 20.953125 74.21875 31.78125 74.21875 
Q 42.671875 74.21875 48.875 69.140625 
Q 55.078125 64.0625 55.078125 55.328125 
Q 55.078125 49.078125 51.53125 44.71875 
Q 48 40.375 41.703125 38.8125 
Q 48.828125 37.15625 52.796875 32.3125 
Q 56.78125 27.484375 56.78125 20.515625 
Q 56.78125 9.90625 50.3125 4.234375 
Q 43.84375 -1.421875 31.78125 -1.421875 
Q 19.734375 -1.421875 13.25 4.234375 
Q 6.78125 9.90625 6.78125 20.515625 
Q 6.78125 27.484375 10.78125 32.3125 
Q 14.796875 37.15625 21.921875 38.8125 
z
M 18.3125 54.390625 
Q 18.3125 48.734375 21.84375 45.5625 
Q 25.390625 42.390625 31.78125 42.390625 
Q 38.140625 42.390625 41.71875 45.5625 
Q 45.3125 48.734375 45.3125 54.390625 
Q 45.3125 60.0625 41.71875 63.234375 
Q 38.140625 66.40625 31.78125 66.40625 
Q 25.390625 66.40625 21.84375 63.234375 
Q 18.3125 60.0625 18.3125 54.390625 
z
" id="DejaVuSans-56"/>
       </defs>
       <use xlink:href="#DejaVuSans-48"/>
       <use x="63.623047" xlink:href="#DejaVuSans-46"/>
       <use x="95.410156" xlink:href="#DejaVuSans-56"/>
      </g>
     </g>
    </g>
    <g id="ytick_6">
     <g id="line2d_31">
      <path clip-path="url(#p6ae2ed5e42)" d="M 57.6 30.334099 
L 338.688 30.334099 
" style="fill:none;stroke:#b0b0b0;stroke-linecap:square;stroke-width:0.8;"/>
     </g>
     <g id="line2d_32">
      <g>
       <use style="stroke:#000000;stroke-width:0.8;" x="57.6" xlink:href="#m1f3201a6e9" y="30.334099"/>
      </g>
     </g>
     <g id="text_11">
      <!-- 1.0 -->
      <g transform="translate(25.155 36.412849)scale(0.16 -0.16)">
       <use xlink:href="#DejaVuSans-49"/>
       <use x="63.623047" xlink:href="#DejaVuSans-46"/>
       <use x="95.410156" xlink:href="#DejaVuSans-48"/>
      </g>
     </g>
    </g>
    <g id="text_12">
     <!-- Fraction of function,target pairs -->
     <g transform="translate(17.619531 297.681)rotate(-90)scale(0.17 -0.17)">
      <defs>
       <path d="M 9.8125 72.90625 
L 51.703125 72.90625 
L 51.703125 64.59375 
L 19.671875 64.59375 
L 19.671875 43.109375 
L 48.578125 43.109375 
L 48.578125 34.8125 
L 19.671875 34.8125 
L 19.671875 0 
L 9.8125 0 
z
" id="DejaVuSans-70"/>
       <path d="M 41.109375 46.296875 
Q 39.59375 47.171875 37.8125 47.578125 
Q 36.03125 48 33.890625 48 
Q 26.265625 48 22.1875 43.046875 
Q 18.109375 38.09375 18.109375 28.8125 
L 18.109375 0 
L 9.078125 0 
L 9.078125 54.6875 
L 18.109375 54.6875 
L 18.109375 46.1875 
Q 20.953125 51.171875 25.484375 53.578125 
Q 30.03125 56 36.53125 56 
Q 37.453125 56 38.578125 55.875 
Q 39.703125 55.765625 41.0625 55.515625 
z
" id="DejaVuSans-114"/>
       <path d="M 48.78125 52.59375 
L 48.78125 44.1875 
Q 44.96875 46.296875 41.140625 47.34375 
Q 37.3125 48.390625 33.40625 48.390625 
Q 24.65625 48.390625 19.8125 42.84375 
Q 14.984375 37.3125 14.984375 27.296875 
Q 14.984375 17.28125 19.8125 11.734375 
Q 24.65625 6.203125 33.40625 6.203125 
Q 37.3125 6.203125 41.140625 7.25 
Q 44.96875 8.296875 48.78125 10.40625 
L 48.78125 2.09375 
Q 45.015625 0.34375 40.984375 -0.53125 
Q 36.96875 -1.421875 32.421875 -1.421875 
Q 20.0625 -1.421875 12.78125 6.34375 
Q 5.515625 14.109375 5.515625 27.296875 
Q 5.515625 40.671875 12.859375 48.328125 
Q 20.21875 56 33.015625 56 
Q 37.15625 56 41.109375 55.140625 
Q 45.0625 54.296875 48.78125 52.59375 
z
" id="DejaVuSans-99"/>
       <path d="M 18.3125 70.21875 
L 18.3125 54.6875 
L 36.8125 54.6875 
L 36.8125 47.703125 
L 18.3125 47.703125 
L 18.3125 18.015625 
Q 18.3125 11.328125 20.140625 9.421875 
Q 21.96875 7.515625 27.59375 7.515625 
L 36.8125 7.515625 
L 36.8125 0 
L 27.59375 0 
Q 17.1875 0 13.234375 3.875 
Q 9.28125 7.765625 9.28125 18.015625 
L 9.28125 47.703125 
L 2.6875 47.703125 
L 2.6875 54.6875 
L 9.28125 54.6875 
L 9.28125 70.21875 
z
" id="DejaVuSans-116"/>
       <path d="M 8.5 21.578125 
L 8.5 54.6875 
L 17.484375 54.6875 
L 17.484375 21.921875 
Q 17.484375 14.15625 20.5 10.265625 
Q 23.53125 6.390625 29.59375 6.390625 
Q 36.859375 6.390625 41.078125 11.03125 
Q 45.3125 15.671875 45.3125 23.6875 
L 45.3125 54.6875 
L 54.296875 54.6875 
L 54.296875 0 
L 45.3125 0 
L 45.3125 8.40625 
Q 42.046875 3.421875 37.71875 1 
Q 33.40625 -1.421875 27.6875 -1.421875 
Q 18.265625 -1.421875 13.375 4.4375 
Q 8.5 10.296875 8.5 21.578125 
z
M 31.109375 56 
z
" id="DejaVuSans-117"/>
       <path d="M 11.71875 12.40625 
L 22.015625 12.40625 
L 22.015625 4 
L 14.015625 -11.625 
L 7.71875 -11.625 
L 11.71875 4 
z
" id="DejaVuSans-44"/>
       <path d="M 18.109375 8.203125 
L 18.109375 -20.796875 
L 9.078125 -20.796875 
L 9.078125 54.6875 
L 18.109375 54.6875 
L 18.109375 46.390625 
Q 20.953125 51.265625 25.265625 53.625 
Q 29.59375 56 35.59375 56 
Q 45.5625 56 51.78125 48.09375 
Q 58.015625 40.1875 58.015625 27.296875 
Q 58.015625 14.40625 51.78125 6.484375 
Q 45.5625 -1.421875 35.59375 -1.421875 
Q 29.59375 -1.421875 25.265625 0.953125 
Q 20.953125 3.328125 18.109375 8.203125 
z
M 48.6875 27.296875 
Q 48.6875 37.203125 44.609375 42.84375 
Q 40.53125 48.484375 33.40625 48.484375 
Q 26.265625 48.484375 22.1875 42.84375 
Q 18.109375 37.203125 18.109375 27.296875 
Q 18.109375 17.390625 22.1875 11.75 
Q 26.265625 6.109375 33.40625 6.109375 
Q 40.53125 6.109375 44.609375 11.75 
Q 48.6875 17.390625 48.6875 27.296875 
z
" id="DejaVuSans-112"/>
      </defs>
      <use xlink:href="#DejaVuSans-70"/>
      <use x="50.269531" xlink:href="#DejaVuSans-114"/>
      <use x="91.382812" xlink:href="#DejaVuSans-97"/>
      <use x="152.662109" xlink:href="#DejaVuSans-99"/>
      <use x="207.642578" xlink:href="#DejaVuSans-116"/>
      <use x="246.851562" xlink:href="#DejaVuSans-105"/>
      <use x="274.634766" xlink:href="#DejaVuSans-111"/>
      <use x="335.816406" xlink:href="#DejaVuSans-110"/>
      <use x="399.195312" xlink:href="#DejaVuSans-32"/>
      <use x="430.982422" xlink:href="#DejaVuSans-111"/>
      <use x="492.164062" xlink:href="#DejaVuSans-102"/>
      <use x="527.369141" xlink:href="#DejaVuSans-32"/>
      <use x="559.15625" xlink:href="#DejaVuSans-102"/>
      <use x="594.361328" xlink:href="#DejaVuSans-117"/>
      <use x="657.740234" xlink:href="#DejaVuSans-110"/>
      <use x="721.119141" xlink:href="#DejaVuSans-99"/>
      <use x="776.099609" xlink:href="#DejaVuSans-116"/>
      <use x="815.308594" xlink:href="#DejaVuSans-105"/>
      <use x="843.091797" xlink:href="#DejaVuSans-111"/>
      <use x="904.273438" xlink:href="#DejaVuSans-110"/>
      <use x="967.652344" xlink:href="#DejaVuSans-44"/>
      <use x="999.439453" xlink:href="#DejaVuSans-116"/>
      <use x="1038.648438" xlink:href="#DejaVuSans-97"/>
      <use x="1099.927734" xlink:href="#DejaVuSans-114"/>
      <use x="1139.291016" xlink:href="#DejaVuSans-103"/>
      <use x="1202.767578" xlink:href="#DejaVuSans-101"/>
      <use x="1264.291016" xlink:href="#DejaVuSans-116"/>
      <use x="1303.5" xlink:href="#DejaVuSans-32"/>
      <use x="1335.287109" xlink:href="#DejaVuSans-112"/>
      <use x="1398.763672" xlink:href="#DejaVuSans-97"/>
      <use x="1460.042969" xlink:href="#DejaVuSans-105"/>
      <use x="1487.826172" xlink:href="#DejaVuSans-114"/>
      <use x="1528.939453" xlink:href="#DejaVuSans-115"/>
     </g>
    </g>
   </g>
   <g id="line2d_33">
    <defs>
     <path d="M 0 1.5 
C 0.397805 1.5 0.77937 1.341951 1.06066 1.06066 
C 1.341951 0.77937 1.5 0.397805 1.5 0 
C 1.5 -0.397805 1.341951 -0.77937 1.06066 -1.06066 
C 0.77937 -1.341951 0.397805 -1.5 0 -1.5 
C -0.397805 -1.5 -0.77937 -1.341951 -1.06066 -1.06066 
C -1.341951 -0.77937 -1.5 -0.397805 -1.5 0 
C -1.5 0.397805 -1.341951 0.77937 -1.06066 1.06066 
C -0.77937 1.341951 -0.397805 1.5 0 1.5 
z
" id="m4a3820d666" style="stroke:#f5deb3;"/>
    </defs>
    <g>
     <use style="fill:#f5deb3;stroke:#f5deb3;" x="262.932641" xlink:href="#m4a3820d666" y="62.752535"/>
     <use style="fill:#f5deb3;stroke:#f5deb3;" x="262.932641" xlink:href="#m4a3820d666" y="62.752535"/>
    </g>
   </g>
   <g id="line2d_34">
    <defs>
     <path d="M 0 1.5 
C 0.397805 1.5 0.77937 1.341951 1.06066 1.06066 
C 1.341951 0.77937 1.5 0.397805 1.5 0 
C 1.5 -0.397805 1.341951 -0.77937 1.06066 -1.06066 
C 0.77937 -1.341951 0.397805 -1.5 0 -1.5 
C -0.397805 -1.5 -0.77937 -1.341951 -1.06066 -1.06066 
C -1.341951 -0.77937 -1.5 -0.397805 -1.5 0 
C -1.5 0.397805 -1.341951 0.77937 -1.06066 1.06066 
C -0.77937 1.341951 -0.397805 1.5 0 1.5 
z
" id="m996bceec26" style="stroke:#000080;"/>
    </defs>
    <g>
     <use style="fill:#000080;stroke:#000080;" x="257.321515" xlink:href="#m996bceec26" y="89.613525"/>
     <use style="fill:#000080;stroke:#000080;" x="257.321515" xlink:href="#m996bceec26" y="89.613525"/>
    </g>
   </g>
   <g id="line2d_35">
    <path d="M 29.53256 298.944 
L 29.53256 288.292228 
L 53.708537 288.292228 
L 53.708537 286.902867 
L 71.35013 286.902867 
L 71.35013 285.513505 
L 72.867545 285.513505 
L 72.867545 285.050384 
L 74.263433 285.050384 
L 74.263433 283.661023 
L 80.881459 283.661023 
L 80.881459 282.734782 
L 85.66744 282.734782 
L 85.66744 282.271661 
L 88.846997 282.271661 
L 88.846997 281.808541 
L 91.535274 281.808541 
L 91.535274 281.34542 
L 92.026554 281.34542 
L 92.026554 280.8823 
L 93.422441 280.8823 
L 93.422441 279.956059 
L 100.343767 279.956059 
L 100.343767 279.492938 
L 100.934985 279.492938 
L 100.934985 278.566697 
L 102.859376 278.566697 
L 102.859376 278.103577 
L 105.51043 278.103577 
L 105.51043 277.640456 
L 108.577836 277.640456 
L 108.577836 277.177336 
L 108.948899 277.177336 
L 108.948899 276.714215 
L 113.311233 276.714215 
L 113.311233 276.251095 
L 114.148479 276.251095 
L 114.148479 275.324854 
L 116.443076 275.324854 
L 116.443076 274.398612 
L 117.259781 274.398612 
L 117.259781 273.472371 
L 117.486268 273.472371 
L 117.486268 273.009251 
L 121.036887 273.009251 
L 121.036887 272.08301 
L 122.699028 272.08301 
L 122.699028 271.619889 
L 125.822869 271.619889 
L 125.822869 271.156769 
L 126.099688 271.156769 
L 126.099688 270.693648 
L 126.439646 270.693648 
L 126.439646 269.767407 
L 127.035353 269.767407 
L 127.035353 269.304287 
L 129.233413 269.304287 
L 129.233413 268.841166 
L 129.853291 268.841166 
L 129.853291 268.378046 
L 131.133813 268.378046 
L 131.133813 267.914925 
L 131.389151 267.914925 
L 131.389151 266.988684 
L 132.278599 266.988684 
L 132.278599 265.136202 
L 133.170708 265.136202 
L 133.170708 263.746841 
L 135.839358 263.746841 
L 135.839358 263.28372 
L 136.380754 263.28372 
L 136.380754 262.8206 
L 136.494612 262.8206 
L 136.494612 262.357479 
L 142.188649 262.357479 
L 142.188649 261.894358 
L 142.778958 261.894358 
L 142.778958 261.431238 
L 143.553018 261.431238 
L 143.553018 260.504997 
L 143.803587 260.504997 
L 143.803587 259.578756 
L 145.372754 259.578756 
L 145.372754 259.115635 
L 146.895853 259.115635 
L 146.895853 258.652515 
L 148.882639 258.652515 
L 148.882639 258.189394 
L 149.195872 258.189394 
L 149.25057 256.800033 
L 149.377533 256.800033 
L 149.377533 256.336912 
L 149.699829 256.336912 
L 149.699829 255.873792 
L 150.480434 255.873792 
L 150.480434 255.410671 
L 150.682827 255.410671 
L 150.682827 254.947551 
L 152.526944 254.947551 
L 152.526944 254.48443 
L 153.423725 254.48443 
L 153.423725 254.02131 
L 153.806399 254.02131 
L 153.806399 253.095069 
L 154.056927 253.095069 
L 154.056927 252.631948 
L 154.787617 252.631948 
L 154.787617 252.168828 
L 156.812195 252.168828 
L 156.812195 251.705707 
L 159.62811 251.705707 
L 159.648178 249.853225 
L 160.268789 249.853225 
L 160.268789 248.926984 
L 161.118732 248.926984 
L 161.118732 248.463863 
L 161.528659 248.463863 
L 161.528659 248.000743 
L 161.64531 248.000743 
L 161.64531 247.074502 
L 162.00818 247.074502 
L 162.00818 246.148261 
L 163.66156 246.148261 
L 163.66156 245.22202 
L 164.295217 245.22202 
L 164.295217 244.295779 
L 165.324425 244.295779 
L 165.324425 243.369538 
L 168.512429 243.369538 
L 168.512429 242.443297 
L 169.017779 242.443297 
L 169.047054 241.053935 
L 170.141087 241.053935 
L 170.141087 240.127694 
L 170.370339 240.127694 
L 170.370339 239.201453 
L 170.798844 239.201453 
L 170.798844 238.275212 
L 173.403777 238.275212 
L 173.403777 237.348971 
L 173.571573 237.348971 
L 173.571573 236.88585 
L 174.126799 236.88585 
L 174.126799 235.959609 
L 174.32243 235.959609 
L 174.32243 235.033368 
L 174.66913 235.033368 
L 174.762117 232.717766 
L 175.709669 232.717766 
L 175.709669 231.791525 
L 175.931828 231.791525 
L 175.931828 231.328404 
L 176.190077 231.328404 
L 176.190077 230.865284 
L 176.528565 230.865284 
L 176.547601 229.939043 
L 176.702921 229.939043 
L 176.702921 229.475922 
L 177.578194 229.475922 
L 177.578194 229.012802 
L 179.210311 229.012802 
L 179.298281 227.62344 
L 179.807517 227.62344 
L 179.807517 227.16032 
L 179.930185 227.16032 
L 179.930185 226.234079 
L 180.621518 226.234079 
L 180.675659 224.844717 
L 182.905341 224.844717 
L 182.905341 224.381596 
L 183.02386 224.381596 
L 183.02386 223.918476 
L 183.627498 223.918476 
L 183.627498 222.992235 
L 183.829169 222.992235 
L 183.829169 222.065994 
L 184.987852 222.065994 
L 184.987852 221.139753 
L 185.868176 221.139753 
L 185.868176 220.213512 
L 186.091944 220.213512 
L 186.091944 219.287271 
L 186.466528 219.287271 
L 186.466528 218.36103 
L 187.192391 218.36103 
L 187.281035 216.508548 
L 187.89917 216.508548 
L 187.89917 215.582307 
L 188.055259 215.582307 
L 188.055259 214.656066 
L 188.198261 214.656066 
L 188.198261 213.729825 
L 188.971007 213.729825 
L 188.971007 212.803583 
L 189.088194 212.803583 
L 189.088194 211.877342 
L 189.710961 211.877342 
L 189.710961 211.414222 
L 189.934909 211.414222 
L 189.950796 210.02486 
L 190.38985 210.02486 
L 190.38985 209.56174 
L 190.968562 209.56174 
L 191.058207 208.172378 
L 191.456004 208.172378 
L 191.512559 206.783017 
L 191.700296 206.783017 
L 191.744926 205.393655 
L 191.944361 205.393655 
L 191.944361 204.004294 
L 192.253222 204.004294 
L 192.364193 203.078053 
L 192.501921 203.078053 
L 192.501921 202.151812 
L 192.774155 202.151812 
L 192.774155 201.688691 
L 193.112994 201.688691 
L 193.112994 201.225571 
L 193.805521 201.225571 
L 193.805521 200.76245 
L 194.075011 200.76245 
L 194.087541 199.836209 
L 194.593699 199.836209 
L 194.593699 199.373088 
L 195.038198 199.373088 
L 195.038198 198.909968 
L 195.561409 198.909968 
L 195.561409 197.983727 
L 195.747152 197.983727 
L 195.790124 197.057486 
L 195.970961 197.057486 
L 195.970961 196.594365 
L 196.439356 196.594365 
L 196.494 195.668124 
L 196.678519 195.668124 
L 196.739594 194.278763 
L 196.850418 194.278763 
L 196.850418 193.352522 
L 197.07584 193.352522 
L 197.07584 192.426281 
L 197.272897 192.426281 
L 197.272897 191.96316 
L 197.685381 191.96316 
L 197.746421 190.573799 
L 197.988466 190.573799 
L 198.058434 189.184437 
L 198.102713 189.184437 
L 198.211823 188.258196 
L 198.852522 188.258196 
L 198.914894 186.868834 
L 198.975992 186.868834 
L 198.975992 185.942593 
L 199.539883 185.942593 
L 199.603907 184.090111 
L 199.694963 184.090111 
L 199.758421 183.16387 
L 199.939462 183.16387 
L 199.939462 182.237629 
L 200.293076 182.237629 
L 200.293076 181.774509 
L 200.545732 181.774509 
L 200.545732 180.848268 
L 200.668315 180.848268 
L 200.746395 179.922027 
L 201.054329 179.922027 
L 201.157634 178.995786 
L 201.562118 178.995786 
L 201.57843 178.069545 
L 201.813254 178.069545 
L 201.813254 177.606424 
L 202.006113 177.606424 
L 202.093395 176.217062 
L 202.147835 176.217062 
L 202.147835 175.753942 
L 202.553378 175.753942 
L 202.553378 175.290821 
L 202.672033 175.290821 
L 202.672033 174.827701 
L 203.180107 174.827701 
L 203.180107 174.36458 
L 203.351957 174.36458 
L 203.374034 173.438339 
L 203.59248 173.438339 
L 203.59248 172.975219 
L 203.723527 172.975219 
L 203.723527 172.048978 
L 203.886956 172.048978 
L 203.886956 171.585857 
L 204.234975 171.585857 
L 204.234975 171.122737 
L 204.479047 171.122737 
L 204.479047 170.659616 
L 205.149394 170.659616 
L 205.149394 169.733375 
L 205.314676 169.733375 
L 205.332944 168.344014 
L 205.510245 168.344014 
L 205.510245 167.417773 
L 205.628409 167.417773 
L 205.672873 165.565291 
L 205.862363 165.565291 
L 205.862363 165.10217 
L 205.991541 165.10217 
L 206.091122 164.175929 
L 206.120467 164.175929 
L 206.120467 163.712808 
L 206.743769 163.712808 
L 206.75387 162.786567 
L 206.875964 162.786567 
L 206.941355 160.934085 
L 207.061486 160.934085 
L 207.139361 160.007844 
L 207.184081 160.007844 
L 207.291464 158.618483 
L 207.354668 158.618483 
L 207.42477 157.229121 
L 207.589822 157.229121 
L 207.589822 156.30288 
L 208.224323 156.30288 
L 208.236075 155.376639 
L 208.554081 155.376639 
L 208.554081 154.913519 
L 208.824594 154.913519 
L 208.840728 153.987278 
L 209.024907 153.987278 
L 209.024907 153.524157 
L 209.275457 153.524157 
L 209.275457 153.061037 
L 209.469534 153.061037 
L 209.469534 152.597916 
L 209.764309 152.597916 
L 209.769973 151.671675 
L 209.933988 151.671675 
L 209.933988 151.208554 
L 210.508949 151.208554 
L 210.528478 149.819193 
L 210.649506 149.819193 
L 210.723116 148.892952 
L 210.982821 148.892952 
L 211.026082 147.50359 
L 211.29121 147.50359 
L 211.29121 146.577349 
L 211.43232 146.577349 
L 211.43232 146.114229 
L 211.754674 146.114229 
L 211.798082 145.187988 
L 212.222382 145.187988 
L 212.222382 144.724867 
L 212.377651 144.724867 
L 212.415159 143.798626 
L 212.722393 143.798626 
L 212.722393 143.335506 
L 213.065608 143.335506 
L 213.065608 142.409265 
L 213.435733 142.409265 
L 213.510378 141.019903 
L 213.723842 141.019903 
L 213.786925 139.630541 
L 214.052068 139.630541 
L 214.143967 138.24118 
L 214.906582 138.24118 
L 214.906582 137.778059 
L 215.019262 137.778059 
L 215.019262 137.314939 
L 215.133301 137.314939 
L 215.133301 136.851818 
L 215.336545 136.851818 
L 215.359165 135.925577 
L 215.736867 135.925577 
L 215.736867 134.999336 
L 215.861903 134.999336 
L 215.936417 133.609975 
L 216.042261 133.609975 
L 216.042261 132.683734 
L 216.591179 132.683734 
L 216.591179 131.757493 
L 216.737243 131.757493 
L 216.737243 131.294372 
L 217.089511 131.294372 
L 217.200439 129.44189 
L 217.489814 129.44189 
L 217.489814 128.97877 
L 217.818425 128.97877 
L 217.818425 128.052529 
L 217.962038 128.052529 
L 217.990336 127.126287 
L 218.092184 127.126287 
L 218.092184 126.663167 
L 218.248898 126.663167 
L 218.248898 126.200046 
L 218.383496 126.200046 
L 218.383496 125.736926 
L 219.589354 125.736926 
L 219.690319 124.347564 
L 219.733549 124.347564 
L 219.733549 123.884444 
L 220.048589 123.884444 
L 220.083733 122.958203 
L 220.535794 122.958203 
L 220.535794 122.495082 
L 220.847297 122.495082 
L 220.854496 121.568841 
L 221.330499 121.568841 
L 221.330499 121.105721 
L 222.926799 121.105721 
L 222.941972 120.17948 
L 223.170362 120.17948 
L 223.170362 119.716359 
L 223.63064 119.716359 
L 223.63064 118.790118 
L 223.856807 118.790118 
L 223.856807 117.863877 
L 224.281072 117.863877 
L 224.281072 117.400757 
L 224.971942 117.400757 
L 224.971942 116.937636 
L 225.45106 116.937636 
L 225.506503 115.085154 
L 226.499361 115.085154 
L 226.499361 114.622033 
L 226.942188 114.622033 
L 226.942188 113.695792 
L 227.655921 113.695792 
L 227.678243 112.306431 
L 230.280555 112.306431 
L 230.280555 111.84331 
L 230.548547 111.84331 
L 230.548547 111.38019 
L 230.940783 111.38019 
L 230.940783 110.453949 
L 231.84902 110.453949 
L 231.84902 109.527708 
L 232.50256 109.527708 
L 232.50256 108.601467 
L 233.88241 108.601467 
L 233.88241 107.675226 
L 234.689132 107.675226 
L 234.689132 106.748985 
L 237.412433 106.748985 
L 237.412433 105.822744 
L 237.848282 105.822744 
L 237.848282 104.896503 
L 238.391845 104.896503 
L 238.391845 103.970262 
L 238.713608 103.970262 
L 238.713608 103.507141 
L 239.429916 103.507141 
L 239.429916 102.5809 
L 241.435488 102.5809 
L 241.435488 102.117779 
L 242.461229 102.117779 
L 242.476426 100.728418 
L 243.818459 100.728418 
L 243.818459 99.802177 
L 244.165022 99.802177 
L 244.271226 97.949695 
L 244.745261 97.949695 
L 244.745261 97.486574 
L 245.440029 97.486574 
L 245.440029 97.023454 
L 245.988151 97.023454 
L 245.988151 96.560333 
L 247.897436 96.560333 
L 247.897436 96.097213 
L 248.011436 96.097213 
L 248.011436 95.634092 
L 248.341222 95.634092 
L 248.341222 95.170972 
L 248.704287 95.170972 
L 248.704287 94.707851 
L 248.936745 94.707851 
L 248.936745 94.244731 
L 249.704402 94.244731 
L 249.812231 93.31849 
L 252.068822 93.31849 
L 252.068822 92.855369 
L 252.260123 92.855369 
L 252.260123 92.392249 
L 253.448125 92.392249 
L 253.448125 91.929128 
L 253.671701 91.929128 
L 253.671701 91.466008 
L 254.156122 91.466008 
L 254.156122 91.002887 
L 255.296846 91.002887 
L 255.296846 90.539766 
L 256.302108 90.539766 
L 256.302108 90.076646 
L 257.321515 90.076646 
L 257.321515 89.613525 
L 338.688 89.613525 
L 338.688 89.613525 
" style="fill:none;stroke:#000080;stroke-linecap:square;stroke-width:1.5;"/>
   </g>
   <g id="line2d_36">
    <defs>
     <path d="M 0 6 
C 1.591219 6 3.117479 5.367802 4.242641 4.242641 
C 5.367802 3.117479 6 1.591219 6 0 
C 6 -1.591219 5.367802 -3.117479 4.242641 -4.242641 
C 3.117479 -5.367802 1.591219 -6 0 -6 
C -1.591219 -6 -3.117479 -5.367802 -4.242641 -4.242641 
C -5.367802 -3.117479 -6 -1.591219 -6 0 
C -6 1.591219 -5.367802 3.117479 -4.242641 4.242641 
C -3.117479 5.367802 -1.591219 6 0 6 
z
" id="md286154bb5" style="stroke:#000080;stroke-width:1.5;"/>
    </defs>
    <g>
     <use style="fill-opacity:0;stroke:#000080;stroke-width:1.5;" x="121.036887" xlink:href="#md286154bb5" y="272.08301"/>
     <use style="fill-opacity:0;stroke:#000080;stroke-width:1.5;" x="190.38985" xlink:href="#md286154bb5" y="209.56174"/>
     <use style="fill-opacity:0;stroke:#000080;stroke-width:1.5;" x="243.818459" xlink:href="#md286154bb5" y="99.802177"/>
     <use style="fill-opacity:0;stroke:#000080;stroke-width:1.5;" x="257.321515" xlink:href="#md286154bb5" y="89.613525"/>
     <use style="fill-opacity:0;stroke:#000080;stroke-width:1.5;" x="257.321515" xlink:href="#md286154bb5" y="89.613525"/>
     <use style="fill-opacity:0;stroke:#000080;stroke-width:1.5;" x="338.688" xlink:href="#md286154bb5" y="89.613525"/>
    </g>
   </g>
   <g id="line2d_37">
    <path style="fill:none;stroke:#000080;stroke-linecap:square;stroke-width:1.5;"/>
    <g/>
   </g>
   <g id="line2d_38">
    <path clip-path="url(#p6ae2ed5e42)" d="M 258.377317 89.613525 
" style="fill:none;stroke:#000080;stroke-linecap:square;stroke-width:1.5;"/>
    <defs>
     <path d="M -12 12 
L 12 -12 
M -12 -12 
L 12 12 
" id="m9bcb15531b" style="stroke:#000080;"/>
    </defs>
    <g clip-path="url(#p6ae2ed5e42)">
     <use style="fill:#000080;stroke:#000080;" x="258.377317" xlink:href="#m9bcb15531b" y="89.613525"/>
    </g>
   </g>
   <g id="line2d_39">
    <defs>
     <path d="M 0 1.5 
C 0.397805 1.5 0.77937 1.341951 1.06066 1.06066 
C 1.341951 0.77937 1.5 0.397805 1.5 0 
C 1.5 -0.397805 1.341951 -0.77937 1.06066 -1.06066 
C 0.77937 -1.341951 0.397805 -1.5 0 -1.5 
C -0.397805 -1.5 -0.77937 -1.341951 -1.06066 -1.06066 
C -1.341951 -0.77937 -1.5 -0.397805 -1.5 0 
C -1.5 0.397805 -1.341951 0.77937 -1.06066 1.06066 
C -0.77937 1.341951 -0.397805 1.5 0 1.5 
z
" id="mbb03d37bfa" style="stroke:#ff00ff;"/>
    </defs>
    <g>
     <use style="fill:#ff00ff;stroke:#ff00ff;" x="256.303601" xlink:href="#mbb03d37bfa" y="139.630541"/>
     <use style="fill:#ff00ff;stroke:#ff00ff;" x="256.303601" xlink:href="#mbb03d37bfa" y="139.630541"/>
    </g>
   </g>
   <g id="line2d_40">
    <path d="M 29.53256 298.944 
L 29.53256 291.534072 
L 128.471239 291.534072 
L 128.471239 291.070951 
L 138.256201 291.070951 
L 138.256201 290.607831 
L 139.887228 290.607831 
L 139.887228 290.14471 
L 141.577657 290.14471 
L 141.605898 289.218469 
L 141.774395 289.218469 
L 141.774395 288.755349 
L 142.07914 288.755349 
L 142.07914 287.829108 
L 142.270332 287.829108 
L 142.270332 286.902867 
L 142.459451 286.902867 
L 142.459451 286.439746 
L 142.673105 286.439746 
L 142.673105 285.976625 
L 143.87806 285.976625 
L 143.87806 285.513505 
L 144.075117 285.513505 
L 144.075117 283.661023 
L 144.197155 283.661023 
L 144.197155 283.197902 
L 144.390658 283.197902 
L 144.462672 282.271661 
L 144.55823 282.271661 
L 144.582038 281.34542 
L 144.841802 281.34542 
L 144.841802 280.8823 
L 145.005114 280.8823 
L 145.097753 279.492938 
L 145.212864 279.492938 
L 145.281568 278.566697 
L 145.350002 278.566697 
L 145.350002 278.103577 
L 146.107383 278.103577 
L 146.216039 275.324854 
L 146.280909 275.324854 
L 146.367029 273.472371 
L 146.40993 273.472371 
L 146.495417 269.767407 
L 146.538004 269.767407 
L 146.559258 268.841166 
L 146.665144 268.841166 
L 146.749392 267.914925 
L 146.999721 267.914925 
L 146.999721 267.451805 
L 147.185137 267.451805 
L 147.185137 266.988684 
L 147.307662 266.988684 
L 147.307662 266.525564 
L 147.429332 266.525564 
L 147.429332 266.062443 
L 148.200145 266.062443 
L 148.200145 265.599323 
L 148.373289 265.599323 
L 148.468742 264.209961 
L 148.620389 264.209961 
L 148.658095 262.357479 
L 148.733265 262.357479 
L 148.770728 260.504997 
L 148.864037 260.504997 
L 148.919783 259.578756 
L 148.975352 259.578756 
L 149.030744 258.189394 
L 149.268764 258.189394 
L 149.268764 257.726274 
L 149.413639 257.726274 
L 149.413639 257.263153 
L 150.085825 257.263153 
L 150.137805 256.336912 
L 150.224095 256.336912 
L 150.275665 251.705707 
L 150.395406 251.705707 
L 150.395406 251.242587 
L 150.581924 251.242587 
L 150.66605 249.390104 
L 150.94908 249.390104 
L 151.031458 247.537622 
L 151.1298 247.537622 
L 151.1298 246.611381 
L 151.62925 246.611381 
L 151.62925 246.148261 
L 151.755852 246.148261 
L 151.850203 245.22202 
L 151.897188 245.22202 
L 151.912822 243.832658 
L 152.021866 243.832658 
L 152.114793 241.980176 
L 152.222586 241.980176 
L 152.299175 240.590815 
L 152.929579 240.590815 
L 152.929579 239.664574 
L 153.279836 239.664574 
L 153.380683 237.348971 
L 153.40939 237.348971 
L 153.438049 235.959609 
L 153.973817 235.959609 
L 154.056927 233.180886 
L 154.112115 233.180886 
L 154.112115 232.254645 
L 154.331136 232.254645 
L 154.331136 231.328404 
L 154.641235 231.328404 
L 154.641235 230.865284 
L 155.115803 230.865284 
L 155.180705 229.012802 
L 155.322646 229.012802 
L 155.34833 227.16032 
L 155.577798 227.16032 
L 155.577798 226.234079 
L 155.703987 226.234079 
L 155.703987 225.770958 
L 155.928852 225.770958 
L 155.966049 222.992235 
L 156.598505 222.992235 
L 156.598505 222.529114 
L 156.871092 222.529114 
L 156.871092 222.065994 
L 157.185742 222.065994 
L 157.185742 221.602873 
L 157.528821 221.602873 
L 157.551454 219.750391 
L 157.765022 219.750391 
L 157.765022 219.287271 
L 158.064083 219.287271 
L 158.064083 218.36103 
L 158.347301 218.36103 
L 158.347301 217.434789 
L 158.51933 217.434789 
L 158.594062 216.045427 
L 158.647247 216.045427 
L 158.742573 214.656066 
L 158.921223 214.656066 
L 158.921223 214.192945 
L 159.587904 214.192945 
L 159.587904 213.729825 
L 159.758143 213.729825 
L 159.758143 212.803583 
L 160.259108 212.803583 
L 160.288133 211.414222 
L 160.432539 211.414222 
L 160.499521 210.02486 
L 161.017045 210.02486 
L 161.017045 209.56174 
L 161.238149 209.56174 
L 161.238149 209.098619 
L 161.393084 209.098619 
L 161.420284 208.172378 
L 161.663187 208.172378 
L 161.663187 207.709258 
L 161.981883 207.709258 
L 161.981883 207.246137 
L 162.862799 207.246137 
L 162.862799 206.783017 
L 163.291183 206.783017 
L 163.291183 205.856776 
L 163.89108 205.856776 
L 163.89108 204.930535 
L 164.218222 204.930535 
L 164.218222 204.467414 
L 165.475853 204.467414 
L 165.547501 202.614932 
L 165.668633 202.614932 
L 165.668633 202.151812 
L 166.144916 202.151812 
L 166.255117 201.225571 
L 167.532297 201.225571 
L 167.532297 200.76245 
L 167.785687 200.76245 
L 167.785687 200.299329 
L 169.673338 200.299329 
L 169.673338 199.836209 
L 169.791457 199.836209 
L 169.791457 199.373088 
L 170.639386 199.373088 
L 170.639386 198.909968 
L 174.528713 198.909968 
L 174.528713 197.983727 
L 174.749466 197.983727 
L 174.749466 197.057486 
L 175.268964 197.057486 
L 175.268964 196.131245 
L 175.701682 196.131245 
L 175.701682 195.668124 
L 176.49043 195.668124 
L 176.593204 193.815642 
L 179.180888 193.815642 
L 179.180888 193.352522 
L 181.143816 193.352522 
L 181.143816 192.889401 
L 181.781069 192.889401 
L 181.781069 192.426281 
L 182.231822 192.426281 
L 182.231822 191.96316 
L 183.911683 191.96316 
L 183.911683 191.50004 
L 185.95714 191.50004 
L 185.95714 191.036919 
L 193.442487 191.036919 
L 193.442487 190.110678 
L 193.92815 190.110678 
L 193.92815 189.647558 
L 194.380135 189.647558 
L 194.380135 189.184437 
L 195.111848 189.184437 
L 195.111848 188.721316 
L 195.47936 188.721316 
L 195.47936 188.258196 
L 196.254734 188.258196 
L 196.254734 187.795075 
L 196.977061 187.795075 
L 196.977061 187.331955 
L 197.162399 187.331955 
L 197.162399 186.868834 
L 197.301859 186.868834 
L 197.301859 186.405714 
L 197.4471 186.405714 
L 197.484941 184.553232 
L 197.61276 184.553232 
L 197.643434 183.16387 
L 197.826354 183.16387 
L 197.826354 182.237629 
L 197.975107 182.237629 
L 198.077267 179.922027 
L 198.248042 179.922027 
L 198.248042 179.458906 
L 198.401952 179.458906 
L 198.401952 178.532665 
L 198.51677 178.532665 
L 198.51677 178.069545 
L 198.657632 178.069545 
L 198.719636 177.143304 
L 199.265906 177.143304 
L 199.363882 176.217062 
L 199.874663 176.217062 
L 199.874663 175.290821 
L 201.210445 175.290821 
L 201.210445 174.827701 
L 201.404559 174.827701 
L 201.404559 174.36458 
L 202.329242 174.36458 
L 202.329242 173.90146 
L 205.263422 173.90146 
L 205.263422 173.438339 
L 206.15255 173.438339 
L 206.15255 172.512098 
L 206.772037 172.512098 
L 206.772037 172.048978 
L 206.892001 172.048978 
L 206.969969 170.196496 
L 207.023744 170.196496 
L 207.023744 169.733375 
L 207.167653 169.733375 
L 207.252254 168.344014 
L 207.314296 168.344014 
L 207.372869 166.954652 
L 207.437074 166.954652 
L 207.437074 166.491532 
L 207.67879 166.491532 
L 207.67879 165.565291 
L 207.870537 165.565291 
L 207.870537 165.10217 
L 208.629209 165.10217 
L 208.629209 164.63905 
L 210.61771 164.63905 
L 210.61771 164.175929 
L 210.880571 164.175929 
L 210.880571 163.712808 
L 211.593221 163.712808 
L 211.593221 163.249688 
L 211.776391 163.249688 
L 211.776391 162.786567 
L 213.543705 162.786567 
L 213.543705 162.323447 
L 214.294901 162.323447 
L 214.294901 161.860326 
L 215.618623 161.860326 
L 215.618623 161.397206 
L 216.018136 161.397206 
L 216.018136 160.470965 
L 217.265775 160.470965 
L 217.265775 159.544724 
L 217.66786 159.544724 
L 217.66786 159.081603 
L 218.079881 159.081603 
L 218.079881 158.155362 
L 219.632834 158.155362 
L 219.632834 157.692242 
L 219.920598 157.692242 
L 219.920598 157.229121 
L 221.423927 157.229121 
L 221.423927 156.766001 
L 221.777932 156.766001 
L 221.777932 155.83976 
L 222.760632 155.83976 
L 222.760632 155.376639 
L 223.364661 155.376639 
L 223.364661 154.913519 
L 223.856302 154.913519 
L 223.856302 154.450398 
L 224.788854 154.450398 
L 224.788854 153.524157 
L 227.748472 153.524157 
L 227.748472 152.597916 
L 228.518541 152.597916 
L 228.518541 152.134795 
L 229.059305 152.134795 
L 229.062677 151.208554 
L 229.695798 151.208554 
L 229.695798 150.745434 
L 236.093376 150.745434 
L 236.093376 150.282313 
L 238.088834 150.282313 
L 238.088834 149.819193 
L 239.20854 149.819193 
L 239.20854 149.356072 
L 239.469979 149.356072 
L 239.469979 148.892952 
L 242.491176 148.892952 
L 242.491176 147.966711 
L 242.977987 147.966711 
L 242.977987 147.50359 
L 243.582172 147.50359 
L 243.582172 147.04047 
L 244.457787 147.04047 
L 244.457787 146.577349 
L 245.283922 146.577349 
L 245.283922 145.651108 
L 246.493044 145.651108 
L 246.493044 145.187988 
L 247.11429 145.187988 
L 247.11429 144.261747 
L 247.313349 144.261747 
L 247.313349 143.798626 
L 247.70259 143.798626 
L 247.70259 142.872385 
L 249.548979 142.872385 
L 249.548979 142.409265 
L 249.978664 142.409265 
L 249.978664 141.946144 
L 252.738139 141.946144 
L 252.738139 141.483024 
L 253.489904 141.483024 
L 253.489904 141.019903 
L 253.664116 141.019903 
L 253.664116 140.556783 
L 254.082212 140.556783 
L 254.082212 140.093662 
L 256.303601 140.093662 
L 256.303601 139.630541 
L 338.688 139.630541 
L 338.688 139.630541 
" style="fill:none;stroke:#ff00ff;stroke-linecap:square;stroke-width:1.5;"/>
   </g>
   <g id="line2d_41">
    <defs>
     <path d="M 0 8.485281 
L 5.091169 0 
L 0 -8.485281 
L -5.091169 0 
z
" id="mfe32fb4fcf" style="stroke:#ff00ff;stroke-linejoin:miter;stroke-width:1.5;"/>
    </defs>
    <g>
     <use style="fill-opacity:0;stroke:#ff00ff;stroke-linejoin:miter;stroke-width:1.5;" x="166.255117" xlink:href="#mfe32fb4fcf" y="201.688691"/>
     <use style="fill-opacity:0;stroke:#ff00ff;stroke-linejoin:miter;stroke-width:1.5;" x="217.265775" xlink:href="#mfe32fb4fcf" y="160.470965"/>
     <use style="fill-opacity:0;stroke:#ff00ff;stroke-linejoin:miter;stroke-width:1.5;" x="256.303601" xlink:href="#mfe32fb4fcf" y="140.093662"/>
     <use style="fill-opacity:0;stroke:#ff00ff;stroke-linejoin:miter;stroke-width:1.5;" x="256.303601" xlink:href="#mfe32fb4fcf" y="139.630541"/>
     <use style="fill-opacity:0;stroke:#ff00ff;stroke-linejoin:miter;stroke-width:1.5;" x="338.688" xlink:href="#mfe32fb4fcf" y="139.630541"/>
    </g>
   </g>
   <g id="line2d_42">
    <path style="fill:none;stroke:#ff00ff;stroke-linecap:square;stroke-width:1.5;"/>
    <g/>
   </g>
   <g id="line2d_43">
    <path clip-path="url(#p6ae2ed5e42)" d="M 258.381363 139.630541 
" style="fill:none;stroke:#ff00ff;stroke-linecap:square;stroke-width:1.5;"/>
    <defs>
     <path d="M -12 12 
L 12 -12 
M -12 -12 
L 12 12 
" id="me850efa19f" style="stroke:#ff00ff;"/>
    </defs>
    <g clip-path="url(#p6ae2ed5e42)">
     <use style="fill:#ff00ff;stroke:#ff00ff;" x="258.381363" xlink:href="#me850efa19f" y="139.630541"/>
    </g>
   </g>
   <g id="line2d_44">
    <defs>
     <path d="M 0 1.5 
C 0.397805 1.5 0.77937 1.341951 1.06066 1.06066 
C 1.341951 0.77937 1.5 0.397805 1.5 0 
C 1.5 -0.397805 1.341951 -0.77937 1.06066 -1.06066 
C 0.77937 -1.341951 0.397805 -1.5 0 -1.5 
C -0.397805 -1.5 -0.77937 -1.341951 -1.06066 -1.06066 
C -1.341951 -0.77937 -1.5 -0.397805 -1.5 0 
C -1.5 0.397805 -1.341951 0.77937 -1.06066 1.06066 
C -0.77937 1.341951 -0.397805 1.5 0 1.5 
z
" id="m33d127100a" style="stroke:#ff7500;"/>
    </defs>
    <g>
     <use style="fill:#ff7500;stroke:#ff7500;" x="230.90728" xlink:href="#m33d127100a" y="179.922027"/>
     <use style="fill:#ff7500;stroke:#ff7500;" x="230.90728" xlink:href="#m33d127100a" y="179.922027"/>
    </g>
   </g>
   <g id="line2d_45">
    <path d="M 150.66605 298.944 
L 150.66605 298.480879 
L 153.294279 298.480879 
L 153.294279 298.017759 
L 153.423725 298.017759 
L 153.423725 296.628397 
L 154.180855 296.628397 
L 154.180855 296.165277 
L 154.331136 296.165277 
L 154.426099 294.775915 
L 154.547439 294.775915 
L 154.587699 293.849674 
L 154.787617 293.849674 
L 154.787617 293.386554 
L 155.167744 293.386554 
L 155.232454 291.534072 
L 155.28405 291.534072 
L 155.28405 290.607831 
L 155.565128 290.607831 
L 155.565128 289.68159 
L 155.703987 289.68159 
L 155.703987 289.218469 
L 156.040206 289.218469 
L 156.040206 288.755349 
L 156.187581 288.755349 
L 156.248622 286.439746 
L 156.382164 286.439746 
L 156.49067 285.050384 
L 156.658127 285.050384 
L 156.658127 284.587264 
L 156.941506 284.587264 
L 156.941506 284.124143 
L 157.058236 284.124143 
L 157.081488 283.197902 
L 157.876384 283.197902 
L 157.909655 282.271661 
L 157.998067 282.271661 
L 158.096998 281.34542 
L 158.118907 281.34542 
L 158.206267 279.492938 
L 158.249784 279.492938 
L 158.336493 278.566697 
L 158.51933 278.566697 
L 158.562073 277.177336 
L 158.636623 277.177336 
L 158.70027 276.251095 
L 158.931675 276.251095 
L 159.015067 275.324854 
L 159.252621 275.324854 
L 159.252621 274.861733 
L 159.597964 274.861733 
L 159.597964 274.398612 
L 159.768105 274.398612 
L 159.817832 272.08301 
L 159.995685 272.08301 
L 160.103486 270.693648 
L 160.451703 270.693648 
L 160.470846 269.767407 
L 160.566247 269.767407 
L 160.670589 267.914925 
L 160.802491 267.914925 
L 160.858717 266.988684 
L 161.017045 266.988684 
L 161.127947 265.136202 
L 161.53766 265.136202 
L 161.636364 262.8206 
L 161.698887 262.8206 
L 161.778945 260.504997 
L 161.858637 260.504997 
L 161.955547 259.578756 
L 162.016937 259.578756 
L 162.016937 258.189394 
L 162.337888 258.189394 
L 162.337888 257.726274 
L 162.474869 257.726274 
L 162.517456 255.410671 
L 162.669913 255.410671 
L 162.695193 253.095069 
L 162.854457 253.095069 
L 162.962595 251.705707 
L 163.037069 251.705707 
L 163.037069 250.316346 
L 163.315579 250.316346 
L 163.412824 248.926984 
L 163.469301 248.926984 
L 163.557683 247.074502 
L 163.748975 247.074502 
L 163.859601 245.22202 
L 164.210504 245.22202 
L 164.287532 244.295779 
L 164.364222 244.295779 
L 164.364222 243.832658 
L 164.614933 243.832658 
L 164.637547 241.053935 
L 164.787563 241.053935 
L 164.787563 240.127694 
L 164.906654 240.127694 
L 164.91407 238.738333 
L 165.135103 238.738333 
L 165.244578 235.496489 
L 165.317182 235.496489 
L 165.411116 233.180886 
L 165.475853 233.180886 
L 165.576079 230.865284 
L 166.316801 230.865284 
L 166.425924 226.697199 
L 166.453099 226.697199 
L 166.453099 226.234079 
L 166.581603 226.234079 
L 166.581603 225.307837 
L 166.789256 225.307837 
L 166.862349 223.918476 
L 166.96153 223.918476 
L 166.96153 223.455355 
L 167.132118 223.455355 
L 167.132118 222.529114 
L 167.513144 222.529114 
L 167.564173 221.139753 
L 167.817104 221.139753 
L 167.854729 218.36103 
L 168.023045 218.36103 
L 168.041647 216.508548 
L 168.318321 216.508548 
L 168.348793 214.656066 
L 168.52449 214.656066 
L 168.620674 211.877342 
L 168.95908 211.877342 
L 168.95908 210.951101 
L 169.262177 210.951101 
L 169.371623 208.635499 
L 169.480386 208.635499 
L 169.480386 207.709258 
L 169.724059 207.709258 
L 169.825059 205.393655 
L 169.847424 205.393655 
L 169.947714 204.467414 
L 169.992103 204.467414 
L 170.063995 203.078053 
L 170.467674 203.078053 
L 170.548375 201.688691 
L 170.628703 201.688691 
L 170.628703 200.76245 
L 170.835842 200.76245 
L 170.920115 199.836209 
L 171.003983 199.836209 
L 171.097855 198.909968 
L 171.18605 198.909968 
L 171.27895 197.057486 
L 171.514136 197.057486 
L 171.595202 194.741883 
L 171.771231 194.741883 
L 171.771231 194.278763 
L 172.167033 194.278763 
L 172.167033 193.352522 
L 172.351938 193.352522 
L 172.351938 192.889401 
L 172.639959 192.889401 
L 172.673253 191.96316 
L 172.942027 191.96316 
L 172.942027 191.50004 
L 173.14208 191.50004 
L 173.225146 190.110678 
L 173.426547 190.110678 
L 173.426547 189.647558 
L 173.719878 189.647558 
L 173.719878 189.184437 
L 173.990742 189.184437 
L 173.999552 187.795075 
L 174.283479 187.795075 
L 174.283479 187.331955 
L 174.430173 187.331955 
L 174.430173 186.405714 
L 174.588422 186.405714 
L 174.588422 185.942593 
L 174.745247 185.942593 
L 174.745247 185.479473 
L 175.075443 185.479473 
L 175.075443 185.016352 
L 175.203325 185.016352 
L 175.203325 184.090111 
L 175.805227 184.090111 
L 175.805227 183.16387 
L 176.275317 183.16387 
L 176.275317 182.70075 
L 176.823193 182.70075 
L 176.823193 182.237629 
L 177.99989 182.237629 
L 177.99989 181.774509 
L 189.777022 181.774509 
L 189.777022 181.311388 
L 207.19393 181.311388 
L 207.19393 180.848268 
L 217.811999 180.848268 
L 217.811999 180.385147 
L 230.90728 180.385147 
L 230.90728 179.922027 
L 338.688 179.922027 
L 338.688 179.922027 
" style="fill:none;stroke:#ff7500;stroke-linecap:square;stroke-width:1.5;"/>
   </g>
   <g id="line2d_46">
    <defs>
     <path d="M 0 -6 
L -1.347084 -1.854102 
L -5.706339 -1.854102 
L -2.179628 0.708204 
L -3.526712 4.854102 
L -0 2.291796 
L 3.526712 4.854102 
L 2.179628 0.708204 
L 5.706339 -1.854102 
L 1.347084 -1.854102 
z
" id="m4d7d443de7" style="stroke:#ff7500;stroke-linejoin:bevel;stroke-width:1.5;"/>
    </defs>
    <g>
     <use style="fill-opacity:0;stroke:#ff7500;stroke-linejoin:bevel;stroke-width:1.5;" x="170.063995" xlink:href="#m4d7d443de7" y="203.078053"/>
     <use style="fill-opacity:0;stroke:#ff7500;stroke-linejoin:bevel;stroke-width:1.5;" x="207.19393" xlink:href="#m4d7d443de7" y="181.311388"/>
     <use style="fill-opacity:0;stroke:#ff7500;stroke-linejoin:bevel;stroke-width:1.5;" x="230.90728" xlink:href="#m4d7d443de7" y="180.385147"/>
     <use style="fill-opacity:0;stroke:#ff7500;stroke-linejoin:bevel;stroke-width:1.5;" x="230.90728" xlink:href="#m4d7d443de7" y="179.922027"/>
     <use style="fill-opacity:0;stroke:#ff7500;stroke-linejoin:bevel;stroke-width:1.5;" x="338.688" xlink:href="#m4d7d443de7" y="179.922027"/>
    </g>
   </g>
   <g id="line2d_47">
    <path style="fill:none;stroke:#ff7500;stroke-linecap:square;stroke-width:1.5;"/>
    <g/>
   </g>
   <g id="line2d_48">
    <path clip-path="url(#p6ae2ed5e42)" d="M 258.377178 179.922027 
" style="fill:none;stroke:#ff7500;stroke-linecap:square;stroke-width:1.5;"/>
    <defs>
     <path d="M -12 12 
L 12 -12 
M -12 -12 
L 12 12 
" id="mee26bd679c" style="stroke:#ff7500;"/>
    </defs>
    <g clip-path="url(#p6ae2ed5e42)">
     <use style="fill:#ff7500;stroke:#ff7500;" x="258.377178" xlink:href="#mee26bd679c" y="179.922027"/>
    </g>
   </g>
   <g id="line2d_49">
    <path d="M 338.688 179.922027 
L 369.60768 293.571802 
" style="fill:none;stroke:#ff7500;stroke-linecap:square;stroke-width:1.5;"/>
    <g>
     <use style="fill-opacity:0;stroke:#ff7500;stroke-linejoin:bevel;stroke-width:1.5;" x="338.688" xlink:href="#m4d7d443de7" y="179.922027"/>
     <use style="fill-opacity:0;stroke:#ff7500;stroke-linejoin:bevel;stroke-width:1.5;" x="369.60768" xlink:href="#m4d7d443de7" y="293.571802"/>
    </g>
   </g>
   <g id="line2d_50">
    <path d="M 338.688 139.630541 
L 369.60768 207.616634 
" style="fill:none;stroke:#ff00ff;stroke-linecap:square;stroke-width:1.5;"/>
    <g>
     <use style="fill-opacity:0;stroke:#ff00ff;stroke-linejoin:miter;stroke-width:1.5;" x="338.688" xlink:href="#mfe32fb4fcf" y="139.630541"/>
     <use style="fill-opacity:0;stroke:#ff00ff;stroke-linejoin:miter;stroke-width:1.5;" x="369.60768" xlink:href="#mfe32fb4fcf" y="207.616634"/>
    </g>
   </g>
   <g id="line2d_51">
    <path d="M 338.688 89.613525 
L 369.60768 121.661465 
" style="fill:none;stroke:#000080;stroke-linecap:square;stroke-width:1.5;"/>
    <g>
     <use style="fill-opacity:0;stroke:#000080;stroke-width:1.5;" x="338.688" xlink:href="#md286154bb5" y="89.613525"/>
     <use style="fill-opacity:0;stroke:#000080;stroke-width:1.5;" x="369.60768" xlink:href="#md286154bb5" y="121.661465"/>
    </g>
   </g>
   <g id="line2d_52">
    <path d="M 338.688 298.944 
L 338.688 30.334099 
" style="fill:none;stroke:#000000;stroke-linecap:square;stroke-width:1.5;"/>
   </g>
   <g id="patch_3">
    <path d="M 57.6 298.944 
L 57.6 27.648 
" style="fill:none;stroke:#000000;stroke-linecap:square;stroke-linejoin:miter;stroke-width:0.8;"/>
   </g>
   <g id="patch_4">
    <path d="M 338.688 298.944 
L 338.688 27.648 
" style="fill:none;stroke:#000000;stroke-linecap:square;stroke-linejoin:miter;stroke-width:0.8;"/>
   </g>
   <g id="patch_5">
    <path d="M 57.6 298.944 
L 338.688 298.944 
" style="fill:none;stroke:#000000;stroke-linecap:square;stroke-linejoin:miter;stroke-width:0.8;"/>
   </g>
   <g id="patch_6">
    <path d="M 57.6 27.648 
L 338.688 27.648 
" style="fill:none;stroke:#000000;stroke-linecap:square;stroke-linejoin:miter;stroke-width:0.8;"/>
   </g>
   <g id="text_13">
    <!-- SMS-EMOA- -->
    <g transform="translate(375.22944 298.262739)scale(0.17 -0.17)">
     <defs>
      <path d="M 53.515625 70.515625 
L 53.515625 60.890625 
Q 47.90625 63.578125 42.921875 64.890625 
Q 37.9375 66.21875 33.296875 66.21875 
Q 25.25 66.21875 20.875 63.09375 
Q 16.5 59.96875 16.5 54.203125 
Q 16.5 49.359375 19.40625 46.890625 
Q 22.3125 44.4375 30.421875 42.921875 
L 36.375 41.703125 
Q 47.40625 39.59375 52.65625 34.296875 
Q 57.90625 29 57.90625 20.125 
Q 57.90625 9.515625 50.796875 4.046875 
Q 43.703125 -1.421875 29.984375 -1.421875 
Q 24.8125 -1.421875 18.96875 -0.25 
Q 13.140625 0.921875 6.890625 3.21875 
L 6.890625 13.375 
Q 12.890625 10.015625 18.65625 8.296875 
Q 24.421875 6.59375 29.984375 6.59375 
Q 38.421875 6.59375 43.015625 9.90625 
Q 47.609375 13.234375 47.609375 19.390625 
Q 47.609375 24.75 44.3125 27.78125 
Q 41.015625 30.8125 33.5 32.328125 
L 27.484375 33.5 
Q 16.453125 35.6875 11.515625 40.375 
Q 6.59375 45.0625 6.59375 53.421875 
Q 6.59375 63.09375 13.40625 68.65625 
Q 20.21875 74.21875 32.171875 74.21875 
Q 37.3125 74.21875 42.625 73.28125 
Q 47.953125 72.359375 53.515625 70.515625 
z
" id="DejaVuSans-83"/>
      <path d="M 9.8125 72.90625 
L 24.515625 72.90625 
L 43.109375 23.296875 
L 61.8125 72.90625 
L 76.515625 72.90625 
L 76.515625 0 
L 66.890625 0 
L 66.890625 64.015625 
L 48.09375 14.015625 
L 38.1875 14.015625 
L 19.390625 64.015625 
L 19.390625 0 
L 9.8125 0 
z
" id="DejaVuSans-77"/>
      <path d="M 9.8125 72.90625 
L 55.90625 72.90625 
L 55.90625 64.59375 
L 19.671875 64.59375 
L 19.671875 43.015625 
L 54.390625 43.015625 
L 54.390625 34.71875 
L 19.671875 34.71875 
L 19.671875 8.296875 
L 56.78125 8.296875 
L 56.78125 0 
L 9.8125 0 
z
" id="DejaVuSans-69"/>
      <path d="M 39.40625 66.21875 
Q 28.65625 66.21875 22.328125 58.203125 
Q 16.015625 50.203125 16.015625 36.375 
Q 16.015625 22.609375 22.328125 14.59375 
Q 28.65625 6.59375 39.40625 6.59375 
Q 50.140625 6.59375 56.421875 14.59375 
Q 62.703125 22.609375 62.703125 36.375 
Q 62.703125 50.203125 56.421875 58.203125 
Q 50.140625 66.21875 39.40625 66.21875 
z
M 39.40625 74.21875 
Q 54.734375 74.21875 63.90625 63.9375 
Q 73.09375 53.65625 73.09375 36.375 
Q 73.09375 19.140625 63.90625 8.859375 
Q 54.734375 -1.421875 39.40625 -1.421875 
Q 24.03125 -1.421875 14.8125 8.828125 
Q 5.609375 19.09375 5.609375 36.375 
Q 5.609375 53.65625 14.8125 63.9375 
Q 24.03125 74.21875 39.40625 74.21875 
z
" id="DejaVuSans-79"/>
      <path d="M 34.1875 63.1875 
L 20.796875 26.90625 
L 47.609375 26.90625 
z
M 28.609375 72.90625 
L 39.796875 72.90625 
L 67.578125 0 
L 57.328125 0 
L 50.6875 18.703125 
L 17.828125 18.703125 
L 11.1875 0 
L 0.78125 0 
z
" id="DejaVuSans-65"/>
     </defs>
     <use xlink:href="#DejaVuSans-83"/>
     <use x="63.476562" xlink:href="#DejaVuSans-77"/>
     <use x="149.755859" xlink:href="#DejaVuSans-83"/>
     <use x="213.232422" xlink:href="#DejaVuSans-45"/>
     <use x="249.316406" xlink:href="#DejaVuSans-69"/>
     <use x="312.5" xlink:href="#DejaVuSans-77"/>
     <use x="398.779297" xlink:href="#DejaVuSans-79"/>
     <use x="475.740234" xlink:href="#DejaVuSans-65"/>
     <use x="541.898438" xlink:href="#DejaVuSans-45"/>
    </g>
   </g>
   <g id="text_14">
    <!-- NSGA-II-M -->
    <g transform="translate(375.22944 212.307571)scale(0.17 -0.17)">
     <defs>
      <path d="M 9.8125 72.90625 
L 23.09375 72.90625 
L 55.421875 11.921875 
L 55.421875 72.90625 
L 64.984375 72.90625 
L 64.984375 0 
L 51.703125 0 
L 19.390625 60.984375 
L 19.390625 0 
L 9.8125 0 
z
" id="DejaVuSans-78"/>
      <path d="M 59.515625 10.40625 
L 59.515625 29.984375 
L 43.40625 29.984375 
L 43.40625 38.09375 
L 69.28125 38.09375 
L 69.28125 6.78125 
Q 63.578125 2.734375 56.6875 0.65625 
Q 49.8125 -1.421875 42 -1.421875 
Q 24.90625 -1.421875 15.25 8.5625 
Q 5.609375 18.5625 5.609375 36.375 
Q 5.609375 54.25 15.25 64.234375 
Q 24.90625 74.21875 42 74.21875 
Q 49.125 74.21875 55.546875 72.453125 
Q 61.96875 70.703125 67.390625 67.28125 
L 67.390625 56.78125 
Q 61.921875 61.421875 55.765625 63.765625 
Q 49.609375 66.109375 42.828125 66.109375 
Q 29.4375 66.109375 22.71875 58.640625 
Q 16.015625 51.171875 16.015625 36.375 
Q 16.015625 21.625 22.71875 14.15625 
Q 29.4375 6.6875 42.828125 6.6875 
Q 48.046875 6.6875 52.140625 7.59375 
Q 56.25 8.5 59.515625 10.40625 
z
" id="DejaVuSans-71"/>
      <path d="M 9.8125 72.90625 
L 19.671875 72.90625 
L 19.671875 0 
L 9.8125 0 
z
" id="DejaVuSans-73"/>
     </defs>
     <use xlink:href="#DejaVuSans-78"/>
     <use x="74.804688" xlink:href="#DejaVuSans-83"/>
     <use x="138.28125" xlink:href="#DejaVuSans-71"/>
     <use x="215.771484" xlink:href="#DejaVuSans-65"/>
     <use x="281.929688" xlink:href="#DejaVuSans-45"/>
     <use x="318.013672" xlink:href="#DejaVuSans-73"/>
     <use x="347.505859" xlink:href="#DejaVuSans-73"/>
     <use x="376.998047" xlink:href="#DejaVuSans-45"/>
     <use x="413.082031" xlink:href="#DejaVuSans-77"/>
    </g>
   </g>
   <g id="text_15">
    <!-- COMO-100  -->
    <g transform="translate(375.22944 126.352403)scale(0.17 -0.17)">
     <defs>
      <path d="M 64.40625 67.28125 
L 64.40625 56.890625 
Q 59.421875 61.53125 53.78125 63.8125 
Q 48.140625 66.109375 41.796875 66.109375 
Q 29.296875 66.109375 22.65625 58.46875 
Q 16.015625 50.828125 16.015625 36.375 
Q 16.015625 21.96875 22.65625 14.328125 
Q 29.296875 6.6875 41.796875 6.6875 
Q 48.140625 6.6875 53.78125 8.984375 
Q 59.421875 11.28125 64.40625 15.921875 
L 64.40625 5.609375 
Q 59.234375 2.09375 53.4375 0.328125 
Q 47.65625 -1.421875 41.21875 -1.421875 
Q 24.65625 -1.421875 15.125 8.703125 
Q 5.609375 18.84375 5.609375 36.375 
Q 5.609375 53.953125 15.125 64.078125 
Q 24.65625 74.21875 41.21875 74.21875 
Q 47.75 74.21875 53.53125 72.484375 
Q 59.328125 70.75 64.40625 67.28125 
z
" id="DejaVuSans-67"/>
     </defs>
     <use xlink:href="#DejaVuSans-67"/>
     <use x="69.824219" xlink:href="#DejaVuSans-79"/>
     <use x="148.535156" xlink:href="#DejaVuSans-77"/>
     <use x="234.814453" xlink:href="#DejaVuSans-79"/>
     <use x="316.275391" xlink:href="#DejaVuSans-45"/>
     <use x="352.359375" xlink:href="#DejaVuSans-49"/>
     <use x="415.982422" xlink:href="#DejaVuSans-48"/>
     <use x="479.605469" xlink:href="#DejaVuSans-48"/>
     <use x="543.228516" xlink:href="#DejaVuSans-32"/>
    </g>
   </g>
   <g id="text_16">
    <!-- best 2016 -->
    <g transform="translate(375.22944 40.397235)scale(0.17 -0.17)">
     <defs>
      <path d="M 48.6875 27.296875 
Q 48.6875 37.203125 44.609375 42.84375 
Q 40.53125 48.484375 33.40625 48.484375 
Q 26.265625 48.484375 22.1875 42.84375 
Q 18.109375 37.203125 18.109375 27.296875 
Q 18.109375 17.390625 22.1875 11.75 
Q 26.265625 6.109375 33.40625 6.109375 
Q 40.53125 6.109375 44.609375 11.75 
Q 48.6875 17.390625 48.6875 27.296875 
z
M 18.109375 46.390625 
Q 20.953125 51.265625 25.265625 53.625 
Q 29.59375 56 35.59375 56 
Q 45.5625 56 51.78125 48.09375 
Q 58.015625 40.1875 58.015625 27.296875 
Q 58.015625 14.40625 51.78125 6.484375 
Q 45.5625 -1.421875 35.59375 -1.421875 
Q 29.59375 -1.421875 25.265625 0.953125 
Q 20.953125 3.328125 18.109375 8.203125 
L 18.109375 0 
L 9.078125 0 
L 9.078125 75.984375 
L 18.109375 75.984375 
z
" id="DejaVuSans-98"/>
     </defs>
     <use xlink:href="#DejaVuSans-98"/>
     <use x="63.476562" xlink:href="#DejaVuSans-101"/>
     <use x="125" xlink:href="#DejaVuSans-115"/>
     <use x="177.099609" xlink:href="#DejaVuSans-116"/>
     <use x="216.308594" xlink:href="#DejaVuSans-32"/>
     <use x="248.095703" xlink:href="#DejaVuSans-50"/>
     <use x="311.71875" xlink:href="#DejaVuSans-48"/>
     <use x="375.341797" xlink:href="#DejaVuSans-49"/>
     <use x="438.964844" xlink:href="#DejaVuSans-54"/>
    </g>
   </g>
   <g id="text_17">
    <!-- bbob-biobj f9, 5-D -->
    <g transform="translate(60.41088 38.111366)scale(0.102 -0.102)">
     <defs>
      <path d="M 9.421875 54.6875 
L 18.40625 54.6875 
L 18.40625 -0.984375 
Q 18.40625 -11.421875 14.421875 -16.109375 
Q 10.453125 -20.796875 1.609375 -20.796875 
L -1.8125 -20.796875 
L -1.8125 -13.1875 
L 0.59375 -13.1875 
Q 5.71875 -13.1875 7.5625 -10.8125 
Q 9.421875 -8.453125 9.421875 -0.984375 
z
M 9.421875 75.984375 
L 18.40625 75.984375 
L 18.40625 64.59375 
L 9.421875 64.59375 
z
" id="DejaVuSans-106"/>
      <path d="M 10.984375 1.515625 
L 10.984375 10.5 
Q 14.703125 8.734375 18.5 7.8125 
Q 22.3125 6.890625 25.984375 6.890625 
Q 35.75 6.890625 40.890625 13.453125 
Q 46.046875 20.015625 46.78125 33.40625 
Q 43.953125 29.203125 39.59375 26.953125 
Q 35.25 24.703125 29.984375 24.703125 
Q 19.046875 24.703125 12.671875 31.3125 
Q 6.296875 37.9375 6.296875 49.421875 
Q 6.296875 60.640625 12.9375 67.421875 
Q 19.578125 74.21875 30.609375 74.21875 
Q 43.265625 74.21875 49.921875 64.515625 
Q 56.59375 54.828125 56.59375 36.375 
Q 56.59375 19.140625 48.40625 8.859375 
Q 40.234375 -1.421875 26.421875 -1.421875 
Q 22.703125 -1.421875 18.890625 -0.6875 
Q 15.09375 0.046875 10.984375 1.515625 
z
M 30.609375 32.421875 
Q 37.25 32.421875 41.125 36.953125 
Q 45.015625 41.5 45.015625 49.421875 
Q 45.015625 57.28125 41.125 61.84375 
Q 37.25 66.40625 30.609375 66.40625 
Q 23.96875 66.40625 20.09375 61.84375 
Q 16.21875 57.28125 16.21875 49.421875 
Q 16.21875 41.5 20.09375 36.953125 
Q 23.96875 32.421875 30.609375 32.421875 
z
" id="DejaVuSans-57"/>
      <path d="M 10.796875 72.90625 
L 49.515625 72.90625 
L 49.515625 64.59375 
L 19.828125 64.59375 
L 19.828125 46.734375 
Q 21.96875 47.46875 24.109375 47.828125 
Q 26.265625 48.1875 28.421875 48.1875 
Q 40.625 48.1875 47.75 41.5 
Q 54.890625 34.8125 54.890625 23.390625 
Q 54.890625 11.625 47.5625 5.09375 
Q 40.234375 -1.421875 26.90625 -1.421875 
Q 22.3125 -1.421875 17.546875 -0.640625 
Q 12.796875 0.140625 7.71875 1.703125 
L 7.71875 11.625 
Q 12.109375 9.234375 16.796875 8.0625 
Q 21.484375 6.890625 26.703125 6.890625 
Q 35.15625 6.890625 40.078125 11.328125 
Q 45.015625 15.765625 45.015625 23.390625 
Q 45.015625 31 40.078125 35.4375 
Q 35.15625 39.890625 26.703125 39.890625 
Q 22.75 39.890625 18.8125 39.015625 
Q 14.890625 38.140625 10.796875 36.28125 
z
" id="DejaVuSans-53"/>
      <path d="M 19.671875 64.796875 
L 19.671875 8.109375 
L 31.59375 8.109375 
Q 46.6875 8.109375 53.6875 14.9375 
Q 60.6875 21.78125 60.6875 36.53125 
Q 60.6875 51.171875 53.6875 57.984375 
Q 46.6875 64.796875 31.59375 64.796875 
z
M 9.8125 72.90625 
L 30.078125 72.90625 
Q 51.265625 72.90625 61.171875 64.09375 
Q 71.09375 55.28125 71.09375 36.53125 
Q 71.09375 17.671875 61.125 8.828125 
Q 51.171875 0 30.078125 0 
L 9.8125 0 
z
" id="DejaVuSans-68"/>
     </defs>
     <use xlink:href="#DejaVuSans-98"/>
     <use x="63.476562" xlink:href="#DejaVuSans-98"/>
     <use x="126.953125" xlink:href="#DejaVuSans-111"/>
     <use x="188.134766" xlink:href="#DejaVuSans-98"/>
     <use x="251.611328" xlink:href="#DejaVuSans-45"/>
     <use x="287.695312" xlink:href="#DejaVuSans-98"/>
     <use x="351.171875" xlink:href="#DejaVuSans-105"/>
     <use x="378.955078" xlink:href="#DejaVuSans-111"/>
     <use x="440.136719" xlink:href="#DejaVuSans-98"/>
     <use x="503.613281" xlink:href="#DejaVuSans-106"/>
     <use x="531.396484" xlink:href="#DejaVuSans-32"/>
     <use x="563.183594" xlink:href="#DejaVuSans-102"/>
     <use x="598.388672" xlink:href="#DejaVuSans-57"/>
     <use x="662.011719" xlink:href="#DejaVuSans-44"/>
     <use x="693.798828" xlink:href="#DejaVuSans-32"/>
     <use x="725.585938" xlink:href="#DejaVuSans-53"/>
     <use x="789.208984" xlink:href="#DejaVuSans-45"/>
     <use x="825.292969" xlink:href="#DejaVuSans-68"/>
    </g>
    <!-- 58 targets: 1..-1.0e-4 -->
    <g transform="translate(60.41088 49.533135)scale(0.102 -0.102)">
     <defs>
      <path d="M 11.71875 12.40625 
L 22.015625 12.40625 
L 22.015625 0 
L 11.71875 0 
z
M 11.71875 51.703125 
L 22.015625 51.703125 
L 22.015625 39.3125 
L 11.71875 39.3125 
z
" id="DejaVuSans-58"/>
     </defs>
     <use xlink:href="#DejaVuSans-53"/>
     <use x="63.623047" xlink:href="#DejaVuSans-56"/>
     <use x="127.246094" xlink:href="#DejaVuSans-32"/>
     <use x="159.033203" xlink:href="#DejaVuSans-116"/>
     <use x="198.242188" xlink:href="#DejaVuSans-97"/>
     <use x="259.521484" xlink:href="#DejaVuSans-114"/>
     <use x="298.884766" xlink:href="#DejaVuSans-103"/>
     <use x="362.361328" xlink:href="#DejaVuSans-101"/>
     <use x="423.884766" xlink:href="#DejaVuSans-116"/>
     <use x="463.09375" xlink:href="#DejaVuSans-115"/>
     <use x="515.193359" xlink:href="#DejaVuSans-58"/>
     <use x="548.884766" xlink:href="#DejaVuSans-32"/>
     <use x="580.671875" xlink:href="#DejaVuSans-49"/>
     <use x="644.294922" xlink:href="#DejaVuSans-46"/>
     <use x="676.082031" xlink:href="#DejaVuSans-46"/>
     <use x="707.869141" xlink:href="#DejaVuSans-45"/>
     <use x="743.953125" xlink:href="#DejaVuSans-49"/>
     <use x="807.576172" xlink:href="#DejaVuSans-46"/>
     <use x="839.363281" xlink:href="#DejaVuSans-48"/>
     <use x="902.986328" xlink:href="#DejaVuSans-101"/>
     <use x="964.509766" xlink:href="#DejaVuSans-45"/>
     <use x="1000.59375" xlink:href="#DejaVuSans-52"/>
    </g>
    <!-- 10 instances -->
    <g transform="translate(60.41088 60.954904)scale(0.102 -0.102)">
     <use xlink:href="#DejaVuSans-49"/>
     <use x="63.623047" xlink:href="#DejaVuSans-48"/>
     <use x="127.246094" xlink:href="#DejaVuSans-32"/>
     <use x="159.033203" xlink:href="#DejaVuSans-105"/>
     <use x="186.816406" xlink:href="#DejaVuSans-110"/>
     <use x="250.195312" xlink:href="#DejaVuSans-115"/>
     <use x="302.294922" xlink:href="#DejaVuSans-116"/>
     <use x="341.503906" xlink:href="#DejaVuSans-97"/>
     <use x="402.783203" xlink:href="#DejaVuSans-110"/>
     <use x="466.162109" xlink:href="#DejaVuSans-99"/>
     <use x="521.142578" xlink:href="#DejaVuSans-101"/>
     <use x="582.666016" xlink:href="#DejaVuSans-115"/>
    </g>
   </g>
   <g id="text_18">
    <!-- v2.4.19, hv-hash=ff0e71e8cd978373 -->
    <g style="fill:#808080;" transform="translate(104.697125 294.151352)scale(0.1 -0.1)">
     <defs>
      <path d="M 54.890625 33.015625 
L 54.890625 0 
L 45.90625 0 
L 45.90625 32.71875 
Q 45.90625 40.484375 42.875 44.328125 
Q 39.84375 48.1875 33.796875 48.1875 
Q 26.515625 48.1875 22.3125 43.546875 
Q 18.109375 38.921875 18.109375 30.90625 
L 18.109375 0 
L 9.078125 0 
L 9.078125 75.984375 
L 18.109375 75.984375 
L 18.109375 46.1875 
Q 21.34375 51.125 25.703125 53.5625 
Q 30.078125 56 35.796875 56 
Q 45.21875 56 50.046875 50.171875 
Q 54.890625 44.34375 54.890625 33.015625 
z
" id="DejaVuSans-104"/>
      <path d="M 10.59375 45.40625 
L 73.1875 45.40625 
L 73.1875 37.203125 
L 10.59375 37.203125 
z
M 10.59375 25.484375 
L 73.1875 25.484375 
L 73.1875 17.1875 
L 10.59375 17.1875 
z
" id="DejaVuSans-61"/>
      <path d="M 8.203125 72.90625 
L 55.078125 72.90625 
L 55.078125 68.703125 
L 28.609375 0 
L 18.3125 0 
L 43.21875 64.59375 
L 8.203125 64.59375 
z
" id="DejaVuSans-55"/>
      <path d="M 40.578125 39.3125 
Q 47.65625 37.796875 51.625 33 
Q 55.609375 28.21875 55.609375 21.1875 
Q 55.609375 10.40625 48.1875 4.484375 
Q 40.765625 -1.421875 27.09375 -1.421875 
Q 22.515625 -1.421875 17.65625 -0.515625 
Q 12.796875 0.390625 7.625 2.203125 
L 7.625 11.71875 
Q 11.71875 9.328125 16.59375 8.109375 
Q 21.484375 6.890625 26.8125 6.890625 
Q 36.078125 6.890625 40.9375 10.546875 
Q 45.796875 14.203125 45.796875 21.1875 
Q 45.796875 27.640625 41.28125 31.265625 
Q 36.765625 34.90625 28.71875 34.90625 
L 20.21875 34.90625 
L 20.21875 43.015625 
L 29.109375 43.015625 
Q 36.375 43.015625 40.234375 45.921875 
Q 44.09375 48.828125 44.09375 54.296875 
Q 44.09375 59.90625 40.109375 62.90625 
Q 36.140625 65.921875 28.71875 65.921875 
Q 24.65625 65.921875 20.015625 65.03125 
Q 15.375 64.15625 9.8125 62.3125 
L 9.8125 71.09375 
Q 15.4375 72.65625 20.34375 73.4375 
Q 25.25 74.21875 29.59375 74.21875 
Q 40.828125 74.21875 47.359375 69.109375 
Q 53.90625 64.015625 53.90625 55.328125 
Q 53.90625 49.265625 50.4375 45.09375 
Q 46.96875 40.921875 40.578125 39.3125 
z
" id="DejaVuSans-51"/>
     </defs>
     <use xlink:href="#DejaVuSans-118"/>
     <use x="59.179688" xlink:href="#DejaVuSans-50"/>
     <use x="122.802734" xlink:href="#DejaVuSans-46"/>
     <use x="154.589844" xlink:href="#DejaVuSans-52"/>
     <use x="218.212891" xlink:href="#DejaVuSans-46"/>
     <use x="250" xlink:href="#DejaVuSans-49"/>
     <use x="313.623047" xlink:href="#DejaVuSans-57"/>
     <use x="377.246094" xlink:href="#DejaVuSans-44"/>
     <use x="409.033203" xlink:href="#DejaVuSans-32"/>
     <use x="440.820312" xlink:href="#DejaVuSans-104"/>
     <use x="504.199219" xlink:href="#DejaVuSans-118"/>
     <use x="560.753906" xlink:href="#DejaVuSans-45"/>
     <use x="596.837891" xlink:href="#DejaVuSans-104"/>
     <use x="660.216797" xlink:href="#DejaVuSans-97"/>
     <use x="721.496094" xlink:href="#DejaVuSans-115"/>
     <use x="773.595703" xlink:href="#DejaVuSans-104"/>
     <use x="836.974609" xlink:href="#DejaVuSans-61"/>
     <use x="920.763672" xlink:href="#DejaVuSans-102"/>
     <use x="955.96875" xlink:href="#DejaVuSans-102"/>
     <use x="991.173828" xlink:href="#DejaVuSans-48"/>
     <use x="1054.796875" xlink:href="#DejaVuSans-101"/>
     <use x="1116.320312" xlink:href="#DejaVuSans-55"/>
     <use x="1179.943359" xlink:href="#DejaVuSans-49"/>
     <use x="1243.566406" xlink:href="#DejaVuSans-101"/>
     <use x="1305.089844" xlink:href="#DejaVuSans-56"/>
     <use x="1368.712891" xlink:href="#DejaVuSans-99"/>
     <use x="1423.693359" xlink:href="#DejaVuSans-100"/>
     <use x="1487.169922" xlink:href="#DejaVuSans-57"/>
     <use x="1550.792969" xlink:href="#DejaVuSans-55"/>
     <use x="1614.416016" xlink:href="#DejaVuSans-56"/>
     <use x="1678.039062" xlink:href="#DejaVuSans-51"/>
     <use x="1741.662109" xlink:href="#DejaVuSans-55"/>
     <use x="1805.285156" xlink:href="#DejaVuSans-51"/>
    </g>
   </g>
   <g id="text_19">
    <!-- 9 Sphere/Schwefel -->
    <g transform="translate(105.040875 21.648)scale(0.2 -0.2)">
     <defs>
      <path d="M 4.203125 54.6875 
L 13.1875 54.6875 
L 24.421875 12.015625 
L 35.59375 54.6875 
L 46.1875 54.6875 
L 57.421875 12.015625 
L 68.609375 54.6875 
L 77.59375 54.6875 
L 63.28125 0 
L 52.6875 0 
L 40.921875 44.828125 
L 29.109375 0 
L 18.5 0 
z
" id="DejaVuSans-119"/>
     </defs>
     <use xlink:href="#DejaVuSans-57"/>
     <use x="63.623047" xlink:href="#DejaVuSans-32"/>
     <use x="95.410156" xlink:href="#DejaVuSans-83"/>
     <use x="158.886719" xlink:href="#DejaVuSans-112"/>
     <use x="222.363281" xlink:href="#DejaVuSans-104"/>
     <use x="285.742188" xlink:href="#DejaVuSans-101"/>
     <use x="347.265625" xlink:href="#DejaVuSans-114"/>
     <use x="386.128906" xlink:href="#DejaVuSans-101"/>
     <use x="447.652344" xlink:href="#DejaVuSans-47"/>
     <use x="481.34375" xlink:href="#DejaVuSans-83"/>
     <use x="544.820312" xlink:href="#DejaVuSans-99"/>
     <use x="599.800781" xlink:href="#DejaVuSans-104"/>
     <use x="663.179688" xlink:href="#DejaVuSans-119"/>
     <use x="744.966797" xlink:href="#DejaVuSans-101"/>
     <use x="806.490234" xlink:href="#DejaVuSans-102"/>
     <use x="841.695312" xlink:href="#DejaVuSans-101"/>
     <use x="903.21875" xlink:href="#DejaVuSans-108"/>
    </g>
   </g>
  </g>
 </g>
 <defs>
  <clipPath id="p6ae2ed5e42">
   <rect height="271.296" width="281.088" x="57.6" y="27.648"/>
  </clipPath>
 </defs>
</svg>
