<?xml version="1.0" encoding="utf-8" standalone="no"?>
<!DOCTYPE svg PUBLIC "-//W3C//DTD SVG 1.1//EN"
  "http://www.w3.org/Graphics/SVG/1.1/DTD/svg11.dtd">
<!-- Created with matplotlib (https://matplotlib.org/) -->
<svg height="345.6pt" version="1.1" viewBox="0 0 460.8 345.6" width="460.8pt" xmlns="http://www.w3.org/2000/svg" xmlns:xlink="http://www.w3.org/1999/xlink">
 <metadata>
  <rdf:RDF xmlns:cc="http://creativecommons.org/ns#" xmlns:dc="http://purl.org/dc/elements/1.1/" xmlns:rdf="http://www.w3.org/1999/02/22-rdf-syntax-ns#">
   <cc:Work>
    <dc:type rdf:resource="http://purl.org/dc/dcmitype/StillImage"/>
    <dc:date>2021-04-26T15:05:19.926869</dc:date>
    <dc:format>image/svg+xml</dc:format>
    <dc:creator>
     <cc:Agent>
      <dc:title>Matplotlib v3.3.2, https://matplotlib.org/</dc:title>
     </cc:Agent>
    </dc:creator>
   </cc:Work>
  </rdf:RDF>
 </metadata>
 <defs>
  <style type="text/css">*{stroke-linecap:butt;stroke-linejoin:round;}</style>
 </defs>
 <g id="figure_1">
  <g id="patch_1">
   <path d="M 0 345.6 
L 460.8 345.6 
L 460.8 0 
L 0 0 
z
" style="fill:#ffffff;"/>
  </g>
  <g id="axes_1">
   <g id="patch_2">
    <path d="M 57.6 298.944 
L 338.688 298.944 
L 338.688 27.648 
L 57.6 27.648 
z
" style="fill:#ffffff;"/>
   </g>
   <g id="line2d_1">
    <path d="M 63.467834 298.944 
L 63.467834 294.312795 
L 71.35013 294.312795 
L 71.35013 285.050384 
L 78.941764 285.050384 
L 78.941764 275.787974 
L 85.66744 275.787974 
L 85.66744 271.156769 
L 95.526106 271.156769 
L 95.526106 257.263153 
L 100.641881 257.263153 
L 100.641881 248.000743 
L 106.802819 248.000743 
L 106.802819 243.369538 
L 111.023335 243.369538 
L 111.023335 234.107127 
L 122.44689 234.107127 
L 122.44689 220.213512 
L 160.830627 220.213512 
L 160.830627 210.951101 
L 163.605703 210.951101 
L 163.605703 201.688691 
L 164.302897 201.688691 
L 164.302897 192.426281 
L 166.500553 192.426281 
L 166.500553 187.795075 
L 171.605309 187.795075 
L 171.605309 173.90146 
L 187.865398 173.90146 
L 187.865398 169.270255 
L 195.609944 169.270255 
L 195.609944 155.376639 
L 205.73579 155.376639 
L 205.73579 146.114229 
L 217.788416 146.114229 
L 217.788416 141.483024 
L 235.634017 141.483024 
L 235.634017 127.589408 
L 237.576796 127.589408 
L 237.576796 122.958203 
L 259.829549 122.958203 
L 259.829549 109.064587 
L 261.57355 109.064587 
L 261.57355 99.802177 
L 264.614265 99.802177 
L 264.614265 90.539766 
L 275.33128 90.539766 
L 275.33128 85.908561 
L 283.665407 85.908561 
L 283.665407 76.646151 
L 283.982116 76.646151 
L 283.982116 62.752535 
L 338.688 62.752535 
" style="fill:none;stroke:#f5deb3;stroke-linecap:square;stroke-width:4;"/>
   </g>
   <g id="line2d_2">
    <defs>
     <path d="M 0 7.778175 
L 7.778175 0 
L 0 -7.778175 
L -7.778175 0 
z
" id="mfa7466de72" style="stroke:#f5deb3;stroke-linejoin:miter;stroke-width:1.5;"/>
    </defs>
    <g>
     <use style="fill:#f5deb3;stroke:#f5deb3;stroke-linejoin:miter;stroke-width:1.5;" x="122.44689" xlink:href="#mfa7466de72" y="220.213512"/>
     <use style="fill:#f5deb3;stroke:#f5deb3;stroke-linejoin:miter;stroke-width:1.5;" x="237.576796" xlink:href="#mfa7466de72" y="122.958203"/>
     <use style="fill:#f5deb3;stroke:#f5deb3;stroke-linejoin:miter;stroke-width:1.5;" x="283.982116" xlink:href="#mfa7466de72" y="62.752535"/>
     <use style="fill:#f5deb3;stroke:#f5deb3;stroke-linejoin:miter;stroke-width:1.5;" x="283.982116" xlink:href="#mfa7466de72" y="62.752535"/>
     <use style="fill:#f5deb3;stroke:#f5deb3;stroke-linejoin:miter;stroke-width:1.5;" x="338.688" xlink:href="#mfa7466de72" y="62.752535"/>
    </g>
   </g>
   <g id="line2d_3">
    <path style="fill:none;stroke:#f5deb3;stroke-linecap:square;stroke-width:4;"/>
    <g/>
   </g>
   <g id="line2d_4">
    <path d="M 338.688 62.752535 
L 369.60768 35.706297 
" style="fill:none;stroke:#f5deb3;stroke-linecap:square;stroke-width:4;"/>
    <g>
     <use style="fill:#f5deb3;stroke:#f5deb3;stroke-linejoin:miter;stroke-width:1.5;" x="338.688" xlink:href="#mfa7466de72" y="62.752535"/>
     <use style="fill:#f5deb3;stroke:#f5deb3;stroke-linejoin:miter;stroke-width:1.5;" x="369.60768" xlink:href="#mfa7466de72" y="35.706297"/>
    </g>
   </g>
   <g id="matplotlib.axis_1">
    <g id="xtick_1">
     <g id="line2d_5">
      <path clip-path="url(#pa8cde6d337)" d="M 57.6 298.944 
L 57.6 27.648 
" style="fill:none;stroke:#b0b0b0;stroke-linecap:square;stroke-width:0.8;"/>
     </g>
     <g id="line2d_6">
      <defs>
       <path d="M 0 0 
L 0 3.5 
" id="m80e1f6bf2d" style="stroke:#000000;stroke-width:0.8;"/>
      </defs>
      <g>
       <use style="stroke:#000000;stroke-width:0.8;" x="57.6" xlink:href="#m80e1f6bf2d" y="298.944"/>
      </g>
     </g>
     <g id="text_1">
      <!-- 0 -->
      <g transform="translate(51.2375 321.140875)scale(0.2 -0.2)">
       <defs>
        <path d="M 31.78125 66.40625 
Q 24.171875 66.40625 20.328125 58.90625 
Q 16.5 51.421875 16.5 36.375 
Q 16.5 21.390625 20.328125 13.890625 
Q 24.171875 6.390625 31.78125 6.390625 
Q 39.453125 6.390625 43.28125 13.890625 
Q 47.125 21.390625 47.125 36.375 
Q 47.125 51.421875 43.28125 58.90625 
Q 39.453125 66.40625 31.78125 66.40625 
z
M 31.78125 74.21875 
Q 44.046875 74.21875 50.515625 64.515625 
Q 56.984375 54.828125 56.984375 36.375 
Q 56.984375 17.96875 50.515625 8.265625 
Q 44.046875 -1.421875 31.78125 -1.421875 
Q 19.53125 -1.421875 13.0625 8.265625 
Q 6.59375 17.96875 6.59375 36.375 
Q 6.59375 54.828125 13.0625 64.515625 
Q 19.53125 74.21875 31.78125 74.21875 
z
" id="DejaVuSans-48"/>
       </defs>
       <use xlink:href="#DejaVuSans-48"/>
      </g>
     </g>
    </g>
    <g id="xtick_2">
     <g id="line2d_7">
      <path clip-path="url(#pa8cde6d337)" d="M 137.910857 298.944 
L 137.910857 27.648 
" style="fill:none;stroke:#b0b0b0;stroke-linecap:square;stroke-width:0.8;"/>
     </g>
     <g id="line2d_8">
      <g>
       <use style="stroke:#000000;stroke-width:0.8;" x="137.910857" xlink:href="#m80e1f6bf2d" y="298.944"/>
      </g>
     </g>
     <g id="text_2">
      <!-- 2 -->
      <g transform="translate(131.548357 321.140875)scale(0.2 -0.2)">
       <defs>
        <path d="M 19.1875 8.296875 
L 53.609375 8.296875 
L 53.609375 0 
L 7.328125 0 
L 7.328125 8.296875 
Q 12.9375 14.109375 22.625 23.890625 
Q 32.328125 33.6875 34.8125 36.53125 
Q 39.546875 41.84375 41.421875 45.53125 
Q 43.3125 49.21875 43.3125 52.78125 
Q 43.3125 58.59375 39.234375 62.25 
Q 35.15625 65.921875 28.609375 65.921875 
Q 23.96875 65.921875 18.8125 64.3125 
Q 13.671875 62.703125 7.8125 59.421875 
L 7.8125 69.390625 
Q 13.765625 71.78125 18.9375 73 
Q 24.125 74.21875 28.421875 74.21875 
Q 39.75 74.21875 46.484375 68.546875 
Q 53.21875 62.890625 53.21875 53.421875 
Q 53.21875 48.921875 51.53125 44.890625 
Q 49.859375 40.875 45.40625 35.40625 
Q 44.1875 33.984375 37.640625 27.21875 
Q 31.109375 20.453125 19.1875 8.296875 
z
" id="DejaVuSans-50"/>
       </defs>
       <use xlink:href="#DejaVuSans-50"/>
      </g>
     </g>
    </g>
    <g id="xtick_3">
     <g id="line2d_9">
      <path clip-path="url(#pa8cde6d337)" d="M 218.221714 298.944 
L 218.221714 27.648 
" style="fill:none;stroke:#b0b0b0;stroke-linecap:square;stroke-width:0.8;"/>
     </g>
     <g id="line2d_10">
      <g>
       <use style="stroke:#000000;stroke-width:0.8;" x="218.221714" xlink:href="#m80e1f6bf2d" y="298.944"/>
      </g>
     </g>
     <g id="text_3">
      <!-- 4 -->
      <g transform="translate(211.859214 321.140875)scale(0.2 -0.2)">
       <defs>
        <path d="M 37.796875 64.3125 
L 12.890625 25.390625 
L 37.796875 25.390625 
z
M 35.203125 72.90625 
L 47.609375 72.90625 
L 47.609375 25.390625 
L 58.015625 25.390625 
L 58.015625 17.1875 
L 47.609375 17.1875 
L 47.609375 0 
L 37.796875 0 
L 37.796875 17.1875 
L 4.890625 17.1875 
L 4.890625 26.703125 
z
" id="DejaVuSans-52"/>
       </defs>
       <use xlink:href="#DejaVuSans-52"/>
      </g>
     </g>
    </g>
    <g id="xtick_4">
     <g id="line2d_11">
      <path clip-path="url(#pa8cde6d337)" d="M 298.532571 298.944 
L 298.532571 27.648 
" style="fill:none;stroke:#b0b0b0;stroke-linecap:square;stroke-width:0.8;"/>
     </g>
     <g id="line2d_12">
      <g>
       <use style="stroke:#000000;stroke-width:0.8;" x="298.532571" xlink:href="#m80e1f6bf2d" y="298.944"/>
      </g>
     </g>
     <g id="text_4">
      <!-- 6 -->
      <g transform="translate(292.170071 321.140875)scale(0.2 -0.2)">
       <defs>
        <path d="M 33.015625 40.375 
Q 26.375 40.375 22.484375 35.828125 
Q 18.609375 31.296875 18.609375 23.390625 
Q 18.609375 15.53125 22.484375 10.953125 
Q 26.375 6.390625 33.015625 6.390625 
Q 39.65625 6.390625 43.53125 10.953125 
Q 47.40625 15.53125 47.40625 23.390625 
Q 47.40625 31.296875 43.53125 35.828125 
Q 39.65625 40.375 33.015625 40.375 
z
M 52.59375 71.296875 
L 52.59375 62.3125 
Q 48.875 64.0625 45.09375 64.984375 
Q 41.3125 65.921875 37.59375 65.921875 
Q 27.828125 65.921875 22.671875 59.328125 
Q 17.53125 52.734375 16.796875 39.40625 
Q 19.671875 43.65625 24.015625 45.921875 
Q 28.375 48.1875 33.59375 48.1875 
Q 44.578125 48.1875 50.953125 41.515625 
Q 57.328125 34.859375 57.328125 23.390625 
Q 57.328125 12.15625 50.6875 5.359375 
Q 44.046875 -1.421875 33.015625 -1.421875 
Q 20.359375 -1.421875 13.671875 8.265625 
Q 6.984375 17.96875 6.984375 36.375 
Q 6.984375 53.65625 15.1875 63.9375 
Q 23.390625 74.21875 37.203125 74.21875 
Q 40.921875 74.21875 44.703125 73.484375 
Q 48.484375 72.75 52.59375 71.296875 
z
" id="DejaVuSans-54"/>
       </defs>
       <use xlink:href="#DejaVuSans-54"/>
      </g>
     </g>
    </g>
    <g id="xtick_5">
     <g id="line2d_13">
      <path clip-path="url(#pa8cde6d337)" d="M 97.755429 298.944 
L 97.755429 27.648 
" style="fill:none;stroke:#b0b0b0;stroke-linecap:square;stroke-width:0.8;"/>
     </g>
     <g id="line2d_14">
      <defs>
       <path d="M 0 0 
L 0 2 
" id="m1c4793545d" style="stroke:#000000;stroke-width:0.6;"/>
      </defs>
      <g>
       <use style="stroke:#000000;stroke-width:0.6;" x="97.755429" xlink:href="#m1c4793545d" y="298.944"/>
      </g>
     </g>
    </g>
    <g id="xtick_6">
     <g id="line2d_15">
      <path clip-path="url(#pa8cde6d337)" d="M 178.066286 298.944 
L 178.066286 27.648 
" style="fill:none;stroke:#b0b0b0;stroke-linecap:square;stroke-width:0.8;"/>
     </g>
     <g id="line2d_16">
      <g>
       <use style="stroke:#000000;stroke-width:0.6;" x="178.066286" xlink:href="#m1c4793545d" y="298.944"/>
      </g>
     </g>
    </g>
    <g id="xtick_7">
     <g id="line2d_17">
      <path clip-path="url(#pa8cde6d337)" d="M 258.377143 298.944 
L 258.377143 27.648 
" style="fill:none;stroke:#b0b0b0;stroke-linecap:square;stroke-width:0.8;"/>
     </g>
     <g id="line2d_18">
      <g>
       <use style="stroke:#000000;stroke-width:0.6;" x="258.377143" xlink:href="#m1c4793545d" y="298.944"/>
      </g>
     </g>
    </g>
    <g id="xtick_8">
     <g id="line2d_19">
      <path clip-path="url(#pa8cde6d337)" d="M 338.688 298.944 
L 338.688 27.648 
" style="fill:none;stroke:#b0b0b0;stroke-linecap:square;stroke-width:0.8;"/>
     </g>
     <g id="line2d_20">
      <g>
       <use style="stroke:#000000;stroke-width:0.6;" x="338.688" xlink:href="#m1c4793545d" y="298.944"/>
      </g>
     </g>
    </g>
    <g id="text_5">
     <!-- log10(# f-evals / dimension) -->
     <g transform="translate(77.764078 342.217594)scale(0.17 -0.17)">
      <defs>
       <path d="M 9.421875 75.984375 
L 18.40625 75.984375 
L 18.40625 0 
L 9.421875 0 
z
" id="DejaVuSans-108"/>
       <path d="M 30.609375 48.390625 
Q 23.390625 48.390625 19.1875 42.75 
Q 14.984375 37.109375 14.984375 27.296875 
Q 14.984375 17.484375 19.15625 11.84375 
Q 23.34375 6.203125 30.609375 6.203125 
Q 37.796875 6.203125 41.984375 11.859375 
Q 46.1875 17.53125 46.1875 27.296875 
Q 46.1875 37.015625 41.984375 42.703125 
Q 37.796875 48.390625 30.609375 48.390625 
z
M 30.609375 56 
Q 42.328125 56 49.015625 48.375 
Q 55.71875 40.765625 55.71875 27.296875 
Q 55.71875 13.875 49.015625 6.21875 
Q 42.328125 -1.421875 30.609375 -1.421875 
Q 18.84375 -1.421875 12.171875 6.21875 
Q 5.515625 13.875 5.515625 27.296875 
Q 5.515625 40.765625 12.171875 48.375 
Q 18.84375 56 30.609375 56 
z
" id="DejaVuSans-111"/>
       <path d="M 45.40625 27.984375 
Q 45.40625 37.75 41.375 43.109375 
Q 37.359375 48.484375 30.078125 48.484375 
Q 22.859375 48.484375 18.828125 43.109375 
Q 14.796875 37.75 14.796875 27.984375 
Q 14.796875 18.265625 18.828125 12.890625 
Q 22.859375 7.515625 30.078125 7.515625 
Q 37.359375 7.515625 41.375 12.890625 
Q 45.40625 18.265625 45.40625 27.984375 
z
M 54.390625 6.78125 
Q 54.390625 -7.171875 48.1875 -13.984375 
Q 42 -20.796875 29.203125 -20.796875 
Q 24.46875 -20.796875 20.265625 -20.09375 
Q 16.0625 -19.390625 12.109375 -17.921875 
L 12.109375 -9.1875 
Q 16.0625 -11.328125 19.921875 -12.34375 
Q 23.78125 -13.375 27.78125 -13.375 
Q 36.625 -13.375 41.015625 -8.765625 
Q 45.40625 -4.15625 45.40625 5.171875 
L 45.40625 9.625 
Q 42.625 4.78125 38.28125 2.390625 
Q 33.9375 0 27.875 0 
Q 17.828125 0 11.671875 7.65625 
Q 5.515625 15.328125 5.515625 27.984375 
Q 5.515625 40.671875 11.671875 48.328125 
Q 17.828125 56 27.875 56 
Q 33.9375 56 38.28125 53.609375 
Q 42.625 51.21875 45.40625 46.390625 
L 45.40625 54.6875 
L 54.390625 54.6875 
z
" id="DejaVuSans-103"/>
       <path d="M 12.40625 8.296875 
L 28.515625 8.296875 
L 28.515625 63.921875 
L 10.984375 60.40625 
L 10.984375 69.390625 
L 28.421875 72.90625 
L 38.28125 72.90625 
L 38.28125 8.296875 
L 54.390625 8.296875 
L 54.390625 0 
L 12.40625 0 
z
" id="DejaVuSans-49"/>
       <path d="M 31 75.875 
Q 24.46875 64.65625 21.28125 53.65625 
Q 18.109375 42.671875 18.109375 31.390625 
Q 18.109375 20.125 21.3125 9.0625 
Q 24.515625 -2 31 -13.1875 
L 23.1875 -13.1875 
Q 15.875 -1.703125 12.234375 9.375 
Q 8.59375 20.453125 8.59375 31.390625 
Q 8.59375 42.28125 12.203125 53.3125 
Q 15.828125 64.359375 23.1875 75.875 
z
" id="DejaVuSans-40"/>
       <path d="M 51.125 44 
L 36.921875 44 
L 32.8125 27.6875 
L 47.125 27.6875 
z
M 43.796875 71.78125 
L 38.71875 51.515625 
L 52.984375 51.515625 
L 58.109375 71.78125 
L 65.921875 71.78125 
L 60.890625 51.515625 
L 76.125 51.515625 
L 76.125 44 
L 58.984375 44 
L 54.984375 27.6875 
L 70.515625 27.6875 
L 70.515625 20.21875 
L 53.078125 20.21875 
L 48 0 
L 40.1875 0 
L 45.21875 20.21875 
L 30.90625 20.21875 
L 25.875 0 
L 18.015625 0 
L 23.09375 20.21875 
L 7.71875 20.21875 
L 7.71875 27.6875 
L 24.90625 27.6875 
L 29 44 
L 13.28125 44 
L 13.28125 51.515625 
L 30.90625 51.515625 
L 35.890625 71.78125 
z
" id="DejaVuSans-35"/>
       <path id="DejaVuSans-32"/>
       <path d="M 37.109375 75.984375 
L 37.109375 68.5 
L 28.515625 68.5 
Q 23.6875 68.5 21.796875 66.546875 
Q 19.921875 64.59375 19.921875 59.515625 
L 19.921875 54.6875 
L 34.71875 54.6875 
L 34.71875 47.703125 
L 19.921875 47.703125 
L 19.921875 0 
L 10.890625 0 
L 10.890625 47.703125 
L 2.296875 47.703125 
L 2.296875 54.6875 
L 10.890625 54.6875 
L 10.890625 58.5 
Q 10.890625 67.625 15.140625 71.796875 
Q 19.390625 75.984375 28.609375 75.984375 
z
" id="DejaVuSans-102"/>
       <path d="M 4.890625 31.390625 
L 31.203125 31.390625 
L 31.203125 23.390625 
L 4.890625 23.390625 
z
" id="DejaVuSans-45"/>
       <path d="M 56.203125 29.59375 
L 56.203125 25.203125 
L 14.890625 25.203125 
Q 15.484375 15.921875 20.484375 11.0625 
Q 25.484375 6.203125 34.421875 6.203125 
Q 39.59375 6.203125 44.453125 7.46875 
Q 49.3125 8.734375 54.109375 11.28125 
L 54.109375 2.78125 
Q 49.265625 0.734375 44.1875 -0.34375 
Q 39.109375 -1.421875 33.890625 -1.421875 
Q 20.796875 -1.421875 13.15625 6.1875 
Q 5.515625 13.8125 5.515625 26.8125 
Q 5.515625 40.234375 12.765625 48.109375 
Q 20.015625 56 32.328125 56 
Q 43.359375 56 49.78125 48.890625 
Q 56.203125 41.796875 56.203125 29.59375 
z
M 47.21875 32.234375 
Q 47.125 39.59375 43.09375 43.984375 
Q 39.0625 48.390625 32.421875 48.390625 
Q 24.90625 48.390625 20.390625 44.140625 
Q 15.875 39.890625 15.1875 32.171875 
z
" id="DejaVuSans-101"/>
       <path d="M 2.984375 54.6875 
L 12.5 54.6875 
L 29.59375 8.796875 
L 46.6875 54.6875 
L 56.203125 54.6875 
L 35.6875 0 
L 23.484375 0 
z
" id="DejaVuSans-118"/>
       <path d="M 34.28125 27.484375 
Q 23.390625 27.484375 19.1875 25 
Q 14.984375 22.515625 14.984375 16.5 
Q 14.984375 11.71875 18.140625 8.90625 
Q 21.296875 6.109375 26.703125 6.109375 
Q 34.1875 6.109375 38.703125 11.40625 
Q 43.21875 16.703125 43.21875 25.484375 
L 43.21875 27.484375 
z
M 52.203125 31.203125 
L 52.203125 0 
L 43.21875 0 
L 43.21875 8.296875 
Q 40.140625 3.328125 35.546875 0.953125 
Q 30.953125 -1.421875 24.3125 -1.421875 
Q 15.921875 -1.421875 10.953125 3.296875 
Q 6 8.015625 6 15.921875 
Q 6 25.140625 12.171875 29.828125 
Q 18.359375 34.515625 30.609375 34.515625 
L 43.21875 34.515625 
L 43.21875 35.40625 
Q 43.21875 41.609375 39.140625 45 
Q 35.0625 48.390625 27.6875 48.390625 
Q 23 48.390625 18.546875 47.265625 
Q 14.109375 46.140625 10.015625 43.890625 
L 10.015625 52.203125 
Q 14.9375 54.109375 19.578125 55.046875 
Q 24.21875 56 28.609375 56 
Q 40.484375 56 46.34375 49.84375 
Q 52.203125 43.703125 52.203125 31.203125 
z
" id="DejaVuSans-97"/>
       <path d="M 44.28125 53.078125 
L 44.28125 44.578125 
Q 40.484375 46.53125 36.375 47.5 
Q 32.28125 48.484375 27.875 48.484375 
Q 21.1875 48.484375 17.84375 46.4375 
Q 14.5 44.390625 14.5 40.28125 
Q 14.5 37.15625 16.890625 35.375 
Q 19.28125 33.59375 26.515625 31.984375 
L 29.59375 31.296875 
Q 39.15625 29.25 43.1875 25.515625 
Q 47.21875 21.78125 47.21875 15.09375 
Q 47.21875 7.46875 41.1875 3.015625 
Q 35.15625 -1.421875 24.609375 -1.421875 
Q 20.21875 -1.421875 15.453125 -0.5625 
Q 10.6875 0.296875 5.421875 2 
L 5.421875 11.28125 
Q 10.40625 8.6875 15.234375 7.390625 
Q 20.0625 6.109375 24.8125 6.109375 
Q 31.15625 6.109375 34.5625 8.28125 
Q 37.984375 10.453125 37.984375 14.40625 
Q 37.984375 18.0625 35.515625 20.015625 
Q 33.0625 21.96875 24.703125 23.78125 
L 21.578125 24.515625 
Q 13.234375 26.265625 9.515625 29.90625 
Q 5.8125 33.546875 5.8125 39.890625 
Q 5.8125 47.609375 11.28125 51.796875 
Q 16.75 56 26.8125 56 
Q 31.78125 56 36.171875 55.265625 
Q 40.578125 54.546875 44.28125 53.078125 
z
" id="DejaVuSans-115"/>
       <path d="M 25.390625 72.90625 
L 33.6875 72.90625 
L 8.296875 -9.28125 
L 0 -9.28125 
z
" id="DejaVuSans-47"/>
       <path d="M 45.40625 46.390625 
L 45.40625 75.984375 
L 54.390625 75.984375 
L 54.390625 0 
L 45.40625 0 
L 45.40625 8.203125 
Q 42.578125 3.328125 38.25 0.953125 
Q 33.9375 -1.421875 27.875 -1.421875 
Q 17.96875 -1.421875 11.734375 6.484375 
Q 5.515625 14.40625 5.515625 27.296875 
Q 5.515625 40.1875 11.734375 48.09375 
Q 17.96875 56 27.875 56 
Q 33.9375 56 38.25 53.625 
Q 42.578125 51.265625 45.40625 46.390625 
z
M 14.796875 27.296875 
Q 14.796875 17.390625 18.875 11.75 
Q 22.953125 6.109375 30.078125 6.109375 
Q 37.203125 6.109375 41.296875 11.75 
Q 45.40625 17.390625 45.40625 27.296875 
Q 45.40625 37.203125 41.296875 42.84375 
Q 37.203125 48.484375 30.078125 48.484375 
Q 22.953125 48.484375 18.875 42.84375 
Q 14.796875 37.203125 14.796875 27.296875 
z
" id="DejaVuSans-100"/>
       <path d="M 9.421875 54.6875 
L 18.40625 54.6875 
L 18.40625 0 
L 9.421875 0 
z
M 9.421875 75.984375 
L 18.40625 75.984375 
L 18.40625 64.59375 
L 9.421875 64.59375 
z
" id="DejaVuSans-105"/>
       <path d="M 52 44.1875 
Q 55.375 50.25 60.0625 53.125 
Q 64.75 56 71.09375 56 
Q 79.640625 56 84.28125 50.015625 
Q 88.921875 44.046875 88.921875 33.015625 
L 88.921875 0 
L 79.890625 0 
L 79.890625 32.71875 
Q 79.890625 40.578125 77.09375 44.375 
Q 74.3125 48.1875 68.609375 48.1875 
Q 61.625 48.1875 57.5625 43.546875 
Q 53.515625 38.921875 53.515625 30.90625 
L 53.515625 0 
L 44.484375 0 
L 44.484375 32.71875 
Q 44.484375 40.625 41.703125 44.40625 
Q 38.921875 48.1875 33.109375 48.1875 
Q 26.21875 48.1875 22.15625 43.53125 
Q 18.109375 38.875 18.109375 30.90625 
L 18.109375 0 
L 9.078125 0 
L 9.078125 54.6875 
L 18.109375 54.6875 
L 18.109375 46.1875 
Q 21.1875 51.21875 25.484375 53.609375 
Q 29.78125 56 35.6875 56 
Q 41.65625 56 45.828125 52.96875 
Q 50 49.953125 52 44.1875 
z
" id="DejaVuSans-109"/>
       <path d="M 54.890625 33.015625 
L 54.890625 0 
L 45.90625 0 
L 45.90625 32.71875 
Q 45.90625 40.484375 42.875 44.328125 
Q 39.84375 48.1875 33.796875 48.1875 
Q 26.515625 48.1875 22.3125 43.546875 
Q 18.109375 38.921875 18.109375 30.90625 
L 18.109375 0 
L 9.078125 0 
L 9.078125 54.6875 
L 18.109375 54.6875 
L 18.109375 46.1875 
Q 21.34375 51.125 25.703125 53.5625 
Q 30.078125 56 35.796875 56 
Q 45.21875 56 50.046875 50.171875 
Q 54.890625 44.34375 54.890625 33.015625 
z
" id="DejaVuSans-110"/>
       <path d="M 8.015625 75.875 
L 15.828125 75.875 
Q 23.140625 64.359375 26.78125 53.3125 
Q 30.421875 42.28125 30.421875 31.390625 
Q 30.421875 20.453125 26.78125 9.375 
Q 23.140625 -1.703125 15.828125 -13.1875 
L 8.015625 -13.1875 
Q 14.5 -2 17.703125 9.0625 
Q 20.90625 20.125 20.90625 31.390625 
Q 20.90625 42.671875 17.703125 53.65625 
Q 14.5 64.65625 8.015625 75.875 
z
" id="DejaVuSans-41"/>
      </defs>
      <use xlink:href="#DejaVuSans-108"/>
      <use x="27.783203" xlink:href="#DejaVuSans-111"/>
      <use x="88.964844" xlink:href="#DejaVuSans-103"/>
      <use x="152.441406" xlink:href="#DejaVuSans-49"/>
      <use x="216.064453" xlink:href="#DejaVuSans-48"/>
      <use x="279.6875" xlink:href="#DejaVuSans-40"/>
      <use x="318.701172" xlink:href="#DejaVuSans-35"/>
      <use x="402.490234" xlink:href="#DejaVuSans-32"/>
      <use x="434.277344" xlink:href="#DejaVuSans-102"/>
      <use x="463.982422" xlink:href="#DejaVuSans-45"/>
      <use x="500.066406" xlink:href="#DejaVuSans-101"/>
      <use x="561.589844" xlink:href="#DejaVuSans-118"/>
      <use x="620.769531" xlink:href="#DejaVuSans-97"/>
      <use x="682.048828" xlink:href="#DejaVuSans-108"/>
      <use x="709.832031" xlink:href="#DejaVuSans-115"/>
      <use x="761.931641" xlink:href="#DejaVuSans-32"/>
      <use x="793.71875" xlink:href="#DejaVuSans-47"/>
      <use x="827.410156" xlink:href="#DejaVuSans-32"/>
      <use x="859.197266" xlink:href="#DejaVuSans-100"/>
      <use x="922.673828" xlink:href="#DejaVuSans-105"/>
      <use x="950.457031" xlink:href="#DejaVuSans-109"/>
      <use x="1047.869141" xlink:href="#DejaVuSans-101"/>
      <use x="1109.392578" xlink:href="#DejaVuSans-110"/>
      <use x="1172.771484" xlink:href="#DejaVuSans-115"/>
      <use x="1224.871094" xlink:href="#DejaVuSans-105"/>
      <use x="1252.654297" xlink:href="#DejaVuSans-111"/>
      <use x="1313.835938" xlink:href="#DejaVuSans-110"/>
      <use x="1377.214844" xlink:href="#DejaVuSans-41"/>
     </g>
    </g>
   </g>
   <g id="matplotlib.axis_2">
    <g id="ytick_1">
     <g id="line2d_21">
      <path clip-path="url(#pa8cde6d337)" d="M 57.6 298.944 
L 338.688 298.944 
" style="fill:none;stroke:#b0b0b0;stroke-linecap:square;stroke-width:0.8;"/>
     </g>
     <g id="line2d_22">
      <defs>
       <path d="M 0 0 
L -3.5 0 
" id="m7f54dfd6e3" style="stroke:#000000;stroke-width:0.8;"/>
      </defs>
      <g>
       <use style="stroke:#000000;stroke-width:0.8;" x="57.6" xlink:href="#m7f54dfd6e3" y="298.944"/>
      </g>
     </g>
     <g id="text_6">
      <!-- 0.0 -->
      <g transform="translate(25.155 305.02275)scale(0.16 -0.16)">
       <defs>
        <path d="M 10.6875 12.40625 
L 21 12.40625 
L 21 0 
L 10.6875 0 
z
" id="DejaVuSans-46"/>
       </defs>
       <use xlink:href="#DejaVuSans-48"/>
       <use x="63.623047" xlink:href="#DejaVuSans-46"/>
       <use x="95.410156" xlink:href="#DejaVuSans-48"/>
      </g>
     </g>
    </g>
    <g id="ytick_2">
     <g id="line2d_23">
      <path clip-path="url(#pa8cde6d337)" d="M 57.6 245.22202 
L 338.688 245.22202 
" style="fill:none;stroke:#b0b0b0;stroke-linecap:square;stroke-width:0.8;"/>
     </g>
     <g id="line2d_24">
      <g>
       <use style="stroke:#000000;stroke-width:0.8;" x="57.6" xlink:href="#m7f54dfd6e3" y="245.22202"/>
      </g>
     </g>
     <g id="text_7">
      <!-- 0.2 -->
      <g transform="translate(25.155 251.30077)scale(0.16 -0.16)">
       <use xlink:href="#DejaVuSans-48"/>
       <use x="63.623047" xlink:href="#DejaVuSans-46"/>
       <use x="95.410156" xlink:href="#DejaVuSans-50"/>
      </g>
     </g>
    </g>
    <g id="ytick_3">
     <g id="line2d_25">
      <path clip-path="url(#pa8cde6d337)" d="M 57.6 191.50004 
L 338.688 191.50004 
" style="fill:none;stroke:#b0b0b0;stroke-linecap:square;stroke-width:0.8;"/>
     </g>
     <g id="line2d_26">
      <g>
       <use style="stroke:#000000;stroke-width:0.8;" x="57.6" xlink:href="#m7f54dfd6e3" y="191.50004"/>
      </g>
     </g>
     <g id="text_8">
      <!-- 0.4 -->
      <g transform="translate(25.155 197.57879)scale(0.16 -0.16)">
       <use xlink:href="#DejaVuSans-48"/>
       <use x="63.623047" xlink:href="#DejaVuSans-46"/>
       <use x="95.410156" xlink:href="#DejaVuSans-52"/>
      </g>
     </g>
    </g>
    <g id="ytick_4">
     <g id="line2d_27">
      <path clip-path="url(#pa8cde6d337)" d="M 57.6 137.778059 
L 338.688 137.778059 
" style="fill:none;stroke:#b0b0b0;stroke-linecap:square;stroke-width:0.8;"/>
     </g>
     <g id="line2d_28">
      <g>
       <use style="stroke:#000000;stroke-width:0.8;" x="57.6" xlink:href="#m7f54dfd6e3" y="137.778059"/>
      </g>
     </g>
     <g id="text_9">
      <!-- 0.6 -->
      <g transform="translate(25.155 143.856809)scale(0.16 -0.16)">
       <use xlink:href="#DejaVuSans-48"/>
       <use x="63.623047" xlink:href="#DejaVuSans-46"/>
       <use x="95.410156" xlink:href="#DejaVuSans-54"/>
      </g>
     </g>
    </g>
    <g id="ytick_5">
     <g id="line2d_29">
      <path clip-path="url(#pa8cde6d337)" d="M 57.6 84.056079 
L 338.688 84.056079 
" style="fill:none;stroke:#b0b0b0;stroke-linecap:square;stroke-width:0.8;"/>
     </g>
     <g id="line2d_30">
      <g>
       <use style="stroke:#000000;stroke-width:0.8;" x="57.6" xlink:href="#m7f54dfd6e3" y="84.056079"/>
      </g>
     </g>
     <g id="text_10">
      <!-- 0.8 -->
      <g transform="translate(25.155 90.134829)scale(0.16 -0.16)">
       <defs>
        <path d="M 31.78125 34.625 
Q 24.75 34.625 20.71875 30.859375 
Q 16.703125 27.09375 16.703125 20.515625 
Q 16.703125 13.921875 20.71875 10.15625 
Q 24.75 6.390625 31.78125 6.390625 
Q 38.8125 6.390625 42.859375 10.171875 
Q 46.921875 13.96875 46.921875 20.515625 
Q 46.921875 27.09375 42.890625 30.859375 
Q 38.875 34.625 31.78125 34.625 
z
M 21.921875 38.8125 
Q 15.578125 40.375 12.03125 44.71875 
Q 8.5 49.078125 8.5 55.328125 
Q 8.5 64.0625 14.71875 69.140625 
Q 20.953125 74.21875 31.78125 74.21875 
Q 42.671875 74.21875 48.875 69.140625 
Q 55.078125 64.0625 55.078125 55.328125 
Q 55.078125 49.078125 51.53125 44.71875 
Q 48 40.375 41.703125 38.8125 
Q 48.828125 37.15625 52.796875 32.3125 
Q 56.78125 27.484375 56.78125 20.515625 
Q 56.78125 9.90625 50.3125 4.234375 
Q 43.84375 -1.421875 31.78125 -1.421875 
Q 19.734375 -1.421875 13.25 4.234375 
Q 6.78125 9.90625 6.78125 20.515625 
Q 6.78125 27.484375 10.78125 32.3125 
Q 14.796875 37.15625 21.921875 38.8125 
z
M 18.3125 54.390625 
Q 18.3125 48.734375 21.84375 45.5625 
Q 25.390625 42.390625 31.78125 42.390625 
Q 38.140625 42.390625 41.71875 45.5625 
Q 45.3125 48.734375 45.3125 54.390625 
Q 45.3125 60.0625 41.71875 63.234375 
Q 38.140625 66.40625 31.78125 66.40625 
Q 25.390625 66.40625 21.84375 63.234375 
Q 18.3125 60.0625 18.3125 54.390625 
z
" id="DejaVuSans-56"/>
       </defs>
       <use xlink:href="#DejaVuSans-48"/>
       <use x="63.623047" xlink:href="#DejaVuSans-46"/>
       <use x="95.410156" xlink:href="#DejaVuSans-56"/>
      </g>
     </g>
    </g>
    <g id="ytick_6">
     <g id="line2d_31">
      <path clip-path="url(#pa8cde6d337)" d="M 57.6 30.334099 
L 338.688 30.334099 
" style="fill:none;stroke:#b0b0b0;stroke-linecap:square;stroke-width:0.8;"/>
     </g>
     <g id="line2d_32">
      <g>
       <use style="stroke:#000000;stroke-width:0.8;" x="57.6" xlink:href="#m7f54dfd6e3" y="30.334099"/>
      </g>
     </g>
     <g id="text_11">
      <!-- 1.0 -->
      <g transform="translate(25.155 36.412849)scale(0.16 -0.16)">
       <use xlink:href="#DejaVuSans-49"/>
       <use x="63.623047" xlink:href="#DejaVuSans-46"/>
       <use x="95.410156" xlink:href="#DejaVuSans-48"/>
      </g>
     </g>
    </g>
    <g id="text_12">
     <!-- Fraction of function,target pairs -->
     <g transform="translate(17.619531 297.681)rotate(-90)scale(0.17 -0.17)">
      <defs>
       <path d="M 9.8125 72.90625 
L 51.703125 72.90625 
L 51.703125 64.59375 
L 19.671875 64.59375 
L 19.671875 43.109375 
L 48.578125 43.109375 
L 48.578125 34.8125 
L 19.671875 34.8125 
L 19.671875 0 
L 9.8125 0 
z
" id="DejaVuSans-70"/>
       <path d="M 41.109375 46.296875 
Q 39.59375 47.171875 37.8125 47.578125 
Q 36.03125 48 33.890625 48 
Q 26.265625 48 22.1875 43.046875 
Q 18.109375 38.09375 18.109375 28.8125 
L 18.109375 0 
L 9.078125 0 
L 9.078125 54.6875 
L 18.109375 54.6875 
L 18.109375 46.1875 
Q 20.953125 51.171875 25.484375 53.578125 
Q 30.03125 56 36.53125 56 
Q 37.453125 56 38.578125 55.875 
Q 39.703125 55.765625 41.0625 55.515625 
z
" id="DejaVuSans-114"/>
       <path d="M 48.78125 52.59375 
L 48.78125 44.1875 
Q 44.96875 46.296875 41.140625 47.34375 
Q 37.3125 48.390625 33.40625 48.390625 
Q 24.65625 48.390625 19.8125 42.84375 
Q 14.984375 37.3125 14.984375 27.296875 
Q 14.984375 17.28125 19.8125 11.734375 
Q 24.65625 6.203125 33.40625 6.203125 
Q 37.3125 6.203125 41.140625 7.25 
Q 44.96875 8.296875 48.78125 10.40625 
L 48.78125 2.09375 
Q 45.015625 0.34375 40.984375 -0.53125 
Q 36.96875 -1.421875 32.421875 -1.421875 
Q 20.0625 -1.421875 12.78125 6.34375 
Q 5.515625 14.109375 5.515625 27.296875 
Q 5.515625 40.671875 12.859375 48.328125 
Q 20.21875 56 33.015625 56 
Q 37.15625 56 41.109375 55.140625 
Q 45.0625 54.296875 48.78125 52.59375 
z
" id="DejaVuSans-99"/>
       <path d="M 18.3125 70.21875 
L 18.3125 54.6875 
L 36.8125 54.6875 
L 36.8125 47.703125 
L 18.3125 47.703125 
L 18.3125 18.015625 
Q 18.3125 11.328125 20.140625 9.421875 
Q 21.96875 7.515625 27.59375 7.515625 
L 36.8125 7.515625 
L 36.8125 0 
L 27.59375 0 
Q 17.1875 0 13.234375 3.875 
Q 9.28125 7.765625 9.28125 18.015625 
L 9.28125 47.703125 
L 2.6875 47.703125 
L 2.6875 54.6875 
L 9.28125 54.6875 
L 9.28125 70.21875 
z
" id="DejaVuSans-116"/>
       <path d="M 8.5 21.578125 
L 8.5 54.6875 
L 17.484375 54.6875 
L 17.484375 21.921875 
Q 17.484375 14.15625 20.5 10.265625 
Q 23.53125 6.390625 29.59375 6.390625 
Q 36.859375 6.390625 41.078125 11.03125 
Q 45.3125 15.671875 45.3125 23.6875 
L 45.3125 54.6875 
L 54.296875 54.6875 
L 54.296875 0 
L 45.3125 0 
L 45.3125 8.40625 
Q 42.046875 3.421875 37.71875 1 
Q 33.40625 -1.421875 27.6875 -1.421875 
Q 18.265625 -1.421875 13.375 4.4375 
Q 8.5 10.296875 8.5 21.578125 
z
M 31.109375 56 
z
" id="DejaVuSans-117"/>
       <path d="M 11.71875 12.40625 
L 22.015625 12.40625 
L 22.015625 4 
L 14.015625 -11.625 
L 7.71875 -11.625 
L 11.71875 4 
z
" id="DejaVuSans-44"/>
       <path d="M 18.109375 8.203125 
L 18.109375 -20.796875 
L 9.078125 -20.796875 
L 9.078125 54.6875 
L 18.109375 54.6875 
L 18.109375 46.390625 
Q 20.953125 51.265625 25.265625 53.625 
Q 29.59375 56 35.59375 56 
Q 45.5625 56 51.78125 48.09375 
Q 58.015625 40.1875 58.015625 27.296875 
Q 58.015625 14.40625 51.78125 6.484375 
Q 45.5625 -1.421875 35.59375 -1.421875 
Q 29.59375 -1.421875 25.265625 0.953125 
Q 20.953125 3.328125 18.109375 8.203125 
z
M 48.6875 27.296875 
Q 48.6875 37.203125 44.609375 42.84375 
Q 40.53125 48.484375 33.40625 48.484375 
Q 26.265625 48.484375 22.1875 42.84375 
Q 18.109375 37.203125 18.109375 27.296875 
Q 18.109375 17.390625 22.1875 11.75 
Q 26.265625 6.109375 33.40625 6.109375 
Q 40.53125 6.109375 44.609375 11.75 
Q 48.6875 17.390625 48.6875 27.296875 
z
" id="DejaVuSans-112"/>
      </defs>
      <use xlink:href="#DejaVuSans-70"/>
      <use x="50.269531" xlink:href="#DejaVuSans-114"/>
      <use x="91.382812" xlink:href="#DejaVuSans-97"/>
      <use x="152.662109" xlink:href="#DejaVuSans-99"/>
      <use x="207.642578" xlink:href="#DejaVuSans-116"/>
      <use x="246.851562" xlink:href="#DejaVuSans-105"/>
      <use x="274.634766" xlink:href="#DejaVuSans-111"/>
      <use x="335.816406" xlink:href="#DejaVuSans-110"/>
      <use x="399.195312" xlink:href="#DejaVuSans-32"/>
      <use x="430.982422" xlink:href="#DejaVuSans-111"/>
      <use x="492.164062" xlink:href="#DejaVuSans-102"/>
      <use x="527.369141" xlink:href="#DejaVuSans-32"/>
      <use x="559.15625" xlink:href="#DejaVuSans-102"/>
      <use x="594.361328" xlink:href="#DejaVuSans-117"/>
      <use x="657.740234" xlink:href="#DejaVuSans-110"/>
      <use x="721.119141" xlink:href="#DejaVuSans-99"/>
      <use x="776.099609" xlink:href="#DejaVuSans-116"/>
      <use x="815.308594" xlink:href="#DejaVuSans-105"/>
      <use x="843.091797" xlink:href="#DejaVuSans-111"/>
      <use x="904.273438" xlink:href="#DejaVuSans-110"/>
      <use x="967.652344" xlink:href="#DejaVuSans-44"/>
      <use x="999.439453" xlink:href="#DejaVuSans-116"/>
      <use x="1038.648438" xlink:href="#DejaVuSans-97"/>
      <use x="1099.927734" xlink:href="#DejaVuSans-114"/>
      <use x="1139.291016" xlink:href="#DejaVuSans-103"/>
      <use x="1202.767578" xlink:href="#DejaVuSans-101"/>
      <use x="1264.291016" xlink:href="#DejaVuSans-116"/>
      <use x="1303.5" xlink:href="#DejaVuSans-32"/>
      <use x="1335.287109" xlink:href="#DejaVuSans-112"/>
      <use x="1398.763672" xlink:href="#DejaVuSans-97"/>
      <use x="1460.042969" xlink:href="#DejaVuSans-105"/>
      <use x="1487.826172" xlink:href="#DejaVuSans-114"/>
      <use x="1528.939453" xlink:href="#DejaVuSans-115"/>
     </g>
    </g>
   </g>
   <g id="line2d_33">
    <defs>
     <path d="M 0 1.5 
C 0.397805 1.5 0.77937 1.341951 1.06066 1.06066 
C 1.341951 0.77937 1.5 0.397805 1.5 0 
C 1.5 -0.397805 1.341951 -0.77937 1.06066 -1.06066 
C 0.77937 -1.341951 0.397805 -1.5 0 -1.5 
C -0.397805 -1.5 -0.77937 -1.341951 -1.06066 -1.06066 
C -1.341951 -0.77937 -1.5 -0.397805 -1.5 0 
C -1.5 0.397805 -1.341951 0.77937 -1.06066 1.06066 
C -0.77937 1.341951 -0.397805 1.5 0 1.5 
z
" id="md9380286c1" style="stroke:#f5deb3;"/>
    </defs>
    <g>
     <use style="fill:#f5deb3;stroke:#f5deb3;" x="283.982116" xlink:href="#md9380286c1" y="62.752535"/>
     <use style="fill:#f5deb3;stroke:#f5deb3;" x="283.982116" xlink:href="#md9380286c1" y="62.752535"/>
    </g>
   </g>
   <g id="line2d_34">
    <defs>
     <path d="M 0 1.5 
C 0.397805 1.5 0.77937 1.341951 1.06066 1.06066 
C 1.341951 0.77937 1.5 0.397805 1.5 0 
C 1.5 -0.397805 1.341951 -0.77937 1.06066 -1.06066 
C 0.77937 -1.341951 0.397805 -1.5 0 -1.5 
C -0.397805 -1.5 -0.77937 -1.341951 -1.06066 -1.06066 
C -1.341951 -0.77937 -1.5 -0.397805 -1.5 0 
C -1.5 0.397805 -1.341951 0.77937 -1.06066 1.06066 
C -0.77937 1.341951 -0.397805 1.5 0 1.5 
z
" id="m3c9499a2a1" style="stroke:#000080;"/>
    </defs>
    <g>
     <use style="fill:#000080;stroke:#000080;" x="256.826466" xlink:href="#m3c9499a2a1" y="116.474516"/>
     <use style="fill:#000080;stroke:#000080;" x="256.826466" xlink:href="#m3c9499a2a1" y="116.474516"/>
    </g>
   </g>
   <g id="line2d_35">
    <path d="M 29.53256 298.944 
L 29.53256 297.554638 
L 53.708537 297.554638 
L 53.708537 297.091518 
L 63.467834 297.091518 
L 63.467834 296.628397 
L 71.35013 296.628397 
L 71.35013 295.702156 
L 75.555822 295.702156 
L 75.555822 292.923433 
L 76.759008 292.923433 
L 76.759008 292.460313 
L 78.941764 292.460313 
L 78.941764 291.070951 
L 85.66744 291.070951 
L 85.66744 289.68159 
L 87.009585 289.68159 
L 87.009585 288.755349 
L 87.643811 288.755349 
L 87.643811 288.292228 
L 89.418828 288.292228 
L 89.418828 287.829108 
L 96.301313 287.829108 
L 96.301313 286.439746 
L 102.597126 286.439746 
L 102.597126 285.050384 
L 103.870632 285.050384 
L 103.870632 284.587264 
L 106.168594 284.587264 
L 106.168594 284.124143 
L 109.491096 284.124143 
L 109.491096 283.661023 
L 110.188761 283.661023 
L 110.188761 283.197902 
L 112.431755 283.197902 
L 112.431755 275.324854 
L 113.022974 275.324854 
L 113.022974 273.472371 
L 115.711251 273.472371 
L 115.711251 273.009251 
L 115.835374 273.009251 
L 115.835374 272.08301 
L 116.443076 272.08301 
L 116.443076 270.230528 
L 116.797786 270.230528 
L 116.797786 268.841166 
L 117.145424 268.841166 
L 117.145424 268.378046 
L 117.486268 268.378046 
L 117.486268 267.914925 
L 120.286695 267.914925 
L 120.286695 267.451805 
L 121.931406 267.451805 
L 121.931406 266.988684 
L 123.514096 266.988684 
L 123.514096 265.136202 
L 124.965026 265.136202 
L 124.965026 263.28372 
L 125.470548 263.28372 
L 125.470548 262.8206 
L 133.667073 262.8206 
L 133.667073 262.357479 
L 134.953107 262.357479 
L 134.953107 259.578756 
L 135.076644 259.578756 
L 135.076644 258.652515 
L 135.800036 258.652515 
L 135.800036 257.726274 
L 141.80232 257.726274 
L 141.80232 257.263153 
L 143.324386 257.263153 
L 143.324386 256.800033 
L 144.582038 256.800033 
L 144.582038 256.336912 
L 145.976095 256.336912 
L 145.976095 255.410671 
L 146.474085 255.410671 
L 146.474085 253.558189 
L 147.848613 253.558189 
L 147.848613 252.631948 
L 148.025265 252.631948 
L 148.025265 250.779466 
L 148.54473 250.779466 
L 148.54473 249.390104 
L 148.770728 249.390104 
L 148.808112 247.074502 
L 148.882639 247.074502 
L 148.882639 244.758899 
L 150.480434 244.758899 
L 150.480434 243.832658 
L 151.787359 243.832658 
L 151.787359 243.369538 
L 154.46664 243.369538 
L 154.547439 241.517056 
L 155.258271 241.517056 
L 155.258271 241.053935 
L 155.488919 241.053935 
L 155.488919 240.590815 
L 156.052535 240.590815 
L 156.052535 239.664574 
L 156.764934 239.664574 
L 156.764934 238.738333 
L 157.023299 238.738333 
L 157.023299 237.812091 
L 157.437991 237.812091 
L 157.437991 237.348971 
L 158.238915 237.348971 
L 158.238915 236.88585 
L 158.358103 236.88585 
L 158.358103 235.033368 
L 158.910765 235.033368 
L 158.910765 233.644007 
L 159.293606 233.644007 
L 159.293606 233.180886 
L 159.405822 233.180886 
L 159.466728 231.791525 
L 159.916863 231.791525 
L 159.916863 230.402163 
L 160.933404 230.402163 
L 160.952025 229.475922 
L 161.564634 229.475922 
L 161.564634 229.012802 
L 162.234442 229.012802 
L 162.234442 227.62344 
L 162.397949 227.62344 
L 162.449267 226.234079 
L 162.970886 226.234079 
L 162.970886 225.307837 
L 163.977355 225.307837 
L 163.977355 224.381596 
L 164.584735 224.381596 
L 164.584735 223.918476 
L 164.727712 223.918476 
L 164.727712 222.992235 
L 165.497378 222.992235 
L 165.497378 222.065994 
L 165.85228 222.065994 
L 165.85228 221.139753 
L 166.006178 221.139753 
L 166.006178 220.676632 
L 166.131092 220.676632 
L 166.131092 219.750391 
L 167.627751 219.750391 
L 167.627751 218.82415 
L 167.82338 218.82415 
L 167.82338 218.36103 
L 168.566635 218.36103 
L 168.566635 217.897909 
L 168.82332 217.897909 
L 168.888381 216.508548 
L 169.411773 216.508548 
L 169.411773 216.045427 
L 169.86976 216.045427 
L 169.86976 215.119186 
L 170.798844 215.119186 
L 170.798844 214.192945 
L 171.925672 214.192945 
L 171.925672 213.266704 
L 174.283479 213.266704 
L 174.283479 212.803583 
L 174.62245 212.803583 
L 174.66913 211.877342 
L 175.58546 211.877342 
L 175.58546 211.414222 
L 175.77741 211.414222 
L 175.77741 210.951101 
L 177.513511 210.951101 
L 177.513511 210.487981 
L 178.118525 210.487981 
L 178.118525 209.56174 
L 178.93707 209.56174 
L 178.93707 208.635499 
L 179.269007 208.635499 
L 179.269007 207.709258 
L 179.485767 207.709258 
L 179.485767 206.783017 
L 180.375783 206.783017 
L 180.375783 205.856776 
L 181.364606 205.856776 
L 181.442376 203.541173 
L 181.596884 203.541173 
L 181.596884 203.078053 
L 182.066232 203.078053 
L 182.091171 201.688691 
L 182.61488 201.688691 
L 182.61488 201.225571 
L 183.713493 201.225571 
L 183.713493 200.76245 
L 183.931628 200.76245 
L 183.931628 200.299329 
L 185.220814 200.299329 
L 185.220814 199.373088 
L 185.589465 199.373088 
L 185.589465 198.909968 
L 186.561074 198.909968 
L 186.561074 197.983727 
L 187.167572 197.983727 
L 187.167572 197.520606 
L 187.753685 197.520606 
L 187.753685 196.594365 
L 188.349772 196.594365 
L 188.349772 196.131245 
L 189.6051 196.131245 
L 189.6051 195.668124 
L 190.03177 195.668124 
L 190.03177 194.741883 
L 190.249927 194.741883 
L 190.249927 193.815642 
L 190.625681 193.815642 
L 190.625681 193.352522 
L 190.769368 193.352522 
L 190.769368 192.889401 
L 192.527814 192.889401 
L 192.527814 192.426281 
L 192.677847 192.426281 
L 192.677847 191.96316 
L 193.162964 191.96316 
L 193.162964 191.036919 
L 193.412132 191.036919 
L 193.412132 190.110678 
L 193.617801 190.110678 
L 193.617801 189.647558 
L 194.077796 189.647558 
L 194.077796 189.184437 
L 194.570701 189.184437 
L 194.570701 188.721316 
L 195.272532 188.721316 
L 195.272532 188.258196 
L 195.431748 188.258196 
L 195.431748 187.331955 
L 195.563967 187.331955 
L 195.563967 186.405714 
L 195.99593 186.405714 
L 195.99593 185.479473 
L 196.386981 185.479473 
L 196.386981 185.016352 
L 196.543638 185.016352 
L 196.543638 184.090111 
L 196.74318 184.090111 
L 196.74318 183.626991 
L 196.861106 183.626991 
L 196.861106 183.16387 
L 197.170565 183.16387 
L 197.170565 182.70075 
L 197.376936 182.70075 
L 197.376936 182.237629 
L 197.63208 182.237629 
L 197.63208 181.311388 
L 197.898093 181.311388 
L 197.898093 180.385147 
L 198.625474 180.385147 
L 198.625474 179.922027 
L 198.851463 179.922027 
L 198.914894 178.995786 
L 199.070377 178.995786 
L 199.113207 178.069545 
L 199.494008 178.069545 
L 199.494008 177.606424 
L 200.06439 177.606424 
L 200.06439 177.143304 
L 200.467713 177.143304 
L 200.467713 176.680183 
L 200.676902 176.680183 
L 200.676902 176.217062 
L 201.363341 176.217062 
L 201.363341 175.753942 
L 201.740716 175.753942 
L 201.740716 174.827701 
L 202.271014 174.827701 
L 202.273625 173.438339 
L 202.507922 173.438339 
L 202.507922 172.975219 
L 203.307717 172.975219 
L 203.307717 172.512098 
L 203.582793 172.512098 
L 203.582793 172.048978 
L 203.84485 172.048978 
L 203.84485 171.585857 
L 203.981915 171.585857 
L 204.080285 170.196496 
L 204.442961 170.196496 
L 204.525007 168.807134 
L 204.665957 168.807134 
L 204.665957 168.344014 
L 205.35557 168.344014 
L 205.436346 166.954652 
L 205.92107 166.954652 
L 205.92107 166.491532 
L 206.453747 166.491532 
L 206.521419 165.10217 
L 206.815024 165.10217 
L 206.871284 163.249688 
L 207.127504 163.249688 
L 207.233926 162.323447 
L 207.348813 162.323447 
L 207.348813 161.860326 
L 207.518448 161.860326 
L 207.571845 160.934085 
L 207.797769 160.934085 
L 207.816148 160.007844 
L 208.093895 160.007844 
L 208.093895 159.544724 
L 208.278072 159.544724 
L 208.331657 157.692242 
L 208.754507 157.692242 
L 208.861023 156.766001 
L 208.987634 156.766001 
L 208.987634 156.30288 
L 209.444743 156.30288 
L 209.444743 155.376639 
L 209.687099 155.376639 
L 209.687099 154.913519 
L 210.04025 154.913519 
L 210.04025 153.987278 
L 210.45513 153.987278 
L 210.45513 153.524157 
L 210.865155 153.524157 
L 210.873662 152.597916 
L 211.237673 152.597916 
L 211.346136 151.671675 
L 211.408107 151.671675 
L 211.408107 151.208554 
L 211.763263 151.208554 
L 211.782952 150.282313 
L 212.565352 150.282313 
L 212.673559 148.892952 
L 212.830583 148.892952 
L 212.830583 147.966711 
L 213.044501 147.966711 
L 213.044501 147.04047 
L 213.514947 147.04047 
L 213.514947 146.577349 
L 213.948544 146.577349 
L 213.948544 146.114229 
L 214.145289 146.114229 
L 214.145289 145.651108 
L 214.642223 145.651108 
L 214.679014 144.724867 
L 215.086188 144.724867 
L 215.101628 143.798626 
L 215.2317 143.798626 
L 215.2317 142.872385 
L 215.604039 142.872385 
L 215.606066 141.019903 
L 216.158461 141.019903 
L 216.158461 140.556783 
L 216.338513 140.556783 
L 216.338513 140.093662 
L 216.590796 140.093662 
L 216.631345 138.7043 
L 216.803956 138.7043 
L 216.803956 138.24118 
L 217.457047 138.24118 
L 217.460327 136.851818 
L 217.82699 136.851818 
L 217.82699 135.925577 
L 217.95106 135.925577 
L 217.95106 135.462457 
L 218.593368 135.462457 
L 218.593368 134.999336 
L 218.712122 134.999336 
L 218.712122 134.536216 
L 219.253669 134.536216 
L 219.253669 134.073095 
L 219.838454 134.073095 
L 219.838454 133.609975 
L 220.844296 133.609975 
L 220.844296 133.146854 
L 221.563283 133.146854 
L 221.642868 132.220613 
L 222.324787 132.220613 
L 222.362512 130.368131 
L 222.486402 130.368131 
L 222.486402 129.44189 
L 222.722143 129.44189 
L 222.722143 128.97877 
L 223.245308 128.97877 
L 223.245308 128.515649 
L 224.082571 128.515649 
L 224.082571 127.589408 
L 224.644414 127.589408 
L 224.644414 126.663167 
L 225.397057 126.663167 
L 225.397057 125.736926 
L 226.497191 125.736926 
L 226.497191 125.273805 
L 226.681752 125.273805 
L 226.681752 124.347564 
L 227.164363 124.347564 
L 227.164363 123.884444 
L 230.120863 123.884444 
L 230.120863 123.421323 
L 230.463016 123.421323 
L 230.463016 122.958203 
L 232.107657 122.958203 
L 232.107657 122.495082 
L 234.914501 122.495082 
L 234.914501 121.568841 
L 237.241702 121.568841 
L 237.241702 121.105721 
L 238.016007 121.105721 
L 238.016007 120.6426 
L 239.782245 120.6426 
L 239.782245 120.17948 
L 240.083045 120.17948 
L 240.127696 118.790118 
L 250.626395 118.790118 
L 250.660958 117.400757 
L 250.917694 117.400757 
L 250.917694 116.937636 
L 256.826466 116.937636 
L 256.826466 116.474516 
L 338.688 116.474516 
L 338.688 116.474516 
" style="fill:none;stroke:#000080;stroke-linecap:square;stroke-width:1.5;"/>
   </g>
   <g id="line2d_36">
    <defs>
     <path d="M 0 6 
C 1.591219 6 3.117479 5.367802 4.242641 4.242641 
C 5.367802 3.117479 6 1.591219 6 0 
C 6 -1.591219 5.367802 -3.117479 4.242641 -4.242641 
C 3.117479 -5.367802 1.591219 -6 0 -6 
C -1.591219 -6 -3.117479 -5.367802 -4.242641 -4.242641 
C -5.367802 -3.117479 -6 -1.591219 -6 0 
C -6 1.591219 -5.367802 3.117479 -4.242641 4.242641 
C -3.117479 5.367802 -1.591219 6 0 6 
z
" id="m7e18637661" style="stroke:#000080;stroke-width:1.5;"/>
    </defs>
    <g>
     <use style="fill-opacity:0;stroke:#000080;stroke-width:1.5;" x="85.66744" xlink:href="#m7e18637661" y="291.070951"/>
     <use style="fill-opacity:0;stroke:#000080;stroke-width:1.5;" x="135.800036" xlink:href="#m7e18637661" y="258.652515"/>
     <use style="fill-opacity:0;stroke:#000080;stroke-width:1.5;" x="205.92107" xlink:href="#m7e18637661" y="166.491532"/>
     <use style="fill-opacity:0;stroke:#000080;stroke-width:1.5;" x="240.127696" xlink:href="#m7e18637661" y="118.790118"/>
     <use style="fill-opacity:0;stroke:#000080;stroke-width:1.5;" x="256.826466" xlink:href="#m7e18637661" y="116.474516"/>
     <use style="fill-opacity:0;stroke:#000080;stroke-width:1.5;" x="338.688" xlink:href="#m7e18637661" y="116.474516"/>
    </g>
   </g>
   <g id="line2d_37">
    <path style="fill:none;stroke:#000080;stroke-linecap:square;stroke-width:1.5;"/>
    <g/>
   </g>
   <g id="line2d_38">
    <path clip-path="url(#pa8cde6d337)" d="M 258.377317 116.474516 
" style="fill:none;stroke:#000080;stroke-linecap:square;stroke-width:1.5;"/>
    <defs>
     <path d="M -12 12 
L 12 -12 
M -12 -12 
L 12 12 
" id="m0bbfb9ea7f" style="stroke:#000080;"/>
    </defs>
    <g clip-path="url(#pa8cde6d337)">
     <use style="fill:#000080;stroke:#000080;" x="258.377317" xlink:href="#m0bbfb9ea7f" y="116.474516"/>
    </g>
   </g>
   <g id="line2d_39">
    <defs>
     <path d="M 0 1.5 
C 0.397805 1.5 0.77937 1.341951 1.06066 1.06066 
C 1.341951 0.77937 1.5 0.397805 1.5 0 
C 1.5 -0.397805 1.341951 -0.77937 1.06066 -1.06066 
C 0.77937 -1.341951 0.397805 -1.5 0 -1.5 
C -0.397805 -1.5 -0.77937 -1.341951 -1.06066 -1.06066 
C -1.341951 -0.77937 -1.5 -0.397805 -1.5 0 
C -1.5 0.397805 -1.341951 0.77937 -1.06066 1.06066 
C -0.77937 1.341951 -0.397805 1.5 0 1.5 
z
" id="md3a8a0b6ec" style="stroke:#ff00ff;"/>
    </defs>
    <g>
     <use style="fill:#ff00ff;stroke:#ff00ff;" x="257.502696" xlink:href="#md3a8a0b6ec" y="132.220613"/>
     <use style="fill:#ff00ff;stroke:#ff00ff;" x="257.502696" xlink:href="#md3a8a0b6ec" y="132.220613"/>
    </g>
   </g>
   <g id="line2d_40">
    <path d="M 29.53256 298.944 
L 29.53256 296.628397 
L 138.628343 296.628397 
L 138.628343 295.702156 
L 140.944478 295.702156 
L 140.944478 295.239036 
L 142.857929 295.239036 
L 142.857929 293.849674 
L 143.324386 293.849674 
L 143.375453 291.534072 
L 144.294175 291.534072 
L 144.342484 289.68159 
L 145.888018 289.68159 
L 145.888018 289.218469 
L 146.367029 289.218469 
L 146.431341 285.513505 
L 146.495417 285.513505 
L 146.538004 284.587264 
L 146.622867 284.587264 
L 146.707319 281.808541 
L 146.958248 281.808541 
L 147.041095 279.029818 
L 147.246507 279.029818 
L 147.246507 278.566697 
L 148.200145 278.566697 
L 148.296548 276.714215 
L 148.334961 276.714215 
L 148.411533 274.398612 
L 148.901221 274.398612 
L 149.012299 271.619889 
L 149.030744 271.619889 
L 149.104327 267.451805 
L 149.177602 267.451805 
L 149.177602 266.525564 
L 149.359452 266.525564 
L 149.359452 265.136202 
L 149.485628 265.136202 
L 149.593058 262.8206 
L 150.258492 262.8206 
L 150.327083 257.263153 
L 150.412445 257.263153 
L 150.51433 253.558189 
L 150.615623 253.558189 
L 150.699587 251.242587 
L 150.816462 251.242587 
L 150.882897 249.390104 
L 150.965587 249.390104 
L 150.982078 248.463863 
L 151.195055 248.463863 
L 151.227591 245.68514 
L 151.724287 245.68514 
L 151.818809 242.443297 
L 151.944047 242.443297 
L 152.021866 240.590815 
L 152.130233 240.590815 
L 152.130233 240.127694 
L 152.736878 240.127694 
L 152.840905 236.88585 
L 153.120174 236.88585 
L 153.207444 235.033368 
L 153.40939 235.033368 
L 153.509492 231.791525 
L 153.806399 231.791525 
L 153.820412 229.939043 
L 154.056927 229.939043 
L 154.056927 228.549681 
L 154.235652 228.549681 
L 154.331136 227.62344 
L 154.614488 227.62344 
L 154.721232 226.697199 
L 154.840544 226.697199 
L 154.93278 225.307837 
L 155.115803 225.307837 
L 155.206599 222.992235 
L 155.322646 222.992235 
L 155.322646 222.529114 
L 155.501643 222.529114 
L 155.527065 221.139753 
L 155.928852 221.139753 
L 155.94126 218.82415 
L 156.052535 218.82415 
L 156.052535 218.36103 
L 156.30945 218.36103 
L 156.30945 217.897909 
L 156.598505 217.897909 
L 156.598505 216.971668 
L 156.764934 216.971668 
L 156.764934 216.508548 
L 157.300853 216.508548 
L 157.300853 216.045427 
L 157.472107 216.045427 
L 157.551454 214.192945 
L 157.652944 214.192945 
L 157.652944 213.729825 
L 157.831925 213.729825 
L 157.831925 213.266704 
L 158.336493 213.266704 
L 158.336493 212.803583 
L 158.51933 212.803583 
L 158.583406 211.414222 
L 158.983842 211.414222 
L 158.983842 210.951101 
L 159.149734 210.951101 
L 159.149734 210.487981 
L 159.807898 210.487981 
L 159.807898 209.56174 
L 159.936602 209.56174 
L 159.936602 209.098619 
L 160.064363 209.098619 
L 160.064363 208.172378 
L 160.200913 208.172378 
L 160.200913 207.246137 
L 160.346039 207.246137 
L 160.346039 206.319896 
L 160.698938 206.319896 
L 160.698938 205.856776 
L 161.347658 205.856776 
L 161.365843 204.930535 
L 162.182487 204.930535 
L 162.191157 203.078053 
L 162.500433 203.078053 
L 162.500433 202.151812 
L 162.90445 202.151812 
L 162.90445 201.688691 
L 163.144084 201.688691 
L 163.225959 200.299329 
L 163.701348 200.299329 
L 163.796472 198.909968 
L 163.859601 198.909968 
L 163.859601 198.446847 
L 164.01643 198.446847 
L 164.01643 197.983727 
L 164.195057 197.983727 
L 164.195057 197.520606 
L 164.622474 197.520606 
L 164.622474 197.057486 
L 164.824867 197.057486 
L 164.824867 196.594365 
L 164.973287 196.594365 
L 165.083779 195.205004 
L 165.171671 195.205004 
L 165.171671 194.741883 
L 165.511714 194.741883 
L 165.511714 194.278763 
L 165.873346 194.278763 
L 165.957358 193.352522 
L 166.20699 193.352522 
L 166.20699 192.889401 
L 166.446309 192.889401 
L 166.446309 192.426281 
L 168.01684 192.426281 
L 168.01684 191.96316 
L 168.476198 191.96316 
L 168.548585 190.573799 
L 169.099626 190.573799 
L 169.099626 189.647558 
L 169.819463 189.647558 
L 169.819463 188.721316 
L 170.456886 188.721316 
L 170.456886 187.795075 
L 172.52532 187.795075 
L 172.52532 186.868834 
L 172.970079 186.868834 
L 172.970079 186.405714 
L 173.09576 186.405714 
L 173.09576 185.942593 
L 173.326137 185.942593 
L 173.326137 185.479473 
L 173.862495 185.479473 
L 173.862495 185.016352 
L 174.15301 185.016352 
L 174.15301 184.553232 
L 174.959126 184.553232 
L 174.959126 183.626991 
L 175.769454 183.626991 
L 175.868643 182.237629 
L 176.279182 182.237629 
L 176.279182 181.774509 
L 176.459861 181.774509 
L 176.459861 181.311388 
L 176.631116 181.311388 
L 176.631116 180.848268 
L 177.767269 180.848268 
L 177.767269 179.922027 
L 178.125479 179.922027 
L 178.125479 179.458906 
L 178.322496 179.458906 
L 178.408209 178.069545 
L 178.602076 178.069545 
L 178.602076 177.606424 
L 178.8005 177.606424 
L 178.8005 176.680183 
L 179.431023 176.680183 
L 179.431023 176.217062 
L 179.556359 176.217062 
L 179.556359 175.753942 
L 180.932036 175.753942 
L 180.932036 175.290821 
L 181.222575 175.290821 
L 181.222575 174.827701 
L 182.507063 174.827701 
L 182.507063 173.90146 
L 182.708675 173.90146 
L 182.708675 172.975219 
L 183.175438 172.975219 
L 183.175438 172.048978 
L 184.384175 172.048978 
L 184.384175 171.122737 
L 185.111709 171.122737 
L 185.111709 170.659616 
L 185.427852 170.659616 
L 185.427852 170.196496 
L 185.659561 170.196496 
L 185.659561 169.733375 
L 187.264577 169.733375 
L 187.264577 169.270255 
L 187.879313 169.270255 
L 187.879313 168.807134 
L 188.871809 168.807134 
L 188.871809 168.344014 
L 189.245064 168.344014 
L 189.245064 167.880893 
L 190.300152 167.880893 
L 190.300152 166.954652 
L 191.633136 166.954652 
L 191.633136 166.028411 
L 191.895505 166.028411 
L 191.895505 165.565291 
L 192.495822 165.565291 
L 192.576451 164.175929 
L 192.911673 164.175929 
L 192.911673 163.249688 
L 193.541857 163.249688 
L 193.541857 162.786567 
L 194.456611 162.786567 
L 194.456611 162.323447 
L 197.241563 162.323447 
L 197.241563 161.397206 
L 201.122337 161.397206 
L 201.122337 160.934085 
L 202.490738 160.934085 
L 202.490738 160.470965 
L 203.088975 160.470965 
L 203.088975 159.081603 
L 203.33067 159.081603 
L 203.33067 158.618483 
L 209.262052 158.618483 
L 209.262052 158.155362 
L 210.937862 158.155362 
L 210.937862 157.692242 
L 211.314031 157.692242 
L 211.314031 156.766001 
L 211.987603 156.766001 
L 211.987603 156.30288 
L 212.757735 156.30288 
L 212.757735 155.83976 
L 214.949974 155.83976 
L 214.949974 154.913519 
L 218.217877 154.913519 
L 218.302098 153.061037 
L 218.882875 153.061037 
L 218.882875 152.134795 
L 219.190435 152.134795 
L 219.190435 151.671675 
L 222.935053 151.671675 
L 222.935053 151.208554 
L 224.078832 151.208554 
L 224.078832 150.745434 
L 224.386464 150.745434 
L 224.386464 150.282313 
L 224.707047 150.282313 
L 224.707047 149.819193 
L 226.790491 149.819193 
L 226.790491 149.356072 
L 227.13719 149.356072 
L 227.13719 148.429831 
L 228.165782 148.429831 
L 228.165782 147.966711 
L 228.462406 147.966711 
L 228.462406 147.50359 
L 228.718378 147.50359 
L 228.768744 146.577349 
L 229.136511 146.577349 
L 229.17843 145.187988 
L 229.944565 145.187988 
L 229.944565 144.261747 
L 230.110106 144.261747 
L 230.110106 143.335506 
L 230.242432 143.335506 
L 230.242432 142.872385 
L 231.798495 142.872385 
L 231.842313 141.483024 
L 232.461913 141.483024 
L 232.461913 141.019903 
L 235.984768 141.019903 
L 235.984768 140.556783 
L 237.835261 140.556783 
L 237.835261 139.630541 
L 238.416293 139.630541 
L 238.416293 139.167421 
L 238.691622 139.167421 
L 238.691622 138.24118 
L 239.067895 138.24118 
L 239.067895 137.778059 
L 243.241829 137.778059 
L 243.241829 136.851818 
L 244.865645 136.851818 
L 244.865645 135.925577 
L 245.190787 135.925577 
L 245.190787 135.462457 
L 249.918548 135.462457 
L 249.918548 134.999336 
L 250.476102 134.999336 
L 250.476102 134.536216 
L 250.873343 134.536216 
L 250.873343 133.609975 
L 255.139661 133.609975 
L 255.139661 133.146854 
L 256.192353 133.146854 
L 256.192353 132.683734 
L 257.502696 132.683734 
L 257.502696 132.220613 
L 338.688 132.220613 
L 338.688 132.220613 
" style="fill:none;stroke:#ff00ff;stroke-linecap:square;stroke-width:1.5;"/>
   </g>
   <g id="line2d_41">
    <defs>
     <path d="M 0 8.485281 
L 5.091169 0 
L 0 -8.485281 
L -5.091169 0 
z
" id="m1db307e18f" style="stroke:#ff00ff;stroke-linejoin:miter;stroke-width:1.5;"/>
    </defs>
    <g>
     <use style="fill-opacity:0;stroke:#ff00ff;stroke-linejoin:miter;stroke-width:1.5;" x="163.859601" xlink:href="#m1db307e18f" y="198.909968"/>
     <use style="fill-opacity:0;stroke:#ff00ff;stroke-linejoin:miter;stroke-width:1.5;" x="229.17843" xlink:href="#m1db307e18f" y="145.187988"/>
     <use style="fill-opacity:0;stroke:#ff00ff;stroke-linejoin:miter;stroke-width:1.5;" x="257.502696" xlink:href="#m1db307e18f" y="132.220613"/>
     <use style="fill-opacity:0;stroke:#ff00ff;stroke-linejoin:miter;stroke-width:1.5;" x="257.502696" xlink:href="#m1db307e18f" y="132.220613"/>
     <use style="fill-opacity:0;stroke:#ff00ff;stroke-linejoin:miter;stroke-width:1.5;" x="338.688" xlink:href="#m1db307e18f" y="132.220613"/>
    </g>
   </g>
   <g id="line2d_42">
    <path style="fill:none;stroke:#ff00ff;stroke-linecap:square;stroke-width:1.5;"/>
    <g/>
   </g>
   <g id="line2d_43">
    <path clip-path="url(#pa8cde6d337)" d="M 258.381502 132.220613 
" style="fill:none;stroke:#ff00ff;stroke-linecap:square;stroke-width:1.5;"/>
    <defs>
     <path d="M -12 12 
L 12 -12 
M -12 -12 
L 12 12 
" id="m02f3c4c61d" style="stroke:#ff00ff;"/>
    </defs>
    <g clip-path="url(#pa8cde6d337)">
     <use style="fill:#ff00ff;stroke:#ff00ff;" x="258.381502" xlink:href="#m02f3c4c61d" y="132.220613"/>
    </g>
   </g>
   <g id="line2d_44">
    <defs>
     <path d="M 0 1.5 
C 0.397805 1.5 0.77937 1.341951 1.06066 1.06066 
C 1.341951 0.77937 1.5 0.397805 1.5 0 
C 1.5 -0.397805 1.341951 -0.77937 1.06066 -1.06066 
C 0.77937 -1.341951 0.397805 -1.5 0 -1.5 
C -0.397805 -1.5 -0.77937 -1.341951 -1.06066 -1.06066 
C -1.341951 -0.77937 -1.5 -0.397805 -1.5 0 
C -1.5 0.397805 -1.341951 0.77937 -1.06066 1.06066 
C -0.77937 1.341951 -0.397805 1.5 0 1.5 
z
" id="m2c79993b89" style="stroke:#ff7500;"/>
    </defs>
    <g>
     <use style="fill:#ff7500;stroke:#ff7500;" x="250.332582" xlink:href="#m2c79993b89" y="150.745434"/>
     <use style="fill:#ff7500;stroke:#ff7500;" x="250.332582" xlink:href="#m2c79993b89" y="150.745434"/>
    </g>
   </g>
   <g id="line2d_45">
    <path d="M 151.787359 298.944 
L 151.787359 298.480879 
L 153.48095 298.480879 
L 153.48095 297.554638 
L 156.333721 297.554638 
L 156.333721 297.091518 
L 157.2549 297.091518 
L 157.2549 296.628397 
L 157.798506 296.628397 
L 157.798506 296.165277 
L 158.497919 296.165277 
L 158.497919 295.702156 
L 158.921223 295.702156 
L 158.921223 293.849674 
L 159.547605 293.849674 
L 159.547605 289.218469 
L 159.916863 289.218469 
L 159.916863 288.755349 
L 160.152267 288.755349 
L 160.152267 287.829108 
L 160.632719 287.829108 
L 160.632719 287.365987 
L 160.793103 287.365987 
L 160.793103 286.902867 
L 161.274728 286.902867 
L 161.338558 284.124143 
L 161.672119 284.124143 
L 161.698887 282.734782 
L 162.043181 282.734782 
L 162.095552 280.419179 
L 162.156452 280.419179 
L 162.191157 278.566697 
L 162.337888 278.566697 
L 162.38081 276.251095 
L 162.576903 276.251095 
L 162.576903 274.861733 
L 162.829407 274.861733 
L 162.871137 273.472371 
L 163.103002 273.472371 
L 163.193255 272.08301 
L 163.339941 272.08301 
L 163.412824 271.156769 
L 163.525596 271.156769 
L 163.613694 268.378046 
L 163.741046 268.378046 
L 163.828065 265.599323 
L 163.914652 265.599323 
L 164.024234 264.209961 
L 164.078769 264.209961 
L 164.148635 259.115635 
L 164.225937 259.115635 
L 164.310575 257.263153 
L 164.356568 257.263153 
L 164.455807 252.631948 
L 164.493826 252.631948 
L 164.493826 251.242587 
L 164.652607 251.242587 
L 164.652607 248.926984 
L 164.899235 248.926984 
L 164.958502 245.68514 
L 165.186277 245.68514 
L 165.244578 242.906417 
L 165.338904 242.906417 
L 165.403908 240.127694 
L 165.461488 240.127694 
L 165.511714 237.812091 
L 165.611735 237.812091 
L 165.718267 235.959609 
L 165.795979 235.959609 
L 165.901395 234.570248 
L 165.922402 234.570248 
L 166.027059 228.549681 
L 166.047915 228.549681 
L 166.047915 227.62344 
L 166.24825 227.62344 
L 166.323641 223.918476 
L 166.391896 223.918476 
L 166.391896 223.455355 
L 166.689087 223.455355 
L 166.789256 221.602873 
L 166.915315 221.602873 
L 167.007622 219.750391 
L 167.086355 219.750391 
L 167.086355 218.82415 
L 167.249248 218.82415 
L 167.301055 216.508548 
L 167.417059 216.508548 
L 167.417059 215.582307 
L 167.545055 215.582307 
L 167.570541 212.803583 
L 167.684773 212.803583 
L 167.773105 211.877342 
L 167.867253 211.877342 
L 167.867253 210.951101 
L 168.054037 210.951101 
L 168.13436 209.56174 
L 168.165155 209.56174 
L 168.202038 207.246137 
L 168.33661 207.246137 
L 168.433833 205.856776 
L 168.566635 205.856776 
L 168.584667 204.467414 
L 168.72825 204.467414 
L 168.72825 203.541173 
L 168.970836 203.541173 
L 168.970836 203.078053 
L 169.457545 203.078053 
L 169.503198 202.151812 
L 169.662047 202.151812 
L 169.662047 201.225571 
L 169.825059 201.225571 
L 169.858596 199.836209 
L 170.228776 199.836209 
L 170.294256 198.446847 
L 170.483844 198.446847 
L 170.483844 197.983727 
L 170.671394 197.983727 
L 170.740545 197.057486 
L 170.798844 197.057486 
L 170.809423 194.741883 
L 170.993522 194.741883 
L 170.993522 194.278763 
L 171.113451 194.278763 
L 171.217072 191.036919 
L 171.242881 191.036919 
L 171.242881 190.573799 
L 171.442893 190.573799 
L 171.447991 189.184437 
L 171.665827 189.184437 
L 171.696007 187.795075 
L 171.831177 187.795075 
L 171.885947 186.868834 
L 171.955406 186.868834 
L 172.014724 185.016352 
L 172.152351 185.016352 
L 172.249996 183.626991 
L 172.274322 183.626991 
L 172.293758 182.237629 
L 172.592284 182.237629 
L 172.701741 180.848268 
L 172.786927 180.848268 
L 172.815229 179.458906 
L 173.358148 179.458906 
L 173.426547 178.532665 
L 173.688525 178.532665 
L 173.791333 176.680183 
L 173.920102 176.680183 
L 173.995148 174.827701 
L 174.318106 174.827701 
L 174.318106 173.90146 
L 174.447351 173.90146 
L 174.447351 173.438339 
L 174.66913 173.438339 
L 174.770546 171.122737 
L 174.842027 171.122737 
L 174.842027 170.196496 
L 175.273058 170.196496 
L 175.379171 168.807134 
L 175.52504 168.807134 
L 175.621612 166.491532 
L 175.817135 166.491532 
L 175.817135 165.565291 
L 176.158977 165.565291 
L 176.205606 164.175929 
L 176.615961 164.175929 
L 176.615961 163.712808 
L 176.811953 163.712808 
L 176.811953 163.249688 
L 176.927754 163.249688 
L 176.927754 162.786567 
L 177.252352 162.786567 
L 177.303441 161.397206 
L 177.728195 161.397206 
L 177.728195 160.934085 
L 177.912141 160.934085 
L 177.912141 160.007844 
L 178.370547 160.007844 
L 178.370547 159.081603 
L 178.773727 159.081603 
L 178.773727 158.155362 
L 179.259238 158.155362 
L 179.259238 157.692242 
L 179.546749 157.692242 
L 179.546749 157.229121 
L 179.750608 157.229121 
L 179.750608 156.766001 
L 179.917643 156.766001 
L 179.945849 155.83976 
L 180.268521 155.83976 
L 180.268521 155.376639 
L 184.15691 155.376639 
L 184.15691 154.913519 
L 185.657304 154.913519 
L 185.657304 153.987278 
L 187.015826 153.987278 
L 187.015826 153.524157 
L 187.276922 153.524157 
L 187.276922 153.061037 
L 191.768789 153.061037 
L 191.768789 152.134795 
L 193.887369 152.134795 
L 193.887369 151.671675 
L 196.051978 151.671675 
L 196.051978 151.208554 
L 250.332582 151.208554 
L 250.332582 150.745434 
L 338.688 150.745434 
L 338.688 150.745434 
" style="fill:none;stroke:#ff7500;stroke-linecap:square;stroke-width:1.5;"/>
   </g>
   <g id="line2d_46">
    <defs>
     <path d="M 0 -6 
L -1.347084 -1.854102 
L -5.706339 -1.854102 
L -2.179628 0.708204 
L -3.526712 4.854102 
L -0 2.291796 
L 3.526712 4.854102 
L 2.179628 0.708204 
L 5.706339 -1.854102 
L 1.347084 -1.854102 
z
" id="m101442c20a" style="stroke:#ff7500;stroke-linejoin:bevel;stroke-width:1.5;"/>
    </defs>
    <g>
     <use style="fill-opacity:0;stroke:#ff7500;stroke-linejoin:bevel;stroke-width:1.5;" x="165.795979" xlink:href="#m101442c20a" y="235.959609"/>
     <use style="fill-opacity:0;stroke:#ff7500;stroke-linejoin:bevel;stroke-width:1.5;" x="250.332582" xlink:href="#m101442c20a" y="151.208554"/>
     <use style="fill-opacity:0;stroke:#ff7500;stroke-linejoin:bevel;stroke-width:1.5;" x="250.332582" xlink:href="#m101442c20a" y="150.745434"/>
     <use style="fill-opacity:0;stroke:#ff7500;stroke-linejoin:bevel;stroke-width:1.5;" x="338.688" xlink:href="#m101442c20a" y="150.745434"/>
    </g>
   </g>
   <g id="line2d_47">
    <path style="fill:none;stroke:#ff7500;stroke-linecap:square;stroke-width:1.5;"/>
    <g/>
   </g>
   <g id="line2d_48">
    <path clip-path="url(#pa8cde6d337)" d="M 258.377178 150.745434 
" style="fill:none;stroke:#ff7500;stroke-linecap:square;stroke-width:1.5;"/>
    <defs>
     <path d="M -12 12 
L 12 -12 
M -12 -12 
L 12 12 
" id="m5ce3be234e" style="stroke:#ff7500;"/>
    </defs>
    <g clip-path="url(#pa8cde6d337)">
     <use style="fill:#ff7500;stroke:#ff7500;" x="258.377178" xlink:href="#m5ce3be234e" y="150.745434"/>
    </g>
   </g>
   <g id="line2d_49">
    <path d="M 338.688 150.745434 
L 369.60768 293.571802 
" style="fill:none;stroke:#ff7500;stroke-linecap:square;stroke-width:1.5;"/>
    <g>
     <use style="fill-opacity:0;stroke:#ff7500;stroke-linejoin:bevel;stroke-width:1.5;" x="338.688" xlink:href="#m101442c20a" y="150.745434"/>
     <use style="fill-opacity:0;stroke:#ff7500;stroke-linejoin:bevel;stroke-width:1.5;" x="369.60768" xlink:href="#m101442c20a" y="293.571802"/>
    </g>
   </g>
   <g id="line2d_50">
    <path d="M 338.688 132.220613 
L 369.60768 207.616634 
" style="fill:none;stroke:#ff00ff;stroke-linecap:square;stroke-width:1.5;"/>
    <g>
     <use style="fill-opacity:0;stroke:#ff00ff;stroke-linejoin:miter;stroke-width:1.5;" x="338.688" xlink:href="#m1db307e18f" y="132.220613"/>
     <use style="fill-opacity:0;stroke:#ff00ff;stroke-linejoin:miter;stroke-width:1.5;" x="369.60768" xlink:href="#m1db307e18f" y="207.616634"/>
    </g>
   </g>
   <g id="line2d_51">
    <path d="M 338.688 116.474516 
L 369.60768 121.661465 
" style="fill:none;stroke:#000080;stroke-linecap:square;stroke-width:1.5;"/>
    <g>
     <use style="fill-opacity:0;stroke:#000080;stroke-width:1.5;" x="338.688" xlink:href="#m7e18637661" y="116.474516"/>
     <use style="fill-opacity:0;stroke:#000080;stroke-width:1.5;" x="369.60768" xlink:href="#m7e18637661" y="121.661465"/>
    </g>
   </g>
   <g id="line2d_52">
    <path d="M 338.688 298.944 
L 338.688 30.334099 
" style="fill:none;stroke:#000000;stroke-linecap:square;stroke-width:1.5;"/>
   </g>
   <g id="patch_3">
    <path d="M 57.6 298.944 
L 57.6 27.648 
" style="fill:none;stroke:#000000;stroke-linecap:square;stroke-linejoin:miter;stroke-width:0.8;"/>
   </g>
   <g id="patch_4">
    <path d="M 338.688 298.944 
L 338.688 27.648 
" style="fill:none;stroke:#000000;stroke-linecap:square;stroke-linejoin:miter;stroke-width:0.8;"/>
   </g>
   <g id="patch_5">
    <path d="M 57.6 298.944 
L 338.688 298.944 
" style="fill:none;stroke:#000000;stroke-linecap:square;stroke-linejoin:miter;stroke-width:0.8;"/>
   </g>
   <g id="patch_6">
    <path d="M 57.6 27.648 
L 338.688 27.648 
" style="fill:none;stroke:#000000;stroke-linecap:square;stroke-linejoin:miter;stroke-width:0.8;"/>
   </g>
   <g id="text_13">
    <!-- SMS-EMOA- -->
    <g transform="translate(375.22944 298.262739)scale(0.17 -0.17)">
     <defs>
      <path d="M 53.515625 70.515625 
L 53.515625 60.890625 
Q 47.90625 63.578125 42.921875 64.890625 
Q 37.9375 66.21875 33.296875 66.21875 
Q 25.25 66.21875 20.875 63.09375 
Q 16.5 59.96875 16.5 54.203125 
Q 16.5 49.359375 19.40625 46.890625 
Q 22.3125 44.4375 30.421875 42.921875 
L 36.375 41.703125 
Q 47.40625 39.59375 52.65625 34.296875 
Q 57.90625 29 57.90625 20.125 
Q 57.90625 9.515625 50.796875 4.046875 
Q 43.703125 -1.421875 29.984375 -1.421875 
Q 24.8125 -1.421875 18.96875 -0.25 
Q 13.140625 0.921875 6.890625 3.21875 
L 6.890625 13.375 
Q 12.890625 10.015625 18.65625 8.296875 
Q 24.421875 6.59375 29.984375 6.59375 
Q 38.421875 6.59375 43.015625 9.90625 
Q 47.609375 13.234375 47.609375 19.390625 
Q 47.609375 24.75 44.3125 27.78125 
Q 41.015625 30.8125 33.5 32.328125 
L 27.484375 33.5 
Q 16.453125 35.6875 11.515625 40.375 
Q 6.59375 45.0625 6.59375 53.421875 
Q 6.59375 63.09375 13.40625 68.65625 
Q 20.21875 74.21875 32.171875 74.21875 
Q 37.3125 74.21875 42.625 73.28125 
Q 47.953125 72.359375 53.515625 70.515625 
z
" id="DejaVuSans-83"/>
      <path d="M 9.8125 72.90625 
L 24.515625 72.90625 
L 43.109375 23.296875 
L 61.8125 72.90625 
L 76.515625 72.90625 
L 76.515625 0 
L 66.890625 0 
L 66.890625 64.015625 
L 48.09375 14.015625 
L 38.1875 14.015625 
L 19.390625 64.015625 
L 19.390625 0 
L 9.8125 0 
z
" id="DejaVuSans-77"/>
      <path d="M 9.8125 72.90625 
L 55.90625 72.90625 
L 55.90625 64.59375 
L 19.671875 64.59375 
L 19.671875 43.015625 
L 54.390625 43.015625 
L 54.390625 34.71875 
L 19.671875 34.71875 
L 19.671875 8.296875 
L 56.78125 8.296875 
L 56.78125 0 
L 9.8125 0 
z
" id="DejaVuSans-69"/>
      <path d="M 39.40625 66.21875 
Q 28.65625 66.21875 22.328125 58.203125 
Q 16.015625 50.203125 16.015625 36.375 
Q 16.015625 22.609375 22.328125 14.59375 
Q 28.65625 6.59375 39.40625 6.59375 
Q 50.140625 6.59375 56.421875 14.59375 
Q 62.703125 22.609375 62.703125 36.375 
Q 62.703125 50.203125 56.421875 58.203125 
Q 50.140625 66.21875 39.40625 66.21875 
z
M 39.40625 74.21875 
Q 54.734375 74.21875 63.90625 63.9375 
Q 73.09375 53.65625 73.09375 36.375 
Q 73.09375 19.140625 63.90625 8.859375 
Q 54.734375 -1.421875 39.40625 -1.421875 
Q 24.03125 -1.421875 14.8125 8.828125 
Q 5.609375 19.09375 5.609375 36.375 
Q 5.609375 53.65625 14.8125 63.9375 
Q 24.03125 74.21875 39.40625 74.21875 
z
" id="DejaVuSans-79"/>
      <path d="M 34.1875 63.1875 
L 20.796875 26.90625 
L 47.609375 26.90625 
z
M 28.609375 72.90625 
L 39.796875 72.90625 
L 67.578125 0 
L 57.328125 0 
L 50.6875 18.703125 
L 17.828125 18.703125 
L 11.1875 0 
L 0.78125 0 
z
" id="DejaVuSans-65"/>
     </defs>
     <use xlink:href="#DejaVuSans-83"/>
     <use x="63.476562" xlink:href="#DejaVuSans-77"/>
     <use x="149.755859" xlink:href="#DejaVuSans-83"/>
     <use x="213.232422" xlink:href="#DejaVuSans-45"/>
     <use x="249.316406" xlink:href="#DejaVuSans-69"/>
     <use x="312.5" xlink:href="#DejaVuSans-77"/>
     <use x="398.779297" xlink:href="#DejaVuSans-79"/>
     <use x="475.740234" xlink:href="#DejaVuSans-65"/>
     <use x="541.898438" xlink:href="#DejaVuSans-45"/>
    </g>
   </g>
   <g id="text_14">
    <!-- NSGA-II-M -->
    <g transform="translate(375.22944 212.307571)scale(0.17 -0.17)">
     <defs>
      <path d="M 9.8125 72.90625 
L 23.09375 72.90625 
L 55.421875 11.921875 
L 55.421875 72.90625 
L 64.984375 72.90625 
L 64.984375 0 
L 51.703125 0 
L 19.390625 60.984375 
L 19.390625 0 
L 9.8125 0 
z
" id="DejaVuSans-78"/>
      <path d="M 59.515625 10.40625 
L 59.515625 29.984375 
L 43.40625 29.984375 
L 43.40625 38.09375 
L 69.28125 38.09375 
L 69.28125 6.78125 
Q 63.578125 2.734375 56.6875 0.65625 
Q 49.8125 -1.421875 42 -1.421875 
Q 24.90625 -1.421875 15.25 8.5625 
Q 5.609375 18.5625 5.609375 36.375 
Q 5.609375 54.25 15.25 64.234375 
Q 24.90625 74.21875 42 74.21875 
Q 49.125 74.21875 55.546875 72.453125 
Q 61.96875 70.703125 67.390625 67.28125 
L 67.390625 56.78125 
Q 61.921875 61.421875 55.765625 63.765625 
Q 49.609375 66.109375 42.828125 66.109375 
Q 29.4375 66.109375 22.71875 58.640625 
Q 16.015625 51.171875 16.015625 36.375 
Q 16.015625 21.625 22.71875 14.15625 
Q 29.4375 6.6875 42.828125 6.6875 
Q 48.046875 6.6875 52.140625 7.59375 
Q 56.25 8.5 59.515625 10.40625 
z
" id="DejaVuSans-71"/>
      <path d="M 9.8125 72.90625 
L 19.671875 72.90625 
L 19.671875 0 
L 9.8125 0 
z
" id="DejaVuSans-73"/>
     </defs>
     <use xlink:href="#DejaVuSans-78"/>
     <use x="74.804688" xlink:href="#DejaVuSans-83"/>
     <use x="138.28125" xlink:href="#DejaVuSans-71"/>
     <use x="215.771484" xlink:href="#DejaVuSans-65"/>
     <use x="281.929688" xlink:href="#DejaVuSans-45"/>
     <use x="318.013672" xlink:href="#DejaVuSans-73"/>
     <use x="347.505859" xlink:href="#DejaVuSans-73"/>
     <use x="376.998047" xlink:href="#DejaVuSans-45"/>
     <use x="413.082031" xlink:href="#DejaVuSans-77"/>
    </g>
   </g>
   <g id="text_15">
    <!-- COMO-100  -->
    <g transform="translate(375.22944 126.352403)scale(0.17 -0.17)">
     <defs>
      <path d="M 64.40625 67.28125 
L 64.40625 56.890625 
Q 59.421875 61.53125 53.78125 63.8125 
Q 48.140625 66.109375 41.796875 66.109375 
Q 29.296875 66.109375 22.65625 58.46875 
Q 16.015625 50.828125 16.015625 36.375 
Q 16.015625 21.96875 22.65625 14.328125 
Q 29.296875 6.6875 41.796875 6.6875 
Q 48.140625 6.6875 53.78125 8.984375 
Q 59.421875 11.28125 64.40625 15.921875 
L 64.40625 5.609375 
Q 59.234375 2.09375 53.4375 0.328125 
Q 47.65625 -1.421875 41.21875 -1.421875 
Q 24.65625 -1.421875 15.125 8.703125 
Q 5.609375 18.84375 5.609375 36.375 
Q 5.609375 53.953125 15.125 64.078125 
Q 24.65625 74.21875 41.21875 74.21875 
Q 47.75 74.21875 53.53125 72.484375 
Q 59.328125 70.75 64.40625 67.28125 
z
" id="DejaVuSans-67"/>
     </defs>
     <use xlink:href="#DejaVuSans-67"/>
     <use x="69.824219" xlink:href="#DejaVuSans-79"/>
     <use x="148.535156" xlink:href="#DejaVuSans-77"/>
     <use x="234.814453" xlink:href="#DejaVuSans-79"/>
     <use x="316.275391" xlink:href="#DejaVuSans-45"/>
     <use x="352.359375" xlink:href="#DejaVuSans-49"/>
     <use x="415.982422" xlink:href="#DejaVuSans-48"/>
     <use x="479.605469" xlink:href="#DejaVuSans-48"/>
     <use x="543.228516" xlink:href="#DejaVuSans-32"/>
    </g>
   </g>
   <g id="text_16">
    <!-- best 2016 -->
    <g transform="translate(375.22944 40.397235)scale(0.17 -0.17)">
     <defs>
      <path d="M 48.6875 27.296875 
Q 48.6875 37.203125 44.609375 42.84375 
Q 40.53125 48.484375 33.40625 48.484375 
Q 26.265625 48.484375 22.1875 42.84375 
Q 18.109375 37.203125 18.109375 27.296875 
Q 18.109375 17.390625 22.1875 11.75 
Q 26.265625 6.109375 33.40625 6.109375 
Q 40.53125 6.109375 44.609375 11.75 
Q 48.6875 17.390625 48.6875 27.296875 
z
M 18.109375 46.390625 
Q 20.953125 51.265625 25.265625 53.625 
Q 29.59375 56 35.59375 56 
Q 45.5625 56 51.78125 48.09375 
Q 58.015625 40.1875 58.015625 27.296875 
Q 58.015625 14.40625 51.78125 6.484375 
Q 45.5625 -1.421875 35.59375 -1.421875 
Q 29.59375 -1.421875 25.265625 0.953125 
Q 20.953125 3.328125 18.109375 8.203125 
L 18.109375 0 
L 9.078125 0 
L 9.078125 75.984375 
L 18.109375 75.984375 
z
" id="DejaVuSans-98"/>
     </defs>
     <use xlink:href="#DejaVuSans-98"/>
     <use x="63.476562" xlink:href="#DejaVuSans-101"/>
     <use x="125" xlink:href="#DejaVuSans-115"/>
     <use x="177.099609" xlink:href="#DejaVuSans-116"/>
     <use x="216.308594" xlink:href="#DejaVuSans-32"/>
     <use x="248.095703" xlink:href="#DejaVuSans-50"/>
     <use x="311.71875" xlink:href="#DejaVuSans-48"/>
     <use x="375.341797" xlink:href="#DejaVuSans-49"/>
     <use x="438.964844" xlink:href="#DejaVuSans-54"/>
    </g>
   </g>
   <g id="text_17">
    <!-- bbob-biobj f26, 5-D -->
    <g transform="translate(60.41088 38.111366)scale(0.102 -0.102)">
     <defs>
      <path d="M 9.421875 54.6875 
L 18.40625 54.6875 
L 18.40625 -0.984375 
Q 18.40625 -11.421875 14.421875 -16.109375 
Q 10.453125 -20.796875 1.609375 -20.796875 
L -1.8125 -20.796875 
L -1.8125 -13.1875 
L 0.59375 -13.1875 
Q 5.71875 -13.1875 7.5625 -10.8125 
Q 9.421875 -8.453125 9.421875 -0.984375 
z
M 9.421875 75.984375 
L 18.40625 75.984375 
L 18.40625 64.59375 
L 9.421875 64.59375 
z
" id="DejaVuSans-106"/>
      <path d="M 10.796875 72.90625 
L 49.515625 72.90625 
L 49.515625 64.59375 
L 19.828125 64.59375 
L 19.828125 46.734375 
Q 21.96875 47.46875 24.109375 47.828125 
Q 26.265625 48.1875 28.421875 48.1875 
Q 40.625 48.1875 47.75 41.5 
Q 54.890625 34.8125 54.890625 23.390625 
Q 54.890625 11.625 47.5625 5.09375 
Q 40.234375 -1.421875 26.90625 -1.421875 
Q 22.3125 -1.421875 17.546875 -0.640625 
Q 12.796875 0.140625 7.71875 1.703125 
L 7.71875 11.625 
Q 12.109375 9.234375 16.796875 8.0625 
Q 21.484375 6.890625 26.703125 6.890625 
Q 35.15625 6.890625 40.078125 11.328125 
Q 45.015625 15.765625 45.015625 23.390625 
Q 45.015625 31 40.078125 35.4375 
Q 35.15625 39.890625 26.703125 39.890625 
Q 22.75 39.890625 18.8125 39.015625 
Q 14.890625 38.140625 10.796875 36.28125 
z
" id="DejaVuSans-53"/>
      <path d="M 19.671875 64.796875 
L 19.671875 8.109375 
L 31.59375 8.109375 
Q 46.6875 8.109375 53.6875 14.9375 
Q 60.6875 21.78125 60.6875 36.53125 
Q 60.6875 51.171875 53.6875 57.984375 
Q 46.6875 64.796875 31.59375 64.796875 
z
M 9.8125 72.90625 
L 30.078125 72.90625 
Q 51.265625 72.90625 61.171875 64.09375 
Q 71.09375 55.28125 71.09375 36.53125 
Q 71.09375 17.671875 61.125 8.828125 
Q 51.171875 0 30.078125 0 
L 9.8125 0 
z
" id="DejaVuSans-68"/>
     </defs>
     <use xlink:href="#DejaVuSans-98"/>
     <use x="63.476562" xlink:href="#DejaVuSans-98"/>
     <use x="126.953125" xlink:href="#DejaVuSans-111"/>
     <use x="188.134766" xlink:href="#DejaVuSans-98"/>
     <use x="251.611328" xlink:href="#DejaVuSans-45"/>
     <use x="287.695312" xlink:href="#DejaVuSans-98"/>
     <use x="351.171875" xlink:href="#DejaVuSans-105"/>
     <use x="378.955078" xlink:href="#DejaVuSans-111"/>
     <use x="440.136719" xlink:href="#DejaVuSans-98"/>
     <use x="503.613281" xlink:href="#DejaVuSans-106"/>
     <use x="531.396484" xlink:href="#DejaVuSans-32"/>
     <use x="563.183594" xlink:href="#DejaVuSans-102"/>
     <use x="598.388672" xlink:href="#DejaVuSans-50"/>
     <use x="662.011719" xlink:href="#DejaVuSans-54"/>
     <use x="725.634766" xlink:href="#DejaVuSans-44"/>
     <use x="757.421875" xlink:href="#DejaVuSans-32"/>
     <use x="789.208984" xlink:href="#DejaVuSans-53"/>
     <use x="852.832031" xlink:href="#DejaVuSans-45"/>
     <use x="888.916016" xlink:href="#DejaVuSans-68"/>
    </g>
    <!-- 58 targets: 1..-1.0e-4 -->
    <g transform="translate(60.41088 49.533135)scale(0.102 -0.102)">
     <defs>
      <path d="M 11.71875 12.40625 
L 22.015625 12.40625 
L 22.015625 0 
L 11.71875 0 
z
M 11.71875 51.703125 
L 22.015625 51.703125 
L 22.015625 39.3125 
L 11.71875 39.3125 
z
" id="DejaVuSans-58"/>
     </defs>
     <use xlink:href="#DejaVuSans-53"/>
     <use x="63.623047" xlink:href="#DejaVuSans-56"/>
     <use x="127.246094" xlink:href="#DejaVuSans-32"/>
     <use x="159.033203" xlink:href="#DejaVuSans-116"/>
     <use x="198.242188" xlink:href="#DejaVuSans-97"/>
     <use x="259.521484" xlink:href="#DejaVuSans-114"/>
     <use x="298.884766" xlink:href="#DejaVuSans-103"/>
     <use x="362.361328" xlink:href="#DejaVuSans-101"/>
     <use x="423.884766" xlink:href="#DejaVuSans-116"/>
     <use x="463.09375" xlink:href="#DejaVuSans-115"/>
     <use x="515.193359" xlink:href="#DejaVuSans-58"/>
     <use x="548.884766" xlink:href="#DejaVuSans-32"/>
     <use x="580.671875" xlink:href="#DejaVuSans-49"/>
     <use x="644.294922" xlink:href="#DejaVuSans-46"/>
     <use x="676.082031" xlink:href="#DejaVuSans-46"/>
     <use x="707.869141" xlink:href="#DejaVuSans-45"/>
     <use x="743.953125" xlink:href="#DejaVuSans-49"/>
     <use x="807.576172" xlink:href="#DejaVuSans-46"/>
     <use x="839.363281" xlink:href="#DejaVuSans-48"/>
     <use x="902.986328" xlink:href="#DejaVuSans-101"/>
     <use x="964.509766" xlink:href="#DejaVuSans-45"/>
     <use x="1000.59375" xlink:href="#DejaVuSans-52"/>
    </g>
    <!-- 10 instances -->
    <g transform="translate(60.41088 60.954904)scale(0.102 -0.102)">
     <use xlink:href="#DejaVuSans-49"/>
     <use x="63.623047" xlink:href="#DejaVuSans-48"/>
     <use x="127.246094" xlink:href="#DejaVuSans-32"/>
     <use x="159.033203" xlink:href="#DejaVuSans-105"/>
     <use x="186.816406" xlink:href="#DejaVuSans-110"/>
     <use x="250.195312" xlink:href="#DejaVuSans-115"/>
     <use x="302.294922" xlink:href="#DejaVuSans-116"/>
     <use x="341.503906" xlink:href="#DejaVuSans-97"/>
     <use x="402.783203" xlink:href="#DejaVuSans-110"/>
     <use x="466.162109" xlink:href="#DejaVuSans-99"/>
     <use x="521.142578" xlink:href="#DejaVuSans-101"/>
     <use x="582.666016" xlink:href="#DejaVuSans-115"/>
    </g>
   </g>
   <g id="text_18">
    <!-- v2.4.19, hv-hash=ff0e71e8cd978373 -->
    <g style="fill:#808080;" transform="translate(104.697125 294.151352)scale(0.1 -0.1)">
     <defs>
      <path d="M 10.984375 1.515625 
L 10.984375 10.5 
Q 14.703125 8.734375 18.5 7.8125 
Q 22.3125 6.890625 25.984375 6.890625 
Q 35.75 6.890625 40.890625 13.453125 
Q 46.046875 20.015625 46.78125 33.40625 
Q 43.953125 29.203125 39.59375 26.953125 
Q 35.25 24.703125 29.984375 24.703125 
Q 19.046875 24.703125 12.671875 31.3125 
Q 6.296875 37.9375 6.296875 49.421875 
Q 6.296875 60.640625 12.9375 67.421875 
Q 19.578125 74.21875 30.609375 74.21875 
Q 43.265625 74.21875 49.921875 64.515625 
Q 56.59375 54.828125 56.59375 36.375 
Q 56.59375 19.140625 48.40625 8.859375 
Q 40.234375 -1.421875 26.421875 -1.421875 
Q 22.703125 -1.421875 18.890625 -0.6875 
Q 15.09375 0.046875 10.984375 1.515625 
z
M 30.609375 32.421875 
Q 37.25 32.421875 41.125 36.953125 
Q 45.015625 41.5 45.015625 49.421875 
Q 45.015625 57.28125 41.125 61.84375 
Q 37.25 66.40625 30.609375 66.40625 
Q 23.96875 66.40625 20.09375 61.84375 
Q 16.21875 57.28125 16.21875 49.421875 
Q 16.21875 41.5 20.09375 36.953125 
Q 23.96875 32.421875 30.609375 32.421875 
z
" id="DejaVuSans-57"/>
      <path d="M 54.890625 33.015625 
L 54.890625 0 
L 45.90625 0 
L 45.90625 32.71875 
Q 45.90625 40.484375 42.875 44.328125 
Q 39.84375 48.1875 33.796875 48.1875 
Q 26.515625 48.1875 22.3125 43.546875 
Q 18.109375 38.921875 18.109375 30.90625 
L 18.109375 0 
L 9.078125 0 
L 9.078125 75.984375 
L 18.109375 75.984375 
L 18.109375 46.1875 
Q 21.34375 51.125 25.703125 53.5625 
Q 30.078125 56 35.796875 56 
Q 45.21875 56 50.046875 50.171875 
Q 54.890625 44.34375 54.890625 33.015625 
z
" id="DejaVuSans-104"/>
      <path d="M 10.59375 45.40625 
L 73.1875 45.40625 
L 73.1875 37.203125 
L 10.59375 37.203125 
z
M 10.59375 25.484375 
L 73.1875 25.484375 
L 73.1875 17.1875 
L 10.59375 17.1875 
z
" id="DejaVuSans-61"/>
      <path d="M 8.203125 72.90625 
L 55.078125 72.90625 
L 55.078125 68.703125 
L 28.609375 0 
L 18.3125 0 
L 43.21875 64.59375 
L 8.203125 64.59375 
z
" id="DejaVuSans-55"/>
      <path d="M 40.578125 39.3125 
Q 47.65625 37.796875 51.625 33 
Q 55.609375 28.21875 55.609375 21.1875 
Q 55.609375 10.40625 48.1875 4.484375 
Q 40.765625 -1.421875 27.09375 -1.421875 
Q 22.515625 -1.421875 17.65625 -0.515625 
Q 12.796875 0.390625 7.625 2.203125 
L 7.625 11.71875 
Q 11.71875 9.328125 16.59375 8.109375 
Q 21.484375 6.890625 26.8125 6.890625 
Q 36.078125 6.890625 40.9375 10.546875 
Q 45.796875 14.203125 45.796875 21.1875 
Q 45.796875 27.640625 41.28125 31.265625 
Q 36.765625 34.90625 28.71875 34.90625 
L 20.21875 34.90625 
L 20.21875 43.015625 
L 29.109375 43.015625 
Q 36.375 43.015625 40.234375 45.921875 
Q 44.09375 48.828125 44.09375 54.296875 
Q 44.09375 59.90625 40.109375 62.90625 
Q 36.140625 65.921875 28.71875 65.921875 
Q 24.65625 65.921875 20.015625 65.03125 
Q 15.375 64.15625 9.8125 62.3125 
L 9.8125 71.09375 
Q 15.4375 72.65625 20.34375 73.4375 
Q 25.25 74.21875 29.59375 74.21875 
Q 40.828125 74.21875 47.359375 69.109375 
Q 53.90625 64.015625 53.90625 55.328125 
Q 53.90625 49.265625 50.4375 45.09375 
Q 46.96875 40.921875 40.578125 39.3125 
z
" id="DejaVuSans-51"/>
     </defs>
     <use xlink:href="#DejaVuSans-118"/>
     <use x="59.179688" xlink:href="#DejaVuSans-50"/>
     <use x="122.802734" xlink:href="#DejaVuSans-46"/>
     <use x="154.589844" xlink:href="#DejaVuSans-52"/>
     <use x="218.212891" xlink:href="#DejaVuSans-46"/>
     <use x="250" xlink:href="#DejaVuSans-49"/>
     <use x="313.623047" xlink:href="#DejaVuSans-57"/>
     <use x="377.246094" xlink:href="#DejaVuSans-44"/>
     <use x="409.033203" xlink:href="#DejaVuSans-32"/>
     <use x="440.820312" xlink:href="#DejaVuSans-104"/>
     <use x="504.199219" xlink:href="#DejaVuSans-118"/>
     <use x="560.753906" xlink:href="#DejaVuSans-45"/>
     <use x="596.837891" xlink:href="#DejaVuSans-104"/>
     <use x="660.216797" xlink:href="#DejaVuSans-97"/>
     <use x="721.496094" xlink:href="#DejaVuSans-115"/>
     <use x="773.595703" xlink:href="#DejaVuSans-104"/>
     <use x="836.974609" xlink:href="#DejaVuSans-61"/>
     <use x="920.763672" xlink:href="#DejaVuSans-102"/>
     <use x="955.96875" xlink:href="#DejaVuSans-102"/>
     <use x="991.173828" xlink:href="#DejaVuSans-48"/>
     <use x="1054.796875" xlink:href="#DejaVuSans-101"/>
     <use x="1116.320312" xlink:href="#DejaVuSans-55"/>
     <use x="1179.943359" xlink:href="#DejaVuSans-49"/>
     <use x="1243.566406" xlink:href="#DejaVuSans-101"/>
     <use x="1305.089844" xlink:href="#DejaVuSans-56"/>
     <use x="1368.712891" xlink:href="#DejaVuSans-99"/>
     <use x="1423.693359" xlink:href="#DejaVuSans-100"/>
     <use x="1487.169922" xlink:href="#DejaVuSans-57"/>
     <use x="1550.792969" xlink:href="#DejaVuSans-55"/>
     <use x="1614.416016" xlink:href="#DejaVuSans-56"/>
     <use x="1678.039062" xlink:href="#DejaVuSans-51"/>
     <use x="1741.662109" xlink:href="#DejaVuSans-55"/>
     <use x="1805.285156" xlink:href="#DejaVuSans-51"/>
    </g>
   </g>
   <g id="text_19">
    <!-- 26 Attr. sector/Schwefel -->
    <g transform="translate(78.833062 21.648)scale(0.2 -0.2)">
     <defs>
      <path d="M 4.203125 54.6875 
L 13.1875 54.6875 
L 24.421875 12.015625 
L 35.59375 54.6875 
L 46.1875 54.6875 
L 57.421875 12.015625 
L 68.609375 54.6875 
L 77.59375 54.6875 
L 63.28125 0 
L 52.6875 0 
L 40.921875 44.828125 
L 29.109375 0 
L 18.5 0 
z
" id="DejaVuSans-119"/>
     </defs>
     <use xlink:href="#DejaVuSans-50"/>
     <use x="63.623047" xlink:href="#DejaVuSans-54"/>
     <use x="127.246094" xlink:href="#DejaVuSans-32"/>
     <use x="159.033203" xlink:href="#DejaVuSans-65"/>
     <use x="225.691406" xlink:href="#DejaVuSans-116"/>
     <use x="264.900391" xlink:href="#DejaVuSans-116"/>
     <use x="304.109375" xlink:href="#DejaVuSans-114"/>
     <use x="336.097656" xlink:href="#DejaVuSans-46"/>
     <use x="367.884766" xlink:href="#DejaVuSans-32"/>
     <use x="399.671875" xlink:href="#DejaVuSans-115"/>
     <use x="451.771484" xlink:href="#DejaVuSans-101"/>
     <use x="513.294922" xlink:href="#DejaVuSans-99"/>
     <use x="568.275391" xlink:href="#DejaVuSans-116"/>
     <use x="607.484375" xlink:href="#DejaVuSans-111"/>
     <use x="668.666016" xlink:href="#DejaVuSans-114"/>
     <use x="709.779297" xlink:href="#DejaVuSans-47"/>
     <use x="743.470703" xlink:href="#DejaVuSans-83"/>
     <use x="806.947266" xlink:href="#DejaVuSans-99"/>
     <use x="861.927734" xlink:href="#DejaVuSans-104"/>
     <use x="925.306641" xlink:href="#DejaVuSans-119"/>
     <use x="1007.09375" xlink:href="#DejaVuSans-101"/>
     <use x="1068.617188" xlink:href="#DejaVuSans-102"/>
     <use x="1103.822266" xlink:href="#DejaVuSans-101"/>
     <use x="1165.345703" xlink:href="#DejaVuSans-108"/>
    </g>
   </g>
  </g>
 </g>
 <defs>
  <clipPath id="pa8cde6d337">
   <rect height="271.296" width="281.088" x="57.6" y="27.648"/>
  </clipPath>
 </defs>
</svg>
