<?xml version="1.0" encoding="utf-8" standalone="no"?>
<!DOCTYPE svg PUBLIC "-//W3C//DTD SVG 1.1//EN"
  "http://www.w3.org/Graphics/SVG/1.1/DTD/svg11.dtd">
<!-- Created with matplotlib (https://matplotlib.org/) -->
<svg height="345.6pt" version="1.1" viewBox="0 0 460.8 345.6" width="460.8pt" xmlns="http://www.w3.org/2000/svg" xmlns:xlink="http://www.w3.org/1999/xlink">
 <metadata>
  <rdf:RDF xmlns:cc="http://creativecommons.org/ns#" xmlns:dc="http://purl.org/dc/elements/1.1/" xmlns:rdf="http://www.w3.org/1999/02/22-rdf-syntax-ns#">
   <cc:Work>
    <dc:type rdf:resource="http://purl.org/dc/dcmitype/StillImage"/>
    <dc:date>2021-04-26T15:04:31.809493</dc:date>
    <dc:format>image/svg+xml</dc:format>
    <dc:creator>
     <cc:Agent>
      <dc:title>Matplotlib v3.3.2, https://matplotlib.org/</dc:title>
     </cc:Agent>
    </dc:creator>
   </cc:Work>
  </rdf:RDF>
 </metadata>
 <defs>
  <style type="text/css">*{stroke-linecap:butt;stroke-linejoin:round;}</style>
 </defs>
 <g id="figure_1">
  <g id="patch_1">
   <path d="M 0 345.6 
L 460.8 345.6 
L 460.8 0 
L 0 0 
z
" style="fill:#ffffff;"/>
  </g>
  <g id="axes_1">
   <g id="patch_2">
    <path d="M 57.6 298.944 
L 338.688 298.944 
L 338.688 27.648 
L 57.6 27.648 
z
" style="fill:#ffffff;"/>
   </g>
   <g id="line2d_1">
    <path d="M 69.687988 298.944 
L 69.687988 285.050384 
L 93.863965 285.050384 
L 93.863965 275.787974 
L 100.934985 275.787974 
L 100.934985 271.156769 
L 104.826449 271.156769 
L 104.826449 257.263153 
L 108.483824 257.263153 
L 108.483824 248.000743 
L 113.73488 248.000743 
L 113.73488 243.369538 
L 119.097192 243.369538 
L 119.097192 234.107127 
L 132.659801 234.107127 
L 132.659801 220.213512 
L 141.871938 220.213512 
L 141.871938 210.951101 
L 145.832743 210.951101 
L 145.832743 201.688691 
L 153.502361 201.688691 
L 153.502361 192.426281 
L 154.77436 192.426281 
L 154.77436 187.795075 
L 159.175513 187.795075 
L 159.175513 173.90146 
L 159.906985 173.90146 
L 159.906985 169.270255 
L 161.100288 169.270255 
L 161.100288 155.376639 
L 162.916926 155.376639 
L 162.916926 146.114229 
L 168.18668 146.114229 
L 168.18668 141.483024 
L 170.036379 141.483024 
L 170.036379 127.589408 
L 176.94078 127.589408 
L 176.94078 122.958203 
L 181.22403 122.958203 
L 181.22403 109.064587 
L 188.471193 109.064587 
L 188.471193 99.802177 
L 189.024118 99.802177 
L 189.024118 90.539766 
L 189.943737 90.539766 
L 189.943737 85.908561 
L 203.681025 85.908561 
L 203.681025 76.646151 
L 217.260985 76.646151 
L 217.260985 62.752535 
L 338.688 62.752535 
" style="fill:none;stroke:#f5deb3;stroke-linecap:square;stroke-width:4;"/>
   </g>
   <g id="line2d_2">
    <defs>
     <path d="M 0 7.778175 
L 7.778175 0 
L 0 -7.778175 
L -7.778175 0 
z
" id="mabdf0601fe" style="stroke:#f5deb3;stroke-linejoin:miter;stroke-width:1.5;"/>
    </defs>
    <g>
     <use style="fill:#f5deb3;stroke:#f5deb3;stroke-linejoin:miter;stroke-width:1.5;" x="119.097192" xlink:href="#mabdf0601fe" y="234.107127"/>
     <use style="fill:#f5deb3;stroke:#f5deb3;stroke-linejoin:miter;stroke-width:1.5;" x="170.036379" xlink:href="#mabdf0601fe" y="141.483024"/>
     <use style="fill:#f5deb3;stroke:#f5deb3;stroke-linejoin:miter;stroke-width:1.5;" x="217.260985" xlink:href="#mabdf0601fe" y="76.646151"/>
     <use style="fill:#f5deb3;stroke:#f5deb3;stroke-linejoin:miter;stroke-width:1.5;" x="217.260985" xlink:href="#mabdf0601fe" y="62.752535"/>
     <use style="fill:#f5deb3;stroke:#f5deb3;stroke-linejoin:miter;stroke-width:1.5;" x="338.688" xlink:href="#mabdf0601fe" y="62.752535"/>
    </g>
   </g>
   <g id="line2d_3">
    <path style="fill:none;stroke:#f5deb3;stroke-linecap:square;stroke-width:4;"/>
    <g/>
   </g>
   <g id="line2d_4">
    <path d="M 338.688 62.752535 
L 369.60768 35.706297 
" style="fill:none;stroke:#f5deb3;stroke-linecap:square;stroke-width:4;"/>
    <g>
     <use style="fill:#f5deb3;stroke:#f5deb3;stroke-linejoin:miter;stroke-width:1.5;" x="338.688" xlink:href="#mabdf0601fe" y="62.752535"/>
     <use style="fill:#f5deb3;stroke:#f5deb3;stroke-linejoin:miter;stroke-width:1.5;" x="369.60768" xlink:href="#mabdf0601fe" y="35.706297"/>
    </g>
   </g>
   <g id="matplotlib.axis_1">
    <g id="xtick_1">
     <g id="line2d_5">
      <path clip-path="url(#p0d4fe39f6d)" d="M 57.6 298.944 
L 57.6 27.648 
" style="fill:none;stroke:#b0b0b0;stroke-linecap:square;stroke-width:0.8;"/>
     </g>
     <g id="line2d_6">
      <defs>
       <path d="M 0 0 
L 0 3.5 
" id="m24e27dd479" style="stroke:#000000;stroke-width:0.8;"/>
      </defs>
      <g>
       <use style="stroke:#000000;stroke-width:0.8;" x="57.6" xlink:href="#m24e27dd479" y="298.944"/>
      </g>
     </g>
     <g id="text_1">
      <!-- 0 -->
      <g transform="translate(51.2375 321.140875)scale(0.2 -0.2)">
       <defs>
        <path d="M 31.78125 66.40625 
Q 24.171875 66.40625 20.328125 58.90625 
Q 16.5 51.421875 16.5 36.375 
Q 16.5 21.390625 20.328125 13.890625 
Q 24.171875 6.390625 31.78125 6.390625 
Q 39.453125 6.390625 43.28125 13.890625 
Q 47.125 21.390625 47.125 36.375 
Q 47.125 51.421875 43.28125 58.90625 
Q 39.453125 66.40625 31.78125 66.40625 
z
M 31.78125 74.21875 
Q 44.046875 74.21875 50.515625 64.515625 
Q 56.984375 54.828125 56.984375 36.375 
Q 56.984375 17.96875 50.515625 8.265625 
Q 44.046875 -1.421875 31.78125 -1.421875 
Q 19.53125 -1.421875 13.0625 8.265625 
Q 6.59375 17.96875 6.59375 36.375 
Q 6.59375 54.828125 13.0625 64.515625 
Q 19.53125 74.21875 31.78125 74.21875 
z
" id="DejaVuSans-48"/>
       </defs>
       <use xlink:href="#DejaVuSans-48"/>
      </g>
     </g>
    </g>
    <g id="xtick_2">
     <g id="line2d_7">
      <path clip-path="url(#p0d4fe39f6d)" d="M 137.910857 298.944 
L 137.910857 27.648 
" style="fill:none;stroke:#b0b0b0;stroke-linecap:square;stroke-width:0.8;"/>
     </g>
     <g id="line2d_8">
      <g>
       <use style="stroke:#000000;stroke-width:0.8;" x="137.910857" xlink:href="#m24e27dd479" y="298.944"/>
      </g>
     </g>
     <g id="text_2">
      <!-- 2 -->
      <g transform="translate(131.548357 321.140875)scale(0.2 -0.2)">
       <defs>
        <path d="M 19.1875 8.296875 
L 53.609375 8.296875 
L 53.609375 0 
L 7.328125 0 
L 7.328125 8.296875 
Q 12.9375 14.109375 22.625 23.890625 
Q 32.328125 33.6875 34.8125 36.53125 
Q 39.546875 41.84375 41.421875 45.53125 
Q 43.3125 49.21875 43.3125 52.78125 
Q 43.3125 58.59375 39.234375 62.25 
Q 35.15625 65.921875 28.609375 65.921875 
Q 23.96875 65.921875 18.8125 64.3125 
Q 13.671875 62.703125 7.8125 59.421875 
L 7.8125 69.390625 
Q 13.765625 71.78125 18.9375 73 
Q 24.125 74.21875 28.421875 74.21875 
Q 39.75 74.21875 46.484375 68.546875 
Q 53.21875 62.890625 53.21875 53.421875 
Q 53.21875 48.921875 51.53125 44.890625 
Q 49.859375 40.875 45.40625 35.40625 
Q 44.1875 33.984375 37.640625 27.21875 
Q 31.109375 20.453125 19.1875 8.296875 
z
" id="DejaVuSans-50"/>
       </defs>
       <use xlink:href="#DejaVuSans-50"/>
      </g>
     </g>
    </g>
    <g id="xtick_3">
     <g id="line2d_9">
      <path clip-path="url(#p0d4fe39f6d)" d="M 218.221714 298.944 
L 218.221714 27.648 
" style="fill:none;stroke:#b0b0b0;stroke-linecap:square;stroke-width:0.8;"/>
     </g>
     <g id="line2d_10">
      <g>
       <use style="stroke:#000000;stroke-width:0.8;" x="218.221714" xlink:href="#m24e27dd479" y="298.944"/>
      </g>
     </g>
     <g id="text_3">
      <!-- 4 -->
      <g transform="translate(211.859214 321.140875)scale(0.2 -0.2)">
       <defs>
        <path d="M 37.796875 64.3125 
L 12.890625 25.390625 
L 37.796875 25.390625 
z
M 35.203125 72.90625 
L 47.609375 72.90625 
L 47.609375 25.390625 
L 58.015625 25.390625 
L 58.015625 17.1875 
L 47.609375 17.1875 
L 47.609375 0 
L 37.796875 0 
L 37.796875 17.1875 
L 4.890625 17.1875 
L 4.890625 26.703125 
z
" id="DejaVuSans-52"/>
       </defs>
       <use xlink:href="#DejaVuSans-52"/>
      </g>
     </g>
    </g>
    <g id="xtick_4">
     <g id="line2d_11">
      <path clip-path="url(#p0d4fe39f6d)" d="M 298.532571 298.944 
L 298.532571 27.648 
" style="fill:none;stroke:#b0b0b0;stroke-linecap:square;stroke-width:0.8;"/>
     </g>
     <g id="line2d_12">
      <g>
       <use style="stroke:#000000;stroke-width:0.8;" x="298.532571" xlink:href="#m24e27dd479" y="298.944"/>
      </g>
     </g>
     <g id="text_4">
      <!-- 6 -->
      <g transform="translate(292.170071 321.140875)scale(0.2 -0.2)">
       <defs>
        <path d="M 33.015625 40.375 
Q 26.375 40.375 22.484375 35.828125 
Q 18.609375 31.296875 18.609375 23.390625 
Q 18.609375 15.53125 22.484375 10.953125 
Q 26.375 6.390625 33.015625 6.390625 
Q 39.65625 6.390625 43.53125 10.953125 
Q 47.40625 15.53125 47.40625 23.390625 
Q 47.40625 31.296875 43.53125 35.828125 
Q 39.65625 40.375 33.015625 40.375 
z
M 52.59375 71.296875 
L 52.59375 62.3125 
Q 48.875 64.0625 45.09375 64.984375 
Q 41.3125 65.921875 37.59375 65.921875 
Q 27.828125 65.921875 22.671875 59.328125 
Q 17.53125 52.734375 16.796875 39.40625 
Q 19.671875 43.65625 24.015625 45.921875 
Q 28.375 48.1875 33.59375 48.1875 
Q 44.578125 48.1875 50.953125 41.515625 
Q 57.328125 34.859375 57.328125 23.390625 
Q 57.328125 12.15625 50.6875 5.359375 
Q 44.046875 -1.421875 33.015625 -1.421875 
Q 20.359375 -1.421875 13.671875 8.265625 
Q 6.984375 17.96875 6.984375 36.375 
Q 6.984375 53.65625 15.1875 63.9375 
Q 23.390625 74.21875 37.203125 74.21875 
Q 40.921875 74.21875 44.703125 73.484375 
Q 48.484375 72.75 52.59375 71.296875 
z
" id="DejaVuSans-54"/>
       </defs>
       <use xlink:href="#DejaVuSans-54"/>
      </g>
     </g>
    </g>
    <g id="xtick_5">
     <g id="line2d_13">
      <path clip-path="url(#p0d4fe39f6d)" d="M 97.755429 298.944 
L 97.755429 27.648 
" style="fill:none;stroke:#b0b0b0;stroke-linecap:square;stroke-width:0.8;"/>
     </g>
     <g id="line2d_14">
      <defs>
       <path d="M 0 0 
L 0 2 
" id="m73e5613e19" style="stroke:#000000;stroke-width:0.6;"/>
      </defs>
      <g>
       <use style="stroke:#000000;stroke-width:0.6;" x="97.755429" xlink:href="#m73e5613e19" y="298.944"/>
      </g>
     </g>
    </g>
    <g id="xtick_6">
     <g id="line2d_15">
      <path clip-path="url(#p0d4fe39f6d)" d="M 178.066286 298.944 
L 178.066286 27.648 
" style="fill:none;stroke:#b0b0b0;stroke-linecap:square;stroke-width:0.8;"/>
     </g>
     <g id="line2d_16">
      <g>
       <use style="stroke:#000000;stroke-width:0.6;" x="178.066286" xlink:href="#m73e5613e19" y="298.944"/>
      </g>
     </g>
    </g>
    <g id="xtick_7">
     <g id="line2d_17">
      <path clip-path="url(#p0d4fe39f6d)" d="M 258.377143 298.944 
L 258.377143 27.648 
" style="fill:none;stroke:#b0b0b0;stroke-linecap:square;stroke-width:0.8;"/>
     </g>
     <g id="line2d_18">
      <g>
       <use style="stroke:#000000;stroke-width:0.6;" x="258.377143" xlink:href="#m73e5613e19" y="298.944"/>
      </g>
     </g>
    </g>
    <g id="xtick_8">
     <g id="line2d_19">
      <path clip-path="url(#p0d4fe39f6d)" d="M 338.688 298.944 
L 338.688 27.648 
" style="fill:none;stroke:#b0b0b0;stroke-linecap:square;stroke-width:0.8;"/>
     </g>
     <g id="line2d_20">
      <g>
       <use style="stroke:#000000;stroke-width:0.6;" x="338.688" xlink:href="#m73e5613e19" y="298.944"/>
      </g>
     </g>
    </g>
    <g id="text_5">
     <!-- log10(# f-evals / dimension) -->
     <g transform="translate(77.764078 342.217594)scale(0.17 -0.17)">
      <defs>
       <path d="M 9.421875 75.984375 
L 18.40625 75.984375 
L 18.40625 0 
L 9.421875 0 
z
" id="DejaVuSans-108"/>
       <path d="M 30.609375 48.390625 
Q 23.390625 48.390625 19.1875 42.75 
Q 14.984375 37.109375 14.984375 27.296875 
Q 14.984375 17.484375 19.15625 11.84375 
Q 23.34375 6.203125 30.609375 6.203125 
Q 37.796875 6.203125 41.984375 11.859375 
Q 46.1875 17.53125 46.1875 27.296875 
Q 46.1875 37.015625 41.984375 42.703125 
Q 37.796875 48.390625 30.609375 48.390625 
z
M 30.609375 56 
Q 42.328125 56 49.015625 48.375 
Q 55.71875 40.765625 55.71875 27.296875 
Q 55.71875 13.875 49.015625 6.21875 
Q 42.328125 -1.421875 30.609375 -1.421875 
Q 18.84375 -1.421875 12.171875 6.21875 
Q 5.515625 13.875 5.515625 27.296875 
Q 5.515625 40.765625 12.171875 48.375 
Q 18.84375 56 30.609375 56 
z
" id="DejaVuSans-111"/>
       <path d="M 45.40625 27.984375 
Q 45.40625 37.75 41.375 43.109375 
Q 37.359375 48.484375 30.078125 48.484375 
Q 22.859375 48.484375 18.828125 43.109375 
Q 14.796875 37.75 14.796875 27.984375 
Q 14.796875 18.265625 18.828125 12.890625 
Q 22.859375 7.515625 30.078125 7.515625 
Q 37.359375 7.515625 41.375 12.890625 
Q 45.40625 18.265625 45.40625 27.984375 
z
M 54.390625 6.78125 
Q 54.390625 -7.171875 48.1875 -13.984375 
Q 42 -20.796875 29.203125 -20.796875 
Q 24.46875 -20.796875 20.265625 -20.09375 
Q 16.0625 -19.390625 12.109375 -17.921875 
L 12.109375 -9.1875 
Q 16.0625 -11.328125 19.921875 -12.34375 
Q 23.78125 -13.375 27.78125 -13.375 
Q 36.625 -13.375 41.015625 -8.765625 
Q 45.40625 -4.15625 45.40625 5.171875 
L 45.40625 9.625 
Q 42.625 4.78125 38.28125 2.390625 
Q 33.9375 0 27.875 0 
Q 17.828125 0 11.671875 7.65625 
Q 5.515625 15.328125 5.515625 27.984375 
Q 5.515625 40.671875 11.671875 48.328125 
Q 17.828125 56 27.875 56 
Q 33.9375 56 38.28125 53.609375 
Q 42.625 51.21875 45.40625 46.390625 
L 45.40625 54.6875 
L 54.390625 54.6875 
z
" id="DejaVuSans-103"/>
       <path d="M 12.40625 8.296875 
L 28.515625 8.296875 
L 28.515625 63.921875 
L 10.984375 60.40625 
L 10.984375 69.390625 
L 28.421875 72.90625 
L 38.28125 72.90625 
L 38.28125 8.296875 
L 54.390625 8.296875 
L 54.390625 0 
L 12.40625 0 
z
" id="DejaVuSans-49"/>
       <path d="M 31 75.875 
Q 24.46875 64.65625 21.28125 53.65625 
Q 18.109375 42.671875 18.109375 31.390625 
Q 18.109375 20.125 21.3125 9.0625 
Q 24.515625 -2 31 -13.1875 
L 23.1875 -13.1875 
Q 15.875 -1.703125 12.234375 9.375 
Q 8.59375 20.453125 8.59375 31.390625 
Q 8.59375 42.28125 12.203125 53.3125 
Q 15.828125 64.359375 23.1875 75.875 
z
" id="DejaVuSans-40"/>
       <path d="M 51.125 44 
L 36.921875 44 
L 32.8125 27.6875 
L 47.125 27.6875 
z
M 43.796875 71.78125 
L 38.71875 51.515625 
L 52.984375 51.515625 
L 58.109375 71.78125 
L 65.921875 71.78125 
L 60.890625 51.515625 
L 76.125 51.515625 
L 76.125 44 
L 58.984375 44 
L 54.984375 27.6875 
L 70.515625 27.6875 
L 70.515625 20.21875 
L 53.078125 20.21875 
L 48 0 
L 40.1875 0 
L 45.21875 20.21875 
L 30.90625 20.21875 
L 25.875 0 
L 18.015625 0 
L 23.09375 20.21875 
L 7.71875 20.21875 
L 7.71875 27.6875 
L 24.90625 27.6875 
L 29 44 
L 13.28125 44 
L 13.28125 51.515625 
L 30.90625 51.515625 
L 35.890625 71.78125 
z
" id="DejaVuSans-35"/>
       <path id="DejaVuSans-32"/>
       <path d="M 37.109375 75.984375 
L 37.109375 68.5 
L 28.515625 68.5 
Q 23.6875 68.5 21.796875 66.546875 
Q 19.921875 64.59375 19.921875 59.515625 
L 19.921875 54.6875 
L 34.71875 54.6875 
L 34.71875 47.703125 
L 19.921875 47.703125 
L 19.921875 0 
L 10.890625 0 
L 10.890625 47.703125 
L 2.296875 47.703125 
L 2.296875 54.6875 
L 10.890625 54.6875 
L 10.890625 58.5 
Q 10.890625 67.625 15.140625 71.796875 
Q 19.390625 75.984375 28.609375 75.984375 
z
" id="DejaVuSans-102"/>
       <path d="M 4.890625 31.390625 
L 31.203125 31.390625 
L 31.203125 23.390625 
L 4.890625 23.390625 
z
" id="DejaVuSans-45"/>
       <path d="M 56.203125 29.59375 
L 56.203125 25.203125 
L 14.890625 25.203125 
Q 15.484375 15.921875 20.484375 11.0625 
Q 25.484375 6.203125 34.421875 6.203125 
Q 39.59375 6.203125 44.453125 7.46875 
Q 49.3125 8.734375 54.109375 11.28125 
L 54.109375 2.78125 
Q 49.265625 0.734375 44.1875 -0.34375 
Q 39.109375 -1.421875 33.890625 -1.421875 
Q 20.796875 -1.421875 13.15625 6.1875 
Q 5.515625 13.8125 5.515625 26.8125 
Q 5.515625 40.234375 12.765625 48.109375 
Q 20.015625 56 32.328125 56 
Q 43.359375 56 49.78125 48.890625 
Q 56.203125 41.796875 56.203125 29.59375 
z
M 47.21875 32.234375 
Q 47.125 39.59375 43.09375 43.984375 
Q 39.0625 48.390625 32.421875 48.390625 
Q 24.90625 48.390625 20.390625 44.140625 
Q 15.875 39.890625 15.1875 32.171875 
z
" id="DejaVuSans-101"/>
       <path d="M 2.984375 54.6875 
L 12.5 54.6875 
L 29.59375 8.796875 
L 46.6875 54.6875 
L 56.203125 54.6875 
L 35.6875 0 
L 23.484375 0 
z
" id="DejaVuSans-118"/>
       <path d="M 34.28125 27.484375 
Q 23.390625 27.484375 19.1875 25 
Q 14.984375 22.515625 14.984375 16.5 
Q 14.984375 11.71875 18.140625 8.90625 
Q 21.296875 6.109375 26.703125 6.109375 
Q 34.1875 6.109375 38.703125 11.40625 
Q 43.21875 16.703125 43.21875 25.484375 
L 43.21875 27.484375 
z
M 52.203125 31.203125 
L 52.203125 0 
L 43.21875 0 
L 43.21875 8.296875 
Q 40.140625 3.328125 35.546875 0.953125 
Q 30.953125 -1.421875 24.3125 -1.421875 
Q 15.921875 -1.421875 10.953125 3.296875 
Q 6 8.015625 6 15.921875 
Q 6 25.140625 12.171875 29.828125 
Q 18.359375 34.515625 30.609375 34.515625 
L 43.21875 34.515625 
L 43.21875 35.40625 
Q 43.21875 41.609375 39.140625 45 
Q 35.0625 48.390625 27.6875 48.390625 
Q 23 48.390625 18.546875 47.265625 
Q 14.109375 46.140625 10.015625 43.890625 
L 10.015625 52.203125 
Q 14.9375 54.109375 19.578125 55.046875 
Q 24.21875 56 28.609375 56 
Q 40.484375 56 46.34375 49.84375 
Q 52.203125 43.703125 52.203125 31.203125 
z
" id="DejaVuSans-97"/>
       <path d="M 44.28125 53.078125 
L 44.28125 44.578125 
Q 40.484375 46.53125 36.375 47.5 
Q 32.28125 48.484375 27.875 48.484375 
Q 21.1875 48.484375 17.84375 46.4375 
Q 14.5 44.390625 14.5 40.28125 
Q 14.5 37.15625 16.890625 35.375 
Q 19.28125 33.59375 26.515625 31.984375 
L 29.59375 31.296875 
Q 39.15625 29.25 43.1875 25.515625 
Q 47.21875 21.78125 47.21875 15.09375 
Q 47.21875 7.46875 41.1875 3.015625 
Q 35.15625 -1.421875 24.609375 -1.421875 
Q 20.21875 -1.421875 15.453125 -0.5625 
Q 10.6875 0.296875 5.421875 2 
L 5.421875 11.28125 
Q 10.40625 8.6875 15.234375 7.390625 
Q 20.0625 6.109375 24.8125 6.109375 
Q 31.15625 6.109375 34.5625 8.28125 
Q 37.984375 10.453125 37.984375 14.40625 
Q 37.984375 18.0625 35.515625 20.015625 
Q 33.0625 21.96875 24.703125 23.78125 
L 21.578125 24.515625 
Q 13.234375 26.265625 9.515625 29.90625 
Q 5.8125 33.546875 5.8125 39.890625 
Q 5.8125 47.609375 11.28125 51.796875 
Q 16.75 56 26.8125 56 
Q 31.78125 56 36.171875 55.265625 
Q 40.578125 54.546875 44.28125 53.078125 
z
" id="DejaVuSans-115"/>
       <path d="M 25.390625 72.90625 
L 33.6875 72.90625 
L 8.296875 -9.28125 
L 0 -9.28125 
z
" id="DejaVuSans-47"/>
       <path d="M 45.40625 46.390625 
L 45.40625 75.984375 
L 54.390625 75.984375 
L 54.390625 0 
L 45.40625 0 
L 45.40625 8.203125 
Q 42.578125 3.328125 38.25 0.953125 
Q 33.9375 -1.421875 27.875 -1.421875 
Q 17.96875 -1.421875 11.734375 6.484375 
Q 5.515625 14.40625 5.515625 27.296875 
Q 5.515625 40.1875 11.734375 48.09375 
Q 17.96875 56 27.875 56 
Q 33.9375 56 38.25 53.625 
Q 42.578125 51.265625 45.40625 46.390625 
z
M 14.796875 27.296875 
Q 14.796875 17.390625 18.875 11.75 
Q 22.953125 6.109375 30.078125 6.109375 
Q 37.203125 6.109375 41.296875 11.75 
Q 45.40625 17.390625 45.40625 27.296875 
Q 45.40625 37.203125 41.296875 42.84375 
Q 37.203125 48.484375 30.078125 48.484375 
Q 22.953125 48.484375 18.875 42.84375 
Q 14.796875 37.203125 14.796875 27.296875 
z
" id="DejaVuSans-100"/>
       <path d="M 9.421875 54.6875 
L 18.40625 54.6875 
L 18.40625 0 
L 9.421875 0 
z
M 9.421875 75.984375 
L 18.40625 75.984375 
L 18.40625 64.59375 
L 9.421875 64.59375 
z
" id="DejaVuSans-105"/>
       <path d="M 52 44.1875 
Q 55.375 50.25 60.0625 53.125 
Q 64.75 56 71.09375 56 
Q 79.640625 56 84.28125 50.015625 
Q 88.921875 44.046875 88.921875 33.015625 
L 88.921875 0 
L 79.890625 0 
L 79.890625 32.71875 
Q 79.890625 40.578125 77.09375 44.375 
Q 74.3125 48.1875 68.609375 48.1875 
Q 61.625 48.1875 57.5625 43.546875 
Q 53.515625 38.921875 53.515625 30.90625 
L 53.515625 0 
L 44.484375 0 
L 44.484375 32.71875 
Q 44.484375 40.625 41.703125 44.40625 
Q 38.921875 48.1875 33.109375 48.1875 
Q 26.21875 48.1875 22.15625 43.53125 
Q 18.109375 38.875 18.109375 30.90625 
L 18.109375 0 
L 9.078125 0 
L 9.078125 54.6875 
L 18.109375 54.6875 
L 18.109375 46.1875 
Q 21.1875 51.21875 25.484375 53.609375 
Q 29.78125 56 35.6875 56 
Q 41.65625 56 45.828125 52.96875 
Q 50 49.953125 52 44.1875 
z
" id="DejaVuSans-109"/>
       <path d="M 54.890625 33.015625 
L 54.890625 0 
L 45.90625 0 
L 45.90625 32.71875 
Q 45.90625 40.484375 42.875 44.328125 
Q 39.84375 48.1875 33.796875 48.1875 
Q 26.515625 48.1875 22.3125 43.546875 
Q 18.109375 38.921875 18.109375 30.90625 
L 18.109375 0 
L 9.078125 0 
L 9.078125 54.6875 
L 18.109375 54.6875 
L 18.109375 46.1875 
Q 21.34375 51.125 25.703125 53.5625 
Q 30.078125 56 35.796875 56 
Q 45.21875 56 50.046875 50.171875 
Q 54.890625 44.34375 54.890625 33.015625 
z
" id="DejaVuSans-110"/>
       <path d="M 8.015625 75.875 
L 15.828125 75.875 
Q 23.140625 64.359375 26.78125 53.3125 
Q 30.421875 42.28125 30.421875 31.390625 
Q 30.421875 20.453125 26.78125 9.375 
Q 23.140625 -1.703125 15.828125 -13.1875 
L 8.015625 -13.1875 
Q 14.5 -2 17.703125 9.0625 
Q 20.90625 20.125 20.90625 31.390625 
Q 20.90625 42.671875 17.703125 53.65625 
Q 14.5 64.65625 8.015625 75.875 
z
" id="DejaVuSans-41"/>
      </defs>
      <use xlink:href="#DejaVuSans-108"/>
      <use x="27.783203" xlink:href="#DejaVuSans-111"/>
      <use x="88.964844" xlink:href="#DejaVuSans-103"/>
      <use x="152.441406" xlink:href="#DejaVuSans-49"/>
      <use x="216.064453" xlink:href="#DejaVuSans-48"/>
      <use x="279.6875" xlink:href="#DejaVuSans-40"/>
      <use x="318.701172" xlink:href="#DejaVuSans-35"/>
      <use x="402.490234" xlink:href="#DejaVuSans-32"/>
      <use x="434.277344" xlink:href="#DejaVuSans-102"/>
      <use x="463.982422" xlink:href="#DejaVuSans-45"/>
      <use x="500.066406" xlink:href="#DejaVuSans-101"/>
      <use x="561.589844" xlink:href="#DejaVuSans-118"/>
      <use x="620.769531" xlink:href="#DejaVuSans-97"/>
      <use x="682.048828" xlink:href="#DejaVuSans-108"/>
      <use x="709.832031" xlink:href="#DejaVuSans-115"/>
      <use x="761.931641" xlink:href="#DejaVuSans-32"/>
      <use x="793.71875" xlink:href="#DejaVuSans-47"/>
      <use x="827.410156" xlink:href="#DejaVuSans-32"/>
      <use x="859.197266" xlink:href="#DejaVuSans-100"/>
      <use x="922.673828" xlink:href="#DejaVuSans-105"/>
      <use x="950.457031" xlink:href="#DejaVuSans-109"/>
      <use x="1047.869141" xlink:href="#DejaVuSans-101"/>
      <use x="1109.392578" xlink:href="#DejaVuSans-110"/>
      <use x="1172.771484" xlink:href="#DejaVuSans-115"/>
      <use x="1224.871094" xlink:href="#DejaVuSans-105"/>
      <use x="1252.654297" xlink:href="#DejaVuSans-111"/>
      <use x="1313.835938" xlink:href="#DejaVuSans-110"/>
      <use x="1377.214844" xlink:href="#DejaVuSans-41"/>
     </g>
    </g>
   </g>
   <g id="matplotlib.axis_2">
    <g id="ytick_1">
     <g id="line2d_21">
      <path clip-path="url(#p0d4fe39f6d)" d="M 57.6 298.944 
L 338.688 298.944 
" style="fill:none;stroke:#b0b0b0;stroke-linecap:square;stroke-width:0.8;"/>
     </g>
     <g id="line2d_22">
      <defs>
       <path d="M 0 0 
L -3.5 0 
" id="m23b5e84d1c" style="stroke:#000000;stroke-width:0.8;"/>
      </defs>
      <g>
       <use style="stroke:#000000;stroke-width:0.8;" x="57.6" xlink:href="#m23b5e84d1c" y="298.944"/>
      </g>
     </g>
     <g id="text_6">
      <!-- 0.0 -->
      <g transform="translate(25.155 305.02275)scale(0.16 -0.16)">
       <defs>
        <path d="M 10.6875 12.40625 
L 21 12.40625 
L 21 0 
L 10.6875 0 
z
" id="DejaVuSans-46"/>
       </defs>
       <use xlink:href="#DejaVuSans-48"/>
       <use x="63.623047" xlink:href="#DejaVuSans-46"/>
       <use x="95.410156" xlink:href="#DejaVuSans-48"/>
      </g>
     </g>
    </g>
    <g id="ytick_2">
     <g id="line2d_23">
      <path clip-path="url(#p0d4fe39f6d)" d="M 57.6 245.22202 
L 338.688 245.22202 
" style="fill:none;stroke:#b0b0b0;stroke-linecap:square;stroke-width:0.8;"/>
     </g>
     <g id="line2d_24">
      <g>
       <use style="stroke:#000000;stroke-width:0.8;" x="57.6" xlink:href="#m23b5e84d1c" y="245.22202"/>
      </g>
     </g>
     <g id="text_7">
      <!-- 0.2 -->
      <g transform="translate(25.155 251.30077)scale(0.16 -0.16)">
       <use xlink:href="#DejaVuSans-48"/>
       <use x="63.623047" xlink:href="#DejaVuSans-46"/>
       <use x="95.410156" xlink:href="#DejaVuSans-50"/>
      </g>
     </g>
    </g>
    <g id="ytick_3">
     <g id="line2d_25">
      <path clip-path="url(#p0d4fe39f6d)" d="M 57.6 191.50004 
L 338.688 191.50004 
" style="fill:none;stroke:#b0b0b0;stroke-linecap:square;stroke-width:0.8;"/>
     </g>
     <g id="line2d_26">
      <g>
       <use style="stroke:#000000;stroke-width:0.8;" x="57.6" xlink:href="#m23b5e84d1c" y="191.50004"/>
      </g>
     </g>
     <g id="text_8">
      <!-- 0.4 -->
      <g transform="translate(25.155 197.57879)scale(0.16 -0.16)">
       <use xlink:href="#DejaVuSans-48"/>
       <use x="63.623047" xlink:href="#DejaVuSans-46"/>
       <use x="95.410156" xlink:href="#DejaVuSans-52"/>
      </g>
     </g>
    </g>
    <g id="ytick_4">
     <g id="line2d_27">
      <path clip-path="url(#p0d4fe39f6d)" d="M 57.6 137.778059 
L 338.688 137.778059 
" style="fill:none;stroke:#b0b0b0;stroke-linecap:square;stroke-width:0.8;"/>
     </g>
     <g id="line2d_28">
      <g>
       <use style="stroke:#000000;stroke-width:0.8;" x="57.6" xlink:href="#m23b5e84d1c" y="137.778059"/>
      </g>
     </g>
     <g id="text_9">
      <!-- 0.6 -->
      <g transform="translate(25.155 143.856809)scale(0.16 -0.16)">
       <use xlink:href="#DejaVuSans-48"/>
       <use x="63.623047" xlink:href="#DejaVuSans-46"/>
       <use x="95.410156" xlink:href="#DejaVuSans-54"/>
      </g>
     </g>
    </g>
    <g id="ytick_5">
     <g id="line2d_29">
      <path clip-path="url(#p0d4fe39f6d)" d="M 57.6 84.056079 
L 338.688 84.056079 
" style="fill:none;stroke:#b0b0b0;stroke-linecap:square;stroke-width:0.8;"/>
     </g>
     <g id="line2d_30">
      <g>
       <use style="stroke:#000000;stroke-width:0.8;" x="57.6" xlink:href="#m23b5e84d1c" y="84.056079"/>
      </g>
     </g>
     <g id="text_10">
      <!-- 0.8 -->
      <g transform="translate(25.155 90.134829)scale(0.16 -0.16)">
       <defs>
        <path d="M 31.78125 34.625 
Q 24.75 34.625 20.71875 30.859375 
Q 16.703125 27.09375 16.703125 20.515625 
Q 16.703125 13.921875 20.71875 10.15625 
Q 24.75 6.390625 31.78125 6.390625 
Q 38.8125 6.390625 42.859375 10.171875 
Q 46.921875 13.96875 46.921875 20.515625 
Q 46.921875 27.09375 42.890625 30.859375 
Q 38.875 34.625 31.78125 34.625 
z
M 21.921875 38.8125 
Q 15.578125 40.375 12.03125 44.71875 
Q 8.5 49.078125 8.5 55.328125 
Q 8.5 64.0625 14.71875 69.140625 
Q 20.953125 74.21875 31.78125 74.21875 
Q 42.671875 74.21875 48.875 69.140625 
Q 55.078125 64.0625 55.078125 55.328125 
Q 55.078125 49.078125 51.53125 44.71875 
Q 48 40.375 41.703125 38.8125 
Q 48.828125 37.15625 52.796875 32.3125 
Q 56.78125 27.484375 56.78125 20.515625 
Q 56.78125 9.90625 50.3125 4.234375 
Q 43.84375 -1.421875 31.78125 -1.421875 
Q 19.734375 -1.421875 13.25 4.234375 
Q 6.78125 9.90625 6.78125 20.515625 
Q 6.78125 27.484375 10.78125 32.3125 
Q 14.796875 37.15625 21.921875 38.8125 
z
M 18.3125 54.390625 
Q 18.3125 48.734375 21.84375 45.5625 
Q 25.390625 42.390625 31.78125 42.390625 
Q 38.140625 42.390625 41.71875 45.5625 
Q 45.3125 48.734375 45.3125 54.390625 
Q 45.3125 60.0625 41.71875 63.234375 
Q 38.140625 66.40625 31.78125 66.40625 
Q 25.390625 66.40625 21.84375 63.234375 
Q 18.3125 60.0625 18.3125 54.390625 
z
" id="DejaVuSans-56"/>
       </defs>
       <use xlink:href="#DejaVuSans-48"/>
       <use x="63.623047" xlink:href="#DejaVuSans-46"/>
       <use x="95.410156" xlink:href="#DejaVuSans-56"/>
      </g>
     </g>
    </g>
    <g id="ytick_6">
     <g id="line2d_31">
      <path clip-path="url(#p0d4fe39f6d)" d="M 57.6 30.334099 
L 338.688 30.334099 
" style="fill:none;stroke:#b0b0b0;stroke-linecap:square;stroke-width:0.8;"/>
     </g>
     <g id="line2d_32">
      <g>
       <use style="stroke:#000000;stroke-width:0.8;" x="57.6" xlink:href="#m23b5e84d1c" y="30.334099"/>
      </g>
     </g>
     <g id="text_11">
      <!-- 1.0 -->
      <g transform="translate(25.155 36.412849)scale(0.16 -0.16)">
       <use xlink:href="#DejaVuSans-49"/>
       <use x="63.623047" xlink:href="#DejaVuSans-46"/>
       <use x="95.410156" xlink:href="#DejaVuSans-48"/>
      </g>
     </g>
    </g>
    <g id="text_12">
     <!-- Fraction of function,target pairs -->
     <g transform="translate(17.619531 297.681)rotate(-90)scale(0.17 -0.17)">
      <defs>
       <path d="M 9.8125 72.90625 
L 51.703125 72.90625 
L 51.703125 64.59375 
L 19.671875 64.59375 
L 19.671875 43.109375 
L 48.578125 43.109375 
L 48.578125 34.8125 
L 19.671875 34.8125 
L 19.671875 0 
L 9.8125 0 
z
" id="DejaVuSans-70"/>
       <path d="M 41.109375 46.296875 
Q 39.59375 47.171875 37.8125 47.578125 
Q 36.03125 48 33.890625 48 
Q 26.265625 48 22.1875 43.046875 
Q 18.109375 38.09375 18.109375 28.8125 
L 18.109375 0 
L 9.078125 0 
L 9.078125 54.6875 
L 18.109375 54.6875 
L 18.109375 46.1875 
Q 20.953125 51.171875 25.484375 53.578125 
Q 30.03125 56 36.53125 56 
Q 37.453125 56 38.578125 55.875 
Q 39.703125 55.765625 41.0625 55.515625 
z
" id="DejaVuSans-114"/>
       <path d="M 48.78125 52.59375 
L 48.78125 44.1875 
Q 44.96875 46.296875 41.140625 47.34375 
Q 37.3125 48.390625 33.40625 48.390625 
Q 24.65625 48.390625 19.8125 42.84375 
Q 14.984375 37.3125 14.984375 27.296875 
Q 14.984375 17.28125 19.8125 11.734375 
Q 24.65625 6.203125 33.40625 6.203125 
Q 37.3125 6.203125 41.140625 7.25 
Q 44.96875 8.296875 48.78125 10.40625 
L 48.78125 2.09375 
Q 45.015625 0.34375 40.984375 -0.53125 
Q 36.96875 -1.421875 32.421875 -1.421875 
Q 20.0625 -1.421875 12.78125 6.34375 
Q 5.515625 14.109375 5.515625 27.296875 
Q 5.515625 40.671875 12.859375 48.328125 
Q 20.21875 56 33.015625 56 
Q 37.15625 56 41.109375 55.140625 
Q 45.0625 54.296875 48.78125 52.59375 
z
" id="DejaVuSans-99"/>
       <path d="M 18.3125 70.21875 
L 18.3125 54.6875 
L 36.8125 54.6875 
L 36.8125 47.703125 
L 18.3125 47.703125 
L 18.3125 18.015625 
Q 18.3125 11.328125 20.140625 9.421875 
Q 21.96875 7.515625 27.59375 7.515625 
L 36.8125 7.515625 
L 36.8125 0 
L 27.59375 0 
Q 17.1875 0 13.234375 3.875 
Q 9.28125 7.765625 9.28125 18.015625 
L 9.28125 47.703125 
L 2.6875 47.703125 
L 2.6875 54.6875 
L 9.28125 54.6875 
L 9.28125 70.21875 
z
" id="DejaVuSans-116"/>
       <path d="M 8.5 21.578125 
L 8.5 54.6875 
L 17.484375 54.6875 
L 17.484375 21.921875 
Q 17.484375 14.15625 20.5 10.265625 
Q 23.53125 6.390625 29.59375 6.390625 
Q 36.859375 6.390625 41.078125 11.03125 
Q 45.3125 15.671875 45.3125 23.6875 
L 45.3125 54.6875 
L 54.296875 54.6875 
L 54.296875 0 
L 45.3125 0 
L 45.3125 8.40625 
Q 42.046875 3.421875 37.71875 1 
Q 33.40625 -1.421875 27.6875 -1.421875 
Q 18.265625 -1.421875 13.375 4.4375 
Q 8.5 10.296875 8.5 21.578125 
z
M 31.109375 56 
z
" id="DejaVuSans-117"/>
       <path d="M 11.71875 12.40625 
L 22.015625 12.40625 
L 22.015625 4 
L 14.015625 -11.625 
L 7.71875 -11.625 
L 11.71875 4 
z
" id="DejaVuSans-44"/>
       <path d="M 18.109375 8.203125 
L 18.109375 -20.796875 
L 9.078125 -20.796875 
L 9.078125 54.6875 
L 18.109375 54.6875 
L 18.109375 46.390625 
Q 20.953125 51.265625 25.265625 53.625 
Q 29.59375 56 35.59375 56 
Q 45.5625 56 51.78125 48.09375 
Q 58.015625 40.1875 58.015625 27.296875 
Q 58.015625 14.40625 51.78125 6.484375 
Q 45.5625 -1.421875 35.59375 -1.421875 
Q 29.59375 -1.421875 25.265625 0.953125 
Q 20.953125 3.328125 18.109375 8.203125 
z
M 48.6875 27.296875 
Q 48.6875 37.203125 44.609375 42.84375 
Q 40.53125 48.484375 33.40625 48.484375 
Q 26.265625 48.484375 22.1875 42.84375 
Q 18.109375 37.203125 18.109375 27.296875 
Q 18.109375 17.390625 22.1875 11.75 
Q 26.265625 6.109375 33.40625 6.109375 
Q 40.53125 6.109375 44.609375 11.75 
Q 48.6875 17.390625 48.6875 27.296875 
z
" id="DejaVuSans-112"/>
      </defs>
      <use xlink:href="#DejaVuSans-70"/>
      <use x="50.269531" xlink:href="#DejaVuSans-114"/>
      <use x="91.382812" xlink:href="#DejaVuSans-97"/>
      <use x="152.662109" xlink:href="#DejaVuSans-99"/>
      <use x="207.642578" xlink:href="#DejaVuSans-116"/>
      <use x="246.851562" xlink:href="#DejaVuSans-105"/>
      <use x="274.634766" xlink:href="#DejaVuSans-111"/>
      <use x="335.816406" xlink:href="#DejaVuSans-110"/>
      <use x="399.195312" xlink:href="#DejaVuSans-32"/>
      <use x="430.982422" xlink:href="#DejaVuSans-111"/>
      <use x="492.164062" xlink:href="#DejaVuSans-102"/>
      <use x="527.369141" xlink:href="#DejaVuSans-32"/>
      <use x="559.15625" xlink:href="#DejaVuSans-102"/>
      <use x="594.361328" xlink:href="#DejaVuSans-117"/>
      <use x="657.740234" xlink:href="#DejaVuSans-110"/>
      <use x="721.119141" xlink:href="#DejaVuSans-99"/>
      <use x="776.099609" xlink:href="#DejaVuSans-116"/>
      <use x="815.308594" xlink:href="#DejaVuSans-105"/>
      <use x="843.091797" xlink:href="#DejaVuSans-111"/>
      <use x="904.273438" xlink:href="#DejaVuSans-110"/>
      <use x="967.652344" xlink:href="#DejaVuSans-44"/>
      <use x="999.439453" xlink:href="#DejaVuSans-116"/>
      <use x="1038.648438" xlink:href="#DejaVuSans-97"/>
      <use x="1099.927734" xlink:href="#DejaVuSans-114"/>
      <use x="1139.291016" xlink:href="#DejaVuSans-103"/>
      <use x="1202.767578" xlink:href="#DejaVuSans-101"/>
      <use x="1264.291016" xlink:href="#DejaVuSans-116"/>
      <use x="1303.5" xlink:href="#DejaVuSans-32"/>
      <use x="1335.287109" xlink:href="#DejaVuSans-112"/>
      <use x="1398.763672" xlink:href="#DejaVuSans-97"/>
      <use x="1460.042969" xlink:href="#DejaVuSans-105"/>
      <use x="1487.826172" xlink:href="#DejaVuSans-114"/>
      <use x="1528.939453" xlink:href="#DejaVuSans-115"/>
     </g>
    </g>
   </g>
   <g id="line2d_33">
    <defs>
     <path d="M 0 1.5 
C 0.397805 1.5 0.77937 1.341951 1.06066 1.06066 
C 1.341951 0.77937 1.5 0.397805 1.5 0 
C 1.5 -0.397805 1.341951 -0.77937 1.06066 -1.06066 
C 0.77937 -1.341951 0.397805 -1.5 0 -1.5 
C -0.397805 -1.5 -0.77937 -1.341951 -1.06066 -1.06066 
C -1.341951 -0.77937 -1.5 -0.397805 -1.5 0 
C -1.5 0.397805 -1.341951 0.77937 -1.06066 1.06066 
C -0.77937 1.341951 -0.397805 1.5 0 1.5 
z
" id="m57cfb1fcb1" style="stroke:#f5deb3;"/>
    </defs>
    <g>
     <use style="fill:#f5deb3;stroke:#f5deb3;" x="217.260985" xlink:href="#m57cfb1fcb1" y="62.752535"/>
     <use style="fill:#f5deb3;stroke:#f5deb3;" x="217.260985" xlink:href="#m57cfb1fcb1" y="62.752535"/>
    </g>
   </g>
   <g id="line2d_34">
    <defs>
     <path d="M 0 1.5 
C 0.397805 1.5 0.77937 1.341951 1.06066 1.06066 
C 1.341951 0.77937 1.5 0.397805 1.5 0 
C 1.5 -0.397805 1.341951 -0.77937 1.06066 -1.06066 
C 0.77937 -1.341951 0.397805 -1.5 0 -1.5 
C -0.397805 -1.5 -0.77937 -1.341951 -1.06066 -1.06066 
C -1.341951 -0.77937 -1.5 -0.397805 -1.5 0 
C -1.5 0.397805 -1.341951 0.77937 -1.06066 1.06066 
C -0.77937 1.341951 -0.397805 1.5 0 1.5 
z
" id="mf480bb8951" style="stroke:#000080;"/>
    </defs>
    <g>
     <use style="fill:#000080;stroke:#000080;" x="252.542708" xlink:href="#mf480bb8951" y="64.141897"/>
     <use style="fill:#000080;stroke:#000080;" x="252.542708" xlink:href="#mf480bb8951" y="64.141897"/>
    </g>
   </g>
   <g id="line2d_35">
    <path d="M 45.512012 298.944 
L 45.512012 281.808541 
L 57.6 281.808541 
L 57.6 275.324854 
L 64.67102 275.324854 
L 64.67102 272.08301 
L 69.687988 272.08301 
L 69.687988 271.619889 
L 73.579452 271.619889 
L 73.579452 270.230528 
L 76.759008 270.230528 
L 76.759008 267.451805 
L 79.447285 267.451805 
L 79.447285 265.599323 
L 81.775977 265.599323 
L 81.775977 265.136202 
L 85.66744 265.136202 
L 85.66744 262.8206 
L 87.329581 262.8206 
L 87.329581 261.431238 
L 88.846997 261.431238 
L 88.846997 260.504997 
L 90.242884 260.504997 
L 90.242884 259.578756 
L 91.535274 259.578756 
L 91.535274 256.800033 
L 92.73846 256.800033 
L 92.73846 255.410671 
L 94.921215 255.410671 
L 94.921215 254.947551 
L 97.755429 254.947551 
L 97.755429 254.02131 
L 98.606294 254.02131 
L 98.606294 242.906417 
L 100.934985 242.906417 
L 100.934985 241.980176 
L 104.23523 241.980176 
L 104.23523 240.127694 
L 104.826449 240.127694 
L 104.826449 237.348971 
L 108.006005 237.348971 
L 108.006005 236.88585 
L 111.897469 236.88585 
L 111.897469 235.033368 
L 112.280765 235.033368 
L 112.280765 234.107127 
L 113.022974 234.107127 
L 113.022974 233.180886 
L 114.751048 233.180886 
L 114.751048 232.717766 
L 117.202696 232.717766 
L 117.202696 232.254645 
L 117.765302 232.254645 
L 117.765302 231.328404 
L 118.039942 231.328404 
L 118.039942 229.475922 
L 118.576578 229.475922 
L 118.576578 227.62344 
L 119.351785 227.62344 
L 119.351785 226.697199 
L 120.093994 226.697199 
L 120.093994 225.770958 
L 120.8059 225.770958 
L 120.8059 225.307837 
L 121.931406 225.307837 
L 121.931406 224.381596 
L 124.557288 224.381596 
L 124.557288 223.455355 
L 125.110962 223.455355 
L 125.110962 220.676632 
L 126.168212 220.676632 
L 126.168212 219.750391 
L 126.673734 219.750391 
L 126.673734 218.82415 
L 126.839037 218.82415 
L 126.839037 216.508548 
L 127.642832 216.508548 
L 127.642832 215.582307 
L 127.799239 215.582307 
L 127.799239 214.192945 
L 128.107907 214.192945 
L 128.107907 212.340463 
L 131.814826 212.340463 
L 131.814826 211.877342 
L 132.060454 211.877342 
L 132.060454 210.487981 
L 132.777237 210.487981 
L 132.777237 208.635499 
L 133.239232 208.635499 
L 133.239232 208.172378 
L 133.689303 208.172378 
L 133.689303 206.783017 
L 134.019394 206.783017 
L 134.019394 204.930535 
L 134.450015 204.930535 
L 134.450015 204.004294 
L 137.016339 204.004294 
L 137.016339 203.541173 
L 137.198951 203.541173 
L 137.198951 201.688691 
L 139.172077 201.688691 
L 139.172077 200.76245 
L 139.572998 200.76245 
L 139.572998 200.299329 
L 139.887228 200.299329 
L 139.887228 199.373088 
L 140.11924 199.373088 
L 140.11924 198.446847 
L 140.64889 198.446847 
L 140.64889 195.205004 
L 141.378673 195.205004 
L 141.378673 193.815642 
L 142.07914 193.815642 
L 142.07914 193.352522 
L 142.619936 193.352522 
L 142.686372 191.96316 
L 143.208936 191.96316 
L 143.208936 191.50004 
L 144.806606 191.50004 
L 144.806606 191.036919 
L 145.039911 191.036919 
L 145.039911 190.573799 
L 145.609873 190.573799 
L 145.609873 190.110678 
L 146.377764 190.110678 
L 146.377764 189.184437 
L 147.96658 189.184437 
L 147.96658 188.721316 
L 148.826773 188.721316 
L 148.826773 188.258196 
L 150.085825 188.258196 
L 150.085825 187.795075 
L 151.541675 187.795075 
L 151.541675 185.479473 
L 151.975216 185.479473 
L 151.975216 179.922027 
L 153.142033 179.922027 
L 153.142033 179.458906 
L 154.098334 179.458906 
L 154.098334 178.995786 
L 154.269814 178.995786 
L 154.337936 175.290821 
L 154.707925 175.290821 
L 154.707925 174.827701 
L 155.070227 174.827701 
L 155.070227 173.90146 
L 155.710272 173.90146 
L 155.710272 172.975219 
L 156.083319 172.975219 
L 156.083319 172.048978 
L 156.538679 172.048978 
L 156.538679 168.344014 
L 156.98245 168.344014 
L 157.011638 167.417773 
L 157.214591 167.417773 
L 157.214591 166.491532 
L 157.557108 166.491532 
L 157.613546 164.63905 
L 158.572743 164.63905 
L 158.572743 164.175929 
L 159.098062 164.175929 
L 159.098062 162.786567 
L 160.273627 162.786567 
L 160.273627 161.397206 
L 160.680044 161.397206 
L 160.680044 160.934085 
L 161.169354 160.934085 
L 161.169354 160.007844 
L 161.756743 160.007844 
L 161.756743 159.544724 
L 162.10862 159.544724 
L 162.10862 159.081603 
L 162.238764 159.081603 
L 162.260361 157.692242 
L 163.428979 157.692242 
L 163.428979 157.229121 
L 163.549667 157.229121 
L 163.549667 155.83976 
L 164.843488 155.83976 
L 164.843488 154.913519 
L 165.55465 154.913519 
L 165.55465 154.450398 
L 165.943384 154.450398 
L 165.943384 153.987278 
L 166.169082 153.987278 
L 166.169082 153.061037 
L 167.223287 153.061037 
L 167.223287 152.597916 
L 169.374494 152.597916 
L 169.417501 151.671675 
L 170.077786 151.671675 
L 170.077786 150.282313 
L 170.96472 150.282313 
L 170.96472 149.356072 
L 171.455636 149.356072 
L 171.455636 148.429831 
L 171.620458 148.429831 
L 171.708567 146.577349 
L 171.746192 146.577349 
L 171.796233 145.187988 
L 173.406055 145.187988 
L 173.406055 144.724867 
L 173.777957 144.724867 
L 173.777957 144.261747 
L 174.109302 144.261747 
L 174.109302 143.335506 
L 174.911127 143.335506 
L 174.984116 141.483024 
L 175.056802 141.483024 
L 175.056802 141.019903 
L 175.975136 141.019903 
L 175.975136 140.556783 
L 176.383205 140.556783 
L 176.450298 138.7043 
L 176.659495 138.7043 
L 176.763161 137.778059 
L 177.107399 137.778059 
L 177.107399 136.851818 
L 177.245042 136.851818 
L 177.31801 135.925577 
L 177.615816 135.925577 
L 177.678338 134.999336 
L 179.768016 134.999336 
L 179.791727 133.609975 
L 181.626769 133.609975 
L 181.676464 132.220613 
L 181.824704 132.220613 
L 181.824704 131.294372 
L 183.332159 131.294372 
L 183.332159 130.831252 
L 183.467024 130.831252 
L 183.511749 128.97877 
L 184.15691 128.97877 
L 184.15691 128.052529 
L 184.761242 128.052529 
L 184.761242 127.589408 
L 184.938532 127.589408 
L 184.938532 126.663167 
L 185.333839 126.663167 
L 185.333839 125.736926 
L 185.770908 125.736926 
L 185.770908 125.273805 
L 185.893799 125.273805 
L 185.893799 124.810685 
L 186.137014 124.810685 
L 186.137014 123.884444 
L 187.092903 123.884444 
L 187.165502 122.031962 
L 187.263548 122.031962 
L 187.309799 121.105721 
L 188.292624 121.105721 
L 188.292624 120.6426 
L 189.149264 120.6426 
L 189.149264 120.17948 
L 189.469596 120.17948 
L 189.469596 119.253239 
L 189.908399 119.253239 
L 189.908399 118.790118 
L 190.275924 118.790118 
L 190.275924 117.863877 
L 191.075585 117.863877 
L 191.075585 116.937636 
L 191.552844 116.937636 
L 191.552844 116.011395 
L 191.689121 116.011395 
L 191.697104 114.158913 
L 193.147547 114.158913 
L 193.147547 113.232672 
L 193.629236 113.232672 
L 193.707647 110.917069 
L 194.073618 110.917069 
L 194.073618 110.453949 
L 194.625442 110.453949 
L 194.686066 108.601467 
L 195.02897 108.601467 
L 195.02897 108.138346 
L 195.323173 108.138346 
L 195.323173 107.675226 
L 196.226441 107.675226 
L 196.226441 107.212105 
L 196.777807 107.212105 
L 196.777807 106.748985 
L 197.844877 106.748985 
L 197.844877 106.285864 
L 198.405212 106.285864 
L 198.405212 105.359623 
L 198.527024 105.359623 
L 198.527024 104.896503 
L 198.773444 104.896503 
L 198.776103 103.507141 
L 199.013807 103.507141 
L 199.013807 103.04402 
L 199.209449 103.04402 
L 199.209449 102.117779 
L 199.926023 102.117779 
L 199.926023 101.654659 
L 200.39516 101.654659 
L 200.39516 101.191538 
L 201.084174 101.191538 
L 201.084174 100.728418 
L 201.437007 100.728418 
L 201.437007 100.265297 
L 201.672829 100.265297 
L 201.708829 98.875936 
L 202.159229 98.875936 
L 202.159229 98.412815 
L 202.348752 98.412815 
L 202.348752 97.949695 
L 202.478269 97.949695 
L 202.478269 97.486574 
L 202.643084 97.486574 
L 202.643084 96.560333 
L 203.727131 96.560333 
L 203.761132 95.634092 
L 204.521564 95.634092 
L 204.521564 94.707851 
L 204.81368 94.707851 
L 204.81368 93.78161 
L 205.891388 93.78161 
L 205.891388 93.31849 
L 206.239782 93.31849 
L 206.350366 91.929128 
L 207.012803 91.929128 
L 207.047591 90.076646 
L 207.508136 90.076646 
L 207.508136 89.150405 
L 207.673363 89.150405 
L 207.673363 88.687284 
L 208.136547 88.687284 
L 208.136547 87.761043 
L 208.453914 87.761043 
L 208.453914 87.297923 
L 208.577138 87.297923 
L 208.577138 86.834802 
L 208.826985 86.834802 
L 208.929793 85.445441 
L 209.385795 85.445441 
L 209.385795 84.5192 
L 209.876673 84.5192 
L 209.876673 83.592959 
L 210.033558 83.592959 
L 210.033558 83.129838 
L 210.285523 83.129838 
L 210.285523 82.666718 
L 210.876054 82.666718 
L 210.876054 82.203597 
L 211.284462 82.203597 
L 211.284462 81.277356 
L 211.644154 81.277356 
L 211.644154 80.814236 
L 212.041375 80.814236 
L 212.041375 80.351115 
L 212.965944 80.351115 
L 213.021253 79.424874 
L 214.343326 79.424874 
L 214.343326 78.498633 
L 214.463803 78.498633 
L 214.463803 78.035512 
L 215.263964 78.035512 
L 215.263964 77.572392 
L 216.328991 77.572392 
L 216.328991 77.109271 
L 216.895083 77.109271 
L 216.895083 76.646151 
L 217.906724 76.646151 
L 217.906724 75.71991 
L 218.835125 75.71991 
L 218.835125 75.256789 
L 219.871961 75.256789 
L 219.871961 74.330548 
L 220.400109 74.330548 
L 220.400109 73.404307 
L 221.063773 73.404307 
L 221.063773 72.941187 
L 221.64946 72.941187 
L 221.64946 72.478066 
L 222.513829 72.478066 
L 222.513829 72.014946 
L 222.73736 72.014946 
L 222.73736 71.551825 
L 223.973315 71.551825 
L 223.973315 71.088705 
L 225.092197 71.088705 
L 225.092197 70.625584 
L 226.42968 70.625584 
L 226.42968 69.699343 
L 227.716934 69.699343 
L 227.716934 68.773102 
L 231.950031 68.773102 
L 231.950031 67.846861 
L 235.76027 67.846861 
L 235.76027 66.92062 
L 237.514779 66.92062 
L 237.514779 66.457499 
L 240.660268 66.457499 
L 240.660268 65.994379 
L 242.189581 65.994379 
L 242.189581 65.531258 
L 246.297523 65.531258 
L 246.297523 65.068138 
L 252.542708 65.068138 
L 252.542708 64.141897 
L 338.688 64.141897 
L 338.688 64.141897 
" style="fill:none;stroke:#000080;stroke-linecap:square;stroke-width:1.5;"/>
   </g>
   <g id="line2d_36">
    <defs>
     <path d="M 0 6 
C 1.591219 6 3.117479 5.367802 4.242641 4.242641 
C 5.367802 3.117479 6 1.591219 6 0 
C 6 -1.591219 5.367802 -3.117479 4.242641 -4.242641 
C 3.117479 -5.367802 1.591219 -6 0 -6 
C -1.591219 -6 -3.117479 -5.367802 -4.242641 -4.242641 
C -5.367802 -3.117479 -6 -1.591219 -6 0 
C -6 1.591219 -5.367802 3.117479 -4.242641 4.242641 
C -3.117479 5.367802 -1.591219 6 0 6 
z
" id="m019be0cc48" style="stroke:#000080;stroke-width:1.5;"/>
    </defs>
    <g>
     <use style="fill-opacity:0;stroke:#000080;stroke-width:1.5;" x="98.606294" xlink:href="#m019be0cc48" y="254.02131"/>
     <use style="fill-opacity:0;stroke:#000080;stroke-width:1.5;" x="154.269814" xlink:href="#m019be0cc48" y="178.995786"/>
     <use style="fill-opacity:0;stroke:#000080;stroke-width:1.5;" x="207.047591" xlink:href="#m019be0cc48" y="90.076646"/>
     <use style="fill-opacity:0;stroke:#000080;stroke-width:1.5;" x="252.542708" xlink:href="#m019be0cc48" y="64.141897"/>
     <use style="fill-opacity:0;stroke:#000080;stroke-width:1.5;" x="252.542708" xlink:href="#m019be0cc48" y="64.141897"/>
     <use style="fill-opacity:0;stroke:#000080;stroke-width:1.5;" x="338.688" xlink:href="#m019be0cc48" y="64.141897"/>
    </g>
   </g>
   <g id="line2d_37">
    <path style="fill:none;stroke:#000080;stroke-linecap:square;stroke-width:1.5;"/>
    <g/>
   </g>
   <g id="line2d_38">
    <path clip-path="url(#p0d4fe39f6d)" d="M 258.377579 64.141897 
" style="fill:none;stroke:#000080;stroke-linecap:square;stroke-width:1.5;"/>
    <defs>
     <path d="M -12 12 
L 12 -12 
M -12 -12 
L 12 12 
" id="me6859a6fc6" style="stroke:#000080;"/>
    </defs>
    <g clip-path="url(#p0d4fe39f6d)">
     <use style="fill:#000080;stroke:#000080;" x="258.377579" xlink:href="#me6859a6fc6" y="64.141897"/>
    </g>
   </g>
   <g id="line2d_39">
    <defs>
     <path d="M 0 1.5 
C 0.397805 1.5 0.77937 1.341951 1.06066 1.06066 
C 1.341951 0.77937 1.5 0.397805 1.5 0 
C 1.5 -0.397805 1.341951 -0.77937 1.06066 -1.06066 
C 0.77937 -1.341951 0.397805 -1.5 0 -1.5 
C -0.397805 -1.5 -0.77937 -1.341951 -1.06066 -1.06066 
C -1.341951 -0.77937 -1.5 -0.397805 -1.5 0 
C -1.5 0.397805 -1.341951 0.77937 -1.06066 1.06066 
C -0.77937 1.341951 -0.397805 1.5 0 1.5 
z
" id="mccd3c23fb9" style="stroke:#ff00ff;"/>
    </defs>
    <g>
     <use style="fill:#ff00ff;stroke:#ff00ff;" x="257.961267" xlink:href="#mccd3c23fb9" y="71.551825"/>
     <use style="fill:#ff00ff;stroke:#ff00ff;" x="257.961267" xlink:href="#mccd3c23fb9" y="71.551825"/>
    </g>
   </g>
   <g id="line2d_40">
    <path d="M 45.512012 298.944 
L 45.512012 291.070951 
L 115.397021 291.070951 
L 115.397021 285.513505 
L 129.853291 285.513505 
L 129.853291 284.587264 
L 143.902815 284.587264 
L 143.902815 283.197902 
L 144.981877 283.197902 
L 144.981877 282.734782 
L 145.440832 282.734782 
L 145.497361 274.861733 
L 145.998045 274.861733 
L 146.107383 271.619889 
L 146.324022 271.619889 
L 146.324022 267.451805 
L 146.749392 267.451805 
L 146.749392 266.525564 
L 147.164632 266.525564 
L 147.164632 266.062443 
L 147.818997 266.062443 
L 147.818997 263.746841 
L 149.998846 263.746841 
L 149.998846 263.28372 
L 150.215485 263.28372 
L 150.215485 261.431238 
L 150.724698 261.431238 
L 150.724698 260.968117 
L 150.891184 260.968117 
L 150.973835 256.800033 
L 151.13797 256.800033 
L 151.13797 253.558189 
L 151.381313 253.558189 
L 151.381313 252.631948 
L 151.501723 252.631948 
L 151.501723 250.779466 
L 152.130233 250.779466 
L 152.130233 246.148261 
L 152.322086 246.148261 
L 152.322086 245.22202 
L 152.587184 245.22202 
L 152.587184 243.369538 
L 152.811246 243.369538 
L 152.885298 241.980176 
L 153.715038 241.980176 
L 153.715038 240.127694 
L 153.959927 240.127694 
L 154.029268 239.201453 
L 154.132765 239.201453 
L 154.167129 232.717766 
L 154.405793 232.717766 
L 154.473387 228.549681 
L 154.972161 228.549681 
L 154.972161 228.086561 
L 155.296925 228.086561 
L 155.393186 223.455355 
L 155.488919 223.455355 
L 155.488919 221.602873 
L 155.678822 221.602873 
L 155.741666 218.82415 
L 156.38821 218.82415 
L 156.478647 216.045427 
L 156.894595 216.045427 
L 156.894595 214.192945 
L 157.243392 214.192945 
L 157.272146 212.340463 
L 157.415209 212.340463 
L 157.415209 211.877342 
L 157.528821 211.877342 
L 157.528821 210.02486 
L 157.781772 210.02486 
L 157.781772 207.246137 
L 157.976006 207.246137 
L 158.031107 204.004294 
L 158.195371 204.004294 
L 158.276927 200.76245 
L 158.51933 200.76245 
L 158.51933 200.299329 
L 158.83738 200.299329 
L 158.83738 199.836209 
L 159.098062 199.836209 
L 159.098062 197.983727 
L 159.252621 197.983727 
L 159.278248 195.205004 
L 159.380382 195.205004 
L 159.380382 194.741883 
L 159.532469 194.741883 
L 159.532469 194.278763 
L 159.733212 194.278763 
L 159.733212 193.815642 
L 159.906985 193.815642 
L 160.005512 191.50004 
L 160.054568 191.50004 
L 160.054568 189.647558 
L 160.176607 189.647558 
L 160.273627 188.258196 
L 160.466062 188.258196 
L 160.513841 186.405714 
L 160.585265 186.405714 
L 160.585265 185.479473 
L 160.727241 185.479473 
L 160.727241 184.553232 
L 160.844678 184.553232 
L 160.891432 183.16387 
L 160.984566 183.16387 
L 161.054091 181.311388 
L 161.215247 181.311388 
L 161.26102 179.922027 
L 161.420284 179.922027 
L 161.420284 178.995786 
L 161.977497 178.995786 
L 161.977497 178.532665 
L 162.238764 178.532665 
L 162.238764 178.069545 
L 162.367945 178.069545 
L 162.453536 174.827701 
L 162.581141 174.827701 
L 162.581141 173.90146 
L 162.875305 173.90146 
L 162.9377 172.048978 
L 163.144084 172.048978 
L 163.205526 169.270255 
L 163.368321 169.270255 
L 163.368321 168.807134 
L 163.748975 168.807134 
L 163.788565 166.954652 
L 163.906798 166.954652 
L 164.004716 165.10217 
L 164.276 165.10217 
L 164.314412 164.175929 
L 164.505216 164.175929 
L 164.505216 162.323447 
L 164.693955 162.323447 
L 164.712717 160.934085 
L 164.824867 160.934085 
L 164.824867 160.470965 
L 164.954803 160.470965 
L 164.954803 160.007844 
L 165.120455 160.007844 
L 165.120455 159.544724 
L 165.320804 159.544724 
L 165.411116 157.229121 
L 165.46508 157.229121 
L 165.572509 154.913519 
L 165.732422 154.913519 
L 165.838222 153.987278 
L 165.960849 153.987278 
L 166.047915 149.356072 
L 166.134549 149.356072 
L 166.220754 147.966711 
L 166.374858 147.966711 
L 166.425924 146.114229 
L 166.544502 146.114229 
L 166.544502 144.724867 
L 166.74592 144.724867 
L 166.795913 143.798626 
L 166.994465 143.798626 
L 166.994465 142.872385 
L 167.320442 142.872385 
L 167.320442 141.946144 
L 167.481174 141.946144 
L 167.481174 141.019903 
L 168.078792 141.019903 
L 168.078792 139.630541 
L 168.309168 139.630541 
L 168.309168 138.7043 
L 169.446113 138.7043 
L 169.446113 138.24118 
L 170.201421 138.24118 
L 170.201421 137.314939 
L 170.674059 137.314939 
L 170.674059 136.388698 
L 170.793552 136.388698 
L 170.793552 135.462457 
L 171.082245 135.462457 
L 171.082245 134.999336 
L 172.361615 134.999336 
L 172.361615 134.536216 
L 172.920958 134.536216 
L 172.920958 134.073095 
L 173.268827 134.073095 
L 173.268827 132.683734 
L 173.855836 132.683734 
L 173.855836 131.757493 
L 173.999552 131.757493 
L 173.999552 130.831252 
L 174.616074 130.831252 
L 174.616074 130.368131 
L 175.098201 130.368131 
L 175.098201 128.052529 
L 175.657689 128.052529 
L 175.657689 127.589408 
L 176.267585 127.589408 
L 176.267585 127.126287 
L 176.847522 127.126287 
L 176.950079 125.736926 
L 178.607149 125.736926 
L 178.607149 124.810685 
L 178.792138 124.810685 
L 178.792138 124.347564 
L 179.392276 124.347564 
L 179.392276 123.884444 
L 180.320702 123.884444 
L 180.320702 122.958203 
L 180.707163 122.958203 
L 180.707163 122.495082 
L 182.688619 122.495082 
L 182.688619 122.031962 
L 183.332159 122.031962 
L 183.332159 121.105721 
L 184.802771 121.105721 
L 184.802771 120.17948 
L 185.212713 120.17948 
L 185.212713 119.716359 
L 186.762415 119.716359 
L 186.762415 119.253239 
L 188.480794 119.253239 
L 188.480794 118.790118 
L 188.851149 118.790118 
L 188.851149 117.863877 
L 189.881849 117.863877 
L 189.881849 117.400757 
L 190.859203 117.400757 
L 190.859203 116.937636 
L 192.169529 116.937636 
L 192.177295 115.548274 
L 193.70409 115.548274 
L 193.70409 115.085154 
L 193.870467 115.085154 
L 193.870467 114.622033 
L 194.581527 114.622033 
L 194.581527 113.695792 
L 195.707878 113.695792 
L 195.707878 113.232672 
L 197.510694 113.232672 
L 197.510694 112.769551 
L 197.766157 112.769551 
L 197.766157 112.306431 
L 206.642436 112.306431 
L 206.642436 111.84331 
L 207.622198 111.84331 
L 207.622198 111.38019 
L 209.763742 111.38019 
L 209.868229 109.527708 
L 211.402178 109.527708 
L 211.402178 109.064587 
L 212.091018 109.064587 
L 212.091018 108.138346 
L 212.506156 108.138346 
L 212.506156 106.748985 
L 213.088095 106.748985 
L 213.119667 105.359623 
L 213.337937 105.359623 
L 213.337937 104.433382 
L 213.540968 104.433382 
L 213.540968 103.970262 
L 214.330251 103.970262 
L 214.330251 103.507141 
L 215.896012 103.507141 
L 215.896012 103.04402 
L 218.660841 103.04402 
L 218.660841 102.5809 
L 219.572738 102.5809 
L 219.572738 101.654659 
L 219.808386 101.654659 
L 219.808386 100.265297 
L 222.805876 100.265297 
L 222.805876 99.339056 
L 223.277442 99.339056 
L 223.386074 97.486574 
L 225.152659 97.486574 
L 225.152659 97.023454 
L 225.340337 97.023454 
L 225.340337 96.097213 
L 225.586139 96.097213 
L 225.586139 95.634092 
L 225.918487 95.634092 
L 225.918487 94.707851 
L 226.152455 94.707851 
L 226.152455 94.244731 
L 226.726678 94.244731 
L 226.726678 93.31849 
L 227.246773 93.31849 
L 227.246773 92.855369 
L 230.124741 92.855369 
L 230.124741 91.929128 
L 239.205137 91.929128 
L 239.252717 90.076646 
L 239.358132 90.076646 
L 239.358132 89.613525 
L 239.484566 89.613525 
L 239.484566 89.150405 
L 239.865774 89.150405 
L 239.865774 88.687284 
L 240.636892 88.687284 
L 240.636892 87.761043 
L 240.784812 87.761043 
L 240.876391 85.908561 
L 241.050348 85.908561 
L 241.153428 83.592959 
L 241.280555 83.592959 
L 241.319788 82.203597 
L 241.606127 82.203597 
L 241.606127 81.740477 
L 241.83006 81.740477 
L 241.83006 81.277356 
L 241.985208 81.277356 
L 241.985208 80.351115 
L 242.461663 80.351115 
L 242.461663 79.887995 
L 243.287544 79.887995 
L 243.287544 78.961753 
L 244.271774 78.961753 
L 244.281365 76.646151 
L 244.396042 76.646151 
L 244.396042 76.18303 
L 246.511305 76.18303 
L 246.54124 74.793669 
L 246.792444 74.793669 
L 246.792444 73.404307 
L 248.326456 73.404307 
L 248.326456 72.941187 
L 250.626749 72.941187 
L 250.626749 72.478066 
L 257.232933 72.478066 
L 257.232933 72.014946 
L 257.961267 72.014946 
L 257.961267 71.551825 
L 338.688 71.551825 
L 338.688 71.551825 
" style="fill:none;stroke:#ff00ff;stroke-linecap:square;stroke-width:1.5;"/>
   </g>
   <g id="line2d_41">
    <defs>
     <path d="M 0 8.485281 
L 5.091169 0 
L 0 -8.485281 
L -5.091169 0 
z
" id="m4145d99692" style="stroke:#ff00ff;stroke-linejoin:miter;stroke-width:1.5;"/>
    </defs>
    <g>
     <use style="fill-opacity:0;stroke:#ff00ff;stroke-linejoin:miter;stroke-width:1.5;" x="150.215485" xlink:href="#m4145d99692" y="263.28372"/>
     <use style="fill-opacity:0;stroke:#ff00ff;stroke-linejoin:miter;stroke-width:1.5;" x="173.268827" xlink:href="#m4145d99692" y="134.073095"/>
     <use style="fill-opacity:0;stroke:#ff00ff;stroke-linejoin:miter;stroke-width:1.5;" x="243.287544" xlink:href="#m4145d99692" y="79.887995"/>
     <use style="fill-opacity:0;stroke:#ff00ff;stroke-linejoin:miter;stroke-width:1.5;" x="257.961267" xlink:href="#m4145d99692" y="71.551825"/>
     <use style="fill-opacity:0;stroke:#ff00ff;stroke-linejoin:miter;stroke-width:1.5;" x="257.961267" xlink:href="#m4145d99692" y="71.551825"/>
     <use style="fill-opacity:0;stroke:#ff00ff;stroke-linejoin:miter;stroke-width:1.5;" x="338.688" xlink:href="#m4145d99692" y="71.551825"/>
    </g>
   </g>
   <g id="line2d_42">
    <path style="fill:none;stroke:#ff00ff;stroke-linecap:square;stroke-width:1.5;"/>
    <g/>
   </g>
   <g id="line2d_43">
    <path clip-path="url(#p0d4fe39f6d)" d="M 258.387168 71.551825 
" style="fill:none;stroke:#ff00ff;stroke-linecap:square;stroke-width:1.5;"/>
    <defs>
     <path d="M -12 12 
L 12 -12 
M -12 -12 
L 12 12 
" id="mc40e567dbc" style="stroke:#ff00ff;"/>
    </defs>
    <g clip-path="url(#p0d4fe39f6d)">
     <use style="fill:#ff00ff;stroke:#ff00ff;" x="258.387168" xlink:href="#mc40e567dbc" y="71.551825"/>
    </g>
   </g>
   <g id="line2d_44">
    <defs>
     <path d="M 0 1.5 
C 0.397805 1.5 0.77937 1.341951 1.06066 1.06066 
C 1.341951 0.77937 1.5 0.397805 1.5 0 
C 1.5 -0.397805 1.341951 -0.77937 1.06066 -1.06066 
C 0.77937 -1.341951 0.397805 -1.5 0 -1.5 
C -0.397805 -1.5 -0.77937 -1.341951 -1.06066 -1.06066 
C -1.341951 -0.77937 -1.5 -0.397805 -1.5 0 
C -1.5 0.397805 -1.341951 0.77937 -1.06066 1.06066 
C -0.77937 1.341951 -0.397805 1.5 0 1.5 
z
" id="m559d247b28" style="stroke:#ff7500;"/>
    </defs>
    <g>
     <use style="fill:#ff7500;stroke:#ff7500;" x="200.366054" xlink:href="#m559d247b28" y="109.527708"/>
     <use style="fill:#ff7500;stroke:#ff7500;" x="200.366054" xlink:href="#m559d247b28" y="109.527708"/>
    </g>
   </g>
   <g id="line2d_45">
    <path d="M 142.283909 298.944 
L 142.283909 298.480879 
L 142.818488 298.480879 
L 142.818488 293.849674 
L 145.212864 293.849674 
L 145.212864 293.386554 
L 145.998045 293.386554 
L 145.998045 292.460313 
L 146.906268 292.460313 
L 146.906268 291.534072 
L 147.818997 291.534072 
L 147.818997 291.070951 
L 148.015498 291.070951 
L 148.015498 290.607831 
L 149.422654 290.607831 
L 149.422654 289.218469 
L 149.690956 289.218469 
L 149.690956 286.439746 
L 151.097081 286.439746 
L 151.097081 285.513505 
L 152.848312 285.513505 
L 152.959038 283.197902 
L 153.855395 283.197902 
L 153.855395 282.734782 
L 154.873541 282.734782 
L 154.873541 272.54613 
L 155.200129 272.54613 
L 155.200129 264.209961 
L 156.021696 264.209961 
L 156.021696 263.746841 
L 156.236431 263.746841 
L 156.236431 263.28372 
L 156.628341 263.28372 
L 156.628341 261.894358 
L 156.776762 261.894358 
L 156.776762 259.578756 
L 157.156845 259.578756 
L 157.156845 259.115635 
L 157.415209 259.115635 
L 157.415209 258.652515 
L 157.837488 258.652515 
L 157.920731 257.263153 
L 158.113432 257.263153 
L 158.113432 256.336912 
L 158.492562 256.336912 
L 158.492562 255.410671 
L 158.67908 255.410671 
L 158.732007 251.242587 
L 158.83738 251.242587 
L 158.83738 249.853225 
L 159.303838 249.853225 
L 159.303838 248.926984 
L 159.733212 248.926984 
L 159.733212 246.611381 
L 159.906985 246.611381 
L 159.980933 243.832658 
L 160.774311 243.832658 
L 160.774311 242.906417 
L 160.961329 242.906417 
L 160.961329 241.980176 
L 161.192316 241.980176 
L 161.192316 240.590815 
L 161.465522 240.590815 
L 161.465522 239.664574 
L 162.021314 239.664574 
L 162.021314 238.275212 
L 162.432178 238.275212 
L 162.53871 234.107127 
L 163.348054 234.107127 
L 163.348054 230.865284 
L 163.489428 230.865284 
L 163.549667 226.697199 
L 163.946031 226.697199 
L 164.043731 223.918476 
L 164.121498 223.918476 
L 164.121498 223.455355 
L 164.276 223.455355 
L 164.276 221.602873 
L 164.486229 221.602873 
L 164.580957 215.119186 
L 164.75018 215.119186 
L 164.806225 210.487981 
L 165.429123 210.487981 
L 165.429123 208.635499 
L 165.820633 208.635499 
L 165.873346 205.856776 
L 166.030537 205.856776 
L 166.065276 204.467414 
L 166.391896 204.467414 
L 166.391896 201.225571 
L 166.561376 201.225571 
L 166.628709 200.299329 
L 166.795913 200.299329 
L 166.795913 199.836209 
L 167.010909 199.836209 
L 167.010909 199.373088 
L 167.125588 199.373088 
L 167.174506 195.668124 
L 167.239518 195.668124 
L 167.255733 192.889401 
L 167.417059 192.889401 
L 167.417059 191.50004 
L 167.560988 191.50004 
L 167.576907 190.110678 
L 167.860992 190.110678 
L 167.860992 189.647558 
L 168.155922 189.647558 
L 168.155922 188.721316 
L 168.385289 188.721316 
L 168.385289 187.795075 
L 169.041203 187.795075 
L 169.041203 186.868834 
L 169.157854 186.868834 
L 169.157854 186.405714 
L 169.374494 186.405714 
L 169.417501 184.090111 
L 169.488944 184.090111 
L 169.488944 183.626991 
L 169.616809 183.626991 
L 169.616809 179.922027 
L 169.925477 179.922027 
L 169.967148 177.606424 
L 170.14658 177.606424 
L 170.14658 176.217062 
L 170.473066 176.217062 
L 170.553741 172.512098 
L 170.793552 172.512098 
L 170.793552 168.344014 
L 171.017051 168.344014 
L 171.017051 165.10217 
L 171.263501 165.10217 
L 171.263501 163.249688 
L 171.417378 163.249688 
L 171.481095 161.860326 
L 171.58256 161.860326 
L 171.58256 161.397206 
L 171.758716 161.397206 
L 171.758716 160.934085 
L 172.130306 160.934085 
L 172.130306 160.470965 
L 172.768032 160.470965 
L 172.768032 159.544724 
L 173.09576 159.544724 
L 173.15364 152.597916 
L 173.211329 152.597916 
L 173.31469 151.208554 
L 173.360433 151.208554 
L 173.360433 150.282313 
L 173.755642 150.282313 
L 173.755642 149.356072 
L 173.878023 149.356072 
L 173.878023 148.892952 
L 174.010558 148.892952 
L 174.043535 147.966711 
L 174.272644 147.966711 
L 174.272644 146.577349 
L 174.391462 146.577349 
L 174.455933 145.651108 
L 174.616074 145.651108 
L 174.616074 144.724867 
L 174.785287 144.724867 
L 174.785287 143.798626 
L 174.911127 143.798626 
L 174.942445 142.872385 
L 175.149812 142.872385 
L 175.149812 142.409265 
L 175.537141 142.409265 
L 175.577416 141.019903 
L 175.797284 141.019903 
L 175.797284 140.093662 
L 175.93577 140.093662 
L 175.93577 139.167421 
L 176.354372 139.167421 
L 176.354372 138.7043 
L 176.536182 138.7043 
L 176.593204 136.851818 
L 177.153401 136.851818 
L 177.153401 135.925577 
L 177.597911 135.925577 
L 177.597911 134.999336 
L 177.829252 134.999336 
L 177.829252 134.073095 
L 178.075003 134.073095 
L 178.075003 133.146854 
L 178.368833 133.146854 
L 178.368833 132.683734 
L 178.933752 132.683734 
L 178.933752 131.294372 
L 180.351324 131.294372 
L 180.351324 130.368131 
L 181.07791 130.368131 
L 181.07791 129.905011 
L 183.222213 129.905011 
L 183.222213 128.97877 
L 183.752557 128.97877 
L 183.752557 127.589408 
L 184.522016 127.589408 
L 184.522016 127.126287 
L 184.743413 127.126287 
L 184.743413 126.663167 
L 185.436997 126.663167 
L 185.545227 124.347564 
L 186.613497 124.347564 
L 186.613497 123.884444 
L 186.920572 123.884444 
L 186.931065 122.031962 
L 187.196524 122.031962 
L 187.196524 121.568841 
L 187.594861 121.568841 
L 187.594861 120.6426 
L 188.107306 120.6426 
L 188.107306 119.716359 
L 188.224578 119.716359 
L 188.224578 119.253239 
L 188.785252 119.253239 
L 188.785252 118.326998 
L 189.005501 118.326998 
L 189.056649 115.548274 
L 189.140025 115.548274 
L 189.140025 115.085154 
L 189.872989 115.085154 
L 189.872989 114.158913 
L 190.392431 114.158913 
L 190.392431 113.232672 
L 190.984366 113.232672 
L 190.984366 112.306431 
L 192.033055 112.306431 
L 192.033055 111.38019 
L 192.169529 111.38019 
L 192.169529 110.917069 
L 193.359245 110.917069 
L 193.359245 110.453949 
L 193.866943 110.453949 
L 193.866943 109.990828 
L 200.366054 109.990828 
L 200.366054 109.527708 
L 338.688 109.527708 
L 338.688 109.527708 
" style="fill:none;stroke:#ff7500;stroke-linecap:square;stroke-width:1.5;"/>
   </g>
   <g id="line2d_46">
    <defs>
     <path d="M 0 -6 
L -1.347084 -1.854102 
L -5.706339 -1.854102 
L -2.179628 0.708204 
L -3.526712 4.854102 
L -0 2.291796 
L 3.526712 4.854102 
L 2.179628 0.708204 
L 5.706339 -1.854102 
L 1.347084 -1.854102 
z
" id="mc96ac7dae4" style="stroke:#ff7500;stroke-linejoin:bevel;stroke-width:1.5;"/>
    </defs>
    <g>
     <use style="fill-opacity:0;stroke:#ff7500;stroke-linejoin:bevel;stroke-width:1.5;" x="178.368833" xlink:href="#mc96ac7dae4" y="132.683734"/>
     <use style="fill-opacity:0;stroke:#ff7500;stroke-linejoin:bevel;stroke-width:1.5;" x="200.366054" xlink:href="#mc96ac7dae4" y="109.990828"/>
     <use style="fill-opacity:0;stroke:#ff7500;stroke-linejoin:bevel;stroke-width:1.5;" x="200.366054" xlink:href="#mc96ac7dae4" y="109.527708"/>
     <use style="fill-opacity:0;stroke:#ff7500;stroke-linejoin:bevel;stroke-width:1.5;" x="200.366054" xlink:href="#mc96ac7dae4" y="109.527708"/>
     <use style="fill-opacity:0;stroke:#ff7500;stroke-linejoin:bevel;stroke-width:1.5;" x="338.688" xlink:href="#mc96ac7dae4" y="109.527708"/>
    </g>
   </g>
   <g id="line2d_47">
    <path style="fill:none;stroke:#ff7500;stroke-linecap:square;stroke-width:1.5;"/>
    <g/>
   </g>
   <g id="line2d_48">
    <path clip-path="url(#p0d4fe39f6d)" d="M 258.37723 109.527708 
" style="fill:none;stroke:#ff7500;stroke-linecap:square;stroke-width:1.5;"/>
    <defs>
     <path d="M -12 12 
L 12 -12 
M -12 -12 
L 12 12 
" id="m3950884260" style="stroke:#ff7500;"/>
    </defs>
    <g clip-path="url(#p0d4fe39f6d)">
     <use style="fill:#ff7500;stroke:#ff7500;" x="258.37723" xlink:href="#m3950884260" y="109.527708"/>
    </g>
   </g>
   <g id="line2d_49">
    <path d="M 338.688 109.527708 
L 369.60768 293.571802 
" style="fill:none;stroke:#ff7500;stroke-linecap:square;stroke-width:1.5;"/>
    <g>
     <use style="fill-opacity:0;stroke:#ff7500;stroke-linejoin:bevel;stroke-width:1.5;" x="338.688" xlink:href="#mc96ac7dae4" y="109.527708"/>
     <use style="fill-opacity:0;stroke:#ff7500;stroke-linejoin:bevel;stroke-width:1.5;" x="369.60768" xlink:href="#mc96ac7dae4" y="293.571802"/>
    </g>
   </g>
   <g id="line2d_50">
    <path d="M 338.688 71.551825 
L 369.60768 207.616634 
" style="fill:none;stroke:#ff00ff;stroke-linecap:square;stroke-width:1.5;"/>
    <g>
     <use style="fill-opacity:0;stroke:#ff00ff;stroke-linejoin:miter;stroke-width:1.5;" x="338.688" xlink:href="#m4145d99692" y="71.551825"/>
     <use style="fill-opacity:0;stroke:#ff00ff;stroke-linejoin:miter;stroke-width:1.5;" x="369.60768" xlink:href="#m4145d99692" y="207.616634"/>
    </g>
   </g>
   <g id="line2d_51">
    <path d="M 338.688 64.141897 
L 369.60768 121.661465 
" style="fill:none;stroke:#000080;stroke-linecap:square;stroke-width:1.5;"/>
    <g>
     <use style="fill-opacity:0;stroke:#000080;stroke-width:1.5;" x="338.688" xlink:href="#m019be0cc48" y="64.141897"/>
     <use style="fill-opacity:0;stroke:#000080;stroke-width:1.5;" x="369.60768" xlink:href="#m019be0cc48" y="121.661465"/>
    </g>
   </g>
   <g id="line2d_52">
    <path d="M 338.688 298.944 
L 338.688 30.334099 
" style="fill:none;stroke:#000000;stroke-linecap:square;stroke-width:1.5;"/>
   </g>
   <g id="patch_3">
    <path d="M 57.6 298.944 
L 57.6 27.648 
" style="fill:none;stroke:#000000;stroke-linecap:square;stroke-linejoin:miter;stroke-width:0.8;"/>
   </g>
   <g id="patch_4">
    <path d="M 338.688 298.944 
L 338.688 27.648 
" style="fill:none;stroke:#000000;stroke-linecap:square;stroke-linejoin:miter;stroke-width:0.8;"/>
   </g>
   <g id="patch_5">
    <path d="M 57.6 298.944 
L 338.688 298.944 
" style="fill:none;stroke:#000000;stroke-linecap:square;stroke-linejoin:miter;stroke-width:0.8;"/>
   </g>
   <g id="patch_6">
    <path d="M 57.6 27.648 
L 338.688 27.648 
" style="fill:none;stroke:#000000;stroke-linecap:square;stroke-linejoin:miter;stroke-width:0.8;"/>
   </g>
   <g id="text_13">
    <!-- SMS-EMOA- -->
    <g transform="translate(375.22944 298.262739)scale(0.17 -0.17)">
     <defs>
      <path d="M 53.515625 70.515625 
L 53.515625 60.890625 
Q 47.90625 63.578125 42.921875 64.890625 
Q 37.9375 66.21875 33.296875 66.21875 
Q 25.25 66.21875 20.875 63.09375 
Q 16.5 59.96875 16.5 54.203125 
Q 16.5 49.359375 19.40625 46.890625 
Q 22.3125 44.4375 30.421875 42.921875 
L 36.375 41.703125 
Q 47.40625 39.59375 52.65625 34.296875 
Q 57.90625 29 57.90625 20.125 
Q 57.90625 9.515625 50.796875 4.046875 
Q 43.703125 -1.421875 29.984375 -1.421875 
Q 24.8125 -1.421875 18.96875 -0.25 
Q 13.140625 0.921875 6.890625 3.21875 
L 6.890625 13.375 
Q 12.890625 10.015625 18.65625 8.296875 
Q 24.421875 6.59375 29.984375 6.59375 
Q 38.421875 6.59375 43.015625 9.90625 
Q 47.609375 13.234375 47.609375 19.390625 
Q 47.609375 24.75 44.3125 27.78125 
Q 41.015625 30.8125 33.5 32.328125 
L 27.484375 33.5 
Q 16.453125 35.6875 11.515625 40.375 
Q 6.59375 45.0625 6.59375 53.421875 
Q 6.59375 63.09375 13.40625 68.65625 
Q 20.21875 74.21875 32.171875 74.21875 
Q 37.3125 74.21875 42.625 73.28125 
Q 47.953125 72.359375 53.515625 70.515625 
z
" id="DejaVuSans-83"/>
      <path d="M 9.8125 72.90625 
L 24.515625 72.90625 
L 43.109375 23.296875 
L 61.8125 72.90625 
L 76.515625 72.90625 
L 76.515625 0 
L 66.890625 0 
L 66.890625 64.015625 
L 48.09375 14.015625 
L 38.1875 14.015625 
L 19.390625 64.015625 
L 19.390625 0 
L 9.8125 0 
z
" id="DejaVuSans-77"/>
      <path d="M 9.8125 72.90625 
L 55.90625 72.90625 
L 55.90625 64.59375 
L 19.671875 64.59375 
L 19.671875 43.015625 
L 54.390625 43.015625 
L 54.390625 34.71875 
L 19.671875 34.71875 
L 19.671875 8.296875 
L 56.78125 8.296875 
L 56.78125 0 
L 9.8125 0 
z
" id="DejaVuSans-69"/>
      <path d="M 39.40625 66.21875 
Q 28.65625 66.21875 22.328125 58.203125 
Q 16.015625 50.203125 16.015625 36.375 
Q 16.015625 22.609375 22.328125 14.59375 
Q 28.65625 6.59375 39.40625 6.59375 
Q 50.140625 6.59375 56.421875 14.59375 
Q 62.703125 22.609375 62.703125 36.375 
Q 62.703125 50.203125 56.421875 58.203125 
Q 50.140625 66.21875 39.40625 66.21875 
z
M 39.40625 74.21875 
Q 54.734375 74.21875 63.90625 63.9375 
Q 73.09375 53.65625 73.09375 36.375 
Q 73.09375 19.140625 63.90625 8.859375 
Q 54.734375 -1.421875 39.40625 -1.421875 
Q 24.03125 -1.421875 14.8125 8.828125 
Q 5.609375 19.09375 5.609375 36.375 
Q 5.609375 53.65625 14.8125 63.9375 
Q 24.03125 74.21875 39.40625 74.21875 
z
" id="DejaVuSans-79"/>
      <path d="M 34.1875 63.1875 
L 20.796875 26.90625 
L 47.609375 26.90625 
z
M 28.609375 72.90625 
L 39.796875 72.90625 
L 67.578125 0 
L 57.328125 0 
L 50.6875 18.703125 
L 17.828125 18.703125 
L 11.1875 0 
L 0.78125 0 
z
" id="DejaVuSans-65"/>
     </defs>
     <use xlink:href="#DejaVuSans-83"/>
     <use x="63.476562" xlink:href="#DejaVuSans-77"/>
     <use x="149.755859" xlink:href="#DejaVuSans-83"/>
     <use x="213.232422" xlink:href="#DejaVuSans-45"/>
     <use x="249.316406" xlink:href="#DejaVuSans-69"/>
     <use x="312.5" xlink:href="#DejaVuSans-77"/>
     <use x="398.779297" xlink:href="#DejaVuSans-79"/>
     <use x="475.740234" xlink:href="#DejaVuSans-65"/>
     <use x="541.898438" xlink:href="#DejaVuSans-45"/>
    </g>
   </g>
   <g id="text_14">
    <!-- NSGA-II-M -->
    <g transform="translate(375.22944 212.307571)scale(0.17 -0.17)">
     <defs>
      <path d="M 9.8125 72.90625 
L 23.09375 72.90625 
L 55.421875 11.921875 
L 55.421875 72.90625 
L 64.984375 72.90625 
L 64.984375 0 
L 51.703125 0 
L 19.390625 60.984375 
L 19.390625 0 
L 9.8125 0 
z
" id="DejaVuSans-78"/>
      <path d="M 59.515625 10.40625 
L 59.515625 29.984375 
L 43.40625 29.984375 
L 43.40625 38.09375 
L 69.28125 38.09375 
L 69.28125 6.78125 
Q 63.578125 2.734375 56.6875 0.65625 
Q 49.8125 -1.421875 42 -1.421875 
Q 24.90625 -1.421875 15.25 8.5625 
Q 5.609375 18.5625 5.609375 36.375 
Q 5.609375 54.25 15.25 64.234375 
Q 24.90625 74.21875 42 74.21875 
Q 49.125 74.21875 55.546875 72.453125 
Q 61.96875 70.703125 67.390625 67.28125 
L 67.390625 56.78125 
Q 61.921875 61.421875 55.765625 63.765625 
Q 49.609375 66.109375 42.828125 66.109375 
Q 29.4375 66.109375 22.71875 58.640625 
Q 16.015625 51.171875 16.015625 36.375 
Q 16.015625 21.625 22.71875 14.15625 
Q 29.4375 6.6875 42.828125 6.6875 
Q 48.046875 6.6875 52.140625 7.59375 
Q 56.25 8.5 59.515625 10.40625 
z
" id="DejaVuSans-71"/>
      <path d="M 9.8125 72.90625 
L 19.671875 72.90625 
L 19.671875 0 
L 9.8125 0 
z
" id="DejaVuSans-73"/>
     </defs>
     <use xlink:href="#DejaVuSans-78"/>
     <use x="74.804688" xlink:href="#DejaVuSans-83"/>
     <use x="138.28125" xlink:href="#DejaVuSans-71"/>
     <use x="215.771484" xlink:href="#DejaVuSans-65"/>
     <use x="281.929688" xlink:href="#DejaVuSans-45"/>
     <use x="318.013672" xlink:href="#DejaVuSans-73"/>
     <use x="347.505859" xlink:href="#DejaVuSans-73"/>
     <use x="376.998047" xlink:href="#DejaVuSans-45"/>
     <use x="413.082031" xlink:href="#DejaVuSans-77"/>
    </g>
   </g>
   <g id="text_15">
    <!-- COMO-100  -->
    <g transform="translate(375.22944 126.352403)scale(0.17 -0.17)">
     <defs>
      <path d="M 64.40625 67.28125 
L 64.40625 56.890625 
Q 59.421875 61.53125 53.78125 63.8125 
Q 48.140625 66.109375 41.796875 66.109375 
Q 29.296875 66.109375 22.65625 58.46875 
Q 16.015625 50.828125 16.015625 36.375 
Q 16.015625 21.96875 22.65625 14.328125 
Q 29.296875 6.6875 41.796875 6.6875 
Q 48.140625 6.6875 53.78125 8.984375 
Q 59.421875 11.28125 64.40625 15.921875 
L 64.40625 5.609375 
Q 59.234375 2.09375 53.4375 0.328125 
Q 47.65625 -1.421875 41.21875 -1.421875 
Q 24.65625 -1.421875 15.125 8.703125 
Q 5.609375 18.84375 5.609375 36.375 
Q 5.609375 53.953125 15.125 64.078125 
Q 24.65625 74.21875 41.21875 74.21875 
Q 47.75 74.21875 53.53125 72.484375 
Q 59.328125 70.75 64.40625 67.28125 
z
" id="DejaVuSans-67"/>
     </defs>
     <use xlink:href="#DejaVuSans-67"/>
     <use x="69.824219" xlink:href="#DejaVuSans-79"/>
     <use x="148.535156" xlink:href="#DejaVuSans-77"/>
     <use x="234.814453" xlink:href="#DejaVuSans-79"/>
     <use x="316.275391" xlink:href="#DejaVuSans-45"/>
     <use x="352.359375" xlink:href="#DejaVuSans-49"/>
     <use x="415.982422" xlink:href="#DejaVuSans-48"/>
     <use x="479.605469" xlink:href="#DejaVuSans-48"/>
     <use x="543.228516" xlink:href="#DejaVuSans-32"/>
    </g>
   </g>
   <g id="text_16">
    <!-- best 2016 -->
    <g transform="translate(375.22944 40.397235)scale(0.17 -0.17)">
     <defs>
      <path d="M 48.6875 27.296875 
Q 48.6875 37.203125 44.609375 42.84375 
Q 40.53125 48.484375 33.40625 48.484375 
Q 26.265625 48.484375 22.1875 42.84375 
Q 18.109375 37.203125 18.109375 27.296875 
Q 18.109375 17.390625 22.1875 11.75 
Q 26.265625 6.109375 33.40625 6.109375 
Q 40.53125 6.109375 44.609375 11.75 
Q 48.6875 17.390625 48.6875 27.296875 
z
M 18.109375 46.390625 
Q 20.953125 51.265625 25.265625 53.625 
Q 29.59375 56 35.59375 56 
Q 45.5625 56 51.78125 48.09375 
Q 58.015625 40.1875 58.015625 27.296875 
Q 58.015625 14.40625 51.78125 6.484375 
Q 45.5625 -1.421875 35.59375 -1.421875 
Q 29.59375 -1.421875 25.265625 0.953125 
Q 20.953125 3.328125 18.109375 8.203125 
L 18.109375 0 
L 9.078125 0 
L 9.078125 75.984375 
L 18.109375 75.984375 
z
" id="DejaVuSans-98"/>
     </defs>
     <use xlink:href="#DejaVuSans-98"/>
     <use x="63.476562" xlink:href="#DejaVuSans-101"/>
     <use x="125" xlink:href="#DejaVuSans-115"/>
     <use x="177.099609" xlink:href="#DejaVuSans-116"/>
     <use x="216.308594" xlink:href="#DejaVuSans-32"/>
     <use x="248.095703" xlink:href="#DejaVuSans-50"/>
     <use x="311.71875" xlink:href="#DejaVuSans-48"/>
     <use x="375.341797" xlink:href="#DejaVuSans-49"/>
     <use x="438.964844" xlink:href="#DejaVuSans-54"/>
    </g>
   </g>
   <g id="text_17">
    <!-- bbob-biobj f13, 2-D -->
    <g transform="translate(60.41088 38.111366)scale(0.102 -0.102)">
     <defs>
      <path d="M 9.421875 54.6875 
L 18.40625 54.6875 
L 18.40625 -0.984375 
Q 18.40625 -11.421875 14.421875 -16.109375 
Q 10.453125 -20.796875 1.609375 -20.796875 
L -1.8125 -20.796875 
L -1.8125 -13.1875 
L 0.59375 -13.1875 
Q 5.71875 -13.1875 7.5625 -10.8125 
Q 9.421875 -8.453125 9.421875 -0.984375 
z
M 9.421875 75.984375 
L 18.40625 75.984375 
L 18.40625 64.59375 
L 9.421875 64.59375 
z
" id="DejaVuSans-106"/>
      <path d="M 40.578125 39.3125 
Q 47.65625 37.796875 51.625 33 
Q 55.609375 28.21875 55.609375 21.1875 
Q 55.609375 10.40625 48.1875 4.484375 
Q 40.765625 -1.421875 27.09375 -1.421875 
Q 22.515625 -1.421875 17.65625 -0.515625 
Q 12.796875 0.390625 7.625 2.203125 
L 7.625 11.71875 
Q 11.71875 9.328125 16.59375 8.109375 
Q 21.484375 6.890625 26.8125 6.890625 
Q 36.078125 6.890625 40.9375 10.546875 
Q 45.796875 14.203125 45.796875 21.1875 
Q 45.796875 27.640625 41.28125 31.265625 
Q 36.765625 34.90625 28.71875 34.90625 
L 20.21875 34.90625 
L 20.21875 43.015625 
L 29.109375 43.015625 
Q 36.375 43.015625 40.234375 45.921875 
Q 44.09375 48.828125 44.09375 54.296875 
Q 44.09375 59.90625 40.109375 62.90625 
Q 36.140625 65.921875 28.71875 65.921875 
Q 24.65625 65.921875 20.015625 65.03125 
Q 15.375 64.15625 9.8125 62.3125 
L 9.8125 71.09375 
Q 15.4375 72.65625 20.34375 73.4375 
Q 25.25 74.21875 29.59375 74.21875 
Q 40.828125 74.21875 47.359375 69.109375 
Q 53.90625 64.015625 53.90625 55.328125 
Q 53.90625 49.265625 50.4375 45.09375 
Q 46.96875 40.921875 40.578125 39.3125 
z
" id="DejaVuSans-51"/>
      <path d="M 19.671875 64.796875 
L 19.671875 8.109375 
L 31.59375 8.109375 
Q 46.6875 8.109375 53.6875 14.9375 
Q 60.6875 21.78125 60.6875 36.53125 
Q 60.6875 51.171875 53.6875 57.984375 
Q 46.6875 64.796875 31.59375 64.796875 
z
M 9.8125 72.90625 
L 30.078125 72.90625 
Q 51.265625 72.90625 61.171875 64.09375 
Q 71.09375 55.28125 71.09375 36.53125 
Q 71.09375 17.671875 61.125 8.828125 
Q 51.171875 0 30.078125 0 
L 9.8125 0 
z
" id="DejaVuSans-68"/>
     </defs>
     <use xlink:href="#DejaVuSans-98"/>
     <use x="63.476562" xlink:href="#DejaVuSans-98"/>
     <use x="126.953125" xlink:href="#DejaVuSans-111"/>
     <use x="188.134766" xlink:href="#DejaVuSans-98"/>
     <use x="251.611328" xlink:href="#DejaVuSans-45"/>
     <use x="287.695312" xlink:href="#DejaVuSans-98"/>
     <use x="351.171875" xlink:href="#DejaVuSans-105"/>
     <use x="378.955078" xlink:href="#DejaVuSans-111"/>
     <use x="440.136719" xlink:href="#DejaVuSans-98"/>
     <use x="503.613281" xlink:href="#DejaVuSans-106"/>
     <use x="531.396484" xlink:href="#DejaVuSans-32"/>
     <use x="563.183594" xlink:href="#DejaVuSans-102"/>
     <use x="598.388672" xlink:href="#DejaVuSans-49"/>
     <use x="662.011719" xlink:href="#DejaVuSans-51"/>
     <use x="725.634766" xlink:href="#DejaVuSans-44"/>
     <use x="757.421875" xlink:href="#DejaVuSans-32"/>
     <use x="789.208984" xlink:href="#DejaVuSans-50"/>
     <use x="852.832031" xlink:href="#DejaVuSans-45"/>
     <use x="888.916016" xlink:href="#DejaVuSans-68"/>
    </g>
    <!-- 58 targets: 1..-1.0e-4 -->
    <g transform="translate(60.41088 49.533135)scale(0.102 -0.102)">
     <defs>
      <path d="M 10.796875 72.90625 
L 49.515625 72.90625 
L 49.515625 64.59375 
L 19.828125 64.59375 
L 19.828125 46.734375 
Q 21.96875 47.46875 24.109375 47.828125 
Q 26.265625 48.1875 28.421875 48.1875 
Q 40.625 48.1875 47.75 41.5 
Q 54.890625 34.8125 54.890625 23.390625 
Q 54.890625 11.625 47.5625 5.09375 
Q 40.234375 -1.421875 26.90625 -1.421875 
Q 22.3125 -1.421875 17.546875 -0.640625 
Q 12.796875 0.140625 7.71875 1.703125 
L 7.71875 11.625 
Q 12.109375 9.234375 16.796875 8.0625 
Q 21.484375 6.890625 26.703125 6.890625 
Q 35.15625 6.890625 40.078125 11.328125 
Q 45.015625 15.765625 45.015625 23.390625 
Q 45.015625 31 40.078125 35.4375 
Q 35.15625 39.890625 26.703125 39.890625 
Q 22.75 39.890625 18.8125 39.015625 
Q 14.890625 38.140625 10.796875 36.28125 
z
" id="DejaVuSans-53"/>
      <path d="M 11.71875 12.40625 
L 22.015625 12.40625 
L 22.015625 0 
L 11.71875 0 
z
M 11.71875 51.703125 
L 22.015625 51.703125 
L 22.015625 39.3125 
L 11.71875 39.3125 
z
" id="DejaVuSans-58"/>
     </defs>
     <use xlink:href="#DejaVuSans-53"/>
     <use x="63.623047" xlink:href="#DejaVuSans-56"/>
     <use x="127.246094" xlink:href="#DejaVuSans-32"/>
     <use x="159.033203" xlink:href="#DejaVuSans-116"/>
     <use x="198.242188" xlink:href="#DejaVuSans-97"/>
     <use x="259.521484" xlink:href="#DejaVuSans-114"/>
     <use x="298.884766" xlink:href="#DejaVuSans-103"/>
     <use x="362.361328" xlink:href="#DejaVuSans-101"/>
     <use x="423.884766" xlink:href="#DejaVuSans-116"/>
     <use x="463.09375" xlink:href="#DejaVuSans-115"/>
     <use x="515.193359" xlink:href="#DejaVuSans-58"/>
     <use x="548.884766" xlink:href="#DejaVuSans-32"/>
     <use x="580.671875" xlink:href="#DejaVuSans-49"/>
     <use x="644.294922" xlink:href="#DejaVuSans-46"/>
     <use x="676.082031" xlink:href="#DejaVuSans-46"/>
     <use x="707.869141" xlink:href="#DejaVuSans-45"/>
     <use x="743.953125" xlink:href="#DejaVuSans-49"/>
     <use x="807.576172" xlink:href="#DejaVuSans-46"/>
     <use x="839.363281" xlink:href="#DejaVuSans-48"/>
     <use x="902.986328" xlink:href="#DejaVuSans-101"/>
     <use x="964.509766" xlink:href="#DejaVuSans-45"/>
     <use x="1000.59375" xlink:href="#DejaVuSans-52"/>
    </g>
    <!-- 10 instances -->
    <g transform="translate(60.41088 60.954904)scale(0.102 -0.102)">
     <use xlink:href="#DejaVuSans-49"/>
     <use x="63.623047" xlink:href="#DejaVuSans-48"/>
     <use x="127.246094" xlink:href="#DejaVuSans-32"/>
     <use x="159.033203" xlink:href="#DejaVuSans-105"/>
     <use x="186.816406" xlink:href="#DejaVuSans-110"/>
     <use x="250.195312" xlink:href="#DejaVuSans-115"/>
     <use x="302.294922" xlink:href="#DejaVuSans-116"/>
     <use x="341.503906" xlink:href="#DejaVuSans-97"/>
     <use x="402.783203" xlink:href="#DejaVuSans-110"/>
     <use x="466.162109" xlink:href="#DejaVuSans-99"/>
     <use x="521.142578" xlink:href="#DejaVuSans-101"/>
     <use x="582.666016" xlink:href="#DejaVuSans-115"/>
    </g>
   </g>
   <g id="text_18">
    <!-- v2.4.19, hv-hash=ff0e71e8cd978373 -->
    <g style="fill:#808080;" transform="translate(104.697125 294.151352)scale(0.1 -0.1)">
     <defs>
      <path d="M 10.984375 1.515625 
L 10.984375 10.5 
Q 14.703125 8.734375 18.5 7.8125 
Q 22.3125 6.890625 25.984375 6.890625 
Q 35.75 6.890625 40.890625 13.453125 
Q 46.046875 20.015625 46.78125 33.40625 
Q 43.953125 29.203125 39.59375 26.953125 
Q 35.25 24.703125 29.984375 24.703125 
Q 19.046875 24.703125 12.671875 31.3125 
Q 6.296875 37.9375 6.296875 49.421875 
Q 6.296875 60.640625 12.9375 67.421875 
Q 19.578125 74.21875 30.609375 74.21875 
Q 43.265625 74.21875 49.921875 64.515625 
Q 56.59375 54.828125 56.59375 36.375 
Q 56.59375 19.140625 48.40625 8.859375 
Q 40.234375 -1.421875 26.421875 -1.421875 
Q 22.703125 -1.421875 18.890625 -0.6875 
Q 15.09375 0.046875 10.984375 1.515625 
z
M 30.609375 32.421875 
Q 37.25 32.421875 41.125 36.953125 
Q 45.015625 41.5 45.015625 49.421875 
Q 45.015625 57.28125 41.125 61.84375 
Q 37.25 66.40625 30.609375 66.40625 
Q 23.96875 66.40625 20.09375 61.84375 
Q 16.21875 57.28125 16.21875 49.421875 
Q 16.21875 41.5 20.09375 36.953125 
Q 23.96875 32.421875 30.609375 32.421875 
z
" id="DejaVuSans-57"/>
      <path d="M 54.890625 33.015625 
L 54.890625 0 
L 45.90625 0 
L 45.90625 32.71875 
Q 45.90625 40.484375 42.875 44.328125 
Q 39.84375 48.1875 33.796875 48.1875 
Q 26.515625 48.1875 22.3125 43.546875 
Q 18.109375 38.921875 18.109375 30.90625 
L 18.109375 0 
L 9.078125 0 
L 9.078125 75.984375 
L 18.109375 75.984375 
L 18.109375 46.1875 
Q 21.34375 51.125 25.703125 53.5625 
Q 30.078125 56 35.796875 56 
Q 45.21875 56 50.046875 50.171875 
Q 54.890625 44.34375 54.890625 33.015625 
z
" id="DejaVuSans-104"/>
      <path d="M 10.59375 45.40625 
L 73.1875 45.40625 
L 73.1875 37.203125 
L 10.59375 37.203125 
z
M 10.59375 25.484375 
L 73.1875 25.484375 
L 73.1875 17.1875 
L 10.59375 17.1875 
z
" id="DejaVuSans-61"/>
      <path d="M 8.203125 72.90625 
L 55.078125 72.90625 
L 55.078125 68.703125 
L 28.609375 0 
L 18.3125 0 
L 43.21875 64.59375 
L 8.203125 64.59375 
z
" id="DejaVuSans-55"/>
     </defs>
     <use xlink:href="#DejaVuSans-118"/>
     <use x="59.179688" xlink:href="#DejaVuSans-50"/>
     <use x="122.802734" xlink:href="#DejaVuSans-46"/>
     <use x="154.589844" xlink:href="#DejaVuSans-52"/>
     <use x="218.212891" xlink:href="#DejaVuSans-46"/>
     <use x="250" xlink:href="#DejaVuSans-49"/>
     <use x="313.623047" xlink:href="#DejaVuSans-57"/>
     <use x="377.246094" xlink:href="#DejaVuSans-44"/>
     <use x="409.033203" xlink:href="#DejaVuSans-32"/>
     <use x="440.820312" xlink:href="#DejaVuSans-104"/>
     <use x="504.199219" xlink:href="#DejaVuSans-118"/>
     <use x="560.753906" xlink:href="#DejaVuSans-45"/>
     <use x="596.837891" xlink:href="#DejaVuSans-104"/>
     <use x="660.216797" xlink:href="#DejaVuSans-97"/>
     <use x="721.496094" xlink:href="#DejaVuSans-115"/>
     <use x="773.595703" xlink:href="#DejaVuSans-104"/>
     <use x="836.974609" xlink:href="#DejaVuSans-61"/>
     <use x="920.763672" xlink:href="#DejaVuSans-102"/>
     <use x="955.96875" xlink:href="#DejaVuSans-102"/>
     <use x="991.173828" xlink:href="#DejaVuSans-48"/>
     <use x="1054.796875" xlink:href="#DejaVuSans-101"/>
     <use x="1116.320312" xlink:href="#DejaVuSans-55"/>
     <use x="1179.943359" xlink:href="#DejaVuSans-49"/>
     <use x="1243.566406" xlink:href="#DejaVuSans-101"/>
     <use x="1305.089844" xlink:href="#DejaVuSans-56"/>
     <use x="1368.712891" xlink:href="#DejaVuSans-99"/>
     <use x="1423.693359" xlink:href="#DejaVuSans-100"/>
     <use x="1487.169922" xlink:href="#DejaVuSans-57"/>
     <use x="1550.792969" xlink:href="#DejaVuSans-55"/>
     <use x="1614.416016" xlink:href="#DejaVuSans-56"/>
     <use x="1678.039062" xlink:href="#DejaVuSans-51"/>
     <use x="1741.662109" xlink:href="#DejaVuSans-55"/>
     <use x="1805.285156" xlink:href="#DejaVuSans-51"/>
    </g>
   </g>
   <g id="text_19">
    <!-- 13 sep. Ellipsoid/Rosenbrock -->
    <g transform="translate(55.389312 21.648)scale(0.2 -0.2)">
     <defs>
      <path d="M 44.390625 34.1875 
Q 47.5625 33.109375 50.5625 29.59375 
Q 53.5625 26.078125 56.59375 19.921875 
L 66.609375 0 
L 56 0 
L 46.6875 18.703125 
Q 43.0625 26.03125 39.671875 28.421875 
Q 36.28125 30.8125 30.421875 30.8125 
L 19.671875 30.8125 
L 19.671875 0 
L 9.8125 0 
L 9.8125 72.90625 
L 32.078125 72.90625 
Q 44.578125 72.90625 50.734375 67.671875 
Q 56.890625 62.453125 56.890625 51.90625 
Q 56.890625 45.015625 53.6875 40.46875 
Q 50.484375 35.9375 44.390625 34.1875 
z
M 19.671875 64.796875 
L 19.671875 38.921875 
L 32.078125 38.921875 
Q 39.203125 38.921875 42.84375 42.21875 
Q 46.484375 45.515625 46.484375 51.90625 
Q 46.484375 58.296875 42.84375 61.546875 
Q 39.203125 64.796875 32.078125 64.796875 
z
" id="DejaVuSans-82"/>
      <path d="M 9.078125 75.984375 
L 18.109375 75.984375 
L 18.109375 31.109375 
L 44.921875 54.6875 
L 56.390625 54.6875 
L 27.390625 29.109375 
L 57.625 0 
L 45.90625 0 
L 18.109375 26.703125 
L 18.109375 0 
L 9.078125 0 
z
" id="DejaVuSans-107"/>
     </defs>
     <use xlink:href="#DejaVuSans-49"/>
     <use x="63.623047" xlink:href="#DejaVuSans-51"/>
     <use x="127.246094" xlink:href="#DejaVuSans-32"/>
     <use x="159.033203" xlink:href="#DejaVuSans-115"/>
     <use x="211.132812" xlink:href="#DejaVuSans-101"/>
     <use x="272.65625" xlink:href="#DejaVuSans-112"/>
     <use x="336.132812" xlink:href="#DejaVuSans-46"/>
     <use x="367.919922" xlink:href="#DejaVuSans-32"/>
     <use x="399.707031" xlink:href="#DejaVuSans-69"/>
     <use x="462.890625" xlink:href="#DejaVuSans-108"/>
     <use x="490.673828" xlink:href="#DejaVuSans-108"/>
     <use x="518.457031" xlink:href="#DejaVuSans-105"/>
     <use x="546.240234" xlink:href="#DejaVuSans-112"/>
     <use x="609.716797" xlink:href="#DejaVuSans-115"/>
     <use x="661.816406" xlink:href="#DejaVuSans-111"/>
     <use x="722.998047" xlink:href="#DejaVuSans-105"/>
     <use x="750.78125" xlink:href="#DejaVuSans-100"/>
     <use x="814.257812" xlink:href="#DejaVuSans-47"/>
     <use x="847.949219" xlink:href="#DejaVuSans-82"/>
     <use x="912.931641" xlink:href="#DejaVuSans-111"/>
     <use x="974.113281" xlink:href="#DejaVuSans-115"/>
     <use x="1026.212891" xlink:href="#DejaVuSans-101"/>
     <use x="1087.736328" xlink:href="#DejaVuSans-110"/>
     <use x="1151.115234" xlink:href="#DejaVuSans-98"/>
     <use x="1214.591797" xlink:href="#DejaVuSans-114"/>
     <use x="1253.455078" xlink:href="#DejaVuSans-111"/>
     <use x="1314.636719" xlink:href="#DejaVuSans-99"/>
     <use x="1369.617188" xlink:href="#DejaVuSans-107"/>
    </g>
   </g>
  </g>
 </g>
 <defs>
  <clipPath id="p0d4fe39f6d">
   <rect height="271.296" width="281.088" x="57.6" y="27.648"/>
  </clipPath>
 </defs>
</svg>
