<?xml version="1.0" encoding="utf-8" standalone="no"?>
<!DOCTYPE svg PUBLIC "-//W3C//DTD SVG 1.1//EN"
  "http://www.w3.org/Graphics/SVG/1.1/DTD/svg11.dtd">
<!-- Created with matplotlib (https://matplotlib.org/) -->
<svg height="345.6pt" version="1.1" viewBox="0 0 460.8 345.6" width="460.8pt" xmlns="http://www.w3.org/2000/svg" xmlns:xlink="http://www.w3.org/1999/xlink">
 <metadata>
  <rdf:RDF xmlns:cc="http://creativecommons.org/ns#" xmlns:dc="http://purl.org/dc/elements/1.1/" xmlns:rdf="http://www.w3.org/1999/02/22-rdf-syntax-ns#">
   <cc:Work>
    <dc:type rdf:resource="http://purl.org/dc/dcmitype/StillImage"/>
    <dc:date>2021-04-26T15:04:22.064937</dc:date>
    <dc:format>image/svg+xml</dc:format>
    <dc:creator>
     <cc:Agent>
      <dc:title>Matplotlib v3.3.2, https://matplotlib.org/</dc:title>
     </cc:Agent>
    </dc:creator>
   </cc:Work>
  </rdf:RDF>
 </metadata>
 <defs>
  <style type="text/css">*{stroke-linecap:butt;stroke-linejoin:round;}</style>
 </defs>
 <g id="figure_1">
  <g id="patch_1">
   <path d="M 0 345.6 
L 460.8 345.6 
L 460.8 0 
L 0 0 
z
" style="fill:#ffffff;"/>
  </g>
  <g id="axes_1">
   <g id="patch_2">
    <path d="M 57.6 298.944 
L 338.688 298.944 
L 338.688 27.648 
L 57.6 27.648 
z
" style="fill:#ffffff;"/>
   </g>
   <g id="line2d_1">
    <path d="M 17.444571 298.944 
L 17.444571 294.312795 
L 41.620548 294.312795 
L 41.620548 285.050384 
L 83.830028 285.050384 
L 83.830028 275.787974 
L 92.969447 275.787974 
L 92.969447 271.156769 
L 97.580158 271.156769 
L 97.580158 257.263153 
L 100.343767 257.263153 
L 100.343767 248.000743 
L 105.621863 248.000743 
L 105.621863 243.369538 
L 118.786692 243.369538 
L 118.786692 234.107127 
L 128.531065 234.107127 
L 128.531065 220.213512 
L 132.446401 220.213512 
L 132.446401 210.951101 
L 136.189322 210.951101 
L 136.189322 201.688691 
L 141.235139 201.688691 
L 141.235139 192.426281 
L 145.395476 192.426281 
L 145.395476 187.795075 
L 150.059777 187.795075 
L 150.059777 173.90146 
L 155.653621 173.90146 
L 155.653621 169.270255 
L 160.882091 169.270255 
L 160.882091 155.376639 
L 165.869837 155.376639 
L 165.869837 146.114229 
L 170.938496 146.114229 
L 170.938496 141.483024 
L 180.044214 141.483024 
L 180.044214 127.589408 
L 188.952334 127.589408 
L 188.952334 122.958203 
L 197.582602 122.958203 
L 197.582602 109.064587 
L 207.097827 109.064587 
L 207.097827 99.802177 
L 218.961111 99.802177 
L 218.961111 90.539766 
L 241.150618 90.539766 
L 241.150618 85.908561 
L 252.961953 85.908561 
L 252.961953 76.646151 
L 272.332541 76.646151 
L 272.332541 62.752535 
L 338.688 62.752535 
" style="fill:none;stroke:#f5deb3;stroke-linecap:square;stroke-width:4;"/>
   </g>
   <g id="line2d_2">
    <defs>
     <path d="M 0 7.778175 
L 7.778175 0 
L 0 -7.778175 
L -7.778175 0 
z
" id="m0570a8ee5d" style="stroke:#f5deb3;stroke-linejoin:miter;stroke-width:1.5;"/>
    </defs>
    <g>
     <use style="fill:#f5deb3;stroke:#f5deb3;stroke-linejoin:miter;stroke-width:1.5;" x="118.786692" xlink:href="#m0570a8ee5d" y="234.107127"/>
     <use style="fill:#f5deb3;stroke:#f5deb3;stroke-linejoin:miter;stroke-width:1.5;" x="170.938496" xlink:href="#m0570a8ee5d" y="146.114229"/>
     <use style="fill:#f5deb3;stroke:#f5deb3;stroke-linejoin:miter;stroke-width:1.5;" x="218.961111" xlink:href="#m0570a8ee5d" y="99.802177"/>
     <use style="fill:#f5deb3;stroke:#f5deb3;stroke-linejoin:miter;stroke-width:1.5;" x="272.332541" xlink:href="#m0570a8ee5d" y="62.752535"/>
     <use style="fill:#f5deb3;stroke:#f5deb3;stroke-linejoin:miter;stroke-width:1.5;" x="272.332541" xlink:href="#m0570a8ee5d" y="62.752535"/>
     <use style="fill:#f5deb3;stroke:#f5deb3;stroke-linejoin:miter;stroke-width:1.5;" x="338.688" xlink:href="#m0570a8ee5d" y="62.752535"/>
    </g>
   </g>
   <g id="line2d_3">
    <path style="fill:none;stroke:#f5deb3;stroke-linecap:square;stroke-width:4;"/>
    <g/>
   </g>
   <g id="line2d_4">
    <path d="M 338.688 62.752535 
L 369.60768 35.706297 
" style="fill:none;stroke:#f5deb3;stroke-linecap:square;stroke-width:4;"/>
    <g>
     <use style="fill:#f5deb3;stroke:#f5deb3;stroke-linejoin:miter;stroke-width:1.5;" x="338.688" xlink:href="#m0570a8ee5d" y="62.752535"/>
     <use style="fill:#f5deb3;stroke:#f5deb3;stroke-linejoin:miter;stroke-width:1.5;" x="369.60768" xlink:href="#m0570a8ee5d" y="35.706297"/>
    </g>
   </g>
   <g id="matplotlib.axis_1">
    <g id="xtick_1">
     <g id="line2d_5">
      <path clip-path="url(#p597326a8a5)" d="M 57.6 298.944 
L 57.6 27.648 
" style="fill:none;stroke:#b0b0b0;stroke-linecap:square;stroke-width:0.8;"/>
     </g>
     <g id="line2d_6">
      <defs>
       <path d="M 0 0 
L 0 3.5 
" id="mafa5c96fc5" style="stroke:#000000;stroke-width:0.8;"/>
      </defs>
      <g>
       <use style="stroke:#000000;stroke-width:0.8;" x="57.6" xlink:href="#mafa5c96fc5" y="298.944"/>
      </g>
     </g>
     <g id="text_1">
      <!-- 0 -->
      <g transform="translate(51.2375 321.140875)scale(0.2 -0.2)">
       <defs>
        <path d="M 31.78125 66.40625 
Q 24.171875 66.40625 20.328125 58.90625 
Q 16.5 51.421875 16.5 36.375 
Q 16.5 21.390625 20.328125 13.890625 
Q 24.171875 6.390625 31.78125 6.390625 
Q 39.453125 6.390625 43.28125 13.890625 
Q 47.125 21.390625 47.125 36.375 
Q 47.125 51.421875 43.28125 58.90625 
Q 39.453125 66.40625 31.78125 66.40625 
z
M 31.78125 74.21875 
Q 44.046875 74.21875 50.515625 64.515625 
Q 56.984375 54.828125 56.984375 36.375 
Q 56.984375 17.96875 50.515625 8.265625 
Q 44.046875 -1.421875 31.78125 -1.421875 
Q 19.53125 -1.421875 13.0625 8.265625 
Q 6.59375 17.96875 6.59375 36.375 
Q 6.59375 54.828125 13.0625 64.515625 
Q 19.53125 74.21875 31.78125 74.21875 
z
" id="DejaVuSans-48"/>
       </defs>
       <use xlink:href="#DejaVuSans-48"/>
      </g>
     </g>
    </g>
    <g id="xtick_2">
     <g id="line2d_7">
      <path clip-path="url(#p597326a8a5)" d="M 137.910857 298.944 
L 137.910857 27.648 
" style="fill:none;stroke:#b0b0b0;stroke-linecap:square;stroke-width:0.8;"/>
     </g>
     <g id="line2d_8">
      <g>
       <use style="stroke:#000000;stroke-width:0.8;" x="137.910857" xlink:href="#mafa5c96fc5" y="298.944"/>
      </g>
     </g>
     <g id="text_2">
      <!-- 2 -->
      <g transform="translate(131.548357 321.140875)scale(0.2 -0.2)">
       <defs>
        <path d="M 19.1875 8.296875 
L 53.609375 8.296875 
L 53.609375 0 
L 7.328125 0 
L 7.328125 8.296875 
Q 12.9375 14.109375 22.625 23.890625 
Q 32.328125 33.6875 34.8125 36.53125 
Q 39.546875 41.84375 41.421875 45.53125 
Q 43.3125 49.21875 43.3125 52.78125 
Q 43.3125 58.59375 39.234375 62.25 
Q 35.15625 65.921875 28.609375 65.921875 
Q 23.96875 65.921875 18.8125 64.3125 
Q 13.671875 62.703125 7.8125 59.421875 
L 7.8125 69.390625 
Q 13.765625 71.78125 18.9375 73 
Q 24.125 74.21875 28.421875 74.21875 
Q 39.75 74.21875 46.484375 68.546875 
Q 53.21875 62.890625 53.21875 53.421875 
Q 53.21875 48.921875 51.53125 44.890625 
Q 49.859375 40.875 45.40625 35.40625 
Q 44.1875 33.984375 37.640625 27.21875 
Q 31.109375 20.453125 19.1875 8.296875 
z
" id="DejaVuSans-50"/>
       </defs>
       <use xlink:href="#DejaVuSans-50"/>
      </g>
     </g>
    </g>
    <g id="xtick_3">
     <g id="line2d_9">
      <path clip-path="url(#p597326a8a5)" d="M 218.221714 298.944 
L 218.221714 27.648 
" style="fill:none;stroke:#b0b0b0;stroke-linecap:square;stroke-width:0.8;"/>
     </g>
     <g id="line2d_10">
      <g>
       <use style="stroke:#000000;stroke-width:0.8;" x="218.221714" xlink:href="#mafa5c96fc5" y="298.944"/>
      </g>
     </g>
     <g id="text_3">
      <!-- 4 -->
      <g transform="translate(211.859214 321.140875)scale(0.2 -0.2)">
       <defs>
        <path d="M 37.796875 64.3125 
L 12.890625 25.390625 
L 37.796875 25.390625 
z
M 35.203125 72.90625 
L 47.609375 72.90625 
L 47.609375 25.390625 
L 58.015625 25.390625 
L 58.015625 17.1875 
L 47.609375 17.1875 
L 47.609375 0 
L 37.796875 0 
L 37.796875 17.1875 
L 4.890625 17.1875 
L 4.890625 26.703125 
z
" id="DejaVuSans-52"/>
       </defs>
       <use xlink:href="#DejaVuSans-52"/>
      </g>
     </g>
    </g>
    <g id="xtick_4">
     <g id="line2d_11">
      <path clip-path="url(#p597326a8a5)" d="M 298.532571 298.944 
L 298.532571 27.648 
" style="fill:none;stroke:#b0b0b0;stroke-linecap:square;stroke-width:0.8;"/>
     </g>
     <g id="line2d_12">
      <g>
       <use style="stroke:#000000;stroke-width:0.8;" x="298.532571" xlink:href="#mafa5c96fc5" y="298.944"/>
      </g>
     </g>
     <g id="text_4">
      <!-- 6 -->
      <g transform="translate(292.170071 321.140875)scale(0.2 -0.2)">
       <defs>
        <path d="M 33.015625 40.375 
Q 26.375 40.375 22.484375 35.828125 
Q 18.609375 31.296875 18.609375 23.390625 
Q 18.609375 15.53125 22.484375 10.953125 
Q 26.375 6.390625 33.015625 6.390625 
Q 39.65625 6.390625 43.53125 10.953125 
Q 47.40625 15.53125 47.40625 23.390625 
Q 47.40625 31.296875 43.53125 35.828125 
Q 39.65625 40.375 33.015625 40.375 
z
M 52.59375 71.296875 
L 52.59375 62.3125 
Q 48.875 64.0625 45.09375 64.984375 
Q 41.3125 65.921875 37.59375 65.921875 
Q 27.828125 65.921875 22.671875 59.328125 
Q 17.53125 52.734375 16.796875 39.40625 
Q 19.671875 43.65625 24.015625 45.921875 
Q 28.375 48.1875 33.59375 48.1875 
Q 44.578125 48.1875 50.953125 41.515625 
Q 57.328125 34.859375 57.328125 23.390625 
Q 57.328125 12.15625 50.6875 5.359375 
Q 44.046875 -1.421875 33.015625 -1.421875 
Q 20.359375 -1.421875 13.671875 8.265625 
Q 6.984375 17.96875 6.984375 36.375 
Q 6.984375 53.65625 15.1875 63.9375 
Q 23.390625 74.21875 37.203125 74.21875 
Q 40.921875 74.21875 44.703125 73.484375 
Q 48.484375 72.75 52.59375 71.296875 
z
" id="DejaVuSans-54"/>
       </defs>
       <use xlink:href="#DejaVuSans-54"/>
      </g>
     </g>
    </g>
    <g id="xtick_5">
     <g id="line2d_13">
      <path clip-path="url(#p597326a8a5)" d="M 97.755429 298.944 
L 97.755429 27.648 
" style="fill:none;stroke:#b0b0b0;stroke-linecap:square;stroke-width:0.8;"/>
     </g>
     <g id="line2d_14">
      <defs>
       <path d="M 0 0 
L 0 2 
" id="m9703ae29d4" style="stroke:#000000;stroke-width:0.6;"/>
      </defs>
      <g>
       <use style="stroke:#000000;stroke-width:0.6;" x="97.755429" xlink:href="#m9703ae29d4" y="298.944"/>
      </g>
     </g>
    </g>
    <g id="xtick_6">
     <g id="line2d_15">
      <path clip-path="url(#p597326a8a5)" d="M 178.066286 298.944 
L 178.066286 27.648 
" style="fill:none;stroke:#b0b0b0;stroke-linecap:square;stroke-width:0.8;"/>
     </g>
     <g id="line2d_16">
      <g>
       <use style="stroke:#000000;stroke-width:0.6;" x="178.066286" xlink:href="#m9703ae29d4" y="298.944"/>
      </g>
     </g>
    </g>
    <g id="xtick_7">
     <g id="line2d_17">
      <path clip-path="url(#p597326a8a5)" d="M 258.377143 298.944 
L 258.377143 27.648 
" style="fill:none;stroke:#b0b0b0;stroke-linecap:square;stroke-width:0.8;"/>
     </g>
     <g id="line2d_18">
      <g>
       <use style="stroke:#000000;stroke-width:0.6;" x="258.377143" xlink:href="#m9703ae29d4" y="298.944"/>
      </g>
     </g>
    </g>
    <g id="xtick_8">
     <g id="line2d_19">
      <path clip-path="url(#p597326a8a5)" d="M 338.688 298.944 
L 338.688 27.648 
" style="fill:none;stroke:#b0b0b0;stroke-linecap:square;stroke-width:0.8;"/>
     </g>
     <g id="line2d_20">
      <g>
       <use style="stroke:#000000;stroke-width:0.6;" x="338.688" xlink:href="#m9703ae29d4" y="298.944"/>
      </g>
     </g>
    </g>
    <g id="text_5">
     <!-- log10(# f-evals / dimension) -->
     <g transform="translate(77.764078 342.217594)scale(0.17 -0.17)">
      <defs>
       <path d="M 9.421875 75.984375 
L 18.40625 75.984375 
L 18.40625 0 
L 9.421875 0 
z
" id="DejaVuSans-108"/>
       <path d="M 30.609375 48.390625 
Q 23.390625 48.390625 19.1875 42.75 
Q 14.984375 37.109375 14.984375 27.296875 
Q 14.984375 17.484375 19.15625 11.84375 
Q 23.34375 6.203125 30.609375 6.203125 
Q 37.796875 6.203125 41.984375 11.859375 
Q 46.1875 17.53125 46.1875 27.296875 
Q 46.1875 37.015625 41.984375 42.703125 
Q 37.796875 48.390625 30.609375 48.390625 
z
M 30.609375 56 
Q 42.328125 56 49.015625 48.375 
Q 55.71875 40.765625 55.71875 27.296875 
Q 55.71875 13.875 49.015625 6.21875 
Q 42.328125 -1.421875 30.609375 -1.421875 
Q 18.84375 -1.421875 12.171875 6.21875 
Q 5.515625 13.875 5.515625 27.296875 
Q 5.515625 40.765625 12.171875 48.375 
Q 18.84375 56 30.609375 56 
z
" id="DejaVuSans-111"/>
       <path d="M 45.40625 27.984375 
Q 45.40625 37.75 41.375 43.109375 
Q 37.359375 48.484375 30.078125 48.484375 
Q 22.859375 48.484375 18.828125 43.109375 
Q 14.796875 37.75 14.796875 27.984375 
Q 14.796875 18.265625 18.828125 12.890625 
Q 22.859375 7.515625 30.078125 7.515625 
Q 37.359375 7.515625 41.375 12.890625 
Q 45.40625 18.265625 45.40625 27.984375 
z
M 54.390625 6.78125 
Q 54.390625 -7.171875 48.1875 -13.984375 
Q 42 -20.796875 29.203125 -20.796875 
Q 24.46875 -20.796875 20.265625 -20.09375 
Q 16.0625 -19.390625 12.109375 -17.921875 
L 12.109375 -9.1875 
Q 16.0625 -11.328125 19.921875 -12.34375 
Q 23.78125 -13.375 27.78125 -13.375 
Q 36.625 -13.375 41.015625 -8.765625 
Q 45.40625 -4.15625 45.40625 5.171875 
L 45.40625 9.625 
Q 42.625 4.78125 38.28125 2.390625 
Q 33.9375 0 27.875 0 
Q 17.828125 0 11.671875 7.65625 
Q 5.515625 15.328125 5.515625 27.984375 
Q 5.515625 40.671875 11.671875 48.328125 
Q 17.828125 56 27.875 56 
Q 33.9375 56 38.28125 53.609375 
Q 42.625 51.21875 45.40625 46.390625 
L 45.40625 54.6875 
L 54.390625 54.6875 
z
" id="DejaVuSans-103"/>
       <path d="M 12.40625 8.296875 
L 28.515625 8.296875 
L 28.515625 63.921875 
L 10.984375 60.40625 
L 10.984375 69.390625 
L 28.421875 72.90625 
L 38.28125 72.90625 
L 38.28125 8.296875 
L 54.390625 8.296875 
L 54.390625 0 
L 12.40625 0 
z
" id="DejaVuSans-49"/>
       <path d="M 31 75.875 
Q 24.46875 64.65625 21.28125 53.65625 
Q 18.109375 42.671875 18.109375 31.390625 
Q 18.109375 20.125 21.3125 9.0625 
Q 24.515625 -2 31 -13.1875 
L 23.1875 -13.1875 
Q 15.875 -1.703125 12.234375 9.375 
Q 8.59375 20.453125 8.59375 31.390625 
Q 8.59375 42.28125 12.203125 53.3125 
Q 15.828125 64.359375 23.1875 75.875 
z
" id="DejaVuSans-40"/>
       <path d="M 51.125 44 
L 36.921875 44 
L 32.8125 27.6875 
L 47.125 27.6875 
z
M 43.796875 71.78125 
L 38.71875 51.515625 
L 52.984375 51.515625 
L 58.109375 71.78125 
L 65.921875 71.78125 
L 60.890625 51.515625 
L 76.125 51.515625 
L 76.125 44 
L 58.984375 44 
L 54.984375 27.6875 
L 70.515625 27.6875 
L 70.515625 20.21875 
L 53.078125 20.21875 
L 48 0 
L 40.1875 0 
L 45.21875 20.21875 
L 30.90625 20.21875 
L 25.875 0 
L 18.015625 0 
L 23.09375 20.21875 
L 7.71875 20.21875 
L 7.71875 27.6875 
L 24.90625 27.6875 
L 29 44 
L 13.28125 44 
L 13.28125 51.515625 
L 30.90625 51.515625 
L 35.890625 71.78125 
z
" id="DejaVuSans-35"/>
       <path id="DejaVuSans-32"/>
       <path d="M 37.109375 75.984375 
L 37.109375 68.5 
L 28.515625 68.5 
Q 23.6875 68.5 21.796875 66.546875 
Q 19.921875 64.59375 19.921875 59.515625 
L 19.921875 54.6875 
L 34.71875 54.6875 
L 34.71875 47.703125 
L 19.921875 47.703125 
L 19.921875 0 
L 10.890625 0 
L 10.890625 47.703125 
L 2.296875 47.703125 
L 2.296875 54.6875 
L 10.890625 54.6875 
L 10.890625 58.5 
Q 10.890625 67.625 15.140625 71.796875 
Q 19.390625 75.984375 28.609375 75.984375 
z
" id="DejaVuSans-102"/>
       <path d="M 4.890625 31.390625 
L 31.203125 31.390625 
L 31.203125 23.390625 
L 4.890625 23.390625 
z
" id="DejaVuSans-45"/>
       <path d="M 56.203125 29.59375 
L 56.203125 25.203125 
L 14.890625 25.203125 
Q 15.484375 15.921875 20.484375 11.0625 
Q 25.484375 6.203125 34.421875 6.203125 
Q 39.59375 6.203125 44.453125 7.46875 
Q 49.3125 8.734375 54.109375 11.28125 
L 54.109375 2.78125 
Q 49.265625 0.734375 44.1875 -0.34375 
Q 39.109375 -1.421875 33.890625 -1.421875 
Q 20.796875 -1.421875 13.15625 6.1875 
Q 5.515625 13.8125 5.515625 26.8125 
Q 5.515625 40.234375 12.765625 48.109375 
Q 20.015625 56 32.328125 56 
Q 43.359375 56 49.78125 48.890625 
Q 56.203125 41.796875 56.203125 29.59375 
z
M 47.21875 32.234375 
Q 47.125 39.59375 43.09375 43.984375 
Q 39.0625 48.390625 32.421875 48.390625 
Q 24.90625 48.390625 20.390625 44.140625 
Q 15.875 39.890625 15.1875 32.171875 
z
" id="DejaVuSans-101"/>
       <path d="M 2.984375 54.6875 
L 12.5 54.6875 
L 29.59375 8.796875 
L 46.6875 54.6875 
L 56.203125 54.6875 
L 35.6875 0 
L 23.484375 0 
z
" id="DejaVuSans-118"/>
       <path d="M 34.28125 27.484375 
Q 23.390625 27.484375 19.1875 25 
Q 14.984375 22.515625 14.984375 16.5 
Q 14.984375 11.71875 18.140625 8.90625 
Q 21.296875 6.109375 26.703125 6.109375 
Q 34.1875 6.109375 38.703125 11.40625 
Q 43.21875 16.703125 43.21875 25.484375 
L 43.21875 27.484375 
z
M 52.203125 31.203125 
L 52.203125 0 
L 43.21875 0 
L 43.21875 8.296875 
Q 40.140625 3.328125 35.546875 0.953125 
Q 30.953125 -1.421875 24.3125 -1.421875 
Q 15.921875 -1.421875 10.953125 3.296875 
Q 6 8.015625 6 15.921875 
Q 6 25.140625 12.171875 29.828125 
Q 18.359375 34.515625 30.609375 34.515625 
L 43.21875 34.515625 
L 43.21875 35.40625 
Q 43.21875 41.609375 39.140625 45 
Q 35.0625 48.390625 27.6875 48.390625 
Q 23 48.390625 18.546875 47.265625 
Q 14.109375 46.140625 10.015625 43.890625 
L 10.015625 52.203125 
Q 14.9375 54.109375 19.578125 55.046875 
Q 24.21875 56 28.609375 56 
Q 40.484375 56 46.34375 49.84375 
Q 52.203125 43.703125 52.203125 31.203125 
z
" id="DejaVuSans-97"/>
       <path d="M 44.28125 53.078125 
L 44.28125 44.578125 
Q 40.484375 46.53125 36.375 47.5 
Q 32.28125 48.484375 27.875 48.484375 
Q 21.1875 48.484375 17.84375 46.4375 
Q 14.5 44.390625 14.5 40.28125 
Q 14.5 37.15625 16.890625 35.375 
Q 19.28125 33.59375 26.515625 31.984375 
L 29.59375 31.296875 
Q 39.15625 29.25 43.1875 25.515625 
Q 47.21875 21.78125 47.21875 15.09375 
Q 47.21875 7.46875 41.1875 3.015625 
Q 35.15625 -1.421875 24.609375 -1.421875 
Q 20.21875 -1.421875 15.453125 -0.5625 
Q 10.6875 0.296875 5.421875 2 
L 5.421875 11.28125 
Q 10.40625 8.6875 15.234375 7.390625 
Q 20.0625 6.109375 24.8125 6.109375 
Q 31.15625 6.109375 34.5625 8.28125 
Q 37.984375 10.453125 37.984375 14.40625 
Q 37.984375 18.0625 35.515625 20.015625 
Q 33.0625 21.96875 24.703125 23.78125 
L 21.578125 24.515625 
Q 13.234375 26.265625 9.515625 29.90625 
Q 5.8125 33.546875 5.8125 39.890625 
Q 5.8125 47.609375 11.28125 51.796875 
Q 16.75 56 26.8125 56 
Q 31.78125 56 36.171875 55.265625 
Q 40.578125 54.546875 44.28125 53.078125 
z
" id="DejaVuSans-115"/>
       <path d="M 25.390625 72.90625 
L 33.6875 72.90625 
L 8.296875 -9.28125 
L 0 -9.28125 
z
" id="DejaVuSans-47"/>
       <path d="M 45.40625 46.390625 
L 45.40625 75.984375 
L 54.390625 75.984375 
L 54.390625 0 
L 45.40625 0 
L 45.40625 8.203125 
Q 42.578125 3.328125 38.25 0.953125 
Q 33.9375 -1.421875 27.875 -1.421875 
Q 17.96875 -1.421875 11.734375 6.484375 
Q 5.515625 14.40625 5.515625 27.296875 
Q 5.515625 40.1875 11.734375 48.09375 
Q 17.96875 56 27.875 56 
Q 33.9375 56 38.25 53.625 
Q 42.578125 51.265625 45.40625 46.390625 
z
M 14.796875 27.296875 
Q 14.796875 17.390625 18.875 11.75 
Q 22.953125 6.109375 30.078125 6.109375 
Q 37.203125 6.109375 41.296875 11.75 
Q 45.40625 17.390625 45.40625 27.296875 
Q 45.40625 37.203125 41.296875 42.84375 
Q 37.203125 48.484375 30.078125 48.484375 
Q 22.953125 48.484375 18.875 42.84375 
Q 14.796875 37.203125 14.796875 27.296875 
z
" id="DejaVuSans-100"/>
       <path d="M 9.421875 54.6875 
L 18.40625 54.6875 
L 18.40625 0 
L 9.421875 0 
z
M 9.421875 75.984375 
L 18.40625 75.984375 
L 18.40625 64.59375 
L 9.421875 64.59375 
z
" id="DejaVuSans-105"/>
       <path d="M 52 44.1875 
Q 55.375 50.25 60.0625 53.125 
Q 64.75 56 71.09375 56 
Q 79.640625 56 84.28125 50.015625 
Q 88.921875 44.046875 88.921875 33.015625 
L 88.921875 0 
L 79.890625 0 
L 79.890625 32.71875 
Q 79.890625 40.578125 77.09375 44.375 
Q 74.3125 48.1875 68.609375 48.1875 
Q 61.625 48.1875 57.5625 43.546875 
Q 53.515625 38.921875 53.515625 30.90625 
L 53.515625 0 
L 44.484375 0 
L 44.484375 32.71875 
Q 44.484375 40.625 41.703125 44.40625 
Q 38.921875 48.1875 33.109375 48.1875 
Q 26.21875 48.1875 22.15625 43.53125 
Q 18.109375 38.875 18.109375 30.90625 
L 18.109375 0 
L 9.078125 0 
L 9.078125 54.6875 
L 18.109375 54.6875 
L 18.109375 46.1875 
Q 21.1875 51.21875 25.484375 53.609375 
Q 29.78125 56 35.6875 56 
Q 41.65625 56 45.828125 52.96875 
Q 50 49.953125 52 44.1875 
z
" id="DejaVuSans-109"/>
       <path d="M 54.890625 33.015625 
L 54.890625 0 
L 45.90625 0 
L 45.90625 32.71875 
Q 45.90625 40.484375 42.875 44.328125 
Q 39.84375 48.1875 33.796875 48.1875 
Q 26.515625 48.1875 22.3125 43.546875 
Q 18.109375 38.921875 18.109375 30.90625 
L 18.109375 0 
L 9.078125 0 
L 9.078125 54.6875 
L 18.109375 54.6875 
L 18.109375 46.1875 
Q 21.34375 51.125 25.703125 53.5625 
Q 30.078125 56 35.796875 56 
Q 45.21875 56 50.046875 50.171875 
Q 54.890625 44.34375 54.890625 33.015625 
z
" id="DejaVuSans-110"/>
       <path d="M 8.015625 75.875 
L 15.828125 75.875 
Q 23.140625 64.359375 26.78125 53.3125 
Q 30.421875 42.28125 30.421875 31.390625 
Q 30.421875 20.453125 26.78125 9.375 
Q 23.140625 -1.703125 15.828125 -13.1875 
L 8.015625 -13.1875 
Q 14.5 -2 17.703125 9.0625 
Q 20.90625 20.125 20.90625 31.390625 
Q 20.90625 42.671875 17.703125 53.65625 
Q 14.5 64.65625 8.015625 75.875 
z
" id="DejaVuSans-41"/>
      </defs>
      <use xlink:href="#DejaVuSans-108"/>
      <use x="27.783203" xlink:href="#DejaVuSans-111"/>
      <use x="88.964844" xlink:href="#DejaVuSans-103"/>
      <use x="152.441406" xlink:href="#DejaVuSans-49"/>
      <use x="216.064453" xlink:href="#DejaVuSans-48"/>
      <use x="279.6875" xlink:href="#DejaVuSans-40"/>
      <use x="318.701172" xlink:href="#DejaVuSans-35"/>
      <use x="402.490234" xlink:href="#DejaVuSans-32"/>
      <use x="434.277344" xlink:href="#DejaVuSans-102"/>
      <use x="463.982422" xlink:href="#DejaVuSans-45"/>
      <use x="500.066406" xlink:href="#DejaVuSans-101"/>
      <use x="561.589844" xlink:href="#DejaVuSans-118"/>
      <use x="620.769531" xlink:href="#DejaVuSans-97"/>
      <use x="682.048828" xlink:href="#DejaVuSans-108"/>
      <use x="709.832031" xlink:href="#DejaVuSans-115"/>
      <use x="761.931641" xlink:href="#DejaVuSans-32"/>
      <use x="793.71875" xlink:href="#DejaVuSans-47"/>
      <use x="827.410156" xlink:href="#DejaVuSans-32"/>
      <use x="859.197266" xlink:href="#DejaVuSans-100"/>
      <use x="922.673828" xlink:href="#DejaVuSans-105"/>
      <use x="950.457031" xlink:href="#DejaVuSans-109"/>
      <use x="1047.869141" xlink:href="#DejaVuSans-101"/>
      <use x="1109.392578" xlink:href="#DejaVuSans-110"/>
      <use x="1172.771484" xlink:href="#DejaVuSans-115"/>
      <use x="1224.871094" xlink:href="#DejaVuSans-105"/>
      <use x="1252.654297" xlink:href="#DejaVuSans-111"/>
      <use x="1313.835938" xlink:href="#DejaVuSans-110"/>
      <use x="1377.214844" xlink:href="#DejaVuSans-41"/>
     </g>
    </g>
   </g>
   <g id="matplotlib.axis_2">
    <g id="ytick_1">
     <g id="line2d_21">
      <path clip-path="url(#p597326a8a5)" d="M 57.6 298.944 
L 338.688 298.944 
" style="fill:none;stroke:#b0b0b0;stroke-linecap:square;stroke-width:0.8;"/>
     </g>
     <g id="line2d_22">
      <defs>
       <path d="M 0 0 
L -3.5 0 
" id="mb6631cf791" style="stroke:#000000;stroke-width:0.8;"/>
      </defs>
      <g>
       <use style="stroke:#000000;stroke-width:0.8;" x="57.6" xlink:href="#mb6631cf791" y="298.944"/>
      </g>
     </g>
     <g id="text_6">
      <!-- 0.0 -->
      <g transform="translate(25.155 305.02275)scale(0.16 -0.16)">
       <defs>
        <path d="M 10.6875 12.40625 
L 21 12.40625 
L 21 0 
L 10.6875 0 
z
" id="DejaVuSans-46"/>
       </defs>
       <use xlink:href="#DejaVuSans-48"/>
       <use x="63.623047" xlink:href="#DejaVuSans-46"/>
       <use x="95.410156" xlink:href="#DejaVuSans-48"/>
      </g>
     </g>
    </g>
    <g id="ytick_2">
     <g id="line2d_23">
      <path clip-path="url(#p597326a8a5)" d="M 57.6 245.22202 
L 338.688 245.22202 
" style="fill:none;stroke:#b0b0b0;stroke-linecap:square;stroke-width:0.8;"/>
     </g>
     <g id="line2d_24">
      <g>
       <use style="stroke:#000000;stroke-width:0.8;" x="57.6" xlink:href="#mb6631cf791" y="245.22202"/>
      </g>
     </g>
     <g id="text_7">
      <!-- 0.2 -->
      <g transform="translate(25.155 251.30077)scale(0.16 -0.16)">
       <use xlink:href="#DejaVuSans-48"/>
       <use x="63.623047" xlink:href="#DejaVuSans-46"/>
       <use x="95.410156" xlink:href="#DejaVuSans-50"/>
      </g>
     </g>
    </g>
    <g id="ytick_3">
     <g id="line2d_25">
      <path clip-path="url(#p597326a8a5)" d="M 57.6 191.50004 
L 338.688 191.50004 
" style="fill:none;stroke:#b0b0b0;stroke-linecap:square;stroke-width:0.8;"/>
     </g>
     <g id="line2d_26">
      <g>
       <use style="stroke:#000000;stroke-width:0.8;" x="57.6" xlink:href="#mb6631cf791" y="191.50004"/>
      </g>
     </g>
     <g id="text_8">
      <!-- 0.4 -->
      <g transform="translate(25.155 197.57879)scale(0.16 -0.16)">
       <use xlink:href="#DejaVuSans-48"/>
       <use x="63.623047" xlink:href="#DejaVuSans-46"/>
       <use x="95.410156" xlink:href="#DejaVuSans-52"/>
      </g>
     </g>
    </g>
    <g id="ytick_4">
     <g id="line2d_27">
      <path clip-path="url(#p597326a8a5)" d="M 57.6 137.778059 
L 338.688 137.778059 
" style="fill:none;stroke:#b0b0b0;stroke-linecap:square;stroke-width:0.8;"/>
     </g>
     <g id="line2d_28">
      <g>
       <use style="stroke:#000000;stroke-width:0.8;" x="57.6" xlink:href="#mb6631cf791" y="137.778059"/>
      </g>
     </g>
     <g id="text_9">
      <!-- 0.6 -->
      <g transform="translate(25.155 143.856809)scale(0.16 -0.16)">
       <use xlink:href="#DejaVuSans-48"/>
       <use x="63.623047" xlink:href="#DejaVuSans-46"/>
       <use x="95.410156" xlink:href="#DejaVuSans-54"/>
      </g>
     </g>
    </g>
    <g id="ytick_5">
     <g id="line2d_29">
      <path clip-path="url(#p597326a8a5)" d="M 57.6 84.056079 
L 338.688 84.056079 
" style="fill:none;stroke:#b0b0b0;stroke-linecap:square;stroke-width:0.8;"/>
     </g>
     <g id="line2d_30">
      <g>
       <use style="stroke:#000000;stroke-width:0.8;" x="57.6" xlink:href="#mb6631cf791" y="84.056079"/>
      </g>
     </g>
     <g id="text_10">
      <!-- 0.8 -->
      <g transform="translate(25.155 90.134829)scale(0.16 -0.16)">
       <defs>
        <path d="M 31.78125 34.625 
Q 24.75 34.625 20.71875 30.859375 
Q 16.703125 27.09375 16.703125 20.515625 
Q 16.703125 13.921875 20.71875 10.15625 
Q 24.75 6.390625 31.78125 6.390625 
Q 38.8125 6.390625 42.859375 10.171875 
Q 46.921875 13.96875 46.921875 20.515625 
Q 46.921875 27.09375 42.890625 30.859375 
Q 38.875 34.625 31.78125 34.625 
z
M 21.921875 38.8125 
Q 15.578125 40.375 12.03125 44.71875 
Q 8.5 49.078125 8.5 55.328125 
Q 8.5 64.0625 14.71875 69.140625 
Q 20.953125 74.21875 31.78125 74.21875 
Q 42.671875 74.21875 48.875 69.140625 
Q 55.078125 64.0625 55.078125 55.328125 
Q 55.078125 49.078125 51.53125 44.71875 
Q 48 40.375 41.703125 38.8125 
Q 48.828125 37.15625 52.796875 32.3125 
Q 56.78125 27.484375 56.78125 20.515625 
Q 56.78125 9.90625 50.3125 4.234375 
Q 43.84375 -1.421875 31.78125 -1.421875 
Q 19.734375 -1.421875 13.25 4.234375 
Q 6.78125 9.90625 6.78125 20.515625 
Q 6.78125 27.484375 10.78125 32.3125 
Q 14.796875 37.15625 21.921875 38.8125 
z
M 18.3125 54.390625 
Q 18.3125 48.734375 21.84375 45.5625 
Q 25.390625 42.390625 31.78125 42.390625 
Q 38.140625 42.390625 41.71875 45.5625 
Q 45.3125 48.734375 45.3125 54.390625 
Q 45.3125 60.0625 41.71875 63.234375 
Q 38.140625 66.40625 31.78125 66.40625 
Q 25.390625 66.40625 21.84375 63.234375 
Q 18.3125 60.0625 18.3125 54.390625 
z
" id="DejaVuSans-56"/>
       </defs>
       <use xlink:href="#DejaVuSans-48"/>
       <use x="63.623047" xlink:href="#DejaVuSans-46"/>
       <use x="95.410156" xlink:href="#DejaVuSans-56"/>
      </g>
     </g>
    </g>
    <g id="ytick_6">
     <g id="line2d_31">
      <path clip-path="url(#p597326a8a5)" d="M 57.6 30.334099 
L 338.688 30.334099 
" style="fill:none;stroke:#b0b0b0;stroke-linecap:square;stroke-width:0.8;"/>
     </g>
     <g id="line2d_32">
      <g>
       <use style="stroke:#000000;stroke-width:0.8;" x="57.6" xlink:href="#mb6631cf791" y="30.334099"/>
      </g>
     </g>
     <g id="text_11">
      <!-- 1.0 -->
      <g transform="translate(25.155 36.412849)scale(0.16 -0.16)">
       <use xlink:href="#DejaVuSans-49"/>
       <use x="63.623047" xlink:href="#DejaVuSans-46"/>
       <use x="95.410156" xlink:href="#DejaVuSans-48"/>
      </g>
     </g>
    </g>
    <g id="text_12">
     <!-- Fraction of function,target pairs -->
     <g transform="translate(17.619531 297.681)rotate(-90)scale(0.17 -0.17)">
      <defs>
       <path d="M 9.8125 72.90625 
L 51.703125 72.90625 
L 51.703125 64.59375 
L 19.671875 64.59375 
L 19.671875 43.109375 
L 48.578125 43.109375 
L 48.578125 34.8125 
L 19.671875 34.8125 
L 19.671875 0 
L 9.8125 0 
z
" id="DejaVuSans-70"/>
       <path d="M 41.109375 46.296875 
Q 39.59375 47.171875 37.8125 47.578125 
Q 36.03125 48 33.890625 48 
Q 26.265625 48 22.1875 43.046875 
Q 18.109375 38.09375 18.109375 28.8125 
L 18.109375 0 
L 9.078125 0 
L 9.078125 54.6875 
L 18.109375 54.6875 
L 18.109375 46.1875 
Q 20.953125 51.171875 25.484375 53.578125 
Q 30.03125 56 36.53125 56 
Q 37.453125 56 38.578125 55.875 
Q 39.703125 55.765625 41.0625 55.515625 
z
" id="DejaVuSans-114"/>
       <path d="M 48.78125 52.59375 
L 48.78125 44.1875 
Q 44.96875 46.296875 41.140625 47.34375 
Q 37.3125 48.390625 33.40625 48.390625 
Q 24.65625 48.390625 19.8125 42.84375 
Q 14.984375 37.3125 14.984375 27.296875 
Q 14.984375 17.28125 19.8125 11.734375 
Q 24.65625 6.203125 33.40625 6.203125 
Q 37.3125 6.203125 41.140625 7.25 
Q 44.96875 8.296875 48.78125 10.40625 
L 48.78125 2.09375 
Q 45.015625 0.34375 40.984375 -0.53125 
Q 36.96875 -1.421875 32.421875 -1.421875 
Q 20.0625 -1.421875 12.78125 6.34375 
Q 5.515625 14.109375 5.515625 27.296875 
Q 5.515625 40.671875 12.859375 48.328125 
Q 20.21875 56 33.015625 56 
Q 37.15625 56 41.109375 55.140625 
Q 45.0625 54.296875 48.78125 52.59375 
z
" id="DejaVuSans-99"/>
       <path d="M 18.3125 70.21875 
L 18.3125 54.6875 
L 36.8125 54.6875 
L 36.8125 47.703125 
L 18.3125 47.703125 
L 18.3125 18.015625 
Q 18.3125 11.328125 20.140625 9.421875 
Q 21.96875 7.515625 27.59375 7.515625 
L 36.8125 7.515625 
L 36.8125 0 
L 27.59375 0 
Q 17.1875 0 13.234375 3.875 
Q 9.28125 7.765625 9.28125 18.015625 
L 9.28125 47.703125 
L 2.6875 47.703125 
L 2.6875 54.6875 
L 9.28125 54.6875 
L 9.28125 70.21875 
z
" id="DejaVuSans-116"/>
       <path d="M 8.5 21.578125 
L 8.5 54.6875 
L 17.484375 54.6875 
L 17.484375 21.921875 
Q 17.484375 14.15625 20.5 10.265625 
Q 23.53125 6.390625 29.59375 6.390625 
Q 36.859375 6.390625 41.078125 11.03125 
Q 45.3125 15.671875 45.3125 23.6875 
L 45.3125 54.6875 
L 54.296875 54.6875 
L 54.296875 0 
L 45.3125 0 
L 45.3125 8.40625 
Q 42.046875 3.421875 37.71875 1 
Q 33.40625 -1.421875 27.6875 -1.421875 
Q 18.265625 -1.421875 13.375 4.4375 
Q 8.5 10.296875 8.5 21.578125 
z
M 31.109375 56 
z
" id="DejaVuSans-117"/>
       <path d="M 11.71875 12.40625 
L 22.015625 12.40625 
L 22.015625 4 
L 14.015625 -11.625 
L 7.71875 -11.625 
L 11.71875 4 
z
" id="DejaVuSans-44"/>
       <path d="M 18.109375 8.203125 
L 18.109375 -20.796875 
L 9.078125 -20.796875 
L 9.078125 54.6875 
L 18.109375 54.6875 
L 18.109375 46.390625 
Q 20.953125 51.265625 25.265625 53.625 
Q 29.59375 56 35.59375 56 
Q 45.5625 56 51.78125 48.09375 
Q 58.015625 40.1875 58.015625 27.296875 
Q 58.015625 14.40625 51.78125 6.484375 
Q 45.5625 -1.421875 35.59375 -1.421875 
Q 29.59375 -1.421875 25.265625 0.953125 
Q 20.953125 3.328125 18.109375 8.203125 
z
M 48.6875 27.296875 
Q 48.6875 37.203125 44.609375 42.84375 
Q 40.53125 48.484375 33.40625 48.484375 
Q 26.265625 48.484375 22.1875 42.84375 
Q 18.109375 37.203125 18.109375 27.296875 
Q 18.109375 17.390625 22.1875 11.75 
Q 26.265625 6.109375 33.40625 6.109375 
Q 40.53125 6.109375 44.609375 11.75 
Q 48.6875 17.390625 48.6875 27.296875 
z
" id="DejaVuSans-112"/>
      </defs>
      <use xlink:href="#DejaVuSans-70"/>
      <use x="50.269531" xlink:href="#DejaVuSans-114"/>
      <use x="91.382812" xlink:href="#DejaVuSans-97"/>
      <use x="152.662109" xlink:href="#DejaVuSans-99"/>
      <use x="207.642578" xlink:href="#DejaVuSans-116"/>
      <use x="246.851562" xlink:href="#DejaVuSans-105"/>
      <use x="274.634766" xlink:href="#DejaVuSans-111"/>
      <use x="335.816406" xlink:href="#DejaVuSans-110"/>
      <use x="399.195312" xlink:href="#DejaVuSans-32"/>
      <use x="430.982422" xlink:href="#DejaVuSans-111"/>
      <use x="492.164062" xlink:href="#DejaVuSans-102"/>
      <use x="527.369141" xlink:href="#DejaVuSans-32"/>
      <use x="559.15625" xlink:href="#DejaVuSans-102"/>
      <use x="594.361328" xlink:href="#DejaVuSans-117"/>
      <use x="657.740234" xlink:href="#DejaVuSans-110"/>
      <use x="721.119141" xlink:href="#DejaVuSans-99"/>
      <use x="776.099609" xlink:href="#DejaVuSans-116"/>
      <use x="815.308594" xlink:href="#DejaVuSans-105"/>
      <use x="843.091797" xlink:href="#DejaVuSans-111"/>
      <use x="904.273438" xlink:href="#DejaVuSans-110"/>
      <use x="967.652344" xlink:href="#DejaVuSans-44"/>
      <use x="999.439453" xlink:href="#DejaVuSans-116"/>
      <use x="1038.648438" xlink:href="#DejaVuSans-97"/>
      <use x="1099.927734" xlink:href="#DejaVuSans-114"/>
      <use x="1139.291016" xlink:href="#DejaVuSans-103"/>
      <use x="1202.767578" xlink:href="#DejaVuSans-101"/>
      <use x="1264.291016" xlink:href="#DejaVuSans-116"/>
      <use x="1303.5" xlink:href="#DejaVuSans-32"/>
      <use x="1335.287109" xlink:href="#DejaVuSans-112"/>
      <use x="1398.763672" xlink:href="#DejaVuSans-97"/>
      <use x="1460.042969" xlink:href="#DejaVuSans-105"/>
      <use x="1487.826172" xlink:href="#DejaVuSans-114"/>
      <use x="1528.939453" xlink:href="#DejaVuSans-115"/>
     </g>
    </g>
   </g>
   <g id="line2d_33">
    <defs>
     <path d="M 0 1.5 
C 0.397805 1.5 0.77937 1.341951 1.06066 1.06066 
C 1.341951 0.77937 1.5 0.397805 1.5 0 
C 1.5 -0.397805 1.341951 -0.77937 1.06066 -1.06066 
C 0.77937 -1.341951 0.397805 -1.5 0 -1.5 
C -0.397805 -1.5 -0.77937 -1.341951 -1.06066 -1.06066 
C -1.341951 -0.77937 -1.5 -0.397805 -1.5 0 
C -1.5 0.397805 -1.341951 0.77937 -1.06066 1.06066 
C -0.77937 1.341951 -0.397805 1.5 0 1.5 
z
" id="md5cee0b012" style="stroke:#f5deb3;"/>
    </defs>
    <g>
     <use style="fill:#f5deb3;stroke:#f5deb3;" x="272.332541" xlink:href="#md5cee0b012" y="62.752535"/>
     <use style="fill:#f5deb3;stroke:#f5deb3;" x="272.332541" xlink:href="#md5cee0b012" y="62.752535"/>
    </g>
   </g>
   <g id="line2d_34">
    <defs>
     <path d="M 0 1.5 
C 0.397805 1.5 0.77937 1.341951 1.06066 1.06066 
C 1.341951 0.77937 1.5 0.397805 1.5 0 
C 1.5 -0.397805 1.341951 -0.77937 1.06066 -1.06066 
C 0.77937 -1.341951 0.397805 -1.5 0 -1.5 
C -0.397805 -1.5 -0.77937 -1.341951 -1.06066 -1.06066 
C -1.341951 -0.77937 -1.5 -0.397805 -1.5 0 
C -1.5 0.397805 -1.341951 0.77937 -1.06066 1.06066 
C -0.77937 1.341951 -0.397805 1.5 0 1.5 
z
" id="maf5dd453b8" style="stroke:#000080;"/>
    </defs>
    <g>
     <use style="fill:#000080;stroke:#000080;" x="257.064149" xlink:href="#maf5dd453b8" y="84.056079"/>
     <use style="fill:#000080;stroke:#000080;" x="257.064149" xlink:href="#maf5dd453b8" y="84.056079"/>
    </g>
   </g>
   <g id="line2d_35">
    <path d="M 17.444571 298.944 
L 17.444571 285.976625 
L 68.79347 285.976625 
L 68.79347 285.513505 
L 71.35013 285.513505 
L 71.35013 285.050384 
L 81.334453 285.050384 
L 81.334453 284.587264 
L 92.267099 284.587264 
L 92.267099 284.124143 
L 104.23523 284.124143 
L 104.23523 283.661023 
L 105.51043 283.661023 
L 105.51043 283.197902 
L 110.77713 283.197902 
L 110.77713 282.271661 
L 118.310324 282.271661 
L 118.310324 281.808541 
L 124.101333 281.808541 
L 124.101333 281.34542 
L 124.519744 281.34542 
L 124.519744 280.8823 
L 127.892415 280.8823 
L 127.892415 280.419179 
L 128.650105 280.419179 
L 128.650105 279.956059 
L 128.885774 279.956059 
L 128.885774 279.492938 
L 129.51791 279.492938 
L 129.51791 279.029818 
L 130.717333 279.029818 
L 130.717333 278.566697 
L 137.770782 278.566697 
L 137.770782 278.103577 
L 141.927433 278.103577 
L 141.927433 277.640456 
L 142.633244 277.640456 
L 142.739338 276.714215 
L 144.582038 276.714215 
L 144.582038 276.251095 
L 144.700592 276.251095 
L 144.700592 275.787974 
L 145.497361 275.787974 
L 145.587429 274.861733 
L 146.313254 274.861733 
L 146.313254 274.398612 
L 146.548634 274.398612 
L 146.548634 273.935492 
L 148.639252 273.935492 
L 148.639252 273.472371 
L 148.845415 273.472371 
L 148.845415 273.009251 
L 151.146137 273.009251 
L 151.146137 272.54613 
L 155.213066 272.54613 
L 155.213066 272.08301 
L 156.646219 272.08301 
L 156.646219 271.619889 
L 157.84305 271.619889 
L 157.84305 271.156769 
L 158.449648 271.156769 
L 158.449648 270.693648 
L 162.156452 270.693648 
L 162.156452 269.767407 
L 162.999872 269.767407 
L 162.999872 269.304287 
L 163.404741 269.304287 
L 163.404741 268.841166 
L 164.440577 268.841166 
L 164.440577 268.378046 
L 165.017568 268.378046 
L 165.017568 267.914925 
L 165.654426 267.914925 
L 165.654426 266.988684 
L 165.848767 266.988684 
L 165.848767 266.525564 
L 167.785687 266.525564 
L 167.854729 264.673082 
L 169.212991 264.673082 
L 169.212991 263.746841 
L 169.992103 263.746841 
L 169.992103 263.28372 
L 170.796198 263.28372 
L 170.796198 262.8206 
L 170.912232 262.8206 
L 170.912232 262.357479 
L 171.2274 262.357479 
L 171.2274 261.431238 
L 171.368797 261.431238 
L 171.453088 260.041876 
L 171.481095 260.041876 
L 171.481095 259.578756 
L 171.731152 259.578756 
L 171.731152 259.115635 
L 172.434028 259.115635 
L 172.434028 258.652515 
L 173.426547 258.652515 
L 173.426547 258.189394 
L 173.815827 258.189394 
L 173.815827 257.263153 
L 173.955458 257.263153 
L 174.052318 255.873792 
L 174.07645 255.873792 
L 174.098358 254.48443 
L 174.292142 254.48443 
L 174.292142 254.02131 
L 174.877658 254.02131 
L 174.877658 253.558189 
L 175.709669 253.558189 
L 175.731614 251.705707 
L 176.356295 251.705707 
L 176.356295 251.242587 
L 176.918444 251.242587 
L 176.959372 250.316346 
L 177.040942 250.316346 
L 177.040942 249.853225 
L 178.144586 249.853225 
L 178.163673 248.926984 
L 179.019823 248.926984 
L 179.019823 248.463863 
L 179.783827 248.463863 
L 179.783827 248.000743 
L 180.632059 248.000743 
L 180.632059 247.537622 
L 180.813259 247.537622 
L 180.813259 247.074502 
L 180.927596 247.074502 
L 180.927596 246.148261 
L 181.137967 246.148261 
L 181.137967 245.22202 
L 181.440939 245.22202 
L 181.440939 244.758899 
L 181.893454 244.758899 
L 181.893454 244.295779 
L 182.274345 244.295779 
L 182.274345 243.369538 
L 182.632337 243.369538 
L 182.632337 242.443297 
L 182.852407 242.443297 
L 182.852407 241.517056 
L 183.189744 241.517056 
L 183.198842 240.590815 
L 183.524506 240.590815 
L 183.538528 239.201453 
L 184.337984 239.201453 
L 184.337984 238.738333 
L 184.572527 238.738333 
L 184.677886 237.348971 
L 185.548634 237.348971 
L 185.63585 235.496489 
L 185.784357 235.496489 
L 185.784357 234.570248 
L 186.963553 234.570248 
L 186.963553 233.644007 
L 187.077307 233.644007 
L 187.077307 233.180886 
L 187.203754 233.180886 
L 187.203754 232.717766 
L 187.541259 232.717766 
L 187.61908 230.865284 
L 188.484633 230.865284 
L 188.512438 229.012802 
L 188.694471 229.012802 
L 188.694471 228.549681 
L 188.87087 228.549681 
L 188.87087 227.62344 
L 189.268932 227.62344 
L 189.268932 227.16032 
L 189.638363 227.16032 
L 189.638363 226.697199 
L 189.834844 226.697199 
L 189.834844 225.770958 
L 190.202166 225.770958 
L 190.278521 222.992235 
L 190.373497 222.992235 
L 190.373497 222.529114 
L 190.655361 222.529114 
L 190.655361 221.602873 
L 191.160568 221.602873 
L 191.160568 221.139753 
L 191.367572 221.139753 
L 191.367572 220.676632 
L 191.527879 220.676632 
L 191.527879 220.213512 
L 191.680335 220.213512 
L 191.774352 218.82415 
L 191.930979 218.82415 
L 191.930979 217.897909 
L 192.924324 217.897909 
L 192.924324 217.434789 
L 193.135792 217.434789 
L 193.135792 216.508548 
L 193.337464 216.508548 
L 193.337464 215.582307 
L 193.669198 215.582307 
L 193.669198 214.656066 
L 194.003133 214.656066 
L 194.003133 213.729825 
L 194.262722 213.729825 
L 194.262722 212.803583 
L 194.585586 212.803583 
L 194.585586 211.877342 
L 194.767239 211.877342 
L 194.767239 210.951101 
L 194.960926 210.951101 
L 194.960926 210.02486 
L 195.470362 210.02486 
L 195.470362 209.56174 
L 195.799589 209.56174 
L 195.799589 208.635499 
L 196.088624 208.635499 
L 196.190701 207.246137 
L 196.204266 207.246137 
L 196.204266 206.319896 
L 196.593135 206.319896 
L 196.593135 205.393655 
L 196.836752 205.393655 
L 196.869414 203.541173 
L 197.025344 203.541173 
L 197.077013 202.151812 
L 197.158315 202.151812 
L 197.160649 200.76245 
L 197.704055 200.76245 
L 197.704055 199.836209 
L 197.914305 199.836209 
L 197.914305 198.909968 
L 198.188736 198.909968 
L 198.231039 197.520606 
L 198.375306 197.520606 
L 198.449163 196.594365 
L 198.952315 196.594365 
L 199.004361 195.668124 
L 199.078743 195.668124 
L 199.114771 194.741883 
L 199.605935 194.741883 
L 199.679315 193.352522 
L 199.849676 193.352522 
L 199.948415 192.426281 
L 200.566383 192.426281 
L 200.566383 191.96316 
L 201.229399 191.96316 
L 201.333971 190.110678 
L 201.677333 190.110678 
L 201.693088 188.721316 
L 202.17893 188.721316 
L 202.20298 187.795075 
L 202.317959 187.795075 
L 202.42744 186.868834 
L 202.46536 186.868834 
L 202.570928 185.479473 
L 203.070276 185.479473 
L 203.070276 185.016352 
L 203.202403 185.016352 
L 203.234147 183.626991 
L 203.365043 183.626991 
L 203.468163 182.237629 
L 203.496181 182.237629 
L 203.52618 180.848268 
L 203.637211 180.848268 
L 203.690256 178.995786 
L 203.830925 178.995786 
L 203.830925 178.532665 
L 204.048474 178.532665 
L 204.048474 178.069545 
L 204.194872 178.069545 
L 204.194872 177.143304 
L 204.347781 177.143304 
L 204.442577 175.290821 
L 204.580761 175.290821 
L 204.580761 174.827701 
L 204.818194 174.827701 
L 204.893629 173.90146 
L 205.007104 173.90146 
L 205.007104 173.438339 
L 205.154191 173.438339 
L 205.154191 172.975219 
L 205.279547 172.975219 
L 205.279547 172.512098 
L 205.420003 172.512098 
L 205.420003 172.048978 
L 205.674306 172.048978 
L 205.748631 171.122737 
L 205.795635 171.122737 
L 205.85634 170.196496 
L 206.075031 170.196496 
L 206.075031 169.733375 
L 206.228338 169.733375 
L 206.228338 169.270255 
L 206.37687 169.270255 
L 206.37687 168.807134 
L 206.577953 168.807134 
L 206.577953 168.344014 
L 206.865599 168.344014 
L 206.865599 167.417773 
L 207.166996 167.417773 
L 207.166996 166.954652 
L 207.638843 166.954652 
L 207.638843 166.028411 
L 207.808862 166.028411 
L 207.892308 165.10217 
L 208.36115 165.10217 
L 208.444751 164.175929 
L 208.546793 164.175929 
L 208.634951 162.323447 
L 208.750005 162.323447 
L 208.82818 161.397206 
L 208.8944 161.397206 
L 208.8944 160.934085 
L 209.015449 160.934085 
L 209.015449 160.007844 
L 209.318514 160.007844 
L 209.318514 159.544724 
L 209.461467 159.544724 
L 209.461467 158.618483 
L 209.707002 158.618483 
L 209.741635 155.376639 
L 209.905354 155.376639 
L 209.905354 154.450398 
L 210.173004 154.450398 
L 210.173004 153.987278 
L 210.315461 153.987278 
L 210.337127 152.597916 
L 210.607998 152.597916 
L 210.607998 152.134795 
L 210.967231 152.134795 
L 211.071602 149.356072 
L 211.528066 149.356072 
L 211.617942 148.429831 
L 211.88984 148.429831 
L 211.88984 147.966711 
L 212.046843 147.966711 
L 212.131372 147.04047 
L 212.213032 147.04047 
L 212.314633 145.187988 
L 212.736729 145.187988 
L 212.736729 144.261747 
L 213.259072 144.261747 
L 213.259072 143.335506 
L 214.134711 143.335506 
L 214.21104 141.946144 
L 214.354431 141.946144 
L 214.395743 141.019903 
L 214.531167 141.019903 
L 214.631942 140.093662 
L 214.952709 140.093662 
L 214.994728 138.7043 
L 215.374571 138.7043 
L 215.466517 136.851818 
L 215.633802 136.851818 
L 215.695996 134.073095 
L 216.014178 134.073095 
L 216.014178 133.146854 
L 216.223901 133.146854 
L 216.328991 130.368131 
L 216.709688 130.368131 
L 216.709688 129.905011 
L 217.003699 129.905011 
L 217.096953 128.97877 
L 217.160453 128.97877 
L 217.266696 128.052529 
L 217.333436 128.052529 
L 217.333436 127.589408 
L 217.543383 127.589408 
L 217.554258 126.663167 
L 218.054721 126.663167 
L 218.127287 125.736926 
L 218.167394 125.736926 
L 218.234789 124.810685 
L 218.318408 124.810685 
L 218.318408 124.347564 
L 218.477752 124.347564 
L 218.517919 122.958203 
L 218.778631 122.958203 
L 218.87515 122.031962 
L 219.211374 122.031962 
L 219.211374 121.105721 
L 219.479528 121.105721 
L 219.479528 120.17948 
L 221.072217 120.17948 
L 221.085245 119.253239 
L 221.310789 119.253239 
L 221.310789 118.790118 
L 221.4438 118.790118 
L 221.543258 117.863877 
L 221.852722 117.863877 
L 221.852722 117.400757 
L 221.992921 117.400757 
L 221.992921 116.937636 
L 222.137854 116.937636 
L 222.137854 116.474516 
L 222.494593 116.474516 
L 222.494593 115.548274 
L 222.663303 115.548274 
L 222.663303 114.622033 
L 223.211806 114.622033 
L 223.211806 113.695792 
L 223.511297 113.695792 
L 223.511297 112.769551 
L 223.865137 112.769551 
L 223.974569 110.917069 
L 225.499381 110.917069 
L 225.499381 109.990828 
L 225.819277 109.990828 
L 225.819277 109.527708 
L 225.952776 109.527708 
L 225.952776 109.064587 
L 227.550215 109.064587 
L 227.550215 108.138346 
L 227.901206 108.138346 
L 227.901206 107.212105 
L 228.018938 107.212105 
L 228.018938 106.285864 
L 230.926985 106.285864 
L 230.926985 105.822744 
L 232.084754 105.822744 
L 232.139248 103.970262 
L 232.384978 103.970262 
L 232.384978 103.04402 
L 233.312301 103.04402 
L 233.312301 102.117779 
L 234.25111 102.117779 
L 234.25111 101.191538 
L 235.199688 101.191538 
L 235.199688 100.728418 
L 235.435176 100.728418 
L 235.435176 100.265297 
L 235.71671 100.265297 
L 235.71671 99.802177 
L 236.019998 99.802177 
L 236.084362 98.412815 
L 236.268915 98.412815 
L 236.268915 97.486574 
L 236.956659 97.486574 
L 236.956659 97.023454 
L 237.086436 97.023454 
L 237.086436 96.560333 
L 237.679385 96.560333 
L 237.679385 96.097213 
L 237.986106 96.097213 
L 237.986106 95.634092 
L 238.981401 95.634092 
L 238.981401 95.170972 
L 239.127476 95.170972 
L 239.127476 94.707851 
L 239.63708 94.707851 
L 239.63708 94.244731 
L 239.78969 94.244731 
L 239.78969 93.78161 
L 240.529394 93.78161 
L 240.529394 93.31849 
L 240.646584 93.31849 
L 240.646584 92.855369 
L 243.883961 92.855369 
L 243.883961 92.392249 
L 245.09547 92.392249 
L 245.09547 91.929128 
L 246.540552 91.929128 
L 246.549007 91.002887 
L 247.391057 91.002887 
L 247.391057 90.539766 
L 247.566428 90.539766 
L 247.566428 89.613525 
L 248.738721 89.613525 
L 248.738721 88.687284 
L 249.019971 88.687284 
L 249.019971 87.761043 
L 250.604486 87.761043 
L 250.604486 87.297923 
L 251.331827 87.297923 
L 251.331827 86.834802 
L 252.300618 86.834802 
L 252.300618 86.371682 
L 253.295483 86.371682 
L 253.295483 85.908561 
L 256.256694 85.908561 
L 256.256694 85.445441 
L 256.913907 85.445441 
L 256.913907 84.98232 
L 257.064149 84.98232 
L 257.064149 84.056079 
L 338.688 84.056079 
L 338.688 84.056079 
" style="fill:none;stroke:#000080;stroke-linecap:square;stroke-width:1.5;"/>
   </g>
   <g id="line2d_36">
    <defs>
     <path d="M 0 6 
C 1.591219 6 3.117479 5.367802 4.242641 4.242641 
C 5.367802 3.117479 6 1.591219 6 0 
C 6 -1.591219 5.367802 -3.117479 4.242641 -4.242641 
C 3.117479 -5.367802 1.591219 -6 0 -6 
C -1.591219 -6 -3.117479 -5.367802 -4.242641 -4.242641 
C -5.367802 -3.117479 -6 -1.591219 -6 0 
C -6 1.591219 -5.367802 3.117479 -4.242641 4.242641 
C -3.117479 5.367802 -1.591219 6 0 6 
z
" id="m124c260bd1" style="stroke:#000080;stroke-width:1.5;"/>
    </defs>
    <g>
     <use style="fill-opacity:0;stroke:#000080;stroke-width:1.5;" x="68.79347" xlink:href="#m124c260bd1" y="285.513505"/>
     <use style="fill-opacity:0;stroke:#000080;stroke-width:1.5;" x="158.449648" xlink:href="#m124c260bd1" y="270.693648"/>
     <use style="fill-opacity:0;stroke:#000080;stroke-width:1.5;" x="210.173004" xlink:href="#m124c260bd1" y="154.450398"/>
     <use style="fill-opacity:0;stroke:#000080;stroke-width:1.5;" x="257.064149" xlink:href="#m124c260bd1" y="84.98232"/>
     <use style="fill-opacity:0;stroke:#000080;stroke-width:1.5;" x="257.064149" xlink:href="#m124c260bd1" y="84.056079"/>
     <use style="fill-opacity:0;stroke:#000080;stroke-width:1.5;" x="338.688" xlink:href="#m124c260bd1" y="84.056079"/>
    </g>
   </g>
   <g id="line2d_37">
    <path style="fill:none;stroke:#000080;stroke-linecap:square;stroke-width:1.5;"/>
    <g/>
   </g>
   <g id="line2d_38">
    <path clip-path="url(#p597326a8a5)" d="M 258.37716 84.056079 
" style="fill:none;stroke:#000080;stroke-linecap:square;stroke-width:1.5;"/>
    <defs>
     <path d="M -12 12 
L 12 -12 
M -12 -12 
L 12 12 
" id="m5386dac856" style="stroke:#000080;"/>
    </defs>
    <g clip-path="url(#p597326a8a5)">
     <use style="fill:#000080;stroke:#000080;" x="258.37716" xlink:href="#m5386dac856" y="84.056079"/>
    </g>
   </g>
   <g id="line2d_39">
    <defs>
     <path d="M 0 1.5 
C 0.397805 1.5 0.77937 1.341951 1.06066 1.06066 
C 1.341951 0.77937 1.5 0.397805 1.5 0 
C 1.5 -0.397805 1.341951 -0.77937 1.06066 -1.06066 
C 0.77937 -1.341951 0.397805 -1.5 0 -1.5 
C -0.397805 -1.5 -0.77937 -1.341951 -1.06066 -1.06066 
C -1.341951 -0.77937 -1.5 -0.397805 -1.5 0 
C -1.5 0.397805 -1.341951 0.77937 -1.06066 1.06066 
C -0.77937 1.341951 -0.397805 1.5 0 1.5 
z
" id="m7e25e1c920" style="stroke:#ff00ff;"/>
    </defs>
    <g>
     <use style="fill:#ff00ff;stroke:#ff00ff;" x="256.4394" xlink:href="#m7e25e1c920" y="168.344014"/>
     <use style="fill:#ff00ff;stroke:#ff00ff;" x="256.4394" xlink:href="#m7e25e1c920" y="168.344014"/>
    </g>
   </g>
   <g id="line2d_40">
    <path d="M 17.444571 298.944 
L 17.444571 290.14471 
L 121.219499 290.14471 
L 121.219499 289.68159 
L 125.327602 289.68159 
L 125.327602 289.218469 
L 128.471239 289.218469 
L 128.471239 288.755349 
L 132.30267 288.755349 
L 132.30267 288.292228 
L 132.612604 288.292228 
L 132.612604 287.829108 
L 133.398082 287.829108 
L 133.398082 287.365987 
L 134.084669 287.365987 
L 134.084669 286.902867 
L 134.492498 286.902867 
L 134.492498 286.439746 
L 135.240011 286.439746 
L 135.240011 285.976625 
L 135.46217 285.976625 
L 135.50226 285.050384 
L 136.150782 285.050384 
L 136.189322 284.124143 
L 136.456742 284.124143 
L 136.456742 283.661023 
L 136.607732 283.661023 
L 136.607732 283.197902 
L 136.813232 283.197902 
L 136.86886 281.34542 
L 136.942755 281.34542 
L 137.053015 279.956059 
L 137.48721 279.956059 
L 137.48721 279.492938 
L 138.032507 279.492938 
L 138.032507 279.029818 
L 138.27329 279.029818 
L 138.375473 278.103577 
L 138.392446 278.103577 
L 138.426341 277.177336 
L 138.794909 277.177336 
L 138.794909 276.714215 
L 139.090775 276.714215 
L 139.090775 276.251095 
L 139.87165 276.251095 
L 139.9494 275.324854 
L 140.073083 275.324854 
L 140.073083 274.861733 
L 140.64889 274.861733 
L 140.64889 274.398612 
L 140.782525 274.398612 
L 140.782525 273.935492 
L 141.133958 273.935492 
L 141.191848 273.009251 
L 141.249546 273.009251 
L 141.292695 271.619889 
L 142.619936 271.619889 
L 142.646541 269.304287 
L 142.831645 269.304287 
L 142.831645 268.841166 
L 143.092717 268.841166 
L 143.092717 268.378046 
L 143.3627 268.378046 
L 143.3627 267.914925 
L 143.927534 267.914925 
L 143.989178 266.525564 
L 144.087359 266.525564 
L 144.160633 265.599323 
L 144.55823 265.599323 
L 144.55823 264.673082 
L 144.736002 264.673082 
L 144.736002 264.209961 
L 145.832743 264.209961 
L 145.910079 262.8206 
L 146.09648 262.8206 
L 146.205204 261.894358 
L 146.431341 261.894358 
L 146.431341 261.431238 
L 147.61026 261.431238 
L 147.700024 260.504997 
L 148.248413 260.504997 
L 148.248413 260.041876 
L 148.910504 260.041876 
L 148.910504 259.578756 
L 149.277854 259.578756 
L 149.314167 257.726274 
L 150.249899 257.726274 
L 150.249899 257.263153 
L 150.56505 257.263153 
L 150.56505 256.336912 
L 152.892686 256.336912 
L 152.892686 255.873792 
L 153.925152 255.873792 
L 153.925152 255.410671 
L 154.761093 255.410671 
L 154.761093 254.48443 
L 157.133693 254.48443 
L 157.133693 254.02131 
L 157.551454 254.02131 
L 157.551454 253.095069 
L 158.721434 253.095069 
L 158.721434 252.631948 
L 159.708245 252.631948 
L 159.708245 252.168828 
L 159.872369 252.168828 
L 159.872369 251.242587 
L 162.260361 251.242587 
L 162.260361 250.779466 
L 162.385097 250.779466 
L 162.385097 250.316346 
L 164.712717 250.316346 
L 164.712717 249.390104 
L 166.320221 249.390104 
L 166.320221 248.463863 
L 167.942207 248.463863 
L 167.942207 247.537622 
L 169.83904 247.537622 
L 169.83904 247.074502 
L 172.061541 247.074502 
L 172.061541 246.611381 
L 172.592284 246.611381 
L 172.592284 245.68514 
L 172.753848 245.68514 
L 172.753848 245.22202 
L 174.072065 245.22202 
L 174.072065 244.758899 
L 174.728361 244.758899 
L 174.728361 244.295779 
L 175.283289 244.295779 
L 175.283289 243.832658 
L 175.40763 243.832658 
L 175.40763 242.906417 
L 176.442643 242.906417 
L 176.442643 242.443297 
L 176.966804 242.443297 
L 177.077894 241.517056 
L 177.081585 241.517056 
L 177.081585 241.053935 
L 177.347112 241.053935 
L 177.347112 240.590815 
L 178.248444 240.590815 
L 178.31734 238.738333 
L 178.736847 238.738333 
L 178.736847 238.275212 
L 179.964628 238.275212 
L 179.964628 237.812091 
L 180.759545 237.812091 
L 180.798355 236.42273 
L 180.936474 236.42273 
L 180.951261 234.570248 
L 181.63672 234.570248 
L 181.72319 233.180886 
L 182.661841 233.180886 
L 182.661841 232.717766 
L 182.901377 232.717766 
L 182.901377 232.254645 
L 183.018609 232.254645 
L 183.022547 230.865284 
L 183.478536 230.865284 
L 183.478536 229.939043 
L 183.787765 229.939043 
L 183.801577 228.549681 
L 184.724376 228.549681 
L 184.724376 227.62344 
L 184.911464 227.62344 
L 184.911464 226.697199 
L 185.452989 226.697199 
L 185.452989 226.234079 
L 186.403933 226.234079 
L 186.471914 224.844717 
L 186.620973 224.844717 
L 186.620973 223.918476 
L 187.104332 223.918476 
L 187.104332 223.455355 
L 187.611011 223.455355 
L 187.611011 222.992235 
L 187.92297 222.992235 
L 187.92297 222.529114 
L 188.319769 222.529114 
L 188.319769 222.065994 
L 189.103018 222.065994 
L 189.103018 221.139753 
L 189.395073 221.139753 
L 189.395073 220.676632 
L 189.964024 220.676632 
L 189.964024 220.213512 
L 190.179543 220.213512 
L 190.179543 219.287271 
L 190.331254 219.287271 
L 190.331254 218.36103 
L 192.669545 218.36103 
L 192.677847 216.971668 
L 194.386977 216.971668 
L 194.386977 216.045427 
L 195.316688 216.045427 
L 195.316688 215.582307 
L 195.510815 215.582307 
L 195.510815 214.656066 
L 195.782549 214.656066 
L 195.782549 213.729825 
L 195.938448 213.729825 
L 195.938448 212.803583 
L 196.300154 212.803583 
L 196.300154 212.340463 
L 196.512782 212.340463 
L 196.575043 211.414222 
L 196.953459 211.414222 
L 196.953459 210.951101 
L 197.152479 210.951101 
L 197.152479 210.02486 
L 197.453987 210.02486 
L 197.453987 209.098619 
L 197.67632 209.098619 
L 197.74755 207.709258 
L 197.865622 207.709258 
L 197.911511 206.319896 
L 198.398692 206.319896 
L 198.398692 205.856776 
L 198.845637 205.856776 
L 198.845637 205.393655 
L 199.787052 205.393655 
L 199.843674 204.467414 
L 200.620534 204.467414 
L 200.620534 204.004294 
L 201.703883 204.004294 
L 201.703883 203.541173 
L 203.096865 203.541173 
L 203.096865 203.078053 
L 203.364634 203.078053 
L 203.364634 202.151812 
L 203.66737 202.151812 
L 203.66737 201.225571 
L 203.787487 201.225571 
L 203.836894 199.836209 
L 203.929752 199.836209 
L 203.929752 198.909968 
L 204.119086 198.909968 
L 204.178102 197.520606 
L 204.40757 197.520606 
L 204.40757 196.594365 
L 204.522329 196.594365 
L 204.587623 195.205004 
L 205.00636 195.205004 
L 205.00636 194.741883 
L 205.479492 194.741883 
L 205.479492 193.815642 
L 205.76467 193.815642 
L 205.76467 192.889401 
L 206.199175 192.889401 
L 206.199175 192.426281 
L 206.501282 192.426281 
L 206.501282 191.96316 
L 207.711957 191.96316 
L 207.711957 191.036919 
L 208.506961 191.036919 
L 208.506961 190.110678 
L 208.920877 190.110678 
L 208.920877 189.647558 
L 209.519585 189.647558 
L 209.519585 189.184437 
L 210.053905 189.184437 
L 210.053905 188.258196 
L 210.761409 188.258196 
L 210.761409 187.795075 
L 210.872599 187.795075 
L 210.872599 187.331955 
L 211.50655 187.331955 
L 211.50655 186.405714 
L 213.68543 186.405714 
L 213.774326 185.016352 
L 213.922455 185.016352 
L 213.922455 184.553232 
L 215.129761 184.553232 
L 215.129761 184.090111 
L 217.800211 184.090111 
L 217.800211 183.626991 
L 218.391269 183.626991 
L 218.391269 183.16387 
L 219.135414 183.16387 
L 219.135414 182.70075 
L 222.619042 182.70075 
L 222.619042 181.774509 
L 224.748838 181.774509 
L 224.748838 181.311388 
L 225.115819 181.311388 
L 225.115819 180.848268 
L 225.565777 180.848268 
L 225.565777 180.385147 
L 227.640076 180.385147 
L 227.640076 179.458906 
L 228.040502 179.458906 
L 228.105432 178.532665 
L 229.786605 178.532665 
L 229.786605 178.069545 
L 230.419486 178.069545 
L 230.419486 177.143304 
L 230.711547 177.143304 
L 230.711547 176.680183 
L 231.750552 176.680183 
L 231.750552 176.217062 
L 238.89762 176.217062 
L 238.89762 175.753942 
L 241.716504 175.753942 
L 241.716504 175.290821 
L 244.192381 175.290821 
L 244.192381 174.827701 
L 245.864006 174.827701 
L 245.864006 174.36458 
L 249.458826 174.36458 
L 249.489887 172.975219 
L 249.616348 172.975219 
L 249.616348 172.512098 
L 249.861606 172.512098 
L 249.861606 172.048978 
L 250.417652 172.048978 
L 250.417652 171.585857 
L 251.901003 171.585857 
L 251.901003 171.122737 
L 253.438869 171.122737 
L 253.438869 170.196496 
L 255.699689 170.196496 
L 255.699689 169.733375 
L 256.073665 169.733375 
L 256.073665 169.270255 
L 256.4394 169.270255 
L 256.4394 168.344014 
L 338.688 168.344014 
L 338.688 168.344014 
" style="fill:none;stroke:#ff00ff;stroke-linecap:square;stroke-width:1.5;"/>
   </g>
   <g id="line2d_41">
    <defs>
     <path d="M 0 8.485281 
L 5.091169 0 
L 0 -8.485281 
L -5.091169 0 
z
" id="m39c2c00ec8" style="stroke:#ff00ff;stroke-linejoin:miter;stroke-width:1.5;"/>
    </defs>
    <g>
     <use style="fill-opacity:0;stroke:#ff00ff;stroke-linejoin:miter;stroke-width:1.5;" x="128.471239" xlink:href="#m39c2c00ec8" y="289.218469"/>
     <use style="fill-opacity:0;stroke:#ff00ff;stroke-linejoin:miter;stroke-width:1.5;" x="183.022547" xlink:href="#m39c2c00ec8" y="230.865284"/>
     <use style="fill-opacity:0;stroke:#ff00ff;stroke-linejoin:miter;stroke-width:1.5;" x="238.89762" xlink:href="#m39c2c00ec8" y="176.217062"/>
     <use style="fill-opacity:0;stroke:#ff00ff;stroke-linejoin:miter;stroke-width:1.5;" x="256.4394" xlink:href="#m39c2c00ec8" y="168.344014"/>
     <use style="fill-opacity:0;stroke:#ff00ff;stroke-linejoin:miter;stroke-width:1.5;" x="256.4394" xlink:href="#m39c2c00ec8" y="168.344014"/>
     <use style="fill-opacity:0;stroke:#ff00ff;stroke-linejoin:miter;stroke-width:1.5;" x="338.688" xlink:href="#m39c2c00ec8" y="168.344014"/>
    </g>
   </g>
   <g id="line2d_42">
    <path style="fill:none;stroke:#ff00ff;stroke-linecap:square;stroke-width:1.5;"/>
    <g/>
   </g>
   <g id="line2d_43">
    <path clip-path="url(#p597326a8a5)" d="M 258.379427 168.344014 
" style="fill:none;stroke:#ff00ff;stroke-linecap:square;stroke-width:1.5;"/>
    <defs>
     <path d="M -12 12 
L 12 -12 
M -12 -12 
L 12 12 
" id="mc9d58d9240" style="stroke:#ff00ff;"/>
    </defs>
    <g clip-path="url(#p597326a8a5)">
     <use style="fill:#ff00ff;stroke:#ff00ff;" x="258.379427" xlink:href="#mc9d58d9240" y="168.344014"/>
    </g>
   </g>
   <g id="line2d_44">
    <defs>
     <path d="M 0 1.5 
C 0.397805 1.5 0.77937 1.341951 1.06066 1.06066 
C 1.341951 0.77937 1.5 0.397805 1.5 0 
C 1.5 -0.397805 1.341951 -0.77937 1.06066 -1.06066 
C 0.77937 -1.341951 0.397805 -1.5 0 -1.5 
C -0.397805 -1.5 -0.77937 -1.341951 -1.06066 -1.06066 
C -1.341951 -0.77937 -1.5 -0.397805 -1.5 0 
C -1.5 0.397805 -1.341951 0.77937 -1.06066 1.06066 
C -0.77937 1.341951 -0.397805 1.5 0 1.5 
z
" id="m2641e01026" style="stroke:#ff7500;"/>
    </defs>
    <g>
     <use style="fill:#ff7500;stroke:#ff7500;" x="192.75163" xlink:href="#m2641e01026" y="193.352522"/>
     <use style="fill:#ff7500;stroke:#ff7500;" x="192.75163" xlink:href="#m2641e01026" y="193.352522"/>
    </g>
   </g>
   <g id="line2d_45">
    <path d="M 151.039674 298.944 
L 151.039674 298.480879 
L 151.509721 298.480879 
L 151.509721 298.017759 
L 151.684751 298.017759 
L 151.684751 297.554638 
L 152.253262 297.554638 
L 152.253262 297.091518 
L 152.759222 297.091518 
L 152.759222 296.165277 
L 152.922207 296.165277 
L 152.922207 295.702156 
L 153.402218 295.702156 
L 153.452361 294.775915 
L 153.665645 294.775915 
L 153.7432 292.923433 
L 153.84141 292.923433 
L 153.84141 292.460313 
L 154.084543 292.460313 
L 154.139643 291.534072 
L 154.547439 291.534072 
L 154.567581 290.607831 
L 154.866947 290.607831 
L 154.906477 289.68159 
L 154.991819 289.68159 
L 154.991819 289.218469 
L 155.444309 289.218469 
L 155.539762 287.365987 
L 155.634696 287.365987 
L 155.634696 286.902867 
L 155.754208 286.902867 
L 155.760475 285.513505 
L 156.107908 285.513505 
L 156.175347 284.124143 
L 156.224231 284.124143 
L 156.224231 283.661023 
L 156.424441 283.661023 
L 156.478647 282.271661 
L 156.759018 282.271661 
L 156.759018 281.808541 
L 156.900466 281.808541 
L 156.959066 280.8823 
L 157.340963 280.8823 
L 157.38669 279.956059 
L 157.61918 279.956059 
L 157.714676 277.177336 
L 157.915194 277.177336 
L 158.025604 276.251095 
L 158.042106 276.251095 
L 158.13532 275.324854 
L 158.184468 275.324854 
L 158.287772 274.398612 
L 158.309442 274.398612 
L 158.309442 273.935492 
L 158.721434 273.935492 
L 158.784773 272.54613 
L 158.858379 272.54613 
L 158.968208 271.156769 
L 158.978632 271.156769 
L 158.978632 270.230528 
L 159.11358 270.230528 
L 159.11358 269.767407 
L 159.257749 269.767407 
L 159.324282 267.914925 
L 159.421068 267.914925 
L 159.466728 266.525564 
L 159.557689 266.525564 
L 159.557689 266.062443 
L 159.758143 266.062443 
L 159.852557 264.209961 
L 159.956318 264.209961 
L 159.966168 262.8206 
L 160.079044 262.8206 
L 160.147395 260.968117 
L 160.200913 260.968117 
L 160.278464 260.041876 
L 160.37492 260.041876 
L 160.37492 259.578756 
L 160.571004 259.578756 
L 160.656397 258.189394 
L 160.727241 258.189394 
L 160.797798 256.336912 
L 161.003133 256.336912 
L 161.100288 254.02131 
L 161.238149 254.02131 
L 161.297551 252.631948 
L 161.365843 252.631948 
L 161.384008 251.242587 
L 161.519653 251.242587 
L 161.519653 250.779466 
L 161.663187 250.779466 
L 161.685508 249.853225 
L 161.911563 249.853225 
L 162.016937 248.000743 
L 162.07375 248.000743 
L 162.07375 247.537622 
L 162.243086 247.537622 
L 162.329291 245.68514 
L 162.393666 245.68514 
L 162.449267 243.832658 
L 162.559939 243.832658 
L 162.564181 241.980176 
L 162.850284 241.980176 
L 162.850284 241.517056 
L 162.970886 241.517056 
L 162.970886 241.053935 
L 163.213702 241.053935 
L 163.213702 240.127694 
L 163.50953 240.127694 
L 163.50953 239.664574 
L 163.637643 239.664574 
L 163.717238 237.348971 
L 163.752938 237.348971 
L 163.752938 236.42273 
L 163.879282 236.42273 
L 163.879282 235.496489 
L 164.167992 235.496489 
L 164.233648 234.107127 
L 164.306736 234.107127 
L 164.383342 231.791525 
L 164.554485 231.791525 
L 164.618704 229.939043 
L 164.832318 229.939043 
L 164.832318 229.475922 
L 165.043347 229.475922 
L 165.043347 228.549681 
L 165.30631 228.549681 
L 165.30631 228.086561 
L 165.601045 228.086561 
L 165.697012 225.307837 
L 166.099947 225.307837 
L 166.210432 221.602873 
L 166.765935 221.602873 
L 166.868978 218.82415 
L 167.047033 218.82415 
L 167.086355 216.971668 
L 167.246005 216.971668 
L 167.333356 214.656066 
L 167.813965 214.656066 
L 167.860992 213.729825 
L 167.951554 213.729825 
L 167.991998 212.803583 
L 168.13436 212.803583 
L 168.192825 210.951101 
L 168.324419 210.951101 
L 168.360967 209.56174 
L 169.163666 209.56174 
L 169.247725 207.246137 
L 169.342888 207.246137 
L 169.342888 206.319896 
L 169.588476 206.319896 
L 169.588476 205.393655 
L 169.883706 205.393655 
L 169.883706 204.467414 
L 170.014255 204.467414 
L 170.014255 204.004294 
L 170.245169 204.004294 
L 170.245169 203.541173 
L 170.666063 203.541173 
L 170.666063 202.614932 
L 170.841121 202.614932 
L 170.841121 202.151812 
L 171.237722 202.151812 
L 171.276376 199.836209 
L 171.488725 199.836209 
L 171.488725 198.909968 
L 172.303468 198.909968 
L 172.351938 197.057486 
L 172.498943 197.057486 
L 172.577957 196.131245 
L 172.628052 196.131245 
L 172.628052 195.668124 
L 172.742019 195.668124 
L 172.742019 195.205004 
L 173.192889 195.205004 
L 173.192889 194.741883 
L 176.271451 194.741883 
L 176.271451 194.278763 
L 192.75163 194.278763 
L 192.75163 193.352522 
L 338.688 193.352522 
L 338.688 193.352522 
" style="fill:none;stroke:#ff7500;stroke-linecap:square;stroke-width:1.5;"/>
   </g>
   <g id="line2d_46">
    <defs>
     <path d="M 0 -6 
L -1.347084 -1.854102 
L -5.706339 -1.854102 
L -2.179628 0.708204 
L -3.526712 4.854102 
L -0 2.291796 
L 3.526712 4.854102 
L 2.179628 0.708204 
L 5.706339 -1.854102 
L 1.347084 -1.854102 
z
" id="mebb09de20e" style="stroke:#ff7500;stroke-linejoin:bevel;stroke-width:1.5;"/>
    </defs>
    <g>
     <use style="fill-opacity:0;stroke:#ff7500;stroke-linejoin:bevel;stroke-width:1.5;" x="167.086355" xlink:href="#mebb09de20e" y="217.897909"/>
     <use style="fill-opacity:0;stroke:#ff7500;stroke-linejoin:bevel;stroke-width:1.5;" x="192.75163" xlink:href="#mebb09de20e" y="194.278763"/>
     <use style="fill-opacity:0;stroke:#ff7500;stroke-linejoin:bevel;stroke-width:1.5;" x="192.75163" xlink:href="#mebb09de20e" y="193.352522"/>
     <use style="fill-opacity:0;stroke:#ff7500;stroke-linejoin:bevel;stroke-width:1.5;" x="192.75163" xlink:href="#mebb09de20e" y="193.352522"/>
     <use style="fill-opacity:0;stroke:#ff7500;stroke-linejoin:bevel;stroke-width:1.5;" x="338.688" xlink:href="#mebb09de20e" y="193.352522"/>
    </g>
   </g>
   <g id="line2d_47">
    <path style="fill:none;stroke:#ff7500;stroke-linecap:square;stroke-width:1.5;"/>
    <g/>
   </g>
   <g id="line2d_48">
    <path clip-path="url(#p597326a8a5)" d="M 258.37716 193.352522 
" style="fill:none;stroke:#ff7500;stroke-linecap:square;stroke-width:1.5;"/>
    <defs>
     <path d="M -12 12 
L 12 -12 
M -12 -12 
L 12 12 
" id="m671147bca6" style="stroke:#ff7500;"/>
    </defs>
    <g clip-path="url(#p597326a8a5)">
     <use style="fill:#ff7500;stroke:#ff7500;" x="258.37716" xlink:href="#m671147bca6" y="193.352522"/>
    </g>
   </g>
   <g id="line2d_49">
    <path d="M 338.688 193.352522 
L 369.60768 293.571802 
" style="fill:none;stroke:#ff7500;stroke-linecap:square;stroke-width:1.5;"/>
    <g>
     <use style="fill-opacity:0;stroke:#ff7500;stroke-linejoin:bevel;stroke-width:1.5;" x="338.688" xlink:href="#mebb09de20e" y="193.352522"/>
     <use style="fill-opacity:0;stroke:#ff7500;stroke-linejoin:bevel;stroke-width:1.5;" x="369.60768" xlink:href="#mebb09de20e" y="293.571802"/>
    </g>
   </g>
   <g id="line2d_50">
    <path d="M 338.688 168.344014 
L 369.60768 207.616634 
" style="fill:none;stroke:#ff00ff;stroke-linecap:square;stroke-width:1.5;"/>
    <g>
     <use style="fill-opacity:0;stroke:#ff00ff;stroke-linejoin:miter;stroke-width:1.5;" x="338.688" xlink:href="#m39c2c00ec8" y="168.344014"/>
     <use style="fill-opacity:0;stroke:#ff00ff;stroke-linejoin:miter;stroke-width:1.5;" x="369.60768" xlink:href="#m39c2c00ec8" y="207.616634"/>
    </g>
   </g>
   <g id="line2d_51">
    <path d="M 338.688 84.056079 
L 369.60768 121.661465 
" style="fill:none;stroke:#000080;stroke-linecap:square;stroke-width:1.5;"/>
    <g>
     <use style="fill-opacity:0;stroke:#000080;stroke-width:1.5;" x="338.688" xlink:href="#m124c260bd1" y="84.056079"/>
     <use style="fill-opacity:0;stroke:#000080;stroke-width:1.5;" x="369.60768" xlink:href="#m124c260bd1" y="121.661465"/>
    </g>
   </g>
   <g id="line2d_52">
    <path d="M 338.688 298.944 
L 338.688 30.334099 
" style="fill:none;stroke:#000000;stroke-linecap:square;stroke-width:1.5;"/>
   </g>
   <g id="patch_3">
    <path d="M 57.6 298.944 
L 57.6 27.648 
" style="fill:none;stroke:#000000;stroke-linecap:square;stroke-linejoin:miter;stroke-width:0.8;"/>
   </g>
   <g id="patch_4">
    <path d="M 338.688 298.944 
L 338.688 27.648 
" style="fill:none;stroke:#000000;stroke-linecap:square;stroke-linejoin:miter;stroke-width:0.8;"/>
   </g>
   <g id="patch_5">
    <path d="M 57.6 298.944 
L 338.688 298.944 
" style="fill:none;stroke:#000000;stroke-linecap:square;stroke-linejoin:miter;stroke-width:0.8;"/>
   </g>
   <g id="patch_6">
    <path d="M 57.6 27.648 
L 338.688 27.648 
" style="fill:none;stroke:#000000;stroke-linecap:square;stroke-linejoin:miter;stroke-width:0.8;"/>
   </g>
   <g id="text_13">
    <!-- SMS-EMOA- -->
    <g transform="translate(375.22944 298.262739)scale(0.17 -0.17)">
     <defs>
      <path d="M 53.515625 70.515625 
L 53.515625 60.890625 
Q 47.90625 63.578125 42.921875 64.890625 
Q 37.9375 66.21875 33.296875 66.21875 
Q 25.25 66.21875 20.875 63.09375 
Q 16.5 59.96875 16.5 54.203125 
Q 16.5 49.359375 19.40625 46.890625 
Q 22.3125 44.4375 30.421875 42.921875 
L 36.375 41.703125 
Q 47.40625 39.59375 52.65625 34.296875 
Q 57.90625 29 57.90625 20.125 
Q 57.90625 9.515625 50.796875 4.046875 
Q 43.703125 -1.421875 29.984375 -1.421875 
Q 24.8125 -1.421875 18.96875 -0.25 
Q 13.140625 0.921875 6.890625 3.21875 
L 6.890625 13.375 
Q 12.890625 10.015625 18.65625 8.296875 
Q 24.421875 6.59375 29.984375 6.59375 
Q 38.421875 6.59375 43.015625 9.90625 
Q 47.609375 13.234375 47.609375 19.390625 
Q 47.609375 24.75 44.3125 27.78125 
Q 41.015625 30.8125 33.5 32.328125 
L 27.484375 33.5 
Q 16.453125 35.6875 11.515625 40.375 
Q 6.59375 45.0625 6.59375 53.421875 
Q 6.59375 63.09375 13.40625 68.65625 
Q 20.21875 74.21875 32.171875 74.21875 
Q 37.3125 74.21875 42.625 73.28125 
Q 47.953125 72.359375 53.515625 70.515625 
z
" id="DejaVuSans-83"/>
      <path d="M 9.8125 72.90625 
L 24.515625 72.90625 
L 43.109375 23.296875 
L 61.8125 72.90625 
L 76.515625 72.90625 
L 76.515625 0 
L 66.890625 0 
L 66.890625 64.015625 
L 48.09375 14.015625 
L 38.1875 14.015625 
L 19.390625 64.015625 
L 19.390625 0 
L 9.8125 0 
z
" id="DejaVuSans-77"/>
      <path d="M 9.8125 72.90625 
L 55.90625 72.90625 
L 55.90625 64.59375 
L 19.671875 64.59375 
L 19.671875 43.015625 
L 54.390625 43.015625 
L 54.390625 34.71875 
L 19.671875 34.71875 
L 19.671875 8.296875 
L 56.78125 8.296875 
L 56.78125 0 
L 9.8125 0 
z
" id="DejaVuSans-69"/>
      <path d="M 39.40625 66.21875 
Q 28.65625 66.21875 22.328125 58.203125 
Q 16.015625 50.203125 16.015625 36.375 
Q 16.015625 22.609375 22.328125 14.59375 
Q 28.65625 6.59375 39.40625 6.59375 
Q 50.140625 6.59375 56.421875 14.59375 
Q 62.703125 22.609375 62.703125 36.375 
Q 62.703125 50.203125 56.421875 58.203125 
Q 50.140625 66.21875 39.40625 66.21875 
z
M 39.40625 74.21875 
Q 54.734375 74.21875 63.90625 63.9375 
Q 73.09375 53.65625 73.09375 36.375 
Q 73.09375 19.140625 63.90625 8.859375 
Q 54.734375 -1.421875 39.40625 -1.421875 
Q 24.03125 -1.421875 14.8125 8.828125 
Q 5.609375 19.09375 5.609375 36.375 
Q 5.609375 53.65625 14.8125 63.9375 
Q 24.03125 74.21875 39.40625 74.21875 
z
" id="DejaVuSans-79"/>
      <path d="M 34.1875 63.1875 
L 20.796875 26.90625 
L 47.609375 26.90625 
z
M 28.609375 72.90625 
L 39.796875 72.90625 
L 67.578125 0 
L 57.328125 0 
L 50.6875 18.703125 
L 17.828125 18.703125 
L 11.1875 0 
L 0.78125 0 
z
" id="DejaVuSans-65"/>
     </defs>
     <use xlink:href="#DejaVuSans-83"/>
     <use x="63.476562" xlink:href="#DejaVuSans-77"/>
     <use x="149.755859" xlink:href="#DejaVuSans-83"/>
     <use x="213.232422" xlink:href="#DejaVuSans-45"/>
     <use x="249.316406" xlink:href="#DejaVuSans-69"/>
     <use x="312.5" xlink:href="#DejaVuSans-77"/>
     <use x="398.779297" xlink:href="#DejaVuSans-79"/>
     <use x="475.740234" xlink:href="#DejaVuSans-65"/>
     <use x="541.898438" xlink:href="#DejaVuSans-45"/>
    </g>
   </g>
   <g id="text_14">
    <!-- NSGA-II-M -->
    <g transform="translate(375.22944 212.307571)scale(0.17 -0.17)">
     <defs>
      <path d="M 9.8125 72.90625 
L 23.09375 72.90625 
L 55.421875 11.921875 
L 55.421875 72.90625 
L 64.984375 72.90625 
L 64.984375 0 
L 51.703125 0 
L 19.390625 60.984375 
L 19.390625 0 
L 9.8125 0 
z
" id="DejaVuSans-78"/>
      <path d="M 59.515625 10.40625 
L 59.515625 29.984375 
L 43.40625 29.984375 
L 43.40625 38.09375 
L 69.28125 38.09375 
L 69.28125 6.78125 
Q 63.578125 2.734375 56.6875 0.65625 
Q 49.8125 -1.421875 42 -1.421875 
Q 24.90625 -1.421875 15.25 8.5625 
Q 5.609375 18.5625 5.609375 36.375 
Q 5.609375 54.25 15.25 64.234375 
Q 24.90625 74.21875 42 74.21875 
Q 49.125 74.21875 55.546875 72.453125 
Q 61.96875 70.703125 67.390625 67.28125 
L 67.390625 56.78125 
Q 61.921875 61.421875 55.765625 63.765625 
Q 49.609375 66.109375 42.828125 66.109375 
Q 29.4375 66.109375 22.71875 58.640625 
Q 16.015625 51.171875 16.015625 36.375 
Q 16.015625 21.625 22.71875 14.15625 
Q 29.4375 6.6875 42.828125 6.6875 
Q 48.046875 6.6875 52.140625 7.59375 
Q 56.25 8.5 59.515625 10.40625 
z
" id="DejaVuSans-71"/>
      <path d="M 9.8125 72.90625 
L 19.671875 72.90625 
L 19.671875 0 
L 9.8125 0 
z
" id="DejaVuSans-73"/>
     </defs>
     <use xlink:href="#DejaVuSans-78"/>
     <use x="74.804688" xlink:href="#DejaVuSans-83"/>
     <use x="138.28125" xlink:href="#DejaVuSans-71"/>
     <use x="215.771484" xlink:href="#DejaVuSans-65"/>
     <use x="281.929688" xlink:href="#DejaVuSans-45"/>
     <use x="318.013672" xlink:href="#DejaVuSans-73"/>
     <use x="347.505859" xlink:href="#DejaVuSans-73"/>
     <use x="376.998047" xlink:href="#DejaVuSans-45"/>
     <use x="413.082031" xlink:href="#DejaVuSans-77"/>
    </g>
   </g>
   <g id="text_15">
    <!-- COMO-100  -->
    <g transform="translate(375.22944 126.352403)scale(0.17 -0.17)">
     <defs>
      <path d="M 64.40625 67.28125 
L 64.40625 56.890625 
Q 59.421875 61.53125 53.78125 63.8125 
Q 48.140625 66.109375 41.796875 66.109375 
Q 29.296875 66.109375 22.65625 58.46875 
Q 16.015625 50.828125 16.015625 36.375 
Q 16.015625 21.96875 22.65625 14.328125 
Q 29.296875 6.6875 41.796875 6.6875 
Q 48.140625 6.6875 53.78125 8.984375 
Q 59.421875 11.28125 64.40625 15.921875 
L 64.40625 5.609375 
Q 59.234375 2.09375 53.4375 0.328125 
Q 47.65625 -1.421875 41.21875 -1.421875 
Q 24.65625 -1.421875 15.125 8.703125 
Q 5.609375 18.84375 5.609375 36.375 
Q 5.609375 53.953125 15.125 64.078125 
Q 24.65625 74.21875 41.21875 74.21875 
Q 47.75 74.21875 53.53125 72.484375 
Q 59.328125 70.75 64.40625 67.28125 
z
" id="DejaVuSans-67"/>
     </defs>
     <use xlink:href="#DejaVuSans-67"/>
     <use x="69.824219" xlink:href="#DejaVuSans-79"/>
     <use x="148.535156" xlink:href="#DejaVuSans-77"/>
     <use x="234.814453" xlink:href="#DejaVuSans-79"/>
     <use x="316.275391" xlink:href="#DejaVuSans-45"/>
     <use x="352.359375" xlink:href="#DejaVuSans-49"/>
     <use x="415.982422" xlink:href="#DejaVuSans-48"/>
     <use x="479.605469" xlink:href="#DejaVuSans-48"/>
     <use x="543.228516" xlink:href="#DejaVuSans-32"/>
    </g>
   </g>
   <g id="text_16">
    <!-- best 2016 -->
    <g transform="translate(375.22944 40.397235)scale(0.17 -0.17)">
     <defs>
      <path d="M 48.6875 27.296875 
Q 48.6875 37.203125 44.609375 42.84375 
Q 40.53125 48.484375 33.40625 48.484375 
Q 26.265625 48.484375 22.1875 42.84375 
Q 18.109375 37.203125 18.109375 27.296875 
Q 18.109375 17.390625 22.1875 11.75 
Q 26.265625 6.109375 33.40625 6.109375 
Q 40.53125 6.109375 44.609375 11.75 
Q 48.6875 17.390625 48.6875 27.296875 
z
M 18.109375 46.390625 
Q 20.953125 51.265625 25.265625 53.625 
Q 29.59375 56 35.59375 56 
Q 45.5625 56 51.78125 48.09375 
Q 58.015625 40.1875 58.015625 27.296875 
Q 58.015625 14.40625 51.78125 6.484375 
Q 45.5625 -1.421875 35.59375 -1.421875 
Q 29.59375 -1.421875 25.265625 0.953125 
Q 20.953125 3.328125 18.109375 8.203125 
L 18.109375 0 
L 9.078125 0 
L 9.078125 75.984375 
L 18.109375 75.984375 
z
" id="DejaVuSans-98"/>
     </defs>
     <use xlink:href="#DejaVuSans-98"/>
     <use x="63.476562" xlink:href="#DejaVuSans-101"/>
     <use x="125" xlink:href="#DejaVuSans-115"/>
     <use x="177.099609" xlink:href="#DejaVuSans-116"/>
     <use x="216.308594" xlink:href="#DejaVuSans-32"/>
     <use x="248.095703" xlink:href="#DejaVuSans-50"/>
     <use x="311.71875" xlink:href="#DejaVuSans-48"/>
     <use x="375.341797" xlink:href="#DejaVuSans-49"/>
     <use x="438.964844" xlink:href="#DejaVuSans-54"/>
    </g>
   </g>
   <g id="text_17">
    <!-- bbob-biobj f9, 10-D -->
    <g transform="translate(60.41088 38.111366)scale(0.102 -0.102)">
     <defs>
      <path d="M 9.421875 54.6875 
L 18.40625 54.6875 
L 18.40625 -0.984375 
Q 18.40625 -11.421875 14.421875 -16.109375 
Q 10.453125 -20.796875 1.609375 -20.796875 
L -1.8125 -20.796875 
L -1.8125 -13.1875 
L 0.59375 -13.1875 
Q 5.71875 -13.1875 7.5625 -10.8125 
Q 9.421875 -8.453125 9.421875 -0.984375 
z
M 9.421875 75.984375 
L 18.40625 75.984375 
L 18.40625 64.59375 
L 9.421875 64.59375 
z
" id="DejaVuSans-106"/>
      <path d="M 10.984375 1.515625 
L 10.984375 10.5 
Q 14.703125 8.734375 18.5 7.8125 
Q 22.3125 6.890625 25.984375 6.890625 
Q 35.75 6.890625 40.890625 13.453125 
Q 46.046875 20.015625 46.78125 33.40625 
Q 43.953125 29.203125 39.59375 26.953125 
Q 35.25 24.703125 29.984375 24.703125 
Q 19.046875 24.703125 12.671875 31.3125 
Q 6.296875 37.9375 6.296875 49.421875 
Q 6.296875 60.640625 12.9375 67.421875 
Q 19.578125 74.21875 30.609375 74.21875 
Q 43.265625 74.21875 49.921875 64.515625 
Q 56.59375 54.828125 56.59375 36.375 
Q 56.59375 19.140625 48.40625 8.859375 
Q 40.234375 -1.421875 26.421875 -1.421875 
Q 22.703125 -1.421875 18.890625 -0.6875 
Q 15.09375 0.046875 10.984375 1.515625 
z
M 30.609375 32.421875 
Q 37.25 32.421875 41.125 36.953125 
Q 45.015625 41.5 45.015625 49.421875 
Q 45.015625 57.28125 41.125 61.84375 
Q 37.25 66.40625 30.609375 66.40625 
Q 23.96875 66.40625 20.09375 61.84375 
Q 16.21875 57.28125 16.21875 49.421875 
Q 16.21875 41.5 20.09375 36.953125 
Q 23.96875 32.421875 30.609375 32.421875 
z
" id="DejaVuSans-57"/>
      <path d="M 19.671875 64.796875 
L 19.671875 8.109375 
L 31.59375 8.109375 
Q 46.6875 8.109375 53.6875 14.9375 
Q 60.6875 21.78125 60.6875 36.53125 
Q 60.6875 51.171875 53.6875 57.984375 
Q 46.6875 64.796875 31.59375 64.796875 
z
M 9.8125 72.90625 
L 30.078125 72.90625 
Q 51.265625 72.90625 61.171875 64.09375 
Q 71.09375 55.28125 71.09375 36.53125 
Q 71.09375 17.671875 61.125 8.828125 
Q 51.171875 0 30.078125 0 
L 9.8125 0 
z
" id="DejaVuSans-68"/>
     </defs>
     <use xlink:href="#DejaVuSans-98"/>
     <use x="63.476562" xlink:href="#DejaVuSans-98"/>
     <use x="126.953125" xlink:href="#DejaVuSans-111"/>
     <use x="188.134766" xlink:href="#DejaVuSans-98"/>
     <use x="251.611328" xlink:href="#DejaVuSans-45"/>
     <use x="287.695312" xlink:href="#DejaVuSans-98"/>
     <use x="351.171875" xlink:href="#DejaVuSans-105"/>
     <use x="378.955078" xlink:href="#DejaVuSans-111"/>
     <use x="440.136719" xlink:href="#DejaVuSans-98"/>
     <use x="503.613281" xlink:href="#DejaVuSans-106"/>
     <use x="531.396484" xlink:href="#DejaVuSans-32"/>
     <use x="563.183594" xlink:href="#DejaVuSans-102"/>
     <use x="598.388672" xlink:href="#DejaVuSans-57"/>
     <use x="662.011719" xlink:href="#DejaVuSans-44"/>
     <use x="693.798828" xlink:href="#DejaVuSans-32"/>
     <use x="725.585938" xlink:href="#DejaVuSans-49"/>
     <use x="789.208984" xlink:href="#DejaVuSans-48"/>
     <use x="852.832031" xlink:href="#DejaVuSans-45"/>
     <use x="888.916016" xlink:href="#DejaVuSans-68"/>
    </g>
    <!-- 58 targets: 1..-1.0e-4 -->
    <g transform="translate(60.41088 49.533135)scale(0.102 -0.102)">
     <defs>
      <path d="M 10.796875 72.90625 
L 49.515625 72.90625 
L 49.515625 64.59375 
L 19.828125 64.59375 
L 19.828125 46.734375 
Q 21.96875 47.46875 24.109375 47.828125 
Q 26.265625 48.1875 28.421875 48.1875 
Q 40.625 48.1875 47.75 41.5 
Q 54.890625 34.8125 54.890625 23.390625 
Q 54.890625 11.625 47.5625 5.09375 
Q 40.234375 -1.421875 26.90625 -1.421875 
Q 22.3125 -1.421875 17.546875 -0.640625 
Q 12.796875 0.140625 7.71875 1.703125 
L 7.71875 11.625 
Q 12.109375 9.234375 16.796875 8.0625 
Q 21.484375 6.890625 26.703125 6.890625 
Q 35.15625 6.890625 40.078125 11.328125 
Q 45.015625 15.765625 45.015625 23.390625 
Q 45.015625 31 40.078125 35.4375 
Q 35.15625 39.890625 26.703125 39.890625 
Q 22.75 39.890625 18.8125 39.015625 
Q 14.890625 38.140625 10.796875 36.28125 
z
" id="DejaVuSans-53"/>
      <path d="M 11.71875 12.40625 
L 22.015625 12.40625 
L 22.015625 0 
L 11.71875 0 
z
M 11.71875 51.703125 
L 22.015625 51.703125 
L 22.015625 39.3125 
L 11.71875 39.3125 
z
" id="DejaVuSans-58"/>
     </defs>
     <use xlink:href="#DejaVuSans-53"/>
     <use x="63.623047" xlink:href="#DejaVuSans-56"/>
     <use x="127.246094" xlink:href="#DejaVuSans-32"/>
     <use x="159.033203" xlink:href="#DejaVuSans-116"/>
     <use x="198.242188" xlink:href="#DejaVuSans-97"/>
     <use x="259.521484" xlink:href="#DejaVuSans-114"/>
     <use x="298.884766" xlink:href="#DejaVuSans-103"/>
     <use x="362.361328" xlink:href="#DejaVuSans-101"/>
     <use x="423.884766" xlink:href="#DejaVuSans-116"/>
     <use x="463.09375" xlink:href="#DejaVuSans-115"/>
     <use x="515.193359" xlink:href="#DejaVuSans-58"/>
     <use x="548.884766" xlink:href="#DejaVuSans-32"/>
     <use x="580.671875" xlink:href="#DejaVuSans-49"/>
     <use x="644.294922" xlink:href="#DejaVuSans-46"/>
     <use x="676.082031" xlink:href="#DejaVuSans-46"/>
     <use x="707.869141" xlink:href="#DejaVuSans-45"/>
     <use x="743.953125" xlink:href="#DejaVuSans-49"/>
     <use x="807.576172" xlink:href="#DejaVuSans-46"/>
     <use x="839.363281" xlink:href="#DejaVuSans-48"/>
     <use x="902.986328" xlink:href="#DejaVuSans-101"/>
     <use x="964.509766" xlink:href="#DejaVuSans-45"/>
     <use x="1000.59375" xlink:href="#DejaVuSans-52"/>
    </g>
    <!-- 10 instances -->
    <g transform="translate(60.41088 60.954904)scale(0.102 -0.102)">
     <use xlink:href="#DejaVuSans-49"/>
     <use x="63.623047" xlink:href="#DejaVuSans-48"/>
     <use x="127.246094" xlink:href="#DejaVuSans-32"/>
     <use x="159.033203" xlink:href="#DejaVuSans-105"/>
     <use x="186.816406" xlink:href="#DejaVuSans-110"/>
     <use x="250.195312" xlink:href="#DejaVuSans-115"/>
     <use x="302.294922" xlink:href="#DejaVuSans-116"/>
     <use x="341.503906" xlink:href="#DejaVuSans-97"/>
     <use x="402.783203" xlink:href="#DejaVuSans-110"/>
     <use x="466.162109" xlink:href="#DejaVuSans-99"/>
     <use x="521.142578" xlink:href="#DejaVuSans-101"/>
     <use x="582.666016" xlink:href="#DejaVuSans-115"/>
    </g>
   </g>
   <g id="text_18">
    <!-- v2.4.19, hv-hash=ff0e71e8cd978373 -->
    <g style="fill:#808080;" transform="translate(104.697125 294.151352)scale(0.1 -0.1)">
     <defs>
      <path d="M 54.890625 33.015625 
L 54.890625 0 
L 45.90625 0 
L 45.90625 32.71875 
Q 45.90625 40.484375 42.875 44.328125 
Q 39.84375 48.1875 33.796875 48.1875 
Q 26.515625 48.1875 22.3125 43.546875 
Q 18.109375 38.921875 18.109375 30.90625 
L 18.109375 0 
L 9.078125 0 
L 9.078125 75.984375 
L 18.109375 75.984375 
L 18.109375 46.1875 
Q 21.34375 51.125 25.703125 53.5625 
Q 30.078125 56 35.796875 56 
Q 45.21875 56 50.046875 50.171875 
Q 54.890625 44.34375 54.890625 33.015625 
z
" id="DejaVuSans-104"/>
      <path d="M 10.59375 45.40625 
L 73.1875 45.40625 
L 73.1875 37.203125 
L 10.59375 37.203125 
z
M 10.59375 25.484375 
L 73.1875 25.484375 
L 73.1875 17.1875 
L 10.59375 17.1875 
z
" id="DejaVuSans-61"/>
      <path d="M 8.203125 72.90625 
L 55.078125 72.90625 
L 55.078125 68.703125 
L 28.609375 0 
L 18.3125 0 
L 43.21875 64.59375 
L 8.203125 64.59375 
z
" id="DejaVuSans-55"/>
      <path d="M 40.578125 39.3125 
Q 47.65625 37.796875 51.625 33 
Q 55.609375 28.21875 55.609375 21.1875 
Q 55.609375 10.40625 48.1875 4.484375 
Q 40.765625 -1.421875 27.09375 -1.421875 
Q 22.515625 -1.421875 17.65625 -0.515625 
Q 12.796875 0.390625 7.625 2.203125 
L 7.625 11.71875 
Q 11.71875 9.328125 16.59375 8.109375 
Q 21.484375 6.890625 26.8125 6.890625 
Q 36.078125 6.890625 40.9375 10.546875 
Q 45.796875 14.203125 45.796875 21.1875 
Q 45.796875 27.640625 41.28125 31.265625 
Q 36.765625 34.90625 28.71875 34.90625 
L 20.21875 34.90625 
L 20.21875 43.015625 
L 29.109375 43.015625 
Q 36.375 43.015625 40.234375 45.921875 
Q 44.09375 48.828125 44.09375 54.296875 
Q 44.09375 59.90625 40.109375 62.90625 
Q 36.140625 65.921875 28.71875 65.921875 
Q 24.65625 65.921875 20.015625 65.03125 
Q 15.375 64.15625 9.8125 62.3125 
L 9.8125 71.09375 
Q 15.4375 72.65625 20.34375 73.4375 
Q 25.25 74.21875 29.59375 74.21875 
Q 40.828125 74.21875 47.359375 69.109375 
Q 53.90625 64.015625 53.90625 55.328125 
Q 53.90625 49.265625 50.4375 45.09375 
Q 46.96875 40.921875 40.578125 39.3125 
z
" id="DejaVuSans-51"/>
     </defs>
     <use xlink:href="#DejaVuSans-118"/>
     <use x="59.179688" xlink:href="#DejaVuSans-50"/>
     <use x="122.802734" xlink:href="#DejaVuSans-46"/>
     <use x="154.589844" xlink:href="#DejaVuSans-52"/>
     <use x="218.212891" xlink:href="#DejaVuSans-46"/>
     <use x="250" xlink:href="#DejaVuSans-49"/>
     <use x="313.623047" xlink:href="#DejaVuSans-57"/>
     <use x="377.246094" xlink:href="#DejaVuSans-44"/>
     <use x="409.033203" xlink:href="#DejaVuSans-32"/>
     <use x="440.820312" xlink:href="#DejaVuSans-104"/>
     <use x="504.199219" xlink:href="#DejaVuSans-118"/>
     <use x="560.753906" xlink:href="#DejaVuSans-45"/>
     <use x="596.837891" xlink:href="#DejaVuSans-104"/>
     <use x="660.216797" xlink:href="#DejaVuSans-97"/>
     <use x="721.496094" xlink:href="#DejaVuSans-115"/>
     <use x="773.595703" xlink:href="#DejaVuSans-104"/>
     <use x="836.974609" xlink:href="#DejaVuSans-61"/>
     <use x="920.763672" xlink:href="#DejaVuSans-102"/>
     <use x="955.96875" xlink:href="#DejaVuSans-102"/>
     <use x="991.173828" xlink:href="#DejaVuSans-48"/>
     <use x="1054.796875" xlink:href="#DejaVuSans-101"/>
     <use x="1116.320312" xlink:href="#DejaVuSans-55"/>
     <use x="1179.943359" xlink:href="#DejaVuSans-49"/>
     <use x="1243.566406" xlink:href="#DejaVuSans-101"/>
     <use x="1305.089844" xlink:href="#DejaVuSans-56"/>
     <use x="1368.712891" xlink:href="#DejaVuSans-99"/>
     <use x="1423.693359" xlink:href="#DejaVuSans-100"/>
     <use x="1487.169922" xlink:href="#DejaVuSans-57"/>
     <use x="1550.792969" xlink:href="#DejaVuSans-55"/>
     <use x="1614.416016" xlink:href="#DejaVuSans-56"/>
     <use x="1678.039062" xlink:href="#DejaVuSans-51"/>
     <use x="1741.662109" xlink:href="#DejaVuSans-55"/>
     <use x="1805.285156" xlink:href="#DejaVuSans-51"/>
    </g>
   </g>
   <g id="text_19">
    <!-- 9 Sphere/Schwefel -->
    <g transform="translate(105.040875 21.648)scale(0.2 -0.2)">
     <defs>
      <path d="M 4.203125 54.6875 
L 13.1875 54.6875 
L 24.421875 12.015625 
L 35.59375 54.6875 
L 46.1875 54.6875 
L 57.421875 12.015625 
L 68.609375 54.6875 
L 77.59375 54.6875 
L 63.28125 0 
L 52.6875 0 
L 40.921875 44.828125 
L 29.109375 0 
L 18.5 0 
z
" id="DejaVuSans-119"/>
     </defs>
     <use xlink:href="#DejaVuSans-57"/>
     <use x="63.623047" xlink:href="#DejaVuSans-32"/>
     <use x="95.410156" xlink:href="#DejaVuSans-83"/>
     <use x="158.886719" xlink:href="#DejaVuSans-112"/>
     <use x="222.363281" xlink:href="#DejaVuSans-104"/>
     <use x="285.742188" xlink:href="#DejaVuSans-101"/>
     <use x="347.265625" xlink:href="#DejaVuSans-114"/>
     <use x="386.128906" xlink:href="#DejaVuSans-101"/>
     <use x="447.652344" xlink:href="#DejaVuSans-47"/>
     <use x="481.34375" xlink:href="#DejaVuSans-83"/>
     <use x="544.820312" xlink:href="#DejaVuSans-99"/>
     <use x="599.800781" xlink:href="#DejaVuSans-104"/>
     <use x="663.179688" xlink:href="#DejaVuSans-119"/>
     <use x="744.966797" xlink:href="#DejaVuSans-101"/>
     <use x="806.490234" xlink:href="#DejaVuSans-102"/>
     <use x="841.695312" xlink:href="#DejaVuSans-101"/>
     <use x="903.21875" xlink:href="#DejaVuSans-108"/>
    </g>
   </g>
  </g>
 </g>
 <defs>
  <clipPath id="p597326a8a5">
   <rect height="271.296" width="281.088" x="57.6" y="27.648"/>
  </clipPath>
 </defs>
</svg>
