<?xml version="1.0" encoding="utf-8" standalone="no"?>
<!DOCTYPE svg PUBLIC "-//W3C//DTD SVG 1.1//EN"
  "http://www.w3.org/Graphics/SVG/1.1/DTD/svg11.dtd">
<!-- Created with matplotlib (https://matplotlib.org/) -->
<svg height="345.6pt" version="1.1" viewBox="0 0 460.8 345.6" width="460.8pt" xmlns="http://www.w3.org/2000/svg" xmlns:xlink="http://www.w3.org/1999/xlink">
 <metadata>
  <rdf:RDF xmlns:cc="http://creativecommons.org/ns#" xmlns:dc="http://purl.org/dc/elements/1.1/" xmlns:rdf="http://www.w3.org/1999/02/22-rdf-syntax-ns#">
   <cc:Work>
    <dc:type rdf:resource="http://purl.org/dc/dcmitype/StillImage"/>
    <dc:date>2021-04-26T15:04:39.953030</dc:date>
    <dc:format>image/svg+xml</dc:format>
    <dc:creator>
     <cc:Agent>
      <dc:title>Matplotlib v3.3.2, https://matplotlib.org/</dc:title>
     </cc:Agent>
    </dc:creator>
   </cc:Work>
  </rdf:RDF>
 </metadata>
 <defs>
  <style type="text/css">*{stroke-linecap:butt;stroke-linejoin:round;}</style>
 </defs>
 <g id="figure_1">
  <g id="patch_1">
   <path d="M 0 345.6 
L 460.8 345.6 
L 460.8 0 
L 0 0 
z
" style="fill:#ffffff;"/>
  </g>
  <g id="axes_1">
   <g id="patch_2">
    <path d="M 57.6 298.944 
L 338.688 298.944 
L 338.688 27.648 
L 57.6 27.648 
z
" style="fill:#ffffff;"/>
   </g>
   <g id="line2d_1">
    <path d="M 83.830028 298.944 
L 83.830028 294.312795 
L 85.66744 294.312795 
L 85.66744 285.050384 
L 91.535274 285.050384 
L 91.535274 275.787974 
L 113.73488 275.787974 
L 113.73488 271.156769 
L 132.422528 271.156769 
L 132.422528 257.263153 
L 136.170062 257.263153 
L 136.170062 248.000743 
L 150.891184 248.000743 
L 150.891184 243.369538 
L 156.776762 243.369538 
L 156.776762 234.107127 
L 161.397621 234.107127 
L 161.397621 220.213512 
L 166.679039 220.213512 
L 166.679039 210.951101 
L 175.129186 210.951101 
L 175.129186 201.688691 
L 182.587988 201.688691 
L 182.587988 192.426281 
L 189.690377 192.426281 
L 189.690377 187.795075 
L 193.029639 187.795075 
L 193.029639 173.90146 
L 197.398821 173.90146 
L 197.398821 169.270255 
L 199.90111 169.270255 
L 199.90111 155.376639 
L 202.596153 155.376639 
L 202.596153 146.114229 
L 207.35109 146.114229 
L 207.35109 141.483024 
L 211.369918 141.483024 
L 211.369918 127.589408 
L 216.341621 127.589408 
L 216.341621 122.958203 
L 223.013136 122.958203 
L 223.013136 109.064587 
L 229.124103 109.064587 
L 229.124103 99.802177 
L 237.646382 99.802177 
L 237.646382 90.539766 
L 240.675674 90.539766 
L 240.675674 85.908561 
L 242.020885 85.908561 
L 242.020885 76.646151 
L 243.71964 76.646151 
L 243.71964 62.752535 
L 338.688 62.752535 
" style="fill:none;stroke:#f5deb3;stroke-linecap:square;stroke-width:4;"/>
   </g>
   <g id="line2d_2">
    <defs>
     <path d="M 0 7.778175 
L 7.778175 0 
L 0 -7.778175 
L -7.778175 0 
z
" id="m7827fd6be0" style="stroke:#f5deb3;stroke-linejoin:miter;stroke-width:1.5;"/>
    </defs>
    <g>
     <use style="fill:#f5deb3;stroke:#f5deb3;stroke-linejoin:miter;stroke-width:1.5;" x="161.397621" xlink:href="#m7827fd6be0" y="220.213512"/>
     <use style="fill:#f5deb3;stroke:#f5deb3;stroke-linejoin:miter;stroke-width:1.5;" x="207.35109" xlink:href="#m7827fd6be0" y="141.483024"/>
     <use style="fill:#f5deb3;stroke:#f5deb3;stroke-linejoin:miter;stroke-width:1.5;" x="243.71964" xlink:href="#m7827fd6be0" y="76.646151"/>
     <use style="fill:#f5deb3;stroke:#f5deb3;stroke-linejoin:miter;stroke-width:1.5;" x="243.71964" xlink:href="#m7827fd6be0" y="62.752535"/>
     <use style="fill:#f5deb3;stroke:#f5deb3;stroke-linejoin:miter;stroke-width:1.5;" x="338.688" xlink:href="#m7827fd6be0" y="62.752535"/>
    </g>
   </g>
   <g id="line2d_3">
    <path style="fill:none;stroke:#f5deb3;stroke-linecap:square;stroke-width:4;"/>
    <g/>
   </g>
   <g id="line2d_4">
    <path d="M 338.688 62.752535 
L 369.60768 35.706297 
" style="fill:none;stroke:#f5deb3;stroke-linecap:square;stroke-width:4;"/>
    <g>
     <use style="fill:#f5deb3;stroke:#f5deb3;stroke-linejoin:miter;stroke-width:1.5;" x="338.688" xlink:href="#m7827fd6be0" y="62.752535"/>
     <use style="fill:#f5deb3;stroke:#f5deb3;stroke-linejoin:miter;stroke-width:1.5;" x="369.60768" xlink:href="#m7827fd6be0" y="35.706297"/>
    </g>
   </g>
   <g id="matplotlib.axis_1">
    <g id="xtick_1">
     <g id="line2d_5">
      <path clip-path="url(#p48f92342a5)" d="M 57.6 298.944 
L 57.6 27.648 
" style="fill:none;stroke:#b0b0b0;stroke-linecap:square;stroke-width:0.8;"/>
     </g>
     <g id="line2d_6">
      <defs>
       <path d="M 0 0 
L 0 3.5 
" id="m2706be7c9a" style="stroke:#000000;stroke-width:0.8;"/>
      </defs>
      <g>
       <use style="stroke:#000000;stroke-width:0.8;" x="57.6" xlink:href="#m2706be7c9a" y="298.944"/>
      </g>
     </g>
     <g id="text_1">
      <!-- 0 -->
      <g transform="translate(51.2375 321.140875)scale(0.2 -0.2)">
       <defs>
        <path d="M 31.78125 66.40625 
Q 24.171875 66.40625 20.328125 58.90625 
Q 16.5 51.421875 16.5 36.375 
Q 16.5 21.390625 20.328125 13.890625 
Q 24.171875 6.390625 31.78125 6.390625 
Q 39.453125 6.390625 43.28125 13.890625 
Q 47.125 21.390625 47.125 36.375 
Q 47.125 51.421875 43.28125 58.90625 
Q 39.453125 66.40625 31.78125 66.40625 
z
M 31.78125 74.21875 
Q 44.046875 74.21875 50.515625 64.515625 
Q 56.984375 54.828125 56.984375 36.375 
Q 56.984375 17.96875 50.515625 8.265625 
Q 44.046875 -1.421875 31.78125 -1.421875 
Q 19.53125 -1.421875 13.0625 8.265625 
Q 6.59375 17.96875 6.59375 36.375 
Q 6.59375 54.828125 13.0625 64.515625 
Q 19.53125 74.21875 31.78125 74.21875 
z
" id="DejaVuSans-48"/>
       </defs>
       <use xlink:href="#DejaVuSans-48"/>
      </g>
     </g>
    </g>
    <g id="xtick_2">
     <g id="line2d_7">
      <path clip-path="url(#p48f92342a5)" d="M 137.910857 298.944 
L 137.910857 27.648 
" style="fill:none;stroke:#b0b0b0;stroke-linecap:square;stroke-width:0.8;"/>
     </g>
     <g id="line2d_8">
      <g>
       <use style="stroke:#000000;stroke-width:0.8;" x="137.910857" xlink:href="#m2706be7c9a" y="298.944"/>
      </g>
     </g>
     <g id="text_2">
      <!-- 2 -->
      <g transform="translate(131.548357 321.140875)scale(0.2 -0.2)">
       <defs>
        <path d="M 19.1875 8.296875 
L 53.609375 8.296875 
L 53.609375 0 
L 7.328125 0 
L 7.328125 8.296875 
Q 12.9375 14.109375 22.625 23.890625 
Q 32.328125 33.6875 34.8125 36.53125 
Q 39.546875 41.84375 41.421875 45.53125 
Q 43.3125 49.21875 43.3125 52.78125 
Q 43.3125 58.59375 39.234375 62.25 
Q 35.15625 65.921875 28.609375 65.921875 
Q 23.96875 65.921875 18.8125 64.3125 
Q 13.671875 62.703125 7.8125 59.421875 
L 7.8125 69.390625 
Q 13.765625 71.78125 18.9375 73 
Q 24.125 74.21875 28.421875 74.21875 
Q 39.75 74.21875 46.484375 68.546875 
Q 53.21875 62.890625 53.21875 53.421875 
Q 53.21875 48.921875 51.53125 44.890625 
Q 49.859375 40.875 45.40625 35.40625 
Q 44.1875 33.984375 37.640625 27.21875 
Q 31.109375 20.453125 19.1875 8.296875 
z
" id="DejaVuSans-50"/>
       </defs>
       <use xlink:href="#DejaVuSans-50"/>
      </g>
     </g>
    </g>
    <g id="xtick_3">
     <g id="line2d_9">
      <path clip-path="url(#p48f92342a5)" d="M 218.221714 298.944 
L 218.221714 27.648 
" style="fill:none;stroke:#b0b0b0;stroke-linecap:square;stroke-width:0.8;"/>
     </g>
     <g id="line2d_10">
      <g>
       <use style="stroke:#000000;stroke-width:0.8;" x="218.221714" xlink:href="#m2706be7c9a" y="298.944"/>
      </g>
     </g>
     <g id="text_3">
      <!-- 4 -->
      <g transform="translate(211.859214 321.140875)scale(0.2 -0.2)">
       <defs>
        <path d="M 37.796875 64.3125 
L 12.890625 25.390625 
L 37.796875 25.390625 
z
M 35.203125 72.90625 
L 47.609375 72.90625 
L 47.609375 25.390625 
L 58.015625 25.390625 
L 58.015625 17.1875 
L 47.609375 17.1875 
L 47.609375 0 
L 37.796875 0 
L 37.796875 17.1875 
L 4.890625 17.1875 
L 4.890625 26.703125 
z
" id="DejaVuSans-52"/>
       </defs>
       <use xlink:href="#DejaVuSans-52"/>
      </g>
     </g>
    </g>
    <g id="xtick_4">
     <g id="line2d_11">
      <path clip-path="url(#p48f92342a5)" d="M 298.532571 298.944 
L 298.532571 27.648 
" style="fill:none;stroke:#b0b0b0;stroke-linecap:square;stroke-width:0.8;"/>
     </g>
     <g id="line2d_12">
      <g>
       <use style="stroke:#000000;stroke-width:0.8;" x="298.532571" xlink:href="#m2706be7c9a" y="298.944"/>
      </g>
     </g>
     <g id="text_4">
      <!-- 6 -->
      <g transform="translate(292.170071 321.140875)scale(0.2 -0.2)">
       <defs>
        <path d="M 33.015625 40.375 
Q 26.375 40.375 22.484375 35.828125 
Q 18.609375 31.296875 18.609375 23.390625 
Q 18.609375 15.53125 22.484375 10.953125 
Q 26.375 6.390625 33.015625 6.390625 
Q 39.65625 6.390625 43.53125 10.953125 
Q 47.40625 15.53125 47.40625 23.390625 
Q 47.40625 31.296875 43.53125 35.828125 
Q 39.65625 40.375 33.015625 40.375 
z
M 52.59375 71.296875 
L 52.59375 62.3125 
Q 48.875 64.0625 45.09375 64.984375 
Q 41.3125 65.921875 37.59375 65.921875 
Q 27.828125 65.921875 22.671875 59.328125 
Q 17.53125 52.734375 16.796875 39.40625 
Q 19.671875 43.65625 24.015625 45.921875 
Q 28.375 48.1875 33.59375 48.1875 
Q 44.578125 48.1875 50.953125 41.515625 
Q 57.328125 34.859375 57.328125 23.390625 
Q 57.328125 12.15625 50.6875 5.359375 
Q 44.046875 -1.421875 33.015625 -1.421875 
Q 20.359375 -1.421875 13.671875 8.265625 
Q 6.984375 17.96875 6.984375 36.375 
Q 6.984375 53.65625 15.1875 63.9375 
Q 23.390625 74.21875 37.203125 74.21875 
Q 40.921875 74.21875 44.703125 73.484375 
Q 48.484375 72.75 52.59375 71.296875 
z
" id="DejaVuSans-54"/>
       </defs>
       <use xlink:href="#DejaVuSans-54"/>
      </g>
     </g>
    </g>
    <g id="xtick_5">
     <g id="line2d_13">
      <path clip-path="url(#p48f92342a5)" d="M 97.755429 298.944 
L 97.755429 27.648 
" style="fill:none;stroke:#b0b0b0;stroke-linecap:square;stroke-width:0.8;"/>
     </g>
     <g id="line2d_14">
      <defs>
       <path d="M 0 0 
L 0 2 
" id="m30ab0a7c25" style="stroke:#000000;stroke-width:0.6;"/>
      </defs>
      <g>
       <use style="stroke:#000000;stroke-width:0.6;" x="97.755429" xlink:href="#m30ab0a7c25" y="298.944"/>
      </g>
     </g>
    </g>
    <g id="xtick_6">
     <g id="line2d_15">
      <path clip-path="url(#p48f92342a5)" d="M 178.066286 298.944 
L 178.066286 27.648 
" style="fill:none;stroke:#b0b0b0;stroke-linecap:square;stroke-width:0.8;"/>
     </g>
     <g id="line2d_16">
      <g>
       <use style="stroke:#000000;stroke-width:0.6;" x="178.066286" xlink:href="#m30ab0a7c25" y="298.944"/>
      </g>
     </g>
    </g>
    <g id="xtick_7">
     <g id="line2d_17">
      <path clip-path="url(#p48f92342a5)" d="M 258.377143 298.944 
L 258.377143 27.648 
" style="fill:none;stroke:#b0b0b0;stroke-linecap:square;stroke-width:0.8;"/>
     </g>
     <g id="line2d_18">
      <g>
       <use style="stroke:#000000;stroke-width:0.6;" x="258.377143" xlink:href="#m30ab0a7c25" y="298.944"/>
      </g>
     </g>
    </g>
    <g id="xtick_8">
     <g id="line2d_19">
      <path clip-path="url(#p48f92342a5)" d="M 338.688 298.944 
L 338.688 27.648 
" style="fill:none;stroke:#b0b0b0;stroke-linecap:square;stroke-width:0.8;"/>
     </g>
     <g id="line2d_20">
      <g>
       <use style="stroke:#000000;stroke-width:0.6;" x="338.688" xlink:href="#m30ab0a7c25" y="298.944"/>
      </g>
     </g>
    </g>
    <g id="text_5">
     <!-- log10(# f-evals / dimension) -->
     <g transform="translate(77.764078 342.217594)scale(0.17 -0.17)">
      <defs>
       <path d="M 9.421875 75.984375 
L 18.40625 75.984375 
L 18.40625 0 
L 9.421875 0 
z
" id="DejaVuSans-108"/>
       <path d="M 30.609375 48.390625 
Q 23.390625 48.390625 19.1875 42.75 
Q 14.984375 37.109375 14.984375 27.296875 
Q 14.984375 17.484375 19.15625 11.84375 
Q 23.34375 6.203125 30.609375 6.203125 
Q 37.796875 6.203125 41.984375 11.859375 
Q 46.1875 17.53125 46.1875 27.296875 
Q 46.1875 37.015625 41.984375 42.703125 
Q 37.796875 48.390625 30.609375 48.390625 
z
M 30.609375 56 
Q 42.328125 56 49.015625 48.375 
Q 55.71875 40.765625 55.71875 27.296875 
Q 55.71875 13.875 49.015625 6.21875 
Q 42.328125 -1.421875 30.609375 -1.421875 
Q 18.84375 -1.421875 12.171875 6.21875 
Q 5.515625 13.875 5.515625 27.296875 
Q 5.515625 40.765625 12.171875 48.375 
Q 18.84375 56 30.609375 56 
z
" id="DejaVuSans-111"/>
       <path d="M 45.40625 27.984375 
Q 45.40625 37.75 41.375 43.109375 
Q 37.359375 48.484375 30.078125 48.484375 
Q 22.859375 48.484375 18.828125 43.109375 
Q 14.796875 37.75 14.796875 27.984375 
Q 14.796875 18.265625 18.828125 12.890625 
Q 22.859375 7.515625 30.078125 7.515625 
Q 37.359375 7.515625 41.375 12.890625 
Q 45.40625 18.265625 45.40625 27.984375 
z
M 54.390625 6.78125 
Q 54.390625 -7.171875 48.1875 -13.984375 
Q 42 -20.796875 29.203125 -20.796875 
Q 24.46875 -20.796875 20.265625 -20.09375 
Q 16.0625 -19.390625 12.109375 -17.921875 
L 12.109375 -9.1875 
Q 16.0625 -11.328125 19.921875 -12.34375 
Q 23.78125 -13.375 27.78125 -13.375 
Q 36.625 -13.375 41.015625 -8.765625 
Q 45.40625 -4.15625 45.40625 5.171875 
L 45.40625 9.625 
Q 42.625 4.78125 38.28125 2.390625 
Q 33.9375 0 27.875 0 
Q 17.828125 0 11.671875 7.65625 
Q 5.515625 15.328125 5.515625 27.984375 
Q 5.515625 40.671875 11.671875 48.328125 
Q 17.828125 56 27.875 56 
Q 33.9375 56 38.28125 53.609375 
Q 42.625 51.21875 45.40625 46.390625 
L 45.40625 54.6875 
L 54.390625 54.6875 
z
" id="DejaVuSans-103"/>
       <path d="M 12.40625 8.296875 
L 28.515625 8.296875 
L 28.515625 63.921875 
L 10.984375 60.40625 
L 10.984375 69.390625 
L 28.421875 72.90625 
L 38.28125 72.90625 
L 38.28125 8.296875 
L 54.390625 8.296875 
L 54.390625 0 
L 12.40625 0 
z
" id="DejaVuSans-49"/>
       <path d="M 31 75.875 
Q 24.46875 64.65625 21.28125 53.65625 
Q 18.109375 42.671875 18.109375 31.390625 
Q 18.109375 20.125 21.3125 9.0625 
Q 24.515625 -2 31 -13.1875 
L 23.1875 -13.1875 
Q 15.875 -1.703125 12.234375 9.375 
Q 8.59375 20.453125 8.59375 31.390625 
Q 8.59375 42.28125 12.203125 53.3125 
Q 15.828125 64.359375 23.1875 75.875 
z
" id="DejaVuSans-40"/>
       <path d="M 51.125 44 
L 36.921875 44 
L 32.8125 27.6875 
L 47.125 27.6875 
z
M 43.796875 71.78125 
L 38.71875 51.515625 
L 52.984375 51.515625 
L 58.109375 71.78125 
L 65.921875 71.78125 
L 60.890625 51.515625 
L 76.125 51.515625 
L 76.125 44 
L 58.984375 44 
L 54.984375 27.6875 
L 70.515625 27.6875 
L 70.515625 20.21875 
L 53.078125 20.21875 
L 48 0 
L 40.1875 0 
L 45.21875 20.21875 
L 30.90625 20.21875 
L 25.875 0 
L 18.015625 0 
L 23.09375 20.21875 
L 7.71875 20.21875 
L 7.71875 27.6875 
L 24.90625 27.6875 
L 29 44 
L 13.28125 44 
L 13.28125 51.515625 
L 30.90625 51.515625 
L 35.890625 71.78125 
z
" id="DejaVuSans-35"/>
       <path id="DejaVuSans-32"/>
       <path d="M 37.109375 75.984375 
L 37.109375 68.5 
L 28.515625 68.5 
Q 23.6875 68.5 21.796875 66.546875 
Q 19.921875 64.59375 19.921875 59.515625 
L 19.921875 54.6875 
L 34.71875 54.6875 
L 34.71875 47.703125 
L 19.921875 47.703125 
L 19.921875 0 
L 10.890625 0 
L 10.890625 47.703125 
L 2.296875 47.703125 
L 2.296875 54.6875 
L 10.890625 54.6875 
L 10.890625 58.5 
Q 10.890625 67.625 15.140625 71.796875 
Q 19.390625 75.984375 28.609375 75.984375 
z
" id="DejaVuSans-102"/>
       <path d="M 4.890625 31.390625 
L 31.203125 31.390625 
L 31.203125 23.390625 
L 4.890625 23.390625 
z
" id="DejaVuSans-45"/>
       <path d="M 56.203125 29.59375 
L 56.203125 25.203125 
L 14.890625 25.203125 
Q 15.484375 15.921875 20.484375 11.0625 
Q 25.484375 6.203125 34.421875 6.203125 
Q 39.59375 6.203125 44.453125 7.46875 
Q 49.3125 8.734375 54.109375 11.28125 
L 54.109375 2.78125 
Q 49.265625 0.734375 44.1875 -0.34375 
Q 39.109375 -1.421875 33.890625 -1.421875 
Q 20.796875 -1.421875 13.15625 6.1875 
Q 5.515625 13.8125 5.515625 26.8125 
Q 5.515625 40.234375 12.765625 48.109375 
Q 20.015625 56 32.328125 56 
Q 43.359375 56 49.78125 48.890625 
Q 56.203125 41.796875 56.203125 29.59375 
z
M 47.21875 32.234375 
Q 47.125 39.59375 43.09375 43.984375 
Q 39.0625 48.390625 32.421875 48.390625 
Q 24.90625 48.390625 20.390625 44.140625 
Q 15.875 39.890625 15.1875 32.171875 
z
" id="DejaVuSans-101"/>
       <path d="M 2.984375 54.6875 
L 12.5 54.6875 
L 29.59375 8.796875 
L 46.6875 54.6875 
L 56.203125 54.6875 
L 35.6875 0 
L 23.484375 0 
z
" id="DejaVuSans-118"/>
       <path d="M 34.28125 27.484375 
Q 23.390625 27.484375 19.1875 25 
Q 14.984375 22.515625 14.984375 16.5 
Q 14.984375 11.71875 18.140625 8.90625 
Q 21.296875 6.109375 26.703125 6.109375 
Q 34.1875 6.109375 38.703125 11.40625 
Q 43.21875 16.703125 43.21875 25.484375 
L 43.21875 27.484375 
z
M 52.203125 31.203125 
L 52.203125 0 
L 43.21875 0 
L 43.21875 8.296875 
Q 40.140625 3.328125 35.546875 0.953125 
Q 30.953125 -1.421875 24.3125 -1.421875 
Q 15.921875 -1.421875 10.953125 3.296875 
Q 6 8.015625 6 15.921875 
Q 6 25.140625 12.171875 29.828125 
Q 18.359375 34.515625 30.609375 34.515625 
L 43.21875 34.515625 
L 43.21875 35.40625 
Q 43.21875 41.609375 39.140625 45 
Q 35.0625 48.390625 27.6875 48.390625 
Q 23 48.390625 18.546875 47.265625 
Q 14.109375 46.140625 10.015625 43.890625 
L 10.015625 52.203125 
Q 14.9375 54.109375 19.578125 55.046875 
Q 24.21875 56 28.609375 56 
Q 40.484375 56 46.34375 49.84375 
Q 52.203125 43.703125 52.203125 31.203125 
z
" id="DejaVuSans-97"/>
       <path d="M 44.28125 53.078125 
L 44.28125 44.578125 
Q 40.484375 46.53125 36.375 47.5 
Q 32.28125 48.484375 27.875 48.484375 
Q 21.1875 48.484375 17.84375 46.4375 
Q 14.5 44.390625 14.5 40.28125 
Q 14.5 37.15625 16.890625 35.375 
Q 19.28125 33.59375 26.515625 31.984375 
L 29.59375 31.296875 
Q 39.15625 29.25 43.1875 25.515625 
Q 47.21875 21.78125 47.21875 15.09375 
Q 47.21875 7.46875 41.1875 3.015625 
Q 35.15625 -1.421875 24.609375 -1.421875 
Q 20.21875 -1.421875 15.453125 -0.5625 
Q 10.6875 0.296875 5.421875 2 
L 5.421875 11.28125 
Q 10.40625 8.6875 15.234375 7.390625 
Q 20.0625 6.109375 24.8125 6.109375 
Q 31.15625 6.109375 34.5625 8.28125 
Q 37.984375 10.453125 37.984375 14.40625 
Q 37.984375 18.0625 35.515625 20.015625 
Q 33.0625 21.96875 24.703125 23.78125 
L 21.578125 24.515625 
Q 13.234375 26.265625 9.515625 29.90625 
Q 5.8125 33.546875 5.8125 39.890625 
Q 5.8125 47.609375 11.28125 51.796875 
Q 16.75 56 26.8125 56 
Q 31.78125 56 36.171875 55.265625 
Q 40.578125 54.546875 44.28125 53.078125 
z
" id="DejaVuSans-115"/>
       <path d="M 25.390625 72.90625 
L 33.6875 72.90625 
L 8.296875 -9.28125 
L 0 -9.28125 
z
" id="DejaVuSans-47"/>
       <path d="M 45.40625 46.390625 
L 45.40625 75.984375 
L 54.390625 75.984375 
L 54.390625 0 
L 45.40625 0 
L 45.40625 8.203125 
Q 42.578125 3.328125 38.25 0.953125 
Q 33.9375 -1.421875 27.875 -1.421875 
Q 17.96875 -1.421875 11.734375 6.484375 
Q 5.515625 14.40625 5.515625 27.296875 
Q 5.515625 40.1875 11.734375 48.09375 
Q 17.96875 56 27.875 56 
Q 33.9375 56 38.25 53.625 
Q 42.578125 51.265625 45.40625 46.390625 
z
M 14.796875 27.296875 
Q 14.796875 17.390625 18.875 11.75 
Q 22.953125 6.109375 30.078125 6.109375 
Q 37.203125 6.109375 41.296875 11.75 
Q 45.40625 17.390625 45.40625 27.296875 
Q 45.40625 37.203125 41.296875 42.84375 
Q 37.203125 48.484375 30.078125 48.484375 
Q 22.953125 48.484375 18.875 42.84375 
Q 14.796875 37.203125 14.796875 27.296875 
z
" id="DejaVuSans-100"/>
       <path d="M 9.421875 54.6875 
L 18.40625 54.6875 
L 18.40625 0 
L 9.421875 0 
z
M 9.421875 75.984375 
L 18.40625 75.984375 
L 18.40625 64.59375 
L 9.421875 64.59375 
z
" id="DejaVuSans-105"/>
       <path d="M 52 44.1875 
Q 55.375 50.25 60.0625 53.125 
Q 64.75 56 71.09375 56 
Q 79.640625 56 84.28125 50.015625 
Q 88.921875 44.046875 88.921875 33.015625 
L 88.921875 0 
L 79.890625 0 
L 79.890625 32.71875 
Q 79.890625 40.578125 77.09375 44.375 
Q 74.3125 48.1875 68.609375 48.1875 
Q 61.625 48.1875 57.5625 43.546875 
Q 53.515625 38.921875 53.515625 30.90625 
L 53.515625 0 
L 44.484375 0 
L 44.484375 32.71875 
Q 44.484375 40.625 41.703125 44.40625 
Q 38.921875 48.1875 33.109375 48.1875 
Q 26.21875 48.1875 22.15625 43.53125 
Q 18.109375 38.875 18.109375 30.90625 
L 18.109375 0 
L 9.078125 0 
L 9.078125 54.6875 
L 18.109375 54.6875 
L 18.109375 46.1875 
Q 21.1875 51.21875 25.484375 53.609375 
Q 29.78125 56 35.6875 56 
Q 41.65625 56 45.828125 52.96875 
Q 50 49.953125 52 44.1875 
z
" id="DejaVuSans-109"/>
       <path d="M 54.890625 33.015625 
L 54.890625 0 
L 45.90625 0 
L 45.90625 32.71875 
Q 45.90625 40.484375 42.875 44.328125 
Q 39.84375 48.1875 33.796875 48.1875 
Q 26.515625 48.1875 22.3125 43.546875 
Q 18.109375 38.921875 18.109375 30.90625 
L 18.109375 0 
L 9.078125 0 
L 9.078125 54.6875 
L 18.109375 54.6875 
L 18.109375 46.1875 
Q 21.34375 51.125 25.703125 53.5625 
Q 30.078125 56 35.796875 56 
Q 45.21875 56 50.046875 50.171875 
Q 54.890625 44.34375 54.890625 33.015625 
z
" id="DejaVuSans-110"/>
       <path d="M 8.015625 75.875 
L 15.828125 75.875 
Q 23.140625 64.359375 26.78125 53.3125 
Q 30.421875 42.28125 30.421875 31.390625 
Q 30.421875 20.453125 26.78125 9.375 
Q 23.140625 -1.703125 15.828125 -13.1875 
L 8.015625 -13.1875 
Q 14.5 -2 17.703125 9.0625 
Q 20.90625 20.125 20.90625 31.390625 
Q 20.90625 42.671875 17.703125 53.65625 
Q 14.5 64.65625 8.015625 75.875 
z
" id="DejaVuSans-41"/>
      </defs>
      <use xlink:href="#DejaVuSans-108"/>
      <use x="27.783203" xlink:href="#DejaVuSans-111"/>
      <use x="88.964844" xlink:href="#DejaVuSans-103"/>
      <use x="152.441406" xlink:href="#DejaVuSans-49"/>
      <use x="216.064453" xlink:href="#DejaVuSans-48"/>
      <use x="279.6875" xlink:href="#DejaVuSans-40"/>
      <use x="318.701172" xlink:href="#DejaVuSans-35"/>
      <use x="402.490234" xlink:href="#DejaVuSans-32"/>
      <use x="434.277344" xlink:href="#DejaVuSans-102"/>
      <use x="463.982422" xlink:href="#DejaVuSans-45"/>
      <use x="500.066406" xlink:href="#DejaVuSans-101"/>
      <use x="561.589844" xlink:href="#DejaVuSans-118"/>
      <use x="620.769531" xlink:href="#DejaVuSans-97"/>
      <use x="682.048828" xlink:href="#DejaVuSans-108"/>
      <use x="709.832031" xlink:href="#DejaVuSans-115"/>
      <use x="761.931641" xlink:href="#DejaVuSans-32"/>
      <use x="793.71875" xlink:href="#DejaVuSans-47"/>
      <use x="827.410156" xlink:href="#DejaVuSans-32"/>
      <use x="859.197266" xlink:href="#DejaVuSans-100"/>
      <use x="922.673828" xlink:href="#DejaVuSans-105"/>
      <use x="950.457031" xlink:href="#DejaVuSans-109"/>
      <use x="1047.869141" xlink:href="#DejaVuSans-101"/>
      <use x="1109.392578" xlink:href="#DejaVuSans-110"/>
      <use x="1172.771484" xlink:href="#DejaVuSans-115"/>
      <use x="1224.871094" xlink:href="#DejaVuSans-105"/>
      <use x="1252.654297" xlink:href="#DejaVuSans-111"/>
      <use x="1313.835938" xlink:href="#DejaVuSans-110"/>
      <use x="1377.214844" xlink:href="#DejaVuSans-41"/>
     </g>
    </g>
   </g>
   <g id="matplotlib.axis_2">
    <g id="ytick_1">
     <g id="line2d_21">
      <path clip-path="url(#p48f92342a5)" d="M 57.6 298.944 
L 338.688 298.944 
" style="fill:none;stroke:#b0b0b0;stroke-linecap:square;stroke-width:0.8;"/>
     </g>
     <g id="line2d_22">
      <defs>
       <path d="M 0 0 
L -3.5 0 
" id="m07ccbfa1de" style="stroke:#000000;stroke-width:0.8;"/>
      </defs>
      <g>
       <use style="stroke:#000000;stroke-width:0.8;" x="57.6" xlink:href="#m07ccbfa1de" y="298.944"/>
      </g>
     </g>
     <g id="text_6">
      <!-- 0.0 -->
      <g transform="translate(25.155 305.02275)scale(0.16 -0.16)">
       <defs>
        <path d="M 10.6875 12.40625 
L 21 12.40625 
L 21 0 
L 10.6875 0 
z
" id="DejaVuSans-46"/>
       </defs>
       <use xlink:href="#DejaVuSans-48"/>
       <use x="63.623047" xlink:href="#DejaVuSans-46"/>
       <use x="95.410156" xlink:href="#DejaVuSans-48"/>
      </g>
     </g>
    </g>
    <g id="ytick_2">
     <g id="line2d_23">
      <path clip-path="url(#p48f92342a5)" d="M 57.6 245.22202 
L 338.688 245.22202 
" style="fill:none;stroke:#b0b0b0;stroke-linecap:square;stroke-width:0.8;"/>
     </g>
     <g id="line2d_24">
      <g>
       <use style="stroke:#000000;stroke-width:0.8;" x="57.6" xlink:href="#m07ccbfa1de" y="245.22202"/>
      </g>
     </g>
     <g id="text_7">
      <!-- 0.2 -->
      <g transform="translate(25.155 251.30077)scale(0.16 -0.16)">
       <use xlink:href="#DejaVuSans-48"/>
       <use x="63.623047" xlink:href="#DejaVuSans-46"/>
       <use x="95.410156" xlink:href="#DejaVuSans-50"/>
      </g>
     </g>
    </g>
    <g id="ytick_3">
     <g id="line2d_25">
      <path clip-path="url(#p48f92342a5)" d="M 57.6 191.50004 
L 338.688 191.50004 
" style="fill:none;stroke:#b0b0b0;stroke-linecap:square;stroke-width:0.8;"/>
     </g>
     <g id="line2d_26">
      <g>
       <use style="stroke:#000000;stroke-width:0.8;" x="57.6" xlink:href="#m07ccbfa1de" y="191.50004"/>
      </g>
     </g>
     <g id="text_8">
      <!-- 0.4 -->
      <g transform="translate(25.155 197.57879)scale(0.16 -0.16)">
       <use xlink:href="#DejaVuSans-48"/>
       <use x="63.623047" xlink:href="#DejaVuSans-46"/>
       <use x="95.410156" xlink:href="#DejaVuSans-52"/>
      </g>
     </g>
    </g>
    <g id="ytick_4">
     <g id="line2d_27">
      <path clip-path="url(#p48f92342a5)" d="M 57.6 137.778059 
L 338.688 137.778059 
" style="fill:none;stroke:#b0b0b0;stroke-linecap:square;stroke-width:0.8;"/>
     </g>
     <g id="line2d_28">
      <g>
       <use style="stroke:#000000;stroke-width:0.8;" x="57.6" xlink:href="#m07ccbfa1de" y="137.778059"/>
      </g>
     </g>
     <g id="text_9">
      <!-- 0.6 -->
      <g transform="translate(25.155 143.856809)scale(0.16 -0.16)">
       <use xlink:href="#DejaVuSans-48"/>
       <use x="63.623047" xlink:href="#DejaVuSans-46"/>
       <use x="95.410156" xlink:href="#DejaVuSans-54"/>
      </g>
     </g>
    </g>
    <g id="ytick_5">
     <g id="line2d_29">
      <path clip-path="url(#p48f92342a5)" d="M 57.6 84.056079 
L 338.688 84.056079 
" style="fill:none;stroke:#b0b0b0;stroke-linecap:square;stroke-width:0.8;"/>
     </g>
     <g id="line2d_30">
      <g>
       <use style="stroke:#000000;stroke-width:0.8;" x="57.6" xlink:href="#m07ccbfa1de" y="84.056079"/>
      </g>
     </g>
     <g id="text_10">
      <!-- 0.8 -->
      <g transform="translate(25.155 90.134829)scale(0.16 -0.16)">
       <defs>
        <path d="M 31.78125 34.625 
Q 24.75 34.625 20.71875 30.859375 
Q 16.703125 27.09375 16.703125 20.515625 
Q 16.703125 13.921875 20.71875 10.15625 
Q 24.75 6.390625 31.78125 6.390625 
Q 38.8125 6.390625 42.859375 10.171875 
Q 46.921875 13.96875 46.921875 20.515625 
Q 46.921875 27.09375 42.890625 30.859375 
Q 38.875 34.625 31.78125 34.625 
z
M 21.921875 38.8125 
Q 15.578125 40.375 12.03125 44.71875 
Q 8.5 49.078125 8.5 55.328125 
Q 8.5 64.0625 14.71875 69.140625 
Q 20.953125 74.21875 31.78125 74.21875 
Q 42.671875 74.21875 48.875 69.140625 
Q 55.078125 64.0625 55.078125 55.328125 
Q 55.078125 49.078125 51.53125 44.71875 
Q 48 40.375 41.703125 38.8125 
Q 48.828125 37.15625 52.796875 32.3125 
Q 56.78125 27.484375 56.78125 20.515625 
Q 56.78125 9.90625 50.3125 4.234375 
Q 43.84375 -1.421875 31.78125 -1.421875 
Q 19.734375 -1.421875 13.25 4.234375 
Q 6.78125 9.90625 6.78125 20.515625 
Q 6.78125 27.484375 10.78125 32.3125 
Q 14.796875 37.15625 21.921875 38.8125 
z
M 18.3125 54.390625 
Q 18.3125 48.734375 21.84375 45.5625 
Q 25.390625 42.390625 31.78125 42.390625 
Q 38.140625 42.390625 41.71875 45.5625 
Q 45.3125 48.734375 45.3125 54.390625 
Q 45.3125 60.0625 41.71875 63.234375 
Q 38.140625 66.40625 31.78125 66.40625 
Q 25.390625 66.40625 21.84375 63.234375 
Q 18.3125 60.0625 18.3125 54.390625 
z
" id="DejaVuSans-56"/>
       </defs>
       <use xlink:href="#DejaVuSans-48"/>
       <use x="63.623047" xlink:href="#DejaVuSans-46"/>
       <use x="95.410156" xlink:href="#DejaVuSans-56"/>
      </g>
     </g>
    </g>
    <g id="ytick_6">
     <g id="line2d_31">
      <path clip-path="url(#p48f92342a5)" d="M 57.6 30.334099 
L 338.688 30.334099 
" style="fill:none;stroke:#b0b0b0;stroke-linecap:square;stroke-width:0.8;"/>
     </g>
     <g id="line2d_32">
      <g>
       <use style="stroke:#000000;stroke-width:0.8;" x="57.6" xlink:href="#m07ccbfa1de" y="30.334099"/>
      </g>
     </g>
     <g id="text_11">
      <!-- 1.0 -->
      <g transform="translate(25.155 36.412849)scale(0.16 -0.16)">
       <use xlink:href="#DejaVuSans-49"/>
       <use x="63.623047" xlink:href="#DejaVuSans-46"/>
       <use x="95.410156" xlink:href="#DejaVuSans-48"/>
      </g>
     </g>
    </g>
    <g id="text_12">
     <!-- Fraction of function,target pairs -->
     <g transform="translate(17.619531 297.681)rotate(-90)scale(0.17 -0.17)">
      <defs>
       <path d="M 9.8125 72.90625 
L 51.703125 72.90625 
L 51.703125 64.59375 
L 19.671875 64.59375 
L 19.671875 43.109375 
L 48.578125 43.109375 
L 48.578125 34.8125 
L 19.671875 34.8125 
L 19.671875 0 
L 9.8125 0 
z
" id="DejaVuSans-70"/>
       <path d="M 41.109375 46.296875 
Q 39.59375 47.171875 37.8125 47.578125 
Q 36.03125 48 33.890625 48 
Q 26.265625 48 22.1875 43.046875 
Q 18.109375 38.09375 18.109375 28.8125 
L 18.109375 0 
L 9.078125 0 
L 9.078125 54.6875 
L 18.109375 54.6875 
L 18.109375 46.1875 
Q 20.953125 51.171875 25.484375 53.578125 
Q 30.03125 56 36.53125 56 
Q 37.453125 56 38.578125 55.875 
Q 39.703125 55.765625 41.0625 55.515625 
z
" id="DejaVuSans-114"/>
       <path d="M 48.78125 52.59375 
L 48.78125 44.1875 
Q 44.96875 46.296875 41.140625 47.34375 
Q 37.3125 48.390625 33.40625 48.390625 
Q 24.65625 48.390625 19.8125 42.84375 
Q 14.984375 37.3125 14.984375 27.296875 
Q 14.984375 17.28125 19.8125 11.734375 
Q 24.65625 6.203125 33.40625 6.203125 
Q 37.3125 6.203125 41.140625 7.25 
Q 44.96875 8.296875 48.78125 10.40625 
L 48.78125 2.09375 
Q 45.015625 0.34375 40.984375 -0.53125 
Q 36.96875 -1.421875 32.421875 -1.421875 
Q 20.0625 -1.421875 12.78125 6.34375 
Q 5.515625 14.109375 5.515625 27.296875 
Q 5.515625 40.671875 12.859375 48.328125 
Q 20.21875 56 33.015625 56 
Q 37.15625 56 41.109375 55.140625 
Q 45.0625 54.296875 48.78125 52.59375 
z
" id="DejaVuSans-99"/>
       <path d="M 18.3125 70.21875 
L 18.3125 54.6875 
L 36.8125 54.6875 
L 36.8125 47.703125 
L 18.3125 47.703125 
L 18.3125 18.015625 
Q 18.3125 11.328125 20.140625 9.421875 
Q 21.96875 7.515625 27.59375 7.515625 
L 36.8125 7.515625 
L 36.8125 0 
L 27.59375 0 
Q 17.1875 0 13.234375 3.875 
Q 9.28125 7.765625 9.28125 18.015625 
L 9.28125 47.703125 
L 2.6875 47.703125 
L 2.6875 54.6875 
L 9.28125 54.6875 
L 9.28125 70.21875 
z
" id="DejaVuSans-116"/>
       <path d="M 8.5 21.578125 
L 8.5 54.6875 
L 17.484375 54.6875 
L 17.484375 21.921875 
Q 17.484375 14.15625 20.5 10.265625 
Q 23.53125 6.390625 29.59375 6.390625 
Q 36.859375 6.390625 41.078125 11.03125 
Q 45.3125 15.671875 45.3125 23.6875 
L 45.3125 54.6875 
L 54.296875 54.6875 
L 54.296875 0 
L 45.3125 0 
L 45.3125 8.40625 
Q 42.046875 3.421875 37.71875 1 
Q 33.40625 -1.421875 27.6875 -1.421875 
Q 18.265625 -1.421875 13.375 4.4375 
Q 8.5 10.296875 8.5 21.578125 
z
M 31.109375 56 
z
" id="DejaVuSans-117"/>
       <path d="M 11.71875 12.40625 
L 22.015625 12.40625 
L 22.015625 4 
L 14.015625 -11.625 
L 7.71875 -11.625 
L 11.71875 4 
z
" id="DejaVuSans-44"/>
       <path d="M 18.109375 8.203125 
L 18.109375 -20.796875 
L 9.078125 -20.796875 
L 9.078125 54.6875 
L 18.109375 54.6875 
L 18.109375 46.390625 
Q 20.953125 51.265625 25.265625 53.625 
Q 29.59375 56 35.59375 56 
Q 45.5625 56 51.78125 48.09375 
Q 58.015625 40.1875 58.015625 27.296875 
Q 58.015625 14.40625 51.78125 6.484375 
Q 45.5625 -1.421875 35.59375 -1.421875 
Q 29.59375 -1.421875 25.265625 0.953125 
Q 20.953125 3.328125 18.109375 8.203125 
z
M 48.6875 27.296875 
Q 48.6875 37.203125 44.609375 42.84375 
Q 40.53125 48.484375 33.40625 48.484375 
Q 26.265625 48.484375 22.1875 42.84375 
Q 18.109375 37.203125 18.109375 27.296875 
Q 18.109375 17.390625 22.1875 11.75 
Q 26.265625 6.109375 33.40625 6.109375 
Q 40.53125 6.109375 44.609375 11.75 
Q 48.6875 17.390625 48.6875 27.296875 
z
" id="DejaVuSans-112"/>
      </defs>
      <use xlink:href="#DejaVuSans-70"/>
      <use x="50.269531" xlink:href="#DejaVuSans-114"/>
      <use x="91.382812" xlink:href="#DejaVuSans-97"/>
      <use x="152.662109" xlink:href="#DejaVuSans-99"/>
      <use x="207.642578" xlink:href="#DejaVuSans-116"/>
      <use x="246.851562" xlink:href="#DejaVuSans-105"/>
      <use x="274.634766" xlink:href="#DejaVuSans-111"/>
      <use x="335.816406" xlink:href="#DejaVuSans-110"/>
      <use x="399.195312" xlink:href="#DejaVuSans-32"/>
      <use x="430.982422" xlink:href="#DejaVuSans-111"/>
      <use x="492.164062" xlink:href="#DejaVuSans-102"/>
      <use x="527.369141" xlink:href="#DejaVuSans-32"/>
      <use x="559.15625" xlink:href="#DejaVuSans-102"/>
      <use x="594.361328" xlink:href="#DejaVuSans-117"/>
      <use x="657.740234" xlink:href="#DejaVuSans-110"/>
      <use x="721.119141" xlink:href="#DejaVuSans-99"/>
      <use x="776.099609" xlink:href="#DejaVuSans-116"/>
      <use x="815.308594" xlink:href="#DejaVuSans-105"/>
      <use x="843.091797" xlink:href="#DejaVuSans-111"/>
      <use x="904.273438" xlink:href="#DejaVuSans-110"/>
      <use x="967.652344" xlink:href="#DejaVuSans-44"/>
      <use x="999.439453" xlink:href="#DejaVuSans-116"/>
      <use x="1038.648438" xlink:href="#DejaVuSans-97"/>
      <use x="1099.927734" xlink:href="#DejaVuSans-114"/>
      <use x="1139.291016" xlink:href="#DejaVuSans-103"/>
      <use x="1202.767578" xlink:href="#DejaVuSans-101"/>
      <use x="1264.291016" xlink:href="#DejaVuSans-116"/>
      <use x="1303.5" xlink:href="#DejaVuSans-32"/>
      <use x="1335.287109" xlink:href="#DejaVuSans-112"/>
      <use x="1398.763672" xlink:href="#DejaVuSans-97"/>
      <use x="1460.042969" xlink:href="#DejaVuSans-105"/>
      <use x="1487.826172" xlink:href="#DejaVuSans-114"/>
      <use x="1528.939453" xlink:href="#DejaVuSans-115"/>
     </g>
    </g>
   </g>
   <g id="line2d_33">
    <defs>
     <path d="M 0 1.5 
C 0.397805 1.5 0.77937 1.341951 1.06066 1.06066 
C 1.341951 0.77937 1.5 0.397805 1.5 0 
C 1.5 -0.397805 1.341951 -0.77937 1.06066 -1.06066 
C 0.77937 -1.341951 0.397805 -1.5 0 -1.5 
C -0.397805 -1.5 -0.77937 -1.341951 -1.06066 -1.06066 
C -1.341951 -0.77937 -1.5 -0.397805 -1.5 0 
C -1.5 0.397805 -1.341951 0.77937 -1.06066 1.06066 
C -0.77937 1.341951 -0.397805 1.5 0 1.5 
z
" id="m62b74f88dc" style="stroke:#f5deb3;"/>
    </defs>
    <g>
     <use style="fill:#f5deb3;stroke:#f5deb3;" x="243.71964" xlink:href="#m62b74f88dc" y="62.752535"/>
     <use style="fill:#f5deb3;stroke:#f5deb3;" x="243.71964" xlink:href="#m62b74f88dc" y="62.752535"/>
    </g>
   </g>
   <g id="line2d_34">
    <defs>
     <path d="M 0 1.5 
C 0.397805 1.5 0.77937 1.341951 1.06066 1.06066 
C 1.341951 0.77937 1.5 0.397805 1.5 0 
C 1.5 -0.397805 1.341951 -0.77937 1.06066 -1.06066 
C 0.77937 -1.341951 0.397805 -1.5 0 -1.5 
C -0.397805 -1.5 -0.77937 -1.341951 -1.06066 -1.06066 
C -1.341951 -0.77937 -1.5 -0.397805 -1.5 0 
C -1.5 0.397805 -1.341951 0.77937 -1.06066 1.06066 
C -0.77937 1.341951 -0.397805 1.5 0 1.5 
z
" id="m54a79bd95d" style="stroke:#000080;"/>
    </defs>
    <g>
     <use style="fill:#000080;stroke:#000080;" x="239.935955" xlink:href="#m54a79bd95d" y="101.191538"/>
     <use style="fill:#000080;stroke:#000080;" x="239.935955" xlink:href="#m54a79bd95d" y="101.191538"/>
    </g>
   </g>
   <g id="line2d_35">
    <path d="M 45.512012 298.944 
L 45.512012 292.460313 
L 57.6 292.460313 
L 57.6 289.68159 
L 64.67102 289.68159 
L 64.67102 287.365987 
L 69.687988 287.365987 
L 69.687988 285.050384 
L 73.579452 285.050384 
L 73.579452 283.661023 
L 76.759008 283.661023 
L 76.759008 280.8823 
L 81.775977 280.8823 
L 81.775977 280.419179 
L 83.830028 280.419179 
L 83.830028 279.956059 
L 87.329581 279.956059 
L 87.329581 278.103577 
L 90.242884 278.103577 
L 90.242884 275.324854 
L 93.863965 275.324854 
L 93.863965 273.472371 
L 94.921215 273.472371 
L 94.921215 272.08301 
L 95.918017 272.08301 
L 95.918017 271.619889 
L 96.86091 271.619889 
L 96.86091 268.378046 
L 98.606294 268.378046 
L 98.606294 267.451805 
L 103.623262 267.451805 
L 103.623262 266.988684 
L 107.009204 266.988684 
L 107.009204 266.525564 
L 107.514726 266.525564 
L 107.514726 265.599323 
L 109.401893 265.599323 
L 109.401893 264.673082 
L 110.274038 264.673082 
L 110.274038 263.746841 
L 111.505558 263.746841 
L 111.505558 263.28372 
L 119.351785 263.28372 
L 119.351785 262.8206 
L 119.602714 262.8206 
L 119.602714 262.357479 
L 120.33454 262.357479 
L 120.33454 261.894358 
L 121.712041 261.894358 
L 121.712041 260.041876 
L 123.593547 260.041876 
L 123.593547 259.578756 
L 123.985457 259.578756 
L 123.985457 258.652515 
L 124.557288 258.652515 
L 124.557288 257.263153 
L 124.92835 257.263153 
L 124.92835 256.336912 
L 127.325746 256.336912 
L 127.325746 254.947551 
L 127.799239 254.947551 
L 127.799239 254.48443 
L 132.777237 254.48443 
L 132.777237 254.02131 
L 134.661403 254.02131 
L 134.661403 253.095069 
L 135.97629 253.095069 
L 135.97629 252.168828 
L 136.361705 252.168828 
L 136.361705 251.242587 
L 137.107884 251.242587 
L 137.107884 250.779466 
L 137.647286 250.779466 
L 137.647286 250.316346 
L 139.333553 250.316346 
L 139.333553 246.148261 
L 139.493548 246.148261 
L 139.493548 245.68514 
L 141.017599 245.68514 
L 141.017599 245.22202 
L 143.902815 245.22202 
L 143.902815 243.832658 
L 149.557321 243.832658 
L 149.646525 242.443297 
L 150.301393 242.443297 
L 150.301393 241.517056 
L 152.624728 241.517056 
L 152.624728 241.053935 
L 154.371897 241.053935 
L 154.371897 239.664574 
L 159.857512 239.664574 
L 159.857512 238.738333 
L 160.176607 238.738333 
L 160.176607 237.812091 
L 162.10862 237.812091 
L 162.10862 237.348971 
L 162.644595 237.348971 
L 162.644595 236.42273 
L 166.845764 236.42273 
L 166.862349 232.717766 
L 167.223287 232.717766 
L 167.288118 231.328404 
L 168.109685 231.328404 
L 168.109685 229.939043 
L 168.324419 229.939043 
L 168.324419 229.475922 
L 168.879523 229.475922 
L 168.879523 228.549681 
L 169.172381 228.549681 
L 169.172381 227.62344 
L 169.488944 227.62344 
L 169.488944 226.697199 
L 170.242438 226.697199 
L 170.242438 225.307837 
L 172.337411 225.307837 
L 172.337411 224.381596 
L 172.920958 224.381596 
L 172.920958 223.455355 
L 173.699729 223.455355 
L 173.733298 222.065994 
L 174.391462 222.065994 
L 174.391462 221.139753 
L 174.541525 221.139753 
L 174.541525 220.213512 
L 176.46942 220.213512 
L 176.46942 219.750391 
L 176.996497 219.750391 
L 176.996497 218.82415 
L 178.999998 218.82415 
L 178.999998 217.897909 
L 179.6808 217.897909 
L 179.6808 217.434789 
L 181.121875 217.434789 
L 181.121875 216.971668 
L 181.491165 216.971668 
L 181.491165 216.508548 
L 182.507063 216.508548 
L 182.507063 216.045427 
L 182.681928 216.045427 
L 182.681928 215.119186 
L 183.486206 215.119186 
L 183.486206 214.192945 
L 185.008946 214.192945 
L 185.008946 213.266704 
L 185.235849 213.266704 
L 185.235849 212.340463 
L 186.484833 212.340463 
L 186.484833 211.877342 
L 187.217174 211.877342 
L 187.253254 210.02486 
L 187.700569 210.02486 
L 187.700569 209.56174 
L 188.253773 209.56174 
L 188.253773 208.635499 
L 190.846637 208.635499 
L 190.846637 208.172378 
L 191.22793 208.172378 
L 191.22793 206.319896 
L 191.820378 206.319896 
L 191.820378 205.856776 
L 192.235432 205.856776 
L 192.235432 205.393655 
L 192.401027 205.393655 
L 192.401027 204.467414 
L 193.877511 204.467414 
L 193.877511 202.614932 
L 194.373975 202.614932 
L 194.425242 201.688691 
L 194.50356 201.688691 
L 194.578145 198.909968 
L 194.962912 198.909968 
L 194.972836 197.057486 
L 195.465219 197.057486 
L 195.465219 196.131245 
L 196.312409 196.131245 
L 196.312409 195.668124 
L 197.453413 195.668124 
L 197.453413 194.741883 
L 198.770784 194.741883 
L 198.770784 194.278763 
L 199.209449 194.278763 
L 199.209449 193.815642 
L 200.721676 193.815642 
L 200.788147 192.426281 
L 201.121407 192.426281 
L 201.121407 191.50004 
L 201.811914 191.50004 
L 201.811914 189.184437 
L 202.14389 189.184437 
L 202.216084 187.331955 
L 202.357417 187.331955 
L 202.357417 186.405714 
L 202.657991 186.405714 
L 202.657991 185.479473 
L 203.91629 185.479473 
L 203.91629 185.016352 
L 204.197211 185.016352 
L 204.238086 183.626991 
L 204.582667 183.626991 
L 204.582667 183.16387 
L 205.532281 183.16387 
L 205.532281 181.774509 
L 206.184227 181.774509 
L 206.184227 181.311388 
L 206.439701 181.311388 
L 206.439701 180.385147 
L 206.686419 180.385147 
L 206.686419 179.922027 
L 207.072397 179.922027 
L 207.072397 179.458906 
L 207.220495 179.458906 
L 207.315274 178.069545 
L 207.890732 178.069545 
L 207.890732 177.606424 
L 208.156747 177.606424 
L 208.246584 176.217062 
L 208.319045 176.217062 
L 208.319045 174.827701 
L 208.469174 174.827701 
L 208.469174 174.36458 
L 208.631627 174.36458 
L 208.651261 172.975219 
L 209.421939 172.975219 
L 209.466653 170.196496 
L 209.755243 170.196496 
L 209.755243 169.733375 
L 210.230457 169.733375 
L 210.303382 168.344014 
L 210.721239 168.344014 
L 210.82549 167.417773 
L 210.926472 167.417773 
L 210.926472 166.954652 
L 211.284462 166.954652 
L 211.284462 166.491532 
L 211.726603 166.491532 
L 211.726603 166.028411 
L 211.846409 166.028411 
L 211.846409 164.63905 
L 212.226809 164.63905 
L 212.311451 161.397206 
L 212.437042 161.397206 
L 212.437042 160.934085 
L 212.705891 160.934085 
L 212.754872 159.544724 
L 213.45981 159.544724 
L 213.539828 157.692242 
L 214.159384 157.692242 
L 214.159384 156.766001 
L 214.318258 156.766001 
L 214.318258 155.83976 
L 214.460558 155.83976 
L 214.460558 155.376639 
L 214.712955 155.376639 
L 214.712955 154.913519 
L 214.876397 154.913519 
L 214.876397 153.987278 
L 215.052966 153.987278 
L 215.052966 153.524157 
L 215.428486 153.524157 
L 215.486725 152.134795 
L 215.766002 152.134795 
L 215.781053 151.208554 
L 215.936815 151.208554 
L 215.936815 150.745434 
L 216.186509 150.745434 
L 216.215881 149.356072 
L 216.625804 149.356072 
L 216.706835 147.966711 
L 216.90543 147.966711 
L 216.997339 146.114229 
L 217.073872 146.114229 
L 217.073872 145.187988 
L 217.50254 145.187988 
L 217.50254 144.724867 
L 218.525119 144.724867 
L 218.525119 143.798626 
L 218.754122 143.798626 
L 218.754122 142.872385 
L 218.935016 142.872385 
L 219.034337 141.946144 
L 219.075071 141.946144 
L 219.075071 141.483024 
L 219.690159 141.483024 
L 219.690159 140.556783 
L 219.803609 140.556783 
L 219.803609 140.093662 
L 219.921863 140.093662 
L 219.921863 139.167421 
L 220.034607 139.167421 
L 220.054242 137.778059 
L 220.297454 137.778059 
L 220.297454 136.851818 
L 220.469233 136.851818 
L 220.469233 136.388698 
L 220.68028 136.388698 
L 220.684066 134.073095 
L 220.924684 134.073095 
L 220.924684 132.683734 
L 221.128846 132.683734 
L 221.128846 132.220613 
L 221.345959 132.220613 
L 221.345959 131.294372 
L 221.625804 131.294372 
L 221.625804 130.831252 
L 221.851023 130.831252 
L 221.938611 129.905011 
L 221.968882 129.905011 
L 221.968882 129.44189 
L 222.186269 129.44189 
L 222.24383 128.052529 
L 222.315688 128.052529 
L 222.341181 126.663167 
L 222.464675 126.663167 
L 222.520644 125.273805 
L 222.65032 125.273805 
L 222.701652 123.884444 
L 222.765605 123.884444 
L 222.765605 123.421323 
L 223.147105 123.421323 
L 223.147105 122.958203 
L 223.281357 122.958203 
L 223.281357 122.495082 
L 223.413289 122.495082 
L 223.413289 122.031962 
L 223.80763 122.031962 
L 223.80763 121.568841 
L 224.141167 121.568841 
L 224.141167 121.105721 
L 224.339374 121.105721 
L 224.339374 120.6426 
L 224.723752 120.6426 
L 224.796272 119.253239 
L 224.917858 119.253239 
L 224.917858 118.790118 
L 225.711442 118.790118 
L 225.725624 117.400757 
L 225.907828 117.400757 
L 225.937545 116.011395 
L 226.509556 116.011395 
L 226.509556 115.085154 
L 226.733637 115.085154 
L 226.733637 114.158913 
L 227.249371 114.158913 
L 227.249371 113.695792 
L 227.621571 113.695792 
L 227.649524 112.306431 
L 227.895098 112.306431 
L 227.895098 111.38019 
L 228.38877 111.38019 
L 228.38877 110.917069 
L 228.798152 110.917069 
L 228.798152 110.453949 
L 228.916613 110.453949 
L 228.916613 109.990828 
L 229.185592 109.990828 
L 229.185592 109.064587 
L 229.348973 109.064587 
L 229.348973 108.601467 
L 230.102695 108.601467 
L 230.102695 108.138346 
L 230.506093 108.138346 
L 230.506093 107.675226 
L 230.634945 107.675226 
L 230.634945 107.212105 
L 231.113169 107.212105 
L 231.113169 106.748985 
L 231.8645 106.748985 
L 231.8645 106.285864 
L 232.808737 106.285864 
L 232.808737 105.822744 
L 233.717737 105.822744 
L 233.717737 105.359623 
L 234.139321 105.359623 
L 234.139321 104.433382 
L 235.918075 104.433382 
L 235.918075 103.507141 
L 236.063811 103.507141 
L 236.063811 102.5809 
L 236.707225 102.5809 
L 236.707225 101.654659 
L 239.935955 101.654659 
L 239.935955 101.191538 
L 338.688 101.191538 
L 338.688 101.191538 
" style="fill:none;stroke:#000080;stroke-linecap:square;stroke-width:1.5;"/>
   </g>
   <g id="line2d_36">
    <defs>
     <path d="M 0 6 
C 1.591219 6 3.117479 5.367802 4.242641 4.242641 
C 5.367802 3.117479 6 1.591219 6 0 
C 6 -1.591219 5.367802 -3.117479 4.242641 -4.242641 
C 3.117479 -5.367802 1.591219 -6 0 -6 
C -1.591219 -6 -3.117479 -5.367802 -4.242641 -4.242641 
C -5.367802 -3.117479 -6 -1.591219 -6 0 
C -6 1.591219 -5.367802 3.117479 -4.242641 4.242641 
C -3.117479 5.367802 -1.591219 6 0 6 
z
" id="m9a718e1e47" style="stroke:#000080;stroke-width:1.5;"/>
    </defs>
    <g>
     <use style="fill-opacity:0;stroke:#000080;stroke-width:1.5;" x="87.329581" xlink:href="#m9a718e1e47" y="279.956059"/>
     <use style="fill-opacity:0;stroke:#000080;stroke-width:1.5;" x="173.699729" xlink:href="#m9a718e1e47" y="222.992235"/>
     <use style="fill-opacity:0;stroke:#000080;stroke-width:1.5;" x="216.215881" xlink:href="#m9a718e1e47" y="149.819193"/>
     <use style="fill-opacity:0;stroke:#000080;stroke-width:1.5;" x="239.935955" xlink:href="#m9a718e1e47" y="101.654659"/>
     <use style="fill-opacity:0;stroke:#000080;stroke-width:1.5;" x="239.935955" xlink:href="#m9a718e1e47" y="101.191538"/>
     <use style="fill-opacity:0;stroke:#000080;stroke-width:1.5;" x="338.688" xlink:href="#m9a718e1e47" y="101.191538"/>
    </g>
   </g>
   <g id="line2d_37">
    <path style="fill:none;stroke:#000080;stroke-linecap:square;stroke-width:1.5;"/>
    <g/>
   </g>
   <g id="line2d_38">
    <path clip-path="url(#p48f92342a5)" d="M 258.377579 101.191538 
" style="fill:none;stroke:#000080;stroke-linecap:square;stroke-width:1.5;"/>
    <defs>
     <path d="M -12 12 
L 12 -12 
M -12 -12 
L 12 12 
" id="mf13dcde264" style="stroke:#000080;"/>
    </defs>
    <g clip-path="url(#p48f92342a5)">
     <use style="fill:#000080;stroke:#000080;" x="258.377579" xlink:href="#mf13dcde264" y="101.191538"/>
    </g>
   </g>
   <g id="line2d_39">
    <defs>
     <path d="M 0 1.5 
C 0.397805 1.5 0.77937 1.341951 1.06066 1.06066 
C 1.341951 0.77937 1.5 0.397805 1.5 0 
C 1.5 -0.397805 1.341951 -0.77937 1.06066 -1.06066 
C 0.77937 -1.341951 0.397805 -1.5 0 -1.5 
C -0.397805 -1.5 -0.77937 -1.341951 -1.06066 -1.06066 
C -1.341951 -0.77937 -1.5 -0.397805 -1.5 0 
C -1.5 0.397805 -1.341951 0.77937 -1.06066 1.06066 
C -0.77937 1.341951 -0.397805 1.5 0 1.5 
z
" id="m56ae6c7cbe" style="stroke:#ff00ff;"/>
    </defs>
    <g>
     <use style="fill:#ff00ff;stroke:#ff00ff;" x="258.238562" xlink:href="#m56ae6c7cbe" y="84.056079"/>
     <use style="fill:#ff00ff;stroke:#ff00ff;" x="258.238562" xlink:href="#m56ae6c7cbe" y="84.056079"/>
    </g>
   </g>
   <g id="line2d_40">
    <path d="M 45.512012 298.944 
L 45.512012 292.923433 
L 102.989037 292.923433 
L 102.989037 290.14471 
L 104.23523 290.14471 
L 104.23523 287.829108 
L 124.92835 287.829108 
L 124.92835 287.365987 
L 125.110962 287.365987 
L 125.110962 286.902867 
L 138.927025 286.902867 
L 138.927025 285.513505 
L 139.887228 285.513505 
L 139.887228 282.734782 
L 142.010346 282.734782 
L 142.010346 282.271661 
L 142.884173 282.271661 
L 142.884173 281.808541 
L 144.330419 281.808541 
L 144.330419 281.34542 
L 144.923649 281.34542 
L 144.923649 280.419179 
L 146.052799 280.419179 
L 146.052799 279.492938 
L 146.270114 279.492938 
L 146.270114 279.029818 
L 147.164632 279.029818 
L 147.164632 277.640456 
L 148.686322 277.640456 
L 148.686322 275.787974 
L 148.87334 275.787974 
L 148.87334 275.324854 
L 150.38688 275.324854 
L 150.47195 273.472371 
L 150.556607 273.472371 
L 150.556607 270.693648 
L 150.766468 270.693648 
L 150.766468 270.230528 
L 150.973835 270.230528 
L 150.973835 268.841166 
L 151.178764 268.841166 
L 151.178764 266.988684 
L 151.381313 266.988684 
L 151.381313 266.062443 
L 151.740076 266.062443 
L 151.740076 265.599323 
L 151.975216 265.599323 
L 151.975216 264.673082 
L 153.105587 264.673082 
L 153.214697 263.746841 
L 154.167129 263.746841 
L 154.269814 261.894358 
L 154.473387 261.894358 
L 154.473387 261.431238 
L 154.77436 261.431238 
L 154.77436 260.968117 
L 154.972161 260.968117 
L 154.972161 260.504997 
L 155.61575 260.504997 
L 155.61575 260.041876 
L 155.990803 260.041876 
L 155.990803 259.578756 
L 156.266892 259.578756 
L 156.266892 259.115635 
L 157.329512 259.115635 
L 157.38669 255.873792 
L 157.58535 255.873792 
L 157.58535 254.48443 
L 158.195371 254.48443 
L 158.195371 253.095069 
L 158.863624 253.095069 
L 158.863624 251.705707 
L 159.123917 251.705707 
L 159.123917 250.779466 
L 159.582872 250.779466 
L 159.582872 249.853225 
L 159.857512 249.853225 
L 159.857512 249.390104 
L 160.054568 249.390104 
L 160.103486 247.074502 
L 160.418152 247.074502 
L 160.418152 246.148261 
L 160.774311 246.148261 
L 160.821253 244.295779 
L 160.914762 244.295779 
L 160.961329 243.369538 
L 161.169354 243.369538 
L 161.169354 242.906417 
L 161.420284 242.906417 
L 161.465522 239.201453 
L 161.84538 239.201453 
L 161.911563 237.812091 
L 162.19549 237.812091 
L 162.19549 236.88585 
L 162.367945 236.88585 
L 162.432178 235.033368 
L 162.999872 235.033368 
L 162.999872 233.644007 
L 163.144084 233.644007 
L 163.246367 232.254645 
L 163.368321 232.254645 
L 163.368321 230.402163 
L 163.52961 230.402163 
L 163.569701 229.475922 
L 163.729146 229.475922 
L 163.729146 227.62344 
L 165.02862 227.62344 
L 165.02862 227.16032 
L 165.76776 227.16032 
L 165.76776 226.234079 
L 166.013141 226.234079 
L 166.117256 224.381596 
L 166.203547 224.381596 
L 166.272273 222.529114 
L 166.459886 222.529114 
L 166.527611 221.139753 
L 166.7626 221.139753 
L 166.7626 220.676632 
L 167.255733 220.676632 
L 167.336582 218.36103 
L 168.094245 218.36103 
L 168.094245 217.434789 
L 168.46108 217.434789 
L 168.506396 216.045427 
L 168.820356 216.045427 
L 168.909031 214.192945 
L 169.545889 214.192945 
L 169.545889 213.266704 
L 169.743743 213.266704 
L 169.75779 210.02486 
L 169.925477 210.02486 
L 169.925477 209.098619 
L 170.620687 209.098619 
L 170.620687 208.172378 
L 170.912232 208.172378 
L 170.912232 206.783017 
L 171.557249 206.783017 
L 171.557249 205.393655 
L 172.397859 205.393655 
L 172.397859 204.467414 
L 172.827009 204.467414 
L 172.827009 204.004294 
L 173.14208 204.004294 
L 173.14208 202.151812 
L 173.371849 202.151812 
L 173.371849 201.225571 
L 173.530906 201.225571 
L 173.530906 200.76245 
L 174.369919 200.76245 
L 174.369919 200.299329 
L 175.607562 200.299329 
L 175.607562 199.836209 
L 176.996497 199.836209 
L 176.996497 199.373088 
L 177.562046 199.373088 
L 177.562046 198.909968 
L 178.282926 198.909968 
L 178.282926 197.983727 
L 178.725096 197.983727 
L 178.725096 196.131245 
L 178.908845 196.131245 
L 178.908845 195.668124 
L 179.480944 195.668124 
L 179.561161 194.278763 
L 179.593145 194.278763 
L 179.633043 192.889401 
L 180.159048 192.889401 
L 180.159048 191.50004 
L 180.320702 191.50004 
L 180.420028 190.573799 
L 180.692168 190.573799 
L 180.692168 190.110678 
L 181.151123 190.110678 
L 181.151123 189.647558 
L 181.491165 189.647558 
L 181.491165 188.721316 
L 181.747212 188.721316 
L 181.852798 186.868834 
L 181.957749 186.868834 
L 181.957749 185.942593 
L 182.213959 185.942593 
L 182.213959 184.553232 
L 182.688619 184.553232 
L 182.688619 183.626991 
L 182.967335 183.626991 
L 182.967335 183.16387 
L 183.460626 183.16387 
L 183.460626 182.237629 
L 184.199902 182.237629 
L 184.199902 181.774509 
L 184.382961 181.774509 
L 184.461693 180.385147 
L 185.108216 180.385147 
L 185.108216 179.922027 
L 185.333839 179.922027 
L 185.333839 179.458906 
L 185.954922 179.458906 
L 185.954922 178.532665 
L 186.661502 178.532665 
L 186.661502 178.069545 
L 186.957269 178.069545 
L 187.030434 177.143304 
L 187.401936 177.143304 
L 187.401936 176.680183 
L 188.827643 176.680183 
L 188.827643 175.753942 
L 189.3376 175.753942 
L 189.3376 175.290821 
L 189.469596 175.290821 
L 189.469596 174.36458 
L 190.57213 174.36458 
L 190.57213 173.438339 
L 191.203315 173.438339 
L 191.203315 172.975219 
L 191.354553 172.975219 
L 191.354553 172.512098 
L 192.219948 172.512098 
L 192.22382 171.585857 
L 193.151219 171.585857 
L 193.151219 171.122737 
L 193.315656 171.122737 
L 193.315656 170.659616 
L 193.757362 170.659616 
L 193.803399 169.733375 
L 194.222717 169.733375 
L 194.222717 169.270255 
L 195.634798 169.270255 
L 195.634798 168.807134 
L 196.062545 168.807134 
L 196.062545 167.880893 
L 196.275617 167.880893 
L 196.275617 166.954652 
L 196.48915 166.954652 
L 196.48915 166.491532 
L 196.864074 166.491532 
L 196.864074 166.028411 
L 197.53641 166.028411 
L 197.53641 164.63905 
L 199.29484 164.63905 
L 199.395222 162.786567 
L 199.599341 162.786567 
L 199.599341 162.323447 
L 200.064884 162.323447 
L 200.064884 161.397206 
L 200.261357 161.397206 
L 200.261357 160.934085 
L 200.72881 160.934085 
L 200.72881 160.007844 
L 201.932154 160.007844 
L 201.932154 159.544724 
L 202.797913 159.544724 
L 202.816906 158.618483 
L 203.086899 158.618483 
L 203.086899 158.155362 
L 203.582389 158.155362 
L 203.582389 157.229121 
L 205.071352 157.229121 
L 205.071352 156.766001 
L 205.58815 156.766001 
L 205.622304 155.376639 
L 206.231113 155.376639 
L 206.231113 154.450398 
L 207.158118 154.450398 
L 207.158118 153.987278 
L 207.451633 153.987278 
L 207.451633 153.524157 
L 207.705265 153.524157 
L 207.705265 152.597916 
L 210.219423 152.597916 
L 210.314363 151.671675 
L 210.632537 151.671675 
L 210.678289 150.282313 
L 211.214232 150.282313 
L 211.214232 149.819193 
L 211.581741 149.819193 
L 211.581741 148.892952 
L 212.011522 148.892952 
L 212.093496 147.04047 
L 212.144226 147.04047 
L 212.144226 145.651108 
L 212.291861 145.651108 
L 212.291861 144.724867 
L 212.44433 144.724867 
L 212.44433 143.798626 
L 212.579819 143.798626 
L 212.637565 141.946144 
L 212.990678 141.946144 
L 212.990678 141.483024 
L 213.388629 141.483024 
L 213.45408 138.7043 
L 214.346593 138.7043 
L 214.346593 138.24118 
L 214.460558 138.24118 
L 214.460558 137.778059 
L 214.689481 137.778059 
L 214.689481 136.851818 
L 215.211194 136.851818 
L 215.244323 134.999336 
L 215.49998 134.999336 
L 215.49998 134.073095 
L 215.671387 134.073095 
L 215.671387 133.146854 
L 215.827127 133.146854 
L 215.827127 132.683734 
L 216.331906 132.683734 
L 216.331906 131.757493 
L 216.704933 131.757493 
L 216.704933 130.831252 
L 216.898846 130.831252 
L 216.898846 130.368131 
L 217.318933 130.368131 
L 217.318933 129.905011 
L 217.855152 129.905011 
L 217.855152 128.97877 
L 218.212992 128.97877 
L 218.228689 128.052529 
L 218.639571 128.052529 
L 218.639571 127.589408 
L 219.235414 127.589408 
L 219.235414 127.126287 
L 220.033821 127.126287 
L 220.033821 126.663167 
L 221.310204 126.663167 
L 221.310204 125.736926 
L 221.622216 125.736926 
L 221.622216 125.273805 
L 221.835437 125.273805 
L 221.835437 124.347564 
L 222.657759 124.347564 
L 222.657759 123.884444 
L 223.02969 123.884444 
L 223.02969 123.421323 
L 223.712424 123.421323 
L 223.712424 122.958203 
L 223.951356 122.958203 
L 223.951356 122.495082 
L 225.320034 122.495082 
L 225.320034 121.568841 
L 227.200459 121.568841 
L 227.213481 120.17948 
L 227.365894 120.17948 
L 227.365894 119.716359 
L 227.594083 119.716359 
L 227.594083 119.253239 
L 228.070965 119.253239 
L 228.070965 118.326998 
L 228.896295 118.326998 
L 228.995299 116.937636 
L 229.369231 116.937636 
L 229.369231 116.474516 
L 230.168748 116.474516 
L 230.168748 116.011395 
L 231.159322 116.011395 
L 231.159322 115.548274 
L 231.658709 115.548274 
L 231.756893 111.84331 
L 231.842952 111.84331 
L 231.842952 110.917069 
L 231.974222 110.917069 
L 232.045409 109.527708 
L 232.620346 109.527708 
L 232.620346 108.601467 
L 232.792863 108.601467 
L 232.792863 108.138346 
L 232.996236 108.138346 
L 232.996236 107.212105 
L 233.210559 107.212105 
L 233.252226 105.822744 
L 233.514311 105.822744 
L 233.540775 103.507141 
L 234.100074 103.507141 
L 234.100074 102.5809 
L 234.836787 102.5809 
L 234.836787 102.117779 
L 236.631233 102.117779 
L 236.631233 101.191538 
L 237.694693 101.191538 
L 237.694693 100.728418 
L 238.468584 100.728418 
L 238.468584 99.802177 
L 238.586699 99.802177 
L 238.620841 98.412815 
L 239.377065 98.412815 
L 239.377065 97.949695 
L 239.944488 97.949695 
L 239.944488 97.023454 
L 241.230747 97.023454 
L 241.230747 96.097213 
L 241.750381 96.097213 
L 241.750381 95.634092 
L 244.258848 95.634092 
L 244.258848 95.170972 
L 244.699549 95.170972 
L 244.699549 94.244731 
L 246.258085 94.244731 
L 246.258085 93.31849 
L 246.68776 93.31849 
L 246.68776 92.855369 
L 247.483246 92.855369 
L 247.483246 92.392249 
L 248.825247 92.392249 
L 248.825247 91.466008 
L 251.277674 91.466008 
L 251.277674 91.002887 
L 251.976432 91.002887 
L 251.976432 90.076646 
L 252.838094 90.076646 
L 252.89383 88.687284 
L 254.411514 88.687284 
L 254.411514 87.761043 
L 257.473168 87.761043 
L 257.473168 86.834802 
L 257.847035 86.834802 
L 257.908589 85.445441 
L 257.978136 85.445441 
L 257.978136 84.5192 
L 258.238562 84.5192 
L 258.238562 84.056079 
L 338.688 84.056079 
L 338.688 84.056079 
" style="fill:none;stroke:#ff00ff;stroke-linecap:square;stroke-width:1.5;"/>
   </g>
   <g id="line2d_41">
    <defs>
     <path d="M 0 8.485281 
L 5.091169 0 
L 0 -8.485281 
L -5.091169 0 
z
" id="mfed4ac2f84" style="stroke:#ff00ff;stroke-linejoin:miter;stroke-width:1.5;"/>
    </defs>
    <g>
     <use style="fill-opacity:0;stroke:#ff00ff;stroke-linejoin:miter;stroke-width:1.5;" x="125.110962" xlink:href="#mfed4ac2f84" y="287.365987"/>
     <use style="fill-opacity:0;stroke:#ff00ff;stroke-linejoin:miter;stroke-width:1.5;" x="177.562046" xlink:href="#mfed4ac2f84" y="199.373088"/>
     <use style="fill-opacity:0;stroke:#ff00ff;stroke-linejoin:miter;stroke-width:1.5;" x="221.310204" xlink:href="#mfed4ac2f84" y="126.663167"/>
     <use style="fill-opacity:0;stroke:#ff00ff;stroke-linejoin:miter;stroke-width:1.5;" x="258.238562" xlink:href="#mfed4ac2f84" y="84.056079"/>
     <use style="fill-opacity:0;stroke:#ff00ff;stroke-linejoin:miter;stroke-width:1.5;" x="258.238562" xlink:href="#mfed4ac2f84" y="84.056079"/>
     <use style="fill-opacity:0;stroke:#ff00ff;stroke-linejoin:miter;stroke-width:1.5;" x="338.688" xlink:href="#mfed4ac2f84" y="84.056079"/>
    </g>
   </g>
   <g id="line2d_42">
    <path style="fill:none;stroke:#ff00ff;stroke-linecap:square;stroke-width:1.5;"/>
    <g/>
   </g>
   <g id="line2d_43">
    <path clip-path="url(#p48f92342a5)" d="M 258.387342 84.056079 
" style="fill:none;stroke:#ff00ff;stroke-linecap:square;stroke-width:1.5;"/>
    <defs>
     <path d="M -12 12 
L 12 -12 
M -12 -12 
L 12 12 
" id="me4e2898a04" style="stroke:#ff00ff;"/>
    </defs>
    <g clip-path="url(#p48f92342a5)">
     <use style="fill:#ff00ff;stroke:#ff00ff;" x="258.387342" xlink:href="#me4e2898a04" y="84.056079"/>
    </g>
   </g>
   <g id="line2d_44">
    <defs>
     <path d="M 0 1.5 
C 0.397805 1.5 0.77937 1.341951 1.06066 1.06066 
C 1.341951 0.77937 1.5 0.397805 1.5 0 
C 1.5 -0.397805 1.341951 -0.77937 1.06066 -1.06066 
C 0.77937 -1.341951 0.397805 -1.5 0 -1.5 
C -0.397805 -1.5 -0.77937 -1.341951 -1.06066 -1.06066 
C -1.341951 -0.77937 -1.5 -0.397805 -1.5 0 
C -1.5 0.397805 -1.341951 0.77937 -1.06066 1.06066 
C -0.77937 1.341951 -0.397805 1.5 0 1.5 
z
" id="m7b3fac2e47" style="stroke:#ff7500;"/>
    </defs>
    <g>
     <use style="fill:#ff7500;stroke:#ff7500;" x="228.871692" xlink:href="#m7b3fac2e47" y="172.975219"/>
     <use style="fill:#ff7500;stroke:#ff7500;" x="228.871692" xlink:href="#m7b3fac2e47" y="172.975219"/>
    </g>
   </g>
   <g id="line2d_45">
    <path d="M 140.042245 298.944 
L 140.042245 298.017759 
L 143.464461 298.017759 
L 143.464461 296.628397 
L 144.330419 296.628397 
L 144.330419 295.239036 
L 144.510517 295.239036 
L 144.570138 293.849674 
L 144.806606 293.849674 
L 144.806606 290.14471 
L 145.665858 290.14471 
L 145.665858 287.365987 
L 146.696785 287.365987 
L 146.696785 286.902867 
L 148.733265 286.902867 
L 148.733265 284.587264 
L 149.690956 284.587264 
L 149.690956 284.124143 
L 150.808139 284.124143 
L 150.808139 279.956059 
L 151.300575 279.956059 
L 151.300575 279.492938 
L 151.975216 279.492938 
L 151.975216 277.177336 
L 153.820412 277.177336 
L 153.820412 276.714215 
L 156.297301 276.714215 
L 156.297301 275.787974 
L 156.835778 275.787974 
L 156.835778 275.324854 
L 157.098907 275.324854 
L 157.156845 273.935492 
L 157.415209 273.935492 
L 157.472107 270.693648 
L 157.58535 270.693648 
L 157.58535 269.767407 
L 157.86528 269.767407 
L 157.976006 268.841166 
L 159.175513 268.841166 
L 159.175513 266.525564 
L 159.532469 266.525564 
L 159.532469 265.136202 
L 159.832723 265.136202 
L 159.832723 264.673082 
L 161.054091 264.673082 
L 161.054091 264.209961 
L 161.510643 264.209961 
L 161.510643 263.746841 
L 161.801118 263.746841 
L 161.911563 262.357479 
L 162.474869 262.357479 
L 162.474869 261.894358 
L 163.50953 261.894358 
L 163.50953 260.968117 
L 163.629664 260.968117 
L 163.629664 259.578756 
L 164.082658 259.578756 
L 164.082658 259.115635 
L 164.333587 259.115635 
L 164.333587 258.652515 
L 165.393091 258.652515 
L 165.393091 257.726274 
L 165.59035 257.726274 
L 165.59035 256.336912 
L 165.838222 256.336912 
L 165.838222 255.410671 
L 166.374858 255.410671 
L 166.374858 254.947551 
L 166.795913 254.947551 
L 166.795913 254.48443 
L 167.352708 254.48443 
L 167.352708 253.558189 
L 167.813965 253.558189 
L 167.813965 252.631948 
L 168.001318 252.631948 
L 168.063324 251.242587 
L 168.202038 251.242587 
L 168.263336 249.390104 
L 168.400474 249.390104 
L 168.46108 248.463863 
L 168.656606 248.463863 
L 168.656606 247.537622 
L 169.143315 247.537622 
L 169.143315 246.611381 
L 169.431813 246.611381 
L 169.503198 243.369538 
L 169.827856 243.369538 
L 169.827856 242.443297 
L 170.28336 242.443297 
L 170.28336 241.517056 
L 170.885928 241.517056 
L 170.885928 241.053935 
L 171.404607 241.053935 
L 171.404607 240.590815 
L 171.531901 240.590815 
L 171.531901 240.127694 
L 171.8212 240.127694 
L 171.883461 238.738333 
L 171.945501 238.738333 
L 171.945501 237.348971 
L 172.191475 237.348971 
L 172.191475 236.88585 
L 172.685129 236.88585 
L 172.696997 234.107127 
L 174.098358 234.107127 
L 174.185719 230.865284 
L 174.679722 230.865284 
L 174.679722 230.402163 
L 175.08786 230.402163 
L 175.08786 229.012802 
L 175.252577 229.012802 
L 175.283289 227.16032 
L 176.659495 227.16032 
L 176.763161 224.844717 
L 176.838169 224.844717 
L 176.884885 222.065994 
L 177.024289 222.065994 
L 177.024289 221.139753 
L 177.372536 221.139753 
L 177.372536 220.213512 
L 177.597911 220.213512 
L 177.606866 218.82415 
L 177.838089 218.82415 
L 177.838089 217.897909 
L 178.58177 217.897909 
L 178.58177 216.971668 
L 178.808858 216.971668 
L 178.808858 216.045427 
L 179.254351 216.045427 
L 179.254351 215.582307 
L 179.569163 215.582307 
L 179.569163 215.119186 
L 180.159048 215.119186 
L 180.159048 214.192945 
L 181.440939 214.192945 
L 181.440939 213.266704 
L 182.418968 213.266704 
L 182.418968 212.803583 
L 182.574526 212.803583 
L 182.681928 210.02486 
L 182.715356 210.02486 
L 182.755385 209.098619 
L 184.413285 209.098619 
L 184.413285 208.635499 
L 184.546087 208.635499 
L 184.546087 207.709258 
L 184.897325 207.709258 
L 184.897325 206.783017 
L 185.090739 206.783017 
L 185.090739 205.856776 
L 186.279153 205.856776 
L 186.279153 204.930535 
L 187.468177 204.930535 
L 187.468177 204.004294 
L 188.794681 204.004294 
L 188.794681 203.541173 
L 188.982202 203.541173 
L 188.982202 203.078053 
L 189.717221 203.078053 
L 189.717221 202.151812 
L 189.939324 202.151812 
L 189.939324 201.688691 
L 190.938577 201.688691 
L 190.938577 200.76245 
L 191.252509 200.76245 
L 191.297482 198.909968 
L 191.488344 198.909968 
L 191.488344 197.520606 
L 191.966381 197.520606 
L 191.966381 196.594365 
L 192.150098 196.594365 
L 192.150098 196.131245 
L 192.572656 196.131245 
L 192.633275 194.278763 
L 192.858737 194.278763 
L 192.858737 193.815642 
L 193.402725 193.815642 
L 193.402725 193.352522 
L 193.579154 193.352522 
L 193.579154 192.426281 
L 193.926745 192.426281 
L 193.989842 191.50004 
L 194.496763 191.50004 
L 194.496763 191.036919 
L 194.776607 191.036919 
L 194.776607 190.110678 
L 195.088209 190.110678 
L 195.193028 188.721316 
L 195.277733 188.721316 
L 195.277733 188.258196 
L 195.777496 188.258196 
L 195.777496 187.795075 
L 197.108643 187.795075 
L 197.108643 186.868834 
L 197.450544 186.868834 
L 197.450544 185.942593 
L 198.516231 185.942593 
L 198.516231 185.016352 
L 198.913838 185.016352 
L 198.913838 183.626991 
L 199.300002 183.626991 
L 199.300002 183.16387 
L 200.035221 183.16387 
L 200.035221 182.70075 
L 206.107547 182.70075 
L 206.107547 182.237629 
L 213.016552 182.237629 
L 213.016552 181.311388 
L 217.304235 181.311388 
L 217.304235 180.385147 
L 217.941316 180.385147 
L 217.941316 179.922027 
L 220.280416 179.922027 
L 220.280416 179.458906 
L 220.486089 179.458906 
L 220.486089 178.995786 
L 221.163501 178.995786 
L 221.163501 178.532665 
L 222.143844 178.532665 
L 222.143844 177.606424 
L 222.489952 177.606424 
L 222.489952 177.143304 
L 224.536568 177.143304 
L 224.536568 176.680183 
L 224.824957 176.680183 
L 224.824957 176.217062 
L 225.229256 176.217062 
L 225.229256 175.753942 
L 226.201634 175.753942 
L 226.201634 175.290821 
L 226.583671 175.290821 
L 226.583671 174.36458 
L 228.041694 174.36458 
L 228.041694 173.438339 
L 228.871692 173.438339 
L 228.871692 172.975219 
L 338.688 172.975219 
L 338.688 172.975219 
" style="fill:none;stroke:#ff7500;stroke-linecap:square;stroke-width:1.5;"/>
   </g>
   <g id="line2d_46">
    <defs>
     <path d="M 0 -6 
L -1.347084 -1.854102 
L -5.706339 -1.854102 
L -2.179628 0.708204 
L -3.526712 4.854102 
L -0 2.291796 
L 3.526712 4.854102 
L 2.179628 0.708204 
L 5.706339 -1.854102 
L 1.347084 -1.854102 
z
" id="md076389c42" style="stroke:#ff7500;stroke-linejoin:bevel;stroke-width:1.5;"/>
    </defs>
    <g>
     <use style="fill-opacity:0;stroke:#ff7500;stroke-linejoin:bevel;stroke-width:1.5;" x="177.838089" xlink:href="#md076389c42" y="218.82415"/>
     <use style="fill-opacity:0;stroke:#ff7500;stroke-linejoin:bevel;stroke-width:1.5;" x="224.536568" xlink:href="#md076389c42" y="177.143304"/>
     <use style="fill-opacity:0;stroke:#ff7500;stroke-linejoin:bevel;stroke-width:1.5;" x="228.871692" xlink:href="#md076389c42" y="172.975219"/>
     <use style="fill-opacity:0;stroke:#ff7500;stroke-linejoin:bevel;stroke-width:1.5;" x="228.871692" xlink:href="#md076389c42" y="172.975219"/>
     <use style="fill-opacity:0;stroke:#ff7500;stroke-linejoin:bevel;stroke-width:1.5;" x="338.688" xlink:href="#md076389c42" y="172.975219"/>
    </g>
   </g>
   <g id="line2d_47">
    <path style="fill:none;stroke:#ff7500;stroke-linecap:square;stroke-width:1.5;"/>
    <g/>
   </g>
   <g id="line2d_48">
    <path clip-path="url(#p48f92342a5)" d="M 258.37723 172.975219 
" style="fill:none;stroke:#ff7500;stroke-linecap:square;stroke-width:1.5;"/>
    <defs>
     <path d="M -12 12 
L 12 -12 
M -12 -12 
L 12 12 
" id="meca6b0c349" style="stroke:#ff7500;"/>
    </defs>
    <g clip-path="url(#p48f92342a5)">
     <use style="fill:#ff7500;stroke:#ff7500;" x="258.37723" xlink:href="#meca6b0c349" y="172.975219"/>
    </g>
   </g>
   <g id="line2d_49">
    <path d="M 338.688 172.975219 
L 369.60768 293.571802 
" style="fill:none;stroke:#ff7500;stroke-linecap:square;stroke-width:1.5;"/>
    <g>
     <use style="fill-opacity:0;stroke:#ff7500;stroke-linejoin:bevel;stroke-width:1.5;" x="338.688" xlink:href="#md076389c42" y="172.975219"/>
     <use style="fill-opacity:0;stroke:#ff7500;stroke-linejoin:bevel;stroke-width:1.5;" x="369.60768" xlink:href="#md076389c42" y="293.571802"/>
    </g>
   </g>
   <g id="line2d_50">
    <path d="M 338.688 101.191538 
L 369.60768 207.616634 
" style="fill:none;stroke:#000080;stroke-linecap:square;stroke-width:1.5;"/>
    <g>
     <use style="fill-opacity:0;stroke:#000080;stroke-width:1.5;" x="338.688" xlink:href="#m9a718e1e47" y="101.191538"/>
     <use style="fill-opacity:0;stroke:#000080;stroke-width:1.5;" x="369.60768" xlink:href="#m9a718e1e47" y="207.616634"/>
    </g>
   </g>
   <g id="line2d_51">
    <path d="M 338.688 84.056079 
L 369.60768 121.661465 
" style="fill:none;stroke:#ff00ff;stroke-linecap:square;stroke-width:1.5;"/>
    <g>
     <use style="fill-opacity:0;stroke:#ff00ff;stroke-linejoin:miter;stroke-width:1.5;" x="338.688" xlink:href="#mfed4ac2f84" y="84.056079"/>
     <use style="fill-opacity:0;stroke:#ff00ff;stroke-linejoin:miter;stroke-width:1.5;" x="369.60768" xlink:href="#mfed4ac2f84" y="121.661465"/>
    </g>
   </g>
   <g id="line2d_52">
    <path d="M 338.688 298.944 
L 338.688 30.334099 
" style="fill:none;stroke:#000000;stroke-linecap:square;stroke-width:1.5;"/>
   </g>
   <g id="patch_3">
    <path d="M 57.6 298.944 
L 57.6 27.648 
" style="fill:none;stroke:#000000;stroke-linecap:square;stroke-linejoin:miter;stroke-width:0.8;"/>
   </g>
   <g id="patch_4">
    <path d="M 338.688 298.944 
L 338.688 27.648 
" style="fill:none;stroke:#000000;stroke-linecap:square;stroke-linejoin:miter;stroke-width:0.8;"/>
   </g>
   <g id="patch_5">
    <path d="M 57.6 298.944 
L 338.688 298.944 
" style="fill:none;stroke:#000000;stroke-linecap:square;stroke-linejoin:miter;stroke-width:0.8;"/>
   </g>
   <g id="patch_6">
    <path d="M 57.6 27.648 
L 338.688 27.648 
" style="fill:none;stroke:#000000;stroke-linecap:square;stroke-linejoin:miter;stroke-width:0.8;"/>
   </g>
   <g id="text_13">
    <!-- SMS-EMOA- -->
    <g transform="translate(375.22944 298.262739)scale(0.17 -0.17)">
     <defs>
      <path d="M 53.515625 70.515625 
L 53.515625 60.890625 
Q 47.90625 63.578125 42.921875 64.890625 
Q 37.9375 66.21875 33.296875 66.21875 
Q 25.25 66.21875 20.875 63.09375 
Q 16.5 59.96875 16.5 54.203125 
Q 16.5 49.359375 19.40625 46.890625 
Q 22.3125 44.4375 30.421875 42.921875 
L 36.375 41.703125 
Q 47.40625 39.59375 52.65625 34.296875 
Q 57.90625 29 57.90625 20.125 
Q 57.90625 9.515625 50.796875 4.046875 
Q 43.703125 -1.421875 29.984375 -1.421875 
Q 24.8125 -1.421875 18.96875 -0.25 
Q 13.140625 0.921875 6.890625 3.21875 
L 6.890625 13.375 
Q 12.890625 10.015625 18.65625 8.296875 
Q 24.421875 6.59375 29.984375 6.59375 
Q 38.421875 6.59375 43.015625 9.90625 
Q 47.609375 13.234375 47.609375 19.390625 
Q 47.609375 24.75 44.3125 27.78125 
Q 41.015625 30.8125 33.5 32.328125 
L 27.484375 33.5 
Q 16.453125 35.6875 11.515625 40.375 
Q 6.59375 45.0625 6.59375 53.421875 
Q 6.59375 63.09375 13.40625 68.65625 
Q 20.21875 74.21875 32.171875 74.21875 
Q 37.3125 74.21875 42.625 73.28125 
Q 47.953125 72.359375 53.515625 70.515625 
z
" id="DejaVuSans-83"/>
      <path d="M 9.8125 72.90625 
L 24.515625 72.90625 
L 43.109375 23.296875 
L 61.8125 72.90625 
L 76.515625 72.90625 
L 76.515625 0 
L 66.890625 0 
L 66.890625 64.015625 
L 48.09375 14.015625 
L 38.1875 14.015625 
L 19.390625 64.015625 
L 19.390625 0 
L 9.8125 0 
z
" id="DejaVuSans-77"/>
      <path d="M 9.8125 72.90625 
L 55.90625 72.90625 
L 55.90625 64.59375 
L 19.671875 64.59375 
L 19.671875 43.015625 
L 54.390625 43.015625 
L 54.390625 34.71875 
L 19.671875 34.71875 
L 19.671875 8.296875 
L 56.78125 8.296875 
L 56.78125 0 
L 9.8125 0 
z
" id="DejaVuSans-69"/>
      <path d="M 39.40625 66.21875 
Q 28.65625 66.21875 22.328125 58.203125 
Q 16.015625 50.203125 16.015625 36.375 
Q 16.015625 22.609375 22.328125 14.59375 
Q 28.65625 6.59375 39.40625 6.59375 
Q 50.140625 6.59375 56.421875 14.59375 
Q 62.703125 22.609375 62.703125 36.375 
Q 62.703125 50.203125 56.421875 58.203125 
Q 50.140625 66.21875 39.40625 66.21875 
z
M 39.40625 74.21875 
Q 54.734375 74.21875 63.90625 63.9375 
Q 73.09375 53.65625 73.09375 36.375 
Q 73.09375 19.140625 63.90625 8.859375 
Q 54.734375 -1.421875 39.40625 -1.421875 
Q 24.03125 -1.421875 14.8125 8.828125 
Q 5.609375 19.09375 5.609375 36.375 
Q 5.609375 53.65625 14.8125 63.9375 
Q 24.03125 74.21875 39.40625 74.21875 
z
" id="DejaVuSans-79"/>
      <path d="M 34.1875 63.1875 
L 20.796875 26.90625 
L 47.609375 26.90625 
z
M 28.609375 72.90625 
L 39.796875 72.90625 
L 67.578125 0 
L 57.328125 0 
L 50.6875 18.703125 
L 17.828125 18.703125 
L 11.1875 0 
L 0.78125 0 
z
" id="DejaVuSans-65"/>
     </defs>
     <use xlink:href="#DejaVuSans-83"/>
     <use x="63.476562" xlink:href="#DejaVuSans-77"/>
     <use x="149.755859" xlink:href="#DejaVuSans-83"/>
     <use x="213.232422" xlink:href="#DejaVuSans-45"/>
     <use x="249.316406" xlink:href="#DejaVuSans-69"/>
     <use x="312.5" xlink:href="#DejaVuSans-77"/>
     <use x="398.779297" xlink:href="#DejaVuSans-79"/>
     <use x="475.740234" xlink:href="#DejaVuSans-65"/>
     <use x="541.898438" xlink:href="#DejaVuSans-45"/>
    </g>
   </g>
   <g id="text_14">
    <!-- COMO-100  -->
    <g transform="translate(375.22944 212.307571)scale(0.17 -0.17)">
     <defs>
      <path d="M 64.40625 67.28125 
L 64.40625 56.890625 
Q 59.421875 61.53125 53.78125 63.8125 
Q 48.140625 66.109375 41.796875 66.109375 
Q 29.296875 66.109375 22.65625 58.46875 
Q 16.015625 50.828125 16.015625 36.375 
Q 16.015625 21.96875 22.65625 14.328125 
Q 29.296875 6.6875 41.796875 6.6875 
Q 48.140625 6.6875 53.78125 8.984375 
Q 59.421875 11.28125 64.40625 15.921875 
L 64.40625 5.609375 
Q 59.234375 2.09375 53.4375 0.328125 
Q 47.65625 -1.421875 41.21875 -1.421875 
Q 24.65625 -1.421875 15.125 8.703125 
Q 5.609375 18.84375 5.609375 36.375 
Q 5.609375 53.953125 15.125 64.078125 
Q 24.65625 74.21875 41.21875 74.21875 
Q 47.75 74.21875 53.53125 72.484375 
Q 59.328125 70.75 64.40625 67.28125 
z
" id="DejaVuSans-67"/>
     </defs>
     <use xlink:href="#DejaVuSans-67"/>
     <use x="69.824219" xlink:href="#DejaVuSans-79"/>
     <use x="148.535156" xlink:href="#DejaVuSans-77"/>
     <use x="234.814453" xlink:href="#DejaVuSans-79"/>
     <use x="316.275391" xlink:href="#DejaVuSans-45"/>
     <use x="352.359375" xlink:href="#DejaVuSans-49"/>
     <use x="415.982422" xlink:href="#DejaVuSans-48"/>
     <use x="479.605469" xlink:href="#DejaVuSans-48"/>
     <use x="543.228516" xlink:href="#DejaVuSans-32"/>
    </g>
   </g>
   <g id="text_15">
    <!-- NSGA-II-M -->
    <g transform="translate(375.22944 126.352403)scale(0.17 -0.17)">
     <defs>
      <path d="M 9.8125 72.90625 
L 23.09375 72.90625 
L 55.421875 11.921875 
L 55.421875 72.90625 
L 64.984375 72.90625 
L 64.984375 0 
L 51.703125 0 
L 19.390625 60.984375 
L 19.390625 0 
L 9.8125 0 
z
" id="DejaVuSans-78"/>
      <path d="M 59.515625 10.40625 
L 59.515625 29.984375 
L 43.40625 29.984375 
L 43.40625 38.09375 
L 69.28125 38.09375 
L 69.28125 6.78125 
Q 63.578125 2.734375 56.6875 0.65625 
Q 49.8125 -1.421875 42 -1.421875 
Q 24.90625 -1.421875 15.25 8.5625 
Q 5.609375 18.5625 5.609375 36.375 
Q 5.609375 54.25 15.25 64.234375 
Q 24.90625 74.21875 42 74.21875 
Q 49.125 74.21875 55.546875 72.453125 
Q 61.96875 70.703125 67.390625 67.28125 
L 67.390625 56.78125 
Q 61.921875 61.421875 55.765625 63.765625 
Q 49.609375 66.109375 42.828125 66.109375 
Q 29.4375 66.109375 22.71875 58.640625 
Q 16.015625 51.171875 16.015625 36.375 
Q 16.015625 21.625 22.71875 14.15625 
Q 29.4375 6.6875 42.828125 6.6875 
Q 48.046875 6.6875 52.140625 7.59375 
Q 56.25 8.5 59.515625 10.40625 
z
" id="DejaVuSans-71"/>
      <path d="M 9.8125 72.90625 
L 19.671875 72.90625 
L 19.671875 0 
L 9.8125 0 
z
" id="DejaVuSans-73"/>
     </defs>
     <use xlink:href="#DejaVuSans-78"/>
     <use x="74.804688" xlink:href="#DejaVuSans-83"/>
     <use x="138.28125" xlink:href="#DejaVuSans-71"/>
     <use x="215.771484" xlink:href="#DejaVuSans-65"/>
     <use x="281.929688" xlink:href="#DejaVuSans-45"/>
     <use x="318.013672" xlink:href="#DejaVuSans-73"/>
     <use x="347.505859" xlink:href="#DejaVuSans-73"/>
     <use x="376.998047" xlink:href="#DejaVuSans-45"/>
     <use x="413.082031" xlink:href="#DejaVuSans-77"/>
    </g>
   </g>
   <g id="text_16">
    <!-- best 2016 -->
    <g transform="translate(375.22944 40.397235)scale(0.17 -0.17)">
     <defs>
      <path d="M 48.6875 27.296875 
Q 48.6875 37.203125 44.609375 42.84375 
Q 40.53125 48.484375 33.40625 48.484375 
Q 26.265625 48.484375 22.1875 42.84375 
Q 18.109375 37.203125 18.109375 27.296875 
Q 18.109375 17.390625 22.1875 11.75 
Q 26.265625 6.109375 33.40625 6.109375 
Q 40.53125 6.109375 44.609375 11.75 
Q 48.6875 17.390625 48.6875 27.296875 
z
M 18.109375 46.390625 
Q 20.953125 51.265625 25.265625 53.625 
Q 29.59375 56 35.59375 56 
Q 45.5625 56 51.78125 48.09375 
Q 58.015625 40.1875 58.015625 27.296875 
Q 58.015625 14.40625 51.78125 6.484375 
Q 45.5625 -1.421875 35.59375 -1.421875 
Q 29.59375 -1.421875 25.265625 0.953125 
Q 20.953125 3.328125 18.109375 8.203125 
L 18.109375 0 
L 9.078125 0 
L 9.078125 75.984375 
L 18.109375 75.984375 
z
" id="DejaVuSans-98"/>
     </defs>
     <use xlink:href="#DejaVuSans-98"/>
     <use x="63.476562" xlink:href="#DejaVuSans-101"/>
     <use x="125" xlink:href="#DejaVuSans-115"/>
     <use x="177.099609" xlink:href="#DejaVuSans-116"/>
     <use x="216.308594" xlink:href="#DejaVuSans-32"/>
     <use x="248.095703" xlink:href="#DejaVuSans-50"/>
     <use x="311.71875" xlink:href="#DejaVuSans-48"/>
     <use x="375.341797" xlink:href="#DejaVuSans-49"/>
     <use x="438.964844" xlink:href="#DejaVuSans-54"/>
    </g>
   </g>
   <g id="text_17">
    <!-- bbob-biobj f16, 2-D -->
    <g transform="translate(60.41088 38.111366)scale(0.102 -0.102)">
     <defs>
      <path d="M 9.421875 54.6875 
L 18.40625 54.6875 
L 18.40625 -0.984375 
Q 18.40625 -11.421875 14.421875 -16.109375 
Q 10.453125 -20.796875 1.609375 -20.796875 
L -1.8125 -20.796875 
L -1.8125 -13.1875 
L 0.59375 -13.1875 
Q 5.71875 -13.1875 7.5625 -10.8125 
Q 9.421875 -8.453125 9.421875 -0.984375 
z
M 9.421875 75.984375 
L 18.40625 75.984375 
L 18.40625 64.59375 
L 9.421875 64.59375 
z
" id="DejaVuSans-106"/>
      <path d="M 19.671875 64.796875 
L 19.671875 8.109375 
L 31.59375 8.109375 
Q 46.6875 8.109375 53.6875 14.9375 
Q 60.6875 21.78125 60.6875 36.53125 
Q 60.6875 51.171875 53.6875 57.984375 
Q 46.6875 64.796875 31.59375 64.796875 
z
M 9.8125 72.90625 
L 30.078125 72.90625 
Q 51.265625 72.90625 61.171875 64.09375 
Q 71.09375 55.28125 71.09375 36.53125 
Q 71.09375 17.671875 61.125 8.828125 
Q 51.171875 0 30.078125 0 
L 9.8125 0 
z
" id="DejaVuSans-68"/>
     </defs>
     <use xlink:href="#DejaVuSans-98"/>
     <use x="63.476562" xlink:href="#DejaVuSans-98"/>
     <use x="126.953125" xlink:href="#DejaVuSans-111"/>
     <use x="188.134766" xlink:href="#DejaVuSans-98"/>
     <use x="251.611328" xlink:href="#DejaVuSans-45"/>
     <use x="287.695312" xlink:href="#DejaVuSans-98"/>
     <use x="351.171875" xlink:href="#DejaVuSans-105"/>
     <use x="378.955078" xlink:href="#DejaVuSans-111"/>
     <use x="440.136719" xlink:href="#DejaVuSans-98"/>
     <use x="503.613281" xlink:href="#DejaVuSans-106"/>
     <use x="531.396484" xlink:href="#DejaVuSans-32"/>
     <use x="563.183594" xlink:href="#DejaVuSans-102"/>
     <use x="598.388672" xlink:href="#DejaVuSans-49"/>
     <use x="662.011719" xlink:href="#DejaVuSans-54"/>
     <use x="725.634766" xlink:href="#DejaVuSans-44"/>
     <use x="757.421875" xlink:href="#DejaVuSans-32"/>
     <use x="789.208984" xlink:href="#DejaVuSans-50"/>
     <use x="852.832031" xlink:href="#DejaVuSans-45"/>
     <use x="888.916016" xlink:href="#DejaVuSans-68"/>
    </g>
    <!-- 58 targets: 1..-1.0e-4 -->
    <g transform="translate(60.41088 49.533135)scale(0.102 -0.102)">
     <defs>
      <path d="M 10.796875 72.90625 
L 49.515625 72.90625 
L 49.515625 64.59375 
L 19.828125 64.59375 
L 19.828125 46.734375 
Q 21.96875 47.46875 24.109375 47.828125 
Q 26.265625 48.1875 28.421875 48.1875 
Q 40.625 48.1875 47.75 41.5 
Q 54.890625 34.8125 54.890625 23.390625 
Q 54.890625 11.625 47.5625 5.09375 
Q 40.234375 -1.421875 26.90625 -1.421875 
Q 22.3125 -1.421875 17.546875 -0.640625 
Q 12.796875 0.140625 7.71875 1.703125 
L 7.71875 11.625 
Q 12.109375 9.234375 16.796875 8.0625 
Q 21.484375 6.890625 26.703125 6.890625 
Q 35.15625 6.890625 40.078125 11.328125 
Q 45.015625 15.765625 45.015625 23.390625 
Q 45.015625 31 40.078125 35.4375 
Q 35.15625 39.890625 26.703125 39.890625 
Q 22.75 39.890625 18.8125 39.015625 
Q 14.890625 38.140625 10.796875 36.28125 
z
" id="DejaVuSans-53"/>
      <path d="M 11.71875 12.40625 
L 22.015625 12.40625 
L 22.015625 0 
L 11.71875 0 
z
M 11.71875 51.703125 
L 22.015625 51.703125 
L 22.015625 39.3125 
L 11.71875 39.3125 
z
" id="DejaVuSans-58"/>
     </defs>
     <use xlink:href="#DejaVuSans-53"/>
     <use x="63.623047" xlink:href="#DejaVuSans-56"/>
     <use x="127.246094" xlink:href="#DejaVuSans-32"/>
     <use x="159.033203" xlink:href="#DejaVuSans-116"/>
     <use x="198.242188" xlink:href="#DejaVuSans-97"/>
     <use x="259.521484" xlink:href="#DejaVuSans-114"/>
     <use x="298.884766" xlink:href="#DejaVuSans-103"/>
     <use x="362.361328" xlink:href="#DejaVuSans-101"/>
     <use x="423.884766" xlink:href="#DejaVuSans-116"/>
     <use x="463.09375" xlink:href="#DejaVuSans-115"/>
     <use x="515.193359" xlink:href="#DejaVuSans-58"/>
     <use x="548.884766" xlink:href="#DejaVuSans-32"/>
     <use x="580.671875" xlink:href="#DejaVuSans-49"/>
     <use x="644.294922" xlink:href="#DejaVuSans-46"/>
     <use x="676.082031" xlink:href="#DejaVuSans-46"/>
     <use x="707.869141" xlink:href="#DejaVuSans-45"/>
     <use x="743.953125" xlink:href="#DejaVuSans-49"/>
     <use x="807.576172" xlink:href="#DejaVuSans-46"/>
     <use x="839.363281" xlink:href="#DejaVuSans-48"/>
     <use x="902.986328" xlink:href="#DejaVuSans-101"/>
     <use x="964.509766" xlink:href="#DejaVuSans-45"/>
     <use x="1000.59375" xlink:href="#DejaVuSans-52"/>
    </g>
    <!-- 10 instances -->
    <g transform="translate(60.41088 60.954904)scale(0.102 -0.102)">
     <use xlink:href="#DejaVuSans-49"/>
     <use x="63.623047" xlink:href="#DejaVuSans-48"/>
     <use x="127.246094" xlink:href="#DejaVuSans-32"/>
     <use x="159.033203" xlink:href="#DejaVuSans-105"/>
     <use x="186.816406" xlink:href="#DejaVuSans-110"/>
     <use x="250.195312" xlink:href="#DejaVuSans-115"/>
     <use x="302.294922" xlink:href="#DejaVuSans-116"/>
     <use x="341.503906" xlink:href="#DejaVuSans-97"/>
     <use x="402.783203" xlink:href="#DejaVuSans-110"/>
     <use x="466.162109" xlink:href="#DejaVuSans-99"/>
     <use x="521.142578" xlink:href="#DejaVuSans-101"/>
     <use x="582.666016" xlink:href="#DejaVuSans-115"/>
    </g>
   </g>
   <g id="text_18">
    <!-- v2.4.19, hv-hash=ff0e71e8cd978373 -->
    <g style="fill:#808080;" transform="translate(104.697125 294.151352)scale(0.1 -0.1)">
     <defs>
      <path d="M 10.984375 1.515625 
L 10.984375 10.5 
Q 14.703125 8.734375 18.5 7.8125 
Q 22.3125 6.890625 25.984375 6.890625 
Q 35.75 6.890625 40.890625 13.453125 
Q 46.046875 20.015625 46.78125 33.40625 
Q 43.953125 29.203125 39.59375 26.953125 
Q 35.25 24.703125 29.984375 24.703125 
Q 19.046875 24.703125 12.671875 31.3125 
Q 6.296875 37.9375 6.296875 49.421875 
Q 6.296875 60.640625 12.9375 67.421875 
Q 19.578125 74.21875 30.609375 74.21875 
Q 43.265625 74.21875 49.921875 64.515625 
Q 56.59375 54.828125 56.59375 36.375 
Q 56.59375 19.140625 48.40625 8.859375 
Q 40.234375 -1.421875 26.421875 -1.421875 
Q 22.703125 -1.421875 18.890625 -0.6875 
Q 15.09375 0.046875 10.984375 1.515625 
z
M 30.609375 32.421875 
Q 37.25 32.421875 41.125 36.953125 
Q 45.015625 41.5 45.015625 49.421875 
Q 45.015625 57.28125 41.125 61.84375 
Q 37.25 66.40625 30.609375 66.40625 
Q 23.96875 66.40625 20.09375 61.84375 
Q 16.21875 57.28125 16.21875 49.421875 
Q 16.21875 41.5 20.09375 36.953125 
Q 23.96875 32.421875 30.609375 32.421875 
z
" id="DejaVuSans-57"/>
      <path d="M 54.890625 33.015625 
L 54.890625 0 
L 45.90625 0 
L 45.90625 32.71875 
Q 45.90625 40.484375 42.875 44.328125 
Q 39.84375 48.1875 33.796875 48.1875 
Q 26.515625 48.1875 22.3125 43.546875 
Q 18.109375 38.921875 18.109375 30.90625 
L 18.109375 0 
L 9.078125 0 
L 9.078125 75.984375 
L 18.109375 75.984375 
L 18.109375 46.1875 
Q 21.34375 51.125 25.703125 53.5625 
Q 30.078125 56 35.796875 56 
Q 45.21875 56 50.046875 50.171875 
Q 54.890625 44.34375 54.890625 33.015625 
z
" id="DejaVuSans-104"/>
      <path d="M 10.59375 45.40625 
L 73.1875 45.40625 
L 73.1875 37.203125 
L 10.59375 37.203125 
z
M 10.59375 25.484375 
L 73.1875 25.484375 
L 73.1875 17.1875 
L 10.59375 17.1875 
z
" id="DejaVuSans-61"/>
      <path d="M 8.203125 72.90625 
L 55.078125 72.90625 
L 55.078125 68.703125 
L 28.609375 0 
L 18.3125 0 
L 43.21875 64.59375 
L 8.203125 64.59375 
z
" id="DejaVuSans-55"/>
      <path d="M 40.578125 39.3125 
Q 47.65625 37.796875 51.625 33 
Q 55.609375 28.21875 55.609375 21.1875 
Q 55.609375 10.40625 48.1875 4.484375 
Q 40.765625 -1.421875 27.09375 -1.421875 
Q 22.515625 -1.421875 17.65625 -0.515625 
Q 12.796875 0.390625 7.625 2.203125 
L 7.625 11.71875 
Q 11.71875 9.328125 16.59375 8.109375 
Q 21.484375 6.890625 26.8125 6.890625 
Q 36.078125 6.890625 40.9375 10.546875 
Q 45.796875 14.203125 45.796875 21.1875 
Q 45.796875 27.640625 41.28125 31.265625 
Q 36.765625 34.90625 28.71875 34.90625 
L 20.21875 34.90625 
L 20.21875 43.015625 
L 29.109375 43.015625 
Q 36.375 43.015625 40.234375 45.921875 
Q 44.09375 48.828125 44.09375 54.296875 
Q 44.09375 59.90625 40.109375 62.90625 
Q 36.140625 65.921875 28.71875 65.921875 
Q 24.65625 65.921875 20.015625 65.03125 
Q 15.375 64.15625 9.8125 62.3125 
L 9.8125 71.09375 
Q 15.4375 72.65625 20.34375 73.4375 
Q 25.25 74.21875 29.59375 74.21875 
Q 40.828125 74.21875 47.359375 69.109375 
Q 53.90625 64.015625 53.90625 55.328125 
Q 53.90625 49.265625 50.4375 45.09375 
Q 46.96875 40.921875 40.578125 39.3125 
z
" id="DejaVuSans-51"/>
     </defs>
     <use xlink:href="#DejaVuSans-118"/>
     <use x="59.179688" xlink:href="#DejaVuSans-50"/>
     <use x="122.802734" xlink:href="#DejaVuSans-46"/>
     <use x="154.589844" xlink:href="#DejaVuSans-52"/>
     <use x="218.212891" xlink:href="#DejaVuSans-46"/>
     <use x="250" xlink:href="#DejaVuSans-49"/>
     <use x="313.623047" xlink:href="#DejaVuSans-57"/>
     <use x="377.246094" xlink:href="#DejaVuSans-44"/>
     <use x="409.033203" xlink:href="#DejaVuSans-32"/>
     <use x="440.820312" xlink:href="#DejaVuSans-104"/>
     <use x="504.199219" xlink:href="#DejaVuSans-118"/>
     <use x="560.753906" xlink:href="#DejaVuSans-45"/>
     <use x="596.837891" xlink:href="#DejaVuSans-104"/>
     <use x="660.216797" xlink:href="#DejaVuSans-97"/>
     <use x="721.496094" xlink:href="#DejaVuSans-115"/>
     <use x="773.595703" xlink:href="#DejaVuSans-104"/>
     <use x="836.974609" xlink:href="#DejaVuSans-61"/>
     <use x="920.763672" xlink:href="#DejaVuSans-102"/>
     <use x="955.96875" xlink:href="#DejaVuSans-102"/>
     <use x="991.173828" xlink:href="#DejaVuSans-48"/>
     <use x="1054.796875" xlink:href="#DejaVuSans-101"/>
     <use x="1116.320312" xlink:href="#DejaVuSans-55"/>
     <use x="1179.943359" xlink:href="#DejaVuSans-49"/>
     <use x="1243.566406" xlink:href="#DejaVuSans-101"/>
     <use x="1305.089844" xlink:href="#DejaVuSans-56"/>
     <use x="1368.712891" xlink:href="#DejaVuSans-99"/>
     <use x="1423.693359" xlink:href="#DejaVuSans-100"/>
     <use x="1487.169922" xlink:href="#DejaVuSans-57"/>
     <use x="1550.792969" xlink:href="#DejaVuSans-55"/>
     <use x="1614.416016" xlink:href="#DejaVuSans-56"/>
     <use x="1678.039062" xlink:href="#DejaVuSans-51"/>
     <use x="1741.662109" xlink:href="#DejaVuSans-55"/>
     <use x="1805.285156" xlink:href="#DejaVuSans-51"/>
    </g>
   </g>
   <g id="text_19">
    <!-- 16 sep. Ellipsoid/Rastrigin -->
    <g transform="translate(69.014312 21.648)scale(0.2 -0.2)">
     <defs>
      <path d="M 44.390625 34.1875 
Q 47.5625 33.109375 50.5625 29.59375 
Q 53.5625 26.078125 56.59375 19.921875 
L 66.609375 0 
L 56 0 
L 46.6875 18.703125 
Q 43.0625 26.03125 39.671875 28.421875 
Q 36.28125 30.8125 30.421875 30.8125 
L 19.671875 30.8125 
L 19.671875 0 
L 9.8125 0 
L 9.8125 72.90625 
L 32.078125 72.90625 
Q 44.578125 72.90625 50.734375 67.671875 
Q 56.890625 62.453125 56.890625 51.90625 
Q 56.890625 45.015625 53.6875 40.46875 
Q 50.484375 35.9375 44.390625 34.1875 
z
M 19.671875 64.796875 
L 19.671875 38.921875 
L 32.078125 38.921875 
Q 39.203125 38.921875 42.84375 42.21875 
Q 46.484375 45.515625 46.484375 51.90625 
Q 46.484375 58.296875 42.84375 61.546875 
Q 39.203125 64.796875 32.078125 64.796875 
z
" id="DejaVuSans-82"/>
     </defs>
     <use xlink:href="#DejaVuSans-49"/>
     <use x="63.623047" xlink:href="#DejaVuSans-54"/>
     <use x="127.246094" xlink:href="#DejaVuSans-32"/>
     <use x="159.033203" xlink:href="#DejaVuSans-115"/>
     <use x="211.132812" xlink:href="#DejaVuSans-101"/>
     <use x="272.65625" xlink:href="#DejaVuSans-112"/>
     <use x="336.132812" xlink:href="#DejaVuSans-46"/>
     <use x="367.919922" xlink:href="#DejaVuSans-32"/>
     <use x="399.707031" xlink:href="#DejaVuSans-69"/>
     <use x="462.890625" xlink:href="#DejaVuSans-108"/>
     <use x="490.673828" xlink:href="#DejaVuSans-108"/>
     <use x="518.457031" xlink:href="#DejaVuSans-105"/>
     <use x="546.240234" xlink:href="#DejaVuSans-112"/>
     <use x="609.716797" xlink:href="#DejaVuSans-115"/>
     <use x="661.816406" xlink:href="#DejaVuSans-111"/>
     <use x="722.998047" xlink:href="#DejaVuSans-105"/>
     <use x="750.78125" xlink:href="#DejaVuSans-100"/>
     <use x="814.257812" xlink:href="#DejaVuSans-47"/>
     <use x="847.949219" xlink:href="#DejaVuSans-82"/>
     <use x="915.181641" xlink:href="#DejaVuSans-97"/>
     <use x="976.460938" xlink:href="#DejaVuSans-115"/>
     <use x="1028.560547" xlink:href="#DejaVuSans-116"/>
     <use x="1067.769531" xlink:href="#DejaVuSans-114"/>
     <use x="1108.882812" xlink:href="#DejaVuSans-105"/>
     <use x="1136.666016" xlink:href="#DejaVuSans-103"/>
     <use x="1200.142578" xlink:href="#DejaVuSans-105"/>
     <use x="1227.925781" xlink:href="#DejaVuSans-110"/>
    </g>
   </g>
  </g>
 </g>
 <defs>
  <clipPath id="p48f92342a5">
   <rect height="271.296" width="281.088" x="57.6" y="27.648"/>
  </clipPath>
 </defs>
</svg>
