<?xml version="1.0" encoding="utf-8" standalone="no"?>
<!DOCTYPE svg PUBLIC "-//W3C//DTD SVG 1.1//EN"
  "http://www.w3.org/Graphics/SVG/1.1/DTD/svg11.dtd">
<!-- Created with matplotlib (https://matplotlib.org/) -->
<svg height="345.6pt" version="1.1" viewBox="0 0 460.8 345.6" width="460.8pt" xmlns="http://www.w3.org/2000/svg" xmlns:xlink="http://www.w3.org/1999/xlink">
 <metadata>
  <rdf:RDF xmlns:cc="http://creativecommons.org/ns#" xmlns:dc="http://purl.org/dc/elements/1.1/" xmlns:rdf="http://www.w3.org/1999/02/22-rdf-syntax-ns#">
   <cc:Work>
    <dc:type rdf:resource="http://purl.org/dc/dcmitype/StillImage"/>
    <dc:date>2021-04-26T15:06:12.160023</dc:date>
    <dc:format>image/svg+xml</dc:format>
    <dc:creator>
     <cc:Agent>
      <dc:title>Matplotlib v3.3.2, https://matplotlib.org/</dc:title>
     </cc:Agent>
    </dc:creator>
   </cc:Work>
  </rdf:RDF>
 </metadata>
 <defs>
  <style type="text/css">*{stroke-linecap:butt;stroke-linejoin:round;}</style>
 </defs>
 <g id="figure_1">
  <g id="patch_1">
   <path d="M 0 345.6 
L 460.8 345.6 
L 460.8 0 
L 0 0 
z
" style="fill:#ffffff;"/>
  </g>
  <g id="axes_1">
   <g id="patch_2">
    <path d="M 57.6 298.944 
L 338.688 298.944 
L 338.688 27.648 
L 57.6 27.648 
z
" style="fill:#ffffff;"/>
   </g>
   <g id="line2d_1">
    <path d="M 57.6 298.944 
L 57.6 294.312795 
L 88.846997 294.312795 
L 88.846997 285.050384 
L 107.514726 285.050384 
L 107.514726 275.787974 
L 132.659801 275.787974 
L 132.659801 271.156769 
L 138.67848 271.156769 
L 138.67848 257.263153 
L 144.981877 257.263153 
L 144.981877 248.000743 
L 149.998846 248.000743 
L 149.998846 243.369538 
L 155.167744 243.369538 
L 155.167744 234.107127 
L 158.994256 234.107127 
L 158.994256 220.213512 
L 161.622937 220.213512 
L 161.622937 210.951101 
L 166.030537 210.951101 
L 166.030537 201.688691 
L 173.576085 201.688691 
L 173.576085 192.426281 
L 184.340418 192.426281 
L 184.340418 187.795075 
L 185.253182 187.795075 
L 185.253182 173.90146 
L 193.557646 173.90146 
L 193.557646 169.270255 
L 202.14389 169.270255 
L 202.14389 155.376639 
L 217.044978 155.376639 
L 217.044978 146.114229 
L 218.898987 146.114229 
L 218.898987 141.483024 
L 220.218315 141.483024 
L 220.218315 127.589408 
L 223.255896 127.589408 
L 223.255896 122.958203 
L 225.980069 122.958203 
L 225.980069 109.064587 
L 228.716659 109.064587 
L 228.716659 99.802177 
L 233.863431 99.802177 
L 233.863431 90.539766 
L 246.543818 90.539766 
L 246.543818 85.908561 
L 250.152972 85.908561 
L 250.152972 76.646151 
L 254.53618 76.646151 
L 254.53618 62.752535 
L 338.688 62.752535 
" style="fill:none;stroke:#f5deb3;stroke-linecap:square;stroke-width:4;"/>
   </g>
   <g id="line2d_2">
    <defs>
     <path d="M 0 7.778175 
L 7.778175 0 
L 0 -7.778175 
L -7.778175 0 
z
" id="m2da47b9312" style="stroke:#f5deb3;stroke-linejoin:miter;stroke-width:1.5;"/>
    </defs>
    <g>
     <use style="fill:#f5deb3;stroke:#f5deb3;stroke-linejoin:miter;stroke-width:1.5;" x="132.659801" xlink:href="#m2da47b9312" y="275.787974"/>
     <use style="fill:#f5deb3;stroke:#f5deb3;stroke-linejoin:miter;stroke-width:1.5;" x="173.576085" xlink:href="#m2da47b9312" y="192.426281"/>
     <use style="fill:#f5deb3;stroke:#f5deb3;stroke-linejoin:miter;stroke-width:1.5;" x="246.543818" xlink:href="#m2da47b9312" y="90.539766"/>
     <use style="fill:#f5deb3;stroke:#f5deb3;stroke-linejoin:miter;stroke-width:1.5;" x="254.53618" xlink:href="#m2da47b9312" y="62.752535"/>
     <use style="fill:#f5deb3;stroke:#f5deb3;stroke-linejoin:miter;stroke-width:1.5;" x="338.688" xlink:href="#m2da47b9312" y="62.752535"/>
    </g>
   </g>
   <g id="line2d_3">
    <path style="fill:none;stroke:#f5deb3;stroke-linecap:square;stroke-width:4;"/>
    <g/>
   </g>
   <g id="line2d_4">
    <path d="M 338.688 62.752535 
L 369.60768 35.706297 
" style="fill:none;stroke:#f5deb3;stroke-linecap:square;stroke-width:4;"/>
    <g>
     <use style="fill:#f5deb3;stroke:#f5deb3;stroke-linejoin:miter;stroke-width:1.5;" x="338.688" xlink:href="#m2da47b9312" y="62.752535"/>
     <use style="fill:#f5deb3;stroke:#f5deb3;stroke-linejoin:miter;stroke-width:1.5;" x="369.60768" xlink:href="#m2da47b9312" y="35.706297"/>
    </g>
   </g>
   <g id="matplotlib.axis_1">
    <g id="xtick_1">
     <g id="line2d_5">
      <path clip-path="url(#paabdcbb48f)" d="M 57.6 298.944 
L 57.6 27.648 
" style="fill:none;stroke:#b0b0b0;stroke-linecap:square;stroke-width:0.8;"/>
     </g>
     <g id="line2d_6">
      <defs>
       <path d="M 0 0 
L 0 3.5 
" id="m539922ffd5" style="stroke:#000000;stroke-width:0.8;"/>
      </defs>
      <g>
       <use style="stroke:#000000;stroke-width:0.8;" x="57.6" xlink:href="#m539922ffd5" y="298.944"/>
      </g>
     </g>
     <g id="text_1">
      <!-- 0 -->
      <g transform="translate(51.2375 321.140875)scale(0.2 -0.2)">
       <defs>
        <path d="M 31.78125 66.40625 
Q 24.171875 66.40625 20.328125 58.90625 
Q 16.5 51.421875 16.5 36.375 
Q 16.5 21.390625 20.328125 13.890625 
Q 24.171875 6.390625 31.78125 6.390625 
Q 39.453125 6.390625 43.28125 13.890625 
Q 47.125 21.390625 47.125 36.375 
Q 47.125 51.421875 43.28125 58.90625 
Q 39.453125 66.40625 31.78125 66.40625 
z
M 31.78125 74.21875 
Q 44.046875 74.21875 50.515625 64.515625 
Q 56.984375 54.828125 56.984375 36.375 
Q 56.984375 17.96875 50.515625 8.265625 
Q 44.046875 -1.421875 31.78125 -1.421875 
Q 19.53125 -1.421875 13.0625 8.265625 
Q 6.59375 17.96875 6.59375 36.375 
Q 6.59375 54.828125 13.0625 64.515625 
Q 19.53125 74.21875 31.78125 74.21875 
z
" id="DejaVuSans-48"/>
       </defs>
       <use xlink:href="#DejaVuSans-48"/>
      </g>
     </g>
    </g>
    <g id="xtick_2">
     <g id="line2d_7">
      <path clip-path="url(#paabdcbb48f)" d="M 137.910857 298.944 
L 137.910857 27.648 
" style="fill:none;stroke:#b0b0b0;stroke-linecap:square;stroke-width:0.8;"/>
     </g>
     <g id="line2d_8">
      <g>
       <use style="stroke:#000000;stroke-width:0.8;" x="137.910857" xlink:href="#m539922ffd5" y="298.944"/>
      </g>
     </g>
     <g id="text_2">
      <!-- 2 -->
      <g transform="translate(131.548357 321.140875)scale(0.2 -0.2)">
       <defs>
        <path d="M 19.1875 8.296875 
L 53.609375 8.296875 
L 53.609375 0 
L 7.328125 0 
L 7.328125 8.296875 
Q 12.9375 14.109375 22.625 23.890625 
Q 32.328125 33.6875 34.8125 36.53125 
Q 39.546875 41.84375 41.421875 45.53125 
Q 43.3125 49.21875 43.3125 52.78125 
Q 43.3125 58.59375 39.234375 62.25 
Q 35.15625 65.921875 28.609375 65.921875 
Q 23.96875 65.921875 18.8125 64.3125 
Q 13.671875 62.703125 7.8125 59.421875 
L 7.8125 69.390625 
Q 13.765625 71.78125 18.9375 73 
Q 24.125 74.21875 28.421875 74.21875 
Q 39.75 74.21875 46.484375 68.546875 
Q 53.21875 62.890625 53.21875 53.421875 
Q 53.21875 48.921875 51.53125 44.890625 
Q 49.859375 40.875 45.40625 35.40625 
Q 44.1875 33.984375 37.640625 27.21875 
Q 31.109375 20.453125 19.1875 8.296875 
z
" id="DejaVuSans-50"/>
       </defs>
       <use xlink:href="#DejaVuSans-50"/>
      </g>
     </g>
    </g>
    <g id="xtick_3">
     <g id="line2d_9">
      <path clip-path="url(#paabdcbb48f)" d="M 218.221714 298.944 
L 218.221714 27.648 
" style="fill:none;stroke:#b0b0b0;stroke-linecap:square;stroke-width:0.8;"/>
     </g>
     <g id="line2d_10">
      <g>
       <use style="stroke:#000000;stroke-width:0.8;" x="218.221714" xlink:href="#m539922ffd5" y="298.944"/>
      </g>
     </g>
     <g id="text_3">
      <!-- 4 -->
      <g transform="translate(211.859214 321.140875)scale(0.2 -0.2)">
       <defs>
        <path d="M 37.796875 64.3125 
L 12.890625 25.390625 
L 37.796875 25.390625 
z
M 35.203125 72.90625 
L 47.609375 72.90625 
L 47.609375 25.390625 
L 58.015625 25.390625 
L 58.015625 17.1875 
L 47.609375 17.1875 
L 47.609375 0 
L 37.796875 0 
L 37.796875 17.1875 
L 4.890625 17.1875 
L 4.890625 26.703125 
z
" id="DejaVuSans-52"/>
       </defs>
       <use xlink:href="#DejaVuSans-52"/>
      </g>
     </g>
    </g>
    <g id="xtick_4">
     <g id="line2d_11">
      <path clip-path="url(#paabdcbb48f)" d="M 298.532571 298.944 
L 298.532571 27.648 
" style="fill:none;stroke:#b0b0b0;stroke-linecap:square;stroke-width:0.8;"/>
     </g>
     <g id="line2d_12">
      <g>
       <use style="stroke:#000000;stroke-width:0.8;" x="298.532571" xlink:href="#m539922ffd5" y="298.944"/>
      </g>
     </g>
     <g id="text_4">
      <!-- 6 -->
      <g transform="translate(292.170071 321.140875)scale(0.2 -0.2)">
       <defs>
        <path d="M 33.015625 40.375 
Q 26.375 40.375 22.484375 35.828125 
Q 18.609375 31.296875 18.609375 23.390625 
Q 18.609375 15.53125 22.484375 10.953125 
Q 26.375 6.390625 33.015625 6.390625 
Q 39.65625 6.390625 43.53125 10.953125 
Q 47.40625 15.53125 47.40625 23.390625 
Q 47.40625 31.296875 43.53125 35.828125 
Q 39.65625 40.375 33.015625 40.375 
z
M 52.59375 71.296875 
L 52.59375 62.3125 
Q 48.875 64.0625 45.09375 64.984375 
Q 41.3125 65.921875 37.59375 65.921875 
Q 27.828125 65.921875 22.671875 59.328125 
Q 17.53125 52.734375 16.796875 39.40625 
Q 19.671875 43.65625 24.015625 45.921875 
Q 28.375 48.1875 33.59375 48.1875 
Q 44.578125 48.1875 50.953125 41.515625 
Q 57.328125 34.859375 57.328125 23.390625 
Q 57.328125 12.15625 50.6875 5.359375 
Q 44.046875 -1.421875 33.015625 -1.421875 
Q 20.359375 -1.421875 13.671875 8.265625 
Q 6.984375 17.96875 6.984375 36.375 
Q 6.984375 53.65625 15.1875 63.9375 
Q 23.390625 74.21875 37.203125 74.21875 
Q 40.921875 74.21875 44.703125 73.484375 
Q 48.484375 72.75 52.59375 71.296875 
z
" id="DejaVuSans-54"/>
       </defs>
       <use xlink:href="#DejaVuSans-54"/>
      </g>
     </g>
    </g>
    <g id="xtick_5">
     <g id="line2d_13">
      <path clip-path="url(#paabdcbb48f)" d="M 97.755429 298.944 
L 97.755429 27.648 
" style="fill:none;stroke:#b0b0b0;stroke-linecap:square;stroke-width:0.8;"/>
     </g>
     <g id="line2d_14">
      <defs>
       <path d="M 0 0 
L 0 2 
" id="mf667ba00ca" style="stroke:#000000;stroke-width:0.6;"/>
      </defs>
      <g>
       <use style="stroke:#000000;stroke-width:0.6;" x="97.755429" xlink:href="#mf667ba00ca" y="298.944"/>
      </g>
     </g>
    </g>
    <g id="xtick_6">
     <g id="line2d_15">
      <path clip-path="url(#paabdcbb48f)" d="M 178.066286 298.944 
L 178.066286 27.648 
" style="fill:none;stroke:#b0b0b0;stroke-linecap:square;stroke-width:0.8;"/>
     </g>
     <g id="line2d_16">
      <g>
       <use style="stroke:#000000;stroke-width:0.6;" x="178.066286" xlink:href="#mf667ba00ca" y="298.944"/>
      </g>
     </g>
    </g>
    <g id="xtick_7">
     <g id="line2d_17">
      <path clip-path="url(#paabdcbb48f)" d="M 258.377143 298.944 
L 258.377143 27.648 
" style="fill:none;stroke:#b0b0b0;stroke-linecap:square;stroke-width:0.8;"/>
     </g>
     <g id="line2d_18">
      <g>
       <use style="stroke:#000000;stroke-width:0.6;" x="258.377143" xlink:href="#mf667ba00ca" y="298.944"/>
      </g>
     </g>
    </g>
    <g id="xtick_8">
     <g id="line2d_19">
      <path clip-path="url(#paabdcbb48f)" d="M 338.688 298.944 
L 338.688 27.648 
" style="fill:none;stroke:#b0b0b0;stroke-linecap:square;stroke-width:0.8;"/>
     </g>
     <g id="line2d_20">
      <g>
       <use style="stroke:#000000;stroke-width:0.6;" x="338.688" xlink:href="#mf667ba00ca" y="298.944"/>
      </g>
     </g>
    </g>
    <g id="text_5">
     <!-- log10(# f-evals / dimension) -->
     <g transform="translate(77.764078 342.217594)scale(0.17 -0.17)">
      <defs>
       <path d="M 9.421875 75.984375 
L 18.40625 75.984375 
L 18.40625 0 
L 9.421875 0 
z
" id="DejaVuSans-108"/>
       <path d="M 30.609375 48.390625 
Q 23.390625 48.390625 19.1875 42.75 
Q 14.984375 37.109375 14.984375 27.296875 
Q 14.984375 17.484375 19.15625 11.84375 
Q 23.34375 6.203125 30.609375 6.203125 
Q 37.796875 6.203125 41.984375 11.859375 
Q 46.1875 17.53125 46.1875 27.296875 
Q 46.1875 37.015625 41.984375 42.703125 
Q 37.796875 48.390625 30.609375 48.390625 
z
M 30.609375 56 
Q 42.328125 56 49.015625 48.375 
Q 55.71875 40.765625 55.71875 27.296875 
Q 55.71875 13.875 49.015625 6.21875 
Q 42.328125 -1.421875 30.609375 -1.421875 
Q 18.84375 -1.421875 12.171875 6.21875 
Q 5.515625 13.875 5.515625 27.296875 
Q 5.515625 40.765625 12.171875 48.375 
Q 18.84375 56 30.609375 56 
z
" id="DejaVuSans-111"/>
       <path d="M 45.40625 27.984375 
Q 45.40625 37.75 41.375 43.109375 
Q 37.359375 48.484375 30.078125 48.484375 
Q 22.859375 48.484375 18.828125 43.109375 
Q 14.796875 37.75 14.796875 27.984375 
Q 14.796875 18.265625 18.828125 12.890625 
Q 22.859375 7.515625 30.078125 7.515625 
Q 37.359375 7.515625 41.375 12.890625 
Q 45.40625 18.265625 45.40625 27.984375 
z
M 54.390625 6.78125 
Q 54.390625 -7.171875 48.1875 -13.984375 
Q 42 -20.796875 29.203125 -20.796875 
Q 24.46875 -20.796875 20.265625 -20.09375 
Q 16.0625 -19.390625 12.109375 -17.921875 
L 12.109375 -9.1875 
Q 16.0625 -11.328125 19.921875 -12.34375 
Q 23.78125 -13.375 27.78125 -13.375 
Q 36.625 -13.375 41.015625 -8.765625 
Q 45.40625 -4.15625 45.40625 5.171875 
L 45.40625 9.625 
Q 42.625 4.78125 38.28125 2.390625 
Q 33.9375 0 27.875 0 
Q 17.828125 0 11.671875 7.65625 
Q 5.515625 15.328125 5.515625 27.984375 
Q 5.515625 40.671875 11.671875 48.328125 
Q 17.828125 56 27.875 56 
Q 33.9375 56 38.28125 53.609375 
Q 42.625 51.21875 45.40625 46.390625 
L 45.40625 54.6875 
L 54.390625 54.6875 
z
" id="DejaVuSans-103"/>
       <path d="M 12.40625 8.296875 
L 28.515625 8.296875 
L 28.515625 63.921875 
L 10.984375 60.40625 
L 10.984375 69.390625 
L 28.421875 72.90625 
L 38.28125 72.90625 
L 38.28125 8.296875 
L 54.390625 8.296875 
L 54.390625 0 
L 12.40625 0 
z
" id="DejaVuSans-49"/>
       <path d="M 31 75.875 
Q 24.46875 64.65625 21.28125 53.65625 
Q 18.109375 42.671875 18.109375 31.390625 
Q 18.109375 20.125 21.3125 9.0625 
Q 24.515625 -2 31 -13.1875 
L 23.1875 -13.1875 
Q 15.875 -1.703125 12.234375 9.375 
Q 8.59375 20.453125 8.59375 31.390625 
Q 8.59375 42.28125 12.203125 53.3125 
Q 15.828125 64.359375 23.1875 75.875 
z
" id="DejaVuSans-40"/>
       <path d="M 51.125 44 
L 36.921875 44 
L 32.8125 27.6875 
L 47.125 27.6875 
z
M 43.796875 71.78125 
L 38.71875 51.515625 
L 52.984375 51.515625 
L 58.109375 71.78125 
L 65.921875 71.78125 
L 60.890625 51.515625 
L 76.125 51.515625 
L 76.125 44 
L 58.984375 44 
L 54.984375 27.6875 
L 70.515625 27.6875 
L 70.515625 20.21875 
L 53.078125 20.21875 
L 48 0 
L 40.1875 0 
L 45.21875 20.21875 
L 30.90625 20.21875 
L 25.875 0 
L 18.015625 0 
L 23.09375 20.21875 
L 7.71875 20.21875 
L 7.71875 27.6875 
L 24.90625 27.6875 
L 29 44 
L 13.28125 44 
L 13.28125 51.515625 
L 30.90625 51.515625 
L 35.890625 71.78125 
z
" id="DejaVuSans-35"/>
       <path id="DejaVuSans-32"/>
       <path d="M 37.109375 75.984375 
L 37.109375 68.5 
L 28.515625 68.5 
Q 23.6875 68.5 21.796875 66.546875 
Q 19.921875 64.59375 19.921875 59.515625 
L 19.921875 54.6875 
L 34.71875 54.6875 
L 34.71875 47.703125 
L 19.921875 47.703125 
L 19.921875 0 
L 10.890625 0 
L 10.890625 47.703125 
L 2.296875 47.703125 
L 2.296875 54.6875 
L 10.890625 54.6875 
L 10.890625 58.5 
Q 10.890625 67.625 15.140625 71.796875 
Q 19.390625 75.984375 28.609375 75.984375 
z
" id="DejaVuSans-102"/>
       <path d="M 4.890625 31.390625 
L 31.203125 31.390625 
L 31.203125 23.390625 
L 4.890625 23.390625 
z
" id="DejaVuSans-45"/>
       <path d="M 56.203125 29.59375 
L 56.203125 25.203125 
L 14.890625 25.203125 
Q 15.484375 15.921875 20.484375 11.0625 
Q 25.484375 6.203125 34.421875 6.203125 
Q 39.59375 6.203125 44.453125 7.46875 
Q 49.3125 8.734375 54.109375 11.28125 
L 54.109375 2.78125 
Q 49.265625 0.734375 44.1875 -0.34375 
Q 39.109375 -1.421875 33.890625 -1.421875 
Q 20.796875 -1.421875 13.15625 6.1875 
Q 5.515625 13.8125 5.515625 26.8125 
Q 5.515625 40.234375 12.765625 48.109375 
Q 20.015625 56 32.328125 56 
Q 43.359375 56 49.78125 48.890625 
Q 56.203125 41.796875 56.203125 29.59375 
z
M 47.21875 32.234375 
Q 47.125 39.59375 43.09375 43.984375 
Q 39.0625 48.390625 32.421875 48.390625 
Q 24.90625 48.390625 20.390625 44.140625 
Q 15.875 39.890625 15.1875 32.171875 
z
" id="DejaVuSans-101"/>
       <path d="M 2.984375 54.6875 
L 12.5 54.6875 
L 29.59375 8.796875 
L 46.6875 54.6875 
L 56.203125 54.6875 
L 35.6875 0 
L 23.484375 0 
z
" id="DejaVuSans-118"/>
       <path d="M 34.28125 27.484375 
Q 23.390625 27.484375 19.1875 25 
Q 14.984375 22.515625 14.984375 16.5 
Q 14.984375 11.71875 18.140625 8.90625 
Q 21.296875 6.109375 26.703125 6.109375 
Q 34.1875 6.109375 38.703125 11.40625 
Q 43.21875 16.703125 43.21875 25.484375 
L 43.21875 27.484375 
z
M 52.203125 31.203125 
L 52.203125 0 
L 43.21875 0 
L 43.21875 8.296875 
Q 40.140625 3.328125 35.546875 0.953125 
Q 30.953125 -1.421875 24.3125 -1.421875 
Q 15.921875 -1.421875 10.953125 3.296875 
Q 6 8.015625 6 15.921875 
Q 6 25.140625 12.171875 29.828125 
Q 18.359375 34.515625 30.609375 34.515625 
L 43.21875 34.515625 
L 43.21875 35.40625 
Q 43.21875 41.609375 39.140625 45 
Q 35.0625 48.390625 27.6875 48.390625 
Q 23 48.390625 18.546875 47.265625 
Q 14.109375 46.140625 10.015625 43.890625 
L 10.015625 52.203125 
Q 14.9375 54.109375 19.578125 55.046875 
Q 24.21875 56 28.609375 56 
Q 40.484375 56 46.34375 49.84375 
Q 52.203125 43.703125 52.203125 31.203125 
z
" id="DejaVuSans-97"/>
       <path d="M 44.28125 53.078125 
L 44.28125 44.578125 
Q 40.484375 46.53125 36.375 47.5 
Q 32.28125 48.484375 27.875 48.484375 
Q 21.1875 48.484375 17.84375 46.4375 
Q 14.5 44.390625 14.5 40.28125 
Q 14.5 37.15625 16.890625 35.375 
Q 19.28125 33.59375 26.515625 31.984375 
L 29.59375 31.296875 
Q 39.15625 29.25 43.1875 25.515625 
Q 47.21875 21.78125 47.21875 15.09375 
Q 47.21875 7.46875 41.1875 3.015625 
Q 35.15625 -1.421875 24.609375 -1.421875 
Q 20.21875 -1.421875 15.453125 -0.5625 
Q 10.6875 0.296875 5.421875 2 
L 5.421875 11.28125 
Q 10.40625 8.6875 15.234375 7.390625 
Q 20.0625 6.109375 24.8125 6.109375 
Q 31.15625 6.109375 34.5625 8.28125 
Q 37.984375 10.453125 37.984375 14.40625 
Q 37.984375 18.0625 35.515625 20.015625 
Q 33.0625 21.96875 24.703125 23.78125 
L 21.578125 24.515625 
Q 13.234375 26.265625 9.515625 29.90625 
Q 5.8125 33.546875 5.8125 39.890625 
Q 5.8125 47.609375 11.28125 51.796875 
Q 16.75 56 26.8125 56 
Q 31.78125 56 36.171875 55.265625 
Q 40.578125 54.546875 44.28125 53.078125 
z
" id="DejaVuSans-115"/>
       <path d="M 25.390625 72.90625 
L 33.6875 72.90625 
L 8.296875 -9.28125 
L 0 -9.28125 
z
" id="DejaVuSans-47"/>
       <path d="M 45.40625 46.390625 
L 45.40625 75.984375 
L 54.390625 75.984375 
L 54.390625 0 
L 45.40625 0 
L 45.40625 8.203125 
Q 42.578125 3.328125 38.25 0.953125 
Q 33.9375 -1.421875 27.875 -1.421875 
Q 17.96875 -1.421875 11.734375 6.484375 
Q 5.515625 14.40625 5.515625 27.296875 
Q 5.515625 40.1875 11.734375 48.09375 
Q 17.96875 56 27.875 56 
Q 33.9375 56 38.25 53.625 
Q 42.578125 51.265625 45.40625 46.390625 
z
M 14.796875 27.296875 
Q 14.796875 17.390625 18.875 11.75 
Q 22.953125 6.109375 30.078125 6.109375 
Q 37.203125 6.109375 41.296875 11.75 
Q 45.40625 17.390625 45.40625 27.296875 
Q 45.40625 37.203125 41.296875 42.84375 
Q 37.203125 48.484375 30.078125 48.484375 
Q 22.953125 48.484375 18.875 42.84375 
Q 14.796875 37.203125 14.796875 27.296875 
z
" id="DejaVuSans-100"/>
       <path d="M 9.421875 54.6875 
L 18.40625 54.6875 
L 18.40625 0 
L 9.421875 0 
z
M 9.421875 75.984375 
L 18.40625 75.984375 
L 18.40625 64.59375 
L 9.421875 64.59375 
z
" id="DejaVuSans-105"/>
       <path d="M 52 44.1875 
Q 55.375 50.25 60.0625 53.125 
Q 64.75 56 71.09375 56 
Q 79.640625 56 84.28125 50.015625 
Q 88.921875 44.046875 88.921875 33.015625 
L 88.921875 0 
L 79.890625 0 
L 79.890625 32.71875 
Q 79.890625 40.578125 77.09375 44.375 
Q 74.3125 48.1875 68.609375 48.1875 
Q 61.625 48.1875 57.5625 43.546875 
Q 53.515625 38.921875 53.515625 30.90625 
L 53.515625 0 
L 44.484375 0 
L 44.484375 32.71875 
Q 44.484375 40.625 41.703125 44.40625 
Q 38.921875 48.1875 33.109375 48.1875 
Q 26.21875 48.1875 22.15625 43.53125 
Q 18.109375 38.875 18.109375 30.90625 
L 18.109375 0 
L 9.078125 0 
L 9.078125 54.6875 
L 18.109375 54.6875 
L 18.109375 46.1875 
Q 21.1875 51.21875 25.484375 53.609375 
Q 29.78125 56 35.6875 56 
Q 41.65625 56 45.828125 52.96875 
Q 50 49.953125 52 44.1875 
z
" id="DejaVuSans-109"/>
       <path d="M 54.890625 33.015625 
L 54.890625 0 
L 45.90625 0 
L 45.90625 32.71875 
Q 45.90625 40.484375 42.875 44.328125 
Q 39.84375 48.1875 33.796875 48.1875 
Q 26.515625 48.1875 22.3125 43.546875 
Q 18.109375 38.921875 18.109375 30.90625 
L 18.109375 0 
L 9.078125 0 
L 9.078125 54.6875 
L 18.109375 54.6875 
L 18.109375 46.1875 
Q 21.34375 51.125 25.703125 53.5625 
Q 30.078125 56 35.796875 56 
Q 45.21875 56 50.046875 50.171875 
Q 54.890625 44.34375 54.890625 33.015625 
z
" id="DejaVuSans-110"/>
       <path d="M 8.015625 75.875 
L 15.828125 75.875 
Q 23.140625 64.359375 26.78125 53.3125 
Q 30.421875 42.28125 30.421875 31.390625 
Q 30.421875 20.453125 26.78125 9.375 
Q 23.140625 -1.703125 15.828125 -13.1875 
L 8.015625 -13.1875 
Q 14.5 -2 17.703125 9.0625 
Q 20.90625 20.125 20.90625 31.390625 
Q 20.90625 42.671875 17.703125 53.65625 
Q 14.5 64.65625 8.015625 75.875 
z
" id="DejaVuSans-41"/>
      </defs>
      <use xlink:href="#DejaVuSans-108"/>
      <use x="27.783203" xlink:href="#DejaVuSans-111"/>
      <use x="88.964844" xlink:href="#DejaVuSans-103"/>
      <use x="152.441406" xlink:href="#DejaVuSans-49"/>
      <use x="216.064453" xlink:href="#DejaVuSans-48"/>
      <use x="279.6875" xlink:href="#DejaVuSans-40"/>
      <use x="318.701172" xlink:href="#DejaVuSans-35"/>
      <use x="402.490234" xlink:href="#DejaVuSans-32"/>
      <use x="434.277344" xlink:href="#DejaVuSans-102"/>
      <use x="463.982422" xlink:href="#DejaVuSans-45"/>
      <use x="500.066406" xlink:href="#DejaVuSans-101"/>
      <use x="561.589844" xlink:href="#DejaVuSans-118"/>
      <use x="620.769531" xlink:href="#DejaVuSans-97"/>
      <use x="682.048828" xlink:href="#DejaVuSans-108"/>
      <use x="709.832031" xlink:href="#DejaVuSans-115"/>
      <use x="761.931641" xlink:href="#DejaVuSans-32"/>
      <use x="793.71875" xlink:href="#DejaVuSans-47"/>
      <use x="827.410156" xlink:href="#DejaVuSans-32"/>
      <use x="859.197266" xlink:href="#DejaVuSans-100"/>
      <use x="922.673828" xlink:href="#DejaVuSans-105"/>
      <use x="950.457031" xlink:href="#DejaVuSans-109"/>
      <use x="1047.869141" xlink:href="#DejaVuSans-101"/>
      <use x="1109.392578" xlink:href="#DejaVuSans-110"/>
      <use x="1172.771484" xlink:href="#DejaVuSans-115"/>
      <use x="1224.871094" xlink:href="#DejaVuSans-105"/>
      <use x="1252.654297" xlink:href="#DejaVuSans-111"/>
      <use x="1313.835938" xlink:href="#DejaVuSans-110"/>
      <use x="1377.214844" xlink:href="#DejaVuSans-41"/>
     </g>
    </g>
   </g>
   <g id="matplotlib.axis_2">
    <g id="ytick_1">
     <g id="line2d_21">
      <path clip-path="url(#paabdcbb48f)" d="M 57.6 298.944 
L 338.688 298.944 
" style="fill:none;stroke:#b0b0b0;stroke-linecap:square;stroke-width:0.8;"/>
     </g>
     <g id="line2d_22">
      <defs>
       <path d="M 0 0 
L -3.5 0 
" id="mde9484e0be" style="stroke:#000000;stroke-width:0.8;"/>
      </defs>
      <g>
       <use style="stroke:#000000;stroke-width:0.8;" x="57.6" xlink:href="#mde9484e0be" y="298.944"/>
      </g>
     </g>
     <g id="text_6">
      <!-- 0.0 -->
      <g transform="translate(25.155 305.02275)scale(0.16 -0.16)">
       <defs>
        <path d="M 10.6875 12.40625 
L 21 12.40625 
L 21 0 
L 10.6875 0 
z
" id="DejaVuSans-46"/>
       </defs>
       <use xlink:href="#DejaVuSans-48"/>
       <use x="63.623047" xlink:href="#DejaVuSans-46"/>
       <use x="95.410156" xlink:href="#DejaVuSans-48"/>
      </g>
     </g>
    </g>
    <g id="ytick_2">
     <g id="line2d_23">
      <path clip-path="url(#paabdcbb48f)" d="M 57.6 245.22202 
L 338.688 245.22202 
" style="fill:none;stroke:#b0b0b0;stroke-linecap:square;stroke-width:0.8;"/>
     </g>
     <g id="line2d_24">
      <g>
       <use style="stroke:#000000;stroke-width:0.8;" x="57.6" xlink:href="#mde9484e0be" y="245.22202"/>
      </g>
     </g>
     <g id="text_7">
      <!-- 0.2 -->
      <g transform="translate(25.155 251.30077)scale(0.16 -0.16)">
       <use xlink:href="#DejaVuSans-48"/>
       <use x="63.623047" xlink:href="#DejaVuSans-46"/>
       <use x="95.410156" xlink:href="#DejaVuSans-50"/>
      </g>
     </g>
    </g>
    <g id="ytick_3">
     <g id="line2d_25">
      <path clip-path="url(#paabdcbb48f)" d="M 57.6 191.50004 
L 338.688 191.50004 
" style="fill:none;stroke:#b0b0b0;stroke-linecap:square;stroke-width:0.8;"/>
     </g>
     <g id="line2d_26">
      <g>
       <use style="stroke:#000000;stroke-width:0.8;" x="57.6" xlink:href="#mde9484e0be" y="191.50004"/>
      </g>
     </g>
     <g id="text_8">
      <!-- 0.4 -->
      <g transform="translate(25.155 197.57879)scale(0.16 -0.16)">
       <use xlink:href="#DejaVuSans-48"/>
       <use x="63.623047" xlink:href="#DejaVuSans-46"/>
       <use x="95.410156" xlink:href="#DejaVuSans-52"/>
      </g>
     </g>
    </g>
    <g id="ytick_4">
     <g id="line2d_27">
      <path clip-path="url(#paabdcbb48f)" d="M 57.6 137.778059 
L 338.688 137.778059 
" style="fill:none;stroke:#b0b0b0;stroke-linecap:square;stroke-width:0.8;"/>
     </g>
     <g id="line2d_28">
      <g>
       <use style="stroke:#000000;stroke-width:0.8;" x="57.6" xlink:href="#mde9484e0be" y="137.778059"/>
      </g>
     </g>
     <g id="text_9">
      <!-- 0.6 -->
      <g transform="translate(25.155 143.856809)scale(0.16 -0.16)">
       <use xlink:href="#DejaVuSans-48"/>
       <use x="63.623047" xlink:href="#DejaVuSans-46"/>
       <use x="95.410156" xlink:href="#DejaVuSans-54"/>
      </g>
     </g>
    </g>
    <g id="ytick_5">
     <g id="line2d_29">
      <path clip-path="url(#paabdcbb48f)" d="M 57.6 84.056079 
L 338.688 84.056079 
" style="fill:none;stroke:#b0b0b0;stroke-linecap:square;stroke-width:0.8;"/>
     </g>
     <g id="line2d_30">
      <g>
       <use style="stroke:#000000;stroke-width:0.8;" x="57.6" xlink:href="#mde9484e0be" y="84.056079"/>
      </g>
     </g>
     <g id="text_10">
      <!-- 0.8 -->
      <g transform="translate(25.155 90.134829)scale(0.16 -0.16)">
       <defs>
        <path d="M 31.78125 34.625 
Q 24.75 34.625 20.71875 30.859375 
Q 16.703125 27.09375 16.703125 20.515625 
Q 16.703125 13.921875 20.71875 10.15625 
Q 24.75 6.390625 31.78125 6.390625 
Q 38.8125 6.390625 42.859375 10.171875 
Q 46.921875 13.96875 46.921875 20.515625 
Q 46.921875 27.09375 42.890625 30.859375 
Q 38.875 34.625 31.78125 34.625 
z
M 21.921875 38.8125 
Q 15.578125 40.375 12.03125 44.71875 
Q 8.5 49.078125 8.5 55.328125 
Q 8.5 64.0625 14.71875 69.140625 
Q 20.953125 74.21875 31.78125 74.21875 
Q 42.671875 74.21875 48.875 69.140625 
Q 55.078125 64.0625 55.078125 55.328125 
Q 55.078125 49.078125 51.53125 44.71875 
Q 48 40.375 41.703125 38.8125 
Q 48.828125 37.15625 52.796875 32.3125 
Q 56.78125 27.484375 56.78125 20.515625 
Q 56.78125 9.90625 50.3125 4.234375 
Q 43.84375 -1.421875 31.78125 -1.421875 
Q 19.734375 -1.421875 13.25 4.234375 
Q 6.78125 9.90625 6.78125 20.515625 
Q 6.78125 27.484375 10.78125 32.3125 
Q 14.796875 37.15625 21.921875 38.8125 
z
M 18.3125 54.390625 
Q 18.3125 48.734375 21.84375 45.5625 
Q 25.390625 42.390625 31.78125 42.390625 
Q 38.140625 42.390625 41.71875 45.5625 
Q 45.3125 48.734375 45.3125 54.390625 
Q 45.3125 60.0625 41.71875 63.234375 
Q 38.140625 66.40625 31.78125 66.40625 
Q 25.390625 66.40625 21.84375 63.234375 
Q 18.3125 60.0625 18.3125 54.390625 
z
" id="DejaVuSans-56"/>
       </defs>
       <use xlink:href="#DejaVuSans-48"/>
       <use x="63.623047" xlink:href="#DejaVuSans-46"/>
       <use x="95.410156" xlink:href="#DejaVuSans-56"/>
      </g>
     </g>
    </g>
    <g id="ytick_6">
     <g id="line2d_31">
      <path clip-path="url(#paabdcbb48f)" d="M 57.6 30.334099 
L 338.688 30.334099 
" style="fill:none;stroke:#b0b0b0;stroke-linecap:square;stroke-width:0.8;"/>
     </g>
     <g id="line2d_32">
      <g>
       <use style="stroke:#000000;stroke-width:0.8;" x="57.6" xlink:href="#mde9484e0be" y="30.334099"/>
      </g>
     </g>
     <g id="text_11">
      <!-- 1.0 -->
      <g transform="translate(25.155 36.412849)scale(0.16 -0.16)">
       <use xlink:href="#DejaVuSans-49"/>
       <use x="63.623047" xlink:href="#DejaVuSans-46"/>
       <use x="95.410156" xlink:href="#DejaVuSans-48"/>
      </g>
     </g>
    </g>
    <g id="text_12">
     <!-- Fraction of function,target pairs -->
     <g transform="translate(17.619531 297.681)rotate(-90)scale(0.17 -0.17)">
      <defs>
       <path d="M 9.8125 72.90625 
L 51.703125 72.90625 
L 51.703125 64.59375 
L 19.671875 64.59375 
L 19.671875 43.109375 
L 48.578125 43.109375 
L 48.578125 34.8125 
L 19.671875 34.8125 
L 19.671875 0 
L 9.8125 0 
z
" id="DejaVuSans-70"/>
       <path d="M 41.109375 46.296875 
Q 39.59375 47.171875 37.8125 47.578125 
Q 36.03125 48 33.890625 48 
Q 26.265625 48 22.1875 43.046875 
Q 18.109375 38.09375 18.109375 28.8125 
L 18.109375 0 
L 9.078125 0 
L 9.078125 54.6875 
L 18.109375 54.6875 
L 18.109375 46.1875 
Q 20.953125 51.171875 25.484375 53.578125 
Q 30.03125 56 36.53125 56 
Q 37.453125 56 38.578125 55.875 
Q 39.703125 55.765625 41.0625 55.515625 
z
" id="DejaVuSans-114"/>
       <path d="M 48.78125 52.59375 
L 48.78125 44.1875 
Q 44.96875 46.296875 41.140625 47.34375 
Q 37.3125 48.390625 33.40625 48.390625 
Q 24.65625 48.390625 19.8125 42.84375 
Q 14.984375 37.3125 14.984375 27.296875 
Q 14.984375 17.28125 19.8125 11.734375 
Q 24.65625 6.203125 33.40625 6.203125 
Q 37.3125 6.203125 41.140625 7.25 
Q 44.96875 8.296875 48.78125 10.40625 
L 48.78125 2.09375 
Q 45.015625 0.34375 40.984375 -0.53125 
Q 36.96875 -1.421875 32.421875 -1.421875 
Q 20.0625 -1.421875 12.78125 6.34375 
Q 5.515625 14.109375 5.515625 27.296875 
Q 5.515625 40.671875 12.859375 48.328125 
Q 20.21875 56 33.015625 56 
Q 37.15625 56 41.109375 55.140625 
Q 45.0625 54.296875 48.78125 52.59375 
z
" id="DejaVuSans-99"/>
       <path d="M 18.3125 70.21875 
L 18.3125 54.6875 
L 36.8125 54.6875 
L 36.8125 47.703125 
L 18.3125 47.703125 
L 18.3125 18.015625 
Q 18.3125 11.328125 20.140625 9.421875 
Q 21.96875 7.515625 27.59375 7.515625 
L 36.8125 7.515625 
L 36.8125 0 
L 27.59375 0 
Q 17.1875 0 13.234375 3.875 
Q 9.28125 7.765625 9.28125 18.015625 
L 9.28125 47.703125 
L 2.6875 47.703125 
L 2.6875 54.6875 
L 9.28125 54.6875 
L 9.28125 70.21875 
z
" id="DejaVuSans-116"/>
       <path d="M 8.5 21.578125 
L 8.5 54.6875 
L 17.484375 54.6875 
L 17.484375 21.921875 
Q 17.484375 14.15625 20.5 10.265625 
Q 23.53125 6.390625 29.59375 6.390625 
Q 36.859375 6.390625 41.078125 11.03125 
Q 45.3125 15.671875 45.3125 23.6875 
L 45.3125 54.6875 
L 54.296875 54.6875 
L 54.296875 0 
L 45.3125 0 
L 45.3125 8.40625 
Q 42.046875 3.421875 37.71875 1 
Q 33.40625 -1.421875 27.6875 -1.421875 
Q 18.265625 -1.421875 13.375 4.4375 
Q 8.5 10.296875 8.5 21.578125 
z
M 31.109375 56 
z
" id="DejaVuSans-117"/>
       <path d="M 11.71875 12.40625 
L 22.015625 12.40625 
L 22.015625 4 
L 14.015625 -11.625 
L 7.71875 -11.625 
L 11.71875 4 
z
" id="DejaVuSans-44"/>
       <path d="M 18.109375 8.203125 
L 18.109375 -20.796875 
L 9.078125 -20.796875 
L 9.078125 54.6875 
L 18.109375 54.6875 
L 18.109375 46.390625 
Q 20.953125 51.265625 25.265625 53.625 
Q 29.59375 56 35.59375 56 
Q 45.5625 56 51.78125 48.09375 
Q 58.015625 40.1875 58.015625 27.296875 
Q 58.015625 14.40625 51.78125 6.484375 
Q 45.5625 -1.421875 35.59375 -1.421875 
Q 29.59375 -1.421875 25.265625 0.953125 
Q 20.953125 3.328125 18.109375 8.203125 
z
M 48.6875 27.296875 
Q 48.6875 37.203125 44.609375 42.84375 
Q 40.53125 48.484375 33.40625 48.484375 
Q 26.265625 48.484375 22.1875 42.84375 
Q 18.109375 37.203125 18.109375 27.296875 
Q 18.109375 17.390625 22.1875 11.75 
Q 26.265625 6.109375 33.40625 6.109375 
Q 40.53125 6.109375 44.609375 11.75 
Q 48.6875 17.390625 48.6875 27.296875 
z
" id="DejaVuSans-112"/>
      </defs>
      <use xlink:href="#DejaVuSans-70"/>
      <use x="50.269531" xlink:href="#DejaVuSans-114"/>
      <use x="91.382812" xlink:href="#DejaVuSans-97"/>
      <use x="152.662109" xlink:href="#DejaVuSans-99"/>
      <use x="207.642578" xlink:href="#DejaVuSans-116"/>
      <use x="246.851562" xlink:href="#DejaVuSans-105"/>
      <use x="274.634766" xlink:href="#DejaVuSans-111"/>
      <use x="335.816406" xlink:href="#DejaVuSans-110"/>
      <use x="399.195312" xlink:href="#DejaVuSans-32"/>
      <use x="430.982422" xlink:href="#DejaVuSans-111"/>
      <use x="492.164062" xlink:href="#DejaVuSans-102"/>
      <use x="527.369141" xlink:href="#DejaVuSans-32"/>
      <use x="559.15625" xlink:href="#DejaVuSans-102"/>
      <use x="594.361328" xlink:href="#DejaVuSans-117"/>
      <use x="657.740234" xlink:href="#DejaVuSans-110"/>
      <use x="721.119141" xlink:href="#DejaVuSans-99"/>
      <use x="776.099609" xlink:href="#DejaVuSans-116"/>
      <use x="815.308594" xlink:href="#DejaVuSans-105"/>
      <use x="843.091797" xlink:href="#DejaVuSans-111"/>
      <use x="904.273438" xlink:href="#DejaVuSans-110"/>
      <use x="967.652344" xlink:href="#DejaVuSans-44"/>
      <use x="999.439453" xlink:href="#DejaVuSans-116"/>
      <use x="1038.648438" xlink:href="#DejaVuSans-97"/>
      <use x="1099.927734" xlink:href="#DejaVuSans-114"/>
      <use x="1139.291016" xlink:href="#DejaVuSans-103"/>
      <use x="1202.767578" xlink:href="#DejaVuSans-101"/>
      <use x="1264.291016" xlink:href="#DejaVuSans-116"/>
      <use x="1303.5" xlink:href="#DejaVuSans-32"/>
      <use x="1335.287109" xlink:href="#DejaVuSans-112"/>
      <use x="1398.763672" xlink:href="#DejaVuSans-97"/>
      <use x="1460.042969" xlink:href="#DejaVuSans-105"/>
      <use x="1487.826172" xlink:href="#DejaVuSans-114"/>
      <use x="1528.939453" xlink:href="#DejaVuSans-115"/>
     </g>
    </g>
   </g>
   <g id="line2d_33">
    <defs>
     <path d="M 0 1.5 
C 0.397805 1.5 0.77937 1.341951 1.06066 1.06066 
C 1.341951 0.77937 1.5 0.397805 1.5 0 
C 1.5 -0.397805 1.341951 -0.77937 1.06066 -1.06066 
C 0.77937 -1.341951 0.397805 -1.5 0 -1.5 
C -0.397805 -1.5 -0.77937 -1.341951 -1.06066 -1.06066 
C -1.341951 -0.77937 -1.5 -0.397805 -1.5 0 
C -1.5 0.397805 -1.341951 0.77937 -1.06066 1.06066 
C -0.77937 1.341951 -0.397805 1.5 0 1.5 
z
" id="m3262223b75" style="stroke:#f5deb3;"/>
    </defs>
    <g>
     <use style="fill:#f5deb3;stroke:#f5deb3;" x="254.53618" xlink:href="#m3262223b75" y="62.752535"/>
     <use style="fill:#f5deb3;stroke:#f5deb3;" x="254.53618" xlink:href="#m3262223b75" y="62.752535"/>
    </g>
   </g>
   <g id="line2d_34">
    <defs>
     <path d="M 0 1.5 
C 0.397805 1.5 0.77937 1.341951 1.06066 1.06066 
C 1.341951 0.77937 1.5 0.397805 1.5 0 
C 1.5 -0.397805 1.341951 -0.77937 1.06066 -1.06066 
C 0.77937 -1.341951 0.397805 -1.5 0 -1.5 
C -0.397805 -1.5 -0.77937 -1.341951 -1.06066 -1.06066 
C -1.341951 -0.77937 -1.5 -0.397805 -1.5 0 
C -1.5 0.397805 -1.341951 0.77937 -1.06066 1.06066 
C -0.77937 1.341951 -0.397805 1.5 0 1.5 
z
" id="m49b9e7c9b4" style="stroke:#000080;"/>
    </defs>
    <g>
     <use style="fill:#000080;stroke:#000080;" x="255.593021" xlink:href="#m49b9e7c9b4" y="122.495082"/>
     <use style="fill:#000080;stroke:#000080;" x="255.593021" xlink:href="#m49b9e7c9b4" y="122.495082"/>
    </g>
   </g>
   <g id="line2d_35">
    <path d="M 45.512012 298.944 
L 45.512012 295.702156 
L 57.6 295.702156 
L 57.6 293.386554 
L 64.67102 293.386554 
L 64.67102 289.218469 
L 69.687988 289.218469 
L 69.687988 288.755349 
L 76.759008 288.755349 
L 76.759008 287.829108 
L 79.447285 287.829108 
L 79.447285 284.124143 
L 81.775977 284.124143 
L 81.775977 282.734782 
L 83.830028 282.734782 
L 83.830028 281.808541 
L 87.329581 281.808541 
L 87.329581 281.34542 
L 88.846997 281.34542 
L 88.846997 277.640456 
L 90.242884 277.640456 
L 90.242884 277.177336 
L 92.73846 277.177336 
L 92.73846 276.714215 
L 95.918017 276.714215 
L 95.918017 276.251095 
L 101.646892 276.251095 
L 101.646892 275.787974 
L 109.401893 275.787974 
L 109.401893 275.324854 
L 110.694282 275.324854 
L 110.694282 274.861733 
L 111.505558 274.861733 
L 111.505558 274.398612 
L 114.418861 274.398612 
L 114.418861 272.54613 
L 116.914437 272.54613 
L 116.914437 272.08301 
L 117.765302 272.08301 
L 117.765302 271.156769 
L 118.310324 271.156769 
L 118.310324 270.230528 
L 120.093994 270.230528 
L 120.093994 269.304287 
L 121.264855 269.304287 
L 121.264855 268.378046 
L 122.782271 268.378046 
L 122.782271 267.914925 
L 122.988655 267.914925 
L 122.988655 267.451805 
L 123.593547 267.451805 
L 123.593547 266.525564 
L 125.470548 266.525564 
L 125.470548 265.599323 
L 128.260216 265.599323 
L 128.260216 264.209961 
L 128.411207 264.209961 
L 128.411207 263.746841 
L 128.856489 263.746841 
L 128.856489 263.28372 
L 133.46572 263.28372 
L 133.46572 261.894358 
L 133.689303 261.894358 
L 133.689303 260.968117 
L 133.910056 260.968117 
L 133.910056 260.504997 
L 139.887228 260.504997 
L 139.887228 260.041876 
L 140.042245 260.041876 
L 140.042245 259.578756 
L 140.64889 259.578756 
L 140.64889 258.652515 
L 141.662245 258.652515 
L 141.662245 258.189394 
L 142.486301 258.189394 
L 142.486301 257.726274 
L 142.752555 257.726274 
L 142.752555 257.263153 
L 143.079756 257.263153 
L 143.079756 254.947551 
L 143.840863 254.947551 
L 143.840863 254.02131 
L 144.209312 254.02131 
L 144.209312 253.558189 
L 145.497361 253.558189 
L 145.497361 252.631948 
L 147.113265 252.631948 
L 147.113265 252.168828 
L 147.769524 252.168828 
L 147.769524 251.705707 
L 149.955193 251.705707 
L 149.955193 251.242587 
L 150.38688 251.242587 
L 150.38688 250.316346 
L 150.724698 250.316346 
L 150.724698 249.390104 
L 152.699575 249.390104 
L 152.699575 248.000743 
L 154.167129 248.000743 
L 154.167129 247.537622 
L 155.329071 247.537622 
L 155.329071 246.611381 
L 160.297798 246.611381 
L 160.346039 244.295779 
L 162.346481 244.295779 
L 162.346481 242.906417 
L 162.474869 242.906417 
L 162.496175 241.517056 
L 162.999872 241.517056 
L 162.999872 241.053935 
L 163.428979 241.053935 
L 163.428979 240.127694 
L 164.991751 240.127694 
L 164.991751 239.201453 
L 165.714726 239.201453 
L 165.714726 238.275212 
L 167.010909 238.275212 
L 167.010909 237.348971 
L 167.672117 237.348971 
L 167.672117 236.42273 
L 168.641643 236.42273 
L 168.641643 235.959609 
L 168.760989 235.959609 
L 168.760989 234.570248 
L 168.982583 234.570248 
L 168.982583 234.107127 
L 169.813865 234.107127 
L 169.813865 231.791525 
L 171.796233 231.791525 
L 171.796233 229.475922 
L 172.434028 229.475922 
L 172.434028 229.012802 
L 173.710926 229.012802 
L 173.710926 228.086561 
L 173.855836 228.086561 
L 173.855836 227.62344 
L 174.391462 227.62344 
L 174.391462 226.697199 
L 175.129186 226.697199 
L 175.129186 225.307837 
L 175.93577 225.307837 
L 175.93577 224.844717 
L 177.79386 224.844717 
L 177.79386 224.381596 
L 177.996389 224.381596 
L 177.996389 223.455355 
L 178.231177 223.455355 
L 178.231177 222.529114 
L 178.883902 222.529114 
L 178.883902 221.602873 
L 179.343721 221.602873 
L 179.343721 219.750391 
L 180.120337 219.750391 
L 180.120337 218.82415 
L 182.594715 218.82415 
L 182.594715 217.897909 
L 183.765139 217.897909 
L 183.765139 216.971668 
L 185.003089 216.971668 
L 185.003089 216.045427 
L 185.488347 216.045427 
L 185.533866 215.119186 
L 185.943825 215.119186 
L 185.943825 214.192945 
L 186.246454 214.192945 
L 186.246454 213.729825 
L 186.538558 213.729825 
L 186.538558 212.803583 
L 188.884005 212.803583 
L 188.884005 211.877342 
L 190.136826 211.877342 
L 190.136826 210.951101 
L 190.319165 210.951101 
L 190.319165 210.487981 
L 190.46539 210.487981 
L 190.46539 209.098619 
L 190.938577 209.098619 
L 191.013442 207.709258 
L 191.215627 207.709258 
L 191.215627 207.246137 
L 192.115067 207.246137 
L 192.22382 205.393655 
L 193.828138 205.393655 
L 193.828138 204.467414 
L 194.773262 204.467414 
L 194.773262 204.004294 
L 195.720557 204.004294 
L 195.720557 203.078053 
L 195.849983 203.078053 
L 195.919037 201.688691 
L 195.962839 201.688691 
L 195.962839 200.76245 
L 196.349123 200.76245 
L 196.349123 200.299329 
L 196.685116 200.299329 
L 196.685116 199.836209 
L 196.858138 199.836209 
L 196.858138 197.983727 
L 197.254335 197.983727 
L 197.254335 197.520606 
L 197.58488 197.520606 
L 197.65308 195.668124 
L 198.006818 195.668124 
L 198.006818 194.741883 
L 198.597018 194.741883 
L 198.597018 194.278763 
L 199.325788 194.278763 
L 199.325788 193.352522 
L 199.505233 193.352522 
L 199.505233 192.889401 
L 200.640618 192.889401 
L 200.640618 191.96316 
L 200.885026 191.96316 
L 200.885026 191.036919 
L 201.030511 191.036919 
L 201.030511 190.110678 
L 201.20952 190.110678 
L 201.20952 189.184437 
L 201.771649 189.184437 
L 201.771649 188.721316 
L 202.159229 188.721316 
L 202.167988 187.795075 
L 202.480419 187.795075 
L 202.480419 187.331955 
L 202.640954 187.331955 
L 202.640954 186.405714 
L 202.856936 186.405714 
L 202.924148 185.479473 
L 203.026566 185.479473 
L 203.026566 185.016352 
L 203.194562 185.016352 
L 203.287198 183.626991 
L 204.298252 183.626991 
L 204.298252 183.16387 
L 204.774133 183.16387 
L 204.81368 181.774509 
L 204.982158 181.774509 
L 204.982158 181.311388 
L 205.584551 181.311388 
L 205.584551 179.922027 
L 206.048063 179.922027 
L 206.083078 178.995786 
L 206.491033 178.995786 
L 206.501282 177.606424 
L 206.95467 177.606424 
L 206.95467 176.680183 
L 207.149894 176.680183 
L 207.16305 174.827701 
L 207.74983 174.827701 
L 207.74983 174.36458 
L 208.033632 174.36458 
L 208.033632 173.90146 
L 208.26357 173.90146 
L 208.363606 172.512098 
L 208.828479 172.512098 
L 208.828479 171.585857 
L 209.130671 171.585857 
L 209.151219 170.659616 
L 209.84569 170.659616 
L 209.84569 170.196496 
L 210.235972 170.196496 
L 210.235972 169.270255 
L 210.386938 169.270255 
L 210.386938 168.807134 
L 210.532544 168.807134 
L 210.573151 167.880893 
L 210.955595 167.880893 
L 210.955595 166.954652 
L 211.682256 166.954652 
L 211.779672 166.028411 
L 212.071178 166.028411 
L 212.170152 163.249688 
L 212.370091 163.249688 
L 212.399338 161.860326 
L 212.980082 161.860326 
L 212.980082 161.397206 
L 213.267414 161.397206 
L 213.267414 160.934085 
L 213.481566 160.934085 
L 213.493005 160.007844 
L 213.635367 160.007844 
L 213.635367 159.544724 
L 213.97793 159.544724 
L 213.97793 159.081603 
L 214.241741 159.081603 
L 214.241741 158.155362 
L 214.547967 158.155362 
L 214.581305 156.30288 
L 214.690549 156.30288 
L 214.690549 155.376639 
L 215.325842 155.376639 
L 215.325842 154.913519 
L 215.989419 154.913519 
L 215.989419 154.450398 
L 216.162975 154.450398 
L 216.164938 153.524157 
L 216.458745 153.524157 
L 216.458745 153.061037 
L 216.880022 153.061037 
L 216.957071 152.134795 
L 217.211161 152.134795 
L 217.211161 151.208554 
L 218.104478 151.208554 
L 218.180684 150.282313 
L 218.37278 150.282313 
L 218.37278 149.819193 
L 218.789607 149.819193 
L 218.789607 149.356072 
L 219.691762 149.356072 
L 219.73019 148.429831 
L 219.852119 148.429831 
L 219.852119 147.966711 
L 220.499868 147.966711 
L 220.499868 147.50359 
L 221.36126 147.50359 
L 221.36126 146.577349 
L 221.612887 146.577349 
L 221.612887 146.114229 
L 222.348753 146.114229 
L 222.348753 145.651108 
L 222.835349 145.651108 
L 222.835349 145.187988 
L 223.295703 145.187988 
L 223.352971 143.798626 
L 223.663348 143.798626 
L 223.744217 142.872385 
L 224.019026 142.872385 
L 224.019026 141.946144 
L 224.378012 141.946144 
L 224.378012 141.019903 
L 225.181934 141.019903 
L 225.181934 140.093662 
L 225.3774 140.093662 
L 225.3774 139.167421 
L 225.619831 139.167421 
L 225.619831 138.7043 
L 225.845428 138.7043 
L 225.845428 138.24118 
L 226.618186 138.24118 
L 226.618186 137.778059 
L 226.913606 137.778059 
L 226.913606 137.314939 
L 227.147228 137.314939 
L 227.147228 136.851818 
L 227.510845 136.851818 
L 227.510845 136.388698 
L 227.652571 136.388698 
L 227.652571 135.925577 
L 227.835912 135.925577 
L 227.835912 135.462457 
L 229.823853 135.462457 
L 229.823853 134.999336 
L 230.021327 134.999336 
L 230.021327 134.536216 
L 230.516436 134.536216 
L 230.516436 133.609975 
L 230.722876 133.609975 
L 230.722876 132.683734 
L 231.040155 132.683734 
L 231.040155 131.757493 
L 231.304058 131.757493 
L 231.308176 130.368131 
L 231.853331 130.368131 
L 231.962725 128.97877 
L 232.165764 128.97877 
L 232.165764 128.052529 
L 233.039163 128.052529 
L 233.039163 127.589408 
L 234.502 127.589408 
L 234.502 127.126287 
L 235.242323 127.126287 
L 235.242323 126.200046 
L 238.219127 126.200046 
L 238.219127 125.736926 
L 238.619758 125.736926 
L 238.619758 125.273805 
L 239.179464 125.273805 
L 239.179464 124.810685 
L 240.035334 124.810685 
L 240.035334 123.884444 
L 248.505678 123.884444 
L 248.505678 122.958203 
L 255.593021 122.958203 
L 255.593021 122.495082 
L 338.688 122.495082 
L 338.688 122.495082 
" style="fill:none;stroke:#000080;stroke-linecap:square;stroke-width:1.5;"/>
   </g>
   <g id="line2d_36">
    <defs>
     <path d="M 0 6 
C 1.591219 6 3.117479 5.367802 4.242641 4.242641 
C 5.367802 3.117479 6 1.591219 6 0 
C 6 -1.591219 5.367802 -3.117479 4.242641 -4.242641 
C 3.117479 -5.367802 1.591219 -6 0 -6 
C -1.591219 -6 -3.117479 -5.367802 -4.242641 -4.242641 
C -5.367802 -3.117479 -6 -1.591219 -6 0 
C -6 1.591219 -5.367802 3.117479 -4.242641 4.242641 
C -3.117479 5.367802 -1.591219 6 0 6 
z
" id="m46eaf9ea96" style="stroke:#000080;stroke-width:1.5;"/>
    </defs>
    <g>
     <use style="fill-opacity:0;stroke:#000080;stroke-width:1.5;" x="95.918017" xlink:href="#m46eaf9ea96" y="276.714215"/>
     <use style="fill-opacity:0;stroke:#000080;stroke-width:1.5;" x="162.346481" xlink:href="#m46eaf9ea96" y="244.295779"/>
     <use style="fill-opacity:0;stroke:#000080;stroke-width:1.5;" x="213.635367" xlink:href="#m46eaf9ea96" y="159.544724"/>
     <use style="fill-opacity:0;stroke:#000080;stroke-width:1.5;" x="255.593021" xlink:href="#m46eaf9ea96" y="122.958203"/>
     <use style="fill-opacity:0;stroke:#000080;stroke-width:1.5;" x="255.593021" xlink:href="#m46eaf9ea96" y="122.495082"/>
     <use style="fill-opacity:0;stroke:#000080;stroke-width:1.5;" x="338.688" xlink:href="#m46eaf9ea96" y="122.495082"/>
    </g>
   </g>
   <g id="line2d_37">
    <path style="fill:none;stroke:#000080;stroke-linecap:square;stroke-width:1.5;"/>
    <g/>
   </g>
   <g id="line2d_38">
    <path clip-path="url(#paabdcbb48f)" d="M 258.377579 122.495082 
" style="fill:none;stroke:#000080;stroke-linecap:square;stroke-width:1.5;"/>
    <defs>
     <path d="M -12 12 
L 12 -12 
M -12 -12 
L 12 12 
" id="m724a7e47c6" style="stroke:#000080;"/>
    </defs>
    <g clip-path="url(#paabdcbb48f)">
     <use style="fill:#000080;stroke:#000080;" x="258.377579" xlink:href="#m724a7e47c6" y="122.495082"/>
    </g>
   </g>
   <g id="line2d_39">
    <defs>
     <path d="M 0 1.5 
C 0.397805 1.5 0.77937 1.341951 1.06066 1.06066 
C 1.341951 0.77937 1.5 0.397805 1.5 0 
C 1.5 -0.397805 1.341951 -0.77937 1.06066 -1.06066 
C 0.77937 -1.341951 0.397805 -1.5 0 -1.5 
C -0.397805 -1.5 -0.77937 -1.341951 -1.06066 -1.06066 
C -1.341951 -0.77937 -1.5 -0.397805 -1.5 0 
C -1.5 0.397805 -1.341951 0.77937 -1.06066 1.06066 
C -0.77937 1.341951 -0.397805 1.5 0 1.5 
z
" id="m79f8e3f1b4" style="stroke:#ff00ff;"/>
    </defs>
    <g>
     <use style="fill:#ff00ff;stroke:#ff00ff;" x="258.272631" xlink:href="#m79f8e3f1b4" y="116.937636"/>
     <use style="fill:#ff00ff;stroke:#ff00ff;" x="258.272631" xlink:href="#m79f8e3f1b4" y="116.937636"/>
    </g>
   </g>
   <g id="line2d_40">
    <path d="M 45.512012 298.944 
L 45.512012 294.312795 
L 124.557288 294.312795 
L 124.557288 293.849674 
L 144.806606 293.849674 
L 144.806606 292.460313 
L 145.440832 292.460313 
L 145.440832 291.534072 
L 145.888018 291.534072 
L 145.888018 291.070951 
L 146.161795 291.070951 
L 146.161795 290.607831 
L 146.958248 290.607831 
L 146.958248 290.14471 
L 147.164632 290.14471 
L 147.164632 289.68159 
L 150.51433 289.68159 
L 150.51433 289.218469 
L 150.640855 289.218469 
L 150.640855 288.755349 
L 151.13797 288.755349 
L 151.13797 287.829108 
L 151.461678 287.829108 
L 151.461678 287.365987 
L 151.581536 287.365987 
L 151.581536 286.902867 
L 152.168773 286.902867 
L 152.168773 286.439746 
L 152.322086 286.439746 
L 152.322086 285.050384 
L 152.624728 285.050384 
L 152.624728 284.587264 
L 152.736878 284.587264 
L 152.736878 282.734782 
L 153.105587 282.734782 
L 153.214697 281.34542 
L 153.395042 281.34542 
L 153.430889 277.640456 
L 154.063835 277.640456 
L 154.063835 275.787974 
L 154.235652 275.787974 
L 154.235652 275.324854 
L 154.641235 275.324854 
L 154.741174 273.935492 
L 154.906477 273.935492 
L 154.906477 273.472371 
L 155.264719 273.472371 
L 155.264719 273.009251 
L 155.425155 273.009251 
L 155.425155 272.54613 
L 156.083319 272.54613 
L 156.083319 271.619889 
L 156.236431 271.619889 
L 156.236431 271.156769 
L 156.357959 271.156769 
L 156.357959 270.230528 
L 156.628341 270.230528 
L 156.628341 269.767407 
L 157.1279 269.767407 
L 157.1279 269.304287 
L 157.300853 269.304287 
L 157.329512 268.378046 
L 157.443681 268.378046 
L 157.472107 267.451805 
L 157.669802 267.451805 
L 157.697862 264.673082 
L 157.893028 264.673082 
L 157.976006 262.357479 
L 158.412011 262.357479 
L 158.412011 260.504997 
L 158.652556 260.504997 
L 158.652556 260.041876 
L 158.863624 260.041876 
L 158.915995 259.115635 
L 159.380382 259.115635 
L 159.380382 258.652515 
L 159.683242 258.652515 
L 159.758143 257.726274 
L 160.127894 257.726274 
L 160.152267 256.336912 
L 160.321935 256.336912 
L 160.321935 255.873792 
L 160.797798 255.873792 
L 160.797798 255.410671 
L 161.26102 255.410671 
L 161.352206 254.48443 
L 161.933569 254.48443 
L 161.933569 254.02131 
L 162.065021 254.02131 
L 162.065021 253.095069 
L 162.19549 253.095069 
L 162.19549 252.631948 
L 162.453536 252.631948 
L 162.53871 250.316346 
L 162.875305 250.316346 
L 162.9377 248.926984 
L 163.020547 248.926984 
L 163.020547 248.000743 
L 163.489428 248.000743 
L 163.569701 246.148261 
L 164.505216 246.148261 
L 164.580957 243.369538 
L 164.806225 243.369538 
L 164.806225 242.906417 
L 165.047026 242.906417 
L 165.120455 239.664574 
L 165.211808 239.664574 
L 165.211808 238.738333 
L 165.375047 238.738333 
L 165.447111 237.348971 
L 165.625977 237.348971 
L 165.625977 236.88585 
L 165.7501 236.88585 
L 165.7501 235.496489 
L 166.795913 235.496489 
L 166.862349 234.107127 
L 167.207042 234.107127 
L 167.271933 232.717766 
L 167.76681 232.717766 
L 167.76681 231.791525 
L 168.278627 231.791525 
L 168.354881 229.475922 
L 168.701418 229.475922 
L 168.701418 229.012802 
L 169.157854 229.012802 
L 169.157854 228.549681 
L 169.51744 228.549681 
L 169.51744 227.62344 
L 170.008719 227.62344 
L 170.008719 226.697199 
L 171.043158 226.697199 
L 171.043158 225.770958 
L 172.105778 225.770958 
L 172.130306 224.381596 
L 172.470121 224.381596 
L 172.470121 223.455355 
L 172.803442 223.455355 
L 172.803442 222.992235 
L 173.15364 222.992235 
L 173.15364 222.065994 
L 173.474266 222.065994 
L 173.474266 221.602873 
L 173.966492 221.602873 
L 173.966492 221.139753 
L 174.890216 221.139753 
L 174.890216 220.676632 
L 175.354741 220.676632 
L 175.354741 219.750391 
L 175.994786 219.750391 
L 175.994786 219.287271 
L 176.335123 219.287271 
L 176.335123 218.36103 
L 176.819447 218.36103 
L 176.819447 217.434789 
L 177.354379 217.434789 
L 177.354379 216.971668 
L 178.44579 216.971668 
L 178.44579 216.508548 
L 179.497017 216.508548 
L 179.497017 215.582307 
L 179.728427 215.582307 
L 179.728427 215.119186 
L 180.511214 215.119186 
L 180.511214 214.192945 
L 180.692168 214.192945 
L 180.692168 213.266704 
L 181.129191 213.266704 
L 181.129191 212.340463 
L 181.289386 212.340463 
L 181.289386 211.877342 
L 183.241666 211.877342 
L 183.241666 210.951101 
L 183.357928 210.951101 
L 183.357928 210.487981 
L 184.352584 210.487981 
L 184.352584 209.56174 
L 186.169918 209.56174 
L 186.169918 208.635499 
L 186.788874 208.635499 
L 186.788874 207.709258 
L 187.268693 207.709258 
L 187.268693 207.246137 
L 188.166041 207.246137 
L 188.166041 206.783017 
L 188.595589 206.783017 
L 188.595589 206.319896 
L 190.114992 206.319896 
L 190.114992 205.393655 
L 192.473699 205.393655 
L 192.473699 204.930535 
L 193.099743 204.930535 
L 193.099743 204.467414 
L 194.387661 204.467414 
L 194.387661 204.004294 
L 194.669247 204.004294 
L 194.669247 203.541173 
L 196.495213 203.541173 
L 196.495213 203.078053 
L 196.765874 203.078053 
L 196.765874 202.614932 
L 197.175813 202.614932 
L 197.175813 201.688691 
L 197.878506 201.688691 
L 197.878506 200.76245 
L 199.060962 200.76245 
L 199.060962 200.299329 
L 199.863673 200.299329 
L 199.863673 199.373088 
L 201.095818 199.373088 
L 201.095818 198.909968 
L 202.877967 198.909968 
L 202.877967 197.983727 
L 204.255575 197.983727 
L 204.255575 197.057486 
L 206.664442 197.057486 
L 206.664442 194.741883 
L 207.770482 194.741883 
L 207.770482 194.278763 
L 208.704014 194.278763 
L 208.704014 193.815642 
L 209.120388 193.815642 
L 209.120388 192.889401 
L 209.932866 192.889401 
L 209.932866 191.50004 
L 210.182132 191.50004 
L 210.20424 188.721316 
L 210.610966 188.721316 
L 210.623103 187.331955 
L 210.735979 187.331955 
L 210.83082 185.479473 
L 211.197282 185.479473 
L 211.251983 181.774509 
L 211.353119 181.774509 
L 211.389281 180.385147 
L 211.48321 180.385147 
L 211.48321 179.922027 
L 211.641611 179.922027 
L 211.649239 178.995786 
L 212.08234 178.995786 
L 212.08234 178.532665 
L 212.387158 178.532665 
L 212.424888 176.217062 
L 212.73458 176.217062 
L 212.73458 175.753942 
L 213.013026 175.753942 
L 213.013026 174.827701 
L 213.222176 174.827701 
L 213.319467 172.975219 
L 213.64784 172.975219 
L 213.689727 170.659616 
L 213.873069 170.659616 
L 213.873069 169.733375 
L 213.993494 169.733375 
L 214.035669 168.344014 
L 214.285506 168.344014 
L 214.372708 166.954652 
L 214.481101 166.954652 
L 214.544738 166.028411 
L 214.727877 166.028411 
L 214.727877 165.565291 
L 214.989061 165.565291 
L 214.989061 164.63905 
L 215.296993 164.63905 
L 215.296993 164.175929 
L 215.492844 164.175929 
L 215.492844 163.712808 
L 215.784061 163.712808 
L 215.784061 163.249688 
L 215.971572 163.249688 
L 215.971572 162.786567 
L 216.092184 162.786567 
L 216.092184 161.860326 
L 216.66875 161.860326 
L 216.740091 160.934085 
L 219.063442 160.934085 
L 219.063442 160.470965 
L 220.328392 160.470965 
L 220.435474 159.081603 
L 220.687094 159.081603 
L 220.687094 158.618483 
L 220.863341 158.618483 
L 220.863341 157.692242 
L 221.079324 157.692242 
L 221.079324 157.229121 
L 221.204702 157.229121 
L 221.204702 156.766001 
L 221.360532 156.766001 
L 221.408536 154.450398 
L 221.553201 154.450398 
L 221.553201 153.524157 
L 221.895578 153.524157 
L 221.895578 152.134795 
L 222.145932 152.134795 
L 222.145932 151.671675 
L 222.265972 151.671675 
L 222.265972 151.208554 
L 222.596802 151.208554 
L 222.596802 150.745434 
L 223.056144 150.745434 
L 223.056144 150.282313 
L 223.630128 150.282313 
L 223.720059 148.892952 
L 223.943821 148.892952 
L 223.943821 148.429831 
L 224.428174 148.429831 
L 224.465396 147.50359 
L 224.777721 147.50359 
L 224.777721 146.577349 
L 224.950495 146.577349 
L 225.007905 145.651108 
L 225.407455 145.651108 
L 225.407455 144.724867 
L 225.878061 144.724867 
L 225.878061 144.261747 
L 226.378411 144.261747 
L 226.378411 143.335506 
L 227.162379 143.335506 
L 227.162379 142.409265 
L 228.374162 142.409265 
L 228.374162 141.946144 
L 229.772222 141.946144 
L 229.772222 141.483024 
L 230.239368 141.483024 
L 230.239368 140.556783 
L 230.43092 140.556783 
L 230.43092 139.630541 
L 230.932792 139.630541 
L 230.932792 139.167421 
L 231.641349 139.167421 
L 231.666375 138.24118 
L 231.78576 138.24118 
L 231.78576 137.778059 
L 232.47809 137.778059 
L 232.47809 137.314939 
L 234.863334 137.314939 
L 234.863334 136.388698 
L 235.298091 136.388698 
L 235.298091 135.925577 
L 235.95691 135.925577 
L 235.95691 135.462457 
L 237.092052 135.462457 
L 237.092052 134.999336 
L 237.225112 134.999336 
L 237.225112 134.536216 
L 237.453525 134.536216 
L 237.453525 134.073095 
L 237.748848 134.073095 
L 237.748848 133.609975 
L 238.137495 133.609975 
L 238.137495 132.683734 
L 238.82778 132.683734 
L 238.82778 131.757493 
L 239.228159 131.757493 
L 239.228159 131.294372 
L 239.705236 131.294372 
L 239.705236 130.831252 
L 239.907061 130.831252 
L 239.907061 130.368131 
L 241.595175 130.368131 
L 241.595175 129.44189 
L 242.033355 129.44189 
L 242.033355 128.515649 
L 242.299318 128.515649 
L 242.299318 128.052529 
L 242.841281 128.052529 
L 242.841281 127.589408 
L 243.170111 127.589408 
L 243.170111 127.126287 
L 246.394864 127.126287 
L 246.394864 126.663167 
L 246.794646 126.663167 
L 246.794646 126.200046 
L 246.936542 126.200046 
L 246.936542 125.736926 
L 248.169188 125.736926 
L 248.169188 125.273805 
L 248.702526 125.273805 
L 248.702526 124.810685 
L 249.382318 124.810685 
L 249.382318 123.421323 
L 249.620353 123.421323 
L 249.620353 122.495082 
L 250.808838 122.495082 
L 250.808838 122.031962 
L 253.546013 122.031962 
L 253.546013 121.568841 
L 253.970217 121.568841 
L 253.970217 121.105721 
L 254.425957 121.105721 
L 254.425957 120.17948 
L 255.384127 120.17948 
L 255.384127 119.716359 
L 255.878716 119.716359 
L 255.878716 119.253239 
L 256.61755 119.253239 
L 256.61755 118.790118 
L 257.891652 118.790118 
L 257.891652 117.863877 
L 258.272631 117.863877 
L 258.272631 116.937636 
L 338.688 116.937636 
L 338.688 116.937636 
" style="fill:none;stroke:#ff00ff;stroke-linecap:square;stroke-width:1.5;"/>
   </g>
   <g id="line2d_41">
    <defs>
     <path d="M 0 8.485281 
L 5.091169 0 
L 0 -8.485281 
L -5.091169 0 
z
" id="m5f1148506e" style="stroke:#ff00ff;stroke-linejoin:miter;stroke-width:1.5;"/>
    </defs>
    <g>
     <use style="fill-opacity:0;stroke:#ff00ff;stroke-linejoin:miter;stroke-width:1.5;" x="144.806606" xlink:href="#m5f1148506e" y="293.849674"/>
     <use style="fill-opacity:0;stroke:#ff00ff;stroke-linejoin:miter;stroke-width:1.5;" x="175.354741" xlink:href="#m5f1148506e" y="220.676632"/>
     <use style="fill-opacity:0;stroke:#ff00ff;stroke-linejoin:miter;stroke-width:1.5;" x="225.878061" xlink:href="#m5f1148506e" y="144.261747"/>
     <use style="fill-opacity:0;stroke:#ff00ff;stroke-linejoin:miter;stroke-width:1.5;" x="258.272631" xlink:href="#m5f1148506e" y="116.937636"/>
     <use style="fill-opacity:0;stroke:#ff00ff;stroke-linejoin:miter;stroke-width:1.5;" x="258.272631" xlink:href="#m5f1148506e" y="116.937636"/>
     <use style="fill-opacity:0;stroke:#ff00ff;stroke-linejoin:miter;stroke-width:1.5;" x="338.688" xlink:href="#m5f1148506e" y="116.937636"/>
    </g>
   </g>
   <g id="line2d_42">
    <path style="fill:none;stroke:#ff00ff;stroke-linecap:square;stroke-width:1.5;"/>
    <g/>
   </g>
   <g id="line2d_43">
    <path clip-path="url(#paabdcbb48f)" d="M 258.387342 116.937636 
" style="fill:none;stroke:#ff00ff;stroke-linecap:square;stroke-width:1.5;"/>
    <defs>
     <path d="M -12 12 
L 12 -12 
M -12 -12 
L 12 12 
" id="mc2020d973e" style="stroke:#ff00ff;"/>
    </defs>
    <g clip-path="url(#paabdcbb48f)">
     <use style="fill:#ff00ff;stroke:#ff00ff;" x="258.387342" xlink:href="#mc2020d973e" y="116.937636"/>
    </g>
   </g>
   <g id="line2d_44">
    <defs>
     <path d="M 0 1.5 
C 0.397805 1.5 0.77937 1.341951 1.06066 1.06066 
C 1.341951 0.77937 1.5 0.397805 1.5 0 
C 1.5 -0.397805 1.341951 -0.77937 1.06066 -1.06066 
C 0.77937 -1.341951 0.397805 -1.5 0 -1.5 
C -0.397805 -1.5 -0.77937 -1.341951 -1.06066 -1.06066 
C -1.341951 -0.77937 -1.5 -0.397805 -1.5 0 
C -1.5 0.397805 -1.341951 0.77937 -1.06066 1.06066 
C -0.77937 1.341951 -0.397805 1.5 0 1.5 
z
" id="mc0ac13dfd5" style="stroke:#ff7500;"/>
    </defs>
    <g>
     <use style="fill:#ff7500;stroke:#ff7500;" x="258.153009" xlink:href="#mc0ac13dfd5" y="111.38019"/>
     <use style="fill:#ff7500;stroke:#ff7500;" x="258.153009" xlink:href="#mc0ac13dfd5" y="111.38019"/>
    </g>
   </g>
   <g id="line2d_45">
    <path d="M 133.46572 298.944 
L 133.46572 298.017759 
L 142.419098 298.017759 
L 142.419098 297.554638 
L 148.826773 297.554638 
L 148.919783 296.628397 
L 149.15016 296.628397 
L 149.241465 295.239036 
L 149.422654 295.239036 
L 149.422654 293.386554 
L 150.129152 293.386554 
L 150.129152 292.923433 
L 150.891184 292.923433 
L 150.891184 291.997192 
L 151.621307 291.997192 
L 151.621307 291.534072 
L 152.0141 291.534072 
L 152.0141 290.607831 
L 152.549559 290.607831 
L 152.549559 289.68159 
L 152.959038 289.68159 
L 152.959038 287.829108 
L 153.430889 287.829108 
L 153.502361 286.439746 
L 156.327657 286.439746 
L 156.327657 285.513505 
L 156.865211 285.513505 
L 156.894595 284.124143 
L 157.272146 284.124143 
L 157.272146 283.661023 
L 157.472107 283.661023 
L 157.472107 283.197902 
L 158.304027 283.197902 
L 158.304027 281.34542 
L 158.732007 281.34542 
L 158.732007 279.956059 
L 159.226956 279.956059 
L 159.226956 279.029818 
L 159.456591 279.029818 
L 159.456591 278.103577 
L 159.633129 278.103577 
L 159.633129 277.640456 
L 160.176607 277.640456 
L 160.176607 277.177336 
L 160.346039 277.177336 
L 160.346039 276.714215 
L 160.489968 276.714215 
L 160.513841 275.787974 
L 160.727241 275.787974 
L 160.727241 275.324854 
L 160.938061 275.324854 
L 160.938061 274.861733 
L 161.077205 274.861733 
L 161.077205 273.009251 
L 161.215247 273.009251 
L 161.283861 271.619889 
L 161.420284 271.619889 
L 161.420284 271.156769 
L 161.600536 271.156769 
L 161.600536 270.693648 
L 161.734513 270.693648 
L 161.801118 269.304287 
L 161.933569 269.304287 
L 161.933569 267.451805 
L 162.086834 267.451805 
L 162.086834 266.988684 
L 162.854457 266.988684 
L 162.854457 266.525564 
L 162.979172 266.525564 
L 162.999872 265.599323 
L 163.144084 265.599323 
L 163.144084 265.136202 
L 163.266752 265.136202 
L 163.266752 264.673082 
L 163.729146 264.673082 
L 163.788565 263.746841 
L 164.063205 263.746841 
L 164.160252 259.578756 
L 164.637547 259.578756 
L 164.637547 259.115635 
L 164.824867 259.115635 
L 164.824867 258.189394 
L 165.193576 258.189394 
L 165.193576 256.336912 
L 165.393091 256.336912 
L 165.429123 255.410671 
L 166.186323 255.410671 
L 166.186323 254.947551 
L 166.561376 254.947551 
L 166.578233 254.02131 
L 166.695783 254.02131 
L 166.695783 253.095069 
L 166.829163 253.095069 
L 166.829163 252.168828 
L 167.010909 252.168828 
L 167.043752 249.853225 
L 167.923499 249.853225 
L 167.923499 249.390104 
L 168.445948 249.390104 
L 168.445948 248.463863 
L 168.909031 248.463863 
L 168.909031 247.537622 
L 169.201398 247.537622 
L 169.288161 246.148261 
L 170.119095 246.148261 
L 170.174022 244.758899 
L 170.499999 244.758899 
L 170.607318 242.906417 
L 170.620687 242.906417 
L 170.620687 241.053935 
L 170.872762 241.053935 
L 170.872762 240.127694 
L 171.746192 240.127694 
L 171.746192 239.201453 
L 171.895887 239.201453 
L 171.945501 237.812091 
L 172.105778 237.812091 
L 172.167033 234.107127 
L 172.446067 234.107127 
L 172.446067 233.644007 
L 172.732551 233.644007 
L 172.732551 233.180886 
L 172.885786 233.180886 
L 172.885786 232.254645 
L 173.026049 232.254645 
L 173.026049 231.791525 
L 173.55351 231.791525 
L 173.55351 230.865284 
L 173.822502 230.865284 
L 173.933369 229.012802 
L 173.988539 229.012802 
L 173.988539 228.086561 
L 174.774759 228.086561 
L 174.774759 227.16032 
L 174.911127 227.16032 
L 174.911127 226.234079 
L 175.149812 226.234079 
L 175.149812 225.770958 
L 175.597519 225.770958 
L 175.657689 222.992235 
L 175.807212 222.992235 
L 175.807212 222.065994 
L 176.02422 222.065994 
L 176.02422 221.139753 
L 176.335123 221.139753 
L 176.431155 218.82415 
L 176.52666 218.82415 
L 176.52666 218.36103 
L 176.753762 218.36103 
L 176.753762 217.897909 
L 177.299796 217.897909 
L 177.336204 216.045427 
L 177.908622 216.045427 
L 177.934998 214.656066 
L 178.135904 214.656066 
L 178.135904 214.192945 
L 178.282926 214.192945 
L 178.282926 213.729825 
L 178.496907 213.729825 
L 178.556354 211.877342 
L 178.691478 211.877342 
L 178.691478 211.414222 
L 179.049518 211.414222 
L 179.156332 210.02486 
L 179.480944 210.02486 
L 179.488982 208.172378 
L 179.67285 208.172378 
L 179.67285 207.246137 
L 179.956806 207.246137 
L 179.956806 206.783017 
L 180.08154 206.783017 
L 180.08154 205.856776 
L 180.473278 205.856776 
L 180.564187 204.004294 
L 181.085245 204.004294 
L 181.085245 203.078053 
L 181.397773 203.078053 
L 181.397773 202.614932 
L 182.075935 202.614932 
L 182.075935 201.688691 
L 182.344078 201.688691 
L 182.344078 201.225571 
L 182.520577 201.225571 
L 182.520577 200.76245 
L 183.00679 200.76245 
L 183.091972 198.909968 
L 183.600855 198.909968 
L 183.702136 197.983727 
L 183.952795 197.983727 
L 183.952795 197.057486 
L 184.309967 197.057486 
L 184.309967 196.594365 
L 184.624088 196.594365 
L 184.624088 196.131245 
L 185.131492 196.131245 
L 185.131492 195.668124 
L 185.253182 195.668124 
L 185.282031 194.278763 
L 185.899365 194.278763 
L 186.010302 193.352522 
L 186.158957 193.352522 
L 186.158957 192.426281 
L 186.284597 192.426281 
L 186.284597 191.96316 
L 186.414741 191.96316 
L 186.414741 191.036919 
L 186.640183 191.036919 
L 186.640183 190.573799 
L 186.920572 190.573799 
L 186.920572 190.110678 
L 187.222333 190.110678 
L 187.222333 189.647558 
L 187.610002 189.647558 
L 187.710604 187.795075 
L 187.795661 187.795075 
L 187.795661 187.331955 
L 187.919997 187.331955 
L 187.919997 186.868834 
L 188.107306 186.868834 
L 188.170926 185.479473 
L 188.785252 185.479473 
L 188.785252 185.016352 
L 189.451449 185.016352 
L 189.451449 184.553232 
L 189.654522 184.553232 
L 189.69933 183.626991 
L 189.806402 183.626991 
L 189.806402 183.16387 
L 190.084377 183.16387 
L 190.149914 181.774509 
L 190.301882 181.774509 
L 190.301882 180.848268 
L 190.46539 180.848268 
L 190.46539 180.385147 
L 191.054895 180.385147 
L 191.054895 179.922027 
L 191.496419 179.922027 
L 191.496419 178.995786 
L 191.856005 178.995786 
L 191.856005 178.532665 
L 191.97031 178.532665 
L 191.986017 177.606424 
L 192.358815 177.606424 
L 192.358815 176.680183 
L 192.88858 176.680183 
L 192.88858 176.217062 
L 193.586317 176.217062 
L 193.586317 175.753942 
L 193.947803 175.753942 
L 193.947803 175.290821 
L 194.769916 175.290821 
L 194.846705 173.90146 
L 194.936418 173.90146 
L 194.97945 171.122737 
L 195.631613 171.122737 
L 195.631613 170.659616 
L 196.470949 170.659616 
L 196.561763 169.270255 
L 196.712077 169.270255 
L 196.712077 168.807134 
L 197.002986 168.807134 
L 197.002986 168.344014 
L 198.131435 168.344014 
L 198.131435 167.880893 
L 198.709495 167.880893 
L 198.709495 167.417773 
L 199.188684 167.417773 
L 199.188684 166.491532 
L 199.589192 166.491532 
L 199.589192 165.565291 
L 199.876161 165.565291 
L 199.876161 165.10217 
L 200.136361 165.10217 
L 200.239364 163.712808 
L 200.561583 163.712808 
L 200.561583 163.249688 
L 201.184059 163.249688 
L 201.184059 162.786567 
L 201.7268 162.786567 
L 201.7268 162.323447 
L 203.041148 162.323447 
L 203.041148 161.860326 
L 203.221374 161.860326 
L 203.221374 161.397206 
L 203.842861 161.397206 
L 203.842861 160.934085 
L 205.259389 160.934085 
L 205.259389 160.470965 
L 206.26057 160.470965 
L 206.26057 160.007844 
L 206.508111 160.007844 
L 206.508111 159.081603 
L 206.893002 159.081603 
L 206.936359 157.229121 
L 207.690916 157.229121 
L 207.690916 156.766001 
L 208.639181 156.766001 
L 208.639181 156.30288 
L 208.920877 156.30288 
L 208.920877 155.83976 
L 209.590102 155.83976 
L 209.590102 155.376639 
L 210.784132 155.376639 
L 210.784132 154.913519 
L 211.737989 154.913519 
L 211.737989 153.987278 
L 212.263661 153.987278 
L 212.323684 153.061037 
L 212.473452 153.061037 
L 212.473452 152.134795 
L 212.740551 152.134795 
L 212.848866 149.819193 
L 212.932911 149.819193 
L 212.949435 148.892952 
L 213.737153 148.892952 
L 213.737153 147.966711 
L 214.171487 147.966711 
L 214.171487 147.50359 
L 215.378266 147.50359 
L 215.42951 146.114229 
L 215.843125 146.114229 
L 215.843125 145.187988 
L 216.683041 145.187988 
L 216.683041 144.261747 
L 218.16057 144.261747 
L 218.16057 143.798626 
L 218.866245 143.798626 
L 218.866245 143.335506 
L 219.283887 143.335506 
L 219.283887 142.872385 
L 219.805201 142.872385 
L 219.805201 142.409265 
L 220.683309 142.409265 
L 220.683309 141.946144 
L 220.954529 141.946144 
L 220.954529 141.019903 
L 221.412893 141.019903 
L 221.412893 140.556783 
L 221.698105 140.556783 
L 221.698105 140.093662 
L 221.999101 140.093662 
L 221.999101 139.630541 
L 222.821288 139.630541 
L 222.821288 139.167421 
L 223.362064 139.167421 
L 223.362064 138.24118 
L 224.411673 138.24118 
L 224.411673 137.314939 
L 224.957015 137.314939 
L 224.974192 136.388698 
L 225.437459 136.388698 
L 225.437459 135.925577 
L 225.583852 135.925577 
L 225.583852 135.462457 
L 225.888177 135.462457 
L 225.995709 134.073095 
L 226.275417 134.073095 
L 226.275417 133.609975 
L 226.43567 133.609975 
L 226.43567 133.146854 
L 226.658546 133.146854 
L 226.75236 131.757493 
L 227.464715 131.757493 
L 227.464715 131.294372 
L 227.819827 131.294372 
L 227.819827 130.831252 
L 228.176724 130.831252 
L 228.176724 129.905011 
L 230.37324 129.905011 
L 230.37324 128.97877 
L 231.419397 128.97877 
L 231.419397 127.589408 
L 231.91229 127.589408 
L 231.91229 127.126287 
L 232.53306 127.126287 
L 232.53306 126.663167 
L 234.386775 126.663167 
L 234.386775 125.736926 
L 234.547877 125.736926 
L 234.547877 125.273805 
L 234.94708 125.273805 
L 234.94708 124.810685 
L 235.647634 124.810685 
L 235.69252 122.495082 
L 237.752263 122.495082 
L 237.752263 122.031962 
L 240.05604 122.031962 
L 240.05604 121.568841 
L 241.381824 121.568841 
L 241.381824 120.6426 
L 242.246405 120.6426 
L 242.246405 119.716359 
L 243.108063 119.716359 
L 243.108063 119.253239 
L 243.430509 119.253239 
L 243.430509 118.790118 
L 243.595936 118.790118 
L 243.595936 118.326998 
L 244.513253 118.326998 
L 244.513253 117.863877 
L 246.656369 117.863877 
L 246.656369 117.400757 
L 247.044089 117.400757 
L 247.044089 116.937636 
L 251.560056 116.937636 
L 251.560056 116.474516 
L 253.860979 116.474516 
L 253.860979 115.548274 
L 255.297471 115.548274 
L 255.297471 114.622033 
L 255.987557 114.622033 
L 255.987557 113.695792 
L 256.473141 113.695792 
L 256.473141 113.232672 
L 257.449459 113.232672 
L 257.449459 112.306431 
L 258.153009 112.306431 
L 258.153009 111.38019 
L 338.688 111.38019 
L 338.688 111.38019 
" style="fill:none;stroke:#ff7500;stroke-linecap:square;stroke-width:1.5;"/>
   </g>
   <g id="line2d_46">
    <defs>
     <path d="M 0 -6 
L -1.347084 -1.854102 
L -5.706339 -1.854102 
L -2.179628 0.708204 
L -3.526712 4.854102 
L -0 2.291796 
L 3.526712 4.854102 
L 2.179628 0.708204 
L 5.706339 -1.854102 
L 1.347084 -1.854102 
z
" id="m67bd142de4" style="stroke:#ff7500;stroke-linejoin:bevel;stroke-width:1.5;"/>
    </defs>
    <g>
     <use style="fill-opacity:0;stroke:#ff7500;stroke-linejoin:bevel;stroke-width:1.5;" x="159.226956" xlink:href="#m67bd142de4" y="279.029818"/>
     <use style="fill-opacity:0;stroke:#ff7500;stroke-linejoin:bevel;stroke-width:1.5;" x="208.639181" xlink:href="#m67bd142de4" y="156.30288"/>
     <use style="fill-opacity:0;stroke:#ff7500;stroke-linejoin:bevel;stroke-width:1.5;" x="258.153009" xlink:href="#m67bd142de4" y="112.306431"/>
     <use style="fill-opacity:0;stroke:#ff7500;stroke-linejoin:bevel;stroke-width:1.5;" x="258.153009" xlink:href="#m67bd142de4" y="111.38019"/>
     <use style="fill-opacity:0;stroke:#ff7500;stroke-linejoin:bevel;stroke-width:1.5;" x="338.688" xlink:href="#m67bd142de4" y="111.38019"/>
    </g>
   </g>
   <g id="line2d_47">
    <path style="fill:none;stroke:#ff7500;stroke-linecap:square;stroke-width:1.5;"/>
    <g/>
   </g>
   <g id="line2d_48">
    <path clip-path="url(#paabdcbb48f)" d="M 258.37723 111.38019 
" style="fill:none;stroke:#ff7500;stroke-linecap:square;stroke-width:1.5;"/>
    <defs>
     <path d="M -12 12 
L 12 -12 
M -12 -12 
L 12 12 
" id="m29c0f9ed67" style="stroke:#ff7500;"/>
    </defs>
    <g clip-path="url(#paabdcbb48f)">
     <use style="fill:#ff7500;stroke:#ff7500;" x="258.37723" xlink:href="#m29c0f9ed67" y="111.38019"/>
    </g>
   </g>
   <g id="line2d_49">
    <path d="M 338.688 122.495082 
L 369.60768 293.571802 
" style="fill:none;stroke:#000080;stroke-linecap:square;stroke-width:1.5;"/>
    <g>
     <use style="fill-opacity:0;stroke:#000080;stroke-width:1.5;" x="338.688" xlink:href="#m46eaf9ea96" y="122.495082"/>
     <use style="fill-opacity:0;stroke:#000080;stroke-width:1.5;" x="369.60768" xlink:href="#m46eaf9ea96" y="293.571802"/>
    </g>
   </g>
   <g id="line2d_50">
    <path d="M 338.688 116.937636 
L 369.60768 207.616634 
" style="fill:none;stroke:#ff00ff;stroke-linecap:square;stroke-width:1.5;"/>
    <g>
     <use style="fill-opacity:0;stroke:#ff00ff;stroke-linejoin:miter;stroke-width:1.5;" x="338.688" xlink:href="#m5f1148506e" y="116.937636"/>
     <use style="fill-opacity:0;stroke:#ff00ff;stroke-linejoin:miter;stroke-width:1.5;" x="369.60768" xlink:href="#m5f1148506e" y="207.616634"/>
    </g>
   </g>
   <g id="line2d_51">
    <path d="M 338.688 111.38019 
L 369.60768 121.661465 
" style="fill:none;stroke:#ff7500;stroke-linecap:square;stroke-width:1.5;"/>
    <g>
     <use style="fill-opacity:0;stroke:#ff7500;stroke-linejoin:bevel;stroke-width:1.5;" x="338.688" xlink:href="#m67bd142de4" y="111.38019"/>
     <use style="fill-opacity:0;stroke:#ff7500;stroke-linejoin:bevel;stroke-width:1.5;" x="369.60768" xlink:href="#m67bd142de4" y="121.661465"/>
    </g>
   </g>
   <g id="line2d_52">
    <path d="M 338.688 298.944 
L 338.688 30.334099 
" style="fill:none;stroke:#000000;stroke-linecap:square;stroke-width:1.5;"/>
   </g>
   <g id="patch_3">
    <path d="M 57.6 298.944 
L 57.6 27.648 
" style="fill:none;stroke:#000000;stroke-linecap:square;stroke-linejoin:miter;stroke-width:0.8;"/>
   </g>
   <g id="patch_4">
    <path d="M 338.688 298.944 
L 338.688 27.648 
" style="fill:none;stroke:#000000;stroke-linecap:square;stroke-linejoin:miter;stroke-width:0.8;"/>
   </g>
   <g id="patch_5">
    <path d="M 57.6 298.944 
L 338.688 298.944 
" style="fill:none;stroke:#000000;stroke-linecap:square;stroke-linejoin:miter;stroke-width:0.8;"/>
   </g>
   <g id="patch_6">
    <path d="M 57.6 27.648 
L 338.688 27.648 
" style="fill:none;stroke:#000000;stroke-linecap:square;stroke-linejoin:miter;stroke-width:0.8;"/>
   </g>
   <g id="text_13">
    <!-- COMO-100  -->
    <g transform="translate(375.22944 298.262739)scale(0.17 -0.17)">
     <defs>
      <path d="M 64.40625 67.28125 
L 64.40625 56.890625 
Q 59.421875 61.53125 53.78125 63.8125 
Q 48.140625 66.109375 41.796875 66.109375 
Q 29.296875 66.109375 22.65625 58.46875 
Q 16.015625 50.828125 16.015625 36.375 
Q 16.015625 21.96875 22.65625 14.328125 
Q 29.296875 6.6875 41.796875 6.6875 
Q 48.140625 6.6875 53.78125 8.984375 
Q 59.421875 11.28125 64.40625 15.921875 
L 64.40625 5.609375 
Q 59.234375 2.09375 53.4375 0.328125 
Q 47.65625 -1.421875 41.21875 -1.421875 
Q 24.65625 -1.421875 15.125 8.703125 
Q 5.609375 18.84375 5.609375 36.375 
Q 5.609375 53.953125 15.125 64.078125 
Q 24.65625 74.21875 41.21875 74.21875 
Q 47.75 74.21875 53.53125 72.484375 
Q 59.328125 70.75 64.40625 67.28125 
z
" id="DejaVuSans-67"/>
      <path d="M 39.40625 66.21875 
Q 28.65625 66.21875 22.328125 58.203125 
Q 16.015625 50.203125 16.015625 36.375 
Q 16.015625 22.609375 22.328125 14.59375 
Q 28.65625 6.59375 39.40625 6.59375 
Q 50.140625 6.59375 56.421875 14.59375 
Q 62.703125 22.609375 62.703125 36.375 
Q 62.703125 50.203125 56.421875 58.203125 
Q 50.140625 66.21875 39.40625 66.21875 
z
M 39.40625 74.21875 
Q 54.734375 74.21875 63.90625 63.9375 
Q 73.09375 53.65625 73.09375 36.375 
Q 73.09375 19.140625 63.90625 8.859375 
Q 54.734375 -1.421875 39.40625 -1.421875 
Q 24.03125 -1.421875 14.8125 8.828125 
Q 5.609375 19.09375 5.609375 36.375 
Q 5.609375 53.65625 14.8125 63.9375 
Q 24.03125 74.21875 39.40625 74.21875 
z
" id="DejaVuSans-79"/>
      <path d="M 9.8125 72.90625 
L 24.515625 72.90625 
L 43.109375 23.296875 
L 61.8125 72.90625 
L 76.515625 72.90625 
L 76.515625 0 
L 66.890625 0 
L 66.890625 64.015625 
L 48.09375 14.015625 
L 38.1875 14.015625 
L 19.390625 64.015625 
L 19.390625 0 
L 9.8125 0 
z
" id="DejaVuSans-77"/>
     </defs>
     <use xlink:href="#DejaVuSans-67"/>
     <use x="69.824219" xlink:href="#DejaVuSans-79"/>
     <use x="148.535156" xlink:href="#DejaVuSans-77"/>
     <use x="234.814453" xlink:href="#DejaVuSans-79"/>
     <use x="316.275391" xlink:href="#DejaVuSans-45"/>
     <use x="352.359375" xlink:href="#DejaVuSans-49"/>
     <use x="415.982422" xlink:href="#DejaVuSans-48"/>
     <use x="479.605469" xlink:href="#DejaVuSans-48"/>
     <use x="543.228516" xlink:href="#DejaVuSans-32"/>
    </g>
   </g>
   <g id="text_14">
    <!-- NSGA-II-M -->
    <g transform="translate(375.22944 212.307571)scale(0.17 -0.17)">
     <defs>
      <path d="M 9.8125 72.90625 
L 23.09375 72.90625 
L 55.421875 11.921875 
L 55.421875 72.90625 
L 64.984375 72.90625 
L 64.984375 0 
L 51.703125 0 
L 19.390625 60.984375 
L 19.390625 0 
L 9.8125 0 
z
" id="DejaVuSans-78"/>
      <path d="M 53.515625 70.515625 
L 53.515625 60.890625 
Q 47.90625 63.578125 42.921875 64.890625 
Q 37.9375 66.21875 33.296875 66.21875 
Q 25.25 66.21875 20.875 63.09375 
Q 16.5 59.96875 16.5 54.203125 
Q 16.5 49.359375 19.40625 46.890625 
Q 22.3125 44.4375 30.421875 42.921875 
L 36.375 41.703125 
Q 47.40625 39.59375 52.65625 34.296875 
Q 57.90625 29 57.90625 20.125 
Q 57.90625 9.515625 50.796875 4.046875 
Q 43.703125 -1.421875 29.984375 -1.421875 
Q 24.8125 -1.421875 18.96875 -0.25 
Q 13.140625 0.921875 6.890625 3.21875 
L 6.890625 13.375 
Q 12.890625 10.015625 18.65625 8.296875 
Q 24.421875 6.59375 29.984375 6.59375 
Q 38.421875 6.59375 43.015625 9.90625 
Q 47.609375 13.234375 47.609375 19.390625 
Q 47.609375 24.75 44.3125 27.78125 
Q 41.015625 30.8125 33.5 32.328125 
L 27.484375 33.5 
Q 16.453125 35.6875 11.515625 40.375 
Q 6.59375 45.0625 6.59375 53.421875 
Q 6.59375 63.09375 13.40625 68.65625 
Q 20.21875 74.21875 32.171875 74.21875 
Q 37.3125 74.21875 42.625 73.28125 
Q 47.953125 72.359375 53.515625 70.515625 
z
" id="DejaVuSans-83"/>
      <path d="M 59.515625 10.40625 
L 59.515625 29.984375 
L 43.40625 29.984375 
L 43.40625 38.09375 
L 69.28125 38.09375 
L 69.28125 6.78125 
Q 63.578125 2.734375 56.6875 0.65625 
Q 49.8125 -1.421875 42 -1.421875 
Q 24.90625 -1.421875 15.25 8.5625 
Q 5.609375 18.5625 5.609375 36.375 
Q 5.609375 54.25 15.25 64.234375 
Q 24.90625 74.21875 42 74.21875 
Q 49.125 74.21875 55.546875 72.453125 
Q 61.96875 70.703125 67.390625 67.28125 
L 67.390625 56.78125 
Q 61.921875 61.421875 55.765625 63.765625 
Q 49.609375 66.109375 42.828125 66.109375 
Q 29.4375 66.109375 22.71875 58.640625 
Q 16.015625 51.171875 16.015625 36.375 
Q 16.015625 21.625 22.71875 14.15625 
Q 29.4375 6.6875 42.828125 6.6875 
Q 48.046875 6.6875 52.140625 7.59375 
Q 56.25 8.5 59.515625 10.40625 
z
" id="DejaVuSans-71"/>
      <path d="M 34.1875 63.1875 
L 20.796875 26.90625 
L 47.609375 26.90625 
z
M 28.609375 72.90625 
L 39.796875 72.90625 
L 67.578125 0 
L 57.328125 0 
L 50.6875 18.703125 
L 17.828125 18.703125 
L 11.1875 0 
L 0.78125 0 
z
" id="DejaVuSans-65"/>
      <path d="M 9.8125 72.90625 
L 19.671875 72.90625 
L 19.671875 0 
L 9.8125 0 
z
" id="DejaVuSans-73"/>
     </defs>
     <use xlink:href="#DejaVuSans-78"/>
     <use x="74.804688" xlink:href="#DejaVuSans-83"/>
     <use x="138.28125" xlink:href="#DejaVuSans-71"/>
     <use x="215.771484" xlink:href="#DejaVuSans-65"/>
     <use x="281.929688" xlink:href="#DejaVuSans-45"/>
     <use x="318.013672" xlink:href="#DejaVuSans-73"/>
     <use x="347.505859" xlink:href="#DejaVuSans-73"/>
     <use x="376.998047" xlink:href="#DejaVuSans-45"/>
     <use x="413.082031" xlink:href="#DejaVuSans-77"/>
    </g>
   </g>
   <g id="text_15">
    <!-- SMS-EMOA- -->
    <g transform="translate(375.22944 126.352403)scale(0.17 -0.17)">
     <defs>
      <path d="M 9.8125 72.90625 
L 55.90625 72.90625 
L 55.90625 64.59375 
L 19.671875 64.59375 
L 19.671875 43.015625 
L 54.390625 43.015625 
L 54.390625 34.71875 
L 19.671875 34.71875 
L 19.671875 8.296875 
L 56.78125 8.296875 
L 56.78125 0 
L 9.8125 0 
z
" id="DejaVuSans-69"/>
     </defs>
     <use xlink:href="#DejaVuSans-83"/>
     <use x="63.476562" xlink:href="#DejaVuSans-77"/>
     <use x="149.755859" xlink:href="#DejaVuSans-83"/>
     <use x="213.232422" xlink:href="#DejaVuSans-45"/>
     <use x="249.316406" xlink:href="#DejaVuSans-69"/>
     <use x="312.5" xlink:href="#DejaVuSans-77"/>
     <use x="398.779297" xlink:href="#DejaVuSans-79"/>
     <use x="475.740234" xlink:href="#DejaVuSans-65"/>
     <use x="541.898438" xlink:href="#DejaVuSans-45"/>
    </g>
   </g>
   <g id="text_16">
    <!-- best 2016 -->
    <g transform="translate(375.22944 40.397235)scale(0.17 -0.17)">
     <defs>
      <path d="M 48.6875 27.296875 
Q 48.6875 37.203125 44.609375 42.84375 
Q 40.53125 48.484375 33.40625 48.484375 
Q 26.265625 48.484375 22.1875 42.84375 
Q 18.109375 37.203125 18.109375 27.296875 
Q 18.109375 17.390625 22.1875 11.75 
Q 26.265625 6.109375 33.40625 6.109375 
Q 40.53125 6.109375 44.609375 11.75 
Q 48.6875 17.390625 48.6875 27.296875 
z
M 18.109375 46.390625 
Q 20.953125 51.265625 25.265625 53.625 
Q 29.59375 56 35.59375 56 
Q 45.5625 56 51.78125 48.09375 
Q 58.015625 40.1875 58.015625 27.296875 
Q 58.015625 14.40625 51.78125 6.484375 
Q 45.5625 -1.421875 35.59375 -1.421875 
Q 29.59375 -1.421875 25.265625 0.953125 
Q 20.953125 3.328125 18.109375 8.203125 
L 18.109375 0 
L 9.078125 0 
L 9.078125 75.984375 
L 18.109375 75.984375 
z
" id="DejaVuSans-98"/>
     </defs>
     <use xlink:href="#DejaVuSans-98"/>
     <use x="63.476562" xlink:href="#DejaVuSans-101"/>
     <use x="125" xlink:href="#DejaVuSans-115"/>
     <use x="177.099609" xlink:href="#DejaVuSans-116"/>
     <use x="216.308594" xlink:href="#DejaVuSans-32"/>
     <use x="248.095703" xlink:href="#DejaVuSans-50"/>
     <use x="311.71875" xlink:href="#DejaVuSans-48"/>
     <use x="375.341797" xlink:href="#DejaVuSans-49"/>
     <use x="438.964844" xlink:href="#DejaVuSans-54"/>
    </g>
   </g>
   <g id="text_17">
    <!-- bbob-biobj f40, 2-D -->
    <g transform="translate(60.41088 38.111366)scale(0.102 -0.102)">
     <defs>
      <path d="M 9.421875 54.6875 
L 18.40625 54.6875 
L 18.40625 -0.984375 
Q 18.40625 -11.421875 14.421875 -16.109375 
Q 10.453125 -20.796875 1.609375 -20.796875 
L -1.8125 -20.796875 
L -1.8125 -13.1875 
L 0.59375 -13.1875 
Q 5.71875 -13.1875 7.5625 -10.8125 
Q 9.421875 -8.453125 9.421875 -0.984375 
z
M 9.421875 75.984375 
L 18.40625 75.984375 
L 18.40625 64.59375 
L 9.421875 64.59375 
z
" id="DejaVuSans-106"/>
      <path d="M 19.671875 64.796875 
L 19.671875 8.109375 
L 31.59375 8.109375 
Q 46.6875 8.109375 53.6875 14.9375 
Q 60.6875 21.78125 60.6875 36.53125 
Q 60.6875 51.171875 53.6875 57.984375 
Q 46.6875 64.796875 31.59375 64.796875 
z
M 9.8125 72.90625 
L 30.078125 72.90625 
Q 51.265625 72.90625 61.171875 64.09375 
Q 71.09375 55.28125 71.09375 36.53125 
Q 71.09375 17.671875 61.125 8.828125 
Q 51.171875 0 30.078125 0 
L 9.8125 0 
z
" id="DejaVuSans-68"/>
     </defs>
     <use xlink:href="#DejaVuSans-98"/>
     <use x="63.476562" xlink:href="#DejaVuSans-98"/>
     <use x="126.953125" xlink:href="#DejaVuSans-111"/>
     <use x="188.134766" xlink:href="#DejaVuSans-98"/>
     <use x="251.611328" xlink:href="#DejaVuSans-45"/>
     <use x="287.695312" xlink:href="#DejaVuSans-98"/>
     <use x="351.171875" xlink:href="#DejaVuSans-105"/>
     <use x="378.955078" xlink:href="#DejaVuSans-111"/>
     <use x="440.136719" xlink:href="#DejaVuSans-98"/>
     <use x="503.613281" xlink:href="#DejaVuSans-106"/>
     <use x="531.396484" xlink:href="#DejaVuSans-32"/>
     <use x="563.183594" xlink:href="#DejaVuSans-102"/>
     <use x="598.388672" xlink:href="#DejaVuSans-52"/>
     <use x="662.011719" xlink:href="#DejaVuSans-48"/>
     <use x="725.634766" xlink:href="#DejaVuSans-44"/>
     <use x="757.421875" xlink:href="#DejaVuSans-32"/>
     <use x="789.208984" xlink:href="#DejaVuSans-50"/>
     <use x="852.832031" xlink:href="#DejaVuSans-45"/>
     <use x="888.916016" xlink:href="#DejaVuSans-68"/>
    </g>
    <!-- 58 targets: 1..-1.0e-4 -->
    <g transform="translate(60.41088 49.533135)scale(0.102 -0.102)">
     <defs>
      <path d="M 10.796875 72.90625 
L 49.515625 72.90625 
L 49.515625 64.59375 
L 19.828125 64.59375 
L 19.828125 46.734375 
Q 21.96875 47.46875 24.109375 47.828125 
Q 26.265625 48.1875 28.421875 48.1875 
Q 40.625 48.1875 47.75 41.5 
Q 54.890625 34.8125 54.890625 23.390625 
Q 54.890625 11.625 47.5625 5.09375 
Q 40.234375 -1.421875 26.90625 -1.421875 
Q 22.3125 -1.421875 17.546875 -0.640625 
Q 12.796875 0.140625 7.71875 1.703125 
L 7.71875 11.625 
Q 12.109375 9.234375 16.796875 8.0625 
Q 21.484375 6.890625 26.703125 6.890625 
Q 35.15625 6.890625 40.078125 11.328125 
Q 45.015625 15.765625 45.015625 23.390625 
Q 45.015625 31 40.078125 35.4375 
Q 35.15625 39.890625 26.703125 39.890625 
Q 22.75 39.890625 18.8125 39.015625 
Q 14.890625 38.140625 10.796875 36.28125 
z
" id="DejaVuSans-53"/>
      <path d="M 11.71875 12.40625 
L 22.015625 12.40625 
L 22.015625 0 
L 11.71875 0 
z
M 11.71875 51.703125 
L 22.015625 51.703125 
L 22.015625 39.3125 
L 11.71875 39.3125 
z
" id="DejaVuSans-58"/>
     </defs>
     <use xlink:href="#DejaVuSans-53"/>
     <use x="63.623047" xlink:href="#DejaVuSans-56"/>
     <use x="127.246094" xlink:href="#DejaVuSans-32"/>
     <use x="159.033203" xlink:href="#DejaVuSans-116"/>
     <use x="198.242188" xlink:href="#DejaVuSans-97"/>
     <use x="259.521484" xlink:href="#DejaVuSans-114"/>
     <use x="298.884766" xlink:href="#DejaVuSans-103"/>
     <use x="362.361328" xlink:href="#DejaVuSans-101"/>
     <use x="423.884766" xlink:href="#DejaVuSans-116"/>
     <use x="463.09375" xlink:href="#DejaVuSans-115"/>
     <use x="515.193359" xlink:href="#DejaVuSans-58"/>
     <use x="548.884766" xlink:href="#DejaVuSans-32"/>
     <use x="580.671875" xlink:href="#DejaVuSans-49"/>
     <use x="644.294922" xlink:href="#DejaVuSans-46"/>
     <use x="676.082031" xlink:href="#DejaVuSans-46"/>
     <use x="707.869141" xlink:href="#DejaVuSans-45"/>
     <use x="743.953125" xlink:href="#DejaVuSans-49"/>
     <use x="807.576172" xlink:href="#DejaVuSans-46"/>
     <use x="839.363281" xlink:href="#DejaVuSans-48"/>
     <use x="902.986328" xlink:href="#DejaVuSans-101"/>
     <use x="964.509766" xlink:href="#DejaVuSans-45"/>
     <use x="1000.59375" xlink:href="#DejaVuSans-52"/>
    </g>
    <!-- 10 instances -->
    <g transform="translate(60.41088 60.954904)scale(0.102 -0.102)">
     <use xlink:href="#DejaVuSans-49"/>
     <use x="63.623047" xlink:href="#DejaVuSans-48"/>
     <use x="127.246094" xlink:href="#DejaVuSans-32"/>
     <use x="159.033203" xlink:href="#DejaVuSans-105"/>
     <use x="186.816406" xlink:href="#DejaVuSans-110"/>
     <use x="250.195312" xlink:href="#DejaVuSans-115"/>
     <use x="302.294922" xlink:href="#DejaVuSans-116"/>
     <use x="341.503906" xlink:href="#DejaVuSans-97"/>
     <use x="402.783203" xlink:href="#DejaVuSans-110"/>
     <use x="466.162109" xlink:href="#DejaVuSans-99"/>
     <use x="521.142578" xlink:href="#DejaVuSans-101"/>
     <use x="582.666016" xlink:href="#DejaVuSans-115"/>
    </g>
   </g>
   <g id="text_18">
    <!-- v2.4.19, hv-hash=ff0e71e8cd978373 -->
    <g style="fill:#808080;" transform="translate(104.697125 294.151352)scale(0.1 -0.1)">
     <defs>
      <path d="M 10.984375 1.515625 
L 10.984375 10.5 
Q 14.703125 8.734375 18.5 7.8125 
Q 22.3125 6.890625 25.984375 6.890625 
Q 35.75 6.890625 40.890625 13.453125 
Q 46.046875 20.015625 46.78125 33.40625 
Q 43.953125 29.203125 39.59375 26.953125 
Q 35.25 24.703125 29.984375 24.703125 
Q 19.046875 24.703125 12.671875 31.3125 
Q 6.296875 37.9375 6.296875 49.421875 
Q 6.296875 60.640625 12.9375 67.421875 
Q 19.578125 74.21875 30.609375 74.21875 
Q 43.265625 74.21875 49.921875 64.515625 
Q 56.59375 54.828125 56.59375 36.375 
Q 56.59375 19.140625 48.40625 8.859375 
Q 40.234375 -1.421875 26.421875 -1.421875 
Q 22.703125 -1.421875 18.890625 -0.6875 
Q 15.09375 0.046875 10.984375 1.515625 
z
M 30.609375 32.421875 
Q 37.25 32.421875 41.125 36.953125 
Q 45.015625 41.5 45.015625 49.421875 
Q 45.015625 57.28125 41.125 61.84375 
Q 37.25 66.40625 30.609375 66.40625 
Q 23.96875 66.40625 20.09375 61.84375 
Q 16.21875 57.28125 16.21875 49.421875 
Q 16.21875 41.5 20.09375 36.953125 
Q 23.96875 32.421875 30.609375 32.421875 
z
" id="DejaVuSans-57"/>
      <path d="M 54.890625 33.015625 
L 54.890625 0 
L 45.90625 0 
L 45.90625 32.71875 
Q 45.90625 40.484375 42.875 44.328125 
Q 39.84375 48.1875 33.796875 48.1875 
Q 26.515625 48.1875 22.3125 43.546875 
Q 18.109375 38.921875 18.109375 30.90625 
L 18.109375 0 
L 9.078125 0 
L 9.078125 75.984375 
L 18.109375 75.984375 
L 18.109375 46.1875 
Q 21.34375 51.125 25.703125 53.5625 
Q 30.078125 56 35.796875 56 
Q 45.21875 56 50.046875 50.171875 
Q 54.890625 44.34375 54.890625 33.015625 
z
" id="DejaVuSans-104"/>
      <path d="M 10.59375 45.40625 
L 73.1875 45.40625 
L 73.1875 37.203125 
L 10.59375 37.203125 
z
M 10.59375 25.484375 
L 73.1875 25.484375 
L 73.1875 17.1875 
L 10.59375 17.1875 
z
" id="DejaVuSans-61"/>
      <path d="M 8.203125 72.90625 
L 55.078125 72.90625 
L 55.078125 68.703125 
L 28.609375 0 
L 18.3125 0 
L 43.21875 64.59375 
L 8.203125 64.59375 
z
" id="DejaVuSans-55"/>
      <path d="M 40.578125 39.3125 
Q 47.65625 37.796875 51.625 33 
Q 55.609375 28.21875 55.609375 21.1875 
Q 55.609375 10.40625 48.1875 4.484375 
Q 40.765625 -1.421875 27.09375 -1.421875 
Q 22.515625 -1.421875 17.65625 -0.515625 
Q 12.796875 0.390625 7.625 2.203125 
L 7.625 11.71875 
Q 11.71875 9.328125 16.59375 8.109375 
Q 21.484375 6.890625 26.8125 6.890625 
Q 36.078125 6.890625 40.9375 10.546875 
Q 45.796875 14.203125 45.796875 21.1875 
Q 45.796875 27.640625 41.28125 31.265625 
Q 36.765625 34.90625 28.71875 34.90625 
L 20.21875 34.90625 
L 20.21875 43.015625 
L 29.109375 43.015625 
Q 36.375 43.015625 40.234375 45.921875 
Q 44.09375 48.828125 44.09375 54.296875 
Q 44.09375 59.90625 40.109375 62.90625 
Q 36.140625 65.921875 28.71875 65.921875 
Q 24.65625 65.921875 20.015625 65.03125 
Q 15.375 64.15625 9.8125 62.3125 
L 9.8125 71.09375 
Q 15.4375 72.65625 20.34375 73.4375 
Q 25.25 74.21875 29.59375 74.21875 
Q 40.828125 74.21875 47.359375 69.109375 
Q 53.90625 64.015625 53.90625 55.328125 
Q 53.90625 49.265625 50.4375 45.09375 
Q 46.96875 40.921875 40.578125 39.3125 
z
" id="DejaVuSans-51"/>
     </defs>
     <use xlink:href="#DejaVuSans-118"/>
     <use x="59.179688" xlink:href="#DejaVuSans-50"/>
     <use x="122.802734" xlink:href="#DejaVuSans-46"/>
     <use x="154.589844" xlink:href="#DejaVuSans-52"/>
     <use x="218.212891" xlink:href="#DejaVuSans-46"/>
     <use x="250" xlink:href="#DejaVuSans-49"/>
     <use x="313.623047" xlink:href="#DejaVuSans-57"/>
     <use x="377.246094" xlink:href="#DejaVuSans-44"/>
     <use x="409.033203" xlink:href="#DejaVuSans-32"/>
     <use x="440.820312" xlink:href="#DejaVuSans-104"/>
     <use x="504.199219" xlink:href="#DejaVuSans-118"/>
     <use x="560.753906" xlink:href="#DejaVuSans-45"/>
     <use x="596.837891" xlink:href="#DejaVuSans-104"/>
     <use x="660.216797" xlink:href="#DejaVuSans-97"/>
     <use x="721.496094" xlink:href="#DejaVuSans-115"/>
     <use x="773.595703" xlink:href="#DejaVuSans-104"/>
     <use x="836.974609" xlink:href="#DejaVuSans-61"/>
     <use x="920.763672" xlink:href="#DejaVuSans-102"/>
     <use x="955.96875" xlink:href="#DejaVuSans-102"/>
     <use x="991.173828" xlink:href="#DejaVuSans-48"/>
     <use x="1054.796875" xlink:href="#DejaVuSans-101"/>
     <use x="1116.320312" xlink:href="#DejaVuSans-55"/>
     <use x="1179.943359" xlink:href="#DejaVuSans-49"/>
     <use x="1243.566406" xlink:href="#DejaVuSans-101"/>
     <use x="1305.089844" xlink:href="#DejaVuSans-56"/>
     <use x="1368.712891" xlink:href="#DejaVuSans-99"/>
     <use x="1423.693359" xlink:href="#DejaVuSans-100"/>
     <use x="1487.169922" xlink:href="#DejaVuSans-57"/>
     <use x="1550.792969" xlink:href="#DejaVuSans-55"/>
     <use x="1614.416016" xlink:href="#DejaVuSans-56"/>
     <use x="1678.039062" xlink:href="#DejaVuSans-51"/>
     <use x="1741.662109" xlink:href="#DejaVuSans-55"/>
     <use x="1805.285156" xlink:href="#DejaVuSans-51"/>
    </g>
   </g>
   <g id="text_19">
    <!-- 40 Sharp ridge/Gallagher 101 -->
    <g transform="translate(49.904937 21.648)scale(0.2 -0.2)">
     <use xlink:href="#DejaVuSans-52"/>
     <use x="63.623047" xlink:href="#DejaVuSans-48"/>
     <use x="127.246094" xlink:href="#DejaVuSans-32"/>
     <use x="159.033203" xlink:href="#DejaVuSans-83"/>
     <use x="222.509766" xlink:href="#DejaVuSans-104"/>
     <use x="285.888672" xlink:href="#DejaVuSans-97"/>
     <use x="347.167969" xlink:href="#DejaVuSans-114"/>
     <use x="388.28125" xlink:href="#DejaVuSans-112"/>
     <use x="451.757812" xlink:href="#DejaVuSans-32"/>
     <use x="483.544922" xlink:href="#DejaVuSans-114"/>
     <use x="524.658203" xlink:href="#DejaVuSans-105"/>
     <use x="552.441406" xlink:href="#DejaVuSans-100"/>
     <use x="615.917969" xlink:href="#DejaVuSans-103"/>
     <use x="679.394531" xlink:href="#DejaVuSans-101"/>
     <use x="740.917969" xlink:href="#DejaVuSans-47"/>
     <use x="774.609375" xlink:href="#DejaVuSans-71"/>
     <use x="852.099609" xlink:href="#DejaVuSans-97"/>
     <use x="913.378906" xlink:href="#DejaVuSans-108"/>
     <use x="941.162109" xlink:href="#DejaVuSans-108"/>
     <use x="968.945312" xlink:href="#DejaVuSans-97"/>
     <use x="1030.224609" xlink:href="#DejaVuSans-103"/>
     <use x="1093.701172" xlink:href="#DejaVuSans-104"/>
     <use x="1157.080078" xlink:href="#DejaVuSans-101"/>
     <use x="1218.603516" xlink:href="#DejaVuSans-114"/>
     <use x="1259.716797" xlink:href="#DejaVuSans-32"/>
     <use x="1291.503906" xlink:href="#DejaVuSans-49"/>
     <use x="1355.126953" xlink:href="#DejaVuSans-48"/>
     <use x="1418.75" xlink:href="#DejaVuSans-49"/>
    </g>
   </g>
  </g>
 </g>
 <defs>
  <clipPath id="paabdcbb48f">
   <rect height="271.296" width="281.088" x="57.6" y="27.648"/>
  </clipPath>
 </defs>
</svg>
