<?xml version="1.0" encoding="utf-8" standalone="no"?>
<!DOCTYPE svg PUBLIC "-//W3C//DTD SVG 1.1//EN"
  "http://www.w3.org/Graphics/SVG/1.1/DTD/svg11.dtd">
<!-- Created with matplotlib (https://matplotlib.org/) -->
<svg height="345.6pt" version="1.1" viewBox="0 0 460.8 345.6" width="460.8pt" xmlns="http://www.w3.org/2000/svg" xmlns:xlink="http://www.w3.org/1999/xlink">
 <metadata>
  <rdf:RDF xmlns:cc="http://creativecommons.org/ns#" xmlns:dc="http://purl.org/dc/elements/1.1/" xmlns:rdf="http://www.w3.org/1999/02/22-rdf-syntax-ns#">
   <cc:Work>
    <dc:type rdf:resource="http://purl.org/dc/dcmitype/StillImage"/>
    <dc:date>2021-04-26T15:04:29.892199</dc:date>
    <dc:format>image/svg+xml</dc:format>
    <dc:creator>
     <cc:Agent>
      <dc:title>Matplotlib v3.3.2, https://matplotlib.org/</dc:title>
     </cc:Agent>
    </dc:creator>
   </cc:Work>
  </rdf:RDF>
 </metadata>
 <defs>
  <style type="text/css">*{stroke-linecap:butt;stroke-linejoin:round;}</style>
 </defs>
 <g id="figure_1">
  <g id="patch_1">
   <path d="M 0 345.6 
L 460.8 345.6 
L 460.8 0 
L 0 0 
z
" style="fill:#ffffff;"/>
  </g>
  <g id="axes_1">
   <g id="patch_2">
    <path d="M 57.6 298.944 
L 338.688 298.944 
L 338.688 27.648 
L 57.6 27.648 
z
" style="fill:#ffffff;"/>
   </g>
   <g id="line2d_1">
    <path d="M 57.6 298.944 
L 57.6 294.312795 
L 66.508432 294.312795 
L 66.508432 285.050384 
L 78.59642 285.050384 
L 78.59642 275.787974 
L 81.775977 275.787974 
L 81.775977 271.156769 
L 92.34655 271.156769 
L 92.34655 257.263153 
L 98.880934 257.263153 
L 98.880934 248.000743 
L 103.623262 248.000743 
L 103.623262 243.369538 
L 115.077025 243.369538 
L 115.077025 234.107127 
L 120.093994 234.107127 
L 120.093994 220.213512 
L 126.948374 220.213512 
L 126.948374 210.951101 
L 133.873458 210.951101 
L 133.873458 201.688691 
L 139.887228 201.688691 
L 139.887228 192.426281 
L 143.144465 192.426281 
L 143.144465 187.795075 
L 148.607802 187.795075 
L 148.607802 173.90146 
L 155.296925 173.90146 
L 155.296925 169.270255 
L 166.895472 169.270255 
L 166.895472 155.376639 
L 174.196608 155.376639 
L 174.196608 146.114229 
L 177.535099 146.114229 
L 177.535099 141.483024 
L 185.283952 141.483024 
L 185.283952 127.589408 
L 190.519553 127.589408 
L 190.519553 122.958203 
L 195.674024 122.958203 
L 195.674024 109.064587 
L 203.880607 109.064587 
L 203.880607 99.802177 
L 210.854339 99.802177 
L 210.854339 90.539766 
L 219.055963 90.539766 
L 219.055963 85.908561 
L 226.742555 85.908561 
L 226.742555 76.646151 
L 233.390887 76.646151 
L 233.390887 62.752535 
L 338.688 62.752535 
" style="fill:none;stroke:#f5deb3;stroke-linecap:square;stroke-width:4;"/>
   </g>
   <g id="line2d_2">
    <defs>
     <path d="M 0 7.778175 
L 7.778175 0 
L 0 -7.778175 
L -7.778175 0 
z
" id="m9810c6cec7" style="stroke:#f5deb3;stroke-linejoin:miter;stroke-width:1.5;"/>
    </defs>
    <g>
     <use style="fill:#f5deb3;stroke:#f5deb3;stroke-linejoin:miter;stroke-width:1.5;" x="120.093994" xlink:href="#m9810c6cec7" y="234.107127"/>
     <use style="fill:#f5deb3;stroke:#f5deb3;stroke-linejoin:miter;stroke-width:1.5;" x="185.283952" xlink:href="#m9810c6cec7" y="141.483024"/>
     <use style="fill:#f5deb3;stroke:#f5deb3;stroke-linejoin:miter;stroke-width:1.5;" x="233.390887" xlink:href="#m9810c6cec7" y="76.646151"/>
     <use style="fill:#f5deb3;stroke:#f5deb3;stroke-linejoin:miter;stroke-width:1.5;" x="233.390887" xlink:href="#m9810c6cec7" y="62.752535"/>
     <use style="fill:#f5deb3;stroke:#f5deb3;stroke-linejoin:miter;stroke-width:1.5;" x="338.688" xlink:href="#m9810c6cec7" y="62.752535"/>
    </g>
   </g>
   <g id="line2d_3">
    <path style="fill:none;stroke:#f5deb3;stroke-linecap:square;stroke-width:4;"/>
    <g/>
   </g>
   <g id="line2d_4">
    <path d="M 338.688 62.752535 
L 369.60768 35.706297 
" style="fill:none;stroke:#f5deb3;stroke-linecap:square;stroke-width:4;"/>
    <g>
     <use style="fill:#f5deb3;stroke:#f5deb3;stroke-linejoin:miter;stroke-width:1.5;" x="338.688" xlink:href="#m9810c6cec7" y="62.752535"/>
     <use style="fill:#f5deb3;stroke:#f5deb3;stroke-linejoin:miter;stroke-width:1.5;" x="369.60768" xlink:href="#m9810c6cec7" y="35.706297"/>
    </g>
   </g>
   <g id="matplotlib.axis_1">
    <g id="xtick_1">
     <g id="line2d_5">
      <path clip-path="url(#p681e984a46)" d="M 57.6 298.944 
L 57.6 27.648 
" style="fill:none;stroke:#b0b0b0;stroke-linecap:square;stroke-width:0.8;"/>
     </g>
     <g id="line2d_6">
      <defs>
       <path d="M 0 0 
L 0 3.5 
" id="m96e41dbf06" style="stroke:#000000;stroke-width:0.8;"/>
      </defs>
      <g>
       <use style="stroke:#000000;stroke-width:0.8;" x="57.6" xlink:href="#m96e41dbf06" y="298.944"/>
      </g>
     </g>
     <g id="text_1">
      <!-- 0 -->
      <g transform="translate(51.2375 321.140875)scale(0.2 -0.2)">
       <defs>
        <path d="M 31.78125 66.40625 
Q 24.171875 66.40625 20.328125 58.90625 
Q 16.5 51.421875 16.5 36.375 
Q 16.5 21.390625 20.328125 13.890625 
Q 24.171875 6.390625 31.78125 6.390625 
Q 39.453125 6.390625 43.28125 13.890625 
Q 47.125 21.390625 47.125 36.375 
Q 47.125 51.421875 43.28125 58.90625 
Q 39.453125 66.40625 31.78125 66.40625 
z
M 31.78125 74.21875 
Q 44.046875 74.21875 50.515625 64.515625 
Q 56.984375 54.828125 56.984375 36.375 
Q 56.984375 17.96875 50.515625 8.265625 
Q 44.046875 -1.421875 31.78125 -1.421875 
Q 19.53125 -1.421875 13.0625 8.265625 
Q 6.59375 17.96875 6.59375 36.375 
Q 6.59375 54.828125 13.0625 64.515625 
Q 19.53125 74.21875 31.78125 74.21875 
z
" id="DejaVuSans-48"/>
       </defs>
       <use xlink:href="#DejaVuSans-48"/>
      </g>
     </g>
    </g>
    <g id="xtick_2">
     <g id="line2d_7">
      <path clip-path="url(#p681e984a46)" d="M 137.910857 298.944 
L 137.910857 27.648 
" style="fill:none;stroke:#b0b0b0;stroke-linecap:square;stroke-width:0.8;"/>
     </g>
     <g id="line2d_8">
      <g>
       <use style="stroke:#000000;stroke-width:0.8;" x="137.910857" xlink:href="#m96e41dbf06" y="298.944"/>
      </g>
     </g>
     <g id="text_2">
      <!-- 2 -->
      <g transform="translate(131.548357 321.140875)scale(0.2 -0.2)">
       <defs>
        <path d="M 19.1875 8.296875 
L 53.609375 8.296875 
L 53.609375 0 
L 7.328125 0 
L 7.328125 8.296875 
Q 12.9375 14.109375 22.625 23.890625 
Q 32.328125 33.6875 34.8125 36.53125 
Q 39.546875 41.84375 41.421875 45.53125 
Q 43.3125 49.21875 43.3125 52.78125 
Q 43.3125 58.59375 39.234375 62.25 
Q 35.15625 65.921875 28.609375 65.921875 
Q 23.96875 65.921875 18.8125 64.3125 
Q 13.671875 62.703125 7.8125 59.421875 
L 7.8125 69.390625 
Q 13.765625 71.78125 18.9375 73 
Q 24.125 74.21875 28.421875 74.21875 
Q 39.75 74.21875 46.484375 68.546875 
Q 53.21875 62.890625 53.21875 53.421875 
Q 53.21875 48.921875 51.53125 44.890625 
Q 49.859375 40.875 45.40625 35.40625 
Q 44.1875 33.984375 37.640625 27.21875 
Q 31.109375 20.453125 19.1875 8.296875 
z
" id="DejaVuSans-50"/>
       </defs>
       <use xlink:href="#DejaVuSans-50"/>
      </g>
     </g>
    </g>
    <g id="xtick_3">
     <g id="line2d_9">
      <path clip-path="url(#p681e984a46)" d="M 218.221714 298.944 
L 218.221714 27.648 
" style="fill:none;stroke:#b0b0b0;stroke-linecap:square;stroke-width:0.8;"/>
     </g>
     <g id="line2d_10">
      <g>
       <use style="stroke:#000000;stroke-width:0.8;" x="218.221714" xlink:href="#m96e41dbf06" y="298.944"/>
      </g>
     </g>
     <g id="text_3">
      <!-- 4 -->
      <g transform="translate(211.859214 321.140875)scale(0.2 -0.2)">
       <defs>
        <path d="M 37.796875 64.3125 
L 12.890625 25.390625 
L 37.796875 25.390625 
z
M 35.203125 72.90625 
L 47.609375 72.90625 
L 47.609375 25.390625 
L 58.015625 25.390625 
L 58.015625 17.1875 
L 47.609375 17.1875 
L 47.609375 0 
L 37.796875 0 
L 37.796875 17.1875 
L 4.890625 17.1875 
L 4.890625 26.703125 
z
" id="DejaVuSans-52"/>
       </defs>
       <use xlink:href="#DejaVuSans-52"/>
      </g>
     </g>
    </g>
    <g id="xtick_4">
     <g id="line2d_11">
      <path clip-path="url(#p681e984a46)" d="M 298.532571 298.944 
L 298.532571 27.648 
" style="fill:none;stroke:#b0b0b0;stroke-linecap:square;stroke-width:0.8;"/>
     </g>
     <g id="line2d_12">
      <g>
       <use style="stroke:#000000;stroke-width:0.8;" x="298.532571" xlink:href="#m96e41dbf06" y="298.944"/>
      </g>
     </g>
     <g id="text_4">
      <!-- 6 -->
      <g transform="translate(292.170071 321.140875)scale(0.2 -0.2)">
       <defs>
        <path d="M 33.015625 40.375 
Q 26.375 40.375 22.484375 35.828125 
Q 18.609375 31.296875 18.609375 23.390625 
Q 18.609375 15.53125 22.484375 10.953125 
Q 26.375 6.390625 33.015625 6.390625 
Q 39.65625 6.390625 43.53125 10.953125 
Q 47.40625 15.53125 47.40625 23.390625 
Q 47.40625 31.296875 43.53125 35.828125 
Q 39.65625 40.375 33.015625 40.375 
z
M 52.59375 71.296875 
L 52.59375 62.3125 
Q 48.875 64.0625 45.09375 64.984375 
Q 41.3125 65.921875 37.59375 65.921875 
Q 27.828125 65.921875 22.671875 59.328125 
Q 17.53125 52.734375 16.796875 39.40625 
Q 19.671875 43.65625 24.015625 45.921875 
Q 28.375 48.1875 33.59375 48.1875 
Q 44.578125 48.1875 50.953125 41.515625 
Q 57.328125 34.859375 57.328125 23.390625 
Q 57.328125 12.15625 50.6875 5.359375 
Q 44.046875 -1.421875 33.015625 -1.421875 
Q 20.359375 -1.421875 13.671875 8.265625 
Q 6.984375 17.96875 6.984375 36.375 
Q 6.984375 53.65625 15.1875 63.9375 
Q 23.390625 74.21875 37.203125 74.21875 
Q 40.921875 74.21875 44.703125 73.484375 
Q 48.484375 72.75 52.59375 71.296875 
z
" id="DejaVuSans-54"/>
       </defs>
       <use xlink:href="#DejaVuSans-54"/>
      </g>
     </g>
    </g>
    <g id="xtick_5">
     <g id="line2d_13">
      <path clip-path="url(#p681e984a46)" d="M 97.755429 298.944 
L 97.755429 27.648 
" style="fill:none;stroke:#b0b0b0;stroke-linecap:square;stroke-width:0.8;"/>
     </g>
     <g id="line2d_14">
      <defs>
       <path d="M 0 0 
L 0 2 
" id="m364abe462c" style="stroke:#000000;stroke-width:0.6;"/>
      </defs>
      <g>
       <use style="stroke:#000000;stroke-width:0.6;" x="97.755429" xlink:href="#m364abe462c" y="298.944"/>
      </g>
     </g>
    </g>
    <g id="xtick_6">
     <g id="line2d_15">
      <path clip-path="url(#p681e984a46)" d="M 178.066286 298.944 
L 178.066286 27.648 
" style="fill:none;stroke:#b0b0b0;stroke-linecap:square;stroke-width:0.8;"/>
     </g>
     <g id="line2d_16">
      <g>
       <use style="stroke:#000000;stroke-width:0.6;" x="178.066286" xlink:href="#m364abe462c" y="298.944"/>
      </g>
     </g>
    </g>
    <g id="xtick_7">
     <g id="line2d_17">
      <path clip-path="url(#p681e984a46)" d="M 258.377143 298.944 
L 258.377143 27.648 
" style="fill:none;stroke:#b0b0b0;stroke-linecap:square;stroke-width:0.8;"/>
     </g>
     <g id="line2d_18">
      <g>
       <use style="stroke:#000000;stroke-width:0.6;" x="258.377143" xlink:href="#m364abe462c" y="298.944"/>
      </g>
     </g>
    </g>
    <g id="xtick_8">
     <g id="line2d_19">
      <path clip-path="url(#p681e984a46)" d="M 338.688 298.944 
L 338.688 27.648 
" style="fill:none;stroke:#b0b0b0;stroke-linecap:square;stroke-width:0.8;"/>
     </g>
     <g id="line2d_20">
      <g>
       <use style="stroke:#000000;stroke-width:0.6;" x="338.688" xlink:href="#m364abe462c" y="298.944"/>
      </g>
     </g>
    </g>
    <g id="text_5">
     <!-- log10(# f-evals / dimension) -->
     <g transform="translate(77.764078 342.217594)scale(0.17 -0.17)">
      <defs>
       <path d="M 9.421875 75.984375 
L 18.40625 75.984375 
L 18.40625 0 
L 9.421875 0 
z
" id="DejaVuSans-108"/>
       <path d="M 30.609375 48.390625 
Q 23.390625 48.390625 19.1875 42.75 
Q 14.984375 37.109375 14.984375 27.296875 
Q 14.984375 17.484375 19.15625 11.84375 
Q 23.34375 6.203125 30.609375 6.203125 
Q 37.796875 6.203125 41.984375 11.859375 
Q 46.1875 17.53125 46.1875 27.296875 
Q 46.1875 37.015625 41.984375 42.703125 
Q 37.796875 48.390625 30.609375 48.390625 
z
M 30.609375 56 
Q 42.328125 56 49.015625 48.375 
Q 55.71875 40.765625 55.71875 27.296875 
Q 55.71875 13.875 49.015625 6.21875 
Q 42.328125 -1.421875 30.609375 -1.421875 
Q 18.84375 -1.421875 12.171875 6.21875 
Q 5.515625 13.875 5.515625 27.296875 
Q 5.515625 40.765625 12.171875 48.375 
Q 18.84375 56 30.609375 56 
z
" id="DejaVuSans-111"/>
       <path d="M 45.40625 27.984375 
Q 45.40625 37.75 41.375 43.109375 
Q 37.359375 48.484375 30.078125 48.484375 
Q 22.859375 48.484375 18.828125 43.109375 
Q 14.796875 37.75 14.796875 27.984375 
Q 14.796875 18.265625 18.828125 12.890625 
Q 22.859375 7.515625 30.078125 7.515625 
Q 37.359375 7.515625 41.375 12.890625 
Q 45.40625 18.265625 45.40625 27.984375 
z
M 54.390625 6.78125 
Q 54.390625 -7.171875 48.1875 -13.984375 
Q 42 -20.796875 29.203125 -20.796875 
Q 24.46875 -20.796875 20.265625 -20.09375 
Q 16.0625 -19.390625 12.109375 -17.921875 
L 12.109375 -9.1875 
Q 16.0625 -11.328125 19.921875 -12.34375 
Q 23.78125 -13.375 27.78125 -13.375 
Q 36.625 -13.375 41.015625 -8.765625 
Q 45.40625 -4.15625 45.40625 5.171875 
L 45.40625 9.625 
Q 42.625 4.78125 38.28125 2.390625 
Q 33.9375 0 27.875 0 
Q 17.828125 0 11.671875 7.65625 
Q 5.515625 15.328125 5.515625 27.984375 
Q 5.515625 40.671875 11.671875 48.328125 
Q 17.828125 56 27.875 56 
Q 33.9375 56 38.28125 53.609375 
Q 42.625 51.21875 45.40625 46.390625 
L 45.40625 54.6875 
L 54.390625 54.6875 
z
" id="DejaVuSans-103"/>
       <path d="M 12.40625 8.296875 
L 28.515625 8.296875 
L 28.515625 63.921875 
L 10.984375 60.40625 
L 10.984375 69.390625 
L 28.421875 72.90625 
L 38.28125 72.90625 
L 38.28125 8.296875 
L 54.390625 8.296875 
L 54.390625 0 
L 12.40625 0 
z
" id="DejaVuSans-49"/>
       <path d="M 31 75.875 
Q 24.46875 64.65625 21.28125 53.65625 
Q 18.109375 42.671875 18.109375 31.390625 
Q 18.109375 20.125 21.3125 9.0625 
Q 24.515625 -2 31 -13.1875 
L 23.1875 -13.1875 
Q 15.875 -1.703125 12.234375 9.375 
Q 8.59375 20.453125 8.59375 31.390625 
Q 8.59375 42.28125 12.203125 53.3125 
Q 15.828125 64.359375 23.1875 75.875 
z
" id="DejaVuSans-40"/>
       <path d="M 51.125 44 
L 36.921875 44 
L 32.8125 27.6875 
L 47.125 27.6875 
z
M 43.796875 71.78125 
L 38.71875 51.515625 
L 52.984375 51.515625 
L 58.109375 71.78125 
L 65.921875 71.78125 
L 60.890625 51.515625 
L 76.125 51.515625 
L 76.125 44 
L 58.984375 44 
L 54.984375 27.6875 
L 70.515625 27.6875 
L 70.515625 20.21875 
L 53.078125 20.21875 
L 48 0 
L 40.1875 0 
L 45.21875 20.21875 
L 30.90625 20.21875 
L 25.875 0 
L 18.015625 0 
L 23.09375 20.21875 
L 7.71875 20.21875 
L 7.71875 27.6875 
L 24.90625 27.6875 
L 29 44 
L 13.28125 44 
L 13.28125 51.515625 
L 30.90625 51.515625 
L 35.890625 71.78125 
z
" id="DejaVuSans-35"/>
       <path id="DejaVuSans-32"/>
       <path d="M 37.109375 75.984375 
L 37.109375 68.5 
L 28.515625 68.5 
Q 23.6875 68.5 21.796875 66.546875 
Q 19.921875 64.59375 19.921875 59.515625 
L 19.921875 54.6875 
L 34.71875 54.6875 
L 34.71875 47.703125 
L 19.921875 47.703125 
L 19.921875 0 
L 10.890625 0 
L 10.890625 47.703125 
L 2.296875 47.703125 
L 2.296875 54.6875 
L 10.890625 54.6875 
L 10.890625 58.5 
Q 10.890625 67.625 15.140625 71.796875 
Q 19.390625 75.984375 28.609375 75.984375 
z
" id="DejaVuSans-102"/>
       <path d="M 4.890625 31.390625 
L 31.203125 31.390625 
L 31.203125 23.390625 
L 4.890625 23.390625 
z
" id="DejaVuSans-45"/>
       <path d="M 56.203125 29.59375 
L 56.203125 25.203125 
L 14.890625 25.203125 
Q 15.484375 15.921875 20.484375 11.0625 
Q 25.484375 6.203125 34.421875 6.203125 
Q 39.59375 6.203125 44.453125 7.46875 
Q 49.3125 8.734375 54.109375 11.28125 
L 54.109375 2.78125 
Q 49.265625 0.734375 44.1875 -0.34375 
Q 39.109375 -1.421875 33.890625 -1.421875 
Q 20.796875 -1.421875 13.15625 6.1875 
Q 5.515625 13.8125 5.515625 26.8125 
Q 5.515625 40.234375 12.765625 48.109375 
Q 20.015625 56 32.328125 56 
Q 43.359375 56 49.78125 48.890625 
Q 56.203125 41.796875 56.203125 29.59375 
z
M 47.21875 32.234375 
Q 47.125 39.59375 43.09375 43.984375 
Q 39.0625 48.390625 32.421875 48.390625 
Q 24.90625 48.390625 20.390625 44.140625 
Q 15.875 39.890625 15.1875 32.171875 
z
" id="DejaVuSans-101"/>
       <path d="M 2.984375 54.6875 
L 12.5 54.6875 
L 29.59375 8.796875 
L 46.6875 54.6875 
L 56.203125 54.6875 
L 35.6875 0 
L 23.484375 0 
z
" id="DejaVuSans-118"/>
       <path d="M 34.28125 27.484375 
Q 23.390625 27.484375 19.1875 25 
Q 14.984375 22.515625 14.984375 16.5 
Q 14.984375 11.71875 18.140625 8.90625 
Q 21.296875 6.109375 26.703125 6.109375 
Q 34.1875 6.109375 38.703125 11.40625 
Q 43.21875 16.703125 43.21875 25.484375 
L 43.21875 27.484375 
z
M 52.203125 31.203125 
L 52.203125 0 
L 43.21875 0 
L 43.21875 8.296875 
Q 40.140625 3.328125 35.546875 0.953125 
Q 30.953125 -1.421875 24.3125 -1.421875 
Q 15.921875 -1.421875 10.953125 3.296875 
Q 6 8.015625 6 15.921875 
Q 6 25.140625 12.171875 29.828125 
Q 18.359375 34.515625 30.609375 34.515625 
L 43.21875 34.515625 
L 43.21875 35.40625 
Q 43.21875 41.609375 39.140625 45 
Q 35.0625 48.390625 27.6875 48.390625 
Q 23 48.390625 18.546875 47.265625 
Q 14.109375 46.140625 10.015625 43.890625 
L 10.015625 52.203125 
Q 14.9375 54.109375 19.578125 55.046875 
Q 24.21875 56 28.609375 56 
Q 40.484375 56 46.34375 49.84375 
Q 52.203125 43.703125 52.203125 31.203125 
z
" id="DejaVuSans-97"/>
       <path d="M 44.28125 53.078125 
L 44.28125 44.578125 
Q 40.484375 46.53125 36.375 47.5 
Q 32.28125 48.484375 27.875 48.484375 
Q 21.1875 48.484375 17.84375 46.4375 
Q 14.5 44.390625 14.5 40.28125 
Q 14.5 37.15625 16.890625 35.375 
Q 19.28125 33.59375 26.515625 31.984375 
L 29.59375 31.296875 
Q 39.15625 29.25 43.1875 25.515625 
Q 47.21875 21.78125 47.21875 15.09375 
Q 47.21875 7.46875 41.1875 3.015625 
Q 35.15625 -1.421875 24.609375 -1.421875 
Q 20.21875 -1.421875 15.453125 -0.5625 
Q 10.6875 0.296875 5.421875 2 
L 5.421875 11.28125 
Q 10.40625 8.6875 15.234375 7.390625 
Q 20.0625 6.109375 24.8125 6.109375 
Q 31.15625 6.109375 34.5625 8.28125 
Q 37.984375 10.453125 37.984375 14.40625 
Q 37.984375 18.0625 35.515625 20.015625 
Q 33.0625 21.96875 24.703125 23.78125 
L 21.578125 24.515625 
Q 13.234375 26.265625 9.515625 29.90625 
Q 5.8125 33.546875 5.8125 39.890625 
Q 5.8125 47.609375 11.28125 51.796875 
Q 16.75 56 26.8125 56 
Q 31.78125 56 36.171875 55.265625 
Q 40.578125 54.546875 44.28125 53.078125 
z
" id="DejaVuSans-115"/>
       <path d="M 25.390625 72.90625 
L 33.6875 72.90625 
L 8.296875 -9.28125 
L 0 -9.28125 
z
" id="DejaVuSans-47"/>
       <path d="M 45.40625 46.390625 
L 45.40625 75.984375 
L 54.390625 75.984375 
L 54.390625 0 
L 45.40625 0 
L 45.40625 8.203125 
Q 42.578125 3.328125 38.25 0.953125 
Q 33.9375 -1.421875 27.875 -1.421875 
Q 17.96875 -1.421875 11.734375 6.484375 
Q 5.515625 14.40625 5.515625 27.296875 
Q 5.515625 40.1875 11.734375 48.09375 
Q 17.96875 56 27.875 56 
Q 33.9375 56 38.25 53.625 
Q 42.578125 51.265625 45.40625 46.390625 
z
M 14.796875 27.296875 
Q 14.796875 17.390625 18.875 11.75 
Q 22.953125 6.109375 30.078125 6.109375 
Q 37.203125 6.109375 41.296875 11.75 
Q 45.40625 17.390625 45.40625 27.296875 
Q 45.40625 37.203125 41.296875 42.84375 
Q 37.203125 48.484375 30.078125 48.484375 
Q 22.953125 48.484375 18.875 42.84375 
Q 14.796875 37.203125 14.796875 27.296875 
z
" id="DejaVuSans-100"/>
       <path d="M 9.421875 54.6875 
L 18.40625 54.6875 
L 18.40625 0 
L 9.421875 0 
z
M 9.421875 75.984375 
L 18.40625 75.984375 
L 18.40625 64.59375 
L 9.421875 64.59375 
z
" id="DejaVuSans-105"/>
       <path d="M 52 44.1875 
Q 55.375 50.25 60.0625 53.125 
Q 64.75 56 71.09375 56 
Q 79.640625 56 84.28125 50.015625 
Q 88.921875 44.046875 88.921875 33.015625 
L 88.921875 0 
L 79.890625 0 
L 79.890625 32.71875 
Q 79.890625 40.578125 77.09375 44.375 
Q 74.3125 48.1875 68.609375 48.1875 
Q 61.625 48.1875 57.5625 43.546875 
Q 53.515625 38.921875 53.515625 30.90625 
L 53.515625 0 
L 44.484375 0 
L 44.484375 32.71875 
Q 44.484375 40.625 41.703125 44.40625 
Q 38.921875 48.1875 33.109375 48.1875 
Q 26.21875 48.1875 22.15625 43.53125 
Q 18.109375 38.875 18.109375 30.90625 
L 18.109375 0 
L 9.078125 0 
L 9.078125 54.6875 
L 18.109375 54.6875 
L 18.109375 46.1875 
Q 21.1875 51.21875 25.484375 53.609375 
Q 29.78125 56 35.6875 56 
Q 41.65625 56 45.828125 52.96875 
Q 50 49.953125 52 44.1875 
z
" id="DejaVuSans-109"/>
       <path d="M 54.890625 33.015625 
L 54.890625 0 
L 45.90625 0 
L 45.90625 32.71875 
Q 45.90625 40.484375 42.875 44.328125 
Q 39.84375 48.1875 33.796875 48.1875 
Q 26.515625 48.1875 22.3125 43.546875 
Q 18.109375 38.921875 18.109375 30.90625 
L 18.109375 0 
L 9.078125 0 
L 9.078125 54.6875 
L 18.109375 54.6875 
L 18.109375 46.1875 
Q 21.34375 51.125 25.703125 53.5625 
Q 30.078125 56 35.796875 56 
Q 45.21875 56 50.046875 50.171875 
Q 54.890625 44.34375 54.890625 33.015625 
z
" id="DejaVuSans-110"/>
       <path d="M 8.015625 75.875 
L 15.828125 75.875 
Q 23.140625 64.359375 26.78125 53.3125 
Q 30.421875 42.28125 30.421875 31.390625 
Q 30.421875 20.453125 26.78125 9.375 
Q 23.140625 -1.703125 15.828125 -13.1875 
L 8.015625 -13.1875 
Q 14.5 -2 17.703125 9.0625 
Q 20.90625 20.125 20.90625 31.390625 
Q 20.90625 42.671875 17.703125 53.65625 
Q 14.5 64.65625 8.015625 75.875 
z
" id="DejaVuSans-41"/>
      </defs>
      <use xlink:href="#DejaVuSans-108"/>
      <use x="27.783203" xlink:href="#DejaVuSans-111"/>
      <use x="88.964844" xlink:href="#DejaVuSans-103"/>
      <use x="152.441406" xlink:href="#DejaVuSans-49"/>
      <use x="216.064453" xlink:href="#DejaVuSans-48"/>
      <use x="279.6875" xlink:href="#DejaVuSans-40"/>
      <use x="318.701172" xlink:href="#DejaVuSans-35"/>
      <use x="402.490234" xlink:href="#DejaVuSans-32"/>
      <use x="434.277344" xlink:href="#DejaVuSans-102"/>
      <use x="463.982422" xlink:href="#DejaVuSans-45"/>
      <use x="500.066406" xlink:href="#DejaVuSans-101"/>
      <use x="561.589844" xlink:href="#DejaVuSans-118"/>
      <use x="620.769531" xlink:href="#DejaVuSans-97"/>
      <use x="682.048828" xlink:href="#DejaVuSans-108"/>
      <use x="709.832031" xlink:href="#DejaVuSans-115"/>
      <use x="761.931641" xlink:href="#DejaVuSans-32"/>
      <use x="793.71875" xlink:href="#DejaVuSans-47"/>
      <use x="827.410156" xlink:href="#DejaVuSans-32"/>
      <use x="859.197266" xlink:href="#DejaVuSans-100"/>
      <use x="922.673828" xlink:href="#DejaVuSans-105"/>
      <use x="950.457031" xlink:href="#DejaVuSans-109"/>
      <use x="1047.869141" xlink:href="#DejaVuSans-101"/>
      <use x="1109.392578" xlink:href="#DejaVuSans-110"/>
      <use x="1172.771484" xlink:href="#DejaVuSans-115"/>
      <use x="1224.871094" xlink:href="#DejaVuSans-105"/>
      <use x="1252.654297" xlink:href="#DejaVuSans-111"/>
      <use x="1313.835938" xlink:href="#DejaVuSans-110"/>
      <use x="1377.214844" xlink:href="#DejaVuSans-41"/>
     </g>
    </g>
   </g>
   <g id="matplotlib.axis_2">
    <g id="ytick_1">
     <g id="line2d_21">
      <path clip-path="url(#p681e984a46)" d="M 57.6 298.944 
L 338.688 298.944 
" style="fill:none;stroke:#b0b0b0;stroke-linecap:square;stroke-width:0.8;"/>
     </g>
     <g id="line2d_22">
      <defs>
       <path d="M 0 0 
L -3.5 0 
" id="m62f67d51f3" style="stroke:#000000;stroke-width:0.8;"/>
      </defs>
      <g>
       <use style="stroke:#000000;stroke-width:0.8;" x="57.6" xlink:href="#m62f67d51f3" y="298.944"/>
      </g>
     </g>
     <g id="text_6">
      <!-- 0.0 -->
      <g transform="translate(25.155 305.02275)scale(0.16 -0.16)">
       <defs>
        <path d="M 10.6875 12.40625 
L 21 12.40625 
L 21 0 
L 10.6875 0 
z
" id="DejaVuSans-46"/>
       </defs>
       <use xlink:href="#DejaVuSans-48"/>
       <use x="63.623047" xlink:href="#DejaVuSans-46"/>
       <use x="95.410156" xlink:href="#DejaVuSans-48"/>
      </g>
     </g>
    </g>
    <g id="ytick_2">
     <g id="line2d_23">
      <path clip-path="url(#p681e984a46)" d="M 57.6 245.22202 
L 338.688 245.22202 
" style="fill:none;stroke:#b0b0b0;stroke-linecap:square;stroke-width:0.8;"/>
     </g>
     <g id="line2d_24">
      <g>
       <use style="stroke:#000000;stroke-width:0.8;" x="57.6" xlink:href="#m62f67d51f3" y="245.22202"/>
      </g>
     </g>
     <g id="text_7">
      <!-- 0.2 -->
      <g transform="translate(25.155 251.30077)scale(0.16 -0.16)">
       <use xlink:href="#DejaVuSans-48"/>
       <use x="63.623047" xlink:href="#DejaVuSans-46"/>
       <use x="95.410156" xlink:href="#DejaVuSans-50"/>
      </g>
     </g>
    </g>
    <g id="ytick_3">
     <g id="line2d_25">
      <path clip-path="url(#p681e984a46)" d="M 57.6 191.50004 
L 338.688 191.50004 
" style="fill:none;stroke:#b0b0b0;stroke-linecap:square;stroke-width:0.8;"/>
     </g>
     <g id="line2d_26">
      <g>
       <use style="stroke:#000000;stroke-width:0.8;" x="57.6" xlink:href="#m62f67d51f3" y="191.50004"/>
      </g>
     </g>
     <g id="text_8">
      <!-- 0.4 -->
      <g transform="translate(25.155 197.57879)scale(0.16 -0.16)">
       <use xlink:href="#DejaVuSans-48"/>
       <use x="63.623047" xlink:href="#DejaVuSans-46"/>
       <use x="95.410156" xlink:href="#DejaVuSans-52"/>
      </g>
     </g>
    </g>
    <g id="ytick_4">
     <g id="line2d_27">
      <path clip-path="url(#p681e984a46)" d="M 57.6 137.778059 
L 338.688 137.778059 
" style="fill:none;stroke:#b0b0b0;stroke-linecap:square;stroke-width:0.8;"/>
     </g>
     <g id="line2d_28">
      <g>
       <use style="stroke:#000000;stroke-width:0.8;" x="57.6" xlink:href="#m62f67d51f3" y="137.778059"/>
      </g>
     </g>
     <g id="text_9">
      <!-- 0.6 -->
      <g transform="translate(25.155 143.856809)scale(0.16 -0.16)">
       <use xlink:href="#DejaVuSans-48"/>
       <use x="63.623047" xlink:href="#DejaVuSans-46"/>
       <use x="95.410156" xlink:href="#DejaVuSans-54"/>
      </g>
     </g>
    </g>
    <g id="ytick_5">
     <g id="line2d_29">
      <path clip-path="url(#p681e984a46)" d="M 57.6 84.056079 
L 338.688 84.056079 
" style="fill:none;stroke:#b0b0b0;stroke-linecap:square;stroke-width:0.8;"/>
     </g>
     <g id="line2d_30">
      <g>
       <use style="stroke:#000000;stroke-width:0.8;" x="57.6" xlink:href="#m62f67d51f3" y="84.056079"/>
      </g>
     </g>
     <g id="text_10">
      <!-- 0.8 -->
      <g transform="translate(25.155 90.134829)scale(0.16 -0.16)">
       <defs>
        <path d="M 31.78125 34.625 
Q 24.75 34.625 20.71875 30.859375 
Q 16.703125 27.09375 16.703125 20.515625 
Q 16.703125 13.921875 20.71875 10.15625 
Q 24.75 6.390625 31.78125 6.390625 
Q 38.8125 6.390625 42.859375 10.171875 
Q 46.921875 13.96875 46.921875 20.515625 
Q 46.921875 27.09375 42.890625 30.859375 
Q 38.875 34.625 31.78125 34.625 
z
M 21.921875 38.8125 
Q 15.578125 40.375 12.03125 44.71875 
Q 8.5 49.078125 8.5 55.328125 
Q 8.5 64.0625 14.71875 69.140625 
Q 20.953125 74.21875 31.78125 74.21875 
Q 42.671875 74.21875 48.875 69.140625 
Q 55.078125 64.0625 55.078125 55.328125 
Q 55.078125 49.078125 51.53125 44.71875 
Q 48 40.375 41.703125 38.8125 
Q 48.828125 37.15625 52.796875 32.3125 
Q 56.78125 27.484375 56.78125 20.515625 
Q 56.78125 9.90625 50.3125 4.234375 
Q 43.84375 -1.421875 31.78125 -1.421875 
Q 19.734375 -1.421875 13.25 4.234375 
Q 6.78125 9.90625 6.78125 20.515625 
Q 6.78125 27.484375 10.78125 32.3125 
Q 14.796875 37.15625 21.921875 38.8125 
z
M 18.3125 54.390625 
Q 18.3125 48.734375 21.84375 45.5625 
Q 25.390625 42.390625 31.78125 42.390625 
Q 38.140625 42.390625 41.71875 45.5625 
Q 45.3125 48.734375 45.3125 54.390625 
Q 45.3125 60.0625 41.71875 63.234375 
Q 38.140625 66.40625 31.78125 66.40625 
Q 25.390625 66.40625 21.84375 63.234375 
Q 18.3125 60.0625 18.3125 54.390625 
z
" id="DejaVuSans-56"/>
       </defs>
       <use xlink:href="#DejaVuSans-48"/>
       <use x="63.623047" xlink:href="#DejaVuSans-46"/>
       <use x="95.410156" xlink:href="#DejaVuSans-56"/>
      </g>
     </g>
    </g>
    <g id="ytick_6">
     <g id="line2d_31">
      <path clip-path="url(#p681e984a46)" d="M 57.6 30.334099 
L 338.688 30.334099 
" style="fill:none;stroke:#b0b0b0;stroke-linecap:square;stroke-width:0.8;"/>
     </g>
     <g id="line2d_32">
      <g>
       <use style="stroke:#000000;stroke-width:0.8;" x="57.6" xlink:href="#m62f67d51f3" y="30.334099"/>
      </g>
     </g>
     <g id="text_11">
      <!-- 1.0 -->
      <g transform="translate(25.155 36.412849)scale(0.16 -0.16)">
       <use xlink:href="#DejaVuSans-49"/>
       <use x="63.623047" xlink:href="#DejaVuSans-46"/>
       <use x="95.410156" xlink:href="#DejaVuSans-48"/>
      </g>
     </g>
    </g>
    <g id="text_12">
     <!-- Fraction of function,target pairs -->
     <g transform="translate(17.619531 297.681)rotate(-90)scale(0.17 -0.17)">
      <defs>
       <path d="M 9.8125 72.90625 
L 51.703125 72.90625 
L 51.703125 64.59375 
L 19.671875 64.59375 
L 19.671875 43.109375 
L 48.578125 43.109375 
L 48.578125 34.8125 
L 19.671875 34.8125 
L 19.671875 0 
L 9.8125 0 
z
" id="DejaVuSans-70"/>
       <path d="M 41.109375 46.296875 
Q 39.59375 47.171875 37.8125 47.578125 
Q 36.03125 48 33.890625 48 
Q 26.265625 48 22.1875 43.046875 
Q 18.109375 38.09375 18.109375 28.8125 
L 18.109375 0 
L 9.078125 0 
L 9.078125 54.6875 
L 18.109375 54.6875 
L 18.109375 46.1875 
Q 20.953125 51.171875 25.484375 53.578125 
Q 30.03125 56 36.53125 56 
Q 37.453125 56 38.578125 55.875 
Q 39.703125 55.765625 41.0625 55.515625 
z
" id="DejaVuSans-114"/>
       <path d="M 48.78125 52.59375 
L 48.78125 44.1875 
Q 44.96875 46.296875 41.140625 47.34375 
Q 37.3125 48.390625 33.40625 48.390625 
Q 24.65625 48.390625 19.8125 42.84375 
Q 14.984375 37.3125 14.984375 27.296875 
Q 14.984375 17.28125 19.8125 11.734375 
Q 24.65625 6.203125 33.40625 6.203125 
Q 37.3125 6.203125 41.140625 7.25 
Q 44.96875 8.296875 48.78125 10.40625 
L 48.78125 2.09375 
Q 45.015625 0.34375 40.984375 -0.53125 
Q 36.96875 -1.421875 32.421875 -1.421875 
Q 20.0625 -1.421875 12.78125 6.34375 
Q 5.515625 14.109375 5.515625 27.296875 
Q 5.515625 40.671875 12.859375 48.328125 
Q 20.21875 56 33.015625 56 
Q 37.15625 56 41.109375 55.140625 
Q 45.0625 54.296875 48.78125 52.59375 
z
" id="DejaVuSans-99"/>
       <path d="M 18.3125 70.21875 
L 18.3125 54.6875 
L 36.8125 54.6875 
L 36.8125 47.703125 
L 18.3125 47.703125 
L 18.3125 18.015625 
Q 18.3125 11.328125 20.140625 9.421875 
Q 21.96875 7.515625 27.59375 7.515625 
L 36.8125 7.515625 
L 36.8125 0 
L 27.59375 0 
Q 17.1875 0 13.234375 3.875 
Q 9.28125 7.765625 9.28125 18.015625 
L 9.28125 47.703125 
L 2.6875 47.703125 
L 2.6875 54.6875 
L 9.28125 54.6875 
L 9.28125 70.21875 
z
" id="DejaVuSans-116"/>
       <path d="M 8.5 21.578125 
L 8.5 54.6875 
L 17.484375 54.6875 
L 17.484375 21.921875 
Q 17.484375 14.15625 20.5 10.265625 
Q 23.53125 6.390625 29.59375 6.390625 
Q 36.859375 6.390625 41.078125 11.03125 
Q 45.3125 15.671875 45.3125 23.6875 
L 45.3125 54.6875 
L 54.296875 54.6875 
L 54.296875 0 
L 45.3125 0 
L 45.3125 8.40625 
Q 42.046875 3.421875 37.71875 1 
Q 33.40625 -1.421875 27.6875 -1.421875 
Q 18.265625 -1.421875 13.375 4.4375 
Q 8.5 10.296875 8.5 21.578125 
z
M 31.109375 56 
z
" id="DejaVuSans-117"/>
       <path d="M 11.71875 12.40625 
L 22.015625 12.40625 
L 22.015625 4 
L 14.015625 -11.625 
L 7.71875 -11.625 
L 11.71875 4 
z
" id="DejaVuSans-44"/>
       <path d="M 18.109375 8.203125 
L 18.109375 -20.796875 
L 9.078125 -20.796875 
L 9.078125 54.6875 
L 18.109375 54.6875 
L 18.109375 46.390625 
Q 20.953125 51.265625 25.265625 53.625 
Q 29.59375 56 35.59375 56 
Q 45.5625 56 51.78125 48.09375 
Q 58.015625 40.1875 58.015625 27.296875 
Q 58.015625 14.40625 51.78125 6.484375 
Q 45.5625 -1.421875 35.59375 -1.421875 
Q 29.59375 -1.421875 25.265625 0.953125 
Q 20.953125 3.328125 18.109375 8.203125 
z
M 48.6875 27.296875 
Q 48.6875 37.203125 44.609375 42.84375 
Q 40.53125 48.484375 33.40625 48.484375 
Q 26.265625 48.484375 22.1875 42.84375 
Q 18.109375 37.203125 18.109375 27.296875 
Q 18.109375 17.390625 22.1875 11.75 
Q 26.265625 6.109375 33.40625 6.109375 
Q 40.53125 6.109375 44.609375 11.75 
Q 48.6875 17.390625 48.6875 27.296875 
z
" id="DejaVuSans-112"/>
      </defs>
      <use xlink:href="#DejaVuSans-70"/>
      <use x="50.269531" xlink:href="#DejaVuSans-114"/>
      <use x="91.382812" xlink:href="#DejaVuSans-97"/>
      <use x="152.662109" xlink:href="#DejaVuSans-99"/>
      <use x="207.642578" xlink:href="#DejaVuSans-116"/>
      <use x="246.851562" xlink:href="#DejaVuSans-105"/>
      <use x="274.634766" xlink:href="#DejaVuSans-111"/>
      <use x="335.816406" xlink:href="#DejaVuSans-110"/>
      <use x="399.195312" xlink:href="#DejaVuSans-32"/>
      <use x="430.982422" xlink:href="#DejaVuSans-111"/>
      <use x="492.164062" xlink:href="#DejaVuSans-102"/>
      <use x="527.369141" xlink:href="#DejaVuSans-32"/>
      <use x="559.15625" xlink:href="#DejaVuSans-102"/>
      <use x="594.361328" xlink:href="#DejaVuSans-117"/>
      <use x="657.740234" xlink:href="#DejaVuSans-110"/>
      <use x="721.119141" xlink:href="#DejaVuSans-99"/>
      <use x="776.099609" xlink:href="#DejaVuSans-116"/>
      <use x="815.308594" xlink:href="#DejaVuSans-105"/>
      <use x="843.091797" xlink:href="#DejaVuSans-111"/>
      <use x="904.273438" xlink:href="#DejaVuSans-110"/>
      <use x="967.652344" xlink:href="#DejaVuSans-44"/>
      <use x="999.439453" xlink:href="#DejaVuSans-116"/>
      <use x="1038.648438" xlink:href="#DejaVuSans-97"/>
      <use x="1099.927734" xlink:href="#DejaVuSans-114"/>
      <use x="1139.291016" xlink:href="#DejaVuSans-103"/>
      <use x="1202.767578" xlink:href="#DejaVuSans-101"/>
      <use x="1264.291016" xlink:href="#DejaVuSans-116"/>
      <use x="1303.5" xlink:href="#DejaVuSans-32"/>
      <use x="1335.287109" xlink:href="#DejaVuSans-112"/>
      <use x="1398.763672" xlink:href="#DejaVuSans-97"/>
      <use x="1460.042969" xlink:href="#DejaVuSans-105"/>
      <use x="1487.826172" xlink:href="#DejaVuSans-114"/>
      <use x="1528.939453" xlink:href="#DejaVuSans-115"/>
     </g>
    </g>
   </g>
   <g id="line2d_33">
    <defs>
     <path d="M 0 1.5 
C 0.397805 1.5 0.77937 1.341951 1.06066 1.06066 
C 1.341951 0.77937 1.5 0.397805 1.5 0 
C 1.5 -0.397805 1.341951 -0.77937 1.06066 -1.06066 
C 0.77937 -1.341951 0.397805 -1.5 0 -1.5 
C -0.397805 -1.5 -0.77937 -1.341951 -1.06066 -1.06066 
C -1.341951 -0.77937 -1.5 -0.397805 -1.5 0 
C -1.5 0.397805 -1.341951 0.77937 -1.06066 1.06066 
C -0.77937 1.341951 -0.397805 1.5 0 1.5 
z
" id="m077daaee42" style="stroke:#f5deb3;"/>
    </defs>
    <g>
     <use style="fill:#f5deb3;stroke:#f5deb3;" x="233.390887" xlink:href="#m077daaee42" y="62.752535"/>
     <use style="fill:#f5deb3;stroke:#f5deb3;" x="233.390887" xlink:href="#m077daaee42" y="62.752535"/>
    </g>
   </g>
   <g id="line2d_34">
    <defs>
     <path d="M 0 1.5 
C 0.397805 1.5 0.77937 1.341951 1.06066 1.06066 
C 1.341951 0.77937 1.5 0.397805 1.5 0 
C 1.5 -0.397805 1.341951 -0.77937 1.06066 -1.06066 
C 0.77937 -1.341951 0.397805 -1.5 0 -1.5 
C -0.397805 -1.5 -0.77937 -1.341951 -1.06066 -1.06066 
C -1.341951 -0.77937 -1.5 -0.397805 -1.5 0 
C -1.5 0.397805 -1.341951 0.77937 -1.06066 1.06066 
C -0.77937 1.341951 -0.397805 1.5 0 1.5 
z
" id="m039aec74b5" style="stroke:#000080;"/>
    </defs>
    <g>
     <use style="fill:#000080;stroke:#000080;" x="257.425809" xlink:href="#m039aec74b5" y="71.088705"/>
     <use style="fill:#000080;stroke:#000080;" x="257.425809" xlink:href="#m039aec74b5" y="71.088705"/>
    </g>
   </g>
   <g id="line2d_35">
    <path d="M 38.440992 298.944 
L 38.440992 288.755349 
L 50.52898 288.755349 
L 50.52898 281.34542 
L 57.6 281.34542 
L 57.6 279.029818 
L 62.616969 279.029818 
L 62.616969 277.640456 
L 66.508432 277.640456 
L 66.508432 276.251095 
L 69.687988 276.251095 
L 69.687988 272.54613 
L 72.376266 272.54613 
L 72.376266 271.619889 
L 74.704957 271.619889 
L 74.704957 270.230528 
L 76.759008 270.230528 
L 76.759008 261.894358 
L 78.59642 261.894358 
L 78.59642 259.115635 
L 80.258561 259.115635 
L 80.258561 258.652515 
L 81.775977 258.652515 
L 81.775977 257.726274 
L 85.66744 257.726274 
L 85.66744 257.263153 
L 86.792945 257.263153 
L 86.792945 252.631948 
L 87.850195 252.631948 
L 87.850195 250.316346 
L 91.535274 250.316346 
L 91.535274 249.390104 
L 92.34655 249.390104 
L 92.34655 247.074502 
L 95.259853 247.074502 
L 95.259853 246.611381 
L 96.552242 246.611381 
L 96.552242 244.758899 
L 97.16421 244.758899 
L 97.16421 243.832658 
L 102.330873 243.832658 
L 102.330873 240.590815 
L 103.203018 240.590815 
L 103.203018 240.127694 
L 104.434538 240.127694 
L 104.434538 239.664574 
L 104.826449 239.664574 
L 104.826449 238.738333 
L 105.209745 238.738333 
L 105.209745 238.275212 
L 105.584798 238.275212 
L 105.584798 237.812091 
L 106.311539 237.812091 
L 106.311539 235.496489 
L 108.006005 235.496489 
L 108.006005 234.570248 
L 108.948899 234.570248 
L 108.948899 233.644007 
L 109.252198 233.644007 
L 109.252198 230.865284 
L 110.415248 230.865284 
L 110.415248 230.402163 
L 110.694282 230.402163 
L 110.694282 229.475922 
L 112.531694 229.475922 
L 112.531694 225.307837 
L 113.022974 225.307837 
L 113.022974 224.844717 
L 116.323218 224.844717 
L 116.323218 223.455355 
L 118.220662 223.455355 
L 118.220662 222.529114 
L 118.399528 222.529114 
L 118.399528 221.602873 
L 120.093994 221.602873 
L 120.093994 220.676632 
L 123.460928 220.676632 
L 123.460928 219.287271 
L 123.725164 219.287271 
L 123.725164 218.36103 
L 124.368753 218.36103 
L 124.368753 214.656066 
L 126.839037 214.656066 
L 126.839037 214.192945 
L 127.48501 214.192945 
L 127.48501 210.951101 
L 128.310692 210.951101 
L 128.310692 210.487981 
L 129.853291 210.487981 
L 129.853291 210.02486 
L 131.013364 210.02486 
L 131.013364 209.56174 
L 133.201197 209.56174 
L 133.201197 208.172378 
L 134.164119 208.172378 
L 134.164119 205.393655 
L 135.076644 205.393655 
L 135.076644 204.930535 
L 135.482227 204.930535 
L 135.482227 204.467414 
L 137.735587 204.467414 
L 137.735587 204.004294 
L 140.747977 204.004294 
L 140.747977 202.151812 
L 141.521035 202.151812 
L 141.521035 201.688691 
L 142.575505 201.688691 
L 142.575505 198.446847 
L 143.058132 198.446847 
L 143.144465 196.131245 
L 144.148442 196.131245 
L 144.148442 193.352522 
L 145.703082 193.352522 
L 145.703082 192.889401 
L 146.071013 192.889401 
L 146.071013 191.96316 
L 147.130404 191.96316 
L 147.130404 191.50004 
L 148.161434 191.50004 
L 148.193699 189.184437 
L 148.701984 189.184437 
L 148.701984 188.258196 
L 149.911431 188.258196 
L 149.911431 187.331955 
L 155.296925 187.331955 
L 155.296925 185.479473 
L 155.699795 185.479473 
L 155.699795 184.553232 
L 157.1279 184.553232 
L 157.1279 183.626991 
L 157.377174 183.626991 
L 157.377174 183.16387 
L 157.939176 183.16387 
L 157.939176 182.70075 
L 158.304027 182.70075 
L 158.304027 181.311388 
L 158.767202 181.311388 
L 158.767202 180.848268 
L 160.070889 180.848268 
L 160.070889 179.922027 
L 160.474035 179.922027 
L 160.474035 179.458906 
L 160.585265 179.458906 
L 160.585265 178.995786 
L 161.329454 178.995786 
L 161.329454 178.532665 
L 161.808503 178.532665 
L 161.808503 177.606424 
L 161.999419 177.606424 
L 161.999419 175.290821 
L 162.658665 175.290821 
L 162.658665 173.438339 
L 162.896128 173.438339 
L 162.951535 172.048978 
L 163.814908 172.048978 
L 163.814908 171.585857 
L 164.47356 171.585857 
L 164.47356 171.122737 
L 167.76681 171.122737 
L 167.76681 170.659616 
L 168.171308 170.659616 
L 168.171308 170.196496 
L 169.148163 170.196496 
L 169.148163 169.733375 
L 169.962523 169.733375 
L 169.962523 169.270255 
L 172.458099 169.270255 
L 172.458099 166.028411 
L 172.62567 166.028411 
L 172.63361 164.175929 
L 173.072554 164.175929 
L 173.165193 162.786567 
L 174.25457 162.786567 
L 174.355542 160.934085 
L 174.928533 160.934085 
L 175.004915 159.081603 
L 176.027487 159.081603 
L 176.027487 158.155362 
L 177.588952 158.155362 
L 177.588952 157.692242 
L 177.755438 157.692242 
L 177.755438 156.766001 
L 180.021883 156.766001 
L 180.021883 156.30288 
L 180.853932 156.30288 
L 180.853932 154.913519 
L 181.270047 154.913519 
L 181.270047 153.524157 
L 183.213561 153.524157 
L 183.213561 153.061037 
L 183.687402 153.061037 
L 183.687402 152.597916 
L 183.967306 152.597916 
L 183.988015 150.745434 
L 184.364741 150.745434 
L 184.441539 148.892952 
L 184.57813 148.892952 
L 184.57813 147.966711 
L 186.320845 147.966711 
L 186.320845 147.04047 
L 186.454315 147.04047 
L 186.454315 146.577349 
L 186.852213 146.577349 
L 186.852213 146.114229 
L 187.047809 146.114229 
L 187.047809 145.651108 
L 187.285833 145.651108 
L 187.306378 143.798626 
L 188.027042 143.798626 
L 188.072953 141.946144 
L 188.164412 141.946144 
L 188.164412 141.019903 
L 190.316286 141.019903 
L 190.316286 140.556783 
L 190.689501 140.556783 
L 190.689501 140.093662 
L 191.420901 140.093662 
L 191.420901 139.630541 
L 191.744926 139.630541 
L 191.850732 138.7043 
L 191.995173 138.7043 
L 192.099476 137.778059 
L 192.288234 137.778059 
L 192.288234 137.314939 
L 193.146323 137.314939 
L 193.146323 136.851818 
L 193.459329 136.851818 
L 193.533717 134.999336 
L 193.842259 134.999336 
L 193.842259 134.536216 
L 194.411586 134.536216 
L 194.438888 133.609975 
L 194.958499 133.609975 
L 194.958499 133.146854 
L 195.275566 133.146854 
L 195.275566 132.683734 
L 196.275617 132.683734 
L 196.275617 132.220613 
L 196.793704 132.220613 
L 196.793704 131.757493 
L 197.004948 131.757493 
L 197.004948 131.294372 
L 197.203966 131.294372 
L 197.203966 130.368131 
L 198.26521 130.368131 
L 198.26521 129.44189 
L 198.669408 129.44189 
L 198.669408 128.515649 
L 199.270732 128.515649 
L 199.270732 128.052529 
L 199.385809 128.052529 
L 199.385809 127.589408 
L 199.498431 127.589408 
L 199.498431 127.126287 
L 200.031097 127.126287 
L 200.031097 126.663167 
L 200.315813 126.663167 
L 200.348243 125.736926 
L 201.158561 125.736926 
L 201.158561 125.273805 
L 201.483365 125.273805 
L 201.483365 124.810685 
L 201.790301 124.810685 
L 201.878075 122.958203 
L 202.956959 122.958203 
L 202.956959 122.495082 
L 203.405875 122.495082 
L 203.437115 121.568841 
L 204.204354 121.568841 
L 204.204354 121.105721 
L 204.661909 121.105721 
L 204.661909 120.6426 
L 204.831854 120.6426 
L 204.840621 118.790118 
L 206.03696 118.790118 
L 206.070831 117.400757 
L 206.497297 117.400757 
L 206.497297 116.474516 
L 207.134532 116.474516 
L 207.134532 116.011395 
L 207.460794 116.011395 
L 207.532832 114.622033 
L 208.076847 114.622033 
L 208.076847 113.695792 
L 208.220816 113.695792 
L 208.220816 113.232672 
L 208.584211 113.232672 
L 208.584211 112.769551 
L 208.703011 112.769551 
L 208.703011 112.306431 
L 209.299714 112.306431 
L 209.299714 111.84331 
L 209.621543 111.84331 
L 209.621543 111.38019 
L 210.365973 111.38019 
L 210.365973 110.453949 
L 210.59882 110.453949 
L 210.59882 109.990828 
L 211.468661 109.990828 
L 211.468661 108.138346 
L 211.585569 108.138346 
L 211.585569 107.675226 
L 211.711833 107.675226 
L 211.711833 107.212105 
L 211.843058 107.212105 
L 211.843058 106.748985 
L 212.143814 106.748985 
L 212.143814 106.285864 
L 212.266115 106.285864 
L 212.304516 105.359623 
L 213.680302 105.359623 
L 213.680302 104.433382 
L 213.817034 104.433382 
L 213.845448 102.5809 
L 214.274939 102.5809 
L 214.36582 101.654659 
L 214.651357 101.654659 
L 214.651357 100.728418 
L 214.927379 100.728418 
L 214.927379 99.802177 
L 215.090224 99.802177 
L 215.090224 99.339056 
L 215.313484 99.339056 
L 215.313484 98.875936 
L 215.809113 98.875936 
L 215.809113 98.412815 
L 216.016816 98.412815 
L 216.016816 97.486574 
L 216.855207 97.486574 
L 216.855207 97.023454 
L 217.221014 97.023454 
L 217.221014 96.097213 
L 217.734221 96.097213 
L 217.734221 95.634092 
L 218.20543 95.634092 
L 218.20543 94.707851 
L 218.51569 94.707851 
L 218.51569 93.78161 
L 218.979878 93.78161 
L 218.979878 92.855369 
L 219.599885 92.855369 
L 219.612772 91.929128 
L 220.349501 91.929128 
L 220.349501 91.466008 
L 220.485834 91.466008 
L 220.488897 90.539766 
L 220.68886 90.539766 
L 220.68886 90.076646 
L 221.595889 90.076646 
L 221.665213 88.687284 
L 222.241522 88.687284 
L 222.241522 88.224164 
L 222.866331 88.224164 
L 222.866331 87.297923 
L 223.110909 87.297923 
L 223.110909 86.834802 
L 223.50563 86.834802 
L 223.50563 85.908561 
L 223.816279 85.908561 
L 223.816279 84.98232 
L 224.316847 84.98232 
L 224.316847 84.5192 
L 225.384726 84.5192 
L 225.384726 83.592959 
L 225.656685 83.592959 
L 225.656685 82.666718 
L 226.084816 82.666718 
L 226.084816 82.203597 
L 226.885686 82.203597 
L 226.885686 81.740477 
L 227.681826 81.740477 
L 227.681826 80.814236 
L 227.981676 80.814236 
L 227.981676 79.887995 
L 228.470999 79.887995 
L 228.470999 79.424874 
L 228.744024 79.424874 
L 228.818901 77.572392 
L 229.74102 77.572392 
L 229.74102 77.109271 
L 233.601526 77.109271 
L 233.601526 76.646151 
L 234.214182 76.646151 
L 234.214182 75.71991 
L 236.953899 75.71991 
L 236.953899 75.256789 
L 241.645471 75.256789 
L 241.645471 74.793669 
L 246.15693 74.793669 
L 246.15693 73.867428 
L 247.059447 73.867428 
L 247.059447 73.404307 
L 250.5183 73.404307 
L 250.5183 72.941187 
L 252.213864 72.941187 
L 252.213864 72.014946 
L 254.67668 72.014946 
L 254.67668 71.551825 
L 257.425809 71.551825 
L 257.425809 71.088705 
L 338.688 71.088705 
L 338.688 71.088705 
" style="fill:none;stroke:#000080;stroke-linecap:square;stroke-width:1.5;"/>
   </g>
   <g id="line2d_36">
    <defs>
     <path d="M 0 6 
C 1.591219 6 3.117479 5.367802 4.242641 4.242641 
C 5.367802 3.117479 6 1.591219 6 0 
C 6 -1.591219 5.367802 -3.117479 4.242641 -4.242641 
C 3.117479 -5.367802 1.591219 -6 0 -6 
C -1.591219 -6 -3.117479 -5.367802 -4.242641 -4.242641 
C -5.367802 -3.117479 -6 -1.591219 -6 0 
C -6 1.591219 -5.367802 3.117479 -4.242641 4.242641 
C -3.117479 5.367802 -1.591219 6 0 6 
z
" id="m9273c745d4" style="stroke:#000080;stroke-width:1.5;"/>
    </defs>
    <g>
     <use style="fill-opacity:0;stroke:#000080;stroke-width:1.5;" x="92.34655" xlink:href="#m9273c745d4" y="249.390104"/>
     <use style="fill-opacity:0;stroke:#000080;stroke-width:1.5;" x="143.058132" xlink:href="#m9273c745d4" y="197.983727"/>
     <use style="fill-opacity:0;stroke:#000080;stroke-width:1.5;" x="211.585569" xlink:href="#m9273c745d4" y="107.675226"/>
     <use style="fill-opacity:0;stroke:#000080;stroke-width:1.5;" x="257.425809" xlink:href="#m9273c745d4" y="71.551825"/>
     <use style="fill-opacity:0;stroke:#000080;stroke-width:1.5;" x="257.425809" xlink:href="#m9273c745d4" y="71.088705"/>
     <use style="fill-opacity:0;stroke:#000080;stroke-width:1.5;" x="338.688" xlink:href="#m9273c745d4" y="71.088705"/>
    </g>
   </g>
   <g id="line2d_37">
    <path style="fill:none;stroke:#000080;stroke-linecap:square;stroke-width:1.5;"/>
    <g/>
   </g>
   <g id="line2d_38">
    <path clip-path="url(#p681e984a46)" d="M 258.377608 71.088705 
" style="fill:none;stroke:#000080;stroke-linecap:square;stroke-width:1.5;"/>
    <defs>
     <path d="M -12 12 
L 12 -12 
M -12 -12 
L 12 12 
" id="mc6f83adb92" style="stroke:#000080;"/>
    </defs>
    <g clip-path="url(#p681e984a46)">
     <use style="fill:#000080;stroke:#000080;" x="258.377608" xlink:href="#mc6f83adb92" y="71.088705"/>
    </g>
   </g>
   <g id="line2d_39">
    <defs>
     <path d="M 0 1.5 
C 0.397805 1.5 0.77937 1.341951 1.06066 1.06066 
C 1.341951 0.77937 1.5 0.397805 1.5 0 
C 1.5 -0.397805 1.341951 -0.77937 1.06066 -1.06066 
C 0.77937 -1.341951 0.397805 -1.5 0 -1.5 
C -0.397805 -1.5 -0.77937 -1.341951 -1.06066 -1.06066 
C -1.341951 -0.77937 -1.5 -0.397805 -1.5 0 
C -1.5 0.397805 -1.341951 0.77937 -1.06066 1.06066 
C -0.77937 1.341951 -0.397805 1.5 0 1.5 
z
" id="m5f0a88c4bc" style="stroke:#ff00ff;"/>
    </defs>
    <g>
     <use style="fill:#ff00ff;stroke:#ff00ff;" x="258.33145" xlink:href="#m5f0a88c4bc" y="100.265297"/>
     <use style="fill:#ff00ff;stroke:#ff00ff;" x="258.33145" xlink:href="#m5f0a88c4bc" y="100.265297"/>
    </g>
   </g>
   <g id="line2d_40">
    <path d="M 38.440992 298.944 
L 38.440992 286.439746 
L 111.239304 286.439746 
L 111.239304 285.976625 
L 131.013364 285.976625 
L 131.013364 283.661023 
L 132.262533 283.661023 
L 132.262533 281.808541 
L 132.501978 281.808541 
L 132.501978 279.029818 
L 134.164119 279.029818 
L 134.236034 277.177336 
L 134.37898 277.177336 
L 134.37898 274.398612 
L 134.800918 274.398612 
L 134.800918 273.472371 
L 137.259399 273.472371 
L 137.259399 271.619889 
L 137.617753 271.619889 
L 137.617753 271.156769 
L 139.887228 271.156769 
L 139.887228 270.693648 
L 140.39868 270.693648 
L 140.39868 269.767407 
L 140.599134 269.767407 
L 140.599134 266.525564 
L 140.89556 266.525564 
L 140.89556 265.599323 
L 141.521035 265.599323 
L 141.568232 264.209961 
L 142.664255 264.209961 
L 142.664255 263.28372 
L 142.796538 263.28372 
L 142.796538 262.357479 
L 143.014805 262.357479 
L 143.058132 260.968117 
L 143.144465 260.968117 
L 143.230373 259.578756 
L 143.31586 259.578756 
L 143.31586 254.48443 
L 143.485587 254.48443 
L 143.485587 253.095069 
L 143.653678 253.095069 
L 143.653678 252.631948 
L 143.861538 252.631948 
L 143.943994 250.779466 
L 143.985075 250.779466 
L 143.985075 249.390104 
L 144.189046 249.390104 
L 144.269971 248.000743 
L 145.097753 248.000743 
L 145.097753 247.074502 
L 145.212864 247.074502 
L 145.212864 246.611381 
L 145.888018 246.611381 
L 145.888018 246.148261 
L 146.034567 246.148261 
L 146.034567 244.295779 
L 146.888907 244.295779 
L 146.888907 243.832658 
L 147.027314 243.832658 
L 147.096109 239.664574 
L 147.164632 239.664574 
L 147.164632 239.201453 
L 147.603592 239.201453 
L 147.603592 238.738333 
L 147.901141 238.738333 
L 147.901141 238.275212 
L 148.193699 238.275212 
L 148.225905 235.959609 
L 148.701984 235.959609 
L 148.76449 234.107127 
L 149.104327 234.107127 
L 149.104327 233.644007 
L 149.377533 233.644007 
L 149.377533 231.791525 
L 149.527485 231.791525 
L 149.527485 230.865284 
L 149.852909 230.865284 
L 149.852909 229.475922 
L 150.344189 229.475922 
L 150.344189 229.012802 
L 150.654857 229.012802 
L 150.738632 227.62344 
L 151.124351 227.62344 
L 151.233007 226.234079 
L 151.340991 226.234079 
L 151.394733 223.918476 
L 151.634543 223.918476 
L 151.634543 223.455355 
L 152.130233 223.455355 
L 152.130233 219.750391 
L 152.786492 219.750391 
L 152.835965 218.36103 
L 152.909913 218.36103 
L 152.909913 217.434789 
L 153.056874 217.434789 
L 153.056874 216.971668 
L 153.371104 216.971668 
L 153.466662 216.045427 
L 153.49047 216.045427 
L 153.561699 214.656066 
L 153.632638 214.656066 
L 153.726778 211.414222 
L 153.890309 211.414222 
L 153.913546 210.487981 
L 154.029268 210.487981 
L 154.098334 208.172378 
L 154.507086 208.172378 
L 154.507086 207.709258 
L 154.752243 207.709258 
L 154.752243 207.246137 
L 155.059358 207.246137 
L 155.146121 204.467414 
L 155.403849 204.467414 
L 155.403849 204.004294 
L 156.236431 204.004294 
L 156.256744 202.614932 
L 156.378132 202.614932 
L 156.378132 199.836209 
L 156.618401 199.836209 
L 156.618401 198.909968 
L 157.377174 198.909968 
L 157.377174 197.983727 
L 157.547684 197.983727 
L 157.604152 196.594365 
L 157.809652 196.594365 
L 157.809652 195.205004 
L 158.122556 195.205004 
L 158.195371 193.352522 
L 158.429943 193.352522 
L 158.429943 192.889401 
L 158.802326 192.889401 
L 158.802326 192.426281 
L 159.028927 192.426281 
L 159.028927 191.50004 
L 159.320876 191.50004 
L 159.354904 187.331955 
L 160.265562 187.331955 
L 160.265562 185.942593 
L 160.553557 185.942593 
L 160.553557 185.479473 
L 160.711523 185.479473 
L 160.821253 183.16387 
L 160.976823 183.16387 
L 160.976823 182.237629 
L 161.268637 182.237629 
L 161.268637 181.774509 
L 161.585586 181.774509 
L 161.585586 181.311388 
L 162.115875 181.311388 
L 162.115875 179.458906 
L 162.245966 179.458906 
L 162.245966 178.995786 
L 162.602318 178.995786 
L 162.602318 178.532665 
L 163.006766 178.532665 
L 163.006766 177.606424 
L 163.388564 177.606424 
L 163.388564 176.680183 
L 163.52292 176.680183 
L 163.549667 175.753942 
L 163.642961 175.753942 
L 163.722532 174.827701 
L 164.192481 174.827701 
L 164.256762 173.90146 
L 164.612418 173.90146 
L 164.687696 172.512098 
L 164.812441 172.512098 
L 164.812441 171.585857 
L 165.059286 171.585857 
L 165.059286 171.122737 
L 165.254276 171.122737 
L 165.290595 169.733375 
L 165.755989 169.733375 
L 165.755989 169.270255 
L 166.24367 169.270255 
L 166.24367 168.807134 
L 166.994465 168.807134 
L 167.08199 167.417773 
L 167.147346 167.417773 
L 167.147346 166.954652 
L 167.714267 166.954652 
L 167.714267 166.491532 
L 167.996141 166.491532 
L 167.996141 165.565291 
L 168.242927 165.565291 
L 168.242927 164.63905 
L 168.576655 164.63905 
L 168.576655 164.175929 
L 170.256089 164.175929 
L 170.256089 163.249688 
L 170.392016 163.249688 
L 170.392016 162.323447 
L 170.784729 162.323447 
L 170.88154 160.934085 
L 170.934121 160.934085 
L 170.934121 160.470965 
L 171.194673 160.470965 
L 171.194673 160.007844 
L 172.466115 160.007844 
L 172.546075 158.618483 
L 172.585918 158.618483 
L 172.585918 157.692242 
L 172.83878 157.692242 
L 172.83878 157.229121 
L 173.356625 157.229121 
L 173.356625 156.766001 
L 173.837325 156.766001 
L 173.837325 156.30288 
L 174.109302 156.30288 
L 174.203864 154.450398 
L 174.633778 154.450398 
L 174.66913 153.061037 
L 175.232072 153.061037 
L 175.232072 152.134795 
L 175.483295 152.134795 
L 175.483295 151.208554 
L 176.014414 151.208554 
L 176.014414 150.745434 
L 177.018116 150.745434 
L 177.018116 150.282313 
L 177.996389 150.282313 
L 178.013889 148.429831 
L 179.343721 148.429831 
L 179.343721 147.966711 
L 179.781193 147.966711 
L 179.781193 147.50359 
L 179.917643 147.50359 
L 179.917643 147.04047 
L 180.719649 147.04047 
L 180.809286 145.651108 
L 181.798912 145.651108 
L 181.798912 145.187988 
L 182.810829 145.187988 
L 182.810829 144.724867 
L 182.995839 144.724867 
L 182.995839 144.261747 
L 183.830004 144.261747 
L 183.830004 143.335506 
L 185.921609 143.335506 
L 185.921609 142.872385 
L 186.561788 142.872385 
L 186.561788 141.946144 
L 186.813533 141.946144 
L 186.813533 141.483024 
L 186.953778 141.483024 
L 186.953778 141.019903 
L 187.401936 141.019903 
L 187.446124 139.630541 
L 189.213803 139.630541 
L 189.213803 139.167421 
L 192.257345 139.167421 
L 192.257345 138.7043 
L 194.336283 138.7043 
L 194.336283 137.778059 
L 196.244898 137.778059 
L 196.253095 136.851818 
L 198.131435 136.851818 
L 198.131435 136.388698 
L 199.586654 136.388698 
L 199.667696 135.462457 
L 200.802358 135.462457 
L 200.802358 134.536216 
L 203.066811 134.536216 
L 203.068197 133.146854 
L 203.259802 133.146854 
L 203.259802 132.683734 
L 203.934764 132.683734 
L 204.018967 131.294372 
L 204.613773 131.294372 
L 204.613773 130.368131 
L 206.203344 130.368131 
L 206.203344 129.44189 
L 209.110589 129.44189 
L 209.110589 128.97877 
L 209.973026 128.97877 
L 209.973026 128.515649 
L 210.438788 128.515649 
L 210.438788 128.052529 
L 211.018528 128.052529 
L 211.018528 127.589408 
L 212.667166 127.589408 
L 212.667166 127.126287 
L 215.127748 127.126287 
L 215.127748 126.663167 
L 215.423027 126.663167 
L 215.423027 126.200046 
L 215.980498 126.200046 
L 216.076085 121.568841 
L 217.124708 121.568841 
L 217.124708 120.6426 
L 218.848028 120.6426 
L 218.848028 120.17948 
L 221.685718 120.17948 
L 221.685718 119.253239 
L 221.970758 119.253239 
L 221.970758 118.790118 
L 223.593 118.790118 
L 223.593 118.326998 
L 223.72536 118.326998 
L 223.740193 117.400757 
L 223.956169 117.400757 
L 223.956169 116.474516 
L 224.114444 116.474516 
L 224.167022 115.548274 
L 224.249091 115.548274 
L 224.249091 115.085154 
L 224.43367 115.085154 
L 224.529484 113.695792 
L 227.882409 113.695792 
L 227.910114 112.306431 
L 228.240494 112.306431 
L 228.240494 111.84331 
L 229.22662 111.84331 
L 229.22662 110.917069 
L 229.779415 110.917069 
L 229.863408 109.527708 
L 231.065918 109.527708 
L 231.065918 109.064587 
L 233.83674 109.064587 
L 233.83674 108.601467 
L 234.795709 108.601467 
L 234.795709 107.675226 
L 235.313587 107.675226 
L 235.313587 107.212105 
L 237.297981 107.212105 
L 237.297981 106.748985 
L 238.369815 106.748985 
L 238.369815 106.285864 
L 238.585252 106.285864 
L 238.585252 105.359623 
L 239.495297 105.359623 
L 239.495297 104.896503 
L 242.038844 104.896503 
L 242.038844 104.433382 
L 246.531038 104.433382 
L 246.531038 103.507141 
L 252.885469 103.507141 
L 252.885469 103.04402 
L 254.018798 103.04402 
L 254.018798 102.117779 
L 254.381314 102.117779 
L 254.381314 101.654659 
L 255.05512 101.654659 
L 255.05512 101.191538 
L 256.184708 101.191538 
L 256.184708 100.728418 
L 258.33145 100.728418 
L 258.33145 100.265297 
L 338.688 100.265297 
L 338.688 100.265297 
" style="fill:none;stroke:#ff00ff;stroke-linecap:square;stroke-width:1.5;"/>
   </g>
   <g id="line2d_41">
    <defs>
     <path d="M 0 8.485281 
L 5.091169 0 
L 0 -8.485281 
L -5.091169 0 
z
" id="m8357bdbfbc" style="stroke:#ff00ff;stroke-linejoin:miter;stroke-width:1.5;"/>
    </defs>
    <g>
     <use style="fill-opacity:0;stroke:#ff00ff;stroke-linejoin:miter;stroke-width:1.5;" x="147.603592" xlink:href="#m8357bdbfbc" y="238.738333"/>
     <use style="fill-opacity:0;stroke:#ff00ff;stroke-linejoin:miter;stroke-width:1.5;" x="174.633778" xlink:href="#m8357bdbfbc" y="154.450398"/>
     <use style="fill-opacity:0;stroke:#ff00ff;stroke-linejoin:miter;stroke-width:1.5;" x="252.885469" xlink:href="#m8357bdbfbc" y="103.507141"/>
     <use style="fill-opacity:0;stroke:#ff00ff;stroke-linejoin:miter;stroke-width:1.5;" x="258.33145" xlink:href="#m8357bdbfbc" y="100.265297"/>
     <use style="fill-opacity:0;stroke:#ff00ff;stroke-linejoin:miter;stroke-width:1.5;" x="338.688" xlink:href="#m8357bdbfbc" y="100.265297"/>
    </g>
   </g>
   <g id="line2d_42">
    <path style="fill:none;stroke:#ff00ff;stroke-linecap:square;stroke-width:1.5;"/>
    <g/>
   </g>
   <g id="line2d_43">
    <path clip-path="url(#p681e984a46)" d="M 258.383478 100.265297 
" style="fill:none;stroke:#ff00ff;stroke-linecap:square;stroke-width:1.5;"/>
    <defs>
     <path d="M -12 12 
L 12 -12 
M -12 -12 
L 12 12 
" id="m7e98f5c22b" style="stroke:#ff00ff;"/>
    </defs>
    <g clip-path="url(#p681e984a46)">
     <use style="fill:#ff00ff;stroke:#ff00ff;" x="258.383478" xlink:href="#m7e98f5c22b" y="100.265297"/>
    </g>
   </g>
   <g id="line2d_44">
    <defs>
     <path d="M 0 1.5 
C 0.397805 1.5 0.77937 1.341951 1.06066 1.06066 
C 1.341951 0.77937 1.5 0.397805 1.5 0 
C 1.5 -0.397805 1.341951 -0.77937 1.06066 -1.06066 
C 0.77937 -1.341951 0.397805 -1.5 0 -1.5 
C -0.397805 -1.5 -0.77937 -1.341951 -1.06066 -1.06066 
C -1.341951 -0.77937 -1.5 -0.397805 -1.5 0 
C -1.5 0.397805 -1.341951 0.77937 -1.06066 1.06066 
C -0.77937 1.341951 -0.397805 1.5 0 1.5 
z
" id="mb929f5a313" style="stroke:#ff7500;"/>
    </defs>
    <g>
     <use style="fill:#ff7500;stroke:#ff7500;" x="194.954085" xlink:href="#mb929f5a313" y="128.97877"/>
     <use style="fill:#ff7500;stroke:#ff7500;" x="194.954085" xlink:href="#mb929f5a313" y="128.97877"/>
    </g>
   </g>
   <g id="line2d_45">
    <path d="M 91.535274 298.944 
L 91.535274 296.628397 
L 130.576266 296.628397 
L 130.576266 294.775915 
L 130.926816 294.775915 
L 130.926816 292.923433 
L 135.076644 292.923433 
L 135.076644 292.460313 
L 135.348078 292.460313 
L 135.348078 289.68159 
L 136.137916 289.68159 
L 136.137916 288.755349 
L 138.981779 288.755349 
L 139.090775 286.439746 
L 139.730821 286.439746 
L 139.730821 285.976625 
L 141.426256 285.976625 
L 141.426256 285.513505 
L 143.144465 285.513505 
L 143.144465 285.050384 
L 144.430703 285.050384 
L 144.430703 282.734782 
L 144.669057 282.734782 
L 144.669057 281.808541 
L 144.904196 281.808541 
L 144.904196 280.419179 
L 145.059213 280.419179 
L 145.136208 279.492938 
L 146.071013 279.492938 
L 146.071013 278.566697 
L 146.288102 278.566697 
L 146.395642 277.177336 
L 147.436066 277.177336 
L 147.436066 275.324854 
L 147.636905 275.324854 
L 147.636905 274.861733 
L 147.86833 274.861733 
L 147.86833 274.398612 
L 148.096724 274.398612 
L 148.096724 272.08301 
L 148.386046 272.08301 
L 148.48143 271.156769 
L 148.79566 271.156769 
L 148.79566 270.230528 
L 149.347388 270.230528 
L 149.377533 267.914925 
L 150.429467 267.914925 
L 150.429467 265.136202 
L 150.710752 265.136202 
L 150.710752 263.746841 
L 151.554972 263.746841 
L 151.554972 263.28372 
L 151.923236 263.28372 
L 151.923236 258.189394 
L 152.25837 258.189394 
L 152.25837 257.726274 
L 152.562109 257.726274 
L 152.562109 256.800033 
L 153.129893 256.800033 
L 153.129893 255.873792 
L 153.561699 255.873792 
L 153.561699 255.410671 
L 154.507086 255.410671 
L 154.507086 254.947551 
L 154.663493 254.947551 
L 154.663493 254.02131 
L 155.318362 254.02131 
L 155.403849 252.631948 
L 155.61575 252.631948 
L 155.61575 252.168828 
L 155.970177 252.168828 
L 155.970177 250.779466 
L 156.256744 250.779466 
L 156.256744 248.926984 
L 157.089232 248.926984 
L 157.089232 248.000743 
L 157.243392 248.000743 
L 157.243392 247.537622 
L 157.547684 247.537622 
L 157.547684 246.611381 
L 157.920731 246.611381 
L 157.920731 242.906417 
L 158.086033 242.906417 
L 158.086033 241.980176 
L 158.249784 241.980176 
L 158.249784 241.517056 
L 158.590511 241.517056 
L 158.590511 240.127694 
L 158.749613 240.127694 
L 158.802326 238.738333 
L 159.149734 238.738333 
L 159.149734 238.275212 
L 159.320876 238.275212 
L 159.320876 237.348971 
L 159.524055 237.348971 
L 159.524055 236.88585 
L 160.087195 236.88585 
L 160.103486 235.496489 
L 160.346039 235.496489 
L 160.36209 233.180886 
L 160.711523 233.180886 
L 160.711523 232.254645 
L 160.914762 232.254645 
L 160.930298 229.939043 
L 161.510643 229.939043 
L 161.510643 229.475922 
L 161.79373 229.475922 
L 161.88218 228.086561 
L 161.940898 228.086561 
L 162.043181 226.697199 
L 162.072295 226.697199 
L 162.173813 224.844717 
L 162.274744 224.844717 
L 162.360793 223.455355 
L 162.503271 223.455355 
L 162.503271 222.992235 
L 162.68677 222.992235 
L 162.71483 221.602873 
L 162.840544 221.602873 
L 162.882249 219.287271 
L 163.293895 219.287271 
L 163.388564 213.266704 
L 163.44243 213.266704 
L 163.44243 212.803583 
L 163.603039 212.803583 
L 163.603039 212.340463 
L 164.231078 212.340463 
L 164.243924 210.951101 
L 164.51154 210.951101 
L 164.51154 210.487981 
L 164.66264 210.487981 
L 164.66264 209.56174 
L 164.911599 209.56174 
L 164.948638 208.172378 
L 165.217881 208.172378 
L 165.302685 204.930535 
L 165.447111 204.930535 
L 165.483031 203.541173 
L 165.814766 203.541173 
L 165.814766 203.078053 
L 165.943384 203.078053 
L 165.955029 202.151812 
L 166.391896 202.151812 
L 166.414589 201.225571 
L 166.595075 201.225571 
L 166.595075 200.76245 
L 166.784816 200.76245 
L 166.895472 199.373088 
L 167.071073 199.373088 
L 167.136471 198.446847 
L 167.244924 198.446847 
L 167.255733 197.057486 
L 167.40635 197.057486 
L 167.40635 196.594365 
L 167.629866 196.594365 
L 167.703739 193.815642 
L 167.808732 193.815642 
L 167.808732 192.889401 
L 168.191801 192.889401 
L 168.263336 191.50004 
L 168.344733 191.50004 
L 168.354881 189.647558 
L 168.884444 189.647558 
L 168.963 187.795075 
L 169.427043 187.795075 
L 169.427043 187.331955 
L 169.654516 187.331955 
L 169.673338 182.70075 
L 169.767149 182.70075 
L 169.767149 182.237629 
L 169.99949 182.237629 
L 169.99949 181.774509 
L 170.562682 181.774509 
L 170.562682 180.848268 
L 170.696249 180.848268 
L 170.696249 180.385147 
L 170.85519 180.385147 
L 170.85519 179.922027 
L 171.03881 179.922027 
L 171.142873 178.069545 
L 171.237722 178.069545 
L 171.323504 177.143304 
L 171.519214 177.143304 
L 171.612043 175.753942 
L 171.962007 175.753942 
L 172.044307 172.512098 
L 172.093501 172.512098 
L 172.167033 170.659616 
L 172.593876 170.659616 
L 172.617727 168.807134 
L 172.783779 168.807134 
L 172.870132 167.880893 
L 173.310873 167.880893 
L 173.417442 166.491532 
L 173.568564 166.491532 
L 173.568564 165.565291 
L 173.807666 165.565291 
L 173.807666 165.10217 
L 173.992211 165.10217 
L 174.080103 162.786567 
L 174.261802 162.786567 
L 174.261802 161.397206 
L 174.40581 161.397206 
L 174.505913 160.470965 
L 174.725545 160.470965 
L 174.830834 158.618483 
L 174.851815 158.618483 
L 174.851815 158.155362 
L 175.011842 158.155362 
L 175.060255 155.376639 
L 175.266234 155.376639 
L 175.266234 154.450398 
L 175.610908 154.450398 
L 175.610908 153.987278 
L 175.757513 153.987278 
L 175.77741 152.597916 
L 175.942337 152.597916 
L 176.001331 151.208554 
L 176.086194 151.208554 
L 176.086194 150.282313 
L 176.631116 150.282313 
L 176.631116 149.356072 
L 176.794453 149.356072 
L 176.844405 147.966711 
L 177.092038 147.966711 
L 177.184001 146.577349 
L 177.226752 146.577349 
L 177.226752 145.651108 
L 177.749519 145.651108 
L 177.749519 145.187988 
L 178.048838 145.187988 
L 178.048838 144.724867 
L 178.8617 144.724867 
L 178.894992 143.798626 
L 178.994487 143.798626 
L 178.994487 143.335506 
L 179.1208 143.335506 
L 179.1208 142.409265 
L 179.349123 142.409265 
L 179.349123 141.483024 
L 179.51575 141.483024 
L 179.585155 140.093662 
L 180.120337 140.093662 
L 180.120337 139.167421 
L 180.32581 139.167421 
L 180.32581 138.7043 
L 180.579292 138.7043 
L 180.579292 138.24118 
L 181.075464 138.24118 
L 181.075464 137.778059 
L 181.648084 137.778059 
L 181.648084 137.314939 
L 181.943792 137.314939 
L 181.943792 136.851818 
L 182.26658 136.851818 
L 182.26658 136.388698 
L 182.664074 136.388698 
L 182.664074 135.462457 
L 183.496853 135.462457 
L 183.496853 134.999336 
L 184.242788 134.999336 
L 184.242788 134.536216 
L 185.709137 134.536216 
L 185.709137 134.073095 
L 186.182697 134.073095 
L 186.182697 133.609975 
L 186.757118 133.609975 
L 186.757118 132.683734 
L 186.908322 132.683734 
L 186.908322 131.757493 
L 187.822261 131.757493 
L 187.822261 131.294372 
L 188.355574 131.294372 
L 188.355574 130.368131 
L 189.201528 130.368131 
L 189.201528 129.905011 
L 190.168801 129.905011 
L 190.168801 129.44189 
L 194.954085 129.44189 
L 194.954085 128.97877 
L 338.688 128.97877 
L 338.688 128.97877 
" style="fill:none;stroke:#ff7500;stroke-linecap:square;stroke-width:1.5;"/>
   </g>
   <g id="line2d_46">
    <defs>
     <path d="M 0 -6 
L -1.347084 -1.854102 
L -5.706339 -1.854102 
L -2.179628 0.708204 
L -3.526712 4.854102 
L -0 2.291796 
L 3.526712 4.854102 
L 2.179628 0.708204 
L 5.706339 -1.854102 
L 1.347084 -1.854102 
z
" id="m2a3d18a2ff" style="stroke:#ff7500;stroke-linejoin:bevel;stroke-width:1.5;"/>
    </defs>
    <g>
     <use style="fill-opacity:0;stroke:#ff7500;stroke-linejoin:bevel;stroke-width:1.5;" x="155.403849" xlink:href="#m2a3d18a2ff" y="253.558189"/>
     <use style="fill-opacity:0;stroke:#ff7500;stroke-linejoin:bevel;stroke-width:1.5;" x="194.954085" xlink:href="#m2a3d18a2ff" y="129.44189"/>
     <use style="fill-opacity:0;stroke:#ff7500;stroke-linejoin:bevel;stroke-width:1.5;" x="194.954085" xlink:href="#m2a3d18a2ff" y="128.97877"/>
     <use style="fill-opacity:0;stroke:#ff7500;stroke-linejoin:bevel;stroke-width:1.5;" x="194.954085" xlink:href="#m2a3d18a2ff" y="128.97877"/>
     <use style="fill-opacity:0;stroke:#ff7500;stroke-linejoin:bevel;stroke-width:1.5;" x="338.688" xlink:href="#m2a3d18a2ff" y="128.97877"/>
    </g>
   </g>
   <g id="line2d_47">
    <path style="fill:none;stroke:#ff7500;stroke-linecap:square;stroke-width:1.5;"/>
    <g/>
   </g>
   <g id="line2d_48">
    <path clip-path="url(#p681e984a46)" d="M 258.377201 128.97877 
" style="fill:none;stroke:#ff7500;stroke-linecap:square;stroke-width:1.5;"/>
    <defs>
     <path d="M -12 12 
L 12 -12 
M -12 -12 
L 12 12 
" id="m9355fffa6f" style="stroke:#ff7500;"/>
    </defs>
    <g clip-path="url(#p681e984a46)">
     <use style="fill:#ff7500;stroke:#ff7500;" x="258.377201" xlink:href="#m9355fffa6f" y="128.97877"/>
    </g>
   </g>
   <g id="line2d_49">
    <path d="M 338.688 128.97877 
L 369.60768 293.571802 
" style="fill:none;stroke:#ff7500;stroke-linecap:square;stroke-width:1.5;"/>
    <g>
     <use style="fill-opacity:0;stroke:#ff7500;stroke-linejoin:bevel;stroke-width:1.5;" x="338.688" xlink:href="#m2a3d18a2ff" y="128.97877"/>
     <use style="fill-opacity:0;stroke:#ff7500;stroke-linejoin:bevel;stroke-width:1.5;" x="369.60768" xlink:href="#m2a3d18a2ff" y="293.571802"/>
    </g>
   </g>
   <g id="line2d_50">
    <path d="M 338.688 100.265297 
L 369.60768 207.616634 
" style="fill:none;stroke:#ff00ff;stroke-linecap:square;stroke-width:1.5;"/>
    <g>
     <use style="fill-opacity:0;stroke:#ff00ff;stroke-linejoin:miter;stroke-width:1.5;" x="338.688" xlink:href="#m8357bdbfbc" y="100.265297"/>
     <use style="fill-opacity:0;stroke:#ff00ff;stroke-linejoin:miter;stroke-width:1.5;" x="369.60768" xlink:href="#m8357bdbfbc" y="207.616634"/>
    </g>
   </g>
   <g id="line2d_51">
    <path d="M 338.688 71.088705 
L 369.60768 121.661465 
" style="fill:none;stroke:#000080;stroke-linecap:square;stroke-width:1.5;"/>
    <g>
     <use style="fill-opacity:0;stroke:#000080;stroke-width:1.5;" x="338.688" xlink:href="#m9273c745d4" y="71.088705"/>
     <use style="fill-opacity:0;stroke:#000080;stroke-width:1.5;" x="369.60768" xlink:href="#m9273c745d4" y="121.661465"/>
    </g>
   </g>
   <g id="line2d_52">
    <path d="M 338.688 298.944 
L 338.688 30.334099 
" style="fill:none;stroke:#000000;stroke-linecap:square;stroke-width:1.5;"/>
   </g>
   <g id="patch_3">
    <path d="M 57.6 298.944 
L 57.6 27.648 
" style="fill:none;stroke:#000000;stroke-linecap:square;stroke-linejoin:miter;stroke-width:0.8;"/>
   </g>
   <g id="patch_4">
    <path d="M 338.688 298.944 
L 338.688 27.648 
" style="fill:none;stroke:#000000;stroke-linecap:square;stroke-linejoin:miter;stroke-width:0.8;"/>
   </g>
   <g id="patch_5">
    <path d="M 57.6 298.944 
L 338.688 298.944 
" style="fill:none;stroke:#000000;stroke-linecap:square;stroke-linejoin:miter;stroke-width:0.8;"/>
   </g>
   <g id="patch_6">
    <path d="M 57.6 27.648 
L 338.688 27.648 
" style="fill:none;stroke:#000000;stroke-linecap:square;stroke-linejoin:miter;stroke-width:0.8;"/>
   </g>
   <g id="text_13">
    <!-- SMS-EMOA- -->
    <g transform="translate(375.22944 298.262739)scale(0.17 -0.17)">
     <defs>
      <path d="M 53.515625 70.515625 
L 53.515625 60.890625 
Q 47.90625 63.578125 42.921875 64.890625 
Q 37.9375 66.21875 33.296875 66.21875 
Q 25.25 66.21875 20.875 63.09375 
Q 16.5 59.96875 16.5 54.203125 
Q 16.5 49.359375 19.40625 46.890625 
Q 22.3125 44.4375 30.421875 42.921875 
L 36.375 41.703125 
Q 47.40625 39.59375 52.65625 34.296875 
Q 57.90625 29 57.90625 20.125 
Q 57.90625 9.515625 50.796875 4.046875 
Q 43.703125 -1.421875 29.984375 -1.421875 
Q 24.8125 -1.421875 18.96875 -0.25 
Q 13.140625 0.921875 6.890625 3.21875 
L 6.890625 13.375 
Q 12.890625 10.015625 18.65625 8.296875 
Q 24.421875 6.59375 29.984375 6.59375 
Q 38.421875 6.59375 43.015625 9.90625 
Q 47.609375 13.234375 47.609375 19.390625 
Q 47.609375 24.75 44.3125 27.78125 
Q 41.015625 30.8125 33.5 32.328125 
L 27.484375 33.5 
Q 16.453125 35.6875 11.515625 40.375 
Q 6.59375 45.0625 6.59375 53.421875 
Q 6.59375 63.09375 13.40625 68.65625 
Q 20.21875 74.21875 32.171875 74.21875 
Q 37.3125 74.21875 42.625 73.28125 
Q 47.953125 72.359375 53.515625 70.515625 
z
" id="DejaVuSans-83"/>
      <path d="M 9.8125 72.90625 
L 24.515625 72.90625 
L 43.109375 23.296875 
L 61.8125 72.90625 
L 76.515625 72.90625 
L 76.515625 0 
L 66.890625 0 
L 66.890625 64.015625 
L 48.09375 14.015625 
L 38.1875 14.015625 
L 19.390625 64.015625 
L 19.390625 0 
L 9.8125 0 
z
" id="DejaVuSans-77"/>
      <path d="M 9.8125 72.90625 
L 55.90625 72.90625 
L 55.90625 64.59375 
L 19.671875 64.59375 
L 19.671875 43.015625 
L 54.390625 43.015625 
L 54.390625 34.71875 
L 19.671875 34.71875 
L 19.671875 8.296875 
L 56.78125 8.296875 
L 56.78125 0 
L 9.8125 0 
z
" id="DejaVuSans-69"/>
      <path d="M 39.40625 66.21875 
Q 28.65625 66.21875 22.328125 58.203125 
Q 16.015625 50.203125 16.015625 36.375 
Q 16.015625 22.609375 22.328125 14.59375 
Q 28.65625 6.59375 39.40625 6.59375 
Q 50.140625 6.59375 56.421875 14.59375 
Q 62.703125 22.609375 62.703125 36.375 
Q 62.703125 50.203125 56.421875 58.203125 
Q 50.140625 66.21875 39.40625 66.21875 
z
M 39.40625 74.21875 
Q 54.734375 74.21875 63.90625 63.9375 
Q 73.09375 53.65625 73.09375 36.375 
Q 73.09375 19.140625 63.90625 8.859375 
Q 54.734375 -1.421875 39.40625 -1.421875 
Q 24.03125 -1.421875 14.8125 8.828125 
Q 5.609375 19.09375 5.609375 36.375 
Q 5.609375 53.65625 14.8125 63.9375 
Q 24.03125 74.21875 39.40625 74.21875 
z
" id="DejaVuSans-79"/>
      <path d="M 34.1875 63.1875 
L 20.796875 26.90625 
L 47.609375 26.90625 
z
M 28.609375 72.90625 
L 39.796875 72.90625 
L 67.578125 0 
L 57.328125 0 
L 50.6875 18.703125 
L 17.828125 18.703125 
L 11.1875 0 
L 0.78125 0 
z
" id="DejaVuSans-65"/>
     </defs>
     <use xlink:href="#DejaVuSans-83"/>
     <use x="63.476562" xlink:href="#DejaVuSans-77"/>
     <use x="149.755859" xlink:href="#DejaVuSans-83"/>
     <use x="213.232422" xlink:href="#DejaVuSans-45"/>
     <use x="249.316406" xlink:href="#DejaVuSans-69"/>
     <use x="312.5" xlink:href="#DejaVuSans-77"/>
     <use x="398.779297" xlink:href="#DejaVuSans-79"/>
     <use x="475.740234" xlink:href="#DejaVuSans-65"/>
     <use x="541.898438" xlink:href="#DejaVuSans-45"/>
    </g>
   </g>
   <g id="text_14">
    <!-- NSGA-II-M -->
    <g transform="translate(375.22944 212.307571)scale(0.17 -0.17)">
     <defs>
      <path d="M 9.8125 72.90625 
L 23.09375 72.90625 
L 55.421875 11.921875 
L 55.421875 72.90625 
L 64.984375 72.90625 
L 64.984375 0 
L 51.703125 0 
L 19.390625 60.984375 
L 19.390625 0 
L 9.8125 0 
z
" id="DejaVuSans-78"/>
      <path d="M 59.515625 10.40625 
L 59.515625 29.984375 
L 43.40625 29.984375 
L 43.40625 38.09375 
L 69.28125 38.09375 
L 69.28125 6.78125 
Q 63.578125 2.734375 56.6875 0.65625 
Q 49.8125 -1.421875 42 -1.421875 
Q 24.90625 -1.421875 15.25 8.5625 
Q 5.609375 18.5625 5.609375 36.375 
Q 5.609375 54.25 15.25 64.234375 
Q 24.90625 74.21875 42 74.21875 
Q 49.125 74.21875 55.546875 72.453125 
Q 61.96875 70.703125 67.390625 67.28125 
L 67.390625 56.78125 
Q 61.921875 61.421875 55.765625 63.765625 
Q 49.609375 66.109375 42.828125 66.109375 
Q 29.4375 66.109375 22.71875 58.640625 
Q 16.015625 51.171875 16.015625 36.375 
Q 16.015625 21.625 22.71875 14.15625 
Q 29.4375 6.6875 42.828125 6.6875 
Q 48.046875 6.6875 52.140625 7.59375 
Q 56.25 8.5 59.515625 10.40625 
z
" id="DejaVuSans-71"/>
      <path d="M 9.8125 72.90625 
L 19.671875 72.90625 
L 19.671875 0 
L 9.8125 0 
z
" id="DejaVuSans-73"/>
     </defs>
     <use xlink:href="#DejaVuSans-78"/>
     <use x="74.804688" xlink:href="#DejaVuSans-83"/>
     <use x="138.28125" xlink:href="#DejaVuSans-71"/>
     <use x="215.771484" xlink:href="#DejaVuSans-65"/>
     <use x="281.929688" xlink:href="#DejaVuSans-45"/>
     <use x="318.013672" xlink:href="#DejaVuSans-73"/>
     <use x="347.505859" xlink:href="#DejaVuSans-73"/>
     <use x="376.998047" xlink:href="#DejaVuSans-45"/>
     <use x="413.082031" xlink:href="#DejaVuSans-77"/>
    </g>
   </g>
   <g id="text_15">
    <!-- COMO-100  -->
    <g transform="translate(375.22944 126.352403)scale(0.17 -0.17)">
     <defs>
      <path d="M 64.40625 67.28125 
L 64.40625 56.890625 
Q 59.421875 61.53125 53.78125 63.8125 
Q 48.140625 66.109375 41.796875 66.109375 
Q 29.296875 66.109375 22.65625 58.46875 
Q 16.015625 50.828125 16.015625 36.375 
Q 16.015625 21.96875 22.65625 14.328125 
Q 29.296875 6.6875 41.796875 6.6875 
Q 48.140625 6.6875 53.78125 8.984375 
Q 59.421875 11.28125 64.40625 15.921875 
L 64.40625 5.609375 
Q 59.234375 2.09375 53.4375 0.328125 
Q 47.65625 -1.421875 41.21875 -1.421875 
Q 24.65625 -1.421875 15.125 8.703125 
Q 5.609375 18.84375 5.609375 36.375 
Q 5.609375 53.953125 15.125 64.078125 
Q 24.65625 74.21875 41.21875 74.21875 
Q 47.75 74.21875 53.53125 72.484375 
Q 59.328125 70.75 64.40625 67.28125 
z
" id="DejaVuSans-67"/>
     </defs>
     <use xlink:href="#DejaVuSans-67"/>
     <use x="69.824219" xlink:href="#DejaVuSans-79"/>
     <use x="148.535156" xlink:href="#DejaVuSans-77"/>
     <use x="234.814453" xlink:href="#DejaVuSans-79"/>
     <use x="316.275391" xlink:href="#DejaVuSans-45"/>
     <use x="352.359375" xlink:href="#DejaVuSans-49"/>
     <use x="415.982422" xlink:href="#DejaVuSans-48"/>
     <use x="479.605469" xlink:href="#DejaVuSans-48"/>
     <use x="543.228516" xlink:href="#DejaVuSans-32"/>
    </g>
   </g>
   <g id="text_16">
    <!-- best 2016 -->
    <g transform="translate(375.22944 40.397235)scale(0.17 -0.17)">
     <defs>
      <path d="M 48.6875 27.296875 
Q 48.6875 37.203125 44.609375 42.84375 
Q 40.53125 48.484375 33.40625 48.484375 
Q 26.265625 48.484375 22.1875 42.84375 
Q 18.109375 37.203125 18.109375 27.296875 
Q 18.109375 17.390625 22.1875 11.75 
Q 26.265625 6.109375 33.40625 6.109375 
Q 40.53125 6.109375 44.609375 11.75 
Q 48.6875 17.390625 48.6875 27.296875 
z
M 18.109375 46.390625 
Q 20.953125 51.265625 25.265625 53.625 
Q 29.59375 56 35.59375 56 
Q 45.5625 56 51.78125 48.09375 
Q 58.015625 40.1875 58.015625 27.296875 
Q 58.015625 14.40625 51.78125 6.484375 
Q 45.5625 -1.421875 35.59375 -1.421875 
Q 29.59375 -1.421875 25.265625 0.953125 
Q 20.953125 3.328125 18.109375 8.203125 
L 18.109375 0 
L 9.078125 0 
L 9.078125 75.984375 
L 18.109375 75.984375 
z
" id="DejaVuSans-98"/>
     </defs>
     <use xlink:href="#DejaVuSans-98"/>
     <use x="63.476562" xlink:href="#DejaVuSans-101"/>
     <use x="125" xlink:href="#DejaVuSans-115"/>
     <use x="177.099609" xlink:href="#DejaVuSans-116"/>
     <use x="216.308594" xlink:href="#DejaVuSans-32"/>
     <use x="248.095703" xlink:href="#DejaVuSans-50"/>
     <use x="311.71875" xlink:href="#DejaVuSans-48"/>
     <use x="375.341797" xlink:href="#DejaVuSans-49"/>
     <use x="438.964844" xlink:href="#DejaVuSans-54"/>
    </g>
   </g>
   <g id="text_17">
    <!-- bbob-biobj f12, 3-D -->
    <g transform="translate(60.41088 38.111366)scale(0.102 -0.102)">
     <defs>
      <path d="M 9.421875 54.6875 
L 18.40625 54.6875 
L 18.40625 -0.984375 
Q 18.40625 -11.421875 14.421875 -16.109375 
Q 10.453125 -20.796875 1.609375 -20.796875 
L -1.8125 -20.796875 
L -1.8125 -13.1875 
L 0.59375 -13.1875 
Q 5.71875 -13.1875 7.5625 -10.8125 
Q 9.421875 -8.453125 9.421875 -0.984375 
z
M 9.421875 75.984375 
L 18.40625 75.984375 
L 18.40625 64.59375 
L 9.421875 64.59375 
z
" id="DejaVuSans-106"/>
      <path d="M 40.578125 39.3125 
Q 47.65625 37.796875 51.625 33 
Q 55.609375 28.21875 55.609375 21.1875 
Q 55.609375 10.40625 48.1875 4.484375 
Q 40.765625 -1.421875 27.09375 -1.421875 
Q 22.515625 -1.421875 17.65625 -0.515625 
Q 12.796875 0.390625 7.625 2.203125 
L 7.625 11.71875 
Q 11.71875 9.328125 16.59375 8.109375 
Q 21.484375 6.890625 26.8125 6.890625 
Q 36.078125 6.890625 40.9375 10.546875 
Q 45.796875 14.203125 45.796875 21.1875 
Q 45.796875 27.640625 41.28125 31.265625 
Q 36.765625 34.90625 28.71875 34.90625 
L 20.21875 34.90625 
L 20.21875 43.015625 
L 29.109375 43.015625 
Q 36.375 43.015625 40.234375 45.921875 
Q 44.09375 48.828125 44.09375 54.296875 
Q 44.09375 59.90625 40.109375 62.90625 
Q 36.140625 65.921875 28.71875 65.921875 
Q 24.65625 65.921875 20.015625 65.03125 
Q 15.375 64.15625 9.8125 62.3125 
L 9.8125 71.09375 
Q 15.4375 72.65625 20.34375 73.4375 
Q 25.25 74.21875 29.59375 74.21875 
Q 40.828125 74.21875 47.359375 69.109375 
Q 53.90625 64.015625 53.90625 55.328125 
Q 53.90625 49.265625 50.4375 45.09375 
Q 46.96875 40.921875 40.578125 39.3125 
z
" id="DejaVuSans-51"/>
      <path d="M 19.671875 64.796875 
L 19.671875 8.109375 
L 31.59375 8.109375 
Q 46.6875 8.109375 53.6875 14.9375 
Q 60.6875 21.78125 60.6875 36.53125 
Q 60.6875 51.171875 53.6875 57.984375 
Q 46.6875 64.796875 31.59375 64.796875 
z
M 9.8125 72.90625 
L 30.078125 72.90625 
Q 51.265625 72.90625 61.171875 64.09375 
Q 71.09375 55.28125 71.09375 36.53125 
Q 71.09375 17.671875 61.125 8.828125 
Q 51.171875 0 30.078125 0 
L 9.8125 0 
z
" id="DejaVuSans-68"/>
     </defs>
     <use xlink:href="#DejaVuSans-98"/>
     <use x="63.476562" xlink:href="#DejaVuSans-98"/>
     <use x="126.953125" xlink:href="#DejaVuSans-111"/>
     <use x="188.134766" xlink:href="#DejaVuSans-98"/>
     <use x="251.611328" xlink:href="#DejaVuSans-45"/>
     <use x="287.695312" xlink:href="#DejaVuSans-98"/>
     <use x="351.171875" xlink:href="#DejaVuSans-105"/>
     <use x="378.955078" xlink:href="#DejaVuSans-111"/>
     <use x="440.136719" xlink:href="#DejaVuSans-98"/>
     <use x="503.613281" xlink:href="#DejaVuSans-106"/>
     <use x="531.396484" xlink:href="#DejaVuSans-32"/>
     <use x="563.183594" xlink:href="#DejaVuSans-102"/>
     <use x="598.388672" xlink:href="#DejaVuSans-49"/>
     <use x="662.011719" xlink:href="#DejaVuSans-50"/>
     <use x="725.634766" xlink:href="#DejaVuSans-44"/>
     <use x="757.421875" xlink:href="#DejaVuSans-32"/>
     <use x="789.208984" xlink:href="#DejaVuSans-51"/>
     <use x="852.832031" xlink:href="#DejaVuSans-45"/>
     <use x="888.916016" xlink:href="#DejaVuSans-68"/>
    </g>
    <!-- 58 targets: 1..-1.0e-4 -->
    <g transform="translate(60.41088 49.533135)scale(0.102 -0.102)">
     <defs>
      <path d="M 10.796875 72.90625 
L 49.515625 72.90625 
L 49.515625 64.59375 
L 19.828125 64.59375 
L 19.828125 46.734375 
Q 21.96875 47.46875 24.109375 47.828125 
Q 26.265625 48.1875 28.421875 48.1875 
Q 40.625 48.1875 47.75 41.5 
Q 54.890625 34.8125 54.890625 23.390625 
Q 54.890625 11.625 47.5625 5.09375 
Q 40.234375 -1.421875 26.90625 -1.421875 
Q 22.3125 -1.421875 17.546875 -0.640625 
Q 12.796875 0.140625 7.71875 1.703125 
L 7.71875 11.625 
Q 12.109375 9.234375 16.796875 8.0625 
Q 21.484375 6.890625 26.703125 6.890625 
Q 35.15625 6.890625 40.078125 11.328125 
Q 45.015625 15.765625 45.015625 23.390625 
Q 45.015625 31 40.078125 35.4375 
Q 35.15625 39.890625 26.703125 39.890625 
Q 22.75 39.890625 18.8125 39.015625 
Q 14.890625 38.140625 10.796875 36.28125 
z
" id="DejaVuSans-53"/>
      <path d="M 11.71875 12.40625 
L 22.015625 12.40625 
L 22.015625 0 
L 11.71875 0 
z
M 11.71875 51.703125 
L 22.015625 51.703125 
L 22.015625 39.3125 
L 11.71875 39.3125 
z
" id="DejaVuSans-58"/>
     </defs>
     <use xlink:href="#DejaVuSans-53"/>
     <use x="63.623047" xlink:href="#DejaVuSans-56"/>
     <use x="127.246094" xlink:href="#DejaVuSans-32"/>
     <use x="159.033203" xlink:href="#DejaVuSans-116"/>
     <use x="198.242188" xlink:href="#DejaVuSans-97"/>
     <use x="259.521484" xlink:href="#DejaVuSans-114"/>
     <use x="298.884766" xlink:href="#DejaVuSans-103"/>
     <use x="362.361328" xlink:href="#DejaVuSans-101"/>
     <use x="423.884766" xlink:href="#DejaVuSans-116"/>
     <use x="463.09375" xlink:href="#DejaVuSans-115"/>
     <use x="515.193359" xlink:href="#DejaVuSans-58"/>
     <use x="548.884766" xlink:href="#DejaVuSans-32"/>
     <use x="580.671875" xlink:href="#DejaVuSans-49"/>
     <use x="644.294922" xlink:href="#DejaVuSans-46"/>
     <use x="676.082031" xlink:href="#DejaVuSans-46"/>
     <use x="707.869141" xlink:href="#DejaVuSans-45"/>
     <use x="743.953125" xlink:href="#DejaVuSans-49"/>
     <use x="807.576172" xlink:href="#DejaVuSans-46"/>
     <use x="839.363281" xlink:href="#DejaVuSans-48"/>
     <use x="902.986328" xlink:href="#DejaVuSans-101"/>
     <use x="964.509766" xlink:href="#DejaVuSans-45"/>
     <use x="1000.59375" xlink:href="#DejaVuSans-52"/>
    </g>
    <!-- 10 instances -->
    <g transform="translate(60.41088 60.954904)scale(0.102 -0.102)">
     <use xlink:href="#DejaVuSans-49"/>
     <use x="63.623047" xlink:href="#DejaVuSans-48"/>
     <use x="127.246094" xlink:href="#DejaVuSans-32"/>
     <use x="159.033203" xlink:href="#DejaVuSans-105"/>
     <use x="186.816406" xlink:href="#DejaVuSans-110"/>
     <use x="250.195312" xlink:href="#DejaVuSans-115"/>
     <use x="302.294922" xlink:href="#DejaVuSans-116"/>
     <use x="341.503906" xlink:href="#DejaVuSans-97"/>
     <use x="402.783203" xlink:href="#DejaVuSans-110"/>
     <use x="466.162109" xlink:href="#DejaVuSans-99"/>
     <use x="521.142578" xlink:href="#DejaVuSans-101"/>
     <use x="582.666016" xlink:href="#DejaVuSans-115"/>
    </g>
   </g>
   <g id="text_18">
    <!-- v2.4.19, hv-hash=ff0e71e8cd978373 -->
    <g style="fill:#808080;" transform="translate(104.697125 294.151352)scale(0.1 -0.1)">
     <defs>
      <path d="M 10.984375 1.515625 
L 10.984375 10.5 
Q 14.703125 8.734375 18.5 7.8125 
Q 22.3125 6.890625 25.984375 6.890625 
Q 35.75 6.890625 40.890625 13.453125 
Q 46.046875 20.015625 46.78125 33.40625 
Q 43.953125 29.203125 39.59375 26.953125 
Q 35.25 24.703125 29.984375 24.703125 
Q 19.046875 24.703125 12.671875 31.3125 
Q 6.296875 37.9375 6.296875 49.421875 
Q 6.296875 60.640625 12.9375 67.421875 
Q 19.578125 74.21875 30.609375 74.21875 
Q 43.265625 74.21875 49.921875 64.515625 
Q 56.59375 54.828125 56.59375 36.375 
Q 56.59375 19.140625 48.40625 8.859375 
Q 40.234375 -1.421875 26.421875 -1.421875 
Q 22.703125 -1.421875 18.890625 -0.6875 
Q 15.09375 0.046875 10.984375 1.515625 
z
M 30.609375 32.421875 
Q 37.25 32.421875 41.125 36.953125 
Q 45.015625 41.5 45.015625 49.421875 
Q 45.015625 57.28125 41.125 61.84375 
Q 37.25 66.40625 30.609375 66.40625 
Q 23.96875 66.40625 20.09375 61.84375 
Q 16.21875 57.28125 16.21875 49.421875 
Q 16.21875 41.5 20.09375 36.953125 
Q 23.96875 32.421875 30.609375 32.421875 
z
" id="DejaVuSans-57"/>
      <path d="M 54.890625 33.015625 
L 54.890625 0 
L 45.90625 0 
L 45.90625 32.71875 
Q 45.90625 40.484375 42.875 44.328125 
Q 39.84375 48.1875 33.796875 48.1875 
Q 26.515625 48.1875 22.3125 43.546875 
Q 18.109375 38.921875 18.109375 30.90625 
L 18.109375 0 
L 9.078125 0 
L 9.078125 75.984375 
L 18.109375 75.984375 
L 18.109375 46.1875 
Q 21.34375 51.125 25.703125 53.5625 
Q 30.078125 56 35.796875 56 
Q 45.21875 56 50.046875 50.171875 
Q 54.890625 44.34375 54.890625 33.015625 
z
" id="DejaVuSans-104"/>
      <path d="M 10.59375 45.40625 
L 73.1875 45.40625 
L 73.1875 37.203125 
L 10.59375 37.203125 
z
M 10.59375 25.484375 
L 73.1875 25.484375 
L 73.1875 17.1875 
L 10.59375 17.1875 
z
" id="DejaVuSans-61"/>
      <path d="M 8.203125 72.90625 
L 55.078125 72.90625 
L 55.078125 68.703125 
L 28.609375 0 
L 18.3125 0 
L 43.21875 64.59375 
L 8.203125 64.59375 
z
" id="DejaVuSans-55"/>
     </defs>
     <use xlink:href="#DejaVuSans-118"/>
     <use x="59.179688" xlink:href="#DejaVuSans-50"/>
     <use x="122.802734" xlink:href="#DejaVuSans-46"/>
     <use x="154.589844" xlink:href="#DejaVuSans-52"/>
     <use x="218.212891" xlink:href="#DejaVuSans-46"/>
     <use x="250" xlink:href="#DejaVuSans-49"/>
     <use x="313.623047" xlink:href="#DejaVuSans-57"/>
     <use x="377.246094" xlink:href="#DejaVuSans-44"/>
     <use x="409.033203" xlink:href="#DejaVuSans-32"/>
     <use x="440.820312" xlink:href="#DejaVuSans-104"/>
     <use x="504.199219" xlink:href="#DejaVuSans-118"/>
     <use x="560.753906" xlink:href="#DejaVuSans-45"/>
     <use x="596.837891" xlink:href="#DejaVuSans-104"/>
     <use x="660.216797" xlink:href="#DejaVuSans-97"/>
     <use x="721.496094" xlink:href="#DejaVuSans-115"/>
     <use x="773.595703" xlink:href="#DejaVuSans-104"/>
     <use x="836.974609" xlink:href="#DejaVuSans-61"/>
     <use x="920.763672" xlink:href="#DejaVuSans-102"/>
     <use x="955.96875" xlink:href="#DejaVuSans-102"/>
     <use x="991.173828" xlink:href="#DejaVuSans-48"/>
     <use x="1054.796875" xlink:href="#DejaVuSans-101"/>
     <use x="1116.320312" xlink:href="#DejaVuSans-55"/>
     <use x="1179.943359" xlink:href="#DejaVuSans-49"/>
     <use x="1243.566406" xlink:href="#DejaVuSans-101"/>
     <use x="1305.089844" xlink:href="#DejaVuSans-56"/>
     <use x="1368.712891" xlink:href="#DejaVuSans-99"/>
     <use x="1423.693359" xlink:href="#DejaVuSans-100"/>
     <use x="1487.169922" xlink:href="#DejaVuSans-57"/>
     <use x="1550.792969" xlink:href="#DejaVuSans-55"/>
     <use x="1614.416016" xlink:href="#DejaVuSans-56"/>
     <use x="1678.039062" xlink:href="#DejaVuSans-51"/>
     <use x="1741.662109" xlink:href="#DejaVuSans-55"/>
     <use x="1805.285156" xlink:href="#DejaVuSans-51"/>
    </g>
   </g>
   <g id="text_19">
    <!-- 12 sep. Ellipsoid/Attr. sector -->
    <g transform="translate(58.276812 21.648)scale(0.2 -0.2)">
     <use xlink:href="#DejaVuSans-49"/>
     <use x="63.623047" xlink:href="#DejaVuSans-50"/>
     <use x="127.246094" xlink:href="#DejaVuSans-32"/>
     <use x="159.033203" xlink:href="#DejaVuSans-115"/>
     <use x="211.132812" xlink:href="#DejaVuSans-101"/>
     <use x="272.65625" xlink:href="#DejaVuSans-112"/>
     <use x="336.132812" xlink:href="#DejaVuSans-46"/>
     <use x="367.919922" xlink:href="#DejaVuSans-32"/>
     <use x="399.707031" xlink:href="#DejaVuSans-69"/>
     <use x="462.890625" xlink:href="#DejaVuSans-108"/>
     <use x="490.673828" xlink:href="#DejaVuSans-108"/>
     <use x="518.457031" xlink:href="#DejaVuSans-105"/>
     <use x="546.240234" xlink:href="#DejaVuSans-112"/>
     <use x="609.716797" xlink:href="#DejaVuSans-115"/>
     <use x="661.816406" xlink:href="#DejaVuSans-111"/>
     <use x="722.998047" xlink:href="#DejaVuSans-105"/>
     <use x="750.78125" xlink:href="#DejaVuSans-100"/>
     <use x="814.257812" xlink:href="#DejaVuSans-47"/>
     <use x="847.949219" xlink:href="#DejaVuSans-65"/>
     <use x="914.607422" xlink:href="#DejaVuSans-116"/>
     <use x="953.816406" xlink:href="#DejaVuSans-116"/>
     <use x="993.025391" xlink:href="#DejaVuSans-114"/>
     <use x="1025.013672" xlink:href="#DejaVuSans-46"/>
     <use x="1056.800781" xlink:href="#DejaVuSans-32"/>
     <use x="1088.587891" xlink:href="#DejaVuSans-115"/>
     <use x="1140.6875" xlink:href="#DejaVuSans-101"/>
     <use x="1202.210938" xlink:href="#DejaVuSans-99"/>
     <use x="1257.191406" xlink:href="#DejaVuSans-116"/>
     <use x="1296.400391" xlink:href="#DejaVuSans-111"/>
     <use x="1357.582031" xlink:href="#DejaVuSans-114"/>
    </g>
   </g>
  </g>
 </g>
 <defs>
  <clipPath id="p681e984a46">
   <rect height="271.296" width="281.088" x="57.6" y="27.648"/>
  </clipPath>
 </defs>
</svg>
