<?xml version="1.0" encoding="utf-8" standalone="no"?>
<!DOCTYPE svg PUBLIC "-//W3C//DTD SVG 1.1//EN"
  "http://www.w3.org/Graphics/SVG/1.1/DTD/svg11.dtd">
<!-- Created with matplotlib (https://matplotlib.org/) -->
<svg height="345.6pt" version="1.1" viewBox="0 0 460.8 345.6" width="460.8pt" xmlns="http://www.w3.org/2000/svg" xmlns:xlink="http://www.w3.org/1999/xlink">
 <metadata>
  <rdf:RDF xmlns:cc="http://creativecommons.org/ns#" xmlns:dc="http://purl.org/dc/elements/1.1/" xmlns:rdf="http://www.w3.org/1999/02/22-rdf-syntax-ns#">
   <cc:Work>
    <dc:type rdf:resource="http://purl.org/dc/dcmitype/StillImage"/>
    <dc:date>2021-04-26T15:05:42.999191</dc:date>
    <dc:format>image/svg+xml</dc:format>
    <dc:creator>
     <cc:Agent>
      <dc:title>Matplotlib v3.3.2, https://matplotlib.org/</dc:title>
     </cc:Agent>
    </dc:creator>
   </cc:Work>
  </rdf:RDF>
 </metadata>
 <defs>
  <style type="text/css">*{stroke-linecap:butt;stroke-linejoin:round;}</style>
 </defs>
 <g id="figure_1">
  <g id="patch_1">
   <path d="M 0 345.6 
L 460.8 345.6 
L 460.8 0 
L 0 0 
z
" style="fill:#ffffff;"/>
  </g>
  <g id="axes_1">
   <g id="patch_2">
    <path d="M 57.6 298.944 
L 338.688 298.944 
L 338.688 27.648 
L 57.6 27.648 
z
" style="fill:#ffffff;"/>
   </g>
   <g id="line2d_1">
    <path d="M 50.52898 298.944 
L 50.52898 294.312795 
L 74.704957 294.312795 
L 74.704957 285.050384 
L 88.846997 285.050384 
L 88.846997 275.787974 
L 135.548916 275.787974 
L 135.548916 271.156769 
L 143.014805 271.156769 
L 143.014805 257.263153 
L 151.660987 257.263153 
L 151.660987 248.000743 
L 159.84099 248.000743 
L 159.84099 243.369538 
L 171.366236 243.369538 
L 171.366236 234.107127 
L 182.092094 234.107127 
L 182.092094 220.213512 
L 189.290324 220.213512 
L 189.290324 210.951101 
L 195.53581 210.951101 
L 195.53581 201.688691 
L 204.186164 201.688691 
L 204.186164 192.426281 
L 216.921095 192.426281 
L 216.921095 187.795075 
L 217.208697 187.795075 
L 217.208697 173.90146 
L 245.138208 173.90146 
L 245.138208 169.270255 
L 249.307918 169.270255 
L 249.307918 155.376639 
L 254.369248 155.376639 
L 254.369248 146.114229 
L 255.473719 146.114229 
L 255.473719 141.483024 
L 258.11847 141.483024 
L 258.11847 127.589408 
L 260.365551 127.589408 
L 260.365551 122.958203 
L 263.92322 122.958203 
L 263.92322 109.064587 
L 266.175167 109.064587 
L 266.175167 99.802177 
L 271.3269 99.802177 
L 271.3269 90.539766 
L 274.226595 90.539766 
L 274.226595 85.908561 
L 282.964661 85.908561 
L 282.964661 76.646151 
L 284.096255 76.646151 
L 284.096255 62.752535 
L 338.688 62.752535 
" style="fill:none;stroke:#f5deb3;stroke-linecap:square;stroke-width:4;"/>
   </g>
   <g id="line2d_2">
    <defs>
     <path d="M 0 7.778175 
L 7.778175 0 
L 0 -7.778175 
L -7.778175 0 
z
" id="m2b1f53a1a8" style="stroke:#f5deb3;stroke-linejoin:miter;stroke-width:1.5;"/>
    </defs>
    <g>
     <use style="fill:#f5deb3;stroke:#f5deb3;stroke-linejoin:miter;stroke-width:1.5;" x="151.660987" xlink:href="#m2b1f53a1a8" y="257.263153"/>
     <use style="fill:#f5deb3;stroke:#f5deb3;stroke-linejoin:miter;stroke-width:1.5;" x="204.186164" xlink:href="#m2b1f53a1a8" y="201.688691"/>
     <use style="fill:#f5deb3;stroke:#f5deb3;stroke-linejoin:miter;stroke-width:1.5;" x="260.365551" xlink:href="#m2b1f53a1a8" y="122.958203"/>
     <use style="fill:#f5deb3;stroke:#f5deb3;stroke-linejoin:miter;stroke-width:1.5;" x="284.096255" xlink:href="#m2b1f53a1a8" y="62.752535"/>
     <use style="fill:#f5deb3;stroke:#f5deb3;stroke-linejoin:miter;stroke-width:1.5;" x="284.096255" xlink:href="#m2b1f53a1a8" y="62.752535"/>
     <use style="fill:#f5deb3;stroke:#f5deb3;stroke-linejoin:miter;stroke-width:1.5;" x="338.688" xlink:href="#m2b1f53a1a8" y="62.752535"/>
    </g>
   </g>
   <g id="line2d_3">
    <path style="fill:none;stroke:#f5deb3;stroke-linecap:square;stroke-width:4;"/>
    <g/>
   </g>
   <g id="line2d_4">
    <path d="M 338.688 62.752535 
L 369.60768 35.706297 
" style="fill:none;stroke:#f5deb3;stroke-linecap:square;stroke-width:4;"/>
    <g>
     <use style="fill:#f5deb3;stroke:#f5deb3;stroke-linejoin:miter;stroke-width:1.5;" x="338.688" xlink:href="#m2b1f53a1a8" y="62.752535"/>
     <use style="fill:#f5deb3;stroke:#f5deb3;stroke-linejoin:miter;stroke-width:1.5;" x="369.60768" xlink:href="#m2b1f53a1a8" y="35.706297"/>
    </g>
   </g>
   <g id="matplotlib.axis_1">
    <g id="xtick_1">
     <g id="line2d_5">
      <path clip-path="url(#p646c656b6b)" d="M 57.6 298.944 
L 57.6 27.648 
" style="fill:none;stroke:#b0b0b0;stroke-linecap:square;stroke-width:0.8;"/>
     </g>
     <g id="line2d_6">
      <defs>
       <path d="M 0 0 
L 0 3.5 
" id="me19d5b361f" style="stroke:#000000;stroke-width:0.8;"/>
      </defs>
      <g>
       <use style="stroke:#000000;stroke-width:0.8;" x="57.6" xlink:href="#me19d5b361f" y="298.944"/>
      </g>
     </g>
     <g id="text_1">
      <!-- 0 -->
      <g transform="translate(51.2375 321.140875)scale(0.2 -0.2)">
       <defs>
        <path d="M 31.78125 66.40625 
Q 24.171875 66.40625 20.328125 58.90625 
Q 16.5 51.421875 16.5 36.375 
Q 16.5 21.390625 20.328125 13.890625 
Q 24.171875 6.390625 31.78125 6.390625 
Q 39.453125 6.390625 43.28125 13.890625 
Q 47.125 21.390625 47.125 36.375 
Q 47.125 51.421875 43.28125 58.90625 
Q 39.453125 66.40625 31.78125 66.40625 
z
M 31.78125 74.21875 
Q 44.046875 74.21875 50.515625 64.515625 
Q 56.984375 54.828125 56.984375 36.375 
Q 56.984375 17.96875 50.515625 8.265625 
Q 44.046875 -1.421875 31.78125 -1.421875 
Q 19.53125 -1.421875 13.0625 8.265625 
Q 6.59375 17.96875 6.59375 36.375 
Q 6.59375 54.828125 13.0625 64.515625 
Q 19.53125 74.21875 31.78125 74.21875 
z
" id="DejaVuSans-48"/>
       </defs>
       <use xlink:href="#DejaVuSans-48"/>
      </g>
     </g>
    </g>
    <g id="xtick_2">
     <g id="line2d_7">
      <path clip-path="url(#p646c656b6b)" d="M 137.910857 298.944 
L 137.910857 27.648 
" style="fill:none;stroke:#b0b0b0;stroke-linecap:square;stroke-width:0.8;"/>
     </g>
     <g id="line2d_8">
      <g>
       <use style="stroke:#000000;stroke-width:0.8;" x="137.910857" xlink:href="#me19d5b361f" y="298.944"/>
      </g>
     </g>
     <g id="text_2">
      <!-- 2 -->
      <g transform="translate(131.548357 321.140875)scale(0.2 -0.2)">
       <defs>
        <path d="M 19.1875 8.296875 
L 53.609375 8.296875 
L 53.609375 0 
L 7.328125 0 
L 7.328125 8.296875 
Q 12.9375 14.109375 22.625 23.890625 
Q 32.328125 33.6875 34.8125 36.53125 
Q 39.546875 41.84375 41.421875 45.53125 
Q 43.3125 49.21875 43.3125 52.78125 
Q 43.3125 58.59375 39.234375 62.25 
Q 35.15625 65.921875 28.609375 65.921875 
Q 23.96875 65.921875 18.8125 64.3125 
Q 13.671875 62.703125 7.8125 59.421875 
L 7.8125 69.390625 
Q 13.765625 71.78125 18.9375 73 
Q 24.125 74.21875 28.421875 74.21875 
Q 39.75 74.21875 46.484375 68.546875 
Q 53.21875 62.890625 53.21875 53.421875 
Q 53.21875 48.921875 51.53125 44.890625 
Q 49.859375 40.875 45.40625 35.40625 
Q 44.1875 33.984375 37.640625 27.21875 
Q 31.109375 20.453125 19.1875 8.296875 
z
" id="DejaVuSans-50"/>
       </defs>
       <use xlink:href="#DejaVuSans-50"/>
      </g>
     </g>
    </g>
    <g id="xtick_3">
     <g id="line2d_9">
      <path clip-path="url(#p646c656b6b)" d="M 218.221714 298.944 
L 218.221714 27.648 
" style="fill:none;stroke:#b0b0b0;stroke-linecap:square;stroke-width:0.8;"/>
     </g>
     <g id="line2d_10">
      <g>
       <use style="stroke:#000000;stroke-width:0.8;" x="218.221714" xlink:href="#me19d5b361f" y="298.944"/>
      </g>
     </g>
     <g id="text_3">
      <!-- 4 -->
      <g transform="translate(211.859214 321.140875)scale(0.2 -0.2)">
       <defs>
        <path d="M 37.796875 64.3125 
L 12.890625 25.390625 
L 37.796875 25.390625 
z
M 35.203125 72.90625 
L 47.609375 72.90625 
L 47.609375 25.390625 
L 58.015625 25.390625 
L 58.015625 17.1875 
L 47.609375 17.1875 
L 47.609375 0 
L 37.796875 0 
L 37.796875 17.1875 
L 4.890625 17.1875 
L 4.890625 26.703125 
z
" id="DejaVuSans-52"/>
       </defs>
       <use xlink:href="#DejaVuSans-52"/>
      </g>
     </g>
    </g>
    <g id="xtick_4">
     <g id="line2d_11">
      <path clip-path="url(#p646c656b6b)" d="M 298.532571 298.944 
L 298.532571 27.648 
" style="fill:none;stroke:#b0b0b0;stroke-linecap:square;stroke-width:0.8;"/>
     </g>
     <g id="line2d_12">
      <g>
       <use style="stroke:#000000;stroke-width:0.8;" x="298.532571" xlink:href="#me19d5b361f" y="298.944"/>
      </g>
     </g>
     <g id="text_4">
      <!-- 6 -->
      <g transform="translate(292.170071 321.140875)scale(0.2 -0.2)">
       <defs>
        <path d="M 33.015625 40.375 
Q 26.375 40.375 22.484375 35.828125 
Q 18.609375 31.296875 18.609375 23.390625 
Q 18.609375 15.53125 22.484375 10.953125 
Q 26.375 6.390625 33.015625 6.390625 
Q 39.65625 6.390625 43.53125 10.953125 
Q 47.40625 15.53125 47.40625 23.390625 
Q 47.40625 31.296875 43.53125 35.828125 
Q 39.65625 40.375 33.015625 40.375 
z
M 52.59375 71.296875 
L 52.59375 62.3125 
Q 48.875 64.0625 45.09375 64.984375 
Q 41.3125 65.921875 37.59375 65.921875 
Q 27.828125 65.921875 22.671875 59.328125 
Q 17.53125 52.734375 16.796875 39.40625 
Q 19.671875 43.65625 24.015625 45.921875 
Q 28.375 48.1875 33.59375 48.1875 
Q 44.578125 48.1875 50.953125 41.515625 
Q 57.328125 34.859375 57.328125 23.390625 
Q 57.328125 12.15625 50.6875 5.359375 
Q 44.046875 -1.421875 33.015625 -1.421875 
Q 20.359375 -1.421875 13.671875 8.265625 
Q 6.984375 17.96875 6.984375 36.375 
Q 6.984375 53.65625 15.1875 63.9375 
Q 23.390625 74.21875 37.203125 74.21875 
Q 40.921875 74.21875 44.703125 73.484375 
Q 48.484375 72.75 52.59375 71.296875 
z
" id="DejaVuSans-54"/>
       </defs>
       <use xlink:href="#DejaVuSans-54"/>
      </g>
     </g>
    </g>
    <g id="xtick_5">
     <g id="line2d_13">
      <path clip-path="url(#p646c656b6b)" d="M 97.755429 298.944 
L 97.755429 27.648 
" style="fill:none;stroke:#b0b0b0;stroke-linecap:square;stroke-width:0.8;"/>
     </g>
     <g id="line2d_14">
      <defs>
       <path d="M 0 0 
L 0 2 
" id="m59f045d94a" style="stroke:#000000;stroke-width:0.6;"/>
      </defs>
      <g>
       <use style="stroke:#000000;stroke-width:0.6;" x="97.755429" xlink:href="#m59f045d94a" y="298.944"/>
      </g>
     </g>
    </g>
    <g id="xtick_6">
     <g id="line2d_15">
      <path clip-path="url(#p646c656b6b)" d="M 178.066286 298.944 
L 178.066286 27.648 
" style="fill:none;stroke:#b0b0b0;stroke-linecap:square;stroke-width:0.8;"/>
     </g>
     <g id="line2d_16">
      <g>
       <use style="stroke:#000000;stroke-width:0.6;" x="178.066286" xlink:href="#m59f045d94a" y="298.944"/>
      </g>
     </g>
    </g>
    <g id="xtick_7">
     <g id="line2d_17">
      <path clip-path="url(#p646c656b6b)" d="M 258.377143 298.944 
L 258.377143 27.648 
" style="fill:none;stroke:#b0b0b0;stroke-linecap:square;stroke-width:0.8;"/>
     </g>
     <g id="line2d_18">
      <g>
       <use style="stroke:#000000;stroke-width:0.6;" x="258.377143" xlink:href="#m59f045d94a" y="298.944"/>
      </g>
     </g>
    </g>
    <g id="xtick_8">
     <g id="line2d_19">
      <path clip-path="url(#p646c656b6b)" d="M 338.688 298.944 
L 338.688 27.648 
" style="fill:none;stroke:#b0b0b0;stroke-linecap:square;stroke-width:0.8;"/>
     </g>
     <g id="line2d_20">
      <g>
       <use style="stroke:#000000;stroke-width:0.6;" x="338.688" xlink:href="#m59f045d94a" y="298.944"/>
      </g>
     </g>
    </g>
    <g id="text_5">
     <!-- log10(# f-evals / dimension) -->
     <g transform="translate(77.764078 342.217594)scale(0.17 -0.17)">
      <defs>
       <path d="M 9.421875 75.984375 
L 18.40625 75.984375 
L 18.40625 0 
L 9.421875 0 
z
" id="DejaVuSans-108"/>
       <path d="M 30.609375 48.390625 
Q 23.390625 48.390625 19.1875 42.75 
Q 14.984375 37.109375 14.984375 27.296875 
Q 14.984375 17.484375 19.15625 11.84375 
Q 23.34375 6.203125 30.609375 6.203125 
Q 37.796875 6.203125 41.984375 11.859375 
Q 46.1875 17.53125 46.1875 27.296875 
Q 46.1875 37.015625 41.984375 42.703125 
Q 37.796875 48.390625 30.609375 48.390625 
z
M 30.609375 56 
Q 42.328125 56 49.015625 48.375 
Q 55.71875 40.765625 55.71875 27.296875 
Q 55.71875 13.875 49.015625 6.21875 
Q 42.328125 -1.421875 30.609375 -1.421875 
Q 18.84375 -1.421875 12.171875 6.21875 
Q 5.515625 13.875 5.515625 27.296875 
Q 5.515625 40.765625 12.171875 48.375 
Q 18.84375 56 30.609375 56 
z
" id="DejaVuSans-111"/>
       <path d="M 45.40625 27.984375 
Q 45.40625 37.75 41.375 43.109375 
Q 37.359375 48.484375 30.078125 48.484375 
Q 22.859375 48.484375 18.828125 43.109375 
Q 14.796875 37.75 14.796875 27.984375 
Q 14.796875 18.265625 18.828125 12.890625 
Q 22.859375 7.515625 30.078125 7.515625 
Q 37.359375 7.515625 41.375 12.890625 
Q 45.40625 18.265625 45.40625 27.984375 
z
M 54.390625 6.78125 
Q 54.390625 -7.171875 48.1875 -13.984375 
Q 42 -20.796875 29.203125 -20.796875 
Q 24.46875 -20.796875 20.265625 -20.09375 
Q 16.0625 -19.390625 12.109375 -17.921875 
L 12.109375 -9.1875 
Q 16.0625 -11.328125 19.921875 -12.34375 
Q 23.78125 -13.375 27.78125 -13.375 
Q 36.625 -13.375 41.015625 -8.765625 
Q 45.40625 -4.15625 45.40625 5.171875 
L 45.40625 9.625 
Q 42.625 4.78125 38.28125 2.390625 
Q 33.9375 0 27.875 0 
Q 17.828125 0 11.671875 7.65625 
Q 5.515625 15.328125 5.515625 27.984375 
Q 5.515625 40.671875 11.671875 48.328125 
Q 17.828125 56 27.875 56 
Q 33.9375 56 38.28125 53.609375 
Q 42.625 51.21875 45.40625 46.390625 
L 45.40625 54.6875 
L 54.390625 54.6875 
z
" id="DejaVuSans-103"/>
       <path d="M 12.40625 8.296875 
L 28.515625 8.296875 
L 28.515625 63.921875 
L 10.984375 60.40625 
L 10.984375 69.390625 
L 28.421875 72.90625 
L 38.28125 72.90625 
L 38.28125 8.296875 
L 54.390625 8.296875 
L 54.390625 0 
L 12.40625 0 
z
" id="DejaVuSans-49"/>
       <path d="M 31 75.875 
Q 24.46875 64.65625 21.28125 53.65625 
Q 18.109375 42.671875 18.109375 31.390625 
Q 18.109375 20.125 21.3125 9.0625 
Q 24.515625 -2 31 -13.1875 
L 23.1875 -13.1875 
Q 15.875 -1.703125 12.234375 9.375 
Q 8.59375 20.453125 8.59375 31.390625 
Q 8.59375 42.28125 12.203125 53.3125 
Q 15.828125 64.359375 23.1875 75.875 
z
" id="DejaVuSans-40"/>
       <path d="M 51.125 44 
L 36.921875 44 
L 32.8125 27.6875 
L 47.125 27.6875 
z
M 43.796875 71.78125 
L 38.71875 51.515625 
L 52.984375 51.515625 
L 58.109375 71.78125 
L 65.921875 71.78125 
L 60.890625 51.515625 
L 76.125 51.515625 
L 76.125 44 
L 58.984375 44 
L 54.984375 27.6875 
L 70.515625 27.6875 
L 70.515625 20.21875 
L 53.078125 20.21875 
L 48 0 
L 40.1875 0 
L 45.21875 20.21875 
L 30.90625 20.21875 
L 25.875 0 
L 18.015625 0 
L 23.09375 20.21875 
L 7.71875 20.21875 
L 7.71875 27.6875 
L 24.90625 27.6875 
L 29 44 
L 13.28125 44 
L 13.28125 51.515625 
L 30.90625 51.515625 
L 35.890625 71.78125 
z
" id="DejaVuSans-35"/>
       <path id="DejaVuSans-32"/>
       <path d="M 37.109375 75.984375 
L 37.109375 68.5 
L 28.515625 68.5 
Q 23.6875 68.5 21.796875 66.546875 
Q 19.921875 64.59375 19.921875 59.515625 
L 19.921875 54.6875 
L 34.71875 54.6875 
L 34.71875 47.703125 
L 19.921875 47.703125 
L 19.921875 0 
L 10.890625 0 
L 10.890625 47.703125 
L 2.296875 47.703125 
L 2.296875 54.6875 
L 10.890625 54.6875 
L 10.890625 58.5 
Q 10.890625 67.625 15.140625 71.796875 
Q 19.390625 75.984375 28.609375 75.984375 
z
" id="DejaVuSans-102"/>
       <path d="M 4.890625 31.390625 
L 31.203125 31.390625 
L 31.203125 23.390625 
L 4.890625 23.390625 
z
" id="DejaVuSans-45"/>
       <path d="M 56.203125 29.59375 
L 56.203125 25.203125 
L 14.890625 25.203125 
Q 15.484375 15.921875 20.484375 11.0625 
Q 25.484375 6.203125 34.421875 6.203125 
Q 39.59375 6.203125 44.453125 7.46875 
Q 49.3125 8.734375 54.109375 11.28125 
L 54.109375 2.78125 
Q 49.265625 0.734375 44.1875 -0.34375 
Q 39.109375 -1.421875 33.890625 -1.421875 
Q 20.796875 -1.421875 13.15625 6.1875 
Q 5.515625 13.8125 5.515625 26.8125 
Q 5.515625 40.234375 12.765625 48.109375 
Q 20.015625 56 32.328125 56 
Q 43.359375 56 49.78125 48.890625 
Q 56.203125 41.796875 56.203125 29.59375 
z
M 47.21875 32.234375 
Q 47.125 39.59375 43.09375 43.984375 
Q 39.0625 48.390625 32.421875 48.390625 
Q 24.90625 48.390625 20.390625 44.140625 
Q 15.875 39.890625 15.1875 32.171875 
z
" id="DejaVuSans-101"/>
       <path d="M 2.984375 54.6875 
L 12.5 54.6875 
L 29.59375 8.796875 
L 46.6875 54.6875 
L 56.203125 54.6875 
L 35.6875 0 
L 23.484375 0 
z
" id="DejaVuSans-118"/>
       <path d="M 34.28125 27.484375 
Q 23.390625 27.484375 19.1875 25 
Q 14.984375 22.515625 14.984375 16.5 
Q 14.984375 11.71875 18.140625 8.90625 
Q 21.296875 6.109375 26.703125 6.109375 
Q 34.1875 6.109375 38.703125 11.40625 
Q 43.21875 16.703125 43.21875 25.484375 
L 43.21875 27.484375 
z
M 52.203125 31.203125 
L 52.203125 0 
L 43.21875 0 
L 43.21875 8.296875 
Q 40.140625 3.328125 35.546875 0.953125 
Q 30.953125 -1.421875 24.3125 -1.421875 
Q 15.921875 -1.421875 10.953125 3.296875 
Q 6 8.015625 6 15.921875 
Q 6 25.140625 12.171875 29.828125 
Q 18.359375 34.515625 30.609375 34.515625 
L 43.21875 34.515625 
L 43.21875 35.40625 
Q 43.21875 41.609375 39.140625 45 
Q 35.0625 48.390625 27.6875 48.390625 
Q 23 48.390625 18.546875 47.265625 
Q 14.109375 46.140625 10.015625 43.890625 
L 10.015625 52.203125 
Q 14.9375 54.109375 19.578125 55.046875 
Q 24.21875 56 28.609375 56 
Q 40.484375 56 46.34375 49.84375 
Q 52.203125 43.703125 52.203125 31.203125 
z
" id="DejaVuSans-97"/>
       <path d="M 44.28125 53.078125 
L 44.28125 44.578125 
Q 40.484375 46.53125 36.375 47.5 
Q 32.28125 48.484375 27.875 48.484375 
Q 21.1875 48.484375 17.84375 46.4375 
Q 14.5 44.390625 14.5 40.28125 
Q 14.5 37.15625 16.890625 35.375 
Q 19.28125 33.59375 26.515625 31.984375 
L 29.59375 31.296875 
Q 39.15625 29.25 43.1875 25.515625 
Q 47.21875 21.78125 47.21875 15.09375 
Q 47.21875 7.46875 41.1875 3.015625 
Q 35.15625 -1.421875 24.609375 -1.421875 
Q 20.21875 -1.421875 15.453125 -0.5625 
Q 10.6875 0.296875 5.421875 2 
L 5.421875 11.28125 
Q 10.40625 8.6875 15.234375 7.390625 
Q 20.0625 6.109375 24.8125 6.109375 
Q 31.15625 6.109375 34.5625 8.28125 
Q 37.984375 10.453125 37.984375 14.40625 
Q 37.984375 18.0625 35.515625 20.015625 
Q 33.0625 21.96875 24.703125 23.78125 
L 21.578125 24.515625 
Q 13.234375 26.265625 9.515625 29.90625 
Q 5.8125 33.546875 5.8125 39.890625 
Q 5.8125 47.609375 11.28125 51.796875 
Q 16.75 56 26.8125 56 
Q 31.78125 56 36.171875 55.265625 
Q 40.578125 54.546875 44.28125 53.078125 
z
" id="DejaVuSans-115"/>
       <path d="M 25.390625 72.90625 
L 33.6875 72.90625 
L 8.296875 -9.28125 
L 0 -9.28125 
z
" id="DejaVuSans-47"/>
       <path d="M 45.40625 46.390625 
L 45.40625 75.984375 
L 54.390625 75.984375 
L 54.390625 0 
L 45.40625 0 
L 45.40625 8.203125 
Q 42.578125 3.328125 38.25 0.953125 
Q 33.9375 -1.421875 27.875 -1.421875 
Q 17.96875 -1.421875 11.734375 6.484375 
Q 5.515625 14.40625 5.515625 27.296875 
Q 5.515625 40.1875 11.734375 48.09375 
Q 17.96875 56 27.875 56 
Q 33.9375 56 38.25 53.625 
Q 42.578125 51.265625 45.40625 46.390625 
z
M 14.796875 27.296875 
Q 14.796875 17.390625 18.875 11.75 
Q 22.953125 6.109375 30.078125 6.109375 
Q 37.203125 6.109375 41.296875 11.75 
Q 45.40625 17.390625 45.40625 27.296875 
Q 45.40625 37.203125 41.296875 42.84375 
Q 37.203125 48.484375 30.078125 48.484375 
Q 22.953125 48.484375 18.875 42.84375 
Q 14.796875 37.203125 14.796875 27.296875 
z
" id="DejaVuSans-100"/>
       <path d="M 9.421875 54.6875 
L 18.40625 54.6875 
L 18.40625 0 
L 9.421875 0 
z
M 9.421875 75.984375 
L 18.40625 75.984375 
L 18.40625 64.59375 
L 9.421875 64.59375 
z
" id="DejaVuSans-105"/>
       <path d="M 52 44.1875 
Q 55.375 50.25 60.0625 53.125 
Q 64.75 56 71.09375 56 
Q 79.640625 56 84.28125 50.015625 
Q 88.921875 44.046875 88.921875 33.015625 
L 88.921875 0 
L 79.890625 0 
L 79.890625 32.71875 
Q 79.890625 40.578125 77.09375 44.375 
Q 74.3125 48.1875 68.609375 48.1875 
Q 61.625 48.1875 57.5625 43.546875 
Q 53.515625 38.921875 53.515625 30.90625 
L 53.515625 0 
L 44.484375 0 
L 44.484375 32.71875 
Q 44.484375 40.625 41.703125 44.40625 
Q 38.921875 48.1875 33.109375 48.1875 
Q 26.21875 48.1875 22.15625 43.53125 
Q 18.109375 38.875 18.109375 30.90625 
L 18.109375 0 
L 9.078125 0 
L 9.078125 54.6875 
L 18.109375 54.6875 
L 18.109375 46.1875 
Q 21.1875 51.21875 25.484375 53.609375 
Q 29.78125 56 35.6875 56 
Q 41.65625 56 45.828125 52.96875 
Q 50 49.953125 52 44.1875 
z
" id="DejaVuSans-109"/>
       <path d="M 54.890625 33.015625 
L 54.890625 0 
L 45.90625 0 
L 45.90625 32.71875 
Q 45.90625 40.484375 42.875 44.328125 
Q 39.84375 48.1875 33.796875 48.1875 
Q 26.515625 48.1875 22.3125 43.546875 
Q 18.109375 38.921875 18.109375 30.90625 
L 18.109375 0 
L 9.078125 0 
L 9.078125 54.6875 
L 18.109375 54.6875 
L 18.109375 46.1875 
Q 21.34375 51.125 25.703125 53.5625 
Q 30.078125 56 35.796875 56 
Q 45.21875 56 50.046875 50.171875 
Q 54.890625 44.34375 54.890625 33.015625 
z
" id="DejaVuSans-110"/>
       <path d="M 8.015625 75.875 
L 15.828125 75.875 
Q 23.140625 64.359375 26.78125 53.3125 
Q 30.421875 42.28125 30.421875 31.390625 
Q 30.421875 20.453125 26.78125 9.375 
Q 23.140625 -1.703125 15.828125 -13.1875 
L 8.015625 -13.1875 
Q 14.5 -2 17.703125 9.0625 
Q 20.90625 20.125 20.90625 31.390625 
Q 20.90625 42.671875 17.703125 53.65625 
Q 14.5 64.65625 8.015625 75.875 
z
" id="DejaVuSans-41"/>
      </defs>
      <use xlink:href="#DejaVuSans-108"/>
      <use x="27.783203" xlink:href="#DejaVuSans-111"/>
      <use x="88.964844" xlink:href="#DejaVuSans-103"/>
      <use x="152.441406" xlink:href="#DejaVuSans-49"/>
      <use x="216.064453" xlink:href="#DejaVuSans-48"/>
      <use x="279.6875" xlink:href="#DejaVuSans-40"/>
      <use x="318.701172" xlink:href="#DejaVuSans-35"/>
      <use x="402.490234" xlink:href="#DejaVuSans-32"/>
      <use x="434.277344" xlink:href="#DejaVuSans-102"/>
      <use x="463.982422" xlink:href="#DejaVuSans-45"/>
      <use x="500.066406" xlink:href="#DejaVuSans-101"/>
      <use x="561.589844" xlink:href="#DejaVuSans-118"/>
      <use x="620.769531" xlink:href="#DejaVuSans-97"/>
      <use x="682.048828" xlink:href="#DejaVuSans-108"/>
      <use x="709.832031" xlink:href="#DejaVuSans-115"/>
      <use x="761.931641" xlink:href="#DejaVuSans-32"/>
      <use x="793.71875" xlink:href="#DejaVuSans-47"/>
      <use x="827.410156" xlink:href="#DejaVuSans-32"/>
      <use x="859.197266" xlink:href="#DejaVuSans-100"/>
      <use x="922.673828" xlink:href="#DejaVuSans-105"/>
      <use x="950.457031" xlink:href="#DejaVuSans-109"/>
      <use x="1047.869141" xlink:href="#DejaVuSans-101"/>
      <use x="1109.392578" xlink:href="#DejaVuSans-110"/>
      <use x="1172.771484" xlink:href="#DejaVuSans-115"/>
      <use x="1224.871094" xlink:href="#DejaVuSans-105"/>
      <use x="1252.654297" xlink:href="#DejaVuSans-111"/>
      <use x="1313.835938" xlink:href="#DejaVuSans-110"/>
      <use x="1377.214844" xlink:href="#DejaVuSans-41"/>
     </g>
    </g>
   </g>
   <g id="matplotlib.axis_2">
    <g id="ytick_1">
     <g id="line2d_21">
      <path clip-path="url(#p646c656b6b)" d="M 57.6 298.944 
L 338.688 298.944 
" style="fill:none;stroke:#b0b0b0;stroke-linecap:square;stroke-width:0.8;"/>
     </g>
     <g id="line2d_22">
      <defs>
       <path d="M 0 0 
L -3.5 0 
" id="mff32004499" style="stroke:#000000;stroke-width:0.8;"/>
      </defs>
      <g>
       <use style="stroke:#000000;stroke-width:0.8;" x="57.6" xlink:href="#mff32004499" y="298.944"/>
      </g>
     </g>
     <g id="text_6">
      <!-- 0.0 -->
      <g transform="translate(25.155 305.02275)scale(0.16 -0.16)">
       <defs>
        <path d="M 10.6875 12.40625 
L 21 12.40625 
L 21 0 
L 10.6875 0 
z
" id="DejaVuSans-46"/>
       </defs>
       <use xlink:href="#DejaVuSans-48"/>
       <use x="63.623047" xlink:href="#DejaVuSans-46"/>
       <use x="95.410156" xlink:href="#DejaVuSans-48"/>
      </g>
     </g>
    </g>
    <g id="ytick_2">
     <g id="line2d_23">
      <path clip-path="url(#p646c656b6b)" d="M 57.6 245.22202 
L 338.688 245.22202 
" style="fill:none;stroke:#b0b0b0;stroke-linecap:square;stroke-width:0.8;"/>
     </g>
     <g id="line2d_24">
      <g>
       <use style="stroke:#000000;stroke-width:0.8;" x="57.6" xlink:href="#mff32004499" y="245.22202"/>
      </g>
     </g>
     <g id="text_7">
      <!-- 0.2 -->
      <g transform="translate(25.155 251.30077)scale(0.16 -0.16)">
       <use xlink:href="#DejaVuSans-48"/>
       <use x="63.623047" xlink:href="#DejaVuSans-46"/>
       <use x="95.410156" xlink:href="#DejaVuSans-50"/>
      </g>
     </g>
    </g>
    <g id="ytick_3">
     <g id="line2d_25">
      <path clip-path="url(#p646c656b6b)" d="M 57.6 191.50004 
L 338.688 191.50004 
" style="fill:none;stroke:#b0b0b0;stroke-linecap:square;stroke-width:0.8;"/>
     </g>
     <g id="line2d_26">
      <g>
       <use style="stroke:#000000;stroke-width:0.8;" x="57.6" xlink:href="#mff32004499" y="191.50004"/>
      </g>
     </g>
     <g id="text_8">
      <!-- 0.4 -->
      <g transform="translate(25.155 197.57879)scale(0.16 -0.16)">
       <use xlink:href="#DejaVuSans-48"/>
       <use x="63.623047" xlink:href="#DejaVuSans-46"/>
       <use x="95.410156" xlink:href="#DejaVuSans-52"/>
      </g>
     </g>
    </g>
    <g id="ytick_4">
     <g id="line2d_27">
      <path clip-path="url(#p646c656b6b)" d="M 57.6 137.778059 
L 338.688 137.778059 
" style="fill:none;stroke:#b0b0b0;stroke-linecap:square;stroke-width:0.8;"/>
     </g>
     <g id="line2d_28">
      <g>
       <use style="stroke:#000000;stroke-width:0.8;" x="57.6" xlink:href="#mff32004499" y="137.778059"/>
      </g>
     </g>
     <g id="text_9">
      <!-- 0.6 -->
      <g transform="translate(25.155 143.856809)scale(0.16 -0.16)">
       <use xlink:href="#DejaVuSans-48"/>
       <use x="63.623047" xlink:href="#DejaVuSans-46"/>
       <use x="95.410156" xlink:href="#DejaVuSans-54"/>
      </g>
     </g>
    </g>
    <g id="ytick_5">
     <g id="line2d_29">
      <path clip-path="url(#p646c656b6b)" d="M 57.6 84.056079 
L 338.688 84.056079 
" style="fill:none;stroke:#b0b0b0;stroke-linecap:square;stroke-width:0.8;"/>
     </g>
     <g id="line2d_30">
      <g>
       <use style="stroke:#000000;stroke-width:0.8;" x="57.6" xlink:href="#mff32004499" y="84.056079"/>
      </g>
     </g>
     <g id="text_10">
      <!-- 0.8 -->
      <g transform="translate(25.155 90.134829)scale(0.16 -0.16)">
       <defs>
        <path d="M 31.78125 34.625 
Q 24.75 34.625 20.71875 30.859375 
Q 16.703125 27.09375 16.703125 20.515625 
Q 16.703125 13.921875 20.71875 10.15625 
Q 24.75 6.390625 31.78125 6.390625 
Q 38.8125 6.390625 42.859375 10.171875 
Q 46.921875 13.96875 46.921875 20.515625 
Q 46.921875 27.09375 42.890625 30.859375 
Q 38.875 34.625 31.78125 34.625 
z
M 21.921875 38.8125 
Q 15.578125 40.375 12.03125 44.71875 
Q 8.5 49.078125 8.5 55.328125 
Q 8.5 64.0625 14.71875 69.140625 
Q 20.953125 74.21875 31.78125 74.21875 
Q 42.671875 74.21875 48.875 69.140625 
Q 55.078125 64.0625 55.078125 55.328125 
Q 55.078125 49.078125 51.53125 44.71875 
Q 48 40.375 41.703125 38.8125 
Q 48.828125 37.15625 52.796875 32.3125 
Q 56.78125 27.484375 56.78125 20.515625 
Q 56.78125 9.90625 50.3125 4.234375 
Q 43.84375 -1.421875 31.78125 -1.421875 
Q 19.734375 -1.421875 13.25 4.234375 
Q 6.78125 9.90625 6.78125 20.515625 
Q 6.78125 27.484375 10.78125 32.3125 
Q 14.796875 37.15625 21.921875 38.8125 
z
M 18.3125 54.390625 
Q 18.3125 48.734375 21.84375 45.5625 
Q 25.390625 42.390625 31.78125 42.390625 
Q 38.140625 42.390625 41.71875 45.5625 
Q 45.3125 48.734375 45.3125 54.390625 
Q 45.3125 60.0625 41.71875 63.234375 
Q 38.140625 66.40625 31.78125 66.40625 
Q 25.390625 66.40625 21.84375 63.234375 
Q 18.3125 60.0625 18.3125 54.390625 
z
" id="DejaVuSans-56"/>
       </defs>
       <use xlink:href="#DejaVuSans-48"/>
       <use x="63.623047" xlink:href="#DejaVuSans-46"/>
       <use x="95.410156" xlink:href="#DejaVuSans-56"/>
      </g>
     </g>
    </g>
    <g id="ytick_6">
     <g id="line2d_31">
      <path clip-path="url(#p646c656b6b)" d="M 57.6 30.334099 
L 338.688 30.334099 
" style="fill:none;stroke:#b0b0b0;stroke-linecap:square;stroke-width:0.8;"/>
     </g>
     <g id="line2d_32">
      <g>
       <use style="stroke:#000000;stroke-width:0.8;" x="57.6" xlink:href="#mff32004499" y="30.334099"/>
      </g>
     </g>
     <g id="text_11">
      <!-- 1.0 -->
      <g transform="translate(25.155 36.412849)scale(0.16 -0.16)">
       <use xlink:href="#DejaVuSans-49"/>
       <use x="63.623047" xlink:href="#DejaVuSans-46"/>
       <use x="95.410156" xlink:href="#DejaVuSans-48"/>
      </g>
     </g>
    </g>
    <g id="text_12">
     <!-- Fraction of function,target pairs -->
     <g transform="translate(17.619531 297.681)rotate(-90)scale(0.17 -0.17)">
      <defs>
       <path d="M 9.8125 72.90625 
L 51.703125 72.90625 
L 51.703125 64.59375 
L 19.671875 64.59375 
L 19.671875 43.109375 
L 48.578125 43.109375 
L 48.578125 34.8125 
L 19.671875 34.8125 
L 19.671875 0 
L 9.8125 0 
z
" id="DejaVuSans-70"/>
       <path d="M 41.109375 46.296875 
Q 39.59375 47.171875 37.8125 47.578125 
Q 36.03125 48 33.890625 48 
Q 26.265625 48 22.1875 43.046875 
Q 18.109375 38.09375 18.109375 28.8125 
L 18.109375 0 
L 9.078125 0 
L 9.078125 54.6875 
L 18.109375 54.6875 
L 18.109375 46.1875 
Q 20.953125 51.171875 25.484375 53.578125 
Q 30.03125 56 36.53125 56 
Q 37.453125 56 38.578125 55.875 
Q 39.703125 55.765625 41.0625 55.515625 
z
" id="DejaVuSans-114"/>
       <path d="M 48.78125 52.59375 
L 48.78125 44.1875 
Q 44.96875 46.296875 41.140625 47.34375 
Q 37.3125 48.390625 33.40625 48.390625 
Q 24.65625 48.390625 19.8125 42.84375 
Q 14.984375 37.3125 14.984375 27.296875 
Q 14.984375 17.28125 19.8125 11.734375 
Q 24.65625 6.203125 33.40625 6.203125 
Q 37.3125 6.203125 41.140625 7.25 
Q 44.96875 8.296875 48.78125 10.40625 
L 48.78125 2.09375 
Q 45.015625 0.34375 40.984375 -0.53125 
Q 36.96875 -1.421875 32.421875 -1.421875 
Q 20.0625 -1.421875 12.78125 6.34375 
Q 5.515625 14.109375 5.515625 27.296875 
Q 5.515625 40.671875 12.859375 48.328125 
Q 20.21875 56 33.015625 56 
Q 37.15625 56 41.109375 55.140625 
Q 45.0625 54.296875 48.78125 52.59375 
z
" id="DejaVuSans-99"/>
       <path d="M 18.3125 70.21875 
L 18.3125 54.6875 
L 36.8125 54.6875 
L 36.8125 47.703125 
L 18.3125 47.703125 
L 18.3125 18.015625 
Q 18.3125 11.328125 20.140625 9.421875 
Q 21.96875 7.515625 27.59375 7.515625 
L 36.8125 7.515625 
L 36.8125 0 
L 27.59375 0 
Q 17.1875 0 13.234375 3.875 
Q 9.28125 7.765625 9.28125 18.015625 
L 9.28125 47.703125 
L 2.6875 47.703125 
L 2.6875 54.6875 
L 9.28125 54.6875 
L 9.28125 70.21875 
z
" id="DejaVuSans-116"/>
       <path d="M 8.5 21.578125 
L 8.5 54.6875 
L 17.484375 54.6875 
L 17.484375 21.921875 
Q 17.484375 14.15625 20.5 10.265625 
Q 23.53125 6.390625 29.59375 6.390625 
Q 36.859375 6.390625 41.078125 11.03125 
Q 45.3125 15.671875 45.3125 23.6875 
L 45.3125 54.6875 
L 54.296875 54.6875 
L 54.296875 0 
L 45.3125 0 
L 45.3125 8.40625 
Q 42.046875 3.421875 37.71875 1 
Q 33.40625 -1.421875 27.6875 -1.421875 
Q 18.265625 -1.421875 13.375 4.4375 
Q 8.5 10.296875 8.5 21.578125 
z
M 31.109375 56 
z
" id="DejaVuSans-117"/>
       <path d="M 11.71875 12.40625 
L 22.015625 12.40625 
L 22.015625 4 
L 14.015625 -11.625 
L 7.71875 -11.625 
L 11.71875 4 
z
" id="DejaVuSans-44"/>
       <path d="M 18.109375 8.203125 
L 18.109375 -20.796875 
L 9.078125 -20.796875 
L 9.078125 54.6875 
L 18.109375 54.6875 
L 18.109375 46.390625 
Q 20.953125 51.265625 25.265625 53.625 
Q 29.59375 56 35.59375 56 
Q 45.5625 56 51.78125 48.09375 
Q 58.015625 40.1875 58.015625 27.296875 
Q 58.015625 14.40625 51.78125 6.484375 
Q 45.5625 -1.421875 35.59375 -1.421875 
Q 29.59375 -1.421875 25.265625 0.953125 
Q 20.953125 3.328125 18.109375 8.203125 
z
M 48.6875 27.296875 
Q 48.6875 37.203125 44.609375 42.84375 
Q 40.53125 48.484375 33.40625 48.484375 
Q 26.265625 48.484375 22.1875 42.84375 
Q 18.109375 37.203125 18.109375 27.296875 
Q 18.109375 17.390625 22.1875 11.75 
Q 26.265625 6.109375 33.40625 6.109375 
Q 40.53125 6.109375 44.609375 11.75 
Q 48.6875 17.390625 48.6875 27.296875 
z
" id="DejaVuSans-112"/>
      </defs>
      <use xlink:href="#DejaVuSans-70"/>
      <use x="50.269531" xlink:href="#DejaVuSans-114"/>
      <use x="91.382812" xlink:href="#DejaVuSans-97"/>
      <use x="152.662109" xlink:href="#DejaVuSans-99"/>
      <use x="207.642578" xlink:href="#DejaVuSans-116"/>
      <use x="246.851562" xlink:href="#DejaVuSans-105"/>
      <use x="274.634766" xlink:href="#DejaVuSans-111"/>
      <use x="335.816406" xlink:href="#DejaVuSans-110"/>
      <use x="399.195312" xlink:href="#DejaVuSans-32"/>
      <use x="430.982422" xlink:href="#DejaVuSans-111"/>
      <use x="492.164062" xlink:href="#DejaVuSans-102"/>
      <use x="527.369141" xlink:href="#DejaVuSans-32"/>
      <use x="559.15625" xlink:href="#DejaVuSans-102"/>
      <use x="594.361328" xlink:href="#DejaVuSans-117"/>
      <use x="657.740234" xlink:href="#DejaVuSans-110"/>
      <use x="721.119141" xlink:href="#DejaVuSans-99"/>
      <use x="776.099609" xlink:href="#DejaVuSans-116"/>
      <use x="815.308594" xlink:href="#DejaVuSans-105"/>
      <use x="843.091797" xlink:href="#DejaVuSans-111"/>
      <use x="904.273438" xlink:href="#DejaVuSans-110"/>
      <use x="967.652344" xlink:href="#DejaVuSans-44"/>
      <use x="999.439453" xlink:href="#DejaVuSans-116"/>
      <use x="1038.648438" xlink:href="#DejaVuSans-97"/>
      <use x="1099.927734" xlink:href="#DejaVuSans-114"/>
      <use x="1139.291016" xlink:href="#DejaVuSans-103"/>
      <use x="1202.767578" xlink:href="#DejaVuSans-101"/>
      <use x="1264.291016" xlink:href="#DejaVuSans-116"/>
      <use x="1303.5" xlink:href="#DejaVuSans-32"/>
      <use x="1335.287109" xlink:href="#DejaVuSans-112"/>
      <use x="1398.763672" xlink:href="#DejaVuSans-97"/>
      <use x="1460.042969" xlink:href="#DejaVuSans-105"/>
      <use x="1487.826172" xlink:href="#DejaVuSans-114"/>
      <use x="1528.939453" xlink:href="#DejaVuSans-115"/>
     </g>
    </g>
   </g>
   <g id="line2d_33">
    <defs>
     <path d="M 0 1.5 
C 0.397805 1.5 0.77937 1.341951 1.06066 1.06066 
C 1.341951 0.77937 1.5 0.397805 1.5 0 
C 1.5 -0.397805 1.341951 -0.77937 1.06066 -1.06066 
C 0.77937 -1.341951 0.397805 -1.5 0 -1.5 
C -0.397805 -1.5 -0.77937 -1.341951 -1.06066 -1.06066 
C -1.341951 -0.77937 -1.5 -0.397805 -1.5 0 
C -1.5 0.397805 -1.341951 0.77937 -1.06066 1.06066 
C -0.77937 1.341951 -0.397805 1.5 0 1.5 
z
" id="mcfdb903155" style="stroke:#f5deb3;"/>
    </defs>
    <g>
     <use style="fill:#f5deb3;stroke:#f5deb3;" x="284.096255" xlink:href="#mcfdb903155" y="62.752535"/>
     <use style="fill:#f5deb3;stroke:#f5deb3;" x="284.096255" xlink:href="#mcfdb903155" y="62.752535"/>
    </g>
   </g>
   <g id="line2d_34">
    <defs>
     <path d="M 0 1.5 
C 0.397805 1.5 0.77937 1.341951 1.06066 1.06066 
C 1.341951 0.77937 1.5 0.397805 1.5 0 
C 1.5 -0.397805 1.341951 -0.77937 1.06066 -1.06066 
C 0.77937 -1.341951 0.397805 -1.5 0 -1.5 
C -0.397805 -1.5 -0.77937 -1.341951 -1.06066 -1.06066 
C -1.341951 -0.77937 -1.5 -0.397805 -1.5 0 
C -1.5 0.397805 -1.341951 0.77937 -1.06066 1.06066 
C -0.77937 1.341951 -0.397805 1.5 0 1.5 
z
" id="m1b18bb3577" style="stroke:#000080;"/>
    </defs>
    <g>
     <use style="fill:#000080;stroke:#000080;" x="228.268944" xlink:href="#m1b18bb3577" y="155.376639"/>
     <use style="fill:#000080;stroke:#000080;" x="228.268944" xlink:href="#m1b18bb3577" y="155.376639"/>
    </g>
   </g>
   <g id="line2d_35">
    <path d="M 38.440992 298.944 
L 38.440992 285.050384 
L 62.616969 285.050384 
L 62.616969 284.124143 
L 76.759008 284.124143 
L 76.759008 283.661023 
L 80.258561 283.661023 
L 80.258561 282.734782 
L 83.171864 282.734782 
L 83.171864 280.419179 
L 88.846997 280.419179 
L 88.846997 279.956059 
L 93.863965 279.956059 
L 93.863965 279.492938 
L 100.443706 279.492938 
L 100.443706 279.029818 
L 102.772397 279.029818 
L 102.772397 278.103577 
L 104.434538 278.103577 
L 104.434538 277.640456 
L 105.951954 277.640456 
L 105.951954 277.177336 
L 106.66386 277.177336 
L 106.66386 276.714215 
L 107.009204 276.714215 
L 107.009204 276.251095 
L 110.694282 276.251095 
L 110.694282 275.787974 
L 110.968922 275.787974 
L 110.968922 275.324854 
L 111.239304 275.324854 
L 111.239304 273.935492 
L 112.026172 273.935492 
L 112.026172 273.472371 
L 112.779064 273.472371 
L 112.779064 272.54613 
L 113.26352 272.54613 
L 113.26352 272.08301 
L 116.914437 272.08301 
L 116.914437 271.156769 
L 117.297733 271.156769 
L 117.297733 270.693648 
L 119.097192 270.693648 
L 119.097192 270.230528 
L 119.602714 270.230528 
L 119.602714 269.767407 
L 120.254726 269.767407 
L 120.254726 269.304287 
L 120.728219 269.304287 
L 120.728219 268.378046 
L 122.782271 268.378046 
L 122.782271 267.451805 
L 123.192626 267.451805 
L 123.192626 266.988684 
L 124.494669 266.988684 
L 124.494669 266.525564 
L 124.743806 266.525564 
L 124.743806 266.062443 
L 127.799239 266.062443 
L 127.799239 265.599323 
L 128.209594 265.599323 
L 128.310692 264.209961 
L 130.926816 264.209961 
L 130.926816 263.746841 
L 131.938072 263.746841 
L 131.938072 263.28372 
L 132.101058 263.28372 
L 132.101058 260.041876 
L 137.852629 260.041876 
L 137.852629 259.578756 
L 140.093612 259.578756 
L 140.093612 259.115635 
L 140.599134 259.115635 
L 140.599134 258.189394 
L 141.187031 258.189394 
L 141.187031 257.726274 
L 143.485587 257.726274 
L 143.485587 257.263153 
L 149.467659 257.263153 
L 149.467659 256.800033 
L 149.705742 256.800033 
L 149.705742 255.873792 
L 156.256744 255.873792 
L 156.256744 254.947551 
L 157.547684 254.947551 
L 157.547684 254.48443 
L 158.429943 254.48443 
L 158.429943 253.558189 
L 159.303838 253.558189 
L 159.303838 253.095069 
L 161.675095 253.095069 
L 161.675095 252.631948 
L 162.20271 252.631948 
L 162.20271 252.168828 
L 162.616422 252.168828 
L 162.644595 250.779466 
L 163.280329 250.779466 
L 163.280329 249.853225 
L 163.616356 249.853225 
L 163.616356 249.390104 
L 164.725213 249.390104 
L 164.725213 248.926984 
L 165.120455 248.926984 
L 165.230021 246.611381 
L 166.807003 246.611381 
L 166.807003 246.148261 
L 167.234109 246.148261 
L 167.341959 244.295779 
L 171.485334 244.295779 
L 171.485334 243.369538 
L 172.272701 243.369538 
L 172.272701 242.906417 
L 173.195964 242.906417 
L 173.195964 242.443297 
L 173.822502 242.443297 
L 173.822502 241.980176 
L 174.203864 241.980176 
L 174.203864 241.053935 
L 174.83783 241.053935 
L 174.83783 240.590815 
L 175.004915 240.590815 
L 175.004915 240.127694 
L 175.77741 240.127694 
L 175.77741 239.664574 
L 176.215951 239.664574 
L 176.215951 239.201453 
L 178.002224 239.201453 
L 178.002224 238.275212 
L 178.462846 238.275212 
L 178.462846 236.42273 
L 178.666222 236.42273 
L 178.666222 235.496489 
L 179.316688 235.496489 
L 179.316688 234.570248 
L 179.483624 234.570248 
L 179.483624 234.107127 
L 180.063405 234.107127 
L 180.063405 233.644007 
L 180.39207 233.644007 
L 180.39207 232.717766 
L 182.32132 232.717766 
L 182.32132 232.254645 
L 182.757606 232.254645 
L 182.757606 231.791525 
L 182.894767 231.791525 
L 182.894767 231.328404 
L 184.238708 231.328404 
L 184.238708 230.865284 
L 184.938532 230.865284 
L 184.938532 230.402163 
L 187.296108 230.402163 
L 187.296108 229.939043 
L 187.702242 229.939043 
L 187.702242 229.012802 
L 187.961246 229.012802 
L 187.961246 228.549681 
L 189.065933 228.549681 
L 189.065933 227.62344 
L 189.706787 227.62344 
L 189.706787 226.697199 
L 190.491067 226.697199 
L 190.491067 226.234079 
L 191.24705 226.234079 
L 191.24705 225.307837 
L 193.326563 225.307837 
L 193.326563 224.381596 
L 193.740806 224.381596 
L 193.740806 223.918476 
L 195.216961 223.918476 
L 195.216961 222.992235 
L 195.899186 222.992235 
L 195.899186 222.065994 
L 197.02456 222.065994 
L 197.02456 221.139753 
L 198.403401 221.139753 
L 198.403401 220.676632 
L 198.66584 220.676632 
L 198.66584 219.750391 
L 199.286234 219.750391 
L 199.286234 218.82415 
L 199.791903 218.82415 
L 199.896954 217.434789 
L 199.931831 217.434789 
L 200.009637 214.192945 
L 200.464495 214.192945 
L 200.464495 213.266704 
L 201.433201 213.266704 
L 201.433201 212.340463 
L 202.990405 212.340463 
L 203.019618 211.414222 
L 203.356865 211.414222 
L 203.356865 210.487981 
L 203.537247 210.487981 
L 203.6113 209.56174 
L 203.741139 209.56174 
L 203.741139 209.098619 
L 204.908103 209.098619 
L 204.908103 208.172378 
L 205.121324 208.172378 
L 205.121324 207.246137 
L 205.628888 207.246137 
L 205.628888 206.783017 
L 205.801561 206.783017 
L 205.848896 204.930535 
L 206.099977 204.930535 
L 206.099977 204.467414 
L 206.7606 204.467414 
L 206.7606 203.541173 
L 207.201368 203.541173 
L 207.201368 203.078053 
L 207.787409 203.078053 
L 207.787409 202.614932 
L 208.239373 202.614932 
L 208.241433 201.225571 
L 209.091955 201.225571 
L 209.099803 200.299329 
L 209.734449 200.299329 
L 209.784501 198.909968 
L 210.070704 198.909968 
L 210.139217 197.520606 
L 211.018528 197.520606 
L 211.092175 195.205004 
L 211.879892 195.205004 
L 211.879892 194.278763 
L 212.642368 194.278763 
L 212.642368 193.815642 
L 212.962015 193.815642 
L 212.962015 190.573799 
L 213.194667 190.573799 
L 213.199319 188.258196 
L 213.383643 188.258196 
L 213.383643 187.331955 
L 213.874561 187.331955 
L 213.874561 186.405714 
L 214.152778 186.405714 
L 214.152778 185.942593 
L 214.397698 185.942593 
L 214.501619 184.090111 
L 214.980663 184.090111 
L 214.995357 182.70075 
L 215.518995 182.70075 
L 215.612413 181.774509 
L 215.80978 181.774509 
L 215.857776 180.385147 
L 216.006259 180.385147 
L 216.111549 179.458906 
L 216.559748 179.458906 
L 216.596157 178.069545 
L 216.675103 178.069545 
L 216.675103 177.143304 
L 217.034714 177.143304 
L 217.047777 176.217062 
L 218.332392 176.217062 
L 218.332392 175.753942 
L 218.505971 175.753942 
L 218.545388 174.36458 
L 218.970413 174.36458 
L 219.050975 172.512098 
L 219.165893 172.512098 
L 219.165893 172.048978 
L 219.310668 172.048978 
L 219.310668 171.585857 
L 219.439621 171.585857 
L 219.439621 171.122737 
L 219.95821 171.122737 
L 220.017047 170.196496 
L 220.159115 170.196496 
L 220.159115 169.270255 
L 220.546481 169.270255 
L 220.546481 168.807134 
L 220.842595 168.807134 
L 220.903014 167.417773 
L 220.999945 167.417773 
L 221.020257 166.028411 
L 221.146059 166.028411 
L 221.146059 165.565291 
L 221.400302 165.565291 
L 221.400302 165.10217 
L 222.149413 165.10217 
L 222.149413 164.63905 
L 222.728608 164.63905 
L 222.728608 164.175929 
L 222.899259 164.175929 
L 222.948978 163.249688 
L 223.030352 163.249688 
L 223.098168 161.860326 
L 223.386723 161.860326 
L 223.386723 161.397206 
L 223.773627 161.397206 
L 223.773627 160.470965 
L 224.177767 160.470965 
L 224.180658 159.544724 
L 225.832658 159.544724 
L 225.832658 159.081603 
L 225.995709 159.081603 
L 225.995709 158.618483 
L 226.119593 158.618483 
L 226.131046 157.692242 
L 226.523285 157.692242 
L 226.523285 157.229121 
L 226.714002 157.229121 
L 226.714002 156.30288 
L 228.085334 156.30288 
L 228.085334 155.83976 
L 228.268944 155.83976 
L 228.268944 155.376639 
L 338.688 155.376639 
L 338.688 155.376639 
" style="fill:none;stroke:#000080;stroke-linecap:square;stroke-width:1.5;"/>
   </g>
   <g id="line2d_36">
    <defs>
     <path d="M 0 6 
C 1.591219 6 3.117479 5.367802 4.242641 4.242641 
C 5.367802 3.117479 6 1.591219 6 0 
C 6 -1.591219 5.367802 -3.117479 4.242641 -4.242641 
C 3.117479 -5.367802 1.591219 -6 0 -6 
C -1.591219 -6 -3.117479 -5.367802 -4.242641 -4.242641 
C -5.367802 -3.117479 -6 -1.591219 -6 0 
C -6 1.591219 -5.367802 3.117479 -4.242641 4.242641 
C -3.117479 5.367802 -1.591219 6 0 6 
z
" id="m569c4caeee" style="stroke:#000080;stroke-width:1.5;"/>
    </defs>
    <g>
     <use style="fill-opacity:0;stroke:#000080;stroke-width:1.5;" x="124.743806" xlink:href="#m569c4caeee" y="266.062443"/>
     <use style="fill-opacity:0;stroke:#000080;stroke-width:1.5;" x="176.215951" xlink:href="#m569c4caeee" y="239.201453"/>
     <use style="fill-opacity:0;stroke:#000080;stroke-width:1.5;" x="228.268944" xlink:href="#m569c4caeee" y="155.83976"/>
     <use style="fill-opacity:0;stroke:#000080;stroke-width:1.5;" x="228.268944" xlink:href="#m569c4caeee" y="155.376639"/>
     <use style="fill-opacity:0;stroke:#000080;stroke-width:1.5;" x="228.268944" xlink:href="#m569c4caeee" y="155.376639"/>
     <use style="fill-opacity:0;stroke:#000080;stroke-width:1.5;" x="338.688" xlink:href="#m569c4caeee" y="155.376639"/>
    </g>
   </g>
   <g id="line2d_37">
    <path style="fill:none;stroke:#000080;stroke-linecap:square;stroke-width:1.5;"/>
    <g/>
   </g>
   <g id="line2d_38">
    <path clip-path="url(#p646c656b6b)" d="M 258.377608 155.376639 
" style="fill:none;stroke:#000080;stroke-linecap:square;stroke-width:1.5;"/>
    <defs>
     <path d="M -12 12 
L 12 -12 
M -12 -12 
L 12 12 
" id="mfde641f360" style="stroke:#000080;"/>
    </defs>
    <g clip-path="url(#p646c656b6b)">
     <use style="fill:#000080;stroke:#000080;" x="258.377608" xlink:href="#mfde641f360" y="155.376639"/>
    </g>
   </g>
   <g id="line2d_39">
    <defs>
     <path d="M 0 1.5 
C 0.397805 1.5 0.77937 1.341951 1.06066 1.06066 
C 1.341951 0.77937 1.5 0.397805 1.5 0 
C 1.5 -0.397805 1.341951 -0.77937 1.06066 -1.06066 
C 0.77937 -1.341951 0.397805 -1.5 0 -1.5 
C -0.397805 -1.5 -0.77937 -1.341951 -1.06066 -1.06066 
C -1.341951 -0.77937 -1.5 -0.397805 -1.5 0 
C -1.5 0.397805 -1.341951 0.77937 -1.06066 1.06066 
C -0.77937 1.341951 -0.397805 1.5 0 1.5 
z
" id="mea9ba3706f" style="stroke:#ff00ff;"/>
    </defs>
    <g>
     <use style="fill:#ff00ff;stroke:#ff00ff;" x="258.167782" xlink:href="#mea9ba3706f" y="134.999336"/>
     <use style="fill:#ff00ff;stroke:#ff00ff;" x="258.167782" xlink:href="#mea9ba3706f" y="134.999336"/>
    </g>
   </g>
   <g id="line2d_40">
    <path d="M 38.440992 298.944 
L 38.440992 286.439746 
L 135.482227 286.439746 
L 135.482227 285.976625 
L 139.360321 285.976625 
L 139.360321 284.587264 
L 141.041904 284.587264 
L 141.041904 284.124143 
L 141.235139 284.124143 
L 141.235139 283.197902 
L 142.170445 283.197902 
L 142.215919 282.271661 
L 143.187472 282.271661 
L 143.187472 281.34542 
L 144.589967 281.34542 
L 144.589967 280.8823 
L 144.708467 280.8823 
L 144.747789 279.956059 
L 146.359869 279.956059 
L 146.359869 279.492938 
L 146.714338 279.492938 
L 146.714338 278.566697 
L 147.266916 278.566697 
L 147.266916 278.103577 
L 147.50327 278.103577 
L 147.50327 276.714215 
L 148.79566 276.714215 
L 148.79566 276.251095 
L 149.012299 276.251095 
L 149.012299 275.787974 
L 149.467659 275.787974 
L 149.467659 275.324854 
L 150.201126 275.324854 
L 150.258492 273.472371 
L 150.31567 273.472371 
L 150.372662 272.54613 
L 150.51433 272.54613 
L 150.51433 271.619889 
L 150.738632 271.619889 
L 150.79426 270.230528 
L 151.069768 270.230528 
L 151.069768 269.304287 
L 152.761703 269.304287 
L 152.860649 266.062443 
L 152.885298 266.062443 
L 152.934492 265.136202 
L 153.323128 265.136202 
L 153.323128 264.673082 
L 153.561699 264.673082 
L 153.632638 263.746841 
L 153.959927 263.746841 
L 153.983071 262.357479 
L 154.121296 262.357479 
L 154.121296 260.968117 
L 154.596634 260.968117 
L 154.596634 260.041876 
L 155.55245 260.041876 
L 155.55245 258.189394 
L 155.762564 258.189394 
L 155.86668 256.800033 
L 155.908152 256.800033 
L 155.908152 256.336912 
L 156.031982 256.336912 
L 156.114049 255.410671 
L 156.277034 255.410671 
L 156.277034 254.48443 
L 156.638275 254.48443 
L 156.638275 254.02131 
L 156.933697 254.02131 
L 156.933697 253.558189 
L 157.185742 253.558189 
L 157.185742 253.095069 
L 157.434196 253.095069 
L 157.509937 251.242587 
L 157.622935 251.242587 
L 157.716543 248.926984 
L 158.159001 248.926984 
L 158.177196 248.000743 
L 158.340096 248.000743 
L 158.340096 247.537622 
L 158.51933 247.537622 
L 158.51933 247.074502 
L 158.661402 247.074502 
L 158.661402 245.22202 
L 159.184097 245.22202 
L 159.184097 244.295779 
L 159.591258 244.295779 
L 159.591258 243.369538 
L 159.724893 243.369538 
L 159.724893 242.906417 
L 159.874019 242.906417 
L 159.874019 242.443297 
L 160.136022 242.443297 
L 160.136022 241.980176 
L 160.329974 241.980176 
L 160.329974 241.053935 
L 161.630398 241.053935 
L 161.630398 240.590815 
L 162.217141 240.590815 
L 162.217141 239.664574 
L 162.44642 239.664574 
L 162.44642 238.738333 
L 163.006766 238.738333 
L 163.006766 237.812091 
L 163.225959 237.812091 
L 163.225959 236.88585 
L 163.748975 236.88585 
L 163.841212 235.959609 
L 164.024234 235.959609 
L 164.024234 235.496489 
L 164.140886 235.496489 
L 164.192481 234.107127 
L 164.549438 234.107127 
L 164.549438 233.644007 
L 164.911599 233.644007 
L 165.010195 232.717766 
L 167.027338 232.717766 
L 167.038282 230.865284 
L 167.288118 230.865284 
L 167.288118 230.402163 
L 168.506396 230.402163 
L 168.506396 229.475922 
L 168.825295 229.475922 
L 168.825295 228.549681 
L 169.099626 228.549681 
L 169.099626 227.62344 
L 169.264103 227.62344 
L 169.264103 227.16032 
L 169.673338 227.16032 
L 169.75779 225.770958 
L 171.203291 225.770958 
L 171.203291 225.307837 
L 172.877961 225.307837 
L 172.877961 224.844717 
L 173.364239 224.844717 
L 173.42503 222.992235 
L 175.490035 222.992235 
L 175.496772 221.139753 
L 176.151193 221.139753 
L 176.151193 220.213512 
L 176.618488 220.213512 
L 176.618488 219.287271 
L 177.432921 219.287271 
L 177.432921 218.36103 
L 179.446068 218.36103 
L 179.446068 217.897909 
L 181.173027 217.897909 
L 181.173027 216.971668 
L 181.638614 216.971668 
L 181.638614 216.045427 
L 183.880057 216.045427 
L 183.880057 215.582307 
L 184.562116 215.582307 
L 184.562116 214.656066 
L 186.824091 214.656066 
L 186.824091 214.192945 
L 187.388317 214.192945 
L 187.388317 213.266704 
L 190.324923 213.266704 
L 190.324923 212.340463 
L 191.372181 212.340463 
L 191.372181 211.414222 
L 194.336283 211.414222 
L 194.336283 210.951101 
L 195.026772 210.951101 
L 195.075062 209.098619 
L 196.446652 209.098619 
L 196.446652 208.172378 
L 197.845812 208.172378 
L 197.845812 207.709258 
L 198.039212 207.709258 
L 198.039212 206.783017 
L 200.835472 206.783017 
L 200.835472 206.319896 
L 203.963755 206.319896 
L 203.963755 205.856776 
L 204.54896 205.856776 
L 204.54896 205.393655 
L 204.664439 205.393655 
L 204.664439 204.930535 
L 204.879393 204.930535 
L 204.879393 204.467414 
L 206.533695 204.467414 
L 206.533695 203.541173 
L 206.814353 203.541173 
L 206.814353 203.078053 
L 206.98902 203.078053 
L 206.98902 202.614932 
L 208.205337 202.614932 
L 208.205337 201.688691 
L 208.612474 201.688691 
L 208.612474 200.76245 
L 211.824611 200.76245 
L 211.824611 200.299329 
L 213.193116 200.299329 
L 213.193116 199.373088 
L 213.447967 199.373088 
L 213.447967 198.446847 
L 214.191641 198.446847 
L 214.269107 197.057486 
L 214.61994 197.057486 
L 214.61994 196.594365 
L 214.963153 196.594365 
L 215.051223 195.205004 
L 215.470737 195.205004 
L 215.470737 194.278763 
L 215.84579 194.278763 
L 215.84579 193.815642 
L 215.997016 193.815642 
L 216.072797 192.889401 
L 216.824374 192.889401 
L 216.828782 191.96316 
L 217.871173 191.96316 
L 217.97525 189.647558 
L 218.434335 189.647558 
L 218.452128 187.795075 
L 218.559647 187.795075 
L 218.559647 186.868834 
L 218.869886 186.868834 
L 218.900105 185.479473 
L 219.283887 185.479473 
L 219.283887 185.016352 
L 219.809713 185.016352 
L 219.809713 184.090111 
L 220.024911 184.090111 
L 220.024911 183.16387 
L 220.193932 183.16387 
L 220.193932 182.70075 
L 220.614522 182.70075 
L 220.614522 182.237629 
L 221.338182 182.237629 
L 221.338182 181.774509 
L 222.6697 181.774509 
L 222.773891 180.385147 
L 223.412209 180.385147 
L 223.47985 178.069545 
L 224.172809 178.069545 
L 224.249091 176.680183 
L 224.695902 176.680183 
L 224.695902 176.217062 
L 227.944101 176.217062 
L 227.944101 175.753942 
L 228.468738 175.753942 
L 228.468738 175.290821 
L 229.778816 175.290821 
L 229.778816 174.827701 
L 229.979019 174.827701 
L 230.062649 173.438339 
L 230.132671 173.438339 
L 230.132671 172.975219 
L 231.919977 172.975219 
L 231.919977 172.512098 
L 232.438261 172.512098 
L 232.438261 172.048978 
L 232.682989 172.048978 
L 232.682989 171.585857 
L 232.872716 171.585857 
L 232.872716 171.122737 
L 238.476956 171.122737 
L 238.525836 170.196496 
L 238.776073 170.196496 
L 238.865992 168.344014 
L 238.937558 168.344014 
L 238.937558 167.880893 
L 239.460247 167.880893 
L 239.460247 166.954652 
L 239.933779 166.954652 
L 239.933779 166.491532 
L 242.628535 166.491532 
L 242.628535 166.028411 
L 243.180049 166.028411 
L 243.277598 165.10217 
L 244.529851 165.10217 
L 244.529851 164.175929 
L 244.745719 164.175929 
L 244.854868 162.323447 
L 245.377739 162.323447 
L 245.377739 161.860326 
L 245.900969 161.860326 
L 245.900969 159.544724 
L 246.103429 159.544724 
L 246.126445 157.692242 
L 247.119302 157.692242 
L 247.119302 156.766001 
L 247.307735 156.766001 
L 247.320013 155.376639 
L 247.759469 155.376639 
L 247.771967 154.450398 
L 247.927075 154.450398 
L 247.927075 153.524157 
L 248.272375 153.524157 
L 248.272375 153.061037 
L 248.386763 153.061037 
L 248.386763 152.134795 
L 248.776776 152.134795 
L 248.776776 151.671675 
L 249.49901 151.671675 
L 249.575153 150.745434 
L 249.670896 150.745434 
L 249.670896 150.282313 
L 251.359058 150.282313 
L 251.359058 149.819193 
L 252.058469 149.819193 
L 252.058469 149.356072 
L 252.822514 149.356072 
L 252.822514 148.429831 
L 253.333414 148.429831 
L 253.333414 147.966711 
L 253.543981 147.966711 
L 253.543981 147.04047 
L 254.179048 147.04047 
L 254.179048 146.577349 
L 254.536833 146.577349 
L 254.536833 146.114229 
L 254.702607 146.114229 
L 254.731719 144.724867 
L 254.8892 144.724867 
L 254.8892 144.261747 
L 255.657719 144.261747 
L 255.657719 143.798626 
L 256.125942 143.798626 
L 256.125942 143.335506 
L 256.334293 143.335506 
L 256.440303 141.019903 
L 256.476512 141.019903 
L 256.558001 137.778059 
L 256.615846 137.778059 
L 256.615846 136.851818 
L 258.125607 136.851818 
L 258.167782 134.999336 
L 338.688 134.999336 
L 338.688 134.999336 
" style="fill:none;stroke:#ff00ff;stroke-linecap:square;stroke-width:1.5;"/>
   </g>
   <g id="line2d_41">
    <defs>
     <path d="M 0 8.485281 
L 5.091169 0 
L 0 -8.485281 
L -5.091169 0 
z
" id="m51abd2cebe" style="stroke:#ff00ff;stroke-linejoin:miter;stroke-width:1.5;"/>
    </defs>
    <g>
     <use style="fill-opacity:0;stroke:#ff00ff;stroke-linejoin:miter;stroke-width:1.5;" x="151.069768" xlink:href="#m51abd2cebe" y="269.304287"/>
     <use style="fill-opacity:0;stroke:#ff00ff;stroke-linejoin:miter;stroke-width:1.5;" x="213.193116" xlink:href="#m51abd2cebe" y="199.373088"/>
     <use style="fill-opacity:0;stroke:#ff00ff;stroke-linejoin:miter;stroke-width:1.5;" x="258.167782" xlink:href="#m51abd2cebe" y="135.925577"/>
     <use style="fill-opacity:0;stroke:#ff00ff;stroke-linejoin:miter;stroke-width:1.5;" x="258.167782" xlink:href="#m51abd2cebe" y="134.999336"/>
     <use style="fill-opacity:0;stroke:#ff00ff;stroke-linejoin:miter;stroke-width:1.5;" x="338.688" xlink:href="#m51abd2cebe" y="134.999336"/>
    </g>
   </g>
   <g id="line2d_42">
    <path style="fill:none;stroke:#ff00ff;stroke-linecap:square;stroke-width:1.5;"/>
    <g/>
   </g>
   <g id="line2d_43">
    <path clip-path="url(#p646c656b6b)" d="M 258.384233 134.999336 
" style="fill:none;stroke:#ff00ff;stroke-linecap:square;stroke-width:1.5;"/>
    <defs>
     <path d="M -12 12 
L 12 -12 
M -12 -12 
L 12 12 
" id="mb3a8f852b2" style="stroke:#ff00ff;"/>
    </defs>
    <g clip-path="url(#p646c656b6b)">
     <use style="fill:#ff00ff;stroke:#ff00ff;" x="258.384233" xlink:href="#mb3a8f852b2" y="134.999336"/>
    </g>
   </g>
   <g id="line2d_44">
    <defs>
     <path d="M 0 1.5 
C 0.397805 1.5 0.77937 1.341951 1.06066 1.06066 
C 1.341951 0.77937 1.5 0.397805 1.5 0 
C 1.5 -0.397805 1.341951 -0.77937 1.06066 -1.06066 
C 0.77937 -1.341951 0.397805 -1.5 0 -1.5 
C -0.397805 -1.5 -0.77937 -1.341951 -1.06066 -1.06066 
C -1.341951 -0.77937 -1.5 -0.397805 -1.5 0 
C -1.5 0.397805 -1.341951 0.77937 -1.06066 1.06066 
C -0.77937 1.341951 -0.397805 1.5 0 1.5 
z
" id="m70952ce9e3" style="stroke:#ff7500;"/>
    </defs>
    <g>
     <use style="fill:#ff7500;stroke:#ff7500;" x="254.627234" xlink:href="#m70952ce9e3" y="168.344014"/>
     <use style="fill:#ff7500;stroke:#ff7500;" x="254.627234" xlink:href="#m70952ce9e3" y="168.344014"/>
    </g>
   </g>
   <g id="line2d_45">
    <path d="M 148.322166 298.944 
L 148.322166 297.091518 
L 149.073705 297.091518 
L 149.073705 296.165277 
L 149.616841 296.165277 
L 149.616841 293.386554 
L 152.027042 293.386554 
L 152.027042 292.460313 
L 152.283884 292.460313 
L 152.283884 291.997192 
L 152.587184 291.997192 
L 152.587184 291.534072 
L 153.418948 291.534072 
L 153.418948 291.070951 
L 153.867041 291.070951 
L 153.867041 290.607831 
L 154.81851 290.607831 
L 154.81851 288.755349 
L 155.425155 288.755349 
L 155.425155 288.292228 
L 155.55245 288.292228 
L 155.55245 286.902867 
L 155.804285 286.902867 
L 155.804285 285.976625 
L 156.538679 285.976625 
L 156.538679 285.050384 
L 157.011638 285.050384 
L 157.011638 282.734782 
L 157.166482 282.734782 
L 157.166482 281.808541 
L 157.58535 281.808541 
L 157.622935 279.029818 
L 157.79107 279.029818 
L 157.79107 278.103577 
L 158.340096 278.103577 
L 158.340096 274.398612 
L 158.767202 274.398612 
L 158.784773 273.009251 
L 158.924708 273.009251 
L 158.924708 272.54613 
L 159.422762 272.54613 
L 159.439685 270.230528 
L 160.313893 270.230528 
L 160.313893 269.767407 
L 160.458086 269.767407 
L 160.553557 267.451805 
L 160.711523 267.451805 
L 160.711523 266.062443 
L 160.94582 266.062443 
L 160.94582 265.136202 
L 161.084903 265.136202 
L 161.084903 264.209961 
L 161.585586 264.209961 
L 161.585586 263.28372 
L 162.403659 263.28372 
L 162.403659 262.8206 
L 162.616422 262.8206 
L 162.644595 260.968117 
L 162.79874 260.968117 
L 162.79874 260.504997 
L 163.225959 260.504997 
L 163.33453 258.652515 
L 163.402046 258.652515 
L 163.402046 257.726274 
L 163.735759 257.726274 
L 163.735759 257.263153 
L 164.024234 257.263153 
L 164.127963 255.410671 
L 164.231078 255.410671 
L 164.231078 254.947551 
L 164.574657 254.947551 
L 164.574657 254.48443 
L 164.76265 254.48443 
L 164.76265 253.558189 
L 165.047026 253.558189 
L 165.047026 253.095069 
L 165.338904 253.095069 
L 165.435121 252.168828 
L 165.755989 252.168828 
L 165.755989 251.242587 
L 166.013141 251.242587 
L 166.047915 249.390104 
L 166.255117 249.390104 
L 166.277988 247.074502 
L 166.437252 247.074502 
L 166.437252 246.611381 
L 167.0929 246.611381 
L 167.158215 245.22202 
L 167.234109 245.22202 
L 167.234109 244.295779 
L 167.996141 244.295779 
L 167.996141 242.906417 
L 168.375159 242.906417 
L 168.375159 241.980176 
L 168.646632 241.980176 
L 168.646632 241.053935 
L 168.835167 241.053935 
L 168.835167 240.127694 
L 168.9532 240.127694 
L 168.9532 239.664574 
L 169.128764 239.664574 
L 169.128764 239.201453 
L 169.841835 239.201453 
L 169.841835 238.738333 
L 170.88154 238.738333 
L 170.88154 237.812091 
L 171.003983 237.812091 
L 171.021405 236.88585 
L 171.937241 236.88585 
L 171.937241 236.42273 
L 172.150719 236.42273 
L 172.215882 235.496489 
L 172.569992 235.496489 
L 172.569992 235.033368 
L 173.485609 235.033368 
L 173.568564 233.644007 
L 173.852135 233.644007 
L 173.852135 233.180886 
L 174.021557 233.180886 
L 174.021557 232.717766 
L 174.203864 232.717766 
L 174.203864 231.791525 
L 174.527289 231.791525 
L 174.527289 231.328404 
L 175.232072 231.328404 
L 175.232072 230.865284 
L 176.370396 230.865284 
L 176.370396 229.939043 
L 176.993406 229.939043 
L 176.993406 229.012802 
L 177.920349 229.012802 
L 177.920349 228.086561 
L 178.25132 228.086561 
L 178.25707 223.455355 
L 178.638117 223.455355 
L 178.638117 222.529114 
L 181.016664 222.529114 
L 181.016664 221.602873 
L 181.376149 221.602873 
L 181.376149 220.676632 
L 182.293971 220.676632 
L 182.293971 220.213512 
L 186.08387 220.213512 
L 186.08387 219.287271 
L 187.798988 219.287271 
L 187.798988 218.36103 
L 190.416784 218.36103 
L 190.416784 217.434789 
L 191.00514 217.434789 
L 191.027271 216.045427 
L 192.295947 216.045427 
L 192.295947 215.119186 
L 192.454604 215.119186 
L 192.505477 213.729825 
L 192.604255 213.729825 
L 192.604255 212.803583 
L 192.832583 212.803583 
L 192.832583 212.340463 
L 193.99917 212.340463 
L 193.99917 210.951101 
L 194.522802 210.951101 
L 194.522802 210.02486 
L 195.482358 210.02486 
L 195.557145 208.172378 
L 195.695191 208.172378 
L 195.709992 206.319896 
L 196.953853 206.319896 
L 196.953853 205.856776 
L 197.521175 205.856776 
L 197.542119 204.930535 
L 197.644569 204.930535 
L 197.644569 204.467414 
L 198.760141 204.467414 
L 198.760141 204.004294 
L 199.515431 204.004294 
L 199.515431 203.078053 
L 199.931831 203.078053 
L 199.931831 202.151812 
L 200.635838 202.151812 
L 200.635838 201.688691 
L 202.759158 201.688691 
L 202.759158 201.225571 
L 203.22 201.225571 
L 203.22 200.299329 
L 203.603236 200.299329 
L 203.603236 199.836209 
L 203.75447 199.836209 
L 203.75447 198.909968 
L 204.16405 198.909968 
L 204.16405 197.983727 
L 204.789209 197.983727 
L 204.789209 197.520606 
L 205.891388 197.520606 
L 205.961978 196.594365 
L 206.554136 196.594365 
L 206.554136 196.131245 
L 206.785257 196.131245 
L 206.785257 195.668124 
L 208.239373 195.668124 
L 208.239373 194.278763 
L 209.031013 194.278763 
L 209.064459 192.889401 
L 209.327809 192.889401 
L 209.327809 192.426281 
L 209.687099 192.426281 
L 209.687099 191.96316 
L 211.686484 191.96316 
L 211.686484 191.036919 
L 212.411104 191.036919 
L 212.411104 190.573799 
L 213.093556 190.573799 
L 213.093556 190.110678 
L 213.900647 190.110678 
L 213.900647 189.184437 
L 214.16672 189.184437 
L 214.253787 187.795075 
L 214.522473 187.795075 
L 214.522473 186.868834 
L 215.163114 186.868834 
L 215.163114 186.405714 
L 215.832462 186.405714 
L 215.832462 185.942593 
L 216.146941 185.942593 
L 216.146941 185.479473 
L 216.906683 185.479473 
L 216.906683 184.090111 
L 218.134299 184.090111 
L 218.134299 183.16387 
L 218.955371 183.16387 
L 218.955371 182.237629 
L 221.385278 182.237629 
L 221.385278 181.774509 
L 221.599721 181.774509 
L 221.599721 180.385147 
L 222.002611 180.385147 
L 222.002611 179.922027 
L 222.289006 179.922027 
L 222.289006 178.069545 
L 223.898752 178.069545 
L 223.995455 176.217062 
L 224.852005 176.217062 
L 224.852005 175.753942 
L 225.02208 175.753942 
L 225.02208 174.827701 
L 225.71844 174.827701 
L 225.71844 173.90146 
L 226.402246 173.90146 
L 226.402246 173.438339 
L 228.752607 173.438339 
L 228.752607 172.975219 
L 229.601429 172.975219 
L 229.601429 172.512098 
L 230.565626 172.512098 
L 230.565626 172.048978 
L 234.347966 172.048978 
L 234.347966 171.122737 
L 240.525528 171.122737 
L 240.525528 170.196496 
L 245.730139 170.196496 
L 245.730139 169.733375 
L 246.209449 169.733375 
L 246.209449 168.807134 
L 254.627234 168.807134 
L 254.627234 168.344014 
L 338.688 168.344014 
L 338.688 168.344014 
" style="fill:none;stroke:#ff7500;stroke-linecap:square;stroke-width:1.5;"/>
   </g>
   <g id="line2d_46">
    <defs>
     <path d="M 0 -6 
L -1.347084 -1.854102 
L -5.706339 -1.854102 
L -2.179628 0.708204 
L -3.526712 4.854102 
L -0 2.291796 
L 3.526712 4.854102 
L 2.179628 0.708204 
L 5.706339 -1.854102 
L 1.347084 -1.854102 
z
" id="m521c7f192a" style="stroke:#ff7500;stroke-linejoin:bevel;stroke-width:1.5;"/>
    </defs>
    <g>
     <use style="fill-opacity:0;stroke:#ff7500;stroke-linejoin:bevel;stroke-width:1.5;" x="195.482358" xlink:href="#m521c7f192a" y="210.02486"/>
     <use style="fill-opacity:0;stroke:#ff7500;stroke-linejoin:bevel;stroke-width:1.5;" x="240.525528" xlink:href="#m521c7f192a" y="171.122737"/>
     <use style="fill-opacity:0;stroke:#ff7500;stroke-linejoin:bevel;stroke-width:1.5;" x="254.627234" xlink:href="#m521c7f192a" y="168.344014"/>
     <use style="fill-opacity:0;stroke:#ff7500;stroke-linejoin:bevel;stroke-width:1.5;" x="254.627234" xlink:href="#m521c7f192a" y="168.344014"/>
     <use style="fill-opacity:0;stroke:#ff7500;stroke-linejoin:bevel;stroke-width:1.5;" x="338.688" xlink:href="#m521c7f192a" y="168.344014"/>
    </g>
   </g>
   <g id="line2d_47">
    <path style="fill:none;stroke:#ff7500;stroke-linecap:square;stroke-width:1.5;"/>
    <g/>
   </g>
   <g id="line2d_48">
    <path clip-path="url(#p646c656b6b)" d="M 258.377201 168.344014 
" style="fill:none;stroke:#ff7500;stroke-linecap:square;stroke-width:1.5;"/>
    <defs>
     <path d="M -12 12 
L 12 -12 
M -12 -12 
L 12 12 
" id="m9bbee68570" style="stroke:#ff7500;"/>
    </defs>
    <g clip-path="url(#p646c656b6b)">
     <use style="fill:#ff7500;stroke:#ff7500;" x="258.377201" xlink:href="#m9bbee68570" y="168.344014"/>
    </g>
   </g>
   <g id="line2d_49">
    <path d="M 338.688 168.344014 
L 369.60768 293.571802 
" style="fill:none;stroke:#ff7500;stroke-linecap:square;stroke-width:1.5;"/>
    <g>
     <use style="fill-opacity:0;stroke:#ff7500;stroke-linejoin:bevel;stroke-width:1.5;" x="338.688" xlink:href="#m521c7f192a" y="168.344014"/>
     <use style="fill-opacity:0;stroke:#ff7500;stroke-linejoin:bevel;stroke-width:1.5;" x="369.60768" xlink:href="#m521c7f192a" y="293.571802"/>
    </g>
   </g>
   <g id="line2d_50">
    <path d="M 338.688 155.376639 
L 369.60768 207.616634 
" style="fill:none;stroke:#000080;stroke-linecap:square;stroke-width:1.5;"/>
    <g>
     <use style="fill-opacity:0;stroke:#000080;stroke-width:1.5;" x="338.688" xlink:href="#m569c4caeee" y="155.376639"/>
     <use style="fill-opacity:0;stroke:#000080;stroke-width:1.5;" x="369.60768" xlink:href="#m569c4caeee" y="207.616634"/>
    </g>
   </g>
   <g id="line2d_51">
    <path d="M 338.688 134.999336 
L 369.60768 121.661465 
" style="fill:none;stroke:#ff00ff;stroke-linecap:square;stroke-width:1.5;"/>
    <g>
     <use style="fill-opacity:0;stroke:#ff00ff;stroke-linejoin:miter;stroke-width:1.5;" x="338.688" xlink:href="#m51abd2cebe" y="134.999336"/>
     <use style="fill-opacity:0;stroke:#ff00ff;stroke-linejoin:miter;stroke-width:1.5;" x="369.60768" xlink:href="#m51abd2cebe" y="121.661465"/>
    </g>
   </g>
   <g id="line2d_52">
    <path d="M 338.688 298.944 
L 338.688 30.334099 
" style="fill:none;stroke:#000000;stroke-linecap:square;stroke-width:1.5;"/>
   </g>
   <g id="patch_3">
    <path d="M 57.6 298.944 
L 57.6 27.648 
" style="fill:none;stroke:#000000;stroke-linecap:square;stroke-linejoin:miter;stroke-width:0.8;"/>
   </g>
   <g id="patch_4">
    <path d="M 338.688 298.944 
L 338.688 27.648 
" style="fill:none;stroke:#000000;stroke-linecap:square;stroke-linejoin:miter;stroke-width:0.8;"/>
   </g>
   <g id="patch_5">
    <path d="M 57.6 298.944 
L 338.688 298.944 
" style="fill:none;stroke:#000000;stroke-linecap:square;stroke-linejoin:miter;stroke-width:0.8;"/>
   </g>
   <g id="patch_6">
    <path d="M 57.6 27.648 
L 338.688 27.648 
" style="fill:none;stroke:#000000;stroke-linecap:square;stroke-linejoin:miter;stroke-width:0.8;"/>
   </g>
   <g id="text_13">
    <!-- SMS-EMOA- -->
    <g transform="translate(375.22944 298.262739)scale(0.17 -0.17)">
     <defs>
      <path d="M 53.515625 70.515625 
L 53.515625 60.890625 
Q 47.90625 63.578125 42.921875 64.890625 
Q 37.9375 66.21875 33.296875 66.21875 
Q 25.25 66.21875 20.875 63.09375 
Q 16.5 59.96875 16.5 54.203125 
Q 16.5 49.359375 19.40625 46.890625 
Q 22.3125 44.4375 30.421875 42.921875 
L 36.375 41.703125 
Q 47.40625 39.59375 52.65625 34.296875 
Q 57.90625 29 57.90625 20.125 
Q 57.90625 9.515625 50.796875 4.046875 
Q 43.703125 -1.421875 29.984375 -1.421875 
Q 24.8125 -1.421875 18.96875 -0.25 
Q 13.140625 0.921875 6.890625 3.21875 
L 6.890625 13.375 
Q 12.890625 10.015625 18.65625 8.296875 
Q 24.421875 6.59375 29.984375 6.59375 
Q 38.421875 6.59375 43.015625 9.90625 
Q 47.609375 13.234375 47.609375 19.390625 
Q 47.609375 24.75 44.3125 27.78125 
Q 41.015625 30.8125 33.5 32.328125 
L 27.484375 33.5 
Q 16.453125 35.6875 11.515625 40.375 
Q 6.59375 45.0625 6.59375 53.421875 
Q 6.59375 63.09375 13.40625 68.65625 
Q 20.21875 74.21875 32.171875 74.21875 
Q 37.3125 74.21875 42.625 73.28125 
Q 47.953125 72.359375 53.515625 70.515625 
z
" id="DejaVuSans-83"/>
      <path d="M 9.8125 72.90625 
L 24.515625 72.90625 
L 43.109375 23.296875 
L 61.8125 72.90625 
L 76.515625 72.90625 
L 76.515625 0 
L 66.890625 0 
L 66.890625 64.015625 
L 48.09375 14.015625 
L 38.1875 14.015625 
L 19.390625 64.015625 
L 19.390625 0 
L 9.8125 0 
z
" id="DejaVuSans-77"/>
      <path d="M 9.8125 72.90625 
L 55.90625 72.90625 
L 55.90625 64.59375 
L 19.671875 64.59375 
L 19.671875 43.015625 
L 54.390625 43.015625 
L 54.390625 34.71875 
L 19.671875 34.71875 
L 19.671875 8.296875 
L 56.78125 8.296875 
L 56.78125 0 
L 9.8125 0 
z
" id="DejaVuSans-69"/>
      <path d="M 39.40625 66.21875 
Q 28.65625 66.21875 22.328125 58.203125 
Q 16.015625 50.203125 16.015625 36.375 
Q 16.015625 22.609375 22.328125 14.59375 
Q 28.65625 6.59375 39.40625 6.59375 
Q 50.140625 6.59375 56.421875 14.59375 
Q 62.703125 22.609375 62.703125 36.375 
Q 62.703125 50.203125 56.421875 58.203125 
Q 50.140625 66.21875 39.40625 66.21875 
z
M 39.40625 74.21875 
Q 54.734375 74.21875 63.90625 63.9375 
Q 73.09375 53.65625 73.09375 36.375 
Q 73.09375 19.140625 63.90625 8.859375 
Q 54.734375 -1.421875 39.40625 -1.421875 
Q 24.03125 -1.421875 14.8125 8.828125 
Q 5.609375 19.09375 5.609375 36.375 
Q 5.609375 53.65625 14.8125 63.9375 
Q 24.03125 74.21875 39.40625 74.21875 
z
" id="DejaVuSans-79"/>
      <path d="M 34.1875 63.1875 
L 20.796875 26.90625 
L 47.609375 26.90625 
z
M 28.609375 72.90625 
L 39.796875 72.90625 
L 67.578125 0 
L 57.328125 0 
L 50.6875 18.703125 
L 17.828125 18.703125 
L 11.1875 0 
L 0.78125 0 
z
" id="DejaVuSans-65"/>
     </defs>
     <use xlink:href="#DejaVuSans-83"/>
     <use x="63.476562" xlink:href="#DejaVuSans-77"/>
     <use x="149.755859" xlink:href="#DejaVuSans-83"/>
     <use x="213.232422" xlink:href="#DejaVuSans-45"/>
     <use x="249.316406" xlink:href="#DejaVuSans-69"/>
     <use x="312.5" xlink:href="#DejaVuSans-77"/>
     <use x="398.779297" xlink:href="#DejaVuSans-79"/>
     <use x="475.740234" xlink:href="#DejaVuSans-65"/>
     <use x="541.898438" xlink:href="#DejaVuSans-45"/>
    </g>
   </g>
   <g id="text_14">
    <!-- COMO-100  -->
    <g transform="translate(375.22944 212.307571)scale(0.17 -0.17)">
     <defs>
      <path d="M 64.40625 67.28125 
L 64.40625 56.890625 
Q 59.421875 61.53125 53.78125 63.8125 
Q 48.140625 66.109375 41.796875 66.109375 
Q 29.296875 66.109375 22.65625 58.46875 
Q 16.015625 50.828125 16.015625 36.375 
Q 16.015625 21.96875 22.65625 14.328125 
Q 29.296875 6.6875 41.796875 6.6875 
Q 48.140625 6.6875 53.78125 8.984375 
Q 59.421875 11.28125 64.40625 15.921875 
L 64.40625 5.609375 
Q 59.234375 2.09375 53.4375 0.328125 
Q 47.65625 -1.421875 41.21875 -1.421875 
Q 24.65625 -1.421875 15.125 8.703125 
Q 5.609375 18.84375 5.609375 36.375 
Q 5.609375 53.953125 15.125 64.078125 
Q 24.65625 74.21875 41.21875 74.21875 
Q 47.75 74.21875 53.53125 72.484375 
Q 59.328125 70.75 64.40625 67.28125 
z
" id="DejaVuSans-67"/>
     </defs>
     <use xlink:href="#DejaVuSans-67"/>
     <use x="69.824219" xlink:href="#DejaVuSans-79"/>
     <use x="148.535156" xlink:href="#DejaVuSans-77"/>
     <use x="234.814453" xlink:href="#DejaVuSans-79"/>
     <use x="316.275391" xlink:href="#DejaVuSans-45"/>
     <use x="352.359375" xlink:href="#DejaVuSans-49"/>
     <use x="415.982422" xlink:href="#DejaVuSans-48"/>
     <use x="479.605469" xlink:href="#DejaVuSans-48"/>
     <use x="543.228516" xlink:href="#DejaVuSans-32"/>
    </g>
   </g>
   <g id="text_15">
    <!-- NSGA-II-M -->
    <g transform="translate(375.22944 126.352403)scale(0.17 -0.17)">
     <defs>
      <path d="M 9.8125 72.90625 
L 23.09375 72.90625 
L 55.421875 11.921875 
L 55.421875 72.90625 
L 64.984375 72.90625 
L 64.984375 0 
L 51.703125 0 
L 19.390625 60.984375 
L 19.390625 0 
L 9.8125 0 
z
" id="DejaVuSans-78"/>
      <path d="M 59.515625 10.40625 
L 59.515625 29.984375 
L 43.40625 29.984375 
L 43.40625 38.09375 
L 69.28125 38.09375 
L 69.28125 6.78125 
Q 63.578125 2.734375 56.6875 0.65625 
Q 49.8125 -1.421875 42 -1.421875 
Q 24.90625 -1.421875 15.25 8.5625 
Q 5.609375 18.5625 5.609375 36.375 
Q 5.609375 54.25 15.25 64.234375 
Q 24.90625 74.21875 42 74.21875 
Q 49.125 74.21875 55.546875 72.453125 
Q 61.96875 70.703125 67.390625 67.28125 
L 67.390625 56.78125 
Q 61.921875 61.421875 55.765625 63.765625 
Q 49.609375 66.109375 42.828125 66.109375 
Q 29.4375 66.109375 22.71875 58.640625 
Q 16.015625 51.171875 16.015625 36.375 
Q 16.015625 21.625 22.71875 14.15625 
Q 29.4375 6.6875 42.828125 6.6875 
Q 48.046875 6.6875 52.140625 7.59375 
Q 56.25 8.5 59.515625 10.40625 
z
" id="DejaVuSans-71"/>
      <path d="M 9.8125 72.90625 
L 19.671875 72.90625 
L 19.671875 0 
L 9.8125 0 
z
" id="DejaVuSans-73"/>
     </defs>
     <use xlink:href="#DejaVuSans-78"/>
     <use x="74.804688" xlink:href="#DejaVuSans-83"/>
     <use x="138.28125" xlink:href="#DejaVuSans-71"/>
     <use x="215.771484" xlink:href="#DejaVuSans-65"/>
     <use x="281.929688" xlink:href="#DejaVuSans-45"/>
     <use x="318.013672" xlink:href="#DejaVuSans-73"/>
     <use x="347.505859" xlink:href="#DejaVuSans-73"/>
     <use x="376.998047" xlink:href="#DejaVuSans-45"/>
     <use x="413.082031" xlink:href="#DejaVuSans-77"/>
    </g>
   </g>
   <g id="text_16">
    <!-- best 2016 -->
    <g transform="translate(375.22944 40.397235)scale(0.17 -0.17)">
     <defs>
      <path d="M 48.6875 27.296875 
Q 48.6875 37.203125 44.609375 42.84375 
Q 40.53125 48.484375 33.40625 48.484375 
Q 26.265625 48.484375 22.1875 42.84375 
Q 18.109375 37.203125 18.109375 27.296875 
Q 18.109375 17.390625 22.1875 11.75 
Q 26.265625 6.109375 33.40625 6.109375 
Q 40.53125 6.109375 44.609375 11.75 
Q 48.6875 17.390625 48.6875 27.296875 
z
M 18.109375 46.390625 
Q 20.953125 51.265625 25.265625 53.625 
Q 29.59375 56 35.59375 56 
Q 45.5625 56 51.78125 48.09375 
Q 58.015625 40.1875 58.015625 27.296875 
Q 58.015625 14.40625 51.78125 6.484375 
Q 45.5625 -1.421875 35.59375 -1.421875 
Q 29.59375 -1.421875 25.265625 0.953125 
Q 20.953125 3.328125 18.109375 8.203125 
L 18.109375 0 
L 9.078125 0 
L 9.078125 75.984375 
L 18.109375 75.984375 
z
" id="DejaVuSans-98"/>
     </defs>
     <use xlink:href="#DejaVuSans-98"/>
     <use x="63.476562" xlink:href="#DejaVuSans-101"/>
     <use x="125" xlink:href="#DejaVuSans-115"/>
     <use x="177.099609" xlink:href="#DejaVuSans-116"/>
     <use x="216.308594" xlink:href="#DejaVuSans-32"/>
     <use x="248.095703" xlink:href="#DejaVuSans-50"/>
     <use x="311.71875" xlink:href="#DejaVuSans-48"/>
     <use x="375.341797" xlink:href="#DejaVuSans-49"/>
     <use x="438.964844" xlink:href="#DejaVuSans-54"/>
    </g>
   </g>
   <g id="text_17">
    <!-- bbob-biobj f31, 3-D -->
    <g transform="translate(60.41088 38.111366)scale(0.102 -0.102)">
     <defs>
      <path d="M 9.421875 54.6875 
L 18.40625 54.6875 
L 18.40625 -0.984375 
Q 18.40625 -11.421875 14.421875 -16.109375 
Q 10.453125 -20.796875 1.609375 -20.796875 
L -1.8125 -20.796875 
L -1.8125 -13.1875 
L 0.59375 -13.1875 
Q 5.71875 -13.1875 7.5625 -10.8125 
Q 9.421875 -8.453125 9.421875 -0.984375 
z
M 9.421875 75.984375 
L 18.40625 75.984375 
L 18.40625 64.59375 
L 9.421875 64.59375 
z
" id="DejaVuSans-106"/>
      <path d="M 40.578125 39.3125 
Q 47.65625 37.796875 51.625 33 
Q 55.609375 28.21875 55.609375 21.1875 
Q 55.609375 10.40625 48.1875 4.484375 
Q 40.765625 -1.421875 27.09375 -1.421875 
Q 22.515625 -1.421875 17.65625 -0.515625 
Q 12.796875 0.390625 7.625 2.203125 
L 7.625 11.71875 
Q 11.71875 9.328125 16.59375 8.109375 
Q 21.484375 6.890625 26.8125 6.890625 
Q 36.078125 6.890625 40.9375 10.546875 
Q 45.796875 14.203125 45.796875 21.1875 
Q 45.796875 27.640625 41.28125 31.265625 
Q 36.765625 34.90625 28.71875 34.90625 
L 20.21875 34.90625 
L 20.21875 43.015625 
L 29.109375 43.015625 
Q 36.375 43.015625 40.234375 45.921875 
Q 44.09375 48.828125 44.09375 54.296875 
Q 44.09375 59.90625 40.109375 62.90625 
Q 36.140625 65.921875 28.71875 65.921875 
Q 24.65625 65.921875 20.015625 65.03125 
Q 15.375 64.15625 9.8125 62.3125 
L 9.8125 71.09375 
Q 15.4375 72.65625 20.34375 73.4375 
Q 25.25 74.21875 29.59375 74.21875 
Q 40.828125 74.21875 47.359375 69.109375 
Q 53.90625 64.015625 53.90625 55.328125 
Q 53.90625 49.265625 50.4375 45.09375 
Q 46.96875 40.921875 40.578125 39.3125 
z
" id="DejaVuSans-51"/>
      <path d="M 19.671875 64.796875 
L 19.671875 8.109375 
L 31.59375 8.109375 
Q 46.6875 8.109375 53.6875 14.9375 
Q 60.6875 21.78125 60.6875 36.53125 
Q 60.6875 51.171875 53.6875 57.984375 
Q 46.6875 64.796875 31.59375 64.796875 
z
M 9.8125 72.90625 
L 30.078125 72.90625 
Q 51.265625 72.90625 61.171875 64.09375 
Q 71.09375 55.28125 71.09375 36.53125 
Q 71.09375 17.671875 61.125 8.828125 
Q 51.171875 0 30.078125 0 
L 9.8125 0 
z
" id="DejaVuSans-68"/>
     </defs>
     <use xlink:href="#DejaVuSans-98"/>
     <use x="63.476562" xlink:href="#DejaVuSans-98"/>
     <use x="126.953125" xlink:href="#DejaVuSans-111"/>
     <use x="188.134766" xlink:href="#DejaVuSans-98"/>
     <use x="251.611328" xlink:href="#DejaVuSans-45"/>
     <use x="287.695312" xlink:href="#DejaVuSans-98"/>
     <use x="351.171875" xlink:href="#DejaVuSans-105"/>
     <use x="378.955078" xlink:href="#DejaVuSans-111"/>
     <use x="440.136719" xlink:href="#DejaVuSans-98"/>
     <use x="503.613281" xlink:href="#DejaVuSans-106"/>
     <use x="531.396484" xlink:href="#DejaVuSans-32"/>
     <use x="563.183594" xlink:href="#DejaVuSans-102"/>
     <use x="598.388672" xlink:href="#DejaVuSans-51"/>
     <use x="662.011719" xlink:href="#DejaVuSans-49"/>
     <use x="725.634766" xlink:href="#DejaVuSans-44"/>
     <use x="757.421875" xlink:href="#DejaVuSans-32"/>
     <use x="789.208984" xlink:href="#DejaVuSans-51"/>
     <use x="852.832031" xlink:href="#DejaVuSans-45"/>
     <use x="888.916016" xlink:href="#DejaVuSans-68"/>
    </g>
    <!-- 58 targets: 1..-1.0e-4 -->
    <g transform="translate(60.41088 49.533135)scale(0.102 -0.102)">
     <defs>
      <path d="M 10.796875 72.90625 
L 49.515625 72.90625 
L 49.515625 64.59375 
L 19.828125 64.59375 
L 19.828125 46.734375 
Q 21.96875 47.46875 24.109375 47.828125 
Q 26.265625 48.1875 28.421875 48.1875 
Q 40.625 48.1875 47.75 41.5 
Q 54.890625 34.8125 54.890625 23.390625 
Q 54.890625 11.625 47.5625 5.09375 
Q 40.234375 -1.421875 26.90625 -1.421875 
Q 22.3125 -1.421875 17.546875 -0.640625 
Q 12.796875 0.140625 7.71875 1.703125 
L 7.71875 11.625 
Q 12.109375 9.234375 16.796875 8.0625 
Q 21.484375 6.890625 26.703125 6.890625 
Q 35.15625 6.890625 40.078125 11.328125 
Q 45.015625 15.765625 45.015625 23.390625 
Q 45.015625 31 40.078125 35.4375 
Q 35.15625 39.890625 26.703125 39.890625 
Q 22.75 39.890625 18.8125 39.015625 
Q 14.890625 38.140625 10.796875 36.28125 
z
" id="DejaVuSans-53"/>
      <path d="M 11.71875 12.40625 
L 22.015625 12.40625 
L 22.015625 0 
L 11.71875 0 
z
M 11.71875 51.703125 
L 22.015625 51.703125 
L 22.015625 39.3125 
L 11.71875 39.3125 
z
" id="DejaVuSans-58"/>
     </defs>
     <use xlink:href="#DejaVuSans-53"/>
     <use x="63.623047" xlink:href="#DejaVuSans-56"/>
     <use x="127.246094" xlink:href="#DejaVuSans-32"/>
     <use x="159.033203" xlink:href="#DejaVuSans-116"/>
     <use x="198.242188" xlink:href="#DejaVuSans-97"/>
     <use x="259.521484" xlink:href="#DejaVuSans-114"/>
     <use x="298.884766" xlink:href="#DejaVuSans-103"/>
     <use x="362.361328" xlink:href="#DejaVuSans-101"/>
     <use x="423.884766" xlink:href="#DejaVuSans-116"/>
     <use x="463.09375" xlink:href="#DejaVuSans-115"/>
     <use x="515.193359" xlink:href="#DejaVuSans-58"/>
     <use x="548.884766" xlink:href="#DejaVuSans-32"/>
     <use x="580.671875" xlink:href="#DejaVuSans-49"/>
     <use x="644.294922" xlink:href="#DejaVuSans-46"/>
     <use x="676.082031" xlink:href="#DejaVuSans-46"/>
     <use x="707.869141" xlink:href="#DejaVuSans-45"/>
     <use x="743.953125" xlink:href="#DejaVuSans-49"/>
     <use x="807.576172" xlink:href="#DejaVuSans-46"/>
     <use x="839.363281" xlink:href="#DejaVuSans-48"/>
     <use x="902.986328" xlink:href="#DejaVuSans-101"/>
     <use x="964.509766" xlink:href="#DejaVuSans-45"/>
     <use x="1000.59375" xlink:href="#DejaVuSans-52"/>
    </g>
    <!-- 10 instances -->
    <g transform="translate(60.41088 60.954904)scale(0.102 -0.102)">
     <use xlink:href="#DejaVuSans-49"/>
     <use x="63.623047" xlink:href="#DejaVuSans-48"/>
     <use x="127.246094" xlink:href="#DejaVuSans-32"/>
     <use x="159.033203" xlink:href="#DejaVuSans-105"/>
     <use x="186.816406" xlink:href="#DejaVuSans-110"/>
     <use x="250.195312" xlink:href="#DejaVuSans-115"/>
     <use x="302.294922" xlink:href="#DejaVuSans-116"/>
     <use x="341.503906" xlink:href="#DejaVuSans-97"/>
     <use x="402.783203" xlink:href="#DejaVuSans-110"/>
     <use x="466.162109" xlink:href="#DejaVuSans-99"/>
     <use x="521.142578" xlink:href="#DejaVuSans-101"/>
     <use x="582.666016" xlink:href="#DejaVuSans-115"/>
    </g>
   </g>
   <g id="text_18">
    <!-- v2.4.19, hv-hash=ff0e71e8cd978373 -->
    <g style="fill:#808080;" transform="translate(104.697125 294.151352)scale(0.1 -0.1)">
     <defs>
      <path d="M 10.984375 1.515625 
L 10.984375 10.5 
Q 14.703125 8.734375 18.5 7.8125 
Q 22.3125 6.890625 25.984375 6.890625 
Q 35.75 6.890625 40.890625 13.453125 
Q 46.046875 20.015625 46.78125 33.40625 
Q 43.953125 29.203125 39.59375 26.953125 
Q 35.25 24.703125 29.984375 24.703125 
Q 19.046875 24.703125 12.671875 31.3125 
Q 6.296875 37.9375 6.296875 49.421875 
Q 6.296875 60.640625 12.9375 67.421875 
Q 19.578125 74.21875 30.609375 74.21875 
Q 43.265625 74.21875 49.921875 64.515625 
Q 56.59375 54.828125 56.59375 36.375 
Q 56.59375 19.140625 48.40625 8.859375 
Q 40.234375 -1.421875 26.421875 -1.421875 
Q 22.703125 -1.421875 18.890625 -0.6875 
Q 15.09375 0.046875 10.984375 1.515625 
z
M 30.609375 32.421875 
Q 37.25 32.421875 41.125 36.953125 
Q 45.015625 41.5 45.015625 49.421875 
Q 45.015625 57.28125 41.125 61.84375 
Q 37.25 66.40625 30.609375 66.40625 
Q 23.96875 66.40625 20.09375 61.84375 
Q 16.21875 57.28125 16.21875 49.421875 
Q 16.21875 41.5 20.09375 36.953125 
Q 23.96875 32.421875 30.609375 32.421875 
z
" id="DejaVuSans-57"/>
      <path d="M 54.890625 33.015625 
L 54.890625 0 
L 45.90625 0 
L 45.90625 32.71875 
Q 45.90625 40.484375 42.875 44.328125 
Q 39.84375 48.1875 33.796875 48.1875 
Q 26.515625 48.1875 22.3125 43.546875 
Q 18.109375 38.921875 18.109375 30.90625 
L 18.109375 0 
L 9.078125 0 
L 9.078125 75.984375 
L 18.109375 75.984375 
L 18.109375 46.1875 
Q 21.34375 51.125 25.703125 53.5625 
Q 30.078125 56 35.796875 56 
Q 45.21875 56 50.046875 50.171875 
Q 54.890625 44.34375 54.890625 33.015625 
z
" id="DejaVuSans-104"/>
      <path d="M 10.59375 45.40625 
L 73.1875 45.40625 
L 73.1875 37.203125 
L 10.59375 37.203125 
z
M 10.59375 25.484375 
L 73.1875 25.484375 
L 73.1875 17.1875 
L 10.59375 17.1875 
z
" id="DejaVuSans-61"/>
      <path d="M 8.203125 72.90625 
L 55.078125 72.90625 
L 55.078125 68.703125 
L 28.609375 0 
L 18.3125 0 
L 43.21875 64.59375 
L 8.203125 64.59375 
z
" id="DejaVuSans-55"/>
     </defs>
     <use xlink:href="#DejaVuSans-118"/>
     <use x="59.179688" xlink:href="#DejaVuSans-50"/>
     <use x="122.802734" xlink:href="#DejaVuSans-46"/>
     <use x="154.589844" xlink:href="#DejaVuSans-52"/>
     <use x="218.212891" xlink:href="#DejaVuSans-46"/>
     <use x="250" xlink:href="#DejaVuSans-49"/>
     <use x="313.623047" xlink:href="#DejaVuSans-57"/>
     <use x="377.246094" xlink:href="#DejaVuSans-44"/>
     <use x="409.033203" xlink:href="#DejaVuSans-32"/>
     <use x="440.820312" xlink:href="#DejaVuSans-104"/>
     <use x="504.199219" xlink:href="#DejaVuSans-118"/>
     <use x="560.753906" xlink:href="#DejaVuSans-45"/>
     <use x="596.837891" xlink:href="#DejaVuSans-104"/>
     <use x="660.216797" xlink:href="#DejaVuSans-97"/>
     <use x="721.496094" xlink:href="#DejaVuSans-115"/>
     <use x="773.595703" xlink:href="#DejaVuSans-104"/>
     <use x="836.974609" xlink:href="#DejaVuSans-61"/>
     <use x="920.763672" xlink:href="#DejaVuSans-102"/>
     <use x="955.96875" xlink:href="#DejaVuSans-102"/>
     <use x="991.173828" xlink:href="#DejaVuSans-48"/>
     <use x="1054.796875" xlink:href="#DejaVuSans-101"/>
     <use x="1116.320312" xlink:href="#DejaVuSans-55"/>
     <use x="1179.943359" xlink:href="#DejaVuSans-49"/>
     <use x="1243.566406" xlink:href="#DejaVuSans-101"/>
     <use x="1305.089844" xlink:href="#DejaVuSans-56"/>
     <use x="1368.712891" xlink:href="#DejaVuSans-99"/>
     <use x="1423.693359" xlink:href="#DejaVuSans-100"/>
     <use x="1487.169922" xlink:href="#DejaVuSans-57"/>
     <use x="1550.792969" xlink:href="#DejaVuSans-55"/>
     <use x="1614.416016" xlink:href="#DejaVuSans-56"/>
     <use x="1678.039062" xlink:href="#DejaVuSans-51"/>
     <use x="1741.662109" xlink:href="#DejaVuSans-55"/>
     <use x="1805.285156" xlink:href="#DejaVuSans-51"/>
    </g>
   </g>
   <g id="text_19">
    <!-- 31 Rosenbrock/Rastrigin -->
    <g transform="translate(76.578375 21.648)scale(0.2 -0.2)">
     <defs>
      <path d="M 44.390625 34.1875 
Q 47.5625 33.109375 50.5625 29.59375 
Q 53.5625 26.078125 56.59375 19.921875 
L 66.609375 0 
L 56 0 
L 46.6875 18.703125 
Q 43.0625 26.03125 39.671875 28.421875 
Q 36.28125 30.8125 30.421875 30.8125 
L 19.671875 30.8125 
L 19.671875 0 
L 9.8125 0 
L 9.8125 72.90625 
L 32.078125 72.90625 
Q 44.578125 72.90625 50.734375 67.671875 
Q 56.890625 62.453125 56.890625 51.90625 
Q 56.890625 45.015625 53.6875 40.46875 
Q 50.484375 35.9375 44.390625 34.1875 
z
M 19.671875 64.796875 
L 19.671875 38.921875 
L 32.078125 38.921875 
Q 39.203125 38.921875 42.84375 42.21875 
Q 46.484375 45.515625 46.484375 51.90625 
Q 46.484375 58.296875 42.84375 61.546875 
Q 39.203125 64.796875 32.078125 64.796875 
z
" id="DejaVuSans-82"/>
      <path d="M 9.078125 75.984375 
L 18.109375 75.984375 
L 18.109375 31.109375 
L 44.921875 54.6875 
L 56.390625 54.6875 
L 27.390625 29.109375 
L 57.625 0 
L 45.90625 0 
L 18.109375 26.703125 
L 18.109375 0 
L 9.078125 0 
z
" id="DejaVuSans-107"/>
     </defs>
     <use xlink:href="#DejaVuSans-51"/>
     <use x="63.623047" xlink:href="#DejaVuSans-49"/>
     <use x="127.246094" xlink:href="#DejaVuSans-32"/>
     <use x="159.033203" xlink:href="#DejaVuSans-82"/>
     <use x="224.015625" xlink:href="#DejaVuSans-111"/>
     <use x="285.197266" xlink:href="#DejaVuSans-115"/>
     <use x="337.296875" xlink:href="#DejaVuSans-101"/>
     <use x="398.820312" xlink:href="#DejaVuSans-110"/>
     <use x="462.199219" xlink:href="#DejaVuSans-98"/>
     <use x="525.675781" xlink:href="#DejaVuSans-114"/>
     <use x="564.539062" xlink:href="#DejaVuSans-111"/>
     <use x="625.720703" xlink:href="#DejaVuSans-99"/>
     <use x="680.701172" xlink:href="#DejaVuSans-107"/>
     <use x="738.611328" xlink:href="#DejaVuSans-47"/>
     <use x="772.302734" xlink:href="#DejaVuSans-82"/>
     <use x="839.535156" xlink:href="#DejaVuSans-97"/>
     <use x="900.814453" xlink:href="#DejaVuSans-115"/>
     <use x="952.914062" xlink:href="#DejaVuSans-116"/>
     <use x="992.123047" xlink:href="#DejaVuSans-114"/>
     <use x="1033.236328" xlink:href="#DejaVuSans-105"/>
     <use x="1061.019531" xlink:href="#DejaVuSans-103"/>
     <use x="1124.496094" xlink:href="#DejaVuSans-105"/>
     <use x="1152.279297" xlink:href="#DejaVuSans-110"/>
    </g>
   </g>
  </g>
 </g>
 <defs>
  <clipPath id="p646c656b6b">
   <rect height="271.296" width="281.088" x="57.6" y="27.648"/>
  </clipPath>
 </defs>
</svg>
