<?xml version="1.0" encoding="utf-8" standalone="no"?>
<!DOCTYPE svg PUBLIC "-//W3C//DTD SVG 1.1//EN"
  "http://www.w3.org/Graphics/SVG/1.1/DTD/svg11.dtd">
<!-- Created with matplotlib (https://matplotlib.org/) -->
<svg height="345.6pt" version="1.1" viewBox="0 0 460.8 345.6" width="460.8pt" xmlns="http://www.w3.org/2000/svg" xmlns:xlink="http://www.w3.org/1999/xlink">
 <metadata>
  <rdf:RDF xmlns:cc="http://creativecommons.org/ns#" xmlns:dc="http://purl.org/dc/elements/1.1/" xmlns:rdf="http://www.w3.org/1999/02/22-rdf-syntax-ns#">
   <cc:Work>
    <dc:type rdf:resource="http://purl.org/dc/dcmitype/StillImage"/>
    <dc:date>2021-04-26T15:06:16.562507</dc:date>
    <dc:format>image/svg+xml</dc:format>
    <dc:creator>
     <cc:Agent>
      <dc:title>Matplotlib v3.3.2, https://matplotlib.org/</dc:title>
     </cc:Agent>
    </dc:creator>
   </cc:Work>
  </rdf:RDF>
 </metadata>
 <defs>
  <style type="text/css">*{stroke-linecap:butt;stroke-linejoin:round;}</style>
 </defs>
 <g id="figure_1">
  <g id="patch_1">
   <path d="M 0 345.6 
L 460.8 345.6 
L 460.8 0 
L 0 0 
z
" style="fill:#ffffff;"/>
  </g>
  <g id="axes_1">
   <g id="patch_2">
    <path d="M 57.6 298.944 
L 338.688 298.944 
L 338.688 27.648 
L 57.6 27.648 
z
" style="fill:#ffffff;"/>
   </g>
   <g id="line2d_1">
    <path d="M 45.512012 298.944 
L 45.512012 294.312795 
L 57.6 294.312795 
L 57.6 285.050384 
L 76.16779 285.050384 
L 76.16779 275.787974 
L 83.830028 275.787974 
L 83.830028 271.156769 
L 98.270913 271.156769 
L 98.270913 257.263153 
L 110.358901 257.263153 
L 110.358901 248.000743 
L 119.097192 248.000743 
L 119.097192 243.369538 
L 125.647598 243.369538 
L 125.647598 234.107127 
L 133.644815 234.107127 
L 133.644815 220.213512 
L 139.856059 220.213512 
L 139.856059 210.951101 
L 146.107383 210.951101 
L 146.107383 201.688691 
L 152.788969 201.688691 
L 152.788969 192.426281 
L 159.237226 192.426281 
L 159.237226 187.795075 
L 165.127781 187.795075 
L 165.127781 173.90146 
L 170.679387 173.90146 
L 170.679387 169.270255 
L 180.389527 169.270255 
L 180.389527 155.376639 
L 189.541995 155.376639 
L 189.541995 146.114229 
L 197.087563 146.114229 
L 197.087563 141.483024 
L 203.488065 141.483024 
L 203.488065 127.589408 
L 210.321497 127.589408 
L 210.321497 122.958203 
L 216.448516 122.958203 
L 216.448516 109.064587 
L 223.204206 109.064587 
L 223.204206 99.802177 
L 229.870414 99.802177 
L 229.870414 90.539766 
L 238.619542 90.539766 
L 238.619542 85.908561 
L 247.247215 85.908561 
L 247.247215 76.646151 
L 254.617328 76.646151 
L 254.617328 62.752535 
L 338.688 62.752535 
" style="fill:none;stroke:#f5deb3;stroke-linecap:square;stroke-width:4;"/>
   </g>
   <g id="line2d_2">
    <defs>
     <path d="M 0 7.778175 
L 7.778175 0 
L 0 -7.778175 
L -7.778175 0 
z
" id="m687ee893a8" style="stroke:#f5deb3;stroke-linejoin:miter;stroke-width:1.5;"/>
    </defs>
    <g>
     <use style="fill:#f5deb3;stroke:#f5deb3;stroke-linejoin:miter;stroke-width:1.5;" x="125.647598" xlink:href="#m687ee893a8" y="243.369538"/>
     <use style="fill:#f5deb3;stroke:#f5deb3;stroke-linejoin:miter;stroke-width:1.5;" x="180.389527" xlink:href="#m687ee893a8" y="169.270255"/>
     <use style="fill:#f5deb3;stroke:#f5deb3;stroke-linejoin:miter;stroke-width:1.5;" x="229.870414" xlink:href="#m687ee893a8" y="99.802177"/>
     <use style="fill:#f5deb3;stroke:#f5deb3;stroke-linejoin:miter;stroke-width:1.5;" x="254.617328" xlink:href="#m687ee893a8" y="62.752535"/>
     <use style="fill:#f5deb3;stroke:#f5deb3;stroke-linejoin:miter;stroke-width:1.5;" x="254.617328" xlink:href="#m687ee893a8" y="62.752535"/>
     <use style="fill:#f5deb3;stroke:#f5deb3;stroke-linejoin:miter;stroke-width:1.5;" x="338.688" xlink:href="#m687ee893a8" y="62.752535"/>
    </g>
   </g>
   <g id="line2d_3">
    <path style="fill:none;stroke:#f5deb3;stroke-linecap:square;stroke-width:4;"/>
    <g/>
   </g>
   <g id="line2d_4">
    <path d="M 338.688 62.752535 
L 369.60768 35.706297 
" style="fill:none;stroke:#f5deb3;stroke-linecap:square;stroke-width:4;"/>
    <g>
     <use style="fill:#f5deb3;stroke:#f5deb3;stroke-linejoin:miter;stroke-width:1.5;" x="338.688" xlink:href="#m687ee893a8" y="62.752535"/>
     <use style="fill:#f5deb3;stroke:#f5deb3;stroke-linejoin:miter;stroke-width:1.5;" x="369.60768" xlink:href="#m687ee893a8" y="35.706297"/>
    </g>
   </g>
   <g id="matplotlib.axis_1">
    <g id="xtick_1">
     <g id="line2d_5">
      <path clip-path="url(#p8ea84c404b)" d="M 57.6 298.944 
L 57.6 27.648 
" style="fill:none;stroke:#b0b0b0;stroke-linecap:square;stroke-width:0.8;"/>
     </g>
     <g id="line2d_6">
      <defs>
       <path d="M 0 0 
L 0 3.5 
" id="m01df10abb9" style="stroke:#000000;stroke-width:0.8;"/>
      </defs>
      <g>
       <use style="stroke:#000000;stroke-width:0.8;" x="57.6" xlink:href="#m01df10abb9" y="298.944"/>
      </g>
     </g>
     <g id="text_1">
      <!-- 0 -->
      <g transform="translate(51.2375 321.140875)scale(0.2 -0.2)">
       <defs>
        <path d="M 31.78125 66.40625 
Q 24.171875 66.40625 20.328125 58.90625 
Q 16.5 51.421875 16.5 36.375 
Q 16.5 21.390625 20.328125 13.890625 
Q 24.171875 6.390625 31.78125 6.390625 
Q 39.453125 6.390625 43.28125 13.890625 
Q 47.125 21.390625 47.125 36.375 
Q 47.125 51.421875 43.28125 58.90625 
Q 39.453125 66.40625 31.78125 66.40625 
z
M 31.78125 74.21875 
Q 44.046875 74.21875 50.515625 64.515625 
Q 56.984375 54.828125 56.984375 36.375 
Q 56.984375 17.96875 50.515625 8.265625 
Q 44.046875 -1.421875 31.78125 -1.421875 
Q 19.53125 -1.421875 13.0625 8.265625 
Q 6.59375 17.96875 6.59375 36.375 
Q 6.59375 54.828125 13.0625 64.515625 
Q 19.53125 74.21875 31.78125 74.21875 
z
" id="DejaVuSans-48"/>
       </defs>
       <use xlink:href="#DejaVuSans-48"/>
      </g>
     </g>
    </g>
    <g id="xtick_2">
     <g id="line2d_7">
      <path clip-path="url(#p8ea84c404b)" d="M 137.910857 298.944 
L 137.910857 27.648 
" style="fill:none;stroke:#b0b0b0;stroke-linecap:square;stroke-width:0.8;"/>
     </g>
     <g id="line2d_8">
      <g>
       <use style="stroke:#000000;stroke-width:0.8;" x="137.910857" xlink:href="#m01df10abb9" y="298.944"/>
      </g>
     </g>
     <g id="text_2">
      <!-- 2 -->
      <g transform="translate(131.548357 321.140875)scale(0.2 -0.2)">
       <defs>
        <path d="M 19.1875 8.296875 
L 53.609375 8.296875 
L 53.609375 0 
L 7.328125 0 
L 7.328125 8.296875 
Q 12.9375 14.109375 22.625 23.890625 
Q 32.328125 33.6875 34.8125 36.53125 
Q 39.546875 41.84375 41.421875 45.53125 
Q 43.3125 49.21875 43.3125 52.78125 
Q 43.3125 58.59375 39.234375 62.25 
Q 35.15625 65.921875 28.609375 65.921875 
Q 23.96875 65.921875 18.8125 64.3125 
Q 13.671875 62.703125 7.8125 59.421875 
L 7.8125 69.390625 
Q 13.765625 71.78125 18.9375 73 
Q 24.125 74.21875 28.421875 74.21875 
Q 39.75 74.21875 46.484375 68.546875 
Q 53.21875 62.890625 53.21875 53.421875 
Q 53.21875 48.921875 51.53125 44.890625 
Q 49.859375 40.875 45.40625 35.40625 
Q 44.1875 33.984375 37.640625 27.21875 
Q 31.109375 20.453125 19.1875 8.296875 
z
" id="DejaVuSans-50"/>
       </defs>
       <use xlink:href="#DejaVuSans-50"/>
      </g>
     </g>
    </g>
    <g id="xtick_3">
     <g id="line2d_9">
      <path clip-path="url(#p8ea84c404b)" d="M 218.221714 298.944 
L 218.221714 27.648 
" style="fill:none;stroke:#b0b0b0;stroke-linecap:square;stroke-width:0.8;"/>
     </g>
     <g id="line2d_10">
      <g>
       <use style="stroke:#000000;stroke-width:0.8;" x="218.221714" xlink:href="#m01df10abb9" y="298.944"/>
      </g>
     </g>
     <g id="text_3">
      <!-- 4 -->
      <g transform="translate(211.859214 321.140875)scale(0.2 -0.2)">
       <defs>
        <path d="M 37.796875 64.3125 
L 12.890625 25.390625 
L 37.796875 25.390625 
z
M 35.203125 72.90625 
L 47.609375 72.90625 
L 47.609375 25.390625 
L 58.015625 25.390625 
L 58.015625 17.1875 
L 47.609375 17.1875 
L 47.609375 0 
L 37.796875 0 
L 37.796875 17.1875 
L 4.890625 17.1875 
L 4.890625 26.703125 
z
" id="DejaVuSans-52"/>
       </defs>
       <use xlink:href="#DejaVuSans-52"/>
      </g>
     </g>
    </g>
    <g id="xtick_4">
     <g id="line2d_11">
      <path clip-path="url(#p8ea84c404b)" d="M 298.532571 298.944 
L 298.532571 27.648 
" style="fill:none;stroke:#b0b0b0;stroke-linecap:square;stroke-width:0.8;"/>
     </g>
     <g id="line2d_12">
      <g>
       <use style="stroke:#000000;stroke-width:0.8;" x="298.532571" xlink:href="#m01df10abb9" y="298.944"/>
      </g>
     </g>
     <g id="text_4">
      <!-- 6 -->
      <g transform="translate(292.170071 321.140875)scale(0.2 -0.2)">
       <defs>
        <path d="M 33.015625 40.375 
Q 26.375 40.375 22.484375 35.828125 
Q 18.609375 31.296875 18.609375 23.390625 
Q 18.609375 15.53125 22.484375 10.953125 
Q 26.375 6.390625 33.015625 6.390625 
Q 39.65625 6.390625 43.53125 10.953125 
Q 47.40625 15.53125 47.40625 23.390625 
Q 47.40625 31.296875 43.53125 35.828125 
Q 39.65625 40.375 33.015625 40.375 
z
M 52.59375 71.296875 
L 52.59375 62.3125 
Q 48.875 64.0625 45.09375 64.984375 
Q 41.3125 65.921875 37.59375 65.921875 
Q 27.828125 65.921875 22.671875 59.328125 
Q 17.53125 52.734375 16.796875 39.40625 
Q 19.671875 43.65625 24.015625 45.921875 
Q 28.375 48.1875 33.59375 48.1875 
Q 44.578125 48.1875 50.953125 41.515625 
Q 57.328125 34.859375 57.328125 23.390625 
Q 57.328125 12.15625 50.6875 5.359375 
Q 44.046875 -1.421875 33.015625 -1.421875 
Q 20.359375 -1.421875 13.671875 8.265625 
Q 6.984375 17.96875 6.984375 36.375 
Q 6.984375 53.65625 15.1875 63.9375 
Q 23.390625 74.21875 37.203125 74.21875 
Q 40.921875 74.21875 44.703125 73.484375 
Q 48.484375 72.75 52.59375 71.296875 
z
" id="DejaVuSans-54"/>
       </defs>
       <use xlink:href="#DejaVuSans-54"/>
      </g>
     </g>
    </g>
    <g id="xtick_5">
     <g id="line2d_13">
      <path clip-path="url(#p8ea84c404b)" d="M 97.755429 298.944 
L 97.755429 27.648 
" style="fill:none;stroke:#b0b0b0;stroke-linecap:square;stroke-width:0.8;"/>
     </g>
     <g id="line2d_14">
      <defs>
       <path d="M 0 0 
L 0 2 
" id="m0ce00bcb96" style="stroke:#000000;stroke-width:0.6;"/>
      </defs>
      <g>
       <use style="stroke:#000000;stroke-width:0.6;" x="97.755429" xlink:href="#m0ce00bcb96" y="298.944"/>
      </g>
     </g>
    </g>
    <g id="xtick_6">
     <g id="line2d_15">
      <path clip-path="url(#p8ea84c404b)" d="M 178.066286 298.944 
L 178.066286 27.648 
" style="fill:none;stroke:#b0b0b0;stroke-linecap:square;stroke-width:0.8;"/>
     </g>
     <g id="line2d_16">
      <g>
       <use style="stroke:#000000;stroke-width:0.6;" x="178.066286" xlink:href="#m0ce00bcb96" y="298.944"/>
      </g>
     </g>
    </g>
    <g id="xtick_7">
     <g id="line2d_17">
      <path clip-path="url(#p8ea84c404b)" d="M 258.377143 298.944 
L 258.377143 27.648 
" style="fill:none;stroke:#b0b0b0;stroke-linecap:square;stroke-width:0.8;"/>
     </g>
     <g id="line2d_18">
      <g>
       <use style="stroke:#000000;stroke-width:0.6;" x="258.377143" xlink:href="#m0ce00bcb96" y="298.944"/>
      </g>
     </g>
    </g>
    <g id="xtick_8">
     <g id="line2d_19">
      <path clip-path="url(#p8ea84c404b)" d="M 338.688 298.944 
L 338.688 27.648 
" style="fill:none;stroke:#b0b0b0;stroke-linecap:square;stroke-width:0.8;"/>
     </g>
     <g id="line2d_20">
      <g>
       <use style="stroke:#000000;stroke-width:0.6;" x="338.688" xlink:href="#m0ce00bcb96" y="298.944"/>
      </g>
     </g>
    </g>
    <g id="text_5">
     <!-- log10(# f-evals / dimension) -->
     <g transform="translate(77.764078 342.217594)scale(0.17 -0.17)">
      <defs>
       <path d="M 9.421875 75.984375 
L 18.40625 75.984375 
L 18.40625 0 
L 9.421875 0 
z
" id="DejaVuSans-108"/>
       <path d="M 30.609375 48.390625 
Q 23.390625 48.390625 19.1875 42.75 
Q 14.984375 37.109375 14.984375 27.296875 
Q 14.984375 17.484375 19.15625 11.84375 
Q 23.34375 6.203125 30.609375 6.203125 
Q 37.796875 6.203125 41.984375 11.859375 
Q 46.1875 17.53125 46.1875 27.296875 
Q 46.1875 37.015625 41.984375 42.703125 
Q 37.796875 48.390625 30.609375 48.390625 
z
M 30.609375 56 
Q 42.328125 56 49.015625 48.375 
Q 55.71875 40.765625 55.71875 27.296875 
Q 55.71875 13.875 49.015625 6.21875 
Q 42.328125 -1.421875 30.609375 -1.421875 
Q 18.84375 -1.421875 12.171875 6.21875 
Q 5.515625 13.875 5.515625 27.296875 
Q 5.515625 40.765625 12.171875 48.375 
Q 18.84375 56 30.609375 56 
z
" id="DejaVuSans-111"/>
       <path d="M 45.40625 27.984375 
Q 45.40625 37.75 41.375 43.109375 
Q 37.359375 48.484375 30.078125 48.484375 
Q 22.859375 48.484375 18.828125 43.109375 
Q 14.796875 37.75 14.796875 27.984375 
Q 14.796875 18.265625 18.828125 12.890625 
Q 22.859375 7.515625 30.078125 7.515625 
Q 37.359375 7.515625 41.375 12.890625 
Q 45.40625 18.265625 45.40625 27.984375 
z
M 54.390625 6.78125 
Q 54.390625 -7.171875 48.1875 -13.984375 
Q 42 -20.796875 29.203125 -20.796875 
Q 24.46875 -20.796875 20.265625 -20.09375 
Q 16.0625 -19.390625 12.109375 -17.921875 
L 12.109375 -9.1875 
Q 16.0625 -11.328125 19.921875 -12.34375 
Q 23.78125 -13.375 27.78125 -13.375 
Q 36.625 -13.375 41.015625 -8.765625 
Q 45.40625 -4.15625 45.40625 5.171875 
L 45.40625 9.625 
Q 42.625 4.78125 38.28125 2.390625 
Q 33.9375 0 27.875 0 
Q 17.828125 0 11.671875 7.65625 
Q 5.515625 15.328125 5.515625 27.984375 
Q 5.515625 40.671875 11.671875 48.328125 
Q 17.828125 56 27.875 56 
Q 33.9375 56 38.28125 53.609375 
Q 42.625 51.21875 45.40625 46.390625 
L 45.40625 54.6875 
L 54.390625 54.6875 
z
" id="DejaVuSans-103"/>
       <path d="M 12.40625 8.296875 
L 28.515625 8.296875 
L 28.515625 63.921875 
L 10.984375 60.40625 
L 10.984375 69.390625 
L 28.421875 72.90625 
L 38.28125 72.90625 
L 38.28125 8.296875 
L 54.390625 8.296875 
L 54.390625 0 
L 12.40625 0 
z
" id="DejaVuSans-49"/>
       <path d="M 31 75.875 
Q 24.46875 64.65625 21.28125 53.65625 
Q 18.109375 42.671875 18.109375 31.390625 
Q 18.109375 20.125 21.3125 9.0625 
Q 24.515625 -2 31 -13.1875 
L 23.1875 -13.1875 
Q 15.875 -1.703125 12.234375 9.375 
Q 8.59375 20.453125 8.59375 31.390625 
Q 8.59375 42.28125 12.203125 53.3125 
Q 15.828125 64.359375 23.1875 75.875 
z
" id="DejaVuSans-40"/>
       <path d="M 51.125 44 
L 36.921875 44 
L 32.8125 27.6875 
L 47.125 27.6875 
z
M 43.796875 71.78125 
L 38.71875 51.515625 
L 52.984375 51.515625 
L 58.109375 71.78125 
L 65.921875 71.78125 
L 60.890625 51.515625 
L 76.125 51.515625 
L 76.125 44 
L 58.984375 44 
L 54.984375 27.6875 
L 70.515625 27.6875 
L 70.515625 20.21875 
L 53.078125 20.21875 
L 48 0 
L 40.1875 0 
L 45.21875 20.21875 
L 30.90625 20.21875 
L 25.875 0 
L 18.015625 0 
L 23.09375 20.21875 
L 7.71875 20.21875 
L 7.71875 27.6875 
L 24.90625 27.6875 
L 29 44 
L 13.28125 44 
L 13.28125 51.515625 
L 30.90625 51.515625 
L 35.890625 71.78125 
z
" id="DejaVuSans-35"/>
       <path id="DejaVuSans-32"/>
       <path d="M 37.109375 75.984375 
L 37.109375 68.5 
L 28.515625 68.5 
Q 23.6875 68.5 21.796875 66.546875 
Q 19.921875 64.59375 19.921875 59.515625 
L 19.921875 54.6875 
L 34.71875 54.6875 
L 34.71875 47.703125 
L 19.921875 47.703125 
L 19.921875 0 
L 10.890625 0 
L 10.890625 47.703125 
L 2.296875 47.703125 
L 2.296875 54.6875 
L 10.890625 54.6875 
L 10.890625 58.5 
Q 10.890625 67.625 15.140625 71.796875 
Q 19.390625 75.984375 28.609375 75.984375 
z
" id="DejaVuSans-102"/>
       <path d="M 4.890625 31.390625 
L 31.203125 31.390625 
L 31.203125 23.390625 
L 4.890625 23.390625 
z
" id="DejaVuSans-45"/>
       <path d="M 56.203125 29.59375 
L 56.203125 25.203125 
L 14.890625 25.203125 
Q 15.484375 15.921875 20.484375 11.0625 
Q 25.484375 6.203125 34.421875 6.203125 
Q 39.59375 6.203125 44.453125 7.46875 
Q 49.3125 8.734375 54.109375 11.28125 
L 54.109375 2.78125 
Q 49.265625 0.734375 44.1875 -0.34375 
Q 39.109375 -1.421875 33.890625 -1.421875 
Q 20.796875 -1.421875 13.15625 6.1875 
Q 5.515625 13.8125 5.515625 26.8125 
Q 5.515625 40.234375 12.765625 48.109375 
Q 20.015625 56 32.328125 56 
Q 43.359375 56 49.78125 48.890625 
Q 56.203125 41.796875 56.203125 29.59375 
z
M 47.21875 32.234375 
Q 47.125 39.59375 43.09375 43.984375 
Q 39.0625 48.390625 32.421875 48.390625 
Q 24.90625 48.390625 20.390625 44.140625 
Q 15.875 39.890625 15.1875 32.171875 
z
" id="DejaVuSans-101"/>
       <path d="M 2.984375 54.6875 
L 12.5 54.6875 
L 29.59375 8.796875 
L 46.6875 54.6875 
L 56.203125 54.6875 
L 35.6875 0 
L 23.484375 0 
z
" id="DejaVuSans-118"/>
       <path d="M 34.28125 27.484375 
Q 23.390625 27.484375 19.1875 25 
Q 14.984375 22.515625 14.984375 16.5 
Q 14.984375 11.71875 18.140625 8.90625 
Q 21.296875 6.109375 26.703125 6.109375 
Q 34.1875 6.109375 38.703125 11.40625 
Q 43.21875 16.703125 43.21875 25.484375 
L 43.21875 27.484375 
z
M 52.203125 31.203125 
L 52.203125 0 
L 43.21875 0 
L 43.21875 8.296875 
Q 40.140625 3.328125 35.546875 0.953125 
Q 30.953125 -1.421875 24.3125 -1.421875 
Q 15.921875 -1.421875 10.953125 3.296875 
Q 6 8.015625 6 15.921875 
Q 6 25.140625 12.171875 29.828125 
Q 18.359375 34.515625 30.609375 34.515625 
L 43.21875 34.515625 
L 43.21875 35.40625 
Q 43.21875 41.609375 39.140625 45 
Q 35.0625 48.390625 27.6875 48.390625 
Q 23 48.390625 18.546875 47.265625 
Q 14.109375 46.140625 10.015625 43.890625 
L 10.015625 52.203125 
Q 14.9375 54.109375 19.578125 55.046875 
Q 24.21875 56 28.609375 56 
Q 40.484375 56 46.34375 49.84375 
Q 52.203125 43.703125 52.203125 31.203125 
z
" id="DejaVuSans-97"/>
       <path d="M 44.28125 53.078125 
L 44.28125 44.578125 
Q 40.484375 46.53125 36.375 47.5 
Q 32.28125 48.484375 27.875 48.484375 
Q 21.1875 48.484375 17.84375 46.4375 
Q 14.5 44.390625 14.5 40.28125 
Q 14.5 37.15625 16.890625 35.375 
Q 19.28125 33.59375 26.515625 31.984375 
L 29.59375 31.296875 
Q 39.15625 29.25 43.1875 25.515625 
Q 47.21875 21.78125 47.21875 15.09375 
Q 47.21875 7.46875 41.1875 3.015625 
Q 35.15625 -1.421875 24.609375 -1.421875 
Q 20.21875 -1.421875 15.453125 -0.5625 
Q 10.6875 0.296875 5.421875 2 
L 5.421875 11.28125 
Q 10.40625 8.6875 15.234375 7.390625 
Q 20.0625 6.109375 24.8125 6.109375 
Q 31.15625 6.109375 34.5625 8.28125 
Q 37.984375 10.453125 37.984375 14.40625 
Q 37.984375 18.0625 35.515625 20.015625 
Q 33.0625 21.96875 24.703125 23.78125 
L 21.578125 24.515625 
Q 13.234375 26.265625 9.515625 29.90625 
Q 5.8125 33.546875 5.8125 39.890625 
Q 5.8125 47.609375 11.28125 51.796875 
Q 16.75 56 26.8125 56 
Q 31.78125 56 36.171875 55.265625 
Q 40.578125 54.546875 44.28125 53.078125 
z
" id="DejaVuSans-115"/>
       <path d="M 25.390625 72.90625 
L 33.6875 72.90625 
L 8.296875 -9.28125 
L 0 -9.28125 
z
" id="DejaVuSans-47"/>
       <path d="M 45.40625 46.390625 
L 45.40625 75.984375 
L 54.390625 75.984375 
L 54.390625 0 
L 45.40625 0 
L 45.40625 8.203125 
Q 42.578125 3.328125 38.25 0.953125 
Q 33.9375 -1.421875 27.875 -1.421875 
Q 17.96875 -1.421875 11.734375 6.484375 
Q 5.515625 14.40625 5.515625 27.296875 
Q 5.515625 40.1875 11.734375 48.09375 
Q 17.96875 56 27.875 56 
Q 33.9375 56 38.25 53.625 
Q 42.578125 51.265625 45.40625 46.390625 
z
M 14.796875 27.296875 
Q 14.796875 17.390625 18.875 11.75 
Q 22.953125 6.109375 30.078125 6.109375 
Q 37.203125 6.109375 41.296875 11.75 
Q 45.40625 17.390625 45.40625 27.296875 
Q 45.40625 37.203125 41.296875 42.84375 
Q 37.203125 48.484375 30.078125 48.484375 
Q 22.953125 48.484375 18.875 42.84375 
Q 14.796875 37.203125 14.796875 27.296875 
z
" id="DejaVuSans-100"/>
       <path d="M 9.421875 54.6875 
L 18.40625 54.6875 
L 18.40625 0 
L 9.421875 0 
z
M 9.421875 75.984375 
L 18.40625 75.984375 
L 18.40625 64.59375 
L 9.421875 64.59375 
z
" id="DejaVuSans-105"/>
       <path d="M 52 44.1875 
Q 55.375 50.25 60.0625 53.125 
Q 64.75 56 71.09375 56 
Q 79.640625 56 84.28125 50.015625 
Q 88.921875 44.046875 88.921875 33.015625 
L 88.921875 0 
L 79.890625 0 
L 79.890625 32.71875 
Q 79.890625 40.578125 77.09375 44.375 
Q 74.3125 48.1875 68.609375 48.1875 
Q 61.625 48.1875 57.5625 43.546875 
Q 53.515625 38.921875 53.515625 30.90625 
L 53.515625 0 
L 44.484375 0 
L 44.484375 32.71875 
Q 44.484375 40.625 41.703125 44.40625 
Q 38.921875 48.1875 33.109375 48.1875 
Q 26.21875 48.1875 22.15625 43.53125 
Q 18.109375 38.875 18.109375 30.90625 
L 18.109375 0 
L 9.078125 0 
L 9.078125 54.6875 
L 18.109375 54.6875 
L 18.109375 46.1875 
Q 21.1875 51.21875 25.484375 53.609375 
Q 29.78125 56 35.6875 56 
Q 41.65625 56 45.828125 52.96875 
Q 50 49.953125 52 44.1875 
z
" id="DejaVuSans-109"/>
       <path d="M 54.890625 33.015625 
L 54.890625 0 
L 45.90625 0 
L 45.90625 32.71875 
Q 45.90625 40.484375 42.875 44.328125 
Q 39.84375 48.1875 33.796875 48.1875 
Q 26.515625 48.1875 22.3125 43.546875 
Q 18.109375 38.921875 18.109375 30.90625 
L 18.109375 0 
L 9.078125 0 
L 9.078125 54.6875 
L 18.109375 54.6875 
L 18.109375 46.1875 
Q 21.34375 51.125 25.703125 53.5625 
Q 30.078125 56 35.796875 56 
Q 45.21875 56 50.046875 50.171875 
Q 54.890625 44.34375 54.890625 33.015625 
z
" id="DejaVuSans-110"/>
       <path d="M 8.015625 75.875 
L 15.828125 75.875 
Q 23.140625 64.359375 26.78125 53.3125 
Q 30.421875 42.28125 30.421875 31.390625 
Q 30.421875 20.453125 26.78125 9.375 
Q 23.140625 -1.703125 15.828125 -13.1875 
L 8.015625 -13.1875 
Q 14.5 -2 17.703125 9.0625 
Q 20.90625 20.125 20.90625 31.390625 
Q 20.90625 42.671875 17.703125 53.65625 
Q 14.5 64.65625 8.015625 75.875 
z
" id="DejaVuSans-41"/>
      </defs>
      <use xlink:href="#DejaVuSans-108"/>
      <use x="27.783203" xlink:href="#DejaVuSans-111"/>
      <use x="88.964844" xlink:href="#DejaVuSans-103"/>
      <use x="152.441406" xlink:href="#DejaVuSans-49"/>
      <use x="216.064453" xlink:href="#DejaVuSans-48"/>
      <use x="279.6875" xlink:href="#DejaVuSans-40"/>
      <use x="318.701172" xlink:href="#DejaVuSans-35"/>
      <use x="402.490234" xlink:href="#DejaVuSans-32"/>
      <use x="434.277344" xlink:href="#DejaVuSans-102"/>
      <use x="463.982422" xlink:href="#DejaVuSans-45"/>
      <use x="500.066406" xlink:href="#DejaVuSans-101"/>
      <use x="561.589844" xlink:href="#DejaVuSans-118"/>
      <use x="620.769531" xlink:href="#DejaVuSans-97"/>
      <use x="682.048828" xlink:href="#DejaVuSans-108"/>
      <use x="709.832031" xlink:href="#DejaVuSans-115"/>
      <use x="761.931641" xlink:href="#DejaVuSans-32"/>
      <use x="793.71875" xlink:href="#DejaVuSans-47"/>
      <use x="827.410156" xlink:href="#DejaVuSans-32"/>
      <use x="859.197266" xlink:href="#DejaVuSans-100"/>
      <use x="922.673828" xlink:href="#DejaVuSans-105"/>
      <use x="950.457031" xlink:href="#DejaVuSans-109"/>
      <use x="1047.869141" xlink:href="#DejaVuSans-101"/>
      <use x="1109.392578" xlink:href="#DejaVuSans-110"/>
      <use x="1172.771484" xlink:href="#DejaVuSans-115"/>
      <use x="1224.871094" xlink:href="#DejaVuSans-105"/>
      <use x="1252.654297" xlink:href="#DejaVuSans-111"/>
      <use x="1313.835938" xlink:href="#DejaVuSans-110"/>
      <use x="1377.214844" xlink:href="#DejaVuSans-41"/>
     </g>
    </g>
   </g>
   <g id="matplotlib.axis_2">
    <g id="ytick_1">
     <g id="line2d_21">
      <path clip-path="url(#p8ea84c404b)" d="M 57.6 298.944 
L 338.688 298.944 
" style="fill:none;stroke:#b0b0b0;stroke-linecap:square;stroke-width:0.8;"/>
     </g>
     <g id="line2d_22">
      <defs>
       <path d="M 0 0 
L -3.5 0 
" id="m971145958b" style="stroke:#000000;stroke-width:0.8;"/>
      </defs>
      <g>
       <use style="stroke:#000000;stroke-width:0.8;" x="57.6" xlink:href="#m971145958b" y="298.944"/>
      </g>
     </g>
     <g id="text_6">
      <!-- 0.0 -->
      <g transform="translate(25.155 305.02275)scale(0.16 -0.16)">
       <defs>
        <path d="M 10.6875 12.40625 
L 21 12.40625 
L 21 0 
L 10.6875 0 
z
" id="DejaVuSans-46"/>
       </defs>
       <use xlink:href="#DejaVuSans-48"/>
       <use x="63.623047" xlink:href="#DejaVuSans-46"/>
       <use x="95.410156" xlink:href="#DejaVuSans-48"/>
      </g>
     </g>
    </g>
    <g id="ytick_2">
     <g id="line2d_23">
      <path clip-path="url(#p8ea84c404b)" d="M 57.6 245.22202 
L 338.688 245.22202 
" style="fill:none;stroke:#b0b0b0;stroke-linecap:square;stroke-width:0.8;"/>
     </g>
     <g id="line2d_24">
      <g>
       <use style="stroke:#000000;stroke-width:0.8;" x="57.6" xlink:href="#m971145958b" y="245.22202"/>
      </g>
     </g>
     <g id="text_7">
      <!-- 0.2 -->
      <g transform="translate(25.155 251.30077)scale(0.16 -0.16)">
       <use xlink:href="#DejaVuSans-48"/>
       <use x="63.623047" xlink:href="#DejaVuSans-46"/>
       <use x="95.410156" xlink:href="#DejaVuSans-50"/>
      </g>
     </g>
    </g>
    <g id="ytick_3">
     <g id="line2d_25">
      <path clip-path="url(#p8ea84c404b)" d="M 57.6 191.50004 
L 338.688 191.50004 
" style="fill:none;stroke:#b0b0b0;stroke-linecap:square;stroke-width:0.8;"/>
     </g>
     <g id="line2d_26">
      <g>
       <use style="stroke:#000000;stroke-width:0.8;" x="57.6" xlink:href="#m971145958b" y="191.50004"/>
      </g>
     </g>
     <g id="text_8">
      <!-- 0.4 -->
      <g transform="translate(25.155 197.57879)scale(0.16 -0.16)">
       <use xlink:href="#DejaVuSans-48"/>
       <use x="63.623047" xlink:href="#DejaVuSans-46"/>
       <use x="95.410156" xlink:href="#DejaVuSans-52"/>
      </g>
     </g>
    </g>
    <g id="ytick_4">
     <g id="line2d_27">
      <path clip-path="url(#p8ea84c404b)" d="M 57.6 137.778059 
L 338.688 137.778059 
" style="fill:none;stroke:#b0b0b0;stroke-linecap:square;stroke-width:0.8;"/>
     </g>
     <g id="line2d_28">
      <g>
       <use style="stroke:#000000;stroke-width:0.8;" x="57.6" xlink:href="#m971145958b" y="137.778059"/>
      </g>
     </g>
     <g id="text_9">
      <!-- 0.6 -->
      <g transform="translate(25.155 143.856809)scale(0.16 -0.16)">
       <use xlink:href="#DejaVuSans-48"/>
       <use x="63.623047" xlink:href="#DejaVuSans-46"/>
       <use x="95.410156" xlink:href="#DejaVuSans-54"/>
      </g>
     </g>
    </g>
    <g id="ytick_5">
     <g id="line2d_29">
      <path clip-path="url(#p8ea84c404b)" d="M 57.6 84.056079 
L 338.688 84.056079 
" style="fill:none;stroke:#b0b0b0;stroke-linecap:square;stroke-width:0.8;"/>
     </g>
     <g id="line2d_30">
      <g>
       <use style="stroke:#000000;stroke-width:0.8;" x="57.6" xlink:href="#m971145958b" y="84.056079"/>
      </g>
     </g>
     <g id="text_10">
      <!-- 0.8 -->
      <g transform="translate(25.155 90.134829)scale(0.16 -0.16)">
       <defs>
        <path d="M 31.78125 34.625 
Q 24.75 34.625 20.71875 30.859375 
Q 16.703125 27.09375 16.703125 20.515625 
Q 16.703125 13.921875 20.71875 10.15625 
Q 24.75 6.390625 31.78125 6.390625 
Q 38.8125 6.390625 42.859375 10.171875 
Q 46.921875 13.96875 46.921875 20.515625 
Q 46.921875 27.09375 42.890625 30.859375 
Q 38.875 34.625 31.78125 34.625 
z
M 21.921875 38.8125 
Q 15.578125 40.375 12.03125 44.71875 
Q 8.5 49.078125 8.5 55.328125 
Q 8.5 64.0625 14.71875 69.140625 
Q 20.953125 74.21875 31.78125 74.21875 
Q 42.671875 74.21875 48.875 69.140625 
Q 55.078125 64.0625 55.078125 55.328125 
Q 55.078125 49.078125 51.53125 44.71875 
Q 48 40.375 41.703125 38.8125 
Q 48.828125 37.15625 52.796875 32.3125 
Q 56.78125 27.484375 56.78125 20.515625 
Q 56.78125 9.90625 50.3125 4.234375 
Q 43.84375 -1.421875 31.78125 -1.421875 
Q 19.734375 -1.421875 13.25 4.234375 
Q 6.78125 9.90625 6.78125 20.515625 
Q 6.78125 27.484375 10.78125 32.3125 
Q 14.796875 37.15625 21.921875 38.8125 
z
M 18.3125 54.390625 
Q 18.3125 48.734375 21.84375 45.5625 
Q 25.390625 42.390625 31.78125 42.390625 
Q 38.140625 42.390625 41.71875 45.5625 
Q 45.3125 48.734375 45.3125 54.390625 
Q 45.3125 60.0625 41.71875 63.234375 
Q 38.140625 66.40625 31.78125 66.40625 
Q 25.390625 66.40625 21.84375 63.234375 
Q 18.3125 60.0625 18.3125 54.390625 
z
" id="DejaVuSans-56"/>
       </defs>
       <use xlink:href="#DejaVuSans-48"/>
       <use x="63.623047" xlink:href="#DejaVuSans-46"/>
       <use x="95.410156" xlink:href="#DejaVuSans-56"/>
      </g>
     </g>
    </g>
    <g id="ytick_6">
     <g id="line2d_31">
      <path clip-path="url(#p8ea84c404b)" d="M 57.6 30.334099 
L 338.688 30.334099 
" style="fill:none;stroke:#b0b0b0;stroke-linecap:square;stroke-width:0.8;"/>
     </g>
     <g id="line2d_32">
      <g>
       <use style="stroke:#000000;stroke-width:0.8;" x="57.6" xlink:href="#m971145958b" y="30.334099"/>
      </g>
     </g>
     <g id="text_11">
      <!-- 1.0 -->
      <g transform="translate(25.155 36.412849)scale(0.16 -0.16)">
       <use xlink:href="#DejaVuSans-49"/>
       <use x="63.623047" xlink:href="#DejaVuSans-46"/>
       <use x="95.410156" xlink:href="#DejaVuSans-48"/>
      </g>
     </g>
    </g>
    <g id="text_12">
     <!-- Fraction of function,target pairs -->
     <g transform="translate(17.619531 297.681)rotate(-90)scale(0.17 -0.17)">
      <defs>
       <path d="M 9.8125 72.90625 
L 51.703125 72.90625 
L 51.703125 64.59375 
L 19.671875 64.59375 
L 19.671875 43.109375 
L 48.578125 43.109375 
L 48.578125 34.8125 
L 19.671875 34.8125 
L 19.671875 0 
L 9.8125 0 
z
" id="DejaVuSans-70"/>
       <path d="M 41.109375 46.296875 
Q 39.59375 47.171875 37.8125 47.578125 
Q 36.03125 48 33.890625 48 
Q 26.265625 48 22.1875 43.046875 
Q 18.109375 38.09375 18.109375 28.8125 
L 18.109375 0 
L 9.078125 0 
L 9.078125 54.6875 
L 18.109375 54.6875 
L 18.109375 46.1875 
Q 20.953125 51.171875 25.484375 53.578125 
Q 30.03125 56 36.53125 56 
Q 37.453125 56 38.578125 55.875 
Q 39.703125 55.765625 41.0625 55.515625 
z
" id="DejaVuSans-114"/>
       <path d="M 48.78125 52.59375 
L 48.78125 44.1875 
Q 44.96875 46.296875 41.140625 47.34375 
Q 37.3125 48.390625 33.40625 48.390625 
Q 24.65625 48.390625 19.8125 42.84375 
Q 14.984375 37.3125 14.984375 27.296875 
Q 14.984375 17.28125 19.8125 11.734375 
Q 24.65625 6.203125 33.40625 6.203125 
Q 37.3125 6.203125 41.140625 7.25 
Q 44.96875 8.296875 48.78125 10.40625 
L 48.78125 2.09375 
Q 45.015625 0.34375 40.984375 -0.53125 
Q 36.96875 -1.421875 32.421875 -1.421875 
Q 20.0625 -1.421875 12.78125 6.34375 
Q 5.515625 14.109375 5.515625 27.296875 
Q 5.515625 40.671875 12.859375 48.328125 
Q 20.21875 56 33.015625 56 
Q 37.15625 56 41.109375 55.140625 
Q 45.0625 54.296875 48.78125 52.59375 
z
" id="DejaVuSans-99"/>
       <path d="M 18.3125 70.21875 
L 18.3125 54.6875 
L 36.8125 54.6875 
L 36.8125 47.703125 
L 18.3125 47.703125 
L 18.3125 18.015625 
Q 18.3125 11.328125 20.140625 9.421875 
Q 21.96875 7.515625 27.59375 7.515625 
L 36.8125 7.515625 
L 36.8125 0 
L 27.59375 0 
Q 17.1875 0 13.234375 3.875 
Q 9.28125 7.765625 9.28125 18.015625 
L 9.28125 47.703125 
L 2.6875 47.703125 
L 2.6875 54.6875 
L 9.28125 54.6875 
L 9.28125 70.21875 
z
" id="DejaVuSans-116"/>
       <path d="M 8.5 21.578125 
L 8.5 54.6875 
L 17.484375 54.6875 
L 17.484375 21.921875 
Q 17.484375 14.15625 20.5 10.265625 
Q 23.53125 6.390625 29.59375 6.390625 
Q 36.859375 6.390625 41.078125 11.03125 
Q 45.3125 15.671875 45.3125 23.6875 
L 45.3125 54.6875 
L 54.296875 54.6875 
L 54.296875 0 
L 45.3125 0 
L 45.3125 8.40625 
Q 42.046875 3.421875 37.71875 1 
Q 33.40625 -1.421875 27.6875 -1.421875 
Q 18.265625 -1.421875 13.375 4.4375 
Q 8.5 10.296875 8.5 21.578125 
z
M 31.109375 56 
z
" id="DejaVuSans-117"/>
       <path d="M 11.71875 12.40625 
L 22.015625 12.40625 
L 22.015625 4 
L 14.015625 -11.625 
L 7.71875 -11.625 
L 11.71875 4 
z
" id="DejaVuSans-44"/>
       <path d="M 18.109375 8.203125 
L 18.109375 -20.796875 
L 9.078125 -20.796875 
L 9.078125 54.6875 
L 18.109375 54.6875 
L 18.109375 46.390625 
Q 20.953125 51.265625 25.265625 53.625 
Q 29.59375 56 35.59375 56 
Q 45.5625 56 51.78125 48.09375 
Q 58.015625 40.1875 58.015625 27.296875 
Q 58.015625 14.40625 51.78125 6.484375 
Q 45.5625 -1.421875 35.59375 -1.421875 
Q 29.59375 -1.421875 25.265625 0.953125 
Q 20.953125 3.328125 18.109375 8.203125 
z
M 48.6875 27.296875 
Q 48.6875 37.203125 44.609375 42.84375 
Q 40.53125 48.484375 33.40625 48.484375 
Q 26.265625 48.484375 22.1875 42.84375 
Q 18.109375 37.203125 18.109375 27.296875 
Q 18.109375 17.390625 22.1875 11.75 
Q 26.265625 6.109375 33.40625 6.109375 
Q 40.53125 6.109375 44.609375 11.75 
Q 48.6875 17.390625 48.6875 27.296875 
z
" id="DejaVuSans-112"/>
      </defs>
      <use xlink:href="#DejaVuSans-70"/>
      <use x="50.269531" xlink:href="#DejaVuSans-114"/>
      <use x="91.382812" xlink:href="#DejaVuSans-97"/>
      <use x="152.662109" xlink:href="#DejaVuSans-99"/>
      <use x="207.642578" xlink:href="#DejaVuSans-116"/>
      <use x="246.851562" xlink:href="#DejaVuSans-105"/>
      <use x="274.634766" xlink:href="#DejaVuSans-111"/>
      <use x="335.816406" xlink:href="#DejaVuSans-110"/>
      <use x="399.195312" xlink:href="#DejaVuSans-32"/>
      <use x="430.982422" xlink:href="#DejaVuSans-111"/>
      <use x="492.164062" xlink:href="#DejaVuSans-102"/>
      <use x="527.369141" xlink:href="#DejaVuSans-32"/>
      <use x="559.15625" xlink:href="#DejaVuSans-102"/>
      <use x="594.361328" xlink:href="#DejaVuSans-117"/>
      <use x="657.740234" xlink:href="#DejaVuSans-110"/>
      <use x="721.119141" xlink:href="#DejaVuSans-99"/>
      <use x="776.099609" xlink:href="#DejaVuSans-116"/>
      <use x="815.308594" xlink:href="#DejaVuSans-105"/>
      <use x="843.091797" xlink:href="#DejaVuSans-111"/>
      <use x="904.273438" xlink:href="#DejaVuSans-110"/>
      <use x="967.652344" xlink:href="#DejaVuSans-44"/>
      <use x="999.439453" xlink:href="#DejaVuSans-116"/>
      <use x="1038.648438" xlink:href="#DejaVuSans-97"/>
      <use x="1099.927734" xlink:href="#DejaVuSans-114"/>
      <use x="1139.291016" xlink:href="#DejaVuSans-103"/>
      <use x="1202.767578" xlink:href="#DejaVuSans-101"/>
      <use x="1264.291016" xlink:href="#DejaVuSans-116"/>
      <use x="1303.5" xlink:href="#DejaVuSans-32"/>
      <use x="1335.287109" xlink:href="#DejaVuSans-112"/>
      <use x="1398.763672" xlink:href="#DejaVuSans-97"/>
      <use x="1460.042969" xlink:href="#DejaVuSans-105"/>
      <use x="1487.826172" xlink:href="#DejaVuSans-114"/>
      <use x="1528.939453" xlink:href="#DejaVuSans-115"/>
     </g>
    </g>
   </g>
   <g id="line2d_33">
    <defs>
     <path d="M 0 1.5 
C 0.397805 1.5 0.77937 1.341951 1.06066 1.06066 
C 1.341951 0.77937 1.5 0.397805 1.5 0 
C 1.5 -0.397805 1.341951 -0.77937 1.06066 -1.06066 
C 0.77937 -1.341951 0.397805 -1.5 0 -1.5 
C -0.397805 -1.5 -0.77937 -1.341951 -1.06066 -1.06066 
C -1.341951 -0.77937 -1.5 -0.397805 -1.5 0 
C -1.5 0.397805 -1.341951 0.77937 -1.06066 1.06066 
C -0.77937 1.341951 -0.397805 1.5 0 1.5 
z
" id="m5743022d52" style="stroke:#f5deb3;"/>
    </defs>
    <g>
     <use style="fill:#f5deb3;stroke:#f5deb3;" x="254.617328" xlink:href="#m5743022d52" y="62.752535"/>
     <use style="fill:#f5deb3;stroke:#f5deb3;" x="254.617328" xlink:href="#m5743022d52" y="62.752535"/>
    </g>
   </g>
   <g id="line2d_34">
    <defs>
     <path d="M 0 1.5 
C 0.397805 1.5 0.77937 1.341951 1.06066 1.06066 
C 1.341951 0.77937 1.5 0.397805 1.5 0 
C 1.5 -0.397805 1.341951 -0.77937 1.06066 -1.06066 
C 0.77937 -1.341951 0.397805 -1.5 0 -1.5 
C -0.397805 -1.5 -0.77937 -1.341951 -1.06066 -1.06066 
C -1.341951 -0.77937 -1.5 -0.397805 -1.5 0 
C -1.5 0.397805 -1.341951 0.77937 -1.06066 1.06066 
C -0.77937 1.341951 -0.397805 1.5 0 1.5 
z
" id="m98f1aae065" style="stroke:#000080;"/>
    </defs>
    <g>
     <use style="fill:#000080;stroke:#000080;" x="256.586483" xlink:href="#m98f1aae065" y="95.170972"/>
     <use style="fill:#000080;stroke:#000080;" x="256.586483" xlink:href="#m98f1aae065" y="95.170972"/>
    </g>
   </g>
   <g id="line2d_35">
    <path d="M 17.444571 298.944 
L 17.444571 291.534072 
L 51.379845 291.534072 
L 51.379845 291.070951 
L 55.762588 291.070951 
L 55.762588 290.607831 
L 63.467834 290.607831 
L 63.467834 290.14471 
L 72.125336 290.14471 
L 72.125336 289.68159 
L 73.579452 289.68159 
L 73.579452 289.218469 
L 80.416384 289.218469 
L 80.416384 288.755349 
L 86.351421 288.755349 
L 86.351421 287.829108 
L 91.284345 287.829108 
L 91.284345 287.365987 
L 95.326798 287.365987 
L 95.326798 286.902867 
L 99.41757 286.902867 
L 99.41757 286.439746 
L 104.114542 286.439746 
L 104.114542 285.976625 
L 106.382575 285.976625 
L 106.382575 285.513505 
L 111.663381 285.513505 
L 111.663381 284.587264 
L 113.095487 284.587264 
L 113.095487 283.661023 
L 114.816733 283.661023 
L 114.816733 283.197902 
L 116.202531 283.197902 
L 116.202531 282.734782 
L 116.856209 282.734782 
L 116.856209 281.34542 
L 117.486268 281.34542 
L 117.486268 280.8823 
L 121.84399 280.8823 
L 121.84399 280.419179 
L 127.197279 280.419179 
L 127.197279 279.956059 
L 127.54831 279.956059 
L 127.54831 279.492938 
L 128.560901 279.492938 
L 128.560901 279.029818 
L 133.398082 279.029818 
L 133.398082 278.103577 
L 141.885829 278.103577 
L 141.885829 277.177336 
L 143.653678 277.177336 
L 143.653678 276.714215 
L 143.902815 276.714215 
L 143.902815 276.251095 
L 145.338615 276.251095 
L 145.338615 275.787974 
L 147.429332 275.787974 
L 147.429332 275.324854 
L 148.53525 275.324854 
L 148.639252 274.398612 
L 149.548376 274.398612 
L 149.548376 273.935492 
L 151.936246 273.935492 
L 151.936246 273.472371 
L 153.337534 273.472371 
L 153.337534 273.009251 
L 153.573542 273.009251 
L 153.573542 272.54613 
L 156.046372 272.54613 
L 156.046372 272.08301 
L 157.415209 272.08301 
L 157.415209 271.619889 
L 160.694216 271.619889 
L 160.694216 271.156769 
L 160.924085 271.156769 
L 160.924085 269.767407 
L 161.178543 269.767407 
L 161.178543 269.304287 
L 161.871884 269.304287 
L 161.871884 268.841166 
L 162.060656 268.841166 
L 162.060656 268.378046 
L 162.585379 268.378046 
L 162.585379 267.914925 
L 164.314412 267.914925 
L 164.356568 266.988684 
L 165.017568 266.988684 
L 165.017568 266.525564 
L 165.810071 266.525564 
L 165.810071 266.062443 
L 168.162078 266.062443 
L 168.162078 265.136202 
L 169.244833 265.136202 
L 169.244833 264.673082 
L 169.528825 264.673082 
L 169.528825 264.209961 
L 170.143834 264.209961 
L 170.143834 263.28372 
L 170.499999 263.28372 
L 170.499999 262.357479 
L 173.858056 262.357479 
L 173.858056 261.431238 
L 174.196608 261.431238 
L 174.196608 260.504997 
L 174.753684 260.504997 
L 174.753684 260.041876 
L 176.143406 260.041876 
L 176.143406 259.578756 
L 176.335123 259.578756 
L 176.335123 259.115635 
L 177.542289 259.115635 
L 177.542289 258.652515 
L 178.029625 258.652515 
L 178.029625 257.726274 
L 178.928773 257.726274 
L 178.947021 256.800033 
L 179.1104 256.800033 
L 179.1104 256.336912 
L 180.008367 256.336912 
L 180.008367 255.873792 
L 180.145122 255.873792 
L 180.145122 255.410671 
L 181.586911 255.410671 
L 181.586911 254.947551 
L 182.031535 254.947551 
L 182.031535 254.48443 
L 182.469169 254.48443 
L 182.469169 254.02131 
L 182.622939 254.02131 
L 182.622939 253.095069 
L 182.837821 253.095069 
L 182.837821 252.631948 
L 182.983127 252.631948 
L 182.983127 252.168828 
L 184.439926 252.168828 
L 184.439926 251.242587 
L 184.651606 251.242587 
L 184.651606 250.779466 
L 184.781426 250.779466 
L 184.795659 249.853225 
L 184.912642 249.853225 
L 185.015972 248.463863 
L 185.317738 248.463863 
L 185.317738 247.537622 
L 186.260631 247.537622 
L 186.260631 247.074502 
L 186.917422 247.074502 
L 186.917422 246.611381 
L 187.27178 246.611381 
L 187.27178 246.148261 
L 187.685507 246.148261 
L 187.685507 245.22202 
L 188.171903 245.22202 
L 188.218733 244.295779 
L 189.409639 244.295779 
L 189.409639 243.832658 
L 189.588895 243.832658 
L 189.588895 243.369538 
L 190.009803 243.369538 
L 190.115866 240.127694 
L 190.905201 240.127694 
L 190.996833 237.812091 
L 191.17291 237.812091 
L 191.17291 237.348971 
L 191.645948 237.348971 
L 191.645948 236.88585 
L 192.265587 236.88585 
L 192.265587 236.42273 
L 192.384154 236.42273 
L 192.384154 235.959609 
L 192.801146 235.959609 
L 192.801146 235.033368 
L 192.932505 235.033368 
L 192.932505 234.107127 
L 193.913395 234.107127 
L 193.913395 233.180886 
L 194.056895 233.180886 
L 194.056895 232.254645 
L 194.330794 232.254645 
L 194.330794 231.791525 
L 194.682031 231.791525 
L 194.682031 230.865284 
L 194.829374 230.865284 
L 194.829374 229.939043 
L 194.982756 229.939043 
L 195.019077 228.549681 
L 195.170807 228.549681 
L 195.170807 228.086561 
L 195.611219 228.086561 
L 195.637981 226.234079 
L 195.912771 226.234079 
L 195.912771 225.307837 
L 196.292183 225.307837 
L 196.317921 224.381596 
L 197.314008 224.381596 
L 197.314008 223.918476 
L 197.81568 223.918476 
L 197.858897 222.529114 
L 198.237074 222.529114 
L 198.313702 220.676632 
L 198.36333 220.676632 
L 198.423674 218.82415 
L 198.482729 218.82415 
L 198.482729 218.36103 
L 198.836099 218.36103 
L 198.836099 217.434789 
L 198.969681 217.434789 
L 198.969681 216.508548 
L 199.256595 216.508548 
L 199.256595 216.045427 
L 199.959351 216.045427 
L 199.959351 215.582307 
L 200.187448 215.582307 
L 200.217343 214.192945 
L 200.621969 214.192945 
L 200.697874 212.803583 
L 200.831691 212.803583 
L 200.831691 212.340463 
L 201.091627 212.340463 
L 201.180816 210.951101 
L 201.273239 210.951101 
L 201.300411 209.098619 
L 201.936592 209.098619 
L 201.995945 207.246137 
L 202.050249 207.246137 
L 202.050249 206.783017 
L 202.379924 206.783017 
L 202.379924 205.856776 
L 202.591453 205.856776 
L 202.597434 204.930535 
L 202.75563 204.930535 
L 202.75563 204.004294 
L 203.001539 204.004294 
L 203.001539 203.078053 
L 203.327393 203.078053 
L 203.356047 202.151812 
L 203.57714 202.151812 
L 203.57714 201.225571 
L 203.861546 201.225571 
L 203.861546 200.76245 
L 203.987833 200.76245 
L 204.042183 199.836209 
L 204.583048 199.836209 
L 204.672027 198.446847 
L 204.793352 198.446847 
L 204.818194 197.057486 
L 204.958296 197.057486 
L 204.958296 196.131245 
L 205.109492 196.131245 
L 205.109492 195.205004 
L 205.717224 195.205004 
L 205.739358 193.815642 
L 206.06733 193.815642 
L 206.136516 192.889401 
L 206.178661 192.889401 
L 206.289286 191.96316 
L 206.383404 191.96316 
L 206.485907 191.036919 
L 206.816365 191.036919 
L 206.816365 190.573799 
L 207.141995 190.573799 
L 207.200493 188.721316 
L 207.394297 188.721316 
L 207.455513 187.795075 
L 207.581157 187.795075 
L 207.581157 186.868834 
L 207.818681 186.868834 
L 207.818681 185.942593 
L 208.196456 185.942593 
L 208.230509 185.016352 
L 208.395497 185.016352 
L 208.395497 184.090111 
L 208.626488 184.090111 
L 208.653978 183.16387 
L 208.845207 183.16387 
L 208.845207 182.70075 
L 209.225575 182.70075 
L 209.257679 181.311388 
L 209.391873 181.311388 
L 209.391873 180.848268 
L 209.551439 180.848268 
L 209.551439 180.385147 
L 209.693356 180.385147 
L 209.693356 179.922027 
L 209.848509 179.922027 
L 209.848509 178.995786 
L 210.028537 178.995786 
L 210.131453 178.069545 
L 210.194571 178.069545 
L 210.293768 176.680183 
L 210.378464 176.680183 
L 210.378464 176.217062 
L 210.776115 176.217062 
L 210.776115 175.753942 
L 210.90022 175.753942 
L 210.90022 174.827701 
L 211.198847 174.827701 
L 211.278491 173.438339 
L 211.352601 173.438339 
L 211.352601 172.512098 
L 211.52397 172.512098 
L 211.52397 171.585857 
L 211.701022 171.585857 
L 211.782195 170.659616 
L 212.061001 170.659616 
L 212.061001 170.196496 
L 212.256051 170.196496 
L 212.256051 169.733375 
L 212.470784 169.733375 
L 212.577649 167.880893 
L 212.635403 167.880893 
L 212.635403 167.417773 
L 212.781575 167.417773 
L 212.781575 166.491532 
L 213.067014 166.491532 
L 213.067014 166.028411 
L 213.39507 166.028411 
L 213.485913 164.63905 
L 213.576058 164.63905 
L 213.644212 163.712808 
L 213.719553 163.712808 
L 213.736702 161.860326 
L 214.030347 161.860326 
L 214.030347 161.397206 
L 214.717859 161.397206 
L 214.813536 159.544724 
L 214.912065 159.544724 
L 214.912065 159.081603 
L 215.09996 159.081603 
L 215.11247 157.692242 
L 215.622267 157.692242 
L 215.622267 157.229121 
L 215.958472 157.229121 
L 216.005863 155.83976 
L 216.105381 155.83976 
L 216.191408 154.913519 
L 216.238171 154.913519 
L 216.238171 154.450398 
L 216.355213 154.450398 
L 216.436542 153.061037 
L 216.767789 153.061037 
L 216.806226 151.671675 
L 217.253244 151.671675 
L 217.363322 149.819193 
L 217.537398 149.819193 
L 217.537398 149.356072 
L 217.702749 149.356072 
L 217.702749 148.429831 
L 217.891268 148.429831 
L 217.977254 146.114229 
L 218.253425 146.114229 
L 218.253425 145.651108 
L 218.636846 145.651108 
L 218.682255 144.261747 
L 219.170463 144.261747 
L 219.170463 143.798626 
L 219.291106 143.798626 
L 219.291106 143.335506 
L 219.403588 143.335506 
L 219.403588 142.872385 
L 219.517131 142.872385 
L 219.559499 141.483024 
L 219.654534 141.483024 
L 219.710826 140.556783 
L 220.286923 140.556783 
L 220.305194 139.167421 
L 221.002622 139.167421 
L 221.002622 138.7043 
L 221.280669 138.7043 
L 221.37058 137.314939 
L 221.415943 137.314939 
L 221.415943 136.851818 
L 222.170702 136.851818 
L 222.279381 135.925577 
L 222.318584 135.925577 
L 222.318584 135.462457 
L 222.884405 135.462457 
L 222.884405 134.999336 
L 223.403833 134.999336 
L 223.403833 134.536216 
L 223.565166 134.536216 
L 223.565166 134.073095 
L 223.784701 134.073095 
L 223.784701 133.609975 
L 224.136198 133.609975 
L 224.136198 132.683734 
L 224.413629 132.683734 
L 224.413629 131.757493 
L 224.918452 131.757493 
L 224.918452 131.294372 
L 225.914785 131.294372 
L 225.914785 130.368131 
L 226.067587 130.368131 
L 226.067587 129.44189 
L 226.251224 129.44189 
L 226.356001 128.515649 
L 226.614953 128.515649 
L 226.614953 128.052529 
L 226.806914 128.052529 
L 226.806914 127.589408 
L 227.420932 127.589408 
L 227.427002 126.200046 
L 228.229658 126.200046 
L 228.229658 125.273805 
L 228.592209 125.273805 
L 228.592209 124.810685 
L 229.200838 124.810685 
L 229.200838 124.347564 
L 229.395623 124.347564 
L 229.395623 123.884444 
L 229.954624 123.884444 
L 229.954624 123.421323 
L 230.439144 123.421323 
L 230.512299 122.031962 
L 230.845324 122.031962 
L 230.845324 121.568841 
L 231.761226 121.568841 
L 231.761226 120.6426 
L 232.077034 120.6426 
L 232.077034 120.17948 
L 232.501099 120.17948 
L 232.501099 119.716359 
L 232.616603 119.716359 
L 232.616603 118.790118 
L 233.182332 118.790118 
L 233.244858 117.400757 
L 234.045613 117.400757 
L 234.049062 116.011395 
L 234.699236 116.011395 
L 234.699236 115.548274 
L 234.866356 115.548274 
L 234.866356 115.085154 
L 235.9465 115.085154 
L 235.958992 114.158913 
L 236.541921 114.158913 
L 236.541921 113.695792 
L 237.32646 113.695792 
L 237.32646 112.769551 
L 237.649702 112.769551 
L 237.649702 111.84331 
L 238.068448 111.84331 
L 238.068448 111.38019 
L 238.339433 111.38019 
L 238.339433 110.453949 
L 238.632531 110.453949 
L 238.632531 109.527708 
L 239.849837 109.527708 
L 239.849837 109.064587 
L 240.101506 109.064587 
L 240.101506 108.601467 
L 240.248593 108.601467 
L 240.27737 107.212105 
L 241.632159 107.212105 
L 241.632159 106.748985 
L 242.114767 106.748985 
L 242.114767 106.285864 
L 242.437756 106.285864 
L 242.437756 105.822744 
L 243.555715 105.822744 
L 243.555715 105.359623 
L 244.027222 105.359623 
L 244.027222 104.433382 
L 244.536678 104.433382 
L 244.536678 103.970262 
L 244.759546 103.970262 
L 244.759546 103.507141 
L 246.854548 103.507141 
L 246.854548 102.5809 
L 247.675488 102.5809 
L 247.675488 101.654659 
L 249.249317 101.654659 
L 249.249317 100.728418 
L 250.244815 100.728418 
L 250.244815 100.265297 
L 250.61015 100.265297 
L 250.61015 99.339056 
L 250.895425 99.339056 
L 250.895425 98.875936 
L 251.900296 98.875936 
L 251.900296 97.949695 
L 253.433683 97.949695 
L 253.433683 97.023454 
L 254.550933 97.023454 
L 254.550933 96.560333 
L 256.388245 96.560333 
L 256.388245 96.097213 
L 256.586483 96.097213 
L 256.586483 95.170972 
L 338.688 95.170972 
L 338.688 95.170972 
" style="fill:none;stroke:#000080;stroke-linecap:square;stroke-width:1.5;"/>
   </g>
   <g id="line2d_36">
    <defs>
     <path d="M 0 6 
C 1.591219 6 3.117479 5.367802 4.242641 4.242641 
C 5.367802 3.117479 6 1.591219 6 0 
C 6 -1.591219 5.367802 -3.117479 4.242641 -4.242641 
C 3.117479 -5.367802 1.591219 -6 0 -6 
C -1.591219 -6 -3.117479 -5.367802 -4.242641 -4.242641 
C -5.367802 -3.117479 -6 -1.591219 -6 0 
C -6 1.591219 -5.367802 3.117479 -4.242641 4.242641 
C -3.117479 5.367802 -1.591219 6 0 6 
z
" id="m2976fed8b2" style="stroke:#000080;stroke-width:1.5;"/>
    </defs>
    <g>
     <use style="fill-opacity:0;stroke:#000080;stroke-width:1.5;" x="99.41757" xlink:href="#m2976fed8b2" y="286.902867"/>
     <use style="fill-opacity:0;stroke:#000080;stroke-width:1.5;" x="185.317738" xlink:href="#m2976fed8b2" y="247.537622"/>
     <use style="fill-opacity:0;stroke:#000080;stroke-width:1.5;" x="217.537398" xlink:href="#m2976fed8b2" y="149.819193"/>
     <use style="fill-opacity:0;stroke:#000080;stroke-width:1.5;" x="256.586483" xlink:href="#m2976fed8b2" y="96.097213"/>
     <use style="fill-opacity:0;stroke:#000080;stroke-width:1.5;" x="256.586483" xlink:href="#m2976fed8b2" y="95.170972"/>
     <use style="fill-opacity:0;stroke:#000080;stroke-width:1.5;" x="338.688" xlink:href="#m2976fed8b2" y="95.170972"/>
    </g>
   </g>
   <g id="line2d_37">
    <path style="fill:none;stroke:#000080;stroke-linecap:square;stroke-width:1.5;"/>
    <g/>
   </g>
   <g id="line2d_38">
    <path clip-path="url(#p8ea84c404b)" d="M 258.37716 95.170972 
" style="fill:none;stroke:#000080;stroke-linecap:square;stroke-width:1.5;"/>
    <defs>
     <path d="M -12 12 
L 12 -12 
M -12 -12 
L 12 12 
" id="m79c36ff288" style="stroke:#000080;"/>
    </defs>
    <g clip-path="url(#p8ea84c404b)">
     <use style="fill:#000080;stroke:#000080;" x="258.37716" xlink:href="#m79c36ff288" y="95.170972"/>
    </g>
   </g>
   <g id="line2d_39">
    <defs>
     <path d="M 0 1.5 
C 0.397805 1.5 0.77937 1.341951 1.06066 1.06066 
C 1.341951 0.77937 1.5 0.397805 1.5 0 
C 1.5 -0.397805 1.341951 -0.77937 1.06066 -1.06066 
C 0.77937 -1.341951 0.397805 -1.5 0 -1.5 
C -0.397805 -1.5 -0.77937 -1.341951 -1.06066 -1.06066 
C -1.341951 -0.77937 -1.5 -0.397805 -1.5 0 
C -1.5 0.397805 -1.341951 0.77937 -1.06066 1.06066 
C -0.77937 1.341951 -0.397805 1.5 0 1.5 
z
" id="ma7df18fd60" style="stroke:#ff00ff;"/>
    </defs>
    <g>
     <use style="fill:#ff00ff;stroke:#ff00ff;" x="256.566296" xlink:href="#ma7df18fd60" y="192.889401"/>
     <use style="fill:#ff00ff;stroke:#ff00ff;" x="256.566296" xlink:href="#ma7df18fd60" y="192.889401"/>
    </g>
   </g>
   <g id="line2d_40">
    <path d="M 17.444571 298.944 
L 17.444571 294.312795 
L 121.53454 294.312795 
L 121.53454 293.849674 
L 125.857712 293.849674 
L 125.857712 293.386554 
L 130.127931 293.386554 
L 130.127931 292.923433 
L 131.26195 292.923433 
L 131.26195 292.460313 
L 131.814826 292.460313 
L 131.814826 291.997192 
L 133.689303 291.997192 
L 133.800029 290.14471 
L 134.019394 290.14471 
L 134.019394 289.68159 
L 134.386096 289.68159 
L 134.386096 289.218469 
L 135.50226 289.218469 
L 135.50226 288.755349 
L 135.621981 288.755349 
L 135.661706 287.829108 
L 136.092812 287.829108 
L 136.189322 286.439746 
L 136.304433 286.439746 
L 136.323544 285.513505 
L 136.475687 285.513505 
L 136.475687 285.050384 
L 136.738785 285.050384 
L 136.738785 284.587264 
L 137.144368 284.587264 
L 137.217107 283.661023 
L 137.361683 283.661023 
L 137.361683 283.197902 
L 137.997836 283.197902 
L 138.049816 280.8823 
L 138.153314 280.8823 
L 138.153314 280.419179 
L 138.341479 280.419179 
L 138.341479 279.956059 
L 138.527635 279.956059 
L 138.527635 279.492938 
L 138.661784 279.492938 
L 138.711825 278.566697 
L 139.683624 278.566697 
L 139.762215 276.714215 
L 139.8092 276.714215 
L 139.87165 274.861733 
L 139.9494 274.861733 
L 139.9494 274.398612 
L 140.149942 274.398612 
L 140.256979 273.009251 
L 141.133958 273.009251 
L 141.162927 272.08301 
L 141.292695 272.08301 
L 141.292695 271.619889 
L 141.605898 271.619889 
L 141.620002 270.693648 
L 141.844124 270.693648 
L 141.844124 270.230528 
L 142.024126 270.230528 
L 142.133981 269.304287 
L 142.739338 269.304287 
L 142.739338 268.841166 
L 143.208936 268.841166 
L 143.208936 268.378046 
L 144.18499 268.378046 
L 144.18499 267.914925 
L 144.35454 267.914925 
L 144.35454 267.451805 
L 145.224334 267.451805 
L 145.224334 266.988684 
L 145.576196 266.988684 
L 145.576196 266.062443 
L 145.876977 266.062443 
L 145.876977 265.599323 
L 146.161795 265.599323 
L 146.161795 264.209961 
L 146.538004 264.209961 
L 146.538004 263.746841 
L 147.287301 263.746841 
L 147.388869 262.8206 
L 148.103206 262.8206 
L 148.103206 262.357479 
L 150.724698 262.357479 
L 150.724698 261.894358 
L 151.469695 261.894358 
L 151.469695 261.431238 
L 154.554156 261.431238 
L 154.554156 260.504997 
L 154.787617 260.504997 
L 154.787617 259.578756 
L 155.135299 259.578756 
L 155.219531 258.652515 
L 155.577798 258.652515 
L 155.577798 257.726274 
L 156.550661 257.726274 
L 156.550661 256.800033 
L 158.014595 256.800033 
L 158.014595 256.336912 
L 160.025151 256.336912 
L 160.025151 255.873792 
L 161.137157 255.873792 
L 161.137157 255.410671 
L 161.627414 255.410671 
L 161.627414 254.48443 
L 162.846111 254.48443 
L 162.846111 254.02131 
L 163.420904 254.02131 
L 163.420904 253.558189 
L 164.287532 253.558189 
L 164.287532 253.095069 
L 164.832318 253.095069 
L 164.832318 252.631948 
L 165.230021 252.631948 
L 165.230021 252.168828 
L 168.072606 252.168828 
L 168.072606 251.705707 
L 169.178188 251.705707 
L 169.178188 250.779466 
L 171.258348 250.779466 
L 171.258348 250.316346 
L 172.061541 250.316346 
L 172.061541 249.390104 
L 174.001754 249.390104 
L 174.001754 248.463863 
L 174.584164 248.463863 
L 174.584164 248.000743 
L 175.225916 248.000743 
L 175.225916 247.537622 
L 175.431987 247.537622 
L 175.431987 247.074502 
L 177.633702 247.074502 
L 177.633702 246.611381 
L 180.237753 246.611381 
L 180.237753 246.148261 
L 180.859381 246.148261 
L 180.859381 245.68514 
L 181.532672 245.68514 
L 181.532672 244.758899 
L 182.626967 244.758899 
L 182.626967 243.832658 
L 183.937856 243.832658 
L 183.962746 242.906417 
L 184.302651 242.906417 
L 184.302651 241.980176 
L 184.863109 241.980176 
L 184.863109 241.517056 
L 185.164025 241.517056 
L 185.164025 241.053935 
L 185.547498 241.053935 
L 185.547498 240.590815 
L 187.108485 240.590815 
L 187.108485 239.664574 
L 187.427443 239.664574 
L 187.427443 239.201453 
L 187.607984 239.201453 
L 187.607984 238.275212 
L 189.756517 238.275212 
L 189.756517 237.348971 
L 190.101878 237.348971 
L 190.101878 236.42273 
L 190.601051 236.42273 
L 190.601051 235.959609 
L 191.281959 235.959609 
L 191.36025 234.570248 
L 192.354204 234.570248 
L 192.354204 233.644007 
L 194.199915 233.644007 
L 194.199915 232.717766 
L 194.389713 232.717766 
L 194.389713 232.254645 
L 194.653086 232.254645 
L 194.653086 231.328404 
L 195.833621 231.328404 
L 195.833621 230.865284 
L 196.550286 230.865284 
L 196.550286 230.402163 
L 197.451118 230.402163 
L 197.451118 229.939043 
L 198.881621 229.939043 
L 198.881621 229.012802 
L 200.160941 229.012802 
L 200.160941 228.086561 
L 200.454676 228.086561 
L 200.454676 227.16032 
L 201.174328 227.16032 
L 201.174328 226.697199 
L 201.842721 226.697199 
L 201.953001 225.307837 
L 202.573067 225.307837 
L 202.683515 223.918476 
L 204.439886 223.918476 
L 204.541828 222.529114 
L 205.568346 222.529114 
L 205.568346 221.602873 
L 206.515619 221.602873 
L 206.515619 221.139753 
L 206.948679 221.139753 
L 206.987913 219.750391 
L 207.102117 219.750391 
L 207.102117 219.287271 
L 208.551956 219.287271 
L 208.551956 218.36103 
L 209.618401 218.36103 
L 209.618401 217.434789 
L 210.445054 217.434789 
L 210.445054 216.508548 
L 211.624053 216.508548 
L 211.624053 216.045427 
L 212.469329 216.045427 
L 212.469329 215.582307 
L 213.235876 215.582307 
L 213.235876 215.119186 
L 213.914643 215.119186 
L 213.914643 214.192945 
L 216.34434 214.192945 
L 216.34434 213.266704 
L 216.492478 213.266704 
L 216.492478 212.340463 
L 217.057288 212.340463 
L 217.057288 211.414222 
L 217.95531 211.414222 
L 218.019118 210.02486 
L 219.148979 210.02486 
L 219.205112 208.172378 
L 219.913319 208.172378 
L 219.913319 207.246137 
L 220.944835 207.246137 
L 220.944835 206.783017 
L 221.47306 206.783017 
L 221.47306 205.856776 
L 223.430761 205.856776 
L 223.430761 205.393655 
L 224.808827 205.393655 
L 224.808827 204.930535 
L 228.544611 204.930535 
L 228.544611 204.004294 
L 228.679455 204.004294 
L 228.679455 203.541173 
L 228.996051 203.541173 
L 228.996051 202.614932 
L 230.173143 202.614932 
L 230.173143 202.151812 
L 234.168209 202.151812 
L 234.168209 201.225571 
L 235.99761 201.225571 
L 236.074716 200.299329 
L 237.422875 200.299329 
L 237.422875 199.836209 
L 239.170128 199.836209 
L 239.170128 198.909968 
L 240.26348 198.909968 
L 240.26348 197.983727 
L 240.934096 197.983727 
L 240.934096 197.057486 
L 243.879116 197.057486 
L 243.898968 196.131245 
L 249.765945 196.131245 
L 249.765945 195.205004 
L 250.183435 195.205004 
L 250.183435 194.741883 
L 250.596533 194.741883 
L 250.596533 194.278763 
L 256.53477 194.278763 
L 256.566296 192.889401 
L 338.688 192.889401 
L 338.688 192.889401 
" style="fill:none;stroke:#ff00ff;stroke-linecap:square;stroke-width:1.5;"/>
   </g>
   <g id="line2d_41">
    <defs>
     <path d="M 0 8.485281 
L 5.091169 0 
L 0 -8.485281 
L -5.091169 0 
z
" id="m94fe6ad216" style="stroke:#ff00ff;stroke-linejoin:miter;stroke-width:1.5;"/>
    </defs>
    <g>
     <use style="fill-opacity:0;stroke:#ff00ff;stroke-linejoin:miter;stroke-width:1.5;" x="169.178188" xlink:href="#m94fe6ad216" y="251.705707"/>
     <use style="fill-opacity:0;stroke:#ff00ff;stroke-linejoin:miter;stroke-width:1.5;" x="213.914643" xlink:href="#m94fe6ad216" y="214.192945"/>
     <use style="fill-opacity:0;stroke:#ff00ff;stroke-linejoin:miter;stroke-width:1.5;" x="256.566296" xlink:href="#m94fe6ad216" y="193.352522"/>
     <use style="fill-opacity:0;stroke:#ff00ff;stroke-linejoin:miter;stroke-width:1.5;" x="256.566296" xlink:href="#m94fe6ad216" y="192.889401"/>
     <use style="fill-opacity:0;stroke:#ff00ff;stroke-linejoin:miter;stroke-width:1.5;" x="338.688" xlink:href="#m94fe6ad216" y="192.889401"/>
    </g>
   </g>
   <g id="line2d_42">
    <path style="fill:none;stroke:#ff00ff;stroke-linecap:square;stroke-width:1.5;"/>
    <g/>
   </g>
   <g id="line2d_43">
    <path clip-path="url(#p8ea84c404b)" d="M 258.379445 192.889401 
" style="fill:none;stroke:#ff00ff;stroke-linecap:square;stroke-width:1.5;"/>
    <defs>
     <path d="M -12 12 
L 12 -12 
M -12 -12 
L 12 12 
" id="maa8487ee7a" style="stroke:#ff00ff;"/>
    </defs>
    <g clip-path="url(#p8ea84c404b)">
     <use style="fill:#ff00ff;stroke:#ff00ff;" x="258.379445" xlink:href="#maa8487ee7a" y="192.889401"/>
    </g>
   </g>
   <g id="line2d_44">
    <defs>
     <path d="M 0 1.5 
C 0.397805 1.5 0.77937 1.341951 1.06066 1.06066 
C 1.341951 0.77937 1.5 0.397805 1.5 0 
C 1.5 -0.397805 1.341951 -0.77937 1.06066 -1.06066 
C 0.77937 -1.341951 0.397805 -1.5 0 -1.5 
C -0.397805 -1.5 -0.77937 -1.341951 -1.06066 -1.06066 
C -1.341951 -0.77937 -1.5 -0.397805 -1.5 0 
C -1.5 0.397805 -1.341951 0.77937 -1.06066 1.06066 
C -0.77937 1.341951 -0.397805 1.5 0 1.5 
z
" id="ma9c581600d" style="stroke:#ff7500;"/>
    </defs>
    <g>
     <use style="fill:#ff7500;stroke:#ff7500;" x="257.577493" xlink:href="#ma9c581600d" y="147.04047"/>
     <use style="fill:#ff7500;stroke:#ff7500;" x="257.577493" xlink:href="#ma9c581600d" y="147.04047"/>
    </g>
   </g>
   <g id="line2d_45">
    <path d="M 159.788013 298.944 
L 159.788013 298.480879 
L 160.499521 298.480879 
L 160.499521 298.017759 
L 160.965979 298.017759 
L 160.965979 297.554638 
L 161.986269 297.554638 
L 161.990653 296.628397 
L 162.225793 296.628397 
L 162.225793 296.165277 
L 162.444996 296.165277 
L 162.444996 295.702156 
L 162.791763 295.702156 
L 162.891965 294.775915 
L 162.9377 294.775915 
L 162.9377 294.312795 
L 163.061823 294.312795 
L 163.061823 293.849674 
L 163.189163 293.849674 
L 163.189163 293.386554 
L 163.541647 293.386554 
L 163.541647 292.923433 
L 163.764822 292.923433 
L 163.824119 291.534072 
L 163.989086 291.534072 
L 163.989086 290.607831 
L 164.187328 290.607831 
L 164.187328 290.14471 
L 164.417705 290.14471 
L 164.516598 288.755349 
L 164.701462 288.755349 
L 164.701462 288.292228 
L 165.382267 288.292228 
L 165.475853 286.902867 
L 165.500963 286.902867 
L 165.500963 286.439746 
L 165.615296 286.439746 
L 165.647318 285.513505 
L 165.739495 285.513505 
L 165.820633 284.124143 
L 165.992243 284.124143 
L 166.047915 282.734782 
L 166.234507 282.734782 
L 166.330478 280.8823 
L 166.412321 280.8823 
L 166.412321 279.492938 
L 166.584972 279.492938 
L 166.662278 278.103577 
L 166.931835 278.103577 
L 166.931835 277.640456 
L 167.164734 277.640456 
L 167.197288 276.251095 
L 167.359153 276.251095 
L 167.43311 275.324854 
L 167.477974 275.324854 
L 167.477974 274.861733 
L 167.640438 274.861733 
L 167.716371 273.009251 
L 167.763662 273.009251 
L 167.763662 271.619889 
L 167.954668 271.619889 
L 168.007528 269.767407 
L 168.287795 269.767407 
L 168.394402 268.378046 
L 168.763962 268.378046 
L 168.826282 266.525564 
L 168.894283 266.525564 
L 168.894283 266.062443 
L 169.020709 266.062443 
L 169.122941 263.746841 
L 169.463258 263.746841 
L 169.477533 262.8206 
L 169.599814 262.8206 
L 169.690261 260.504997 
L 169.724059 260.504997 
L 169.724059 260.041876 
L 169.908781 260.041876 
L 169.908781 259.578756 
L 170.069512 259.578756 
L 170.17128 257.263153 
L 170.198683 257.263153 
L 170.236975 255.410671 
L 170.356777 255.410671 
L 170.370339 254.48443 
L 170.499999 254.48443 
L 170.567151 253.558189 
L 170.708663 253.558189 
L 170.764418 252.168828 
L 171.129034 252.168828 
L 171.129034 251.705707 
L 171.258348 251.705707 
L 171.286669 250.316346 
L 171.384153 250.316346 
L 171.384153 249.853225 
L 171.612885 249.853225 
L 171.622982 248.926984 
L 171.74118 248.926984 
L 171.74118 248.463863 
L 171.91823 248.463863 
L 171.977674 245.68514 
L 172.05908 245.68514 
L 172.076299 244.295779 
L 172.279183 244.295779 
L 172.305895 242.906417 
L 172.448474 242.906417 
L 172.448474 242.443297 
L 172.864649 242.443297 
L 172.897518 241.517056 
L 173.037687 241.517056 
L 173.037687 240.590815 
L 173.176739 240.590815 
L 173.234351 238.275212 
L 173.567059 238.275212 
L 173.643636 236.42273 
L 173.697489 236.42273 
L 173.697489 235.959609 
L 173.87137 235.959609 
L 173.87137 235.033368 
L 174.170462 235.033368 
L 174.172643 233.644007 
L 174.298637 233.644007 
L 174.298637 232.717766 
L 174.550061 232.717766 
L 174.588422 231.791525 
L 174.717799 231.791525 
L 174.717799 230.865284 
L 175.268964 230.865284 
L 175.268964 230.402163 
L 175.425901 230.402163 
L 175.523022 229.012802 
L 175.747557 229.012802 
L 175.819119 227.16032 
L 175.990858 227.16032 
L 175.990858 226.697199 
L 176.410073 226.697199 
L 176.410073 226.234079 
L 176.570418 226.234079 
L 176.667056 222.065994 
L 177.016882 222.065994 
L 177.016882 221.602873 
L 177.359828 221.602873 
L 177.397923 219.750391 
L 178.28637 219.750391 
L 178.28637 218.82415 
L 178.476478 218.82415 
L 178.573302 217.434789 
L 178.935411 217.434789 
L 178.935411 216.508548 
L 179.077517 216.508548 
L 179.077517 216.045427 
L 179.236422 216.045427 
L 179.272262 214.192945 
L 179.837477 214.192945 
L 179.837477 213.729825 
L 180.300769 213.729825 
L 180.300769 212.803583 
L 180.636574 212.803583 
L 180.636574 211.877342 
L 180.995545 211.877342 
L 181.041188 210.951101 
L 181.159888 210.951101 
L 181.159888 210.02486 
L 181.331376 210.02486 
L 181.331376 209.098619 
L 181.564094 209.098619 
L 181.564094 208.172378 
L 182.283933 208.172378 
L 182.283933 207.246137 
L 182.402656 207.246137 
L 182.402656 206.783017 
L 182.852407 206.783017 
L 182.852407 206.319896 
L 183.232591 206.319896 
L 183.232591 205.393655 
L 183.52068 205.393655 
L 183.52068 204.467414 
L 183.666754 204.467414 
L 183.771427 203.541173 
L 184.358664 203.541173 
L 184.374461 201.688691 
L 184.584531 201.688691 
L 184.584531 200.76245 
L 185.800034 200.76245 
L 185.800034 199.836209 
L 185.939384 199.836209 
L 185.939384 199.373088 
L 186.203854 199.373088 
L 186.203854 198.909968 
L 186.371467 198.909968 
L 186.448204 197.983727 
L 186.832181 197.983727 
L 186.832181 197.520606 
L 187.128203 197.520606 
L 187.128203 197.057486 
L 187.250164 197.057486 
L 187.265606 196.131245 
L 188.136698 196.131245 
L 188.136698 195.205004 
L 188.842691 195.205004 
L 188.842691 194.741883 
L 189.476849 194.741883 
L 189.529347 193.815642 
L 189.722585 193.815642 
L 189.722585 193.352522 
L 189.926077 193.352522 
L 189.926077 192.889401 
L 190.098379 192.889401 
L 190.098379 192.426281 
L 190.393291 192.426281 
L 190.393291 191.96316 
L 190.91689 191.96316 
L 190.91689 191.036919 
L 191.110288 191.036919 
L 191.110288 190.573799 
L 191.391144 190.573799 
L 191.391144 189.647558 
L 191.839388 189.647558 
L 191.839388 189.184437 
L 193.639235 189.184437 
L 193.639235 188.721316 
L 194.355482 188.721316 
L 194.355482 187.795075 
L 194.479081 187.795075 
L 194.479081 187.331955 
L 195.5825 187.331955 
L 195.613132 185.479473 
L 195.957838 185.479473 
L 195.957838 185.016352 
L 196.34301 185.016352 
L 196.34301 184.553232 
L 197.422977 184.553232 
L 197.514697 183.16387 
L 197.62015 183.16387 
L 197.62015 182.70075 
L 197.946685 182.70075 
L 197.946685 181.774509 
L 198.280903 181.774509 
L 198.280903 180.848268 
L 199.550061 180.848268 
L 199.550061 179.922027 
L 200.155045 179.922027 
L 200.155045 179.458906 
L 200.2999 179.458906 
L 200.2999 178.532665 
L 200.439211 178.532665 
L 200.513507 177.143304 
L 200.626275 177.143304 
L 200.626275 176.217062 
L 202.320129 176.217062 
L 202.373435 175.290821 
L 202.919954 175.290821 
L 202.919954 174.827701 
L 204.345076 174.827701 
L 204.345076 174.36458 
L 204.670889 174.36458 
L 204.670889 173.90146 
L 205.24765 173.90146 
L 205.24765 173.438339 
L 205.429811 173.438339 
L 205.429811 172.975219 
L 205.681108 172.975219 
L 205.748631 172.048978 
L 206.252951 172.048978 
L 206.252951 171.585857 
L 207.182439 171.585857 
L 207.182439 171.122737 
L 208.350096 171.122737 
L 208.350096 170.659616 
L 209.10304 170.659616 
L 209.10304 170.196496 
L 211.276933 170.196496 
L 211.276933 169.733375 
L 213.302827 169.733375 
L 213.302827 169.270255 
L 216.42108 169.270255 
L 216.42108 168.344014 
L 216.565693 168.344014 
L 216.565693 167.880893 
L 216.962883 167.880893 
L 216.962883 167.417773 
L 217.79217 167.417773 
L 217.79217 166.954652 
L 218.031993 166.954652 
L 218.077771 166.028411 
L 219.351851 166.028411 
L 219.351851 165.565291 
L 220.728076 165.565291 
L 220.728076 165.10217 
L 221.177785 165.10217 
L 221.177785 164.63905 
L 222.171675 164.63905 
L 222.171675 164.175929 
L 222.524188 164.175929 
L 222.524188 163.249688 
L 223.852009 163.249688 
L 223.852009 162.323447 
L 224.641276 162.323447 
L 224.641276 161.397206 
L 225.22949 161.397206 
L 225.22949 160.934085 
L 227.642515 160.934085 
L 227.642515 160.470965 
L 228.446307 160.470965 
L 228.446307 159.544724 
L 230.431699 159.544724 
L 230.431699 159.081603 
L 232.515012 159.081603 
L 232.515012 158.618483 
L 233.490786 158.618483 
L 233.490786 157.692242 
L 233.785022 157.692242 
L 233.785022 156.766001 
L 234.488487 156.766001 
L 234.488487 155.83976 
L 235.257234 155.83976 
L 235.257234 155.376639 
L 235.657647 155.376639 
L 235.657647 154.913519 
L 236.044931 154.913519 
L 236.079477 153.987278 
L 238.797578 153.987278 
L 238.797578 153.524157 
L 239.293657 153.524157 
L 239.293657 153.061037 
L 239.651223 153.061037 
L 239.651223 152.597916 
L 242.279928 152.597916 
L 242.279928 151.671675 
L 246.329045 151.671675 
L 246.329045 151.208554 
L 248.295644 151.208554 
L 248.295644 150.745434 
L 249.94685 150.745434 
L 249.94685 150.282313 
L 254.324804 150.282313 
L 254.324804 149.819193 
L 254.905537 149.819193 
L 254.905537 149.356072 
L 256.158677 149.356072 
L 256.158677 148.892952 
L 256.360937 148.892952 
L 256.360937 148.429831 
L 257.469935 148.429831 
L 257.577493 147.04047 
L 338.688 147.04047 
L 338.688 147.04047 
" style="fill:none;stroke:#ff7500;stroke-linecap:square;stroke-width:1.5;"/>
   </g>
   <g id="line2d_46">
    <defs>
     <path d="M 0 -6 
L -1.347084 -1.854102 
L -5.706339 -1.854102 
L -2.179628 0.708204 
L -3.526712 4.854102 
L -0 2.291796 
L 3.526712 4.854102 
L 2.179628 0.708204 
L 5.706339 -1.854102 
L 1.347084 -1.854102 
z
" id="mf9d69e3d39" style="stroke:#ff7500;stroke-linejoin:bevel;stroke-width:1.5;"/>
    </defs>
    <g>
     <use style="fill-opacity:0;stroke:#ff7500;stroke-linejoin:bevel;stroke-width:1.5;" x="174.172643" xlink:href="#mf9d69e3d39" y="234.570248"/>
     <use style="fill-opacity:0;stroke:#ff7500;stroke-linejoin:bevel;stroke-width:1.5;" x="242.279928" xlink:href="#mf9d69e3d39" y="152.597916"/>
     <use style="fill-opacity:0;stroke:#ff7500;stroke-linejoin:bevel;stroke-width:1.5;" x="257.577493" xlink:href="#mf9d69e3d39" y="147.04047"/>
     <use style="fill-opacity:0;stroke:#ff7500;stroke-linejoin:bevel;stroke-width:1.5;" x="338.688" xlink:href="#mf9d69e3d39" y="147.04047"/>
    </g>
   </g>
   <g id="line2d_47">
    <path style="fill:none;stroke:#ff7500;stroke-linecap:square;stroke-width:1.5;"/>
    <g/>
   </g>
   <g id="line2d_48">
    <path clip-path="url(#p8ea84c404b)" d="M 258.37716 147.04047 
" style="fill:none;stroke:#ff7500;stroke-linecap:square;stroke-width:1.5;"/>
    <defs>
     <path d="M -12 12 
L 12 -12 
M -12 -12 
L 12 12 
" id="m96e3653002" style="stroke:#ff7500;"/>
    </defs>
    <g clip-path="url(#p8ea84c404b)">
     <use style="fill:#ff7500;stroke:#ff7500;" x="258.37716" xlink:href="#m96e3653002" y="147.04047"/>
    </g>
   </g>
   <g id="line2d_49">
    <path d="M 338.688 192.889401 
L 369.60768 293.571802 
" style="fill:none;stroke:#ff00ff;stroke-linecap:square;stroke-width:1.5;"/>
    <g>
     <use style="fill-opacity:0;stroke:#ff00ff;stroke-linejoin:miter;stroke-width:1.5;" x="338.688" xlink:href="#m94fe6ad216" y="192.889401"/>
     <use style="fill-opacity:0;stroke:#ff00ff;stroke-linejoin:miter;stroke-width:1.5;" x="369.60768" xlink:href="#m94fe6ad216" y="293.571802"/>
    </g>
   </g>
   <g id="line2d_50">
    <path d="M 338.688 147.04047 
L 369.60768 207.616634 
" style="fill:none;stroke:#ff7500;stroke-linecap:square;stroke-width:1.5;"/>
    <g>
     <use style="fill-opacity:0;stroke:#ff7500;stroke-linejoin:bevel;stroke-width:1.5;" x="338.688" xlink:href="#mf9d69e3d39" y="147.04047"/>
     <use style="fill-opacity:0;stroke:#ff7500;stroke-linejoin:bevel;stroke-width:1.5;" x="369.60768" xlink:href="#mf9d69e3d39" y="207.616634"/>
    </g>
   </g>
   <g id="line2d_51">
    <path d="M 338.688 95.170972 
L 369.60768 121.661465 
" style="fill:none;stroke:#000080;stroke-linecap:square;stroke-width:1.5;"/>
    <g>
     <use style="fill-opacity:0;stroke:#000080;stroke-width:1.5;" x="338.688" xlink:href="#m2976fed8b2" y="95.170972"/>
     <use style="fill-opacity:0;stroke:#000080;stroke-width:1.5;" x="369.60768" xlink:href="#m2976fed8b2" y="121.661465"/>
    </g>
   </g>
   <g id="line2d_52">
    <path d="M 338.688 298.944 
L 338.688 30.334099 
" style="fill:none;stroke:#000000;stroke-linecap:square;stroke-width:1.5;"/>
   </g>
   <g id="patch_3">
    <path d="M 57.6 298.944 
L 57.6 27.648 
" style="fill:none;stroke:#000000;stroke-linecap:square;stroke-linejoin:miter;stroke-width:0.8;"/>
   </g>
   <g id="patch_4">
    <path d="M 338.688 298.944 
L 338.688 27.648 
" style="fill:none;stroke:#000000;stroke-linecap:square;stroke-linejoin:miter;stroke-width:0.8;"/>
   </g>
   <g id="patch_5">
    <path d="M 57.6 298.944 
L 338.688 298.944 
" style="fill:none;stroke:#000000;stroke-linecap:square;stroke-linejoin:miter;stroke-width:0.8;"/>
   </g>
   <g id="patch_6">
    <path d="M 57.6 27.648 
L 338.688 27.648 
" style="fill:none;stroke:#000000;stroke-linecap:square;stroke-linejoin:miter;stroke-width:0.8;"/>
   </g>
   <g id="text_13">
    <!-- NSGA-II-M -->
    <g transform="translate(375.22944 298.262739)scale(0.17 -0.17)">
     <defs>
      <path d="M 9.8125 72.90625 
L 23.09375 72.90625 
L 55.421875 11.921875 
L 55.421875 72.90625 
L 64.984375 72.90625 
L 64.984375 0 
L 51.703125 0 
L 19.390625 60.984375 
L 19.390625 0 
L 9.8125 0 
z
" id="DejaVuSans-78"/>
      <path d="M 53.515625 70.515625 
L 53.515625 60.890625 
Q 47.90625 63.578125 42.921875 64.890625 
Q 37.9375 66.21875 33.296875 66.21875 
Q 25.25 66.21875 20.875 63.09375 
Q 16.5 59.96875 16.5 54.203125 
Q 16.5 49.359375 19.40625 46.890625 
Q 22.3125 44.4375 30.421875 42.921875 
L 36.375 41.703125 
Q 47.40625 39.59375 52.65625 34.296875 
Q 57.90625 29 57.90625 20.125 
Q 57.90625 9.515625 50.796875 4.046875 
Q 43.703125 -1.421875 29.984375 -1.421875 
Q 24.8125 -1.421875 18.96875 -0.25 
Q 13.140625 0.921875 6.890625 3.21875 
L 6.890625 13.375 
Q 12.890625 10.015625 18.65625 8.296875 
Q 24.421875 6.59375 29.984375 6.59375 
Q 38.421875 6.59375 43.015625 9.90625 
Q 47.609375 13.234375 47.609375 19.390625 
Q 47.609375 24.75 44.3125 27.78125 
Q 41.015625 30.8125 33.5 32.328125 
L 27.484375 33.5 
Q 16.453125 35.6875 11.515625 40.375 
Q 6.59375 45.0625 6.59375 53.421875 
Q 6.59375 63.09375 13.40625 68.65625 
Q 20.21875 74.21875 32.171875 74.21875 
Q 37.3125 74.21875 42.625 73.28125 
Q 47.953125 72.359375 53.515625 70.515625 
z
" id="DejaVuSans-83"/>
      <path d="M 59.515625 10.40625 
L 59.515625 29.984375 
L 43.40625 29.984375 
L 43.40625 38.09375 
L 69.28125 38.09375 
L 69.28125 6.78125 
Q 63.578125 2.734375 56.6875 0.65625 
Q 49.8125 -1.421875 42 -1.421875 
Q 24.90625 -1.421875 15.25 8.5625 
Q 5.609375 18.5625 5.609375 36.375 
Q 5.609375 54.25 15.25 64.234375 
Q 24.90625 74.21875 42 74.21875 
Q 49.125 74.21875 55.546875 72.453125 
Q 61.96875 70.703125 67.390625 67.28125 
L 67.390625 56.78125 
Q 61.921875 61.421875 55.765625 63.765625 
Q 49.609375 66.109375 42.828125 66.109375 
Q 29.4375 66.109375 22.71875 58.640625 
Q 16.015625 51.171875 16.015625 36.375 
Q 16.015625 21.625 22.71875 14.15625 
Q 29.4375 6.6875 42.828125 6.6875 
Q 48.046875 6.6875 52.140625 7.59375 
Q 56.25 8.5 59.515625 10.40625 
z
" id="DejaVuSans-71"/>
      <path d="M 34.1875 63.1875 
L 20.796875 26.90625 
L 47.609375 26.90625 
z
M 28.609375 72.90625 
L 39.796875 72.90625 
L 67.578125 0 
L 57.328125 0 
L 50.6875 18.703125 
L 17.828125 18.703125 
L 11.1875 0 
L 0.78125 0 
z
" id="DejaVuSans-65"/>
      <path d="M 9.8125 72.90625 
L 19.671875 72.90625 
L 19.671875 0 
L 9.8125 0 
z
" id="DejaVuSans-73"/>
      <path d="M 9.8125 72.90625 
L 24.515625 72.90625 
L 43.109375 23.296875 
L 61.8125 72.90625 
L 76.515625 72.90625 
L 76.515625 0 
L 66.890625 0 
L 66.890625 64.015625 
L 48.09375 14.015625 
L 38.1875 14.015625 
L 19.390625 64.015625 
L 19.390625 0 
L 9.8125 0 
z
" id="DejaVuSans-77"/>
     </defs>
     <use xlink:href="#DejaVuSans-78"/>
     <use x="74.804688" xlink:href="#DejaVuSans-83"/>
     <use x="138.28125" xlink:href="#DejaVuSans-71"/>
     <use x="215.771484" xlink:href="#DejaVuSans-65"/>
     <use x="281.929688" xlink:href="#DejaVuSans-45"/>
     <use x="318.013672" xlink:href="#DejaVuSans-73"/>
     <use x="347.505859" xlink:href="#DejaVuSans-73"/>
     <use x="376.998047" xlink:href="#DejaVuSans-45"/>
     <use x="413.082031" xlink:href="#DejaVuSans-77"/>
    </g>
   </g>
   <g id="text_14">
    <!-- SMS-EMOA- -->
    <g transform="translate(375.22944 212.307571)scale(0.17 -0.17)">
     <defs>
      <path d="M 9.8125 72.90625 
L 55.90625 72.90625 
L 55.90625 64.59375 
L 19.671875 64.59375 
L 19.671875 43.015625 
L 54.390625 43.015625 
L 54.390625 34.71875 
L 19.671875 34.71875 
L 19.671875 8.296875 
L 56.78125 8.296875 
L 56.78125 0 
L 9.8125 0 
z
" id="DejaVuSans-69"/>
      <path d="M 39.40625 66.21875 
Q 28.65625 66.21875 22.328125 58.203125 
Q 16.015625 50.203125 16.015625 36.375 
Q 16.015625 22.609375 22.328125 14.59375 
Q 28.65625 6.59375 39.40625 6.59375 
Q 50.140625 6.59375 56.421875 14.59375 
Q 62.703125 22.609375 62.703125 36.375 
Q 62.703125 50.203125 56.421875 58.203125 
Q 50.140625 66.21875 39.40625 66.21875 
z
M 39.40625 74.21875 
Q 54.734375 74.21875 63.90625 63.9375 
Q 73.09375 53.65625 73.09375 36.375 
Q 73.09375 19.140625 63.90625 8.859375 
Q 54.734375 -1.421875 39.40625 -1.421875 
Q 24.03125 -1.421875 14.8125 8.828125 
Q 5.609375 19.09375 5.609375 36.375 
Q 5.609375 53.65625 14.8125 63.9375 
Q 24.03125 74.21875 39.40625 74.21875 
z
" id="DejaVuSans-79"/>
     </defs>
     <use xlink:href="#DejaVuSans-83"/>
     <use x="63.476562" xlink:href="#DejaVuSans-77"/>
     <use x="149.755859" xlink:href="#DejaVuSans-83"/>
     <use x="213.232422" xlink:href="#DejaVuSans-45"/>
     <use x="249.316406" xlink:href="#DejaVuSans-69"/>
     <use x="312.5" xlink:href="#DejaVuSans-77"/>
     <use x="398.779297" xlink:href="#DejaVuSans-79"/>
     <use x="475.740234" xlink:href="#DejaVuSans-65"/>
     <use x="541.898438" xlink:href="#DejaVuSans-45"/>
    </g>
   </g>
   <g id="text_15">
    <!-- COMO-100  -->
    <g transform="translate(375.22944 126.352403)scale(0.17 -0.17)">
     <defs>
      <path d="M 64.40625 67.28125 
L 64.40625 56.890625 
Q 59.421875 61.53125 53.78125 63.8125 
Q 48.140625 66.109375 41.796875 66.109375 
Q 29.296875 66.109375 22.65625 58.46875 
Q 16.015625 50.828125 16.015625 36.375 
Q 16.015625 21.96875 22.65625 14.328125 
Q 29.296875 6.6875 41.796875 6.6875 
Q 48.140625 6.6875 53.78125 8.984375 
Q 59.421875 11.28125 64.40625 15.921875 
L 64.40625 5.609375 
Q 59.234375 2.09375 53.4375 0.328125 
Q 47.65625 -1.421875 41.21875 -1.421875 
Q 24.65625 -1.421875 15.125 8.703125 
Q 5.609375 18.84375 5.609375 36.375 
Q 5.609375 53.953125 15.125 64.078125 
Q 24.65625 74.21875 41.21875 74.21875 
Q 47.75 74.21875 53.53125 72.484375 
Q 59.328125 70.75 64.40625 67.28125 
z
" id="DejaVuSans-67"/>
     </defs>
     <use xlink:href="#DejaVuSans-67"/>
     <use x="69.824219" xlink:href="#DejaVuSans-79"/>
     <use x="148.535156" xlink:href="#DejaVuSans-77"/>
     <use x="234.814453" xlink:href="#DejaVuSans-79"/>
     <use x="316.275391" xlink:href="#DejaVuSans-45"/>
     <use x="352.359375" xlink:href="#DejaVuSans-49"/>
     <use x="415.982422" xlink:href="#DejaVuSans-48"/>
     <use x="479.605469" xlink:href="#DejaVuSans-48"/>
     <use x="543.228516" xlink:href="#DejaVuSans-32"/>
    </g>
   </g>
   <g id="text_16">
    <!-- best 2016 -->
    <g transform="translate(375.22944 40.397235)scale(0.17 -0.17)">
     <defs>
      <path d="M 48.6875 27.296875 
Q 48.6875 37.203125 44.609375 42.84375 
Q 40.53125 48.484375 33.40625 48.484375 
Q 26.265625 48.484375 22.1875 42.84375 
Q 18.109375 37.203125 18.109375 27.296875 
Q 18.109375 17.390625 22.1875 11.75 
Q 26.265625 6.109375 33.40625 6.109375 
Q 40.53125 6.109375 44.609375 11.75 
Q 48.6875 17.390625 48.6875 27.296875 
z
M 18.109375 46.390625 
Q 20.953125 51.265625 25.265625 53.625 
Q 29.59375 56 35.59375 56 
Q 45.5625 56 51.78125 48.09375 
Q 58.015625 40.1875 58.015625 27.296875 
Q 58.015625 14.40625 51.78125 6.484375 
Q 45.5625 -1.421875 35.59375 -1.421875 
Q 29.59375 -1.421875 25.265625 0.953125 
Q 20.953125 3.328125 18.109375 8.203125 
L 18.109375 0 
L 9.078125 0 
L 9.078125 75.984375 
L 18.109375 75.984375 
z
" id="DejaVuSans-98"/>
     </defs>
     <use xlink:href="#DejaVuSans-98"/>
     <use x="63.476562" xlink:href="#DejaVuSans-101"/>
     <use x="125" xlink:href="#DejaVuSans-115"/>
     <use x="177.099609" xlink:href="#DejaVuSans-116"/>
     <use x="216.308594" xlink:href="#DejaVuSans-32"/>
     <use x="248.095703" xlink:href="#DejaVuSans-50"/>
     <use x="311.71875" xlink:href="#DejaVuSans-48"/>
     <use x="375.341797" xlink:href="#DejaVuSans-49"/>
     <use x="438.964844" xlink:href="#DejaVuSans-54"/>
    </g>
   </g>
   <g id="text_17">
    <!-- bbob-biobj f41, 10-D -->
    <g transform="translate(60.41088 38.111366)scale(0.102 -0.102)">
     <defs>
      <path d="M 9.421875 54.6875 
L 18.40625 54.6875 
L 18.40625 -0.984375 
Q 18.40625 -11.421875 14.421875 -16.109375 
Q 10.453125 -20.796875 1.609375 -20.796875 
L -1.8125 -20.796875 
L -1.8125 -13.1875 
L 0.59375 -13.1875 
Q 5.71875 -13.1875 7.5625 -10.8125 
Q 9.421875 -8.453125 9.421875 -0.984375 
z
M 9.421875 75.984375 
L 18.40625 75.984375 
L 18.40625 64.59375 
L 9.421875 64.59375 
z
" id="DejaVuSans-106"/>
      <path d="M 19.671875 64.796875 
L 19.671875 8.109375 
L 31.59375 8.109375 
Q 46.6875 8.109375 53.6875 14.9375 
Q 60.6875 21.78125 60.6875 36.53125 
Q 60.6875 51.171875 53.6875 57.984375 
Q 46.6875 64.796875 31.59375 64.796875 
z
M 9.8125 72.90625 
L 30.078125 72.90625 
Q 51.265625 72.90625 61.171875 64.09375 
Q 71.09375 55.28125 71.09375 36.53125 
Q 71.09375 17.671875 61.125 8.828125 
Q 51.171875 0 30.078125 0 
L 9.8125 0 
z
" id="DejaVuSans-68"/>
     </defs>
     <use xlink:href="#DejaVuSans-98"/>
     <use x="63.476562" xlink:href="#DejaVuSans-98"/>
     <use x="126.953125" xlink:href="#DejaVuSans-111"/>
     <use x="188.134766" xlink:href="#DejaVuSans-98"/>
     <use x="251.611328" xlink:href="#DejaVuSans-45"/>
     <use x="287.695312" xlink:href="#DejaVuSans-98"/>
     <use x="351.171875" xlink:href="#DejaVuSans-105"/>
     <use x="378.955078" xlink:href="#DejaVuSans-111"/>
     <use x="440.136719" xlink:href="#DejaVuSans-98"/>
     <use x="503.613281" xlink:href="#DejaVuSans-106"/>
     <use x="531.396484" xlink:href="#DejaVuSans-32"/>
     <use x="563.183594" xlink:href="#DejaVuSans-102"/>
     <use x="598.388672" xlink:href="#DejaVuSans-52"/>
     <use x="662.011719" xlink:href="#DejaVuSans-49"/>
     <use x="725.634766" xlink:href="#DejaVuSans-44"/>
     <use x="757.421875" xlink:href="#DejaVuSans-32"/>
     <use x="789.208984" xlink:href="#DejaVuSans-49"/>
     <use x="852.832031" xlink:href="#DejaVuSans-48"/>
     <use x="916.455078" xlink:href="#DejaVuSans-45"/>
     <use x="952.539062" xlink:href="#DejaVuSans-68"/>
    </g>
    <!-- 58 targets: 1..-1.0e-4 -->
    <g transform="translate(60.41088 49.533135)scale(0.102 -0.102)">
     <defs>
      <path d="M 10.796875 72.90625 
L 49.515625 72.90625 
L 49.515625 64.59375 
L 19.828125 64.59375 
L 19.828125 46.734375 
Q 21.96875 47.46875 24.109375 47.828125 
Q 26.265625 48.1875 28.421875 48.1875 
Q 40.625 48.1875 47.75 41.5 
Q 54.890625 34.8125 54.890625 23.390625 
Q 54.890625 11.625 47.5625 5.09375 
Q 40.234375 -1.421875 26.90625 -1.421875 
Q 22.3125 -1.421875 17.546875 -0.640625 
Q 12.796875 0.140625 7.71875 1.703125 
L 7.71875 11.625 
Q 12.109375 9.234375 16.796875 8.0625 
Q 21.484375 6.890625 26.703125 6.890625 
Q 35.15625 6.890625 40.078125 11.328125 
Q 45.015625 15.765625 45.015625 23.390625 
Q 45.015625 31 40.078125 35.4375 
Q 35.15625 39.890625 26.703125 39.890625 
Q 22.75 39.890625 18.8125 39.015625 
Q 14.890625 38.140625 10.796875 36.28125 
z
" id="DejaVuSans-53"/>
      <path d="M 11.71875 12.40625 
L 22.015625 12.40625 
L 22.015625 0 
L 11.71875 0 
z
M 11.71875 51.703125 
L 22.015625 51.703125 
L 22.015625 39.3125 
L 11.71875 39.3125 
z
" id="DejaVuSans-58"/>
     </defs>
     <use xlink:href="#DejaVuSans-53"/>
     <use x="63.623047" xlink:href="#DejaVuSans-56"/>
     <use x="127.246094" xlink:href="#DejaVuSans-32"/>
     <use x="159.033203" xlink:href="#DejaVuSans-116"/>
     <use x="198.242188" xlink:href="#DejaVuSans-97"/>
     <use x="259.521484" xlink:href="#DejaVuSans-114"/>
     <use x="298.884766" xlink:href="#DejaVuSans-103"/>
     <use x="362.361328" xlink:href="#DejaVuSans-101"/>
     <use x="423.884766" xlink:href="#DejaVuSans-116"/>
     <use x="463.09375" xlink:href="#DejaVuSans-115"/>
     <use x="515.193359" xlink:href="#DejaVuSans-58"/>
     <use x="548.884766" xlink:href="#DejaVuSans-32"/>
     <use x="580.671875" xlink:href="#DejaVuSans-49"/>
     <use x="644.294922" xlink:href="#DejaVuSans-46"/>
     <use x="676.082031" xlink:href="#DejaVuSans-46"/>
     <use x="707.869141" xlink:href="#DejaVuSans-45"/>
     <use x="743.953125" xlink:href="#DejaVuSans-49"/>
     <use x="807.576172" xlink:href="#DejaVuSans-46"/>
     <use x="839.363281" xlink:href="#DejaVuSans-48"/>
     <use x="902.986328" xlink:href="#DejaVuSans-101"/>
     <use x="964.509766" xlink:href="#DejaVuSans-45"/>
     <use x="1000.59375" xlink:href="#DejaVuSans-52"/>
    </g>
    <!-- 10 instances -->
    <g transform="translate(60.41088 60.954904)scale(0.102 -0.102)">
     <use xlink:href="#DejaVuSans-49"/>
     <use x="63.623047" xlink:href="#DejaVuSans-48"/>
     <use x="127.246094" xlink:href="#DejaVuSans-32"/>
     <use x="159.033203" xlink:href="#DejaVuSans-105"/>
     <use x="186.816406" xlink:href="#DejaVuSans-110"/>
     <use x="250.195312" xlink:href="#DejaVuSans-115"/>
     <use x="302.294922" xlink:href="#DejaVuSans-116"/>
     <use x="341.503906" xlink:href="#DejaVuSans-97"/>
     <use x="402.783203" xlink:href="#DejaVuSans-110"/>
     <use x="466.162109" xlink:href="#DejaVuSans-99"/>
     <use x="521.142578" xlink:href="#DejaVuSans-101"/>
     <use x="582.666016" xlink:href="#DejaVuSans-115"/>
    </g>
   </g>
   <g id="text_18">
    <!-- v2.4.19, hv-hash=ff0e71e8cd978373 -->
    <g style="fill:#808080;" transform="translate(104.697125 294.151352)scale(0.1 -0.1)">
     <defs>
      <path d="M 10.984375 1.515625 
L 10.984375 10.5 
Q 14.703125 8.734375 18.5 7.8125 
Q 22.3125 6.890625 25.984375 6.890625 
Q 35.75 6.890625 40.890625 13.453125 
Q 46.046875 20.015625 46.78125 33.40625 
Q 43.953125 29.203125 39.59375 26.953125 
Q 35.25 24.703125 29.984375 24.703125 
Q 19.046875 24.703125 12.671875 31.3125 
Q 6.296875 37.9375 6.296875 49.421875 
Q 6.296875 60.640625 12.9375 67.421875 
Q 19.578125 74.21875 30.609375 74.21875 
Q 43.265625 74.21875 49.921875 64.515625 
Q 56.59375 54.828125 56.59375 36.375 
Q 56.59375 19.140625 48.40625 8.859375 
Q 40.234375 -1.421875 26.421875 -1.421875 
Q 22.703125 -1.421875 18.890625 -0.6875 
Q 15.09375 0.046875 10.984375 1.515625 
z
M 30.609375 32.421875 
Q 37.25 32.421875 41.125 36.953125 
Q 45.015625 41.5 45.015625 49.421875 
Q 45.015625 57.28125 41.125 61.84375 
Q 37.25 66.40625 30.609375 66.40625 
Q 23.96875 66.40625 20.09375 61.84375 
Q 16.21875 57.28125 16.21875 49.421875 
Q 16.21875 41.5 20.09375 36.953125 
Q 23.96875 32.421875 30.609375 32.421875 
z
" id="DejaVuSans-57"/>
      <path d="M 54.890625 33.015625 
L 54.890625 0 
L 45.90625 0 
L 45.90625 32.71875 
Q 45.90625 40.484375 42.875 44.328125 
Q 39.84375 48.1875 33.796875 48.1875 
Q 26.515625 48.1875 22.3125 43.546875 
Q 18.109375 38.921875 18.109375 30.90625 
L 18.109375 0 
L 9.078125 0 
L 9.078125 75.984375 
L 18.109375 75.984375 
L 18.109375 46.1875 
Q 21.34375 51.125 25.703125 53.5625 
Q 30.078125 56 35.796875 56 
Q 45.21875 56 50.046875 50.171875 
Q 54.890625 44.34375 54.890625 33.015625 
z
" id="DejaVuSans-104"/>
      <path d="M 10.59375 45.40625 
L 73.1875 45.40625 
L 73.1875 37.203125 
L 10.59375 37.203125 
z
M 10.59375 25.484375 
L 73.1875 25.484375 
L 73.1875 17.1875 
L 10.59375 17.1875 
z
" id="DejaVuSans-61"/>
      <path d="M 8.203125 72.90625 
L 55.078125 72.90625 
L 55.078125 68.703125 
L 28.609375 0 
L 18.3125 0 
L 43.21875 64.59375 
L 8.203125 64.59375 
z
" id="DejaVuSans-55"/>
      <path d="M 40.578125 39.3125 
Q 47.65625 37.796875 51.625 33 
Q 55.609375 28.21875 55.609375 21.1875 
Q 55.609375 10.40625 48.1875 4.484375 
Q 40.765625 -1.421875 27.09375 -1.421875 
Q 22.515625 -1.421875 17.65625 -0.515625 
Q 12.796875 0.390625 7.625 2.203125 
L 7.625 11.71875 
Q 11.71875 9.328125 16.59375 8.109375 
Q 21.484375 6.890625 26.8125 6.890625 
Q 36.078125 6.890625 40.9375 10.546875 
Q 45.796875 14.203125 45.796875 21.1875 
Q 45.796875 27.640625 41.28125 31.265625 
Q 36.765625 34.90625 28.71875 34.90625 
L 20.21875 34.90625 
L 20.21875 43.015625 
L 29.109375 43.015625 
Q 36.375 43.015625 40.234375 45.921875 
Q 44.09375 48.828125 44.09375 54.296875 
Q 44.09375 59.90625 40.109375 62.90625 
Q 36.140625 65.921875 28.71875 65.921875 
Q 24.65625 65.921875 20.015625 65.03125 
Q 15.375 64.15625 9.8125 62.3125 
L 9.8125 71.09375 
Q 15.4375 72.65625 20.34375 73.4375 
Q 25.25 74.21875 29.59375 74.21875 
Q 40.828125 74.21875 47.359375 69.109375 
Q 53.90625 64.015625 53.90625 55.328125 
Q 53.90625 49.265625 50.4375 45.09375 
Q 46.96875 40.921875 40.578125 39.3125 
z
" id="DejaVuSans-51"/>
     </defs>
     <use xlink:href="#DejaVuSans-118"/>
     <use x="59.179688" xlink:href="#DejaVuSans-50"/>
     <use x="122.802734" xlink:href="#DejaVuSans-46"/>
     <use x="154.589844" xlink:href="#DejaVuSans-52"/>
     <use x="218.212891" xlink:href="#DejaVuSans-46"/>
     <use x="250" xlink:href="#DejaVuSans-49"/>
     <use x="313.623047" xlink:href="#DejaVuSans-57"/>
     <use x="377.246094" xlink:href="#DejaVuSans-44"/>
     <use x="409.033203" xlink:href="#DejaVuSans-32"/>
     <use x="440.820312" xlink:href="#DejaVuSans-104"/>
     <use x="504.199219" xlink:href="#DejaVuSans-118"/>
     <use x="560.753906" xlink:href="#DejaVuSans-45"/>
     <use x="596.837891" xlink:href="#DejaVuSans-104"/>
     <use x="660.216797" xlink:href="#DejaVuSans-97"/>
     <use x="721.496094" xlink:href="#DejaVuSans-115"/>
     <use x="773.595703" xlink:href="#DejaVuSans-104"/>
     <use x="836.974609" xlink:href="#DejaVuSans-61"/>
     <use x="920.763672" xlink:href="#DejaVuSans-102"/>
     <use x="955.96875" xlink:href="#DejaVuSans-102"/>
     <use x="991.173828" xlink:href="#DejaVuSans-48"/>
     <use x="1054.796875" xlink:href="#DejaVuSans-101"/>
     <use x="1116.320312" xlink:href="#DejaVuSans-55"/>
     <use x="1179.943359" xlink:href="#DejaVuSans-49"/>
     <use x="1243.566406" xlink:href="#DejaVuSans-101"/>
     <use x="1305.089844" xlink:href="#DejaVuSans-56"/>
     <use x="1368.712891" xlink:href="#DejaVuSans-99"/>
     <use x="1423.693359" xlink:href="#DejaVuSans-100"/>
     <use x="1487.169922" xlink:href="#DejaVuSans-57"/>
     <use x="1550.792969" xlink:href="#DejaVuSans-55"/>
     <use x="1614.416016" xlink:href="#DejaVuSans-56"/>
     <use x="1678.039062" xlink:href="#DejaVuSans-51"/>
     <use x="1741.662109" xlink:href="#DejaVuSans-55"/>
     <use x="1805.285156" xlink:href="#DejaVuSans-51"/>
    </g>
   </g>
   <g id="text_19">
    <!-- 41 Diff. Powers/Diff. Powers -->
    <g transform="translate(61.697125 21.648)scale(0.2 -0.2)">
     <defs>
      <path d="M 19.671875 64.796875 
L 19.671875 37.40625 
L 32.078125 37.40625 
Q 38.96875 37.40625 42.71875 40.96875 
Q 46.484375 44.53125 46.484375 51.125 
Q 46.484375 57.671875 42.71875 61.234375 
Q 38.96875 64.796875 32.078125 64.796875 
z
M 9.8125 72.90625 
L 32.078125 72.90625 
Q 44.34375 72.90625 50.609375 67.359375 
Q 56.890625 61.8125 56.890625 51.125 
Q 56.890625 40.328125 50.609375 34.8125 
Q 44.34375 29.296875 32.078125 29.296875 
L 19.671875 29.296875 
L 19.671875 0 
L 9.8125 0 
z
" id="DejaVuSans-80"/>
      <path d="M 4.203125 54.6875 
L 13.1875 54.6875 
L 24.421875 12.015625 
L 35.59375 54.6875 
L 46.1875 54.6875 
L 57.421875 12.015625 
L 68.609375 54.6875 
L 77.59375 54.6875 
L 63.28125 0 
L 52.6875 0 
L 40.921875 44.828125 
L 29.109375 0 
L 18.5 0 
z
" id="DejaVuSans-119"/>
     </defs>
     <use xlink:href="#DejaVuSans-52"/>
     <use x="63.623047" xlink:href="#DejaVuSans-49"/>
     <use x="127.246094" xlink:href="#DejaVuSans-32"/>
     <use x="159.033203" xlink:href="#DejaVuSans-68"/>
     <use x="236.035156" xlink:href="#DejaVuSans-105"/>
     <use x="263.818359" xlink:href="#DejaVuSans-102"/>
     <use x="299.023438" xlink:href="#DejaVuSans-102"/>
     <use x="326.978516" xlink:href="#DejaVuSans-46"/>
     <use x="358.765625" xlink:href="#DejaVuSans-32"/>
     <use x="390.552734" xlink:href="#DejaVuSans-80"/>
     <use x="447.230469" xlink:href="#DejaVuSans-111"/>
     <use x="508.412109" xlink:href="#DejaVuSans-119"/>
     <use x="590.199219" xlink:href="#DejaVuSans-101"/>
     <use x="651.722656" xlink:href="#DejaVuSans-114"/>
     <use x="692.835938" xlink:href="#DejaVuSans-115"/>
     <use x="744.935547" xlink:href="#DejaVuSans-47"/>
     <use x="778.626953" xlink:href="#DejaVuSans-68"/>
     <use x="855.628906" xlink:href="#DejaVuSans-105"/>
     <use x="883.412109" xlink:href="#DejaVuSans-102"/>
     <use x="918.617188" xlink:href="#DejaVuSans-102"/>
     <use x="946.572266" xlink:href="#DejaVuSans-46"/>
     <use x="978.359375" xlink:href="#DejaVuSans-32"/>
     <use x="1010.146484" xlink:href="#DejaVuSans-80"/>
     <use x="1066.824219" xlink:href="#DejaVuSans-111"/>
     <use x="1128.005859" xlink:href="#DejaVuSans-119"/>
     <use x="1209.792969" xlink:href="#DejaVuSans-101"/>
     <use x="1271.316406" xlink:href="#DejaVuSans-114"/>
     <use x="1312.429688" xlink:href="#DejaVuSans-115"/>
    </g>
   </g>
  </g>
 </g>
 <defs>
  <clipPath id="p8ea84c404b">
   <rect height="271.296" width="281.088" x="57.6" y="27.648"/>
  </clipPath>
 </defs>
</svg>
