<?xml version="1.0" encoding="utf-8" standalone="no"?>
<!DOCTYPE svg PUBLIC "-//W3C//DTD SVG 1.1//EN"
  "http://www.w3.org/Graphics/SVG/1.1/DTD/svg11.dtd">
<!-- Created with matplotlib (https://matplotlib.org/) -->
<svg height="345.6pt" version="1.1" viewBox="0 0 460.8 345.6" width="460.8pt" xmlns="http://www.w3.org/2000/svg" xmlns:xlink="http://www.w3.org/1999/xlink">
 <metadata>
  <rdf:RDF xmlns:cc="http://creativecommons.org/ns#" xmlns:dc="http://purl.org/dc/elements/1.1/" xmlns:rdf="http://www.w3.org/1999/02/22-rdf-syntax-ns#">
   <cc:Work>
    <dc:type rdf:resource="http://purl.org/dc/dcmitype/StillImage"/>
    <dc:date>2021-04-26T15:04:37.708007</dc:date>
    <dc:format>image/svg+xml</dc:format>
    <dc:creator>
     <cc:Agent>
      <dc:title>Matplotlib v3.3.2, https://matplotlib.org/</dc:title>
     </cc:Agent>
    </dc:creator>
   </cc:Work>
  </rdf:RDF>
 </metadata>
 <defs>
  <style type="text/css">*{stroke-linecap:butt;stroke-linejoin:round;}</style>
 </defs>
 <g id="figure_1">
  <g id="patch_1">
   <path d="M 0 345.6 
L 460.8 345.6 
L 460.8 0 
L 0 0 
z
" style="fill:#ffffff;"/>
  </g>
  <g id="axes_1">
   <g id="patch_2">
    <path d="M 57.6 298.944 
L 338.688 298.944 
L 338.688 27.648 
L 57.6 27.648 
z
" style="fill:#ffffff;"/>
   </g>
   <g id="line2d_1">
    <path d="M 60.779557 298.944 
L 60.779557 294.312795 
L 72.867545 294.312795 
L 72.867545 285.050384 
L 81.775977 285.050384 
L 81.775977 275.787974 
L 88.255778 275.787974 
L 88.255778 271.156769 
L 98.100772 271.156769 
L 98.100772 257.263153 
L 104.592361 257.263153 
L 104.592361 248.000743 
L 112.877038 248.000743 
L 112.877038 243.369538 
L 122.362027 243.369538 
L 122.362027 234.107127 
L 132.470242 234.107127 
L 132.470242 220.213512 
L 137.594091 220.213512 
L 137.594091 210.951101 
L 143.196061 210.951101 
L 143.196061 201.688691 
L 149.503579 201.688691 
L 149.503579 192.426281 
L 155.565128 192.426281 
L 155.565128 187.795075 
L 162.846111 187.795075 
L 162.846111 173.90146 
L 168.722291 173.90146 
L 168.722291 169.270255 
L 182.799311 169.270255 
L 182.799311 155.376639 
L 186.490213 155.376639 
L 186.490213 146.114229 
L 194.802008 146.114229 
L 194.802008 141.483024 
L 202.919535 141.483024 
L 202.919535 127.589408 
L 209.36842 127.589408 
L 209.36842 122.958203 
L 215.688536 122.958203 
L 215.688536 109.064587 
L 221.572495 109.064587 
L 221.572495 99.802177 
L 230.562132 99.802177 
L 230.562132 90.539766 
L 234.399953 90.539766 
L 234.399953 85.908561 
L 238.855311 85.908561 
L 238.855311 76.646151 
L 244.130556 76.646151 
L 244.130556 62.752535 
L 338.688 62.752535 
" style="fill:none;stroke:#f5deb3;stroke-linecap:square;stroke-width:4;"/>
   </g>
   <g id="line2d_2">
    <defs>
     <path d="M 0 7.778175 
L 7.778175 0 
L 0 -7.778175 
L -7.778175 0 
z
" id="m75dd209a36" style="stroke:#f5deb3;stroke-linejoin:miter;stroke-width:1.5;"/>
    </defs>
    <g>
     <use style="fill:#f5deb3;stroke:#f5deb3;stroke-linejoin:miter;stroke-width:1.5;" x="122.362027" xlink:href="#m75dd209a36" y="243.369538"/>
     <use style="fill:#f5deb3;stroke:#f5deb3;stroke-linejoin:miter;stroke-width:1.5;" x="194.802008" xlink:href="#m75dd209a36" y="146.114229"/>
     <use style="fill:#f5deb3;stroke:#f5deb3;stroke-linejoin:miter;stroke-width:1.5;" x="244.130556" xlink:href="#m75dd209a36" y="76.646151"/>
     <use style="fill:#f5deb3;stroke:#f5deb3;stroke-linejoin:miter;stroke-width:1.5;" x="244.130556" xlink:href="#m75dd209a36" y="62.752535"/>
     <use style="fill:#f5deb3;stroke:#f5deb3;stroke-linejoin:miter;stroke-width:1.5;" x="338.688" xlink:href="#m75dd209a36" y="62.752535"/>
    </g>
   </g>
   <g id="line2d_3">
    <path style="fill:none;stroke:#f5deb3;stroke-linecap:square;stroke-width:4;"/>
    <g/>
   </g>
   <g id="line2d_4">
    <path d="M 338.688 62.752535 
L 369.60768 35.706297 
" style="fill:none;stroke:#f5deb3;stroke-linecap:square;stroke-width:4;"/>
    <g>
     <use style="fill:#f5deb3;stroke:#f5deb3;stroke-linejoin:miter;stroke-width:1.5;" x="338.688" xlink:href="#m75dd209a36" y="62.752535"/>
     <use style="fill:#f5deb3;stroke:#f5deb3;stroke-linejoin:miter;stroke-width:1.5;" x="369.60768" xlink:href="#m75dd209a36" y="35.706297"/>
    </g>
   </g>
   <g id="matplotlib.axis_1">
    <g id="xtick_1">
     <g id="line2d_5">
      <path clip-path="url(#pf042f870c1)" d="M 57.6 298.944 
L 57.6 27.648 
" style="fill:none;stroke:#b0b0b0;stroke-linecap:square;stroke-width:0.8;"/>
     </g>
     <g id="line2d_6">
      <defs>
       <path d="M 0 0 
L 0 3.5 
" id="me6cc52c625" style="stroke:#000000;stroke-width:0.8;"/>
      </defs>
      <g>
       <use style="stroke:#000000;stroke-width:0.8;" x="57.6" xlink:href="#me6cc52c625" y="298.944"/>
      </g>
     </g>
     <g id="text_1">
      <!-- 0 -->
      <g transform="translate(51.2375 321.140875)scale(0.2 -0.2)">
       <defs>
        <path d="M 31.78125 66.40625 
Q 24.171875 66.40625 20.328125 58.90625 
Q 16.5 51.421875 16.5 36.375 
Q 16.5 21.390625 20.328125 13.890625 
Q 24.171875 6.390625 31.78125 6.390625 
Q 39.453125 6.390625 43.28125 13.890625 
Q 47.125 21.390625 47.125 36.375 
Q 47.125 51.421875 43.28125 58.90625 
Q 39.453125 66.40625 31.78125 66.40625 
z
M 31.78125 74.21875 
Q 44.046875 74.21875 50.515625 64.515625 
Q 56.984375 54.828125 56.984375 36.375 
Q 56.984375 17.96875 50.515625 8.265625 
Q 44.046875 -1.421875 31.78125 -1.421875 
Q 19.53125 -1.421875 13.0625 8.265625 
Q 6.59375 17.96875 6.59375 36.375 
Q 6.59375 54.828125 13.0625 64.515625 
Q 19.53125 74.21875 31.78125 74.21875 
z
" id="DejaVuSans-48"/>
       </defs>
       <use xlink:href="#DejaVuSans-48"/>
      </g>
     </g>
    </g>
    <g id="xtick_2">
     <g id="line2d_7">
      <path clip-path="url(#pf042f870c1)" d="M 137.910857 298.944 
L 137.910857 27.648 
" style="fill:none;stroke:#b0b0b0;stroke-linecap:square;stroke-width:0.8;"/>
     </g>
     <g id="line2d_8">
      <g>
       <use style="stroke:#000000;stroke-width:0.8;" x="137.910857" xlink:href="#me6cc52c625" y="298.944"/>
      </g>
     </g>
     <g id="text_2">
      <!-- 2 -->
      <g transform="translate(131.548357 321.140875)scale(0.2 -0.2)">
       <defs>
        <path d="M 19.1875 8.296875 
L 53.609375 8.296875 
L 53.609375 0 
L 7.328125 0 
L 7.328125 8.296875 
Q 12.9375 14.109375 22.625 23.890625 
Q 32.328125 33.6875 34.8125 36.53125 
Q 39.546875 41.84375 41.421875 45.53125 
Q 43.3125 49.21875 43.3125 52.78125 
Q 43.3125 58.59375 39.234375 62.25 
Q 35.15625 65.921875 28.609375 65.921875 
Q 23.96875 65.921875 18.8125 64.3125 
Q 13.671875 62.703125 7.8125 59.421875 
L 7.8125 69.390625 
Q 13.765625 71.78125 18.9375 73 
Q 24.125 74.21875 28.421875 74.21875 
Q 39.75 74.21875 46.484375 68.546875 
Q 53.21875 62.890625 53.21875 53.421875 
Q 53.21875 48.921875 51.53125 44.890625 
Q 49.859375 40.875 45.40625 35.40625 
Q 44.1875 33.984375 37.640625 27.21875 
Q 31.109375 20.453125 19.1875 8.296875 
z
" id="DejaVuSans-50"/>
       </defs>
       <use xlink:href="#DejaVuSans-50"/>
      </g>
     </g>
    </g>
    <g id="xtick_3">
     <g id="line2d_9">
      <path clip-path="url(#pf042f870c1)" d="M 218.221714 298.944 
L 218.221714 27.648 
" style="fill:none;stroke:#b0b0b0;stroke-linecap:square;stroke-width:0.8;"/>
     </g>
     <g id="line2d_10">
      <g>
       <use style="stroke:#000000;stroke-width:0.8;" x="218.221714" xlink:href="#me6cc52c625" y="298.944"/>
      </g>
     </g>
     <g id="text_3">
      <!-- 4 -->
      <g transform="translate(211.859214 321.140875)scale(0.2 -0.2)">
       <defs>
        <path d="M 37.796875 64.3125 
L 12.890625 25.390625 
L 37.796875 25.390625 
z
M 35.203125 72.90625 
L 47.609375 72.90625 
L 47.609375 25.390625 
L 58.015625 25.390625 
L 58.015625 17.1875 
L 47.609375 17.1875 
L 47.609375 0 
L 37.796875 0 
L 37.796875 17.1875 
L 4.890625 17.1875 
L 4.890625 26.703125 
z
" id="DejaVuSans-52"/>
       </defs>
       <use xlink:href="#DejaVuSans-52"/>
      </g>
     </g>
    </g>
    <g id="xtick_4">
     <g id="line2d_11">
      <path clip-path="url(#pf042f870c1)" d="M 298.532571 298.944 
L 298.532571 27.648 
" style="fill:none;stroke:#b0b0b0;stroke-linecap:square;stroke-width:0.8;"/>
     </g>
     <g id="line2d_12">
      <g>
       <use style="stroke:#000000;stroke-width:0.8;" x="298.532571" xlink:href="#me6cc52c625" y="298.944"/>
      </g>
     </g>
     <g id="text_4">
      <!-- 6 -->
      <g transform="translate(292.170071 321.140875)scale(0.2 -0.2)">
       <defs>
        <path d="M 33.015625 40.375 
Q 26.375 40.375 22.484375 35.828125 
Q 18.609375 31.296875 18.609375 23.390625 
Q 18.609375 15.53125 22.484375 10.953125 
Q 26.375 6.390625 33.015625 6.390625 
Q 39.65625 6.390625 43.53125 10.953125 
Q 47.40625 15.53125 47.40625 23.390625 
Q 47.40625 31.296875 43.53125 35.828125 
Q 39.65625 40.375 33.015625 40.375 
z
M 52.59375 71.296875 
L 52.59375 62.3125 
Q 48.875 64.0625 45.09375 64.984375 
Q 41.3125 65.921875 37.59375 65.921875 
Q 27.828125 65.921875 22.671875 59.328125 
Q 17.53125 52.734375 16.796875 39.40625 
Q 19.671875 43.65625 24.015625 45.921875 
Q 28.375 48.1875 33.59375 48.1875 
Q 44.578125 48.1875 50.953125 41.515625 
Q 57.328125 34.859375 57.328125 23.390625 
Q 57.328125 12.15625 50.6875 5.359375 
Q 44.046875 -1.421875 33.015625 -1.421875 
Q 20.359375 -1.421875 13.671875 8.265625 
Q 6.984375 17.96875 6.984375 36.375 
Q 6.984375 53.65625 15.1875 63.9375 
Q 23.390625 74.21875 37.203125 74.21875 
Q 40.921875 74.21875 44.703125 73.484375 
Q 48.484375 72.75 52.59375 71.296875 
z
" id="DejaVuSans-54"/>
       </defs>
       <use xlink:href="#DejaVuSans-54"/>
      </g>
     </g>
    </g>
    <g id="xtick_5">
     <g id="line2d_13">
      <path clip-path="url(#pf042f870c1)" d="M 97.755429 298.944 
L 97.755429 27.648 
" style="fill:none;stroke:#b0b0b0;stroke-linecap:square;stroke-width:0.8;"/>
     </g>
     <g id="line2d_14">
      <defs>
       <path d="M 0 0 
L 0 2 
" id="m67a40b9a65" style="stroke:#000000;stroke-width:0.6;"/>
      </defs>
      <g>
       <use style="stroke:#000000;stroke-width:0.6;" x="97.755429" xlink:href="#m67a40b9a65" y="298.944"/>
      </g>
     </g>
    </g>
    <g id="xtick_6">
     <g id="line2d_15">
      <path clip-path="url(#pf042f870c1)" d="M 178.066286 298.944 
L 178.066286 27.648 
" style="fill:none;stroke:#b0b0b0;stroke-linecap:square;stroke-width:0.8;"/>
     </g>
     <g id="line2d_16">
      <g>
       <use style="stroke:#000000;stroke-width:0.6;" x="178.066286" xlink:href="#m67a40b9a65" y="298.944"/>
      </g>
     </g>
    </g>
    <g id="xtick_7">
     <g id="line2d_17">
      <path clip-path="url(#pf042f870c1)" d="M 258.377143 298.944 
L 258.377143 27.648 
" style="fill:none;stroke:#b0b0b0;stroke-linecap:square;stroke-width:0.8;"/>
     </g>
     <g id="line2d_18">
      <g>
       <use style="stroke:#000000;stroke-width:0.6;" x="258.377143" xlink:href="#m67a40b9a65" y="298.944"/>
      </g>
     </g>
    </g>
    <g id="xtick_8">
     <g id="line2d_19">
      <path clip-path="url(#pf042f870c1)" d="M 338.688 298.944 
L 338.688 27.648 
" style="fill:none;stroke:#b0b0b0;stroke-linecap:square;stroke-width:0.8;"/>
     </g>
     <g id="line2d_20">
      <g>
       <use style="stroke:#000000;stroke-width:0.6;" x="338.688" xlink:href="#m67a40b9a65" y="298.944"/>
      </g>
     </g>
    </g>
    <g id="text_5">
     <!-- log10(# f-evals / dimension) -->
     <g transform="translate(77.764078 342.217594)scale(0.17 -0.17)">
      <defs>
       <path d="M 9.421875 75.984375 
L 18.40625 75.984375 
L 18.40625 0 
L 9.421875 0 
z
" id="DejaVuSans-108"/>
       <path d="M 30.609375 48.390625 
Q 23.390625 48.390625 19.1875 42.75 
Q 14.984375 37.109375 14.984375 27.296875 
Q 14.984375 17.484375 19.15625 11.84375 
Q 23.34375 6.203125 30.609375 6.203125 
Q 37.796875 6.203125 41.984375 11.859375 
Q 46.1875 17.53125 46.1875 27.296875 
Q 46.1875 37.015625 41.984375 42.703125 
Q 37.796875 48.390625 30.609375 48.390625 
z
M 30.609375 56 
Q 42.328125 56 49.015625 48.375 
Q 55.71875 40.765625 55.71875 27.296875 
Q 55.71875 13.875 49.015625 6.21875 
Q 42.328125 -1.421875 30.609375 -1.421875 
Q 18.84375 -1.421875 12.171875 6.21875 
Q 5.515625 13.875 5.515625 27.296875 
Q 5.515625 40.765625 12.171875 48.375 
Q 18.84375 56 30.609375 56 
z
" id="DejaVuSans-111"/>
       <path d="M 45.40625 27.984375 
Q 45.40625 37.75 41.375 43.109375 
Q 37.359375 48.484375 30.078125 48.484375 
Q 22.859375 48.484375 18.828125 43.109375 
Q 14.796875 37.75 14.796875 27.984375 
Q 14.796875 18.265625 18.828125 12.890625 
Q 22.859375 7.515625 30.078125 7.515625 
Q 37.359375 7.515625 41.375 12.890625 
Q 45.40625 18.265625 45.40625 27.984375 
z
M 54.390625 6.78125 
Q 54.390625 -7.171875 48.1875 -13.984375 
Q 42 -20.796875 29.203125 -20.796875 
Q 24.46875 -20.796875 20.265625 -20.09375 
Q 16.0625 -19.390625 12.109375 -17.921875 
L 12.109375 -9.1875 
Q 16.0625 -11.328125 19.921875 -12.34375 
Q 23.78125 -13.375 27.78125 -13.375 
Q 36.625 -13.375 41.015625 -8.765625 
Q 45.40625 -4.15625 45.40625 5.171875 
L 45.40625 9.625 
Q 42.625 4.78125 38.28125 2.390625 
Q 33.9375 0 27.875 0 
Q 17.828125 0 11.671875 7.65625 
Q 5.515625 15.328125 5.515625 27.984375 
Q 5.515625 40.671875 11.671875 48.328125 
Q 17.828125 56 27.875 56 
Q 33.9375 56 38.28125 53.609375 
Q 42.625 51.21875 45.40625 46.390625 
L 45.40625 54.6875 
L 54.390625 54.6875 
z
" id="DejaVuSans-103"/>
       <path d="M 12.40625 8.296875 
L 28.515625 8.296875 
L 28.515625 63.921875 
L 10.984375 60.40625 
L 10.984375 69.390625 
L 28.421875 72.90625 
L 38.28125 72.90625 
L 38.28125 8.296875 
L 54.390625 8.296875 
L 54.390625 0 
L 12.40625 0 
z
" id="DejaVuSans-49"/>
       <path d="M 31 75.875 
Q 24.46875 64.65625 21.28125 53.65625 
Q 18.109375 42.671875 18.109375 31.390625 
Q 18.109375 20.125 21.3125 9.0625 
Q 24.515625 -2 31 -13.1875 
L 23.1875 -13.1875 
Q 15.875 -1.703125 12.234375 9.375 
Q 8.59375 20.453125 8.59375 31.390625 
Q 8.59375 42.28125 12.203125 53.3125 
Q 15.828125 64.359375 23.1875 75.875 
z
" id="DejaVuSans-40"/>
       <path d="M 51.125 44 
L 36.921875 44 
L 32.8125 27.6875 
L 47.125 27.6875 
z
M 43.796875 71.78125 
L 38.71875 51.515625 
L 52.984375 51.515625 
L 58.109375 71.78125 
L 65.921875 71.78125 
L 60.890625 51.515625 
L 76.125 51.515625 
L 76.125 44 
L 58.984375 44 
L 54.984375 27.6875 
L 70.515625 27.6875 
L 70.515625 20.21875 
L 53.078125 20.21875 
L 48 0 
L 40.1875 0 
L 45.21875 20.21875 
L 30.90625 20.21875 
L 25.875 0 
L 18.015625 0 
L 23.09375 20.21875 
L 7.71875 20.21875 
L 7.71875 27.6875 
L 24.90625 27.6875 
L 29 44 
L 13.28125 44 
L 13.28125 51.515625 
L 30.90625 51.515625 
L 35.890625 71.78125 
z
" id="DejaVuSans-35"/>
       <path id="DejaVuSans-32"/>
       <path d="M 37.109375 75.984375 
L 37.109375 68.5 
L 28.515625 68.5 
Q 23.6875 68.5 21.796875 66.546875 
Q 19.921875 64.59375 19.921875 59.515625 
L 19.921875 54.6875 
L 34.71875 54.6875 
L 34.71875 47.703125 
L 19.921875 47.703125 
L 19.921875 0 
L 10.890625 0 
L 10.890625 47.703125 
L 2.296875 47.703125 
L 2.296875 54.6875 
L 10.890625 54.6875 
L 10.890625 58.5 
Q 10.890625 67.625 15.140625 71.796875 
Q 19.390625 75.984375 28.609375 75.984375 
z
" id="DejaVuSans-102"/>
       <path d="M 4.890625 31.390625 
L 31.203125 31.390625 
L 31.203125 23.390625 
L 4.890625 23.390625 
z
" id="DejaVuSans-45"/>
       <path d="M 56.203125 29.59375 
L 56.203125 25.203125 
L 14.890625 25.203125 
Q 15.484375 15.921875 20.484375 11.0625 
Q 25.484375 6.203125 34.421875 6.203125 
Q 39.59375 6.203125 44.453125 7.46875 
Q 49.3125 8.734375 54.109375 11.28125 
L 54.109375 2.78125 
Q 49.265625 0.734375 44.1875 -0.34375 
Q 39.109375 -1.421875 33.890625 -1.421875 
Q 20.796875 -1.421875 13.15625 6.1875 
Q 5.515625 13.8125 5.515625 26.8125 
Q 5.515625 40.234375 12.765625 48.109375 
Q 20.015625 56 32.328125 56 
Q 43.359375 56 49.78125 48.890625 
Q 56.203125 41.796875 56.203125 29.59375 
z
M 47.21875 32.234375 
Q 47.125 39.59375 43.09375 43.984375 
Q 39.0625 48.390625 32.421875 48.390625 
Q 24.90625 48.390625 20.390625 44.140625 
Q 15.875 39.890625 15.1875 32.171875 
z
" id="DejaVuSans-101"/>
       <path d="M 2.984375 54.6875 
L 12.5 54.6875 
L 29.59375 8.796875 
L 46.6875 54.6875 
L 56.203125 54.6875 
L 35.6875 0 
L 23.484375 0 
z
" id="DejaVuSans-118"/>
       <path d="M 34.28125 27.484375 
Q 23.390625 27.484375 19.1875 25 
Q 14.984375 22.515625 14.984375 16.5 
Q 14.984375 11.71875 18.140625 8.90625 
Q 21.296875 6.109375 26.703125 6.109375 
Q 34.1875 6.109375 38.703125 11.40625 
Q 43.21875 16.703125 43.21875 25.484375 
L 43.21875 27.484375 
z
M 52.203125 31.203125 
L 52.203125 0 
L 43.21875 0 
L 43.21875 8.296875 
Q 40.140625 3.328125 35.546875 0.953125 
Q 30.953125 -1.421875 24.3125 -1.421875 
Q 15.921875 -1.421875 10.953125 3.296875 
Q 6 8.015625 6 15.921875 
Q 6 25.140625 12.171875 29.828125 
Q 18.359375 34.515625 30.609375 34.515625 
L 43.21875 34.515625 
L 43.21875 35.40625 
Q 43.21875 41.609375 39.140625 45 
Q 35.0625 48.390625 27.6875 48.390625 
Q 23 48.390625 18.546875 47.265625 
Q 14.109375 46.140625 10.015625 43.890625 
L 10.015625 52.203125 
Q 14.9375 54.109375 19.578125 55.046875 
Q 24.21875 56 28.609375 56 
Q 40.484375 56 46.34375 49.84375 
Q 52.203125 43.703125 52.203125 31.203125 
z
" id="DejaVuSans-97"/>
       <path d="M 44.28125 53.078125 
L 44.28125 44.578125 
Q 40.484375 46.53125 36.375 47.5 
Q 32.28125 48.484375 27.875 48.484375 
Q 21.1875 48.484375 17.84375 46.4375 
Q 14.5 44.390625 14.5 40.28125 
Q 14.5 37.15625 16.890625 35.375 
Q 19.28125 33.59375 26.515625 31.984375 
L 29.59375 31.296875 
Q 39.15625 29.25 43.1875 25.515625 
Q 47.21875 21.78125 47.21875 15.09375 
Q 47.21875 7.46875 41.1875 3.015625 
Q 35.15625 -1.421875 24.609375 -1.421875 
Q 20.21875 -1.421875 15.453125 -0.5625 
Q 10.6875 0.296875 5.421875 2 
L 5.421875 11.28125 
Q 10.40625 8.6875 15.234375 7.390625 
Q 20.0625 6.109375 24.8125 6.109375 
Q 31.15625 6.109375 34.5625 8.28125 
Q 37.984375 10.453125 37.984375 14.40625 
Q 37.984375 18.0625 35.515625 20.015625 
Q 33.0625 21.96875 24.703125 23.78125 
L 21.578125 24.515625 
Q 13.234375 26.265625 9.515625 29.90625 
Q 5.8125 33.546875 5.8125 39.890625 
Q 5.8125 47.609375 11.28125 51.796875 
Q 16.75 56 26.8125 56 
Q 31.78125 56 36.171875 55.265625 
Q 40.578125 54.546875 44.28125 53.078125 
z
" id="DejaVuSans-115"/>
       <path d="M 25.390625 72.90625 
L 33.6875 72.90625 
L 8.296875 -9.28125 
L 0 -9.28125 
z
" id="DejaVuSans-47"/>
       <path d="M 45.40625 46.390625 
L 45.40625 75.984375 
L 54.390625 75.984375 
L 54.390625 0 
L 45.40625 0 
L 45.40625 8.203125 
Q 42.578125 3.328125 38.25 0.953125 
Q 33.9375 -1.421875 27.875 -1.421875 
Q 17.96875 -1.421875 11.734375 6.484375 
Q 5.515625 14.40625 5.515625 27.296875 
Q 5.515625 40.1875 11.734375 48.09375 
Q 17.96875 56 27.875 56 
Q 33.9375 56 38.25 53.625 
Q 42.578125 51.265625 45.40625 46.390625 
z
M 14.796875 27.296875 
Q 14.796875 17.390625 18.875 11.75 
Q 22.953125 6.109375 30.078125 6.109375 
Q 37.203125 6.109375 41.296875 11.75 
Q 45.40625 17.390625 45.40625 27.296875 
Q 45.40625 37.203125 41.296875 42.84375 
Q 37.203125 48.484375 30.078125 48.484375 
Q 22.953125 48.484375 18.875 42.84375 
Q 14.796875 37.203125 14.796875 27.296875 
z
" id="DejaVuSans-100"/>
       <path d="M 9.421875 54.6875 
L 18.40625 54.6875 
L 18.40625 0 
L 9.421875 0 
z
M 9.421875 75.984375 
L 18.40625 75.984375 
L 18.40625 64.59375 
L 9.421875 64.59375 
z
" id="DejaVuSans-105"/>
       <path d="M 52 44.1875 
Q 55.375 50.25 60.0625 53.125 
Q 64.75 56 71.09375 56 
Q 79.640625 56 84.28125 50.015625 
Q 88.921875 44.046875 88.921875 33.015625 
L 88.921875 0 
L 79.890625 0 
L 79.890625 32.71875 
Q 79.890625 40.578125 77.09375 44.375 
Q 74.3125 48.1875 68.609375 48.1875 
Q 61.625 48.1875 57.5625 43.546875 
Q 53.515625 38.921875 53.515625 30.90625 
L 53.515625 0 
L 44.484375 0 
L 44.484375 32.71875 
Q 44.484375 40.625 41.703125 44.40625 
Q 38.921875 48.1875 33.109375 48.1875 
Q 26.21875 48.1875 22.15625 43.53125 
Q 18.109375 38.875 18.109375 30.90625 
L 18.109375 0 
L 9.078125 0 
L 9.078125 54.6875 
L 18.109375 54.6875 
L 18.109375 46.1875 
Q 21.1875 51.21875 25.484375 53.609375 
Q 29.78125 56 35.6875 56 
Q 41.65625 56 45.828125 52.96875 
Q 50 49.953125 52 44.1875 
z
" id="DejaVuSans-109"/>
       <path d="M 54.890625 33.015625 
L 54.890625 0 
L 45.90625 0 
L 45.90625 32.71875 
Q 45.90625 40.484375 42.875 44.328125 
Q 39.84375 48.1875 33.796875 48.1875 
Q 26.515625 48.1875 22.3125 43.546875 
Q 18.109375 38.921875 18.109375 30.90625 
L 18.109375 0 
L 9.078125 0 
L 9.078125 54.6875 
L 18.109375 54.6875 
L 18.109375 46.1875 
Q 21.34375 51.125 25.703125 53.5625 
Q 30.078125 56 35.796875 56 
Q 45.21875 56 50.046875 50.171875 
Q 54.890625 44.34375 54.890625 33.015625 
z
" id="DejaVuSans-110"/>
       <path d="M 8.015625 75.875 
L 15.828125 75.875 
Q 23.140625 64.359375 26.78125 53.3125 
Q 30.421875 42.28125 30.421875 31.390625 
Q 30.421875 20.453125 26.78125 9.375 
Q 23.140625 -1.703125 15.828125 -13.1875 
L 8.015625 -13.1875 
Q 14.5 -2 17.703125 9.0625 
Q 20.90625 20.125 20.90625 31.390625 
Q 20.90625 42.671875 17.703125 53.65625 
Q 14.5 64.65625 8.015625 75.875 
z
" id="DejaVuSans-41"/>
      </defs>
      <use xlink:href="#DejaVuSans-108"/>
      <use x="27.783203" xlink:href="#DejaVuSans-111"/>
      <use x="88.964844" xlink:href="#DejaVuSans-103"/>
      <use x="152.441406" xlink:href="#DejaVuSans-49"/>
      <use x="216.064453" xlink:href="#DejaVuSans-48"/>
      <use x="279.6875" xlink:href="#DejaVuSans-40"/>
      <use x="318.701172" xlink:href="#DejaVuSans-35"/>
      <use x="402.490234" xlink:href="#DejaVuSans-32"/>
      <use x="434.277344" xlink:href="#DejaVuSans-102"/>
      <use x="463.982422" xlink:href="#DejaVuSans-45"/>
      <use x="500.066406" xlink:href="#DejaVuSans-101"/>
      <use x="561.589844" xlink:href="#DejaVuSans-118"/>
      <use x="620.769531" xlink:href="#DejaVuSans-97"/>
      <use x="682.048828" xlink:href="#DejaVuSans-108"/>
      <use x="709.832031" xlink:href="#DejaVuSans-115"/>
      <use x="761.931641" xlink:href="#DejaVuSans-32"/>
      <use x="793.71875" xlink:href="#DejaVuSans-47"/>
      <use x="827.410156" xlink:href="#DejaVuSans-32"/>
      <use x="859.197266" xlink:href="#DejaVuSans-100"/>
      <use x="922.673828" xlink:href="#DejaVuSans-105"/>
      <use x="950.457031" xlink:href="#DejaVuSans-109"/>
      <use x="1047.869141" xlink:href="#DejaVuSans-101"/>
      <use x="1109.392578" xlink:href="#DejaVuSans-110"/>
      <use x="1172.771484" xlink:href="#DejaVuSans-115"/>
      <use x="1224.871094" xlink:href="#DejaVuSans-105"/>
      <use x="1252.654297" xlink:href="#DejaVuSans-111"/>
      <use x="1313.835938" xlink:href="#DejaVuSans-110"/>
      <use x="1377.214844" xlink:href="#DejaVuSans-41"/>
     </g>
    </g>
   </g>
   <g id="matplotlib.axis_2">
    <g id="ytick_1">
     <g id="line2d_21">
      <path clip-path="url(#pf042f870c1)" d="M 57.6 298.944 
L 338.688 298.944 
" style="fill:none;stroke:#b0b0b0;stroke-linecap:square;stroke-width:0.8;"/>
     </g>
     <g id="line2d_22">
      <defs>
       <path d="M 0 0 
L -3.5 0 
" id="m239a838282" style="stroke:#000000;stroke-width:0.8;"/>
      </defs>
      <g>
       <use style="stroke:#000000;stroke-width:0.8;" x="57.6" xlink:href="#m239a838282" y="298.944"/>
      </g>
     </g>
     <g id="text_6">
      <!-- 0.0 -->
      <g transform="translate(25.155 305.02275)scale(0.16 -0.16)">
       <defs>
        <path d="M 10.6875 12.40625 
L 21 12.40625 
L 21 0 
L 10.6875 0 
z
" id="DejaVuSans-46"/>
       </defs>
       <use xlink:href="#DejaVuSans-48"/>
       <use x="63.623047" xlink:href="#DejaVuSans-46"/>
       <use x="95.410156" xlink:href="#DejaVuSans-48"/>
      </g>
     </g>
    </g>
    <g id="ytick_2">
     <g id="line2d_23">
      <path clip-path="url(#pf042f870c1)" d="M 57.6 245.22202 
L 338.688 245.22202 
" style="fill:none;stroke:#b0b0b0;stroke-linecap:square;stroke-width:0.8;"/>
     </g>
     <g id="line2d_24">
      <g>
       <use style="stroke:#000000;stroke-width:0.8;" x="57.6" xlink:href="#m239a838282" y="245.22202"/>
      </g>
     </g>
     <g id="text_7">
      <!-- 0.2 -->
      <g transform="translate(25.155 251.30077)scale(0.16 -0.16)">
       <use xlink:href="#DejaVuSans-48"/>
       <use x="63.623047" xlink:href="#DejaVuSans-46"/>
       <use x="95.410156" xlink:href="#DejaVuSans-50"/>
      </g>
     </g>
    </g>
    <g id="ytick_3">
     <g id="line2d_25">
      <path clip-path="url(#pf042f870c1)" d="M 57.6 191.50004 
L 338.688 191.50004 
" style="fill:none;stroke:#b0b0b0;stroke-linecap:square;stroke-width:0.8;"/>
     </g>
     <g id="line2d_26">
      <g>
       <use style="stroke:#000000;stroke-width:0.8;" x="57.6" xlink:href="#m239a838282" y="191.50004"/>
      </g>
     </g>
     <g id="text_8">
      <!-- 0.4 -->
      <g transform="translate(25.155 197.57879)scale(0.16 -0.16)">
       <use xlink:href="#DejaVuSans-48"/>
       <use x="63.623047" xlink:href="#DejaVuSans-46"/>
       <use x="95.410156" xlink:href="#DejaVuSans-52"/>
      </g>
     </g>
    </g>
    <g id="ytick_4">
     <g id="line2d_27">
      <path clip-path="url(#pf042f870c1)" d="M 57.6 137.778059 
L 338.688 137.778059 
" style="fill:none;stroke:#b0b0b0;stroke-linecap:square;stroke-width:0.8;"/>
     </g>
     <g id="line2d_28">
      <g>
       <use style="stroke:#000000;stroke-width:0.8;" x="57.6" xlink:href="#m239a838282" y="137.778059"/>
      </g>
     </g>
     <g id="text_9">
      <!-- 0.6 -->
      <g transform="translate(25.155 143.856809)scale(0.16 -0.16)">
       <use xlink:href="#DejaVuSans-48"/>
       <use x="63.623047" xlink:href="#DejaVuSans-46"/>
       <use x="95.410156" xlink:href="#DejaVuSans-54"/>
      </g>
     </g>
    </g>
    <g id="ytick_5">
     <g id="line2d_29">
      <path clip-path="url(#pf042f870c1)" d="M 57.6 84.056079 
L 338.688 84.056079 
" style="fill:none;stroke:#b0b0b0;stroke-linecap:square;stroke-width:0.8;"/>
     </g>
     <g id="line2d_30">
      <g>
       <use style="stroke:#000000;stroke-width:0.8;" x="57.6" xlink:href="#m239a838282" y="84.056079"/>
      </g>
     </g>
     <g id="text_10">
      <!-- 0.8 -->
      <g transform="translate(25.155 90.134829)scale(0.16 -0.16)">
       <defs>
        <path d="M 31.78125 34.625 
Q 24.75 34.625 20.71875 30.859375 
Q 16.703125 27.09375 16.703125 20.515625 
Q 16.703125 13.921875 20.71875 10.15625 
Q 24.75 6.390625 31.78125 6.390625 
Q 38.8125 6.390625 42.859375 10.171875 
Q 46.921875 13.96875 46.921875 20.515625 
Q 46.921875 27.09375 42.890625 30.859375 
Q 38.875 34.625 31.78125 34.625 
z
M 21.921875 38.8125 
Q 15.578125 40.375 12.03125 44.71875 
Q 8.5 49.078125 8.5 55.328125 
Q 8.5 64.0625 14.71875 69.140625 
Q 20.953125 74.21875 31.78125 74.21875 
Q 42.671875 74.21875 48.875 69.140625 
Q 55.078125 64.0625 55.078125 55.328125 
Q 55.078125 49.078125 51.53125 44.71875 
Q 48 40.375 41.703125 38.8125 
Q 48.828125 37.15625 52.796875 32.3125 
Q 56.78125 27.484375 56.78125 20.515625 
Q 56.78125 9.90625 50.3125 4.234375 
Q 43.84375 -1.421875 31.78125 -1.421875 
Q 19.734375 -1.421875 13.25 4.234375 
Q 6.78125 9.90625 6.78125 20.515625 
Q 6.78125 27.484375 10.78125 32.3125 
Q 14.796875 37.15625 21.921875 38.8125 
z
M 18.3125 54.390625 
Q 18.3125 48.734375 21.84375 45.5625 
Q 25.390625 42.390625 31.78125 42.390625 
Q 38.140625 42.390625 41.71875 45.5625 
Q 45.3125 48.734375 45.3125 54.390625 
Q 45.3125 60.0625 41.71875 63.234375 
Q 38.140625 66.40625 31.78125 66.40625 
Q 25.390625 66.40625 21.84375 63.234375 
Q 18.3125 60.0625 18.3125 54.390625 
z
" id="DejaVuSans-56"/>
       </defs>
       <use xlink:href="#DejaVuSans-48"/>
       <use x="63.623047" xlink:href="#DejaVuSans-46"/>
       <use x="95.410156" xlink:href="#DejaVuSans-56"/>
      </g>
     </g>
    </g>
    <g id="ytick_6">
     <g id="line2d_31">
      <path clip-path="url(#pf042f870c1)" d="M 57.6 30.334099 
L 338.688 30.334099 
" style="fill:none;stroke:#b0b0b0;stroke-linecap:square;stroke-width:0.8;"/>
     </g>
     <g id="line2d_32">
      <g>
       <use style="stroke:#000000;stroke-width:0.8;" x="57.6" xlink:href="#m239a838282" y="30.334099"/>
      </g>
     </g>
     <g id="text_11">
      <!-- 1.0 -->
      <g transform="translate(25.155 36.412849)scale(0.16 -0.16)">
       <use xlink:href="#DejaVuSans-49"/>
       <use x="63.623047" xlink:href="#DejaVuSans-46"/>
       <use x="95.410156" xlink:href="#DejaVuSans-48"/>
      </g>
     </g>
    </g>
    <g id="text_12">
     <!-- Fraction of function,target pairs -->
     <g transform="translate(17.619531 297.681)rotate(-90)scale(0.17 -0.17)">
      <defs>
       <path d="M 9.8125 72.90625 
L 51.703125 72.90625 
L 51.703125 64.59375 
L 19.671875 64.59375 
L 19.671875 43.109375 
L 48.578125 43.109375 
L 48.578125 34.8125 
L 19.671875 34.8125 
L 19.671875 0 
L 9.8125 0 
z
" id="DejaVuSans-70"/>
       <path d="M 41.109375 46.296875 
Q 39.59375 47.171875 37.8125 47.578125 
Q 36.03125 48 33.890625 48 
Q 26.265625 48 22.1875 43.046875 
Q 18.109375 38.09375 18.109375 28.8125 
L 18.109375 0 
L 9.078125 0 
L 9.078125 54.6875 
L 18.109375 54.6875 
L 18.109375 46.1875 
Q 20.953125 51.171875 25.484375 53.578125 
Q 30.03125 56 36.53125 56 
Q 37.453125 56 38.578125 55.875 
Q 39.703125 55.765625 41.0625 55.515625 
z
" id="DejaVuSans-114"/>
       <path d="M 48.78125 52.59375 
L 48.78125 44.1875 
Q 44.96875 46.296875 41.140625 47.34375 
Q 37.3125 48.390625 33.40625 48.390625 
Q 24.65625 48.390625 19.8125 42.84375 
Q 14.984375 37.3125 14.984375 27.296875 
Q 14.984375 17.28125 19.8125 11.734375 
Q 24.65625 6.203125 33.40625 6.203125 
Q 37.3125 6.203125 41.140625 7.25 
Q 44.96875 8.296875 48.78125 10.40625 
L 48.78125 2.09375 
Q 45.015625 0.34375 40.984375 -0.53125 
Q 36.96875 -1.421875 32.421875 -1.421875 
Q 20.0625 -1.421875 12.78125 6.34375 
Q 5.515625 14.109375 5.515625 27.296875 
Q 5.515625 40.671875 12.859375 48.328125 
Q 20.21875 56 33.015625 56 
Q 37.15625 56 41.109375 55.140625 
Q 45.0625 54.296875 48.78125 52.59375 
z
" id="DejaVuSans-99"/>
       <path d="M 18.3125 70.21875 
L 18.3125 54.6875 
L 36.8125 54.6875 
L 36.8125 47.703125 
L 18.3125 47.703125 
L 18.3125 18.015625 
Q 18.3125 11.328125 20.140625 9.421875 
Q 21.96875 7.515625 27.59375 7.515625 
L 36.8125 7.515625 
L 36.8125 0 
L 27.59375 0 
Q 17.1875 0 13.234375 3.875 
Q 9.28125 7.765625 9.28125 18.015625 
L 9.28125 47.703125 
L 2.6875 47.703125 
L 2.6875 54.6875 
L 9.28125 54.6875 
L 9.28125 70.21875 
z
" id="DejaVuSans-116"/>
       <path d="M 8.5 21.578125 
L 8.5 54.6875 
L 17.484375 54.6875 
L 17.484375 21.921875 
Q 17.484375 14.15625 20.5 10.265625 
Q 23.53125 6.390625 29.59375 6.390625 
Q 36.859375 6.390625 41.078125 11.03125 
Q 45.3125 15.671875 45.3125 23.6875 
L 45.3125 54.6875 
L 54.296875 54.6875 
L 54.296875 0 
L 45.3125 0 
L 45.3125 8.40625 
Q 42.046875 3.421875 37.71875 1 
Q 33.40625 -1.421875 27.6875 -1.421875 
Q 18.265625 -1.421875 13.375 4.4375 
Q 8.5 10.296875 8.5 21.578125 
z
M 31.109375 56 
z
" id="DejaVuSans-117"/>
       <path d="M 11.71875 12.40625 
L 22.015625 12.40625 
L 22.015625 4 
L 14.015625 -11.625 
L 7.71875 -11.625 
L 11.71875 4 
z
" id="DejaVuSans-44"/>
       <path d="M 18.109375 8.203125 
L 18.109375 -20.796875 
L 9.078125 -20.796875 
L 9.078125 54.6875 
L 18.109375 54.6875 
L 18.109375 46.390625 
Q 20.953125 51.265625 25.265625 53.625 
Q 29.59375 56 35.59375 56 
Q 45.5625 56 51.78125 48.09375 
Q 58.015625 40.1875 58.015625 27.296875 
Q 58.015625 14.40625 51.78125 6.484375 
Q 45.5625 -1.421875 35.59375 -1.421875 
Q 29.59375 -1.421875 25.265625 0.953125 
Q 20.953125 3.328125 18.109375 8.203125 
z
M 48.6875 27.296875 
Q 48.6875 37.203125 44.609375 42.84375 
Q 40.53125 48.484375 33.40625 48.484375 
Q 26.265625 48.484375 22.1875 42.84375 
Q 18.109375 37.203125 18.109375 27.296875 
Q 18.109375 17.390625 22.1875 11.75 
Q 26.265625 6.109375 33.40625 6.109375 
Q 40.53125 6.109375 44.609375 11.75 
Q 48.6875 17.390625 48.6875 27.296875 
z
" id="DejaVuSans-112"/>
      </defs>
      <use xlink:href="#DejaVuSans-70"/>
      <use x="50.269531" xlink:href="#DejaVuSans-114"/>
      <use x="91.382812" xlink:href="#DejaVuSans-97"/>
      <use x="152.662109" xlink:href="#DejaVuSans-99"/>
      <use x="207.642578" xlink:href="#DejaVuSans-116"/>
      <use x="246.851562" xlink:href="#DejaVuSans-105"/>
      <use x="274.634766" xlink:href="#DejaVuSans-111"/>
      <use x="335.816406" xlink:href="#DejaVuSans-110"/>
      <use x="399.195312" xlink:href="#DejaVuSans-32"/>
      <use x="430.982422" xlink:href="#DejaVuSans-111"/>
      <use x="492.164062" xlink:href="#DejaVuSans-102"/>
      <use x="527.369141" xlink:href="#DejaVuSans-32"/>
      <use x="559.15625" xlink:href="#DejaVuSans-102"/>
      <use x="594.361328" xlink:href="#DejaVuSans-117"/>
      <use x="657.740234" xlink:href="#DejaVuSans-110"/>
      <use x="721.119141" xlink:href="#DejaVuSans-99"/>
      <use x="776.099609" xlink:href="#DejaVuSans-116"/>
      <use x="815.308594" xlink:href="#DejaVuSans-105"/>
      <use x="843.091797" xlink:href="#DejaVuSans-111"/>
      <use x="904.273438" xlink:href="#DejaVuSans-110"/>
      <use x="967.652344" xlink:href="#DejaVuSans-44"/>
      <use x="999.439453" xlink:href="#DejaVuSans-116"/>
      <use x="1038.648438" xlink:href="#DejaVuSans-97"/>
      <use x="1099.927734" xlink:href="#DejaVuSans-114"/>
      <use x="1139.291016" xlink:href="#DejaVuSans-103"/>
      <use x="1202.767578" xlink:href="#DejaVuSans-101"/>
      <use x="1264.291016" xlink:href="#DejaVuSans-116"/>
      <use x="1303.5" xlink:href="#DejaVuSans-32"/>
      <use x="1335.287109" xlink:href="#DejaVuSans-112"/>
      <use x="1398.763672" xlink:href="#DejaVuSans-97"/>
      <use x="1460.042969" xlink:href="#DejaVuSans-105"/>
      <use x="1487.826172" xlink:href="#DejaVuSans-114"/>
      <use x="1528.939453" xlink:href="#DejaVuSans-115"/>
     </g>
    </g>
   </g>
   <g id="line2d_33">
    <defs>
     <path d="M 0 1.5 
C 0.397805 1.5 0.77937 1.341951 1.06066 1.06066 
C 1.341951 0.77937 1.5 0.397805 1.5 0 
C 1.5 -0.397805 1.341951 -0.77937 1.06066 -1.06066 
C 0.77937 -1.341951 0.397805 -1.5 0 -1.5 
C -0.397805 -1.5 -0.77937 -1.341951 -1.06066 -1.06066 
C -1.341951 -0.77937 -1.5 -0.397805 -1.5 0 
C -1.5 0.397805 -1.341951 0.77937 -1.06066 1.06066 
C -0.77937 1.341951 -0.397805 1.5 0 1.5 
z
" id="m6fce4c711b" style="stroke:#f5deb3;"/>
    </defs>
    <g>
     <use style="fill:#f5deb3;stroke:#f5deb3;" x="244.130556" xlink:href="#m6fce4c711b" y="62.752535"/>
     <use style="fill:#f5deb3;stroke:#f5deb3;" x="244.130556" xlink:href="#m6fce4c711b" y="62.752535"/>
    </g>
   </g>
   <g id="line2d_34">
    <defs>
     <path d="M 0 1.5 
C 0.397805 1.5 0.77937 1.341951 1.06066 1.06066 
C 1.341951 0.77937 1.5 0.397805 1.5 0 
C 1.5 -0.397805 1.341951 -0.77937 1.06066 -1.06066 
C 0.77937 -1.341951 0.397805 -1.5 0 -1.5 
C -0.397805 -1.5 -0.77937 -1.341951 -1.06066 -1.06066 
C -1.341951 -0.77937 -1.5 -0.397805 -1.5 0 
C -1.5 0.397805 -1.341951 0.77937 -1.06066 1.06066 
C -0.77937 1.341951 -0.397805 1.5 0 1.5 
z
" id="mb3aaf43c16" style="stroke:#000080;"/>
    </defs>
    <g>
     <use style="fill:#000080;stroke:#000080;" x="258.246804" xlink:href="#mb3aaf43c16" y="93.78161"/>
     <use style="fill:#000080;stroke:#000080;" x="258.246804" xlink:href="#mb3aaf43c16" y="93.78161"/>
    </g>
   </g>
   <g id="line2d_35">
    <path d="M 29.53256 298.944 
L 29.53256 291.070951 
L 41.620548 291.070951 
L 41.620548 290.607831 
L 48.691568 290.607831 
L 48.691568 289.218469 
L 57.6 289.218469 
L 57.6 288.755349 
L 69.687988 288.755349 
L 69.687988 287.365987 
L 74.263433 287.365987 
L 74.263433 286.439746 
L 75.555822 286.439746 
L 75.555822 285.976625 
L 76.759008 285.976625 
L 76.759008 285.050384 
L 78.941764 285.050384 
L 78.941764 284.587264 
L 82.626842 284.587264 
L 82.626842 283.661023 
L 85.66744 283.661023 
L 85.66744 283.197902 
L 88.255778 283.197902 
L 88.255778 282.734782 
L 90.509138 282.734782 
L 90.509138 281.34542 
L 92.969447 281.34542 
L 92.969447 280.419179 
L 94.294587 280.419179 
L 94.294587 279.956059 
L 97.403108 279.956059 
L 97.403108 279.029818 
L 98.100772 279.029818 
L 98.100772 278.566697 
L 101.223245 278.566697 
L 101.223245 278.103577 
L 106.168594 278.103577 
L 106.168594 277.177336 
L 107.811151 277.177336 
L 107.811151 275.787974 
L 112.280765 275.787974 
L 112.280765 275.324854 
L 116.323218 275.324854 
L 116.323218 274.861733 
L 119.80089 274.861733 
L 119.80089 274.398612 
L 120.093994 274.398612 
L 120.093994 273.935492 
L 120.286695 273.935492 
L 120.286695 273.472371 
L 121.84399 273.472371 
L 121.84399 273.009251 
L 122.699028 273.009251 
L 122.699028 272.54613 
L 124.139788 272.54613 
L 124.139788 271.619889 
L 125.110962 271.619889 
L 125.110962 271.156769 
L 126.50685 271.156769 
L 126.50685 270.230528 
L 127.861412 270.230528 
L 127.861412 269.304287 
L 128.411207 269.304287 
L 128.411207 268.841166 
L 129.46138 268.841166 
L 129.46138 267.914925 
L 131.839545 267.914925 
L 131.839545 267.451805 
L 135.641855 267.451805 
L 135.641855 266.988684 
L 136.227776 266.988684 
L 136.227776 266.062443 
L 136.494612 266.062443 
L 136.494612 265.136202 
L 140.915143 265.136202 
L 140.915143 264.673082 
L 142.593291 264.673082 
L 142.593291 264.209961 
L 148.025265 264.209961 
L 148.025265 263.746841 
L 148.411533 263.746841 
L 148.411533 263.28372 
L 149.85877 263.28372 
L 149.85877 262.8206 
L 150.783149 262.8206 
L 150.783149 261.431238 
L 151.469695 261.431238 
L 151.469695 260.504997 
L 152.222586 260.504997 
L 152.222586 259.578756 
L 154.221969 259.578756 
L 154.221969 259.115635 
L 154.906477 259.115635 
L 154.906477 258.189394 
L 155.115803 258.189394 
L 155.115803 257.726274 
L 155.34833 257.726274 
L 155.373976 256.800033 
L 157.116308 256.800033 
L 157.116308 255.410671 
L 161.6095 255.410671 
L 161.6095 254.947551 
L 162.00818 254.947551 
L 162.00818 254.48443 
L 162.320689 254.48443 
L 162.320689 253.558189 
L 164.094319 253.558189 
L 164.164122 252.168828 
L 167.203791 252.168828 
L 167.203791 251.705707 
L 168.238843 251.705707 
L 168.238843 250.779466 
L 168.710367 250.779466 
L 168.710367 249.853225 
L 169.099626 249.853225 
L 169.099626 249.390104 
L 169.463258 249.390104 
L 169.463258 248.463863 
L 170.703344 248.463863 
L 170.703344 247.537622 
L 171.569909 247.537622 
L 171.569909 246.611381 
L 173.280304 246.611381 
L 173.280304 245.68514 
L 173.403777 245.68514 
L 173.403777 245.22202 
L 174.434469 245.22202 
L 174.434469 244.758899 
L 175.77741 244.758899 
L 175.77741 243.832658 
L 177.020586 243.832658 
L 177.020586 242.906417 
L 177.212107 242.906417 
L 177.212107 241.980176 
L 177.416034 241.980176 
L 177.416034 241.517056 
L 178.010391 241.517056 
L 178.055819 240.127694 
L 179.033027 240.127694 
L 179.033027 239.664574 
L 179.239683 239.664574 
L 179.239683 238.738333 
L 179.86424 238.738333 
L 179.86424 238.275212 
L 179.980262 238.275212 
L 179.980262 237.812091 
L 180.810279 237.812091 
L 180.837079 236.42273 
L 181.82611 236.42273 
L 181.82611 235.959609 
L 182.496245 235.959609 
L 182.577219 235.033368 
L 182.695307 235.033368 
L 182.73805 234.107127 
L 183.20144 234.107127 
L 183.20144 233.644007 
L 184.132295 233.644007 
L 184.132295 233.180886 
L 184.966732 233.180886 
L 184.966732 232.717766 
L 185.17679 232.717766 
L 185.280878 230.865284 
L 185.487208 230.865284 
L 185.487208 230.402163 
L 186.92372 230.402163 
L 186.92372 229.475922 
L 188.314925 229.475922 
L 188.314925 228.549681 
L 188.673601 228.549681 
L 188.673601 228.086561 
L 189.254248 228.086561 
L 189.254248 227.62344 
L 190.227366 227.62344 
L 190.281119 226.697199 
L 190.437959 226.697199 
L 190.516707 224.844717 
L 190.772735 224.844717 
L 190.772735 223.918476 
L 191.265604 223.918476 
L 191.265604 222.992235 
L 192.336517 222.992235 
L 192.336517 222.529114 
L 193.052546 222.529114 
L 193.148282 220.676632 
L 193.514551 220.676632 
L 193.514551 219.750391 
L 193.974439 219.750391 
L 193.974439 219.287271 
L 194.444343 219.287271 
L 194.492005 217.434789 
L 194.998614 217.434789 
L 194.998614 216.508548 
L 196.018371 216.508548 
L 196.018371 216.045427 
L 196.133859 216.045427 
L 196.133859 215.582307 
L 196.329552 215.582307 
L 196.329552 214.656066 
L 196.51581 214.656066 
L 196.51581 214.192945 
L 196.786155 214.192945 
L 196.793307 212.803583 
L 197.39767 212.803583 
L 197.39767 211.877342 
L 197.521556 211.877342 
L 197.521556 211.414222 
L 197.680852 211.414222 
L 197.680852 210.487981 
L 197.799375 210.487981 
L 197.799375 209.56174 
L 197.968424 209.56174 
L 197.968424 208.635499 
L 198.080588 208.635499 
L 198.080588 208.172378 
L 198.306054 208.172378 
L 198.306054 207.709258 
L 198.7143 207.709258 
L 198.76227 206.783017 
L 199.300002 206.783017 
L 199.300002 206.319896 
L 199.512372 206.319896 
L 199.512372 205.393655 
L 199.872666 205.393655 
L 199.872666 204.930535 
L 200.276492 204.930535 
L 200.367996 203.541173 
L 200.55534 203.541173 
L 200.657815 202.614932 
L 200.769181 202.614932 
L 200.769181 202.151812 
L 201.207669 202.151812 
L 201.207669 201.688691 
L 201.332134 201.688691 
L 201.426502 200.299329 
L 201.653449 200.299329 
L 201.653449 199.373088 
L 201.965408 199.373088 
L 201.965408 198.446847 
L 202.294502 198.446847 
L 202.294502 197.983727 
L 202.537953 197.983727 
L 202.537953 197.057486 
L 202.699236 197.057486 
L 202.699236 196.594365 
L 203.18176 196.594365 
L 203.18176 195.668124 
L 203.665763 195.668124 
L 203.665763 194.741883 
L 203.952691 194.741883 
L 204.057512 193.352522 
L 204.206951 193.352522 
L 204.297864 191.96316 
L 204.471376 191.96316 
L 204.471376 191.036919 
L 204.725045 191.036919 
L 204.725045 190.573799 
L 205.046498 190.573799 
L 205.148656 188.721316 
L 205.266355 188.721316 
L 205.271486 187.331955 
L 205.422546 187.331955 
L 205.490714 186.405714 
L 205.78781 186.405714 
L 205.78781 185.942593 
L 206.032985 185.942593 
L 206.032985 185.016352 
L 206.274069 185.016352 
L 206.274069 184.553232 
L 206.400244 184.553232 
L 206.416037 183.626991 
L 206.533695 183.626991 
L 206.584752 182.237629 
L 206.722875 182.237629 
L 206.722875 181.774509 
L 206.876632 181.774509 
L 206.876632 180.848268 
L 207.254217 180.848268 
L 207.31951 179.922027 
L 207.914053 179.922027 
L 207.914053 179.458906 
L 208.143075 179.458906 
L 208.166682 178.069545 
L 208.267583 178.069545 
L 208.317507 177.143304 
L 208.492039 177.143304 
L 208.492039 176.680183 
L 208.921174 176.680183 
L 208.921174 176.217062 
L 209.249805 176.217062 
L 209.249805 175.290821 
L 209.375372 175.290821 
L 209.375372 174.827701 
L 209.489111 174.827701 
L 209.489111 174.36458 
L 210.136445 174.36458 
L 210.218871 172.975219 
L 210.278374 172.975219 
L 210.333837 171.585857 
L 210.571799 171.585857 
L 210.571799 171.122737 
L 210.877914 171.122737 
L 210.877914 170.196496 
L 210.995494 170.196496 
L 211.105468 169.270255 
L 211.130628 169.270255 
L 211.237673 167.417773 
L 211.301587 167.417773 
L 211.301587 166.954652 
L 211.593731 166.954652 
L 211.631435 165.565291 
L 212.21057 165.565291 
L 212.274946 164.63905 
L 212.342018 164.63905 
L 212.342018 163.712808 
L 212.601977 163.712808 
L 212.673559 162.786567 
L 212.729562 162.786567 
L 212.729562 162.323447 
L 212.937161 162.323447 
L 212.980082 161.397206 
L 213.097923 161.397206 
L 213.186134 160.007844 
L 213.470577 160.007844 
L 213.553281 159.081603 
L 213.865011 159.081603 
L 213.884255 157.692242 
L 214.253349 157.692242 
L 214.356826 156.30288 
L 214.36988 156.30288 
L 214.479155 155.376639 
L 214.484342 155.376639 
L 214.484342 154.450398 
L 214.613507 154.450398 
L 214.613507 153.987278 
L 214.843619 153.987278 
L 214.843619 153.061037 
L 215.352176 153.061037 
L 215.352176 152.597916 
L 215.491008 152.597916 
L 215.491008 152.134795 
L 215.604039 152.134795 
L 215.702244 151.208554 
L 215.749331 151.208554 
L 215.761785 149.356072 
L 216.128205 149.356072 
L 216.157283 148.429831 
L 216.550921 148.429831 
L 216.644713 147.50359 
L 216.802064 147.50359 
L 216.850051 146.114229 
L 216.943002 146.114229 
L 217.046657 144.261747 
L 217.945391 144.261747 
L 217.987862 143.335506 
L 218.270824 143.335506 
L 218.30314 141.483024 
L 219.035003 141.483024 
L 219.09648 140.556783 
L 219.324861 140.556783 
L 219.331408 138.7043 
L 219.545442 138.7043 
L 219.558045 137.778059 
L 219.875609 137.778059 
L 219.875609 137.314939 
L 220.194036 137.314939 
L 220.223292 136.388698 
L 220.440235 136.388698 
L 220.477663 134.999336 
L 220.565397 134.999336 
L 220.565397 134.536216 
L 220.741967 134.536216 
L 220.741967 134.073095 
L 221.27906 134.073095 
L 221.27906 133.146854 
L 221.394003 133.146854 
L 221.471758 132.220613 
L 221.648887 132.220613 
L 221.680665 130.831252 
L 221.837563 130.831252 
L 221.837563 129.905011 
L 222.058122 129.905011 
L 222.058122 128.97877 
L 222.170285 128.97877 
L 222.203349 127.126287 
L 222.488859 127.126287 
L 222.488859 126.663167 
L 222.864371 126.663167 
L 222.864371 126.200046 
L 223.019494 126.200046 
L 223.019494 125.736926 
L 223.207875 125.736926 
L 223.207875 125.273805 
L 223.483461 125.273805 
L 223.483461 124.347564 
L 223.667688 124.347564 
L 223.667688 123.884444 
L 224.026904 123.884444 
L 224.026904 123.421323 
L 224.384259 123.421323 
L 224.384259 122.958203 
L 224.644172 122.958203 
L 224.644172 122.495082 
L 224.770654 122.495082 
L 224.770654 121.568841 
L 225.476388 121.568841 
L 225.476388 121.105721 
L 225.89896 121.105721 
L 225.964862 119.716359 
L 226.229973 119.716359 
L 226.229973 119.253239 
L 226.343308 119.253239 
L 226.343308 118.790118 
L 227.056887 118.790118 
L 227.056887 118.326998 
L 227.204835 118.326998 
L 227.204835 117.400757 
L 227.625436 117.400757 
L 227.625436 116.937636 
L 228.257635 116.937636 
L 228.257635 116.474516 
L 228.605482 116.474516 
L 228.605482 116.011395 
L 228.976672 116.011395 
L 228.976672 115.548274 
L 229.642065 115.548274 
L 229.689475 114.158913 
L 230.15415 114.158913 
L 230.15415 113.695792 
L 230.282127 113.695792 
L 230.282127 112.769551 
L 230.94835 112.769551 
L 230.94835 112.306431 
L 231.073153 112.306431 
L 231.073153 111.84331 
L 231.670892 111.84331 
L 231.670892 110.917069 
L 232.542652 110.917069 
L 232.542652 110.453949 
L 232.878937 110.453949 
L 232.878937 109.527708 
L 234.138831 109.527708 
L 234.138831 108.601467 
L 234.516666 108.601467 
L 234.516666 107.675226 
L 234.701609 107.675226 
L 234.701609 107.212105 
L 235.007996 107.212105 
L 235.007996 106.748985 
L 238.400619 106.748985 
L 238.400619 106.285864 
L 239.076864 106.285864 
L 239.076864 105.822744 
L 239.68095 105.822744 
L 239.768462 104.896503 
L 240.247952 104.896503 
L 240.304182 103.507141 
L 241.692505 103.507141 
L 241.692505 102.5809 
L 242.448974 102.5809 
L 242.448974 102.117779 
L 243.586245 102.117779 
L 243.586245 101.191538 
L 243.992004 101.191538 
L 243.992004 100.265297 
L 246.057282 100.265297 
L 246.057282 99.802177 
L 246.532712 99.802177 
L 246.532712 99.339056 
L 248.06274 99.339056 
L 248.06274 98.412815 
L 251.064987 98.412815 
L 251.064987 97.949695 
L 251.726856 97.949695 
L 251.726856 97.486574 
L 252.762989 97.486574 
L 252.762989 96.560333 
L 253.405226 96.560333 
L 253.405226 96.097213 
L 253.583404 96.097213 
L 253.583404 95.170972 
L 254.237638 95.170972 
L 254.237638 94.244731 
L 258.246804 94.244731 
L 258.246804 93.78161 
L 338.688 93.78161 
L 338.688 93.78161 
" style="fill:none;stroke:#000080;stroke-linecap:square;stroke-width:1.5;"/>
   </g>
   <g id="line2d_36">
    <defs>
     <path d="M 0 6 
C 1.591219 6 3.117479 5.367802 4.242641 4.242641 
C 5.367802 3.117479 6 1.591219 6 0 
C 6 -1.591219 5.367802 -3.117479 4.242641 -4.242641 
C 3.117479 -5.367802 1.591219 -6 0 -6 
C -1.591219 -6 -3.117479 -5.367802 -4.242641 -4.242641 
C -5.367802 -3.117479 -6 -1.591219 -6 0 
C -6 1.591219 -5.367802 3.117479 -4.242641 4.242641 
C -3.117479 5.367802 -1.591219 6 0 6 
z
" id="m0123faa78c" style="stroke:#000080;stroke-width:1.5;"/>
    </defs>
    <g>
     <use style="fill-opacity:0;stroke:#000080;stroke-width:1.5;" x="82.626842" xlink:href="#m0123faa78c" y="283.661023"/>
     <use style="fill-opacity:0;stroke:#000080;stroke-width:1.5;" x="157.116308" xlink:href="#m0123faa78c" y="256.800033"/>
     <use style="fill-opacity:0;stroke:#000080;stroke-width:1.5;" x="218.270824" xlink:href="#m0123faa78c" y="143.335506"/>
     <use style="fill-opacity:0;stroke:#000080;stroke-width:1.5;" x="258.246804" xlink:href="#m0123faa78c" y="94.244731"/>
     <use style="fill-opacity:0;stroke:#000080;stroke-width:1.5;" x="258.246804" xlink:href="#m0123faa78c" y="93.78161"/>
     <use style="fill-opacity:0;stroke:#000080;stroke-width:1.5;" x="338.688" xlink:href="#m0123faa78c" y="93.78161"/>
    </g>
   </g>
   <g id="line2d_37">
    <path style="fill:none;stroke:#000080;stroke-linecap:square;stroke-width:1.5;"/>
    <g/>
   </g>
   <g id="line2d_38">
    <path clip-path="url(#pf042f870c1)" d="M 258.377317 93.78161 
" style="fill:none;stroke:#000080;stroke-linecap:square;stroke-width:1.5;"/>
    <defs>
     <path d="M -12 12 
L 12 -12 
M -12 -12 
L 12 12 
" id="m267ef57764" style="stroke:#000080;"/>
    </defs>
    <g clip-path="url(#pf042f870c1)">
     <use style="fill:#000080;stroke:#000080;" x="258.377317" xlink:href="#m267ef57764" y="93.78161"/>
    </g>
   </g>
   <g id="line2d_39">
    <defs>
     <path d="M 0 1.5 
C 0.397805 1.5 0.77937 1.341951 1.06066 1.06066 
C 1.341951 0.77937 1.5 0.397805 1.5 0 
C 1.5 -0.397805 1.341951 -0.77937 1.06066 -1.06066 
C 0.77937 -1.341951 0.397805 -1.5 0 -1.5 
C -0.397805 -1.5 -0.77937 -1.341951 -1.06066 -1.06066 
C -1.341951 -0.77937 -1.5 -0.397805 -1.5 0 
C -1.5 0.397805 -1.341951 0.77937 -1.06066 1.06066 
C -0.77937 1.341951 -0.397805 1.5 0 1.5 
z
" id="m4f34556116" style="stroke:#ff00ff;"/>
    </defs>
    <g>
     <use style="fill:#ff00ff;stroke:#ff00ff;" x="257.945918" xlink:href="#m4f34556116" y="142.872385"/>
     <use style="fill:#ff00ff;stroke:#ff00ff;" x="257.945918" xlink:href="#m4f34556116" y="142.872385"/>
    </g>
   </g>
   <g id="line2d_40">
    <path d="M 29.53256 298.944 
L 29.53256 295.702156 
L 134.062938 295.702156 
L 134.062938 295.239036 
L 137.451437 295.239036 
L 137.451437 294.775915 
L 139.572998 294.775915 
L 139.572998 293.386554 
L 141.177393 293.386554 
L 141.235139 291.070951 
L 141.858037 291.070951 
L 141.858037 290.607831 
L 142.297475 290.607831 
L 142.297475 289.68159 
L 143.11861 289.68159 
L 143.11861 287.829108 
L 143.853271 287.829108 
L 143.927534 286.902867 
L 144.148442 286.902867 
L 144.148442 285.976625 
L 144.294175 285.976625 
L 144.294175 285.513505 
L 144.582038 285.513505 
L 144.582038 285.050384 
L 144.841802 285.050384 
L 144.841802 284.587264 
L 145.688202 284.587264 
L 145.688202 284.124143 
L 146.302479 284.124143 
L 146.367029 283.197902 
L 146.559258 283.197902 
L 146.644018 281.808541 
L 146.916676 281.808541 
L 146.978997 280.419179 
L 147.266916 280.419179 
L 147.307662 278.566697 
L 147.550159 278.566697 
L 147.550159 278.103577 
L 148.315765 278.103577 
L 148.315765 277.640456 
L 148.54473 277.640456 
L 148.54473 275.787974 
L 148.676918 275.787974 
L 148.714503 273.009251 
L 148.956849 273.009251 
L 149.067574 272.08301 
L 149.085961 272.08301 
L 149.141003 270.693648 
L 149.467659 270.693648 
L 149.467659 269.767407 
L 149.788308 269.767407 
L 149.805951 268.378046 
L 149.911431 268.378046 
L 149.911431 267.914925 
L 150.172372 267.914925 
L 150.172372 267.451805 
L 150.882897 267.451805 
L 150.91602 266.062443 
L 151.0643 266.062443 
L 151.0643 265.599323 
L 151.21133 265.599323 
L 151.21133 265.136202 
L 151.453659 265.136202 
L 151.453659 264.209961 
L 151.692666 264.209961 
L 151.755852 262.8206 
L 151.912822 262.8206 
L 151.928441 260.041876 
L 152.052897 260.041876 
L 152.052897 259.578756 
L 152.191856 259.578756 
L 152.191856 259.115635 
L 152.526944 259.115635 
L 152.526944 258.652515 
L 152.973748 258.652515 
L 152.973748 258.189394 
L 153.178403 258.189394 
L 153.178403 257.263153 
L 153.308709 257.263153 
L 153.323128 255.873792 
L 153.466662 255.873792 
L 153.466662 255.410671 
L 153.862384 255.410671 
L 153.946025 254.02131 
L 154.208275 254.02131 
L 154.208275 253.095069 
L 154.654594 253.095069 
L 154.654594 252.168828 
L 154.906477 252.168828 
L 154.919633 251.242587 
L 155.296925 251.242587 
L 155.296925 250.316346 
L 155.527065 250.316346 
L 155.527065 249.390104 
L 155.891575 249.390104 
L 155.94126 248.000743 
L 156.064855 248.000743 
L 156.126326 246.611381 
L 156.357959 246.611381 
L 156.382164 245.68514 
L 156.550661 245.68514 
L 156.550661 245.22202 
L 156.92979 245.22202 
L 156.92979 244.758899 
L 157.093102 244.758899 
L 157.093102 244.295779 
L 157.277891 244.295779 
L 157.346685 241.517056 
L 158.379686 241.517056 
L 158.487203 240.127694 
L 158.508628 240.127694 
L 158.508628 239.664574 
L 159.314063 239.664574 
L 159.39565 236.42273 
L 159.51732 236.42273 
L 159.51732 235.496489 
L 159.728221 235.496489 
L 159.758143 234.107127 
L 159.976013 234.107127 
L 159.976013 233.644007 
L 160.346039 233.644007 
L 160.346039 233.180886 
L 160.575759 233.180886 
L 160.575759 232.254645 
L 160.802491 232.254645 
L 160.802491 231.791525 
L 161.6095 231.791525 
L 161.716709 229.939043 
L 161.743409 229.939043 
L 161.743409 229.012802 
L 162.095552 229.012802 
L 162.095552 228.086561 
L 162.260361 228.086561 
L 162.260361 227.62344 
L 162.500433 227.62344 
L 162.508946 226.697199 
L 163.053576 226.697199 
L 163.078306 224.381596 
L 163.835954 224.381596 
L 163.835954 223.918476 
L 163.992995 223.918476 
L 163.992995 222.992235 
L 164.333587 222.992235 
L 164.333587 222.529114 
L 164.562052 222.529114 
L 164.607388 221.139753 
L 165.142423 221.139753 
L 165.142423 220.676632 
L 165.331666 220.676632 
L 165.331666 220.213512 
L 165.873346 220.213512 
L 165.880363 219.287271 
L 165.985272 219.287271 
L 165.985272 218.82415 
L 166.138005 218.82415 
L 166.144916 217.434789 
L 166.642144 217.434789 
L 166.675688 216.508548 
L 166.829163 216.508548 
L 166.829163 215.582307 
L 167.735303 215.582307 
L 167.817104 214.656066 
L 168.33661 214.656066 
L 168.415645 213.729825 
L 168.752066 213.729825 
L 168.769907 211.877342 
L 169.388841 211.877342 
L 169.388841 210.951101 
L 169.858596 210.951101 
L 169.942157 209.56174 
L 170.130094 209.56174 
L 170.130094 209.098619 
L 170.967341 209.098619 
L 171.066621 208.172378 
L 171.113451 208.172378 
L 171.113451 207.709258 
L 172.181702 207.709258 
L 172.181702 206.783017 
L 172.361615 206.783017 
L 172.361615 205.856776 
L 172.956059 205.856776 
L 172.956059 205.393655 
L 173.243551 205.393655 
L 173.243551 204.930535 
L 173.440194 204.930535 
L 173.440194 204.467414 
L 174.434469 204.467414 
L 174.434469 203.541173 
L 174.656411 203.541173 
L 174.656411 203.078053 
L 175.149812 203.078053 
L 175.149812 202.151812 
L 176.084892 202.151812 
L 176.084892 201.688691 
L 176.410073 201.688691 
L 176.410073 201.225571 
L 179.098898 201.225571 
L 179.098898 200.299329 
L 179.424571 200.299329 
L 179.424571 199.836209 
L 180.002125 199.836209 
L 180.002125 199.373088 
L 181.707628 199.373088 
L 181.707628 198.909968 
L 182.259268 198.909968 
L 182.259268 198.446847 
L 183.528331 198.446847 
L 183.528331 197.983727 
L 183.665489 197.983727 
L 183.665489 197.520606 
L 184.169204 197.520606 
L 184.169204 196.594365 
L 185.886005 196.594365 
L 185.886005 195.668124 
L 186.201667 195.668124 
L 186.201667 194.741883 
L 186.597466 194.741883 
L 186.597466 194.278763 
L 187.452913 194.278763 
L 187.503741 192.426281 
L 188.125927 192.426281 
L 188.125927 191.96316 
L 188.586052 191.96316 
L 188.586052 191.036919 
L 189.067789 191.036919 
L 189.067789 190.573799 
L 189.360429 190.573799 
L 189.360429 189.647558 
L 189.693064 189.647558 
L 189.693064 189.184437 
L 189.977242 189.184437 
L 190.051078 188.258196 
L 190.976882 188.258196 
L 191.039983 187.331955 
L 191.846512 187.331955 
L 191.846512 186.405714 
L 192.115067 186.405714 
L 192.115067 185.479473 
L 193.464138 185.479473 
L 193.464138 185.016352 
L 193.627807 185.016352 
L 193.627807 184.553232 
L 194.989365 184.553232 
L 194.997293 183.626991 
L 195.531967 183.626991 
L 195.531967 182.70075 
L 195.756008 182.70075 
L 195.756008 182.237629 
L 196.628061 182.237629 
L 196.628061 181.774509 
L 197.653647 181.774509 
L 197.653647 181.311388 
L 198.324621 181.311388 
L 198.324621 180.848268 
L 199.399841 180.848268 
L 199.399841 180.385147 
L 199.521548 180.385147 
L 199.597819 178.995786 
L 199.959351 178.995786 
L 199.959351 178.532665 
L 200.91375 178.532665 
L 200.91375 178.069545 
L 203.442542 178.069545 
L 203.442542 177.606424 
L 203.797858 177.606424 
L 203.797858 177.143304 
L 205.594627 177.143304 
L 205.594627 176.217062 
L 205.985914 176.217062 
L 205.985914 175.753942 
L 206.48454 175.753942 
L 206.48454 175.290821 
L 208.429164 175.290821 
L 208.429164 174.36458 
L 208.653978 174.36458 
L 208.653978 173.438339 
L 210.649506 173.438339 
L 210.649506 172.975219 
L 211.795561 172.975219 
L 211.795561 172.512098 
L 215.90657 172.512098 
L 215.90657 172.048978 
L 216.082526 172.048978 
L 216.167096 170.659616 
L 216.289875 170.659616 
L 216.289875 170.196496 
L 216.857596 170.196496 
L 216.857596 169.733375 
L 217.239596 169.733375 
L 217.239596 168.807134 
L 218.047148 168.807134 
L 218.097454 167.880893 
L 218.189946 167.880893 
L 218.189946 166.954652 
L 218.728731 166.954652 
L 218.728731 166.028411 
L 219.179874 166.028411 
L 219.179874 165.565291 
L 220.471226 165.565291 
L 220.471226 165.10217 
L 220.812458 165.10217 
L 220.812458 164.63905 
L 221.494612 164.63905 
L 221.584867 162.786567 
L 222.241614 162.786567 
L 222.241614 162.323447 
L 222.6311 162.323447 
L 222.6311 161.860326 
L 223.265432 161.860326 
L 223.266737 160.470965 
L 224.600436 160.470965 
L 224.600436 160.007844 
L 224.853595 160.007844 
L 224.853595 159.544724 
L 227.453523 159.544724 
L 227.453523 159.081603 
L 229.494673 159.081603 
L 229.57853 157.692242 
L 230.931866 157.692242 
L 230.977243 156.766001 
L 231.958045 156.766001 
L 231.958045 155.83976 
L 233.578408 155.83976 
L 233.578408 155.376639 
L 234.70703 155.376639 
L 234.70703 154.913519 
L 235.246003 154.913519 
L 235.246003 154.450398 
L 237.820303 154.450398 
L 237.820303 153.524157 
L 239.184339 153.524157 
L 239.184339 153.061037 
L 242.157387 153.061037 
L 242.157387 152.134795 
L 242.565346 152.134795 
L 242.583559 151.208554 
L 243.370454 151.208554 
L 243.383643 150.282313 
L 244.160057 150.282313 
L 244.167858 149.356072 
L 244.341567 149.356072 
L 244.341567 148.892952 
L 245.059166 148.892952 
L 245.059166 148.429831 
L 246.418353 148.429831 
L 246.418353 147.966711 
L 247.194412 147.966711 
L 247.194412 147.50359 
L 248.745902 147.50359 
L 248.745902 146.577349 
L 252.732982 146.577349 
L 252.732982 145.651108 
L 254.596372 145.651108 
L 254.596372 145.187988 
L 255.684982 145.187988 
L 255.684982 144.724867 
L 256.980747 144.724867 
L 256.980747 143.798626 
L 257.367477 143.798626 
L 257.367477 143.335506 
L 257.945918 143.335506 
L 257.945918 142.872385 
L 338.688 142.872385 
L 338.688 142.872385 
" style="fill:none;stroke:#ff00ff;stroke-linecap:square;stroke-width:1.5;"/>
   </g>
   <g id="line2d_41">
    <defs>
     <path d="M 0 8.485281 
L 5.091169 0 
L 0 -8.485281 
L -5.091169 0 
z
" id="mb5a3f500f9" style="stroke:#ff00ff;stroke-linejoin:miter;stroke-width:1.5;"/>
    </defs>
    <g>
     <use style="fill-opacity:0;stroke:#ff00ff;stroke-linejoin:miter;stroke-width:1.5;" x="139.572998" xlink:href="#mb5a3f500f9" y="294.775915"/>
     <use style="fill-opacity:0;stroke:#ff00ff;stroke-linejoin:miter;stroke-width:1.5;" x="194.997293" xlink:href="#mb5a3f500f9" y="184.090111"/>
     <use style="fill-opacity:0;stroke:#ff00ff;stroke-linejoin:miter;stroke-width:1.5;" x="257.945918" xlink:href="#mb5a3f500f9" y="143.335506"/>
     <use style="fill-opacity:0;stroke:#ff00ff;stroke-linejoin:miter;stroke-width:1.5;" x="257.945918" xlink:href="#mb5a3f500f9" y="142.872385"/>
     <use style="fill-opacity:0;stroke:#ff00ff;stroke-linejoin:miter;stroke-width:1.5;" x="257.945918" xlink:href="#mb5a3f500f9" y="142.872385"/>
     <use style="fill-opacity:0;stroke:#ff00ff;stroke-linejoin:miter;stroke-width:1.5;" x="338.688" xlink:href="#mb5a3f500f9" y="142.872385"/>
    </g>
   </g>
   <g id="line2d_42">
    <path style="fill:none;stroke:#ff00ff;stroke-linecap:square;stroke-width:1.5;"/>
    <g/>
   </g>
   <g id="line2d_43">
    <path clip-path="url(#pf042f870c1)" d="M 258.381188 142.872385 
" style="fill:none;stroke:#ff00ff;stroke-linecap:square;stroke-width:1.5;"/>
    <defs>
     <path d="M -12 12 
L 12 -12 
M -12 -12 
L 12 12 
" id="md9805bba5c" style="stroke:#ff00ff;"/>
    </defs>
    <g clip-path="url(#pf042f870c1)">
     <use style="fill:#ff00ff;stroke:#ff00ff;" x="258.381188" xlink:href="#md9805bba5c" y="142.872385"/>
    </g>
   </g>
   <g id="line2d_44">
    <defs>
     <path d="M 0 1.5 
C 0.397805 1.5 0.77937 1.341951 1.06066 1.06066 
C 1.341951 0.77937 1.5 0.397805 1.5 0 
C 1.5 -0.397805 1.341951 -0.77937 1.06066 -1.06066 
C 0.77937 -1.341951 0.397805 -1.5 0 -1.5 
C -0.397805 -1.5 -0.77937 -1.341951 -1.06066 -1.06066 
C -1.341951 -0.77937 -1.5 -0.397805 -1.5 0 
C -1.5 0.397805 -1.341951 0.77937 -1.06066 1.06066 
C -0.77937 1.341951 -0.397805 1.5 0 1.5 
z
" id="meedaa6b37d" style="stroke:#ff7500;"/>
    </defs>
    <g>
     <use style="fill:#ff7500;stroke:#ff7500;" x="187.09706" xlink:href="#meedaa6b37d" y="217.897909"/>
     <use style="fill:#ff7500;stroke:#ff7500;" x="187.09706" xlink:href="#meedaa6b37d" y="217.897909"/>
    </g>
   </g>
   <g id="line2d_45">
    <path d="M 152.751777 298.944 
L 152.751777 298.480879 
L 153.862384 298.480879 
L 153.862384 297.554638 
L 154.601099 297.554638 
L 154.601099 297.091518 
L 156.670026 297.091518 
L 156.764934 296.165277 
L 156.941506 296.165277 
L 156.941506 295.239036 
L 157.162628 295.239036 
L 157.162628 294.775915 
L 157.641697 294.775915 
L 157.641697 294.312795 
L 158.0201 294.312795 
L 158.0201 293.386554 
L 158.805835 293.386554 
L 158.805835 292.923433 
L 159.16005 292.923433 
L 159.16005 292.460313 
L 159.283369 292.460313 
L 159.283369 291.997192 
L 159.456591 291.997192 
L 159.456591 291.534072 
L 160.259108 291.534072 
L 160.259108 291.070951 
L 160.755498 291.070951 
L 160.821253 290.14471 
L 161.026314 290.14471 
L 161.026314 289.68159 
L 161.292989 289.68159 
L 161.292989 289.218469 
L 161.438393 289.218469 
L 161.546656 288.292228 
L 161.893939 288.292228 
L 161.893939 287.365987 
L 162.251725 287.365987 
L 162.251725 286.902867 
L 162.779197 286.902867 
L 162.79595 285.976625 
L 162.921083 285.976625 
L 162.921083 283.661023 
L 163.144084 283.661023 
L 163.144084 283.197902 
L 163.299319 283.197902 
L 163.380469 281.808541 
L 163.469301 281.808541 
L 163.469301 281.34542 
L 163.58171 281.34542 
L 163.58171 280.8823 
L 163.804376 280.8823 
L 163.812276 279.956059 
L 164.272154 279.956059 
L 164.272154 279.492938 
L 164.50142 279.492938 
L 164.50142 278.103577 
L 165.076435 278.103577 
L 165.098459 277.177336 
L 165.208163 277.177336 
L 165.302685 276.251095 
L 165.403908 276.251095 
L 165.403908 275.787974 
L 165.985272 275.787974 
L 166.08262 274.861733 
L 166.186323 274.861733 
L 166.186323 274.398612 
L 166.595075 274.398612 
L 166.615263 273.472371 
L 166.835805 273.472371 
L 166.915315 270.693648 
L 167.268694 270.693648 
L 167.275171 269.304287 
L 167.410635 269.304287 
L 167.455557 267.914925 
L 167.525915 267.914925 
L 167.525915 267.451805 
L 167.678446 267.451805 
L 167.678446 266.525564 
L 168.084975 266.525564 
L 168.084975 266.062443 
L 168.238843 266.062443 
L 168.31222 264.209961 
L 168.391365 264.209961 
L 168.391365 263.746841 
L 168.578658 263.746841 
L 168.578658 263.28372 
L 168.888381 263.28372 
L 168.888381 261.894358 
L 169.291045 261.894358 
L 169.314106 260.504997 
L 169.491796 260.504997 
L 169.491796 259.578756 
L 169.71843 259.578756 
L 169.75779 256.336912 
L 169.947714 256.336912 
L 170.014255 254.48443 
L 170.113593 254.48443 
L 170.195944 253.558189 
L 170.370339 253.558189 
L 170.370339 253.095069 
L 170.612667 253.095069 
L 170.666063 251.242587 
L 171.134225 251.242587 
L 171.144602 249.853225 
L 171.32008 249.853225 
L 171.330348 248.463863 
L 171.509057 248.463863 
L 171.61541 246.611381 
L 171.716099 246.611381 
L 171.756212 245.68514 
L 172.322872 245.68514 
L 172.376122 243.832658 
L 172.549266 243.832658 
L 172.549266 243.369538 
L 172.701741 243.369538 
L 172.701741 242.443297 
L 172.988756 242.443297 
L 173.016733 241.517056 
L 173.105034 241.517056 
L 173.215936 240.127694 
L 173.266531 240.127694 
L 173.266531 239.201453 
L 173.481073 239.201453 
L 173.539951 237.812091 
L 173.977519 237.812091 
L 173.977519 237.348971 
L 174.18354 237.348971 
L 174.18354 236.42273 
L 174.52444 236.42273 
L 174.52444 235.496489 
L 174.741027 235.496489 
L 174.741027 234.570248 
L 174.950788 234.570248 
L 174.950788 234.107127 
L 175.203325 234.107127 
L 175.203325 233.180886 
L 175.468458 233.180886 
L 175.468458 232.254645 
L 175.753531 232.254645 
L 175.860728 230.865284 
L 176.080984 230.865284 
L 176.080984 229.939043 
L 176.236623 229.939043 
L 176.236623 229.475922 
L 176.676501 229.475922 
L 176.676501 228.549681 
L 176.811953 228.549681 
L 176.85687 227.62344 
L 177.109241 227.62344 
L 177.193782 225.307837 
L 177.656927 225.307837 
L 177.656927 224.844717 
L 177.834554 224.844717 
L 177.834554 223.918476 
L 178.208705 223.918476 
L 178.208705 223.455355 
L 178.773727 223.455355 
L 178.773727 222.529114 
L 179.009913 222.529114 
L 179.009913 221.602873 
L 179.958371 221.602873 
L 179.958371 220.213512 
L 180.095517 220.213512 
L 180.095517 219.750391 
L 180.45808 219.750391 
L 180.45808 219.287271 
L 180.615492 219.287271 
L 180.615492 218.36103 
L 187.09706 218.36103 
L 187.09706 217.897909 
L 338.688 217.897909 
L 338.688 217.897909 
" style="fill:none;stroke:#ff7500;stroke-linecap:square;stroke-width:1.5;"/>
   </g>
   <g id="line2d_46">
    <defs>
     <path d="M 0 -6 
L -1.347084 -1.854102 
L -5.706339 -1.854102 
L -2.179628 0.708204 
L -3.526712 4.854102 
L -0 2.291796 
L 3.526712 4.854102 
L 2.179628 0.708204 
L 5.706339 -1.854102 
L 1.347084 -1.854102 
z
" id="mc58a116e89" style="stroke:#ff7500;stroke-linejoin:bevel;stroke-width:1.5;"/>
    </defs>
    <g>
     <use style="fill-opacity:0;stroke:#ff7500;stroke-linejoin:bevel;stroke-width:1.5;" x="187.09706" xlink:href="#mc58a116e89" y="218.36103"/>
     <use style="fill-opacity:0;stroke:#ff7500;stroke-linejoin:bevel;stroke-width:1.5;" x="187.09706" xlink:href="#mc58a116e89" y="217.897909"/>
     <use style="fill-opacity:0;stroke:#ff7500;stroke-linejoin:bevel;stroke-width:1.5;" x="187.09706" xlink:href="#mc58a116e89" y="217.897909"/>
     <use style="fill-opacity:0;stroke:#ff7500;stroke-linejoin:bevel;stroke-width:1.5;" x="338.688" xlink:href="#mc58a116e89" y="217.897909"/>
    </g>
   </g>
   <g id="line2d_47">
    <path style="fill:none;stroke:#ff7500;stroke-linecap:square;stroke-width:1.5;"/>
    <g/>
   </g>
   <g id="line2d_48">
    <path clip-path="url(#pf042f870c1)" d="M 258.377178 217.897909 
" style="fill:none;stroke:#ff7500;stroke-linecap:square;stroke-width:1.5;"/>
    <defs>
     <path d="M -12 12 
L 12 -12 
M -12 -12 
L 12 12 
" id="mb10439250a" style="stroke:#ff7500;"/>
    </defs>
    <g clip-path="url(#pf042f870c1)">
     <use style="fill:#ff7500;stroke:#ff7500;" x="258.377178" xlink:href="#mb10439250a" y="217.897909"/>
    </g>
   </g>
   <g id="line2d_49">
    <path d="M 338.688 217.897909 
L 369.60768 293.571802 
" style="fill:none;stroke:#ff7500;stroke-linecap:square;stroke-width:1.5;"/>
    <g>
     <use style="fill-opacity:0;stroke:#ff7500;stroke-linejoin:bevel;stroke-width:1.5;" x="338.688" xlink:href="#mc58a116e89" y="217.897909"/>
     <use style="fill-opacity:0;stroke:#ff7500;stroke-linejoin:bevel;stroke-width:1.5;" x="369.60768" xlink:href="#mc58a116e89" y="293.571802"/>
    </g>
   </g>
   <g id="line2d_50">
    <path d="M 338.688 142.872385 
L 369.60768 207.616634 
" style="fill:none;stroke:#ff00ff;stroke-linecap:square;stroke-width:1.5;"/>
    <g>
     <use style="fill-opacity:0;stroke:#ff00ff;stroke-linejoin:miter;stroke-width:1.5;" x="338.688" xlink:href="#mb5a3f500f9" y="142.872385"/>
     <use style="fill-opacity:0;stroke:#ff00ff;stroke-linejoin:miter;stroke-width:1.5;" x="369.60768" xlink:href="#mb5a3f500f9" y="207.616634"/>
    </g>
   </g>
   <g id="line2d_51">
    <path d="M 338.688 93.78161 
L 369.60768 121.661465 
" style="fill:none;stroke:#000080;stroke-linecap:square;stroke-width:1.5;"/>
    <g>
     <use style="fill-opacity:0;stroke:#000080;stroke-width:1.5;" x="338.688" xlink:href="#m0123faa78c" y="93.78161"/>
     <use style="fill-opacity:0;stroke:#000080;stroke-width:1.5;" x="369.60768" xlink:href="#m0123faa78c" y="121.661465"/>
    </g>
   </g>
   <g id="line2d_52">
    <path d="M 338.688 298.944 
L 338.688 30.334099 
" style="fill:none;stroke:#000000;stroke-linecap:square;stroke-width:1.5;"/>
   </g>
   <g id="patch_3">
    <path d="M 57.6 298.944 
L 57.6 27.648 
" style="fill:none;stroke:#000000;stroke-linecap:square;stroke-linejoin:miter;stroke-width:0.8;"/>
   </g>
   <g id="patch_4">
    <path d="M 338.688 298.944 
L 338.688 27.648 
" style="fill:none;stroke:#000000;stroke-linecap:square;stroke-linejoin:miter;stroke-width:0.8;"/>
   </g>
   <g id="patch_5">
    <path d="M 57.6 298.944 
L 338.688 298.944 
" style="fill:none;stroke:#000000;stroke-linecap:square;stroke-linejoin:miter;stroke-width:0.8;"/>
   </g>
   <g id="patch_6">
    <path d="M 57.6 27.648 
L 338.688 27.648 
" style="fill:none;stroke:#000000;stroke-linecap:square;stroke-linejoin:miter;stroke-width:0.8;"/>
   </g>
   <g id="text_13">
    <!-- SMS-EMOA- -->
    <g transform="translate(375.22944 298.262739)scale(0.17 -0.17)">
     <defs>
      <path d="M 53.515625 70.515625 
L 53.515625 60.890625 
Q 47.90625 63.578125 42.921875 64.890625 
Q 37.9375 66.21875 33.296875 66.21875 
Q 25.25 66.21875 20.875 63.09375 
Q 16.5 59.96875 16.5 54.203125 
Q 16.5 49.359375 19.40625 46.890625 
Q 22.3125 44.4375 30.421875 42.921875 
L 36.375 41.703125 
Q 47.40625 39.59375 52.65625 34.296875 
Q 57.90625 29 57.90625 20.125 
Q 57.90625 9.515625 50.796875 4.046875 
Q 43.703125 -1.421875 29.984375 -1.421875 
Q 24.8125 -1.421875 18.96875 -0.25 
Q 13.140625 0.921875 6.890625 3.21875 
L 6.890625 13.375 
Q 12.890625 10.015625 18.65625 8.296875 
Q 24.421875 6.59375 29.984375 6.59375 
Q 38.421875 6.59375 43.015625 9.90625 
Q 47.609375 13.234375 47.609375 19.390625 
Q 47.609375 24.75 44.3125 27.78125 
Q 41.015625 30.8125 33.5 32.328125 
L 27.484375 33.5 
Q 16.453125 35.6875 11.515625 40.375 
Q 6.59375 45.0625 6.59375 53.421875 
Q 6.59375 63.09375 13.40625 68.65625 
Q 20.21875 74.21875 32.171875 74.21875 
Q 37.3125 74.21875 42.625 73.28125 
Q 47.953125 72.359375 53.515625 70.515625 
z
" id="DejaVuSans-83"/>
      <path d="M 9.8125 72.90625 
L 24.515625 72.90625 
L 43.109375 23.296875 
L 61.8125 72.90625 
L 76.515625 72.90625 
L 76.515625 0 
L 66.890625 0 
L 66.890625 64.015625 
L 48.09375 14.015625 
L 38.1875 14.015625 
L 19.390625 64.015625 
L 19.390625 0 
L 9.8125 0 
z
" id="DejaVuSans-77"/>
      <path d="M 9.8125 72.90625 
L 55.90625 72.90625 
L 55.90625 64.59375 
L 19.671875 64.59375 
L 19.671875 43.015625 
L 54.390625 43.015625 
L 54.390625 34.71875 
L 19.671875 34.71875 
L 19.671875 8.296875 
L 56.78125 8.296875 
L 56.78125 0 
L 9.8125 0 
z
" id="DejaVuSans-69"/>
      <path d="M 39.40625 66.21875 
Q 28.65625 66.21875 22.328125 58.203125 
Q 16.015625 50.203125 16.015625 36.375 
Q 16.015625 22.609375 22.328125 14.59375 
Q 28.65625 6.59375 39.40625 6.59375 
Q 50.140625 6.59375 56.421875 14.59375 
Q 62.703125 22.609375 62.703125 36.375 
Q 62.703125 50.203125 56.421875 58.203125 
Q 50.140625 66.21875 39.40625 66.21875 
z
M 39.40625 74.21875 
Q 54.734375 74.21875 63.90625 63.9375 
Q 73.09375 53.65625 73.09375 36.375 
Q 73.09375 19.140625 63.90625 8.859375 
Q 54.734375 -1.421875 39.40625 -1.421875 
Q 24.03125 -1.421875 14.8125 8.828125 
Q 5.609375 19.09375 5.609375 36.375 
Q 5.609375 53.65625 14.8125 63.9375 
Q 24.03125 74.21875 39.40625 74.21875 
z
" id="DejaVuSans-79"/>
      <path d="M 34.1875 63.1875 
L 20.796875 26.90625 
L 47.609375 26.90625 
z
M 28.609375 72.90625 
L 39.796875 72.90625 
L 67.578125 0 
L 57.328125 0 
L 50.6875 18.703125 
L 17.828125 18.703125 
L 11.1875 0 
L 0.78125 0 
z
" id="DejaVuSans-65"/>
     </defs>
     <use xlink:href="#DejaVuSans-83"/>
     <use x="63.476562" xlink:href="#DejaVuSans-77"/>
     <use x="149.755859" xlink:href="#DejaVuSans-83"/>
     <use x="213.232422" xlink:href="#DejaVuSans-45"/>
     <use x="249.316406" xlink:href="#DejaVuSans-69"/>
     <use x="312.5" xlink:href="#DejaVuSans-77"/>
     <use x="398.779297" xlink:href="#DejaVuSans-79"/>
     <use x="475.740234" xlink:href="#DejaVuSans-65"/>
     <use x="541.898438" xlink:href="#DejaVuSans-45"/>
    </g>
   </g>
   <g id="text_14">
    <!-- NSGA-II-M -->
    <g transform="translate(375.22944 212.307571)scale(0.17 -0.17)">
     <defs>
      <path d="M 9.8125 72.90625 
L 23.09375 72.90625 
L 55.421875 11.921875 
L 55.421875 72.90625 
L 64.984375 72.90625 
L 64.984375 0 
L 51.703125 0 
L 19.390625 60.984375 
L 19.390625 0 
L 9.8125 0 
z
" id="DejaVuSans-78"/>
      <path d="M 59.515625 10.40625 
L 59.515625 29.984375 
L 43.40625 29.984375 
L 43.40625 38.09375 
L 69.28125 38.09375 
L 69.28125 6.78125 
Q 63.578125 2.734375 56.6875 0.65625 
Q 49.8125 -1.421875 42 -1.421875 
Q 24.90625 -1.421875 15.25 8.5625 
Q 5.609375 18.5625 5.609375 36.375 
Q 5.609375 54.25 15.25 64.234375 
Q 24.90625 74.21875 42 74.21875 
Q 49.125 74.21875 55.546875 72.453125 
Q 61.96875 70.703125 67.390625 67.28125 
L 67.390625 56.78125 
Q 61.921875 61.421875 55.765625 63.765625 
Q 49.609375 66.109375 42.828125 66.109375 
Q 29.4375 66.109375 22.71875 58.640625 
Q 16.015625 51.171875 16.015625 36.375 
Q 16.015625 21.625 22.71875 14.15625 
Q 29.4375 6.6875 42.828125 6.6875 
Q 48.046875 6.6875 52.140625 7.59375 
Q 56.25 8.5 59.515625 10.40625 
z
" id="DejaVuSans-71"/>
      <path d="M 9.8125 72.90625 
L 19.671875 72.90625 
L 19.671875 0 
L 9.8125 0 
z
" id="DejaVuSans-73"/>
     </defs>
     <use xlink:href="#DejaVuSans-78"/>
     <use x="74.804688" xlink:href="#DejaVuSans-83"/>
     <use x="138.28125" xlink:href="#DejaVuSans-71"/>
     <use x="215.771484" xlink:href="#DejaVuSans-65"/>
     <use x="281.929688" xlink:href="#DejaVuSans-45"/>
     <use x="318.013672" xlink:href="#DejaVuSans-73"/>
     <use x="347.505859" xlink:href="#DejaVuSans-73"/>
     <use x="376.998047" xlink:href="#DejaVuSans-45"/>
     <use x="413.082031" xlink:href="#DejaVuSans-77"/>
    </g>
   </g>
   <g id="text_15">
    <!-- COMO-100  -->
    <g transform="translate(375.22944 126.352403)scale(0.17 -0.17)">
     <defs>
      <path d="M 64.40625 67.28125 
L 64.40625 56.890625 
Q 59.421875 61.53125 53.78125 63.8125 
Q 48.140625 66.109375 41.796875 66.109375 
Q 29.296875 66.109375 22.65625 58.46875 
Q 16.015625 50.828125 16.015625 36.375 
Q 16.015625 21.96875 22.65625 14.328125 
Q 29.296875 6.6875 41.796875 6.6875 
Q 48.140625 6.6875 53.78125 8.984375 
Q 59.421875 11.28125 64.40625 15.921875 
L 64.40625 5.609375 
Q 59.234375 2.09375 53.4375 0.328125 
Q 47.65625 -1.421875 41.21875 -1.421875 
Q 24.65625 -1.421875 15.125 8.703125 
Q 5.609375 18.84375 5.609375 36.375 
Q 5.609375 53.953125 15.125 64.078125 
Q 24.65625 74.21875 41.21875 74.21875 
Q 47.75 74.21875 53.53125 72.484375 
Q 59.328125 70.75 64.40625 67.28125 
z
" id="DejaVuSans-67"/>
     </defs>
     <use xlink:href="#DejaVuSans-67"/>
     <use x="69.824219" xlink:href="#DejaVuSans-79"/>
     <use x="148.535156" xlink:href="#DejaVuSans-77"/>
     <use x="234.814453" xlink:href="#DejaVuSans-79"/>
     <use x="316.275391" xlink:href="#DejaVuSans-45"/>
     <use x="352.359375" xlink:href="#DejaVuSans-49"/>
     <use x="415.982422" xlink:href="#DejaVuSans-48"/>
     <use x="479.605469" xlink:href="#DejaVuSans-48"/>
     <use x="543.228516" xlink:href="#DejaVuSans-32"/>
    </g>
   </g>
   <g id="text_16">
    <!-- best 2016 -->
    <g transform="translate(375.22944 40.397235)scale(0.17 -0.17)">
     <defs>
      <path d="M 48.6875 27.296875 
Q 48.6875 37.203125 44.609375 42.84375 
Q 40.53125 48.484375 33.40625 48.484375 
Q 26.265625 48.484375 22.1875 42.84375 
Q 18.109375 37.203125 18.109375 27.296875 
Q 18.109375 17.390625 22.1875 11.75 
Q 26.265625 6.109375 33.40625 6.109375 
Q 40.53125 6.109375 44.609375 11.75 
Q 48.6875 17.390625 48.6875 27.296875 
z
M 18.109375 46.390625 
Q 20.953125 51.265625 25.265625 53.625 
Q 29.59375 56 35.59375 56 
Q 45.5625 56 51.78125 48.09375 
Q 58.015625 40.1875 58.015625 27.296875 
Q 58.015625 14.40625 51.78125 6.484375 
Q 45.5625 -1.421875 35.59375 -1.421875 
Q 29.59375 -1.421875 25.265625 0.953125 
Q 20.953125 3.328125 18.109375 8.203125 
L 18.109375 0 
L 9.078125 0 
L 9.078125 75.984375 
L 18.109375 75.984375 
z
" id="DejaVuSans-98"/>
     </defs>
     <use xlink:href="#DejaVuSans-98"/>
     <use x="63.476562" xlink:href="#DejaVuSans-101"/>
     <use x="125" xlink:href="#DejaVuSans-115"/>
     <use x="177.099609" xlink:href="#DejaVuSans-116"/>
     <use x="216.308594" xlink:href="#DejaVuSans-32"/>
     <use x="248.095703" xlink:href="#DejaVuSans-50"/>
     <use x="311.71875" xlink:href="#DejaVuSans-48"/>
     <use x="375.341797" xlink:href="#DejaVuSans-49"/>
     <use x="438.964844" xlink:href="#DejaVuSans-54"/>
    </g>
   </g>
   <g id="text_17">
    <!-- bbob-biobj f15, 5-D -->
    <g transform="translate(60.41088 38.111366)scale(0.102 -0.102)">
     <defs>
      <path d="M 9.421875 54.6875 
L 18.40625 54.6875 
L 18.40625 -0.984375 
Q 18.40625 -11.421875 14.421875 -16.109375 
Q 10.453125 -20.796875 1.609375 -20.796875 
L -1.8125 -20.796875 
L -1.8125 -13.1875 
L 0.59375 -13.1875 
Q 5.71875 -13.1875 7.5625 -10.8125 
Q 9.421875 -8.453125 9.421875 -0.984375 
z
M 9.421875 75.984375 
L 18.40625 75.984375 
L 18.40625 64.59375 
L 9.421875 64.59375 
z
" id="DejaVuSans-106"/>
      <path d="M 10.796875 72.90625 
L 49.515625 72.90625 
L 49.515625 64.59375 
L 19.828125 64.59375 
L 19.828125 46.734375 
Q 21.96875 47.46875 24.109375 47.828125 
Q 26.265625 48.1875 28.421875 48.1875 
Q 40.625 48.1875 47.75 41.5 
Q 54.890625 34.8125 54.890625 23.390625 
Q 54.890625 11.625 47.5625 5.09375 
Q 40.234375 -1.421875 26.90625 -1.421875 
Q 22.3125 -1.421875 17.546875 -0.640625 
Q 12.796875 0.140625 7.71875 1.703125 
L 7.71875 11.625 
Q 12.109375 9.234375 16.796875 8.0625 
Q 21.484375 6.890625 26.703125 6.890625 
Q 35.15625 6.890625 40.078125 11.328125 
Q 45.015625 15.765625 45.015625 23.390625 
Q 45.015625 31 40.078125 35.4375 
Q 35.15625 39.890625 26.703125 39.890625 
Q 22.75 39.890625 18.8125 39.015625 
Q 14.890625 38.140625 10.796875 36.28125 
z
" id="DejaVuSans-53"/>
      <path d="M 19.671875 64.796875 
L 19.671875 8.109375 
L 31.59375 8.109375 
Q 46.6875 8.109375 53.6875 14.9375 
Q 60.6875 21.78125 60.6875 36.53125 
Q 60.6875 51.171875 53.6875 57.984375 
Q 46.6875 64.796875 31.59375 64.796875 
z
M 9.8125 72.90625 
L 30.078125 72.90625 
Q 51.265625 72.90625 61.171875 64.09375 
Q 71.09375 55.28125 71.09375 36.53125 
Q 71.09375 17.671875 61.125 8.828125 
Q 51.171875 0 30.078125 0 
L 9.8125 0 
z
" id="DejaVuSans-68"/>
     </defs>
     <use xlink:href="#DejaVuSans-98"/>
     <use x="63.476562" xlink:href="#DejaVuSans-98"/>
     <use x="126.953125" xlink:href="#DejaVuSans-111"/>
     <use x="188.134766" xlink:href="#DejaVuSans-98"/>
     <use x="251.611328" xlink:href="#DejaVuSans-45"/>
     <use x="287.695312" xlink:href="#DejaVuSans-98"/>
     <use x="351.171875" xlink:href="#DejaVuSans-105"/>
     <use x="378.955078" xlink:href="#DejaVuSans-111"/>
     <use x="440.136719" xlink:href="#DejaVuSans-98"/>
     <use x="503.613281" xlink:href="#DejaVuSans-106"/>
     <use x="531.396484" xlink:href="#DejaVuSans-32"/>
     <use x="563.183594" xlink:href="#DejaVuSans-102"/>
     <use x="598.388672" xlink:href="#DejaVuSans-49"/>
     <use x="662.011719" xlink:href="#DejaVuSans-53"/>
     <use x="725.634766" xlink:href="#DejaVuSans-44"/>
     <use x="757.421875" xlink:href="#DejaVuSans-32"/>
     <use x="789.208984" xlink:href="#DejaVuSans-53"/>
     <use x="852.832031" xlink:href="#DejaVuSans-45"/>
     <use x="888.916016" xlink:href="#DejaVuSans-68"/>
    </g>
    <!-- 58 targets: 1..-1.0e-4 -->
    <g transform="translate(60.41088 49.533135)scale(0.102 -0.102)">
     <defs>
      <path d="M 11.71875 12.40625 
L 22.015625 12.40625 
L 22.015625 0 
L 11.71875 0 
z
M 11.71875 51.703125 
L 22.015625 51.703125 
L 22.015625 39.3125 
L 11.71875 39.3125 
z
" id="DejaVuSans-58"/>
     </defs>
     <use xlink:href="#DejaVuSans-53"/>
     <use x="63.623047" xlink:href="#DejaVuSans-56"/>
     <use x="127.246094" xlink:href="#DejaVuSans-32"/>
     <use x="159.033203" xlink:href="#DejaVuSans-116"/>
     <use x="198.242188" xlink:href="#DejaVuSans-97"/>
     <use x="259.521484" xlink:href="#DejaVuSans-114"/>
     <use x="298.884766" xlink:href="#DejaVuSans-103"/>
     <use x="362.361328" xlink:href="#DejaVuSans-101"/>
     <use x="423.884766" xlink:href="#DejaVuSans-116"/>
     <use x="463.09375" xlink:href="#DejaVuSans-115"/>
     <use x="515.193359" xlink:href="#DejaVuSans-58"/>
     <use x="548.884766" xlink:href="#DejaVuSans-32"/>
     <use x="580.671875" xlink:href="#DejaVuSans-49"/>
     <use x="644.294922" xlink:href="#DejaVuSans-46"/>
     <use x="676.082031" xlink:href="#DejaVuSans-46"/>
     <use x="707.869141" xlink:href="#DejaVuSans-45"/>
     <use x="743.953125" xlink:href="#DejaVuSans-49"/>
     <use x="807.576172" xlink:href="#DejaVuSans-46"/>
     <use x="839.363281" xlink:href="#DejaVuSans-48"/>
     <use x="902.986328" xlink:href="#DejaVuSans-101"/>
     <use x="964.509766" xlink:href="#DejaVuSans-45"/>
     <use x="1000.59375" xlink:href="#DejaVuSans-52"/>
    </g>
    <!-- 10 instances -->
    <g transform="translate(60.41088 60.954904)scale(0.102 -0.102)">
     <use xlink:href="#DejaVuSans-49"/>
     <use x="63.623047" xlink:href="#DejaVuSans-48"/>
     <use x="127.246094" xlink:href="#DejaVuSans-32"/>
     <use x="159.033203" xlink:href="#DejaVuSans-105"/>
     <use x="186.816406" xlink:href="#DejaVuSans-110"/>
     <use x="250.195312" xlink:href="#DejaVuSans-115"/>
     <use x="302.294922" xlink:href="#DejaVuSans-116"/>
     <use x="341.503906" xlink:href="#DejaVuSans-97"/>
     <use x="402.783203" xlink:href="#DejaVuSans-110"/>
     <use x="466.162109" xlink:href="#DejaVuSans-99"/>
     <use x="521.142578" xlink:href="#DejaVuSans-101"/>
     <use x="582.666016" xlink:href="#DejaVuSans-115"/>
    </g>
   </g>
   <g id="text_18">
    <!-- v2.4.19, hv-hash=ff0e71e8cd978373 -->
    <g style="fill:#808080;" transform="translate(104.697125 294.151352)scale(0.1 -0.1)">
     <defs>
      <path d="M 10.984375 1.515625 
L 10.984375 10.5 
Q 14.703125 8.734375 18.5 7.8125 
Q 22.3125 6.890625 25.984375 6.890625 
Q 35.75 6.890625 40.890625 13.453125 
Q 46.046875 20.015625 46.78125 33.40625 
Q 43.953125 29.203125 39.59375 26.953125 
Q 35.25 24.703125 29.984375 24.703125 
Q 19.046875 24.703125 12.671875 31.3125 
Q 6.296875 37.9375 6.296875 49.421875 
Q 6.296875 60.640625 12.9375 67.421875 
Q 19.578125 74.21875 30.609375 74.21875 
Q 43.265625 74.21875 49.921875 64.515625 
Q 56.59375 54.828125 56.59375 36.375 
Q 56.59375 19.140625 48.40625 8.859375 
Q 40.234375 -1.421875 26.421875 -1.421875 
Q 22.703125 -1.421875 18.890625 -0.6875 
Q 15.09375 0.046875 10.984375 1.515625 
z
M 30.609375 32.421875 
Q 37.25 32.421875 41.125 36.953125 
Q 45.015625 41.5 45.015625 49.421875 
Q 45.015625 57.28125 41.125 61.84375 
Q 37.25 66.40625 30.609375 66.40625 
Q 23.96875 66.40625 20.09375 61.84375 
Q 16.21875 57.28125 16.21875 49.421875 
Q 16.21875 41.5 20.09375 36.953125 
Q 23.96875 32.421875 30.609375 32.421875 
z
" id="DejaVuSans-57"/>
      <path d="M 54.890625 33.015625 
L 54.890625 0 
L 45.90625 0 
L 45.90625 32.71875 
Q 45.90625 40.484375 42.875 44.328125 
Q 39.84375 48.1875 33.796875 48.1875 
Q 26.515625 48.1875 22.3125 43.546875 
Q 18.109375 38.921875 18.109375 30.90625 
L 18.109375 0 
L 9.078125 0 
L 9.078125 75.984375 
L 18.109375 75.984375 
L 18.109375 46.1875 
Q 21.34375 51.125 25.703125 53.5625 
Q 30.078125 56 35.796875 56 
Q 45.21875 56 50.046875 50.171875 
Q 54.890625 44.34375 54.890625 33.015625 
z
" id="DejaVuSans-104"/>
      <path d="M 10.59375 45.40625 
L 73.1875 45.40625 
L 73.1875 37.203125 
L 10.59375 37.203125 
z
M 10.59375 25.484375 
L 73.1875 25.484375 
L 73.1875 17.1875 
L 10.59375 17.1875 
z
" id="DejaVuSans-61"/>
      <path d="M 8.203125 72.90625 
L 55.078125 72.90625 
L 55.078125 68.703125 
L 28.609375 0 
L 18.3125 0 
L 43.21875 64.59375 
L 8.203125 64.59375 
z
" id="DejaVuSans-55"/>
      <path d="M 40.578125 39.3125 
Q 47.65625 37.796875 51.625 33 
Q 55.609375 28.21875 55.609375 21.1875 
Q 55.609375 10.40625 48.1875 4.484375 
Q 40.765625 -1.421875 27.09375 -1.421875 
Q 22.515625 -1.421875 17.65625 -0.515625 
Q 12.796875 0.390625 7.625 2.203125 
L 7.625 11.71875 
Q 11.71875 9.328125 16.59375 8.109375 
Q 21.484375 6.890625 26.8125 6.890625 
Q 36.078125 6.890625 40.9375 10.546875 
Q 45.796875 14.203125 45.796875 21.1875 
Q 45.796875 27.640625 41.28125 31.265625 
Q 36.765625 34.90625 28.71875 34.90625 
L 20.21875 34.90625 
L 20.21875 43.015625 
L 29.109375 43.015625 
Q 36.375 43.015625 40.234375 45.921875 
Q 44.09375 48.828125 44.09375 54.296875 
Q 44.09375 59.90625 40.109375 62.90625 
Q 36.140625 65.921875 28.71875 65.921875 
Q 24.65625 65.921875 20.015625 65.03125 
Q 15.375 64.15625 9.8125 62.3125 
L 9.8125 71.09375 
Q 15.4375 72.65625 20.34375 73.4375 
Q 25.25 74.21875 29.59375 74.21875 
Q 40.828125 74.21875 47.359375 69.109375 
Q 53.90625 64.015625 53.90625 55.328125 
Q 53.90625 49.265625 50.4375 45.09375 
Q 46.96875 40.921875 40.578125 39.3125 
z
" id="DejaVuSans-51"/>
     </defs>
     <use xlink:href="#DejaVuSans-118"/>
     <use x="59.179688" xlink:href="#DejaVuSans-50"/>
     <use x="122.802734" xlink:href="#DejaVuSans-46"/>
     <use x="154.589844" xlink:href="#DejaVuSans-52"/>
     <use x="218.212891" xlink:href="#DejaVuSans-46"/>
     <use x="250" xlink:href="#DejaVuSans-49"/>
     <use x="313.623047" xlink:href="#DejaVuSans-57"/>
     <use x="377.246094" xlink:href="#DejaVuSans-44"/>
     <use x="409.033203" xlink:href="#DejaVuSans-32"/>
     <use x="440.820312" xlink:href="#DejaVuSans-104"/>
     <use x="504.199219" xlink:href="#DejaVuSans-118"/>
     <use x="560.753906" xlink:href="#DejaVuSans-45"/>
     <use x="596.837891" xlink:href="#DejaVuSans-104"/>
     <use x="660.216797" xlink:href="#DejaVuSans-97"/>
     <use x="721.496094" xlink:href="#DejaVuSans-115"/>
     <use x="773.595703" xlink:href="#DejaVuSans-104"/>
     <use x="836.974609" xlink:href="#DejaVuSans-61"/>
     <use x="920.763672" xlink:href="#DejaVuSans-102"/>
     <use x="955.96875" xlink:href="#DejaVuSans-102"/>
     <use x="991.173828" xlink:href="#DejaVuSans-48"/>
     <use x="1054.796875" xlink:href="#DejaVuSans-101"/>
     <use x="1116.320312" xlink:href="#DejaVuSans-55"/>
     <use x="1179.943359" xlink:href="#DejaVuSans-49"/>
     <use x="1243.566406" xlink:href="#DejaVuSans-101"/>
     <use x="1305.089844" xlink:href="#DejaVuSans-56"/>
     <use x="1368.712891" xlink:href="#DejaVuSans-99"/>
     <use x="1423.693359" xlink:href="#DejaVuSans-100"/>
     <use x="1487.169922" xlink:href="#DejaVuSans-57"/>
     <use x="1550.792969" xlink:href="#DejaVuSans-55"/>
     <use x="1614.416016" xlink:href="#DejaVuSans-56"/>
     <use x="1678.039062" xlink:href="#DejaVuSans-51"/>
     <use x="1741.662109" xlink:href="#DejaVuSans-55"/>
     <use x="1805.285156" xlink:href="#DejaVuSans-51"/>
    </g>
   </g>
   <g id="text_19">
    <!-- 15 sep. Ellipsoid/Diff. Powers -->
    <g transform="translate(54.761187 21.648)scale(0.2 -0.2)">
     <defs>
      <path d="M 19.671875 64.796875 
L 19.671875 37.40625 
L 32.078125 37.40625 
Q 38.96875 37.40625 42.71875 40.96875 
Q 46.484375 44.53125 46.484375 51.125 
Q 46.484375 57.671875 42.71875 61.234375 
Q 38.96875 64.796875 32.078125 64.796875 
z
M 9.8125 72.90625 
L 32.078125 72.90625 
Q 44.34375 72.90625 50.609375 67.359375 
Q 56.890625 61.8125 56.890625 51.125 
Q 56.890625 40.328125 50.609375 34.8125 
Q 44.34375 29.296875 32.078125 29.296875 
L 19.671875 29.296875 
L 19.671875 0 
L 9.8125 0 
z
" id="DejaVuSans-80"/>
      <path d="M 4.203125 54.6875 
L 13.1875 54.6875 
L 24.421875 12.015625 
L 35.59375 54.6875 
L 46.1875 54.6875 
L 57.421875 12.015625 
L 68.609375 54.6875 
L 77.59375 54.6875 
L 63.28125 0 
L 52.6875 0 
L 40.921875 44.828125 
L 29.109375 0 
L 18.5 0 
z
" id="DejaVuSans-119"/>
     </defs>
     <use xlink:href="#DejaVuSans-49"/>
     <use x="63.623047" xlink:href="#DejaVuSans-53"/>
     <use x="127.246094" xlink:href="#DejaVuSans-32"/>
     <use x="159.033203" xlink:href="#DejaVuSans-115"/>
     <use x="211.132812" xlink:href="#DejaVuSans-101"/>
     <use x="272.65625" xlink:href="#DejaVuSans-112"/>
     <use x="336.132812" xlink:href="#DejaVuSans-46"/>
     <use x="367.919922" xlink:href="#DejaVuSans-32"/>
     <use x="399.707031" xlink:href="#DejaVuSans-69"/>
     <use x="462.890625" xlink:href="#DejaVuSans-108"/>
     <use x="490.673828" xlink:href="#DejaVuSans-108"/>
     <use x="518.457031" xlink:href="#DejaVuSans-105"/>
     <use x="546.240234" xlink:href="#DejaVuSans-112"/>
     <use x="609.716797" xlink:href="#DejaVuSans-115"/>
     <use x="661.816406" xlink:href="#DejaVuSans-111"/>
     <use x="722.998047" xlink:href="#DejaVuSans-105"/>
     <use x="750.78125" xlink:href="#DejaVuSans-100"/>
     <use x="814.257812" xlink:href="#DejaVuSans-47"/>
     <use x="847.949219" xlink:href="#DejaVuSans-68"/>
     <use x="924.951172" xlink:href="#DejaVuSans-105"/>
     <use x="952.734375" xlink:href="#DejaVuSans-102"/>
     <use x="987.939453" xlink:href="#DejaVuSans-102"/>
     <use x="1015.894531" xlink:href="#DejaVuSans-46"/>
     <use x="1047.681641" xlink:href="#DejaVuSans-32"/>
     <use x="1079.46875" xlink:href="#DejaVuSans-80"/>
     <use x="1136.146484" xlink:href="#DejaVuSans-111"/>
     <use x="1197.328125" xlink:href="#DejaVuSans-119"/>
     <use x="1279.115234" xlink:href="#DejaVuSans-101"/>
     <use x="1340.638672" xlink:href="#DejaVuSans-114"/>
     <use x="1381.751953" xlink:href="#DejaVuSans-115"/>
    </g>
   </g>
  </g>
 </g>
 <defs>
  <clipPath id="pf042f870c1">
   <rect height="271.296" width="281.088" x="57.6" y="27.648"/>
  </clipPath>
 </defs>
</svg>
