<?xml version="1.0" encoding="utf-8" standalone="no"?>
<!DOCTYPE svg PUBLIC "-//W3C//DTD SVG 1.1//EN"
  "http://www.w3.org/Graphics/SVG/1.1/DTD/svg11.dtd">
<!-- Created with matplotlib (https://matplotlib.org/) -->
<svg height="345.6pt" version="1.1" viewBox="0 0 460.8 345.6" width="460.8pt" xmlns="http://www.w3.org/2000/svg" xmlns:xlink="http://www.w3.org/1999/xlink">
 <metadata>
  <rdf:RDF xmlns:cc="http://creativecommons.org/ns#" xmlns:dc="http://purl.org/dc/elements/1.1/" xmlns:rdf="http://www.w3.org/1999/02/22-rdf-syntax-ns#">
   <cc:Work>
    <dc:type rdf:resource="http://purl.org/dc/dcmitype/StillImage"/>
    <dc:date>2021-04-26T15:04:00.143745</dc:date>
    <dc:format>image/svg+xml</dc:format>
    <dc:creator>
     <cc:Agent>
      <dc:title>Matplotlib v3.3.2, https://matplotlib.org/</dc:title>
     </cc:Agent>
    </dc:creator>
   </cc:Work>
  </rdf:RDF>
 </metadata>
 <defs>
  <style type="text/css">*{stroke-linecap:butt;stroke-linejoin:round;}</style>
 </defs>
 <g id="figure_1">
  <g id="patch_1">
   <path d="M 0 345.6 
L 460.8 345.6 
L 460.8 0 
L 0 0 
z
" style="fill:#ffffff;"/>
  </g>
  <g id="axes_1">
   <g id="patch_2">
    <path d="M 57.6 298.944 
L 338.688 298.944 
L 338.688 27.648 
L 57.6 27.648 
z
" style="fill:#ffffff;"/>
   </g>
   <g id="line2d_1">
    <path d="M 17.444571 298.944 
L 17.444571 294.312795 
L 29.53256 294.312795 
L 29.53256 285.050384 
L 60.779557 285.050384 
L 60.779557 275.787974 
L 79.938565 275.787974 
L 79.938565 271.156769 
L 90.242884 271.156769 
L 90.242884 257.263153 
L 96.489848 257.263153 
L 96.489848 248.000743 
L 103.870632 248.000743 
L 103.870632 243.369538 
L 116.797786 243.369538 
L 116.797786 234.107127 
L 125.717918 234.107127 
L 125.717918 220.213512 
L 129.88095 220.213512 
L 129.88095 210.951101 
L 135.800036 210.951101 
L 135.800036 201.688691 
L 141.676303 201.688691 
L 141.676303 192.426281 
L 148.23877 192.426281 
L 148.23877 187.795075 
L 154.262987 187.795075 
L 154.262987 173.90146 
L 161.451963 173.90146 
L 161.451963 169.270255 
L 167.747913 169.270255 
L 167.747913 155.376639 
L 173.508272 155.376639 
L 173.508272 146.114229 
L 186.449283 146.114229 
L 186.449283 141.483024 
L 194.121607 141.483024 
L 194.121607 127.589408 
L 201.606487 127.589408 
L 201.606487 122.958203 
L 208.6998 122.958203 
L 208.6998 109.064587 
L 214.909113 109.064587 
L 214.909113 99.802177 
L 220.793357 99.802177 
L 220.793357 90.539766 
L 227.030493 90.539766 
L 227.030493 85.908561 
L 233.348891 85.908561 
L 233.348891 76.646151 
L 240.206575 76.646151 
L 240.206575 62.752535 
L 338.688 62.752535 
" style="fill:none;stroke:#f5deb3;stroke-linecap:square;stroke-width:4;"/>
   </g>
   <g id="line2d_2">
    <defs>
     <path d="M 0 7.778175 
L 7.778175 0 
L 0 -7.778175 
L -7.778175 0 
z
" id="m2d0f87eb1e" style="stroke:#f5deb3;stroke-linejoin:miter;stroke-width:1.5;"/>
    </defs>
    <g>
     <use style="fill:#f5deb3;stroke:#f5deb3;stroke-linejoin:miter;stroke-width:1.5;" x="60.779557" xlink:href="#m2d0f87eb1e" y="275.787974"/>
     <use style="fill:#f5deb3;stroke:#f5deb3;stroke-linejoin:miter;stroke-width:1.5;" x="129.88095" xlink:href="#m2d0f87eb1e" y="220.213512"/>
     <use style="fill:#f5deb3;stroke:#f5deb3;stroke-linejoin:miter;stroke-width:1.5;" x="173.508272" xlink:href="#m2d0f87eb1e" y="146.114229"/>
     <use style="fill:#f5deb3;stroke:#f5deb3;stroke-linejoin:miter;stroke-width:1.5;" x="240.206575" xlink:href="#m2d0f87eb1e" y="76.646151"/>
     <use style="fill:#f5deb3;stroke:#f5deb3;stroke-linejoin:miter;stroke-width:1.5;" x="240.206575" xlink:href="#m2d0f87eb1e" y="62.752535"/>
     <use style="fill:#f5deb3;stroke:#f5deb3;stroke-linejoin:miter;stroke-width:1.5;" x="338.688" xlink:href="#m2d0f87eb1e" y="62.752535"/>
    </g>
   </g>
   <g id="line2d_3">
    <path style="fill:none;stroke:#f5deb3;stroke-linecap:square;stroke-width:4;"/>
    <g/>
   </g>
   <g id="line2d_4">
    <path d="M 338.688 62.752535 
L 369.60768 35.706297 
" style="fill:none;stroke:#f5deb3;stroke-linecap:square;stroke-width:4;"/>
    <g>
     <use style="fill:#f5deb3;stroke:#f5deb3;stroke-linejoin:miter;stroke-width:1.5;" x="338.688" xlink:href="#m2d0f87eb1e" y="62.752535"/>
     <use style="fill:#f5deb3;stroke:#f5deb3;stroke-linejoin:miter;stroke-width:1.5;" x="369.60768" xlink:href="#m2d0f87eb1e" y="35.706297"/>
    </g>
   </g>
   <g id="matplotlib.axis_1">
    <g id="xtick_1">
     <g id="line2d_5">
      <path clip-path="url(#p387589e7ea)" d="M 57.6 298.944 
L 57.6 27.648 
" style="fill:none;stroke:#b0b0b0;stroke-linecap:square;stroke-width:0.8;"/>
     </g>
     <g id="line2d_6">
      <defs>
       <path d="M 0 0 
L 0 3.5 
" id="m9df08f20e6" style="stroke:#000000;stroke-width:0.8;"/>
      </defs>
      <g>
       <use style="stroke:#000000;stroke-width:0.8;" x="57.6" xlink:href="#m9df08f20e6" y="298.944"/>
      </g>
     </g>
     <g id="text_1">
      <!-- 0 -->
      <g transform="translate(51.2375 321.140875)scale(0.2 -0.2)">
       <defs>
        <path d="M 31.78125 66.40625 
Q 24.171875 66.40625 20.328125 58.90625 
Q 16.5 51.421875 16.5 36.375 
Q 16.5 21.390625 20.328125 13.890625 
Q 24.171875 6.390625 31.78125 6.390625 
Q 39.453125 6.390625 43.28125 13.890625 
Q 47.125 21.390625 47.125 36.375 
Q 47.125 51.421875 43.28125 58.90625 
Q 39.453125 66.40625 31.78125 66.40625 
z
M 31.78125 74.21875 
Q 44.046875 74.21875 50.515625 64.515625 
Q 56.984375 54.828125 56.984375 36.375 
Q 56.984375 17.96875 50.515625 8.265625 
Q 44.046875 -1.421875 31.78125 -1.421875 
Q 19.53125 -1.421875 13.0625 8.265625 
Q 6.59375 17.96875 6.59375 36.375 
Q 6.59375 54.828125 13.0625 64.515625 
Q 19.53125 74.21875 31.78125 74.21875 
z
" id="DejaVuSans-48"/>
       </defs>
       <use xlink:href="#DejaVuSans-48"/>
      </g>
     </g>
    </g>
    <g id="xtick_2">
     <g id="line2d_7">
      <path clip-path="url(#p387589e7ea)" d="M 137.910857 298.944 
L 137.910857 27.648 
" style="fill:none;stroke:#b0b0b0;stroke-linecap:square;stroke-width:0.8;"/>
     </g>
     <g id="line2d_8">
      <g>
       <use style="stroke:#000000;stroke-width:0.8;" x="137.910857" xlink:href="#m9df08f20e6" y="298.944"/>
      </g>
     </g>
     <g id="text_2">
      <!-- 2 -->
      <g transform="translate(131.548357 321.140875)scale(0.2 -0.2)">
       <defs>
        <path d="M 19.1875 8.296875 
L 53.609375 8.296875 
L 53.609375 0 
L 7.328125 0 
L 7.328125 8.296875 
Q 12.9375 14.109375 22.625 23.890625 
Q 32.328125 33.6875 34.8125 36.53125 
Q 39.546875 41.84375 41.421875 45.53125 
Q 43.3125 49.21875 43.3125 52.78125 
Q 43.3125 58.59375 39.234375 62.25 
Q 35.15625 65.921875 28.609375 65.921875 
Q 23.96875 65.921875 18.8125 64.3125 
Q 13.671875 62.703125 7.8125 59.421875 
L 7.8125 69.390625 
Q 13.765625 71.78125 18.9375 73 
Q 24.125 74.21875 28.421875 74.21875 
Q 39.75 74.21875 46.484375 68.546875 
Q 53.21875 62.890625 53.21875 53.421875 
Q 53.21875 48.921875 51.53125 44.890625 
Q 49.859375 40.875 45.40625 35.40625 
Q 44.1875 33.984375 37.640625 27.21875 
Q 31.109375 20.453125 19.1875 8.296875 
z
" id="DejaVuSans-50"/>
       </defs>
       <use xlink:href="#DejaVuSans-50"/>
      </g>
     </g>
    </g>
    <g id="xtick_3">
     <g id="line2d_9">
      <path clip-path="url(#p387589e7ea)" d="M 218.221714 298.944 
L 218.221714 27.648 
" style="fill:none;stroke:#b0b0b0;stroke-linecap:square;stroke-width:0.8;"/>
     </g>
     <g id="line2d_10">
      <g>
       <use style="stroke:#000000;stroke-width:0.8;" x="218.221714" xlink:href="#m9df08f20e6" y="298.944"/>
      </g>
     </g>
     <g id="text_3">
      <!-- 4 -->
      <g transform="translate(211.859214 321.140875)scale(0.2 -0.2)">
       <defs>
        <path d="M 37.796875 64.3125 
L 12.890625 25.390625 
L 37.796875 25.390625 
z
M 35.203125 72.90625 
L 47.609375 72.90625 
L 47.609375 25.390625 
L 58.015625 25.390625 
L 58.015625 17.1875 
L 47.609375 17.1875 
L 47.609375 0 
L 37.796875 0 
L 37.796875 17.1875 
L 4.890625 17.1875 
L 4.890625 26.703125 
z
" id="DejaVuSans-52"/>
       </defs>
       <use xlink:href="#DejaVuSans-52"/>
      </g>
     </g>
    </g>
    <g id="xtick_4">
     <g id="line2d_11">
      <path clip-path="url(#p387589e7ea)" d="M 298.532571 298.944 
L 298.532571 27.648 
" style="fill:none;stroke:#b0b0b0;stroke-linecap:square;stroke-width:0.8;"/>
     </g>
     <g id="line2d_12">
      <g>
       <use style="stroke:#000000;stroke-width:0.8;" x="298.532571" xlink:href="#m9df08f20e6" y="298.944"/>
      </g>
     </g>
     <g id="text_4">
      <!-- 6 -->
      <g transform="translate(292.170071 321.140875)scale(0.2 -0.2)">
       <defs>
        <path d="M 33.015625 40.375 
Q 26.375 40.375 22.484375 35.828125 
Q 18.609375 31.296875 18.609375 23.390625 
Q 18.609375 15.53125 22.484375 10.953125 
Q 26.375 6.390625 33.015625 6.390625 
Q 39.65625 6.390625 43.53125 10.953125 
Q 47.40625 15.53125 47.40625 23.390625 
Q 47.40625 31.296875 43.53125 35.828125 
Q 39.65625 40.375 33.015625 40.375 
z
M 52.59375 71.296875 
L 52.59375 62.3125 
Q 48.875 64.0625 45.09375 64.984375 
Q 41.3125 65.921875 37.59375 65.921875 
Q 27.828125 65.921875 22.671875 59.328125 
Q 17.53125 52.734375 16.796875 39.40625 
Q 19.671875 43.65625 24.015625 45.921875 
Q 28.375 48.1875 33.59375 48.1875 
Q 44.578125 48.1875 50.953125 41.515625 
Q 57.328125 34.859375 57.328125 23.390625 
Q 57.328125 12.15625 50.6875 5.359375 
Q 44.046875 -1.421875 33.015625 -1.421875 
Q 20.359375 -1.421875 13.671875 8.265625 
Q 6.984375 17.96875 6.984375 36.375 
Q 6.984375 53.65625 15.1875 63.9375 
Q 23.390625 74.21875 37.203125 74.21875 
Q 40.921875 74.21875 44.703125 73.484375 
Q 48.484375 72.75 52.59375 71.296875 
z
" id="DejaVuSans-54"/>
       </defs>
       <use xlink:href="#DejaVuSans-54"/>
      </g>
     </g>
    </g>
    <g id="xtick_5">
     <g id="line2d_13">
      <path clip-path="url(#p387589e7ea)" d="M 97.755429 298.944 
L 97.755429 27.648 
" style="fill:none;stroke:#b0b0b0;stroke-linecap:square;stroke-width:0.8;"/>
     </g>
     <g id="line2d_14">
      <defs>
       <path d="M 0 0 
L 0 2 
" id="m712b2e4061" style="stroke:#000000;stroke-width:0.6;"/>
      </defs>
      <g>
       <use style="stroke:#000000;stroke-width:0.6;" x="97.755429" xlink:href="#m712b2e4061" y="298.944"/>
      </g>
     </g>
    </g>
    <g id="xtick_6">
     <g id="line2d_15">
      <path clip-path="url(#p387589e7ea)" d="M 178.066286 298.944 
L 178.066286 27.648 
" style="fill:none;stroke:#b0b0b0;stroke-linecap:square;stroke-width:0.8;"/>
     </g>
     <g id="line2d_16">
      <g>
       <use style="stroke:#000000;stroke-width:0.6;" x="178.066286" xlink:href="#m712b2e4061" y="298.944"/>
      </g>
     </g>
    </g>
    <g id="xtick_7">
     <g id="line2d_17">
      <path clip-path="url(#p387589e7ea)" d="M 258.377143 298.944 
L 258.377143 27.648 
" style="fill:none;stroke:#b0b0b0;stroke-linecap:square;stroke-width:0.8;"/>
     </g>
     <g id="line2d_18">
      <g>
       <use style="stroke:#000000;stroke-width:0.6;" x="258.377143" xlink:href="#m712b2e4061" y="298.944"/>
      </g>
     </g>
    </g>
    <g id="xtick_8">
     <g id="line2d_19">
      <path clip-path="url(#p387589e7ea)" d="M 338.688 298.944 
L 338.688 27.648 
" style="fill:none;stroke:#b0b0b0;stroke-linecap:square;stroke-width:0.8;"/>
     </g>
     <g id="line2d_20">
      <g>
       <use style="stroke:#000000;stroke-width:0.6;" x="338.688" xlink:href="#m712b2e4061" y="298.944"/>
      </g>
     </g>
    </g>
    <g id="text_5">
     <!-- log10(# f-evals / dimension) -->
     <g transform="translate(77.764078 342.217594)scale(0.17 -0.17)">
      <defs>
       <path d="M 9.421875 75.984375 
L 18.40625 75.984375 
L 18.40625 0 
L 9.421875 0 
z
" id="DejaVuSans-108"/>
       <path d="M 30.609375 48.390625 
Q 23.390625 48.390625 19.1875 42.75 
Q 14.984375 37.109375 14.984375 27.296875 
Q 14.984375 17.484375 19.15625 11.84375 
Q 23.34375 6.203125 30.609375 6.203125 
Q 37.796875 6.203125 41.984375 11.859375 
Q 46.1875 17.53125 46.1875 27.296875 
Q 46.1875 37.015625 41.984375 42.703125 
Q 37.796875 48.390625 30.609375 48.390625 
z
M 30.609375 56 
Q 42.328125 56 49.015625 48.375 
Q 55.71875 40.765625 55.71875 27.296875 
Q 55.71875 13.875 49.015625 6.21875 
Q 42.328125 -1.421875 30.609375 -1.421875 
Q 18.84375 -1.421875 12.171875 6.21875 
Q 5.515625 13.875 5.515625 27.296875 
Q 5.515625 40.765625 12.171875 48.375 
Q 18.84375 56 30.609375 56 
z
" id="DejaVuSans-111"/>
       <path d="M 45.40625 27.984375 
Q 45.40625 37.75 41.375 43.109375 
Q 37.359375 48.484375 30.078125 48.484375 
Q 22.859375 48.484375 18.828125 43.109375 
Q 14.796875 37.75 14.796875 27.984375 
Q 14.796875 18.265625 18.828125 12.890625 
Q 22.859375 7.515625 30.078125 7.515625 
Q 37.359375 7.515625 41.375 12.890625 
Q 45.40625 18.265625 45.40625 27.984375 
z
M 54.390625 6.78125 
Q 54.390625 -7.171875 48.1875 -13.984375 
Q 42 -20.796875 29.203125 -20.796875 
Q 24.46875 -20.796875 20.265625 -20.09375 
Q 16.0625 -19.390625 12.109375 -17.921875 
L 12.109375 -9.1875 
Q 16.0625 -11.328125 19.921875 -12.34375 
Q 23.78125 -13.375 27.78125 -13.375 
Q 36.625 -13.375 41.015625 -8.765625 
Q 45.40625 -4.15625 45.40625 5.171875 
L 45.40625 9.625 
Q 42.625 4.78125 38.28125 2.390625 
Q 33.9375 0 27.875 0 
Q 17.828125 0 11.671875 7.65625 
Q 5.515625 15.328125 5.515625 27.984375 
Q 5.515625 40.671875 11.671875 48.328125 
Q 17.828125 56 27.875 56 
Q 33.9375 56 38.28125 53.609375 
Q 42.625 51.21875 45.40625 46.390625 
L 45.40625 54.6875 
L 54.390625 54.6875 
z
" id="DejaVuSans-103"/>
       <path d="M 12.40625 8.296875 
L 28.515625 8.296875 
L 28.515625 63.921875 
L 10.984375 60.40625 
L 10.984375 69.390625 
L 28.421875 72.90625 
L 38.28125 72.90625 
L 38.28125 8.296875 
L 54.390625 8.296875 
L 54.390625 0 
L 12.40625 0 
z
" id="DejaVuSans-49"/>
       <path d="M 31 75.875 
Q 24.46875 64.65625 21.28125 53.65625 
Q 18.109375 42.671875 18.109375 31.390625 
Q 18.109375 20.125 21.3125 9.0625 
Q 24.515625 -2 31 -13.1875 
L 23.1875 -13.1875 
Q 15.875 -1.703125 12.234375 9.375 
Q 8.59375 20.453125 8.59375 31.390625 
Q 8.59375 42.28125 12.203125 53.3125 
Q 15.828125 64.359375 23.1875 75.875 
z
" id="DejaVuSans-40"/>
       <path d="M 51.125 44 
L 36.921875 44 
L 32.8125 27.6875 
L 47.125 27.6875 
z
M 43.796875 71.78125 
L 38.71875 51.515625 
L 52.984375 51.515625 
L 58.109375 71.78125 
L 65.921875 71.78125 
L 60.890625 51.515625 
L 76.125 51.515625 
L 76.125 44 
L 58.984375 44 
L 54.984375 27.6875 
L 70.515625 27.6875 
L 70.515625 20.21875 
L 53.078125 20.21875 
L 48 0 
L 40.1875 0 
L 45.21875 20.21875 
L 30.90625 20.21875 
L 25.875 0 
L 18.015625 0 
L 23.09375 20.21875 
L 7.71875 20.21875 
L 7.71875 27.6875 
L 24.90625 27.6875 
L 29 44 
L 13.28125 44 
L 13.28125 51.515625 
L 30.90625 51.515625 
L 35.890625 71.78125 
z
" id="DejaVuSans-35"/>
       <path id="DejaVuSans-32"/>
       <path d="M 37.109375 75.984375 
L 37.109375 68.5 
L 28.515625 68.5 
Q 23.6875 68.5 21.796875 66.546875 
Q 19.921875 64.59375 19.921875 59.515625 
L 19.921875 54.6875 
L 34.71875 54.6875 
L 34.71875 47.703125 
L 19.921875 47.703125 
L 19.921875 0 
L 10.890625 0 
L 10.890625 47.703125 
L 2.296875 47.703125 
L 2.296875 54.6875 
L 10.890625 54.6875 
L 10.890625 58.5 
Q 10.890625 67.625 15.140625 71.796875 
Q 19.390625 75.984375 28.609375 75.984375 
z
" id="DejaVuSans-102"/>
       <path d="M 4.890625 31.390625 
L 31.203125 31.390625 
L 31.203125 23.390625 
L 4.890625 23.390625 
z
" id="DejaVuSans-45"/>
       <path d="M 56.203125 29.59375 
L 56.203125 25.203125 
L 14.890625 25.203125 
Q 15.484375 15.921875 20.484375 11.0625 
Q 25.484375 6.203125 34.421875 6.203125 
Q 39.59375 6.203125 44.453125 7.46875 
Q 49.3125 8.734375 54.109375 11.28125 
L 54.109375 2.78125 
Q 49.265625 0.734375 44.1875 -0.34375 
Q 39.109375 -1.421875 33.890625 -1.421875 
Q 20.796875 -1.421875 13.15625 6.1875 
Q 5.515625 13.8125 5.515625 26.8125 
Q 5.515625 40.234375 12.765625 48.109375 
Q 20.015625 56 32.328125 56 
Q 43.359375 56 49.78125 48.890625 
Q 56.203125 41.796875 56.203125 29.59375 
z
M 47.21875 32.234375 
Q 47.125 39.59375 43.09375 43.984375 
Q 39.0625 48.390625 32.421875 48.390625 
Q 24.90625 48.390625 20.390625 44.140625 
Q 15.875 39.890625 15.1875 32.171875 
z
" id="DejaVuSans-101"/>
       <path d="M 2.984375 54.6875 
L 12.5 54.6875 
L 29.59375 8.796875 
L 46.6875 54.6875 
L 56.203125 54.6875 
L 35.6875 0 
L 23.484375 0 
z
" id="DejaVuSans-118"/>
       <path d="M 34.28125 27.484375 
Q 23.390625 27.484375 19.1875 25 
Q 14.984375 22.515625 14.984375 16.5 
Q 14.984375 11.71875 18.140625 8.90625 
Q 21.296875 6.109375 26.703125 6.109375 
Q 34.1875 6.109375 38.703125 11.40625 
Q 43.21875 16.703125 43.21875 25.484375 
L 43.21875 27.484375 
z
M 52.203125 31.203125 
L 52.203125 0 
L 43.21875 0 
L 43.21875 8.296875 
Q 40.140625 3.328125 35.546875 0.953125 
Q 30.953125 -1.421875 24.3125 -1.421875 
Q 15.921875 -1.421875 10.953125 3.296875 
Q 6 8.015625 6 15.921875 
Q 6 25.140625 12.171875 29.828125 
Q 18.359375 34.515625 30.609375 34.515625 
L 43.21875 34.515625 
L 43.21875 35.40625 
Q 43.21875 41.609375 39.140625 45 
Q 35.0625 48.390625 27.6875 48.390625 
Q 23 48.390625 18.546875 47.265625 
Q 14.109375 46.140625 10.015625 43.890625 
L 10.015625 52.203125 
Q 14.9375 54.109375 19.578125 55.046875 
Q 24.21875 56 28.609375 56 
Q 40.484375 56 46.34375 49.84375 
Q 52.203125 43.703125 52.203125 31.203125 
z
" id="DejaVuSans-97"/>
       <path d="M 44.28125 53.078125 
L 44.28125 44.578125 
Q 40.484375 46.53125 36.375 47.5 
Q 32.28125 48.484375 27.875 48.484375 
Q 21.1875 48.484375 17.84375 46.4375 
Q 14.5 44.390625 14.5 40.28125 
Q 14.5 37.15625 16.890625 35.375 
Q 19.28125 33.59375 26.515625 31.984375 
L 29.59375 31.296875 
Q 39.15625 29.25 43.1875 25.515625 
Q 47.21875 21.78125 47.21875 15.09375 
Q 47.21875 7.46875 41.1875 3.015625 
Q 35.15625 -1.421875 24.609375 -1.421875 
Q 20.21875 -1.421875 15.453125 -0.5625 
Q 10.6875 0.296875 5.421875 2 
L 5.421875 11.28125 
Q 10.40625 8.6875 15.234375 7.390625 
Q 20.0625 6.109375 24.8125 6.109375 
Q 31.15625 6.109375 34.5625 8.28125 
Q 37.984375 10.453125 37.984375 14.40625 
Q 37.984375 18.0625 35.515625 20.015625 
Q 33.0625 21.96875 24.703125 23.78125 
L 21.578125 24.515625 
Q 13.234375 26.265625 9.515625 29.90625 
Q 5.8125 33.546875 5.8125 39.890625 
Q 5.8125 47.609375 11.28125 51.796875 
Q 16.75 56 26.8125 56 
Q 31.78125 56 36.171875 55.265625 
Q 40.578125 54.546875 44.28125 53.078125 
z
" id="DejaVuSans-115"/>
       <path d="M 25.390625 72.90625 
L 33.6875 72.90625 
L 8.296875 -9.28125 
L 0 -9.28125 
z
" id="DejaVuSans-47"/>
       <path d="M 45.40625 46.390625 
L 45.40625 75.984375 
L 54.390625 75.984375 
L 54.390625 0 
L 45.40625 0 
L 45.40625 8.203125 
Q 42.578125 3.328125 38.25 0.953125 
Q 33.9375 -1.421875 27.875 -1.421875 
Q 17.96875 -1.421875 11.734375 6.484375 
Q 5.515625 14.40625 5.515625 27.296875 
Q 5.515625 40.1875 11.734375 48.09375 
Q 17.96875 56 27.875 56 
Q 33.9375 56 38.25 53.625 
Q 42.578125 51.265625 45.40625 46.390625 
z
M 14.796875 27.296875 
Q 14.796875 17.390625 18.875 11.75 
Q 22.953125 6.109375 30.078125 6.109375 
Q 37.203125 6.109375 41.296875 11.75 
Q 45.40625 17.390625 45.40625 27.296875 
Q 45.40625 37.203125 41.296875 42.84375 
Q 37.203125 48.484375 30.078125 48.484375 
Q 22.953125 48.484375 18.875 42.84375 
Q 14.796875 37.203125 14.796875 27.296875 
z
" id="DejaVuSans-100"/>
       <path d="M 9.421875 54.6875 
L 18.40625 54.6875 
L 18.40625 0 
L 9.421875 0 
z
M 9.421875 75.984375 
L 18.40625 75.984375 
L 18.40625 64.59375 
L 9.421875 64.59375 
z
" id="DejaVuSans-105"/>
       <path d="M 52 44.1875 
Q 55.375 50.25 60.0625 53.125 
Q 64.75 56 71.09375 56 
Q 79.640625 56 84.28125 50.015625 
Q 88.921875 44.046875 88.921875 33.015625 
L 88.921875 0 
L 79.890625 0 
L 79.890625 32.71875 
Q 79.890625 40.578125 77.09375 44.375 
Q 74.3125 48.1875 68.609375 48.1875 
Q 61.625 48.1875 57.5625 43.546875 
Q 53.515625 38.921875 53.515625 30.90625 
L 53.515625 0 
L 44.484375 0 
L 44.484375 32.71875 
Q 44.484375 40.625 41.703125 44.40625 
Q 38.921875 48.1875 33.109375 48.1875 
Q 26.21875 48.1875 22.15625 43.53125 
Q 18.109375 38.875 18.109375 30.90625 
L 18.109375 0 
L 9.078125 0 
L 9.078125 54.6875 
L 18.109375 54.6875 
L 18.109375 46.1875 
Q 21.1875 51.21875 25.484375 53.609375 
Q 29.78125 56 35.6875 56 
Q 41.65625 56 45.828125 52.96875 
Q 50 49.953125 52 44.1875 
z
" id="DejaVuSans-109"/>
       <path d="M 54.890625 33.015625 
L 54.890625 0 
L 45.90625 0 
L 45.90625 32.71875 
Q 45.90625 40.484375 42.875 44.328125 
Q 39.84375 48.1875 33.796875 48.1875 
Q 26.515625 48.1875 22.3125 43.546875 
Q 18.109375 38.921875 18.109375 30.90625 
L 18.109375 0 
L 9.078125 0 
L 9.078125 54.6875 
L 18.109375 54.6875 
L 18.109375 46.1875 
Q 21.34375 51.125 25.703125 53.5625 
Q 30.078125 56 35.796875 56 
Q 45.21875 56 50.046875 50.171875 
Q 54.890625 44.34375 54.890625 33.015625 
z
" id="DejaVuSans-110"/>
       <path d="M 8.015625 75.875 
L 15.828125 75.875 
Q 23.140625 64.359375 26.78125 53.3125 
Q 30.421875 42.28125 30.421875 31.390625 
Q 30.421875 20.453125 26.78125 9.375 
Q 23.140625 -1.703125 15.828125 -13.1875 
L 8.015625 -13.1875 
Q 14.5 -2 17.703125 9.0625 
Q 20.90625 20.125 20.90625 31.390625 
Q 20.90625 42.671875 17.703125 53.65625 
Q 14.5 64.65625 8.015625 75.875 
z
" id="DejaVuSans-41"/>
      </defs>
      <use xlink:href="#DejaVuSans-108"/>
      <use x="27.783203" xlink:href="#DejaVuSans-111"/>
      <use x="88.964844" xlink:href="#DejaVuSans-103"/>
      <use x="152.441406" xlink:href="#DejaVuSans-49"/>
      <use x="216.064453" xlink:href="#DejaVuSans-48"/>
      <use x="279.6875" xlink:href="#DejaVuSans-40"/>
      <use x="318.701172" xlink:href="#DejaVuSans-35"/>
      <use x="402.490234" xlink:href="#DejaVuSans-32"/>
      <use x="434.277344" xlink:href="#DejaVuSans-102"/>
      <use x="463.982422" xlink:href="#DejaVuSans-45"/>
      <use x="500.066406" xlink:href="#DejaVuSans-101"/>
      <use x="561.589844" xlink:href="#DejaVuSans-118"/>
      <use x="620.769531" xlink:href="#DejaVuSans-97"/>
      <use x="682.048828" xlink:href="#DejaVuSans-108"/>
      <use x="709.832031" xlink:href="#DejaVuSans-115"/>
      <use x="761.931641" xlink:href="#DejaVuSans-32"/>
      <use x="793.71875" xlink:href="#DejaVuSans-47"/>
      <use x="827.410156" xlink:href="#DejaVuSans-32"/>
      <use x="859.197266" xlink:href="#DejaVuSans-100"/>
      <use x="922.673828" xlink:href="#DejaVuSans-105"/>
      <use x="950.457031" xlink:href="#DejaVuSans-109"/>
      <use x="1047.869141" xlink:href="#DejaVuSans-101"/>
      <use x="1109.392578" xlink:href="#DejaVuSans-110"/>
      <use x="1172.771484" xlink:href="#DejaVuSans-115"/>
      <use x="1224.871094" xlink:href="#DejaVuSans-105"/>
      <use x="1252.654297" xlink:href="#DejaVuSans-111"/>
      <use x="1313.835938" xlink:href="#DejaVuSans-110"/>
      <use x="1377.214844" xlink:href="#DejaVuSans-41"/>
     </g>
    </g>
   </g>
   <g id="matplotlib.axis_2">
    <g id="ytick_1">
     <g id="line2d_21">
      <path clip-path="url(#p387589e7ea)" d="M 57.6 298.944 
L 338.688 298.944 
" style="fill:none;stroke:#b0b0b0;stroke-linecap:square;stroke-width:0.8;"/>
     </g>
     <g id="line2d_22">
      <defs>
       <path d="M 0 0 
L -3.5 0 
" id="m1317fc4ed4" style="stroke:#000000;stroke-width:0.8;"/>
      </defs>
      <g>
       <use style="stroke:#000000;stroke-width:0.8;" x="57.6" xlink:href="#m1317fc4ed4" y="298.944"/>
      </g>
     </g>
     <g id="text_6">
      <!-- 0.0 -->
      <g transform="translate(25.155 305.02275)scale(0.16 -0.16)">
       <defs>
        <path d="M 10.6875 12.40625 
L 21 12.40625 
L 21 0 
L 10.6875 0 
z
" id="DejaVuSans-46"/>
       </defs>
       <use xlink:href="#DejaVuSans-48"/>
       <use x="63.623047" xlink:href="#DejaVuSans-46"/>
       <use x="95.410156" xlink:href="#DejaVuSans-48"/>
      </g>
     </g>
    </g>
    <g id="ytick_2">
     <g id="line2d_23">
      <path clip-path="url(#p387589e7ea)" d="M 57.6 245.22202 
L 338.688 245.22202 
" style="fill:none;stroke:#b0b0b0;stroke-linecap:square;stroke-width:0.8;"/>
     </g>
     <g id="line2d_24">
      <g>
       <use style="stroke:#000000;stroke-width:0.8;" x="57.6" xlink:href="#m1317fc4ed4" y="245.22202"/>
      </g>
     </g>
     <g id="text_7">
      <!-- 0.2 -->
      <g transform="translate(25.155 251.30077)scale(0.16 -0.16)">
       <use xlink:href="#DejaVuSans-48"/>
       <use x="63.623047" xlink:href="#DejaVuSans-46"/>
       <use x="95.410156" xlink:href="#DejaVuSans-50"/>
      </g>
     </g>
    </g>
    <g id="ytick_3">
     <g id="line2d_25">
      <path clip-path="url(#p387589e7ea)" d="M 57.6 191.50004 
L 338.688 191.50004 
" style="fill:none;stroke:#b0b0b0;stroke-linecap:square;stroke-width:0.8;"/>
     </g>
     <g id="line2d_26">
      <g>
       <use style="stroke:#000000;stroke-width:0.8;" x="57.6" xlink:href="#m1317fc4ed4" y="191.50004"/>
      </g>
     </g>
     <g id="text_8">
      <!-- 0.4 -->
      <g transform="translate(25.155 197.57879)scale(0.16 -0.16)">
       <use xlink:href="#DejaVuSans-48"/>
       <use x="63.623047" xlink:href="#DejaVuSans-46"/>
       <use x="95.410156" xlink:href="#DejaVuSans-52"/>
      </g>
     </g>
    </g>
    <g id="ytick_4">
     <g id="line2d_27">
      <path clip-path="url(#p387589e7ea)" d="M 57.6 137.778059 
L 338.688 137.778059 
" style="fill:none;stroke:#b0b0b0;stroke-linecap:square;stroke-width:0.8;"/>
     </g>
     <g id="line2d_28">
      <g>
       <use style="stroke:#000000;stroke-width:0.8;" x="57.6" xlink:href="#m1317fc4ed4" y="137.778059"/>
      </g>
     </g>
     <g id="text_9">
      <!-- 0.6 -->
      <g transform="translate(25.155 143.856809)scale(0.16 -0.16)">
       <use xlink:href="#DejaVuSans-48"/>
       <use x="63.623047" xlink:href="#DejaVuSans-46"/>
       <use x="95.410156" xlink:href="#DejaVuSans-54"/>
      </g>
     </g>
    </g>
    <g id="ytick_5">
     <g id="line2d_29">
      <path clip-path="url(#p387589e7ea)" d="M 57.6 84.056079 
L 338.688 84.056079 
" style="fill:none;stroke:#b0b0b0;stroke-linecap:square;stroke-width:0.8;"/>
     </g>
     <g id="line2d_30">
      <g>
       <use style="stroke:#000000;stroke-width:0.8;" x="57.6" xlink:href="#m1317fc4ed4" y="84.056079"/>
      </g>
     </g>
     <g id="text_10">
      <!-- 0.8 -->
      <g transform="translate(25.155 90.134829)scale(0.16 -0.16)">
       <defs>
        <path d="M 31.78125 34.625 
Q 24.75 34.625 20.71875 30.859375 
Q 16.703125 27.09375 16.703125 20.515625 
Q 16.703125 13.921875 20.71875 10.15625 
Q 24.75 6.390625 31.78125 6.390625 
Q 38.8125 6.390625 42.859375 10.171875 
Q 46.921875 13.96875 46.921875 20.515625 
Q 46.921875 27.09375 42.890625 30.859375 
Q 38.875 34.625 31.78125 34.625 
z
M 21.921875 38.8125 
Q 15.578125 40.375 12.03125 44.71875 
Q 8.5 49.078125 8.5 55.328125 
Q 8.5 64.0625 14.71875 69.140625 
Q 20.953125 74.21875 31.78125 74.21875 
Q 42.671875 74.21875 48.875 69.140625 
Q 55.078125 64.0625 55.078125 55.328125 
Q 55.078125 49.078125 51.53125 44.71875 
Q 48 40.375 41.703125 38.8125 
Q 48.828125 37.15625 52.796875 32.3125 
Q 56.78125 27.484375 56.78125 20.515625 
Q 56.78125 9.90625 50.3125 4.234375 
Q 43.84375 -1.421875 31.78125 -1.421875 
Q 19.734375 -1.421875 13.25 4.234375 
Q 6.78125 9.90625 6.78125 20.515625 
Q 6.78125 27.484375 10.78125 32.3125 
Q 14.796875 37.15625 21.921875 38.8125 
z
M 18.3125 54.390625 
Q 18.3125 48.734375 21.84375 45.5625 
Q 25.390625 42.390625 31.78125 42.390625 
Q 38.140625 42.390625 41.71875 45.5625 
Q 45.3125 48.734375 45.3125 54.390625 
Q 45.3125 60.0625 41.71875 63.234375 
Q 38.140625 66.40625 31.78125 66.40625 
Q 25.390625 66.40625 21.84375 63.234375 
Q 18.3125 60.0625 18.3125 54.390625 
z
" id="DejaVuSans-56"/>
       </defs>
       <use xlink:href="#DejaVuSans-48"/>
       <use x="63.623047" xlink:href="#DejaVuSans-46"/>
       <use x="95.410156" xlink:href="#DejaVuSans-56"/>
      </g>
     </g>
    </g>
    <g id="ytick_6">
     <g id="line2d_31">
      <path clip-path="url(#p387589e7ea)" d="M 57.6 30.334099 
L 338.688 30.334099 
" style="fill:none;stroke:#b0b0b0;stroke-linecap:square;stroke-width:0.8;"/>
     </g>
     <g id="line2d_32">
      <g>
       <use style="stroke:#000000;stroke-width:0.8;" x="57.6" xlink:href="#m1317fc4ed4" y="30.334099"/>
      </g>
     </g>
     <g id="text_11">
      <!-- 1.0 -->
      <g transform="translate(25.155 36.412849)scale(0.16 -0.16)">
       <use xlink:href="#DejaVuSans-49"/>
       <use x="63.623047" xlink:href="#DejaVuSans-46"/>
       <use x="95.410156" xlink:href="#DejaVuSans-48"/>
      </g>
     </g>
    </g>
    <g id="text_12">
     <!-- Fraction of function,target pairs -->
     <g transform="translate(17.619531 297.681)rotate(-90)scale(0.17 -0.17)">
      <defs>
       <path d="M 9.8125 72.90625 
L 51.703125 72.90625 
L 51.703125 64.59375 
L 19.671875 64.59375 
L 19.671875 43.109375 
L 48.578125 43.109375 
L 48.578125 34.8125 
L 19.671875 34.8125 
L 19.671875 0 
L 9.8125 0 
z
" id="DejaVuSans-70"/>
       <path d="M 41.109375 46.296875 
Q 39.59375 47.171875 37.8125 47.578125 
Q 36.03125 48 33.890625 48 
Q 26.265625 48 22.1875 43.046875 
Q 18.109375 38.09375 18.109375 28.8125 
L 18.109375 0 
L 9.078125 0 
L 9.078125 54.6875 
L 18.109375 54.6875 
L 18.109375 46.1875 
Q 20.953125 51.171875 25.484375 53.578125 
Q 30.03125 56 36.53125 56 
Q 37.453125 56 38.578125 55.875 
Q 39.703125 55.765625 41.0625 55.515625 
z
" id="DejaVuSans-114"/>
       <path d="M 48.78125 52.59375 
L 48.78125 44.1875 
Q 44.96875 46.296875 41.140625 47.34375 
Q 37.3125 48.390625 33.40625 48.390625 
Q 24.65625 48.390625 19.8125 42.84375 
Q 14.984375 37.3125 14.984375 27.296875 
Q 14.984375 17.28125 19.8125 11.734375 
Q 24.65625 6.203125 33.40625 6.203125 
Q 37.3125 6.203125 41.140625 7.25 
Q 44.96875 8.296875 48.78125 10.40625 
L 48.78125 2.09375 
Q 45.015625 0.34375 40.984375 -0.53125 
Q 36.96875 -1.421875 32.421875 -1.421875 
Q 20.0625 -1.421875 12.78125 6.34375 
Q 5.515625 14.109375 5.515625 27.296875 
Q 5.515625 40.671875 12.859375 48.328125 
Q 20.21875 56 33.015625 56 
Q 37.15625 56 41.109375 55.140625 
Q 45.0625 54.296875 48.78125 52.59375 
z
" id="DejaVuSans-99"/>
       <path d="M 18.3125 70.21875 
L 18.3125 54.6875 
L 36.8125 54.6875 
L 36.8125 47.703125 
L 18.3125 47.703125 
L 18.3125 18.015625 
Q 18.3125 11.328125 20.140625 9.421875 
Q 21.96875 7.515625 27.59375 7.515625 
L 36.8125 7.515625 
L 36.8125 0 
L 27.59375 0 
Q 17.1875 0 13.234375 3.875 
Q 9.28125 7.765625 9.28125 18.015625 
L 9.28125 47.703125 
L 2.6875 47.703125 
L 2.6875 54.6875 
L 9.28125 54.6875 
L 9.28125 70.21875 
z
" id="DejaVuSans-116"/>
       <path d="M 8.5 21.578125 
L 8.5 54.6875 
L 17.484375 54.6875 
L 17.484375 21.921875 
Q 17.484375 14.15625 20.5 10.265625 
Q 23.53125 6.390625 29.59375 6.390625 
Q 36.859375 6.390625 41.078125 11.03125 
Q 45.3125 15.671875 45.3125 23.6875 
L 45.3125 54.6875 
L 54.296875 54.6875 
L 54.296875 0 
L 45.3125 0 
L 45.3125 8.40625 
Q 42.046875 3.421875 37.71875 1 
Q 33.40625 -1.421875 27.6875 -1.421875 
Q 18.265625 -1.421875 13.375 4.4375 
Q 8.5 10.296875 8.5 21.578125 
z
M 31.109375 56 
z
" id="DejaVuSans-117"/>
       <path d="M 11.71875 12.40625 
L 22.015625 12.40625 
L 22.015625 4 
L 14.015625 -11.625 
L 7.71875 -11.625 
L 11.71875 4 
z
" id="DejaVuSans-44"/>
       <path d="M 18.109375 8.203125 
L 18.109375 -20.796875 
L 9.078125 -20.796875 
L 9.078125 54.6875 
L 18.109375 54.6875 
L 18.109375 46.390625 
Q 20.953125 51.265625 25.265625 53.625 
Q 29.59375 56 35.59375 56 
Q 45.5625 56 51.78125 48.09375 
Q 58.015625 40.1875 58.015625 27.296875 
Q 58.015625 14.40625 51.78125 6.484375 
Q 45.5625 -1.421875 35.59375 -1.421875 
Q 29.59375 -1.421875 25.265625 0.953125 
Q 20.953125 3.328125 18.109375 8.203125 
z
M 48.6875 27.296875 
Q 48.6875 37.203125 44.609375 42.84375 
Q 40.53125 48.484375 33.40625 48.484375 
Q 26.265625 48.484375 22.1875 42.84375 
Q 18.109375 37.203125 18.109375 27.296875 
Q 18.109375 17.390625 22.1875 11.75 
Q 26.265625 6.109375 33.40625 6.109375 
Q 40.53125 6.109375 44.609375 11.75 
Q 48.6875 17.390625 48.6875 27.296875 
z
" id="DejaVuSans-112"/>
      </defs>
      <use xlink:href="#DejaVuSans-70"/>
      <use x="50.269531" xlink:href="#DejaVuSans-114"/>
      <use x="91.382812" xlink:href="#DejaVuSans-97"/>
      <use x="152.662109" xlink:href="#DejaVuSans-99"/>
      <use x="207.642578" xlink:href="#DejaVuSans-116"/>
      <use x="246.851562" xlink:href="#DejaVuSans-105"/>
      <use x="274.634766" xlink:href="#DejaVuSans-111"/>
      <use x="335.816406" xlink:href="#DejaVuSans-110"/>
      <use x="399.195312" xlink:href="#DejaVuSans-32"/>
      <use x="430.982422" xlink:href="#DejaVuSans-111"/>
      <use x="492.164062" xlink:href="#DejaVuSans-102"/>
      <use x="527.369141" xlink:href="#DejaVuSans-32"/>
      <use x="559.15625" xlink:href="#DejaVuSans-102"/>
      <use x="594.361328" xlink:href="#DejaVuSans-117"/>
      <use x="657.740234" xlink:href="#DejaVuSans-110"/>
      <use x="721.119141" xlink:href="#DejaVuSans-99"/>
      <use x="776.099609" xlink:href="#DejaVuSans-116"/>
      <use x="815.308594" xlink:href="#DejaVuSans-105"/>
      <use x="843.091797" xlink:href="#DejaVuSans-111"/>
      <use x="904.273438" xlink:href="#DejaVuSans-110"/>
      <use x="967.652344" xlink:href="#DejaVuSans-44"/>
      <use x="999.439453" xlink:href="#DejaVuSans-116"/>
      <use x="1038.648438" xlink:href="#DejaVuSans-97"/>
      <use x="1099.927734" xlink:href="#DejaVuSans-114"/>
      <use x="1139.291016" xlink:href="#DejaVuSans-103"/>
      <use x="1202.767578" xlink:href="#DejaVuSans-101"/>
      <use x="1264.291016" xlink:href="#DejaVuSans-116"/>
      <use x="1303.5" xlink:href="#DejaVuSans-32"/>
      <use x="1335.287109" xlink:href="#DejaVuSans-112"/>
      <use x="1398.763672" xlink:href="#DejaVuSans-97"/>
      <use x="1460.042969" xlink:href="#DejaVuSans-105"/>
      <use x="1487.826172" xlink:href="#DejaVuSans-114"/>
      <use x="1528.939453" xlink:href="#DejaVuSans-115"/>
     </g>
    </g>
   </g>
   <g id="line2d_33">
    <defs>
     <path d="M 0 1.5 
C 0.397805 1.5 0.77937 1.341951 1.06066 1.06066 
C 1.341951 0.77937 1.5 0.397805 1.5 0 
C 1.5 -0.397805 1.341951 -0.77937 1.06066 -1.06066 
C 0.77937 -1.341951 0.397805 -1.5 0 -1.5 
C -0.397805 -1.5 -0.77937 -1.341951 -1.06066 -1.06066 
C -1.341951 -0.77937 -1.5 -0.397805 -1.5 0 
C -1.5 0.397805 -1.341951 0.77937 -1.06066 1.06066 
C -0.77937 1.341951 -0.397805 1.5 0 1.5 
z
" id="me607090d58" style="stroke:#f5deb3;"/>
    </defs>
    <g>
     <use style="fill:#f5deb3;stroke:#f5deb3;" x="240.206575" xlink:href="#me607090d58" y="62.752535"/>
     <use style="fill:#f5deb3;stroke:#f5deb3;" x="240.206575" xlink:href="#me607090d58" y="62.752535"/>
    </g>
   </g>
   <g id="line2d_34">
    <defs>
     <path d="M 0 1.5 
C 0.397805 1.5 0.77937 1.341951 1.06066 1.06066 
C 1.341951 0.77937 1.5 0.397805 1.5 0 
C 1.5 -0.397805 1.341951 -0.77937 1.06066 -1.06066 
C 0.77937 -1.341951 0.397805 -1.5 0 -1.5 
C -0.397805 -1.5 -0.77937 -1.341951 -1.06066 -1.06066 
C -1.341951 -0.77937 -1.5 -0.397805 -1.5 0 
C -1.5 0.397805 -1.341951 0.77937 -1.06066 1.06066 
C -0.77937 1.341951 -0.397805 1.5 0 1.5 
z
" id="ma6732b7b05" style="stroke:#000080;"/>
    </defs>
    <g>
     <use style="fill:#000080;stroke:#000080;" x="258.119201" xlink:href="#ma6732b7b05" y="115.085154"/>
     <use style="fill:#000080;stroke:#000080;" x="258.119201" xlink:href="#ma6732b7b05" y="115.085154"/>
    </g>
   </g>
   <g id="line2d_35">
    <path d="M 17.444571 298.944 
L 17.444571 283.661023 
L 55.762588 283.661023 
L 55.762588 283.197902 
L 76.16779 283.197902 
L 76.16779 282.734782 
L 86.683608 282.734782 
L 86.683608 282.271661 
L 89.972502 282.271661 
L 89.972502 281.808541 
L 91.782644 281.808541 
L 91.782644 281.34542 
L 92.969447 281.34542 
L 92.969447 280.8823 
L 94.080605 280.8823 
L 94.080605 280.419179 
L 113.311233 280.419179 
L 113.311233 279.956059 
L 115.269727 279.956059 
L 115.269727 279.492938 
L 129.204706 279.492938 
L 129.204706 279.029818 
L 130.425122 279.029818 
L 130.425122 278.566697 
L 131.004728 278.566697 
L 131.004728 277.640456 
L 131.185181 277.640456 
L 131.185181 277.177336 
L 133.888106 277.177336 
L 133.888106 276.714215 
L 134.364738 276.714215 
L 134.364738 276.251095 
L 139.253002 276.251095 
L 139.253002 275.787974 
L 142.33811 275.787974 
L 142.33811 275.324854 
L 142.818488 275.324854 
L 142.818488 274.861733 
L 143.76623 274.861733 
L 143.76623 274.398612 
L 145.0862 274.398612 
L 145.0862 273.935492 
L 146.548634 273.935492 
L 146.548634 273.472371 
L 146.78088 273.472371 
L 146.78088 273.009251 
L 148.325365 273.009251 
L 148.325365 272.54613 
L 149.744125 272.54613 
L 149.744125 272.08301 
L 150.224095 272.08301 
L 150.224095 271.619889 
L 150.940821 271.619889 
L 150.940821 271.156769 
L 151.763734 271.156769 
L 151.763734 270.693648 
L 152.692105 270.693648 
L 152.692105 270.230528 
L 153.750233 270.230528 
L 153.750233 269.304287 
L 158.625992 269.304287 
L 158.625992 268.378046 
L 158.858379 268.378046 
L 158.858379 267.914925 
L 161.578106 267.914925 
L 161.578106 267.451805 
L 162.112973 267.451805 
L 162.112973 266.525564 
L 163.973442 266.525564 
L 163.973442 266.062443 
L 164.482429 266.062443 
L 164.482429 265.599323 
L 164.854652 265.599323 
L 164.854652 265.136202 
L 165.05806 265.136202 
L 165.05806 264.673082 
L 166.193215 264.673082 
L 166.193215 264.209961 
L 166.530991 264.209961 
L 166.530991 263.746841 
L 166.852399 263.746841 
L 166.935137 262.8206 
L 167.436318 262.8206 
L 167.436318 261.894358 
L 167.68161 261.894358 
L 167.68161 260.968117 
L 167.991998 260.968117 
L 167.991998 260.504997 
L 168.72825 260.504997 
L 168.72825 260.041876 
L 169.085039 260.041876 
L 169.085039 259.115635 
L 170.0833 259.115635 
L 170.0833 258.189394 
L 171.113451 258.189394 
L 171.198983 256.336912 
L 171.2274 256.336912 
L 171.2274 255.873792 
L 171.368797 255.873792 
L 171.453088 254.02131 
L 172.513336 254.02131 
L 172.513336 253.558189 
L 173.710926 253.558189 
L 173.710926 253.095069 
L 173.931158 253.095069 
L 173.931158 252.631948 
L 174.148644 252.631948 
L 174.148644 251.705707 
L 174.66913 251.705707 
L 174.66913 251.242587 
L 175.242328 251.242587 
L 175.285335 250.316346 
L 176.121974 250.316346 
L 176.121974 249.853225 
L 176.356295 249.853225 
L 176.356295 249.390104 
L 176.587511 249.390104 
L 176.608379 248.463863 
L 177.992886 248.463863 
L 178.0872 247.074502 
L 178.144586 247.074502 
L 178.144586 246.611381 
L 178.708295 246.611381 
L 178.708295 246.148261 
L 180.02552 246.148261 
L 180.02552 245.68514 
L 180.911308 245.68514 
L 180.960126 244.758899 
L 181.041188 244.758899 
L 181.041188 244.295779 
L 181.551247 244.295779 
L 181.572654 242.443297 
L 181.970301 242.443297 
L 181.970301 241.980176 
L 182.513821 241.980176 
L 182.598749 240.590815 
L 183.141578 240.590815 
L 183.141578 239.664574 
L 185.944935 239.664574 
L 186.029091 237.812091 
L 186.077629 237.812091 
L 186.077629 236.88585 
L 186.614565 236.88585 
L 186.64978 235.033368 
L 186.917422 235.033368 
L 186.952032 232.254645 
L 188.079829 232.254645 
L 188.079829 231.328404 
L 188.208012 231.328404 
L 188.208012 230.865284 
L 188.96354 230.865284 
L 188.96354 230.402163 
L 189.137252 230.402163 
L 189.137252 229.939043 
L 189.299179 229.939043 
L 189.299179 229.012802 
L 189.864126 229.012802 
L 189.864126 228.086561 
L 190.969394 228.086561 
L 190.969394 227.16032 
L 191.205778 227.16032 
L 191.205778 226.697199 
L 191.385457 226.697199 
L 191.41225 224.844717 
L 191.83543 224.844717 
L 191.83543 223.918476 
L 192.111171 223.918476 
L 192.111171 222.992235 
L 192.449254 222.992235 
L 192.510302 221.602873 
L 192.560507 221.602873 
L 192.618897 219.750391 
L 192.891561 219.750391 
L 192.907206 218.36103 
L 193.103425 218.36103 
L 193.160028 217.434789 
L 194.311568 217.434789 
L 194.311568 216.508548 
L 195.667245 216.508548 
L 195.688208 214.656066 
L 195.841174 214.656066 
L 195.841174 213.729825 
L 195.97221 213.729825 
L 195.97221 212.803583 
L 196.109087 212.803583 
L 196.197485 210.02486 
L 196.235672 210.02486 
L 196.253505 208.172378 
L 197.434469 208.172378 
L 197.434469 207.246137 
L 197.84656 207.246137 
L 197.902007 205.856776 
L 198.302229 205.856776 
L 198.302229 204.930535 
L 198.577663 204.930535 
L 198.577663 204.004294 
L 198.782484 204.004294 
L 198.859404 201.225571 
L 198.915421 201.225571 
L 198.993334 199.836209 
L 199.085014 199.836209 
L 199.085014 199.373088 
L 199.523586 199.373088 
L 199.523586 198.909968 
L 199.783539 198.909968 
L 199.816639 197.520606 
L 200.193824 197.520606 
L 200.273563 196.131245 
L 200.316462 196.131245 
L 200.369938 195.205004 
L 201.040322 195.205004 
L 201.040322 194.741883 
L 201.229399 194.741883 
L 201.229399 194.278763 
L 201.498992 194.278763 
L 201.501722 193.352522 
L 201.705682 193.352522 
L 201.705682 192.889401 
L 201.862783 192.889401 
L 201.862783 192.426281 
L 202.162295 192.426281 
L 202.162295 191.96316 
L 202.403698 191.96316 
L 202.438221 191.036919 
L 203.511998 191.036919 
L 203.521724 190.110678 
L 203.83769 190.110678 
L 203.932522 187.795075 
L 204.05319 187.795075 
L 204.143342 186.405714 
L 204.288949 186.405714 
L 204.288949 185.479473 
L 204.643557 185.479473 
L 204.643557 185.016352 
L 204.893629 185.016352 
L 204.986256 183.16387 
L 205.215695 183.16387 
L 205.215695 182.237629 
L 205.43199 182.237629 
L 205.471161 179.922027 
L 205.628768 179.922027 
L 205.629486 178.532665 
L 205.99365 178.532665 
L 205.99365 178.069545 
L 206.341062 178.069545 
L 206.447239 176.217062 
L 206.843176 176.217062 
L 206.865265 175.290821 
L 207.03799 175.290821 
L 207.03799 174.827701 
L 207.200165 174.827701 
L 207.305493 173.438339 
L 207.339051 173.438339 
L 207.339051 172.975219 
L 207.746968 172.975219 
L 207.746968 172.512098 
L 208.042388 172.512098 
L 208.148669 171.585857 
L 208.180335 171.585857 
L 208.282698 170.659616 
L 208.487163 170.659616 
L 208.487163 170.196496 
L 208.849684 170.196496 
L 208.849684 169.733375 
L 209.43753 169.733375 
L 209.43753 169.270255 
L 210.258287 169.270255 
L 210.343703 168.344014 
L 210.398686 168.344014 
L 210.398686 167.880893 
L 210.999452 167.880893 
L 210.999452 167.417773 
L 211.131151 167.417773 
L 211.131151 166.954652 
L 211.304958 166.954652 
L 211.324135 166.028411 
L 211.454699 166.028411 
L 211.454699 165.565291 
L 211.672104 165.565291 
L 211.778662 163.249688 
L 212.081844 163.249688 
L 212.081844 162.323447 
L 212.27421 162.323447 
L 212.377895 160.934085 
L 212.55377 160.934085 
L 212.55377 160.007844 
L 212.813945 160.007844 
L 212.887979 157.229121 
L 213.079666 157.229121 
L 213.0799 155.83976 
L 213.334706 155.83976 
L 213.334706 155.376639 
L 213.690405 155.376639 
L 213.791647 153.987278 
L 213.803334 153.987278 
L 213.803334 153.524157 
L 214.189297 153.524157 
L 214.252692 152.597916 
L 214.31564 152.597916 
L 214.31564 152.134795 
L 214.457961 152.134795 
L 214.516507 150.745434 
L 214.940294 150.745434 
L 215.018005 149.819193 
L 215.354849 149.819193 
L 215.368615 148.892952 
L 215.682284 148.892952 
L 215.787871 147.50359 
L 215.908363 147.50359 
L 215.994374 146.577349 
L 216.32413 146.577349 
L 216.32413 146.114229 
L 217.614853 146.114229 
L 217.614853 145.651108 
L 218.239145 145.651108 
L 218.239145 145.187988 
L 218.755644 145.187988 
L 218.787243 143.798626 
L 218.867421 143.798626 
L 218.953922 142.409265 
L 219.302092 142.409265 
L 219.357408 141.483024 
L 219.807431 141.483024 
L 219.807431 140.556783 
L 221.010352 140.556783 
L 221.010352 139.630541 
L 221.349458 139.630541 
L 221.349458 138.7043 
L 221.539798 138.7043 
L 221.539798 137.778059 
L 221.69439 137.778059 
L 221.70539 135.925577 
L 222.010332 135.925577 
L 222.010332 134.999336 
L 222.269705 134.999336 
L 222.269705 134.073095 
L 222.689643 134.073095 
L 222.689643 133.146854 
L 223.220187 133.146854 
L 223.220187 132.220613 
L 227.918817 132.220613 
L 227.918817 131.757493 
L 228.323424 131.757493 
L 228.323424 131.294372 
L 230.289287 131.294372 
L 230.289287 130.831252 
L 230.989323 130.831252 
L 230.989323 130.368131 
L 231.269266 130.368131 
L 231.269266 129.905011 
L 231.414078 129.905011 
L 231.434854 128.97877 
L 232.404862 128.97877 
L 232.449422 127.589408 
L 233.152132 127.589408 
L 233.152132 127.126287 
L 235.846176 127.126287 
L 235.846176 126.663167 
L 236.540274 126.663167 
L 236.540274 126.200046 
L 237.211558 126.200046 
L 237.254237 125.273805 
L 238.177581 125.273805 
L 238.177581 124.810685 
L 238.530354 124.810685 
L 238.530354 124.347564 
L 238.823766 124.347564 
L 238.823766 123.884444 
L 239.241278 123.884444 
L 239.241278 123.421323 
L 241.338005 123.421323 
L 241.338005 122.958203 
L 242.328976 122.958203 
L 242.328976 122.495082 
L 243.047011 122.495082 
L 243.047011 122.031962 
L 243.992721 122.031962 
L 243.992721 121.568841 
L 244.97302 121.568841 
L 244.97302 120.6426 
L 248.642562 120.6426 
L 248.642562 120.17948 
L 249.04703 120.17948 
L 249.04703 119.253239 
L 249.2898 119.253239 
L 249.2898 118.790118 
L 250.048641 118.790118 
L 250.048641 117.863877 
L 251.88393 117.863877 
L 251.88393 117.400757 
L 252.63768 117.400757 
L 252.63768 116.937636 
L 253.842984 116.937636 
L 253.842984 116.474516 
L 254.653313 116.474516 
L 254.653313 116.011395 
L 258.119201 116.011395 
L 258.119201 115.085154 
L 338.688 115.085154 
L 338.688 115.085154 
" style="fill:none;stroke:#000080;stroke-linecap:square;stroke-width:1.5;"/>
   </g>
   <g id="line2d_36">
    <defs>
     <path d="M 0 6 
C 1.591219 6 3.117479 5.367802 4.242641 4.242641 
C 5.367802 3.117479 6 1.591219 6 0 
C 6 -1.591219 5.367802 -3.117479 4.242641 -4.242641 
C 3.117479 -5.367802 1.591219 -6 0 -6 
C -1.591219 -6 -3.117479 -5.367802 -4.242641 -4.242641 
C -5.367802 -3.117479 -6 -1.591219 -6 0 
C -6 1.591219 -5.367802 3.117479 -4.242641 4.242641 
C -3.117479 5.367802 -1.591219 6 0 6 
z
" id="m68248ef7cb" style="stroke:#000080;stroke-width:1.5;"/>
    </defs>
    <g>
     <use style="fill-opacity:0;stroke:#000080;stroke-width:1.5;" x="142.818488" xlink:href="#m68248ef7cb" y="275.324854"/>
     <use style="fill-opacity:0;stroke:#000080;stroke-width:1.5;" x="197.434469" xlink:href="#m68248ef7cb" y="207.246137"/>
     <use style="fill-opacity:0;stroke:#000080;stroke-width:1.5;" x="250.048641" xlink:href="#m68248ef7cb" y="118.790118"/>
     <use style="fill-opacity:0;stroke:#000080;stroke-width:1.5;" x="258.119201" xlink:href="#m68248ef7cb" y="115.085154"/>
     <use style="fill-opacity:0;stroke:#000080;stroke-width:1.5;" x="258.119201" xlink:href="#m68248ef7cb" y="115.085154"/>
     <use style="fill-opacity:0;stroke:#000080;stroke-width:1.5;" x="338.688" xlink:href="#m68248ef7cb" y="115.085154"/>
    </g>
   </g>
   <g id="line2d_37">
    <path style="fill:none;stroke:#000080;stroke-linecap:square;stroke-width:1.5;"/>
    <g/>
   </g>
   <g id="line2d_38">
    <path clip-path="url(#p387589e7ea)" d="M 258.37716 115.085154 
" style="fill:none;stroke:#000080;stroke-linecap:square;stroke-width:1.5;"/>
    <defs>
     <path d="M -12 12 
L 12 -12 
M -12 -12 
L 12 12 
" id="m8d8b02c2ee" style="stroke:#000080;"/>
    </defs>
    <g clip-path="url(#p387589e7ea)">
     <use style="fill:#000080;stroke:#000080;" x="258.37716" xlink:href="#m8d8b02c2ee" y="115.085154"/>
    </g>
   </g>
   <g id="line2d_39">
    <defs>
     <path d="M 0 1.5 
C 0.397805 1.5 0.77937 1.341951 1.06066 1.06066 
C 1.341951 0.77937 1.5 0.397805 1.5 0 
C 1.5 -0.397805 1.341951 -0.77937 1.06066 -1.06066 
C 0.77937 -1.341951 0.397805 -1.5 0 -1.5 
C -0.397805 -1.5 -0.77937 -1.341951 -1.06066 -1.06066 
C -1.341951 -0.77937 -1.5 -0.397805 -1.5 0 
C -1.5 0.397805 -1.341951 0.77937 -1.06066 1.06066 
C -0.77937 1.341951 -0.397805 1.5 0 1.5 
z
" id="m5fa9ef845e" style="stroke:#ff00ff;"/>
    </defs>
    <g>
     <use style="fill:#ff00ff;stroke:#ff00ff;" x="257.382955" xlink:href="#m5fa9ef845e" y="183.626991"/>
     <use style="fill:#ff00ff;stroke:#ff00ff;" x="257.382955" xlink:href="#m5fa9ef845e" y="183.626991"/>
    </g>
   </g>
   <g id="line2d_40">
    <path d="M 17.444571 298.944 
L 17.444571 284.587264 
L 121.800118 284.587264 
L 121.800118 284.124143 
L 130.073348 284.124143 
L 130.073348 283.661023 
L 131.540579 283.661023 
L 131.540579 283.197902 
L 132.109167 283.197902 
L 132.109167 282.734782 
L 132.917126 282.734782 
L 132.917126 282.271661 
L 134.321942 282.271661 
L 134.364738 281.34542 
L 134.513701 281.34542 
L 134.513701 280.8823 
L 134.661403 280.8823 
L 134.661403 280.419179 
L 136.380754 280.419179 
L 136.399782 279.492938 
L 136.68274 279.492938 
L 136.68274 279.029818 
L 137.48721 279.029818 
L 137.48721 278.566697 
L 137.980475 278.566697 
L 138.049816 277.177336 
L 138.477062 277.177336 
L 138.477062 276.714215 
L 138.645071 276.714215 
L 138.645071 276.251095 
L 138.943469 276.251095 
L 138.943469 275.787974 
L 139.572998 275.787974 
L 139.620495 274.398612 
L 139.69937 274.398612 
L 139.69937 273.935492 
L 140.149942 273.935492 
L 140.149942 273.009251 
L 140.812083 273.009251 
L 140.812083 272.08301 
L 141.162927 272.08301 
L 141.162927 271.619889 
L 141.421504 271.619889 
L 141.421504 271.156769 
L 141.605898 271.156769 
L 141.634094 270.230528 
L 142.606619 270.230528 
L 142.606619 269.304287 
L 142.805321 269.304287 
L 142.805321 268.378046 
L 143.105668 268.378046 
L 143.105668 267.914925 
L 143.221802 267.914925 
L 143.221802 266.988684 
L 143.86567 266.988684 
L 143.93988 265.599323 
L 144.209312 265.599323 
L 144.209312 264.673082 
L 144.330419 264.673082 
L 144.330419 264.209961 
L 145.051495 264.209961 
L 145.051495 263.746841 
L 145.178411 263.746841 
L 145.281568 262.357479 
L 146.270114 262.357479 
L 146.270114 261.894358 
L 146.399215 261.894358 
L 146.463409 260.504997 
L 147.509976 260.504997 
L 147.509976 260.041876 
L 148.035027 260.041876 
L 148.035027 259.578756 
L 150.361278 259.578756 
L 150.463462 258.652515 
L 150.573489 258.652515 
L 150.573489 258.189394 
L 151.097081 258.189394 
L 151.097081 257.726274 
L 152.214909 257.726274 
L 152.214909 256.800033 
L 155.341913 256.800033 
L 155.341913 256.336912 
L 158.889829 256.336912 
L 158.889829 255.410671 
L 159.015067 255.410671 
L 159.015067 254.947551 
L 160.661129 254.947551 
L 160.684769 253.558189 
L 161.573617 253.558189 
L 161.573617 253.095069 
L 162.576903 253.095069 
L 162.576903 252.631948 
L 164.398623 252.631948 
L 164.478629 251.242587 
L 165.572509 251.242587 
L 165.572509 250.779466 
L 165.922402 250.779466 
L 165.922402 250.316346 
L 166.282559 250.316346 
L 166.282559 249.390104 
L 166.46667 249.390104 
L 166.46667 248.926984 
L 167.516337 248.926984 
L 167.516337 248.463863 
L 167.970232 248.463863 
L 167.970232 248.000743 
L 168.964959 248.000743 
L 168.964959 247.537622 
L 169.434674 247.537622 
L 169.434674 246.611381 
L 169.715615 246.611381 
L 169.715615 245.68514 
L 170.854311 245.68514 
L 170.854311 245.22202 
L 172.864649 245.22202 
L 172.864649 244.295779 
L 173.105034 244.295779 
L 173.105034 243.369538 
L 173.467457 243.369538 
L 173.467457 242.443297 
L 174.13554 242.443297 
L 174.13554 241.980176 
L 174.432321 241.980176 
L 174.445204 241.053935 
L 175.000757 241.053935 
L 175.000757 240.127694 
L 175.440098 240.127694 
L 175.440098 239.664574 
L 177.892777 239.664574 
L 177.892777 238.738333 
L 178.912168 238.738333 
L 178.912168 237.812091 
L 179.231529 237.812091 
L 179.231529 236.88585 
L 179.58995 236.88585 
L 179.58995 236.42273 
L 180.037985 236.42273 
L 180.037985 235.496489 
L 183.368225 235.496489 
L 183.368225 234.570248 
L 183.869225 234.570248 
L 183.869225 234.107127 
L 184.773118 234.107127 
L 184.801586 232.717766 
L 185.696756 232.717766 
L 185.696756 232.254645 
L 186.175396 232.254645 
L 186.175396 231.791525 
L 187.142718 231.791525 
L 187.142718 231.328404 
L 187.399893 231.328404 
L 187.417244 229.939043 
L 187.967507 229.939043 
L 187.967507 229.012802 
L 189.613196 229.012802 
L 189.613196 228.086561 
L 191.167151 228.086561 
L 191.167151 227.62344 
L 192.38262 227.62344 
L 192.38262 226.697199 
L 192.869934 226.697199 
L 192.869934 225.770958 
L 193.543293 225.770958 
L 193.543293 225.307837 
L 193.834494 225.307837 
L 193.834494 224.381596 
L 194.653759 224.381596 
L 194.653759 223.918476 
L 194.835375 223.918476 
L 194.835375 222.992235 
L 195.046104 222.992235 
L 195.046104 222.529114 
L 195.641801 222.529114 
L 195.641801 222.065994 
L 196.460627 222.065994 
L 196.460627 221.139753 
L 197.346367 221.139753 
L 197.346367 220.213512 
L 197.461444 220.213512 
L 197.461444 219.750391 
L 199.409075 219.750391 
L 199.409075 218.82415 
L 199.607964 218.82415 
L 199.607964 218.36103 
L 200.110269 218.36103 
L 200.110269 217.897909 
L 200.835945 217.897909 
L 200.835945 216.971668 
L 201.324783 216.971668 
L 201.324783 216.045427 
L 201.760447 216.045427 
L 201.760447 215.582307 
L 202.487729 215.582307 
L 202.487729 214.656066 
L 202.629445 214.656066 
L 202.629445 213.729825 
L 203.749939 213.729825 
L 203.749939 213.266704 
L 204.382908 213.266704 
L 204.408725 212.340463 
L 205.42073 212.340463 
L 205.42073 211.414222 
L 205.560779 211.414222 
L 205.560779 210.951101 
L 205.886082 210.951101 
L 205.886082 210.02486 
L 207.411161 210.02486 
L 207.411161 209.098619 
L 208.448417 209.098619 
L 208.558027 207.709258 
L 209.010717 207.709258 
L 209.010717 207.246137 
L 209.513552 207.246137 
L 209.513552 206.319896 
L 210.018491 206.319896 
L 210.018491 205.856776 
L 210.730085 205.856776 
L 210.730085 204.930535 
L 211.145287 204.930535 
L 211.145287 204.004294 
L 211.340703 204.004294 
L 211.340703 203.541173 
L 213.39369 203.541173 
L 213.462331 202.151812 
L 213.663927 202.151812 
L 213.663927 201.225571 
L 214.432624 201.225571 
L 214.432624 200.76245 
L 216.076216 200.76245 
L 216.076216 199.836209 
L 217.630195 199.836209 
L 217.630195 198.909968 
L 218.714835 198.909968 
L 218.714835 198.446847 
L 219.483097 198.446847 
L 219.483097 197.983727 
L 222.95341 197.983727 
L 222.95341 197.520606 
L 224.062122 197.520606 
L 224.062122 196.594365 
L 224.286246 196.594365 
L 224.286246 196.131245 
L 224.563986 196.131245 
L 224.563986 195.668124 
L 225.183689 195.668124 
L 225.183689 195.205004 
L 225.97023 195.205004 
L 226.045665 194.278763 
L 226.304734 194.278763 
L 226.304734 193.815642 
L 228.761694 193.815642 
L 228.761694 193.352522 
L 231.63149 193.352522 
L 231.63149 192.426281 
L 231.79297 192.426281 
L 231.79297 191.96316 
L 232.032696 191.96316 
L 232.046593 191.036919 
L 235.480222 191.036919 
L 235.480222 190.573799 
L 235.94025 190.573799 
L 235.94025 189.647558 
L 238.453121 189.647558 
L 238.453121 189.184437 
L 241.510973 189.184437 
L 241.510973 188.721316 
L 241.640038 188.721316 
L 241.640038 188.258196 
L 245.860003 188.258196 
L 245.860003 187.331955 
L 250.908972 187.331955 
L 250.908972 186.868834 
L 255.667167 186.868834 
L 255.667167 185.942593 
L 255.795561 185.942593 
L 255.795561 185.016352 
L 257.21732 185.016352 
L 257.21732 184.553232 
L 257.382955 184.553232 
L 257.382955 183.626991 
L 338.688 183.626991 
L 338.688 183.626991 
" style="fill:none;stroke:#ff00ff;stroke-linecap:square;stroke-width:1.5;"/>
   </g>
   <g id="line2d_41">
    <defs>
     <path d="M 0 8.485281 
L 5.091169 0 
L 0 -8.485281 
L -5.091169 0 
z
" id="mfa83490624" style="stroke:#ff00ff;stroke-linejoin:miter;stroke-width:1.5;"/>
    </defs>
    <g>
     <use style="fill-opacity:0;stroke:#ff00ff;stroke-linejoin:miter;stroke-width:1.5;" x="145.281568" xlink:href="#mfa83490624" y="262.8206"/>
     <use style="fill-opacity:0;stroke:#ff00ff;stroke-linejoin:miter;stroke-width:1.5;" x="195.641801" xlink:href="#mfa83490624" y="222.065994"/>
     <use style="fill-opacity:0;stroke:#ff00ff;stroke-linejoin:miter;stroke-width:1.5;" x="257.382955" xlink:href="#mfa83490624" y="184.553232"/>
     <use style="fill-opacity:0;stroke:#ff00ff;stroke-linejoin:miter;stroke-width:1.5;" x="257.382955" xlink:href="#mfa83490624" y="183.626991"/>
     <use style="fill-opacity:0;stroke:#ff00ff;stroke-linejoin:miter;stroke-width:1.5;" x="338.688" xlink:href="#mfa83490624" y="183.626991"/>
    </g>
   </g>
   <g id="line2d_42">
    <path style="fill:none;stroke:#ff00ff;stroke-linecap:square;stroke-width:1.5;"/>
    <g/>
   </g>
   <g id="line2d_43">
    <path clip-path="url(#p387589e7ea)" d="M 258.37948 183.626991 
" style="fill:none;stroke:#ff00ff;stroke-linecap:square;stroke-width:1.5;"/>
    <defs>
     <path d="M -12 12 
L 12 -12 
M -12 -12 
L 12 12 
" id="m1bcec836e0" style="stroke:#ff00ff;"/>
    </defs>
    <g clip-path="url(#p387589e7ea)">
     <use style="fill:#ff00ff;stroke:#ff00ff;" x="258.37948" xlink:href="#m1bcec836e0" y="183.626991"/>
    </g>
   </g>
   <g id="line2d_44">
    <defs>
     <path d="M 0 1.5 
C 0.397805 1.5 0.77937 1.341951 1.06066 1.06066 
C 1.341951 0.77937 1.5 0.397805 1.5 0 
C 1.5 -0.397805 1.341951 -0.77937 1.06066 -1.06066 
C 0.77937 -1.341951 0.397805 -1.5 0 -1.5 
C -0.397805 -1.5 -0.77937 -1.341951 -1.06066 -1.06066 
C -1.341951 -0.77937 -1.5 -0.397805 -1.5 0 
C -1.5 0.397805 -1.341951 0.77937 -1.06066 1.06066 
C -0.77937 1.341951 -0.397805 1.5 0 1.5 
z
" id="md4ff35c22e" style="stroke:#ff7500;"/>
    </defs>
    <g>
     <use style="fill:#ff7500;stroke:#ff7500;" x="241.637624" xlink:href="#md4ff35c22e" y="62.752535"/>
     <use style="fill:#ff7500;stroke:#ff7500;" x="241.637624" xlink:href="#md4ff35c22e" y="62.752535"/>
    </g>
   </g>
   <g id="line2d_45">
    <path d="M 149.998846 298.944 
L 149.998846 298.480879 
L 150.163737 298.480879 
L 150.163737 298.017759 
L 150.590355 298.017759 
L 150.590355 297.091518 
L 150.940821 297.091518 
L 150.940821 296.628397 
L 151.716387 296.628397 
L 151.716387 296.165277 
L 151.912822 296.165277 
L 151.912822 295.702156 
L 152.344968 295.702156 
L 152.344968 294.775915 
L 152.564618 294.775915 
L 152.564618 294.312795 
L 152.759222 294.312795 
L 152.759222 293.849674 
L 153.112882 293.849674 
L 153.112882 293.386554 
L 153.229193 293.386554 
L 153.294279 292.460313 
L 153.516621 292.460313 
L 153.537988 290.607831 
L 153.729125 290.607831 
L 153.729125 290.14471 
L 153.84141 290.14471 
L 153.84141 289.218469 
L 154.324333 289.218469 
L 154.412564 287.365987 
L 154.78099 287.365987 
L 154.78099 286.902867 
L 154.991819 286.902867 
L 155.076745 285.513505 
L 155.277608 285.513505 
L 155.34833 284.587264 
L 155.514359 284.587264 
L 155.514359 283.661023 
L 155.747938 283.661023 
L 155.847985 282.734782 
L 156.021696 282.734782 
L 156.107908 281.34542 
L 156.150854 281.34542 
L 156.175347 280.419179 
L 156.32159 280.419179 
L 156.364014 279.492938 
L 156.741256 279.492938 
L 156.741256 279.029818 
L 156.941506 279.029818 
L 156.947361 278.103577 
L 157.511826 278.103577 
L 157.602273 276.714215 
L 157.759435 276.714215 
L 157.820792 274.861733 
L 158.0201 274.861733 
L 158.102478 273.009251 
L 158.347301 273.009251 
L 158.347301 272.54613 
L 158.599388 272.54613 
L 158.657864 271.156769 
L 158.826871 271.156769 
L 158.826871 270.693648 
L 159.242359 270.693648 
L 159.257749 269.304287 
L 159.380382 269.304287 
L 159.476858 267.451805 
L 159.492042 267.451805 
L 159.522371 266.525564 
L 159.872369 266.525564 
L 159.872369 266.062443 
L 160.025151 266.062443 
L 160.098601 265.136202 
L 160.21548 265.136202 
L 160.292966 263.28372 
L 160.355672 263.28372 
L 160.413354 261.894358 
L 160.566247 261.894358 
L 160.566247 260.968117 
L 160.736665 260.968117 
L 160.821253 258.189394 
L 160.947372 258.189394 
L 161.040208 257.263153 
L 161.104901 257.263153 
L 161.192316 255.410671 
L 161.297551 255.410671 
L 161.406689 254.02131 
L 161.47907 254.02131 
L 161.560142 252.631948 
L 161.792252 252.631948 
L 161.823263 250.779466 
L 161.915967 250.779466 
L 161.915967 250.316346 
L 162.082474 250.316346 
L 162.126028 249.390104 
L 162.217141 249.390104 
L 162.217141 248.926984 
L 162.38081 248.926984 
L 162.487656 245.68514 
L 162.559939 245.68514 
L 162.559939 245.22202 
L 162.783387 245.22202 
L 162.783387 244.758899 
L 163.213702 244.758899 
L 163.250446 242.906417 
L 163.477355 242.906417 
L 163.557683 241.980176 
L 163.847782 241.980176 
L 163.847782 241.053935 
L 164.133133 241.053935 
L 164.13701 239.664574 
L 164.329754 239.664574 
L 164.329754 238.738333 
L 164.546914 238.738333 
L 164.626244 235.959609 
L 164.712717 235.959609 
L 164.712717 235.033368 
L 165.273656 235.033368 
L 165.280918 233.180886 
L 165.63665 233.180886 
L 165.672183 231.791525 
L 165.781875 231.791525 
L 165.785402 229.939043 
L 165.925901 229.939043 
L 165.925901 229.012802 
L 166.189769 229.012802 
L 166.203547 226.697199 
L 166.514087 226.697199 
L 166.615263 225.770958 
L 166.632069 225.770958 
L 166.632069 224.844717 
L 166.855717 224.844717 
L 166.898781 223.918476 
L 167.125588 223.918476 
L 167.145172 222.529114 
L 167.239518 222.529114 
L 167.239518 221.602873 
L 167.586452 221.602873 
L 167.586452 221.139753 
L 167.72584 221.139753 
L 167.72584 220.676632 
L 167.954668 220.676632 
L 167.954668 219.750391 
L 168.155922 219.750391 
L 168.155922 218.82415 
L 168.281683 218.82415 
L 168.281683 218.36103 
L 168.593675 218.36103 
L 168.593675 217.434789 
L 168.737185 217.434789 
L 168.737185 216.508548 
L 168.96202 216.508548 
L 168.96202 215.582307 
L 169.146224 215.582307 
L 169.239048 213.729825 
L 169.636615 213.729825 
L 169.636615 212.803583 
L 169.836245 212.803583 
L 169.880918 210.02486 
L 170.529578 210.02486 
L 170.529578 209.098619 
L 170.788258 209.098619 
L 170.788258 208.635499 
L 170.935871 208.635499 
L 170.935871 207.709258 
L 171.061409 207.709258 
L 171.11605 204.930535 
L 171.327782 204.930535 
L 171.327782 204.004294 
L 171.640636 204.004294 
L 171.743686 202.151812 
L 171.783736 202.151812 
L 171.856094 200.76245 
L 171.920711 200.76245 
L 171.920711 200.299329 
L 172.110686 200.299329 
L 172.157246 199.373088 
L 172.296186 199.373088 
L 172.296186 198.909968 
L 172.462909 198.909968 
L 172.510938 197.520606 
L 172.803442 197.520606 
L 172.803442 197.057486 
L 172.932666 197.057486 
L 172.932666 196.594365 
L 173.218239 196.594365 
L 173.241252 195.668124 
L 173.335289 195.668124 
L 173.337576 194.741883 
L 173.64813 194.741883 
L 173.708687 193.815642 
L 173.76234 193.815642 
L 173.76234 193.352522 
L 173.880241 193.352522 
L 173.880241 192.889401 
L 174.124612 192.889401 
L 174.124612 192.426281 
L 174.821034 192.426281 
L 174.821034 191.96316 
L 175.254626 191.96316 
L 175.254626 191.50004 
L 175.545203 191.50004 
L 175.545203 191.036919 
L 176.149247 191.036919 
L 176.18425 189.647558 
L 176.302352 189.647558 
L 176.398563 188.258196 
L 176.478973 188.258196 
L 176.549504 187.331955 
L 176.646257 187.331955 
L 176.646257 186.868834 
L 176.8157 186.868834 
L 176.8157 185.942593 
L 176.974232 185.942593 
L 176.974232 185.016352 
L 177.396111 185.016352 
L 177.396111 184.553232 
L 177.605075 184.553232 
L 177.685469 180.848268 
L 177.838089 180.848268 
L 177.922694 178.069545 
L 178.196592 178.069545 
L 178.206975 177.143304 
L 178.825562 177.143304 
L 178.842251 176.217062 
L 179.05611 176.217062 
L 179.128459 174.827701 
L 179.213577 174.827701 
L 179.308028 173.438339 
L 179.521099 173.438339 
L 179.521099 172.975219 
L 179.645791 172.975219 
L 179.645791 172.512098 
L 180.206931 172.512098 
L 180.219266 171.585857 
L 180.45808 171.585857 
L 180.565698 169.733375 
L 180.911308 169.733375 
L 180.911308 169.270255 
L 182.111926 169.270255 
L 182.111926 168.807134 
L 182.857707 168.807134 
L 182.935706 167.880893 
L 183.029108 167.880893 
L 183.029108 167.417773 
L 183.315389 167.417773 
L 183.315389 166.954652 
L 183.669284 166.954652 
L 183.766397 166.028411 
L 183.910436 166.028411 
L 183.910436 165.565291 
L 184.039681 165.565291 
L 184.068135 164.175929 
L 184.474982 164.175929 
L 184.474982 163.249688 
L 184.765993 163.249688 
L 184.843019 161.397206 
L 184.927945 161.397206 
L 184.986679 160.007844 
L 185.224285 160.007844 
L 185.224285 159.081603 
L 185.747349 159.081603 
L 185.747349 158.618483 
L 185.971554 158.618483 
L 185.971554 157.692242 
L 186.174301 157.692242 
L 186.20276 155.83976 
L 186.441733 155.83976 
L 186.441733 155.376639 
L 186.691306 155.376639 
L 186.727427 153.987278 
L 186.83429 153.987278 
L 186.878537 153.061037 
L 187.087706 153.061037 
L 187.087706 152.597916 
L 187.7096 152.597916 
L 187.7096 152.134795 
L 187.843511 152.134795 
L 187.843511 151.671675 
L 188.235289 151.671675 
L 188.263494 150.282313 
L 188.40577 150.282313 
L 188.40577 149.819193 
L 188.625123 149.819193 
L 188.625123 149.356072 
L 188.827643 149.356072 
L 188.827643 148.892952 
L 189.275353 148.892952 
L 189.341255 147.966711 
L 190.259464 147.966711 
L 190.259464 147.50359 
L 190.452537 147.50359 
L 190.470528 146.577349 
L 191.010122 146.577349 
L 191.010122 146.114229 
L 192.115067 146.114229 
L 192.115067 145.651108 
L 192.328821 145.651108 
L 192.328821 145.187988 
L 192.694438 145.187988 
L 192.694438 144.724867 
L 193.709069 144.724867 
L 193.763744 143.335506 
L 194.364389 143.335506 
L 194.364389 142.409265 
L 194.548349 142.409265 
L 194.569347 141.019903 
L 194.722339 141.019903 
L 194.748489 140.093662 
L 195.213917 140.093662 
L 195.213917 139.167421 
L 195.796435 139.167421 
L 195.796435 138.7043 
L 195.935945 138.7043 
L 195.935945 137.778059 
L 196.125812 137.778059 
L 196.125812 136.851818 
L 196.367452 136.851818 
L 196.367452 135.925577 
L 196.67372 135.925577 
L 196.67372 134.999336 
L 196.865261 134.999336 
L 196.865261 134.536216 
L 197.10279 134.536216 
L 197.110984 132.220613 
L 197.933852 132.220613 
L 197.933852 131.757493 
L 198.324621 131.757493 
L 198.324621 130.831252 
L 198.520009 130.831252 
L 198.520009 130.368131 
L 198.798958 130.368131 
L 198.894304 129.44189 
L 199.093894 129.44189 
L 199.093894 128.97877 
L 199.534283 128.97877 
L 199.629248 127.589408 
L 199.698495 127.589408 
L 199.698495 127.126287 
L 200.556301 127.126287 
L 200.556301 126.663167 
L 200.806146 126.663167 
L 200.806146 126.200046 
L 201.178036 126.200046 
L 201.178036 125.736926 
L 201.449786 125.736926 
L 201.485793 124.810685 
L 201.568463 124.810685 
L 201.568463 124.347564 
L 201.989311 124.347564 
L 201.989311 123.884444 
L 202.291024 123.884444 
L 202.291024 123.421323 
L 202.778898 123.421323 
L 202.778898 122.958203 
L 204.817065 122.958203 
L 204.836989 122.031962 
L 206.523466 122.031962 
L 206.597323 120.6426 
L 206.677293 120.6426 
L 206.677293 120.17948 
L 206.822737 120.17948 
L 206.890999 119.253239 
L 207.522958 119.253239 
L 207.634043 117.400757 
L 207.686449 117.400757 
L 207.686449 116.474516 
L 209.096272 116.474516 
L 209.096272 115.548274 
L 209.308922 115.548274 
L 209.314155 113.695792 
L 209.522457 113.695792 
L 209.530784 111.84331 
L 209.919677 111.84331 
L 209.919677 110.917069 
L 210.164702 110.917069 
L 210.164702 109.990828 
L 210.624451 109.990828 
L 210.624451 109.064587 
L 213.257217 109.064587 
L 213.324779 107.212105 
L 214.405513 107.212105 
L 214.405513 106.285864 
L 214.771291 106.285864 
L 214.771291 105.359623 
L 214.89941 105.359623 
L 214.89941 104.433382 
L 215.097248 104.433382 
L 215.097248 103.507141 
L 215.344568 103.507141 
L 215.45528 101.654659 
L 215.682082 101.654659 
L 215.682082 100.728418 
L 216.285004 100.728418 
L 216.341233 99.802177 
L 216.585242 99.802177 
L 216.585242 98.875936 
L 217.126132 98.875936 
L 217.126132 98.412815 
L 217.558063 98.412815 
L 217.558063 97.949695 
L 217.724833 97.949695 
L 217.724833 97.486574 
L 217.996697 97.486574 
L 218.086209 96.560333 
L 218.440593 96.560333 
L 218.440593 96.097213 
L 218.701776 96.097213 
L 218.701776 95.634092 
L 219.318312 95.634092 
L 219.318312 95.170972 
L 219.49299 95.170972 
L 219.558207 94.244731 
L 219.854501 94.244731 
L 219.854501 93.78161 
L 220.41903 93.78161 
L 220.41903 93.31849 
L 220.834841 93.31849 
L 220.927223 92.392249 
L 220.95602 92.392249 
L 220.95602 91.929128 
L 221.460754 91.929128 
L 221.460754 91.466008 
L 221.815154 91.466008 
L 221.815154 91.002887 
L 222.523506 91.002887 
L 222.523506 90.539766 
L 222.640171 90.539766 
L 222.66141 89.613525 
L 222.780516 89.613525 
L 222.780516 89.150405 
L 223.496869 89.150405 
L 223.496869 88.687284 
L 224.027779 88.687284 
L 224.045521 87.297923 
L 224.611078 87.297923 
L 224.611078 86.834802 
L 224.917027 86.834802 
L 224.917027 86.371682 
L 225.482829 86.371682 
L 225.482829 85.908561 
L 228.597116 85.908561 
L 228.597116 84.98232 
L 228.91104 84.98232 
L 228.91104 84.056079 
L 229.368035 84.056079 
L 229.368035 83.129838 
L 229.961741 83.129838 
L 229.961741 82.203597 
L 230.103754 82.203597 
L 230.103754 81.277356 
L 230.228859 81.277356 
L 230.228859 80.351115 
L 230.617049 80.351115 
L 230.617049 79.424874 
L 231.049601 79.424874 
L 231.049601 78.498633 
L 231.172771 78.498633 
L 231.172771 77.572392 
L 231.378438 77.572392 
L 231.378438 76.646151 
L 235.085217 76.646151 
L 235.085217 75.71991 
L 235.401217 75.71991 
L 235.401217 74.793669 
L 235.915673 74.793669 
L 235.915673 73.867428 
L 236.60676 73.867428 
L 236.60676 72.941187 
L 236.755976 72.941187 
L 236.755976 72.014946 
L 237.154233 72.014946 
L 237.175127 70.162464 
L 237.403844 70.162464 
L 237.479035 68.309982 
L 237.83594 68.309982 
L 237.83594 67.383741 
L 238.469567 67.383741 
L 238.469567 66.92062 
L 238.772639 66.92062 
L 238.836712 65.994379 
L 239.913447 65.994379 
L 239.913447 65.531258 
L 240.574758 65.531258 
L 240.634481 64.141897 
L 240.806797 64.141897 
L 240.806797 63.678776 
L 241.479155 63.678776 
L 241.479155 63.215656 
L 241.637624 63.215656 
L 241.637624 62.752535 
L 338.688 62.752535 
L 338.688 62.752535 
" style="fill:none;stroke:#ff7500;stroke-linecap:square;stroke-width:1.5;"/>
   </g>
   <g id="line2d_46">
    <defs>
     <path d="M 0 -6 
L -1.347084 -1.854102 
L -5.706339 -1.854102 
L -2.179628 0.708204 
L -3.526712 4.854102 
L -0 2.291796 
L 3.526712 4.854102 
L 2.179628 0.708204 
L 5.706339 -1.854102 
L 1.347084 -1.854102 
z
" id="m1c46995d72" style="stroke:#ff7500;stroke-linejoin:bevel;stroke-width:1.5;"/>
    </defs>
    <g>
     <use style="fill-opacity:0;stroke:#ff7500;stroke-linejoin:bevel;stroke-width:1.5;" x="168.155922" xlink:href="#m1c46995d72" y="219.750391"/>
     <use style="fill-opacity:0;stroke:#ff7500;stroke-linejoin:bevel;stroke-width:1.5;" x="202.291024" xlink:href="#m1c46995d72" y="123.884444"/>
     <use style="fill-opacity:0;stroke:#ff7500;stroke-linejoin:bevel;stroke-width:1.5;" x="241.637624" xlink:href="#m1c46995d72" y="63.215656"/>
     <use style="fill-opacity:0;stroke:#ff7500;stroke-linejoin:bevel;stroke-width:1.5;" x="241.637624" xlink:href="#m1c46995d72" y="62.752535"/>
     <use style="fill-opacity:0;stroke:#ff7500;stroke-linejoin:bevel;stroke-width:1.5;" x="338.688" xlink:href="#m1c46995d72" y="62.752535"/>
    </g>
   </g>
   <g id="line2d_47">
    <path style="fill:none;stroke:#ff7500;stroke-linecap:square;stroke-width:1.5;"/>
    <g/>
   </g>
   <g id="line2d_48">
    <path clip-path="url(#p387589e7ea)" d="M 258.37716 62.752535 
" style="fill:none;stroke:#ff7500;stroke-linecap:square;stroke-width:1.5;"/>
    <defs>
     <path d="M -12 12 
L 12 -12 
M -12 -12 
L 12 12 
" id="mb897c5fcd5" style="stroke:#ff7500;"/>
    </defs>
    <g clip-path="url(#p387589e7ea)">
     <use style="fill:#ff7500;stroke:#ff7500;" x="258.37716" xlink:href="#mb897c5fcd5" y="62.752535"/>
    </g>
   </g>
   <g id="line2d_49">
    <path d="M 338.688 183.626991 
L 369.60768 293.571802 
" style="fill:none;stroke:#ff00ff;stroke-linecap:square;stroke-width:1.5;"/>
    <g>
     <use style="fill-opacity:0;stroke:#ff00ff;stroke-linejoin:miter;stroke-width:1.5;" x="338.688" xlink:href="#mfa83490624" y="183.626991"/>
     <use style="fill-opacity:0;stroke:#ff00ff;stroke-linejoin:miter;stroke-width:1.5;" x="369.60768" xlink:href="#mfa83490624" y="293.571802"/>
    </g>
   </g>
   <g id="line2d_50">
    <path d="M 338.688 115.085154 
L 369.60768 207.616634 
" style="fill:none;stroke:#000080;stroke-linecap:square;stroke-width:1.5;"/>
    <g>
     <use style="fill-opacity:0;stroke:#000080;stroke-width:1.5;" x="338.688" xlink:href="#m68248ef7cb" y="115.085154"/>
     <use style="fill-opacity:0;stroke:#000080;stroke-width:1.5;" x="369.60768" xlink:href="#m68248ef7cb" y="207.616634"/>
    </g>
   </g>
   <g id="line2d_51">
    <path d="M 338.688 62.752535 
L 369.60768 121.661465 
" style="fill:none;stroke:#ff7500;stroke-linecap:square;stroke-width:1.5;"/>
    <g>
     <use style="fill-opacity:0;stroke:#ff7500;stroke-linejoin:bevel;stroke-width:1.5;" x="338.688" xlink:href="#m1c46995d72" y="62.752535"/>
     <use style="fill-opacity:0;stroke:#ff7500;stroke-linejoin:bevel;stroke-width:1.5;" x="369.60768" xlink:href="#m1c46995d72" y="121.661465"/>
    </g>
   </g>
   <g id="line2d_52">
    <path d="M 338.688 298.944 
L 338.688 30.334099 
" style="fill:none;stroke:#000000;stroke-linecap:square;stroke-width:1.5;"/>
   </g>
   <g id="patch_3">
    <path d="M 57.6 298.944 
L 57.6 27.648 
" style="fill:none;stroke:#000000;stroke-linecap:square;stroke-linejoin:miter;stroke-width:0.8;"/>
   </g>
   <g id="patch_4">
    <path d="M 338.688 298.944 
L 338.688 27.648 
" style="fill:none;stroke:#000000;stroke-linecap:square;stroke-linejoin:miter;stroke-width:0.8;"/>
   </g>
   <g id="patch_5">
    <path d="M 57.6 298.944 
L 338.688 298.944 
" style="fill:none;stroke:#000000;stroke-linecap:square;stroke-linejoin:miter;stroke-width:0.8;"/>
   </g>
   <g id="patch_6">
    <path d="M 57.6 27.648 
L 338.688 27.648 
" style="fill:none;stroke:#000000;stroke-linecap:square;stroke-linejoin:miter;stroke-width:0.8;"/>
   </g>
   <g id="text_13">
    <!-- NSGA-II-M -->
    <g transform="translate(375.22944 298.262739)scale(0.17 -0.17)">
     <defs>
      <path d="M 9.8125 72.90625 
L 23.09375 72.90625 
L 55.421875 11.921875 
L 55.421875 72.90625 
L 64.984375 72.90625 
L 64.984375 0 
L 51.703125 0 
L 19.390625 60.984375 
L 19.390625 0 
L 9.8125 0 
z
" id="DejaVuSans-78"/>
      <path d="M 53.515625 70.515625 
L 53.515625 60.890625 
Q 47.90625 63.578125 42.921875 64.890625 
Q 37.9375 66.21875 33.296875 66.21875 
Q 25.25 66.21875 20.875 63.09375 
Q 16.5 59.96875 16.5 54.203125 
Q 16.5 49.359375 19.40625 46.890625 
Q 22.3125 44.4375 30.421875 42.921875 
L 36.375 41.703125 
Q 47.40625 39.59375 52.65625 34.296875 
Q 57.90625 29 57.90625 20.125 
Q 57.90625 9.515625 50.796875 4.046875 
Q 43.703125 -1.421875 29.984375 -1.421875 
Q 24.8125 -1.421875 18.96875 -0.25 
Q 13.140625 0.921875 6.890625 3.21875 
L 6.890625 13.375 
Q 12.890625 10.015625 18.65625 8.296875 
Q 24.421875 6.59375 29.984375 6.59375 
Q 38.421875 6.59375 43.015625 9.90625 
Q 47.609375 13.234375 47.609375 19.390625 
Q 47.609375 24.75 44.3125 27.78125 
Q 41.015625 30.8125 33.5 32.328125 
L 27.484375 33.5 
Q 16.453125 35.6875 11.515625 40.375 
Q 6.59375 45.0625 6.59375 53.421875 
Q 6.59375 63.09375 13.40625 68.65625 
Q 20.21875 74.21875 32.171875 74.21875 
Q 37.3125 74.21875 42.625 73.28125 
Q 47.953125 72.359375 53.515625 70.515625 
z
" id="DejaVuSans-83"/>
      <path d="M 59.515625 10.40625 
L 59.515625 29.984375 
L 43.40625 29.984375 
L 43.40625 38.09375 
L 69.28125 38.09375 
L 69.28125 6.78125 
Q 63.578125 2.734375 56.6875 0.65625 
Q 49.8125 -1.421875 42 -1.421875 
Q 24.90625 -1.421875 15.25 8.5625 
Q 5.609375 18.5625 5.609375 36.375 
Q 5.609375 54.25 15.25 64.234375 
Q 24.90625 74.21875 42 74.21875 
Q 49.125 74.21875 55.546875 72.453125 
Q 61.96875 70.703125 67.390625 67.28125 
L 67.390625 56.78125 
Q 61.921875 61.421875 55.765625 63.765625 
Q 49.609375 66.109375 42.828125 66.109375 
Q 29.4375 66.109375 22.71875 58.640625 
Q 16.015625 51.171875 16.015625 36.375 
Q 16.015625 21.625 22.71875 14.15625 
Q 29.4375 6.6875 42.828125 6.6875 
Q 48.046875 6.6875 52.140625 7.59375 
Q 56.25 8.5 59.515625 10.40625 
z
" id="DejaVuSans-71"/>
      <path d="M 34.1875 63.1875 
L 20.796875 26.90625 
L 47.609375 26.90625 
z
M 28.609375 72.90625 
L 39.796875 72.90625 
L 67.578125 0 
L 57.328125 0 
L 50.6875 18.703125 
L 17.828125 18.703125 
L 11.1875 0 
L 0.78125 0 
z
" id="DejaVuSans-65"/>
      <path d="M 9.8125 72.90625 
L 19.671875 72.90625 
L 19.671875 0 
L 9.8125 0 
z
" id="DejaVuSans-73"/>
      <path d="M 9.8125 72.90625 
L 24.515625 72.90625 
L 43.109375 23.296875 
L 61.8125 72.90625 
L 76.515625 72.90625 
L 76.515625 0 
L 66.890625 0 
L 66.890625 64.015625 
L 48.09375 14.015625 
L 38.1875 14.015625 
L 19.390625 64.015625 
L 19.390625 0 
L 9.8125 0 
z
" id="DejaVuSans-77"/>
     </defs>
     <use xlink:href="#DejaVuSans-78"/>
     <use x="74.804688" xlink:href="#DejaVuSans-83"/>
     <use x="138.28125" xlink:href="#DejaVuSans-71"/>
     <use x="215.771484" xlink:href="#DejaVuSans-65"/>
     <use x="281.929688" xlink:href="#DejaVuSans-45"/>
     <use x="318.013672" xlink:href="#DejaVuSans-73"/>
     <use x="347.505859" xlink:href="#DejaVuSans-73"/>
     <use x="376.998047" xlink:href="#DejaVuSans-45"/>
     <use x="413.082031" xlink:href="#DejaVuSans-77"/>
    </g>
   </g>
   <g id="text_14">
    <!-- COMO-100  -->
    <g transform="translate(375.22944 212.307571)scale(0.17 -0.17)">
     <defs>
      <path d="M 64.40625 67.28125 
L 64.40625 56.890625 
Q 59.421875 61.53125 53.78125 63.8125 
Q 48.140625 66.109375 41.796875 66.109375 
Q 29.296875 66.109375 22.65625 58.46875 
Q 16.015625 50.828125 16.015625 36.375 
Q 16.015625 21.96875 22.65625 14.328125 
Q 29.296875 6.6875 41.796875 6.6875 
Q 48.140625 6.6875 53.78125 8.984375 
Q 59.421875 11.28125 64.40625 15.921875 
L 64.40625 5.609375 
Q 59.234375 2.09375 53.4375 0.328125 
Q 47.65625 -1.421875 41.21875 -1.421875 
Q 24.65625 -1.421875 15.125 8.703125 
Q 5.609375 18.84375 5.609375 36.375 
Q 5.609375 53.953125 15.125 64.078125 
Q 24.65625 74.21875 41.21875 74.21875 
Q 47.75 74.21875 53.53125 72.484375 
Q 59.328125 70.75 64.40625 67.28125 
z
" id="DejaVuSans-67"/>
      <path d="M 39.40625 66.21875 
Q 28.65625 66.21875 22.328125 58.203125 
Q 16.015625 50.203125 16.015625 36.375 
Q 16.015625 22.609375 22.328125 14.59375 
Q 28.65625 6.59375 39.40625 6.59375 
Q 50.140625 6.59375 56.421875 14.59375 
Q 62.703125 22.609375 62.703125 36.375 
Q 62.703125 50.203125 56.421875 58.203125 
Q 50.140625 66.21875 39.40625 66.21875 
z
M 39.40625 74.21875 
Q 54.734375 74.21875 63.90625 63.9375 
Q 73.09375 53.65625 73.09375 36.375 
Q 73.09375 19.140625 63.90625 8.859375 
Q 54.734375 -1.421875 39.40625 -1.421875 
Q 24.03125 -1.421875 14.8125 8.828125 
Q 5.609375 19.09375 5.609375 36.375 
Q 5.609375 53.65625 14.8125 63.9375 
Q 24.03125 74.21875 39.40625 74.21875 
z
" id="DejaVuSans-79"/>
     </defs>
     <use xlink:href="#DejaVuSans-67"/>
     <use x="69.824219" xlink:href="#DejaVuSans-79"/>
     <use x="148.535156" xlink:href="#DejaVuSans-77"/>
     <use x="234.814453" xlink:href="#DejaVuSans-79"/>
     <use x="316.275391" xlink:href="#DejaVuSans-45"/>
     <use x="352.359375" xlink:href="#DejaVuSans-49"/>
     <use x="415.982422" xlink:href="#DejaVuSans-48"/>
     <use x="479.605469" xlink:href="#DejaVuSans-48"/>
     <use x="543.228516" xlink:href="#DejaVuSans-32"/>
    </g>
   </g>
   <g id="text_15">
    <!-- SMS-EMOA- -->
    <g transform="translate(375.22944 126.352403)scale(0.17 -0.17)">
     <defs>
      <path d="M 9.8125 72.90625 
L 55.90625 72.90625 
L 55.90625 64.59375 
L 19.671875 64.59375 
L 19.671875 43.015625 
L 54.390625 43.015625 
L 54.390625 34.71875 
L 19.671875 34.71875 
L 19.671875 8.296875 
L 56.78125 8.296875 
L 56.78125 0 
L 9.8125 0 
z
" id="DejaVuSans-69"/>
     </defs>
     <use xlink:href="#DejaVuSans-83"/>
     <use x="63.476562" xlink:href="#DejaVuSans-77"/>
     <use x="149.755859" xlink:href="#DejaVuSans-83"/>
     <use x="213.232422" xlink:href="#DejaVuSans-45"/>
     <use x="249.316406" xlink:href="#DejaVuSans-69"/>
     <use x="312.5" xlink:href="#DejaVuSans-77"/>
     <use x="398.779297" xlink:href="#DejaVuSans-79"/>
     <use x="475.740234" xlink:href="#DejaVuSans-65"/>
     <use x="541.898438" xlink:href="#DejaVuSans-45"/>
    </g>
   </g>
   <g id="text_16">
    <!-- best 2016 -->
    <g transform="translate(375.22944 40.397235)scale(0.17 -0.17)">
     <defs>
      <path d="M 48.6875 27.296875 
Q 48.6875 37.203125 44.609375 42.84375 
Q 40.53125 48.484375 33.40625 48.484375 
Q 26.265625 48.484375 22.1875 42.84375 
Q 18.109375 37.203125 18.109375 27.296875 
Q 18.109375 17.390625 22.1875 11.75 
Q 26.265625 6.109375 33.40625 6.109375 
Q 40.53125 6.109375 44.609375 11.75 
Q 48.6875 17.390625 48.6875 27.296875 
z
M 18.109375 46.390625 
Q 20.953125 51.265625 25.265625 53.625 
Q 29.59375 56 35.59375 56 
Q 45.5625 56 51.78125 48.09375 
Q 58.015625 40.1875 58.015625 27.296875 
Q 58.015625 14.40625 51.78125 6.484375 
Q 45.5625 -1.421875 35.59375 -1.421875 
Q 29.59375 -1.421875 25.265625 0.953125 
Q 20.953125 3.328125 18.109375 8.203125 
L 18.109375 0 
L 9.078125 0 
L 9.078125 75.984375 
L 18.109375 75.984375 
z
" id="DejaVuSans-98"/>
     </defs>
     <use xlink:href="#DejaVuSans-98"/>
     <use x="63.476562" xlink:href="#DejaVuSans-101"/>
     <use x="125" xlink:href="#DejaVuSans-115"/>
     <use x="177.099609" xlink:href="#DejaVuSans-116"/>
     <use x="216.308594" xlink:href="#DejaVuSans-32"/>
     <use x="248.095703" xlink:href="#DejaVuSans-50"/>
     <use x="311.71875" xlink:href="#DejaVuSans-48"/>
     <use x="375.341797" xlink:href="#DejaVuSans-49"/>
     <use x="438.964844" xlink:href="#DejaVuSans-54"/>
    </g>
   </g>
   <g id="text_17">
    <!-- bbob-biobj f1, 10-D -->
    <g transform="translate(60.41088 38.111366)scale(0.102 -0.102)">
     <defs>
      <path d="M 9.421875 54.6875 
L 18.40625 54.6875 
L 18.40625 -0.984375 
Q 18.40625 -11.421875 14.421875 -16.109375 
Q 10.453125 -20.796875 1.609375 -20.796875 
L -1.8125 -20.796875 
L -1.8125 -13.1875 
L 0.59375 -13.1875 
Q 5.71875 -13.1875 7.5625 -10.8125 
Q 9.421875 -8.453125 9.421875 -0.984375 
z
M 9.421875 75.984375 
L 18.40625 75.984375 
L 18.40625 64.59375 
L 9.421875 64.59375 
z
" id="DejaVuSans-106"/>
      <path d="M 19.671875 64.796875 
L 19.671875 8.109375 
L 31.59375 8.109375 
Q 46.6875 8.109375 53.6875 14.9375 
Q 60.6875 21.78125 60.6875 36.53125 
Q 60.6875 51.171875 53.6875 57.984375 
Q 46.6875 64.796875 31.59375 64.796875 
z
M 9.8125 72.90625 
L 30.078125 72.90625 
Q 51.265625 72.90625 61.171875 64.09375 
Q 71.09375 55.28125 71.09375 36.53125 
Q 71.09375 17.671875 61.125 8.828125 
Q 51.171875 0 30.078125 0 
L 9.8125 0 
z
" id="DejaVuSans-68"/>
     </defs>
     <use xlink:href="#DejaVuSans-98"/>
     <use x="63.476562" xlink:href="#DejaVuSans-98"/>
     <use x="126.953125" xlink:href="#DejaVuSans-111"/>
     <use x="188.134766" xlink:href="#DejaVuSans-98"/>
     <use x="251.611328" xlink:href="#DejaVuSans-45"/>
     <use x="287.695312" xlink:href="#DejaVuSans-98"/>
     <use x="351.171875" xlink:href="#DejaVuSans-105"/>
     <use x="378.955078" xlink:href="#DejaVuSans-111"/>
     <use x="440.136719" xlink:href="#DejaVuSans-98"/>
     <use x="503.613281" xlink:href="#DejaVuSans-106"/>
     <use x="531.396484" xlink:href="#DejaVuSans-32"/>
     <use x="563.183594" xlink:href="#DejaVuSans-102"/>
     <use x="598.388672" xlink:href="#DejaVuSans-49"/>
     <use x="662.011719" xlink:href="#DejaVuSans-44"/>
     <use x="693.798828" xlink:href="#DejaVuSans-32"/>
     <use x="725.585938" xlink:href="#DejaVuSans-49"/>
     <use x="789.208984" xlink:href="#DejaVuSans-48"/>
     <use x="852.832031" xlink:href="#DejaVuSans-45"/>
     <use x="888.916016" xlink:href="#DejaVuSans-68"/>
    </g>
    <!-- 58 targets: 1..-1.0e-4 -->
    <g transform="translate(60.41088 49.533135)scale(0.102 -0.102)">
     <defs>
      <path d="M 10.796875 72.90625 
L 49.515625 72.90625 
L 49.515625 64.59375 
L 19.828125 64.59375 
L 19.828125 46.734375 
Q 21.96875 47.46875 24.109375 47.828125 
Q 26.265625 48.1875 28.421875 48.1875 
Q 40.625 48.1875 47.75 41.5 
Q 54.890625 34.8125 54.890625 23.390625 
Q 54.890625 11.625 47.5625 5.09375 
Q 40.234375 -1.421875 26.90625 -1.421875 
Q 22.3125 -1.421875 17.546875 -0.640625 
Q 12.796875 0.140625 7.71875 1.703125 
L 7.71875 11.625 
Q 12.109375 9.234375 16.796875 8.0625 
Q 21.484375 6.890625 26.703125 6.890625 
Q 35.15625 6.890625 40.078125 11.328125 
Q 45.015625 15.765625 45.015625 23.390625 
Q 45.015625 31 40.078125 35.4375 
Q 35.15625 39.890625 26.703125 39.890625 
Q 22.75 39.890625 18.8125 39.015625 
Q 14.890625 38.140625 10.796875 36.28125 
z
" id="DejaVuSans-53"/>
      <path d="M 11.71875 12.40625 
L 22.015625 12.40625 
L 22.015625 0 
L 11.71875 0 
z
M 11.71875 51.703125 
L 22.015625 51.703125 
L 22.015625 39.3125 
L 11.71875 39.3125 
z
" id="DejaVuSans-58"/>
     </defs>
     <use xlink:href="#DejaVuSans-53"/>
     <use x="63.623047" xlink:href="#DejaVuSans-56"/>
     <use x="127.246094" xlink:href="#DejaVuSans-32"/>
     <use x="159.033203" xlink:href="#DejaVuSans-116"/>
     <use x="198.242188" xlink:href="#DejaVuSans-97"/>
     <use x="259.521484" xlink:href="#DejaVuSans-114"/>
     <use x="298.884766" xlink:href="#DejaVuSans-103"/>
     <use x="362.361328" xlink:href="#DejaVuSans-101"/>
     <use x="423.884766" xlink:href="#DejaVuSans-116"/>
     <use x="463.09375" xlink:href="#DejaVuSans-115"/>
     <use x="515.193359" xlink:href="#DejaVuSans-58"/>
     <use x="548.884766" xlink:href="#DejaVuSans-32"/>
     <use x="580.671875" xlink:href="#DejaVuSans-49"/>
     <use x="644.294922" xlink:href="#DejaVuSans-46"/>
     <use x="676.082031" xlink:href="#DejaVuSans-46"/>
     <use x="707.869141" xlink:href="#DejaVuSans-45"/>
     <use x="743.953125" xlink:href="#DejaVuSans-49"/>
     <use x="807.576172" xlink:href="#DejaVuSans-46"/>
     <use x="839.363281" xlink:href="#DejaVuSans-48"/>
     <use x="902.986328" xlink:href="#DejaVuSans-101"/>
     <use x="964.509766" xlink:href="#DejaVuSans-45"/>
     <use x="1000.59375" xlink:href="#DejaVuSans-52"/>
    </g>
    <!-- 10 instances -->
    <g transform="translate(60.41088 60.954904)scale(0.102 -0.102)">
     <use xlink:href="#DejaVuSans-49"/>
     <use x="63.623047" xlink:href="#DejaVuSans-48"/>
     <use x="127.246094" xlink:href="#DejaVuSans-32"/>
     <use x="159.033203" xlink:href="#DejaVuSans-105"/>
     <use x="186.816406" xlink:href="#DejaVuSans-110"/>
     <use x="250.195312" xlink:href="#DejaVuSans-115"/>
     <use x="302.294922" xlink:href="#DejaVuSans-116"/>
     <use x="341.503906" xlink:href="#DejaVuSans-97"/>
     <use x="402.783203" xlink:href="#DejaVuSans-110"/>
     <use x="466.162109" xlink:href="#DejaVuSans-99"/>
     <use x="521.142578" xlink:href="#DejaVuSans-101"/>
     <use x="582.666016" xlink:href="#DejaVuSans-115"/>
    </g>
   </g>
   <g id="text_18">
    <!-- v2.4.19, hv-hash=ff0e71e8cd978373 -->
    <g style="fill:#808080;" transform="translate(104.697125 294.151352)scale(0.1 -0.1)">
     <defs>
      <path d="M 10.984375 1.515625 
L 10.984375 10.5 
Q 14.703125 8.734375 18.5 7.8125 
Q 22.3125 6.890625 25.984375 6.890625 
Q 35.75 6.890625 40.890625 13.453125 
Q 46.046875 20.015625 46.78125 33.40625 
Q 43.953125 29.203125 39.59375 26.953125 
Q 35.25 24.703125 29.984375 24.703125 
Q 19.046875 24.703125 12.671875 31.3125 
Q 6.296875 37.9375 6.296875 49.421875 
Q 6.296875 60.640625 12.9375 67.421875 
Q 19.578125 74.21875 30.609375 74.21875 
Q 43.265625 74.21875 49.921875 64.515625 
Q 56.59375 54.828125 56.59375 36.375 
Q 56.59375 19.140625 48.40625 8.859375 
Q 40.234375 -1.421875 26.421875 -1.421875 
Q 22.703125 -1.421875 18.890625 -0.6875 
Q 15.09375 0.046875 10.984375 1.515625 
z
M 30.609375 32.421875 
Q 37.25 32.421875 41.125 36.953125 
Q 45.015625 41.5 45.015625 49.421875 
Q 45.015625 57.28125 41.125 61.84375 
Q 37.25 66.40625 30.609375 66.40625 
Q 23.96875 66.40625 20.09375 61.84375 
Q 16.21875 57.28125 16.21875 49.421875 
Q 16.21875 41.5 20.09375 36.953125 
Q 23.96875 32.421875 30.609375 32.421875 
z
" id="DejaVuSans-57"/>
      <path d="M 54.890625 33.015625 
L 54.890625 0 
L 45.90625 0 
L 45.90625 32.71875 
Q 45.90625 40.484375 42.875 44.328125 
Q 39.84375 48.1875 33.796875 48.1875 
Q 26.515625 48.1875 22.3125 43.546875 
Q 18.109375 38.921875 18.109375 30.90625 
L 18.109375 0 
L 9.078125 0 
L 9.078125 75.984375 
L 18.109375 75.984375 
L 18.109375 46.1875 
Q 21.34375 51.125 25.703125 53.5625 
Q 30.078125 56 35.796875 56 
Q 45.21875 56 50.046875 50.171875 
Q 54.890625 44.34375 54.890625 33.015625 
z
" id="DejaVuSans-104"/>
      <path d="M 10.59375 45.40625 
L 73.1875 45.40625 
L 73.1875 37.203125 
L 10.59375 37.203125 
z
M 10.59375 25.484375 
L 73.1875 25.484375 
L 73.1875 17.1875 
L 10.59375 17.1875 
z
" id="DejaVuSans-61"/>
      <path d="M 8.203125 72.90625 
L 55.078125 72.90625 
L 55.078125 68.703125 
L 28.609375 0 
L 18.3125 0 
L 43.21875 64.59375 
L 8.203125 64.59375 
z
" id="DejaVuSans-55"/>
      <path d="M 40.578125 39.3125 
Q 47.65625 37.796875 51.625 33 
Q 55.609375 28.21875 55.609375 21.1875 
Q 55.609375 10.40625 48.1875 4.484375 
Q 40.765625 -1.421875 27.09375 -1.421875 
Q 22.515625 -1.421875 17.65625 -0.515625 
Q 12.796875 0.390625 7.625 2.203125 
L 7.625 11.71875 
Q 11.71875 9.328125 16.59375 8.109375 
Q 21.484375 6.890625 26.8125 6.890625 
Q 36.078125 6.890625 40.9375 10.546875 
Q 45.796875 14.203125 45.796875 21.1875 
Q 45.796875 27.640625 41.28125 31.265625 
Q 36.765625 34.90625 28.71875 34.90625 
L 20.21875 34.90625 
L 20.21875 43.015625 
L 29.109375 43.015625 
Q 36.375 43.015625 40.234375 45.921875 
Q 44.09375 48.828125 44.09375 54.296875 
Q 44.09375 59.90625 40.109375 62.90625 
Q 36.140625 65.921875 28.71875 65.921875 
Q 24.65625 65.921875 20.015625 65.03125 
Q 15.375 64.15625 9.8125 62.3125 
L 9.8125 71.09375 
Q 15.4375 72.65625 20.34375 73.4375 
Q 25.25 74.21875 29.59375 74.21875 
Q 40.828125 74.21875 47.359375 69.109375 
Q 53.90625 64.015625 53.90625 55.328125 
Q 53.90625 49.265625 50.4375 45.09375 
Q 46.96875 40.921875 40.578125 39.3125 
z
" id="DejaVuSans-51"/>
     </defs>
     <use xlink:href="#DejaVuSans-118"/>
     <use x="59.179688" xlink:href="#DejaVuSans-50"/>
     <use x="122.802734" xlink:href="#DejaVuSans-46"/>
     <use x="154.589844" xlink:href="#DejaVuSans-52"/>
     <use x="218.212891" xlink:href="#DejaVuSans-46"/>
     <use x="250" xlink:href="#DejaVuSans-49"/>
     <use x="313.623047" xlink:href="#DejaVuSans-57"/>
     <use x="377.246094" xlink:href="#DejaVuSans-44"/>
     <use x="409.033203" xlink:href="#DejaVuSans-32"/>
     <use x="440.820312" xlink:href="#DejaVuSans-104"/>
     <use x="504.199219" xlink:href="#DejaVuSans-118"/>
     <use x="560.753906" xlink:href="#DejaVuSans-45"/>
     <use x="596.837891" xlink:href="#DejaVuSans-104"/>
     <use x="660.216797" xlink:href="#DejaVuSans-97"/>
     <use x="721.496094" xlink:href="#DejaVuSans-115"/>
     <use x="773.595703" xlink:href="#DejaVuSans-104"/>
     <use x="836.974609" xlink:href="#DejaVuSans-61"/>
     <use x="920.763672" xlink:href="#DejaVuSans-102"/>
     <use x="955.96875" xlink:href="#DejaVuSans-102"/>
     <use x="991.173828" xlink:href="#DejaVuSans-48"/>
     <use x="1054.796875" xlink:href="#DejaVuSans-101"/>
     <use x="1116.320312" xlink:href="#DejaVuSans-55"/>
     <use x="1179.943359" xlink:href="#DejaVuSans-49"/>
     <use x="1243.566406" xlink:href="#DejaVuSans-101"/>
     <use x="1305.089844" xlink:href="#DejaVuSans-56"/>
     <use x="1368.712891" xlink:href="#DejaVuSans-99"/>
     <use x="1423.693359" xlink:href="#DejaVuSans-100"/>
     <use x="1487.169922" xlink:href="#DejaVuSans-57"/>
     <use x="1550.792969" xlink:href="#DejaVuSans-55"/>
     <use x="1614.416016" xlink:href="#DejaVuSans-56"/>
     <use x="1678.039062" xlink:href="#DejaVuSans-51"/>
     <use x="1741.662109" xlink:href="#DejaVuSans-55"/>
     <use x="1805.285156" xlink:href="#DejaVuSans-51"/>
    </g>
   </g>
   <g id="text_19">
    <!-- 1 Sphere/Sphere -->
    <g transform="translate(114.7815 21.648)scale(0.2 -0.2)">
     <use xlink:href="#DejaVuSans-49"/>
     <use x="63.623047" xlink:href="#DejaVuSans-32"/>
     <use x="95.410156" xlink:href="#DejaVuSans-83"/>
     <use x="158.886719" xlink:href="#DejaVuSans-112"/>
     <use x="222.363281" xlink:href="#DejaVuSans-104"/>
     <use x="285.742188" xlink:href="#DejaVuSans-101"/>
     <use x="347.265625" xlink:href="#DejaVuSans-114"/>
     <use x="386.128906" xlink:href="#DejaVuSans-101"/>
     <use x="447.652344" xlink:href="#DejaVuSans-47"/>
     <use x="481.34375" xlink:href="#DejaVuSans-83"/>
     <use x="544.820312" xlink:href="#DejaVuSans-112"/>
     <use x="608.296875" xlink:href="#DejaVuSans-104"/>
     <use x="671.675781" xlink:href="#DejaVuSans-101"/>
     <use x="733.199219" xlink:href="#DejaVuSans-114"/>
     <use x="772.0625" xlink:href="#DejaVuSans-101"/>
    </g>
   </g>
  </g>
 </g>
 <defs>
  <clipPath id="p387589e7ea">
   <rect height="271.296" width="281.088" x="57.6" y="27.648"/>
  </clipPath>
 </defs>
</svg>
