<?xml version="1.0" encoding="utf-8" standalone="no"?>
<!DOCTYPE svg PUBLIC "-//W3C//DTD SVG 1.1//EN"
  "http://www.w3.org/Graphics/SVG/1.1/DTD/svg11.dtd">
<!-- Created with matplotlib (https://matplotlib.org/) -->
<svg height="345.6pt" version="1.1" viewBox="0 0 460.8 345.6" width="460.8pt" xmlns="http://www.w3.org/2000/svg" xmlns:xlink="http://www.w3.org/1999/xlink">
 <metadata>
  <rdf:RDF xmlns:cc="http://creativecommons.org/ns#" xmlns:dc="http://purl.org/dc/elements/1.1/" xmlns:rdf="http://www.w3.org/1999/02/22-rdf-syntax-ns#">
   <cc:Work>
    <dc:type rdf:resource="http://purl.org/dc/dcmitype/StillImage"/>
    <dc:date>2021-04-26T15:06:06.514143</dc:date>
    <dc:format>image/svg+xml</dc:format>
    <dc:creator>
     <cc:Agent>
      <dc:title>Matplotlib v3.3.2, https://matplotlib.org/</dc:title>
     </cc:Agent>
    </dc:creator>
   </cc:Work>
  </rdf:RDF>
 </metadata>
 <defs>
  <style type="text/css">*{stroke-linecap:butt;stroke-linejoin:round;}</style>
 </defs>
 <g id="figure_1">
  <g id="patch_1">
   <path d="M 0 345.6 
L 460.8 345.6 
L 460.8 0 
L 0 0 
z
" style="fill:#ffffff;"/>
  </g>
  <g id="axes_1">
   <g id="patch_2">
    <path d="M 57.6 298.944 
L 338.688 298.944 
L 338.688 27.648 
L 57.6 27.648 
z
" style="fill:#ffffff;"/>
   </g>
   <g id="line2d_1">
    <path d="M 53.708537 298.944 
L 53.708537 294.312795 
L 79.938565 294.312795 
L 79.938565 285.050384 
L 105.951954 285.050384 
L 105.951954 275.787974 
L 145.48607 275.787974 
L 145.48607 271.156769 
L 168.77585 271.156769 
L 168.77585 257.263153 
L 175.701682 257.263153 
L 175.701682 248.000743 
L 186.023567 248.000743 
L 186.023567 243.369538 
L 197.844316 243.369538 
L 197.844316 234.107127 
L 212.318548 234.107127 
L 212.318548 220.213512 
L 236.689271 220.213512 
L 236.689271 210.951101 
L 247.746598 210.951101 
L 247.746598 201.688691 
L 253.919129 201.688691 
L 253.919129 192.426281 
L 264.777046 192.426281 
L 264.777046 187.795075 
L 274.675876 187.795075 
L 274.675876 173.90146 
L 290.865362 173.90146 
L 290.865362 169.270255 
L 299.8556 169.270255 
L 299.8556 155.376639 
L 301.384552 155.376639 
L 301.384552 146.114229 
L 307.846198 146.114229 
L 307.846198 141.483024 
L 309.27001 141.483024 
L 309.27001 127.589408 
L 314.357357 127.589408 
L 314.357357 122.958203 
L 314.677481 122.958203 
L 314.677481 109.064587 
L 320.935047 109.064587 
L 320.935047 99.802177 
L 328.498261 99.802177 
L 328.498261 90.539766 
L 328.570063 90.539766 
L 328.570063 85.908561 
L 328.606071 85.908561 
L 328.606071 76.646151 
L 338.688 76.646151 
" style="fill:none;stroke:#f5deb3;stroke-linecap:square;stroke-width:4;"/>
   </g>
   <g id="line2d_2">
    <defs>
     <path d="M 0 7.778175 
L 7.778175 0 
L 0 -7.778175 
L -7.778175 0 
z
" id="m04b4c088ae" style="stroke:#f5deb3;stroke-linejoin:miter;stroke-width:1.5;"/>
    </defs>
    <g>
     <use style="fill:#f5deb3;stroke:#f5deb3;stroke-linejoin:miter;stroke-width:1.5;" x="145.48607" xlink:href="#m04b4c088ae" y="271.156769"/>
     <use style="fill:#f5deb3;stroke:#f5deb3;stroke-linejoin:miter;stroke-width:1.5;" x="236.689271" xlink:href="#m04b4c088ae" y="220.213512"/>
     <use style="fill:#f5deb3;stroke:#f5deb3;stroke-linejoin:miter;stroke-width:1.5;" x="274.675876" xlink:href="#m04b4c088ae" y="173.90146"/>
     <use style="fill:#f5deb3;stroke:#f5deb3;stroke-linejoin:miter;stroke-width:1.5;" x="328.570063" xlink:href="#m04b4c088ae" y="85.908561"/>
     <use style="fill:#f5deb3;stroke:#f5deb3;stroke-linejoin:miter;stroke-width:1.5;" x="328.606071" xlink:href="#m04b4c088ae" y="76.646151"/>
     <use style="fill:#f5deb3;stroke:#f5deb3;stroke-linejoin:miter;stroke-width:1.5;" x="338.688" xlink:href="#m04b4c088ae" y="76.646151"/>
    </g>
   </g>
   <g id="line2d_3">
    <path style="fill:none;stroke:#f5deb3;stroke-linecap:square;stroke-width:4;"/>
    <g/>
   </g>
   <g id="line2d_4">
    <path d="M 338.688 76.646151 
L 369.60768 35.706297 
" style="fill:none;stroke:#f5deb3;stroke-linecap:square;stroke-width:4;"/>
    <g>
     <use style="fill:#f5deb3;stroke:#f5deb3;stroke-linejoin:miter;stroke-width:1.5;" x="338.688" xlink:href="#m04b4c088ae" y="76.646151"/>
     <use style="fill:#f5deb3;stroke:#f5deb3;stroke-linejoin:miter;stroke-width:1.5;" x="369.60768" xlink:href="#m04b4c088ae" y="35.706297"/>
    </g>
   </g>
   <g id="matplotlib.axis_1">
    <g id="xtick_1">
     <g id="line2d_5">
      <path clip-path="url(#pa02a4f7d23)" d="M 57.6 298.944 
L 57.6 27.648 
" style="fill:none;stroke:#b0b0b0;stroke-linecap:square;stroke-width:0.8;"/>
     </g>
     <g id="line2d_6">
      <defs>
       <path d="M 0 0 
L 0 3.5 
" id="m1043d62c4d" style="stroke:#000000;stroke-width:0.8;"/>
      </defs>
      <g>
       <use style="stroke:#000000;stroke-width:0.8;" x="57.6" xlink:href="#m1043d62c4d" y="298.944"/>
      </g>
     </g>
     <g id="text_1">
      <!-- 0 -->
      <g transform="translate(51.2375 321.140875)scale(0.2 -0.2)">
       <defs>
        <path d="M 31.78125 66.40625 
Q 24.171875 66.40625 20.328125 58.90625 
Q 16.5 51.421875 16.5 36.375 
Q 16.5 21.390625 20.328125 13.890625 
Q 24.171875 6.390625 31.78125 6.390625 
Q 39.453125 6.390625 43.28125 13.890625 
Q 47.125 21.390625 47.125 36.375 
Q 47.125 51.421875 43.28125 58.90625 
Q 39.453125 66.40625 31.78125 66.40625 
z
M 31.78125 74.21875 
Q 44.046875 74.21875 50.515625 64.515625 
Q 56.984375 54.828125 56.984375 36.375 
Q 56.984375 17.96875 50.515625 8.265625 
Q 44.046875 -1.421875 31.78125 -1.421875 
Q 19.53125 -1.421875 13.0625 8.265625 
Q 6.59375 17.96875 6.59375 36.375 
Q 6.59375 54.828125 13.0625 64.515625 
Q 19.53125 74.21875 31.78125 74.21875 
z
" id="DejaVuSans-48"/>
       </defs>
       <use xlink:href="#DejaVuSans-48"/>
      </g>
     </g>
    </g>
    <g id="xtick_2">
     <g id="line2d_7">
      <path clip-path="url(#pa02a4f7d23)" d="M 137.910857 298.944 
L 137.910857 27.648 
" style="fill:none;stroke:#b0b0b0;stroke-linecap:square;stroke-width:0.8;"/>
     </g>
     <g id="line2d_8">
      <g>
       <use style="stroke:#000000;stroke-width:0.8;" x="137.910857" xlink:href="#m1043d62c4d" y="298.944"/>
      </g>
     </g>
     <g id="text_2">
      <!-- 2 -->
      <g transform="translate(131.548357 321.140875)scale(0.2 -0.2)">
       <defs>
        <path d="M 19.1875 8.296875 
L 53.609375 8.296875 
L 53.609375 0 
L 7.328125 0 
L 7.328125 8.296875 
Q 12.9375 14.109375 22.625 23.890625 
Q 32.328125 33.6875 34.8125 36.53125 
Q 39.546875 41.84375 41.421875 45.53125 
Q 43.3125 49.21875 43.3125 52.78125 
Q 43.3125 58.59375 39.234375 62.25 
Q 35.15625 65.921875 28.609375 65.921875 
Q 23.96875 65.921875 18.8125 64.3125 
Q 13.671875 62.703125 7.8125 59.421875 
L 7.8125 69.390625 
Q 13.765625 71.78125 18.9375 73 
Q 24.125 74.21875 28.421875 74.21875 
Q 39.75 74.21875 46.484375 68.546875 
Q 53.21875 62.890625 53.21875 53.421875 
Q 53.21875 48.921875 51.53125 44.890625 
Q 49.859375 40.875 45.40625 35.40625 
Q 44.1875 33.984375 37.640625 27.21875 
Q 31.109375 20.453125 19.1875 8.296875 
z
" id="DejaVuSans-50"/>
       </defs>
       <use xlink:href="#DejaVuSans-50"/>
      </g>
     </g>
    </g>
    <g id="xtick_3">
     <g id="line2d_9">
      <path clip-path="url(#pa02a4f7d23)" d="M 218.221714 298.944 
L 218.221714 27.648 
" style="fill:none;stroke:#b0b0b0;stroke-linecap:square;stroke-width:0.8;"/>
     </g>
     <g id="line2d_10">
      <g>
       <use style="stroke:#000000;stroke-width:0.8;" x="218.221714" xlink:href="#m1043d62c4d" y="298.944"/>
      </g>
     </g>
     <g id="text_3">
      <!-- 4 -->
      <g transform="translate(211.859214 321.140875)scale(0.2 -0.2)">
       <defs>
        <path d="M 37.796875 64.3125 
L 12.890625 25.390625 
L 37.796875 25.390625 
z
M 35.203125 72.90625 
L 47.609375 72.90625 
L 47.609375 25.390625 
L 58.015625 25.390625 
L 58.015625 17.1875 
L 47.609375 17.1875 
L 47.609375 0 
L 37.796875 0 
L 37.796875 17.1875 
L 4.890625 17.1875 
L 4.890625 26.703125 
z
" id="DejaVuSans-52"/>
       </defs>
       <use xlink:href="#DejaVuSans-52"/>
      </g>
     </g>
    </g>
    <g id="xtick_4">
     <g id="line2d_11">
      <path clip-path="url(#pa02a4f7d23)" d="M 298.532571 298.944 
L 298.532571 27.648 
" style="fill:none;stroke:#b0b0b0;stroke-linecap:square;stroke-width:0.8;"/>
     </g>
     <g id="line2d_12">
      <g>
       <use style="stroke:#000000;stroke-width:0.8;" x="298.532571" xlink:href="#m1043d62c4d" y="298.944"/>
      </g>
     </g>
     <g id="text_4">
      <!-- 6 -->
      <g transform="translate(292.170071 321.140875)scale(0.2 -0.2)">
       <defs>
        <path d="M 33.015625 40.375 
Q 26.375 40.375 22.484375 35.828125 
Q 18.609375 31.296875 18.609375 23.390625 
Q 18.609375 15.53125 22.484375 10.953125 
Q 26.375 6.390625 33.015625 6.390625 
Q 39.65625 6.390625 43.53125 10.953125 
Q 47.40625 15.53125 47.40625 23.390625 
Q 47.40625 31.296875 43.53125 35.828125 
Q 39.65625 40.375 33.015625 40.375 
z
M 52.59375 71.296875 
L 52.59375 62.3125 
Q 48.875 64.0625 45.09375 64.984375 
Q 41.3125 65.921875 37.59375 65.921875 
Q 27.828125 65.921875 22.671875 59.328125 
Q 17.53125 52.734375 16.796875 39.40625 
Q 19.671875 43.65625 24.015625 45.921875 
Q 28.375 48.1875 33.59375 48.1875 
Q 44.578125 48.1875 50.953125 41.515625 
Q 57.328125 34.859375 57.328125 23.390625 
Q 57.328125 12.15625 50.6875 5.359375 
Q 44.046875 -1.421875 33.015625 -1.421875 
Q 20.359375 -1.421875 13.671875 8.265625 
Q 6.984375 17.96875 6.984375 36.375 
Q 6.984375 53.65625 15.1875 63.9375 
Q 23.390625 74.21875 37.203125 74.21875 
Q 40.921875 74.21875 44.703125 73.484375 
Q 48.484375 72.75 52.59375 71.296875 
z
" id="DejaVuSans-54"/>
       </defs>
       <use xlink:href="#DejaVuSans-54"/>
      </g>
     </g>
    </g>
    <g id="xtick_5">
     <g id="line2d_13">
      <path clip-path="url(#pa02a4f7d23)" d="M 97.755429 298.944 
L 97.755429 27.648 
" style="fill:none;stroke:#b0b0b0;stroke-linecap:square;stroke-width:0.8;"/>
     </g>
     <g id="line2d_14">
      <defs>
       <path d="M 0 0 
L 0 2 
" id="m00e3e0e256" style="stroke:#000000;stroke-width:0.6;"/>
      </defs>
      <g>
       <use style="stroke:#000000;stroke-width:0.6;" x="97.755429" xlink:href="#m00e3e0e256" y="298.944"/>
      </g>
     </g>
    </g>
    <g id="xtick_6">
     <g id="line2d_15">
      <path clip-path="url(#pa02a4f7d23)" d="M 178.066286 298.944 
L 178.066286 27.648 
" style="fill:none;stroke:#b0b0b0;stroke-linecap:square;stroke-width:0.8;"/>
     </g>
     <g id="line2d_16">
      <g>
       <use style="stroke:#000000;stroke-width:0.6;" x="178.066286" xlink:href="#m00e3e0e256" y="298.944"/>
      </g>
     </g>
    </g>
    <g id="xtick_7">
     <g id="line2d_17">
      <path clip-path="url(#pa02a4f7d23)" d="M 258.377143 298.944 
L 258.377143 27.648 
" style="fill:none;stroke:#b0b0b0;stroke-linecap:square;stroke-width:0.8;"/>
     </g>
     <g id="line2d_18">
      <g>
       <use style="stroke:#000000;stroke-width:0.6;" x="258.377143" xlink:href="#m00e3e0e256" y="298.944"/>
      </g>
     </g>
    </g>
    <g id="xtick_8">
     <g id="line2d_19">
      <path clip-path="url(#pa02a4f7d23)" d="M 338.688 298.944 
L 338.688 27.648 
" style="fill:none;stroke:#b0b0b0;stroke-linecap:square;stroke-width:0.8;"/>
     </g>
     <g id="line2d_20">
      <g>
       <use style="stroke:#000000;stroke-width:0.6;" x="338.688" xlink:href="#m00e3e0e256" y="298.944"/>
      </g>
     </g>
    </g>
    <g id="text_5">
     <!-- log10(# f-evals / dimension) -->
     <g transform="translate(77.764078 342.217594)scale(0.17 -0.17)">
      <defs>
       <path d="M 9.421875 75.984375 
L 18.40625 75.984375 
L 18.40625 0 
L 9.421875 0 
z
" id="DejaVuSans-108"/>
       <path d="M 30.609375 48.390625 
Q 23.390625 48.390625 19.1875 42.75 
Q 14.984375 37.109375 14.984375 27.296875 
Q 14.984375 17.484375 19.15625 11.84375 
Q 23.34375 6.203125 30.609375 6.203125 
Q 37.796875 6.203125 41.984375 11.859375 
Q 46.1875 17.53125 46.1875 27.296875 
Q 46.1875 37.015625 41.984375 42.703125 
Q 37.796875 48.390625 30.609375 48.390625 
z
M 30.609375 56 
Q 42.328125 56 49.015625 48.375 
Q 55.71875 40.765625 55.71875 27.296875 
Q 55.71875 13.875 49.015625 6.21875 
Q 42.328125 -1.421875 30.609375 -1.421875 
Q 18.84375 -1.421875 12.171875 6.21875 
Q 5.515625 13.875 5.515625 27.296875 
Q 5.515625 40.765625 12.171875 48.375 
Q 18.84375 56 30.609375 56 
z
" id="DejaVuSans-111"/>
       <path d="M 45.40625 27.984375 
Q 45.40625 37.75 41.375 43.109375 
Q 37.359375 48.484375 30.078125 48.484375 
Q 22.859375 48.484375 18.828125 43.109375 
Q 14.796875 37.75 14.796875 27.984375 
Q 14.796875 18.265625 18.828125 12.890625 
Q 22.859375 7.515625 30.078125 7.515625 
Q 37.359375 7.515625 41.375 12.890625 
Q 45.40625 18.265625 45.40625 27.984375 
z
M 54.390625 6.78125 
Q 54.390625 -7.171875 48.1875 -13.984375 
Q 42 -20.796875 29.203125 -20.796875 
Q 24.46875 -20.796875 20.265625 -20.09375 
Q 16.0625 -19.390625 12.109375 -17.921875 
L 12.109375 -9.1875 
Q 16.0625 -11.328125 19.921875 -12.34375 
Q 23.78125 -13.375 27.78125 -13.375 
Q 36.625 -13.375 41.015625 -8.765625 
Q 45.40625 -4.15625 45.40625 5.171875 
L 45.40625 9.625 
Q 42.625 4.78125 38.28125 2.390625 
Q 33.9375 0 27.875 0 
Q 17.828125 0 11.671875 7.65625 
Q 5.515625 15.328125 5.515625 27.984375 
Q 5.515625 40.671875 11.671875 48.328125 
Q 17.828125 56 27.875 56 
Q 33.9375 56 38.28125 53.609375 
Q 42.625 51.21875 45.40625 46.390625 
L 45.40625 54.6875 
L 54.390625 54.6875 
z
" id="DejaVuSans-103"/>
       <path d="M 12.40625 8.296875 
L 28.515625 8.296875 
L 28.515625 63.921875 
L 10.984375 60.40625 
L 10.984375 69.390625 
L 28.421875 72.90625 
L 38.28125 72.90625 
L 38.28125 8.296875 
L 54.390625 8.296875 
L 54.390625 0 
L 12.40625 0 
z
" id="DejaVuSans-49"/>
       <path d="M 31 75.875 
Q 24.46875 64.65625 21.28125 53.65625 
Q 18.109375 42.671875 18.109375 31.390625 
Q 18.109375 20.125 21.3125 9.0625 
Q 24.515625 -2 31 -13.1875 
L 23.1875 -13.1875 
Q 15.875 -1.703125 12.234375 9.375 
Q 8.59375 20.453125 8.59375 31.390625 
Q 8.59375 42.28125 12.203125 53.3125 
Q 15.828125 64.359375 23.1875 75.875 
z
" id="DejaVuSans-40"/>
       <path d="M 51.125 44 
L 36.921875 44 
L 32.8125 27.6875 
L 47.125 27.6875 
z
M 43.796875 71.78125 
L 38.71875 51.515625 
L 52.984375 51.515625 
L 58.109375 71.78125 
L 65.921875 71.78125 
L 60.890625 51.515625 
L 76.125 51.515625 
L 76.125 44 
L 58.984375 44 
L 54.984375 27.6875 
L 70.515625 27.6875 
L 70.515625 20.21875 
L 53.078125 20.21875 
L 48 0 
L 40.1875 0 
L 45.21875 20.21875 
L 30.90625 20.21875 
L 25.875 0 
L 18.015625 0 
L 23.09375 20.21875 
L 7.71875 20.21875 
L 7.71875 27.6875 
L 24.90625 27.6875 
L 29 44 
L 13.28125 44 
L 13.28125 51.515625 
L 30.90625 51.515625 
L 35.890625 71.78125 
z
" id="DejaVuSans-35"/>
       <path id="DejaVuSans-32"/>
       <path d="M 37.109375 75.984375 
L 37.109375 68.5 
L 28.515625 68.5 
Q 23.6875 68.5 21.796875 66.546875 
Q 19.921875 64.59375 19.921875 59.515625 
L 19.921875 54.6875 
L 34.71875 54.6875 
L 34.71875 47.703125 
L 19.921875 47.703125 
L 19.921875 0 
L 10.890625 0 
L 10.890625 47.703125 
L 2.296875 47.703125 
L 2.296875 54.6875 
L 10.890625 54.6875 
L 10.890625 58.5 
Q 10.890625 67.625 15.140625 71.796875 
Q 19.390625 75.984375 28.609375 75.984375 
z
" id="DejaVuSans-102"/>
       <path d="M 4.890625 31.390625 
L 31.203125 31.390625 
L 31.203125 23.390625 
L 4.890625 23.390625 
z
" id="DejaVuSans-45"/>
       <path d="M 56.203125 29.59375 
L 56.203125 25.203125 
L 14.890625 25.203125 
Q 15.484375 15.921875 20.484375 11.0625 
Q 25.484375 6.203125 34.421875 6.203125 
Q 39.59375 6.203125 44.453125 7.46875 
Q 49.3125 8.734375 54.109375 11.28125 
L 54.109375 2.78125 
Q 49.265625 0.734375 44.1875 -0.34375 
Q 39.109375 -1.421875 33.890625 -1.421875 
Q 20.796875 -1.421875 13.15625 6.1875 
Q 5.515625 13.8125 5.515625 26.8125 
Q 5.515625 40.234375 12.765625 48.109375 
Q 20.015625 56 32.328125 56 
Q 43.359375 56 49.78125 48.890625 
Q 56.203125 41.796875 56.203125 29.59375 
z
M 47.21875 32.234375 
Q 47.125 39.59375 43.09375 43.984375 
Q 39.0625 48.390625 32.421875 48.390625 
Q 24.90625 48.390625 20.390625 44.140625 
Q 15.875 39.890625 15.1875 32.171875 
z
" id="DejaVuSans-101"/>
       <path d="M 2.984375 54.6875 
L 12.5 54.6875 
L 29.59375 8.796875 
L 46.6875 54.6875 
L 56.203125 54.6875 
L 35.6875 0 
L 23.484375 0 
z
" id="DejaVuSans-118"/>
       <path d="M 34.28125 27.484375 
Q 23.390625 27.484375 19.1875 25 
Q 14.984375 22.515625 14.984375 16.5 
Q 14.984375 11.71875 18.140625 8.90625 
Q 21.296875 6.109375 26.703125 6.109375 
Q 34.1875 6.109375 38.703125 11.40625 
Q 43.21875 16.703125 43.21875 25.484375 
L 43.21875 27.484375 
z
M 52.203125 31.203125 
L 52.203125 0 
L 43.21875 0 
L 43.21875 8.296875 
Q 40.140625 3.328125 35.546875 0.953125 
Q 30.953125 -1.421875 24.3125 -1.421875 
Q 15.921875 -1.421875 10.953125 3.296875 
Q 6 8.015625 6 15.921875 
Q 6 25.140625 12.171875 29.828125 
Q 18.359375 34.515625 30.609375 34.515625 
L 43.21875 34.515625 
L 43.21875 35.40625 
Q 43.21875 41.609375 39.140625 45 
Q 35.0625 48.390625 27.6875 48.390625 
Q 23 48.390625 18.546875 47.265625 
Q 14.109375 46.140625 10.015625 43.890625 
L 10.015625 52.203125 
Q 14.9375 54.109375 19.578125 55.046875 
Q 24.21875 56 28.609375 56 
Q 40.484375 56 46.34375 49.84375 
Q 52.203125 43.703125 52.203125 31.203125 
z
" id="DejaVuSans-97"/>
       <path d="M 44.28125 53.078125 
L 44.28125 44.578125 
Q 40.484375 46.53125 36.375 47.5 
Q 32.28125 48.484375 27.875 48.484375 
Q 21.1875 48.484375 17.84375 46.4375 
Q 14.5 44.390625 14.5 40.28125 
Q 14.5 37.15625 16.890625 35.375 
Q 19.28125 33.59375 26.515625 31.984375 
L 29.59375 31.296875 
Q 39.15625 29.25 43.1875 25.515625 
Q 47.21875 21.78125 47.21875 15.09375 
Q 47.21875 7.46875 41.1875 3.015625 
Q 35.15625 -1.421875 24.609375 -1.421875 
Q 20.21875 -1.421875 15.453125 -0.5625 
Q 10.6875 0.296875 5.421875 2 
L 5.421875 11.28125 
Q 10.40625 8.6875 15.234375 7.390625 
Q 20.0625 6.109375 24.8125 6.109375 
Q 31.15625 6.109375 34.5625 8.28125 
Q 37.984375 10.453125 37.984375 14.40625 
Q 37.984375 18.0625 35.515625 20.015625 
Q 33.0625 21.96875 24.703125 23.78125 
L 21.578125 24.515625 
Q 13.234375 26.265625 9.515625 29.90625 
Q 5.8125 33.546875 5.8125 39.890625 
Q 5.8125 47.609375 11.28125 51.796875 
Q 16.75 56 26.8125 56 
Q 31.78125 56 36.171875 55.265625 
Q 40.578125 54.546875 44.28125 53.078125 
z
" id="DejaVuSans-115"/>
       <path d="M 25.390625 72.90625 
L 33.6875 72.90625 
L 8.296875 -9.28125 
L 0 -9.28125 
z
" id="DejaVuSans-47"/>
       <path d="M 45.40625 46.390625 
L 45.40625 75.984375 
L 54.390625 75.984375 
L 54.390625 0 
L 45.40625 0 
L 45.40625 8.203125 
Q 42.578125 3.328125 38.25 0.953125 
Q 33.9375 -1.421875 27.875 -1.421875 
Q 17.96875 -1.421875 11.734375 6.484375 
Q 5.515625 14.40625 5.515625 27.296875 
Q 5.515625 40.1875 11.734375 48.09375 
Q 17.96875 56 27.875 56 
Q 33.9375 56 38.25 53.625 
Q 42.578125 51.265625 45.40625 46.390625 
z
M 14.796875 27.296875 
Q 14.796875 17.390625 18.875 11.75 
Q 22.953125 6.109375 30.078125 6.109375 
Q 37.203125 6.109375 41.296875 11.75 
Q 45.40625 17.390625 45.40625 27.296875 
Q 45.40625 37.203125 41.296875 42.84375 
Q 37.203125 48.484375 30.078125 48.484375 
Q 22.953125 48.484375 18.875 42.84375 
Q 14.796875 37.203125 14.796875 27.296875 
z
" id="DejaVuSans-100"/>
       <path d="M 9.421875 54.6875 
L 18.40625 54.6875 
L 18.40625 0 
L 9.421875 0 
z
M 9.421875 75.984375 
L 18.40625 75.984375 
L 18.40625 64.59375 
L 9.421875 64.59375 
z
" id="DejaVuSans-105"/>
       <path d="M 52 44.1875 
Q 55.375 50.25 60.0625 53.125 
Q 64.75 56 71.09375 56 
Q 79.640625 56 84.28125 50.015625 
Q 88.921875 44.046875 88.921875 33.015625 
L 88.921875 0 
L 79.890625 0 
L 79.890625 32.71875 
Q 79.890625 40.578125 77.09375 44.375 
Q 74.3125 48.1875 68.609375 48.1875 
Q 61.625 48.1875 57.5625 43.546875 
Q 53.515625 38.921875 53.515625 30.90625 
L 53.515625 0 
L 44.484375 0 
L 44.484375 32.71875 
Q 44.484375 40.625 41.703125 44.40625 
Q 38.921875 48.1875 33.109375 48.1875 
Q 26.21875 48.1875 22.15625 43.53125 
Q 18.109375 38.875 18.109375 30.90625 
L 18.109375 0 
L 9.078125 0 
L 9.078125 54.6875 
L 18.109375 54.6875 
L 18.109375 46.1875 
Q 21.1875 51.21875 25.484375 53.609375 
Q 29.78125 56 35.6875 56 
Q 41.65625 56 45.828125 52.96875 
Q 50 49.953125 52 44.1875 
z
" id="DejaVuSans-109"/>
       <path d="M 54.890625 33.015625 
L 54.890625 0 
L 45.90625 0 
L 45.90625 32.71875 
Q 45.90625 40.484375 42.875 44.328125 
Q 39.84375 48.1875 33.796875 48.1875 
Q 26.515625 48.1875 22.3125 43.546875 
Q 18.109375 38.921875 18.109375 30.90625 
L 18.109375 0 
L 9.078125 0 
L 9.078125 54.6875 
L 18.109375 54.6875 
L 18.109375 46.1875 
Q 21.34375 51.125 25.703125 53.5625 
Q 30.078125 56 35.796875 56 
Q 45.21875 56 50.046875 50.171875 
Q 54.890625 44.34375 54.890625 33.015625 
z
" id="DejaVuSans-110"/>
       <path d="M 8.015625 75.875 
L 15.828125 75.875 
Q 23.140625 64.359375 26.78125 53.3125 
Q 30.421875 42.28125 30.421875 31.390625 
Q 30.421875 20.453125 26.78125 9.375 
Q 23.140625 -1.703125 15.828125 -13.1875 
L 8.015625 -13.1875 
Q 14.5 -2 17.703125 9.0625 
Q 20.90625 20.125 20.90625 31.390625 
Q 20.90625 42.671875 17.703125 53.65625 
Q 14.5 64.65625 8.015625 75.875 
z
" id="DejaVuSans-41"/>
      </defs>
      <use xlink:href="#DejaVuSans-108"/>
      <use x="27.783203" xlink:href="#DejaVuSans-111"/>
      <use x="88.964844" xlink:href="#DejaVuSans-103"/>
      <use x="152.441406" xlink:href="#DejaVuSans-49"/>
      <use x="216.064453" xlink:href="#DejaVuSans-48"/>
      <use x="279.6875" xlink:href="#DejaVuSans-40"/>
      <use x="318.701172" xlink:href="#DejaVuSans-35"/>
      <use x="402.490234" xlink:href="#DejaVuSans-32"/>
      <use x="434.277344" xlink:href="#DejaVuSans-102"/>
      <use x="463.982422" xlink:href="#DejaVuSans-45"/>
      <use x="500.066406" xlink:href="#DejaVuSans-101"/>
      <use x="561.589844" xlink:href="#DejaVuSans-118"/>
      <use x="620.769531" xlink:href="#DejaVuSans-97"/>
      <use x="682.048828" xlink:href="#DejaVuSans-108"/>
      <use x="709.832031" xlink:href="#DejaVuSans-115"/>
      <use x="761.931641" xlink:href="#DejaVuSans-32"/>
      <use x="793.71875" xlink:href="#DejaVuSans-47"/>
      <use x="827.410156" xlink:href="#DejaVuSans-32"/>
      <use x="859.197266" xlink:href="#DejaVuSans-100"/>
      <use x="922.673828" xlink:href="#DejaVuSans-105"/>
      <use x="950.457031" xlink:href="#DejaVuSans-109"/>
      <use x="1047.869141" xlink:href="#DejaVuSans-101"/>
      <use x="1109.392578" xlink:href="#DejaVuSans-110"/>
      <use x="1172.771484" xlink:href="#DejaVuSans-115"/>
      <use x="1224.871094" xlink:href="#DejaVuSans-105"/>
      <use x="1252.654297" xlink:href="#DejaVuSans-111"/>
      <use x="1313.835938" xlink:href="#DejaVuSans-110"/>
      <use x="1377.214844" xlink:href="#DejaVuSans-41"/>
     </g>
    </g>
   </g>
   <g id="matplotlib.axis_2">
    <g id="ytick_1">
     <g id="line2d_21">
      <path clip-path="url(#pa02a4f7d23)" d="M 57.6 298.944 
L 338.688 298.944 
" style="fill:none;stroke:#b0b0b0;stroke-linecap:square;stroke-width:0.8;"/>
     </g>
     <g id="line2d_22">
      <defs>
       <path d="M 0 0 
L -3.5 0 
" id="ma556dc0ec1" style="stroke:#000000;stroke-width:0.8;"/>
      </defs>
      <g>
       <use style="stroke:#000000;stroke-width:0.8;" x="57.6" xlink:href="#ma556dc0ec1" y="298.944"/>
      </g>
     </g>
     <g id="text_6">
      <!-- 0.0 -->
      <g transform="translate(25.155 305.02275)scale(0.16 -0.16)">
       <defs>
        <path d="M 10.6875 12.40625 
L 21 12.40625 
L 21 0 
L 10.6875 0 
z
" id="DejaVuSans-46"/>
       </defs>
       <use xlink:href="#DejaVuSans-48"/>
       <use x="63.623047" xlink:href="#DejaVuSans-46"/>
       <use x="95.410156" xlink:href="#DejaVuSans-48"/>
      </g>
     </g>
    </g>
    <g id="ytick_2">
     <g id="line2d_23">
      <path clip-path="url(#pa02a4f7d23)" d="M 57.6 245.22202 
L 338.688 245.22202 
" style="fill:none;stroke:#b0b0b0;stroke-linecap:square;stroke-width:0.8;"/>
     </g>
     <g id="line2d_24">
      <g>
       <use style="stroke:#000000;stroke-width:0.8;" x="57.6" xlink:href="#ma556dc0ec1" y="245.22202"/>
      </g>
     </g>
     <g id="text_7">
      <!-- 0.2 -->
      <g transform="translate(25.155 251.30077)scale(0.16 -0.16)">
       <use xlink:href="#DejaVuSans-48"/>
       <use x="63.623047" xlink:href="#DejaVuSans-46"/>
       <use x="95.410156" xlink:href="#DejaVuSans-50"/>
      </g>
     </g>
    </g>
    <g id="ytick_3">
     <g id="line2d_25">
      <path clip-path="url(#pa02a4f7d23)" d="M 57.6 191.50004 
L 338.688 191.50004 
" style="fill:none;stroke:#b0b0b0;stroke-linecap:square;stroke-width:0.8;"/>
     </g>
     <g id="line2d_26">
      <g>
       <use style="stroke:#000000;stroke-width:0.8;" x="57.6" xlink:href="#ma556dc0ec1" y="191.50004"/>
      </g>
     </g>
     <g id="text_8">
      <!-- 0.4 -->
      <g transform="translate(25.155 197.57879)scale(0.16 -0.16)">
       <use xlink:href="#DejaVuSans-48"/>
       <use x="63.623047" xlink:href="#DejaVuSans-46"/>
       <use x="95.410156" xlink:href="#DejaVuSans-52"/>
      </g>
     </g>
    </g>
    <g id="ytick_4">
     <g id="line2d_27">
      <path clip-path="url(#pa02a4f7d23)" d="M 57.6 137.778059 
L 338.688 137.778059 
" style="fill:none;stroke:#b0b0b0;stroke-linecap:square;stroke-width:0.8;"/>
     </g>
     <g id="line2d_28">
      <g>
       <use style="stroke:#000000;stroke-width:0.8;" x="57.6" xlink:href="#ma556dc0ec1" y="137.778059"/>
      </g>
     </g>
     <g id="text_9">
      <!-- 0.6 -->
      <g transform="translate(25.155 143.856809)scale(0.16 -0.16)">
       <use xlink:href="#DejaVuSans-48"/>
       <use x="63.623047" xlink:href="#DejaVuSans-46"/>
       <use x="95.410156" xlink:href="#DejaVuSans-54"/>
      </g>
     </g>
    </g>
    <g id="ytick_5">
     <g id="line2d_29">
      <path clip-path="url(#pa02a4f7d23)" d="M 57.6 84.056079 
L 338.688 84.056079 
" style="fill:none;stroke:#b0b0b0;stroke-linecap:square;stroke-width:0.8;"/>
     </g>
     <g id="line2d_30">
      <g>
       <use style="stroke:#000000;stroke-width:0.8;" x="57.6" xlink:href="#ma556dc0ec1" y="84.056079"/>
      </g>
     </g>
     <g id="text_10">
      <!-- 0.8 -->
      <g transform="translate(25.155 90.134829)scale(0.16 -0.16)">
       <defs>
        <path d="M 31.78125 34.625 
Q 24.75 34.625 20.71875 30.859375 
Q 16.703125 27.09375 16.703125 20.515625 
Q 16.703125 13.921875 20.71875 10.15625 
Q 24.75 6.390625 31.78125 6.390625 
Q 38.8125 6.390625 42.859375 10.171875 
Q 46.921875 13.96875 46.921875 20.515625 
Q 46.921875 27.09375 42.890625 30.859375 
Q 38.875 34.625 31.78125 34.625 
z
M 21.921875 38.8125 
Q 15.578125 40.375 12.03125 44.71875 
Q 8.5 49.078125 8.5 55.328125 
Q 8.5 64.0625 14.71875 69.140625 
Q 20.953125 74.21875 31.78125 74.21875 
Q 42.671875 74.21875 48.875 69.140625 
Q 55.078125 64.0625 55.078125 55.328125 
Q 55.078125 49.078125 51.53125 44.71875 
Q 48 40.375 41.703125 38.8125 
Q 48.828125 37.15625 52.796875 32.3125 
Q 56.78125 27.484375 56.78125 20.515625 
Q 56.78125 9.90625 50.3125 4.234375 
Q 43.84375 -1.421875 31.78125 -1.421875 
Q 19.734375 -1.421875 13.25 4.234375 
Q 6.78125 9.90625 6.78125 20.515625 
Q 6.78125 27.484375 10.78125 32.3125 
Q 14.796875 37.15625 21.921875 38.8125 
z
M 18.3125 54.390625 
Q 18.3125 48.734375 21.84375 45.5625 
Q 25.390625 42.390625 31.78125 42.390625 
Q 38.140625 42.390625 41.71875 45.5625 
Q 45.3125 48.734375 45.3125 54.390625 
Q 45.3125 60.0625 41.71875 63.234375 
Q 38.140625 66.40625 31.78125 66.40625 
Q 25.390625 66.40625 21.84375 63.234375 
Q 18.3125 60.0625 18.3125 54.390625 
z
" id="DejaVuSans-56"/>
       </defs>
       <use xlink:href="#DejaVuSans-48"/>
       <use x="63.623047" xlink:href="#DejaVuSans-46"/>
       <use x="95.410156" xlink:href="#DejaVuSans-56"/>
      </g>
     </g>
    </g>
    <g id="ytick_6">
     <g id="line2d_31">
      <path clip-path="url(#pa02a4f7d23)" d="M 57.6 30.334099 
L 338.688 30.334099 
" style="fill:none;stroke:#b0b0b0;stroke-linecap:square;stroke-width:0.8;"/>
     </g>
     <g id="line2d_32">
      <g>
       <use style="stroke:#000000;stroke-width:0.8;" x="57.6" xlink:href="#ma556dc0ec1" y="30.334099"/>
      </g>
     </g>
     <g id="text_11">
      <!-- 1.0 -->
      <g transform="translate(25.155 36.412849)scale(0.16 -0.16)">
       <use xlink:href="#DejaVuSans-49"/>
       <use x="63.623047" xlink:href="#DejaVuSans-46"/>
       <use x="95.410156" xlink:href="#DejaVuSans-48"/>
      </g>
     </g>
    </g>
    <g id="text_12">
     <!-- Fraction of function,target pairs -->
     <g transform="translate(17.619531 297.681)rotate(-90)scale(0.17 -0.17)">
      <defs>
       <path d="M 9.8125 72.90625 
L 51.703125 72.90625 
L 51.703125 64.59375 
L 19.671875 64.59375 
L 19.671875 43.109375 
L 48.578125 43.109375 
L 48.578125 34.8125 
L 19.671875 34.8125 
L 19.671875 0 
L 9.8125 0 
z
" id="DejaVuSans-70"/>
       <path d="M 41.109375 46.296875 
Q 39.59375 47.171875 37.8125 47.578125 
Q 36.03125 48 33.890625 48 
Q 26.265625 48 22.1875 43.046875 
Q 18.109375 38.09375 18.109375 28.8125 
L 18.109375 0 
L 9.078125 0 
L 9.078125 54.6875 
L 18.109375 54.6875 
L 18.109375 46.1875 
Q 20.953125 51.171875 25.484375 53.578125 
Q 30.03125 56 36.53125 56 
Q 37.453125 56 38.578125 55.875 
Q 39.703125 55.765625 41.0625 55.515625 
z
" id="DejaVuSans-114"/>
       <path d="M 48.78125 52.59375 
L 48.78125 44.1875 
Q 44.96875 46.296875 41.140625 47.34375 
Q 37.3125 48.390625 33.40625 48.390625 
Q 24.65625 48.390625 19.8125 42.84375 
Q 14.984375 37.3125 14.984375 27.296875 
Q 14.984375 17.28125 19.8125 11.734375 
Q 24.65625 6.203125 33.40625 6.203125 
Q 37.3125 6.203125 41.140625 7.25 
Q 44.96875 8.296875 48.78125 10.40625 
L 48.78125 2.09375 
Q 45.015625 0.34375 40.984375 -0.53125 
Q 36.96875 -1.421875 32.421875 -1.421875 
Q 20.0625 -1.421875 12.78125 6.34375 
Q 5.515625 14.109375 5.515625 27.296875 
Q 5.515625 40.671875 12.859375 48.328125 
Q 20.21875 56 33.015625 56 
Q 37.15625 56 41.109375 55.140625 
Q 45.0625 54.296875 48.78125 52.59375 
z
" id="DejaVuSans-99"/>
       <path d="M 18.3125 70.21875 
L 18.3125 54.6875 
L 36.8125 54.6875 
L 36.8125 47.703125 
L 18.3125 47.703125 
L 18.3125 18.015625 
Q 18.3125 11.328125 20.140625 9.421875 
Q 21.96875 7.515625 27.59375 7.515625 
L 36.8125 7.515625 
L 36.8125 0 
L 27.59375 0 
Q 17.1875 0 13.234375 3.875 
Q 9.28125 7.765625 9.28125 18.015625 
L 9.28125 47.703125 
L 2.6875 47.703125 
L 2.6875 54.6875 
L 9.28125 54.6875 
L 9.28125 70.21875 
z
" id="DejaVuSans-116"/>
       <path d="M 8.5 21.578125 
L 8.5 54.6875 
L 17.484375 54.6875 
L 17.484375 21.921875 
Q 17.484375 14.15625 20.5 10.265625 
Q 23.53125 6.390625 29.59375 6.390625 
Q 36.859375 6.390625 41.078125 11.03125 
Q 45.3125 15.671875 45.3125 23.6875 
L 45.3125 54.6875 
L 54.296875 54.6875 
L 54.296875 0 
L 45.3125 0 
L 45.3125 8.40625 
Q 42.046875 3.421875 37.71875 1 
Q 33.40625 -1.421875 27.6875 -1.421875 
Q 18.265625 -1.421875 13.375 4.4375 
Q 8.5 10.296875 8.5 21.578125 
z
M 31.109375 56 
z
" id="DejaVuSans-117"/>
       <path d="M 11.71875 12.40625 
L 22.015625 12.40625 
L 22.015625 4 
L 14.015625 -11.625 
L 7.71875 -11.625 
L 11.71875 4 
z
" id="DejaVuSans-44"/>
       <path d="M 18.109375 8.203125 
L 18.109375 -20.796875 
L 9.078125 -20.796875 
L 9.078125 54.6875 
L 18.109375 54.6875 
L 18.109375 46.390625 
Q 20.953125 51.265625 25.265625 53.625 
Q 29.59375 56 35.59375 56 
Q 45.5625 56 51.78125 48.09375 
Q 58.015625 40.1875 58.015625 27.296875 
Q 58.015625 14.40625 51.78125 6.484375 
Q 45.5625 -1.421875 35.59375 -1.421875 
Q 29.59375 -1.421875 25.265625 0.953125 
Q 20.953125 3.328125 18.109375 8.203125 
z
M 48.6875 27.296875 
Q 48.6875 37.203125 44.609375 42.84375 
Q 40.53125 48.484375 33.40625 48.484375 
Q 26.265625 48.484375 22.1875 42.84375 
Q 18.109375 37.203125 18.109375 27.296875 
Q 18.109375 17.390625 22.1875 11.75 
Q 26.265625 6.109375 33.40625 6.109375 
Q 40.53125 6.109375 44.609375 11.75 
Q 48.6875 17.390625 48.6875 27.296875 
z
" id="DejaVuSans-112"/>
      </defs>
      <use xlink:href="#DejaVuSans-70"/>
      <use x="50.269531" xlink:href="#DejaVuSans-114"/>
      <use x="91.382812" xlink:href="#DejaVuSans-97"/>
      <use x="152.662109" xlink:href="#DejaVuSans-99"/>
      <use x="207.642578" xlink:href="#DejaVuSans-116"/>
      <use x="246.851562" xlink:href="#DejaVuSans-105"/>
      <use x="274.634766" xlink:href="#DejaVuSans-111"/>
      <use x="335.816406" xlink:href="#DejaVuSans-110"/>
      <use x="399.195312" xlink:href="#DejaVuSans-32"/>
      <use x="430.982422" xlink:href="#DejaVuSans-111"/>
      <use x="492.164062" xlink:href="#DejaVuSans-102"/>
      <use x="527.369141" xlink:href="#DejaVuSans-32"/>
      <use x="559.15625" xlink:href="#DejaVuSans-102"/>
      <use x="594.361328" xlink:href="#DejaVuSans-117"/>
      <use x="657.740234" xlink:href="#DejaVuSans-110"/>
      <use x="721.119141" xlink:href="#DejaVuSans-99"/>
      <use x="776.099609" xlink:href="#DejaVuSans-116"/>
      <use x="815.308594" xlink:href="#DejaVuSans-105"/>
      <use x="843.091797" xlink:href="#DejaVuSans-111"/>
      <use x="904.273438" xlink:href="#DejaVuSans-110"/>
      <use x="967.652344" xlink:href="#DejaVuSans-44"/>
      <use x="999.439453" xlink:href="#DejaVuSans-116"/>
      <use x="1038.648438" xlink:href="#DejaVuSans-97"/>
      <use x="1099.927734" xlink:href="#DejaVuSans-114"/>
      <use x="1139.291016" xlink:href="#DejaVuSans-103"/>
      <use x="1202.767578" xlink:href="#DejaVuSans-101"/>
      <use x="1264.291016" xlink:href="#DejaVuSans-116"/>
      <use x="1303.5" xlink:href="#DejaVuSans-32"/>
      <use x="1335.287109" xlink:href="#DejaVuSans-112"/>
      <use x="1398.763672" xlink:href="#DejaVuSans-97"/>
      <use x="1460.042969" xlink:href="#DejaVuSans-105"/>
      <use x="1487.826172" xlink:href="#DejaVuSans-114"/>
      <use x="1528.939453" xlink:href="#DejaVuSans-115"/>
     </g>
    </g>
   </g>
   <g id="line2d_33">
    <defs>
     <path d="M 0 1.5 
C 0.397805 1.5 0.77937 1.341951 1.06066 1.06066 
C 1.341951 0.77937 1.5 0.397805 1.5 0 
C 1.5 -0.397805 1.341951 -0.77937 1.06066 -1.06066 
C 0.77937 -1.341951 0.397805 -1.5 0 -1.5 
C -0.397805 -1.5 -0.77937 -1.341951 -1.06066 -1.06066 
C -1.341951 -0.77937 -1.5 -0.397805 -1.5 0 
C -1.5 0.397805 -1.341951 0.77937 -1.06066 1.06066 
C -0.77937 1.341951 -0.397805 1.5 0 1.5 
z
" id="mbdbce1add0" style="stroke:#f5deb3;"/>
    </defs>
    <g>
     <use style="fill:#f5deb3;stroke:#f5deb3;" x="341.138873" xlink:href="#mbdbce1add0" y="62.752535"/>
     <use style="fill:#f5deb3;stroke:#f5deb3;" x="341.138873" xlink:href="#mbdbce1add0" y="62.752535"/>
    </g>
   </g>
   <g id="line2d_34">
    <defs>
     <path d="M 0 1.5 
C 0.397805 1.5 0.77937 1.341951 1.06066 1.06066 
C 1.341951 0.77937 1.5 0.397805 1.5 0 
C 1.5 -0.397805 1.341951 -0.77937 1.06066 -1.06066 
C 0.77937 -1.341951 0.397805 -1.5 0 -1.5 
C -0.397805 -1.5 -0.77937 -1.341951 -1.06066 -1.06066 
C -1.341951 -0.77937 -1.5 -0.397805 -1.5 0 
C -1.5 0.397805 -1.341951 0.77937 -1.06066 1.06066 
C -0.77937 1.341951 -0.397805 1.5 0 1.5 
z
" id="m77eaf39267" style="stroke:#000080;"/>
    </defs>
    <g>
     <use style="fill:#000080;stroke:#000080;" x="240.788781" xlink:href="#m77eaf39267" y="216.508548"/>
     <use style="fill:#000080;stroke:#000080;" x="240.788781" xlink:href="#m77eaf39267" y="216.508548"/>
    </g>
   </g>
   <g id="line2d_35">
    <path d="M 29.53256 298.944 
L 29.53256 294.775915 
L 48.691568 294.775915 
L 48.691568 292.923433 
L 57.6 292.923433 
L 57.6 292.460313 
L 60.779557 292.460313 
L 60.779557 291.997192 
L 63.467834 291.997192 
L 63.467834 291.534072 
L 75.555822 291.534072 
L 75.555822 291.070951 
L 77.884514 291.070951 
L 77.884514 290.14471 
L 79.938565 290.14471 
L 79.938565 289.68159 
L 87.643811 289.68159 
L 87.643811 289.218469 
L 94.714831 289.218469 
L 94.714831 288.755349 
L 97.755429 288.755349 
L 97.755429 288.292228 
L 98.771596 288.292228 
L 98.771596 287.829108 
L 99.41757 287.829108 
L 99.41757 287.365987 
L 106.593963 287.365987 
L 106.593963 286.902867 
L 108.198707 286.902867 
L 108.198707 286.439746 
L 108.389302 286.439746 
L 108.389302 285.976625 
L 108.948899 285.976625 
L 108.948899 285.513505 
L 111.505558 285.513505 
L 111.505558 285.050384 
L 115.711251 285.050384 
L 115.711251 284.587264 
L 123.514096 284.587264 
L 123.514096 284.124143 
L 131.839545 284.124143 
L 131.839545 283.661023 
L 132.70687 283.661023 
L 132.70687 283.197902 
L 136.68274 283.197902 
L 136.68274 282.734782 
L 137.48721 282.734782 
L 137.48721 282.271661 
L 138.426341 282.271661 
L 138.426341 281.808541 
L 141.492656 281.808541 
L 141.492656 280.8823 
L 141.913576 280.8823 
L 141.913576 280.419179 
L 146.367029 280.419179 
L 146.367029 279.956059 
L 148.468742 279.956059 
L 148.468742 279.492938 
L 149.377533 279.492938 
L 149.377533 279.029818 
L 150.766468 279.029818 
L 150.783149 277.640456 
L 154.547439 277.640456 
L 154.547439 277.177336 
L 156.705677 277.177336 
L 156.705677 276.714215 
L 157.231877 276.714215 
L 157.335239 275.324854 
L 158.625992 275.324854 
L 158.625992 274.861733 
L 160.123015 274.861733 
L 160.123015 274.398612 
L 164.637547 274.398612 
L 164.637547 273.935492 
L 165.454301 273.935492 
L 165.454301 273.009251 
L 166.068747 273.009251 
L 166.068747 272.54613 
L 168.72825 272.54613 
L 168.72825 272.08301 
L 168.941432 272.08301 
L 168.941432 271.619889 
L 170.634045 271.619889 
L 170.634045 270.693648 
L 170.9621 270.693648 
L 170.9621 270.230528 
L 173.840288 270.230528 
L 173.840288 269.767407 
L 174.515891 269.767407 
L 174.515891 269.304287 
L 175.74158 269.304287 
L 175.74158 268.841166 
L 176.061431 268.841166 
L 176.061431 267.914925 
L 179.151416 267.914925 
L 179.177616 266.988684 
L 181.800789 266.988684 
L 181.800789 266.062443 
L 181.988415 266.062443 
L 181.988415 265.599323 
L 184.560514 265.599323 
L 184.560514 265.136202 
L 185.363703 265.136202 
L 185.363703 264.673082 
L 187.015826 264.673082 
L 187.015826 264.209961 
L 187.659369 264.209961 
L 187.659369 263.746841 
L 188.478874 263.746841 
L 188.478874 263.28372 
L 189.06222 263.28372 
L 189.06222 262.8206 
L 189.791273 262.8206 
L 189.901323 260.968117 
L 190.538897 260.968117 
L 190.538897 260.504997 
L 190.661291 260.504997 
L 190.717102 259.115635 
L 193.563384 259.115635 
L 193.627807 257.263153 
L 195.009179 257.263153 
L 195.009179 256.800033 
L 195.144628 256.800033 
L 195.144628 256.336912 
L 195.533248 256.336912 
L 195.533248 255.873792 
L 196.142521 255.873792 
L 196.142521 255.410671 
L 198.187635 255.410671 
L 198.187635 254.947551 
L 198.562056 254.947551 
L 198.562056 254.48443 
L 198.717502 254.48443 
L 198.717502 254.02131 
L 199.383412 254.02131 
L 199.383412 253.558189 
L 200.160941 253.558189 
L 200.160941 253.095069 
L 200.743544 253.095069 
L 200.743544 252.168828 
L 200.925038 252.168828 
L 200.925038 251.705707 
L 201.985772 251.705707 
L 201.985772 251.242587 
L 202.407154 251.242587 
L 202.407154 250.316346 
L 202.558517 250.316346 
L 202.558517 249.390104 
L 203.392819 249.390104 
L 203.392819 248.926984 
L 203.740339 248.926984 
L 203.740339 248.463863 
L 204.307936 248.463863 
L 204.388306 247.074502 
L 205.205398 247.074502 
L 205.205398 246.611381 
L 206.071531 246.611381 
L 206.071531 246.148261 
L 206.404365 246.148261 
L 206.404365 245.68514 
L 207.79333 245.68514 
L 207.866748 244.758899 
L 208.265113 244.758899 
L 208.329197 243.369538 
L 208.873547 243.369538 
L 208.873547 242.906417 
L 209.118036 242.906417 
L 209.118036 242.443297 
L 209.504642 242.443297 
L 209.504642 241.980176 
L 210.095363 241.980176 
L 210.095363 241.053935 
L 211.640593 241.053935 
L 211.640593 240.590815 
L 212.037895 240.590815 
L 212.13063 239.664574 
L 212.358135 239.664574 
L 212.358135 239.201453 
L 212.562458 239.201453 
L 212.562458 238.275212 
L 213.187531 238.275212 
L 213.187531 237.348971 
L 214.158503 237.348971 
L 214.207308 235.496489 
L 215.4906 235.496489 
L 215.4906 234.570248 
L 216.147858 234.570248 
L 216.147858 233.644007 
L 216.770632 233.644007 
L 216.770632 232.717766 
L 217.389133 232.717766 
L 217.389133 231.791525 
L 217.51562 231.791525 
L 217.564945 229.939043 
L 218.823335 229.939043 
L 218.823335 229.012802 
L 219.161046 229.012802 
L 219.228996 228.086561 
L 220.511953 228.086561 
L 220.511953 227.62344 
L 220.932001 227.62344 
L 220.932001 226.697199 
L 222.149692 226.697199 
L 222.149692 226.234079 
L 222.290295 226.234079 
L 222.290295 225.307837 
L 222.758212 225.307837 
L 222.758212 224.381596 
L 223.448862 224.381596 
L 223.448862 223.455355 
L 224.04065 223.455355 
L 224.047893 221.602873 
L 224.200061 221.602873 
L 224.200061 220.676632 
L 225.820405 220.676632 
L 225.820405 219.750391 
L 227.363519 219.750391 
L 227.363519 219.287271 
L 228.283314 219.287271 
L 228.283314 218.82415 
L 230.179821 218.82415 
L 230.179821 217.897909 
L 231.171361 217.897909 
L 231.171361 217.434789 
L 240.788781 217.434789 
L 240.788781 216.508548 
L 338.688 216.508548 
L 338.688 216.508548 
" style="fill:none;stroke:#000080;stroke-linecap:square;stroke-width:1.5;"/>
   </g>
   <g id="line2d_36">
    <defs>
     <path d="M 0 6 
C 1.591219 6 3.117479 5.367802 4.242641 4.242641 
C 5.367802 3.117479 6 1.591219 6 0 
C 6 -1.591219 5.367802 -3.117479 4.242641 -4.242641 
C 3.117479 -5.367802 1.591219 -6 0 -6 
C -1.591219 -6 -3.117479 -5.367802 -4.242641 -4.242641 
C -5.367802 -3.117479 -6 -1.591219 -6 0 
C -6 1.591219 -5.367802 3.117479 -4.242641 4.242641 
C -3.117479 5.367802 -1.591219 6 0 6 
z
" id="m82dc904d66" style="stroke:#000080;stroke-width:1.5;"/>
    </defs>
    <g>
     <use style="fill-opacity:0;stroke:#000080;stroke-width:1.5;" x="79.938565" xlink:href="#m82dc904d66" y="289.68159"/>
     <use style="fill-opacity:0;stroke:#000080;stroke-width:1.5;" x="149.377533" xlink:href="#m82dc904d66" y="279.029818"/>
     <use style="fill-opacity:0;stroke:#000080;stroke-width:1.5;" x="219.228996" xlink:href="#m82dc904d66" y="228.549681"/>
     <use style="fill-opacity:0;stroke:#000080;stroke-width:1.5;" x="240.788781" xlink:href="#m82dc904d66" y="216.508548"/>
     <use style="fill-opacity:0;stroke:#000080;stroke-width:1.5;" x="240.788781" xlink:href="#m82dc904d66" y="216.508548"/>
     <use style="fill-opacity:0;stroke:#000080;stroke-width:1.5;" x="338.688" xlink:href="#m82dc904d66" y="216.508548"/>
    </g>
   </g>
   <g id="line2d_37">
    <path style="fill:none;stroke:#000080;stroke-linecap:square;stroke-width:1.5;"/>
    <g/>
   </g>
   <g id="line2d_38">
    <path clip-path="url(#pa02a4f7d23)" d="M 258.377317 216.508548 
" style="fill:none;stroke:#000080;stroke-linecap:square;stroke-width:1.5;"/>
    <defs>
     <path d="M -12 12 
L 12 -12 
M -12 -12 
L 12 12 
" id="mad753d3536" style="stroke:#000080;"/>
    </defs>
    <g clip-path="url(#pa02a4f7d23)">
     <use style="fill:#000080;stroke:#000080;" x="258.377317" xlink:href="#mad753d3536" y="216.508548"/>
    </g>
   </g>
   <g id="line2d_39">
    <defs>
     <path d="M 0 1.5 
C 0.397805 1.5 0.77937 1.341951 1.06066 1.06066 
C 1.341951 0.77937 1.5 0.397805 1.5 0 
C 1.5 -0.397805 1.341951 -0.77937 1.06066 -1.06066 
C 0.77937 -1.341951 0.397805 -1.5 0 -1.5 
C -0.397805 -1.5 -0.77937 -1.341951 -1.06066 -1.06066 
C -1.341951 -0.77937 -1.5 -0.397805 -1.5 0 
C -1.5 0.397805 -1.341951 0.77937 -1.06066 1.06066 
C -0.77937 1.341951 -0.397805 1.5 0 1.5 
z
" id="mce528059b5" style="stroke:#ff00ff;"/>
    </defs>
    <g>
     <use style="fill:#ff00ff;stroke:#ff00ff;" x="257.676895" xlink:href="#mce528059b5" y="215.119186"/>
     <use style="fill:#ff00ff;stroke:#ff00ff;" x="257.676895" xlink:href="#mce528059b5" y="215.119186"/>
    </g>
   </g>
   <g id="line2d_40">
    <path d="M 29.53256 298.944 
L 29.53256 294.775915 
L 133.533096 294.775915 
L 133.533096 294.312795 
L 137.945701 294.312795 
L 137.945701 293.849674 
L 138.460171 293.849674 
L 138.460171 293.386554 
L 138.959898 293.386554 
L 139.02546 292.460313 
L 141.435758 292.460313 
L 141.435758 291.997192 
L 141.941279 291.997192 
L 142.051655 291.070951 
L 143.014805 291.070951 
L 143.014805 290.607831 
L 143.144465 290.607831 
L 143.144465 290.14471 
L 143.40093 290.14471 
L 143.40093 289.68159 
L 143.902815 289.68159 
L 143.902815 288.755349 
L 144.075117 288.755349 
L 144.075117 288.292228 
L 144.245733 288.292228 
L 144.318346 286.902867 
L 145.235796 286.902867 
L 145.235796 286.439746 
L 145.372754 286.439746 
L 145.372754 285.976625 
L 146.172658 285.976625 
L 146.259313 284.124143 
L 146.388493 284.124143 
L 146.452726 283.197902 
L 146.538004 283.197902 
L 146.538004 282.734782 
L 146.812312 282.734782 
L 146.812312 282.271661 
L 146.999721 282.271661 
L 146.999721 281.808541 
L 147.205618 281.808541 
L 147.205618 281.34542 
L 147.530079 281.34542 
L 147.530079 280.8823 
L 148.411533 280.8823 
L 148.411533 280.419179 
L 148.695721 280.419179 
L 148.770728 279.492938 
L 149.141003 279.492938 
L 149.25057 278.103577 
L 149.413639 278.103577 
L 149.413639 277.640456 
L 149.575199 277.640456 
L 149.575199 277.177336 
L 150.49739 277.177336 
L 150.49739 276.714215 
L 150.716332 276.714215 
L 150.749772 275.787974 
L 150.982078 275.787974 
L 150.982078 274.861733 
L 151.162458 274.861733 
L 151.162458 274.398612 
L 151.340991 274.398612 
L 151.340991 273.935492 
L 151.740076 273.935492 
L 151.740076 273.472371 
L 152.344968 273.472371 
L 152.344968 273.009251 
L 152.811246 273.009251 
L 152.900071 271.619889 
L 153.017805 271.619889 
L 153.017805 270.693648 
L 153.250915 270.693648 
L 153.265382 269.767407 
L 153.665645 269.767407 
L 153.665645 269.304287 
L 153.890309 269.304287 
L 153.890309 268.841166 
L 154.747816 268.841166 
L 154.747816 267.914925 
L 155.089774 267.914925 
L 155.089774 267.451805 
L 155.28405 267.451805 
L 155.28405 266.525564 
L 155.691409 266.525564 
L 155.691409 266.062443 
L 156.550661 266.062443 
L 156.550661 265.599323 
L 157.2549 265.599323 
L 157.2549 265.136202 
L 158.140788 265.136202 
L 158.195371 264.209961 
L 158.379686 264.209961 
L 158.379686 263.746841 
L 158.551397 263.746841 
L 158.551397 263.28372 
L 159.385473 263.28372 
L 159.385473 262.8206 
L 160.113253 262.8206 
L 160.113253 262.357479 
L 160.297798 262.357479 
L 160.297798 261.894358 
L 162.00818 261.894358 
L 162.00818 261.431238 
L 163.193255 261.431238 
L 163.193255 260.968117 
L 163.517565 260.968117 
L 163.517565 260.504997 
L 163.859601 260.504997 
L 163.859601 259.578756 
L 163.977355 259.578756 
L 164.055418 258.652515 
L 166.364626 258.652515 
L 166.364626 257.263153 
L 167.359153 257.263153 
L 167.359153 256.800033 
L 167.935973 256.800033 
L 167.935973 255.873792 
L 168.293904 255.873792 
L 168.293904 255.410671 
L 169.064596 255.410671 
L 169.064596 254.48443 
L 171.453088 254.48443 
L 171.453088 254.02131 
L 173.737769 254.02131 
L 173.737769 253.558189 
L 174.052318 253.558189 
L 174.052318 252.631948 
L 176.448384 252.631948 
L 176.448384 252.168828 
L 179.39874 252.168828 
L 179.39874 251.242587 
L 179.537135 251.242587 
L 179.57876 249.853225 
L 180.023962 249.853225 
L 180.023962 248.926984 
L 180.911308 248.926984 
L 180.911308 248.463863 
L 182.735382 248.463863 
L 182.735382 248.000743 
L 183.451664 248.000743 
L 183.451664 247.074502 
L 184.877275 247.074502 
L 184.877275 246.611381 
L 185.347629 246.611381 
L 185.347629 246.148261 
L 187.078347 246.148261 
L 187.078347 245.68514 
L 187.691534 245.68514 
L 187.691534 244.758899 
L 194.238592 244.758899 
L 194.238592 244.295779 
L 195.126279 244.295779 
L 195.126279 243.832658 
L 199.715133 243.832658 
L 199.715133 243.369538 
L 200.08019 243.369538 
L 200.08019 242.906417 
L 201.088832 242.906417 
L 201.088832 241.980176 
L 201.505815 241.980176 
L 201.582958 241.053935 
L 202.240519 241.053935 
L 202.272755 239.201453 
L 202.482999 239.201453 
L 202.482999 238.738333 
L 202.826184 238.738333 
L 202.826184 238.275212 
L 204.054369 238.275212 
L 204.147642 237.348971 
L 204.599052 237.348971 
L 204.599052 236.88585 
L 207.672405 236.88585 
L 207.672405 236.42273 
L 208.037073 236.42273 
L 208.037073 235.496489 
L 210.59936 235.496489 
L 210.59936 234.570248 
L 212.957927 234.570248 
L 212.957927 233.644007 
L 213.292882 233.644007 
L 213.292882 232.717766 
L 213.783326 232.717766 
L 213.783326 231.791525 
L 218.713139 231.791525 
L 218.713139 230.865284 
L 222.058402 230.865284 
L 222.058402 229.939043 
L 222.247984 229.939043 
L 222.247984 229.475922 
L 222.608061 229.475922 
L 222.608061 229.012802 
L 227.757559 229.012802 
L 227.757559 228.549681 
L 230.945323 228.549681 
L 230.945323 227.62344 
L 237.064903 227.62344 
L 237.064903 226.697199 
L 237.467933 226.697199 
L 237.467933 225.770958 
L 240.049656 225.770958 
L 240.049656 224.844717 
L 240.444896 224.844717 
L 240.444896 223.918476 
L 240.919486 223.918476 
L 240.919486 223.455355 
L 242.147925 223.455355 
L 242.147925 222.529114 
L 243.948899 222.529114 
L 243.948899 221.602873 
L 246.25466 221.602873 
L 246.25466 220.676632 
L 246.868657 220.676632 
L 246.868657 219.750391 
L 247.715258 219.750391 
L 247.715258 218.82415 
L 249.181931 218.82415 
L 249.181931 217.897909 
L 252.112886 217.897909 
L 252.112886 217.434789 
L 252.292635 217.434789 
L 252.292635 216.971668 
L 253.45881 216.971668 
L 253.45881 216.045427 
L 257.143299 216.045427 
L 257.143299 215.582307 
L 257.676895 215.582307 
L 257.676895 215.119186 
L 338.688 215.119186 
L 338.688 215.119186 
" style="fill:none;stroke:#ff00ff;stroke-linecap:square;stroke-width:1.5;"/>
   </g>
   <g id="line2d_41">
    <defs>
     <path d="M 0 8.485281 
L 5.091169 0 
L 0 -8.485281 
L -5.091169 0 
z
" id="m2db9c84948" style="stroke:#ff00ff;stroke-linejoin:miter;stroke-width:1.5;"/>
    </defs>
    <g>
     <use style="fill-opacity:0;stroke:#ff00ff;stroke-linejoin:miter;stroke-width:1.5;" x="199.715133" xlink:href="#m2db9c84948" y="243.369538"/>
     <use style="fill-opacity:0;stroke:#ff00ff;stroke-linejoin:miter;stroke-width:1.5;" x="243.948899" xlink:href="#m2db9c84948" y="222.529114"/>
     <use style="fill-opacity:0;stroke:#ff00ff;stroke-linejoin:miter;stroke-width:1.5;" x="257.676895" xlink:href="#m2db9c84948" y="215.119186"/>
     <use style="fill-opacity:0;stroke:#ff00ff;stroke-linejoin:miter;stroke-width:1.5;" x="257.676895" xlink:href="#m2db9c84948" y="215.119186"/>
     <use style="fill-opacity:0;stroke:#ff00ff;stroke-linejoin:miter;stroke-width:1.5;" x="338.688" xlink:href="#m2db9c84948" y="215.119186"/>
    </g>
   </g>
   <g id="line2d_42">
    <path style="fill:none;stroke:#ff00ff;stroke-linecap:square;stroke-width:1.5;"/>
    <g/>
   </g>
   <g id="line2d_43">
    <path clip-path="url(#pa02a4f7d23)" d="M 258.381851 215.119186 
" style="fill:none;stroke:#ff00ff;stroke-linecap:square;stroke-width:1.5;"/>
    <defs>
     <path d="M -12 12 
L 12 -12 
M -12 -12 
L 12 12 
" id="mc6b1b62503" style="stroke:#ff00ff;"/>
    </defs>
    <g clip-path="url(#pa02a4f7d23)">
     <use style="fill:#ff00ff;stroke:#ff00ff;" x="258.381851" xlink:href="#mc6b1b62503" y="215.119186"/>
    </g>
   </g>
   <g id="line2d_44">
    <defs>
     <path d="M 0 1.5 
C 0.397805 1.5 0.77937 1.341951 1.06066 1.06066 
C 1.341951 0.77937 1.5 0.397805 1.5 0 
C 1.5 -0.397805 1.341951 -0.77937 1.06066 -1.06066 
C 0.77937 -1.341951 0.397805 -1.5 0 -1.5 
C -0.397805 -1.5 -0.77937 -1.341951 -1.06066 -1.06066 
C -1.341951 -0.77937 -1.5 -0.397805 -1.5 0 
C -1.5 0.397805 -1.341951 0.77937 -1.06066 1.06066 
C -0.77937 1.341951 -0.397805 1.5 0 1.5 
z
" id="mc7d9fef8cd" style="stroke:#ff7500;"/>
    </defs>
    <g>
     <use style="fill:#ff7500;stroke:#ff7500;" x="253.868749" xlink:href="#mc7d9fef8cd" y="202.151812"/>
     <use style="fill:#ff7500;stroke:#ff7500;" x="253.868749" xlink:href="#mc7d9fef8cd" y="202.151812"/>
    </g>
   </g>
   <g id="line2d_45">
    <path d="M 142.699628 298.944 
L 142.699628 298.480879 
L 153.250915 298.480879 
L 153.250915 298.017759 
L 153.820412 298.017759 
L 153.820412 297.554638 
L 154.57429 297.554638 
L 154.57429 296.628397 
L 155.879132 296.628397 
L 155.879132 296.165277 
L 156.052535 296.165277 
L 156.052535 295.239036 
L 156.357959 295.239036 
L 156.357959 294.312795 
L 156.964915 294.312795 
L 157.034952 292.923433 
L 157.300853 292.923433 
L 157.300853 292.460313 
L 157.61918 292.460313 
L 157.61918 291.997192 
L 157.964965 291.997192 
L 158.031107 291.070951 
L 158.228039 291.070951 
L 158.325678 290.14471 
L 158.390468 290.14471 
L 158.390468 289.68159 
L 158.583406 289.68159 
L 158.583406 289.218469 
L 158.868869 289.218469 
L 158.868869 288.755349 
L 159.108409 288.755349 
L 159.108409 288.292228 
L 159.758143 288.292228 
L 159.778062 287.365987 
L 160.113253 287.365987 
L 160.113253 286.439746 
L 160.394148 286.439746 
L 160.432539 285.513505 
L 160.698938 285.513505 
L 160.698938 285.050384 
L 161.072584 285.050384 
L 161.072584 284.587264 
L 161.238149 284.587264 
L 161.238149 284.124143 
L 161.555647 284.124143 
L 161.654251 283.197902 
L 161.92917 283.197902 
L 161.92917 282.734782 
L 162.432178 282.734782 
L 162.474869 281.34542 
L 162.678343 281.34542 
L 162.754039 280.419179 
L 162.887802 280.419179 
L 162.887802 279.956059 
L 163.119446 279.956059 
L 163.17688 278.566697 
L 163.234125 278.566697 
L 163.234125 278.103577 
L 163.867476 278.103577 
L 163.953867 277.177336 
L 164.01643 277.177336 
L 164.01643 275.787974 
L 164.241356 275.787974 
L 164.241356 275.324854 
L 165.039666 275.324854 
L 165.039666 274.861733 
L 165.475853 274.861733 
L 165.475853 274.398612 
L 165.604609 274.398612 
L 165.604609 273.472371 
L 165.803027 273.472371 
L 165.803027 272.54613 
L 165.936393 272.54613 
L 165.936393 272.08301 
L 166.344146 272.08301 
L 166.344146 271.619889 
L 166.615263 271.619889 
L 166.615263 271.156769 
L 166.941739 271.156769 
L 166.941739 270.693648 
L 167.55143 270.693648 
L 167.608702 269.767407 
L 168.097334 269.767407 
L 168.165155 268.378046 
L 168.31222 268.378046 
L 168.31222 267.914925 
L 168.458054 267.914925 
L 168.470152 266.988684 
L 168.60868 266.988684 
L 168.60868 266.525564 
L 169.560096 266.525564 
L 169.560096 266.062443 
L 169.763406 266.062443 
L 169.864179 264.673082 
L 170.102583 264.673082 
L 170.184987 263.28372 
L 170.272457 263.28372 
L 170.272457 262.8206 
L 171.201568 262.8206 
L 171.201568 261.894358 
L 171.391826 261.894358 
L 171.432691 260.504997 
L 171.67086 260.504997 
L 171.711078 259.578756 
L 172.318023 259.578756 
L 172.361615 258.189394 
L 173.030705 258.189394 
L 173.030705 257.726274 
L 173.594124 257.726274 
L 173.594124 257.263153 
L 174.630946 257.263153 
L 174.736806 255.873792 
L 175.058874 255.873792 
L 175.158055 254.02131 
L 175.896315 254.02131 
L 175.896315 253.558189 
L 176.037938 253.558189 
L 176.037938 253.095069 
L 176.804455 253.095069 
L 176.804455 252.631948 
L 177.631914 252.631948 
L 177.631914 252.168828 
L 178.156735 252.168828 
L 178.156735 251.705707 
L 178.325932 251.705707 
L 178.432134 250.779466 
L 178.900534 250.779466 
L 178.900534 250.316346 
L 179.207044 250.316346 
L 179.207044 249.853225 
L 179.801203 249.853225 
L 179.801203 249.390104 
L 180.705664 249.390104 
L 180.705664 248.463863 
L 180.828151 248.463863 
L 180.828151 247.537622 
L 180.943869 247.537622 
L 180.943869 247.074502 
L 181.494031 247.074502 
L 181.494031 246.611381 
L 181.682134 246.611381 
L 181.682134 246.148261 
L 183.50792 246.148261 
L 183.50792 245.68514 
L 183.846704 245.68514 
L 183.954039 244.295779 
L 185.128002 244.295779 
L 185.202291 243.369538 
L 188.204112 243.369538 
L 188.204112 242.906417 
L 189.630277 242.906417 
L 189.630277 241.980176 
L 191.504491 241.980176 
L 191.559281 240.590815 
L 192.477515 240.590815 
L 192.477515 240.127694 
L 192.939939 240.127694 
L 192.939939 239.201453 
L 193.523178 239.201453 
L 193.523178 238.275212 
L 195.859415 238.275212 
L 195.859415 237.812091 
L 196.089245 237.812091 
L 196.089245 236.88585 
L 196.790923 236.88585 
L 196.790923 236.42273 
L 197.82186 236.42273 
L 197.875706 234.570248 
L 198.758011 234.570248 
L 198.758011 233.644007 
L 202.059063 233.644007 
L 202.059063 232.717766 
L 203.321657 232.717766 
L 203.321657 231.791525 
L 205.250952 231.791525 
L 205.250952 230.865284 
L 206.419469 230.865284 
L 206.419469 229.939043 
L 207.553207 229.939043 
L 207.610344 229.012802 
L 207.838304 229.012802 
L 207.838304 228.086561 
L 208.627395 228.086561 
L 208.627395 227.16032 
L 209.041447 227.16032 
L 209.041447 226.234079 
L 210.252504 226.234079 
L 210.252504 225.307837 
L 212.392761 225.307837 
L 212.392761 224.381596 
L 213.851125 224.381596 
L 213.922678 223.455355 
L 214.568408 223.455355 
L 214.568408 222.992235 
L 217.598233 222.992235 
L 217.680097 221.602873 
L 218.598489 221.602873 
L 218.598489 221.139753 
L 218.790282 221.139753 
L 218.790282 220.213512 
L 219.754325 220.213512 
L 219.754325 219.287271 
L 221.901793 219.287271 
L 221.901793 218.36103 
L 224.114692 218.36103 
L 224.114692 217.434789 
L 225.911083 217.434789 
L 225.911083 216.971668 
L 227.072011 216.971668 
L 227.072011 216.508548 
L 228.101968 216.508548 
L 228.101968 215.582307 
L 228.304065 215.582307 
L 228.304065 214.656066 
L 229.227115 214.656066 
L 229.227115 213.729825 
L 229.750627 213.729825 
L 229.80654 212.340463 
L 229.873365 212.340463 
L 229.873365 211.414222 
L 232.72854 211.414222 
L 232.72854 210.951101 
L 234.012925 210.951101 
L 234.012925 210.02486 
L 237.252363 210.02486 
L 237.252363 209.098619 
L 237.984815 209.098619 
L 237.984815 208.635499 
L 240.477246 208.635499 
L 240.477246 208.172378 
L 242.177267 208.172378 
L 242.177267 207.246137 
L 242.692696 207.246137 
L 242.692696 206.319896 
L 245.073831 206.319896 
L 245.073831 205.856776 
L 245.641654 205.856776 
L 245.641654 204.930535 
L 247.193087 204.930535 
L 247.193087 204.004294 
L 248.731597 204.004294 
L 248.731597 203.541173 
L 250.732203 203.541173 
L 250.732203 203.078053 
L 253.868749 203.078053 
L 253.868749 202.151812 
L 338.688 202.151812 
L 338.688 202.151812 
" style="fill:none;stroke:#ff7500;stroke-linecap:square;stroke-width:1.5;"/>
   </g>
   <g id="line2d_46">
    <defs>
     <path d="M 0 -6 
L -1.347084 -1.854102 
L -5.706339 -1.854102 
L -2.179628 0.708204 
L -3.526712 4.854102 
L -0 2.291796 
L 3.526712 4.854102 
L 2.179628 0.708204 
L 5.706339 -1.854102 
L 1.347084 -1.854102 
z
" id="m35ad62361b" style="stroke:#ff7500;stroke-linejoin:bevel;stroke-width:1.5;"/>
    </defs>
    <g>
     <use style="fill-opacity:0;stroke:#ff7500;stroke-linejoin:bevel;stroke-width:1.5;" x="208.627395" xlink:href="#m35ad62361b" y="228.086561"/>
     <use style="fill-opacity:0;stroke:#ff7500;stroke-linejoin:bevel;stroke-width:1.5;" x="250.732203" xlink:href="#m35ad62361b" y="203.541173"/>
     <use style="fill-opacity:0;stroke:#ff7500;stroke-linejoin:bevel;stroke-width:1.5;" x="253.868749" xlink:href="#m35ad62361b" y="202.151812"/>
     <use style="fill-opacity:0;stroke:#ff7500;stroke-linejoin:bevel;stroke-width:1.5;" x="253.868749" xlink:href="#m35ad62361b" y="202.151812"/>
     <use style="fill-opacity:0;stroke:#ff7500;stroke-linejoin:bevel;stroke-width:1.5;" x="338.688" xlink:href="#m35ad62361b" y="202.151812"/>
    </g>
   </g>
   <g id="line2d_47">
    <path style="fill:none;stroke:#ff7500;stroke-linecap:square;stroke-width:1.5;"/>
    <g/>
   </g>
   <g id="line2d_48">
    <path clip-path="url(#pa02a4f7d23)" d="M 258.377178 202.151812 
" style="fill:none;stroke:#ff7500;stroke-linecap:square;stroke-width:1.5;"/>
    <defs>
     <path d="M -12 12 
L 12 -12 
M -12 -12 
L 12 12 
" id="m2ad924ae35" style="stroke:#ff7500;"/>
    </defs>
    <g clip-path="url(#pa02a4f7d23)">
     <use style="fill:#ff7500;stroke:#ff7500;" x="258.377178" xlink:href="#m2ad924ae35" y="202.151812"/>
    </g>
   </g>
   <g id="line2d_49">
    <path d="M 338.688 216.508548 
L 369.60768 293.571802 
" style="fill:none;stroke:#000080;stroke-linecap:square;stroke-width:1.5;"/>
    <g>
     <use style="fill-opacity:0;stroke:#000080;stroke-width:1.5;" x="338.688" xlink:href="#m82dc904d66" y="216.508548"/>
     <use style="fill-opacity:0;stroke:#000080;stroke-width:1.5;" x="369.60768" xlink:href="#m82dc904d66" y="293.571802"/>
    </g>
   </g>
   <g id="line2d_50">
    <path d="M 338.688 215.119186 
L 369.60768 207.616634 
" style="fill:none;stroke:#ff00ff;stroke-linecap:square;stroke-width:1.5;"/>
    <g>
     <use style="fill-opacity:0;stroke:#ff00ff;stroke-linejoin:miter;stroke-width:1.5;" x="338.688" xlink:href="#m2db9c84948" y="215.119186"/>
     <use style="fill-opacity:0;stroke:#ff00ff;stroke-linejoin:miter;stroke-width:1.5;" x="369.60768" xlink:href="#m2db9c84948" y="207.616634"/>
    </g>
   </g>
   <g id="line2d_51">
    <path d="M 338.688 202.151812 
L 369.60768 121.661465 
" style="fill:none;stroke:#ff7500;stroke-linecap:square;stroke-width:1.5;"/>
    <g>
     <use style="fill-opacity:0;stroke:#ff7500;stroke-linejoin:bevel;stroke-width:1.5;" x="338.688" xlink:href="#m35ad62361b" y="202.151812"/>
     <use style="fill-opacity:0;stroke:#ff7500;stroke-linejoin:bevel;stroke-width:1.5;" x="369.60768" xlink:href="#m35ad62361b" y="121.661465"/>
    </g>
   </g>
   <g id="line2d_52">
    <path d="M 338.688 298.944 
L 338.688 30.334099 
" style="fill:none;stroke:#000000;stroke-linecap:square;stroke-width:1.5;"/>
   </g>
   <g id="patch_3">
    <path d="M 57.6 298.944 
L 57.6 27.648 
" style="fill:none;stroke:#000000;stroke-linecap:square;stroke-linejoin:miter;stroke-width:0.8;"/>
   </g>
   <g id="patch_4">
    <path d="M 338.688 298.944 
L 338.688 27.648 
" style="fill:none;stroke:#000000;stroke-linecap:square;stroke-linejoin:miter;stroke-width:0.8;"/>
   </g>
   <g id="patch_5">
    <path d="M 57.6 298.944 
L 338.688 298.944 
" style="fill:none;stroke:#000000;stroke-linecap:square;stroke-linejoin:miter;stroke-width:0.8;"/>
   </g>
   <g id="patch_6">
    <path d="M 57.6 27.648 
L 338.688 27.648 
" style="fill:none;stroke:#000000;stroke-linecap:square;stroke-linejoin:miter;stroke-width:0.8;"/>
   </g>
   <g id="text_13">
    <!-- COMO-100  -->
    <g transform="translate(375.22944 298.262739)scale(0.17 -0.17)">
     <defs>
      <path d="M 64.40625 67.28125 
L 64.40625 56.890625 
Q 59.421875 61.53125 53.78125 63.8125 
Q 48.140625 66.109375 41.796875 66.109375 
Q 29.296875 66.109375 22.65625 58.46875 
Q 16.015625 50.828125 16.015625 36.375 
Q 16.015625 21.96875 22.65625 14.328125 
Q 29.296875 6.6875 41.796875 6.6875 
Q 48.140625 6.6875 53.78125 8.984375 
Q 59.421875 11.28125 64.40625 15.921875 
L 64.40625 5.609375 
Q 59.234375 2.09375 53.4375 0.328125 
Q 47.65625 -1.421875 41.21875 -1.421875 
Q 24.65625 -1.421875 15.125 8.703125 
Q 5.609375 18.84375 5.609375 36.375 
Q 5.609375 53.953125 15.125 64.078125 
Q 24.65625 74.21875 41.21875 74.21875 
Q 47.75 74.21875 53.53125 72.484375 
Q 59.328125 70.75 64.40625 67.28125 
z
" id="DejaVuSans-67"/>
      <path d="M 39.40625 66.21875 
Q 28.65625 66.21875 22.328125 58.203125 
Q 16.015625 50.203125 16.015625 36.375 
Q 16.015625 22.609375 22.328125 14.59375 
Q 28.65625 6.59375 39.40625 6.59375 
Q 50.140625 6.59375 56.421875 14.59375 
Q 62.703125 22.609375 62.703125 36.375 
Q 62.703125 50.203125 56.421875 58.203125 
Q 50.140625 66.21875 39.40625 66.21875 
z
M 39.40625 74.21875 
Q 54.734375 74.21875 63.90625 63.9375 
Q 73.09375 53.65625 73.09375 36.375 
Q 73.09375 19.140625 63.90625 8.859375 
Q 54.734375 -1.421875 39.40625 -1.421875 
Q 24.03125 -1.421875 14.8125 8.828125 
Q 5.609375 19.09375 5.609375 36.375 
Q 5.609375 53.65625 14.8125 63.9375 
Q 24.03125 74.21875 39.40625 74.21875 
z
" id="DejaVuSans-79"/>
      <path d="M 9.8125 72.90625 
L 24.515625 72.90625 
L 43.109375 23.296875 
L 61.8125 72.90625 
L 76.515625 72.90625 
L 76.515625 0 
L 66.890625 0 
L 66.890625 64.015625 
L 48.09375 14.015625 
L 38.1875 14.015625 
L 19.390625 64.015625 
L 19.390625 0 
L 9.8125 0 
z
" id="DejaVuSans-77"/>
     </defs>
     <use xlink:href="#DejaVuSans-67"/>
     <use x="69.824219" xlink:href="#DejaVuSans-79"/>
     <use x="148.535156" xlink:href="#DejaVuSans-77"/>
     <use x="234.814453" xlink:href="#DejaVuSans-79"/>
     <use x="316.275391" xlink:href="#DejaVuSans-45"/>
     <use x="352.359375" xlink:href="#DejaVuSans-49"/>
     <use x="415.982422" xlink:href="#DejaVuSans-48"/>
     <use x="479.605469" xlink:href="#DejaVuSans-48"/>
     <use x="543.228516" xlink:href="#DejaVuSans-32"/>
    </g>
   </g>
   <g id="text_14">
    <!-- NSGA-II-M -->
    <g transform="translate(375.22944 212.307571)scale(0.17 -0.17)">
     <defs>
      <path d="M 9.8125 72.90625 
L 23.09375 72.90625 
L 55.421875 11.921875 
L 55.421875 72.90625 
L 64.984375 72.90625 
L 64.984375 0 
L 51.703125 0 
L 19.390625 60.984375 
L 19.390625 0 
L 9.8125 0 
z
" id="DejaVuSans-78"/>
      <path d="M 53.515625 70.515625 
L 53.515625 60.890625 
Q 47.90625 63.578125 42.921875 64.890625 
Q 37.9375 66.21875 33.296875 66.21875 
Q 25.25 66.21875 20.875 63.09375 
Q 16.5 59.96875 16.5 54.203125 
Q 16.5 49.359375 19.40625 46.890625 
Q 22.3125 44.4375 30.421875 42.921875 
L 36.375 41.703125 
Q 47.40625 39.59375 52.65625 34.296875 
Q 57.90625 29 57.90625 20.125 
Q 57.90625 9.515625 50.796875 4.046875 
Q 43.703125 -1.421875 29.984375 -1.421875 
Q 24.8125 -1.421875 18.96875 -0.25 
Q 13.140625 0.921875 6.890625 3.21875 
L 6.890625 13.375 
Q 12.890625 10.015625 18.65625 8.296875 
Q 24.421875 6.59375 29.984375 6.59375 
Q 38.421875 6.59375 43.015625 9.90625 
Q 47.609375 13.234375 47.609375 19.390625 
Q 47.609375 24.75 44.3125 27.78125 
Q 41.015625 30.8125 33.5 32.328125 
L 27.484375 33.5 
Q 16.453125 35.6875 11.515625 40.375 
Q 6.59375 45.0625 6.59375 53.421875 
Q 6.59375 63.09375 13.40625 68.65625 
Q 20.21875 74.21875 32.171875 74.21875 
Q 37.3125 74.21875 42.625 73.28125 
Q 47.953125 72.359375 53.515625 70.515625 
z
" id="DejaVuSans-83"/>
      <path d="M 59.515625 10.40625 
L 59.515625 29.984375 
L 43.40625 29.984375 
L 43.40625 38.09375 
L 69.28125 38.09375 
L 69.28125 6.78125 
Q 63.578125 2.734375 56.6875 0.65625 
Q 49.8125 -1.421875 42 -1.421875 
Q 24.90625 -1.421875 15.25 8.5625 
Q 5.609375 18.5625 5.609375 36.375 
Q 5.609375 54.25 15.25 64.234375 
Q 24.90625 74.21875 42 74.21875 
Q 49.125 74.21875 55.546875 72.453125 
Q 61.96875 70.703125 67.390625 67.28125 
L 67.390625 56.78125 
Q 61.921875 61.421875 55.765625 63.765625 
Q 49.609375 66.109375 42.828125 66.109375 
Q 29.4375 66.109375 22.71875 58.640625 
Q 16.015625 51.171875 16.015625 36.375 
Q 16.015625 21.625 22.71875 14.15625 
Q 29.4375 6.6875 42.828125 6.6875 
Q 48.046875 6.6875 52.140625 7.59375 
Q 56.25 8.5 59.515625 10.40625 
z
" id="DejaVuSans-71"/>
      <path d="M 34.1875 63.1875 
L 20.796875 26.90625 
L 47.609375 26.90625 
z
M 28.609375 72.90625 
L 39.796875 72.90625 
L 67.578125 0 
L 57.328125 0 
L 50.6875 18.703125 
L 17.828125 18.703125 
L 11.1875 0 
L 0.78125 0 
z
" id="DejaVuSans-65"/>
      <path d="M 9.8125 72.90625 
L 19.671875 72.90625 
L 19.671875 0 
L 9.8125 0 
z
" id="DejaVuSans-73"/>
     </defs>
     <use xlink:href="#DejaVuSans-78"/>
     <use x="74.804688" xlink:href="#DejaVuSans-83"/>
     <use x="138.28125" xlink:href="#DejaVuSans-71"/>
     <use x="215.771484" xlink:href="#DejaVuSans-65"/>
     <use x="281.929688" xlink:href="#DejaVuSans-45"/>
     <use x="318.013672" xlink:href="#DejaVuSans-73"/>
     <use x="347.505859" xlink:href="#DejaVuSans-73"/>
     <use x="376.998047" xlink:href="#DejaVuSans-45"/>
     <use x="413.082031" xlink:href="#DejaVuSans-77"/>
    </g>
   </g>
   <g id="text_15">
    <!-- SMS-EMOA- -->
    <g transform="translate(375.22944 126.352403)scale(0.17 -0.17)">
     <defs>
      <path d="M 9.8125 72.90625 
L 55.90625 72.90625 
L 55.90625 64.59375 
L 19.671875 64.59375 
L 19.671875 43.015625 
L 54.390625 43.015625 
L 54.390625 34.71875 
L 19.671875 34.71875 
L 19.671875 8.296875 
L 56.78125 8.296875 
L 56.78125 0 
L 9.8125 0 
z
" id="DejaVuSans-69"/>
     </defs>
     <use xlink:href="#DejaVuSans-83"/>
     <use x="63.476562" xlink:href="#DejaVuSans-77"/>
     <use x="149.755859" xlink:href="#DejaVuSans-83"/>
     <use x="213.232422" xlink:href="#DejaVuSans-45"/>
     <use x="249.316406" xlink:href="#DejaVuSans-69"/>
     <use x="312.5" xlink:href="#DejaVuSans-77"/>
     <use x="398.779297" xlink:href="#DejaVuSans-79"/>
     <use x="475.740234" xlink:href="#DejaVuSans-65"/>
     <use x="541.898438" xlink:href="#DejaVuSans-45"/>
    </g>
   </g>
   <g id="text_16">
    <!-- best 2016 -->
    <g transform="translate(375.22944 40.397235)scale(0.17 -0.17)">
     <defs>
      <path d="M 48.6875 27.296875 
Q 48.6875 37.203125 44.609375 42.84375 
Q 40.53125 48.484375 33.40625 48.484375 
Q 26.265625 48.484375 22.1875 42.84375 
Q 18.109375 37.203125 18.109375 27.296875 
Q 18.109375 17.390625 22.1875 11.75 
Q 26.265625 6.109375 33.40625 6.109375 
Q 40.53125 6.109375 44.609375 11.75 
Q 48.6875 17.390625 48.6875 27.296875 
z
M 18.109375 46.390625 
Q 20.953125 51.265625 25.265625 53.625 
Q 29.59375 56 35.59375 56 
Q 45.5625 56 51.78125 48.09375 
Q 58.015625 40.1875 58.015625 27.296875 
Q 58.015625 14.40625 51.78125 6.484375 
Q 45.5625 -1.421875 35.59375 -1.421875 
Q 29.59375 -1.421875 25.265625 0.953125 
Q 20.953125 3.328125 18.109375 8.203125 
L 18.109375 0 
L 9.078125 0 
L 9.078125 75.984375 
L 18.109375 75.984375 
z
" id="DejaVuSans-98"/>
     </defs>
     <use xlink:href="#DejaVuSans-98"/>
     <use x="63.476562" xlink:href="#DejaVuSans-101"/>
     <use x="125" xlink:href="#DejaVuSans-115"/>
     <use x="177.099609" xlink:href="#DejaVuSans-116"/>
     <use x="216.308594" xlink:href="#DejaVuSans-32"/>
     <use x="248.095703" xlink:href="#DejaVuSans-50"/>
     <use x="311.71875" xlink:href="#DejaVuSans-48"/>
     <use x="375.341797" xlink:href="#DejaVuSans-49"/>
     <use x="438.964844" xlink:href="#DejaVuSans-54"/>
    </g>
   </g>
   <g id="text_17">
    <!-- bbob-biobj f38, 5-D -->
    <g transform="translate(60.41088 38.111366)scale(0.102 -0.102)">
     <defs>
      <path d="M 9.421875 54.6875 
L 18.40625 54.6875 
L 18.40625 -0.984375 
Q 18.40625 -11.421875 14.421875 -16.109375 
Q 10.453125 -20.796875 1.609375 -20.796875 
L -1.8125 -20.796875 
L -1.8125 -13.1875 
L 0.59375 -13.1875 
Q 5.71875 -13.1875 7.5625 -10.8125 
Q 9.421875 -8.453125 9.421875 -0.984375 
z
M 9.421875 75.984375 
L 18.40625 75.984375 
L 18.40625 64.59375 
L 9.421875 64.59375 
z
" id="DejaVuSans-106"/>
      <path d="M 40.578125 39.3125 
Q 47.65625 37.796875 51.625 33 
Q 55.609375 28.21875 55.609375 21.1875 
Q 55.609375 10.40625 48.1875 4.484375 
Q 40.765625 -1.421875 27.09375 -1.421875 
Q 22.515625 -1.421875 17.65625 -0.515625 
Q 12.796875 0.390625 7.625 2.203125 
L 7.625 11.71875 
Q 11.71875 9.328125 16.59375 8.109375 
Q 21.484375 6.890625 26.8125 6.890625 
Q 36.078125 6.890625 40.9375 10.546875 
Q 45.796875 14.203125 45.796875 21.1875 
Q 45.796875 27.640625 41.28125 31.265625 
Q 36.765625 34.90625 28.71875 34.90625 
L 20.21875 34.90625 
L 20.21875 43.015625 
L 29.109375 43.015625 
Q 36.375 43.015625 40.234375 45.921875 
Q 44.09375 48.828125 44.09375 54.296875 
Q 44.09375 59.90625 40.109375 62.90625 
Q 36.140625 65.921875 28.71875 65.921875 
Q 24.65625 65.921875 20.015625 65.03125 
Q 15.375 64.15625 9.8125 62.3125 
L 9.8125 71.09375 
Q 15.4375 72.65625 20.34375 73.4375 
Q 25.25 74.21875 29.59375 74.21875 
Q 40.828125 74.21875 47.359375 69.109375 
Q 53.90625 64.015625 53.90625 55.328125 
Q 53.90625 49.265625 50.4375 45.09375 
Q 46.96875 40.921875 40.578125 39.3125 
z
" id="DejaVuSans-51"/>
      <path d="M 10.796875 72.90625 
L 49.515625 72.90625 
L 49.515625 64.59375 
L 19.828125 64.59375 
L 19.828125 46.734375 
Q 21.96875 47.46875 24.109375 47.828125 
Q 26.265625 48.1875 28.421875 48.1875 
Q 40.625 48.1875 47.75 41.5 
Q 54.890625 34.8125 54.890625 23.390625 
Q 54.890625 11.625 47.5625 5.09375 
Q 40.234375 -1.421875 26.90625 -1.421875 
Q 22.3125 -1.421875 17.546875 -0.640625 
Q 12.796875 0.140625 7.71875 1.703125 
L 7.71875 11.625 
Q 12.109375 9.234375 16.796875 8.0625 
Q 21.484375 6.890625 26.703125 6.890625 
Q 35.15625 6.890625 40.078125 11.328125 
Q 45.015625 15.765625 45.015625 23.390625 
Q 45.015625 31 40.078125 35.4375 
Q 35.15625 39.890625 26.703125 39.890625 
Q 22.75 39.890625 18.8125 39.015625 
Q 14.890625 38.140625 10.796875 36.28125 
z
" id="DejaVuSans-53"/>
      <path d="M 19.671875 64.796875 
L 19.671875 8.109375 
L 31.59375 8.109375 
Q 46.6875 8.109375 53.6875 14.9375 
Q 60.6875 21.78125 60.6875 36.53125 
Q 60.6875 51.171875 53.6875 57.984375 
Q 46.6875 64.796875 31.59375 64.796875 
z
M 9.8125 72.90625 
L 30.078125 72.90625 
Q 51.265625 72.90625 61.171875 64.09375 
Q 71.09375 55.28125 71.09375 36.53125 
Q 71.09375 17.671875 61.125 8.828125 
Q 51.171875 0 30.078125 0 
L 9.8125 0 
z
" id="DejaVuSans-68"/>
     </defs>
     <use xlink:href="#DejaVuSans-98"/>
     <use x="63.476562" xlink:href="#DejaVuSans-98"/>
     <use x="126.953125" xlink:href="#DejaVuSans-111"/>
     <use x="188.134766" xlink:href="#DejaVuSans-98"/>
     <use x="251.611328" xlink:href="#DejaVuSans-45"/>
     <use x="287.695312" xlink:href="#DejaVuSans-98"/>
     <use x="351.171875" xlink:href="#DejaVuSans-105"/>
     <use x="378.955078" xlink:href="#DejaVuSans-111"/>
     <use x="440.136719" xlink:href="#DejaVuSans-98"/>
     <use x="503.613281" xlink:href="#DejaVuSans-106"/>
     <use x="531.396484" xlink:href="#DejaVuSans-32"/>
     <use x="563.183594" xlink:href="#DejaVuSans-102"/>
     <use x="598.388672" xlink:href="#DejaVuSans-51"/>
     <use x="662.011719" xlink:href="#DejaVuSans-56"/>
     <use x="725.634766" xlink:href="#DejaVuSans-44"/>
     <use x="757.421875" xlink:href="#DejaVuSans-32"/>
     <use x="789.208984" xlink:href="#DejaVuSans-53"/>
     <use x="852.832031" xlink:href="#DejaVuSans-45"/>
     <use x="888.916016" xlink:href="#DejaVuSans-68"/>
    </g>
    <!-- 58 targets: 1..-1.0e-4 -->
    <g transform="translate(60.41088 49.533135)scale(0.102 -0.102)">
     <defs>
      <path d="M 11.71875 12.40625 
L 22.015625 12.40625 
L 22.015625 0 
L 11.71875 0 
z
M 11.71875 51.703125 
L 22.015625 51.703125 
L 22.015625 39.3125 
L 11.71875 39.3125 
z
" id="DejaVuSans-58"/>
     </defs>
     <use xlink:href="#DejaVuSans-53"/>
     <use x="63.623047" xlink:href="#DejaVuSans-56"/>
     <use x="127.246094" xlink:href="#DejaVuSans-32"/>
     <use x="159.033203" xlink:href="#DejaVuSans-116"/>
     <use x="198.242188" xlink:href="#DejaVuSans-97"/>
     <use x="259.521484" xlink:href="#DejaVuSans-114"/>
     <use x="298.884766" xlink:href="#DejaVuSans-103"/>
     <use x="362.361328" xlink:href="#DejaVuSans-101"/>
     <use x="423.884766" xlink:href="#DejaVuSans-116"/>
     <use x="463.09375" xlink:href="#DejaVuSans-115"/>
     <use x="515.193359" xlink:href="#DejaVuSans-58"/>
     <use x="548.884766" xlink:href="#DejaVuSans-32"/>
     <use x="580.671875" xlink:href="#DejaVuSans-49"/>
     <use x="644.294922" xlink:href="#DejaVuSans-46"/>
     <use x="676.082031" xlink:href="#DejaVuSans-46"/>
     <use x="707.869141" xlink:href="#DejaVuSans-45"/>
     <use x="743.953125" xlink:href="#DejaVuSans-49"/>
     <use x="807.576172" xlink:href="#DejaVuSans-46"/>
     <use x="839.363281" xlink:href="#DejaVuSans-48"/>
     <use x="902.986328" xlink:href="#DejaVuSans-101"/>
     <use x="964.509766" xlink:href="#DejaVuSans-45"/>
     <use x="1000.59375" xlink:href="#DejaVuSans-52"/>
    </g>
    <!-- 10 instances -->
    <g transform="translate(60.41088 60.954904)scale(0.102 -0.102)">
     <use xlink:href="#DejaVuSans-49"/>
     <use x="63.623047" xlink:href="#DejaVuSans-48"/>
     <use x="127.246094" xlink:href="#DejaVuSans-32"/>
     <use x="159.033203" xlink:href="#DejaVuSans-105"/>
     <use x="186.816406" xlink:href="#DejaVuSans-110"/>
     <use x="250.195312" xlink:href="#DejaVuSans-115"/>
     <use x="302.294922" xlink:href="#DejaVuSans-116"/>
     <use x="341.503906" xlink:href="#DejaVuSans-97"/>
     <use x="402.783203" xlink:href="#DejaVuSans-110"/>
     <use x="466.162109" xlink:href="#DejaVuSans-99"/>
     <use x="521.142578" xlink:href="#DejaVuSans-101"/>
     <use x="582.666016" xlink:href="#DejaVuSans-115"/>
    </g>
   </g>
   <g id="text_18">
    <!-- v2.4.19, hv-hash=ff0e71e8cd978373 -->
    <g style="fill:#808080;" transform="translate(104.697125 294.151352)scale(0.1 -0.1)">
     <defs>
      <path d="M 10.984375 1.515625 
L 10.984375 10.5 
Q 14.703125 8.734375 18.5 7.8125 
Q 22.3125 6.890625 25.984375 6.890625 
Q 35.75 6.890625 40.890625 13.453125 
Q 46.046875 20.015625 46.78125 33.40625 
Q 43.953125 29.203125 39.59375 26.953125 
Q 35.25 24.703125 29.984375 24.703125 
Q 19.046875 24.703125 12.671875 31.3125 
Q 6.296875 37.9375 6.296875 49.421875 
Q 6.296875 60.640625 12.9375 67.421875 
Q 19.578125 74.21875 30.609375 74.21875 
Q 43.265625 74.21875 49.921875 64.515625 
Q 56.59375 54.828125 56.59375 36.375 
Q 56.59375 19.140625 48.40625 8.859375 
Q 40.234375 -1.421875 26.421875 -1.421875 
Q 22.703125 -1.421875 18.890625 -0.6875 
Q 15.09375 0.046875 10.984375 1.515625 
z
M 30.609375 32.421875 
Q 37.25 32.421875 41.125 36.953125 
Q 45.015625 41.5 45.015625 49.421875 
Q 45.015625 57.28125 41.125 61.84375 
Q 37.25 66.40625 30.609375 66.40625 
Q 23.96875 66.40625 20.09375 61.84375 
Q 16.21875 57.28125 16.21875 49.421875 
Q 16.21875 41.5 20.09375 36.953125 
Q 23.96875 32.421875 30.609375 32.421875 
z
" id="DejaVuSans-57"/>
      <path d="M 54.890625 33.015625 
L 54.890625 0 
L 45.90625 0 
L 45.90625 32.71875 
Q 45.90625 40.484375 42.875 44.328125 
Q 39.84375 48.1875 33.796875 48.1875 
Q 26.515625 48.1875 22.3125 43.546875 
Q 18.109375 38.921875 18.109375 30.90625 
L 18.109375 0 
L 9.078125 0 
L 9.078125 75.984375 
L 18.109375 75.984375 
L 18.109375 46.1875 
Q 21.34375 51.125 25.703125 53.5625 
Q 30.078125 56 35.796875 56 
Q 45.21875 56 50.046875 50.171875 
Q 54.890625 44.34375 54.890625 33.015625 
z
" id="DejaVuSans-104"/>
      <path d="M 10.59375 45.40625 
L 73.1875 45.40625 
L 73.1875 37.203125 
L 10.59375 37.203125 
z
M 10.59375 25.484375 
L 73.1875 25.484375 
L 73.1875 17.1875 
L 10.59375 17.1875 
z
" id="DejaVuSans-61"/>
      <path d="M 8.203125 72.90625 
L 55.078125 72.90625 
L 55.078125 68.703125 
L 28.609375 0 
L 18.3125 0 
L 43.21875 64.59375 
L 8.203125 64.59375 
z
" id="DejaVuSans-55"/>
     </defs>
     <use xlink:href="#DejaVuSans-118"/>
     <use x="59.179688" xlink:href="#DejaVuSans-50"/>
     <use x="122.802734" xlink:href="#DejaVuSans-46"/>
     <use x="154.589844" xlink:href="#DejaVuSans-52"/>
     <use x="218.212891" xlink:href="#DejaVuSans-46"/>
     <use x="250" xlink:href="#DejaVuSans-49"/>
     <use x="313.623047" xlink:href="#DejaVuSans-57"/>
     <use x="377.246094" xlink:href="#DejaVuSans-44"/>
     <use x="409.033203" xlink:href="#DejaVuSans-32"/>
     <use x="440.820312" xlink:href="#DejaVuSans-104"/>
     <use x="504.199219" xlink:href="#DejaVuSans-118"/>
     <use x="560.753906" xlink:href="#DejaVuSans-45"/>
     <use x="596.837891" xlink:href="#DejaVuSans-104"/>
     <use x="660.216797" xlink:href="#DejaVuSans-97"/>
     <use x="721.496094" xlink:href="#DejaVuSans-115"/>
     <use x="773.595703" xlink:href="#DejaVuSans-104"/>
     <use x="836.974609" xlink:href="#DejaVuSans-61"/>
     <use x="920.763672" xlink:href="#DejaVuSans-102"/>
     <use x="955.96875" xlink:href="#DejaVuSans-102"/>
     <use x="991.173828" xlink:href="#DejaVuSans-48"/>
     <use x="1054.796875" xlink:href="#DejaVuSans-101"/>
     <use x="1116.320312" xlink:href="#DejaVuSans-55"/>
     <use x="1179.943359" xlink:href="#DejaVuSans-49"/>
     <use x="1243.566406" xlink:href="#DejaVuSans-101"/>
     <use x="1305.089844" xlink:href="#DejaVuSans-56"/>
     <use x="1368.712891" xlink:href="#DejaVuSans-99"/>
     <use x="1423.693359" xlink:href="#DejaVuSans-100"/>
     <use x="1487.169922" xlink:href="#DejaVuSans-57"/>
     <use x="1550.792969" xlink:href="#DejaVuSans-55"/>
     <use x="1614.416016" xlink:href="#DejaVuSans-56"/>
     <use x="1678.039062" xlink:href="#DejaVuSans-51"/>
     <use x="1741.662109" xlink:href="#DejaVuSans-55"/>
     <use x="1805.285156" xlink:href="#DejaVuSans-51"/>
    </g>
   </g>
   <g id="text_19">
    <!-- 38 Sharp ridge/Schaffer F7 -->
    <g transform="translate(63.772125 21.648)scale(0.2 -0.2)">
     <use xlink:href="#DejaVuSans-51"/>
     <use x="63.623047" xlink:href="#DejaVuSans-56"/>
     <use x="127.246094" xlink:href="#DejaVuSans-32"/>
     <use x="159.033203" xlink:href="#DejaVuSans-83"/>
     <use x="222.509766" xlink:href="#DejaVuSans-104"/>
     <use x="285.888672" xlink:href="#DejaVuSans-97"/>
     <use x="347.167969" xlink:href="#DejaVuSans-114"/>
     <use x="388.28125" xlink:href="#DejaVuSans-112"/>
     <use x="451.757812" xlink:href="#DejaVuSans-32"/>
     <use x="483.544922" xlink:href="#DejaVuSans-114"/>
     <use x="524.658203" xlink:href="#DejaVuSans-105"/>
     <use x="552.441406" xlink:href="#DejaVuSans-100"/>
     <use x="615.917969" xlink:href="#DejaVuSans-103"/>
     <use x="679.394531" xlink:href="#DejaVuSans-101"/>
     <use x="740.917969" xlink:href="#DejaVuSans-47"/>
     <use x="774.609375" xlink:href="#DejaVuSans-83"/>
     <use x="838.085938" xlink:href="#DejaVuSans-99"/>
     <use x="893.066406" xlink:href="#DejaVuSans-104"/>
     <use x="956.445312" xlink:href="#DejaVuSans-97"/>
     <use x="1017.724609" xlink:href="#DejaVuSans-102"/>
     <use x="1052.929688" xlink:href="#DejaVuSans-102"/>
     <use x="1088.134766" xlink:href="#DejaVuSans-101"/>
     <use x="1149.658203" xlink:href="#DejaVuSans-114"/>
     <use x="1190.771484" xlink:href="#DejaVuSans-32"/>
     <use x="1222.558594" xlink:href="#DejaVuSans-70"/>
     <use x="1280.078125" xlink:href="#DejaVuSans-55"/>
    </g>
   </g>
  </g>
 </g>
 <defs>
  <clipPath id="pa02a4f7d23">
   <rect height="271.296" width="281.088" x="57.6" y="27.648"/>
  </clipPath>
 </defs>
</svg>
