<?xml version="1.0" encoding="utf-8" standalone="no"?>
<!DOCTYPE svg PUBLIC "-//W3C//DTD SVG 1.1//EN"
  "http://www.w3.org/Graphics/SVG/1.1/DTD/svg11.dtd">
<!-- Created with matplotlib (https://matplotlib.org/) -->
<svg height="345.6pt" version="1.1" viewBox="0 0 460.8 345.6" width="460.8pt" xmlns="http://www.w3.org/2000/svg" xmlns:xlink="http://www.w3.org/1999/xlink">
 <metadata>
  <rdf:RDF xmlns:cc="http://creativecommons.org/ns#" xmlns:dc="http://purl.org/dc/elements/1.1/" xmlns:rdf="http://www.w3.org/1999/02/22-rdf-syntax-ns#">
   <cc:Work>
    <dc:type rdf:resource="http://purl.org/dc/dcmitype/StillImage"/>
    <dc:date>2021-04-26T15:04:10.530501</dc:date>
    <dc:format>image/svg+xml</dc:format>
    <dc:creator>
     <cc:Agent>
      <dc:title>Matplotlib v3.3.2, https://matplotlib.org/</dc:title>
     </cc:Agent>
    </dc:creator>
   </cc:Work>
  </rdf:RDF>
 </metadata>
 <defs>
  <style type="text/css">*{stroke-linecap:butt;stroke-linejoin:round;}</style>
 </defs>
 <g id="figure_1">
  <g id="patch_1">
   <path d="M 0 345.6 
L 460.8 345.6 
L 460.8 0 
L 0 0 
z
" style="fill:#ffffff;"/>
  </g>
  <g id="axes_1">
   <g id="patch_2">
    <path d="M 57.6 298.944 
L 338.688 298.944 
L 338.688 27.648 
L 57.6 27.648 
z
" style="fill:#ffffff;"/>
   </g>
   <g id="line2d_1">
    <path d="M 17.444571 298.944 
L 17.444571 294.312795 
L 36.60358 294.312795 
L 36.60358 285.050384 
L 72.867545 285.050384 
L 72.867545 275.787974 
L 90.509138 275.787974 
L 90.509138 271.156769 
L 99.731799 271.156769 
L 99.731799 257.263153 
L 107.614095 257.263153 
L 107.614095 248.000743 
L 120.33454 248.000743 
L 120.33454 243.369538 
L 129.825588 243.369538 
L 129.825588 234.107127 
L 136.034648 234.107127 
L 136.034648 220.213512 
L 142.243147 220.213512 
L 142.243147 210.951101 
L 148.209809 210.951101 
L 148.209809 201.688691 
L 155.722837 201.688691 
L 155.722837 192.426281 
L 162.581141 192.426281 
L 162.581141 187.795075 
L 169.645097 187.795075 
L 169.645097 173.90146 
L 179.693513 173.90146 
L 179.693513 169.270255 
L 190.16212 169.270255 
L 190.16212 155.376639 
L 204.78318 155.376639 
L 204.78318 146.114229 
L 210.927002 146.114229 
L 210.927002 141.483024 
L 218.447136 141.483024 
L 218.447136 127.589408 
L 235.549898 127.589408 
L 235.549898 122.958203 
L 242.822229 122.958203 
L 242.822229 109.064587 
L 250.189488 109.064587 
L 250.189488 99.802177 
L 258.635398 99.802177 
L 258.635398 90.539766 
L 264.327295 90.539766 
L 264.327295 85.908561 
L 275.503415 85.908561 
L 275.503415 76.646151 
L 284.222683 76.646151 
L 284.222683 62.752535 
L 338.688 62.752535 
" style="fill:none;stroke:#f5deb3;stroke-linecap:square;stroke-width:4;"/>
   </g>
   <g id="line2d_2">
    <defs>
     <path d="M 0 7.778175 
L 7.778175 0 
L 0 -7.778175 
L -7.778175 0 
z
" id="ma1128ae7c8" style="stroke:#f5deb3;stroke-linejoin:miter;stroke-width:1.5;"/>
    </defs>
    <g>
     <use style="fill:#f5deb3;stroke:#f5deb3;stroke-linejoin:miter;stroke-width:1.5;" x="129.825588" xlink:href="#ma1128ae7c8" y="234.107127"/>
     <use style="fill:#f5deb3;stroke:#f5deb3;stroke-linejoin:miter;stroke-width:1.5;" x="190.16212" xlink:href="#ma1128ae7c8" y="169.270255"/>
     <use style="fill:#f5deb3;stroke:#f5deb3;stroke-linejoin:miter;stroke-width:1.5;" x="264.327295" xlink:href="#ma1128ae7c8" y="90.539766"/>
     <use style="fill:#f5deb3;stroke:#f5deb3;stroke-linejoin:miter;stroke-width:1.5;" x="284.222683" xlink:href="#ma1128ae7c8" y="62.752535"/>
     <use style="fill:#f5deb3;stroke:#f5deb3;stroke-linejoin:miter;stroke-width:1.5;" x="338.688" xlink:href="#ma1128ae7c8" y="62.752535"/>
    </g>
   </g>
   <g id="line2d_3">
    <path style="fill:none;stroke:#f5deb3;stroke-linecap:square;stroke-width:4;"/>
    <g/>
   </g>
   <g id="line2d_4">
    <path d="M 338.688 62.752535 
L 369.60768 35.706297 
" style="fill:none;stroke:#f5deb3;stroke-linecap:square;stroke-width:4;"/>
    <g>
     <use style="fill:#f5deb3;stroke:#f5deb3;stroke-linejoin:miter;stroke-width:1.5;" x="338.688" xlink:href="#ma1128ae7c8" y="62.752535"/>
     <use style="fill:#f5deb3;stroke:#f5deb3;stroke-linejoin:miter;stroke-width:1.5;" x="369.60768" xlink:href="#ma1128ae7c8" y="35.706297"/>
    </g>
   </g>
   <g id="matplotlib.axis_1">
    <g id="xtick_1">
     <g id="line2d_5">
      <path clip-path="url(#p0f95e278e0)" d="M 57.6 298.944 
L 57.6 27.648 
" style="fill:none;stroke:#b0b0b0;stroke-linecap:square;stroke-width:0.8;"/>
     </g>
     <g id="line2d_6">
      <defs>
       <path d="M 0 0 
L 0 3.5 
" id="m22eabaa847" style="stroke:#000000;stroke-width:0.8;"/>
      </defs>
      <g>
       <use style="stroke:#000000;stroke-width:0.8;" x="57.6" xlink:href="#m22eabaa847" y="298.944"/>
      </g>
     </g>
     <g id="text_1">
      <!-- 0 -->
      <g transform="translate(51.2375 321.140875)scale(0.2 -0.2)">
       <defs>
        <path d="M 31.78125 66.40625 
Q 24.171875 66.40625 20.328125 58.90625 
Q 16.5 51.421875 16.5 36.375 
Q 16.5 21.390625 20.328125 13.890625 
Q 24.171875 6.390625 31.78125 6.390625 
Q 39.453125 6.390625 43.28125 13.890625 
Q 47.125 21.390625 47.125 36.375 
Q 47.125 51.421875 43.28125 58.90625 
Q 39.453125 66.40625 31.78125 66.40625 
z
M 31.78125 74.21875 
Q 44.046875 74.21875 50.515625 64.515625 
Q 56.984375 54.828125 56.984375 36.375 
Q 56.984375 17.96875 50.515625 8.265625 
Q 44.046875 -1.421875 31.78125 -1.421875 
Q 19.53125 -1.421875 13.0625 8.265625 
Q 6.59375 17.96875 6.59375 36.375 
Q 6.59375 54.828125 13.0625 64.515625 
Q 19.53125 74.21875 31.78125 74.21875 
z
" id="DejaVuSans-48"/>
       </defs>
       <use xlink:href="#DejaVuSans-48"/>
      </g>
     </g>
    </g>
    <g id="xtick_2">
     <g id="line2d_7">
      <path clip-path="url(#p0f95e278e0)" d="M 137.910857 298.944 
L 137.910857 27.648 
" style="fill:none;stroke:#b0b0b0;stroke-linecap:square;stroke-width:0.8;"/>
     </g>
     <g id="line2d_8">
      <g>
       <use style="stroke:#000000;stroke-width:0.8;" x="137.910857" xlink:href="#m22eabaa847" y="298.944"/>
      </g>
     </g>
     <g id="text_2">
      <!-- 2 -->
      <g transform="translate(131.548357 321.140875)scale(0.2 -0.2)">
       <defs>
        <path d="M 19.1875 8.296875 
L 53.609375 8.296875 
L 53.609375 0 
L 7.328125 0 
L 7.328125 8.296875 
Q 12.9375 14.109375 22.625 23.890625 
Q 32.328125 33.6875 34.8125 36.53125 
Q 39.546875 41.84375 41.421875 45.53125 
Q 43.3125 49.21875 43.3125 52.78125 
Q 43.3125 58.59375 39.234375 62.25 
Q 35.15625 65.921875 28.609375 65.921875 
Q 23.96875 65.921875 18.8125 64.3125 
Q 13.671875 62.703125 7.8125 59.421875 
L 7.8125 69.390625 
Q 13.765625 71.78125 18.9375 73 
Q 24.125 74.21875 28.421875 74.21875 
Q 39.75 74.21875 46.484375 68.546875 
Q 53.21875 62.890625 53.21875 53.421875 
Q 53.21875 48.921875 51.53125 44.890625 
Q 49.859375 40.875 45.40625 35.40625 
Q 44.1875 33.984375 37.640625 27.21875 
Q 31.109375 20.453125 19.1875 8.296875 
z
" id="DejaVuSans-50"/>
       </defs>
       <use xlink:href="#DejaVuSans-50"/>
      </g>
     </g>
    </g>
    <g id="xtick_3">
     <g id="line2d_9">
      <path clip-path="url(#p0f95e278e0)" d="M 218.221714 298.944 
L 218.221714 27.648 
" style="fill:none;stroke:#b0b0b0;stroke-linecap:square;stroke-width:0.8;"/>
     </g>
     <g id="line2d_10">
      <g>
       <use style="stroke:#000000;stroke-width:0.8;" x="218.221714" xlink:href="#m22eabaa847" y="298.944"/>
      </g>
     </g>
     <g id="text_3">
      <!-- 4 -->
      <g transform="translate(211.859214 321.140875)scale(0.2 -0.2)">
       <defs>
        <path d="M 37.796875 64.3125 
L 12.890625 25.390625 
L 37.796875 25.390625 
z
M 35.203125 72.90625 
L 47.609375 72.90625 
L 47.609375 25.390625 
L 58.015625 25.390625 
L 58.015625 17.1875 
L 47.609375 17.1875 
L 47.609375 0 
L 37.796875 0 
L 37.796875 17.1875 
L 4.890625 17.1875 
L 4.890625 26.703125 
z
" id="DejaVuSans-52"/>
       </defs>
       <use xlink:href="#DejaVuSans-52"/>
      </g>
     </g>
    </g>
    <g id="xtick_4">
     <g id="line2d_11">
      <path clip-path="url(#p0f95e278e0)" d="M 298.532571 298.944 
L 298.532571 27.648 
" style="fill:none;stroke:#b0b0b0;stroke-linecap:square;stroke-width:0.8;"/>
     </g>
     <g id="line2d_12">
      <g>
       <use style="stroke:#000000;stroke-width:0.8;" x="298.532571" xlink:href="#m22eabaa847" y="298.944"/>
      </g>
     </g>
     <g id="text_4">
      <!-- 6 -->
      <g transform="translate(292.170071 321.140875)scale(0.2 -0.2)">
       <defs>
        <path d="M 33.015625 40.375 
Q 26.375 40.375 22.484375 35.828125 
Q 18.609375 31.296875 18.609375 23.390625 
Q 18.609375 15.53125 22.484375 10.953125 
Q 26.375 6.390625 33.015625 6.390625 
Q 39.65625 6.390625 43.53125 10.953125 
Q 47.40625 15.53125 47.40625 23.390625 
Q 47.40625 31.296875 43.53125 35.828125 
Q 39.65625 40.375 33.015625 40.375 
z
M 52.59375 71.296875 
L 52.59375 62.3125 
Q 48.875 64.0625 45.09375 64.984375 
Q 41.3125 65.921875 37.59375 65.921875 
Q 27.828125 65.921875 22.671875 59.328125 
Q 17.53125 52.734375 16.796875 39.40625 
Q 19.671875 43.65625 24.015625 45.921875 
Q 28.375 48.1875 33.59375 48.1875 
Q 44.578125 48.1875 50.953125 41.515625 
Q 57.328125 34.859375 57.328125 23.390625 
Q 57.328125 12.15625 50.6875 5.359375 
Q 44.046875 -1.421875 33.015625 -1.421875 
Q 20.359375 -1.421875 13.671875 8.265625 
Q 6.984375 17.96875 6.984375 36.375 
Q 6.984375 53.65625 15.1875 63.9375 
Q 23.390625 74.21875 37.203125 74.21875 
Q 40.921875 74.21875 44.703125 73.484375 
Q 48.484375 72.75 52.59375 71.296875 
z
" id="DejaVuSans-54"/>
       </defs>
       <use xlink:href="#DejaVuSans-54"/>
      </g>
     </g>
    </g>
    <g id="xtick_5">
     <g id="line2d_13">
      <path clip-path="url(#p0f95e278e0)" d="M 97.755429 298.944 
L 97.755429 27.648 
" style="fill:none;stroke:#b0b0b0;stroke-linecap:square;stroke-width:0.8;"/>
     </g>
     <g id="line2d_14">
      <defs>
       <path d="M 0 0 
L 0 2 
" id="m2561f5fb4a" style="stroke:#000000;stroke-width:0.6;"/>
      </defs>
      <g>
       <use style="stroke:#000000;stroke-width:0.6;" x="97.755429" xlink:href="#m2561f5fb4a" y="298.944"/>
      </g>
     </g>
    </g>
    <g id="xtick_6">
     <g id="line2d_15">
      <path clip-path="url(#p0f95e278e0)" d="M 178.066286 298.944 
L 178.066286 27.648 
" style="fill:none;stroke:#b0b0b0;stroke-linecap:square;stroke-width:0.8;"/>
     </g>
     <g id="line2d_16">
      <g>
       <use style="stroke:#000000;stroke-width:0.6;" x="178.066286" xlink:href="#m2561f5fb4a" y="298.944"/>
      </g>
     </g>
    </g>
    <g id="xtick_7">
     <g id="line2d_17">
      <path clip-path="url(#p0f95e278e0)" d="M 258.377143 298.944 
L 258.377143 27.648 
" style="fill:none;stroke:#b0b0b0;stroke-linecap:square;stroke-width:0.8;"/>
     </g>
     <g id="line2d_18">
      <g>
       <use style="stroke:#000000;stroke-width:0.6;" x="258.377143" xlink:href="#m2561f5fb4a" y="298.944"/>
      </g>
     </g>
    </g>
    <g id="xtick_8">
     <g id="line2d_19">
      <path clip-path="url(#p0f95e278e0)" d="M 338.688 298.944 
L 338.688 27.648 
" style="fill:none;stroke:#b0b0b0;stroke-linecap:square;stroke-width:0.8;"/>
     </g>
     <g id="line2d_20">
      <g>
       <use style="stroke:#000000;stroke-width:0.6;" x="338.688" xlink:href="#m2561f5fb4a" y="298.944"/>
      </g>
     </g>
    </g>
    <g id="text_5">
     <!-- log10(# f-evals / dimension) -->
     <g transform="translate(77.764078 342.217594)scale(0.17 -0.17)">
      <defs>
       <path d="M 9.421875 75.984375 
L 18.40625 75.984375 
L 18.40625 0 
L 9.421875 0 
z
" id="DejaVuSans-108"/>
       <path d="M 30.609375 48.390625 
Q 23.390625 48.390625 19.1875 42.75 
Q 14.984375 37.109375 14.984375 27.296875 
Q 14.984375 17.484375 19.15625 11.84375 
Q 23.34375 6.203125 30.609375 6.203125 
Q 37.796875 6.203125 41.984375 11.859375 
Q 46.1875 17.53125 46.1875 27.296875 
Q 46.1875 37.015625 41.984375 42.703125 
Q 37.796875 48.390625 30.609375 48.390625 
z
M 30.609375 56 
Q 42.328125 56 49.015625 48.375 
Q 55.71875 40.765625 55.71875 27.296875 
Q 55.71875 13.875 49.015625 6.21875 
Q 42.328125 -1.421875 30.609375 -1.421875 
Q 18.84375 -1.421875 12.171875 6.21875 
Q 5.515625 13.875 5.515625 27.296875 
Q 5.515625 40.765625 12.171875 48.375 
Q 18.84375 56 30.609375 56 
z
" id="DejaVuSans-111"/>
       <path d="M 45.40625 27.984375 
Q 45.40625 37.75 41.375 43.109375 
Q 37.359375 48.484375 30.078125 48.484375 
Q 22.859375 48.484375 18.828125 43.109375 
Q 14.796875 37.75 14.796875 27.984375 
Q 14.796875 18.265625 18.828125 12.890625 
Q 22.859375 7.515625 30.078125 7.515625 
Q 37.359375 7.515625 41.375 12.890625 
Q 45.40625 18.265625 45.40625 27.984375 
z
M 54.390625 6.78125 
Q 54.390625 -7.171875 48.1875 -13.984375 
Q 42 -20.796875 29.203125 -20.796875 
Q 24.46875 -20.796875 20.265625 -20.09375 
Q 16.0625 -19.390625 12.109375 -17.921875 
L 12.109375 -9.1875 
Q 16.0625 -11.328125 19.921875 -12.34375 
Q 23.78125 -13.375 27.78125 -13.375 
Q 36.625 -13.375 41.015625 -8.765625 
Q 45.40625 -4.15625 45.40625 5.171875 
L 45.40625 9.625 
Q 42.625 4.78125 38.28125 2.390625 
Q 33.9375 0 27.875 0 
Q 17.828125 0 11.671875 7.65625 
Q 5.515625 15.328125 5.515625 27.984375 
Q 5.515625 40.671875 11.671875 48.328125 
Q 17.828125 56 27.875 56 
Q 33.9375 56 38.28125 53.609375 
Q 42.625 51.21875 45.40625 46.390625 
L 45.40625 54.6875 
L 54.390625 54.6875 
z
" id="DejaVuSans-103"/>
       <path d="M 12.40625 8.296875 
L 28.515625 8.296875 
L 28.515625 63.921875 
L 10.984375 60.40625 
L 10.984375 69.390625 
L 28.421875 72.90625 
L 38.28125 72.90625 
L 38.28125 8.296875 
L 54.390625 8.296875 
L 54.390625 0 
L 12.40625 0 
z
" id="DejaVuSans-49"/>
       <path d="M 31 75.875 
Q 24.46875 64.65625 21.28125 53.65625 
Q 18.109375 42.671875 18.109375 31.390625 
Q 18.109375 20.125 21.3125 9.0625 
Q 24.515625 -2 31 -13.1875 
L 23.1875 -13.1875 
Q 15.875 -1.703125 12.234375 9.375 
Q 8.59375 20.453125 8.59375 31.390625 
Q 8.59375 42.28125 12.203125 53.3125 
Q 15.828125 64.359375 23.1875 75.875 
z
" id="DejaVuSans-40"/>
       <path d="M 51.125 44 
L 36.921875 44 
L 32.8125 27.6875 
L 47.125 27.6875 
z
M 43.796875 71.78125 
L 38.71875 51.515625 
L 52.984375 51.515625 
L 58.109375 71.78125 
L 65.921875 71.78125 
L 60.890625 51.515625 
L 76.125 51.515625 
L 76.125 44 
L 58.984375 44 
L 54.984375 27.6875 
L 70.515625 27.6875 
L 70.515625 20.21875 
L 53.078125 20.21875 
L 48 0 
L 40.1875 0 
L 45.21875 20.21875 
L 30.90625 20.21875 
L 25.875 0 
L 18.015625 0 
L 23.09375 20.21875 
L 7.71875 20.21875 
L 7.71875 27.6875 
L 24.90625 27.6875 
L 29 44 
L 13.28125 44 
L 13.28125 51.515625 
L 30.90625 51.515625 
L 35.890625 71.78125 
z
" id="DejaVuSans-35"/>
       <path id="DejaVuSans-32"/>
       <path d="M 37.109375 75.984375 
L 37.109375 68.5 
L 28.515625 68.5 
Q 23.6875 68.5 21.796875 66.546875 
Q 19.921875 64.59375 19.921875 59.515625 
L 19.921875 54.6875 
L 34.71875 54.6875 
L 34.71875 47.703125 
L 19.921875 47.703125 
L 19.921875 0 
L 10.890625 0 
L 10.890625 47.703125 
L 2.296875 47.703125 
L 2.296875 54.6875 
L 10.890625 54.6875 
L 10.890625 58.5 
Q 10.890625 67.625 15.140625 71.796875 
Q 19.390625 75.984375 28.609375 75.984375 
z
" id="DejaVuSans-102"/>
       <path d="M 4.890625 31.390625 
L 31.203125 31.390625 
L 31.203125 23.390625 
L 4.890625 23.390625 
z
" id="DejaVuSans-45"/>
       <path d="M 56.203125 29.59375 
L 56.203125 25.203125 
L 14.890625 25.203125 
Q 15.484375 15.921875 20.484375 11.0625 
Q 25.484375 6.203125 34.421875 6.203125 
Q 39.59375 6.203125 44.453125 7.46875 
Q 49.3125 8.734375 54.109375 11.28125 
L 54.109375 2.78125 
Q 49.265625 0.734375 44.1875 -0.34375 
Q 39.109375 -1.421875 33.890625 -1.421875 
Q 20.796875 -1.421875 13.15625 6.1875 
Q 5.515625 13.8125 5.515625 26.8125 
Q 5.515625 40.234375 12.765625 48.109375 
Q 20.015625 56 32.328125 56 
Q 43.359375 56 49.78125 48.890625 
Q 56.203125 41.796875 56.203125 29.59375 
z
M 47.21875 32.234375 
Q 47.125 39.59375 43.09375 43.984375 
Q 39.0625 48.390625 32.421875 48.390625 
Q 24.90625 48.390625 20.390625 44.140625 
Q 15.875 39.890625 15.1875 32.171875 
z
" id="DejaVuSans-101"/>
       <path d="M 2.984375 54.6875 
L 12.5 54.6875 
L 29.59375 8.796875 
L 46.6875 54.6875 
L 56.203125 54.6875 
L 35.6875 0 
L 23.484375 0 
z
" id="DejaVuSans-118"/>
       <path d="M 34.28125 27.484375 
Q 23.390625 27.484375 19.1875 25 
Q 14.984375 22.515625 14.984375 16.5 
Q 14.984375 11.71875 18.140625 8.90625 
Q 21.296875 6.109375 26.703125 6.109375 
Q 34.1875 6.109375 38.703125 11.40625 
Q 43.21875 16.703125 43.21875 25.484375 
L 43.21875 27.484375 
z
M 52.203125 31.203125 
L 52.203125 0 
L 43.21875 0 
L 43.21875 8.296875 
Q 40.140625 3.328125 35.546875 0.953125 
Q 30.953125 -1.421875 24.3125 -1.421875 
Q 15.921875 -1.421875 10.953125 3.296875 
Q 6 8.015625 6 15.921875 
Q 6 25.140625 12.171875 29.828125 
Q 18.359375 34.515625 30.609375 34.515625 
L 43.21875 34.515625 
L 43.21875 35.40625 
Q 43.21875 41.609375 39.140625 45 
Q 35.0625 48.390625 27.6875 48.390625 
Q 23 48.390625 18.546875 47.265625 
Q 14.109375 46.140625 10.015625 43.890625 
L 10.015625 52.203125 
Q 14.9375 54.109375 19.578125 55.046875 
Q 24.21875 56 28.609375 56 
Q 40.484375 56 46.34375 49.84375 
Q 52.203125 43.703125 52.203125 31.203125 
z
" id="DejaVuSans-97"/>
       <path d="M 44.28125 53.078125 
L 44.28125 44.578125 
Q 40.484375 46.53125 36.375 47.5 
Q 32.28125 48.484375 27.875 48.484375 
Q 21.1875 48.484375 17.84375 46.4375 
Q 14.5 44.390625 14.5 40.28125 
Q 14.5 37.15625 16.890625 35.375 
Q 19.28125 33.59375 26.515625 31.984375 
L 29.59375 31.296875 
Q 39.15625 29.25 43.1875 25.515625 
Q 47.21875 21.78125 47.21875 15.09375 
Q 47.21875 7.46875 41.1875 3.015625 
Q 35.15625 -1.421875 24.609375 -1.421875 
Q 20.21875 -1.421875 15.453125 -0.5625 
Q 10.6875 0.296875 5.421875 2 
L 5.421875 11.28125 
Q 10.40625 8.6875 15.234375 7.390625 
Q 20.0625 6.109375 24.8125 6.109375 
Q 31.15625 6.109375 34.5625 8.28125 
Q 37.984375 10.453125 37.984375 14.40625 
Q 37.984375 18.0625 35.515625 20.015625 
Q 33.0625 21.96875 24.703125 23.78125 
L 21.578125 24.515625 
Q 13.234375 26.265625 9.515625 29.90625 
Q 5.8125 33.546875 5.8125 39.890625 
Q 5.8125 47.609375 11.28125 51.796875 
Q 16.75 56 26.8125 56 
Q 31.78125 56 36.171875 55.265625 
Q 40.578125 54.546875 44.28125 53.078125 
z
" id="DejaVuSans-115"/>
       <path d="M 25.390625 72.90625 
L 33.6875 72.90625 
L 8.296875 -9.28125 
L 0 -9.28125 
z
" id="DejaVuSans-47"/>
       <path d="M 45.40625 46.390625 
L 45.40625 75.984375 
L 54.390625 75.984375 
L 54.390625 0 
L 45.40625 0 
L 45.40625 8.203125 
Q 42.578125 3.328125 38.25 0.953125 
Q 33.9375 -1.421875 27.875 -1.421875 
Q 17.96875 -1.421875 11.734375 6.484375 
Q 5.515625 14.40625 5.515625 27.296875 
Q 5.515625 40.1875 11.734375 48.09375 
Q 17.96875 56 27.875 56 
Q 33.9375 56 38.25 53.625 
Q 42.578125 51.265625 45.40625 46.390625 
z
M 14.796875 27.296875 
Q 14.796875 17.390625 18.875 11.75 
Q 22.953125 6.109375 30.078125 6.109375 
Q 37.203125 6.109375 41.296875 11.75 
Q 45.40625 17.390625 45.40625 27.296875 
Q 45.40625 37.203125 41.296875 42.84375 
Q 37.203125 48.484375 30.078125 48.484375 
Q 22.953125 48.484375 18.875 42.84375 
Q 14.796875 37.203125 14.796875 27.296875 
z
" id="DejaVuSans-100"/>
       <path d="M 9.421875 54.6875 
L 18.40625 54.6875 
L 18.40625 0 
L 9.421875 0 
z
M 9.421875 75.984375 
L 18.40625 75.984375 
L 18.40625 64.59375 
L 9.421875 64.59375 
z
" id="DejaVuSans-105"/>
       <path d="M 52 44.1875 
Q 55.375 50.25 60.0625 53.125 
Q 64.75 56 71.09375 56 
Q 79.640625 56 84.28125 50.015625 
Q 88.921875 44.046875 88.921875 33.015625 
L 88.921875 0 
L 79.890625 0 
L 79.890625 32.71875 
Q 79.890625 40.578125 77.09375 44.375 
Q 74.3125 48.1875 68.609375 48.1875 
Q 61.625 48.1875 57.5625 43.546875 
Q 53.515625 38.921875 53.515625 30.90625 
L 53.515625 0 
L 44.484375 0 
L 44.484375 32.71875 
Q 44.484375 40.625 41.703125 44.40625 
Q 38.921875 48.1875 33.109375 48.1875 
Q 26.21875 48.1875 22.15625 43.53125 
Q 18.109375 38.875 18.109375 30.90625 
L 18.109375 0 
L 9.078125 0 
L 9.078125 54.6875 
L 18.109375 54.6875 
L 18.109375 46.1875 
Q 21.1875 51.21875 25.484375 53.609375 
Q 29.78125 56 35.6875 56 
Q 41.65625 56 45.828125 52.96875 
Q 50 49.953125 52 44.1875 
z
" id="DejaVuSans-109"/>
       <path d="M 54.890625 33.015625 
L 54.890625 0 
L 45.90625 0 
L 45.90625 32.71875 
Q 45.90625 40.484375 42.875 44.328125 
Q 39.84375 48.1875 33.796875 48.1875 
Q 26.515625 48.1875 22.3125 43.546875 
Q 18.109375 38.921875 18.109375 30.90625 
L 18.109375 0 
L 9.078125 0 
L 9.078125 54.6875 
L 18.109375 54.6875 
L 18.109375 46.1875 
Q 21.34375 51.125 25.703125 53.5625 
Q 30.078125 56 35.796875 56 
Q 45.21875 56 50.046875 50.171875 
Q 54.890625 44.34375 54.890625 33.015625 
z
" id="DejaVuSans-110"/>
       <path d="M 8.015625 75.875 
L 15.828125 75.875 
Q 23.140625 64.359375 26.78125 53.3125 
Q 30.421875 42.28125 30.421875 31.390625 
Q 30.421875 20.453125 26.78125 9.375 
Q 23.140625 -1.703125 15.828125 -13.1875 
L 8.015625 -13.1875 
Q 14.5 -2 17.703125 9.0625 
Q 20.90625 20.125 20.90625 31.390625 
Q 20.90625 42.671875 17.703125 53.65625 
Q 14.5 64.65625 8.015625 75.875 
z
" id="DejaVuSans-41"/>
      </defs>
      <use xlink:href="#DejaVuSans-108"/>
      <use x="27.783203" xlink:href="#DejaVuSans-111"/>
      <use x="88.964844" xlink:href="#DejaVuSans-103"/>
      <use x="152.441406" xlink:href="#DejaVuSans-49"/>
      <use x="216.064453" xlink:href="#DejaVuSans-48"/>
      <use x="279.6875" xlink:href="#DejaVuSans-40"/>
      <use x="318.701172" xlink:href="#DejaVuSans-35"/>
      <use x="402.490234" xlink:href="#DejaVuSans-32"/>
      <use x="434.277344" xlink:href="#DejaVuSans-102"/>
      <use x="463.982422" xlink:href="#DejaVuSans-45"/>
      <use x="500.066406" xlink:href="#DejaVuSans-101"/>
      <use x="561.589844" xlink:href="#DejaVuSans-118"/>
      <use x="620.769531" xlink:href="#DejaVuSans-97"/>
      <use x="682.048828" xlink:href="#DejaVuSans-108"/>
      <use x="709.832031" xlink:href="#DejaVuSans-115"/>
      <use x="761.931641" xlink:href="#DejaVuSans-32"/>
      <use x="793.71875" xlink:href="#DejaVuSans-47"/>
      <use x="827.410156" xlink:href="#DejaVuSans-32"/>
      <use x="859.197266" xlink:href="#DejaVuSans-100"/>
      <use x="922.673828" xlink:href="#DejaVuSans-105"/>
      <use x="950.457031" xlink:href="#DejaVuSans-109"/>
      <use x="1047.869141" xlink:href="#DejaVuSans-101"/>
      <use x="1109.392578" xlink:href="#DejaVuSans-110"/>
      <use x="1172.771484" xlink:href="#DejaVuSans-115"/>
      <use x="1224.871094" xlink:href="#DejaVuSans-105"/>
      <use x="1252.654297" xlink:href="#DejaVuSans-111"/>
      <use x="1313.835938" xlink:href="#DejaVuSans-110"/>
      <use x="1377.214844" xlink:href="#DejaVuSans-41"/>
     </g>
    </g>
   </g>
   <g id="matplotlib.axis_2">
    <g id="ytick_1">
     <g id="line2d_21">
      <path clip-path="url(#p0f95e278e0)" d="M 57.6 298.944 
L 338.688 298.944 
" style="fill:none;stroke:#b0b0b0;stroke-linecap:square;stroke-width:0.8;"/>
     </g>
     <g id="line2d_22">
      <defs>
       <path d="M 0 0 
L -3.5 0 
" id="meb61b948f7" style="stroke:#000000;stroke-width:0.8;"/>
      </defs>
      <g>
       <use style="stroke:#000000;stroke-width:0.8;" x="57.6" xlink:href="#meb61b948f7" y="298.944"/>
      </g>
     </g>
     <g id="text_6">
      <!-- 0.0 -->
      <g transform="translate(25.155 305.02275)scale(0.16 -0.16)">
       <defs>
        <path d="M 10.6875 12.40625 
L 21 12.40625 
L 21 0 
L 10.6875 0 
z
" id="DejaVuSans-46"/>
       </defs>
       <use xlink:href="#DejaVuSans-48"/>
       <use x="63.623047" xlink:href="#DejaVuSans-46"/>
       <use x="95.410156" xlink:href="#DejaVuSans-48"/>
      </g>
     </g>
    </g>
    <g id="ytick_2">
     <g id="line2d_23">
      <path clip-path="url(#p0f95e278e0)" d="M 57.6 245.22202 
L 338.688 245.22202 
" style="fill:none;stroke:#b0b0b0;stroke-linecap:square;stroke-width:0.8;"/>
     </g>
     <g id="line2d_24">
      <g>
       <use style="stroke:#000000;stroke-width:0.8;" x="57.6" xlink:href="#meb61b948f7" y="245.22202"/>
      </g>
     </g>
     <g id="text_7">
      <!-- 0.2 -->
      <g transform="translate(25.155 251.30077)scale(0.16 -0.16)">
       <use xlink:href="#DejaVuSans-48"/>
       <use x="63.623047" xlink:href="#DejaVuSans-46"/>
       <use x="95.410156" xlink:href="#DejaVuSans-50"/>
      </g>
     </g>
    </g>
    <g id="ytick_3">
     <g id="line2d_25">
      <path clip-path="url(#p0f95e278e0)" d="M 57.6 191.50004 
L 338.688 191.50004 
" style="fill:none;stroke:#b0b0b0;stroke-linecap:square;stroke-width:0.8;"/>
     </g>
     <g id="line2d_26">
      <g>
       <use style="stroke:#000000;stroke-width:0.8;" x="57.6" xlink:href="#meb61b948f7" y="191.50004"/>
      </g>
     </g>
     <g id="text_8">
      <!-- 0.4 -->
      <g transform="translate(25.155 197.57879)scale(0.16 -0.16)">
       <use xlink:href="#DejaVuSans-48"/>
       <use x="63.623047" xlink:href="#DejaVuSans-46"/>
       <use x="95.410156" xlink:href="#DejaVuSans-52"/>
      </g>
     </g>
    </g>
    <g id="ytick_4">
     <g id="line2d_27">
      <path clip-path="url(#p0f95e278e0)" d="M 57.6 137.778059 
L 338.688 137.778059 
" style="fill:none;stroke:#b0b0b0;stroke-linecap:square;stroke-width:0.8;"/>
     </g>
     <g id="line2d_28">
      <g>
       <use style="stroke:#000000;stroke-width:0.8;" x="57.6" xlink:href="#meb61b948f7" y="137.778059"/>
      </g>
     </g>
     <g id="text_9">
      <!-- 0.6 -->
      <g transform="translate(25.155 143.856809)scale(0.16 -0.16)">
       <use xlink:href="#DejaVuSans-48"/>
       <use x="63.623047" xlink:href="#DejaVuSans-46"/>
       <use x="95.410156" xlink:href="#DejaVuSans-54"/>
      </g>
     </g>
    </g>
    <g id="ytick_5">
     <g id="line2d_29">
      <path clip-path="url(#p0f95e278e0)" d="M 57.6 84.056079 
L 338.688 84.056079 
" style="fill:none;stroke:#b0b0b0;stroke-linecap:square;stroke-width:0.8;"/>
     </g>
     <g id="line2d_30">
      <g>
       <use style="stroke:#000000;stroke-width:0.8;" x="57.6" xlink:href="#meb61b948f7" y="84.056079"/>
      </g>
     </g>
     <g id="text_10">
      <!-- 0.8 -->
      <g transform="translate(25.155 90.134829)scale(0.16 -0.16)">
       <defs>
        <path d="M 31.78125 34.625 
Q 24.75 34.625 20.71875 30.859375 
Q 16.703125 27.09375 16.703125 20.515625 
Q 16.703125 13.921875 20.71875 10.15625 
Q 24.75 6.390625 31.78125 6.390625 
Q 38.8125 6.390625 42.859375 10.171875 
Q 46.921875 13.96875 46.921875 20.515625 
Q 46.921875 27.09375 42.890625 30.859375 
Q 38.875 34.625 31.78125 34.625 
z
M 21.921875 38.8125 
Q 15.578125 40.375 12.03125 44.71875 
Q 8.5 49.078125 8.5 55.328125 
Q 8.5 64.0625 14.71875 69.140625 
Q 20.953125 74.21875 31.78125 74.21875 
Q 42.671875 74.21875 48.875 69.140625 
Q 55.078125 64.0625 55.078125 55.328125 
Q 55.078125 49.078125 51.53125 44.71875 
Q 48 40.375 41.703125 38.8125 
Q 48.828125 37.15625 52.796875 32.3125 
Q 56.78125 27.484375 56.78125 20.515625 
Q 56.78125 9.90625 50.3125 4.234375 
Q 43.84375 -1.421875 31.78125 -1.421875 
Q 19.734375 -1.421875 13.25 4.234375 
Q 6.78125 9.90625 6.78125 20.515625 
Q 6.78125 27.484375 10.78125 32.3125 
Q 14.796875 37.15625 21.921875 38.8125 
z
M 18.3125 54.390625 
Q 18.3125 48.734375 21.84375 45.5625 
Q 25.390625 42.390625 31.78125 42.390625 
Q 38.140625 42.390625 41.71875 45.5625 
Q 45.3125 48.734375 45.3125 54.390625 
Q 45.3125 60.0625 41.71875 63.234375 
Q 38.140625 66.40625 31.78125 66.40625 
Q 25.390625 66.40625 21.84375 63.234375 
Q 18.3125 60.0625 18.3125 54.390625 
z
" id="DejaVuSans-56"/>
       </defs>
       <use xlink:href="#DejaVuSans-48"/>
       <use x="63.623047" xlink:href="#DejaVuSans-46"/>
       <use x="95.410156" xlink:href="#DejaVuSans-56"/>
      </g>
     </g>
    </g>
    <g id="ytick_6">
     <g id="line2d_31">
      <path clip-path="url(#p0f95e278e0)" d="M 57.6 30.334099 
L 338.688 30.334099 
" style="fill:none;stroke:#b0b0b0;stroke-linecap:square;stroke-width:0.8;"/>
     </g>
     <g id="line2d_32">
      <g>
       <use style="stroke:#000000;stroke-width:0.8;" x="57.6" xlink:href="#meb61b948f7" y="30.334099"/>
      </g>
     </g>
     <g id="text_11">
      <!-- 1.0 -->
      <g transform="translate(25.155 36.412849)scale(0.16 -0.16)">
       <use xlink:href="#DejaVuSans-49"/>
       <use x="63.623047" xlink:href="#DejaVuSans-46"/>
       <use x="95.410156" xlink:href="#DejaVuSans-48"/>
      </g>
     </g>
    </g>
    <g id="text_12">
     <!-- Fraction of function,target pairs -->
     <g transform="translate(17.619531 297.681)rotate(-90)scale(0.17 -0.17)">
      <defs>
       <path d="M 9.8125 72.90625 
L 51.703125 72.90625 
L 51.703125 64.59375 
L 19.671875 64.59375 
L 19.671875 43.109375 
L 48.578125 43.109375 
L 48.578125 34.8125 
L 19.671875 34.8125 
L 19.671875 0 
L 9.8125 0 
z
" id="DejaVuSans-70"/>
       <path d="M 41.109375 46.296875 
Q 39.59375 47.171875 37.8125 47.578125 
Q 36.03125 48 33.890625 48 
Q 26.265625 48 22.1875 43.046875 
Q 18.109375 38.09375 18.109375 28.8125 
L 18.109375 0 
L 9.078125 0 
L 9.078125 54.6875 
L 18.109375 54.6875 
L 18.109375 46.1875 
Q 20.953125 51.171875 25.484375 53.578125 
Q 30.03125 56 36.53125 56 
Q 37.453125 56 38.578125 55.875 
Q 39.703125 55.765625 41.0625 55.515625 
z
" id="DejaVuSans-114"/>
       <path d="M 48.78125 52.59375 
L 48.78125 44.1875 
Q 44.96875 46.296875 41.140625 47.34375 
Q 37.3125 48.390625 33.40625 48.390625 
Q 24.65625 48.390625 19.8125 42.84375 
Q 14.984375 37.3125 14.984375 27.296875 
Q 14.984375 17.28125 19.8125 11.734375 
Q 24.65625 6.203125 33.40625 6.203125 
Q 37.3125 6.203125 41.140625 7.25 
Q 44.96875 8.296875 48.78125 10.40625 
L 48.78125 2.09375 
Q 45.015625 0.34375 40.984375 -0.53125 
Q 36.96875 -1.421875 32.421875 -1.421875 
Q 20.0625 -1.421875 12.78125 6.34375 
Q 5.515625 14.109375 5.515625 27.296875 
Q 5.515625 40.671875 12.859375 48.328125 
Q 20.21875 56 33.015625 56 
Q 37.15625 56 41.109375 55.140625 
Q 45.0625 54.296875 48.78125 52.59375 
z
" id="DejaVuSans-99"/>
       <path d="M 18.3125 70.21875 
L 18.3125 54.6875 
L 36.8125 54.6875 
L 36.8125 47.703125 
L 18.3125 47.703125 
L 18.3125 18.015625 
Q 18.3125 11.328125 20.140625 9.421875 
Q 21.96875 7.515625 27.59375 7.515625 
L 36.8125 7.515625 
L 36.8125 0 
L 27.59375 0 
Q 17.1875 0 13.234375 3.875 
Q 9.28125 7.765625 9.28125 18.015625 
L 9.28125 47.703125 
L 2.6875 47.703125 
L 2.6875 54.6875 
L 9.28125 54.6875 
L 9.28125 70.21875 
z
" id="DejaVuSans-116"/>
       <path d="M 8.5 21.578125 
L 8.5 54.6875 
L 17.484375 54.6875 
L 17.484375 21.921875 
Q 17.484375 14.15625 20.5 10.265625 
Q 23.53125 6.390625 29.59375 6.390625 
Q 36.859375 6.390625 41.078125 11.03125 
Q 45.3125 15.671875 45.3125 23.6875 
L 45.3125 54.6875 
L 54.296875 54.6875 
L 54.296875 0 
L 45.3125 0 
L 45.3125 8.40625 
Q 42.046875 3.421875 37.71875 1 
Q 33.40625 -1.421875 27.6875 -1.421875 
Q 18.265625 -1.421875 13.375 4.4375 
Q 8.5 10.296875 8.5 21.578125 
z
M 31.109375 56 
z
" id="DejaVuSans-117"/>
       <path d="M 11.71875 12.40625 
L 22.015625 12.40625 
L 22.015625 4 
L 14.015625 -11.625 
L 7.71875 -11.625 
L 11.71875 4 
z
" id="DejaVuSans-44"/>
       <path d="M 18.109375 8.203125 
L 18.109375 -20.796875 
L 9.078125 -20.796875 
L 9.078125 54.6875 
L 18.109375 54.6875 
L 18.109375 46.390625 
Q 20.953125 51.265625 25.265625 53.625 
Q 29.59375 56 35.59375 56 
Q 45.5625 56 51.78125 48.09375 
Q 58.015625 40.1875 58.015625 27.296875 
Q 58.015625 14.40625 51.78125 6.484375 
Q 45.5625 -1.421875 35.59375 -1.421875 
Q 29.59375 -1.421875 25.265625 0.953125 
Q 20.953125 3.328125 18.109375 8.203125 
z
M 48.6875 27.296875 
Q 48.6875 37.203125 44.609375 42.84375 
Q 40.53125 48.484375 33.40625 48.484375 
Q 26.265625 48.484375 22.1875 42.84375 
Q 18.109375 37.203125 18.109375 27.296875 
Q 18.109375 17.390625 22.1875 11.75 
Q 26.265625 6.109375 33.40625 6.109375 
Q 40.53125 6.109375 44.609375 11.75 
Q 48.6875 17.390625 48.6875 27.296875 
z
" id="DejaVuSans-112"/>
      </defs>
      <use xlink:href="#DejaVuSans-70"/>
      <use x="50.269531" xlink:href="#DejaVuSans-114"/>
      <use x="91.382812" xlink:href="#DejaVuSans-97"/>
      <use x="152.662109" xlink:href="#DejaVuSans-99"/>
      <use x="207.642578" xlink:href="#DejaVuSans-116"/>
      <use x="246.851562" xlink:href="#DejaVuSans-105"/>
      <use x="274.634766" xlink:href="#DejaVuSans-111"/>
      <use x="335.816406" xlink:href="#DejaVuSans-110"/>
      <use x="399.195312" xlink:href="#DejaVuSans-32"/>
      <use x="430.982422" xlink:href="#DejaVuSans-111"/>
      <use x="492.164062" xlink:href="#DejaVuSans-102"/>
      <use x="527.369141" xlink:href="#DejaVuSans-32"/>
      <use x="559.15625" xlink:href="#DejaVuSans-102"/>
      <use x="594.361328" xlink:href="#DejaVuSans-117"/>
      <use x="657.740234" xlink:href="#DejaVuSans-110"/>
      <use x="721.119141" xlink:href="#DejaVuSans-99"/>
      <use x="776.099609" xlink:href="#DejaVuSans-116"/>
      <use x="815.308594" xlink:href="#DejaVuSans-105"/>
      <use x="843.091797" xlink:href="#DejaVuSans-111"/>
      <use x="904.273438" xlink:href="#DejaVuSans-110"/>
      <use x="967.652344" xlink:href="#DejaVuSans-44"/>
      <use x="999.439453" xlink:href="#DejaVuSans-116"/>
      <use x="1038.648438" xlink:href="#DejaVuSans-97"/>
      <use x="1099.927734" xlink:href="#DejaVuSans-114"/>
      <use x="1139.291016" xlink:href="#DejaVuSans-103"/>
      <use x="1202.767578" xlink:href="#DejaVuSans-101"/>
      <use x="1264.291016" xlink:href="#DejaVuSans-116"/>
      <use x="1303.5" xlink:href="#DejaVuSans-32"/>
      <use x="1335.287109" xlink:href="#DejaVuSans-112"/>
      <use x="1398.763672" xlink:href="#DejaVuSans-97"/>
      <use x="1460.042969" xlink:href="#DejaVuSans-105"/>
      <use x="1487.826172" xlink:href="#DejaVuSans-114"/>
      <use x="1528.939453" xlink:href="#DejaVuSans-115"/>
     </g>
    </g>
   </g>
   <g id="line2d_33">
    <defs>
     <path d="M 0 1.5 
C 0.397805 1.5 0.77937 1.341951 1.06066 1.06066 
C 1.341951 0.77937 1.5 0.397805 1.5 0 
C 1.5 -0.397805 1.341951 -0.77937 1.06066 -1.06066 
C 0.77937 -1.341951 0.397805 -1.5 0 -1.5 
C -0.397805 -1.5 -0.77937 -1.341951 -1.06066 -1.06066 
C -1.341951 -0.77937 -1.5 -0.397805 -1.5 0 
C -1.5 0.397805 -1.341951 0.77937 -1.06066 1.06066 
C -0.77937 1.341951 -0.397805 1.5 0 1.5 
z
" id="maadd60031a" style="stroke:#f5deb3;"/>
    </defs>
    <g>
     <use style="fill:#f5deb3;stroke:#f5deb3;" x="284.222683" xlink:href="#maadd60031a" y="62.752535"/>
     <use style="fill:#f5deb3;stroke:#f5deb3;" x="284.222683" xlink:href="#maadd60031a" y="62.752535"/>
    </g>
   </g>
   <g id="line2d_34">
    <defs>
     <path d="M 0 1.5 
C 0.397805 1.5 0.77937 1.341951 1.06066 1.06066 
C 1.341951 0.77937 1.5 0.397805 1.5 0 
C 1.5 -0.397805 1.341951 -0.77937 1.06066 -1.06066 
C 0.77937 -1.341951 0.397805 -1.5 0 -1.5 
C -0.397805 -1.5 -0.77937 -1.341951 -1.06066 -1.06066 
C -1.341951 -0.77937 -1.5 -0.397805 -1.5 0 
C -1.5 0.397805 -1.341951 0.77937 -1.06066 1.06066 
C -0.77937 1.341951 -0.397805 1.5 0 1.5 
z
" id="mfbb6f91b72" style="stroke:#000080;"/>
    </defs>
    <g>
     <use style="fill:#000080;stroke:#000080;" x="257.789087" xlink:href="#mfbb6f91b72" y="117.400757"/>
     <use style="fill:#000080;stroke:#000080;" x="257.789087" xlink:href="#mfbb6f91b72" y="117.400757"/>
    </g>
   </g>
   <g id="line2d_35">
    <path d="M 17.444571 298.944 
L 17.444571 285.050384 
L 29.53256 285.050384 
L 29.53256 284.587264 
L 41.620548 284.587264 
L 41.620548 284.124143 
L 51.379845 284.124143 
L 51.379845 283.661023 
L 57.6 283.661023 
L 57.6 283.197902 
L 66.853775 283.197902 
L 66.853775 282.734782 
L 68.79347 282.734782 
L 68.79347 282.271661 
L 87.643811 282.271661 
L 87.643811 281.808541 
L 102.060491 281.808541 
L 102.060491 281.34542 
L 109.843417 281.34542 
L 109.843417 280.8823 
L 111.663381 280.8823 
L 111.663381 280.419179 
L 124.519744 280.419179 
L 124.519744 279.956059 
L 125.682793 279.956059 
L 125.682793 279.492938 
L 128.885774 279.492938 
L 128.885774 279.029818 
L 130.127931 279.029818 
L 130.127931 278.566697 
L 133.888106 278.566697 
L 133.888106 278.103577 
L 143.489809 278.103577 
L 143.489809 277.640456 
L 144.830078 277.640456 
L 144.830078 277.177336 
L 145.954117 277.177336 
L 145.954117 276.714215 
L 146.074653 276.714215 
L 146.074653 276.251095 
L 148.639252 276.251095 
L 148.639252 275.787974 
L 151.235715 275.787974 
L 151.235715 275.324854 
L 152.624728 275.324854 
L 152.624728 274.861733 
L 152.936949 274.861733 
L 152.936949 274.398612 
L 153.416559 274.398612 
L 153.416559 273.935492 
L 155.841748 273.935492 
L 155.841748 273.472371 
L 157.664184 273.472371 
L 157.664184 273.009251 
L 158.211713 273.009251 
L 158.211713 272.54613 
L 159.046236 272.54613 
L 159.046236 272.08301 
L 159.592935 272.08301 
L 159.592935 271.619889 
L 160.66586 271.619889 
L 160.66586 271.156769 
L 162.065021 271.156769 
L 162.065021 270.693648 
L 163.537636 270.693648 
L 163.537636 270.230528 
L 164.01643 270.230528 
L 164.01643 269.767407 
L 165.138764 269.767407 
L 165.138764 268.841166 
L 168.128195 268.841166 
L 168.128195 268.378046 
L 170.532264 268.378046 
L 170.532264 267.451805 
L 170.94112 267.451805 
L 170.94112 266.988684 
L 171.536974 266.988684 
L 171.536974 266.062443 
L 174.292142 266.062443 
L 174.385002 264.209961 
L 174.645805 264.209961 
L 174.645805 263.746841 
L 174.946617 263.746841 
L 174.946617 263.28372 
L 176.712348 263.28372 
L 176.712348 262.8206 
L 176.85687 262.8206 
L 176.85687 262.357479 
L 177.243214 262.357479 
L 177.243214 261.431238 
L 177.463036 261.431238 
L 177.463036 260.968117 
L 178.484993 260.968117 
L 178.484993 260.504997 
L 178.910506 260.504997 
L 178.910506 259.578756 
L 179.146499 259.578756 
L 179.146499 259.115635 
L 180.331426 259.115635 
L 180.331426 258.189394 
L 181.250202 258.189394 
L 181.314013 256.800033 
L 181.831732 256.800033 
L 181.90885 254.947551 
L 182.122985 254.947551 
L 182.122985 254.48443 
L 182.691294 254.48443 
L 182.691294 254.02131 
L 183.678135 254.02131 
L 183.678135 253.095069 
L 183.926644 253.095069 
L 183.926644 252.631948 
L 184.239116 252.631948 
L 184.239116 252.168828 
L 186.101847 252.168828 
L 186.101847 251.705707 
L 186.61136 251.705707 
L 186.61136 251.242587 
L 186.975066 251.242587 
L 186.975066 250.779466 
L 187.685507 250.779466 
L 187.755686 249.853225 
L 187.905123 249.853225 
L 187.905123 249.390104 
L 188.034593 249.390104 
L 188.034593 248.926984 
L 188.643199 248.926984 
L 188.750319 248.000743 
L 189.177875 248.000743 
L 189.177875 247.537622 
L 190.000129 247.537622 
L 190.000129 247.074502 
L 190.115866 247.074502 
L 190.115866 246.611381 
L 190.496198 246.611381 
L 190.496198 246.148261 
L 191.361878 246.148261 
L 191.361878 245.22202 
L 191.625123 245.22202 
L 191.625123 244.758899 
L 191.756066 244.758899 
L 191.756066 244.295779 
L 191.902606 244.295779 
L 191.902606 243.369538 
L 192.585555 243.369538 
L 192.585555 242.906417 
L 192.899758 242.906417 
L 192.899758 242.443297 
L 193.301102 242.443297 
L 193.360696 240.590815 
L 193.902849 240.590815 
L 193.902849 240.127694 
L 195.192375 240.127694 
L 195.235432 238.738333 
L 196.04576 238.738333 
L 196.04576 237.812091 
L 196.265179 237.812091 
L 196.359512 235.959609 
L 196.453945 235.959609 
L 196.513388 234.107127 
L 197.484941 234.107127 
L 197.484941 233.180886 
L 197.745293 233.180886 
L 197.745293 232.717766 
L 197.856654 232.717766 
L 197.856654 231.791525 
L 198.198084 231.791525 
L 198.237074 230.402163 
L 199.307742 230.402163 
L 199.307742 229.475922 
L 199.559217 229.475922 
L 199.559217 229.012802 
L 199.784543 229.012802 
L 199.784543 228.549681 
L 199.948415 228.549681 
L 199.948415 227.62344 
L 200.225176 227.62344 
L 200.225176 226.697199 
L 200.520727 226.697199 
L 200.520727 226.234079 
L 200.697874 226.234079 
L 200.806619 224.381596 
L 200.901042 224.381596 
L 200.901042 223.455355 
L 201.212295 223.455355 
L 201.31605 221.602873 
L 201.451611 221.602873 
L 201.451611 221.139753 
L 201.739369 221.139753 
L 201.739369 220.676632 
L 202.037461 220.676632 
L 202.037461 220.213512 
L 202.323167 220.213512 
L 202.323167 219.750391 
L 202.728516 219.750391 
L 202.728516 218.82415 
L 202.863248 218.82415 
L 202.863248 217.897909 
L 203.951505 217.897909 
L 203.951505 216.971668 
L 204.195262 216.971668 
L 204.269165 215.119186 
L 204.454486 215.119186 
L 204.454486 214.656066 
L 204.726936 214.656066 
L 204.733362 212.803583 
L 205.040186 212.803583 
L 205.101353 210.02486 
L 205.43925 210.02486 
L 205.43925 209.098619 
L 206.06593 209.098619 
L 206.06593 208.635499 
L 206.659027 208.635499 
L 206.659027 207.709258 
L 206.895674 207.709258 
L 207.002851 205.856776 
L 207.185723 205.856776 
L 207.293096 204.467414 
L 207.302558 204.467414 
L 207.302558 203.541173 
L 207.70144 203.541173 
L 207.70144 202.614932 
L 207.931995 202.614932 
L 207.966568 201.225571 
L 208.11788 201.225571 
L 208.11788 200.76245 
L 208.284548 200.76245 
L 208.284548 199.836209 
L 208.427023 199.836209 
L 208.528561 198.446847 
L 208.561366 198.446847 
L 208.61076 197.057486 
L 209.69819 197.057486 
L 209.69819 196.594365 
L 209.919396 196.594365 
L 209.998661 194.741883 
L 210.112307 194.741883 
L 210.112307 194.278763 
L 210.267921 194.278763 
L 210.267921 193.815642 
L 210.56125 193.815642 
L 210.56125 193.352522 
L 210.768363 193.352522 
L 210.768363 192.889401 
L 211.24444 192.889401 
L 211.24444 191.96316 
L 211.375341 191.96316 
L 211.375341 191.50004 
L 211.735965 191.50004 
L 211.735965 191.036919 
L 211.903625 191.036919 
L 211.909637 190.110678 
L 212.085812 190.110678 
L 212.085812 189.647558 
L 212.502283 189.647558 
L 212.502283 188.721316 
L 212.768944 188.721316 
L 212.768944 188.258196 
L 213.087158 188.258196 
L 213.087158 187.795075 
L 213.424486 187.795075 
L 213.424486 186.868834 
L 213.645346 186.868834 
L 213.732191 185.016352 
L 213.784001 185.016352 
L 213.882242 183.16387 
L 213.98438 183.16387 
L 213.98438 182.70075 
L 214.696953 182.70075 
L 214.808022 181.311388 
L 215.081595 181.311388 
L 215.085562 180.385147 
L 215.305858 180.385147 
L 215.305858 179.458906 
L 215.581532 179.458906 
L 215.654423 178.532665 
L 215.735459 178.532665 
L 215.735459 178.069545 
L 216.273893 178.069545 
L 216.322575 176.680183 
L 216.622172 176.680183 
L 216.622172 176.217062 
L 216.773285 176.217062 
L 216.773285 175.753942 
L 216.969817 175.753942 
L 217.034714 174.827701 
L 217.595703 174.827701 
L 217.67344 173.438339 
L 217.822351 173.438339 
L 217.822351 172.975219 
L 218.001643 172.975219 
L 218.001643 172.512098 
L 218.304355 172.512098 
L 218.304355 171.585857 
L 218.482735 171.585857 
L 218.588929 170.659616 
L 220.00944 170.659616 
L 220.106914 169.270255 
L 220.214427 169.270255 
L 220.262119 168.344014 
L 220.477663 168.344014 
L 220.477663 167.880893 
L 220.633415 167.880893 
L 220.633415 167.417773 
L 221.24302 167.417773 
L 221.272326 166.028411 
L 221.896567 166.028411 
L 221.97268 164.63905 
L 222.057422 164.63905 
L 222.057422 164.175929 
L 222.664249 164.175929 
L 222.689778 161.860326 
L 223.194374 161.860326 
L 223.248185 160.470965 
L 223.37297 160.470965 
L 223.37297 160.007844 
L 223.767707 160.007844 
L 223.767707 159.544724 
L 224.005763 159.544724 
L 224.005763 158.618483 
L 224.273555 158.618483 
L 224.273555 158.155362 
L 224.494873 158.155362 
L 224.599226 157.229121 
L 224.955237 157.229121 
L 224.980584 156.30288 
L 225.368604 156.30288 
L 225.368604 155.83976 
L 225.584309 155.83976 
L 225.584309 154.913519 
L 225.708377 154.913519 
L 225.708377 154.450398 
L 226.798918 154.450398 
L 226.798918 153.987278 
L 227.56951 153.987278 
L 227.56951 153.524157 
L 227.765128 153.524157 
L 227.765128 153.061037 
L 228.024008 153.061037 
L 228.024008 152.597916 
L 228.141904 152.597916 
L 228.141904 152.134795 
L 228.30788 152.134795 
L 228.30788 151.671675 
L 228.491657 151.671675 
L 228.491657 151.208554 
L 229.019352 151.208554 
L 229.019352 150.745434 
L 229.369599 150.745434 
L 229.369599 149.819193 
L 229.736846 149.819193 
L 229.736846 149.356072 
L 230.032051 149.356072 
L 230.032051 148.429831 
L 230.162594 148.429831 
L 230.162594 147.50359 
L 230.607194 147.50359 
L 230.607194 147.04047 
L 231.072151 147.04047 
L 231.072151 146.577349 
L 231.250935 146.577349 
L 231.250935 146.114229 
L 231.818259 146.114229 
L 231.818259 145.651108 
L 232.030879 145.651108 
L 232.030879 145.187988 
L 233.010507 145.187988 
L 233.069856 144.261747 
L 233.318612 144.261747 
L 233.318612 143.798626 
L 233.474575 143.798626 
L 233.474575 142.872385 
L 233.978198 142.872385 
L 233.978198 142.409265 
L 234.221523 142.409265 
L 234.221523 141.483024 
L 234.335072 141.483024 
L 234.438256 140.556783 
L 234.727347 140.556783 
L 234.738376 139.630541 
L 235.01299 139.630541 
L 235.01299 138.7043 
L 235.352702 138.7043 
L 235.352702 138.24118 
L 237.254823 138.24118 
L 237.254823 137.778059 
L 237.451962 137.778059 
L 237.451962 137.314939 
L 237.710501 137.314939 
L 237.710501 136.851818 
L 238.059784 136.851818 
L 238.059784 136.388698 
L 238.420785 136.388698 
L 238.420785 135.462457 
L 238.730509 135.462457 
L 238.730509 134.999336 
L 238.922169 134.999336 
L 238.922169 134.073095 
L 239.379553 134.073095 
L 239.379553 133.609975 
L 240.098621 133.609975 
L 240.098621 133.146854 
L 240.399242 133.146854 
L 240.399242 132.220613 
L 240.765146 132.220613 
L 240.84973 131.294372 
L 241.034091 131.294372 
L 241.034091 130.831252 
L 241.678699 130.831252 
L 241.678699 129.905011 
L 242.316716 129.905011 
L 242.316716 129.44189 
L 242.59033 129.44189 
L 242.606837 128.052529 
L 243.228698 128.052529 
L 243.228698 127.126287 
L 244.012881 127.126287 
L 244.012881 126.663167 
L 245.613361 126.663167 
L 245.613361 126.200046 
L 245.91707 126.200046 
L 245.91707 125.736926 
L 246.785869 125.736926 
L 246.890169 124.810685 
L 246.940708 124.810685 
L 246.940708 124.347564 
L 247.289554 124.347564 
L 247.289554 123.884444 
L 248.728837 123.884444 
L 248.745296 122.495082 
L 249.611188 122.495082 
L 249.611188 122.031962 
L 251.171207 122.031962 
L 251.237303 121.105721 
L 252.055421 121.105721 
L 252.055421 120.6426 
L 254.794525 120.6426 
L 254.794525 120.17948 
L 255.149401 120.17948 
L 255.149401 119.716359 
L 255.364177 119.716359 
L 255.364177 118.790118 
L 256.662112 118.790118 
L 256.662112 118.326998 
L 257.195612 118.326998 
L 257.195612 117.863877 
L 257.789087 117.863877 
L 257.789087 117.400757 
L 338.688 117.400757 
L 338.688 117.400757 
" style="fill:none;stroke:#000080;stroke-linecap:square;stroke-width:1.5;"/>
   </g>
   <g id="line2d_36">
    <defs>
     <path d="M 0 6 
C 1.591219 6 3.117479 5.367802 4.242641 4.242641 
C 5.367802 3.117479 6 1.591219 6 0 
C 6 -1.591219 5.367802 -3.117479 4.242641 -4.242641 
C 3.117479 -5.367802 1.591219 -6 0 -6 
C -1.591219 -6 -3.117479 -5.367802 -4.242641 -4.242641 
C -5.367802 -3.117479 -6 -1.591219 -6 0 
C -6 1.591219 -5.367802 3.117479 -4.242641 4.242641 
C -3.117479 5.367802 -1.591219 6 0 6 
z
" id="mf7bfa1f32a" style="stroke:#000080;stroke-width:1.5;"/>
    </defs>
    <g>
     <use style="fill-opacity:0;stroke:#000080;stroke-width:1.5;" x="109.843417" xlink:href="#mf7bfa1f32a" y="281.34542"/>
     <use style="fill-opacity:0;stroke:#000080;stroke-width:1.5;" x="193.301102" xlink:href="#mf7bfa1f32a" y="241.517056"/>
     <use style="fill-opacity:0;stroke:#000080;stroke-width:1.5;" x="233.978198" xlink:href="#mf7bfa1f32a" y="142.409265"/>
     <use style="fill-opacity:0;stroke:#000080;stroke-width:1.5;" x="257.789087" xlink:href="#mf7bfa1f32a" y="117.400757"/>
     <use style="fill-opacity:0;stroke:#000080;stroke-width:1.5;" x="257.789087" xlink:href="#mf7bfa1f32a" y="117.400757"/>
     <use style="fill-opacity:0;stroke:#000080;stroke-width:1.5;" x="338.688" xlink:href="#mf7bfa1f32a" y="117.400757"/>
    </g>
   </g>
   <g id="line2d_37">
    <path style="fill:none;stroke:#000080;stroke-linecap:square;stroke-width:1.5;"/>
    <g/>
   </g>
   <g id="line2d_38">
    <path clip-path="url(#p0f95e278e0)" d="M 258.37716 117.400757 
" style="fill:none;stroke:#000080;stroke-linecap:square;stroke-width:1.5;"/>
    <defs>
     <path d="M -12 12 
L 12 -12 
M -12 -12 
L 12 12 
" id="m677ceb6248" style="stroke:#000080;"/>
    </defs>
    <g clip-path="url(#p0f95e278e0)">
     <use style="fill:#000080;stroke:#000080;" x="258.37716" xlink:href="#m677ceb6248" y="117.400757"/>
    </g>
   </g>
   <g id="line2d_39">
    <defs>
     <path d="M 0 1.5 
C 0.397805 1.5 0.77937 1.341951 1.06066 1.06066 
C 1.341951 0.77937 1.5 0.397805 1.5 0 
C 1.5 -0.397805 1.341951 -0.77937 1.06066 -1.06066 
C 0.77937 -1.341951 0.397805 -1.5 0 -1.5 
C -0.397805 -1.5 -0.77937 -1.341951 -1.06066 -1.06066 
C -1.341951 -0.77937 -1.5 -0.397805 -1.5 0 
C -1.5 0.397805 -1.341951 0.77937 -1.06066 1.06066 
C -0.77937 1.341951 -0.397805 1.5 0 1.5 
z
" id="m654ec21459" style="stroke:#ff00ff;"/>
    </defs>
    <g>
     <use style="fill:#ff00ff;stroke:#ff00ff;" x="257.040441" xlink:href="#m654ec21459" y="202.614932"/>
     <use style="fill:#ff00ff;stroke:#ff00ff;" x="257.040441" xlink:href="#m654ec21459" y="202.614932"/>
    </g>
   </g>
   <g id="line2d_40">
    <path d="M 17.444571 298.944 
L 17.444571 287.365987 
L 121.800118 287.365987 
L 121.800118 286.902867 
L 125.327602 286.902867 
L 125.327602 286.439746 
L 125.717918 286.439746 
L 125.717918 285.976625 
L 132.230358 285.976625 
L 132.230358 285.513505 
L 133.19358 285.513505 
L 133.19358 285.050384 
L 133.443203 285.050384 
L 133.443203 284.587264 
L 134.640379 284.587264 
L 134.661403 283.661023 
L 136.246972 283.661023 
L 136.246972 283.197902 
L 136.380754 283.197902 
L 136.380754 282.734782 
L 136.79465 282.734782 
L 136.79465 282.271661 
L 137.162581 282.271661 
L 137.162581 281.808541 
L 137.963097 281.808541 
L 137.980475 280.8823 
L 138.324456 280.8823 
L 138.324456 280.419179 
L 138.477062 280.419179 
L 138.477062 279.956059 
L 138.661784 279.956059 
L 138.661784 279.492938 
L 138.84457 279.492938 
L 138.84457 279.029818 
L 138.976312 279.029818 
L 138.976312 278.566697 
L 139.155847 278.566697 
L 139.155847 278.103577 
L 139.730821 278.103577 
L 139.730821 277.640456 
L 139.856059 277.640456 
L 139.856059 277.177336 
L 140.103868 277.177336 
L 140.165274 276.251095 
L 140.633978 276.251095 
L 140.708409 274.861733 
L 141.46423 274.861733 
L 141.521035 273.935492 
L 142.092866 273.935492 
L 142.20229 273.009251 
L 142.646541 273.009251 
L 142.646541 272.54613 
L 142.805321 272.54613 
L 142.805321 272.08301 
L 142.949611 272.08301 
L 142.949611 271.619889 
L 143.105668 271.619889 
L 143.105668 271.156769 
L 144.269971 271.156769 
L 144.269971 270.230528 
L 144.665111 270.230528 
L 144.665111 269.767407 
L 145.292992 269.767407 
L 145.350002 268.378046 
L 145.643486 268.378046 
L 145.643486 267.914925 
L 146.302479 267.914925 
L 146.302479 267.451805 
L 147.509976 267.451805 
L 147.509976 266.525564 
L 147.660186 266.525564 
L 147.660186 265.599323 
L 148.516274 265.599323 
L 148.516274 264.673082 
L 149.177602 264.673082 
L 149.177602 263.746841 
L 150.129152 263.746841 
L 150.18963 262.8206 
L 150.437972 262.8206 
L 150.437972 262.357479 
L 151.170613 262.357479 
L 151.170613 261.894358 
L 152.959038 261.894358 
L 152.959038 261.431238 
L 154.208275 261.431238 
L 154.208275 260.968117 
L 157.792929 260.968117 
L 157.792929 260.504997 
L 158.151718 260.504997 
L 158.151718 260.041876 
L 159.149734 260.041876 
L 159.149734 259.578756 
L 160.034962 259.578756 
L 160.034962 259.115635 
L 161.716709 259.115635 
L 161.716709 258.652515 
L 165.157053 258.652515 
L 165.157053 257.726274 
L 165.615296 257.726274 
L 165.615296 257.263153 
L 170.080543 257.263153 
L 170.080543 256.800033 
L 172.157246 256.800033 
L 172.157246 255.873792 
L 173.033033 255.873792 
L 173.033033 254.947551 
L 175.019459 254.947551 
L 175.102335 254.02131 
L 175.180705 254.02131 
L 175.180705 253.558189 
L 180.50515 253.558189 
L 180.50515 252.631948 
L 181.082312 252.631948 
L 181.082312 252.168828 
L 182.292147 252.168828 
L 182.292147 251.705707 
L 183.194943 251.705707 
L 183.194943 251.242587 
L 185.13498 251.242587 
L 185.13498 250.779466 
L 187.569598 250.779466 
L 187.569598 250.316346 
L 188.507647 250.316346 
L 188.507647 249.390104 
L 188.966341 249.390104 
L 189.038997 248.463863 
L 189.526636 248.463863 
L 189.526636 248.000743 
L 189.787712 248.000743 
L 189.849934 247.074502 
L 190.274192 247.074502 
L 190.274192 246.611381 
L 191.609889 246.611381 
L 191.693911 245.68514 
L 192.294919 245.68514 
L 192.294919 244.758899 
L 193.107106 244.758899 
L 193.107106 244.295779 
L 194.310194 244.295779 
L 194.310194 243.832658 
L 195.61887 243.832658 
L 195.61887 242.906417 
L 197.342903 242.906417 
L 197.448822 241.053935 
L 198.703088 241.053935 
L 198.768656 239.664574 
L 200.00055 239.664574 
L 200.00055 238.738333 
L 200.495686 238.738333 
L 200.495686 237.812091 
L 201.208132 237.812091 
L 201.208132 236.88585 
L 203.337223 236.88585 
L 203.337223 235.959609 
L 203.573505 235.959609 
L 203.573505 235.496489 
L 204.118695 235.496489 
L 204.118695 234.570248 
L 204.417964 234.570248 
L 204.417964 234.107127 
L 204.731094 234.107127 
L 204.731094 233.644007 
L 205.140535 233.644007 
L 205.140535 232.717766 
L 206.618707 232.717766 
L 206.618707 231.791525 
L 206.795223 231.791525 
L 206.795223 230.865284 
L 207.071405 230.865284 
L 207.071405 229.939043 
L 207.660905 229.939043 
L 207.660905 229.475922 
L 207.826913 229.475922 
L 207.826913 228.549681 
L 210.250852 228.549681 
L 210.250852 228.086561 
L 211.798334 228.086561 
L 211.798334 227.16032 
L 212.08234 227.16032 
L 212.08234 226.697199 
L 212.201952 226.697199 
L 212.201952 226.234079 
L 212.472482 226.234079 
L 212.472482 225.770958 
L 213.523625 225.770958 
L 213.524995 224.844717 
L 214.415495 224.844717 
L 214.415495 223.918476 
L 217.910985 223.918476 
L 217.910985 222.992235 
L 221.601972 222.992235 
L 221.601972 222.065994 
L 223.022276 222.065994 
L 223.022276 221.139753 
L 223.325402 221.139753 
L 223.325402 220.676632 
L 224.366491 220.676632 
L 224.366491 220.213512 
L 224.650325 220.213512 
L 224.650325 219.287271 
L 225.467757 219.287271 
L 225.467757 218.36103 
L 225.82875 218.36103 
L 225.82875 217.434789 
L 227.860313 217.434789 
L 227.860313 216.508548 
L 231.770852 216.508548 
L 231.770852 215.582307 
L 232.027086 215.582307 
L 232.027086 215.119186 
L 232.793544 215.119186 
L 232.793544 214.192945 
L 233.838592 214.192945 
L 233.838592 213.266704 
L 234.58422 213.266704 
L 234.58422 212.340463 
L 235.530194 212.340463 
L 235.587241 210.487981 
L 238.995714 210.487981 
L 238.995714 210.02486 
L 241.425211 210.02486 
L 241.425211 209.098619 
L 243.112081 209.098619 
L 243.112081 208.172378 
L 248.103555 208.172378 
L 248.103555 207.709258 
L 248.318044 207.709258 
L 248.318044 207.246137 
L 250.211311 207.246137 
L 250.211311 206.783017 
L 253.39091 206.783017 
L 253.39091 205.856776 
L 255.251634 205.856776 
L 255.251634 204.930535 
L 255.799746 204.930535 
L 255.799746 204.467414 
L 256.099916 204.467414 
L 256.099916 204.004294 
L 256.928107 204.004294 
L 256.928107 203.078053 
L 257.040441 203.078053 
L 257.040441 202.614932 
L 338.688 202.614932 
L 338.688 202.614932 
" style="fill:none;stroke:#ff00ff;stroke-linecap:square;stroke-width:1.5;"/>
   </g>
   <g id="line2d_41">
    <defs>
     <path d="M 0 8.485281 
L 5.091169 0 
L 0 -8.485281 
L -5.091169 0 
z
" id="m7f1699e631" style="stroke:#ff00ff;stroke-linejoin:miter;stroke-width:1.5;"/>
    </defs>
    <g>
     <use style="fill-opacity:0;stroke:#ff00ff;stroke-linejoin:miter;stroke-width:1.5;" x="132.230358" xlink:href="#m7f1699e631" y="285.513505"/>
     <use style="fill-opacity:0;stroke:#ff00ff;stroke-linejoin:miter;stroke-width:1.5;" x="193.107106" xlink:href="#m7f1699e631" y="244.295779"/>
     <use style="fill-opacity:0;stroke:#ff00ff;stroke-linejoin:miter;stroke-width:1.5;" x="257.040441" xlink:href="#m7f1699e631" y="203.078053"/>
     <use style="fill-opacity:0;stroke:#ff00ff;stroke-linejoin:miter;stroke-width:1.5;" x="257.040441" xlink:href="#m7f1699e631" y="202.614932"/>
     <use style="fill-opacity:0;stroke:#ff00ff;stroke-linejoin:miter;stroke-width:1.5;" x="257.040441" xlink:href="#m7f1699e631" y="202.614932"/>
     <use style="fill-opacity:0;stroke:#ff00ff;stroke-linejoin:miter;stroke-width:1.5;" x="338.688" xlink:href="#m7f1699e631" y="202.614932"/>
    </g>
   </g>
   <g id="line2d_42">
    <path style="fill:none;stroke:#ff00ff;stroke-linecap:square;stroke-width:1.5;"/>
    <g/>
   </g>
   <g id="line2d_43">
    <path clip-path="url(#p0f95e278e0)" d="M 258.379358 202.614932 
" style="fill:none;stroke:#ff00ff;stroke-linecap:square;stroke-width:1.5;"/>
    <defs>
     <path d="M -12 12 
L 12 -12 
M -12 -12 
L 12 12 
" id="m67e2c5712d" style="stroke:#ff00ff;"/>
    </defs>
    <g clip-path="url(#p0f95e278e0)">
     <use style="fill:#ff00ff;stroke:#ff00ff;" x="258.379358" xlink:href="#m67e2c5712d" y="202.614932"/>
    </g>
   </g>
   <g id="line2d_44">
    <defs>
     <path d="M 0 1.5 
C 0.397805 1.5 0.77937 1.341951 1.06066 1.06066 
C 1.341951 0.77937 1.5 0.397805 1.5 0 
C 1.5 -0.397805 1.341951 -0.77937 1.06066 -1.06066 
C 0.77937 -1.341951 0.397805 -1.5 0 -1.5 
C -0.397805 -1.5 -0.77937 -1.341951 -1.06066 -1.06066 
C -1.341951 -0.77937 -1.5 -0.397805 -1.5 0 
C -1.5 0.397805 -1.341951 0.77937 -1.06066 1.06066 
C -0.77937 1.341951 -0.397805 1.5 0 1.5 
z
" id="mc35fffb328" style="stroke:#ff7500;"/>
    </defs>
    <g>
     <use style="fill:#ff7500;stroke:#ff7500;" x="247.567465" xlink:href="#mc35fffb328" y="190.573799"/>
     <use style="fill:#ff7500;stroke:#ff7500;" x="247.567465" xlink:href="#mc35fffb328" y="190.573799"/>
    </g>
   </g>
   <g id="line2d_45">
    <path d="M 149.928949 298.944 
L 149.928949 298.480879 
L 151.203194 298.480879 
L 151.203194 298.017759 
L 151.340991 298.017759 
L 151.340991 297.554638 
L 152.045145 297.554638 
L 152.045145 297.091518 
L 152.496747 297.091518 
L 152.496747 296.628397 
L 152.788969 296.628397 
L 152.788969 295.702156 
L 153.061751 295.702156 
L 153.098289 294.312795 
L 153.387864 294.312795 
L 153.387864 293.849674 
L 153.523746 293.849674 
L 153.59484 292.923433 
L 153.67271 292.923433 
L 153.67271 292.460313 
L 153.84141 292.460313 
L 153.911223 291.534072 
L 154.09144 291.534072 
L 154.09144 290.607831 
L 154.554156 290.607831 
L 154.554156 290.14471 
L 154.991819 290.14471 
L 154.991819 289.68159 
L 155.697699 289.68159 
L 155.697699 289.218469 
L 155.996986 289.218469 
L 156.052535 287.365987 
L 156.212023 287.365987 
L 156.212023 286.902867 
L 156.586556 286.902867 
L 156.586556 285.976625 
L 156.782672 285.976625 
L 156.782672 285.513505 
L 156.906335 285.513505 
L 156.947361 284.587264 
L 157.15106 284.587264 
L 157.191515 283.197902 
L 157.420907 283.197902 
L 157.420907 282.734782 
L 157.964965 282.734782 
L 158.058592 281.34542 
L 158.217157 281.34542 
L 158.309442 279.956059 
L 158.358103 279.956059 
L 158.358103 279.492938 
L 158.530025 279.492938 
L 158.583406 277.640456 
L 159.07735 277.640456 
L 159.07735 277.177336 
L 159.196108 277.177336 
L 159.196108 276.714215 
L 159.410906 276.714215 
L 159.502158 275.787974 
L 159.728221 275.787974 
L 159.728221 275.324854 
L 159.852557 275.324854 
L 159.852557 274.861733 
L 160.069258 274.861733 
L 160.162007 273.935492 
L 160.292966 273.935492 
L 160.312284 273.009251 
L 160.609008 273.009251 
L 160.623238 272.08301 
L 161.026314 272.08301 
L 161.095674 271.156769 
L 161.279295 271.156769 
L 161.379469 269.304287 
L 161.519653 269.304287 
L 161.618459 267.914925 
L 161.658719 267.914925 
L 161.658719 267.451805 
L 161.990653 267.451805 
L 161.990653 266.525564 
L 162.139074 266.525564 
L 162.208484 265.599323 
L 162.256044 265.599323 
L 162.316387 264.209961 
L 162.572663 264.209961 
L 162.648818 261.894358 
L 162.712026 261.894358 
L 162.800135 260.968117 
L 162.837761 260.968117 
L 162.837761 260.504997 
L 163.201437 260.504997 
L 163.295251 259.115635 
L 163.36427 259.115635 
L 163.372371 257.726274 
L 163.601707 257.726274 
L 163.609699 256.800033 
L 163.733114 256.800033 
L 163.733114 256.336912 
L 163.867476 256.336912 
L 163.879282 255.410671 
L 164.140886 255.410671 
L 164.218222 254.02131 
L 164.302897 254.02131 
L 164.302897 253.558189 
L 164.440577 253.558189 
L 164.543127 252.168828 
L 164.77262 252.168828 
L 164.873242 250.316346 
L 164.976981 250.316346 
L 164.976981 249.853225 
L 165.59035 249.853225 
L 165.59035 249.390104 
L 165.806549 249.390104 
L 165.806549 248.463863 
L 165.992243 248.463863 
L 166.058334 247.537622 
L 166.210432 247.537622 
L 166.24825 246.611381 
L 166.344146 246.611381 
L 166.344146 246.148261 
L 166.551253 246.148261 
L 166.551253 245.22202 
L 166.779265 245.22202 
L 166.779265 244.758899 
L 166.948338 244.758899 
L 166.968122 242.906417 
L 167.317213 242.906417 
L 167.397779 241.980176 
L 168.436863 241.980176 
L 168.521475 240.590815 
L 168.566635 240.590815 
L 168.638649 238.275212 
L 168.92082 238.275212 
L 168.92082 237.348971 
L 169.052903 237.348971 
L 169.146224 234.570248 
L 169.611146 234.570248 
L 169.611146 234.107127 
L 169.894855 234.107127 
L 169.931039 232.717766 
L 170.448791 232.717766 
L 170.448791 232.254645 
L 171.154974 232.254645 
L 171.154974 231.328404 
L 171.501435 231.328404 
L 171.531901 228.549681 
L 171.856094 228.549681 
L 171.856094 228.086561 
L 172.091045 228.086561 
L 172.091045 227.16032 
L 172.489341 227.16032 
L 172.491742 226.234079 
L 172.956059 226.234079 
L 172.956059 225.307837 
L 173.206721 225.307837 
L 173.250449 223.918476 
L 173.335289 223.918476 
L 173.335289 222.992235 
L 173.476535 222.992235 
L 173.476535 222.065994 
L 174.460223 222.065994 
L 174.460223 221.139753 
L 174.804221 221.139753 
L 174.875564 220.213512 
L 174.996598 220.213512 
L 174.996598 219.287271 
L 175.254626 219.287271 
L 175.320072 217.434789 
L 175.643668 217.434789 
L 175.643668 216.971668 
L 176.012452 216.971668 
L 176.012452 216.045427 
L 176.192019 216.045427 
L 176.192019 215.119186 
L 176.311997 215.119186 
L 176.311997 214.656066 
L 177.050188 214.656066 
L 177.050188 213.729825 
L 178.048838 213.729825 
L 178.048838 213.266704 
L 178.527505 213.266704 
L 178.527505 212.340463 
L 178.777076 212.340463 
L 178.777076 211.414222 
L 179.074226 211.414222 
L 179.151416 209.56174 
L 179.203777 209.56174 
L 179.203777 208.635499 
L 179.403586 208.635499 
L 179.403586 207.709258 
L 180.789406 207.709258 
L 180.859381 205.393655 
L 181.196361 205.393655 
L 181.235667 204.004294 
L 182.175422 204.004294 
L 182.175422 203.541173 
L 182.312664 203.541173 
L 182.312664 202.614932 
L 182.859032 202.614932 
L 182.859032 202.151812 
L 183.253327 202.151812 
L 183.253327 201.688691 
L 183.50792 201.688691 
L 183.617353 200.76245 
L 183.697086 200.76245 
L 183.697086 199.836209 
L 184.350152 199.836209 
L 184.350152 198.909968 
L 186.725304 198.909968 
L 186.725304 198.446847 
L 186.981343 198.446847 
L 186.981343 197.983727 
L 187.1116 197.983727 
L 187.1116 197.520606 
L 187.897186 197.520606 
L 187.897186 197.057486 
L 189.617693 197.057486 
L 189.617693 196.594365 
L 190.016836 196.594365 
L 190.016836 196.131245 
L 193.451872 196.131245 
L 193.451872 195.205004 
L 193.637093 195.205004 
L 193.637093 194.741883 
L 195.282282 194.741883 
L 195.282282 194.278763 
L 198.009042 194.278763 
L 198.009042 193.815642 
L 198.963894 193.815642 
L 198.963894 193.352522 
L 230.813246 193.352522 
L 230.813246 192.426281 
L 247.044156 192.426281 
L 247.103043 191.036919 
L 247.567465 191.036919 
L 247.567465 190.573799 
L 338.688 190.573799 
L 338.688 190.573799 
" style="fill:none;stroke:#ff7500;stroke-linecap:square;stroke-width:1.5;"/>
   </g>
   <g id="line2d_46">
    <defs>
     <path d="M 0 -6 
L -1.347084 -1.854102 
L -5.706339 -1.854102 
L -2.179628 0.708204 
L -3.526712 4.854102 
L -0 2.291796 
L 3.526712 4.854102 
L 2.179628 0.708204 
L 5.706339 -1.854102 
L 1.347084 -1.854102 
z
" id="m6a2d40fc02" style="stroke:#ff7500;stroke-linejoin:bevel;stroke-width:1.5;"/>
    </defs>
    <g>
     <use style="fill-opacity:0;stroke:#ff7500;stroke-linejoin:bevel;stroke-width:1.5;" x="173.476535" xlink:href="#m6a2d40fc02" y="222.065994"/>
     <use style="fill-opacity:0;stroke:#ff7500;stroke-linejoin:bevel;stroke-width:1.5;" x="198.963894" xlink:href="#m6a2d40fc02" y="193.815642"/>
     <use style="fill-opacity:0;stroke:#ff7500;stroke-linejoin:bevel;stroke-width:1.5;" x="247.567465" xlink:href="#m6a2d40fc02" y="191.036919"/>
     <use style="fill-opacity:0;stroke:#ff7500;stroke-linejoin:bevel;stroke-width:1.5;" x="247.567465" xlink:href="#m6a2d40fc02" y="190.573799"/>
     <use style="fill-opacity:0;stroke:#ff7500;stroke-linejoin:bevel;stroke-width:1.5;" x="338.688" xlink:href="#m6a2d40fc02" y="190.573799"/>
    </g>
   </g>
   <g id="line2d_47">
    <path style="fill:none;stroke:#ff7500;stroke-linecap:square;stroke-width:1.5;"/>
    <g/>
   </g>
   <g id="line2d_48">
    <path clip-path="url(#p0f95e278e0)" d="M 258.37716 190.573799 
" style="fill:none;stroke:#ff7500;stroke-linecap:square;stroke-width:1.5;"/>
    <defs>
     <path d="M -12 12 
L 12 -12 
M -12 -12 
L 12 12 
" id="me861fe738d" style="stroke:#ff7500;"/>
    </defs>
    <g clip-path="url(#p0f95e278e0)">
     <use style="fill:#ff7500;stroke:#ff7500;" x="258.37716" xlink:href="#me861fe738d" y="190.573799"/>
    </g>
   </g>
   <g id="line2d_49">
    <path d="M 338.688 202.614932 
L 369.60768 293.571802 
" style="fill:none;stroke:#ff00ff;stroke-linecap:square;stroke-width:1.5;"/>
    <g>
     <use style="fill-opacity:0;stroke:#ff00ff;stroke-linejoin:miter;stroke-width:1.5;" x="338.688" xlink:href="#m7f1699e631" y="202.614932"/>
     <use style="fill-opacity:0;stroke:#ff00ff;stroke-linejoin:miter;stroke-width:1.5;" x="369.60768" xlink:href="#m7f1699e631" y="293.571802"/>
    </g>
   </g>
   <g id="line2d_50">
    <path d="M 338.688 190.573799 
L 369.60768 207.616634 
" style="fill:none;stroke:#ff7500;stroke-linecap:square;stroke-width:1.5;"/>
    <g>
     <use style="fill-opacity:0;stroke:#ff7500;stroke-linejoin:bevel;stroke-width:1.5;" x="338.688" xlink:href="#m6a2d40fc02" y="190.573799"/>
     <use style="fill-opacity:0;stroke:#ff7500;stroke-linejoin:bevel;stroke-width:1.5;" x="369.60768" xlink:href="#m6a2d40fc02" y="207.616634"/>
    </g>
   </g>
   <g id="line2d_51">
    <path d="M 338.688 117.400757 
L 369.60768 121.661465 
" style="fill:none;stroke:#000080;stroke-linecap:square;stroke-width:1.5;"/>
    <g>
     <use style="fill-opacity:0;stroke:#000080;stroke-width:1.5;" x="338.688" xlink:href="#mf7bfa1f32a" y="117.400757"/>
     <use style="fill-opacity:0;stroke:#000080;stroke-width:1.5;" x="369.60768" xlink:href="#mf7bfa1f32a" y="121.661465"/>
    </g>
   </g>
   <g id="line2d_52">
    <path d="M 338.688 298.944 
L 338.688 30.334099 
" style="fill:none;stroke:#000000;stroke-linecap:square;stroke-width:1.5;"/>
   </g>
   <g id="patch_3">
    <path d="M 57.6 298.944 
L 57.6 27.648 
" style="fill:none;stroke:#000000;stroke-linecap:square;stroke-linejoin:miter;stroke-width:0.8;"/>
   </g>
   <g id="patch_4">
    <path d="M 338.688 298.944 
L 338.688 27.648 
" style="fill:none;stroke:#000000;stroke-linecap:square;stroke-linejoin:miter;stroke-width:0.8;"/>
   </g>
   <g id="patch_5">
    <path d="M 57.6 298.944 
L 338.688 298.944 
" style="fill:none;stroke:#000000;stroke-linecap:square;stroke-linejoin:miter;stroke-width:0.8;"/>
   </g>
   <g id="patch_6">
    <path d="M 57.6 27.648 
L 338.688 27.648 
" style="fill:none;stroke:#000000;stroke-linecap:square;stroke-linejoin:miter;stroke-width:0.8;"/>
   </g>
   <g id="text_13">
    <!-- NSGA-II-M -->
    <g transform="translate(375.22944 298.262739)scale(0.17 -0.17)">
     <defs>
      <path d="M 9.8125 72.90625 
L 23.09375 72.90625 
L 55.421875 11.921875 
L 55.421875 72.90625 
L 64.984375 72.90625 
L 64.984375 0 
L 51.703125 0 
L 19.390625 60.984375 
L 19.390625 0 
L 9.8125 0 
z
" id="DejaVuSans-78"/>
      <path d="M 53.515625 70.515625 
L 53.515625 60.890625 
Q 47.90625 63.578125 42.921875 64.890625 
Q 37.9375 66.21875 33.296875 66.21875 
Q 25.25 66.21875 20.875 63.09375 
Q 16.5 59.96875 16.5 54.203125 
Q 16.5 49.359375 19.40625 46.890625 
Q 22.3125 44.4375 30.421875 42.921875 
L 36.375 41.703125 
Q 47.40625 39.59375 52.65625 34.296875 
Q 57.90625 29 57.90625 20.125 
Q 57.90625 9.515625 50.796875 4.046875 
Q 43.703125 -1.421875 29.984375 -1.421875 
Q 24.8125 -1.421875 18.96875 -0.25 
Q 13.140625 0.921875 6.890625 3.21875 
L 6.890625 13.375 
Q 12.890625 10.015625 18.65625 8.296875 
Q 24.421875 6.59375 29.984375 6.59375 
Q 38.421875 6.59375 43.015625 9.90625 
Q 47.609375 13.234375 47.609375 19.390625 
Q 47.609375 24.75 44.3125 27.78125 
Q 41.015625 30.8125 33.5 32.328125 
L 27.484375 33.5 
Q 16.453125 35.6875 11.515625 40.375 
Q 6.59375 45.0625 6.59375 53.421875 
Q 6.59375 63.09375 13.40625 68.65625 
Q 20.21875 74.21875 32.171875 74.21875 
Q 37.3125 74.21875 42.625 73.28125 
Q 47.953125 72.359375 53.515625 70.515625 
z
" id="DejaVuSans-83"/>
      <path d="M 59.515625 10.40625 
L 59.515625 29.984375 
L 43.40625 29.984375 
L 43.40625 38.09375 
L 69.28125 38.09375 
L 69.28125 6.78125 
Q 63.578125 2.734375 56.6875 0.65625 
Q 49.8125 -1.421875 42 -1.421875 
Q 24.90625 -1.421875 15.25 8.5625 
Q 5.609375 18.5625 5.609375 36.375 
Q 5.609375 54.25 15.25 64.234375 
Q 24.90625 74.21875 42 74.21875 
Q 49.125 74.21875 55.546875 72.453125 
Q 61.96875 70.703125 67.390625 67.28125 
L 67.390625 56.78125 
Q 61.921875 61.421875 55.765625 63.765625 
Q 49.609375 66.109375 42.828125 66.109375 
Q 29.4375 66.109375 22.71875 58.640625 
Q 16.015625 51.171875 16.015625 36.375 
Q 16.015625 21.625 22.71875 14.15625 
Q 29.4375 6.6875 42.828125 6.6875 
Q 48.046875 6.6875 52.140625 7.59375 
Q 56.25 8.5 59.515625 10.40625 
z
" id="DejaVuSans-71"/>
      <path d="M 34.1875 63.1875 
L 20.796875 26.90625 
L 47.609375 26.90625 
z
M 28.609375 72.90625 
L 39.796875 72.90625 
L 67.578125 0 
L 57.328125 0 
L 50.6875 18.703125 
L 17.828125 18.703125 
L 11.1875 0 
L 0.78125 0 
z
" id="DejaVuSans-65"/>
      <path d="M 9.8125 72.90625 
L 19.671875 72.90625 
L 19.671875 0 
L 9.8125 0 
z
" id="DejaVuSans-73"/>
      <path d="M 9.8125 72.90625 
L 24.515625 72.90625 
L 43.109375 23.296875 
L 61.8125 72.90625 
L 76.515625 72.90625 
L 76.515625 0 
L 66.890625 0 
L 66.890625 64.015625 
L 48.09375 14.015625 
L 38.1875 14.015625 
L 19.390625 64.015625 
L 19.390625 0 
L 9.8125 0 
z
" id="DejaVuSans-77"/>
     </defs>
     <use xlink:href="#DejaVuSans-78"/>
     <use x="74.804688" xlink:href="#DejaVuSans-83"/>
     <use x="138.28125" xlink:href="#DejaVuSans-71"/>
     <use x="215.771484" xlink:href="#DejaVuSans-65"/>
     <use x="281.929688" xlink:href="#DejaVuSans-45"/>
     <use x="318.013672" xlink:href="#DejaVuSans-73"/>
     <use x="347.505859" xlink:href="#DejaVuSans-73"/>
     <use x="376.998047" xlink:href="#DejaVuSans-45"/>
     <use x="413.082031" xlink:href="#DejaVuSans-77"/>
    </g>
   </g>
   <g id="text_14">
    <!-- SMS-EMOA- -->
    <g transform="translate(375.22944 212.307571)scale(0.17 -0.17)">
     <defs>
      <path d="M 9.8125 72.90625 
L 55.90625 72.90625 
L 55.90625 64.59375 
L 19.671875 64.59375 
L 19.671875 43.015625 
L 54.390625 43.015625 
L 54.390625 34.71875 
L 19.671875 34.71875 
L 19.671875 8.296875 
L 56.78125 8.296875 
L 56.78125 0 
L 9.8125 0 
z
" id="DejaVuSans-69"/>
      <path d="M 39.40625 66.21875 
Q 28.65625 66.21875 22.328125 58.203125 
Q 16.015625 50.203125 16.015625 36.375 
Q 16.015625 22.609375 22.328125 14.59375 
Q 28.65625 6.59375 39.40625 6.59375 
Q 50.140625 6.59375 56.421875 14.59375 
Q 62.703125 22.609375 62.703125 36.375 
Q 62.703125 50.203125 56.421875 58.203125 
Q 50.140625 66.21875 39.40625 66.21875 
z
M 39.40625 74.21875 
Q 54.734375 74.21875 63.90625 63.9375 
Q 73.09375 53.65625 73.09375 36.375 
Q 73.09375 19.140625 63.90625 8.859375 
Q 54.734375 -1.421875 39.40625 -1.421875 
Q 24.03125 -1.421875 14.8125 8.828125 
Q 5.609375 19.09375 5.609375 36.375 
Q 5.609375 53.65625 14.8125 63.9375 
Q 24.03125 74.21875 39.40625 74.21875 
z
" id="DejaVuSans-79"/>
     </defs>
     <use xlink:href="#DejaVuSans-83"/>
     <use x="63.476562" xlink:href="#DejaVuSans-77"/>
     <use x="149.755859" xlink:href="#DejaVuSans-83"/>
     <use x="213.232422" xlink:href="#DejaVuSans-45"/>
     <use x="249.316406" xlink:href="#DejaVuSans-69"/>
     <use x="312.5" xlink:href="#DejaVuSans-77"/>
     <use x="398.779297" xlink:href="#DejaVuSans-79"/>
     <use x="475.740234" xlink:href="#DejaVuSans-65"/>
     <use x="541.898438" xlink:href="#DejaVuSans-45"/>
    </g>
   </g>
   <g id="text_15">
    <!-- COMO-100  -->
    <g transform="translate(375.22944 126.352403)scale(0.17 -0.17)">
     <defs>
      <path d="M 64.40625 67.28125 
L 64.40625 56.890625 
Q 59.421875 61.53125 53.78125 63.8125 
Q 48.140625 66.109375 41.796875 66.109375 
Q 29.296875 66.109375 22.65625 58.46875 
Q 16.015625 50.828125 16.015625 36.375 
Q 16.015625 21.96875 22.65625 14.328125 
Q 29.296875 6.6875 41.796875 6.6875 
Q 48.140625 6.6875 53.78125 8.984375 
Q 59.421875 11.28125 64.40625 15.921875 
L 64.40625 5.609375 
Q 59.234375 2.09375 53.4375 0.328125 
Q 47.65625 -1.421875 41.21875 -1.421875 
Q 24.65625 -1.421875 15.125 8.703125 
Q 5.609375 18.84375 5.609375 36.375 
Q 5.609375 53.953125 15.125 64.078125 
Q 24.65625 74.21875 41.21875 74.21875 
Q 47.75 74.21875 53.53125 72.484375 
Q 59.328125 70.75 64.40625 67.28125 
z
" id="DejaVuSans-67"/>
     </defs>
     <use xlink:href="#DejaVuSans-67"/>
     <use x="69.824219" xlink:href="#DejaVuSans-79"/>
     <use x="148.535156" xlink:href="#DejaVuSans-77"/>
     <use x="234.814453" xlink:href="#DejaVuSans-79"/>
     <use x="316.275391" xlink:href="#DejaVuSans-45"/>
     <use x="352.359375" xlink:href="#DejaVuSans-49"/>
     <use x="415.982422" xlink:href="#DejaVuSans-48"/>
     <use x="479.605469" xlink:href="#DejaVuSans-48"/>
     <use x="543.228516" xlink:href="#DejaVuSans-32"/>
    </g>
   </g>
   <g id="text_16">
    <!-- best 2016 -->
    <g transform="translate(375.22944 40.397235)scale(0.17 -0.17)">
     <defs>
      <path d="M 48.6875 27.296875 
Q 48.6875 37.203125 44.609375 42.84375 
Q 40.53125 48.484375 33.40625 48.484375 
Q 26.265625 48.484375 22.1875 42.84375 
Q 18.109375 37.203125 18.109375 27.296875 
Q 18.109375 17.390625 22.1875 11.75 
Q 26.265625 6.109375 33.40625 6.109375 
Q 40.53125 6.109375 44.609375 11.75 
Q 48.6875 17.390625 48.6875 27.296875 
z
M 18.109375 46.390625 
Q 20.953125 51.265625 25.265625 53.625 
Q 29.59375 56 35.59375 56 
Q 45.5625 56 51.78125 48.09375 
Q 58.015625 40.1875 58.015625 27.296875 
Q 58.015625 14.40625 51.78125 6.484375 
Q 45.5625 -1.421875 35.59375 -1.421875 
Q 29.59375 -1.421875 25.265625 0.953125 
Q 20.953125 3.328125 18.109375 8.203125 
L 18.109375 0 
L 9.078125 0 
L 9.078125 75.984375 
L 18.109375 75.984375 
z
" id="DejaVuSans-98"/>
     </defs>
     <use xlink:href="#DejaVuSans-98"/>
     <use x="63.476562" xlink:href="#DejaVuSans-101"/>
     <use x="125" xlink:href="#DejaVuSans-115"/>
     <use x="177.099609" xlink:href="#DejaVuSans-116"/>
     <use x="216.308594" xlink:href="#DejaVuSans-32"/>
     <use x="248.095703" xlink:href="#DejaVuSans-50"/>
     <use x="311.71875" xlink:href="#DejaVuSans-48"/>
     <use x="375.341797" xlink:href="#DejaVuSans-49"/>
     <use x="438.964844" xlink:href="#DejaVuSans-54"/>
    </g>
   </g>
   <g id="text_17">
    <!-- bbob-biobj f5, 10-D -->
    <g transform="translate(60.41088 38.111366)scale(0.102 -0.102)">
     <defs>
      <path d="M 9.421875 54.6875 
L 18.40625 54.6875 
L 18.40625 -0.984375 
Q 18.40625 -11.421875 14.421875 -16.109375 
Q 10.453125 -20.796875 1.609375 -20.796875 
L -1.8125 -20.796875 
L -1.8125 -13.1875 
L 0.59375 -13.1875 
Q 5.71875 -13.1875 7.5625 -10.8125 
Q 9.421875 -8.453125 9.421875 -0.984375 
z
M 9.421875 75.984375 
L 18.40625 75.984375 
L 18.40625 64.59375 
L 9.421875 64.59375 
z
" id="DejaVuSans-106"/>
      <path d="M 10.796875 72.90625 
L 49.515625 72.90625 
L 49.515625 64.59375 
L 19.828125 64.59375 
L 19.828125 46.734375 
Q 21.96875 47.46875 24.109375 47.828125 
Q 26.265625 48.1875 28.421875 48.1875 
Q 40.625 48.1875 47.75 41.5 
Q 54.890625 34.8125 54.890625 23.390625 
Q 54.890625 11.625 47.5625 5.09375 
Q 40.234375 -1.421875 26.90625 -1.421875 
Q 22.3125 -1.421875 17.546875 -0.640625 
Q 12.796875 0.140625 7.71875 1.703125 
L 7.71875 11.625 
Q 12.109375 9.234375 16.796875 8.0625 
Q 21.484375 6.890625 26.703125 6.890625 
Q 35.15625 6.890625 40.078125 11.328125 
Q 45.015625 15.765625 45.015625 23.390625 
Q 45.015625 31 40.078125 35.4375 
Q 35.15625 39.890625 26.703125 39.890625 
Q 22.75 39.890625 18.8125 39.015625 
Q 14.890625 38.140625 10.796875 36.28125 
z
" id="DejaVuSans-53"/>
      <path d="M 19.671875 64.796875 
L 19.671875 8.109375 
L 31.59375 8.109375 
Q 46.6875 8.109375 53.6875 14.9375 
Q 60.6875 21.78125 60.6875 36.53125 
Q 60.6875 51.171875 53.6875 57.984375 
Q 46.6875 64.796875 31.59375 64.796875 
z
M 9.8125 72.90625 
L 30.078125 72.90625 
Q 51.265625 72.90625 61.171875 64.09375 
Q 71.09375 55.28125 71.09375 36.53125 
Q 71.09375 17.671875 61.125 8.828125 
Q 51.171875 0 30.078125 0 
L 9.8125 0 
z
" id="DejaVuSans-68"/>
     </defs>
     <use xlink:href="#DejaVuSans-98"/>
     <use x="63.476562" xlink:href="#DejaVuSans-98"/>
     <use x="126.953125" xlink:href="#DejaVuSans-111"/>
     <use x="188.134766" xlink:href="#DejaVuSans-98"/>
     <use x="251.611328" xlink:href="#DejaVuSans-45"/>
     <use x="287.695312" xlink:href="#DejaVuSans-98"/>
     <use x="351.171875" xlink:href="#DejaVuSans-105"/>
     <use x="378.955078" xlink:href="#DejaVuSans-111"/>
     <use x="440.136719" xlink:href="#DejaVuSans-98"/>
     <use x="503.613281" xlink:href="#DejaVuSans-106"/>
     <use x="531.396484" xlink:href="#DejaVuSans-32"/>
     <use x="563.183594" xlink:href="#DejaVuSans-102"/>
     <use x="598.388672" xlink:href="#DejaVuSans-53"/>
     <use x="662.011719" xlink:href="#DejaVuSans-44"/>
     <use x="693.798828" xlink:href="#DejaVuSans-32"/>
     <use x="725.585938" xlink:href="#DejaVuSans-49"/>
     <use x="789.208984" xlink:href="#DejaVuSans-48"/>
     <use x="852.832031" xlink:href="#DejaVuSans-45"/>
     <use x="888.916016" xlink:href="#DejaVuSans-68"/>
    </g>
    <!-- 58 targets: 1..-1.0e-4 -->
    <g transform="translate(60.41088 49.533135)scale(0.102 -0.102)">
     <defs>
      <path d="M 11.71875 12.40625 
L 22.015625 12.40625 
L 22.015625 0 
L 11.71875 0 
z
M 11.71875 51.703125 
L 22.015625 51.703125 
L 22.015625 39.3125 
L 11.71875 39.3125 
z
" id="DejaVuSans-58"/>
     </defs>
     <use xlink:href="#DejaVuSans-53"/>
     <use x="63.623047" xlink:href="#DejaVuSans-56"/>
     <use x="127.246094" xlink:href="#DejaVuSans-32"/>
     <use x="159.033203" xlink:href="#DejaVuSans-116"/>
     <use x="198.242188" xlink:href="#DejaVuSans-97"/>
     <use x="259.521484" xlink:href="#DejaVuSans-114"/>
     <use x="298.884766" xlink:href="#DejaVuSans-103"/>
     <use x="362.361328" xlink:href="#DejaVuSans-101"/>
     <use x="423.884766" xlink:href="#DejaVuSans-116"/>
     <use x="463.09375" xlink:href="#DejaVuSans-115"/>
     <use x="515.193359" xlink:href="#DejaVuSans-58"/>
     <use x="548.884766" xlink:href="#DejaVuSans-32"/>
     <use x="580.671875" xlink:href="#DejaVuSans-49"/>
     <use x="644.294922" xlink:href="#DejaVuSans-46"/>
     <use x="676.082031" xlink:href="#DejaVuSans-46"/>
     <use x="707.869141" xlink:href="#DejaVuSans-45"/>
     <use x="743.953125" xlink:href="#DejaVuSans-49"/>
     <use x="807.576172" xlink:href="#DejaVuSans-46"/>
     <use x="839.363281" xlink:href="#DejaVuSans-48"/>
     <use x="902.986328" xlink:href="#DejaVuSans-101"/>
     <use x="964.509766" xlink:href="#DejaVuSans-45"/>
     <use x="1000.59375" xlink:href="#DejaVuSans-52"/>
    </g>
    <!-- 10 instances -->
    <g transform="translate(60.41088 60.954904)scale(0.102 -0.102)">
     <use xlink:href="#DejaVuSans-49"/>
     <use x="63.623047" xlink:href="#DejaVuSans-48"/>
     <use x="127.246094" xlink:href="#DejaVuSans-32"/>
     <use x="159.033203" xlink:href="#DejaVuSans-105"/>
     <use x="186.816406" xlink:href="#DejaVuSans-110"/>
     <use x="250.195312" xlink:href="#DejaVuSans-115"/>
     <use x="302.294922" xlink:href="#DejaVuSans-116"/>
     <use x="341.503906" xlink:href="#DejaVuSans-97"/>
     <use x="402.783203" xlink:href="#DejaVuSans-110"/>
     <use x="466.162109" xlink:href="#DejaVuSans-99"/>
     <use x="521.142578" xlink:href="#DejaVuSans-101"/>
     <use x="582.666016" xlink:href="#DejaVuSans-115"/>
    </g>
   </g>
   <g id="text_18">
    <!-- v2.4.19, hv-hash=ff0e71e8cd978373 -->
    <g style="fill:#808080;" transform="translate(104.697125 294.151352)scale(0.1 -0.1)">
     <defs>
      <path d="M 10.984375 1.515625 
L 10.984375 10.5 
Q 14.703125 8.734375 18.5 7.8125 
Q 22.3125 6.890625 25.984375 6.890625 
Q 35.75 6.890625 40.890625 13.453125 
Q 46.046875 20.015625 46.78125 33.40625 
Q 43.953125 29.203125 39.59375 26.953125 
Q 35.25 24.703125 29.984375 24.703125 
Q 19.046875 24.703125 12.671875 31.3125 
Q 6.296875 37.9375 6.296875 49.421875 
Q 6.296875 60.640625 12.9375 67.421875 
Q 19.578125 74.21875 30.609375 74.21875 
Q 43.265625 74.21875 49.921875 64.515625 
Q 56.59375 54.828125 56.59375 36.375 
Q 56.59375 19.140625 48.40625 8.859375 
Q 40.234375 -1.421875 26.421875 -1.421875 
Q 22.703125 -1.421875 18.890625 -0.6875 
Q 15.09375 0.046875 10.984375 1.515625 
z
M 30.609375 32.421875 
Q 37.25 32.421875 41.125 36.953125 
Q 45.015625 41.5 45.015625 49.421875 
Q 45.015625 57.28125 41.125 61.84375 
Q 37.25 66.40625 30.609375 66.40625 
Q 23.96875 66.40625 20.09375 61.84375 
Q 16.21875 57.28125 16.21875 49.421875 
Q 16.21875 41.5 20.09375 36.953125 
Q 23.96875 32.421875 30.609375 32.421875 
z
" id="DejaVuSans-57"/>
      <path d="M 54.890625 33.015625 
L 54.890625 0 
L 45.90625 0 
L 45.90625 32.71875 
Q 45.90625 40.484375 42.875 44.328125 
Q 39.84375 48.1875 33.796875 48.1875 
Q 26.515625 48.1875 22.3125 43.546875 
Q 18.109375 38.921875 18.109375 30.90625 
L 18.109375 0 
L 9.078125 0 
L 9.078125 75.984375 
L 18.109375 75.984375 
L 18.109375 46.1875 
Q 21.34375 51.125 25.703125 53.5625 
Q 30.078125 56 35.796875 56 
Q 45.21875 56 50.046875 50.171875 
Q 54.890625 44.34375 54.890625 33.015625 
z
" id="DejaVuSans-104"/>
      <path d="M 10.59375 45.40625 
L 73.1875 45.40625 
L 73.1875 37.203125 
L 10.59375 37.203125 
z
M 10.59375 25.484375 
L 73.1875 25.484375 
L 73.1875 17.1875 
L 10.59375 17.1875 
z
" id="DejaVuSans-61"/>
      <path d="M 8.203125 72.90625 
L 55.078125 72.90625 
L 55.078125 68.703125 
L 28.609375 0 
L 18.3125 0 
L 43.21875 64.59375 
L 8.203125 64.59375 
z
" id="DejaVuSans-55"/>
      <path d="M 40.578125 39.3125 
Q 47.65625 37.796875 51.625 33 
Q 55.609375 28.21875 55.609375 21.1875 
Q 55.609375 10.40625 48.1875 4.484375 
Q 40.765625 -1.421875 27.09375 -1.421875 
Q 22.515625 -1.421875 17.65625 -0.515625 
Q 12.796875 0.390625 7.625 2.203125 
L 7.625 11.71875 
Q 11.71875 9.328125 16.59375 8.109375 
Q 21.484375 6.890625 26.8125 6.890625 
Q 36.078125 6.890625 40.9375 10.546875 
Q 45.796875 14.203125 45.796875 21.1875 
Q 45.796875 27.640625 41.28125 31.265625 
Q 36.765625 34.90625 28.71875 34.90625 
L 20.21875 34.90625 
L 20.21875 43.015625 
L 29.109375 43.015625 
Q 36.375 43.015625 40.234375 45.921875 
Q 44.09375 48.828125 44.09375 54.296875 
Q 44.09375 59.90625 40.109375 62.90625 
Q 36.140625 65.921875 28.71875 65.921875 
Q 24.65625 65.921875 20.015625 65.03125 
Q 15.375 64.15625 9.8125 62.3125 
L 9.8125 71.09375 
Q 15.4375 72.65625 20.34375 73.4375 
Q 25.25 74.21875 29.59375 74.21875 
Q 40.828125 74.21875 47.359375 69.109375 
Q 53.90625 64.015625 53.90625 55.328125 
Q 53.90625 49.265625 50.4375 45.09375 
Q 46.96875 40.921875 40.578125 39.3125 
z
" id="DejaVuSans-51"/>
     </defs>
     <use xlink:href="#DejaVuSans-118"/>
     <use x="59.179688" xlink:href="#DejaVuSans-50"/>
     <use x="122.802734" xlink:href="#DejaVuSans-46"/>
     <use x="154.589844" xlink:href="#DejaVuSans-52"/>
     <use x="218.212891" xlink:href="#DejaVuSans-46"/>
     <use x="250" xlink:href="#DejaVuSans-49"/>
     <use x="313.623047" xlink:href="#DejaVuSans-57"/>
     <use x="377.246094" xlink:href="#DejaVuSans-44"/>
     <use x="409.033203" xlink:href="#DejaVuSans-32"/>
     <use x="440.820312" xlink:href="#DejaVuSans-104"/>
     <use x="504.199219" xlink:href="#DejaVuSans-118"/>
     <use x="560.753906" xlink:href="#DejaVuSans-45"/>
     <use x="596.837891" xlink:href="#DejaVuSans-104"/>
     <use x="660.216797" xlink:href="#DejaVuSans-97"/>
     <use x="721.496094" xlink:href="#DejaVuSans-115"/>
     <use x="773.595703" xlink:href="#DejaVuSans-104"/>
     <use x="836.974609" xlink:href="#DejaVuSans-61"/>
     <use x="920.763672" xlink:href="#DejaVuSans-102"/>
     <use x="955.96875" xlink:href="#DejaVuSans-102"/>
     <use x="991.173828" xlink:href="#DejaVuSans-48"/>
     <use x="1054.796875" xlink:href="#DejaVuSans-101"/>
     <use x="1116.320312" xlink:href="#DejaVuSans-55"/>
     <use x="1179.943359" xlink:href="#DejaVuSans-49"/>
     <use x="1243.566406" xlink:href="#DejaVuSans-101"/>
     <use x="1305.089844" xlink:href="#DejaVuSans-56"/>
     <use x="1368.712891" xlink:href="#DejaVuSans-99"/>
     <use x="1423.693359" xlink:href="#DejaVuSans-100"/>
     <use x="1487.169922" xlink:href="#DejaVuSans-57"/>
     <use x="1550.792969" xlink:href="#DejaVuSans-55"/>
     <use x="1614.416016" xlink:href="#DejaVuSans-56"/>
     <use x="1678.039062" xlink:href="#DejaVuSans-51"/>
     <use x="1741.662109" xlink:href="#DejaVuSans-55"/>
     <use x="1805.285156" xlink:href="#DejaVuSans-51"/>
    </g>
   </g>
   <g id="text_19">
    <!-- 5 Sphere/Sharp ridge -->
    <g transform="translate(91.817437 21.648)scale(0.2 -0.2)">
     <use xlink:href="#DejaVuSans-53"/>
     <use x="63.623047" xlink:href="#DejaVuSans-32"/>
     <use x="95.410156" xlink:href="#DejaVuSans-83"/>
     <use x="158.886719" xlink:href="#DejaVuSans-112"/>
     <use x="222.363281" xlink:href="#DejaVuSans-104"/>
     <use x="285.742188" xlink:href="#DejaVuSans-101"/>
     <use x="347.265625" xlink:href="#DejaVuSans-114"/>
     <use x="386.128906" xlink:href="#DejaVuSans-101"/>
     <use x="447.652344" xlink:href="#DejaVuSans-47"/>
     <use x="481.34375" xlink:href="#DejaVuSans-83"/>
     <use x="544.820312" xlink:href="#DejaVuSans-104"/>
     <use x="608.199219" xlink:href="#DejaVuSans-97"/>
     <use x="669.478516" xlink:href="#DejaVuSans-114"/>
     <use x="710.591797" xlink:href="#DejaVuSans-112"/>
     <use x="774.068359" xlink:href="#DejaVuSans-32"/>
     <use x="805.855469" xlink:href="#DejaVuSans-114"/>
     <use x="846.96875" xlink:href="#DejaVuSans-105"/>
     <use x="874.751953" xlink:href="#DejaVuSans-100"/>
     <use x="938.228516" xlink:href="#DejaVuSans-103"/>
     <use x="1001.705078" xlink:href="#DejaVuSans-101"/>
    </g>
   </g>
  </g>
 </g>
 <defs>
  <clipPath id="p0f95e278e0">
   <rect height="271.296" width="281.088" x="57.6" y="27.648"/>
  </clipPath>
 </defs>
</svg>
