<?xml version="1.0" encoding="utf-8" standalone="no"?>
<!DOCTYPE svg PUBLIC "-//W3C//DTD SVG 1.1//EN"
  "http://www.w3.org/Graphics/SVG/1.1/DTD/svg11.dtd">
<!-- Created with matplotlib (https://matplotlib.org/) -->
<svg height="345.6pt" version="1.1" viewBox="0 0 460.8 345.6" width="460.8pt" xmlns="http://www.w3.org/2000/svg" xmlns:xlink="http://www.w3.org/1999/xlink">
 <metadata>
  <rdf:RDF xmlns:cc="http://creativecommons.org/ns#" xmlns:dc="http://purl.org/dc/elements/1.1/" xmlns:rdf="http://www.w3.org/1999/02/22-rdf-syntax-ns#">
   <cc:Work>
    <dc:type rdf:resource="http://purl.org/dc/dcmitype/StillImage"/>
    <dc:date>2021-04-26T15:04:38.107588</dc:date>
    <dc:format>image/svg+xml</dc:format>
    <dc:creator>
     <cc:Agent>
      <dc:title>Matplotlib v3.3.2, https://matplotlib.org/</dc:title>
     </cc:Agent>
    </dc:creator>
   </cc:Work>
  </rdf:RDF>
 </metadata>
 <defs>
  <style type="text/css">*{stroke-linecap:butt;stroke-linejoin:round;}</style>
 </defs>
 <g id="figure_1">
  <g id="patch_1">
   <path d="M 0 345.6 
L 460.8 345.6 
L 460.8 0 
L 0 0 
z
" style="fill:#ffffff;"/>
  </g>
  <g id="axes_1">
   <g id="patch_2">
    <path d="M 57.6 298.944 
L 338.688 298.944 
L 338.688 27.648 
L 57.6 27.648 
z
" style="fill:#ffffff;"/>
   </g>
   <g id="line2d_1">
    <path d="M 48.691568 298.944 
L 48.691568 294.312795 
L 65.796525 294.312795 
L 65.796525 285.050384 
L 72.867545 285.050384 
L 72.867545 275.787974 
L 81.775977 275.787974 
L 81.775977 271.156769 
L 87.643811 271.156769 
L 87.643811 257.263153 
L 98.100772 257.263153 
L 98.100772 248.000743 
L 108.764355 248.000743 
L 108.764355 243.369538 
L 117.486268 243.369538 
L 117.486268 234.107127 
L 125.363449 234.107127 
L 125.363449 220.213512 
L 133.284766 220.213512 
L 133.284766 210.951101 
L 139.285267 210.951101 
L 139.285267 201.688691 
L 145.281568 201.688691 
L 145.281568 192.426281 
L 151.810952 192.426281 
L 151.810952 187.795075 
L 158.705563 187.795075 
L 158.705563 173.90146 
L 166.051389 173.90146 
L 166.051389 169.270255 
L 179.009913 169.270255 
L 179.009913 155.376639 
L 183.757591 155.376639 
L 183.757591 146.114229 
L 191.420361 146.114229 
L 191.420361 141.483024 
L 198.386187 141.483024 
L 198.386187 127.589408 
L 207.194914 127.589408 
L 207.194914 122.958203 
L 215.290804 122.958203 
L 215.290804 109.064587 
L 226.058577 109.064587 
L 226.058577 99.802177 
L 228.872261 99.802177 
L 228.872261 90.539766 
L 232.019025 90.539766 
L 232.019025 85.908561 
L 236.32045 85.908561 
L 236.32045 76.646151 
L 242.162337 76.646151 
L 242.162337 62.752535 
L 338.688 62.752535 
" style="fill:none;stroke:#f5deb3;stroke-linecap:square;stroke-width:4;"/>
   </g>
   <g id="line2d_2">
    <defs>
     <path d="M 0 7.778175 
L 7.778175 0 
L 0 -7.778175 
L -7.778175 0 
z
" id="mded5b13d2c" style="stroke:#f5deb3;stroke-linejoin:miter;stroke-width:1.5;"/>
    </defs>
    <g>
     <use style="fill:#f5deb3;stroke:#f5deb3;stroke-linejoin:miter;stroke-width:1.5;" x="87.643811" xlink:href="#mded5b13d2c" y="257.263153"/>
     <use style="fill:#f5deb3;stroke:#f5deb3;stroke-linejoin:miter;stroke-width:1.5;" x="145.281568" xlink:href="#mded5b13d2c" y="192.426281"/>
     <use style="fill:#f5deb3;stroke:#f5deb3;stroke-linejoin:miter;stroke-width:1.5;" x="207.194914" xlink:href="#mded5b13d2c" y="122.958203"/>
     <use style="fill:#f5deb3;stroke:#f5deb3;stroke-linejoin:miter;stroke-width:1.5;" x="242.162337" xlink:href="#mded5b13d2c" y="76.646151"/>
     <use style="fill:#f5deb3;stroke:#f5deb3;stroke-linejoin:miter;stroke-width:1.5;" x="242.162337" xlink:href="#mded5b13d2c" y="62.752535"/>
     <use style="fill:#f5deb3;stroke:#f5deb3;stroke-linejoin:miter;stroke-width:1.5;" x="338.688" xlink:href="#mded5b13d2c" y="62.752535"/>
    </g>
   </g>
   <g id="line2d_3">
    <path style="fill:none;stroke:#f5deb3;stroke-linecap:square;stroke-width:4;"/>
    <g/>
   </g>
   <g id="line2d_4">
    <path d="M 338.688 62.752535 
L 369.60768 35.706297 
" style="fill:none;stroke:#f5deb3;stroke-linecap:square;stroke-width:4;"/>
    <g>
     <use style="fill:#f5deb3;stroke:#f5deb3;stroke-linejoin:miter;stroke-width:1.5;" x="338.688" xlink:href="#mded5b13d2c" y="62.752535"/>
     <use style="fill:#f5deb3;stroke:#f5deb3;stroke-linejoin:miter;stroke-width:1.5;" x="369.60768" xlink:href="#mded5b13d2c" y="35.706297"/>
    </g>
   </g>
   <g id="matplotlib.axis_1">
    <g id="xtick_1">
     <g id="line2d_5">
      <path clip-path="url(#p2861ec7dc1)" d="M 57.6 298.944 
L 57.6 27.648 
" style="fill:none;stroke:#b0b0b0;stroke-linecap:square;stroke-width:0.8;"/>
     </g>
     <g id="line2d_6">
      <defs>
       <path d="M 0 0 
L 0 3.5 
" id="ma673632b87" style="stroke:#000000;stroke-width:0.8;"/>
      </defs>
      <g>
       <use style="stroke:#000000;stroke-width:0.8;" x="57.6" xlink:href="#ma673632b87" y="298.944"/>
      </g>
     </g>
     <g id="text_1">
      <!-- 0 -->
      <g transform="translate(51.2375 321.140875)scale(0.2 -0.2)">
       <defs>
        <path d="M 31.78125 66.40625 
Q 24.171875 66.40625 20.328125 58.90625 
Q 16.5 51.421875 16.5 36.375 
Q 16.5 21.390625 20.328125 13.890625 
Q 24.171875 6.390625 31.78125 6.390625 
Q 39.453125 6.390625 43.28125 13.890625 
Q 47.125 21.390625 47.125 36.375 
Q 47.125 51.421875 43.28125 58.90625 
Q 39.453125 66.40625 31.78125 66.40625 
z
M 31.78125 74.21875 
Q 44.046875 74.21875 50.515625 64.515625 
Q 56.984375 54.828125 56.984375 36.375 
Q 56.984375 17.96875 50.515625 8.265625 
Q 44.046875 -1.421875 31.78125 -1.421875 
Q 19.53125 -1.421875 13.0625 8.265625 
Q 6.59375 17.96875 6.59375 36.375 
Q 6.59375 54.828125 13.0625 64.515625 
Q 19.53125 74.21875 31.78125 74.21875 
z
" id="DejaVuSans-48"/>
       </defs>
       <use xlink:href="#DejaVuSans-48"/>
      </g>
     </g>
    </g>
    <g id="xtick_2">
     <g id="line2d_7">
      <path clip-path="url(#p2861ec7dc1)" d="M 137.910857 298.944 
L 137.910857 27.648 
" style="fill:none;stroke:#b0b0b0;stroke-linecap:square;stroke-width:0.8;"/>
     </g>
     <g id="line2d_8">
      <g>
       <use style="stroke:#000000;stroke-width:0.8;" x="137.910857" xlink:href="#ma673632b87" y="298.944"/>
      </g>
     </g>
     <g id="text_2">
      <!-- 2 -->
      <g transform="translate(131.548357 321.140875)scale(0.2 -0.2)">
       <defs>
        <path d="M 19.1875 8.296875 
L 53.609375 8.296875 
L 53.609375 0 
L 7.328125 0 
L 7.328125 8.296875 
Q 12.9375 14.109375 22.625 23.890625 
Q 32.328125 33.6875 34.8125 36.53125 
Q 39.546875 41.84375 41.421875 45.53125 
Q 43.3125 49.21875 43.3125 52.78125 
Q 43.3125 58.59375 39.234375 62.25 
Q 35.15625 65.921875 28.609375 65.921875 
Q 23.96875 65.921875 18.8125 64.3125 
Q 13.671875 62.703125 7.8125 59.421875 
L 7.8125 69.390625 
Q 13.765625 71.78125 18.9375 73 
Q 24.125 74.21875 28.421875 74.21875 
Q 39.75 74.21875 46.484375 68.546875 
Q 53.21875 62.890625 53.21875 53.421875 
Q 53.21875 48.921875 51.53125 44.890625 
Q 49.859375 40.875 45.40625 35.40625 
Q 44.1875 33.984375 37.640625 27.21875 
Q 31.109375 20.453125 19.1875 8.296875 
z
" id="DejaVuSans-50"/>
       </defs>
       <use xlink:href="#DejaVuSans-50"/>
      </g>
     </g>
    </g>
    <g id="xtick_3">
     <g id="line2d_9">
      <path clip-path="url(#p2861ec7dc1)" d="M 218.221714 298.944 
L 218.221714 27.648 
" style="fill:none;stroke:#b0b0b0;stroke-linecap:square;stroke-width:0.8;"/>
     </g>
     <g id="line2d_10">
      <g>
       <use style="stroke:#000000;stroke-width:0.8;" x="218.221714" xlink:href="#ma673632b87" y="298.944"/>
      </g>
     </g>
     <g id="text_3">
      <!-- 4 -->
      <g transform="translate(211.859214 321.140875)scale(0.2 -0.2)">
       <defs>
        <path d="M 37.796875 64.3125 
L 12.890625 25.390625 
L 37.796875 25.390625 
z
M 35.203125 72.90625 
L 47.609375 72.90625 
L 47.609375 25.390625 
L 58.015625 25.390625 
L 58.015625 17.1875 
L 47.609375 17.1875 
L 47.609375 0 
L 37.796875 0 
L 37.796875 17.1875 
L 4.890625 17.1875 
L 4.890625 26.703125 
z
" id="DejaVuSans-52"/>
       </defs>
       <use xlink:href="#DejaVuSans-52"/>
      </g>
     </g>
    </g>
    <g id="xtick_4">
     <g id="line2d_11">
      <path clip-path="url(#p2861ec7dc1)" d="M 298.532571 298.944 
L 298.532571 27.648 
" style="fill:none;stroke:#b0b0b0;stroke-linecap:square;stroke-width:0.8;"/>
     </g>
     <g id="line2d_12">
      <g>
       <use style="stroke:#000000;stroke-width:0.8;" x="298.532571" xlink:href="#ma673632b87" y="298.944"/>
      </g>
     </g>
     <g id="text_4">
      <!-- 6 -->
      <g transform="translate(292.170071 321.140875)scale(0.2 -0.2)">
       <defs>
        <path d="M 33.015625 40.375 
Q 26.375 40.375 22.484375 35.828125 
Q 18.609375 31.296875 18.609375 23.390625 
Q 18.609375 15.53125 22.484375 10.953125 
Q 26.375 6.390625 33.015625 6.390625 
Q 39.65625 6.390625 43.53125 10.953125 
Q 47.40625 15.53125 47.40625 23.390625 
Q 47.40625 31.296875 43.53125 35.828125 
Q 39.65625 40.375 33.015625 40.375 
z
M 52.59375 71.296875 
L 52.59375 62.3125 
Q 48.875 64.0625 45.09375 64.984375 
Q 41.3125 65.921875 37.59375 65.921875 
Q 27.828125 65.921875 22.671875 59.328125 
Q 17.53125 52.734375 16.796875 39.40625 
Q 19.671875 43.65625 24.015625 45.921875 
Q 28.375 48.1875 33.59375 48.1875 
Q 44.578125 48.1875 50.953125 41.515625 
Q 57.328125 34.859375 57.328125 23.390625 
Q 57.328125 12.15625 50.6875 5.359375 
Q 44.046875 -1.421875 33.015625 -1.421875 
Q 20.359375 -1.421875 13.671875 8.265625 
Q 6.984375 17.96875 6.984375 36.375 
Q 6.984375 53.65625 15.1875 63.9375 
Q 23.390625 74.21875 37.203125 74.21875 
Q 40.921875 74.21875 44.703125 73.484375 
Q 48.484375 72.75 52.59375 71.296875 
z
" id="DejaVuSans-54"/>
       </defs>
       <use xlink:href="#DejaVuSans-54"/>
      </g>
     </g>
    </g>
    <g id="xtick_5">
     <g id="line2d_13">
      <path clip-path="url(#p2861ec7dc1)" d="M 97.755429 298.944 
L 97.755429 27.648 
" style="fill:none;stroke:#b0b0b0;stroke-linecap:square;stroke-width:0.8;"/>
     </g>
     <g id="line2d_14">
      <defs>
       <path d="M 0 0 
L 0 2 
" id="mfd99e758a0" style="stroke:#000000;stroke-width:0.6;"/>
      </defs>
      <g>
       <use style="stroke:#000000;stroke-width:0.6;" x="97.755429" xlink:href="#mfd99e758a0" y="298.944"/>
      </g>
     </g>
    </g>
    <g id="xtick_6">
     <g id="line2d_15">
      <path clip-path="url(#p2861ec7dc1)" d="M 178.066286 298.944 
L 178.066286 27.648 
" style="fill:none;stroke:#b0b0b0;stroke-linecap:square;stroke-width:0.8;"/>
     </g>
     <g id="line2d_16">
      <g>
       <use style="stroke:#000000;stroke-width:0.6;" x="178.066286" xlink:href="#mfd99e758a0" y="298.944"/>
      </g>
     </g>
    </g>
    <g id="xtick_7">
     <g id="line2d_17">
      <path clip-path="url(#p2861ec7dc1)" d="M 258.377143 298.944 
L 258.377143 27.648 
" style="fill:none;stroke:#b0b0b0;stroke-linecap:square;stroke-width:0.8;"/>
     </g>
     <g id="line2d_18">
      <g>
       <use style="stroke:#000000;stroke-width:0.6;" x="258.377143" xlink:href="#mfd99e758a0" y="298.944"/>
      </g>
     </g>
    </g>
    <g id="xtick_8">
     <g id="line2d_19">
      <path clip-path="url(#p2861ec7dc1)" d="M 338.688 298.944 
L 338.688 27.648 
" style="fill:none;stroke:#b0b0b0;stroke-linecap:square;stroke-width:0.8;"/>
     </g>
     <g id="line2d_20">
      <g>
       <use style="stroke:#000000;stroke-width:0.6;" x="338.688" xlink:href="#mfd99e758a0" y="298.944"/>
      </g>
     </g>
    </g>
    <g id="text_5">
     <!-- log10(# f-evals / dimension) -->
     <g transform="translate(77.764078 342.217594)scale(0.17 -0.17)">
      <defs>
       <path d="M 9.421875 75.984375 
L 18.40625 75.984375 
L 18.40625 0 
L 9.421875 0 
z
" id="DejaVuSans-108"/>
       <path d="M 30.609375 48.390625 
Q 23.390625 48.390625 19.1875 42.75 
Q 14.984375 37.109375 14.984375 27.296875 
Q 14.984375 17.484375 19.15625 11.84375 
Q 23.34375 6.203125 30.609375 6.203125 
Q 37.796875 6.203125 41.984375 11.859375 
Q 46.1875 17.53125 46.1875 27.296875 
Q 46.1875 37.015625 41.984375 42.703125 
Q 37.796875 48.390625 30.609375 48.390625 
z
M 30.609375 56 
Q 42.328125 56 49.015625 48.375 
Q 55.71875 40.765625 55.71875 27.296875 
Q 55.71875 13.875 49.015625 6.21875 
Q 42.328125 -1.421875 30.609375 -1.421875 
Q 18.84375 -1.421875 12.171875 6.21875 
Q 5.515625 13.875 5.515625 27.296875 
Q 5.515625 40.765625 12.171875 48.375 
Q 18.84375 56 30.609375 56 
z
" id="DejaVuSans-111"/>
       <path d="M 45.40625 27.984375 
Q 45.40625 37.75 41.375 43.109375 
Q 37.359375 48.484375 30.078125 48.484375 
Q 22.859375 48.484375 18.828125 43.109375 
Q 14.796875 37.75 14.796875 27.984375 
Q 14.796875 18.265625 18.828125 12.890625 
Q 22.859375 7.515625 30.078125 7.515625 
Q 37.359375 7.515625 41.375 12.890625 
Q 45.40625 18.265625 45.40625 27.984375 
z
M 54.390625 6.78125 
Q 54.390625 -7.171875 48.1875 -13.984375 
Q 42 -20.796875 29.203125 -20.796875 
Q 24.46875 -20.796875 20.265625 -20.09375 
Q 16.0625 -19.390625 12.109375 -17.921875 
L 12.109375 -9.1875 
Q 16.0625 -11.328125 19.921875 -12.34375 
Q 23.78125 -13.375 27.78125 -13.375 
Q 36.625 -13.375 41.015625 -8.765625 
Q 45.40625 -4.15625 45.40625 5.171875 
L 45.40625 9.625 
Q 42.625 4.78125 38.28125 2.390625 
Q 33.9375 0 27.875 0 
Q 17.828125 0 11.671875 7.65625 
Q 5.515625 15.328125 5.515625 27.984375 
Q 5.515625 40.671875 11.671875 48.328125 
Q 17.828125 56 27.875 56 
Q 33.9375 56 38.28125 53.609375 
Q 42.625 51.21875 45.40625 46.390625 
L 45.40625 54.6875 
L 54.390625 54.6875 
z
" id="DejaVuSans-103"/>
       <path d="M 12.40625 8.296875 
L 28.515625 8.296875 
L 28.515625 63.921875 
L 10.984375 60.40625 
L 10.984375 69.390625 
L 28.421875 72.90625 
L 38.28125 72.90625 
L 38.28125 8.296875 
L 54.390625 8.296875 
L 54.390625 0 
L 12.40625 0 
z
" id="DejaVuSans-49"/>
       <path d="M 31 75.875 
Q 24.46875 64.65625 21.28125 53.65625 
Q 18.109375 42.671875 18.109375 31.390625 
Q 18.109375 20.125 21.3125 9.0625 
Q 24.515625 -2 31 -13.1875 
L 23.1875 -13.1875 
Q 15.875 -1.703125 12.234375 9.375 
Q 8.59375 20.453125 8.59375 31.390625 
Q 8.59375 42.28125 12.203125 53.3125 
Q 15.828125 64.359375 23.1875 75.875 
z
" id="DejaVuSans-40"/>
       <path d="M 51.125 44 
L 36.921875 44 
L 32.8125 27.6875 
L 47.125 27.6875 
z
M 43.796875 71.78125 
L 38.71875 51.515625 
L 52.984375 51.515625 
L 58.109375 71.78125 
L 65.921875 71.78125 
L 60.890625 51.515625 
L 76.125 51.515625 
L 76.125 44 
L 58.984375 44 
L 54.984375 27.6875 
L 70.515625 27.6875 
L 70.515625 20.21875 
L 53.078125 20.21875 
L 48 0 
L 40.1875 0 
L 45.21875 20.21875 
L 30.90625 20.21875 
L 25.875 0 
L 18.015625 0 
L 23.09375 20.21875 
L 7.71875 20.21875 
L 7.71875 27.6875 
L 24.90625 27.6875 
L 29 44 
L 13.28125 44 
L 13.28125 51.515625 
L 30.90625 51.515625 
L 35.890625 71.78125 
z
" id="DejaVuSans-35"/>
       <path id="DejaVuSans-32"/>
       <path d="M 37.109375 75.984375 
L 37.109375 68.5 
L 28.515625 68.5 
Q 23.6875 68.5 21.796875 66.546875 
Q 19.921875 64.59375 19.921875 59.515625 
L 19.921875 54.6875 
L 34.71875 54.6875 
L 34.71875 47.703125 
L 19.921875 47.703125 
L 19.921875 0 
L 10.890625 0 
L 10.890625 47.703125 
L 2.296875 47.703125 
L 2.296875 54.6875 
L 10.890625 54.6875 
L 10.890625 58.5 
Q 10.890625 67.625 15.140625 71.796875 
Q 19.390625 75.984375 28.609375 75.984375 
z
" id="DejaVuSans-102"/>
       <path d="M 4.890625 31.390625 
L 31.203125 31.390625 
L 31.203125 23.390625 
L 4.890625 23.390625 
z
" id="DejaVuSans-45"/>
       <path d="M 56.203125 29.59375 
L 56.203125 25.203125 
L 14.890625 25.203125 
Q 15.484375 15.921875 20.484375 11.0625 
Q 25.484375 6.203125 34.421875 6.203125 
Q 39.59375 6.203125 44.453125 7.46875 
Q 49.3125 8.734375 54.109375 11.28125 
L 54.109375 2.78125 
Q 49.265625 0.734375 44.1875 -0.34375 
Q 39.109375 -1.421875 33.890625 -1.421875 
Q 20.796875 -1.421875 13.15625 6.1875 
Q 5.515625 13.8125 5.515625 26.8125 
Q 5.515625 40.234375 12.765625 48.109375 
Q 20.015625 56 32.328125 56 
Q 43.359375 56 49.78125 48.890625 
Q 56.203125 41.796875 56.203125 29.59375 
z
M 47.21875 32.234375 
Q 47.125 39.59375 43.09375 43.984375 
Q 39.0625 48.390625 32.421875 48.390625 
Q 24.90625 48.390625 20.390625 44.140625 
Q 15.875 39.890625 15.1875 32.171875 
z
" id="DejaVuSans-101"/>
       <path d="M 2.984375 54.6875 
L 12.5 54.6875 
L 29.59375 8.796875 
L 46.6875 54.6875 
L 56.203125 54.6875 
L 35.6875 0 
L 23.484375 0 
z
" id="DejaVuSans-118"/>
       <path d="M 34.28125 27.484375 
Q 23.390625 27.484375 19.1875 25 
Q 14.984375 22.515625 14.984375 16.5 
Q 14.984375 11.71875 18.140625 8.90625 
Q 21.296875 6.109375 26.703125 6.109375 
Q 34.1875 6.109375 38.703125 11.40625 
Q 43.21875 16.703125 43.21875 25.484375 
L 43.21875 27.484375 
z
M 52.203125 31.203125 
L 52.203125 0 
L 43.21875 0 
L 43.21875 8.296875 
Q 40.140625 3.328125 35.546875 0.953125 
Q 30.953125 -1.421875 24.3125 -1.421875 
Q 15.921875 -1.421875 10.953125 3.296875 
Q 6 8.015625 6 15.921875 
Q 6 25.140625 12.171875 29.828125 
Q 18.359375 34.515625 30.609375 34.515625 
L 43.21875 34.515625 
L 43.21875 35.40625 
Q 43.21875 41.609375 39.140625 45 
Q 35.0625 48.390625 27.6875 48.390625 
Q 23 48.390625 18.546875 47.265625 
Q 14.109375 46.140625 10.015625 43.890625 
L 10.015625 52.203125 
Q 14.9375 54.109375 19.578125 55.046875 
Q 24.21875 56 28.609375 56 
Q 40.484375 56 46.34375 49.84375 
Q 52.203125 43.703125 52.203125 31.203125 
z
" id="DejaVuSans-97"/>
       <path d="M 44.28125 53.078125 
L 44.28125 44.578125 
Q 40.484375 46.53125 36.375 47.5 
Q 32.28125 48.484375 27.875 48.484375 
Q 21.1875 48.484375 17.84375 46.4375 
Q 14.5 44.390625 14.5 40.28125 
Q 14.5 37.15625 16.890625 35.375 
Q 19.28125 33.59375 26.515625 31.984375 
L 29.59375 31.296875 
Q 39.15625 29.25 43.1875 25.515625 
Q 47.21875 21.78125 47.21875 15.09375 
Q 47.21875 7.46875 41.1875 3.015625 
Q 35.15625 -1.421875 24.609375 -1.421875 
Q 20.21875 -1.421875 15.453125 -0.5625 
Q 10.6875 0.296875 5.421875 2 
L 5.421875 11.28125 
Q 10.40625 8.6875 15.234375 7.390625 
Q 20.0625 6.109375 24.8125 6.109375 
Q 31.15625 6.109375 34.5625 8.28125 
Q 37.984375 10.453125 37.984375 14.40625 
Q 37.984375 18.0625 35.515625 20.015625 
Q 33.0625 21.96875 24.703125 23.78125 
L 21.578125 24.515625 
Q 13.234375 26.265625 9.515625 29.90625 
Q 5.8125 33.546875 5.8125 39.890625 
Q 5.8125 47.609375 11.28125 51.796875 
Q 16.75 56 26.8125 56 
Q 31.78125 56 36.171875 55.265625 
Q 40.578125 54.546875 44.28125 53.078125 
z
" id="DejaVuSans-115"/>
       <path d="M 25.390625 72.90625 
L 33.6875 72.90625 
L 8.296875 -9.28125 
L 0 -9.28125 
z
" id="DejaVuSans-47"/>
       <path d="M 45.40625 46.390625 
L 45.40625 75.984375 
L 54.390625 75.984375 
L 54.390625 0 
L 45.40625 0 
L 45.40625 8.203125 
Q 42.578125 3.328125 38.25 0.953125 
Q 33.9375 -1.421875 27.875 -1.421875 
Q 17.96875 -1.421875 11.734375 6.484375 
Q 5.515625 14.40625 5.515625 27.296875 
Q 5.515625 40.1875 11.734375 48.09375 
Q 17.96875 56 27.875 56 
Q 33.9375 56 38.25 53.625 
Q 42.578125 51.265625 45.40625 46.390625 
z
M 14.796875 27.296875 
Q 14.796875 17.390625 18.875 11.75 
Q 22.953125 6.109375 30.078125 6.109375 
Q 37.203125 6.109375 41.296875 11.75 
Q 45.40625 17.390625 45.40625 27.296875 
Q 45.40625 37.203125 41.296875 42.84375 
Q 37.203125 48.484375 30.078125 48.484375 
Q 22.953125 48.484375 18.875 42.84375 
Q 14.796875 37.203125 14.796875 27.296875 
z
" id="DejaVuSans-100"/>
       <path d="M 9.421875 54.6875 
L 18.40625 54.6875 
L 18.40625 0 
L 9.421875 0 
z
M 9.421875 75.984375 
L 18.40625 75.984375 
L 18.40625 64.59375 
L 9.421875 64.59375 
z
" id="DejaVuSans-105"/>
       <path d="M 52 44.1875 
Q 55.375 50.25 60.0625 53.125 
Q 64.75 56 71.09375 56 
Q 79.640625 56 84.28125 50.015625 
Q 88.921875 44.046875 88.921875 33.015625 
L 88.921875 0 
L 79.890625 0 
L 79.890625 32.71875 
Q 79.890625 40.578125 77.09375 44.375 
Q 74.3125 48.1875 68.609375 48.1875 
Q 61.625 48.1875 57.5625 43.546875 
Q 53.515625 38.921875 53.515625 30.90625 
L 53.515625 0 
L 44.484375 0 
L 44.484375 32.71875 
Q 44.484375 40.625 41.703125 44.40625 
Q 38.921875 48.1875 33.109375 48.1875 
Q 26.21875 48.1875 22.15625 43.53125 
Q 18.109375 38.875 18.109375 30.90625 
L 18.109375 0 
L 9.078125 0 
L 9.078125 54.6875 
L 18.109375 54.6875 
L 18.109375 46.1875 
Q 21.1875 51.21875 25.484375 53.609375 
Q 29.78125 56 35.6875 56 
Q 41.65625 56 45.828125 52.96875 
Q 50 49.953125 52 44.1875 
z
" id="DejaVuSans-109"/>
       <path d="M 54.890625 33.015625 
L 54.890625 0 
L 45.90625 0 
L 45.90625 32.71875 
Q 45.90625 40.484375 42.875 44.328125 
Q 39.84375 48.1875 33.796875 48.1875 
Q 26.515625 48.1875 22.3125 43.546875 
Q 18.109375 38.921875 18.109375 30.90625 
L 18.109375 0 
L 9.078125 0 
L 9.078125 54.6875 
L 18.109375 54.6875 
L 18.109375 46.1875 
Q 21.34375 51.125 25.703125 53.5625 
Q 30.078125 56 35.796875 56 
Q 45.21875 56 50.046875 50.171875 
Q 54.890625 44.34375 54.890625 33.015625 
z
" id="DejaVuSans-110"/>
       <path d="M 8.015625 75.875 
L 15.828125 75.875 
Q 23.140625 64.359375 26.78125 53.3125 
Q 30.421875 42.28125 30.421875 31.390625 
Q 30.421875 20.453125 26.78125 9.375 
Q 23.140625 -1.703125 15.828125 -13.1875 
L 8.015625 -13.1875 
Q 14.5 -2 17.703125 9.0625 
Q 20.90625 20.125 20.90625 31.390625 
Q 20.90625 42.671875 17.703125 53.65625 
Q 14.5 64.65625 8.015625 75.875 
z
" id="DejaVuSans-41"/>
      </defs>
      <use xlink:href="#DejaVuSans-108"/>
      <use x="27.783203" xlink:href="#DejaVuSans-111"/>
      <use x="88.964844" xlink:href="#DejaVuSans-103"/>
      <use x="152.441406" xlink:href="#DejaVuSans-49"/>
      <use x="216.064453" xlink:href="#DejaVuSans-48"/>
      <use x="279.6875" xlink:href="#DejaVuSans-40"/>
      <use x="318.701172" xlink:href="#DejaVuSans-35"/>
      <use x="402.490234" xlink:href="#DejaVuSans-32"/>
      <use x="434.277344" xlink:href="#DejaVuSans-102"/>
      <use x="463.982422" xlink:href="#DejaVuSans-45"/>
      <use x="500.066406" xlink:href="#DejaVuSans-101"/>
      <use x="561.589844" xlink:href="#DejaVuSans-118"/>
      <use x="620.769531" xlink:href="#DejaVuSans-97"/>
      <use x="682.048828" xlink:href="#DejaVuSans-108"/>
      <use x="709.832031" xlink:href="#DejaVuSans-115"/>
      <use x="761.931641" xlink:href="#DejaVuSans-32"/>
      <use x="793.71875" xlink:href="#DejaVuSans-47"/>
      <use x="827.410156" xlink:href="#DejaVuSans-32"/>
      <use x="859.197266" xlink:href="#DejaVuSans-100"/>
      <use x="922.673828" xlink:href="#DejaVuSans-105"/>
      <use x="950.457031" xlink:href="#DejaVuSans-109"/>
      <use x="1047.869141" xlink:href="#DejaVuSans-101"/>
      <use x="1109.392578" xlink:href="#DejaVuSans-110"/>
      <use x="1172.771484" xlink:href="#DejaVuSans-115"/>
      <use x="1224.871094" xlink:href="#DejaVuSans-105"/>
      <use x="1252.654297" xlink:href="#DejaVuSans-111"/>
      <use x="1313.835938" xlink:href="#DejaVuSans-110"/>
      <use x="1377.214844" xlink:href="#DejaVuSans-41"/>
     </g>
    </g>
   </g>
   <g id="matplotlib.axis_2">
    <g id="ytick_1">
     <g id="line2d_21">
      <path clip-path="url(#p2861ec7dc1)" d="M 57.6 298.944 
L 338.688 298.944 
" style="fill:none;stroke:#b0b0b0;stroke-linecap:square;stroke-width:0.8;"/>
     </g>
     <g id="line2d_22">
      <defs>
       <path d="M 0 0 
L -3.5 0 
" id="md8fc90f5ad" style="stroke:#000000;stroke-width:0.8;"/>
      </defs>
      <g>
       <use style="stroke:#000000;stroke-width:0.8;" x="57.6" xlink:href="#md8fc90f5ad" y="298.944"/>
      </g>
     </g>
     <g id="text_6">
      <!-- 0.0 -->
      <g transform="translate(25.155 305.02275)scale(0.16 -0.16)">
       <defs>
        <path d="M 10.6875 12.40625 
L 21 12.40625 
L 21 0 
L 10.6875 0 
z
" id="DejaVuSans-46"/>
       </defs>
       <use xlink:href="#DejaVuSans-48"/>
       <use x="63.623047" xlink:href="#DejaVuSans-46"/>
       <use x="95.410156" xlink:href="#DejaVuSans-48"/>
      </g>
     </g>
    </g>
    <g id="ytick_2">
     <g id="line2d_23">
      <path clip-path="url(#p2861ec7dc1)" d="M 57.6 245.22202 
L 338.688 245.22202 
" style="fill:none;stroke:#b0b0b0;stroke-linecap:square;stroke-width:0.8;"/>
     </g>
     <g id="line2d_24">
      <g>
       <use style="stroke:#000000;stroke-width:0.8;" x="57.6" xlink:href="#md8fc90f5ad" y="245.22202"/>
      </g>
     </g>
     <g id="text_7">
      <!-- 0.2 -->
      <g transform="translate(25.155 251.30077)scale(0.16 -0.16)">
       <use xlink:href="#DejaVuSans-48"/>
       <use x="63.623047" xlink:href="#DejaVuSans-46"/>
       <use x="95.410156" xlink:href="#DejaVuSans-50"/>
      </g>
     </g>
    </g>
    <g id="ytick_3">
     <g id="line2d_25">
      <path clip-path="url(#p2861ec7dc1)" d="M 57.6 191.50004 
L 338.688 191.50004 
" style="fill:none;stroke:#b0b0b0;stroke-linecap:square;stroke-width:0.8;"/>
     </g>
     <g id="line2d_26">
      <g>
       <use style="stroke:#000000;stroke-width:0.8;" x="57.6" xlink:href="#md8fc90f5ad" y="191.50004"/>
      </g>
     </g>
     <g id="text_8">
      <!-- 0.4 -->
      <g transform="translate(25.155 197.57879)scale(0.16 -0.16)">
       <use xlink:href="#DejaVuSans-48"/>
       <use x="63.623047" xlink:href="#DejaVuSans-46"/>
       <use x="95.410156" xlink:href="#DejaVuSans-52"/>
      </g>
     </g>
    </g>
    <g id="ytick_4">
     <g id="line2d_27">
      <path clip-path="url(#p2861ec7dc1)" d="M 57.6 137.778059 
L 338.688 137.778059 
" style="fill:none;stroke:#b0b0b0;stroke-linecap:square;stroke-width:0.8;"/>
     </g>
     <g id="line2d_28">
      <g>
       <use style="stroke:#000000;stroke-width:0.8;" x="57.6" xlink:href="#md8fc90f5ad" y="137.778059"/>
      </g>
     </g>
     <g id="text_9">
      <!-- 0.6 -->
      <g transform="translate(25.155 143.856809)scale(0.16 -0.16)">
       <use xlink:href="#DejaVuSans-48"/>
       <use x="63.623047" xlink:href="#DejaVuSans-46"/>
       <use x="95.410156" xlink:href="#DejaVuSans-54"/>
      </g>
     </g>
    </g>
    <g id="ytick_5">
     <g id="line2d_29">
      <path clip-path="url(#p2861ec7dc1)" d="M 57.6 84.056079 
L 338.688 84.056079 
" style="fill:none;stroke:#b0b0b0;stroke-linecap:square;stroke-width:0.8;"/>
     </g>
     <g id="line2d_30">
      <g>
       <use style="stroke:#000000;stroke-width:0.8;" x="57.6" xlink:href="#md8fc90f5ad" y="84.056079"/>
      </g>
     </g>
     <g id="text_10">
      <!-- 0.8 -->
      <g transform="translate(25.155 90.134829)scale(0.16 -0.16)">
       <defs>
        <path d="M 31.78125 34.625 
Q 24.75 34.625 20.71875 30.859375 
Q 16.703125 27.09375 16.703125 20.515625 
Q 16.703125 13.921875 20.71875 10.15625 
Q 24.75 6.390625 31.78125 6.390625 
Q 38.8125 6.390625 42.859375 10.171875 
Q 46.921875 13.96875 46.921875 20.515625 
Q 46.921875 27.09375 42.890625 30.859375 
Q 38.875 34.625 31.78125 34.625 
z
M 21.921875 38.8125 
Q 15.578125 40.375 12.03125 44.71875 
Q 8.5 49.078125 8.5 55.328125 
Q 8.5 64.0625 14.71875 69.140625 
Q 20.953125 74.21875 31.78125 74.21875 
Q 42.671875 74.21875 48.875 69.140625 
Q 55.078125 64.0625 55.078125 55.328125 
Q 55.078125 49.078125 51.53125 44.71875 
Q 48 40.375 41.703125 38.8125 
Q 48.828125 37.15625 52.796875 32.3125 
Q 56.78125 27.484375 56.78125 20.515625 
Q 56.78125 9.90625 50.3125 4.234375 
Q 43.84375 -1.421875 31.78125 -1.421875 
Q 19.734375 -1.421875 13.25 4.234375 
Q 6.78125 9.90625 6.78125 20.515625 
Q 6.78125 27.484375 10.78125 32.3125 
Q 14.796875 37.15625 21.921875 38.8125 
z
M 18.3125 54.390625 
Q 18.3125 48.734375 21.84375 45.5625 
Q 25.390625 42.390625 31.78125 42.390625 
Q 38.140625 42.390625 41.71875 45.5625 
Q 45.3125 48.734375 45.3125 54.390625 
Q 45.3125 60.0625 41.71875 63.234375 
Q 38.140625 66.40625 31.78125 66.40625 
Q 25.390625 66.40625 21.84375 63.234375 
Q 18.3125 60.0625 18.3125 54.390625 
z
" id="DejaVuSans-56"/>
       </defs>
       <use xlink:href="#DejaVuSans-48"/>
       <use x="63.623047" xlink:href="#DejaVuSans-46"/>
       <use x="95.410156" xlink:href="#DejaVuSans-56"/>
      </g>
     </g>
    </g>
    <g id="ytick_6">
     <g id="line2d_31">
      <path clip-path="url(#p2861ec7dc1)" d="M 57.6 30.334099 
L 338.688 30.334099 
" style="fill:none;stroke:#b0b0b0;stroke-linecap:square;stroke-width:0.8;"/>
     </g>
     <g id="line2d_32">
      <g>
       <use style="stroke:#000000;stroke-width:0.8;" x="57.6" xlink:href="#md8fc90f5ad" y="30.334099"/>
      </g>
     </g>
     <g id="text_11">
      <!-- 1.0 -->
      <g transform="translate(25.155 36.412849)scale(0.16 -0.16)">
       <use xlink:href="#DejaVuSans-49"/>
       <use x="63.623047" xlink:href="#DejaVuSans-46"/>
       <use x="95.410156" xlink:href="#DejaVuSans-48"/>
      </g>
     </g>
    </g>
    <g id="text_12">
     <!-- Fraction of function,target pairs -->
     <g transform="translate(17.619531 297.681)rotate(-90)scale(0.17 -0.17)">
      <defs>
       <path d="M 9.8125 72.90625 
L 51.703125 72.90625 
L 51.703125 64.59375 
L 19.671875 64.59375 
L 19.671875 43.109375 
L 48.578125 43.109375 
L 48.578125 34.8125 
L 19.671875 34.8125 
L 19.671875 0 
L 9.8125 0 
z
" id="DejaVuSans-70"/>
       <path d="M 41.109375 46.296875 
Q 39.59375 47.171875 37.8125 47.578125 
Q 36.03125 48 33.890625 48 
Q 26.265625 48 22.1875 43.046875 
Q 18.109375 38.09375 18.109375 28.8125 
L 18.109375 0 
L 9.078125 0 
L 9.078125 54.6875 
L 18.109375 54.6875 
L 18.109375 46.1875 
Q 20.953125 51.171875 25.484375 53.578125 
Q 30.03125 56 36.53125 56 
Q 37.453125 56 38.578125 55.875 
Q 39.703125 55.765625 41.0625 55.515625 
z
" id="DejaVuSans-114"/>
       <path d="M 48.78125 52.59375 
L 48.78125 44.1875 
Q 44.96875 46.296875 41.140625 47.34375 
Q 37.3125 48.390625 33.40625 48.390625 
Q 24.65625 48.390625 19.8125 42.84375 
Q 14.984375 37.3125 14.984375 27.296875 
Q 14.984375 17.28125 19.8125 11.734375 
Q 24.65625 6.203125 33.40625 6.203125 
Q 37.3125 6.203125 41.140625 7.25 
Q 44.96875 8.296875 48.78125 10.40625 
L 48.78125 2.09375 
Q 45.015625 0.34375 40.984375 -0.53125 
Q 36.96875 -1.421875 32.421875 -1.421875 
Q 20.0625 -1.421875 12.78125 6.34375 
Q 5.515625 14.109375 5.515625 27.296875 
Q 5.515625 40.671875 12.859375 48.328125 
Q 20.21875 56 33.015625 56 
Q 37.15625 56 41.109375 55.140625 
Q 45.0625 54.296875 48.78125 52.59375 
z
" id="DejaVuSans-99"/>
       <path d="M 18.3125 70.21875 
L 18.3125 54.6875 
L 36.8125 54.6875 
L 36.8125 47.703125 
L 18.3125 47.703125 
L 18.3125 18.015625 
Q 18.3125 11.328125 20.140625 9.421875 
Q 21.96875 7.515625 27.59375 7.515625 
L 36.8125 7.515625 
L 36.8125 0 
L 27.59375 0 
Q 17.1875 0 13.234375 3.875 
Q 9.28125 7.765625 9.28125 18.015625 
L 9.28125 47.703125 
L 2.6875 47.703125 
L 2.6875 54.6875 
L 9.28125 54.6875 
L 9.28125 70.21875 
z
" id="DejaVuSans-116"/>
       <path d="M 8.5 21.578125 
L 8.5 54.6875 
L 17.484375 54.6875 
L 17.484375 21.921875 
Q 17.484375 14.15625 20.5 10.265625 
Q 23.53125 6.390625 29.59375 6.390625 
Q 36.859375 6.390625 41.078125 11.03125 
Q 45.3125 15.671875 45.3125 23.6875 
L 45.3125 54.6875 
L 54.296875 54.6875 
L 54.296875 0 
L 45.3125 0 
L 45.3125 8.40625 
Q 42.046875 3.421875 37.71875 1 
Q 33.40625 -1.421875 27.6875 -1.421875 
Q 18.265625 -1.421875 13.375 4.4375 
Q 8.5 10.296875 8.5 21.578125 
z
M 31.109375 56 
z
" id="DejaVuSans-117"/>
       <path d="M 11.71875 12.40625 
L 22.015625 12.40625 
L 22.015625 4 
L 14.015625 -11.625 
L 7.71875 -11.625 
L 11.71875 4 
z
" id="DejaVuSans-44"/>
       <path d="M 18.109375 8.203125 
L 18.109375 -20.796875 
L 9.078125 -20.796875 
L 9.078125 54.6875 
L 18.109375 54.6875 
L 18.109375 46.390625 
Q 20.953125 51.265625 25.265625 53.625 
Q 29.59375 56 35.59375 56 
Q 45.5625 56 51.78125 48.09375 
Q 58.015625 40.1875 58.015625 27.296875 
Q 58.015625 14.40625 51.78125 6.484375 
Q 45.5625 -1.421875 35.59375 -1.421875 
Q 29.59375 -1.421875 25.265625 0.953125 
Q 20.953125 3.328125 18.109375 8.203125 
z
M 48.6875 27.296875 
Q 48.6875 37.203125 44.609375 42.84375 
Q 40.53125 48.484375 33.40625 48.484375 
Q 26.265625 48.484375 22.1875 42.84375 
Q 18.109375 37.203125 18.109375 27.296875 
Q 18.109375 17.390625 22.1875 11.75 
Q 26.265625 6.109375 33.40625 6.109375 
Q 40.53125 6.109375 44.609375 11.75 
Q 48.6875 17.390625 48.6875 27.296875 
z
" id="DejaVuSans-112"/>
      </defs>
      <use xlink:href="#DejaVuSans-70"/>
      <use x="50.269531" xlink:href="#DejaVuSans-114"/>
      <use x="91.382812" xlink:href="#DejaVuSans-97"/>
      <use x="152.662109" xlink:href="#DejaVuSans-99"/>
      <use x="207.642578" xlink:href="#DejaVuSans-116"/>
      <use x="246.851562" xlink:href="#DejaVuSans-105"/>
      <use x="274.634766" xlink:href="#DejaVuSans-111"/>
      <use x="335.816406" xlink:href="#DejaVuSans-110"/>
      <use x="399.195312" xlink:href="#DejaVuSans-32"/>
      <use x="430.982422" xlink:href="#DejaVuSans-111"/>
      <use x="492.164062" xlink:href="#DejaVuSans-102"/>
      <use x="527.369141" xlink:href="#DejaVuSans-32"/>
      <use x="559.15625" xlink:href="#DejaVuSans-102"/>
      <use x="594.361328" xlink:href="#DejaVuSans-117"/>
      <use x="657.740234" xlink:href="#DejaVuSans-110"/>
      <use x="721.119141" xlink:href="#DejaVuSans-99"/>
      <use x="776.099609" xlink:href="#DejaVuSans-116"/>
      <use x="815.308594" xlink:href="#DejaVuSans-105"/>
      <use x="843.091797" xlink:href="#DejaVuSans-111"/>
      <use x="904.273438" xlink:href="#DejaVuSans-110"/>
      <use x="967.652344" xlink:href="#DejaVuSans-44"/>
      <use x="999.439453" xlink:href="#DejaVuSans-116"/>
      <use x="1038.648438" xlink:href="#DejaVuSans-97"/>
      <use x="1099.927734" xlink:href="#DejaVuSans-114"/>
      <use x="1139.291016" xlink:href="#DejaVuSans-103"/>
      <use x="1202.767578" xlink:href="#DejaVuSans-101"/>
      <use x="1264.291016" xlink:href="#DejaVuSans-116"/>
      <use x="1303.5" xlink:href="#DejaVuSans-32"/>
      <use x="1335.287109" xlink:href="#DejaVuSans-112"/>
      <use x="1398.763672" xlink:href="#DejaVuSans-97"/>
      <use x="1460.042969" xlink:href="#DejaVuSans-105"/>
      <use x="1487.826172" xlink:href="#DejaVuSans-114"/>
      <use x="1528.939453" xlink:href="#DejaVuSans-115"/>
     </g>
    </g>
   </g>
   <g id="line2d_33">
    <defs>
     <path d="M 0 1.5 
C 0.397805 1.5 0.77937 1.341951 1.06066 1.06066 
C 1.341951 0.77937 1.5 0.397805 1.5 0 
C 1.5 -0.397805 1.341951 -0.77937 1.06066 -1.06066 
C 0.77937 -1.341951 0.397805 -1.5 0 -1.5 
C -0.397805 -1.5 -0.77937 -1.341951 -1.06066 -1.06066 
C -1.341951 -0.77937 -1.5 -0.397805 -1.5 0 
C -1.5 0.397805 -1.341951 0.77937 -1.06066 1.06066 
C -0.77937 1.341951 -0.397805 1.5 0 1.5 
z
" id="ma7d687a175" style="stroke:#f5deb3;"/>
    </defs>
    <g>
     <use style="fill:#f5deb3;stroke:#f5deb3;" x="242.162337" xlink:href="#ma7d687a175" y="62.752535"/>
     <use style="fill:#f5deb3;stroke:#f5deb3;" x="242.162337" xlink:href="#ma7d687a175" y="62.752535"/>
    </g>
   </g>
   <g id="line2d_34">
    <defs>
     <path d="M 0 1.5 
C 0.397805 1.5 0.77937 1.341951 1.06066 1.06066 
C 1.341951 0.77937 1.5 0.397805 1.5 0 
C 1.5 -0.397805 1.341951 -0.77937 1.06066 -1.06066 
C 0.77937 -1.341951 0.397805 -1.5 0 -1.5 
C -0.397805 -1.5 -0.77937 -1.341951 -1.06066 -1.06066 
C -1.341951 -0.77937 -1.5 -0.397805 -1.5 0 
C -1.5 0.397805 -1.341951 0.77937 -1.06066 1.06066 
C -0.77937 1.341951 -0.397805 1.5 0 1.5 
z
" id="m53e1e1247a" style="stroke:#000080;"/>
    </defs>
    <g>
     <use style="fill:#000080;stroke:#000080;" x="257.497689" xlink:href="#m53e1e1247a" y="99.802177"/>
     <use style="fill:#000080;stroke:#000080;" x="257.497689" xlink:href="#m53e1e1247a" y="99.802177"/>
    </g>
   </g>
   <g id="line2d_35">
    <path d="M 17.444571 298.944 
L 17.444571 294.775915 
L 29.53256 294.775915 
L 29.53256 293.849674 
L 41.620548 293.849674 
L 41.620548 292.460313 
L 51.379845 292.460313 
L 51.379845 289.68159 
L 53.708537 289.68159 
L 53.708537 287.829108 
L 55.762588 287.829108 
L 55.762588 285.513505 
L 59.262141 285.513505 
L 59.262141 285.050384 
L 63.467834 285.050384 
L 63.467834 284.587264 
L 71.35013 284.587264 
L 71.35013 283.661023 
L 72.125336 283.661023 
L 72.125336 281.808541 
L 77.884514 281.808541 
L 77.884514 281.34542 
L 81.775977 281.34542 
L 81.775977 280.8823 
L 83.037197 280.8823 
L 83.037197 280.419179 
L 95.326798 280.419179 
L 95.326798 279.956059 
L 104.23523 279.956059 
L 104.23523 279.029818 
L 105.51043 279.029818 
L 105.51043 278.566697 
L 106.698704 278.566697 
L 106.698704 278.103577 
L 107.811151 278.103577 
L 107.811151 277.640456 
L 110.859585 277.640456 
L 110.859585 277.177336 
L 116.081002 277.177336 
L 116.081002 276.714215 
L 116.202531 276.714215 
L 116.202531 276.251095 
L 118.681952 276.251095 
L 118.681952 275.787974 
L 121.355214 275.787974 
L 121.355214 275.324854 
L 121.756135 275.324854 
L 121.84399 273.935492 
L 122.782271 273.935492 
L 122.782271 273.472371 
L 123.672636 273.472371 
L 123.672636 272.54613 
L 124.406624 272.54613 
L 124.406624 271.619889 
L 126.47328 271.619889 
L 126.47328 271.156769 
L 127.611382 271.156769 
L 127.611382 270.693648 
L 128.441249 270.693648 
L 128.441249 270.230528 
L 130.425122 270.230528 
L 130.425122 269.767407 
L 133.82209 269.767407 
L 133.82209 269.304287 
L 137.180776 269.304287 
L 137.180776 268.841166 
L 138.711825 268.841166 
L 138.711825 268.378046 
L 140.782525 268.378046 
L 140.782525 267.914925 
L 141.292695 267.914925 
L 141.292695 267.451805 
L 143.349938 267.451805 
L 143.349938 266.988684 
L 144.830078 266.988684 
L 144.830078 266.062443 
L 146.675697 266.062443 
L 146.675697 265.599323 
L 148.112924 265.599323 
L 148.112924 264.673082 
L 151.203194 264.673082 
L 151.203194 263.746841 
L 155.28405 263.746841 
L 155.28405 262.8206 
L 159.648178 262.8206 
L 159.648178 262.357479 
L 160.030058 262.357479 
L 160.030058 261.894358 
L 161.127947 261.894358 
L 161.127947 261.431238 
L 161.658719 261.431238 
L 161.658719 260.968117 
L 162.397949 260.968117 
L 162.397949 260.504997 
L 162.589615 260.504997 
L 162.589615 260.041876 
L 164.398623 260.041876 
L 164.398623 259.115635 
L 165.848767 259.115635 
L 165.848767 258.189394 
L 166.732564 258.189394 
L 166.732564 257.263153 
L 167.646779 257.263153 
L 167.646779 256.800033 
L 168.026147 256.800033 
L 168.026147 256.336912 
L 169.371623 256.336912 
L 169.443254 254.48443 
L 169.931039 254.48443 
L 169.931039 254.02131 
L 170.086056 254.02131 
L 170.086056 253.558189 
L 171.113451 253.558189 
L 171.113451 253.095069 
L 171.786237 253.095069 
L 171.786237 252.168828 
L 175.28738 252.168828 
L 175.28738 251.242587 
L 175.992822 251.242587 
L 175.992822 250.779466 
L 176.574218 250.779466 
L 176.574218 250.316346 
L 176.774433 250.316346 
L 176.774433 249.390104 
L 177.699723 249.390104 
L 177.699723 248.463863 
L 178.867253 248.463863 
L 178.947021 247.537622 
L 179.074226 247.537622 
L 179.164521 246.611381 
L 181.145277 246.611381 
L 181.145277 246.148261 
L 181.316908 246.148261 
L 181.316908 245.68514 
L 181.857008 245.68514 
L 181.857008 245.22202 
L 181.985629 245.22202 
L 181.985629 244.295779 
L 182.30993 244.295779 
L 182.30993 243.832658 
L 183.055329 243.832658 
L 183.055329 242.906417 
L 183.952795 242.906417 
L 184.031012 241.980176 
L 186.472991 241.980176 
L 186.472991 241.053935 
L 186.940503 241.053935 
L 186.940503 240.590815 
L 187.158256 240.590815 
L 187.158256 239.664574 
L 187.440692 239.664574 
L 187.440692 239.201453 
L 187.751683 239.201453 
L 187.751683 238.275212 
L 188.736138 238.275212 
L 188.736138 237.348971 
L 189.234956 237.348971 
L 189.234956 236.42273 
L 189.419646 236.42273 
L 189.509453 235.033368 
L 189.544705 235.033368 
L 189.544705 234.570248 
L 189.729734 234.570248 
L 189.729734 234.107127 
L 189.941972 234.107127 
L 189.941972 233.644007 
L 190.467959 233.644007 
L 190.571279 232.254645 
L 190.739039 232.254645 
L 190.739039 231.328404 
L 190.896011 231.328404 
L 190.896011 230.865284 
L 192.171859 230.865284 
L 192.171859 230.402163 
L 192.610567 230.402163 
L 192.610567 229.475922 
L 193.708358 229.475922 
L 193.708358 228.549681 
L 193.84861 228.549681 
L 193.95692 227.16032 
L 194.026194 227.16032 
L 194.026194 226.234079 
L 194.194382 226.234079 
L 194.194382 225.307837 
L 194.345885 225.307837 
L 194.376029 223.455355 
L 195.24976 223.455355 
L 195.342611 222.065994 
L 196.2209 222.065994 
L 196.2209 221.139753 
L 196.659314 221.139753 
L 196.731822 219.750391 
L 197.237497 219.750391 
L 197.275795 217.897909 
L 197.539835 217.897909 
L 197.539835 216.971668 
L 197.78587 216.971668 
L 197.78587 216.508548 
L 198.36333 216.508548 
L 198.36333 216.045427 
L 198.702553 216.045427 
L 198.702553 215.582307 
L 199.440333 215.582307 
L 199.536319 213.729825 
L 199.572432 213.729825 
L 199.572432 213.266704 
L 199.717149 213.266704 
L 199.717149 212.340463 
L 199.87716 212.340463 
L 199.87716 211.414222 
L 200.374791 211.414222 
L 200.468195 209.56174 
L 201.209057 209.56174 
L 201.209057 209.098619 
L 201.421476 209.098619 
L 201.461645 207.709258 
L 201.656155 207.709258 
L 201.656155 206.783017 
L 201.779709 206.783017 
L 201.828887 205.856776 
L 202.370405 205.856776 
L 202.42744 204.467414 
L 202.55038 204.467414 
L 202.55038 203.541173 
L 203.575121 203.541173 
L 203.668173 201.225571 
L 203.760732 201.225571 
L 203.760732 200.76245 
L 203.931335 200.76245 
L 204.009515 198.909968 
L 204.318777 198.909968 
L 204.318777 197.983727 
L 204.584954 197.983727 
L 204.584954 197.057486 
L 204.797495 197.057486 
L 204.82233 195.668124 
L 205.109492 195.668124 
L 205.170416 194.741883 
L 205.534086 194.741883 
L 205.534086 194.278763 
L 205.94471 194.278763 
L 205.94471 193.815642 
L 206.090423 193.815642 
L 206.090423 192.889401 
L 206.220705 192.889401 
L 206.312086 191.96316 
L 206.658012 191.96316 
L 206.658012 191.50004 
L 206.872287 191.50004 
L 206.946016 189.184437 
L 207.120914 189.184437 
L 207.120914 188.721316 
L 207.841783 188.721316 
L 207.903026 187.795075 
L 208.206679 187.795075 
L 208.234529 186.868834 
L 208.477104 186.868834 
L 208.578654 185.479473 
L 208.703111 185.479473 
L 208.736791 184.553232 
L 208.855951 184.553232 
L 208.855951 184.090111 
L 209.054432 184.090111 
L 209.054432 183.626991 
L 209.404599 183.626991 
L 209.404599 183.16387 
L 209.591247 183.16387 
L 209.591247 182.237629 
L 209.752126 182.237629 
L 209.824816 178.995786 
L 209.958653 178.995786 
L 210.066993 177.143304 
L 210.417794 177.143304 
L 210.417794 176.680183 
L 210.573151 176.680183 
L 210.573151 176.217062 
L 210.75365 176.217062 
L 210.809492 175.290821 
L 211.169606 175.290821 
L 211.169606 174.827701 
L 211.344066 174.827701 
L 211.344066 174.36458 
L 211.519616 174.36458 
L 211.626344 172.975219 
L 211.724072 172.975219 
L 211.743552 172.048978 
L 212.639006 172.048978 
L 212.744848 171.122737 
L 212.973014 171.122737 
L 213.001503 169.733375 
L 213.163773 169.733375 
L 213.166337 168.807134 
L 213.691536 168.807134 
L 213.691536 167.880893 
L 214.171047 167.880893 
L 214.22859 166.954652 
L 214.401172 166.954652 
L 214.487799 164.175929 
L 214.892024 164.175929 
L 214.892024 163.712808 
L 215.100377 163.712808 
L 215.155562 162.786567 
L 215.247839 162.786567 
L 215.335516 160.934085 
L 215.503445 160.934085 
L 215.503445 160.470965 
L 215.903184 160.470965 
L 215.983472 158.618483 
L 216.015959 158.618483 
L 216.015959 158.155362 
L 216.549578 158.155362 
L 216.635738 156.766001 
L 216.675802 156.766001 
L 216.675802 155.83976 
L 216.901668 155.83976 
L 217.006877 154.913519 
L 217.037701 154.913519 
L 217.069588 153.061037 
L 217.174903 153.061037 
L 217.174903 152.597916 
L 217.350127 152.597916 
L 217.457229 151.208554 
L 217.475623 151.208554 
L 217.475623 150.745434 
L 217.904948 150.745434 
L 217.972125 149.356072 
L 218.260561 149.356072 
L 218.366382 147.50359 
L 218.609237 147.50359 
L 218.685991 146.577349 
L 218.823672 146.577349 
L 218.856999 145.651108 
L 218.990839 145.651108 
L 219.007685 144.724867 
L 219.226526 144.724867 
L 219.320768 143.335506 
L 219.409128 143.335506 
L 219.409128 142.409265 
L 219.586451 142.409265 
L 219.586451 141.483024 
L 220.050788 141.483024 
L 220.050788 141.019903 
L 220.300396 141.019903 
L 220.300396 140.093662 
L 220.41657 140.093662 
L 220.5092 139.167421 
L 220.528768 139.167421 
L 220.569666 138.24118 
L 221.402724 138.24118 
L 221.501115 137.314939 
L 221.655763 137.314939 
L 221.697533 136.388698 
L 221.978586 136.388698 
L 221.978586 135.462457 
L 222.155677 135.462457 
L 222.185991 134.073095 
L 222.384641 134.073095 
L 222.415245 133.146854 
L 222.873322 133.146854 
L 222.946761 131.294372 
L 223.103002 131.294372 
L 223.174563 130.368131 
L 223.411864 130.368131 
L 223.411864 129.905011 
L 224.064867 129.905011 
L 224.157181 128.515649 
L 224.337778 128.515649 
L 224.34404 127.126287 
L 224.70837 127.126287 
L 224.70837 126.663167 
L 224.871827 126.663167 
L 224.912393 125.736926 
L 225.470174 125.736926 
L 225.470174 125.273805 
L 225.732654 125.273805 
L 225.732654 124.347564 
L 226.062026 124.347564 
L 226.062026 123.884444 
L 226.286074 123.884444 
L 226.286074 122.958203 
L 226.496866 122.958203 
L 226.496866 122.495082 
L 226.970511 122.495082 
L 226.970511 121.568841 
L 227.10746 121.568841 
L 227.10746 121.105721 
L 227.761798 121.105721 
L 227.872351 119.716359 
L 227.938907 119.716359 
L 227.938907 119.253239 
L 228.399768 119.253239 
L 228.399768 118.326998 
L 228.942189 118.326998 
L 229.03024 117.400757 
L 229.282695 117.400757 
L 229.282695 116.474516 
L 230.258181 116.474516 
L 230.258181 115.548274 
L 230.52772 115.548274 
L 230.52772 115.085154 
L 230.991839 115.085154 
L 230.991839 114.158913 
L 231.285434 114.158913 
L 231.359811 112.769551 
L 231.43984 112.769551 
L 231.43984 112.306431 
L 232.24086 112.306431 
L 232.24086 111.38019 
L 232.953952 111.38019 
L 232.953952 110.917069 
L 233.156873 110.917069 
L 233.156873 110.453949 
L 234.2778 110.453949 
L 234.291754 109.064587 
L 235.365626 109.064587 
L 235.398222 108.138346 
L 235.858614 108.138346 
L 235.858614 107.212105 
L 236.209521 107.212105 
L 236.209521 106.748985 
L 236.886353 106.748985 
L 236.886353 105.822744 
L 237.404947 105.822744 
L 237.404947 105.359623 
L 238.517887 105.359623 
L 238.517887 104.896503 
L 238.891917 104.896503 
L 238.891917 103.970262 
L 240.484448 103.970262 
L 240.484448 103.507141 
L 244.579703 103.507141 
L 244.579703 103.04402 
L 251.944661 103.04402 
L 251.944661 102.117779 
L 256.710553 102.117779 
L 256.710553 101.191538 
L 256.852978 101.191538 
L 256.852978 100.265297 
L 257.497689 100.265297 
L 257.497689 99.802177 
L 338.688 99.802177 
L 338.688 99.802177 
" style="fill:none;stroke:#000080;stroke-linecap:square;stroke-width:1.5;"/>
   </g>
   <g id="line2d_36">
    <defs>
     <path d="M 0 6 
C 1.591219 6 3.117479 5.367802 4.242641 4.242641 
C 5.367802 3.117479 6 1.591219 6 0 
C 6 -1.591219 5.367802 -3.117479 4.242641 -4.242641 
C 3.117479 -5.367802 1.591219 -6 0 -6 
C -1.591219 -6 -3.117479 -5.367802 -4.242641 -4.242641 
C -5.367802 -3.117479 -6 -1.591219 -6 0 
C -6 1.591219 -5.367802 3.117479 -4.242641 4.242641 
C -3.117479 5.367802 -1.591219 6 0 6 
z
" id="mfde127012a" style="stroke:#000080;stroke-width:1.5;"/>
    </defs>
    <g>
     <use style="fill-opacity:0;stroke:#000080;stroke-width:1.5;" x="161.658719" xlink:href="#mfde127012a" y="261.431238"/>
     <use style="fill-opacity:0;stroke:#000080;stroke-width:1.5;" x="205.534086" xlink:href="#mfde127012a" y="194.278763"/>
     <use style="fill-opacity:0;stroke:#000080;stroke-width:1.5;" x="257.497689" xlink:href="#mfde127012a" y="100.265297"/>
     <use style="fill-opacity:0;stroke:#000080;stroke-width:1.5;" x="257.497689" xlink:href="#mfde127012a" y="99.802177"/>
     <use style="fill-opacity:0;stroke:#000080;stroke-width:1.5;" x="338.688" xlink:href="#mfde127012a" y="99.802177"/>
    </g>
   </g>
   <g id="line2d_37">
    <path style="fill:none;stroke:#000080;stroke-linecap:square;stroke-width:1.5;"/>
    <g/>
   </g>
   <g id="line2d_38">
    <path clip-path="url(#p2861ec7dc1)" d="M 258.37716 99.802177 
" style="fill:none;stroke:#000080;stroke-linecap:square;stroke-width:1.5;"/>
    <defs>
     <path d="M -12 12 
L 12 -12 
M -12 -12 
L 12 12 
" id="m810fe19dd4" style="stroke:#000080;"/>
    </defs>
    <g clip-path="url(#p2861ec7dc1)">
     <use style="fill:#000080;stroke:#000080;" x="258.37716" xlink:href="#m810fe19dd4" y="99.802177"/>
    </g>
   </g>
   <g id="line2d_39">
    <defs>
     <path d="M 0 1.5 
C 0.397805 1.5 0.77937 1.341951 1.06066 1.06066 
C 1.341951 0.77937 1.5 0.397805 1.5 0 
C 1.5 -0.397805 1.341951 -0.77937 1.06066 -1.06066 
C 0.77937 -1.341951 0.397805 -1.5 0 -1.5 
C -0.397805 -1.5 -0.77937 -1.341951 -1.06066 -1.06066 
C -1.341951 -0.77937 -1.5 -0.397805 -1.5 0 
C -1.5 0.397805 -1.341951 0.77937 -1.06066 1.06066 
C -0.77937 1.341951 -0.397805 1.5 0 1.5 
z
" id="m7c34b25170" style="stroke:#ff00ff;"/>
    </defs>
    <g>
     <use style="fill:#ff00ff;stroke:#ff00ff;" x="257.599406" xlink:href="#m7c34b25170" y="167.880893"/>
     <use style="fill:#ff00ff;stroke:#ff00ff;" x="257.599406" xlink:href="#m7c34b25170" y="167.880893"/>
    </g>
   </g>
   <g id="line2d_40">
    <path d="M 17.444571 298.944 
L 17.444571 297.554638 
L 121.128432 297.554638 
L 121.128432 297.091518 
L 125.219619 297.091518 
L 125.219619 296.628397 
L 125.541584 296.628397 
L 125.541584 296.165277 
L 127.954256 296.165277 
L 127.954256 295.702156 
L 130.796184 295.702156 
L 130.796184 295.239036 
L 131.864229 295.239036 
L 131.888878 293.849674 
L 132.109167 293.849674 
L 132.109167 293.386554 
L 132.446401 293.386554 
L 132.446401 292.923433 
L 132.588957 292.923433 
L 132.588957 292.460313 
L 132.753813 292.460313 
L 132.753813 291.997192 
L 132.986651 291.997192 
L 132.986651 291.534072 
L 133.398082 291.534072 
L 133.398082 291.070951 
L 134.106373 291.070951 
L 134.149701 289.68159 
L 134.428735 289.68159 
L 134.428735 288.755349 
L 134.661403 288.755349 
L 134.724323 287.829108 
L 135.240011 287.829108 
L 135.280614 285.976625 
L 136.189322 285.976625 
L 136.189322 285.513505 
L 136.380754 285.513505 
L 136.380754 285.050384 
L 136.570107 285.050384 
L 136.626514 283.661023 
L 136.701442 283.661023 
L 136.701442 282.271661 
L 136.887363 282.271661 
L 136.997972 280.8823 
L 137.469333 280.8823 
L 137.469333 280.419179 
L 137.963097 280.419179 
L 138.032507 279.029818 
L 138.510793 279.029818 
L 138.578062 277.640456 
L 138.645071 277.640456 
L 138.645071 277.177336 
L 138.861092 277.177336 
L 138.861092 276.714215 
L 139.730821 276.714215 
L 139.8092 275.324854 
L 140.042245 275.324854 
L 140.042245 274.398612 
L 140.363363 274.398612 
L 140.454035 273.472371 
L 140.693549 273.472371 
L 140.782525 272.54613 
L 140.915143 272.54613 
L 140.915143 272.08301 
L 141.148448 272.08301 
L 141.191848 270.693648 
L 141.335737 270.693648 
L 141.421504 269.767407 
L 141.478449 269.767407 
L 141.478449 269.304287 
L 141.746425 269.304287 
L 141.788363 266.988684 
L 142.106582 266.988684 
L 142.188649 266.062443 
L 142.256745 266.062443 
L 142.256745 265.599323 
L 142.579953 265.599323 
L 142.579953 265.136202 
L 142.818488 265.136202 
L 142.857929 264.209961 
L 142.975718 264.209961 
L 142.975718 263.746841 
L 143.131543 263.746841 
L 143.131543 263.28372 
L 143.260342 263.28372 
L 143.260342 262.8206 
L 143.388196 262.8206 
L 143.388196 262.357479 
L 144.402681 262.357479 
L 144.45069 260.968117 
L 144.806606 260.968117 
L 144.806606 260.504997 
L 145.132366 260.504997 
L 145.224334 258.652515 
L 145.24725 258.652515 
L 145.24725 258.189394 
L 145.406826 258.189394 
L 145.406826 257.726274 
L 146.377764 257.726274 
L 146.474085 256.800033 
L 146.569876 256.800033 
L 146.569876 256.336912 
L 146.738883 256.336912 
L 146.791364 254.48443 
L 147.092675 254.48443 
L 147.092675 254.02131 
L 148.200145 254.02131 
L 148.209809 253.095069 
L 149.030744 253.095069 
L 149.030744 252.631948 
L 150.327083 252.631948 
L 150.327083 251.705707 
L 150.531253 251.705707 
L 150.556607 250.779466 
L 150.758122 250.779466 
L 150.758122 249.853225 
L 152.914832 249.853225 
L 152.914832 249.390104 
L 153.279836 249.390104 
L 153.279836 248.926984 
L 153.686831 248.926984 
L 153.686831 248.000743 
L 154.167129 248.000743 
L 154.167129 247.074502 
L 154.378682 247.074502 
L 154.378682 246.148261 
L 156.514691 246.148261 
L 156.514691 245.68514 
L 156.964915 245.68514 
L 157.034952 244.758899 
L 157.306589 244.758899 
L 157.306589 243.832658 
L 158.249784 243.832658 
L 158.249784 242.906417 
L 158.68438 242.906417 
L 158.68438 241.980176 
L 159.232092 241.980176 
L 159.232092 241.517056 
L 161.164758 241.517056 
L 161.164758 241.053935 
L 161.474555 241.053935 
L 161.474555 240.590815 
L 162.841936 240.590815 
L 162.90029 239.201453 
L 163.303385 239.201453 
L 163.303385 238.738333 
L 166.628709 238.738333 
L 166.722541 237.348971 
L 167.630923 237.348971 
L 167.716371 235.496489 
L 168.400474 235.496489 
L 168.400474 235.033368 
L 170.510761 235.033368 
L 170.612667 233.180886 
L 170.830561 233.180886 
L 170.88856 231.328404 
L 171.600256 231.328404 
L 171.600256 230.865284 
L 172.730183 230.865284 
L 172.730183 230.402163 
L 173.199806 230.402163 
L 173.199806 229.939043 
L 173.933369 229.939043 
L 173.933369 229.475922 
L 176.996497 229.475922 
L 176.996497 228.549681 
L 180.951261 228.549681 
L 180.951261 227.62344 
L 182.872276 227.62344 
L 182.872276 226.697199 
L 183.544898 226.697199 
L 183.544898 225.770958 
L 184.081727 225.770958 
L 184.081727 225.307837 
L 184.342852 225.307837 
L 184.342852 224.381596 
L 185.349926 224.381596 
L 185.349926 223.918476 
L 187.356952 223.918476 
L 187.356952 223.455355 
L 187.846497 223.455355 
L 187.846497 222.529114 
L 188.109267 222.529114 
L 188.109267 222.065994 
L 188.776761 222.065994 
L 188.776761 221.602873 
L 189.871217 221.602873 
L 189.88362 219.750391 
L 191.35374 219.750391 
L 191.459241 218.82415 
L 192.690668 218.82415 
L 192.712519 216.971668 
L 193.182765 216.971668 
L 193.182765 216.508548 
L 193.544729 216.508548 
L 193.544729 215.582307 
L 195.414344 215.582307 
L 195.414344 215.119186 
L 195.676777 215.119186 
L 195.676777 214.192945 
L 196.69231 214.192945 
L 196.69231 213.266704 
L 197.148976 213.266704 
L 197.190381 211.877342 
L 197.953377 211.877342 
L 198.044574 210.02486 
L 198.832388 210.02486 
L 198.832388 209.56174 
L 199.29071 209.56174 
L 199.29071 208.635499 
L 199.66062 208.635499 
L 199.66062 207.709258 
L 200.871825 207.709258 
L 200.871825 207.246137 
L 201.479418 207.246137 
L 201.479418 206.783017 
L 202.022898 206.783017 
L 202.022898 206.319896 
L 204.457942 206.319896 
L 204.457942 205.393655 
L 206.058925 205.393655 
L 206.168918 204.004294 
L 208.047702 204.004294 
L 208.047702 203.541173 
L 209.342034 203.541173 
L 209.342034 202.614932 
L 210.651929 202.614932 
L 210.651929 202.151812 
L 210.819093 202.151812 
L 210.819093 201.225571 
L 211.036618 201.225571 
L 211.092087 199.836209 
L 211.98486 199.836209 
L 211.98486 198.909968 
L 212.225088 198.909968 
L 212.272493 197.983727 
L 213.357771 197.983727 
L 213.357771 197.057486 
L 214.240207 197.057486 
L 214.312585 195.668124 
L 214.480668 195.668124 
L 214.480668 195.205004 
L 214.654852 195.205004 
L 214.654852 194.741883 
L 215.219275 194.741883 
L 215.219275 193.815642 
L 216.132138 193.815642 
L 216.132138 192.889401 
L 216.607639 192.889401 
L 216.607639 192.426281 
L 219.279457 192.426281 
L 219.279457 191.96316 
L 221.055178 191.96316 
L 221.055178 191.50004 
L 222.226651 191.50004 
L 222.326441 189.184437 
L 222.466452 189.184437 
L 222.466452 188.721316 
L 222.810836 188.721316 
L 222.810836 187.795075 
L 223.127371 187.795075 
L 223.127371 187.331955 
L 223.610166 187.331955 
L 223.610166 186.868834 
L 225.035064 186.868834 
L 225.035064 186.405714 
L 225.524754 186.405714 
L 225.524754 185.942593 
L 226.188276 185.942593 
L 226.188276 185.479473 
L 226.829391 185.479473 
L 226.829391 185.016352 
L 228.391399 185.016352 
L 228.391399 184.090111 
L 228.747204 184.090111 
L 228.747204 183.626991 
L 230.852932 183.626991 
L 230.852932 183.16387 
L 232.463531 183.16387 
L 232.463531 182.70075 
L 232.886085 182.70075 
L 232.886085 181.774509 
L 233.561917 181.774509 
L 233.561917 181.311388 
L 234.320044 181.311388 
L 234.320044 180.848268 
L 238.798596 180.848268 
L 238.798596 180.385147 
L 239.40483 180.385147 
L 239.40483 179.922027 
L 239.566248 179.922027 
L 239.566248 178.995786 
L 240.317254 178.995786 
L 240.317254 178.532665 
L 240.432408 178.532665 
L 240.432408 177.606424 
L 240.562605 177.606424 
L 240.562605 177.143304 
L 243.648688 177.143304 
L 243.648688 176.680183 
L 243.97855 176.680183 
L 243.97855 176.217062 
L 246.16809 176.217062 
L 246.16809 175.753942 
L 247.513315 175.753942 
L 247.513315 175.290821 
L 248.222185 175.290821 
L 248.222185 174.36458 
L 248.334616 174.36458 
L 248.395368 173.438339 
L 249.70833 173.438339 
L 249.70833 172.975219 
L 249.929959 172.975219 
L 249.929959 172.048978 
L 250.327215 172.048978 
L 250.327215 171.585857 
L 250.743364 171.585857 
L 250.743364 171.122737 
L 250.977827 171.122737 
L 251.0841 169.733375 
L 251.883323 169.733375 
L 251.883323 169.270255 
L 252.465827 169.270255 
L 252.465827 168.807134 
L 256.961352 168.807134 
L 256.961352 168.344014 
L 257.599406 168.344014 
L 257.599406 167.880893 
L 338.688 167.880893 
L 338.688 167.880893 
" style="fill:none;stroke:#ff00ff;stroke-linecap:square;stroke-width:1.5;"/>
   </g>
   <g id="line2d_41">
    <defs>
     <path d="M 0 8.485281 
L 5.091169 0 
L 0 -8.485281 
L -5.091169 0 
z
" id="ma97f706912" style="stroke:#ff00ff;stroke-linejoin:miter;stroke-width:1.5;"/>
    </defs>
    <g>
     <use style="fill-opacity:0;stroke:#ff00ff;stroke-linejoin:miter;stroke-width:1.5;" x="133.398082" xlink:href="#ma97f706912" y="291.534072"/>
     <use style="fill-opacity:0;stroke:#ff00ff;stroke-linejoin:miter;stroke-width:1.5;" x="184.342852" xlink:href="#ma97f706912" y="225.307837"/>
     <use style="fill-opacity:0;stroke:#ff00ff;stroke-linejoin:miter;stroke-width:1.5;" x="230.852932" xlink:href="#ma97f706912" y="183.626991"/>
     <use style="fill-opacity:0;stroke:#ff00ff;stroke-linejoin:miter;stroke-width:1.5;" x="257.599406" xlink:href="#ma97f706912" y="167.880893"/>
     <use style="fill-opacity:0;stroke:#ff00ff;stroke-linejoin:miter;stroke-width:1.5;" x="257.599406" xlink:href="#ma97f706912" y="167.880893"/>
     <use style="fill-opacity:0;stroke:#ff00ff;stroke-linejoin:miter;stroke-width:1.5;" x="338.688" xlink:href="#ma97f706912" y="167.880893"/>
    </g>
   </g>
   <g id="line2d_42">
    <path style="fill:none;stroke:#ff00ff;stroke-linecap:square;stroke-width:1.5;"/>
    <g/>
   </g>
   <g id="line2d_43">
    <path clip-path="url(#p2861ec7dc1)" d="M 258.379305 167.880893 
" style="fill:none;stroke:#ff00ff;stroke-linecap:square;stroke-width:1.5;"/>
    <defs>
     <path d="M -12 12 
L 12 -12 
M -12 -12 
L 12 12 
" id="m72a8b6c284" style="stroke:#ff00ff;"/>
    </defs>
    <g clip-path="url(#p2861ec7dc1)">
     <use style="fill:#ff00ff;stroke:#ff00ff;" x="258.379305" xlink:href="#m72a8b6c284" y="167.880893"/>
    </g>
   </g>
   <g id="line2d_44">
    <defs>
     <path d="M 0 1.5 
C 0.397805 1.5 0.77937 1.341951 1.06066 1.06066 
C 1.341951 0.77937 1.5 0.397805 1.5 0 
C 1.5 -0.397805 1.341951 -0.77937 1.06066 -1.06066 
C 0.77937 -1.341951 0.397805 -1.5 0 -1.5 
C -0.397805 -1.5 -0.77937 -1.341951 -1.06066 -1.06066 
C -1.341951 -0.77937 -1.5 -0.397805 -1.5 0 
C -1.5 0.397805 -1.341951 0.77937 -1.06066 1.06066 
C -0.77937 1.341951 -0.397805 1.5 0 1.5 
z
" id="m0dd7f38c88" style="stroke:#ff7500;"/>
    </defs>
    <g>
     <use style="fill:#ff7500;stroke:#ff7500;" x="176.1473" xlink:href="#m0dd7f38c88" y="237.348971"/>
     <use style="fill:#ff7500;stroke:#ff7500;" x="176.1473" xlink:href="#m0dd7f38c88" y="237.348971"/>
    </g>
   </g>
   <g id="line2d_45">
    <path d="M 149.095146 298.944 
L 149.095146 298.480879 
L 150.965587 298.480879 
L 150.965587 298.017759 
L 153.502361 298.017759 
L 153.502361 297.554638 
L 155.024532 297.554638 
L 155.024532 297.091518 
L 156.634302 297.091518 
L 156.634302 296.628397 
L 156.888722 296.628397 
L 156.888722 295.702156 
L 157.63607 295.702156 
L 157.63607 295.239036 
L 158.20082 295.239036 
L 158.20082 294.312795 
L 158.390468 294.312795 
L 158.390468 293.386554 
L 158.594062 293.386554 
L 158.594062 292.923433 
L 159.180664 292.923433 
L 159.185813 291.997192 
L 159.298723 291.997192 
L 159.370195 290.607831 
L 159.46166 290.607831 
L 159.46166 290.14471 
L 160.566247 290.14471 
L 160.613753 288.292228 
L 160.844678 288.292228 
L 160.844678 287.829108 
L 161.040208 287.829108 
L 161.141761 286.902867 
L 161.187726 286.902867 
L 161.283861 285.976625 
L 161.3249 285.976625 
L 161.3249 285.513505 
L 161.474555 285.513505 
L 161.542158 284.124143 
L 162.121678 284.124143 
L 162.139074 282.734782 
L 162.470604 282.734782 
L 162.581141 281.808541 
L 162.682557 281.808541 
L 162.791763 279.492938 
L 162.800135 279.492938 
L 162.887802 277.177336 
L 163.246367 277.177336 
L 163.343998 274.861733 
L 163.420904 274.861733 
L 163.477355 273.009251 
L 163.601707 273.009251 
L 163.637643 272.08301 
L 163.717238 272.08301 
L 163.717238 271.619889 
L 164.264459 271.619889 
L 164.264459 271.156769 
L 164.394804 271.156769 
L 164.482429 269.767407 
L 164.641313 269.767407 
L 164.693955 268.841166 
L 164.813684 268.841166 
L 164.8881 266.988684 
L 165.425523 266.988684 
L 165.447111 266.062443 
L 165.650872 266.062443 
L 165.679281 264.673082 
L 165.967831 264.673082 
L 165.978297 263.746841 
L 166.113796 263.746841 
L 166.220754 262.357479 
L 166.412321 262.357479 
L 166.493781 260.968117 
L 166.524231 260.968117 
L 166.524231 260.041876 
L 166.885541 260.041876 
L 166.978005 259.115635 
L 167.017483 259.115635 
L 167.099442 257.726274 
L 167.233027 257.726274 
L 167.284882 255.873792 
L 167.538677 255.873792 
L 167.580089 254.947551 
L 167.788832 254.947551 
L 167.820242 253.558189 
L 167.911015 253.558189 
L 168.01684 251.242587 
L 168.44292 251.242587 
L 168.44292 250.779466 
L 168.665578 250.779466 
L 168.665578 250.316346 
L 168.841088 250.316346 
L 168.841088 249.853225 
L 169.120028 249.853225 
L 169.120028 249.390104 
L 169.302579 249.390104 
L 169.302579 248.926984 
L 169.933819 248.926984 
L 170.005951 247.074502 
L 170.392016 247.074502 
L 170.392016 246.611381 
L 170.626031 246.611381 
L 170.626031 245.68514 
L 170.804134 245.68514 
L 170.804134 245.22202 
L 170.938496 245.22202 
L 170.938496 244.295779 
L 171.118647 244.295779 
L 171.118647 243.369538 
L 171.363675 243.369538 
L 171.363675 242.443297 
L 172.029522 242.443297 
L 172.029522 241.980176 
L 172.196359 241.980176 
L 172.269459 240.127694 
L 173.273419 240.127694 
L 173.273419 239.664574 
L 173.786875 239.664574 
L 173.786875 239.201453 
L 174.385002 239.201453 
L 174.385002 238.738333 
L 174.70723 238.738333 
L 174.70723 238.275212 
L 176.1473 238.275212 
L 176.1473 237.348971 
L 338.688 237.348971 
L 338.688 237.348971 
" style="fill:none;stroke:#ff7500;stroke-linecap:square;stroke-width:1.5;"/>
   </g>
   <g id="line2d_46">
    <defs>
     <path d="M 0 -6 
L -1.347084 -1.854102 
L -5.706339 -1.854102 
L -2.179628 0.708204 
L -3.526712 4.854102 
L -0 2.291796 
L 3.526712 4.854102 
L 2.179628 0.708204 
L 5.706339 -1.854102 
L 1.347084 -1.854102 
z
" id="mf78cfd7558" style="stroke:#ff7500;stroke-linejoin:bevel;stroke-width:1.5;"/>
    </defs>
    <g>
     <use style="fill-opacity:0;stroke:#ff7500;stroke-linejoin:bevel;stroke-width:1.5;" x="176.1473" xlink:href="#mf78cfd7558" y="238.275212"/>
     <use style="fill-opacity:0;stroke:#ff7500;stroke-linejoin:bevel;stroke-width:1.5;" x="176.1473" xlink:href="#mf78cfd7558" y="237.348971"/>
     <use style="fill-opacity:0;stroke:#ff7500;stroke-linejoin:bevel;stroke-width:1.5;" x="176.1473" xlink:href="#mf78cfd7558" y="237.348971"/>
     <use style="fill-opacity:0;stroke:#ff7500;stroke-linejoin:bevel;stroke-width:1.5;" x="176.1473" xlink:href="#mf78cfd7558" y="237.348971"/>
     <use style="fill-opacity:0;stroke:#ff7500;stroke-linejoin:bevel;stroke-width:1.5;" x="338.688" xlink:href="#mf78cfd7558" y="237.348971"/>
    </g>
   </g>
   <g id="line2d_47">
    <path style="fill:none;stroke:#ff7500;stroke-linecap:square;stroke-width:1.5;"/>
    <g/>
   </g>
   <g id="line2d_48">
    <path clip-path="url(#p2861ec7dc1)" d="M 258.37716 237.348971 
" style="fill:none;stroke:#ff7500;stroke-linecap:square;stroke-width:1.5;"/>
    <defs>
     <path d="M -12 12 
L 12 -12 
M -12 -12 
L 12 12 
" id="mc0d98cb52f" style="stroke:#ff7500;"/>
    </defs>
    <g clip-path="url(#p2861ec7dc1)">
     <use style="fill:#ff7500;stroke:#ff7500;" x="258.37716" xlink:href="#mc0d98cb52f" y="237.348971"/>
    </g>
   </g>
   <g id="line2d_49">
    <path d="M 338.688 237.348971 
L 369.60768 293.571802 
" style="fill:none;stroke:#ff7500;stroke-linecap:square;stroke-width:1.5;"/>
    <g>
     <use style="fill-opacity:0;stroke:#ff7500;stroke-linejoin:bevel;stroke-width:1.5;" x="338.688" xlink:href="#mf78cfd7558" y="237.348971"/>
     <use style="fill-opacity:0;stroke:#ff7500;stroke-linejoin:bevel;stroke-width:1.5;" x="369.60768" xlink:href="#mf78cfd7558" y="293.571802"/>
    </g>
   </g>
   <g id="line2d_50">
    <path d="M 338.688 167.880893 
L 369.60768 207.616634 
" style="fill:none;stroke:#ff00ff;stroke-linecap:square;stroke-width:1.5;"/>
    <g>
     <use style="fill-opacity:0;stroke:#ff00ff;stroke-linejoin:miter;stroke-width:1.5;" x="338.688" xlink:href="#ma97f706912" y="167.880893"/>
     <use style="fill-opacity:0;stroke:#ff00ff;stroke-linejoin:miter;stroke-width:1.5;" x="369.60768" xlink:href="#ma97f706912" y="207.616634"/>
    </g>
   </g>
   <g id="line2d_51">
    <path d="M 338.688 99.802177 
L 369.60768 121.661465 
" style="fill:none;stroke:#000080;stroke-linecap:square;stroke-width:1.5;"/>
    <g>
     <use style="fill-opacity:0;stroke:#000080;stroke-width:1.5;" x="338.688" xlink:href="#mfde127012a" y="99.802177"/>
     <use style="fill-opacity:0;stroke:#000080;stroke-width:1.5;" x="369.60768" xlink:href="#mfde127012a" y="121.661465"/>
    </g>
   </g>
   <g id="line2d_52">
    <path d="M 338.688 298.944 
L 338.688 30.334099 
" style="fill:none;stroke:#000000;stroke-linecap:square;stroke-width:1.5;"/>
   </g>
   <g id="patch_3">
    <path d="M 57.6 298.944 
L 57.6 27.648 
" style="fill:none;stroke:#000000;stroke-linecap:square;stroke-linejoin:miter;stroke-width:0.8;"/>
   </g>
   <g id="patch_4">
    <path d="M 338.688 298.944 
L 338.688 27.648 
" style="fill:none;stroke:#000000;stroke-linecap:square;stroke-linejoin:miter;stroke-width:0.8;"/>
   </g>
   <g id="patch_5">
    <path d="M 57.6 298.944 
L 338.688 298.944 
" style="fill:none;stroke:#000000;stroke-linecap:square;stroke-linejoin:miter;stroke-width:0.8;"/>
   </g>
   <g id="patch_6">
    <path d="M 57.6 27.648 
L 338.688 27.648 
" style="fill:none;stroke:#000000;stroke-linecap:square;stroke-linejoin:miter;stroke-width:0.8;"/>
   </g>
   <g id="text_13">
    <!-- SMS-EMOA- -->
    <g transform="translate(375.22944 298.262739)scale(0.17 -0.17)">
     <defs>
      <path d="M 53.515625 70.515625 
L 53.515625 60.890625 
Q 47.90625 63.578125 42.921875 64.890625 
Q 37.9375 66.21875 33.296875 66.21875 
Q 25.25 66.21875 20.875 63.09375 
Q 16.5 59.96875 16.5 54.203125 
Q 16.5 49.359375 19.40625 46.890625 
Q 22.3125 44.4375 30.421875 42.921875 
L 36.375 41.703125 
Q 47.40625 39.59375 52.65625 34.296875 
Q 57.90625 29 57.90625 20.125 
Q 57.90625 9.515625 50.796875 4.046875 
Q 43.703125 -1.421875 29.984375 -1.421875 
Q 24.8125 -1.421875 18.96875 -0.25 
Q 13.140625 0.921875 6.890625 3.21875 
L 6.890625 13.375 
Q 12.890625 10.015625 18.65625 8.296875 
Q 24.421875 6.59375 29.984375 6.59375 
Q 38.421875 6.59375 43.015625 9.90625 
Q 47.609375 13.234375 47.609375 19.390625 
Q 47.609375 24.75 44.3125 27.78125 
Q 41.015625 30.8125 33.5 32.328125 
L 27.484375 33.5 
Q 16.453125 35.6875 11.515625 40.375 
Q 6.59375 45.0625 6.59375 53.421875 
Q 6.59375 63.09375 13.40625 68.65625 
Q 20.21875 74.21875 32.171875 74.21875 
Q 37.3125 74.21875 42.625 73.28125 
Q 47.953125 72.359375 53.515625 70.515625 
z
" id="DejaVuSans-83"/>
      <path d="M 9.8125 72.90625 
L 24.515625 72.90625 
L 43.109375 23.296875 
L 61.8125 72.90625 
L 76.515625 72.90625 
L 76.515625 0 
L 66.890625 0 
L 66.890625 64.015625 
L 48.09375 14.015625 
L 38.1875 14.015625 
L 19.390625 64.015625 
L 19.390625 0 
L 9.8125 0 
z
" id="DejaVuSans-77"/>
      <path d="M 9.8125 72.90625 
L 55.90625 72.90625 
L 55.90625 64.59375 
L 19.671875 64.59375 
L 19.671875 43.015625 
L 54.390625 43.015625 
L 54.390625 34.71875 
L 19.671875 34.71875 
L 19.671875 8.296875 
L 56.78125 8.296875 
L 56.78125 0 
L 9.8125 0 
z
" id="DejaVuSans-69"/>
      <path d="M 39.40625 66.21875 
Q 28.65625 66.21875 22.328125 58.203125 
Q 16.015625 50.203125 16.015625 36.375 
Q 16.015625 22.609375 22.328125 14.59375 
Q 28.65625 6.59375 39.40625 6.59375 
Q 50.140625 6.59375 56.421875 14.59375 
Q 62.703125 22.609375 62.703125 36.375 
Q 62.703125 50.203125 56.421875 58.203125 
Q 50.140625 66.21875 39.40625 66.21875 
z
M 39.40625 74.21875 
Q 54.734375 74.21875 63.90625 63.9375 
Q 73.09375 53.65625 73.09375 36.375 
Q 73.09375 19.140625 63.90625 8.859375 
Q 54.734375 -1.421875 39.40625 -1.421875 
Q 24.03125 -1.421875 14.8125 8.828125 
Q 5.609375 19.09375 5.609375 36.375 
Q 5.609375 53.65625 14.8125 63.9375 
Q 24.03125 74.21875 39.40625 74.21875 
z
" id="DejaVuSans-79"/>
      <path d="M 34.1875 63.1875 
L 20.796875 26.90625 
L 47.609375 26.90625 
z
M 28.609375 72.90625 
L 39.796875 72.90625 
L 67.578125 0 
L 57.328125 0 
L 50.6875 18.703125 
L 17.828125 18.703125 
L 11.1875 0 
L 0.78125 0 
z
" id="DejaVuSans-65"/>
     </defs>
     <use xlink:href="#DejaVuSans-83"/>
     <use x="63.476562" xlink:href="#DejaVuSans-77"/>
     <use x="149.755859" xlink:href="#DejaVuSans-83"/>
     <use x="213.232422" xlink:href="#DejaVuSans-45"/>
     <use x="249.316406" xlink:href="#DejaVuSans-69"/>
     <use x="312.5" xlink:href="#DejaVuSans-77"/>
     <use x="398.779297" xlink:href="#DejaVuSans-79"/>
     <use x="475.740234" xlink:href="#DejaVuSans-65"/>
     <use x="541.898438" xlink:href="#DejaVuSans-45"/>
    </g>
   </g>
   <g id="text_14">
    <!-- NSGA-II-M -->
    <g transform="translate(375.22944 212.307571)scale(0.17 -0.17)">
     <defs>
      <path d="M 9.8125 72.90625 
L 23.09375 72.90625 
L 55.421875 11.921875 
L 55.421875 72.90625 
L 64.984375 72.90625 
L 64.984375 0 
L 51.703125 0 
L 19.390625 60.984375 
L 19.390625 0 
L 9.8125 0 
z
" id="DejaVuSans-78"/>
      <path d="M 59.515625 10.40625 
L 59.515625 29.984375 
L 43.40625 29.984375 
L 43.40625 38.09375 
L 69.28125 38.09375 
L 69.28125 6.78125 
Q 63.578125 2.734375 56.6875 0.65625 
Q 49.8125 -1.421875 42 -1.421875 
Q 24.90625 -1.421875 15.25 8.5625 
Q 5.609375 18.5625 5.609375 36.375 
Q 5.609375 54.25 15.25 64.234375 
Q 24.90625 74.21875 42 74.21875 
Q 49.125 74.21875 55.546875 72.453125 
Q 61.96875 70.703125 67.390625 67.28125 
L 67.390625 56.78125 
Q 61.921875 61.421875 55.765625 63.765625 
Q 49.609375 66.109375 42.828125 66.109375 
Q 29.4375 66.109375 22.71875 58.640625 
Q 16.015625 51.171875 16.015625 36.375 
Q 16.015625 21.625 22.71875 14.15625 
Q 29.4375 6.6875 42.828125 6.6875 
Q 48.046875 6.6875 52.140625 7.59375 
Q 56.25 8.5 59.515625 10.40625 
z
" id="DejaVuSans-71"/>
      <path d="M 9.8125 72.90625 
L 19.671875 72.90625 
L 19.671875 0 
L 9.8125 0 
z
" id="DejaVuSans-73"/>
     </defs>
     <use xlink:href="#DejaVuSans-78"/>
     <use x="74.804688" xlink:href="#DejaVuSans-83"/>
     <use x="138.28125" xlink:href="#DejaVuSans-71"/>
     <use x="215.771484" xlink:href="#DejaVuSans-65"/>
     <use x="281.929688" xlink:href="#DejaVuSans-45"/>
     <use x="318.013672" xlink:href="#DejaVuSans-73"/>
     <use x="347.505859" xlink:href="#DejaVuSans-73"/>
     <use x="376.998047" xlink:href="#DejaVuSans-45"/>
     <use x="413.082031" xlink:href="#DejaVuSans-77"/>
    </g>
   </g>
   <g id="text_15">
    <!-- COMO-100  -->
    <g transform="translate(375.22944 126.352403)scale(0.17 -0.17)">
     <defs>
      <path d="M 64.40625 67.28125 
L 64.40625 56.890625 
Q 59.421875 61.53125 53.78125 63.8125 
Q 48.140625 66.109375 41.796875 66.109375 
Q 29.296875 66.109375 22.65625 58.46875 
Q 16.015625 50.828125 16.015625 36.375 
Q 16.015625 21.96875 22.65625 14.328125 
Q 29.296875 6.6875 41.796875 6.6875 
Q 48.140625 6.6875 53.78125 8.984375 
Q 59.421875 11.28125 64.40625 15.921875 
L 64.40625 5.609375 
Q 59.234375 2.09375 53.4375 0.328125 
Q 47.65625 -1.421875 41.21875 -1.421875 
Q 24.65625 -1.421875 15.125 8.703125 
Q 5.609375 18.84375 5.609375 36.375 
Q 5.609375 53.953125 15.125 64.078125 
Q 24.65625 74.21875 41.21875 74.21875 
Q 47.75 74.21875 53.53125 72.484375 
Q 59.328125 70.75 64.40625 67.28125 
z
" id="DejaVuSans-67"/>
     </defs>
     <use xlink:href="#DejaVuSans-67"/>
     <use x="69.824219" xlink:href="#DejaVuSans-79"/>
     <use x="148.535156" xlink:href="#DejaVuSans-77"/>
     <use x="234.814453" xlink:href="#DejaVuSans-79"/>
     <use x="316.275391" xlink:href="#DejaVuSans-45"/>
     <use x="352.359375" xlink:href="#DejaVuSans-49"/>
     <use x="415.982422" xlink:href="#DejaVuSans-48"/>
     <use x="479.605469" xlink:href="#DejaVuSans-48"/>
     <use x="543.228516" xlink:href="#DejaVuSans-32"/>
    </g>
   </g>
   <g id="text_16">
    <!-- best 2016 -->
    <g transform="translate(375.22944 40.397235)scale(0.17 -0.17)">
     <defs>
      <path d="M 48.6875 27.296875 
Q 48.6875 37.203125 44.609375 42.84375 
Q 40.53125 48.484375 33.40625 48.484375 
Q 26.265625 48.484375 22.1875 42.84375 
Q 18.109375 37.203125 18.109375 27.296875 
Q 18.109375 17.390625 22.1875 11.75 
Q 26.265625 6.109375 33.40625 6.109375 
Q 40.53125 6.109375 44.609375 11.75 
Q 48.6875 17.390625 48.6875 27.296875 
z
M 18.109375 46.390625 
Q 20.953125 51.265625 25.265625 53.625 
Q 29.59375 56 35.59375 56 
Q 45.5625 56 51.78125 48.09375 
Q 58.015625 40.1875 58.015625 27.296875 
Q 58.015625 14.40625 51.78125 6.484375 
Q 45.5625 -1.421875 35.59375 -1.421875 
Q 29.59375 -1.421875 25.265625 0.953125 
Q 20.953125 3.328125 18.109375 8.203125 
L 18.109375 0 
L 9.078125 0 
L 9.078125 75.984375 
L 18.109375 75.984375 
z
" id="DejaVuSans-98"/>
     </defs>
     <use xlink:href="#DejaVuSans-98"/>
     <use x="63.476562" xlink:href="#DejaVuSans-101"/>
     <use x="125" xlink:href="#DejaVuSans-115"/>
     <use x="177.099609" xlink:href="#DejaVuSans-116"/>
     <use x="216.308594" xlink:href="#DejaVuSans-32"/>
     <use x="248.095703" xlink:href="#DejaVuSans-50"/>
     <use x="311.71875" xlink:href="#DejaVuSans-48"/>
     <use x="375.341797" xlink:href="#DejaVuSans-49"/>
     <use x="438.964844" xlink:href="#DejaVuSans-54"/>
    </g>
   </g>
   <g id="text_17">
    <!-- bbob-biobj f15, 10-D -->
    <g transform="translate(60.41088 38.111366)scale(0.102 -0.102)">
     <defs>
      <path d="M 9.421875 54.6875 
L 18.40625 54.6875 
L 18.40625 -0.984375 
Q 18.40625 -11.421875 14.421875 -16.109375 
Q 10.453125 -20.796875 1.609375 -20.796875 
L -1.8125 -20.796875 
L -1.8125 -13.1875 
L 0.59375 -13.1875 
Q 5.71875 -13.1875 7.5625 -10.8125 
Q 9.421875 -8.453125 9.421875 -0.984375 
z
M 9.421875 75.984375 
L 18.40625 75.984375 
L 18.40625 64.59375 
L 9.421875 64.59375 
z
" id="DejaVuSans-106"/>
      <path d="M 10.796875 72.90625 
L 49.515625 72.90625 
L 49.515625 64.59375 
L 19.828125 64.59375 
L 19.828125 46.734375 
Q 21.96875 47.46875 24.109375 47.828125 
Q 26.265625 48.1875 28.421875 48.1875 
Q 40.625 48.1875 47.75 41.5 
Q 54.890625 34.8125 54.890625 23.390625 
Q 54.890625 11.625 47.5625 5.09375 
Q 40.234375 -1.421875 26.90625 -1.421875 
Q 22.3125 -1.421875 17.546875 -0.640625 
Q 12.796875 0.140625 7.71875 1.703125 
L 7.71875 11.625 
Q 12.109375 9.234375 16.796875 8.0625 
Q 21.484375 6.890625 26.703125 6.890625 
Q 35.15625 6.890625 40.078125 11.328125 
Q 45.015625 15.765625 45.015625 23.390625 
Q 45.015625 31 40.078125 35.4375 
Q 35.15625 39.890625 26.703125 39.890625 
Q 22.75 39.890625 18.8125 39.015625 
Q 14.890625 38.140625 10.796875 36.28125 
z
" id="DejaVuSans-53"/>
      <path d="M 19.671875 64.796875 
L 19.671875 8.109375 
L 31.59375 8.109375 
Q 46.6875 8.109375 53.6875 14.9375 
Q 60.6875 21.78125 60.6875 36.53125 
Q 60.6875 51.171875 53.6875 57.984375 
Q 46.6875 64.796875 31.59375 64.796875 
z
M 9.8125 72.90625 
L 30.078125 72.90625 
Q 51.265625 72.90625 61.171875 64.09375 
Q 71.09375 55.28125 71.09375 36.53125 
Q 71.09375 17.671875 61.125 8.828125 
Q 51.171875 0 30.078125 0 
L 9.8125 0 
z
" id="DejaVuSans-68"/>
     </defs>
     <use xlink:href="#DejaVuSans-98"/>
     <use x="63.476562" xlink:href="#DejaVuSans-98"/>
     <use x="126.953125" xlink:href="#DejaVuSans-111"/>
     <use x="188.134766" xlink:href="#DejaVuSans-98"/>
     <use x="251.611328" xlink:href="#DejaVuSans-45"/>
     <use x="287.695312" xlink:href="#DejaVuSans-98"/>
     <use x="351.171875" xlink:href="#DejaVuSans-105"/>
     <use x="378.955078" xlink:href="#DejaVuSans-111"/>
     <use x="440.136719" xlink:href="#DejaVuSans-98"/>
     <use x="503.613281" xlink:href="#DejaVuSans-106"/>
     <use x="531.396484" xlink:href="#DejaVuSans-32"/>
     <use x="563.183594" xlink:href="#DejaVuSans-102"/>
     <use x="598.388672" xlink:href="#DejaVuSans-49"/>
     <use x="662.011719" xlink:href="#DejaVuSans-53"/>
     <use x="725.634766" xlink:href="#DejaVuSans-44"/>
     <use x="757.421875" xlink:href="#DejaVuSans-32"/>
     <use x="789.208984" xlink:href="#DejaVuSans-49"/>
     <use x="852.832031" xlink:href="#DejaVuSans-48"/>
     <use x="916.455078" xlink:href="#DejaVuSans-45"/>
     <use x="952.539062" xlink:href="#DejaVuSans-68"/>
    </g>
    <!-- 58 targets: 1..-1.0e-4 -->
    <g transform="translate(60.41088 49.533135)scale(0.102 -0.102)">
     <defs>
      <path d="M 11.71875 12.40625 
L 22.015625 12.40625 
L 22.015625 0 
L 11.71875 0 
z
M 11.71875 51.703125 
L 22.015625 51.703125 
L 22.015625 39.3125 
L 11.71875 39.3125 
z
" id="DejaVuSans-58"/>
     </defs>
     <use xlink:href="#DejaVuSans-53"/>
     <use x="63.623047" xlink:href="#DejaVuSans-56"/>
     <use x="127.246094" xlink:href="#DejaVuSans-32"/>
     <use x="159.033203" xlink:href="#DejaVuSans-116"/>
     <use x="198.242188" xlink:href="#DejaVuSans-97"/>
     <use x="259.521484" xlink:href="#DejaVuSans-114"/>
     <use x="298.884766" xlink:href="#DejaVuSans-103"/>
     <use x="362.361328" xlink:href="#DejaVuSans-101"/>
     <use x="423.884766" xlink:href="#DejaVuSans-116"/>
     <use x="463.09375" xlink:href="#DejaVuSans-115"/>
     <use x="515.193359" xlink:href="#DejaVuSans-58"/>
     <use x="548.884766" xlink:href="#DejaVuSans-32"/>
     <use x="580.671875" xlink:href="#DejaVuSans-49"/>
     <use x="644.294922" xlink:href="#DejaVuSans-46"/>
     <use x="676.082031" xlink:href="#DejaVuSans-46"/>
     <use x="707.869141" xlink:href="#DejaVuSans-45"/>
     <use x="743.953125" xlink:href="#DejaVuSans-49"/>
     <use x="807.576172" xlink:href="#DejaVuSans-46"/>
     <use x="839.363281" xlink:href="#DejaVuSans-48"/>
     <use x="902.986328" xlink:href="#DejaVuSans-101"/>
     <use x="964.509766" xlink:href="#DejaVuSans-45"/>
     <use x="1000.59375" xlink:href="#DejaVuSans-52"/>
    </g>
    <!-- 10 instances -->
    <g transform="translate(60.41088 60.954904)scale(0.102 -0.102)">
     <use xlink:href="#DejaVuSans-49"/>
     <use x="63.623047" xlink:href="#DejaVuSans-48"/>
     <use x="127.246094" xlink:href="#DejaVuSans-32"/>
     <use x="159.033203" xlink:href="#DejaVuSans-105"/>
     <use x="186.816406" xlink:href="#DejaVuSans-110"/>
     <use x="250.195312" xlink:href="#DejaVuSans-115"/>
     <use x="302.294922" xlink:href="#DejaVuSans-116"/>
     <use x="341.503906" xlink:href="#DejaVuSans-97"/>
     <use x="402.783203" xlink:href="#DejaVuSans-110"/>
     <use x="466.162109" xlink:href="#DejaVuSans-99"/>
     <use x="521.142578" xlink:href="#DejaVuSans-101"/>
     <use x="582.666016" xlink:href="#DejaVuSans-115"/>
    </g>
   </g>
   <g id="text_18">
    <!-- v2.4.19, hv-hash=ff0e71e8cd978373 -->
    <g style="fill:#808080;" transform="translate(104.697125 294.151352)scale(0.1 -0.1)">
     <defs>
      <path d="M 10.984375 1.515625 
L 10.984375 10.5 
Q 14.703125 8.734375 18.5 7.8125 
Q 22.3125 6.890625 25.984375 6.890625 
Q 35.75 6.890625 40.890625 13.453125 
Q 46.046875 20.015625 46.78125 33.40625 
Q 43.953125 29.203125 39.59375 26.953125 
Q 35.25 24.703125 29.984375 24.703125 
Q 19.046875 24.703125 12.671875 31.3125 
Q 6.296875 37.9375 6.296875 49.421875 
Q 6.296875 60.640625 12.9375 67.421875 
Q 19.578125 74.21875 30.609375 74.21875 
Q 43.265625 74.21875 49.921875 64.515625 
Q 56.59375 54.828125 56.59375 36.375 
Q 56.59375 19.140625 48.40625 8.859375 
Q 40.234375 -1.421875 26.421875 -1.421875 
Q 22.703125 -1.421875 18.890625 -0.6875 
Q 15.09375 0.046875 10.984375 1.515625 
z
M 30.609375 32.421875 
Q 37.25 32.421875 41.125 36.953125 
Q 45.015625 41.5 45.015625 49.421875 
Q 45.015625 57.28125 41.125 61.84375 
Q 37.25 66.40625 30.609375 66.40625 
Q 23.96875 66.40625 20.09375 61.84375 
Q 16.21875 57.28125 16.21875 49.421875 
Q 16.21875 41.5 20.09375 36.953125 
Q 23.96875 32.421875 30.609375 32.421875 
z
" id="DejaVuSans-57"/>
      <path d="M 54.890625 33.015625 
L 54.890625 0 
L 45.90625 0 
L 45.90625 32.71875 
Q 45.90625 40.484375 42.875 44.328125 
Q 39.84375 48.1875 33.796875 48.1875 
Q 26.515625 48.1875 22.3125 43.546875 
Q 18.109375 38.921875 18.109375 30.90625 
L 18.109375 0 
L 9.078125 0 
L 9.078125 75.984375 
L 18.109375 75.984375 
L 18.109375 46.1875 
Q 21.34375 51.125 25.703125 53.5625 
Q 30.078125 56 35.796875 56 
Q 45.21875 56 50.046875 50.171875 
Q 54.890625 44.34375 54.890625 33.015625 
z
" id="DejaVuSans-104"/>
      <path d="M 10.59375 45.40625 
L 73.1875 45.40625 
L 73.1875 37.203125 
L 10.59375 37.203125 
z
M 10.59375 25.484375 
L 73.1875 25.484375 
L 73.1875 17.1875 
L 10.59375 17.1875 
z
" id="DejaVuSans-61"/>
      <path d="M 8.203125 72.90625 
L 55.078125 72.90625 
L 55.078125 68.703125 
L 28.609375 0 
L 18.3125 0 
L 43.21875 64.59375 
L 8.203125 64.59375 
z
" id="DejaVuSans-55"/>
      <path d="M 40.578125 39.3125 
Q 47.65625 37.796875 51.625 33 
Q 55.609375 28.21875 55.609375 21.1875 
Q 55.609375 10.40625 48.1875 4.484375 
Q 40.765625 -1.421875 27.09375 -1.421875 
Q 22.515625 -1.421875 17.65625 -0.515625 
Q 12.796875 0.390625 7.625 2.203125 
L 7.625 11.71875 
Q 11.71875 9.328125 16.59375 8.109375 
Q 21.484375 6.890625 26.8125 6.890625 
Q 36.078125 6.890625 40.9375 10.546875 
Q 45.796875 14.203125 45.796875 21.1875 
Q 45.796875 27.640625 41.28125 31.265625 
Q 36.765625 34.90625 28.71875 34.90625 
L 20.21875 34.90625 
L 20.21875 43.015625 
L 29.109375 43.015625 
Q 36.375 43.015625 40.234375 45.921875 
Q 44.09375 48.828125 44.09375 54.296875 
Q 44.09375 59.90625 40.109375 62.90625 
Q 36.140625 65.921875 28.71875 65.921875 
Q 24.65625 65.921875 20.015625 65.03125 
Q 15.375 64.15625 9.8125 62.3125 
L 9.8125 71.09375 
Q 15.4375 72.65625 20.34375 73.4375 
Q 25.25 74.21875 29.59375 74.21875 
Q 40.828125 74.21875 47.359375 69.109375 
Q 53.90625 64.015625 53.90625 55.328125 
Q 53.90625 49.265625 50.4375 45.09375 
Q 46.96875 40.921875 40.578125 39.3125 
z
" id="DejaVuSans-51"/>
     </defs>
     <use xlink:href="#DejaVuSans-118"/>
     <use x="59.179688" xlink:href="#DejaVuSans-50"/>
     <use x="122.802734" xlink:href="#DejaVuSans-46"/>
     <use x="154.589844" xlink:href="#DejaVuSans-52"/>
     <use x="218.212891" xlink:href="#DejaVuSans-46"/>
     <use x="250" xlink:href="#DejaVuSans-49"/>
     <use x="313.623047" xlink:href="#DejaVuSans-57"/>
     <use x="377.246094" xlink:href="#DejaVuSans-44"/>
     <use x="409.033203" xlink:href="#DejaVuSans-32"/>
     <use x="440.820312" xlink:href="#DejaVuSans-104"/>
     <use x="504.199219" xlink:href="#DejaVuSans-118"/>
     <use x="560.753906" xlink:href="#DejaVuSans-45"/>
     <use x="596.837891" xlink:href="#DejaVuSans-104"/>
     <use x="660.216797" xlink:href="#DejaVuSans-97"/>
     <use x="721.496094" xlink:href="#DejaVuSans-115"/>
     <use x="773.595703" xlink:href="#DejaVuSans-104"/>
     <use x="836.974609" xlink:href="#DejaVuSans-61"/>
     <use x="920.763672" xlink:href="#DejaVuSans-102"/>
     <use x="955.96875" xlink:href="#DejaVuSans-102"/>
     <use x="991.173828" xlink:href="#DejaVuSans-48"/>
     <use x="1054.796875" xlink:href="#DejaVuSans-101"/>
     <use x="1116.320312" xlink:href="#DejaVuSans-55"/>
     <use x="1179.943359" xlink:href="#DejaVuSans-49"/>
     <use x="1243.566406" xlink:href="#DejaVuSans-101"/>
     <use x="1305.089844" xlink:href="#DejaVuSans-56"/>
     <use x="1368.712891" xlink:href="#DejaVuSans-99"/>
     <use x="1423.693359" xlink:href="#DejaVuSans-100"/>
     <use x="1487.169922" xlink:href="#DejaVuSans-57"/>
     <use x="1550.792969" xlink:href="#DejaVuSans-55"/>
     <use x="1614.416016" xlink:href="#DejaVuSans-56"/>
     <use x="1678.039062" xlink:href="#DejaVuSans-51"/>
     <use x="1741.662109" xlink:href="#DejaVuSans-55"/>
     <use x="1805.285156" xlink:href="#DejaVuSans-51"/>
    </g>
   </g>
   <g id="text_19">
    <!-- 15 sep. Ellipsoid/Diff. Powers -->
    <g transform="translate(54.761187 21.648)scale(0.2 -0.2)">
     <defs>
      <path d="M 19.671875 64.796875 
L 19.671875 37.40625 
L 32.078125 37.40625 
Q 38.96875 37.40625 42.71875 40.96875 
Q 46.484375 44.53125 46.484375 51.125 
Q 46.484375 57.671875 42.71875 61.234375 
Q 38.96875 64.796875 32.078125 64.796875 
z
M 9.8125 72.90625 
L 32.078125 72.90625 
Q 44.34375 72.90625 50.609375 67.359375 
Q 56.890625 61.8125 56.890625 51.125 
Q 56.890625 40.328125 50.609375 34.8125 
Q 44.34375 29.296875 32.078125 29.296875 
L 19.671875 29.296875 
L 19.671875 0 
L 9.8125 0 
z
" id="DejaVuSans-80"/>
      <path d="M 4.203125 54.6875 
L 13.1875 54.6875 
L 24.421875 12.015625 
L 35.59375 54.6875 
L 46.1875 54.6875 
L 57.421875 12.015625 
L 68.609375 54.6875 
L 77.59375 54.6875 
L 63.28125 0 
L 52.6875 0 
L 40.921875 44.828125 
L 29.109375 0 
L 18.5 0 
z
" id="DejaVuSans-119"/>
     </defs>
     <use xlink:href="#DejaVuSans-49"/>
     <use x="63.623047" xlink:href="#DejaVuSans-53"/>
     <use x="127.246094" xlink:href="#DejaVuSans-32"/>
     <use x="159.033203" xlink:href="#DejaVuSans-115"/>
     <use x="211.132812" xlink:href="#DejaVuSans-101"/>
     <use x="272.65625" xlink:href="#DejaVuSans-112"/>
     <use x="336.132812" xlink:href="#DejaVuSans-46"/>
     <use x="367.919922" xlink:href="#DejaVuSans-32"/>
     <use x="399.707031" xlink:href="#DejaVuSans-69"/>
     <use x="462.890625" xlink:href="#DejaVuSans-108"/>
     <use x="490.673828" xlink:href="#DejaVuSans-108"/>
     <use x="518.457031" xlink:href="#DejaVuSans-105"/>
     <use x="546.240234" xlink:href="#DejaVuSans-112"/>
     <use x="609.716797" xlink:href="#DejaVuSans-115"/>
     <use x="661.816406" xlink:href="#DejaVuSans-111"/>
     <use x="722.998047" xlink:href="#DejaVuSans-105"/>
     <use x="750.78125" xlink:href="#DejaVuSans-100"/>
     <use x="814.257812" xlink:href="#DejaVuSans-47"/>
     <use x="847.949219" xlink:href="#DejaVuSans-68"/>
     <use x="924.951172" xlink:href="#DejaVuSans-105"/>
     <use x="952.734375" xlink:href="#DejaVuSans-102"/>
     <use x="987.939453" xlink:href="#DejaVuSans-102"/>
     <use x="1015.894531" xlink:href="#DejaVuSans-46"/>
     <use x="1047.681641" xlink:href="#DejaVuSans-32"/>
     <use x="1079.46875" xlink:href="#DejaVuSans-80"/>
     <use x="1136.146484" xlink:href="#DejaVuSans-111"/>
     <use x="1197.328125" xlink:href="#DejaVuSans-119"/>
     <use x="1279.115234" xlink:href="#DejaVuSans-101"/>
     <use x="1340.638672" xlink:href="#DejaVuSans-114"/>
     <use x="1381.751953" xlink:href="#DejaVuSans-115"/>
    </g>
   </g>
  </g>
 </g>
 <defs>
  <clipPath id="p2861ec7dc1">
   <rect height="271.296" width="281.088" x="57.6" y="27.648"/>
  </clipPath>
 </defs>
</svg>
