<?xml version="1.0" encoding="utf-8" standalone="no"?>
<!DOCTYPE svg PUBLIC "-//W3C//DTD SVG 1.1//EN"
  "http://www.w3.org/Graphics/SVG/1.1/DTD/svg11.dtd">
<!-- Created with matplotlib (https://matplotlib.org/) -->
<svg height="345.6pt" version="1.1" viewBox="0 0 460.8 345.6" width="460.8pt" xmlns="http://www.w3.org/2000/svg" xmlns:xlink="http://www.w3.org/1999/xlink">
 <metadata>
  <rdf:RDF xmlns:cc="http://creativecommons.org/ns#" xmlns:dc="http://purl.org/dc/elements/1.1/" xmlns:rdf="http://www.w3.org/1999/02/22-rdf-syntax-ns#">
   <cc:Work>
    <dc:type rdf:resource="http://purl.org/dc/dcmitype/StillImage"/>
    <dc:date>2021-04-26T15:05:50.312489</dc:date>
    <dc:format>image/svg+xml</dc:format>
    <dc:creator>
     <cc:Agent>
      <dc:title>Matplotlib v3.3.2, https://matplotlib.org/</dc:title>
     </cc:Agent>
    </dc:creator>
   </cc:Work>
  </rdf:RDF>
 </metadata>
 <defs>
  <style type="text/css">*{stroke-linecap:butt;stroke-linejoin:round;}</style>
 </defs>
 <g id="figure_1">
  <g id="patch_1">
   <path d="M 0 345.6 
L 460.8 345.6 
L 460.8 0 
L 0 0 
z
" style="fill:#ffffff;"/>
  </g>
  <g id="axes_1">
   <g id="patch_2">
    <path d="M 57.6 298.944 
L 338.688 298.944 
L 338.688 27.648 
L 57.6 27.648 
z
" style="fill:#ffffff;"/>
   </g>
   <g id="line2d_1">
    <path d="M 83.830028 298.944 
L 83.830028 294.312795 
L 91.535274 294.312795 
L 91.535274 285.050384 
L 100.934985 285.050384 
L 100.934985 275.787974 
L 132.893889 275.787974 
L 132.893889 271.156769 
L 137.469333 271.156769 
L 137.469333 257.263153 
L 144.629556 257.263153 
L 144.629556 248.000743 
L 146.958248 248.000743 
L 146.958248 243.369538 
L 154.201424 243.369538 
L 154.201424 234.107127 
L 155.741666 234.107127 
L 155.741666 220.213512 
L 158.140788 220.213512 
L 158.140788 210.951101 
L 162.559939 210.951101 
L 162.559939 201.688691 
L 165.047026 201.688691 
L 165.047026 192.426281 
L 167.288118 192.426281 
L 167.288118 187.795075 
L 169.687442 187.795075 
L 169.687442 173.90146 
L 174.174823 173.90146 
L 174.174823 169.270255 
L 176.631116 169.270255 
L 176.631116 155.376639 
L 178.291535 155.376639 
L 178.291535 146.114229 
L 179.286902 146.114229 
L 179.286902 141.483024 
L 184.437506 141.483024 
L 184.437506 127.589408 
L 191.621116 127.589408 
L 191.621116 122.958203 
L 192.922092 122.958203 
L 192.922092 109.064587 
L 204.042576 109.064587 
L 204.042576 99.802177 
L 204.360141 99.802177 
L 204.360141 90.539766 
L 205.640253 90.539766 
L 205.640253 85.908561 
L 217.606726 85.908561 
L 217.606726 76.646151 
L 218.050847 76.646151 
L 218.050847 62.752535 
L 338.688 62.752535 
" style="fill:none;stroke:#f5deb3;stroke-linecap:square;stroke-width:4;"/>
   </g>
   <g id="line2d_2">
    <defs>
     <path d="M 0 7.778175 
L 7.778175 0 
L 0 -7.778175 
L -7.778175 0 
z
" id="m30ed555bd9" style="stroke:#f5deb3;stroke-linejoin:miter;stroke-width:1.5;"/>
    </defs>
    <g>
     <use style="fill:#f5deb3;stroke:#f5deb3;stroke-linejoin:miter;stroke-width:1.5;" x="162.559939" xlink:href="#m30ed555bd9" y="210.951101"/>
     <use style="fill:#f5deb3;stroke:#f5deb3;stroke-linejoin:miter;stroke-width:1.5;" x="184.437506" xlink:href="#m30ed555bd9" y="127.589408"/>
     <use style="fill:#f5deb3;stroke:#f5deb3;stroke-linejoin:miter;stroke-width:1.5;" x="218.050847" xlink:href="#m30ed555bd9" y="62.752535"/>
     <use style="fill:#f5deb3;stroke:#f5deb3;stroke-linejoin:miter;stroke-width:1.5;" x="218.050847" xlink:href="#m30ed555bd9" y="62.752535"/>
     <use style="fill:#f5deb3;stroke:#f5deb3;stroke-linejoin:miter;stroke-width:1.5;" x="338.688" xlink:href="#m30ed555bd9" y="62.752535"/>
    </g>
   </g>
   <g id="line2d_3">
    <path style="fill:none;stroke:#f5deb3;stroke-linecap:square;stroke-width:4;"/>
    <g/>
   </g>
   <g id="line2d_4">
    <path d="M 338.688 62.752535 
L 369.60768 35.706297 
" style="fill:none;stroke:#f5deb3;stroke-linecap:square;stroke-width:4;"/>
    <g>
     <use style="fill:#f5deb3;stroke:#f5deb3;stroke-linejoin:miter;stroke-width:1.5;" x="338.688" xlink:href="#m30ed555bd9" y="62.752535"/>
     <use style="fill:#f5deb3;stroke:#f5deb3;stroke-linejoin:miter;stroke-width:1.5;" x="369.60768" xlink:href="#m30ed555bd9" y="35.706297"/>
    </g>
   </g>
   <g id="matplotlib.axis_1">
    <g id="xtick_1">
     <g id="line2d_5">
      <path clip-path="url(#p43f2efba50)" d="M 57.6 298.944 
L 57.6 27.648 
" style="fill:none;stroke:#b0b0b0;stroke-linecap:square;stroke-width:0.8;"/>
     </g>
     <g id="line2d_6">
      <defs>
       <path d="M 0 0 
L 0 3.5 
" id="mced9645140" style="stroke:#000000;stroke-width:0.8;"/>
      </defs>
      <g>
       <use style="stroke:#000000;stroke-width:0.8;" x="57.6" xlink:href="#mced9645140" y="298.944"/>
      </g>
     </g>
     <g id="text_1">
      <!-- 0 -->
      <g transform="translate(51.2375 321.140875)scale(0.2 -0.2)">
       <defs>
        <path d="M 31.78125 66.40625 
Q 24.171875 66.40625 20.328125 58.90625 
Q 16.5 51.421875 16.5 36.375 
Q 16.5 21.390625 20.328125 13.890625 
Q 24.171875 6.390625 31.78125 6.390625 
Q 39.453125 6.390625 43.28125 13.890625 
Q 47.125 21.390625 47.125 36.375 
Q 47.125 51.421875 43.28125 58.90625 
Q 39.453125 66.40625 31.78125 66.40625 
z
M 31.78125 74.21875 
Q 44.046875 74.21875 50.515625 64.515625 
Q 56.984375 54.828125 56.984375 36.375 
Q 56.984375 17.96875 50.515625 8.265625 
Q 44.046875 -1.421875 31.78125 -1.421875 
Q 19.53125 -1.421875 13.0625 8.265625 
Q 6.59375 17.96875 6.59375 36.375 
Q 6.59375 54.828125 13.0625 64.515625 
Q 19.53125 74.21875 31.78125 74.21875 
z
" id="DejaVuSans-48"/>
       </defs>
       <use xlink:href="#DejaVuSans-48"/>
      </g>
     </g>
    </g>
    <g id="xtick_2">
     <g id="line2d_7">
      <path clip-path="url(#p43f2efba50)" d="M 137.910857 298.944 
L 137.910857 27.648 
" style="fill:none;stroke:#b0b0b0;stroke-linecap:square;stroke-width:0.8;"/>
     </g>
     <g id="line2d_8">
      <g>
       <use style="stroke:#000000;stroke-width:0.8;" x="137.910857" xlink:href="#mced9645140" y="298.944"/>
      </g>
     </g>
     <g id="text_2">
      <!-- 2 -->
      <g transform="translate(131.548357 321.140875)scale(0.2 -0.2)">
       <defs>
        <path d="M 19.1875 8.296875 
L 53.609375 8.296875 
L 53.609375 0 
L 7.328125 0 
L 7.328125 8.296875 
Q 12.9375 14.109375 22.625 23.890625 
Q 32.328125 33.6875 34.8125 36.53125 
Q 39.546875 41.84375 41.421875 45.53125 
Q 43.3125 49.21875 43.3125 52.78125 
Q 43.3125 58.59375 39.234375 62.25 
Q 35.15625 65.921875 28.609375 65.921875 
Q 23.96875 65.921875 18.8125 64.3125 
Q 13.671875 62.703125 7.8125 59.421875 
L 7.8125 69.390625 
Q 13.765625 71.78125 18.9375 73 
Q 24.125 74.21875 28.421875 74.21875 
Q 39.75 74.21875 46.484375 68.546875 
Q 53.21875 62.890625 53.21875 53.421875 
Q 53.21875 48.921875 51.53125 44.890625 
Q 49.859375 40.875 45.40625 35.40625 
Q 44.1875 33.984375 37.640625 27.21875 
Q 31.109375 20.453125 19.1875 8.296875 
z
" id="DejaVuSans-50"/>
       </defs>
       <use xlink:href="#DejaVuSans-50"/>
      </g>
     </g>
    </g>
    <g id="xtick_3">
     <g id="line2d_9">
      <path clip-path="url(#p43f2efba50)" d="M 218.221714 298.944 
L 218.221714 27.648 
" style="fill:none;stroke:#b0b0b0;stroke-linecap:square;stroke-width:0.8;"/>
     </g>
     <g id="line2d_10">
      <g>
       <use style="stroke:#000000;stroke-width:0.8;" x="218.221714" xlink:href="#mced9645140" y="298.944"/>
      </g>
     </g>
     <g id="text_3">
      <!-- 4 -->
      <g transform="translate(211.859214 321.140875)scale(0.2 -0.2)">
       <defs>
        <path d="M 37.796875 64.3125 
L 12.890625 25.390625 
L 37.796875 25.390625 
z
M 35.203125 72.90625 
L 47.609375 72.90625 
L 47.609375 25.390625 
L 58.015625 25.390625 
L 58.015625 17.1875 
L 47.609375 17.1875 
L 47.609375 0 
L 37.796875 0 
L 37.796875 17.1875 
L 4.890625 17.1875 
L 4.890625 26.703125 
z
" id="DejaVuSans-52"/>
       </defs>
       <use xlink:href="#DejaVuSans-52"/>
      </g>
     </g>
    </g>
    <g id="xtick_4">
     <g id="line2d_11">
      <path clip-path="url(#p43f2efba50)" d="M 298.532571 298.944 
L 298.532571 27.648 
" style="fill:none;stroke:#b0b0b0;stroke-linecap:square;stroke-width:0.8;"/>
     </g>
     <g id="line2d_12">
      <g>
       <use style="stroke:#000000;stroke-width:0.8;" x="298.532571" xlink:href="#mced9645140" y="298.944"/>
      </g>
     </g>
     <g id="text_4">
      <!-- 6 -->
      <g transform="translate(292.170071 321.140875)scale(0.2 -0.2)">
       <defs>
        <path d="M 33.015625 40.375 
Q 26.375 40.375 22.484375 35.828125 
Q 18.609375 31.296875 18.609375 23.390625 
Q 18.609375 15.53125 22.484375 10.953125 
Q 26.375 6.390625 33.015625 6.390625 
Q 39.65625 6.390625 43.53125 10.953125 
Q 47.40625 15.53125 47.40625 23.390625 
Q 47.40625 31.296875 43.53125 35.828125 
Q 39.65625 40.375 33.015625 40.375 
z
M 52.59375 71.296875 
L 52.59375 62.3125 
Q 48.875 64.0625 45.09375 64.984375 
Q 41.3125 65.921875 37.59375 65.921875 
Q 27.828125 65.921875 22.671875 59.328125 
Q 17.53125 52.734375 16.796875 39.40625 
Q 19.671875 43.65625 24.015625 45.921875 
Q 28.375 48.1875 33.59375 48.1875 
Q 44.578125 48.1875 50.953125 41.515625 
Q 57.328125 34.859375 57.328125 23.390625 
Q 57.328125 12.15625 50.6875 5.359375 
Q 44.046875 -1.421875 33.015625 -1.421875 
Q 20.359375 -1.421875 13.671875 8.265625 
Q 6.984375 17.96875 6.984375 36.375 
Q 6.984375 53.65625 15.1875 63.9375 
Q 23.390625 74.21875 37.203125 74.21875 
Q 40.921875 74.21875 44.703125 73.484375 
Q 48.484375 72.75 52.59375 71.296875 
z
" id="DejaVuSans-54"/>
       </defs>
       <use xlink:href="#DejaVuSans-54"/>
      </g>
     </g>
    </g>
    <g id="xtick_5">
     <g id="line2d_13">
      <path clip-path="url(#p43f2efba50)" d="M 97.755429 298.944 
L 97.755429 27.648 
" style="fill:none;stroke:#b0b0b0;stroke-linecap:square;stroke-width:0.8;"/>
     </g>
     <g id="line2d_14">
      <defs>
       <path d="M 0 0 
L 0 2 
" id="mc1b29848ac" style="stroke:#000000;stroke-width:0.6;"/>
      </defs>
      <g>
       <use style="stroke:#000000;stroke-width:0.6;" x="97.755429" xlink:href="#mc1b29848ac" y="298.944"/>
      </g>
     </g>
    </g>
    <g id="xtick_6">
     <g id="line2d_15">
      <path clip-path="url(#p43f2efba50)" d="M 178.066286 298.944 
L 178.066286 27.648 
" style="fill:none;stroke:#b0b0b0;stroke-linecap:square;stroke-width:0.8;"/>
     </g>
     <g id="line2d_16">
      <g>
       <use style="stroke:#000000;stroke-width:0.6;" x="178.066286" xlink:href="#mc1b29848ac" y="298.944"/>
      </g>
     </g>
    </g>
    <g id="xtick_7">
     <g id="line2d_17">
      <path clip-path="url(#p43f2efba50)" d="M 258.377143 298.944 
L 258.377143 27.648 
" style="fill:none;stroke:#b0b0b0;stroke-linecap:square;stroke-width:0.8;"/>
     </g>
     <g id="line2d_18">
      <g>
       <use style="stroke:#000000;stroke-width:0.6;" x="258.377143" xlink:href="#mc1b29848ac" y="298.944"/>
      </g>
     </g>
    </g>
    <g id="xtick_8">
     <g id="line2d_19">
      <path clip-path="url(#p43f2efba50)" d="M 338.688 298.944 
L 338.688 27.648 
" style="fill:none;stroke:#b0b0b0;stroke-linecap:square;stroke-width:0.8;"/>
     </g>
     <g id="line2d_20">
      <g>
       <use style="stroke:#000000;stroke-width:0.6;" x="338.688" xlink:href="#mc1b29848ac" y="298.944"/>
      </g>
     </g>
    </g>
    <g id="text_5">
     <!-- log10(# f-evals / dimension) -->
     <g transform="translate(77.764078 342.217594)scale(0.17 -0.17)">
      <defs>
       <path d="M 9.421875 75.984375 
L 18.40625 75.984375 
L 18.40625 0 
L 9.421875 0 
z
" id="DejaVuSans-108"/>
       <path d="M 30.609375 48.390625 
Q 23.390625 48.390625 19.1875 42.75 
Q 14.984375 37.109375 14.984375 27.296875 
Q 14.984375 17.484375 19.15625 11.84375 
Q 23.34375 6.203125 30.609375 6.203125 
Q 37.796875 6.203125 41.984375 11.859375 
Q 46.1875 17.53125 46.1875 27.296875 
Q 46.1875 37.015625 41.984375 42.703125 
Q 37.796875 48.390625 30.609375 48.390625 
z
M 30.609375 56 
Q 42.328125 56 49.015625 48.375 
Q 55.71875 40.765625 55.71875 27.296875 
Q 55.71875 13.875 49.015625 6.21875 
Q 42.328125 -1.421875 30.609375 -1.421875 
Q 18.84375 -1.421875 12.171875 6.21875 
Q 5.515625 13.875 5.515625 27.296875 
Q 5.515625 40.765625 12.171875 48.375 
Q 18.84375 56 30.609375 56 
z
" id="DejaVuSans-111"/>
       <path d="M 45.40625 27.984375 
Q 45.40625 37.75 41.375 43.109375 
Q 37.359375 48.484375 30.078125 48.484375 
Q 22.859375 48.484375 18.828125 43.109375 
Q 14.796875 37.75 14.796875 27.984375 
Q 14.796875 18.265625 18.828125 12.890625 
Q 22.859375 7.515625 30.078125 7.515625 
Q 37.359375 7.515625 41.375 12.890625 
Q 45.40625 18.265625 45.40625 27.984375 
z
M 54.390625 6.78125 
Q 54.390625 -7.171875 48.1875 -13.984375 
Q 42 -20.796875 29.203125 -20.796875 
Q 24.46875 -20.796875 20.265625 -20.09375 
Q 16.0625 -19.390625 12.109375 -17.921875 
L 12.109375 -9.1875 
Q 16.0625 -11.328125 19.921875 -12.34375 
Q 23.78125 -13.375 27.78125 -13.375 
Q 36.625 -13.375 41.015625 -8.765625 
Q 45.40625 -4.15625 45.40625 5.171875 
L 45.40625 9.625 
Q 42.625 4.78125 38.28125 2.390625 
Q 33.9375 0 27.875 0 
Q 17.828125 0 11.671875 7.65625 
Q 5.515625 15.328125 5.515625 27.984375 
Q 5.515625 40.671875 11.671875 48.328125 
Q 17.828125 56 27.875 56 
Q 33.9375 56 38.28125 53.609375 
Q 42.625 51.21875 45.40625 46.390625 
L 45.40625 54.6875 
L 54.390625 54.6875 
z
" id="DejaVuSans-103"/>
       <path d="M 12.40625 8.296875 
L 28.515625 8.296875 
L 28.515625 63.921875 
L 10.984375 60.40625 
L 10.984375 69.390625 
L 28.421875 72.90625 
L 38.28125 72.90625 
L 38.28125 8.296875 
L 54.390625 8.296875 
L 54.390625 0 
L 12.40625 0 
z
" id="DejaVuSans-49"/>
       <path d="M 31 75.875 
Q 24.46875 64.65625 21.28125 53.65625 
Q 18.109375 42.671875 18.109375 31.390625 
Q 18.109375 20.125 21.3125 9.0625 
Q 24.515625 -2 31 -13.1875 
L 23.1875 -13.1875 
Q 15.875 -1.703125 12.234375 9.375 
Q 8.59375 20.453125 8.59375 31.390625 
Q 8.59375 42.28125 12.203125 53.3125 
Q 15.828125 64.359375 23.1875 75.875 
z
" id="DejaVuSans-40"/>
       <path d="M 51.125 44 
L 36.921875 44 
L 32.8125 27.6875 
L 47.125 27.6875 
z
M 43.796875 71.78125 
L 38.71875 51.515625 
L 52.984375 51.515625 
L 58.109375 71.78125 
L 65.921875 71.78125 
L 60.890625 51.515625 
L 76.125 51.515625 
L 76.125 44 
L 58.984375 44 
L 54.984375 27.6875 
L 70.515625 27.6875 
L 70.515625 20.21875 
L 53.078125 20.21875 
L 48 0 
L 40.1875 0 
L 45.21875 20.21875 
L 30.90625 20.21875 
L 25.875 0 
L 18.015625 0 
L 23.09375 20.21875 
L 7.71875 20.21875 
L 7.71875 27.6875 
L 24.90625 27.6875 
L 29 44 
L 13.28125 44 
L 13.28125 51.515625 
L 30.90625 51.515625 
L 35.890625 71.78125 
z
" id="DejaVuSans-35"/>
       <path id="DejaVuSans-32"/>
       <path d="M 37.109375 75.984375 
L 37.109375 68.5 
L 28.515625 68.5 
Q 23.6875 68.5 21.796875 66.546875 
Q 19.921875 64.59375 19.921875 59.515625 
L 19.921875 54.6875 
L 34.71875 54.6875 
L 34.71875 47.703125 
L 19.921875 47.703125 
L 19.921875 0 
L 10.890625 0 
L 10.890625 47.703125 
L 2.296875 47.703125 
L 2.296875 54.6875 
L 10.890625 54.6875 
L 10.890625 58.5 
Q 10.890625 67.625 15.140625 71.796875 
Q 19.390625 75.984375 28.609375 75.984375 
z
" id="DejaVuSans-102"/>
       <path d="M 4.890625 31.390625 
L 31.203125 31.390625 
L 31.203125 23.390625 
L 4.890625 23.390625 
z
" id="DejaVuSans-45"/>
       <path d="M 56.203125 29.59375 
L 56.203125 25.203125 
L 14.890625 25.203125 
Q 15.484375 15.921875 20.484375 11.0625 
Q 25.484375 6.203125 34.421875 6.203125 
Q 39.59375 6.203125 44.453125 7.46875 
Q 49.3125 8.734375 54.109375 11.28125 
L 54.109375 2.78125 
Q 49.265625 0.734375 44.1875 -0.34375 
Q 39.109375 -1.421875 33.890625 -1.421875 
Q 20.796875 -1.421875 13.15625 6.1875 
Q 5.515625 13.8125 5.515625 26.8125 
Q 5.515625 40.234375 12.765625 48.109375 
Q 20.015625 56 32.328125 56 
Q 43.359375 56 49.78125 48.890625 
Q 56.203125 41.796875 56.203125 29.59375 
z
M 47.21875 32.234375 
Q 47.125 39.59375 43.09375 43.984375 
Q 39.0625 48.390625 32.421875 48.390625 
Q 24.90625 48.390625 20.390625 44.140625 
Q 15.875 39.890625 15.1875 32.171875 
z
" id="DejaVuSans-101"/>
       <path d="M 2.984375 54.6875 
L 12.5 54.6875 
L 29.59375 8.796875 
L 46.6875 54.6875 
L 56.203125 54.6875 
L 35.6875 0 
L 23.484375 0 
z
" id="DejaVuSans-118"/>
       <path d="M 34.28125 27.484375 
Q 23.390625 27.484375 19.1875 25 
Q 14.984375 22.515625 14.984375 16.5 
Q 14.984375 11.71875 18.140625 8.90625 
Q 21.296875 6.109375 26.703125 6.109375 
Q 34.1875 6.109375 38.703125 11.40625 
Q 43.21875 16.703125 43.21875 25.484375 
L 43.21875 27.484375 
z
M 52.203125 31.203125 
L 52.203125 0 
L 43.21875 0 
L 43.21875 8.296875 
Q 40.140625 3.328125 35.546875 0.953125 
Q 30.953125 -1.421875 24.3125 -1.421875 
Q 15.921875 -1.421875 10.953125 3.296875 
Q 6 8.015625 6 15.921875 
Q 6 25.140625 12.171875 29.828125 
Q 18.359375 34.515625 30.609375 34.515625 
L 43.21875 34.515625 
L 43.21875 35.40625 
Q 43.21875 41.609375 39.140625 45 
Q 35.0625 48.390625 27.6875 48.390625 
Q 23 48.390625 18.546875 47.265625 
Q 14.109375 46.140625 10.015625 43.890625 
L 10.015625 52.203125 
Q 14.9375 54.109375 19.578125 55.046875 
Q 24.21875 56 28.609375 56 
Q 40.484375 56 46.34375 49.84375 
Q 52.203125 43.703125 52.203125 31.203125 
z
" id="DejaVuSans-97"/>
       <path d="M 44.28125 53.078125 
L 44.28125 44.578125 
Q 40.484375 46.53125 36.375 47.5 
Q 32.28125 48.484375 27.875 48.484375 
Q 21.1875 48.484375 17.84375 46.4375 
Q 14.5 44.390625 14.5 40.28125 
Q 14.5 37.15625 16.890625 35.375 
Q 19.28125 33.59375 26.515625 31.984375 
L 29.59375 31.296875 
Q 39.15625 29.25 43.1875 25.515625 
Q 47.21875 21.78125 47.21875 15.09375 
Q 47.21875 7.46875 41.1875 3.015625 
Q 35.15625 -1.421875 24.609375 -1.421875 
Q 20.21875 -1.421875 15.453125 -0.5625 
Q 10.6875 0.296875 5.421875 2 
L 5.421875 11.28125 
Q 10.40625 8.6875 15.234375 7.390625 
Q 20.0625 6.109375 24.8125 6.109375 
Q 31.15625 6.109375 34.5625 8.28125 
Q 37.984375 10.453125 37.984375 14.40625 
Q 37.984375 18.0625 35.515625 20.015625 
Q 33.0625 21.96875 24.703125 23.78125 
L 21.578125 24.515625 
Q 13.234375 26.265625 9.515625 29.90625 
Q 5.8125 33.546875 5.8125 39.890625 
Q 5.8125 47.609375 11.28125 51.796875 
Q 16.75 56 26.8125 56 
Q 31.78125 56 36.171875 55.265625 
Q 40.578125 54.546875 44.28125 53.078125 
z
" id="DejaVuSans-115"/>
       <path d="M 25.390625 72.90625 
L 33.6875 72.90625 
L 8.296875 -9.28125 
L 0 -9.28125 
z
" id="DejaVuSans-47"/>
       <path d="M 45.40625 46.390625 
L 45.40625 75.984375 
L 54.390625 75.984375 
L 54.390625 0 
L 45.40625 0 
L 45.40625 8.203125 
Q 42.578125 3.328125 38.25 0.953125 
Q 33.9375 -1.421875 27.875 -1.421875 
Q 17.96875 -1.421875 11.734375 6.484375 
Q 5.515625 14.40625 5.515625 27.296875 
Q 5.515625 40.1875 11.734375 48.09375 
Q 17.96875 56 27.875 56 
Q 33.9375 56 38.25 53.625 
Q 42.578125 51.265625 45.40625 46.390625 
z
M 14.796875 27.296875 
Q 14.796875 17.390625 18.875 11.75 
Q 22.953125 6.109375 30.078125 6.109375 
Q 37.203125 6.109375 41.296875 11.75 
Q 45.40625 17.390625 45.40625 27.296875 
Q 45.40625 37.203125 41.296875 42.84375 
Q 37.203125 48.484375 30.078125 48.484375 
Q 22.953125 48.484375 18.875 42.84375 
Q 14.796875 37.203125 14.796875 27.296875 
z
" id="DejaVuSans-100"/>
       <path d="M 9.421875 54.6875 
L 18.40625 54.6875 
L 18.40625 0 
L 9.421875 0 
z
M 9.421875 75.984375 
L 18.40625 75.984375 
L 18.40625 64.59375 
L 9.421875 64.59375 
z
" id="DejaVuSans-105"/>
       <path d="M 52 44.1875 
Q 55.375 50.25 60.0625 53.125 
Q 64.75 56 71.09375 56 
Q 79.640625 56 84.28125 50.015625 
Q 88.921875 44.046875 88.921875 33.015625 
L 88.921875 0 
L 79.890625 0 
L 79.890625 32.71875 
Q 79.890625 40.578125 77.09375 44.375 
Q 74.3125 48.1875 68.609375 48.1875 
Q 61.625 48.1875 57.5625 43.546875 
Q 53.515625 38.921875 53.515625 30.90625 
L 53.515625 0 
L 44.484375 0 
L 44.484375 32.71875 
Q 44.484375 40.625 41.703125 44.40625 
Q 38.921875 48.1875 33.109375 48.1875 
Q 26.21875 48.1875 22.15625 43.53125 
Q 18.109375 38.875 18.109375 30.90625 
L 18.109375 0 
L 9.078125 0 
L 9.078125 54.6875 
L 18.109375 54.6875 
L 18.109375 46.1875 
Q 21.1875 51.21875 25.484375 53.609375 
Q 29.78125 56 35.6875 56 
Q 41.65625 56 45.828125 52.96875 
Q 50 49.953125 52 44.1875 
z
" id="DejaVuSans-109"/>
       <path d="M 54.890625 33.015625 
L 54.890625 0 
L 45.90625 0 
L 45.90625 32.71875 
Q 45.90625 40.484375 42.875 44.328125 
Q 39.84375 48.1875 33.796875 48.1875 
Q 26.515625 48.1875 22.3125 43.546875 
Q 18.109375 38.921875 18.109375 30.90625 
L 18.109375 0 
L 9.078125 0 
L 9.078125 54.6875 
L 18.109375 54.6875 
L 18.109375 46.1875 
Q 21.34375 51.125 25.703125 53.5625 
Q 30.078125 56 35.796875 56 
Q 45.21875 56 50.046875 50.171875 
Q 54.890625 44.34375 54.890625 33.015625 
z
" id="DejaVuSans-110"/>
       <path d="M 8.015625 75.875 
L 15.828125 75.875 
Q 23.140625 64.359375 26.78125 53.3125 
Q 30.421875 42.28125 30.421875 31.390625 
Q 30.421875 20.453125 26.78125 9.375 
Q 23.140625 -1.703125 15.828125 -13.1875 
L 8.015625 -13.1875 
Q 14.5 -2 17.703125 9.0625 
Q 20.90625 20.125 20.90625 31.390625 
Q 20.90625 42.671875 17.703125 53.65625 
Q 14.5 64.65625 8.015625 75.875 
z
" id="DejaVuSans-41"/>
      </defs>
      <use xlink:href="#DejaVuSans-108"/>
      <use x="27.783203" xlink:href="#DejaVuSans-111"/>
      <use x="88.964844" xlink:href="#DejaVuSans-103"/>
      <use x="152.441406" xlink:href="#DejaVuSans-49"/>
      <use x="216.064453" xlink:href="#DejaVuSans-48"/>
      <use x="279.6875" xlink:href="#DejaVuSans-40"/>
      <use x="318.701172" xlink:href="#DejaVuSans-35"/>
      <use x="402.490234" xlink:href="#DejaVuSans-32"/>
      <use x="434.277344" xlink:href="#DejaVuSans-102"/>
      <use x="463.982422" xlink:href="#DejaVuSans-45"/>
      <use x="500.066406" xlink:href="#DejaVuSans-101"/>
      <use x="561.589844" xlink:href="#DejaVuSans-118"/>
      <use x="620.769531" xlink:href="#DejaVuSans-97"/>
      <use x="682.048828" xlink:href="#DejaVuSans-108"/>
      <use x="709.832031" xlink:href="#DejaVuSans-115"/>
      <use x="761.931641" xlink:href="#DejaVuSans-32"/>
      <use x="793.71875" xlink:href="#DejaVuSans-47"/>
      <use x="827.410156" xlink:href="#DejaVuSans-32"/>
      <use x="859.197266" xlink:href="#DejaVuSans-100"/>
      <use x="922.673828" xlink:href="#DejaVuSans-105"/>
      <use x="950.457031" xlink:href="#DejaVuSans-109"/>
      <use x="1047.869141" xlink:href="#DejaVuSans-101"/>
      <use x="1109.392578" xlink:href="#DejaVuSans-110"/>
      <use x="1172.771484" xlink:href="#DejaVuSans-115"/>
      <use x="1224.871094" xlink:href="#DejaVuSans-105"/>
      <use x="1252.654297" xlink:href="#DejaVuSans-111"/>
      <use x="1313.835938" xlink:href="#DejaVuSans-110"/>
      <use x="1377.214844" xlink:href="#DejaVuSans-41"/>
     </g>
    </g>
   </g>
   <g id="matplotlib.axis_2">
    <g id="ytick_1">
     <g id="line2d_21">
      <path clip-path="url(#p43f2efba50)" d="M 57.6 298.944 
L 338.688 298.944 
" style="fill:none;stroke:#b0b0b0;stroke-linecap:square;stroke-width:0.8;"/>
     </g>
     <g id="line2d_22">
      <defs>
       <path d="M 0 0 
L -3.5 0 
" id="m95a2975fe4" style="stroke:#000000;stroke-width:0.8;"/>
      </defs>
      <g>
       <use style="stroke:#000000;stroke-width:0.8;" x="57.6" xlink:href="#m95a2975fe4" y="298.944"/>
      </g>
     </g>
     <g id="text_6">
      <!-- 0.0 -->
      <g transform="translate(25.155 305.02275)scale(0.16 -0.16)">
       <defs>
        <path d="M 10.6875 12.40625 
L 21 12.40625 
L 21 0 
L 10.6875 0 
z
" id="DejaVuSans-46"/>
       </defs>
       <use xlink:href="#DejaVuSans-48"/>
       <use x="63.623047" xlink:href="#DejaVuSans-46"/>
       <use x="95.410156" xlink:href="#DejaVuSans-48"/>
      </g>
     </g>
    </g>
    <g id="ytick_2">
     <g id="line2d_23">
      <path clip-path="url(#p43f2efba50)" d="M 57.6 245.22202 
L 338.688 245.22202 
" style="fill:none;stroke:#b0b0b0;stroke-linecap:square;stroke-width:0.8;"/>
     </g>
     <g id="line2d_24">
      <g>
       <use style="stroke:#000000;stroke-width:0.8;" x="57.6" xlink:href="#m95a2975fe4" y="245.22202"/>
      </g>
     </g>
     <g id="text_7">
      <!-- 0.2 -->
      <g transform="translate(25.155 251.30077)scale(0.16 -0.16)">
       <use xlink:href="#DejaVuSans-48"/>
       <use x="63.623047" xlink:href="#DejaVuSans-46"/>
       <use x="95.410156" xlink:href="#DejaVuSans-50"/>
      </g>
     </g>
    </g>
    <g id="ytick_3">
     <g id="line2d_25">
      <path clip-path="url(#p43f2efba50)" d="M 57.6 191.50004 
L 338.688 191.50004 
" style="fill:none;stroke:#b0b0b0;stroke-linecap:square;stroke-width:0.8;"/>
     </g>
     <g id="line2d_26">
      <g>
       <use style="stroke:#000000;stroke-width:0.8;" x="57.6" xlink:href="#m95a2975fe4" y="191.50004"/>
      </g>
     </g>
     <g id="text_8">
      <!-- 0.4 -->
      <g transform="translate(25.155 197.57879)scale(0.16 -0.16)">
       <use xlink:href="#DejaVuSans-48"/>
       <use x="63.623047" xlink:href="#DejaVuSans-46"/>
       <use x="95.410156" xlink:href="#DejaVuSans-52"/>
      </g>
     </g>
    </g>
    <g id="ytick_4">
     <g id="line2d_27">
      <path clip-path="url(#p43f2efba50)" d="M 57.6 137.778059 
L 338.688 137.778059 
" style="fill:none;stroke:#b0b0b0;stroke-linecap:square;stroke-width:0.8;"/>
     </g>
     <g id="line2d_28">
      <g>
       <use style="stroke:#000000;stroke-width:0.8;" x="57.6" xlink:href="#m95a2975fe4" y="137.778059"/>
      </g>
     </g>
     <g id="text_9">
      <!-- 0.6 -->
      <g transform="translate(25.155 143.856809)scale(0.16 -0.16)">
       <use xlink:href="#DejaVuSans-48"/>
       <use x="63.623047" xlink:href="#DejaVuSans-46"/>
       <use x="95.410156" xlink:href="#DejaVuSans-54"/>
      </g>
     </g>
    </g>
    <g id="ytick_5">
     <g id="line2d_29">
      <path clip-path="url(#p43f2efba50)" d="M 57.6 84.056079 
L 338.688 84.056079 
" style="fill:none;stroke:#b0b0b0;stroke-linecap:square;stroke-width:0.8;"/>
     </g>
     <g id="line2d_30">
      <g>
       <use style="stroke:#000000;stroke-width:0.8;" x="57.6" xlink:href="#m95a2975fe4" y="84.056079"/>
      </g>
     </g>
     <g id="text_10">
      <!-- 0.8 -->
      <g transform="translate(25.155 90.134829)scale(0.16 -0.16)">
       <defs>
        <path d="M 31.78125 34.625 
Q 24.75 34.625 20.71875 30.859375 
Q 16.703125 27.09375 16.703125 20.515625 
Q 16.703125 13.921875 20.71875 10.15625 
Q 24.75 6.390625 31.78125 6.390625 
Q 38.8125 6.390625 42.859375 10.171875 
Q 46.921875 13.96875 46.921875 20.515625 
Q 46.921875 27.09375 42.890625 30.859375 
Q 38.875 34.625 31.78125 34.625 
z
M 21.921875 38.8125 
Q 15.578125 40.375 12.03125 44.71875 
Q 8.5 49.078125 8.5 55.328125 
Q 8.5 64.0625 14.71875 69.140625 
Q 20.953125 74.21875 31.78125 74.21875 
Q 42.671875 74.21875 48.875 69.140625 
Q 55.078125 64.0625 55.078125 55.328125 
Q 55.078125 49.078125 51.53125 44.71875 
Q 48 40.375 41.703125 38.8125 
Q 48.828125 37.15625 52.796875 32.3125 
Q 56.78125 27.484375 56.78125 20.515625 
Q 56.78125 9.90625 50.3125 4.234375 
Q 43.84375 -1.421875 31.78125 -1.421875 
Q 19.734375 -1.421875 13.25 4.234375 
Q 6.78125 9.90625 6.78125 20.515625 
Q 6.78125 27.484375 10.78125 32.3125 
Q 14.796875 37.15625 21.921875 38.8125 
z
M 18.3125 54.390625 
Q 18.3125 48.734375 21.84375 45.5625 
Q 25.390625 42.390625 31.78125 42.390625 
Q 38.140625 42.390625 41.71875 45.5625 
Q 45.3125 48.734375 45.3125 54.390625 
Q 45.3125 60.0625 41.71875 63.234375 
Q 38.140625 66.40625 31.78125 66.40625 
Q 25.390625 66.40625 21.84375 63.234375 
Q 18.3125 60.0625 18.3125 54.390625 
z
" id="DejaVuSans-56"/>
       </defs>
       <use xlink:href="#DejaVuSans-48"/>
       <use x="63.623047" xlink:href="#DejaVuSans-46"/>
       <use x="95.410156" xlink:href="#DejaVuSans-56"/>
      </g>
     </g>
    </g>
    <g id="ytick_6">
     <g id="line2d_31">
      <path clip-path="url(#p43f2efba50)" d="M 57.6 30.334099 
L 338.688 30.334099 
" style="fill:none;stroke:#b0b0b0;stroke-linecap:square;stroke-width:0.8;"/>
     </g>
     <g id="line2d_32">
      <g>
       <use style="stroke:#000000;stroke-width:0.8;" x="57.6" xlink:href="#m95a2975fe4" y="30.334099"/>
      </g>
     </g>
     <g id="text_11">
      <!-- 1.0 -->
      <g transform="translate(25.155 36.412849)scale(0.16 -0.16)">
       <use xlink:href="#DejaVuSans-49"/>
       <use x="63.623047" xlink:href="#DejaVuSans-46"/>
       <use x="95.410156" xlink:href="#DejaVuSans-48"/>
      </g>
     </g>
    </g>
    <g id="text_12">
     <!-- Fraction of function,target pairs -->
     <g transform="translate(17.619531 297.681)rotate(-90)scale(0.17 -0.17)">
      <defs>
       <path d="M 9.8125 72.90625 
L 51.703125 72.90625 
L 51.703125 64.59375 
L 19.671875 64.59375 
L 19.671875 43.109375 
L 48.578125 43.109375 
L 48.578125 34.8125 
L 19.671875 34.8125 
L 19.671875 0 
L 9.8125 0 
z
" id="DejaVuSans-70"/>
       <path d="M 41.109375 46.296875 
Q 39.59375 47.171875 37.8125 47.578125 
Q 36.03125 48 33.890625 48 
Q 26.265625 48 22.1875 43.046875 
Q 18.109375 38.09375 18.109375 28.8125 
L 18.109375 0 
L 9.078125 0 
L 9.078125 54.6875 
L 18.109375 54.6875 
L 18.109375 46.1875 
Q 20.953125 51.171875 25.484375 53.578125 
Q 30.03125 56 36.53125 56 
Q 37.453125 56 38.578125 55.875 
Q 39.703125 55.765625 41.0625 55.515625 
z
" id="DejaVuSans-114"/>
       <path d="M 48.78125 52.59375 
L 48.78125 44.1875 
Q 44.96875 46.296875 41.140625 47.34375 
Q 37.3125 48.390625 33.40625 48.390625 
Q 24.65625 48.390625 19.8125 42.84375 
Q 14.984375 37.3125 14.984375 27.296875 
Q 14.984375 17.28125 19.8125 11.734375 
Q 24.65625 6.203125 33.40625 6.203125 
Q 37.3125 6.203125 41.140625 7.25 
Q 44.96875 8.296875 48.78125 10.40625 
L 48.78125 2.09375 
Q 45.015625 0.34375 40.984375 -0.53125 
Q 36.96875 -1.421875 32.421875 -1.421875 
Q 20.0625 -1.421875 12.78125 6.34375 
Q 5.515625 14.109375 5.515625 27.296875 
Q 5.515625 40.671875 12.859375 48.328125 
Q 20.21875 56 33.015625 56 
Q 37.15625 56 41.109375 55.140625 
Q 45.0625 54.296875 48.78125 52.59375 
z
" id="DejaVuSans-99"/>
       <path d="M 18.3125 70.21875 
L 18.3125 54.6875 
L 36.8125 54.6875 
L 36.8125 47.703125 
L 18.3125 47.703125 
L 18.3125 18.015625 
Q 18.3125 11.328125 20.140625 9.421875 
Q 21.96875 7.515625 27.59375 7.515625 
L 36.8125 7.515625 
L 36.8125 0 
L 27.59375 0 
Q 17.1875 0 13.234375 3.875 
Q 9.28125 7.765625 9.28125 18.015625 
L 9.28125 47.703125 
L 2.6875 47.703125 
L 2.6875 54.6875 
L 9.28125 54.6875 
L 9.28125 70.21875 
z
" id="DejaVuSans-116"/>
       <path d="M 8.5 21.578125 
L 8.5 54.6875 
L 17.484375 54.6875 
L 17.484375 21.921875 
Q 17.484375 14.15625 20.5 10.265625 
Q 23.53125 6.390625 29.59375 6.390625 
Q 36.859375 6.390625 41.078125 11.03125 
Q 45.3125 15.671875 45.3125 23.6875 
L 45.3125 54.6875 
L 54.296875 54.6875 
L 54.296875 0 
L 45.3125 0 
L 45.3125 8.40625 
Q 42.046875 3.421875 37.71875 1 
Q 33.40625 -1.421875 27.6875 -1.421875 
Q 18.265625 -1.421875 13.375 4.4375 
Q 8.5 10.296875 8.5 21.578125 
z
M 31.109375 56 
z
" id="DejaVuSans-117"/>
       <path d="M 11.71875 12.40625 
L 22.015625 12.40625 
L 22.015625 4 
L 14.015625 -11.625 
L 7.71875 -11.625 
L 11.71875 4 
z
" id="DejaVuSans-44"/>
       <path d="M 18.109375 8.203125 
L 18.109375 -20.796875 
L 9.078125 -20.796875 
L 9.078125 54.6875 
L 18.109375 54.6875 
L 18.109375 46.390625 
Q 20.953125 51.265625 25.265625 53.625 
Q 29.59375 56 35.59375 56 
Q 45.5625 56 51.78125 48.09375 
Q 58.015625 40.1875 58.015625 27.296875 
Q 58.015625 14.40625 51.78125 6.484375 
Q 45.5625 -1.421875 35.59375 -1.421875 
Q 29.59375 -1.421875 25.265625 0.953125 
Q 20.953125 3.328125 18.109375 8.203125 
z
M 48.6875 27.296875 
Q 48.6875 37.203125 44.609375 42.84375 
Q 40.53125 48.484375 33.40625 48.484375 
Q 26.265625 48.484375 22.1875 42.84375 
Q 18.109375 37.203125 18.109375 27.296875 
Q 18.109375 17.390625 22.1875 11.75 
Q 26.265625 6.109375 33.40625 6.109375 
Q 40.53125 6.109375 44.609375 11.75 
Q 48.6875 17.390625 48.6875 27.296875 
z
" id="DejaVuSans-112"/>
      </defs>
      <use xlink:href="#DejaVuSans-70"/>
      <use x="50.269531" xlink:href="#DejaVuSans-114"/>
      <use x="91.382812" xlink:href="#DejaVuSans-97"/>
      <use x="152.662109" xlink:href="#DejaVuSans-99"/>
      <use x="207.642578" xlink:href="#DejaVuSans-116"/>
      <use x="246.851562" xlink:href="#DejaVuSans-105"/>
      <use x="274.634766" xlink:href="#DejaVuSans-111"/>
      <use x="335.816406" xlink:href="#DejaVuSans-110"/>
      <use x="399.195312" xlink:href="#DejaVuSans-32"/>
      <use x="430.982422" xlink:href="#DejaVuSans-111"/>
      <use x="492.164062" xlink:href="#DejaVuSans-102"/>
      <use x="527.369141" xlink:href="#DejaVuSans-32"/>
      <use x="559.15625" xlink:href="#DejaVuSans-102"/>
      <use x="594.361328" xlink:href="#DejaVuSans-117"/>
      <use x="657.740234" xlink:href="#DejaVuSans-110"/>
      <use x="721.119141" xlink:href="#DejaVuSans-99"/>
      <use x="776.099609" xlink:href="#DejaVuSans-116"/>
      <use x="815.308594" xlink:href="#DejaVuSans-105"/>
      <use x="843.091797" xlink:href="#DejaVuSans-111"/>
      <use x="904.273438" xlink:href="#DejaVuSans-110"/>
      <use x="967.652344" xlink:href="#DejaVuSans-44"/>
      <use x="999.439453" xlink:href="#DejaVuSans-116"/>
      <use x="1038.648438" xlink:href="#DejaVuSans-97"/>
      <use x="1099.927734" xlink:href="#DejaVuSans-114"/>
      <use x="1139.291016" xlink:href="#DejaVuSans-103"/>
      <use x="1202.767578" xlink:href="#DejaVuSans-101"/>
      <use x="1264.291016" xlink:href="#DejaVuSans-116"/>
      <use x="1303.5" xlink:href="#DejaVuSans-32"/>
      <use x="1335.287109" xlink:href="#DejaVuSans-112"/>
      <use x="1398.763672" xlink:href="#DejaVuSans-97"/>
      <use x="1460.042969" xlink:href="#DejaVuSans-105"/>
      <use x="1487.826172" xlink:href="#DejaVuSans-114"/>
      <use x="1528.939453" xlink:href="#DejaVuSans-115"/>
     </g>
    </g>
   </g>
   <g id="line2d_33">
    <defs>
     <path d="M 0 1.5 
C 0.397805 1.5 0.77937 1.341951 1.06066 1.06066 
C 1.341951 0.77937 1.5 0.397805 1.5 0 
C 1.5 -0.397805 1.341951 -0.77937 1.06066 -1.06066 
C 0.77937 -1.341951 0.397805 -1.5 0 -1.5 
C -0.397805 -1.5 -0.77937 -1.341951 -1.06066 -1.06066 
C -1.341951 -0.77937 -1.5 -0.397805 -1.5 0 
C -1.5 0.397805 -1.341951 0.77937 -1.06066 1.06066 
C -0.77937 1.341951 -0.397805 1.5 0 1.5 
z
" id="m7e9782c479" style="stroke:#f5deb3;"/>
    </defs>
    <g>
     <use style="fill:#f5deb3;stroke:#f5deb3;" x="218.050847" xlink:href="#m7e9782c479" y="62.752535"/>
     <use style="fill:#f5deb3;stroke:#f5deb3;" x="218.050847" xlink:href="#m7e9782c479" y="62.752535"/>
    </g>
   </g>
   <g id="line2d_34">
    <defs>
     <path d="M 0 1.5 
C 0.397805 1.5 0.77937 1.341951 1.06066 1.06066 
C 1.341951 0.77937 1.5 0.397805 1.5 0 
C 1.5 -0.397805 1.341951 -0.77937 1.06066 -1.06066 
C 0.77937 -1.341951 0.397805 -1.5 0 -1.5 
C -0.397805 -1.5 -0.77937 -1.341951 -1.06066 -1.06066 
C -1.341951 -0.77937 -1.5 -0.397805 -1.5 0 
C -1.5 0.397805 -1.341951 0.77937 -1.06066 1.06066 
C -0.77937 1.341951 -0.397805 1.5 0 1.5 
z
" id="m3e52417d2d" style="stroke:#000080;"/>
    </defs>
    <g>
     <use style="fill:#000080;stroke:#000080;" x="241.475386" xlink:href="#m3e52417d2d" y="108.601467"/>
     <use style="fill:#000080;stroke:#000080;" x="241.475386" xlink:href="#m3e52417d2d" y="108.601467"/>
    </g>
   </g>
   <g id="line2d_35">
    <path d="M 45.512012 298.944 
L 45.512012 296.165277 
L 57.6 296.165277 
L 57.6 294.775915 
L 64.67102 294.775915 
L 64.67102 293.849674 
L 76.759008 293.849674 
L 76.759008 291.997192 
L 79.447285 291.997192 
L 79.447285 290.14471 
L 81.775977 290.14471 
L 81.775977 282.734782 
L 83.830028 282.734782 
L 83.830028 273.935492 
L 85.66744 273.935492 
L 85.66744 272.54613 
L 87.329581 272.54613 
L 87.329581 271.619889 
L 93.863965 271.619889 
L 93.863965 271.156769 
L 94.921215 271.156769 
L 94.921215 269.304287 
L 101.646892 269.304287 
L 101.646892 267.451805 
L 102.989037 267.451805 
L 102.989037 266.525564 
L 104.826449 266.525564 
L 104.826449 263.746841 
L 108.948899 263.746841 
L 108.948899 263.28372 
L 109.843417 263.28372 
L 109.843417 260.041876 
L 111.897469 260.041876 
L 111.897469 258.652515 
L 112.655818 258.652515 
L 112.655818 257.263153 
L 113.382559 257.263153 
L 113.382559 256.336912 
L 115.397021 256.336912 
L 115.397021 254.02131 
L 117.765302 254.02131 
L 117.765302 253.095069 
L 119.602714 253.095069 
L 119.602714 250.316346 
L 119.850084 250.316346 
L 119.850084 248.463863 
L 120.33454 248.463863 
L 120.33454 248.000743 
L 121.931406 248.000743 
L 121.931406 247.537622 
L 122.362027 247.537622 
L 122.362027 246.611381 
L 123.394238 246.611381 
L 123.394238 245.22202 
L 123.985457 245.22202 
L 123.985457 244.295779 
L 124.92835 244.295779 
L 124.92835 239.201453 
L 125.110962 239.201453 
L 125.110962 237.812091 
L 127.954256 237.812091 
L 127.954256 236.88585 
L 128.260216 236.88585 
L 128.260216 235.959609 
L 130.664567 235.959609 
L 130.664567 235.033368 
L 131.185181 235.033368 
L 131.185181 230.402163 
L 132.659801 230.402163 
L 132.659801 224.844717 
L 133.124876 224.844717 
L 133.124876 222.992235 
L 133.46572 222.992235 
L 133.46572 222.529114 
L 133.57787 222.529114 
L 133.57787 222.065994 
L 133.689303 222.065994 
L 133.689303 220.213512 
L 134.661403 220.213512 
L 134.661403 219.750391 
L 135.076644 219.750391 
L 135.076644 219.287271 
L 135.780341 219.287271 
L 135.780341 218.36103 
L 137.107884 218.36103 
L 137.107884 217.434789 
L 138.084384 217.434789 
L 138.084384 216.971668 
L 139.730821 216.971668 
L 139.730821 216.508548 
L 140.64889 216.508548 
L 140.64889 215.582307 
L 140.871049 215.582307 
L 140.944478 214.656066 
L 142.619936 214.656066 
L 142.619936 214.192945 
L 144.330419 214.192945 
L 144.330419 213.266704 
L 144.629556 213.266704 
L 144.629556 212.340463 
L 147.113265 212.340463 
L 147.113265 210.02486 
L 150.429467 210.02486 
L 150.429467 209.56174 
L 151.015013 209.56174 
L 151.015013 208.635499 
L 151.260066 208.635499 
L 151.260066 208.172378 
L 151.381313 208.172378 
L 151.381313 207.246137 
L 152.360205 207.246137 
L 152.360205 206.319896 
L 154.972161 206.319896 
L 154.972161 203.541173 
L 156.418408 203.541173 
L 156.418408 203.078053 
L 156.658127 203.078053 
L 156.658127 202.614932 
L 158.113432 202.614932 
L 158.113432 202.151812 
L 159.303838 202.151812 
L 159.303838 201.225571 
L 160.030058 201.225571 
L 160.030058 200.299329 
L 160.442124 200.299329 
L 160.442124 198.909968 
L 161.100288 198.909968 
L 161.100288 198.446847 
L 162.875305 198.446847 
L 162.979172 197.520606 
L 163.609699 197.520606 
L 163.609699 196.594365 
L 164.768882 196.594365 
L 164.768882 196.131245 
L 166.408919 196.131245 
L 166.408919 195.668124 
L 166.645502 195.668124 
L 166.645502 195.205004 
L 167.043752 195.205004 
L 167.043752 194.741883 
L 168.491304 194.741883 
L 168.491304 193.352522 
L 168.805533 193.352522 
L 168.805533 192.889401 
L 169.316986 192.889401 
L 169.316986 192.426281 
L 169.460402 192.426281 
L 169.460402 191.96316 
L 171.83367 191.96316 
L 171.83367 191.50004 
L 172.967743 191.50004 
L 172.967743 189.647558 
L 174.174823 189.647558 
L 174.196608 188.258196 
L 174.337554 188.258196 
L 174.337554 187.331955 
L 176.335123 187.331955 
L 176.335123 185.479473 
L 176.781943 185.479473 
L 176.781943 184.553232 
L 176.968661 184.553232 
L 176.968661 183.16387 
L 177.615816 183.16387 
L 177.615816 182.70075 
L 178.092425 182.70075 
L 178.092425 181.774509 
L 179.238053 181.774509 
L 179.238053 181.311388 
L 179.392276 181.311388 
L 179.392276 180.848268 
L 180.251605 180.848268 
L 180.251605 179.922027 
L 182.405376 179.922027 
L 182.405376 179.458906 
L 182.64173 179.458906 
L 182.64173 178.995786 
L 183.209233 178.995786 
L 183.209233 176.217062 
L 184.967906 176.217062 
L 184.99723 174.827701 
L 186.284597 174.827701 
L 186.284597 174.36458 
L 187.890237 174.36458 
L 187.890237 173.90146 
L 188.112208 173.90146 
L 188.141592 171.585857 
L 188.851149 171.585857 
L 188.851149 171.122737 
L 189.213803 171.122737 
L 189.213803 169.270255 
L 189.596099 169.270255 
L 189.609598 167.880893 
L 190.366607 167.880893 
L 190.366607 166.954652 
L 190.959405 166.954652 
L 190.959405 166.491532 
L 191.673143 166.491532 
L 191.697104 163.249688 
L 191.792618 163.249688 
L 191.792618 162.323447 
L 192.362657 162.323447 
L 192.362657 160.934085 
L 193.711203 160.934085 
L 193.711203 160.470965 
L 194.250316 160.470965 
L 194.250316 160.007844 
L 194.665881 160.007844 
L 194.665881 159.544724 
L 195.101346 159.544724 
L 195.101346 157.692242 
L 196.009647 157.692242 
L 196.009647 156.766001 
L 197.14664 156.766001 
L 197.14664 156.30288 
L 197.332506 156.30288 
L 197.332506 155.83976 
L 198.293483 155.83976 
L 198.293483 154.913519 
L 198.429643 154.913519 
L 198.429643 153.524157 
L 199.657586 153.524157 
L 199.657586 152.597916 
L 200.012941 152.597916 
L 200.012941 152.134795 
L 201.356921 152.134795 
L 201.356921 151.671675 
L 201.684087 151.671675 
L 201.684087 151.208554 
L 201.861001 151.208554 
L 201.912172 149.356072 
L 202.6239 149.356072 
L 202.6239 148.892952 
L 203.055718 148.892952 
L 203.055718 148.429831 
L 203.912329 148.429831 
L 203.912329 147.50359 
L 204.232253 147.50359 
L 204.296314 146.114229 
L 204.454486 146.114229 
L 204.469841 144.724867 
L 204.668233 144.724867 
L 204.668233 144.261747 
L 204.928048 144.261747 
L 204.928048 143.335506 
L 205.686835 143.335506 
L 205.686835 142.872385 
L 205.974302 142.872385 
L 205.974302 142.409265 
L 206.229379 142.409265 
L 206.229379 141.483024 
L 206.792536 141.483024 
L 206.792536 140.093662 
L 206.996213 140.093662 
L 206.996213 139.167421 
L 207.58533 139.167421 
L 207.58533 138.7043 
L 208.106982 138.7043 
L 208.106982 138.24118 
L 208.320584 138.24118 
L 208.320584 137.314939 
L 208.589262 137.314939 
L 208.589262 136.851818 
L 209.297289 136.851818 
L 209.297289 136.388698 
L 209.612974 136.388698 
L 209.612974 135.462457 
L 210.295141 135.462457 
L 210.389671 134.536216 
L 211.238975 134.536216 
L 211.238975 133.609975 
L 211.732929 133.609975 
L 211.763263 132.683734 
L 212.263661 132.683734 
L 212.263661 131.757493 
L 212.82987 131.757493 
L 212.82987 131.294372 
L 213.216368 131.294372 
L 213.216368 130.831252 
L 213.412771 130.831252 
L 213.412771 130.368131 
L 213.7867 130.368131 
L 213.7867 129.905011 
L 213.925579 129.905011 
L 213.925579 128.97877 
L 214.346593 128.97877 
L 214.346593 128.052529 
L 214.542584 128.052529 
L 214.542584 127.126287 
L 215.235012 127.126287 
L 215.235012 126.663167 
L 215.543752 126.663167 
L 215.543752 125.736926 
L 215.720772 125.736926 
L 215.720772 125.273805 
L 216.203159 125.273805 
L 216.203159 124.810685 
L 216.879081 124.810685 
L 216.979558 123.884444 
L 217.225938 123.884444 
L 217.225938 122.958203 
L 217.677938 122.958203 
L 217.677938 122.031962 
L 217.860494 122.031962 
L 217.860494 121.568841 
L 218.106234 121.568841 
L 218.205139 120.17948 
L 218.292201 120.17948 
L 218.292201 119.253239 
L 218.724495 119.253239 
L 218.724495 118.790118 
L 219.055132 118.790118 
L 219.055132 117.863877 
L 219.331408 117.863877 
L 219.331408 116.937636 
L 219.471575 116.937636 
L 219.471575 116.474516 
L 220.350787 116.474516 
L 220.439313 115.548274 
L 220.580027 115.548274 
L 220.580027 115.085154 
L 221.364173 115.085154 
L 221.364173 114.622033 
L 222.122941 114.622033 
L 222.122941 114.158913 
L 222.694907 114.158913 
L 222.694907 113.232672 
L 223.311991 113.232672 
L 223.311991 112.306431 
L 223.65888 112.306431 
L 223.65888 111.84331 
L 224.078334 111.84331 
L 224.078334 110.917069 
L 224.726154 110.917069 
L 224.726154 110.453949 
L 226.961216 110.453949 
L 226.961216 109.990828 
L 227.918117 109.990828 
L 227.918117 109.527708 
L 241.475386 109.527708 
L 241.475386 108.601467 
L 338.688 108.601467 
L 338.688 108.601467 
" style="fill:none;stroke:#000080;stroke-linecap:square;stroke-width:1.5;"/>
   </g>
   <g id="line2d_36">
    <defs>
     <path d="M 0 6 
C 1.591219 6 3.117479 5.367802 4.242641 4.242641 
C 5.367802 3.117479 6 1.591219 6 0 
C 6 -1.591219 5.367802 -3.117479 4.242641 -4.242641 
C 3.117479 -5.367802 1.591219 -6 0 -6 
C -1.591219 -6 -3.117479 -5.367802 -4.242641 -4.242641 
C -5.367802 -3.117479 -6 -1.591219 -6 0 
C -6 1.591219 -5.367802 3.117479 -4.242641 4.242641 
C -3.117479 5.367802 -1.591219 6 0 6 
z
" id="m5979fcf362" style="stroke:#000080;stroke-width:1.5;"/>
    </defs>
    <g>
     <use style="fill-opacity:0;stroke:#000080;stroke-width:1.5;" x="109.843417" xlink:href="#m5979fcf362" y="263.28372"/>
     <use style="fill-opacity:0;stroke:#000080;stroke-width:1.5;" x="152.360205" xlink:href="#m5979fcf362" y="207.246137"/>
     <use style="fill-opacity:0;stroke:#000080;stroke-width:1.5;" x="206.229379" xlink:href="#m5979fcf362" y="141.483024"/>
     <use style="fill-opacity:0;stroke:#000080;stroke-width:1.5;" x="241.475386" xlink:href="#m5979fcf362" y="108.601467"/>
     <use style="fill-opacity:0;stroke:#000080;stroke-width:1.5;" x="241.475386" xlink:href="#m5979fcf362" y="108.601467"/>
     <use style="fill-opacity:0;stroke:#000080;stroke-width:1.5;" x="338.688" xlink:href="#m5979fcf362" y="108.601467"/>
    </g>
   </g>
   <g id="line2d_37">
    <path style="fill:none;stroke:#000080;stroke-linecap:square;stroke-width:1.5;"/>
    <g/>
   </g>
   <g id="line2d_38">
    <path clip-path="url(#p43f2efba50)" d="M 258.377579 108.601467 
" style="fill:none;stroke:#000080;stroke-linecap:square;stroke-width:1.5;"/>
    <defs>
     <path d="M -12 12 
L 12 -12 
M -12 -12 
L 12 12 
" id="mf63a580226" style="stroke:#000080;"/>
    </defs>
    <g clip-path="url(#p43f2efba50)">
     <use style="fill:#000080;stroke:#000080;" x="258.377579" xlink:href="#mf63a580226" y="108.601467"/>
    </g>
   </g>
   <g id="line2d_39">
    <defs>
     <path d="M 0 1.5 
C 0.397805 1.5 0.77937 1.341951 1.06066 1.06066 
C 1.341951 0.77937 1.5 0.397805 1.5 0 
C 1.5 -0.397805 1.341951 -0.77937 1.06066 -1.06066 
C 0.77937 -1.341951 0.397805 -1.5 0 -1.5 
C -0.397805 -1.5 -0.77937 -1.341951 -1.06066 -1.06066 
C -1.341951 -0.77937 -1.5 -0.397805 -1.5 0 
C -1.5 0.397805 -1.341951 0.77937 -1.06066 1.06066 
C -0.77937 1.341951 -0.397805 1.5 0 1.5 
z
" id="m6e2fdb4a99" style="stroke:#ff00ff;"/>
    </defs>
    <g>
     <use style="fill:#ff00ff;stroke:#ff00ff;" x="255.872778" xlink:href="#m6e2fdb4a99" y="79.887995"/>
     <use style="fill:#ff00ff;stroke:#ff00ff;" x="255.872778" xlink:href="#m6e2fdb4a99" y="79.887995"/>
    </g>
   </g>
   <g id="line2d_40">
    <path d="M 45.512012 298.944 
L 45.512012 292.923433 
L 141.80232 292.923433 
L 141.80232 291.534072 
L 142.686372 291.534072 
L 142.686372 282.734782 
L 145.497361 282.734782 
L 145.497361 280.419179 
L 146.216039 280.419179 
L 146.216039 273.935492 
L 146.377764 273.935492 
L 146.377764 273.472371 
L 147.620256 273.472371 
L 147.620256 267.914925 
L 148.112924 267.914925 
L 148.209809 261.894358 
L 149.058374 261.894358 
L 149.058374 260.968117 
L 149.955193 260.968117 
L 149.955193 260.504997 
L 150.085825 260.504997 
L 150.085825 258.652515 
L 150.598782 258.652515 
L 150.682827 256.800033 
L 151.097081 256.800033 
L 151.178764 254.947551 
L 151.541675 254.947551 
L 151.541675 253.558189 
L 151.975216 253.558189 
L 152.0141 251.705707 
L 153.178403 251.705707 
L 153.178403 251.242587 
L 154.132765 251.242587 
L 154.132765 247.074502 
L 154.337936 247.074502 
L 154.337936 246.611381 
L 154.54072 246.611381 
L 154.54072 245.68514 
L 154.741174 245.68514 
L 154.807483 241.517056 
L 154.873541 241.517056 
L 154.873541 238.738333 
L 155.102793 238.738333 
L 155.102793 237.812091 
L 155.361158 237.812091 
L 155.393186 235.033368 
L 155.55245 235.033368 
L 155.55245 233.644007 
L 155.804285 233.644007 
L 155.804285 232.254645 
L 155.928852 232.254645 
L 155.928852 230.402163 
L 156.144725 230.402163 
L 156.236431 229.475922 
L 157.156845 229.475922 
L 157.156845 229.012802 
L 157.329512 229.012802 
L 157.329512 227.16032 
L 157.472107 227.16032 
L 157.557108 224.844717 
L 157.613546 224.844717 
L 157.697862 222.992235 
L 157.753847 222.992235 
L 157.753847 222.065994 
L 157.920731 222.065994 
L 157.920731 221.139753 
L 158.276927 221.139753 
L 158.276927 220.676632 
L 158.67908 220.676632 
L 158.75841 219.750391 
L 158.915995 219.750391 
L 158.942121 218.36103 
L 159.226956 218.36103 
L 159.226956 217.434789 
L 159.807898 217.434789 
L 159.807898 216.971668 
L 159.931669 216.971668 
L 159.931669 216.508548 
L 160.513841 216.508548 
L 160.537682 214.656066 
L 160.632719 214.656066 
L 160.632719 214.192945 
L 160.821253 214.192945 
L 160.821253 213.729825 
L 160.938061 213.729825 
L 160.984566 212.340463 
L 161.146363 212.340463 
L 161.215247 210.951101 
L 161.306672 210.951101 
L 161.306672 210.487981 
L 161.510643 210.487981 
L 161.510643 209.098619 
L 161.622937 209.098619 
L 161.622937 207.709258 
L 161.756743 207.709258 
L 161.756743 206.783017 
L 162.173813 206.783017 
L 162.238764 205.393655 
L 162.791763 205.393655 
L 162.791763 204.467414 
L 162.916926 204.467414 
L 162.916926 204.004294 
L 163.449152 204.004294 
L 163.449152 202.614932 
L 163.729146 202.614932 
L 163.729146 202.151812 
L 164.218222 202.151812 
L 164.218222 201.688691 
L 164.448194 201.688691 
L 164.448194 201.225571 
L 164.580957 201.225571 
L 164.580957 200.76245 
L 165.356985 200.76245 
L 165.356985 200.299329 
L 165.625977 200.299329 
L 165.625977 199.373088 
L 165.76776 199.373088 
L 165.76776 198.909968 
L 166.289413 198.909968 
L 166.306535 197.057486 
L 167.141909 197.057486 
L 167.239518 196.131245 
L 168.248032 196.131245 
L 168.248032 194.278763 
L 168.611679 194.278763 
L 168.611679 191.50004 
L 168.835167 191.50004 
L 168.835167 191.036919 
L 169.070439 191.036919 
L 169.114201 187.795075 
L 169.331381 187.795075 
L 169.331381 187.331955 
L 169.687442 187.331955 
L 169.687442 186.868834 
L 170.674059 186.868834 
L 170.674059 186.405714 
L 171.056197 186.405714 
L 171.056197 185.942593 
L 171.18605 185.942593 
L 171.18605 185.016352 
L 171.920711 185.016352 
L 171.920711 184.090111 
L 172.167033 184.090111 
L 172.167033 183.16387 
L 172.337411 183.16387 
L 172.373705 182.237629 
L 172.685129 182.237629 
L 172.685129 181.311388 
L 172.83878 181.311388 
L 172.83878 180.848268 
L 172.967743 180.848268 
L 172.967743 180.385147 
L 173.09576 180.385147 
L 173.09576 179.922027 
L 174.010558 179.922027 
L 174.07645 177.606424 
L 174.509477 177.606424 
L 174.509477 177.143304 
L 175.78735 177.143304 
L 175.78735 176.217062 
L 175.906187 176.217062 
L 175.906187 175.290821 
L 176.950079 175.290821 
L 176.950079 174.827701 
L 179.440696 174.827701 
L 179.440696 173.90146 
L 179.901953 173.90146 
L 179.901953 173.438339 
L 180.128086 173.438339 
L 180.128086 172.975219 
L 181.591186 172.975219 
L 181.591186 172.512098 
L 181.824704 172.512098 
L 181.824704 171.585857 
L 182.412173 171.585857 
L 182.412173 171.122737 
L 183.524506 171.122737 
L 183.632568 169.733375 
L 184.316062 169.733375 
L 184.316062 169.270255 
L 184.491881 169.270255 
L 184.491881 168.344014 
L 185.049891 168.344014 
L 185.049891 167.417773 
L 185.264727 167.417773 
L 185.264727 166.954652 
L 186.262811 166.954652 
L 186.262811 166.491532 
L 186.820572 166.491532 
L 186.820572 166.028411 
L 187.030434 166.028411 
L 187.030434 165.10217 
L 188.072953 165.10217 
L 188.122008 163.712808 
L 188.581281 163.712808 
L 188.581281 163.249688 
L 188.907435 163.249688 
L 188.907435 162.786567 
L 189.537479 162.786567 
L 189.537479 162.323447 
L 190.184766 162.323447 
L 190.184766 161.860326 
L 190.896847 161.860326 
L 190.896847 160.934085 
L 191.383019 160.934085 
L 191.456004 158.618483 
L 193.618516 158.618483 
L 193.618516 158.155362 
L 194.883311 158.155362 
L 194.883311 157.692242 
L 195.704707 157.692242 
L 195.704707 157.229121 
L 198.145226 157.229121 
L 198.145226 156.766001 
L 199.348964 156.766001 
L 199.400354 155.83976 
L 200.797623 155.83976 
L 200.797623 155.376639 
L 203.733136 155.376639 
L 203.733136 154.450398 
L 207.532296 154.450398 
L 207.532296 153.524157 
L 207.844945 153.524157 
L 207.844945 151.208554 
L 208.605917 151.208554 
L 208.605917 149.356072 
L 208.946126 149.356072 
L 208.946126 147.966711 
L 209.525616 147.966711 
L 209.562904 144.724867 
L 209.709843 144.724867 
L 209.709843 143.798626 
L 210.071168 143.798626 
L 210.071168 142.872385 
L 210.223562 142.872385 
L 210.282774 141.019903 
L 210.510849 141.019903 
L 210.510849 140.093662 
L 210.753383 140.093662 
L 210.761409 138.7043 
L 210.938392 138.7043 
L 211.012377 137.778059 
L 211.232467 137.778059 
L 211.232467 136.851818 
L 211.698741 136.851818 
L 211.698741 136.388698 
L 211.835095 136.388698 
L 211.835095 135.925577 
L 212.177553 135.925577 
L 212.177553 135.462457 
L 212.587047 135.462457 
L 212.587047 134.536216 
L 213.004796 134.536216 
L 213.004796 134.073095 
L 213.403578 134.073095 
L 213.403578 133.146854 
L 213.54781 133.146854 
L 213.54781 132.683734 
L 213.678416 132.683734 
L 213.678416 132.220613 
L 214.103158 132.220613 
L 214.103158 130.368131 
L 214.251597 130.368131 
L 214.333521 124.810685 
L 214.494063 124.810685 
L 214.494063 123.884444 
L 214.920707 123.884444 
L 214.920707 123.421323 
L 216.05668 123.421323 
L 216.05668 122.031962 
L 216.218816 122.031962 
L 216.218816 121.568841 
L 216.395925 121.568841 
L 216.395925 121.105721 
L 217.326278 121.105721 
L 217.326278 120.17948 
L 218.631907 120.17948 
L 218.631907 119.716359 
L 219.063442 119.716359 
L 219.067596 118.790118 
L 220.360817 118.790118 
L 220.360817 117.863877 
L 222.4421 117.863877 
L 222.4421 117.400757 
L 222.732648 117.400757 
L 222.732648 116.474516 
L 223.789264 116.474516 
L 223.789264 115.548274 
L 224.0184 115.548274 
L 224.0184 115.085154 
L 228.133312 115.085154 
L 228.133312 113.695792 
L 229.240841 113.695792 
L 229.240841 112.769551 
L 229.387167 112.769551 
L 229.387167 111.38019 
L 229.760978 111.38019 
L 229.797383 110.453949 
L 230.12386 110.453949 
L 230.12386 109.990828 
L 230.463794 109.990828 
L 230.463794 109.064587 
L 230.70882 109.064587 
L 230.70882 108.601467 
L 231.178414 108.601467 
L 231.178414 107.675226 
L 231.4063 107.675226 
L 231.445968 106.285864 
L 231.540885 106.285864 
L 231.540885 105.822744 
L 232.294635 105.822744 
L 232.294635 105.359623 
L 234.0906 105.359623 
L 234.0906 104.896503 
L 234.21546 104.896503 
L 234.216506 103.507141 
L 235.001467 103.507141 
L 235.001467 102.5809 
L 235.228518 102.5809 
L 235.228518 100.265297 
L 235.647955 100.265297 
L 235.728345 98.412815 
L 236.002895 98.412815 
L 236.086991 96.560333 
L 237.510741 96.560333 
L 237.510741 96.097213 
L 238.480322 96.097213 
L 238.480322 95.634092 
L 239.152702 95.634092 
L 239.152702 95.170972 
L 240.123723 95.170972 
L 240.123723 94.707851 
L 241.610917 94.707851 
L 241.610917 93.78161 
L 242.366491 93.78161 
L 242.366491 92.855369 
L 243.796462 92.855369 
L 243.796462 92.392249 
L 245.009316 92.392249 
L 245.009316 91.466008 
L 247.174366 91.466008 
L 247.174366 88.224164 
L 247.436282 88.224164 
L 247.436282 85.908561 
L 248.043322 85.908561 
L 248.043322 85.445441 
L 248.660868 85.445441 
L 248.660868 84.5192 
L 250.568447 84.5192 
L 250.568447 83.592959 
L 252.90696 83.592959 
L 252.93057 82.203597 
L 253.087749 82.203597 
L 253.127383 80.814236 
L 254.800221 80.814236 
L 254.800221 80.351115 
L 255.872778 80.351115 
L 255.872778 79.887995 
L 338.688 79.887995 
L 338.688 79.887995 
" style="fill:none;stroke:#ff00ff;stroke-linecap:square;stroke-width:1.5;"/>
   </g>
   <g id="line2d_41">
    <defs>
     <path d="M 0 8.485281 
L 5.091169 0 
L 0 -8.485281 
L -5.091169 0 
z
" id="m1fddade556" style="stroke:#ff00ff;stroke-linejoin:miter;stroke-width:1.5;"/>
    </defs>
    <g>
     <use style="fill-opacity:0;stroke:#ff00ff;stroke-linejoin:miter;stroke-width:1.5;" x="159.807898" xlink:href="#m1fddade556" y="217.434789"/>
     <use style="fill-opacity:0;stroke:#ff00ff;stroke-linejoin:miter;stroke-width:1.5;" x="211.012377" xlink:href="#m1fddade556" y="137.778059"/>
     <use style="fill-opacity:0;stroke:#ff00ff;stroke-linejoin:miter;stroke-width:1.5;" x="255.872778" xlink:href="#m1fddade556" y="80.351115"/>
     <use style="fill-opacity:0;stroke:#ff00ff;stroke-linejoin:miter;stroke-width:1.5;" x="255.872778" xlink:href="#m1fddade556" y="79.887995"/>
     <use style="fill-opacity:0;stroke:#ff00ff;stroke-linejoin:miter;stroke-width:1.5;" x="338.688" xlink:href="#m1fddade556" y="79.887995"/>
    </g>
   </g>
   <g id="line2d_42">
    <path style="fill:none;stroke:#ff00ff;stroke-linecap:square;stroke-width:1.5;"/>
    <g/>
   </g>
   <g id="line2d_43">
    <path clip-path="url(#p43f2efba50)" d="M 258.387342 79.887995 
" style="fill:none;stroke:#ff00ff;stroke-linecap:square;stroke-width:1.5;"/>
    <defs>
     <path d="M -12 12 
L 12 -12 
M -12 -12 
L 12 12 
" id="m7c002cffe6" style="stroke:#ff00ff;"/>
    </defs>
    <g clip-path="url(#p43f2efba50)">
     <use style="fill:#ff00ff;stroke:#ff00ff;" x="258.387342" xlink:href="#m7c002cffe6" y="79.887995"/>
    </g>
   </g>
   <g id="line2d_44">
    <defs>
     <path d="M 0 1.5 
C 0.397805 1.5 0.77937 1.341951 1.06066 1.06066 
C 1.341951 0.77937 1.5 0.397805 1.5 0 
C 1.5 -0.397805 1.341951 -0.77937 1.06066 -1.06066 
C 0.77937 -1.341951 0.397805 -1.5 0 -1.5 
C -0.397805 -1.5 -0.77937 -1.341951 -1.06066 -1.06066 
C -1.341951 -0.77937 -1.5 -0.397805 -1.5 0 
C -1.5 0.397805 -1.341951 0.77937 -1.06066 1.06066 
C -0.77937 1.341951 -0.397805 1.5 0 1.5 
z
" id="m45e0ddc86e" style="stroke:#ff7500;"/>
    </defs>
    <g>
     <use style="fill:#ff7500;stroke:#ff7500;" x="253.917823" xlink:href="#m45e0ddc86e" y="105.822744"/>
     <use style="fill:#ff7500;stroke:#ff7500;" x="253.917823" xlink:href="#m45e0ddc86e" y="105.822744"/>
    </g>
   </g>
   <g id="line2d_45">
    <path d="M 139.652088 298.944 
L 139.652088 298.017759 
L 143.590833 298.017759 
L 143.590833 295.239036 
L 145.497361 295.239036 
L 145.497361 292.923433 
L 145.777292 292.923433 
L 145.777292 292.460313 
L 147.4697 292.460313 
L 147.4697 291.534072 
L 149.557321 291.534072 
L 149.557321 286.902867 
L 153.785358 286.902867 
L 153.785358 285.050384 
L 154.473387 285.050384 
L 154.473387 284.587264 
L 155.741666 284.587264 
L 155.741666 277.177336 
L 156.021696 277.177336 
L 156.021696 273.472371 
L 156.205916 273.472371 
L 156.236431 271.156769 
L 157.1279 271.156769 
L 157.1279 269.767407 
L 157.358125 269.767407 
L 157.358125 268.841166 
L 157.500487 268.841166 
L 157.500487 263.746841 
L 159.175513 263.746841 
L 159.175513 261.894358 
L 159.733212 261.894358 
L 159.832723 257.726274 
L 160.103486 257.726274 
L 160.127894 255.873792 
L 160.609008 255.873792 
L 160.609008 254.947551 
L 160.821253 254.947551 
L 160.821253 254.48443 
L 161.352206 254.48443 
L 161.352206 253.558189 
L 161.64531 253.558189 
L 161.64531 253.095069 
L 161.778945 253.095069 
L 161.84538 249.390104 
L 161.933569 249.390104 
L 161.933569 248.463863 
L 162.10862 248.463863 
L 162.10862 245.68514 
L 162.432178 245.68514 
L 162.517456 244.295779 
L 162.812686 244.295779 
L 162.812686 243.369538 
L 162.999872 243.369538 
L 163.041197 240.590815 
L 163.348054 240.590815 
L 163.348054 239.201453 
L 163.609699 239.201453 
L 163.609699 238.275212 
L 164.004716 238.275212 
L 164.004716 236.88585 
L 164.410075 236.88585 
L 164.410075 235.959609 
L 164.637547 235.959609 
L 164.637547 235.496489 
L 164.843488 235.496489 
L 164.843488 234.570248 
L 165.010195 234.570248 
L 165.010195 233.644007 
L 165.429123 233.644007 
L 165.429123 233.180886 
L 165.55465 233.180886 
L 165.55465 232.254645 
L 165.9084 232.254645 
L 165.9084 231.791525 
L 166.047915 231.791525 
L 166.08262 229.475922 
L 166.476842 229.475922 
L 166.510705 224.844717 
L 166.895472 224.844717 
L 166.994465 221.139753 
L 167.043752 221.139753 
L 167.043752 220.676632 
L 167.174506 220.676632 
L 167.255733 217.897909 
L 167.545055 217.897909 
L 167.545055 216.971668 
L 167.735303 216.971668 
L 167.813965 214.656066 
L 167.87664 214.656066 
L 167.985782 212.803583 
L 168.125111 212.803583 
L 168.125111 212.340463 
L 168.491304 212.340463 
L 168.491304 211.877342 
L 168.701418 211.877342 
L 168.746115 210.487981 
L 169.994873 210.487981 
L 170.105336 207.246137 
L 170.119095 207.246137 
L 170.119095 205.856776 
L 170.242438 205.856776 
L 170.242438 204.004294 
L 170.806779 204.004294 
L 170.806779 201.688691 
L 170.951613 201.688691 
L 171.030109 198.446847 
L 171.160157 198.446847 
L 171.237722 197.520606 
L 171.289242 197.520606 
L 171.289242 197.057486 
L 171.417378 197.057486 
L 171.417378 196.131245 
L 171.758716 196.131245 
L 171.758716 191.96316 
L 172.228073 191.96316 
L 172.313173 190.573799 
L 172.470121 190.573799 
L 172.577957 189.184437 
L 173.072554 189.184437 
L 173.15364 186.868834 
L 173.303236 186.868834 
L 173.31469 182.237629 
L 173.632396 182.237629 
L 173.632396 181.774509 
L 173.844732 181.774509 
L 173.844732 181.311388 
L 174.47737 181.311388 
L 174.47737 180.848268 
L 174.795808 180.848268 
L 174.806323 179.922027 
L 174.973708 179.922027 
L 174.984116 176.680183 
L 175.364924 176.680183 
L 175.364924 175.753942 
L 175.537141 175.753942 
L 175.537141 175.290821 
L 175.797284 175.290821 
L 175.797284 174.36458 
L 175.955464 174.36458 
L 176.053603 171.585857 
L 176.847522 171.585857 
L 176.847522 170.196496 
L 176.987223 170.196496 
L 177.01503 168.807134 
L 177.535099 168.807134 
L 177.544086 167.417773 
L 177.66942 167.417773 
L 177.749519 166.028411 
L 177.802715 166.028411 
L 177.802715 164.175929 
L 178.750267 164.175929 
L 178.833909 162.323447 
L 179.319393 162.323447 
L 179.319393 161.860326 
L 180.404784 161.860326 
L 180.465681 160.470965 
L 180.915752 160.470965 
L 180.915752 160.007844 
L 181.282137 160.007844 
L 181.282137 159.081603 
L 181.491165 159.081603 
L 181.491165 158.155362 
L 181.648084 158.155362 
L 181.648084 157.692242 
L 182.041257 157.692242 
L 182.041257 157.229121 
L 182.466459 157.229121 
L 182.466459 156.30288 
L 182.668539 156.30288 
L 182.668539 155.83976 
L 182.967335 155.83976 
L 182.967335 155.376639 
L 183.859219 155.376639 
L 183.859219 154.913519 
L 184.267247 154.913519 
L 184.267247 154.450398 
L 184.38903 154.450398 
L 184.479812 151.671675 
L 185.014801 151.671675 
L 185.014801 151.208554 
L 185.664074 151.208554 
L 185.669713 149.819193 
L 186.425543 149.819193 
L 186.425543 149.356072 
L 186.899567 149.356072 
L 186.899567 148.892952 
L 187.22749 148.892952 
L 187.258402 147.04047 
L 187.825583 147.04047 
L 187.825583 146.577349 
L 188.028684 146.577349 
L 188.028684 144.724867 
L 188.258635 144.724867 
L 188.258635 143.798626 
L 188.423112 143.798626 
L 188.423112 142.872385 
L 188.71437 142.872385 
L 188.789967 141.946144 
L 188.832347 141.946144 
L 188.832347 141.019903 
L 189.186172 141.019903 
L 189.186172 140.556783 
L 189.926077 140.556783 
L 189.970194 139.630541 
L 190.271594 139.630541 
L 190.271594 139.167421 
L 190.443963 139.167421 
L 190.520976 138.24118 
L 191.067312 138.24118 
L 191.067312 137.314939 
L 191.568932 137.314939 
L 191.568932 136.851818 
L 191.800554 136.851818 
L 191.800554 136.388698 
L 192.301088 136.388698 
L 192.320352 134.999336 
L 192.720047 134.999336 
L 192.720047 134.073095 
L 193.333831 134.073095 
L 193.333831 133.609975 
L 194.156993 133.609975 
L 194.156993 133.146854 
L 194.380819 133.146854 
L 194.380819 132.220613 
L 194.873335 132.220613 
L 194.873335 131.294372 
L 195.137421 131.294372 
L 195.137421 130.831252 
L 195.426593 130.831252 
L 195.426593 130.368131 
L 195.739557 130.368131 
L 195.739557 129.905011 
L 196.00653 129.905011 
L 196.00653 129.44189 
L 196.34301 129.44189 
L 196.34301 128.97877 
L 197.681418 128.97877 
L 197.681418 128.515649 
L 197.889701 128.515649 
L 197.889701 128.052529 
L 198.50273 128.052529 
L 198.591644 125.736926 
L 198.626547 125.736926 
L 198.626547 125.273805 
L 199.510333 125.273805 
L 199.510333 124.810685 
L 200.453226 124.810685 
L 200.453226 123.884444 
L 200.638228 123.884444 
L 200.638228 123.421323 
L 202.055979 123.421323 
L 202.055979 122.958203 
L 202.335748 122.958203 
L 202.335748 122.031962 
L 202.742926 122.031962 
L 202.742926 121.568841 
L 204.21474 121.568841 
L 204.255575 120.17948 
L 204.624552 120.17948 
L 204.624552 119.253239 
L 207.775245 119.253239 
L 207.775245 118.790118 
L 208.514874 118.790118 
L 208.514874 117.863877 
L 209.866821 117.863877 
L 209.866821 116.937636 
L 210.148917 116.937636 
L 210.148917 116.474516 
L 211.193368 116.474516 
L 211.193368 115.548274 
L 213.889845 115.548274 
L 213.889845 115.085154 
L 215.716746 115.085154 
L 215.716746 114.622033 
L 216.538634 114.622033 
L 216.538634 113.695792 
L 217.426044 113.695792 
L 217.426044 112.769551 
L 218.888079 112.769551 
L 218.99184 111.84331 
L 219.297829 111.84331 
L 219.297829 111.38019 
L 221.359075 111.38019 
L 221.359075 110.453949 
L 223.156306 110.453949 
L 223.156306 109.990828 
L 223.469527 109.990828 
L 223.469527 109.527708 
L 225.579278 109.527708 
L 225.579278 109.064587 
L 237.877855 109.064587 
L 237.877855 108.138346 
L 240.550104 108.138346 
L 240.550104 107.212105 
L 246.116702 107.212105 
L 246.116702 106.748985 
L 253.917823 106.748985 
L 253.917823 105.822744 
L 338.688 105.822744 
L 338.688 105.822744 
" style="fill:none;stroke:#ff7500;stroke-linecap:square;stroke-width:1.5;"/>
   </g>
   <g id="line2d_46">
    <defs>
     <path d="M 0 -6 
L -1.347084 -1.854102 
L -5.706339 -1.854102 
L -2.179628 0.708204 
L -3.526712 4.854102 
L -0 2.291796 
L 3.526712 4.854102 
L 2.179628 0.708204 
L 5.706339 -1.854102 
L 1.347084 -1.854102 
z
" id="m74fd4f8a37" style="stroke:#ff7500;stroke-linejoin:bevel;stroke-width:1.5;"/>
    </defs>
    <g>
     <use style="fill-opacity:0;stroke:#ff7500;stroke-linejoin:bevel;stroke-width:1.5;" x="160.609008" xlink:href="#m74fd4f8a37" y="254.947551"/>
     <use style="fill-opacity:0;stroke:#ff7500;stroke-linejoin:bevel;stroke-width:1.5;" x="204.624552" xlink:href="#m74fd4f8a37" y="120.17948"/>
     <use style="fill-opacity:0;stroke:#ff7500;stroke-linejoin:bevel;stroke-width:1.5;" x="253.917823" xlink:href="#m74fd4f8a37" y="106.748985"/>
     <use style="fill-opacity:0;stroke:#ff7500;stroke-linejoin:bevel;stroke-width:1.5;" x="253.917823" xlink:href="#m74fd4f8a37" y="105.822744"/>
     <use style="fill-opacity:0;stroke:#ff7500;stroke-linejoin:bevel;stroke-width:1.5;" x="338.688" xlink:href="#m74fd4f8a37" y="105.822744"/>
    </g>
   </g>
   <g id="line2d_47">
    <path style="fill:none;stroke:#ff7500;stroke-linecap:square;stroke-width:1.5;"/>
    <g/>
   </g>
   <g id="line2d_48">
    <path clip-path="url(#p43f2efba50)" d="M 258.37723 105.822744 
" style="fill:none;stroke:#ff7500;stroke-linecap:square;stroke-width:1.5;"/>
    <defs>
     <path d="M -12 12 
L 12 -12 
M -12 -12 
L 12 12 
" id="mcaa5d06daa" style="stroke:#ff7500;"/>
    </defs>
    <g clip-path="url(#p43f2efba50)">
     <use style="fill:#ff7500;stroke:#ff7500;" x="258.37723" xlink:href="#mcaa5d06daa" y="105.822744"/>
    </g>
   </g>
   <g id="line2d_49">
    <path d="M 338.688 108.601467 
L 369.60768 293.571802 
" style="fill:none;stroke:#000080;stroke-linecap:square;stroke-width:1.5;"/>
    <g>
     <use style="fill-opacity:0;stroke:#000080;stroke-width:1.5;" x="338.688" xlink:href="#m5979fcf362" y="108.601467"/>
     <use style="fill-opacity:0;stroke:#000080;stroke-width:1.5;" x="369.60768" xlink:href="#m5979fcf362" y="293.571802"/>
    </g>
   </g>
   <g id="line2d_50">
    <path d="M 338.688 105.822744 
L 369.60768 207.616634 
" style="fill:none;stroke:#ff7500;stroke-linecap:square;stroke-width:1.5;"/>
    <g>
     <use style="fill-opacity:0;stroke:#ff7500;stroke-linejoin:bevel;stroke-width:1.5;" x="338.688" xlink:href="#m74fd4f8a37" y="105.822744"/>
     <use style="fill-opacity:0;stroke:#ff7500;stroke-linejoin:bevel;stroke-width:1.5;" x="369.60768" xlink:href="#m74fd4f8a37" y="207.616634"/>
    </g>
   </g>
   <g id="line2d_51">
    <path d="M 338.688 79.887995 
L 369.60768 121.661465 
" style="fill:none;stroke:#ff00ff;stroke-linecap:square;stroke-width:1.5;"/>
    <g>
     <use style="fill-opacity:0;stroke:#ff00ff;stroke-linejoin:miter;stroke-width:1.5;" x="338.688" xlink:href="#m1fddade556" y="79.887995"/>
     <use style="fill-opacity:0;stroke:#ff00ff;stroke-linejoin:miter;stroke-width:1.5;" x="369.60768" xlink:href="#m1fddade556" y="121.661465"/>
    </g>
   </g>
   <g id="line2d_52">
    <path d="M 338.688 298.944 
L 338.688 30.334099 
" style="fill:none;stroke:#000000;stroke-linecap:square;stroke-width:1.5;"/>
   </g>
   <g id="patch_3">
    <path d="M 57.6 298.944 
L 57.6 27.648 
" style="fill:none;stroke:#000000;stroke-linecap:square;stroke-linejoin:miter;stroke-width:0.8;"/>
   </g>
   <g id="patch_4">
    <path d="M 338.688 298.944 
L 338.688 27.648 
" style="fill:none;stroke:#000000;stroke-linecap:square;stroke-linejoin:miter;stroke-width:0.8;"/>
   </g>
   <g id="patch_5">
    <path d="M 57.6 298.944 
L 338.688 298.944 
" style="fill:none;stroke:#000000;stroke-linecap:square;stroke-linejoin:miter;stroke-width:0.8;"/>
   </g>
   <g id="patch_6">
    <path d="M 57.6 27.648 
L 338.688 27.648 
" style="fill:none;stroke:#000000;stroke-linecap:square;stroke-linejoin:miter;stroke-width:0.8;"/>
   </g>
   <g id="text_13">
    <!-- COMO-100  -->
    <g transform="translate(375.22944 298.262739)scale(0.17 -0.17)">
     <defs>
      <path d="M 64.40625 67.28125 
L 64.40625 56.890625 
Q 59.421875 61.53125 53.78125 63.8125 
Q 48.140625 66.109375 41.796875 66.109375 
Q 29.296875 66.109375 22.65625 58.46875 
Q 16.015625 50.828125 16.015625 36.375 
Q 16.015625 21.96875 22.65625 14.328125 
Q 29.296875 6.6875 41.796875 6.6875 
Q 48.140625 6.6875 53.78125 8.984375 
Q 59.421875 11.28125 64.40625 15.921875 
L 64.40625 5.609375 
Q 59.234375 2.09375 53.4375 0.328125 
Q 47.65625 -1.421875 41.21875 -1.421875 
Q 24.65625 -1.421875 15.125 8.703125 
Q 5.609375 18.84375 5.609375 36.375 
Q 5.609375 53.953125 15.125 64.078125 
Q 24.65625 74.21875 41.21875 74.21875 
Q 47.75 74.21875 53.53125 72.484375 
Q 59.328125 70.75 64.40625 67.28125 
z
" id="DejaVuSans-67"/>
      <path d="M 39.40625 66.21875 
Q 28.65625 66.21875 22.328125 58.203125 
Q 16.015625 50.203125 16.015625 36.375 
Q 16.015625 22.609375 22.328125 14.59375 
Q 28.65625 6.59375 39.40625 6.59375 
Q 50.140625 6.59375 56.421875 14.59375 
Q 62.703125 22.609375 62.703125 36.375 
Q 62.703125 50.203125 56.421875 58.203125 
Q 50.140625 66.21875 39.40625 66.21875 
z
M 39.40625 74.21875 
Q 54.734375 74.21875 63.90625 63.9375 
Q 73.09375 53.65625 73.09375 36.375 
Q 73.09375 19.140625 63.90625 8.859375 
Q 54.734375 -1.421875 39.40625 -1.421875 
Q 24.03125 -1.421875 14.8125 8.828125 
Q 5.609375 19.09375 5.609375 36.375 
Q 5.609375 53.65625 14.8125 63.9375 
Q 24.03125 74.21875 39.40625 74.21875 
z
" id="DejaVuSans-79"/>
      <path d="M 9.8125 72.90625 
L 24.515625 72.90625 
L 43.109375 23.296875 
L 61.8125 72.90625 
L 76.515625 72.90625 
L 76.515625 0 
L 66.890625 0 
L 66.890625 64.015625 
L 48.09375 14.015625 
L 38.1875 14.015625 
L 19.390625 64.015625 
L 19.390625 0 
L 9.8125 0 
z
" id="DejaVuSans-77"/>
     </defs>
     <use xlink:href="#DejaVuSans-67"/>
     <use x="69.824219" xlink:href="#DejaVuSans-79"/>
     <use x="148.535156" xlink:href="#DejaVuSans-77"/>
     <use x="234.814453" xlink:href="#DejaVuSans-79"/>
     <use x="316.275391" xlink:href="#DejaVuSans-45"/>
     <use x="352.359375" xlink:href="#DejaVuSans-49"/>
     <use x="415.982422" xlink:href="#DejaVuSans-48"/>
     <use x="479.605469" xlink:href="#DejaVuSans-48"/>
     <use x="543.228516" xlink:href="#DejaVuSans-32"/>
    </g>
   </g>
   <g id="text_14">
    <!-- SMS-EMOA- -->
    <g transform="translate(375.22944 212.307571)scale(0.17 -0.17)">
     <defs>
      <path d="M 53.515625 70.515625 
L 53.515625 60.890625 
Q 47.90625 63.578125 42.921875 64.890625 
Q 37.9375 66.21875 33.296875 66.21875 
Q 25.25 66.21875 20.875 63.09375 
Q 16.5 59.96875 16.5 54.203125 
Q 16.5 49.359375 19.40625 46.890625 
Q 22.3125 44.4375 30.421875 42.921875 
L 36.375 41.703125 
Q 47.40625 39.59375 52.65625 34.296875 
Q 57.90625 29 57.90625 20.125 
Q 57.90625 9.515625 50.796875 4.046875 
Q 43.703125 -1.421875 29.984375 -1.421875 
Q 24.8125 -1.421875 18.96875 -0.25 
Q 13.140625 0.921875 6.890625 3.21875 
L 6.890625 13.375 
Q 12.890625 10.015625 18.65625 8.296875 
Q 24.421875 6.59375 29.984375 6.59375 
Q 38.421875 6.59375 43.015625 9.90625 
Q 47.609375 13.234375 47.609375 19.390625 
Q 47.609375 24.75 44.3125 27.78125 
Q 41.015625 30.8125 33.5 32.328125 
L 27.484375 33.5 
Q 16.453125 35.6875 11.515625 40.375 
Q 6.59375 45.0625 6.59375 53.421875 
Q 6.59375 63.09375 13.40625 68.65625 
Q 20.21875 74.21875 32.171875 74.21875 
Q 37.3125 74.21875 42.625 73.28125 
Q 47.953125 72.359375 53.515625 70.515625 
z
" id="DejaVuSans-83"/>
      <path d="M 9.8125 72.90625 
L 55.90625 72.90625 
L 55.90625 64.59375 
L 19.671875 64.59375 
L 19.671875 43.015625 
L 54.390625 43.015625 
L 54.390625 34.71875 
L 19.671875 34.71875 
L 19.671875 8.296875 
L 56.78125 8.296875 
L 56.78125 0 
L 9.8125 0 
z
" id="DejaVuSans-69"/>
      <path d="M 34.1875 63.1875 
L 20.796875 26.90625 
L 47.609375 26.90625 
z
M 28.609375 72.90625 
L 39.796875 72.90625 
L 67.578125 0 
L 57.328125 0 
L 50.6875 18.703125 
L 17.828125 18.703125 
L 11.1875 0 
L 0.78125 0 
z
" id="DejaVuSans-65"/>
     </defs>
     <use xlink:href="#DejaVuSans-83"/>
     <use x="63.476562" xlink:href="#DejaVuSans-77"/>
     <use x="149.755859" xlink:href="#DejaVuSans-83"/>
     <use x="213.232422" xlink:href="#DejaVuSans-45"/>
     <use x="249.316406" xlink:href="#DejaVuSans-69"/>
     <use x="312.5" xlink:href="#DejaVuSans-77"/>
     <use x="398.779297" xlink:href="#DejaVuSans-79"/>
     <use x="475.740234" xlink:href="#DejaVuSans-65"/>
     <use x="541.898438" xlink:href="#DejaVuSans-45"/>
    </g>
   </g>
   <g id="text_15">
    <!-- NSGA-II-M -->
    <g transform="translate(375.22944 126.352403)scale(0.17 -0.17)">
     <defs>
      <path d="M 9.8125 72.90625 
L 23.09375 72.90625 
L 55.421875 11.921875 
L 55.421875 72.90625 
L 64.984375 72.90625 
L 64.984375 0 
L 51.703125 0 
L 19.390625 60.984375 
L 19.390625 0 
L 9.8125 0 
z
" id="DejaVuSans-78"/>
      <path d="M 59.515625 10.40625 
L 59.515625 29.984375 
L 43.40625 29.984375 
L 43.40625 38.09375 
L 69.28125 38.09375 
L 69.28125 6.78125 
Q 63.578125 2.734375 56.6875 0.65625 
Q 49.8125 -1.421875 42 -1.421875 
Q 24.90625 -1.421875 15.25 8.5625 
Q 5.609375 18.5625 5.609375 36.375 
Q 5.609375 54.25 15.25 64.234375 
Q 24.90625 74.21875 42 74.21875 
Q 49.125 74.21875 55.546875 72.453125 
Q 61.96875 70.703125 67.390625 67.28125 
L 67.390625 56.78125 
Q 61.921875 61.421875 55.765625 63.765625 
Q 49.609375 66.109375 42.828125 66.109375 
Q 29.4375 66.109375 22.71875 58.640625 
Q 16.015625 51.171875 16.015625 36.375 
Q 16.015625 21.625 22.71875 14.15625 
Q 29.4375 6.6875 42.828125 6.6875 
Q 48.046875 6.6875 52.140625 7.59375 
Q 56.25 8.5 59.515625 10.40625 
z
" id="DejaVuSans-71"/>
      <path d="M 9.8125 72.90625 
L 19.671875 72.90625 
L 19.671875 0 
L 9.8125 0 
z
" id="DejaVuSans-73"/>
     </defs>
     <use xlink:href="#DejaVuSans-78"/>
     <use x="74.804688" xlink:href="#DejaVuSans-83"/>
     <use x="138.28125" xlink:href="#DejaVuSans-71"/>
     <use x="215.771484" xlink:href="#DejaVuSans-65"/>
     <use x="281.929688" xlink:href="#DejaVuSans-45"/>
     <use x="318.013672" xlink:href="#DejaVuSans-73"/>
     <use x="347.505859" xlink:href="#DejaVuSans-73"/>
     <use x="376.998047" xlink:href="#DejaVuSans-45"/>
     <use x="413.082031" xlink:href="#DejaVuSans-77"/>
    </g>
   </g>
   <g id="text_16">
    <!-- best 2016 -->
    <g transform="translate(375.22944 40.397235)scale(0.17 -0.17)">
     <defs>
      <path d="M 48.6875 27.296875 
Q 48.6875 37.203125 44.609375 42.84375 
Q 40.53125 48.484375 33.40625 48.484375 
Q 26.265625 48.484375 22.1875 42.84375 
Q 18.109375 37.203125 18.109375 27.296875 
Q 18.109375 17.390625 22.1875 11.75 
Q 26.265625 6.109375 33.40625 6.109375 
Q 40.53125 6.109375 44.609375 11.75 
Q 48.6875 17.390625 48.6875 27.296875 
z
M 18.109375 46.390625 
Q 20.953125 51.265625 25.265625 53.625 
Q 29.59375 56 35.59375 56 
Q 45.5625 56 51.78125 48.09375 
Q 58.015625 40.1875 58.015625 27.296875 
Q 58.015625 14.40625 51.78125 6.484375 
Q 45.5625 -1.421875 35.59375 -1.421875 
Q 29.59375 -1.421875 25.265625 0.953125 
Q 20.953125 3.328125 18.109375 8.203125 
L 18.109375 0 
L 9.078125 0 
L 9.078125 75.984375 
L 18.109375 75.984375 
z
" id="DejaVuSans-98"/>
     </defs>
     <use xlink:href="#DejaVuSans-98"/>
     <use x="63.476562" xlink:href="#DejaVuSans-101"/>
     <use x="125" xlink:href="#DejaVuSans-115"/>
     <use x="177.099609" xlink:href="#DejaVuSans-116"/>
     <use x="216.308594" xlink:href="#DejaVuSans-32"/>
     <use x="248.095703" xlink:href="#DejaVuSans-50"/>
     <use x="311.71875" xlink:href="#DejaVuSans-48"/>
     <use x="375.341797" xlink:href="#DejaVuSans-49"/>
     <use x="438.964844" xlink:href="#DejaVuSans-54"/>
    </g>
   </g>
   <g id="text_17">
    <!-- bbob-biobj f33, 2-D -->
    <g transform="translate(60.41088 38.111366)scale(0.102 -0.102)">
     <defs>
      <path d="M 9.421875 54.6875 
L 18.40625 54.6875 
L 18.40625 -0.984375 
Q 18.40625 -11.421875 14.421875 -16.109375 
Q 10.453125 -20.796875 1.609375 -20.796875 
L -1.8125 -20.796875 
L -1.8125 -13.1875 
L 0.59375 -13.1875 
Q 5.71875 -13.1875 7.5625 -10.8125 
Q 9.421875 -8.453125 9.421875 -0.984375 
z
M 9.421875 75.984375 
L 18.40625 75.984375 
L 18.40625 64.59375 
L 9.421875 64.59375 
z
" id="DejaVuSans-106"/>
      <path d="M 40.578125 39.3125 
Q 47.65625 37.796875 51.625 33 
Q 55.609375 28.21875 55.609375 21.1875 
Q 55.609375 10.40625 48.1875 4.484375 
Q 40.765625 -1.421875 27.09375 -1.421875 
Q 22.515625 -1.421875 17.65625 -0.515625 
Q 12.796875 0.390625 7.625 2.203125 
L 7.625 11.71875 
Q 11.71875 9.328125 16.59375 8.109375 
Q 21.484375 6.890625 26.8125 6.890625 
Q 36.078125 6.890625 40.9375 10.546875 
Q 45.796875 14.203125 45.796875 21.1875 
Q 45.796875 27.640625 41.28125 31.265625 
Q 36.765625 34.90625 28.71875 34.90625 
L 20.21875 34.90625 
L 20.21875 43.015625 
L 29.109375 43.015625 
Q 36.375 43.015625 40.234375 45.921875 
Q 44.09375 48.828125 44.09375 54.296875 
Q 44.09375 59.90625 40.109375 62.90625 
Q 36.140625 65.921875 28.71875 65.921875 
Q 24.65625 65.921875 20.015625 65.03125 
Q 15.375 64.15625 9.8125 62.3125 
L 9.8125 71.09375 
Q 15.4375 72.65625 20.34375 73.4375 
Q 25.25 74.21875 29.59375 74.21875 
Q 40.828125 74.21875 47.359375 69.109375 
Q 53.90625 64.015625 53.90625 55.328125 
Q 53.90625 49.265625 50.4375 45.09375 
Q 46.96875 40.921875 40.578125 39.3125 
z
" id="DejaVuSans-51"/>
      <path d="M 19.671875 64.796875 
L 19.671875 8.109375 
L 31.59375 8.109375 
Q 46.6875 8.109375 53.6875 14.9375 
Q 60.6875 21.78125 60.6875 36.53125 
Q 60.6875 51.171875 53.6875 57.984375 
Q 46.6875 64.796875 31.59375 64.796875 
z
M 9.8125 72.90625 
L 30.078125 72.90625 
Q 51.265625 72.90625 61.171875 64.09375 
Q 71.09375 55.28125 71.09375 36.53125 
Q 71.09375 17.671875 61.125 8.828125 
Q 51.171875 0 30.078125 0 
L 9.8125 0 
z
" id="DejaVuSans-68"/>
     </defs>
     <use xlink:href="#DejaVuSans-98"/>
     <use x="63.476562" xlink:href="#DejaVuSans-98"/>
     <use x="126.953125" xlink:href="#DejaVuSans-111"/>
     <use x="188.134766" xlink:href="#DejaVuSans-98"/>
     <use x="251.611328" xlink:href="#DejaVuSans-45"/>
     <use x="287.695312" xlink:href="#DejaVuSans-98"/>
     <use x="351.171875" xlink:href="#DejaVuSans-105"/>
     <use x="378.955078" xlink:href="#DejaVuSans-111"/>
     <use x="440.136719" xlink:href="#DejaVuSans-98"/>
     <use x="503.613281" xlink:href="#DejaVuSans-106"/>
     <use x="531.396484" xlink:href="#DejaVuSans-32"/>
     <use x="563.183594" xlink:href="#DejaVuSans-102"/>
     <use x="598.388672" xlink:href="#DejaVuSans-51"/>
     <use x="662.011719" xlink:href="#DejaVuSans-51"/>
     <use x="725.634766" xlink:href="#DejaVuSans-44"/>
     <use x="757.421875" xlink:href="#DejaVuSans-32"/>
     <use x="789.208984" xlink:href="#DejaVuSans-50"/>
     <use x="852.832031" xlink:href="#DejaVuSans-45"/>
     <use x="888.916016" xlink:href="#DejaVuSans-68"/>
    </g>
    <!-- 58 targets: 1..-1.0e-4 -->
    <g transform="translate(60.41088 49.533135)scale(0.102 -0.102)">
     <defs>
      <path d="M 10.796875 72.90625 
L 49.515625 72.90625 
L 49.515625 64.59375 
L 19.828125 64.59375 
L 19.828125 46.734375 
Q 21.96875 47.46875 24.109375 47.828125 
Q 26.265625 48.1875 28.421875 48.1875 
Q 40.625 48.1875 47.75 41.5 
Q 54.890625 34.8125 54.890625 23.390625 
Q 54.890625 11.625 47.5625 5.09375 
Q 40.234375 -1.421875 26.90625 -1.421875 
Q 22.3125 -1.421875 17.546875 -0.640625 
Q 12.796875 0.140625 7.71875 1.703125 
L 7.71875 11.625 
Q 12.109375 9.234375 16.796875 8.0625 
Q 21.484375 6.890625 26.703125 6.890625 
Q 35.15625 6.890625 40.078125 11.328125 
Q 45.015625 15.765625 45.015625 23.390625 
Q 45.015625 31 40.078125 35.4375 
Q 35.15625 39.890625 26.703125 39.890625 
Q 22.75 39.890625 18.8125 39.015625 
Q 14.890625 38.140625 10.796875 36.28125 
z
" id="DejaVuSans-53"/>
      <path d="M 11.71875 12.40625 
L 22.015625 12.40625 
L 22.015625 0 
L 11.71875 0 
z
M 11.71875 51.703125 
L 22.015625 51.703125 
L 22.015625 39.3125 
L 11.71875 39.3125 
z
" id="DejaVuSans-58"/>
     </defs>
     <use xlink:href="#DejaVuSans-53"/>
     <use x="63.623047" xlink:href="#DejaVuSans-56"/>
     <use x="127.246094" xlink:href="#DejaVuSans-32"/>
     <use x="159.033203" xlink:href="#DejaVuSans-116"/>
     <use x="198.242188" xlink:href="#DejaVuSans-97"/>
     <use x="259.521484" xlink:href="#DejaVuSans-114"/>
     <use x="298.884766" xlink:href="#DejaVuSans-103"/>
     <use x="362.361328" xlink:href="#DejaVuSans-101"/>
     <use x="423.884766" xlink:href="#DejaVuSans-116"/>
     <use x="463.09375" xlink:href="#DejaVuSans-115"/>
     <use x="515.193359" xlink:href="#DejaVuSans-58"/>
     <use x="548.884766" xlink:href="#DejaVuSans-32"/>
     <use x="580.671875" xlink:href="#DejaVuSans-49"/>
     <use x="644.294922" xlink:href="#DejaVuSans-46"/>
     <use x="676.082031" xlink:href="#DejaVuSans-46"/>
     <use x="707.869141" xlink:href="#DejaVuSans-45"/>
     <use x="743.953125" xlink:href="#DejaVuSans-49"/>
     <use x="807.576172" xlink:href="#DejaVuSans-46"/>
     <use x="839.363281" xlink:href="#DejaVuSans-48"/>
     <use x="902.986328" xlink:href="#DejaVuSans-101"/>
     <use x="964.509766" xlink:href="#DejaVuSans-45"/>
     <use x="1000.59375" xlink:href="#DejaVuSans-52"/>
    </g>
    <!-- 10 instances -->
    <g transform="translate(60.41088 60.954904)scale(0.102 -0.102)">
     <use xlink:href="#DejaVuSans-49"/>
     <use x="63.623047" xlink:href="#DejaVuSans-48"/>
     <use x="127.246094" xlink:href="#DejaVuSans-32"/>
     <use x="159.033203" xlink:href="#DejaVuSans-105"/>
     <use x="186.816406" xlink:href="#DejaVuSans-110"/>
     <use x="250.195312" xlink:href="#DejaVuSans-115"/>
     <use x="302.294922" xlink:href="#DejaVuSans-116"/>
     <use x="341.503906" xlink:href="#DejaVuSans-97"/>
     <use x="402.783203" xlink:href="#DejaVuSans-110"/>
     <use x="466.162109" xlink:href="#DejaVuSans-99"/>
     <use x="521.142578" xlink:href="#DejaVuSans-101"/>
     <use x="582.666016" xlink:href="#DejaVuSans-115"/>
    </g>
   </g>
   <g id="text_18">
    <!-- v2.4.19, hv-hash=ff0e71e8cd978373 -->
    <g style="fill:#808080;" transform="translate(104.697125 294.151352)scale(0.1 -0.1)">
     <defs>
      <path d="M 10.984375 1.515625 
L 10.984375 10.5 
Q 14.703125 8.734375 18.5 7.8125 
Q 22.3125 6.890625 25.984375 6.890625 
Q 35.75 6.890625 40.890625 13.453125 
Q 46.046875 20.015625 46.78125 33.40625 
Q 43.953125 29.203125 39.59375 26.953125 
Q 35.25 24.703125 29.984375 24.703125 
Q 19.046875 24.703125 12.671875 31.3125 
Q 6.296875 37.9375 6.296875 49.421875 
Q 6.296875 60.640625 12.9375 67.421875 
Q 19.578125 74.21875 30.609375 74.21875 
Q 43.265625 74.21875 49.921875 64.515625 
Q 56.59375 54.828125 56.59375 36.375 
Q 56.59375 19.140625 48.40625 8.859375 
Q 40.234375 -1.421875 26.421875 -1.421875 
Q 22.703125 -1.421875 18.890625 -0.6875 
Q 15.09375 0.046875 10.984375 1.515625 
z
M 30.609375 32.421875 
Q 37.25 32.421875 41.125 36.953125 
Q 45.015625 41.5 45.015625 49.421875 
Q 45.015625 57.28125 41.125 61.84375 
Q 37.25 66.40625 30.609375 66.40625 
Q 23.96875 66.40625 20.09375 61.84375 
Q 16.21875 57.28125 16.21875 49.421875 
Q 16.21875 41.5 20.09375 36.953125 
Q 23.96875 32.421875 30.609375 32.421875 
z
" id="DejaVuSans-57"/>
      <path d="M 54.890625 33.015625 
L 54.890625 0 
L 45.90625 0 
L 45.90625 32.71875 
Q 45.90625 40.484375 42.875 44.328125 
Q 39.84375 48.1875 33.796875 48.1875 
Q 26.515625 48.1875 22.3125 43.546875 
Q 18.109375 38.921875 18.109375 30.90625 
L 18.109375 0 
L 9.078125 0 
L 9.078125 75.984375 
L 18.109375 75.984375 
L 18.109375 46.1875 
Q 21.34375 51.125 25.703125 53.5625 
Q 30.078125 56 35.796875 56 
Q 45.21875 56 50.046875 50.171875 
Q 54.890625 44.34375 54.890625 33.015625 
z
" id="DejaVuSans-104"/>
      <path d="M 10.59375 45.40625 
L 73.1875 45.40625 
L 73.1875 37.203125 
L 10.59375 37.203125 
z
M 10.59375 25.484375 
L 73.1875 25.484375 
L 73.1875 17.1875 
L 10.59375 17.1875 
z
" id="DejaVuSans-61"/>
      <path d="M 8.203125 72.90625 
L 55.078125 72.90625 
L 55.078125 68.703125 
L 28.609375 0 
L 18.3125 0 
L 43.21875 64.59375 
L 8.203125 64.59375 
z
" id="DejaVuSans-55"/>
     </defs>
     <use xlink:href="#DejaVuSans-118"/>
     <use x="59.179688" xlink:href="#DejaVuSans-50"/>
     <use x="122.802734" xlink:href="#DejaVuSans-46"/>
     <use x="154.589844" xlink:href="#DejaVuSans-52"/>
     <use x="218.212891" xlink:href="#DejaVuSans-46"/>
     <use x="250" xlink:href="#DejaVuSans-49"/>
     <use x="313.623047" xlink:href="#DejaVuSans-57"/>
     <use x="377.246094" xlink:href="#DejaVuSans-44"/>
     <use x="409.033203" xlink:href="#DejaVuSans-32"/>
     <use x="440.820312" xlink:href="#DejaVuSans-104"/>
     <use x="504.199219" xlink:href="#DejaVuSans-118"/>
     <use x="560.753906" xlink:href="#DejaVuSans-45"/>
     <use x="596.837891" xlink:href="#DejaVuSans-104"/>
     <use x="660.216797" xlink:href="#DejaVuSans-97"/>
     <use x="721.496094" xlink:href="#DejaVuSans-115"/>
     <use x="773.595703" xlink:href="#DejaVuSans-104"/>
     <use x="836.974609" xlink:href="#DejaVuSans-61"/>
     <use x="920.763672" xlink:href="#DejaVuSans-102"/>
     <use x="955.96875" xlink:href="#DejaVuSans-102"/>
     <use x="991.173828" xlink:href="#DejaVuSans-48"/>
     <use x="1054.796875" xlink:href="#DejaVuSans-101"/>
     <use x="1116.320312" xlink:href="#DejaVuSans-55"/>
     <use x="1179.943359" xlink:href="#DejaVuSans-49"/>
     <use x="1243.566406" xlink:href="#DejaVuSans-101"/>
     <use x="1305.089844" xlink:href="#DejaVuSans-56"/>
     <use x="1368.712891" xlink:href="#DejaVuSans-99"/>
     <use x="1423.693359" xlink:href="#DejaVuSans-100"/>
     <use x="1487.169922" xlink:href="#DejaVuSans-57"/>
     <use x="1550.792969" xlink:href="#DejaVuSans-55"/>
     <use x="1614.416016" xlink:href="#DejaVuSans-56"/>
     <use x="1678.039062" xlink:href="#DejaVuSans-51"/>
     <use x="1741.662109" xlink:href="#DejaVuSans-55"/>
     <use x="1805.285156" xlink:href="#DejaVuSans-51"/>
    </g>
   </g>
   <g id="text_19">
    <!-- 33 Rosenbrock/Schwefel -->
    <g transform="translate(75.945562 21.648)scale(0.2 -0.2)">
     <defs>
      <path d="M 44.390625 34.1875 
Q 47.5625 33.109375 50.5625 29.59375 
Q 53.5625 26.078125 56.59375 19.921875 
L 66.609375 0 
L 56 0 
L 46.6875 18.703125 
Q 43.0625 26.03125 39.671875 28.421875 
Q 36.28125 30.8125 30.421875 30.8125 
L 19.671875 30.8125 
L 19.671875 0 
L 9.8125 0 
L 9.8125 72.90625 
L 32.078125 72.90625 
Q 44.578125 72.90625 50.734375 67.671875 
Q 56.890625 62.453125 56.890625 51.90625 
Q 56.890625 45.015625 53.6875 40.46875 
Q 50.484375 35.9375 44.390625 34.1875 
z
M 19.671875 64.796875 
L 19.671875 38.921875 
L 32.078125 38.921875 
Q 39.203125 38.921875 42.84375 42.21875 
Q 46.484375 45.515625 46.484375 51.90625 
Q 46.484375 58.296875 42.84375 61.546875 
Q 39.203125 64.796875 32.078125 64.796875 
z
" id="DejaVuSans-82"/>
      <path d="M 9.078125 75.984375 
L 18.109375 75.984375 
L 18.109375 31.109375 
L 44.921875 54.6875 
L 56.390625 54.6875 
L 27.390625 29.109375 
L 57.625 0 
L 45.90625 0 
L 18.109375 26.703125 
L 18.109375 0 
L 9.078125 0 
z
" id="DejaVuSans-107"/>
      <path d="M 4.203125 54.6875 
L 13.1875 54.6875 
L 24.421875 12.015625 
L 35.59375 54.6875 
L 46.1875 54.6875 
L 57.421875 12.015625 
L 68.609375 54.6875 
L 77.59375 54.6875 
L 63.28125 0 
L 52.6875 0 
L 40.921875 44.828125 
L 29.109375 0 
L 18.5 0 
z
" id="DejaVuSans-119"/>
     </defs>
     <use xlink:href="#DejaVuSans-51"/>
     <use x="63.623047" xlink:href="#DejaVuSans-51"/>
     <use x="127.246094" xlink:href="#DejaVuSans-32"/>
     <use x="159.033203" xlink:href="#DejaVuSans-82"/>
     <use x="224.015625" xlink:href="#DejaVuSans-111"/>
     <use x="285.197266" xlink:href="#DejaVuSans-115"/>
     <use x="337.296875" xlink:href="#DejaVuSans-101"/>
     <use x="398.820312" xlink:href="#DejaVuSans-110"/>
     <use x="462.199219" xlink:href="#DejaVuSans-98"/>
     <use x="525.675781" xlink:href="#DejaVuSans-114"/>
     <use x="564.539062" xlink:href="#DejaVuSans-111"/>
     <use x="625.720703" xlink:href="#DejaVuSans-99"/>
     <use x="680.701172" xlink:href="#DejaVuSans-107"/>
     <use x="738.611328" xlink:href="#DejaVuSans-47"/>
     <use x="772.302734" xlink:href="#DejaVuSans-83"/>
     <use x="835.779297" xlink:href="#DejaVuSans-99"/>
     <use x="890.759766" xlink:href="#DejaVuSans-104"/>
     <use x="954.138672" xlink:href="#DejaVuSans-119"/>
     <use x="1035.925781" xlink:href="#DejaVuSans-101"/>
     <use x="1097.449219" xlink:href="#DejaVuSans-102"/>
     <use x="1132.654297" xlink:href="#DejaVuSans-101"/>
     <use x="1194.177734" xlink:href="#DejaVuSans-108"/>
    </g>
   </g>
  </g>
 </g>
 <defs>
  <clipPath id="p43f2efba50">
   <rect height="271.296" width="281.088" x="57.6" y="27.648"/>
  </clipPath>
 </defs>
</svg>
